<?xml version="1.0" encoding="UTF-8" standalone="no"?>
<!DOCTYPE svg PUBLIC "-//W3C//DTD SVG 1.1//EN"
 "http://www.w3.org/Graphics/SVG/1.1/DTD/svg11.dtd">
<!-- Generated by graphviz version 2.26.3 (20100126.1600)
 -->
<!-- Title: ActiveCallBanner.cpp Pages: 1 -->
<svg width="1418pt" height="262pt"
 viewBox="0.00 0.00 1417.90 262.00" xmlns="http://www.w3.org/2000/svg" xmlns:xlink="http://www.w3.org/1999/xlink">
<g id="graph1" class="graph" transform="scale(1 1) rotate(0) translate(4 258)">
<title>ActiveCallBanner.cpp</title>
<polygon fill="white" stroke="white" points="-4,5 -4,-258 1414.9,-258 1414.9,5 -4,5"/>
<!-- Node1 -->
<g id="node1" class="node"><title>Node1</title>
<polygon fill="#bfbfbf" stroke="black" points="984.403,-232.5 984.403,-253.5 1101.4,-253.5 1101.4,-232.5 984.403,-232.5"/>
<text text-anchor="middle" x="1042.9" y="-240.5" font-family="Helvetica,sans-Serif" font-size="10.00">ActiveCallBanner.cpp</text>
</g>
<!-- Node2 -->
<g id="node3" class="node"><title>Node2</title>
<polygon fill="white" stroke="#bfbfbf" points="751.403,-0.5 751.403,-21.5 818.403,-21.5 818.403,-0.5 751.403,-0.5"/>
<text text-anchor="middle" x="784.903" y="-8.5" font-family="Helvetica,sans-Serif" font-size="10.00">Common.h</text>
</g>
<!-- Node1&#45;&gt;Node2 -->
<g id="edge2" class="edge"><title>Node1&#45;&gt;Node2</title>
<path fill="none" stroke="midnightblue" d="M1029.98,-232.334C1019.12,-223.142 1003.42,-209.29 990.903,-196 959.69,-162.849 959.707,-147.579 926.903,-116 889.87,-80.3496 840.439,-46.3597 810.733,-27.146"/>
<polygon fill="midnightblue" stroke="midnightblue" points="812.492,-24.1161 802.183,-21.672 808.717,-30.0115 812.492,-24.1161"/>
</g>
<!-- Node3 -->
<g id="node5" class="node"><title>Node3</title>
<a xlink:href="ActiveCallBanner_8h.htm" target="_top" xlink:title="ActiveCallBanner.h">
<polygon fill="white" stroke="black" points="196.903,-58.5 196.903,-79.5 302.903,-79.5 302.903,-58.5 196.903,-58.5"/>
<text text-anchor="middle" x="249.903" y="-66.5" font-family="Helvetica,sans-Serif" font-size="10.00">ActiveCallBanner.h</text>
</a>
</g>
<!-- Node1&#45;&gt;Node3 -->
<g id="edge4" class="edge"><title>Node1&#45;&gt;Node3</title>
<path fill="none" stroke="midnightblue" d="M984.232,-241.38C778.35,-235.097 97.7682,-209.064 33.9032,-138 27.3674,-130.728 27.7681,-123.614 33.9032,-116 52.8426,-92.4963 130.063,-80.1312 186.789,-74.0905"/>
<polygon fill="midnightblue" stroke="midnightblue" points="187.177,-77.5693 196.769,-73.0698 186.464,-70.6056 187.177,-77.5693"/>
</g>
<!-- Node9 -->
<g id="node18" class="node"><title>Node9</title>
<polygon fill="white" stroke="#bfbfbf" points="1011.4,-174.5 1011.4,-195.5 1074.4,-195.5 1074.4,-174.5 1011.4,-174.5"/>
<text text-anchor="middle" x="1042.9" y="-182.5" font-family="Helvetica,sans-Serif" font-size="10.00">Settings.h</text>
</g>
<!-- Node1&#45;&gt;Node9 -->
<g id="edge18" class="edge"><title>Node1&#45;&gt;Node9</title>
<path fill="none" stroke="midnightblue" d="M1042.9,-232.362C1042.9,-224.922 1042.9,-214.743 1042.9,-205.728"/>
<polygon fill="midnightblue" stroke="midnightblue" points="1046.4,-205.571 1042.9,-195.571 1039.4,-205.571 1046.4,-205.571"/>
</g>
<!-- Node10 -->
<g id="node20" class="node"><title>Node10</title>
<polygon fill="white" stroke="#bfbfbf" points="1091.4,-174.5 1091.4,-195.5 1162.4,-195.5 1162.4,-174.5 1091.4,-174.5"/>
<text text-anchor="middle" x="1126.9" y="-182.5" font-family="Helvetica,sans-Serif" font-size="10.00">HostBase.h</text>
</g>
<!-- Node1&#45;&gt;Node10 -->
<g id="edge20" class="edge"><title>Node1&#45;&gt;Node10</title>
<path fill="none" stroke="midnightblue" d="M1058.31,-232.362C1070.86,-223.696 1088.8,-211.313 1103.18,-201.382"/>
<polygon fill="midnightblue" stroke="midnightblue" points="1105.35,-204.133 1111.59,-195.571 1101.38,-198.372 1105.35,-204.133"/>
</g>
<!-- Node11 -->
<g id="node22" class="node"><title>Node11</title>
<a xlink:href="WebAppMgrProxy_8h.htm" target="_top" xlink:title="WebAppMgrProxy.h">
<polygon fill="white" stroke="black" points="584.903,-174.5 584.903,-195.5 694.903,-195.5 694.903,-174.5 584.903,-174.5"/>
<text text-anchor="middle" x="639.903" y="-182.5" font-family="Helvetica,sans-Serif" font-size="10.00">WebAppMgrProxy.h</text>
</a>
</g>
<!-- Node1&#45;&gt;Node11 -->
<g id="edge22" class="edge"><title>Node1&#45;&gt;Node11</title>
<path fill="none" stroke="midnightblue" d="M984.304,-234.566C910.031,-223.877 782.393,-205.507 705.108,-194.384"/>
<polygon fill="midnightblue" stroke="midnightblue" points="705.409,-190.892 695.012,-192.931 704.412,-197.82 705.409,-190.892"/>
</g>
<!-- Node28 -->
<g id="node64" class="node"><title>Node28</title>
<a xlink:href="LsmUtils_8h.htm" target="_top" xlink:title="LsmUtils.h">
<polygon fill="white" stroke="black" points="951.403,-58.5 951.403,-79.5 1016.4,-79.5 1016.4,-58.5 951.403,-58.5"/>
<text text-anchor="middle" x="983.903" y="-66.5" font-family="Helvetica,sans-Serif" font-size="10.00">LsmUtils.h</text>
</a>
</g>
<!-- Node1&#45;&gt;Node28 -->
<g id="edge72" class="edge"><title>Node1&#45;&gt;Node28</title>
<path fill="none" stroke="midnightblue" d="M1030.68,-232.312C1021.48,-223.525 1009.38,-210.24 1002.9,-196 987.066,-161.174 983.923,-115.971 983.573,-89.9521"/>
<polygon fill="midnightblue" stroke="midnightblue" points="987.073,-89.7557 983.568,-79.7572 980.073,-89.7587 987.073,-89.7557"/>
</g>
<!-- Node29 -->
<g id="node68" class="node"><title>Node29</title>
<polygon fill="white" stroke="#bfbfbf" points="1179.9,-174.5 1179.9,-195.5 1235.9,-195.5 1235.9,-174.5 1179.9,-174.5"/>
<text text-anchor="middle" x="1207.9" y="-182.5" font-family="Helvetica,sans-Serif" font-size="10.00">QtUtils.h</text>
</g>
<!-- Node1&#45;&gt;Node29 -->
<g id="edge78" class="edge"><title>Node1&#45;&gt;Node29</title>
<path fill="none" stroke="midnightblue" d="M1072.78,-232.497C1100.15,-222.877 1140.78,-208.596 1170.33,-198.207"/>
<polygon fill="midnightblue" stroke="midnightblue" points="1171.62,-201.463 1179.9,-194.845 1169.3,-194.859 1171.62,-201.463"/>
</g>
<!-- Node30 -->
<g id="node70" class="node"><title>Node30</title>
<polygon fill="white" stroke="#bfbfbf" points="1253.4,-174.5 1253.4,-195.5 1312.4,-195.5 1312.4,-174.5 1253.4,-174.5"/>
<text text-anchor="middle" x="1282.9" y="-182.5" font-family="Helvetica,sans-Serif" font-size="10.00">QPainter</text>
</g>
<!-- Node1&#45;&gt;Node30 -->
<g id="edge80" class="edge"><title>Node1&#45;&gt;Node30</title>
<path fill="none" stroke="midnightblue" d="M1091.65,-232.42C1130.43,-223.831 1186.3,-211.078 1243.19,-196.369"/>
<polygon fill="midnightblue" stroke="midnightblue" points="1244.28,-199.703 1253.07,-193.797 1242.51,-192.929 1244.28,-199.703"/>
</g>
<!-- Node31 -->
<g id="node72" class="node"><title>Node31</title>
<polygon fill="white" stroke="#bfbfbf" points="1329.9,-174.5 1329.9,-195.5 1409.9,-195.5 1409.9,-174.5 1329.9,-174.5"/>
<text text-anchor="middle" x="1369.9" y="-182.5" font-family="Helvetica,sans-Serif" font-size="10.00">QFontMetrics</text>
</g>
<!-- Node1&#45;&gt;Node31 -->
<g id="edge82" class="edge"><title>Node1&#45;&gt;Node31</title>
<path fill="none" stroke="midnightblue" d="M1101.64,-234.002C1155.82,-225.491 1238.71,-211.937 1319.93,-196.119"/>
<polygon fill="midnightblue" stroke="midnightblue" points="1320.69,-199.538 1329.83,-194.179 1319.34,-192.669 1320.69,-199.538"/>
</g>
<!-- Node3&#45;&gt;Node2 -->
<g id="edge6" class="edge"><title>Node3&#45;&gt;Node2</title>
<path fill="none" stroke="midnightblue" d="M303.13,-59.3785C306.433,-58.8833 309.711,-58.4184 312.903,-58 493.836,-34.2851 540.97,-45.7149 721.903,-22 728.189,-21.1762 734.804,-20.1727 741.289,-19.1107"/>
<polygon fill="midnightblue" stroke="midnightblue" points="742.034,-22.5344 751.308,-17.4109 740.863,-15.633 742.034,-22.5344"/>
</g>
<!-- Node4 -->
<g id="node8" class="node"><title>Node4</title>
<polygon fill="white" stroke="#bfbfbf" points="409.903,-0.5 409.903,-21.5 459.903,-21.5 459.903,-0.5 409.903,-0.5"/>
<text text-anchor="middle" x="434.903" y="-8.5" font-family="Helvetica,sans-Serif" font-size="10.00">stdint.h</text>
</g>
<!-- Node3&#45;&gt;Node4 -->
<g id="edge8" class="edge"><title>Node3&#45;&gt;Node4</title>
<path fill="none" stroke="midnightblue" d="M284.121,-58.4686C312.714,-49.6417 354.808,-36.5864 399.98,-22.2731"/>
<polygon fill="midnightblue" stroke="midnightblue" points="401.189,-25.5614 409.662,-19.2007 399.072,-18.8893 401.189,-25.5614"/>
</g>
<!-- Node5 -->
<g id="node10" class="node"><title>Node5</title>
<polygon fill="white" stroke="#bfbfbf" points="223.403,-0.5 223.403,-21.5 276.403,-21.5 276.403,-0.5 223.403,-0.5"/>
<text text-anchor="middle" x="249.903" y="-8.5" font-family="Helvetica,sans-Serif" font-size="10.00">QString</text>
</g>
<!-- Node3&#45;&gt;Node5 -->
<g id="edge10" class="edge"><title>Node3&#45;&gt;Node5</title>
<path fill="none" stroke="midnightblue" d="M249.903,-58.3619C249.903,-50.9219 249.903,-40.7427 249.903,-31.7276"/>
<polygon fill="midnightblue" stroke="midnightblue" points="253.403,-31.5706 249.903,-21.5707 246.403,-31.5707 253.403,-31.5706"/>
</g>
<!-- Node6 -->
<g id="node12" class="node"><title>Node6</title>
<polygon fill="white" stroke="#bfbfbf" points="89.9032,-0.5 89.9032,-21.5 141.903,-21.5 141.903,-0.5 89.9032,-0.5"/>
<text text-anchor="middle" x="115.903" y="-8.5" font-family="Helvetica,sans-Serif" font-size="10.00">QTimer</text>
</g>
<!-- Node3&#45;&gt;Node6 -->
<g id="edge12" class="edge"><title>Node3&#45;&gt;Node6</title>
<path fill="none" stroke="midnightblue" d="M225.637,-58.4966C204.425,-49.3154 173.405,-35.8889 149.753,-25.6516"/>
<polygon fill="midnightblue" stroke="midnightblue" points="151.009,-22.3815 140.442,-21.6212 148.229,-28.8055 151.009,-22.3815"/>
</g>
<!-- Node7 -->
<g id="node14" class="node"><title>Node7</title>
<polygon fill="white" stroke="#bfbfbf" points="159.903,-0.5 159.903,-21.5 205.903,-21.5 205.903,-0.5 159.903,-0.5"/>
<text text-anchor="middle" x="182.903" y="-8.5" font-family="Helvetica,sans-Serif" font-size="10.00">QFont</text>
</g>
<!-- Node3&#45;&gt;Node7 -->
<g id="edge14" class="edge"><title>Node3&#45;&gt;Node7</title>
<path fill="none" stroke="midnightblue" d="M237.614,-58.3619C227.887,-49.9408 214.105,-38.0105 202.808,-28.2308"/>
<polygon fill="midnightblue" stroke="midnightblue" points="204.965,-25.4695 195.114,-21.5707 200.384,-30.7619 204.965,-25.4695"/>
</g>
<!-- Node8 -->
<g id="node16" class="node"><title>Node8</title>
<polygon fill="white" stroke="#bfbfbf" points="293.903,-0.5 293.903,-21.5 391.903,-21.5 391.903,-0.5 293.903,-0.5"/>
<text text-anchor="middle" x="342.903" y="-8.5" font-family="Helvetica,sans-Serif" font-size="10.00">QGraphicsObject</text>
</g>
<!-- Node3&#45;&gt;Node8 -->
<g id="edge16" class="edge"><title>Node3&#45;&gt;Node8</title>
<path fill="none" stroke="midnightblue" d="M266.961,-58.3619C280.988,-49.6138 301.088,-37.0786 317.085,-27.1015"/>
<polygon fill="midnightblue" stroke="midnightblue" points="319.321,-29.8323 325.954,-21.5707 315.616,-23.8927 319.321,-29.8323"/>
</g>
<!-- Node11&#45;&gt;Node2 -->
<g id="edge24" class="edge"><title>Node11&#45;&gt;Node2</title>
<path fill="none" stroke="midnightblue" d="M695.172,-174.595C717.33,-167.735 741.267,-156.455 756.903,-138 782.559,-107.719 786.184,-59.1446 785.936,-31.6757"/>
<polygon fill="midnightblue" stroke="midnightblue" points="789.433,-31.5272 785.66,-21.6269 782.436,-31.719 789.433,-31.5272"/>
</g>
<!-- Node12 -->
<g id="node25" class="node"><title>Node12</title>
<polygon fill="white" stroke="#bfbfbf" points="321.903,-58.5 321.903,-79.5 445.903,-79.5 445.903,-58.5 321.903,-58.5"/>
<text text-anchor="middle" x="383.903" y="-66.5" font-family="Helvetica,sans-Serif" font-size="10.00">PIpcChannelListener.h</text>
</g>
<!-- Node11&#45;&gt;Node12 -->
<g id="edge26" class="edge"><title>Node11&#45;&gt;Node12</title>
<path fill="none" stroke="midnightblue" d="M584.448,-184.57C448.482,-182.94 107.105,-175.154 72.9032,-138 17.6595,-77.9876 -130.846,-147.166 311.903,-80 312.005,-79.9846 312.106,-79.9692 312.208,-79.9537"/>
<polygon fill="midnightblue" stroke="midnightblue" points="312.491,-83.451 321.852,-78.4885 311.439,-76.5304 312.491,-83.451"/>
</g>
<!-- Node13 -->
<g id="node27" class="node"><title>Node13</title>
<polygon fill="white" stroke="#bfbfbf" points="803.403,-116.5 803.403,-137.5 848.403,-137.5 848.403,-116.5 803.403,-116.5"/>
<text text-anchor="middle" x="825.903" y="-124.5" font-family="Helvetica,sans-Serif" font-size="10.00">queue</text>
</g>
<!-- Node11&#45;&gt;Node13 -->
<g id="edge28" class="edge"><title>Node11&#45;&gt;Node13</title>
<path fill="none" stroke="midnightblue" d="M673.586,-174.497C707.646,-163.876 759.923,-147.575 793.512,-137.1"/>
<polygon fill="midnightblue" stroke="midnightblue" points="794.791,-140.368 803.296,-134.05 792.707,-133.685 794.791,-140.368"/>
</g>
<!-- Node14 -->
<g id="node29" class="node"><title>Node14</title>
<a xlink:href="IpcClientHost_8h.htm" target="_top" xlink:title="IpcClientHost.h">
<polygon fill="white" stroke="black" points="659.903,-116.5 659.903,-137.5 747.903,-137.5 747.903,-116.5 659.903,-116.5"/>
<text text-anchor="middle" x="703.903" y="-124.5" font-family="Helvetica,sans-Serif" font-size="10.00">IpcClientHost.h</text>
</a>
</g>
<!-- Node11&#45;&gt;Node14 -->
<g id="edge30" class="edge"><title>Node11&#45;&gt;Node14</title>
<path fill="none" stroke="midnightblue" d="M651.642,-174.362C660.844,-166.023 673.843,-154.242 684.575,-144.516"/>
<polygon fill="midnightblue" stroke="midnightblue" points="687.179,-146.879 692.239,-137.571 682.479,-141.692 687.179,-146.879"/>
</g>
<!-- Node23 -->
<g id="node54" class="node"><title>Node23</title>
<polygon fill="white" stroke="#bfbfbf" points="865.903,-116.5 865.903,-137.5 917.903,-137.5 917.903,-116.5 865.903,-116.5"/>
<text text-anchor="middle" x="891.903" y="-124.5" font-family="Helvetica,sans-Serif" font-size="10.00">Event.h</text>
</g>
<!-- Node11&#45;&gt;Node23 -->
<g id="edge62" class="edge"><title>Node11&#45;&gt;Node23</title>
<path fill="none" stroke="midnightblue" d="M695.082,-174.495C736.815,-166.221 795.704,-153.848 855.596,-138.193"/>
<polygon fill="midnightblue" stroke="midnightblue" points="856.831,-141.487 865.605,-135.548 855.043,-134.719 856.831,-141.487"/>
</g>
<!-- Node24 -->
<g id="node56" class="node"><title>Node24</title>
<polygon fill="white" stroke="#bfbfbf" points="81.9032,-116.5 81.9032,-137.5 173.903,-137.5 173.903,-116.5 81.9032,-116.5"/>
<text text-anchor="middle" x="127.903" y="-124.5" font-family="Helvetica,sans-Serif" font-size="10.00">CustomEvents.h</text>
</g>
<!-- Node11&#45;&gt;Node24 -->
<g id="edge64" class="edge"><title>Node11&#45;&gt;Node24</title>
<path fill="none" stroke="midnightblue" d="M584.821,-181.033C500.588,-174.593 334.554,-160.429 183.957,-138.048"/>
<polygon fill="midnightblue" stroke="midnightblue" points="184.47,-134.586 174.061,-136.562 183.43,-141.508 184.47,-134.586"/>
</g>
<!-- Node25 -->
<g id="node58" class="node"><title>Node25</title>
<polygon fill="white" stroke="#bfbfbf" points="191.903,-116.5 191.903,-137.5 343.903,-137.5 343.903,-116.5 191.903,-116.5"/>
<text text-anchor="middle" x="267.903" y="-124.5" font-family="Helvetica,sans-Serif" font-size="10.00">NewContentIndicatorEvent.h</text>
</g>
<!-- Node11&#45;&gt;Node25 -->
<g id="edge66" class="edge"><title>Node11&#45;&gt;Node25</title>
<path fill="none" stroke="midnightblue" d="M584.613,-176.379C521.338,-166.514 417.256,-150.286 345.791,-139.144"/>
<polygon fill="midnightblue" stroke="midnightblue" points="345.912,-135.62 335.492,-137.538 344.833,-142.537 345.912,-135.62"/>
</g>
<!-- Node26 -->
<g id="node60" class="node"><title>Node26</title>
<polygon fill="white" stroke="#bfbfbf" points="361.903,-116.5 361.903,-137.5 491.903,-137.5 491.903,-116.5 361.903,-116.5"/>
<text text-anchor="middle" x="426.903" y="-124.5" font-family="Helvetica,sans-Serif" font-size="10.00">BannerMessageEvent.h</text>
</g>
<!-- Node11&#45;&gt;Node26 -->
<g id="edge68" class="edge"><title>Node11&#45;&gt;Node26</title>
<path fill="none" stroke="midnightblue" d="M601.33,-174.497C566.004,-164.877 513.565,-150.598 475.412,-140.209"/>
<polygon fill="midnightblue" stroke="midnightblue" points="476.116,-136.773 465.548,-137.523 474.277,-143.528 476.116,-136.773"/>
</g>
<!-- Node27 -->
<g id="node62" class="node"><title>Node27</title>
<polygon fill="white" stroke="#bfbfbf" points="509.403,-116.5 509.403,-137.5 642.403,-137.5 642.403,-116.5 509.403,-116.5"/>
<text text-anchor="middle" x="575.903" y="-124.5" font-family="Helvetica,sans-Serif" font-size="10.00">ActiveCallBannerEvent.h</text>
</g>
<!-- Node11&#45;&gt;Node27 -->
<g id="edge70" class="edge"><title>Node11&#45;&gt;Node27</title>
<path fill="none" stroke="midnightblue" d="M628.165,-174.362C618.963,-166.023 605.963,-154.242 595.231,-144.516"/>
<polygon fill="midnightblue" stroke="midnightblue" points="597.328,-141.692 587.567,-137.571 592.627,-146.879 597.328,-141.692"/>
</g>
<!-- Node14&#45;&gt;Node2 -->
<g id="edge32" class="edge"><title>Node14&#45;&gt;Node2</title>
<path fill="none" stroke="midnightblue" d="M711.378,-116.295C725.061,-96.6998 754.305,-54.8198 771.502,-30.1913"/>
<polygon fill="midnightblue" stroke="midnightblue" points="774.591,-31.882 777.446,-21.6792 768.851,-27.8744 774.591,-31.882"/>
</g>
<!-- Node14&#45;&gt;Node12 -->
<g id="edge42" class="edge"><title>Node14&#45;&gt;Node12</title>
<path fill="none" stroke="midnightblue" d="M659.677,-117.716C656.71,-117.126 653.764,-116.549 650.903,-116 585.113,-103.385 509.948,-90.2696 456.168,-81.1092"/>
<polygon fill="midnightblue" stroke="midnightblue" points="456.489,-77.6138 446.044,-79.3886 455.316,-84.5148 456.489,-77.6138"/>
</g>
<!-- Node15 -->
<g id="node32" class="node"><title>Node15</title>
<polygon fill="white" stroke="#bfbfbf" points="902.403,-0.5 902.403,-21.5 945.403,-21.5 945.403,-0.5 902.403,-0.5"/>
<text text-anchor="middle" x="923.903" y="-8.5" font-family="Helvetica,sans-Serif" font-size="10.00">string</text>
</g>
<!-- Node14&#45;&gt;Node15 -->
<g id="edge34" class="edge"><title>Node14&#45;&gt;Node15</title>
<path fill="none" stroke="midnightblue" d="M724.206,-116.295C763.433,-95.6116 849.749,-50.0995 894.973,-26.2543"/>
<polygon fill="midnightblue" stroke="midnightblue" points="896.754,-29.2718 903.967,-21.5117 893.489,-23.0798 896.754,-29.2718"/>
</g>
<!-- Node16 -->
<g id="node34" class="node"><title>Node16</title>
<polygon fill="white" stroke="#bfbfbf" points="546.403,-58.5 546.403,-79.5 583.403,-79.5 583.403,-58.5 546.403,-58.5"/>
<text text-anchor="middle" x="564.903" y="-66.5" font-family="Helvetica,sans-Serif" font-size="10.00">map</text>
</g>
<!-- Node14&#45;&gt;Node16 -->
<g id="edge36" class="edge"><title>Node14&#45;&gt;Node16</title>
<path fill="none" stroke="midnightblue" d="M678.731,-116.497C654.558,-106.41 618.106,-91.1996 592.998,-80.7232"/>
<polygon fill="midnightblue" stroke="midnightblue" points="594.232,-77.4453 583.655,-76.8245 591.536,-83.9055 594.232,-77.4453"/>
</g>
<!-- Node17 -->
<g id="node36" class="node"><title>Node17</title>
<polygon fill="white" stroke="#bfbfbf" points="600.403,-58.5 600.403,-79.5 631.403,-79.5 631.403,-58.5 600.403,-58.5"/>
<text text-anchor="middle" x="615.903" y="-66.5" font-family="Helvetica,sans-Serif" font-size="10.00">set</text>
</g>
<!-- Node14&#45;&gt;Node17 -->
<g id="edge38" class="edge"><title>Node14&#45;&gt;Node17</title>
<path fill="none" stroke="midnightblue" d="M687.763,-116.362C674.407,-107.559 655.233,-94.9217 640.05,-84.9147"/>
<polygon fill="midnightblue" stroke="midnightblue" points="641.921,-81.9563 631.645,-79.3755 638.069,-87.801 641.921,-81.9563"/>
</g>
<!-- Node18 -->
<g id="node38" class="node"><title>Node18</title>
<polygon fill="white" stroke="#bfbfbf" points="672.403,-0.5 672.403,-21.5 713.403,-21.5 713.403,-0.5 672.403,-0.5"/>
<text text-anchor="middle" x="692.903" y="-8.5" font-family="Helvetica,sans-Serif" font-size="10.00">glib.h</text>
</g>
<!-- Node14&#45;&gt;Node18 -->
<g id="edge40" class="edge"><title>Node14&#45;&gt;Node18</title>
<path fill="none" stroke="midnightblue" d="M707.201,-116.165C710.89,-102.509 715.863,-78.3607 711.903,-58 710.111,-48.7869 706.515,-39.0938 702.929,-30.9193"/>
<polygon fill="midnightblue" stroke="midnightblue" points="706.088,-29.4117 698.682,-21.8357 699.747,-32.3768 706.088,-29.4117"/>
</g>
<!-- Node19 -->
<g id="node41" class="node"><title>Node19</title>
<a xlink:href="Window_8h.htm" target="_top" xlink:title="Window.h">
<polygon fill="white" stroke="black" points="466.903,-58.5 466.903,-79.5 528.903,-79.5 528.903,-58.5 466.903,-58.5"/>
<text text-anchor="middle" x="497.903" y="-66.5" font-family="Helvetica,sans-Serif" font-size="10.00">Window.h</text>
</a>
</g>
<!-- Node14&#45;&gt;Node19 -->
<g id="edge44" class="edge"><title>Node14&#45;&gt;Node19</title>
<path fill="none" stroke="midnightblue" d="M666.598,-116.497C630.671,-106.381 576.441,-91.1127 539.222,-80.6335"/>
<polygon fill="midnightblue" stroke="midnightblue" points="539.779,-77.1544 529.205,-77.8131 537.882,-83.8924 539.779,-77.1544"/>
</g>
<!-- Node22 -->
<g id="node52" class="node"><title>Node22</title>
<polygon fill="white" stroke="#bfbfbf" points="648.403,-58.5 648.403,-79.5 703.403,-79.5 703.403,-58.5 648.403,-58.5"/>
<text text-anchor="middle" x="675.903" y="-66.5" font-family="Helvetica,sans-Serif" font-size="10.00">QObject</text>
</g>
<!-- Node14&#45;&gt;Node22 -->
<g id="edge60" class="edge"><title>Node14&#45;&gt;Node22</title>
<path fill="none" stroke="midnightblue" d="M698.768,-116.362C695.057,-108.677 689.936,-98.0686 685.481,-88.8399"/>
<polygon fill="midnightblue" stroke="midnightblue" points="688.506,-87.0545 681.006,-79.5707 682.202,-90.0978 688.506,-87.0545"/>
</g>
<!-- Node19&#45;&gt;Node2 -->
<g id="edge46" class="edge"><title>Node19&#45;&gt;Node2</title>
<path fill="none" stroke="midnightblue" d="M529.285,-60.1137C532.191,-59.3684 535.097,-58.6517 537.903,-58 575.887,-49.1784 681.16,-29.7777 741.298,-18.861"/>
<polygon fill="midnightblue" stroke="midnightblue" points="742.044,-22.2828 751.26,-17.0553 740.796,-15.395 742.044,-22.2828"/>
</g>
<!-- Node19&#45;&gt;Node4 -->
<g id="edge50" class="edge"><title>Node19&#45;&gt;Node4</title>
<path fill="none" stroke="midnightblue" d="M486.348,-58.3619C477.29,-50.0226 464.493,-38.2418 453.929,-28.5162"/>
<polygon fill="midnightblue" stroke="midnightblue" points="456.113,-25.7688 446.385,-21.5707 451.372,-30.9187 456.113,-25.7688"/>
</g>
<!-- Node19&#45;&gt;Node8 -->
<g id="edge56" class="edge"><title>Node19&#45;&gt;Node8</title>
<path fill="none" stroke="midnightblue" d="M469.834,-58.4966C444.893,-49.1639 408.229,-35.4447 380.711,-25.1475"/>
<polygon fill="midnightblue" stroke="midnightblue" points="381.618,-21.7497 371.025,-21.5231 379.164,-28.3058 381.618,-21.7497"/>
</g>
<!-- Node19&#45;&gt;Node15 -->
<g id="edge52" class="edge"><title>Node19&#45;&gt;Node15</title>
<path fill="none" stroke="midnightblue" d="M529.242,-59.9125C532.157,-59.2094 535.077,-58.5576 537.903,-58 572.396,-51.1958 806.338,-24.3446 892.3,-14.5769"/>
<polygon fill="midnightblue" stroke="midnightblue" points="892.717,-18.0521 902.259,-13.4466 891.928,-11.0968 892.717,-18.0521"/>
</g>
<!-- Node19&#45;&gt;Node18 -->
<g id="edge54" class="edge"><title>Node19&#45;&gt;Node18</title>
<path fill="none" stroke="midnightblue" d="M529.233,-59.6813C565.783,-48.8102 625.821,-30.9527 662.13,-20.1531"/>
<polygon fill="midnightblue" stroke="midnightblue" points="663.556,-23.3806 672.143,-17.1748 661.56,-16.6711 663.556,-23.3806"/>
</g>
<!-- Node20 -->
<g id="node44" class="node"><title>Node20</title>
<polygon fill="white" stroke="#bfbfbf" points="539.903,-0.5 539.903,-21.5 631.903,-21.5 631.903,-0.5 539.903,-0.5"/>
<text text-anchor="middle" x="585.903" y="-8.5" font-family="Helvetica,sans-Serif" font-size="10.00">WindowTypes.h</text>
</g>
<!-- Node19&#45;&gt;Node20 -->
<g id="edge48" class="edge"><title>Node19&#45;&gt;Node20</title>
<path fill="none" stroke="midnightblue" d="M514.044,-58.3619C527.317,-49.6138 546.336,-37.0786 561.473,-27.1015"/>
<polygon fill="midnightblue" stroke="midnightblue" points="563.441,-29.9962 569.865,-21.5707 559.589,-24.1515 563.441,-29.9962"/>
</g>
<!-- Node21 -->
<g id="node50" class="node"><title>Node21</title>
<polygon fill="white" stroke="#bfbfbf" points="477.403,-0.5 477.403,-21.5 522.403,-21.5 522.403,-0.5 477.403,-0.5"/>
<text text-anchor="middle" x="499.903" y="-8.5" font-family="Helvetica,sans-Serif" font-size="10.00">QSize</text>
</g>
<!-- Node19&#45;&gt;Node21 -->
<g id="edge58" class="edge"><title>Node19&#45;&gt;Node21</title>
<path fill="none" stroke="midnightblue" d="M498.27,-58.3619C498.527,-50.9219 498.878,-40.7427 499.188,-31.7276"/>
<polygon fill="midnightblue" stroke="midnightblue" points="502.692,-31.6854 499.539,-21.5707 495.696,-31.4441 502.692,-31.6854"/>
</g>
<!-- Node28&#45;&gt;Node2 -->
<g id="edge74" class="edge"><title>Node28&#45;&gt;Node2</title>
<path fill="none" stroke="midnightblue" d="M951.042,-59.4225C917.541,-49.6584 865.387,-34.4577 828.461,-23.6953"/>
<polygon fill="midnightblue" stroke="midnightblue" points="829.058,-20.2236 818.478,-20.7856 827.099,-26.944 829.058,-20.2236"/>
</g>
<!-- Node28&#45;&gt;Node15 -->
<g id="edge76" class="edge"><title>Node28&#45;&gt;Node15</title>
<path fill="none" stroke="midnightblue" d="M972.898,-58.3619C964.356,-50.1043 952.323,-38.4725 942.32,-28.8029"/>
<polygon fill="midnightblue" stroke="midnightblue" points="944.461,-26.0044 934.838,-21.5707 939.596,-31.0374 944.461,-26.0044"/>
</g>
</g>
</svg>
