<?xml version="1.0" encoding="UTF-8" standalone="no"?>
<!DOCTYPE svg PUBLIC "-//W3C//DTD SVG 1.1//EN"
 "http://www.w3.org/Graphics/SVG/1.1/DTD/svg11.dtd">
<!-- Generated by graphviz version 2.26.3 (20100126.1600)
 -->
<!-- Title: AlertWindow.h Pages: 1 -->
<svg width="3460pt" height="204pt"
 viewBox="0.00 0.00 3460.00 204.00" xmlns="http://www.w3.org/2000/svg" xmlns:xlink="http://www.w3.org/1999/xlink">
<g id="graph1" class="graph" transform="scale(1 1) rotate(0) translate(4 200)">
<title>AlertWindow.h</title>
<polygon fill="white" stroke="white" points="-4,5 -4,-200 3457,-200 3457,5 -4,5"/>
<!-- Node1 -->
<g id="node1" class="node"><title>Node1</title>
<polygon fill="#bfbfbf" stroke="black" points="1001,-174.5 1001,-195.5 1085,-195.5 1085,-174.5 1001,-174.5"/>
<text text-anchor="middle" x="1043" y="-182.5" font-family="Helvetica,sans-Serif" font-size="10.00">AlertWindow.h</text>
</g>
<!-- Node2 -->
<g id="node3" class="node"><title>Node2</title>
<a xlink:href="CardWindow_8cpp.htm" target="_top" xlink:title="CardWindow.cpp">
<polygon fill="white" stroke="black" points="597.5,-0.5 597.5,-21.5 694.5,-21.5 694.5,-0.5 597.5,-0.5"/>
<text text-anchor="middle" x="646" y="-8.5" font-family="Helvetica,sans-Serif" font-size="10.00">CardWindow.cpp</text>
</a>
</g>
<!-- Node1&#45;&gt;Node2 -->
<g id="edge2" class="edge"><title>Node1&#45;&gt;Node2</title>
<path fill="none" stroke="midnightblue" d="M1008.61,-170.438C986.892,-161.212 958.268,-148.988 933,-138 835.065,-95.4112 718.859,-43.5915 669.767,-21.6404"/>
<polygon fill="midnightblue" stroke="midnightblue" points="1007.49,-173.765 1018.06,-174.451 1010.22,-167.322 1007.49,-173.765"/>
</g>
<!-- Node3 -->
<g id="node5" class="node"><title>Node3</title>
<a xlink:href="DockModeWindow_8cpp.htm" target="_top" xlink:title="DockModeWindow.cpp">
<polygon fill="white" stroke="black" points="711.5,-0.5 711.5,-21.5 836.5,-21.5 836.5,-0.5 711.5,-0.5"/>
<text text-anchor="middle" x="774" y="-8.5" font-family="Helvetica,sans-Serif" font-size="10.00">DockModeWindow.cpp</text>
</a>
</g>
<!-- Node1&#45;&gt;Node3 -->
<g id="edge4" class="edge"><title>Node1&#45;&gt;Node3</title>
<path fill="none" stroke="midnightblue" d="M1017.91,-168.768C963.535,-133.599 836.099,-51.168 790.549,-21.7046"/>
<polygon fill="midnightblue" stroke="midnightblue" points="1016.28,-171.885 1026.58,-174.377 1020.08,-166.007 1016.28,-171.885"/>
</g>
<!-- Node4 -->
<g id="node7" class="node"><title>Node4</title>
<a xlink:href="LockWindow_8cpp.htm" target="_top" xlink:title="LockWindow.cpp">
<polygon fill="white" stroke="black" points="854,-0.5 854,-21.5 950,-21.5 950,-0.5 854,-0.5"/>
<text text-anchor="middle" x="902" y="-8.5" font-family="Helvetica,sans-Serif" font-size="10.00">LockWindow.cpp</text>
</a>
</g>
<!-- Node1&#45;&gt;Node4 -->
<g id="edge6" class="edge"><title>Node1&#45;&gt;Node4</title>
<path fill="none" stroke="midnightblue" d="M1028.05,-166.549C998.706,-130.339 934.392,-50.9732 910.855,-21.9277"/>
<polygon fill="midnightblue" stroke="midnightblue" points="1025.38,-168.812 1034.39,-174.377 1030.82,-164.405 1025.38,-168.812"/>
</g>
<!-- Node5 -->
<g id="node9" class="node"><title>Node5</title>
<a xlink:href="AlertWindow_8cpp.htm" target="_top" xlink:title="AlertWindow.cpp">
<polygon fill="white" stroke="black" points="1209.5,-116.5 1209.5,-137.5 1304.5,-137.5 1304.5,-116.5 1209.5,-116.5"/>
<text text-anchor="middle" x="1257" y="-124.5" font-family="Helvetica,sans-Serif" font-size="10.00">AlertWindow.cpp</text>
</a>
</g>
<!-- Node1&#45;&gt;Node5 -->
<g id="edge8" class="edge"><title>Node1&#45;&gt;Node5</title>
<path fill="none" stroke="midnightblue" d="M1091.66,-171.812C1129.97,-161.428 1182.66,-147.149 1218.17,-137.523"/>
<polygon fill="midnightblue" stroke="midnightblue" points="1090.49,-168.503 1081.75,-174.497 1092.32,-175.259 1090.49,-168.503"/>
</g>
<!-- Node6 -->
<g id="node11" class="node"><title>Node6</title>
<a xlink:href="DashboardWindowManager_8cpp.htm" target="_top" xlink:title="DashboardWindowManager.cpp">
<polygon fill="white" stroke="black" points="968,-0.5 968,-21.5 1136,-21.5 1136,-0.5 968,-0.5"/>
<text text-anchor="middle" x="1052" y="-8.5" font-family="Helvetica,sans-Serif" font-size="10.00">DashboardWindowManager.cpp</text>
</a>
</g>
<!-- Node1&#45;&gt;Node6 -->
<g id="edge10" class="edge"><title>Node1&#45;&gt;Node6</title>
<path fill="none" stroke="midnightblue" d="M1043.53,-164.294C1044.23,-139.143 1045.67,-95.4324 1048,-58 1048.77,-45.5764 1050.04,-31.3365 1050.94,-21.8169"/>
<polygon fill="midnightblue" stroke="midnightblue" points="1040.02,-164.364 1043.25,-174.455 1047.02,-164.552 1040.02,-164.364"/>
</g>
<!-- Node7 -->
<g id="node13" class="node"><title>Node7</title>
<a xlink:href="DashboardWindowManagerStates_8cpp.htm" target="_top" xlink:title="DashboardWindowManagerStates.cpp">
<polygon fill="white" stroke="black" points="1154,-0.5 1154,-21.5 1352,-21.5 1352,-0.5 1154,-0.5"/>
<text text-anchor="middle" x="1253" y="-8.5" font-family="Helvetica,sans-Serif" font-size="10.00">DashboardWindowManagerStates.cpp</text>
</a>
</g>
<!-- Node1&#45;&gt;Node7 -->
<g id="edge12" class="edge"><title>Node1&#45;&gt;Node7</title>
<path fill="none" stroke="midnightblue" d="M1050.78,-164.798C1057.21,-150.007 1067.48,-130.134 1081,-116 1124.16,-70.8664 1190.76,-37.6242 1227.12,-21.6335"/>
<polygon fill="midnightblue" stroke="midnightblue" points="1047.52,-163.514 1046.94,-174.093 1053.99,-166.184 1047.52,-163.514"/>
</g>
<!-- Node8 -->
<g id="node15" class="node"><title>Node8</title>
<a xlink:href="VolumeControlAlertWindow_8h.htm" target="_top" xlink:title="VolumeControlAlertWindow.h">
<polygon fill="white" stroke="black" points="252.5,-116.5 252.5,-137.5 405.5,-137.5 405.5,-116.5 252.5,-116.5"/>
<text text-anchor="middle" x="329" y="-124.5" font-family="Helvetica,sans-Serif" font-size="10.00">VolumeControlAlertWindow.h</text>
</a>
</g>
<!-- Node1&#45;&gt;Node8 -->
<g id="edge14" class="edge"><title>Node1&#45;&gt;Node8</title>
<path fill="none" stroke="midnightblue" d="M990.694,-180.751C866.162,-170.635 551.624,-145.084 405.632,-133.225"/>
<polygon fill="midnightblue" stroke="midnightblue" points="990.488,-184.246 1000.74,-181.567 991.055,-177.269 990.488,-184.246"/>
</g>
<!-- Node14 -->
<g id="node28" class="node"><title>Node14</title>
<a xlink:href="QmlAlertWindow_8h.htm" target="_top" xlink:title="QmlAlertWindow.h">
<polygon fill="white" stroke="black" points="1089.5,-116.5 1089.5,-137.5 1192.5,-137.5 1192.5,-116.5 1089.5,-116.5"/>
<text text-anchor="middle" x="1141" y="-124.5" font-family="Helvetica,sans-Serif" font-size="10.00">QmlAlertWindow.h</text>
</a>
</g>
<!-- Node1&#45;&gt;Node14 -->
<g id="edge28" class="edge"><title>Node1&#45;&gt;Node14</title>
<path fill="none" stroke="midnightblue" d="M1069.86,-169.101C1086.82,-159.066 1108.25,-146.381 1123.14,-137.571"/>
<polygon fill="midnightblue" stroke="midnightblue" points="1067.8,-166.257 1060.97,-174.362 1071.36,-172.281 1067.8,-166.257"/>
</g>
<!-- Node29 -->
<g id="node66" class="node"><title>Node29</title>
<a xlink:href="WindowManagerMinimal_8cpp.htm" target="_top" xlink:title="WindowManagerMinimal.cpp">
<polygon fill="white" stroke="black" points="1322,-116.5 1322,-137.5 1474,-137.5 1474,-116.5 1322,-116.5"/>
<text text-anchor="middle" x="1398" y="-124.5" font-family="Helvetica,sans-Serif" font-size="10.00">WindowManagerMinimal.cpp</text>
</a>
</g>
<!-- Node1&#45;&gt;Node29 -->
<g id="edge74" class="edge"><title>Node1&#45;&gt;Node29</title>
<path fill="none" stroke="midnightblue" d="M1095.27,-176.461C1158.53,-166.124 1265.07,-148.719 1333.41,-137.553"/>
<polygon fill="midnightblue" stroke="midnightblue" points="1094.42,-173.052 1085.12,-178.119 1095.55,-179.961 1094.42,-173.052"/>
</g>
<!-- Node30 -->
<g id="node68" class="node"><title>Node30</title>
<a xlink:href="WebAppMgrProxy_8cpp.htm" target="_top" xlink:title="WebAppMgrProxy.cpp">
<polygon fill="white" stroke="black" points="1492,-116.5 1492,-137.5 1614,-137.5 1614,-116.5 1492,-116.5"/>
<text text-anchor="middle" x="1553" y="-124.5" font-family="Helvetica,sans-Serif" font-size="10.00">WebAppMgrProxy.cpp</text>
</a>
</g>
<!-- Node1&#45;&gt;Node30 -->
<g id="edge76" class="edge"><title>Node1&#45;&gt;Node30</title>
<path fill="none" stroke="midnightblue" d="M1095.38,-180.25C1177.94,-172.573 1343.31,-156.425 1483,-138 1485.93,-137.614 1488.92,-137.204 1491.94,-136.777"/>
<polygon fill="midnightblue" stroke="midnightblue" points="1094.88,-176.781 1085.25,-181.188 1095.53,-183.751 1094.88,-176.781"/>
</g>
<!-- Node9 -->
<g id="node17" class="node"><title>Node9</title>
<a xlink:href="NativeAlertManager_8h.htm" target="_top" xlink:title="NativeAlertManager.h">
<polygon fill="white" stroke="black" points="269.5,-58.5 269.5,-79.5 388.5,-79.5 388.5,-58.5 269.5,-58.5"/>
<text text-anchor="middle" x="329" y="-66.5" font-family="Helvetica,sans-Serif" font-size="10.00">NativeAlertManager.h</text>
</a>
</g>
<!-- Node8&#45;&gt;Node9 -->
<g id="edge16" class="edge"><title>Node8&#45;&gt;Node9</title>
<path fill="none" stroke="midnightblue" d="M329,-106.191C329,-97.1684 329,-86.9941 329,-79.5707"/>
<polygon fill="midnightblue" stroke="midnightblue" points="325.5,-106.362 329,-116.362 332.5,-106.362 325.5,-106.362"/>
</g>
<!-- Node12 -->
<g id="node23" class="node"><title>Node12</title>
<a xlink:href="VolumeControlAlertWindow_8cpp.htm" target="_top" xlink:title="VolumeControlAlertWindow.cpp">
<polygon fill="white" stroke="black" points="0,-0.5 0,-21.5 164,-21.5 164,-0.5 0,-0.5"/>
<text text-anchor="middle" x="82" y="-8.5" font-family="Helvetica,sans-Serif" font-size="10.00">VolumeControlAlertWindow.cpp</text>
</a>
</g>
<!-- Node8&#45;&gt;Node12 -->
<g id="edge26" class="edge"><title>Node8&#45;&gt;Node12</title>
<path fill="none" stroke="midnightblue" d="M296.997,-111.97C246.198,-88.1131 148.366,-42.168 104.383,-21.5117"/>
<polygon fill="midnightblue" stroke="midnightblue" points="295.666,-115.212 306.206,-116.295 298.642,-108.876 295.666,-115.212"/>
</g>
<!-- Node10 -->
<g id="node19" class="node"><title>Node10</title>
<a xlink:href="WindowServer_8cpp.htm" target="_top" xlink:title="WindowServer.cpp">
<polygon fill="white" stroke="black" points="329.5,-0.5 329.5,-21.5 434.5,-21.5 434.5,-0.5 329.5,-0.5"/>
<text text-anchor="middle" x="382" y="-8.5" font-family="Helvetica,sans-Serif" font-size="10.00">WindowServer.cpp</text>
</a>
</g>
<!-- Node9&#45;&gt;Node10 -->
<g id="edge18" class="edge"><title>Node9&#45;&gt;Node10</title>
<path fill="none" stroke="midnightblue" d="M345.604,-50.8299C354.396,-41.2078 364.886,-29.7282 372.341,-21.5707"/>
<polygon fill="midnightblue" stroke="midnightblue" points="342.883,-48.6188 338.721,-58.3619 348.051,-53.3408 342.883,-48.6188"/>
</g>
<!-- Node11 -->
<g id="node21" class="node"><title>Node11</title>
<a xlink:href="NativeAlertManager_8cpp.htm" target="_top" xlink:title="NativeAlertManager.cpp">
<polygon fill="white" stroke="black" points="181.5,-0.5 181.5,-21.5 312.5,-21.5 312.5,-0.5 181.5,-0.5"/>
<text text-anchor="middle" x="247" y="-8.5" font-family="Helvetica,sans-Serif" font-size="10.00">NativeAlertManager.cpp</text>
</a>
</g>
<!-- Node9&#45;&gt;Node11 -->
<g id="edge20" class="edge"><title>Node9&#45;&gt;Node11</title>
<path fill="none" stroke="midnightblue" d="M305.73,-52.5407C291.672,-42.5973 274.17,-30.2177 261.945,-21.5707"/>
<polygon fill="midnightblue" stroke="midnightblue" points="303.775,-55.4447 313.96,-58.3619 307.817,-49.7298 303.775,-55.4447"/>
</g>
<!-- Node9&#45;&gt;Node12 -->
<g id="edge22" class="edge"><title>Node9&#45;&gt;Node12</title>
<path fill="none" stroke="midnightblue" d="M274.524,-56.2081C230.174,-45.7938 168.329,-31.2716 126.814,-21.5231"/>
<polygon fill="midnightblue" stroke="midnightblue" points="273.735,-59.6179 284.27,-58.4966 275.335,-52.8032 273.735,-59.6179"/>
</g>
<!-- Node13 -->
<g id="node25" class="node"><title>Node13</title>
<a xlink:href="WindowServerLuna_8cpp.htm" target="_top" xlink:title="WindowServerLuna.cpp">
<polygon fill="white" stroke="black" points="452,-0.5 452,-21.5 580,-21.5 580,-0.5 452,-0.5"/>
<text text-anchor="middle" x="516" y="-8.5" font-family="Helvetica,sans-Serif" font-size="10.00">WindowServerLuna.cpp</text>
</a>
</g>
<!-- Node9&#45;&gt;Node13 -->
<g id="edge24" class="edge"><title>Node9&#45;&gt;Node13</title>
<path fill="none" stroke="midnightblue" d="M372.807,-55.4127C406.171,-45.0646 451.434,-31.0258 482.072,-21.5231"/>
<polygon fill="midnightblue" stroke="midnightblue" points="371.379,-52.1913 362.864,-58.4966 373.452,-58.8771 371.379,-52.1913"/>
</g>
<!-- Node15 -->
<g id="node30" class="node"><title>Node15</title>
<a xlink:href="WindowServerLuna_8h.htm" target="_top" xlink:title="WindowServerLuna.h">
<polygon fill="white" stroke="black" points="1680.5,-58.5 1680.5,-79.5 1797.5,-79.5 1797.5,-58.5 1680.5,-58.5"/>
<text text-anchor="middle" x="1739" y="-66.5" font-family="Helvetica,sans-Serif" font-size="10.00">WindowServerLuna.h</text>
</a>
</g>
<!-- Node14&#45;&gt;Node15 -->
<g id="edge30" class="edge"><title>Node14&#45;&gt;Node15</title>
<path fill="none" stroke="midnightblue" d="M1202.81,-115.849C1382.15,-92.0415 1583.02,-78.2 1680.29,-72.313"/>
<polygon fill="midnightblue" stroke="midnightblue" points="1202.11,-112.411 1192.66,-117.21 1203.04,-119.349 1202.11,-112.411"/>
</g>
<!-- Node27 -->
<g id="node60" class="node"><title>Node27</title>
<a xlink:href="QmlAlertWindow_8cpp.htm" target="_top" xlink:title="QmlAlertWindow.cpp">
<polygon fill="white" stroke="black" points="3338,-0.5 3338,-21.5 3452,-21.5 3452,-0.5 3338,-0.5"/>
<text text-anchor="middle" x="3395" y="-8.5" font-family="Helvetica,sans-Serif" font-size="10.00">QmlAlertWindow.cpp</text>
</a>
</g>
<!-- Node14&#45;&gt;Node27 -->
<g id="edge72" class="edge"><title>Node14&#45;&gt;Node27</title>
<path fill="none" stroke="midnightblue" d="M1202.92,-115.923C1688.12,-62.8714 2861.57,-71.094 3329,-22 3331.89,-21.6967 3334.84,-21.3476 3337.82,-20.9648"/>
<polygon fill="midnightblue" stroke="midnightblue" points="1202.19,-112.482 1192.64,-117.067 1202.97,-119.439 1202.19,-112.482"/>
</g>
<!-- Node15&#45;&gt;Node2 -->
<g id="edge42" class="edge"><title>Node15&#45;&gt;Node2</title>
<path fill="none" stroke="midnightblue" d="M1670.19,-67.1849C1470.16,-61.7013 891.15,-44.3029 703,-22 700.298,-21.6797 697.531,-21.3046 694.745,-20.8898"/>
<polygon fill="midnightblue" stroke="midnightblue" points="1670.18,-70.686 1680.27,-67.4601 1670.37,-63.6886 1670.18,-70.686"/>
</g>
<!-- Node15&#45;&gt;Node3 -->
<g id="edge50" class="edge"><title>Node15&#45;&gt;Node3</title>
<path fill="none" stroke="midnightblue" d="M1670.27,-67.7551C1520.13,-64.5169 1151.78,-53.7468 845,-22 842.27,-21.7175 839.486,-21.4024 836.675,-21.0622"/>
<polygon fill="midnightblue" stroke="midnightblue" points="1670.19,-71.2543 1680.26,-67.9666 1670.34,-64.2559 1670.19,-71.2543"/>
</g>
<!-- Node15&#45;&gt;Node4 -->
<g id="edge58" class="edge"><title>Node15&#45;&gt;Node4</title>
<path fill="none" stroke="midnightblue" d="M1669.74,-67.8553C1533.25,-64.9313 1220.05,-54.9109 959,-22 956.1,-21.6344 953.126,-21.2105 950.131,-20.7462"/>
<polygon fill="midnightblue" stroke="midnightblue" points="1669.98,-71.3609 1680.05,-68.0697 1670.12,-64.3624 1669.98,-71.3609"/>
</g>
<!-- Node15&#45;&gt;Node6 -->
<g id="edge62" class="edge"><title>Node15&#45;&gt;Node6</title>
<path fill="none" stroke="midnightblue" d="M1670.31,-64.4334C1559.61,-56.8789 1334.93,-40.7392 1145,-22 1142.09,-21.7127 1139.13,-21.4113 1136.13,-21.0994"/>
<polygon fill="midnightblue" stroke="midnightblue" points="1670.12,-67.9289 1680.34,-65.1157 1670.6,-60.945 1670.12,-67.9289"/>
</g>
<!-- Node15&#45;&gt;Node7 -->
<g id="edge64" class="edge"><title>Node15&#45;&gt;Node7</title>
<path fill="none" stroke="midnightblue" d="M1670.42,-60.8158C1584.09,-50.5128 1435.66,-32.799 1341.03,-21.5059"/>
<polygon fill="midnightblue" stroke="midnightblue" points="1670.03,-64.2941 1680.38,-62.0038 1670.86,-57.3434 1670.03,-64.2941"/>
</g>
<!-- Node15&#45;&gt;Node10 -->
<g id="edge38" class="edge"><title>Node15&#45;&gt;Node10</title>
<path fill="none" stroke="midnightblue" d="M1670.21,-67.7972C1438.01,-63.5346 684.252,-47.9935 443,-22 440.218,-21.7003 437.372,-21.348 434.504,-20.9569"/>
<polygon fill="midnightblue" stroke="midnightblue" points="1670.16,-71.2967 1680.22,-67.9799 1670.28,-64.2979 1670.16,-71.2967"/>
</g>
<!-- Node15&#45;&gt;Node13 -->
<g id="edge70" class="edge"><title>Node15&#45;&gt;Node13</title>
<path fill="none" stroke="midnightblue" d="M1670.16,-67.1704C1455.6,-61.3128 800.733,-42.2188 589,-22 586.066,-21.7198 583.069,-21.4011 580.045,-21.0532"/>
<polygon fill="midnightblue" stroke="midnightblue" points="1670.25,-70.6741 1680.34,-67.4475 1670.44,-63.6767 1670.25,-70.6741"/>
</g>
<!-- Node16 -->
<g id="node32" class="node"><title>Node16</title>
<a xlink:href="ApplicationManager_8cpp.htm" target="_top" xlink:title="ApplicationManager.cpp">
<polygon fill="white" stroke="black" points="3005.5,-0.5 3005.5,-21.5 3136.5,-21.5 3136.5,-0.5 3005.5,-0.5"/>
<text text-anchor="middle" x="3071" y="-8.5" font-family="Helvetica,sans-Serif" font-size="10.00">ApplicationManager.cpp</text>
</a>
</g>
<!-- Node15&#45;&gt;Node16 -->
<g id="edge32" class="edge"><title>Node15&#45;&gt;Node16</title>
<path fill="none" stroke="midnightblue" d="M1807.64,-67.4346C2035.11,-62.0897 2763.11,-43.6859 2997,-22 2999.72,-21.7482 3002.48,-21.4637 3005.28,-21.1535"/>
<polygon fill="midnightblue" stroke="midnightblue" points="1807.42,-63.9386 1797.51,-67.6718 1807.58,-70.9367 1807.42,-63.9386"/>
</g>
<!-- Node17 -->
<g id="node34" class="node"><title>Node17</title>
<a xlink:href="ApplicationManagerService_8cpp.htm" target="_top" xlink:title="ApplicationManagerService.cpp">
<polygon fill="white" stroke="black" points="3154,-0.5 3154,-21.5 3320,-21.5 3320,-0.5 3154,-0.5"/>
<text text-anchor="middle" x="3237" y="-8.5" font-family="Helvetica,sans-Serif" font-size="10.00">ApplicationManagerService.cpp</text>
</a>
</g>
<!-- Node15&#45;&gt;Node17 -->
<g id="edge34" class="edge"><title>Node15&#45;&gt;Node17</title>
<path fill="none" stroke="midnightblue" d="M1807.69,-67.4841C2052.31,-61.9639 2880.47,-42.1987 3145,-22 3147.89,-21.7796 3150.82,-21.5357 3153.79,-21.2729"/>
<polygon fill="midnightblue" stroke="midnightblue" points="1807.44,-63.9889 1797.52,-67.7131 1807.59,-70.9871 1807.44,-63.9889"/>
</g>
<!-- Node18 -->
<g id="node36" class="node"><title>Node18</title>
<a xlink:href="SystemUiController_8cpp.htm" target="_top" xlink:title="SystemUiController.cpp">
<polygon fill="white" stroke="black" points="1369.5,-0.5 1369.5,-21.5 1496.5,-21.5 1496.5,-0.5 1369.5,-0.5"/>
<text text-anchor="middle" x="1433" y="-8.5" font-family="Helvetica,sans-Serif" font-size="10.00">SystemUiController.cpp</text>
</a>
</g>
<!-- Node15&#45;&gt;Node18 -->
<g id="edge36" class="edge"><title>Node15&#45;&gt;Node18</title>
<path fill="none" stroke="midnightblue" d="M1673.58,-56.5999C1618.5,-46.1607 1540.6,-31.3945 1488.52,-21.5231"/>
<polygon fill="midnightblue" stroke="midnightblue" points="1673.11,-60.0731 1683.59,-58.4966 1674.41,-53.1955 1673.11,-60.0731"/>
</g>
<!-- Node19 -->
<g id="node39" class="node"><title>Node19</title>
<a xlink:href="CardHostWindow_8cpp.htm" target="_top" xlink:title="CardHostWindow.cpp">
<polygon fill="white" stroke="black" points="1513.5,-0.5 1513.5,-21.5 1632.5,-21.5 1632.5,-0.5 1513.5,-0.5"/>
<text text-anchor="middle" x="1573" y="-8.5" font-family="Helvetica,sans-Serif" font-size="10.00">CardHostWindow.cpp</text>
</a>
</g>
<!-- Node15&#45;&gt;Node19 -->
<g id="edge40" class="edge"><title>Node15&#45;&gt;Node19</title>
<path fill="none" stroke="midnightblue" d="M1699.34,-55.1443C1669.8,-44.8229 1630.08,-30.9439 1603.12,-21.5231"/>
<polygon fill="midnightblue" stroke="midnightblue" points="1698.34,-58.5023 1708.94,-58.4966 1700.65,-51.894 1698.34,-58.5023"/>
</g>
<!-- Node20 -->
<g id="node42" class="node"><title>Node20</title>
<a xlink:href="DockModeAppMenuContainer_8cpp.htm" target="_top" xlink:title="DockModeAppMenuContainer.cpp">
<polygon fill="white" stroke="black" points="1649.5,-0.5 1649.5,-21.5 1828.5,-21.5 1828.5,-0.5 1649.5,-0.5"/>
<text text-anchor="middle" x="1739" y="-8.5" font-family="Helvetica,sans-Serif" font-size="10.00">DockModeAppMenuContainer.cpp</text>
</a>
</g>
<!-- Node15&#45;&gt;Node20 -->
<g id="edge44" class="edge"><title>Node15&#45;&gt;Node20</title>
<path fill="none" stroke="midnightblue" d="M1739,-48.1906C1739,-39.1684 1739,-28.9941 1739,-21.5707"/>
<polygon fill="midnightblue" stroke="midnightblue" points="1735.5,-48.3619 1739,-58.3619 1742.5,-48.3619 1735.5,-48.3619"/>
</g>
<!-- Node21 -->
<g id="node44" class="node"><title>Node21</title>
<a xlink:href="DockModeMenuManager_8cpp.htm" target="_top" xlink:title="DockModeMenuManager.cpp">
<polygon fill="white" stroke="black" points="1846,-0.5 1846,-21.5 2002,-21.5 2002,-0.5 1846,-0.5"/>
<text text-anchor="middle" x="1924" y="-8.5" font-family="Helvetica,sans-Serif" font-size="10.00">DockModeMenuManager.cpp</text>
</a>
</g>
<!-- Node15&#45;&gt;Node21 -->
<g id="edge46" class="edge"><title>Node15&#45;&gt;Node21</title>
<path fill="none" stroke="midnightblue" d="M1782.34,-55.4127C1815.35,-45.0646 1860.12,-31.0258 1890.44,-21.5231"/>
<polygon fill="midnightblue" stroke="midnightblue" points="1781,-52.1653 1772.5,-58.4966 1783.09,-58.8447 1781,-52.1653"/>
</g>
<!-- Node22 -->
<g id="node46" class="node"><title>Node22</title>
<a xlink:href="DockModePositionManager_8cpp.htm" target="_top" xlink:title="DockModePositionManager.cpp">
<polygon fill="white" stroke="black" points="2019.5,-0.5 2019.5,-21.5 2186.5,-21.5 2186.5,-0.5 2019.5,-0.5"/>
<text text-anchor="middle" x="2103" y="-8.5" font-family="Helvetica,sans-Serif" font-size="10.00">DockModePositionManager.cpp</text>
</a>
</g>
<!-- Node15&#45;&gt;Node22 -->
<g id="edge48" class="edge"><title>Node15&#45;&gt;Node22</title>
<path fill="none" stroke="midnightblue" d="M1808.15,-57.9818C1873.88,-47.508 1972.06,-31.8645 2036.8,-21.5487"/>
<polygon fill="midnightblue" stroke="midnightblue" points="1807.21,-54.5868 1797.89,-59.6168 1808.31,-61.4996 1807.21,-54.5868"/>
</g>
<!-- Node23 -->
<g id="node49" class="node"><title>Node23</title>
<a xlink:href="DockModeWindowManager_8cpp.htm" target="_top" xlink:title="DockModeWindowManager.cpp">
<polygon fill="white" stroke="black" points="2203.5,-0.5 2203.5,-21.5 2370.5,-21.5 2370.5,-0.5 2203.5,-0.5"/>
<text text-anchor="middle" x="2287" y="-8.5" font-family="Helvetica,sans-Serif" font-size="10.00">DockModeWindowManager.cpp</text>
</a>
</g>
<!-- Node15&#45;&gt;Node23 -->
<g id="edge52" class="edge"><title>Node15&#45;&gt;Node23</title>
<path fill="none" stroke="midnightblue" d="M1807.7,-62.2712C1896.98,-53.4452 2057.72,-37.281 2195,-22 2197.72,-21.6975 2200.48,-21.3866 2203.27,-21.0699"/>
<polygon fill="midnightblue" stroke="midnightblue" points="1807.31,-58.7927 1797.7,-63.2584 1807.99,-65.7588 1807.31,-58.7927"/>
</g>
<!-- Node24 -->
<g id="node51" class="node"><title>Node24</title>
<a xlink:href="FullEraseConfirmationWindow_8cpp.htm" target="_top" xlink:title="FullEraseConfirmationWindow.cpp">
<polygon fill="white" stroke="black" points="2387.5,-0.5 2387.5,-21.5 2564.5,-21.5 2564.5,-0.5 2387.5,-0.5"/>
<text text-anchor="middle" x="2476" y="-8.5" font-family="Helvetica,sans-Serif" font-size="10.00">FullEraseConfirmationWindow.cpp</text>
</a>
</g>
<!-- Node15&#45;&gt;Node24 -->
<g id="edge54" class="edge"><title>Node15&#45;&gt;Node24</title>
<path fill="none" stroke="midnightblue" d="M1808.02,-64.8311C1925.41,-57.5384 2171.45,-41.3815 2379,-22 2381.78,-21.74 2384.61,-21.4678 2387.47,-21.1861"/>
<polygon fill="midnightblue" stroke="midnightblue" points="1807.51,-61.3558 1797.74,-65.467 1807.94,-68.3424 1807.51,-61.3558"/>
</g>
<!-- Node25 -->
<g id="node53" class="node"><title>Node25</title>
<a xlink:href="dimensionsglobal_8cpp.htm" target="_top" xlink:title="dimensionsglobal.cpp">
<polygon fill="white" stroke="black" points="2581.5,-0.5 2581.5,-21.5 2698.5,-21.5 2698.5,-0.5 2581.5,-0.5"/>
<text text-anchor="middle" x="2640" y="-8.5" font-family="Helvetica,sans-Serif" font-size="10.00">dimensionsglobal.cpp</text>
</a>
</g>
<!-- Node15&#45;&gt;Node25 -->
<g id="edge56" class="edge"><title>Node15&#45;&gt;Node25</title>
<path fill="none" stroke="midnightblue" d="M1807.93,-67.5957C1950.94,-64.1367 2290.15,-53.0996 2573,-22 2575.69,-21.7037 2578.45,-21.3718 2581.22,-21.0132"/>
<polygon fill="midnightblue" stroke="midnightblue" points="1807.48,-64.1053 1797.57,-67.8413 1807.65,-71.1033 1807.48,-64.1053"/>
</g>
<!-- Node26 -->
<g id="node56" class="node"><title>Node26</title>
<a xlink:href="DashboardWindowContainer_8cpp.htm" target="_top" xlink:title="DashboardWindowContainer.cpp">
<polygon fill="white" stroke="black" points="2716,-0.5 2716,-21.5 2888,-21.5 2888,-0.5 2716,-0.5"/>
<text text-anchor="middle" x="2802" y="-8.5" font-family="Helvetica,sans-Serif" font-size="10.00">DashboardWindowContainer.cpp</text>
</a>
</g>
<!-- Node15&#45;&gt;Node26 -->
<g id="edge60" class="edge"><title>Node15&#45;&gt;Node26</title>
<path fill="none" stroke="midnightblue" d="M1807.84,-67.2363C1966.56,-62.8245 2370.42,-49.6266 2707,-22 2709.9,-21.7623 2712.84,-21.5057 2715.81,-21.2339"/>
<polygon fill="midnightblue" stroke="midnightblue" points="1807.64,-63.7403 1797.74,-67.5142 1807.83,-70.7377 1807.64,-63.7403"/>
</g>
<!-- Node15&#45;&gt;Node27 -->
<g id="edge66" class="edge"><title>Node15&#45;&gt;Node27</title>
<path fill="none" stroke="midnightblue" d="M1808.11,-68.2057C2073.48,-64.9617 3027.26,-51.468 3329,-22 3331.89,-21.7177 3334.85,-21.3857 3337.83,-21.0163"/>
<polygon fill="midnightblue" stroke="midnightblue" points="1807.8,-64.709 1797.85,-68.3302 1807.89,-71.7085 1807.8,-64.709"/>
</g>
<!-- Node28 -->
<g id="node62" class="node"><title>Node28</title>
<a xlink:href="StatusBar_8cpp.htm" target="_top" xlink:title="StatusBar.cpp">
<polygon fill="white" stroke="black" points="2906,-0.5 2906,-21.5 2988,-21.5 2988,-0.5 2906,-0.5"/>
<text text-anchor="middle" x="2947" y="-8.5" font-family="Helvetica,sans-Serif" font-size="10.00">StatusBar.cpp</text>
</a>
</g>
<!-- Node15&#45;&gt;Node28 -->
<g id="edge68" class="edge"><title>Node15&#45;&gt;Node28</title>
<path fill="none" stroke="midnightblue" d="M1808.02,-67.7933C2023.88,-63.7675 2684.47,-49.4737 2897,-22 2899.91,-21.624 2902.9,-21.1621 2905.9,-20.6428"/>
<polygon fill="midnightblue" stroke="midnightblue" points="1807.71,-64.2983 1797.77,-67.9828 1807.83,-71.2971 1807.71,-64.2983"/>
</g>
</g>
</svg>
