<?xml version="1.0" encoding="UTF-8" standalone="no"?>
<!DOCTYPE svg PUBLIC "-//W3C//DTD SVG 1.1//EN"
 "http://www.w3.org/Graphics/SVG/1.1/DTD/svg11.dtd">
<!-- Generated by graphviz version 2.26.3 (20100126.1600)
 -->
<!-- Title: alphabeticonlayout.h Pages: 1 -->
<svg width="250pt" height="88pt"
 viewBox="0.00 0.00 250.00 88.00" xmlns="http://www.w3.org/2000/svg" xmlns:xlink="http://www.w3.org/1999/xlink">
<g id="graph1" class="graph" transform="scale(1 1) rotate(0) translate(4 84)">
<title>alphabeticonlayout.h</title>
<polygon fill="white" stroke="white" points="-4,5 -4,-84 247,-84 247,5 -4,5"/>
<!-- Node1 -->
<g id="node1" class="node"><title>Node1</title>
<polygon fill="#bfbfbf" stroke="black" points="58.5,-58.5 58.5,-79.5 171.5,-79.5 171.5,-58.5 58.5,-58.5"/>
<text text-anchor="middle" x="115" y="-66.5" font-family="Helvetica,sans-Serif" font-size="10.00">alphabeticonlayout.h</text>
</g>
<!-- Node2 -->
<g id="node3" class="node"><title>Node2</title>
<a xlink:href="alphabetpage_8cpp.htm" target="_top" xlink:title="alphabetpage.cpp">
<polygon fill="white" stroke="black" points="-0.5,-0.5 -0.5,-21.5 100.5,-21.5 100.5,-0.5 -0.5,-0.5"/>
<text text-anchor="middle" x="50" y="-8.5" font-family="Helvetica,sans-Serif" font-size="10.00">alphabetpage.cpp</text>
</a>
</g>
<!-- Node1&#45;&gt;Node2 -->
<g id="edge2" class="edge"><title>Node1&#45;&gt;Node2</title>
<path fill="none" stroke="midnightblue" d="M95.6017,-51.6908C84.6289,-41.8996 71.2628,-29.973 61.8464,-21.5707"/>
<polygon fill="midnightblue" stroke="midnightblue" points="93.2863,-54.3155 103.078,-58.3619 97.9468,-49.0925 93.2863,-54.3155"/>
</g>
<!-- Node3 -->
<g id="node5" class="node"><title>Node3</title>
<a xlink:href="alphabeticonlayout_8cpp.htm" target="_top" xlink:title="alphabeticonlayout.cpp">
<polygon fill="white" stroke="black" points="118,-0.5 118,-21.5 242,-21.5 242,-0.5 118,-0.5"/>
<text text-anchor="middle" x="180" y="-8.5" font-family="Helvetica,sans-Serif" font-size="10.00">alphabeticonlayout.cpp</text>
</a>
</g>
<!-- Node1&#45;&gt;Node3 -->
<g id="edge4" class="edge"><title>Node1&#45;&gt;Node3</title>
<path fill="none" stroke="midnightblue" d="M134.398,-51.6908C145.371,-41.8996 158.737,-29.973 168.154,-21.5707"/>
<polygon fill="midnightblue" stroke="midnightblue" points="132.053,-49.0925 126.922,-58.3619 136.714,-54.3155 132.053,-49.0925"/>
</g>
</g>
</svg>
