<?xml version="1.0" encoding="UTF-8" standalone="no"?>
<!DOCTYPE svg PUBLIC "-//W3C//DTD SVG 1.1//EN"
 "http://www.w3.org/Graphics/SVG/1.1/DTD/svg11.dtd">
<!-- Generated by graphviz version 2.26.3 (20100126.1600)
 -->
<!-- Title: AmbientLightSensor.cpp Pages: 1 -->
<svg width="2434pt" height="262pt"
 viewBox="0.00 0.00 2434.00 262.00" xmlns="http://www.w3.org/2000/svg" xmlns:xlink="http://www.w3.org/1999/xlink">
<g id="graph1" class="graph" transform="scale(1 1) rotate(0) translate(4 258)">
<title>AmbientLightSensor.cpp</title>
<polygon fill="white" stroke="white" points="-4,5 -4,-258 2431,-258 2431,5 -4,5"/>
<!-- Node1 -->
<g id="node1" class="node"><title>Node1</title>
<polygon fill="#bfbfbf" stroke="black" points="1960.5,-232.5 1960.5,-253.5 2091.5,-253.5 2091.5,-232.5 1960.5,-232.5"/>
<text text-anchor="middle" x="2026" y="-240.5" font-family="Helvetica,sans-Serif" font-size="10.00">AmbientLightSensor.cpp</text>
</g>
<!-- Node2 -->
<g id="node3" class="node"><title>Node2</title>
<a xlink:href="AmbientLightSensor_8h.htm" target="_top" xlink:title="AmbientLightSensor.h">
<polygon fill="white" stroke="black" points="1796.5,-58.5 1796.5,-79.5 1915.5,-79.5 1915.5,-58.5 1796.5,-58.5"/>
<text text-anchor="middle" x="1856" y="-66.5" font-family="Helvetica,sans-Serif" font-size="10.00">AmbientLightSensor.h</text>
</a>
</g>
<!-- Node1&#45;&gt;Node2 -->
<g id="edge2" class="edge"><title>Node1&#45;&gt;Node2</title>
<path fill="none" stroke="midnightblue" d="M2031.62,-232.457C2043.36,-208.844 2067.21,-151.038 2040,-116 2032.46,-106.286 1971.19,-91.9278 1921.39,-81.6398"/>
<polygon fill="midnightblue" stroke="midnightblue" points="1921.79,-78.1474 1911.29,-79.5742 1920.38,-85.0057 1921.79,-78.1474"/>
</g>
<!-- Node3 -->
<g id="node5" class="node"><title>Node3</title>
<polygon fill="white" stroke="#bfbfbf" points="1050.5,-0.5 1050.5,-21.5 1117.5,-21.5 1117.5,-0.5 1050.5,-0.5"/>
<text text-anchor="middle" x="1084" y="-8.5" font-family="Helvetica,sans-Serif" font-size="10.00">Common.h</text>
</g>
<!-- Node1&#45;&gt;Node3 -->
<g id="edge10" class="edge"><title>Node1&#45;&gt;Node3</title>
<path fill="none" stroke="midnightblue" d="M1960.31,-241.49C1762.95,-236.72 1177.26,-220.812 988,-196 822.583,-174.313 711.591,-226.076 631,-80 626.277,-71.4387 624.453,-65.2619 631,-58 644.624,-42.889 929.264,-21.6887 1040.24,-13.9637"/>
<polygon fill="midnightblue" stroke="midnightblue" points="1040.69,-17.4411 1050.42,-13.2588 1040.21,-10.4578 1040.69,-17.4411"/>
</g>
<!-- Node4 -->
<g id="node7" class="node"><title>Node4</title>
<polygon fill="white" stroke="#bfbfbf" points="1817,-0.5 1817,-21.5 1895,-21.5 1895,-0.5 1817,-0.5"/>
<text text-anchor="middle" x="1856" y="-8.5" font-family="Helvetica,sans-Serif" font-size="10.00">lunaservice.h</text>
</g>
<!-- Node1&#45;&gt;Node4 -->
<g id="edge176" class="edge"><title>Node1&#45;&gt;Node4</title>
<path fill="none" stroke="midnightblue" d="M2025.99,-232.183C2025.32,-207.481 2020.02,-146.695 1985,-116 1918.06,-57.3355 1845,-148.36 1788,-80 1771.69,-60.4422 1798.46,-39.883 1823.06,-26.3481"/>
<polygon fill="midnightblue" stroke="midnightblue" points="1824.7,-29.4366 1831.93,-21.6942 1821.45,-23.2365 1824.7,-29.4366"/>
</g>
<!-- Node6 -->
<g id="node12" class="node"><title>Node6</title>
<polygon fill="white" stroke="#bfbfbf" points="2091.5,-174.5 2091.5,-195.5 2162.5,-195.5 2162.5,-174.5 2091.5,-174.5"/>
<text text-anchor="middle" x="2127" y="-182.5" font-family="Helvetica,sans-Serif" font-size="10.00">HostBase.h</text>
</g>
<!-- Node1&#45;&gt;Node6 -->
<g id="edge12" class="edge"><title>Node1&#45;&gt;Node6</title>
<path fill="none" stroke="midnightblue" d="M2044.52,-232.362C2059.9,-223.532 2082,-210.844 2099.45,-200.822"/>
<polygon fill="midnightblue" stroke="midnightblue" points="2101.66,-203.586 2108.59,-195.571 2098.18,-197.515 2101.66,-203.586"/>
</g>
<!-- Node7 -->
<g id="node14" class="node"><title>Node7</title>
<polygon fill="white" stroke="#bfbfbf" points="2179.5,-174.5 2179.5,-195.5 2252.5,-195.5 2252.5,-174.5 2179.5,-174.5"/>
<text text-anchor="middle" x="2216" y="-182.5" font-family="Helvetica,sans-Serif" font-size="10.00">JSONUtils.h</text>
</g>
<!-- Node1&#45;&gt;Node7 -->
<g id="edge14" class="edge"><title>Node1&#45;&gt;Node7</title>
<path fill="none" stroke="midnightblue" d="M2060.41,-232.497C2091.65,-222.959 2137.9,-208.841 2171.86,-198.475"/>
<polygon fill="midnightblue" stroke="midnightblue" points="2172.99,-201.79 2181.53,-195.523 2170.94,-195.095 2172.99,-201.79"/>
</g>
<!-- Node8 -->
<g id="node16" class="node"><title>Node8</title>
<polygon fill="white" stroke="#bfbfbf" points="1926.5,-0.5 1926.5,-21.5 1989.5,-21.5 1989.5,-0.5 1926.5,-0.5"/>
<text text-anchor="middle" x="1958" y="-8.5" font-family="Helvetica,sans-Serif" font-size="10.00">Settings.h</text>
</g>
<!-- Node1&#45;&gt;Node8 -->
<g id="edge16" class="edge"><title>Node1&#45;&gt;Node8</title>
<path fill="none" stroke="midnightblue" d="M1960.32,-239.879C1826.06,-233.171 1524.28,-216.326 1423,-196 1342.25,-179.794 1295.27,-204.732 1247,-138 1210.98,-88.2063 1277.71,-75.3025 1325,-58 1446.07,-13.7056 1776.2,-38.9068 1904,-22 1907.99,-21.4716 1912.14,-20.8195 1916.27,-20.0985"/>
<polygon fill="midnightblue" stroke="midnightblue" points="1917.24,-23.4765 1926.43,-18.1961 1915.96,-16.596 1917.24,-23.4765"/>
</g>
<!-- Node9 -->
<g id="node18" class="node"><title>Node9</title>
<a xlink:href="SystemService_8h.htm" target="_top" xlink:title="SystemService.h">
<polygon fill="white" stroke="black" points="1029.5,-116.5 1029.5,-137.5 1124.5,-137.5 1124.5,-116.5 1029.5,-116.5"/>
<text text-anchor="middle" x="1077" y="-124.5" font-family="Helvetica,sans-Serif" font-size="10.00">SystemService.h</text>
</a>
</g>
<!-- Node1&#45;&gt;Node9 -->
<g id="edge18" class="edge"><title>Node1&#45;&gt;Node9</title>
<path fill="none" stroke="midnightblue" d="M1960.3,-241.434C1773.71,-236.696 1249.31,-221.272 1176,-196 1144.43,-185.116 1113.79,-161.032 1095.16,-144.408"/>
<polygon fill="midnightblue" stroke="midnightblue" points="1097.45,-141.761 1087.72,-137.584 1092.72,-146.921 1097.45,-141.761"/>
</g>
<!-- Node13 -->
<g id="node28" class="node"><title>Node13</title>
<polygon fill="white" stroke="#bfbfbf" points="2270,-174.5 2270,-195.5 2318,-195.5 2318,-174.5 2270,-174.5"/>
<text text-anchor="middle" x="2294" y="-182.5" font-family="Helvetica,sans-Serif" font-size="10.00">Time.h</text>
</g>
<!-- Node1&#45;&gt;Node13 -->
<g id="edge30" class="edge"><title>Node1&#45;&gt;Node13</title>
<path fill="none" stroke="midnightblue" d="M2089.83,-232.45C2135.05,-224.467 2197.26,-212.461 2260.25,-195.974"/>
<polygon fill="midnightblue" stroke="midnightblue" points="2261.19,-199.347 2269.95,-193.4 2259.39,-192.581 2261.19,-199.347"/>
</g>
<!-- Node14 -->
<g id="node30" class="node"><title>Node14</title>
<a xlink:href="WindowServer_8h.htm" target="_top" xlink:title="WindowServer.h">
<polygon fill="white" stroke="black" points="1432,-174.5 1432,-195.5 1526,-195.5 1526,-174.5 1432,-174.5"/>
<text text-anchor="middle" x="1479" y="-182.5" font-family="Helvetica,sans-Serif" font-size="10.00">WindowServer.h</text>
</a>
</g>
<!-- Node1&#45;&gt;Node14 -->
<g id="edge32" class="edge"><title>Node1&#45;&gt;Node14</title>
<path fill="none" stroke="midnightblue" d="M1960.29,-236.033C1852.16,-224.567 1638.53,-201.915 1536.22,-191.068"/>
<polygon fill="midnightblue" stroke="midnightblue" points="1536.4,-187.567 1526.09,-189.993 1535.66,-194.528 1536.4,-187.567"/>
</g>
<!-- Node32 -->
<g id="node86" class="node"><title>Node32</title>
<polygon fill="white" stroke="#bfbfbf" points="617.5,-0.5 617.5,-21.5 658.5,-21.5 658.5,-0.5 617.5,-0.5"/>
<text text-anchor="middle" x="638" y="-8.5" font-family="Helvetica,sans-Serif" font-size="10.00">glib.h</text>
</g>
<!-- Node1&#45;&gt;Node32 -->
<g id="edge174" class="edge"><title>Node1&#45;&gt;Node32</title>
<path fill="none" stroke="midnightblue" d="M1960.36,-241.2C1767.18,-235.675 1209.22,-217.986 1130,-196 1077.12,-181.326 1049.26,-185.042 1021,-138 1002.64,-107.434 1050.92,-84.4368 1027,-58 975.001,-0.541905 761.496,-37.5113 668.625,-21.6189"/>
<polygon fill="midnightblue" stroke="midnightblue" points="669.201,-18.1645 658.704,-19.601 667.806,-25.024 669.201,-18.1645"/>
</g>
<!-- Node50 -->
<g id="node136" class="node"><title>Node50</title>
<polygon fill="white" stroke="#bfbfbf" points="2336,-174.5 2336,-195.5 2408,-195.5 2408,-174.5 2336,-174.5"/>
<text text-anchor="middle" x="2372" y="-182.5" font-family="Helvetica,sans-Serif" font-size="10.00">cjson/json.h</text>
</g>
<!-- Node1&#45;&gt;Node50 -->
<g id="edge172" class="edge"><title>Node1&#45;&gt;Node50</title>
<path fill="none" stroke="midnightblue" d="M2091.75,-234.371C2150.65,-226.268 2239.58,-213.118 2325.76,-196.132"/>
<polygon fill="midnightblue" stroke="midnightblue" points="2326.59,-199.536 2335.71,-194.151 2325.22,-192.671 2326.59,-199.536"/>
</g>
<!-- Node2&#45;&gt;Node3 -->
<g id="edge4" class="edge"><title>Node2&#45;&gt;Node3</title>
<path fill="none" stroke="midnightblue" d="M1796.29,-59.5937C1791.8,-59.0113 1787.33,-58.4712 1783,-58 1535.84,-31.1155 1237.74,-17.199 1127.61,-12.6816"/>
<polygon fill="midnightblue" stroke="midnightblue" points="1127.69,-9.18177 1117.55,-12.2737 1127.4,-16.176 1127.69,-9.18177"/>
</g>
<!-- Node2&#45;&gt;Node4 -->
<g id="edge6" class="edge"><title>Node2&#45;&gt;Node4</title>
<path fill="none" stroke="midnightblue" d="M1856,-58.3619C1856,-50.9219 1856,-40.7427 1856,-31.7276"/>
<polygon fill="midnightblue" stroke="midnightblue" points="1859.5,-31.5706 1856,-21.5707 1852.5,-31.5707 1859.5,-31.5706"/>
</g>
<!-- Node5 -->
<g id="node9" class="node"><title>Node5</title>
<polygon fill="white" stroke="#bfbfbf" points="2027.5,-0.5 2027.5,-21.5 2056.5,-21.5 2056.5,-0.5 2027.5,-0.5"/>
<text text-anchor="middle" x="2042" y="-8.5" font-family="Helvetica,sans-Serif" font-size="10.00">list</text>
</g>
<!-- Node2&#45;&gt;Node5 -->
<g id="edge8" class="edge"><title>Node2&#45;&gt;Node5</title>
<path fill="none" stroke="midnightblue" d="M1889.68,-58.4966C1926.52,-47.0086 1984.68,-28.8741 2017.44,-18.6571"/>
<polygon fill="midnightblue" stroke="midnightblue" points="2018.63,-21.9548 2027.13,-15.6365 2016.54,-15.2722 2018.63,-21.9548"/>
</g>
<!-- Node9&#45;&gt;Node3 -->
<g id="edge20" class="edge"><title>Node9&#45;&gt;Node3</title>
<path fill="none" stroke="midnightblue" d="M1077.65,-116.295C1078.8,-97.1314 1081.25,-56.654 1082.74,-31.8434"/>
<polygon fill="midnightblue" stroke="midnightblue" points="1086.25,-31.8719 1083.36,-21.6792 1079.26,-31.4502 1086.25,-31.8719"/>
</g>
<!-- Node9&#45;&gt;Node4 -->
<g id="edge24" class="edge"><title>Node9&#45;&gt;Node4</title>
<path fill="none" stroke="midnightblue" d="M1083.22,-116.241C1093.13,-100.264 1114.15,-70.7818 1141,-58 1200.71,-29.5739 1654.56,-15.943 1806.57,-12.1415"/>
<polygon fill="midnightblue" stroke="midnightblue" points="1807.07,-15.6303 1816.98,-11.8847 1806.9,-8.63241 1807.07,-15.6303"/>
</g>
<!-- Node10 -->
<g id="node21" class="node"><title>Node10</title>
<polygon fill="white" stroke="#bfbfbf" points="109.5,-0.5 109.5,-21.5 152.5,-21.5 152.5,-0.5 109.5,-0.5"/>
<text text-anchor="middle" x="131" y="-8.5" font-family="Helvetica,sans-Serif" font-size="10.00">string</text>
</g>
<!-- Node9&#45;&gt;Node10 -->
<g id="edge22" class="edge"><title>Node9&#45;&gt;Node10</title>
<path fill="none" stroke="midnightblue" d="M1029.4,-124.603C850.023,-115.544 224.57,-83.7236 215,-80 187.34,-69.2376 161.964,-45.6585 146.504,-29.0715"/>
<polygon fill="midnightblue" stroke="midnightblue" points="149.041,-26.6588 139.744,-21.5772 143.843,-31.3471 149.041,-26.6588"/>
</g>
<!-- Node11 -->
<g id="node24" class="node"><title>Node11</title>
<polygon fill="white" stroke="#bfbfbf" points="1150,-58.5 1150,-79.5 1202,-79.5 1202,-58.5 1150,-58.5"/>
<text text-anchor="middle" x="1176" y="-66.5" font-family="Helvetica,sans-Serif" font-size="10.00">QTimer</text>
</g>
<!-- Node9&#45;&gt;Node11 -->
<g id="edge26" class="edge"><title>Node9&#45;&gt;Node11</title>
<path fill="none" stroke="midnightblue" d="M1095.16,-116.362C1110.23,-107.532 1131.89,-94.844 1148.99,-84.8224"/>
<polygon fill="midnightblue" stroke="midnightblue" points="1151.1,-87.6456 1157.96,-79.5707 1147.56,-81.6058 1151.1,-87.6456"/>
</g>
<!-- Node12 -->
<g id="node26" class="node"><title>Node12</title>
<polygon fill="white" stroke="#bfbfbf" points="1648.5,-58.5 1648.5,-79.5 1703.5,-79.5 1703.5,-58.5 1648.5,-58.5"/>
<text text-anchor="middle" x="1676" y="-66.5" font-family="Helvetica,sans-Serif" font-size="10.00">QObject</text>
</g>
<!-- Node9&#45;&gt;Node12 -->
<g id="edge28" class="edge"><title>Node9&#45;&gt;Node12</title>
<path fill="none" stroke="midnightblue" d="M1124.5,-122.4C1239.94,-111.223 1533.39,-82.8084 1638.13,-72.6665"/>
<polygon fill="midnightblue" stroke="midnightblue" points="1638.63,-76.1353 1648.24,-71.6877 1637.95,-69.1679 1638.63,-76.1353"/>
</g>
<!-- Node14&#45;&gt;Node3 -->
<g id="edge34" class="edge"><title>Node14&#45;&gt;Node3</title>
<path fill="none" stroke="midnightblue" d="M1431.95,-180.546C1372.63,-174.085 1275.02,-160.376 1247,-138 1216.53,-113.669 1239.5,-84.611 1211,-58 1188.07,-36.5865 1154.53,-24.7264 1127.68,-18.2784"/>
<polygon fill="midnightblue" stroke="midnightblue" points="1128.28,-14.8249 1117.75,-16.0635 1126.75,-21.657 1128.28,-14.8249"/>
</g>
<!-- Node14&#45;&gt;Node5 -->
<g id="edge36" class="edge"><title>Node14&#45;&gt;Node5</title>
<path fill="none" stroke="midnightblue" d="M1526.1,-184.278C1667.54,-181.752 2086.99,-171.559 2219,-138 2278.36,-122.911 2311.04,-131.622 2344,-80 2386.46,-13.4967 2414.32,-98.7989 2076,-22 2072.89,-21.2949 2069.67,-20.4301 2066.49,-19.4981"/>
<polygon fill="midnightblue" stroke="midnightblue" points="2067.32,-16.0911 2056.73,-16.4046 2065.21,-22.7637 2067.32,-16.0911"/>
</g>
<!-- Node14&#45;&gt;Node10 -->
<g id="edge38" class="edge"><title>Node14&#45;&gt;Node10</title>
<path fill="none" stroke="midnightblue" d="M1431.7,-184.701C1238.55,-183.238 509.156,-175.308 282,-138 191.935,-123.208 139.67,-153.086 85,-80 72.1049,-62.761 89.9683,-42.1194 107.057,-27.9318"/>
<polygon fill="midnightblue" stroke="midnightblue" points="109.524,-30.4456 115.246,-21.5285 105.213,-24.9313 109.524,-30.4456"/>
</g>
<!-- Node14&#45;&gt;Node11 -->
<g id="edge162" class="edge"><title>Node14&#45;&gt;Node11</title>
<path fill="none" stroke="midnightblue" d="M1431.84,-181.506C1365.31,-175.773 1248.19,-162.484 1214,-138 1197.65,-126.29 1187.54,-105.264 1181.9,-89.4889"/>
<polygon fill="midnightblue" stroke="midnightblue" points="1185.11,-88.0179 1178.69,-79.5859 1178.45,-90.178 1185.11,-88.0179"/>
</g>
<!-- Node14&#45;&gt;Node12 -->
<g id="edge156" class="edge"><title>Node14&#45;&gt;Node12</title>
<path fill="none" stroke="midnightblue" d="M1526.09,-184.007C1643.05,-181.054 1939.55,-170.415 1969,-138 1975.58,-130.764 1975.41,-123.387 1969,-116 1931.94,-73.2651 1772.42,-91.3498 1717,-80 1715.92,-79.7782 1714.82,-79.5446 1713.71,-79.3014"/>
<polygon fill="midnightblue" stroke="midnightblue" points="1714.22,-75.8239 1703.68,-76.9103 1712.6,-82.6332 1714.22,-75.8239"/>
</g>
<!-- Node15 -->
<g id="node35" class="node"><title>Node15</title>
<a xlink:href="DisplayManager_8h.htm" target="_top" xlink:title="DisplayManager.h">
<polygon fill="white" stroke="black" points="2092,-116.5 2092,-137.5 2194,-137.5 2194,-116.5 2092,-116.5"/>
<text text-anchor="middle" x="2143" y="-124.5" font-family="Helvetica,sans-Serif" font-size="10.00">DisplayManager.h</text>
</a>
</g>
<!-- Node14&#45;&gt;Node15 -->
<g id="edge40" class="edge"><title>Node14&#45;&gt;Node15</title>
<path fill="none" stroke="midnightblue" d="M1526.22,-180.875C1643.92,-170.595 1950.26,-143.836 2081.67,-132.357"/>
<polygon fill="midnightblue" stroke="midnightblue" points="2082.3,-135.816 2091.96,-131.459 2081.69,-128.842 2082.3,-135.816"/>
</g>
<!-- Node22 -->
<g id="node57" class="node"><title>Node22</title>
<a xlink:href="InputManager_8h.htm" target="_top" xlink:title="InputManager.h">
<polygon fill="white" stroke="black" points="2100.5,-58.5 2100.5,-79.5 2191.5,-79.5 2191.5,-58.5 2100.5,-58.5"/>
<text text-anchor="middle" x="2146" y="-66.5" font-family="Helvetica,sans-Serif" font-size="10.00">InputManager.h</text>
</a>
</g>
<!-- Node14&#45;&gt;Node22 -->
<g id="edge70" class="edge"><title>Node14&#45;&gt;Node22</title>
<path fill="none" stroke="midnightblue" d="M1526.16,-183.694C1683.19,-179.12 2179.81,-162.743 2203,-138 2219.25,-120.662 2195.74,-99.4151 2174.18,-85.1169"/>
<polygon fill="midnightblue" stroke="midnightblue" points="2175.81,-82.0083 2165.49,-79.631 2172.08,-87.928 2175.81,-82.0083"/>
</g>
<!-- Node25 -->
<g id="node68" class="node"><title>Node25</title>
<polygon fill="white" stroke="#bfbfbf" points="1378,-116.5 1378,-137.5 1470,-137.5 1470,-116.5 1378,-116.5"/>
<text text-anchor="middle" x="1424" y="-124.5" font-family="Helvetica,sans-Serif" font-size="10.00">CustomEvents.h</text>
</g>
<!-- Node14&#45;&gt;Node25 -->
<g id="edge86" class="edge"><title>Node14&#45;&gt;Node25</title>
<path fill="none" stroke="midnightblue" d="M1468.91,-174.362C1461.16,-166.186 1450.27,-154.702 1441.15,-145.091"/>
<polygon fill="midnightblue" stroke="midnightblue" points="1443.44,-142.419 1434.02,-137.571 1438.37,-147.235 1443.44,-142.419"/>
</g>
<!-- Node26 -->
<g id="node70" class="node"><title>Node26</title>
<a xlink:href="VariantAnimation_8h.htm" target="_top" xlink:title="VariantAnimation.h">
<polygon fill="white" stroke="black" points="1255.5,-116.5 1255.5,-137.5 1360.5,-137.5 1360.5,-116.5 1255.5,-116.5"/>
<text text-anchor="middle" x="1308" y="-124.5" font-family="Helvetica,sans-Serif" font-size="10.00">VariantAnimation.h</text>
</a>
</g>
<!-- Node14&#45;&gt;Node26 -->
<g id="edge88" class="edge"><title>Node14&#45;&gt;Node26</title>
<path fill="none" stroke="midnightblue" d="M1448.03,-174.497C1420.16,-165.041 1379,-151.083 1348.52,-140.743"/>
<polygon fill="midnightblue" stroke="midnightblue" points="1349.62,-137.421 1339.02,-137.523 1347.37,-144.05 1349.62,-137.421"/>
</g>
<!-- Node28 -->
<g id="node75" class="node"><title>Node28</title>
<a xlink:href="HostWindow_8h.htm" target="_top" xlink:title="HostWindow.h">
<polygon fill="white" stroke="black" points="732,-116.5 732,-137.5 816,-137.5 816,-116.5 732,-116.5"/>
<text text-anchor="middle" x="774" y="-124.5" font-family="Helvetica,sans-Serif" font-size="10.00">HostWindow.h</text>
</a>
</g>
<!-- Node14&#45;&gt;Node28 -->
<g id="edge94" class="edge"><title>Node14&#45;&gt;Node28</title>
<path fill="none" stroke="midnightblue" d="M1431.92,-181.127C1305.47,-170.724 959.041,-142.223 826.515,-131.32"/>
<polygon fill="midnightblue" stroke="midnightblue" points="826.48,-127.806 816.227,-130.474 825.906,-134.782 826.48,-127.806"/>
</g>
<!-- Node33 -->
<g id="node88" class="node"><title>Node33</title>
<polygon fill="white" stroke="#bfbfbf" points="238,-0.5 238,-21.5 336,-21.5 336,-0.5 238,-0.5"/>
<text text-anchor="middle" x="287" y="-8.5" font-family="Helvetica,sans-Serif" font-size="10.00">QGraphicsObject</text>
</g>
<!-- Node14&#45;&gt;Node33 -->
<g id="edge152" class="edge"><title>Node14&#45;&gt;Node33</title>
<path fill="none" stroke="midnightblue" d="M1431.94,-184.293C1265.06,-181.537 702.153,-170.029 525,-138 441.457,-122.896 413.128,-127.85 343,-80 324.109,-67.1102 308.319,-46.013 298.373,-30.535"/>
<polygon fill="midnightblue" stroke="midnightblue" points="301.185,-28.426 292.96,-21.7475 295.225,-32.0974 301.185,-28.426"/>
</g>
<!-- Node35 -->
<g id="node94" class="node"><title>Node35</title>
<polygon fill="white" stroke="#bfbfbf" points="805.5,-0.5 805.5,-21.5 864.5,-21.5 864.5,-0.5 805.5,-0.5"/>
<text text-anchor="middle" x="835" y="-8.5" font-family="Helvetica,sans-Serif" font-size="10.00">QPixmap</text>
</g>
<!-- Node14&#45;&gt;Node35 -->
<g id="edge164" class="edge"><title>Node14&#45;&gt;Node35</title>
<path fill="none" stroke="midnightblue" d="M1431.94,-183.431C1277.21,-178.086 790.225,-159.704 723,-138 677.002,-123.149 654.349,-122.323 631,-80 580.728,11.1222 630.009,-60.7889 795.173,-22.2752"/>
<polygon fill="midnightblue" stroke="midnightblue" points="796.293,-25.605 805.182,-19.8399 794.638,-18.8034 796.293,-25.605"/>
</g>
<!-- Node39 -->
<g id="node103" class="node"><title>Node39</title>
<a xlink:href="ProgressAnimation_8h.htm" target="_top" xlink:title="ProgressAnimation.h">
<polygon fill="white" stroke="black" points="432,-58.5 432,-79.5 546,-79.5 546,-58.5 432,-58.5"/>
<text text-anchor="middle" x="489" y="-66.5" font-family="Helvetica,sans-Serif" font-size="10.00">ProgressAnimation.h</text>
</a>
</g>
<!-- Node14&#45;&gt;Node39 -->
<g id="edge128" class="edge"><title>Node14&#45;&gt;Node39</title>
<path fill="none" stroke="midnightblue" d="M1431.98,-184.529C1255.73,-182.5 640.179,-172.954 560,-138 535.671,-127.394 514.861,-104.481 502.176,-87.9645"/>
<polygon fill="midnightblue" stroke="midnightblue" points="504.74,-85.5443 495.994,-79.5658 499.103,-89.6941 504.74,-85.5443"/>
</g>
<!-- Node42 -->
<g id="node112" class="node"><title>Node42</title>
<a xlink:href="TouchPlot_8h.htm" target="_top" xlink:title="TouchPlot.h">
<polygon fill="white" stroke="black" points="224,-58.5 224,-79.5 296,-79.5 296,-58.5 224,-58.5"/>
<text text-anchor="middle" x="260" y="-66.5" font-family="Helvetica,sans-Serif" font-size="10.00">TouchPlot.h</text>
</a>
</g>
<!-- Node14&#45;&gt;Node42 -->
<g id="edge140" class="edge"><title>Node14&#45;&gt;Node42</title>
<path fill="none" stroke="midnightblue" d="M1431.83,-184.252C1219.46,-180.736 360.184,-164.894 310,-138 290.239,-127.41 276.353,-105.178 268.31,-88.7985"/>
<polygon fill="midnightblue" stroke="midnightblue" points="271.403,-87.1473 264.057,-79.5127 265.039,-90.062 271.403,-87.1473"/>
</g>
<!-- Node43 -->
<g id="node117" class="node"><title>Node43</title>
<polygon fill="white" stroke="#bfbfbf" points="-0.5,-0.5 -0.5,-21.5 80.5,-21.5 80.5,-0.5 -0.5,-0.5"/>
<text text-anchor="middle" x="40" y="-8.5" font-family="Helvetica,sans-Serif" font-size="10.00">QTouchEvent</text>
</g>
<!-- Node14&#45;&gt;Node43 -->
<g id="edge154" class="edge"><title>Node14&#45;&gt;Node43</title>
<path fill="none" stroke="midnightblue" d="M1431.81,-184.5C1198.85,-181.89 180.331,-168.753 121,-138 78.816,-116.135 55.7099,-61.3363 45.8498,-31.3644"/>
<polygon fill="midnightblue" stroke="midnightblue" points="49.1117,-30.0662 42.8057,-21.5524 42.4261,-32.1405 49.1117,-30.0662"/>
</g>
<!-- Node44 -->
<g id="node119" class="node"><title>Node44</title>
<polygon fill="white" stroke="#bfbfbf" points="1488,-116.5 1488,-137.5 1578,-137.5 1578,-116.5 1488,-116.5"/>
<text text-anchor="middle" x="1533" y="-124.5" font-family="Helvetica,sans-Serif" font-size="10.00">QGraphicsView</text>
</g>
<!-- Node14&#45;&gt;Node44 -->
<g id="edge150" class="edge"><title>Node14&#45;&gt;Node44</title>
<path fill="none" stroke="midnightblue" d="M1488.9,-174.362C1496.52,-166.186 1507.21,-154.702 1516.16,-145.091"/>
<polygon fill="midnightblue" stroke="midnightblue" points="1518.91,-147.275 1523.16,-137.571 1513.78,-142.505 1518.91,-147.275"/>
</g>
<!-- Node45 -->
<g id="node124" class="node"><title>Node45</title>
<polygon fill="white" stroke="#bfbfbf" points="1596,-116.5 1596,-137.5 1652,-137.5 1652,-116.5 1596,-116.5"/>
<text text-anchor="middle" x="1624" y="-124.5" font-family="Helvetica,sans-Serif" font-size="10.00">QQueue</text>
</g>
<!-- Node14&#45;&gt;Node45 -->
<g id="edge158" class="edge"><title>Node14&#45;&gt;Node45</title>
<path fill="none" stroke="midnightblue" d="M1505.26,-174.497C1528.42,-165.234 1562.38,-151.65 1588.05,-141.379"/>
<polygon fill="midnightblue" stroke="midnightblue" points="1589.46,-144.585 1597.45,-137.621 1586.86,-138.086 1589.46,-144.585"/>
</g>
<!-- Node46 -->
<g id="node126" class="node"><title>Node46</title>
<polygon fill="white" stroke="#bfbfbf" points="1670,-116.5 1670,-137.5 1718,-137.5 1718,-116.5 1670,-116.5"/>
<text text-anchor="middle" x="1694" y="-124.5" font-family="Helvetica,sans-Serif" font-size="10.00">QTime</text>
</g>
<!-- Node14&#45;&gt;Node46 -->
<g id="edge160" class="edge"><title>Node14&#45;&gt;Node46</title>
<path fill="none" stroke="midnightblue" d="M1523.37,-174.451C1558.2,-165.965 1608.1,-153.36 1660.17,-138.119"/>
<polygon fill="midnightblue" stroke="midnightblue" points="1661.31,-141.431 1669.91,-135.243 1659.33,-134.717 1661.31,-141.431"/>
</g>
<!-- Node47 -->
<g id="node130" class="node"><title>Node47</title>
<polygon fill="white" stroke="#bfbfbf" points="1736,-116.5 1736,-137.5 1804,-137.5 1804,-116.5 1736,-116.5"/>
<text text-anchor="middle" x="1770" y="-124.5" font-family="Helvetica,sans-Serif" font-size="10.00">QMultiMap</text>
</g>
<!-- Node14&#45;&gt;Node47 -->
<g id="edge166" class="edge"><title>Node14&#45;&gt;Node47</title>
<path fill="none" stroke="midnightblue" d="M1526.26,-176.958C1574.15,-168.607 1650.57,-154.72 1725.67,-138.202"/>
<polygon fill="midnightblue" stroke="midnightblue" points="1726.77,-141.543 1735.78,-135.962 1725.26,-134.709 1726.77,-141.543"/>
</g>
<!-- Node48 -->
<g id="node132" class="node"><title>Node48</title>
<polygon fill="white" stroke="#bfbfbf" points="1821.5,-116.5 1821.5,-137.5 1880.5,-137.5 1880.5,-116.5 1821.5,-116.5"/>
<text text-anchor="middle" x="1851" y="-124.5" font-family="Helvetica,sans-Serif" font-size="10.00">QPointer</text>
</g>
<!-- Node14&#45;&gt;Node48 -->
<g id="edge168" class="edge"><title>Node14&#45;&gt;Node48</title>
<path fill="none" stroke="midnightblue" d="M1526.11,-180.502C1589.15,-174.015 1704.54,-160.506 1811.26,-138.168"/>
<polygon fill="midnightblue" stroke="midnightblue" points="1812.18,-141.552 1821.23,-136.051 1810.72,-134.705 1812.18,-141.552"/>
</g>
<!-- Node49 -->
<g id="node134" class="node"><title>Node49</title>
<polygon fill="white" stroke="#bfbfbf" points="1898,-116.5 1898,-137.5 1960,-137.5 1960,-116.5 1898,-116.5"/>
<text text-anchor="middle" x="1929" y="-124.5" font-family="Helvetica,sans-Serif" font-size="10.00">QGesture</text>
</g>
<!-- Node14&#45;&gt;Node49 -->
<g id="edge170" class="edge"><title>Node14&#45;&gt;Node49</title>
<path fill="none" stroke="midnightblue" d="M1526.09,-181.974C1600.83,-176.654 1751.29,-163.841 1887.47,-138.068"/>
<polygon fill="midnightblue" stroke="midnightblue" points="1888.51,-141.433 1897.67,-136.109 1887.18,-134.559 1888.51,-141.433"/>
</g>
<!-- Node15&#45;&gt;Node2 -->
<g id="edge52" class="edge"><title>Node15&#45;&gt;Node2</title>
<path fill="none" stroke="midnightblue" d="M2091.69,-116.631C2043.17,-106.825 1970.26,-92.0913 1918.4,-81.6101"/>
<polygon fill="midnightblue" stroke="midnightblue" points="1918.81,-78.1236 1908.32,-79.5733 1917.43,-84.9849 1918.81,-78.1236"/>
</g>
<!-- Node15&#45;&gt;Node3 -->
<g id="edge42" class="edge"><title>Node15&#45;&gt;Node3</title>
<path fill="none" stroke="midnightblue" d="M2091.74,-122.651C2022.36,-116.211 1894.94,-102.424 1788,-80 1753.58,-72.7831 1746.61,-64.2345 1712,-58 1599.47,-37.7287 1251.63,-19.2084 1128.09,-13.1091"/>
<polygon fill="midnightblue" stroke="midnightblue" points="1128.03,-9.60208 1117.87,-12.6077 1127.68,-16.5937 1128.03,-9.60208"/>
</g>
<!-- Node15&#45;&gt;Node4 -->
<g id="edge68" class="edge"><title>Node15&#45;&gt;Node4</title>
<path fill="none" stroke="midnightblue" d="M2091.99,-118.334C2054.89,-110.948 2004.03,-98.5452 1962,-80 1945.2,-72.586 1905.09,-45.4003 1879.32,-27.4471"/>
<polygon fill="midnightblue" stroke="midnightblue" points="1881.06,-24.3938 1870.86,-21.5295 1877.04,-30.1296 1881.06,-24.3938"/>
</g>
<!-- Node15&#45;&gt;Node12 -->
<g id="edge66" class="edge"><title>Node15&#45;&gt;Node12</title>
<path fill="none" stroke="midnightblue" d="M2091.81,-121.093C2017.54,-112.457 1875.61,-95.7006 1755,-80 1741.56,-78.251 1726.86,-76.2321 1713.82,-74.405"/>
<polygon fill="midnightblue" stroke="midnightblue" points="1714.16,-70.919 1703.77,-72.9898 1713.18,-77.8505 1714.16,-70.919"/>
</g>
<!-- Node16 -->
<g id="node38" class="node"><title>Node16</title>
<polygon fill="white" stroke="#bfbfbf" points="2265,-0.5 2265,-21.5 2317,-21.5 2317,-0.5 2265,-0.5"/>
<text text-anchor="middle" x="2291" y="-8.5" font-family="Helvetica,sans-Serif" font-size="10.00">Timer.h</text>
</g>
<!-- Node15&#45;&gt;Node16 -->
<g id="edge44" class="edge"><title>Node15&#45;&gt;Node16</title>
<path fill="none" stroke="midnightblue" d="M2194.17,-122.187C2247.44,-115.993 2325.63,-103.164 2344,-80 2358.15,-62.1653 2337.27,-41.4174 2317.7,-27.3664"/>
<polygon fill="midnightblue" stroke="midnightblue" points="2319.46,-24.3274 2309.22,-21.5997 2315.52,-30.1163 2319.46,-24.3274"/>
</g>
<!-- Node17 -->
<g id="node40" class="node"><title>Node17</title>
<polygon fill="white" stroke="#bfbfbf" points="1970.5,-58.5 1970.5,-79.5 2023.5,-79.5 2023.5,-58.5 1970.5,-58.5"/>
<text text-anchor="middle" x="1997" y="-66.5" font-family="Helvetica,sans-Serif" font-size="10.00">Mutex.h</text>
</g>
<!-- Node15&#45;&gt;Node17 -->
<g id="edge46" class="edge"><title>Node15&#45;&gt;Node17</title>
<path fill="none" stroke="midnightblue" d="M2116.56,-116.497C2093.24,-107.234 2059.05,-93.6499 2033.2,-83.3793"/>
<polygon fill="midnightblue" stroke="midnightblue" points="2034.32,-80.0605 2023.74,-79.6212 2031.74,-86.566 2034.32,-80.0605"/>
</g>
<!-- Node18 -->
<g id="node42" class="node"><title>Node18</title>
<polygon fill="white" stroke="#bfbfbf" points="2374,-0.5 2374,-21.5 2426,-21.5 2426,-0.5 2374,-0.5"/>
<text text-anchor="middle" x="2400" y="-8.5" font-family="Helvetica,sans-Serif" font-size="10.00">Event.h</text>
</g>
<!-- Node15&#45;&gt;Node18 -->
<g id="edge48" class="edge"><title>Node15&#45;&gt;Node18</title>
<path fill="none" stroke="midnightblue" d="M2194.01,-120.778C2249.56,-113.174 2333.98,-98.9461 2360,-80 2376.37,-68.08 2387.09,-47.2599 2393.27,-31.5991"/>
<polygon fill="midnightblue" stroke="midnightblue" points="2396.73,-32.3483 2396.84,-21.7541 2390.15,-29.9622 2396.73,-32.3483"/>
</g>
<!-- Node19 -->
<g id="node44" class="node"><title>Node19</title>
<polygon fill="white" stroke="#bfbfbf" points="2040.5,-58.5 2040.5,-79.5 2083.5,-79.5 2083.5,-58.5 2040.5,-58.5"/>
<text text-anchor="middle" x="2062" y="-66.5" font-family="Helvetica,sans-Serif" font-size="10.00">sptr.h</text>
</g>
<!-- Node15&#45;&gt;Node19 -->
<g id="edge50" class="edge"><title>Node15&#45;&gt;Node19</title>
<path fill="none" stroke="midnightblue" d="M2128.14,-116.362C2116.15,-107.777 2099.07,-95.5459 2085.27,-85.6636"/>
<polygon fill="midnightblue" stroke="midnightblue" points="2086.93,-82.5469 2076.76,-79.5707 2082.86,-88.2383 2086.93,-82.5469"/>
</g>
<!-- Node20 -->
<g id="node47" class="node"><title>Node20</title>
<a xlink:href="DisplayStates_8h.htm" target="_top" xlink:title="DisplayStates.h">
<polygon fill="white" stroke="black" points="2246.5,-58.5 2246.5,-79.5 2335.5,-79.5 2335.5,-58.5 2246.5,-58.5"/>
<text text-anchor="middle" x="2291" y="-66.5" font-family="Helvetica,sans-Serif" font-size="10.00">DisplayStates.h</text>
</a>
</g>
<!-- Node15&#45;&gt;Node20 -->
<g id="edge54" class="edge"><title>Node15&#45;&gt;Node20</title>
<path fill="none" stroke="midnightblue" d="M2169.8,-116.497C2193.44,-107.234 2228.1,-93.6499 2254.31,-83.3793"/>
<polygon fill="midnightblue" stroke="midnightblue" points="2255.86,-86.5287 2263.9,-79.6212 2253.31,-80.0113 2255.86,-86.5287"/>
</g>
<!-- Node21 -->
<g id="node53" class="node"><title>Node21</title>
<polygon fill="white" stroke="#bfbfbf" points="2188,-0.5 2188,-21.5 2240,-21.5 2240,-0.5 2188,-0.5"/>
<text text-anchor="middle" x="2214" y="-8.5" font-family="Helvetica,sans-Serif" font-size="10.00">QEvent</text>
</g>
<!-- Node15&#45;&gt;Node21 -->
<g id="edge64" class="edge"><title>Node15&#45;&gt;Node21</title>
<path fill="none" stroke="midnightblue" d="M2161.54,-116.454C2174.34,-108.188 2190.69,-95.5048 2200,-80 2208.74,-65.4466 2212.12,-46.3774 2213.38,-31.9747"/>
<polygon fill="midnightblue" stroke="midnightblue" points="2216.89,-31.791 2214,-21.5999 2209.91,-31.3733 2216.89,-31.791"/>
</g>
<!-- Node20&#45;&gt;Node3 -->
<g id="edge56" class="edge"><title>Node20&#45;&gt;Node3</title>
<path fill="none" stroke="midnightblue" d="M2246.17,-62.875C2231.48,-61.057 2215.07,-59.2261 2200,-58 1783.8,-24.1332 1278.18,-13.9865 1128.03,-11.6174"/>
<polygon fill="midnightblue" stroke="midnightblue" points="1127.9,-8.11501 1117.84,-11.4601 1127.79,-15.1142 1127.9,-8.11501"/>
</g>
<!-- Node20&#45;&gt;Node8 -->
<g id="edge62" class="edge"><title>Node20&#45;&gt;Node8</title>
<path fill="none" stroke="midnightblue" d="M2246.22,-61.3655C2192.3,-52.1484 2098.99,-36.123 2019,-22 2012.74,-20.8949 2006.12,-19.7142 1999.65,-18.5517"/>
<polygon fill="midnightblue" stroke="midnightblue" points="2000.11,-15.0799 1989.65,-16.7531 1998.87,-21.9692 2000.11,-15.0799"/>
</g>
<!-- Node20&#45;&gt;Node16 -->
<g id="edge58" class="edge"><title>Node20&#45;&gt;Node16</title>
<path fill="none" stroke="midnightblue" d="M2291,-58.3619C2291,-50.9219 2291,-40.7427 2291,-31.7276"/>
<polygon fill="midnightblue" stroke="midnightblue" points="2294.5,-31.5706 2291,-21.5707 2287.5,-31.5707 2294.5,-31.5706"/>
</g>
<!-- Node20&#45;&gt;Node18 -->
<g id="edge60" class="edge"><title>Node20&#45;&gt;Node18</title>
<path fill="none" stroke="midnightblue" d="M2310.74,-58.4966C2327.61,-49.5194 2352.11,-36.4835 2371.17,-26.3387"/>
<polygon fill="midnightblue" stroke="midnightblue" points="2372.86,-29.4086 2380.04,-21.6212 2369.57,-23.2289 2372.86,-29.4086"/>
</g>
<!-- Node22&#45;&gt;Node3 -->
<g id="edge72" class="edge"><title>Node22&#45;&gt;Node3</title>
<path fill="none" stroke="midnightblue" d="M2100.42,-59.1995C2097.58,-58.7486 2094.75,-58.3425 2092,-58 1901.16,-34.2581 1296.31,-16.6714 1127.9,-12.1437"/>
<polygon fill="midnightblue" stroke="midnightblue" points="1127.76,-8.6389 1117.67,-11.8704 1127.58,-15.6364 1127.76,-8.6389"/>
</g>
<!-- Node22&#45;&gt;Node4 -->
<g id="edge78" class="edge"><title>Node22&#45;&gt;Node4</title>
<path fill="none" stroke="midnightblue" d="M2100.34,-59.6838C2097.52,-59.1128 2094.72,-58.5479 2092,-58 2027.52,-45.0117 1953.08,-30.2215 1905.33,-20.7588"/>
<polygon fill="midnightblue" stroke="midnightblue" points="1905.75,-17.2747 1895.26,-18.7647 1904.39,-24.1413 1905.75,-17.2747"/>
</g>
<!-- Node22&#45;&gt;Node10 -->
<g id="edge74" class="edge"><title>Node22&#45;&gt;Node10</title>
<path fill="none" stroke="midnightblue" d="M2100.43,-59.1086C2097.58,-58.6803 2094.76,-58.304 2092,-58 1668.63,-11.327 599.207,-99.611 162.596,-21.7247"/>
<polygon fill="midnightblue" stroke="midnightblue" points="163.185,-18.2745 152.718,-19.9137 161.923,-25.1598 163.185,-18.2745"/>
</g>
<!-- Node22&#45;&gt;Node16 -->
<g id="edge84" class="edge"><title>Node22&#45;&gt;Node16</title>
<path fill="none" stroke="midnightblue" d="M2172.26,-58.4966C2195.56,-49.1759 2229.8,-35.4799 2255.53,-25.1872"/>
<polygon fill="midnightblue" stroke="midnightblue" points="2256.95,-28.3889 2264.94,-21.4252 2254.35,-21.8895 2256.95,-28.3889"/>
</g>
<!-- Node22&#45;&gt;Node21 -->
<g id="edge82" class="edge"><title>Node22&#45;&gt;Node21</title>
<path fill="none" stroke="midnightblue" d="M2158.47,-58.3619C2168.35,-49.9408 2182.33,-38.0105 2193.8,-28.2308"/>
<polygon fill="midnightblue" stroke="midnightblue" points="2196.27,-30.7231 2201.61,-21.5707 2191.73,-25.3972 2196.27,-30.7231"/>
</g>
<!-- Node23 -->
<g id="node61" class="node"><title>Node23</title>
<polygon fill="white" stroke="#bfbfbf" points="2130.5,-0.5 2130.5,-21.5 2167.5,-21.5 2167.5,-0.5 2130.5,-0.5"/>
<text text-anchor="middle" x="2149" y="-8.5" font-family="Helvetica,sans-Serif" font-size="10.00">map</text>
</g>
<!-- Node22&#45;&gt;Node23 -->
<g id="edge76" class="edge"><title>Node22&#45;&gt;Node23</title>
<path fill="none" stroke="midnightblue" d="M2146.55,-58.3619C2146.94,-50.9219 2147.46,-40.7427 2147.93,-31.7276"/>
<polygon fill="midnightblue" stroke="midnightblue" points="2151.43,-31.7381 2148.45,-21.5707 2144.44,-31.3765 2151.43,-31.7381"/>
</g>
<!-- Node24 -->
<g id="node64" class="node"><title>Node24</title>
<polygon fill="white" stroke="#bfbfbf" points="2084.5,-0.5 2084.5,-21.5 2113.5,-21.5 2113.5,-0.5 2084.5,-0.5"/>
<text text-anchor="middle" x="2099" y="-8.5" font-family="Helvetica,sans-Serif" font-size="10.00">Qt</text>
</g>
<!-- Node22&#45;&gt;Node24 -->
<g id="edge80" class="edge"><title>Node22&#45;&gt;Node24</title>
<path fill="none" stroke="midnightblue" d="M2137.38,-58.3619C2130.82,-50.2678 2121.63,-38.9318 2113.89,-29.3796"/>
<polygon fill="midnightblue" stroke="midnightblue" points="2116.58,-27.1364 2107.57,-21.5707 2111.14,-31.5436 2116.58,-27.1364"/>
</g>
<!-- Node26&#45;&gt;Node3 -->
<g id="edge90" class="edge"><title>Node26&#45;&gt;Node3</title>
<path fill="none" stroke="midnightblue" d="M1301.04,-116.46C1290.49,-101.304 1269.01,-73.4809 1244,-58 1208.2,-35.8335 1161.43,-23.6832 1127.71,-17.3231"/>
<polygon fill="midnightblue" stroke="midnightblue" points="1128.15,-13.8467 1117.69,-15.5305 1126.92,-20.7373 1128.15,-13.8467"/>
</g>
<!-- Node27 -->
<g id="node73" class="node"><title>Node27</title>
<polygon fill="white" stroke="#bfbfbf" points="1333.5,-58.5 1333.5,-79.5 1438.5,-79.5 1438.5,-58.5 1333.5,-58.5"/>
<text text-anchor="middle" x="1386" y="-66.5" font-family="Helvetica,sans-Serif" font-size="10.00">QVariantAnimation</text>
</g>
<!-- Node26&#45;&gt;Node27 -->
<g id="edge92" class="edge"><title>Node26&#45;&gt;Node27</title>
<path fill="none" stroke="midnightblue" d="M1322.31,-116.362C1333.85,-107.777 1350.3,-95.5459 1363.59,-85.6636"/>
<polygon fill="midnightblue" stroke="midnightblue" points="1365.85,-88.3463 1371.78,-79.5707 1361.67,-82.7291 1365.85,-88.3463"/>
</g>
<!-- Node28&#45;&gt;Node3 -->
<g id="edge96" class="edge"><title>Node28&#45;&gt;Node3</title>
<path fill="none" stroke="midnightblue" d="M773.627,-116.315C773.721,-100.979 776.351,-72.9331 793,-58 828.721,-25.9612 968.259,-15.6409 1040.35,-12.4123"/>
<polygon fill="midnightblue" stroke="midnightblue" points="1040.63,-15.9036 1050.47,-11.9857 1040.34,-8.9098 1040.63,-15.9036"/>
</g>
<!-- Node28&#45;&gt;Node28 -->
<g id="edge112" class="edge"><title>Node28&#45;&gt;Node28</title>
<path fill="none" stroke="midnightblue" d="M804.563,-137.524C820.083,-139.061 834,-135.553 834,-127 834,-120.385 825.675,-116.788 814.722,-116.208"/>
<polygon fill="midnightblue" stroke="midnightblue" points="814.467,-112.714 804.563,-116.476 814.652,-119.711 814.467,-112.714"/>
</g>
<!-- Node29 -->
<g id="node78" class="node"><title>Node29</title>
<a xlink:href="Window_8h.htm" target="_top" xlink:title="Window.h">
<polygon fill="white" stroke="red" points="352,-58.5 352,-79.5 414,-79.5 414,-58.5 352,-58.5"/>
<text text-anchor="middle" x="383" y="-66.5" font-family="Helvetica,sans-Serif" font-size="10.00">Window.h</text>
</a>
</g>
<!-- Node28&#45;&gt;Node29 -->
<g id="edge98" class="edge"><title>Node28&#45;&gt;Node29</title>
<path fill="none" stroke="midnightblue" d="M731.82,-123.213C667.475,-117.031 540.837,-103.273 424.491,-80.1015"/>
<polygon fill="midnightblue" stroke="midnightblue" points="424.841,-76.6016 414.346,-78.0514 423.455,-83.4629 424.841,-76.6016"/>
</g>
<!-- Node34 -->
<g id="node91" class="node"><title>Node34</title>
<a xlink:href="HostWindowData_8h.htm" target="_top" xlink:title="HostWindowData.h">
<polygon fill="white" stroke="red" points="639.5,-58.5 639.5,-79.5 746.5,-79.5 746.5,-58.5 639.5,-58.5"/>
<text text-anchor="middle" x="693" y="-66.5" font-family="Helvetica,sans-Serif" font-size="10.00">HostWindowData.h</text>
</a>
</g>
<!-- Node28&#45;&gt;Node34 -->
<g id="edge114" class="edge"><title>Node28&#45;&gt;Node34</title>
<path fill="none" stroke="midnightblue" d="M759.143,-116.362C747.154,-107.777 730.073,-95.5459 716.272,-85.6636"/>
<polygon fill="midnightblue" stroke="midnightblue" points="717.931,-82.5469 707.762,-79.5707 713.855,-88.2383 717.931,-82.5469"/>
</g>
<!-- Node36 -->
<g id="node96" class="node"><title>Node36</title>
<a xlink:href="InputClient_8h.htm" target="_top" xlink:title="InputClient.h">
<polygon fill="white" stroke="red" points="93.5,-58.5 93.5,-79.5 168.5,-79.5 168.5,-58.5 93.5,-58.5"/>
<text text-anchor="middle" x="131" y="-66.5" font-family="Helvetica,sans-Serif" font-size="10.00">InputClient.h</text>
</a>
</g>
<!-- Node28&#45;&gt;Node36 -->
<g id="edge120" class="edge"><title>Node28&#45;&gt;Node36</title>
<path fill="none" stroke="midnightblue" d="M731.794,-125.58C634.434,-121.884 386.779,-110.076 182,-80 180.925,-79.8421 179.838,-79.6747 178.744,-79.4993"/>
<polygon fill="midnightblue" stroke="midnightblue" points="179.231,-76.0313 168.774,-77.7336 178.011,-82.9241 179.231,-76.0313"/>
</g>
<!-- Node37 -->
<g id="node99" class="node"><title>Node37</title>
<polygon fill="white" stroke="#bfbfbf" points="944,-58.5 944,-79.5 1018,-79.5 1018,-58.5 944,-58.5"/>
<text text-anchor="middle" x="981" y="-66.5" font-family="Helvetica,sans-Serif" font-size="10.00">PIpcBuffer.h</text>
</g>
<!-- Node28&#45;&gt;Node37 -->
<g id="edge124" class="edge"><title>Node28&#45;&gt;Node37</title>
<path fill="none" stroke="midnightblue" d="M811.486,-116.497C845.777,-106.888 896.662,-92.6311 933.729,-82.2449"/>
<polygon fill="midnightblue" stroke="midnightblue" points="935.108,-85.4935 943.793,-79.4252 933.219,-78.7531 935.108,-85.4935"/>
</g>
<!-- Node38 -->
<g id="node101" class="node"><title>Node38</title>
<polygon fill="white" stroke="#bfbfbf" points="802,-58.5 802,-79.5 926,-79.5 926,-58.5 802,-58.5"/>
<text text-anchor="middle" x="864" y="-66.5" font-family="Helvetica,sans-Serif" font-size="10.00">PIpcChannelListener.h</text>
</g>
<!-- Node28&#45;&gt;Node38 -->
<g id="edge126" class="edge"><title>Node28&#45;&gt;Node38</title>
<path fill="none" stroke="midnightblue" d="M790.507,-116.362C804.082,-107.614 823.533,-95.0786 839.015,-85.1015"/>
<polygon fill="midnightblue" stroke="midnightblue" points="841.088,-87.9297 847.597,-79.5707 837.296,-82.0457 841.088,-87.9297"/>
</g>
<!-- Node29&#45;&gt;Node3 -->
<g id="edge100" class="edge"><title>Node29&#45;&gt;Node3</title>
<path fill="none" stroke="midnightblue" d="M414.311,-59.7607C417.232,-59.0895 420.16,-58.4865 423,-58 483.507,-47.6337 902.603,-21.8818 1040.28,-13.6057"/>
<polygon fill="midnightblue" stroke="midnightblue" points="1040.69,-17.0879 1050.46,-12.995 1040.27,-10.1004 1040.69,-17.0879"/>
</g>
<!-- Node29&#45;&gt;Node10 -->
<g id="edge106" class="edge"><title>Node29&#45;&gt;Node10</title>
<path fill="none" stroke="midnightblue" d="M351.77,-63.8411C310.346,-56.6844 234.861,-42.5558 162.266,-22.0977"/>
<polygon fill="midnightblue" stroke="midnightblue" points="163.085,-18.6919 152.508,-19.3039 161.158,-25.4214 163.085,-18.6919"/>
</g>
<!-- Node30 -->
<g id="node81" class="node"><title>Node30</title>
<polygon fill="white" stroke="#bfbfbf" points="354,-0.5 354,-21.5 446,-21.5 446,-0.5 354,-0.5"/>
<text text-anchor="middle" x="400" y="-8.5" font-family="Helvetica,sans-Serif" font-size="10.00">WindowTypes.h</text>
</g>
<!-- Node29&#45;&gt;Node30 -->
<g id="edge102" class="edge"><title>Node29&#45;&gt;Node30</title>
<path fill="none" stroke="midnightblue" d="M386.118,-58.3619C388.323,-50.8401 391.348,-40.5187 394.012,-31.4308"/>
<polygon fill="midnightblue" stroke="midnightblue" points="397.448,-32.1514 396.902,-21.5707 390.73,-30.1825 397.448,-32.1514"/>
</g>
<!-- Node31 -->
<g id="node83" class="node"><title>Node31</title>
<polygon fill="white" stroke="#bfbfbf" points="170,-0.5 170,-21.5 220,-21.5 220,-0.5 170,-0.5"/>
<text text-anchor="middle" x="195" y="-8.5" font-family="Helvetica,sans-Serif" font-size="10.00">stdint.h</text>
</g>
<!-- Node29&#45;&gt;Node31 -->
<g id="edge104" class="edge"><title>Node29&#45;&gt;Node31</title>
<path fill="none" stroke="midnightblue" d="M351.981,-59.6991C322.793,-50.9105 277.627,-37.2176 229.827,-22.23"/>
<polygon fill="midnightblue" stroke="midnightblue" points="230.825,-18.875 220.236,-19.2163 228.727,-25.5531 230.825,-18.875"/>
</g>
<!-- Node29&#45;&gt;Node32 -->
<g id="edge108" class="edge"><title>Node29&#45;&gt;Node32</title>
<path fill="none" stroke="midnightblue" d="M414.384,-60.1231C417.29,-59.3758 420.195,-58.6561 423,-58 501.945,-39.5342 526.216,-44.5908 607.568,-22.0918"/>
<polygon fill="midnightblue" stroke="midnightblue" points="608.561,-25.4485 617.235,-19.3648 606.66,-18.7114 608.561,-25.4485"/>
</g>
<!-- Node29&#45;&gt;Node33 -->
<g id="edge110" class="edge"><title>Node29&#45;&gt;Node33</title>
<path fill="none" stroke="midnightblue" d="M365.392,-58.3619C350.777,-49.532 329.776,-36.844 313.189,-26.8224"/>
<polygon fill="midnightblue" stroke="midnightblue" points="314.865,-23.7461 304.496,-21.5707 311.246,-29.7376 314.865,-23.7461"/>
</g>
<!-- Node34&#45;&gt;Node3 -->
<g id="edge116" class="edge"><title>Node34&#45;&gt;Node3</title>
<path fill="none" stroke="midnightblue" d="M746.743,-60.086C751.226,-59.3699 755.69,-58.6664 760,-58 860.093,-42.525 977.822,-25.8216 1040.14,-17.0975"/>
<polygon fill="midnightblue" stroke="midnightblue" points="1040.97,-20.5161 1050.39,-15.6653 1040,-13.5835 1040.97,-20.5161"/>
</g>
<!-- Node34&#45;&gt;Node35 -->
<g id="edge118" class="edge"><title>Node34&#45;&gt;Node35</title>
<path fill="none" stroke="midnightblue" d="M718.715,-58.4966C741.293,-49.2746 774.358,-35.7695 799.463,-25.5153"/>
<polygon fill="midnightblue" stroke="midnightblue" points="801.062,-28.6427 808.996,-21.6212 798.415,-22.1624 801.062,-28.6427"/>
</g>
<!-- Node36&#45;&gt;Node10 -->
<g id="edge122" class="edge"><title>Node36&#45;&gt;Node10</title>
<path fill="none" stroke="midnightblue" d="M131,-58.3619C131,-50.9219 131,-40.7427 131,-31.7276"/>
<polygon fill="midnightblue" stroke="midnightblue" points="134.5,-31.5706 131,-21.5707 127.5,-31.5707 134.5,-31.5706"/>
</g>
<!-- Node39&#45;&gt;Node3 -->
<g id="edge130" class="edge"><title>Node39&#45;&gt;Node3</title>
<path fill="none" stroke="midnightblue" d="M546.131,-63.1892C562.848,-61.5012 581.154,-59.6645 598,-58 761.175,-41.8763 955.23,-23.2852 1040.34,-15.1608"/>
<polygon fill="midnightblue" stroke="midnightblue" points="1040.79,-18.634 1050.41,-14.1997 1040.12,-11.6656 1040.79,-18.634"/>
</g>
<!-- Node39&#45;&gt;Node33 -->
<g id="edge132" class="edge"><title>Node39&#45;&gt;Node33</title>
<path fill="none" stroke="midnightblue" d="M452.419,-58.4966C419.06,-48.9183 369.61,-34.7196 333.466,-24.3418"/>
<polygon fill="midnightblue" stroke="midnightblue" points="334.227,-20.9188 323.649,-21.5231 332.295,-27.647 334.227,-20.9188"/>
</g>
<!-- Node39&#45;&gt;Node35 -->
<g id="edge134" class="edge"><title>Node39&#45;&gt;Node35</title>
<path fill="none" stroke="midnightblue" d="M546.349,-60.1001C550.967,-59.3879 555.561,-58.6809 560,-58 662.121,-42.3332 691.196,-44.6963 795.255,-22.2001"/>
<polygon fill="midnightblue" stroke="midnightblue" points="796.203,-25.5755 805.224,-20.0193 794.707,-18.7372 796.203,-25.5755"/>
</g>
<!-- Node40 -->
<g id="node108" class="node"><title>Node40</title>
<polygon fill="white" stroke="#bfbfbf" points="676,-0.5 676,-21.5 788,-21.5 788,-0.5 676,-0.5"/>
<text text-anchor="middle" x="732" y="-8.5" font-family="Helvetica,sans-Serif" font-size="10.00">QPropertyAnimation</text>
</g>
<!-- Node39&#45;&gt;Node40 -->
<g id="edge136" class="edge"><title>Node39&#45;&gt;Node40</title>
<path fill="none" stroke="midnightblue" d="M533.005,-58.4966C573.736,-48.775 634.407,-34.2938 678.043,-23.8787"/>
<polygon fill="midnightblue" stroke="midnightblue" points="678.998,-27.2491 687.912,-21.5231 677.373,-20.4404 678.998,-27.2491"/>
</g>
<!-- Node41 -->
<g id="node110" class="node"><title>Node41</title>
<polygon fill="white" stroke="#bfbfbf" points="464,-0.5 464,-21.5 600,-21.5 600,-0.5 464,-0.5"/>
<text text-anchor="middle" x="532" y="-8.5" font-family="Helvetica,sans-Serif" font-size="10.00">QParallelAnimationGroup</text>
</g>
<!-- Node39&#45;&gt;Node41 -->
<g id="edge138" class="edge"><title>Node39&#45;&gt;Node41</title>
<path fill="none" stroke="midnightblue" d="M496.887,-58.3619C502.827,-50.3496 511.122,-39.1605 518.159,-29.6696"/>
<polygon fill="midnightblue" stroke="midnightblue" points="521.019,-31.6883 524.163,-21.5707 515.396,-27.5193 521.019,-31.6883"/>
</g>
<!-- Node42&#45;&gt;Node3 -->
<g id="edge144" class="edge"><title>Node42&#45;&gt;Node3</title>
<path fill="none" stroke="midnightblue" d="M296.3,-63.6417C310.8,-61.6446 327.665,-59.5007 343,-58 479.756,-44.6166 902.652,-20.9277 1040.25,-13.3801"/>
<polygon fill="midnightblue" stroke="midnightblue" points="1040.62,-16.8652 1050.41,-12.8235 1040.24,-9.87565 1040.62,-16.8652"/>
</g>
<!-- Node42&#45;&gt;Node31 -->
<g id="edge142" class="edge"><title>Node42&#45;&gt;Node31</title>
<path fill="none" stroke="midnightblue" d="M248.078,-58.3619C238.641,-49.9408 225.27,-38.0105 214.31,-28.2308"/>
<polygon fill="midnightblue" stroke="midnightblue" points="216.638,-25.6171 206.846,-21.5707 211.978,-30.8401 216.638,-25.6171"/>
</g>
<!-- Node42&#45;&gt;Node33 -->
<g id="edge146" class="edge"><title>Node42&#45;&gt;Node33</title>
<path fill="none" stroke="midnightblue" d="M264.952,-58.3619C268.53,-50.6766 273.468,-40.0686 277.764,-30.8399"/>
<polygon fill="midnightblue" stroke="midnightblue" points="281.032,-32.1136 282.079,-21.5707 274.686,-29.1594 281.032,-32.1136"/>
</g>
<!-- Node42&#45;&gt;Node43 -->
<g id="edge148" class="edge"><title>Node42&#45;&gt;Node43</title>
<path fill="none" stroke="midnightblue" d="M223.671,-59.4225C187.141,-49.7918 130.55,-34.8722 89.8379,-24.1391"/>
<polygon fill="midnightblue" stroke="midnightblue" points="90.6734,-20.7398 80.1116,-21.5749 88.8889,-27.5086 90.6734,-20.7398"/>
</g>
</g>
</svg>
