<?xml version="1.0" encoding="UTF-8" standalone="no"?>
<!DOCTYPE svg PUBLIC "-//W3C//DTD SVG 1.1//EN"
 "http://www.w3.org/Graphics/SVG/1.1/DTD/svg11.dtd">
<!-- Generated by graphviz version 2.26.3 (20100126.1600)
 -->
<!-- Title: AnimationSettings.h Pages: 1 -->
<svg width="311pt" height="146pt"
 viewBox="0.00 0.00 311.40 146.00" xmlns="http://www.w3.org/2000/svg" xmlns:xlink="http://www.w3.org/1999/xlink">
<g id="graph1" class="graph" transform="scale(1 1) rotate(0) translate(4 142)">
<title>AnimationSettings.h</title>
<polygon fill="white" stroke="white" points="-4,5 -4,-142 308.395,-142 308.395,5 -4,5"/>
<!-- Node1 -->
<g id="node1" class="node"><title>Node1</title>
<polygon fill="#bfbfbf" stroke="black" points="34.3952,-116.5 34.3952,-137.5 144.395,-137.5 144.395,-116.5 34.3952,-116.5"/>
<text text-anchor="middle" x="89.3952" y="-124.5" font-family="Helvetica,sans-Serif" font-size="10.00">AnimationSettings.h</text>
</g>
<!-- Node2 -->
<g id="node3" class="node"><title>Node2</title>
<polygon fill="white" stroke="#bfbfbf" points="80.8952,-0.5 80.8952,-21.5 147.895,-21.5 147.895,-0.5 80.8952,-0.5"/>
<text text-anchor="middle" x="114.395" y="-8.5" font-family="Helvetica,sans-Serif" font-size="10.00">Common.h</text>
</g>
<!-- Node1&#45;&gt;Node2 -->
<g id="edge2" class="edge"><title>Node1&#45;&gt;Node2</title>
<path fill="none" stroke="midnightblue" d="M56.8517,-116.426C26.2137,-104.631 -12.6217,-83.7759 4.39517,-58 19.1122,-35.7077 46.8095,-23.9516 70.7282,-17.7716"/>
<polygon fill="midnightblue" stroke="midnightblue" points="71.7532,-21.1266 80.6989,-15.4499 70.1657,-14.309 71.7532,-21.1266"/>
</g>
<!-- Node3 -->
<g id="node5" class="node"><title>Node3</title>
<polygon fill="white" stroke="#bfbfbf" points="12.8952,-58.5 12.8952,-79.5 53.8952,-79.5 53.8952,-58.5 12.8952,-58.5"/>
<text text-anchor="middle" x="33.3952" y="-66.5" font-family="Helvetica,sans-Serif" font-size="10.00">glib.h</text>
</g>
<!-- Node1&#45;&gt;Node3 -->
<g id="edge4" class="edge"><title>Node1&#45;&gt;Node3</title>
<path fill="none" stroke="midnightblue" d="M79.1239,-116.362C71.1511,-108.104 59.9203,-96.4725 50.5841,-86.8029"/>
<polygon fill="midnightblue" stroke="midnightblue" points="53.0652,-84.3336 43.6013,-79.5707 48.0294,-89.1958 53.0652,-84.3336"/>
</g>
<!-- Node4 -->
<g id="node7" class="node"><title>Node4</title>
<polygon fill="white" stroke="#bfbfbf" points="70.8952,-58.5 70.8952,-79.5 107.895,-79.5 107.895,-58.5 70.8952,-58.5"/>
<text text-anchor="middle" x="89.3952" y="-66.5" font-family="Helvetica,sans-Serif" font-size="10.00">map</text>
</g>
<!-- Node1&#45;&gt;Node4 -->
<g id="edge6" class="edge"><title>Node1&#45;&gt;Node4</title>
<path fill="none" stroke="midnightblue" d="M89.3952,-116.362C89.3952,-108.922 89.3952,-98.7427 89.3952,-89.7276"/>
<polygon fill="midnightblue" stroke="midnightblue" points="92.8953,-89.5706 89.3952,-79.5707 85.8953,-89.5707 92.8953,-89.5706"/>
</g>
<!-- Node5 -->
<g id="node9" class="node"><title>Node5</title>
<polygon fill="white" stroke="#bfbfbf" points="124.895,-58.5 124.895,-79.5 167.895,-79.5 167.895,-58.5 124.895,-58.5"/>
<text text-anchor="middle" x="146.395" y="-66.5" font-family="Helvetica,sans-Serif" font-size="10.00">string</text>
</g>
<!-- Node1&#45;&gt;Node5 -->
<g id="edge8" class="edge"><title>Node1&#45;&gt;Node5</title>
<path fill="none" stroke="midnightblue" d="M99.8498,-116.362C107.965,-108.104 119.396,-96.4725 128.899,-86.8029"/>
<polygon fill="midnightblue" stroke="midnightblue" points="131.494,-89.1562 136.007,-79.5707 126.501,-84.2497 131.494,-89.1562"/>
</g>
<!-- Node6 -->
<g id="node11" class="node"><title>Node6</title>
<a xlink:href="AnimationEquations_8h.htm" target="_top" xlink:title="AnimationEquations.h">
<polygon fill="white" stroke="black" points="185.395,-58.5 185.395,-79.5 303.395,-79.5 303.395,-58.5 185.395,-58.5"/>
<text text-anchor="middle" x="244.395" y="-66.5" font-family="Helvetica,sans-Serif" font-size="10.00">AnimationEquations.h</text>
</a>
</g>
<!-- Node1&#45;&gt;Node6 -->
<g id="edge10" class="edge"><title>Node1&#45;&gt;Node6</title>
<path fill="none" stroke="midnightblue" d="M117.464,-116.497C142.406,-107.164 179.069,-93.4447 206.587,-83.1475"/>
<polygon fill="midnightblue" stroke="midnightblue" points="208.134,-86.3058 216.273,-79.5231 205.681,-79.7497 208.134,-86.3058"/>
</g>
<!-- Node6&#45;&gt;Node2 -->
<g id="edge12" class="edge"><title>Node6&#45;&gt;Node2</title>
<path fill="none" stroke="midnightblue" d="M220.853,-58.4966C200.366,-49.3562 170.448,-36.0082 147.541,-25.7883"/>
<polygon fill="midnightblue" stroke="midnightblue" points="148.76,-22.4994 138.201,-21.6212 145.908,-28.892 148.76,-22.4994"/>
</g>
</g>
</svg>
