<?xml version="1.0" encoding="UTF-8" standalone="no"?>
<!DOCTYPE svg PUBLIC "-//W3C//DTD SVG 1.1//EN"
 "http://www.w3.org/Graphics/SVG/1.1/DTD/svg11.dtd">
<!-- Generated by graphviz version 2.26.3 (20100126.1600)
 -->
<!-- Title: AnimationEquations.h Pages: 1 -->
<svg width="4213pt" height="204pt"
 viewBox="0.00 0.00 4213.00 204.00" xmlns="http://www.w3.org/2000/svg" xmlns:xlink="http://www.w3.org/1999/xlink">
<g id="graph1" class="graph" transform="scale(1 1) rotate(0) translate(4 200)">
<title>AnimationEquations.h</title>
<polygon fill="white" stroke="white" points="-4,5 -4,-200 4210,-200 4210,5 -4,5"/>
<!-- Node1 -->
<g id="node1" class="node"><title>Node1</title>
<polygon fill="#bfbfbf" stroke="black" points="428,-174.5 428,-195.5 546,-195.5 546,-174.5 428,-174.5"/>
<text text-anchor="middle" x="487" y="-182.5" font-family="Helvetica,sans-Serif" font-size="10.00">AnimationEquations.h</text>
</g>
<!-- Node2 -->
<g id="node3" class="node"><title>Node2</title>
<a xlink:href="AnimationSettings_8h.htm" target="_top" xlink:title="AnimationSettings.h">
<polygon fill="white" stroke="black" points="1964,-116.5 1964,-137.5 2074,-137.5 2074,-116.5 1964,-116.5"/>
<text text-anchor="middle" x="2019" y="-124.5" font-family="Helvetica,sans-Serif" font-size="10.00">AnimationSettings.h</text>
</a>
</g>
<!-- Node1&#45;&gt;Node2 -->
<g id="edge2" class="edge"><title>Node1&#45;&gt;Node2</title>
<path fill="none" stroke="midnightblue" d="M556.168,-182.381C815.757,-172.554 1729.06,-137.977 1963.71,-129.093"/>
<polygon fill="midnightblue" stroke="midnightblue" points="555.978,-178.886 546.118,-182.762 556.243,-185.881 555.978,-178.886"/>
</g>
<!-- Node15 -->
<g id="node29" class="node"><title>Node15</title>
<a xlink:href="CardTransition_8cpp.htm" target="_top" xlink:title="CardTransition.cpp">
<polygon fill="white" stroke="black" points="336.5,-58.5 336.5,-79.5 443.5,-79.5 443.5,-58.5 336.5,-58.5"/>
<text text-anchor="middle" x="390" y="-66.5" font-family="Helvetica,sans-Serif" font-size="10.00">CardTransition.cpp</text>
</a>
</g>
<!-- Node1&#45;&gt;Node15 -->
<g id="edge84" class="edge"><title>Node1&#45;&gt;Node15</title>
<path fill="none" stroke="midnightblue" d="M472.51,-165.676C461.852,-151.665 446.868,-132.381 433,-116 422.138,-103.17 409.016,-89.0063 400.146,-79.6157"/>
<polygon fill="midnightblue" stroke="midnightblue" points="470.011,-168.173 478.834,-174.038 475.594,-163.951 470.011,-168.173"/>
</g>
<!-- Node24 -->
<g id="node47" class="node"><title>Node24</title>
<a xlink:href="BannerMessageHandler_8cpp.htm" target="_top" xlink:title="BannerMessageHandler.cpp">
<polygon fill="white" stroke="black" points="4053,-58.5 4053,-79.5 4205,-79.5 4205,-58.5 4053,-58.5"/>
<text text-anchor="middle" x="4129" y="-66.5" font-family="Helvetica,sans-Serif" font-size="10.00">BannerMessageHandler.cpp</text>
</a>
</g>
<!-- Node1&#45;&gt;Node24 -->
<g id="edge86" class="edge"><title>Node1&#45;&gt;Node24</title>
<path fill="none" stroke="midnightblue" d="M556.254,-182.964C778.253,-176.436 1492.15,-155.438 2083,-138 2954.56,-112.278 3174.79,-148.926 4044,-80 4046.82,-79.7765 4049.69,-79.5256 4052.58,-79.2526"/>
<polygon fill="midnightblue" stroke="midnightblue" points="555.949,-179.471 546.056,-183.264 556.155,-186.468 555.949,-179.471"/>
</g>
<!-- Node31 -->
<g id="node61" class="node"><title>Node31</title>
<a xlink:href="CardHostWindow_8h.htm" target="_top" xlink:title="CardHostWindow.h">
<polygon fill="white" stroke="black" points="169.5,-116.5 169.5,-137.5 276.5,-137.5 276.5,-116.5 169.5,-116.5"/>
<text text-anchor="middle" x="223" y="-124.5" font-family="Helvetica,sans-Serif" font-size="10.00">CardHostWindow.h</text>
</a>
</g>
<!-- Node1&#45;&gt;Node31 -->
<g id="edge60" class="edge"><title>Node1&#45;&gt;Node31</title>
<path fill="none" stroke="midnightblue" d="M429.371,-172.339C381.928,-161.916 315.457,-147.313 270.898,-137.523"/>
<polygon fill="midnightblue" stroke="midnightblue" points="428.673,-175.769 439.192,-174.497 430.176,-168.932 428.673,-175.769"/>
</g>
<!-- Node35 -->
<g id="node71" class="node"><title>Node35</title>
<a xlink:href="CardTransition_8h.htm" target="_top" xlink:title="CardTransition.h">
<polygon fill="white" stroke="black" points="329.5,-116.5 329.5,-137.5 424.5,-137.5 424.5,-116.5 329.5,-116.5"/>
<text text-anchor="middle" x="377" y="-124.5" font-family="Helvetica,sans-Serif" font-size="10.00">CardTransition.h</text>
</a>
</g>
<!-- Node1&#45;&gt;Node35 -->
<g id="edge72" class="edge"><title>Node1&#45;&gt;Node35</title>
<path fill="none" stroke="midnightblue" d="M458.161,-169.794C438.969,-159.675 414.236,-146.634 397.144,-137.621"/>
<polygon fill="midnightblue" stroke="midnightblue" points="456.602,-172.928 467.08,-174.497 459.867,-166.736 456.602,-172.928"/>
</g>
<!-- Node36 -->
<g id="node75" class="node"><title>Node36</title>
<a xlink:href="CardLoading_8h.htm" target="_top" xlink:title="CardLoading.h">
<polygon fill="white" stroke="black" points="480,-116.5 480,-137.5 566,-137.5 566,-116.5 480,-116.5"/>
<text text-anchor="middle" x="523" y="-124.5" font-family="Helvetica,sans-Serif" font-size="10.00">CardLoading.h</text>
</a>
</g>
<!-- Node1&#45;&gt;Node36 -->
<g id="edge78" class="edge"><title>Node1&#45;&gt;Node36</title>
<path fill="none" stroke="midnightblue" d="M499,-165.667C504.817,-156.295 511.578,-145.402 516.439,-137.571"/>
<polygon fill="midnightblue" stroke="midnightblue" points="495.903,-164.02 493.603,-174.362 501.85,-167.711 495.903,-164.02"/>
</g>
<!-- Node3 -->
<g id="node5" class="node"><title>Node3</title>
<a xlink:href="ProgressAnimation_8cpp.htm" target="_top" xlink:title="ProgressAnimation.cpp">
<polygon fill="white" stroke="black" points="956.5,-58.5 956.5,-79.5 1081.5,-79.5 1081.5,-58.5 956.5,-58.5"/>
<text text-anchor="middle" x="1019" y="-66.5" font-family="Helvetica,sans-Serif" font-size="10.00">ProgressAnimation.cpp</text>
</a>
</g>
<!-- Node2&#45;&gt;Node3 -->
<g id="edge4" class="edge"><title>Node2&#45;&gt;Node3</title>
<path fill="none" stroke="midnightblue" d="M1953.79,-126.012C1801.95,-123.207 1413.11,-113.114 1090,-80 1087.27,-79.7202 1084.49,-79.4073 1081.67,-79.069"/>
<polygon fill="midnightblue" stroke="midnightblue" points="1953.81,-129.513 1963.88,-126.194 1953.94,-122.514 1953.81,-129.513"/>
</g>
<!-- Node4 -->
<g id="node7" class="node"><title>Node4</title>
<a xlink:href="AnimationSettings_8cpp.htm" target="_top" xlink:title="AnimationSettings.cpp">
<polygon fill="white" stroke="black" points="1098.5,-58.5 1098.5,-79.5 1219.5,-79.5 1219.5,-58.5 1098.5,-58.5"/>
<text text-anchor="middle" x="1159" y="-66.5" font-family="Helvetica,sans-Serif" font-size="10.00">AnimationSettings.cpp</text>
</a>
</g>
<!-- Node2&#45;&gt;Node4 -->
<g id="edge6" class="edge"><title>Node2&#45;&gt;Node4</title>
<path fill="none" stroke="midnightblue" d="M1953.48,-125.295C1817.77,-121.282 1496.23,-109.278 1228,-80 1225.23,-79.6973 1222.39,-79.3601 1219.54,-78.9973"/>
<polygon fill="midnightblue" stroke="midnightblue" points="1953.6,-128.8 1963.7,-125.592 1953.81,-121.803 1953.6,-128.8"/>
</g>
<!-- Node5 -->
<g id="node9" class="node"><title>Node5</title>
<a xlink:href="SystemService_8cpp.htm" target="_top" xlink:title="SystemService.cpp">
<polygon fill="white" stroke="black" points="1237,-58.5 1237,-79.5 1343,-79.5 1343,-58.5 1237,-58.5"/>
<text text-anchor="middle" x="1290" y="-66.5" font-family="Helvetica,sans-Serif" font-size="10.00">SystemService.cpp</text>
</a>
</g>
<!-- Node2&#45;&gt;Node5 -->
<g id="edge8" class="edge"><title>Node2&#45;&gt;Node5</title>
<path fill="none" stroke="midnightblue" d="M1953.82,-124.686C1834.19,-119.932 1571.69,-107.153 1352,-80 1349.07,-79.638 1346.07,-79.2299 1343.04,-78.7896"/>
<polygon fill="midnightblue" stroke="midnightblue" points="1953.78,-128.187 1963.91,-125.081 1954.05,-121.192 1953.78,-128.187"/>
</g>
<!-- Node6 -->
<g id="node11" class="node"><title>Node6</title>
<a xlink:href="SystemUiController_8cpp.htm" target="_top" xlink:title="SystemUiController.cpp">
<polygon fill="white" stroke="black" points="1360.5,-58.5 1360.5,-79.5 1487.5,-79.5 1487.5,-58.5 1360.5,-58.5"/>
<text text-anchor="middle" x="1424" y="-66.5" font-family="Helvetica,sans-Serif" font-size="10.00">SystemUiController.cpp</text>
</a>
</g>
<!-- Node2&#45;&gt;Node6 -->
<g id="edge10" class="edge"><title>Node2&#45;&gt;Node6</title>
<path fill="none" stroke="midnightblue" d="M1953.76,-122.443C1854.65,-115.225 1660.33,-99.9173 1496,-80 1493.24,-79.6653 1490.42,-79.3068 1487.57,-78.9312"/>
<polygon fill="midnightblue" stroke="midnightblue" points="1953.69,-125.947 1963.91,-123.178 1954.19,-118.965 1953.69,-125.947"/>
</g>
<!-- Node7 -->
<g id="node13" class="node"><title>Node7</title>
<a xlink:href="ReticleItem_8cpp.htm" target="_top" xlink:title="ReticleItem.cpp">
<polygon fill="white" stroke="black" points="1504.5,-58.5 1504.5,-79.5 1593.5,-79.5 1593.5,-58.5 1504.5,-58.5"/>
<text text-anchor="middle" x="1549" y="-66.5" font-family="Helvetica,sans-Serif" font-size="10.00">ReticleItem.cpp</text>
</a>
</g>
<!-- Node2&#45;&gt;Node7 -->
<g id="edge12" class="edge"><title>Node2&#45;&gt;Node7</title>
<path fill="none" stroke="midnightblue" d="M1953.59,-121.513C1871.27,-114.174 1725.67,-99.7592 1602,-80 1599.31,-79.57 1596.55,-79.0963 1593.77,-78.5943"/>
<polygon fill="midnightblue" stroke="midnightblue" points="1953.53,-125.021 1963.8,-122.415 1954.15,-118.048 1953.53,-125.021"/>
</g>
<!-- Node8 -->
<g id="node15" class="node"><title>Node8</title>
<a xlink:href="TouchToShareGlow_8cpp.htm" target="_top" xlink:title="TouchToShareGlow.cpp">
<polygon fill="white" stroke="black" points="1610.5,-58.5 1610.5,-79.5 1741.5,-79.5 1741.5,-58.5 1610.5,-58.5"/>
<text text-anchor="middle" x="1676" y="-66.5" font-family="Helvetica,sans-Serif" font-size="10.00">TouchToShareGlow.cpp</text>
</a>
</g>
<!-- Node2&#45;&gt;Node8 -->
<g id="edge14" class="edge"><title>Node2&#45;&gt;Node8</title>
<path fill="none" stroke="midnightblue" d="M1953.83,-115.981C1891.84,-105.498 1799.23,-89.8382 1738.23,-79.5231"/>
<polygon fill="midnightblue" stroke="midnightblue" points="1953.45,-119.465 1963.89,-117.681 1954.61,-112.563 1953.45,-119.465"/>
</g>
<!-- Node9 -->
<g id="node17" class="node"><title>Node9</title>
<a xlink:href="WSOverlayScreenShotAnimation_8cpp.htm" target="_top" xlink:title="WSOverlayScreenShotAnimation.cpp">
<polygon fill="white" stroke="black" points="1758.5,-58.5 1758.5,-79.5 1949.5,-79.5 1949.5,-58.5 1758.5,-58.5"/>
<text text-anchor="middle" x="1854" y="-66.5" font-family="Helvetica,sans-Serif" font-size="10.00">WSOverlayScreenShotAnimation.cpp</text>
</a>
</g>
<!-- Node2&#45;&gt;Node9 -->
<g id="edge16" class="edge"><title>Node2&#45;&gt;Node9</title>
<path fill="none" stroke="midnightblue" d="M1979.58,-113.144C1950.22,-102.823 1910.74,-88.9439 1883.94,-79.5231"/>
<polygon fill="midnightblue" stroke="midnightblue" points="1978.52,-116.482 1989.12,-116.497 1980.85,-109.878 1978.52,-116.482"/>
</g>
<!-- Node10 -->
<g id="node19" class="node"><title>Node10</title>
<a xlink:href="WindowServer_8cpp.htm" target="_top" xlink:title="WindowServer.cpp">
<polygon fill="white" stroke="black" points="1966.5,-58.5 1966.5,-79.5 2071.5,-79.5 2071.5,-58.5 1966.5,-58.5"/>
<text text-anchor="middle" x="2019" y="-66.5" font-family="Helvetica,sans-Serif" font-size="10.00">WindowServer.cpp</text>
</a>
</g>
<!-- Node2&#45;&gt;Node10 -->
<g id="edge18" class="edge"><title>Node2&#45;&gt;Node10</title>
<path fill="none" stroke="midnightblue" d="M2019,-106.191C2019,-97.1684 2019,-86.9941 2019,-79.5707"/>
<polygon fill="midnightblue" stroke="midnightblue" points="2015.5,-106.362 2019,-116.362 2022.5,-106.362 2015.5,-106.362"/>
</g>
<!-- Node11 -->
<g id="node21" class="node"><title>Node11</title>
<a xlink:href="InputWindowManager_8cpp.htm" target="_top" xlink:title="InputWindowManager.cpp">
<polygon fill="white" stroke="black" points="2089,-58.5 2089,-79.5 2229,-79.5 2229,-58.5 2089,-58.5"/>
<text text-anchor="middle" x="2159" y="-66.5" font-family="Helvetica,sans-Serif" font-size="10.00">InputWindowManager.cpp</text>
</a>
</g>
<!-- Node2&#45;&gt;Node11 -->
<g id="edge20" class="edge"><title>Node2&#45;&gt;Node11</title>
<path fill="none" stroke="midnightblue" d="M2053.72,-112.615C2078.41,-102.389 2111.01,-88.8796 2133.36,-79.6212"/>
<polygon fill="midnightblue" stroke="midnightblue" points="2052.25,-109.436 2044.35,-116.497 2054.93,-115.903 2052.25,-109.436"/>
</g>
<!-- Node12 -->
<g id="node23" class="node"><title>Node12</title>
<a xlink:href="CardGroup_8cpp.htm" target="_top" xlink:title="CardGroup.cpp">
<polygon fill="white" stroke="black" points="2246.5,-58.5 2246.5,-79.5 2335.5,-79.5 2335.5,-58.5 2246.5,-58.5"/>
<text text-anchor="middle" x="2291" y="-66.5" font-family="Helvetica,sans-Serif" font-size="10.00">CardGroup.cpp</text>
</a>
</g>
<!-- Node2&#45;&gt;Node12 -->
<g id="edge22" class="edge"><title>Node2&#45;&gt;Node12</title>
<path fill="none" stroke="midnightblue" d="M2078.07,-114.405C2128.6,-103.63 2200.24,-88.3532 2246.17,-78.5595"/>
<polygon fill="midnightblue" stroke="midnightblue" points="2077.31,-110.988 2068.26,-116.497 2078.77,-117.834 2077.31,-110.988"/>
</g>
<!-- Node13 -->
<g id="node25" class="node"><title>Node13</title>
<a xlink:href="CardHostWindow_8cpp.htm" target="_top" xlink:title="CardHostWindow.cpp">
<polygon fill="white" stroke="black" points="200.5,-58.5 200.5,-79.5 319.5,-79.5 319.5,-58.5 200.5,-58.5"/>
<text text-anchor="middle" x="260" y="-66.5" font-family="Helvetica,sans-Serif" font-size="10.00">CardHostWindow.cpp</text>
</a>
</g>
<!-- Node2&#45;&gt;Node13 -->
<g id="edge24" class="edge"><title>Node2&#45;&gt;Node13</title>
<path fill="none" stroke="midnightblue" d="M1953.79,-126.345C1683.76,-123.453 652.223,-110.594 328,-80 325.262,-79.7416 322.466,-79.4408 319.647,-79.1074"/>
<polygon fill="midnightblue" stroke="midnightblue" points="1953.79,-129.845 1963.82,-126.451 1953.86,-122.845 1953.79,-129.845"/>
</g>
<!-- Node14 -->
<g id="node27" class="node"><title>Node14</title>
<a xlink:href="CardLoading_8cpp.htm" target="_top" xlink:title="CardLoading.cpp">
<polygon fill="white" stroke="black" points="461,-58.5 461,-79.5 559,-79.5 559,-58.5 461,-58.5"/>
<text text-anchor="middle" x="510" y="-66.5" font-family="Helvetica,sans-Serif" font-size="10.00">CardLoading.cpp</text>
</a>
</g>
<!-- Node2&#45;&gt;Node14 -->
<g id="edge26" class="edge"><title>Node2&#45;&gt;Node14</title>
<path fill="none" stroke="midnightblue" d="M1953.54,-126.229C1708.04,-123.129 842.141,-110.251 568,-80 565.148,-79.6852 562.225,-79.3077 559.283,-78.885"/>
<polygon fill="midnightblue" stroke="midnightblue" points="1953.69,-129.731 1963.73,-126.357 1953.78,-122.732 1953.69,-129.731"/>
</g>
<!-- Node2&#45;&gt;Node15 -->
<g id="edge28" class="edge"><title>Node2&#45;&gt;Node15</title>
<path fill="none" stroke="midnightblue" d="M1953.55,-126.308C1695.78,-123.387 750.242,-110.764 452,-80 449.281,-79.7196 446.503,-79.389 443.701,-79.0208"/>
<polygon fill="midnightblue" stroke="midnightblue" points="1953.83,-129.812 1963.87,-126.424 1953.91,-122.812 1953.83,-129.812"/>
</g>
<!-- Node16 -->
<g id="node31" class="node"><title>Node16</title>
<a xlink:href="CardWindow_8cpp.htm" target="_top" xlink:title="CardWindow.cpp">
<polygon fill="white" stroke="black" points="576.5,-58.5 576.5,-79.5 673.5,-79.5 673.5,-58.5 576.5,-58.5"/>
<text text-anchor="middle" x="625" y="-66.5" font-family="Helvetica,sans-Serif" font-size="10.00">CardWindow.cpp</text>
</a>
</g>
<!-- Node2&#45;&gt;Node16 -->
<g id="edge30" class="edge"><title>Node2&#45;&gt;Node16</title>
<path fill="none" stroke="midnightblue" d="M1953.67,-126.05C1720.91,-122.455 932.711,-108.423 682,-80 679.296,-79.6935 676.529,-79.3292 673.741,-78.9229"/>
<polygon fill="midnightblue" stroke="midnightblue" points="1953.63,-129.55 1963.68,-126.203 1953.73,-122.55 1953.63,-129.55"/>
</g>
<!-- Node17 -->
<g id="node33" class="node"><title>Node17</title>
<a xlink:href="CardWindowManager_8cpp.htm" target="_top" xlink:title="CardWindowManager.cpp">
<polygon fill="white" stroke="black" points="2353,-58.5 2353,-79.5 2493,-79.5 2493,-58.5 2353,-58.5"/>
<text text-anchor="middle" x="2423" y="-66.5" font-family="Helvetica,sans-Serif" font-size="10.00">CardWindowManager.cpp</text>
</a>
</g>
<!-- Node2&#45;&gt;Node17 -->
<g id="edge32" class="edge"><title>Node2&#45;&gt;Node17</title>
<path fill="none" stroke="midnightblue" d="M2084.4,-117.61C2158.03,-107.04 2277.2,-89.9312 2352.76,-79.0844"/>
<polygon fill="midnightblue" stroke="midnightblue" points="2083.73,-114.171 2074.33,-119.057 2084.72,-121.1 2083.73,-114.171"/>
</g>
<!-- Node18 -->
<g id="node35" class="node"><title>Node18</title>
<a xlink:href="DockModeAppMenuContainer_8cpp.htm" target="_top" xlink:title="DockModeAppMenuContainer.cpp">
<polygon fill="white" stroke="black" points="2510.5,-58.5 2510.5,-79.5 2689.5,-79.5 2689.5,-58.5 2510.5,-58.5"/>
<text text-anchor="middle" x="2600" y="-66.5" font-family="Helvetica,sans-Serif" font-size="10.00">DockModeAppMenuContainer.cpp</text>
</a>
</g>
<!-- Node2&#45;&gt;Node18 -->
<g id="edge34" class="edge"><title>Node2&#45;&gt;Node18</title>
<path fill="none" stroke="midnightblue" d="M2084.16,-120.967C2176.98,-112.304 2352.59,-95.6542 2502,-80 2504.72,-79.7146 2507.49,-79.4218 2510.28,-79.1238"/>
<polygon fill="midnightblue" stroke="midnightblue" points="2083.71,-117.494 2074.08,-121.907 2084.36,-124.464 2083.71,-117.494"/>
</g>
<!-- Node19 -->
<g id="node37" class="node"><title>Node19</title>
<a xlink:href="DockModeWindow_8cpp.htm" target="_top" xlink:title="DockModeWindow.cpp">
<polygon fill="white" stroke="black" points="2706.5,-58.5 2706.5,-79.5 2831.5,-79.5 2831.5,-58.5 2706.5,-58.5"/>
<text text-anchor="middle" x="2769" y="-66.5" font-family="Helvetica,sans-Serif" font-size="10.00">DockModeWindow.cpp</text>
</a>
</g>
<!-- Node2&#45;&gt;Node19 -->
<g id="edge36" class="edge"><title>Node2&#45;&gt;Node19</title>
<path fill="none" stroke="midnightblue" d="M2084.37,-124.317C2205.63,-118.931 2473.5,-105.116 2698,-80 2700.73,-79.6949 2703.51,-79.361 2706.32,-79.0055"/>
<polygon fill="midnightblue" stroke="midnightblue" points="2083.99,-120.83 2074.15,-124.766 2084.29,-127.823 2083.99,-120.83"/>
</g>
<!-- Node20 -->
<g id="node39" class="node"><title>Node20</title>
<a xlink:href="DockModeWindowManager_8cpp.htm" target="_top" xlink:title="DockModeWindowManager.cpp">
<polygon fill="white" stroke="black" points="2848.5,-58.5 2848.5,-79.5 3015.5,-79.5 3015.5,-58.5 2848.5,-58.5"/>
<text text-anchor="middle" x="2932" y="-66.5" font-family="Helvetica,sans-Serif" font-size="10.00">DockModeWindowManager.cpp</text>
</a>
</g>
<!-- Node2&#45;&gt;Node20 -->
<g id="edge38" class="edge"><title>Node2&#45;&gt;Node20</title>
<path fill="none" stroke="midnightblue" d="M2084.42,-124.63C2223.62,-119.284 2559.39,-104.783 2840,-80 2842.72,-79.7594 2845.49,-79.5023 2848.29,-79.2318"/>
<polygon fill="midnightblue" stroke="midnightblue" points="2084.2,-121.135 2074.34,-125.014 2084.47,-128.13 2084.2,-121.135"/>
</g>
<!-- Node21 -->
<g id="node41" class="node"><title>Node21</title>
<a xlink:href="OverlayWindowManager_8cpp.htm" target="_top" xlink:title="OverlayWindowManager.cpp">
<polygon fill="white" stroke="black" points="3032.5,-58.5 3032.5,-79.5 3185.5,-79.5 3185.5,-58.5 3032.5,-58.5"/>
<text text-anchor="middle" x="3109" y="-66.5" font-family="Helvetica,sans-Serif" font-size="10.00">OverlayWindowManager.cpp</text>
</a>
</g>
<!-- Node2&#45;&gt;Node21 -->
<g id="edge40" class="edge"><title>Node2&#45;&gt;Node21</title>
<path fill="none" stroke="midnightblue" d="M2084.29,-125.799C2244.6,-122.447 2670.28,-111.106 3024,-80 3026.67,-79.7654 3029.38,-79.5093 3032.12,-79.2361"/>
<polygon fill="midnightblue" stroke="midnightblue" points="2084.05,-122.303 2074.12,-126.008 2084.19,-129.302 2084.05,-122.303"/>
</g>
<!-- Node22 -->
<g id="node43" class="node"><title>Node22</title>
<a xlink:href="LockWindow_8cpp.htm" target="_top" xlink:title="LockWindow.cpp">
<polygon fill="white" stroke="black" points="3203,-58.5 3203,-79.5 3299,-79.5 3299,-58.5 3203,-58.5"/>
<text text-anchor="middle" x="3251" y="-66.5" font-family="Helvetica,sans-Serif" font-size="10.00">LockWindow.cpp</text>
</a>
</g>
<!-- Node2&#45;&gt;Node22 -->
<g id="edge42" class="edge"><title>Node2&#45;&gt;Node22</title>
<path fill="none" stroke="midnightblue" d="M2084.15,-125.688C2297.86,-121.181 2976.38,-105.205 3194,-80 3196.9,-79.6637 3199.88,-79.2625 3202.88,-78.8153"/>
<polygon fill="midnightblue" stroke="midnightblue" points="2083.95,-122.191 2074.02,-125.9 2084.1,-129.19 2083.95,-122.191"/>
</g>
<!-- Node23 -->
<g id="node45" class="node"><title>Node23</title>
<a xlink:href="TopLevelWindowManager_8cpp.htm" target="_top" xlink:title="TopLevelWindowManager.cpp">
<polygon fill="white" stroke="black" points="3316.5,-58.5 3316.5,-79.5 3477.5,-79.5 3477.5,-58.5 3316.5,-58.5"/>
<text text-anchor="middle" x="3397" y="-66.5" font-family="Helvetica,sans-Serif" font-size="10.00">TopLevelWindowManager.cpp</text>
</a>
</g>
<!-- Node2&#45;&gt;Node23 -->
<g id="edge44" class="edge"><title>Node2&#45;&gt;Node23</title>
<path fill="none" stroke="midnightblue" d="M2084.13,-126.615C2273.42,-125.066 2839.76,-117.403 3308,-80 3310.64,-79.7893 3313.32,-79.558 3316.02,-79.3099"/>
<polygon fill="midnightblue" stroke="midnightblue" points="2084.04,-123.115 2074.06,-126.694 2084.09,-130.115 2084.04,-123.115"/>
</g>
<!-- Node2&#45;&gt;Node24 -->
<g id="edge46" class="edge"><title>Node2&#45;&gt;Node24</title>
<path fill="none" stroke="midnightblue" d="M2084.7,-126.409C2387.45,-123.542 3650.03,-109.98 4044,-80 4046.82,-79.7855 4049.69,-79.5422 4052.58,-79.2756"/>
<polygon fill="midnightblue" stroke="midnightblue" points="2084.31,-122.912 2074.34,-126.506 2084.37,-129.912 2084.31,-122.912"/>
</g>
<!-- Node25 -->
<g id="node49" class="node"><title>Node25</title>
<a xlink:href="DashboardWindowContainer_8cpp.htm" target="_top" xlink:title="DashboardWindowContainer.cpp">
<polygon fill="white" stroke="black" points="3495,-58.5 3495,-79.5 3667,-79.5 3667,-58.5 3495,-58.5"/>
<text text-anchor="middle" x="3581" y="-66.5" font-family="Helvetica,sans-Serif" font-size="10.00">DashboardWindowContainer.cpp</text>
</a>
</g>
<!-- Node2&#45;&gt;Node25 -->
<g id="edge48" class="edge"><title>Node2&#45;&gt;Node25</title>
<path fill="none" stroke="midnightblue" d="M2084.29,-125.633C2331.15,-120.35 3207.6,-100.542 3486,-80 3488.9,-79.7862 3491.84,-79.5502 3494.82,-79.2961"/>
<polygon fill="midnightblue" stroke="midnightblue" points="2083.97,-122.139 2074.04,-125.851 2084.12,-129.137 2083.97,-122.139"/>
</g>
<!-- Node26 -->
<g id="node51" class="node"><title>Node26</title>
<a xlink:href="StatusBar_8cpp.htm" target="_top" xlink:title="StatusBar.cpp">
<polygon fill="white" stroke="black" points="3685,-58.5 3685,-79.5 3767,-79.5 3767,-58.5 3685,-58.5"/>
<text text-anchor="middle" x="3726" y="-66.5" font-family="Helvetica,sans-Serif" font-size="10.00">StatusBar.cpp</text>
</a>
</g>
<!-- Node2&#45;&gt;Node26 -->
<g id="edge50" class="edge"><title>Node2&#45;&gt;Node26</title>
<path fill="none" stroke="midnightblue" d="M2084.68,-126.787C2352.14,-125.666 3359.95,-118.895 3676,-80 3678.91,-79.6417 3681.9,-79.193 3684.91,-78.6832"/>
<polygon fill="midnightblue" stroke="midnightblue" points="2084.35,-123.289 2074.36,-126.829 2084.38,-130.289 2084.35,-123.289"/>
</g>
<!-- Node27 -->
<g id="node53" class="node"><title>Node27</title>
<a xlink:href="StatusBarIcon_8cpp.htm" target="_top" xlink:title="StatusBarIcon.cpp">
<polygon fill="white" stroke="black" points="3785,-58.5 3785,-79.5 3887,-79.5 3887,-58.5 3785,-58.5"/>
<text text-anchor="middle" x="3836" y="-66.5" font-family="Helvetica,sans-Serif" font-size="10.00">StatusBarIcon.cpp</text>
</a>
</g>
<!-- Node2&#45;&gt;Node27 -->
<g id="edge52" class="edge"><title>Node2&#45;&gt;Node27</title>
<path fill="none" stroke="midnightblue" d="M2084.45,-126.604C2361.45,-124.721 3438.53,-115.235 3776,-80 3778.84,-79.7031 3781.76,-79.3464 3784.69,-78.9459"/>
<polygon fill="midnightblue" stroke="midnightblue" points="2084.14,-123.106 2074.17,-126.673 2084.19,-130.106 2084.14,-123.106"/>
</g>
<!-- Node28 -->
<g id="node55" class="node"><title>Node28</title>
<a xlink:href="StatusBarItemGroup_8cpp.htm" target="_top" xlink:title="StatusBarItemGroup.cpp">
<polygon fill="white" stroke="black" points="3904.5,-58.5 3904.5,-79.5 4035.5,-79.5 4035.5,-58.5 3904.5,-58.5"/>
<text text-anchor="middle" x="3970" y="-66.5" font-family="Helvetica,sans-Serif" font-size="10.00">StatusBarItemGroup.cpp</text>
</a>
</g>
<!-- Node2&#45;&gt;Node28 -->
<g id="edge54" class="edge"><title>Node2&#45;&gt;Node28</title>
<path fill="none" stroke="midnightblue" d="M2084.57,-126.438C2373.31,-123.795 3533.1,-111.396 3896,-80 3898.72,-79.7649 3901.49,-79.4944 3904.28,-79.1957"/>
<polygon fill="midnightblue" stroke="midnightblue" points="2084.24,-122.94 2074.27,-126.531 2084.3,-129.94 2084.24,-122.94"/>
</g>
<!-- Node29 -->
<g id="node57" class="node"><title>Node29</title>
<a xlink:href="StatusBarTitle_8cpp.htm" target="_top" xlink:title="StatusBarTitle.cpp">
<polygon fill="white" stroke="black" points="691,-58.5 691,-79.5 793,-79.5 793,-58.5 691,-58.5"/>
<text text-anchor="middle" x="742" y="-66.5" font-family="Helvetica,sans-Serif" font-size="10.00">StatusBarTitle.cpp</text>
</a>
</g>
<!-- Node2&#45;&gt;Node29 -->
<g id="edge56" class="edge"><title>Node2&#45;&gt;Node29</title>
<path fill="none" stroke="midnightblue" d="M1953.75,-125.71C1734.94,-121.191 1028.28,-104.982 802,-80 799.158,-79.6862 796.248,-79.3163 793.316,-78.9055"/>
<polygon fill="midnightblue" stroke="midnightblue" points="1953.73,-129.21 1963.8,-125.916 1953.87,-122.212 1953.73,-129.21"/>
</g>
<!-- Node30 -->
<g id="node59" class="node"><title>Node30</title>
<a xlink:href="WindowServerLuna_8cpp.htm" target="_top" xlink:title="WindowServerLuna.cpp">
<polygon fill="white" stroke="black" points="811,-58.5 811,-79.5 939,-79.5 939,-58.5 811,-58.5"/>
<text text-anchor="middle" x="875" y="-66.5" font-family="Helvetica,sans-Serif" font-size="10.00">WindowServerLuna.cpp</text>
</a>
</g>
<!-- Node2&#45;&gt;Node30 -->
<g id="edge58" class="edge"><title>Node2&#45;&gt;Node30</title>
<path fill="none" stroke="midnightblue" d="M1953.83,-126.536C1786.45,-124.824 1327.91,-116.855 948,-80 945.066,-79.7154 942.07,-79.3931 939.047,-79.0422"/>
<polygon fill="midnightblue" stroke="midnightblue" points="1953.93,-130.037 1963.96,-126.635 1953.99,-123.037 1953.93,-130.037"/>
</g>
<!-- Node31&#45;&gt;Node13 -->
<g id="edge62" class="edge"><title>Node31&#45;&gt;Node13</title>
<path fill="none" stroke="midnightblue" d="M235.333,-107.667C241.312,-98.2948 248.261,-87.4019 253.257,-79.5707"/>
<polygon fill="midnightblue" stroke="midnightblue" points="232.214,-106.049 229.786,-116.362 238.115,-109.814 232.214,-106.049"/>
</g>
<!-- Node32 -->
<g id="node64" class="node"><title>Node32</title>
<a xlink:href="QtHostWindow_8h.htm" target="_top" xlink:title="QtHostWindow.h">
<polygon fill="white" stroke="black" points="50.5,-58.5 50.5,-79.5 145.5,-79.5 145.5,-58.5 50.5,-58.5"/>
<text text-anchor="middle" x="98" y="-66.5" font-family="Helvetica,sans-Serif" font-size="10.00">QtHostWindow.h</text>
</a>
</g>
<!-- Node31&#45;&gt;Node32 -->
<g id="edge64" class="edge"><title>Node31&#45;&gt;Node32</title>
<path fill="none" stroke="midnightblue" d="M191.117,-112.206C169.188,-102.031 140.579,-88.7567 120.891,-79.6212"/>
<polygon fill="midnightblue" stroke="midnightblue" points="189.819,-115.462 200.363,-116.497 192.766,-109.113 189.819,-115.462"/>
</g>
<!-- Node34 -->
<g id="node68" class="node"><title>Node34</title>
<a xlink:href="IpcClientHost_8cpp.htm" target="_top" xlink:title="IpcClientHost.cpp">
<polygon fill="white" stroke="black" points="123.5,-0.5 123.5,-21.5 222.5,-21.5 222.5,-0.5 123.5,-0.5"/>
<text text-anchor="middle" x="173" y="-8.5" font-family="Helvetica,sans-Serif" font-size="10.00">IpcClientHost.cpp</text>
</a>
</g>
<!-- Node31&#45;&gt;Node34 -->
<g id="edge70" class="edge"><title>Node31&#45;&gt;Node34</title>
<path fill="none" stroke="midnightblue" d="M208.611,-108.165C202.808,-99.875 196.448,-89.8057 192,-80 183.068,-60.3117 177.501,-35.5109 174.85,-21.6429"/>
<polygon fill="midnightblue" stroke="midnightblue" points="205.862,-110.336 214.572,-116.367 211.524,-106.22 205.862,-110.336"/>
</g>
<!-- Node33 -->
<g id="node66" class="node"><title>Node33</title>
<a xlink:href="QtHostWindow_8cpp.htm" target="_top" xlink:title="QtHostWindow.cpp">
<polygon fill="white" stroke="black" points="-0.5,-0.5 -0.5,-21.5 106.5,-21.5 106.5,-0.5 -0.5,-0.5"/>
<text text-anchor="middle" x="53" y="-8.5" font-family="Helvetica,sans-Serif" font-size="10.00">QtHostWindow.cpp</text>
</a>
</g>
<!-- Node32&#45;&gt;Node33 -->
<g id="edge66" class="edge"><title>Node32&#45;&gt;Node33</title>
<path fill="none" stroke="midnightblue" d="M83.4529,-50.2504C76.0819,-40.75 67.4039,-29.5651 61.2014,-21.5707"/>
<polygon fill="midnightblue" stroke="midnightblue" points="80.851,-52.6065 89.7463,-58.3619 86.3816,-48.3155 80.851,-52.6065"/>
</g>
<!-- Node32&#45;&gt;Node34 -->
<g id="edge68" class="edge"><title>Node32&#45;&gt;Node34</title>
<path fill="none" stroke="midnightblue" d="M120.015,-51.9753C132.744,-42.1315 148.361,-30.0545 159.331,-21.5707"/>
<polygon fill="midnightblue" stroke="midnightblue" points="117.526,-49.4757 111.756,-58.3619 121.808,-55.0131 117.526,-49.4757"/>
</g>
<!-- Node35&#45;&gt;Node13 -->
<g id="edge74" class="edge"><title>Node35&#45;&gt;Node13</title>
<path fill="none" stroke="midnightblue" d="M346.604,-111.932C326.152,-101.793 299.689,-88.6748 281.426,-79.6212"/>
<polygon fill="midnightblue" stroke="midnightblue" points="345.298,-115.191 355.812,-116.497 348.407,-108.919 345.298,-115.191"/>
</g>
<!-- Node35&#45;&gt;Node15 -->
<g id="edge76" class="edge"><title>Node35&#45;&gt;Node15</title>
<path fill="none" stroke="midnightblue" d="M381.598,-106.488C383.636,-97.3924 385.949,-87.0756 387.631,-79.5707"/>
<polygon fill="midnightblue" stroke="midnightblue" points="378.156,-105.838 379.384,-116.362 384.987,-107.37 378.156,-105.838"/>
</g>
<!-- Node36&#45;&gt;Node14 -->
<g id="edge80" class="edge"><title>Node36&#45;&gt;Node14</title>
<path fill="none" stroke="midnightblue" d="M518.402,-106.488C516.364,-97.3924 514.051,-87.0756 512.369,-79.5707"/>
<polygon fill="midnightblue" stroke="midnightblue" points="515.013,-107.37 520.616,-116.362 521.844,-105.838 515.013,-107.37"/>
</g>
<!-- Node36&#45;&gt;Node16 -->
<g id="edge82" class="edge"><title>Node36&#45;&gt;Node16</title>
<path fill="none" stroke="midnightblue" d="M550.471,-111.379C568.195,-101.301 590.773,-88.4624 606.41,-79.5707"/>
<polygon fill="midnightblue" stroke="midnightblue" points="548.671,-108.376 541.708,-116.362 552.131,-114.461 548.671,-108.376"/>
</g>
</g>
</svg>
