<?xml version="1.0" encoding="UTF-8" standalone="no"?>
<!DOCTYPE svg PUBLIC "-//W3C//DTD SVG 1.1//EN"
 "http://www.w3.org/Graphics/SVG/1.1/DTD/svg11.dtd">
<!-- Generated by graphviz version 2.26.3 (20100126.1600)
 -->
<!-- Title: AppDirectRenderingArbitrator.cpp Pages: 1 -->
<svg width="1356pt" height="262pt"
 viewBox="0.00 0.00 1356.00 262.00" xmlns="http://www.w3.org/2000/svg" xmlns:xlink="http://www.w3.org/1999/xlink">
<g id="graph1" class="graph" transform="scale(1 1) rotate(0) translate(4 258)">
<title>AppDirectRenderingArbitrator.cpp</title>
<polygon fill="white" stroke="white" points="-4,5 -4,-258 1353,-258 1353,5 -4,5"/>
<!-- Node1 -->
<g id="node1" class="node"><title>Node1</title>
<polygon fill="#bfbfbf" stroke="black" points="191,-232.5 191,-253.5 367,-253.5 367,-232.5 191,-232.5"/>
<text text-anchor="middle" x="279" y="-240.5" font-family="Helvetica,sans-Serif" font-size="10.00">AppDirectRenderingArbitrator.cpp</text>
</g>
<!-- Node2 -->
<g id="node3" class="node"><title>Node2</title>
<polygon fill="white" stroke="#bfbfbf" points="60,-174.5 60,-195.5 112,-195.5 112,-174.5 60,-174.5"/>
<text text-anchor="middle" x="86" y="-182.5" font-family="Helvetica,sans-Serif" font-size="10.00">QTimer</text>
</g>
<!-- Node1&#45;&gt;Node2 -->
<g id="edge2" class="edge"><title>Node1&#45;&gt;Node2</title>
<path fill="none" stroke="midnightblue" d="M242.87,-232.424C212.881,-223.608 168.866,-210.58 122.068,-196.3"/>
<polygon fill="midnightblue" stroke="midnightblue" points="122.946,-192.909 112.36,-193.332 120.899,-199.603 122.946,-192.909"/>
</g>
<!-- Node3 -->
<g id="node5" class="node"><title>Node3</title>
<a xlink:href="AppDirectRenderingArbitrator_8h.htm" target="_top" xlink:title="AppDirectRenderingArbitrator.h">
<polygon fill="white" stroke="black" points="130,-174.5 130,-195.5 294,-195.5 294,-174.5 130,-174.5"/>
<text text-anchor="middle" x="212" y="-182.5" font-family="Helvetica,sans-Serif" font-size="10.00">AppDirectRenderingArbitrator.h</text>
</a>
</g>
<!-- Node1&#45;&gt;Node3 -->
<g id="edge4" class="edge"><title>Node1&#45;&gt;Node3</title>
<path fill="none" stroke="midnightblue" d="M266.711,-232.362C256.983,-223.941 243.202,-212.011 231.905,-202.231"/>
<polygon fill="midnightblue" stroke="midnightblue" points="234.062,-199.469 224.211,-195.571 229.481,-204.762 234.062,-199.469"/>
</g>
<!-- Node6 -->
<g id="node11" class="node"><title>Node6</title>
<polygon fill="white" stroke="#bfbfbf" points="311.5,-174.5 311.5,-195.5 382.5,-195.5 382.5,-174.5 311.5,-174.5"/>
<text text-anchor="middle" x="347" y="-182.5" font-family="Helvetica,sans-Serif" font-size="10.00">HostBase.h</text>
</g>
<!-- Node1&#45;&gt;Node6 -->
<g id="edge10" class="edge"><title>Node1&#45;&gt;Node6</title>
<path fill="none" stroke="midnightblue" d="M291.472,-232.362C301.345,-223.941 315.333,-212.011 326.798,-202.231"/>
<polygon fill="midnightblue" stroke="midnightblue" points="329.27,-204.723 334.607,-195.571 324.727,-199.397 329.27,-204.723"/>
</g>
<!-- Node7 -->
<g id="node13" class="node"><title>Node7</title>
<a xlink:href="SystemUiController_8h.htm" target="_top" xlink:title="SystemUiController.h">
<polygon fill="white" stroke="black" points="756,-174.5 756,-195.5 872,-195.5 872,-174.5 756,-174.5"/>
<text text-anchor="middle" x="814" y="-182.5" font-family="Helvetica,sans-Serif" font-size="10.00">SystemUiController.h</text>
</a>
</g>
<!-- Node1&#45;&gt;Node7 -->
<g id="edge12" class="edge"><title>Node1&#45;&gt;Node7</title>
<path fill="none" stroke="midnightblue" d="M367.045,-233.455C473.077,-221.96 648.926,-202.896 745.413,-192.436"/>
<polygon fill="midnightblue" stroke="midnightblue" points="746.072,-195.885 755.637,-191.327 745.318,-188.926 746.072,-195.885"/>
</g>
<!-- Node4 -->
<g id="node7" class="node"><title>Node4</title>
<polygon fill="white" stroke="#bfbfbf" points="184.5,-116.5 184.5,-137.5 239.5,-137.5 239.5,-116.5 184.5,-116.5"/>
<text text-anchor="middle" x="212" y="-124.5" font-family="Helvetica,sans-Serif" font-size="10.00">QObject</text>
</g>
<!-- Node3&#45;&gt;Node4 -->
<g id="edge6" class="edge"><title>Node3&#45;&gt;Node4</title>
<path fill="none" stroke="midnightblue" d="M212,-174.362C212,-166.922 212,-156.743 212,-147.728"/>
<polygon fill="midnightblue" stroke="midnightblue" points="215.5,-147.571 212,-137.571 208.5,-147.571 215.5,-147.571"/>
</g>
<!-- Node5 -->
<g id="node9" class="node"><title>Node5</title>
<polygon fill="white" stroke="#bfbfbf" points="126.5,-116.5 126.5,-137.5 167.5,-137.5 167.5,-116.5 126.5,-116.5"/>
<text text-anchor="middle" x="147" y="-124.5" font-family="Helvetica,sans-Serif" font-size="10.00">QSet</text>
</g>
<!-- Node3&#45;&gt;Node5 -->
<g id="edge8" class="edge"><title>Node3&#45;&gt;Node5</title>
<path fill="none" stroke="midnightblue" d="M200.078,-174.362C190.641,-165.941 177.27,-154.011 166.31,-144.231"/>
<polygon fill="midnightblue" stroke="midnightblue" points="168.638,-141.617 158.846,-137.571 163.978,-146.84 168.638,-141.617"/>
</g>
<!-- Node7&#45;&gt;Node4 -->
<g id="edge24" class="edge"><title>Node7&#45;&gt;Node4</title>
<path fill="none" stroke="midnightblue" d="M755.71,-181.745C635.231,-174.765 361.356,-157.539 249.73,-137.964"/>
<polygon fill="midnightblue" stroke="midnightblue" points="250.229,-134.497 239.76,-136.124 248.959,-141.381 250.229,-134.497"/>
</g>
<!-- Node8 -->
<g id="node15" class="node"><title>Node8</title>
<polygon fill="white" stroke="#bfbfbf" points="709.5,-0.5 709.5,-21.5 776.5,-21.5 776.5,-0.5 709.5,-0.5"/>
<text text-anchor="middle" x="743" y="-8.5" font-family="Helvetica,sans-Serif" font-size="10.00">Common.h</text>
</g>
<!-- Node7&#45;&gt;Node8 -->
<g id="edge14" class="edge"><title>Node7&#45;&gt;Node8</title>
<path fill="none" stroke="midnightblue" d="M809.666,-174.377C798.107,-146.051 766.401,-68.3488 751.26,-31.2424"/>
<polygon fill="midnightblue" stroke="midnightblue" points="754.478,-29.8642 747.459,-21.9277 747.997,-32.5089 754.478,-29.8642"/>
</g>
<!-- Node9 -->
<g id="node17" class="node"><title>Node9</title>
<polygon fill="white" stroke="#bfbfbf" points="573.5,-0.5 573.5,-21.5 616.5,-21.5 616.5,-0.5 573.5,-0.5"/>
<text text-anchor="middle" x="595" y="-8.5" font-family="Helvetica,sans-Serif" font-size="10.00">string</text>
</g>
<!-- Node7&#45;&gt;Node9 -->
<g id="edge16" class="edge"><title>Node7&#45;&gt;Node9</title>
<path fill="none" stroke="midnightblue" d="M793.2,-174.317C744.236,-149.099 625.329,-87.4258 619,-80 607.331,-66.3077 601.225,-46.6055 598.1,-31.7568"/>
<polygon fill="midnightblue" stroke="midnightblue" points="601.473,-30.7446 596.248,-21.528 594.585,-31.9915 601.473,-30.7446"/>
</g>
<!-- Node10 -->
<g id="node19" class="node"><title>Node10</title>
<polygon fill="white" stroke="#bfbfbf" points="1044,-116.5 1044,-137.5 1096,-137.5 1096,-116.5 1044,-116.5"/>
<text text-anchor="middle" x="1070" y="-124.5" font-family="Helvetica,sans-Serif" font-size="10.00">QEvent</text>
</g>
<!-- Node7&#45;&gt;Node10 -->
<g id="edge18" class="edge"><title>Node7&#45;&gt;Node10</title>
<path fill="none" stroke="midnightblue" d="M866.119,-174.484C909.982,-165.437 974.288,-151.711 1030,-138 1031.26,-137.69 1032.54,-137.37 1033.83,-137.041"/>
<polygon fill="midnightblue" stroke="midnightblue" points="1035.02,-140.347 1043.8,-134.422 1033.24,-133.577 1035.02,-140.347"/>
</g>
<!-- Node11 -->
<g id="node21" class="node"><title>Node11</title>
<polygon fill="white" stroke="#bfbfbf" points="1114,-116.5 1114,-137.5 1184,-137.5 1184,-116.5 1114,-116.5"/>
<text text-anchor="middle" x="1149" y="-124.5" font-family="Helvetica,sans-Serif" font-size="10.00">QKeyEvent</text>
</g>
<!-- Node7&#45;&gt;Node11 -->
<g id="edge20" class="edge"><title>Node7&#45;&gt;Node11</title>
<path fill="none" stroke="midnightblue" d="M872.237,-177.078C928.986,-169.024 1017.89,-155.521 1104.05,-138.07"/>
<polygon fill="midnightblue" stroke="midnightblue" points="1104.9,-141.469 1114,-136.035 1103.5,-134.611 1104.9,-141.469"/>
</g>
<!-- Node12 -->
<g id="node23" class="node"><title>Node12</title>
<polygon fill="white" stroke="#bfbfbf" points="1201.5,-116.5 1201.5,-137.5 1284.5,-137.5 1284.5,-116.5 1201.5,-116.5"/>
<text text-anchor="middle" x="1243" y="-124.5" font-family="Helvetica,sans-Serif" font-size="10.00">QMouseEvent</text>
</g>
<!-- Node7&#45;&gt;Node12 -->
<g id="edge22" class="edge"><title>Node7&#45;&gt;Node12</title>
<path fill="none" stroke="midnightblue" d="M872.034,-179.5C944.573,-172.249 1072.7,-158.197 1191.33,-138.178"/>
<polygon fill="midnightblue" stroke="midnightblue" points="1192.05,-141.607 1201.32,-136.475 1190.87,-134.706 1192.05,-141.607"/>
</g>
<!-- Node13 -->
<g id="node26" class="node"><title>Node13</title>
<polygon fill="white" stroke="#bfbfbf" points="1301.5,-116.5 1301.5,-137.5 1348.5,-137.5 1348.5,-116.5 1301.5,-116.5"/>
<text text-anchor="middle" x="1325" y="-124.5" font-family="Helvetica,sans-Serif" font-size="10.00">QRect</text>
</g>
<!-- Node7&#45;&gt;Node13 -->
<g id="edge26" class="edge"><title>Node7&#45;&gt;Node13</title>
<path fill="none" stroke="midnightblue" d="M872.187,-183.653C961.068,-180.642 1135.87,-170.97 1291.21,-138.002"/>
<polygon fill="midnightblue" stroke="midnightblue" points="1292.38,-141.33 1301.41,-135.796 1290.9,-134.488 1292.38,-141.33"/>
</g>
<!-- Node14 -->
<g id="node28" class="node"><title>Node14</title>
<polygon fill="white" stroke="#bfbfbf" points="256.5,-116.5 256.5,-137.5 349.5,-137.5 349.5,-116.5 256.5,-116.5"/>
<text text-anchor="middle" x="303" y="-124.5" font-family="Helvetica,sans-Serif" font-size="10.00">QSharedPointer</text>
</g>
<!-- Node7&#45;&gt;Node14 -->
<g id="edge28" class="edge"><title>Node7&#45;&gt;Node14</title>
<path fill="none" stroke="midnightblue" d="M755.832,-180.779C670.893,-174.223 507.773,-160.155 359.921,-138.191"/>
<polygon fill="midnightblue" stroke="midnightblue" points="360.164,-134.688 349.755,-136.664 359.124,-141.61 360.164,-134.688"/>
</g>
<!-- Node15 -->
<g id="node30" class="node"><title>Node15</title>
<polygon fill="white" stroke="#bfbfbf" points="367,-116.5 367,-137.5 453,-137.5 453,-116.5 367,-116.5"/>
<text text-anchor="middle" x="410" y="-124.5" font-family="Helvetica,sans-Serif" font-size="10.00">QWeakPointer</text>
</g>
<!-- Node7&#45;&gt;Node15 -->
<g id="edge30" class="edge"><title>Node7&#45;&gt;Node15</title>
<path fill="none" stroke="midnightblue" d="M755.868,-178.605C687.958,-170.829 572.027,-156.606 462.939,-138.066"/>
<polygon fill="midnightblue" stroke="midnightblue" points="463.53,-134.617 453.082,-136.376 462.346,-141.516 463.53,-134.617"/>
</g>
<!-- Node16 -->
<g id="node32" class="node"><title>Node16</title>
<a xlink:href="ApplicationDescription_8h.htm" target="_top" xlink:title="ApplicationDescription.h">
<polygon fill="white" stroke="black" points="471,-116.5 471,-137.5 601,-137.5 601,-116.5 471,-116.5"/>
<text text-anchor="middle" x="536" y="-124.5" font-family="Helvetica,sans-Serif" font-size="10.00">ApplicationDescription.h</text>
</a>
</g>
<!-- Node7&#45;&gt;Node16 -->
<g id="edge32" class="edge"><title>Node7&#45;&gt;Node16</title>
<path fill="none" stroke="midnightblue" d="M763.656,-174.497C716.667,-164.693 646.479,-150.05 596.472,-139.616"/>
<polygon fill="midnightblue" stroke="midnightblue" points="596.942,-136.139 586.438,-137.523 595.512,-142.992 596.942,-136.139"/>
</g>
<!-- Node29 -->
<g id="node66" class="node"><title>Node29</title>
<polygon fill="white" stroke="#bfbfbf" points="619,-116.5 619,-137.5 671,-137.5 671,-116.5 619,-116.5"/>
<text text-anchor="middle" x="645" y="-124.5" font-family="Helvetica,sans-Serif" font-size="10.00">Event.h</text>
</g>
<!-- Node7&#45;&gt;Node29 -->
<g id="edge74" class="edge"><title>Node7&#45;&gt;Node29</title>
<path fill="none" stroke="midnightblue" d="M783.395,-174.497C754.596,-164.613 711.461,-149.809 681.016,-139.361"/>
<polygon fill="midnightblue" stroke="midnightblue" points="681.812,-135.933 671.217,-135.998 679.54,-142.554 681.812,-135.933"/>
</g>
<!-- Node30 -->
<g id="node68" class="node"><title>Node30</title>
<a xlink:href="SuspendBlocker_8h.htm" target="_top" xlink:title="SuspendBlocker.h">
<polygon fill="white" stroke="black" points="803.5,-58.5 803.5,-79.5 904.5,-79.5 904.5,-58.5 803.5,-58.5"/>
<text text-anchor="middle" x="854" y="-66.5" font-family="Helvetica,sans-Serif" font-size="10.00">SuspendBlocker.h</text>
</a>
</g>
<!-- Node7&#45;&gt;Node30 -->
<g id="edge76" class="edge"><title>Node7&#45;&gt;Node30</title>
<path fill="none" stroke="midnightblue" d="M817.691,-174.295C824.359,-154.959 838.509,-113.923 847.043,-89.1767"/>
<polygon fill="midnightblue" stroke="midnightblue" points="850.366,-90.2739 850.318,-79.6792 843.749,-87.9919 850.366,-90.2739"/>
</g>
<!-- Node32 -->
<g id="node74" class="node"><title>Node32</title>
<a xlink:href="VariantAnimation_8h.htm" target="_top" xlink:title="VariantAnimation.h">
<polygon fill="white" stroke="black" points="1225.5,-58.5 1225.5,-79.5 1330.5,-79.5 1330.5,-58.5 1225.5,-58.5"/>
<text text-anchor="middle" x="1278" y="-66.5" font-family="Helvetica,sans-Serif" font-size="10.00">VariantAnimation.h</text>
</a>
</g>
<!-- Node7&#45;&gt;Node32 -->
<g id="edge84" class="edge"><title>Node7&#45;&gt;Node32</title>
<path fill="none" stroke="midnightblue" d="M871.35,-174.484C908.082,-166.731 956.314,-154.634 997,-138 1015.06,-130.615 1016.72,-122.837 1035,-116 1067.29,-103.922 1154.58,-88.5189 1215.23,-78.7047"/>
<polygon fill="midnightblue" stroke="midnightblue" points="1216.15,-82.1012 1225.47,-77.0593 1215.04,-75.1898 1216.15,-82.1012"/>
</g>
<!-- Node34 -->
<g id="node79" class="node"><title>Node34</title>
<a xlink:href="Window_8h.htm" target="_top" xlink:title="Window.h">
<polygon fill="white" stroke="black" points="922,-58.5 922,-79.5 984,-79.5 984,-58.5 922,-58.5"/>
<text text-anchor="middle" x="953" y="-66.5" font-family="Helvetica,sans-Serif" font-size="10.00">Window.h</text>
</a>
</g>
<!-- Node7&#45;&gt;Node34 -->
<g id="edge90" class="edge"><title>Node7&#45;&gt;Node34</title>
<path fill="none" stroke="midnightblue" d="M821.993,-174.304C833.071,-159.936 854.201,-134.116 876,-116 890.463,-103.98 908.299,-92.8954 923.162,-84.5133"/>
<polygon fill="midnightblue" stroke="midnightblue" points="924.905,-87.5495 931.975,-79.6594 921.527,-81.418 924.905,-87.5495"/>
</g>
<!-- Node38 -->
<g id="node91" class="node"><title>Node38</title>
<polygon fill="white" stroke="#bfbfbf" points="1002,-58.5 1002,-79.5 1094,-79.5 1094,-58.5 1002,-58.5"/>
<text text-anchor="middle" x="1048" y="-66.5" font-family="Helvetica,sans-Serif" font-size="10.00">CustomEvents.h</text>
</g>
<!-- Node7&#45;&gt;Node38 -->
<g id="edge106" class="edge"><title>Node7&#45;&gt;Node38</title>
<path fill="none" stroke="midnightblue" d="M827.972,-174.493C852.235,-156.301 900.399,-120.446 909,-116 936.712,-101.674 969.719,-90.2993 996.613,-82.3301"/>
<polygon fill="midnightblue" stroke="midnightblue" points="997.591,-85.6909 1006.22,-79.5491 995.645,-78.9667 997.591,-85.6909"/>
</g>
<!-- Node39 -->
<g id="node93" class="node"><title>Node39</title>
<a xlink:href="StatusBar_8h.htm" target="_top" xlink:title="StatusBar.h">
<polygon fill="white" stroke="black" points="917.5,-116.5 917.5,-137.5 988.5,-137.5 988.5,-116.5 917.5,-116.5"/>
<text text-anchor="middle" x="953" y="-124.5" font-family="Helvetica,sans-Serif" font-size="10.00">StatusBar.h</text>
</a>
</g>
<!-- Node7&#45;&gt;Node39 -->
<g id="edge108" class="edge"><title>Node7&#45;&gt;Node39</title>
<path fill="none" stroke="midnightblue" d="M839.172,-174.497C861.273,-165.275 893.639,-151.769 918.213,-141.515"/>
<polygon fill="midnightblue" stroke="midnightblue" points="919.665,-144.702 927.546,-137.621 916.969,-138.242 919.665,-144.702"/>
</g>
<!-- Node16&#45;&gt;Node8 -->
<g id="edge34" class="edge"><title>Node16&#45;&gt;Node8</title>
<path fill="none" stroke="midnightblue" d="M601.401,-116.893C646.661,-108.683 701.739,-95.8788 719,-80 732.52,-67.5624 738.424,-47.1104 741.002,-31.6947"/>
<polygon fill="midnightblue" stroke="midnightblue" points="744.503,-31.9208 742.353,-21.5464 737.564,-30.9971 744.503,-31.9208"/>
</g>
<!-- Node16&#45;&gt;Node9 -->
<g id="edge36" class="edge"><title>Node16&#45;&gt;Node9</title>
<path fill="none" stroke="midnightblue" d="M532.417,-116.048C528.439,-101.846 523.718,-76.6848 533,-58 539.722,-44.4697 552.405,-33.7905 564.558,-26.0539"/>
<polygon fill="midnightblue" stroke="midnightblue" points="566.387,-29.0385 573.221,-20.9418 562.83,-23.01 566.387,-29.0385"/>
</g>
<!-- Node17 -->
<g id="node36" class="node"><title>Node17</title>
<polygon fill="white" stroke="#bfbfbf" points="259,-0.5 259,-21.5 309,-21.5 309,-0.5 259,-0.5"/>
<text text-anchor="middle" x="284" y="-8.5" font-family="Helvetica,sans-Serif" font-size="10.00">stdint.h</text>
</g>
<!-- Node16&#45;&gt;Node17 -->
<g id="edge38" class="edge"><title>Node16&#45;&gt;Node17</title>
<path fill="none" stroke="midnightblue" d="M471.164,-116.478C409.788,-106.017 325.241,-90.1095 313,-80 298.488,-68.0149 291.114,-47.5034 287.446,-31.9507"/>
<polygon fill="midnightblue" stroke="midnightblue" points="290.787,-30.8076 285.382,-21.6951 283.924,-32.1892 290.787,-30.8076"/>
</g>
<!-- Node18 -->
<g id="node38" class="node"><title>Node18</title>
<polygon fill="white" stroke="#bfbfbf" points="541.5,-58.5 541.5,-79.5 572.5,-79.5 572.5,-58.5 541.5,-58.5"/>
<text text-anchor="middle" x="557" y="-66.5" font-family="Helvetica,sans-Serif" font-size="10.00">set</text>
</g>
<!-- Node16&#45;&gt;Node18 -->
<g id="edge40" class="edge"><title>Node16&#45;&gt;Node18</title>
<path fill="none" stroke="midnightblue" d="M539.852,-116.362C542.605,-108.758 546.394,-98.294 549.71,-89.1349"/>
<polygon fill="midnightblue" stroke="midnightblue" points="553.059,-90.1649 553.173,-79.5707 546.477,-87.7818 553.059,-90.1649"/>
</g>
<!-- Node19 -->
<g id="node40" class="node"><title>Node19</title>
<polygon fill="white" stroke="#bfbfbf" points="420.5,-0.5 420.5,-21.5 449.5,-21.5 449.5,-0.5 420.5,-0.5"/>
<text text-anchor="middle" x="435" y="-8.5" font-family="Helvetica,sans-Serif" font-size="10.00">list</text>
</g>
<!-- Node16&#45;&gt;Node19 -->
<g id="edge42" class="edge"><title>Node16&#45;&gt;Node19</title>
<path fill="none" stroke="midnightblue" d="M470.935,-116.831C411.809,-106.927 332.398,-91.6979 323,-80 295.951,-46.3321 369.975,-24.7541 410.511,-15.7757"/>
<polygon fill="midnightblue" stroke="midnightblue" points="411.418,-19.1614 420.479,-13.6709 409.972,-12.3124 411.418,-19.1614"/>
</g>
<!-- Node20 -->
<g id="node42" class="node"><title>Node20</title>
<a xlink:href="LaunchPoint_8h.htm" target="_top" xlink:title="LaunchPoint.h">
<polygon fill="white" stroke="black" points="627.5,-58.5 627.5,-79.5 710.5,-79.5 710.5,-58.5 627.5,-58.5"/>
<text text-anchor="middle" x="669" y="-66.5" font-family="Helvetica,sans-Serif" font-size="10.00">LaunchPoint.h</text>
</a>
</g>
<!-- Node16&#45;&gt;Node20 -->
<g id="edge44" class="edge"><title>Node16&#45;&gt;Node20</title>
<path fill="none" stroke="midnightblue" d="M560.085,-116.497C581.139,-107.315 611.927,-93.8889 635.402,-83.6516"/>
<polygon fill="midnightblue" stroke="midnightblue" points="636.877,-86.8268 644.644,-79.6212 634.079,-80.4104 636.877,-86.8268"/>
</g>
<!-- Node23 -->
<g id="node51" class="node"><title>Node23</title>
<polygon fill="white" stroke="#bfbfbf" points="-0.5,-58.5 -0.5,-79.5 86.5,-79.5 86.5,-58.5 -0.5,-58.5"/>
<text text-anchor="middle" x="43" y="-66.5" font-family="Helvetica,sans-Serif" font-size="10.00">KeywordMap.h</text>
</g>
<!-- Node16&#45;&gt;Node23 -->
<g id="edge56" class="edge"><title>Node16&#45;&gt;Node23</title>
<path fill="none" stroke="midnightblue" d="M470.654,-117.106C467.731,-116.72 464.836,-116.35 462,-116 302.674,-96.3562 258.764,-104.639 96.9494,-80.1752"/>
<polygon fill="midnightblue" stroke="midnightblue" points="97.0429,-76.6488 86.6284,-78.595 95.9834,-83.5682 97.0429,-76.6488"/>
</g>
<!-- Node24 -->
<g id="node53" class="node"><title>Node24</title>
<a xlink:href="CmdResourceHandlers_8h.htm" target="_top" xlink:title="CmdResourceHandlers.h">
<polygon fill="white" stroke="black" points="104,-58.5 104,-79.5 238,-79.5 238,-58.5 104,-58.5"/>
<text text-anchor="middle" x="171" y="-66.5" font-family="Helvetica,sans-Serif" font-size="10.00">CmdResourceHandlers.h</text>
</a>
</g>
<!-- Node16&#45;&gt;Node24 -->
<g id="edge58" class="edge"><title>Node16&#45;&gt;Node24</title>
<path fill="none" stroke="midnightblue" d="M470.745,-116.631C408.04,-106.667 313.31,-91.6137 247.179,-81.1052"/>
<polygon fill="midnightblue" stroke="midnightblue" points="247.655,-77.6369 237.229,-79.5241 246.556,-84.5502 247.655,-77.6369"/>
</g>
<!-- Node28 -->
<g id="node64" class="node"><title>Node28</title>
<polygon fill="white" stroke="#bfbfbf" points="332,-58.5 332,-79.5 486,-79.5 486,-58.5 332,-58.5"/>
<text text-anchor="middle" x="409" y="-66.5" font-family="Helvetica,sans-Serif" font-size="10.00">ApplicationDescriptionBase.h</text>
</g>
<!-- Node16&#45;&gt;Node28 -->
<g id="edge72" class="edge"><title>Node16&#45;&gt;Node28</title>
<path fill="none" stroke="midnightblue" d="M513.001,-116.497C492.987,-107.356 463.759,-94.0082 441.381,-83.7883"/>
<polygon fill="midnightblue" stroke="midnightblue" points="442.807,-80.5918 432.257,-79.6212 439.899,-86.9592 442.807,-80.5918"/>
</g>
<!-- Node20&#45;&gt;Node8 -->
<g id="edge46" class="edge"><title>Node20&#45;&gt;Node8</title>
<path fill="none" stroke="midnightblue" d="M682.573,-58.3619C693.421,-49.859 708.834,-37.7785 721.379,-27.9466"/>
<polygon fill="midnightblue" stroke="midnightblue" points="723.802,-30.4942 729.513,-21.5707 719.484,-24.9848 723.802,-30.4942"/>
</g>
<!-- Node20&#45;&gt;Node9 -->
<g id="edge48" class="edge"><title>Node20&#45;&gt;Node9</title>
<path fill="none" stroke="midnightblue" d="M655.427,-58.3619C644.579,-49.859 629.166,-37.7785 616.621,-27.9466"/>
<polygon fill="midnightblue" stroke="midnightblue" points="618.516,-24.9848 608.487,-21.5707 614.198,-30.4942 618.516,-24.9848"/>
</g>
<!-- Node20&#45;&gt;Node19 -->
<g id="edge50" class="edge"><title>Node20&#45;&gt;Node19</title>
<path fill="none" stroke="midnightblue" d="M627.435,-58.6976C578.713,-46.6211 499.565,-27.0032 459.663,-17.1131"/>
<polygon fill="midnightblue" stroke="midnightblue" points="460.28,-13.6601 449.732,-14.6514 458.596,-20.4545 460.28,-13.6601"/>
</g>
<!-- Node21 -->
<g id="node47" class="node"><title>Node21</title>
<polygon fill="white" stroke="#bfbfbf" points="633.5,-0.5 633.5,-21.5 692.5,-21.5 692.5,-0.5 633.5,-0.5"/>
<text text-anchor="middle" x="663" y="-8.5" font-family="Helvetica,sans-Serif" font-size="10.00">QPixmap</text>
</g>
<!-- Node20&#45;&gt;Node21 -->
<g id="edge52" class="edge"><title>Node20&#45;&gt;Node21</title>
<path fill="none" stroke="midnightblue" d="M667.9,-58.3619C667.13,-50.9219 666.077,-40.7427 665.144,-31.7276"/>
<polygon fill="midnightblue" stroke="midnightblue" points="668.604,-31.1574 664.094,-21.5707 661.641,-31.8777 668.604,-31.1574"/>
</g>
<!-- Node22 -->
<g id="node49" class="node"><title>Node22</title>
<polygon fill="white" stroke="#bfbfbf" points="889.5,-0.5 889.5,-21.5 930.5,-21.5 930.5,-0.5 889.5,-0.5"/>
<text text-anchor="middle" x="910" y="-8.5" font-family="Helvetica,sans-Serif" font-size="10.00">glib.h</text>
</g>
<!-- Node20&#45;&gt;Node22 -->
<g id="edge54" class="edge"><title>Node20&#45;&gt;Node22</title>
<path fill="none" stroke="midnightblue" d="M710.89,-61.5655C751.883,-53.8809 816.182,-40.7403 879.478,-22.1945"/>
<polygon fill="midnightblue" stroke="midnightblue" points="880.629,-25.5037 889.214,-19.2957 878.631,-18.7947 880.629,-25.5037"/>
</g>
<!-- Node24&#45;&gt;Node8 -->
<g id="edge60" class="edge"><title>Node24&#45;&gt;Node8</title>
<path fill="none" stroke="midnightblue" d="M238.105,-63.683C363.535,-53.6568 626.758,-32.1731 698.956,-21.9726"/>
<polygon fill="midnightblue" stroke="midnightblue" points="699.84,-25.3771 709.181,-20.3778 698.761,-18.4607 699.84,-25.3771"/>
</g>
<!-- Node24&#45;&gt;Node9 -->
<g id="edge66" class="edge"><title>Node24&#45;&gt;Node9</title>
<path fill="none" stroke="midnightblue" d="M238.184,-59.8097C330.834,-47.1359 494.17,-24.7928 562.996,-15.378"/>
<polygon fill="midnightblue" stroke="midnightblue" points="563.772,-18.8045 573.205,-13.9814 562.823,-11.8691 563.772,-18.8045"/>
</g>
<!-- Node24&#45;&gt;Node17 -->
<g id="edge64" class="edge"><title>Node24&#45;&gt;Node17</title>
<path fill="none" stroke="midnightblue" d="M191.463,-58.4966C209.033,-49.4786 234.582,-36.3649 254.385,-26.2006"/>
<polygon fill="midnightblue" stroke="midnightblue" points="256.009,-29.3014 263.307,-21.6212 252.812,-23.0738 256.009,-29.3014"/>
</g>
<!-- Node25 -->
<g id="node56" class="node"><title>Node25</title>
<polygon fill="white" stroke="#bfbfbf" points="189,-0.5 189,-21.5 241,-21.5 241,-0.5 189,-0.5"/>
<text text-anchor="middle" x="215" y="-8.5" font-family="Helvetica,sans-Serif" font-size="10.00">regex.h</text>
</g>
<!-- Node24&#45;&gt;Node25 -->
<g id="edge62" class="edge"><title>Node24&#45;&gt;Node25</title>
<path fill="none" stroke="midnightblue" d="M179.07,-58.3619C185.149,-50.3496 193.637,-39.1605 200.837,-29.6696"/>
<polygon fill="midnightblue" stroke="midnightblue" points="203.725,-31.653 206.981,-21.5707 198.149,-27.4222 203.725,-31.653"/>
</g>
<!-- Node26 -->
<g id="node60" class="node"><title>Node26</title>
<polygon fill="white" stroke="#bfbfbf" points="71,-0.5 71,-21.5 117,-21.5 117,-0.5 71,-0.5"/>
<text text-anchor="middle" x="94" y="-8.5" font-family="Helvetica,sans-Serif" font-size="10.00">vector</text>
</g>
<!-- Node24&#45;&gt;Node26 -->
<g id="edge68" class="edge"><title>Node24&#45;&gt;Node26</title>
<path fill="none" stroke="midnightblue" d="M156.877,-58.3619C145.48,-49.7773 129.242,-37.5459 116.122,-27.6636"/>
<polygon fill="midnightblue" stroke="midnightblue" points="118.127,-24.7916 108.033,-21.5707 113.915,-30.3829 118.127,-24.7916"/>
</g>
<!-- Node27 -->
<g id="node62" class="node"><title>Node27</title>
<polygon fill="white" stroke="#bfbfbf" points="134.5,-0.5 134.5,-21.5 171.5,-21.5 171.5,-0.5 134.5,-0.5"/>
<text text-anchor="middle" x="153" y="-8.5" font-family="Helvetica,sans-Serif" font-size="10.00">map</text>
</g>
<!-- Node24&#45;&gt;Node27 -->
<g id="edge70" class="edge"><title>Node24&#45;&gt;Node27</title>
<path fill="none" stroke="midnightblue" d="M167.699,-58.3619C165.339,-50.7584 162.091,-40.294 159.249,-31.1349"/>
<polygon fill="midnightblue" stroke="midnightblue" points="162.587,-30.0839 156.281,-21.5707 155.902,-32.1587 162.587,-30.0839"/>
</g>
<!-- Node30&#45;&gt;Node8 -->
<g id="edge78" class="edge"><title>Node30&#45;&gt;Node8</title>
<path fill="none" stroke="midnightblue" d="M833.899,-58.4966C816.718,-49.5194 791.77,-36.4835 772.355,-26.3387"/>
<polygon fill="midnightblue" stroke="midnightblue" points="773.811,-23.1503 763.327,-21.6212 770.569,-29.3544 773.811,-23.1503"/>
</g>
<!-- Node30&#45;&gt;Node22 -->
<g id="edge80" class="edge"><title>Node30&#45;&gt;Node22</title>
<path fill="none" stroke="midnightblue" d="M864.271,-58.3619C872.244,-50.1043 883.475,-38.4725 892.811,-28.8029"/>
<polygon fill="midnightblue" stroke="midnightblue" points="895.366,-31.1958 899.794,-21.5707 890.33,-26.3336 895.366,-31.1958"/>
</g>
<!-- Node31 -->
<g id="node72" class="node"><title>Node31</title>
<polygon fill="white" stroke="#bfbfbf" points="794,-0.5 794,-21.5 872,-21.5 872,-0.5 794,-0.5"/>
<text text-anchor="middle" x="833" y="-8.5" font-family="Helvetica,sans-Serif" font-size="10.00">lunaservice.h</text>
</g>
<!-- Node30&#45;&gt;Node31 -->
<g id="edge82" class="edge"><title>Node30&#45;&gt;Node31</title>
<path fill="none" stroke="midnightblue" d="M850.148,-58.3619C847.395,-50.7584 843.606,-40.294 840.29,-31.1349"/>
<polygon fill="midnightblue" stroke="midnightblue" points="843.523,-29.7818 836.827,-21.5707 836.941,-32.1649 843.523,-29.7818"/>
</g>
<!-- Node32&#45;&gt;Node8 -->
<g id="edge86" class="edge"><title>Node32&#45;&gt;Node8</title>
<path fill="none" stroke="midnightblue" d="M1225.36,-62.9575C1210.38,-61.2913 1194.05,-59.524 1179,-58 1007.3,-40.6186 959.943,-51.9404 786.778,-22.1066"/>
<polygon fill="midnightblue" stroke="midnightblue" points="787.273,-18.6401 776.82,-20.3699 786.07,-25.5361 787.273,-18.6401"/>
</g>
<!-- Node33 -->
<g id="node77" class="node"><title>Node33</title>
<polygon fill="white" stroke="#bfbfbf" points="1235.5,-0.5 1235.5,-21.5 1340.5,-21.5 1340.5,-0.5 1235.5,-0.5"/>
<text text-anchor="middle" x="1288" y="-8.5" font-family="Helvetica,sans-Serif" font-size="10.00">QVariantAnimation</text>
</g>
<!-- Node32&#45;&gt;Node33 -->
<g id="edge88" class="edge"><title>Node32&#45;&gt;Node33</title>
<path fill="none" stroke="midnightblue" d="M1279.83,-58.3619C1281.13,-50.8401 1282.91,-40.5187 1284.48,-31.4308"/>
<polygon fill="midnightblue" stroke="midnightblue" points="1287.93,-32.02 1286.18,-21.5707 1281.03,-30.8306 1287.93,-32.02"/>
</g>
<!-- Node34&#45;&gt;Node8 -->
<g id="edge92" class="edge"><title>Node34&#45;&gt;Node8</title>
<path fill="none" stroke="midnightblue" d="M921.561,-60.3168C885.697,-50.4117 826.825,-34.1517 786.556,-23.0297"/>
<polygon fill="midnightblue" stroke="midnightblue" points="787.315,-19.6083 776.744,-20.3197 785.451,-26.3557 787.315,-19.6083"/>
</g>
<!-- Node34&#45;&gt;Node9 -->
<g id="edge98" class="edge"><title>Node34&#45;&gt;Node9</title>
<path fill="none" stroke="midnightblue" d="M921.659,-59.9222C918.745,-59.217 915.826,-58.5621 913,-58 789.695,-33.4717 752.255,-51.4347 626.767,-22.0314"/>
<polygon fill="midnightblue" stroke="midnightblue" points="627.318,-18.5642 616.777,-19.6353 625.685,-25.3712 627.318,-18.5642"/>
</g>
<!-- Node34&#45;&gt;Node17 -->
<g id="edge96" class="edge"><title>Node34&#45;&gt;Node17</title>
<path fill="none" stroke="midnightblue" d="M921.689,-59.763C918.768,-59.0913 915.839,-58.4875 913,-58 692.979,-20.2207 634.549,-39.5576 412,-22 380.537,-19.5178 344.748,-16.4188 319.028,-14.1433"/>
<polygon fill="midnightblue" stroke="midnightblue" points="319.279,-10.6519 309.009,-13.2534 318.66,-17.6244 319.279,-10.6519"/>
</g>
<!-- Node34&#45;&gt;Node22 -->
<g id="edge100" class="edge"><title>Node34&#45;&gt;Node22</title>
<path fill="none" stroke="midnightblue" d="M945.113,-58.3619C939.173,-50.3496 930.878,-39.1605 923.841,-29.6696"/>
<polygon fill="midnightblue" stroke="midnightblue" points="926.604,-27.5193 917.837,-21.5707 920.981,-31.6883 926.604,-27.5193"/>
</g>
<!-- Node35 -->
<g id="node82" class="node"><title>Node35</title>
<polygon fill="white" stroke="#bfbfbf" points="948,-0.5 948,-21.5 1040,-21.5 1040,-0.5 948,-0.5"/>
<text text-anchor="middle" x="994" y="-8.5" font-family="Helvetica,sans-Serif" font-size="10.00">WindowTypes.h</text>
</g>
<!-- Node34&#45;&gt;Node35 -->
<g id="edge94" class="edge"><title>Node34&#45;&gt;Node35</title>
<path fill="none" stroke="midnightblue" d="M960.52,-58.3619C966.126,-50.4313 973.932,-39.3885 980.597,-29.9606"/>
<polygon fill="midnightblue" stroke="midnightblue" points="983.613,-31.7568 986.528,-21.5707 977.897,-27.7161 983.613,-31.7568"/>
</g>
<!-- Node36 -->
<g id="node87" class="node"><title>Node36</title>
<polygon fill="white" stroke="#bfbfbf" points="1120,-0.5 1120,-21.5 1218,-21.5 1218,-0.5 1120,-0.5"/>
<text text-anchor="middle" x="1169" y="-8.5" font-family="Helvetica,sans-Serif" font-size="10.00">QGraphicsObject</text>
</g>
<!-- Node34&#45;&gt;Node36 -->
<g id="edge102" class="edge"><title>Node34&#45;&gt;Node36</title>
<path fill="none" stroke="midnightblue" d="M984.003,-60.4499C987.042,-59.619 990.08,-58.7913 993,-58 1035.51,-46.4797 1083.85,-33.5856 1119.1,-24.2211"/>
<polygon fill="midnightblue" stroke="midnightblue" points="1120.37,-27.505 1129.13,-21.5558 1118.57,-20.7394 1120.37,-27.505"/>
</g>
<!-- Node37 -->
<g id="node89" class="node"><title>Node37</title>
<polygon fill="white" stroke="#bfbfbf" points="1057.5,-0.5 1057.5,-21.5 1102.5,-21.5 1102.5,-0.5 1057.5,-0.5"/>
<text text-anchor="middle" x="1080" y="-8.5" font-family="Helvetica,sans-Serif" font-size="10.00">QSize</text>
</g>
<!-- Node34&#45;&gt;Node37 -->
<g id="edge104" class="edge"><title>Node34&#45;&gt;Node37</title>
<path fill="none" stroke="midnightblue" d="M975.999,-58.4966C996.138,-49.299 1025.61,-35.8411 1048.04,-25.597"/>
<polygon fill="midnightblue" stroke="midnightblue" points="1049.53,-28.7632 1057.17,-21.4252 1046.62,-22.3958 1049.53,-28.7632"/>
</g>
<!-- Node39&#45;&gt;Node32 -->
<g id="edge116" class="edge"><title>Node39&#45;&gt;Node32</title>
<path fill="none" stroke="midnightblue" d="M988.548,-118.791C993.069,-117.815 997.638,-116.86 1002,-116 1022.52,-111.952 1140.26,-92.0938 1215.18,-79.5201"/>
<polygon fill="midnightblue" stroke="midnightblue" points="1216.17,-82.9031 1225.45,-77.7967 1215.01,-75.9996 1216.17,-82.9031"/>
</g>
<!-- Node39&#45;&gt;Node34 -->
<g id="edge110" class="edge"><title>Node39&#45;&gt;Node34</title>
<path fill="none" stroke="midnightblue" d="M953,-116.362C953,-108.922 953,-98.7427 953,-89.7276"/>
<polygon fill="midnightblue" stroke="midnightblue" points="956.5,-89.5706 953,-79.5707 949.5,-89.5707 956.5,-89.5706"/>
</g>
<!-- Node39&#45;&gt;Node36 -->
<g id="edge114" class="edge"><title>Node39&#45;&gt;Node36</title>
<path fill="none" stroke="midnightblue" d="M988.576,-118.925C993.091,-117.926 997.652,-116.93 1002,-116 1080.5,-99.2072 1128.21,-142.165 1179,-80 1190.08,-66.4439 1185.45,-46.1827 1179.32,-31.1188"/>
<polygon fill="midnightblue" stroke="midnightblue" points="1182.35,-29.3166 1175.02,-21.6667 1175.98,-32.218 1182.35,-29.3166"/>
</g>
<!-- Node39&#45;&gt;Node38 -->
<g id="edge118" class="edge"><title>Node39&#45;&gt;Node38</title>
<path fill="none" stroke="midnightblue" d="M970.424,-116.362C984.887,-107.532 1005.67,-94.844 1022.08,-84.8224"/>
<polygon fill="midnightblue" stroke="midnightblue" points="1023.97,-87.7688 1030.69,-79.5707 1020.33,-81.7943 1023.97,-87.7688"/>
</g>
<!-- Node40 -->
<g id="node96" class="node"><title>Node40</title>
<polygon fill="white" stroke="#bfbfbf" points="1111.5,-58.5 1111.5,-79.5 1170.5,-79.5 1170.5,-58.5 1111.5,-58.5"/>
<text text-anchor="middle" x="1141" y="-66.5" font-family="Helvetica,sans-Serif" font-size="10.00">QPointer</text>
</g>
<!-- Node39&#45;&gt;Node40 -->
<g id="edge112" class="edge"><title>Node39&#45;&gt;Node40</title>
<path fill="none" stroke="midnightblue" d="M987.045,-116.497C1019.31,-106.543 1067.74,-91.6006 1101.65,-81.1409"/>
<polygon fill="midnightblue" stroke="midnightblue" points="1102.71,-84.476 1111.23,-78.1835 1100.65,-77.7871 1102.71,-84.476"/>
</g>
</g>
</svg>
