<?xml version="1.0" encoding="UTF-8" standalone="no"?>
<!DOCTYPE svg PUBLIC "-//W3C//DTD SVG 1.1//EN"
 "http://www.w3.org/Graphics/SVG/1.1/DTD/svg11.dtd">
<!-- Generated by graphviz version 2.26.3 (20100126.1600)
 -->
<!-- Title: AppDirectRenderingArbitrator.h Pages: 1 -->
<svg width="552pt" height="88pt"
 viewBox="0.00 0.00 552.00 88.00" xmlns="http://www.w3.org/2000/svg" xmlns:xlink="http://www.w3.org/1999/xlink">
<g id="graph1" class="graph" transform="scale(1 1) rotate(0) translate(4 84)">
<title>AppDirectRenderingArbitrator.h</title>
<polygon fill="white" stroke="white" points="-4,5 -4,-84 549,-84 549,5 -4,5"/>
<!-- Node1 -->
<g id="node1" class="node"><title>Node1</title>
<polygon fill="#bfbfbf" stroke="black" points="225,-58.5 225,-79.5 389,-79.5 389,-58.5 225,-58.5"/>
<text text-anchor="middle" x="307" y="-66.5" font-family="Helvetica,sans-Serif" font-size="10.00">AppDirectRenderingArbitrator.h</text>
</g>
<!-- Node2 -->
<g id="node3" class="node"><title>Node2</title>
<a xlink:href="AppDirectRenderingArbitrator_8cpp.htm" target="_top" xlink:title="AppDirectRenderingArbitrator.cpp">
<polygon fill="white" stroke="black" points="0,-0.5 0,-21.5 176,-21.5 176,-0.5 0,-0.5"/>
<text text-anchor="middle" x="88" y="-8.5" font-family="Helvetica,sans-Serif" font-size="10.00">AppDirectRenderingArbitrator.cpp</text>
</a>
</g>
<!-- Node1&#45;&gt;Node2 -->
<g id="edge2" class="edge"><title>Node1&#45;&gt;Node2</title>
<path fill="none" stroke="midnightblue" d="M257.455,-55.8785C218.227,-45.4892 164.156,-31.1692 127.734,-21.5231"/>
<polygon fill="midnightblue" stroke="midnightblue" points="256.778,-59.3198 267.341,-58.4966 258.57,-52.5531 256.778,-59.3198"/>
</g>
<!-- Node3 -->
<g id="node5" class="node"><title>Node3</title>
<a xlink:href="DisplayStates_8cpp.htm" target="_top" xlink:title="DisplayStates.cpp">
<polygon fill="white" stroke="black" points="193.5,-0.5 193.5,-21.5 294.5,-21.5 294.5,-0.5 193.5,-0.5"/>
<text text-anchor="middle" x="244" y="-8.5" font-family="Helvetica,sans-Serif" font-size="10.00">DisplayStates.cpp</text>
</a>
</g>
<!-- Node1&#45;&gt;Node3 -->
<g id="edge4" class="edge"><title>Node1&#45;&gt;Node3</title>
<path fill="none" stroke="midnightblue" d="M287.888,-51.405C277.312,-41.6683 264.52,-29.8914 255.482,-21.5707"/>
<polygon fill="midnightblue" stroke="midnightblue" points="285.717,-54.1637 295.445,-58.3619 290.458,-49.0138 285.717,-54.1637"/>
</g>
<!-- Node4 -->
<g id="node7" class="node"><title>Node4</title>
<a xlink:href="CardHostWindow_8cpp.htm" target="_top" xlink:title="CardHostWindow.cpp">
<polygon fill="white" stroke="black" points="311.5,-0.5 311.5,-21.5 430.5,-21.5 430.5,-0.5 311.5,-0.5"/>
<text text-anchor="middle" x="371" y="-8.5" font-family="Helvetica,sans-Serif" font-size="10.00">CardHostWindow.cpp</text>
</a>
</g>
<!-- Node1&#45;&gt;Node4 -->
<g id="edge6" class="edge"><title>Node1&#45;&gt;Node4</title>
<path fill="none" stroke="midnightblue" d="M326.415,-51.405C337.159,-41.6683 350.154,-29.8914 359.336,-21.5707"/>
<polygon fill="midnightblue" stroke="midnightblue" points="323.798,-49.0532 318.739,-58.3619 328.499,-54.2401 323.798,-49.0532"/>
</g>
<!-- Node5 -->
<g id="node9" class="node"><title>Node5</title>
<a xlink:href="CardWindow_8cpp.htm" target="_top" xlink:title="CardWindow.cpp">
<polygon fill="white" stroke="black" points="447.5,-0.5 447.5,-21.5 544.5,-21.5 544.5,-0.5 447.5,-0.5"/>
<text text-anchor="middle" x="496" y="-8.5" font-family="Helvetica,sans-Serif" font-size="10.00">CardWindow.cpp</text>
</a>
</g>
<!-- Node1&#45;&gt;Node5 -->
<g id="edge8" class="edge"><title>Node1&#45;&gt;Node5</title>
<path fill="none" stroke="midnightblue" d="M350.84,-55.5464C384.602,-45.1857 430.61,-31.0668 461.709,-21.5231"/>
<polygon fill="midnightblue" stroke="midnightblue" points="349.76,-52.2168 341.226,-58.4966 351.813,-58.9088 349.76,-52.2168"/>
</g>
</g>
</svg>
