<?xml version="1.0" encoding="UTF-8" standalone="no"?>
<!DOCTYPE svg PUBLIC "-//W3C//DTD SVG 1.1//EN"
 "http://www.w3.org/Graphics/SVG/1.1/DTD/svg11.dtd">
<!-- Generated by graphviz version 2.26.3 (20100126.1600)
 -->
<!-- Title: ApplicationStatus.h Pages: 1 -->
<svg width="430pt" height="88pt"
 viewBox="0.00 0.00 430.00 88.00" xmlns="http://www.w3.org/2000/svg" xmlns:xlink="http://www.w3.org/1999/xlink">
<g id="graph1" class="graph" transform="scale(1 1) rotate(0) translate(4 84)">
<title>ApplicationStatus.h</title>
<polygon fill="white" stroke="white" points="-4,5 -4,-84 427,-84 427,5 -4,5"/>
<!-- Node1 -->
<g id="node1" class="node"><title>Node1</title>
<polygon fill="#bfbfbf" stroke="black" points="170,-58.5 170,-79.5 276,-79.5 276,-58.5 170,-58.5"/>
<text text-anchor="middle" x="223" y="-66.5" font-family="Helvetica,sans-Serif" font-size="10.00">ApplicationStatus.h</text>
</g>
<!-- Node2 -->
<g id="node3" class="node"><title>Node2</title>
<a xlink:href="ApplicationDescription_8cpp.htm" target="_top" xlink:title="ApplicationDescription.cpp">
<polygon fill="white" stroke="black" points="-0.5,-0.5 -0.5,-21.5 140.5,-21.5 140.5,-0.5 -0.5,-0.5"/>
<text text-anchor="middle" x="70" y="-8.5" font-family="Helvetica,sans-Serif" font-size="10.00">ApplicationDescription.cpp</text>
</a>
</g>
<!-- Node1&#45;&gt;Node2 -->
<g id="edge2" class="edge"><title>Node1&#45;&gt;Node2</title>
<path fill="none" stroke="midnightblue" d="M185.737,-54.8742C158.587,-44.5819 122.395,-30.862 97.7591,-21.5231"/>
<polygon fill="midnightblue" stroke="midnightblue" points="184.702,-58.2246 195.293,-58.4966 187.183,-51.6791 184.702,-58.2246"/>
</g>
<!-- Node3 -->
<g id="node5" class="node"><title>Node3</title>
<a xlink:href="ApplicationManager_8cpp.htm" target="_top" xlink:title="ApplicationManager.cpp">
<polygon fill="white" stroke="black" points="157.5,-0.5 157.5,-21.5 288.5,-21.5 288.5,-0.5 157.5,-0.5"/>
<text text-anchor="middle" x="223" y="-8.5" font-family="Helvetica,sans-Serif" font-size="10.00">ApplicationManager.cpp</text>
</a>
</g>
<!-- Node1&#45;&gt;Node3 -->
<g id="edge4" class="edge"><title>Node1&#45;&gt;Node3</title>
<path fill="none" stroke="midnightblue" d="M223,-48.1906C223,-39.1684 223,-28.9941 223,-21.5707"/>
<polygon fill="midnightblue" stroke="midnightblue" points="219.5,-48.3619 223,-58.3619 226.5,-48.3619 219.5,-48.3619"/>
</g>
<!-- Node4 -->
<g id="node7" class="node"><title>Node4</title>
<a xlink:href="ApplicationStatus_8cpp.htm" target="_top" xlink:title="ApplicationStatus.cpp">
<polygon fill="white" stroke="black" points="305.5,-0.5 305.5,-21.5 422.5,-21.5 422.5,-0.5 305.5,-0.5"/>
<text text-anchor="middle" x="364" y="-8.5" font-family="Helvetica,sans-Serif" font-size="10.00">ApplicationStatus.cpp</text>
</a>
</g>
<!-- Node1&#45;&gt;Node4 -->
<g id="edge6" class="edge"><title>Node1&#45;&gt;Node4</title>
<path fill="none" stroke="midnightblue" d="M257.97,-54.6153C282.83,-44.3889 315.672,-30.8796 338.179,-21.6212"/>
<polygon fill="midnightblue" stroke="midnightblue" points="256.451,-51.4555 248.534,-58.4966 259.114,-57.9292 256.451,-51.4555"/>
</g>
</g>
</svg>
