<?xml version="1.0" encoding="UTF-8" standalone="no"?>
<!DOCTYPE svg PUBLIC "-//W3C//DTD SVG 1.1//EN"
 "http://www.w3.org/Graphics/SVG/1.1/DTD/svg11.dtd">
<!-- Generated by graphviz version 2.26.3 (20100126.1600)
 -->
<!-- Title: ApplicationDescription.cpp Pages: 1 -->
<svg width="1811pt" height="262pt"
 viewBox="0.00 0.00 1811.00 262.00" xmlns="http://www.w3.org/2000/svg" xmlns:xlink="http://www.w3.org/1999/xlink">
<g id="graph1" class="graph" transform="scale(1 1) rotate(0) translate(4 258)">
<title>ApplicationDescription.cpp</title>
<polygon fill="white" stroke="white" points="-4,5 -4,-258 1808,-258 1808,5 -4,5"/>
<!-- Node1 -->
<g id="node1" class="node"><title>Node1</title>
<polygon fill="#bfbfbf" stroke="black" points="629.5,-232.5 629.5,-253.5 770.5,-253.5 770.5,-232.5 629.5,-232.5"/>
<text text-anchor="middle" x="700" y="-240.5" font-family="Helvetica,sans-Serif" font-size="10.00">ApplicationDescription.cpp</text>
</g>
<!-- Node2 -->
<g id="node3" class="node"><title>Node2</title>
<polygon fill="white" stroke="#bfbfbf" points="619.5,-0.5 619.5,-21.5 686.5,-21.5 686.5,-0.5 619.5,-0.5"/>
<text text-anchor="middle" x="653" y="-8.5" font-family="Helvetica,sans-Serif" font-size="10.00">Common.h</text>
</g>
<!-- Node1&#45;&gt;Node2 -->
<g id="edge2" class="edge"><title>Node1&#45;&gt;Node2</title>
<path fill="none" stroke="midnightblue" d="M689.084,-232.298C680.436,-223.299 668.587,-209.737 661,-196 634.772,-148.51 631.551,-133.573 623,-80 621.459,-70.3445 620.26,-67.386 623,-58 625.949,-47.9004 631.801,-37.9047 637.56,-29.7452"/>
<polygon fill="midnightblue" stroke="midnightblue" points="640.405,-31.7858 643.631,-21.694 634.816,-27.5714 640.405,-31.7858"/>
</g>
<!-- Node3 -->
<g id="node5" class="node"><title>Node3</title>
<polygon fill="white" stroke="#bfbfbf" points="57.5,-174.5 57.5,-195.5 104.5,-195.5 104.5,-174.5 57.5,-174.5"/>
<text text-anchor="middle" x="81" y="-182.5" font-family="Helvetica,sans-Serif" font-size="10.00">stdio.h</text>
</g>
<!-- Node1&#45;&gt;Node3 -->
<g id="edge4" class="edge"><title>Node1&#45;&gt;Node3</title>
<path fill="none" stroke="midnightblue" d="M629.335,-239.142C496.487,-231.582 214.22,-213.984 118,-196 116.913,-195.797 115.813,-195.574 114.705,-195.335"/>
<polygon fill="midnightblue" stroke="midnightblue" points="115.255,-191.866 104.706,-192.841 113.561,-198.657 115.255,-191.866"/>
</g>
<!-- Node4 -->
<g id="node7" class="node"><title>Node4</title>
<polygon fill="white" stroke="#bfbfbf" points="-0.5,-0.5 -0.5,-21.5 40.5,-21.5 40.5,-0.5 -0.5,-0.5"/>
<text text-anchor="middle" x="20" y="-8.5" font-family="Helvetica,sans-Serif" font-size="10.00">glib.h</text>
</g>
<!-- Node1&#45;&gt;Node4 -->
<g id="edge6" class="edge"><title>Node1&#45;&gt;Node4</title>
<path fill="none" stroke="midnightblue" d="M629.353,-240.244C465.158,-233.524 70.1099,-215.418 49,-196 3.05026,-153.732 9.72075,-70.7711 15.9218,-31.9567"/>
<polygon fill="midnightblue" stroke="midnightblue" points="19.4169,-32.2881 17.6933,-21.8344 12.5217,-31.0813 19.4169,-32.2881"/>
</g>
<!-- Node5 -->
<g id="node9" class="node"><title>Node5</title>
<polygon fill="white" stroke="#bfbfbf" points="417,-174.5 417,-195.5 489,-195.5 489,-174.5 417,-174.5"/>
<text text-anchor="middle" x="453" y="-182.5" font-family="Helvetica,sans-Serif" font-size="10.00">cjson/json.h</text>
</g>
<!-- Node1&#45;&gt;Node5 -->
<g id="edge8" class="edge"><title>Node1&#45;&gt;Node5</title>
<path fill="none" stroke="midnightblue" d="M655.27,-232.497C611.161,-222.139 544.044,-206.379 499.373,-195.889"/>
<polygon fill="midnightblue" stroke="midnightblue" points="499.9,-192.418 489.365,-193.539 498.3,-199.233 499.9,-192.418"/>
</g>
<!-- Node6 -->
<g id="node11" class="node"><title>Node6</title>
<a xlink:href="ApplicationDescription_8h.htm" target="_top" xlink:title="ApplicationDescription.h">
<polygon fill="white" stroke="black" points="397,-116.5 397,-137.5 527,-137.5 527,-116.5 397,-116.5"/>
<text text-anchor="middle" x="462" y="-124.5" font-family="Helvetica,sans-Serif" font-size="10.00">ApplicationDescription.h</text>
</a>
</g>
<!-- Node1&#45;&gt;Node6 -->
<g id="edge10" class="edge"><title>Node1&#45;&gt;Node6</title>
<path fill="none" stroke="midnightblue" d="M643.224,-232.467C611.797,-225.132 572.782,-213.473 541,-196 516.676,-182.627 493.31,-160.717 478.385,-145.177"/>
<polygon fill="midnightblue" stroke="midnightblue" points="480.781,-142.614 471.389,-137.71 475.672,-147.4 480.781,-142.614"/>
</g>
<!-- Node11 -->
<g id="node22" class="node"><title>Node11</title>
<a xlink:href="LaunchPoint_8h.htm" target="_top" xlink:title="LaunchPoint.h">
<polygon fill="white" stroke="black" points="111.5,-58.5 111.5,-79.5 194.5,-79.5 194.5,-58.5 111.5,-58.5"/>
<text text-anchor="middle" x="153" y="-66.5" font-family="Helvetica,sans-Serif" font-size="10.00">LaunchPoint.h</text>
</a>
</g>
<!-- Node1&#45;&gt;Node11 -->
<g id="edge58" class="edge"><title>Node1&#45;&gt;Node11</title>
<path fill="none" stroke="midnightblue" d="M629.286,-237.645C569.268,-231.684 481.452,-219.596 408,-196 319.419,-167.544 223.326,-112.33 178.595,-85.0503"/>
<polygon fill="midnightblue" stroke="midnightblue" points="180.202,-81.9298 169.85,-79.6727 176.535,-87.8925 180.202,-81.9298"/>
</g>
<!-- Node19 -->
<g id="node45" class="node"><title>Node19</title>
<a xlink:href="ApplicationStatus_8h.htm" target="_top" xlink:title="ApplicationStatus.h">
<polygon fill="white" stroke="black" points="640,-58.5 640,-79.5 746,-79.5 746,-58.5 640,-58.5"/>
<text text-anchor="middle" x="693" y="-66.5" font-family="Helvetica,sans-Serif" font-size="10.00">ApplicationStatus.h</text>
</a>
</g>
<!-- Node1&#45;&gt;Node19 -->
<g id="edge52" class="edge"><title>Node1&#45;&gt;Node19</title>
<path fill="none" stroke="midnightblue" d="M690.323,-232.361C682.869,-223.4 673.158,-209.856 669,-196 657.89,-158.977 672.599,-114.273 683.411,-88.9903"/>
<polygon fill="midnightblue" stroke="midnightblue" points="686.672,-90.2728 687.58,-79.7169 680.287,-87.4025 686.672,-90.2728"/>
</g>
<!-- Node20 -->
<g id="node50" class="node"><title>Node20</title>
<polygon fill="white" stroke="#bfbfbf" points="677.5,-174.5 677.5,-195.5 722.5,-195.5 722.5,-174.5 677.5,-174.5"/>
<text text-anchor="middle" x="700" y="-182.5" font-family="Helvetica,sans-Serif" font-size="10.00">Utils.h</text>
</g>
<!-- Node1&#45;&gt;Node20 -->
<g id="edge60" class="edge"><title>Node1&#45;&gt;Node20</title>
<path fill="none" stroke="midnightblue" d="M700,-232.362C700,-224.922 700,-214.743 700,-205.728"/>
<polygon fill="midnightblue" stroke="midnightblue" points="703.5,-205.571 700,-195.571 696.5,-205.571 703.5,-205.571"/>
</g>
<!-- Node21 -->
<g id="node52" class="node"><title>Node21</title>
<polygon fill="white" stroke="#bfbfbf" points="740,-174.5 740,-195.5 796,-195.5 796,-174.5 740,-174.5"/>
<text text-anchor="middle" x="768" y="-182.5" font-family="Helvetica,sans-Serif" font-size="10.00">QtUtils.h</text>
</g>
<!-- Node1&#45;&gt;Node21 -->
<g id="edge62" class="edge"><title>Node1&#45;&gt;Node21</title>
<path fill="none" stroke="midnightblue" d="M712.472,-232.362C722.345,-223.941 736.333,-212.011 747.798,-202.231"/>
<polygon fill="midnightblue" stroke="midnightblue" points="750.27,-204.723 755.607,-195.571 745.727,-199.397 750.27,-204.723"/>
</g>
<!-- Node22 -->
<g id="node54" class="node"><title>Node22</title>
<polygon fill="white" stroke="#bfbfbf" points="813.5,-174.5 813.5,-195.5 876.5,-195.5 876.5,-174.5 813.5,-174.5"/>
<text text-anchor="middle" x="845" y="-182.5" font-family="Helvetica,sans-Serif" font-size="10.00">Settings.h</text>
</g>
<!-- Node1&#45;&gt;Node22 -->
<g id="edge64" class="edge"><title>Node1&#45;&gt;Node22</title>
<path fill="none" stroke="midnightblue" d="M726.258,-232.497C749.416,-223.234 783.375,-209.65 809.052,-199.379"/>
<polygon fill="midnightblue" stroke="midnightblue" points="810.462,-202.585 818.447,-195.621 807.862,-196.086 810.462,-202.585"/>
</g>
<!-- Node23 -->
<g id="node56" class="node"><title>Node23</title>
<a xlink:href="MimeSystem_8h.htm" target="_top" xlink:title="MimeSystem.h">
<polygon fill="white" stroke="black" points="1011.5,-116.5 1011.5,-137.5 1096.5,-137.5 1096.5,-116.5 1011.5,-116.5"/>
<text text-anchor="middle" x="1054" y="-124.5" font-family="Helvetica,sans-Serif" font-size="10.00">MimeSystem.h</text>
</a>
</g>
<!-- Node1&#45;&gt;Node23 -->
<g id="edge66" class="edge"><title>Node1&#45;&gt;Node23</title>
<path fill="none" stroke="midnightblue" d="M770.566,-240.306C852.792,-235.874 982.345,-224.483 1021,-196 1036.72,-184.416 1045.27,-163.371 1049.7,-147.557"/>
<polygon fill="midnightblue" stroke="midnightblue" points="1053.15,-148.173 1052.14,-137.626 1046.35,-146.499 1053.15,-148.173"/>
</g>
<!-- Node26 -->
<g id="node68" class="node"><title>Node26</title>
<a xlink:href="ApplicationManager_8h.htm" target="_top" xlink:title="ApplicationManager.h">
<polygon fill="white" stroke="black" points="893.5,-174.5 893.5,-195.5 1012.5,-195.5 1012.5,-174.5 893.5,-174.5"/>
<text text-anchor="middle" x="953" y="-182.5" font-family="Helvetica,sans-Serif" font-size="10.00">ApplicationManager.h</text>
</a>
</g>
<!-- Node1&#45;&gt;Node26 -->
<g id="edge84" class="edge"><title>Node1&#45;&gt;Node26</title>
<path fill="none" stroke="midnightblue" d="M745.816,-232.497C788.312,-222.755 851.657,-208.233 897.109,-197.813"/>
<polygon fill="midnightblue" stroke="midnightblue" points="898.133,-201.169 907.098,-195.523 896.568,-194.346 898.133,-201.169"/>
</g>
<!-- Node30 -->
<g id="node84" class="node"><title>Node30</title>
<polygon fill="white" stroke="#bfbfbf" points="1067.5,-174.5 1067.5,-195.5 1152.5,-195.5 1152.5,-174.5 1067.5,-174.5"/>
<text text-anchor="middle" x="1110" y="-182.5" font-family="Helvetica,sans-Serif" font-size="10.00">QMetaMethod</text>
</g>
<!-- Node1&#45;&gt;Node30 -->
<g id="edge108" class="edge"><title>Node1&#45;&gt;Node30</title>
<path fill="none" stroke="midnightblue" d="M770.714,-234.919C842.307,-226.431 956.118,-212.095 1054,-196 1055.08,-195.823 1056.16,-195.641 1057.26,-195.455"/>
<polygon fill="midnightblue" stroke="midnightblue" points="1058.01,-198.876 1067.24,-193.682 1056.79,-191.984 1058.01,-198.876"/>
</g>
<!-- Node31 -->
<g id="node86" class="node"><title>Node31</title>
<polygon fill="white" stroke="#bfbfbf" points="1169.5,-174.5 1169.5,-195.5 1248.5,-195.5 1248.5,-174.5 1169.5,-174.5"/>
<text text-anchor="middle" x="1209" y="-182.5" font-family="Helvetica,sans-Serif" font-size="10.00">QMetaObject</text>
</g>
<!-- Node1&#45;&gt;Node31 -->
<g id="edge110" class="edge"><title>Node1&#45;&gt;Node31</title>
<path fill="none" stroke="midnightblue" d="M770.65,-238.523C859.297,-232.298 1016.11,-219.275 1159,-196.185"/>
<polygon fill="midnightblue" stroke="midnightblue" points="1159.96,-199.574 1169.26,-194.505 1158.83,-192.666 1159.96,-199.574"/>
</g>
<!-- Node32 -->
<g id="node88" class="node"><title>Node32</title>
<a xlink:href="Preferences_8h.htm" target="_top" xlink:title="Preferences.h">
<polygon fill="white" stroke="black" points="1444.5,-174.5 1444.5,-195.5 1527.5,-195.5 1527.5,-174.5 1444.5,-174.5"/>
<text text-anchor="middle" x="1486" y="-182.5" font-family="Helvetica,sans-Serif" font-size="10.00">Preferences.h</text>
</a>
</g>
<!-- Node1&#45;&gt;Node32 -->
<g id="edge112" class="edge"><title>Node1&#45;&gt;Node32</title>
<path fill="none" stroke="midnightblue" d="M770.791,-237.776C926.725,-226.27 1296.84,-198.958 1433.83,-188.849"/>
<polygon fill="midnightblue" stroke="midnightblue" points="1434.34,-192.321 1444.06,-188.095 1433.83,-185.34 1434.34,-192.321"/>
</g>
<!-- Node6&#45;&gt;Node2 -->
<g id="edge12" class="edge"><title>Node6&#45;&gt;Node2</title>
<path fill="none" stroke="midnightblue" d="M468.653,-116.381C478.555,-101.383 498.544,-74.0392 522,-58 548.441,-39.9202 582.625,-27.962 609.443,-20.6335"/>
<polygon fill="midnightblue" stroke="midnightblue" points="610.54,-23.9645 619.33,-18.0484 608.769,-17.1922 610.54,-23.9645"/>
</g>
<!-- Node7 -->
<g id="node14" class="node"><title>Node7</title>
<polygon fill="white" stroke="#bfbfbf" points="838.5,-0.5 838.5,-21.5 881.5,-21.5 881.5,-0.5 838.5,-0.5"/>
<text text-anchor="middle" x="860" y="-8.5" font-family="Helvetica,sans-Serif" font-size="10.00">string</text>
</g>
<!-- Node6&#45;&gt;Node7 -->
<g id="edge14" class="edge"><title>Node6&#45;&gt;Node7</title>
<path fill="none" stroke="midnightblue" d="M527.109,-119.785C600.403,-111.097 714.536,-95.7044 755,-80 763.716,-76.6173 807.851,-46.8183 836.055,-27.5026"/>
<polygon fill="midnightblue" stroke="midnightblue" points="838.323,-30.191 844.587,-21.6464 834.362,-24.4196 838.323,-30.191"/>
</g>
<!-- Node8 -->
<g id="node16" class="node"><title>Node8</title>
<polygon fill="white" stroke="#bfbfbf" points="758,-0.5 758,-21.5 808,-21.5 808,-0.5 758,-0.5"/>
<text text-anchor="middle" x="783" y="-8.5" font-family="Helvetica,sans-Serif" font-size="10.00">stdint.h</text>
</g>
<!-- Node6&#45;&gt;Node8 -->
<g id="edge16" class="edge"><title>Node6&#45;&gt;Node8</title>
<path fill="none" stroke="midnightblue" d="M486.089,-116.383C518.642,-102.217 578.635,-76.7449 631,-58 670.603,-43.8235 716.876,-29.8816 747.87,-20.9117"/>
<polygon fill="midnightblue" stroke="midnightblue" points="749.12,-24.1942 757.764,-18.0672 747.186,-17.4668 749.12,-24.1942"/>
</g>
<!-- Node9 -->
<g id="node18" class="node"><title>Node9</title>
<polygon fill="white" stroke="#bfbfbf" points="801.5,-58.5 801.5,-79.5 832.5,-79.5 832.5,-58.5 801.5,-58.5"/>
<text text-anchor="middle" x="817" y="-66.5" font-family="Helvetica,sans-Serif" font-size="10.00">set</text>
</g>
<!-- Node6&#45;&gt;Node9 -->
<g id="edge18" class="edge"><title>Node6&#45;&gt;Node9</title>
<path fill="none" stroke="midnightblue" d="M527.156,-121.844C593.562,-115.605 699.141,-102.961 788,-80 789.232,-79.6817 790.483,-79.3285 791.74,-78.9495"/>
<polygon fill="midnightblue" stroke="midnightblue" points="792.923,-82.244 801.249,-75.6918 790.654,-75.6219 792.923,-82.244"/>
</g>
<!-- Node10 -->
<g id="node20" class="node"><title>Node10</title>
<polygon fill="white" stroke="#bfbfbf" points="69.5,-0.5 69.5,-21.5 98.5,-21.5 98.5,-0.5 69.5,-0.5"/>
<text text-anchor="middle" x="84" y="-8.5" font-family="Helvetica,sans-Serif" font-size="10.00">list</text>
</g>
<!-- Node6&#45;&gt;Node10 -->
<g id="edge20" class="edge"><title>Node6&#45;&gt;Node10</title>
<path fill="none" stroke="midnightblue" d="M396.764,-122.35C299.298,-114.827 124.723,-98.9045 103,-80 89.4241,-68.1855 85.1282,-47.6516 83.9571,-32.0472"/>
<polygon fill="midnightblue" stroke="midnightblue" points="87.4433,-31.612 83.5686,-21.7511 80.4483,-31.876 87.4433,-31.612"/>
</g>
<!-- Node6&#45;&gt;Node11 -->
<g id="edge22" class="edge"><title>Node6&#45;&gt;Node11</title>
<path fill="none" stroke="midnightblue" d="M400.389,-116.481C350.197,-107.761 277.236,-94.743 204.916,-80.3401"/>
<polygon fill="midnightblue" stroke="midnightblue" points="205.21,-76.8297 194.718,-78.2989 203.836,-83.6936 205.21,-76.8297"/>
</g>
<!-- Node13 -->
<g id="node30" class="node"><title>Node13</title>
<polygon fill="white" stroke="#bfbfbf" points="211.5,-58.5 211.5,-79.5 298.5,-79.5 298.5,-58.5 211.5,-58.5"/>
<text text-anchor="middle" x="255" y="-66.5" font-family="Helvetica,sans-Serif" font-size="10.00">KeywordMap.h</text>
</g>
<!-- Node6&#45;&gt;Node13 -->
<g id="edge34" class="edge"><title>Node6&#45;&gt;Node13</title>
<path fill="none" stroke="midnightblue" d="M424.514,-116.497C390.329,-106.918 339.654,-92.7196 302.616,-82.3418"/>
<polygon fill="midnightblue" stroke="midnightblue" points="303.13,-78.8509 292.556,-79.5231 301.241,-85.5914 303.13,-78.8509"/>
</g>
<!-- Node14 -->
<g id="node32" class="node"><title>Node14</title>
<a xlink:href="CmdResourceHandlers_8h.htm" target="_top" xlink:title="CmdResourceHandlers.h">
<polygon fill="white" stroke="black" points="1002,-58.5 1002,-79.5 1136,-79.5 1136,-58.5 1002,-58.5"/>
<text text-anchor="middle" x="1069" y="-66.5" font-family="Helvetica,sans-Serif" font-size="10.00">CmdResourceHandlers.h</text>
</a>
</g>
<!-- Node6&#45;&gt;Node14 -->
<g id="edge36" class="edge"><title>Node6&#45;&gt;Node14</title>
<path fill="none" stroke="midnightblue" d="M527.248,-120.765C640.01,-109.991 870.835,-87.935 991.547,-76.4008"/>
<polygon fill="midnightblue" stroke="midnightblue" points="992.193,-79.855 1001.82,-75.4196 991.528,-72.8868 992.193,-79.855"/>
</g>
<!-- Node18 -->
<g id="node43" class="node"><title>Node18</title>
<polygon fill="white" stroke="#bfbfbf" points="316,-58.5 316,-79.5 470,-79.5 470,-58.5 316,-58.5"/>
<text text-anchor="middle" x="393" y="-66.5" font-family="Helvetica,sans-Serif" font-size="10.00">ApplicationDescriptionBase.h</text>
</g>
<!-- Node6&#45;&gt;Node18 -->
<g id="edge50" class="edge"><title>Node6&#45;&gt;Node18</title>
<path fill="none" stroke="midnightblue" d="M449.344,-116.362C439.326,-107.941 425.133,-96.0105 413.499,-86.2308"/>
<polygon fill="midnightblue" stroke="midnightblue" points="415.482,-83.326 405.575,-79.5707 410.978,-88.6844 415.482,-83.326"/>
</g>
<!-- Node11&#45;&gt;Node2 -->
<g id="edge24" class="edge"><title>Node11&#45;&gt;Node2</title>
<path fill="none" stroke="midnightblue" d="M194.675,-59.4641C197.486,-58.9344 200.28,-58.4398 203,-58 350.865,-34.0908 528.126,-19.7228 608.949,-13.9479"/>
<polygon fill="midnightblue" stroke="midnightblue" points="609.512,-17.417 619.241,-13.2219 609.019,-10.4343 609.512,-17.417"/>
</g>
<!-- Node11&#45;&gt;Node4 -->
<g id="edge32" class="edge"><title>Node11&#45;&gt;Node4</title>
<path fill="none" stroke="midnightblue" d="M128.915,-58.4966C106.808,-48.8563 73.9696,-34.5356 50.1333,-24.1408"/>
<polygon fill="midnightblue" stroke="midnightblue" points="51.4106,-20.8796 40.8452,-20.0904 48.6124,-27.296 51.4106,-20.8796"/>
</g>
<!-- Node11&#45;&gt;Node7 -->
<g id="edge26" class="edge"><title>Node11&#45;&gt;Node7</title>
<path fill="none" stroke="midnightblue" d="M194.653,-59.3204C197.469,-58.8254 200.271,-58.3778 203,-58 473.775,-20.5161 546.899,-64.067 817,-22 820.721,-21.4204 824.589,-20.6612 828.412,-19.8121"/>
<polygon fill="midnightblue" stroke="midnightblue" points="829.4,-23.174 838.293,-17.4159 827.75,-16.3711 829.4,-23.174"/>
</g>
<!-- Node11&#45;&gt;Node10 -->
<g id="edge28" class="edge"><title>Node11&#45;&gt;Node10</title>
<path fill="none" stroke="midnightblue" d="M140.344,-58.3619C130.326,-49.9408 116.133,-38.0105 104.499,-28.2308"/>
<polygon fill="midnightblue" stroke="midnightblue" points="106.482,-25.326 96.5754,-21.5707 101.978,-30.6844 106.482,-25.326"/>
</g>
<!-- Node12 -->
<g id="node27" class="node"><title>Node12</title>
<polygon fill="white" stroke="#bfbfbf" points="123.5,-0.5 123.5,-21.5 182.5,-21.5 182.5,-0.5 123.5,-0.5"/>
<text text-anchor="middle" x="153" y="-8.5" font-family="Helvetica,sans-Serif" font-size="10.00">QPixmap</text>
</g>
<!-- Node11&#45;&gt;Node12 -->
<g id="edge30" class="edge"><title>Node11&#45;&gt;Node12</title>
<path fill="none" stroke="midnightblue" d="M153,-58.3619C153,-50.9219 153,-40.7427 153,-31.7276"/>
<polygon fill="midnightblue" stroke="midnightblue" points="156.5,-31.5706 153,-21.5707 149.5,-31.5707 156.5,-31.5706"/>
</g>
<!-- Node14&#45;&gt;Node2 -->
<g id="edge38" class="edge"><title>Node14&#45;&gt;Node2</title>
<path fill="none" stroke="midnightblue" d="M1001.7,-59.6168C915.783,-47.638 769.572,-27.2528 696.816,-17.1089"/>
<polygon fill="midnightblue" stroke="midnightblue" points="697.018,-13.6033 686.63,-15.6888 696.051,-20.5363 697.018,-13.6033"/>
</g>
<!-- Node14&#45;&gt;Node7 -->
<g id="edge44" class="edge"><title>Node14&#45;&gt;Node7</title>
<path fill="none" stroke="midnightblue" d="M1031.15,-58.4966C991.153,-47.3965 928.794,-30.0912 891.417,-19.7186"/>
<polygon fill="midnightblue" stroke="midnightblue" points="892.148,-16.2893 881.576,-16.9877 890.276,-23.0344 892.148,-16.2893"/>
</g>
<!-- Node14&#45;&gt;Node8 -->
<g id="edge42" class="edge"><title>Node14&#45;&gt;Node8</title>
<path fill="none" stroke="midnightblue" d="M1012.38,-58.4567C963.883,-49.2835 892.218,-35.394 830,-22 826.147,-21.1705 822.123,-20.2746 818.122,-19.3645"/>
<polygon fill="midnightblue" stroke="midnightblue" points="818.862,-15.9433 808.33,-17.1033 817.286,-22.7638 818.862,-15.9433"/>
</g>
<!-- Node15 -->
<g id="node35" class="node"><title>Node15</title>
<polygon fill="white" stroke="#bfbfbf" points="1043,-0.5 1043,-21.5 1095,-21.5 1095,-0.5 1043,-0.5"/>
<text text-anchor="middle" x="1069" y="-8.5" font-family="Helvetica,sans-Serif" font-size="10.00">regex.h</text>
</g>
<!-- Node14&#45;&gt;Node15 -->
<g id="edge40" class="edge"><title>Node14&#45;&gt;Node15</title>
<path fill="none" stroke="midnightblue" d="M1069,-58.3619C1069,-50.9219 1069,-40.7427 1069,-31.7276"/>
<polygon fill="midnightblue" stroke="midnightblue" points="1072.5,-31.5706 1069,-21.5707 1065.5,-31.5707 1072.5,-31.5706"/>
</g>
<!-- Node16 -->
<g id="node39" class="node"><title>Node16</title>
<polygon fill="white" stroke="#bfbfbf" points="1208,-0.5 1208,-21.5 1254,-21.5 1254,-0.5 1208,-0.5"/>
<text text-anchor="middle" x="1231" y="-8.5" font-family="Helvetica,sans-Serif" font-size="10.00">vector</text>
</g>
<!-- Node14&#45;&gt;Node16 -->
<g id="edge46" class="edge"><title>Node14&#45;&gt;Node16</title>
<path fill="none" stroke="midnightblue" d="M1098.34,-58.4966C1126.39,-48.4513 1168.65,-33.3241 1197.9,-22.8522"/>
<polygon fill="midnightblue" stroke="midnightblue" points="1199.42,-26.0242 1207.65,-19.3582 1197.06,-19.4338 1199.42,-26.0242"/>
</g>
<!-- Node17 -->
<g id="node41" class="node"><title>Node17</title>
<polygon fill="white" stroke="#bfbfbf" points="1271.5,-0.5 1271.5,-21.5 1308.5,-21.5 1308.5,-0.5 1271.5,-0.5"/>
<text text-anchor="middle" x="1290" y="-8.5" font-family="Helvetica,sans-Serif" font-size="10.00">map</text>
</g>
<!-- Node14&#45;&gt;Node17 -->
<g id="edge48" class="edge"><title>Node14&#45;&gt;Node17</title>
<path fill="none" stroke="midnightblue" d="M1121.88,-58.4231C1158.91,-50.5088 1209.64,-38.662 1261.55,-22.1869"/>
<polygon fill="midnightblue" stroke="midnightblue" points="1262.81,-25.4578 1271.25,-19.0566 1260.66,-18.7959 1262.81,-25.4578"/>
</g>
<!-- Node19&#45;&gt;Node2 -->
<g id="edge54" class="edge"><title>Node19&#45;&gt;Node2</title>
<path fill="none" stroke="midnightblue" d="M685.663,-58.3619C680.194,-50.4313 672.578,-39.3885 666.076,-29.9606"/>
<polygon fill="midnightblue" stroke="midnightblue" points="668.849,-27.8157 660.29,-21.5707 663.086,-31.7899 668.849,-27.8157"/>
</g>
<!-- Node19&#45;&gt;Node7 -->
<g id="edge56" class="edge"><title>Node19&#45;&gt;Node7</title>
<path fill="none" stroke="midnightblue" d="M723.242,-58.4966C753.137,-48.1141 798.662,-32.303 828.864,-21.8139"/>
<polygon fill="midnightblue" stroke="midnightblue" points="830.175,-25.0634 838.474,-18.4762 827.879,-18.4508 830.175,-25.0634"/>
</g>
<!-- Node23&#45;&gt;Node2 -->
<g id="edge68" class="edge"><title>Node23&#45;&gt;Node2</title>
<path fill="none" stroke="midnightblue" d="M1028.87,-116.485C1007.6,-107.384 976.435,-93.5824 950,-80 932.642,-71.0815 930.318,-64.7312 912,-58 873.195,-43.7404 759.872,-26.1605 696.745,-17.0761"/>
<polygon fill="midnightblue" stroke="midnightblue" points="697.084,-13.5892 686.69,-15.6399 696.095,-20.5189 697.084,-13.5892"/>
</g>
<!-- Node23&#45;&gt;Node7 -->
<g id="edge70" class="edge"><title>Node23&#45;&gt;Node7</title>
<path fill="none" stroke="midnightblue" d="M1039.16,-116.44C1019.26,-102.447 982.649,-77.2845 950,-58 930.791,-46.654 908.578,-35.039 891.026,-26.1942"/>
<polygon fill="midnightblue" stroke="midnightblue" points="892.313,-22.9246 881.803,-21.5846 889.183,-29.1861 892.313,-22.9246"/>
</g>
<!-- Node23&#45;&gt;Node9 -->
<g id="edge76" class="edge"><title>Node23&#45;&gt;Node9</title>
<path fill="none" stroke="midnightblue" d="M1011.36,-116.564C962.176,-104.528 882.925,-85.1336 842.498,-75.2401"/>
<polygon fill="midnightblue" stroke="midnightblue" points="843.185,-71.805 832.64,-72.8274 841.521,-78.6043 843.185,-71.805"/>
</g>
<!-- Node23&#45;&gt;Node14 -->
<g id="edge82" class="edge"><title>Node23&#45;&gt;Node14</title>
<path fill="none" stroke="midnightblue" d="M1056.75,-116.362C1058.7,-108.84 1061.37,-98.5187 1063.72,-89.4308"/>
<polygon fill="midnightblue" stroke="midnightblue" points="1067.15,-90.1285 1066.27,-79.5707 1060.37,-88.3758 1067.15,-90.1285"/>
</g>
<!-- Node23&#45;&gt;Node16 -->
<g id="edge72" class="edge"><title>Node23&#45;&gt;Node16</title>
<path fill="none" stroke="midnightblue" d="M1096.69,-120.644C1141.19,-113.1 1206.67,-99.0945 1223,-80 1234.23,-66.8724 1235.39,-46.8343 1234.25,-31.7283"/>
<polygon fill="midnightblue" stroke="midnightblue" points="1237.72,-31.3089 1233.11,-21.7698 1230.77,-32.102 1237.72,-31.3089"/>
</g>
<!-- Node23&#45;&gt;Node17 -->
<g id="edge74" class="edge"><title>Node23&#45;&gt;Node17</title>
<path fill="none" stroke="midnightblue" d="M1096.87,-119.783C1144.51,-111.153 1217.79,-95.8717 1241,-80 1258.91,-67.7547 1272.46,-46.6803 1280.72,-31.0356"/>
<polygon fill="midnightblue" stroke="midnightblue" points="1284.05,-32.1976 1285.38,-21.6862 1277.79,-29.0756 1284.05,-32.1976"/>
</g>
<!-- Node24 -->
<g id="node63" class="node"><title>Node24</title>
<polygon fill="white" stroke="#bfbfbf" points="1154,-58.5 1154,-79.5 1214,-79.5 1214,-58.5 1154,-58.5"/>
<text text-anchor="middle" x="1184" y="-66.5" font-family="Helvetica,sans-Serif" font-size="10.00">algorithm</text>
</g>
<!-- Node23&#45;&gt;Node24 -->
<g id="edge78" class="edge"><title>Node23&#45;&gt;Node24</title>
<path fill="none" stroke="midnightblue" d="M1077.54,-116.497C1098.03,-107.356 1127.95,-94.0082 1150.85,-83.7883"/>
<polygon fill="midnightblue" stroke="midnightblue" points="1152.49,-86.892 1160.19,-79.6212 1149.64,-80.4994 1152.49,-86.892"/>
</g>
<!-- Node25 -->
<g id="node65" class="node"><title>Node25</title>
<polygon fill="white" stroke="#bfbfbf" points="1345.5,-58.5 1345.5,-79.5 1398.5,-79.5 1398.5,-58.5 1345.5,-58.5"/>
<text text-anchor="middle" x="1372" y="-66.5" font-family="Helvetica,sans-Serif" font-size="10.00">Mutex.h</text>
</g>
<!-- Node23&#45;&gt;Node25 -->
<g id="edge80" class="edge"><title>Node23&#45;&gt;Node25</title>
<path fill="none" stroke="midnightblue" d="M1096.56,-119.238C1159.46,-107.765 1276.19,-86.4743 1335.45,-75.6663"/>
<polygon fill="midnightblue" stroke="midnightblue" points="1336.27,-79.0749 1345.48,-73.8373 1335.01,-72.1885 1336.27,-79.0749"/>
</g>
<!-- Node26&#45;&gt;Node2 -->
<g id="edge86" class="edge"><title>Node26&#45;&gt;Node2</title>
<path fill="none" stroke="midnightblue" d="M893.259,-175.303C835.792,-165.524 753.301,-150.174 723,-138 678.148,-119.98 654.349,-122.323 631,-80 622.331,-64.2863 630.168,-44.6452 638.8,-30.3411"/>
<polygon fill="midnightblue" stroke="midnightblue" points="641.843,-32.0832 644.422,-21.8068 635.998,-28.2325 641.843,-32.0832"/>
</g>
<!-- Node26&#45;&gt;Node7 -->
<g id="edge90" class="edge"><title>Node26&#45;&gt;Node7</title>
<path fill="none" stroke="midnightblue" d="M947.322,-174.377C932.118,-145.93 890.297,-67.6838 870.566,-30.7689"/>
<polygon fill="midnightblue" stroke="midnightblue" points="873.641,-29.0972 865.841,-21.9277 867.468,-32.3969 873.641,-29.0972"/>
</g>
<!-- Node26&#45;&gt;Node9 -->
<g id="edge96" class="edge"><title>Node26&#45;&gt;Node9</title>
<path fill="none" stroke="midnightblue" d="M910.277,-174.439C888.683,-167.238 863.434,-155.715 846,-138 832.945,-124.734 825.42,-104.713 821.324,-89.648"/>
<polygon fill="midnightblue" stroke="midnightblue" points="824.676,-88.6158 818.918,-79.7221 817.873,-90.2652 824.676,-88.6158"/>
</g>
<!-- Node26&#45;&gt;Node10 -->
<g id="edge92" class="edge"><title>Node26&#45;&gt;Node10</title>
<path fill="none" stroke="midnightblue" d="M893.337,-175.044C890.522,-174.67 887.732,-174.319 885,-174 707.428,-153.247 201.858,-216.159 86,-80 74.876,-66.9267 75.5738,-46.8822 78.3471,-31.76"/>
<polygon fill="midnightblue" stroke="midnightblue" points="81.81,-32.3135 80.5938,-21.7887 74.9812,-30.7747 81.81,-32.3135"/>
</g>
<!-- Node26&#45;&gt;Node16 -->
<g id="edge88" class="edge"><title>Node26&#45;&gt;Node16</title>
<path fill="none" stroke="midnightblue" d="M1002.12,-174.449C1077.04,-157.222 1214.01,-120.851 1241,-80 1250.54,-65.5581 1246.3,-45.7206 1240.7,-31.0217"/>
<polygon fill="midnightblue" stroke="midnightblue" points="1243.91,-29.6162 1236.76,-21.796 1237.47,-32.3669 1243.91,-29.6162"/>
</g>
<!-- Node26&#45;&gt;Node17 -->
<g id="edge94" class="edge"><title>Node26&#45;&gt;Node17</title>
<path fill="none" stroke="midnightblue" d="M1012.5,-178.725C1093,-169.851 1232.13,-153.037 1281,-138 1302.28,-131.453 1305.82,-125.411 1326,-116 1361.7,-99.3458 1385.53,-113.033 1407,-80 1430.57,-43.7256 1360.28,-24.0068 1318.54,-15.7437"/>
<polygon fill="midnightblue" stroke="midnightblue" points="1319.09,-12.2865 1308.62,-13.8867 1317.81,-19.1669 1319.09,-12.2865"/>
</g>
<!-- Node26&#45;&gt;Node23 -->
<g id="edge102" class="edge"><title>Node26&#45;&gt;Node23</title>
<path fill="none" stroke="midnightblue" d="M971.525,-174.362C986.901,-165.532 1009,-152.844 1026.45,-142.822"/>
<polygon fill="midnightblue" stroke="midnightblue" points="1028.66,-145.586 1035.59,-137.571 1025.18,-139.515 1028.66,-145.586"/>
</g>
<!-- Node26&#45;&gt;Node25 -->
<g id="edge100" class="edge"><title>Node26&#45;&gt;Node25</title>
<path fill="none" stroke="midnightblue" d="M1012.55,-177.823C1085.08,-168.665 1203.08,-152.294 1245,-138 1265.12,-131.138 1314.26,-103.123 1345.18,-84.9687"/>
<polygon fill="midnightblue" stroke="midnightblue" points="1347.3,-87.7804 1354.13,-79.6855 1343.74,-81.7509 1347.3,-87.7804"/>
</g>
<!-- Node27 -->
<g id="node76" class="node"><title>Node27</title>
<polygon fill="white" stroke="#bfbfbf" points="1335,-116.5 1335,-137.5 1413,-137.5 1413,-116.5 1335,-116.5"/>
<text text-anchor="middle" x="1374" y="-124.5" font-family="Helvetica,sans-Serif" font-size="10.00">lunaservice.h</text>
</g>
<!-- Node26&#45;&gt;Node27 -->
<g id="edge98" class="edge"><title>Node26&#45;&gt;Node27</title>
<path fill="none" stroke="midnightblue" d="M1012.8,-178.806C1085.79,-170.914 1212.85,-156.101 1321,-138 1322.28,-137.786 1323.57,-137.564 1324.87,-137.334"/>
<polygon fill="midnightblue" stroke="midnightblue" points="1325.8,-140.722 1334.99,-135.454 1324.52,-133.84 1325.8,-140.722"/>
</g>
<!-- Node28 -->
<g id="node80" class="node"><title>Node28</title>
<polygon fill="white" stroke="#bfbfbf" points="1430.5,-116.5 1430.5,-137.5 1485.5,-137.5 1485.5,-116.5 1430.5,-116.5"/>
<text text-anchor="middle" x="1458" y="-124.5" font-family="Helvetica,sans-Serif" font-size="10.00">QObject</text>
</g>
<!-- Node26&#45;&gt;Node28 -->
<g id="edge104" class="edge"><title>Node26&#45;&gt;Node28</title>
<path fill="none" stroke="midnightblue" d="M1012.7,-178.757C1027.8,-177.19 1044,-175.522 1059,-174 1216.99,-157.968 1261.23,-169.355 1420.1,-138.099"/>
<polygon fill="midnightblue" stroke="midnightblue" points="1421.11,-141.466 1430.23,-136.079 1419.74,-134.602 1421.11,-141.466"/>
</g>
<!-- Node29 -->
<g id="node82" class="node"><title>Node29</title>
<polygon fill="white" stroke="#bfbfbf" points="732,-116.5 732,-137.5 794,-137.5 794,-116.5 732,-116.5"/>
<text text-anchor="middle" x="763" y="-124.5" font-family="Helvetica,sans-Serif" font-size="10.00">QBitArray</text>
</g>
<!-- Node26&#45;&gt;Node29 -->
<g id="edge106" class="edge"><title>Node26&#45;&gt;Node29</title>
<path fill="none" stroke="midnightblue" d="M918.592,-174.497C886.278,-164.632 837.912,-149.868 803.696,-139.423"/>
<polygon fill="midnightblue" stroke="midnightblue" points="804.592,-136.037 794.006,-136.465 802.548,-142.732 804.592,-136.037"/>
</g>
<!-- Node32&#45;&gt;Node2 -->
<g id="edge114" class="edge"><title>Node32&#45;&gt;Node2</title>
<path fill="none" stroke="midnightblue" d="M1444.17,-182.868C1342.65,-177.382 1085.54,-161.542 1003,-138 925.779,-115.974 916.382,-85.6735 841,-58 792.729,-40.279 735.084,-26.9649 696.464,-19.1122"/>
<polygon fill="midnightblue" stroke="midnightblue" points="697.079,-15.6659 686.587,-17.1386 695.707,-22.5302 697.079,-15.6659"/>
</g>
<!-- Node32&#45;&gt;Node7 -->
<g id="edge118" class="edge"><title>Node32&#45;&gt;Node7</title>
<path fill="none" stroke="midnightblue" d="M1495.51,-174.181C1506.64,-160.123 1522.23,-135.117 1511,-116 1484.2,-70.3642 1457.6,-73.4997 1407,-58 1357.72,-42.9055 1001.22,-19.7659 891.833,-12.9516"/>
<polygon fill="midnightblue" stroke="midnightblue" points="891.945,-9.45187 881.748,-12.326 891.512,-16.4384 891.945,-9.45187"/>
</g>
<!-- Node32&#45;&gt;Node25 -->
<g id="edge122" class="edge"><title>Node32&#45;&gt;Node25</title>
<path fill="none" stroke="midnightblue" d="M1491.37,-174.123C1497.73,-159.55 1506.01,-133.499 1494,-116 1483.97,-101.393 1440.81,-87.1242 1408.65,-78.2121"/>
<polygon fill="midnightblue" stroke="midnightblue" points="1409.22,-74.7403 1398.65,-75.5132 1407.4,-81.4984 1409.22,-74.7403"/>
</g>
<!-- Node32&#45;&gt;Node27 -->
<g id="edge120" class="edge"><title>Node32&#45;&gt;Node27</title>
<path fill="none" stroke="midnightblue" d="M1465.72,-174.497C1448.38,-165.519 1423.21,-152.484 1403.62,-142.339"/>
<polygon fill="midnightblue" stroke="midnightblue" points="1405,-139.112 1394.51,-137.621 1401.78,-145.328 1405,-139.112"/>
</g>
<!-- Node32&#45;&gt;Node28 -->
<g id="edge126" class="edge"><title>Node32&#45;&gt;Node28</title>
<path fill="none" stroke="midnightblue" d="M1480.86,-174.362C1477.15,-166.677 1472.03,-156.069 1467.58,-146.84"/>
<polygon fill="midnightblue" stroke="midnightblue" points="1470.6,-145.055 1463.1,-137.571 1464.3,-148.098 1470.6,-145.055"/>
</g>
<!-- Node33 -->
<g id="node91" class="node"><title>Node33</title>
<polygon fill="white" stroke="#bfbfbf" points="1579,-116.5 1579,-137.5 1693,-137.5 1693,-116.5 1579,-116.5"/>
<text text-anchor="middle" x="1636" y="-124.5" font-family="Helvetica,sans-Serif" font-size="10.00">LocalePreferences.h</text>
</g>
<!-- Node32&#45;&gt;Node33 -->
<g id="edge116" class="edge"><title>Node32&#45;&gt;Node33</title>
<path fill="none" stroke="midnightblue" d="M1513.16,-174.497C1537.3,-165.164 1572.78,-151.445 1599.41,-141.147"/>
<polygon fill="midnightblue" stroke="midnightblue" points="1600.72,-144.394 1608.79,-137.523 1598.2,-137.865 1600.72,-144.394"/>
</g>
<!-- Node34 -->
<g id="node96" class="node"><title>Node34</title>
<polygon fill="white" stroke="#bfbfbf" points="1711,-116.5 1711,-137.5 1803,-137.5 1803,-116.5 1711,-116.5"/>
<text text-anchor="middle" x="1757" y="-124.5" font-family="Helvetica,sans-Serif" font-size="10.00">CustomEvents.h</text>
</g>
<!-- Node32&#45;&gt;Node34 -->
<g id="edge124" class="edge"><title>Node32&#45;&gt;Node34</title>
<path fill="none" stroke="midnightblue" d="M1527.75,-176.065C1574.1,-166.144 1649.16,-150.08 1700.68,-139.053"/>
<polygon fill="midnightblue" stroke="midnightblue" points="1701.61,-142.433 1710.66,-136.918 1700.15,-135.588 1701.61,-142.433"/>
</g>
</g>
</svg>
