<?xml version="1.0" encoding="UTF-8" standalone="no"?>
<!DOCTYPE svg PUBLIC "-//W3C//DTD SVG 1.1//EN"
 "http://www.w3.org/Graphics/SVG/1.1/DTD/svg11.dtd">
<!-- Generated by graphviz version 2.26.3 (20100126.1600)
 -->
<!-- Title: BannerWindow.h Pages: 1 -->
<svg width="1092pt" height="262pt"
 viewBox="0.00 0.00 1092.09 262.00" xmlns="http://www.w3.org/2000/svg" xmlns:xlink="http://www.w3.org/1999/xlink">
<g id="graph1" class="graph" transform="scale(1 1) rotate(0) translate(4 258)">
<title>BannerWindow.h</title>
<polygon fill="white" stroke="white" points="-4,5 -4,-258 1089.09,-258 1089.09,5 -4,5"/>
<!-- Node1 -->
<g id="node1" class="node"><title>Node1</title>
<polygon fill="#bfbfbf" stroke="black" points="598.011,-232.5 598.011,-253.5 695.011,-253.5 695.011,-232.5 598.011,-232.5"/>
<text text-anchor="middle" x="646.511" y="-240.5" font-family="Helvetica,sans-Serif" font-size="10.00">BannerWindow.h</text>
</g>
<!-- Node2 -->
<g id="node3" class="node"><title>Node2</title>
<polygon fill="white" stroke="#bfbfbf" points="37.0108,-0.5 37.0108,-21.5 104.011,-21.5 104.011,-0.5 37.0108,-0.5"/>
<text text-anchor="middle" x="70.5108" y="-8.5" font-family="Helvetica,sans-Serif" font-size="10.00">Common.h</text>
</g>
<!-- Node1&#45;&gt;Node2 -->
<g id="edge2" class="edge"><title>Node1&#45;&gt;Node2</title>
<path fill="none" stroke="midnightblue" d="M597.961,-240.221C490.015,-233.75 232.976,-216.644 148.511,-196 81.8876,-179.717 43.8243,-194.885 5.51081,-138 -3.49906,-124.623 -0.90996,-82.2805 12.5108,-58 19.3875,-45.559 31.018,-35.1511 42.0668,-27.3179"/>
<polygon fill="midnightblue" stroke="midnightblue" points="44.2972,-30.0387 50.701,-21.5981 40.4313,-24.203 44.2972,-30.0387"/>
</g>
<!-- Node3 -->
<g id="node5" class="node"><title>Node3</title>
<polygon fill="white" stroke="#bfbfbf" points="587.011,-0.5 587.011,-21.5 630.011,-21.5 630.011,-0.5 587.011,-0.5"/>
<text text-anchor="middle" x="608.511" y="-8.5" font-family="Helvetica,sans-Serif" font-size="10.00">string</text>
</g>
<!-- Node1&#45;&gt;Node3 -->
<g id="edge4" class="edge"><title>Node1&#45;&gt;Node3</title>
<path fill="none" stroke="midnightblue" d="M644.779,-232.429C638.919,-196.648 619.757,-79.6628 611.909,-31.7481"/>
<polygon fill="midnightblue" stroke="midnightblue" points="615.323,-30.9362 610.253,-21.6335 608.415,-32.0678 615.323,-30.9362"/>
</g>
<!-- Node4 -->
<g id="node7" class="node"><title>Node4</title>
<polygon fill="white" stroke="#bfbfbf" points="674.511,-116.5 674.511,-137.5 772.511,-137.5 772.511,-116.5 674.511,-116.5"/>
<text text-anchor="middle" x="723.511" y="-124.5" font-family="Helvetica,sans-Serif" font-size="10.00">QGraphicsObject</text>
</g>
<!-- Node1&#45;&gt;Node4 -->
<g id="edge6" class="edge"><title>Node1&#45;&gt;Node4</title>
<path fill="none" stroke="midnightblue" d="M653.617,-232.295C666.624,-212.7 694.424,-170.82 710.772,-146.191"/>
<polygon fill="midnightblue" stroke="midnightblue" points="713.808,-147.946 716.422,-137.679 707.976,-144.075 713.808,-147.946"/>
</g>
<!-- Node5 -->
<g id="node9" class="node"><title>Node5</title>
<a xlink:href="BannerMessageHandler_8h.htm" target="_top" xlink:title="BannerMessageHandler.h">
<polygon fill="white" stroke="black" points="157.511,-174.5 157.511,-195.5 297.511,-195.5 297.511,-174.5 157.511,-174.5"/>
<text text-anchor="middle" x="227.511" y="-182.5" font-family="Helvetica,sans-Serif" font-size="10.00">BannerMessageHandler.h</text>
</a>
</g>
<!-- Node1&#45;&gt;Node5 -->
<g id="edge8" class="edge"><title>Node1&#45;&gt;Node5</title>
<path fill="none" stroke="midnightblue" d="M597.626,-236.233C526.401,-226.374 393.278,-207.946 307.608,-196.087"/>
<polygon fill="midnightblue" stroke="midnightblue" points="308.048,-192.615 297.662,-194.711 307.088,-199.549 308.048,-192.615"/>
</g>
<!-- Node13 -->
<g id="node33" class="node"><title>Node13</title>
<a xlink:href="Window_8h.htm" target="_top" xlink:title="Window.h">
<polygon fill="white" stroke="black" points="849.511,-174.5 849.511,-195.5 911.511,-195.5 911.511,-174.5 849.511,-174.5"/>
<text text-anchor="middle" x="880.511" y="-182.5" font-family="Helvetica,sans-Serif" font-size="10.00">Window.h</text>
</a>
</g>
<!-- Node1&#45;&gt;Node13 -->
<g id="edge40" class="edge"><title>Node1&#45;&gt;Node13</title>
<path fill="none" stroke="midnightblue" d="M688.886,-232.497C731.593,-221.911 797.066,-205.683 839.339,-195.205"/>
<polygon fill="midnightblue" stroke="midnightblue" points="840.432,-198.54 849.297,-192.737 838.748,-191.746 840.432,-198.54"/>
</g>
<!-- Node5&#45;&gt;Node2 -->
<g id="edge10" class="edge"><title>Node5&#45;&gt;Node2</title>
<path fill="none" stroke="midnightblue" d="M157.51,-178.65C103.425,-172.123 34.9397,-159.761 17.5108,-138 -9.42445,-104.37 27.8929,-55.0956 52.3024,-28.9085"/>
<polygon fill="midnightblue" stroke="midnightblue" points="54.9595,-31.1951 59.3779,-21.5655 49.9188,-26.338 54.9595,-31.1951"/>
</g>
<!-- Node5&#45;&gt;Node3 -->
<g id="edge12" class="edge"><title>Node5&#45;&gt;Node3</title>
<path fill="none" stroke="midnightblue" d="M297.684,-177.015C369.535,-165.798 481.324,-139.593 558.511,-80 575.705,-66.7251 589.624,-45.9781 598.369,-30.6981"/>
<polygon fill="midnightblue" stroke="midnightblue" points="601.627,-32.0337 603.35,-21.5798 595.484,-28.6775 601.627,-32.0337"/>
</g>
<!-- Node6 -->
<g id="node13" class="node"><title>Node6</title>
<polygon fill="white" stroke="#bfbfbf" points="26.0108,-116.5 26.0108,-137.5 81.0108,-137.5 81.0108,-116.5 26.0108,-116.5"/>
<text text-anchor="middle" x="53.5108" y="-124.5" font-family="Helvetica,sans-Serif" font-size="10.00">QObject</text>
</g>
<!-- Node5&#45;&gt;Node6 -->
<g id="edge14" class="edge"><title>Node5&#45;&gt;Node6</title>
<path fill="none" stroke="midnightblue" d="M196.001,-174.497C166.397,-164.629 122.081,-149.857 90.7445,-139.411"/>
<polygon fill="midnightblue" stroke="midnightblue" points="91.655,-136.025 81.0614,-136.184 89.4414,-142.666 91.655,-136.025"/>
</g>
<!-- Node7 -->
<g id="node15" class="node"><title>Node7</title>
<polygon fill="white" stroke="#bfbfbf" points="378.011,-0.5 378.011,-21.5 421.011,-21.5 421.011,-0.5 378.011,-0.5"/>
<text text-anchor="middle" x="399.511" y="-8.5" font-family="Helvetica,sans-Serif" font-size="10.00">sptr.h</text>
</g>
<!-- Node5&#45;&gt;Node7 -->
<g id="edge16" class="edge"><title>Node5&#45;&gt;Node7</title>
<path fill="none" stroke="midnightblue" d="M214.665,-174.184C188.65,-151.002 134.727,-95.5822 165.511,-58 190.724,-27.2194 309.797,-16.1706 367.717,-12.5712"/>
<polygon fill="midnightblue" stroke="midnightblue" points="368.005,-16.0604 377.784,-11.9827 367.597,-9.07232 368.005,-16.0604"/>
</g>
<!-- Node8 -->
<g id="node17" class="node"><title>Node8</title>
<a xlink:href="SoundPlayerPool_8h.htm" target="_top" xlink:title="SoundPlayerPool.h">
<polygon fill="white" stroke="black" points="294.511,-116.5 294.511,-137.5 400.511,-137.5 400.511,-116.5 294.511,-116.5"/>
<text text-anchor="middle" x="347.511" y="-124.5" font-family="Helvetica,sans-Serif" font-size="10.00">SoundPlayerPool.h</text>
</a>
</g>
<!-- Node5&#45;&gt;Node8 -->
<g id="edge18" class="edge"><title>Node5&#45;&gt;Node8</title>
<path fill="none" stroke="midnightblue" d="M249.242,-174.497C267.984,-165.438 295.277,-152.246 316.346,-142.063"/>
<polygon fill="midnightblue" stroke="midnightblue" points="318.055,-145.124 325.536,-137.621 315.009,-138.822 318.055,-145.124"/>
</g>
<!-- Node8&#45;&gt;Node2 -->
<g id="edge20" class="edge"><title>Node8&#45;&gt;Node2</title>
<path fill="none" stroke="midnightblue" d="M294.326,-118.717C257.034,-111.621 206.69,-99.4089 165.511,-80 136.889,-66.5097 108.049,-44.0103 89.7784,-28.3871"/>
<polygon fill="midnightblue" stroke="midnightblue" points="92.0038,-25.6839 82.1664,-21.7498 87.4033,-30.9599 92.0038,-25.6839"/>
</g>
<!-- Node8&#45;&gt;Node3 -->
<g id="edge24" class="edge"><title>Node8&#45;&gt;Node3</title>
<path fill="none" stroke="midnightblue" d="M400.859,-119.923C438.457,-113.371 489.099,-101.313 529.511,-80 554.2,-66.9788 577.646,-44.8136 592.486,-29.1226"/>
<polygon fill="midnightblue" stroke="midnightblue" points="595.223,-31.3171 599.423,-21.5901 590.074,-26.575 595.223,-31.3171"/>
</g>
<!-- Node8&#45;&gt;Node7 -->
<g id="edge28" class="edge"><title>Node8&#45;&gt;Node7</title>
<path fill="none" stroke="midnightblue" d="M400.643,-119.022C443.834,-111.322 499.781,-98.157 513.511,-80 538.466,-46.9983 472.915,-26.4314 431.136,-17.0318"/>
<polygon fill="midnightblue" stroke="midnightblue" points="431.606,-13.5534 421.095,-14.8819 430.141,-20.3982 431.606,-13.5534"/>
</g>
<!-- Node9 -->
<g id="node20" class="node"><title>Node9</title>
<polygon fill="white" stroke="#bfbfbf" points="476.011,-58.5 476.011,-79.5 505.011,-79.5 505.011,-58.5 476.011,-58.5"/>
<text text-anchor="middle" x="490.511" y="-66.5" font-family="Helvetica,sans-Serif" font-size="10.00">list</text>
</g>
<!-- Node8&#45;&gt;Node9 -->
<g id="edge22" class="edge"><title>Node8&#45;&gt;Node9</title>
<path fill="none" stroke="midnightblue" d="M376.361,-116.375C398.813,-107.959 430.913,-95.6077 466.395,-80.314"/>
<polygon fill="midnightblue" stroke="midnightblue" points="468.209,-83.3418 475.984,-76.1442 465.418,-76.9225 468.209,-83.3418"/>
</g>
<!-- Node10 -->
<g id="node23" class="node"><title>Node10</title>
<polygon fill="white" stroke="#bfbfbf" points="174.511,-58.5 174.511,-79.5 252.511,-79.5 252.511,-58.5 174.511,-58.5"/>
<text text-anchor="middle" x="213.511" y="-66.5" font-family="Helvetica,sans-Serif" font-size="10.00">lunaservice.h</text>
</g>
<!-- Node8&#45;&gt;Node10 -->
<g id="edge26" class="edge"><title>Node8&#45;&gt;Node10</title>
<path fill="none" stroke="midnightblue" d="M323.244,-116.497C302.033,-107.315 271.013,-93.8889 247.361,-83.6516"/>
<polygon fill="midnightblue" stroke="midnightblue" points="248.617,-80.3815 238.049,-79.6212 245.836,-86.8055 248.617,-80.3815"/>
</g>
<!-- Node11 -->
<g id="node26" class="node"><title>Node11</title>
<polygon fill="white" stroke="#bfbfbf" points="270.511,-58.5 270.511,-79.5 322.511,-79.5 322.511,-58.5 270.511,-58.5"/>
<text text-anchor="middle" x="296.511" y="-66.5" font-family="Helvetica,sans-Serif" font-size="10.00">Timer.h</text>
</g>
<!-- Node8&#45;&gt;Node11 -->
<g id="edge30" class="edge"><title>Node8&#45;&gt;Node11</title>
<path fill="none" stroke="midnightblue" d="M338.157,-116.362C330.968,-108.186 320.87,-96.7025 312.418,-87.0907"/>
<polygon fill="midnightblue" stroke="midnightblue" points="315.037,-84.7692 305.806,-79.5707 309.781,-89.3916 315.037,-84.7692"/>
</g>
<!-- Node12 -->
<g id="node28" class="node"><title>Node12</title>
<a xlink:href="SoundPlayerDummy_8h.htm" target="_top" xlink:title="SoundPlayerDummy.h">
<polygon fill="white" stroke="black" points="340.011,-58.5 340.011,-79.5 459.011,-79.5 459.011,-58.5 340.011,-58.5"/>
<text text-anchor="middle" x="399.511" y="-66.5" font-family="Helvetica,sans-Serif" font-size="10.00">SoundPlayerDummy.h</text>
</a>
</g>
<!-- Node8&#45;&gt;Node12 -->
<g id="edge32" class="edge"><title>Node8&#45;&gt;Node12</title>
<path fill="none" stroke="midnightblue" d="M357.048,-116.362C364.378,-108.186 374.674,-96.7025 383.292,-87.0907"/>
<polygon fill="midnightblue" stroke="midnightblue" points="385.964,-89.3528 390.034,-79.5707 380.752,-84.68 385.964,-89.3528"/>
</g>
<!-- Node12&#45;&gt;Node2 -->
<g id="edge34" class="edge"><title>Node12&#45;&gt;Node2</title>
<path fill="none" stroke="midnightblue" d="M339.931,-58.4966C274.774,-47.0099 171.924,-28.8783 113.965,-18.6607"/>
<polygon fill="midnightblue" stroke="midnightblue" points="114.485,-15.1983 104.029,-16.9089 113.269,-22.092 114.485,-15.1983"/>
</g>
<!-- Node12&#45;&gt;Node3 -->
<g id="edge36" class="edge"><title>Node12&#45;&gt;Node3</title>
<path fill="none" stroke="midnightblue" d="M437.359,-58.4966C477.358,-47.3965 539.717,-30.0912 577.094,-19.7186"/>
<polygon fill="midnightblue" stroke="midnightblue" points="578.234,-23.0344 586.934,-16.9877 576.363,-16.2893 578.234,-23.0344"/>
</g>
<!-- Node12&#45;&gt;Node7 -->
<g id="edge38" class="edge"><title>Node12&#45;&gt;Node7</title>
<path fill="none" stroke="midnightblue" d="M399.511,-58.3619C399.511,-50.9219 399.511,-40.7427 399.511,-31.7276"/>
<polygon fill="midnightblue" stroke="midnightblue" points="403.011,-31.5706 399.511,-21.5707 396.011,-31.5707 403.011,-31.5706"/>
</g>
<!-- Node13&#45;&gt;Node2 -->
<g id="edge42" class="edge"><title>Node13&#45;&gt;Node2</title>
<path fill="none" stroke="midnightblue" d="M849.482,-183.651C743.279,-178.863 394.885,-161.69 285.511,-138 211.586,-121.988 186.949,-124.121 125.511,-80 107.066,-66.7541 91.541,-45.7131 81.7387,-30.3456"/>
<polygon fill="midnightblue" stroke="midnightblue" points="84.6082,-28.3296 76.3999,-21.6308 78.6392,-31.9863 84.6082,-28.3296"/>
</g>
<!-- Node13&#45;&gt;Node3 -->
<g id="edge48" class="edge"><title>Node13&#45;&gt;Node3</title>
<path fill="none" stroke="midnightblue" d="M911.599,-182.27C962.225,-177.109 1058.91,-164.028 1079.51,-138 1085.58,-130.333 1085.63,-123.629 1079.51,-116 1023.89,-46.6145 736.621,-20.1005 640.148,-13.0694"/>
<polygon fill="midnightblue" stroke="midnightblue" points="640.347,-9.57482 630.125,-12.3595 639.853,-16.5573 640.347,-9.57482"/>
</g>
<!-- Node13&#45;&gt;Node4 -->
<g id="edge52" class="edge"><title>Node13&#45;&gt;Node4</title>
<path fill="none" stroke="midnightblue" d="M852.079,-174.497C826.706,-165.123 789.354,-151.324 761.44,-141.012"/>
<polygon fill="midnightblue" stroke="midnightblue" points="762.589,-137.705 751.996,-137.523 760.163,-144.272 762.589,-137.705"/>
</g>
<!-- Node14 -->
<g id="node36" class="node"><title>Node14</title>
<polygon fill="white" stroke="#bfbfbf" points="790.511,-116.5 790.511,-137.5 882.511,-137.5 882.511,-116.5 790.511,-116.5"/>
<text text-anchor="middle" x="836.511" y="-124.5" font-family="Helvetica,sans-Serif" font-size="10.00">WindowTypes.h</text>
</g>
<!-- Node13&#45;&gt;Node14 -->
<g id="edge44" class="edge"><title>Node13&#45;&gt;Node14</title>
<path fill="none" stroke="midnightblue" d="M872.441,-174.362C866.362,-166.35 857.874,-155.161 850.674,-145.67"/>
<polygon fill="midnightblue" stroke="midnightblue" points="853.362,-143.422 844.53,-137.571 847.785,-147.653 853.362,-143.422"/>
</g>
<!-- Node15 -->
<g id="node38" class="node"><title>Node15</title>
<polygon fill="white" stroke="#bfbfbf" points="900.511,-116.5 900.511,-137.5 950.511,-137.5 950.511,-116.5 900.511,-116.5"/>
<text text-anchor="middle" x="925.511" y="-124.5" font-family="Helvetica,sans-Serif" font-size="10.00">stdint.h</text>
</g>
<!-- Node13&#45;&gt;Node15 -->
<g id="edge46" class="edge"><title>Node13&#45;&gt;Node15</title>
<path fill="none" stroke="midnightblue" d="M888.765,-174.362C894.981,-166.35 903.662,-155.161 911.026,-145.67"/>
<polygon fill="midnightblue" stroke="midnightblue" points="913.945,-147.617 917.309,-137.571 908.414,-143.326 913.945,-147.617"/>
</g>
<!-- Node16 -->
<g id="node41" class="node"><title>Node16</title>
<polygon fill="white" stroke="#bfbfbf" points="968.011,-116.5 968.011,-137.5 1009.01,-137.5 1009.01,-116.5 968.011,-116.5"/>
<text text-anchor="middle" x="988.511" y="-124.5" font-family="Helvetica,sans-Serif" font-size="10.00">glib.h</text>
</g>
<!-- Node13&#45;&gt;Node16 -->
<g id="edge50" class="edge"><title>Node13&#45;&gt;Node16</title>
<path fill="none" stroke="midnightblue" d="M900.069,-174.497C916.709,-165.56 940.838,-152.602 959.691,-142.477"/>
<polygon fill="midnightblue" stroke="midnightblue" points="961.579,-145.436 968.733,-137.621 958.267,-139.269 961.579,-145.436"/>
</g>
<!-- Node17 -->
<g id="node44" class="node"><title>Node17</title>
<polygon fill="white" stroke="#bfbfbf" points="1026.01,-116.5 1026.01,-137.5 1071.01,-137.5 1071.01,-116.5 1026.01,-116.5"/>
<text text-anchor="middle" x="1048.51" y="-124.5" font-family="Helvetica,sans-Serif" font-size="10.00">QSize</text>
</g>
<!-- Node13&#45;&gt;Node17 -->
<g id="edge54" class="edge"><title>Node13&#45;&gt;Node17</title>
<path fill="none" stroke="midnightblue" d="M911.557,-174.453C937.337,-165.672 975.212,-152.718 1016.2,-138.438"/>
<polygon fill="midnightblue" stroke="midnightblue" points="1017.54,-141.676 1025.83,-135.078 1015.24,-135.067 1017.54,-141.676"/>
</g>
</g>
</svg>
