<?xml version="1.0" encoding="UTF-8" standalone="no"?>
<!DOCTYPE svg PUBLIC "-//W3C//DTD SVG 1.1//EN"
 "http://www.w3.org/Graphics/SVG/1.1/DTD/svg11.dtd">
<!-- Generated by graphviz version 2.26.3 (20100126.1600)
 -->
<!-- Title: BannerMessageHandler.h Pages: 1 -->
<svg width="1273pt" height="146pt"
 viewBox="0.00 0.00 1273.00 146.00" xmlns="http://www.w3.org/2000/svg" xmlns:xlink="http://www.w3.org/1999/xlink">
<g id="graph1" class="graph" transform="scale(1 1) rotate(0) translate(4 142)">
<title>BannerMessageHandler.h</title>
<polygon fill="white" stroke="white" points="-4,5 -4,-142 1270,-142 1270,5 -4,5"/>
<!-- Node1 -->
<g id="node1" class="node"><title>Node1</title>
<polygon fill="#bfbfbf" stroke="black" points="555,-116.5 555,-137.5 695,-137.5 695,-116.5 555,-116.5"/>
<text text-anchor="middle" x="625" y="-124.5" font-family="Helvetica,sans-Serif" font-size="10.00">BannerMessageHandler.h</text>
</g>
<!-- Node2 -->
<g id="node3" class="node"><title>Node2</title>
<a xlink:href="KeyLocationRecorder_8cpp.htm" target="_top" xlink:title="KeyLocationRecorder.cpp">
<polygon fill="white" stroke="black" points="-0.5,-58.5 -0.5,-79.5 138.5,-79.5 138.5,-58.5 -0.5,-58.5"/>
<text text-anchor="middle" x="69" y="-66.5" font-family="Helvetica,sans-Serif" font-size="10.00">KeyLocationRecorder.cpp</text>
</a>
</g>
<!-- Node1&#45;&gt;Node2 -->
<g id="edge2" class="edge"><title>Node1&#45;&gt;Node2</title>
<path fill="none" stroke="midnightblue" d="M544.722,-120.146C449.66,-111.789 286.599,-96.6992 147,-80 144.284,-79.6751 141.517,-79.3339 138.722,-78.9808"/>
<polygon fill="midnightblue" stroke="midnightblue" points="544.57,-123.646 554.838,-121.032 545.182,-116.673 544.57,-123.646"/>
</g>
<!-- Node3 -->
<g id="node5" class="node"><title>Node3</title>
<a xlink:href="SysmgrIMEDataInterface_8cpp.htm" target="_top" xlink:title="SysmgrIMEDataInterface.cpp">
<polygon fill="white" stroke="black" points="155.5,-58.5 155.5,-79.5 310.5,-79.5 310.5,-58.5 155.5,-58.5"/>
<text text-anchor="middle" x="233" y="-66.5" font-family="Helvetica,sans-Serif" font-size="10.00">SysmgrIMEDataInterface.cpp</text>
</a>
</g>
<!-- Node1&#45;&gt;Node3 -->
<g id="edge4" class="edge"><title>Node1&#45;&gt;Node3</title>
<path fill="none" stroke="midnightblue" d="M544.719,-115.122C473.998,-104.658 371.965,-89.5612 304.128,-79.5241"/>
<polygon fill="midnightblue" stroke="midnightblue" points="544.514,-118.629 554.918,-116.631 545.538,-111.705 544.514,-118.629"/>
</g>
<!-- Node4 -->
<g id="node7" class="node"><title>Node4</title>
<a xlink:href="CardHostWindow_8cpp.htm" target="_top" xlink:title="CardHostWindow.cpp">
<polygon fill="white" stroke="black" points="327.5,-58.5 327.5,-79.5 446.5,-79.5 446.5,-58.5 327.5,-58.5"/>
<text text-anchor="middle" x="387" y="-66.5" font-family="Helvetica,sans-Serif" font-size="10.00">CardHostWindow.cpp</text>
</a>
</g>
<!-- Node1&#45;&gt;Node4 -->
<g id="edge6" class="edge"><title>Node1&#45;&gt;Node4</title>
<path fill="none" stroke="midnightblue" d="M571.969,-114.077C529.274,-103.672 470.015,-89.2306 430.181,-79.5231"/>
<polygon fill="midnightblue" stroke="midnightblue" points="571.356,-117.529 581.9,-116.497 573.013,-110.728 571.356,-117.529"/>
</g>
<!-- Node5 -->
<g id="node9" class="node"><title>Node5</title>
<a xlink:href="LockWindow_8cpp.htm" target="_top" xlink:title="LockWindow.cpp">
<polygon fill="white" stroke="black" points="464,-58.5 464,-79.5 560,-79.5 560,-58.5 464,-58.5"/>
<text text-anchor="middle" x="512" y="-66.5" font-family="Helvetica,sans-Serif" font-size="10.00">LockWindow.cpp</text>
</a>
</g>
<!-- Node1&#45;&gt;Node5 -->
<g id="edge8" class="edge"><title>Node1&#45;&gt;Node5</title>
<path fill="none" stroke="midnightblue" d="M595.375,-111.794C575.659,-101.675 550.252,-88.6338 532.693,-79.6212"/>
<polygon fill="midnightblue" stroke="midnightblue" points="594.042,-115.044 604.537,-116.497 597.238,-108.816 594.042,-115.044"/>
</g>
<!-- Node6 -->
<g id="node11" class="node"><title>Node6</title>
<a xlink:href="AlertWindow_8cpp.htm" target="_top" xlink:title="AlertWindow.cpp">
<polygon fill="white" stroke="black" points="577.5,-58.5 577.5,-79.5 672.5,-79.5 672.5,-58.5 577.5,-58.5"/>
<text text-anchor="middle" x="625" y="-66.5" font-family="Helvetica,sans-Serif" font-size="10.00">AlertWindow.cpp</text>
</a>
</g>
<!-- Node1&#45;&gt;Node6 -->
<g id="edge10" class="edge"><title>Node1&#45;&gt;Node6</title>
<path fill="none" stroke="midnightblue" d="M625,-106.191C625,-97.1684 625,-86.9941 625,-79.5707"/>
<polygon fill="midnightblue" stroke="midnightblue" points="621.5,-106.362 625,-116.362 628.5,-106.362 621.5,-106.362"/>
</g>
<!-- Node7 -->
<g id="node13" class="node"><title>Node7</title>
<a xlink:href="BannerMessageHandler_8cpp.htm" target="_top" xlink:title="BannerMessageHandler.cpp">
<polygon fill="white" stroke="black" points="690,-58.5 690,-79.5 842,-79.5 842,-58.5 690,-58.5"/>
<text text-anchor="middle" x="766" y="-66.5" font-family="Helvetica,sans-Serif" font-size="10.00">BannerMessageHandler.cpp</text>
</a>
</g>
<!-- Node1&#45;&gt;Node7 -->
<g id="edge12" class="edge"><title>Node1&#45;&gt;Node7</title>
<path fill="none" stroke="midnightblue" d="M659.97,-112.615C684.83,-102.389 717.672,-88.8796 740.179,-79.6212"/>
<polygon fill="midnightblue" stroke="midnightblue" points="658.451,-109.456 650.534,-116.497 661.114,-115.929 658.451,-109.456"/>
</g>
<!-- Node8 -->
<g id="node15" class="node"><title>Node8</title>
<a xlink:href="BannerWindow_8h.htm" target="_top" xlink:title="BannerWindow.h">
<polygon fill="white" stroke="black" points="859.5,-58.5 859.5,-79.5 956.5,-79.5 956.5,-58.5 859.5,-58.5"/>
<text text-anchor="middle" x="908" y="-66.5" font-family="Helvetica,sans-Serif" font-size="10.00">BannerWindow.h</text>
</a>
</g>
<!-- Node1&#45;&gt;Node8 -->
<g id="edge14" class="edge"><title>Node1&#45;&gt;Node8</title>
<path fill="none" stroke="midnightblue" d="M686.329,-114.431C738.232,-103.793 811.613,-88.7543 859.495,-78.9409"/>
<polygon fill="midnightblue" stroke="midnightblue" points="685.343,-111.06 676.249,-116.497 686.748,-117.918 685.343,-111.06"/>
</g>
<!-- Node11 -->
<g id="node21" class="node"><title>Node11</title>
<a xlink:href="StatusBarNotificationArea_8h.htm" target="_top" xlink:title="StatusBarNotificationArea.h">
<polygon fill="white" stroke="black" points="976,-58.5 976,-79.5 1122,-79.5 1122,-58.5 976,-58.5"/>
<text text-anchor="middle" x="1049" y="-66.5" font-family="Helvetica,sans-Serif" font-size="10.00">StatusBarNotificationArea.h</text>
</a>
</g>
<!-- Node1&#45;&gt;Node11 -->
<g id="edge20" class="edge"><title>Node1&#45;&gt;Node11</title>
<path fill="none" stroke="midnightblue" d="M705.258,-116.021C783.12,-105.37 900.259,-89.3467 975.678,-79.0299"/>
<polygon fill="midnightblue" stroke="midnightblue" points="704.448,-112.599 695.015,-117.422 705.397,-119.535 704.448,-112.599"/>
</g>
<!-- Node14 -->
<g id="node27" class="node"><title>Node14</title>
<a xlink:href="WebAppMgrProxy_8cpp.htm" target="_top" xlink:title="WebAppMgrProxy.cpp">
<polygon fill="white" stroke="black" points="1140,-58.5 1140,-79.5 1262,-79.5 1262,-58.5 1140,-58.5"/>
<text text-anchor="middle" x="1201" y="-66.5" font-family="Helvetica,sans-Serif" font-size="10.00">WebAppMgrProxy.cpp</text>
</a>
</g>
<!-- Node1&#45;&gt;Node14 -->
<g id="edge26" class="edge"><title>Node1&#45;&gt;Node14</title>
<path fill="none" stroke="midnightblue" d="M705.157,-121.129C805.071,-113.448 980.978,-98.7358 1131,-80 1133.93,-79.6341 1136.93,-79.2402 1139.95,-78.8266"/>
<polygon fill="midnightblue" stroke="midnightblue" points="704.84,-117.643 695.136,-121.895 705.373,-124.622 704.84,-117.643"/>
</g>
<!-- Node9 -->
<g id="node17" class="node"><title>Node9</title>
<a xlink:href="BannerWindow_8cpp.htm" target="_top" xlink:title="BannerWindow.cpp">
<polygon fill="white" stroke="black" points="697,-0.5 697,-21.5 805,-21.5 805,-0.5 697,-0.5"/>
<text text-anchor="middle" x="751" y="-8.5" font-family="Helvetica,sans-Serif" font-size="10.00">BannerWindow.cpp</text>
</a>
</g>
<!-- Node8&#45;&gt;Node9 -->
<g id="edge16" class="edge"><title>Node8&#45;&gt;Node9</title>
<path fill="none" stroke="midnightblue" d="M870.129,-55.0095C842.229,-44.7023 804.875,-30.903 779.485,-21.5231"/>
<polygon fill="midnightblue" stroke="midnightblue" points="868.975,-58.3143 879.568,-58.4966 871.401,-51.7481 868.975,-58.3143"/>
</g>
<!-- Node10 -->
<g id="node19" class="node"><title>Node10</title>
<a xlink:href="DashboardWindowManager_8cpp.htm" target="_top" xlink:title="DashboardWindowManager.cpp">
<polygon fill="white" stroke="black" points="823,-0.5 823,-21.5 991,-21.5 991,-0.5 823,-0.5"/>
<text text-anchor="middle" x="907" y="-8.5" font-family="Helvetica,sans-Serif" font-size="10.00">DashboardWindowManager.cpp</text>
</a>
</g>
<!-- Node8&#45;&gt;Node10 -->
<g id="edge18" class="edge"><title>Node8&#45;&gt;Node10</title>
<path fill="none" stroke="midnightblue" d="M907.641,-48.1906C907.486,-39.1684 907.31,-28.9941 907.182,-21.5707"/>
<polygon fill="midnightblue" stroke="midnightblue" points="904.145,-48.4238 907.817,-58.3619 911.144,-48.303 904.145,-48.4238"/>
</g>
<!-- Node12 -->
<g id="node23" class="node"><title>Node12</title>
<a xlink:href="StatusBar_8cpp.htm" target="_top" xlink:title="StatusBar.cpp">
<polygon fill="white" stroke="black" points="1009,-0.5 1009,-21.5 1091,-21.5 1091,-0.5 1009,-0.5"/>
<text text-anchor="middle" x="1050" y="-8.5" font-family="Helvetica,sans-Serif" font-size="10.00">StatusBar.cpp</text>
</a>
</g>
<!-- Node11&#45;&gt;Node12 -->
<g id="edge22" class="edge"><title>Node11&#45;&gt;Node12</title>
<path fill="none" stroke="midnightblue" d="M1049.36,-48.1906C1049.51,-39.1684 1049.69,-28.9941 1049.82,-21.5707"/>
<polygon fill="midnightblue" stroke="midnightblue" points="1045.86,-48.303 1049.18,-58.3619 1052.86,-48.4238 1045.86,-48.303"/>
</g>
<!-- Node13 -->
<g id="node25" class="node"><title>Node13</title>
<a xlink:href="StatusBarNotificationArea_8cpp.htm" target="_top" xlink:title="StatusBarNotificationArea.cpp">
<polygon fill="white" stroke="black" points="1108.5,-0.5 1108.5,-21.5 1265.5,-21.5 1265.5,-0.5 1108.5,-0.5"/>
<text text-anchor="middle" x="1187" y="-8.5" font-family="Helvetica,sans-Serif" font-size="10.00">StatusBarNotificationArea.cpp</text>
</a>
</g>
<!-- Node11&#45;&gt;Node13 -->
<g id="edge24" class="edge"><title>Node11&#45;&gt;Node13</title>
<path fill="none" stroke="midnightblue" d="M1083.23,-54.6153C1107.56,-44.3889 1139.7,-30.8796 1161.73,-21.6212"/>
<polygon fill="midnightblue" stroke="midnightblue" points="1081.85,-51.3954 1073.99,-58.4966 1084.57,-57.8486 1081.85,-51.3954"/>
</g>
</g>
</svg>
