<?xml version="1.0" encoding="UTF-8" standalone="no"?>
<!DOCTYPE svg PUBLIC "-//W3C//DTD SVG 1.1//EN"
 "http://www.w3.org/Graphics/SVG/1.1/DTD/svg11.dtd">
<!-- Generated by graphviz version 2.26.3 (20100126.1600)
 -->
<!-- Title: BootupAnimation.cpp Pages: 1 -->
<svg width="1447pt" height="146pt"
 viewBox="0.00 0.00 1447.00 146.00" xmlns="http://www.w3.org/2000/svg" xmlns:xlink="http://www.w3.org/1999/xlink">
<g id="graph1" class="graph" transform="scale(1 1) rotate(0) translate(4 142)">
<title>BootupAnimation.cpp</title>
<polygon fill="white" stroke="white" points="-4,5 -4,-142 1444,-142 1444,5 -4,5"/>
<!-- Node1 -->
<g id="node1" class="node"><title>Node1</title>
<polygon fill="#bfbfbf" stroke="black" points="792,-116.5 792,-137.5 908,-137.5 908,-116.5 792,-116.5"/>
<text text-anchor="middle" x="850" y="-124.5" font-family="Helvetica,sans-Serif" font-size="10.00">BootupAnimation.cpp</text>
</g>
<!-- Node2 -->
<g id="node3" class="node"><title>Node2</title>
<polygon fill="white" stroke="#bfbfbf" points="-0.5,-0.5 -0.5,-21.5 66.5,-21.5 66.5,-0.5 -0.5,-0.5"/>
<text text-anchor="middle" x="33" y="-8.5" font-family="Helvetica,sans-Serif" font-size="10.00">Common.h</text>
</g>
<!-- Node1&#45;&gt;Node2 -->
<g id="edge2" class="edge"><title>Node1&#45;&gt;Node2</title>
<path fill="none" stroke="midnightblue" d="M791.649,-125.017C691.636,-120.939 481.297,-109.386 306,-80 223.791,-66.2189 129.982,-40.1852 76.4963,-24.3345"/>
<polygon fill="midnightblue" stroke="midnightblue" points="77.2546,-20.9083 66.6713,-21.4027 75.253,-27.616 77.2546,-20.9083"/>
</g>
<!-- Node3 -->
<g id="node5" class="node"><title>Node3</title>
<a xlink:href="BootupAnimation_8h.htm" target="_top" xlink:title="BootupAnimation.h">
<polygon fill="white" stroke="black" points="315,-58.5 315,-79.5 419,-79.5 419,-58.5 315,-58.5"/>
<text text-anchor="middle" x="367" y="-66.5" font-family="Helvetica,sans-Serif" font-size="10.00">BootupAnimation.h</text>
</a>
</g>
<!-- Node1&#45;&gt;Node3 -->
<g id="edge4" class="edge"><title>Node1&#45;&gt;Node3</title>
<path fill="none" stroke="midnightblue" d="M791.82,-121.773C712.274,-114.349 564.899,-99.6055 429.358,-80.1246"/>
<polygon fill="midnightblue" stroke="midnightblue" points="429.604,-76.6238 419.206,-78.6532 428.6,-83.5515 429.604,-76.6238"/>
</g>
<!-- Node15 -->
<g id="node30" class="node"><title>Node15</title>
<polygon fill="white" stroke="#bfbfbf" points="437,-58.5 437,-79.5 481,-79.5 481,-58.5 437,-58.5"/>
<text text-anchor="middle" x="459" y="-66.5" font-family="Helvetica,sans-Serif" font-size="10.00">time.h</text>
</g>
<!-- Node1&#45;&gt;Node15 -->
<g id="edge30" class="edge"><title>Node1&#45;&gt;Node15</title>
<path fill="none" stroke="midnightblue" d="M791.955,-123.21C722.327,-117.826 602.112,-105.866 491.197,-79.8935"/>
<polygon fill="midnightblue" stroke="midnightblue" points="491.721,-76.4203 481.181,-77.5034 490.096,-83.2291 491.721,-76.4203"/>
</g>
<!-- Node16 -->
<g id="node32" class="node"><title>Node16</title>
<polygon fill="white" stroke="#bfbfbf" points="499,-58.5 499,-79.5 549,-79.5 549,-58.5 499,-58.5"/>
<text text-anchor="middle" x="524" y="-66.5" font-family="Helvetica,sans-Serif" font-size="10.00">errno.h</text>
</g>
<!-- Node1&#45;&gt;Node16 -->
<g id="edge32" class="edge"><title>Node1&#45;&gt;Node16</title>
<path fill="none" stroke="midnightblue" d="M791.861,-120.311C734.756,-113.142 645.083,-100.288 559.056,-79.9852"/>
<polygon fill="midnightblue" stroke="midnightblue" points="559.669,-76.5329 549.128,-77.6045 558.037,-83.3399 559.669,-76.5329"/>
</g>
<!-- Node17 -->
<g id="node34" class="node"><title>Node17</title>
<polygon fill="white" stroke="#bfbfbf" points="566.5,-58.5 566.5,-79.5 625.5,-79.5 625.5,-58.5 566.5,-58.5"/>
<text text-anchor="middle" x="596" y="-66.5" font-family="Helvetica,sans-Serif" font-size="10.00">QPainter</text>
</g>
<!-- Node1&#45;&gt;Node17 -->
<g id="edge34" class="edge"><title>Node1&#45;&gt;Node17</title>
<path fill="none" stroke="midnightblue" d="M796.949,-116.498C755.394,-108.036 695.924,-95.4087 635.854,-80.3714"/>
<polygon fill="midnightblue" stroke="midnightblue" points="636.371,-76.8924 625.819,-77.838 634.658,-83.6794 636.371,-76.8924"/>
</g>
<!-- Node18 -->
<g id="node36" class="node"><title>Node18</title>
<polygon fill="white" stroke="#bfbfbf" points="643,-58.5 643,-79.5 747,-79.5 747,-58.5 643,-58.5"/>
<text text-anchor="middle" x="695" y="-66.5" font-family="Helvetica,sans-Serif" font-size="10.00">PGFallbackFonts.h</text>
</g>
<!-- Node1&#45;&gt;Node18 -->
<g id="edge36" class="edge"><title>Node1&#45;&gt;Node18</title>
<path fill="none" stroke="midnightblue" d="M821.931,-116.497C796.99,-107.164 760.326,-93.4447 732.808,-83.1475"/>
<polygon fill="midnightblue" stroke="midnightblue" points="733.714,-79.7497 723.122,-79.5231 731.261,-86.3058 733.714,-79.7497"/>
</g>
<!-- Node19 -->
<g id="node38" class="node"><title>Node19</title>
<polygon fill="white" stroke="#bfbfbf" points="764.5,-58.5 764.5,-79.5 841.5,-79.5 841.5,-58.5 764.5,-58.5"/>
<text text-anchor="middle" x="803" y="-66.5" font-family="Helvetica,sans-Serif" font-size="10.00">PGContext.h</text>
</g>
<!-- Node1&#45;&gt;Node19 -->
<g id="edge38" class="edge"><title>Node1&#45;&gt;Node19</title>
<path fill="none" stroke="midnightblue" d="M841.379,-116.362C834.82,-108.268 825.634,-96.9318 817.894,-87.3796"/>
<polygon fill="midnightblue" stroke="midnightblue" points="820.581,-85.1364 811.566,-79.5707 815.142,-89.5436 820.581,-85.1364"/>
</g>
<!-- Node20 -->
<g id="node40" class="node"><title>Node20</title>
<polygon fill="white" stroke="#bfbfbf" points="859,-58.5 859,-79.5 935,-79.5 935,-58.5 859,-58.5"/>
<text text-anchor="middle" x="897" y="-66.5" font-family="Helvetica,sans-Serif" font-size="10.00">PGSurface.h</text>
</g>
<!-- Node1&#45;&gt;Node20 -->
<g id="edge40" class="edge"><title>Node1&#45;&gt;Node20</title>
<path fill="none" stroke="midnightblue" d="M858.621,-116.362C865.18,-108.268 874.366,-96.9318 882.106,-87.3796"/>
<polygon fill="midnightblue" stroke="midnightblue" points="884.858,-89.5436 888.434,-79.5707 879.419,-85.1364 884.858,-89.5436"/>
</g>
<!-- Node21 -->
<g id="node42" class="node"><title>Node21</title>
<polygon fill="white" stroke="#bfbfbf" points="952.5,-58.5 952.5,-79.5 1013.5,-79.5 1013.5,-58.5 952.5,-58.5"/>
<text text-anchor="middle" x="983" y="-66.5" font-family="Helvetica,sans-Serif" font-size="10.00">PGFont.h</text>
</g>
<!-- Node1&#45;&gt;Node21 -->
<g id="edge42" class="edge"><title>Node1&#45;&gt;Node21</title>
<path fill="none" stroke="midnightblue" d="M874.085,-116.497C895.139,-107.315 925.927,-93.8889 949.402,-83.6516"/>
<polygon fill="midnightblue" stroke="midnightblue" points="950.877,-86.8268 958.644,-79.6212 948.079,-80.4104 950.877,-86.8268"/>
</g>
<!-- Node22 -->
<g id="node44" class="node"><title>Node22</title>
<polygon fill="white" stroke="#bfbfbf" points="1031,-58.5 1031,-79.5 1093,-79.5 1093,-58.5 1031,-58.5"/>
<text text-anchor="middle" x="1062" y="-66.5" font-family="Helvetica,sans-Serif" font-size="10.00">sys/wait.h</text>
</g>
<!-- Node1&#45;&gt;Node22 -->
<g id="edge44" class="edge"><title>Node1&#45;&gt;Node22</title>
<path fill="none" stroke="midnightblue" d="M888.601,-116.471C921.353,-107.534 969.856,-94.2876 1021.06,-80.2545"/>
<polygon fill="midnightblue" stroke="midnightblue" points="1022.27,-83.5516 1030.99,-77.5324 1020.42,-76.8006 1022.27,-83.5516"/>
</g>
<!-- Node23 -->
<g id="node46" class="node"><title>Node23</title>
<polygon fill="white" stroke="#bfbfbf" points="1110.5,-58.5 1110.5,-79.5 1181.5,-79.5 1181.5,-58.5 1110.5,-58.5"/>
<text text-anchor="middle" x="1146" y="-66.5" font-family="Helvetica,sans-Serif" font-size="10.00">HostBase.h</text>
</g>
<!-- Node1&#45;&gt;Node23 -->
<g id="edge46" class="edge"><title>Node1&#45;&gt;Node23</title>
<path fill="none" stroke="midnightblue" d="M908.001,-117.211C956.907,-108.723 1028.97,-95.6728 1100.01,-80.3585"/>
<polygon fill="midnightblue" stroke="midnightblue" points="1100.99,-83.726 1110.02,-78.1827 1099.51,-76.8856 1100.99,-83.726"/>
</g>
<!-- Node24 -->
<g id="node48" class="node"><title>Node24</title>
<polygon fill="white" stroke="#bfbfbf" points="1198.5,-58.5 1198.5,-79.5 1279.5,-79.5 1279.5,-58.5 1198.5,-58.5"/>
<text text-anchor="middle" x="1239" y="-66.5" font-family="Helvetica,sans-Serif" font-size="10.00">Localization.h</text>
</g>
<!-- Node1&#45;&gt;Node24 -->
<g id="edge48" class="edge"><title>Node1&#45;&gt;Node24</title>
<path fill="none" stroke="midnightblue" d="M908.289,-120.443C974.072,-112.708 1084.47,-98.7163 1188.38,-80.1925"/>
<polygon fill="midnightblue" stroke="midnightblue" points="1189.19,-83.6026 1198.41,-78.3858 1187.95,-76.7134 1189.19,-83.6026"/>
</g>
<!-- Node25 -->
<g id="node50" class="node"><title>Node25</title>
<polygon fill="white" stroke="#bfbfbf" points="1296.5,-58.5 1296.5,-79.5 1359.5,-79.5 1359.5,-58.5 1296.5,-58.5"/>
<text text-anchor="middle" x="1328" y="-66.5" font-family="Helvetica,sans-Serif" font-size="10.00">Logging.h</text>
</g>
<!-- Node1&#45;&gt;Node25 -->
<g id="edge50" class="edge"><title>Node1&#45;&gt;Node25</title>
<path fill="none" stroke="midnightblue" d="M908.184,-123.755C990.528,-118.502 1145.82,-106.167 1286.15,-80.1325"/>
<polygon fill="midnightblue" stroke="midnightblue" points="1287.05,-83.5251 1296.23,-78.2342 1285.76,-76.646 1287.05,-83.5251"/>
</g>
<!-- Node26 -->
<g id="node52" class="node"><title>Node26</title>
<polygon fill="white" stroke="#bfbfbf" points="1376.5,-58.5 1376.5,-79.5 1439.5,-79.5 1439.5,-58.5 1376.5,-58.5"/>
<text text-anchor="middle" x="1408" y="-66.5" font-family="Helvetica,sans-Serif" font-size="10.00">Settings.h</text>
</g>
<!-- Node1&#45;&gt;Node26 -->
<g id="edge52" class="edge"><title>Node1&#45;&gt;Node26</title>
<path fill="none" stroke="midnightblue" d="M908.329,-125.087C1002.87,-121.248 1195.45,-110.36 1366.32,-80.0684"/>
<polygon fill="midnightblue" stroke="midnightblue" points="1367.02,-83.4981 1376.24,-78.2823 1365.78,-76.6087 1367.02,-83.4981"/>
</g>
<!-- Node3&#45;&gt;Node2 -->
<g id="edge6" class="edge"><title>Node3&#45;&gt;Node2</title>
<path fill="none" stroke="midnightblue" d="M314.765,-62.1434C258.243,-54.3779 165.295,-40.6053 76.7917,-22.2512"/>
<polygon fill="midnightblue" stroke="midnightblue" points="77.3648,-18.7953 66.8593,-20.1678 75.9278,-25.6463 77.3648,-18.7953"/>
</g>
<!-- Node4 -->
<g id="node8" class="node"><title>Node4</title>
<polygon fill="white" stroke="#bfbfbf" points="83.5,-0.5 83.5,-21.5 124.5,-21.5 124.5,-0.5 83.5,-0.5"/>
<text text-anchor="middle" x="104" y="-8.5" font-family="Helvetica,sans-Serif" font-size="10.00">glib.h</text>
</g>
<!-- Node3&#45;&gt;Node4 -->
<g id="edge8" class="edge"><title>Node3&#45;&gt;Node4</title>
<path fill="none" stroke="midnightblue" d="M314.827,-61.0482C269.254,-53.5361 201.261,-40.9643 134.594,-22.1656"/>
<polygon fill="midnightblue" stroke="midnightblue" points="135.348,-18.7407 124.771,-19.3467 133.417,-25.4692 135.348,-18.7407"/>
</g>
<!-- Node5 -->
<g id="node10" class="node"><title>Node5</title>
<polygon fill="white" stroke="#bfbfbf" points="142,-0.5 142,-21.5 188,-21.5 188,-0.5 142,-0.5"/>
<text text-anchor="middle" x="165" y="-8.5" font-family="Helvetica,sans-Serif" font-size="10.00">vector</text>
</g>
<!-- Node3&#45;&gt;Node5 -->
<g id="edge10" class="edge"><title>Node3&#45;&gt;Node5</title>
<path fill="none" stroke="midnightblue" d="M326.265,-58.4898C293.791,-49.9428 246.969,-37.2458 197.592,-22.0662"/>
<polygon fill="midnightblue" stroke="midnightblue" points="198.604,-18.7157 188.017,-19.1007 196.534,-25.4024 198.604,-18.7157"/>
</g>
<!-- Node6 -->
<g id="node12" class="node"><title>Node6</title>
<polygon fill="white" stroke="#bfbfbf" points="205.5,-0.5 205.5,-21.5 248.5,-21.5 248.5,-0.5 205.5,-0.5"/>
<text text-anchor="middle" x="227" y="-8.5" font-family="Helvetica,sans-Serif" font-size="10.00">string</text>
</g>
<!-- Node3&#45;&gt;Node6 -->
<g id="edge12" class="edge"><title>Node3&#45;&gt;Node6</title>
<path fill="none" stroke="midnightblue" d="M341.647,-58.4966C318.274,-48.8134 283.503,-34.4082 258.385,-24.0025"/>
<polygon fill="midnightblue" stroke="midnightblue" points="259.521,-20.6844 248.942,-20.0904 256.841,-27.1514 259.521,-20.6844"/>
</g>
<!-- Node7 -->
<g id="node14" class="node"><title>Node7</title>
<polygon fill="white" stroke="#bfbfbf" points="265.5,-0.5 265.5,-21.5 320.5,-21.5 320.5,-0.5 265.5,-0.5"/>
<text text-anchor="middle" x="293" y="-8.5" font-family="Helvetica,sans-Serif" font-size="10.00">QObject</text>
</g>
<!-- Node3&#45;&gt;Node7 -->
<g id="edge14" class="edge"><title>Node3&#45;&gt;Node7</title>
<path fill="none" stroke="midnightblue" d="M353.427,-58.3619C342.579,-49.859 327.166,-37.7785 314.621,-27.9466"/>
<polygon fill="midnightblue" stroke="midnightblue" points="316.516,-24.9848 306.487,-21.5707 312.198,-30.4942 316.516,-24.9848"/>
</g>
<!-- Node8 -->
<g id="node16" class="node"><title>Node8</title>
<polygon fill="white" stroke="#bfbfbf" points="338,-0.5 338,-21.5 396,-21.5 396,-0.5 338,-0.5"/>
<text text-anchor="middle" x="367" y="-8.5" font-family="Helvetica,sans-Serif" font-size="10.00">QWidget</text>
</g>
<!-- Node3&#45;&gt;Node8 -->
<g id="edge16" class="edge"><title>Node3&#45;&gt;Node8</title>
<path fill="none" stroke="midnightblue" d="M367,-58.3619C367,-50.9219 367,-40.7427 367,-31.7276"/>
<polygon fill="midnightblue" stroke="midnightblue" points="370.5,-31.5706 367,-21.5707 363.5,-31.5707 370.5,-31.5706"/>
</g>
<!-- Node9 -->
<g id="node18" class="node"><title>Node9</title>
<polygon fill="white" stroke="#bfbfbf" points="413.5,-0.5 413.5,-21.5 472.5,-21.5 472.5,-0.5 413.5,-0.5"/>
<text text-anchor="middle" x="443" y="-8.5" font-family="Helvetica,sans-Serif" font-size="10.00">QPointer</text>
</g>
<!-- Node3&#45;&gt;Node9 -->
<g id="edge18" class="edge"><title>Node3&#45;&gt;Node9</title>
<path fill="none" stroke="midnightblue" d="M380.94,-58.3619C392.188,-49.7773 408.216,-37.5459 421.165,-27.6636"/>
<polygon fill="midnightblue" stroke="midnightblue" points="423.323,-30.4198 429.149,-21.5707 419.076,-24.8551 423.323,-30.4198"/>
</g>
<!-- Node10 -->
<g id="node20" class="node"><title>Node10</title>
<polygon fill="white" stroke="#bfbfbf" points="490,-0.5 490,-21.5 588,-21.5 588,-0.5 490,-0.5"/>
<text text-anchor="middle" x="539" y="-8.5" font-family="Helvetica,sans-Serif" font-size="10.00">QGraphicsObject</text>
</g>
<!-- Node3&#45;&gt;Node10 -->
<g id="edge20" class="edge"><title>Node3&#45;&gt;Node10</title>
<path fill="none" stroke="midnightblue" d="M398.148,-58.4966C426.189,-49.0411 467.582,-35.0829 498.245,-24.7428"/>
<polygon fill="midnightblue" stroke="midnightblue" points="499.436,-28.035 507.794,-21.5231 497.2,-21.4019 499.436,-28.035"/>
</g>
<!-- Node11 -->
<g id="node22" class="node"><title>Node11</title>
<polygon fill="white" stroke="#bfbfbf" points="606,-0.5 606,-21.5 718,-21.5 718,-0.5 606,-0.5"/>
<text text-anchor="middle" x="662" y="-8.5" font-family="Helvetica,sans-Serif" font-size="10.00">QPropertyAnimation</text>
</g>
<!-- Node3&#45;&gt;Node11 -->
<g id="edge22" class="edge"><title>Node3&#45;&gt;Node11</title>
<path fill="none" stroke="midnightblue" d="M419.061,-58.7643C469.097,-48.9266 544.813,-34.0402 598.396,-23.5051"/>
<polygon fill="midnightblue" stroke="midnightblue" points="599.331,-26.8884 608.468,-21.5249 597.981,-20.0199 599.331,-26.8884"/>
</g>
<!-- Node12 -->
<g id="node24" class="node"><title>Node12</title>
<polygon fill="white" stroke="#bfbfbf" points="736,-0.5 736,-21.5 872,-21.5 872,-0.5 736,-0.5"/>
<text text-anchor="middle" x="804" y="-8.5" font-family="Helvetica,sans-Serif" font-size="10.00">QParallelAnimationGroup</text>
</g>
<!-- Node3&#45;&gt;Node12 -->
<g id="edge24" class="edge"><title>Node3&#45;&gt;Node12</title>
<path fill="none" stroke="midnightblue" d="M419.21,-59.3775C422.181,-58.8946 425.127,-58.4317 428,-58 557.132,-38.6002 592.58,-39.4123 725.803,-22.1306"/>
<polygon fill="midnightblue" stroke="midnightblue" points="726.529,-25.5655 735.991,-20.7986 725.622,-18.6246 726.529,-25.5655"/>
</g>
<!-- Node13 -->
<g id="node26" class="node"><title>Node13</title>
<polygon fill="white" stroke="#bfbfbf" points="889.5,-0.5 889.5,-21.5 966.5,-21.5 966.5,-0.5 889.5,-0.5"/>
<text text-anchor="middle" x="928" y="-8.5" font-family="Helvetica,sans-Serif" font-size="10.00">QTextLayout</text>
</g>
<!-- Node3&#45;&gt;Node13 -->
<g id="edge26" class="edge"><title>Node3&#45;&gt;Node13</title>
<path fill="none" stroke="midnightblue" d="M419.191,-59.2375C422.166,-58.7903 425.119,-58.3734 428,-58 625.066,-32.4651 679.69,-52.4345 879.43,-22.0625"/>
<polygon fill="midnightblue" stroke="midnightblue" points="880.013,-25.5141 889.362,-20.5294 878.945,-18.5961 880.013,-25.5141"/>
</g>
<!-- Node14 -->
<g id="node28" class="node"><title>Node14</title>
<polygon fill="white" stroke="#bfbfbf" points="983.5,-0.5 983.5,-21.5 1074.5,-21.5 1074.5,-0.5 983.5,-0.5"/>
<text text-anchor="middle" x="1029" y="-8.5" font-family="Helvetica,sans-Serif" font-size="10.00">QSocketNotifier</text>
</g>
<!-- Node3&#45;&gt;Node14 -->
<g id="edge28" class="edge"><title>Node3&#45;&gt;Node14</title>
<path fill="none" stroke="midnightblue" d="M419.185,-59.1905C422.162,-58.7553 425.116,-58.3538 428,-58 666.518,-28.7399 731.75,-53.6875 973.263,-22.0855"/>
<polygon fill="midnightblue" stroke="midnightblue" points="973.956,-25.5242 983.409,-20.7384 973.035,-18.5851 973.956,-25.5242"/>
</g>
</g>
</svg>
