<?xml version="1.0" encoding="UTF-8" standalone="no"?>
<!DOCTYPE svg PUBLIC "-//W3C//DTD SVG 1.1//EN"
 "http://www.w3.org/Graphics/SVG/1.1/DTD/svg11.dtd">
<!-- Generated by graphviz version 2.26.3 (20100126.1600)
 -->
<!-- Title: BtDeviceClass.h Pages: 1 -->
<svg width="416pt" height="88pt"
 viewBox="0.00 0.00 416.00 88.00" xmlns="http://www.w3.org/2000/svg" xmlns:xlink="http://www.w3.org/1999/xlink">
<g id="graph1" class="graph" transform="scale(1 1) rotate(0) translate(4 84)">
<title>BtDeviceClass.h</title>
<polygon fill="white" stroke="white" points="-4,5 -4,-84 413,-84 413,5 -4,5"/>
<!-- Node1 -->
<g id="node1" class="node"><title>Node1</title>
<polygon fill="#bfbfbf" stroke="black" points="161.5,-58.5 161.5,-79.5 254.5,-79.5 254.5,-58.5 161.5,-58.5"/>
<text text-anchor="middle" x="208" y="-66.5" font-family="Helvetica,sans-Serif" font-size="10.00">BtDeviceClass.h</text>
</g>
<!-- Node2 -->
<g id="node3" class="node"><title>Node2</title>
<a xlink:href="BtDeviceClass_8cpp.htm" target="_top" xlink:title="BtDeviceClass.cpp">
<polygon fill="white" stroke="black" points="0,-0.5 0,-21.5 104,-21.5 104,-0.5 0,-0.5"/>
<text text-anchor="middle" x="52" y="-8.5" font-family="Helvetica,sans-Serif" font-size="10.00">BtDeviceClass.cpp</text>
</a>
</g>
<!-- Node1&#45;&gt;Node2 -->
<g id="edge2" class="edge"><title>Node1&#45;&gt;Node2</title>
<path fill="none" stroke="midnightblue" d="M170.37,-55.0095C142.648,-44.7023 105.532,-30.903 80.3034,-21.5231"/>
<polygon fill="midnightblue" stroke="midnightblue" points="169.157,-58.2923 179.75,-58.4966 171.596,-51.7311 169.157,-58.2923"/>
</g>
<!-- Node3 -->
<g id="node5" class="node"><title>Node3</title>
<a xlink:href="StatusBarServicesConnector_8cpp.htm" target="_top" xlink:title="StatusBarServicesConnector.cpp">
<polygon fill="white" stroke="black" points="122,-0.5 122,-21.5 294,-21.5 294,-0.5 122,-0.5"/>
<text text-anchor="middle" x="208" y="-8.5" font-family="Helvetica,sans-Serif" font-size="10.00">StatusBarServicesConnector.cpp</text>
</a>
</g>
<!-- Node1&#45;&gt;Node3 -->
<g id="edge4" class="edge"><title>Node1&#45;&gt;Node3</title>
<path fill="none" stroke="midnightblue" d="M208,-48.1906C208,-39.1684 208,-28.9941 208,-21.5707"/>
<polygon fill="midnightblue" stroke="midnightblue" points="204.5,-48.3619 208,-58.3619 211.5,-48.3619 204.5,-48.3619"/>
</g>
<!-- Node4 -->
<g id="node7" class="node"><title>Node4</title>
<a xlink:href="SystemMenu_8cpp.htm" target="_top" xlink:title="SystemMenu.cpp">
<polygon fill="white" stroke="black" points="311.5,-0.5 311.5,-21.5 408.5,-21.5 408.5,-0.5 311.5,-0.5"/>
<text text-anchor="middle" x="360" y="-8.5" font-family="Helvetica,sans-Serif" font-size="10.00">SystemMenu.cpp</text>
</a>
</g>
<!-- Node1&#45;&gt;Node4 -->
<g id="edge6" class="edge"><title>Node1&#45;&gt;Node4</title>
<path fill="none" stroke="midnightblue" d="M245.019,-54.8742C271.992,-44.5819 307.948,-30.862 332.422,-21.5231"/>
<polygon fill="midnightblue" stroke="midnightblue" points="243.621,-51.6615 235.526,-58.4966 246.117,-58.2015 243.621,-51.6615"/>
</g>
</g>
</svg>
