<?xml version="1.0" encoding="UTF-8" standalone="no"?>
<!DOCTYPE svg PUBLIC "-//W3C//DTD SVG 1.1//EN"
 "http://www.w3.org/Graphics/SVG/1.1/DTD/svg11.dtd">
<!-- Generated by graphviz version 2.26.3 (20100126.1600)
 -->
<!-- Title: CardWindowManager.h Pages: 1 -->
<svg width="953pt" height="204pt"
 viewBox="0.00 0.00 953.00 204.00" xmlns="http://www.w3.org/2000/svg" xmlns:xlink="http://www.w3.org/1999/xlink">
<g id="graph1" class="graph" transform="scale(1 1) rotate(0) translate(4 200)">
<title>CardWindowManager.h</title>
<polygon fill="white" stroke="white" points="-4,5 -4,-200 950,-200 950,5 -4,5"/>
<!-- Node1 -->
<g id="node1" class="node"><title>Node1</title>
<polygon fill="#bfbfbf" stroke="black" points="449,-174.5 449,-195.5 577,-195.5 577,-174.5 449,-174.5"/>
<text text-anchor="middle" x="513" y="-182.5" font-family="Helvetica,sans-Serif" font-size="10.00">CardWindowManager.h</text>
</g>
<!-- Node2 -->
<g id="node3" class="node"><title>Node2</title>
<polygon fill="white" stroke="#bfbfbf" points="-0.5,-0.5 -0.5,-21.5 66.5,-21.5 66.5,-0.5 -0.5,-0.5"/>
<text text-anchor="middle" x="33" y="-8.5" font-family="Helvetica,sans-Serif" font-size="10.00">Common.h</text>
</g>
<!-- Node1&#45;&gt;Node2 -->
<g id="edge2" class="edge"><title>Node1&#45;&gt;Node2</title>
<path fill="none" stroke="midnightblue" d="M448.765,-183.427C324.18,-179.709 59.4808,-168.297 32,-138 5.59748,-108.892 16.4432,-58.7562 25.4694,-30.9813"/>
<polygon fill="midnightblue" stroke="midnightblue" points="28.7802,-32.1165 28.7582,-21.5216 22.1684,-29.8177 28.7802,-32.1165"/>
</g>
<!-- Node3 -->
<g id="node5" class="node"><title>Node3</title>
<a xlink:href="WindowManagerBase_8h.htm" target="_top" xlink:title="WindowManagerBase.h">
<polygon fill="white" stroke="black" points="40.5,-116.5 40.5,-137.5 169.5,-137.5 169.5,-116.5 40.5,-116.5"/>
<text text-anchor="middle" x="105" y="-124.5" font-family="Helvetica,sans-Serif" font-size="10.00">WindowManagerBase.h</text>
</a>
</g>
<!-- Node1&#45;&gt;Node3 -->
<g id="edge4" class="edge"><title>Node1&#45;&gt;Node3</title>
<path fill="none" stroke="midnightblue" d="M448.751,-176.184C383.467,-167.18 279.142,-152.67 179.782,-138.25"/>
<polygon fill="midnightblue" stroke="midnightblue" points="180.273,-134.785 169.874,-136.81 179.266,-141.712 180.273,-134.785"/>
</g>
<!-- Node9 -->
<g id="node19" class="node"><title>Node9</title>
<polygon fill="white" stroke="#bfbfbf" points="187,-116.5 187,-137.5 277,-137.5 277,-116.5 187,-116.5"/>
<text text-anchor="middle" x="232" y="-124.5" font-family="Helvetica,sans-Serif" font-size="10.00">QStateMachine</text>
</g>
<!-- Node1&#45;&gt;Node9 -->
<g id="edge20" class="edge"><title>Node1&#45;&gt;Node9</title>
<path fill="none" stroke="midnightblue" d="M462.113,-174.497C412.738,-164.305 338.023,-148.884 287.226,-138.399"/>
<polygon fill="midnightblue" stroke="midnightblue" points="287.901,-134.965 277.4,-136.371 286.486,-141.82 287.901,-134.965"/>
</g>
<!-- Node10 -->
<g id="node21" class="node"><title>Node10</title>
<polygon fill="white" stroke="#bfbfbf" points="295,-116.5 295,-137.5 451,-137.5 451,-116.5 295,-116.5"/>
<text text-anchor="middle" x="373" y="-124.5" font-family="Helvetica,sans-Serif" font-size="10.00">QGraphicsSceneMouseEvent</text>
</g>
<!-- Node1&#45;&gt;Node10 -->
<g id="edge22" class="edge"><title>Node1&#45;&gt;Node10</title>
<path fill="none" stroke="midnightblue" d="M487.647,-174.497C465.387,-165.275 432.788,-151.769 408.037,-141.515"/>
<polygon fill="midnightblue" stroke="midnightblue" points="409.216,-138.215 398.637,-137.621 406.536,-144.682 409.216,-138.215"/>
</g>
<!-- Node11 -->
<g id="node23" class="node"><title>Node11</title>
<polygon fill="white" stroke="#bfbfbf" points="468.5,-116.5 468.5,-137.5 557.5,-137.5 557.5,-116.5 468.5,-116.5"/>
<text text-anchor="middle" x="513" y="-124.5" font-family="Helvetica,sans-Serif" font-size="10.00">QGestureEvent</text>
</g>
<!-- Node1&#45;&gt;Node11 -->
<g id="edge24" class="edge"><title>Node1&#45;&gt;Node11</title>
<path fill="none" stroke="midnightblue" d="M513,-174.362C513,-166.922 513,-156.743 513,-147.728"/>
<polygon fill="midnightblue" stroke="midnightblue" points="516.5,-147.571 513,-137.571 509.5,-147.571 516.5,-147.571"/>
</g>
<!-- Node12 -->
<g id="node25" class="node"><title>Node12</title>
<polygon fill="white" stroke="#bfbfbf" points="575,-116.5 575,-137.5 711,-137.5 711,-116.5 575,-116.5"/>
<text text-anchor="middle" x="643" y="-124.5" font-family="Helvetica,sans-Serif" font-size="10.00">QParallelAnimationGroup</text>
</g>
<!-- Node1&#45;&gt;Node12 -->
<g id="edge26" class="edge"><title>Node1&#45;&gt;Node12</title>
<path fill="none" stroke="midnightblue" d="M536.542,-174.497C557.029,-165.356 586.947,-152.008 609.854,-141.788"/>
<polygon fill="midnightblue" stroke="midnightblue" points="611.488,-144.892 619.194,-137.621 608.635,-138.499 611.488,-144.892"/>
</g>
<!-- Node13 -->
<g id="node27" class="node"><title>Node13</title>
<polygon fill="white" stroke="#bfbfbf" points="729,-116.5 729,-137.5 775,-137.5 775,-116.5 729,-116.5"/>
<text text-anchor="middle" x="752" y="-124.5" font-family="Helvetica,sans-Serif" font-size="10.00">QMap</text>
</g>
<!-- Node1&#45;&gt;Node13 -->
<g id="edge28" class="edge"><title>Node1&#45;&gt;Node13</title>
<path fill="none" stroke="midnightblue" d="M566.58,-174.491C606.312,-166.322 661.937,-154.101 718.796,-138.149"/>
<polygon fill="midnightblue" stroke="midnightblue" points="720.01,-141.443 728.673,-135.344 718.098,-134.709 720.01,-141.443"/>
</g>
<!-- Node14 -->
<g id="node29" class="node"><title>Node14</title>
<polygon fill="white" stroke="#bfbfbf" points="792.5,-116.5 792.5,-137.5 877.5,-137.5 877.5,-116.5 792.5,-116.5"/>
<text text-anchor="middle" x="835" y="-124.5" font-family="Helvetica,sans-Serif" font-size="10.00">QEasingCurve</text>
</g>
<!-- Node1&#45;&gt;Node14 -->
<g id="edge30" class="edge"><title>Node1&#45;&gt;Node14</title>
<path fill="none" stroke="midnightblue" d="M577.198,-174.622C629.832,-165.941 706.522,-152.899 782.257,-138.29"/>
<polygon fill="midnightblue" stroke="midnightblue" points="783.299,-141.653 792.45,-136.313 781.966,-134.781 783.299,-141.653"/>
</g>
<!-- Node15 -->
<g id="node31" class="node"><title>Node15</title>
<polygon fill="white" stroke="#bfbfbf" points="895,-116.5 895,-137.5 945,-137.5 945,-116.5 895,-116.5"/>
<text text-anchor="middle" x="920" y="-124.5" font-family="Helvetica,sans-Serif" font-size="10.00">stdint.h</text>
</g>
<!-- Node1&#45;&gt;Node15 -->
<g id="edge32" class="edge"><title>Node1&#45;&gt;Node15</title>
<path fill="none" stroke="midnightblue" d="M577.317,-180.58C650.038,-174.76 771.979,-162.519 885.033,-137.888"/>
<polygon fill="midnightblue" stroke="midnightblue" points="885.889,-141.284 894.894,-135.703 884.374,-134.45 885.889,-141.284"/>
</g>
<!-- Node3&#45;&gt;Node2 -->
<g id="edge6" class="edge"><title>Node3&#45;&gt;Node2</title>
<path fill="none" stroke="midnightblue" d="M88.5712,-116.338C76.7451,-107.844 61.2972,-94.9281 52,-80 42.7876,-65.2081 37.9666,-45.914 35.4903,-31.4904"/>
<polygon fill="midnightblue" stroke="midnightblue" points="38.9477,-30.9443 34.0198,-21.5652 32.0233,-31.9702 38.9477,-30.9443"/>
</g>
<!-- Node4 -->
<g id="node8" class="node"><title>Node4</title>
<polygon fill="white" stroke="#bfbfbf" points="61,-58.5 61,-79.5 149,-79.5 149,-58.5 61,-58.5"/>
<text text-anchor="middle" x="105" y="-66.5" font-family="Helvetica,sans-Serif" font-size="10.00">QGraphicsItem</text>
</g>
<!-- Node3&#45;&gt;Node4 -->
<g id="edge8" class="edge"><title>Node3&#45;&gt;Node4</title>
<path fill="none" stroke="midnightblue" d="M105,-116.362C105,-108.922 105,-98.7427 105,-89.7276"/>
<polygon fill="midnightblue" stroke="midnightblue" points="108.5,-89.5706 105,-79.5707 101.5,-89.5707 108.5,-89.5706"/>
</g>
<!-- Node5 -->
<g id="node10" class="node"><title>Node5</title>
<polygon fill="white" stroke="#bfbfbf" points="166.5,-58.5 166.5,-79.5 225.5,-79.5 225.5,-58.5 166.5,-58.5"/>
<text text-anchor="middle" x="196" y="-66.5" font-family="Helvetica,sans-Serif" font-size="10.00">QPainter</text>
</g>
<!-- Node3&#45;&gt;Node5 -->
<g id="edge10" class="edge"><title>Node3&#45;&gt;Node5</title>
<path fill="none" stroke="midnightblue" d="M121.691,-116.362C135.416,-107.614 155.084,-95.0786 170.737,-85.1015"/>
<polygon fill="midnightblue" stroke="midnightblue" points="172.863,-87.8969 179.415,-79.5707 169.101,-81.994 172.863,-87.8969"/>
</g>
<!-- Node6 -->
<g id="node12" class="node"><title>Node6</title>
<a xlink:href="UiNavigationController_8h.htm" target="_top" xlink:title="UiNavigationController.h">
<polygon fill="white" stroke="black" points="242.5,-58.5 242.5,-79.5 373.5,-79.5 373.5,-58.5 242.5,-58.5"/>
<text text-anchor="middle" x="308" y="-66.5" font-family="Helvetica,sans-Serif" font-size="10.00">UiNavigationController.h</text>
</a>
</g>
<!-- Node3&#45;&gt;Node6 -->
<g id="edge12" class="edge"><title>Node3&#45;&gt;Node6</title>
<path fill="none" stroke="midnightblue" d="M141.762,-116.497C175.286,-106.918 224.982,-92.7196 261.304,-82.3418"/>
<polygon fill="midnightblue" stroke="midnightblue" points="262.516,-85.6357 271.169,-79.5231 260.592,-78.905 262.516,-85.6357"/>
</g>
<!-- Node6&#45;&gt;Node2 -->
<g id="edge14" class="edge"><title>Node6&#45;&gt;Node2</title>
<path fill="none" stroke="midnightblue" d="M258.2,-58.4966C206.468,-47.586 126.311,-30.6802 76.8852,-20.2558"/>
<polygon fill="midnightblue" stroke="midnightblue" points="77.3329,-16.7733 66.8259,-18.1342 75.8883,-23.6226 77.3329,-16.7733"/>
</g>
<!-- Node7 -->
<g id="node15" class="node"><title>Node7</title>
<polygon fill="white" stroke="#bfbfbf" points="240.5,-0.5 240.5,-21.5 295.5,-21.5 295.5,-0.5 240.5,-0.5"/>
<text text-anchor="middle" x="268" y="-8.5" font-family="Helvetica,sans-Serif" font-size="10.00">QObject</text>
</g>
<!-- Node6&#45;&gt;Node7 -->
<g id="edge16" class="edge"><title>Node6&#45;&gt;Node7</title>
<path fill="none" stroke="midnightblue" d="M300.663,-58.3619C295.194,-50.4313 287.578,-39.3885 281.076,-29.9606"/>
<polygon fill="midnightblue" stroke="midnightblue" points="283.849,-27.8157 275.29,-21.5707 278.086,-31.7899 283.849,-27.8157"/>
</g>
<!-- Node8 -->
<g id="node17" class="node"><title>Node8</title>
<polygon fill="white" stroke="#bfbfbf" points="313,-0.5 313,-21.5 383,-21.5 383,-0.5 313,-0.5"/>
<text text-anchor="middle" x="348" y="-8.5" font-family="Helvetica,sans-Serif" font-size="10.00">QKeyEvent</text>
</g>
<!-- Node6&#45;&gt;Node8 -->
<g id="edge18" class="edge"><title>Node6&#45;&gt;Node8</title>
<path fill="none" stroke="midnightblue" d="M315.337,-58.3619C320.806,-50.4313 328.422,-39.3885 334.924,-29.9606"/>
<polygon fill="midnightblue" stroke="midnightblue" points="337.914,-31.7899 340.71,-21.5707 332.151,-27.8157 337.914,-31.7899"/>
</g>
</g>
</svg>
