<?xml version="1.0" encoding="UTF-8" standalone="no"?>
<!DOCTYPE svg PUBLIC "-//W3C//DTD SVG 1.1//EN"
 "http://www.w3.org/Graphics/SVG/1.1/DTD/svg11.dtd">
<!-- Generated by graphviz version 2.26.3 (20100126.1600)
 -->
<!-- Title: CardWindowManagerStates.h Pages: 1 -->
<svg width="336pt" height="88pt"
 viewBox="0.00 0.00 336.00 88.00" xmlns="http://www.w3.org/2000/svg" xmlns:xlink="http://www.w3.org/1999/xlink">
<g id="graph1" class="graph" transform="scale(1 1) rotate(0) translate(4 84)">
<title>CardWindowManagerStates.h</title>
<polygon fill="white" stroke="white" points="-4,5 -4,-84 333,-84 333,5 -4,5"/>
<!-- Node1 -->
<g id="node1" class="node"><title>Node1</title>
<polygon fill="#bfbfbf" stroke="black" points="77,-58.5 77,-79.5 235,-79.5 235,-58.5 77,-58.5"/>
<text text-anchor="middle" x="156" y="-66.5" font-family="Helvetica,sans-Serif" font-size="10.00">CardWindowManagerStates.h</text>
</g>
<!-- Node2 -->
<g id="node3" class="node"><title>Node2</title>
<a xlink:href="CardWindowManager_8cpp.htm" target="_top" xlink:title="CardWindowManager.cpp">
<polygon fill="white" stroke="black" points="0,-0.5 0,-21.5 140,-21.5 140,-0.5 0,-0.5"/>
<text text-anchor="middle" x="70" y="-8.5" font-family="Helvetica,sans-Serif" font-size="10.00">CardWindowManager.cpp</text>
</a>
</g>
<!-- Node1&#45;&gt;Node2 -->
<g id="edge2" class="edge"><title>Node1&#45;&gt;Node2</title>
<path fill="none" stroke="midnightblue" d="M131.595,-52.5407C116.851,-42.5973 98.4952,-30.2177 85.6737,-21.5707"/>
<polygon fill="midnightblue" stroke="midnightblue" points="129.979,-55.6722 140.226,-58.3619 133.893,-49.8687 129.979,-55.6722"/>
</g>
<!-- Node3 -->
<g id="node5" class="node"><title>Node3</title>
<a xlink:href="CardWindowManagerStates_8cpp.htm" target="_top" xlink:title="CardWindowManagerStates.cpp">
<polygon fill="white" stroke="black" points="158,-0.5 158,-21.5 328,-21.5 328,-0.5 158,-0.5"/>
<text text-anchor="middle" x="243" y="-8.5" font-family="Helvetica,sans-Serif" font-size="10.00">CardWindowManagerStates.cpp</text>
</a>
</g>
<!-- Node1&#45;&gt;Node3 -->
<g id="edge4" class="edge"><title>Node1&#45;&gt;Node3</title>
<path fill="none" stroke="midnightblue" d="M180.689,-52.5407C195.604,-42.5973 214.173,-30.2177 227.144,-21.5707"/>
<polygon fill="midnightblue" stroke="midnightblue" points="178.336,-49.9027 171.957,-58.3619 182.219,-55.727 178.336,-49.9027"/>
</g>
</g>
</svg>
