<?xml version="1.0" encoding="UTF-8" standalone="no"?>
<!DOCTYPE svg PUBLIC "-//W3C//DTD SVG 1.1//EN"
 "http://www.w3.org/Graphics/SVG/1.1/DTD/svg11.dtd">
<!-- Generated by graphviz version 2.26.3 (20100126.1600)
 -->
<!-- Title: CardTransition.h Pages: 1 -->
<svg width="250pt" height="88pt"
 viewBox="0.00 0.00 250.00 88.00" xmlns="http://www.w3.org/2000/svg" xmlns:xlink="http://www.w3.org/1999/xlink">
<g id="graph1" class="graph" transform="scale(1 1) rotate(0) translate(4 84)">
<title>CardTransition.h</title>
<polygon fill="white" stroke="white" points="-4,5 -4,-84 247,-84 247,5 -4,5"/>
<!-- Node1 -->
<g id="node1" class="node"><title>Node1</title>
<polygon fill="#bfbfbf" stroke="black" points="76.5,-58.5 76.5,-79.5 171.5,-79.5 171.5,-58.5 76.5,-58.5"/>
<text text-anchor="middle" x="124" y="-66.5" font-family="Helvetica,sans-Serif" font-size="10.00">CardTransition.h</text>
</g>
<!-- Node2 -->
<g id="node3" class="node"><title>Node2</title>
<a xlink:href="CardHostWindow_8cpp.htm" target="_top" xlink:title="CardHostWindow.cpp">
<polygon fill="white" stroke="black" points="-0.5,-0.5 -0.5,-21.5 118.5,-21.5 118.5,-0.5 -0.5,-0.5"/>
<text text-anchor="middle" x="59" y="-8.5" font-family="Helvetica,sans-Serif" font-size="10.00">CardHostWindow.cpp</text>
</a>
</g>
<!-- Node1&#45;&gt;Node2 -->
<g id="edge2" class="edge"><title>Node1&#45;&gt;Node2</title>
<path fill="none" stroke="midnightblue" d="M104.602,-51.6908C93.6289,-41.8996 80.2628,-29.973 70.8464,-21.5707"/>
<polygon fill="midnightblue" stroke="midnightblue" points="102.286,-54.3155 112.078,-58.3619 106.947,-49.0925 102.286,-54.3155"/>
</g>
<!-- Node3 -->
<g id="node5" class="node"><title>Node3</title>
<a xlink:href="CardTransition_8cpp.htm" target="_top" xlink:title="CardTransition.cpp">
<polygon fill="white" stroke="black" points="135.5,-0.5 135.5,-21.5 242.5,-21.5 242.5,-0.5 135.5,-0.5"/>
<text text-anchor="middle" x="189" y="-8.5" font-family="Helvetica,sans-Serif" font-size="10.00">CardTransition.cpp</text>
</a>
</g>
<!-- Node1&#45;&gt;Node3 -->
<g id="edge4" class="edge"><title>Node1&#45;&gt;Node3</title>
<path fill="none" stroke="midnightblue" d="M143.398,-51.6908C154.371,-41.8996 167.737,-29.973 177.154,-21.5707"/>
<polygon fill="midnightblue" stroke="midnightblue" points="141.053,-49.0925 135.922,-58.3619 145.714,-54.3155 141.053,-49.0925"/>
</g>
</g>
</svg>
