<?xml version="1.0" encoding="UTF-8" standalone="no"?>
<!DOCTYPE svg PUBLIC "-//W3C//DTD SVG 1.1//EN"
 "http://www.w3.org/Graphics/SVG/1.1/DTD/svg11.dtd">
<!-- Generated by graphviz version 2.26.3 (20100126.1600)
 -->
<!-- Title: CardGroup.cpp Pages: 1 -->
<svg width="1951pt" height="378pt"
 viewBox="0.00 0.00 1951.33 378.00" xmlns="http://www.w3.org/2000/svg" xmlns:xlink="http://www.w3.org/1999/xlink">
<g id="graph1" class="graph" transform="scale(1 1) rotate(0) translate(4 374)">
<title>CardGroup.cpp</title>
<polygon fill="white" stroke="white" points="-4,5 -4,-374 1948.33,-374 1948.33,5 -4,5"/>
<!-- Node1 -->
<g id="node1" class="node"><title>Node1</title>
<polygon fill="#bfbfbf" stroke="black" points="1577.83,-348.5 1577.83,-369.5 1666.83,-369.5 1666.83,-348.5 1577.83,-348.5"/>
<text text-anchor="middle" x="1622.33" y="-356.5" font-family="Helvetica,sans-Serif" font-size="10.00">CardGroup.cpp</text>
</g>
<!-- Node2 -->
<g id="node3" class="node"><title>Node2</title>
<polygon fill="white" stroke="#bfbfbf" points="460.83,-0.5 460.83,-21.5 527.83,-21.5 527.83,-0.5 460.83,-0.5"/>
<text text-anchor="middle" x="494.33" y="-8.5" font-family="Helvetica,sans-Serif" font-size="10.00">Common.h</text>
</g>
<!-- Node1&#45;&gt;Node2 -->
<g id="edge2" class="edge"><title>Node1&#45;&gt;Node2</title>
<path fill="none" stroke="midnightblue" d="M1577.71,-358.204C1316.91,-353.268 1.32966,-324.337 1.32966,-243 1.32966,-243 1.32966,-243 1.32966,-127 1.32966,-95.1919 -3.98899,-78.5026 20.3297,-58 52.8296,-30.6 338.908,-16.8944 450.254,-12.561"/>
<polygon fill="midnightblue" stroke="midnightblue" points="450.61,-16.05 460.47,-12.1707 450.343,-9.05508 450.61,-16.05"/>
</g>
<!-- Node3 -->
<g id="node5" class="node"><title>Node3</title>
<a xlink:href="CardGroup_8h.htm" target="_top" xlink:title="CardGroup.h">
<polygon fill="white" stroke="black" points="1461.83,-290.5 1461.83,-311.5 1538.83,-311.5 1538.83,-290.5 1461.83,-290.5"/>
<text text-anchor="middle" x="1500.33" y="-298.5" font-family="Helvetica,sans-Serif" font-size="10.00">CardGroup.h</text>
</a>
</g>
<!-- Node1&#45;&gt;Node3 -->
<g id="edge4" class="edge"><title>Node1&#45;&gt;Node3</title>
<path fill="none" stroke="midnightblue" d="M1600.24,-348.497C1581.1,-339.397 1553.18,-326.127 1531.72,-315.925"/>
<polygon fill="midnightblue" stroke="midnightblue" points="1533.2,-312.754 1522.67,-311.621 1530.2,-319.076 1533.2,-312.754"/>
</g>
<!-- Node10 -->
<g id="node21" class="node"><title>Node10</title>
<polygon fill="white" stroke="#bfbfbf" points="1712.83,-174.5 1712.83,-195.5 1775.83,-195.5 1775.83,-174.5 1712.83,-174.5"/>
<text text-anchor="middle" x="1744.33" y="-182.5" font-family="Helvetica,sans-Serif" font-size="10.00">Settings.h</text>
</g>
<!-- Node1&#45;&gt;Node10 -->
<g id="edge140" class="edge"><title>Node1&#45;&gt;Node10</title>
<path fill="none" stroke="midnightblue" d="M1636.63,-348.419C1658.94,-331.15 1701.89,-294.722 1725.33,-254 1733.84,-239.215 1738.69,-220.442 1741.35,-206.211"/>
<polygon fill="midnightblue" stroke="midnightblue" points="1744.87,-206.372 1743.05,-195.936 1737.97,-205.231 1744.87,-206.372"/>
</g>
<!-- Node44 -->
<g id="node110" class="node"><title>Node44</title>
<polygon fill="white" stroke="#bfbfbf" points="1831.33,-174.5 1831.33,-195.5 1943.33,-195.5 1943.33,-174.5 1831.33,-174.5"/>
<text text-anchor="middle" x="1887.33" y="-182.5" font-family="Helvetica,sans-Serif" font-size="10.00">QPropertyAnimation</text>
</g>
<!-- Node1&#45;&gt;Node44 -->
<g id="edge156" class="edge"><title>Node1&#45;&gt;Node44</title>
<path fill="none" stroke="midnightblue" d="M1641.31,-348.353C1657.66,-339.059 1681.8,-325.052 1702.33,-312 1761.78,-274.197 1829.55,-226.428 1864.23,-201.638"/>
<polygon fill="midnightblue" stroke="midnightblue" points="1866.61,-204.236 1872.7,-195.566 1862.53,-198.546 1866.61,-204.236"/>
</g>
<!-- Node47 -->
<g id="node118" class="node"><title>Node47</title>
<a xlink:href="AnimationSettings_8h.htm" target="_top" xlink:title="AnimationSettings.h">
<polygon fill="white" stroke="black" points="167.33,-116.5 167.33,-137.5 277.33,-137.5 277.33,-116.5 167.33,-116.5"/>
<text text-anchor="middle" x="222.33" y="-124.5" font-family="Helvetica,sans-Serif" font-size="10.00">AnimationSettings.h</text>
</a>
</g>
<!-- Node1&#45;&gt;Node47 -->
<g id="edge142" class="edge"><title>Node1&#45;&gt;Node47</title>
<path fill="none" stroke="midnightblue" d="M1577.77,-357.986C1358.62,-352.669 401.411,-325.481 291.33,-254 253.448,-229.402 234.724,-176.606 226.946,-147.428"/>
<polygon fill="midnightblue" stroke="midnightblue" points="230.29,-146.371 224.484,-137.509 223.497,-148.058 230.29,-146.371"/>
</g>
<!-- Node50 -->
<g id="node129" class="node"><title>Node50</title>
<polygon fill="white" stroke="#bfbfbf" points="1810.33,-290.5 1810.33,-311.5 1908.33,-311.5 1908.33,-290.5 1810.33,-290.5"/>
<text text-anchor="middle" x="1859.33" y="-298.5" font-family="Helvetica,sans-Serif" font-size="10.00">QGraphicsScene</text>
</g>
<!-- Node1&#45;&gt;Node50 -->
<g id="edge158" class="edge"><title>Node1&#45;&gt;Node50</title>
<path fill="none" stroke="midnightblue" d="M1665.25,-348.497C1704.89,-338.795 1763.9,-324.355 1806.44,-313.945"/>
<polygon fill="midnightblue" stroke="midnightblue" points="1807.45,-317.3 1816.33,-311.523 1805.78,-310.501 1807.45,-317.3"/>
</g>
<!-- Node3&#45;&gt;Node2 -->
<g id="edge6" class="edge"><title>Node3&#45;&gt;Node2</title>
<path fill="none" stroke="midnightblue" d="M1461.59,-299.318C1256.34,-290.158 305.33,-244.503 305.33,-185 305.33,-185 305.33,-185 305.33,-127 305.33,-59.2238 394.705,-29.8077 450.535,-18.0442"/>
<polygon fill="midnightblue" stroke="midnightblue" points="451.418,-21.437 460.54,-16.0479 450.049,-14.5724 451.418,-21.437"/>
</g>
<!-- Node4 -->
<g id="node8" class="node"><title>Node4</title>
<polygon fill="white" stroke="#bfbfbf" points="1500.33,-232.5 1500.33,-253.5 1556.33,-253.5 1556.33,-232.5 1500.33,-232.5"/>
<text text-anchor="middle" x="1528.33" y="-240.5" font-family="Helvetica,sans-Serif" font-size="10.00">QVector</text>
</g>
<!-- Node3&#45;&gt;Node4 -->
<g id="edge8" class="edge"><title>Node3&#45;&gt;Node4</title>
<path fill="none" stroke="midnightblue" d="M1505.47,-290.362C1509.18,-282.677 1514.3,-272.069 1518.75,-262.84"/>
<polygon fill="midnightblue" stroke="midnightblue" points="1522.03,-264.098 1523.23,-253.571 1515.73,-261.055 1522.03,-264.098"/>
</g>
<!-- Node5 -->
<g id="node10" class="node"><title>Node5</title>
<polygon fill="white" stroke="#bfbfbf" points="1573.83,-232.5 1573.83,-253.5 1614.83,-253.5 1614.83,-232.5 1573.83,-232.5"/>
<text text-anchor="middle" x="1594.33" y="-240.5" font-family="Helvetica,sans-Serif" font-size="10.00">QList</text>
</g>
<!-- Node3&#45;&gt;Node5 -->
<g id="edge10" class="edge"><title>Node3&#45;&gt;Node5</title>
<path fill="none" stroke="midnightblue" d="M1517.57,-290.362C1531.88,-281.532 1552.44,-268.844 1568.69,-258.822"/>
<polygon fill="midnightblue" stroke="midnightblue" points="1570.53,-261.8 1577.2,-253.571 1566.85,-255.843 1570.53,-261.8"/>
</g>
<!-- Node6 -->
<g id="node12" class="node"><title>Node6</title>
<polygon fill="white" stroke="#bfbfbf" points="1631.83,-232.5 1631.83,-253.5 1716.83,-253.5 1716.83,-232.5 1631.83,-232.5"/>
<text text-anchor="middle" x="1674.33" y="-240.5" font-family="Helvetica,sans-Serif" font-size="10.00">QEasingCurve</text>
</g>
<!-- Node3&#45;&gt;Node6 -->
<g id="edge12" class="edge"><title>Node3&#45;&gt;Node6</title>
<path fill="none" stroke="midnightblue" d="M1531.84,-290.497C1560.21,-281.041 1602.08,-267.083 1633.1,-256.743"/>
<polygon fill="midnightblue" stroke="midnightblue" points="1634.38,-260.006 1642.76,-253.523 1632.17,-253.365 1634.38,-260.006"/>
</g>
<!-- Node7 -->
<g id="node14" class="node"><title>Node7</title>
<polygon fill="white" stroke="#bfbfbf" points="1654.83,-116.5 1654.83,-137.5 1709.83,-137.5 1709.83,-116.5 1654.83,-116.5"/>
<text text-anchor="middle" x="1682.33" y="-124.5" font-family="Helvetica,sans-Serif" font-size="10.00">QObject</text>
</g>
<!-- Node3&#45;&gt;Node7 -->
<g id="edge14" class="edge"><title>Node3&#45;&gt;Node7</title>
<path fill="none" stroke="midnightblue" d="M1494.49,-290.424C1487.11,-275.478 1477,-248.196 1491.33,-232 1578.26,-133.732 1697.4,-294.268 1784.33,-196 1807.87,-169.394 1757.88,-148.259 1719.9,-136.7"/>
<polygon fill="midnightblue" stroke="midnightblue" points="1720.65,-133.272 1710.07,-133.834 1718.69,-139.992 1720.65,-133.272"/>
</g>
<!-- Node8 -->
<g id="node16" class="node"><title>Node8</title>
<polygon fill="white" stroke="#bfbfbf" points="1131.83,-232.5 1131.83,-253.5 1186.83,-253.5 1186.83,-232.5 1131.83,-232.5"/>
<text text-anchor="middle" x="1159.33" y="-240.5" font-family="Helvetica,sans-Serif" font-size="10.00">QPointF</text>
</g>
<!-- Node3&#45;&gt;Node8 -->
<g id="edge16" class="edge"><title>Node3&#45;&gt;Node8</title>
<path fill="none" stroke="midnightblue" d="M1461.48,-296.826C1405.07,-290.371 1297.11,-276.538 1197.09,-254.188"/>
<polygon fill="midnightblue" stroke="midnightblue" points="1197.66,-250.727 1187.13,-251.927 1196.11,-257.553 1197.66,-250.727"/>
</g>
<!-- Node9 -->
<g id="node18" class="node"><title>Node9</title>
<a xlink:href="CardWindow_8h.htm" target="_top" xlink:title="CardWindow.h">
<polygon fill="white" stroke="black" points="1204.33,-232.5 1204.33,-253.5 1290.33,-253.5 1290.33,-232.5 1204.33,-232.5"/>
<text text-anchor="middle" x="1247.33" y="-240.5" font-family="Helvetica,sans-Serif" font-size="10.00">CardWindow.h</text>
</a>
</g>
<!-- Node3&#45;&gt;Node9 -->
<g id="edge18" class="edge"><title>Node3&#45;&gt;Node9</title>
<path fill="none" stroke="midnightblue" d="M1461.63,-292.128C1418.59,-282.262 1348.81,-266.264 1300.63,-255.219"/>
<polygon fill="midnightblue" stroke="midnightblue" points="1301.22,-251.764 1290.69,-252.941 1299.66,-258.587 1301.22,-251.764"/>
</g>
<!-- Node9&#45;&gt;Node2 -->
<g id="edge20" class="edge"><title>Node9&#45;&gt;Node2</title>
<path fill="none" stroke="midnightblue" d="M1204.29,-233.341C1201.27,-232.834 1198.26,-232.378 1195.33,-232 1031.17,-210.804 608.816,-246.961 451.33,-196 400.726,-179.625 339.223,-163.905 362.33,-116 382.766,-73.6306 429.532,-43.0899 461.536,-26.2164"/>
<polygon fill="midnightblue" stroke="midnightblue" points="463.226,-29.2835 470.542,-21.6209 460.044,-23.0483 463.226,-29.2835"/>
</g>
<!-- Node9&#45;&gt;Node10 -->
<g id="edge22" class="edge"><title>Node9&#45;&gt;Node10</title>
<path fill="none" stroke="midnightblue" d="M1290.6,-240.468C1371.39,-235.306 1550.47,-221.81 1699.33,-196 1700.4,-195.815 1701.48,-195.618 1702.57,-195.412"/>
<polygon fill="midnightblue" stroke="midnightblue" points="1703.41,-198.814 1712.48,-193.352 1701.98,-191.96 1703.41,-198.814"/>
</g>
<!-- Node11 -->
<g id="node23" class="node"><title>Node11</title>
<polygon fill="white" stroke="#bfbfbf" points="575.33,-116.5 575.33,-137.5 627.33,-137.5 627.33,-116.5 575.33,-116.5"/>
<text text-anchor="middle" x="601.33" y="-124.5" font-family="Helvetica,sans-Serif" font-size="10.00">Event.h</text>
</g>
<!-- Node9&#45;&gt;Node11 -->
<g id="edge24" class="edge"><title>Node9&#45;&gt;Node11</title>
<path fill="none" stroke="midnightblue" d="M1204.29,-233.376C1201.26,-232.86 1198.26,-232.393 1195.33,-232 1127.71,-222.914 629.139,-245.639 582.33,-196 569.694,-182.6 578.062,-161.583 587.346,-146.264"/>
<polygon fill="midnightblue" stroke="midnightblue" points="590.488,-147.857 593.066,-137.58 584.642,-144.006 590.488,-147.857"/>
</g>
<!-- Node12 -->
<g id="node25" class="node"><title>Node12</title>
<a xlink:href="HostWindow_8h.htm" target="_top" xlink:title="HostWindow.h">
<polygon fill="white" stroke="black" points="683.33,-116.5 683.33,-137.5 767.33,-137.5 767.33,-116.5 683.33,-116.5"/>
<text text-anchor="middle" x="725.33" y="-124.5" font-family="Helvetica,sans-Serif" font-size="10.00">HostWindow.h</text>
</a>
</g>
<!-- Node9&#45;&gt;Node12 -->
<g id="edge26" class="edge"><title>Node9&#45;&gt;Node12</title>
<path fill="none" stroke="midnightblue" d="M1231.94,-232.299C1205.2,-213.801 1152.09,-177.477 1142.33,-174 995.855,-121.819 948.498,-158.247 794.33,-138 788.917,-137.289 783.276,-136.488 777.653,-135.651"/>
<polygon fill="midnightblue" stroke="midnightblue" points="778.019,-132.167 767.605,-134.117 776.962,-139.086 778.019,-132.167"/>
</g>
<!-- Node23 -->
<g id="node52" class="node"><title>Node23</title>
<polygon fill="white" stroke="#bfbfbf" points="591.33,-174.5 591.33,-195.5 733.33,-195.5 733.33,-174.5 591.33,-174.5"/>
<text text-anchor="middle" x="662.33" y="-182.5" font-family="Helvetica,sans-Serif" font-size="10.00">AppLaunchOptionsEvent.h</text>
</g>
<!-- Node9&#45;&gt;Node23 -->
<g id="edge58" class="edge"><title>Node9&#45;&gt;Node23</title>
<path fill="none" stroke="midnightblue" d="M1204.28,-233.445C1201.26,-232.913 1198.25,-232.423 1195.33,-232 998.669,-203.507 944.846,-217.302 743.42,-196.06"/>
<polygon fill="midnightblue" stroke="midnightblue" points="743.719,-192.572 733.404,-194.988 742.974,-199.533 743.719,-192.572"/>
</g>
<!-- Node24 -->
<g id="node54" class="node"><title>Node24</title>
<a xlink:href="SystemUiController_8h.htm" target="_top" xlink:title="SystemUiController.h">
<polygon fill="white" stroke="black" points="1189.33,-174.5 1189.33,-195.5 1305.33,-195.5 1305.33,-174.5 1189.33,-174.5"/>
<text text-anchor="middle" x="1247.33" y="-182.5" font-family="Helvetica,sans-Serif" font-size="10.00">SystemUiController.h</text>
</a>
</g>
<!-- Node9&#45;&gt;Node24 -->
<g id="edge60" class="edge"><title>Node9&#45;&gt;Node24</title>
<path fill="none" stroke="midnightblue" d="M1247.33,-232.362C1247.33,-224.922 1247.33,-214.743 1247.33,-205.728"/>
<polygon fill="midnightblue" stroke="midnightblue" points="1250.83,-205.571 1247.33,-195.571 1243.83,-205.571 1250.83,-205.571"/>
</g>
<!-- Node36 -->
<g id="node90" class="node"><title>Node36</title>
<polygon fill="white" stroke="#bfbfbf" points="1704.83,-58.5 1704.83,-79.5 1763.83,-79.5 1763.83,-58.5 1704.83,-58.5"/>
<text text-anchor="middle" x="1734.33" y="-66.5" font-family="Helvetica,sans-Serif" font-size="10.00">QPointer</text>
</g>
<!-- Node9&#45;&gt;Node36 -->
<g id="edge130" class="edge"><title>Node9&#45;&gt;Node36</title>
<path fill="none" stroke="midnightblue" d="M1290.42,-242.019C1383.77,-239.281 1601.5,-229.403 1666.33,-196 1697.11,-180.142 1702.36,-168.719 1718.33,-138 1726.12,-123.02 1730.15,-104.261 1732.22,-90.0855"/>
<polygon fill="midnightblue" stroke="midnightblue" points="1735.73,-90.2149 1733.49,-79.8594 1728.79,-89.351 1735.73,-90.2149"/>
</g>
<!-- Node37 -->
<g id="node95" class="node"><title>Node37</title>
<polygon fill="white" stroke="#bfbfbf" points="750.83,-174.5 750.83,-195.5 861.83,-195.5 861.83,-174.5 750.83,-174.5"/>
<text text-anchor="middle" x="806.33" y="-182.5" font-family="Helvetica,sans-Serif" font-size="10.00">WindowProperties.h</text>
</g>
<!-- Node9&#45;&gt;Node37 -->
<g id="edge116" class="edge"><title>Node9&#45;&gt;Node37</title>
<path fill="none" stroke="midnightblue" d="M1204.26,-233.549C1201.24,-232.992 1198.25,-232.469 1195.33,-232 1055.07,-209.452 1015.97,-216.001 872.224,-196.203"/>
<polygon fill="midnightblue" stroke="midnightblue" points="872.534,-192.713 862.146,-194.796 871.566,-199.645 872.534,-192.713"/>
</g>
<!-- Node38 -->
<g id="node97" class="node"><title>Node38</title>
<polygon fill="white" stroke="#bfbfbf" points="879.33,-174.5 879.33,-195.5 1035.33,-195.5 1035.33,-174.5 879.33,-174.5"/>
<text text-anchor="middle" x="957.33" y="-182.5" font-family="Helvetica,sans-Serif" font-size="10.00">QGraphicsSceneMouseEvent</text>
</g>
<!-- Node9&#45;&gt;Node38 -->
<g id="edge118" class="edge"><title>Node9&#45;&gt;Node38</title>
<path fill="none" stroke="midnightblue" d="M1204.21,-233.831C1201.2,-233.207 1198.22,-232.592 1195.33,-232 1136.58,-219.986 1069.57,-206.798 1021.65,-197.458"/>
<polygon fill="midnightblue" stroke="midnightblue" points="1022.21,-194.001 1011.72,-195.525 1020.87,-200.872 1022.21,-194.001"/>
</g>
<!-- Node39 -->
<g id="node99" class="node"><title>Node39</title>
<polygon fill="white" stroke="#bfbfbf" points="1052.83,-174.5 1052.83,-195.5 1133.83,-195.5 1133.83,-174.5 1052.83,-174.5"/>
<text text-anchor="middle" x="1093.33" y="-182.5" font-family="Helvetica,sans-Serif" font-size="10.00">QTouchEvent</text>
</g>
<!-- Node9&#45;&gt;Node39 -->
<g id="edge120" class="edge"><title>Node9&#45;&gt;Node39</title>
<path fill="none" stroke="midnightblue" d="M1219.44,-232.497C1194.66,-223.164 1158.23,-209.445 1130.89,-199.147"/>
<polygon fill="midnightblue" stroke="midnightblue" points="1131.86,-195.772 1121.27,-195.523 1129.39,-202.323 1131.86,-195.772"/>
</g>
<!-- Node40 -->
<g id="node101" class="node"><title>Node40</title>
<polygon fill="white" stroke="#bfbfbf" points="1323.33,-174.5 1323.33,-195.5 1403.33,-195.5 1403.33,-174.5 1323.33,-174.5"/>
<text text-anchor="middle" x="1363.33" y="-182.5" font-family="Helvetica,sans-Serif" font-size="10.00">QPainterPath</text>
</g>
<!-- Node9&#45;&gt;Node40 -->
<g id="edge122" class="edge"><title>Node9&#45;&gt;Node40</title>
<path fill="none" stroke="midnightblue" d="M1268.34,-232.497C1286.37,-223.479 1312.6,-210.365 1332.93,-200.201"/>
<polygon fill="midnightblue" stroke="midnightblue" points="1334.71,-203.224 1342.09,-195.621 1331.58,-196.963 1334.71,-203.224"/>
</g>
<!-- Node41 -->
<g id="node103" class="node"><title>Node41</title>
<polygon fill="white" stroke="#bfbfbf" points="1420.83,-174.5 1420.83,-195.5 1479.83,-195.5 1479.83,-174.5 1420.83,-174.5"/>
<text text-anchor="middle" x="1450.33" y="-182.5" font-family="Helvetica,sans-Serif" font-size="10.00">QPainter</text>
</g>
<!-- Node9&#45;&gt;Node41 -->
<g id="edge124" class="edge"><title>Node9&#45;&gt;Node41</title>
<path fill="none" stroke="midnightblue" d="M1284.37,-232.499C1315.73,-223.597 1362.13,-210.398 1410.72,-196.456"/>
<polygon fill="midnightblue" stroke="midnightblue" points="1411.82,-199.783 1420.46,-193.659 1409.88,-193.054 1411.82,-199.783"/>
</g>
<!-- Node42 -->
<g id="node105" class="node"><title>Node42</title>
<polygon fill="white" stroke="#bfbfbf" points="1496.83,-174.5 1496.83,-195.5 1565.83,-195.5 1565.83,-174.5 1496.83,-174.5"/>
<text text-anchor="middle" x="1531.33" y="-182.5" font-family="Helvetica,sans-Serif" font-size="10.00">QVector3D</text>
</g>
<!-- Node9&#45;&gt;Node42 -->
<g id="edge126" class="edge"><title>Node9&#45;&gt;Node42</title>
<path fill="none" stroke="midnightblue" d="M1290.59,-235.343C1336.87,-226.979 1412.64,-212.787 1486.68,-196.293"/>
<polygon fill="midnightblue" stroke="midnightblue" points="1487.65,-199.663 1496.64,-194.058 1486.11,-192.833 1487.65,-199.663"/>
</g>
<!-- Node43 -->
<g id="node107" class="node"><title>Node43</title>
<polygon fill="white" stroke="#bfbfbf" points="1583.33,-174.5 1583.33,-195.5 1657.33,-195.5 1657.33,-174.5 1583.33,-174.5"/>
<text text-anchor="middle" x="1620.33" y="-182.5" font-family="Helvetica,sans-Serif" font-size="10.00">QTransform</text>
</g>
<!-- Node9&#45;&gt;Node43 -->
<g id="edge128" class="edge"><title>Node9&#45;&gt;Node43</title>
<path fill="none" stroke="midnightblue" d="M1290.39,-238.092C1351.23,-230.877 1465.99,-216.237 1573.22,-196.083"/>
<polygon fill="midnightblue" stroke="midnightblue" points="1574.06,-199.485 1583.24,-194.18 1572.76,-192.608 1574.06,-199.485"/>
</g>
<!-- Node9&#45;&gt;Node44 -->
<g id="edge132" class="edge"><title>Node9&#45;&gt;Node44</title>
<path fill="none" stroke="midnightblue" d="M1290.51,-239.502C1381.75,-232.05 1600.83,-213.827 1784.33,-196 1796.22,-194.845 1808.87,-193.549 1821.08,-192.263"/>
<polygon fill="midnightblue" stroke="midnightblue" points="1821.64,-195.724 1831.22,-191.189 1820.91,-188.763 1821.64,-195.724"/>
</g>
<!-- Node45 -->
<g id="node112" class="node"><title>Node45</title>
<polygon fill="white" stroke="#bfbfbf" points="473.33,-174.5 473.33,-195.5 535.33,-195.5 535.33,-174.5 473.33,-174.5"/>
<text text-anchor="middle" x="504.33" y="-182.5" font-family="Helvetica,sans-Serif" font-size="10.00">QGesture</text>
</g>
<!-- Node9&#45;&gt;Node45 -->
<g id="edge134" class="edge"><title>Node9&#45;&gt;Node45</title>
<path fill="none" stroke="midnightblue" d="M1204.29,-233.366C1201.26,-232.852 1198.26,-232.389 1195.33,-232 910.277,-194.133 833.755,-238.32 549.33,-196 548.077,-195.814 546.808,-195.608 545.529,-195.388"/>
<polygon fill="midnightblue" stroke="midnightblue" points="546.144,-191.941 535.655,-193.438 544.787,-198.809 546.144,-191.941"/>
</g>
<!-- Node46 -->
<g id="node114" class="node"><title>Node46</title>
<a xlink:href="CardRoundedCornerShaderStage_8h.htm" target="_top" xlink:title="CardRoundedCornerShaderStage.h">
<polygon fill="white" stroke="black" points="371.33,-116.5 371.33,-137.5 557.33,-137.5 557.33,-116.5 371.33,-116.5"/>
<text text-anchor="middle" x="464.33" y="-124.5" font-family="Helvetica,sans-Serif" font-size="10.00">CardRoundedCornerShaderStage.h</text>
</a>
</g>
<!-- Node9&#45;&gt;Node46 -->
<g id="edge136" class="edge"><title>Node9&#45;&gt;Node46</title>
<path fill="none" stroke="midnightblue" d="M1204.29,-233.344C1201.27,-232.836 1198.26,-232.379 1195.33,-232 1155.01,-226.776 492.365,-225.45 464.33,-196 452.25,-183.311 453.972,-162.6 457.669,-147.175"/>
<polygon fill="midnightblue" stroke="midnightblue" points="461.051,-148.079 460.399,-137.504 454.314,-146.177 461.051,-148.079"/>
</g>
<!-- Node12&#45;&gt;Node2 -->
<g id="edge28" class="edge"><title>Node12&#45;&gt;Node2</title>
<path fill="none" stroke="midnightblue" d="M720.541,-116.336C713.108,-101.025 697.324,-73.0113 675.33,-58 634.098,-29.8592 577.1,-18.5672 538.15,-14.0363"/>
<polygon fill="midnightblue" stroke="midnightblue" points="538.478,-10.5515 528.164,-12.9764 537.739,-17.5124 538.478,-10.5515"/>
</g>
<!-- Node12&#45;&gt;Node12 -->
<g id="edge44" class="edge"><title>Node12&#45;&gt;Node12</title>
<path fill="none" stroke="midnightblue" d="M755.893,-137.524C771.413,-139.061 785.33,-135.553 785.33,-127 785.33,-120.385 777.005,-116.788 766.052,-116.208"/>
<polygon fill="midnightblue" stroke="midnightblue" points="765.797,-112.714 755.893,-116.476 765.982,-119.711 765.797,-112.714"/>
</g>
<!-- Node13 -->
<g id="node28" class="node"><title>Node13</title>
<a xlink:href="Window_8h.htm" target="_top" xlink:title="Window.h">
<polygon fill="white" stroke="red" points="1474.33,-58.5 1474.33,-79.5 1536.33,-79.5 1536.33,-58.5 1474.33,-58.5"/>
<text text-anchor="middle" x="1505.33" y="-66.5" font-family="Helvetica,sans-Serif" font-size="10.00">Window.h</text>
</a>
</g>
<!-- Node12&#45;&gt;Node13 -->
<g id="edge30" class="edge"><title>Node12&#45;&gt;Node13</title>
<path fill="none" stroke="midnightblue" d="M767.566,-119.551C776.387,-118.197 785.645,-116.923 794.33,-116 1087.97,-84.8026 1168.73,-126.905 1463.89,-79.9274"/>
<polygon fill="midnightblue" stroke="midnightblue" points="1464.71,-83.3396 1474.03,-78.292 1463.6,-76.4289 1464.71,-83.3396"/>
</g>
<!-- Node19 -->
<g id="node42" class="node"><title>Node19</title>
<a xlink:href="HostWindowData_8h.htm" target="_top" xlink:title="HostWindowData.h">
<polygon fill="white" stroke="red" points="559.83,-58.5 559.83,-79.5 666.83,-79.5 666.83,-58.5 559.83,-58.5"/>
<text text-anchor="middle" x="613.33" y="-66.5" font-family="Helvetica,sans-Serif" font-size="10.00">HostWindowData.h</text>
</a>
</g>
<!-- Node12&#45;&gt;Node19 -->
<g id="edge46" class="edge"><title>Node12&#45;&gt;Node19</title>
<path fill="none" stroke="midnightblue" d="M705.047,-116.497C687.712,-107.519 662.539,-94.4835 642.949,-84.3387"/>
<polygon fill="midnightblue" stroke="midnightblue" points="644.329,-81.1118 633.84,-79.6212 641.11,-87.3278 644.329,-81.1118"/>
</g>
<!-- Node20 -->
<g id="node45" class="node"><title>Node20</title>
<a xlink:href="InputClient_8h.htm" target="_top" xlink:title="InputClient.h">
<polygon fill="white" stroke="red" points="955.83,-58.5 955.83,-79.5 1030.83,-79.5 1030.83,-58.5 955.83,-58.5"/>
<text text-anchor="middle" x="993.33" y="-66.5" font-family="Helvetica,sans-Serif" font-size="10.00">InputClient.h</text>
</a>
</g>
<!-- Node12&#45;&gt;Node20 -->
<g id="edge50" class="edge"><title>Node12&#45;&gt;Node20</title>
<path fill="none" stroke="midnightblue" d="M767.547,-118.404C810.165,-109.65 878.131,-95.4821 945.726,-80.3272"/>
<polygon fill="midnightblue" stroke="midnightblue" points="946.705,-83.6944 955.693,-78.0846 945.168,-76.8652 946.705,-83.6944"/>
</g>
<!-- Node21 -->
<g id="node48" class="node"><title>Node21</title>
<polygon fill="white" stroke="#bfbfbf" points="722.33,-58.5 722.33,-79.5 796.33,-79.5 796.33,-58.5 722.33,-58.5"/>
<text text-anchor="middle" x="759.33" y="-66.5" font-family="Helvetica,sans-Serif" font-size="10.00">PIpcBuffer.h</text>
</g>
<!-- Node12&#45;&gt;Node21 -->
<g id="edge54" class="edge"><title>Node12&#45;&gt;Node21</title>
<path fill="none" stroke="midnightblue" d="M731.566,-116.362C736.167,-108.513 742.555,-97.6159 748.044,-88.2527"/>
<polygon fill="midnightblue" stroke="midnightblue" points="751.095,-89.9677 753.133,-79.5707 745.056,-86.4276 751.095,-89.9677"/>
</g>
<!-- Node22 -->
<g id="node50" class="node"><title>Node22</title>
<polygon fill="white" stroke="#bfbfbf" points="814.33,-58.5 814.33,-79.5 938.33,-79.5 938.33,-58.5 814.33,-58.5"/>
<text text-anchor="middle" x="876.33" y="-66.5" font-family="Helvetica,sans-Serif" font-size="10.00">PIpcChannelListener.h</text>
</g>
<!-- Node12&#45;&gt;Node22 -->
<g id="edge56" class="edge"><title>Node12&#45;&gt;Node22</title>
<path fill="none" stroke="midnightblue" d="M752.675,-116.497C776.972,-107.164 812.689,-93.4447 839.497,-83.1475"/>
<polygon fill="midnightblue" stroke="midnightblue" points="840.853,-86.376 848.933,-79.5231 838.343,-79.8415 840.853,-86.376"/>
</g>
<!-- Node13&#45;&gt;Node2 -->
<g id="edge32" class="edge"><title>Node13&#45;&gt;Node2</title>
<path fill="none" stroke="midnightblue" d="M1474.03,-59.6921C1471.11,-59.0352 1468.17,-58.4543 1465.33,-58 1282.98,-28.8789 702.925,-15.2018 538.285,-11.8434"/>
<polygon fill="midnightblue" stroke="midnightblue" points="538.118,-8.3394 528.049,-11.637 537.977,-15.338 538.118,-8.3394"/>
</g>
<!-- Node14 -->
<g id="node31" class="node"><title>Node14</title>
<polygon fill="white" stroke="#bfbfbf" points="1434.33,-0.5 1434.33,-21.5 1526.33,-21.5 1526.33,-0.5 1434.33,-0.5"/>
<text text-anchor="middle" x="1480.33" y="-8.5" font-family="Helvetica,sans-Serif" font-size="10.00">WindowTypes.h</text>
</g>
<!-- Node13&#45;&gt;Node14 -->
<g id="edge34" class="edge"><title>Node13&#45;&gt;Node14</title>
<path fill="none" stroke="midnightblue" d="M1500.74,-58.3619C1497.43,-50.6766 1492.86,-40.0686 1488.88,-30.8399"/>
<polygon fill="midnightblue" stroke="midnightblue" points="1492.06,-29.3685 1484.89,-21.5707 1485.63,-32.1393 1492.06,-29.3685"/>
</g>
<!-- Node15 -->
<g id="node33" class="node"><title>Node15</title>
<polygon fill="white" stroke="#bfbfbf" points="1366.33,-0.5 1366.33,-21.5 1416.33,-21.5 1416.33,-0.5 1366.33,-0.5"/>
<text text-anchor="middle" x="1391.33" y="-8.5" font-family="Helvetica,sans-Serif" font-size="10.00">stdint.h</text>
</g>
<!-- Node13&#45;&gt;Node15 -->
<g id="edge36" class="edge"><title>Node13&#45;&gt;Node15</title>
<path fill="none" stroke="midnightblue" d="M1484.69,-58.4966C1466.96,-49.4786 1441.18,-36.3649 1421.21,-26.2006"/>
<polygon fill="midnightblue" stroke="midnightblue" points="1422.71,-23.0364 1412.21,-21.6212 1419.53,-29.2753 1422.71,-23.0364"/>
</g>
<!-- Node16 -->
<g id="node35" class="node"><title>Node16</title>
<polygon fill="white" stroke="#bfbfbf" points="1158.83,-0.5 1158.83,-21.5 1201.83,-21.5 1201.83,-0.5 1158.83,-0.5"/>
<text text-anchor="middle" x="1180.33" y="-8.5" font-family="Helvetica,sans-Serif" font-size="10.00">string</text>
</g>
<!-- Node13&#45;&gt;Node16 -->
<g id="edge38" class="edge"><title>Node13&#45;&gt;Node16</title>
<path fill="none" stroke="midnightblue" d="M1473.97,-60.0036C1471.06,-59.2814 1468.15,-58.6002 1465.33,-58 1361.56,-35.8953 1333.6,-41.6321 1229.33,-22 1223.76,-20.9514 1217.86,-19.7262 1212.16,-18.4816"/>
<polygon fill="midnightblue" stroke="midnightblue" points="1212.74,-15.0253 1202.22,-16.2543 1211.21,-21.8559 1212.74,-15.0253"/>
</g>
<!-- Node17 -->
<g id="node37" class="node"><title>Node17</title>
<polygon fill="white" stroke="#bfbfbf" points="1237.83,-0.5 1237.83,-21.5 1278.83,-21.5 1278.83,-0.5 1237.83,-0.5"/>
<text text-anchor="middle" x="1258.33" y="-8.5" font-family="Helvetica,sans-Serif" font-size="10.00">glib.h</text>
</g>
<!-- Node13&#45;&gt;Node17 -->
<g id="edge40" class="edge"><title>Node13&#45;&gt;Node17</title>
<path fill="none" stroke="midnightblue" d="M1473.92,-60.219C1471.02,-59.4516 1468.12,-58.7011 1465.33,-58 1402.85,-42.3254 1329.2,-26.1454 1288.75,-17.4569"/>
<polygon fill="midnightblue" stroke="midnightblue" points="1289.48,-14.0345 1278.97,-15.3635 1288.01,-20.8794 1289.48,-14.0345"/>
</g>
<!-- Node18 -->
<g id="node39" class="node"><title>Node18</title>
<polygon fill="white" stroke="#bfbfbf" points="1544.33,-0.5 1544.33,-21.5 1642.33,-21.5 1642.33,-0.5 1544.33,-0.5"/>
<text text-anchor="middle" x="1593.33" y="-8.5" font-family="Helvetica,sans-Serif" font-size="10.00">QGraphicsObject</text>
</g>
<!-- Node13&#45;&gt;Node18 -->
<g id="edge42" class="edge"><title>Node13&#45;&gt;Node18</title>
<path fill="none" stroke="midnightblue" d="M1521.47,-58.3619C1534.74,-49.6138 1553.76,-37.0786 1568.9,-27.1015"/>
<polygon fill="midnightblue" stroke="midnightblue" points="1570.87,-29.9962 1577.29,-21.5707 1567.02,-24.1515 1570.87,-29.9962"/>
</g>
<!-- Node19&#45;&gt;Node2 -->
<g id="edge48" class="edge"><title>Node19&#45;&gt;Node2</title>
<path fill="none" stroke="midnightblue" d="M591.78,-58.4966C573.193,-49.4378 546.128,-36.2462 525.234,-26.0628"/>
<polygon fill="midnightblue" stroke="midnightblue" points="526.644,-22.8563 516.121,-21.6212 523.577,-29.1487 526.644,-22.8563"/>
</g>
<!-- Node20&#45;&gt;Node16 -->
<g id="edge52" class="edge"><title>Node20&#45;&gt;Node16</title>
<path fill="none" stroke="midnightblue" d="M1027.19,-58.4966C1061.82,-47.7576 1115.17,-31.2106 1148.89,-20.7525"/>
<polygon fill="midnightblue" stroke="midnightblue" points="1150.16,-24.0209 1158.68,-17.7155 1148.09,-17.3351 1150.16,-24.0209"/>
</g>
<!-- Node24&#45;&gt;Node2 -->
<g id="edge62" class="edge"><title>Node24&#45;&gt;Node2</title>
<path fill="none" stroke="midnightblue" d="M1189.32,-178.633C1174.04,-177.036 1157.57,-175.384 1142.33,-174 934.57,-155.13 873.578,-199.806 674.33,-138 655.691,-132.218 653.793,-124.711 636.33,-116 599.617,-97.6869 584.225,-104.517 551.33,-80 532.965,-66.3129 516.851,-45.511 506.484,-30.3256"/>
<polygon fill="midnightblue" stroke="midnightblue" points="509.23,-28.1322 500.804,-21.7103 503.387,-31.9855 509.23,-28.1322"/>
</g>
<!-- Node24&#45;&gt;Node7 -->
<g id="edge72" class="edge"><title>Node24&#45;&gt;Node7</title>
<path fill="none" stroke="midnightblue" d="M1305.41,-175.272C1308.42,-174.827 1311.41,-174.4 1314.33,-174 1459.19,-154.149 1497.64,-165.022 1641.33,-138 1642.42,-137.796 1643.52,-137.578 1644.62,-137.348"/>
<polygon fill="midnightblue" stroke="midnightblue" points="1645.71,-140.689 1654.67,-135.033 1644.14,-133.867 1645.71,-140.689"/>
</g>
<!-- Node24&#45;&gt;Node11 -->
<g id="edge88" class="edge"><title>Node24&#45;&gt;Node11</title>
<path fill="none" stroke="midnightblue" d="M1189.32,-178.581C1174.05,-176.984 1157.58,-175.346 1142.33,-174 919.954,-154.367 861.35,-175.779 641.33,-138 640.052,-137.781 638.756,-137.538 637.451,-137.276"/>
<polygon fill="midnightblue" stroke="midnightblue" points="637.944,-133.798 627.413,-134.965 636.373,-140.619 637.944,-133.798"/>
</g>
<!-- Node24&#45;&gt;Node13 -->
<g id="edge100" class="edge"><title>Node24&#45;&gt;Node13</title>
<path fill="none" stroke="midnightblue" d="M1266.77,-174.347C1283.52,-165.049 1308.26,-151.04 1329.33,-138 1344.32,-128.723 1346.48,-123.711 1362.33,-116 1380.53,-107.144 1429.08,-91.7923 1464.58,-81.0513"/>
<polygon fill="midnightblue" stroke="midnightblue" points="1465.64,-84.3868 1474.21,-78.1532 1463.62,-77.6837 1465.64,-84.3868"/>
</g>
<!-- Node24&#45;&gt;Node16 -->
<g id="edge64" class="edge"><title>Node24&#45;&gt;Node16</title>
<path fill="none" stroke="midnightblue" d="M1241.69,-174.206C1232.06,-155.441 1212.21,-115.414 1199.33,-80 1193.57,-64.152 1188.57,-45.7145 1185.16,-31.8874"/>
<polygon fill="midnightblue" stroke="midnightblue" points="1188.5,-30.8321 1182.77,-21.9243 1181.69,-32.4649 1188.5,-30.8321"/>
</g>
<!-- Node25 -->
<g id="node58" class="node"><title>Node25</title>
<polygon fill="white" stroke="#bfbfbf" points="1371.33,-116.5 1371.33,-137.5 1423.33,-137.5 1423.33,-116.5 1371.33,-116.5"/>
<text text-anchor="middle" x="1397.33" y="-124.5" font-family="Helvetica,sans-Serif" font-size="10.00">QEvent</text>
</g>
<!-- Node24&#45;&gt;Node25 -->
<g id="edge66" class="edge"><title>Node24&#45;&gt;Node25</title>
<path fill="none" stroke="midnightblue" d="M1274.49,-174.497C1298.93,-165.048 1335,-151.102 1361.73,-140.764"/>
<polygon fill="midnightblue" stroke="midnightblue" points="1363.06,-144.005 1371.12,-137.134 1360.53,-137.476 1363.06,-144.005"/>
</g>
<!-- Node26 -->
<g id="node60" class="node"><title>Node26</title>
<polygon fill="white" stroke="#bfbfbf" points="1441.33,-116.5 1441.33,-137.5 1511.33,-137.5 1511.33,-116.5 1441.33,-116.5"/>
<text text-anchor="middle" x="1476.33" y="-124.5" font-family="Helvetica,sans-Serif" font-size="10.00">QKeyEvent</text>
</g>
<!-- Node24&#45;&gt;Node26 -->
<g id="edge68" class="edge"><title>Node24&#45;&gt;Node26</title>
<path fill="none" stroke="midnightblue" d="M1288.8,-174.497C1329.05,-164.303 1389.95,-148.877 1431.35,-138.392"/>
<polygon fill="midnightblue" stroke="midnightblue" points="1432.33,-141.753 1441.17,-135.905 1430.62,-134.968 1432.33,-141.753"/>
</g>
<!-- Node27 -->
<g id="node62" class="node"><title>Node27</title>
<polygon fill="white" stroke="#bfbfbf" points="802.83,-116.5 802.83,-137.5 885.83,-137.5 885.83,-116.5 802.83,-116.5"/>
<text text-anchor="middle" x="844.33" y="-124.5" font-family="Helvetica,sans-Serif" font-size="10.00">QMouseEvent</text>
</g>
<!-- Node24&#45;&gt;Node27 -->
<g id="edge70" class="edge"><title>Node24&#45;&gt;Node27</title>
<path fill="none" stroke="midnightblue" d="M1189.19,-175.994C1184.5,-175.306 1179.84,-174.633 1175.33,-174 1053.81,-156.936 1020.08,-159.406 895.909,-138.171"/>
<polygon fill="midnightblue" stroke="midnightblue" points="896.466,-134.716 886.017,-136.462 895.275,-141.614 896.466,-134.716"/>
</g>
<!-- Node28 -->
<g id="node65" class="node"><title>Node28</title>
<polygon fill="white" stroke="#bfbfbf" points="902.83,-116.5 902.83,-137.5 949.83,-137.5 949.83,-116.5 902.83,-116.5"/>
<text text-anchor="middle" x="926.33" y="-124.5" font-family="Helvetica,sans-Serif" font-size="10.00">QRect</text>
</g>
<!-- Node24&#45;&gt;Node28 -->
<g id="edge74" class="edge"><title>Node24&#45;&gt;Node28</title>
<path fill="none" stroke="midnightblue" d="M1189.3,-176.104C1118.11,-165.115 1002.42,-146.984 959.911,-137.925"/>
<polygon fill="midnightblue" stroke="midnightblue" points="960.492,-134.467 949.96,-135.624 958.915,-141.287 960.492,-134.467"/>
</g>
<!-- Node29 -->
<g id="node67" class="node"><title>Node29</title>
<polygon fill="white" stroke="#bfbfbf" points="966.83,-116.5 966.83,-137.5 1059.83,-137.5 1059.83,-116.5 966.83,-116.5"/>
<text text-anchor="middle" x="1013.33" y="-124.5" font-family="Helvetica,sans-Serif" font-size="10.00">QSharedPointer</text>
</g>
<!-- Node24&#45;&gt;Node29 -->
<g id="edge76" class="edge"><title>Node24&#45;&gt;Node29</title>
<path fill="none" stroke="midnightblue" d="M1204.95,-174.497C1165.81,-164.795 1107.55,-150.355 1065.55,-139.945"/>
<polygon fill="midnightblue" stroke="midnightblue" points="1066.33,-136.532 1055.78,-137.523 1064.65,-143.326 1066.33,-136.532"/>
</g>
<!-- Node30 -->
<g id="node69" class="node"><title>Node30</title>
<polygon fill="white" stroke="#bfbfbf" points="1077.33,-116.5 1077.33,-137.5 1163.33,-137.5 1163.33,-116.5 1077.33,-116.5"/>
<text text-anchor="middle" x="1120.33" y="-124.5" font-family="Helvetica,sans-Serif" font-size="10.00">QWeakPointer</text>
</g>
<!-- Node24&#45;&gt;Node30 -->
<g id="edge78" class="edge"><title>Node24&#45;&gt;Node30</title>
<path fill="none" stroke="midnightblue" d="M1224.33,-174.497C1204.32,-165.356 1175.09,-152.008 1152.71,-141.788"/>
<polygon fill="midnightblue" stroke="midnightblue" points="1154.14,-138.592 1143.59,-137.621 1151.23,-144.959 1154.14,-138.592"/>
</g>
<!-- Node31 -->
<g id="node71" class="node"><title>Node31</title>
<a xlink:href="ApplicationDescription_8h.htm" target="_top" xlink:title="ApplicationDescription.h">
<polygon fill="white" stroke="red" points="1326.33,-58.5 1326.33,-79.5 1456.33,-79.5 1456.33,-58.5 1326.33,-58.5"/>
<text text-anchor="middle" x="1391.33" y="-66.5" font-family="Helvetica,sans-Serif" font-size="10.00">ApplicationDescription.h</text>
</a>
</g>
<!-- Node24&#45;&gt;Node31 -->
<g id="edge80" class="edge"><title>Node24&#45;&gt;Node31</title>
<path fill="none" stroke="midnightblue" d="M1259.67,-174.28C1275.58,-160.539 1304.18,-136.091 1329.33,-116 1342.24,-105.688 1356.96,-94.5008 1368.82,-85.6287"/>
<polygon fill="midnightblue" stroke="midnightblue" points="1370.96,-88.4035 1376.89,-79.6232 1366.78,-82.7895 1370.96,-88.4035"/>
</g>
<!-- Node32 -->
<g id="node77" class="node"><title>Node32</title>
<a xlink:href="SuspendBlocker_8h.htm" target="_top" xlink:title="SuspendBlocker.h">
<polygon fill="white" stroke="red" points="1207.83,-58.5 1207.83,-79.5 1308.83,-79.5 1308.83,-58.5 1207.83,-58.5"/>
<text text-anchor="middle" x="1258.33" y="-66.5" font-family="Helvetica,sans-Serif" font-size="10.00">SuspendBlocker.h</text>
</a>
</g>
<!-- Node24&#45;&gt;Node32 -->
<g id="edge90" class="edge"><title>Node24&#45;&gt;Node32</title>
<path fill="none" stroke="midnightblue" d="M1248.34,-174.295C1250.16,-155.131 1254,-114.654 1256.35,-89.8434"/>
<polygon fill="midnightblue" stroke="midnightblue" points="1259.86,-89.965 1257.32,-79.6792 1252.89,-89.3041 1259.86,-89.965"/>
</g>
<!-- Node33 -->
<g id="node81" class="node"><title>Node33</title>
<a xlink:href="VariantAnimation_8h.htm" target="_top" xlink:title="VariantAnimation.h">
<polygon fill="white" stroke="red" points="1047.83,-58.5 1047.83,-79.5 1152.83,-79.5 1152.83,-58.5 1047.83,-58.5"/>
<text text-anchor="middle" x="1100.33" y="-66.5" font-family="Helvetica,sans-Serif" font-size="10.00">VariantAnimation.h</text>
</a>
</g>
<!-- Node24&#45;&gt;Node33 -->
<g id="edge96" class="edge"><title>Node24&#45;&gt;Node33</title>
<path fill="none" stroke="midnightblue" d="M1236.65,-174.115C1222.55,-159.984 1196.63,-134.901 1172.33,-116 1157.93,-104.798 1140.87,-93.5793 1126.97,-84.9127"/>
<polygon fill="midnightblue" stroke="midnightblue" points="1128.7,-81.8703 1118.35,-79.6121 1125.03,-87.8326 1128.7,-81.8703"/>
</g>
<!-- Node34 -->
<g id="node85" class="node"><title>Node34</title>
<polygon fill="white" stroke="#bfbfbf" points="1592.33,-58.5 1592.33,-79.5 1684.33,-79.5 1684.33,-58.5 1592.33,-58.5"/>
<text text-anchor="middle" x="1638.33" y="-66.5" font-family="Helvetica,sans-Serif" font-size="10.00">CustomEvents.h</text>
</g>
<!-- Node24&#45;&gt;Node34 -->
<g id="edge102" class="edge"><title>Node24&#45;&gt;Node34</title>
<path fill="none" stroke="midnightblue" d="M1305.41,-175.315C1308.43,-174.859 1311.41,-174.418 1314.33,-174 1379.49,-164.666 1555.58,-177.374 1608.33,-138 1623.72,-126.509 1631.33,-105.449 1635.02,-89.6074"/>
<polygon fill="midnightblue" stroke="midnightblue" points="1638.48,-90.1449 1636.99,-79.6551 1631.61,-88.7831 1638.48,-90.1449"/>
</g>
<!-- Node35 -->
<g id="node87" class="node"><title>Node35</title>
<a xlink:href="StatusBar_8h.htm" target="_top" xlink:title="StatusBar.h">
<polygon fill="white" stroke="black" points="1528.83,-116.5 1528.83,-137.5 1599.83,-137.5 1599.83,-116.5 1528.83,-116.5"/>
<text text-anchor="middle" x="1564.33" y="-124.5" font-family="Helvetica,sans-Serif" font-size="10.00">StatusBar.h</text>
</a>
</g>
<!-- Node24&#45;&gt;Node35 -->
<g id="edge104" class="edge"><title>Node24&#45;&gt;Node35</title>
<path fill="none" stroke="midnightblue" d="M1305.53,-175.218C1372.75,-163.886 1478.47,-145.951 1518.52,-138.204"/>
<polygon fill="midnightblue" stroke="midnightblue" points="1519.25,-141.628 1528.36,-136.224 1517.87,-134.765 1519.25,-141.628"/>
</g>
<!-- Node31&#45;&gt;Node2 -->
<g id="edge82" class="edge"><title>Node31&#45;&gt;Node2</title>
<path fill="none" stroke="midnightblue" d="M1326,-58.9612C1323.07,-58.6147 1320.17,-58.2918 1317.33,-58 1020.6,-27.5363 661.51,-15.523 538.291,-12.11"/>
<polygon fill="midnightblue" stroke="midnightblue" points="538.218,-8.60678 528.126,-11.8332 538.027,-15.6042 538.218,-8.60678"/>
</g>
<!-- Node31&#45;&gt;Node15 -->
<g id="edge86" class="edge"><title>Node31&#45;&gt;Node15</title>
<path fill="none" stroke="midnightblue" d="M1391.33,-58.3619C1391.33,-50.9219 1391.33,-40.7427 1391.33,-31.7276"/>
<polygon fill="midnightblue" stroke="midnightblue" points="1394.83,-31.5706 1391.33,-21.5707 1387.83,-31.5707 1394.83,-31.5706"/>
</g>
<!-- Node31&#45;&gt;Node16 -->
<g id="edge84" class="edge"><title>Node31&#45;&gt;Node16</title>
<path fill="none" stroke="midnightblue" d="M1353.12,-58.4966C1312.74,-47.3965 1249.78,-30.0912 1212.05,-19.7186"/>
<polygon fill="midnightblue" stroke="midnightblue" points="1212.68,-16.2635 1202.11,-16.9877 1210.83,-23.0131 1212.68,-16.2635"/>
</g>
<!-- Node32&#45;&gt;Node2 -->
<g id="edge92" class="edge"><title>Node32&#45;&gt;Node2</title>
<path fill="none" stroke="midnightblue" d="M1207.78,-62.8548C1192.83,-61.15 1176.43,-59.388 1161.33,-58 926.675,-36.4373 644.781,-19.5193 538.099,-13.4375"/>
<polygon fill="midnightblue" stroke="midnightblue" points="538.215,-9.93851 528.033,-12.8662 537.818,-16.9273 538.215,-9.93851"/>
</g>
<!-- Node32&#45;&gt;Node17 -->
<g id="edge94" class="edge"><title>Node32&#45;&gt;Node17</title>
<path fill="none" stroke="midnightblue" d="M1258.33,-58.3619C1258.33,-50.9219 1258.33,-40.7427 1258.33,-31.7276"/>
<polygon fill="midnightblue" stroke="midnightblue" points="1261.83,-31.5706 1258.33,-21.5707 1254.83,-31.5707 1261.83,-31.5706"/>
</g>
<!-- Node33&#45;&gt;Node2 -->
<g id="edge98" class="edge"><title>Node33&#45;&gt;Node2</title>
<path fill="none" stroke="midnightblue" d="M1047.81,-59.2106C1044.94,-58.7762 1042.1,-58.3689 1039.33,-58 853.73,-33.3164 630.765,-18.7764 538.064,-13.3959"/>
<polygon fill="midnightblue" stroke="midnightblue" points="538.121,-9.8935 527.936,-12.8146 537.719,-16.882 538.121,-9.8935"/>
</g>
<!-- Node35&#45;&gt;Node13 -->
<g id="edge106" class="edge"><title>Node35&#45;&gt;Node13</title>
<path fill="none" stroke="midnightblue" d="M1553.51,-116.362C1545.11,-108.104 1533.28,-96.4725 1523.44,-86.8029"/>
<polygon fill="midnightblue" stroke="midnightblue" points="1525.67,-84.0851 1516.08,-79.5707 1520.76,-89.077 1525.67,-84.0851"/>
</g>
<!-- Node35&#45;&gt;Node18 -->
<g id="edge110" class="edge"><title>Node35&#45;&gt;Node18</title>
<path fill="none" stroke="midnightblue" d="M1567.01,-116.295C1571.82,-97.0451 1582.01,-56.2889 1588.2,-31.5091"/>
<polygon fill="midnightblue" stroke="midnightblue" points="1591.63,-32.2295 1590.66,-21.6792 1584.84,-30.5317 1591.63,-32.2295"/>
</g>
<!-- Node35&#45;&gt;Node33 -->
<g id="edge112" class="edge"><title>Node35&#45;&gt;Node33</title>
<path fill="none" stroke="midnightblue" d="M1528.4,-117.601C1525.68,-117.017 1522.96,-116.475 1520.33,-116 1515.97,-115.215 1279.05,-88.8539 1163.02,-75.9617"/>
<polygon fill="midnightblue" stroke="midnightblue" points="1163.18,-72.458 1152.86,-74.8323 1162.41,-79.4152 1163.18,-72.458"/>
</g>
<!-- Node35&#45;&gt;Node34 -->
<g id="edge114" class="edge"><title>Node35&#45;&gt;Node34</title>
<path fill="none" stroke="midnightblue" d="M1577.9,-116.362C1588.75,-107.859 1604.16,-95.7785 1616.71,-85.9466"/>
<polygon fill="midnightblue" stroke="midnightblue" points="1619.13,-88.4942 1624.84,-79.5707 1614.81,-82.9848 1619.13,-88.4942"/>
</g>
<!-- Node35&#45;&gt;Node36 -->
<g id="edge108" class="edge"><title>Node35&#45;&gt;Node36</title>
<path fill="none" stroke="midnightblue" d="M1595.12,-116.497C1623.05,-106.965 1664.4,-92.8571 1694.78,-82.4929"/>
<polygon fill="midnightblue" stroke="midnightblue" points="1696.29,-85.6752 1704.63,-79.1337 1694.03,-79.0502 1696.29,-85.6752"/>
</g>
<!-- Node46&#45;&gt;Node2 -->
<g id="edge138" class="edge"><title>Node46&#45;&gt;Node2</title>
<path fill="none" stroke="midnightblue" d="M466.62,-116.193C469.556,-102.566 474.919,-78.4471 480.33,-58 482.631,-49.3011 485.419,-39.7742 487.899,-31.5855"/>
<polygon fill="midnightblue" stroke="midnightblue" points="491.322,-32.3608 490.914,-21.7738 484.631,-30.3041 491.322,-32.3608"/>
</g>
<!-- Node47&#45;&gt;Node2 -->
<g id="edge144" class="edge"><title>Node47&#45;&gt;Node2</title>
<path fill="none" stroke="midnightblue" d="M224.007,-116.251C227.007,-100.835 234.81,-72.69 253.33,-58 283.244,-34.2725 389.299,-20.7381 450.289,-14.7497"/>
<polygon fill="midnightblue" stroke="midnightblue" points="450.775,-18.2193 460.398,-13.7856 450.11,-11.2509 450.775,-18.2193"/>
</g>
<!-- Node47&#45;&gt;Node16 -->
<g id="edge150" class="edge"><title>Node47&#45;&gt;Node16</title>
<path fill="none" stroke="midnightblue" d="M259.345,-116.377C315.028,-100.853 423.894,-72.2676 518.33,-58 758.845,-21.6624 1052.88,-13.2941 1148.59,-11.4767"/>
<polygon fill="midnightblue" stroke="midnightblue" points="1148.83,-14.9732 1158.76,-11.2945 1148.7,-7.9743 1148.83,-14.9732"/>
</g>
<!-- Node47&#45;&gt;Node17 -->
<g id="edge146" class="edge"><title>Node47&#45;&gt;Node17</title>
<path fill="none" stroke="midnightblue" d="M277.7,-118.211C328.967,-109.71 407.186,-95.8166 474.33,-80 508.973,-71.8393 516.23,-63.8964 551.33,-58 840.602,-9.40491 919.871,-62.9099 1210.33,-22 1215.94,-21.2101 1221.86,-20.0923 1227.55,-18.8693"/>
<polygon fill="midnightblue" stroke="midnightblue" points="1228.48,-22.2477 1237.45,-16.6022 1226.92,-15.4246 1228.48,-22.2477"/>
</g>
<!-- Node48 -->
<g id="node122" class="node"><title>Node48</title>
<polygon fill="white" stroke="#bfbfbf" points="164.83,-58.5 164.83,-79.5 201.83,-79.5 201.83,-58.5 164.83,-58.5"/>
<text text-anchor="middle" x="183.33" y="-66.5" font-family="Helvetica,sans-Serif" font-size="10.00">map</text>
</g>
<!-- Node47&#45;&gt;Node48 -->
<g id="edge148" class="edge"><title>Node47&#45;&gt;Node48</title>
<path fill="none" stroke="midnightblue" d="M215.176,-116.362C209.844,-108.431 202.419,-97.3885 196.079,-87.9606"/>
<polygon fill="midnightblue" stroke="midnightblue" points="198.922,-85.9161 190.438,-79.5707 193.113,-89.8221 198.922,-85.9161"/>
</g>
<!-- Node49 -->
<g id="node125" class="node"><title>Node49</title>
<a xlink:href="AnimationEquations_8h.htm" target="_top" xlink:title="AnimationEquations.h">
<polygon fill="white" stroke="black" points="29.3297,-58.5 29.3297,-79.5 147.33,-79.5 147.33,-58.5 29.3297,-58.5"/>
<text text-anchor="middle" x="88.3297" y="-66.5" font-family="Helvetica,sans-Serif" font-size="10.00">AnimationEquations.h</text>
</a>
</g>
<!-- Node47&#45;&gt;Node49 -->
<g id="edge152" class="edge"><title>Node47&#45;&gt;Node49</title>
<path fill="none" stroke="midnightblue" d="M198.063,-116.497C176.851,-107.315 145.832,-93.8889 122.18,-83.6516"/>
<polygon fill="midnightblue" stroke="midnightblue" points="123.436,-80.3815 112.868,-79.6212 120.655,-86.8055 123.436,-80.3815"/>
</g>
<!-- Node49&#45;&gt;Node2 -->
<g id="edge154" class="edge"><title>Node49&#45;&gt;Node2</title>
<path fill="none" stroke="midnightblue" d="M147.656,-59.3236C150.588,-58.8703 153.491,-58.4268 156.33,-58 261.774,-42.1423 386.019,-25.351 450.51,-16.777"/>
<polygon fill="midnightblue" stroke="midnightblue" points="451.26,-20.2083 460.712,-15.423 450.338,-13.2692 451.26,-20.2083"/>
</g>
</g>
</svg>
