<?xml version="1.0" encoding="UTF-8" standalone="no"?>
<!DOCTYPE svg PUBLIC "-//W3C//DTD SVG 1.1//EN"
 "http://www.w3.org/Graphics/SVG/1.1/DTD/svg11.dtd">
<!-- Generated by graphviz version 2.26.3 (20100126.1600)
 -->
<!-- Title: CardGroup.h Pages: 1 -->
<svg width="556pt" height="88pt"
 viewBox="0.00 0.00 556.00 88.00" xmlns="http://www.w3.org/2000/svg" xmlns:xlink="http://www.w3.org/1999/xlink">
<g id="graph1" class="graph" transform="scale(1 1) rotate(0) translate(4 84)">
<title>CardGroup.h</title>
<polygon fill="white" stroke="white" points="-4,5 -4,-84 553,-84 553,5 -4,5"/>
<!-- Node1 -->
<g id="node1" class="node"><title>Node1</title>
<polygon fill="#bfbfbf" stroke="black" points="183.5,-58.5 183.5,-79.5 260.5,-79.5 260.5,-58.5 183.5,-58.5"/>
<text text-anchor="middle" x="222" y="-66.5" font-family="Helvetica,sans-Serif" font-size="10.00">CardGroup.h</text>
</g>
<!-- Node2 -->
<g id="node3" class="node"><title>Node2</title>
<a xlink:href="CardGroup_8cpp.htm" target="_top" xlink:title="CardGroup.cpp">
<polygon fill="white" stroke="black" points="-0.5,-0.5 -0.5,-21.5 88.5,-21.5 88.5,-0.5 -0.5,-0.5"/>
<text text-anchor="middle" x="44" y="-8.5" font-family="Helvetica,sans-Serif" font-size="10.00">CardGroup.cpp</text>
</a>
</g>
<!-- Node1&#45;&gt;Node2 -->
<g id="edge2" class="edge"><title>Node1&#45;&gt;Node2</title>
<path fill="none" stroke="midnightblue" d="M179.89,-55.2787C148.172,-44.9437 105.333,-30.9849 76.2949,-21.5231"/>
<polygon fill="midnightblue" stroke="midnightblue" points="179.173,-58.7263 189.766,-58.4966 181.342,-52.0707 179.173,-58.7263"/>
</g>
<!-- Node3 -->
<g id="node5" class="node"><title>Node3</title>
<a xlink:href="CardWindow_8cpp.htm" target="_top" xlink:title="CardWindow.cpp">
<polygon fill="white" stroke="black" points="105.5,-0.5 105.5,-21.5 202.5,-21.5 202.5,-0.5 105.5,-0.5"/>
<text text-anchor="middle" x="154" y="-8.5" font-family="Helvetica,sans-Serif" font-size="10.00">CardWindow.cpp</text>
</a>
</g>
<!-- Node1&#45;&gt;Node3 -->
<g id="edge4" class="edge"><title>Node1&#45;&gt;Node3</title>
<path fill="none" stroke="midnightblue" d="M201.706,-51.6908C190.227,-41.8996 176.244,-29.973 166.393,-21.5707"/>
<polygon fill="midnightblue" stroke="midnightblue" points="199.648,-54.5353 209.528,-58.3619 204.191,-49.2095 199.648,-54.5353"/>
</g>
<!-- Node4 -->
<g id="node7" class="node"><title>Node4</title>
<a xlink:href="CardWindowManager_8cpp.htm" target="_top" xlink:title="CardWindowManager.cpp">
<polygon fill="white" stroke="black" points="220,-0.5 220,-21.5 360,-21.5 360,-0.5 220,-0.5"/>
<text text-anchor="middle" x="290" y="-8.5" font-family="Helvetica,sans-Serif" font-size="10.00">CardWindowManager.cpp</text>
</a>
</g>
<!-- Node1&#45;&gt;Node4 -->
<g id="edge6" class="edge"><title>Node1&#45;&gt;Node4</title>
<path fill="none" stroke="midnightblue" d="M242.294,-51.6908C253.773,-41.8996 267.756,-29.973 277.607,-21.5707"/>
<polygon fill="midnightblue" stroke="midnightblue" points="239.809,-49.2095 234.472,-58.3619 244.352,-54.5353 239.809,-49.2095"/>
</g>
<!-- Node5 -->
<g id="node9" class="node"><title>Node5</title>
<a xlink:href="CardWindowManagerStates_8cpp.htm" target="_top" xlink:title="CardWindowManagerStates.cpp">
<polygon fill="white" stroke="black" points="378,-0.5 378,-21.5 548,-21.5 548,-0.5 378,-0.5"/>
<text text-anchor="middle" x="463" y="-8.5" font-family="Helvetica,sans-Serif" font-size="10.00">CardWindowManagerStates.cpp</text>
</a>
</g>
<!-- Node1&#45;&gt;Node5 -->
<g id="edge8" class="edge"><title>Node1&#45;&gt;Node5</title>
<path fill="none" stroke="midnightblue" d="M270.493,-57.3294C313.931,-46.8755 377.083,-31.6771 419.066,-21.5733"/>
<polygon fill="midnightblue" stroke="midnightblue" points="269.624,-53.9385 260.721,-59.6813 271.262,-60.7442 269.624,-53.9385"/>
</g>
</g>
</svg>
