<?xml version="1.0" encoding="UTF-8" standalone="no"?>
<!DOCTYPE svg PUBLIC "-//W3C//DTD SVG 1.1//EN"
 "http://www.w3.org/Graphics/SVG/1.1/DTD/svg11.dtd">
<!-- Generated by graphviz version 2.26.3 (20100126.1600)
 -->
<!-- Title: CardWindow.h Pages: 1 -->
<svg width="1795pt" height="204pt"
 viewBox="0.00 0.00 1795.00 204.00" xmlns="http://www.w3.org/2000/svg" xmlns:xlink="http://www.w3.org/1999/xlink">
<g id="graph1" class="graph" transform="scale(1 1) rotate(0) translate(4 200)">
<title>CardWindow.h</title>
<polygon fill="white" stroke="white" points="-4,5 -4,-200 1792,-200 1792,5 -4,5"/>
<!-- Node1 -->
<g id="node1" class="node"><title>Node1</title>
<polygon fill="#bfbfbf" stroke="black" points="725,-174.5 725,-195.5 811,-195.5 811,-174.5 725,-174.5"/>
<text text-anchor="middle" x="768" y="-182.5" font-family="Helvetica,sans-Serif" font-size="10.00">CardWindow.h</text>
</g>
<!-- Node2 -->
<g id="node3" class="node"><title>Node2</title>
<a xlink:href="SystemService_8cpp.htm" target="_top" xlink:title="SystemService.cpp">
<polygon fill="white" stroke="black" points="0,-116.5 0,-137.5 106,-137.5 106,-116.5 0,-116.5"/>
<text text-anchor="middle" x="53" y="-124.5" font-family="Helvetica,sans-Serif" font-size="10.00">SystemService.cpp</text>
</a>
</g>
<!-- Node1&#45;&gt;Node2 -->
<g id="edge2" class="edge"><title>Node1&#45;&gt;Node2</title>
<path fill="none" stroke="midnightblue" d="M714.682,-183.038C603.062,-178.518 336.764,-165.578 115,-138 112.071,-137.636 109.07,-137.226 106.045,-136.784"/>
<polygon fill="midnightblue" stroke="midnightblue" points="714.546,-186.535 724.677,-183.437 714.825,-179.541 714.546,-186.535"/>
</g>
<!-- Node3 -->
<g id="node5" class="node"><title>Node3</title>
<a xlink:href="SystemUiController_8cpp.htm" target="_top" xlink:title="SystemUiController.cpp">
<polygon fill="white" stroke="black" points="123.5,-116.5 123.5,-137.5 250.5,-137.5 250.5,-116.5 123.5,-116.5"/>
<text text-anchor="middle" x="187" y="-124.5" font-family="Helvetica,sans-Serif" font-size="10.00">SystemUiController.cpp</text>
</a>
</g>
<!-- Node1&#45;&gt;Node3 -->
<g id="edge4" class="edge"><title>Node1&#45;&gt;Node3</title>
<path fill="none" stroke="midnightblue" d="M714.681,-181.127C621.892,-174.153 424.774,-158.299 259,-138 256.239,-137.662 253.42,-137.301 250.575,-136.923"/>
<polygon fill="midnightblue" stroke="midnightblue" points="714.436,-184.618 724.669,-181.874 714.958,-177.638 714.436,-184.618"/>
</g>
<!-- Node4 -->
<g id="node7" class="node"><title>Node4</title>
<a xlink:href="CardGroup_8h.htm" target="_top" xlink:title="CardGroup.h">
<polygon fill="white" stroke="black" points="437.5,-116.5 437.5,-137.5 514.5,-137.5 514.5,-116.5 437.5,-116.5"/>
<text text-anchor="middle" x="476" y="-124.5" font-family="Helvetica,sans-Serif" font-size="10.00">CardGroup.h</text>
</a>
</g>
<!-- Node1&#45;&gt;Node4 -->
<g id="edge6" class="edge"><title>Node1&#45;&gt;Node4</title>
<path fill="none" stroke="midnightblue" d="M714.873,-174.447C657.041,-162.96 565.969,-144.871 514.596,-134.666"/>
<polygon fill="midnightblue" stroke="midnightblue" points="714.424,-177.927 724.914,-176.442 715.788,-171.061 714.424,-177.927"/>
</g>
<!-- Node6 -->
<g id="node11" class="node"><title>Node6</title>
<a xlink:href="CardWindow_8cpp.htm" target="_top" xlink:title="CardWindow.cpp">
<polygon fill="white" stroke="black" points="121.5,-58.5 121.5,-79.5 218.5,-79.5 218.5,-58.5 121.5,-58.5"/>
<text text-anchor="middle" x="170" y="-66.5" font-family="Helvetica,sans-Serif" font-size="10.00">CardWindow.cpp</text>
</a>
</g>
<!-- Node1&#45;&gt;Node6 -->
<g id="edge32" class="edge"><title>Node1&#45;&gt;Node6</title>
<path fill="none" stroke="midnightblue" d="M714.627,-181.487C624.223,-175.03 445.041,-159.901 386,-138 369.473,-131.869 369.097,-123.183 353,-116 329.186,-105.374 264.36,-89.8167 218.653,-79.553"/>
<polygon fill="midnightblue" stroke="midnightblue" points="714.45,-184.983 724.671,-182.195 714.942,-178.001 714.45,-184.983"/>
</g>
<!-- Node7 -->
<g id="node13" class="node"><title>Node7</title>
<a xlink:href="CardWindowManager_8cpp.htm" target="_top" xlink:title="CardWindowManager.cpp">
<polygon fill="white" stroke="black" points="236,-58.5 236,-79.5 376,-79.5 376,-58.5 236,-58.5"/>
<text text-anchor="middle" x="306" y="-66.5" font-family="Helvetica,sans-Serif" font-size="10.00">CardWindowManager.cpp</text>
</a>
</g>
<!-- Node1&#45;&gt;Node7 -->
<g id="edge42" class="edge"><title>Node1&#45;&gt;Node7</title>
<path fill="none" stroke="midnightblue" d="M714.78,-180.059C633.081,-172.063 480.779,-155.418 429,-138 417.977,-134.292 355.563,-98.0799 324.113,-79.6545"/>
<polygon fill="midnightblue" stroke="midnightblue" points="714.57,-183.555 724.861,-181.037 715.246,-176.588 714.57,-183.555"/>
</g>
<!-- Node8 -->
<g id="node15" class="node"><title>Node8</title>
<a xlink:href="CardWindowManagerStates_8cpp.htm" target="_top" xlink:title="CardWindowManagerStates.cpp">
<polygon fill="white" stroke="black" points="500,-58.5 500,-79.5 670,-79.5 670,-58.5 500,-58.5"/>
<text text-anchor="middle" x="585" y="-66.5" font-family="Helvetica,sans-Serif" font-size="10.00">CardWindowManagerStates.cpp</text>
</a>
</g>
<!-- Node1&#45;&gt;Node8 -->
<g id="edge44" class="edge"><title>Node1&#45;&gt;Node8</title>
<path fill="none" stroke="midnightblue" d="M717.022,-171.414C694.057,-163.821 667.366,-152.847 646,-138 622.628,-121.759 602.267,-94.7444 592.029,-79.7902"/>
<polygon fill="midnightblue" stroke="midnightblue" points="716.019,-174.767 726.609,-174.462 718.14,-168.097 716.019,-174.767"/>
</g>
<!-- Node9 -->
<g id="node17" class="node"><title>Node9</title>
<a xlink:href="CardHostWindow_8h.htm" target="_top" xlink:title="CardHostWindow.h">
<polygon fill="white" stroke="black" points="654.5,-116.5 654.5,-137.5 761.5,-137.5 761.5,-116.5 654.5,-116.5"/>
<text text-anchor="middle" x="708" y="-124.5" font-family="Helvetica,sans-Serif" font-size="10.00">CardHostWindow.h</text>
</a>
</g>
<!-- Node1&#45;&gt;Node9 -->
<g id="edge16" class="edge"><title>Node1&#45;&gt;Node9</title>
<path fill="none" stroke="midnightblue" d="M749.798,-167.405C739.726,-157.668 727.543,-145.891 718.935,-137.571"/>
<polygon fill="midnightblue" stroke="midnightblue" points="747.373,-169.928 756.995,-174.362 752.238,-164.895 747.373,-169.928"/>
</g>
<!-- Node14 -->
<g id="node28" class="node"><title>Node14</title>
<a xlink:href="CardLoading_8cpp.htm" target="_top" xlink:title="CardLoading.cpp">
<polygon fill="white" stroke="black" points="779,-116.5 779,-137.5 877,-137.5 877,-116.5 779,-116.5"/>
<text text-anchor="middle" x="828" y="-124.5" font-family="Helvetica,sans-Serif" font-size="10.00">CardLoading.cpp</text>
</a>
</g>
<!-- Node1&#45;&gt;Node14 -->
<g id="edge28" class="edge"><title>Node1&#45;&gt;Node14</title>
<path fill="none" stroke="midnightblue" d="M786.202,-167.405C796.274,-157.668 808.457,-145.891 817.065,-137.571"/>
<polygon fill="midnightblue" stroke="midnightblue" points="783.762,-164.895 779.005,-174.362 788.627,-169.928 783.762,-164.895"/>
</g>
<!-- Node15 -->
<g id="node30" class="node"><title>Node15</title>
<a xlink:href="CardTransition_8cpp.htm" target="_top" xlink:title="CardTransition.cpp">
<polygon fill="white" stroke="black" points="894.5,-116.5 894.5,-137.5 1001.5,-137.5 1001.5,-116.5 894.5,-116.5"/>
<text text-anchor="middle" x="948" y="-124.5" font-family="Helvetica,sans-Serif" font-size="10.00">CardTransition.cpp</text>
</a>
</g>
<!-- Node1&#45;&gt;Node15 -->
<g id="edge30" class="edge"><title>Node1&#45;&gt;Node15</title>
<path fill="none" stroke="midnightblue" d="M810.167,-171.413C842.282,-161.065 885.851,-147.026 915.342,-137.523"/>
<polygon fill="midnightblue" stroke="midnightblue" points="809.041,-168.098 800.597,-174.497 811.188,-174.761 809.041,-168.098"/>
</g>
<!-- Node16 -->
<g id="node33" class="node"><title>Node16</title>
<a xlink:href="GhostCard_8h.htm" target="_top" xlink:title="GhostCard.h">
<polygon fill="white" stroke="black" points="267.5,-116.5 267.5,-137.5 344.5,-137.5 344.5,-116.5 267.5,-116.5"/>
<text text-anchor="middle" x="306" y="-124.5" font-family="Helvetica,sans-Serif" font-size="10.00">GhostCard.h</text>
</a>
</g>
<!-- Node1&#45;&gt;Node16 -->
<g id="edge34" class="edge"><title>Node1&#45;&gt;Node16</title>
<path fill="none" stroke="midnightblue" d="M714.603,-180.5C636.145,-173.521 485.235,-158.703 358,-138 353.628,-137.289 349.068,-136.457 344.543,-135.576"/>
<polygon fill="midnightblue" stroke="midnightblue" points="714.456,-184 724.724,-181.392 715.071,-177.027 714.456,-184"/>
</g>
<!-- Node18 -->
<g id="node41" class="node"><title>Node18</title>
<a xlink:href="DockModeWindow_8h.htm" target="_top" xlink:title="DockModeWindow.h">
<polygon fill="white" stroke="black" points="1018.5,-116.5 1018.5,-137.5 1131.5,-137.5 1131.5,-116.5 1018.5,-116.5"/>
<text text-anchor="middle" x="1075" y="-124.5" font-family="Helvetica,sans-Serif" font-size="10.00">DockModeWindow.h</text>
</a>
</g>
<!-- Node1&#45;&gt;Node18 -->
<g id="edge46" class="edge"><title>Node1&#45;&gt;Node18</title>
<path fill="none" stroke="midnightblue" d="M820.975,-174.992C876.357,-164.529 962.902,-148.178 1019.29,-137.526"/>
<polygon fill="midnightblue" stroke="midnightblue" points="820.187,-171.579 811.01,-176.874 821.486,-178.457 820.187,-171.579"/>
</g>
<!-- Node24 -->
<g id="node54" class="node"><title>Node24</title>
<a xlink:href="WebAppMgrProxy_8cpp.htm" target="_top" xlink:title="WebAppMgrProxy.cpp">
<polygon fill="white" stroke="black" points="1438,-58.5 1438,-79.5 1560,-79.5 1560,-58.5 1438,-58.5"/>
<text text-anchor="middle" x="1499" y="-66.5" font-family="Helvetica,sans-Serif" font-size="10.00">WebAppMgrProxy.cpp</text>
</a>
</g>
<!-- Node1&#45;&gt;Node24 -->
<g id="edge70" class="edge"><title>Node1&#45;&gt;Node24</title>
<path fill="none" stroke="midnightblue" d="M821.125,-180.903C909.361,-173.661 1082.15,-157.508 1140,-138 1158.49,-131.764 1159.56,-122.391 1178,-116 1284.48,-79.095 1317.55,-96.7478 1429,-80 1431.92,-79.5612 1434.91,-79.1081 1437.92,-78.647"/>
<polygon fill="midnightblue" stroke="midnightblue" points="820.738,-177.422 811.054,-181.721 821.305,-184.399 820.738,-177.422"/>
</g>
<!-- Node25 -->
<g id="node56" class="node"><title>Node25</title>
<a xlink:href="EmergencyWindowManager_8cpp.htm" target="_top" xlink:title="EmergencyWindowManager.cpp">
<polygon fill="white" stroke="black" points="1187,-116.5 1187,-137.5 1357,-137.5 1357,-116.5 1187,-116.5"/>
<text text-anchor="middle" x="1272" y="-124.5" font-family="Helvetica,sans-Serif" font-size="10.00">EmergencyWindowManager.cpp</text>
</a>
</g>
<!-- Node1&#45;&gt;Node25 -->
<g id="edge62" class="edge"><title>Node1&#45;&gt;Node25</title>
<path fill="none" stroke="midnightblue" d="M821.606,-178.831C908.828,-168.794 1082.19,-148.843 1186.55,-136.834"/>
<polygon fill="midnightblue" stroke="midnightblue" points="820.941,-175.384 811.407,-180.005 821.742,-182.338 820.941,-175.384"/>
</g>
<!-- Node26 -->
<g id="node58" class="node"><title>Node26</title>
<a xlink:href="LockWindow_8cpp.htm" target="_top" xlink:title="LockWindow.cpp">
<polygon fill="white" stroke="black" points="1375,-116.5 1375,-137.5 1471,-137.5 1471,-116.5 1375,-116.5"/>
<text text-anchor="middle" x="1423" y="-124.5" font-family="Helvetica,sans-Serif" font-size="10.00">LockWindow.cpp</text>
</a>
</g>
<!-- Node1&#45;&gt;Node26 -->
<g id="edge64" class="edge"><title>Node1&#45;&gt;Node26</title>
<path fill="none" stroke="midnightblue" d="M821.337,-182.819C926.11,-178.09 1166,-165.07 1366,-138 1368.9,-137.608 1371.87,-137.164 1374.86,-136.684"/>
<polygon fill="midnightblue" stroke="midnightblue" points="821.161,-179.323 811.327,-183.264 821.472,-186.316 821.161,-179.323"/>
</g>
<!-- Node27 -->
<g id="node60" class="node"><title>Node27</title>
<a xlink:href="WindowServerLuna_8cpp.htm" target="_top" xlink:title="WindowServerLuna.cpp">
<polygon fill="white" stroke="black" points="1489,-116.5 1489,-137.5 1617,-137.5 1617,-116.5 1489,-116.5"/>
<text text-anchor="middle" x="1553" y="-124.5" font-family="Helvetica,sans-Serif" font-size="10.00">WindowServerLuna.cpp</text>
</a>
</g>
<!-- Node1&#45;&gt;Node27 -->
<g id="edge66" class="edge"><title>Node1&#45;&gt;Node27</title>
<path fill="none" stroke="midnightblue" d="M821.3,-183.007C939.921,-178.237 1234.62,-164.54 1480,-138 1482.93,-137.683 1485.92,-137.334 1488.95,-136.962"/>
<polygon fill="midnightblue" stroke="midnightblue" points="820.9,-179.52 811.047,-183.415 821.178,-186.514 820.9,-179.52"/>
</g>
<!-- Node28 -->
<g id="node62" class="node"><title>Node28</title>
<a xlink:href="WindowManagerMinimal_8cpp.htm" target="_top" xlink:title="WindowManagerMinimal.cpp">
<polygon fill="white" stroke="black" points="1635,-116.5 1635,-137.5 1787,-137.5 1787,-116.5 1635,-116.5"/>
<text text-anchor="middle" x="1711" y="-124.5" font-family="Helvetica,sans-Serif" font-size="10.00">WindowManagerMinimal.cpp</text>
</a>
</g>
<!-- Node1&#45;&gt;Node28 -->
<g id="edge68" class="edge"><title>Node1&#45;&gt;Node28</title>
<path fill="none" stroke="midnightblue" d="M821.465,-183.446C956.529,-179.223 1322.32,-165.929 1626,-138 1628.82,-137.741 1631.68,-137.46 1634.57,-137.161"/>
<polygon fill="midnightblue" stroke="midnightblue" points="821.271,-179.951 811.384,-183.758 821.488,-186.947 821.271,-179.951"/>
</g>
<!-- Node5 -->
<g id="node9" class="node"><title>Node5</title>
<a xlink:href="CardGroup_8cpp.htm" target="_top" xlink:title="CardGroup.cpp">
<polygon fill="white" stroke="black" points="393.5,-58.5 393.5,-79.5 482.5,-79.5 482.5,-58.5 393.5,-58.5"/>
<text text-anchor="middle" x="438" y="-66.5" font-family="Helvetica,sans-Serif" font-size="10.00">CardGroup.cpp</text>
</a>
</g>
<!-- Node4&#45;&gt;Node5 -->
<g id="edge8" class="edge"><title>Node4&#45;&gt;Node5</title>
<path fill="none" stroke="midnightblue" d="M463.525,-107.959C457.342,-98.522 450.11,-87.4835 444.926,-79.5707"/>
<polygon fill="midnightblue" stroke="midnightblue" points="460.622,-109.915 469.03,-116.362 466.478,-106.079 460.622,-109.915"/>
</g>
<!-- Node4&#45;&gt;Node6 -->
<g id="edge10" class="edge"><title>Node4&#45;&gt;Node6</title>
<path fill="none" stroke="midnightblue" d="M427.242,-117.857C377.035,-108.429 296.535,-93.272 227,-80 224.228,-79.4709 221.381,-78.926 218.507,-78.375"/>
<polygon fill="midnightblue" stroke="midnightblue" points="426.7,-121.317 437.174,-119.722 427.991,-114.437 426.7,-121.317"/>
</g>
<!-- Node4&#45;&gt;Node7 -->
<g id="edge12" class="edge"><title>Node4&#45;&gt;Node7</title>
<path fill="none" stroke="midnightblue" d="M435.388,-113.144C405.136,-102.823 364.456,-88.9439 336.843,-79.5231"/>
<polygon fill="midnightblue" stroke="midnightblue" points="434.62,-116.58 445.214,-116.497 436.88,-109.955 434.62,-116.58"/>
</g>
<!-- Node4&#45;&gt;Node8 -->
<g id="edge14" class="edge"><title>Node4&#45;&gt;Node8</title>
<path fill="none" stroke="midnightblue" d="M504.577,-111.794C523.594,-101.675 548.102,-88.6338 565.039,-79.6212"/>
<polygon fill="midnightblue" stroke="midnightblue" points="502.923,-108.709 495.739,-116.497 506.211,-114.889 502.923,-108.709"/>
</g>
<!-- Node10 -->
<g id="node19" class="node"><title>Node10</title>
<a xlink:href="CardHostWindow_8cpp.htm" target="_top" xlink:title="CardHostWindow.cpp">
<polygon fill="white" stroke="black" points="687.5,-58.5 687.5,-79.5 806.5,-79.5 806.5,-58.5 687.5,-58.5"/>
<text text-anchor="middle" x="747" y="-66.5" font-family="Helvetica,sans-Serif" font-size="10.00">CardHostWindow.cpp</text>
</a>
</g>
<!-- Node9&#45;&gt;Node10 -->
<g id="edge18" class="edge"><title>Node9&#45;&gt;Node10</title>
<path fill="none" stroke="midnightblue" d="M720.803,-107.959C727.149,-98.522 734.571,-87.4835 739.892,-79.5707"/>
<polygon fill="midnightblue" stroke="midnightblue" points="717.829,-106.11 715.153,-116.362 723.638,-110.016 717.829,-106.11"/>
</g>
<!-- Node11 -->
<g id="node21" class="node"><title>Node11</title>
<a xlink:href="QtHostWindow_8h.htm" target="_top" xlink:title="QtHostWindow.h">
<polygon fill="white" stroke="black" points="823.5,-58.5 823.5,-79.5 918.5,-79.5 918.5,-58.5 823.5,-58.5"/>
<text text-anchor="middle" x="871" y="-66.5" font-family="Helvetica,sans-Serif" font-size="10.00">QtHostWindow.h</text>
</a>
</g>
<!-- Node9&#45;&gt;Node11 -->
<g id="edge20" class="edge"><title>Node9&#45;&gt;Node11</title>
<path fill="none" stroke="midnightblue" d="M747.318,-113.009C776.285,-102.702 815.066,-88.903 841.427,-79.5231"/>
<polygon fill="midnightblue" stroke="midnightblue" points="745.766,-109.847 737.518,-116.497 748.113,-116.442 745.766,-109.847"/>
</g>
<!-- Node13 -->
<g id="node25" class="node"><title>Node13</title>
<a xlink:href="IpcClientHost_8cpp.htm" target="_top" xlink:title="IpcClientHost.cpp">
<polygon fill="white" stroke="black" points="896.5,-0.5 896.5,-21.5 995.5,-21.5 995.5,-0.5 896.5,-0.5"/>
<text text-anchor="middle" x="946" y="-8.5" font-family="Helvetica,sans-Serif" font-size="10.00">IpcClientHost.cpp</text>
</a>
</g>
<!-- Node9&#45;&gt;Node13 -->
<g id="edge26" class="edge"><title>Node9&#45;&gt;Node13</title>
<path fill="none" stroke="midnightblue" d="M771.781,-114.984C834.358,-102.94 921.25,-85.4295 927,-80 943.261,-64.645 946.048,-36.7704 946.27,-21.5732"/>
<polygon fill="midnightblue" stroke="midnightblue" points="770.736,-111.621 761.574,-116.942 772.054,-118.495 770.736,-111.621"/>
</g>
<!-- Node12 -->
<g id="node23" class="node"><title>Node12</title>
<a xlink:href="QtHostWindow_8cpp.htm" target="_top" xlink:title="QtHostWindow.cpp">
<polygon fill="white" stroke="black" points="772.5,-0.5 772.5,-21.5 879.5,-21.5 879.5,-0.5 772.5,-0.5"/>
<text text-anchor="middle" x="826" y="-8.5" font-family="Helvetica,sans-Serif" font-size="10.00">QtHostWindow.cpp</text>
</a>
</g>
<!-- Node11&#45;&gt;Node12 -->
<g id="edge22" class="edge"><title>Node11&#45;&gt;Node12</title>
<path fill="none" stroke="midnightblue" d="M856.453,-50.2504C849.082,-40.75 840.404,-29.5651 834.201,-21.5707"/>
<polygon fill="midnightblue" stroke="midnightblue" points="853.851,-52.6065 862.746,-58.3619 859.382,-48.3155 853.851,-52.6065"/>
</g>
<!-- Node11&#45;&gt;Node13 -->
<g id="edge24" class="edge"><title>Node11&#45;&gt;Node13</title>
<path fill="none" stroke="midnightblue" d="M893.015,-51.9753C905.744,-42.1315 921.361,-30.0545 932.331,-21.5707"/>
<polygon fill="midnightblue" stroke="midnightblue" points="890.526,-49.4757 884.756,-58.3619 894.808,-55.0131 890.526,-49.4757"/>
</g>
<!-- Node16&#45;&gt;Node6 -->
<g id="edge36" class="edge"><title>Node16&#45;&gt;Node6</title>
<path fill="none" stroke="midnightblue" d="M271.952,-112.479C248.011,-102.269 216.518,-88.8386 194.905,-79.6212"/>
<polygon fill="midnightblue" stroke="midnightblue" points="270.8,-115.793 281.371,-116.497 273.546,-109.354 270.8,-115.793"/>
</g>
<!-- Node16&#45;&gt;Node7 -->
<g id="edge38" class="edge"><title>Node16&#45;&gt;Node7</title>
<path fill="none" stroke="midnightblue" d="M306,-106.191C306,-97.1684 306,-86.9941 306,-79.5707"/>
<polygon fill="midnightblue" stroke="midnightblue" points="302.5,-106.362 306,-116.362 309.5,-106.362 302.5,-106.362"/>
</g>
<!-- Node17 -->
<g id="node37" class="node"><title>Node17</title>
<a xlink:href="GhostCard_8cpp.htm" target="_top" xlink:title="GhostCard.cpp">
<polygon fill="white" stroke="black" points="16,-58.5 16,-79.5 104,-79.5 104,-58.5 16,-58.5"/>
<text text-anchor="middle" x="60" y="-66.5" font-family="Helvetica,sans-Serif" font-size="10.00">GhostCard.cpp</text>
</a>
</g>
<!-- Node16&#45;&gt;Node17 -->
<g id="edge40" class="edge"><title>Node16&#45;&gt;Node17</title>
<path fill="none" stroke="midnightblue" d="M257.281,-115.513C212.734,-105.011 147.406,-89.6078 104.303,-79.4455"/>
<polygon fill="midnightblue" stroke="midnightblue" points="256.756,-118.985 267.292,-117.874 258.362,-112.172 256.756,-118.985"/>
</g>
<!-- Node19 -->
<g id="node43" class="node"><title>Node19</title>
<a xlink:href="DockModeClock_8h.htm" target="_top" xlink:title="DockModeClock.h">
<polygon fill="white" stroke="black" points="1116,-58.5 1116,-79.5 1218,-79.5 1218,-58.5 1116,-58.5"/>
<text text-anchor="middle" x="1167" y="-66.5" font-family="Helvetica,sans-Serif" font-size="10.00">DockModeClock.h</text>
</a>
</g>
<!-- Node18&#45;&gt;Node19 -->
<g id="edge48" class="edge"><title>Node18&#45;&gt;Node19</title>
<path fill="none" stroke="midnightblue" d="M1100.66,-110.821C1116.51,-100.831 1136.39,-88.2993 1150.23,-79.5707"/>
<polygon fill="midnightblue" stroke="midnightblue" points="1098.47,-108.068 1091.87,-116.362 1102.2,-113.99 1098.47,-108.068"/>
</g>
<!-- Node21 -->
<g id="node47" class="node"><title>Node21</title>
<a xlink:href="DockModeWindowManager_8cpp.htm" target="_top" xlink:title="DockModeWindowManager.cpp">
<polygon fill="white" stroke="black" points="1162.5,-0.5 1162.5,-21.5 1329.5,-21.5 1329.5,-0.5 1162.5,-0.5"/>
<text text-anchor="middle" x="1246" y="-8.5" font-family="Helvetica,sans-Serif" font-size="10.00">DockModeWindowManager.cpp</text>
</a>
</g>
<!-- Node18&#45;&gt;Node21 -->
<g id="edge58" class="edge"><title>Node18&#45;&gt;Node21</title>
<path fill="none" stroke="midnightblue" d="M1137.33,-114.099C1173.41,-105.443 1214.17,-93.2343 1227,-80 1242.48,-64.0301 1245.6,-36.6585 1246.08,-21.6376"/>
<polygon fill="midnightblue" stroke="midnightblue" points="1136.24,-110.758 1127.3,-116.444 1137.84,-117.574 1136.24,-110.758"/>
</g>
<!-- Node22 -->
<g id="node49" class="node"><title>Node22</title>
<a xlink:href="DockModeLaunchPoint_8cpp.htm" target="_top" xlink:title="DockModeLaunchPoint.cpp">
<polygon fill="white" stroke="black" points="1274,-58.5 1274,-79.5 1420,-79.5 1420,-58.5 1274,-58.5"/>
<text text-anchor="middle" x="1347" y="-66.5" font-family="Helvetica,sans-Serif" font-size="10.00">DockModeLaunchPoint.cpp</text>
</a>
</g>
<!-- Node18&#45;&gt;Node22 -->
<g id="edge54" class="edge"><title>Node18&#45;&gt;Node22</title>
<path fill="none" stroke="midnightblue" d="M1134.07,-114.404C1182.97,-103.977 1251.65,-89.333 1297.65,-79.5231"/>
<polygon fill="midnightblue" stroke="midnightblue" points="1133.31,-110.988 1124.26,-116.497 1134.77,-117.834 1133.31,-110.988"/>
</g>
<!-- Node23 -->
<g id="node51" class="node"><title>Node23</title>
<a xlink:href="DockModeWindow_8cpp.htm" target="_top" xlink:title="DockModeWindow.cpp">
<polygon fill="white" stroke="black" points="973.5,-58.5 973.5,-79.5 1098.5,-79.5 1098.5,-58.5 973.5,-58.5"/>
<text text-anchor="middle" x="1036" y="-66.5" font-family="Helvetica,sans-Serif" font-size="10.00">DockModeWindow.cpp</text>
</a>
</g>
<!-- Node18&#45;&gt;Node23 -->
<g id="edge56" class="edge"><title>Node18&#45;&gt;Node23</title>
<path fill="none" stroke="midnightblue" d="M1062.2,-107.959C1055.85,-98.522 1048.43,-87.4835 1043.11,-79.5707"/>
<polygon fill="midnightblue" stroke="midnightblue" points="1059.36,-110.016 1067.85,-116.362 1065.17,-106.11 1059.36,-110.016"/>
</g>
<!-- Node18&#45;&gt;Node24 -->
<g id="edge60" class="edge"><title>Node18&#45;&gt;Node24</title>
<path fill="none" stroke="midnightblue" d="M1141.69,-116.474C1142.8,-116.314 1143.9,-116.156 1145,-116 1270.97,-98.1224 1303.03,-97.8776 1429,-80 1431.92,-79.5851 1434.91,-79.1514 1437.93,-78.7059"/>
<polygon fill="midnightblue" stroke="midnightblue" points="1140.91,-113.051 1131.52,-117.97 1141.92,-119.977 1140.91,-113.051"/>
</g>
<!-- Node20 -->
<g id="node45" class="node"><title>Node20</title>
<a xlink:href="DockModeClock_8cpp.htm" target="_top" xlink:title="DockModeClock.cpp">
<polygon fill="white" stroke="black" points="1032.5,-0.5 1032.5,-21.5 1145.5,-21.5 1145.5,-0.5 1032.5,-0.5"/>
<text text-anchor="middle" x="1089" y="-8.5" font-family="Helvetica,sans-Serif" font-size="10.00">DockModeClock.cpp</text>
</a>
</g>
<!-- Node19&#45;&gt;Node20 -->
<g id="edge50" class="edge"><title>Node19&#45;&gt;Node20</title>
<path fill="none" stroke="midnightblue" d="M1144.49,-52.2587C1131.18,-42.3641 1114.73,-30.1361 1103.22,-21.5707"/>
<polygon fill="midnightblue" stroke="midnightblue" points="1142.58,-55.2035 1152.69,-58.3619 1146.76,-49.5862 1142.58,-55.2035"/>
</g>
<!-- Node19&#45;&gt;Node21 -->
<g id="edge52" class="edge"><title>Node19&#45;&gt;Node21</title>
<path fill="none" stroke="midnightblue" d="M1189.8,-52.2587C1203.28,-42.3641 1219.94,-30.1361 1231.6,-21.5707"/>
<polygon fill="midnightblue" stroke="midnightblue" points="1187.48,-49.6225 1181.49,-58.3619 1191.62,-55.2651 1187.48,-49.6225"/>
</g>
</g>
</svg>
