<?xml version="1.0" encoding="UTF-8" standalone="no"?>
<!DOCTYPE svg PUBLIC "-//W3C//DTD SVG 1.1//EN"
 "http://www.w3.org/Graphics/SVG/1.1/DTD/svg11.dtd">
<!-- Generated by graphviz version 2.26.3 (20100126.1600)
 -->
<!-- Title: CardLoading.h Pages: 1 -->
<svg width="588pt" height="146pt"
 viewBox="0.00 0.00 588.00 146.00" xmlns="http://www.w3.org/2000/svg" xmlns:xlink="http://www.w3.org/1999/xlink">
<g id="graph1" class="graph" transform="scale(1 1) rotate(0) translate(4 142)">
<title>CardLoading.h</title>
<polygon fill="white" stroke="white" points="-4,5 -4,-142 585,-142 585,5 -4,5"/>
<!-- Node1 -->
<g id="node1" class="node"><title>Node1</title>
<polygon fill="#bfbfbf" stroke="black" points="201,-116.5 201,-137.5 287,-137.5 287,-116.5 201,-116.5"/>
<text text-anchor="middle" x="244" y="-124.5" font-family="Helvetica,sans-Serif" font-size="10.00">CardLoading.h</text>
</g>
<!-- Node2 -->
<g id="node3" class="node"><title>Node2</title>
<polygon fill="white" stroke="#bfbfbf" points="-0.5,-0.5 -0.5,-21.5 66.5,-21.5 66.5,-0.5 -0.5,-0.5"/>
<text text-anchor="middle" x="33" y="-8.5" font-family="Helvetica,sans-Serif" font-size="10.00">Common.h</text>
</g>
<!-- Node1&#45;&gt;Node2 -->
<g id="edge2" class="edge"><title>Node1&#45;&gt;Node2</title>
<path fill="none" stroke="midnightblue" d="M200.948,-124.725C139.869,-120.494 32.8062,-109.039 9,-80 -2.83026,-65.5694 6.86426,-44.9357 17.2501,-29.995"/>
<polygon fill="midnightblue" stroke="midnightblue" points="20.0869,-32.0458 23.2875,-21.946 14.4871,-27.8455 20.0869,-32.0458"/>
</g>
<!-- Node3 -->
<g id="node5" class="node"><title>Node3</title>
<a xlink:href="AnimationEquations_8h.htm" target="_top" xlink:title="AnimationEquations.h">
<polygon fill="white" stroke="black" points="18,-58.5 18,-79.5 136,-79.5 136,-58.5 18,-58.5"/>
<text text-anchor="middle" x="77" y="-66.5" font-family="Helvetica,sans-Serif" font-size="10.00">AnimationEquations.h</text>
</a>
</g>
<!-- Node1&#45;&gt;Node3 -->
<g id="edge4" class="edge"><title>Node1&#45;&gt;Node3</title>
<path fill="none" stroke="midnightblue" d="M213.758,-116.497C186.65,-107.082 146.69,-93.2036 116.957,-82.8773"/>
<polygon fill="midnightblue" stroke="midnightblue" points="117.894,-79.4977 107.299,-79.5231 115.597,-86.1102 117.894,-79.4977"/>
</g>
<!-- Node4 -->
<g id="node8" class="node"><title>Node4</title>
<polygon fill="white" stroke="#bfbfbf" points="153.5,-58.5 153.5,-79.5 212.5,-79.5 212.5,-58.5 153.5,-58.5"/>
<text text-anchor="middle" x="183" y="-66.5" font-family="Helvetica,sans-Serif" font-size="10.00">QPainter</text>
</g>
<!-- Node1&#45;&gt;Node4 -->
<g id="edge8" class="edge"><title>Node1&#45;&gt;Node4</title>
<path fill="none" stroke="midnightblue" d="M232.812,-116.362C224.041,-108.023 211.651,-96.2418 201.422,-86.5162"/>
<polygon fill="midnightblue" stroke="midnightblue" points="203.776,-83.9248 194.117,-79.5707 198.953,-88.9978 203.776,-83.9248"/>
</g>
<!-- Node5 -->
<g id="node10" class="node"><title>Node5</title>
<polygon fill="white" stroke="#bfbfbf" points="230,-58.5 230,-79.5 380,-79.5 380,-58.5 230,-58.5"/>
<text text-anchor="middle" x="305" y="-66.5" font-family="Helvetica,sans-Serif" font-size="10.00">QSequentialAnimationGroup</text>
</g>
<!-- Node1&#45;&gt;Node5 -->
<g id="edge10" class="edge"><title>Node1&#45;&gt;Node5</title>
<path fill="none" stroke="midnightblue" d="M255.188,-116.362C263.959,-108.023 276.349,-96.2418 286.578,-86.5162"/>
<polygon fill="midnightblue" stroke="midnightblue" points="289.047,-88.9978 293.883,-79.5707 284.224,-83.9248 289.047,-88.9978"/>
</g>
<!-- Node6 -->
<g id="node12" class="node"><title>Node6</title>
<polygon fill="white" stroke="#bfbfbf" points="398,-58.5 398,-79.5 510,-79.5 510,-58.5 398,-58.5"/>
<text text-anchor="middle" x="454" y="-66.5" font-family="Helvetica,sans-Serif" font-size="10.00">QPropertyAnimation</text>
</g>
<!-- Node1&#45;&gt;Node6 -->
<g id="edge12" class="edge"><title>Node1&#45;&gt;Node6</title>
<path fill="none" stroke="midnightblue" d="M282.029,-116.497C316.858,-106.877 368.559,-92.5981 406.174,-82.209"/>
<polygon fill="midnightblue" stroke="midnightblue" points="407.192,-85.5591 415.899,-79.5231 405.328,-78.8117 407.192,-85.5591"/>
</g>
<!-- Node7 -->
<g id="node14" class="node"><title>Node7</title>
<polygon fill="white" stroke="#bfbfbf" points="528,-58.5 528,-79.5 580,-79.5 580,-58.5 528,-58.5"/>
<text text-anchor="middle" x="554" y="-66.5" font-family="Helvetica,sans-Serif" font-size="10.00">QTimer</text>
</g>
<!-- Node1&#45;&gt;Node7 -->
<g id="edge14" class="edge"><title>Node1&#45;&gt;Node7</title>
<path fill="none" stroke="midnightblue" d="M287.237,-121.455C339.748,-114.315 431.113,-100.589 517.985,-80.0166"/>
<polygon fill="midnightblue" stroke="midnightblue" points="518.828,-83.4137 527.734,-77.6741 517.193,-76.6075 518.828,-83.4137"/>
</g>
<!-- Node3&#45;&gt;Node2 -->
<g id="edge6" class="edge"><title>Node3&#45;&gt;Node2</title>
<path fill="none" stroke="midnightblue" d="M68.9297,-58.3619C62.8514,-50.3496 54.3631,-39.1605 47.1631,-29.6696"/>
<polygon fill="midnightblue" stroke="midnightblue" points="49.8514,-27.4222 41.0191,-21.5707 44.2746,-31.653 49.8514,-27.4222"/>
</g>
</g>
</svg>
