<?xml version="1.0" encoding="UTF-8" standalone="no"?>
<!DOCTYPE svg PUBLIC "-//W3C//DTD SVG 1.1//EN"
 "http://www.w3.org/Graphics/SVG/1.1/DTD/svg11.dtd">
<!-- Generated by graphviz version 2.26.3 (20100126.1600)
 -->
<!-- Title: CardLoading.cpp Pages: 1 -->
<svg width="2301pt" height="320pt"
 viewBox="0.00 0.00 2301.00 320.00" xmlns="http://www.w3.org/2000/svg" xmlns:xlink="http://www.w3.org/1999/xlink">
<g id="graph1" class="graph" transform="scale(1 1) rotate(0) translate(4 316)">
<title>CardLoading.cpp</title>
<polygon fill="white" stroke="white" points="-4,5 -4,-316 2298,-316 2298,5 -4,5"/>
<!-- Node1 -->
<g id="node1" class="node"><title>Node1</title>
<polygon fill="#bfbfbf" stroke="black" points="702,-290.5 702,-311.5 800,-311.5 800,-290.5 702,-290.5"/>
<text text-anchor="middle" x="751" y="-298.5" font-family="Helvetica,sans-Serif" font-size="10.00">CardLoading.cpp</text>
</g>
<!-- Node2 -->
<g id="node3" class="node"><title>Node2</title>
<polygon fill="white" stroke="#bfbfbf" points="815.5,-0.5 815.5,-21.5 882.5,-21.5 882.5,-0.5 815.5,-0.5"/>
<text text-anchor="middle" x="849" y="-8.5" font-family="Helvetica,sans-Serif" font-size="10.00">Common.h</text>
</g>
<!-- Node1&#45;&gt;Node2 -->
<g id="edge2" class="edge"><title>Node1&#45;&gt;Node2</title>
<path fill="none" stroke="midnightblue" d="M701.725,-298.607C534.647,-289.845 0,-256.241 0,-185 0,-185 0,-185 0,-127 0,-50.7807 82.9825,-76.1877 157,-58 280.816,-27.5758 673.305,-15.3251 805.247,-11.9998"/>
<polygon fill="midnightblue" stroke="midnightblue" points="805.472,-15.4954 815.383,-11.7491 805.299,-8.4975 805.472,-15.4954"/>
</g>
<!-- Node3 -->
<g id="node5" class="node"><title>Node3</title>
<a xlink:href="CardLoading_8h.htm" target="_top" xlink:title="CardLoading.h">
<polygon fill="white" stroke="black" points="239,-174.5 239,-195.5 325,-195.5 325,-174.5 239,-174.5"/>
<text text-anchor="middle" x="282" y="-182.5" font-family="Helvetica,sans-Serif" font-size="10.00">CardLoading.h</text>
</a>
</g>
<!-- Node1&#45;&gt;Node3 -->
<g id="edge4" class="edge"><title>Node1&#45;&gt;Node3</title>
<path fill="none" stroke="midnightblue" d="M701.854,-292.275C654.712,-283.617 581.647,-269.437 519,-254 450.436,-237.105 371.946,-213.372 324.714,-198.604"/>
<polygon fill="midnightblue" stroke="midnightblue" points="325.714,-195.25 315.125,-195.594 323.618,-201.928 325.714,-195.25"/>
</g>
<!-- Node9 -->
<g id="node19" class="node"><title>Node9</title>
<a xlink:href="ApplicationDescription_8h.htm" target="_top" xlink:title="ApplicationDescription.h">
<polygon fill="white" stroke="black" points="1826,-116.5 1826,-137.5 1956,-137.5 1956,-116.5 1826,-116.5"/>
<text text-anchor="middle" x="1891" y="-124.5" font-family="Helvetica,sans-Serif" font-size="10.00">ApplicationDescription.h</text>
</a>
</g>
<!-- Node1&#45;&gt;Node9 -->
<g id="edge20" class="edge"><title>Node1&#45;&gt;Node9</title>
<path fill="none" stroke="midnightblue" d="M800.319,-299.778C922.035,-296.369 1246.34,-284.89 1515,-254 1668.6,-236.34 1734.55,-289.086 1858,-196 1873.59,-184.243 1882.16,-163.223 1886.63,-147.463"/>
<polygon fill="midnightblue" stroke="midnightblue" points="1890.07,-148.121 1889.1,-137.571 1883.28,-146.422 1890.07,-148.121"/>
</g>
<!-- Node10 -->
<g id="node22" class="node"><title>Node10</title>
<polygon fill="white" stroke="#bfbfbf" points="1587.5,-0.5 1587.5,-21.5 1630.5,-21.5 1630.5,-0.5 1587.5,-0.5"/>
<text text-anchor="middle" x="1609" y="-8.5" font-family="Helvetica,sans-Serif" font-size="10.00">string</text>
</g>
<!-- Node1&#45;&gt;Node10 -->
<g id="edge176" class="edge"><title>Node1&#45;&gt;Node10</title>
<path fill="none" stroke="midnightblue" d="M800.174,-299.33C965.297,-293.589 1499.12,-273.922 1670,-254 1839.19,-234.275 2047,-355.339 2047,-185 2047,-185 2047,-185 2047,-127 2047,-86.6509 2023.54,-77.1093 1988,-58 1928.18,-25.8354 1721.39,-15.0514 1641.16,-12.0266"/>
<polygon fill="midnightblue" stroke="midnightblue" points="1640.83,-8.51246 1630.71,-11.6499 1640.58,-15.5079 1640.83,-8.51246"/>
</g>
<!-- Node23 -->
<g id="node54" class="node"><title>Node23</title>
<a xlink:href="AnimationSettings_8h.htm" target="_top" xlink:title="AnimationSettings.h">
<polygon fill="white" stroke="black" points="1273,-116.5 1273,-137.5 1383,-137.5 1383,-116.5 1273,-116.5"/>
<text text-anchor="middle" x="1328" y="-124.5" font-family="Helvetica,sans-Serif" font-size="10.00">AnimationSettings.h</text>
</a>
</g>
<!-- Node1&#45;&gt;Node23 -->
<g id="edge62" class="edge"><title>Node1&#45;&gt;Node23</title>
<path fill="none" stroke="midnightblue" d="M800.309,-299.127C982.69,-291.702 1611.57,-261.491 1670,-196 1676.51,-188.704 1676.43,-181.37 1670,-174 1660.99,-163.666 1490.06,-144.085 1393.33,-133.761"/>
<polygon fill="midnightblue" stroke="midnightblue" points="1393.67,-130.277 1383.35,-132.701 1392.93,-137.238 1393.67,-130.277"/>
</g>
<!-- Node24 -->
<g id="node61" class="node"><title>Node24</title>
<a xlink:href="CardWindow_8h.htm" target="_top" xlink:title="CardWindow.h">
<polygon fill="white" stroke="black" points="821,-232.5 821,-253.5 907,-253.5 907,-232.5 821,-232.5"/>
<text text-anchor="middle" x="864" y="-240.5" font-family="Helvetica,sans-Serif" font-size="10.00">CardWindow.h</text>
</a>
</g>
<!-- Node1&#45;&gt;Node24 -->
<g id="edge74" class="edge"><title>Node1&#45;&gt;Node24</title>
<path fill="none" stroke="midnightblue" d="M771.463,-290.497C789.033,-281.479 814.582,-268.365 834.385,-258.201"/>
<polygon fill="midnightblue" stroke="midnightblue" points="836.009,-261.301 843.307,-253.621 832.812,-255.074 836.009,-261.301"/>
</g>
<!-- Node25 -->
<g id="node64" class="node"><title>Node25</title>
<polygon fill="white" stroke="#bfbfbf" points="454.5,-174.5 454.5,-195.5 517.5,-195.5 517.5,-174.5 454.5,-174.5"/>
<text text-anchor="middle" x="486" y="-182.5" font-family="Helvetica,sans-Serif" font-size="10.00">Settings.h</text>
</g>
<!-- Node1&#45;&gt;Node25 -->
<g id="edge160" class="edge"><title>Node1&#45;&gt;Node25</title>
<path fill="none" stroke="midnightblue" d="M726.544,-290.295C678.898,-269.438 573.578,-223.336 519.491,-199.66"/>
<polygon fill="midnightblue" stroke="midnightblue" points="520.578,-196.315 510.014,-195.512 517.771,-202.728 520.578,-196.315"/>
</g>
<!-- Node47 -->
<g id="node124" class="node"><title>Node47</title>
<a xlink:href="CardRoundedCornerShaderStage_8h.htm" target="_top" xlink:title="CardRoundedCornerShaderStage.h">
<polygon fill="white" stroke="black" points="35,-174.5 35,-195.5 221,-195.5 221,-174.5 35,-174.5"/>
<text text-anchor="middle" x="128" y="-182.5" font-family="Helvetica,sans-Serif" font-size="10.00">CardRoundedCornerShaderStage.h</text>
</a>
</g>
<!-- Node1&#45;&gt;Node47 -->
<g id="edge174" class="edge"><title>Node1&#45;&gt;Node47</title>
<path fill="none" stroke="midnightblue" d="M701.981,-294.803C639.871,-286.695 529.63,-271.449 436,-254 345.551,-237.143 241.256,-212.717 180.186,-197.901"/>
<polygon fill="midnightblue" stroke="midnightblue" points="180.943,-194.483 170.399,-195.519 179.287,-201.285 180.943,-194.483"/>
</g>
<!-- Node48 -->
<g id="node127" class="node"><title>Node48</title>
<polygon fill="white" stroke="#bfbfbf" points="2074.5,-232.5 2074.5,-253.5 2137.5,-253.5 2137.5,-232.5 2074.5,-232.5"/>
<text text-anchor="middle" x="2106" y="-240.5" font-family="Helvetica,sans-Serif" font-size="10.00">Logging.h</text>
</g>
<!-- Node1&#45;&gt;Node48 -->
<g id="edge158" class="edge"><title>Node1&#45;&gt;Node48</title>
<path fill="none" stroke="midnightblue" d="M800.241,-300.576C1007.59,-298.584 1810.5,-288.739 2061,-254 2062.08,-253.851 2063.16,-253.687 2064.26,-253.51"/>
<polygon fill="midnightblue" stroke="midnightblue" points="2065.03,-256.927 2074.2,-251.624 2063.72,-250.05 2065.03,-256.927"/>
</g>
<!-- Node49 -->
<g id="node130" class="node"><title>Node49</title>
<a xlink:href="SystemService_8h.htm" target="_top" xlink:title="SystemService.h">
<polygon fill="white" stroke="black" points="342.5,-174.5 342.5,-195.5 437.5,-195.5 437.5,-174.5 342.5,-174.5"/>
<text text-anchor="middle" x="390" y="-182.5" font-family="Helvetica,sans-Serif" font-size="10.00">SystemService.h</text>
</a>
</g>
<!-- Node1&#45;&gt;Node49 -->
<g id="edge162" class="edge"><title>Node1&#45;&gt;Node49</title>
<path fill="none" stroke="midnightblue" d="M713.109,-290.495C680.384,-281.29 631.898,-267.334 590,-254 533.576,-236.043 468.905,-213.34 428.749,-198.989"/>
<polygon fill="midnightblue" stroke="midnightblue" points="429.929,-195.694 419.334,-195.617 427.568,-202.284 429.929,-195.694"/>
</g>
<!-- Node3&#45;&gt;Node2 -->
<g id="edge6" class="edge"><title>Node3&#45;&gt;Node2</title>
<path fill="none" stroke="midnightblue" d="M278.624,-174.011C274.831,-159.311 270.686,-133.116 283,-116 328.395,-52.9 372.268,-75.5205 448,-58 575.576,-28.4854 730.497,-17.0184 804.917,-12.9759"/>
<polygon fill="midnightblue" stroke="midnightblue" points="805.497,-16.4504 815.3,-12.4321 805.131,-9.46001 805.497,-16.4504"/>
</g>
<!-- Node4 -->
<g id="node8" class="node"><title>Node4</title>
<a xlink:href="AnimationEquations_8h.htm" target="_top" xlink:title="AnimationEquations.h">
<polygon fill="white" stroke="black" points="529,-58.5 529,-79.5 647,-79.5 647,-58.5 529,-58.5"/>
<text text-anchor="middle" x="588" y="-66.5" font-family="Helvetica,sans-Serif" font-size="10.00">AnimationEquations.h</text>
</a>
</g>
<!-- Node3&#45;&gt;Node4 -->
<g id="edge8" class="edge"><title>Node3&#45;&gt;Node4</title>
<path fill="none" stroke="midnightblue" d="M281.632,-174.32C281.731,-158.99 284.367,-130.951 301,-116 332.245,-87.9135 444.156,-76.4815 518.649,-71.92"/>
<polygon fill="midnightblue" stroke="midnightblue" points="519.121,-75.3985 528.9,-71.3209 518.712,-68.4104 519.121,-75.3985"/>
</g>
<!-- Node5 -->
<g id="node11" class="node"><title>Node5</title>
<polygon fill="white" stroke="#bfbfbf" points="417.5,-116.5 417.5,-137.5 476.5,-137.5 476.5,-116.5 417.5,-116.5"/>
<text text-anchor="middle" x="447" y="-124.5" font-family="Helvetica,sans-Serif" font-size="10.00">QPainter</text>
</g>
<!-- Node3&#45;&gt;Node5 -->
<g id="edge12" class="edge"><title>Node3&#45;&gt;Node5</title>
<path fill="none" stroke="midnightblue" d="M311.88,-174.497C338.747,-165.053 378.391,-151.117 407.796,-140.781"/>
<polygon fill="midnightblue" stroke="midnightblue" points="409.069,-144.043 417.342,-137.425 406.747,-137.44 409.069,-144.043"/>
</g>
<!-- Node6 -->
<g id="node13" class="node"><title>Node6</title>
<polygon fill="white" stroke="#bfbfbf" points="66,-116.5 66,-137.5 216,-137.5 216,-116.5 66,-116.5"/>
<text text-anchor="middle" x="141" y="-124.5" font-family="Helvetica,sans-Serif" font-size="10.00">QSequentialAnimationGroup</text>
</g>
<!-- Node3&#45;&gt;Node6 -->
<g id="edge14" class="edge"><title>Node3&#45;&gt;Node6</title>
<path fill="none" stroke="midnightblue" d="M256.466,-174.497C234.047,-165.275 201.215,-151.769 176.287,-141.515"/>
<polygon fill="midnightblue" stroke="midnightblue" points="177.4,-138.189 166.821,-137.621 174.737,-144.662 177.4,-138.189"/>
</g>
<!-- Node7 -->
<g id="node15" class="node"><title>Node7</title>
<polygon fill="white" stroke="#bfbfbf" points="590,-116.5 590,-137.5 702,-137.5 702,-116.5 590,-116.5"/>
<text text-anchor="middle" x="646" y="-124.5" font-family="Helvetica,sans-Serif" font-size="10.00">QPropertyAnimation</text>
</g>
<!-- Node3&#45;&gt;Node7 -->
<g id="edge16" class="edge"><title>Node3&#45;&gt;Node7</title>
<path fill="none" stroke="midnightblue" d="M325.089,-175.664C328.1,-175.08 331.093,-174.519 334,-174 440.013,-155.081 469.691,-155.23 579.8,-138.156"/>
<polygon fill="midnightblue" stroke="midnightblue" points="580.654,-141.565 589.993,-136.562 579.573,-134.649 580.654,-141.565"/>
</g>
<!-- Node8 -->
<g id="node17" class="node"><title>Node8</title>
<polygon fill="white" stroke="#bfbfbf" points="310,-116.5 310,-137.5 362,-137.5 362,-116.5 310,-116.5"/>
<text text-anchor="middle" x="336" y="-124.5" font-family="Helvetica,sans-Serif" font-size="10.00">QTimer</text>
</g>
<!-- Node3&#45;&gt;Node8 -->
<g id="edge18" class="edge"><title>Node3&#45;&gt;Node8</title>
<path fill="none" stroke="midnightblue" d="M291.904,-174.362C299.516,-166.186 310.208,-154.702 319.157,-145.091"/>
<polygon fill="midnightblue" stroke="midnightblue" points="321.906,-147.275 326.158,-137.571 316.783,-142.505 321.906,-147.275"/>
</g>
<!-- Node4&#45;&gt;Node2 -->
<g id="edge10" class="edge"><title>Node4&#45;&gt;Node2</title>
<path fill="none" stroke="midnightblue" d="M635.265,-58.4966C683.713,-47.7304 758.429,-31.1269 805.47,-20.6733"/>
<polygon fill="midnightblue" stroke="midnightblue" points="806.354,-24.0623 815.357,-18.4762 804.836,-17.229 806.354,-24.0623"/>
</g>
<!-- Node9&#45;&gt;Node2 -->
<g id="edge22" class="edge"><title>Node9&#45;&gt;Node2</title>
<path fill="none" stroke="midnightblue" d="M1825.67,-116.981C1822.74,-116.629 1819.84,-116.3 1817,-116 1562.36,-89.1514 1494.49,-122.579 1242,-80 1206.06,-73.9393 1198.65,-65.6009 1163,-58 1067.45,-37.6249 953.687,-22.9334 892.737,-15.8225"/>
<polygon fill="midnightblue" stroke="midnightblue" points="893.038,-12.3341 882.703,-14.6648 892.236,-19.288 893.038,-12.3341"/>
</g>
<!-- Node9&#45;&gt;Node10 -->
<g id="edge24" class="edge"><title>Node9&#45;&gt;Node10</title>
<path fill="none" stroke="midnightblue" d="M1912.23,-116.282C1936.33,-102.748 1970.08,-78.7244 1952,-58 1931.65,-34.6736 1721.95,-18.4545 1640.81,-13.0088"/>
<polygon fill="midnightblue" stroke="midnightblue" points="1640.9,-9.50698 1630.69,-12.3408 1640.44,-16.4918 1640.9,-9.50698"/>
</g>
<!-- Node11 -->
<g id="node24" class="node"><title>Node11</title>
<polygon fill="white" stroke="#bfbfbf" points="2055,-0.5 2055,-21.5 2105,-21.5 2105,-0.5 2055,-0.5"/>
<text text-anchor="middle" x="2080" y="-8.5" font-family="Helvetica,sans-Serif" font-size="10.00">stdint.h</text>
</g>
<!-- Node9&#45;&gt;Node11 -->
<g id="edge26" class="edge"><title>Node9&#45;&gt;Node11</title>
<path fill="none" stroke="midnightblue" d="M1914.75,-116.449C1934.11,-107.538 1961.92,-94.0201 1985,-80 2011.59,-63.847 2040.24,-42.4289 2059.05,-27.7652"/>
<polygon fill="midnightblue" stroke="midnightblue" points="2061.25,-30.4806 2066.95,-21.5463 2056.93,-24.9793 2061.25,-30.4806"/>
</g>
<!-- Node12 -->
<g id="node26" class="node"><title>Node12</title>
<polygon fill="white" stroke="#bfbfbf" points="1636.5,-58.5 1636.5,-79.5 1667.5,-79.5 1667.5,-58.5 1636.5,-58.5"/>
<text text-anchor="middle" x="1652" y="-66.5" font-family="Helvetica,sans-Serif" font-size="10.00">set</text>
</g>
<!-- Node9&#45;&gt;Node12 -->
<g id="edge28" class="edge"><title>Node9&#45;&gt;Node12</title>
<path fill="none" stroke="midnightblue" d="M1825.58,-116.469C1784.9,-109.059 1731.55,-97.7767 1677.33,-79.9876"/>
<polygon fill="midnightblue" stroke="midnightblue" points="1678.15,-76.571 1667.56,-76.7124 1675.92,-83.2083 1678.15,-76.571"/>
</g>
<!-- Node13 -->
<g id="node28" class="node"><title>Node13</title>
<polygon fill="white" stroke="#bfbfbf" points="1424.5,-0.5 1424.5,-21.5 1453.5,-21.5 1453.5,-0.5 1424.5,-0.5"/>
<text text-anchor="middle" x="1439" y="-8.5" font-family="Helvetica,sans-Serif" font-size="10.00">list</text>
</g>
<!-- Node9&#45;&gt;Node13 -->
<g id="edge30" class="edge"><title>Node9&#45;&gt;Node13</title>
<path fill="none" stroke="midnightblue" d="M1825.94,-116.698C1760.55,-106.106 1664.39,-89.8137 1628,-80 1567.53,-63.6905 1499.05,-36.3791 1463.45,-21.4778"/>
<polygon fill="midnightblue" stroke="midnightblue" points="1464.48,-18.1137 1453.9,-17.4502 1461.75,-24.563 1464.48,-18.1137"/>
</g>
<!-- Node14 -->
<g id="node30" class="node"><title>Node14</title>
<a xlink:href="LaunchPoint_8h.htm" target="_top" xlink:title="LaunchPoint.h">
<polygon fill="white" stroke="black" points="1250.5,-58.5 1250.5,-79.5 1333.5,-79.5 1333.5,-58.5 1250.5,-58.5"/>
<text text-anchor="middle" x="1292" y="-66.5" font-family="Helvetica,sans-Serif" font-size="10.00">LaunchPoint.h</text>
</a>
</g>
<!-- Node9&#45;&gt;Node14 -->
<g id="edge32" class="edge"><title>Node9&#45;&gt;Node14</title>
<path fill="none" stroke="midnightblue" d="M1825.66,-117.027C1822.74,-116.663 1819.84,-116.318 1817,-116 1609.89,-92.7885 1553.22,-110.257 1343.75,-80.0981"/>
<polygon fill="midnightblue" stroke="midnightblue" points="1344.06,-76.6062 1333.66,-78.6256 1343.05,-83.5329 1344.06,-76.6062"/>
</g>
<!-- Node17 -->
<g id="node39" class="node"><title>Node17</title>
<polygon fill="white" stroke="#bfbfbf" points="1684.5,-58.5 1684.5,-79.5 1771.5,-79.5 1771.5,-58.5 1684.5,-58.5"/>
<text text-anchor="middle" x="1728" y="-66.5" font-family="Helvetica,sans-Serif" font-size="10.00">KeywordMap.h</text>
</g>
<!-- Node9&#45;&gt;Node17 -->
<g id="edge44" class="edge"><title>Node9&#45;&gt;Node17</title>
<path fill="none" stroke="midnightblue" d="M1861.48,-116.497C1835.02,-107.082 1796.02,-93.2036 1767,-82.8773"/>
<polygon fill="midnightblue" stroke="midnightblue" points="1768.17,-79.578 1757.57,-79.5231 1765.82,-86.173 1768.17,-79.578"/>
</g>
<!-- Node18 -->
<g id="node41" class="node"><title>Node18</title>
<a xlink:href="CmdResourceHandlers_8h.htm" target="_top" xlink:title="CmdResourceHandlers.h">
<polygon fill="white" stroke="black" points="2113,-58.5 2113,-79.5 2247,-79.5 2247,-58.5 2113,-58.5"/>
<text text-anchor="middle" x="2180" y="-66.5" font-family="Helvetica,sans-Serif" font-size="10.00">CmdResourceHandlers.h</text>
</a>
</g>
<!-- Node9&#45;&gt;Node18 -->
<g id="edge46" class="edge"><title>Node9&#45;&gt;Node18</title>
<path fill="none" stroke="midnightblue" d="M1943.34,-116.497C1992.29,-106.673 2065.45,-91.9884 2117.46,-81.5512"/>
<polygon fill="midnightblue" stroke="midnightblue" points="2118.45,-84.9224 2127.57,-79.5231 2117.07,-78.0592 2118.45,-84.9224"/>
</g>
<!-- Node22 -->
<g id="node52" class="node"><title>Node22</title>
<polygon fill="white" stroke="#bfbfbf" points="1789,-58.5 1789,-79.5 1943,-79.5 1943,-58.5 1789,-58.5"/>
<text text-anchor="middle" x="1866" y="-66.5" font-family="Helvetica,sans-Serif" font-size="10.00">ApplicationDescriptionBase.h</text>
</g>
<!-- Node9&#45;&gt;Node22 -->
<g id="edge60" class="edge"><title>Node9&#45;&gt;Node22</title>
<path fill="none" stroke="midnightblue" d="M1886.41,-116.362C1883.1,-108.677 1878.53,-98.0686 1874.55,-88.8399"/>
<polygon fill="midnightblue" stroke="midnightblue" points="1877.73,-87.3685 1870.56,-79.5707 1871.3,-90.1393 1877.73,-87.3685"/>
</g>
<!-- Node14&#45;&gt;Node2 -->
<g id="edge34" class="edge"><title>Node14&#45;&gt;Node2</title>
<path fill="none" stroke="midnightblue" d="M1250.32,-63.5435C1166.48,-52.5663 978.15,-27.909 892.675,-16.7182"/>
<polygon fill="midnightblue" stroke="midnightblue" points="892.902,-13.2181 882.532,-15.3902 891.993,-20.1588 892.902,-13.2181"/>
</g>
<!-- Node14&#45;&gt;Node10 -->
<g id="edge36" class="edge"><title>Node14&#45;&gt;Node10</title>
<path fill="none" stroke="midnightblue" d="M1333.71,-59.6846C1336.52,-59.1017 1339.3,-58.535 1342,-58 1426.92,-41.1929 1527.63,-24.2766 1577.61,-16.0829"/>
<polygon fill="midnightblue" stroke="midnightblue" points="1578.18,-19.5367 1587.49,-14.47 1577.05,-12.6283 1578.18,-19.5367"/>
</g>
<!-- Node14&#45;&gt;Node13 -->
<g id="edge38" class="edge"><title>Node14&#45;&gt;Node13</title>
<path fill="none" stroke="midnightblue" d="M1318.62,-58.4966C1345.94,-47.7183 1388.08,-31.0895 1414.57,-20.638"/>
<polygon fill="midnightblue" stroke="midnightblue" points="1416.2,-23.7566 1424.22,-16.8306 1413.64,-17.2451 1416.2,-23.7566"/>
</g>
<!-- Node15 -->
<g id="node35" class="node"><title>Node15</title>
<polygon fill="white" stroke="#bfbfbf" points="1115.5,-0.5 1115.5,-21.5 1174.5,-21.5 1174.5,-0.5 1115.5,-0.5"/>
<text text-anchor="middle" x="1145" y="-8.5" font-family="Helvetica,sans-Serif" font-size="10.00">QPixmap</text>
</g>
<!-- Node14&#45;&gt;Node15 -->
<g id="edge40" class="edge"><title>Node14&#45;&gt;Node15</title>
<path fill="none" stroke="midnightblue" d="M1265.38,-58.4966C1241.9,-49.2337 1207.47,-35.6499 1181.44,-25.3793"/>
<polygon fill="midnightblue" stroke="midnightblue" points="1182.51,-22.0358 1171.92,-21.6212 1179.94,-28.5473 1182.51,-22.0358"/>
</g>
<!-- Node16 -->
<g id="node37" class="node"><title>Node16</title>
<polygon fill="white" stroke="#bfbfbf" points="1271.5,-0.5 1271.5,-21.5 1312.5,-21.5 1312.5,-0.5 1271.5,-0.5"/>
<text text-anchor="middle" x="1292" y="-8.5" font-family="Helvetica,sans-Serif" font-size="10.00">glib.h</text>
</g>
<!-- Node14&#45;&gt;Node16 -->
<g id="edge42" class="edge"><title>Node14&#45;&gt;Node16</title>
<path fill="none" stroke="midnightblue" d="M1292,-58.3619C1292,-50.9219 1292,-40.7427 1292,-31.7276"/>
<polygon fill="midnightblue" stroke="midnightblue" points="1295.5,-31.5706 1292,-21.5707 1288.5,-31.5707 1295.5,-31.5706"/>
</g>
<!-- Node18&#45;&gt;Node2 -->
<g id="edge48" class="edge"><title>Node18&#45;&gt;Node2</title>
<path fill="none" stroke="midnightblue" d="M2112.66,-65.6516C2067.27,-63.419 2006.04,-60.4547 1952,-58 1576.49,-40.9428 1482.56,-38.006 1107,-22 1031.78,-18.7942 944.227,-15.0609 892.888,-12.8716"/>
<polygon fill="midnightblue" stroke="midnightblue" points="892.949,-9.37112 882.808,-12.4418 892.65,-16.3648 892.949,-9.37112"/>
</g>
<!-- Node18&#45;&gt;Node10 -->
<g id="edge54" class="edge"><title>Node18&#45;&gt;Node10</title>
<path fill="none" stroke="midnightblue" d="M2112.82,-62.1761C1989.31,-49.6301 1730.57,-23.3487 1640.62,-14.2122"/>
<polygon fill="midnightblue" stroke="midnightblue" points="1640.81,-10.7136 1630.51,-13.185 1640.11,-17.6778 1640.81,-10.7136"/>
</g>
<!-- Node18&#45;&gt;Node11 -->
<g id="edge52" class="edge"><title>Node18&#45;&gt;Node11</title>
<path fill="none" stroke="midnightblue" d="M2161.66,-58.3619C2146.43,-49.532 2124.56,-36.844 2107.28,-26.8224"/>
<polygon fill="midnightblue" stroke="midnightblue" points="2108.63,-23.5603 2098.23,-21.5707 2105.12,-29.6155 2108.63,-23.5603"/>
</g>
<!-- Node19 -->
<g id="node44" class="node"><title>Node19</title>
<polygon fill="white" stroke="#bfbfbf" points="2123,-0.5 2123,-21.5 2175,-21.5 2175,-0.5 2123,-0.5"/>
<text text-anchor="middle" x="2149" y="-8.5" font-family="Helvetica,sans-Serif" font-size="10.00">regex.h</text>
</g>
<!-- Node18&#45;&gt;Node19 -->
<g id="edge50" class="edge"><title>Node18&#45;&gt;Node19</title>
<path fill="none" stroke="midnightblue" d="M2174.31,-58.3619C2170.16,-50.5949 2164.42,-39.8426 2159.45,-30.5458"/>
<polygon fill="midnightblue" stroke="midnightblue" points="2162.45,-28.7401 2154.65,-21.5707 2156.28,-32.0398 2162.45,-28.7401"/>
</g>
<!-- Node20 -->
<g id="node48" class="node"><title>Node20</title>
<polygon fill="white" stroke="#bfbfbf" points="2193,-0.5 2193,-21.5 2239,-21.5 2239,-0.5 2193,-0.5"/>
<text text-anchor="middle" x="2216" y="-8.5" font-family="Helvetica,sans-Serif" font-size="10.00">vector</text>
</g>
<!-- Node18&#45;&gt;Node20 -->
<g id="edge56" class="edge"><title>Node18&#45;&gt;Node20</title>
<path fill="none" stroke="midnightblue" d="M2186.6,-58.3619C2191.47,-50.5131 2198.24,-39.6159 2204.05,-30.2527"/>
<polygon fill="midnightblue" stroke="midnightblue" points="2207.14,-31.9129 2209.44,-21.5707 2201.19,-28.2213 2207.14,-31.9129"/>
</g>
<!-- Node21 -->
<g id="node50" class="node"><title>Node21</title>
<polygon fill="white" stroke="#bfbfbf" points="2256.5,-0.5 2256.5,-21.5 2293.5,-21.5 2293.5,-0.5 2256.5,-0.5"/>
<text text-anchor="middle" x="2275" y="-8.5" font-family="Helvetica,sans-Serif" font-size="10.00">map</text>
</g>
<!-- Node18&#45;&gt;Node21 -->
<g id="edge58" class="edge"><title>Node18&#45;&gt;Node21</title>
<path fill="none" stroke="midnightblue" d="M2197.42,-58.3619C2211.89,-49.532 2232.67,-36.844 2249.08,-26.8224"/>
<polygon fill="midnightblue" stroke="midnightblue" points="2250.97,-29.7688 2257.69,-21.5707 2247.33,-23.7943 2250.97,-29.7688"/>
</g>
<!-- Node23&#45;&gt;Node2 -->
<g id="edge64" class="edge"><title>Node23&#45;&gt;Node2</title>
<path fill="none" stroke="midnightblue" d="M1285.3,-116.475C1253.32,-108.051 1208.76,-95.1628 1171,-80 1151.08,-71.9997 1148.38,-64.7508 1128,-58 1047.62,-31.3713 948.978,-19.2932 893.12,-14.2442"/>
<polygon fill="midnightblue" stroke="midnightblue" points="893.134,-10.7324 882.869,-13.3535 892.528,-17.7061 893.134,-10.7324"/>
</g>
<!-- Node23&#45;&gt;Node4 -->
<g id="edge72" class="edge"><title>Node23&#45;&gt;Node4</title>
<path fill="none" stroke="midnightblue" d="M1272.98,-122.688C1140.43,-112.298 803.542,-85.8938 657.399,-74.4393"/>
<polygon fill="midnightblue" stroke="midnightblue" points="657.454,-70.9331 647.211,-73.6409 656.907,-77.9117 657.454,-70.9331"/>
</g>
<!-- Node23&#45;&gt;Node10 -->
<g id="edge70" class="edge"><title>Node23&#45;&gt;Node10</title>
<path fill="none" stroke="midnightblue" d="M1383.17,-119.904C1454.06,-110.331 1569.85,-92.9858 1585,-80 1598.95,-68.0467 1604.8,-47.531 1607.25,-31.9686"/>
<polygon fill="midnightblue" stroke="midnightblue" points="1610.76,-32.0551 1608.49,-21.7055 1603.81,-31.2095 1610.76,-32.0551"/>
</g>
<!-- Node23&#45;&gt;Node16 -->
<g id="edge66" class="edge"><title>Node23&#45;&gt;Node16</title>
<path fill="none" stroke="midnightblue" d="M1290.24,-116.347C1272.29,-109.176 1252.5,-97.7078 1242,-80 1230.91,-61.3015 1249.03,-41.3335 1266.48,-27.715"/>
<polygon fill="midnightblue" stroke="midnightblue" points="1268.86,-30.3075 1274.86,-21.573 1264.72,-24.6615 1268.86,-30.3075"/>
</g>
<!-- Node23&#45;&gt;Node21 -->
<g id="edge68" class="edge"><title>Node23&#45;&gt;Node21</title>
<path fill="none" stroke="midnightblue" d="M1383.07,-121.549C1404.28,-119.587 1428.75,-117.491 1451,-116 1495.67,-113.005 2221.01,-107.918 2256,-80 2270.15,-68.7141 2274.35,-47.9354 2275.34,-32.1188"/>
<polygon fill="midnightblue" stroke="midnightblue" points="2278.85,-31.767 2275.59,-21.6855 2271.85,-31.5981 2278.85,-31.767"/>
</g>
<!-- Node24&#45;&gt;Node2 -->
<g id="edge76" class="edge"><title>Node24&#45;&gt;Node2</title>
<path fill="none" stroke="midnightblue" d="M820.777,-241.713C753.702,-238.704 629.391,-228.742 602,-196 595.726,-188.5 596.272,-181.924 602,-174 631.888,-132.653 678.359,-177.21 711,-138 733.962,-110.417 699.531,-85.9861 722,-58 742.188,-32.8559 777.198,-21.1634 805.354,-15.7261"/>
<polygon fill="midnightblue" stroke="midnightblue" points="806.12,-19.1458 815.377,-13.9926 804.927,-12.2482 806.12,-19.1458"/>
</g>
<!-- Node24&#45;&gt;Node5 -->
<g id="edge142" class="edge"><title>Node24&#45;&gt;Node5</title>
<path fill="none" stroke="midnightblue" d="M820.822,-240.925C762.284,-237.043 655.161,-226.126 569,-196 559.027,-192.513 506.437,-162.001 473.643,-142.737"/>
<polygon fill="midnightblue" stroke="midnightblue" points="475.364,-139.688 464.97,-137.633 471.814,-145.721 475.364,-139.688"/>
</g>
<!-- Node24&#45;&gt;Node7 -->
<g id="edge150" class="edge"><title>Node24&#45;&gt;Node7</title>
<path fill="none" stroke="midnightblue" d="M849.42,-232.297C829.445,-217.921 792.15,-192.092 758,-174 734.302,-161.445 706.507,-149.765 684.536,-141.189"/>
<polygon fill="midnightblue" stroke="midnightblue" points="685.786,-137.92 675.197,-137.593 683.271,-144.452 685.786,-137.92"/>
</g>
<!-- Node24&#45;&gt;Node25 -->
<g id="edge78" class="edge"><title>Node24&#45;&gt;Node25</title>
<path fill="none" stroke="midnightblue" d="M820.932,-238.31C757.248,-231.062 634.346,-215.873 531,-196 529.934,-195.795 528.855,-195.581 527.768,-195.36"/>
<polygon fill="midnightblue" stroke="midnightblue" points="528.387,-191.913 517.872,-193.206 526.899,-198.753 528.387,-191.913"/>
</g>
<!-- Node26 -->
<g id="node66" class="node"><title>Node26</title>
<polygon fill="white" stroke="#bfbfbf" points="1756,-116.5 1756,-137.5 1808,-137.5 1808,-116.5 1756,-116.5"/>
<text text-anchor="middle" x="1782" y="-124.5" font-family="Helvetica,sans-Serif" font-size="10.00">Event.h</text>
</g>
<!-- Node24&#45;&gt;Node26 -->
<g id="edge80" class="edge"><title>Node24&#45;&gt;Node26</title>
<path fill="none" stroke="midnightblue" d="M907.245,-242.565C1092.27,-240.495 1809.33,-230.281 1842,-196 1858.82,-178.348 1833.86,-157.037 1811.19,-142.813"/>
<polygon fill="midnightblue" stroke="midnightblue" points="1812.77,-139.678 1802.39,-137.549 1809.18,-145.686 1812.77,-139.678"/>
</g>
<!-- Node27 -->
<g id="node68" class="node"><title>Node27</title>
<a xlink:href="HostWindow_8h.htm" target="_top" xlink:title="HostWindow.h">
<polygon fill="white" stroke="black" points="853,-116.5 853,-137.5 937,-137.5 937,-116.5 853,-116.5"/>
<text text-anchor="middle" x="895" y="-124.5" font-family="Helvetica,sans-Serif" font-size="10.00">HostWindow.h</text>
</a>
</g>
<!-- Node24&#45;&gt;Node27 -->
<g id="edge82" class="edge"><title>Node24&#45;&gt;Node27</title>
<path fill="none" stroke="midnightblue" d="M853.227,-232.1C841.034,-218.378 824.083,-194.16 834,-174 840.395,-160.999 852.308,-150.582 863.921,-142.892"/>
<polygon fill="midnightblue" stroke="midnightblue" points="865.948,-145.755 872.646,-137.545 862.291,-139.786 865.948,-145.755"/>
</g>
<!-- Node33 -->
<g id="node89" class="node"><title>Node33</title>
<polygon fill="white" stroke="#bfbfbf" points="843,-174.5 843,-195.5 985,-195.5 985,-174.5 843,-174.5"/>
<text text-anchor="middle" x="914" y="-182.5" font-family="Helvetica,sans-Serif" font-size="10.00">AppLaunchOptionsEvent.h</text>
</g>
<!-- Node24&#45;&gt;Node33 -->
<g id="edge112" class="edge"><title>Node24&#45;&gt;Node33</title>
<path fill="none" stroke="midnightblue" d="M873.171,-232.362C880.148,-224.268 889.921,-212.932 898.156,-203.38"/>
<polygon fill="midnightblue" stroke="midnightblue" points="901.009,-205.43 904.887,-195.571 895.707,-200.859 901.009,-205.43"/>
</g>
<!-- Node34 -->
<g id="node91" class="node"><title>Node34</title>
<a xlink:href="SystemUiController_8h.htm" target="_top" xlink:title="SystemUiController.h">
<polygon fill="white" stroke="red" points="1717,-174.5 1717,-195.5 1833,-195.5 1833,-174.5 1717,-174.5"/>
<text text-anchor="middle" x="1775" y="-182.5" font-family="Helvetica,sans-Serif" font-size="10.00">SystemUiController.h</text>
</a>
</g>
<!-- Node24&#45;&gt;Node34 -->
<g id="edge114" class="edge"><title>Node24&#45;&gt;Node34</title>
<path fill="none" stroke="midnightblue" d="M907.298,-241.179C1028.1,-235.947 1379.06,-219.709 1670,-196 1681.85,-195.035 1694.43,-193.853 1706.61,-192.626"/>
<polygon fill="midnightblue" stroke="midnightblue" points="1707.14,-196.09 1716.73,-191.588 1706.42,-189.127 1707.14,-196.09"/>
</g>
<!-- Node39 -->
<g id="node106" class="node"><title>Node39</title>
<polygon fill="white" stroke="#bfbfbf" points="1002.5,-174.5 1002.5,-195.5 1113.5,-195.5 1113.5,-174.5 1002.5,-174.5"/>
<text text-anchor="middle" x="1058" y="-182.5" font-family="Helvetica,sans-Serif" font-size="10.00">WindowProperties.h</text>
</g>
<!-- Node24&#45;&gt;Node39 -->
<g id="edge134" class="edge"><title>Node24&#45;&gt;Node39</title>
<path fill="none" stroke="midnightblue" d="M899.132,-232.497C931.033,-222.959 978.257,-208.841 1012.93,-198.475"/>
<polygon fill="midnightblue" stroke="midnightblue" points="1014.22,-201.741 1022.8,-195.523 1012.22,-195.034 1014.22,-201.741"/>
</g>
<!-- Node40 -->
<g id="node108" class="node"><title>Node40</title>
<polygon fill="white" stroke="#bfbfbf" points="1131,-174.5 1131,-195.5 1287,-195.5 1287,-174.5 1131,-174.5"/>
<text text-anchor="middle" x="1209" y="-182.5" font-family="Helvetica,sans-Serif" font-size="10.00">QGraphicsSceneMouseEvent</text>
</g>
<!-- Node24&#45;&gt;Node40 -->
<g id="edge136" class="edge"><title>Node24&#45;&gt;Node40</title>
<path fill="none" stroke="midnightblue" d="M907.345,-235.713C964.785,-226.056 1066.93,-208.884 1136.28,-197.225"/>
<polygon fill="midnightblue" stroke="midnightblue" points="1136.99,-200.656 1146.27,-195.546 1135.83,-193.753 1136.99,-200.656"/>
</g>
<!-- Node41 -->
<g id="node110" class="node"><title>Node41</title>
<polygon fill="white" stroke="#bfbfbf" points="1304.5,-174.5 1304.5,-195.5 1385.5,-195.5 1385.5,-174.5 1304.5,-174.5"/>
<text text-anchor="middle" x="1345" y="-182.5" font-family="Helvetica,sans-Serif" font-size="10.00">QTouchEvent</text>
</g>
<!-- Node24&#45;&gt;Node41 -->
<g id="edge138" class="edge"><title>Node24&#45;&gt;Node41</title>
<path fill="none" stroke="midnightblue" d="M907.14,-239.922C983.373,-234.133 1147.03,-220.135 1294.3,-196.147"/>
<polygon fill="midnightblue" stroke="midnightblue" points="1295.13,-199.558 1304.43,-194.477 1293.99,-192.651 1295.13,-199.558"/>
</g>
<!-- Node42 -->
<g id="node112" class="node"><title>Node42</title>
<polygon fill="white" stroke="#bfbfbf" points="1403,-174.5 1403,-195.5 1483,-195.5 1483,-174.5 1403,-174.5"/>
<text text-anchor="middle" x="1443" y="-182.5" font-family="Helvetica,sans-Serif" font-size="10.00">QPainterPath</text>
</g>
<!-- Node24&#45;&gt;Node42 -->
<g id="edge140" class="edge"><title>Node24&#45;&gt;Node42</title>
<path fill="none" stroke="midnightblue" d="M907.171,-241.111C996.223,-236.797 1206.84,-224.438 1393,-195.982"/>
<polygon fill="midnightblue" stroke="midnightblue" points="1393.62,-199.428 1402.97,-194.439 1392.55,-192.51 1393.62,-199.428"/>
</g>
<!-- Node43 -->
<g id="node115" class="node"><title>Node43</title>
<polygon fill="white" stroke="#bfbfbf" points="1500.5,-174.5 1500.5,-195.5 1569.5,-195.5 1569.5,-174.5 1500.5,-174.5"/>
<text text-anchor="middle" x="1535" y="-182.5" font-family="Helvetica,sans-Serif" font-size="10.00">QVector3D</text>
</g>
<!-- Node24&#45;&gt;Node43 -->
<g id="edge144" class="edge"><title>Node24&#45;&gt;Node43</title>
<path fill="none" stroke="midnightblue" d="M907.328,-242.372C1008.21,-240.352 1266.61,-231.953 1490.42,-196.034"/>
<polygon fill="midnightblue" stroke="midnightblue" points="1491.07,-199.474 1500.38,-194.414 1489.94,-192.565 1491.07,-199.474"/>
</g>
<!-- Node44 -->
<g id="node117" class="node"><title>Node44</title>
<polygon fill="white" stroke="#bfbfbf" points="1587,-174.5 1587,-195.5 1661,-195.5 1661,-174.5 1587,-174.5"/>
<text text-anchor="middle" x="1624" y="-182.5" font-family="Helvetica,sans-Serif" font-size="10.00">QTransform</text>
</g>
<!-- Node24&#45;&gt;Node44 -->
<g id="edge146" class="edge"><title>Node24&#45;&gt;Node44</title>
<path fill="none" stroke="midnightblue" d="M907.064,-241.122C1037.59,-235.283 1428.43,-216.678 1576.7,-195.926"/>
<polygon fill="midnightblue" stroke="midnightblue" points="1577.56,-199.338 1586.95,-194.428 1576.55,-192.411 1577.56,-199.338"/>
</g>
<!-- Node45 -->
<g id="node119" class="node"><title>Node45</title>
<polygon fill="white" stroke="#bfbfbf" points="610.5,-174.5 610.5,-195.5 669.5,-195.5 669.5,-174.5 610.5,-174.5"/>
<text text-anchor="middle" x="640" y="-182.5" font-family="Helvetica,sans-Serif" font-size="10.00">QPointer</text>
</g>
<!-- Node24&#45;&gt;Node45 -->
<g id="edge148" class="edge"><title>Node24&#45;&gt;Node45</title>
<path fill="none" stroke="midnightblue" d="M820.67,-232.497C785.116,-223.778 733.226,-210.827 679.828,-196.445"/>
<polygon fill="midnightblue" stroke="midnightblue" points="680.411,-192.977 669.844,-193.744 678.582,-199.734 680.411,-192.977"/>
</g>
<!-- Node46 -->
<g id="node122" class="node"><title>Node46</title>
<polygon fill="white" stroke="#bfbfbf" points="687,-174.5 687,-195.5 749,-195.5 749,-174.5 687,-174.5"/>
<text text-anchor="middle" x="718" y="-182.5" font-family="Helvetica,sans-Serif" font-size="10.00">QGesture</text>
</g>
<!-- Node24&#45;&gt;Node46 -->
<g id="edge152" class="edge"><title>Node24&#45;&gt;Node46</title>
<path fill="none" stroke="midnightblue" d="M837.561,-232.497C814.244,-223.234 780.05,-209.65 754.196,-199.379"/>
<polygon fill="midnightblue" stroke="midnightblue" points="755.322,-196.06 744.736,-195.621 752.737,-202.566 755.322,-196.06"/>
</g>
<!-- Node24&#45;&gt;Node47 -->
<g id="edge154" class="edge"><title>Node24&#45;&gt;Node47</title>
<path fill="none" stroke="midnightblue" d="M820.91,-240.304C719.913,-233.879 459.803,-216.71 231.269,-196.092"/>
<polygon fill="midnightblue" stroke="midnightblue" points="231.374,-192.587 221.099,-195.17 230.742,-199.558 231.374,-192.587"/>
</g>
<!-- Node27&#45;&gt;Node2 -->
<g id="edge84" class="edge"><title>Node27&#45;&gt;Node2</title>
<path fill="none" stroke="midnightblue" d="M852.997,-120.698C809.715,-113.244 746.564,-99.3568 732,-80 708.768,-49.1221 763.214,-29.5031 805.414,-19.3807"/>
<polygon fill="midnightblue" stroke="midnightblue" points="806.311,-22.7662 815.282,-17.1285 804.753,-15.9417 806.311,-22.7662"/>
</g>
<!-- Node27&#45;&gt;Node27 -->
<g id="edge96" class="edge"><title>Node27&#45;&gt;Node27</title>
<path fill="none" stroke="midnightblue" d="M925.563,-137.524C941.083,-139.061 955,-135.553 955,-127 955,-120.385 946.675,-116.788 935.722,-116.208"/>
<polygon fill="midnightblue" stroke="midnightblue" points="935.467,-112.714 925.563,-116.476 935.652,-119.711 935.467,-112.714"/>
</g>
<!-- Node28 -->
<g id="node71" class="node"><title>Node28</title>
<a xlink:href="Window_8h.htm" target="_top" xlink:title="Window.h">
<polygon fill="white" stroke="red" points="1443,-58.5 1443,-79.5 1505,-79.5 1505,-58.5 1443,-58.5"/>
<text text-anchor="middle" x="1474" y="-66.5" font-family="Helvetica,sans-Serif" font-size="10.00">Window.h</text>
</a>
</g>
<!-- Node27&#45;&gt;Node28 -->
<g id="edge86" class="edge"><title>Node27&#45;&gt;Node28</title>
<path fill="none" stroke="midnightblue" d="M937.04,-122.539C957.015,-120.465 981.231,-118.018 1003,-116 1191.13,-98.5637 1242.98,-113.113 1432.66,-79.9741"/>
<polygon fill="midnightblue" stroke="midnightblue" points="1433.44,-83.39 1442.68,-78.2018 1432.23,-76.497 1433.44,-83.39"/>
</g>
<!-- Node29 -->
<g id="node78" class="node"><title>Node29</title>
<a xlink:href="HostWindowData_8h.htm" target="_top" xlink:title="HostWindowData.h">
<polygon fill="white" stroke="red" points="1012.5,-58.5 1012.5,-79.5 1119.5,-79.5 1119.5,-58.5 1012.5,-58.5"/>
<text text-anchor="middle" x="1066" y="-66.5" font-family="Helvetica,sans-Serif" font-size="10.00">HostWindowData.h</text>
</a>
</g>
<!-- Node27&#45;&gt;Node29 -->
<g id="edge98" class="edge"><title>Node27&#45;&gt;Node29</title>
<path fill="none" stroke="midnightblue" d="M925.967,-116.497C953.844,-107.041 994.997,-93.0829 1025.48,-82.7428"/>
<polygon fill="midnightblue" stroke="midnightblue" points="1026.63,-86.0497 1034.98,-79.5231 1024.38,-79.4207 1026.63,-86.0497"/>
</g>
<!-- Node30 -->
<g id="node82" class="node"><title>Node30</title>
<a xlink:href="InputClient_8h.htm" target="_top" xlink:title="InputClient.h">
<polygon fill="white" stroke="red" points="1350.5,-58.5 1350.5,-79.5 1425.5,-79.5 1425.5,-58.5 1350.5,-58.5"/>
<text text-anchor="middle" x="1388" y="-66.5" font-family="Helvetica,sans-Serif" font-size="10.00">InputClient.h</text>
</a>
</g>
<!-- Node27&#45;&gt;Node30 -->
<g id="edge104" class="edge"><title>Node27&#45;&gt;Node30</title>
<path fill="none" stroke="midnightblue" d="M937.228,-122.71C1036.84,-112.572 1281.96,-87.5088 1340.19,-79.8859"/>
<polygon fill="midnightblue" stroke="midnightblue" points="1341.03,-83.3015 1350.43,-78.4055 1340.03,-76.3736 1341.03,-83.3015"/>
</g>
<!-- Node31 -->
<g id="node85" class="node"><title>Node31</title>
<polygon fill="white" stroke="#bfbfbf" points="741,-58.5 741,-79.5 815,-79.5 815,-58.5 741,-58.5"/>
<text text-anchor="middle" x="778" y="-66.5" font-family="Helvetica,sans-Serif" font-size="10.00">PIpcBuffer.h</text>
</g>
<!-- Node27&#45;&gt;Node31 -->
<g id="edge108" class="edge"><title>Node27&#45;&gt;Node31</title>
<path fill="none" stroke="midnightblue" d="M873.812,-116.497C855.538,-107.438 828.928,-94.2462 808.385,-84.0628"/>
<polygon fill="midnightblue" stroke="midnightblue" points="809.94,-80.9269 799.426,-79.6212 806.831,-87.1986 809.94,-80.9269"/>
</g>
<!-- Node32 -->
<g id="node87" class="node"><title>Node32</title>
<polygon fill="white" stroke="#bfbfbf" points="833,-58.5 833,-79.5 957,-79.5 957,-58.5 833,-58.5"/>
<text text-anchor="middle" x="895" y="-66.5" font-family="Helvetica,sans-Serif" font-size="10.00">PIpcChannelListener.h</text>
</g>
<!-- Node27&#45;&gt;Node32 -->
<g id="edge110" class="edge"><title>Node27&#45;&gt;Node32</title>
<path fill="none" stroke="midnightblue" d="M895,-116.362C895,-108.922 895,-98.7427 895,-89.7276"/>
<polygon fill="midnightblue" stroke="midnightblue" points="898.5,-89.5706 895,-79.5707 891.5,-89.5707 898.5,-89.5706"/>
</g>
<!-- Node28&#45;&gt;Node2 -->
<g id="edge88" class="edge"><title>Node28&#45;&gt;Node2</title>
<path fill="none" stroke="midnightblue" d="M1442.68,-59.7886C1439.76,-59.1115 1436.84,-58.4995 1434,-58 1329.9,-39.6722 1010.25,-20.179 892.846,-13.4492"/>
<polygon fill="midnightblue" stroke="midnightblue" points="892.963,-9.95029 882.78,-12.8752 892.564,-16.9389 892.963,-9.95029"/>
</g>
<!-- Node28&#45;&gt;Node10 -->
<g id="edge92" class="edge"><title>Node28&#45;&gt;Node10</title>
<path fill="none" stroke="midnightblue" d="M1498.45,-58.4966C1520.75,-48.9137 1553.82,-34.706 1577.98,-24.3269"/>
<polygon fill="midnightblue" stroke="midnightblue" points="1579.6,-27.4402 1587.41,-20.277 1576.84,-21.0087 1579.6,-27.4402"/>
</g>
<!-- Node28&#45;&gt;Node11 -->
<g id="edge90" class="edge"><title>Node28&#45;&gt;Node11</title>
<path fill="none" stroke="midnightblue" d="M1505.31,-66.0038C1608.28,-56.1486 1936.07,-24.7759 2044.67,-14.3816"/>
<polygon fill="midnightblue" stroke="midnightblue" points="2045.15,-17.8515 2054.77,-13.4146 2044.48,-10.8833 2045.15,-17.8515"/>
</g>
<!-- Node28&#45;&gt;Node16 -->
<g id="edge94" class="edge"><title>Node28&#45;&gt;Node16</title>
<path fill="none" stroke="midnightblue" d="M1442.71,-59.0294C1409,-48.2865 1355.72,-31.3057 1322.37,-20.6777"/>
<polygon fill="midnightblue" stroke="midnightblue" points="1323.29,-17.299 1312.7,-17.5973 1321.17,-23.9685 1323.29,-17.299"/>
</g>
<!-- Node29&#45;&gt;Node2 -->
<g id="edge100" class="edge"><title>Node29&#45;&gt;Node2</title>
<path fill="none" stroke="midnightblue" d="M1026.7,-58.4966C988.839,-48.3764 931.678,-33.0982 892.47,-22.6187"/>
<polygon fill="midnightblue" stroke="midnightblue" points="893.228,-19.1986 882.664,-19.9976 891.421,-25.9612 893.228,-19.1986"/>
</g>
<!-- Node29&#45;&gt;Node15 -->
<g id="edge102" class="edge"><title>Node29&#45;&gt;Node15</title>
<path fill="none" stroke="midnightblue" d="M1080.49,-58.3619C1092.18,-49.7773 1108.84,-37.5459 1122.3,-27.6636"/>
<polygon fill="midnightblue" stroke="midnightblue" points="1124.61,-30.31 1130.6,-21.5707 1120.47,-24.6675 1124.61,-30.31"/>
</g>
<!-- Node30&#45;&gt;Node10 -->
<g id="edge106" class="edge"><title>Node30&#45;&gt;Node10</title>
<path fill="none" stroke="midnightblue" d="M1425.74,-59.0953C1468.61,-47.8447 1537.78,-29.6916 1577.75,-19.2013"/>
<polygon fill="midnightblue" stroke="midnightblue" points="1578.7,-22.5695 1587.49,-16.6456 1576.93,-15.7988 1578.7,-22.5695"/>
</g>
<!-- Node34&#45;&gt;Node2 -->
<g id="edge116" class="edge"><title>Node34&#45;&gt;Node2</title>
<path fill="none" stroke="midnightblue" d="M1716.98,-178.754C1701.7,-177.156 1685.23,-175.473 1670,-174 1489.69,-156.562 1443.01,-165.78 1264,-138 1147,-119.844 1114.29,-123.05 1004,-80 985.821,-72.9041 983.543,-66.5479 966,-58 940.688,-45.6672 911.276,-33.8624 888.273,-25.1684"/>
<polygon fill="midnightblue" stroke="midnightblue" points="889.43,-21.8645 878.838,-21.6404 886.978,-28.4211 889.43,-21.8645"/>
</g>
<!-- Node34&#45;&gt;Node9 -->
<g id="edge128" class="edge"><title>Node34&#45;&gt;Node9</title>
<path fill="none" stroke="midnightblue" d="M1796.01,-174.497C1814.04,-165.479 1840.27,-152.365 1860.6,-142.201"/>
<polygon fill="midnightblue" stroke="midnightblue" points="1862.38,-145.224 1869.76,-137.621 1859.25,-138.963 1862.38,-145.224"/>
</g>
<!-- Node34&#45;&gt;Node10 -->
<g id="edge118" class="edge"><title>Node34&#45;&gt;Node10</title>
<path fill="none" stroke="midnightblue" d="M1833.04,-178.241C1882.55,-171.173 1948.29,-158.245 1965,-138 1987.65,-110.558 1991.47,-84.7424 1968,-58 1946.53,-33.531 1724.7,-17.8853 1640.86,-12.8069"/>
<polygon fill="midnightblue" stroke="midnightblue" points="1640.85,-9.30017 1630.66,-12.2002 1640.43,-16.2878 1640.85,-9.30017"/>
</g>
<!-- Node34&#45;&gt;Node26 -->
<g id="edge130" class="edge"><title>Node34&#45;&gt;Node26</title>
<path fill="none" stroke="midnightblue" d="M1776.28,-174.362C1777.18,-166.922 1778.41,-156.743 1779.5,-147.728"/>
<polygon fill="midnightblue" stroke="midnightblue" points="1783,-147.918 1780.72,-137.571 1776.05,-147.079 1783,-147.918"/>
</g>
<!-- Node34&#45;&gt;Node28 -->
<g id="edge132" class="edge"><title>Node34&#45;&gt;Node28</title>
<path fill="none" stroke="midnightblue" d="M1751.78,-174.482C1731.76,-165.269 1702.19,-151.309 1677,-138 1659.74,-128.885 1656.97,-123.62 1639,-116 1616.71,-106.545 1556.17,-90.1408 1514.97,-79.4289"/>
<polygon fill="midnightblue" stroke="midnightblue" points="1515.76,-76.0185 1505.2,-76.9024 1514,-82.7954 1515.76,-76.0185"/>
</g>
<!-- Node35 -->
<g id="node95" class="node"><title>Node35</title>
<polygon fill="white" stroke="#bfbfbf" points="1686,-116.5 1686,-137.5 1738,-137.5 1738,-116.5 1686,-116.5"/>
<text text-anchor="middle" x="1712" y="-124.5" font-family="Helvetica,sans-Serif" font-size="10.00">QEvent</text>
</g>
<!-- Node34&#45;&gt;Node35 -->
<g id="edge120" class="edge"><title>Node34&#45;&gt;Node35</title>
<path fill="none" stroke="midnightblue" d="M1763.44,-174.362C1754.39,-166.023 1741.59,-154.242 1731.03,-144.516"/>
<polygon fill="midnightblue" stroke="midnightblue" points="1733.21,-141.769 1723.48,-137.571 1728.47,-146.919 1733.21,-141.769"/>
</g>
<!-- Node36 -->
<g id="node97" class="node"><title>Node36</title>
<polygon fill="white" stroke="#bfbfbf" points="1460,-116.5 1460,-137.5 1530,-137.5 1530,-116.5 1460,-116.5"/>
<text text-anchor="middle" x="1495" y="-124.5" font-family="Helvetica,sans-Serif" font-size="10.00">QKeyEvent</text>
</g>
<!-- Node34&#45;&gt;Node36 -->
<g id="edge122" class="edge"><title>Node34&#45;&gt;Node36</title>
<path fill="none" stroke="midnightblue" d="M1718.09,-174.467C1672.43,-165.833 1606.48,-152.954 1539.86,-138.122"/>
<polygon fill="midnightblue" stroke="midnightblue" points="1540.55,-134.69 1530.03,-135.919 1539.02,-141.521 1540.55,-134.69"/>
</g>
<!-- Node37 -->
<g id="node99" class="node"><title>Node37</title>
<polygon fill="white" stroke="#bfbfbf" points="1547.5,-116.5 1547.5,-137.5 1630.5,-137.5 1630.5,-116.5 1547.5,-116.5"/>
<text text-anchor="middle" x="1589" y="-124.5" font-family="Helvetica,sans-Serif" font-size="10.00">QMouseEvent</text>
</g>
<!-- Node34&#45;&gt;Node37 -->
<g id="edge124" class="edge"><title>Node34&#45;&gt;Node37</title>
<path fill="none" stroke="midnightblue" d="M1741.32,-174.497C1710.86,-165 1665.84,-150.962 1632.64,-140.609"/>
<polygon fill="midnightblue" stroke="midnightblue" points="1633.33,-137.159 1622.75,-137.523 1631.25,-143.841 1633.33,-137.159"/>
</g>
<!-- Node38 -->
<g id="node101" class="node"><title>Node38</title>
<polygon fill="white" stroke="#bfbfbf" points="1044.5,-116.5 1044.5,-137.5 1099.5,-137.5 1099.5,-116.5 1044.5,-116.5"/>
<text text-anchor="middle" x="1072" y="-124.5" font-family="Helvetica,sans-Serif" font-size="10.00">QObject</text>
</g>
<!-- Node34&#45;&gt;Node38 -->
<g id="edge126" class="edge"><title>Node34&#45;&gt;Node38</title>
<path fill="none" stroke="midnightblue" d="M1717,-178.506C1701.72,-176.91 1685.25,-175.291 1670,-174 1422.81,-153.072 1357.77,-178.338 1113,-138 1111.91,-137.82 1110.81,-137.624 1109.69,-137.413"/>
<polygon fill="midnightblue" stroke="midnightblue" points="1110.14,-133.929 1099.63,-135.206 1108.65,-140.766 1110.14,-133.929"/>
</g>
<!-- Node47&#45;&gt;Node2 -->
<g id="edge156" class="edge"><title>Node47&#45;&gt;Node2</title>
<path fill="none" stroke="midnightblue" d="M102.676,-174.36C75.588,-161.472 38.8236,-138.659 57,-116 104.299,-57.0365 645.324,-22.3556 804.936,-13.3572"/>
<polygon fill="midnightblue" stroke="midnightblue" points="805.534,-16.8293 815.323,-12.7776 805.144,-9.8402 805.534,-16.8293"/>
</g>
<!-- Node49&#45;&gt;Node2 -->
<g id="edge164" class="edge"><title>Node49&#45;&gt;Node2</title>
<path fill="none" stroke="midnightblue" d="M390.348,-174.48C391.35,-159.847 395.111,-133.211 409,-116 443.957,-72.6836 467.02,-75.0703 520,-58 618.841,-26.1531 741.319,-15.855 805.344,-12.5472"/>
<polygon fill="midnightblue" stroke="midnightblue" points="805.659,-16.0361 815.479,-12.0572 805.321,-9.04428 805.659,-16.0361"/>
</g>
<!-- Node49&#45;&gt;Node8 -->
<g id="edge170" class="edge"><title>Node49&#45;&gt;Node8</title>
<path fill="none" stroke="midnightblue" d="M380.096,-174.362C372.484,-166.186 361.792,-154.702 352.843,-145.091"/>
<polygon fill="midnightblue" stroke="midnightblue" points="355.217,-142.505 345.842,-137.571 350.094,-147.275 355.217,-142.505"/>
</g>
<!-- Node49&#45;&gt;Node10 -->
<g id="edge166" class="edge"><title>Node49&#45;&gt;Node10</title>
<path fill="none" stroke="midnightblue" d="M437.592,-175.233C440.431,-174.78 443.25,-174.364 446,-174 674.78,-143.701 737.075,-179.989 964,-138 996.902,-131.912 1003.12,-122.183 1036,-116 1245.38,-76.6311 1313.99,-153.387 1514,-80 1544.2,-68.9177 1573.27,-45.2739 1591.13,-28.7696"/>
<polygon fill="midnightblue" stroke="midnightblue" points="1593.67,-31.185 1598.51,-21.7597 1588.85,-26.1103 1593.67,-31.185"/>
</g>
<!-- Node49&#45;&gt;Node38 -->
<g id="edge172" class="edge"><title>Node49&#45;&gt;Node38</title>
<path fill="none" stroke="midnightblue" d="M437.589,-175.207C440.429,-174.761 443.248,-174.353 446,-174 704.37,-140.823 773.91,-179.961 1031,-138 1032.09,-137.822 1033.19,-137.627 1034.31,-137.418"/>
<polygon fill="midnightblue" stroke="midnightblue" points="1035.35,-140.772 1044.38,-135.218 1033.86,-133.933 1035.35,-140.772"/>
</g>
<!-- Node50 -->
<g id="node134" class="node"><title>Node50</title>
<polygon fill="white" stroke="#bfbfbf" points="494,-116.5 494,-137.5 572,-137.5 572,-116.5 494,-116.5"/>
<text text-anchor="middle" x="533" y="-124.5" font-family="Helvetica,sans-Serif" font-size="10.00">lunaservice.h</text>
</g>
<!-- Node49&#45;&gt;Node50 -->
<g id="edge168" class="edge"><title>Node49&#45;&gt;Node50</title>
<path fill="none" stroke="midnightblue" d="M415.896,-174.497C438.633,-165.275 471.93,-151.769 497.212,-141.515"/>
<polygon fill="midnightblue" stroke="midnightblue" points="498.862,-144.623 506.813,-137.621 496.231,-138.136 498.862,-144.623"/>
</g>
</g>
</svg>
