<?xml version="1.0" encoding="UTF-8" standalone="no"?>
<!DOCTYPE svg PUBLIC "-//W3C//DTD SVG 1.1//EN"
 "http://www.w3.org/Graphics/SVG/1.1/DTD/svg11.dtd">
<!-- Generated by graphviz version 2.26.3 (20100126.1600)
 -->
<!-- Title: CardDropShadowEffect.h Pages: 1 -->
<svg width="470pt" height="88pt"
 viewBox="0.00 0.00 470.00 88.00" xmlns="http://www.w3.org/2000/svg" xmlns:xlink="http://www.w3.org/1999/xlink">
<g id="graph1" class="graph" transform="scale(1 1) rotate(0) translate(4 84)">
<title>CardDropShadowEffect.h</title>
<polygon fill="white" stroke="white" points="-4,5 -4,-84 467,-84 467,5 -4,5"/>
<!-- Node1 -->
<g id="node1" class="node"><title>Node1</title>
<polygon fill="#bfbfbf" stroke="black" points="184.5,-58.5 184.5,-79.5 321.5,-79.5 321.5,-58.5 184.5,-58.5"/>
<text text-anchor="middle" x="253" y="-66.5" font-family="Helvetica,sans-Serif" font-size="10.00">CardDropShadowEffect.h</text>
</g>
<!-- Node2 -->
<g id="node3" class="node"><title>Node2</title>
<polygon fill="white" stroke="#bfbfbf" points="-0.5,-0.5 -0.5,-21.5 66.5,-21.5 66.5,-0.5 -0.5,-0.5"/>
<text text-anchor="middle" x="33" y="-8.5" font-family="Helvetica,sans-Serif" font-size="10.00">Common.h</text>
</g>
<!-- Node1&#45;&gt;Node2 -->
<g id="edge2" class="edge"><title>Node1&#45;&gt;Node2</title>
<path fill="none" stroke="midnightblue" d="M213.16,-58.4966C174.577,-48.3248 116.23,-32.9423 76.4644,-22.4588"/>
<polygon fill="midnightblue" stroke="midnightblue" points="77.3402,-19.0702 66.7784,-19.9052 75.5557,-25.8389 77.3402,-19.0702"/>
</g>
<!-- Node3 -->
<g id="node5" class="node"><title>Node3</title>
<polygon fill="white" stroke="#bfbfbf" points="83.5,-0.5 83.5,-21.5 178.5,-21.5 178.5,-0.5 83.5,-0.5"/>
<text text-anchor="middle" x="131" y="-8.5" font-family="Helvetica,sans-Serif" font-size="10.00">QGraphicsEffect</text>
</g>
<!-- Node1&#45;&gt;Node3 -->
<g id="edge4" class="edge"><title>Node1&#45;&gt;Node3</title>
<path fill="none" stroke="midnightblue" d="M230.907,-58.4966C211.766,-49.397 183.854,-36.1273 162.395,-25.9253"/>
<polygon fill="midnightblue" stroke="midnightblue" points="163.875,-22.7539 153.341,-21.6212 160.87,-29.0758 163.875,-22.7539"/>
</g>
<!-- Node4 -->
<g id="node7" class="node"><title>Node4</title>
<polygon fill="white" stroke="#bfbfbf" points="195.5,-0.5 195.5,-21.5 242.5,-21.5 242.5,-0.5 195.5,-0.5"/>
<text text-anchor="middle" x="219" y="-8.5" font-family="Helvetica,sans-Serif" font-size="10.00">QRect</text>
</g>
<!-- Node1&#45;&gt;Node4 -->
<g id="edge6" class="edge"><title>Node1&#45;&gt;Node4</title>
<path fill="none" stroke="midnightblue" d="M246.764,-58.3619C242.163,-50.5131 235.775,-39.6159 230.286,-30.2527"/>
<polygon fill="midnightblue" stroke="midnightblue" points="233.273,-28.4276 225.197,-21.5707 227.234,-31.9677 233.273,-28.4276"/>
</g>
<!-- Node5 -->
<g id="node9" class="node"><title>Node5</title>
<polygon fill="white" stroke="#bfbfbf" points="260,-0.5 260,-21.5 316,-21.5 316,-0.5 260,-0.5"/>
<text text-anchor="middle" x="288" y="-8.5" font-family="Helvetica,sans-Serif" font-size="10.00">QVector</text>
</g>
<!-- Node1&#45;&gt;Node5 -->
<g id="edge8" class="edge"><title>Node1&#45;&gt;Node5</title>
<path fill="none" stroke="midnightblue" d="M259.42,-58.3619C264.156,-50.5131 270.732,-39.6159 276.382,-30.2527"/>
<polygon fill="midnightblue" stroke="midnightblue" points="279.451,-31.9409 281.621,-21.5707 273.458,-28.3242 279.451,-31.9409"/>
</g>
<!-- Node6 -->
<g id="node11" class="node"><title>Node6</title>
<polygon fill="white" stroke="#bfbfbf" points="333.5,-0.5 333.5,-21.5 378.5,-21.5 378.5,-0.5 333.5,-0.5"/>
<text text-anchor="middle" x="356" y="-8.5" font-family="Helvetica,sans-Serif" font-size="10.00">QSize</text>
</g>
<!-- Node1&#45;&gt;Node6 -->
<g id="edge10" class="edge"><title>Node1&#45;&gt;Node6</title>
<path fill="none" stroke="midnightblue" d="M271.892,-58.3619C287.718,-49.4502 310.523,-36.6087 328.395,-26.5447"/>
<polygon fill="midnightblue" stroke="midnightblue" points="330.232,-29.5271 337.228,-21.5707 326.797,-23.4276 330.232,-29.5271"/>
</g>
<!-- Node7 -->
<g id="node13" class="node"><title>Node7</title>
<polygon fill="white" stroke="#bfbfbf" points="395.5,-0.5 395.5,-21.5 462.5,-21.5 462.5,-0.5 395.5,-0.5"/>
<text text-anchor="middle" x="429" y="-8.5" font-family="Helvetica,sans-Serif" font-size="10.00">qdrawutil.h</text>
</g>
<!-- Node1&#45;&gt;Node7 -->
<g id="edge12" class="edge"><title>Node1&#45;&gt;Node7</title>
<path fill="none" stroke="midnightblue" d="M284.872,-58.4966C313.565,-49.0411 355.921,-35.0829 387.298,-24.7428"/>
<polygon fill="midnightblue" stroke="midnightblue" points="388.666,-27.9772 397.068,-21.5231 386.475,-21.3289 388.666,-27.9772"/>
</g>
</g>
</svg>
