<?xml version="1.0" encoding="UTF-8" standalone="no"?>
<!DOCTYPE svg PUBLIC "-//W3C//DTD SVG 1.1//EN"
 "http://www.w3.org/Graphics/SVG/1.1/DTD/svg11.dtd">
<!-- Generated by graphviz version 2.26.3 (20100126.1600)
 -->
<!-- Title: LayoutSettings Pages: 1 -->
<svg width="1317pt" height="296pt"
 viewBox="0.00 0.00 1316.75 296.00" xmlns="http://www.w3.org/2000/svg" xmlns:xlink="http://www.w3.org/1999/xlink">
<g id="graph1" class="graph" transform="scale(1 1) rotate(0) translate(4 292)">
<title>LayoutSettings</title>
<polygon fill="white" stroke="white" points="-4,5 -4,-292 1313.75,-292 1313.75,5 -4,5"/>
<!-- Node1 -->
<g id="node1" class="node"><title>Node1</title>
<polygon fill="#bfbfbf" stroke="black" points="543.752,-0.5 543.752,-21.5 629.752,-21.5 629.752,-0.5 543.752,-0.5"/>
<text text-anchor="middle" x="586.752" y="-8.5" font-family="Helvetica,sans-Serif" font-size="10.00">LayoutSettings</text>
</g>
<!-- Node2 -->
<g id="node2" class="node"><title>Node2</title>
<polygon fill="white" stroke="#bfbfbf" points="4.75159,-266.5 4.75159,-287.5 54.7516,-287.5 54.7516,-266.5 4.75159,-266.5"/>
<text text-anchor="middle" x="29.7516" y="-274.5" font-family="Helvetica,sans-Serif" font-size="10.00">QColor</text>
</g>
<!-- Node2&#45;&gt;Node1 -->
<g id="edge2" class="edge"><title>Node2&#45;&gt;Node1</title>
<path fill="none" stroke="#9a32cd" stroke-dasharray="5,2" d="M22.1389,-256.737C6.43366,-211.044 -23.5264,-99.3494 33.7516,-40 51.3811,-21.733 416.479,-13.8662 543.582,-11.6741"/>
<polygon fill="#9a32cd" stroke="#9a32cd" points="18.9283,-258.153 25.589,-266.393 25.5202,-255.798 18.9283,-258.153"/>
<text text-anchor="middle" x="109.252" y="-154.5" font-family="Helvetica,sans-Serif" font-size="10.00"> tabBarSelectedTabFontColor</text>
<text text-anchor="middle" x="109.252" y="-141.5" font-family="Helvetica,sans-Serif" font-size="10.00">tabBarUnSelectedTabFontColor</text>
<text text-anchor="middle" x="109.252" y="-128.5" font-family="Helvetica,sans-Serif" font-size="10.00">doneButtonFontColor</text>
</g>
<!-- Node3 -->
<g id="node4" class="node"><title>Node3</title>
<polygon fill="white" stroke="#bfbfbf" points="178.252,-266.5 178.252,-287.5 229.252,-287.5 229.252,-266.5 178.252,-266.5"/>
<text text-anchor="middle" x="203.752" y="-274.5" font-family="Helvetica,sans-Serif" font-size="10.00">QSizeF</text>
</g>
<!-- Node3&#45;&gt;Node1 -->
<g id="edge4" class="edge"><title>Node3&#45;&gt;Node1</title>
<path fill="none" stroke="#9a32cd" stroke-dasharray="5,2" d="M200.429,-256.175C192.654,-204.225 176.021,-70.8638 204.752,-40 216.166,-27.7382 446.276,-16.8125 543.736,-12.7162"/>
<polygon fill="#9a32cd" stroke="#9a32cd" points="196.995,-256.872 201.976,-266.223 203.913,-255.807 196.995,-256.872"/>
<text text-anchor="middle" x="296.252" y="-161" font-family="Helvetica,sans-Serif" font-size="10.00"> pageSizePctLauncherRelative</text>
<text text-anchor="middle" x="296.252" y="-148" font-family="Helvetica,sans-Serif" font-size="10.00">launcherSizePctScreenRelative</text>
<text text-anchor="middle" x="296.252" y="-135" font-family="Helvetica,sans-Serif" font-size="10.00">quickLaunchBarSizePctScreenRelative</text>
<text text-anchor="middle" x="296.252" y="-122" font-family="Helvetica,sans-Serif" font-size="10.00">tabBarSizePctLauncherRelative</text>
</g>
<!-- Node4 -->
<g id="node6" class="node"><title>Node4</title>
<polygon fill="white" stroke="#bfbfbf" points="391.752,-266.5 391.752,-287.5 427.752,-287.5 427.752,-266.5 391.752,-266.5"/>
<text text-anchor="middle" x="409.752" y="-274.5" font-family="Helvetica,sans-Serif" font-size="10.00">bool</text>
</g>
<!-- Node4&#45;&gt;Node1 -->
<g id="edge6" class="edge"><title>Node4&#45;&gt;Node1</title>
<path fill="none" stroke="#9a32cd" stroke-dasharray="5,2" d="M404.061,-256.425C392.856,-210.957 373.539,-101.124 428.752,-40 443.754,-23.3918 502.05,-16.2097 543.456,-13.1624"/>
<polygon fill="#9a32cd" stroke="#9a32cd" points="400.723,-257.495 406.621,-266.296 407.498,-255.737 400.723,-257.495"/>
<text text-anchor="middle" x="505.752" y="-174" font-family="Helvetica,sans-Serif" font-size="10.00"> openglHatesOddNumbers</text>
<text text-anchor="middle" x="505.752" y="-161" font-family="Helvetica,sans-Serif" font-size="10.00">doneButtonFontEmbolden</text>
<text text-anchor="middle" x="505.752" y="-148" font-family="Helvetica,sans-Serif" font-size="10.00">tabBarUseAbsoluteSize</text>
<text text-anchor="middle" x="505.752" y="-135" font-family="Helvetica,sans-Serif" font-size="10.00">tabBarTabFontEmbolden</text>
<text text-anchor="middle" x="505.752" y="-122" font-family="Helvetica,sans-Serif" font-size="10.00">autoPageSize</text>
<text text-anchor="middle" x="505.752" y="-109" font-family="Helvetica,sans-Serif" font-size="10.00">quickLaunchBarUseAbsoluteSize</text>
</g>
<!-- Node5 -->
<g id="node8" class="node"><title>Node5</title>
<polygon fill="white" stroke="#bfbfbf" points="563.752,-266.5 563.752,-287.5 609.752,-287.5 609.752,-266.5 563.752,-266.5"/>
<text text-anchor="middle" x="586.752" y="-274.5" font-family="Helvetica,sans-Serif" font-size="10.00">qint32</text>
</g>
<!-- Node5&#45;&gt;Node1 -->
<g id="edge8" class="edge"><title>Node5&#45;&gt;Node1</title>
<path fill="none" stroke="#9a32cd" stroke-dasharray="5,2" d="M586.752,-256.217C586.752,-202.677 586.752,-61.441 586.752,-21.5994"/>
<polygon fill="#9a32cd" stroke="#9a32cd" points="583.252,-256.243 586.752,-266.243 590.252,-256.243 583.252,-256.243"/>
<text text-anchor="middle" x="665.252" y="-154.5" font-family="Helvetica,sans-Serif" font-size="10.00"> centerUiVerticalOffset</text>
<text text-anchor="middle" x="665.252" y="-141.5" font-family="Helvetica,sans-Serif" font-size="10.00">tabTextVerticalPosAdjust</text>
<text text-anchor="middle" x="665.252" y="-128.5" font-family="Helvetica,sans-Serif" font-size="10.00">doneButtonTextVerticalPosAdjust</text>
</g>
<!-- Node6 -->
<g id="node10" class="node"><title>Node6</title>
<polygon fill="white" stroke="#bfbfbf" points="744.252,-266.5 744.252,-287.5 789.252,-287.5 789.252,-266.5 744.252,-266.5"/>
<text text-anchor="middle" x="766.752" y="-274.5" font-family="Helvetica,sans-Serif" font-size="10.00">QSize</text>
</g>
<!-- Node6&#45;&gt;Node1 -->
<g id="edge10" class="edge"><title>Node6&#45;&gt;Node1</title>
<path fill="none" stroke="#9a32cd" stroke-dasharray="5,2" d="M766.234,-256.215C764.675,-201.358 759.203,-55.7982 744.752,-40 729.645,-23.4864 671.376,-16.2802 630.004,-13.2019"/>
<polygon fill="#9a32cd" stroke="#9a32cd" points="762.742,-256.562 766.51,-266.464 769.74,-256.374 762.742,-256.562"/>
<text text-anchor="start" x="765.752" y="-161" font-family="Helvetica,sans-Serif" font-size="10.00"> pageVerticalBorderActivation</text>
<text text-anchor="middle" x="841.252" y="-148" font-family="Helvetica,sans-Serif" font-size="10.00">AreaSizePx</text>
<text text-anchor="start" x="765.752" y="-135" font-family="Helvetica,sans-Serif" font-size="10.00">pageHorizontalBorderActivation</text>
<text text-anchor="middle" x="841.252" y="-122" font-family="Helvetica,sans-Serif" font-size="10.00">AreaSizePx</text>
</g>
<!-- Node7 -->
<g id="node12" class="node"><title>Node7</title>
<polygon fill="white" stroke="#bfbfbf" points="916.252,-266.5 916.252,-287.5 965.252,-287.5 965.252,-266.5 916.252,-266.5"/>
<text text-anchor="middle" x="940.752" y="-274.5" font-family="Helvetica,sans-Serif" font-size="10.00">QPoint</text>
</g>
<!-- Node7&#45;&gt;Node1 -->
<g id="edge12" class="edge"><title>Node7&#45;&gt;Node1</title>
<path fill="none" stroke="#9a32cd" stroke-dasharray="5,2" d="M940.314,-256.139C938.952,-201.092 933.933,-55.0988 918.752,-40 898.676,-20.0331 715.186,-13.6456 629.928,-11.7449"/>
<polygon fill="#9a32cd" stroke="#9a32cd" points="936.821,-256.508 940.551,-266.425 943.819,-256.347 936.821,-256.508"/>
<text text-anchor="start" x="939.752" y="-180.5" font-family="Helvetica,sans-Serif" font-size="10.00"> quickLaunchItemAreaOffset</text>
<text text-anchor="middle" x="1016.75" y="-167.5" font-family="Helvetica,sans-Serif" font-size="10.00">Px</text>
<text text-anchor="middle" x="1016.75" y="-154.5" font-family="Helvetica,sans-Serif" font-size="10.00">doneButtonPositionAdjust</text>
<text text-anchor="start" x="939.752" y="-141.5" font-family="Helvetica,sans-Serif" font-size="10.00">quickLaunchBarLauncherAccess</text>
<text text-anchor="middle" x="1016.75" y="-128.5" font-family="Helvetica,sans-Serif" font-size="10.00">ButtonOffsetPx</text>
<text text-anchor="middle" x="1016.75" y="-115.5" font-family="Helvetica,sans-Serif" font-size="10.00">searchPillInnerTextAdjust</text>
<text text-anchor="middle" x="1016.75" y="-102.5" font-family="Helvetica,sans-Serif" font-size="10.00">iconVisibleLocationOffsetPx</text>
</g>
<!-- Node8 -->
<g id="node14" class="node"><title>Node8</title>
<polygon fill="white" stroke="#bfbfbf" points="1092.25,-266.5 1092.25,-287.5 1143.25,-287.5 1143.25,-266.5 1092.25,-266.5"/>
<text text-anchor="middle" x="1117.75" y="-274.5" font-family="Helvetica,sans-Serif" font-size="10.00">quint32</text>
</g>
<!-- Node8&#45;&gt;Node1 -->
<g id="edge14" class="edge"><title>Node8&#45;&gt;Node1</title>
<path fill="none" stroke="#9a32cd" stroke-dasharray="5,2" d="M1123.52,-256.477C1135.11,-210.246 1155.35,-97.5121 1095.75,-40 1079.09,-23.924 749.597,-14.7532 629.809,-11.9398"/>
<polygon fill="#9a32cd" stroke="#9a32cd" points="1120.1,-255.689 1120.94,-266.251 1126.87,-257.473 1120.1,-255.689"/>
<text text-anchor="start" x="1135.75" y="-239" font-family="Helvetica,sans-Serif" font-size="10.00"> searchPillInnerIconRight</text>
<text text-anchor="middle" x="1222.25" y="-226" font-family="Helvetica,sans-Serif" font-size="10.00">Offset</text>
<text text-anchor="middle" x="1222.25" y="-213" font-family="Helvetica,sans-Serif" font-size="10.00">tabBarHeightAbsolute</text>
<text text-anchor="start" x="1135.75" y="-200" font-family="Helvetica,sans-Serif" font-size="10.00">pageLeftBorderActivationTimeout</text>
<text text-anchor="middle" x="1222.25" y="-187" font-family="Helvetica,sans-Serif" font-size="10.00">Ms</text>
<text text-anchor="middle" x="1222.25" y="-174" font-family="Helvetica,sans-Serif" font-size="10.00">quickLaunchMaxItems</text>
<text text-anchor="middle" x="1222.25" y="-161" font-family="Helvetica,sans-Serif" font-size="10.00">tabBarTabFontSizePx</text>
<text text-anchor="start" x="1135.75" y="-148" font-family="Helvetica,sans-Serif" font-size="10.00">pageTopBorderActivationTimeout</text>
<text text-anchor="middle" x="1222.25" y="-135" font-family="Helvetica,sans-Serif" font-size="10.00">Ms</text>
<text text-anchor="middle" x="1222.25" y="-122" font-family="Helvetica,sans-Serif" font-size="10.00">quickLaunchBarHeightAbsolute</text>
<text text-anchor="start" x="1135.75" y="-109" font-family="Helvetica,sans-Serif" font-size="10.00">pageBottomBorderActivationTimeout</text>
<text text-anchor="middle" x="1222.25" y="-96" font-family="Helvetica,sans-Serif" font-size="10.00">Ms</text>
<text text-anchor="middle" x="1222.25" y="-83" font-family="Helvetica,sans-Serif" font-size="10.00">doneButtonFontSizePx</text>
<text text-anchor="start" x="1135.75" y="-70" font-family="Helvetica,sans-Serif" font-size="10.00">pageRightBorderActivationTimeout</text>
<text text-anchor="middle" x="1222.25" y="-57" font-family="Helvetica,sans-Serif" font-size="10.00">Ms</text>
<text text-anchor="middle" x="1222.25" y="-44" font-family="Helvetica,sans-Serif" font-size="10.00">...</text>
</g>
</g>
</svg>
