<?xml version="1.0" encoding="UTF-8" standalone="no"?>
<!DOCTYPE svg PUBLIC "-//W3C//DTD SVG 1.1//EN"
 "http://www.w3.org/Graphics/SVG/1.1/DTD/svg11.dtd">
<!-- Generated by graphviz version 2.26.3 (20100126.1600)
 -->
<!-- Title: BannerMessageHandlerPriv Pages: 1 -->
<svg width="461pt" height="114pt"
 viewBox="0.00 0.00 461.00 114.00" xmlns="http://www.w3.org/2000/svg" xmlns:xlink="http://www.w3.org/1999/xlink">
<g id="graph1" class="graph" transform="scale(1 1) rotate(0) translate(4 110)">
<title>BannerMessageHandlerPriv</title>
<polygon fill="white" stroke="white" points="-4,5 -4,-110 458,-110 458,5 -4,5"/>
<!-- Node1 -->
<g id="node1" class="node"><title>Node1</title>
<polygon fill="#bfbfbf" stroke="black" points="230,-0.5 230,-21.5 380,-21.5 380,-0.5 230,-0.5"/>
<text text-anchor="middle" x="305" y="-8.5" font-family="Helvetica,sans-Serif" font-size="10.00">BannerMessageHandlerPriv</text>
</g>
<!-- Node2 -->
<g id="node2" class="node"><title>Node2</title>
<polygon fill="white" stroke="#bfbfbf" points="0,-84.5 0,-105.5 168,-105.5 168,-84.5 0,-84.5"/>
<text text-anchor="middle" x="84" y="-92.5" font-family="Helvetica,sans-Serif" font-size="10.00">QList&lt; BannerMessageView * &gt;</text>
</g>
<!-- Node2&#45;&gt;Node1 -->
<g id="edge2" class="edge"><title>Node2&#45;&gt;Node1</title>
<path fill="none" stroke="#9a32cd" stroke-dasharray="5,2" d="M114.594,-79.9537C139.199,-68.1874 174.847,-51.8863 207,-40 225.806,-33.0479 247.104,-26.5828 265.03,-21.5294"/>
<polygon fill="#9a32cd" stroke="#9a32cd" points="112.902,-76.8839 105.413,-84.3787 115.941,-83.1896 112.902,-76.8839"/>
<text text-anchor="middle" x="227.5" y="-50.5" font-family="Helvetica,sans-Serif" font-size="10.00"> viewList</text>
</g>
<!-- Node3 -->
<g id="node4" class="node"><title>Node3</title>
<polygon fill="white" stroke="#bfbfbf" points="186,-84.5 186,-105.5 318,-105.5 318,-84.5 186,-84.5"/>
<text text-anchor="middle" x="252" y="-92.5" font-family="Helvetica,sans-Serif" font-size="10.00">QList&lt; BMMessagePtr &gt;</text>
</g>
<!-- Node3&#45;&gt;Node1 -->
<g id="edge4" class="edge"><title>Node3&#45;&gt;Node1</title>
<path fill="none" stroke="#9a32cd" stroke-dasharray="5,2" d="M251.498,-74.3738C252.14,-63.3929 254.448,-50.1082 261,-40 265.976,-32.323 273.779,-26.2186 281.44,-21.6297"/>
<polygon fill="#9a32cd" stroke="#9a32cd" points="247.998,-74.3216 251.316,-84.3837 254.997,-74.4491 247.998,-74.3216"/>
<text text-anchor="middle" x="299" y="-57" font-family="Helvetica,sans-Serif" font-size="10.00"> deletedMsgList</text>
<text text-anchor="middle" x="299" y="-44" font-family="Helvetica,sans-Serif" font-size="10.00">msgList</text>
</g>
<!-- Node4 -->
<g id="node6" class="node"><title>Node4</title>
<polygon fill="white" stroke="#bfbfbf" points="336,-84.5 336,-105.5 382,-105.5 382,-84.5 336,-84.5"/>
<text text-anchor="middle" x="359" y="-92.5" font-family="Helvetica,sans-Serif" font-size="10.00">QFont</text>
</g>
<!-- Node4&#45;&gt;Node1 -->
<g id="edge6" class="edge"><title>Node4&#45;&gt;Node1</title>
<path fill="none" stroke="#9a32cd" stroke-dasharray="5,2" d="M353.203,-74.2995C349.582,-63.4885 344.221,-50.3861 337,-40 332.207,-33.1053 325.482,-26.6927 319.434,-21.6601"/>
<polygon fill="#9a32cd" stroke="#9a32cd" points="349.953,-75.6393 356.249,-84.1611 356.642,-73.5736 349.953,-75.6393"/>
<text text-anchor="middle" x="361" y="-50.5" font-family="Helvetica,sans-Serif" font-size="10.00"> font</text>
</g>
<!-- Node5 -->
<g id="node8" class="node"><title>Node5</title>
<a xlink:href="classint.htm" target="_top" xlink:title="int">
<polygon fill="white" stroke="black" points="399.5,-84.5 399.5,-105.5 428.5,-105.5 428.5,-84.5 399.5,-84.5"/>
<text text-anchor="middle" x="414" y="-92.5" font-family="Helvetica,sans-Serif" font-size="10.00">int</text>
</a>
</g>
<!-- Node5&#45;&gt;Node1 -->
<g id="edge8" class="edge"><title>Node5&#45;&gt;Node1</title>
<path fill="none" stroke="#9a32cd" stroke-dasharray="5,2" d="M404.182,-75.3452C397.561,-63.7574 387.874,-49.5426 376,-40 366.14,-32.076 353.821,-26.0394 342.225,-21.5808"/>
<polygon fill="#9a32cd" stroke="#9a32cd" points="401.182,-77.1552 409.004,-84.3009 407.345,-73.8368 401.182,-77.1552"/>
<text text-anchor="middle" x="425.5" y="-50.5" font-family="Helvetica,sans-Serif" font-size="10.00"> viewHeight</text>
</g>
</g>
</svg>
