<?xml version="1.0" encoding="UTF-8" standalone="no"?>
<!DOCTYPE svg PUBLIC "-//W3C//DTD SVG 1.1//EN"
 "http://www.w3.org/Graphics/SVG/1.1/DTD/svg11.dtd">
<!-- Generated by graphviz version 2.26.3 (20100126.1600)
 -->
<!-- Title: VolumeControlAlertWindow Pages: 1 -->
<svg width="1018pt" height="764pt"
 viewBox="0.00 0.00 1018.00 764.00" xmlns="http://www.w3.org/2000/svg" xmlns:xlink="http://www.w3.org/1999/xlink">
<g id="graph1" class="graph" transform="scale(1 1) rotate(0) translate(4 760)">
<title>VolumeControlAlertWindow</title>
<polygon fill="white" stroke="white" points="-4,5 -4,-760 1015,-760 1015,5 -4,5"/>
<!-- Node1 -->
<g id="node1" class="node"><title>Node1</title>
<polygon fill="#bfbfbf" stroke="black" points="864.5,-142.5 864.5,-163.5 1009.5,-163.5 1009.5,-142.5 864.5,-142.5"/>
<text text-anchor="middle" x="937" y="-150.5" font-family="Helvetica,sans-Serif" font-size="10.00">VolumeControlAlertWindow</text>
</g>
<!-- Node2 -->
<g id="node2" class="node"><title>Node2</title>
<a xlink:href="classAlertWindow.htm" target="_top" xlink:title="AlertWindow">
<polygon fill="white" stroke="black" points="750,-142.5 750,-163.5 826,-163.5 826,-142.5 750,-142.5"/>
<text text-anchor="middle" x="788" y="-150.5" font-family="Helvetica,sans-Serif" font-size="10.00">AlertWindow</text>
</a>
</g>
<!-- Node2&#45;&gt;Node1 -->
<g id="edge2" class="edge"><title>Node2&#45;&gt;Node1</title>
<path fill="none" stroke="midnightblue" d="M836.525,-153C845.427,-153 854.894,-153 864.323,-153"/>
<polygon fill="midnightblue" stroke="midnightblue" points="836.371,-149.5 826.371,-153 836.371,-156.5 836.371,-149.5"/>
</g>
<!-- Node3 -->
<g id="node4" class="node"><title>Node3</title>
<a xlink:href="classHostWindow.htm" target="_top" xlink:title="HostWindow">
<polygon fill="white" stroke="black" points="636,-142.5 636,-163.5 712,-163.5 712,-142.5 636,-142.5"/>
<text text-anchor="middle" x="674" y="-150.5" font-family="Helvetica,sans-Serif" font-size="10.00">HostWindow</text>
</a>
</g>
<!-- Node3&#45;&gt;Node2 -->
<g id="edge4" class="edge"><title>Node3&#45;&gt;Node2</title>
<path fill="none" stroke="midnightblue" d="M722.377,-153C731.48,-153 740.883,-153 749.629,-153"/>
<polygon fill="midnightblue" stroke="midnightblue" points="722.278,-149.5 712.277,-153 722.277,-156.5 722.278,-149.5"/>
</g>
<!-- Node4 -->
<g id="node6" class="node"><title>Node4</title>
<a xlink:href="classWindow.htm" target="_top" xlink:title="Window">
<polygon fill="white" stroke="black" points="460,-553.5 460,-574.5 514,-574.5 514,-553.5 460,-553.5"/>
<text text-anchor="middle" x="487" y="-561.5" font-family="Helvetica,sans-Serif" font-size="10.00">Window</text>
</a>
</g>
<!-- Node4&#45;&gt;Node3 -->
<g id="edge6" class="edge"><title>Node4&#45;&gt;Node3</title>
<path fill="none" stroke="midnightblue" d="M503.151,-545.519C530.709,-513.047 586.85,-442.663 618,-374 652.667,-297.585 668.321,-196.173 672.678,-163.569"/>
<polygon fill="midnightblue" stroke="midnightblue" points="500.341,-543.42 496.486,-553.288 505.653,-547.978 500.341,-543.42"/>
</g>
<!-- Node5 -->
<g id="node8" class="node"><title>Node5</title>
<a xlink:href="classQGraphicsObject.htm" target="_top" xlink:title="QGraphicsObject">
<polygon fill="white" stroke="black" points="196,-734.5 196,-755.5 294,-755.5 294,-734.5 196,-734.5"/>
<text text-anchor="middle" x="245" y="-742.5" font-family="Helvetica,sans-Serif" font-size="10.00">QGraphicsObject</text>
</a>
</g>
<!-- Node5&#45;&gt;Node4 -->
<g id="edge8" class="edge"><title>Node5&#45;&gt;Node4</title>
<path fill="none" stroke="midnightblue" d="M304.158,-751.245C340.963,-751.986 387.338,-746.84 420,-722 469.328,-684.484 482.729,-603.627 486.019,-574.624"/>
<polygon fill="midnightblue" stroke="midnightblue" points="304.166,-747.744 294.05,-750.892 303.921,-754.739 304.166,-747.744"/>
</g>
<!-- Node6 -->
<g id="node10" class="node"><title>Node6</title>
<a xlink:href="classApplicationDescription.htm" target="_top" xlink:title="ApplicationDescription">
<polygon fill="white" stroke="black" points="184,-694.5 184,-715.5 306,-715.5 306,-694.5 184,-694.5"/>
<text text-anchor="middle" x="245" y="-702.5" font-family="Helvetica,sans-Serif" font-size="10.00">ApplicationDescription</text>
</a>
</g>
<!-- Node6&#45;&gt;Node4 -->
<g id="edge10" class="edge"><title>Node6&#45;&gt;Node4</title>
<path fill="none" stroke="#9a32cd" stroke-dasharray="5,2" d="M316.712,-706.627C350.564,-704.193 390.013,-696.425 420,-676 457.079,-650.744 476.881,-597.557 483.951,-574.753"/>
<polygon fill="#9a32cd" stroke="#9a32cd" points="316.185,-703.151 306.402,-707.219 316.587,-710.14 316.185,-703.151"/>
<text text-anchor="middle" x="372" y="-709" font-family="Helvetica,sans-Serif" font-size="10.00"> m_appDesc</text>
</g>
<!-- Node7 -->
<g id="node12" class="node"><title>Node7</title>
<a xlink:href="classApplicationDescriptionBase.htm" target="_top" xlink:title="ApplicationDescriptionBase">
<polygon fill="white" stroke="black" points="0,-694.5 0,-715.5 146,-715.5 146,-694.5 0,-694.5"/>
<text text-anchor="middle" x="73" y="-702.5" font-family="Helvetica,sans-Serif" font-size="10.00">ApplicationDescriptionBase</text>
</a>
</g>
<!-- Node7&#45;&gt;Node6 -->
<g id="edge12" class="edge"><title>Node7&#45;&gt;Node6</title>
<path fill="none" stroke="midnightblue" d="M156.467,-705C165.738,-705 175.048,-705 183.967,-705"/>
<polygon fill="midnightblue" stroke="midnightblue" points="156.442,-701.5 146.442,-705 156.442,-708.5 156.442,-701.5"/>
</g>
<!-- Node8 -->
<g id="node14" class="node"><title>Node8</title>
<polygon fill="white" stroke="#bfbfbf" points="224.5,-654.5 224.5,-675.5 265.5,-675.5 265.5,-654.5 224.5,-654.5"/>
<text text-anchor="middle" x="245" y="-662.5" font-family="Helvetica,sans-Serif" font-size="10.00">Type</text>
</g>
<!-- Node8&#45;&gt;Node4 -->
<g id="edge14" class="edge"><title>Node8&#45;&gt;Node4</title>
<path fill="none" stroke="#9a32cd" stroke-dasharray="5,2" d="M275.708,-664.406C312.133,-662.53 373.737,-655.596 420,-631 446.145,-617.1 468.647,-589.623 479.704,-574.534"/>
<polygon fill="#9a32cd" stroke="#9a32cd" points="275.541,-660.91 265.696,-664.825 275.834,-667.903 275.541,-660.91"/>
<text text-anchor="middle" x="372" y="-663" font-family="Helvetica,sans-Serif" font-size="10.00"> m_type</text>
</g>
<!-- Node9 -->
<g id="node16" class="node"><title>Node9</title>
<polygon fill="white" stroke="#bfbfbf" points="218.5,-614.5 218.5,-635.5 271.5,-635.5 271.5,-614.5 218.5,-614.5"/>
<text text-anchor="middle" x="245" y="-622.5" font-family="Helvetica,sans-Serif" font-size="10.00">QRectF</text>
</g>
<!-- Node9&#45;&gt;Node4 -->
<g id="edge16" class="edge"><title>Node9&#45;&gt;Node4</title>
<path fill="none" stroke="#9a32cd" stroke-dasharray="5,2" d="M281.565,-621.176C317.402,-616.812 373.292,-608.354 420,-594 436.324,-588.983 453.916,-580.999 466.976,-574.528"/>
<polygon fill="#9a32cd" stroke="#9a32cd" points="281.09,-617.708 271.567,-622.35 281.907,-624.66 281.09,-617.708"/>
<text text-anchor="middle" x="372" y="-618" font-family="Helvetica,sans-Serif" font-size="10.00"> m_visibleBounds</text>
</g>
<!-- Node10 -->
<g id="node18" class="node"><title>Node10</title>
<polygon fill="white" stroke="#bfbfbf" points="215.5,-574.5 215.5,-595.5 274.5,-595.5 274.5,-574.5 215.5,-574.5"/>
<text text-anchor="middle" x="245" y="-582.5" font-family="Helvetica,sans-Serif" font-size="10.00">QPixmap</text>
</g>
<!-- Node10&#45;&gt;Node4 -->
<g id="edge18" class="edge"><title>Node10&#45;&gt;Node4</title>
<path fill="none" stroke="#9a32cd" stroke-dasharray="5,2" d="M284.666,-581.558C334.006,-577.276 416.944,-570.079 459.695,-566.369"/>
<polygon fill="#9a32cd" stroke="#9a32cd" points="284.334,-578.073 274.674,-582.425 284.939,-585.047 284.334,-578.073"/>
<text text-anchor="middle" x="372" y="-581" font-family="Helvetica,sans-Serif" font-size="10.00"> m_screenPixmap</text>
</g>
<!-- Node11 -->
<g id="node20" class="node"><title>Node11</title>
<polygon fill="white" stroke="#bfbfbf" points="218,-529.5 218,-550.5 272,-550.5 272,-529.5 218,-529.5"/>
<text text-anchor="middle" x="245" y="-537.5" font-family="Helvetica,sans-Serif" font-size="10.00">uint32_t</text>
</g>
<!-- Node11&#45;&gt;Node4 -->
<g id="edge20" class="edge"><title>Node11&#45;&gt;Node4</title>
<path fill="none" stroke="#9a32cd" stroke-dasharray="5,2" d="M282.646,-536.304C318.304,-533.671 373.205,-531.872 420,-540 434.973,-542.601 451.025,-548.243 463.663,-553.403"/>
<polygon fill="#9a32cd" stroke="#9a32cd" points="281.917,-532.851 272.228,-537.137 282.476,-539.828 281.917,-532.851"/>
<text text-anchor="middle" x="372" y="-557" font-family="Helvetica,sans-Serif" font-size="10.00"> m_bufWidth</text>
<text text-anchor="middle" x="372" y="-544" font-family="Helvetica,sans-Serif" font-size="10.00">m_bufHeight</text>
</g>
<!-- Node12 -->
<g id="node22" class="node"><title>Node12</title>
<a xlink:href="classint.htm" target="_top" xlink:title="int">
<polygon fill="white" stroke="black" points="230.5,-435.5 230.5,-456.5 259.5,-456.5 259.5,-435.5 230.5,-435.5"/>
<text text-anchor="middle" x="245" y="-443.5" font-family="Helvetica,sans-Serif" font-size="10.00">int</text>
</a>
</g>
<!-- Node12&#45;&gt;Node4 -->
<g id="edge22" class="edge"><title>Node12&#45;&gt;Node4</title>
<path fill="none" stroke="#9a32cd" stroke-dasharray="5,2" d="M269.305,-452.899C310.893,-464.916 393.762,-489.852 420,-505 443.087,-518.329 465.396,-540.381 477.55,-553.417"/>
<polygon fill="#9a32cd" stroke="#9a32cd" points="270.258,-449.531 259.68,-450.135 268.326,-456.259 270.258,-449.531"/>
<text text-anchor="middle" x="372" y="-522" font-family="Helvetica,sans-Serif" font-size="10.00"> m_initialWidth</text>
<text text-anchor="middle" x="372" y="-509" font-family="Helvetica,sans-Serif" font-size="10.00">m_initialHeight</text>
</g>
<!-- Node18 -->
<g id="node34" class="node"><title>Node18</title>
<a xlink:href="classIpcClientHost.htm" target="_top" xlink:title="IpcClientHost">
<polygon fill="white" stroke="black" points="447,-164.5 447,-185.5 527,-185.5 527,-164.5 447,-164.5"/>
<text text-anchor="middle" x="487" y="-172.5" font-family="Helvetica,sans-Serif" font-size="10.00">IpcClientHost</text>
</a>
</g>
<!-- Node12&#45;&gt;Node18 -->
<g id="edge44" class="edge"><title>Node12&#45;&gt;Node18</title>
<path fill="none" stroke="#9a32cd" stroke-dasharray="5,2" d="M266.442,-428.904C281.883,-417.074 303.519,-401.46 324,-390 364.488,-367.345 387.791,-382.393 420,-349 466.968,-300.306 481.903,-215.146 485.804,-185.517"/>
<polygon fill="#9a32cd" stroke="#9a32cd" points="263.869,-426.471 258.122,-435.372 268.165,-431.997 263.869,-426.471"/>
<text text-anchor="middle" x="372" y="-407" font-family="Helvetica,sans-Serif" font-size="10.00"> m_processPriority</text>
<text text-anchor="middle" x="372" y="-394" font-family="Helvetica,sans-Serif" font-size="10.00">m_pid</text>
</g>
<!-- Node13 -->
<g id="node24" class="node"><title>Node13</title>
<polygon fill="white" stroke="#bfbfbf" points="227,-349.5 227,-370.5 263,-370.5 263,-349.5 227,-349.5"/>
<text text-anchor="middle" x="245" y="-357.5" font-family="Helvetica,sans-Serif" font-size="10.00">bool</text>
</g>
<!-- Node13&#45;&gt;Node3 -->
<g id="edge52" class="edge"><title>Node13&#45;&gt;Node3</title>
<path fill="none" stroke="#9a32cd" stroke-dasharray="5,2" d="M273.225,-362.501C308.727,-364.593 370.972,-364.723 420,-346 530.203,-303.914 632.859,-198.253 664.236,-163.944"/>
<polygon fill="#9a32cd" stroke="#9a32cd" points="273.326,-359 263.11,-361.808 272.847,-365.984 273.326,-359"/>
<text text-anchor="middle" x="487" y="-341" font-family="Helvetica,sans-Serif" font-size="10.00"> m_isIpcWindow</text>
</g>
<!-- Node13&#45;&gt;Node4 -->
<g id="edge24" class="edge"><title>Node13&#45;&gt;Node4</title>
<path fill="none" stroke="#9a32cd" stroke-dasharray="5,2" d="M263.326,-377.651C278.435,-391.227 301.043,-409.403 324,-420 363.655,-438.304 385.064,-414.788 420,-441 459.096,-470.333 478.102,-529.43 484.465,-553.469"/>
<polygon fill="#9a32cd" stroke="#9a32cd" points="265.472,-374.868 255.749,-370.659 260.724,-380.013 265.472,-374.868"/>
<text text-anchor="middle" x="372" y="-458" font-family="Helvetica,sans-Serif" font-size="10.00"> m_removed</text>
<text text-anchor="middle" x="372" y="-445" font-family="Helvetica,sans-Serif" font-size="10.00">m_disableKeepAlive</text>
</g>
<!-- Node13&#45;&gt;Node18 -->
<g id="edge46" class="edge"><title>Node13&#45;&gt;Node18</title>
<path fill="none" stroke="#9a32cd" stroke-dasharray="5,2" d="M258.985,-341.448C271.65,-324.432 290.624,-298.396 306,-275 314.54,-262.006 311.461,-254.195 324,-245 359.38,-219.054 380.001,-240.028 420,-222 440.985,-212.542 462.241,-196.233 475.022,-185.531"/>
<polygon fill="#9a32cd" stroke="#9a32cd" points="256.177,-339.358 252.99,-349.462 261.783,-343.551 256.177,-339.358"/>
<text text-anchor="middle" x="372" y="-249" font-family="Helvetica,sans-Serif" font-size="10.00"> m_clearing</text>
</g>
<!-- Node14 -->
<g id="node26" class="node"><title>Node14</title>
<polygon fill="white" stroke="#bfbfbf" points="223.5,-244.5 223.5,-265.5 266.5,-265.5 266.5,-244.5 223.5,-244.5"/>
<text text-anchor="middle" x="245" y="-252.5" font-family="Helvetica,sans-Serif" font-size="10.00">string</text>
</g>
<!-- Node14&#45;&gt;Node4 -->
<g id="edge26" class="edge"><title>Node14&#45;&gt;Node4</title>
<path fill="none" stroke="#9a32cd" stroke-dasharray="5,2" d="M276.624,-257.527C324.225,-261.624 409.833,-270.248 420,-280 451.642,-310.353 428.437,-334.209 438,-377 453.079,-444.472 475.619,-524.443 483.848,-553.108"/>
<polygon fill="#9a32cd" stroke="#9a32cd" points="276.784,-254.028 266.526,-256.676 276.197,-261.003 276.784,-254.028"/>
<text text-anchor="middle" x="372" y="-336" font-family="Helvetica,sans-Serif" font-size="10.00"> m_launchingAppId</text>
<text text-anchor="middle" x="372" y="-323" font-family="Helvetica,sans-Serif" font-size="10.00">m_processId</text>
<text text-anchor="middle" x="372" y="-310" font-family="Helvetica,sans-Serif" font-size="10.00">m_launchingProcId</text>
<text text-anchor="middle" x="372" y="-297" font-family="Helvetica,sans-Serif" font-size="10.00">m_appId</text>
<text text-anchor="middle" x="372" y="-284" font-family="Helvetica,sans-Serif" font-size="10.00">m_name</text>
</g>
<!-- Node14&#45;&gt;Node18 -->
<g id="edge48" class="edge"><title>Node14&#45;&gt;Node18</title>
<path fill="none" stroke="#9a32cd" stroke-dasharray="5,2" d="M268.426,-238.658C283.639,-228.744 304.245,-216.582 324,-209 345.995,-200.558 406.063,-189.083 446.803,-181.859"/>
<polygon fill="#9a32cd" stroke="#9a32cd" points="266.08,-236.016 259.708,-244.48 269.968,-241.838 266.08,-236.016"/>
<text text-anchor="middle" x="372" y="-213" font-family="Helvetica,sans-Serif" font-size="10.00"> m_name</text>
</g>
<!-- Node15 -->
<g id="node28" class="node"><title>Node15</title>
<a xlink:href="classPIpcChannelListener.htm" target="_top" xlink:title="PIpcChannelListener">
<polygon fill="white" stroke="black" points="187,-0.5 187,-21.5 303,-21.5 303,-0.5 187,-0.5"/>
<text text-anchor="middle" x="245" y="-8.5" font-family="Helvetica,sans-Serif" font-size="10.00">PIpcChannelListener</text>
</a>
</g>
<!-- Node15&#45;&gt;Node3 -->
<g id="edge28" class="edge"><title>Node15&#45;&gt;Node3</title>
<path fill="none" stroke="midnightblue" d="M313.581,-7.9342C346.19,-7.9457 385.498,-10.108 420,-18 513.527,-39.393 536.932,-52.6882 618,-104 635.465,-115.055 652.974,-131.432 663.649,-142.16"/>
<polygon fill="midnightblue" stroke="midnightblue" points="313.221,-4.43638 303.244,-8.0015 313.266,-11.4362 313.221,-4.43638"/>
</g>
<!-- Node15&#45;&gt;Node18 -->
<g id="edge38" class="edge"><title>Node15&#45;&gt;Node18</title>
<path fill="none" stroke="midnightblue" d="M313.27,-16.299C355.809,-21.0597 405.181,-29.7347 420,-45 454.505,-80.5457 407.131,-116.254 438,-155 440.977,-158.737 444.767,-161.781 448.916,-164.259"/>
<polygon fill="midnightblue" stroke="midnightblue" points="313.506,-12.8045 303.192,-15.2282 312.766,-19.7653 313.506,-12.8045"/>
</g>
<!-- Node16 -->
<g id="node30" class="node"><title>Node16</title>
<a xlink:href="classInputClient.htm" target="_top" xlink:title="InputClient">
<polygon fill="white" stroke="black" points="453.5,-124.5 453.5,-145.5 520.5,-145.5 520.5,-124.5 453.5,-124.5"/>
<text text-anchor="middle" x="487" y="-132.5" font-family="Helvetica,sans-Serif" font-size="10.00">InputClient</text>
</a>
</g>
<!-- Node16&#45;&gt;Node3 -->
<g id="edge30" class="edge"><title>Node16&#45;&gt;Node3</title>
<path fill="none" stroke="midnightblue" d="M531.216,-139.256C563.045,-142.32 605.542,-146.411 635.879,-149.331"/>
<polygon fill="midnightblue" stroke="midnightblue" points="531.154,-135.734 520.864,-138.26 530.483,-142.702 531.154,-135.734"/>
</g>
<!-- Node17 -->
<g id="node32" class="node"><title>Node17</title>
<a xlink:href="classHostWindowData.htm" target="_top" xlink:title="HostWindowData">
<polygon fill="white" stroke="black" points="438,-84.5 438,-105.5 536,-105.5 536,-84.5 438,-84.5"/>
<text text-anchor="middle" x="487" y="-92.5" font-family="Helvetica,sans-Serif" font-size="10.00">HostWindowData</text>
</a>
</g>
<!-- Node17&#45;&gt;Node3 -->
<g id="edge32" class="edge"><title>Node17&#45;&gt;Node3</title>
<path fill="none" stroke="#9a32cd" stroke-dasharray="5,2" d="M545.917,-105.371C568.775,-110.2 594.947,-116.731 618,-125 630.994,-129.661 644.878,-136.588 655.57,-142.386"/>
<polygon fill="#9a32cd" stroke="#9a32cd" points="546.507,-101.919 536.008,-103.339 545.101,-108.777 546.507,-101.919"/>
<text text-anchor="middle" x="586" y="-129" font-family="Helvetica,sans-Serif" font-size="10.00"> m_data</text>
</g>
<!-- Node18&#45;&gt;Node3 -->
<g id="edge34" class="edge"><title>Node18&#45;&gt;Node3</title>
<path fill="none" stroke="#9a32cd" stroke-dasharray="5,2" d="M537.292,-169.083C568.294,-165.436 607.422,-160.833 635.865,-157.486"/>
<polygon fill="#9a32cd" stroke="#9a32cd" points="536.639,-165.636 527.116,-170.28 537.457,-172.588 536.639,-165.636"/>
<text text-anchor="middle" x="586" y="-171" font-family="Helvetica,sans-Serif" font-size="10.00"> m_clientHost</text>
</g>
<!-- Node19 -->
<g id="node36" class="node"><title>Node19</title>
<a xlink:href="classQObject.htm" target="_top" xlink:title="QObject">
<polygon fill="white" stroke="black" points="217.5,-173.5 217.5,-194.5 272.5,-194.5 272.5,-173.5 217.5,-173.5"/>
<text text-anchor="middle" x="245" y="-181.5" font-family="Helvetica,sans-Serif" font-size="10.00">QObject</text>
</a>
</g>
<!-- Node19&#45;&gt;Node18 -->
<g id="edge36" class="edge"><title>Node19&#45;&gt;Node18</title>
<path fill="none" stroke="midnightblue" d="M282.89,-182.591C327.464,-180.933 401.153,-178.193 446.733,-176.498"/>
<polygon fill="midnightblue" stroke="midnightblue" points="282.623,-179.098 272.76,-182.968 282.884,-186.093 282.623,-179.098"/>
</g>
<!-- Node20 -->
<g id="node39" class="node"><title>Node20</title>
<polygon fill="white" stroke="#bfbfbf" points="212,-133.5 212,-154.5 278,-154.5 278,-133.5 212,-133.5"/>
<text text-anchor="middle" x="245" y="-141.5" font-family="Helvetica,sans-Serif" font-size="10.00">GSource *</text>
</g>
<!-- Node20&#45;&gt;Node18 -->
<g id="edge40" class="edge"><title>Node20&#45;&gt;Node18</title>
<path fill="none" stroke="#9a32cd" stroke-dasharray="5,2" d="M288.058,-146.866C323.581,-149.546 375.233,-154.169 420,-161 428.693,-162.326 437.959,-164.056 446.74,-165.844"/>
<polygon fill="#9a32cd" stroke="#9a32cd" points="288.262,-143.372 278.032,-146.129 287.748,-150.353 288.262,-143.372"/>
<text text-anchor="middle" x="372" y="-165" font-family="Helvetica,sans-Serif" font-size="10.00"> m_idleDestroySrc</text>
</g>
<!-- Node21 -->
<g id="node41" class="node"><title>Node21</title>
<polygon fill="white" stroke="#bfbfbf" points="197.5,-89.5 197.5,-110.5 292.5,-110.5 292.5,-89.5 197.5,-89.5"/>
<text text-anchor="middle" x="245" y="-97.5" font-family="Helvetica,sans-Serif" font-size="10.00">set&lt; Window * &gt;</text>
</g>
<!-- Node21&#45;&gt;Node18 -->
<g id="edge42" class="edge"><title>Node21&#45;&gt;Node18</title>
<path fill="none" stroke="#9a32cd" stroke-dasharray="5,2" d="M302.712,-93.4441C339.353,-92.2602 386.084,-96.5578 420,-120 434.389,-129.946 425.102,-143.184 438,-155 442.133,-158.786 447.078,-161.903 452.214,-164.456"/>
<polygon fill="#9a32cd" stroke="#9a32cd" points="302.491,-89.9505 292.664,-93.912 302.816,-96.9429 302.491,-89.9505"/>
<text text-anchor="middle" x="372" y="-137" font-family="Helvetica,sans-Serif" font-size="10.00"> m_closedWinSet</text>
<text text-anchor="middle" x="372" y="-124" font-family="Helvetica,sans-Serif" font-size="10.00">m_winSet</text>
</g>
<!-- Node22 -->
<g id="node46" class="node"><title>Node22</title>
<polygon fill="white" stroke="#bfbfbf" points="186.5,-49.5 186.5,-70.5 303.5,-70.5 303.5,-49.5 186.5,-49.5"/>
<text text-anchor="middle" x="245" y="-57.5" font-family="Helvetica,sans-Serif" font-size="10.00">map&lt; int, Window * &gt;</text>
</g>
<!-- Node22&#45;&gt;Node18 -->
<g id="edge50" class="edge"><title>Node22&#45;&gt;Node18</title>
<path fill="none" stroke="#9a32cd" stroke-dasharray="5,2" d="M314.1,-48.9728C349.755,-47.2778 391.604,-52.0738 420,-77 446.738,-100.471 414.943,-127.904 438,-155 441.215,-158.779 445.255,-161.853 449.627,-164.352"/>
<polygon fill="#9a32cd" stroke="#9a32cd" points="313.492,-45.5051 303.742,-49.6514 313.949,-52.4901 313.492,-45.5051"/>
<text text-anchor="middle" x="372" y="-81" font-family="Helvetica,sans-Serif" font-size="10.00"> m_winMap</text>
</g>
</g>
</svg>
