<?xml version="1.0" encoding="UTF-8" standalone="no"?>
<!DOCTYPE svg PUBLIC "-//W3C//DTD SVG 1.1//EN"
 "http://www.w3.org/Graphics/SVG/1.1/DTD/svg11.dtd">
<!-- Generated by graphviz version 2.26.3 (20100126.1600)
 -->
<!-- Title: BannerAlerts Pages: 1 -->
<svg width="242pt" height="146pt"
 viewBox="0.00 0.00 242.00 146.00" xmlns="http://www.w3.org/2000/svg" xmlns:xlink="http://www.w3.org/1999/xlink">
<g id="graph1" class="graph" transform="scale(1 1) rotate(0) translate(4 142)">
<title>BannerAlerts</title>
<polygon fill="white" stroke="white" points="-4,5 -4,-142 239,-142 239,5 -4,5"/>
<!-- Node1 -->
<g id="node1" class="node"><title>Node1</title>
<polygon fill="#bfbfbf" stroke="black" points="74,-0.5 74,-21.5 152,-21.5 152,-0.5 74,-0.5"/>
<text text-anchor="middle" x="113" y="-8.5" font-family="Helvetica,sans-Serif" font-size="10.00">BannerAlerts</text>
</g>
<!-- Node2 -->
<g id="node2" class="node"><title>Node2</title>
<a xlink:href="classTransparentNode.htm" target="_top" xlink:title="TransparentNode">
<polygon fill="white" stroke="black" points="-0.5,-58.5 -0.5,-79.5 100.5,-79.5 100.5,-58.5 -0.5,-58.5"/>
<text text-anchor="middle" x="50" y="-66.5" font-family="Helvetica,sans-Serif" font-size="10.00">TransparentNode</text>
</a>
</g>
<!-- Node2&#45;&gt;Node1 -->
<g id="edge2" class="edge"><title>Node2&#45;&gt;Node1</title>
<path fill="none" stroke="midnightblue" d="M69.1118,-51.405C79.6878,-41.6683 92.48,-29.8914 101.518,-21.5707"/>
<polygon fill="midnightblue" stroke="midnightblue" points="66.5416,-49.0138 61.5552,-58.3619 71.2828,-54.1637 66.5416,-49.0138"/>
</g>
<!-- Node3 -->
<g id="node4" class="node"><title>Node3</title>
<a xlink:href="classQGraphicsObject.htm" target="_top" xlink:title="QGraphicsObject">
<polygon fill="white" stroke="black" points="1,-116.5 1,-137.5 99,-137.5 99,-116.5 1,-116.5"/>
<text text-anchor="middle" x="50" y="-124.5" font-family="Helvetica,sans-Serif" font-size="10.00">QGraphicsObject</text>
</a>
</g>
<!-- Node3&#45;&gt;Node2 -->
<g id="edge4" class="edge"><title>Node3&#45;&gt;Node2</title>
<path fill="none" stroke="midnightblue" d="M50,-106.191C50,-97.1684 50,-86.9941 50,-79.5707"/>
<polygon fill="midnightblue" stroke="midnightblue" points="46.5001,-106.362 50,-116.362 53.5001,-106.362 46.5001,-106.362"/>
</g>
<!-- Node4 -->
<g id="node6" class="node"><title>Node4</title>
<a xlink:href="classBannerMessageView.htm" target="_top" xlink:title="BannerMessageView">
<polygon fill="white" stroke="black" points="117.5,-58.5 117.5,-79.5 234.5,-79.5 234.5,-58.5 117.5,-58.5"/>
<text text-anchor="middle" x="176" y="-66.5" font-family="Helvetica,sans-Serif" font-size="10.00">BannerMessageView</text>
</a>
</g>
<!-- Node4&#45;&gt;Node1 -->
<g id="edge6" class="edge"><title>Node4&#45;&gt;Node1</title>
<path fill="none" stroke="midnightblue" d="M156.888,-51.405C146.312,-41.6683 133.52,-29.8914 124.482,-21.5707"/>
<polygon fill="midnightblue" stroke="midnightblue" points="154.717,-54.1637 164.445,-58.3619 159.458,-49.0138 154.717,-54.1637"/>
</g>
</g>
</svg>
