<?xml version="1.0" encoding="UTF-8" standalone="no"?>
<!DOCTYPE svg PUBLIC "-//W3C//DTD SVG 1.1//EN"
 "http://www.w3.org/Graphics/SVG/1.1/DTD/svg11.dtd">
<!-- Generated by graphviz version 2.26.3 (20100126.1600)
 -->
<!-- Title: PIpcChannelListener Pages: 1 -->
<svg width="711pt" height="262pt"
 viewBox="0.00 0.00 711.00 262.00" xmlns="http://www.w3.org/2000/svg" xmlns:xlink="http://www.w3.org/1999/xlink">
<g id="graph1" class="graph" transform="scale(1 1) rotate(0) translate(4 258)">
<title>PIpcChannelListener</title>
<polygon fill="white" stroke="white" points="-4,5 -4,-258 708,-258 708,5 -4,5"/>
<!-- Node1 -->
<g id="node1" class="node"><title>Node1</title>
<polygon fill="#bfbfbf" stroke="black" points="453,-232.5 453,-253.5 569,-253.5 569,-232.5 453,-232.5"/>
<text text-anchor="middle" x="511" y="-240.5" font-family="Helvetica,sans-Serif" font-size="10.00">PIpcChannelListener</text>
</g>
<!-- Node2 -->
<g id="node3" class="node"><title>Node2</title>
<a xlink:href="classHostWindow.htm" target="_top" xlink:title="HostWindow">
<polygon fill="white" stroke="black" points="394,-174.5 394,-195.5 470,-195.5 470,-174.5 394,-174.5"/>
<text text-anchor="middle" x="432" y="-182.5" font-family="Helvetica,sans-Serif" font-size="10.00">HostWindow</text>
</a>
</g>
<!-- Node1&#45;&gt;Node2 -->
<g id="edge2" class="edge"><title>Node1&#45;&gt;Node2</title>
<path fill="none" stroke="midnightblue" d="M488.197,-226.259C474.72,-216.364 458.065,-204.136 446.398,-195.571"/>
<polygon fill="midnightblue" stroke="midnightblue" points="486.378,-229.265 496.51,-232.362 490.521,-223.623 486.378,-229.265"/>
</g>
<!-- Node13 -->
<g id="node25" class="node"><title>Node13</title>
<a xlink:href="classIpcClientHost.htm" target="_top" xlink:title="IpcClientHost">
<polygon fill="white" stroke="black" points="550,-174.5 550,-195.5 630,-195.5 630,-174.5 550,-174.5"/>
<text text-anchor="middle" x="590" y="-182.5" font-family="Helvetica,sans-Serif" font-size="10.00">IpcClientHost</text>
</a>
</g>
<!-- Node1&#45;&gt;Node13 -->
<g id="edge24" class="edge"><title>Node1&#45;&gt;Node13</title>
<path fill="none" stroke="midnightblue" d="M533.803,-226.259C547.28,-216.364 563.935,-204.136 575.602,-195.571"/>
<polygon fill="midnightblue" stroke="midnightblue" points="531.479,-223.623 525.49,-232.362 535.622,-229.265 531.479,-223.623"/>
</g>
<!-- Node3 -->
<g id="node5" class="node"><title>Node3</title>
<a xlink:href="classAlertWindow.htm" target="_top" xlink:title="AlertWindow">
<polygon fill="white" stroke="black" points="146,-116.5 146,-137.5 222,-137.5 222,-116.5 146,-116.5"/>
<text text-anchor="middle" x="184" y="-124.5" font-family="Helvetica,sans-Serif" font-size="10.00">AlertWindow</text>
</a>
</g>
<!-- Node2&#45;&gt;Node3 -->
<g id="edge4" class="edge"><title>Node2&#45;&gt;Node3</title>
<path fill="none" stroke="midnightblue" d="M383.812,-173.73C336.631,-162.696 265.686,-146.104 222.25,-135.946"/>
<polygon fill="midnightblue" stroke="midnightblue" points="383.259,-177.195 393.793,-176.065 384.853,-170.379 383.259,-177.195"/>
</g>
<!-- Node6 -->
<g id="node11" class="node"><title>Node6</title>
<a xlink:href="classCardWindow.htm" target="_top" xlink:title="CardWindow">
<polygon fill="white" stroke="black" points="284.5,-116.5 284.5,-137.5 361.5,-137.5 361.5,-116.5 284.5,-116.5"/>
<text text-anchor="middle" x="323" y="-124.5" font-family="Helvetica,sans-Serif" font-size="10.00">CardWindow</text>
</a>
</g>
<!-- Node2&#45;&gt;Node6 -->
<g id="edge10" class="edge"><title>Node2&#45;&gt;Node6</title>
<path fill="none" stroke="midnightblue" d="M403.423,-169.794C384.406,-159.675 359.898,-146.634 342.961,-137.621"/>
<polygon fill="midnightblue" stroke="midnightblue" points="401.789,-172.889 412.261,-174.497 405.077,-166.709 401.789,-172.889"/>
</g>
<!-- Node11 -->
<g id="node21" class="node"><title>Node11</title>
<a xlink:href="classDashboardWindow.htm" target="_top" xlink:title="DashboardWindow">
<polygon fill="white" stroke="black" points="379,-116.5 379,-137.5 485,-137.5 485,-116.5 379,-116.5"/>
<text text-anchor="middle" x="432" y="-124.5" font-family="Helvetica,sans-Serif" font-size="10.00">DashboardWindow</text>
</a>
</g>
<!-- Node2&#45;&gt;Node11 -->
<g id="edge20" class="edge"><title>Node2&#45;&gt;Node11</title>
<path fill="none" stroke="midnightblue" d="M432,-164.191C432,-155.168 432,-144.994 432,-137.571"/>
<polygon fill="midnightblue" stroke="midnightblue" points="428.5,-164.362 432,-174.362 435.5,-164.362 428.5,-164.362"/>
</g>
<!-- Node12 -->
<g id="node23" class="node"><title>Node12</title>
<a xlink:href="classMenuWindow.htm" target="_top" xlink:title="MenuWindow">
<polygon fill="white" stroke="black" points="503,-116.5 503,-137.5 583,-137.5 583,-116.5 503,-116.5"/>
<text text-anchor="middle" x="543" y="-124.5" font-family="Helvetica,sans-Serif" font-size="10.00">MenuWindow</text>
</a>
</g>
<!-- Node2&#45;&gt;Node12 -->
<g id="edge22" class="edge"><title>Node2&#45;&gt;Node12</title>
<path fill="none" stroke="midnightblue" d="M461.101,-169.794C480.468,-159.675 505.425,-146.634 522.673,-137.621"/>
<polygon fill="midnightblue" stroke="midnightblue" points="459.343,-166.763 452.101,-174.497 462.585,-172.968 459.343,-166.763"/>
</g>
<!-- Node4 -->
<g id="node7" class="node"><title>Node4</title>
<a xlink:href="classQmlAlertWindow.htm" target="_top" xlink:title="QmlAlertWindow">
<polygon fill="white" stroke="black" points="-0.5,-58.5 -0.5,-79.5 94.5,-79.5 94.5,-58.5 -0.5,-58.5"/>
<text text-anchor="middle" x="47" y="-66.5" font-family="Helvetica,sans-Serif" font-size="10.00">QmlAlertWindow</text>
</a>
</g>
<!-- Node3&#45;&gt;Node4 -->
<g id="edge6" class="edge"><title>Node3&#45;&gt;Node4</title>
<path fill="none" stroke="midnightblue" d="M149.701,-112.479C125.585,-102.269 93.8602,-88.8386 72.0881,-79.6212"/>
<polygon fill="midnightblue" stroke="midnightblue" points="148.617,-115.821 159.19,-116.497 151.346,-109.375 148.617,-115.821"/>
</g>
<!-- Node5 -->
<g id="node9" class="node"><title>Node5</title>
<a xlink:href="classVolumeControlAlertWindow.htm" target="_top" xlink:title="VolumeControlAlertWindow">
<polygon fill="white" stroke="black" points="111.5,-58.5 111.5,-79.5 256.5,-79.5 256.5,-58.5 111.5,-58.5"/>
<text text-anchor="middle" x="184" y="-66.5" font-family="Helvetica,sans-Serif" font-size="10.00">VolumeControlAlertWindow</text>
</a>
</g>
<!-- Node3&#45;&gt;Node5 -->
<g id="edge8" class="edge"><title>Node3&#45;&gt;Node5</title>
<path fill="none" stroke="midnightblue" d="M184,-106.191C184,-97.1684 184,-86.9941 184,-79.5707"/>
<polygon fill="midnightblue" stroke="midnightblue" points="180.5,-106.362 184,-116.362 187.5,-106.362 180.5,-106.362"/>
</g>
<!-- Node7 -->
<g id="node13" class="node"><title>Node7</title>
<a xlink:href="classCardHostWindow.htm" target="_top" xlink:title="CardHostWindow">
<polygon fill="white" stroke="black" points="273.5,-58.5 273.5,-79.5 372.5,-79.5 372.5,-58.5 273.5,-58.5"/>
<text text-anchor="middle" x="323" y="-66.5" font-family="Helvetica,sans-Serif" font-size="10.00">CardHostWindow</text>
</a>
</g>
<!-- Node6&#45;&gt;Node7 -->
<g id="edge12" class="edge"><title>Node6&#45;&gt;Node7</title>
<path fill="none" stroke="midnightblue" d="M323,-106.191C323,-97.1684 323,-86.9941 323,-79.5707"/>
<polygon fill="midnightblue" stroke="midnightblue" points="319.5,-106.362 323,-116.362 326.5,-106.362 319.5,-106.362"/>
</g>
<!-- Node9 -->
<g id="node17" class="node"><title>Node9</title>
<a xlink:href="classDockModeWindow.htm" target="_top" xlink:title="DockModeWindow">
<polygon fill="white" stroke="black" points="392.5,-58.5 392.5,-79.5 497.5,-79.5 497.5,-58.5 392.5,-58.5"/>
<text text-anchor="middle" x="445" y="-66.5" font-family="Helvetica,sans-Serif" font-size="10.00">DockModeWindow</text>
</a>
</g>
<!-- Node6&#45;&gt;Node9 -->
<g id="edge16" class="edge"><title>Node6&#45;&gt;Node9</title>
<path fill="none" stroke="midnightblue" d="M354.406,-112.069C375.771,-101.912 403.529,-88.7157 422.659,-79.6212"/>
<polygon fill="midnightblue" stroke="midnightblue" points="352.622,-109.042 345.093,-116.497 355.627,-115.364 352.622,-109.042"/>
</g>
<!-- Node8 -->
<g id="node15" class="node"><title>Node8</title>
<a xlink:href="classQtHostWindow.htm" target="_top" xlink:title="QtHostWindow">
<polygon fill="white" stroke="black" points="277.5,-0.5 277.5,-21.5 364.5,-21.5 364.5,-0.5 277.5,-0.5"/>
<text text-anchor="middle" x="321" y="-8.5" font-family="Helvetica,sans-Serif" font-size="10.00">QtHostWindow</text>
</a>
</g>
<!-- Node7&#45;&gt;Node8 -->
<g id="edge14" class="edge"><title>Node7&#45;&gt;Node8</title>
<path fill="none" stroke="midnightblue" d="M322.282,-48.1906C321.971,-39.1684 321.62,-28.9941 321.365,-21.5707"/>
<polygon fill="midnightblue" stroke="midnightblue" points="318.791,-48.4885 322.633,-58.3619 325.786,-48.2472 318.791,-48.4885"/>
</g>
<!-- Node10 -->
<g id="node19" class="node"><title>Node10</title>
<a xlink:href="classDockModeClockWindow.htm" target="_top" xlink:title="DockModeClockWindow">
<polygon fill="white" stroke="black" points="381.5,-0.5 381.5,-21.5 512.5,-21.5 512.5,-0.5 381.5,-0.5"/>
<text text-anchor="middle" x="447" y="-8.5" font-family="Helvetica,sans-Serif" font-size="10.00">DockModeClockWindow</text>
</a>
</g>
<!-- Node9&#45;&gt;Node10 -->
<g id="edge18" class="edge"><title>Node9&#45;&gt;Node10</title>
<path fill="none" stroke="midnightblue" d="M445.718,-48.1906C446.029,-39.1684 446.38,-28.9941 446.635,-21.5707"/>
<polygon fill="midnightblue" stroke="midnightblue" points="442.214,-48.2472 445.367,-58.3619 449.209,-48.4885 442.214,-48.2472"/>
</g>
<!-- Node14 -->
<g id="node27" class="node"><title>Node14</title>
<a xlink:href="classWebAppMgrProxy.htm" target="_top" xlink:title="WebAppMgrProxy">
<polygon fill="white" stroke="black" points="601,-116.5 601,-137.5 703,-137.5 703,-116.5 601,-116.5"/>
<text text-anchor="middle" x="652" y="-124.5" font-family="Helvetica,sans-Serif" font-size="10.00">WebAppMgrProxy</text>
</a>
</g>
<!-- Node13&#45;&gt;Node14 -->
<g id="edge26" class="edge"><title>Node13&#45;&gt;Node14</title>
<path fill="none" stroke="midnightblue" d="M608.808,-167.405C619.217,-157.668 631.806,-145.891 640.7,-137.571"/>
<polygon fill="midnightblue" stroke="midnightblue" points="606.283,-164.974 601.372,-174.362 611.066,-170.086 606.283,-164.974"/>
</g>
</g>
</svg>
