<?xml version="1.0" encoding="UTF-8" standalone="no"?>
<!DOCTYPE svg PUBLIC "-//W3C//DTD SVG 1.1//EN"
 "http://www.w3.org/Graphics/SVG/1.1/DTD/svg11.dtd">
<!-- Generated by graphviz version 2.26.3 (20100126.1600)
 -->
<!-- Title: LauncherTouchRedirectContext Pages: 1 -->
<svg width="203pt" height="174pt"
 viewBox="0.00 0.00 203.00 174.00" xmlns="http://www.w3.org/2000/svg" xmlns:xlink="http://www.w3.org/1999/xlink">
<g id="graph1" class="graph" transform="scale(1 1) rotate(0) translate(4 170)">
<title>LauncherTouchRedirectContext</title>
<polygon fill="white" stroke="white" points="-4,5 -4,-170 200,-170 200,5 -4,5"/>
<!-- Node1 -->
<g id="node1" class="node"><title>Node1</title>
<polygon fill="#bfbfbf" stroke="black" points="-0.5,-0.5 -0.5,-21.5 166.5,-21.5 166.5,-0.5 -0.5,-0.5"/>
<text text-anchor="middle" x="83" y="-8.5" font-family="Helvetica,sans-Serif" font-size="10.00">LauncherTouchRedirectContext</text>
</g>
<!-- Node2 -->
<g id="node2" class="node"><title>Node2</title>
<a xlink:href="classRedirectContext.htm" target="_top" xlink:title="RedirectContext">
<polygon fill="white" stroke="black" points="36.5,-60.5 36.5,-81.5 129.5,-81.5 129.5,-60.5 36.5,-60.5"/>
<text text-anchor="middle" x="83" y="-68.5" font-family="Helvetica,sans-Serif" font-size="10.00">RedirectContext</text>
</a>
</g>
<!-- Node2&#45;&gt;Node1 -->
<g id="edge2" class="edge"><title>Node2&#45;&gt;Node1</title>
<path fill="none" stroke="midnightblue" d="M83,-50.2312C83,-40.5922 83,-29.5444 83,-21.6339"/>
<polygon fill="midnightblue" stroke="midnightblue" points="79.5001,-50.2732 83,-60.2732 86.5001,-50.2732 79.5001,-50.2732"/>
</g>
<!-- Node3 -->
<g id="node4" class="node"><title>Node3</title>
<a xlink:href="classQObject.htm" target="_top" xlink:title="QObject">
<polygon fill="white" stroke="black" points="24.5,-144.5 24.5,-165.5 79.5,-165.5 79.5,-144.5 24.5,-144.5"/>
<text text-anchor="middle" x="52" y="-152.5" font-family="Helvetica,sans-Serif" font-size="10.00">QObject</text>
</a>
</g>
<!-- Node3&#45;&gt;Node2 -->
<g id="edge4" class="edge"><title>Node3&#45;&gt;Node2</title>
<path fill="none" stroke="midnightblue" d="M59.4174,-134.901C65.6067,-118.13 74.1833,-94.8903 79.1057,-81.5523"/>
<polygon fill="midnightblue" stroke="midnightblue" points="56.1049,-133.768 55.9262,-144.361 62.672,-136.192 56.1049,-133.768"/>
</g>
<!-- Node4 -->
<g id="node6" class="node"><title>Node4</title>
<polygon fill="white" stroke="#bfbfbf" points="97,-144.5 97,-165.5 133,-165.5 133,-144.5 97,-144.5"/>
<text text-anchor="middle" x="115" y="-152.5" font-family="Helvetica,sans-Serif" font-size="10.00">bool</text>
</g>
<!-- Node4&#45;&gt;Node2 -->
<g id="edge6" class="edge"><title>Node4&#45;&gt;Node2</title>
<path fill="none" stroke="#9a32cd" stroke-dasharray="5,2" d="M107.343,-134.901C100.954,-118.13 92.1011,-94.8903 87.0199,-81.5523"/>
<polygon fill="#9a32cd" stroke="#9a32cd" points="104.116,-136.262 110.947,-144.361 110.658,-133.77 104.116,-136.262"/>
<text text-anchor="middle" x="149" y="-117" font-family="Helvetica,sans-Serif" font-size="10.00"> m_dbg_onDestruct</text>
<text text-anchor="middle" x="149" y="-104" font-family="Helvetica,sans-Serif" font-size="10.00">m_valid</text>
</g>
</g>
</svg>
