<?xml version="1.0" encoding="UTF-8" standalone="no"?>
<!DOCTYPE svg PUBLIC "-//W3C//DTD SVG 1.1//EN"
 "http://www.w3.org/Graphics/SVG/1.1/DTD/svg11.dtd">
<!-- Generated by graphviz version 2.26.3 (20100126.1600)
 -->
<!-- Title: HorizontalDivider Pages: 1 -->
<svg width="471pt" height="246pt"
 viewBox="0.00 0.00 471.00 246.00" xmlns="http://www.w3.org/2000/svg" xmlns:xlink="http://www.w3.org/1999/xlink">
<g id="graph1" class="graph" transform="scale(1 1) rotate(0) translate(4 242)">
<title>HorizontalDivider</title>
<polygon fill="white" stroke="white" points="-4,5 -4,-242 468,-242 468,5 -4,5"/>
<!-- Node1 -->
<g id="node1" class="node"><title>Node1</title>
<polygon fill="#bfbfbf" stroke="black" points="161,-0.5 161,-21.5 259,-21.5 259,-0.5 161,-0.5"/>
<text text-anchor="middle" x="210" y="-8.5" font-family="Helvetica,sans-Serif" font-size="10.00">HorizontalDivider</text>
</g>
<!-- Node2 -->
<g id="node2" class="node"><title>Node2</title>
<a xlink:href="classThingPaintable.htm" target="_top" xlink:title="ThingPaintable">
<polygon fill="white" stroke="black" points="166.5,-60.5 166.5,-81.5 253.5,-81.5 253.5,-60.5 166.5,-60.5"/>
<text text-anchor="middle" x="210" y="-68.5" font-family="Helvetica,sans-Serif" font-size="10.00">ThingPaintable</text>
</a>
</g>
<!-- Node2&#45;&gt;Node1 -->
<g id="edge2" class="edge"><title>Node2&#45;&gt;Node1</title>
<path fill="none" stroke="midnightblue" d="M210,-50.2312C210,-40.5922 210,-29.5444 210,-21.6339"/>
<polygon fill="midnightblue" stroke="midnightblue" points="206.5,-50.2732 210,-60.2732 213.5,-50.2732 206.5,-50.2732"/>
</g>
<!-- Node3 -->
<g id="node4" class="node"><title>Node3</title>
<a xlink:href="classThing.htm" target="_top" xlink:title="Thing">
<polygon fill="white" stroke="black" points="86,-144.5 86,-165.5 130,-165.5 130,-144.5 86,-144.5"/>
<text text-anchor="middle" x="108" y="-152.5" font-family="Helvetica,sans-Serif" font-size="10.00">Thing</text>
</a>
</g>
<!-- Node3&#45;&gt;Node2 -->
<g id="edge4" class="edge"><title>Node3&#45;&gt;Node2</title>
<path fill="none" stroke="midnightblue" d="M125.226,-137.119C136.396,-125.924 151.515,-111.494 166,-100 174.313,-93.4031 184.127,-86.8303 192.374,-81.6142"/>
<polygon fill="midnightblue" stroke="midnightblue" points="122.701,-134.695 118.181,-144.277 127.69,-139.605 122.701,-134.695"/>
</g>
<!-- Node4 -->
<g id="node6" class="node"><title>Node4</title>
<a xlink:href="classQGraphicsObject.htm" target="_top" xlink:title="QGraphicsObject">
<polygon fill="white" stroke="black" points="0,-216.5 0,-237.5 98,-237.5 98,-216.5 0,-216.5"/>
<text text-anchor="middle" x="49" y="-224.5" font-family="Helvetica,sans-Serif" font-size="10.00">QGraphicsObject</text>
</a>
</g>
<!-- Node4&#45;&gt;Node3 -->
<g id="edge6" class="edge"><title>Node4&#45;&gt;Node3</title>
<path fill="none" stroke="midnightblue" d="M64.0908,-208.584C75.2316,-194.989 90.0067,-176.958 99.2586,-165.667"/>
<polygon fill="midnightblue" stroke="midnightblue" points="61.3367,-206.423 57.7057,-216.376 66.7511,-210.86 61.3367,-206.423"/>
</g>
<!-- Node5 -->
<g id="node8" class="node"><title>Node5</title>
<polygon fill="white" stroke="#bfbfbf" points="116,-216.5 116,-237.5 220,-237.5 220,-216.5 116,-216.5"/>
<text text-anchor="middle" x="168" y="-224.5" font-family="Helvetica,sans-Serif" font-size="10.00">QPointer&lt; Thing &gt;</text>
</g>
<!-- Node5&#45;&gt;Node3 -->
<g id="edge8" class="edge"><title>Node5&#45;&gt;Node3</title>
<path fill="none" stroke="#9a32cd" stroke-dasharray="5,2" d="M152.653,-208.584C141.324,-194.989 126.298,-176.958 116.89,-165.667"/>
<polygon fill="#9a32cd" stroke="#9a32cd" points="150.056,-210.935 159.147,-216.376 155.434,-206.453 150.056,-210.935"/>
<text text-anchor="middle" x="189.5" y="-188.5" font-family="Helvetica,sans-Serif" font-size="10.00"> m_qp_takerOwner</text>
</g>
<!-- Node6 -->
<g id="node10" class="node"><title>Node6</title>
<polygon fill="white" stroke="#bfbfbf" points="147.5,-144.5 147.5,-165.5 200.5,-165.5 200.5,-144.5 147.5,-144.5"/>
<text text-anchor="middle" x="174" y="-152.5" font-family="Helvetica,sans-Serif" font-size="10.00">QString</text>
</g>
<!-- Node6&#45;&gt;Node2 -->
<g id="edge10" class="edge"><title>Node6&#45;&gt;Node2</title>
<path fill="none" stroke="#9a32cd" stroke-dasharray="5,2" d="M170.376,-134.123C169.486,-123.422 169.959,-110.475 175,-100 178.559,-92.6049 185.002,-86.4322 191.4,-81.7092"/>
<polygon fill="#9a32cd" stroke="#9a32cd" points="166.932,-134.784 171.663,-144.264 173.876,-133.903 166.932,-134.784"/>
<text text-anchor="middle" x="200" y="-110.5" font-family="Helvetica,sans-Serif" font-size="10.00"> m_uiState</text>
</g>
<!-- Node7 -->
<g id="node12" class="node"><title>Node7</title>
<polygon fill="white" stroke="#bfbfbf" points="220.5,-144.5 220.5,-165.5 273.5,-165.5 273.5,-144.5 220.5,-144.5"/>
<text text-anchor="middle" x="247" y="-152.5" font-family="Helvetica,sans-Serif" font-size="10.00">QRectF</text>
</g>
<!-- Node7&#45;&gt;Node2 -->
<g id="edge12" class="edge"><title>Node7&#45;&gt;Node2</title>
<path fill="none" stroke="#9a32cd" stroke-dasharray="5,2" d="M239.466,-134.817C235.416,-124.329 230.197,-111.363 225,-100 222.171,-93.8142 218.698,-87.0555 215.807,-81.6202"/>
<polygon fill="#9a32cd" stroke="#9a32cd" points="236.257,-136.224 243.082,-144.328 242.8,-133.737 236.257,-136.224"/>
<text text-anchor="middle" x="276" y="-117" font-family="Helvetica,sans-Serif" font-size="10.00"> m_boundingRect</text>
<text text-anchor="middle" x="276" y="-104" font-family="Helvetica,sans-Serif" font-size="10.00">m_geom</text>
</g>
<!-- Node8 -->
<g id="node14" class="node"><title>Node8</title>
<a xlink:href="classint.htm" target="_top" xlink:title="int">
<polygon fill="white" stroke="black" points="337.5,-144.5 337.5,-165.5 366.5,-165.5 366.5,-144.5 337.5,-144.5"/>
<text text-anchor="middle" x="352" y="-152.5" font-family="Helvetica,sans-Serif" font-size="10.00">int</text>
</a>
</g>
<!-- Node8&#45;&gt;Node2 -->
<g id="edge14" class="edge"><title>Node8&#45;&gt;Node2</title>
<path fill="none" stroke="#9a32cd" stroke-dasharray="5,2" d="M345.235,-134.866C340.283,-123.066 332.416,-108.797 321,-100 310.311,-91.7633 279.84,-84.1214 253.523,-78.7523"/>
<polygon fill="#9a32cd" stroke="#9a32cd" points="342.032,-136.292 348.852,-144.4 348.577,-133.809 342.032,-136.292"/>
<text text-anchor="middle" x="401.5" y="-117" font-family="Helvetica,sans-Serif" font-size="10.00"> MagicTypePropertyValue</text>
<text text-anchor="middle" x="401.5" y="-104" font-family="Helvetica,sans-Serif" font-size="10.00">MagicTypePropertyKey</text>
</g>
</g>
</svg>
