<?xml version="1.0" encoding="UTF-8" standalone="no"?>
<!DOCTYPE svg PUBLIC "-//W3C//DTD SVG 1.1//EN"
 "http://www.w3.org/Graphics/SVG/1.1/DTD/svg11.dtd">
<!-- Generated by graphviz version 2.26.3 (20100126.1600)
 -->
<!-- Title: GogglesBlurShaderEffect Pages: 1 -->
<svg width="194pt" height="102pt"
 viewBox="0.00 0.00 194.00 102.00" xmlns="http://www.w3.org/2000/svg" xmlns:xlink="http://www.w3.org/1999/xlink">
<g id="graph1" class="graph" transform="scale(1 1) rotate(0) translate(4 98)">
<title>GogglesBlurShaderEffect</title>
<polygon fill="white" stroke="white" points="-4,5 -4,-98 191,-98 191,5 -4,5"/>
<!-- Node1 -->
<g id="node1" class="node"><title>Node1</title>
<polygon fill="#bfbfbf" stroke="black" points="47,-0.5 47,-21.5 183,-21.5 183,-0.5 47,-0.5"/>
<text text-anchor="middle" x="115" y="-8.5" font-family="Helvetica,sans-Serif" font-size="10.00">GogglesBlurShaderEffect</text>
</g>
<!-- Node2 -->
<g id="node2" class="node"><title>Node2</title>
<a xlink:href="classQGraphicsShaderEffect.htm" target="_top" xlink:title="QGraphicsShaderEffect">
<polygon fill="white" stroke="black" points="-0.5,-72.5 -0.5,-93.5 128.5,-93.5 128.5,-72.5 -0.5,-72.5"/>
<text text-anchor="middle" x="64" y="-80.5" font-family="Helvetica,sans-Serif" font-size="10.00">QGraphicsShaderEffect</text>
</a>
</g>
<!-- Node2&#45;&gt;Node1 -->
<g id="edge2" class="edge"><title>Node2&#45;&gt;Node1</title>
<path fill="none" stroke="midnightblue" d="M77.318,-64.1981C86.9153,-50.649 99.5219,-32.8514 107.444,-21.6674"/>
<polygon fill="midnightblue" stroke="midnightblue" points="74.4493,-62.1928 71.5252,-72.3762 80.1615,-66.239 74.4493,-62.1928"/>
</g>
<!-- Node3 -->
<g id="node4" class="node"><title>Node3</title>
<polygon fill="white" stroke="#bfbfbf" points="145.5,-72.5 145.5,-93.5 186.5,-93.5 186.5,-72.5 145.5,-72.5"/>
<text text-anchor="middle" x="166" y="-80.5" font-family="Helvetica,sans-Serif" font-size="10.00">qreal</text>
</g>
<!-- Node3&#45;&gt;Node1 -->
<g id="edge4" class="edge"><title>Node3&#45;&gt;Node1</title>
<path fill="none" stroke="#9a32cd" stroke-dasharray="5,2" d="M152.682,-64.1981C143.085,-50.649 130.478,-32.8514 122.556,-21.6674"/>
<polygon fill="#9a32cd" stroke="#9a32cd" points="149.838,-66.239 158.475,-72.3762 155.551,-62.1928 149.838,-66.239"/>
<text text-anchor="middle" x="164" y="-44.5" font-family="Helvetica,sans-Serif" font-size="10.00"> blurAmt</text>
</g>
</g>
</svg>
