<?xml version="1.0" encoding="UTF-8" standalone="no"?>
<!DOCTYPE svg PUBLIC "-//W3C//DTD SVG 1.1//EN"
 "http://www.w3.org/Graphics/SVG/1.1/DTD/svg11.dtd">
<!-- Generated by graphviz version 2.26.3 (20100126.1600)
 -->
<!-- Title: QObject Pages: 1 -->
<svg width="264pt" height="1982pt"
 viewBox="0.00 0.00 264.00 1982.00" xmlns="http://www.w3.org/2000/svg" xmlns:xlink="http://www.w3.org/1999/xlink">
<g id="graph1" class="graph" transform="scale(1 1) rotate(0) translate(4 1978)">
<title>QObject</title>
<polygon fill="white" stroke="white" points="-4,5 -4,-1978 261,-1978 261,5 -4,5"/>
<!-- Node1 -->
<g id="node1" class="node"><title>Node1</title>
<polygon fill="#bfbfbf" stroke="black" points="0.5,-940.5 0.5,-961.5 55.5,-961.5 55.5,-940.5 0.5,-940.5"/>
<text text-anchor="middle" x="28" y="-948.5" font-family="Helvetica,sans-Serif" font-size="10.00">QObject</text>
</g>
<!-- Node2 -->
<g id="node3" class="node"><title>Node2</title>
<a xlink:href="classAppDirectRenderingArbitrator.htm" target="_top" xlink:title="AppDirectRenderingArbitrator">
<polygon fill="white" stroke="black" points="96,-1952.5 96,-1973.5 252,-1973.5 252,-1952.5 96,-1952.5"/>
<text text-anchor="middle" x="174" y="-1960.5" font-family="Helvetica,sans-Serif" font-size="10.00">AppDirectRenderingArbitrator</text>
</a>
</g>
<!-- Node1&#45;&gt;Node2 -->
<g id="edge2" class="edge"><title>Node1&#45;&gt;Node2</title>
<path fill="none" stroke="midnightblue" d="M28.6496,-971.859C33.0792,-1111.35 59.6355,-1904.42 92,-1943 95.1078,-1946.7 98.7769,-1949.79 102.811,-1952.34"/>
<polygon fill="midnightblue" stroke="midnightblue" points="32.142,-971.561 28.3288,-961.676 25.1455,-971.781 32.142,-971.561"/>
</g>
<!-- Node3 -->
<g id="node5" class="node"><title>Node3</title>
<a xlink:href="classApplicationInstaller.htm" target="_top" xlink:title="ApplicationInstaller">
<polygon fill="white" stroke="black" points="121,-1912.5 121,-1933.5 227,-1933.5 227,-1912.5 121,-1912.5"/>
<text text-anchor="middle" x="174" y="-1920.5" font-family="Helvetica,sans-Serif" font-size="10.00">ApplicationInstaller</text>
</a>
</g>
<!-- Node1&#45;&gt;Node3 -->
<g id="edge4" class="edge"><title>Node1&#45;&gt;Node3</title>
<path fill="none" stroke="midnightblue" d="M28.7073,-971.848C33.4123,-1108 60.9487,-1866.09 92,-1903 99.3575,-1911.75 109.844,-1917.02 120.87,-1920.12"/>
<polygon fill="midnightblue" stroke="midnightblue" points="32.1953,-971.436 28.3546,-961.561 25.1994,-971.676 32.1953,-971.436"/>
</g>
<!-- Node4 -->
<g id="node7" class="node"><title>Node4</title>
<a xlink:href="classApplicationManager.htm" target="_top" xlink:title="ApplicationManager">
<polygon fill="white" stroke="black" points="118.5,-1872.5 118.5,-1893.5 229.5,-1893.5 229.5,-1872.5 118.5,-1872.5"/>
<text text-anchor="middle" x="174" y="-1880.5" font-family="Helvetica,sans-Serif" font-size="10.00">ApplicationManager</text>
</a>
</g>
<!-- Node1&#45;&gt;Node4 -->
<g id="edge6" class="edge"><title>Node1&#45;&gt;Node4</title>
<path fill="none" stroke="midnightblue" d="M28.7686,-971.797C33.7559,-1104.44 62.2576,-1827.75 92,-1863 98.8034,-1871.06 108.266,-1876.17 118.354,-1879.35"/>
<polygon fill="midnightblue" stroke="midnightblue" points="32.2637,-971.598 28.393,-961.736 25.2686,-971.86 32.2637,-971.598"/>
</g>
<!-- Node5 -->
<g id="node9" class="node"><title>Node5</title>
<a xlink:href="classBannerMessage.htm" target="_top" xlink:title="BannerMessage">
<polygon fill="white" stroke="black" points="126.5,-1832.5 126.5,-1853.5 221.5,-1853.5 221.5,-1832.5 126.5,-1832.5"/>
<text text-anchor="middle" x="174" y="-1840.5" font-family="Helvetica,sans-Serif" font-size="10.00">BannerMessage</text>
</a>
</g>
<!-- Node1&#45;&gt;Node5 -->
<g id="edge8" class="edge"><title>Node1&#45;&gt;Node5</title>
<path fill="none" stroke="midnightblue" d="M28.0888,-971.949C28.8123,-1098.34 35.2962,-1756.01 92,-1823 100.615,-1833.18 113.467,-1838.65 126.454,-1841.47"/>
<polygon fill="midnightblue" stroke="midnightblue" points="31.5876,-971.681 28.0366,-961.699 24.5877,-971.717 31.5876,-971.681"/>
</g>
<!-- Node6 -->
<g id="node11" class="node"><title>Node6</title>
<a xlink:href="classBannerMessageHandler.htm" target="_top" xlink:title="BannerMessageHandler">
<polygon fill="white" stroke="black" points="108,-1792.5 108,-1813.5 240,-1813.5 240,-1792.5 108,-1792.5"/>
<text text-anchor="middle" x="174" y="-1800.5" font-family="Helvetica,sans-Serif" font-size="10.00">BannerMessageHandler</text>
</a>
</g>
<!-- Node1&#45;&gt;Node6 -->
<g id="edge10" class="edge"><title>Node1&#45;&gt;Node6</title>
<path fill="none" stroke="midnightblue" d="M28.1688,-972.126C29.3433,-1095.48 37.9391,-1719.36 92,-1783 96.3639,-1788.14 101.807,-1792.07 107.801,-1795.08"/>
<polygon fill="midnightblue" stroke="midnightblue" points="31.6658,-971.756 28.0771,-961.787 24.666,-971.818 31.6658,-971.756"/>
</g>
<!-- Node7 -->
<g id="node13" class="node"><title>Node7</title>
<a xlink:href="classBootupAnimation.htm" target="_top" xlink:title="BootupAnimation">
<polygon fill="white" stroke="black" points="126,-1752.5 126,-1773.5 222,-1773.5 222,-1752.5 126,-1752.5"/>
<text text-anchor="middle" x="174" y="-1760.5" font-family="Helvetica,sans-Serif" font-size="10.00">BootupAnimation</text>
</a>
</g>
<!-- Node1&#45;&gt;Node7 -->
<g id="edge12" class="edge"><title>Node1&#45;&gt;Node7</title>
<path fill="none" stroke="midnightblue" d="M28.2518,-971.844C29.8771,-1090.99 40.5117,-1682.62 92,-1743 100.462,-1752.92 112.952,-1758.36 125.645,-1761.24"/>
<polygon fill="midnightblue" stroke="midnightblue" points="31.7478,-971.504 28.1182,-961.55 24.7484,-971.595 31.7478,-971.504"/>
</g>
<!-- Node8 -->
<g id="node15" class="node"><title>Node8</title>
<a xlink:href="classCardGroup.htm" target="_top" xlink:title="CardGroup">
<polygon fill="white" stroke="black" points="139.5,-1712.5 139.5,-1733.5 208.5,-1733.5 208.5,-1712.5 139.5,-1712.5"/>
<text text-anchor="middle" x="174" y="-1720.5" font-family="Helvetica,sans-Serif" font-size="10.00">CardGroup</text>
</a>
</g>
<!-- Node1&#45;&gt;Node8 -->
<g id="edge14" class="edge"><title>Node1&#45;&gt;Node8</title>
<path fill="none" stroke="midnightblue" d="M28.3469,-971.863C30.454,-1087.43 43.125,-1645.93 92,-1703 103.534,-1716.47 122.484,-1721.67 139.262,-1723.42"/>
<polygon fill="midnightblue" stroke="midnightblue" points="31.8411,-971.498 28.1661,-961.561 24.8422,-971.621 31.8411,-971.498"/>
</g>
<!-- Node9 -->
<g id="node17" class="node"><title>Node9</title>
<a xlink:href="classCardLoading.htm" target="_top" xlink:title="CardLoading">
<polygon fill="white" stroke="black" points="135,-1672.5 135,-1693.5 213,-1693.5 213,-1672.5 135,-1672.5"/>
<text text-anchor="middle" x="174" y="-1680.5" font-family="Helvetica,sans-Serif" font-size="10.00">CardLoading</text>
</a>
</g>
<!-- Node1&#45;&gt;Node9 -->
<g id="edge16" class="edge"><title>Node1&#45;&gt;Node9</title>
<path fill="none" stroke="midnightblue" d="M28.4505,-971.791C31.0555,-1083.48 45.7221,-1609.22 92,-1663 102.514,-1675.22 119.132,-1680.63 134.668,-1682.83"/>
<polygon fill="midnightblue" stroke="midnightblue" points="31.9437,-971.446 28.2184,-961.528 24.9455,-971.604 31.9437,-971.446"/>
</g>
<!-- Node10 -->
<g id="node19" class="node"><title>Node10</title>
<a xlink:href="classCoreNaviManager.htm" target="_top" xlink:title="CoreNaviManager">
<polygon fill="white" stroke="black" points="122,-1632.5 122,-1653.5 226,-1653.5 226,-1632.5 122,-1632.5"/>
<text text-anchor="middle" x="174" y="-1640.5" font-family="Helvetica,sans-Serif" font-size="10.00">CoreNaviManager</text>
</a>
</g>
<!-- Node1&#45;&gt;Node10 -->
<g id="edge18" class="edge"><title>Node1&#45;&gt;Node10</title>
<path fill="none" stroke="midnightblue" d="M28.573,-971.967C31.7166,-1080.19 48.349,-1572.55 92,-1623 99.6702,-1631.87 110.554,-1637.14 121.895,-1640.21"/>
<polygon fill="midnightblue" stroke="midnightblue" points="32.0642,-971.603 28.2824,-961.706 25.067,-971.801 32.0642,-971.603"/>
</g>
<!-- Node11 -->
<g id="node21" class="node"><title>Node11</title>
<a xlink:href="classDimensionsSystemInterface_1_1AppEffector.htm" target="_top" xlink:title="DimensionsSystemInterface\l::AppEffector">
<polygon fill="white" stroke="black" points="100,-1580 100,-1614 248,-1614 248,-1580 100,-1580"/>
<text text-anchor="start" x="108" y="-1601" font-family="Helvetica,sans-Serif" font-size="10.00">DimensionsSystemInterface</text>
<text text-anchor="middle" x="174" y="-1588" font-family="Helvetica,sans-Serif" font-size="10.00">::AppEffector</text>
</a>
</g>
<!-- Node1&#45;&gt;Node11 -->
<g id="edge20" class="edge"><title>Node1&#45;&gt;Node11</title>
<path fill="none" stroke="midnightblue" d="M28.8121,-971.897C32.9826,-1074.67 53.3123,-1523.48 92,-1571 94.7344,-1574.36 97.9016,-1577.29 101.368,-1579.85"/>
<polygon fill="midnightblue" stroke="midnightblue" points="32.3067,-971.689 28.4111,-961.836 25.3122,-971.968 32.3067,-971.689"/>
</g>
<!-- Node12 -->
<g id="node23" class="node"><title>Node12</title>
<a xlink:href="classDimensionsSystemInterface_1_1AppMonitor.htm" target="_top" xlink:title="DimensionsSystemInterface\l::AppMonitor">
<polygon fill="white" stroke="black" points="100,-1528 100,-1562 248,-1562 248,-1528 100,-1528"/>
<text text-anchor="start" x="108" y="-1549" font-family="Helvetica,sans-Serif" font-size="10.00">DimensionsSystemInterface</text>
<text text-anchor="middle" x="174" y="-1536" font-family="Helvetica,sans-Serif" font-size="10.00">::AppMonitor</text>
</a>
</g>
<!-- Node1&#45;&gt;Node12 -->
<g id="edge22" class="edge"><title>Node1&#45;&gt;Node12</title>
<path fill="none" stroke="midnightblue" d="M29.0231,-971.958C33.9598,-1069.47 56.542,-1475.86 92,-1519 94.7501,-1522.35 97.9294,-1525.27 101.405,-1527.82"/>
<polygon fill="midnightblue" stroke="midnightblue" points="32.5138,-971.683 28.52,-961.87 25.5225,-972.032 32.5138,-971.683"/>
</g>
<!-- Node13 -->
<g id="node25" class="node"><title>Node13</title>
<a xlink:href="classDimensionsSystemInterface_1_1ExternalApp.htm" target="_top" xlink:title="DimensionsSystemInterface\l::ExternalApp">
<polygon fill="white" stroke="red" points="100,-1476 100,-1510 248,-1510 248,-1476 100,-1476"/>
<text text-anchor="start" x="108" y="-1497" font-family="Helvetica,sans-Serif" font-size="10.00">DimensionsSystemInterface</text>
<text text-anchor="middle" x="174" y="-1484" font-family="Helvetica,sans-Serif" font-size="10.00">::ExternalApp</text>
</a>
</g>
<!-- Node1&#45;&gt;Node13 -->
<g id="edge24" class="edge"><title>Node1&#45;&gt;Node13</title>
<path fill="none" stroke="midnightblue" d="M29.2603,-971.752C34.9936,-1063.29 59.7306,-1428.19 92,-1467 94.7688,-1470.33 97.9626,-1473.24 101.449,-1475.78"/>
<polygon fill="midnightblue" stroke="midnightblue" points="32.7535,-971.533 28.643,-961.768 25.7669,-971.965 32.7535,-971.533"/>
</g>
<!-- Node14 -->
<g id="node27" class="node"><title>Node14</title>
<a xlink:href="classDimensionsSystemInterface_1_1PageRestore.htm" target="_top" xlink:title="DimensionsSystemInterface\l::PageRestore">
<polygon fill="white" stroke="black" points="100,-1424 100,-1458 248,-1458 248,-1424 100,-1424"/>
<text text-anchor="start" x="108" y="-1445" font-family="Helvetica,sans-Serif" font-size="10.00">DimensionsSystemInterface</text>
<text text-anchor="middle" x="174" y="-1432" font-family="Helvetica,sans-Serif" font-size="10.00">::PageRestore</text>
</a>
</g>
<!-- Node1&#45;&gt;Node14 -->
<g id="edge26" class="edge"><title>Node1&#45;&gt;Node14</title>
<path fill="none" stroke="midnightblue" d="M29.5448,-971.518C36.1369,-1056.81 62.9072,-1380.49 92,-1415 94.8877,-1418.43 98.2248,-1421.41 101.866,-1424"/>
<polygon fill="midnightblue" stroke="midnightblue" points="33.0326,-971.223 28.7805,-961.519 26.0529,-971.757 33.0326,-971.223"/>
</g>
<!-- Node15 -->
<g id="node29" class="node"><title>Node15</title>
<a xlink:href="classDimensionsSystemInterface_1_1PageSaver.htm" target="_top" xlink:title="DimensionsSystemInterface\l::PageSaver">
<polygon fill="white" stroke="black" points="100,-1372 100,-1406 248,-1406 248,-1372 100,-1372"/>
<text text-anchor="start" x="108" y="-1393" font-family="Helvetica,sans-Serif" font-size="10.00">DimensionsSystemInterface</text>
<text text-anchor="middle" x="174" y="-1380" font-family="Helvetica,sans-Serif" font-size="10.00">::PageSaver</text>
</a>
</g>
<!-- Node1&#45;&gt;Node15 -->
<g id="edge28" class="edge"><title>Node1&#45;&gt;Node15</title>
<path fill="none" stroke="midnightblue" d="M28.4213,-971.767C30.3578,-1046.88 40.677,-1303.16 92,-1363 94.9168,-1366.4 98.2761,-1369.36 101.934,-1371.94"/>
<polygon fill="midnightblue" stroke="midnightblue" points="31.9184,-971.598 28.185,-961.683 24.9203,-971.762 31.9184,-971.598"/>
</g>
<!-- Node16 -->
<g id="node31" class="node"><title>Node16</title>
<a xlink:href="classDimensionsSystemInterface_1_1SafeFileOperator.htm" target="_top" xlink:title="DimensionsSystemInterface\l::SafeFileOperator">
<polygon fill="white" stroke="black" points="100,-1320 100,-1354 248,-1354 248,-1320 100,-1320"/>
<text text-anchor="start" x="108" y="-1341" font-family="Helvetica,sans-Serif" font-size="10.00">DimensionsSystemInterface</text>
<text text-anchor="middle" x="174" y="-1328" font-family="Helvetica,sans-Serif" font-size="10.00">::SafeFileOperator</text>
</a>
</g>
<!-- Node1&#45;&gt;Node16 -->
<g id="edge30" class="edge"><title>Node1&#45;&gt;Node16</title>
<path fill="none" stroke="midnightblue" d="M28.9356,-971.768C32.4439,-1040.58 47.0048,-1259.68 92,-1311 94.9538,-1314.37 98.3413,-1317.31 102.021,-1319.86"/>
<polygon fill="midnightblue" stroke="midnightblue" points="32.4291,-971.546 28.4491,-961.727 25.4373,-971.885 32.4291,-971.546"/>
</g>
<!-- Node17 -->
<g id="node33" class="node"><title>Node17</title>
<a xlink:href="classDimensionsUITest_1_1IconFactory.htm" target="_top" xlink:title="DimensionsUITest::IconFactory">
<polygon fill="white" stroke="black" points="92.5,-1280.5 92.5,-1301.5 255.5,-1301.5 255.5,-1280.5 92.5,-1280.5"/>
<text text-anchor="middle" x="174" y="-1288.5" font-family="Helvetica,sans-Serif" font-size="10.00">DimensionsUITest::IconFactory</text>
</a>
</g>
<!-- Node1&#45;&gt;Node17 -->
<g id="edge32" class="edge"><title>Node1&#45;&gt;Node17</title>
<path fill="none" stroke="midnightblue" d="M29.2924,-971.61C33.7067,-1035.33 50.2895,-1227.51 92,-1271 95.5499,-1274.7 99.6619,-1277.76 104.116,-1280.3"/>
<polygon fill="midnightblue" stroke="midnightblue" points="32.7814,-971.327 28.6261,-961.581 25.7968,-971.791 32.7814,-971.327"/>
</g>
<!-- Node18 -->
<g id="node35" class="node"><title>Node18</title>
<a xlink:href="classDisplayManager.htm" target="_top" xlink:title="DisplayManager">
<polygon fill="white" stroke="black" points="127,-1240.5 127,-1261.5 221,-1261.5 221,-1240.5 127,-1240.5"/>
<text text-anchor="middle" x="174" y="-1248.5" font-family="Helvetica,sans-Serif" font-size="10.00">DisplayManager</text>
</a>
</g>
<!-- Node1&#45;&gt;Node18 -->
<g id="edge34" class="edge"><title>Node1&#45;&gt;Node18</title>
<path fill="none" stroke="midnightblue" d="M29.9755,-972.043C35.9001,-1030.65 55.4111,-1193.88 92,-1231 101.257,-1240.39 114.141,-1245.65 126.956,-1248.53"/>
<polygon fill="midnightblue" stroke="midnightblue" points="33.429,-971.396 28.9707,-961.785 26.4623,-972.078 33.429,-971.396"/>
</g>
<!-- Node19 -->
<g id="node37" class="node"><title>Node19</title>
<a xlink:href="classDockModeLaunchPoint.htm" target="_top" xlink:title="DockModeLaunchPoint">
<polygon fill="white" stroke="black" points="111,-1200.5 111,-1221.5 237,-1221.5 237,-1200.5 111,-1200.5"/>
<text text-anchor="middle" x="174" y="-1208.5" font-family="Helvetica,sans-Serif" font-size="10.00">DockModeLaunchPoint</text>
</a>
</g>
<!-- Node1&#45;&gt;Node19 -->
<g id="edge36" class="edge"><title>Node1&#45;&gt;Node19</title>
<path fill="none" stroke="midnightblue" d="M30.8004,-971.771C38.2829,-1024.22 60.3474,-1160.02 92,-1191 97.3406,-1196.23 103.808,-1200.17 110.74,-1203.12"/>
<polygon fill="midnightblue" stroke="midnightblue" points="34.2365,-971.069 29.3908,-961.647 27.3033,-972.034 34.2365,-971.069"/>
</g>
<!-- Node20 -->
<g id="node39" class="node"><title>Node20</title>
<a xlink:href="classEASPolicyManager.htm" target="_top" xlink:title="EASPolicyManager">
<polygon fill="white" stroke="black" points="120.5,-1160.5 120.5,-1181.5 227.5,-1181.5 227.5,-1160.5 120.5,-1160.5"/>
<text text-anchor="middle" x="174" y="-1168.5" font-family="Helvetica,sans-Serif" font-size="10.00">EASPolicyManager</text>
</a>
</g>
<!-- Node1&#45;&gt;Node20 -->
<g id="edge38" class="edge"><title>Node1&#45;&gt;Node20</title>
<path fill="none" stroke="midnightblue" d="M31.9539,-971.631C41.1557,-1017.55 65.2663,-1126.09 92,-1151 99.8257,-1158.29 109.856,-1163.05 120.197,-1166.13"/>
<polygon fill="midnightblue" stroke="midnightblue" points="35.3517,-970.77 29.9887,-961.633 28.4831,-972.121 35.3517,-970.77"/>
</g>
<!-- Node21 -->
<g id="node41" class="node"><title>Node21</title>
<a xlink:href="classGroupAnchorItem.htm" target="_top" xlink:title="GroupAnchorItem">
<polygon fill="white" stroke="black" points="124,-1120.5 124,-1141.5 224,-1141.5 224,-1120.5 124,-1120.5"/>
<text text-anchor="middle" x="174" y="-1128.5" font-family="Helvetica,sans-Serif" font-size="10.00">GroupAnchorItem</text>
</a>
</g>
<!-- Node1&#45;&gt;Node21 -->
<g id="edge40" class="edge"><title>Node1&#45;&gt;Node21</title>
<path fill="none" stroke="midnightblue" d="M30.3136,-972.178C35.2349,-1006.61 49.9781,-1074.53 92,-1111 100.964,-1118.78 112.465,-1123.64 124,-1126.65"/>
<polygon fill="midnightblue" stroke="midnightblue" points="33.7368,-971.355 28.9959,-961.88 26.7934,-972.244 33.7368,-971.355"/>
</g>
<!-- Node22 -->
<g id="node43" class="node"><title>Node22</title>
<a xlink:href="classIconHeap.htm" target="_top" xlink:title="IconHeap">
<polygon fill="white" stroke="black" points="143,-1080.5 143,-1101.5 205,-1101.5 205,-1080.5 143,-1080.5"/>
<text text-anchor="middle" x="174" y="-1088.5" font-family="Helvetica,sans-Serif" font-size="10.00">IconHeap</text>
</a>
</g>
<!-- Node1&#45;&gt;Node22 -->
<g id="edge42" class="edge"><title>Node1&#45;&gt;Node22</title>
<path fill="none" stroke="midnightblue" d="M33.2562,-971.468C41.2773,-998.474 59.2131,-1045.55 92,-1071 106.47,-1082.23 126.359,-1087.26 142.926,-1089.47"/>
<polygon fill="midnightblue" stroke="midnightblue" points="36.5501,-970.25 30.4925,-961.558 29.8074,-972.131 36.5501,-970.25"/>
</g>
<!-- Node23 -->
<g id="node45" class="node"><title>Node23</title>
<a xlink:href="classIMEController.htm" target="_top" xlink:title="IMEController">
<polygon fill="white" stroke="black" points="133,-1040.5 133,-1061.5 215,-1061.5 215,-1040.5 133,-1040.5"/>
<text text-anchor="middle" x="174" y="-1048.5" font-family="Helvetica,sans-Serif" font-size="10.00">IMEController</text>
</a>
</g>
<!-- Node1&#45;&gt;Node23 -->
<g id="edge44" class="edge"><title>Node1&#45;&gt;Node23</title>
<path fill="none" stroke="midnightblue" d="M38.4577,-970.416C49.3863,-988.825 68.2461,-1015.85 92,-1031 104.108,-1038.72 118.963,-1043.46 132.687,-1046.37"/>
<polygon fill="midnightblue" stroke="midnightblue" points="41.4736,-968.639 33.4817,-961.684 35.3917,-972.105 41.4736,-968.639"/>
</g>
<!-- Node24 -->
<g id="node47" class="node"><title>Node24</title>
<a xlink:href="classIpcClientHost.htm" target="_top" xlink:title="IpcClientHost">
<polygon fill="white" stroke="red" points="134,-1000.5 134,-1021.5 214,-1021.5 214,-1000.5 134,-1000.5"/>
<text text-anchor="middle" x="174" y="-1008.5" font-family="Helvetica,sans-Serif" font-size="10.00">IpcClientHost</text>
</a>
</g>
<!-- Node1&#45;&gt;Node24 -->
<g id="edge46" class="edge"><title>Node1&#45;&gt;Node24</title>
<path fill="none" stroke="midnightblue" d="M50.3973,-967.476C62.2625,-975.55 77.3754,-984.836 92,-991 105.233,-996.578 120.351,-1000.82 133.972,-1003.92"/>
<polygon fill="midnightblue" stroke="midnightblue" points="52.2182,-964.479 42.0189,-961.611 48.2036,-970.213 52.2182,-964.479"/>
</g>
<!-- Node25 -->
<g id="node49" class="node"><title>Node25</title>
<a xlink:href="classKineticScroller.htm" target="_top" xlink:title="KineticScroller">
<polygon fill="white" stroke="black" points="132,-960.5 132,-981.5 216,-981.5 216,-960.5 132,-960.5"/>
<text text-anchor="middle" x="174" y="-968.5" font-family="Helvetica,sans-Serif" font-size="10.00">KineticScroller</text>
</a>
</g>
<!-- Node1&#45;&gt;Node25 -->
<g id="edge48" class="edge"><title>Node1&#45;&gt;Node25</title>
<path fill="none" stroke="midnightblue" d="M65.9081,-956.193C86.1399,-958.964 111.091,-962.382 131.921,-965.236"/>
<polygon fill="midnightblue" stroke="midnightblue" points="66.1877,-952.699 55.8051,-954.809 65.2376,-959.634 66.1877,-952.699"/>
</g>
<!-- Node26 -->
<g id="node51" class="node"><title>Node26</title>
<a xlink:href="classLauncherFeedbackWindow.htm" target="_top" xlink:title="LauncherFeedbackWindow">
<polygon fill="white" stroke="black" points="102,-920.5 102,-941.5 246,-941.5 246,-920.5 102,-920.5"/>
<text text-anchor="middle" x="174" y="-928.5" font-family="Helvetica,sans-Serif" font-size="10.00">LauncherFeedbackWindow</text>
</a>
</g>
<!-- Node1&#45;&gt;Node26 -->
<g id="edge50" class="edge"><title>Node1&#45;&gt;Node26</title>
<path fill="none" stroke="midnightblue" d="M65.951,-945.801C77.0343,-944.283 89.5309,-942.571 101.989,-940.865"/>
<polygon fill="midnightblue" stroke="midnightblue" points="65.2376,-942.366 55.8051,-947.191 66.1877,-949.301 65.2376,-942.366"/>
</g>
<!-- Node27 -->
<g id="node53" class="node"><title>Node27</title>
<a xlink:href="classLayoutItem.htm" target="_top" xlink:title="LayoutItem">
<polygon fill="white" stroke="red" points="140,-880.5 140,-901.5 208,-901.5 208,-880.5 140,-880.5"/>
<text text-anchor="middle" x="174" y="-888.5" font-family="Helvetica,sans-Serif" font-size="10.00">LayoutItem</text>
</a>
</g>
<!-- Node1&#45;&gt;Node27 -->
<g id="edge52" class="edge"><title>Node1&#45;&gt;Node27</title>
<path fill="none" stroke="midnightblue" d="M50.3973,-934.524C62.2625,-926.45 77.3754,-917.164 92,-911 107.123,-904.625 124.709,-900 139.708,-896.814"/>
<polygon fill="midnightblue" stroke="midnightblue" points="48.2036,-931.787 42.0189,-940.389 52.2182,-937.521 48.2036,-931.787"/>
</g>
<!-- Node28 -->
<g id="node55" class="node"><title>Node28</title>
<a xlink:href="classLinearMotionTransform.htm" target="_top" xlink:title="LinearMotionTransform">
<polygon fill="white" stroke="red" points="110,-840.5 110,-861.5 238,-861.5 238,-840.5 110,-840.5"/>
<text text-anchor="middle" x="174" y="-848.5" font-family="Helvetica,sans-Serif" font-size="10.00">LinearMotionTransform</text>
</a>
</g>
<!-- Node1&#45;&gt;Node28 -->
<g id="edge54" class="edge"><title>Node1&#45;&gt;Node28</title>
<path fill="none" stroke="midnightblue" d="M38.4577,-931.584C49.3863,-913.175 68.2461,-886.147 92,-871 98.0541,-867.14 104.795,-864.024 111.737,-861.51"/>
<polygon fill="midnightblue" stroke="midnightblue" points="35.3917,-929.895 33.4817,-940.316 41.4736,-933.361 35.3917,-929.895"/>
</g>
<!-- Node29 -->
<g id="node57" class="node"><title>Node29</title>
<a xlink:href="classMemoryMonitor.htm" target="_top" xlink:title="MemoryMonitor">
<polygon fill="white" stroke="black" points="128.5,-800.5 128.5,-821.5 219.5,-821.5 219.5,-800.5 128.5,-800.5"/>
<text text-anchor="middle" x="174" y="-808.5" font-family="Helvetica,sans-Serif" font-size="10.00">MemoryMonitor</text>
</a>
</g>
<!-- Node1&#45;&gt;Node29 -->
<g id="edge56" class="edge"><title>Node1&#45;&gt;Node29</title>
<path fill="none" stroke="midnightblue" d="M33.2562,-930.532C41.2773,-903.526 59.2131,-856.448 92,-831 102.418,-822.914 115.646,-818.041 128.42,-815.122"/>
<polygon fill="midnightblue" stroke="midnightblue" points="29.8074,-929.869 30.4925,-940.442 36.5501,-931.75 29.8074,-929.869"/>
</g>
<!-- Node30 -->
<g id="node59" class="node"><title>Node30</title>
<a xlink:href="classMenuHandler.htm" target="_top" xlink:title="MenuHandler">
<polygon fill="white" stroke="black" points="134,-760.5 134,-781.5 214,-781.5 214,-760.5 134,-760.5"/>
<text text-anchor="middle" x="174" y="-768.5" font-family="Helvetica,sans-Serif" font-size="10.00">MenuHandler</text>
</a>
</g>
<!-- Node1&#45;&gt;Node30 -->
<g id="edge58" class="edge"><title>Node1&#45;&gt;Node30</title>
<path fill="none" stroke="midnightblue" d="M30.3136,-929.822C35.2349,-895.392 49.9781,-827.468 92,-791 103.51,-781.011 119.201,-775.838 133.777,-773.215"/>
<polygon fill="midnightblue" stroke="midnightblue" points="26.7934,-929.756 28.9959,-940.12 33.7368,-930.645 26.7934,-929.756"/>
</g>
<!-- Node31 -->
<g id="node61" class="node"><title>Node31</title>
<a xlink:href="classMetaKeyManager.htm" target="_top" xlink:title="MetaKeyManager">
<polygon fill="white" stroke="black" points="123.5,-720.5 123.5,-741.5 224.5,-741.5 224.5,-720.5 123.5,-720.5"/>
<text text-anchor="middle" x="174" y="-728.5" font-family="Helvetica,sans-Serif" font-size="10.00">MetaKeyManager</text>
</a>
</g>
<!-- Node1&#45;&gt;Node31 -->
<g id="edge60" class="edge"><title>Node1&#45;&gt;Node31</title>
<path fill="none" stroke="midnightblue" d="M31.9539,-930.369C41.1557,-884.453 65.2663,-775.913 92,-751 100.576,-743.008 111.8,-738.058 123.179,-735.029"/>
<polygon fill="midnightblue" stroke="midnightblue" points="28.4831,-929.879 29.9887,-940.367 35.3517,-931.23 28.4831,-929.879"/>
</g>
<!-- Node32 -->
<g id="node63" class="node"><title>Node32</title>
<a xlink:href="classMouseEventEater.htm" target="_top" xlink:title="MouseEventEater">
<polygon fill="white" stroke="black" points="123.5,-680.5 123.5,-701.5 224.5,-701.5 224.5,-680.5 123.5,-680.5"/>
<text text-anchor="middle" x="174" y="-688.5" font-family="Helvetica,sans-Serif" font-size="10.00">MouseEventEater</text>
</a>
</g>
<!-- Node1&#45;&gt;Node32 -->
<g id="edge62" class="edge"><title>Node1&#45;&gt;Node32</title>
<path fill="none" stroke="midnightblue" d="M30.8004,-930.229C38.2829,-877.783 60.3474,-741.983 92,-711 100.482,-702.697 111.806,-697.646 123.324,-694.621"/>
<polygon fill="midnightblue" stroke="midnightblue" points="27.3033,-929.966 29.3908,-940.353 34.2365,-930.931 27.3033,-929.966"/>
</g>
<!-- Node33 -->
<g id="node65" class="node"><title>Node33</title>
<a xlink:href="classPixmapObject.htm" target="_top" xlink:title="PixmapObject">
<polygon fill="white" stroke="red" points="133.5,-640.5 133.5,-661.5 214.5,-661.5 214.5,-640.5 133.5,-640.5"/>
<text text-anchor="middle" x="174" y="-648.5" font-family="Helvetica,sans-Serif" font-size="10.00">PixmapObject</text>
</a>
</g>
<!-- Node1&#45;&gt;Node33 -->
<g id="edge64" class="edge"><title>Node1&#45;&gt;Node33</title>
<path fill="none" stroke="midnightblue" d="M29.9755,-929.957C35.9001,-871.35 55.4111,-708.124 92,-671 102.8,-660.042 118.536,-654.708 133.341,-652.229"/>
<polygon fill="midnightblue" stroke="midnightblue" points="26.4623,-929.922 28.9707,-940.215 33.429,-930.604 26.4623,-929.922"/>
</g>
<!-- Node34 -->
<g id="node67" class="node"><title>Node34</title>
<a xlink:href="classPixmapObjectLoader.htm" target="_top" xlink:title="PixmapObjectLoader">
<polygon fill="white" stroke="black" points="116.5,-600.5 116.5,-621.5 231.5,-621.5 231.5,-600.5 116.5,-600.5"/>
<text text-anchor="middle" x="174" y="-608.5" font-family="Helvetica,sans-Serif" font-size="10.00">PixmapObjectLoader</text>
</a>
</g>
<!-- Node1&#45;&gt;Node34 -->
<g id="edge66" class="edge"><title>Node1&#45;&gt;Node34</title>
<path fill="none" stroke="midnightblue" d="M29.2924,-930.39C33.7067,-866.665 50.2895,-674.493 92,-631 98.5927,-624.126 107.124,-619.453 116.184,-616.307"/>
<polygon fill="midnightblue" stroke="midnightblue" points="25.7968,-930.209 28.6261,-940.419 32.7814,-930.673 25.7968,-930.209"/>
</g>
<!-- Node35 -->
<g id="node69" class="node"><title>Node35</title>
<a xlink:href="classPixPager.htm" target="_top" xlink:title="PixPager">
<polygon fill="white" stroke="black" points="144.5,-560.5 144.5,-581.5 203.5,-581.5 203.5,-560.5 144.5,-560.5"/>
<text text-anchor="middle" x="174" y="-568.5" font-family="Helvetica,sans-Serif" font-size="10.00">PixPager</text>
</a>
</g>
<!-- Node1&#45;&gt;Node35 -->
<g id="edge68" class="edge"><title>Node1&#45;&gt;Node35</title>
<path fill="none" stroke="midnightblue" d="M28.8039,-930.113C31.8953,-860.919 45.2909,-640.763 92,-591 105.238,-576.897 126.625,-572.02 144.239,-570.605"/>
<polygon fill="midnightblue" stroke="midnightblue" points="25.3027,-930.072 28.3795,-940.21 32.2965,-930.366 25.3027,-930.072"/>
</g>
<!-- Node36 -->
<g id="node71" class="node"><title>Node36</title>
<a xlink:href="classPixPagerDebugger.htm" target="_top" xlink:title="PixPagerDebugger">
<polygon fill="white" stroke="black" points="121.5,-520.5 121.5,-541.5 226.5,-541.5 226.5,-520.5 121.5,-520.5"/>
<text text-anchor="middle" x="174" y="-528.5" font-family="Helvetica,sans-Serif" font-size="10.00">PixPagerDebugger</text>
</a>
</g>
<!-- Node1&#45;&gt;Node36 -->
<g id="edge70" class="edge"><title>Node1&#45;&gt;Node36</title>
<path fill="none" stroke="midnightblue" d="M28.4038,-929.777C30.2599,-855.26 40.2855,-607.059 92,-551 99.7499,-542.599 110.39,-537.461 121.439,-534.377"/>
<polygon fill="midnightblue" stroke="midnightblue" points="24.8954,-930.113 28.1709,-940.189 31.8937,-930.27 24.8954,-930.113"/>
</g>
<!-- Node37 -->
<g id="node73" class="node"><title>Node37</title>
<a xlink:href="classPixPagerPage.htm" target="_top" xlink:title="PixPagerPage">
<polygon fill="white" stroke="red" points="132,-480.5 132,-501.5 216,-501.5 216,-480.5 132,-480.5"/>
<text text-anchor="middle" x="174" y="-488.5" font-family="Helvetica,sans-Serif" font-size="10.00">PixPagerPage</text>
</a>
</g>
<!-- Node1&#45;&gt;Node37 -->
<g id="edge72" class="edge"><title>Node1&#45;&gt;Node37</title>
<path fill="none" stroke="midnightblue" d="M29.6667,-930.174C36.4943,-847.122 63.3249,-542.531 92,-511 102.056,-499.942 117.117,-494.521 131.597,-492"/>
<polygon fill="midnightblue" stroke="midnightblue" points="26.1756,-929.924 28.8537,-940.175 33.1526,-930.491 26.1756,-929.924"/>
</g>
<!-- Node38 -->
<g id="node75" class="node"><title>Node38</title>
<a xlink:href="classPreferences.htm" target="_top" xlink:title="Preferences">
<polygon fill="white" stroke="black" points="137,-440.5 137,-461.5 211,-461.5 211,-440.5 137,-440.5"/>
<text text-anchor="middle" x="174" y="-448.5" font-family="Helvetica,sans-Serif" font-size="10.00">Preferences</text>
</a>
</g>
<!-- Node1&#45;&gt;Node38 -->
<g id="edge74" class="edge"><title>Node1&#45;&gt;Node38</title>
<path fill="none" stroke="midnightblue" d="M29.4152,-929.992C35.5284,-841.965 60.7766,-505.746 92,-471 103.166,-458.575 120.648,-453.25 136.606,-451.165"/>
<polygon fill="midnightblue" stroke="midnightblue" points="25.9151,-929.875 28.7227,-940.091 32.8987,-930.354 25.9151,-929.875"/>
</g>
<!-- Node39 -->
<g id="node77" class="node"><title>Node39</title>
<a xlink:href="classRedirectContext.htm" target="_top" xlink:title="RedirectContext">
<polygon fill="white" stroke="red" points="127.5,-400.5 127.5,-421.5 220.5,-421.5 220.5,-400.5 127.5,-400.5"/>
<text text-anchor="middle" x="174" y="-408.5" font-family="Helvetica,sans-Serif" font-size="10.00">RedirectContext</text>
</a>
</g>
<!-- Node1&#45;&gt;Node39 -->
<g id="edge76" class="edge"><title>Node1&#45;&gt;Node39</title>
<path fill="none" stroke="midnightblue" d="M29.1869,-930.034C34.6057,-837.554 58.1949,-469.002 92,-431 100.96,-420.927 114.07,-415.511 127.191,-412.706"/>
<polygon fill="midnightblue" stroke="midnightblue" points="25.6868,-929.935 28.6042,-940.121 32.6751,-930.339 25.6868,-929.935"/>
</g>
<!-- Node40 -->
<g id="node79" class="node"><title>Node40</title>
<a xlink:href="classRuntime.htm" target="_top" xlink:title="Runtime">
<polygon fill="white" stroke="black" points="146.5,-360.5 146.5,-381.5 201.5,-381.5 201.5,-360.5 146.5,-360.5"/>
<text text-anchor="middle" x="174" y="-368.5" font-family="Helvetica,sans-Serif" font-size="10.00">Runtime</text>
</a>
</g>
<!-- Node1&#45;&gt;Node40 -->
<g id="edge78" class="edge"><title>Node1&#45;&gt;Node40</title>
<path fill="none" stroke="midnightblue" d="M28.9956,-929.988C33.7719,-833.084 55.6172,-432.259 92,-391 105.375,-375.833 128.158,-371.206 146.32,-370.163"/>
<polygon fill="midnightblue" stroke="midnightblue" points="25.4863,-930.097 28.4979,-940.255 32.4781,-930.436 25.4863,-930.097"/>
</g>
<!-- Node41 -->
<g id="node81" class="node"><title>Node41</title>
<a xlink:href="classSecurity.htm" target="_top" xlink:title="Security">
<polygon fill="white" stroke="black" points="147,-320.5 147,-341.5 201,-341.5 201,-320.5 147,-320.5"/>
<text text-anchor="middle" x="174" y="-328.5" font-family="Helvetica,sans-Serif" font-size="10.00">Security</text>
</a>
</g>
<!-- Node1&#45;&gt;Node41 -->
<g id="edge80" class="edge"><title>Node1&#45;&gt;Node41</title>
<path fill="none" stroke="midnightblue" d="M28.8095,-930.42C32.9358,-830.126 52.9725,-395.595 92,-351 105.414,-335.672 128.436,-331.093 146.678,-330.109"/>
<polygon fill="midnightblue" stroke="midnightblue" points="25.3095,-930.352 28.4031,-940.485 32.3038,-930.634 25.3095,-930.352"/>
</g>
<!-- Node42 -->
<g id="node83" class="node"><title>Node42</title>
<a xlink:href="classStatusBarIcon.htm" target="_top" xlink:title="StatusBarIcon">
<polygon fill="white" stroke="red" points="132.5,-280.5 132.5,-301.5 215.5,-301.5 215.5,-280.5 132.5,-280.5"/>
<text text-anchor="middle" x="174" y="-288.5" font-family="Helvetica,sans-Serif" font-size="10.00">StatusBarIcon</text>
</a>
</g>
<!-- Node1&#45;&gt;Node42 -->
<g id="edge82" class="edge"><title>Node1&#45;&gt;Node42</title>
<path fill="none" stroke="midnightblue" d="M28.6776,-930.05C32.2606,-825.01 50.4257,-358.823 92,-311 101.998,-299.499 117.406,-294.042 132.178,-291.616"/>
<polygon fill="midnightblue" stroke="midnightblue" points="25.1712,-930.189 28.3357,-940.3 32.1673,-930.422 25.1712,-930.189"/>
</g>
<!-- Node43 -->
<g id="node85" class="node"><title>Node43</title>
<a xlink:href="classStatusBarServicesConnector.htm" target="_top" xlink:title="StatusBarServicesConnector">
<polygon fill="white" stroke="black" points="98,-240.5 98,-261.5 250,-261.5 250,-240.5 98,-240.5"/>
<text text-anchor="middle" x="174" y="-248.5" font-family="Helvetica,sans-Serif" font-size="10.00">StatusBarServicesConnector</text>
</a>
</g>
<!-- Node1&#45;&gt;Node43 -->
<g id="edge84" class="edge"><title>Node1&#45;&gt;Node43</title>
<path fill="none" stroke="midnightblue" d="M28.5455,-930.131C31.5746,-821.327 47.8156,-322.125 92,-271 95.2577,-267.231 99.0966,-264.109 103.305,-261.531"/>
<polygon fill="midnightblue" stroke="midnightblue" points="25.0387,-930.338 28.2663,-940.429 32.0361,-930.527 25.0387,-930.338"/>
</g>
<!-- Node44 -->
<g id="node87" class="node"><title>Node44</title>
<a xlink:href="classSysmgrBuiltinLaunchHelper.htm" target="_top" xlink:title="SysmgrBuiltinLaunchHelper">
<polygon fill="white" stroke="black" points="101,-200.5 101,-221.5 247,-221.5 247,-200.5 101,-200.5"/>
<text text-anchor="middle" x="174" y="-208.5" font-family="Helvetica,sans-Serif" font-size="10.00">SysmgrBuiltinLaunchHelper</text>
</a>
</g>
<!-- Node1&#45;&gt;Node44 -->
<g id="edge86" class="edge"><title>Node1&#45;&gt;Node44</title>
<path fill="none" stroke="midnightblue" d="M28.4262,-930.318C30.9223,-818.11 45.1859,-285.453 92,-231 95.248,-227.222 99.0796,-224.095 103.283,-221.512"/>
<polygon fill="midnightblue" stroke="midnightblue" points="24.9263,-930.281 28.2098,-940.354 31.9246,-930.432 24.9263,-930.281"/>
</g>
<!-- Node45 -->
<g id="node89" class="node"><title>Node45</title>
<a xlink:href="classSysmgrDebuggerService.htm" target="_top" xlink:title="SysmgrDebuggerService">
<polygon fill="white" stroke="black" points="107.5,-160.5 107.5,-181.5 240.5,-181.5 240.5,-160.5 107.5,-160.5"/>
<text text-anchor="middle" x="174" y="-168.5" font-family="Helvetica,sans-Serif" font-size="10.00">SysmgrDebuggerService</text>
</a>
</g>
<!-- Node1&#45;&gt;Node45 -->
<g id="edge88" class="edge"><title>Node1&#45;&gt;Node45</title>
<path fill="none" stroke="midnightblue" d="M28.3249,-930.269C30.3272,-814.264 42.5846,-248.749 92,-191 96.2872,-185.99 101.601,-182.123 107.448,-179.153"/>
<polygon fill="midnightblue" stroke="midnightblue" points="24.8244,-930.27 28.1579,-940.327 31.8235,-930.386 24.8244,-930.27"/>
</g>
<!-- Node46 -->
<g id="node91" class="node"><title>Node46</title>
<a xlink:href="classSystemService.htm" target="_top" xlink:title="SystemService">
<polygon fill="white" stroke="black" points="131,-120.5 131,-141.5 217,-141.5 217,-120.5 131,-120.5"/>
<text text-anchor="middle" x="174" y="-128.5" font-family="Helvetica,sans-Serif" font-size="10.00">SystemService</text>
</a>
</g>
<!-- Node1&#45;&gt;Node46 -->
<g id="edge90" class="edge"><title>Node1&#45;&gt;Node46</title>
<path fill="none" stroke="midnightblue" d="M28.2321,-930.309C29.7569,-810.803 39.9671,-212.066 92,-151 101.599,-139.735 116.387,-134.246 130.776,-131.728"/>
<polygon fill="midnightblue" stroke="midnightblue" points="24.732,-930.302 28.1105,-940.344 31.7315,-930.387 24.732,-930.302"/>
</g>
<!-- Node47 -->
<g id="node93" class="node"><title>Node47</title>
<a xlink:href="classSystemUiController.htm" target="_top" xlink:title="SystemUiController">
<polygon fill="white" stroke="black" points="120.5,-80.5 120.5,-101.5 227.5,-101.5 227.5,-80.5 120.5,-80.5"/>
<text text-anchor="middle" x="174" y="-88.5" font-family="Helvetica,sans-Serif" font-size="10.00">SystemUiController</text>
</a>
</g>
<!-- Node1&#45;&gt;Node47 -->
<g id="edge92" class="edge"><title>Node1&#45;&gt;Node47</title>
<path fill="none" stroke="midnightblue" d="M28.1508,-930.062C29.2281,-806.457 37.3884,-175.339 92,-111 99.2068,-102.51 109.362,-97.2977 120.079,-94.1659"/>
<polygon fill="midnightblue" stroke="midnightblue" points="24.6482,-930.375 28.0673,-940.403 31.648,-930.432 24.6482,-930.375"/>
</g>
<!-- Node48 -->
<g id="node95" class="node"><title>Node48</title>
<a xlink:href="classUiNavigationController.htm" target="_top" xlink:title="UiNavigationController">
<polygon fill="white" stroke="black" points="112.5,-40.5 112.5,-61.5 235.5,-61.5 235.5,-40.5 112.5,-40.5"/>
<text text-anchor="middle" x="174" y="-48.5" font-family="Helvetica,sans-Serif" font-size="10.00">UiNavigationController</text>
</a>
</g>
<!-- Node1&#45;&gt;Node48 -->
<g id="edge94" class="edge"><title>Node1&#45;&gt;Node48</title>
<path fill="none" stroke="midnightblue" d="M28.075,-929.86C28.7167,-802.314 34.8011,-138.623 92,-71 97.3941,-64.6229 104.451,-60.0941 112.164,-56.9067"/>
<polygon fill="midnightblue" stroke="midnightblue" points="24.5736,-930.188 28.0294,-940.203 31.5735,-930.219 24.5736,-930.188"/>
</g>
<!-- Node49 -->
<g id="node97" class="node"><title>Node49</title>
<a xlink:href="classVirtualCamera.htm" target="_top" xlink:title="VirtualCamera">
<polygon fill="white" stroke="black" points="132.5,-0.5 132.5,-21.5 215.5,-21.5 215.5,-0.5 132.5,-0.5"/>
<text text-anchor="middle" x="174" y="-8.5" font-family="Helvetica,sans-Serif" font-size="10.00">VirtualCamera</text>
</a>
</g>
<!-- Node1&#45;&gt;Node49 -->
<g id="edge96" class="edge"><title>Node1&#45;&gt;Node49</title>
<path fill="none" stroke="midnightblue" d="M28.7468,-930.438C33.651,-797.742 61.9775,-66.6072 92,-31 101.918,-19.2371 117.495,-13.7589 132.42,-11.3888"/>
<polygon fill="midnightblue" stroke="midnightblue" points="25.2474,-930.362 28.3783,-940.484 32.2427,-930.619 25.2474,-930.362"/>
</g>
</g>
</svg>
