<?xml version="1.0" encoding="UTF-8" standalone="no"?>
<!DOCTYPE svg PUBLIC "-//W3C//DTD SVG 1.1//EN"
 "http://www.w3.org/Graphics/SVG/1.1/DTD/svg11.dtd">
<!-- Generated by graphviz version 2.26.3 (20100126.1600)
 -->
<!-- Title: DimensionsSystemInterface::Blacklist Pages: 1 -->
<svg width="421pt" height="216pt"
 viewBox="0.00 0.00 421.00 216.00" xmlns="http://www.w3.org/2000/svg" xmlns:xlink="http://www.w3.org/1999/xlink">
<g id="graph1" class="graph" transform="scale(1 1) rotate(0) translate(4 212)">
<title>DimensionsSystemInterface::Blacklist</title>
<polygon fill="white" stroke="white" points="-4,5 -4,-212 418,-212 418,5 -4,5"/>
<!-- Node1 -->
<g id="node1" class="node"><title>Node1</title>
<polygon fill="#bfbfbf" stroke="black" points="175,-1 175,-35 323,-35 323,-1 175,-1"/>
<text text-anchor="start" x="183" y="-22" font-family="Helvetica,sans-Serif" font-size="10.00">DimensionsSystemInterface</text>
<text text-anchor="middle" x="249" y="-9" font-family="Helvetica,sans-Serif" font-size="10.00">::Blacklist</text>
</g>
<!-- Node2 -->
<g id="node2" class="node"><title>Node2</title>
<a xlink:href="classDimensionsSystemInterface_1_1StaticMatchList.htm" target="_top" xlink:title="DimensionsSystemInterface\l::StaticMatchList">
<polygon fill="white" stroke="black" points="175,-75 175,-109 323,-109 323,-75 175,-75"/>
<text text-anchor="start" x="183" y="-96" font-family="Helvetica,sans-Serif" font-size="10.00">DimensionsSystemInterface</text>
<text text-anchor="middle" x="249" y="-83" font-family="Helvetica,sans-Serif" font-size="10.00">::StaticMatchList</text>
</a>
</g>
<!-- Node2&#45;&gt;Node1 -->
<g id="edge2" class="edge"><title>Node2&#45;&gt;Node1</title>
<path fill="none" stroke="midnightblue" d="M249,-64.6275C249,-54.7253 249,-43.8344 249,-35.07"/>
<polygon fill="midnightblue" stroke="midnightblue" points="245.5,-64.8369 249,-74.8369 252.5,-64.8369 245.5,-64.8369"/>
</g>
<!-- Node3 -->
<g id="node4" class="node"><title>Node3</title>
<a xlink:href="classDimensionsSystemInterface_1_1FilterList.htm" target="_top" xlink:title="DimensionsSystemInterface\l::FilterList">
<polygon fill="white" stroke="black" points="0,-173 0,-207 148,-207 148,-173 0,-173"/>
<text text-anchor="start" x="8" y="-194" font-family="Helvetica,sans-Serif" font-size="10.00">DimensionsSystemInterface</text>
<text text-anchor="middle" x="74" y="-181" font-family="Helvetica,sans-Serif" font-size="10.00">::FilterList</text>
</a>
</g>
<!-- Node3&#45;&gt;Node2 -->
<g id="edge4" class="edge"><title>Node3&#45;&gt;Node2</title>
<path fill="none" stroke="midnightblue" d="M112.839,-167.686C133.605,-155.811 159.64,-141.013 183,-128 194.174,-121.775 206.465,-115.041 217.38,-109.099"/>
<polygon fill="midnightblue" stroke="midnightblue" points="110.931,-164.745 103.991,-172.75 114.409,-170.82 110.931,-164.745"/>
</g>
<!-- Node4 -->
<g id="node6" class="node"><title>Node4</title>
<polygon fill="white" stroke="#bfbfbf" points="165.5,-179.5 165.5,-200.5 218.5,-200.5 218.5,-179.5 165.5,-179.5"/>
<text text-anchor="middle" x="192" y="-187.5" font-family="Helvetica,sans-Serif" font-size="10.00">QString</text>
</g>
<!-- Node4&#45;&gt;Node2 -->
<g id="edge6" class="edge"><title>Node4&#45;&gt;Node2</title>
<path fill="none" stroke="#9a32cd" stroke-dasharray="5,2" d="M187.595,-169.044C186.041,-156.387 186.117,-140.369 193,-128 197.215,-120.425 203.767,-114.199 210.924,-109.181"/>
<polygon fill="#9a32cd" stroke="#9a32cd" points="184.176,-169.824 189.25,-179.124 191.083,-168.689 184.176,-169.824"/>
<text text-anchor="middle" x="238.5" y="-145" font-family="Helvetica,sans-Serif" font-size="10.00"> SaveTagKey_Id</text>
<text text-anchor="middle" x="238.5" y="-132" font-family="Helvetica,sans-Serif" font-size="10.00">SaveTagKey_Type</text>
</g>
<!-- Node5 -->
<g id="node8" class="node"><title>Node5</title>
<polygon fill="white" stroke="#bfbfbf" points="258.5,-179.5 258.5,-200.5 353.5,-200.5 353.5,-179.5 258.5,-179.5"/>
<text text-anchor="middle" x="306" y="-187.5" font-family="Helvetica,sans-Serif" font-size="10.00">QSet&lt; QString &gt;</text>
</g>
<!-- Node5&#45;&gt;Node2 -->
<g id="edge8" class="edge"><title>Node5&#45;&gt;Node2</title>
<path fill="none" stroke="#9a32cd" stroke-dasharray="5,2" d="M301.076,-169.317C297.516,-156.762 291.928,-140.754 284,-128 279.766,-121.189 274.055,-114.624 268.476,-109.008"/>
<polygon fill="#9a32cd" stroke="#9a32cd" points="297.769,-170.507 303.69,-179.293 304.541,-168.733 297.769,-170.507"/>
<text text-anchor="middle" x="310.5" y="-138.5" font-family="Helvetica,sans-Serif" font-size="10.00"> m_ids</text>
</g>
<!-- Node6 -->
<g id="node10" class="node"><title>Node6</title>
<polygon fill="white" stroke="#bfbfbf" points="370.5,-179.5 370.5,-200.5 413.5,-200.5 413.5,-179.5 370.5,-179.5"/>
<text text-anchor="middle" x="392" y="-187.5" font-family="Helvetica,sans-Serif" font-size="10.00">Enum</text>
</g>
<!-- Node6&#45;&gt;Node2 -->
<g id="edge10" class="edge"><title>Node6&#45;&gt;Node2</title>
<path fill="none" stroke="#9a32cd" stroke-dasharray="5,2" d="M376.774,-171.469C365.051,-158.084 347.873,-140.275 330,-128 319.344,-120.682 306.961,-114.29 295.13,-109.005"/>
<polygon fill="#9a32cd" stroke="#9a32cd" points="374.171,-173.81 383.326,-179.143 379.494,-169.265 374.171,-173.81"/>
<text text-anchor="middle" x="378" y="-138.5" font-family="Helvetica,sans-Serif" font-size="10.00"> m_type</text>
</g>
</g>
</svg>
