<?xml version="1.0" encoding="UTF-8" standalone="no"?>
<!DOCTYPE svg PUBLIC "-//W3C//DTD SVG 1.1//EN"
 "http://www.w3.org/Graphics/SVG/1.1/DTD/svg11.dtd">
<!-- Generated by graphviz version 2.26.3 (20100126.1600)
 -->
<!-- Title: IconWrapper Pages: 1 -->
<svg width="299pt" height="128pt"
 viewBox="0.00 0.00 299.00 128.00" xmlns="http://www.w3.org/2000/svg" xmlns:xlink="http://www.w3.org/1999/xlink">
<g id="graph1" class="graph" transform="scale(1 1) rotate(0) translate(4 124)">
<title>IconWrapper</title>
<polygon fill="white" stroke="white" points="-4,5 -4,-124 296,-124 296,5 -4,5"/>
<!-- Node1 -->
<g id="node1" class="node"><title>Node1</title>
<polygon fill="#bfbfbf" stroke="black" points="125,-0.5 125,-21.5 203,-21.5 203,-0.5 125,-0.5"/>
<text text-anchor="middle" x="164" y="-8.5" font-family="Helvetica,sans-Serif" font-size="10.00">IconWrapper</text>
</g>
<!-- Node2 -->
<g id="node2" class="node"><title>Node2</title>
<polygon fill="white" stroke="#bfbfbf" points="-0.5,-98.5 -0.5,-119.5 120.5,-119.5 120.5,-98.5 -0.5,-98.5"/>
<text text-anchor="middle" x="60" y="-106.5" font-family="Helvetica,sans-Serif" font-size="10.00">QPointer&lt; IconBase &gt;</text>
</g>
<!-- Node2&#45;&gt;Node1 -->
<g id="edge2" class="edge"><title>Node2&#45;&gt;Node1</title>
<path fill="none" stroke="#9a32cd" stroke-dasharray="5,2" d="M77.2633,-91.2923C91.2283,-77.1377 111.537,-56.9333 130,-40 136.861,-33.7073 144.761,-26.9419 151.218,-21.5297"/>
<polygon fill="#9a32cd" stroke="#9a32cd" points="74.7196,-88.8873 70.2096,-98.4743 79.7138,-93.7922 74.7196,-88.8873"/>
<text text-anchor="middle" x="145" y="-57.5" font-family="Helvetica,sans-Serif" font-size="10.00"> pIcon</text>
</g>
<!-- Node3 -->
<g id="node4" class="node"><title>Node3</title>
<polygon fill="white" stroke="#bfbfbf" points="137.5,-98.5 137.5,-119.5 190.5,-119.5 190.5,-98.5 137.5,-98.5"/>
<text text-anchor="middle" x="164" y="-106.5" font-family="Helvetica,sans-Serif" font-size="10.00">QString</text>
</g>
<!-- Node3&#45;&gt;Node1 -->
<g id="edge4" class="edge"><title>Node3&#45;&gt;Node1</title>
<path fill="none" stroke="#9a32cd" stroke-dasharray="5,2" d="M164,-87.9567C164,-67.5572 164,-37.4427 164,-21.6129"/>
<polygon fill="#9a32cd" stroke="#9a32cd" points="160.5,-88.1378 164,-98.1378 167.5,-88.1379 160.5,-88.1378"/>
<text text-anchor="middle" x="190.5" y="-64" font-family="Helvetica,sans-Serif" font-size="10.00"> launchPtId</text>
<text text-anchor="middle" x="190.5" y="-51" font-family="Helvetica,sans-Serif" font-size="10.00">appId</text>
</g>
<!-- Node4 -->
<g id="node6" class="node"><title>Node4</title>
<polygon fill="white" stroke="#bfbfbf" points="217,-98.5 217,-119.5 263,-119.5 263,-98.5 217,-98.5"/>
<text text-anchor="middle" x="240" y="-106.5" font-family="Helvetica,sans-Serif" font-size="10.00">QUuid</text>
</g>
<!-- Node4&#45;&gt;Node1 -->
<g id="edge6" class="edge"><title>Node4&#45;&gt;Node1</title>
<path fill="none" stroke="#9a32cd" stroke-dasharray="5,2" d="M237.577,-88.258C234.919,-73.4167 229.398,-53.7172 218,-40 211.471,-32.1427 202.245,-26.1002 193.263,-21.6164"/>
<polygon fill="#9a32cd" stroke="#9a32cd" points="234.164,-89.1062 239.101,-98.4807 241.088,-88.0739 234.164,-89.1062"/>
<text text-anchor="middle" x="263" y="-70.5" font-family="Helvetica,sans-Serif" font-size="10.00"> copyOf</text>
<text text-anchor="middle" x="263" y="-57.5" font-family="Helvetica,sans-Serif" font-size="10.00">uid</text>
<text text-anchor="middle" x="263" y="-44.5" font-family="Helvetica,sans-Serif" font-size="10.00">locationTag</text>
</g>
</g>
</svg>
