<?xml version="1.0" encoding="UTF-8" standalone="no"?>
<!DOCTYPE svg PUBLIC "-//W3C//DTD SVG 1.1//EN"
 "http://www.w3.org/Graphics/SVG/1.1/DTD/svg11.dtd">
<!-- Generated by graphviz version 2.26.3 (20100126.1600)
 -->
<!-- Title: DWMStateBase Pages: 1 -->
<svg width="354pt" height="146pt"
 viewBox="0.00 0.00 354.00 146.00" xmlns="http://www.w3.org/2000/svg" xmlns:xlink="http://www.w3.org/1999/xlink">
<g id="graph1" class="graph" transform="scale(1 1) rotate(0) translate(4 142)">
<title>DWMStateBase</title>
<polygon fill="white" stroke="white" points="-4,5 -4,-142 351,-142 351,5 -4,5"/>
<!-- Node1 -->
<g id="node1" class="node"><title>Node1</title>
<polygon fill="#bfbfbf" stroke="black" points="138,-58.5 138,-79.5 230,-79.5 230,-58.5 138,-58.5"/>
<text text-anchor="middle" x="184" y="-66.5" font-family="Helvetica,sans-Serif" font-size="10.00">DWMStateBase</text>
</g>
<!-- Node3 -->
<g id="node5" class="node"><title>Node3</title>
<a xlink:href="classDWMStateAlertOpen.htm" target="_top" xlink:title="DWMStateAlertOpen">
<polygon fill="white" stroke="black" points="0,-0.5 0,-21.5 116,-21.5 116,-0.5 0,-0.5"/>
<text text-anchor="middle" x="58" y="-8.5" font-family="Helvetica,sans-Serif" font-size="10.00">DWMStateAlertOpen</text>
</a>
</g>
<!-- Node1&#45;&gt;Node3 -->
<g id="edge4" class="edge"><title>Node1&#45;&gt;Node3</title>
<path fill="none" stroke="midnightblue" d="M151.862,-54.2064C129.757,-44.031 100.92,-30.7567 81.0737,-21.6212"/>
<polygon fill="midnightblue" stroke="midnightblue" points="150.635,-57.4945 161.182,-58.4966 153.562,-51.1358 150.635,-57.4945"/>
</g>
<!-- Node4 -->
<g id="node7" class="node"><title>Node4</title>
<a xlink:href="classDWMStateClosed.htm" target="_top" xlink:title="DWMStateClosed">
<polygon fill="white" stroke="black" points="133.5,-0.5 133.5,-21.5 234.5,-21.5 234.5,-0.5 133.5,-0.5"/>
<text text-anchor="middle" x="184" y="-8.5" font-family="Helvetica,sans-Serif" font-size="10.00">DWMStateClosed</text>
</a>
</g>
<!-- Node1&#45;&gt;Node4 -->
<g id="edge6" class="edge"><title>Node1&#45;&gt;Node4</title>
<path fill="none" stroke="midnightblue" d="M184,-48.1906C184,-39.1684 184,-28.9941 184,-21.5707"/>
<polygon fill="midnightblue" stroke="midnightblue" points="180.5,-48.3619 184,-58.3619 187.5,-48.3619 180.5,-48.3619"/>
</g>
<!-- Node5 -->
<g id="node9" class="node"><title>Node5</title>
<a xlink:href="classDWMStateOpen.htm" target="_top" xlink:title="DWMStateOpen">
<polygon fill="white" stroke="black" points="252,-0.5 252,-21.5 346,-21.5 346,-0.5 252,-0.5"/>
<text text-anchor="middle" x="299" y="-8.5" font-family="Helvetica,sans-Serif" font-size="10.00">DWMStateOpen</text>
</a>
</g>
<!-- Node1&#45;&gt;Node5 -->
<g id="edge8" class="edge"><title>Node1&#45;&gt;Node5</title>
<path fill="none" stroke="midnightblue" d="M213.876,-53.9319C233.979,-43.7932 259.99,-30.6748 277.941,-21.6212"/>
<polygon fill="midnightblue" stroke="midnightblue" points="212.178,-50.8684 204.826,-58.4966 215.33,-57.1185 212.178,-50.8684"/>
</g>
<!-- Node2 -->
<g id="node2" class="node"><title>Node2</title>
<a xlink:href="classQState.htm" target="_top" xlink:title="QState">
<polygon fill="white" stroke="black" points="159,-116.5 159,-137.5 209,-137.5 209,-116.5 159,-116.5"/>
<text text-anchor="middle" x="184" y="-124.5" font-family="Helvetica,sans-Serif" font-size="10.00">QState</text>
</a>
</g>
<!-- Node2&#45;&gt;Node1 -->
<g id="edge2" class="edge"><title>Node2&#45;&gt;Node1</title>
<path fill="none" stroke="midnightblue" d="M184,-106.191C184,-97.1684 184,-86.9941 184,-79.5707"/>
<polygon fill="midnightblue" stroke="midnightblue" points="180.5,-106.362 184,-116.362 187.5,-106.362 180.5,-106.362"/>
</g>
</g>
</svg>
