<?xml version="1.0" encoding="UTF-8" standalone="no"?>
<!DOCTYPE svg PUBLIC "-//W3C//DTD SVG 1.1//EN"
 "http://www.w3.org/Graphics/SVG/1.1/DTD/svg11.dtd">
<!-- Generated by graphviz version 2.26.3 (20100126.1600)
 -->
<!-- Title: HostWindowDataOpenGLTextureShared Pages: 1 -->
<svg width="182pt" height="160pt"
 viewBox="0.00 0.00 182.00 160.00" xmlns="http://www.w3.org/2000/svg" xmlns:xlink="http://www.w3.org/1999/xlink">
<g id="graph1" class="graph" transform="scale(1 1) rotate(0) translate(4 156)">
<title>HostWindowDataOpenGLTextureShared</title>
<polygon fill="white" stroke="white" points="-4,5 -4,-156 179,-156 179,5 -4,5"/>
<!-- Node1 -->
<g id="node1" class="node"><title>Node1</title>
<polygon fill="#bfbfbf" stroke="black" points="-0.5,-1 -0.5,-35 174.5,-35 174.5,-1 -0.5,-1"/>
<text text-anchor="start" x="7.5" y="-22" font-family="Helvetica,sans-Serif" font-size="10.00">HostWindowDataOpenGLTexture</text>
<text text-anchor="middle" x="87" y="-9" font-family="Helvetica,sans-Serif" font-size="10.00">Shared</text>
</g>
<!-- Node2 -->
<g id="node2" class="node"><title>Node2</title>
<a xlink:href="classHostWindowDataSoftware.htm" target="_top" xlink:title="HostWindowDataSoftware">
<polygon fill="white" stroke="black" points="17,-72.5 17,-93.5 157,-93.5 157,-72.5 17,-72.5"/>
<text text-anchor="middle" x="87" y="-80.5" font-family="Helvetica,sans-Serif" font-size="10.00">HostWindowDataSoftware</text>
</a>
</g>
<!-- Node2&#45;&gt;Node1 -->
<g id="edge2" class="edge"><title>Node2&#45;&gt;Node1</title>
<path fill="none" stroke="midnightblue" d="M87,-62.1306C87,-53.4049 87,-43.3908 87,-35.1099"/>
<polygon fill="midnightblue" stroke="midnightblue" points="83.5001,-62.2665 87,-72.2666 90.5001,-62.2666 83.5001,-62.2665"/>
</g>
<!-- Node3 -->
<g id="node4" class="node"><title>Node3</title>
<a xlink:href="classHostWindowData.htm" target="_top" xlink:title="HostWindowData">
<polygon fill="white" stroke="black" points="38,-130.5 38,-151.5 136,-151.5 136,-130.5 38,-130.5"/>
<text text-anchor="middle" x="87" y="-138.5" font-family="Helvetica,sans-Serif" font-size="10.00">HostWindowData</text>
</a>
</g>
<!-- Node3&#45;&gt;Node2 -->
<g id="edge4" class="edge"><title>Node3&#45;&gt;Node2</title>
<path fill="none" stroke="midnightblue" d="M87,-120.191C87,-111.168 87,-100.994 87,-93.5707"/>
<polygon fill="midnightblue" stroke="midnightblue" points="83.5001,-120.362 87,-130.362 90.5001,-120.362 83.5001,-120.362"/>
</g>
</g>
</svg>
