<?xml version="1.0" encoding="UTF-8" standalone="no"?>
<!DOCTYPE svg PUBLIC "-//W3C//DTD SVG 1.1//EN"
 "http://www.w3.org/Graphics/SVG/1.1/DTD/svg11.dtd">
<!-- Generated by graphviz version 2.26.3 (20100126.1600)
 -->
<!-- Title: ConditionalSignalTransition Pages: 1 -->
<svg width="184pt" height="102pt"
 viewBox="0.00 0.00 184.00 102.00" xmlns="http://www.w3.org/2000/svg" xmlns:xlink="http://www.w3.org/1999/xlink">
<g id="graph1" class="graph" transform="scale(1 1) rotate(0) translate(4 98)">
<title>ConditionalSignalTransition</title>
<polygon fill="white" stroke="white" points="-4,5 -4,-98 181,-98 181,5 -4,5"/>
<!-- Node1 -->
<g id="node1" class="node"><title>Node1</title>
<polygon fill="#bfbfbf" stroke="black" points="25,-0.5 25,-21.5 171,-21.5 171,-0.5 25,-0.5"/>
<text text-anchor="middle" x="98" y="-8.5" font-family="Helvetica,sans-Serif" font-size="10.00">ConditionalSignalTransition</text>
</g>
<!-- Node2 -->
<g id="node2" class="node"><title>Node2</title>
<a xlink:href="classQSignalTransition.htm" target="_top" xlink:title="QSignalTransition">
<polygon fill="white" stroke="black" points="-0.5,-72.5 -0.5,-93.5 100.5,-93.5 100.5,-72.5 -0.5,-72.5"/>
<text text-anchor="middle" x="50" y="-80.5" font-family="Helvetica,sans-Serif" font-size="10.00">QSignalTransition</text>
</a>
</g>
<!-- Node2&#45;&gt;Node1 -->
<g id="edge2" class="edge"><title>Node2&#45;&gt;Node1</title>
<path fill="none" stroke="midnightblue" d="M62.7934,-63.8099C71.7929,-50.3106 83.5034,-32.7449 90.8884,-21.6674"/>
<polygon fill="midnightblue" stroke="midnightblue" points="59.7174,-62.1142 57.0826,-72.3762 65.5418,-65.9971 59.7174,-62.1142"/>
</g>
<!-- Node3 -->
<g id="node4" class="node"><title>Node3</title>
<polygon fill="white" stroke="#bfbfbf" points="117.5,-72.5 117.5,-93.5 176.5,-93.5 176.5,-72.5 117.5,-72.5"/>
<text text-anchor="middle" x="147" y="-80.5" font-family="Helvetica,sans-Serif" font-size="10.00">QVariant</text>
</g>
<!-- Node3&#45;&gt;Node1 -->
<g id="edge4" class="edge"><title>Node3&#45;&gt;Node1</title>
<path fill="none" stroke="#9a32cd" stroke-dasharray="5,2" d="M133.94,-63.8099C124.753,-50.3106 112.799,-32.7449 105.26,-21.6674"/>
<polygon fill="#9a32cd" stroke="#9a32cd" points="131.25,-66.0782 139.77,-72.3762 137.037,-62.1398 131.25,-66.0782"/>
<text text-anchor="middle" x="140" y="-44.5" font-family="Helvetica,sans-Serif" font-size="10.00"> m_cv</text>
</g>
</g>
</svg>
