<?xml version="1.0" encoding="UTF-8" standalone="no"?>
<!DOCTYPE svg PUBLIC "-//W3C//DTD SVG 1.1//EN"
 "http://www.w3.org/Graphics/SVG/1.1/DTD/svg11.dtd">
<!-- Generated by graphviz version 2.26.3 (20100126.1600)
 -->
<!-- Title: TextureSharedCompositingWindow Pages: 1 -->
<svg width="704pt" height="214pt"
 viewBox="0.00 0.00 704.00 214.00" xmlns="http://www.w3.org/2000/svg" xmlns:xlink="http://www.w3.org/1999/xlink">
<g id="graph1" class="graph" transform="scale(1 1) rotate(0) translate(4 210)">
<title>TextureSharedCompositingWindow</title>
<polygon fill="white" stroke="white" points="-4,5 -4,-210 701,-210 701,5 -4,5"/>
<!-- Node1 -->
<g id="node1" class="node"><title>Node1</title>
<polygon fill="#bfbfbf" stroke="black" points="497,-87 497,-121 643,-121 643,-87 497,-87"/>
<text text-anchor="start" x="505" y="-108" font-family="Helvetica,sans-Serif" font-size="10.00">TextureSharedCompositing</text>
<text text-anchor="middle" x="570" y="-95" font-family="Helvetica,sans-Serif" font-size="10.00">Window</text>
</g>
<!-- Node3 -->
<g id="node4" class="node"><title>Node3</title>
<a xlink:href="classHostWindowDataOpenGLTextureShared.htm" target="_top" xlink:title="HostWindowDataOpenGLTexture\lShared">
<polygon fill="white" stroke="black" points="340.5,-1 340.5,-35 515.5,-35 515.5,-1 340.5,-1"/>
<text text-anchor="start" x="348.5" y="-22" font-family="Helvetica,sans-Serif" font-size="10.00">HostWindowDataOpenGLTexture</text>
<text text-anchor="middle" x="428" y="-9" font-family="Helvetica,sans-Serif" font-size="10.00">Shared</text>
</a>
</g>
<!-- Node1&#45;&gt;Node3 -->
<g id="edge18" class="edge"><title>Node1&#45;&gt;Node3</title>
<path fill="none" stroke="#9a32cd" stroke-dasharray="5,2" d="M493.738,-83C484.309,-78.8008 475.138,-73.8384 467,-68 455.014,-59.4009 444.89,-46.1047 437.963,-35.3846"/>
<polygon fill="#9a32cd" stroke="#9a32cd" points="492.647,-86.3371 503.225,-86.949 495.338,-79.8747 492.647,-86.3371"/>
<text text-anchor="middle" x="484" y="-58.5" font-family="Helvetica,sans-Serif" font-size="10.00"> m_win</text>
</g>
<!-- Node2 -->
<g id="node2" class="node"><title>Node2</title>
<a xlink:href="classNRemoteWindow.htm" target="_top" xlink:title="NRemoteWindow">
<polygon fill="white" stroke="black" points="427,-184.5 427,-205.5 525,-205.5 525,-184.5 427,-184.5"/>
<text text-anchor="middle" x="476" y="-192.5" font-family="Helvetica,sans-Serif" font-size="10.00">NRemoteWindow</text>
</a>
</g>
<!-- Node2&#45;&gt;Node1 -->
<g id="edge2" class="edge"><title>Node2&#45;&gt;Node1</title>
<path fill="none" stroke="midnightblue" d="M494.669,-176.926C511.365,-160.763 535.67,-137.234 552.121,-121.309"/>
<polygon fill="midnightblue" stroke="midnightblue" points="491.903,-174.734 487.152,-184.204 496.771,-179.763 491.903,-174.734"/>
</g>
<!-- Node3&#45;&gt;Node1 -->
<g id="edge4" class="edge"><title>Node3&#45;&gt;Node1</title>
<path fill="none" stroke="#9a32cd" stroke-dasharray="5,2" d="M477.921,-39.391C487.114,-43.8735 496.49,-48.8232 505,-54 520.934,-63.693 537.581,-76.5587 550.039,-86.8117"/>
<polygon fill="#9a32cd" stroke="#9a32cd" points="479.363,-36.2009 468.828,-35.0733 476.36,-42.5243 479.363,-36.2009"/>
<text text-anchor="middle" x="549.5" y="-58.5" font-family="Helvetica,sans-Serif" font-size="10.00"> m_parent</text>
</g>
<!-- Node4 -->
<g id="node6" class="node"><title>Node4</title>
<a xlink:href="classHostWindowDataSoftware.htm" target="_top" xlink:title="HostWindowDataSoftware">
<polygon fill="white" stroke="black" points="128,-93.5 128,-114.5 268,-114.5 268,-93.5 128,-93.5"/>
<text text-anchor="middle" x="198" y="-101.5" font-family="Helvetica,sans-Serif" font-size="10.00">HostWindowDataSoftware</text>
</a>
</g>
<!-- Node4&#45;&gt;Node3 -->
<g id="edge6" class="edge"><title>Node4&#45;&gt;Node3</title>
<path fill="none" stroke="midnightblue" d="M235.64,-89.9258C275.833,-74.8972 339.533,-51.0789 382.508,-35.0101"/>
<polygon fill="midnightblue" stroke="midnightblue" points="234.343,-86.674 226.203,-93.4547 236.795,-93.2307 234.343,-86.674"/>
</g>
<!-- Node5 -->
<g id="node8" class="node"><title>Node5</title>
<a xlink:href="classHostWindowData.htm" target="_top" xlink:title="HostWindowData">
<polygon fill="white" stroke="black" points="0,-184.5 0,-205.5 98,-205.5 98,-184.5 0,-184.5"/>
<text text-anchor="middle" x="49" y="-192.5" font-family="Helvetica,sans-Serif" font-size="10.00">HostWindowData</text>
</a>
</g>
<!-- Node5&#45;&gt;Node4 -->
<g id="edge8" class="edge"><title>Node5&#45;&gt;Node4</title>
<path fill="none" stroke="midnightblue" d="M73.4678,-178.595C90.3161,-167.441 113.308,-152.498 134,-140 148.732,-131.102 165.724,-121.578 178.496,-114.562"/>
<polygon fill="midnightblue" stroke="midnightblue" points="71.1829,-175.911 64.7932,-184.363 75.0585,-181.741 71.1829,-175.911"/>
</g>
<!-- Node6 -->
<g id="node10" class="node"><title>Node6</title>
<a xlink:href="classint.htm" target="_top" xlink:title="int">
<polygon fill="white" stroke="black" points="115.5,-184.5 115.5,-205.5 144.5,-205.5 144.5,-184.5 115.5,-184.5"/>
<text text-anchor="middle" x="130" y="-192.5" font-family="Helvetica,sans-Serif" font-size="10.00">int</text>
</a>
</g>
<!-- Node6&#45;&gt;Node4 -->
<g id="edge10" class="edge"><title>Node6&#45;&gt;Node4</title>
<path fill="none" stroke="#9a32cd" stroke-dasharray="5,2" d="M134.446,-174.416C137.529,-163.447 142.466,-150.161 150,-140 157.693,-129.624 169.196,-120.854 179.012,-114.568"/>
<polygon fill="#9a32cd" stroke="#9a32cd" points="130.977,-173.86 131.953,-184.41 137.769,-175.554 130.977,-173.86"/>
<text text-anchor="middle" x="172" y="-157" font-family="Helvetica,sans-Serif" font-size="10.00"> m_width</text>
<text text-anchor="middle" x="172" y="-144" font-family="Helvetica,sans-Serif" font-size="10.00">m_height</text>
</g>
<!-- Node7 -->
<g id="node12" class="node"><title>Node7</title>
<polygon fill="white" stroke="#bfbfbf" points="162,-184.5 162,-205.5 236,-205.5 236,-184.5 162,-184.5"/>
<text text-anchor="middle" x="199" y="-192.5" font-family="Helvetica,sans-Serif" font-size="10.00">PIpcBuffer *</text>
</g>
<!-- Node7&#45;&gt;Node4 -->
<g id="edge12" class="edge"><title>Node7&#45;&gt;Node4</title>
<path fill="none" stroke="#9a32cd" stroke-dasharray="5,2" d="M198.77,-174.049C198.565,-155.433 198.275,-128.991 198.115,-114.501"/>
<polygon fill="#9a32cd" stroke="#9a32cd" points="195.272,-174.243 198.881,-184.204 202.271,-174.166 195.272,-174.243"/>
<text text-anchor="middle" x="243.5" y="-157" font-family="Helvetica,sans-Serif" font-size="10.00"> m_metaDataBuffer</text>
<text text-anchor="middle" x="243.5" y="-144" font-family="Helvetica,sans-Serif" font-size="10.00">m_ipcBuffer</text>
</g>
<!-- Node8 -->
<g id="node14" class="node"><title>Node8</title>
<polygon fill="white" stroke="#bfbfbf" points="371,-184.5 371,-205.5 407,-205.5 407,-184.5 371,-184.5"/>
<text text-anchor="middle" x="389" y="-192.5" font-family="Helvetica,sans-Serif" font-size="10.00">bool</text>
</g>
<!-- Node8&#45;&gt;Node1 -->
<g id="edge22" class="edge"><title>Node8&#45;&gt;Node1</title>
<path fill="none" stroke="#9a32cd" stroke-dasharray="5,2" d="M403.314,-176.424C413.468,-164.429 428.079,-149.368 444,-140 460.078,-130.539 478.784,-123.446 496.785,-118.174"/>
<polygon fill="#9a32cd" stroke="#9a32cd" points="400.347,-174.525 396.752,-184.491 405.777,-178.942 400.347,-174.525"/>
<text text-anchor="middle" x="473" y="-157" font-family="Helvetica,sans-Serif" font-size="10.00"> m_locked</text>
<text text-anchor="middle" x="473" y="-144" font-family="Helvetica,sans-Serif" font-size="10.00">m_mustWait</text>
</g>
<!-- Node8&#45;&gt;Node3 -->
<g id="edge16" class="edge"><title>Node8&#45;&gt;Node3</title>
<path fill="none" stroke="#9a32cd" stroke-dasharray="5,2" d="M388.682,-174.029C388.818,-151.829 390.391,-115.932 398,-86 402.61,-67.8668 411.622,-48.4596 418.571,-35.0391"/>
<polygon fill="#9a32cd" stroke="#9a32cd" points="385.183,-174.298 388.718,-184.285 392.183,-174.273 385.183,-174.298"/>
<text text-anchor="middle" x="443" y="-108" font-family="Helvetica,sans-Serif" font-size="10.00"> m_dirty</text>
<text text-anchor="middle" x="443" y="-95" font-family="Helvetica,sans-Serif" font-size="10.00">m_updatedAllowed</text>
</g>
<!-- Node8&#45;&gt;Node4 -->
<g id="edge14" class="edge"><title>Node8&#45;&gt;Node4</title>
<path fill="none" stroke="#9a32cd" stroke-dasharray="5,2" d="M361.111,-187.898C346.011,-183.212 327.529,-176.058 313,-166 300.315,-157.218 302.648,-148.835 290,-140 273.971,-128.803 253.974,-120.439 236.721,-114.606"/>
<polygon fill="#9a32cd" stroke="#9a32cd" points="360.356,-191.323 370.935,-190.753 362.309,-184.601 360.356,-191.323"/>
<text text-anchor="middle" x="344" y="-157" font-family="Helvetica,sans-Serif" font-size="10.00"> m_hasAlpha</text>
<text text-anchor="middle" x="344" y="-144" font-family="Helvetica,sans-Serif" font-size="10.00">m_dirty</text>
</g>
<!-- Node9 -->
<g id="node18" class="node"><title>Node9</title>
<polygon fill="white" stroke="#bfbfbf" points="542.5,-184.5 542.5,-205.5 601.5,-205.5 601.5,-184.5 542.5,-184.5"/>
<text text-anchor="middle" x="572" y="-192.5" font-family="Helvetica,sans-Serif" font-size="10.00">QPixmap</text>
</g>
<!-- Node9&#45;&gt;Node1 -->
<g id="edge20" class="edge"><title>Node9&#45;&gt;Node1</title>
<path fill="none" stroke="#9a32cd" stroke-dasharray="5,2" d="M571.533,-173.755C571.182,-157.799 570.708,-136.221 570.38,-121.309"/>
<polygon fill="#9a32cd" stroke="#9a32cd" points="568.044,-174.283 571.763,-184.204 575.042,-174.129 568.044,-174.283"/>
<text text-anchor="middle" x="597" y="-150.5" font-family="Helvetica,sans-Serif" font-size="10.00"> m_pixmap</text>
</g>
<!-- Node10 -->
<g id="node21" class="node"><title>Node10</title>
<polygon fill="white" stroke="#bfbfbf" points="622.5,-184.5 622.5,-205.5 669.5,-205.5 669.5,-184.5 622.5,-184.5"/>
<text text-anchor="middle" x="646" y="-192.5" font-family="Helvetica,sans-Serif" font-size="10.00">GLuint</text>
</g>
<!-- Node10&#45;&gt;Node1 -->
<g id="edge24" class="edge"><title>Node10&#45;&gt;Node1</title>
<path fill="none" stroke="#9a32cd" stroke-dasharray="5,2" d="M641.042,-174.586C637.604,-163.5 632.151,-150.046 624,-140 618.108,-132.738 610.36,-126.401 602.579,-121.152"/>
<polygon fill="#9a32cd" stroke="#9a32cd" points="637.692,-175.605 643.743,-184.302 644.436,-173.73 637.692,-175.605"/>
<text text-anchor="middle" x="666.5" y="-150.5" font-family="Helvetica,sans-Serif" font-size="10.00"> m_textureId</text>
</g>
</g>
</svg>
