<?xml version="1.0" encoding="UTF-8" standalone="no"?>
<!DOCTYPE svg PUBLIC "-//W3C//DTD SVG 1.1//EN"
 "http://www.w3.org/Graphics/SVG/1.1/DTD/svg11.dtd">
<!-- Generated by graphviz version 2.26.3 (20100126.1600)
 -->
<!-- Title: Pixmap9TileObject Pages: 1 -->
<svg width="112pt" height="146pt"
 viewBox="0.00 0.00 112.00 146.00" xmlns="http://www.w3.org/2000/svg" xmlns:xlink="http://www.w3.org/1999/xlink">
<g id="graph1" class="graph" transform="scale(1 1) rotate(0) translate(4 142)">
<title>Pixmap9TileObject</title>
<polygon fill="white" stroke="white" points="-4,5 -4,-142 109,-142 109,5 -4,5"/>
<!-- Node1 -->
<g id="node1" class="node"><title>Node1</title>
<polygon fill="#bfbfbf" stroke="black" points="0,-0.5 0,-21.5 104,-21.5 104,-0.5 0,-0.5"/>
<text text-anchor="middle" x="52" y="-8.5" font-family="Helvetica,sans-Serif" font-size="10.00">Pixmap9TileObject</text>
</g>
<!-- Node2 -->
<g id="node2" class="node"><title>Node2</title>
<a xlink:href="classPixmapObject.htm" target="_top" xlink:title="PixmapObject">
<polygon fill="white" stroke="black" points="11.5,-58.5 11.5,-79.5 92.5,-79.5 92.5,-58.5 11.5,-58.5"/>
<text text-anchor="middle" x="52" y="-66.5" font-family="Helvetica,sans-Serif" font-size="10.00">PixmapObject</text>
</a>
</g>
<!-- Node2&#45;&gt;Node1 -->
<g id="edge2" class="edge"><title>Node2&#45;&gt;Node1</title>
<path fill="none" stroke="midnightblue" d="M52,-48.1906C52,-39.1684 52,-28.9941 52,-21.5707"/>
<polygon fill="midnightblue" stroke="midnightblue" points="48.5001,-48.3619 52,-58.3619 55.5001,-48.3619 48.5001,-48.3619"/>
</g>
<!-- Node3 -->
<g id="node4" class="node"><title>Node3</title>
<a xlink:href="classQObject.htm" target="_top" xlink:title="QObject">
<polygon fill="white" stroke="black" points="24.5,-116.5 24.5,-137.5 79.5,-137.5 79.5,-116.5 24.5,-116.5"/>
<text text-anchor="middle" x="52" y="-124.5" font-family="Helvetica,sans-Serif" font-size="10.00">QObject</text>
</a>
</g>
<!-- Node3&#45;&gt;Node2 -->
<g id="edge4" class="edge"><title>Node3&#45;&gt;Node2</title>
<path fill="none" stroke="midnightblue" d="M52,-106.191C52,-97.1684 52,-86.9941 52,-79.5707"/>
<polygon fill="midnightblue" stroke="midnightblue" points="48.5001,-106.362 52,-116.362 55.5001,-106.362 48.5001,-106.362"/>
</g>
</g>
</svg>
