<?xml version="1.0" encoding="UTF-8" standalone="no"?>
<!DOCTYPE svg PUBLIC "-//W3C//DTD SVG 1.1//EN"
 "http://www.w3.org/Graphics/SVG/1.1/DTD/svg11.dtd">
<!-- Generated by graphviz version 2.26.3 (20100126.1600)
 -->
<!-- Title: ApplicationManager Pages: 1 -->
<svg width="202pt" height="102pt"
 viewBox="0.00 0.00 202.00 102.00" xmlns="http://www.w3.org/2000/svg" xmlns:xlink="http://www.w3.org/1999/xlink">
<g id="graph1" class="graph" transform="scale(1 1) rotate(0) translate(4 98)">
<title>ApplicationManager</title>
<polygon fill="white" stroke="white" points="-4,5 -4,-98 199,-98 199,5 -4,5"/>
<!-- Node1 -->
<g id="node1" class="node"><title>Node1</title>
<polygon fill="#bfbfbf" stroke="black" points="21.5,-0.5 21.5,-21.5 132.5,-21.5 132.5,-0.5 21.5,-0.5"/>
<text text-anchor="middle" x="77" y="-8.5" font-family="Helvetica,sans-Serif" font-size="10.00">ApplicationManager</text>
</g>
<!-- Node2 -->
<g id="node2" class="node"><title>Node2</title>
<a xlink:href="classQObject.htm" target="_top" xlink:title="QObject">
<polygon fill="white" stroke="black" points="-0.5,-72.5 -0.5,-93.5 54.5,-93.5 54.5,-72.5 -0.5,-72.5"/>
<text text-anchor="middle" x="27" y="-80.5" font-family="Helvetica,sans-Serif" font-size="10.00">QObject</text>
</a>
</g>
<!-- Node2&#45;&gt;Node1 -->
<g id="edge2" class="edge"><title>Node2&#45;&gt;Node1</title>
<path fill="none" stroke="midnightblue" d="M40.3265,-63.8099C49.701,-50.3106 61.8994,-32.7449 69.5921,-21.6674"/>
<polygon fill="midnightblue" stroke="midnightblue" points="37.2069,-62.166 34.3777,-72.3762 42.9565,-66.1588 37.2069,-62.166"/>
</g>
<!-- Node3 -->
<g id="node4" class="node"><title>Node3</title>
<polygon fill="white" stroke="#bfbfbf" points="72,-72.5 72,-93.5 182,-93.5 182,-72.5 72,-72.5"/>
<text text-anchor="middle" x="127" y="-80.5" font-family="Helvetica,sans-Serif" font-size="10.00">static unsigned long</text>
</g>
<!-- Node3&#45;&gt;Node1 -->
<g id="edge4" class="edge"><title>Node3&#45;&gt;Node1</title>
<path fill="none" stroke="#9a32cd" stroke-dasharray="5,2" d="M113.674,-63.8099C104.299,-50.3106 92.1006,-32.7449 84.4079,-21.6674"/>
<polygon fill="#9a32cd" stroke="#9a32cd" points="111.044,-66.1588 119.622,-72.3762 116.793,-62.166 111.044,-66.1588"/>
<text text-anchor="middle" x="150" y="-44.5" font-family="Helvetica,sans-Serif" font-size="10.00"> s_ticketGenerator</text>
</g>
</g>
</svg>
