<?xml version="1.0" encoding="UTF-8" standalone="no"?>
<!DOCTYPE svg PUBLIC "-//W3C//DTD SVG 1.1//EN"
 "http://www.w3.org/Graphics/SVG/1.1/DTD/svg11.dtd">
<!-- Generated by graphviz version 2.26.3 (20100126.1600)
 -->
<!-- Title: PixButton Pages: 1 -->
<svg width="210pt" height="262pt"
 viewBox="0.00 0.00 210.00 262.00" xmlns="http://www.w3.org/2000/svg" xmlns:xlink="http://www.w3.org/1999/xlink">
<g id="graph1" class="graph" transform="scale(1 1) rotate(0) translate(4 258)">
<title>PixButton</title>
<polygon fill="white" stroke="white" points="-4,5 -4,-258 207,-258 207,5 -4,5"/>
<!-- Node1 -->
<g id="node1" class="node"><title>Node1</title>
<polygon fill="#bfbfbf" stroke="black" points="70.5,-58.5 70.5,-79.5 131.5,-79.5 131.5,-58.5 70.5,-58.5"/>
<text text-anchor="middle" x="101" y="-66.5" font-family="Helvetica,sans-Serif" font-size="10.00">PixButton</text>
</g>
<!-- Node5 -->
<g id="node9" class="node"><title>Node5</title>
<a xlink:href="classPixButton2State.htm" target="_top" xlink:title="PixButton2State">
<polygon fill="white" stroke="black" points="0,-0.5 0,-21.5 92,-21.5 92,-0.5 0,-0.5"/>
<text text-anchor="middle" x="46" y="-8.5" font-family="Helvetica,sans-Serif" font-size="10.00">PixButton2State</text>
</a>
</g>
<!-- Node1&#45;&gt;Node5 -->
<g id="edge8" class="edge"><title>Node1&#45;&gt;Node5</title>
<path fill="none" stroke="midnightblue" d="M83.7698,-50.8299C74.6454,-41.2078 63.7595,-29.7282 56.0239,-21.5707"/>
<polygon fill="midnightblue" stroke="midnightblue" points="81.4915,-53.514 90.9122,-58.3619 86.5709,-48.6973 81.4915,-53.514"/>
</g>
<!-- Node6 -->
<g id="node11" class="node"><title>Node6</title>
<a xlink:href="classPixButtonSimple.htm" target="_top" xlink:title="PixButtonSimple">
<polygon fill="white" stroke="black" points="110,-0.5 110,-21.5 202,-21.5 202,-0.5 110,-0.5"/>
<text text-anchor="middle" x="156" y="-8.5" font-family="Helvetica,sans-Serif" font-size="10.00">PixButtonSimple</text>
</a>
</g>
<!-- Node1&#45;&gt;Node6 -->
<g id="edge10" class="edge"><title>Node1&#45;&gt;Node6</title>
<path fill="none" stroke="midnightblue" d="M118.23,-50.8299C127.355,-41.2078 138.24,-29.7282 145.976,-21.5707"/>
<polygon fill="midnightblue" stroke="midnightblue" points="115.429,-48.6973 111.088,-58.3619 120.508,-53.514 115.429,-48.6973"/>
</g>
<!-- Node2 -->
<g id="node2" class="node"><title>Node2</title>
<a xlink:href="classThingPaintable.htm" target="_top" xlink:title="ThingPaintable">
<polygon fill="white" stroke="black" points="57.5,-116.5 57.5,-137.5 144.5,-137.5 144.5,-116.5 57.5,-116.5"/>
<text text-anchor="middle" x="101" y="-124.5" font-family="Helvetica,sans-Serif" font-size="10.00">ThingPaintable</text>
</a>
</g>
<!-- Node2&#45;&gt;Node1 -->
<g id="edge2" class="edge"><title>Node2&#45;&gt;Node1</title>
<path fill="none" stroke="midnightblue" d="M101,-106.191C101,-97.1684 101,-86.9941 101,-79.5707"/>
<polygon fill="midnightblue" stroke="midnightblue" points="97.5001,-106.362 101,-116.362 104.5,-106.362 97.5001,-106.362"/>
</g>
<!-- Node3 -->
<g id="node4" class="node"><title>Node3</title>
<a xlink:href="classThing.htm" target="_top" xlink:title="Thing">
<polygon fill="white" stroke="black" points="79,-174.5 79,-195.5 123,-195.5 123,-174.5 79,-174.5"/>
<text text-anchor="middle" x="101" y="-182.5" font-family="Helvetica,sans-Serif" font-size="10.00">Thing</text>
</a>
</g>
<!-- Node3&#45;&gt;Node2 -->
<g id="edge4" class="edge"><title>Node3&#45;&gt;Node2</title>
<path fill="none" stroke="midnightblue" d="M101,-164.191C101,-155.168 101,-144.994 101,-137.571"/>
<polygon fill="midnightblue" stroke="midnightblue" points="97.5001,-164.362 101,-174.362 104.5,-164.362 97.5001,-164.362"/>
</g>
<!-- Node4 -->
<g id="node6" class="node"><title>Node4</title>
<a xlink:href="classQGraphicsObject.htm" target="_top" xlink:title="QGraphicsObject">
<polygon fill="white" stroke="black" points="52,-232.5 52,-253.5 150,-253.5 150,-232.5 52,-232.5"/>
<text text-anchor="middle" x="101" y="-240.5" font-family="Helvetica,sans-Serif" font-size="10.00">QGraphicsObject</text>
</a>
</g>
<!-- Node4&#45;&gt;Node3 -->
<g id="edge6" class="edge"><title>Node4&#45;&gt;Node3</title>
<path fill="none" stroke="midnightblue" d="M101,-222.191C101,-213.168 101,-202.994 101,-195.571"/>
<polygon fill="midnightblue" stroke="midnightblue" points="97.5001,-222.362 101,-232.362 104.5,-222.362 97.5001,-222.362"/>
</g>
</g>
</svg>
