<?xml version="1.0" encoding="UTF-8" standalone="no"?>
<!DOCTYPE svg PUBLIC "-//W3C//DTD SVG 1.1//EN"
 "http://www.w3.org/Graphics/SVG/1.1/DTD/svg11.dtd">
<!-- Generated by graphviz version 2.26.3 (20100126.1600)
 -->
<!-- Title: IconBase Pages: 1 -->
<svg width="902pt" height="1304pt"
 viewBox="0.00 0.00 902.00 1304.39" xmlns="http://www.w3.org/2000/svg" xmlns:xlink="http://www.w3.org/1999/xlink">
<g id="graph1" class="graph" transform="scale(1 1) rotate(0) translate(4 1300.39)">
<title>IconBase</title>
<polygon fill="white" stroke="white" points="-4,5 -4,-1300.39 899,-1300.39 899,5 -4,5"/>
<!-- Node1 -->
<g id="node1" class="node"><title>Node1</title>
<polygon fill="#bfbfbf" stroke="black" points="832.5,-704.889 832.5,-725.889 893.5,-725.889 893.5,-704.889 832.5,-704.889"/>
<text text-anchor="middle" x="863" y="-712.889" font-family="Helvetica,sans-Serif" font-size="10.00">IconBase</text>
</g>
<!-- Node2 -->
<g id="node2" class="node"><title>Node2</title>
<a xlink:href="classThingPaintable.htm" target="_top" xlink:title="ThingPaintable">
<polygon fill="white" stroke="black" points="479.5,-1154.89 479.5,-1175.89 566.5,-1175.89 566.5,-1154.89 479.5,-1154.89"/>
<text text-anchor="middle" x="523" y="-1162.89" font-family="Helvetica,sans-Serif" font-size="10.00">ThingPaintable</text>
</a>
</g>
<!-- Node2&#45;&gt;Node1 -->
<g id="edge2" class="edge"><title>Node2&#45;&gt;Node1</title>
<path fill="none" stroke="midnightblue" d="M576.924,-1171.29C643.052,-1175.23 753.752,-1170.55 814,-1105.39 840.58,-1076.64 858.883,-786 862.388,-726.136"/>
<polygon fill="midnightblue" stroke="midnightblue" points="576.924,-1167.78 566.708,-1170.59 576.446,-1174.76 576.924,-1167.78"/>
</g>
<!-- Node3 -->
<g id="node4" class="node"><title>Node3</title>
<a xlink:href="classThing.htm" target="_top" xlink:title="Thing">
<polygon fill="white" stroke="black" points="237,-1154.89 237,-1175.89 281,-1175.89 281,-1154.89 237,-1154.89"/>
<text text-anchor="middle" x="259" y="-1162.89" font-family="Helvetica,sans-Serif" font-size="10.00">Thing</text>
</a>
</g>
<!-- Node3&#45;&gt;Node2 -->
<g id="edge4" class="edge"><title>Node3&#45;&gt;Node2</title>
<path fill="none" stroke="midnightblue" d="M291.296,-1165.39C338.442,-1165.39 426.242,-1165.39 479.178,-1165.39"/>
<polygon fill="midnightblue" stroke="midnightblue" points="291.054,-1161.89 281.054,-1165.39 291.054,-1168.89 291.054,-1161.89"/>
</g>
<!-- Node4 -->
<g id="node6" class="node"><title>Node4</title>
<a xlink:href="classQGraphicsObject.htm" target="_top" xlink:title="QGraphicsObject">
<polygon fill="white" stroke="black" points="3,-1174.89 3,-1195.89 101,-1195.89 101,-1174.89 3,-1174.89"/>
<text text-anchor="middle" x="52" y="-1182.89" font-family="Helvetica,sans-Serif" font-size="10.00">QGraphicsObject</text>
</a>
</g>
<!-- Node4&#45;&gt;Node3 -->
<g id="edge6" class="edge"><title>Node4&#45;&gt;Node3</title>
<path fill="none" stroke="midnightblue" d="M111.177,-1179.67C153.163,-1175.61 207.148,-1170.4 236.884,-1167.53"/>
<polygon fill="midnightblue" stroke="midnightblue" points="110.673,-1176.2 101.056,-1180.65 111.346,-1183.17 110.673,-1176.2"/>
</g>
<!-- Node5 -->
<g id="node8" class="node"><title>Node5</title>
<polygon fill="white" stroke="#bfbfbf" points="0,-1134.89 0,-1155.89 104,-1155.89 104,-1134.89 0,-1134.89"/>
<text text-anchor="middle" x="52" y="-1142.89" font-family="Helvetica,sans-Serif" font-size="10.00">QPointer&lt; Thing &gt;</text>
</g>
<!-- Node5&#45;&gt;Node3 -->
<g id="edge8" class="edge"><title>Node5&#45;&gt;Node3</title>
<path fill="none" stroke="#9a32cd" stroke-dasharray="5,2" d="M114.129,-1144.63C144.428,-1145.13 181.302,-1147.04 214,-1152.39 221.544,-1153.62 229.615,-1155.7 236.809,-1157.84"/>
<polygon fill="#9a32cd" stroke="#9a32cd" points="114.163,-1141.13 104.122,-1144.51 114.079,-1148.12 114.163,-1141.13"/>
<text text-anchor="middle" x="168" y="-1156.39" font-family="Helvetica,sans-Serif" font-size="10.00"> m_qp_takerOwner</text>
</g>
<!-- Node6 -->
<g id="node10" class="node"><title>Node6</title>
<polygon fill="white" stroke="#bfbfbf" points="232.5,-1208.89 232.5,-1229.89 285.5,-1229.89 285.5,-1208.89 232.5,-1208.89"/>
<text text-anchor="middle" x="259" y="-1216.89" font-family="Helvetica,sans-Serif" font-size="10.00">QString</text>
</g>
<!-- Node6&#45;&gt;Node1 -->
<g id="edge30" class="edge"><title>Node6&#45;&gt;Node1</title>
<path fill="none" stroke="#9a32cd" stroke-dasharray="5,2" d="M295.993,-1220.71C408.425,-1223.86 742.766,-1226.72 814,-1152.39 844.505,-1120.56 859.855,-790.356 862.562,-726.167"/>
<polygon fill="#9a32cd" stroke="#9a32cd" points="295.921,-1217.2 285.821,-1220.4 295.712,-1224.2 295.921,-1217.2"/>
<text text-anchor="middle" x="523" y="-1224.39" font-family="Helvetica,sans-Serif" font-size="10.00"> m_iconLabel</text>
</g>
<!-- Node6&#45;&gt;Node2 -->
<g id="edge10" class="edge"><title>Node6&#45;&gt;Node2</title>
<path fill="none" stroke="#9a32cd" stroke-dasharray="5,2" d="M288.859,-1204.81C293.834,-1202.76 299.002,-1200.86 304,-1199.39 336.021,-1189.97 425.231,-1177.7 479.403,-1170.77"/>
<polygon fill="#9a32cd" stroke="#9a32cd" points="287.387,-1201.63 279.628,-1208.85 290.193,-1208.05 287.387,-1201.63"/>
<text text-anchor="middle" x="366" y="-1203.39" font-family="Helvetica,sans-Serif" font-size="10.00"> m_uiState</text>
</g>
<!-- Node7 -->
<g id="node12" class="node"><title>Node7</title>
<polygon fill="white" stroke="#bfbfbf" points="232.5,-1255.89 232.5,-1276.89 285.5,-1276.89 285.5,-1255.89 232.5,-1255.89"/>
<text text-anchor="middle" x="259" y="-1263.89" font-family="Helvetica,sans-Serif" font-size="10.00">QRectF</text>
</g>
<!-- Node7&#45;&gt;Node1 -->
<g id="edge28" class="edge"><title>Node7&#45;&gt;Node1</title>
<path fill="none" stroke="#9a32cd" stroke-dasharray="5,2" d="M287.387,-1281.13C292.773,-1283.31 298.459,-1285.21 304,-1286.39 357.911,-1297.83 373.258,-1292.75 428,-1286.39 603.079,-1266.03 697.711,-1327.84 814,-1195.39 846.054,-1158.88 860.253,-794.324 862.634,-726.291"/>
<polygon fill="#9a32cd" stroke="#9a32cd" points="288.673,-1277.87 278.113,-1277 285.83,-1284.26 288.673,-1277.87"/>
<text text-anchor="middle" x="523" y="-1287.39" font-family="Helvetica,sans-Serif" font-size="10.00"> m_alignmentGeomPrecomputed</text>
</g>
<!-- Node7&#45;&gt;Node2 -->
<g id="edge12" class="edge"><title>Node7&#45;&gt;Node2</title>
<path fill="none" stroke="#9a32cd" stroke-dasharray="5,2" d="M295.45,-1258.95C330.474,-1251.03 384.367,-1236.81 428,-1216.39 436.708,-1212.31 437.697,-1209.24 446,-1204.39 463.859,-1193.96 484.839,-1183.44 500.386,-1175.96"/>
<polygon fill="#9a32cd" stroke="#9a32cd" points="294.668,-1255.53 285.657,-1261.11 296.176,-1262.37 294.668,-1255.53"/>
<text text-anchor="middle" x="366" y="-1273.39" font-family="Helvetica,sans-Serif" font-size="10.00"> m_boundingRect</text>
<text text-anchor="middle" x="366" y="-1260.39" font-family="Helvetica,sans-Serif" font-size="10.00">m_geom</text>
</g>
<!-- Node8 -->
<g id="node14" class="node"><title>Node8</title>
<a xlink:href="classint.htm" target="_top" xlink:title="int">
<polygon fill="white" stroke="black" points="244.5,-1097.89 244.5,-1118.89 273.5,-1118.89 273.5,-1097.89 244.5,-1097.89"/>
<text text-anchor="middle" x="259" y="-1105.89" font-family="Helvetica,sans-Serif" font-size="10.00">int</text>
</a>
</g>
<!-- Node8&#45;&gt;Node1 -->
<g id="edge40" class="edge"><title>Node8&#45;&gt;Node1</title>
<path fill="none" stroke="#9a32cd" stroke-dasharray="5,2" d="M283.819,-1107.6C389.107,-1104.15 794.341,-1089.71 814,-1071.39 840.07,-1047.09 858.639,-782.544 862.328,-725.989"/>
<polygon fill="#9a32cd" stroke="#9a32cd" points="283.419,-1104.11 273.538,-1107.93 283.646,-1111.11 283.419,-1104.11"/>
<text text-anchor="middle" x="523" y="-1131.39" font-family="Helvetica,sans-Serif" font-size="10.00"> m_minProgressValue</text>
<text text-anchor="middle" x="523" y="-1118.39" font-family="Helvetica,sans-Serif" font-size="10.00">m_maxProgressValue</text>
<text text-anchor="middle" x="523" y="-1105.39" font-family="Helvetica,sans-Serif" font-size="10.00">m_lastProgressValue</text>
</g>
<!-- Node8&#45;&gt;Node2 -->
<g id="edge14" class="edge"><title>Node8&#45;&gt;Node2</title>
<path fill="none" stroke="#9a32cd" stroke-dasharray="5,2" d="M283.742,-1111.18C316.87,-1115.18 377.342,-1123.41 428,-1135.39 450.218,-1140.64 474.781,-1148.45 493.364,-1154.79"/>
<polygon fill="#9a32cd" stroke="#9a32cd" points="283.95,-1107.68 273.609,-1109.99 283.131,-1114.63 283.95,-1107.68"/>
<text text-anchor="middle" x="366" y="-1152.39" font-family="Helvetica,sans-Serif" font-size="10.00"> MagicTypePropertyValue</text>
<text text-anchor="middle" x="366" y="-1139.39" font-family="Helvetica,sans-Serif" font-size="10.00">MagicTypePropertyKey</text>
</g>
<!-- Node9 -->
<g id="node16" class="node"><title>Node9</title>
<polygon fill="white" stroke="#bfbfbf" points="462.5,-1033.89 462.5,-1054.89 583.5,-1054.89 583.5,-1033.89 462.5,-1033.89"/>
<text text-anchor="middle" x="523" y="-1041.89" font-family="Helvetica,sans-Serif" font-size="10.00">QPointer&lt; IconBase &gt;</text>
</g>
<!-- Node9&#45;&gt;Node1 -->
<g id="edge16" class="edge"><title>Node9&#45;&gt;Node1</title>
<path fill="none" stroke="#9a32cd" stroke-dasharray="5,2" d="M594.083,-1051.36C669.716,-1057.1 782.718,-1060.35 814,-1032.39 837.512,-1011.38 857.777,-779.395 862.135,-726.21"/>
<polygon fill="#9a32cd" stroke="#9a32cd" points="593.916,-1047.83 583.671,-1050.53 593.364,-1054.81 593.916,-1047.83"/>
<text text-anchor="middle" x="716" y="-1058.39" font-family="Helvetica,sans-Serif" font-size="10.00"> m_qp_masterIcon</text>
</g>
<!-- Node10 -->
<g id="node18" class="node"><title>Node10</title>
<polygon fill="white" stroke="#bfbfbf" points="501.5,-993.889 501.5,-1014.89 544.5,-1014.89 544.5,-993.889 501.5,-993.889"/>
<text text-anchor="middle" x="523" y="-1001.89" font-family="Helvetica,sans-Serif" font-size="10.00">Enum</text>
</g>
<!-- Node10&#45;&gt;Node1 -->
<g id="edge18" class="edge"><title>Node10&#45;&gt;Node1</title>
<path fill="none" stroke="#9a32cd" stroke-dasharray="5,2" d="M554.819,-1008.34C622.171,-1015.95 776.074,-1029.17 814,-996.389 855.866,-960.198 861.978,-773.018 862.856,-726.076"/>
<polygon fill="#9a32cd" stroke="#9a32cd" points="555.121,-1004.85 544.784,-1007.17 554.313,-1011.8 555.121,-1004.85"/>
<text text-anchor="middle" x="716" y="-1021.39" font-family="Helvetica,sans-Serif" font-size="10.00"> m_showWhichDeleteRemove</text>
</g>
<!-- Node11 -->
<g id="node20" class="node"><title>Node11</title>
<polygon fill="white" stroke="#bfbfbf" points="452.5,-782.889 452.5,-803.889 593.5,-803.889 593.5,-782.889 452.5,-782.889"/>
<text text-anchor="middle" x="523" y="-790.889" font-family="Helvetica,sans-Serif" font-size="10.00">QPointer&lt; PixmapObject &gt;</text>
</g>
<!-- Node11&#45;&gt;Node1 -->
<g id="edge20" class="edge"><title>Node11&#45;&gt;Node1</title>
<path fill="none" stroke="#9a32cd" stroke-dasharray="5,2" d="M603.584,-788.474C683.092,-783.169 795.39,-774.28 814,-765.389 832.424,-756.586 847.769,-737.804 856.142,-725.931"/>
<polygon fill="#9a32cd" stroke="#9a32cd" points="603.32,-784.983 593.572,-789.134 603.781,-791.968 603.32,-784.983"/>
<text text-anchor="start" x="625" y="-985.389" font-family="Helvetica,sans-Serif" font-size="10.00"> m_qp_removeDecoratorCurrent</text>
<text text-anchor="middle" x="716" y="-972.389" font-family="Helvetica,sans-Serif" font-size="10.00">StatePixmap</text>
<text text-anchor="start" x="625" y="-959.389" font-family="Helvetica,sans-Serif" font-size="10.00">m_qp_deleteDecoratorCurrent</text>
<text text-anchor="middle" x="716" y="-946.389" font-family="Helvetica,sans-Serif" font-size="10.00">StatePixmap</text>
<text text-anchor="start" x="625" y="-933.389" font-family="Helvetica,sans-Serif" font-size="10.00">m_qp_deletePressedDecorator</text>
<text text-anchor="middle" x="716" y="-920.389" font-family="Helvetica,sans-Serif" font-size="10.00">Pixmap</text>
<text text-anchor="middle" x="716" y="-907.389" font-family="Helvetica,sans-Serif" font-size="10.00">m_qp_iconPixmap</text>
<text text-anchor="start" x="625" y="-894.389" font-family="Helvetica,sans-Serif" font-size="10.00">m_qp_installStatusDecorator</text>
<text text-anchor="middle" x="716" y="-881.389" font-family="Helvetica,sans-Serif" font-size="10.00">Pixmap</text>
<text text-anchor="middle" x="716" y="-868.389" font-family="Helvetica,sans-Serif" font-size="10.00">m_qp_iconFeedbackPixmap</text>
<text text-anchor="start" x="625" y="-855.389" font-family="Helvetica,sans-Serif" font-size="10.00">m_qp_drDecoratorCurrentlyRendering</text>
<text text-anchor="middle" x="716" y="-842.389" font-family="Helvetica,sans-Serif" font-size="10.00">Pixmap</text>
<text text-anchor="middle" x="716" y="-829.389" font-family="Helvetica,sans-Serif" font-size="10.00">m_qp_removeDecoratorPixmap</text>
<text text-anchor="middle" x="716" y="-816.389" font-family="Helvetica,sans-Serif" font-size="10.00">m_qp_prerenderedLabelPixmap</text>
<text text-anchor="middle" x="716" y="-803.389" font-family="Helvetica,sans-Serif" font-size="10.00">m_qp_iconFramePixmap</text>
<text text-anchor="middle" x="716" y="-790.389" font-family="Helvetica,sans-Serif" font-size="10.00">...</text>
</g>
<!-- Node12 -->
<g id="node22" class="node"><title>Node12</title>
<polygon fill="white" stroke="#bfbfbf" points="498,-742.889 498,-763.889 548,-763.889 548,-742.889 498,-742.889"/>
<text text-anchor="middle" x="523" y="-750.889" font-family="Helvetica,sans-Serif" font-size="10.00">QColor</text>
</g>
<!-- Node12&#45;&gt;Node1 -->
<g id="edge22" class="edge"><title>Node12&#45;&gt;Node1</title>
<path fill="none" stroke="#9a32cd" stroke-dasharray="5,2" d="M558.399,-752.7C613.474,-751.129 722.83,-746.006 814,-729.389 820.006,-728.294 826.334,-726.772 832.374,-725.133"/>
<polygon fill="#9a32cd" stroke="#9a32cd" points="558.033,-749.208 548.129,-752.969 558.217,-756.206 558.033,-749.208"/>
<text text-anchor="middle" x="716" y="-753.389" font-family="Helvetica,sans-Serif" font-size="10.00"> m_labelColor</text>
</g>
<!-- Node13 -->
<g id="node24" class="node"><title>Node13</title>
<polygon fill="white" stroke="#bfbfbf" points="495.5,-702.889 495.5,-723.889 550.5,-723.889 550.5,-702.889 495.5,-702.889"/>
<text text-anchor="middle" x="523" y="-710.889" font-family="Helvetica,sans-Serif" font-size="10.00">QPointF</text>
</g>
<!-- Node13&#45;&gt;Node1 -->
<g id="edge24" class="edge"><title>Node13&#45;&gt;Node1</title>
<path fill="none" stroke="#9a32cd" stroke-dasharray="5,2" d="M560.774,-713.611C628.641,-714.01 769.929,-714.841 832.289,-715.208"/>
<polygon fill="#9a32cd" stroke="#9a32cd" points="560.556,-710.11 550.536,-713.551 560.515,-717.109 560.556,-710.11"/>
<text text-anchor="middle" x="716" y="-718.389" font-family="Helvetica,sans-Serif" font-size="10.00"> m_activePositionOffsetFromPos</text>
</g>
<!-- Node14 -->
<g id="node26" class="node"><title>Node14</title>
<polygon fill="white" stroke="#bfbfbf" points="484.5,-662.889 484.5,-683.889 561.5,-683.889 561.5,-662.889 484.5,-662.889"/>
<text text-anchor="middle" x="523" y="-670.889" font-family="Helvetica,sans-Serif" font-size="10.00">QTextLayout</text>
</g>
<!-- Node14&#45;&gt;Node1 -->
<g id="edge26" class="edge"><title>Node14&#45;&gt;Node1</title>
<path fill="none" stroke="#9a32cd" stroke-dasharray="5,2" d="M571.707,-672.946C630.032,-673.397 730.336,-677.294 814,-696.389 822.717,-698.378 831.941,-701.629 840.006,-704.884"/>
<polygon fill="#9a32cd" stroke="#9a32cd" points="571.684,-669.446 561.668,-672.9 571.652,-676.446 571.684,-669.446"/>
<text text-anchor="middle" x="716" y="-700.389" font-family="Helvetica,sans-Serif" font-size="10.00"> m_textLayoutObject</text>
</g>
<!-- Node15 -->
<g id="node30" class="node"><title>Node15</title>
<polygon fill="white" stroke="#bfbfbf" points="504,-593.889 504,-614.889 542,-614.889 542,-593.889 504,-593.889"/>
<text text-anchor="middle" x="523" y="-601.889" font-family="Helvetica,sans-Serif" font-size="10.00">char</text>
</g>
<!-- Node15&#45;&gt;Node1 -->
<g id="edge32" class="edge"><title>Node15&#45;&gt;Node1</title>
<path fill="none" stroke="#9a32cd" stroke-dasharray="5,2" d="M552.255,-602.053C617.298,-597.431 771.512,-589.8 814,-617.389 845.11,-637.589 857.256,-683.876 861.279,-704.788"/>
<polygon fill="#9a32cd" stroke="#9a32cd" points="551.971,-598.564 542.256,-602.79 552.486,-605.545 551.971,-598.564"/>
<text text-anchor="middle" x="716" y="-660.389" font-family="Helvetica,sans-Serif" font-size="10.00"> IconLabelPropertyName</text>
<text text-anchor="start" x="620" y="-647.389" font-family="Helvetica,sans-Serif" font-size="10.00">IconTransferContextProperty</text>
<text text-anchor="middle" x="716" y="-634.389" font-family="Helvetica,sans-Serif" font-size="10.00">Name</text>
<text text-anchor="middle" x="716" y="-621.389" font-family="Helvetica,sans-Serif" font-size="10.00">IconLastPageVisitedIndexPropertyName</text>
</g>
<!-- Node16 -->
<g id="node32" class="node"><title>Node16</title>
<polygon fill="white" stroke="#bfbfbf" points="494,-548.889 494,-569.889 552,-569.889 552,-548.889 494,-548.889"/>
<text text-anchor="middle" x="523" y="-556.889" font-family="Helvetica,sans-Serif" font-size="10.00">QState *</text>
</g>
<!-- Node16&#45;&gt;Node1 -->
<g id="edge34" class="edge"><title>Node16&#45;&gt;Node1</title>
<path fill="none" stroke="#9a32cd" stroke-dasharray="5,2" d="M562.583,-555.074C632.777,-548.283 775.324,-538.636 814,-567.389 836.916,-584.425 855.344,-673.92 861.114,-704.856"/>
<polygon fill="#9a32cd" stroke="#9a32cd" points="561.972,-551.617 552.368,-556.091 562.666,-558.583 561.972,-551.617"/>
<text text-anchor="middle" x="716" y="-584.389" font-family="Helvetica,sans-Serif" font-size="10.00"> m_p_stateActive</text>
<text text-anchor="middle" x="716" y="-571.389" font-family="Helvetica,sans-Serif" font-size="10.00">m_p_stateNormal</text>
</g>
<!-- Node17 -->
<g id="node34" class="node"><title>Node17</title>
<polygon fill="white" stroke="#bfbfbf" points="474,-508.889 474,-529.889 572,-529.889 572,-508.889 474,-508.889"/>
<text text-anchor="middle" x="523" y="-516.889" font-family="Helvetica,sans-Serif" font-size="10.00">QStateMachine *</text>
</g>
<!-- Node17&#45;&gt;Node1 -->
<g id="edge36" class="edge"><title>Node17&#45;&gt;Node1</title>
<path fill="none" stroke="#9a32cd" stroke-dasharray="5,2" d="M582.484,-513.624C657.14,-507.719 779.597,-502.861 814,-530.389 841.954,-552.755 857.567,-668.561 861.808,-704.642"/>
<polygon fill="#9a32cd" stroke="#9a32cd" points="581.961,-510.155 572.281,-514.461 582.534,-517.131 581.961,-510.155"/>
<text text-anchor="middle" x="716" y="-534.389" font-family="Helvetica,sans-Serif" font-size="10.00"> m_p_buttonFSM</text>
</g>
<!-- Node18 -->
<g id="node36" class="node"><title>Node18</title>
<polygon fill="white" stroke="#bfbfbf" points="459,-468.889 459,-489.889 587,-489.889 587,-468.889 459,-468.889"/>
<text text-anchor="middle" x="523" y="-476.889" font-family="Helvetica,sans-Serif" font-size="10.00">QPointer&lt; LayoutItem &gt;</text>
</g>
<!-- Node18&#45;&gt;Node1 -->
<g id="edge38" class="edge"><title>Node18&#45;&gt;Node1</title>
<path fill="none" stroke="#9a32cd" stroke-dasharray="5,2" d="M597.703,-472.507C672.986,-467.276 782.421,-464.881 814,-491.389 847.463,-519.478 859.566,-664.077 862.337,-704.739"/>
<polygon fill="#9a32cd" stroke="#9a32cd" points="597.039,-469.046 587.318,-473.261 597.546,-476.027 597.039,-469.046"/>
<text text-anchor="middle" x="716" y="-495.389" font-family="Helvetica,sans-Serif" font-size="10.00"> m_qp_layoutItemAssociation</text>
</g>
<!-- Node19 -->
<g id="node39" class="node"><title>Node19</title>
<polygon fill="white" stroke="#bfbfbf" points="505,-358.889 505,-379.889 541,-379.889 541,-358.889 505,-358.889"/>
<text text-anchor="middle" x="523" y="-366.889" font-family="Helvetica,sans-Serif" font-size="10.00">bool</text>
</g>
<!-- Node19&#45;&gt;Node1 -->
<g id="edge42" class="edge"><title>Node19&#45;&gt;Node1</title>
<path fill="none" stroke="#9a32cd" stroke-dasharray="5,2" d="M551.038,-365.487C616.289,-357.076 775.676,-340.597 814,-374.389 839.571,-396.935 858.461,-649.806 862.287,-704.852"/>
<polygon fill="#9a32cd" stroke="#9a32cd" points="550.508,-362.027 541.053,-366.807 551.425,-368.966 550.508,-362.027"/>
<text text-anchor="middle" x="716" y="-456.389" font-family="Helvetica,sans-Serif" font-size="10.00"> m_showFeedback</text>
<text text-anchor="middle" x="716" y="-443.389" font-family="Helvetica,sans-Serif" font-size="10.00">m_canRequestLauncher</text>
<text text-anchor="middle" x="716" y="-430.389" font-family="Helvetica,sans-Serif" font-size="10.00">m_showFrame</text>
<text text-anchor="middle" x="716" y="-417.389" font-family="Helvetica,sans-Serif" font-size="10.00">m_showLabel</text>
<text text-anchor="middle" x="716" y="-404.389" font-family="Helvetica,sans-Serif" font-size="10.00">m_usePrerenderedLabel</text>
<text text-anchor="middle" x="716" y="-391.389" font-family="Helvetica,sans-Serif" font-size="10.00">m_useOwnerSetAutopaintClip</text>
<text text-anchor="middle" x="716" y="-378.389" font-family="Helvetica,sans-Serif" font-size="10.00">m_showIcon</text>
</g>
<!-- Node20 -->
<g id="node41" class="node"><title>Node20</title>
<polygon fill="white" stroke="#bfbfbf" points="499.5,-192.889 499.5,-213.889 546.5,-213.889 546.5,-192.889 499.5,-192.889"/>
<text text-anchor="middle" x="523" y="-200.889" font-family="Helvetica,sans-Serif" font-size="10.00">QRect</text>
</g>
<!-- Node20&#45;&gt;Node1 -->
<g id="edge44" class="edge"><title>Node20&#45;&gt;Node1</title>
<path fill="none" stroke="#9a32cd" stroke-dasharray="5,2" d="M556.946,-198.485C625.593,-189.399 777.484,-173.765 814,-207.389 851.967,-242.349 861.413,-634.49 862.804,-704.67"/>
<polygon fill="#9a32cd" stroke="#9a32cd" points="556.113,-195.066 546.674,-199.879 557.054,-202.003 556.113,-195.066"/>
<text text-anchor="middle" x="716" y="-341.389" font-family="Helvetica,sans-Serif" font-size="10.00"> m_iconFrameGeom</text>
<text text-anchor="middle" x="716" y="-328.389" font-family="Helvetica,sans-Serif" font-size="10.00">m_labelMaxGeom</text>
<text text-anchor="middle" x="716" y="-315.389" font-family="Helvetica,sans-Serif" font-size="10.00">m_iconFeedbackPixmapGeom</text>
<text text-anchor="middle" x="716" y="-302.389" font-family="Helvetica,sans-Serif" font-size="10.00">m_iconPixmapGeom</text>
<text text-anchor="middle" x="716" y="-289.389" font-family="Helvetica,sans-Serif" font-size="10.00">m_ownerSetAutopaintClip</text>
<text text-anchor="middle" x="716" y="-276.389" font-family="Helvetica,sans-Serif" font-size="10.00">m_deleteDecoratorPixmapGeom</text>
<text text-anchor="middle" x="716" y="-263.389" font-family="Helvetica,sans-Serif" font-size="10.00">m_installStatusDecoratorGeom</text>
<text text-anchor="middle" x="716" y="-250.389" font-family="Helvetica,sans-Serif" font-size="10.00">m_labelGeom</text>
<text text-anchor="middle" x="716" y="-237.389" font-family="Helvetica,sans-Serif" font-size="10.00">m_deleteDecoratorGeom</text>
<text text-anchor="middle" x="716" y="-224.389" font-family="Helvetica,sans-Serif" font-size="10.00">m_iconFramePixmapGeom</text>
<text text-anchor="middle" x="716" y="-211.389" font-family="Helvetica,sans-Serif" font-size="10.00">...</text>
</g>
<!-- Node21 -->
<g id="node43" class="node"><title>Node21</title>
<polygon fill="white" stroke="#bfbfbf" points="498.5,-26.8886 498.5,-47.8886 547.5,-47.8886 547.5,-26.8886 498.5,-26.8886"/>
<text text-anchor="middle" x="523" y="-34.8886" font-family="Helvetica,sans-Serif" font-size="10.00">QPoint</text>
</g>
<!-- Node21&#45;&gt;Node1 -->
<g id="edge46" class="edge"><title>Node21&#45;&gt;Node1</title>
<path fill="none" stroke="#9a32cd" stroke-dasharray="5,2" d="M557.174,-24.7529C617.732,-4.81742 744.072,25.3226 814,-40.3886 839.312,-64.1747 859.676,-620.097 862.631,-704.65"/>
<polygon fill="#9a32cd" stroke="#9a32cd" points="556.038,-21.4422 547.692,-27.9692 558.287,-28.0712 556.038,-21.4422"/>
<text text-anchor="middle" x="716" y="-174.389" font-family="Helvetica,sans-Serif" font-size="10.00"> m_labelSrcPrecomputed</text>
<text text-anchor="middle" x="716" y="-161.389" font-family="Helvetica,sans-Serif" font-size="10.00">m_removeDecoratorSrcPrecomputed</text>
<text text-anchor="middle" x="716" y="-148.389" font-family="Helvetica,sans-Serif" font-size="10.00">m_deleteDecoratorPosICS</text>
<text text-anchor="middle" x="716" y="-135.389" font-family="Helvetica,sans-Serif" font-size="10.00">m_deleteDecoratorSrcPrecomputed</text>
<text text-anchor="middle" x="716" y="-122.389" font-family="Helvetica,sans-Serif" font-size="10.00">m_iconFrameSrcPrecomputed</text>
<text text-anchor="middle" x="716" y="-109.389" font-family="Helvetica,sans-Serif" font-size="10.00">m_installStatusDecoratorPosICS</text>
<text text-anchor="middle" x="716" y="-96.3886" font-family="Helvetica,sans-Serif" font-size="10.00">m_removeDecoratorPosICS</text>
<text text-anchor="middle" x="716" y="-83.3886" font-family="Helvetica,sans-Serif" font-size="10.00">m_iconPosICS</text>
<text text-anchor="middle" x="716" y="-70.3886" font-family="Helvetica,sans-Serif" font-size="10.00">m_labelPosICS</text>
<text text-anchor="middle" x="716" y="-57.3886" font-family="Helvetica,sans-Serif" font-size="10.00">m_installStatusDecoratorSrcPrecomputed</text>
<text text-anchor="middle" x="716" y="-44.3886" font-family="Helvetica,sans-Serif" font-size="10.00">...</text>
</g>
</g>
</svg>
