<?xml version="1.0" encoding="UTF-8" standalone="no"?>
<!DOCTYPE svg PUBLIC "-//W3C//DTD SVG 1.1//EN"
 "http://www.w3.org/Graphics/SVG/1.1/DTD/svg11.dtd">
<!-- Generated by graphviz version 2.26.3 (20100126.1600)
 -->
<!-- Title: ReorderableIconLayout Pages: 1 -->
<svg width="824pt" height="866pt"
 viewBox="0.00 0.00 824.00 866.23" xmlns="http://www.w3.org/2000/svg" xmlns:xlink="http://www.w3.org/1999/xlink">
<g id="graph1" class="graph" transform="scale(1 1) rotate(0) translate(4 862.225)">
<title>ReorderableIconLayout</title>
<polygon fill="white" stroke="white" points="-4,5 -4,-862.225 821,-862.225 821,5 -4,5"/>
<!-- Node1 -->
<g id="node1" class="node"><title>Node1</title>
<polygon fill="#bfbfbf" stroke="black" points="688.5,-419.725 688.5,-440.725 815.5,-440.725 815.5,-419.725 688.5,-419.725"/>
<text text-anchor="middle" x="752" y="-427.725" font-family="Helvetica,sans-Serif" font-size="10.00">ReorderableIconLayout</text>
</g>
<!-- Node2 -->
<g id="node2" class="node"><title>Node2</title>
<a xlink:href="classIconLayout.htm" target="_top" xlink:title="IconLayout">
<polygon fill="white" stroke="black" points="389,-756.725 389,-777.725 457,-777.725 457,-756.725 389,-756.725"/>
<text text-anchor="middle" x="423" y="-764.725" font-family="Helvetica,sans-Serif" font-size="10.00">IconLayout</text>
</a>
</g>
<!-- Node2&#45;&gt;Node1 -->
<g id="edge2" class="edge"><title>Node2&#45;&gt;Node1</title>
<path fill="none" stroke="midnightblue" d="M467.186,-776.706C521.571,-785.606 613.622,-791.266 670,-743.225 718.208,-702.147 745.112,-490.576 750.838,-440.746"/>
<polygon fill="midnightblue" stroke="midnightblue" points="467.612,-773.227 457.16,-774.958 466.41,-780.123 467.612,-773.227"/>
</g>
<!-- Node3 -->
<g id="node4" class="node"><title>Node3</title>
<a xlink:href="classLayoutItem.htm" target="_top" xlink:title="LayoutItem">
<polygon fill="white" stroke="black" points="111,-836.725 111,-857.725 179,-857.725 179,-836.725 111,-836.725"/>
<text text-anchor="middle" x="145" y="-844.725" font-family="Helvetica,sans-Serif" font-size="10.00">LayoutItem</text>
</a>
</g>
<!-- Node3&#45;&gt;Node2 -->
<g id="edge4" class="edge"><title>Node3&#45;&gt;Node2</title>
<path fill="none" stroke="midnightblue" d="M189.704,-842.687C226.427,-838.144 279.458,-829.699 324,-815.225 353.611,-805.604 385.65,-788.775 405.02,-777.817"/>
<polygon fill="midnightblue" stroke="midnightblue" points="188.847,-839.264 179.33,-843.92 189.673,-846.215 188.847,-839.264"/>
</g>
<!-- Node4 -->
<g id="node6" class="node"><title>Node4</title>
<a xlink:href="classQObject.htm" target="_top" xlink:title="QObject">
<polygon fill="white" stroke="black" points="0.5,-836.725 0.5,-857.725 55.5,-857.725 55.5,-836.725 0.5,-836.725"/>
<text text-anchor="middle" x="28" y="-844.725" font-family="Helvetica,sans-Serif" font-size="10.00">QObject</text>
</a>
</g>
<!-- Node4&#45;&gt;Node3 -->
<g id="edge6" class="edge"><title>Node4&#45;&gt;Node3</title>
<path fill="none" stroke="midnightblue" d="M65.85,-847.225C80.3028,-847.225 96.6847,-847.225 110.78,-847.225"/>
<polygon fill="midnightblue" stroke="midnightblue" points="65.7274,-843.725 55.7274,-847.225 65.7273,-850.725 65.7274,-843.725"/>
</g>
<!-- Node5 -->
<g id="node8" class="node"><title>Node5</title>
<polygon fill="white" stroke="#bfbfbf" points="117.5,-796.725 117.5,-817.725 172.5,-817.725 172.5,-796.725 117.5,-796.725"/>
<text text-anchor="middle" x="145" y="-804.725" font-family="Helvetica,sans-Serif" font-size="10.00">QPointF</text>
</g>
<!-- Node5&#45;&gt;Node2 -->
<g id="edge8" class="edge"><title>Node5&#45;&gt;Node2</title>
<path fill="none" stroke="#9a32cd" stroke-dasharray="5,2" d="M182.778,-802.841C219.049,-798.521 275.353,-791.524 324,-784.225 345.558,-780.991 369.666,-776.862 388.695,-773.483"/>
<polygon fill="#9a32cd" stroke="#9a32cd" points="182.168,-799.389 172.648,-804.04 182.991,-806.341 182.168,-799.389"/>
<text text-anchor="middle" x="269" y="-802.225" font-family="Helvetica,sans-Serif" font-size="10.00"> m_pos</text>
</g>
<!-- Node6 -->
<g id="node10" class="node"><title>Node6</title>
<polygon fill="white" stroke="#bfbfbf" points="118.5,-756.725 118.5,-777.725 171.5,-777.725 171.5,-756.725 118.5,-756.725"/>
<text text-anchor="middle" x="145" y="-764.725" font-family="Helvetica,sans-Serif" font-size="10.00">QRectF</text>
</g>
<!-- Node6&#45;&gt;Node2 -->
<g id="edge10" class="edge"><title>Node6&#45;&gt;Node2</title>
<path fill="none" stroke="#9a32cd" stroke-dasharray="5,2" d="M181.83,-767.225C235.914,-767.225 336.084,-767.225 388.692,-767.225"/>
<polygon fill="#9a32cd" stroke="#9a32cd" points="181.656,-763.725 171.656,-767.225 181.656,-770.725 181.656,-763.725"/>
<text text-anchor="middle" x="269" y="-771.225" font-family="Helvetica,sans-Serif" font-size="10.00"> m_geom</text>
</g>
<!-- Node7 -->
<g id="node12" class="node"><title>Node7</title>
<polygon fill="white" stroke="#bfbfbf" points="94.5,-716.725 94.5,-737.725 195.5,-737.725 195.5,-716.725 94.5,-716.725"/>
<text text-anchor="middle" x="145" y="-724.725" font-family="Helvetica,sans-Serif" font-size="10.00">QPointer&lt; Page &gt;</text>
</g>
<!-- Node7&#45;&gt;Node2 -->
<g id="edge12" class="edge"><title>Node7&#45;&gt;Node2</title>
<path fill="none" stroke="#9a32cd" stroke-dasharray="5,2" d="M205.6,-734.366C240.311,-738.618 284.659,-744.323 324,-750.225 345.558,-753.46 369.666,-757.589 388.695,-760.967"/>
<polygon fill="#9a32cd" stroke="#9a32cd" points="205.966,-730.885 195.616,-733.151 205.12,-737.833 205.966,-730.885"/>
<text text-anchor="middle" x="269" y="-754.225" font-family="Helvetica,sans-Serif" font-size="10.00"> m_qp_ownerPage</text>
</g>
<!-- Node8 -->
<g id="node14" class="node"><title>Node8</title>
<polygon fill="white" stroke="#bfbfbf" points="108,-669.725 108,-690.725 182,-690.725 182,-669.725 108,-669.725"/>
<text text-anchor="middle" x="145" y="-677.725" font-family="Helvetica,sans-Serif" font-size="10.00">QTransform</text>
</g>
<!-- Node8&#45;&gt;Node2 -->
<g id="edge14" class="edge"><title>Node8&#45;&gt;Node2</title>
<path fill="none" stroke="#9a32cd" stroke-dasharray="5,2" d="M192.346,-674.842C231.507,-672.977 286.575,-676.637 324,-705.225 340.139,-717.554 326.519,-734.08 342,-747.225 354.918,-758.195 372.948,-763.315 388.718,-765.641"/>
<polygon fill="#9a32cd" stroke="#9a32cd" points="192.02,-671.355 182.253,-675.46 192.449,-678.342 192.02,-671.355"/>
<text text-anchor="middle" x="269" y="-722.225" font-family="Helvetica,sans-Serif" font-size="10.00"> m_pageToLayoutTran</text>
<text text-anchor="middle" x="269" y="-709.225" font-family="Helvetica,sans-Serif" font-size="10.00">m_layoutToPageTran</text>
</g>
<!-- Node9 -->
<g id="node16" class="node"><title>Node9</title>
<polygon fill="white" stroke="#bfbfbf" points="357.5,-716.725 357.5,-737.725 488.5,-737.725 488.5,-716.725 357.5,-716.725"/>
<text text-anchor="middle" x="423" y="-724.725" font-family="Helvetica,sans-Serif" font-size="10.00">QMap&lt; QUuid, QPoint &gt;</text>
</g>
<!-- Node9&#45;&gt;Node1 -->
<g id="edge16" class="edge"><title>Node9&#45;&gt;Node1</title>
<path fill="none" stroke="#9a32cd" stroke-dasharray="5,2" d="M499.058,-727.516C561.883,-726.179 644.701,-720.272 670,-699.225 711.85,-664.41 743.011,-486.131 750.35,-440.747"/>
<polygon fill="#9a32cd" stroke="#9a32cd" points="498.701,-724.022 488.765,-727.698 498.825,-731.02 498.701,-724.022"/>
<text text-anchor="middle" x="596" y="-730.225" font-family="Helvetica,sans-Serif" font-size="10.00"> m_trackedIconLastPosition</text>
</g>
<!-- Node10 -->
<g id="node18" class="node"><title>Node10</title>
<polygon fill="white" stroke="#bfbfbf" points="348.5,-664.225 348.5,-698.225 497.5,-698.225 497.5,-664.225 348.5,-664.225"/>
<text text-anchor="start" x="356.5" y="-685.225" font-family="Helvetica,sans-Serif" font-size="10.00">QMap&lt; QUuid, QPointer</text>
<text text-anchor="middle" x="423" y="-672.225" font-family="Helvetica,sans-Serif" font-size="10.00">&lt; IconReorderAnimation &gt; &gt;</text>
</g>
<!-- Node10&#45;&gt;Node1 -->
<g id="edge18" class="edge"><title>Node10&#45;&gt;Node1</title>
<path fill="none" stroke="#9a32cd" stroke-dasharray="5,2" d="M507.598,-683.171C568.916,-682.859 645.233,-678.363 670,-659.225 706.757,-630.822 740.897,-482.115 749.772,-440.852"/>
<polygon fill="#9a32cd" stroke="#9a32cd" points="507.503,-679.671 497.508,-683.186 507.514,-686.671 507.503,-679.671"/>
<text text-anchor="middle" x="596" y="-686.225" font-family="Helvetica,sans-Serif" font-size="10.00"> m_trackedIconAnimations</text>
</g>
<!-- Node11 -->
<g id="node20" class="node"><title>Node11</title>
<polygon fill="white" stroke="#bfbfbf" points="404,-623.725 404,-644.725 442,-644.725 442,-623.725 404,-623.725"/>
<text text-anchor="middle" x="423" y="-631.725" font-family="Helvetica,sans-Serif" font-size="10.00">char</text>
</g>
<!-- Node11&#45;&gt;Node1 -->
<g id="edge20" class="edge"><title>Node11&#45;&gt;Node1</title>
<path fill="none" stroke="#9a32cd" stroke-dasharray="5,2" d="M452.518,-633.255C514.226,-630.989 652.624,-624.582 670,-612.225 729.875,-569.646 746.817,-472.775 750.872,-440.733"/>
<polygon fill="#9a32cd" stroke="#9a32cd" points="452.144,-629.766 442.275,-633.618 452.393,-636.761 452.144,-629.766"/>
<text text-anchor="start" x="529.5" y="-646.225" font-family="Helvetica,sans-Serif" font-size="10.00"> ReorderFSMPropertyName</text>
<text text-anchor="middle" x="596" y="-633.225" font-family="Helvetica,sans-Serif" font-size="10.00">_isConsistent</text>
</g>
<!-- Node12 -->
<g id="node22" class="node"><title>Node12</title>
<polygon fill="white" stroke="#bfbfbf" points="397.5,-561.725 397.5,-582.725 448.5,-582.725 448.5,-561.725 397.5,-561.725"/>
<text text-anchor="middle" x="423" y="-569.725" font-family="Helvetica,sans-Serif" font-size="10.00">quint64</text>
</g>
<!-- Node12&#45;&gt;Node1 -->
<g id="edge22" class="edge"><title>Node12&#45;&gt;Node1</title>
<path fill="none" stroke="#9a32cd" stroke-dasharray="5,2" d="M458.892,-572.725C518.58,-572.954 635.136,-570.657 670,-550.225 713.758,-524.582 739.353,-465.23 748.331,-440.911"/>
<polygon fill="#9a32cd" stroke="#9a32cd" points="458.808,-569.225 448.786,-572.66 458.763,-576.225 458.808,-569.225"/>
<text text-anchor="middle" x="596" y="-601.225" font-family="Helvetica,sans-Serif" font-size="10.00"> m_timeNormalizationUnit</text>
<text text-anchor="middle" x="596" y="-588.225" font-family="Helvetica,sans-Serif" font-size="10.00">m_listIdInUse</text>
<text text-anchor="middle" x="596" y="-575.225" font-family="Helvetica,sans-Serif" font-size="10.00">m_lastTimeUsed</text>
</g>
<!-- Node13 -->
<g id="node24" class="node"><title>Node13</title>
<polygon fill="white" stroke="#bfbfbf" points="394,-477.725 394,-498.725 452,-498.725 452,-477.725 394,-477.725"/>
<text text-anchor="middle" x="423" y="-485.725" font-family="Helvetica,sans-Serif" font-size="10.00">QState *</text>
</g>
<!-- Node13&#45;&gt;Node1 -->
<g id="edge24" class="edge"><title>Node13&#45;&gt;Node1</title>
<path fill="none" stroke="#9a32cd" stroke-dasharray="5,2" d="M462.49,-486.641C511.673,-484.01 597.999,-477.221 670,-460.225 689.917,-455.524 711.631,-447.438 727.709,-440.845"/>
<polygon fill="#9a32cd" stroke="#9a32cd" points="462.095,-483.157 452.284,-487.156 462.448,-490.148 462.095,-483.157"/>
<text text-anchor="middle" x="596" y="-538.225" font-family="Helvetica,sans-Serif" font-size="10.00"> m_p_fsmStateConsistent</text>
<text text-anchor="start" x="523" y="-525.225" font-family="Helvetica,sans-Serif" font-size="10.00">m_p_fsmStateReorderPending</text>
<text text-anchor="middle" x="596" y="-512.225" font-family="Helvetica,sans-Serif" font-size="10.00">AndTrackedFloating</text>
<text text-anchor="middle" x="596" y="-499.225" font-family="Helvetica,sans-Serif" font-size="10.00">m_p_fsmStateReorderPending</text>
<text text-anchor="middle" x="596" y="-486.225" font-family="Helvetica,sans-Serif" font-size="10.00">m_p_fsmStateTrackedFloating</text>
</g>
<!-- Node14 -->
<g id="node26" class="node"><title>Node14</title>
<polygon fill="white" stroke="#bfbfbf" points="344,-437.725 344,-458.725 502,-458.725 502,-437.725 344,-437.725"/>
<text text-anchor="middle" x="423" y="-445.725" font-family="Helvetica,sans-Serif" font-size="10.00">QList&lt; QPointer&lt; IconCell &gt; &gt;</text>
</g>
<!-- Node14&#45;&gt;Node1 -->
<g id="edge26" class="edge"><title>Node14&#45;&gt;Node1</title>
<path fill="none" stroke="#9a32cd" stroke-dasharray="5,2" d="M512.436,-443.332C568.086,-440.287 638.326,-436.445 688.331,-433.709"/>
<polygon fill="#9a32cd" stroke="#9a32cd" points="512.016,-439.85 502.222,-443.891 512.399,-446.839 512.016,-439.85"/>
<text text-anchor="middle" x="596" y="-447.225" font-family="Helvetica,sans-Serif" font-size="10.00"> m_reorderPendingCellList</text>
</g>
<!-- Node15 -->
<g id="node28" class="node"><title>Node15</title>
<polygon fill="white" stroke="#bfbfbf" points="374,-397.725 374,-418.725 472,-418.725 472,-397.725 374,-397.725"/>
<text text-anchor="middle" x="423" y="-405.725" font-family="Helvetica,sans-Serif" font-size="10.00">QStateMachine *</text>
</g>
<!-- Node15&#45;&gt;Node1 -->
<g id="edge28" class="edge"><title>Node15&#45;&gt;Node1</title>
<path fill="none" stroke="#9a32cd" stroke-dasharray="5,2" d="M482.319,-408.884C532.425,-409.857 606.035,-412.267 670,-418.225 675.874,-418.772 681.969,-419.452 688.065,-420.208"/>
<polygon fill="#9a32cd" stroke="#9a32cd" points="482.37,-405.384 472.308,-408.702 482.243,-412.383 482.37,-405.384"/>
<text text-anchor="middle" x="596" y="-422.225" font-family="Helvetica,sans-Serif" font-size="10.00"> m_p_reorderFSM</text>
</g>
<!-- Node16 -->
<g id="node30" class="node"><title>Node16</title>
<polygon fill="white" stroke="#bfbfbf" points="405,-341.725 405,-362.725 441,-362.725 441,-341.725 405,-341.725"/>
<text text-anchor="middle" x="423" y="-349.725" font-family="Helvetica,sans-Serif" font-size="10.00">bool</text>
</g>
<!-- Node16&#45;&gt;Node1 -->
<g id="edge30" class="edge"><title>Node16&#45;&gt;Node1</title>
<path fill="none" stroke="#9a32cd" stroke-dasharray="5,2" d="M451.156,-348.734C498.187,-344.024 594.964,-339.163 670,-367.225 699.931,-378.419 727.883,-404.504 742.137,-419.361"/>
<polygon fill="#9a32cd" stroke="#9a32cd" points="450.672,-345.266 441.104,-349.816 451.422,-352.226 450.672,-345.266"/>
<text text-anchor="middle" x="596" y="-397.225" font-family="Helvetica,sans-Serif" font-size="10.00"> m_disabledAutoPaint</text>
<text text-anchor="middle" x="596" y="-384.225" font-family="Helvetica,sans-Serif" font-size="10.00">m_usingReorderModeGraphics</text>
<text text-anchor="middle" x="596" y="-371.225" font-family="Helvetica,sans-Serif" font-size="10.00">m_layoutSync</text>
</g>
<!-- Node17 -->
<g id="node32" class="node"><title>Node17</title>
<polygon fill="white" stroke="#bfbfbf" points="342.5,-301.725 342.5,-322.725 503.5,-322.725 503.5,-301.725 342.5,-301.725"/>
<text text-anchor="middle" x="423" y="-309.725" font-family="Helvetica,sans-Serif" font-size="10.00">QPointer&lt; QAnimationGroup &gt;</text>
</g>
<!-- Node17&#45;&gt;Node1 -->
<g id="edge32" class="edge"><title>Node17&#45;&gt;Node1</title>
<path fill="none" stroke="#9a32cd" stroke-dasharray="5,2" d="M510.784,-301.164C560.179,-298.914 621.483,-303.017 670,-328.225 709.518,-348.757 736.591,-397.64 747.111,-419.426"/>
<polygon fill="#9a32cd" stroke="#9a32cd" points="510.545,-297.672 500.752,-301.715 510.929,-304.662 510.545,-297.672"/>
<text text-anchor="middle" x="596" y="-332.225" font-family="Helvetica,sans-Serif" font-size="10.00"> m_qp_reorderAnimationGroup</text>
</g>
<!-- Node18 -->
<g id="node34" class="node"><title>Node18</title>
<polygon fill="white" stroke="#bfbfbf" points="400.5,-258.725 400.5,-279.725 445.5,-279.725 445.5,-258.725 400.5,-258.725"/>
<text text-anchor="middle" x="423" y="-266.725" font-family="Helvetica,sans-Serif" font-size="10.00">QSize</text>
</g>
<!-- Node18&#45;&gt;Node1 -->
<g id="edge34" class="edge"><title>Node18&#45;&gt;Node1</title>
<path fill="none" stroke="#9a32cd" stroke-dasharray="5,2" d="M455.505,-259.589C505.676,-246.755 603.159,-230.118 670,-271.225 725.293,-305.231 744.958,-389.688 750.314,-419.554"/>
<polygon fill="#9a32cd" stroke="#9a32cd" points="454.305,-256.286 445.546,-262.247 456.11,-263.05 454.305,-256.286"/>
<text text-anchor="middle" x="596" y="-288.225" font-family="Helvetica,sans-Serif" font-size="10.00"> m_layoutSizeInPixels</text>
<text text-anchor="middle" x="596" y="-275.225" font-family="Helvetica,sans-Serif" font-size="10.00">m_iconCellSize</text>
</g>
<!-- Node19 -->
<g id="node36" class="node"><title>Node19</title>
<polygon fill="white" stroke="#bfbfbf" points="400,-218.725 400,-239.725 446,-239.725 446,-218.725 400,-218.725"/>
<text text-anchor="middle" x="423" y="-226.725" font-family="Helvetica,sans-Serif" font-size="10.00">qint32</text>
</g>
<!-- Node19&#45;&gt;Node1 -->
<g id="edge36" class="edge"><title>Node19&#45;&gt;Node1</title>
<path fill="none" stroke="#9a32cd" stroke-dasharray="5,2" d="M456.087,-224.645C515.217,-217.171 636.025,-205.349 670,-228.225 737.186,-273.463 749.346,-384.225 751.528,-419.351"/>
<polygon fill="#9a32cd" stroke="#9a32cd" points="455.602,-221.178 446.135,-225.935 456.502,-228.12 455.602,-221.178"/>
<text text-anchor="middle" x="596" y="-232.225" font-family="Helvetica,sans-Serif" font-size="10.00"> m_horizIconSpacingAdjust</text>
</g>
<!-- Node20 -->
<g id="node38" class="node"><title>Node20</title>
<polygon fill="white" stroke="#bfbfbf" points="368.5,-178.725 368.5,-199.725 477.5,-199.725 477.5,-178.725 368.5,-178.725"/>
<text text-anchor="middle" x="423" y="-186.725" font-family="Helvetica,sans-Serif" font-size="10.00">QList&lt; IconRow * &gt;</text>
</g>
<!-- Node20&#45;&gt;Node1 -->
<g id="edge38" class="edge"><title>Node20&#45;&gt;Node1</title>
<path fill="none" stroke="#9a32cd" stroke-dasharray="5,2" d="M487.978,-183.594C551.341,-179.49 642.118,-177.736 670,-198.225 707.953,-226.115 741.361,-378.078 749.896,-419.688"/>
<polygon fill="#9a32cd" stroke="#9a32cd" points="487.405,-180.125 477.666,-184.298 487.881,-187.108 487.405,-180.125"/>
<text text-anchor="middle" x="596" y="-202.225" font-family="Helvetica,sans-Serif" font-size="10.00"> m_iconRows</text>
</g>
<!-- Node21 -->
<g id="node40" class="node"><title>Node21</title>
<polygon fill="white" stroke="#bfbfbf" points="397.5,-14.7253 397.5,-35.7253 448.5,-35.7253 448.5,-14.7253 397.5,-14.7253"/>
<text text-anchor="middle" x="423" y="-22.7253" font-family="Helvetica,sans-Serif" font-size="10.00">quint32</text>
</g>
<!-- Node21&#45;&gt;Node1 -->
<g id="edge40" class="edge"><title>Node21&#45;&gt;Node1</title>
<path fill="none" stroke="#9a32cd" stroke-dasharray="5,2" d="M458.547,-14.2764C511.32,-0.429477 610.539,16.0122 670,-34.2253 731.406,-86.1063 748.568,-362.043 751.505,-419.671"/>
<polygon fill="#9a32cd" stroke="#9a32cd" points="457.357,-10.9733 448.637,-16.9907 459.207,-17.7246 457.357,-10.9733"/>
<text text-anchor="middle" x="596" y="-168.225" font-family="Helvetica,sans-Serif" font-size="10.00"> m_reorderEventSampleRate</text>
<text text-anchor="middle" x="596" y="-155.225" font-family="Helvetica,sans-Serif" font-size="10.00">m_maxIconsPerRow</text>
<text text-anchor="middle" x="596" y="-142.225" font-family="Helvetica,sans-Serif" font-size="10.00">m_magFactor</text>
<text text-anchor="middle" x="596" y="-129.225" font-family="Helvetica,sans-Serif" font-size="10.00">m_maxVelocityForSampling</text>
<text text-anchor="middle" x="596" y="-116.225" font-family="Helvetica,sans-Serif" font-size="10.00">m_interRowSpace</text>
<text text-anchor="middle" x="596" y="-103.225" font-family="Helvetica,sans-Serif" font-size="10.00">m_maxWidthForRows</text>
<text text-anchor="middle" x="596" y="-90.2253" font-family="Helvetica,sans-Serif" font-size="10.00">m_horizIconSpacing</text>
<text text-anchor="middle" x="596" y="-77.2253" font-family="Helvetica,sans-Serif" font-size="10.00">m_anchorRow</text>
<text text-anchor="middle" x="596" y="-64.2253" font-family="Helvetica,sans-Serif" font-size="10.00">m_relayoutCount</text>
<text text-anchor="middle" x="596" y="-51.2253" font-family="Helvetica,sans-Serif" font-size="10.00">m_topMarginForRows</text>
<text text-anchor="middle" x="596" y="-38.2253" font-family="Helvetica,sans-Serif" font-size="10.00">...</text>
</g>
</g>
</svg>
