<?xml version="1.0" encoding="UTF-8" standalone="no"?>
<!DOCTYPE svg PUBLIC "-//W3C//DTD SVG 1.1//EN"
 "http://www.w3.org/Graphics/SVG/1.1/DTD/svg11.dtd">
<!-- Generated by graphviz version 2.26.3 (20100126.1600)
 -->
<!-- Title: PixPagerPage Pages: 1 -->
<svg width="625pt" height="114pt"
 viewBox="0.00 0.00 625.00 114.00" xmlns="http://www.w3.org/2000/svg" xmlns:xlink="http://www.w3.org/1999/xlink">
<g id="graph1" class="graph" transform="scale(1 1) rotate(0) translate(4 110)">
<title>PixPagerPage</title>
<polygon fill="white" stroke="white" points="-4,5 -4,-110 622,-110 622,5 -4,5"/>
<!-- Node1 -->
<g id="node1" class="node"><title>Node1</title>
<polygon fill="#bfbfbf" stroke="black" points="246,-0.5 246,-21.5 330,-21.5 330,-0.5 246,-0.5"/>
<text text-anchor="middle" x="288" y="-8.5" font-family="Helvetica,sans-Serif" font-size="10.00">PixPagerPage</text>
</g>
<!-- Node2 -->
<g id="node2" class="node"><title>Node2</title>
<a xlink:href="classQObject.htm" target="_top" xlink:title="QObject">
<polygon fill="white" stroke="black" points="-0.5,-84.5 -0.5,-105.5 54.5,-105.5 54.5,-84.5 -0.5,-84.5"/>
<text text-anchor="middle" x="27" y="-92.5" font-family="Helvetica,sans-Serif" font-size="10.00">QObject</text>
</a>
</g>
<!-- Node2&#45;&gt;Node1 -->
<g id="edge2" class="edge"><title>Node2&#45;&gt;Node1</title>
<path fill="none" stroke="midnightblue" d="M57.1658,-79.9393C82.5007,-67.7802 119.923,-50.9501 154,-40 184.139,-30.3153 219.13,-22.8661 245.797,-17.9437"/>
<polygon fill="midnightblue" stroke="midnightblue" points="55.5483,-76.8338 48.0799,-84.3486 58.6046,-83.1313 55.5483,-76.8338"/>
</g>
<!-- Node3 -->
<g id="node4" class="node"><title>Node3</title>
<polygon fill="white" stroke="#bfbfbf" points="71.5,-84.5 71.5,-105.5 212.5,-105.5 212.5,-84.5 71.5,-84.5"/>
<text text-anchor="middle" x="142" y="-92.5" font-family="Helvetica,sans-Serif" font-size="10.00">QPointer&lt; PixmapObject &gt;</text>
</g>
<!-- Node3&#45;&gt;Node1 -->
<g id="edge4" class="edge"><title>Node3&#45;&gt;Node1</title>
<path fill="none" stroke="#9a32cd" stroke-dasharray="5,2" d="M151.545,-75.231C158.234,-63.3664 168.251,-48.8975 181,-40 200.018,-26.7267 224.84,-19.5237 245.787,-15.6172"/>
<polygon fill="#9a32cd" stroke="#9a32cd" points="148.277,-73.9251 146.722,-84.4052 154.473,-77.1823 148.277,-73.9251"/>
<text text-anchor="middle" x="200.5" y="-50.5" font-family="Helvetica,sans-Serif" font-size="10.00"> m_data</text>
</g>
<!-- Node4 -->
<g id="node6" class="node"><title>Node4</title>
<polygon fill="white" stroke="#bfbfbf" points="229.5,-84.5 229.5,-105.5 270.5,-105.5 270.5,-84.5 229.5,-84.5"/>
<text text-anchor="middle" x="250" y="-92.5" font-family="Helvetica,sans-Serif" font-size="10.00">qreal</text>
</g>
<!-- Node4&#45;&gt;Node1 -->
<g id="edge6" class="edge"><title>Node4&#45;&gt;Node1</title>
<path fill="none" stroke="#9a32cd" stroke-dasharray="5,2" d="M233.245,-76.4438C231.094,-73.1617 229.22,-69.6275 228,-66 224.316,-55.0475 221.859,-49.7888 228,-40 233.165,-31.7675 241.4,-25.8152 250.135,-21.5332"/>
<polygon fill="#9a32cd" stroke="#9a32cd" points="230.483,-78.5936 239.323,-84.4333 236.054,-74.3554 230.483,-78.5936"/>
<text text-anchor="middle" x="278" y="-50.5" font-family="Helvetica,sans-Serif" font-size="10.00"> m_accessFrequency</text>
</g>
<!-- Node5 -->
<g id="node8" class="node"><title>Node5</title>
<polygon fill="white" stroke="#bfbfbf" points="332,-84.5 332,-105.5 368,-105.5 368,-84.5 332,-84.5"/>
<text text-anchor="middle" x="350" y="-92.5" font-family="Helvetica,sans-Serif" font-size="10.00">bool</text>
</g>
<!-- Node5&#45;&gt;Node1 -->
<g id="edge8" class="edge"><title>Node5&#45;&gt;Node1</title>
<path fill="none" stroke="#9a32cd" stroke-dasharray="5,2" d="M344.887,-74.7091C341.402,-63.6608 335.952,-50.2044 328,-40 322.306,-32.6931 314.297,-26.39 306.94,-21.5443"/>
<polygon fill="#9a32cd" stroke="#9a32cd" points="341.537,-75.7227 347.646,-84.3792 348.268,-73.8027 341.537,-75.7227"/>
<text text-anchor="middle" x="383.5" y="-57" font-family="Helvetica,sans-Serif" font-size="10.00"> m_initiatedDelete</text>
<text text-anchor="middle" x="383.5" y="-44" font-family="Helvetica,sans-Serif" font-size="10.00">m_pinned</text>
</g>
<!-- Node6 -->
<g id="node10" class="node"><title>Node6</title>
<polygon fill="white" stroke="#bfbfbf" points="398.5,-84.5 398.5,-105.5 517.5,-105.5 517.5,-84.5 398.5,-84.5"/>
<text text-anchor="middle" x="458" y="-92.5" font-family="Helvetica,sans-Serif" font-size="10.00">QPointer&lt; PixPager &gt;</text>
</g>
<!-- Node6&#45;&gt;Node1 -->
<g id="edge10" class="edge"><title>Node6&#45;&gt;Node1</title>
<path fill="none" stroke="#9a32cd" stroke-dasharray="5,2" d="M452.527,-74.6791C448.291,-62.8101 441.21,-48.5336 430,-40 414.584,-28.2644 366.329,-20.1537 330.323,-15.5536"/>
<polygon fill="#9a32cd" stroke="#9a32cd" points="449.21,-75.7968 455.55,-84.2849 455.887,-73.6954 449.21,-75.7968"/>
<text text-anchor="middle" x="471" y="-50.5" font-family="Helvetica,sans-Serif" font-size="10.00"> m_pager</text>
</g>
<!-- Node7 -->
<g id="node12" class="node"><title>Node7</title>
<polygon fill="white" stroke="#bfbfbf" points="534.5,-84.5 534.5,-105.5 585.5,-105.5 585.5,-84.5 534.5,-84.5"/>
<text text-anchor="middle" x="560" y="-92.5" font-family="Helvetica,sans-Serif" font-size="10.00">quint32</text>
</g>
<!-- Node7&#45;&gt;Node1 -->
<g id="edge12" class="edge"><title>Node7&#45;&gt;Node1</title>
<path fill="none" stroke="#9a32cd" stroke-dasharray="5,2" d="M544.886,-76.8361C533.388,-64.3282 516.441,-48.4896 498,-40 468.998,-26.6487 382.849,-18.0742 330.336,-13.9344"/>
<polygon fill="#9a32cd" stroke="#9a32cd" points="542.376,-79.2809 551.616,-84.464 547.625,-74.6497 542.376,-79.2809"/>
<text text-anchor="middle" x="574.5" y="-57" font-family="Helvetica,sans-Serif" font-size="10.00"> m_sizeInBytes</text>
<text text-anchor="middle" x="574.5" y="-44" font-family="Helvetica,sans-Serif" font-size="10.00">m_accessCounter</text>
</g>
</g>
</svg>
