<?xml version="1.0" encoding="UTF-8" standalone="no"?>
<!DOCTYPE svg PUBLIC "-//W3C//DTD SVG 1.1//EN"
 "http://www.w3.org/Graphics/SVG/1.1/DTD/svg11.dtd">
<!-- Generated by graphviz version 2.26.3 (20100126.1600)
 -->
<!-- Title: Pixmap3VTileObject Pages: 1 -->
<svg width="850pt" height="186pt"
 viewBox="0.00 0.00 850.00 186.00" xmlns="http://www.w3.org/2000/svg" xmlns:xlink="http://www.w3.org/1999/xlink">
<g id="graph1" class="graph" transform="scale(1 1) rotate(0) translate(4 182)">
<title>Pixmap3VTileObject</title>
<polygon fill="white" stroke="white" points="-4,5 -4,-182 847,-182 847,5 -4,5"/>
<!-- Node1 -->
<g id="node1" class="node"><title>Node1</title>
<polygon fill="#bfbfbf" stroke="black" points="362.5,-0.5 362.5,-21.5 473.5,-21.5 473.5,-0.5 362.5,-0.5"/>
<text text-anchor="middle" x="418" y="-8.5" font-family="Helvetica,sans-Serif" font-size="10.00">Pixmap3VTileObject</text>
</g>
<!-- Node2 -->
<g id="node2" class="node"><title>Node2</title>
<a xlink:href="classPixmapObject.htm" target="_top" xlink:title="PixmapObject">
<polygon fill="white" stroke="black" points="89.5,-84.5 89.5,-105.5 170.5,-105.5 170.5,-84.5 89.5,-84.5"/>
<text text-anchor="middle" x="130" y="-92.5" font-family="Helvetica,sans-Serif" font-size="10.00">PixmapObject</text>
</a>
</g>
<!-- Node2&#45;&gt;Node1 -->
<g id="edge2" class="edge"><title>Node2&#45;&gt;Node1</title>
<path fill="none" stroke="midnightblue" d="M150.96,-78.1661C167.799,-65.564 192.588,-49.0084 217,-40 242.883,-30.4487 312.238,-21.7374 362.241,-16.4086"/>
<polygon fill="midnightblue" stroke="midnightblue" points="148.725,-75.4696 142.924,-84.3349 152.987,-81.0224 148.725,-75.4696"/>
</g>
<!-- Node3 -->
<g id="node4" class="node"><title>Node3</title>
<a xlink:href="classQObject.htm" target="_top" xlink:title="QObject">
<polygon fill="white" stroke="black" points="-0.5,-156.5 -0.5,-177.5 54.5,-177.5 54.5,-156.5 -0.5,-156.5"/>
<text text-anchor="middle" x="27" y="-164.5" font-family="Helvetica,sans-Serif" font-size="10.00">QObject</text>
</a>
</g>
<!-- Node3&#45;&gt;Node2 -->
<g id="edge4" class="edge"><title>Node3&#45;&gt;Node2</title>
<path fill="none" stroke="midnightblue" d="M50.6368,-150.477C70.3393,-136.705 97.8261,-117.49 114.74,-105.667"/>
<polygon fill="midnightblue" stroke="midnightblue" points="48.3888,-147.778 42.198,-156.376 52.3993,-153.515 48.3888,-147.778"/>
</g>
<!-- Node4 -->
<g id="node6" class="node"><title>Node4</title>
<polygon fill="white" stroke="#bfbfbf" points="72,-156.5 72,-177.5 118,-177.5 118,-156.5 72,-156.5"/>
<text text-anchor="middle" x="95" y="-164.5" font-family="Helvetica,sans-Serif" font-size="10.00">QUuid</text>
</g>
<!-- Node4&#45;&gt;Node2 -->
<g id="edge6" class="edge"><title>Node4&#45;&gt;Node2</title>
<path fill="none" stroke="#9a32cd" stroke-dasharray="5,2" d="M102.177,-146.676C104.97,-139.398 108.372,-131.214 112,-124 115.142,-117.753 119.212,-111.104 122.686,-105.75"/>
<polygon fill="#9a32cd" stroke="#9a32cd" points="98.8538,-145.572 98.6738,-156.165 105.421,-147.996 98.8538,-145.572"/>
<text text-anchor="middle" x="127.5" y="-128.5" font-family="Helvetica,sans-Serif" font-size="10.00"> m_uid</text>
</g>
<!-- Node5 -->
<g id="node8" class="node"><title>Node5</title>
<polygon fill="white" stroke="#bfbfbf" points="135.5,-156.5 135.5,-177.5 194.5,-177.5 194.5,-156.5 135.5,-156.5"/>
<text text-anchor="middle" x="165" y="-164.5" font-family="Helvetica,sans-Serif" font-size="10.00">QPixmap</text>
</g>
<!-- Node5&#45;&gt;Node2 -->
<g id="edge8" class="edge"><title>Node5&#45;&gt;Node2</title>
<path fill="none" stroke="#9a32cd" stroke-dasharray="5,2" d="M155.291,-147.027C148.782,-133.637 140.467,-116.532 135.186,-105.667"/>
<polygon fill="#9a32cd" stroke="#9a32cd" points="152.316,-148.913 159.836,-156.376 158.611,-145.852 152.316,-148.913"/>
<text text-anchor="middle" x="160" y="-128.5" font-family="Helvetica,sans-Serif" font-size="10.00"> pm</text>
</g>
<!-- Node6 -->
<g id="node10" class="node"><title>Node6</title>
<polygon fill="white" stroke="#bfbfbf" points="212,-156.5 212,-177.5 248,-177.5 248,-156.5 212,-156.5"/>
<text text-anchor="middle" x="230" y="-164.5" font-family="Helvetica,sans-Serif" font-size="10.00">bool</text>
</g>
<!-- Node6&#45;&gt;Node2 -->
<g id="edge10" class="edge"><title>Node6&#45;&gt;Node2</title>
<path fill="none" stroke="#9a32cd" stroke-dasharray="5,2" d="M207.903,-149.902C197.422,-141.903 184.667,-132.326 173,-124 164.205,-117.723 154.207,-110.959 146.066,-105.543"/>
<polygon fill="#9a32cd" stroke="#9a32cd" points="206.034,-152.879 216.099,-156.188 210.294,-147.325 206.034,-152.879"/>
<text text-anchor="middle" x="237" y="-128.5" font-family="Helvetica,sans-Serif" font-size="10.00"> m_destroyEmitted</text>
</g>
<!-- Node7 -->
<g id="node12" class="node"><title>Node7</title>
<polygon fill="white" stroke="#bfbfbf" points="187.5,-84.5 187.5,-105.5 240.5,-105.5 240.5,-84.5 187.5,-84.5"/>
<text text-anchor="middle" x="214" y="-92.5" font-family="Helvetica,sans-Serif" font-size="10.00">QRectF</text>
</g>
<!-- Node7&#45;&gt;Node1 -->
<g id="edge12" class="edge"><title>Node7&#45;&gt;Node1</title>
<path fill="none" stroke="#9a32cd" stroke-dasharray="5,2" d="M217.535,-74.2346C220.647,-62.4082 226.414,-48.3314 237,-40 256.006,-25.0414 316.252,-17.6225 362.065,-14.0634"/>
<polygon fill="#9a32cd" stroke="#9a32cd" points="214.066,-73.7183 215.362,-84.2336 220.906,-75.2052 214.066,-73.7183"/>
<text text-anchor="middle" x="278" y="-57" font-family="Helvetica,sans-Serif" font-size="10.00"> m_boundingRect</text>
<text text-anchor="middle" x="278" y="-44" font-family="Helvetica,sans-Serif" font-size="10.00">m_geom</text>
</g>
<!-- Node8 -->
<g id="node14" class="node"><title>Node8</title>
<polygon fill="white" stroke="#bfbfbf" points="267,-84.5 267,-105.5 371,-105.5 371,-84.5 267,-84.5"/>
<text text-anchor="middle" x="319" y="-92.5" font-family="Helvetica,sans-Serif" font-size="10.00">QVector&lt; QRect &gt;</text>
</g>
<!-- Node8&#45;&gt;Node1 -->
<g id="edge14" class="edge"><title>Node8&#45;&gt;Node1</title>
<path fill="none" stroke="#9a32cd" stroke-dasharray="5,2" d="M321.735,-74.2248C324.227,-62.815 328.975,-49.1631 338,-40 346.086,-31.7904 356.672,-25.8914 367.483,-21.657"/>
<polygon fill="#9a32cd" stroke="#9a32cd" points="318.255,-73.8022 319.97,-84.2573 325.149,-75.0149 318.255,-73.8022"/>
<text text-anchor="middle" x="376" y="-50.5" font-family="Helvetica,sans-Serif" font-size="10.00"> m_sourceRects</text>
</g>
<!-- Node9 -->
<g id="node16" class="node"><title>Node9</title>
<polygon fill="white" stroke="#bfbfbf" points="395.5,-84.5 395.5,-105.5 440.5,-105.5 440.5,-84.5 395.5,-84.5"/>
<text text-anchor="middle" x="418" y="-92.5" font-family="Helvetica,sans-Serif" font-size="10.00">QSize</text>
</g>
<!-- Node9&#45;&gt;Node1 -->
<g id="edge16" class="edge"><title>Node9&#45;&gt;Node1</title>
<path fill="none" stroke="#9a32cd" stroke-dasharray="5,2" d="M418,-73.9452C418,-57.2568 418,-34.6387 418,-21.5523"/>
<polygon fill="#9a32cd" stroke="#9a32cd" points="414.5,-74.3613 418,-84.3613 421.5,-74.3614 414.5,-74.3613"/>
<text text-anchor="middle" x="488.5" y="-50.5" font-family="Helvetica,sans-Serif" font-size="10.00"> m_destinationSizeRequested</text>
</g>
<!-- Node10 -->
<g id="node18" class="node"><title>Node10</title>
<polygon fill="white" stroke="#bfbfbf" points="558.5,-84.5 558.5,-105.5 605.5,-105.5 605.5,-84.5 558.5,-84.5"/>
<text text-anchor="middle" x="582" y="-92.5" font-family="Helvetica,sans-Serif" font-size="10.00">QRect</text>
</g>
<!-- Node10&#45;&gt;Node1 -->
<g id="edge18" class="edge"><title>Node10&#45;&gt;Node1</title>
<path fill="none" stroke="#9a32cd" stroke-dasharray="5,2" d="M578.725,-74.4154C575.787,-62.6534 570.273,-48.5808 560,-40 546.868,-29.0316 507.613,-21.5326 473.696,-16.9122"/>
<polygon fill="#9a32cd" stroke="#9a32cd" points="575.324,-75.2515 580.763,-84.3439 582.181,-73.8444 575.324,-75.2515"/>
<text text-anchor="middle" x="605.5" y="-50.5" font-family="Helvetica,sans-Serif" font-size="10.00"> m_inCoords</text>
</g>
<!-- Node11 -->
<g id="node20" class="node"><title>Node11</title>
<polygon fill="white" stroke="#bfbfbf" points="644.5,-84.5 644.5,-105.5 687.5,-105.5 687.5,-84.5 644.5,-84.5"/>
<text text-anchor="middle" x="666" y="-92.5" font-family="Helvetica,sans-Serif" font-size="10.00">Enum</text>
</g>
<!-- Node11&#45;&gt;Node1 -->
<g id="edge20" class="edge"><title>Node11&#45;&gt;Node1</title>
<path fill="none" stroke="#9a32cd" stroke-dasharray="5,2" d="M661.497,-74.4256C657.778,-62.4627 651.225,-48.1764 640,-40 626.785,-30.3738 535.048,-20.8744 473.711,-15.493"/>
<polygon fill="#9a32cd" stroke="#9a32cd" points="658.126,-75.3667 664.082,-84.1285 664.89,-73.5645 658.126,-75.3667"/>
<text text-anchor="middle" x="705.5" y="-50.5" font-family="Helvetica,sans-Serif" font-size="10.00"> m_centerTilingStyle</text>
</g>
<!-- Node12 -->
<g id="node22" class="node"><title>Node12</title>
<polygon fill="white" stroke="#bfbfbf" points="731,-84.5 731,-105.5 841,-105.5 841,-84.5 731,-84.5"/>
<text text-anchor="middle" x="786" y="-92.5" font-family="Helvetica,sans-Serif" font-size="10.00">QVector&lt; QRectF &gt;</text>
</g>
<!-- Node12&#45;&gt;Node1 -->
<g id="edge22" class="edge"><title>Node12&#45;&gt;Node1</title>
<path fill="none" stroke="#9a32cd" stroke-dasharray="5,2" d="M781.01,-74.6304C776.921,-62.4992 769.824,-47.9599 758,-40 735.025,-24.5338 564.196,-16.1888 473.778,-12.8139"/>
<polygon fill="#9a32cd" stroke="#9a32cd" points="777.712,-75.8253 783.872,-84.4453 784.432,-73.8653 777.712,-75.8253"/>
<text text-anchor="middle" x="809.5" y="-50.5" font-family="Helvetica,sans-Serif" font-size="10.00"> m_destRects</text>
</g>
</g>
</svg>
