<?xml version="1.0" encoding="UTF-8" standalone="no"?>
<!DOCTYPE svg PUBLIC "-//W3C//DTD SVG 1.1//EN"
 "http://www.w3.org/Graphics/SVG/1.1/DTD/svg11.dtd">
<!-- Generated by graphviz version 2.26.3 (20100126.1600)
 -->
<!-- Title: RedirectContext Pages: 1 -->
<svg width="586pt" height="146pt"
 viewBox="0.00 0.00 586.00 146.00" xmlns="http://www.w3.org/2000/svg" xmlns:xlink="http://www.w3.org/1999/xlink">
<g id="graph1" class="graph" transform="scale(1 1) rotate(0) translate(4 142)">
<title>RedirectContext</title>
<polygon fill="white" stroke="white" points="-4,5 -4,-142 583,-142 583,5 -4,5"/>
<!-- Node1 -->
<g id="node1" class="node"><title>Node1</title>
<polygon fill="#bfbfbf" stroke="black" points="92.5,-38.5 92.5,-59.5 185.5,-59.5 185.5,-38.5 92.5,-38.5"/>
<text text-anchor="middle" x="139" y="-46.5" font-family="Helvetica,sans-Serif" font-size="10.00">RedirectContext</text>
</g>
<!-- Node3 -->
<g id="node5" class="node"><title>Node3</title>
<a xlink:href="classLauncherTouchRedirectContext.htm" target="_top" xlink:title="LauncherTouchRedirectContext">
<polygon fill="white" stroke="black" points="222.5,-58.5 222.5,-79.5 389.5,-79.5 389.5,-58.5 222.5,-58.5"/>
<text text-anchor="middle" x="306" y="-66.5" font-family="Helvetica,sans-Serif" font-size="10.00">LauncherTouchRedirectContext</text>
</a>
</g>
<!-- Node1&#45;&gt;Node3 -->
<g id="edge4" class="edge"><title>Node1&#45;&gt;Node3</title>
<path fill="none" stroke="midnightblue" d="M195.461,-55.7618C204.122,-56.7991 213.219,-57.8885 222.318,-58.9783"/>
<polygon fill="midnightblue" stroke="midnightblue" points="195.864,-52.2851 185.519,-54.5711 195.032,-59.2355 195.864,-52.2851"/>
</g>
<!-- Node6 -->
<g id="node11" class="node"><title>Node6</title>
<a xlink:href="classPageTouchRedirectContext.htm" target="_top" xlink:title="PageTouchRedirectContext">
<polygon fill="white" stroke="black" points="232.5,-12.5 232.5,-33.5 379.5,-33.5 379.5,-12.5 232.5,-12.5"/>
<text text-anchor="middle" x="306" y="-20.5" font-family="Helvetica,sans-Serif" font-size="10.00">PageTouchRedirectContext</text>
</a>
</g>
<!-- Node1&#45;&gt;Node6 -->
<g id="edge10" class="edge"><title>Node1&#45;&gt;Node6</title>
<path fill="none" stroke="midnightblue" d="M195.784,-40.1594C209.519,-38.0209 224.333,-35.7146 238.507,-33.5079"/>
<polygon fill="midnightblue" stroke="midnightblue" points="194.861,-36.7608 185.519,-41.7576 195.938,-43.6775 194.861,-36.7608"/>
</g>
<!-- Node2 -->
<g id="node2" class="node"><title>Node2</title>
<a xlink:href="classQObject.htm" target="_top" xlink:title="QObject">
<polygon fill="white" stroke="black" points="0.5,-38.5 0.5,-59.5 55.5,-59.5 55.5,-38.5 0.5,-38.5"/>
<text text-anchor="middle" x="28" y="-46.5" font-family="Helvetica,sans-Serif" font-size="10.00">QObject</text>
</a>
</g>
<!-- Node2&#45;&gt;Node1 -->
<g id="edge2" class="edge"><title>Node2&#45;&gt;Node1</title>
<path fill="none" stroke="midnightblue" d="M65.735,-49C74.2469,-49 83.382,-49 92.2151,-49"/>
<polygon fill="midnightblue" stroke="midnightblue" points="65.7237,-45.5001 55.7237,-49 65.7236,-52.5001 65.7237,-45.5001"/>
</g>
<!-- Node4 -->
<g id="node7" class="node"><title>Node4</title>
<a xlink:href="classLauncherPageHPanRedirectContext.htm" target="_top" xlink:title="LauncherPageHPanRedirect\lContext">
<polygon fill="white" stroke="black" points="426,-104 426,-138 578,-138 578,-104 426,-104"/>
<text text-anchor="start" x="434" y="-125" font-family="Helvetica,sans-Serif" font-size="10.00">LauncherPageHPanRedirect</text>
<text text-anchor="middle" x="502" y="-112" font-family="Helvetica,sans-Serif" font-size="10.00">Context</text>
</a>
</g>
<!-- Node3&#45;&gt;Node4 -->
<g id="edge6" class="edge"><title>Node3&#45;&gt;Node4</title>
<path fill="none" stroke="midnightblue" d="M355.62,-82.1644C380.534,-88.7744 411.017,-96.8617 437.704,-103.942"/>
<polygon fill="midnightblue" stroke="midnightblue" points="356.227,-78.7044 345.664,-79.523 354.432,-85.4704 356.227,-78.7044"/>
</g>
<!-- Node5 -->
<g id="node9" class="node"><title>Node5</title>
<a xlink:href="classLauncherPageIconTransferRedirectContext.htm" target="_top" xlink:title="LauncherPageIconTransfer\lRedirectContext">
<polygon fill="white" stroke="black" points="429,-52 429,-86 575,-86 575,-52 429,-52"/>
<text text-anchor="start" x="437" y="-73" font-family="Helvetica,sans-Serif" font-size="10.00">LauncherPageIconTransfer</text>
<text text-anchor="middle" x="502" y="-60" font-family="Helvetica,sans-Serif" font-size="10.00">RedirectContext</text>
</a>
</g>
<!-- Node3&#45;&gt;Node5 -->
<g id="edge8" class="edge"><title>Node3&#45;&gt;Node5</title>
<path fill="none" stroke="midnightblue" d="M399.802,-69C409.54,-69 419.333,-69 428.796,-69"/>
<polygon fill="midnightblue" stroke="midnightblue" points="399.69,-65.5001 389.69,-69 399.69,-72.5001 399.69,-65.5001"/>
</g>
<!-- Node7 -->
<g id="node13" class="node"><title>Node7</title>
<a xlink:href="classPageIconTransferRedirectContext.htm" target="_top" xlink:title="PageIconTransferRedirect\lContext">
<polygon fill="white" stroke="black" points="431,-0 431,-34 573,-34 573,-0 431,-0"/>
<text text-anchor="start" x="439" y="-21" font-family="Helvetica,sans-Serif" font-size="10.00">PageIconTransferRedirect</text>
<text text-anchor="middle" x="502" y="-8" font-family="Helvetica,sans-Serif" font-size="10.00">Context</text>
</a>
</g>
<!-- Node6&#45;&gt;Node7 -->
<g id="edge12" class="edge"><title>Node6&#45;&gt;Node7</title>
<path fill="none" stroke="midnightblue" d="M389.91,-20.4313C403.589,-20.0126 417.641,-19.5824 430.972,-19.1743"/>
<polygon fill="midnightblue" stroke="midnightblue" points="389.429,-16.9443 379.541,-20.7488 389.643,-23.941 389.429,-16.9443"/>
</g>
</g>
</svg>
