<?xml version="1.0" encoding="UTF-8" standalone="no"?>
<!DOCTYPE svg PUBLIC "-//W3C//DTD SVG 1.1//EN"
 "http://www.w3.org/Graphics/SVG/1.1/DTD/svg11.dtd">
<!-- Generated by graphviz version 2.26.3 (20100126.1600)
 -->
<!-- Title: HostWindowDataOpenGLTextureShared Pages: 1 -->
<svg width="783pt" height="302pt"
 viewBox="0.00 0.00 783.00 302.00" xmlns="http://www.w3.org/2000/svg" xmlns:xlink="http://www.w3.org/1999/xlink">
<g id="graph1" class="graph" transform="scale(1 1) rotate(0) translate(4 298)">
<title>HostWindowDataOpenGLTextureShared</title>
<polygon fill="white" stroke="white" points="-4,5 -4,-298 780,-298 780,5 -4,5"/>
<!-- Node1 -->
<g id="node1" class="node"><title>Node1</title>
<polygon fill="#bfbfbf" stroke="black" points="300.5,-87 300.5,-121 475.5,-121 475.5,-87 300.5,-87"/>
<text text-anchor="start" x="308.5" y="-108" font-family="Helvetica,sans-Serif" font-size="10.00">HostWindowDataOpenGLTexture</text>
<text text-anchor="middle" x="388" y="-95" font-family="Helvetica,sans-Serif" font-size="10.00">Shared</text>
</g>
<!-- Node7 -->
<g id="node13" class="node"><title>Node7</title>
<a xlink:href="classTextureSharedCompositingWindow.htm" target="_top" xlink:title="TextureSharedCompositing\lWindow">
<polygon fill="white" stroke="black" points="472,-1 472,-35 618,-35 618,-1 472,-1"/>
<text text-anchor="start" x="480" y="-22" font-family="Helvetica,sans-Serif" font-size="10.00">TextureSharedCompositing</text>
<text text-anchor="middle" x="545" y="-9" font-family="Helvetica,sans-Serif" font-size="10.00">Window</text>
</a>
</g>
<!-- Node1&#45;&gt;Node7 -->
<g id="edge18" class="edge"><title>Node1&#45;&gt;Node7</title>
<path fill="none" stroke="#9a32cd" stroke-dasharray="5,2" d="M379.081,-77.005C378.058,-68.8662 378.87,-60.4035 384,-54 395.326,-39.8614 434.771,-30.9055 471.78,-25.4625"/>
<polygon fill="#9a32cd" stroke="#9a32cd" points="375.691,-77.8935 381.17,-86.9616 382.542,-76.4559 375.691,-77.8935"/>
<text text-anchor="middle" x="408.5" y="-58.5" font-family="Helvetica,sans-Serif" font-size="10.00"> m_parent</text>
</g>
<!-- Node2 -->
<g id="node2" class="node"><title>Node2</title>
<a xlink:href="classHostWindowDataSoftware.htm" target="_top" xlink:title="HostWindowDataSoftware">
<polygon fill="white" stroke="black" points="128,-186.5 128,-207.5 268,-207.5 268,-186.5 128,-186.5"/>
<text text-anchor="middle" x="198" y="-194.5" font-family="Helvetica,sans-Serif" font-size="10.00">HostWindowDataSoftware</text>
</a>
</g>
<!-- Node2&#45;&gt;Node1 -->
<g id="edge2" class="edge"><title>Node2&#45;&gt;Node1</title>
<path fill="none" stroke="midnightblue" d="M228.801,-181.924C262.782,-165.291 317.358,-138.577 352.95,-121.156"/>
<polygon fill="midnightblue" stroke="midnightblue" points="227.238,-178.792 219.795,-186.332 230.316,-185.079 227.238,-178.792"/>
</g>
<!-- Node3 -->
<g id="node4" class="node"><title>Node3</title>
<a xlink:href="classHostWindowData.htm" target="_top" xlink:title="HostWindowData">
<polygon fill="white" stroke="black" points="0,-272.5 0,-293.5 98,-293.5 98,-272.5 0,-272.5"/>
<text text-anchor="middle" x="49" y="-280.5" font-family="Helvetica,sans-Serif" font-size="10.00">HostWindowData</text>
</a>
</g>
<!-- Node3&#45;&gt;Node2 -->
<g id="edge4" class="edge"><title>Node3&#45;&gt;Node2</title>
<path fill="none" stroke="midnightblue" d="M72.6144,-266.6C89.4067,-255.217 112.676,-240.003 134,-228 147.126,-220.612 162.276,-213.225 174.54,-207.516"/>
<polygon fill="midnightblue" stroke="midnightblue" points="70.2858,-263.952 64.0052,-272.484 74.236,-269.731 70.2858,-263.952"/>
</g>
<!-- Node4 -->
<g id="node6" class="node"><title>Node4</title>
<a xlink:href="classint.htm" target="_top" xlink:title="int">
<polygon fill="white" stroke="black" points="115.5,-272.5 115.5,-293.5 144.5,-293.5 144.5,-272.5 115.5,-272.5"/>
<text text-anchor="middle" x="130" y="-280.5" font-family="Helvetica,sans-Serif" font-size="10.00">int</text>
</a>
</g>
<!-- Node4&#45;&gt;Node2 -->
<g id="edge6" class="edge"><title>Node4&#45;&gt;Node2</title>
<path fill="none" stroke="#9a32cd" stroke-dasharray="5,2" d="M134.526,-262.572C137.744,-251.482 142.953,-238.028 151,-228 157.729,-219.614 167.353,-212.711 176.142,-207.565"/>
<polygon fill="#9a32cd" stroke="#9a32cd" points="131.127,-261.736 132.024,-272.293 137.907,-263.481 131.127,-261.736"/>
<text text-anchor="middle" x="173" y="-245" font-family="Helvetica,sans-Serif" font-size="10.00"> m_width</text>
<text text-anchor="middle" x="173" y="-232" font-family="Helvetica,sans-Serif" font-size="10.00">m_height</text>
</g>
<!-- Node5 -->
<g id="node8" class="node"><title>Node5</title>
<polygon fill="white" stroke="#bfbfbf" points="162,-272.5 162,-293.5 236,-293.5 236,-272.5 162,-272.5"/>
<text text-anchor="middle" x="199" y="-280.5" font-family="Helvetica,sans-Serif" font-size="10.00">PIpcBuffer *</text>
</g>
<!-- Node5&#45;&gt;Node2 -->
<g id="edge8" class="edge"><title>Node5&#45;&gt;Node2</title>
<path fill="none" stroke="#9a32cd" stroke-dasharray="5,2" d="M198.759,-262.256C198.558,-245.026 198.282,-221.215 198.124,-207.632"/>
<polygon fill="#9a32cd" stroke="#9a32cd" points="195.261,-262.496 198.877,-272.455 202.261,-262.415 195.261,-262.496"/>
<text text-anchor="middle" x="244.5" y="-245" font-family="Helvetica,sans-Serif" font-size="10.00"> m_metaDataBuffer</text>
<text text-anchor="middle" x="244.5" y="-232" font-family="Helvetica,sans-Serif" font-size="10.00">m_ipcBuffer</text>
</g>
<!-- Node6 -->
<g id="node10" class="node"><title>Node6</title>
<polygon fill="white" stroke="#bfbfbf" points="371,-272.5 371,-293.5 407,-293.5 407,-272.5 371,-272.5"/>
<text text-anchor="middle" x="389" y="-280.5" font-family="Helvetica,sans-Serif" font-size="10.00">bool</text>
</g>
<!-- Node6&#45;&gt;Node1 -->
<g id="edge12" class="edge"><title>Node6&#45;&gt;Node1</title>
<path fill="none" stroke="#9a32cd" stroke-dasharray="5,2" d="M388.883,-262.111C388.684,-226.365 388.28,-154.135 388.096,-121.14"/>
<polygon fill="#9a32cd" stroke="#9a32cd" points="385.385,-262.359 388.94,-272.339 392.384,-262.319 385.385,-262.359"/>
<text text-anchor="middle" x="434" y="-201" font-family="Helvetica,sans-Serif" font-size="10.00"> m_dirty</text>
<text text-anchor="middle" x="434" y="-188" font-family="Helvetica,sans-Serif" font-size="10.00">m_updatedAllowed</text>
</g>
<!-- Node6&#45;&gt;Node2 -->
<g id="edge10" class="edge"><title>Node6&#45;&gt;Node2</title>
<path fill="none" stroke="#9a32cd" stroke-dasharray="5,2" d="M361.111,-275.898C346.011,-271.212 327.529,-264.058 313,-254 300.315,-245.218 302.856,-236.529 290,-228 276.377,-218.962 259.869,-212.322 244.618,-207.561"/>
<polygon fill="#9a32cd" stroke="#9a32cd" points="360.356,-279.323 370.935,-278.753 362.309,-272.601 360.356,-279.323"/>
<text text-anchor="middle" x="344" y="-245" font-family="Helvetica,sans-Serif" font-size="10.00"> m_hasAlpha</text>
<text text-anchor="middle" x="344" y="-232" font-family="Helvetica,sans-Serif" font-size="10.00">m_dirty</text>
</g>
<!-- Node6&#45;&gt;Node7 -->
<g id="edge22" class="edge"><title>Node6&#45;&gt;Node7</title>
<path fill="none" stroke="#9a32cd" stroke-dasharray="5,2" d="M416.037,-268.15C437.075,-255.309 465.539,-234.908 483,-210 493.38,-195.193 527.356,-79.3453 540.107,-35.0985"/>
<polygon fill="#9a32cd" stroke="#9a32cd" points="414.075,-265.245 407.245,-273.344 417.635,-271.271 414.075,-265.245"/>
<text text-anchor="middle" x="537" y="-157" font-family="Helvetica,sans-Serif" font-size="10.00"> m_locked</text>
<text text-anchor="middle" x="537" y="-144" font-family="Helvetica,sans-Serif" font-size="10.00">m_mustWait</text>
</g>
<!-- Node7&#45;&gt;Node1 -->
<g id="edge14" class="edge"><title>Node7&#45;&gt;Node1</title>
<path fill="none" stroke="#9a32cd" stroke-dasharray="5,2" d="M489.629,-39.0858C479.259,-43.6181 468.652,-48.664 459,-54 441.584,-63.628 423.251,-76.6206 409.578,-86.9483"/>
<polygon fill="#9a32cd" stroke="#9a32cd" points="491.221,-42.212 499.051,-35.0744 488.479,-35.7714 491.221,-42.212"/>
<text text-anchor="middle" x="476" y="-58.5" font-family="Helvetica,sans-Serif" font-size="10.00"> m_win</text>
</g>
<!-- Node8 -->
<g id="node15" class="node"><title>Node8</title>
<a xlink:href="classNRemoteWindow.htm" target="_top" xlink:title="NRemoteWindow">
<polygon fill="white" stroke="black" points="535,-93.5 535,-114.5 633,-114.5 633,-93.5 535,-93.5"/>
<text text-anchor="middle" x="584" y="-101.5" font-family="Helvetica,sans-Serif" font-size="10.00">NRemoteWindow</text>
</a>
</g>
<!-- Node8&#45;&gt;Node7 -->
<g id="edge16" class="edge"><title>Node8&#45;&gt;Node7</title>
<path fill="none" stroke="midnightblue" d="M575.007,-84.1703C568.288,-69.3541 559.196,-49.305 552.787,-35.1709"/>
<polygon fill="midnightblue" stroke="midnightblue" points="571.9,-85.793 579.218,-93.4547 578.275,-82.9019 571.9,-85.793"/>
</g>
<!-- Node9 -->
<g id="node18" class="node"><title>Node9</title>
<polygon fill="white" stroke="#bfbfbf" points="650.5,-93.5 650.5,-114.5 709.5,-114.5 709.5,-93.5 650.5,-93.5"/>
<text text-anchor="middle" x="680" y="-101.5" font-family="Helvetica,sans-Serif" font-size="10.00">QPixmap</text>
</g>
<!-- Node9&#45;&gt;Node7 -->
<g id="edge20" class="edge"><title>Node9&#45;&gt;Node7</title>
<path fill="none" stroke="#9a32cd" stroke-dasharray="5,2" d="M654.999,-88.0733C631.331,-72.9962 595.913,-50.4335 571.702,-35.0101"/>
<polygon fill="#9a32cd" stroke="#9a32cd" points="653.132,-91.0338 663.446,-93.4547 656.893,-85.1299 653.132,-91.0338"/>
<text text-anchor="middle" x="646" y="-58.5" font-family="Helvetica,sans-Serif" font-size="10.00"> m_pixmap</text>
</g>
<!-- Node10 -->
<g id="node21" class="node"><title>Node10</title>
<polygon fill="white" stroke="#bfbfbf" points="728.5,-93.5 728.5,-114.5 775.5,-114.5 775.5,-93.5 728.5,-93.5"/>
<text text-anchor="middle" x="752" y="-101.5" font-family="Helvetica,sans-Serif" font-size="10.00">GLuint</text>
</g>
<!-- Node10&#45;&gt;Node7 -->
<g id="edge24" class="edge"><title>Node10&#45;&gt;Node7</title>
<path fill="none" stroke="#9a32cd" stroke-dasharray="5,2" d="M730.396,-87.1348C715.739,-76.3778 695.541,-62.8452 676,-54 657.843,-45.7815 637.4,-39.0662 618.158,-33.7572"/>
<polygon fill="#9a32cd" stroke="#9a32cd" points="728.653,-90.2024 738.751,-93.4071 732.855,-84.6044 728.653,-90.2024"/>
<text text-anchor="middle" x="729.5" y="-58.5" font-family="Helvetica,sans-Serif" font-size="10.00"> m_textureId</text>
</g>
</g>
</svg>
