<?xml version="1.0" encoding="UTF-8" standalone="no"?>
<!DOCTYPE svg PUBLIC "-//W3C//DTD SVG 1.1//EN"
 "http://www.w3.org/Graphics/SVG/1.1/DTD/svg11.dtd">
<!-- Generated by graphviz version 2.26.3 (20100126.1600)
 -->
<!-- Title: DemoGoggles3 Pages: 1 -->
<svg width="945pt" height="258pt"
 viewBox="0.00 0.00 945.00 258.00" xmlns="http://www.w3.org/2000/svg" xmlns:xlink="http://www.w3.org/1999/xlink">
<g id="graph1" class="graph" transform="scale(1 1) rotate(0) translate(4 254)">
<title>DemoGoggles3</title>
<polygon fill="white" stroke="white" points="-4,5 -4,-254 942,-254 942,5 -4,5"/>
<!-- Node1 -->
<g id="node1" class="node"><title>Node1</title>
<polygon fill="#bfbfbf" stroke="black" points="527,-0.5 527,-21.5 617,-21.5 617,-0.5 527,-0.5"/>
<text text-anchor="middle" x="572" y="-8.5" font-family="Helvetica,sans-Serif" font-size="10.00">DemoGoggles3</text>
</g>
<!-- Node2 -->
<g id="node2" class="node"><title>Node2</title>
<a xlink:href="classThingPaintable.htm" target="_top" xlink:title="ThingPaintable">
<polygon fill="white" stroke="black" points="264.5,-72.5 264.5,-93.5 351.5,-93.5 351.5,-72.5 264.5,-72.5"/>
<text text-anchor="middle" x="308" y="-80.5" font-family="Helvetica,sans-Serif" font-size="10.00">ThingPaintable</text>
</a>
</g>
<!-- Node2&#45;&gt;Node1 -->
<g id="edge2" class="edge"><title>Node2&#45;&gt;Node1</title>
<path fill="none" stroke="midnightblue" d="M355.772,-69.7439C386.637,-61.2009 427.676,-49.8829 464,-40 486.667,-33.8328 512.034,-27.0168 532.485,-21.5431"/>
<polygon fill="midnightblue" stroke="midnightblue" points="354.83,-66.3729 346.127,-72.4148 356.698,-73.119 354.83,-66.3729"/>
</g>
<!-- Node3 -->
<g id="node4" class="node"><title>Node3</title>
<a xlink:href="classThing.htm" target="_top" xlink:title="Thing">
<polygon fill="white" stroke="black" points="86,-156.5 86,-177.5 130,-177.5 130,-156.5 86,-156.5"/>
<text text-anchor="middle" x="108" y="-164.5" font-family="Helvetica,sans-Serif" font-size="10.00">Thing</text>
</a>
</g>
<!-- Node3&#45;&gt;Node2 -->
<g id="edge4" class="edge"><title>Node3&#45;&gt;Node2</title>
<path fill="none" stroke="midnightblue" d="M121.784,-148.354C131.844,-136.116 146.555,-120.801 163,-112 180.202,-102.794 228.095,-94.2962 264.169,-88.9114"/>
<polygon fill="midnightblue" stroke="midnightblue" points="119.031,-146.193 115.598,-156.217 124.532,-150.522 119.031,-146.193"/>
</g>
<!-- Node4 -->
<g id="node6" class="node"><title>Node4</title>
<a xlink:href="classQGraphicsObject.htm" target="_top" xlink:title="QGraphicsObject">
<polygon fill="white" stroke="black" points="0,-228.5 0,-249.5 98,-249.5 98,-228.5 0,-228.5"/>
<text text-anchor="middle" x="49" y="-236.5" font-family="Helvetica,sans-Serif" font-size="10.00">QGraphicsObject</text>
</a>
</g>
<!-- Node4&#45;&gt;Node3 -->
<g id="edge6" class="edge"><title>Node4&#45;&gt;Node3</title>
<path fill="none" stroke="midnightblue" d="M64.0908,-220.584C75.2316,-206.989 90.0067,-188.958 99.2586,-177.667"/>
<polygon fill="midnightblue" stroke="midnightblue" points="61.3367,-218.423 57.7057,-228.376 66.7511,-222.86 61.3367,-218.423"/>
</g>
<!-- Node5 -->
<g id="node8" class="node"><title>Node5</title>
<polygon fill="white" stroke="#bfbfbf" points="116,-228.5 116,-249.5 220,-249.5 220,-228.5 116,-228.5"/>
<text text-anchor="middle" x="168" y="-236.5" font-family="Helvetica,sans-Serif" font-size="10.00">QPointer&lt; Thing &gt;</text>
</g>
<!-- Node5&#45;&gt;Node3 -->
<g id="edge8" class="edge"><title>Node5&#45;&gt;Node3</title>
<path fill="none" stroke="#9a32cd" stroke-dasharray="5,2" d="M152.653,-220.584C141.324,-206.989 126.298,-188.958 116.89,-177.667"/>
<polygon fill="#9a32cd" stroke="#9a32cd" points="150.056,-222.935 159.147,-228.376 155.434,-218.453 150.056,-222.935"/>
<text text-anchor="middle" x="189.5" y="-200.5" font-family="Helvetica,sans-Serif" font-size="10.00"> m_qp_takerOwner</text>
</g>
<!-- Node6 -->
<g id="node10" class="node"><title>Node6</title>
<polygon fill="white" stroke="#bfbfbf" points="281.5,-156.5 281.5,-177.5 334.5,-177.5 334.5,-156.5 281.5,-156.5"/>
<text text-anchor="middle" x="308" y="-164.5" font-family="Helvetica,sans-Serif" font-size="10.00">QString</text>
</g>
<!-- Node6&#45;&gt;Node2 -->
<g id="edge10" class="edge"><title>Node6&#45;&gt;Node2</title>
<path fill="none" stroke="#9a32cd" stroke-dasharray="5,2" d="M308,-145.945C308,-129.257 308,-106.639 308,-93.5523"/>
<polygon fill="#9a32cd" stroke="#9a32cd" points="304.5,-146.361 308,-156.361 311.5,-146.361 304.5,-146.361"/>
<text text-anchor="middle" x="333" y="-122.5" font-family="Helvetica,sans-Serif" font-size="10.00"> m_uiState</text>
</g>
<!-- Node7 -->
<g id="node12" class="node"><title>Node7</title>
<polygon fill="white" stroke="#bfbfbf" points="402.5,-156.5 402.5,-177.5 455.5,-177.5 455.5,-156.5 402.5,-156.5"/>
<text text-anchor="middle" x="429" y="-164.5" font-family="Helvetica,sans-Serif" font-size="10.00">QRectF</text>
</g>
<!-- Node7&#45;&gt;Node1 -->
<g id="edge18" class="edge"><title>Node7&#45;&gt;Node1</title>
<path fill="none" stroke="#9a32cd" stroke-dasharray="5,2" d="M453.125,-150.025C457.145,-146.402 460.982,-142.344 464,-138 481.721,-112.487 468.404,-96.882 487,-72 503.746,-49.5942 531.104,-32.0708 550.246,-21.6639"/>
<polygon fill="#9a32cd" stroke="#9a32cd" points="450.845,-147.369 445.335,-156.418 455.286,-152.78 450.845,-147.369"/>
<text text-anchor="middle" x="537" y="-80.5" font-family="Helvetica,sans-Serif" font-size="10.00"> m_sceneBgViewrect</text>
</g>
<!-- Node7&#45;&gt;Node2 -->
<g id="edge12" class="edge"><title>Node7&#45;&gt;Node2</title>
<path fill="none" stroke="#9a32cd" stroke-dasharray="5,2" d="M400.051,-150.993C393.855,-147.067 387.52,-142.646 382,-138 370.197,-128.065 370.979,-121.722 359,-112 350.222,-104.875 339.467,-98.4768 330.101,-93.5144"/>
<polygon fill="#9a32cd" stroke="#9a32cd" points="398.548,-154.175 408.915,-156.36 402.173,-148.186 398.548,-154.175"/>
<text text-anchor="middle" x="423" y="-129" font-family="Helvetica,sans-Serif" font-size="10.00"> m_boundingRect</text>
<text text-anchor="middle" x="423" y="-116" font-family="Helvetica,sans-Serif" font-size="10.00">m_geom</text>
</g>
<!-- Node8 -->
<g id="node14" class="node"><title>Node8</title>
<a xlink:href="classint.htm" target="_top" xlink:title="int">
<polygon fill="white" stroke="black" points="147.5,-156.5 147.5,-177.5 176.5,-177.5 176.5,-156.5 147.5,-156.5"/>
<text text-anchor="middle" x="162" y="-164.5" font-family="Helvetica,sans-Serif" font-size="10.00">int</text>
</a>
</g>
<!-- Node8&#45;&gt;Node2 -->
<g id="edge14" class="edge"><title>Node8&#45;&gt;Node2</title>
<path fill="none" stroke="#9a32cd" stroke-dasharray="5,2" d="M164.237,-146.202C166.564,-134.564 171.313,-120.692 181,-112 187.333,-106.317 230.113,-97.2931 264.298,-90.8206"/>
<polygon fill="#9a32cd" stroke="#9a32cd" points="160.724,-146.017 162.664,-156.433 167.643,-147.08 160.724,-146.017"/>
<text text-anchor="middle" x="242.5" y="-129" font-family="Helvetica,sans-Serif" font-size="10.00"> MagicTypePropertyValue</text>
<text text-anchor="middle" x="242.5" y="-116" font-family="Helvetica,sans-Serif" font-size="10.00">MagicTypePropertyKey</text>
</g>
<!-- Node9 -->
<g id="node16" class="node"><title>Node9</title>
<polygon fill="white" stroke="#bfbfbf" points="595.5,-72.5 595.5,-93.5 736.5,-93.5 736.5,-72.5 595.5,-72.5"/>
<text text-anchor="middle" x="666" y="-80.5" font-family="Helvetica,sans-Serif" font-size="10.00">QPointer&lt; PixmapObject &gt;</text>
</g>
<!-- Node9&#45;&gt;Node1 -->
<g id="edge16" class="edge"><title>Node9&#45;&gt;Node1</title>
<path fill="none" stroke="#9a32cd" stroke-dasharray="5,2" d="M643.941,-66.1037C625.996,-52.359 601.224,-33.384 585.927,-21.6674"/>
<polygon fill="#9a32cd" stroke="#9a32cd" points="642.063,-69.0739 652.13,-72.3762 646.319,-63.5168 642.063,-69.0739"/>
<text text-anchor="middle" x="683" y="-44.5" font-family="Helvetica,sans-Serif" font-size="10.00"> m_qp_backgroundPmo</text>
</g>
<!-- Node10 -->
<g id="node19" class="node"><title>Node10</title>
<a xlink:href="classGogglesBlurShaderEffect.htm" target="_top" xlink:title="GogglesBlurShaderEffect">
<polygon fill="white" stroke="black" points="754,-72.5 754,-93.5 890,-93.5 890,-72.5 754,-72.5"/>
<text text-anchor="middle" x="822" y="-80.5" font-family="Helvetica,sans-Serif" font-size="10.00">GogglesBlurShaderEffect</text>
</a>
</g>
<!-- Node10&#45;&gt;Node1 -->
<g id="edge20" class="edge"><title>Node10&#45;&gt;Node1</title>
<path fill="none" stroke="#9a32cd" stroke-dasharray="5,2" d="M797.661,-67.0084C782.516,-57.7676 762.308,-46.6831 743,-40 701.74,-25.7186 652.36,-18.3117 617.296,-14.5735"/>
<polygon fill="#9a32cd" stroke="#9a32cd" points="796.049,-70.1289 806.383,-72.4681 799.763,-64.1954 796.049,-70.1289"/>
<text text-anchor="middle" x="796" y="-44.5" font-family="Helvetica,sans-Serif" font-size="10.00"> m_effect</text>
</g>
<!-- Node11 -->
<g id="node21" class="node"><title>Node11</title>
<a xlink:href="classQGraphicsShaderEffect.htm" target="_top" xlink:title="QGraphicsShaderEffect">
<polygon fill="white" stroke="black" points="808.5,-156.5 808.5,-177.5 937.5,-177.5 937.5,-156.5 808.5,-156.5"/>
<text text-anchor="middle" x="873" y="-164.5" font-family="Helvetica,sans-Serif" font-size="10.00">QGraphicsShaderEffect</text>
</a>
</g>
<!-- Node11&#45;&gt;Node10 -->
<g id="edge22" class="edge"><title>Node11&#45;&gt;Node10</title>
<path fill="none" stroke="midnightblue" d="M861.084,-147.374C850.882,-130.57 836.581,-107.016 828.407,-93.5523"/>
<polygon fill="midnightblue" stroke="midnightblue" points="858.359,-149.63 866.541,-156.361 864.343,-145.997 858.359,-149.63"/>
</g>
<!-- Node12 -->
<g id="node23" class="node"><title>Node12</title>
<polygon fill="white" stroke="#bfbfbf" points="750.5,-156.5 750.5,-177.5 791.5,-177.5 791.5,-156.5 750.5,-156.5"/>
<text text-anchor="middle" x="771" y="-164.5" font-family="Helvetica,sans-Serif" font-size="10.00">qreal</text>
</g>
<!-- Node12&#45;&gt;Node10 -->
<g id="edge24" class="edge"><title>Node12&#45;&gt;Node10</title>
<path fill="none" stroke="#9a32cd" stroke-dasharray="5,2" d="M778.884,-147.042C783.509,-136.287 789.845,-123.005 797,-112 801.203,-105.536 806.73,-98.9751 811.519,-93.733"/>
<polygon fill="#9a32cd" stroke="#9a32cd" points="775.592,-145.844 775.002,-156.422 782.06,-148.52 775.592,-145.844"/>
<text text-anchor="middle" x="816" y="-122.5" font-family="Helvetica,sans-Serif" font-size="10.00"> blurAmt</text>
</g>
</g>
</svg>
