<?xml version="1.0" encoding="UTF-8" standalone="no"?>
<!DOCTYPE svg PUBLIC "-//W3C//DTD SVG 1.1//EN"
 "http://www.w3.org/Graphics/SVG/1.1/DTD/svg11.dtd">
<!-- Generated by graphviz version 2.26.3 (20100126.1600)
 -->
<!-- Title: DimensionsUITest::IconFactory Pages: 1 -->
<svg width="246pt" height="116pt"
 viewBox="0.00 0.00 246.00 116.00" xmlns="http://www.w3.org/2000/svg" xmlns:xlink="http://www.w3.org/1999/xlink">
<g id="graph1" class="graph" transform="scale(1 1) rotate(0) translate(4 112)">
<title>DimensionsUITest::IconFactory</title>
<polygon fill="white" stroke="white" points="-4,5 -4,-112 243,-112 243,5 -4,5"/>
<!-- Node1 -->
<g id="node1" class="node"><title>Node1</title>
<polygon fill="#bfbfbf" stroke="black" points="2.5,-0.5 2.5,-21.5 165.5,-21.5 165.5,-0.5 2.5,-0.5"/>
<text text-anchor="middle" x="84" y="-8.5" font-family="Helvetica,sans-Serif" font-size="10.00">DimensionsUITest::IconFactory</text>
</g>
<!-- Node1&#45;&gt;Node1 -->
<g id="edge6" class="edge"><title>Node1&#45;&gt;Node1</title>
<path fill="none" stroke="#9a32cd" stroke-dasharray="5,2" d="M175.694,-15.3625C180.29,-14.2779 183,-12.8237 183,-11 183,-8.08203 176.062,-6.11012 165.561,-5.08427"/>
<polygon fill="#9a32cd" stroke="#9a32cd" points="174.915,-11.9409 165.561,-16.9157 175.976,-18.8601 174.915,-11.9409"/>
<text text-anchor="middle" x="210.5" y="-8.5" font-family="Helvetica,sans-Serif" font-size="10.00"> s_instance</text>
</g>
<!-- Node2 -->
<g id="node2" class="node"><title>Node2</title>
<a xlink:href="classQObject.htm" target="_top" xlink:title="QObject">
<polygon fill="white" stroke="black" points="-0.5,-79.5 -0.5,-100.5 54.5,-100.5 54.5,-79.5 -0.5,-79.5"/>
<text text-anchor="middle" x="27" y="-87.5" font-family="Helvetica,sans-Serif" font-size="10.00">QObject</text>
</a>
</g>
<!-- Node2&#45;&gt;Node1 -->
<g id="edge2" class="edge"><title>Node2&#45;&gt;Node1</title>
<path fill="none" stroke="midnightblue" d="M40.6816,-71.0378C51.8161,-55.6057 67.1311,-34.3797 76.2525,-21.7378"/>
<polygon fill="midnightblue" stroke="midnightblue" points="37.7001,-69.1883 34.6873,-79.3457 43.3768,-73.2841 37.7001,-69.1883"/>
</g>
<!-- Node3 -->
<g id="node4" class="node"><title>Node3</title>
<polygon fill="white" stroke="#bfbfbf" points="72,-73 72,-107 210,-107 210,-73 72,-73"/>
<text text-anchor="start" x="80" y="-94" font-family="Helvetica,sans-Serif" font-size="10.00">QMap&lt; QString, QPointer</text>
<text text-anchor="middle" x="141" y="-81" font-family="Helvetica,sans-Serif" font-size="10.00">&lt; PixmapObject &gt; &gt;</text>
</g>
<!-- Node3&#45;&gt;Node1 -->
<g id="edge4" class="edge"><title>Node3&#45;&gt;Node1</title>
<path fill="none" stroke="#9a32cd" stroke-dasharray="5,2" d="M122.736,-64.6862C112.211,-50.0997 99.5393,-32.5369 91.6244,-21.5672"/>
<polygon fill="#9a32cd" stroke="#9a32cd" points="119.942,-66.7966 128.632,-72.8582 125.619,-62.7007 119.942,-66.7966"/>
<text text-anchor="middle" x="160" y="-44.5" font-family="Helvetica,sans-Serif" font-size="10.00"> m_loadedPmoMap</text>
</g>
</g>
</svg>
