<?xml version="1.0" encoding="UTF-8" standalone="no"?>
<!DOCTYPE svg PUBLIC "-//W3C//DTD SVG 1.1//EN"
 "http://www.w3.org/Graphics/SVG/1.1/DTD/svg11.dtd">
<!-- Generated by graphviz version 2.26.3 (20100126.1600)
 -->
<!-- Title: QEvent Pages: 1 -->
<svg width="324pt" height="146pt"
 viewBox="0.00 0.00 324.00 146.00" xmlns="http://www.w3.org/2000/svg" xmlns:xlink="http://www.w3.org/1999/xlink">
<g id="graph1" class="graph" transform="scale(1 1) rotate(0) translate(4 142)">
<title>QEvent</title>
<polygon fill="white" stroke="white" points="-4,5 -4,-142 321,-142 321,5 -4,5"/>
<!-- Node1 -->
<g id="node1" class="node"><title>Node1</title>
<polygon fill="#bfbfbf" stroke="black" points="105,-116.5 105,-137.5 157,-137.5 157,-116.5 105,-116.5"/>
<text text-anchor="middle" x="131" y="-124.5" font-family="Helvetica,sans-Serif" font-size="10.00">QEvent</text>
</g>
<!-- Node2 -->
<g id="node3" class="node"><title>Node2</title>
<a xlink:href="classIconCmdRequestEvent.htm" target="_top" xlink:title="IconCmdRequestEvent">
<polygon fill="white" stroke="black" points="-0.5,-58.5 -0.5,-79.5 124.5,-79.5 124.5,-58.5 -0.5,-58.5"/>
<text text-anchor="middle" x="62" y="-66.5" font-family="Helvetica,sans-Serif" font-size="10.00">IconCmdRequestEvent</text>
</a>
</g>
<!-- Node1&#45;&gt;Node2 -->
<g id="edge2" class="edge"><title>Node1&#45;&gt;Node2</title>
<path fill="none" stroke="midnightblue" d="M110.408,-109.691C98.7599,-99.8996 84.5713,-87.973 74.5754,-79.5707"/>
<polygon fill="midnightblue" stroke="midnightblue" points="108.437,-112.607 118.344,-116.362 112.942,-107.248 108.437,-112.607"/>
</g>
<!-- Node3 -->
<g id="node5" class="node"><title>Node3</title>
<a xlink:href="classSysMgrGestureEvent.htm" target="_top" xlink:title="SysMgrGestureEvent">
<polygon fill="white" stroke="black" points="141.5,-58.5 141.5,-79.5 258.5,-79.5 258.5,-58.5 141.5,-58.5"/>
<text text-anchor="middle" x="200" y="-66.5" font-family="Helvetica,sans-Serif" font-size="10.00">SysMgrGestureEvent</text>
</a>
</g>
<!-- Node1&#45;&gt;Node3 -->
<g id="edge4" class="edge"><title>Node1&#45;&gt;Node3</title>
<path fill="none" stroke="midnightblue" d="M151.592,-109.691C163.24,-99.8996 177.429,-87.973 187.425,-79.5707"/>
<polygon fill="midnightblue" stroke="midnightblue" points="149.058,-107.248 143.656,-116.362 153.563,-112.607 149.058,-107.248"/>
</g>
<!-- Node4 -->
<g id="node7" class="node"><title>Node4</title>
<a xlink:href="classFlickEvent.htm" target="_top" xlink:title="FlickEvent">
<polygon fill="white" stroke="black" points="111.5,-0.5 111.5,-21.5 176.5,-21.5 176.5,-0.5 111.5,-0.5"/>
<text text-anchor="middle" x="144" y="-8.5" font-family="Helvetica,sans-Serif" font-size="10.00">FlickEvent</text>
</a>
</g>
<!-- Node3&#45;&gt;Node4 -->
<g id="edge6" class="edge"><title>Node3&#45;&gt;Node4</title>
<path fill="none" stroke="midnightblue" d="M182.735,-51.118C173.388,-41.4377 162.161,-29.8098 154.206,-21.5707"/>
<polygon fill="midnightblue" stroke="midnightblue" points="180.265,-53.599 189.729,-58.3619 185.301,-48.7368 180.265,-53.599"/>
</g>
<!-- Node5 -->
<g id="node9" class="node"><title>Node5</title>
<a xlink:href="classScreenEdgeFlickEvent.htm" target="_top" xlink:title="ScreenEdgeFlickEvent">
<polygon fill="white" stroke="black" points="193.5,-0.5 193.5,-21.5 316.5,-21.5 316.5,-0.5 193.5,-0.5"/>
<text text-anchor="middle" x="255" y="-8.5" font-family="Helvetica,sans-Serif" font-size="10.00">ScreenEdgeFlickEvent</text>
</a>
</g>
<!-- Node3&#45;&gt;Node5 -->
<g id="edge8" class="edge"><title>Node3&#45;&gt;Node5</title>
<path fill="none" stroke="midnightblue" d="M217.23,-50.8299C226.355,-41.2078 237.24,-29.7282 244.976,-21.5707"/>
<polygon fill="midnightblue" stroke="midnightblue" points="214.429,-48.6973 210.088,-58.3619 219.508,-53.514 214.429,-48.6973"/>
</g>
</g>
</svg>
