<?xml version="1.0" encoding="UTF-8" standalone="no"?>
<!DOCTYPE svg PUBLIC "-//W3C//DTD SVG 1.1//EN"
 "http://www.w3.org/Graphics/SVG/1.1/DTD/svg11.dtd">
<!-- Generated by graphviz version 2.26.3 (20100126.1600)
 -->
<!-- Title: PixmapObject Pages: 1 -->
<svg width="285pt" height="102pt"
 viewBox="0.00 0.00 285.00 102.00" xmlns="http://www.w3.org/2000/svg" xmlns:xlink="http://www.w3.org/1999/xlink">
<g id="graph1" class="graph" transform="scale(1 1) rotate(0) translate(4 98)">
<title>PixmapObject</title>
<polygon fill="white" stroke="white" points="-4,5 -4,-98 282,-98 282,5 -4,5"/>
<!-- Node1 -->
<g id="node1" class="node"><title>Node1</title>
<polygon fill="#bfbfbf" stroke="black" points="89.5,-0.5 89.5,-21.5 170.5,-21.5 170.5,-0.5 89.5,-0.5"/>
<text text-anchor="middle" x="130" y="-8.5" font-family="Helvetica,sans-Serif" font-size="10.00">PixmapObject</text>
</g>
<!-- Node2 -->
<g id="node2" class="node"><title>Node2</title>
<a xlink:href="classQObject.htm" target="_top" xlink:title="QObject">
<polygon fill="white" stroke="black" points="-0.5,-72.5 -0.5,-93.5 54.5,-93.5 54.5,-72.5 -0.5,-72.5"/>
<text text-anchor="middle" x="27" y="-80.5" font-family="Helvetica,sans-Serif" font-size="10.00">QObject</text>
</a>
</g>
<!-- Node2&#45;&gt;Node1 -->
<g id="edge2" class="edge"><title>Node2&#45;&gt;Node1</title>
<path fill="none" stroke="midnightblue" d="M50.6368,-66.4772C70.3393,-52.7046 97.8261,-33.4905 114.74,-21.6674"/>
<polygon fill="midnightblue" stroke="midnightblue" points="48.3888,-63.7782 42.198,-72.3762 52.3993,-69.5155 48.3888,-63.7782"/>
</g>
<!-- Node3 -->
<g id="node4" class="node"><title>Node3</title>
<polygon fill="white" stroke="#bfbfbf" points="72,-72.5 72,-93.5 118,-93.5 118,-72.5 72,-72.5"/>
<text text-anchor="middle" x="95" y="-80.5" font-family="Helvetica,sans-Serif" font-size="10.00">QUuid</text>
</g>
<!-- Node3&#45;&gt;Node1 -->
<g id="edge4" class="edge"><title>Node3&#45;&gt;Node1</title>
<path fill="none" stroke="#9a32cd" stroke-dasharray="5,2" d="M102.177,-62.6761C104.97,-55.3982 108.372,-47.2142 112,-40 115.142,-33.7532 119.212,-27.1037 122.686,-21.75"/>
<polygon fill="#9a32cd" stroke="#9a32cd" points="98.8538,-61.5719 98.6738,-72.1652 105.421,-63.9963 98.8538,-61.5719"/>
<text text-anchor="middle" x="127.5" y="-44.5" font-family="Helvetica,sans-Serif" font-size="10.00"> m_uid</text>
</g>
<!-- Node4 -->
<g id="node6" class="node"><title>Node4</title>
<polygon fill="white" stroke="#bfbfbf" points="135.5,-72.5 135.5,-93.5 194.5,-93.5 194.5,-72.5 135.5,-72.5"/>
<text text-anchor="middle" x="165" y="-80.5" font-family="Helvetica,sans-Serif" font-size="10.00">QPixmap</text>
</g>
<!-- Node4&#45;&gt;Node1 -->
<g id="edge6" class="edge"><title>Node4&#45;&gt;Node1</title>
<path fill="none" stroke="#9a32cd" stroke-dasharray="5,2" d="M155.291,-63.0266C148.782,-49.6374 140.467,-32.5318 135.186,-21.6674"/>
<polygon fill="#9a32cd" stroke="#9a32cd" points="152.316,-64.9127 159.836,-72.3762 158.611,-61.8523 152.316,-64.9127"/>
<text text-anchor="middle" x="159" y="-44.5" font-family="Helvetica,sans-Serif" font-size="10.00"> pm</text>
</g>
<!-- Node5 -->
<g id="node8" class="node"><title>Node5</title>
<polygon fill="white" stroke="#bfbfbf" points="212,-72.5 212,-93.5 248,-93.5 248,-72.5 212,-72.5"/>
<text text-anchor="middle" x="230" y="-80.5" font-family="Helvetica,sans-Serif" font-size="10.00">bool</text>
</g>
<!-- Node5&#45;&gt;Node1 -->
<g id="edge8" class="edge"><title>Node5&#45;&gt;Node1</title>
<path fill="none" stroke="#9a32cd" stroke-dasharray="5,2" d="M207.759,-66.2389C197.017,-58.2138 183.904,-48.5189 172,-40 163.353,-33.812 153.584,-27.0531 145.645,-21.6183"/>
<polygon fill="#9a32cd" stroke="#9a32cd" points="205.696,-69.0663 215.797,-72.2626 209.894,-63.4647 205.696,-69.0663"/>
<text text-anchor="middle" x="233" y="-44.5" font-family="Helvetica,sans-Serif" font-size="10.00"> m_destroyEmitted</text>
</g>
</g>
</svg>
