<?xml version="1.0" encoding="UTF-8" standalone="no"?>
<!DOCTYPE svg PUBLIC "-//W3C//DTD SVG 1.1//EN"
 "http://www.w3.org/Graphics/SVG/1.1/DTD/svg11.dtd">
<!-- Generated by graphviz version 2.26.3 (20100126.1600)
 -->
<!-- Title: HostWindowDataSoftware Pages: 1 -->
<svg width="370pt" height="114pt"
 viewBox="0.00 0.00 370.00 114.00" xmlns="http://www.w3.org/2000/svg" xmlns:xlink="http://www.w3.org/1999/xlink">
<g id="graph1" class="graph" transform="scale(1 1) rotate(0) translate(4 110)">
<title>HostWindowDataSoftware</title>
<polygon fill="white" stroke="white" points="-4,5 -4,-110 367,-110 367,5 -4,5"/>
<!-- Node1 -->
<g id="node1" class="node"><title>Node1</title>
<polygon fill="#bfbfbf" stroke="black" points="94,-0.5 94,-21.5 234,-21.5 234,-0.5 94,-0.5"/>
<text text-anchor="middle" x="164" y="-8.5" font-family="Helvetica,sans-Serif" font-size="10.00">HostWindowDataSoftware</text>
</g>
<!-- Node2 -->
<g id="node2" class="node"><title>Node2</title>
<a xlink:href="classHostWindowData.htm" target="_top" xlink:title="HostWindowData">
<polygon fill="white" stroke="black" points="0,-84.5 0,-105.5 98,-105.5 98,-84.5 0,-84.5"/>
<text text-anchor="middle" x="49" y="-92.5" font-family="Helvetica,sans-Serif" font-size="10.00">HostWindowData</text>
</a>
</g>
<!-- Node2&#45;&gt;Node1 -->
<g id="edge2" class="edge"><title>Node2&#45;&gt;Node1</title>
<path fill="none" stroke="midnightblue" d="M70.8706,-78.1501C85.2814,-67.1401 104.63,-52.5324 122,-40 130.623,-33.7786 140.391,-27.0177 148.335,-21.5901"/>
<polygon fill="midnightblue" stroke="midnightblue" points="68.4062,-75.6291 62.5978,-84.4898 72.6641,-81.1853 68.4062,-75.6291"/>
</g>
<!-- Node3 -->
<g id="node4" class="node"><title>Node3</title>
<a xlink:href="classint.htm" target="_top" xlink:title="int">
<polygon fill="white" stroke="black" points="115.5,-84.5 115.5,-105.5 144.5,-105.5 144.5,-84.5 115.5,-84.5"/>
<text text-anchor="middle" x="130" y="-92.5" font-family="Helvetica,sans-Serif" font-size="10.00">int</text>
</a>
</g>
<!-- Node3&#45;&gt;Node1 -->
<g id="edge4" class="edge"><title>Node3&#45;&gt;Node1</title>
<path fill="none" stroke="#9a32cd" stroke-dasharray="5,2" d="M127.024,-74.1813C126.401,-63.4959 127.094,-50.5448 132,-40 135.416,-32.6583 141.645,-26.3498 147.705,-21.5094"/>
<polygon fill="#9a32cd" stroke="#9a32cd" points="123.558,-74.6949 128.028,-84.3005 130.524,-74.0038 123.558,-74.6949"/>
<text text-anchor="middle" x="154" y="-57" font-family="Helvetica,sans-Serif" font-size="10.00"> m_width</text>
<text text-anchor="middle" x="154" y="-44" font-family="Helvetica,sans-Serif" font-size="10.00">m_height</text>
</g>
<!-- Node4 -->
<g id="node6" class="node"><title>Node4</title>
<polygon fill="white" stroke="#bfbfbf" points="162,-84.5 162,-105.5 236,-105.5 236,-84.5 162,-84.5"/>
<text text-anchor="middle" x="199" y="-92.5" font-family="Helvetica,sans-Serif" font-size="10.00">PIpcBuffer *</text>
</g>
<!-- Node4&#45;&gt;Node1 -->
<g id="edge6" class="edge"><title>Node4&#45;&gt;Node1</title>
<path fill="none" stroke="#9a32cd" stroke-dasharray="5,2" d="M190.626,-74.9013C183.638,-58.1303 173.954,-34.8903 168.397,-21.5523"/>
<polygon fill="#9a32cd" stroke="#9a32cd" points="187.49,-76.4767 194.567,-84.3613 193.952,-73.7844 187.49,-76.4767"/>
<text text-anchor="middle" x="231.5" y="-57" font-family="Helvetica,sans-Serif" font-size="10.00"> m_metaDataBuffer</text>
<text text-anchor="middle" x="231.5" y="-44" font-family="Helvetica,sans-Serif" font-size="10.00">m_ipcBuffer</text>
</g>
<!-- Node5 -->
<g id="node8" class="node"><title>Node5</title>
<polygon fill="white" stroke="#bfbfbf" points="294,-84.5 294,-105.5 330,-105.5 330,-84.5 294,-84.5"/>
<text text-anchor="middle" x="312" y="-92.5" font-family="Helvetica,sans-Serif" font-size="10.00">bool</text>
</g>
<!-- Node5&#45;&gt;Node1 -->
<g id="edge8" class="edge"><title>Node5&#45;&gt;Node1</title>
<path fill="none" stroke="#9a32cd" stroke-dasharray="5,2" d="M305.274,-74.8148C300.336,-62.9961 292.471,-48.7248 281,-40 271.714,-32.937 248.322,-26.5252 224.873,-21.5372"/>
<polygon fill="#9a32cd" stroke="#9a32cd" points="302.073,-76.2466 308.876,-84.3686 308.623,-73.7768 302.073,-76.2466"/>
<text text-anchor="middle" x="331" y="-57" font-family="Helvetica,sans-Serif" font-size="10.00"> m_hasAlpha</text>
<text text-anchor="middle" x="331" y="-44" font-family="Helvetica,sans-Serif" font-size="10.00">m_dirty</text>
</g>
</g>
</svg>
