<?xml version="1.0" encoding="UTF-8" standalone="no"?>
<!DOCTYPE svg PUBLIC "-//W3C//DTD SVG 1.1//EN"
 "http://www.w3.org/Graphics/SVG/1.1/DTD/svg11.dtd">
<!-- Generated by graphviz version 2.26.3 (20100126.1600)
 -->
<!-- Title: StatusBarIcon Pages: 1 -->
<svg width="362pt" height="350pt"
 viewBox="0.00 0.00 362.00 350.00" xmlns="http://www.w3.org/2000/svg" xmlns:xlink="http://www.w3.org/1999/xlink">
<g id="graph1" class="graph" transform="scale(1 1) rotate(0) translate(4 346)">
<title>StatusBarIcon</title>
<polygon fill="white" stroke="white" points="-4,5 -4,-346 359,-346 359,5 -4,5"/>
<!-- Node1 -->
<g id="node1" class="node"><title>Node1</title>
<polygon fill="#bfbfbf" stroke="black" points="270.5,-157.5 270.5,-178.5 353.5,-178.5 353.5,-157.5 270.5,-157.5"/>
<text text-anchor="middle" x="312" y="-165.5" font-family="Helvetica,sans-Serif" font-size="10.00">StatusBarIcon</text>
</g>
<!-- Node2 -->
<g id="node2" class="node"><title>Node2</title>
<a xlink:href="classQObject.htm" target="_top" xlink:title="QObject">
<polygon fill="white" stroke="black" points="51.5,-320.5 51.5,-341.5 106.5,-341.5 106.5,-320.5 51.5,-320.5"/>
<text text-anchor="middle" x="79" y="-328.5" font-family="Helvetica,sans-Serif" font-size="10.00">QObject</text>
</a>
</g>
<!-- Node2&#45;&gt;Node1 -->
<g id="edge2" class="edge"><title>Node2&#45;&gt;Node1</title>
<path fill="none" stroke="midnightblue" d="M116.835,-335.482C154.844,-337.89 213.197,-335.627 252,-306 294.36,-273.658 307.309,-205.23 310.822,-178.765"/>
<polygon fill="midnightblue" stroke="midnightblue" points="116.928,-331.978 106.688,-334.697 116.388,-338.958 116.928,-331.978"/>
</g>
<!-- Node3 -->
<g id="node4" class="node"><title>Node3</title>
<polygon fill="white" stroke="#bfbfbf" points="0.5,-280.5 0.5,-301.5 157.5,-301.5 157.5,-280.5 0.5,-280.5"/>
<text text-anchor="middle" x="79" y="-288.5" font-family="Helvetica,sans-Serif" font-size="10.00">QPointer&lt; VariantAnimation &gt;</text>
</g>
<!-- Node3&#45;&gt;Node1 -->
<g id="edge4" class="edge"><title>Node3&#45;&gt;Node1</title>
<path fill="none" stroke="#9a32cd" stroke-dasharray="5,2" d="M167.765,-290.85C196.541,-287.242 227.364,-279.281 252,-263 283.41,-242.243 301.562,-198.788 308.594,-178.657"/>
<polygon fill="#9a32cd" stroke="#9a32cd" points="167.246,-287.386 157.685,-291.952 168.006,-294.345 167.246,-287.386"/>
<text text-anchor="middle" x="214" y="-293" font-family="Helvetica,sans-Serif" font-size="10.00"> m_animPtr</text>
</g>
<!-- Node4 -->
<g id="node6" class="node"><title>Node4</title>
<polygon fill="white" stroke="#bfbfbf" points="49.5,-240.5 49.5,-261.5 108.5,-261.5 108.5,-240.5 49.5,-240.5"/>
<text text-anchor="middle" x="79" y="-248.5" font-family="Helvetica,sans-Serif" font-size="10.00">QPixmap</text>
</g>
<!-- Node4&#45;&gt;Node1 -->
<g id="edge6" class="edge"><title>Node4&#45;&gt;Node1</title>
<path fill="none" stroke="#9a32cd" stroke-dasharray="5,2" d="M118.978,-251.698C155.396,-250.82 209.777,-245.629 252,-225 274.204,-214.152 293.656,-192.15 304.031,-178.879"/>
<polygon fill="#9a32cd" stroke="#9a32cd" points="118.697,-248.201 108.747,-251.843 118.796,-255.201 118.697,-248.201"/>
<text text-anchor="middle" x="214" y="-250" font-family="Helvetica,sans-Serif" font-size="10.00"> m_imgPtr</text>
</g>
<!-- Node5 -->
<g id="node8" class="node"><title>Node5</title>
<polygon fill="white" stroke="#bfbfbf" points="58.5,-200.5 58.5,-221.5 99.5,-221.5 99.5,-200.5 58.5,-200.5"/>
<text text-anchor="middle" x="79" y="-208.5" font-family="Helvetica,sans-Serif" font-size="10.00">qreal</text>
</g>
<!-- Node5&#45;&gt;Node1 -->
<g id="edge8" class="edge"><title>Node5&#45;&gt;Node1</title>
<path fill="none" stroke="#9a32cd" stroke-dasharray="5,2" d="M109.547,-206.477C144.198,-201.207 202.342,-191.945 252,-182 257.978,-180.803 264.269,-179.445 270.436,-178.056"/>
<polygon fill="#9a32cd" stroke="#9a32cd" points="108.948,-203.027 99.5826,-207.98 109.993,-209.949 108.948,-203.027"/>
<text text-anchor="middle" x="214" y="-212" font-family="Helvetica,sans-Serif" font-size="10.00"> m_animOpacity</text>
<text text-anchor="middle" x="214" y="-199" font-family="Helvetica,sans-Serif" font-size="10.00">m_animWidth</text>
</g>
<!-- Node6 -->
<g id="node10" class="node"><title>Node6</title>
<polygon fill="white" stroke="#bfbfbf" points="61,-160.5 61,-181.5 97,-181.5 97,-160.5 61,-160.5"/>
<text text-anchor="middle" x="79" y="-168.5" font-family="Helvetica,sans-Serif" font-size="10.00">bool</text>
</g>
<!-- Node6&#45;&gt;Node1 -->
<g id="edge10" class="edge"><title>Node6&#45;&gt;Node1</title>
<path fill="none" stroke="#9a32cd" stroke-dasharray="5,2" d="M107.48,-170.313C126.809,-169.872 152.944,-169.322 176,-169 207.637,-168.558 243.416,-168.304 270.333,-168.163"/>
<polygon fill="#9a32cd" stroke="#9a32cd" points="107.15,-166.82 97.2341,-170.552 107.313,-173.818 107.15,-166.82"/>
<text text-anchor="middle" x="214" y="-173" font-family="Helvetica,sans-Serif" font-size="10.00"> m_visible</text>
</g>
<!-- Node7 -->
<g id="node12" class="node"><title>Node7</title>
<polygon fill="white" stroke="#bfbfbf" points="36.5,-120.5 36.5,-141.5 121.5,-141.5 121.5,-120.5 36.5,-120.5"/>
<text text-anchor="middle" x="79" y="-128.5" font-family="Helvetica,sans-Serif" font-size="10.00">QEasingCurve</text>
</g>
<!-- Node7&#45;&gt;Node1 -->
<g id="edge12" class="edge"><title>Node7&#45;&gt;Node1</title>
<path fill="none" stroke="#9a32cd" stroke-dasharray="5,2" d="M131.9,-134.893C166.328,-137.971 212.086,-143.092 252,-151 260.602,-152.704 269.768,-155.032 278.279,-157.418"/>
<polygon fill="#9a32cd" stroke="#9a32cd" points="131.863,-131.377 121.599,-134.002 131.26,-138.35 131.863,-131.377"/>
<text text-anchor="middle" x="214" y="-155" font-family="Helvetica,sans-Serif" font-size="10.00"> m_curve</text>
</g>
<!-- Node8 -->
<g id="node14" class="node"><title>Node8</title>
<polygon fill="white" stroke="#bfbfbf" points="35,-80.5 35,-101.5 123,-101.5 123,-80.5 35,-80.5"/>
<text text-anchor="middle" x="79" y="-88.5" font-family="Helvetica,sans-Serif" font-size="10.00">AnimationState</text>
</g>
<!-- Node8&#45;&gt;Node1 -->
<g id="edge14" class="edge"><title>Node8&#45;&gt;Node1</title>
<path fill="none" stroke="#9a32cd" stroke-dasharray="5,2" d="M133.387,-94.1046C168.469,-97.6881 214.398,-105.402 252,-122 271.453,-130.587 290.313,-146.727 301.54,-157.422"/>
<polygon fill="#9a32cd" stroke="#9a32cd" points="133.617,-90.6109 123.333,-93.1596 132.961,-97.5802 133.617,-90.6109"/>
<text text-anchor="middle" x="214" y="-126" font-family="Helvetica,sans-Serif" font-size="10.00"> m_animState</text>
</g>
<!-- Node9 -->
<g id="node16" class="node"><title>Node9</title>
<a xlink:href="classStatusBarIconContainer.htm" target="_top" xlink:title="StatusBarIconContainer">
<polygon fill="white" stroke="black" points="14.5,-40.5 14.5,-61.5 143.5,-61.5 143.5,-40.5 14.5,-40.5"/>
<text text-anchor="middle" x="79" y="-48.5" font-family="Helvetica,sans-Serif" font-size="10.00">StatusBarIconContainer</text>
</a>
</g>
<!-- Node9&#45;&gt;Node1 -->
<g id="edge16" class="edge"><title>Node9&#45;&gt;Node1</title>
<path fill="none" stroke="#9a32cd" stroke-dasharray="5,2" d="M153.993,-52.4412C186.251,-56.0711 223.102,-64.497 252,-83 280.751,-101.409 299.753,-138.966 307.73,-157.364"/>
<polygon fill="#9a32cd" stroke="#9a32cd" points="153.992,-48.9242 143.696,-51.4244 153.304,-55.8903 153.992,-48.9242"/>
<text text-anchor="middle" x="214" y="-87" font-family="Helvetica,sans-Serif" font-size="10.00"> m_parent</text>
</g>
<!-- Node10 -->
<g id="node18" class="node"><title>Node10</title>
<polygon fill="white" stroke="#bfbfbf" points="55.5,-0.5 55.5,-21.5 102.5,-21.5 102.5,-0.5 55.5,-0.5"/>
<text text-anchor="middle" x="79" y="-8.5" font-family="Helvetica,sans-Serif" font-size="10.00">QRect</text>
</g>
<!-- Node10&#45;&gt;Node1 -->
<g id="edge18" class="edge"><title>Node10&#45;&gt;Node1</title>
<path fill="none" stroke="#9a32cd" stroke-dasharray="5,2" d="M112.623,-7.42385C150.342,-5.24877 211.527,-7.44863 252,-38 292.076,-68.2516 306.264,-131.703 310.467,-157.125"/>
<polygon fill="#9a32cd" stroke="#9a32cd" points="112.37,-3.93292 102.644,-8.13343 112.867,-10.9153 112.37,-3.93292"/>
<text text-anchor="middle" x="214" y="-42" font-family="Helvetica,sans-Serif" font-size="10.00"> m_bounds</text>
</g>
</g>
</svg>
