<?xml version="1.0" encoding="UTF-8" standalone="no"?>
<!DOCTYPE svg PUBLIC "-//W3C//DTD SVG 1.1//EN"
 "http://www.w3.org/Graphics/SVG/1.1/DTD/svg11.dtd">
<!-- Generated by graphviz version 2.26.3 (20100126.1600)
 -->
<!-- Title: DimensionsSystemInterface::SafeFileOperator Pages: 1 -->
<svg width="514pt" height="154pt"
 viewBox="0.00 0.00 514.00 154.00" xmlns="http://www.w3.org/2000/svg" xmlns:xlink="http://www.w3.org/1999/xlink">
<g id="graph1" class="graph" transform="scale(1 1) rotate(0) translate(4 150)">
<title>DimensionsSystemInterface::SafeFileOperator</title>
<polygon fill="white" stroke="white" points="-4,5 -4,-150 511,-150 511,5 -4,5"/>
<!-- Node1 -->
<g id="node1" class="node"><title>Node1</title>
<polygon fill="#bfbfbf" stroke="black" points="178,-1 178,-35 326,-35 326,-1 178,-1"/>
<text text-anchor="start" x="186" y="-22" font-family="Helvetica,sans-Serif" font-size="10.00">DimensionsSystemInterface</text>
<text text-anchor="middle" x="252" y="-9" font-family="Helvetica,sans-Serif" font-size="10.00">::SafeFileOperator</text>
</g>
<!-- Node2 -->
<g id="node2" class="node"><title>Node2</title>
<a xlink:href="classQObject.htm" target="_top" xlink:title="QObject">
<polygon fill="white" stroke="black" points="-0.5,-124.5 -0.5,-145.5 54.5,-145.5 54.5,-124.5 -0.5,-124.5"/>
<text text-anchor="middle" x="27" y="-132.5" font-family="Helvetica,sans-Serif" font-size="10.00">QObject</text>
</a>
</g>
<!-- Node2&#45;&gt;Node1 -->
<g id="edge2" class="edge"><title>Node2&#45;&gt;Node1</title>
<path fill="none" stroke="midnightblue" d="M39.111,-115.876C51.9484,-97.2118 73.9465,-69.4382 100,-54 123.447,-40.1062 151.911,-31.573 177.838,-26.3327"/>
<polygon fill="midnightblue" stroke="midnightblue" points="36.0318,-114.186 33.4135,-124.452 41.8624,-118.059 36.0318,-114.186"/>
</g>
<!-- Node3 -->
<g id="node4" class="node"><title>Node3</title>
<polygon fill="white" stroke="#bfbfbf" points="71.5,-124.5 71.5,-145.5 142.5,-145.5 142.5,-124.5 71.5,-124.5"/>
<text text-anchor="middle" x="107" y="-132.5" font-family="Helvetica,sans-Serif" font-size="10.00">QSettings *</text>
</g>
<!-- Node3&#45;&gt;Node1 -->
<g id="edge4" class="edge"><title>Node3&#45;&gt;Node1</title>
<path fill="none" stroke="#9a32cd" stroke-dasharray="5,2" d="M104.251,-114.18C103.08,-96.081 104.529,-70.2763 119,-54 127.504,-44.4358 152.134,-36.5776 177.924,-30.6701"/>
<polygon fill="#9a32cd" stroke="#9a32cd" points="100.783,-114.681 105.225,-124.3 107.75,-114.011 100.783,-114.681"/>
<text text-anchor="middle" x="152.5" y="-77.5" font-family="Helvetica,sans-Serif" font-size="10.00"> m_p_settings</text>
</g>
<!-- Node4 -->
<g id="node6" class="node"><title>Node4</title>
<polygon fill="white" stroke="#bfbfbf" points="170.5,-124.5 170.5,-145.5 223.5,-145.5 223.5,-124.5 170.5,-124.5"/>
<text text-anchor="middle" x="197" y="-132.5" font-family="Helvetica,sans-Serif" font-size="10.00">QString</text>
</g>
<!-- Node4&#45;&gt;Node1 -->
<g id="edge6" class="edge"><title>Node4&#45;&gt;Node1</title>
<path fill="none" stroke="#9a32cd" stroke-dasharray="5,2" d="M192.153,-114.131C189.306,-96.9298 187.979,-72.4506 198,-54 202.141,-46.3761 208.676,-40.0816 215.791,-35.0065"/>
<polygon fill="#9a32cd" stroke="#9a32cd" points="188.778,-115.109 194.14,-124.247 195.647,-113.759 188.778,-115.109"/>
<text text-anchor="middle" x="242" y="-97" font-family="Helvetica,sans-Serif" font-size="10.00"> m_tempName</text>
<text text-anchor="middle" x="242" y="-84" font-family="Helvetica,sans-Serif" font-size="10.00">m_originalPath</text>
<text text-anchor="middle" x="242" y="-71" font-family="Helvetica,sans-Serif" font-size="10.00">m_tempBasename</text>
<text text-anchor="middle" x="242" y="-58" font-family="Helvetica,sans-Serif" font-size="10.00">m_actualName</text>
</g>
<!-- Node5 -->
<g id="node8" class="node"><title>Node5</title>
<polygon fill="white" stroke="#bfbfbf" points="280.5,-124.5 280.5,-145.5 335.5,-145.5 335.5,-124.5 280.5,-124.5"/>
<text text-anchor="middle" x="308" y="-132.5" font-family="Helvetica,sans-Serif" font-size="10.00">OpType</text>
</g>
<!-- Node5&#45;&gt;Node1 -->
<g id="edge8" class="edge"><title>Node5&#45;&gt;Node1</title>
<path fill="none" stroke="#9a32cd" stroke-dasharray="5,2" d="M305.265,-114.405C302.352,-97.3679 296.64,-72.9761 286,-54 282.216,-47.2513 276.89,-40.7983 271.575,-35.2673"/>
<polygon fill="#9a32cd" stroke="#9a32cd" points="301.824,-115.053 306.799,-124.407 308.743,-113.992 301.824,-115.053"/>
<text text-anchor="middle" x="331.5" y="-77.5" font-family="Helvetica,sans-Serif" font-size="10.00"> m_opMode</text>
</g>
<!-- Node6 -->
<g id="node10" class="node"><title>Node6</title>
<a xlink:href="classint.htm" target="_top" xlink:title="int">
<polygon fill="white" stroke="black" points="373.5,-124.5 373.5,-145.5 402.5,-145.5 402.5,-124.5 373.5,-124.5"/>
<text text-anchor="middle" x="388" y="-132.5" font-family="Helvetica,sans-Serif" font-size="10.00">int</text>
</a>
</g>
<!-- Node6&#45;&gt;Node1 -->
<g id="edge10" class="edge"><title>Node6&#45;&gt;Node1</title>
<path fill="none" stroke="#9a32cd" stroke-dasharray="5,2" d="M387.096,-114.081C385.208,-95.9153 379.705,-70.0699 364,-54 357.398,-47.2443 340.944,-40.6706 322.62,-35.0294"/>
<polygon fill="#9a32cd" stroke="#9a32cd" points="383.62,-114.534 387.862,-124.242 390.6,-114.007 383.62,-114.534"/>
<text text-anchor="middle" x="408.5" y="-77.5" font-family="Helvetica,sans-Serif" font-size="10.00"> m_tmpFh</text>
</g>
<!-- Node7 -->
<g id="node12" class="node"><title>Node7</title>
<polygon fill="white" stroke="#bfbfbf" points="440,-124.5 440,-145.5 476,-145.5 476,-124.5 440,-124.5"/>
<text text-anchor="middle" x="458" y="-132.5" font-family="Helvetica,sans-Serif" font-size="10.00">bool</text>
</g>
<!-- Node7&#45;&gt;Node1 -->
<g id="edge12" class="edge"><title>Node7&#45;&gt;Node1</title>
<path fill="none" stroke="#9a32cd" stroke-dasharray="5,2" d="M458.145,-114.222C457.098,-95.7518 452.51,-69.3619 436,-54 419.974,-39.0886 369.998,-29.9085 326.169,-24.5535"/>
<polygon fill="#9a32cd" stroke="#9a32cd" points="454.648,-114.382 458.416,-124.285 461.646,-114.194 454.648,-114.382"/>
<text text-anchor="middle" x="481.5" y="-77.5" font-family="Helvetica,sans-Serif" font-size="10.00"> m_unsafe</text>
</g>
</g>
</svg>
