<?xml version="1.0" encoding="UTF-8" standalone="no"?>
<!DOCTYPE svg PUBLIC "-//W3C//DTD SVG 1.1//EN"
 "http://www.w3.org/Graphics/SVG/1.1/DTD/svg11.dtd">
<!-- Generated by graphviz version 2.26.3 (20100126.1600)
 -->
<!-- Title: PageTab Pages: 1 -->
<svg width="472pt" height="258pt"
 viewBox="0.00 0.00 472.00 258.00" xmlns="http://www.w3.org/2000/svg" xmlns:xlink="http://www.w3.org/1999/xlink">
<g id="graph1" class="graph" transform="scale(1 1) rotate(0) translate(4 254)">
<title>PageTab</title>
<polygon fill="white" stroke="white" points="-4,5 -4,-254 469,-254 469,5 -4,5"/>
<!-- Node1 -->
<g id="node1" class="node"><title>Node1</title>
<polygon fill="#bfbfbf" stroke="black" points="240.5,-0.5 240.5,-21.5 299.5,-21.5 299.5,-0.5 240.5,-0.5"/>
<text text-anchor="middle" x="270" y="-8.5" font-family="Helvetica,sans-Serif" font-size="10.00">PageTab</text>
</g>
<!-- Node2 -->
<g id="node2" class="node"><title>Node2</title>
<a xlink:href="classThingPaintable.htm" target="_top" xlink:title="ThingPaintable">
<polygon fill="white" stroke="black" points="166.5,-72.5 166.5,-93.5 253.5,-93.5 253.5,-72.5 166.5,-72.5"/>
<text text-anchor="middle" x="210" y="-80.5" font-family="Helvetica,sans-Serif" font-size="10.00">ThingPaintable</text>
</a>
</g>
<!-- Node2&#45;&gt;Node1 -->
<g id="edge2" class="edge"><title>Node2&#45;&gt;Node1</title>
<path fill="none" stroke="midnightblue" d="M225.347,-64.5841C236.676,-50.9886 251.702,-32.9579 261.11,-21.6674"/>
<polygon fill="midnightblue" stroke="midnightblue" points="222.566,-62.4533 218.853,-72.3762 227.944,-66.9346 222.566,-62.4533"/>
</g>
<!-- Node3 -->
<g id="node4" class="node"><title>Node3</title>
<a xlink:href="classThing.htm" target="_top" xlink:title="Thing">
<polygon fill="white" stroke="black" points="86,-156.5 86,-177.5 130,-177.5 130,-156.5 86,-156.5"/>
<text text-anchor="middle" x="108" y="-164.5" font-family="Helvetica,sans-Serif" font-size="10.00">Thing</text>
</a>
</g>
<!-- Node3&#45;&gt;Node2 -->
<g id="edge4" class="edge"><title>Node3&#45;&gt;Node2</title>
<path fill="none" stroke="midnightblue" d="M125.613,-149.202C137.01,-138.039 152.396,-123.614 167,-112 175.175,-105.499 184.77,-98.9349 192.82,-93.7"/>
<polygon fill="midnightblue" stroke="midnightblue" points="123.056,-146.808 118.419,-156.334 127.984,-151.779 123.056,-146.808"/>
</g>
<!-- Node4 -->
<g id="node6" class="node"><title>Node4</title>
<a xlink:href="classQGraphicsObject.htm" target="_top" xlink:title="QGraphicsObject">
<polygon fill="white" stroke="black" points="0,-228.5 0,-249.5 98,-249.5 98,-228.5 0,-228.5"/>
<text text-anchor="middle" x="49" y="-236.5" font-family="Helvetica,sans-Serif" font-size="10.00">QGraphicsObject</text>
</a>
</g>
<!-- Node4&#45;&gt;Node3 -->
<g id="edge6" class="edge"><title>Node4&#45;&gt;Node3</title>
<path fill="none" stroke="midnightblue" d="M64.0908,-220.584C75.2316,-206.989 90.0067,-188.958 99.2586,-177.667"/>
<polygon fill="midnightblue" stroke="midnightblue" points="61.3367,-218.423 57.7057,-228.376 66.7511,-222.86 61.3367,-218.423"/>
</g>
<!-- Node5 -->
<g id="node8" class="node"><title>Node5</title>
<polygon fill="white" stroke="#bfbfbf" points="116,-228.5 116,-249.5 220,-249.5 220,-228.5 116,-228.5"/>
<text text-anchor="middle" x="168" y="-236.5" font-family="Helvetica,sans-Serif" font-size="10.00">QPointer&lt; Thing &gt;</text>
</g>
<!-- Node5&#45;&gt;Node3 -->
<g id="edge8" class="edge"><title>Node5&#45;&gt;Node3</title>
<path fill="none" stroke="#9a32cd" stroke-dasharray="5,2" d="M152.653,-220.584C141.324,-206.989 126.298,-188.958 116.89,-177.667"/>
<polygon fill="#9a32cd" stroke="#9a32cd" points="150.056,-222.935 159.147,-228.376 155.434,-218.453 150.056,-222.935"/>
<text text-anchor="middle" x="189.5" y="-200.5" font-family="Helvetica,sans-Serif" font-size="10.00"> m_qp_takerOwner</text>
</g>
<!-- Node6 -->
<g id="node10" class="node"><title>Node6</title>
<polygon fill="white" stroke="#bfbfbf" points="147.5,-156.5 147.5,-177.5 200.5,-177.5 200.5,-156.5 147.5,-156.5"/>
<text text-anchor="middle" x="174" y="-164.5" font-family="Helvetica,sans-Serif" font-size="10.00">QString</text>
</g>
<!-- Node6&#45;&gt;Node2 -->
<g id="edge10" class="edge"><title>Node6&#45;&gt;Node2</title>
<path fill="none" stroke="#9a32cd" stroke-dasharray="5,2" d="M170.376,-146.123C169.486,-135.422 169.959,-122.475 175,-112 178.559,-104.605 185.002,-98.4322 191.4,-93.7092"/>
<polygon fill="#9a32cd" stroke="#9a32cd" points="166.932,-146.784 171.663,-156.264 173.876,-145.903 166.932,-146.784"/>
<text text-anchor="middle" x="200" y="-122.5" font-family="Helvetica,sans-Serif" font-size="10.00"> m_uiState</text>
</g>
<!-- Node7 -->
<g id="node12" class="node"><title>Node7</title>
<polygon fill="white" stroke="#bfbfbf" points="220.5,-156.5 220.5,-177.5 273.5,-177.5 273.5,-156.5 220.5,-156.5"/>
<text text-anchor="middle" x="247" y="-164.5" font-family="Helvetica,sans-Serif" font-size="10.00">QRectF</text>
</g>
<!-- Node7&#45;&gt;Node2 -->
<g id="edge12" class="edge"><title>Node7&#45;&gt;Node2</title>
<path fill="none" stroke="#9a32cd" stroke-dasharray="5,2" d="M239.466,-146.817C235.416,-136.329 230.197,-123.363 225,-112 222.171,-105.814 218.698,-99.0555 215.807,-93.6202"/>
<polygon fill="#9a32cd" stroke="#9a32cd" points="236.257,-148.224 243.082,-156.328 242.8,-145.737 236.257,-148.224"/>
<text text-anchor="middle" x="277" y="-129" font-family="Helvetica,sans-Serif" font-size="10.00"> m_boundingRect</text>
<text text-anchor="middle" x="277" y="-116" font-family="Helvetica,sans-Serif" font-size="10.00">m_geom</text>
</g>
<!-- Node8 -->
<g id="node14" class="node"><title>Node8</title>
<a xlink:href="classint.htm" target="_top" xlink:title="int">
<polygon fill="white" stroke="black" points="337.5,-156.5 337.5,-177.5 366.5,-177.5 366.5,-156.5 337.5,-156.5"/>
<text text-anchor="middle" x="352" y="-164.5" font-family="Helvetica,sans-Serif" font-size="10.00">int</text>
</a>
</g>
<!-- Node8&#45;&gt;Node2 -->
<g id="edge14" class="edge"><title>Node8&#45;&gt;Node2</title>
<path fill="none" stroke="#9a32cd" stroke-dasharray="5,2" d="M345.616,-146.865C340.884,-135.065 333.277,-120.795 322,-112 316.378,-107.615 282.533,-99.1717 253.504,-92.5217"/>
<polygon fill="#9a32cd" stroke="#9a32cd" points="342.369,-148.18 349.054,-156.399 348.954,-145.805 342.369,-148.18"/>
<text text-anchor="middle" x="402.5" y="-129" font-family="Helvetica,sans-Serif" font-size="10.00"> MagicTypePropertyValue</text>
<text text-anchor="middle" x="402.5" y="-116" font-family="Helvetica,sans-Serif" font-size="10.00">MagicTypePropertyKey</text>
</g>
<!-- Node9 -->
<g id="node16" class="node"><title>Node9</title>
<polygon fill="white" stroke="#bfbfbf" points="271,-72.5 271,-93.5 309,-93.5 309,-72.5 271,-72.5"/>
<text text-anchor="middle" x="290" y="-80.5" font-family="Helvetica,sans-Serif" font-size="10.00">char</text>
</g>
<!-- Node9&#45;&gt;Node1 -->
<g id="edge16" class="edge"><title>Node9&#45;&gt;Node1</title>
<path fill="none" stroke="#9a32cd" stroke-dasharray="5,2" d="M284.342,-62.6318C280.64,-49.3026 275.951,-32.4253 272.963,-21.6674"/>
<polygon fill="#9a32cd" stroke="#9a32cd" points="281,-63.6777 287.049,-72.3762 287.745,-61.8042 281,-63.6777"/>
<text text-anchor="middle" x="330" y="-44.5" font-family="Helvetica,sans-Serif" font-size="10.00"> PropertyNameIndex</text>
</g>
</g>
</svg>
