<?xml version="1.0" encoding="UTF-8" standalone="no"?>
<!DOCTYPE svg PUBLIC "-//W3C//DTD SVG 1.1//EN"
 "http://www.w3.org/Graphics/SVG/1.1/DTD/svg11.dtd">
<!-- Generated by graphviz version 2.26.3 (20100126.1600)
 -->
<!-- Title: TextBox Pages: 1 -->
<svg width="1036pt" height="284pt"
 viewBox="0.00 0.00 1036.00 284.00" xmlns="http://www.w3.org/2000/svg" xmlns:xlink="http://www.w3.org/1999/xlink">
<g id="graph1" class="graph" transform="scale(1 1) rotate(0) translate(4 280)">
<title>TextBox</title>
<polygon fill="white" stroke="white" points="-4,5 -4,-280 1033,-280 1033,5 -4,5"/>
<!-- Node1 -->
<g id="node1" class="node"><title>Node1</title>
<polygon fill="#bfbfbf" stroke="black" points="435,-0.5 435,-21.5 491,-21.5 491,-0.5 435,-0.5"/>
<text text-anchor="middle" x="463" y="-8.5" font-family="Helvetica,sans-Serif" font-size="10.00">TextBox</text>
</g>
<!-- Node2 -->
<g id="node2" class="node"><title>Node2</title>
<a xlink:href="classThingPaintable.htm" target="_top" xlink:title="ThingPaintable">
<polygon fill="white" stroke="black" points="89.5,-98.5 89.5,-119.5 176.5,-119.5 176.5,-98.5 89.5,-98.5"/>
<text text-anchor="middle" x="133" y="-106.5" font-family="Helvetica,sans-Serif" font-size="10.00">ThingPaintable</text>
</a>
</g>
<!-- Node2&#45;&gt;Node1 -->
<g id="edge2" class="edge"><title>Node2&#45;&gt;Node1</title>
<path fill="none" stroke="midnightblue" d="M153.634,-92.0352C174.544,-75.8296 208.5,-52.1304 242,-40 276.839,-27.3849 383.221,-17.4155 434.617,-13.1927"/>
<polygon fill="midnightblue" stroke="midnightblue" points="151.441,-89.3075 145.77,-98.257 155.784,-94.7972 151.441,-89.3075"/>
</g>
<!-- Node3 -->
<g id="node4" class="node"><title>Node3</title>
<a xlink:href="classThing.htm" target="_top" xlink:title="Thing">
<polygon fill="white" stroke="black" points="336,-182.5 336,-203.5 380,-203.5 380,-182.5 336,-182.5"/>
<text text-anchor="middle" x="358" y="-190.5" font-family="Helvetica,sans-Serif" font-size="10.00">Thing</text>
</a>
</g>
<!-- Node3&#45;&gt;Node2 -->
<g id="edge4" class="edge"><title>Node3&#45;&gt;Node2</title>
<path fill="none" stroke="midnightblue" d="M356.568,-172.193C354.609,-160.352 350.126,-146.274 340,-138 313.148,-116.06 219.222,-125.594 185,-120 182.268,-119.553 179.462,-119.06 176.637,-118.538"/>
<polygon fill="midnightblue" stroke="midnightblue" points="353.102,-172.687 357.749,-182.208 360.054,-171.867 353.102,-172.687"/>
</g>
<!-- Node4 -->
<g id="node6" class="node"><title>Node4</title>
<a xlink:href="classQGraphicsObject.htm" target="_top" xlink:title="QGraphicsObject">
<polygon fill="white" stroke="black" points="249,-254.5 249,-275.5 347,-275.5 347,-254.5 249,-254.5"/>
<text text-anchor="middle" x="298" y="-262.5" font-family="Helvetica,sans-Serif" font-size="10.00">QGraphicsObject</text>
</a>
</g>
<!-- Node4&#45;&gt;Node3 -->
<g id="edge6" class="edge"><title>Node4&#45;&gt;Node3</title>
<path fill="none" stroke="midnightblue" d="M313.347,-246.584C324.676,-232.989 339.702,-214.958 349.11,-203.667"/>
<polygon fill="midnightblue" stroke="midnightblue" points="310.566,-244.453 306.853,-254.376 315.944,-248.935 310.566,-244.453"/>
</g>
<!-- Node5 -->
<g id="node8" class="node"><title>Node5</title>
<polygon fill="white" stroke="#bfbfbf" points="365,-254.5 365,-275.5 469,-275.5 469,-254.5 365,-254.5"/>
<text text-anchor="middle" x="417" y="-262.5" font-family="Helvetica,sans-Serif" font-size="10.00">QPointer&lt; Thing &gt;</text>
</g>
<!-- Node5&#45;&gt;Node3 -->
<g id="edge8" class="edge"><title>Node5&#45;&gt;Node3</title>
<path fill="none" stroke="#9a32cd" stroke-dasharray="5,2" d="M401.909,-246.584C390.768,-232.989 375.993,-214.958 366.741,-203.667"/>
<polygon fill="#9a32cd" stroke="#9a32cd" points="399.249,-248.86 408.294,-254.376 404.663,-244.423 399.249,-248.86"/>
<text text-anchor="middle" x="438.5" y="-226.5" font-family="Helvetica,sans-Serif" font-size="10.00"> m_qp_takerOwner</text>
</g>
<!-- Node6 -->
<g id="node10" class="node"><title>Node6</title>
<polygon fill="white" stroke="#bfbfbf" points="-0.5,-182.5 -0.5,-203.5 52.5,-203.5 52.5,-182.5 -0.5,-182.5"/>
<text text-anchor="middle" x="26" y="-190.5" font-family="Helvetica,sans-Serif" font-size="10.00">QString</text>
</g>
<!-- Node6&#45;&gt;Node1 -->
<g id="edge22" class="edge"><title>Node6&#45;&gt;Node1</title>
<path fill="none" stroke="#9a32cd" stroke-dasharray="5,2" d="M17.4878,-173.125C10.1006,-152.486 2.76457,-120.173 18,-98 65.701,-28.5789 344.614,-14.4263 434.849,-11.6511"/>
<polygon fill="#9a32cd" stroke="#9a32cd" points="14.24,-174.43 21.1277,-182.481 20.7637,-171.892 14.24,-174.43"/>
<text text-anchor="middle" x="49.5" y="-106.5" font-family="Helvetica,sans-Serif" font-size="10.00"> m_innerText</text>
</g>
<!-- Node6&#45;&gt;Node2 -->
<g id="edge10" class="edge"><title>Node6&#45;&gt;Node2</title>
<path fill="none" stroke="#9a32cd" stroke-dasharray="5,2" d="M34.0879,-172.921C39.617,-161.371 47.9514,-147.343 59,-138 68.5882,-129.892 80.7103,-123.884 92.3532,-119.508"/>
<polygon fill="#9a32cd" stroke="#9a32cd" points="30.8041,-171.692 29.9535,-182.253 37.2041,-174.528 30.8041,-171.692"/>
<text text-anchor="middle" x="84" y="-148.5" font-family="Helvetica,sans-Serif" font-size="10.00"> m_uiState</text>
</g>
<!-- Node7 -->
<g id="node12" class="node"><title>Node7</title>
<polygon fill="white" stroke="#bfbfbf" points="88.5,-182.5 88.5,-203.5 141.5,-203.5 141.5,-182.5 88.5,-182.5"/>
<text text-anchor="middle" x="115" y="-190.5" font-family="Helvetica,sans-Serif" font-size="10.00">QRectF</text>
</g>
<!-- Node7&#45;&gt;Node2 -->
<g id="edge12" class="edge"><title>Node7&#45;&gt;Node2</title>
<path fill="none" stroke="#9a32cd" stroke-dasharray="5,2" d="M112.908,-171.996C112.49,-161.587 112.924,-148.937 116,-138 117.833,-131.483 121.495,-124.918 124.953,-119.686"/>
<polygon fill="#9a32cd" stroke="#9a32cd" points="109.434,-172.487 113.611,-182.223 116.417,-172.007 109.434,-172.487"/>
<text text-anchor="middle" x="157" y="-155" font-family="Helvetica,sans-Serif" font-size="10.00"> m_boundingRect</text>
<text text-anchor="middle" x="157" y="-142" font-family="Helvetica,sans-Serif" font-size="10.00">m_geom</text>
</g>
<!-- Node8 -->
<g id="node14" class="node"><title>Node8</title>
<a xlink:href="classint.htm" target="_top" xlink:title="int">
<polygon fill="white" stroke="black" points="205.5,-182.5 205.5,-203.5 234.5,-203.5 234.5,-182.5 205.5,-182.5"/>
<text text-anchor="middle" x="220" y="-190.5" font-family="Helvetica,sans-Serif" font-size="10.00">int</text>
</a>
</g>
<!-- Node8&#45;&gt;Node2 -->
<g id="edge14" class="edge"><title>Node8&#45;&gt;Node2</title>
<path fill="none" stroke="#9a32cd" stroke-dasharray="5,2" d="M215.791,-172.433C212.565,-161.091 207.075,-147.438 198,-138 190.206,-129.895 179.74,-123.887 169.486,-119.511"/>
<polygon fill="#9a32cd" stroke="#9a32cd" points="212.451,-173.508 218.234,-182.386 219.249,-171.84 212.451,-173.508"/>
<text text-anchor="middle" x="274.5" y="-155" font-family="Helvetica,sans-Serif" font-size="10.00"> MagicTypePropertyValue</text>
<text text-anchor="middle" x="274.5" y="-142" font-family="Helvetica,sans-Serif" font-size="10.00">MagicTypePropertyKey</text>
</g>
<!-- Node9 -->
<g id="node16" class="node"><title>Node9</title>
<polygon fill="white" stroke="#bfbfbf" points="193.5,-98.5 193.5,-119.5 334.5,-119.5 334.5,-98.5 193.5,-98.5"/>
<text text-anchor="middle" x="264" y="-106.5" font-family="Helvetica,sans-Serif" font-size="10.00">QPointer&lt; PixmapObject &gt;</text>
</g>
<!-- Node9&#45;&gt;Node1 -->
<g id="edge16" class="edge"><title>Node9&#45;&gt;Node1</title>
<path fill="none" stroke="#9a32cd" stroke-dasharray="5,2" d="M252.797,-89.1453C245.878,-73.9455 240.332,-53.3814 252,-40 263.847,-26.4136 380.071,-16.699 434.787,-12.8408"/>
<polygon fill="#9a32cd" stroke="#9a32cd" points="249.749,-90.8748 257.375,-98.2298 256.001,-87.7245 249.749,-90.8748"/>
<text text-anchor="start" x="252" y="-70.5" font-family="Helvetica,sans-Serif" font-size="10.00"> m_qp_prerenderedInnerText</text>
<text text-anchor="middle" x="322.5" y="-57.5" font-family="Helvetica,sans-Serif" font-size="10.00">Pixmap</text>
<text text-anchor="middle" x="322.5" y="-44.5" font-family="Helvetica,sans-Serif" font-size="10.00">m_qp_background</text>
</g>
<!-- Node10 -->
<g id="node18" class="node"><title>Node10</title>
<polygon fill="white" stroke="#bfbfbf" points="375.5,-98.5 375.5,-119.5 430.5,-119.5 430.5,-98.5 375.5,-98.5"/>
<text text-anchor="middle" x="403" y="-106.5" font-family="Helvetica,sans-Serif" font-size="10.00">QPointF</text>
</g>
<!-- Node10&#45;&gt;Node1 -->
<g id="edge18" class="edge"><title>Node10&#45;&gt;Node1</title>
<path fill="none" stroke="#9a32cd" stroke-dasharray="5,2" d="M397.918,-88.1455C395.574,-73.5492 395.015,-54.1982 404,-40 410.897,-29.1017 423.201,-22.1742 434.794,-17.8355"/>
<polygon fill="#9a32cd" stroke="#9a32cd" points="394.538,-89.0954 399.929,-98.2165 401.403,-87.7247 394.538,-89.0954"/>
<text text-anchor="middle" x="453" y="-57.5" font-family="Helvetica,sans-Serif" font-size="10.00"> m_innerTextPosICS</text>
</g>
<!-- Node11 -->
<g id="node20" class="node"><title>Node11</title>
<polygon fill="white" stroke="#bfbfbf" points="485.5,-98.5 485.5,-119.5 562.5,-119.5 562.5,-98.5 485.5,-98.5"/>
<text text-anchor="middle" x="524" y="-106.5" font-family="Helvetica,sans-Serif" font-size="10.00">QTextLayout</text>
</g>
<!-- Node11&#45;&gt;Node1 -->
<g id="edge20" class="edge"><title>Node11&#45;&gt;Node1</title>
<path fill="none" stroke="#9a32cd" stroke-dasharray="5,2" d="M520.859,-88.2396C517.869,-73.6879 512.246,-54.3517 502,-40 496.803,-32.721 489.223,-26.4979 482.125,-21.7043"/>
<polygon fill="#9a32cd" stroke="#9a32cd" points="517.448,-89.0511 522.665,-98.2729 524.338,-87.811 517.448,-89.0511"/>
<text text-anchor="middle" x="566.5" y="-57.5" font-family="Helvetica,sans-Serif" font-size="10.00"> m_textLayoutObject</text>
</g>
<!-- Node12 -->
<g id="node23" class="node"><title>Node12</title>
<polygon fill="white" stroke="#bfbfbf" points="625,-98.5 625,-119.5 663,-119.5 663,-98.5 625,-98.5"/>
<text text-anchor="middle" x="644" y="-106.5" font-family="Helvetica,sans-Serif" font-size="10.00">char</text>
</g>
<!-- Node12&#45;&gt;Node1 -->
<g id="edge24" class="edge"><title>Node12&#45;&gt;Node1</title>
<path fill="none" stroke="#9a32cd" stroke-dasharray="5,2" d="M641.913,-88.0228C639.225,-72.4558 633.073,-51.9382 619,-40 600.094,-23.962 530.65,-16.1403 491.085,-12.9096"/>
<polygon fill="#9a32cd" stroke="#9a32cd" points="638.495,-88.8585 643.322,-98.2895 645.43,-87.9064 638.495,-88.8585"/>
<text text-anchor="middle" x="699" y="-57.5" font-family="Helvetica,sans-Serif" font-size="10.00"> InnerTextPropertyName</text>
</g>
<!-- Node13 -->
<g id="node25" class="node"><title>Node13</title>
<polygon fill="white" stroke="#bfbfbf" points="761.5,-98.5 761.5,-119.5 808.5,-119.5 808.5,-98.5 761.5,-98.5"/>
<text text-anchor="middle" x="785" y="-106.5" font-family="Helvetica,sans-Serif" font-size="10.00">QRect</text>
</g>
<!-- Node13&#45;&gt;Node1 -->
<g id="edge26" class="edge"><title>Node13&#45;&gt;Node1</title>
<path fill="none" stroke="#9a32cd" stroke-dasharray="5,2" d="M783.881,-87.9794C781.845,-72.2164 776.383,-51.462 762,-40 741.072,-23.3216 561.5,-14.7456 491.126,-12.0008"/>
<polygon fill="#9a32cd" stroke="#9a32cd" points="780.435,-88.7336 784.837,-98.3709 787.406,-88.0923 780.435,-88.7336"/>
<text text-anchor="middle" x="838" y="-64" font-family="Helvetica,sans-Serif" font-size="10.00"> m_innerTextMaxGeom</text>
<text text-anchor="middle" x="838" y="-51" font-family="Helvetica,sans-Serif" font-size="10.00">m_innerTextGeom</text>
</g>
<!-- Node14 -->
<g id="node27" class="node"><title>Node14</title>
<polygon fill="white" stroke="#bfbfbf" points="895.5,-98.5 895.5,-119.5 944.5,-119.5 944.5,-98.5 895.5,-98.5"/>
<text text-anchor="middle" x="920" y="-106.5" font-family="Helvetica,sans-Serif" font-size="10.00">QPoint</text>
</g>
<!-- Node14&#45;&gt;Node1 -->
<g id="edge28" class="edge"><title>Node14&#45;&gt;Node1</title>
<path fill="none" stroke="#9a32cd" stroke-dasharray="5,2" d="M919.298,-87.884C917.551,-72.0688 912.418,-51.2908 898,-40 881.948,-27.4294 584.67,-15.4725 491.012,-12.0039"/>
<polygon fill="#9a32cd" stroke="#9a32cd" points="915.84,-88.5959 920.055,-98.3161 922.822,-88.0889 915.84,-88.5959"/>
<text text-anchor="middle" x="972.5" y="-57.5" font-family="Helvetica,sans-Serif" font-size="10.00"> m_innerTextPosPntCS</text>
</g>
</g>
</svg>
