<?xml version="1.0" encoding="UTF-8" standalone="no"?>
<!DOCTYPE svg PUBLIC "-//W3C//DTD SVG 1.1//EN"
 "http://www.w3.org/Graphics/SVG/1.1/DTD/svg11.dtd">
<!-- Generated by graphviz version 2.26.3 (20100126.1600)
 -->
<!-- Title: BannerWindow Pages: 1 -->
<svg width="240pt" height="88pt"
 viewBox="0.00 0.00 240.00 88.00" xmlns="http://www.w3.org/2000/svg" xmlns:xlink="http://www.w3.org/1999/xlink">
<g id="graph1" class="graph" transform="scale(1 1) rotate(0) translate(4 84)">
<title>BannerWindow</title>
<polygon fill="white" stroke="white" points="-4,5 -4,-84 237,-84 237,5 -4,5"/>
<!-- Node1 -->
<g id="node1" class="node"><title>Node1</title>
<polygon fill="#bfbfbf" stroke="black" points="66.5,-0.5 66.5,-21.5 155.5,-21.5 155.5,-0.5 66.5,-0.5"/>
<text text-anchor="middle" x="111" y="-8.5" font-family="Helvetica,sans-Serif" font-size="10.00">BannerWindow</text>
</g>
<!-- Node2 -->
<g id="node2" class="node"><title>Node2</title>
<a xlink:href="classQGraphicsObject.htm" target="_top" xlink:title="QGraphicsObject">
<polygon fill="white" stroke="black" points="0,-58.5 0,-79.5 98,-79.5 98,-58.5 0,-58.5"/>
<text text-anchor="middle" x="49" y="-66.5" font-family="Helvetica,sans-Serif" font-size="10.00">QGraphicsObject</text>
</a>
</g>
<!-- Node2&#45;&gt;Node1 -->
<g id="edge2" class="edge"><title>Node2&#45;&gt;Node1</title>
<path fill="none" stroke="midnightblue" d="M67.8085,-51.405C78.2166,-41.6683 90.8058,-29.8914 99.7003,-21.5707"/>
<polygon fill="midnightblue" stroke="midnightblue" points="65.2834,-48.9743 60.3718,-58.3619 70.0656,-54.0863 65.2834,-48.9743"/>
</g>
<!-- Node3 -->
<g id="node4" class="node"><title>Node3</title>
<a xlink:href="classBannerMessageView.htm" target="_top" xlink:title="BannerMessageView">
<polygon fill="white" stroke="black" points="115.5,-58.5 115.5,-79.5 232.5,-79.5 232.5,-58.5 115.5,-58.5"/>
<text text-anchor="middle" x="174" y="-66.5" font-family="Helvetica,sans-Serif" font-size="10.00">BannerMessageView</text>
</a>
</g>
<!-- Node3&#45;&gt;Node1 -->
<g id="edge4" class="edge"><title>Node3&#45;&gt;Node1</title>
<path fill="none" stroke="midnightblue" d="M154.888,-51.405C144.312,-41.6683 131.52,-29.8914 122.482,-21.5707"/>
<polygon fill="midnightblue" stroke="midnightblue" points="152.717,-54.1637 162.445,-58.3619 157.458,-49.0138 152.717,-54.1637"/>
</g>
</g>
</svg>
