<?xml version="1.0" encoding="UTF-8" standalone="no"?>
<!DOCTYPE svg PUBLIC "-//W3C//DTD SVG 1.1//EN"
 "http://www.w3.org/Graphics/SVG/1.1/DTD/svg11.dtd">
<!-- Generated by graphviz version 2.26.3 (20100126.1600)
 -->
<!-- Title: CardWindow Pages: 1 -->
<svg width="302pt" height="320pt"
 viewBox="0.00 0.00 302.00 320.00" xmlns="http://www.w3.org/2000/svg" xmlns:xlink="http://www.w3.org/1999/xlink">
<g id="graph1" class="graph" transform="scale(1 1) rotate(0) translate(4 316)">
<title>CardWindow</title>
<polygon fill="white" stroke="white" points="-4,5 -4,-316 299,-316 299,5 -4,5"/>
<!-- Node1 -->
<g id="node1" class="node"><title>Node1</title>
<polygon fill="#bfbfbf" stroke="black" points="113.5,-116.5 113.5,-137.5 190.5,-137.5 190.5,-116.5 113.5,-116.5"/>
<text text-anchor="middle" x="152" y="-124.5" font-family="Helvetica,sans-Serif" font-size="10.00">CardWindow</text>
</g>
<!-- Node7 -->
<g id="node13" class="node"><title>Node7</title>
<a xlink:href="classCardHostWindow.htm" target="_top" xlink:title="CardHostWindow">
<polygon fill="white" stroke="black" points="43.5,-58.5 43.5,-79.5 142.5,-79.5 142.5,-58.5 43.5,-58.5"/>
<text text-anchor="middle" x="93" y="-66.5" font-family="Helvetica,sans-Serif" font-size="10.00">CardHostWindow</text>
</a>
</g>
<!-- Node1&#45;&gt;Node7 -->
<g id="edge12" class="edge"><title>Node1&#45;&gt;Node7</title>
<path fill="none" stroke="midnightblue" d="M133.81,-109.118C123.963,-99.4377 112.134,-87.8098 103.753,-79.5707"/>
<polygon fill="midnightblue" stroke="midnightblue" points="131.594,-111.847 141.178,-116.362 136.501,-106.856 131.594,-111.847"/>
</g>
<!-- Node9 -->
<g id="node17" class="node"><title>Node9</title>
<a xlink:href="classDockModeWindow.htm" target="_top" xlink:title="DockModeWindow">
<polygon fill="white" stroke="black" points="162.5,-58.5 162.5,-79.5 267.5,-79.5 267.5,-58.5 162.5,-58.5"/>
<text text-anchor="middle" x="215" y="-66.5" font-family="Helvetica,sans-Serif" font-size="10.00">DockModeWindow</text>
</a>
</g>
<!-- Node1&#45;&gt;Node9 -->
<g id="edge16" class="edge"><title>Node1&#45;&gt;Node9</title>
<path fill="none" stroke="midnightblue" d="M171.112,-109.405C181.688,-99.6683 194.48,-87.8914 203.518,-79.5707"/>
<polygon fill="midnightblue" stroke="midnightblue" points="168.542,-107.014 163.555,-116.362 173.283,-112.164 168.542,-107.014"/>
</g>
<!-- Node2 -->
<g id="node2" class="node"><title>Node2</title>
<a xlink:href="classHostWindow.htm" target="_top" xlink:title="HostWindow">
<polygon fill="white" stroke="black" points="114,-174.5 114,-195.5 190,-195.5 190,-174.5 114,-174.5"/>
<text text-anchor="middle" x="152" y="-182.5" font-family="Helvetica,sans-Serif" font-size="10.00">HostWindow</text>
</a>
</g>
<!-- Node2&#45;&gt;Node1 -->
<g id="edge2" class="edge"><title>Node2&#45;&gt;Node1</title>
<path fill="none" stroke="midnightblue" d="M152,-164.191C152,-155.168 152,-144.994 152,-137.571"/>
<polygon fill="midnightblue" stroke="midnightblue" points="148.5,-164.362 152,-174.362 155.5,-164.362 148.5,-164.362"/>
</g>
<!-- Node3 -->
<g id="node4" class="node"><title>Node3</title>
<a xlink:href="classWindow.htm" target="_top" xlink:title="Window">
<polygon fill="white" stroke="black" points="22,-232.5 22,-253.5 76,-253.5 76,-232.5 22,-232.5"/>
<text text-anchor="middle" x="49" y="-240.5" font-family="Helvetica,sans-Serif" font-size="10.00">Window</text>
</a>
</g>
<!-- Node3&#45;&gt;Node2 -->
<g id="edge4" class="edge"><title>Node3&#45;&gt;Node2</title>
<path fill="none" stroke="midnightblue" d="M76.7408,-227.379C94.6378,-217.301 117.437,-204.462 133.228,-195.571"/>
<polygon fill="midnightblue" stroke="midnightblue" points="74.888,-224.405 67.8918,-232.362 78.3226,-230.505 74.888,-224.405"/>
</g>
<!-- Node4 -->
<g id="node6" class="node"><title>Node4</title>
<a xlink:href="classQGraphicsObject.htm" target="_top" xlink:title="QGraphicsObject">
<polygon fill="white" stroke="black" points="0,-290.5 0,-311.5 98,-311.5 98,-290.5 0,-290.5"/>
<text text-anchor="middle" x="49" y="-298.5" font-family="Helvetica,sans-Serif" font-size="10.00">QGraphicsObject</text>
</a>
</g>
<!-- Node4&#45;&gt;Node3 -->
<g id="edge6" class="edge"><title>Node4&#45;&gt;Node3</title>
<path fill="none" stroke="midnightblue" d="M49,-280.191C49,-271.168 49,-260.994 49,-253.571"/>
<polygon fill="midnightblue" stroke="midnightblue" points="45.5001,-280.362 49,-290.362 52.5001,-280.362 45.5001,-280.362"/>
</g>
<!-- Node5 -->
<g id="node8" class="node"><title>Node5</title>
<a xlink:href="classPIpcChannelListener.htm" target="_top" xlink:title="PIpcChannelListener">
<polygon fill="white" stroke="black" points="94,-232.5 94,-253.5 210,-253.5 210,-232.5 94,-232.5"/>
<text text-anchor="middle" x="152" y="-240.5" font-family="Helvetica,sans-Serif" font-size="10.00">PIpcChannelListener</text>
</a>
</g>
<!-- Node5&#45;&gt;Node2 -->
<g id="edge8" class="edge"><title>Node5&#45;&gt;Node2</title>
<path fill="none" stroke="midnightblue" d="M152,-222.191C152,-213.168 152,-202.994 152,-195.571"/>
<polygon fill="midnightblue" stroke="midnightblue" points="148.5,-222.362 152,-232.362 155.5,-222.362 148.5,-222.362"/>
</g>
<!-- Node6 -->
<g id="node10" class="node"><title>Node6</title>
<a xlink:href="classInputClient.htm" target="_top" xlink:title="InputClient">
<polygon fill="white" stroke="black" points="227.5,-232.5 227.5,-253.5 294.5,-253.5 294.5,-232.5 227.5,-232.5"/>
<text text-anchor="middle" x="261" y="-240.5" font-family="Helvetica,sans-Serif" font-size="10.00">InputClient</text>
</a>
</g>
<!-- Node6&#45;&gt;Node2 -->
<g id="edge10" class="edge"><title>Node6&#45;&gt;Node2</title>
<path fill="none" stroke="midnightblue" d="M232.423,-227.794C213.406,-217.675 188.898,-204.634 171.961,-195.621"/>
<polygon fill="midnightblue" stroke="midnightblue" points="230.789,-230.889 241.261,-232.497 234.077,-224.709 230.789,-230.889"/>
</g>
<!-- Node8 -->
<g id="node15" class="node"><title>Node8</title>
<a xlink:href="classQtHostWindow.htm" target="_top" xlink:title="QtHostWindow">
<polygon fill="white" stroke="black" points="47.5,-0.5 47.5,-21.5 134.5,-21.5 134.5,-0.5 47.5,-0.5"/>
<text text-anchor="middle" x="91" y="-8.5" font-family="Helvetica,sans-Serif" font-size="10.00">QtHostWindow</text>
</a>
</g>
<!-- Node7&#45;&gt;Node8 -->
<g id="edge14" class="edge"><title>Node7&#45;&gt;Node8</title>
<path fill="none" stroke="midnightblue" d="M92.2824,-48.1906C91.9713,-39.1684 91.6205,-28.9941 91.3645,-21.5707"/>
<polygon fill="midnightblue" stroke="midnightblue" points="88.7905,-48.4885 92.6332,-58.3619 95.7864,-48.2472 88.7905,-48.4885"/>
</g>
<!-- Node10 -->
<g id="node19" class="node"><title>Node10</title>
<a xlink:href="classDockModeClockWindow.htm" target="_top" xlink:title="DockModeClockWindow">
<polygon fill="white" stroke="black" points="151.5,-0.5 151.5,-21.5 282.5,-21.5 282.5,-0.5 151.5,-0.5"/>
<text text-anchor="middle" x="217" y="-8.5" font-family="Helvetica,sans-Serif" font-size="10.00">DockModeClockWindow</text>
</a>
</g>
<!-- Node9&#45;&gt;Node10 -->
<g id="edge18" class="edge"><title>Node9&#45;&gt;Node10</title>
<path fill="none" stroke="midnightblue" d="M215.718,-48.1906C216.029,-39.1684 216.38,-28.9941 216.635,-21.5707"/>
<polygon fill="midnightblue" stroke="midnightblue" points="212.214,-48.2472 215.367,-58.3619 219.209,-48.4885 212.214,-48.2472"/>
</g>
</g>
</svg>
