<?xml version="1.0" encoding="UTF-8" standalone="no"?>
<!DOCTYPE svg PUBLIC "-//W3C//DTD SVG 1.1//EN"
 "http://www.w3.org/Graphics/SVG/1.1/DTD/svg11.dtd">
<!-- Generated by graphviz version 2.26.3 (20100126.1600)
 -->
<!-- Title: StatusBarNotificationArea Pages: 1 -->
<svg width="485pt" height="162pt"
 viewBox="0.00 0.00 485.00 162.00" xmlns="http://www.w3.org/2000/svg" xmlns:xlink="http://www.w3.org/1999/xlink">
<g id="graph1" class="graph" transform="scale(1 1) rotate(0) translate(4 158)">
<title>StatusBarNotificationArea</title>
<polygon fill="white" stroke="white" points="-4,5 -4,-158 482,-158 482,5 -4,5"/>
<!-- Node1 -->
<g id="node1" class="node"><title>Node1</title>
<polygon fill="#bfbfbf" stroke="black" points="201.5,-0.5 201.5,-21.5 338.5,-21.5 338.5,-0.5 201.5,-0.5"/>
<text text-anchor="middle" x="270" y="-8.5" font-family="Helvetica,sans-Serif" font-size="10.00">StatusBarNotificationArea</text>
</g>
<!-- Node2 -->
<g id="node2" class="node"><title>Node2</title>
<a xlink:href="classStatusBarItem.htm" target="_top" xlink:title="StatusBarItem">
<polygon fill="white" stroke="black" points="105.5,-60.5 105.5,-81.5 188.5,-81.5 188.5,-60.5 105.5,-60.5"/>
<text text-anchor="middle" x="147" y="-68.5" font-family="Helvetica,sans-Serif" font-size="10.00">StatusBarItem</text>
</a>
</g>
<!-- Node2&#45;&gt;Node1 -->
<g id="edge2" class="edge"><title>Node2&#45;&gt;Node1</title>
<path fill="none" stroke="midnightblue" d="M177.908,-55.923C199.776,-45.2554 228.569,-31.2101 248.096,-21.6846"/>
<polygon fill="midnightblue" stroke="midnightblue" points="176.16,-52.8813 168.707,-60.4113 179.229,-59.1727 176.16,-52.8813"/>
</g>
<!-- Node3 -->
<g id="node4" class="node"><title>Node3</title>
<a xlink:href="classQGraphicsObject.htm" target="_top" xlink:title="QGraphicsObject">
<polygon fill="white" stroke="black" points="0,-132.5 0,-153.5 98,-153.5 98,-132.5 0,-132.5"/>
<text text-anchor="middle" x="49" y="-140.5" font-family="Helvetica,sans-Serif" font-size="10.00">QGraphicsObject</text>
</a>
</g>
<!-- Node3&#45;&gt;Node2 -->
<g id="edge4" class="edge"><title>Node3&#45;&gt;Node2</title>
<path fill="none" stroke="midnightblue" d="M71.7431,-126.291C90.4708,-112.532 116.46,-93.4372 132.48,-81.6674"/>
<polygon fill="midnightblue" stroke="midnightblue" points="69.4468,-123.635 63.4602,-132.376 73.5914,-129.276 69.4468,-123.635"/>
</g>
<!-- Node4 -->
<g id="node6" class="node"><title>Node4</title>
<polygon fill="white" stroke="#bfbfbf" points="115.5,-132.5 115.5,-153.5 178.5,-153.5 178.5,-132.5 115.5,-132.5"/>
<text text-anchor="middle" x="147" y="-140.5" font-family="Helvetica,sans-Serif" font-size="10.00">Alignment</text>
</g>
<!-- Node4&#45;&gt;Node2 -->
<g id="edge6" class="edge"><title>Node4&#45;&gt;Node2</title>
<path fill="none" stroke="#9a32cd" stroke-dasharray="5,2" d="M147,-122.235C147,-108.969 147,-92.3188 147,-81.6674"/>
<polygon fill="#9a32cd" stroke="#9a32cd" points="143.5,-122.376 147,-132.376 150.5,-122.376 143.5,-122.376"/>
<text text-anchor="middle" x="179" y="-104.5" font-family="Helvetica,sans-Serif" font-size="10.00"> m_alignment</text>
</g>
<!-- Node5 -->
<g id="node8" class="node"><title>Node5</title>
<polygon fill="white" stroke="#bfbfbf" points="207.5,-132.5 207.5,-153.5 260.5,-153.5 260.5,-132.5 207.5,-132.5"/>
<text text-anchor="middle" x="234" y="-140.5" font-family="Helvetica,sans-Serif" font-size="10.00">QRectF</text>
</g>
<!-- Node5&#45;&gt;Node2 -->
<g id="edge8" class="edge"><title>Node5&#45;&gt;Node2</title>
<path fill="none" stroke="#9a32cd" stroke-dasharray="5,2" d="M227.06,-122.811C223.54,-114.903 218.589,-106.247 212,-100 203.571,-92.0082 192.568,-85.9754 182.018,-81.5405"/>
<polygon fill="#9a32cd" stroke="#9a32cd" points="223.837,-124.179 230.769,-132.192 230.347,-121.606 223.837,-124.179"/>
<text text-anchor="middle" x="248" y="-104.5" font-family="Helvetica,sans-Serif" font-size="10.00"> m_bounds</text>
</g>
<!-- Node6 -->
<g id="node10" class="node"><title>Node6</title>
<a xlink:href="classStatusBarIconContainer.htm" target="_top" xlink:title="StatusBarIconContainer">
<polygon fill="white" stroke="black" points="205.5,-60.5 205.5,-81.5 334.5,-81.5 334.5,-60.5 205.5,-60.5"/>
<text text-anchor="middle" x="270" y="-68.5" font-family="Helvetica,sans-Serif" font-size="10.00">StatusBarIconContainer</text>
</a>
</g>
<!-- Node6&#45;&gt;Node1 -->
<g id="edge10" class="edge"><title>Node6&#45;&gt;Node1</title>
<path fill="none" stroke="midnightblue" d="M270,-50.2312C270,-40.5922 270,-29.5444 270,-21.6339"/>
<polygon fill="midnightblue" stroke="midnightblue" points="266.5,-50.2732 270,-60.2732 273.5,-50.2732 266.5,-50.2732"/>
</g>
<!-- Node7 -->
<g id="node12" class="node"><title>Node7</title>
<a xlink:href="classBannerMessageView.htm" target="_top" xlink:title="BannerMessageView">
<polygon fill="white" stroke="black" points="351.5,-60.5 351.5,-81.5 468.5,-81.5 468.5,-60.5 351.5,-60.5"/>
<text text-anchor="middle" x="410" y="-68.5" font-family="Helvetica,sans-Serif" font-size="10.00">BannerMessageView</text>
</a>
</g>
<!-- Node7&#45;&gt;Node1 -->
<g id="edge12" class="edge"><title>Node7&#45;&gt;Node1</title>
<path fill="none" stroke="midnightblue" d="M375.821,-56.3516C350.813,-45.6341 317.456,-31.3383 294.931,-21.6846"/>
<polygon fill="midnightblue" stroke="midnightblue" points="374.723,-59.6891 385.293,-60.4113 377.48,-53.2551 374.723,-59.6891"/>
</g>
<!-- Node8 -->
<g id="node14" class="node"><title>Node8</title>
<polygon fill="white" stroke="#bfbfbf" points="376.5,-132.5 376.5,-153.5 443.5,-153.5 443.5,-132.5 376.5,-132.5"/>
<text text-anchor="middle" x="410" y="-140.5" font-family="Helvetica,sans-Serif" font-size="10.00">ScrollType</text>
</g>
<!-- Node8&#45;&gt;Node7 -->
<g id="edge14" class="edge"><title>Node8&#45;&gt;Node7</title>
<path fill="none" stroke="#9a32cd" stroke-dasharray="5,2" d="M410,-122.235C410,-108.969 410,-92.3188 410,-81.6674"/>
<polygon fill="#9a32cd" stroke="#9a32cd" points="406.5,-122.376 410,-132.376 413.5,-122.376 406.5,-122.376"/>
<text text-anchor="middle" x="443.5" y="-104.5" font-family="Helvetica,sans-Serif" font-size="10.00"> m_scrollType</text>
</g>
</g>
</svg>
