<?xml version="1.0" encoding="UTF-8" standalone="no"?>
<!DOCTYPE svg PUBLIC "-//W3C//DTD SVG 1.1//EN"
 "http://www.w3.org/Graphics/SVG/1.1/DTD/svg11.dtd">
<!-- Generated by graphviz version 2.26.3 (20100126.1600)
 -->
<!-- Title: HostWindowDataOpenGL Pages: 1 -->
<svg width="370pt" height="174pt"
 viewBox="0.00 0.00 370.00 174.00" xmlns="http://www.w3.org/2000/svg" xmlns:xlink="http://www.w3.org/1999/xlink">
<g id="graph1" class="graph" transform="scale(1 1) rotate(0) translate(4 170)">
<title>HostWindowDataOpenGL</title>
<polygon fill="white" stroke="white" points="-4,5 -4,-170 367,-170 367,5 -4,5"/>
<!-- Node1 -->
<g id="node1" class="node"><title>Node1</title>
<polygon fill="#bfbfbf" stroke="black" points="94.5,-0.5 94.5,-21.5 233.5,-21.5 233.5,-0.5 94.5,-0.5"/>
<text text-anchor="middle" x="164" y="-8.5" font-family="Helvetica,sans-Serif" font-size="10.00">HostWindowDataOpenGL</text>
</g>
<!-- Node2 -->
<g id="node2" class="node"><title>Node2</title>
<a xlink:href="classHostWindowDataSoftware.htm" target="_top" xlink:title="HostWindowDataSoftware">
<polygon fill="white" stroke="black" points="94,-60.5 94,-81.5 234,-81.5 234,-60.5 94,-60.5"/>
<text text-anchor="middle" x="164" y="-68.5" font-family="Helvetica,sans-Serif" font-size="10.00">HostWindowDataSoftware</text>
</a>
</g>
<!-- Node2&#45;&gt;Node1 -->
<g id="edge2" class="edge"><title>Node2&#45;&gt;Node1</title>
<path fill="none" stroke="midnightblue" d="M164,-50.2312C164,-40.5922 164,-29.5444 164,-21.6339"/>
<polygon fill="midnightblue" stroke="midnightblue" points="160.5,-50.2732 164,-60.2732 167.5,-50.2732 160.5,-50.2732"/>
</g>
<!-- Node3 -->
<g id="node4" class="node"><title>Node3</title>
<a xlink:href="classHostWindowData.htm" target="_top" xlink:title="HostWindowData">
<polygon fill="white" stroke="black" points="0,-144.5 0,-165.5 98,-165.5 98,-144.5 0,-144.5"/>
<text text-anchor="middle" x="49" y="-152.5" font-family="Helvetica,sans-Serif" font-size="10.00">HostWindowData</text>
</a>
</g>
<!-- Node3&#45;&gt;Node2 -->
<g id="edge4" class="edge"><title>Node3&#45;&gt;Node2</title>
<path fill="none" stroke="midnightblue" d="M70.8706,-138.15C85.2814,-127.14 104.63,-112.532 122,-100 130.623,-93.7786 140.391,-87.0177 148.335,-81.5901"/>
<polygon fill="midnightblue" stroke="midnightblue" points="68.4062,-135.629 62.5978,-144.49 72.6641,-141.185 68.4062,-135.629"/>
</g>
<!-- Node4 -->
<g id="node6" class="node"><title>Node4</title>
<a xlink:href="classint.htm" target="_top" xlink:title="int">
<polygon fill="white" stroke="black" points="115.5,-144.5 115.5,-165.5 144.5,-165.5 144.5,-144.5 115.5,-144.5"/>
<text text-anchor="middle" x="130" y="-152.5" font-family="Helvetica,sans-Serif" font-size="10.00">int</text>
</a>
</g>
<!-- Node4&#45;&gt;Node2 -->
<g id="edge6" class="edge"><title>Node4&#45;&gt;Node2</title>
<path fill="none" stroke="#9a32cd" stroke-dasharray="5,2" d="M127.024,-134.181C126.401,-123.496 127.094,-110.545 132,-100 135.416,-92.6583 141.645,-86.3498 147.705,-81.5094"/>
<polygon fill="#9a32cd" stroke="#9a32cd" points="123.558,-134.695 128.028,-144.3 130.524,-134.004 123.558,-134.695"/>
<text text-anchor="middle" x="154" y="-117" font-family="Helvetica,sans-Serif" font-size="10.00"> m_width</text>
<text text-anchor="middle" x="154" y="-104" font-family="Helvetica,sans-Serif" font-size="10.00">m_height</text>
</g>
<!-- Node5 -->
<g id="node8" class="node"><title>Node5</title>
<polygon fill="white" stroke="#bfbfbf" points="162,-144.5 162,-165.5 236,-165.5 236,-144.5 162,-144.5"/>
<text text-anchor="middle" x="199" y="-152.5" font-family="Helvetica,sans-Serif" font-size="10.00">PIpcBuffer *</text>
</g>
<!-- Node5&#45;&gt;Node2 -->
<g id="edge8" class="edge"><title>Node5&#45;&gt;Node2</title>
<path fill="none" stroke="#9a32cd" stroke-dasharray="5,2" d="M190.626,-134.901C183.638,-118.13 173.954,-94.8903 168.397,-81.5523"/>
<polygon fill="#9a32cd" stroke="#9a32cd" points="187.49,-136.477 194.567,-144.361 193.952,-133.784 187.49,-136.477"/>
<text text-anchor="middle" x="231.5" y="-117" font-family="Helvetica,sans-Serif" font-size="10.00"> m_metaDataBuffer</text>
<text text-anchor="middle" x="231.5" y="-104" font-family="Helvetica,sans-Serif" font-size="10.00">m_ipcBuffer</text>
</g>
<!-- Node6 -->
<g id="node10" class="node"><title>Node6</title>
<polygon fill="white" stroke="#bfbfbf" points="294,-144.5 294,-165.5 330,-165.5 330,-144.5 294,-144.5"/>
<text text-anchor="middle" x="312" y="-152.5" font-family="Helvetica,sans-Serif" font-size="10.00">bool</text>
</g>
<!-- Node6&#45;&gt;Node2 -->
<g id="edge10" class="edge"><title>Node6&#45;&gt;Node2</title>
<path fill="none" stroke="#9a32cd" stroke-dasharray="5,2" d="M305.274,-134.815C300.336,-122.996 292.471,-108.725 281,-100 271.714,-92.937 248.322,-86.5252 224.873,-81.5372"/>
<polygon fill="#9a32cd" stroke="#9a32cd" points="302.073,-136.247 308.876,-144.369 308.623,-133.777 302.073,-136.247"/>
<text text-anchor="middle" x="331" y="-117" font-family="Helvetica,sans-Serif" font-size="10.00"> m_hasAlpha</text>
<text text-anchor="middle" x="331" y="-104" font-family="Helvetica,sans-Serif" font-size="10.00">m_dirty</text>
</g>
</g>
</svg>
