<?xml version="1.0" encoding="UTF-8" standalone="no"?>
<!DOCTYPE svg PUBLIC "-//W3C//DTD SVG 1.1//EN"
 "http://www.w3.org/Graphics/SVG/1.1/DTD/svg11.dtd">
<!-- Generated by graphviz version 2.26.3 (20100126.1600)
 -->
<!-- Title: LinearMotionTransform Pages: 1 -->
<svg width="536pt" height="232pt"
 viewBox="0.00 0.00 536.00 232.00" xmlns="http://www.w3.org/2000/svg" xmlns:xlink="http://www.w3.org/1999/xlink">
<g id="graph1" class="graph" transform="scale(1 1) rotate(0) translate(4 228)">
<title>LinearMotionTransform</title>
<polygon fill="white" stroke="white" points="-4,5 -4,-228 533,-228 533,5 -4,5"/>
<!-- Node1 -->
<g id="node1" class="node"><title>Node1</title>
<polygon fill="#bfbfbf" stroke="black" points="130,-0.5 130,-21.5 258,-21.5 258,-0.5 130,-0.5"/>
<text text-anchor="middle" x="194" y="-8.5" font-family="Helvetica,sans-Serif" font-size="10.00">LinearMotionTransform</text>
</g>
<!-- Node2 -->
<g id="node2" class="node"><title>Node2</title>
<a xlink:href="classQObject.htm" target="_top" xlink:title="QObject">
<polygon fill="white" stroke="black" points="-0.5,-202.5 -0.5,-223.5 54.5,-223.5 54.5,-202.5 -0.5,-202.5"/>
<text text-anchor="middle" x="27" y="-210.5" font-family="Helvetica,sans-Serif" font-size="10.00">QObject</text>
</a>
</g>
<!-- Node2&#45;&gt;Node1 -->
<g id="edge2" class="edge"><title>Node2&#45;&gt;Node1</title>
<path fill="none" stroke="midnightblue" d="M27.0249,-191.833C28.2648,-155.411 36.248,-80.8717 79,-40 86.8881,-32.4589 107.96,-26.1907 129.946,-21.4343"/>
<polygon fill="midnightblue" stroke="midnightblue" points="23.5179,-192.162 26.8237,-202.228 30.5166,-192.297 23.5179,-192.162"/>
</g>
<!-- Node3 -->
<g id="node4" class="node"><title>Node3</title>
<polygon fill="white" stroke="#bfbfbf" points="72,-202.5 72,-223.5 110,-223.5 110,-202.5 72,-202.5"/>
<text text-anchor="middle" x="91" y="-210.5" font-family="Helvetica,sans-Serif" font-size="10.00">Freq</text>
</g>
<!-- Node3&#45;&gt;Node1 -->
<g id="edge4" class="edge"><title>Node3&#45;&gt;Node1</title>
<path fill="none" stroke="#9a32cd" stroke-dasharray="5,2" d="M86.777,-192.084C80.9007,-156.64 74.6115,-84.3139 110,-40 115.488,-33.1284 132.745,-26.626 150.202,-21.5267"/>
<polygon fill="#9a32cd" stroke="#9a32cd" points="83.3861,-193.001 88.6171,-202.214 90.2734,-191.75 83.3861,-193.001"/>
<text text-anchor="middle" x="150" y="-122.5" font-family="Helvetica,sans-Serif" font-size="10.00"> m_aTriggerFreq</text>
<text text-anchor="middle" x="150" y="-109.5" font-family="Helvetica,sans-Serif" font-size="10.00">m_dTriggerFreq</text>
<text text-anchor="middle" x="150" y="-96.5" font-family="Helvetica,sans-Serif" font-size="10.00">m_vTriggerFreq</text>
</g>
<!-- Node4 -->
<g id="node6" class="node"><title>Node4</title>
<polygon fill="white" stroke="#bfbfbf" points="173.5,-202.5 173.5,-223.5 214.5,-223.5 214.5,-202.5 173.5,-202.5"/>
<text text-anchor="middle" x="194" y="-210.5" font-family="Helvetica,sans-Serif" font-size="10.00">qreal</text>
</g>
<!-- Node4&#45;&gt;Node1 -->
<g id="edge6" class="edge"><title>Node4&#45;&gt;Node1</title>
<path fill="none" stroke="#9a32cd" stroke-dasharray="5,2" d="M194,-192.158C194,-149.662 194,-54.2937 194,-21.9612"/>
<polygon fill="#9a32cd" stroke="#9a32cd" points="190.5,-192.424 194,-202.424 197.5,-192.424 190.5,-192.424"/>
<text text-anchor="middle" x="265.5" y="-174.5" font-family="Helvetica,sans-Serif" font-size="10.00"> m_autocountIncrement</text>
<text text-anchor="middle" x="265.5" y="-161.5" font-family="Helvetica,sans-Serif" font-size="10.00">m_vTriggerValue</text>
<text text-anchor="middle" x="265.5" y="-148.5" font-family="Helvetica,sans-Serif" font-size="10.00">m_aTriggerValue</text>
<text text-anchor="middle" x="265.5" y="-135.5" font-family="Helvetica,sans-Serif" font-size="10.00">m_initialVelocity</text>
<text text-anchor="middle" x="265.5" y="-122.5" font-family="Helvetica,sans-Serif" font-size="10.00">m_initialDisplacement</text>
<text text-anchor="middle" x="265.5" y="-109.5" font-family="Helvetica,sans-Serif" font-size="10.00">m_initialAcceleration</text>
<text text-anchor="middle" x="265.5" y="-96.5" font-family="Helvetica,sans-Serif" font-size="10.00">m_lastComputedTime</text>
<text text-anchor="middle" x="265.5" y="-83.5" font-family="Helvetica,sans-Serif" font-size="10.00">m_lastComputedAcceleration</text>
<text text-anchor="middle" x="265.5" y="-70.5" font-family="Helvetica,sans-Serif" font-size="10.00">m_lastComputedDisplacement</text>
<text text-anchor="middle" x="265.5" y="-57.5" font-family="Helvetica,sans-Serif" font-size="10.00">m_lastComputedVelocity</text>
<text text-anchor="middle" x="265.5" y="-44.5" font-family="Helvetica,sans-Serif" font-size="10.00">...</text>
</g>
<!-- Node5 -->
<g id="node8" class="node"><title>Node5</title>
<polygon fill="white" stroke="#bfbfbf" points="342,-202.5 342,-223.5 378,-223.5 378,-202.5 342,-202.5"/>
<text text-anchor="middle" x="360" y="-210.5" font-family="Helvetica,sans-Serif" font-size="10.00">bool</text>
</g>
<!-- Node5&#45;&gt;Node1 -->
<g id="edge8" class="edge"><title>Node5&#45;&gt;Node1</title>
<path fill="none" stroke="#9a32cd" stroke-dasharray="5,2" d="M360.272,-192.28C360.36,-151.235 358.169,-61.6813 338,-40 326.927,-28.0966 291.164,-20.8566 258.052,-16.5875"/>
<polygon fill="#9a32cd" stroke="#9a32cd" points="356.771,-192.449 360.2,-202.474 363.771,-192.499 356.771,-192.449"/>
<text text-anchor="middle" x="399" y="-161.5" font-family="Helvetica,sans-Serif" font-size="10.00"> m_posOnly</text>
<text text-anchor="middle" x="399" y="-148.5" font-family="Helvetica,sans-Serif" font-size="10.00">m_aTriggerSR</text>
<text text-anchor="middle" x="399" y="-135.5" font-family="Helvetica,sans-Serif" font-size="10.00">m_useAutocount</text>
<text text-anchor="middle" x="399" y="-122.5" font-family="Helvetica,sans-Serif" font-size="10.00">m_validLast</text>
<text text-anchor="middle" x="399" y="-109.5" font-family="Helvetica,sans-Serif" font-size="10.00">m_dTriggerSR</text>
<text text-anchor="middle" x="399" y="-96.5" font-family="Helvetica,sans-Serif" font-size="10.00">m_active</text>
<text text-anchor="middle" x="399" y="-83.5" font-family="Helvetica,sans-Serif" font-size="10.00">m_vTriggerSR</text>
<text text-anchor="middle" x="399" y="-70.5" font-family="Helvetica,sans-Serif" font-size="10.00">m_negOnly</text>
<text text-anchor="middle" x="399" y="-57.5" font-family="Helvetica,sans-Serif" font-size="10.00">m_anyTrigger</text>
</g>
<!-- Node6 -->
<g id="node10" class="node"><title>Node6</title>
<polygon fill="white" stroke="#bfbfbf" points="440.5,-202.5 440.5,-223.5 481.5,-223.5 481.5,-202.5 440.5,-202.5"/>
<text text-anchor="middle" x="461" y="-210.5" font-family="Helvetica,sans-Serif" font-size="10.00">Type</text>
</g>
<!-- Node6&#45;&gt;Node1 -->
<g id="edge10" class="edge"><title>Node6&#45;&gt;Node1</title>
<path fill="none" stroke="#9a32cd" stroke-dasharray="5,2" d="M465.576,-192.167C472.231,-155.706 479.725,-80.3734 439,-40 426.339,-27.448 326.51,-18.9562 258.255,-14.5527"/>
<polygon fill="#9a32cd" stroke="#9a32cd" points="462.108,-191.662 463.592,-202.152 468.974,-193.026 462.108,-191.662"/>
<text text-anchor="middle" x="499" y="-122.5" font-family="Helvetica,sans-Serif" font-size="10.00"> m_dTrigger</text>
<text text-anchor="middle" x="499" y="-109.5" font-family="Helvetica,sans-Serif" font-size="10.00">m_vTrigger</text>
<text text-anchor="middle" x="499" y="-96.5" font-family="Helvetica,sans-Serif" font-size="10.00">m_aTrigger</text>
</g>
</g>
</svg>
