<?xml version="1.0" encoding="UTF-8" standalone="no"?>
<!DOCTYPE svg PUBLIC "-//W3C//DTD SVG 1.1//EN"
 "http://www.w3.org/Graphics/SVG/1.1/DTD/svg11.dtd">
<!-- Generated by graphviz version 2.26.3 (20100126.1600)
 -->
<!-- Title: TimeDelayTransition Pages: 1 -->
<svg width="298pt" height="102pt"
 viewBox="0.00 0.00 298.00 102.00" xmlns="http://www.w3.org/2000/svg" xmlns:xlink="http://www.w3.org/1999/xlink">
<g id="graph1" class="graph" transform="scale(1 1) rotate(0) translate(4 98)">
<title>TimeDelayTransition</title>
<polygon fill="white" stroke="white" points="-4,5 -4,-98 295,-98 295,5 -4,5"/>
<!-- Node1 -->
<g id="node1" class="node"><title>Node1</title>
<polygon fill="#bfbfbf" stroke="black" points="87,-0.5 87,-21.5 201,-21.5 201,-0.5 87,-0.5"/>
<text text-anchor="middle" x="144" y="-8.5" font-family="Helvetica,sans-Serif" font-size="10.00">TimeDelayTransition</text>
</g>
<!-- Node2 -->
<g id="node2" class="node"><title>Node2</title>
<a xlink:href="classQSignalTransition.htm" target="_top" xlink:title="QSignalTransition">
<polygon fill="white" stroke="black" points="-0.5,-72.5 -0.5,-93.5 100.5,-93.5 100.5,-72.5 -0.5,-72.5"/>
<text text-anchor="middle" x="50" y="-80.5" font-family="Helvetica,sans-Serif" font-size="10.00">QSignalTransition</text>
</a>
</g>
<!-- Node2&#45;&gt;Node1 -->
<g id="edge2" class="edge"><title>Node2&#45;&gt;Node1</title>
<path fill="none" stroke="midnightblue" d="M72.0591,-66.1037C90.0035,-52.359 114.776,-33.384 130.073,-21.6674"/>
<polygon fill="midnightblue" stroke="midnightblue" points="69.6805,-63.5168 63.87,-72.3762 73.9371,-69.0739 69.6805,-63.5168"/>
</g>
<!-- Node3 -->
<g id="node4" class="node"><title>Node3</title>
<polygon fill="white" stroke="#bfbfbf" points="118,-72.5 118,-93.5 170,-93.5 170,-72.5 118,-72.5"/>
<text text-anchor="middle" x="144" y="-80.5" font-family="Helvetica,sans-Serif" font-size="10.00">QTimer</text>
</g>
<!-- Node3&#45;&gt;Node1 -->
<g id="edge4" class="edge"><title>Node3&#45;&gt;Node1</title>
<path fill="none" stroke="#9a32cd" stroke-dasharray="5,2" d="M144,-62.2348C144,-48.969 144,-32.3188 144,-21.6674"/>
<polygon fill="#9a32cd" stroke="#9a32cd" points="140.5,-62.3761 144,-72.3762 147.5,-62.3762 140.5,-62.3761"/>
<text text-anchor="middle" x="164.5" y="-44.5" font-family="Helvetica,sans-Serif" font-size="10.00"> m_timer</text>
</g>
<!-- Node4 -->
<g id="node6" class="node"><title>Node4</title>
<polygon fill="white" stroke="#bfbfbf" points="187.5,-72.5 187.5,-93.5 238.5,-93.5 238.5,-72.5 187.5,-72.5"/>
<text text-anchor="middle" x="213" y="-80.5" font-family="Helvetica,sans-Serif" font-size="10.00">quint32</text>
</g>
<!-- Node4&#45;&gt;Node1 -->
<g id="edge6" class="edge"><title>Node4&#45;&gt;Node1</title>
<path fill="none" stroke="#9a32cd" stroke-dasharray="5,2" d="M204.422,-63.0081C200.468,-55.2564 195.253,-46.6624 189,-40 182.131,-32.6808 173.048,-26.3758 164.843,-21.532"/>
<polygon fill="#9a32cd" stroke="#9a32cd" points="201.309,-64.6139 208.739,-72.1675 207.641,-61.6296 201.309,-64.6139"/>
<text text-anchor="middle" x="244" y="-44.5" font-family="Helvetica,sans-Serif" font-size="10.00"> m_currentDelayMs</text>
</g>
</g>
</svg>
