<?xml version="1.0" encoding="UTF-8" standalone="no"?>
<!DOCTYPE svg PUBLIC "-//W3C//DTD SVG 1.1//EN"
 "http://www.w3.org/Graphics/SVG/1.1/DTD/svg11.dtd">
<!-- Generated by graphviz version 2.26.3 (20100126.1600)
 -->
<!-- Title: QtJsonAbstractVariant Pages: 1 -->
<svg width="130pt" height="174pt"
 viewBox="0.00 0.00 130.00 174.00" xmlns="http://www.w3.org/2000/svg" xmlns:xlink="http://www.w3.org/1999/xlink">
<g id="graph1" class="graph" transform="scale(1 1) rotate(0) translate(4 170)">
<title>QtJsonAbstractVariant</title>
<polygon fill="white" stroke="white" points="-4,5 -4,-170 127,-170 127,5 -4,5"/>
<!-- Node1 -->
<g id="node1" class="node"><title>Node1</title>
<polygon fill="#bfbfbf" stroke="black" points="0,-0.5 0,-21.5 122,-21.5 122,-0.5 0,-0.5"/>
<text text-anchor="middle" x="61" y="-8.5" font-family="Helvetica,sans-Serif" font-size="10.00">QtJsonAbstractVariant</text>
</g>
<!-- Node2 -->
<g id="node2" class="node"><title>Node2</title>
<a xlink:href="classQtJsonAbstract.htm" target="_top" xlink:title="QtJsonAbstract">
<polygon fill="white" stroke="black" points="16.5,-72.5 16.5,-93.5 105.5,-93.5 105.5,-72.5 16.5,-72.5"/>
<text text-anchor="middle" x="61" y="-80.5" font-family="Helvetica,sans-Serif" font-size="10.00">QtJsonAbstract</text>
</a>
</g>
<!-- Node2&#45;&gt;Node1 -->
<g id="edge2" class="edge"><title>Node2&#45;&gt;Node1</title>
<path fill="none" stroke="#9a32cd" stroke-dasharray="5,2" d="M61,-62.2348C61,-48.969 61,-32.3188 61,-21.6674"/>
<polygon fill="#9a32cd" stroke="#9a32cd" points="57.5001,-62.3761 61,-72.3762 64.5001,-62.3762 57.5001,-62.3761"/>
<text text-anchor="middle" x="76.5" y="-44.5" font-family="Helvetica,sans-Serif" font-size="10.00"> object</text>
</g>
<!-- Node3 -->
<g id="node4" class="node"><title>Node3</title>
<polygon fill="white" stroke="#bfbfbf" points="22,-144.5 22,-165.5 100,-165.5 100,-144.5 22,-144.5"/>
<text text-anchor="middle" x="61" y="-152.5" font-family="Helvetica,sans-Serif" font-size="10.00">json_object *</text>
</g>
<!-- Node3&#45;&gt;Node2 -->
<g id="edge4" class="edge"><title>Node3&#45;&gt;Node2</title>
<path fill="none" stroke="#9a32cd" stroke-dasharray="5,2" d="M61,-134.235C61,-120.969 61,-104.319 61,-93.6674"/>
<polygon fill="#9a32cd" stroke="#9a32cd" points="57.5001,-134.376 61,-144.376 64.5001,-134.376 57.5001,-134.376"/>
<text text-anchor="middle" x="66" y="-116.5" font-family="Helvetica,sans-Serif" font-size="10.00"> o</text>
</g>
</g>
</svg>
