<?xml version="1.0" encoding="UTF-8" standalone="no"?>
<!DOCTYPE svg PUBLIC "-//W3C//DTD SVG 1.1//EN"
 "http://www.w3.org/Graphics/SVG/1.1/DTD/svg11.dtd">
<!-- Generated by graphviz version 2.26.3 (20100126.1600)
 -->
<!-- Title: HostWindowDataSoftware Pages: 1 -->
<svg width="338pt" height="160pt"
 viewBox="0.00 0.00 338.00 160.00" xmlns="http://www.w3.org/2000/svg" xmlns:xlink="http://www.w3.org/1999/xlink">
<g id="graph1" class="graph" transform="scale(1 1) rotate(0) translate(4 156)">
<title>HostWindowDataSoftware</title>
<polygon fill="white" stroke="white" points="-4,5 -4,-156 335,-156 335,5 -4,5"/>
<!-- Node1 -->
<g id="node1" class="node"><title>Node1</title>
<polygon fill="#bfbfbf" stroke="black" points="86,-72.5 86,-93.5 226,-93.5 226,-72.5 86,-72.5"/>
<text text-anchor="middle" x="156" y="-80.5" font-family="Helvetica,sans-Serif" font-size="10.00">HostWindowDataSoftware</text>
</g>
<!-- Node3 -->
<g id="node5" class="node"><title>Node3</title>
<a xlink:href="classHostWindowDataOpenGL.htm" target="_top" xlink:title="HostWindowDataOpenGL">
<polygon fill="white" stroke="black" points="-0.5,-7.5 -0.5,-28.5 138.5,-28.5 138.5,-7.5 -0.5,-7.5"/>
<text text-anchor="middle" x="69" y="-15.5" font-family="Helvetica,sans-Serif" font-size="10.00">HostWindowDataOpenGL</text>
</a>
</g>
<!-- Node1&#45;&gt;Node3 -->
<g id="edge4" class="edge"><title>Node1&#45;&gt;Node3</title>
<path fill="none" stroke="midnightblue" d="M133.377,-66.0977C117.473,-54.2152 96.6879,-38.6863 83.099,-28.5337"/>
<polygon fill="midnightblue" stroke="midnightblue" points="131.528,-69.0851 141.634,-72.2666 135.718,-63.4774 131.528,-69.0851"/>
</g>
<!-- Node4 -->
<g id="node7" class="node"><title>Node4</title>
<a xlink:href="classHostWindowDataOpenGLTextureShared.htm" target="_top" xlink:title="HostWindowDataOpenGLTexture\lShared">
<polygon fill="white" stroke="black" points="155.5,-1 155.5,-35 330.5,-35 330.5,-1 155.5,-1"/>
<text text-anchor="start" x="163.5" y="-22" font-family="Helvetica,sans-Serif" font-size="10.00">HostWindowDataOpenGLTexture</text>
<text text-anchor="middle" x="243" y="-9" font-family="Helvetica,sans-Serif" font-size="10.00">Shared</text>
</a>
</g>
<!-- Node1&#45;&gt;Node4 -->
<g id="edge6" class="edge"><title>Node1&#45;&gt;Node4</title>
<path fill="none" stroke="midnightblue" d="M178.623,-66.0977C191.386,-56.5624 207.291,-44.6789 220.099,-35.1099"/>
<polygon fill="midnightblue" stroke="midnightblue" points="176.282,-63.4774 170.366,-72.2666 180.472,-69.0851 176.282,-63.4774"/>
</g>
<!-- Node2 -->
<g id="node2" class="node"><title>Node2</title>
<a xlink:href="classHostWindowData.htm" target="_top" xlink:title="HostWindowData">
<polygon fill="white" stroke="black" points="107,-130.5 107,-151.5 205,-151.5 205,-130.5 107,-130.5"/>
<text text-anchor="middle" x="156" y="-138.5" font-family="Helvetica,sans-Serif" font-size="10.00">HostWindowData</text>
</a>
</g>
<!-- Node2&#45;&gt;Node1 -->
<g id="edge2" class="edge"><title>Node2&#45;&gt;Node1</title>
<path fill="none" stroke="midnightblue" d="M156,-120.191C156,-111.168 156,-100.994 156,-93.5707"/>
<polygon fill="midnightblue" stroke="midnightblue" points="152.5,-120.362 156,-130.362 159.5,-120.362 152.5,-120.362"/>
</g>
</g>
</svg>
