<?xml version="1.0" encoding="UTF-8" standalone="no"?>
<!DOCTYPE svg PUBLIC "-//W3C//DTD SVG 1.1//EN"
 "http://www.w3.org/Graphics/SVG/1.1/DTD/svg11.dtd">
<!-- Generated by graphviz version 2.26.3 (20100126.1600)
 -->
<!-- Title: WindowServerMinimal Pages: 1 -->
<svg width="836pt" height="809pt"
 viewBox="0.00 0.00 836.00 808.77" xmlns="http://www.w3.org/2000/svg" xmlns:xlink="http://www.w3.org/1999/xlink">
<g id="graph1" class="graph" transform="scale(1 1) rotate(0) translate(4 804.765)">
<title>WindowServerMinimal</title>
<polygon fill="white" stroke="white" points="-4,5 -4,-804.765 833,-804.765 833,5 -4,5"/>
<!-- Node1 -->
<g id="node1" class="node"><title>Node1</title>
<polygon fill="#bfbfbf" stroke="black" points="706,-431.317 706,-452.317 828,-452.317 828,-431.317 706,-431.317"/>
<text text-anchor="middle" x="767" y="-439.317" font-family="Helvetica,sans-Serif" font-size="10.00">WindowServerMinimal</text>
</g>
<!-- Node2 -->
<g id="node2" class="node"><title>Node2</title>
<a xlink:href="classWindowServer.htm" target="_top" xlink:title="WindowServer">
<polygon fill="white" stroke="black" points="582,-431.317 582,-452.317 668,-452.317 668,-431.317 582,-431.317"/>
<text text-anchor="middle" x="625" y="-439.317" font-family="Helvetica,sans-Serif" font-size="10.00">WindowServer</text>
</a>
</g>
<!-- Node2&#45;&gt;Node1 -->
<g id="edge2" class="edge"><title>Node2&#45;&gt;Node1</title>
<path fill="none" stroke="midnightblue" d="M678.606,-441.817C687.503,-441.817 696.788,-441.817 705.855,-441.817"/>
<polygon fill="midnightblue" stroke="midnightblue" points="678.376,-438.317 668.376,-441.817 678.376,-445.317 678.376,-438.317"/>
</g>
<!-- Node3 -->
<g id="node4" class="node"><title>Node3</title>
<a xlink:href="classQGraphicsView.htm" target="_top" xlink:title="QGraphicsView">
<polygon fill="white" stroke="black" points="268,-773.317 268,-794.317 358,-794.317 358,-773.317 268,-773.317"/>
<text text-anchor="middle" x="313" y="-781.317" font-family="Helvetica,sans-Serif" font-size="10.00">QGraphicsView</text>
</a>
</g>
<!-- Node3&#45;&gt;Node2 -->
<g id="edge4" class="edge"><title>Node3&#45;&gt;Node2</title>
<path fill="none" stroke="midnightblue" d="M368.563,-795.541C425.096,-803.96 511.635,-806.629 564,-758.817 610.665,-716.21 622.45,-502.7 624.596,-452.43"/>
<polygon fill="midnightblue" stroke="midnightblue" points="368.798,-792.034 358.371,-793.913 367.694,-798.947 368.798,-792.034"/>
</g>
<!-- Node4 -->
<g id="node6" class="node"><title>Node4</title>
<a xlink:href="classMetaKeyManager.htm" target="_top" xlink:title="MetaKeyManager">
<polygon fill="white" stroke="black" points="262.5,-693.317 262.5,-714.317 363.5,-714.317 363.5,-693.317 262.5,-693.317"/>
<text text-anchor="middle" x="313" y="-701.317" font-family="Helvetica,sans-Serif" font-size="10.00">MetaKeyManager</text>
</a>
</g>
<!-- Node4&#45;&gt;Node2 -->
<g id="edge6" class="edge"><title>Node4&#45;&gt;Node2</title>
<path fill="none" stroke="#9a32cd" stroke-dasharray="5,2" d="M373.717,-700.869C443.376,-696.935 549.868,-689.014 564,-676.817 599.182,-646.456 619.012,-494.053 623.836,-452.369"/>
<polygon fill="#9a32cd" stroke="#9a32cd" points="373.514,-697.375 363.722,-701.421 373.9,-704.364 373.514,-697.375"/>
<text text-anchor="middle" x="496" y="-700.817" font-family="Helvetica,sans-Serif" font-size="10.00"> m_metaKeyMgr</text>
</g>
<!-- Node5 -->
<g id="node8" class="node"><title>Node5</title>
<a xlink:href="classQObject.htm" target="_top" xlink:title="QObject">
<polygon fill="white" stroke="black" points="21.5,-693.317 21.5,-714.317 76.5,-714.317 76.5,-693.317 21.5,-693.317"/>
<text text-anchor="middle" x="49" y="-701.317" font-family="Helvetica,sans-Serif" font-size="10.00">QObject</text>
</a>
</g>
<!-- Node5&#45;&gt;Node4 -->
<g id="edge8" class="edge"><title>Node5&#45;&gt;Node4</title>
<path fill="none" stroke="midnightblue" d="M86.9178,-703.817C133.014,-703.817 210.984,-703.817 262.23,-703.817"/>
<polygon fill="midnightblue" stroke="midnightblue" points="86.7537,-700.317 76.7537,-703.817 86.7536,-707.317 86.7537,-700.317"/>
</g>
<!-- Node22 -->
<g id="node45" class="node"><title>Node22</title>
<a xlink:href="classDisplayManager.htm" target="_top" xlink:title="DisplayManager">
<polygon fill="white" stroke="black" points="266,-653.317 266,-674.317 360,-674.317 360,-653.317 266,-653.317"/>
<text text-anchor="middle" x="313" y="-661.317" font-family="Helvetica,sans-Serif" font-size="10.00">DisplayManager</text>
</a>
</g>
<!-- Node5&#45;&gt;Node22 -->
<g id="edge50" class="edge"><title>Node5&#45;&gt;Node22</title>
<path fill="none" stroke="midnightblue" d="M86.8477,-698.083C133.982,-690.941 214.519,-678.739 265.682,-670.987"/>
<polygon fill="midnightblue" stroke="midnightblue" points="86.1165,-694.654 76.7537,-699.612 87.1652,-701.575 86.1165,-694.654"/>
</g>
<!-- Node25 -->
<g id="node52" class="node"><title>Node25</title>
<a xlink:href="classCoreNaviManager.htm" target="_top" xlink:title="CoreNaviManager">
<polygon fill="white" stroke="black" points="261,-733.317 261,-754.317 365,-754.317 365,-733.317 261,-733.317"/>
<text text-anchor="middle" x="313" y="-741.317" font-family="Helvetica,sans-Serif" font-size="10.00">CoreNaviManager</text>
</a>
</g>
<!-- Node5&#45;&gt;Node25 -->
<g id="edge58" class="edge"><title>Node5&#45;&gt;Node25</title>
<path fill="none" stroke="midnightblue" d="M86.6381,-712.197C96.1896,-714.182 106.451,-716.192 116,-717.817 164.973,-726.154 221.183,-733.338 260.994,-738.029"/>
<polygon fill="midnightblue" stroke="midnightblue" points="87.1281,-708.724 76.6196,-710.073 85.6762,-715.571 87.1281,-708.724"/>
</g>
<!-- Node6 -->
<g id="node10" class="node"><title>Node6</title>
<polygon fill="white" stroke="#bfbfbf" points="216.5,-600.817 216.5,-634.817 409.5,-634.817 409.5,-600.817 216.5,-600.817"/>
<text text-anchor="start" x="224.5" y="-621.817" font-family="Helvetica,sans-Serif" font-size="10.00">QMultiMap&lt; QString,</text>
<text text-anchor="middle" x="313" y="-608.817" font-family="Helvetica,sans-Serif" font-size="10.00"> QPointer&lt; WindowManagerBase &gt; &gt;</text>
</g>
<!-- Node6&#45;&gt;Node2 -->
<g id="edge10" class="edge"><title>Node6&#45;&gt;Node2</title>
<path fill="none" stroke="#9a32cd" stroke-dasharray="5,2" d="M420.006,-619.403C477.584,-618.154 541.336,-612.71 564,-595.817 611.727,-560.242 622.154,-481.51 624.397,-452.673"/>
<polygon fill="#9a32cd" stroke="#9a32cd" points="419.649,-615.908 409.712,-619.584 419.772,-622.907 419.649,-615.908"/>
<text text-anchor="middle" x="496" y="-622.817" font-family="Helvetica,sans-Serif" font-size="10.00"> m_windowManagerMap</text>
</g>
<!-- Node7 -->
<g id="node12" class="node"><title>Node7</title>
<a xlink:href="classUiRootItem.htm" target="_top" xlink:title="UiRootItem">
<polygon fill="white" stroke="black" points="278.5,-561.317 278.5,-582.317 347.5,-582.317 347.5,-561.317 278.5,-561.317"/>
<text text-anchor="middle" x="313" y="-569.317" font-family="Helvetica,sans-Serif" font-size="10.00">UiRootItem</text>
</a>
</g>
<!-- Node7&#45;&gt;Node2 -->
<g id="edge12" class="edge"><title>Node7&#45;&gt;Node2</title>
<path fill="none" stroke="#9a32cd" stroke-dasharray="5,2" d="M358.058,-579.184C411.604,-585.474 501.542,-588.025 564,-547.817 599.17,-525.176 616.334,-474.61 622.378,-452.505"/>
<polygon fill="#9a32cd" stroke="#9a32cd" points="358.214,-575.676 347.853,-577.888 357.332,-582.62 358.214,-575.676"/>
<text text-anchor="middle" x="496" y="-585.817" font-family="Helvetica,sans-Serif" font-size="10.00"> m_uiRootItem</text>
</g>
<!-- Node8 -->
<g id="node14" class="node"><title>Node8</title>
<a xlink:href="classQGraphicsItem.htm" target="_top" xlink:title="QGraphicsItem">
<polygon fill="white" stroke="black" points="5,-613.317 5,-634.317 93,-634.317 93,-613.317 5,-613.317"/>
<text text-anchor="middle" x="49" y="-621.317" font-family="Helvetica,sans-Serif" font-size="10.00">QGraphicsItem</text>
</a>
</g>
<!-- Node8&#45;&gt;Node7 -->
<g id="edge14" class="edge"><title>Node8&#45;&gt;Node7</title>
<path fill="none" stroke="midnightblue" d="M103.004,-613.18C155.514,-602.837 233.698,-587.437 278.369,-578.639"/>
<polygon fill="midnightblue" stroke="midnightblue" points="102.323,-609.747 93.1877,-615.114 103.676,-616.615 102.323,-609.747"/>
</g>
<!-- Node9 -->
<g id="node16" class="node"><title>Node9</title>
<polygon fill="white" stroke="#bfbfbf" points="22.5,-565.317 22.5,-586.317 75.5,-586.317 75.5,-565.317 22.5,-565.317"/>
<text text-anchor="middle" x="49" y="-573.317" font-family="Helvetica,sans-Serif" font-size="10.00">QRectF</text>
</g>
<!-- Node9&#45;&gt;Node7 -->
<g id="edge16" class="edge"><title>Node9&#45;&gt;Node7</title>
<path fill="none" stroke="#9a32cd" stroke-dasharray="5,2" d="M85.7127,-575.365C115.872,-574.984 159.705,-574.407 198,-573.817 224.954,-573.402 255.46,-572.869 278.277,-572.457"/>
<polygon fill="#9a32cd" stroke="#9a32cd" points="85.6022,-571.866 75.6469,-575.491 85.6901,-578.865 85.6022,-571.866"/>
<text text-anchor="middle" x="157" y="-578.817" font-family="Helvetica,sans-Serif" font-size="10.00"> m_bounds</text>
</g>
<!-- Node17 -->
<g id="node32" class="node"><title>Node17</title>
<a xlink:href="classWindowManagerBase.htm" target="_top" xlink:title="WindowManagerBase">
<polygon fill="white" stroke="black" points="252.5,-521.317 252.5,-542.317 373.5,-542.317 373.5,-521.317 252.5,-521.317"/>
<text text-anchor="middle" x="313" y="-529.317" font-family="Helvetica,sans-Serif" font-size="10.00">WindowManagerBase</text>
</a>
</g>
<!-- Node9&#45;&gt;Node17 -->
<g id="edge38" class="edge"><title>Node9&#45;&gt;Node17</title>
<path fill="none" stroke="#9a32cd" stroke-dasharray="5,2" d="M85.4037,-564.422C95.2603,-561.631 105.977,-558.862 116,-556.817 161.265,-547.581 213.118,-541.165 252.261,-537.146"/>
<polygon fill="#9a32cd" stroke="#9a32cd" points="84.1282,-561.148 75.5086,-567.308 86.0886,-567.868 84.1282,-561.148"/>
<text text-anchor="middle" x="157" y="-560.817" font-family="Helvetica,sans-Serif" font-size="10.00"> m_boundingRect</text>
</g>
<!-- Node10 -->
<g id="node18" class="node"><title>Node10</title>
<a xlink:href="classReticleItem.htm" target="_top" xlink:title="ReticleItem">
<polygon fill="white" stroke="black" points="278.5,-441.317 278.5,-462.317 347.5,-462.317 347.5,-441.317 278.5,-441.317"/>
<text text-anchor="middle" x="313" y="-449.317" font-family="Helvetica,sans-Serif" font-size="10.00">ReticleItem</text>
</a>
</g>
<!-- Node10&#45;&gt;Node2 -->
<g id="edge18" class="edge"><title>Node10&#45;&gt;Node2</title>
<path fill="none" stroke="#9a32cd" stroke-dasharray="5,2" d="M357.844,-450.38C417.653,-448.463 522.82,-445.092 581.789,-443.202"/>
<polygon fill="#9a32cd" stroke="#9a32cd" points="357.464,-446.89 347.582,-450.709 357.689,-453.887 357.464,-446.89"/>
<text text-anchor="middle" x="496" y="-451.817" font-family="Helvetica,sans-Serif" font-size="10.00"> m_reticle</text>
</g>
<!-- Node11 -->
<g id="node20" class="node"><title>Node11</title>
<a xlink:href="classQGraphicsObject.htm" target="_top" xlink:title="QGraphicsObject">
<polygon fill="white" stroke="black" points="0,-466.317 0,-487.317 98,-487.317 98,-466.317 0,-466.317"/>
<text text-anchor="middle" x="49" y="-474.317" font-family="Helvetica,sans-Serif" font-size="10.00">QGraphicsObject</text>
</a>
</g>
<!-- Node11&#45;&gt;Node10 -->
<g id="edge20" class="edge"><title>Node11&#45;&gt;Node10</title>
<path fill="none" stroke="midnightblue" d="M108.178,-471.213C160.439,-466.264 234.865,-459.216 278.127,-455.12"/>
<polygon fill="midnightblue" stroke="midnightblue" points="107.663,-467.746 98.0377,-472.174 108.323,-474.715 107.663,-467.746"/>
</g>
<!-- Node11&#45;&gt;Node17 -->
<g id="edge34" class="edge"><title>Node11&#45;&gt;Node17</title>
<path fill="none" stroke="midnightblue" d="M108.372,-489.309C140.271,-496.009 180.277,-504.391 216,-511.817 230.899,-514.914 247.089,-518.26 261.897,-521.313"/>
<polygon fill="midnightblue" stroke="midnightblue" points="108.822,-485.828 98.3156,-487.197 107.382,-492.678 108.822,-485.828"/>
</g>
<!-- Node20 -->
<g id="node40" class="node"><title>Node20</title>
<a xlink:href="classProgressAnimation.htm" target="_top" xlink:title="ProgressAnimation">
<polygon fill="white" stroke="black" points="260,-481.317 260,-502.317 366,-502.317 366,-481.317 260,-481.317"/>
<text text-anchor="middle" x="313" y="-489.317" font-family="Helvetica,sans-Serif" font-size="10.00">ProgressAnimation</text>
</a>
</g>
<!-- Node11&#45;&gt;Node20 -->
<g id="edge44" class="edge"><title>Node11&#45;&gt;Node20</title>
<path fill="none" stroke="midnightblue" d="M108.044,-480.172C153.488,-482.754 215.749,-486.292 259.69,-488.788"/>
<polygon fill="midnightblue" stroke="midnightblue" points="108.22,-476.677 98.0377,-479.604 107.823,-483.665 108.22,-476.677"/>
</g>
<!-- Node12 -->
<g id="node22" class="node"><title>Node12</title>
<polygon fill="white" stroke="#bfbfbf" points="250.5,-401.317 250.5,-422.317 375.5,-422.317 375.5,-401.317 250.5,-401.317"/>
<text text-anchor="middle" x="313" y="-409.317" font-family="Helvetica,sans-Serif" font-size="10.00">QGraphicsItemGroup *</text>
</g>
<!-- Node12&#45;&gt;Node2 -->
<g id="edge22" class="edge"><title>Node12&#45;&gt;Node2</title>
<path fill="none" stroke="#9a32cd" stroke-dasharray="5,2" d="M385.866,-412.687C436.16,-414.137 504.44,-417.791 564,-426.817 571.44,-427.945 579.301,-429.554 586.815,-431.304"/>
<polygon fill="#9a32cd" stroke="#9a32cd" points="385.825,-409.185 375.736,-412.417 385.639,-416.182 385.825,-409.185"/>
<text text-anchor="middle" x="496" y="-430.817" font-family="Helvetica,sans-Serif" font-size="10.00"> m_uiElementsGroup</text>
</g>
<!-- Node13 -->
<g id="node24" class="node"><title>Node13</title>
<polygon fill="white" stroke="#bfbfbf" points="286,-361.317 286,-382.317 340,-382.317 340,-361.317 286,-361.317"/>
<text text-anchor="middle" x="313" y="-369.317" font-family="Helvetica,sans-Serif" font-size="10.00">uint32_t</text>
</g>
<!-- Node13&#45;&gt;Node2 -->
<g id="edge24" class="edge"><title>Node13&#45;&gt;Node2</title>
<path fill="none" stroke="#9a32cd" stroke-dasharray="5,2" d="M350.547,-365.756C401.256,-359.281 493.406,-353.639 564,-383.817 587.38,-393.812 607.158,-417.015 617.43,-430.854"/>
<polygon fill="#9a32cd" stroke="#9a32cd" points="349.815,-362.323 340.377,-367.138 350.758,-369.26 349.815,-362.323"/>
<text text-anchor="middle" x="496" y="-400.817" font-family="Helvetica,sans-Serif" font-size="10.00"> m_screenHeight</text>
<text text-anchor="middle" x="496" y="-387.817" font-family="Helvetica,sans-Serif" font-size="10.00">m_screenWidth</text>
</g>
<!-- Node14 -->
<g id="node26" class="node"><title>Node14</title>
<a xlink:href="classint.htm" target="_top" xlink:title="int">
<polygon fill="white" stroke="black" points="298.5,-315.317 298.5,-336.317 327.5,-336.317 327.5,-315.317 298.5,-315.317"/>
<text text-anchor="middle" x="313" y="-323.317" font-family="Helvetica,sans-Serif" font-size="10.00">int</text>
</a>
</g>
<!-- Node14&#45;&gt;Node2 -->
<g id="edge26" class="edge"><title>Node14&#45;&gt;Node2</title>
<path fill="none" stroke="#9a32cd" stroke-dasharray="5,2" d="M337.901,-323.122C393.66,-317.572 526.593,-307.19 564,-329.817 601.701,-352.622 617.649,-407.65 622.881,-431.024"/>
<polygon fill="#9a32cd" stroke="#9a32cd" points="337.419,-319.653 327.829,-324.156 338.135,-326.616 337.419,-319.653"/>
<text text-anchor="start" x="428.5" y="-346.817" font-family="Helvetica,sans-Serif" font-size="10.00"> m_animationTargetRotation</text>
<text text-anchor="middle" x="496" y="-333.817" font-family="Helvetica,sans-Serif" font-size="10.00">Angle</text>
</g>
<!-- Node15 -->
<g id="node28" class="node"><title>Node15</title>
<polygon fill="white" stroke="#bfbfbf" points="244.5,-266.317 244.5,-287.317 381.5,-287.317 381.5,-266.317 244.5,-266.317"/>
<text text-anchor="middle" x="313" y="-274.317" font-family="Helvetica,sans-Serif" font-size="10.00">UiRotationAnimationType</text>
</g>
<!-- Node15&#45;&gt;Node2 -->
<g id="edge28" class="edge"><title>Node15&#45;&gt;Node2</title>
<path fill="none" stroke="#9a32cd" stroke-dasharray="5,2" d="M362.096,-264.163C416.669,-253.154 504.889,-244.809 564,-286.817 613.031,-321.661 622.656,-402.208 624.542,-431.188"/>
<polygon fill="#9a32cd" stroke="#9a32cd" points="361.034,-260.81 351.98,-266.312 362.489,-267.657 361.034,-260.81"/>
<text text-anchor="middle" x="496" y="-303.817" font-family="Helvetica,sans-Serif" font-size="10.00"> m_inRotationAnimation</text>
<text text-anchor="middle" x="496" y="-290.817" font-family="Helvetica,sans-Serif" font-size="10.00">m_pendingRotationType</text>
</g>
<!-- Node16 -->
<g id="node30" class="node"><title>Node16</title>
<polygon fill="white" stroke="#bfbfbf" points="295,-195.317 295,-216.317 331,-216.317 331,-195.317 295,-195.317"/>
<text text-anchor="middle" x="313" y="-203.317" font-family="Helvetica,sans-Serif" font-size="10.00">bool</text>
</g>
<!-- Node16&#45;&gt;Node2 -->
<g id="edge30" class="edge"><title>Node16&#45;&gt;Node2</title>
<path fill="none" stroke="#9a32cd" stroke-dasharray="5,2" d="M341.255,-200.836C399.455,-191.247 530.094,-173.397 564,-199.817 601.766,-229.245 619.787,-388.216 624.009,-431.134"/>
<polygon fill="#9a32cd" stroke="#9a32cd" points="340.55,-197.405 331.271,-202.518 341.713,-204.308 340.55,-197.405"/>
<text text-anchor="middle" x="496" y="-242.817" font-family="Helvetica,sans-Serif" font-size="10.00"> m_bootingUp</text>
<text text-anchor="middle" x="496" y="-229.817" font-family="Helvetica,sans-Serif" font-size="10.00">m_fingerDownOnScreen</text>
<text text-anchor="middle" x="496" y="-216.817" font-family="Helvetica,sans-Serif" font-size="10.00">m_runningProgress</text>
<text text-anchor="middle" x="496" y="-203.817" font-family="Helvetica,sans-Serif" font-size="10.00">m_deviceIsPortraitType</text>
</g>
<!-- Node17&#45;&gt;Node2 -->
<g id="edge32" class="edge"><title>Node17&#45;&gt;Node2</title>
<path fill="none" stroke="#9a32cd" stroke-dasharray="5,2" d="M383.77,-535.332C436.013,-535.156 507.542,-528.954 564,-501.817 587.564,-490.491 607.559,-466.379 617.755,-452.415"/>
<polygon fill="#9a32cd" stroke="#9a32cd" points="383.602,-531.832 373.588,-535.292 383.574,-538.832 383.602,-531.832"/>
<text text-anchor="middle" x="496" y="-536.817" font-family="Helvetica,sans-Serif" font-size="10.00"> m_inputWindowMgr</text>
</g>
<!-- Node18 -->
<g id="node35" class="node"><title>Node18</title>
<a xlink:href="classKeyNavigator.htm" target="_top" xlink:title="KeyNavigator">
<polygon fill="white" stroke="black" points="9,-516.317 9,-537.317 89,-537.317 89,-516.317 9,-516.317"/>
<text text-anchor="middle" x="49" y="-524.317" font-family="Helvetica,sans-Serif" font-size="10.00">KeyNavigator</text>
</a>
</g>
<!-- Node18&#45;&gt;Node17 -->
<g id="edge36" class="edge"><title>Node18&#45;&gt;Node17</title>
<path fill="none" stroke="midnightblue" d="M99.1795,-527.768C142.759,-528.593 205.986,-529.79 252.384,-530.669"/>
<polygon fill="midnightblue" stroke="midnightblue" points="99.1604,-524.267 89.0959,-527.577 99.0278,-531.265 99.1604,-524.267"/>
</g>
<!-- Node19 -->
<g id="node38" class="node"><title>Node19</title>
<polygon fill="white" stroke="#bfbfbf" points="271.5,-155.317 271.5,-176.317 354.5,-176.317 354.5,-155.317 271.5,-155.317"/>
<text text-anchor="middle" x="313" y="-163.317" font-family="Helvetica,sans-Serif" font-size="10.00">RotationMode</text>
</g>
<!-- Node19&#45;&gt;Node2 -->
<g id="edge40" class="edge"><title>Node19&#45;&gt;Node2</title>
<path fill="none" stroke="#9a32cd" stroke-dasharray="5,2" d="M364.506,-159.441C428.984,-152.652 534.56,-145.861 564,-169.817 605.854,-203.875 621.078,-384.993 624.307,-431.121"/>
<polygon fill="#9a32cd" stroke="#9a32cd" points="364.092,-155.965 354.529,-160.525 364.848,-162.924 364.092,-155.965"/>
<text text-anchor="middle" x="496" y="-173.817" font-family="Helvetica,sans-Serif" font-size="10.00"> m_uiRotationMode</text>
</g>
<!-- Node20&#45;&gt;Node2 -->
<g id="edge42" class="edge"><title>Node20&#45;&gt;Node2</title>
<path fill="none" stroke="#9a32cd" stroke-dasharray="5,2" d="M376.312,-489.442C427.52,-486.465 501.178,-479.783 564,-464.817 576.661,-461.801 590.257,-456.853 601.392,-452.318"/>
<polygon fill="#9a32cd" stroke="#9a32cd" points="375.852,-485.962 366.059,-490.006 376.236,-492.952 375.852,-485.962"/>
<text text-anchor="middle" x="496" y="-488.817" font-family="Helvetica,sans-Serif" font-size="10.00"> m_progressAnim</text>
</g>
<!-- Node21 -->
<g id="node43" class="node"><title>Node21</title>
<polygon fill="white" stroke="#bfbfbf" points="237,-115.317 237,-136.317 389,-136.317 389,-115.317 237,-115.317"/>
<text text-anchor="middle" x="313" y="-123.317" font-family="Helvetica,sans-Serif" font-size="10.00">QQueue&lt; CardFlipRequest &gt;</text>
</g>
<!-- Node21&#45;&gt;Node2 -->
<g id="edge46" class="edge"><title>Node21&#45;&gt;Node2</title>
<path fill="none" stroke="#9a32cd" stroke-dasharray="5,2" d="M399.579,-118.648C462.221,-115.438 539.922,-116.18 564,-136.817 610.126,-176.352 622.292,-381.997 624.562,-431.222"/>
<polygon fill="#9a32cd" stroke="#9a32cd" points="399.06,-115.171 389.269,-119.218 399.447,-122.16 399.06,-115.171"/>
<text text-anchor="middle" x="496" y="-140.817" font-family="Helvetica,sans-Serif" font-size="10.00"> m_pendingFlipRequests</text>
</g>
<!-- Node22&#45;&gt;Node2 -->
<g id="edge48" class="edge"><title>Node22&#45;&gt;Node2</title>
<path fill="none" stroke="#9a32cd" stroke-dasharray="5,2" d="M370.123,-664.473C434.933,-664.034 535.359,-659.39 564,-635.817 593.51,-611.53 616.735,-489.571 623.199,-452.513"/>
<polygon fill="#9a32cd" stroke="#9a32cd" points="370.031,-660.973 360.044,-664.51 370.057,-667.973 370.031,-660.973"/>
<text text-anchor="middle" x="496" y="-666.817" font-family="Helvetica,sans-Serif" font-size="10.00"> m_displayMgr</text>
</g>
<!-- Node23 -->
<g id="node48" class="node"><title>Node23</title>
<a xlink:href="classInputManager.htm" target="_top" xlink:title="InputManager">
<polygon fill="white" stroke="black" points="271.5,-75.3173 271.5,-96.3173 354.5,-96.3173 354.5,-75.3173 271.5,-75.3173"/>
<text text-anchor="middle" x="313" y="-83.3173" font-family="Helvetica,sans-Serif" font-size="10.00">InputManager</text>
</a>
</g>
<!-- Node23&#45;&gt;Node2 -->
<g id="edge52" class="edge"><title>Node23&#45;&gt;Node2</title>
<path fill="none" stroke="#9a32cd" stroke-dasharray="5,2" d="M364.556,-81.7098C429.351,-77.7322 535.548,-75.5219 564,-100.817 614.902,-146.072 623.483,-378.185 624.784,-431.079"/>
<polygon fill="#9a32cd" stroke="#9a32cd" points="364.283,-78.22 354.53,-82.3594 364.736,-85.2054 364.283,-78.22"/>
<text text-anchor="middle" x="496" y="-104.817" font-family="Helvetica,sans-Serif" font-size="10.00"> m_inputMgr</text>
</g>
<!-- Node24 -->
<g id="node50" class="node"><title>Node24</title>
<polygon fill="white" stroke="#bfbfbf" points="278.5,-15.3173 278.5,-36.3173 347.5,-36.3173 347.5,-15.3173 278.5,-15.3173"/>
<text text-anchor="middle" x="313" y="-23.3173" font-family="Helvetica,sans-Serif" font-size="10.00">Orientation</text>
</g>
<!-- Node24&#45;&gt;Node2 -->
<g id="edge54" class="edge"><title>Node24&#45;&gt;Node2</title>
<path fill="none" stroke="#9a32cd" stroke-dasharray="5,2" d="M357.142,-12.6735C412.755,0.897258 507.827,13.7114 564,-36.8173 594.397,-64.1603 619.413,-369.283 624.181,-430.979"/>
<polygon fill="#9a32cd" stroke="#9a32cd" points="356.06,-9.33746 347.236,-15.2012 357.79,-16.1202 356.06,-9.33746"/>
<text text-anchor="middle" x="496" y="-66.8173" font-family="Helvetica,sans-Serif" font-size="10.00"> m_pendingOrientation</text>
<text text-anchor="middle" x="496" y="-53.8173" font-family="Helvetica,sans-Serif" font-size="10.00">m_orientation</text>
<text text-anchor="middle" x="496" y="-40.8173" font-family="Helvetica,sans-Serif" font-size="10.00">m_currentUiOrientation</text>
</g>
<!-- Node25&#45;&gt;Node2 -->
<g id="edge56" class="edge"><title>Node25&#45;&gt;Node2</title>
<path fill="none" stroke="#9a32cd" stroke-dasharray="5,2" d="M375.22,-744.342C440.435,-743.544 537.104,-738.109 564,-713.817 604.045,-677.649 620.611,-498.098 624.217,-452.408"/>
<polygon fill="#9a32cd" stroke="#9a32cd" points="375.007,-740.843 365.039,-744.432 375.069,-747.843 375.007,-740.843"/>
<text text-anchor="middle" x="496" y="-745.817" font-family="Helvetica,sans-Serif" font-size="10.00"> m_coreNaviMgr</text>
</g>
</g>
</svg>
