<?xml version="1.0" encoding="UTF-8" standalone="no"?>
<!DOCTYPE svg PUBLIC "-//W3C//DTD SVG 1.1//EN"
 "http://www.w3.org/Graphics/SVG/1.1/DTD/svg11.dtd">
<!-- Generated by graphviz version 2.26.3 (20100126.1600)
 -->
<!-- Title: QGraphicsPixmapItem Pages: 1 -->
<svg width="238pt" height="88pt"
 viewBox="0.00 0.00 238.00 88.00" xmlns="http://www.w3.org/2000/svg" xmlns:xlink="http://www.w3.org/1999/xlink">
<g id="graph1" class="graph" transform="scale(1 1) rotate(0) translate(4 84)">
<title>QGraphicsPixmapItem</title>
<polygon fill="white" stroke="white" points="-4,5 -4,-84 235,-84 235,5 -4,5"/>
<!-- Node1 -->
<g id="node1" class="node"><title>Node1</title>
<polygon fill="#bfbfbf" stroke="black" points="73,-58.5 73,-79.5 195,-79.5 195,-58.5 73,-58.5"/>
<text text-anchor="middle" x="134" y="-66.5" font-family="Helvetica,sans-Serif" font-size="10.00">QGraphicsPixmapItem</text>
</g>
<!-- Node2 -->
<g id="node3" class="node"><title>Node2</title>
<a xlink:href="classLauncherFeedbackWindow.htm" target="_top" xlink:title="LauncherFeedbackWindow">
<polygon fill="white" stroke="black" points="0,-0.5 0,-21.5 144,-21.5 144,-0.5 0,-0.5"/>
<text text-anchor="middle" x="72" y="-8.5" font-family="Helvetica,sans-Serif" font-size="10.00">LauncherFeedbackWindow</text>
</a>
</g>
<!-- Node1&#45;&gt;Node2 -->
<g id="edge2" class="edge"><title>Node1&#45;&gt;Node2</title>
<path fill="none" stroke="midnightblue" d="M115.192,-51.405C104.783,-41.6683 92.1942,-29.8914 83.2997,-21.5707"/>
<polygon fill="midnightblue" stroke="midnightblue" points="112.934,-54.0863 122.628,-58.3619 117.717,-48.9743 112.934,-54.0863"/>
</g>
<!-- Node3 -->
<g id="node5" class="node"><title>Node3</title>
<a xlink:href="classLockButton.htm" target="_top" xlink:title="LockButton">
<polygon fill="white" stroke="black" points="161.5,-0.5 161.5,-21.5 230.5,-21.5 230.5,-0.5 161.5,-0.5"/>
<text text-anchor="middle" x="196" y="-8.5" font-family="Helvetica,sans-Serif" font-size="10.00">LockButton</text>
</a>
</g>
<!-- Node1&#45;&gt;Node3 -->
<g id="edge4" class="edge"><title>Node1&#45;&gt;Node3</title>
<path fill="none" stroke="midnightblue" d="M152.808,-51.405C163.217,-41.6683 175.806,-29.8914 184.7,-21.5707"/>
<polygon fill="midnightblue" stroke="midnightblue" points="150.283,-48.9743 145.372,-58.3619 155.066,-54.0863 150.283,-48.9743"/>
</g>
</g>
</svg>
