<?xml version="1.0" encoding="UTF-8" standalone="no"?>
<!DOCTYPE svg PUBLIC "-//W3C//DTD SVG 1.1//EN"
 "http://www.w3.org/Graphics/SVG/1.1/DTD/svg11.dtd">
<!-- Generated by graphviz version 2.26.3 (20100126.1600)
 -->
<!-- Title: Thing Pages: 1 -->
<svg width="616pt" height="710pt"
 viewBox="0.00 0.00 616.00 710.00" xmlns="http://www.w3.org/2000/svg" xmlns:xlink="http://www.w3.org/1999/xlink">
<g id="graph1" class="graph" transform="scale(1 1) rotate(0) translate(4 706)">
<title>Thing</title>
<polygon fill="white" stroke="white" points="-4,5 -4,-706 613,-706 613,5 -4,5"/>
<!-- Node1 -->
<g id="node1" class="node"><title>Node1</title>
<polygon fill="#bfbfbf" stroke="black" points="134,-340.5 134,-361.5 178,-361.5 178,-340.5 134,-340.5"/>
<text text-anchor="middle" x="156" y="-348.5" font-family="Helvetica,sans-Serif" font-size="10.00">Thing</text>
</g>
<!-- Node3 -->
<g id="node5" class="node"><title>Node3</title>
<a xlink:href="classThingPaintable.htm" target="_top" xlink:title="ThingPaintable">
<polygon fill="white" stroke="black" points="214.5,-340.5 214.5,-361.5 301.5,-361.5 301.5,-340.5 214.5,-340.5"/>
<text text-anchor="middle" x="258" y="-348.5" font-family="Helvetica,sans-Serif" font-size="10.00">ThingPaintable</text>
</a>
</g>
<!-- Node1&#45;&gt;Node3 -->
<g id="edge4" class="edge"><title>Node1&#45;&gt;Node3</title>
<path fill="none" stroke="midnightblue" d="M188.371,-351C196.549,-351 205.468,-351 214.109,-351"/>
<polygon fill="midnightblue" stroke="midnightblue" points="188.133,-347.5 178.132,-351 188.132,-354.5 188.133,-347.5"/>
</g>
<!-- Node2 -->
<g id="node2" class="node"><title>Node2</title>
<a xlink:href="classQGraphicsObject.htm" target="_top" xlink:title="QGraphicsObject">
<polygon fill="white" stroke="black" points="0,-340.5 0,-361.5 98,-361.5 98,-340.5 0,-340.5"/>
<text text-anchor="middle" x="49" y="-348.5" font-family="Helvetica,sans-Serif" font-size="10.00">QGraphicsObject</text>
</a>
</g>
<!-- Node2&#45;&gt;Node1 -->
<g id="edge2" class="edge"><title>Node2&#45;&gt;Node1</title>
<path fill="none" stroke="midnightblue" d="M108.407,-351C117.485,-351 126.334,-351 133.89,-351"/>
<polygon fill="midnightblue" stroke="midnightblue" points="108.116,-347.5 98.1157,-351 108.116,-354.5 108.116,-347.5"/>
</g>
<!-- Node4 -->
<g id="node7" class="node"><title>Node4</title>
<a xlink:href="classDemoGoggles.htm" target="_top" xlink:title="DemoGoggles">
<polygon fill="white" stroke="black" points="345,-680.5 345,-701.5 429,-701.5 429,-680.5 345,-680.5"/>
<text text-anchor="middle" x="387" y="-688.5" font-family="Helvetica,sans-Serif" font-size="10.00">DemoGoggles</text>
</a>
</g>
<!-- Node3&#45;&gt;Node4 -->
<g id="edge6" class="edge"><title>Node3&#45;&gt;Node4</title>
<path fill="none" stroke="midnightblue" d="M260.723,-371.815C269.401,-435.322 298.195,-625.075 338,-671 341.25,-674.749 345.309,-677.807 349.691,-680.298"/>
<polygon fill="midnightblue" stroke="midnightblue" points="264.178,-371.245 259.379,-361.799 257.24,-372.176 264.178,-371.245"/>
</g>
<!-- Node5 -->
<g id="node9" class="node"><title>Node5</title>
<a xlink:href="classDemoGoggles2.htm" target="_top" xlink:title="DemoGoggles2">
<polygon fill="white" stroke="black" points="342,-640.5 342,-661.5 432,-661.5 432,-640.5 342,-640.5"/>
<text text-anchor="middle" x="387" y="-648.5" font-family="Helvetica,sans-Serif" font-size="10.00">DemoGoggles2</text>
</a>
</g>
<!-- Node3&#45;&gt;Node5 -->
<g id="edge8" class="edge"><title>Node3&#45;&gt;Node5</title>
<path fill="none" stroke="midnightblue" d="M261.525,-371.818C271.712,-429.832 302.727,-591.647 338,-631 341.434,-634.832 345.711,-637.944 350.297,-640.468"/>
<polygon fill="midnightblue" stroke="midnightblue" points="264.922,-370.924 259.77,-361.666 258.024,-372.116 264.922,-370.924"/>
</g>
<!-- Node6 -->
<g id="node11" class="node"><title>Node6</title>
<a xlink:href="classDemoGoggles3.htm" target="_top" xlink:title="DemoGoggles3">
<polygon fill="white" stroke="black" points="342,-600.5 342,-621.5 432,-621.5 432,-600.5 342,-600.5"/>
<text text-anchor="middle" x="387" y="-608.5" font-family="Helvetica,sans-Serif" font-size="10.00">DemoGoggles3</text>
</a>
</g>
<!-- Node3&#45;&gt;Node6 -->
<g id="edge10" class="edge"><title>Node3&#45;&gt;Node6</title>
<path fill="none" stroke="midnightblue" d="M259.24,-371.821C263.038,-417.428 278.226,-527.159 338,-591 341.517,-594.756 345.84,-597.826 350.448,-600.33"/>
<polygon fill="midnightblue" stroke="midnightblue" points="262.719,-371.394 258.5,-361.675 255.737,-371.903 262.719,-371.394"/>
</g>
<!-- Node7 -->
<g id="node13" class="node"><title>Node7</title>
<a xlink:href="classDemoGoggles4.htm" target="_top" xlink:title="DemoGoggles4">
<polygon fill="white" stroke="black" points="342,-560.5 342,-581.5 432,-581.5 432,-560.5 342,-560.5"/>
<text text-anchor="middle" x="387" y="-568.5" font-family="Helvetica,sans-Serif" font-size="10.00">DemoGoggles4</text>
</a>
</g>
<!-- Node3&#45;&gt;Node7 -->
<g id="edge12" class="edge"><title>Node3&#45;&gt;Node7</title>
<path fill="none" stroke="midnightblue" d="M260.873,-371.843C267.424,-411.784 287.046,-499.688 338,-551 341.755,-554.782 346.324,-557.876 351.145,-560.401"/>
<polygon fill="midnightblue" stroke="midnightblue" points="264.295,-371.066 259.327,-361.708 257.375,-372.122 264.295,-371.066"/>
</g>
<!-- Node8 -->
<g id="node15" class="node"><title>Node8</title>
<a xlink:href="classDotGrid.htm" target="_top" xlink:title="DotGrid">
<polygon fill="white" stroke="black" points="360.5,-520.5 360.5,-541.5 413.5,-541.5 413.5,-520.5 360.5,-520.5"/>
<text text-anchor="middle" x="387" y="-528.5" font-family="Helvetica,sans-Serif" font-size="10.00">DotGrid</text>
</a>
</g>
<!-- Node3&#45;&gt;Node8 -->
<g id="edge14" class="edge"><title>Node3&#45;&gt;Node8</title>
<path fill="none" stroke="midnightblue" d="M263.173,-371.552C272.603,-405.082 295.635,-471.743 338,-511 344.268,-516.808 352.448,-521.036 360.325,-524.065"/>
<polygon fill="midnightblue" stroke="midnightblue" points="266.458,-370.291 260.488,-361.539 259.697,-372.104 266.458,-370.291"/>
</g>
<!-- Node9 -->
<g id="node17" class="node"><title>Node9</title>
<a xlink:href="classHorizontalDivider.htm" target="_top" xlink:title="HorizontalDivider">
<polygon fill="white" stroke="black" points="338,-480.5 338,-501.5 436,-501.5 436,-480.5 338,-480.5"/>
<text text-anchor="middle" x="387" y="-488.5" font-family="Helvetica,sans-Serif" font-size="10.00">HorizontalDivider</text>
</a>
</g>
<!-- Node3&#45;&gt;Node9 -->
<g id="edge16" class="edge"><title>Node3&#45;&gt;Node9</title>
<path fill="none" stroke="midnightblue" d="M266.625,-370.806C278.952,-397.021 303.94,-443.165 338,-471 342.553,-474.721 347.893,-477.832 353.34,-480.404"/>
<polygon fill="midnightblue" stroke="midnightblue" points="269.722,-369.16 262.394,-361.509 263.351,-372.06 269.722,-369.16"/>
</g>
<!-- Node11 -->
<g id="node21" class="node"><title>Node11</title>
<a xlink:href="classIconBase.htm" target="_top" xlink:title="IconBase">
<polygon fill="white" stroke="black" points="356.5,-440.5 356.5,-461.5 417.5,-461.5 417.5,-440.5 356.5,-440.5"/>
<text text-anchor="middle" x="387" y="-448.5" font-family="Helvetica,sans-Serif" font-size="10.00">IconBase</text>
</a>
</g>
<!-- Node3&#45;&gt;Node11 -->
<g id="edge20" class="edge"><title>Node3&#45;&gt;Node11</title>
<path fill="none" stroke="midnightblue" d="M272.796,-369.602C287.698,-387.335 312.131,-413.812 338,-431 343.587,-434.712 349.972,-437.933 356.245,-440.642"/>
<polygon fill="midnightblue" stroke="midnightblue" points="275.336,-367.18 266.281,-361.678 269.928,-371.626 275.336,-367.18"/>
</g>
<!-- Node12 -->
<g id="node23" class="node"><title>Node12</title>
<a xlink:href="classLabeledButton.htm" target="_top" xlink:title="LabeledButton">
<polygon fill="white" stroke="black" points="345,-400.5 345,-421.5 429,-421.5 429,-400.5 345,-400.5"/>
<text text-anchor="middle" x="387" y="-408.5" font-family="Helvetica,sans-Serif" font-size="10.00">LabeledButton</text>
</a>
</g>
<!-- Node3&#45;&gt;Node12 -->
<g id="edge22" class="edge"><title>Node3&#45;&gt;Node12</title>
<path fill="none" stroke="midnightblue" d="M287.464,-366.404C302.462,-374.073 321.061,-383.322 338,-391 345.113,-394.224 352.905,-397.513 360.14,-400.467"/>
<polygon fill="midnightblue" stroke="midnightblue" points="288.674,-363.09 278.181,-361.625 285.469,-369.314 288.674,-363.09"/>
</g>
<!-- Node14 -->
<g id="node27" class="node"><title>Node14</title>
<a xlink:href="classLauncherObject.htm" target="_top" xlink:title="LauncherObject">
<polygon fill="white" stroke="black" points="341.5,-360.5 341.5,-381.5 432.5,-381.5 432.5,-360.5 341.5,-360.5"/>
<text text-anchor="middle" x="387" y="-368.5" font-family="Helvetica,sans-Serif" font-size="10.00">LauncherObject</text>
</a>
</g>
<!-- Node3&#45;&gt;Node14 -->
<g id="edge26" class="edge"><title>Node3&#45;&gt;Node14</title>
<path fill="none" stroke="midnightblue" d="M311.712,-359.327C321.502,-360.845 331.632,-362.416 341.168,-363.894"/>
<polygon fill="midnightblue" stroke="midnightblue" points="312.092,-355.845 301.674,-357.771 311.019,-362.762 312.092,-355.845"/>
</g>
<!-- Node15 -->
<g id="node29" class="node"><title>Node15</title>
<a xlink:href="classOverlayLayer.htm" target="_top" xlink:title="OverlayLayer">
<polygon fill="white" stroke="black" points="347,-320.5 347,-341.5 427,-341.5 427,-320.5 347,-320.5"/>
<text text-anchor="middle" x="387" y="-328.5" font-family="Helvetica,sans-Serif" font-size="10.00">OverlayLayer</text>
</a>
</g>
<!-- Node3&#45;&gt;Node15 -->
<g id="edge28" class="edge"><title>Node3&#45;&gt;Node15</title>
<path fill="none" stroke="midnightblue" d="M311.815,-342.657C323.544,-340.838 335.758,-338.944 346.847,-337.225"/>
<polygon fill="midnightblue" stroke="midnightblue" points="311.019,-339.238 301.674,-344.229 312.092,-346.155 311.019,-339.238"/>
</g>
<!-- Node16 -->
<g id="node31" class="node"><title>Node16</title>
<a xlink:href="classPage.htm" target="_top" xlink:title="Page">
<polygon fill="white" stroke="black" points="366.5,-280.5 366.5,-301.5 407.5,-301.5 407.5,-280.5 366.5,-280.5"/>
<text text-anchor="middle" x="387" y="-288.5" font-family="Helvetica,sans-Serif" font-size="10.00">Page</text>
</a>
</g>
<!-- Node3&#45;&gt;Node16 -->
<g id="edge30" class="edge"><title>Node3&#45;&gt;Node16</title>
<path fill="none" stroke="midnightblue" d="M287.464,-335.596C302.462,-327.927 321.061,-318.678 338,-311 347.206,-306.827 357.547,-302.548 366.349,-299.024"/>
<polygon fill="midnightblue" stroke="midnightblue" points="285.469,-332.686 278.181,-340.375 288.674,-338.91 285.469,-332.686"/>
</g>
<!-- Node19 -->
<g id="node37" class="node"><title>Node19</title>
<a xlink:href="classPageTab.htm" target="_top" xlink:title="PageTab">
<polygon fill="white" stroke="black" points="357.5,-240.5 357.5,-261.5 416.5,-261.5 416.5,-240.5 357.5,-240.5"/>
<text text-anchor="middle" x="387" y="-248.5" font-family="Helvetica,sans-Serif" font-size="10.00">PageTab</text>
</a>
</g>
<!-- Node3&#45;&gt;Node19 -->
<g id="edge36" class="edge"><title>Node3&#45;&gt;Node19</title>
<path fill="none" stroke="midnightblue" d="M272.796,-332.398C287.698,-314.665 312.131,-288.188 338,-271 343.893,-267.085 350.674,-263.715 357.275,-260.917"/>
<polygon fill="midnightblue" stroke="midnightblue" points="269.928,-330.374 266.281,-340.322 275.336,-334.82 269.928,-330.374"/>
</g>
<!-- Node20 -->
<g id="node39" class="node"><title>Node20</title>
<a xlink:href="classPageTabBar.htm" target="_top" xlink:title="PageTabBar">
<polygon fill="white" stroke="black" points="349,-200.5 349,-221.5 425,-221.5 425,-200.5 349,-200.5"/>
<text text-anchor="middle" x="387" y="-208.5" font-family="Helvetica,sans-Serif" font-size="10.00">PageTabBar</text>
</a>
</g>
<!-- Node3&#45;&gt;Node20 -->
<g id="edge38" class="edge"><title>Node3&#45;&gt;Node20</title>
<path fill="none" stroke="midnightblue" d="M266.625,-331.194C278.952,-304.979 303.94,-258.835 338,-231 342.553,-227.279 347.893,-224.168 353.34,-221.596"/>
<polygon fill="midnightblue" stroke="midnightblue" points="263.351,-329.94 262.394,-340.491 269.722,-332.84 263.351,-329.94"/>
</g>
<!-- Node21 -->
<g id="node41" class="node"><title>Node21</title>
<a xlink:href="classPictureBox.htm" target="_top" xlink:title="PictureBox">
<polygon fill="white" stroke="black" points="353.5,-160.5 353.5,-181.5 420.5,-181.5 420.5,-160.5 353.5,-160.5"/>
<text text-anchor="middle" x="387" y="-168.5" font-family="Helvetica,sans-Serif" font-size="10.00">PictureBox</text>
</a>
</g>
<!-- Node3&#45;&gt;Node21 -->
<g id="edge40" class="edge"><title>Node3&#45;&gt;Node21</title>
<path fill="none" stroke="midnightblue" d="M263.173,-330.448C272.603,-296.918 295.635,-230.257 338,-191 342.448,-186.878 347.86,-183.552 353.442,-180.886"/>
<polygon fill="midnightblue" stroke="midnightblue" points="259.697,-329.896 260.488,-340.461 266.458,-331.709 259.697,-329.896"/>
</g>
<!-- Node22 -->
<g id="node43" class="node"><title>Node22</title>
<a xlink:href="classPixButton.htm" target="_top" xlink:title="PixButton">
<polygon fill="white" stroke="black" points="356.5,-120.5 356.5,-141.5 417.5,-141.5 417.5,-120.5 356.5,-120.5"/>
<text text-anchor="middle" x="387" y="-128.5" font-family="Helvetica,sans-Serif" font-size="10.00">PixButton</text>
</a>
</g>
<!-- Node3&#45;&gt;Node22 -->
<g id="edge42" class="edge"><title>Node3&#45;&gt;Node22</title>
<path fill="none" stroke="midnightblue" d="M260.873,-330.157C267.424,-290.216 287.046,-202.312 338,-151 343.115,-145.849 349.739,-141.973 356.454,-139.075"/>
<polygon fill="midnightblue" stroke="midnightblue" points="257.375,-329.878 259.327,-340.292 264.295,-330.934 257.375,-329.878"/>
</g>
<!-- Node25 -->
<g id="node49" class="node"><title>Node25</title>
<a xlink:href="classQuickLaunchBar.htm" target="_top" xlink:title="QuickLaunchBar">
<polygon fill="white" stroke="black" points="340,-80.5 340,-101.5 434,-101.5 434,-80.5 340,-80.5"/>
<text text-anchor="middle" x="387" y="-88.5" font-family="Helvetica,sans-Serif" font-size="10.00">QuickLaunchBar</text>
</a>
</g>
<!-- Node3&#45;&gt;Node25 -->
<g id="edge48" class="edge"><title>Node3&#45;&gt;Node25</title>
<path fill="none" stroke="midnightblue" d="M259.24,-330.179C263.038,-284.572 278.226,-174.841 338,-111 341.517,-107.244 345.84,-104.174 350.448,-101.67"/>
<polygon fill="midnightblue" stroke="midnightblue" points="255.737,-330.097 258.5,-340.325 262.719,-330.606 255.737,-330.097"/>
</g>
<!-- Node26 -->
<g id="node51" class="node"><title>Node26</title>
<a xlink:href="classScrollableObject.htm" target="_top" xlink:title="ScrollableObject">
<polygon fill="white" stroke="black" points="341,-40.5 341,-61.5 433,-61.5 433,-40.5 341,-40.5"/>
<text text-anchor="middle" x="387" y="-48.5" font-family="Helvetica,sans-Serif" font-size="10.00">ScrollableObject</text>
</a>
</g>
<!-- Node3&#45;&gt;Node26 -->
<g id="edge50" class="edge"><title>Node3&#45;&gt;Node26</title>
<path fill="none" stroke="midnightblue" d="M261.525,-330.182C271.712,-272.168 302.727,-110.353 338,-71 341.434,-67.1685 345.711,-64.0562 350.297,-61.5318"/>
<polygon fill="midnightblue" stroke="midnightblue" points="258.024,-329.884 259.77,-340.334 264.922,-331.076 258.024,-329.884"/>
</g>
<!-- Node29 -->
<g id="node57" class="node"><title>Node29</title>
<a xlink:href="classTextBox.htm" target="_top" xlink:title="TextBox">
<polygon fill="white" stroke="black" points="359,-0.5 359,-21.5 415,-21.5 415,-0.5 359,-0.5"/>
<text text-anchor="middle" x="387" y="-8.5" font-family="Helvetica,sans-Serif" font-size="10.00">TextBox</text>
</a>
</g>
<!-- Node3&#45;&gt;Node29 -->
<g id="edge56" class="edge"><title>Node3&#45;&gt;Node29</title>
<path fill="none" stroke="midnightblue" d="M260.723,-330.185C269.401,-266.678 298.195,-76.9253 338,-31 343.476,-24.6816 351.251,-20.3281 358.998,-17.3408"/>
<polygon fill="midnightblue" stroke="midnightblue" points="257.24,-329.824 259.379,-340.201 264.178,-330.755 257.24,-329.824"/>
</g>
<!-- Node10 -->
<g id="node19" class="node"><title>Node10</title>
<a xlink:href="classHorizontalLabeledDivider.htm" target="_top" xlink:title="HorizontalLabeledDivider">
<polygon fill="white" stroke="black" points="472.5,-480.5 472.5,-501.5 607.5,-501.5 607.5,-480.5 472.5,-480.5"/>
<text text-anchor="middle" x="540" y="-488.5" font-family="Helvetica,sans-Serif" font-size="10.00">HorizontalLabeledDivider</text>
</a>
</g>
<!-- Node9&#45;&gt;Node10 -->
<g id="edge18" class="edge"><title>Node9&#45;&gt;Node10</title>
<path fill="none" stroke="midnightblue" d="M446.46,-491C454.974,-491 463.784,-491 472.44,-491"/>
<polygon fill="midnightblue" stroke="midnightblue" points="446.252,-487.5 436.252,-491 446.252,-494.5 446.252,-487.5"/>
</g>
<!-- Node13 -->
<g id="node25" class="node"><title>Node13</title>
<a xlink:href="classColorRoundRectButton.htm" target="_top" xlink:title="ColorRoundRectButton">
<polygon fill="white" stroke="black" points="477.5,-400.5 477.5,-421.5 602.5,-421.5 602.5,-400.5 477.5,-400.5"/>
<text text-anchor="middle" x="540" y="-408.5" font-family="Helvetica,sans-Serif" font-size="10.00">ColorRoundRectButton</text>
</a>
</g>
<!-- Node12&#45;&gt;Node13 -->
<g id="edge24" class="edge"><title>Node12&#45;&gt;Node13</title>
<path fill="none" stroke="midnightblue" d="M439.245,-411C451.485,-411 464.649,-411 477.293,-411"/>
<polygon fill="midnightblue" stroke="midnightblue" points="439.213,-407.5 429.213,-411 439.213,-414.5 439.213,-407.5"/>
</g>
<!-- Node17 -->
<g id="node33" class="node"><title>Node17</title>
<a xlink:href="classAlphabetPage.htm" target="_top" xlink:title="AlphabetPage">
<polygon fill="white" stroke="black" points="498.5,-300.5 498.5,-321.5 581.5,-321.5 581.5,-300.5 498.5,-300.5"/>
<text text-anchor="middle" x="540" y="-308.5" font-family="Helvetica,sans-Serif" font-size="10.00">AlphabetPage</text>
</a>
</g>
<!-- Node16&#45;&gt;Node17 -->
<g id="edge32" class="edge"><title>Node16&#45;&gt;Node17</title>
<path fill="none" stroke="midnightblue" d="M417.604,-295C440.79,-298.031 472.899,-302.229 498.413,-305.564"/>
<polygon fill="midnightblue" stroke="midnightblue" points="418.004,-291.523 407.634,-293.697 417.096,-298.464 418.004,-291.523"/>
</g>
<!-- Node18 -->
<g id="node35" class="node"><title>Node18</title>
<a xlink:href="classReorderablePage.htm" target="_top" xlink:title="ReorderablePage">
<polygon fill="white" stroke="black" points="490,-260.5 490,-281.5 590,-281.5 590,-260.5 490,-260.5"/>
<text text-anchor="middle" x="540" y="-268.5" font-family="Helvetica,sans-Serif" font-size="10.00">ReorderablePage</text>
</a>
</g>
<!-- Node16&#45;&gt;Node18 -->
<g id="edge34" class="edge"><title>Node16&#45;&gt;Node18</title>
<path fill="none" stroke="midnightblue" d="M417.725,-286.984C438.356,-284.287 466.013,-280.672 489.804,-277.562"/>
<polygon fill="midnightblue" stroke="midnightblue" points="417.096,-283.536 407.634,-288.303 418.004,-290.477 417.096,-283.536"/>
</g>
<!-- Node23 -->
<g id="node45" class="node"><title>Node23</title>
<a xlink:href="classPixButton2State.htm" target="_top" xlink:title="PixButton2State">
<polygon fill="white" stroke="black" points="494,-150.5 494,-171.5 586,-171.5 586,-150.5 494,-150.5"/>
<text text-anchor="middle" x="540" y="-158.5" font-family="Helvetica,sans-Serif" font-size="10.00">PixButton2State</text>
</a>
</g>
<!-- Node22&#45;&gt;Node23 -->
<g id="edge44" class="edge"><title>Node22&#45;&gt;Node23</title>
<path fill="none" stroke="midnightblue" d="M427.503,-138.942C447.874,-142.936 472.658,-147.796 493.772,-151.936"/>
<polygon fill="midnightblue" stroke="midnightblue" points="428.081,-135.488 417.594,-136.999 426.734,-142.358 428.081,-135.488"/>
</g>
<!-- Node24 -->
<g id="node47" class="node"><title>Node24</title>
<a xlink:href="classPixButtonSimple.htm" target="_top" xlink:title="PixButtonSimple">
<polygon fill="white" stroke="black" points="494,-110.5 494,-131.5 586,-131.5 586,-110.5 494,-110.5"/>
<text text-anchor="middle" x="540" y="-118.5" font-family="Helvetica,sans-Serif" font-size="10.00">PixButtonSimple</text>
</a>
</g>
<!-- Node22&#45;&gt;Node24 -->
<g id="edge46" class="edge"><title>Node22&#45;&gt;Node24</title>
<path fill="none" stroke="midnightblue" d="M427.782,-128.335C448.101,-127.006 472.754,-125.395 493.772,-124.021"/>
<polygon fill="midnightblue" stroke="midnightblue" points="427.345,-124.856 417.594,-129 427.801,-131.841 427.345,-124.856"/>
</g>
<!-- Node27 -->
<g id="node53" class="node"><title>Node27</title>
<a xlink:href="classScrollingLayoutRenderer.htm" target="_top" xlink:title="ScrollingLayoutRenderer">
<polygon fill="white" stroke="black" points="473,-50.5 473,-71.5 607,-71.5 607,-50.5 473,-50.5"/>
<text text-anchor="middle" x="540" y="-58.5" font-family="Helvetica,sans-Serif" font-size="10.00">ScrollingLayoutRenderer</text>
</a>
</g>
<!-- Node26&#45;&gt;Node27 -->
<g id="edge52" class="edge"><title>Node26&#45;&gt;Node27</title>
<path fill="none" stroke="midnightblue" d="M443.512,-54.6936C453.096,-55.32 463.13,-55.9758 472.953,-56.6178"/>
<polygon fill="midnightblue" stroke="midnightblue" points="443.527,-51.1872 433.32,-54.0275 443.071,-58.1723 443.527,-51.1872"/>
</g>
<!-- Node28 -->
<g id="node55" class="node"><title>Node28</title>
<a xlink:href="classScrollingSurface.htm" target="_top" xlink:title="ScrollingSurface">
<polygon fill="white" stroke="black" points="493.5,-10.5 493.5,-31.5 586.5,-31.5 586.5,-10.5 493.5,-10.5"/>
<text text-anchor="middle" x="540" y="-18.5" font-family="Helvetica,sans-Serif" font-size="10.00">ScrollingSurface</text>
</a>
</g>
<!-- Node26&#45;&gt;Node28 -->
<g id="edge54" class="edge"><title>Node26&#45;&gt;Node28</title>
<path fill="none" stroke="midnightblue" d="M443.348,-39.9513C459.779,-36.7296 477.545,-33.2461 493.309,-30.1551"/>
<polygon fill="midnightblue" stroke="midnightblue" points="442.46,-36.5588 433.32,-41.9176 443.807,-43.428 442.46,-36.5588"/>
</g>
</g>
</svg>
