<?xml version="1.0" encoding="UTF-8" standalone="no"?>
<!DOCTYPE svg PUBLIC "-//W3C//DTD SVG 1.1//EN"
 "http://www.w3.org/Graphics/SVG/1.1/DTD/svg11.dtd">
<!-- Generated by graphviz version 2.26.3 (20100126.1600)
 -->
<!-- Title: Window Pages: 1 -->
<svg width="943pt" height="214pt"
 viewBox="0.00 0.00 943.00 214.00" xmlns="http://www.w3.org/2000/svg" xmlns:xlink="http://www.w3.org/1999/xlink">
<g id="graph1" class="graph" transform="scale(1 1) rotate(0) translate(4 210)">
<title>Window</title>
<polygon fill="white" stroke="white" points="-4,5 -4,-210 940,-210 940,5 -4,5"/>
<!-- Node1 -->
<g id="node1" class="node"><title>Node1</title>
<polygon fill="#bfbfbf" stroke="black" points="415,-0.5 415,-21.5 469,-21.5 469,-0.5 415,-0.5"/>
<text text-anchor="middle" x="442" y="-8.5" font-family="Helvetica,sans-Serif" font-size="10.00">Window</text>
</g>
<!-- Node2 -->
<g id="node2" class="node"><title>Node2</title>
<a xlink:href="classQGraphicsObject.htm" target="_top" xlink:title="QGraphicsObject">
<polygon fill="white" stroke="black" points="0,-124.5 0,-145.5 98,-145.5 98,-124.5 0,-124.5"/>
<text text-anchor="middle" x="49" y="-132.5" font-family="Helvetica,sans-Serif" font-size="10.00">QGraphicsObject</text>
</a>
</g>
<!-- Node2&#45;&gt;Node1 -->
<g id="edge2" class="edge"><title>Node2&#45;&gt;Node1</title>
<path fill="none" stroke="midnightblue" d="M66.2046,-117.233C89.0001,-94.9425 131.544,-57.5203 176,-40 219.003,-23.0523 355.884,-14.9293 414.707,-12.1523"/>
<polygon fill="midnightblue" stroke="midnightblue" points="63.6,-114.887 58.9944,-124.429 68.5449,-119.842 63.6,-114.887"/>
</g>
<!-- Node3 -->
<g id="node4" class="node"><title>Node3</title>
<a xlink:href="classApplicationDescription.htm" target="_top" xlink:title="ApplicationDescription">
<polygon fill="white" stroke="black" points="116,-124.5 116,-145.5 238,-145.5 238,-124.5 116,-124.5"/>
<text text-anchor="middle" x="177" y="-132.5" font-family="Helvetica,sans-Serif" font-size="10.00">ApplicationDescription</text>
</a>
</g>
<!-- Node3&#45;&gt;Node1 -->
<g id="edge4" class="edge"><title>Node3&#45;&gt;Node1</title>
<path fill="none" stroke="#9a32cd" stroke-dasharray="5,2" d="M178.282,-114.42C180.836,-92.3656 188.438,-58.096 211,-40 226.647,-27.4503 356.913,-16.9267 414.642,-12.8325"/>
<polygon fill="#9a32cd" stroke="#9a32cd" points="174.793,-114.139 177.372,-124.415 181.765,-114.773 174.793,-114.139"/>
<text text-anchor="middle" x="241" y="-70.5" font-family="Helvetica,sans-Serif" font-size="10.00"> m_appDesc</text>
</g>
<!-- Node4 -->
<g id="node6" class="node"><title>Node4</title>
<a xlink:href="classApplicationDescriptionBase.htm" target="_top" xlink:title="ApplicationDescriptionBase">
<polygon fill="white" stroke="black" points="104,-184.5 104,-205.5 250,-205.5 250,-184.5 104,-184.5"/>
<text text-anchor="middle" x="177" y="-192.5" font-family="Helvetica,sans-Serif" font-size="10.00">ApplicationDescriptionBase</text>
</a>
</g>
<!-- Node4&#45;&gt;Node3 -->
<g id="edge6" class="edge"><title>Node4&#45;&gt;Node3</title>
<path fill="none" stroke="midnightblue" d="M177,-174.231C177,-164.592 177,-153.544 177,-145.634"/>
<polygon fill="midnightblue" stroke="midnightblue" points="173.5,-174.273 177,-184.273 180.5,-174.273 173.5,-174.273"/>
</g>
<!-- Node5 -->
<g id="node8" class="node"><title>Node5</title>
<polygon fill="white" stroke="#bfbfbf" points="255.5,-124.5 255.5,-145.5 296.5,-145.5 296.5,-124.5 255.5,-124.5"/>
<text text-anchor="middle" x="276" y="-132.5" font-family="Helvetica,sans-Serif" font-size="10.00">Type</text>
</g>
<!-- Node5&#45;&gt;Node1 -->
<g id="edge8" class="edge"><title>Node5&#45;&gt;Node1</title>
<path fill="none" stroke="#9a32cd" stroke-dasharray="5,2" d="M274.271,-114.343C273.68,-92.7517 276.403,-59.3744 296,-40 312.448,-23.739 377.275,-16.0397 414.784,-12.8792"/>
<polygon fill="#9a32cd" stroke="#9a32cd" points="270.781,-114.623 274.81,-124.422 277.771,-114.249 270.781,-114.623"/>
<text text-anchor="middle" x="315" y="-70.5" font-family="Helvetica,sans-Serif" font-size="10.00"> m_type</text>
</g>
<!-- Node6 -->
<g id="node10" class="node"><title>Node6</title>
<polygon fill="white" stroke="#bfbfbf" points="313.5,-124.5 313.5,-145.5 366.5,-145.5 366.5,-124.5 313.5,-124.5"/>
<text text-anchor="middle" x="340" y="-132.5" font-family="Helvetica,sans-Serif" font-size="10.00">QRectF</text>
</g>
<!-- Node6&#45;&gt;Node1 -->
<g id="edge10" class="edge"><title>Node6&#45;&gt;Node1</title>
<path fill="none" stroke="#9a32cd" stroke-dasharray="5,2" d="M337.773,-114.281C336.682,-93.1425 338.427,-60.6022 356,-40 363.771,-30.8891 392.632,-22.3737 414.8,-16.9587"/>
<polygon fill="#9a32cd" stroke="#9a32cd" points="334.298,-114.738 338.561,-124.437 341.277,-114.197 334.298,-114.738"/>
<text text-anchor="middle" x="397" y="-70.5" font-family="Helvetica,sans-Serif" font-size="10.00"> m_visibleBounds</text>
</g>
<!-- Node7 -->
<g id="node12" class="node"><title>Node7</title>
<polygon fill="white" stroke="#bfbfbf" points="412.5,-124.5 412.5,-145.5 471.5,-145.5 471.5,-124.5 412.5,-124.5"/>
<text text-anchor="middle" x="442" y="-132.5" font-family="Helvetica,sans-Serif" font-size="10.00">QPixmap</text>
</g>
<!-- Node7&#45;&gt;Node1 -->
<g id="edge12" class="edge"><title>Node7&#45;&gt;Node1</title>
<path fill="none" stroke="#9a32cd" stroke-dasharray="5,2" d="M442,-114.241C442,-87.4976 442,-42.0224 442,-21.5454"/>
<polygon fill="#9a32cd" stroke="#9a32cd" points="438.5,-114.428 442,-124.428 445.5,-114.428 438.5,-114.428"/>
<text text-anchor="middle" x="484.5" y="-70.5" font-family="Helvetica,sans-Serif" font-size="10.00"> m_screenPixmap</text>
</g>
<!-- Node8 -->
<g id="node14" class="node"><title>Node8</title>
<polygon fill="white" stroke="#bfbfbf" points="523,-124.5 523,-145.5 577,-145.5 577,-124.5 523,-124.5"/>
<text text-anchor="middle" x="550" y="-132.5" font-family="Helvetica,sans-Serif" font-size="10.00">uint32_t</text>
</g>
<!-- Node8&#45;&gt;Node1 -->
<g id="edge14" class="edge"><title>Node8&#45;&gt;Node1</title>
<path fill="none" stroke="#9a32cd" stroke-dasharray="5,2" d="M550.731,-114.16C550.335,-92.9235 546.412,-60.3043 528,-40 519.956,-31.1291 491.146,-22.5688 469.065,-17.0776"/>
<polygon fill="#9a32cd" stroke="#9a32cd" points="547.23,-114.347 550.666,-124.369 554.23,-114.392 547.23,-114.347"/>
<text text-anchor="middle" x="579.5" y="-77" font-family="Helvetica,sans-Serif" font-size="10.00"> m_bufWidth</text>
<text text-anchor="middle" x="579.5" y="-64" font-family="Helvetica,sans-Serif" font-size="10.00">m_bufHeight</text>
</g>
<!-- Node9 -->
<g id="node16" class="node"><title>Node9</title>
<a xlink:href="classint.htm" target="_top" xlink:title="int">
<polygon fill="white" stroke="black" points="617.5,-124.5 617.5,-145.5 646.5,-145.5 646.5,-124.5 617.5,-124.5"/>
<text text-anchor="middle" x="632" y="-132.5" font-family="Helvetica,sans-Serif" font-size="10.00">int</text>
</a>
</g>
<!-- Node9&#45;&gt;Node1 -->
<g id="edge16" class="edge"><title>Node9&#45;&gt;Node1</title>
<path fill="none" stroke="#9a32cd" stroke-dasharray="5,2" d="M629.851,-114.129C626.854,-89.3106 620.564,-49.9822 610,-40 590.1,-21.1966 511.227,-14.4253 469.008,-12.1156"/>
<polygon fill="#9a32cd" stroke="#9a32cd" points="626.405,-114.806 631,-124.353 633.361,-114.025 626.405,-114.806"/>
<text text-anchor="middle" x="663" y="-77" font-family="Helvetica,sans-Serif" font-size="10.00"> m_initialWidth</text>
<text text-anchor="middle" x="663" y="-64" font-family="Helvetica,sans-Serif" font-size="10.00">m_initialHeight</text>
</g>
<!-- Node10 -->
<g id="node18" class="node"><title>Node10</title>
<polygon fill="white" stroke="#bfbfbf" points="707,-124.5 707,-145.5 743,-145.5 743,-124.5 707,-124.5"/>
<text text-anchor="middle" x="725" y="-132.5" font-family="Helvetica,sans-Serif" font-size="10.00">bool</text>
</g>
<!-- Node10&#45;&gt;Node1 -->
<g id="edge18" class="edge"><title>Node10&#45;&gt;Node1</title>
<path fill="none" stroke="#9a32cd" stroke-dasharray="5,2" d="M722.759,-114.35C719.606,-89.4347 712.981,-49.6735 702,-40 684.746,-24.8011 532.105,-15.5019 469.059,-12.2789"/>
<polygon fill="#9a32cd" stroke="#9a32cd" points="719.285,-114.77 723.934,-124.29 726.236,-113.949 719.285,-114.77"/>
<text text-anchor="middle" x="768.5" y="-77" font-family="Helvetica,sans-Serif" font-size="10.00"> m_removed</text>
<text text-anchor="middle" x="768.5" y="-64" font-family="Helvetica,sans-Serif" font-size="10.00">m_disableKeepAlive</text>
</g>
<!-- Node11 -->
<g id="node20" class="node"><title>Node11</title>
<polygon fill="white" stroke="#bfbfbf" points="821.5,-124.5 821.5,-145.5 864.5,-145.5 864.5,-124.5 821.5,-124.5"/>
<text text-anchor="middle" x="843" y="-132.5" font-family="Helvetica,sans-Serif" font-size="10.00">string</text>
</g>
<!-- Node11&#45;&gt;Node1 -->
<g id="edge20" class="edge"><title>Node11&#45;&gt;Node1</title>
<path fill="none" stroke="#9a32cd" stroke-dasharray="5,2" d="M844.435,-114.139C844.69,-92.0948 841.243,-58.0717 820,-40 793.399,-17.3699 551.067,-12.3302 469.016,-11.2686"/>
<polygon fill="#9a32cd" stroke="#9a32cd" points="840.926,-114.3 844.039,-124.427 847.921,-114.569 840.926,-114.3"/>
<text text-anchor="middle" x="889.5" y="-96.5" font-family="Helvetica,sans-Serif" font-size="10.00"> m_launchingAppId</text>
<text text-anchor="middle" x="889.5" y="-83.5" font-family="Helvetica,sans-Serif" font-size="10.00">m_processId</text>
<text text-anchor="middle" x="889.5" y="-70.5" font-family="Helvetica,sans-Serif" font-size="10.00">m_launchingProcId</text>
<text text-anchor="middle" x="889.5" y="-57.5" font-family="Helvetica,sans-Serif" font-size="10.00">m_appId</text>
<text text-anchor="middle" x="889.5" y="-44.5" font-family="Helvetica,sans-Serif" font-size="10.00">m_name</text>
</g>
</g>
</svg>
