<?xml version="1.0" encoding="UTF-8" standalone="no"?>
<!DOCTYPE svg PUBLIC "-//W3C//DTD SVG 1.1//EN"
 "http://www.w3.org/Graphics/SVG/1.1/DTD/svg11.dtd">
<!-- Generated by graphviz version 2.26.3 (20100126.1600)
 -->
<!-- Title: RenderedLabel Pages: 1 -->
<svg width="459pt" height="128pt"
 viewBox="0.00 0.00 459.00 128.00" xmlns="http://www.w3.org/2000/svg" xmlns:xlink="http://www.w3.org/1999/xlink">
<g id="graph1" class="graph" transform="scale(1 1) rotate(0) translate(4 124)">
<title>RenderedLabel</title>
<polygon fill="white" stroke="white" points="-4,5 -4,-124 456,-124 456,5 -4,5"/>
<!-- Node1 -->
<g id="node1" class="node"><title>Node1</title>
<polygon fill="#bfbfbf" stroke="black" points="154.5,-0.5 154.5,-21.5 243.5,-21.5 243.5,-0.5 154.5,-0.5"/>
<text text-anchor="middle" x="199" y="-8.5" font-family="Helvetica,sans-Serif" font-size="10.00">RenderedLabel</text>
</g>
<!-- Node2 -->
<g id="node2" class="node"><title>Node2</title>
<polygon fill="white" stroke="#bfbfbf" points="-0.5,-98.5 -0.5,-119.5 58.5,-119.5 58.5,-98.5 -0.5,-98.5"/>
<text text-anchor="middle" x="29" y="-106.5" font-family="Helvetica,sans-Serif" font-size="10.00">QPixmap</text>
</g>
<!-- Node2&#45;&gt;Node1 -->
<g id="edge2" class="edge"><title>Node2&#45;&gt;Node1</title>
<path fill="none" stroke="midnightblue" d="M44.252,-90.3565C57.8891,-74.8209 79.1939,-53.1755 102,-40 117.981,-30.7678 137.17,-24.2303 154.248,-19.7301"/>
<polygon fill="midnightblue" stroke="midnightblue" points="41.3316,-88.3869 37.5039,-98.2662 46.6569,-92.9302 41.3316,-88.3869"/>
</g>
<!-- Node3 -->
<g id="node4" class="node"><title>Node3</title>
<polygon fill="white" stroke="#bfbfbf" points="75.5,-98.5 75.5,-119.5 128.5,-119.5 128.5,-98.5 75.5,-98.5"/>
<text text-anchor="middle" x="102" y="-106.5" font-family="Helvetica,sans-Serif" font-size="10.00">QString</text>
</g>
<!-- Node3&#45;&gt;Node1 -->
<g id="edge4" class="edge"><title>Node3&#45;&gt;Node1</title>
<path fill="none" stroke="#9a32cd" stroke-dasharray="5,2" d="M104.901,-88.2732C108.007,-73.168 114.325,-53.1302 127,-40 134.955,-31.7588 145.565,-25.7932 156.19,-21.5006"/>
<polygon fill="#9a32cd" stroke="#9a32cd" points="101.435,-87.7779 103.162,-98.2311 108.33,-88.9825 101.435,-87.7779"/>
<text text-anchor="middle" x="144.5" y="-57.5" font-family="Helvetica,sans-Serif" font-size="10.00"> m_text</text>
</g>
<!-- Node4 -->
<g id="node6" class="node"><title>Node4</title>
<polygon fill="white" stroke="#bfbfbf" points="146,-98.5 146,-119.5 190,-119.5 190,-98.5 146,-98.5"/>
<text text-anchor="middle" x="168" y="-106.5" font-family="Helvetica,sans-Serif" font-size="10.00">QPen</text>
</g>
<!-- Node4&#45;&gt;Node1 -->
<g id="edge6" class="edge"><title>Node4&#45;&gt;Node1</title>
<path fill="none" stroke="#9a32cd" stroke-dasharray="5,2" d="M166.07,-88.042C165.584,-73.9224 166.554,-55.178 173,-40 175.961,-33.0293 181.307,-26.6071 186.385,-21.5878"/>
<polygon fill="#9a32cd" stroke="#9a32cd" points="162.589,-88.4513 166.696,-98.2177 169.576,-88.0218 162.589,-88.4513"/>
<text text-anchor="middle" x="191" y="-57.5" font-family="Helvetica,sans-Serif" font-size="10.00"> m_pen</text>
</g>
<!-- Node5 -->
<g id="node8" class="node"><title>Node5</title>
<polygon fill="white" stroke="#bfbfbf" points="208,-98.5 208,-119.5 254,-119.5 254,-98.5 208,-98.5"/>
<text text-anchor="middle" x="231" y="-106.5" font-family="Helvetica,sans-Serif" font-size="10.00">QFont</text>
</g>
<!-- Node5&#45;&gt;Node1 -->
<g id="edge8" class="edge"><title>Node5&#45;&gt;Node1</title>
<path fill="none" stroke="#9a32cd" stroke-dasharray="5,2" d="M224.553,-88.3432C220.233,-74.6127 214.374,-56.1962 209,-40 206.988,-33.9344 204.664,-27.1832 202.764,-21.722"/>
<polygon fill="#9a32cd" stroke="#9a32cd" points="221.317,-89.723 227.648,-98.2182 227.997,-87.6291 221.317,-89.723"/>
<text text-anchor="middle" x="239" y="-57.5" font-family="Helvetica,sans-Serif" font-size="10.00"> m_font</text>
</g>
<!-- Node6 -->
<g id="node10" class="node"><title>Node6</title>
<polygon fill="white" stroke="#bfbfbf" points="272,-98.5 272,-119.5 308,-119.5 308,-98.5 272,-98.5"/>
<text text-anchor="middle" x="290" y="-106.5" font-family="Helvetica,sans-Serif" font-size="10.00">bool</text>
</g>
<!-- Node6&#45;&gt;Node1 -->
<g id="edge10" class="edge"><title>Node6&#45;&gt;Node1</title>
<path fill="none" stroke="#9a32cd" stroke-dasharray="5,2" d="M285.584,-88.4413C281.441,-73.4224 273.897,-53.419 261,-40 253.342,-32.0322 243.066,-26.0263 233.084,-21.6083"/>
<polygon fill="#9a32cd" stroke="#9a32cd" points="282.231,-89.4626 288.028,-98.331 289.027,-87.7833 282.231,-89.4626"/>
<text text-anchor="middle" x="311" y="-70.5" font-family="Helvetica,sans-Serif" font-size="10.00"> m_usePen</text>
<text text-anchor="middle" x="311" y="-57.5" font-family="Helvetica,sans-Serif" font-size="10.00">m_rendered</text>
<text text-anchor="middle" x="311" y="-44.5" font-family="Helvetica,sans-Serif" font-size="10.00">m_valid</text>
</g>
<!-- Node7 -->
<g id="node12" class="node"><title>Node7</title>
<polygon fill="white" stroke="#bfbfbf" points="348.5,-98.5 348.5,-119.5 393.5,-119.5 393.5,-98.5 348.5,-98.5"/>
<text text-anchor="middle" x="371" y="-106.5" font-family="Helvetica,sans-Serif" font-size="10.00">QSize</text>
</g>
<!-- Node7&#45;&gt;Node1 -->
<g id="edge12" class="edge"><title>Node7&#45;&gt;Node1</title>
<path fill="none" stroke="#9a32cd" stroke-dasharray="5,2" d="M368.226,-88.0402C365.044,-72.4826 358.279,-51.969 344,-40 328.998,-27.4254 280.414,-19.5412 243.582,-15.2216"/>
<polygon fill="#9a32cd" stroke="#9a32cd" points="364.843,-89.0258 369.966,-98.2996 371.744,-87.8551 364.843,-89.0258"/>
<text text-anchor="middle" x="408.5" y="-57.5" font-family="Helvetica,sans-Serif" font-size="10.00"> m_maxBoundBox</text>
</g>
</g>
</svg>
