<?xml version="1.0" encoding="UTF-8" standalone="no"?>
<!DOCTYPE svg PUBLIC "-//W3C//DTD SVG 1.1//EN"
 "http://www.w3.org/Graphics/SVG/1.1/DTD/svg11.dtd">
<!-- Generated by graphviz version 2.26.3 (20100126.1600)
 -->
<!-- Title: ScrollingSurface Pages: 1 -->
<svg width="534pt" height="372pt"
 viewBox="0.00 0.00 534.00 372.00" xmlns="http://www.w3.org/2000/svg" xmlns:xlink="http://www.w3.org/1999/xlink">
<g id="graph1" class="graph" transform="scale(1 1) rotate(0) translate(4 368)">
<title>ScrollingSurface</title>
<polygon fill="white" stroke="white" points="-4,5 -4,-368 531,-368 531,5 -4,5"/>
<!-- Node1 -->
<g id="node1" class="node"><title>Node1</title>
<polygon fill="#bfbfbf" stroke="black" points="260.5,-0.5 260.5,-21.5 353.5,-21.5 353.5,-0.5 260.5,-0.5"/>
<text text-anchor="middle" x="307" y="-8.5" font-family="Helvetica,sans-Serif" font-size="10.00">ScrollingSurface</text>
</g>
<!-- Node2 -->
<g id="node2" class="node"><title>Node2</title>
<a xlink:href="classScrollableObject.htm" target="_top" xlink:title="ScrollableObject">
<polygon fill="white" stroke="black" points="161,-72.5 161,-93.5 253,-93.5 253,-72.5 161,-72.5"/>
<text text-anchor="middle" x="207" y="-80.5" font-family="Helvetica,sans-Serif" font-size="10.00">ScrollableObject</text>
</a>
</g>
<!-- Node2&#45;&gt;Node1 -->
<g id="edge2" class="edge"><title>Node2&#45;&gt;Node1</title>
<path fill="none" stroke="midnightblue" d="M229.948,-66.4772C249.077,-52.7046 275.763,-33.4905 292.184,-21.6674"/>
<polygon fill="midnightblue" stroke="midnightblue" points="227.826,-63.6927 221.755,-72.3762 231.916,-69.3734 227.826,-63.6927"/>
</g>
<!-- Node3 -->
<g id="node4" class="node"><title>Node3</title>
<a xlink:href="classThingPaintable.htm" target="_top" xlink:title="ThingPaintable">
<polygon fill="white" stroke="black" points="103.5,-184.5 103.5,-205.5 190.5,-205.5 190.5,-184.5 103.5,-184.5"/>
<text text-anchor="middle" x="147" y="-192.5" font-family="Helvetica,sans-Serif" font-size="10.00">ThingPaintable</text>
</a>
</g>
<!-- Node3&#45;&gt;Node2 -->
<g id="edge4" class="edge"><title>Node3&#45;&gt;Node2</title>
<path fill="none" stroke="midnightblue" d="M157.504,-175.393C170.263,-151.575 191.323,-112.264 201.352,-93.543"/>
<polygon fill="midnightblue" stroke="midnightblue" points="154.39,-173.793 152.753,-184.261 160.561,-177.099 154.39,-173.793"/>
</g>
<!-- Node4 -->
<g id="node6" class="node"><title>Node4</title>
<a xlink:href="classThing.htm" target="_top" xlink:title="Thing">
<polygon fill="white" stroke="black" points="336,-270.5 336,-291.5 380,-291.5 380,-270.5 336,-270.5"/>
<text text-anchor="middle" x="358" y="-278.5" font-family="Helvetica,sans-Serif" font-size="10.00">Thing</text>
</a>
</g>
<!-- Node4&#45;&gt;Node3 -->
<g id="edge6" class="edge"><title>Node4&#45;&gt;Node3</title>
<path fill="none" stroke="midnightblue" d="M356.534,-260.235C354.562,-248.408 350.079,-234.331 340,-226 315.653,-205.875 230.043,-213.841 199,-208 195.159,-207.277 191.179,-206.442 187.208,-205.55"/>
<polygon fill="midnightblue" stroke="midnightblue" points="353.067,-260.719 357.728,-270.234 360.018,-259.889 353.067,-260.719"/>
</g>
<!-- Node5 -->
<g id="node8" class="node"><title>Node5</title>
<a xlink:href="classQGraphicsObject.htm" target="_top" xlink:title="QGraphicsObject">
<polygon fill="white" stroke="black" points="249,-342.5 249,-363.5 347,-363.5 347,-342.5 249,-342.5"/>
<text text-anchor="middle" x="298" y="-350.5" font-family="Helvetica,sans-Serif" font-size="10.00">QGraphicsObject</text>
</a>
</g>
<!-- Node5&#45;&gt;Node4 -->
<g id="edge8" class="edge"><title>Node5&#45;&gt;Node4</title>
<path fill="none" stroke="midnightblue" d="M313.347,-334.584C324.676,-320.989 339.702,-302.958 349.11,-291.667"/>
<polygon fill="midnightblue" stroke="midnightblue" points="310.566,-332.453 306.853,-342.376 315.944,-336.935 310.566,-332.453"/>
</g>
<!-- Node6 -->
<g id="node10" class="node"><title>Node6</title>
<polygon fill="white" stroke="#bfbfbf" points="365,-342.5 365,-363.5 469,-363.5 469,-342.5 365,-342.5"/>
<text text-anchor="middle" x="417" y="-350.5" font-family="Helvetica,sans-Serif" font-size="10.00">QPointer&lt; Thing &gt;</text>
</g>
<!-- Node6&#45;&gt;Node4 -->
<g id="edge10" class="edge"><title>Node6&#45;&gt;Node4</title>
<path fill="none" stroke="#9a32cd" stroke-dasharray="5,2" d="M401.909,-334.584C390.768,-320.989 375.993,-302.958 366.741,-291.667"/>
<polygon fill="#9a32cd" stroke="#9a32cd" points="399.249,-336.86 408.294,-342.376 404.663,-332.423 399.249,-336.86"/>
<text text-anchor="middle" x="438.5" y="-314.5" font-family="Helvetica,sans-Serif" font-size="10.00"> m_qp_takerOwner</text>
</g>
<!-- Node7 -->
<g id="node12" class="node"><title>Node7</title>
<polygon fill="white" stroke="#bfbfbf" points="120.5,-270.5 120.5,-291.5 173.5,-291.5 173.5,-270.5 120.5,-270.5"/>
<text text-anchor="middle" x="147" y="-278.5" font-family="Helvetica,sans-Serif" font-size="10.00">QString</text>
</g>
<!-- Node7&#45;&gt;Node3 -->
<g id="edge12" class="edge"><title>Node7&#45;&gt;Node3</title>
<path fill="none" stroke="#9a32cd" stroke-dasharray="5,2" d="M147,-260.256C147,-243.026 147,-219.215 147,-205.632"/>
<polygon fill="#9a32cd" stroke="#9a32cd" points="143.5,-260.455 147,-270.455 150.5,-260.455 143.5,-260.455"/>
<text text-anchor="middle" x="172" y="-236.5" font-family="Helvetica,sans-Serif" font-size="10.00"> m_uiState</text>
</g>
<!-- Node8 -->
<g id="node14" class="node"><title>Node8</title>
<polygon fill="white" stroke="#bfbfbf" points="-0.5,-270.5 -0.5,-291.5 52.5,-291.5 52.5,-270.5 -0.5,-270.5"/>
<text text-anchor="middle" x="26" y="-278.5" font-family="Helvetica,sans-Serif" font-size="10.00">QRectF</text>
</g>
<!-- Node8&#45;&gt;Node2 -->
<g id="edge18" class="edge"><title>Node8&#45;&gt;Node2</title>
<path fill="none" stroke="#9a32cd" stroke-dasharray="5,2" d="M18.4124,-260.636C11.8779,-239.416 5.56379,-205.977 20,-182 50.3164,-131.647 115.784,-105.564 160.622,-93.0817"/>
<polygon fill="#9a32cd" stroke="#9a32cd" points="15.1378,-261.879 21.6443,-270.241 21.7722,-259.647 15.1378,-261.879"/>
<text text-anchor="middle" x="57.5" y="-199" font-family="Helvetica,sans-Serif" font-size="10.00"> m_sourceRect</text>
<text text-anchor="middle" x="57.5" y="-186" font-family="Helvetica,sans-Serif" font-size="10.00">m_sourceGeom</text>
</g>
<!-- Node8&#45;&gt;Node3 -->
<g id="edge14" class="edge"><title>Node8&#45;&gt;Node3</title>
<path fill="none" stroke="#9a32cd" stroke-dasharray="5,2" d="M34.7505,-260.81C40.6757,-249.22 49.5188,-235.19 61,-226 73.2665,-216.181 88.907,-209.321 103.478,-204.599"/>
<polygon fill="#9a32cd" stroke="#9a32cd" points="31.4276,-259.648 30.3017,-270.183 37.7515,-262.65 31.4276,-259.648"/>
<text text-anchor="middle" x="102" y="-243" font-family="Helvetica,sans-Serif" font-size="10.00"> m_boundingRect</text>
<text text-anchor="middle" x="102" y="-230" font-family="Helvetica,sans-Serif" font-size="10.00">m_geom</text>
</g>
<!-- Node9 -->
<g id="node16" class="node"><title>Node9</title>
<a xlink:href="classint.htm" target="_top" xlink:title="int">
<polygon fill="white" stroke="black" points="205.5,-270.5 205.5,-291.5 234.5,-291.5 234.5,-270.5 205.5,-270.5"/>
<text text-anchor="middle" x="220" y="-278.5" font-family="Helvetica,sans-Serif" font-size="10.00">int</text>
</a>
</g>
<!-- Node9&#45;&gt;Node3 -->
<g id="edge16" class="edge"><title>Node9&#45;&gt;Node3</title>
<path fill="none" stroke="#9a32cd" stroke-dasharray="5,2" d="M215.204,-260.452C211.816,-249.324 206.36,-235.873 198,-226 190.769,-217.46 180.562,-210.608 171.177,-205.54"/>
<polygon fill="#9a32cd" stroke="#9a32cd" points="211.855,-261.478 217.845,-270.217 218.612,-259.65 211.855,-261.478"/>
<text text-anchor="middle" x="274.5" y="-243" font-family="Helvetica,sans-Serif" font-size="10.00"> MagicTypePropertyValue</text>
<text text-anchor="middle" x="274.5" y="-230" font-family="Helvetica,sans-Serif" font-size="10.00">MagicTypePropertyKey</text>
</g>
<!-- Node10 -->
<g id="node19" class="node"><title>Node10</title>
<polygon fill="white" stroke="#bfbfbf" points="208,-184.5 208,-205.5 244,-205.5 244,-184.5 208,-184.5"/>
<text text-anchor="middle" x="226" y="-192.5" font-family="Helvetica,sans-Serif" font-size="10.00">bool</text>
</g>
<!-- Node10&#45;&gt;Node2 -->
<g id="edge20" class="edge"><title>Node10&#45;&gt;Node2</title>
<path fill="none" stroke="#9a32cd" stroke-dasharray="5,2" d="M212.842,-175.784C210.856,-172.025 209.104,-168.003 208,-164 201.267,-139.597 203.508,-109.466 205.432,-93.7258"/>
<polygon fill="#9a32cd" stroke="#9a32cd" points="209.881,-177.653 218.027,-184.427 215.884,-174.051 209.881,-177.653"/>
<text text-anchor="middle" x="245" y="-135.5" font-family="Helvetica,sans-Serif" font-size="10.00"> m_inOverscroll</text>
</g>
<!-- Node11 -->
<g id="node21" class="node"><title>Node11</title>
<polygon fill="white" stroke="#bfbfbf" points="281,-184.5 281,-205.5 327,-205.5 327,-184.5 281,-184.5"/>
<text text-anchor="middle" x="304" y="-192.5" font-family="Helvetica,sans-Serif" font-size="10.00">qint32</text>
</g>
<!-- Node11&#45;&gt;Node2 -->
<g id="edge22" class="edge"><title>Node11&#45;&gt;Node2</title>
<path fill="none" stroke="#9a32cd" stroke-dasharray="5,2" d="M303.621,-174.386C302.215,-155.924 297.393,-129.184 282,-112 274.362,-103.473 263.922,-97.4335 253.259,-93.1624"/>
<polygon fill="#9a32cd" stroke="#9a32cd" points="300.127,-174.593 304.115,-184.409 307.119,-174.249 300.127,-174.593"/>
<text text-anchor="middle" x="363" y="-155" font-family="Helvetica,sans-Serif" font-size="10.00"> m_maxSourceRectWidth</text>
<text text-anchor="middle" x="363" y="-142" font-family="Helvetica,sans-Serif" font-size="10.00">m_maxSourceRectHeight</text>
<text text-anchor="middle" x="363" y="-129" font-family="Helvetica,sans-Serif" font-size="10.00">m_overscrollVal</text>
<text text-anchor="middle" x="363" y="-116" font-family="Helvetica,sans-Serif" font-size="10.00">m_overscrollBottomStart</text>
</g>
<!-- Node12 -->
<g id="node23" class="node"><title>Node12</title>
<polygon fill="white" stroke="#bfbfbf" points="423.5,-184.5 423.5,-205.5 470.5,-205.5 470.5,-184.5 423.5,-184.5"/>
<text text-anchor="middle" x="447" y="-192.5" font-family="Helvetica,sans-Serif" font-size="10.00">QRect</text>
</g>
<!-- Node12&#45;&gt;Node2 -->
<g id="edge24" class="edge"><title>Node12&#45;&gt;Node2</title>
<path fill="none" stroke="#9a32cd" stroke-dasharray="5,2" d="M447.634,-174.271C447.001,-155.084 442.754,-127.286 425,-112 397.383,-88.2224 298.013,-99.5788 262,-94 259.113,-93.5528 256.148,-93.0593 253.161,-92.5366"/>
<polygon fill="#9a32cd" stroke="#9a32cd" points="444.134,-174.423 447.663,-184.413 451.134,-174.403 444.134,-174.423"/>
<text text-anchor="middle" x="486.5" y="-142" font-family="Helvetica,sans-Serif" font-size="10.00"> m_screenGeom</text>
<text text-anchor="middle" x="486.5" y="-129" font-family="Helvetica,sans-Serif" font-size="10.00">m_targetRect</text>
</g>
<!-- Node13 -->
<g id="node25" class="node"><title>Node13</title>
<polygon fill="white" stroke="#bfbfbf" points="270.5,-72.5 270.5,-93.5 411.5,-93.5 411.5,-72.5 270.5,-72.5"/>
<text text-anchor="middle" x="341" y="-80.5" font-family="Helvetica,sans-Serif" font-size="10.00">QPointer&lt; PixmapObject &gt;</text>
</g>
<!-- Node13&#45;&gt;Node1 -->
<g id="edge26" class="edge"><title>Node13&#45;&gt;Node1</title>
<path fill="none" stroke="#9a32cd" stroke-dasharray="5,2" d="M331.568,-63.0266C325.245,-49.6374 317.168,-32.5318 312.037,-21.6674"/>
<polygon fill="#9a32cd" stroke="#9a32cd" points="328.548,-64.8282 335.983,-72.3762 334.878,-61.8391 328.548,-64.8282"/>
<text text-anchor="middle" x="373.5" y="-44.5" font-family="Helvetica,sans-Serif" font-size="10.00"> m_qp_surfacePmo</text>
</g>
</g>
</svg>
