<?xml version="1.0" encoding="UTF-8" standalone="no"?>
<!DOCTYPE svg PUBLIC "-//W3C//DTD SVG 1.1//EN"
 "http://www.w3.org/Graphics/SVG/1.1/DTD/svg11.dtd">
<!-- Generated by graphviz version 2.26.3 (20100126.1600)
 -->
<!-- Title: EmergencyWindowManager Pages: 1 -->
<svg width="204pt" height="146pt"
 viewBox="0.00 0.00 204.00 146.00" xmlns="http://www.w3.org/2000/svg" xmlns:xlink="http://www.w3.org/1999/xlink">
<g id="graph1" class="graph" transform="scale(1 1) rotate(0) translate(4 142)">
<title>EmergencyWindowManager</title>
<polygon fill="white" stroke="white" points="-4,5 -4,-142 201,-142 201,5 -4,5"/>
<!-- Node1 -->
<g id="node1" class="node"><title>Node1</title>
<polygon fill="#bfbfbf" stroke="black" points="27,-0.5 27,-21.5 177,-21.5 177,-0.5 27,-0.5"/>
<text text-anchor="middle" x="102" y="-8.5" font-family="Helvetica,sans-Serif" font-size="10.00">EmergencyWindowManager</text>
</g>
<!-- Node2 -->
<g id="node2" class="node"><title>Node2</title>
<a xlink:href="classWindowManagerBase.htm" target="_top" xlink:title="WindowManagerBase">
<polygon fill="white" stroke="black" points="41.5,-58.5 41.5,-79.5 162.5,-79.5 162.5,-58.5 41.5,-58.5"/>
<text text-anchor="middle" x="102" y="-66.5" font-family="Helvetica,sans-Serif" font-size="10.00">WindowManagerBase</text>
</a>
</g>
<!-- Node2&#45;&gt;Node1 -->
<g id="edge2" class="edge"><title>Node2&#45;&gt;Node1</title>
<path fill="none" stroke="midnightblue" d="M102,-48.1906C102,-39.1684 102,-28.9941 102,-21.5707"/>
<polygon fill="midnightblue" stroke="midnightblue" points="98.5001,-48.3619 102,-58.3619 105.5,-48.3619 98.5001,-48.3619"/>
</g>
<!-- Node3 -->
<g id="node4" class="node"><title>Node3</title>
<a xlink:href="classQGraphicsObject.htm" target="_top" xlink:title="QGraphicsObject">
<polygon fill="white" stroke="black" points="0,-116.5 0,-137.5 98,-137.5 98,-116.5 0,-116.5"/>
<text text-anchor="middle" x="49" y="-124.5" font-family="Helvetica,sans-Serif" font-size="10.00">QGraphicsObject</text>
</a>
</g>
<!-- Node3&#45;&gt;Node2 -->
<g id="edge4" class="edge"><title>Node3&#45;&gt;Node2</title>
<path fill="none" stroke="midnightblue" d="M65.6037,-108.83C74.3963,-99.2078 84.8863,-87.7282 92.3406,-79.5707"/>
<polygon fill="midnightblue" stroke="midnightblue" points="62.883,-106.619 58.721,-116.362 68.0505,-111.341 62.883,-106.619"/>
</g>
<!-- Node4 -->
<g id="node6" class="node"><title>Node4</title>
<a xlink:href="classKeyNavigator.htm" target="_top" xlink:title="KeyNavigator">
<polygon fill="white" stroke="black" points="116,-116.5 116,-137.5 196,-137.5 196,-116.5 116,-116.5"/>
<text text-anchor="middle" x="156" y="-124.5" font-family="Helvetica,sans-Serif" font-size="10.00">KeyNavigator</text>
</a>
</g>
<!-- Node4&#45;&gt;Node2 -->
<g id="edge6" class="edge"><title>Node4&#45;&gt;Node2</title>
<path fill="none" stroke="midnightblue" d="M139.083,-108.83C130.125,-99.2078 119.437,-87.7282 111.842,-79.5707"/>
<polygon fill="midnightblue" stroke="midnightblue" points="136.72,-111.428 146.096,-116.362 141.843,-106.658 136.72,-111.428"/>
</g>
</g>
</svg>
