<?xml version="1.0" encoding="UTF-8" standalone="no"?>
<!DOCTYPE svg PUBLIC "-//W3C//DTD SVG 1.1//EN"
 "http://www.w3.org/Graphics/SVG/1.1/DTD/svg11.dtd">
<!-- Generated by graphviz version 2.26.3 (20100126.1600)
 -->
<!-- Title: DWMStateBase Pages: 1 -->
<svg width="295pt" height="234pt"
 viewBox="0.00 0.00 295.00 234.00" xmlns="http://www.w3.org/2000/svg" xmlns:xlink="http://www.w3.org/1999/xlink">
<g id="graph1" class="graph" transform="scale(1 1) rotate(0) translate(4 230)">
<title>DWMStateBase</title>
<polygon fill="white" stroke="white" points="-4,5 -4,-230 292,-230 292,5 -4,5"/>
<!-- Node1 -->
<g id="node1" class="node"><title>Node1</title>
<polygon fill="#bfbfbf" stroke="black" points="30,-0.5 30,-21.5 122,-21.5 122,-0.5 30,-0.5"/>
<text text-anchor="middle" x="76" y="-8.5" font-family="Helvetica,sans-Serif" font-size="10.00">DWMStateBase</text>
</g>
<!-- Node2 -->
<g id="node2" class="node"><title>Node2</title>
<a xlink:href="classQState.htm" target="_top" xlink:title="QState">
<polygon fill="white" stroke="black" points="14,-72.5 14,-93.5 64,-93.5 64,-72.5 14,-72.5"/>
<text text-anchor="middle" x="39" y="-80.5" font-family="Helvetica,sans-Serif" font-size="10.00">QState</text>
</a>
</g>
<!-- Node2&#45;&gt;Node1 -->
<g id="edge2" class="edge"><title>Node2&#45;&gt;Node1</title>
<path fill="none" stroke="midnightblue" d="M49.0623,-63.4193C55.972,-49.9734 64.8803,-32.6384 70.5181,-21.6674"/>
<polygon fill="midnightblue" stroke="midnightblue" points="45.9172,-61.8821 44.4595,-72.3762 52.1432,-65.0816 45.9172,-61.8821"/>
</g>
<!-- Node3 -->
<g id="node4" class="node"><title>Node3</title>
<a xlink:href="classDashboardWindowManager.htm" target="_top" xlink:title="DashboardWindowManager">
<polygon fill="white" stroke="black" points="81.5,-72.5 81.5,-93.5 230.5,-93.5 230.5,-72.5 81.5,-72.5"/>
<text text-anchor="middle" x="156" y="-80.5" font-family="Helvetica,sans-Serif" font-size="10.00">DashboardWindowManager</text>
</a>
</g>
<!-- Node3&#45;&gt;Node1 -->
<g id="edge4" class="edge"><title>Node3&#45;&gt;Node1</title>
<path fill="none" stroke="#9a32cd" stroke-dasharray="5,2" d="M136.388,-65.3488C121.19,-51.6714 100.634,-33.1709 87.8527,-21.6674"/>
<polygon fill="#9a32cd" stroke="#9a32cd" points="134.421,-68.288 144.196,-72.3762 139.104,-63.0849 134.421,-68.288"/>
<text text-anchor="middle" x="140" y="-44.5" font-family="Helvetica,sans-Serif" font-size="10.00"> m_wm</text>
</g>
<!-- Node4 -->
<g id="node6" class="node"><title>Node4</title>
<a xlink:href="classWindowManagerBase.htm" target="_top" xlink:title="WindowManagerBase">
<polygon fill="white" stroke="black" points="95.5,-132.5 95.5,-153.5 216.5,-153.5 216.5,-132.5 95.5,-132.5"/>
<text text-anchor="middle" x="156" y="-140.5" font-family="Helvetica,sans-Serif" font-size="10.00">WindowManagerBase</text>
</a>
</g>
<!-- Node4&#45;&gt;Node3 -->
<g id="edge6" class="edge"><title>Node4&#45;&gt;Node3</title>
<path fill="none" stroke="midnightblue" d="M156,-122.231C156,-112.592 156,-101.544 156,-93.6339"/>
<polygon fill="midnightblue" stroke="midnightblue" points="152.5,-122.273 156,-132.273 159.5,-122.273 152.5,-122.273"/>
</g>
<!-- Node5 -->
<g id="node8" class="node"><title>Node5</title>
<a xlink:href="classQGraphicsObject.htm" target="_top" xlink:title="QGraphicsObject">
<polygon fill="white" stroke="black" points="0,-204.5 0,-225.5 98,-225.5 98,-204.5 0,-204.5"/>
<text text-anchor="middle" x="49" y="-212.5" font-family="Helvetica,sans-Serif" font-size="10.00">QGraphicsObject</text>
</a>
</g>
<!-- Node5&#45;&gt;Node4 -->
<g id="edge8" class="edge"><title>Node5&#45;&gt;Node4</title>
<path fill="none" stroke="midnightblue" d="M73.2786,-198.663C93.7649,-184.878 122.498,-165.544 140.147,-153.667"/>
<polygon fill="midnightblue" stroke="midnightblue" points="71.1308,-195.89 64.7882,-204.376 75.0388,-201.697 71.1308,-195.89"/>
</g>
<!-- Node6 -->
<g id="node10" class="node"><title>Node6</title>
<a xlink:href="classKeyNavigator.htm" target="_top" xlink:title="KeyNavigator">
<polygon fill="white" stroke="black" points="116,-204.5 116,-225.5 196,-225.5 196,-204.5 116,-204.5"/>
<text text-anchor="middle" x="156" y="-212.5" font-family="Helvetica,sans-Serif" font-size="10.00">KeyNavigator</text>
</a>
</g>
<!-- Node6&#45;&gt;Node4 -->
<g id="edge10" class="edge"><title>Node6&#45;&gt;Node4</title>
<path fill="none" stroke="midnightblue" d="M156,-194.235C156,-180.969 156,-164.319 156,-153.667"/>
<polygon fill="midnightblue" stroke="midnightblue" points="152.5,-194.376 156,-204.376 159.5,-194.376 152.5,-194.376"/>
</g>
<!-- Node7 -->
<g id="node12" class="node"><title>Node7</title>
<polygon fill="white" stroke="#bfbfbf" points="213.5,-204.5 213.5,-225.5 266.5,-225.5 266.5,-204.5 213.5,-204.5"/>
<text text-anchor="middle" x="240" y="-212.5" font-family="Helvetica,sans-Serif" font-size="10.00">QRectF</text>
</g>
<!-- Node7&#45;&gt;Node4 -->
<g id="edge12" class="edge"><title>Node7&#45;&gt;Node4</title>
<path fill="none" stroke="#9a32cd" stroke-dasharray="5,2" d="M219.849,-197.728C203.85,-184.015 181.99,-165.277 168.445,-153.667"/>
<polygon fill="#9a32cd" stroke="#9a32cd" points="217.735,-200.526 227.606,-204.376 222.291,-195.211 217.735,-200.526"/>
<text text-anchor="middle" x="246" y="-176.5" font-family="Helvetica,sans-Serif" font-size="10.00"> m_boundingRect</text>
</g>
</g>
</svg>
