<?xml version="1.0" encoding="UTF-8" standalone="no"?>
<!DOCTYPE svg PUBLIC "-//W3C//DTD SVG 1.1//EN"
 "http://www.w3.org/Graphics/SVG/1.1/DTD/svg11.dtd">
<!-- Generated by graphviz version 2.26.3 (20100126.1600)
 -->
<!-- Title: ReorderableIconLayout Pages: 1 -->
<svg width="134pt" height="204pt"
 viewBox="0.00 0.00 134.00 204.00" xmlns="http://www.w3.org/2000/svg" xmlns:xlink="http://www.w3.org/1999/xlink">
<g id="graph1" class="graph" transform="scale(1 1) rotate(0) translate(4 200)">
<title>ReorderableIconLayout</title>
<polygon fill="white" stroke="white" points="-4,5 -4,-200 131,-200 131,5 -4,5"/>
<!-- Node1 -->
<g id="node1" class="node"><title>Node1</title>
<polygon fill="#bfbfbf" stroke="black" points="-0.5,-0.5 -0.5,-21.5 126.5,-21.5 126.5,-0.5 -0.5,-0.5"/>
<text text-anchor="middle" x="63" y="-8.5" font-family="Helvetica,sans-Serif" font-size="10.00">ReorderableIconLayout</text>
</g>
<!-- Node2 -->
<g id="node2" class="node"><title>Node2</title>
<a xlink:href="classIconLayout.htm" target="_top" xlink:title="IconLayout">
<polygon fill="white" stroke="black" points="29,-58.5 29,-79.5 97,-79.5 97,-58.5 29,-58.5"/>
<text text-anchor="middle" x="63" y="-66.5" font-family="Helvetica,sans-Serif" font-size="10.00">IconLayout</text>
</a>
</g>
<!-- Node2&#45;&gt;Node1 -->
<g id="edge2" class="edge"><title>Node2&#45;&gt;Node1</title>
<path fill="none" stroke="midnightblue" d="M63,-48.1906C63,-39.1684 63,-28.9941 63,-21.5707"/>
<polygon fill="midnightblue" stroke="midnightblue" points="59.5001,-48.3619 63,-58.3619 66.5001,-48.3619 59.5001,-48.3619"/>
</g>
<!-- Node3 -->
<g id="node4" class="node"><title>Node3</title>
<a xlink:href="classLayoutItem.htm" target="_top" xlink:title="LayoutItem">
<polygon fill="white" stroke="black" points="29,-116.5 29,-137.5 97,-137.5 97,-116.5 29,-116.5"/>
<text text-anchor="middle" x="63" y="-124.5" font-family="Helvetica,sans-Serif" font-size="10.00">LayoutItem</text>
</a>
</g>
<!-- Node3&#45;&gt;Node2 -->
<g id="edge4" class="edge"><title>Node3&#45;&gt;Node2</title>
<path fill="none" stroke="midnightblue" d="M63,-106.191C63,-97.1684 63,-86.9941 63,-79.5707"/>
<polygon fill="midnightblue" stroke="midnightblue" points="59.5001,-106.362 63,-116.362 66.5001,-106.362 59.5001,-106.362"/>
</g>
<!-- Node4 -->
<g id="node6" class="node"><title>Node4</title>
<a xlink:href="classQObject.htm" target="_top" xlink:title="QObject">
<polygon fill="white" stroke="black" points="35.5,-174.5 35.5,-195.5 90.5,-195.5 90.5,-174.5 35.5,-174.5"/>
<text text-anchor="middle" x="63" y="-182.5" font-family="Helvetica,sans-Serif" font-size="10.00">QObject</text>
</a>
</g>
<!-- Node4&#45;&gt;Node3 -->
<g id="edge6" class="edge"><title>Node4&#45;&gt;Node3</title>
<path fill="none" stroke="midnightblue" d="M63,-164.191C63,-155.168 63,-144.994 63,-137.571"/>
<polygon fill="midnightblue" stroke="midnightblue" points="59.5001,-164.362 63,-174.362 66.5001,-164.362 59.5001,-164.362"/>
</g>
</g>
</svg>
