<?xml version="1.0" encoding="UTF-8" standalone="no"?>
<!DOCTYPE svg PUBLIC "-//W3C//DTD SVG 1.1//EN"
 "http://www.w3.org/Graphics/SVG/1.1/DTD/svg11.dtd">
<!-- Generated by graphviz version 2.26.3 (20100126.1600)
 -->
<!-- Title: SoundPlayer Pages: 1 -->
<svg width="259pt" height="102pt"
 viewBox="0.00 0.00 259.00 102.00" xmlns="http://www.w3.org/2000/svg" xmlns:xlink="http://www.w3.org/1999/xlink">
<g id="graph1" class="graph" transform="scale(1 1) rotate(0) translate(4 98)">
<title>SoundPlayer</title>
<polygon fill="white" stroke="white" points="-4,5 -4,-98 256,-98 256,5 -4,5"/>
<!-- Node1 -->
<g id="node1" class="node"><title>Node1</title>
<polygon fill="#bfbfbf" stroke="black" points="70.5,-0.5 70.5,-21.5 147.5,-21.5 147.5,-0.5 70.5,-0.5"/>
<text text-anchor="middle" x="109" y="-8.5" font-family="Helvetica,sans-Serif" font-size="10.00">SoundPlayer</text>
</g>
<!-- Node2 -->
<g id="node2" class="node"><title>Node2</title>
<a xlink:href="classRefCounted.htm" target="_top" xlink:title="RefCounted">
<polygon fill="white" stroke="black" points="-0.5,-72.5 -0.5,-93.5 72.5,-93.5 72.5,-72.5 -0.5,-72.5"/>
<text text-anchor="middle" x="36" y="-80.5" font-family="Helvetica,sans-Serif" font-size="10.00">RefCounted</text>
</a>
</g>
<!-- Node2&#45;&gt;Node1 -->
<g id="edge2" class="edge"><title>Node2&#45;&gt;Node1</title>
<path fill="none" stroke="midnightblue" d="M48.6954,-64.5841C61.18,-50.9886 79.7989,-32.9579 93.2214,-21.6674"/>
<polygon fill="midnightblue" stroke="midnightblue" points="45.8107,-62.5632 41.816,-72.3762 51.0582,-67.1961 45.8107,-62.5632"/>
</g>
<!-- Node2&#45;&gt;Node1 -->
<g id="edge4" class="edge"><title>Node2&#45;&gt;Node1</title>
<path fill="none" stroke="midnightblue" d="M59.3744,-65.7275C74.7096,-52.0146 93.4073,-33.2774 103.147,-21.6674"/>
<polygon fill="midnightblue" stroke="midnightblue" points="56.9772,-63.1738 51.7268,-72.3762 61.5699,-68.4565 56.9772,-63.1738"/>
</g>
<!-- Node3 -->
<g id="node5" class="node"><title>Node3</title>
<a xlink:href="classLunaConnector.htm" target="_top" xlink:title="LunaConnector">
<polygon fill="white" stroke="black" points="89.5,-72.5 89.5,-93.5 178.5,-93.5 178.5,-72.5 89.5,-72.5"/>
<text text-anchor="middle" x="134" y="-80.5" font-family="Helvetica,sans-Serif" font-size="10.00">LunaConnector</text>
</a>
</g>
<!-- Node3&#45;&gt;Node1 -->
<g id="edge6" class="edge"><title>Node3&#45;&gt;Node1</title>
<path fill="none" stroke="midnightblue" d="M126.928,-62.6318C122.3,-49.3026 116.439,-32.4253 112.704,-21.6674"/>
<polygon fill="midnightblue" stroke="midnightblue" points="123.725,-64.0775 130.311,-72.3762 130.337,-61.7813 123.725,-64.0775"/>
</g>
<!-- Node4 -->
<g id="node7" class="node"><title>Node4</title>
<a xlink:href="classint.htm" target="_top" xlink:title="int">
<polygon fill="white" stroke="black" points="195.5,-72.5 195.5,-93.5 224.5,-93.5 224.5,-72.5 195.5,-72.5"/>
<text text-anchor="middle" x="210" y="-80.5" font-family="Helvetica,sans-Serif" font-size="10.00">int</text>
</a>
</g>
<!-- Node4&#45;&gt;Node1 -->
<g id="edge8" class="edge"><title>Node4&#45;&gt;Node1</title>
<path fill="none" stroke="#9a32cd" stroke-dasharray="5,2" d="M186.822,-66.4772C167.502,-52.7046 140.549,-33.4905 123.964,-21.6674"/>
<polygon fill="#9a32cd" stroke="#9a32cd" points="184.923,-69.4213 195.097,-72.3762 188.986,-63.7214 184.923,-69.4213"/>
<text text-anchor="middle" x="209.5" y="-44.5" font-family="Helvetica,sans-Serif" font-size="10.00"> m_numInstances</text>
</g>
</g>
</svg>
