<?xml version="1.0" encoding="UTF-8" standalone="no"?>
<!DOCTYPE svg PUBLIC "-//W3C//DTD SVG 1.1//EN"
 "http://www.w3.org/Graphics/SVG/1.1/DTD/svg11.dtd">
<!-- Generated by graphviz version 2.26.3 (20100126.1600)
 -->
<!-- Title: IconLayout Pages: 1 -->
<svg width="489pt" height="174pt"
 viewBox="0.00 0.00 489.00 174.00" xmlns="http://www.w3.org/2000/svg" xmlns:xlink="http://www.w3.org/1999/xlink">
<g id="graph1" class="graph" transform="scale(1 1) rotate(0) translate(4 170)">
<title>IconLayout</title>
<polygon fill="white" stroke="white" points="-4,5 -4,-170 486,-170 486,5 -4,5"/>
<!-- Node1 -->
<g id="node1" class="node"><title>Node1</title>
<polygon fill="#bfbfbf" stroke="black" points="150,-0.5 150,-21.5 218,-21.5 218,-0.5 150,-0.5"/>
<text text-anchor="middle" x="184" y="-8.5" font-family="Helvetica,sans-Serif" font-size="10.00">IconLayout</text>
</g>
<!-- Node2 -->
<g id="node2" class="node"><title>Node2</title>
<a xlink:href="classLayoutItem.htm" target="_top" xlink:title="LayoutItem">
<polygon fill="white" stroke="black" points="0,-84.5 0,-105.5 68,-105.5 68,-84.5 0,-84.5"/>
<text text-anchor="middle" x="34" y="-92.5" font-family="Helvetica,sans-Serif" font-size="10.00">LayoutItem</text>
</a>
</g>
<!-- Node2&#45;&gt;Node1 -->
<g id="edge2" class="edge"><title>Node2&#45;&gt;Node1</title>
<path fill="none" stroke="midnightblue" d="M58.6344,-78.763C76.2641,-67.3951 100.722,-52.1316 123,-40 135.049,-33.4386 148.826,-26.8173 160.235,-21.5614"/>
<polygon fill="midnightblue" stroke="midnightblue" points="56.5655,-75.9333 50.0854,-84.3154 60.3783,-81.8038 56.5655,-75.9333"/>
</g>
<!-- Node3 -->
<g id="node4" class="node"><title>Node3</title>
<a xlink:href="classQObject.htm" target="_top" xlink:title="QObject">
<polygon fill="white" stroke="black" points="6.5,-144.5 6.5,-165.5 61.5,-165.5 61.5,-144.5 6.5,-144.5"/>
<text text-anchor="middle" x="34" y="-152.5" font-family="Helvetica,sans-Serif" font-size="10.00">QObject</text>
</a>
</g>
<!-- Node3&#45;&gt;Node2 -->
<g id="edge4" class="edge"><title>Node3&#45;&gt;Node2</title>
<path fill="none" stroke="midnightblue" d="M34,-134.231C34,-124.592 34,-113.544 34,-105.634"/>
<polygon fill="midnightblue" stroke="midnightblue" points="30.5001,-134.273 34,-144.273 37.5001,-134.273 30.5001,-134.273"/>
</g>
<!-- Node4 -->
<g id="node6" class="node"><title>Node4</title>
<polygon fill="white" stroke="#bfbfbf" points="85.5,-84.5 85.5,-105.5 140.5,-105.5 140.5,-84.5 85.5,-84.5"/>
<text text-anchor="middle" x="113" y="-92.5" font-family="Helvetica,sans-Serif" font-size="10.00">QPointF</text>
</g>
<!-- Node4&#45;&gt;Node1 -->
<g id="edge6" class="edge"><title>Node4&#45;&gt;Node1</title>
<path fill="none" stroke="#9a32cd" stroke-dasharray="5,2" d="M122.054,-75.1722C127.692,-64.1003 135.646,-50.4702 145,-40 151.296,-32.9529 159.548,-26.5212 166.839,-21.5153"/>
<polygon fill="#9a32cd" stroke="#9a32cd" points="118.766,-73.9317 117.554,-84.457 125.065,-76.9849 118.766,-73.9317"/>
<text text-anchor="middle" x="162.5" y="-50.5" font-family="Helvetica,sans-Serif" font-size="10.00"> m_pos</text>
</g>
<!-- Node5 -->
<g id="node8" class="node"><title>Node5</title>
<polygon fill="white" stroke="#bfbfbf" points="157.5,-84.5 157.5,-105.5 210.5,-105.5 210.5,-84.5 157.5,-84.5"/>
<text text-anchor="middle" x="184" y="-92.5" font-family="Helvetica,sans-Serif" font-size="10.00">QRectF</text>
</g>
<!-- Node5&#45;&gt;Node1 -->
<g id="edge8" class="edge"><title>Node5&#45;&gt;Node1</title>
<path fill="none" stroke="#9a32cd" stroke-dasharray="5,2" d="M184,-73.9452C184,-57.2568 184,-34.6387 184,-21.5523"/>
<polygon fill="#9a32cd" stroke="#9a32cd" points="180.5,-74.3613 184,-84.3613 187.5,-74.3614 180.5,-74.3613"/>
<text text-anchor="middle" x="206" y="-50.5" font-family="Helvetica,sans-Serif" font-size="10.00"> m_geom</text>
</g>
<!-- Node6 -->
<g id="node10" class="node"><title>Node6</title>
<polygon fill="white" stroke="#bfbfbf" points="227.5,-84.5 227.5,-105.5 328.5,-105.5 328.5,-84.5 227.5,-84.5"/>
<text text-anchor="middle" x="278" y="-92.5" font-family="Helvetica,sans-Serif" font-size="10.00">QPointer&lt; Page &gt;</text>
</g>
<!-- Node6&#45;&gt;Node1 -->
<g id="edge10" class="edge"><title>Node6&#45;&gt;Node1</title>
<path fill="none" stroke="#9a32cd" stroke-dasharray="5,2" d="M264.659,-76.0554C256.131,-64.7654 244.377,-50.6142 232,-40 223.87,-33.0281 213.865,-26.6934 205.096,-21.7355"/>
<polygon fill="#9a32cd" stroke="#9a32cd" points="262.022,-78.3783 270.757,-84.3741 267.668,-74.2397 262.022,-78.3783"/>
<text text-anchor="middle" x="301" y="-50.5" font-family="Helvetica,sans-Serif" font-size="10.00"> m_qp_ownerPage</text>
</g>
<!-- Node7 -->
<g id="node12" class="node"><title>Node7</title>
<polygon fill="white" stroke="#bfbfbf" points="350,-84.5 350,-105.5 424,-105.5 424,-84.5 350,-84.5"/>
<text text-anchor="middle" x="387" y="-92.5" font-family="Helvetica,sans-Serif" font-size="10.00">QTransform</text>
</g>
<!-- Node7&#45;&gt;Node1 -->
<g id="edge12" class="edge"><title>Node7&#45;&gt;Node1</title>
<path fill="none" stroke="#9a32cd" stroke-dasharray="5,2" d="M378.448,-74.8313C372.297,-62.8127 362.82,-48.3222 350,-40 328.774,-26.2209 260.427,-17.8214 218.34,-13.8233"/>
<polygon fill="#9a32cd" stroke="#9a32cd" points="375.411,-76.5966 382.834,-84.1559 381.745,-73.6172 375.411,-76.5966"/>
<text text-anchor="middle" x="426.5" y="-57" font-family="Helvetica,sans-Serif" font-size="10.00"> m_pageToLayoutTran</text>
<text text-anchor="middle" x="426.5" y="-44" font-family="Helvetica,sans-Serif" font-size="10.00">m_layoutToPageTran</text>
</g>
</g>
</svg>
