<?xml version="1.0" encoding="UTF-8" standalone="no"?>
<!DOCTYPE svg PUBLIC "-//W3C//DTD SVG 1.1//EN"
 "http://www.w3.org/Graphics/SVG/1.1/DTD/svg11.dtd">
<!-- Generated by graphviz version 2.26.3 (20100126.1600)
 -->
<!-- Title: Page Pages: 1 -->
<svg width="208pt" height="262pt"
 viewBox="0.00 0.00 208.00 262.00" xmlns="http://www.w3.org/2000/svg" xmlns:xlink="http://www.w3.org/1999/xlink">
<g id="graph1" class="graph" transform="scale(1 1) rotate(0) translate(4 258)">
<title>Page</title>
<polygon fill="white" stroke="white" points="-4,5 -4,-258 205,-258 205,5 -4,5"/>
<!-- Node1 -->
<g id="node1" class="node"><title>Node1</title>
<polygon fill="#bfbfbf" stroke="black" points="74.5,-58.5 74.5,-79.5 115.5,-79.5 115.5,-58.5 74.5,-58.5"/>
<text text-anchor="middle" x="95" y="-66.5" font-family="Helvetica,sans-Serif" font-size="10.00">Page</text>
</g>
<!-- Node5 -->
<g id="node9" class="node"><title>Node5</title>
<a xlink:href="classAlphabetPage.htm" target="_top" xlink:title="AlphabetPage">
<polygon fill="white" stroke="black" points="-0.5,-0.5 -0.5,-21.5 82.5,-21.5 82.5,-0.5 -0.5,-0.5"/>
<text text-anchor="middle" x="41" y="-8.5" font-family="Helvetica,sans-Serif" font-size="10.00">AlphabetPage</text>
</a>
</g>
<!-- Node1&#45;&gt;Node5 -->
<g id="edge8" class="edge"><title>Node1&#45;&gt;Node5</title>
<path fill="none" stroke="midnightblue" d="M78.083,-50.8299C69.1245,-41.2078 58.4366,-29.7282 50.8416,-21.5707"/>
<polygon fill="midnightblue" stroke="midnightblue" points="75.7197,-53.4279 85.0956,-58.3619 80.843,-48.658 75.7197,-53.4279"/>
</g>
<!-- Node6 -->
<g id="node11" class="node"><title>Node6</title>
<a xlink:href="classReorderablePage.htm" target="_top" xlink:title="ReorderablePage">
<polygon fill="white" stroke="black" points="100,-0.5 100,-21.5 200,-21.5 200,-0.5 100,-0.5"/>
<text text-anchor="middle" x="150" y="-8.5" font-family="Helvetica,sans-Serif" font-size="10.00">ReorderablePage</text>
</a>
</g>
<!-- Node1&#45;&gt;Node6 -->
<g id="edge10" class="edge"><title>Node1&#45;&gt;Node6</title>
<path fill="none" stroke="midnightblue" d="M112.23,-50.8299C121.355,-41.2078 132.24,-29.7282 139.976,-21.5707"/>
<polygon fill="midnightblue" stroke="midnightblue" points="109.429,-48.6973 105.088,-58.3619 114.508,-53.514 109.429,-48.6973"/>
</g>
<!-- Node2 -->
<g id="node2" class="node"><title>Node2</title>
<a xlink:href="classThingPaintable.htm" target="_top" xlink:title="ThingPaintable">
<polygon fill="white" stroke="black" points="51.5,-116.5 51.5,-137.5 138.5,-137.5 138.5,-116.5 51.5,-116.5"/>
<text text-anchor="middle" x="95" y="-124.5" font-family="Helvetica,sans-Serif" font-size="10.00">ThingPaintable</text>
</a>
</g>
<!-- Node2&#45;&gt;Node1 -->
<g id="edge2" class="edge"><title>Node2&#45;&gt;Node1</title>
<path fill="none" stroke="midnightblue" d="M95,-106.191C95,-97.1684 95,-86.9941 95,-79.5707"/>
<polygon fill="midnightblue" stroke="midnightblue" points="91.5001,-106.362 95,-116.362 98.5001,-106.362 91.5001,-106.362"/>
</g>
<!-- Node3 -->
<g id="node4" class="node"><title>Node3</title>
<a xlink:href="classThing.htm" target="_top" xlink:title="Thing">
<polygon fill="white" stroke="black" points="73,-174.5 73,-195.5 117,-195.5 117,-174.5 73,-174.5"/>
<text text-anchor="middle" x="95" y="-182.5" font-family="Helvetica,sans-Serif" font-size="10.00">Thing</text>
</a>
</g>
<!-- Node3&#45;&gt;Node2 -->
<g id="edge4" class="edge"><title>Node3&#45;&gt;Node2</title>
<path fill="none" stroke="midnightblue" d="M95,-164.191C95,-155.168 95,-144.994 95,-137.571"/>
<polygon fill="midnightblue" stroke="midnightblue" points="91.5001,-164.362 95,-174.362 98.5001,-164.362 91.5001,-164.362"/>
</g>
<!-- Node4 -->
<g id="node6" class="node"><title>Node4</title>
<a xlink:href="classQGraphicsObject.htm" target="_top" xlink:title="QGraphicsObject">
<polygon fill="white" stroke="black" points="46,-232.5 46,-253.5 144,-253.5 144,-232.5 46,-232.5"/>
<text text-anchor="middle" x="95" y="-240.5" font-family="Helvetica,sans-Serif" font-size="10.00">QGraphicsObject</text>
</a>
</g>
<!-- Node4&#45;&gt;Node3 -->
<g id="edge6" class="edge"><title>Node4&#45;&gt;Node3</title>
<path fill="none" stroke="midnightblue" d="M95,-222.191C95,-213.168 95,-202.994 95,-195.571"/>
<polygon fill="midnightblue" stroke="midnightblue" points="91.5001,-222.362 95,-232.362 98.5001,-222.362 91.5001,-222.362"/>
</g>
</g>
</svg>
