<?xml version="1.0" encoding="UTF-8" standalone="no"?>
<!DOCTYPE svg PUBLIC "-//W3C//DTD SVG 1.1//EN"
 "http://www.w3.org/Graphics/SVG/1.1/DTD/svg11.dtd">
<!-- Generated by graphviz version 2.26.3 (20100126.1600)
 -->
<!-- Title: BannerMessage Pages: 1 -->
<svg width="162pt" height="88pt"
 viewBox="0.00 0.00 162.00 88.00" xmlns="http://www.w3.org/2000/svg" xmlns:xlink="http://www.w3.org/1999/xlink">
<g id="graph1" class="graph" transform="scale(1 1) rotate(0) translate(4 84)">
<title>BannerMessage</title>
<polygon fill="white" stroke="white" points="-4,5 -4,-84 159,-84 159,5 -4,5"/>
<!-- Node1 -->
<g id="node1" class="node"><title>Node1</title>
<polygon fill="#bfbfbf" stroke="black" points="22.5,-0.5 22.5,-21.5 117.5,-21.5 117.5,-0.5 22.5,-0.5"/>
<text text-anchor="middle" x="70" y="-8.5" font-family="Helvetica,sans-Serif" font-size="10.00">BannerMessage</text>
</g>
<!-- Node2 -->
<g id="node2" class="node"><title>Node2</title>
<a xlink:href="classQObject.htm" target="_top" xlink:title="QObject">
<polygon fill="white" stroke="black" points="-0.5,-58.5 -0.5,-79.5 54.5,-79.5 54.5,-58.5 -0.5,-58.5"/>
<text text-anchor="middle" x="27" y="-66.5" font-family="Helvetica,sans-Serif" font-size="10.00">QObject</text>
</a>
</g>
<!-- Node2&#45;&gt;Node1 -->
<g id="edge2" class="edge"><title>Node2&#45;&gt;Node1</title>
<path fill="none" stroke="midnightblue" d="M40.9006,-50.2504C47.944,-40.75 56.2362,-29.5651 62.1631,-21.5707"/>
<polygon fill="midnightblue" stroke="midnightblue" points="38.0309,-48.2443 34.8869,-58.3619 43.6541,-52.4132 38.0309,-48.2443"/>
</g>
<!-- Node3 -->
<g id="node4" class="node"><title>Node3</title>
<a xlink:href="classQSharedData.htm" target="_top" xlink:title="QSharedData">
<polygon fill="white" stroke="black" points="72,-58.5 72,-79.5 154,-79.5 154,-58.5 72,-58.5"/>
<text text-anchor="middle" x="113" y="-66.5" font-family="Helvetica,sans-Serif" font-size="10.00">QSharedData</text>
</a>
</g>
<!-- Node3&#45;&gt;Node1 -->
<g id="edge4" class="edge"><title>Node3&#45;&gt;Node1</title>
<path fill="none" stroke="midnightblue" d="M99.0994,-50.2504C92.056,-40.75 83.7638,-29.5651 77.8369,-21.5707"/>
<polygon fill="midnightblue" stroke="midnightblue" points="96.3459,-52.4132 105.113,-58.3619 101.969,-48.2443 96.3459,-52.4132"/>
</g>
</g>
</svg>
