<?xml version="1.0" encoding="UTF-8" standalone="no"?>
<!DOCTYPE svg PUBLIC "-//W3C//DTD SVG 1.1//EN"
 "http://www.w3.org/Graphics/SVG/1.1/DTD/svg11.dtd">
<!-- Generated by graphviz version 2.26.3 (20100126.1600)
 -->
<!-- Title: LockButton Pages: 1 -->
<svg width="201pt" height="102pt"
 viewBox="0.00 0.00 201.00 102.00" xmlns="http://www.w3.org/2000/svg" xmlns:xlink="http://www.w3.org/1999/xlink">
<g id="graph1" class="graph" transform="scale(1 1) rotate(0) translate(4 98)">
<title>LockButton</title>
<polygon fill="white" stroke="white" points="-4,5 -4,-98 198,-98 198,5 -4,5"/>
<!-- Node1 -->
<g id="node1" class="node"><title>Node1</title>
<polygon fill="#bfbfbf" stroke="black" points="74.5,-0.5 74.5,-21.5 143.5,-21.5 143.5,-0.5 74.5,-0.5"/>
<text text-anchor="middle" x="109" y="-8.5" font-family="Helvetica,sans-Serif" font-size="10.00">LockButton</text>
</g>
<!-- Node2 -->
<g id="node2" class="node"><title>Node2</title>
<a xlink:href="classQGraphicsPixmapItem.htm" target="_top" xlink:title="QGraphicsPixmapItem">
<polygon fill="white" stroke="black" points="0,-72.5 0,-93.5 122,-93.5 122,-72.5 0,-72.5"/>
<text text-anchor="middle" x="61" y="-80.5" font-family="Helvetica,sans-Serif" font-size="10.00">QGraphicsPixmapItem</text>
</a>
</g>
<!-- Node2&#45;&gt;Node1 -->
<g id="edge2" class="edge"><title>Node2&#45;&gt;Node1</title>
<path fill="none" stroke="midnightblue" d="M73.7934,-63.8099C82.7929,-50.3106 94.5034,-32.7449 101.888,-21.6674"/>
<polygon fill="midnightblue" stroke="midnightblue" points="70.7174,-62.1142 68.0826,-72.3762 76.5418,-65.9971 70.7174,-62.1142"/>
</g>
<!-- Node3 -->
<g id="node4" class="node"><title>Node3</title>
<polygon fill="white" stroke="#bfbfbf" points="140,-72.5 140,-93.5 176,-93.5 176,-72.5 140,-72.5"/>
<text text-anchor="middle" x="158" y="-80.5" font-family="Helvetica,sans-Serif" font-size="10.00">bool</text>
</g>
<!-- Node3&#45;&gt;Node1 -->
<g id="edge4" class="edge"><title>Node3&#45;&gt;Node1</title>
<path fill="none" stroke="#9a32cd" stroke-dasharray="5,2" d="M144.94,-63.8099C135.753,-50.3106 123.799,-32.7449 116.26,-21.6674"/>
<polygon fill="#9a32cd" stroke="#9a32cd" points="142.25,-66.0782 150.77,-72.3762 148.037,-62.1398 142.25,-66.0782"/>
<text text-anchor="middle" x="165" y="-44.5" font-family="Helvetica,sans-Serif" font-size="10.00"> m_pressed</text>
</g>
</g>
</svg>
