<?xml version="1.0" encoding="UTF-8" standalone="no"?>
<!DOCTYPE svg PUBLIC "-//W3C//DTD SVG 1.1//EN"
 "http://www.w3.org/Graphics/SVG/1.1/DTD/svg11.dtd">
<!-- Generated by graphviz version 2.26.3 (20100126.1600)
 -->
<!-- Title: PictureBox Pages: 1 -->
<svg width="491pt" height="270pt"
 viewBox="0.00 0.00 491.00 270.00" xmlns="http://www.w3.org/2000/svg" xmlns:xlink="http://www.w3.org/1999/xlink">
<g id="graph1" class="graph" transform="scale(1 1) rotate(0) translate(4 266)">
<title>PictureBox</title>
<polygon fill="white" stroke="white" points="-4,5 -4,-266 488,-266 488,5 -4,5"/>
<!-- Node1 -->
<g id="node1" class="node"><title>Node1</title>
<polygon fill="#bfbfbf" stroke="black" points="99.5,-0.5 99.5,-21.5 166.5,-21.5 166.5,-0.5 99.5,-0.5"/>
<text text-anchor="middle" x="133" y="-8.5" font-family="Helvetica,sans-Serif" font-size="10.00">PictureBox</text>
</g>
<!-- Node2 -->
<g id="node2" class="node"><title>Node2</title>
<a xlink:href="classThingPaintable.htm" target="_top" xlink:title="ThingPaintable">
<polygon fill="white" stroke="black" points="89.5,-84.5 89.5,-105.5 176.5,-105.5 176.5,-84.5 89.5,-84.5"/>
<text text-anchor="middle" x="133" y="-92.5" font-family="Helvetica,sans-Serif" font-size="10.00">ThingPaintable</text>
</a>
</g>
<!-- Node2&#45;&gt;Node1 -->
<g id="edge2" class="edge"><title>Node2&#45;&gt;Node1</title>
<path fill="none" stroke="midnightblue" d="M133,-73.9452C133,-57.2568 133,-34.6387 133,-21.5523"/>
<polygon fill="midnightblue" stroke="midnightblue" points="129.5,-74.3613 133,-84.3613 136.5,-74.3614 129.5,-74.3613"/>
</g>
<!-- Node3 -->
<g id="node4" class="node"><title>Node3</title>
<a xlink:href="classThing.htm" target="_top" xlink:title="Thing">
<polygon fill="white" stroke="black" points="336,-168.5 336,-189.5 380,-189.5 380,-168.5 336,-168.5"/>
<text text-anchor="middle" x="358" y="-176.5" font-family="Helvetica,sans-Serif" font-size="10.00">Thing</text>
</a>
</g>
<!-- Node3&#45;&gt;Node2 -->
<g id="edge4" class="edge"><title>Node3&#45;&gt;Node2</title>
<path fill="none" stroke="midnightblue" d="M356.568,-158.193C354.609,-146.352 350.126,-132.274 340,-124 313.148,-102.06 219.222,-111.594 185,-106 182.268,-105.553 179.462,-105.06 176.637,-104.538"/>
<polygon fill="midnightblue" stroke="midnightblue" points="353.102,-158.687 357.749,-168.208 360.054,-157.867 353.102,-158.687"/>
</g>
<!-- Node4 -->
<g id="node6" class="node"><title>Node4</title>
<a xlink:href="classQGraphicsObject.htm" target="_top" xlink:title="QGraphicsObject">
<polygon fill="white" stroke="black" points="249,-240.5 249,-261.5 347,-261.5 347,-240.5 249,-240.5"/>
<text text-anchor="middle" x="298" y="-248.5" font-family="Helvetica,sans-Serif" font-size="10.00">QGraphicsObject</text>
</a>
</g>
<!-- Node4&#45;&gt;Node3 -->
<g id="edge6" class="edge"><title>Node4&#45;&gt;Node3</title>
<path fill="none" stroke="midnightblue" d="M313.347,-232.584C324.676,-218.989 339.702,-200.958 349.11,-189.667"/>
<polygon fill="midnightblue" stroke="midnightblue" points="310.566,-230.453 306.853,-240.376 315.944,-234.935 310.566,-230.453"/>
</g>
<!-- Node5 -->
<g id="node8" class="node"><title>Node5</title>
<polygon fill="white" stroke="#bfbfbf" points="365,-240.5 365,-261.5 469,-261.5 469,-240.5 365,-240.5"/>
<text text-anchor="middle" x="417" y="-248.5" font-family="Helvetica,sans-Serif" font-size="10.00">QPointer&lt; Thing &gt;</text>
</g>
<!-- Node5&#45;&gt;Node3 -->
<g id="edge8" class="edge"><title>Node5&#45;&gt;Node3</title>
<path fill="none" stroke="#9a32cd" stroke-dasharray="5,2" d="M401.909,-232.584C390.768,-218.989 375.993,-200.958 366.741,-189.667"/>
<polygon fill="#9a32cd" stroke="#9a32cd" points="399.249,-234.86 408.294,-240.376 404.663,-230.423 399.249,-234.86"/>
<text text-anchor="middle" x="437.5" y="-212.5" font-family="Helvetica,sans-Serif" font-size="10.00"> m_qp_takerOwner</text>
</g>
<!-- Node6 -->
<g id="node10" class="node"><title>Node6</title>
<polygon fill="white" stroke="#bfbfbf" points="-0.5,-168.5 -0.5,-189.5 52.5,-189.5 52.5,-168.5 -0.5,-168.5"/>
<text text-anchor="middle" x="26" y="-176.5" font-family="Helvetica,sans-Serif" font-size="10.00">QString</text>
</g>
<!-- Node6&#45;&gt;Node1 -->
<g id="edge18" class="edge"><title>Node6&#45;&gt;Node1</title>
<path fill="none" stroke="#9a32cd" stroke-dasharray="5,2" d="M18.0985,-158.768C11.565,-138.552 5.23594,-107.221 18,-84 35.4288,-52.2928 73.1019,-32.4105 100.596,-21.5443"/>
<polygon fill="#9a32cd" stroke="#9a32cd" points="14.8069,-159.958 21.4338,-168.224 21.4084,-157.629 14.8069,-159.958"/>
<text text-anchor="middle" x="49.5" y="-92.5" font-family="Helvetica,sans-Serif" font-size="10.00"> m_innerText</text>
</g>
<!-- Node6&#45;&gt;Node2 -->
<g id="edge10" class="edge"><title>Node6&#45;&gt;Node2</title>
<path fill="none" stroke="#9a32cd" stroke-dasharray="5,2" d="M34.0879,-158.921C39.617,-147.371 47.9514,-133.343 59,-124 68.5882,-115.892 80.7103,-109.884 92.3532,-105.508"/>
<polygon fill="#9a32cd" stroke="#9a32cd" points="30.8041,-157.692 29.9535,-168.253 37.2041,-160.528 30.8041,-157.692"/>
<text text-anchor="middle" x="84" y="-134.5" font-family="Helvetica,sans-Serif" font-size="10.00"> m_uiState</text>
</g>
<!-- Node7 -->
<g id="node12" class="node"><title>Node7</title>
<polygon fill="white" stroke="#bfbfbf" points="88.5,-168.5 88.5,-189.5 141.5,-189.5 141.5,-168.5 88.5,-168.5"/>
<text text-anchor="middle" x="115" y="-176.5" font-family="Helvetica,sans-Serif" font-size="10.00">QRectF</text>
</g>
<!-- Node7&#45;&gt;Node2 -->
<g id="edge12" class="edge"><title>Node7&#45;&gt;Node2</title>
<path fill="none" stroke="#9a32cd" stroke-dasharray="5,2" d="M112.908,-157.996C112.49,-147.587 112.924,-134.937 116,-124 117.833,-117.483 121.495,-110.918 124.953,-105.686"/>
<polygon fill="#9a32cd" stroke="#9a32cd" points="109.434,-158.487 113.611,-168.223 116.417,-158.007 109.434,-158.487"/>
<text text-anchor="middle" x="157" y="-141" font-family="Helvetica,sans-Serif" font-size="10.00"> m_boundingRect</text>
<text text-anchor="middle" x="157" y="-128" font-family="Helvetica,sans-Serif" font-size="10.00">m_geom</text>
</g>
<!-- Node8 -->
<g id="node14" class="node"><title>Node8</title>
<a xlink:href="classint.htm" target="_top" xlink:title="int">
<polygon fill="white" stroke="black" points="205.5,-168.5 205.5,-189.5 234.5,-189.5 234.5,-168.5 205.5,-168.5"/>
<text text-anchor="middle" x="220" y="-176.5" font-family="Helvetica,sans-Serif" font-size="10.00">int</text>
</a>
</g>
<!-- Node8&#45;&gt;Node2 -->
<g id="edge14" class="edge"><title>Node8&#45;&gt;Node2</title>
<path fill="none" stroke="#9a32cd" stroke-dasharray="5,2" d="M215.791,-158.433C212.565,-147.091 207.075,-133.438 198,-124 190.206,-115.895 179.74,-109.887 169.486,-105.511"/>
<polygon fill="#9a32cd" stroke="#9a32cd" points="212.451,-159.508 218.234,-168.386 219.249,-157.84 212.451,-159.508"/>
<text text-anchor="middle" x="274.5" y="-141" font-family="Helvetica,sans-Serif" font-size="10.00"> MagicTypePropertyValue</text>
<text text-anchor="middle" x="274.5" y="-128" font-family="Helvetica,sans-Serif" font-size="10.00">MagicTypePropertyKey</text>
</g>
<!-- Node9 -->
<g id="node16" class="node"><title>Node9</title>
<polygon fill="white" stroke="#bfbfbf" points="193.5,-84.5 193.5,-105.5 334.5,-105.5 334.5,-84.5 193.5,-84.5"/>
<text text-anchor="middle" x="264" y="-92.5" font-family="Helvetica,sans-Serif" font-size="10.00">QPointer&lt; PixmapObject &gt;</text>
</g>
<!-- Node9&#45;&gt;Node1 -->
<g id="edge16" class="edge"><title>Node9&#45;&gt;Node1</title>
<path fill="none" stroke="#9a32cd" stroke-dasharray="5,2" d="M238.74,-78.8026C212.413,-61.9211 171.926,-35.9599 149.457,-21.5523"/>
<polygon fill="#9a32cd" stroke="#9a32cd" points="237.101,-81.9098 247.409,-84.3613 240.88,-76.0171 237.101,-81.9098"/>
<text text-anchor="middle" x="263.5" y="-57" font-family="Helvetica,sans-Serif" font-size="10.00"> m_qp_background</text>
<text text-anchor="middle" x="263.5" y="-44" font-family="Helvetica,sans-Serif" font-size="10.00">m_qp_innerPic</text>
</g>
</g>
</svg>
