<?xml version="1.0" encoding="UTF-8" standalone="no"?>
<!DOCTYPE svg PUBLIC "-//W3C//DTD SVG 1.1//EN"
 "http://www.w3.org/Graphics/SVG/1.1/DTD/svg11.dtd">
<!-- Generated by graphviz version 2.26.3 (20100126.1600)
 -->
<!-- Title: WindowManagerBase Pages: 1 -->
<svg width="450pt" height="390pt"
 viewBox="0.00 0.00 450.00 390.00" xmlns="http://www.w3.org/2000/svg" xmlns:xlink="http://www.w3.org/1999/xlink">
<g id="graph1" class="graph" transform="scale(1 1) rotate(0) translate(4 386)">
<title>WindowManagerBase</title>
<polygon fill="white" stroke="white" points="-4,5 -4,-386 447,-386 447,5 -4,5"/>
<!-- Node1 -->
<g id="node1" class="node"><title>Node1</title>
<polygon fill="#bfbfbf" stroke="black" points="134.5,-180.5 134.5,-201.5 255.5,-201.5 255.5,-180.5 134.5,-180.5"/>
<text text-anchor="middle" x="195" y="-188.5" font-family="Helvetica,sans-Serif" font-size="10.00">WindowManagerBase</text>
</g>
<!-- Node4 -->
<g id="node7" class="node"><title>Node4</title>
<a xlink:href="classCardWindowManager.htm" target="_top" xlink:title="CardWindowManager">
<polygon fill="white" stroke="black" points="307,-360.5 307,-381.5 427,-381.5 427,-360.5 307,-360.5"/>
<text text-anchor="middle" x="367" y="-368.5" font-family="Helvetica,sans-Serif" font-size="10.00">CardWindowManager</text>
</a>
</g>
<!-- Node1&#45;&gt;Node4 -->
<g id="edge6" class="edge"><title>Node1&#45;&gt;Node4</title>
<path fill="none" stroke="midnightblue" d="M201.791,-211.783C214.108,-246.145 243.449,-314.61 292,-351 297.068,-354.799 302.803,-357.877 308.79,-360.37"/>
<polygon fill="midnightblue" stroke="midnightblue" points="204.955,-210.223 198.387,-201.909 198.337,-212.504 204.955,-210.223"/>
</g>
<!-- Node5 -->
<g id="node9" class="node"><title>Node5</title>
<a xlink:href="classDashboardWindowManager.htm" target="_top" xlink:title="DashboardWindowManager">
<polygon fill="white" stroke="black" points="292.5,-320.5 292.5,-341.5 441.5,-341.5 441.5,-320.5 292.5,-320.5"/>
<text text-anchor="middle" x="367" y="-328.5" font-family="Helvetica,sans-Serif" font-size="10.00">DashboardWindowManager</text>
</a>
</g>
<!-- Node1&#45;&gt;Node5 -->
<g id="edge8" class="edge"><title>Node1&#45;&gt;Node5</title>
<path fill="none" stroke="midnightblue" d="M205.356,-210.345C220.689,-237.096 251.977,-285.018 292,-311 297.878,-314.816 304.462,-317.906 311.223,-320.409"/>
<polygon fill="midnightblue" stroke="midnightblue" points="208.368,-208.558 200.443,-201.526 202.253,-211.966 208.368,-208.558"/>
</g>
<!-- Node6 -->
<g id="node11" class="node"><title>Node6</title>
<a xlink:href="classDockModeMenuManager.htm" target="_top" xlink:title="DockModeMenuManager">
<polygon fill="white" stroke="black" points="298.5,-280.5 298.5,-301.5 435.5,-301.5 435.5,-280.5 298.5,-280.5"/>
<text text-anchor="middle" x="367" y="-288.5" font-family="Helvetica,sans-Serif" font-size="10.00">DockModeMenuManager</text>
</a>
</g>
<!-- Node1&#45;&gt;Node6 -->
<g id="edge10" class="edge"><title>Node1&#45;&gt;Node6</title>
<path fill="none" stroke="midnightblue" d="M212.148,-209.132C230.328,-227.325 260.691,-254.894 292,-271 299.31,-274.76 307.394,-277.864 315.469,-280.411"/>
<polygon fill="midnightblue" stroke="midnightblue" points="214.187,-206.21 204.693,-201.507 209.182,-211.104 214.187,-206.21"/>
</g>
<!-- Node7 -->
<g id="node13" class="node"><title>Node7</title>
<a xlink:href="classDockModeWindowManager.htm" target="_top" xlink:title="DockModeWindowManager">
<polygon fill="white" stroke="black" points="293,-240.5 293,-261.5 441,-261.5 441,-240.5 293,-240.5"/>
<text text-anchor="middle" x="367" y="-248.5" font-family="Helvetica,sans-Serif" font-size="10.00">DockModeWindowManager</text>
</a>
</g>
<!-- Node1&#45;&gt;Node7 -->
<g id="edge12" class="edge"><title>Node1&#45;&gt;Node7</title>
<path fill="none" stroke="midnightblue" d="M227.425,-205.615C246.084,-213.71 270.103,-223.601 292,-231 302.086,-234.408 313.089,-237.617 323.483,-240.426"/>
<polygon fill="midnightblue" stroke="midnightblue" points="228.759,-202.379 218.195,-201.569 225.948,-208.79 228.759,-202.379"/>
</g>
<!-- Node8 -->
<g id="node15" class="node"><title>Node8</title>
<a xlink:href="classEmergencyWindowManager.htm" target="_top" xlink:title="EmergencyWindowManager">
<polygon fill="white" stroke="black" points="292,-200.5 292,-221.5 442,-221.5 442,-200.5 292,-200.5"/>
<text text-anchor="middle" x="367" y="-208.5" font-family="Helvetica,sans-Serif" font-size="10.00">EmergencyWindowManager</text>
</a>
</g>
<!-- Node1&#45;&gt;Node8 -->
<g id="edge14" class="edge"><title>Node1&#45;&gt;Node8</title>
<path fill="none" stroke="midnightblue" d="M265.657,-199.216C274.291,-200.22 283.138,-201.249 291.835,-202.26"/>
<polygon fill="midnightblue" stroke="midnightblue" points="265.978,-195.73 255.641,-198.051 265.17,-202.683 265.978,-195.73"/>
</g>
<!-- Node9 -->
<g id="node17" class="node"><title>Node9</title>
<a xlink:href="classInputWindowManager.htm" target="_top" xlink:title="InputWindowManager">
<polygon fill="white" stroke="black" points="307,-160.5 307,-181.5 427,-181.5 427,-160.5 307,-160.5"/>
<text text-anchor="middle" x="367" y="-168.5" font-family="Helvetica,sans-Serif" font-size="10.00">InputWindowManager</text>
</a>
</g>
<!-- Node1&#45;&gt;Node9 -->
<g id="edge16" class="edge"><title>Node1&#45;&gt;Node9</title>
<path fill="none" stroke="midnightblue" d="M265.927,-182.753C279.541,-181.17 293.675,-179.526 306.907,-177.988"/>
<polygon fill="midnightblue" stroke="midnightblue" points="265.17,-179.317 255.641,-183.949 265.978,-186.27 265.17,-179.317"/>
</g>
<!-- Node10 -->
<g id="node19" class="node"><title>Node10</title>
<a xlink:href="classMenuWindowManager.htm" target="_top" xlink:title="MenuWindowManager">
<polygon fill="white" stroke="black" points="305.5,-120.5 305.5,-141.5 428.5,-141.5 428.5,-120.5 305.5,-120.5"/>
<text text-anchor="middle" x="367" y="-128.5" font-family="Helvetica,sans-Serif" font-size="10.00">MenuWindowManager</text>
</a>
</g>
<!-- Node1&#45;&gt;Node10 -->
<g id="edge18" class="edge"><title>Node1&#45;&gt;Node10</title>
<path fill="none" stroke="midnightblue" d="M227.425,-176.385C246.084,-168.29 270.103,-158.399 292,-151 302.086,-147.592 313.089,-144.383 323.483,-141.574"/>
<polygon fill="midnightblue" stroke="midnightblue" points="225.948,-173.21 218.195,-180.431 228.759,-179.621 225.948,-173.21"/>
</g>
<!-- Node11 -->
<g id="node21" class="node"><title>Node11</title>
<a xlink:href="classOverlayWindowManager.htm" target="_top" xlink:title="OverlayWindowManager">
<polygon fill="white" stroke="black" points="300,-80.5 300,-101.5 434,-101.5 434,-80.5 300,-80.5"/>
<text text-anchor="middle" x="367" y="-88.5" font-family="Helvetica,sans-Serif" font-size="10.00">OverlayWindowManager</text>
</a>
</g>
<!-- Node1&#45;&gt;Node11 -->
<g id="edge20" class="edge"><title>Node1&#45;&gt;Node11</title>
<path fill="none" stroke="midnightblue" d="M212.148,-172.868C230.328,-154.675 260.691,-127.106 292,-111 299.31,-107.24 307.394,-104.136 315.469,-101.589"/>
<polygon fill="midnightblue" stroke="midnightblue" points="209.182,-170.896 204.693,-180.493 214.187,-175.79 209.182,-170.896"/>
</g>
<!-- Node12 -->
<g id="node23" class="node"><title>Node12</title>
<a xlink:href="classTopLevelWindowManager.htm" target="_top" xlink:title="TopLevelWindowManager">
<polygon fill="white" stroke="black" points="296.5,-40.5 296.5,-61.5 437.5,-61.5 437.5,-40.5 296.5,-40.5"/>
<text text-anchor="middle" x="367" y="-48.5" font-family="Helvetica,sans-Serif" font-size="10.00">TopLevelWindowManager</text>
</a>
</g>
<!-- Node1&#45;&gt;Node12 -->
<g id="edge22" class="edge"><title>Node1&#45;&gt;Node12</title>
<path fill="none" stroke="midnightblue" d="M205.356,-171.655C220.689,-144.904 251.977,-96.9821 292,-71 297.878,-67.1844 304.462,-64.0937 311.223,-61.5908"/>
<polygon fill="midnightblue" stroke="midnightblue" points="202.253,-170.034 200.443,-180.474 208.368,-173.442 202.253,-170.034"/>
</g>
<!-- Node13 -->
<g id="node25" class="node"><title>Node13</title>
<a xlink:href="classWindowManagerMinimal.htm" target="_top" xlink:title="WindowManagerMinimal">
<polygon fill="white" stroke="black" points="300.5,-0.5 300.5,-21.5 433.5,-21.5 433.5,-0.5 300.5,-0.5"/>
<text text-anchor="middle" x="367" y="-8.5" font-family="Helvetica,sans-Serif" font-size="10.00">WindowManagerMinimal</text>
</a>
</g>
<!-- Node1&#45;&gt;Node13 -->
<g id="edge24" class="edge"><title>Node1&#45;&gt;Node13</title>
<path fill="none" stroke="midnightblue" d="M201.791,-170.217C214.108,-135.855 243.449,-67.3903 292,-31 297.068,-27.2013 302.803,-24.1234 308.79,-21.6295"/>
<polygon fill="midnightblue" stroke="midnightblue" points="198.337,-169.496 198.387,-180.091 204.955,-171.777 198.337,-169.496"/>
</g>
<!-- Node2 -->
<g id="node2" class="node"><title>Node2</title>
<a xlink:href="classQGraphicsObject.htm" target="_top" xlink:title="QGraphicsObject">
<polygon fill="white" stroke="black" points="0,-200.5 0,-221.5 98,-221.5 98,-200.5 0,-200.5"/>
<text text-anchor="middle" x="49" y="-208.5" font-family="Helvetica,sans-Serif" font-size="10.00">QGraphicsObject</text>
</a>
</g>
<!-- Node2&#45;&gt;Node1 -->
<g id="edge2" class="edge"><title>Node2&#45;&gt;Node1</title>
<path fill="none" stroke="midnightblue" d="M108.065,-202.909C116.754,-201.719 125.716,-200.491 134.435,-199.297"/>
<polygon fill="midnightblue" stroke="midnightblue" points="107.454,-199.46 98.022,-204.285 108.405,-206.395 107.454,-199.46"/>
</g>
<!-- Node3 -->
<g id="node4" class="node"><title>Node3</title>
<a xlink:href="classKeyNavigator.htm" target="_top" xlink:title="KeyNavigator">
<polygon fill="white" stroke="black" points="9,-160.5 9,-181.5 89,-181.5 89,-160.5 9,-160.5"/>
<text text-anchor="middle" x="49" y="-168.5" font-family="Helvetica,sans-Serif" font-size="10.00">KeyNavigator</text>
</a>
</g>
<!-- Node3&#45;&gt;Node1 -->
<g id="edge4" class="edge"><title>Node3&#45;&gt;Node1</title>
<path fill="none" stroke="midnightblue" d="M99.3687,-177.9C110.635,-179.443 122.7,-181.096 134.334,-182.69"/>
<polygon fill="midnightblue" stroke="midnightblue" points="99.6641,-174.408 89.2816,-176.518 98.7141,-181.343 99.6641,-174.408"/>
</g>
</g>
</svg>
