<?xml version="1.0" encoding="UTF-8" standalone="no"?>
<!DOCTYPE svg PUBLIC "-//W3C//DTD SVG 1.1//EN"
 "http://www.w3.org/Graphics/SVG/1.1/DTD/svg11.dtd">
<!-- Generated by graphviz version 2.26.3 (20100126.1600)
 -->
<!-- Title: PixButton Pages: 1 -->
<svg width="1038pt" height="284pt"
 viewBox="0.00 0.00 1038.00 284.00" xmlns="http://www.w3.org/2000/svg" xmlns:xlink="http://www.w3.org/1999/xlink">
<g id="graph1" class="graph" transform="scale(1 1) rotate(0) translate(4 280)">
<title>PixButton</title>
<polygon fill="white" stroke="white" points="-4,5 -4,-280 1035,-280 1035,5 -4,5"/>
<!-- Node1 -->
<g id="node1" class="node"><title>Node1</title>
<polygon fill="#bfbfbf" stroke="black" points="430.5,-0.5 430.5,-21.5 491.5,-21.5 491.5,-0.5 430.5,-0.5"/>
<text text-anchor="middle" x="461" y="-8.5" font-family="Helvetica,sans-Serif" font-size="10.00">PixButton</text>
</g>
<!-- Node2 -->
<g id="node2" class="node"><title>Node2</title>
<a xlink:href="classThingPaintable.htm" target="_top" xlink:title="ThingPaintable">
<polygon fill="white" stroke="black" points="71.5,-98.5 71.5,-119.5 158.5,-119.5 158.5,-98.5 71.5,-98.5"/>
<text text-anchor="middle" x="115" y="-106.5" font-family="Helvetica,sans-Serif" font-size="10.00">ThingPaintable</text>
</a>
</g>
<!-- Node2&#45;&gt;Node1 -->
<g id="edge2" class="edge"><title>Node2&#45;&gt;Node1</title>
<path fill="none" stroke="midnightblue" d="M129.878,-90.5375C144.184,-74.2264 167.369,-51.3238 193,-40 234.844,-21.5128 369.074,-14.3493 430.182,-11.9959"/>
<polygon fill="midnightblue" stroke="midnightblue" points="127.035,-88.4784 123.24,-98.3702 132.375,-93.0042 127.035,-88.4784"/>
</g>
<!-- Node3 -->
<g id="node4" class="node"><title>Node3</title>
<a xlink:href="classThing.htm" target="_top" xlink:title="Thing">
<polygon fill="white" stroke="black" points="336,-182.5 336,-203.5 380,-203.5 380,-182.5 336,-182.5"/>
<text text-anchor="middle" x="358" y="-190.5" font-family="Helvetica,sans-Serif" font-size="10.00">Thing</text>
</a>
</g>
<!-- Node3&#45;&gt;Node2 -->
<g id="edge4" class="edge"><title>Node3&#45;&gt;Node2</title>
<path fill="none" stroke="midnightblue" d="M357.005,-172.176C355.282,-160.329 351.057,-146.251 341,-138 310.947,-113.344 205.402,-126.031 167,-120 164.265,-119.571 161.457,-119.091 158.631,-118.578"/>
<polygon fill="midnightblue" stroke="midnightblue" points="353.529,-172.584 357.981,-182.198 360.496,-171.906 353.529,-172.584"/>
</g>
<!-- Node4 -->
<g id="node6" class="node"><title>Node4</title>
<a xlink:href="classQGraphicsObject.htm" target="_top" xlink:title="QGraphicsObject">
<polygon fill="white" stroke="black" points="249,-254.5 249,-275.5 347,-275.5 347,-254.5 249,-254.5"/>
<text text-anchor="middle" x="298" y="-262.5" font-family="Helvetica,sans-Serif" font-size="10.00">QGraphicsObject</text>
</a>
</g>
<!-- Node4&#45;&gt;Node3 -->
<g id="edge6" class="edge"><title>Node4&#45;&gt;Node3</title>
<path fill="none" stroke="midnightblue" d="M313.347,-246.584C324.676,-232.989 339.702,-214.958 349.11,-203.667"/>
<polygon fill="midnightblue" stroke="midnightblue" points="310.566,-244.453 306.853,-254.376 315.944,-248.935 310.566,-244.453"/>
</g>
<!-- Node5 -->
<g id="node8" class="node"><title>Node5</title>
<polygon fill="white" stroke="#bfbfbf" points="365,-254.5 365,-275.5 469,-275.5 469,-254.5 365,-254.5"/>
<text text-anchor="middle" x="417" y="-262.5" font-family="Helvetica,sans-Serif" font-size="10.00">QPointer&lt; Thing &gt;</text>
</g>
<!-- Node5&#45;&gt;Node3 -->
<g id="edge8" class="edge"><title>Node5&#45;&gt;Node3</title>
<path fill="none" stroke="#9a32cd" stroke-dasharray="5,2" d="M401.909,-246.584C390.768,-232.989 375.993,-214.958 366.741,-203.667"/>
<polygon fill="#9a32cd" stroke="#9a32cd" points="399.249,-248.86 408.294,-254.376 404.663,-244.423 399.249,-248.86"/>
<text text-anchor="middle" x="438.5" y="-226.5" font-family="Helvetica,sans-Serif" font-size="10.00"> m_qp_takerOwner</text>
</g>
<!-- Node6 -->
<g id="node10" class="node"><title>Node6</title>
<polygon fill="white" stroke="#bfbfbf" points="-0.5,-182.5 -0.5,-203.5 52.5,-203.5 52.5,-182.5 -0.5,-182.5"/>
<text text-anchor="middle" x="26" y="-190.5" font-family="Helvetica,sans-Serif" font-size="10.00">QString</text>
</g>
<!-- Node6&#45;&gt;Node1 -->
<g id="edge22" class="edge"><title>Node6&#45;&gt;Node1</title>
<path fill="none" stroke="#9a32cd" stroke-dasharray="5,2" d="M19.2661,-172.526C13.8627,-152.09 9.22063,-120.561 23,-98 52.4242,-49.8235 81.7721,-55.6876 136,-40 190.757,-24.1594 360.273,-15.3023 430.276,-12.2383"/>
<polygon fill="#9a32cd" stroke="#9a32cd" points="15.9759,-173.744 22.1507,-182.354 22.6925,-171.773 15.9759,-173.744"/>
<text text-anchor="middle" x="43" y="-106.5" font-family="Helvetica,sans-Serif" font-size="10.00"> m_label</text>
</g>
<!-- Node6&#45;&gt;Node2 -->
<g id="edge10" class="edge"><title>Node6&#45;&gt;Node2</title>
<path fill="none" stroke="#9a32cd" stroke-dasharray="5,2" d="M35.4828,-172.997C41.5813,-161.693 50.3523,-147.889 61,-138 69.1093,-130.469 79.5419,-124.271 89.0718,-119.565"/>
<polygon fill="#9a32cd" stroke="#9a32cd" points="32.2524,-171.628 30.8314,-182.127 38.4896,-174.806 32.2524,-171.628"/>
<text text-anchor="middle" x="86" y="-148.5" font-family="Helvetica,sans-Serif" font-size="10.00"> m_uiState</text>
</g>
<!-- Node7 -->
<g id="node12" class="node"><title>Node7</title>
<polygon fill="white" stroke="#bfbfbf" points="88.5,-182.5 88.5,-203.5 141.5,-203.5 141.5,-182.5 88.5,-182.5"/>
<text text-anchor="middle" x="115" y="-190.5" font-family="Helvetica,sans-Serif" font-size="10.00">QRectF</text>
</g>
<!-- Node7&#45;&gt;Node2 -->
<g id="edge12" class="edge"><title>Node7&#45;&gt;Node2</title>
<path fill="none" stroke="#9a32cd" stroke-dasharray="5,2" d="M115,-171.945C115,-155.257 115,-132.639 115,-119.552"/>
<polygon fill="#9a32cd" stroke="#9a32cd" points="111.5,-172.361 115,-182.361 118.5,-172.361 111.5,-172.361"/>
<text text-anchor="middle" x="156" y="-155" font-family="Helvetica,sans-Serif" font-size="10.00"> m_boundingRect</text>
<text text-anchor="middle" x="156" y="-142" font-family="Helvetica,sans-Serif" font-size="10.00">m_geom</text>
</g>
<!-- Node8 -->
<g id="node14" class="node"><title>Node8</title>
<a xlink:href="classint.htm" target="_top" xlink:title="int">
<polygon fill="white" stroke="black" points="205.5,-182.5 205.5,-203.5 234.5,-203.5 234.5,-182.5 205.5,-182.5"/>
<text text-anchor="middle" x="220" y="-190.5" font-family="Helvetica,sans-Serif" font-size="10.00">int</text>
</a>
</g>
<!-- Node8&#45;&gt;Node2 -->
<g id="edge14" class="edge"><title>Node8&#45;&gt;Node2</title>
<path fill="none" stroke="#9a32cd" stroke-dasharray="5,2" d="M216.084,-172.139C212.953,-160.702 207.461,-147.051 198,-138 191.437,-131.722 173.041,-125.014 155.231,-119.633"/>
<polygon fill="#9a32cd" stroke="#9a32cd" points="212.749,-173.252 218.414,-182.205 219.568,-171.673 212.749,-173.252"/>
<text text-anchor="middle" x="275.5" y="-155" font-family="Helvetica,sans-Serif" font-size="10.00"> MagicTypePropertyValue</text>
<text text-anchor="middle" x="275.5" y="-142" font-family="Helvetica,sans-Serif" font-size="10.00">MagicTypePropertyKey</text>
</g>
<!-- Node9 -->
<g id="node16" class="node"><title>Node9</title>
<polygon fill="white" stroke="#bfbfbf" points="175.5,-98.5 175.5,-119.5 230.5,-119.5 230.5,-98.5 175.5,-98.5"/>
<text text-anchor="middle" x="203" y="-106.5" font-family="Helvetica,sans-Serif" font-size="10.00">QPointF</text>
</g>
<!-- Node9&#45;&gt;Node1 -->
<g id="edge16" class="edge"><title>Node9&#45;&gt;Node1</title>
<path fill="none" stroke="#9a32cd" stroke-dasharray="5,2" d="M197.811,-88.1563C195.346,-72.8278 195.124,-52.5574 207,-40 222.096,-24.0378 365.785,-15.4192 430.119,-12.3332"/>
<polygon fill="#9a32cd" stroke="#9a32cd" points="194.444,-89.1592 199.862,-98.2634 201.304,-87.7671 194.444,-89.1592"/>
<text text-anchor="middle" x="244.5" y="-57.5" font-family="Helvetica,sans-Serif" font-size="10.00"> m_labelPosICS</text>
</g>
<!-- Node10 -->
<g id="node18" class="node"><title>Node10</title>
<polygon fill="white" stroke="#bfbfbf" points="262,-98.5 262,-119.5 312,-119.5 312,-98.5 262,-98.5"/>
<text text-anchor="middle" x="287" y="-106.5" font-family="Helvetica,sans-Serif" font-size="10.00">QColor</text>
</g>
<!-- Node10&#45;&gt;Node1 -->
<g id="edge18" class="edge"><title>Node10&#45;&gt;Node1</title>
<path fill="none" stroke="#9a32cd" stroke-dasharray="5,2" d="M285.135,-88.3037C284.953,-72.8871 287.465,-52.4348 300,-40 317.945,-22.1981 388.772,-15.1317 430.267,-12.4782"/>
<polygon fill="#9a32cd" stroke="#9a32cd" points="281.647,-88.6385 285.638,-98.4527 288.638,-88.2915 281.647,-88.6385"/>
<text text-anchor="middle" x="345.5" y="-64" font-family="Helvetica,sans-Serif" font-size="10.00"> m_selectedColor</text>
<text text-anchor="middle" x="345.5" y="-51" font-family="Helvetica,sans-Serif" font-size="10.00">m_unselectedColor</text>
</g>
<!-- Node11 -->
<g id="node20" class="node"><title>Node11</title>
<polygon fill="white" stroke="#bfbfbf" points="362.5,-98.5 362.5,-119.5 439.5,-119.5 439.5,-98.5 362.5,-98.5"/>
<text text-anchor="middle" x="401" y="-106.5" font-family="Helvetica,sans-Serif" font-size="10.00">QTextLayout</text>
</g>
<!-- Node11&#45;&gt;Node1 -->
<g id="edge20" class="edge"><title>Node11&#45;&gt;Node1</title>
<path fill="none" stroke="#9a32cd" stroke-dasharray="5,2" d="M395.918,-88.1455C393.574,-73.5492 393.015,-54.1982 402,-40 408.409,-29.8733 419.486,-23.175 430.323,-18.7964"/>
<polygon fill="#9a32cd" stroke="#9a32cd" points="392.538,-89.0954 397.929,-98.2165 399.403,-87.7247 392.538,-89.0954"/>
<text text-anchor="middle" x="450.5" y="-57.5" font-family="Helvetica,sans-Serif" font-size="10.00"> m_textLayoutObject</text>
</g>
<!-- Node12 -->
<g id="node23" class="node"><title>Node12</title>
<polygon fill="white" stroke="#bfbfbf" points="498,-98.5 498,-119.5 544,-119.5 544,-98.5 498,-98.5"/>
<text text-anchor="middle" x="521" y="-106.5" font-family="Helvetica,sans-Serif" font-size="10.00">QFont</text>
</g>
<!-- Node12&#45;&gt;Node1 -->
<g id="edge24" class="edge"><title>Node12&#45;&gt;Node1</title>
<path fill="none" stroke="#9a32cd" stroke-dasharray="5,2" d="M517.804,-88.2787C514.788,-73.7455 509.157,-54.4154 499,-40 493.838,-32.6732 486.268,-26.367 479.241,-21.5243"/>
<polygon fill="#9a32cd" stroke="#9a32cd" points="514.393,-89.0871 519.632,-98.2964 521.279,-87.8305 514.393,-89.0871"/>
<text text-anchor="middle" x="543" y="-57.5" font-family="Helvetica,sans-Serif" font-size="10.00"> m_textFont</text>
</g>
<!-- Node13 -->
<g id="node25" class="node"><title>Node13</title>
<polygon fill="white" stroke="#bfbfbf" points="582,-98.5 582,-119.5 618,-119.5 618,-98.5 582,-98.5"/>
<text text-anchor="middle" x="600" y="-106.5" font-family="Helvetica,sans-Serif" font-size="10.00">bool</text>
</g>
<!-- Node13&#45;&gt;Node1 -->
<g id="edge26" class="edge"><title>Node13&#45;&gt;Node1</title>
<path fill="none" stroke="#9a32cd" stroke-dasharray="5,2" d="M597.688,-88.2791C594.88,-72.8493 588.676,-52.3913 575,-40 562.855,-28.996 521.129,-20.391 491.687,-15.5022"/>
<polygon fill="#9a32cd" stroke="#9a32cd" points="594.266,-89.0586 599.192,-98.4384 601.19,-88.0337 594.266,-89.0586"/>
<text text-anchor="middle" x="637.5" y="-57.5" font-family="Helvetica,sans-Serif" font-size="10.00"> m_trackingTouch</text>
</g>
<!-- Node14 -->
<g id="node27" class="node"><title>Node14</title>
<polygon fill="white" stroke="#bfbfbf" points="685,-98.5 685,-119.5 731,-119.5 731,-98.5 685,-98.5"/>
<text text-anchor="middle" x="708" y="-106.5" font-family="Helvetica,sans-Serif" font-size="10.00">qint32</text>
</g>
<!-- Node14&#45;&gt;Node1 -->
<g id="edge28" class="edge"><title>Node14&#45;&gt;Node1</title>
<path fill="none" stroke="#9a32cd" stroke-dasharray="5,2" d="M706.456,-88.0865C704.125,-72.382 698.333,-51.6541 684,-40 669.347,-28.085 549.44,-17.6138 491.765,-13.211"/>
<polygon fill="#9a32cd" stroke="#9a32cd" points="703.023,-88.8837 707.613,-98.4324 709.98,-88.1051 703.023,-88.8837"/>
<text text-anchor="middle" x="755.5" y="-70.5" font-family="Helvetica,sans-Serif" font-size="10.00"> m_labelVerticalAdjust</text>
<text text-anchor="middle" x="755.5" y="-57.5" font-family="Helvetica,sans-Serif" font-size="10.00">m_touchCount</text>
<text text-anchor="middle" x="755.5" y="-44.5" font-family="Helvetica,sans-Serif" font-size="10.00">m_trackingTouchId</text>
</g>
<!-- Node15 -->
<g id="node29" class="node"><title>Node15</title>
<polygon fill="white" stroke="#bfbfbf" points="810.5,-98.5 810.5,-119.5 857.5,-119.5 857.5,-98.5 810.5,-98.5"/>
<text text-anchor="middle" x="834" y="-106.5" font-family="Helvetica,sans-Serif" font-size="10.00">QRect</text>
</g>
<!-- Node15&#45;&gt;Node1 -->
<g id="edge30" class="edge"><title>Node15&#45;&gt;Node1</title>
<path fill="none" stroke="#9a32cd" stroke-dasharray="5,2" d="M832.925,-87.923C830.913,-72.1292 825.463,-51.3609 811,-40 786.157,-20.4851 572.147,-13.5608 491.54,-11.6314"/>
<polygon fill="#9a32cd" stroke="#9a32cd" points="829.48,-88.6923 833.862,-98.3385 836.452,-88.0651 829.48,-88.6923"/>
<text text-anchor="middle" x="875" y="-64" font-family="Helvetica,sans-Serif" font-size="10.00"> m_labelMaxGeom</text>
<text text-anchor="middle" x="875" y="-51" font-family="Helvetica,sans-Serif" font-size="10.00">m_labelGeom</text>
</g>
<!-- Node16 -->
<g id="node31" class="node"><title>Node16</title>
<polygon fill="white" stroke="#bfbfbf" points="920.5,-98.5 920.5,-119.5 969.5,-119.5 969.5,-98.5 920.5,-98.5"/>
<text text-anchor="middle" x="945" y="-106.5" font-family="Helvetica,sans-Serif" font-size="10.00">QPoint</text>
</g>
<!-- Node16&#45;&gt;Node1 -->
<g id="edge32" class="edge"><title>Node16&#45;&gt;Node1</title>
<path fill="none" stroke="#9a32cd" stroke-dasharray="5,2" d="M944.36,-88.3278C942.669,-72.4491 937.58,-51.3722 923,-40 905.989,-26.7319 592.409,-15.3169 491.795,-11.9827"/>
<polygon fill="#9a32cd" stroke="#9a32cd" points="940.868,-88.5777 945.062,-98.3072 947.851,-88.086 940.868,-88.5777"/>
<text text-anchor="middle" x="986" y="-57.5" font-family="Helvetica,sans-Serif" font-size="10.00"> m_labelPosPntCS</text>
</g>
</g>
</svg>
