<?xml version="1.0" encoding="UTF-8" standalone="no"?>
<!DOCTYPE svg PUBLIC "-//W3C//DTD SVG 1.1//EN"
 "http://www.w3.org/Graphics/SVG/1.1/DTD/svg11.dtd">
<!-- Generated by graphviz version 2.26.3 (20100126.1600)
 -->
<!-- Title: DisplayOff Pages: 1 -->
<svg width="108pt" height="222pt"
 viewBox="0.00 0.00 108.00 222.00" xmlns="http://www.w3.org/2000/svg" xmlns:xlink="http://www.w3.org/1999/xlink">
<g id="graph1" class="graph" transform="scale(1 1) rotate(0) translate(4 218)">
<title>DisplayOff</title>
<polygon fill="white" stroke="white" points="-4,5 -4,-218 105,-218 105,5 -4,5"/>
<!-- Node1 -->
<g id="node1" class="node"><title>Node1</title>
<polygon fill="#bfbfbf" stroke="black" points="17.5,-0.5 17.5,-21.5 82.5,-21.5 82.5,-0.5 17.5,-0.5"/>
<text text-anchor="middle" x="50" y="-8.5" font-family="Helvetica,sans-Serif" font-size="10.00">DisplayOff</text>
</g>
<!-- Node2 -->
<g id="node2" class="node"><title>Node2</title>
<a xlink:href="classDisplayStateBase.htm" target="_top" xlink:title="DisplayStateBase">
<polygon fill="white" stroke="black" points="0,-60.5 0,-81.5 100,-81.5 100,-60.5 0,-60.5"/>
<text text-anchor="middle" x="50" y="-68.5" font-family="Helvetica,sans-Serif" font-size="10.00">DisplayStateBase</text>
</a>
</g>
<!-- Node2&#45;&gt;Node1 -->
<g id="edge2" class="edge"><title>Node2&#45;&gt;Node1</title>
<path fill="none" stroke="midnightblue" d="M50,-50.2312C50,-40.5922 50,-29.5444 50,-21.6339"/>
<polygon fill="midnightblue" stroke="midnightblue" points="46.5001,-50.2732 50,-60.2732 53.5001,-50.2732 46.5001,-50.2732"/>
</g>
<!-- Node3 -->
<g id="node4" class="node"><title>Node3</title>
<a xlink:href="classDisplayManager.htm" target="_top" xlink:title="DisplayManager">
<polygon fill="white" stroke="black" points="3,-132.5 3,-153.5 97,-153.5 97,-132.5 3,-132.5"/>
<text text-anchor="middle" x="50" y="-140.5" font-family="Helvetica,sans-Serif" font-size="10.00">DisplayManager</text>
</a>
</g>
<!-- Node3&#45;&gt;Node2 -->
<g id="edge4" class="edge"><title>Node3&#45;&gt;Node2</title>
<path fill="none" stroke="#9a32cd" stroke-dasharray="5,2" d="M50,-122.235C50,-108.969 50,-92.3188 50,-81.6674"/>
<polygon fill="#9a32cd" stroke="#9a32cd" points="46.5001,-122.376 50,-132.376 53.5001,-122.376 46.5001,-122.376"/>
<text text-anchor="middle" x="59" y="-104.5" font-family="Helvetica,sans-Serif" font-size="10.00"> dm</text>
</g>
<!-- Node4 -->
<g id="node6" class="node"><title>Node4</title>
<a xlink:href="classQObject.htm" target="_top" xlink:title="QObject">
<polygon fill="white" stroke="black" points="22.5,-192.5 22.5,-213.5 77.5,-213.5 77.5,-192.5 22.5,-192.5"/>
<text text-anchor="middle" x="50" y="-200.5" font-family="Helvetica,sans-Serif" font-size="10.00">QObject</text>
</a>
</g>
<!-- Node4&#45;&gt;Node3 -->
<g id="edge6" class="edge"><title>Node4&#45;&gt;Node3</title>
<path fill="none" stroke="midnightblue" d="M50,-182.231C50,-172.592 50,-161.544 50,-153.634"/>
<polygon fill="midnightblue" stroke="midnightblue" points="46.5001,-182.273 50,-192.273 53.5001,-182.273 46.5001,-182.273"/>
</g>
</g>
</svg>
