<?xml version="1.0" encoding="UTF-8" standalone="no"?>
<!DOCTYPE svg PUBLIC "-//W3C//DTD SVG 1.1//EN"
 "http://www.w3.org/Graphics/SVG/1.1/DTD/svg11.dtd">
<!-- Generated by graphviz version 2.26.3 (20100126.1600)
 -->
<!-- Title: IconAttributes Pages: 1 -->
<svg width="163pt" height="114pt"
 viewBox="0.00 0.00 163.00 114.00" xmlns="http://www.w3.org/2000/svg" xmlns:xlink="http://www.w3.org/1999/xlink">
<g id="graph1" class="graph" transform="scale(1 1) rotate(0) translate(4 110)">
<title>IconAttributes</title>
<polygon fill="white" stroke="white" points="-4,5 -4,-110 160,-110 160,5 -4,5"/>
<!-- Node1 -->
<g id="node1" class="node"><title>Node1</title>
<polygon fill="#bfbfbf" stroke="black" points="24,-0.5 24,-21.5 104,-21.5 104,-0.5 24,-0.5"/>
<text text-anchor="middle" x="64" y="-8.5" font-family="Helvetica,sans-Serif" font-size="10.00">IconAttributes</text>
</g>
<!-- Node2 -->
<g id="node2" class="node"><title>Node2</title>
<polygon fill="white" stroke="#bfbfbf" points="-0.5,-84.5 -0.5,-105.5 52.5,-105.5 52.5,-84.5 -0.5,-84.5"/>
<text text-anchor="middle" x="26" y="-92.5" font-family="Helvetica,sans-Serif" font-size="10.00">QString</text>
</g>
<!-- Node2&#45;&gt;Node1 -->
<g id="edge2" class="edge"><title>Node2&#45;&gt;Node1</title>
<path fill="none" stroke="#9a32cd" stroke-dasharray="5,2" d="M22.2591,-74.066C21.3371,-63.3494 21.8175,-50.4052 27,-40 30.7114,-32.5483 37.3392,-26.4309 43.9701,-21.7674"/>
<polygon fill="#9a32cd" stroke="#9a32cd" points="18.8208,-74.7664 23.5892,-84.2276 25.7616,-73.8579 18.8208,-74.7664"/>
<text text-anchor="middle" x="53.5" y="-57" font-family="Helvetica,sans-Serif" font-size="10.00"> launchPtId</text>
<text text-anchor="middle" x="53.5" y="-44" font-family="Helvetica,sans-Serif" font-size="10.00">appId</text>
</g>
<!-- Node3 -->
<g id="node4" class="node"><title>Node3</title>
<polygon fill="white" stroke="#bfbfbf" points="79,-84.5 79,-105.5 125,-105.5 125,-84.5 79,-84.5"/>
<text text-anchor="middle" x="102" y="-92.5" font-family="Helvetica,sans-Serif" font-size="10.00">QUuid</text>
</g>
<!-- Node3&#45;&gt;Node1 -->
<g id="edge4" class="edge"><title>Node3&#45;&gt;Node1</title>
<path fill="none" stroke="#9a32cd" stroke-dasharray="5,2" d="M94.5921,-74.7586C90.5758,-64.2551 85.3486,-51.2926 80,-40 77.0464,-33.7639 73.3461,-27.0021 70.2482,-21.5776"/>
<polygon fill="#9a32cd" stroke="#9a32cd" points="91.3772,-76.154 98.1643,-84.2895 97.932,-73.6972 91.3772,-76.154"/>
<text text-anchor="middle" x="122.5" y="-50.5" font-family="Helvetica,sans-Serif" font-size="10.00"> uidOfOriginal</text>
</g>
</g>
</svg>
