<?xml version="1.0" encoding="UTF-8" standalone="no"?>
<!DOCTYPE svg PUBLIC "-//W3C//DTD SVG 1.1//EN"
 "http://www.w3.org/Graphics/SVG/1.1/DTD/svg11.dtd">
<!-- Generated by graphviz version 2.26.3 (20100126.1600)
 -->
<!-- Title: TransparentNode Pages: 1 -->
<svg width="380pt" height="146pt"
 viewBox="0.00 0.00 380.00 146.00" xmlns="http://www.w3.org/2000/svg" xmlns:xlink="http://www.w3.org/1999/xlink">
<g id="graph1" class="graph" transform="scale(1 1) rotate(0) translate(4 142)">
<title>TransparentNode</title>
<polygon fill="white" stroke="white" points="-4,5 -4,-142 377,-142 377,5 -4,5"/>
<!-- Node1 -->
<g id="node1" class="node"><title>Node1</title>
<polygon fill="#bfbfbf" stroke="black" points="143.5,-58.5 143.5,-79.5 244.5,-79.5 244.5,-58.5 143.5,-58.5"/>
<text text-anchor="middle" x="194" y="-66.5" font-family="Helvetica,sans-Serif" font-size="10.00">TransparentNode</text>
</g>
<!-- Node3 -->
<g id="node5" class="node"><title>Node3</title>
<a xlink:href="classBannerAlerts.htm" target="_top" xlink:title="BannerAlerts">
<polygon fill="white" stroke="black" points="0,-0.5 0,-21.5 78,-21.5 78,-0.5 0,-0.5"/>
<text text-anchor="middle" x="39" y="-8.5" font-family="Helvetica,sans-Serif" font-size="10.00">BannerAlerts</text>
</a>
</g>
<!-- Node1&#45;&gt;Node3 -->
<g id="edge4" class="edge"><title>Node1&#45;&gt;Node3</title>
<path fill="none" stroke="midnightblue" d="M156.25,-54.8742C128.745,-44.5819 92.0795,-30.862 67.122,-21.5231"/>
<polygon fill="midnightblue" stroke="midnightblue" points="155.338,-58.27 165.931,-58.4966 157.792,-51.7139 155.338,-58.27"/>
</g>
<!-- Node4 -->
<g id="node7" class="node"><title>Node4</title>
<a xlink:href="classDashboardAlerts.htm" target="_top" xlink:title="DashboardAlerts">
<polygon fill="white" stroke="black" points="95.5,-0.5 95.5,-21.5 190.5,-21.5 190.5,-0.5 95.5,-0.5"/>
<text text-anchor="middle" x="143" y="-8.5" font-family="Helvetica,sans-Serif" font-size="10.00">DashboardAlerts</text>
</a>
</g>
<!-- Node1&#45;&gt;Node4 -->
<g id="edge6" class="edge"><title>Node1&#45;&gt;Node4</title>
<path fill="none" stroke="midnightblue" d="M178.023,-50.8299C169.562,-41.2078 159.468,-29.7282 152.295,-21.5707"/>
<polygon fill="midnightblue" stroke="midnightblue" points="175.414,-53.1634 184.646,-58.3619 180.671,-48.541 175.414,-53.1634"/>
</g>
<!-- Node5 -->
<g id="node9" class="node"><title>Node5</title>
<a xlink:href="classHelpWindow.htm" target="_top" xlink:title="HelpWindow">
<polygon fill="white" stroke="black" points="208,-0.5 208,-21.5 284,-21.5 284,-0.5 208,-0.5"/>
<text text-anchor="middle" x="246" y="-8.5" font-family="Helvetica,sans-Serif" font-size="10.00">HelpWindow</text>
</a>
</g>
<!-- Node1&#45;&gt;Node5 -->
<g id="edge8" class="edge"><title>Node1&#45;&gt;Node5</title>
<path fill="none" stroke="midnightblue" d="M210.29,-50.8299C218.917,-41.2078 229.209,-29.7282 236.523,-21.5707"/>
<polygon fill="midnightblue" stroke="midnightblue" points="207.607,-48.5798 203.538,-58.3619 212.819,-53.2526 207.607,-48.5798"/>
</g>
<!-- Node6 -->
<g id="node11" class="node"><title>Node6</title>
<a xlink:href="classPopUpAlert.htm" target="_top" xlink:title="PopUpAlert">
<polygon fill="white" stroke="black" points="301.5,-0.5 301.5,-21.5 372.5,-21.5 372.5,-0.5 301.5,-0.5"/>
<text text-anchor="middle" x="337" y="-8.5" font-family="Helvetica,sans-Serif" font-size="10.00">PopUpAlert</text>
</a>
</g>
<!-- Node1&#45;&gt;Node6 -->
<g id="edge10" class="edge"><title>Node1&#45;&gt;Node6</title>
<path fill="none" stroke="midnightblue" d="M229.466,-54.6153C254.679,-44.3889 287.987,-30.8796 310.813,-21.6212"/>
<polygon fill="midnightblue" stroke="midnightblue" points="227.847,-51.4946 219.896,-58.4966 230.479,-57.9814 227.847,-51.4946"/>
</g>
<!-- Node2 -->
<g id="node2" class="node"><title>Node2</title>
<a xlink:href="classQGraphicsObject.htm" target="_top" xlink:title="QGraphicsObject">
<polygon fill="white" stroke="black" points="145,-116.5 145,-137.5 243,-137.5 243,-116.5 145,-116.5"/>
<text text-anchor="middle" x="194" y="-124.5" font-family="Helvetica,sans-Serif" font-size="10.00">QGraphicsObject</text>
</a>
</g>
<!-- Node2&#45;&gt;Node1 -->
<g id="edge2" class="edge"><title>Node2&#45;&gt;Node1</title>
<path fill="none" stroke="midnightblue" d="M194,-106.191C194,-97.1684 194,-86.9941 194,-79.5707"/>
<polygon fill="midnightblue" stroke="midnightblue" points="190.5,-106.362 194,-116.362 197.5,-106.362 190.5,-106.362"/>
</g>
</g>
</svg>
