<?xml version="1.0" encoding="UTF-8" standalone="no"?>
<!DOCTYPE svg PUBLIC "-//W3C//DTD SVG 1.1//EN"
 "http://www.w3.org/Graphics/SVG/1.1/DTD/svg11.dtd">
<!-- Generated by graphviz version 2.26.3 (20100126.1600)
 -->
<!-- Title: InputItem Pages: 1 -->
<svg width="278pt" height="88pt"
 viewBox="0.00 0.00 278.00 88.00" xmlns="http://www.w3.org/2000/svg" xmlns:xlink="http://www.w3.org/1999/xlink">
<g id="graph1" class="graph" transform="scale(1 1) rotate(0) translate(4 84)">
<title>InputItem</title>
<polygon fill="white" stroke="white" points="-4,5 -4,-84 275,-84 275,5 -4,5"/>
<!-- Node1 -->
<g id="node1" class="node"><title>Node1</title>
<polygon fill="#bfbfbf" stroke="black" points="91,-0.5 91,-21.5 151,-21.5 151,-0.5 91,-0.5"/>
<text text-anchor="middle" x="121" y="-8.5" font-family="Helvetica,sans-Serif" font-size="10.00">InputItem</text>
</g>
<!-- Node2 -->
<g id="node2" class="node"><title>Node2</title>
<a xlink:href="classQQuickItem.htm" target="_top" xlink:title="QQuickItem">
<polygon fill="white" stroke="black" points="-0.5,-58.5 -0.5,-79.5 70.5,-79.5 70.5,-58.5 -0.5,-58.5"/>
<text text-anchor="middle" x="35" y="-66.5" font-family="Helvetica,sans-Serif" font-size="10.00">QQuickItem</text>
</a>
</g>
<!-- Node2&#45;&gt;Node1 -->
<g id="edge2" class="edge"><title>Node2&#45;&gt;Node1</title>
<path fill="none" stroke="midnightblue" d="M59.4051,-52.5407C74.1488,-42.5973 92.5048,-30.2177 105.326,-21.5707"/>
<polygon fill="midnightblue" stroke="midnightblue" points="57.1075,-49.8687 50.7737,-58.3619 61.0215,-55.6722 57.1075,-49.8687"/>
</g>
<!-- Node3 -->
<g id="node4" class="node"><title>Node3</title>
<a xlink:href="classInputClient.htm" target="_top" xlink:title="InputClient">
<polygon fill="white" stroke="black" points="87.5,-58.5 87.5,-79.5 154.5,-79.5 154.5,-58.5 87.5,-58.5"/>
<text text-anchor="middle" x="121" y="-66.5" font-family="Helvetica,sans-Serif" font-size="10.00">InputClient</text>
</a>
</g>
<!-- Node3&#45;&gt;Node1 -->
<g id="edge4" class="edge"><title>Node3&#45;&gt;Node1</title>
<path fill="none" stroke="midnightblue" d="M114.495,-48.1906C113.941,-39.1684 114.326,-28.9941 115.648,-21.5707"/>
<polygon fill="midnightblue" stroke="midnightblue" points="111.043,-48.8143 115.636,-58.3619 118,-48.0341 111.043,-48.8143"/>
</g>
<!-- Node3&#45;&gt;Node1 -->
<g id="edge8" class="edge"><title>Node3&#45;&gt;Node1</title>
<path fill="none" stroke="midnightblue" d="M127.505,-48.1906C128.059,-39.1684 127.674,-28.9941 126.352,-21.5707"/>
<polygon fill="midnightblue" stroke="midnightblue" points="124,-48.0341 126.364,-58.3619 130.957,-48.8143 124,-48.0341"/>
</g>
<!-- Node4 -->
<g id="node6" class="node"><title>Node4</title>
<a xlink:href="classQDeclarativeItem.htm" target="_top" xlink:title="QDeclarativeItem">
<polygon fill="white" stroke="black" points="172,-58.5 172,-79.5 270,-79.5 270,-58.5 172,-58.5"/>
<text text-anchor="middle" x="221" y="-66.5" font-family="Helvetica,sans-Serif" font-size="10.00">QDeclarativeItem</text>
</a>
</g>
<!-- Node4&#45;&gt;Node1 -->
<g id="edge6" class="edge"><title>Node4&#45;&gt;Node1</title>
<path fill="none" stroke="midnightblue" d="M193.588,-53.1009C176.286,-43.0658 154.415,-30.3808 139.225,-21.5707"/>
<polygon fill="midnightblue" stroke="midnightblue" points="192.252,-56.3723 202.658,-58.3619 195.764,-50.3171 192.252,-56.3723"/>
</g>
</g>
</svg>
