<?xml version="1.0" encoding="UTF-8" standalone="no"?>
<!DOCTYPE svg PUBLIC "-//W3C//DTD SVG 1.1//EN"
 "http://www.w3.org/Graphics/SVG/1.1/DTD/svg11.dtd">
<!-- Generated by graphviz version 2.26.3 (20100126.1600)
 -->
<!-- Title: DashboardWindow Pages: 1 -->
<svg width="302pt" height="204pt"
 viewBox="0.00 0.00 302.00 204.00" xmlns="http://www.w3.org/2000/svg" xmlns:xlink="http://www.w3.org/1999/xlink">
<g id="graph1" class="graph" transform="scale(1 1) rotate(0) translate(4 200)">
<title>DashboardWindow</title>
<polygon fill="white" stroke="white" points="-4,5 -4,-200 299,-200 299,5 -4,5"/>
<!-- Node1 -->
<g id="node1" class="node"><title>Node1</title>
<polygon fill="#bfbfbf" stroke="black" points="99,-0.5 99,-21.5 205,-21.5 205,-0.5 99,-0.5"/>
<text text-anchor="middle" x="152" y="-8.5" font-family="Helvetica,sans-Serif" font-size="10.00">DashboardWindow</text>
</g>
<!-- Node2 -->
<g id="node2" class="node"><title>Node2</title>
<a xlink:href="classHostWindow.htm" target="_top" xlink:title="HostWindow">
<polygon fill="white" stroke="black" points="114,-58.5 114,-79.5 190,-79.5 190,-58.5 114,-58.5"/>
<text text-anchor="middle" x="152" y="-66.5" font-family="Helvetica,sans-Serif" font-size="10.00">HostWindow</text>
</a>
</g>
<!-- Node2&#45;&gt;Node1 -->
<g id="edge2" class="edge"><title>Node2&#45;&gt;Node1</title>
<path fill="none" stroke="midnightblue" d="M152,-48.1906C152,-39.1684 152,-28.9941 152,-21.5707"/>
<polygon fill="midnightblue" stroke="midnightblue" points="148.5,-48.3619 152,-58.3619 155.5,-48.3619 148.5,-48.3619"/>
</g>
<!-- Node3 -->
<g id="node4" class="node"><title>Node3</title>
<a xlink:href="classWindow.htm" target="_top" xlink:title="Window">
<polygon fill="white" stroke="black" points="22,-116.5 22,-137.5 76,-137.5 76,-116.5 22,-116.5"/>
<text text-anchor="middle" x="49" y="-124.5" font-family="Helvetica,sans-Serif" font-size="10.00">Window</text>
</a>
</g>
<!-- Node3&#45;&gt;Node2 -->
<g id="edge4" class="edge"><title>Node3&#45;&gt;Node2</title>
<path fill="none" stroke="midnightblue" d="M76.7408,-111.379C94.6378,-101.301 117.437,-88.4624 133.228,-79.5707"/>
<polygon fill="midnightblue" stroke="midnightblue" points="74.888,-108.405 67.8918,-116.362 78.3226,-114.505 74.888,-108.405"/>
</g>
<!-- Node4 -->
<g id="node6" class="node"><title>Node4</title>
<a xlink:href="classQGraphicsObject.htm" target="_top" xlink:title="QGraphicsObject">
<polygon fill="white" stroke="black" points="0,-174.5 0,-195.5 98,-195.5 98,-174.5 0,-174.5"/>
<text text-anchor="middle" x="49" y="-182.5" font-family="Helvetica,sans-Serif" font-size="10.00">QGraphicsObject</text>
</a>
</g>
<!-- Node4&#45;&gt;Node3 -->
<g id="edge6" class="edge"><title>Node4&#45;&gt;Node3</title>
<path fill="none" stroke="midnightblue" d="M49,-164.191C49,-155.168 49,-144.994 49,-137.571"/>
<polygon fill="midnightblue" stroke="midnightblue" points="45.5001,-164.362 49,-174.362 52.5001,-164.362 45.5001,-164.362"/>
</g>
<!-- Node5 -->
<g id="node8" class="node"><title>Node5</title>
<a xlink:href="classPIpcChannelListener.htm" target="_top" xlink:title="PIpcChannelListener">
<polygon fill="white" stroke="black" points="94,-116.5 94,-137.5 210,-137.5 210,-116.5 94,-116.5"/>
<text text-anchor="middle" x="152" y="-124.5" font-family="Helvetica,sans-Serif" font-size="10.00">PIpcChannelListener</text>
</a>
</g>
<!-- Node5&#45;&gt;Node2 -->
<g id="edge8" class="edge"><title>Node5&#45;&gt;Node2</title>
<path fill="none" stroke="midnightblue" d="M152,-106.191C152,-97.1684 152,-86.9941 152,-79.5707"/>
<polygon fill="midnightblue" stroke="midnightblue" points="148.5,-106.362 152,-116.362 155.5,-106.362 148.5,-106.362"/>
</g>
<!-- Node6 -->
<g id="node10" class="node"><title>Node6</title>
<a xlink:href="classInputClient.htm" target="_top" xlink:title="InputClient">
<polygon fill="white" stroke="black" points="227.5,-116.5 227.5,-137.5 294.5,-137.5 294.5,-116.5 227.5,-116.5"/>
<text text-anchor="middle" x="261" y="-124.5" font-family="Helvetica,sans-Serif" font-size="10.00">InputClient</text>
</a>
</g>
<!-- Node6&#45;&gt;Node2 -->
<g id="edge10" class="edge"><title>Node6&#45;&gt;Node2</title>
<path fill="none" stroke="midnightblue" d="M232.423,-111.794C213.406,-101.675 188.898,-88.6338 171.961,-79.6212"/>
<polygon fill="midnightblue" stroke="midnightblue" points="230.789,-114.889 241.261,-116.497 234.077,-108.709 230.789,-114.889"/>
</g>
</g>
</svg>
