<?xml version="1.0" encoding="UTF-8" standalone="no"?>
<!DOCTYPE svg PUBLIC "-//W3C//DTD SVG 1.1//EN"
 "http://www.w3.org/Graphics/SVG/1.1/DTD/svg11.dtd">
<!-- Generated by graphviz version 2.26.3 (20100126.1600)
 -->
<!-- Title: DemoGoggles4 Pages: 1 -->
<svg width="491pt" height="258pt"
 viewBox="0.00 0.00 491.00 258.00" xmlns="http://www.w3.org/2000/svg" xmlns:xlink="http://www.w3.org/1999/xlink">
<g id="graph1" class="graph" transform="scale(1 1) rotate(0) translate(4 254)">
<title>DemoGoggles4</title>
<polygon fill="white" stroke="white" points="-4,5 -4,-254 488,-254 488,5 -4,5"/>
<!-- Node1 -->
<g id="node1" class="node"><title>Node1</title>
<polygon fill="#bfbfbf" stroke="black" points="125,-0.5 125,-21.5 215,-21.5 215,-0.5 125,-0.5"/>
<text text-anchor="middle" x="170" y="-8.5" font-family="Helvetica,sans-Serif" font-size="10.00">DemoGoggles4</text>
</g>
<!-- Node2 -->
<g id="node2" class="node"><title>Node2</title>
<a xlink:href="classThingPaintable.htm" target="_top" xlink:title="ThingPaintable">
<polygon fill="white" stroke="black" points="126.5,-72.5 126.5,-93.5 213.5,-93.5 213.5,-72.5 126.5,-72.5"/>
<text text-anchor="middle" x="170" y="-80.5" font-family="Helvetica,sans-Serif" font-size="10.00">ThingPaintable</text>
</a>
</g>
<!-- Node2&#45;&gt;Node1 -->
<g id="edge2" class="edge"><title>Node2&#45;&gt;Node1</title>
<path fill="none" stroke="midnightblue" d="M170,-62.2348C170,-48.969 170,-32.3188 170,-21.6674"/>
<polygon fill="midnightblue" stroke="midnightblue" points="166.5,-62.3761 170,-72.3762 173.5,-62.3762 166.5,-62.3761"/>
</g>
<!-- Node3 -->
<g id="node4" class="node"><title>Node3</title>
<a xlink:href="classThing.htm" target="_top" xlink:title="Thing">
<polygon fill="white" stroke="black" points="336,-156.5 336,-177.5 380,-177.5 380,-156.5 336,-156.5"/>
<text text-anchor="middle" x="358" y="-164.5" font-family="Helvetica,sans-Serif" font-size="10.00">Thing</text>
</a>
</g>
<!-- Node3&#45;&gt;Node2 -->
<g id="edge4" class="edge"><title>Node3&#45;&gt;Node2</title>
<path fill="none" stroke="midnightblue" d="M355.659,-146.282C353.214,-134.473 348.216,-120.397 338,-112 317.848,-95.4357 247.659,-98.7011 222,-94 219.277,-93.5011 216.478,-92.9681 213.659,-92.4158"/>
<polygon fill="midnightblue" stroke="midnightblue" points="352.22,-146.945 357.263,-156.263 359.132,-145.834 352.22,-146.945"/>
</g>
<!-- Node4 -->
<g id="node6" class="node"><title>Node4</title>
<a xlink:href="classQGraphicsObject.htm" target="_top" xlink:title="QGraphicsObject">
<polygon fill="white" stroke="black" points="249,-228.5 249,-249.5 347,-249.5 347,-228.5 249,-228.5"/>
<text text-anchor="middle" x="298" y="-236.5" font-family="Helvetica,sans-Serif" font-size="10.00">QGraphicsObject</text>
</a>
</g>
<!-- Node4&#45;&gt;Node3 -->
<g id="edge6" class="edge"><title>Node4&#45;&gt;Node3</title>
<path fill="none" stroke="midnightblue" d="M313.347,-220.584C324.676,-206.989 339.702,-188.958 349.11,-177.667"/>
<polygon fill="midnightblue" stroke="midnightblue" points="310.566,-218.453 306.853,-228.376 315.944,-222.935 310.566,-218.453"/>
</g>
<!-- Node5 -->
<g id="node8" class="node"><title>Node5</title>
<polygon fill="white" stroke="#bfbfbf" points="365,-228.5 365,-249.5 469,-249.5 469,-228.5 365,-228.5"/>
<text text-anchor="middle" x="417" y="-236.5" font-family="Helvetica,sans-Serif" font-size="10.00">QPointer&lt; Thing &gt;</text>
</g>
<!-- Node5&#45;&gt;Node3 -->
<g id="edge8" class="edge"><title>Node5&#45;&gt;Node3</title>
<path fill="none" stroke="#9a32cd" stroke-dasharray="5,2" d="M401.909,-220.584C390.768,-206.989 375.993,-188.958 366.741,-177.667"/>
<polygon fill="#9a32cd" stroke="#9a32cd" points="399.249,-222.86 408.294,-228.376 404.663,-218.423 399.249,-222.86"/>
<text text-anchor="middle" x="437.5" y="-200.5" font-family="Helvetica,sans-Serif" font-size="10.00"> m_qp_takerOwner</text>
</g>
<!-- Node6 -->
<g id="node10" class="node"><title>Node6</title>
<polygon fill="white" stroke="#bfbfbf" points="120.5,-156.5 120.5,-177.5 173.5,-177.5 173.5,-156.5 120.5,-156.5"/>
<text text-anchor="middle" x="147" y="-164.5" font-family="Helvetica,sans-Serif" font-size="10.00">QString</text>
</g>
<!-- Node6&#45;&gt;Node2 -->
<g id="edge10" class="edge"><title>Node6&#45;&gt;Node2</title>
<path fill="none" stroke="#9a32cd" stroke-dasharray="5,2" d="M144.355,-145.822C143.801,-135.371 144.28,-122.735 148,-112 150.359,-105.193 154.98,-98.6975 159.38,-93.5862"/>
<polygon fill="#9a32cd" stroke="#9a32cd" points="140.897,-146.456 145.256,-156.112 147.87,-145.845 140.897,-146.456"/>
<text text-anchor="middle" x="173" y="-122.5" font-family="Helvetica,sans-Serif" font-size="10.00"> m_uiState</text>
</g>
<!-- Node7 -->
<g id="node12" class="node"><title>Node7</title>
<polygon fill="white" stroke="#bfbfbf" points="-0.5,-156.5 -0.5,-177.5 52.5,-177.5 52.5,-156.5 -0.5,-156.5"/>
<text text-anchor="middle" x="26" y="-164.5" font-family="Helvetica,sans-Serif" font-size="10.00">QRectF</text>
</g>
<!-- Node7&#45;&gt;Node1 -->
<g id="edge18" class="edge"><title>Node7&#45;&gt;Node1</title>
<path fill="none" stroke="#9a32cd" stroke-dasharray="5,2" d="M17.4383,-146.844C10.1455,-126.229 3.00961,-94.1684 18,-72 41.7326,-36.9033 89.3305,-21.997 124.973,-15.6675"/>
<polygon fill="#9a32cd" stroke="#9a32cd" points="14.1843,-148.134 21.0421,-156.21 20.7173,-145.62 14.1843,-148.134"/>
<text text-anchor="middle" x="68" y="-80.5" font-family="Helvetica,sans-Serif" font-size="10.00"> m_sceneBgViewrect</text>
</g>
<!-- Node7&#45;&gt;Node2 -->
<g id="edge12" class="edge"><title>Node7&#45;&gt;Node2</title>
<path fill="none" stroke="#9a32cd" stroke-dasharray="5,2" d="M33.51,-146.853C38.8958,-135.048 47.2821,-120.779 59,-112 64.619,-107.79 97.7213,-99.4205 126.328,-92.7502"/>
<polygon fill="#9a32cd" stroke="#9a32cd" points="30.1511,-145.815 29.541,-156.392 36.614,-148.504 30.1511,-145.815"/>
<text text-anchor="middle" x="100" y="-129" font-family="Helvetica,sans-Serif" font-size="10.00"> m_boundingRect</text>
<text text-anchor="middle" x="100" y="-116" font-family="Helvetica,sans-Serif" font-size="10.00">m_geom</text>
</g>
<!-- Node8 -->
<g id="node14" class="node"><title>Node8</title>
<a xlink:href="classint.htm" target="_top" xlink:title="int">
<polygon fill="white" stroke="black" points="205.5,-156.5 205.5,-177.5 234.5,-177.5 234.5,-156.5 205.5,-156.5"/>
<text text-anchor="middle" x="220" y="-164.5" font-family="Helvetica,sans-Serif" font-size="10.00">int</text>
</a>
</g>
<!-- Node8&#45;&gt;Node2 -->
<g id="edge14" class="edge"><title>Node8&#45;&gt;Node2</title>
<path fill="none" stroke="#9a32cd" stroke-dasharray="5,2" d="M213.919,-146.49C210.218,-135.733 204.871,-122.621 198,-112 193.667,-105.301 187.64,-98.8177 182.288,-93.6861"/>
<polygon fill="#9a32cd" stroke="#9a32cd" points="210.675,-147.834 217.068,-156.282 217.339,-145.691 210.675,-147.834"/>
<text text-anchor="middle" x="272.5" y="-129" font-family="Helvetica,sans-Serif" font-size="10.00"> MagicTypePropertyValue</text>
<text text-anchor="middle" x="272.5" y="-116" font-family="Helvetica,sans-Serif" font-size="10.00">MagicTypePropertyKey</text>
</g>
<!-- Node9 -->
<g id="node16" class="node"><title>Node9</title>
<polygon fill="white" stroke="#bfbfbf" points="230.5,-72.5 230.5,-93.5 371.5,-93.5 371.5,-72.5 230.5,-72.5"/>
<text text-anchor="middle" x="301" y="-80.5" font-family="Helvetica,sans-Serif" font-size="10.00">QPointer&lt; PixmapObject &gt;</text>
</g>
<!-- Node9&#45;&gt;Node1 -->
<g id="edge16" class="edge"><title>Node9&#45;&gt;Node1</title>
<path fill="none" stroke="#9a32cd" stroke-dasharray="5,2" d="M272.615,-67.3994C247.461,-53.5738 211.405,-33.7568 189.409,-21.6674"/>
<polygon fill="#9a32cd" stroke="#9a32cd" points="271.221,-70.6267 281.67,-72.3762 274.593,-64.4922 271.221,-70.6267"/>
<text text-anchor="middle" x="304" y="-44.5" font-family="Helvetica,sans-Serif" font-size="10.00"> m_qp_backgroundPmo</text>
</g>
</g>
</svg>
