<?xml version="1.0" encoding="UTF-8" standalone="no"?>
<!DOCTYPE svg PUBLIC "-//W3C//DTD SVG 1.1//EN"
 "http://www.w3.org/Graphics/SVG/1.1/DTD/svg11.dtd">
<!-- Generated by graphviz version 2.26.3 (20100126.1600)
 -->
<!-- Title: PropertySettingSignalTransition Pages: 1 -->
<svg width="373pt" height="102pt"
 viewBox="0.00 0.00 373.00 102.00" xmlns="http://www.w3.org/2000/svg" xmlns:xlink="http://www.w3.org/1999/xlink">
<g id="graph1" class="graph" transform="scale(1 1) rotate(0) translate(4 98)">
<title>PropertySettingSignalTransition</title>
<polygon fill="white" stroke="white" points="-4,5 -4,-98 370,-98 370,5 -4,5"/>
<!-- Node1 -->
<g id="node1" class="node"><title>Node1</title>
<polygon fill="#bfbfbf" stroke="black" points="91.5,-0.5 91.5,-21.5 258.5,-21.5 258.5,-0.5 91.5,-0.5"/>
<text text-anchor="middle" x="175" y="-8.5" font-family="Helvetica,sans-Serif" font-size="10.00">PropertySettingSignalTransition</text>
</g>
<!-- Node2 -->
<g id="node2" class="node"><title>Node2</title>
<a xlink:href="classQSignalTransition.htm" target="_top" xlink:title="QSignalTransition">
<polygon fill="white" stroke="black" points="-0.5,-72.5 -0.5,-93.5 100.5,-93.5 100.5,-72.5 -0.5,-72.5"/>
<text text-anchor="middle" x="50" y="-80.5" font-family="Helvetica,sans-Serif" font-size="10.00">QSignalTransition</text>
</a>
</g>
<!-- Node2&#45;&gt;Node1 -->
<g id="edge2" class="edge"><title>Node2&#45;&gt;Node1</title>
<path fill="none" stroke="midnightblue" d="M77.4023,-67.2163C101.39,-53.3994 135.584,-33.7035 156.48,-21.6674"/>
<polygon fill="midnightblue" stroke="midnightblue" points="75.3626,-64.352 68.4442,-72.3762 78.8565,-70.4177 75.3626,-64.352"/>
</g>
<!-- Node3 -->
<g id="node4" class="node"><title>Node3</title>
<polygon fill="white" stroke="#bfbfbf" points="117.5,-72.5 117.5,-93.5 232.5,-93.5 232.5,-72.5 117.5,-72.5"/>
<text text-anchor="middle" x="175" y="-80.5" font-family="Helvetica,sans-Serif" font-size="10.00">QPointer&lt; QObject &gt;</text>
</g>
<!-- Node3&#45;&gt;Node1 -->
<g id="edge4" class="edge"><title>Node3&#45;&gt;Node1</title>
<path fill="none" stroke="#9a32cd" stroke-dasharray="5,2" d="M175,-62.2348C175,-48.969 175,-32.3188 175,-21.6674"/>
<polygon fill="#9a32cd" stroke="#9a32cd" points="171.5,-62.3761 175,-72.3762 178.5,-62.3762 171.5,-62.3761"/>
<text text-anchor="middle" x="222" y="-44.5" font-family="Helvetica,sans-Serif" font-size="10.00"> m_qp_targetObject</text>
</g>
<!-- Node4 -->
<g id="node6" class="node"><title>Node4</title>
<polygon fill="white" stroke="#bfbfbf" points="265.5,-72.5 265.5,-93.5 318.5,-93.5 318.5,-72.5 265.5,-72.5"/>
<text text-anchor="middle" x="292" y="-80.5" font-family="Helvetica,sans-Serif" font-size="10.00">QString</text>
</g>
<!-- Node4&#45;&gt;Node1 -->
<g id="edge6" class="edge"><title>Node4&#45;&gt;Node1</title>
<path fill="none" stroke="#9a32cd" stroke-dasharray="5,2" d="M285.566,-62.7042C282.1,-54.6439 277.052,-45.905 270,-40 260.084,-31.697 247.824,-25.77 235.445,-21.5394"/>
<polygon fill="#9a32cd" stroke="#9a32cd" points="282.367,-64.1419 289.143,-72.2865 288.925,-61.6939 282.367,-64.1419"/>
<text text-anchor="middle" x="322.5" y="-44.5" font-family="Helvetica,sans-Serif" font-size="10.00"> m_propertyName</text>
</g>
</g>
</svg>
