<?xml version="1.0" encoding="UTF-8" standalone="no"?>
<!DOCTYPE svg PUBLIC "-//W3C//DTD SVG 1.1//EN"
 "http://www.w3.org/Graphics/SVG/1.1/DTD/svg11.dtd">
<!-- Generated by graphviz version 2.26.3 (20100126.1600)
 -->
<!-- Title: IconRowAlpha Pages: 1 -->
<svg width="1028pt" height="330pt"
 viewBox="0.00 0.00 1028.00 330.00" xmlns="http://www.w3.org/2000/svg" xmlns:xlink="http://www.w3.org/1999/xlink">
<g id="graph1" class="graph" transform="scale(1 1) rotate(0) translate(4 326)">
<title>IconRowAlpha</title>
<polygon fill="white" stroke="white" points="-4,5 -4,-326 1025,-326 1025,5 -4,5"/>
<!-- Node1 -->
<g id="node1" class="node"><title>Node1</title>
<polygon fill="#bfbfbf" stroke="black" points="536.5,-0.5 536.5,-21.5 621.5,-21.5 621.5,-0.5 536.5,-0.5"/>
<text text-anchor="middle" x="579" y="-8.5" font-family="Helvetica,sans-Serif" font-size="10.00">IconRowAlpha</text>
</g>
<!-- Node2 -->
<g id="node2" class="node"><title>Node2</title>
<a xlink:href="classIconRow.htm" target="_top" xlink:title="IconRow">
<polygon fill="white" stroke="black" points="477,-72.5 477,-93.5 535,-93.5 535,-72.5 477,-72.5"/>
<text text-anchor="middle" x="506" y="-80.5" font-family="Helvetica,sans-Serif" font-size="10.00">IconRow</text>
</a>
</g>
<!-- Node2&#45;&gt;Node1 -->
<g id="edge2" class="edge"><title>Node2&#45;&gt;Node1</title>
<path fill="none" stroke="midnightblue" d="M523.896,-65.3488C537.764,-51.6714 556.521,-33.1709 568.184,-21.6674"/>
<polygon fill="midnightblue" stroke="midnightblue" points="521.433,-62.8621 516.771,-72.3762 526.349,-67.8459 521.433,-62.8621"/>
</g>
<!-- Node3 -->
<g id="node4" class="node"><title>Node3</title>
<a xlink:href="classLayoutItem.htm" target="_top" xlink:title="LayoutItem">
<polygon fill="white" stroke="black" points="0,-240.5 0,-261.5 68,-261.5 68,-240.5 0,-240.5"/>
<text text-anchor="middle" x="34" y="-248.5" font-family="Helvetica,sans-Serif" font-size="10.00">LayoutItem</text>
</a>
</g>
<!-- Node3&#45;&gt;Node2 -->
<g id="edge4" class="edge"><title>Node3&#45;&gt;Node2</title>
<path fill="none" stroke="midnightblue" d="M45.8029,-231.692C53.2746,-220.449 63.647,-206.472 75,-196 126.666,-148.342 142.472,-134.686 209,-112 258.035,-95.2789 411.727,-86.9843 476.621,-84.1556"/>
<polygon fill="midnightblue" stroke="midnightblue" points="42.6994,-230.049 40.251,-240.357 48.5932,-233.825 42.6994,-230.049"/>
</g>
<!-- Node5 -->
<g id="node8" class="node"><title>Node5</title>
<a xlink:href="classIconLayout.htm" target="_top" xlink:title="IconLayout">
<polygon fill="white" stroke="black" points="218,-156.5 218,-177.5 286,-177.5 286,-156.5 218,-156.5"/>
<text text-anchor="middle" x="252" y="-164.5" font-family="Helvetica,sans-Serif" font-size="10.00">IconLayout</text>
</a>
</g>
<!-- Node3&#45;&gt;Node5 -->
<g id="edge10" class="edge"><title>Node3&#45;&gt;Node5</title>
<path fill="none" stroke="midnightblue" d="M57.7958,-234.786C76.655,-222.585 104.06,-206.265 130,-196 158.644,-184.665 192.896,-177 217.805,-172.412"/>
<polygon fill="midnightblue" stroke="midnightblue" points="55.696,-231.978 49.268,-240.4 59.5451,-237.824 55.696,-231.978"/>
</g>
<!-- Node4 -->
<g id="node6" class="node"><title>Node4</title>
<a xlink:href="classQObject.htm" target="_top" xlink:title="QObject">
<polygon fill="white" stroke="black" points="6.5,-300.5 6.5,-321.5 61.5,-321.5 61.5,-300.5 6.5,-300.5"/>
<text text-anchor="middle" x="34" y="-308.5" font-family="Helvetica,sans-Serif" font-size="10.00">QObject</text>
</a>
</g>
<!-- Node4&#45;&gt;Node3 -->
<g id="edge6" class="edge"><title>Node4&#45;&gt;Node3</title>
<path fill="none" stroke="midnightblue" d="M34,-290.231C34,-280.592 34,-269.544 34,-261.634"/>
<polygon fill="midnightblue" stroke="midnightblue" points="30.5001,-290.273 34,-300.273 37.5001,-290.273 30.5001,-290.273"/>
</g>
<!-- Node5&#45;&gt;Node2 -->
<g id="edge8" class="edge"><title>Node5&#45;&gt;Node2</title>
<path fill="none" stroke="#9a32cd" stroke-dasharray="5,2" d="M288.679,-152.909C319.311,-141.339 364.236,-124.829 404,-112 428.354,-104.142 456.332,-96.2681 476.819,-90.7117"/>
<polygon fill="#9a32cd" stroke="#9a32cd" points="287.369,-149.663 279.26,-156.481 289.851,-156.208 287.369,-149.663"/>
<text text-anchor="middle" x="448" y="-122.5" font-family="Helvetica,sans-Serif" font-size="10.00"> m_p_layoutObject</text>
</g>
<!-- Node6 -->
<g id="node11" class="node"><title>Node6</title>
<polygon fill="white" stroke="#bfbfbf" points="85.5,-240.5 85.5,-261.5 140.5,-261.5 140.5,-240.5 85.5,-240.5"/>
<text text-anchor="middle" x="113" y="-248.5" font-family="Helvetica,sans-Serif" font-size="10.00">QPointF</text>
</g>
<!-- Node6&#45;&gt;Node2 -->
<g id="edge20" class="edge"><title>Node6&#45;&gt;Node2</title>
<path fill="none" stroke="#9a32cd" stroke-dasharray="5,2" d="M116.657,-230.289C119.222,-219.475 123.404,-206.373 130,-196 144.181,-173.698 150.899,-168.837 174,-156 236.595,-121.216 259.107,-127.592 329,-112 380.666,-100.474 441.766,-91.4674 476.987,-86.7171"/>
<polygon fill="#9a32cd" stroke="#9a32cd" points="113.215,-229.651 114.601,-240.155 120.067,-231.079 113.215,-229.651"/>
<text text-anchor="middle" x="191.5" y="-164.5" font-family="Helvetica,sans-Serif" font-size="10.00"> m_pos</text>
</g>
<!-- Node6&#45;&gt;Node5 -->
<g id="edge12" class="edge"><title>Node6&#45;&gt;Node5</title>
<path fill="none" stroke="#9a32cd" stroke-dasharray="5,2" d="M125.309,-231.727C133.767,-219.894 145.977,-205.278 160,-196 177.319,-184.541 199.445,-177.379 217.658,-173.04"/>
<polygon fill="#9a32cd" stroke="#9a32cd" points="122.343,-229.864 119.605,-240.099 128.128,-233.805 122.343,-229.864"/>
<text text-anchor="middle" x="177.5" y="-206.5" font-family="Helvetica,sans-Serif" font-size="10.00"> m_pos</text>
</g>
<!-- Node7 -->
<g id="node13" class="node"><title>Node7</title>
<polygon fill="white" stroke="#bfbfbf" points="449.5,-240.5 449.5,-261.5 502.5,-261.5 502.5,-240.5 449.5,-240.5"/>
<text text-anchor="middle" x="476" y="-248.5" font-family="Helvetica,sans-Serif" font-size="10.00">QRectF</text>
</g>
<!-- Node7&#45;&gt;Node2 -->
<g id="edge24" class="edge"><title>Node7&#45;&gt;Node2</title>
<path fill="none" stroke="#9a32cd" stroke-dasharray="5,2" d="M488.048,-231.665C489.596,-228.525 490.99,-225.239 492,-222 506.368,-175.923 506.858,-117.489 506.364,-93.7515"/>
<polygon fill="#9a32cd" stroke="#9a32cd" points="484.964,-230.009 483.175,-240.451 491.086,-233.404 484.964,-230.009"/>
<text text-anchor="middle" x="527" y="-164.5" font-family="Helvetica,sans-Serif" font-size="10.00"> m_geom</text>
</g>
<!-- Node7&#45;&gt;Node5 -->
<g id="edge14" class="edge"><title>Node7&#45;&gt;Node5</title>
<path fill="none" stroke="#9a32cd" stroke-dasharray="5,2" d="M458.675,-232.942C444.019,-217.844 424.673,-198.395 420,-196 397.216,-184.322 328.504,-175.184 286.343,-170.486"/>
<polygon fill="#9a32cd" stroke="#9a32cd" points="456.345,-235.567 465.81,-240.328 461.379,-230.704 456.345,-235.567"/>
<text text-anchor="middle" x="470" y="-206.5" font-family="Helvetica,sans-Serif" font-size="10.00"> m_geom</text>
</g>
<!-- Node8 -->
<g id="node15" class="node"><title>Node8</title>
<polygon fill="white" stroke="#bfbfbf" points="157.5,-240.5 157.5,-261.5 258.5,-261.5 258.5,-240.5 157.5,-240.5"/>
<text text-anchor="middle" x="208" y="-248.5" font-family="Helvetica,sans-Serif" font-size="10.00">QPointer&lt; Page &gt;</text>
</g>
<!-- Node8&#45;&gt;Node5 -->
<g id="edge16" class="edge"><title>Node8&#45;&gt;Node5</title>
<path fill="none" stroke="#9a32cd" stroke-dasharray="5,2" d="M200.624,-230.185C198.085,-219.342 197.159,-206.245 203,-196 207.554,-188.014 215.265,-182.003 223.24,-177.586"/>
<polygon fill="#9a32cd" stroke="#9a32cd" points="197.351,-231.467 203.509,-240.088 204.072,-229.508 197.351,-231.467"/>
<text text-anchor="middle" x="248" y="-206.5" font-family="Helvetica,sans-Serif" font-size="10.00"> m_qp_ownerPage</text>
</g>
<!-- Node9 -->
<g id="node17" class="node"><title>Node9</title>
<polygon fill="white" stroke="#bfbfbf" points="278,-240.5 278,-261.5 352,-261.5 352,-240.5 278,-240.5"/>
<text text-anchor="middle" x="315" y="-248.5" font-family="Helvetica,sans-Serif" font-size="10.00">QTransform</text>
</g>
<!-- Node9&#45;&gt;Node5 -->
<g id="edge18" class="edge"><title>Node9&#45;&gt;Node5</title>
<path fill="none" stroke="#9a32cd" stroke-dasharray="5,2" d="M309.934,-230.673C306.462,-219.613 301.012,-206.158 293,-196 287.277,-188.744 279.264,-182.525 271.838,-177.728"/>
<polygon fill="#9a32cd" stroke="#9a32cd" points="306.583,-231.688 312.675,-240.356 313.319,-229.781 306.583,-231.688"/>
<text text-anchor="middle" x="361.5" y="-213" font-family="Helvetica,sans-Serif" font-size="10.00"> m_pageToLayoutTran</text>
<text text-anchor="middle" x="361.5" y="-200" font-family="Helvetica,sans-Serif" font-size="10.00">m_layoutToPageTran</text>
</g>
<!-- Node10 -->
<g id="node20" class="node"><title>Node10</title>
<polygon fill="white" stroke="#bfbfbf" points="568,-156.5 568,-177.5 674,-177.5 674,-156.5 568,-156.5"/>
<text text-anchor="middle" x="621" y="-164.5" font-family="Helvetica,sans-Serif" font-size="10.00">QList&lt; IconCell * &gt;</text>
</g>
<!-- Node10&#45;&gt;Node2 -->
<g id="edge22" class="edge"><title>Node10&#45;&gt;Node2</title>
<path fill="none" stroke="#9a32cd" stroke-dasharray="5,2" d="M598.217,-150.358C575.094,-133.469 539.999,-107.834 520.447,-93.5523"/>
<polygon fill="#9a32cd" stroke="#9a32cd" points="596.295,-153.289 606.435,-156.361 600.424,-147.637 596.295,-153.289"/>
<text text-anchor="middle" x="607" y="-122.5" font-family="Helvetica,sans-Serif" font-size="10.00"> m_iconList</text>
</g>
<!-- Node11 -->
<g id="node23" class="node"><title>Node11</title>
<polygon fill="white" stroke="#bfbfbf" points="691.5,-156.5 691.5,-177.5 738.5,-177.5 738.5,-156.5 691.5,-156.5"/>
<text text-anchor="middle" x="715" y="-164.5" font-family="Helvetica,sans-Serif" font-size="10.00">QRect</text>
</g>
<!-- Node11&#45;&gt;Node2 -->
<g id="edge26" class="edge"><title>Node11&#45;&gt;Node2</title>
<path fill="none" stroke="#9a32cd" stroke-dasharray="5,2" d="M695.582,-149.487C680.822,-137.128 659.46,-121.193 638,-112 598.9,-95.2505 585.363,-103.924 544,-94 541.195,-93.327 538.288,-92.5787 535.387,-91.798"/>
<polygon fill="#9a32cd" stroke="#9a32cd" points="693.599,-152.398 703.461,-156.273 698.168,-147.095 693.599,-152.398"/>
<text text-anchor="middle" x="758" y="-122.5" font-family="Helvetica,sans-Serif" font-size="10.00"> m_lastPaintedPixmapTargetRect</text>
</g>
<!-- Node12 -->
<g id="node25" class="node"><title>Node12</title>
<polygon fill="white" stroke="#bfbfbf" points="861.5,-156.5 861.5,-177.5 912.5,-177.5 912.5,-156.5 861.5,-156.5"/>
<text text-anchor="middle" x="887" y="-164.5" font-family="Helvetica,sans-Serif" font-size="10.00">quint32</text>
</g>
<!-- Node12&#45;&gt;Node2 -->
<g id="edge28" class="edge"><title>Node12&#45;&gt;Node2</title>
<path fill="none" stroke="#9a32cd" stroke-dasharray="5,2" d="M876.302,-147.394C868.339,-134.909 856.232,-119.687 841,-112 781.971,-82.2079 609.155,-105.262 544,-94 541.158,-93.5087 538.225,-92.8825 535.308,-92.179"/>
<polygon fill="#9a32cd" stroke="#9a32cd" points="873.444,-149.435 881.566,-156.237 879.459,-145.854 873.444,-149.435"/>
<text text-anchor="middle" x="944.5" y="-129" font-family="Helvetica,sans-Serif" font-size="10.00"> m_spaceToUpperAdjacentRow</text>
<text text-anchor="middle" x="944.5" y="-116" font-family="Helvetica,sans-Serif" font-size="10.00">m_spaceToLowerAdjacentRow</text>
</g>
<!-- Node13 -->
<g id="node27" class="node"><title>Node13</title>
<polygon fill="white" stroke="#bfbfbf" points="552.5,-72.5 552.5,-93.5 605.5,-93.5 605.5,-72.5 552.5,-72.5"/>
<text text-anchor="middle" x="579" y="-80.5" font-family="Helvetica,sans-Serif" font-size="10.00">QString</text>
</g>
<!-- Node13&#45;&gt;Node1 -->
<g id="edge30" class="edge"><title>Node13&#45;&gt;Node1</title>
<path fill="none" stroke="#9a32cd" stroke-dasharray="5,2" d="M579,-62.2348C579,-48.969 579,-32.3188 579,-21.6674"/>
<polygon fill="#9a32cd" stroke="#9a32cd" points="575.5,-62.3761 579,-72.3762 582.5,-62.3762 575.5,-62.3761"/>
<text text-anchor="middle" x="627" y="-44.5" font-family="Helvetica,sans-Serif" font-size="10.00"> m_alphaDesignator</text>
</g>
<!-- Node14 -->
<g id="node29" class="node"><title>Node14</title>
<polygon fill="white" stroke="#bfbfbf" points="680,-72.5 680,-93.5 716,-93.5 716,-72.5 680,-72.5"/>
<text text-anchor="middle" x="698" y="-80.5" font-family="Helvetica,sans-Serif" font-size="10.00">bool</text>
</g>
<!-- Node14&#45;&gt;Node1 -->
<g id="edge32" class="edge"><title>Node14&#45;&gt;Node1</title>
<path fill="none" stroke="#9a32cd" stroke-dasharray="5,2" d="M691.583,-62.6842C688.119,-54.6206 683.069,-45.8846 676,-40 660.735,-27.293 640.047,-20.1536 621.697,-16.1424"/>
<polygon fill="#9a32cd" stroke="#9a32cd" points="688.384,-64.1236 695.154,-72.2733 694.944,-61.6805 688.384,-64.1236"/>
<text text-anchor="middle" x="720.5" y="-44.5" font-family="Helvetica,sans-Serif" font-size="10.00"> m_layoutSync</text>
</g>
</g>
</svg>
