<?xml version="1.0" encoding="UTF-8" standalone="no"?>
<!DOCTYPE svg PUBLIC "-//W3C//DTD SVG 1.1//EN"
 "http://www.w3.org/Graphics/SVG/1.1/DTD/svg11.dtd">
<!-- Generated by graphviz version 2.26.3 (20100126.1600)
 -->
<!-- Title: DimensionsUI Pages: 1 -->
<svg width="943pt" height="286pt"
 viewBox="0.00 0.00 943.00 286.00" xmlns="http://www.w3.org/2000/svg" xmlns:xlink="http://www.w3.org/1999/xlink">
<g id="graph1" class="graph" transform="scale(1 1) rotate(0) translate(4 282)">
<title>DimensionsUI</title>
<polygon fill="white" stroke="white" points="-4,5 -4,-282 940,-282 940,5 -4,5"/>
<!-- Node1 -->
<g id="node1" class="node"><title>Node1</title>
<polygon fill="#bfbfbf" stroke="black" points="589,-0.5 589,-21.5 671,-21.5 671,-0.5 589,-0.5"/>
<text text-anchor="middle" x="630" y="-8.5" font-family="Helvetica,sans-Serif" font-size="10.00">DimensionsUI</text>
</g>
<!-- Node2 -->
<g id="node2" class="node"><title>Node2</title>
<a xlink:href="classWindow.htm" target="_top" xlink:title="Window">
<polygon fill="white" stroke="black" points="415,-72.5 415,-93.5 469,-93.5 469,-72.5 415,-72.5"/>
<text text-anchor="middle" x="442" y="-80.5" font-family="Helvetica,sans-Serif" font-size="10.00">Window</text>
</a>
</g>
<!-- Node2&#45;&gt;Node1 -->
<g id="edge2" class="edge"><title>Node2&#45;&gt;Node1</title>
<path fill="none" stroke="midnightblue" d="M479.047,-68.8117C515.297,-54.9286 569.685,-34.0993 602.324,-21.5994"/>
<polygon fill="midnightblue" stroke="midnightblue" points="477.424,-65.6855 469.337,-72.5306 479.927,-72.2225 477.424,-65.6855"/>
</g>
<!-- Node3 -->
<g id="node4" class="node"><title>Node3</title>
<a xlink:href="classQGraphicsObject.htm" target="_top" xlink:title="QGraphicsObject">
<polygon fill="white" stroke="black" points="0,-196.5 0,-217.5 98,-217.5 98,-196.5 0,-196.5"/>
<text text-anchor="middle" x="49" y="-204.5" font-family="Helvetica,sans-Serif" font-size="10.00">QGraphicsObject</text>
</a>
</g>
<!-- Node3&#45;&gt;Node2 -->
<g id="edge4" class="edge"><title>Node3&#45;&gt;Node2</title>
<path fill="none" stroke="midnightblue" d="M66.2046,-189.233C89.0001,-166.942 131.544,-129.52 176,-112 219.003,-95.0523 355.884,-86.9293 414.707,-84.1523"/>
<polygon fill="midnightblue" stroke="midnightblue" points="63.6,-186.887 58.9944,-196.429 68.5449,-191.842 63.6,-186.887"/>
</g>
<!-- Node4 -->
<g id="node6" class="node"><title>Node4</title>
<a xlink:href="classApplicationDescription.htm" target="_top" xlink:title="ApplicationDescription">
<polygon fill="white" stroke="black" points="116,-196.5 116,-217.5 238,-217.5 238,-196.5 116,-196.5"/>
<text text-anchor="middle" x="177" y="-204.5" font-family="Helvetica,sans-Serif" font-size="10.00">ApplicationDescription</text>
</a>
</g>
<!-- Node4&#45;&gt;Node2 -->
<g id="edge6" class="edge"><title>Node4&#45;&gt;Node2</title>
<path fill="none" stroke="#9a32cd" stroke-dasharray="5,2" d="M178.282,-186.42C180.836,-164.366 188.438,-130.096 211,-112 226.647,-99.4503 356.913,-88.9267 414.642,-84.8325"/>
<polygon fill="#9a32cd" stroke="#9a32cd" points="174.793,-186.139 177.372,-196.415 181.765,-186.773 174.793,-186.139"/>
<text text-anchor="middle" x="241" y="-142.5" font-family="Helvetica,sans-Serif" font-size="10.00"> m_appDesc</text>
</g>
<!-- Node5 -->
<g id="node8" class="node"><title>Node5</title>
<a xlink:href="classApplicationDescriptionBase.htm" target="_top" xlink:title="ApplicationDescriptionBase">
<polygon fill="white" stroke="black" points="104,-256.5 104,-277.5 250,-277.5 250,-256.5 104,-256.5"/>
<text text-anchor="middle" x="177" y="-264.5" font-family="Helvetica,sans-Serif" font-size="10.00">ApplicationDescriptionBase</text>
</a>
</g>
<!-- Node5&#45;&gt;Node4 -->
<g id="edge8" class="edge"><title>Node5&#45;&gt;Node4</title>
<path fill="none" stroke="midnightblue" d="M177,-246.231C177,-236.592 177,-225.544 177,-217.634"/>
<polygon fill="midnightblue" stroke="midnightblue" points="173.5,-246.273 177,-256.273 180.5,-246.273 173.5,-246.273"/>
</g>
<!-- Node6 -->
<g id="node10" class="node"><title>Node6</title>
<polygon fill="white" stroke="#bfbfbf" points="255.5,-196.5 255.5,-217.5 296.5,-217.5 296.5,-196.5 255.5,-196.5"/>
<text text-anchor="middle" x="276" y="-204.5" font-family="Helvetica,sans-Serif" font-size="10.00">Type</text>
</g>
<!-- Node6&#45;&gt;Node2 -->
<g id="edge10" class="edge"><title>Node6&#45;&gt;Node2</title>
<path fill="none" stroke="#9a32cd" stroke-dasharray="5,2" d="M274.271,-186.343C273.68,-164.752 276.403,-131.374 296,-112 312.448,-95.739 377.275,-88.0397 414.784,-84.8792"/>
<polygon fill="#9a32cd" stroke="#9a32cd" points="270.781,-186.623 274.81,-196.422 277.771,-186.249 270.781,-186.623"/>
<text text-anchor="middle" x="315" y="-142.5" font-family="Helvetica,sans-Serif" font-size="10.00"> m_type</text>
</g>
<!-- Node7 -->
<g id="node12" class="node"><title>Node7</title>
<polygon fill="white" stroke="#bfbfbf" points="313.5,-196.5 313.5,-217.5 366.5,-217.5 366.5,-196.5 313.5,-196.5"/>
<text text-anchor="middle" x="340" y="-204.5" font-family="Helvetica,sans-Serif" font-size="10.00">QRectF</text>
</g>
<!-- Node7&#45;&gt;Node2 -->
<g id="edge12" class="edge"><title>Node7&#45;&gt;Node2</title>
<path fill="none" stroke="#9a32cd" stroke-dasharray="5,2" d="M337.773,-186.281C336.682,-165.143 338.427,-132.602 356,-112 363.771,-102.889 392.632,-94.3737 414.8,-88.9587"/>
<polygon fill="#9a32cd" stroke="#9a32cd" points="334.298,-186.738 338.561,-196.437 341.277,-186.197 334.298,-186.738"/>
<text text-anchor="middle" x="397" y="-142.5" font-family="Helvetica,sans-Serif" font-size="10.00"> m_visibleBounds</text>
</g>
<!-- Node8 -->
<g id="node14" class="node"><title>Node8</title>
<polygon fill="white" stroke="#bfbfbf" points="412.5,-196.5 412.5,-217.5 471.5,-217.5 471.5,-196.5 412.5,-196.5"/>
<text text-anchor="middle" x="442" y="-204.5" font-family="Helvetica,sans-Serif" font-size="10.00">QPixmap</text>
</g>
<!-- Node8&#45;&gt;Node2 -->
<g id="edge14" class="edge"><title>Node8&#45;&gt;Node2</title>
<path fill="none" stroke="#9a32cd" stroke-dasharray="5,2" d="M442,-186.241C442,-159.498 442,-114.022 442,-93.5454"/>
<polygon fill="#9a32cd" stroke="#9a32cd" points="438.5,-186.428 442,-196.428 445.5,-186.428 438.5,-186.428"/>
<text text-anchor="middle" x="484.5" y="-142.5" font-family="Helvetica,sans-Serif" font-size="10.00"> m_screenPixmap</text>
</g>
<!-- Node9 -->
<g id="node16" class="node"><title>Node9</title>
<polygon fill="white" stroke="#bfbfbf" points="523,-196.5 523,-217.5 577,-217.5 577,-196.5 523,-196.5"/>
<text text-anchor="middle" x="550" y="-204.5" font-family="Helvetica,sans-Serif" font-size="10.00">uint32_t</text>
</g>
<!-- Node9&#45;&gt;Node2 -->
<g id="edge16" class="edge"><title>Node9&#45;&gt;Node2</title>
<path fill="none" stroke="#9a32cd" stroke-dasharray="5,2" d="M550.731,-186.16C550.335,-164.924 546.412,-132.304 528,-112 525.91,-109.695 493.64,-99.1883 469.241,-91.4822"/>
<polygon fill="#9a32cd" stroke="#9a32cd" points="547.23,-186.347 550.666,-196.369 554.23,-186.392 547.23,-186.347"/>
<text text-anchor="middle" x="580.5" y="-149" font-family="Helvetica,sans-Serif" font-size="10.00"> m_bufWidth</text>
<text text-anchor="middle" x="580.5" y="-136" font-family="Helvetica,sans-Serif" font-size="10.00">m_bufHeight</text>
</g>
<!-- Node10 -->
<g id="node18" class="node"><title>Node10</title>
<a xlink:href="classint.htm" target="_top" xlink:title="int">
<polygon fill="white" stroke="black" points="617.5,-196.5 617.5,-217.5 646.5,-217.5 646.5,-196.5 617.5,-196.5"/>
<text text-anchor="middle" x="632" y="-204.5" font-family="Helvetica,sans-Serif" font-size="10.00">int</text>
</a>
</g>
<!-- Node10&#45;&gt;Node2 -->
<g id="edge18" class="edge"><title>Node10&#45;&gt;Node2</title>
<path fill="none" stroke="#9a32cd" stroke-dasharray="5,2" d="M629.908,-186.067C626.969,-161.186 620.739,-121.794 610,-112 588.125,-92.0514 506.917,-100.346 478,-94 475.064,-93.3556 472.02,-92.5876 469.003,-91.7612"/>
<polygon fill="#9a32cd" stroke="#9a32cd" points="626.463,-186.76 631.031,-196.32 633.421,-185.998 626.463,-186.76"/>
<text text-anchor="middle" x="664" y="-149" font-family="Helvetica,sans-Serif" font-size="10.00"> m_initialWidth</text>
<text text-anchor="middle" x="664" y="-136" font-family="Helvetica,sans-Serif" font-size="10.00">m_initialHeight</text>
</g>
<!-- Node11 -->
<g id="node20" class="node"><title>Node11</title>
<polygon fill="white" stroke="#bfbfbf" points="707,-196.5 707,-217.5 743,-217.5 743,-196.5 707,-196.5"/>
<text text-anchor="middle" x="725" y="-204.5" font-family="Helvetica,sans-Serif" font-size="10.00">bool</text>
</g>
<!-- Node11&#45;&gt;Node2 -->
<g id="edge20" class="edge"><title>Node11&#45;&gt;Node2</title>
<path fill="none" stroke="#9a32cd" stroke-dasharray="5,2" d="M723.034,-186.306C720.201,-161.343 714.057,-121.534 703,-112 665.011,-79.246 527.274,-103.384 478,-94 475.175,-93.4621 472.258,-92.7841 469.364,-92.0301"/>
<polygon fill="#9a32cd" stroke="#9a32cd" points="719.554,-186.686 724.079,-196.266 726.516,-185.955 719.554,-186.686"/>
<text text-anchor="middle" x="768.5" y="-149" font-family="Helvetica,sans-Serif" font-size="10.00"> m_removed</text>
<text text-anchor="middle" x="768.5" y="-136" font-family="Helvetica,sans-Serif" font-size="10.00">m_disableKeepAlive</text>
</g>
<!-- Node12 -->
<g id="node22" class="node"><title>Node12</title>
<polygon fill="white" stroke="#bfbfbf" points="821.5,-196.5 821.5,-217.5 864.5,-217.5 864.5,-196.5 821.5,-196.5"/>
<text text-anchor="middle" x="843" y="-204.5" font-family="Helvetica,sans-Serif" font-size="10.00">string</text>
</g>
<!-- Node12&#45;&gt;Node2 -->
<g id="edge22" class="edge"><title>Node12&#45;&gt;Node2</title>
<path fill="none" stroke="#9a32cd" stroke-dasharray="5,2" d="M844.513,-186.345C844.874,-164.225 841.556,-129.897 820,-112 790.723,-87.6924 515.474,-100.609 478,-94 475.168,-93.5006 472.246,-92.8479 469.349,-92.1094"/>
<polygon fill="#9a32cd" stroke="#9a32cd" points="841.015,-186.232 844.085,-196.373 848.008,-186.531 841.015,-186.232"/>
<text text-anchor="middle" x="889.5" y="-168.5" font-family="Helvetica,sans-Serif" font-size="10.00"> m_launchingAppId</text>
<text text-anchor="middle" x="889.5" y="-155.5" font-family="Helvetica,sans-Serif" font-size="10.00">m_processId</text>
<text text-anchor="middle" x="889.5" y="-142.5" font-family="Helvetica,sans-Serif" font-size="10.00">m_launchingProcId</text>
<text text-anchor="middle" x="889.5" y="-129.5" font-family="Helvetica,sans-Serif" font-size="10.00">m_appId</text>
<text text-anchor="middle" x="889.5" y="-116.5" font-family="Helvetica,sans-Serif" font-size="10.00">m_name</text>
</g>
<!-- Node13 -->
<g id="node24" class="node"><title>Node13</title>
<polygon fill="white" stroke="#bfbfbf" points="487,-72.5 487,-93.5 629,-93.5 629,-72.5 487,-72.5"/>
<text text-anchor="middle" x="558" y="-80.5" font-family="Helvetica,sans-Serif" font-size="10.00">QPointer&lt; DimensionsUI &gt;</text>
</g>
<!-- Node13&#45;&gt;Node1 -->
<g id="edge24" class="edge"><title>Node13&#45;&gt;Node1</title>
<path fill="none" stroke="#9a32cd" stroke-dasharray="5,2" d="M565.803,-63.1845C569.568,-55.3337 574.659,-46.6208 581,-40 588.111,-32.5751 597.531,-26.3968 606.21,-21.6776"/>
<polygon fill="#9a32cd" stroke="#9a32cd" points="562.553,-61.8809 561.75,-72.4452 568.966,-64.6877 562.553,-61.8809"/>
<text text-anchor="middle" x="635.5" y="-44.5" font-family="Helvetica,sans-Serif" font-size="10.00"> s_qp_primaryInstance</text>
</g>
<!-- Node14 -->
<g id="node26" class="node"><title>Node14</title>
<polygon fill="white" stroke="#bfbfbf" points="646.5,-72.5 646.5,-93.5 797.5,-93.5 797.5,-72.5 646.5,-72.5"/>
<text text-anchor="middle" x="722" y="-80.5" font-family="Helvetica,sans-Serif" font-size="10.00">QPointer&lt; LauncherObject &gt;</text>
</g>
<!-- Node14&#45;&gt;Node1 -->
<g id="edge26" class="edge"><title>Node14&#45;&gt;Node1</title>
<path fill="none" stroke="#9a32cd" stroke-dasharray="5,2" d="M710.626,-63.7681C705.149,-55.6819 698.026,-46.6327 690,-40 680.814,-32.4088 669.307,-26.2317 658.834,-21.5595"/>
<polygon fill="#9a32cd" stroke="#9a32cd" points="707.743,-65.7569 716.069,-72.3084 713.646,-61.9944 707.743,-65.7569"/>
<text text-anchor="middle" x="759" y="-44.5" font-family="Helvetica,sans-Serif" font-size="10.00"> s_qp_primaryLauncher</text>
</g>
<!-- Node15 -->
<g id="node28" class="node"><title>Node15</title>
<polygon fill="white" stroke="#bfbfbf" points="824.5,-72.5 824.5,-93.5 869.5,-93.5 869.5,-72.5 824.5,-72.5"/>
<text text-anchor="middle" x="847" y="-80.5" font-family="Helvetica,sans-Serif" font-size="10.00">QSize</text>
</g>
<!-- Node15&#45;&gt;Node1 -->
<g id="edge28" class="edge"><title>Node15&#45;&gt;Node1</title>
<path fill="none" stroke="#9a32cd" stroke-dasharray="5,2" d="M838.685,-63.2451C834.11,-54.7623 827.594,-45.5438 819,-40 795.219,-24.6587 719.279,-16.8888 671.206,-13.4099"/>
<polygon fill="#9a32cd" stroke="#9a32cd" points="835.541,-64.7824 843.032,-72.2747 841.848,-61.7462 835.541,-64.7824"/>
<text text-anchor="middle" x="865.5" y="-44.5" font-family="Helvetica,sans-Serif" font-size="10.00"> m_lastResize</text>
</g>
</g>
</svg>
