<?xml version="1.0" encoding="UTF-8" standalone="no"?>
<!DOCTYPE svg PUBLIC "-//W3C//DTD SVG 1.1//EN"
 "http://www.w3.org/Graphics/SVG/1.1/DTD/svg11.dtd">
<!-- Generated by graphviz version 2.26.3 (20100126.1600)
 -->
<!-- Title: OperationalSettings Pages: 1 -->
<svg width="565pt" height="244pt"
 viewBox="0.00 0.00 565.00 244.00" xmlns="http://www.w3.org/2000/svg" xmlns:xlink="http://www.w3.org/1999/xlink">
<g id="graph1" class="graph" transform="scale(1 1) rotate(0) translate(4 240)">
<title>OperationalSettings</title>
<polygon fill="white" stroke="white" points="-4,5 -4,-240 562,-240 562,5 -4,5"/>
<!-- Node1 -->
<g id="node1" class="node"><title>Node1</title>
<polygon fill="#bfbfbf" stroke="black" points="169,-0.5 169,-21.5 279,-21.5 279,-0.5 169,-0.5"/>
<text text-anchor="middle" x="224" y="-8.5" font-family="Helvetica,sans-Serif" font-size="10.00">OperationalSettings</text>
</g>
<!-- Node2 -->
<g id="node2" class="node"><title>Node2</title>
<polygon fill="white" stroke="#bfbfbf" points="-0.5,-214.5 -0.5,-235.5 52.5,-235.5 52.5,-214.5 -0.5,-214.5"/>
<text text-anchor="middle" x="26" y="-222.5" font-family="Helvetica,sans-Serif" font-size="10.00">QString</text>
</g>
<!-- Node2&#45;&gt;Node1 -->
<g id="edge2" class="edge"><title>Node2&#45;&gt;Node1</title>
<path fill="none" stroke="#9a32cd" stroke-dasharray="5,2" d="M20.9981,-204.574C13.0479,-166.645 2.45177,-85.1027 45,-40 53.5061,-30.9832 119.3,-22.0844 168.67,-16.5714"/>
<polygon fill="#9a32cd" stroke="#9a32cd" points="17.6113,-205.467 23.2214,-214.454 24.4406,-203.93 17.6113,-205.467"/>
<text text-anchor="middle" x="132.5" y="-174" font-family="Helvetica,sans-Serif" font-size="10.00"> appBlacklistFilepath</text>
<text text-anchor="middle" x="132.5" y="-161" font-family="Helvetica,sans-Serif" font-size="10.00">returnToDesignatorOnHide</text>
<text text-anchor="middle" x="132.5" y="-148" font-family="Helvetica,sans-Serif" font-size="10.00">settingsAppCategoryDesignator</text>
<text text-anchor="middle" x="132.5" y="-135" font-family="Helvetica,sans-Serif" font-size="10.00">appCatalogAppId</text>
<text text-anchor="middle" x="132.5" y="-122" font-family="Helvetica,sans-Serif" font-size="10.00">archiverExeFilename</text>
<text text-anchor="start" x="45" y="-109" font-family="Helvetica,sans-Serif" font-size="10.00">appKeywordsToPageDesignatorMap</text>
<text text-anchor="middle" x="132.5" y="-96" font-family="Helvetica,sans-Serif" font-size="10.00">Filepath</text>
<text text-anchor="middle" x="132.5" y="-83" font-family="Helvetica,sans-Serif" font-size="10.00">logDirPath</text>
<text text-anchor="middle" x="132.5" y="-70" font-family="Helvetica,sans-Serif" font-size="10.00">savedPagesDirectory</text>
<text text-anchor="middle" x="132.5" y="-57" font-family="Helvetica,sans-Serif" font-size="10.00">startOnPageDesignated</text>
</g>
<!-- Node3 -->
<g id="node4" class="node"><title>Node3</title>
<polygon fill="white" stroke="#bfbfbf" points="206,-214.5 206,-235.5 242,-235.5 242,-214.5 206,-214.5"/>
<text text-anchor="middle" x="224" y="-222.5" font-family="Helvetica,sans-Serif" font-size="10.00">bool</text>
</g>
<!-- Node3&#45;&gt;Node1 -->
<g id="edge4" class="edge"><title>Node3&#45;&gt;Node1</title>
<path fill="none" stroke="#9a32cd" stroke-dasharray="5,2" d="M224,-204.118C224,-159.309 224,-55.2822 224,-21.6763"/>
<polygon fill="#9a32cd" stroke="#9a32cd" points="220.5,-204.388 224,-214.388 227.5,-204.388 220.5,-204.388"/>
<text text-anchor="start" x="224" y="-187" font-family="Helvetica,sans-Serif" font-size="10.00"> debugArchiveLauncherSaves</text>
<text text-anchor="middle" x="316.5" y="-174" font-family="Helvetica,sans-Serif" font-size="10.00">OnLauncherInit</text>
<text text-anchor="middle" x="316.5" y="-161" font-family="Helvetica,sans-Serif" font-size="10.00">allowedToLaunchInReorderMode</text>
<text text-anchor="middle" x="316.5" y="-148" font-family="Helvetica,sans-Serif" font-size="10.00">preferAppKeywordsForAppPlacement</text>
<text text-anchor="middle" x="316.5" y="-135" font-family="Helvetica,sans-Serif" font-size="10.00">ignoreLegacyCustomizationFiles</text>
<text text-anchor="middle" x="316.5" y="-122" font-family="Helvetica,sans-Serif" font-size="10.00">useAllContentInsteadOfEmptyFavorites</text>
<text text-anchor="middle" x="316.5" y="-109" font-family="Helvetica,sans-Serif" font-size="10.00">useSingleQuicklaunchSaveFileName</text>
<text text-anchor="middle" x="316.5" y="-96" font-family="Helvetica,sans-Serif" font-size="10.00">useSingleMasterSaveFileName</text>
<text text-anchor="middle" x="316.5" y="-83" font-family="Helvetica,sans-Serif" font-size="10.00">forceFavoritesToAllContent</text>
<text text-anchor="middle" x="316.5" y="-70" font-family="Helvetica,sans-Serif" font-size="10.00">useStagedRendering</text>
<text text-anchor="middle" x="316.5" y="-57" font-family="Helvetica,sans-Serif" font-size="10.00">useApplicationManagerHiddenFlag</text>
<text text-anchor="middle" x="316.5" y="-44" font-family="Helvetica,sans-Serif" font-size="10.00">...</text>
</g>
<!-- Node4 -->
<g id="node6" class="node"><title>Node4</title>
<polygon fill="white" stroke="#bfbfbf" points="406.5,-214.5 406.5,-235.5 457.5,-235.5 457.5,-214.5 406.5,-214.5"/>
<text text-anchor="middle" x="432" y="-222.5" font-family="Helvetica,sans-Serif" font-size="10.00">quint32</text>
</g>
<!-- Node4&#45;&gt;Node1 -->
<g id="edge6" class="edge"><title>Node4&#45;&gt;Node1</title>
<path fill="none" stroke="#9a32cd" stroke-dasharray="5,2" d="M436.64,-204.501C443.925,-166.45 453.117,-84.712 410,-40 400.926,-30.5899 330.538,-21.6143 279.023,-16.2059"/>
<polygon fill="#9a32cd" stroke="#9a32cd" points="433.188,-203.913 434.591,-214.414 440.043,-205.33 433.188,-203.913"/>
<text text-anchor="middle" x="499.5" y="-135" font-family="Helvetica,sans-Serif" font-size="10.00"> favoritesPageIndex</text>
<text text-anchor="middle" x="499.5" y="-122" font-family="Helvetica,sans-Serif" font-size="10.00">systemAppsPageIndex</text>
<text text-anchor="middle" x="499.5" y="-109" font-family="Helvetica,sans-Serif" font-size="10.00">settingsPageIndex</text>
<text text-anchor="middle" x="499.5" y="-96" font-family="Helvetica,sans-Serif" font-size="10.00">installedAppsPageIndex</text>
</g>
</g>
</svg>
