<?xml version="1.0" encoding="UTF-8" standalone="no"?>
<!DOCTYPE svg PUBLIC "-//W3C//DTD SVG 1.1//EN"
 "http://www.w3.org/Graphics/SVG/1.1/DTD/svg11.dtd">
<!-- Generated by graphviz version 2.26.3 (20100126.1600)
 -->
<!-- Title: PixmapObject Pages: 1 -->
<svg width="352pt" height="270pt"
 viewBox="0.00 0.00 352.00 270.00" xmlns="http://www.w3.org/2000/svg" xmlns:xlink="http://www.w3.org/1999/xlink">
<g id="graph1" class="graph" transform="scale(1 1) rotate(0) translate(4 266)">
<title>PixmapObject</title>
<polygon fill="white" stroke="white" points="-4,5 -4,-266 349,-266 349,5 -4,5"/>
<!-- Node1 -->
<g id="node1" class="node"><title>Node1</title>
<polygon fill="#bfbfbf" stroke="black" points="92.5,-120.5 92.5,-141.5 173.5,-141.5 173.5,-120.5 92.5,-120.5"/>
<text text-anchor="middle" x="133" y="-128.5" font-family="Helvetica,sans-Serif" font-size="10.00">PixmapObject</text>
</g>
<!-- Node3 -->
<g id="node5" class="node"><title>Node3</title>
<a xlink:href="classPixmap3HTileObject.htm" target="_top" xlink:title="Pixmap3HTileObject">
<polygon fill="white" stroke="black" points="221,-240.5 221,-261.5 333,-261.5 333,-240.5 221,-240.5"/>
<text text-anchor="middle" x="277" y="-248.5" font-family="Helvetica,sans-Serif" font-size="10.00">Pixmap3HTileObject</text>
</a>
</g>
<!-- Node1&#45;&gt;Node3 -->
<g id="edge4" class="edge"><title>Node1&#45;&gt;Node3</title>
<path fill="none" stroke="midnightblue" d="M143.064,-150.532C155.706,-173.162 179.488,-210.02 210,-231 215.501,-234.783 221.732,-237.863 228.123,-240.369"/>
<polygon fill="midnightblue" stroke="midnightblue" points="146.028,-148.655 138.198,-141.517 139.868,-151.98 146.028,-148.655"/>
</g>
<!-- Node4 -->
<g id="node7" class="node"><title>Node4</title>
<a xlink:href="classPixmap3VTileObject.htm" target="_top" xlink:title="Pixmap3VTileObject">
<polygon fill="white" stroke="black" points="221.5,-200.5 221.5,-221.5 332.5,-221.5 332.5,-200.5 221.5,-200.5"/>
<text text-anchor="middle" x="277" y="-208.5" font-family="Helvetica,sans-Serif" font-size="10.00">Pixmap3VTileObject</text>
</a>
</g>
<!-- Node1&#45;&gt;Node4 -->
<g id="edge6" class="edge"><title>Node1&#45;&gt;Node4</title>
<path fill="none" stroke="midnightblue" d="M151.518,-148.673C166.319,-161.955 188.139,-179.73 210,-191 217.229,-194.727 225.263,-197.873 233.186,-200.487"/>
<polygon fill="midnightblue" stroke="midnightblue" points="153.795,-146.012 144.062,-141.826 149.06,-151.168 153.795,-146.012"/>
</g>
<!-- Node5 -->
<g id="node9" class="node"><title>Node5</title>
<a xlink:href="classPixmap9TileObject.htm" target="_top" xlink:title="Pixmap9TileObject">
<polygon fill="white" stroke="black" points="225,-160.5 225,-181.5 329,-181.5 329,-160.5 225,-160.5"/>
<text text-anchor="middle" x="277" y="-168.5" font-family="Helvetica,sans-Serif" font-size="10.00">Pixmap9TileObject</text>
</a>
</g>
<!-- Node1&#45;&gt;Node5 -->
<g id="edge8" class="edge"><title>Node1&#45;&gt;Node5</title>
<path fill="none" stroke="midnightblue" d="M180.486,-144.191C199.456,-149.46 221.003,-155.445 238.918,-160.422"/>
<polygon fill="midnightblue" stroke="midnightblue" points="181.406,-140.814 170.834,-141.51 179.533,-147.558 181.406,-140.814"/>
</g>
<!-- Node6 -->
<g id="node11" class="node"><title>Node6</title>
<a xlink:href="classPixmapFilmstripObject.htm" target="_top" xlink:title="PixmapFilmstripObject">
<polygon fill="white" stroke="black" points="217,-120.5 217,-141.5 337,-141.5 337,-120.5 217,-120.5"/>
<text text-anchor="middle" x="277" y="-128.5" font-family="Helvetica,sans-Serif" font-size="10.00">PixmapFilmstripObject</text>
</a>
</g>
<!-- Node1&#45;&gt;Node6 -->
<g id="edge10" class="edge"><title>Node1&#45;&gt;Node6</title>
<path fill="none" stroke="midnightblue" d="M183.884,-131C194.573,-131 205.943,-131 216.931,-131"/>
<polygon fill="midnightblue" stroke="midnightblue" points="183.879,-127.5 173.879,-131 183.879,-134.5 183.879,-127.5"/>
</g>
<!-- Node7 -->
<g id="node13" class="node"><title>Node7</title>
<a xlink:href="classPixmapHugeObject.htm" target="_top" xlink:title="PixmapHugeObject">
<polygon fill="white" stroke="black" points="224,-80.5 224,-101.5 330,-101.5 330,-80.5 224,-80.5"/>
<text text-anchor="middle" x="277" y="-88.5" font-family="Helvetica,sans-Serif" font-size="10.00">PixmapHugeObject</text>
</a>
</g>
<!-- Node1&#45;&gt;Node7 -->
<g id="edge12" class="edge"><title>Node1&#45;&gt;Node7</title>
<path fill="none" stroke="midnightblue" d="M180.486,-117.809C199.456,-112.54 221.003,-106.555 238.918,-101.578"/>
<polygon fill="midnightblue" stroke="midnightblue" points="179.533,-114.442 170.834,-120.49 181.406,-121.186 179.533,-114.442"/>
</g>
<!-- Node8 -->
<g id="node15" class="node"><title>Node8</title>
<a xlink:href="classPixmapJUPOCObject.htm" target="_top" xlink:title="PixmapJUPOCObject">
<polygon fill="white" stroke="black" points="219,-40.5 219,-61.5 335,-61.5 335,-40.5 219,-40.5"/>
<text text-anchor="middle" x="277" y="-48.5" font-family="Helvetica,sans-Serif" font-size="10.00">PixmapJUPOCObject</text>
</a>
</g>
<!-- Node1&#45;&gt;Node8 -->
<g id="edge14" class="edge"><title>Node1&#45;&gt;Node8</title>
<path fill="none" stroke="midnightblue" d="M151.518,-113.327C166.319,-100.045 188.139,-82.2703 210,-71 217.229,-67.273 225.263,-64.127 233.186,-61.513"/>
<polygon fill="midnightblue" stroke="midnightblue" points="149.06,-110.832 144.062,-120.174 153.795,-115.988 149.06,-110.832"/>
</g>
<!-- Node9 -->
<g id="node17" class="node"><title>Node9</title>
<a xlink:href="classPixmapJUPOCRefObject.htm" target="_top" xlink:title="PixmapJUPOCRefObject">
<polygon fill="white" stroke="black" points="210.5,-0.5 210.5,-21.5 343.5,-21.5 343.5,-0.5 210.5,-0.5"/>
<text text-anchor="middle" x="277" y="-8.5" font-family="Helvetica,sans-Serif" font-size="10.00">PixmapJUPOCRefObject</text>
</a>
</g>
<!-- Node1&#45;&gt;Node9 -->
<g id="edge16" class="edge"><title>Node1&#45;&gt;Node9</title>
<path fill="none" stroke="midnightblue" d="M143.064,-111.468C155.706,-88.8376 179.488,-51.9798 210,-31 215.501,-27.2172 221.732,-24.1367 228.123,-21.6312"/>
<polygon fill="midnightblue" stroke="midnightblue" points="139.868,-110.02 138.198,-120.483 146.028,-113.345 139.868,-110.02"/>
</g>
<!-- Node2 -->
<g id="node2" class="node"><title>Node2</title>
<a xlink:href="classQObject.htm" target="_top" xlink:title="QObject">
<polygon fill="white" stroke="black" points="0.5,-120.5 0.5,-141.5 55.5,-141.5 55.5,-120.5 0.5,-120.5"/>
<text text-anchor="middle" x="28" y="-128.5" font-family="Helvetica,sans-Serif" font-size="10.00">QObject</text>
</a>
</g>
<!-- Node2&#45;&gt;Node1 -->
<g id="edge2" class="edge"><title>Node2&#45;&gt;Node1</title>
<path fill="none" stroke="midnightblue" d="M65.7056,-131C74.2909,-131 83.4509,-131 92.16,-131"/>
<polygon fill="midnightblue" stroke="midnightblue" points="65.5875,-127.5 55.5875,-131 65.5875,-134.5 65.5875,-127.5"/>
</g>
</g>
</svg>
