<?xml version="1.0" encoding="UTF-8" standalone="no"?>
<!DOCTYPE svg PUBLIC "-//W3C//DTD SVG 1.1//EN"
 "http://www.w3.org/Graphics/SVG/1.1/DTD/svg11.dtd">
<!-- Generated by graphviz version 2.26.3 (20100126.1600)
 -->
<!-- Title: ScreenEdgeFlickEvent Pages: 1 -->
<svg width="228pt" height="162pt"
 viewBox="0.00 0.00 228.00 162.00" xmlns="http://www.w3.org/2000/svg" xmlns:xlink="http://www.w3.org/1999/xlink">
<g id="graph1" class="graph" transform="scale(1 1) rotate(0) translate(4 158)">
<title>ScreenEdgeFlickEvent</title>
<polygon fill="white" stroke="white" points="-4,5 -4,-158 225,-158 225,5 -4,5"/>
<!-- Node1 -->
<g id="node1" class="node"><title>Node1</title>
<polygon fill="#bfbfbf" stroke="black" points="35.5,-0.5 35.5,-21.5 158.5,-21.5 158.5,-0.5 35.5,-0.5"/>
<text text-anchor="middle" x="97" y="-8.5" font-family="Helvetica,sans-Serif" font-size="10.00">ScreenEdgeFlickEvent</text>
</g>
<!-- Node2 -->
<g id="node2" class="node"><title>Node2</title>
<a xlink:href="classSysMgrGestureEvent.htm" target="_top" xlink:title="SysMgrGestureEvent">
<polygon fill="white" stroke="black" points="38.5,-60.5 38.5,-81.5 155.5,-81.5 155.5,-60.5 38.5,-60.5"/>
<text text-anchor="middle" x="97" y="-68.5" font-family="Helvetica,sans-Serif" font-size="10.00">SysMgrGestureEvent</text>
</a>
</g>
<!-- Node2&#45;&gt;Node1 -->
<g id="edge2" class="edge"><title>Node2&#45;&gt;Node1</title>
<path fill="none" stroke="midnightblue" d="M97,-50.2312C97,-40.5922 97,-29.5444 97,-21.6339"/>
<polygon fill="midnightblue" stroke="midnightblue" points="93.5001,-50.2732 97,-60.2732 100.5,-50.2732 93.5001,-50.2732"/>
</g>
<!-- Node3 -->
<g id="node4" class="node"><title>Node3</title>
<a xlink:href="classQEvent.htm" target="_top" xlink:title="QEvent">
<polygon fill="white" stroke="black" points="0,-132.5 0,-153.5 52,-153.5 52,-132.5 0,-132.5"/>
<text text-anchor="middle" x="26" y="-140.5" font-family="Helvetica,sans-Serif" font-size="10.00">QEvent</text>
</a>
</g>
<!-- Node3&#45;&gt;Node2 -->
<g id="edge4" class="edge"><title>Node3&#45;&gt;Node2</title>
<path fill="none" stroke="midnightblue" d="M43.7819,-124.968C57.2307,-111.329 75.242,-93.0644 86.4807,-81.6674"/>
<polygon fill="midnightblue" stroke="midnightblue" points="41.0056,-122.798 36.4763,-132.376 45.9899,-127.713 41.0056,-122.798"/>
</g>
<!-- Node4 -->
<g id="node6" class="node"><title>Node4</title>
<polygon fill="white" stroke="#bfbfbf" points="69.5,-132.5 69.5,-153.5 124.5,-153.5 124.5,-132.5 69.5,-132.5"/>
<text text-anchor="middle" x="97" y="-140.5" font-family="Helvetica,sans-Serif" font-size="10.00">QPointF</text>
</g>
<!-- Node4&#45;&gt;Node2 -->
<g id="edge6" class="edge"><title>Node4&#45;&gt;Node2</title>
<path fill="none" stroke="#9a32cd" stroke-dasharray="5,2" d="M97,-122.235C97,-108.969 97,-92.3188 97,-81.6674"/>
<polygon fill="#9a32cd" stroke="#9a32cd" points="93.5001,-122.376 97,-132.376 100.5,-122.376 93.5001,-122.376"/>
<text text-anchor="middle" x="124.5" y="-104.5" font-family="Helvetica,sans-Serif" font-size="10.00"> m_hotSpot</text>
</g>
<!-- Node5 -->
<g id="node8" class="node"><title>Node5</title>
<polygon fill="white" stroke="#bfbfbf" points="141.5,-132.5 141.5,-153.5 220.5,-153.5 220.5,-132.5 141.5,-132.5"/>
<text text-anchor="middle" x="181" y="-140.5" font-family="Helvetica,sans-Serif" font-size="10.00">GestureState</text>
</g>
<!-- Node5&#45;&gt;Node2 -->
<g id="edge8" class="edge"><title>Node5&#45;&gt;Node2</title>
<path fill="none" stroke="#9a32cd" stroke-dasharray="5,2" d="M172.601,-123.204C168.487,-115.246 162.914,-106.448 156,-100 147.653,-92.2159 136.824,-86.088 126.726,-81.5103"/>
<polygon fill="#9a32cd" stroke="#9a32cd" points="169.453,-124.733 176.888,-132.28 175.782,-121.743 169.453,-124.733"/>
<text text-anchor="middle" x="187.5" y="-104.5" font-family="Helvetica,sans-Serif" font-size="10.00"> m_state</text>
</g>
</g>
</svg>
