<?xml version="1.0" encoding="UTF-8" standalone="no"?>
<!DOCTYPE svg PUBLIC "-//W3C//DTD SVG 1.1//EN"
 "http://www.w3.org/Graphics/SVG/1.1/DTD/svg11.dtd">
<!-- Generated by graphviz version 2.26.3 (20100126.1600)
 -->
<!-- Title: DimensionsSystemInterface::ExternalApp Pages: 1 -->
<svg width="324pt" height="142pt"
 viewBox="0.00 0.00 324.00 142.00" xmlns="http://www.w3.org/2000/svg" xmlns:xlink="http://www.w3.org/1999/xlink">
<g id="graph1" class="graph" transform="scale(1 1) rotate(0) translate(4 138)">
<title>DimensionsSystemInterface::ExternalApp</title>
<polygon fill="white" stroke="white" points="-4,5 -4,-138 321,-138 321,5 -4,5"/>
<!-- Node1 -->
<g id="node1" class="node"><title>Node1</title>
<polygon fill="#bfbfbf" stroke="black" points="50,-1 50,-35 198,-35 198,-1 50,-1"/>
<text text-anchor="start" x="58" y="-22" font-family="Helvetica,sans-Serif" font-size="10.00">DimensionsSystemInterface</text>
<text text-anchor="middle" x="124" y="-9" font-family="Helvetica,sans-Serif" font-size="10.00">::ExternalApp</text>
</g>
<!-- Node2 -->
<g id="node2" class="node"><title>Node2</title>
<a xlink:href="classQObject.htm" target="_top" xlink:title="QObject">
<polygon fill="white" stroke="black" points="-0.5,-112.5 -0.5,-133.5 54.5,-133.5 54.5,-112.5 -0.5,-112.5"/>
<text text-anchor="middle" x="27" y="-120.5" font-family="Helvetica,sans-Serif" font-size="10.00">QObject</text>
</a>
</g>
<!-- Node2&#45;&gt;Node1 -->
<g id="edge2" class="edge"><title>Node2&#45;&gt;Node1</title>
<path fill="none" stroke="midnightblue" d="M41.6336,-104.323C53.0118,-90.1203 69.4295,-70.3106 85,-54 91.1081,-47.6015 98.1196,-40.9394 104.498,-35.1112"/>
<polygon fill="midnightblue" stroke="midnightblue" points="38.7297,-102.351 35.2529,-112.359 44.212,-106.704 38.7297,-102.351"/>
</g>
<!-- Node3 -->
<g id="node4" class="node"><title>Node3</title>
<polygon fill="white" stroke="#bfbfbf" points="71.5,-112.5 71.5,-133.5 114.5,-133.5 114.5,-112.5 71.5,-112.5"/>
<text text-anchor="middle" x="93" y="-120.5" font-family="Helvetica,sans-Serif" font-size="10.00">Enum</text>
</g>
<!-- Node3&#45;&gt;Node1 -->
<g id="edge4" class="edge"><title>Node3&#45;&gt;Node1</title>
<path fill="none" stroke="#9a32cd" stroke-dasharray="5,2" d="M90.2167,-102.209C89.1417,-88.1619 89.3032,-69.4363 95,-54 97.5008,-47.2237 101.828,-40.7625 106.387,-35.2324"/>
<polygon fill="#9a32cd" stroke="#9a32cd" points="86.752,-102.731 91.2619,-112.318 93.7149,-102.012 86.752,-102.731"/>
<text text-anchor="middle" x="114" y="-71.5" font-family="Helvetica,sans-Serif" font-size="10.00"> m_type</text>
</g>
<!-- Node4 -->
<g id="node6" class="node"><title>Node4</title>
<polygon fill="white" stroke="#bfbfbf" points="132,-112.5 132,-133.5 178,-133.5 178,-112.5 132,-112.5"/>
<text text-anchor="middle" x="155" y="-120.5" font-family="Helvetica,sans-Serif" font-size="10.00">QUuid</text>
</g>
<!-- Node4&#45;&gt;Node1 -->
<g id="edge6" class="edge"><title>Node4&#45;&gt;Node1</title>
<path fill="none" stroke="#9a32cd" stroke-dasharray="5,2" d="M148.909,-102.37C143.116,-82.7486 134.502,-53.5725 129.072,-35.1807"/>
<polygon fill="#9a32cd" stroke="#9a32cd" points="145.611,-103.559 151.799,-112.159 152.324,-101.577 145.611,-103.559"/>
<text text-anchor="middle" x="160.5" y="-71.5" font-family="Helvetica,sans-Serif" font-size="10.00"> m_uid</text>
</g>
<!-- Node5 -->
<g id="node8" class="node"><title>Node5</title>
<polygon fill="white" stroke="#bfbfbf" points="196,-112.5 196,-133.5 232,-133.5 232,-112.5 196,-112.5"/>
<text text-anchor="middle" x="214" y="-120.5" font-family="Helvetica,sans-Serif" font-size="10.00">bool</text>
</g>
<!-- Node5&#45;&gt;Node1 -->
<g id="edge8" class="edge"><title>Node5&#45;&gt;Node1</title>
<path fill="none" stroke="#9a32cd" stroke-dasharray="5,2" d="M207.246,-102.438C201.659,-87.7266 192.594,-68.1108 180,-54 173.535,-46.7566 165.284,-40.3908 157.114,-35.1064"/>
<polygon fill="#9a32cd" stroke="#9a32cd" points="204.047,-103.888 210.699,-112.134 210.641,-101.539 204.047,-103.888"/>
<text text-anchor="middle" x="259.5" y="-84.5" font-family="Helvetica,sans-Serif" font-size="10.00"> m_stateBeingRemoved</text>
<text text-anchor="middle" x="259.5" y="-71.5" font-family="Helvetica,sans-Serif" font-size="10.00">m_stateBeingUpdated</text>
<text text-anchor="middle" x="259.5" y="-58.5" font-family="Helvetica,sans-Serif" font-size="10.00">m_stateFailed</text>
</g>
</g>
</svg>
