<?xml version="1.0" encoding="UTF-8" standalone="no"?>
<!DOCTYPE svg PUBLIC "-//W3C//DTD SVG 1.1//EN"
 "http://www.w3.org/Graphics/SVG/1.1/DTD/svg11.dtd">
<!-- Generated by graphviz version 2.26.3 (20100126.1600)
 -->
<!-- Title: PixButton2State Pages: 1 -->
<svg width="1624pt" height="386pt"
 viewBox="0.00 0.00 1624.00 386.00" xmlns="http://www.w3.org/2000/svg" xmlns:xlink="http://www.w3.org/1999/xlink">
<g id="graph1" class="graph" transform="scale(1 1) rotate(0) translate(4 382)">
<title>PixButton2State</title>
<polygon fill="white" stroke="white" points="-4,5 -4,-382 1621,-382 1621,5 -4,5"/>
<!-- Node1 -->
<g id="node1" class="node"><title>Node1</title>
<polygon fill="#bfbfbf" stroke="black" points="1219,-0.5 1219,-21.5 1311,-21.5 1311,-0.5 1219,-0.5"/>
<text text-anchor="middle" x="1265" y="-8.5" font-family="Helvetica,sans-Serif" font-size="10.00">PixButton2State</text>
</g>
<!-- Node2 -->
<g id="node2" class="node"><title>Node2</title>
<a xlink:href="classPixButton.htm" target="_top" xlink:title="PixButton">
<polygon fill="white" stroke="black" points="620.5,-100.5 620.5,-121.5 681.5,-121.5 681.5,-100.5 620.5,-100.5"/>
<text text-anchor="middle" x="651" y="-108.5" font-family="Helvetica,sans-Serif" font-size="10.00">PixButton</text>
</a>
</g>
<!-- Node2&#45;&gt;Node1 -->
<g id="edge2" class="edge"><title>Node2&#45;&gt;Node1</title>
<path fill="none" stroke="midnightblue" d="M691.896,-104.339C801.812,-86.4377 1103.1,-37.3683 1218.86,-18.5152"/>
<polygon fill="midnightblue" stroke="midnightblue" points="691.176,-100.91 681.869,-105.972 692.302,-107.819 691.176,-100.91"/>
</g>
<!-- Node3 -->
<g id="node4" class="node"><title>Node3</title>
<a xlink:href="classThingPaintable.htm" target="_top" xlink:title="ThingPaintable">
<polygon fill="white" stroke="black" points="130.5,-200.5 130.5,-221.5 217.5,-221.5 217.5,-200.5 130.5,-200.5"/>
<text text-anchor="middle" x="174" y="-208.5" font-family="Helvetica,sans-Serif" font-size="10.00">ThingPaintable</text>
</a>
</g>
<!-- Node3&#45;&gt;Node2 -->
<g id="edge4" class="edge"><title>Node3&#45;&gt;Node2</title>
<path fill="none" stroke="midnightblue" d="M189.041,-192.356C203.511,-175.919 226.981,-152.934 253,-142 286.544,-127.903 532.874,-116.074 620.316,-112.278"/>
<polygon fill="midnightblue" stroke="midnightblue" points="186.136,-190.369 182.328,-200.255 191.47,-194.901 186.136,-190.369"/>
</g>
<!-- Node4 -->
<g id="node6" class="node"><title>Node4</title>
<a xlink:href="classThing.htm" target="_top" xlink:title="Thing">
<polygon fill="white" stroke="black" points="86,-284.5 86,-305.5 130,-305.5 130,-284.5 86,-284.5"/>
<text text-anchor="middle" x="108" y="-292.5" font-family="Helvetica,sans-Serif" font-size="10.00">Thing</text>
</a>
</g>
<!-- Node4&#45;&gt;Node3 -->
<g id="edge6" class="edge"><title>Node4&#45;&gt;Node3</title>
<path fill="none" stroke="midnightblue" d="M122.686,-276.309C135.929,-259.454 154.932,-235.268 165.709,-221.552"/>
<polygon fill="midnightblue" stroke="midnightblue" points="119.785,-274.336 116.359,-284.361 125.289,-278.661 119.785,-274.336"/>
</g>
<!-- Node5 -->
<g id="node8" class="node"><title>Node5</title>
<a xlink:href="classQGraphicsObject.htm" target="_top" xlink:title="QGraphicsObject">
<polygon fill="white" stroke="black" points="0,-356.5 0,-377.5 98,-377.5 98,-356.5 0,-356.5"/>
<text text-anchor="middle" x="49" y="-364.5" font-family="Helvetica,sans-Serif" font-size="10.00">QGraphicsObject</text>
</a>
</g>
<!-- Node5&#45;&gt;Node4 -->
<g id="edge8" class="edge"><title>Node5&#45;&gt;Node4</title>
<path fill="none" stroke="midnightblue" d="M64.0908,-348.584C75.2316,-334.989 90.0067,-316.958 99.2586,-305.667"/>
<polygon fill="midnightblue" stroke="midnightblue" points="61.3367,-346.423 57.7057,-356.376 66.7511,-350.86 61.3367,-346.423"/>
</g>
<!-- Node6 -->
<g id="node10" class="node"><title>Node6</title>
<polygon fill="white" stroke="#bfbfbf" points="116,-356.5 116,-377.5 220,-377.5 220,-356.5 116,-356.5"/>
<text text-anchor="middle" x="168" y="-364.5" font-family="Helvetica,sans-Serif" font-size="10.00">QPointer&lt; Thing &gt;</text>
</g>
<!-- Node6&#45;&gt;Node4 -->
<g id="edge10" class="edge"><title>Node6&#45;&gt;Node4</title>
<path fill="none" stroke="#9a32cd" stroke-dasharray="5,2" d="M152.653,-348.584C141.324,-334.989 126.298,-316.958 116.89,-305.667"/>
<polygon fill="#9a32cd" stroke="#9a32cd" points="150.056,-350.935 159.147,-356.376 155.434,-346.453 150.056,-350.935"/>
<text text-anchor="middle" x="189.5" y="-328.5" font-family="Helvetica,sans-Serif" font-size="10.00"> m_qp_takerOwner</text>
</g>
<!-- Node7 -->
<g id="node12" class="node"><title>Node7</title>
<polygon fill="white" stroke="#bfbfbf" points="551.5,-284.5 551.5,-305.5 604.5,-305.5 604.5,-284.5 551.5,-284.5"/>
<text text-anchor="middle" x="578" y="-292.5" font-family="Helvetica,sans-Serif" font-size="10.00">QString</text>
</g>
<!-- Node7&#45;&gt;Node2 -->
<g id="edge24" class="edge"><title>Node7&#45;&gt;Node2</title>
<path fill="none" stroke="#9a32cd" stroke-dasharray="5,2" d="M590.352,-275.577C603.754,-253.663 624.856,-216.557 637,-182 644.248,-161.376 648.111,-135.987 649.842,-121.839"/>
<polygon fill="#9a32cd" stroke="#9a32cd" points="587.268,-273.91 584.963,-284.251 593.214,-277.604 587.268,-273.91"/>
<text text-anchor="middle" x="650" y="-208.5" font-family="Helvetica,sans-Serif" font-size="10.00"> m_label</text>
</g>
<!-- Node7&#45;&gt;Node3 -->
<g id="edge12" class="edge"><title>Node7&#45;&gt;Node3</title>
<path fill="none" stroke="#9a32cd" stroke-dasharray="5,2" d="M541.819,-281.517C506.234,-268.808 450.113,-250.231 400,-240 323.825,-224.449 302.805,-234.062 226,-222 223.265,-221.571 220.457,-221.091 217.631,-220.578"/>
<polygon fill="#9a32cd" stroke="#9a32cd" points="540.695,-284.832 551.289,-284.934 543.071,-278.248 540.695,-284.832"/>
<text text-anchor="middle" x="519" y="-250.5" font-family="Helvetica,sans-Serif" font-size="10.00"> m_uiState</text>
</g>
<!-- Node8 -->
<g id="node14" class="node"><title>Node8</title>
<polygon fill="white" stroke="#bfbfbf" points="147.5,-284.5 147.5,-305.5 200.5,-305.5 200.5,-284.5 147.5,-284.5"/>
<text text-anchor="middle" x="174" y="-292.5" font-family="Helvetica,sans-Serif" font-size="10.00">QRectF</text>
</g>
<!-- Node8&#45;&gt;Node3 -->
<g id="edge14" class="edge"><title>Node8&#45;&gt;Node3</title>
<path fill="none" stroke="#9a32cd" stroke-dasharray="5,2" d="M174,-273.945C174,-257.257 174,-234.639 174,-221.552"/>
<polygon fill="#9a32cd" stroke="#9a32cd" points="170.5,-274.361 174,-284.361 177.5,-274.361 170.5,-274.361"/>
<text text-anchor="middle" x="215" y="-257" font-family="Helvetica,sans-Serif" font-size="10.00"> m_boundingRect</text>
<text text-anchor="middle" x="215" y="-244" font-family="Helvetica,sans-Serif" font-size="10.00">m_geom</text>
</g>
<!-- Node9 -->
<g id="node16" class="node"><title>Node9</title>
<a xlink:href="classint.htm" target="_top" xlink:title="int">
<polygon fill="white" stroke="black" points="264.5,-284.5 264.5,-305.5 293.5,-305.5 293.5,-284.5 264.5,-284.5"/>
<text text-anchor="middle" x="279" y="-292.5" font-family="Helvetica,sans-Serif" font-size="10.00">int</text>
</a>
</g>
<!-- Node9&#45;&gt;Node3 -->
<g id="edge16" class="edge"><title>Node9&#45;&gt;Node3</title>
<path fill="none" stroke="#9a32cd" stroke-dasharray="5,2" d="M275.084,-274.139C271.953,-262.702 266.461,-249.051 257,-240 250.437,-233.722 232.041,-227.014 214.231,-221.633"/>
<polygon fill="#9a32cd" stroke="#9a32cd" points="271.749,-275.252 277.414,-284.205 278.568,-273.673 271.749,-275.252"/>
<text text-anchor="middle" x="334.5" y="-257" font-family="Helvetica,sans-Serif" font-size="10.00"> MagicTypePropertyValue</text>
<text text-anchor="middle" x="334.5" y="-244" font-family="Helvetica,sans-Serif" font-size="10.00">MagicTypePropertyKey</text>
</g>
<!-- Node10 -->
<g id="node18" class="node"><title>Node10</title>
<polygon fill="white" stroke="#bfbfbf" points="234.5,-200.5 234.5,-221.5 289.5,-221.5 289.5,-200.5 234.5,-200.5"/>
<text text-anchor="middle" x="262" y="-208.5" font-family="Helvetica,sans-Serif" font-size="10.00">QPointF</text>
</g>
<!-- Node10&#45;&gt;Node2 -->
<g id="edge18" class="edge"><title>Node10&#45;&gt;Node2</title>
<path fill="none" stroke="#9a32cd" stroke-dasharray="5,2" d="M257.425,-190.215C255.353,-174.751 255.648,-154.279 268,-142 292.809,-117.338 534.077,-112.278 620.443,-111.255"/>
<polygon fill="#9a32cd" stroke="#9a32cd" points="254.037,-191.158 259.214,-200.401 260.931,-189.947 254.037,-191.158"/>
<text text-anchor="middle" x="305.5" y="-159.5" font-family="Helvetica,sans-Serif" font-size="10.00"> m_labelPosICS</text>
</g>
<!-- Node11 -->
<g id="node20" class="node"><title>Node11</title>
<polygon fill="white" stroke="#bfbfbf" points="321,-200.5 321,-221.5 371,-221.5 371,-200.5 321,-200.5"/>
<text text-anchor="middle" x="346" y="-208.5" font-family="Helvetica,sans-Serif" font-size="10.00">QColor</text>
</g>
<!-- Node11&#45;&gt;Node2 -->
<g id="edge20" class="edge"><title>Node11&#45;&gt;Node2</title>
<path fill="none" stroke="#9a32cd" stroke-dasharray="5,2" d="M345.538,-190.154C346.401,-174.487 350.345,-153.775 364,-142 383.143,-125.493 550.363,-115.75 620.376,-112.362"/>
<polygon fill="#9a32cd" stroke="#9a32cd" points="342.033,-190.412 345.36,-200.471 349.032,-190.533 342.033,-190.412"/>
<text text-anchor="middle" x="409.5" y="-166" font-family="Helvetica,sans-Serif" font-size="10.00"> m_selectedColor</text>
<text text-anchor="middle" x="409.5" y="-153" font-family="Helvetica,sans-Serif" font-size="10.00">m_unselectedColor</text>
</g>
<!-- Node12 -->
<g id="node22" class="node"><title>Node12</title>
<polygon fill="white" stroke="#bfbfbf" points="421.5,-200.5 421.5,-221.5 498.5,-221.5 498.5,-200.5 421.5,-200.5"/>
<text text-anchor="middle" x="460" y="-208.5" font-family="Helvetica,sans-Serif" font-size="10.00">QTextLayout</text>
</g>
<!-- Node12&#45;&gt;Node2 -->
<g id="edge22" class="edge"><title>Node12&#45;&gt;Node2</title>
<path fill="none" stroke="#9a32cd" stroke-dasharray="5,2" d="M458.114,-190.283C457.922,-174.856 460.429,-154.399 473,-142 493.379,-121.9 575.164,-114.704 620.446,-112.228"/>
<polygon fill="#9a32cd" stroke="#9a32cd" points="454.627,-190.63 458.626,-200.441 461.618,-190.277 454.627,-190.63"/>
<text text-anchor="middle" x="521.5" y="-159.5" font-family="Helvetica,sans-Serif" font-size="10.00"> m_textLayoutObject</text>
</g>
<!-- Node13 -->
<g id="node25" class="node"><title>Node13</title>
<polygon fill="white" stroke="#bfbfbf" points="557,-200.5 557,-221.5 603,-221.5 603,-200.5 557,-200.5"/>
<text text-anchor="middle" x="580" y="-208.5" font-family="Helvetica,sans-Serif" font-size="10.00">QFont</text>
</g>
<!-- Node13&#45;&gt;Node2 -->
<g id="edge26" class="edge"><title>Node13&#45;&gt;Node2</title>
<path fill="none" stroke="#9a32cd" stroke-dasharray="5,2" d="M574.745,-190.034C572.32,-175.384 571.733,-156.016 581,-142 589.797,-128.696 605.727,-121.053 620.171,-116.687"/>
<polygon fill="#9a32cd" stroke="#9a32cd" points="571.382,-191.059 576.825,-200.15 578.239,-189.649 571.382,-191.059"/>
<text text-anchor="middle" x="609" y="-159.5" font-family="Helvetica,sans-Serif" font-size="10.00"> m_textFont</text>
</g>
<!-- Node14 -->
<g id="node27" class="node"><title>Node14</title>
<polygon fill="white" stroke="#bfbfbf" points="1064,-200.5 1064,-221.5 1100,-221.5 1100,-200.5 1064,-200.5"/>
<text text-anchor="middle" x="1082" y="-208.5" font-family="Helvetica,sans-Serif" font-size="10.00">bool</text>
</g>
<!-- Node14&#45;&gt;Node1 -->
<g id="edge42" class="edge"><title>Node14&#45;&gt;Node1</title>
<path fill="none" stroke="#9a32cd" stroke-dasharray="5,2" d="M1107.29,-194.08C1111.32,-190.481 1115.11,-186.418 1118,-182 1139.21,-149.622 1118.73,-129.657 1141,-98 1166.57,-61.6517 1212.42,-35.3794 1240.63,-21.7204"/>
<polygon fill="#9a32cd" stroke="#9a32cd" points="1105.03,-191.409 1099.42,-200.399 1109.41,-196.868 1105.03,-191.409"/>
<text text-anchor="middle" x="1176" y="-115" font-family="Helvetica,sans-Serif" font-size="10.00"> m_stateActive</text>
<text text-anchor="middle" x="1176" y="-102" font-family="Helvetica,sans-Serif" font-size="10.00">m_valid</text>
</g>
<!-- Node14&#45;&gt;Node2 -->
<g id="edge28" class="edge"><title>Node14&#45;&gt;Node2</title>
<path fill="none" stroke="#9a32cd" stroke-dasharray="5,2" d="M1054.69,-198.155C1047.09,-193.743 1039.22,-188.301 1033,-182 1018.59,-167.408 1027.29,-153.024 1010,-142 982.603,-124.534 763.246,-115 681.532,-112.027"/>
<polygon fill="#9a32cd" stroke="#9a32cd" points="1053.23,-201.348 1063.7,-203.016 1056.56,-195.187 1053.23,-201.348"/>
<text text-anchor="middle" x="1075.5" y="-159.5" font-family="Helvetica,sans-Serif" font-size="10.00"> m_trackingTouch</text>
</g>
<!-- Node15 -->
<g id="node29" class="node"><title>Node15</title>
<polygon fill="white" stroke="#bfbfbf" points="709,-200.5 709,-221.5 755,-221.5 755,-200.5 709,-200.5"/>
<text text-anchor="middle" x="732" y="-208.5" font-family="Helvetica,sans-Serif" font-size="10.00">qint32</text>
</g>
<!-- Node15&#45;&gt;Node2 -->
<g id="edge30" class="edge"><title>Node15&#45;&gt;Node2</title>
<path fill="none" stroke="#9a32cd" stroke-dasharray="5,2" d="M700.3,-194.937C694.758,-191.199 689.375,-186.866 685,-182 676.457,-172.497 662.253,-138.993 655.217,-121.622"/>
<polygon fill="#9a32cd" stroke="#9a32cd" points="698.67,-198.044 709.019,-200.312 702.343,-192.085 698.67,-198.044"/>
<text text-anchor="middle" x="736.5" y="-172.5" font-family="Helvetica,sans-Serif" font-size="10.00"> m_labelVerticalAdjust</text>
<text text-anchor="middle" x="736.5" y="-159.5" font-family="Helvetica,sans-Serif" font-size="10.00">m_touchCount</text>
<text text-anchor="middle" x="736.5" y="-146.5" font-family="Helvetica,sans-Serif" font-size="10.00">m_trackingTouchId</text>
</g>
<!-- Node16 -->
<g id="node31" class="node"><title>Node16</title>
<polygon fill="white" stroke="#bfbfbf" points="786.5,-200.5 786.5,-221.5 833.5,-221.5 833.5,-200.5 786.5,-200.5"/>
<text text-anchor="middle" x="810" y="-208.5" font-family="Helvetica,sans-Serif" font-size="10.00">QRect</text>
</g>
<!-- Node16&#45;&gt;Node2 -->
<g id="edge32" class="edge"><title>Node16&#45;&gt;Node2</title>
<path fill="none" stroke="#9a32cd" stroke-dasharray="5,2" d="M808.749,-190.234C806.697,-174.78 801.42,-154.311 788,-142 772.681,-127.946 716.997,-118.862 681.511,-114.361"/>
<polygon fill="#9a32cd" stroke="#9a32cd" points="805.288,-190.8 809.744,-200.412 812.254,-190.119 805.288,-190.8"/>
<text text-anchor="middle" x="852" y="-166" font-family="Helvetica,sans-Serif" font-size="10.00"> m_labelMaxGeom</text>
<text text-anchor="middle" x="852" y="-153" font-family="Helvetica,sans-Serif" font-size="10.00">m_labelGeom</text>
</g>
<!-- Node17 -->
<g id="node33" class="node"><title>Node17</title>
<polygon fill="white" stroke="#bfbfbf" points="896.5,-200.5 896.5,-221.5 945.5,-221.5 945.5,-200.5 896.5,-200.5"/>
<text text-anchor="middle" x="921" y="-208.5" font-family="Helvetica,sans-Serif" font-size="10.00">QPoint</text>
</g>
<!-- Node17&#45;&gt;Node2 -->
<g id="edge34" class="edge"><title>Node17&#45;&gt;Node2</title>
<path fill="none" stroke="#9a32cd" stroke-dasharray="5,2" d="M920.113,-190.114C918.265,-174.424 913.086,-153.703 899,-142 882.563,-128.344 744.563,-117.348 681.827,-113.005"/>
<polygon fill="#9a32cd" stroke="#9a32cd" points="916.654,-190.763 920.949,-200.448 923.631,-190.198 916.654,-190.763"/>
<text text-anchor="middle" x="963" y="-159.5" font-family="Helvetica,sans-Serif" font-size="10.00"> m_labelPosPntCS</text>
</g>
<!-- Node18 -->
<g id="node35" class="node"><title>Node18</title>
<polygon fill="white" stroke="#bfbfbf" points="1219.5,-100.5 1219.5,-121.5 1360.5,-121.5 1360.5,-100.5 1219.5,-100.5"/>
<text text-anchor="middle" x="1290" y="-108.5" font-family="Helvetica,sans-Serif" font-size="10.00">QPointer&lt; PixmapObject &gt;</text>
</g>
<!-- Node18&#45;&gt;Node1 -->
<g id="edge36" class="edge"><title>Node18&#45;&gt;Node1</title>
<path fill="none" stroke="#9a32cd" stroke-dasharray="5,2" d="M1272.46,-92.19C1269.82,-88.401 1267.49,-84.2641 1266,-80 1259.11,-60.3242 1261.13,-35.5189 1263.12,-21.6468"/>
<polygon fill="#9a32cd" stroke="#9a32cd" points="1269.94,-94.6498 1278.91,-100.296 1275.42,-90.2914 1269.94,-94.6498"/>
<text text-anchor="middle" x="1338" y="-70.5" font-family="Helvetica,sans-Serif" font-size="10.00"> m_qp_pixActive</text>
<text text-anchor="middle" x="1338" y="-57.5" font-family="Helvetica,sans-Serif" font-size="10.00">m_qp_pixNormal</text>
<text text-anchor="middle" x="1338" y="-44.5" font-family="Helvetica,sans-Serif" font-size="10.00">m_qp_currentlyRenderingPmo</text>
</g>
<!-- Node19 -->
<g id="node37" class="node"><title>Node19</title>
<polygon fill="white" stroke="#bfbfbf" points="1403,-100.5 1403,-121.5 1461,-121.5 1461,-100.5 1403,-100.5"/>
<text text-anchor="middle" x="1432" y="-108.5" font-family="Helvetica,sans-Serif" font-size="10.00">QState *</text>
</g>
<!-- Node19&#45;&gt;Node1 -->
<g id="edge38" class="edge"><title>Node19&#45;&gt;Node1</title>
<path fill="none" stroke="#9a32cd" stroke-dasharray="5,2" d="M1431.09,-90.2764C1429.25,-74.2478 1424.09,-52.7102 1410,-40 1395.65,-27.0618 1348.06,-19.3132 1311.27,-15.1241"/>
<polygon fill="#9a32cd" stroke="#9a32cd" points="1427.61,-90.6318 1431.91,-100.317 1434.59,-90.0669 1427.61,-90.6318"/>
<text text-anchor="middle" x="1471" y="-64" font-family="Helvetica,sans-Serif" font-size="10.00"> m_p_stateActive</text>
<text text-anchor="middle" x="1471" y="-51" font-family="Helvetica,sans-Serif" font-size="10.00">m_p_stateNormal</text>
</g>
<!-- Node20 -->
<g id="node39" class="node"><title>Node20</title>
<polygon fill="white" stroke="#bfbfbf" points="1490,-100.5 1490,-121.5 1588,-121.5 1588,-100.5 1490,-100.5"/>
<text text-anchor="middle" x="1539" y="-108.5" font-family="Helvetica,sans-Serif" font-size="10.00">QStateMachine *</text>
</g>
<!-- Node20&#45;&gt;Node1 -->
<g id="edge40" class="edge"><title>Node20&#45;&gt;Node1</title>
<path fill="none" stroke="#9a32cd" stroke-dasharray="5,2" d="M1538.4,-90.2218C1536.75,-73.9813 1531.69,-52.1828 1517,-40 1501.49,-27.1372 1379.38,-17.8452 1311,-13.5917"/>
<polygon fill="#9a32cd" stroke="#9a32cd" points="1534.92,-90.6455 1539.08,-100.391 1541.91,-90.1801 1534.92,-90.6455"/>
<text text-anchor="middle" x="1576" y="-57.5" font-family="Helvetica,sans-Serif" font-size="10.00"> m_p_buttonFSM</text>
</g>
</g>
</svg>
