<?xml version="1.0" encoding="UTF-8" standalone="no"?>
<!DOCTYPE svg PUBLIC "-//W3C//DTD SVG 1.1//EN"
 "http://www.w3.org/Graphics/SVG/1.1/DTD/svg11.dtd">
<!-- Generated by graphviz version 2.26.3 (20100126.1600)
 -->
<!-- Title: DemoGoggles2 Pages: 1 -->
<svg width="798pt" height="258pt"
 viewBox="0.00 0.00 798.00 258.00" xmlns="http://www.w3.org/2000/svg" xmlns:xlink="http://www.w3.org/1999/xlink">
<g id="graph1" class="graph" transform="scale(1 1) rotate(0) translate(4 254)">
<title>DemoGoggles2</title>
<polygon fill="white" stroke="white" points="-4,5 -4,-254 795,-254 795,5 -4,5"/>
<!-- Node1 -->
<g id="node1" class="node"><title>Node1</title>
<polygon fill="#bfbfbf" stroke="black" points="449,-0.5 449,-21.5 539,-21.5 539,-0.5 449,-0.5"/>
<text text-anchor="middle" x="494" y="-8.5" font-family="Helvetica,sans-Serif" font-size="10.00">DemoGoggles2</text>
</g>
<!-- Node2 -->
<g id="node2" class="node"><title>Node2</title>
<a xlink:href="classThingPaintable.htm" target="_top" xlink:title="ThingPaintable">
<polygon fill="white" stroke="black" points="113.5,-72.5 113.5,-93.5 200.5,-93.5 200.5,-72.5 113.5,-72.5"/>
<text text-anchor="middle" x="157" y="-80.5" font-family="Helvetica,sans-Serif" font-size="10.00">ThingPaintable</text>
</a>
</g>
<!-- Node2&#45;&gt;Node1 -->
<g id="edge2" class="edge"><title>Node2&#45;&gt;Node1</title>
<path fill="none" stroke="midnightblue" d="M210.889,-71.4867C276.767,-57.4118 387.076,-33.8443 448.753,-20.667"/>
<polygon fill="midnightblue" stroke="midnightblue" points="209.759,-68.1489 200.711,-73.6611 211.222,-74.9944 209.759,-68.1489"/>
</g>
<!-- Node3 -->
<g id="node4" class="node"><title>Node3</title>
<a xlink:href="classThing.htm" target="_top" xlink:title="Thing">
<polygon fill="white" stroke="black" points="87,-156.5 87,-177.5 131,-177.5 131,-156.5 87,-156.5"/>
<text text-anchor="middle" x="109" y="-164.5" font-family="Helvetica,sans-Serif" font-size="10.00">Thing</text>
</a>
</g>
<!-- Node3&#45;&gt;Node2 -->
<g id="edge4" class="edge"><title>Node3&#45;&gt;Node2</title>
<path fill="none" stroke="midnightblue" d="M120.215,-147.374C129.817,-130.57 143.276,-107.016 150.97,-93.5523"/>
<polygon fill="midnightblue" stroke="midnightblue" points="117.002,-145.942 115.079,-156.361 123.08,-149.415 117.002,-145.942"/>
</g>
<!-- Node4 -->
<g id="node6" class="node"><title>Node4</title>
<a xlink:href="classQGraphicsObject.htm" target="_top" xlink:title="QGraphicsObject">
<polygon fill="white" stroke="black" points="0,-228.5 0,-249.5 98,-249.5 98,-228.5 0,-228.5"/>
<text text-anchor="middle" x="49" y="-236.5" font-family="Helvetica,sans-Serif" font-size="10.00">QGraphicsObject</text>
</a>
</g>
<!-- Node4&#45;&gt;Node3 -->
<g id="edge6" class="edge"><title>Node4&#45;&gt;Node3</title>
<path fill="none" stroke="midnightblue" d="M64.3466,-220.584C75.6762,-206.989 90.7017,-188.958 100.11,-177.667"/>
<polygon fill="midnightblue" stroke="midnightblue" points="61.5663,-218.453 57.8532,-228.376 66.9439,-222.935 61.5663,-218.453"/>
</g>
<!-- Node5 -->
<g id="node8" class="node"><title>Node5</title>
<polygon fill="white" stroke="#bfbfbf" points="116,-228.5 116,-249.5 220,-249.5 220,-228.5 116,-228.5"/>
<text text-anchor="middle" x="168" y="-236.5" font-family="Helvetica,sans-Serif" font-size="10.00">QPointer&lt; Thing &gt;</text>
</g>
<!-- Node5&#45;&gt;Node3 -->
<g id="edge8" class="edge"><title>Node5&#45;&gt;Node3</title>
<path fill="none" stroke="#9a32cd" stroke-dasharray="5,2" d="M152.909,-220.584C141.768,-206.989 126.993,-188.958 117.741,-177.667"/>
<polygon fill="#9a32cd" stroke="#9a32cd" points="150.249,-222.86 159.294,-228.376 155.663,-218.423 150.249,-222.86"/>
<text text-anchor="middle" x="189.5" y="-200.5" font-family="Helvetica,sans-Serif" font-size="10.00"> m_qp_takerOwner</text>
</g>
<!-- Node6 -->
<g id="node10" class="node"><title>Node6</title>
<polygon fill="white" stroke="#bfbfbf" points="16.5,-156.5 16.5,-177.5 69.5,-177.5 69.5,-156.5 16.5,-156.5"/>
<text text-anchor="middle" x="43" y="-164.5" font-family="Helvetica,sans-Serif" font-size="10.00">QString</text>
</g>
<!-- Node6&#45;&gt;Node2 -->
<g id="edge10" class="edge"><title>Node6&#45;&gt;Node2</title>
<path fill="none" stroke="#9a32cd" stroke-dasharray="5,2" d="M49.5546,-146.401C54.1755,-134.861 61.445,-121.021 72,-112 83.6161,-102.072 98.7949,-95.4959 113.107,-91.1595"/>
<polygon fill="#9a32cd" stroke="#9a32cd" points="46.1397,-145.553 46.0373,-156.148 52.724,-147.93 46.1397,-145.553"/>
<text text-anchor="middle" x="97" y="-122.5" font-family="Helvetica,sans-Serif" font-size="10.00"> m_uiState</text>
</g>
<!-- Node7 -->
<g id="node12" class="node"><title>Node7</title>
<polygon fill="white" stroke="#bfbfbf" points="324.5,-156.5 324.5,-177.5 377.5,-177.5 377.5,-156.5 324.5,-156.5"/>
<text text-anchor="middle" x="351" y="-164.5" font-family="Helvetica,sans-Serif" font-size="10.00">QRectF</text>
</g>
<!-- Node7&#45;&gt;Node1 -->
<g id="edge18" class="edge"><title>Node7&#45;&gt;Node1</title>
<path fill="none" stroke="#9a32cd" stroke-dasharray="5,2" d="M375.125,-150.025C379.145,-146.402 382.982,-142.344 386,-138 403.721,-112.487 390.404,-96.882 409,-72 425.746,-49.5942 453.104,-32.0708 472.246,-21.6639"/>
<polygon fill="#9a32cd" stroke="#9a32cd" points="372.845,-147.369 367.335,-156.418 377.286,-152.78 372.845,-147.369"/>
<text text-anchor="middle" x="459" y="-80.5" font-family="Helvetica,sans-Serif" font-size="10.00"> m_sceneBgViewrect</text>
</g>
<!-- Node7&#45;&gt;Node2 -->
<g id="edge12" class="edge"><title>Node7&#45;&gt;Node2</title>
<path fill="none" stroke="#9a32cd" stroke-dasharray="5,2" d="M322.051,-150.993C315.855,-147.067 309.52,-142.646 304,-138 292.197,-128.065 294.247,-119.908 281,-112 267.474,-103.926 230.585,-95.8552 200.534,-90.2855"/>
<polygon fill="#9a32cd" stroke="#9a32cd" points="320.548,-154.175 330.915,-156.36 324.173,-148.186 320.548,-154.175"/>
<text text-anchor="middle" x="345" y="-129" font-family="Helvetica,sans-Serif" font-size="10.00"> m_boundingRect</text>
<text text-anchor="middle" x="345" y="-116" font-family="Helvetica,sans-Serif" font-size="10.00">m_geom</text>
</g>
<!-- Node8 -->
<g id="node14" class="node"><title>Node8</title>
<a xlink:href="classint.htm" target="_top" xlink:title="int">
<polygon fill="white" stroke="black" points="148.5,-156.5 148.5,-177.5 177.5,-177.5 177.5,-156.5 148.5,-156.5"/>
<text text-anchor="middle" x="163" y="-164.5" font-family="Helvetica,sans-Serif" font-size="10.00">int</text>
</a>
</g>
<!-- Node8&#45;&gt;Node2 -->
<g id="edge14" class="edge"><title>Node8&#45;&gt;Node2</title>
<path fill="none" stroke="#9a32cd" stroke-dasharray="5,2" d="M159.024,-146.221C158.612,-143.465 158.253,-140.67 158,-138 156.541,-122.598 156.528,-104.664 156.715,-93.5707"/>
<polygon fill="#9a32cd" stroke="#9a32cd" points="155.615,-147.046 160.756,-156.31 162.514,-145.862 155.615,-147.046"/>
<text text-anchor="middle" x="219.5" y="-129" font-family="Helvetica,sans-Serif" font-size="10.00"> MagicTypePropertyValue</text>
<text text-anchor="middle" x="219.5" y="-116" font-family="Helvetica,sans-Serif" font-size="10.00">MagicTypePropertyKey</text>
</g>
<!-- Node9 -->
<g id="node16" class="node"><title>Node9</title>
<polygon fill="white" stroke="#bfbfbf" points="517.5,-72.5 517.5,-93.5 658.5,-93.5 658.5,-72.5 517.5,-72.5"/>
<text text-anchor="middle" x="588" y="-80.5" font-family="Helvetica,sans-Serif" font-size="10.00">QPointer&lt; PixmapObject &gt;</text>
</g>
<!-- Node9&#45;&gt;Node1 -->
<g id="edge16" class="edge"><title>Node9&#45;&gt;Node1</title>
<path fill="none" stroke="#9a32cd" stroke-dasharray="5,2" d="M565.941,-66.1037C547.996,-52.359 523.224,-33.384 507.927,-21.6674"/>
<polygon fill="#9a32cd" stroke="#9a32cd" points="564.063,-69.0739 574.13,-72.3762 568.319,-63.5168 564.063,-69.0739"/>
<text text-anchor="middle" x="606" y="-44.5" font-family="Helvetica,sans-Serif" font-size="10.00"> m_qp_backgroundPmo</text>
</g>
<!-- Node10 -->
<g id="node19" class="node"><title>Node10</title>
<polygon fill="white" stroke="#bfbfbf" points="676,-72.5 676,-93.5 790,-93.5 790,-72.5 676,-72.5"/>
<text text-anchor="middle" x="733" y="-80.5" font-family="Helvetica,sans-Serif" font-size="10.00">QGLShaderProgram</text>
</g>
<!-- Node10&#45;&gt;Node1 -->
<g id="edge20" class="edge"><title>Node10&#45;&gt;Node1</title>
<path fill="none" stroke="#9a32cd" stroke-dasharray="5,2" d="M711.987,-66.3638C699.35,-57.1909 682.55,-46.3965 666,-40 624.76,-24.0612 574.616,-16.8702 539.137,-13.6332"/>
<polygon fill="#9a32cd" stroke="#9a32cd" points="709.916,-69.1851 720.017,-72.3813 714.114,-63.5835 709.916,-69.1851"/>
<text text-anchor="middle" x="723.5" y="-44.5" font-family="Helvetica,sans-Serif" font-size="10.00"> m_glShader</text>
</g>
</g>
</svg>
