<?xml version="1.0" encoding="UTF-8" standalone="no"?>
<!DOCTYPE svg PUBLIC "-//W3C//DTD SVG 1.1//EN"
 "http://www.w3.org/Graphics/SVG/1.1/DTD/svg11.dtd">
<!-- Generated by graphviz version 2.26.3 (20100126.1600)
 -->
<!-- Title: InstallParams Pages: 1 -->
<svg width="869pt" height="186pt"
 viewBox="0.00 0.00 869.00 186.00" xmlns="http://www.w3.org/2000/svg" xmlns:xlink="http://www.w3.org/1999/xlink">
<g id="graph1" class="graph" transform="scale(1 1) rotate(0) translate(4 182)">
<title>InstallParams</title>
<polygon fill="white" stroke="white" points="-4,5 -4,-182 866,-182 866,5 -4,5"/>
<!-- Node1 -->
<g id="node1" class="node"><title>Node1</title>
<polygon fill="#bfbfbf" stroke="black" points="496,-0.5 496,-21.5 576,-21.5 576,-0.5 496,-0.5"/>
<text text-anchor="middle" x="536" y="-8.5" font-family="Helvetica,sans-Serif" font-size="10.00">InstallParams</text>
</g>
<!-- Node2 -->
<g id="node2" class="node"><title>Node2</title>
<a xlink:href="classCommandParams.htm" target="_top" xlink:title="CommandParams">
<polygon fill="white" stroke="black" points="102.5,-84.5 102.5,-105.5 203.5,-105.5 203.5,-84.5 102.5,-84.5"/>
<text text-anchor="middle" x="153" y="-92.5" font-family="Helvetica,sans-Serif" font-size="10.00">CommandParams</text>
</a>
</g>
<!-- Node2&#45;&gt;Node1 -->
<g id="edge2" class="edge"><title>Node2&#45;&gt;Node1</title>
<path fill="none" stroke="midnightblue" d="M188.862,-80.7491C221.709,-68.2339 271.927,-50.4402 317,-40 378.463,-25.7633 451.363,-17.8487 495.623,-14.0097"/>
<polygon fill="midnightblue" stroke="midnightblue" points="187.325,-77.5902 179.251,-84.4497 189.84,-84.1228 187.325,-77.5902"/>
</g>
<!-- Node3 -->
<g id="node4" class="node"><title>Node3</title>
<polygon fill="white" stroke="#bfbfbf" points="0,-156.5 0,-177.5 66,-177.5 66,-156.5 0,-156.5"/>
<text text-anchor="middle" x="33" y="-164.5" font-family="Helvetica,sans-Serif" font-size="10.00">GSource *</text>
</g>
<!-- Node3&#45;&gt;Node2 -->
<g id="edge4" class="edge"><title>Node3&#45;&gt;Node2</title>
<path fill="none" stroke="#9a32cd" stroke-dasharray="5,2" d="M37.913,-146.684C40.7996,-138.62 45.253,-129.884 52,-124 59.9402,-117.076 81.2748,-110.496 102.301,-105.36"/>
<polygon fill="#9a32cd" stroke="#9a32cd" points="34.5574,-145.689 35.0399,-156.273 41.2629,-147.698 34.5574,-145.689"/>
<text text-anchor="middle" x="100.5" y="-128.5" font-family="Helvetica,sans-Serif" font-size="10.00"> _childStdOutSource</text>
</g>
<!-- Node4 -->
<g id="node6" class="node"><title>Node4</title>
<polygon fill="white" stroke="#bfbfbf" points="132.5,-156.5 132.5,-177.5 173.5,-177.5 173.5,-156.5 132.5,-156.5"/>
<text text-anchor="middle" x="153" y="-164.5" font-family="Helvetica,sans-Serif" font-size="10.00">Type</text>
</g>
<!-- Node4&#45;&gt;Node2 -->
<g id="edge6" class="edge"><title>Node4&#45;&gt;Node2</title>
<path fill="none" stroke="#9a32cd" stroke-dasharray="5,2" d="M153,-146.235C153,-132.969 153,-116.319 153,-105.667"/>
<polygon fill="#9a32cd" stroke="#9a32cd" points="149.5,-146.376 153,-156.376 156.5,-146.376 149.5,-146.376"/>
<text text-anchor="middle" x="168" y="-128.5" font-family="Helvetica,sans-Serif" font-size="10.00"> _type</text>
</g>
<!-- Node5 -->
<g id="node8" class="node"><title>Node5</title>
<polygon fill="white" stroke="#bfbfbf" points="191,-156.5 191,-177.5 275,-177.5 275,-156.5 191,-156.5"/>
<text text-anchor="middle" x="233" y="-164.5" font-family="Helvetica,sans-Serif" font-size="10.00">GIOChannel *</text>
</g>
<!-- Node5&#45;&gt;Node2 -->
<g id="edge8" class="edge"><title>Node5&#45;&gt;Node2</title>
<path fill="none" stroke="#9a32cd" stroke-dasharray="5,2" d="M214.413,-149.264C206.106,-141.431 196.145,-132.167 187,-124 180.056,-117.799 172.151,-111.039 165.712,-105.607"/>
<polygon fill="#9a32cd" stroke="#9a32cd" points="212.123,-151.916 221.79,-156.252 216.938,-146.834 212.123,-151.916"/>
<text text-anchor="middle" x="254.5" y="-128.5" font-family="Helvetica,sans-Serif" font-size="10.00"> _childStdOutChannel</text>
</g>
<!-- Node6 -->
<g id="node10" class="node"><title>Node6</title>
<polygon fill="white" stroke="#bfbfbf" points="221,-84.5 221,-105.5 331,-105.5 331,-84.5 221,-84.5"/>
<text text-anchor="middle" x="276" y="-92.5" font-family="Helvetica,sans-Serif" font-size="10.00">const LSMessage *</text>
</g>
<!-- Node6&#45;&gt;Node1 -->
<g id="edge10" class="edge"><title>Node6&#45;&gt;Node1</title>
<path fill="none" stroke="#9a32cd" stroke-dasharray="5,2" d="M299.314,-78.7644C318.311,-66.2971 346.272,-49.6336 373,-40 413.425,-25.4294 462.224,-17.9867 495.83,-14.3159"/>
<polygon fill="#9a32cd" stroke="#9a32cd" points="297.367,-75.8563 291.004,-84.3275 301.261,-81.6733 297.367,-75.8563"/>
<text text-anchor="middle" x="387.5" y="-50.5" font-family="Helvetica,sans-Serif" font-size="10.00"> _msg</text>
</g>
<!-- Node7 -->
<g id="node12" class="node"><title>Node7</title>
<polygon fill="white" stroke="#bfbfbf" points="348.5,-84.5 348.5,-105.5 459.5,-105.5 459.5,-84.5 348.5,-84.5"/>
<text text-anchor="middle" x="404" y="-92.5" font-family="Helvetica,sans-Serif" font-size="10.00">const unsigned long</text>
</g>
<!-- Node7&#45;&gt;Node1 -->
<g id="edge12" class="edge"><title>Node7&#45;&gt;Node1</title>
<path fill="none" stroke="#9a32cd" stroke-dasharray="5,2" d="M404.728,-73.9538C406.229,-62.4556 409.987,-48.8056 419,-40 429.927,-29.3241 466.446,-21.393 495.811,-16.5483"/>
<polygon fill="#9a32cd" stroke="#9a32cd" points="401.226,-73.8339 403.883,-84.0901 408.202,-74.4156 401.226,-73.8339"/>
<text text-anchor="middle" x="437.5" y="-50.5" font-family="Helvetica,sans-Serif" font-size="10.00"> ticketId</text>
</g>
<!-- Node8 -->
<g id="node14" class="node"><title>Node8</title>
<a xlink:href="classint.htm" target="_top" xlink:title="int">
<polygon fill="white" stroke="black" points="476.5,-84.5 476.5,-105.5 505.5,-105.5 505.5,-84.5 476.5,-84.5"/>
<text text-anchor="middle" x="491" y="-92.5" font-family="Helvetica,sans-Serif" font-size="10.00">int</text>
</a>
</g>
<!-- Node8&#45;&gt;Node1 -->
<g id="edge14" class="edge"><title>Node8&#45;&gt;Node1</title>
<path fill="none" stroke="#9a32cd" stroke-dasharray="5,2" d="M471.185,-76.7216C468.66,-73.4141 466.454,-69.7991 465,-66 460.87,-55.2076 458.556,-49.5922 465,-40 472.128,-29.3894 483.894,-22.6586 495.818,-18.3899"/>
<polygon fill="#9a32cd" stroke="#9a32cd" points="468.609,-79.0926 477.87,-84.2402 473.841,-74.4413 468.609,-79.0926"/>
<text text-anchor="middle" x="525.5" y="-50.5" font-family="Helvetica,sans-Serif" font-size="10.00"> _uncompressedSizeInKB</text>
</g>
<!-- Node9 -->
<g id="node16" class="node"><title>Node9</title>
<polygon fill="white" stroke="#bfbfbf" points="627.5,-84.5 627.5,-105.5 670.5,-105.5 670.5,-84.5 627.5,-84.5"/>
<text text-anchor="middle" x="649" y="-92.5" font-family="Helvetica,sans-Serif" font-size="10.00">string</text>
</g>
<!-- Node9&#45;&gt;Node1 -->
<g id="edge16" class="edge"><title>Node9&#45;&gt;Node1</title>
<path fill="none" stroke="#9a32cd" stroke-dasharray="5,2" d="M624.288,-78.3851C619.071,-74.5239 613.72,-70.2835 609,-66 597.575,-55.6321 597.937,-49.7736 586,-40 577.459,-33.0072 567.026,-26.6695 557.905,-21.715"/>
<polygon fill="#9a32cd" stroke="#9a32cd" points="622.634,-81.5049 632.807,-84.4662 626.701,-75.8075 622.634,-81.5049"/>
<text text-anchor="middle" x="638.5" y="-50.5" font-family="Helvetica,sans-Serif" font-size="10.00"> _packageId</text>
</g>
<!-- Node9&#45;&gt;Node1 -->
<g id="edge20" class="edge"><title>Node9&#45;&gt;Node1</title>
<path fill="none" stroke="#9a32cd" stroke-dasharray="5,2" d="M664.1,-75.8391C671.125,-64.4701 676.292,-50.3119 668,-40 656.605,-25.8294 610.618,-18.1874 576.106,-14.363"/>
<polygon fill="#9a32cd" stroke="#9a32cd" points="661.105,-74.0177 658.29,-84.232 666.86,-78.0019 661.105,-74.0177"/>
<text text-anchor="middle" x="690.5" y="-57" font-family="Helvetica,sans-Serif" font-size="10.00"> _target</text>
<text text-anchor="middle" x="690.5" y="-44" font-family="Helvetica,sans-Serif" font-size="10.00">_id</text>
</g>
<!-- Node10 -->
<g id="node18" class="node"><title>Node10</title>
<polygon fill="white" stroke="#bfbfbf" points="732,-84.5 732,-105.5 768,-105.5 768,-84.5 732,-84.5"/>
<text text-anchor="middle" x="750" y="-92.5" font-family="Helvetica,sans-Serif" font-size="10.00">bool</text>
</g>
<!-- Node10&#45;&gt;Node1 -->
<g id="edge18" class="edge"><title>Node10&#45;&gt;Node1</title>
<path fill="none" stroke="#9a32cd" stroke-dasharray="5,2" d="M741.479,-74.7842C735.339,-62.7474 725.864,-48.2544 713,-40 690.92,-25.8319 621.224,-17.7511 576.16,-13.8822"/>
<polygon fill="#9a32cd" stroke="#9a32cd" points="738.443,-76.5544 745.853,-84.1265 744.782,-73.5859 738.443,-76.5544"/>
<text text-anchor="middle" x="761" y="-57" font-family="Helvetica,sans-Serif" font-size="10.00"> _sysMode</text>
<text text-anchor="middle" x="761" y="-44" font-family="Helvetica,sans-Serif" font-size="10.00">_verify</text>
</g>
<!-- Node11 -->
<g id="node21" class="node"><title>Node11</title>
<polygon fill="white" stroke="#bfbfbf" points="789.5,-84.5 789.5,-105.5 860.5,-105.5 860.5,-84.5 789.5,-84.5"/>
<text text-anchor="middle" x="825" y="-92.5" font-family="Helvetica,sans-Serif" font-size="10.00">LSHandle *</text>
</g>
<!-- Node11&#45;&gt;Node1 -->
<g id="edge22" class="edge"><title>Node11&#45;&gt;Node1</title>
<path fill="none" stroke="#9a32cd" stroke-dasharray="5,2" d="M817.895,-75.0234C812.472,-62.8302 803.739,-48.0788 791,-40 773.268,-28.7547 643.394,-18.3467 576.138,-13.6399"/>
<polygon fill="#9a32cd" stroke="#9a32cd" points="814.711,-76.4871 821.687,-84.4613 821.207,-73.8773 814.711,-76.4871"/>
<text text-anchor="middle" x="836.5" y="-50.5" font-family="Helvetica,sans-Serif" font-size="10.00"> _lshandle</text>
</g>
</g>
</svg>
