<?xml version="1.0" encoding="UTF-8" standalone="no"?>
<!DOCTYPE svg PUBLIC "-//W3C//DTD SVG 1.1//EN"
 "http://www.w3.org/Graphics/SVG/1.1/DTD/svg11.dtd">
<!-- Generated by graphviz version 2.26.3 (20100126.1600)
 -->
<!-- Title: AlphabetPage Pages: 1 -->
<svg width="1488pt" height="1234pt"
 viewBox="0.00 0.00 1488.00 1234.12" xmlns="http://www.w3.org/2000/svg" xmlns:xlink="http://www.w3.org/1999/xlink">
<g id="graph1" class="graph" transform="scale(1 1) rotate(0) translate(4 1230.12)">
<title>AlphabetPage</title>
<polygon fill="white" stroke="white" points="-4,5 -4,-1230.12 1485,-1230.12 1485,5 -4,5"/>
<!-- Node1 -->
<g id="node1" class="node"><title>Node1</title>
<polygon fill="#bfbfbf" stroke="black" points="1396.5,-630.208 1396.5,-651.208 1479.5,-651.208 1479.5,-630.208 1396.5,-630.208"/>
<text text-anchor="middle" x="1438" y="-638.208" font-family="Helvetica,sans-Serif" font-size="10.00">AlphabetPage</text>
</g>
<!-- Node2 -->
<g id="node2" class="node"><title>Node2</title>
<a xlink:href="classPage.htm" target="_top" xlink:title="Page">
<polygon fill="white" stroke="black" points="1142.5,-653.208 1142.5,-674.208 1183.5,-674.208 1183.5,-653.208 1142.5,-653.208"/>
<text text-anchor="middle" x="1163" y="-661.208" font-family="Helvetica,sans-Serif" font-size="10.00">Page</text>
</a>
</g>
<!-- Node2&#45;&gt;Node1 -->
<g id="edge2" class="edge"><title>Node2&#45;&gt;Node1</title>
<path fill="none" stroke="midnightblue" d="M1193.76,-661.136C1243.29,-656.993 1340.79,-648.839 1396.45,-644.183"/>
<polygon fill="midnightblue" stroke="midnightblue" points="1193.34,-657.658 1183.67,-661.98 1193.93,-664.634 1193.34,-657.658"/>
</g>
<!-- Node3 -->
<g id="node4" class="node"><title>Node3</title>
<a xlink:href="classThingPaintable.htm" target="_top" xlink:title="ThingPaintable">
<polygon fill="white" stroke="black" points="446.5,-992.208 446.5,-1013.21 533.5,-1013.21 533.5,-992.208 446.5,-992.208"/>
<text text-anchor="middle" x="490" y="-1000.21" font-family="Helvetica,sans-Serif" font-size="10.00">ThingPaintable</text>
</a>
</g>
<!-- Node3&#45;&gt;Node2 -->
<g id="edge4" class="edge"><title>Node3&#45;&gt;Node2</title>
<path fill="none" stroke="midnightblue" d="M543.754,-1010.07C546.539,-1010.32 549.301,-1010.53 552,-1010.71 615.868,-1014.81 632.048,-1013.19 696,-1010.71 867.944,-1004.04 950.291,-1091.44 1082,-980.708 1131.02,-939.494 1156.53,-724.923 1161.91,-674.38"/>
<polygon fill="midnightblue" stroke="midnightblue" points="543.928,-1006.57 533.627,-1009.05 543.226,-1013.54 543.928,-1006.57"/>
</g>
<!-- Node11 -->
<g id="node20" class="node"><title>Node11</title>
<a xlink:href="classScrollableObject.htm" target="_top" xlink:title="ScrollableObject">
<polygon fill="white" stroke="black" points="749,-945.208 749,-966.208 841,-966.208 841,-945.208 749,-945.208"/>
<text text-anchor="middle" x="795" y="-953.208" font-family="Helvetica,sans-Serif" font-size="10.00">ScrollableObject</text>
</a>
</g>
<!-- Node3&#45;&gt;Node11 -->
<g id="edge22" class="edge"><title>Node3&#45;&gt;Node11</title>
<path fill="none" stroke="midnightblue" d="M544.091,-1003.23C585.94,-1002.68 645.137,-999.856 696,-989.708 722.02,-984.517 750.561,-974.189 770.285,-966.271"/>
<polygon fill="midnightblue" stroke="midnightblue" points="543.809,-999.729 533.841,-1003.32 543.872,-1006.73 543.809,-999.729"/>
</g>
<!-- Node4 -->
<g id="node6" class="node"><title>Node4</title>
<a xlink:href="classThing.htm" target="_top" xlink:title="Thing">
<polygon fill="white" stroke="black" points="237,-967.208 237,-988.208 281,-988.208 281,-967.208 237,-967.208"/>
<text text-anchor="middle" x="259" y="-975.208" font-family="Helvetica,sans-Serif" font-size="10.00">Thing</text>
</a>
</g>
<!-- Node4&#45;&gt;Node3 -->
<g id="edge6" class="edge"><title>Node4&#45;&gt;Node3</title>
<path fill="none" stroke="midnightblue" d="M291.512,-979.502C325.61,-981.594 380.712,-985.568 428,-991.708 433.963,-992.483 440.225,-993.432 446.383,-994.445"/>
<polygon fill="midnightblue" stroke="midnightblue" points="291.406,-975.99 281.215,-978.889 290.99,-982.977 291.406,-975.99"/>
</g>
<!-- Node5 -->
<g id="node8" class="node"><title>Node5</title>
<a xlink:href="classQGraphicsObject.htm" target="_top" xlink:title="QGraphicsObject">
<polygon fill="white" stroke="black" points="3,-987.208 3,-1008.21 101,-1008.21 101,-987.208 3,-987.208"/>
<text text-anchor="middle" x="52" y="-995.208" font-family="Helvetica,sans-Serif" font-size="10.00">QGraphicsObject</text>
</a>
</g>
<!-- Node5&#45;&gt;Node4 -->
<g id="edge8" class="edge"><title>Node5&#45;&gt;Node4</title>
<path fill="none" stroke="midnightblue" d="M111.177,-991.991C153.163,-987.934 207.148,-982.718 236.884,-979.845"/>
<polygon fill="midnightblue" stroke="midnightblue" points="110.673,-988.523 101.056,-992.969 111.346,-995.491 110.673,-988.523"/>
</g>
<!-- Node6 -->
<g id="node10" class="node"><title>Node6</title>
<polygon fill="white" stroke="#bfbfbf" points="0,-947.208 0,-968.208 104,-968.208 104,-947.208 0,-947.208"/>
<text text-anchor="middle" x="52" y="-955.208" font-family="Helvetica,sans-Serif" font-size="10.00">QPointer&lt; Thing &gt;</text>
</g>
<!-- Node6&#45;&gt;Node4 -->
<g id="edge10" class="edge"><title>Node6&#45;&gt;Node4</title>
<path fill="none" stroke="#9a32cd" stroke-dasharray="5,2" d="M114.088,-957.711C144.377,-958.49 181.255,-960.593 214,-965.708 221.509,-966.882 229.571,-968.811 236.767,-970.783"/>
<polygon fill="#9a32cd" stroke="#9a32cd" points="114.157,-954.212 104.084,-957.495 114.006,-961.21 114.157,-954.212"/>
<text text-anchor="middle" x="168" y="-969.708" font-family="Helvetica,sans-Serif" font-size="10.00"> m_qp_takerOwner</text>
</g>
<!-- Node7 -->
<g id="node12" class="node"><title>Node7</title>
<polygon fill="white" stroke="#bfbfbf" points="232.5,-808.208 232.5,-829.208 285.5,-829.208 285.5,-808.208 232.5,-808.208"/>
<text text-anchor="middle" x="259" y="-816.208" font-family="Helvetica,sans-Serif" font-size="10.00">QString</text>
</g>
<!-- Node7&#45;&gt;Node2 -->
<g id="edge44" class="edge"><title>Node7&#45;&gt;Node2</title>
<path fill="none" stroke="#9a32cd" stroke-dasharray="5,2" d="M295.475,-808.509C350.579,-793.496 458.549,-765.621 552,-750.708 785.525,-713.442 854.314,-767.599 1082,-703.708 1105.56,-697.098 1130.48,-683.691 1146.36,-674.225"/>
<polygon fill="#9a32cd" stroke="#9a32cd" points="294.535,-805.137 285.816,-811.156 296.386,-811.888 294.535,-805.137"/>
<text text-anchor="middle" x="624" y="-793.708" font-family="Helvetica,sans-Serif" font-size="10.00"> m_pageName</text>
<text text-anchor="middle" x="624" y="-780.708" font-family="Helvetica,sans-Serif" font-size="10.00">m_pageDesignator</text>
<text text-anchor="middle" x="624" y="-767.708" font-family="Helvetica,sans-Serif" font-size="10.00">PageDesignator_AllAlphabetic</text>
<text text-anchor="middle" x="624" y="-754.708" font-family="Helvetica,sans-Serif" font-size="10.00">PageDesignator_Favorites</text>
</g>
<!-- Node7&#45;&gt;Node3 -->
<g id="edge12" class="edge"><title>Node7&#45;&gt;Node3</title>
<path fill="none" stroke="#9a32cd" stroke-dasharray="5,2" d="M280.555,-835.997C313.289,-862.515 377.105,-915.261 428,-963.708 436.425,-971.729 436.53,-975.954 446,-982.708 450.919,-986.216 456.551,-989.333 462.107,-992.001"/>
<polygon fill="#9a32cd" stroke="#9a32cd" points="282.535,-833.097 272.556,-829.537 278.138,-838.543 282.535,-833.097"/>
<text text-anchor="middle" x="366" y="-967.708" font-family="Helvetica,sans-Serif" font-size="10.00"> m_uiState</text>
</g>
<!-- Node8 -->
<g id="node14" class="node"><title>Node8</title>
<polygon fill="white" stroke="#bfbfbf" points="232.5,-1041.21 232.5,-1062.21 285.5,-1062.21 285.5,-1041.21 232.5,-1041.21"/>
<text text-anchor="middle" x="259" y="-1049.21" font-family="Helvetica,sans-Serif" font-size="10.00">QRectF</text>
</g>
<!-- Node8&#45;&gt;Node2 -->
<g id="edge42" class="edge"><title>Node8&#45;&gt;Node2</title>
<path fill="none" stroke="#9a32cd" stroke-dasharray="5,2" d="M295.481,-1064.62C298.343,-1065.4 301.206,-1066.11 304,-1066.71 366.024,-1079.93 382.659,-1077.59 446,-1080.71 485.064,-1082.63 494.943,-1082.77 534,-1080.71 656.288,-1074.25 990.516,-1104.11 1082,-1022.71 1136.3,-974.395 1158.06,-728.435 1162.23,-674.27"/>
<polygon fill="#9a32cd" stroke="#9a32cd" points="296.44,-1061.26 285.856,-1061.75 294.436,-1067.96 296.44,-1061.26"/>
<text text-anchor="middle" x="624" y="-1097.71" font-family="Helvetica,sans-Serif" font-size="10.00"> m_topBorderShadowArea</text>
<text text-anchor="middle" x="624" y="-1084.71" font-family="Helvetica,sans-Serif" font-size="10.00">m_bottomBorderShadowArea</text>
</g>
<!-- Node8&#45;&gt;Node3 -->
<g id="edge14" class="edge"><title>Node8&#45;&gt;Node3</title>
<path fill="none" stroke="#9a32cd" stroke-dasharray="5,2" d="M274.132,-1033.48C282.088,-1025.26 292.559,-1016.38 304,-1011.71 349.797,-993.017 407.29,-993.453 446.14,-996.83"/>
<polygon fill="#9a32cd" stroke="#9a32cd" points="271.448,-1031.23 267.324,-1040.99 276.634,-1035.93 271.448,-1031.23"/>
<text text-anchor="middle" x="366" y="-1028.71" font-family="Helvetica,sans-Serif" font-size="10.00"> m_boundingRect</text>
<text text-anchor="middle" x="366" y="-1015.71" font-family="Helvetica,sans-Serif" font-size="10.00">m_geom</text>
</g>
<!-- Node8&#45;&gt;Node11 -->
<g id="edge24" class="edge"><title>Node8&#45;&gt;Node11</title>
<path fill="none" stroke="#9a32cd" stroke-dasharray="5,2" d="M295.683,-1053.35C372.099,-1055.68 553.114,-1055.5 696,-1010.71 728.27,-1000.59 761.867,-979.242 780.441,-966.32"/>
<polygon fill="#9a32cd" stroke="#9a32cd" points="295.722,-1049.85 285.609,-1053.01 295.485,-1056.85 295.722,-1049.85"/>
<text text-anchor="middle" x="490" y="-1067.71" font-family="Helvetica,sans-Serif" font-size="10.00"> m_sourceRect</text>
<text text-anchor="middle" x="490" y="-1054.71" font-family="Helvetica,sans-Serif" font-size="10.00">m_sourceGeom</text>
</g>
<!-- Node9 -->
<g id="node16" class="node"><title>Node9</title>
<a xlink:href="classint.htm" target="_top" xlink:title="int">
<polygon fill="white" stroke="black" points="244.5,-697.208 244.5,-718.208 273.5,-718.208 273.5,-697.208 244.5,-697.208"/>
<text text-anchor="middle" x="259" y="-705.208" font-family="Helvetica,sans-Serif" font-size="10.00">int</text>
</a>
</g>
<!-- Node9&#45;&gt;Node2 -->
<g id="edge54" class="edge"><title>Node9&#45;&gt;Node2</title>
<path fill="none" stroke="#9a32cd" stroke-dasharray="5,2" d="M283.884,-705.916C334.391,-702.375 452.581,-694.574 552,-691.708 623.97,-689.634 804.006,-691.693 876,-690.708 967.574,-689.456 991.375,-698.918 1082,-685.708 1102.91,-682.661 1126.12,-676.008 1142.31,-670.811"/>
<polygon fill="#9a32cd" stroke="#9a32cd" points="283.351,-702.445 273.623,-706.643 283.845,-709.428 283.351,-702.445"/>
<text text-anchor="middle" x="624" y="-695.708" font-family="Helvetica,sans-Serif" font-size="10.00"> m_scrollLockTouchId</text>
</g>
<!-- Node9&#45;&gt;Node3 -->
<g id="edge16" class="edge"><title>Node9&#45;&gt;Node3</title>
<path fill="none" stroke="#9a32cd" stroke-dasharray="5,2" d="M282.981,-716.929C320.957,-732.917 394.097,-769.645 428,-826.708 463.649,-886.711 404.909,-926.294 446,-982.708 448.767,-986.507 452.428,-989.6 456.461,-992.116"/>
<polygon fill="#9a32cd" stroke="#9a32cd" points="284.277,-713.678 273.696,-713.14 281.632,-720.159 284.277,-713.678"/>
<text text-anchor="middle" x="366" y="-843.708" font-family="Helvetica,sans-Serif" font-size="10.00"> MagicTypePropertyValue</text>
<text text-anchor="middle" x="366" y="-830.708" font-family="Helvetica,sans-Serif" font-size="10.00">MagicTypePropertyKey</text>
</g>
<!-- Node10 -->
<g id="node18" class="node"><title>Node10</title>
<polygon fill="white" stroke="#bfbfbf" points="773.5,-1188.21 773.5,-1209.21 816.5,-1209.21 816.5,-1188.21 773.5,-1188.21"/>
<text text-anchor="middle" x="795" y="-1196.21" font-family="Helvetica,sans-Serif" font-size="10.00">Enum</text>
</g>
<!-- Node10&#45;&gt;Node1 -->
<g id="edge78" class="edge"><title>Node10&#45;&gt;Node1</title>
<path fill="none" stroke="#9a32cd" stroke-dasharray="5,2" d="M826.452,-1207.94C881.972,-1222.34 999.291,-1244.05 1082,-1198.71 1315.27,-1070.83 1417.77,-717.926 1435.25,-651.549"/>
<polygon fill="#9a32cd" stroke="#9a32cd" points="827.08,-1204.49 816.514,-1205.27 825.262,-1211.25 827.08,-1204.49"/>
<text text-anchor="middle" x="1163" y="-1186.71" font-family="Helvetica,sans-Serif" font-size="10.00"> m_pageMode</text>
</g>
<!-- Node10&#45;&gt;Node2 -->
<g id="edge18" class="edge"><title>Node10&#45;&gt;Node2</title>
<path fill="none" stroke="#9a32cd" stroke-dasharray="5,2" d="M826.744,-1194.47C846.161,-1191.89 871.509,-1188.56 894,-1185.71 935.755,-1180.41 1051.66,-1191.88 1082,-1162.71 1155.23,-1092.3 1162.25,-741.172 1162.93,-674.61"/>
<polygon fill="#9a32cd" stroke="#9a32cd" points="826.074,-1191.03 816.623,-1195.81 826.997,-1197.96 826.074,-1191.03"/>
<text text-anchor="middle" x="988" y="-1189.71" font-family="Helvetica,sans-Serif" font-size="10.00"> m_scrollDirectionLock</text>
</g>
<!-- Node11&#45;&gt;Node2 -->
<g id="edge20" class="edge"><title>Node11&#45;&gt;Node2</title>
<path fill="none" stroke="#9a32cd" stroke-dasharray="5,2" d="M851.487,-962.217C915.067,-966.291 1017.84,-962.636 1082,-907.708 1119.47,-875.634 1152.61,-717.096 1160.97,-674.345"/>
<polygon fill="#9a32cd" stroke="#9a32cd" points="851.474,-958.707 841.246,-961.472 850.966,-965.689 851.474,-958.707"/>
<text text-anchor="middle" x="988" y="-967.708" font-family="Helvetica,sans-Serif" font-size="10.00"> m_p_scroll</text>
</g>
<!-- Node12 -->
<g id="node24" class="node"><title>Node12</title>
<polygon fill="white" stroke="#bfbfbf" points="472,-897.208 472,-918.208 508,-918.208 508,-897.208 472,-897.208"/>
<text text-anchor="middle" x="490" y="-905.208" font-family="Helvetica,sans-Serif" font-size="10.00">bool</text>
</g>
<!-- Node12&#45;&gt;Node2 -->
<g id="edge58" class="edge"><title>Node12&#45;&gt;Node2</title>
<path fill="none" stroke="#9a32cd" stroke-dasharray="5,2" d="M518.367,-910.001C609.519,-915.887 899.604,-922.933 1082,-793.708 1125.83,-762.655 1150.92,-699.667 1159.56,-674.476"/>
<polygon fill="#9a32cd" stroke="#9a32cd" points="518.477,-906.501 508.258,-909.299 517.991,-913.484 518.477,-906.501"/>
<text text-anchor="middle" x="795" y="-924.708" font-family="Helvetica,sans-Serif" font-size="10.00"> m_pageActive</text>
<text text-anchor="middle" x="795" y="-911.708" font-family="Helvetica,sans-Serif" font-size="10.00">m_interactionsBlocked</text>
</g>
<!-- Node12&#45;&gt;Node11 -->
<g id="edge26" class="edge"><title>Node12&#45;&gt;Node11</title>
<path fill="none" stroke="#9a32cd" stroke-dasharray="5,2" d="M518.15,-912.139C570.859,-920.434 684.885,-938.379 748.938,-948.459"/>
<polygon fill="#9a32cd" stroke="#9a32cd" points="518.588,-908.665 508.166,-910.567 517.5,-915.579 518.588,-908.665"/>
<text text-anchor="middle" x="624" y="-943.708" font-family="Helvetica,sans-Serif" font-size="10.00"> m_inOverscroll</text>
</g>
<!-- Node13 -->
<g id="node26" class="node"><title>Node13</title>
<polygon fill="white" stroke="#bfbfbf" points="467,-794.208 467,-815.208 513,-815.208 513,-794.208 467,-794.208"/>
<text text-anchor="middle" x="490" y="-802.208" font-family="Helvetica,sans-Serif" font-size="10.00">qint32</text>
</g>
<!-- Node13&#45;&gt;Node2 -->
<g id="edge70" class="edge"><title>Node13&#45;&gt;Node2</title>
<path fill="none" stroke="#9a32cd" stroke-dasharray="5,2" d="M523.352,-805.667C633.409,-808.313 983.623,-812.462 1082,-761.708 1120.25,-741.974 1147.23,-695.442 1157.91,-674.388"/>
<polygon fill="#9a32cd" stroke="#9a32cd" points="523.259,-802.164 513.174,-805.41 523.083,-809.161 523.259,-802.164"/>
<text text-anchor="middle" x="795" y="-810.708" font-family="Helvetica,sans-Serif" font-size="10.00"> m_pageUiIndex</text>
</g>
<!-- Node13&#45;&gt;Node11 -->
<g id="edge28" class="edge"><title>Node13&#45;&gt;Node11</title>
<path fill="none" stroke="#9a32cd" stroke-dasharray="5,2" d="M523.157,-804.659C568.383,-806.429 649.133,-816.423 696,-862.708 716.112,-882.571 694.924,-902.848 714,-923.708 723.183,-933.751 735.921,-940.687 748.579,-945.46"/>
<polygon fill="#9a32cd" stroke="#9a32cd" points="523.094,-801.156 513,-804.377 522.899,-808.153 523.094,-801.156"/>
<text text-anchor="middle" x="624" y="-905.708" font-family="Helvetica,sans-Serif" font-size="10.00"> m_maxSourceRectWidth</text>
<text text-anchor="middle" x="624" y="-892.708" font-family="Helvetica,sans-Serif" font-size="10.00">m_maxSourceRectHeight</text>
<text text-anchor="middle" x="624" y="-879.708" font-family="Helvetica,sans-Serif" font-size="10.00">m_overscrollVal</text>
<text text-anchor="middle" x="624" y="-866.708" font-family="Helvetica,sans-Serif" font-size="10.00">m_overscrollBottomStart</text>
</g>
<!-- Node14 -->
<g id="node28" class="node"><title>Node14</title>
<polygon fill="white" stroke="#bfbfbf" points="466.5,-952.208 466.5,-973.208 513.5,-973.208 513.5,-952.208 466.5,-952.208"/>
<text text-anchor="middle" x="490" y="-960.208" font-family="Helvetica,sans-Serif" font-size="10.00">QRect</text>
</g>
<!-- Node14&#45;&gt;Node11 -->
<g id="edge30" class="edge"><title>Node14&#45;&gt;Node11</title>
<path fill="none" stroke="#9a32cd" stroke-dasharray="5,2" d="M523.912,-961.93C578.788,-960.671 687.127,-958.184 748.936,-956.766"/>
<polygon fill="#9a32cd" stroke="#9a32cd" points="523.596,-958.436 513.679,-962.165 523.757,-965.434 523.596,-958.436"/>
<text text-anchor="middle" x="624" y="-978.708" font-family="Helvetica,sans-Serif" font-size="10.00"> m_screenGeom</text>
<text text-anchor="middle" x="624" y="-965.708" font-family="Helvetica,sans-Serif" font-size="10.00">m_targetRect</text>
</g>
<!-- Node15 -->
<g id="node30" class="node"><title>Node15</title>
<polygon fill="white" stroke="#bfbfbf" points="724.5,-620.208 724.5,-641.208 865.5,-641.208 865.5,-620.208 724.5,-620.208"/>
<text text-anchor="middle" x="795" y="-628.208" font-family="Helvetica,sans-Serif" font-size="10.00">QPointer&lt; PixmapObject &gt;</text>
</g>
<!-- Node15&#45;&gt;Node2 -->
<g id="edge32" class="edge"><title>Node15&#45;&gt;Node2</title>
<path fill="none" stroke="#9a32cd" stroke-dasharray="5,2" d="M875.833,-633.177C933.469,-635.571 1012.71,-640.151 1082,-648.708 1102.72,-651.268 1126.15,-655.787 1142.46,-659.198"/>
<polygon fill="#9a32cd" stroke="#9a32cd" points="875.825,-629.674 865.692,-632.769 875.543,-636.669 875.825,-629.674"/>
<text text-anchor="middle" x="988" y="-652.708" font-family="Helvetica,sans-Serif" font-size="10.00"> m_qp_backgroundPmo</text>
</g>
<!-- Node16 -->
<g id="node32" class="node"><title>Node16</title>
<polygon fill="white" stroke="#bfbfbf" points="769,-580.208 769,-601.208 821,-601.208 821,-580.208 769,-580.208"/>
<text text-anchor="middle" x="795" y="-588.208" font-family="Helvetica,sans-Serif" font-size="10.00">QTimer</text>
</g>
<!-- Node16&#45;&gt;Node2 -->
<g id="edge34" class="edge"><title>Node16&#45;&gt;Node2</title>
<path fill="none" stroke="#9a32cd" stroke-dasharray="5,2" d="M831.34,-590.377C898.815,-590.365 1040.39,-593.353 1082,-617.708 1094.13,-624.808 1088.7,-635.357 1100,-643.708 1112.46,-652.914 1129.3,-657.973 1142.43,-660.698"/>
<polygon fill="#9a32cd" stroke="#9a32cd" points="831.165,-586.877 821.173,-590.402 831.182,-593.877 831.165,-586.877"/>
<text text-anchor="middle" x="988" y="-621.708" font-family="Helvetica,sans-Serif" font-size="10.00"> m_scrollFSMTimer</text>
</g>
<!-- Node17 -->
<g id="node34" class="node"><title>Node17</title>
<polygon fill="white" stroke="#bfbfbf" points="731,-540.208 731,-561.208 859,-561.208 859,-540.208 731,-540.208"/>
<text text-anchor="middle" x="795" y="-548.208" font-family="Helvetica,sans-Serif" font-size="10.00">QPointer&lt; IconLayout &gt;</text>
</g>
<!-- Node17&#45;&gt;Node2 -->
<g id="edge36" class="edge"><title>Node17&#45;&gt;Node2</title>
<path fill="none" stroke="#9a32cd" stroke-dasharray="5,2" d="M869.007,-552.515C948.616,-555.142 1066.02,-561.26 1082,-574.708 1106.25,-595.114 1078.18,-620.721 1100,-643.708 1110.98,-655.278 1128.61,-660.18 1142.43,-662.244"/>
<polygon fill="#9a32cd" stroke="#9a32cd" points="869.117,-549.017 859.01,-552.197 868.894,-556.014 869.117,-549.017"/>
<text text-anchor="middle" x="988" y="-578.708" font-family="Helvetica,sans-Serif" font-size="10.00"> m_qp_iconLayout</text>
</g>
<!-- Node18 -->
<g id="node36" class="node"><title>Node18</title>
<a xlink:href="classKineticScroller.htm" target="_top" xlink:title="KineticScroller">
<polygon fill="white" stroke="black" points="753,-500.208 753,-521.208 837,-521.208 837,-500.208 753,-500.208"/>
<text text-anchor="middle" x="795" y="-508.208" font-family="Helvetica,sans-Serif" font-size="10.00">KineticScroller</text>
</a>
</g>
<!-- Node18&#45;&gt;Node2 -->
<g id="edge38" class="edge"><title>Node18&#45;&gt;Node2</title>
<path fill="none" stroke="#9a32cd" stroke-dasharray="5,2" d="M847.719,-513.828C928.251,-518.827 1073.54,-528.868 1082,-536.708 1117.38,-569.482 1068.38,-607.296 1100,-643.708 1110.53,-655.839 1128.39,-660.683 1142.4,-662.583"/>
<polygon fill="#9a32cd" stroke="#9a32cd" points="847.478,-510.306 837.282,-513.185 847.048,-517.293 847.478,-510.306"/>
<text text-anchor="middle" x="988" y="-540.708" font-family="Helvetica,sans-Serif" font-size="10.00"> m_failmaticScroller</text>
</g>
<!-- Node19 -->
<g id="node38" class="node"><title>Node19</title>
<a xlink:href="classQObject.htm" target="_top" xlink:title="QObject">
<polygon fill="white" stroke="black" points="462.5,-500.208 462.5,-521.208 517.5,-521.208 517.5,-500.208 462.5,-500.208"/>
<text text-anchor="middle" x="490" y="-508.208" font-family="Helvetica,sans-Serif" font-size="10.00">QObject</text>
</a>
</g>
<!-- Node19&#45;&gt;Node18 -->
<g id="edge40" class="edge"><title>Node19&#45;&gt;Node18</title>
<path fill="none" stroke="midnightblue" d="M527.655,-510.708C584.79,-510.708 693.032,-510.708 752.768,-510.708"/>
<polygon fill="midnightblue" stroke="midnightblue" points="527.605,-507.208 517.605,-510.708 527.605,-514.208 527.605,-507.208"/>
</g>
<!-- Node20 -->
<g id="node42" class="node"><title>Node20</title>
<polygon fill="white" stroke="#bfbfbf" points="766,-439.208 766,-460.208 824,-460.208 824,-439.208 766,-439.208"/>
<text text-anchor="middle" x="795" y="-447.208" font-family="Helvetica,sans-Serif" font-size="10.00">QState *</text>
</g>
<!-- Node20&#45;&gt;Node2 -->
<g id="edge46" class="edge"><title>Node20&#45;&gt;Node2</title>
<path fill="none" stroke="#9a32cd" stroke-dasharray="5,2" d="M834.631,-443.299C904.818,-432.933 1046.89,-416.693 1082,-448.708 1114.15,-478.032 1072.71,-609.808 1100,-643.708 1110.15,-656.313 1128.23,-661.1 1142.42,-662.857"/>
<polygon fill="#9a32cd" stroke="#9a32cd" points="833.78,-439.888 824.415,-444.842 834.825,-446.809 833.78,-439.888"/>
<text text-anchor="middle" x="988" y="-504.708" font-family="Helvetica,sans-Serif" font-size="10.00"> m_p_fsmStateNoTouch</text>
<text text-anchor="middle" x="988" y="-491.708" font-family="Helvetica,sans-Serif" font-size="10.00">m_p_fsmStateScrollDelay</text>
<text text-anchor="middle" x="988" y="-478.708" font-family="Helvetica,sans-Serif" font-size="10.00">m_p_fsmStateScrollOk</text>
<text text-anchor="middle" x="988" y="-465.708" font-family="Helvetica,sans-Serif" font-size="10.00">m_p_fsmStateTouchMotionTracking</text>
<text text-anchor="middle" x="988" y="-452.708" font-family="Helvetica,sans-Serif" font-size="10.00">m_p_fsmStateTouchStationaryTracking</text>
</g>
<!-- Node21 -->
<g id="node44" class="node"><title>Node21</title>
<polygon fill="white" stroke="#bfbfbf" points="746,-390.208 746,-411.208 844,-411.208 844,-390.208 746,-390.208"/>
<text text-anchor="middle" x="795" y="-398.208" font-family="Helvetica,sans-Serif" font-size="10.00">QStateMachine *</text>
</g>
<!-- Node21&#45;&gt;Node2 -->
<g id="edge48" class="edge"><title>Node21&#45;&gt;Node2</title>
<path fill="none" stroke="#9a32cd" stroke-dasharray="5,2" d="M854.311,-391.68C928.644,-381.848 1050.18,-371.159 1082,-400.708 1121.68,-437.555 1066.43,-601.221 1100,-643.708 1110.03,-656.404 1128.12,-661.182 1142.35,-662.913"/>
<polygon fill="#9a32cd" stroke="#9a32cd" points="853.589,-388.246 844.15,-393.057 854.53,-395.182 853.589,-388.246"/>
<text text-anchor="middle" x="988" y="-417.708" font-family="Helvetica,sans-Serif" font-size="10.00"> m_p_scrollDelayFSM</text>
<text text-anchor="middle" x="988" y="-404.708" font-family="Helvetica,sans-Serif" font-size="10.00">m_p_touchFSM</text>
</g>
<!-- Node22 -->
<g id="node46" class="node"><title>Node22</title>
<polygon fill="white" stroke="#bfbfbf" points="729.5,-334.708 729.5,-368.708 860.5,-368.708 860.5,-334.708 729.5,-334.708"/>
<text text-anchor="start" x="737.5" y="-355.708" font-family="Helvetica,sans-Serif" font-size="10.00">QMap&lt; QUuid, QPointer</text>
<text text-anchor="middle" x="795" y="-342.708" font-family="Helvetica,sans-Serif" font-size="10.00">&lt; IconBase &gt; &gt;</text>
</g>
<!-- Node22&#45;&gt;Node2 -->
<g id="edge50" class="edge"><title>Node22&#45;&gt;Node2</title>
<path fill="none" stroke="#9a32cd" stroke-dasharray="5,2" d="M870.934,-340.507C945.628,-331.395 1052.62,-324.081 1082,-351.708 1129.36,-396.242 1060.01,-592.448 1100,-643.708 1109.95,-656.466 1128.05,-661.238 1142.31,-662.95"/>
<polygon fill="#9a32cd" stroke="#9a32cd" points="870.107,-337.083 860.62,-341.801 870.978,-344.028 870.107,-337.083"/>
<text text-anchor="start" x="921" y="-368.708" font-family="Helvetica,sans-Serif" font-size="10.00"> m_pendingExternalIconAdd</text>
<text text-anchor="middle" x="988" y="-355.708" font-family="Helvetica,sans-Serif" font-size="10.00">Waitlist</text>
</g>
<!-- Node23 -->
<g id="node48" class="node"><title>Node23</title>
<polygon fill="white" stroke="#bfbfbf" points="765.5,-293.208 765.5,-314.208 824.5,-314.208 824.5,-293.208 765.5,-293.208"/>
<text text-anchor="middle" x="795" y="-301.208" font-family="Helvetica,sans-Serif" font-size="10.00">QPixmap</text>
</g>
<!-- Node23&#45;&gt;Node2 -->
<g id="edge52" class="edge"><title>Node23&#45;&gt;Node2</title>
<path fill="none" stroke="#9a32cd" stroke-dasharray="5,2" d="M834.755,-297.166C905.142,-286.584 1047.53,-270.01 1082,-302.708 1109.53,-328.821 1076.8,-613.69 1100,-643.708 1109.9,-656.51 1128,-661.277 1142.27,-662.977"/>
<polygon fill="#9a32cd" stroke="#9a32cd" points="833.861,-293.762 824.509,-298.74 834.925,-300.681 833.861,-293.762"/>
<text text-anchor="middle" x="988" y="-319.708" font-family="Helvetica,sans-Serif" font-size="10.00"> m_bottomBorderShadowPixmap</text>
<text text-anchor="middle" x="988" y="-306.708" font-family="Helvetica,sans-Serif" font-size="10.00">m_topBorderShadowPixmap</text>
</g>
<!-- Node24 -->
<g id="node51" class="node"><title>Node24</title>
<polygon fill="white" stroke="#bfbfbf" points="719.5,-253.208 719.5,-274.208 870.5,-274.208 870.5,-253.208 719.5,-253.208"/>
<text text-anchor="middle" x="795" y="-261.208" font-family="Helvetica,sans-Serif" font-size="10.00">QPointer&lt; LauncherObject &gt;</text>
</g>
<!-- Node24&#45;&gt;Node2 -->
<g id="edge56" class="edge"><title>Node24&#45;&gt;Node2</title>
<path fill="none" stroke="#9a32cd" stroke-dasharray="5,2" d="M880.838,-252.223C954.893,-244.465 1054.2,-239.922 1082,-266.708 1112.2,-295.805 1074.44,-610.465 1100,-643.708 1109.86,-656.535 1127.97,-661.299 1142.25,-662.992"/>
<polygon fill="#9a32cd" stroke="#9a32cd" points="880.131,-248.78 870.566,-253.337 880.885,-255.739 880.131,-248.78"/>
<text text-anchor="middle" x="988" y="-270.708" font-family="Helvetica,sans-Serif" font-size="10.00"> m_qp_currentUIOwner</text>
</g>
<!-- Node25 -->
<g id="node54" class="node"><title>Node25</title>
<polygon fill="white" stroke="#bfbfbf" points="769,-207.208 769,-228.208 821,-228.208 821,-207.208 769,-207.208"/>
<text text-anchor="middle" x="795" y="-215.208" font-family="Helvetica,sans-Serif" font-size="10.00">QBrush</text>
</g>
<!-- Node25&#45;&gt;Node2 -->
<g id="edge60" class="edge"><title>Node25&#45;&gt;Node2</title>
<path fill="none" stroke="#9a32cd" stroke-dasharray="5,2" d="M831.167,-211.682C900.224,-201.088 1047.1,-183.253 1082,-216.708 1116.28,-249.572 1071.16,-605.985 1100,-643.708 1109.83,-656.562 1127.94,-661.324 1142.23,-663.008"/>
<polygon fill="#9a32cd" stroke="#9a32cd" points="830.511,-208.242 821.173,-213.248 831.594,-215.157 830.511,-208.242"/>
<text text-anchor="middle" x="988" y="-233.708" font-family="Helvetica,sans-Serif" font-size="10.00"> m_topBorderShadowBrush</text>
<text text-anchor="middle" x="988" y="-220.708" font-family="Helvetica,sans-Serif" font-size="10.00">m_bottomBorderShadowBrush</text>
</g>
<!-- Node26 -->
<g id="node56" class="node"><title>Node26</title>
<polygon fill="white" stroke="#bfbfbf" points="744,-67.2084 744,-88.2084 846,-88.2084 846,-67.2084 744,-67.2084"/>
<text text-anchor="middle" x="795" y="-75.2084" font-family="Helvetica,sans-Serif" font-size="10.00">static const char *</text>
</g>
<!-- Node26&#45;&gt;Node2 -->
<g id="edge62" class="edge"><title>Node26&#45;&gt;Node2</title>
<path fill="none" stroke="#9a32cd" stroke-dasharray="5,2" d="M856.351,-67.9807C931.041,-57.7025 1051.07,-46.7421 1082,-76.7084 1127.27,-120.566 1061.98,-593.437 1100,-643.708 1109.83,-656.705 1128.14,-661.437 1142.5,-663.074"/>
<polygon fill="#9a32cd" stroke="#9a32cd" points="855.54,-64.5604 846.127,-69.4222 856.518,-71.4918 855.54,-64.5604"/>
<text text-anchor="start" x="909" y="-184.708" font-family="Helvetica,sans-Serif" font-size="10.00"> TouchFSMPropertyName</text>
<text text-anchor="middle" x="988" y="-171.708" font-family="Helvetica,sans-Serif" font-size="10.00">_isTracking</text>
<text text-anchor="middle" x="988" y="-158.708" font-family="Helvetica,sans-Serif" font-size="10.00">PageIndexPropertyName</text>
<text text-anchor="start" x="909" y="-145.708" font-family="Helvetica,sans-Serif" font-size="10.00">ScrollDelayFSMPropertyName</text>
<text text-anchor="middle" x="988" y="-132.708" font-family="Helvetica,sans-Serif" font-size="10.00">_isScrollOk</text>
<text text-anchor="start" x="909" y="-119.708" font-family="Helvetica,sans-Serif" font-size="10.00">TouchFSMProperyName_tracked</text>
<text text-anchor="middle" x="988" y="-106.708" font-family="Helvetica,sans-Serif" font-size="10.00">Id</text>
<text text-anchor="middle" x="988" y="-93.7084" font-family="Helvetica,sans-Serif" font-size="10.00">PageDesignatorPropertyName</text>
<text text-anchor="middle" x="988" y="-80.7084" font-family="Helvetica,sans-Serif" font-size="10.00">PageNamePropertyName</text>
</g>
<!-- Node27 -->
<g id="node58" class="node"><title>Node27</title>
<polygon fill="white" stroke="#bfbfbf" points="720.5,-27.2084 720.5,-48.2084 869.5,-48.2084 869.5,-27.2084 720.5,-27.2084"/>
<text text-anchor="middle" x="795" y="-35.2084" font-family="Helvetica,sans-Serif" font-size="10.00">QMap&lt; int, TouchRegister &gt;</text>
</g>
<!-- Node27&#45;&gt;Node2 -->
<g id="edge64" class="edge"><title>Node27&#45;&gt;Node2</title>
<path fill="none" stroke="#9a32cd" stroke-dasharray="5,2" d="M832.194,-23.8994C893.509,-3.81766 1015.61,24.4027 1082,-40.7084 1129.85,-87.6439 1059.62,-590.21 1100,-643.708 1109.82,-656.714 1128.13,-661.445 1142.49,-663.08"/>
<polygon fill="#9a32cd" stroke="#9a32cd" points="830.893,-20.6444 822.539,-27.1601 833.133,-27.2764 830.893,-20.6444"/>
<text text-anchor="middle" x="988" y="-44.7084" font-family="Helvetica,sans-Serif" font-size="10.00"> m_touchRegisters</text>
</g>
<!-- Node28 -->
<g id="node60" class="node"><title>Node28</title>
<polygon fill="white" stroke="#bfbfbf" points="751,-1135.21 751,-1156.21 839,-1156.21 839,-1135.21 751,-1135.21"/>
<text text-anchor="middle" x="795" y="-1143.21" font-family="Helvetica,sans-Serif" font-size="10.00">QSet&lt; QUuid &gt;</text>
</g>
<!-- Node28&#45;&gt;Node2 -->
<g id="edge66" class="edge"><title>Node28&#45;&gt;Node2</title>
<path fill="none" stroke="#9a32cd" stroke-dasharray="5,2" d="M849.17,-1140.49C931.168,-1132.47 1077.79,-1117.65 1082,-1113.71 1148.82,-1051.22 1160.98,-736.444 1162.74,-674.354"/>
<polygon fill="#9a32cd" stroke="#9a32cd" points="848.633,-1137.02 839.02,-1141.48 849.312,-1143.99 848.633,-1137.02"/>
<text text-anchor="start" x="911" y="-1152.71" font-family="Helvetica,sans-Serif" font-size="10.00"> m_pendingExternalIconRemove</text>
<text text-anchor="middle" x="988" y="-1139.71" font-family="Helvetica,sans-Serif" font-size="10.00">Waitlist</text>
</g>
<!-- Node29 -->
<g id="node62" class="node"><title>Node29</title>
<polygon fill="white" stroke="#bfbfbf" points="714.5,-1095.21 714.5,-1116.21 875.5,-1116.21 875.5,-1095.21 714.5,-1095.21"/>
<text text-anchor="middle" x="795" y="-1103.21" font-family="Helvetica,sans-Serif" font-size="10.00">QPointer&lt; QAnimationGroup &gt;</text>
</g>
<!-- Node29&#45;&gt;Node2 -->
<g id="edge68" class="edge"><title>Node29&#45;&gt;Node2</title>
<path fill="none" stroke="#9a32cd" stroke-dasharray="5,2" d="M886.139,-1099.43C967.409,-1093.44 1074.69,-1084.35 1082,-1077.71 1144.21,-1021.2 1159.98,-733.284 1162.58,-674.282"/>
<polygon fill="#9a32cd" stroke="#9a32cd" points="885.581,-1095.97 875.863,-1100.19 886.092,-1102.95 885.581,-1095.97"/>
<text text-anchor="middle" x="988" y="-1101.71" font-family="Helvetica,sans-Serif" font-size="10.00"> m_qp_ensembleAnimation</text>
</g>
<!-- Node30 -->
<g id="node65" class="node"><title>Node30</title>
<polygon fill="white" stroke="#bfbfbf" points="770.5,-660.208 770.5,-681.208 819.5,-681.208 819.5,-660.208 770.5,-660.208"/>
<text text-anchor="middle" x="795" y="-668.208" font-family="Helvetica,sans-Serif" font-size="10.00">QPoint</text>
</g>
<!-- Node30&#45;&gt;Node2 -->
<g id="edge72" class="edge"><title>Node30&#45;&gt;Node2</title>
<path fill="none" stroke="#9a32cd" stroke-dasharray="5,2" d="M830.106,-670.041C905.633,-668.604 1081.6,-665.257 1142.12,-664.106"/>
<polygon fill="#9a32cd" stroke="#9a32cd" points="829.649,-666.549 819.717,-670.238 829.782,-673.547 829.649,-666.549"/>
<text text-anchor="middle" x="988" y="-672.708" font-family="Helvetica,sans-Serif" font-size="10.00"> m_iconLayoutOffsetCoord</text>
</g>
<!-- Node31 -->
<g id="node67" class="node"><title>Node31</title>
<polygon fill="white" stroke="#bfbfbf" points="1102.5,-613.208 1102.5,-634.208 1223.5,-634.208 1223.5,-613.208 1102.5,-613.208"/>
<text text-anchor="middle" x="1163" y="-621.208" font-family="Helvetica,sans-Serif" font-size="10.00">QPointer&lt; IconBase &gt;</text>
</g>
<!-- Node31&#45;&gt;Node1 -->
<g id="edge74" class="edge"><title>Node31&#45;&gt;Node1</title>
<path fill="none" stroke="#9a32cd" stroke-dasharray="5,2" d="M1233.97,-623.659C1275.95,-624.217 1330.11,-625.959 1378,-630.708 1383.99,-631.302 1390.29,-632.128 1396.46,-633.052"/>
<polygon fill="#9a32cd" stroke="#9a32cd" points="1233.88,-620.158 1223.84,-623.544 1233.8,-627.157 1233.88,-620.158"/>
<text text-anchor="middle" x="1311" y="-634.708" font-family="Helvetica,sans-Serif" font-size="10.00"> m_qp_cached_trackingIcon</text>
</g>
<!-- Node32 -->
<g id="node69" class="node"><title>Node32</title>
<polygon fill="white" stroke="#bfbfbf" points="1100.5,-573.208 1100.5,-594.208 1225.5,-594.208 1225.5,-573.208 1100.5,-573.208"/>
<text text-anchor="middle" x="1163" y="-581.208" font-family="Helvetica,sans-Serif" font-size="10.00">QPair&lt; QUuid, QUuid &gt;</text>
</g>
<!-- Node32&#45;&gt;Node1 -->
<g id="edge76" class="edge"><title>Node32&#45;&gt;Node1</title>
<path fill="none" stroke="#9a32cd" stroke-dasharray="5,2" d="M1236.18,-584.815C1278.47,-587.185 1332.19,-593.186 1378,-607.708 1394.09,-612.81 1410.79,-622.405 1422.48,-629.94"/>
<polygon fill="#9a32cd" stroke="#9a32cd" points="1236.13,-581.308 1225.96,-584.3 1235.77,-588.299 1236.13,-581.308"/>
<text text-anchor="middle" x="1311" y="-611.708" font-family="Helvetica,sans-Serif" font-size="10.00"> m_trackingIconUids</text>
</g>
</g>
</svg>
