<?xml version="1.0" encoding="UTF-8" standalone="no"?>
<!DOCTYPE svg PUBLIC "-//W3C//DTD SVG 1.1//EN"
 "http://www.w3.org/Graphics/SVG/1.1/DTD/svg11.dtd">
<!-- Generated by graphviz version 2.26.3 (20100126.1600)
 -->
<!-- Title: PixmapHugeObject Pages: 1 -->
<svg width="755pt" height="186pt"
 viewBox="0.00 0.00 755.00 186.00" xmlns="http://www.w3.org/2000/svg" xmlns:xlink="http://www.w3.org/1999/xlink">
<g id="graph1" class="graph" transform="scale(1 1) rotate(0) translate(4 182)">
<title>PixmapHugeObject</title>
<polygon fill="white" stroke="white" points="-4,5 -4,-182 752,-182 752,5 -4,5"/>
<!-- Node1 -->
<g id="node1" class="node"><title>Node1</title>
<polygon fill="#bfbfbf" stroke="black" points="368,-0.5 368,-21.5 474,-21.5 474,-0.5 368,-0.5"/>
<text text-anchor="middle" x="421" y="-8.5" font-family="Helvetica,sans-Serif" font-size="10.00">PixmapHugeObject</text>
</g>
<!-- Node2 -->
<g id="node2" class="node"><title>Node2</title>
<a xlink:href="classPixmapObject.htm" target="_top" xlink:title="PixmapObject">
<polygon fill="white" stroke="black" points="116.5,-84.5 116.5,-105.5 197.5,-105.5 197.5,-84.5 116.5,-84.5"/>
<text text-anchor="middle" x="157" y="-92.5" font-family="Helvetica,sans-Serif" font-size="10.00">PixmapObject</text>
</a>
</g>
<!-- Node2&#45;&gt;Node1 -->
<g id="edge2" class="edge"><title>Node2&#45;&gt;Node1</title>
<path fill="none" stroke="midnightblue" d="M187.92,-79.9767C213.878,-67.8399 252.197,-51.0214 287,-40 313.209,-31.7002 343.045,-24.9865 367.9,-20.1173"/>
<polygon fill="midnightblue" stroke="midnightblue" points="186.155,-76.9395 178.609,-84.3771 189.146,-83.2683 186.155,-76.9395"/>
</g>
<!-- Node3 -->
<g id="node4" class="node"><title>Node3</title>
<a xlink:href="classQObject.htm" target="_top" xlink:title="QObject">
<polygon fill="white" stroke="black" points="-0.5,-156.5 -0.5,-177.5 54.5,-177.5 54.5,-156.5 -0.5,-156.5"/>
<text text-anchor="middle" x="27" y="-164.5" font-family="Helvetica,sans-Serif" font-size="10.00">QObject</text>
</a>
</g>
<!-- Node3&#45;&gt;Node2 -->
<g id="edge4" class="edge"><title>Node3&#45;&gt;Node2</title>
<path fill="none" stroke="midnightblue" d="M55.1678,-151.399C80.1306,-137.574 115.911,-117.757 137.739,-105.667"/>
<polygon fill="midnightblue" stroke="midnightblue" points="53.2341,-148.469 46.1819,-156.376 56.6256,-154.593 53.2341,-148.469"/>
</g>
<!-- Node4 -->
<g id="node6" class="node"><title>Node4</title>
<polygon fill="white" stroke="#bfbfbf" points="72,-156.5 72,-177.5 118,-177.5 118,-156.5 72,-156.5"/>
<text text-anchor="middle" x="95" y="-164.5" font-family="Helvetica,sans-Serif" font-size="10.00">QUuid</text>
</g>
<!-- Node4&#45;&gt;Node2 -->
<g id="edge6" class="edge"><title>Node4&#45;&gt;Node2</title>
<path fill="none" stroke="#9a32cd" stroke-dasharray="5,2" d="M105.338,-147.693C109.931,-139.94 115.721,-131.163 122,-124 127.93,-117.235 135.52,-110.745 142.114,-105.626"/>
<polygon fill="#9a32cd" stroke="#9a32cd" points="102.253,-146.037 100.374,-156.464 108.345,-149.485 102.253,-146.037"/>
<text text-anchor="middle" x="137.5" y="-128.5" font-family="Helvetica,sans-Serif" font-size="10.00"> m_uid</text>
</g>
<!-- Node5 -->
<g id="node8" class="node"><title>Node5</title>
<polygon fill="white" stroke="#bfbfbf" points="135.5,-156.5 135.5,-177.5 194.5,-177.5 194.5,-156.5 135.5,-156.5"/>
<text text-anchor="middle" x="165" y="-164.5" font-family="Helvetica,sans-Serif" font-size="10.00">QPixmap</text>
</g>
<!-- Node5&#45;&gt;Node2 -->
<g id="edge8" class="edge"><title>Node5&#45;&gt;Node2</title>
<path fill="none" stroke="#9a32cd" stroke-dasharray="5,2" d="M159.493,-146.566C158.891,-143.707 158.365,-140.792 158,-138 156.567,-127.042 156.456,-114.382 156.619,-105.651"/>
<polygon fill="#9a32cd" stroke="#9a32cd" points="156.108,-147.459 161.855,-156.36 162.913,-145.818 156.108,-147.459"/>
<text text-anchor="middle" x="167" y="-128.5" font-family="Helvetica,sans-Serif" font-size="10.00"> pm</text>
</g>
<!-- Node6 -->
<g id="node10" class="node"><title>Node6</title>
<polygon fill="white" stroke="#bfbfbf" points="247,-156.5 247,-177.5 283,-177.5 283,-156.5 247,-156.5"/>
<text text-anchor="middle" x="265" y="-164.5" font-family="Helvetica,sans-Serif" font-size="10.00">bool</text>
</g>
<!-- Node6&#45;&gt;Node1 -->
<g id="edge12" class="edge"><title>Node6&#45;&gt;Node1</title>
<path fill="none" stroke="#9a32cd" stroke-dasharray="5,2" d="M280.287,-148.226C282.678,-144.914 285.012,-141.426 287,-138 300.093,-115.438 293.278,-104.021 310,-84 333.953,-55.3222 372.04,-33.7067 396.782,-21.6995"/>
<polygon fill="#9a32cd" stroke="#9a32cd" points="277.312,-146.355 274.024,-156.427 282.875,-150.604 277.312,-146.355"/>
<text text-anchor="middle" x="330" y="-92.5" font-family="Helvetica,sans-Serif" font-size="10.00"> m_valid</text>
</g>
<!-- Node6&#45;&gt;Node2 -->
<g id="edge10" class="edge"><title>Node6&#45;&gt;Node2</title>
<path fill="none" stroke="#9a32cd" stroke-dasharray="5,2" d="M237.57,-157.68C225.206,-152.809 210.773,-146.151 199,-138 185.787,-128.852 173.272,-115.149 165.397,-105.682"/>
<polygon fill="#9a32cd" stroke="#9a32cd" points="236.359,-160.964 246.951,-161.198 238.816,-154.41 236.359,-160.964"/>
<text text-anchor="middle" x="243" y="-128.5" font-family="Helvetica,sans-Serif" font-size="10.00"> m_destroyEmitted</text>
</g>
<!-- Node7 -->
<g id="node13" class="node"><title>Node7</title>
<polygon fill="white" stroke="#bfbfbf" points="358.5,-84.5 358.5,-105.5 483.5,-105.5 483.5,-84.5 358.5,-84.5"/>
<text text-anchor="middle" x="421" y="-92.5" font-family="Helvetica,sans-Serif" font-size="10.00">QVector&lt; QPixmap * &gt;</text>
</g>
<!-- Node7&#45;&gt;Node1 -->
<g id="edge14" class="edge"><title>Node7&#45;&gt;Node1</title>
<path fill="none" stroke="#9a32cd" stroke-dasharray="5,2" d="M421,-73.9452C421,-57.2568 421,-34.6387 421,-21.5523"/>
<polygon fill="#9a32cd" stroke="#9a32cd" points="417.5,-74.3613 421,-84.3613 424.5,-74.3614 417.5,-74.3613"/>
<text text-anchor="middle" x="449.5" y="-50.5" font-family="Helvetica,sans-Serif" font-size="10.00"> m_pixmaps</text>
</g>
<!-- Node8 -->
<g id="node15" class="node"><title>Node8</title>
<polygon fill="white" stroke="#bfbfbf" points="501,-84.5 501,-105.5 605,-105.5 605,-84.5 501,-84.5"/>
<text text-anchor="middle" x="553" y="-92.5" font-family="Helvetica,sans-Serif" font-size="10.00">QVector&lt; QRect &gt;</text>
</g>
<!-- Node8&#45;&gt;Node1 -->
<g id="edge16" class="edge"><title>Node8&#45;&gt;Node1</title>
<path fill="none" stroke="#9a32cd" stroke-dasharray="5,2" d="M533.174,-77.7682C519.38,-66.2585 500.257,-51.2297 482,-40 470.714,-33.0579 457.506,-26.594 446.272,-21.5388"/>
<polygon fill="#9a32cd" stroke="#9a32cd" points="531.126,-80.6207 541.019,-84.4144 535.651,-75.2797 531.126,-80.6207"/>
<text text-anchor="middle" x="572" y="-50.5" font-family="Helvetica,sans-Serif" font-size="10.00"> m_pixmapRectCoords</text>
</g>
<!-- Node9 -->
<g id="node17" class="node"><title>Node9</title>
<polygon fill="white" stroke="#bfbfbf" points="641.5,-84.5 641.5,-105.5 686.5,-105.5 686.5,-84.5 641.5,-84.5"/>
<text text-anchor="middle" x="664" y="-92.5" font-family="Helvetica,sans-Serif" font-size="10.00">QSize</text>
</g>
<!-- Node9&#45;&gt;Node1 -->
<g id="edge18" class="edge"><title>Node9&#45;&gt;Node1</title>
<path fill="none" stroke="#9a32cd" stroke-dasharray="5,2" d="M656.636,-74.7043C651.173,-62.6367 642.491,-48.1394 630,-40 605.063,-23.7511 527.572,-16.4458 474.295,-13.277"/>
<polygon fill="#9a32cd" stroke="#9a32cd" points="653.447,-76.1531 660.48,-84.0767 659.923,-73.4965 653.447,-76.1531"/>
<text text-anchor="middle" x="699" y="-57" font-family="Helvetica,sans-Serif" font-size="10.00"> m_hugePixmapSize</text>
<text text-anchor="middle" x="699" y="-44" font-family="Helvetica,sans-Serif" font-size="10.00">m_arraySize</text>
</g>
</g>
</svg>
