<?xml version="1.0" encoding="UTF-8" standalone="no"?>
<!DOCTYPE svg PUBLIC "-//W3C//DTD SVG 1.1//EN"
 "http://www.w3.org/Graphics/SVG/1.1/DTD/svg11.dtd">
<!-- Generated by graphviz version 2.26.3 (20100126.1600)
 -->
<!-- Title: GfxEffectGLSLBase Pages: 1 -->
<svg width="499pt" height="176pt"
 viewBox="0.00 0.00 499.00 176.00" xmlns="http://www.w3.org/2000/svg" xmlns:xlink="http://www.w3.org/1999/xlink">
<g id="graph1" class="graph" transform="scale(1 1) rotate(0) translate(4 172)">
<title>GfxEffectGLSLBase</title>
<polygon fill="white" stroke="white" points="-4,5 -4,-172 496,-172 496,5 -4,5"/>
<!-- Node1 -->
<g id="node1" class="node"><title>Node1</title>
<polygon fill="#bfbfbf" stroke="black" points="121.5,-0.5 121.5,-21.5 232.5,-21.5 232.5,-0.5 121.5,-0.5"/>
<text text-anchor="middle" x="177" y="-8.5" font-family="Helvetica,sans-Serif" font-size="10.00">GfxEffectGLSLBase</text>
</g>
<!-- Node2 -->
<g id="node2" class="node"><title>Node2</title>
<a xlink:href="classGfxEffectBase.htm" target="_top" xlink:title="GfxEffectBase">
<polygon fill="white" stroke="black" points="5,-79.5 5,-100.5 89,-100.5 89,-79.5 5,-79.5"/>
<text text-anchor="middle" x="47" y="-87.5" font-family="Helvetica,sans-Serif" font-size="10.00">GfxEffectBase</text>
</a>
</g>
<!-- Node2&#45;&gt;Node1 -->
<g id="edge2" class="edge"><title>Node2&#45;&gt;Node1</title>
<path fill="none" stroke="midnightblue" d="M73.3488,-73.9881C98.9677,-58.4197 137.166,-35.2068 159.33,-21.7378"/>
<polygon fill="midnightblue" stroke="midnightblue" points="71.2605,-71.1614 64.5324,-79.3457 74.8958,-77.1435 71.2605,-71.1614"/>
</g>
<!-- Node3 -->
<g id="node4" class="node"><title>Node3</title>
<a xlink:href="classQGraphicsEffect.htm" target="_top" xlink:title="QGraphicsEffect">
<polygon fill="white" stroke="black" points="-0.5,-146.5 -0.5,-167.5 94.5,-167.5 94.5,-146.5 -0.5,-146.5"/>
<text text-anchor="middle" x="47" y="-154.5" font-family="Helvetica,sans-Serif" font-size="10.00">QGraphicsEffect</text>
</a>
</g>
<!-- Node3&#45;&gt;Node2 -->
<g id="edge4" class="edge"><title>Node3&#45;&gt;Node2</title>
<path fill="none" stroke="midnightblue" d="M47,-135.904C47,-124.127 47,-109.967 47,-100.517"/>
<polygon fill="midnightblue" stroke="midnightblue" points="43.5001,-136.235 47,-146.235 50.5001,-136.235 43.5001,-136.235"/>
</g>
<!-- Node4 -->
<g id="node6" class="node"><title>Node4</title>
<polygon fill="white" stroke="#bfbfbf" points="106.5,-79.5 106.5,-100.5 247.5,-100.5 247.5,-79.5 106.5,-79.5"/>
<text text-anchor="middle" x="177" y="-87.5" font-family="Helvetica,sans-Serif" font-size="10.00">QMap&lt; QString, QString &gt;</text>
</g>
<!-- Node4&#45;&gt;Node1 -->
<g id="edge6" class="edge"><title>Node4&#45;&gt;Node1</title>
<path fill="none" stroke="#9a32cd" stroke-dasharray="5,2" d="M177,-69.2835C177,-54.0307 177,-33.9071 177,-21.7378"/>
<polygon fill="#9a32cd" stroke="#9a32cd" points="173.5,-69.3457 177,-79.3457 180.5,-69.3457 173.5,-69.3457"/>
<text text-anchor="middle" x="259.5" y="-44.5" font-family="Helvetica,sans-Serif" font-size="10.00"> m_localFragmentShaderPrograms</text>
</g>
<!-- Node5 -->
<g id="node8" class="node"><title>Node5</title>
<polygon fill="white" stroke="#bfbfbf" points="304.5,-73 304.5,-107 425.5,-107 425.5,-73 304.5,-73"/>
<text text-anchor="start" x="312.5" y="-94" font-family="Helvetica,sans-Serif" font-size="10.00">static QMap&lt; QString,</text>
<text text-anchor="middle" x="365" y="-81" font-family="Helvetica,sans-Serif" font-size="10.00"> QString &gt;</text>
</g>
<!-- Node5&#45;&gt;Node1 -->
<g id="edge8" class="edge"><title>Node5&#45;&gt;Node1</title>
<path fill="none" stroke="#9a32cd" stroke-dasharray="5,2" d="M358.538,-62.8572C355.229,-54.3587 350.297,-45.7176 343,-40 326.131,-26.7828 274.206,-19.196 232.872,-15.1238"/>
<polygon fill="#9a32cd" stroke="#9a32cd" points="355.285,-64.1693 361.722,-72.5844 361.938,-61.9917 355.285,-64.1693"/>
<text text-anchor="middle" x="422.5" y="-44.5" font-family="Helvetica,sans-Serif" font-size="10.00"> s_fragmentShaderPrograms</text>
</g>
</g>
</svg>
