<?xml version="1.0" encoding="UTF-8" standalone="no"?>
<!DOCTYPE svg PUBLIC "-//W3C//DTD SVG 1.1//EN"
 "http://www.w3.org/Graphics/SVG/1.1/DTD/svg11.dtd">
<!-- Generated by graphviz version 2.26.3 (20100126.1600)
 -->
<!-- Title: IconLayoutSettings Pages: 1 -->
<svg width="1377pt" height="322pt"
 viewBox="0.00 0.00 1376.98 322.00" xmlns="http://www.w3.org/2000/svg" xmlns:xlink="http://www.w3.org/1999/xlink">
<g id="graph1" class="graph" transform="scale(1 1) rotate(0) translate(4 318)">
<title>IconLayoutSettings</title>
<polygon fill="white" stroke="white" points="-4,5 -4,-318 1373.98,-318 1373.98,5 -4,5"/>
<!-- Node1 -->
<g id="node1" class="node"><title>Node1</title>
<polygon fill="#bfbfbf" stroke="black" points="504.484,-0.5 504.484,-21.5 611.484,-21.5 611.484,-0.5 504.484,-0.5"/>
<text text-anchor="middle" x="557.984" y="-8.5" font-family="Helvetica,sans-Serif" font-size="10.00">IconLayoutSettings</text>
</g>
<!-- Node2 -->
<g id="node2" class="node"><title>Node2</title>
<polygon fill="white" stroke="#bfbfbf" points="10.9839,-292.5 10.9839,-313.5 60.9839,-313.5 60.9839,-292.5 10.9839,-292.5"/>
<text text-anchor="middle" x="35.9839" y="-300.5" font-family="Helvetica,sans-Serif" font-size="10.00">QColor</text>
</g>
<!-- Node2&#45;&gt;Node1 -->
<g id="edge2" class="edge"><title>Node2&#45;&gt;Node1</title>
<path fill="none" stroke="#9a32cd" stroke-dasharray="5,2" d="M27.9443,-282.916C9.81719,-233.954 -27.8903,-107.521 35.9839,-40 51.8896,-23.1862 373.921,-14.7541 504.09,-12.0223"/>
<polygon fill="#9a32cd" stroke="#9a32cd" points="24.7267,-284.301 31.5705,-292.389 31.264,-281.798 24.7267,-284.301"/>
<text text-anchor="start" x="35.9839" y="-161" font-family="Helvetica,sans-Serif" font-size="10.00"> reorderablelayout_emptyPage</text>
<text text-anchor="middle" x="108.484" y="-148" font-family="Helvetica,sans-Serif" font-size="10.00">TextFontColor</text>
</g>
<!-- Node3 -->
<g id="node4" class="node"><title>Node3</title>
<polygon fill="white" stroke="#bfbfbf" points="177.484,-292.5 177.484,-313.5 230.484,-313.5 230.484,-292.5 177.484,-292.5"/>
<text text-anchor="middle" x="203.984" y="-300.5" font-family="Helvetica,sans-Serif" font-size="10.00">QString</text>
</g>
<!-- Node3&#45;&gt;Node1 -->
<g id="edge4" class="edge"><title>Node3&#45;&gt;Node1</title>
<path fill="none" stroke="#9a32cd" stroke-dasharray="5,2" d="M200.364,-282.163C191.171,-226.264 169.845,-74.8635 201.984,-40 212.071,-29.0576 407.278,-18.2163 504.25,-13.4796"/>
<polygon fill="#9a32cd" stroke="#9a32cd" points="196.957,-283.007 202.07,-292.287 203.859,-281.844 196.957,-283.007"/>
<text text-anchor="middle" x="284.984" y="-154.5" font-family="Helvetica,sans-Serif" font-size="10.00"> reorderablelayout_emptyPageText</text>
</g>
<!-- Node4 -->
<g id="node6" class="node"><title>Node4</title>
<polygon fill="white" stroke="#bfbfbf" points="374.984,-292.5 374.984,-313.5 410.984,-313.5 410.984,-292.5 374.984,-292.5"/>
<text text-anchor="middle" x="392.984" y="-300.5" font-family="Helvetica,sans-Serif" font-size="10.00">bool</text>
</g>
<!-- Node4&#45;&gt;Node1 -->
<g id="edge6" class="edge"><title>Node4&#45;&gt;Node1</title>
<path fill="none" stroke="#9a32cd" stroke-dasharray="5,2" d="M387.119,-282.57C374.488,-233.814 350.568,-109.543 411.984,-40 424.129,-26.2472 467.722,-18.8288 504.138,-14.9489"/>
<polygon fill="#9a32cd" stroke="#9a32cd" points="383.756,-283.543 389.749,-292.28 390.512,-281.713 383.756,-283.543"/>
<text text-anchor="start" x="411.984" y="-187" font-family="Helvetica,sans-Serif" font-size="10.00"> reorderablelayout_useFixed</text>
<text text-anchor="middle" x="482.984" y="-174" font-family="Helvetica,sans-Serif" font-size="10.00">IconCellSize</text>
<text text-anchor="start" x="411.984" y="-161" font-family="Helvetica,sans-Serif" font-size="10.00">alphabetlayout_useFixedIcon</text>
<text text-anchor="middle" x="482.984" y="-148" font-family="Helvetica,sans-Serif" font-size="10.00">CellSize</text>
<text text-anchor="start" x="411.984" y="-135" font-family="Helvetica,sans-Serif" font-size="10.00">reorderablelayout_emptyPage</text>
<text text-anchor="middle" x="482.984" y="-122" font-family="Helvetica,sans-Serif" font-size="10.00">TextFontEmbolden</text>
</g>
<!-- Node5 -->
<g id="node8" class="node"><title>Node5</title>
<polygon fill="white" stroke="#bfbfbf" points="535.484,-292.5 535.484,-313.5 580.484,-313.5 580.484,-292.5 535.484,-292.5"/>
<text text-anchor="middle" x="557.984" y="-300.5" font-family="Helvetica,sans-Serif" font-size="10.00">QSize</text>
</g>
<!-- Node5&#45;&gt;Node1 -->
<g id="edge8" class="edge"><title>Node5&#45;&gt;Node1</title>
<path fill="none" stroke="#9a32cd" stroke-dasharray="5,2" d="M557.984,-282.158C557.984,-224.474 557.984,-64.1656 557.984,-21.5284"/>
<polygon fill="#9a32cd" stroke="#9a32cd" points="554.484,-282.261 557.984,-292.261 561.484,-282.261 554.484,-282.261"/>
<text text-anchor="start" x="557.984" y="-180.5" font-family="Helvetica,sans-Serif" font-size="10.00"> reorderablelayout_emptyPage</text>
<text text-anchor="middle" x="635.984" y="-167.5" font-family="Helvetica,sans-Serif" font-size="10.00">TextBoxSize</text>
<text text-anchor="start" x="557.984" y="-154.5" font-family="Helvetica,sans-Serif" font-size="10.00">reorderablelayout_fixedIcon</text>
<text text-anchor="middle" x="635.984" y="-141.5" font-family="Helvetica,sans-Serif" font-size="10.00">CellSize</text>
<text text-anchor="middle" x="635.984" y="-128.5" font-family="Helvetica,sans-Serif" font-size="10.00">alphabetlayout_fixedIconCellSize</text>
</g>
<!-- Node6 -->
<g id="node10" class="node"><title>Node6</title>
<polygon fill="white" stroke="#bfbfbf" points="713.984,-292.5 713.984,-313.5 759.984,-313.5 759.984,-292.5 713.984,-292.5"/>
<text text-anchor="middle" x="736.984" y="-300.5" font-family="Helvetica,sans-Serif" font-size="10.00">qint32</text>
</g>
<!-- Node6&#45;&gt;Node1 -->
<g id="edge10" class="edge"><title>Node6&#45;&gt;Node1</title>
<path fill="none" stroke="#9a32cd" stroke-dasharray="5,2" d="M736.672,-282.277C735.589,-223.334 731.127,-57.8292 714.984,-40 701.31,-24.8978 651.573,-17.5774 611.697,-14.0816"/>
<polygon fill="#9a32cd" stroke="#9a32cd" points="733.172,-282.338 736.841,-292.277 740.171,-282.22 733.172,-282.338"/>
<text text-anchor="start" x="736.984" y="-180.5" font-family="Helvetica,sans-Serif" font-size="10.00"> alphabetlayout_iconHoriz</text>
<text text-anchor="middle" x="828.984" y="-167.5" font-family="Helvetica,sans-Serif" font-size="10.00">SpaceAdjustInPixels</text>
<text text-anchor="start" x="736.984" y="-154.5" font-family="Helvetica,sans-Serif" font-size="10.00">reorderablelayout_iconHoriz</text>
<text text-anchor="middle" x="828.984" y="-141.5" font-family="Helvetica,sans-Serif" font-size="10.00">SpaceAdjustInPixels</text>
<text text-anchor="middle" x="828.984" y="-128.5" font-family="Helvetica,sans-Serif" font-size="10.00">alphabetlayout_rowDividerLeftOffsetPx</text>
</g>
<!-- Node7 -->
<g id="node12" class="node"><title>Node7</title>
<polygon fill="white" stroke="#bfbfbf" points="919.484,-292.5 919.484,-313.5 968.484,-313.5 968.484,-292.5 919.484,-292.5"/>
<text text-anchor="middle" x="943.984" y="-300.5" font-family="Helvetica,sans-Serif" font-size="10.00">QPoint</text>
</g>
<!-- Node7&#45;&gt;Node1 -->
<g id="edge12" class="edge"><title>Node7&#45;&gt;Node1</title>
<path fill="none" stroke="#9a32cd" stroke-dasharray="5,2" d="M943.759,-282.194C942.912,-223.026 939.024,-56.9732 921.984,-40 900.481,-18.5816 707.463,-12.9795 611.566,-11.5162"/>
<polygon fill="#9a32cd" stroke="#9a32cd" points="940.259,-282.279 943.887,-292.233 947.259,-282.189 940.259,-282.279"/>
<text text-anchor="start" x="942.984" y="-174" font-family="Helvetica,sans-Serif" font-size="10.00"> reorderablelayout_emptyPage</text>
<text text-anchor="middle" x="1024.48" y="-161" font-family="Helvetica,sans-Serif" font-size="10.00">TextOffsetFromCenter</text>
<text text-anchor="start" x="942.984" y="-148" font-family="Helvetica,sans-Serif" font-size="10.00">reorderablelayout_emptyPageIcon</text>
<text text-anchor="middle" x="1024.48" y="-135" font-family="Helvetica,sans-Serif" font-size="10.00">OffsetFromCenter</text>
</g>
<!-- Node8 -->
<g id="node14" class="node"><title>Node8</title>
<polygon fill="white" stroke="#bfbfbf" points="1104.48,-292.5 1104.48,-313.5 1155.48,-313.5 1155.48,-292.5 1104.48,-292.5"/>
<text text-anchor="middle" x="1129.98" y="-300.5" font-family="Helvetica,sans-Serif" font-size="10.00">quint32</text>
</g>
<!-- Node8&#45;&gt;Node1 -->
<g id="edge14" class="edge"><title>Node8&#45;&gt;Node1</title>
<path fill="none" stroke="#9a32cd" stroke-dasharray="5,2" d="M1136.01,-282.618C1149.32,-232.941 1174.96,-104.942 1107.98,-40 1090.35,-22.9013 746.617,-14.5669 611.689,-11.9441"/>
<polygon fill="#9a32cd" stroke="#9a32cd" points="1132.58,-281.911 1133.25,-292.484 1139.32,-283.797 1132.58,-281.911"/>
<text text-anchor="start" x="1151.98" y="-265" font-family="Helvetica,sans-Serif" font-size="10.00"> reorderablelayout_rowTop</text>
<text text-anchor="middle" x="1260.48" y="-252" font-family="Helvetica,sans-Serif" font-size="10.00">MarginInPixels</text>
<text text-anchor="start" x="1151.98" y="-239" font-family="Helvetica,sans-Serif" font-size="10.00">reorderablelayout_interRow</text>
<text text-anchor="middle" x="1260.48" y="-226" font-family="Helvetica,sans-Serif" font-size="10.00">SpaceInPixels</text>
<text text-anchor="start" x="1151.98" y="-213" font-family="Helvetica,sans-Serif" font-size="10.00">alphabetlayout_rowTopMarginIn</text>
<text text-anchor="middle" x="1260.48" y="-200" font-family="Helvetica,sans-Serif" font-size="10.00">Pixels</text>
<text text-anchor="start" x="1151.98" y="-187" font-family="Helvetica,sans-Serif" font-size="10.00">reorderablelayout_maxIconsPer</text>
<text text-anchor="middle" x="1260.48" y="-174" font-family="Helvetica,sans-Serif" font-size="10.00">Row</text>
<text text-anchor="start" x="1151.98" y="-161" font-family="Helvetica,sans-Serif" font-size="10.00">alphabetlayout_rowDividerTop</text>
<text text-anchor="middle" x="1260.48" y="-148" font-family="Helvetica,sans-Serif" font-size="10.00">OffsetPx</text>
<text text-anchor="start" x="1151.98" y="-135" font-family="Helvetica,sans-Serif" font-size="10.00">reorderablelayout_rowLeftMargin</text>
<text text-anchor="middle" x="1260.48" y="-122" font-family="Helvetica,sans-Serif" font-size="10.00">InPixels</text>
<text text-anchor="start" x="1151.98" y="-109" font-family="Helvetica,sans-Serif" font-size="10.00">alphabetlayout_intraAlphaRowSpace</text>
<text text-anchor="middle" x="1260.48" y="-96" font-family="Helvetica,sans-Serif" font-size="10.00">InPixels</text>
<text text-anchor="middle" x="1260.48" y="-83" font-family="Helvetica,sans-Serif" font-size="10.00">alphabetlayout_maxIconsPerRow</text>
<text text-anchor="middle" x="1260.48" y="-70" font-family="Helvetica,sans-Serif" font-size="10.00">alphabetlayout_rowLeftMarginInPixels</text>
<text text-anchor="middle" x="1260.48" y="-57" font-family="Helvetica,sans-Serif" font-size="10.00">reorderablelayout_emptyPageTextFontSizePx</text>
<text text-anchor="middle" x="1260.48" y="-44" font-family="Helvetica,sans-Serif" font-size="10.00">...</text>
</g>
</g>
</svg>
