<?xml version="1.0" encoding="UTF-8" standalone="no"?>
<!DOCTYPE svg PUBLIC "-//W3C//DTD SVG 1.1//EN"
 "http://www.w3.org/Graphics/SVG/1.1/DTD/svg11.dtd">
<!-- Generated by graphviz version 2.26.3 (20100126.1600)
 -->
<!-- Title: PageMovementControl Pages: 1 -->
<svg width="647pt" height="180pt"
 viewBox="0.00 0.00 647.00 180.00" xmlns="http://www.w3.org/2000/svg" xmlns:xlink="http://www.w3.org/1999/xlink">
<g id="graph1" class="graph" transform="scale(1 1) rotate(0) translate(4 176)">
<title>PageMovementControl</title>
<polygon fill="white" stroke="white" points="-4,5 -4,-176 644,-176 644,5 -4,5"/>
<!-- Node1 -->
<g id="node1" class="node"><title>Node1</title>
<polygon fill="#bfbfbf" stroke="black" points="120.5,-0.5 120.5,-21.5 245.5,-21.5 245.5,-0.5 120.5,-0.5"/>
<text text-anchor="middle" x="183" y="-8.5" font-family="Helvetica,sans-Serif" font-size="10.00">PageMovementControl</text>
</g>
<!-- Node2 -->
<g id="node2" class="node"><title>Node2</title>
<a xlink:href="classQStateMachine.htm" target="_top" xlink:title="QStateMachine">
<polygon fill="white" stroke="black" points="0,-150.5 0,-171.5 90,-171.5 90,-150.5 0,-150.5"/>
<text text-anchor="middle" x="45" y="-158.5" font-family="Helvetica,sans-Serif" font-size="10.00">QStateMachine</text>
</a>
</g>
<!-- Node2&#45;&gt;Node1 -->
<g id="edge2" class="edge"><title>Node2&#45;&gt;Node1</title>
<path fill="none" stroke="midnightblue" d="M52.8773,-140.803C64.0377,-114.493 86.7454,-68.5002 119,-40 127.867,-32.1651 139.203,-26.104 149.864,-21.5974"/>
<polygon fill="midnightblue" stroke="midnightblue" points="49.5991,-139.572 49.0479,-150.153 56.0769,-142.225 49.5991,-139.572"/>
</g>
<!-- Node3 -->
<g id="node4" class="node"><title>Node3</title>
<polygon fill="white" stroke="#bfbfbf" points="108,-150.5 108,-171.5 160,-171.5 160,-150.5 108,-150.5"/>
<text text-anchor="middle" x="134" y="-158.5" font-family="Helvetica,sans-Serif" font-size="10.00">QTimer</text>
</g>
<!-- Node3&#45;&gt;Node1 -->
<g id="edge4" class="edge"><title>Node3&#45;&gt;Node1</title>
<path fill="none" stroke="#9a32cd" stroke-dasharray="5,2" d="M128.437,-140.433C122.786,-115.024 117.156,-71.3246 135,-40 139.53,-32.0477 147.205,-26.0254 155.104,-21.5879"/>
<polygon fill="#9a32cd" stroke="#9a32cd" points="125.101,-141.526 130.871,-150.412 131.901,-139.867 125.101,-141.526"/>
<text text-anchor="middle" x="173" y="-90" font-family="Helvetica,sans-Serif" font-size="10.00"> m_rightTimeout</text>
<text text-anchor="middle" x="173" y="-77" font-family="Helvetica,sans-Serif" font-size="10.00">m_leftTimeout</text>
</g>
<!-- Node4 -->
<g id="node6" class="node"><title>Node4</title>
<polygon fill="white" stroke="#bfbfbf" points="204,-150.5 204,-171.5 262,-171.5 262,-150.5 204,-150.5"/>
<text text-anchor="middle" x="233" y="-158.5" font-family="Helvetica,sans-Serif" font-size="10.00">QState *</text>
</g>
<!-- Node4&#45;&gt;Node1 -->
<g id="edge6" class="edge"><title>Node4&#45;&gt;Node1</title>
<path fill="none" stroke="#9a32cd" stroke-dasharray="5,2" d="M232.827,-140.13C231.828,-115.043 227.56,-72.292 211,-40 207.423,-33.0254 201.617,-26.6027 196.216,-21.5841"/>
<polygon fill="#9a32cd" stroke="#9a32cd" points="229.333,-140.405 233.088,-150.312 236.33,-140.226 229.333,-140.405"/>
<text text-anchor="start" x="232" y="-122.5" font-family="Helvetica,sans-Serif" font-size="10.00"> m_p_pageMovementFSMState</text>
<text text-anchor="middle" x="337.5" y="-109.5" font-family="Helvetica,sans-Serif" font-size="10.00">RestrictLeft</text>
<text text-anchor="start" x="232" y="-96.5" font-family="Helvetica,sans-Serif" font-size="10.00">m_p_pageMovementFSMStateRestrict</text>
<text text-anchor="middle" x="337.5" y="-83.5" font-family="Helvetica,sans-Serif" font-size="10.00">LR</text>
<text text-anchor="start" x="232" y="-70.5" font-family="Helvetica,sans-Serif" font-size="10.00">m_p_pageMovementFSMStateRestrict</text>
<text text-anchor="middle" x="337.5" y="-57.5" font-family="Helvetica,sans-Serif" font-size="10.00">Right</text>
<text text-anchor="middle" x="337.5" y="-44.5" font-family="Helvetica,sans-Serif" font-size="10.00">m_p_pageMovementFSMStateNoRestriction</text>
</g>
<!-- Node5 -->
<g id="node8" class="node"><title>Node5</title>
<polygon fill="white" stroke="#bfbfbf" points="416,-150.5 416,-171.5 518,-171.5 518,-150.5 416,-150.5"/>
<text text-anchor="middle" x="467" y="-158.5" font-family="Helvetica,sans-Serif" font-size="10.00">static const char *</text>
</g>
<!-- Node5&#45;&gt;Node1 -->
<g id="edge8" class="edge"><title>Node5&#45;&gt;Node1</title>
<path fill="none" stroke="#9a32cd" stroke-dasharray="5,2" d="M469.958,-140.344C472.574,-113.093 472.446,-65.5992 445,-40 430.693,-26.6559 318.6,-18.1994 245.74,-14.0549"/>
<polygon fill="#9a32cd" stroke="#9a32cd" points="466.474,-140.005 468.785,-150.344 473.426,-140.82 466.474,-140.005"/>
<text text-anchor="start" x="471" y="-103" font-family="Helvetica,sans-Serif" font-size="10.00"> PageMovementFSMPropertyName</text>
<text text-anchor="middle" x="555" y="-90" font-family="Helvetica,sans-Serif" font-size="10.00">_isPageRightRestricted</text>
<text text-anchor="start" x="471" y="-77" font-family="Helvetica,sans-Serif" font-size="10.00">PageMovementFSMPropertyName</text>
<text text-anchor="middle" x="555" y="-64" font-family="Helvetica,sans-Serif" font-size="10.00">_isPageLeftRestricted</text>
</g>
</g>
</svg>
