<?xml version="1.0" encoding="UTF-8" standalone="no"?>
<!DOCTYPE svg PUBLIC "-//W3C//DTD SVG 1.1//EN"
 "http://www.w3.org/Graphics/SVG/1.1/DTD/svg11.dtd">
<!-- Generated by graphviz version 2.26.3 (20100126.1600)
 -->
<!-- Title: IconRowAlphaRange Pages: 1 -->
<svg width="144pt" height="114pt"
 viewBox="0.00 0.00 144.00 114.00" xmlns="http://www.w3.org/2000/svg" xmlns:xlink="http://www.w3.org/1999/xlink">
<g id="graph1" class="graph" transform="scale(1 1) rotate(0) translate(4 110)">
<title>IconRowAlphaRange</title>
<polygon fill="white" stroke="white" points="-4,5 -4,-110 141,-110 141,5 -4,5"/>
<!-- Node1 -->
<g id="node1" class="node"><title>Node1</title>
<polygon fill="#bfbfbf" stroke="black" points="0,-0.5 0,-21.5 116,-21.5 116,-0.5 0,-0.5"/>
<text text-anchor="middle" x="58" y="-8.5" font-family="Helvetica,sans-Serif" font-size="10.00">IconRowAlphaRange</text>
</g>
<!-- Node2 -->
<g id="node2" class="node"><title>Node2</title>
<polygon fill="white" stroke="#bfbfbf" points="32.5,-84.5 32.5,-105.5 83.5,-105.5 83.5,-84.5 32.5,-84.5"/>
<text text-anchor="middle" x="58" y="-92.5" font-family="Helvetica,sans-Serif" font-size="10.00">quint32</text>
</g>
<!-- Node2&#45;&gt;Node1 -->
<g id="edge2" class="edge"><title>Node2&#45;&gt;Node1</title>
<path fill="none" stroke="#9a32cd" stroke-dasharray="5,2" d="M58,-73.9452C58,-57.2568 58,-34.6387 58,-21.5523"/>
<polygon fill="#9a32cd" stroke="#9a32cd" points="54.5001,-74.3613 58,-84.3613 61.5001,-74.3614 54.5001,-74.3613"/>
<text text-anchor="middle" x="97" y="-57" font-family="Helvetica,sans-Serif" font-size="10.00"> m_endRowNum</text>
<text text-anchor="middle" x="97" y="-44" font-family="Helvetica,sans-Serif" font-size="10.00">m_startRowNum</text>
</g>
</g>
</svg>
