<?xml version="1.0" encoding="UTF-8" standalone="no"?>
<!DOCTYPE svg PUBLIC "-//W3C//DTD SVG 1.1//EN"
 "http://www.w3.org/Graphics/SVG/1.1/DTD/svg11.dtd">
<!-- Generated by graphviz version 2.26.3 (20100126.1600)
 -->
<!-- Title: BannerMessage Pages: 1 -->
<svg width="360pt" height="635pt"
 viewBox="0.00 0.00 360.00 635.14" xmlns="http://www.w3.org/2000/svg" xmlns:xlink="http://www.w3.org/1999/xlink">
<g id="graph1" class="graph" transform="scale(1 1) rotate(0) translate(4 631.139)">
<title>BannerMessage</title>
<polygon fill="white" stroke="white" points="-4,5 -4,-631.139 357,-631.139 357,5 -4,5"/>
<!-- Node1 -->
<g id="node1" class="node"><title>Node1</title>
<polygon fill="#bfbfbf" stroke="black" points="256.5,-334.639 256.5,-355.639 351.5,-355.639 351.5,-334.639 256.5,-334.639"/>
<text text-anchor="middle" x="304" y="-342.639" font-family="Helvetica,sans-Serif" font-size="10.00">BannerMessage</text>
</g>
<!-- Node2 -->
<g id="node2" class="node"><title>Node2</title>
<a xlink:href="classQObject.htm" target="_top" xlink:title="QObject">
<polygon fill="white" stroke="black" points="28.5,-605.639 28.5,-626.639 83.5,-626.639 83.5,-605.639 28.5,-605.639"/>
<text text-anchor="middle" x="56" y="-613.639" font-family="Helvetica,sans-Serif" font-size="10.00">QObject</text>
</a>
</g>
<!-- Node2&#45;&gt;Node1 -->
<g id="edge2" class="edge"><title>Node2&#45;&gt;Node1</title>
<path fill="none" stroke="midnightblue" d="M93.6201,-621.599C134.297,-625.259 198.588,-624.194 238,-589.139 274.233,-556.912 297.094,-398.484 302.668,-355.767"/>
<polygon fill="midnightblue" stroke="midnightblue" points="93.8742,-618.107 83.5662,-620.555 93.1511,-625.069 93.8742,-618.107"/>
</g>
<!-- Node3 -->
<g id="node4" class="node"><title>Node3</title>
<a xlink:href="classQSharedData.htm" target="_top" xlink:title="QSharedData">
<polygon fill="white" stroke="black" points="15,-565.639 15,-586.639 97,-586.639 97,-565.639 15,-565.639"/>
<text text-anchor="middle" x="56" y="-573.639" font-family="Helvetica,sans-Serif" font-size="10.00">QSharedData</text>
</a>
</g>
<!-- Node3&#45;&gt;Node1 -->
<g id="edge4" class="edge"><title>Node3&#45;&gt;Node1</title>
<path fill="none" stroke="midnightblue" d="M107.347,-586.569C147.25,-591.579 201.732,-591.238 238,-562.139 271.632,-535.155 296.022,-395.532 302.37,-355.736"/>
<polygon fill="midnightblue" stroke="midnightblue" points="107.67,-583.08 97.28,-585.155 106.696,-590.012 107.67,-583.08"/>
</g>
<!-- Node4 -->
<g id="node6" class="node"><title>Node4</title>
<polygon fill="white" stroke="#bfbfbf" points="30,-525.639 30,-546.639 82,-546.639 82,-525.639 30,-525.639"/>
<text text-anchor="middle" x="56" y="-533.639" font-family="Helvetica,sans-Serif" font-size="10.00">QTimer</text>
</g>
<!-- Node4&#45;&gt;Node1 -->
<g id="edge6" class="edge"><title>Node4&#45;&gt;Node1</title>
<path fill="none" stroke="#9a32cd" stroke-dasharray="5,2" d="M92.3466,-543.175C132.239,-548.732 196.162,-550.99 238,-519.139 291.984,-478.041 301.813,-387.282 303.602,-355.993"/>
<polygon fill="#9a32cd" stroke="#9a32cd" points="92.6756,-539.685 82.2606,-541.629 91.6145,-546.604 92.6756,-539.685"/>
<text text-anchor="middle" x="184" y="-550.139" font-family="Helvetica,sans-Serif" font-size="10.00"> timer</text>
</g>
<!-- Node5 -->
<g id="node8" class="node"><title>Node5</title>
<polygon fill="white" stroke="#bfbfbf" points="29.5,-481.639 29.5,-502.639 82.5,-502.639 82.5,-481.639 29.5,-481.639"/>
<text text-anchor="middle" x="56" y="-489.639" font-family="Helvetica,sans-Serif" font-size="10.00">QString</text>
</g>
<!-- Node5&#45;&gt;Node1 -->
<g id="edge8" class="edge"><title>Node5&#45;&gt;Node1</title>
<path fill="none" stroke="#9a32cd" stroke-dasharray="5,2" d="M93.0754,-491.643C139.35,-490.354 215.195,-485.829 238,-470.139 278.839,-442.04 296.322,-380.457 301.88,-355.727"/>
<polygon fill="#9a32cd" stroke="#9a32cd" points="92.752,-488.15 82.839,-491.889 92.9202,-495.148 92.752,-488.15"/>
<text text-anchor="middle" x="184" y="-506.139" font-family="Helvetica,sans-Serif" font-size="10.00"> elidedMsg</text>
<text text-anchor="middle" x="184" y="-493.139" font-family="Helvetica,sans-Serif" font-size="10.00">msg</text>
</g>
<!-- Node6 -->
<g id="node10" class="node"><title>Node6</title>
<polygon fill="white" stroke="#bfbfbf" points="0,-412.639 0,-433.639 112,-433.639 112,-412.639 0,-412.639"/>
<text text-anchor="middle" x="56" y="-420.639" font-family="Helvetica,sans-Serif" font-size="10.00">QPropertyAnimation</text>
</g>
<!-- Node6&#45;&gt;Node1 -->
<g id="edge10" class="edge"><title>Node6&#45;&gt;Node1</title>
<path fill="none" stroke="#9a32cd" stroke-dasharray="5,2" d="M122.512,-418.424C157.853,-414.209 201.426,-406.231 238,-391.139 258.915,-382.508 279.79,-366.38 292.299,-355.699"/>
<polygon fill="#9a32cd" stroke="#9a32cd" points="121.851,-414.976 112.301,-419.565 122.628,-421.932 121.851,-414.976"/>
<text text-anchor="middle" x="184" y="-460.139" font-family="Helvetica,sans-Serif" font-size="10.00"> hidePosAnimation</text>
<text text-anchor="middle" x="184" y="-447.139" font-family="Helvetica,sans-Serif" font-size="10.00">showPosAnimation</text>
<text text-anchor="middle" x="184" y="-434.139" font-family="Helvetica,sans-Serif" font-size="10.00">hideOpacityAnimation</text>
<text text-anchor="middle" x="184" y="-421.139" font-family="Helvetica,sans-Serif" font-size="10.00">showOpacityAnimation</text>
</g>
<!-- Node7 -->
<g id="node12" class="node"><title>Node7</title>
<polygon fill="white" stroke="#bfbfbf" points="7,-372.639 7,-393.639 105,-393.639 105,-372.639 7,-372.639"/>
<text text-anchor="middle" x="56" y="-380.639" font-family="Helvetica,sans-Serif" font-size="10.00">QStateMachine *</text>
</g>
<!-- Node7&#45;&gt;Node1 -->
<g id="edge12" class="edge"><title>Node7&#45;&gt;Node1</title>
<path fill="none" stroke="#9a32cd" stroke-dasharray="5,2" d="M115.441,-376.486C151.086,-372.202 197.261,-366.135 238,-359.139 244.003,-358.108 250.29,-356.918 256.499,-355.677"/>
<polygon fill="#9a32cd" stroke="#9a32cd" points="114.725,-373.046 105.208,-377.702 115.551,-379.998 114.725,-373.046"/>
<text text-anchor="middle" x="184" y="-378.139" font-family="Helvetica,sans-Serif" font-size="10.00"> stateMachine</text>
</g>
<!-- Node8 -->
<g id="node14" class="node"><title>Node8</title>
<polygon fill="white" stroke="#bfbfbf" points="29,-332.639 29,-353.639 83,-353.639 83,-332.639 29,-332.639"/>
<text text-anchor="middle" x="56" y="-340.639" font-family="Helvetica,sans-Serif" font-size="10.00">uint32_t</text>
</g>
<!-- Node8&#45;&gt;Node1 -->
<g id="edge14" class="edge"><title>Node8&#45;&gt;Node1</title>
<path fill="none" stroke="#9a32cd" stroke-dasharray="5,2" d="M93.1508,-343.438C136.615,-343.789 208.675,-344.37 256.253,-344.754"/>
<polygon fill="#9a32cd" stroke="#9a32cd" points="93.0404,-339.937 83.0124,-343.357 92.9839,-346.937 93.0404,-339.937"/>
<text text-anchor="middle" x="184" y="-348.139" font-family="Helvetica,sans-Serif" font-size="10.00"> timerStartTime</text>
</g>
<!-- Node9 -->
<g id="node16" class="node"><title>Node9</title>
<polygon fill="white" stroke="#bfbfbf" points="26.5,-292.639 26.5,-313.639 85.5,-313.639 85.5,-292.639 26.5,-292.639"/>
<text text-anchor="middle" x="56" y="-300.639" font-family="Helvetica,sans-Serif" font-size="10.00">QPixmap</text>
</g>
<!-- Node9&#45;&gt;Node1 -->
<g id="edge16" class="edge"><title>Node9&#45;&gt;Node1</title>
<path fill="none" stroke="#9a32cd" stroke-dasharray="5,2" d="M95.9254,-306.394C132.995,-309.839 189.592,-316.174 238,-326.139 248.861,-328.374 260.541,-331.493 271.012,-334.558"/>
<polygon fill="#9a32cd" stroke="#9a32cd" points="95.819,-302.871 85.545,-305.458 95.1902,-309.842 95.819,-302.871"/>
<text text-anchor="middle" x="184" y="-330.139" font-family="Helvetica,sans-Serif" font-size="10.00"> pixmap</text>
</g>
<!-- Node10 -->
<g id="node18" class="node"><title>Node10</title>
<polygon fill="white" stroke="#bfbfbf" points="35.5,-249.639 35.5,-270.639 76.5,-270.639 76.5,-249.639 35.5,-249.639"/>
<text text-anchor="middle" x="56" y="-257.639" font-family="Helvetica,sans-Serif" font-size="10.00">qreal</text>
</g>
<!-- Node10&#45;&gt;Node1 -->
<g id="edge18" class="edge"><title>Node10&#45;&gt;Node1</title>
<path fill="none" stroke="#9a32cd" stroke-dasharray="5,2" d="M86.8782,-257.289C124.49,-255.144 189.058,-255.816 238,-279.139 264.331,-291.687 286.264,-319.218 296.965,-334.46"/>
<polygon fill="#9a32cd" stroke="#9a32cd" points="86.3094,-253.82 76.5689,-257.988 86.7826,-260.804 86.3094,-253.82"/>
<text text-anchor="middle" x="184" y="-296.139" font-family="Helvetica,sans-Serif" font-size="10.00"> alpha</text>
<text text-anchor="middle" x="184" y="-283.139" font-family="Helvetica,sans-Serif" font-size="10.00">posAnimProg</text>
</g>
<!-- Node11 -->
<g id="node20" class="node"><title>Node11</title>
<a xlink:href="classint.htm" target="_top" xlink:title="int">
<polygon fill="white" stroke="black" points="41.5,-200.639 41.5,-221.639 70.5,-221.639 70.5,-200.639 41.5,-200.639"/>
<text text-anchor="middle" x="56" y="-208.639" font-family="Helvetica,sans-Serif" font-size="10.00">int</text>
</a>
</g>
<!-- Node11&#45;&gt;Node1 -->
<g id="edge20" class="edge"><title>Node11&#45;&gt;Node1</title>
<path fill="none" stroke="#9a32cd" stroke-dasharray="5,2" d="M80.6598,-206.331C117.962,-200.464 189.516,-194.834 238,-226.139 277.893,-251.896 295.828,-310.566 301.694,-334.587"/>
<polygon fill="#9a32cd" stroke="#9a32cd" points="79.9362,-202.904 70.6696,-208.04 81.1167,-209.804 79.9362,-202.904"/>
<text text-anchor="middle" x="184" y="-243.139" font-family="Helvetica,sans-Serif" font-size="10.00"> soundDuration</text>
<text text-anchor="middle" x="184" y="-230.139" font-family="Helvetica,sans-Serif" font-size="10.00">elidedWidth</text>
</g>
<!-- Node12 -->
<g id="node22" class="node"><title>Node12</title>
<polygon fill="white" stroke="#bfbfbf" points="38,-151.639 38,-172.639 74,-172.639 74,-151.639 38,-151.639"/>
<text text-anchor="middle" x="56" y="-159.639" font-family="Helvetica,sans-Serif" font-size="10.00">bool</text>
</g>
<!-- Node12&#45;&gt;Node1 -->
<g id="edge22" class="edge"><title>Node12&#45;&gt;Node1</title>
<path fill="none" stroke="#9a32cd" stroke-dasharray="5,2" d="M84.1465,-154.817C122.789,-146.539 192.632,-138.141 238,-171.139 265.957,-191.473 293.294,-299.401 301.511,-334.267"/>
<polygon fill="#9a32cd" stroke="#9a32cd" points="83.0866,-151.469 74.121,-157.114 84.6501,-158.292 83.0866,-151.469"/>
<text text-anchor="middle" x="184" y="-188.139" font-family="Helvetica,sans-Serif" font-size="10.00"> triggered</text>
<text text-anchor="middle" x="184" y="-175.139" font-family="Helvetica,sans-Serif" font-size="10.00">doNotSuppress</text>
</g>
<!-- Node13 -->
<g id="node24" class="node"><title>Node13</title>
<polygon fill="white" stroke="#bfbfbf" points="34.5,-50.6387 34.5,-71.6387 77.5,-71.6387 77.5,-50.6387 34.5,-50.6387"/>
<text text-anchor="middle" x="56" y="-58.6387" font-family="Helvetica,sans-Serif" font-size="10.00">string</text>
</g>
<!-- Node13&#45;&gt;Node1 -->
<g id="edge24" class="edge"><title>Node13&#45;&gt;Node1</title>
<path fill="none" stroke="#9a32cd" stroke-dasharray="5,2" d="M87.3097,-51.3492C127.011,-41.0493 195.408,-30.6507 238,-65.1387 281.375,-100.26 299.319,-287.475 303.176,-334.444"/>
<polygon fill="#9a32cd" stroke="#9a32cd" points="86.3465,-47.984 77.6302,-54.007 88.2,-54.7342 86.3465,-47.984"/>
<text text-anchor="middle" x="184" y="-134.139" font-family="Helvetica,sans-Serif" font-size="10.00"> msgId</text>
<text text-anchor="middle" x="184" y="-121.139" font-family="Helvetica,sans-Serif" font-size="10.00">appId</text>
<text text-anchor="middle" x="184" y="-108.139" font-family="Helvetica,sans-Serif" font-size="10.00">icon</text>
<text text-anchor="middle" x="184" y="-95.1387" font-family="Helvetica,sans-Serif" font-size="10.00">soundFile</text>
<text text-anchor="middle" x="184" y="-82.1387" font-family="Helvetica,sans-Serif" font-size="10.00">launchParams</text>
<text text-anchor="middle" x="184" y="-69.1387" font-family="Helvetica,sans-Serif" font-size="10.00">soundClass</text>
</g>
<!-- Node14 -->
<g id="node26" class="node"><title>Node14</title>
<polygon fill="white" stroke="#bfbfbf" points="16,-10.6387 16,-31.6387 96,-31.6387 96,-10.6387 16,-10.6387"/>
<text text-anchor="middle" x="56" y="-18.6387" font-family="Helvetica,sans-Serif" font-size="10.00">QFontMetrics</text>
</g>
<!-- Node14&#45;&gt;Node1 -->
<g id="edge26" class="edge"><title>Node14&#45;&gt;Node1</title>
<path fill="none" stroke="#9a32cd" stroke-dasharray="5,2" d="M98.6171,-8.12853C139.167,1.3957 199.538,7.75088 238,-24.1387 287.492,-65.1738 301.037,-283.93 303.532,-334.638"/>
<polygon fill="#9a32cd" stroke="#9a32cd" points="97.6106,-4.77242 88.7604,-10.5969 99.3111,-11.5627 97.6106,-4.77242"/>
<text text-anchor="middle" x="184" y="-28.1387" font-family="Helvetica,sans-Serif" font-size="10.00"> fontMetrics</text>
</g>
</g>
</svg>
