<?xml version="1.0" encoding="UTF-8" standalone="no"?>
<!DOCTYPE svg PUBLIC "-//W3C//DTD SVG 1.1//EN"
 "http://www.w3.org/Graphics/SVG/1.1/DTD/svg11.dtd">
<!-- Generated by graphviz version 2.26.3 (20100126.1600)
 -->
<!-- Title: IconRow Pages: 1 -->
<svg width="1028pt" height="258pt"
 viewBox="0.00 0.00 1028.00 258.00" xmlns="http://www.w3.org/2000/svg" xmlns:xlink="http://www.w3.org/1999/xlink">
<g id="graph1" class="graph" transform="scale(1 1) rotate(0) translate(4 254)">
<title>IconRow</title>
<polygon fill="white" stroke="white" points="-4,5 -4,-254 1025,-254 1025,5 -4,5"/>
<!-- Node1 -->
<g id="node1" class="node"><title>Node1</title>
<polygon fill="#bfbfbf" stroke="black" points="477,-0.5 477,-21.5 535,-21.5 535,-0.5 477,-0.5"/>
<text text-anchor="middle" x="506" y="-8.5" font-family="Helvetica,sans-Serif" font-size="10.00">IconRow</text>
</g>
<!-- Node2 -->
<g id="node2" class="node"><title>Node2</title>
<a xlink:href="classLayoutItem.htm" target="_top" xlink:title="LayoutItem">
<polygon fill="white" stroke="black" points="0,-168.5 0,-189.5 68,-189.5 68,-168.5 0,-168.5"/>
<text text-anchor="middle" x="34" y="-176.5" font-family="Helvetica,sans-Serif" font-size="10.00">LayoutItem</text>
</a>
</g>
<!-- Node2&#45;&gt;Node1 -->
<g id="edge2" class="edge"><title>Node2&#45;&gt;Node1</title>
<path fill="none" stroke="midnightblue" d="M45.7713,-159.658C53.2319,-148.403 63.6037,-134.425 75,-124 129.386,-74.2478 147.736,-62.2737 218,-40 265.664,-24.8904 413.253,-15.7479 476.614,-12.4257"/>
<polygon fill="midnightblue" stroke="midnightblue" points="42.663,-158.022 40.2305,-168.334 48.5626,-161.79 42.663,-158.022"/>
</g>
<!-- Node4 -->
<g id="node6" class="node"><title>Node4</title>
<a xlink:href="classIconLayout.htm" target="_top" xlink:title="IconLayout">
<polygon fill="white" stroke="black" points="224,-84.5 224,-105.5 292,-105.5 292,-84.5 224,-84.5"/>
<text text-anchor="middle" x="258" y="-92.5" font-family="Helvetica,sans-Serif" font-size="10.00">IconLayout</text>
</a>
</g>
<!-- Node2&#45;&gt;Node4 -->
<g id="edge8" class="edge"><title>Node2&#45;&gt;Node4</title>
<path fill="none" stroke="midnightblue" d="M57.4883,-162.685C76.1188,-150.429 103.224,-134.085 129,-124 159.996,-111.872 197.265,-104.179 223.756,-99.788"/>
<polygon fill="midnightblue" stroke="midnightblue" points="55.4259,-159.853 49.0661,-168.327 59.3221,-165.669 55.4259,-159.853"/>
</g>
<!-- Node3 -->
<g id="node4" class="node"><title>Node3</title>
<a xlink:href="classQObject.htm" target="_top" xlink:title="QObject">
<polygon fill="white" stroke="black" points="6.5,-228.5 6.5,-249.5 61.5,-249.5 61.5,-228.5 6.5,-228.5"/>
<text text-anchor="middle" x="34" y="-236.5" font-family="Helvetica,sans-Serif" font-size="10.00">QObject</text>
</a>
</g>
<!-- Node3&#45;&gt;Node2 -->
<g id="edge4" class="edge"><title>Node3&#45;&gt;Node2</title>
<path fill="none" stroke="midnightblue" d="M34,-218.231C34,-208.592 34,-197.544 34,-189.634"/>
<polygon fill="midnightblue" stroke="midnightblue" points="30.5001,-218.273 34,-228.273 37.5001,-218.273 30.5001,-218.273"/>
</g>
<!-- Node4&#45;&gt;Node1 -->
<g id="edge6" class="edge"><title>Node4&#45;&gt;Node1</title>
<path fill="none" stroke="#9a32cd" stroke-dasharray="5,2" d="M293.559,-80.6552C322.941,-69.0324 365.868,-52.5789 404,-40 428.302,-31.9833 456.285,-24.1226 476.786,-18.6119"/>
<polygon fill="#9a32cd" stroke="#9a32cd" points="292.14,-77.4527 284.14,-84.3991 294.726,-83.9576 292.14,-77.4527"/>
<text text-anchor="middle" x="448" y="-50.5" font-family="Helvetica,sans-Serif" font-size="10.00"> m_p_layoutObject</text>
</g>
<!-- Node5 -->
<g id="node9" class="node"><title>Node5</title>
<polygon fill="white" stroke="#bfbfbf" points="85.5,-168.5 85.5,-189.5 140.5,-189.5 140.5,-168.5 85.5,-168.5"/>
<text text-anchor="middle" x="113" y="-176.5" font-family="Helvetica,sans-Serif" font-size="10.00">QPointF</text>
</g>
<!-- Node5&#45;&gt;Node1 -->
<g id="edge18" class="edge"><title>Node5&#45;&gt;Node1</title>
<path fill="none" stroke="#9a32cd" stroke-dasharray="5,2" d="M115.84,-158.492C118.093,-147.546 122.067,-134.257 129,-124 145.132,-100.134 154.409,-97.2266 180,-84 280.729,-31.9379 417.732,-16.8193 476.861,-12.5811"/>
<polygon fill="#9a32cd" stroke="#9a32cd" points="112.372,-158.007 114.114,-168.457 119.269,-159.201 112.372,-158.007"/>
<text text-anchor="middle" x="197.5" y="-92.5" font-family="Helvetica,sans-Serif" font-size="10.00"> m_pos</text>
</g>
<!-- Node5&#45;&gt;Node4 -->
<g id="edge10" class="edge"><title>Node5&#45;&gt;Node4</title>
<path fill="none" stroke="#9a32cd" stroke-dasharray="5,2" d="M124.954,-160.064C133.399,-148.124 145.727,-133.263 160,-124 179.199,-111.539 203.934,-104.273 223.75,-100.13"/>
<polygon fill="#9a32cd" stroke="#9a32cd" points="121.966,-158.235 119.285,-168.485 127.773,-162.144 121.966,-158.235"/>
<text text-anchor="middle" x="177.5" y="-134.5" font-family="Helvetica,sans-Serif" font-size="10.00"> m_pos</text>
</g>
<!-- Node6 -->
<g id="node11" class="node"><title>Node6</title>
<polygon fill="white" stroke="#bfbfbf" points="449.5,-168.5 449.5,-189.5 502.5,-189.5 502.5,-168.5 449.5,-168.5"/>
<text text-anchor="middle" x="476" y="-176.5" font-family="Helvetica,sans-Serif" font-size="10.00">QRectF</text>
</g>
<!-- Node6&#45;&gt;Node1 -->
<g id="edge22" class="edge"><title>Node6&#45;&gt;Node1</title>
<path fill="none" stroke="#9a32cd" stroke-dasharray="5,2" d="M488.048,-159.665C489.596,-156.525 490.99,-153.239 492,-150 506.368,-103.923 506.858,-45.4886 506.364,-21.7515"/>
<polygon fill="#9a32cd" stroke="#9a32cd" points="484.964,-158.009 483.175,-168.451 491.086,-161.404 484.964,-158.009"/>
<text text-anchor="middle" x="526" y="-92.5" font-family="Helvetica,sans-Serif" font-size="10.00"> m_geom</text>
</g>
<!-- Node6&#45;&gt;Node4 -->
<g id="edge12" class="edge"><title>Node6&#45;&gt;Node4</title>
<path fill="none" stroke="#9a32cd" stroke-dasharray="5,2" d="M458.672,-160.949C444.013,-145.855 424.665,-126.41 420,-124 398.232,-112.757 332.925,-103.563 292.184,-98.718"/>
<polygon fill="#9a32cd" stroke="#9a32cd" points="456.341,-163.574 465.807,-168.333 461.375,-158.71 456.341,-163.574"/>
<text text-anchor="middle" x="469" y="-134.5" font-family="Helvetica,sans-Serif" font-size="10.00"> m_geom</text>
</g>
<!-- Node7 -->
<g id="node13" class="node"><title>Node7</title>
<polygon fill="white" stroke="#bfbfbf" points="157.5,-168.5 157.5,-189.5 258.5,-189.5 258.5,-168.5 157.5,-168.5"/>
<text text-anchor="middle" x="208" y="-176.5" font-family="Helvetica,sans-Serif" font-size="10.00">QPointer&lt; Page &gt;</text>
</g>
<!-- Node7&#45;&gt;Node4 -->
<g id="edge14" class="edge"><title>Node7&#45;&gt;Node4</title>
<path fill="none" stroke="#9a32cd" stroke-dasharray="5,2" d="M200.601,-158.805C197.87,-147.786 196.77,-134.328 203,-124 207.907,-115.866 215.939,-109.897 224.368,-105.567"/>
<polygon fill="#9a32cd" stroke="#9a32cd" points="197.273,-159.892 203.532,-168.44 203.97,-157.854 197.273,-159.892"/>
<text text-anchor="middle" x="248" y="-134.5" font-family="Helvetica,sans-Serif" font-size="10.00"> m_qp_ownerPage</text>
</g>
<!-- Node8 -->
<g id="node15" class="node"><title>Node8</title>
<polygon fill="white" stroke="#bfbfbf" points="278,-168.5 278,-189.5 352,-189.5 352,-168.5 278,-168.5"/>
<text text-anchor="middle" x="315" y="-176.5" font-family="Helvetica,sans-Serif" font-size="10.00">QTransform</text>
</g>
<!-- Node8&#45;&gt;Node4 -->
<g id="edge16" class="edge"><title>Node8&#45;&gt;Node4</title>
<path fill="none" stroke="#9a32cd" stroke-dasharray="5,2" d="M309.388,-158.168C305.819,-147.32 300.449,-134.223 293,-124 287.888,-116.984 280.707,-110.644 274.179,-105.693"/>
<polygon fill="#9a32cd" stroke="#9a32cd" points="306.136,-159.508 312.367,-168.077 312.839,-157.493 306.136,-159.508"/>
<text text-anchor="middle" x="361.5" y="-141" font-family="Helvetica,sans-Serif" font-size="10.00"> m_pageToLayoutTran</text>
<text text-anchor="middle" x="361.5" y="-128" font-family="Helvetica,sans-Serif" font-size="10.00">m_layoutToPageTran</text>
</g>
<!-- Node9 -->
<g id="node18" class="node"><title>Node9</title>
<polygon fill="white" stroke="#bfbfbf" points="568,-84.5 568,-105.5 674,-105.5 674,-84.5 568,-84.5"/>
<text text-anchor="middle" x="621" y="-92.5" font-family="Helvetica,sans-Serif" font-size="10.00">QList&lt; IconCell * &gt;</text>
</g>
<!-- Node9&#45;&gt;Node1 -->
<g id="edge20" class="edge"><title>Node9&#45;&gt;Node1</title>
<path fill="none" stroke="#9a32cd" stroke-dasharray="5,2" d="M598.217,-78.3583C575.094,-61.4685 539.999,-35.8341 520.447,-21.5523"/>
<polygon fill="#9a32cd" stroke="#9a32cd" points="596.295,-81.2892 606.435,-84.3613 600.424,-75.6366 596.295,-81.2892"/>
<text text-anchor="middle" x="607" y="-50.5" font-family="Helvetica,sans-Serif" font-size="10.00"> m_iconList</text>
</g>
<!-- Node10 -->
<g id="node21" class="node"><title>Node10</title>
<polygon fill="white" stroke="#bfbfbf" points="691.5,-84.5 691.5,-105.5 738.5,-105.5 738.5,-84.5 691.5,-84.5"/>
<text text-anchor="middle" x="715" y="-92.5" font-family="Helvetica,sans-Serif" font-size="10.00">QRect</text>
</g>
<!-- Node10&#45;&gt;Node1 -->
<g id="edge24" class="edge"><title>Node10&#45;&gt;Node1</title>
<path fill="none" stroke="#9a32cd" stroke-dasharray="5,2" d="M695.507,-77.6588C680.71,-65.3854 659.333,-49.4823 638,-40 604.445,-25.0856 562.585,-17.5684 535.114,-13.9781"/>
<polygon fill="#9a32cd" stroke="#9a32cd" points="693.527,-80.5699 703.409,-84.3898 698.066,-75.241 693.527,-80.5699"/>
<text text-anchor="middle" x="758" y="-50.5" font-family="Helvetica,sans-Serif" font-size="10.00"> m_lastPaintedPixmapTargetRect</text>
</g>
<!-- Node11 -->
<g id="node23" class="node"><title>Node11</title>
<polygon fill="white" stroke="#bfbfbf" points="861.5,-84.5 861.5,-105.5 912.5,-105.5 912.5,-84.5 861.5,-84.5"/>
<text text-anchor="middle" x="887" y="-92.5" font-family="Helvetica,sans-Serif" font-size="10.00">quint32</text>
</g>
<!-- Node11&#45;&gt;Node1 -->
<g id="edge26" class="edge"><title>Node11&#45;&gt;Node1</title>
<path fill="none" stroke="#9a32cd" stroke-dasharray="5,2" d="M876.237,-75.5206C868.246,-63.0912 856.131,-47.8834 841,-40 814.208,-26.0412 611.713,-15.6955 535.177,-12.2464"/>
<polygon fill="#9a32cd" stroke="#9a32cd" points="873.373,-77.5499 881.525,-84.3166 879.372,-73.9428 873.373,-77.5499"/>
<text text-anchor="middle" x="944.5" y="-57" font-family="Helvetica,sans-Serif" font-size="10.00"> m_spaceToUpperAdjacentRow</text>
<text text-anchor="middle" x="944.5" y="-44" font-family="Helvetica,sans-Serif" font-size="10.00">m_spaceToLowerAdjacentRow</text>
</g>
</g>
</svg>
