<?xml version="1.0" encoding="UTF-8" standalone="no"?>
<!DOCTYPE svg PUBLIC "-//W3C//DTD SVG 1.1//EN"
 "http://www.w3.org/Graphics/SVG/1.1/DTD/svg11.dtd">
<!-- Generated by graphviz version 2.26.3 (20100126.1600)
 -->
<!-- Title: AlphabetIconLayout Pages: 1 -->
<svg width="118pt" height="204pt"
 viewBox="0.00 0.00 118.00 204.00" xmlns="http://www.w3.org/2000/svg" xmlns:xlink="http://www.w3.org/1999/xlink">
<g id="graph1" class="graph" transform="scale(1 1) rotate(0) translate(4 200)">
<title>AlphabetIconLayout</title>
<polygon fill="white" stroke="white" points="-4,5 -4,-200 115,-200 115,5 -4,5"/>
<!-- Node1 -->
<g id="node1" class="node"><title>Node1</title>
<polygon fill="#bfbfbf" stroke="black" points="0,-0.5 0,-21.5 110,-21.5 110,-0.5 0,-0.5"/>
<text text-anchor="middle" x="55" y="-8.5" font-family="Helvetica,sans-Serif" font-size="10.00">AlphabetIconLayout</text>
</g>
<!-- Node2 -->
<g id="node2" class="node"><title>Node2</title>
<a xlink:href="classIconLayout.htm" target="_top" xlink:title="IconLayout">
<polygon fill="white" stroke="black" points="21,-58.5 21,-79.5 89,-79.5 89,-58.5 21,-58.5"/>
<text text-anchor="middle" x="55" y="-66.5" font-family="Helvetica,sans-Serif" font-size="10.00">IconLayout</text>
</a>
</g>
<!-- Node2&#45;&gt;Node1 -->
<g id="edge2" class="edge"><title>Node2&#45;&gt;Node1</title>
<path fill="none" stroke="midnightblue" d="M55,-48.1906C55,-39.1684 55,-28.9941 55,-21.5707"/>
<polygon fill="midnightblue" stroke="midnightblue" points="51.5001,-48.3619 55,-58.3619 58.5001,-48.3619 51.5001,-48.3619"/>
</g>
<!-- Node3 -->
<g id="node4" class="node"><title>Node3</title>
<a xlink:href="classLayoutItem.htm" target="_top" xlink:title="LayoutItem">
<polygon fill="white" stroke="black" points="21,-116.5 21,-137.5 89,-137.5 89,-116.5 21,-116.5"/>
<text text-anchor="middle" x="55" y="-124.5" font-family="Helvetica,sans-Serif" font-size="10.00">LayoutItem</text>
</a>
</g>
<!-- Node3&#45;&gt;Node2 -->
<g id="edge4" class="edge"><title>Node3&#45;&gt;Node2</title>
<path fill="none" stroke="midnightblue" d="M55,-106.191C55,-97.1684 55,-86.9941 55,-79.5707"/>
<polygon fill="midnightblue" stroke="midnightblue" points="51.5001,-106.362 55,-116.362 58.5001,-106.362 51.5001,-106.362"/>
</g>
<!-- Node4 -->
<g id="node6" class="node"><title>Node4</title>
<a xlink:href="classQObject.htm" target="_top" xlink:title="QObject">
<polygon fill="white" stroke="black" points="27.5,-174.5 27.5,-195.5 82.5,-195.5 82.5,-174.5 27.5,-174.5"/>
<text text-anchor="middle" x="55" y="-182.5" font-family="Helvetica,sans-Serif" font-size="10.00">QObject</text>
</a>
</g>
<!-- Node4&#45;&gt;Node3 -->
<g id="edge6" class="edge"><title>Node4&#45;&gt;Node3</title>
<path fill="none" stroke="midnightblue" d="M55,-164.191C55,-155.168 55,-144.994 55,-137.571"/>
<polygon fill="midnightblue" stroke="midnightblue" points="51.5001,-164.362 55,-174.362 58.5001,-164.362 51.5001,-164.362"/>
</g>
</g>
</svg>
