<?xml version="1.0" encoding="UTF-8" standalone="no"?>
<!DOCTYPE svg PUBLIC "-//W3C//DTD SVG 1.1//EN"
 "http://www.w3.org/Graphics/SVG/1.1/DTD/svg11.dtd">
<!-- Generated by graphviz version 2.26.3 (20100126.1600)
 -->
<!-- Title: LayoutItem Pages: 1 -->
<svg width="364pt" height="204pt"
 viewBox="0.00 0.00 364.00 204.00" xmlns="http://www.w3.org/2000/svg" xmlns:xlink="http://www.w3.org/1999/xlink">
<g id="graph1" class="graph" transform="scale(1 1) rotate(0) translate(4 200)">
<title>LayoutItem</title>
<polygon fill="white" stroke="white" points="-4,5 -4,-200 361,-200 361,5 -4,5"/>
<!-- Node1 -->
<g id="node1" class="node"><title>Node1</title>
<polygon fill="#bfbfbf" stroke="black" points="157,-116.5 157,-137.5 225,-137.5 225,-116.5 157,-116.5"/>
<text text-anchor="middle" x="191" y="-124.5" font-family="Helvetica,sans-Serif" font-size="10.00">LayoutItem</text>
</g>
<!-- Node3 -->
<g id="node5" class="node"><title>Node3</title>
<a xlink:href="classIconCell.htm" target="_top" xlink:title="IconCell">
<polygon fill="white" stroke="black" points="84.5,-58.5 84.5,-79.5 139.5,-79.5 139.5,-58.5 84.5,-58.5"/>
<text text-anchor="middle" x="112" y="-66.5" font-family="Helvetica,sans-Serif" font-size="10.00">IconCell</text>
</a>
</g>
<!-- Node1&#45;&gt;Node3 -->
<g id="edge4" class="edge"><title>Node1&#45;&gt;Node3</title>
<path fill="none" stroke="midnightblue" d="M168.197,-110.259C154.72,-100.364 138.065,-88.1361 126.398,-79.5707"/>
<polygon fill="midnightblue" stroke="midnightblue" points="166.378,-113.265 176.51,-116.362 170.521,-107.623 166.378,-113.265"/>
</g>
<!-- Node4 -->
<g id="node7" class="node"><title>Node4</title>
<a xlink:href="classIconLayout.htm" target="_top" xlink:title="IconLayout">
<polygon fill="white" stroke="black" points="157,-58.5 157,-79.5 225,-79.5 225,-58.5 157,-58.5"/>
<text text-anchor="middle" x="191" y="-66.5" font-family="Helvetica,sans-Serif" font-size="10.00">IconLayout</text>
</a>
</g>
<!-- Node1&#45;&gt;Node4 -->
<g id="edge6" class="edge"><title>Node1&#45;&gt;Node4</title>
<path fill="none" stroke="midnightblue" d="M191,-106.191C191,-97.1684 191,-86.9941 191,-79.5707"/>
<polygon fill="midnightblue" stroke="midnightblue" points="187.5,-106.362 191,-116.362 194.5,-106.362 187.5,-106.362"/>
</g>
<!-- Node7 -->
<g id="node13" class="node"><title>Node7</title>
<a xlink:href="classIconRow.htm" target="_top" xlink:title="IconRow">
<polygon fill="white" stroke="black" points="264,-58.5 264,-79.5 322,-79.5 322,-58.5 264,-58.5"/>
<text text-anchor="middle" x="293" y="-66.5" font-family="Helvetica,sans-Serif" font-size="10.00">IconRow</text>
</a>
</g>
<!-- Node1&#45;&gt;Node7 -->
<g id="edge12" class="edge"><title>Node1&#45;&gt;Node7</title>
<path fill="none" stroke="midnightblue" d="M218.471,-111.379C236.195,-101.301 258.773,-88.4624 274.41,-79.5707"/>
<polygon fill="midnightblue" stroke="midnightblue" points="216.671,-108.376 209.708,-116.362 220.131,-114.461 216.671,-108.376"/>
</g>
<!-- Node2 -->
<g id="node2" class="node"><title>Node2</title>
<a xlink:href="classQObject.htm" target="_top" xlink:title="QObject">
<polygon fill="white" stroke="black" points="163.5,-174.5 163.5,-195.5 218.5,-195.5 218.5,-174.5 163.5,-174.5"/>
<text text-anchor="middle" x="191" y="-182.5" font-family="Helvetica,sans-Serif" font-size="10.00">QObject</text>
</a>
</g>
<!-- Node2&#45;&gt;Node1 -->
<g id="edge2" class="edge"><title>Node2&#45;&gt;Node1</title>
<path fill="none" stroke="midnightblue" d="M191,-164.191C191,-155.168 191,-144.994 191,-137.571"/>
<polygon fill="midnightblue" stroke="midnightblue" points="187.5,-164.362 191,-174.362 194.5,-164.362 187.5,-164.362"/>
</g>
<!-- Node5 -->
<g id="node9" class="node"><title>Node5</title>
<a xlink:href="classAlphabetIconLayout.htm" target="_top" xlink:title="AlphabetIconLayout">
<polygon fill="white" stroke="black" points="0,-0.5 0,-21.5 110,-21.5 110,-0.5 0,-0.5"/>
<text text-anchor="middle" x="55" y="-8.5" font-family="Helvetica,sans-Serif" font-size="10.00">AlphabetIconLayout</text>
</a>
</g>
<!-- Node4&#45;&gt;Node5 -->
<g id="edge8" class="edge"><title>Node4&#45;&gt;Node5</title>
<path fill="none" stroke="midnightblue" d="M156.952,-54.4794C133.011,-44.2695 101.518,-30.8386 79.9049,-21.6212"/>
<polygon fill="midnightblue" stroke="midnightblue" points="155.8,-57.7932 166.371,-58.4966 158.546,-51.3543 155.8,-57.7932"/>
</g>
<!-- Node6 -->
<g id="node11" class="node"><title>Node6</title>
<a xlink:href="classReorderableIconLayout.htm" target="_top" xlink:title="ReorderableIconLayout">
<polygon fill="white" stroke="black" points="127.5,-0.5 127.5,-21.5 254.5,-21.5 254.5,-0.5 127.5,-0.5"/>
<text text-anchor="middle" x="191" y="-8.5" font-family="Helvetica,sans-Serif" font-size="10.00">ReorderableIconLayout</text>
</a>
</g>
<!-- Node4&#45;&gt;Node6 -->
<g id="edge10" class="edge"><title>Node4&#45;&gt;Node6</title>
<path fill="none" stroke="midnightblue" d="M191,-48.1906C191,-39.1684 191,-28.9941 191,-21.5707"/>
<polygon fill="midnightblue" stroke="midnightblue" points="187.5,-48.3619 191,-58.3619 194.5,-48.3619 187.5,-48.3619"/>
</g>
<!-- Node8 -->
<g id="node15" class="node"><title>Node8</title>
<a xlink:href="classIconRowAlpha.htm" target="_top" xlink:title="IconRowAlpha">
<polygon fill="white" stroke="black" points="271.5,-0.5 271.5,-21.5 356.5,-21.5 356.5,-0.5 271.5,-0.5"/>
<text text-anchor="middle" x="314" y="-8.5" font-family="Helvetica,sans-Serif" font-size="10.00">IconRowAlpha</text>
</a>
</g>
<!-- Node7&#45;&gt;Node8 -->
<g id="edge14" class="edge"><title>Node7&#45;&gt;Node8</title>
<path fill="none" stroke="midnightblue" d="M300.32,-48.7838C303.639,-39.617 307.426,-29.1572 310.173,-21.5707"/>
<polygon fill="midnightblue" stroke="midnightblue" points="296.965,-47.7677 296.852,-58.3619 303.547,-50.1508 296.965,-47.7677"/>
</g>
</g>
</svg>
