<?xml version="1.0" encoding="UTF-8" standalone="no"?>
<!DOCTYPE svg PUBLIC "-//W3C//DTD SVG 1.1//EN"
 "http://www.w3.org/Graphics/SVG/1.1/DTD/svg11.dtd">
<!-- Generated by graphviz version 2.26.3 (20100126.1600)
 -->
<!-- Title: DimensionsSystemInterface::PageSaver Pages: 1 -->
<svg width="530pt" height="324pt"
 viewBox="0.00 0.00 530.00 324.00" xmlns="http://www.w3.org/2000/svg" xmlns:xlink="http://www.w3.org/1999/xlink">
<g id="graph1" class="graph" transform="scale(1 1) rotate(0) translate(4 320)">
<title>DimensionsSystemInterface::PageSaver</title>
<polygon fill="white" stroke="white" points="-4,5 -4,-320 527,-320 527,5 -4,5"/>
<!-- Node1 -->
<g id="node1" class="node"><title>Node1</title>
<polygon fill="#bfbfbf" stroke="black" points="120,-1 120,-35 268,-35 268,-1 120,-1"/>
<text text-anchor="start" x="128" y="-22" font-family="Helvetica,sans-Serif" font-size="10.00">DimensionsSystemInterface</text>
<text text-anchor="middle" x="194" y="-9" font-family="Helvetica,sans-Serif" font-size="10.00">::PageSaver</text>
</g>
<!-- Node2 -->
<g id="node2" class="node"><title>Node2</title>
<a xlink:href="classQObject.htm" target="_top" xlink:title="QObject">
<polygon fill="white" stroke="black" points="-0.5,-287.5 -0.5,-308.5 54.5,-308.5 54.5,-287.5 -0.5,-287.5"/>
<text text-anchor="middle" x="27" y="-295.5" font-family="Helvetica,sans-Serif" font-size="10.00">QObject</text>
</a>
</g>
<!-- Node2&#45;&gt;Node1 -->
<g id="edge2" class="edge"><title>Node2&#45;&gt;Node1</title>
<path fill="none" stroke="midnightblue" d="M23.8085,-277.281C17.9259,-230.956 10.7396,-118.05 68,-54 75.6572,-45.4348 96.8849,-38.0245 119.783,-32.1911"/>
<polygon fill="midnightblue" stroke="midnightblue" points="20.3598,-277.893 25.2002,-287.317 27.2934,-276.931 20.3598,-277.893"/>
</g>
<!-- Node3 -->
<g id="node4" class="node"><title>Node3</title>
<polygon fill="white" stroke="#bfbfbf" points="71.5,-287.5 71.5,-308.5 124.5,-308.5 124.5,-287.5 71.5,-287.5"/>
<text text-anchor="middle" x="98" y="-295.5" font-family="Helvetica,sans-Serif" font-size="10.00">QString</text>
</g>
<!-- Node3&#45;&gt;Node1 -->
<g id="edge4" class="edge"><title>Node3&#45;&gt;Node1</title>
<path fill="none" stroke="#9a32cd" stroke-dasharray="5,2" d="M91.0969,-277.77C77.1472,-232.888 50.8293,-123.463 99,-54 103.674,-47.2605 117.489,-40.6666 133.187,-35.002"/>
<polygon fill="#9a32cd" stroke="#9a32cd" points="87.8362,-279.062 94.2466,-287.498 94.4958,-276.906 87.8362,-279.062"/>
<text text-anchor="middle" x="184" y="-253" font-family="Helvetica,sans-Serif" font-size="10.00"> SaveTagKey_PageName</text>
<text text-anchor="start" x="99" y="-240" font-family="Helvetica,sans-Serif" font-size="10.00">MasterTagHeaderKey</text>
<text text-anchor="middle" x="184" y="-227" font-family="Helvetica,sans-Serif" font-size="10.00">_TimeStamp</text>
<text text-anchor="middle" x="184" y="-214" font-family="Helvetica,sans-Serif" font-size="10.00">SaveTagKey_PageFile</text>
<text text-anchor="start" x="99" y="-201" font-family="Helvetica,sans-Serif" font-size="10.00">MasterTagHeaderKey</text>
<text text-anchor="middle" x="184" y="-188" font-family="Helvetica,sans-Serif" font-size="10.00">_SimpleName</text>
<text text-anchor="start" x="99" y="-175" font-family="Helvetica,sans-Serif" font-size="10.00">MasterTagHeaderKey</text>
<text text-anchor="middle" x="184" y="-162" font-family="Helvetica,sans-Serif" font-size="10.00">_NumPages</text>
<text text-anchor="middle" x="184" y="-149" font-family="Helvetica,sans-Serif" font-size="10.00">SaveTagKey_PageDesignator</text>
<text text-anchor="start" x="99" y="-136" font-family="Helvetica,sans-Serif" font-size="10.00">QuicklaunchTagHeaderKey</text>
<text text-anchor="middle" x="184" y="-123" font-family="Helvetica,sans-Serif" font-size="10.00">_SimpleName</text>
<text text-anchor="start" x="99" y="-110" font-family="Helvetica,sans-Serif" font-size="10.00">MasterTagHeaderKey_SaveSystem</text>
<text text-anchor="middle" x="184" y="-97" font-family="Helvetica,sans-Serif" font-size="10.00">Version</text>
<text text-anchor="middle" x="184" y="-84" font-family="Helvetica,sans-Serif" font-size="10.00">SaveTagKey_PageIndex</text>
<text text-anchor="middle" x="184" y="-71" font-family="Helvetica,sans-Serif" font-size="10.00">SaveTagKey_PageUid</text>
<text text-anchor="middle" x="184" y="-58" font-family="Helvetica,sans-Serif" font-size="10.00">...</text>
</g>
<!-- Node4 -->
<g id="node6" class="node"><title>Node4</title>
<polygon fill="white" stroke="#bfbfbf" points="211.5,-281 211.5,-315 370.5,-315 370.5,-281 211.5,-281"/>
<text text-anchor="start" x="219.5" y="-302" font-family="Helvetica,sans-Serif" font-size="10.00">static QPointer&lt; Dimensions</text>
<text text-anchor="middle" x="291" y="-289" font-family="Helvetica,sans-Serif" font-size="10.00">SystemInterface::PageSaver &gt;</text>
</g>
<!-- Node4&#45;&gt;Node1 -->
<g id="edge6" class="edge"><title>Node4&#45;&gt;Node1</title>
<path fill="none" stroke="#9a32cd" stroke-dasharray="5,2" d="M296.599,-270.685C304.91,-222.271 314.986,-120.275 269,-54 263.566,-46.1682 255.949,-39.9818 247.635,-35.1131"/>
<polygon fill="#9a32cd" stroke="#9a32cd" points="293.121,-270.246 294.768,-280.712 300.007,-271.503 293.121,-270.246"/>
<text text-anchor="middle" x="339.5" y="-155.5" font-family="Helvetica,sans-Serif" font-size="10.00"> s_qp_instance</text>
</g>
<!-- Node5 -->
<g id="node8" class="node"><title>Node5</title>
<polygon fill="white" stroke="#bfbfbf" points="387.5,-287.5 387.5,-308.5 438.5,-308.5 438.5,-287.5 387.5,-287.5"/>
<text text-anchor="middle" x="413" y="-295.5" font-family="Helvetica,sans-Serif" font-size="10.00">quint32</text>
</g>
<!-- Node5&#45;&gt;Node1 -->
<g id="edge8" class="edge"><title>Node5&#45;&gt;Node1</title>
<path fill="none" stroke="#9a32cd" stroke-dasharray="5,2" d="M417.323,-277.332C425.768,-230.651 438.852,-116.29 380,-54 364.64,-37.7426 313.106,-28.5985 268.168,-23.5982"/>
<polygon fill="#9a32cd" stroke="#9a32cd" points="413.832,-276.949 415.371,-287.431 420.705,-278.277 413.832,-276.949"/>
<text text-anchor="middle" x="473" y="-155.5" font-family="Helvetica,sans-Serif" font-size="10.00"> SaveSystemVersion</text>
</g>
</g>
</svg>
