<?xml version="1.0" encoding="UTF-8" standalone="no"?>
<!DOCTYPE svg PUBLIC "-//W3C//DTD SVG 1.1//EN"
 "http://www.w3.org/Graphics/SVG/1.1/DTD/svg11.dtd">
<!-- Generated by graphviz version 2.26.3 (20100126.1600)
 -->
<!-- Title: LabeledButton Pages: 1 -->
<svg width="798pt" height="270pt"
 viewBox="0.00 0.00 798.00 270.00" xmlns="http://www.w3.org/2000/svg" xmlns:xlink="http://www.w3.org/1999/xlink">
<g id="graph1" class="graph" transform="scale(1 1) rotate(0) translate(4 266)">
<title>LabeledButton</title>
<polygon fill="white" stroke="white" points="-4,5 -4,-266 795,-266 795,5 -4,5"/>
<!-- Node1 -->
<g id="node1" class="node"><title>Node1</title>
<polygon fill="#bfbfbf" stroke="black" points="302,-0.5 302,-21.5 386,-21.5 386,-0.5 302,-0.5"/>
<text text-anchor="middle" x="344" y="-8.5" font-family="Helvetica,sans-Serif" font-size="10.00">LabeledButton</text>
</g>
<!-- Node2 -->
<g id="node2" class="node"><title>Node2</title>
<a xlink:href="classThingPaintable.htm" target="_top" xlink:title="ThingPaintable">
<polygon fill="white" stroke="black" points="71.5,-84.5 71.5,-105.5 158.5,-105.5 158.5,-84.5 71.5,-84.5"/>
<text text-anchor="middle" x="115" y="-92.5" font-family="Helvetica,sans-Serif" font-size="10.00">ThingPaintable</text>
</a>
</g>
<!-- Node2&#45;&gt;Node1 -->
<g id="edge2" class="edge"><title>Node2&#45;&gt;Node1</title>
<path fill="none" stroke="midnightblue" d="M134.711,-77.4983C149.683,-65.1449 171.33,-49.2119 193,-40 228.008,-25.1184 270.829,-17.8186 301.918,-14.271"/>
<polygon fill="midnightblue" stroke="midnightblue" points="132.078,-75.1419 126.717,-84.2803 136.607,-80.4796 132.078,-75.1419"/>
</g>
<!-- Node3 -->
<g id="node4" class="node"><title>Node3</title>
<a xlink:href="classThing.htm" target="_top" xlink:title="Thing">
<polygon fill="white" stroke="black" points="336,-168.5 336,-189.5 380,-189.5 380,-168.5 336,-168.5"/>
<text text-anchor="middle" x="358" y="-176.5" font-family="Helvetica,sans-Serif" font-size="10.00">Thing</text>
</a>
</g>
<!-- Node3&#45;&gt;Node2 -->
<g id="edge4" class="edge"><title>Node3&#45;&gt;Node2</title>
<path fill="none" stroke="midnightblue" d="M357.005,-158.176C355.282,-146.329 351.057,-132.251 341,-124 310.947,-99.3444 205.402,-112.031 167,-106 164.265,-105.571 161.457,-105.091 158.631,-104.578"/>
<polygon fill="midnightblue" stroke="midnightblue" points="353.529,-158.584 357.981,-168.198 360.496,-157.906 353.529,-158.584"/>
</g>
<!-- Node4 -->
<g id="node6" class="node"><title>Node4</title>
<a xlink:href="classQGraphicsObject.htm" target="_top" xlink:title="QGraphicsObject">
<polygon fill="white" stroke="black" points="249,-240.5 249,-261.5 347,-261.5 347,-240.5 249,-240.5"/>
<text text-anchor="middle" x="298" y="-248.5" font-family="Helvetica,sans-Serif" font-size="10.00">QGraphicsObject</text>
</a>
</g>
<!-- Node4&#45;&gt;Node3 -->
<g id="edge6" class="edge"><title>Node4&#45;&gt;Node3</title>
<path fill="none" stroke="midnightblue" d="M313.347,-232.584C324.676,-218.989 339.702,-200.958 349.11,-189.667"/>
<polygon fill="midnightblue" stroke="midnightblue" points="310.566,-230.453 306.853,-240.376 315.944,-234.935 310.566,-230.453"/>
</g>
<!-- Node5 -->
<g id="node8" class="node"><title>Node5</title>
<polygon fill="white" stroke="#bfbfbf" points="365,-240.5 365,-261.5 469,-261.5 469,-240.5 365,-240.5"/>
<text text-anchor="middle" x="417" y="-248.5" font-family="Helvetica,sans-Serif" font-size="10.00">QPointer&lt; Thing &gt;</text>
</g>
<!-- Node5&#45;&gt;Node3 -->
<g id="edge8" class="edge"><title>Node5&#45;&gt;Node3</title>
<path fill="none" stroke="#9a32cd" stroke-dasharray="5,2" d="M401.909,-232.584C390.768,-218.989 375.993,-200.958 366.741,-189.667"/>
<polygon fill="#9a32cd" stroke="#9a32cd" points="399.249,-234.86 408.294,-240.376 404.663,-230.423 399.249,-234.86"/>
<text text-anchor="middle" x="437.5" y="-212.5" font-family="Helvetica,sans-Serif" font-size="10.00"> m_qp_takerOwner</text>
</g>
<!-- Node6 -->
<g id="node10" class="node"><title>Node6</title>
<polygon fill="white" stroke="#bfbfbf" points="-0.5,-168.5 -0.5,-189.5 52.5,-189.5 52.5,-168.5 -0.5,-168.5"/>
<text text-anchor="middle" x="26" y="-176.5" font-family="Helvetica,sans-Serif" font-size="10.00">QString</text>
</g>
<!-- Node6&#45;&gt;Node1 -->
<g id="edge22" class="edge"><title>Node6&#45;&gt;Node1</title>
<path fill="none" stroke="#9a32cd" stroke-dasharray="5,2" d="M18.8235,-158.735C12.8631,-137.997 7.59803,-105.808 23,-84 54.9398,-38.7755 222.402,-20.1916 301.955,-13.8278"/>
<polygon fill="#9a32cd" stroke="#9a32cd" points="15.5362,-159.947 21.8981,-168.419 22.2081,-157.829 15.5362,-159.947"/>
<text text-anchor="middle" x="43" y="-92.5" font-family="Helvetica,sans-Serif" font-size="10.00"> m_label</text>
</g>
<!-- Node6&#45;&gt;Node2 -->
<g id="edge10" class="edge"><title>Node6&#45;&gt;Node2</title>
<path fill="none" stroke="#9a32cd" stroke-dasharray="5,2" d="M35.4828,-158.997C41.5813,-147.693 50.3523,-133.889 61,-124 69.1093,-116.469 79.5419,-110.271 89.0718,-105.565"/>
<polygon fill="#9a32cd" stroke="#9a32cd" points="32.2524,-157.628 30.8314,-168.127 38.4896,-160.806 32.2524,-157.628"/>
<text text-anchor="middle" x="86" y="-134.5" font-family="Helvetica,sans-Serif" font-size="10.00"> m_uiState</text>
</g>
<!-- Node7 -->
<g id="node12" class="node"><title>Node7</title>
<polygon fill="white" stroke="#bfbfbf" points="88.5,-168.5 88.5,-189.5 141.5,-189.5 141.5,-168.5 88.5,-168.5"/>
<text text-anchor="middle" x="115" y="-176.5" font-family="Helvetica,sans-Serif" font-size="10.00">QRectF</text>
</g>
<!-- Node7&#45;&gt;Node2 -->
<g id="edge12" class="edge"><title>Node7&#45;&gt;Node2</title>
<path fill="none" stroke="#9a32cd" stroke-dasharray="5,2" d="M115,-157.945C115,-141.257 115,-118.639 115,-105.552"/>
<polygon fill="#9a32cd" stroke="#9a32cd" points="111.5,-158.361 115,-168.361 118.5,-158.361 111.5,-158.361"/>
<text text-anchor="middle" x="156" y="-141" font-family="Helvetica,sans-Serif" font-size="10.00"> m_boundingRect</text>
<text text-anchor="middle" x="156" y="-128" font-family="Helvetica,sans-Serif" font-size="10.00">m_geom</text>
</g>
<!-- Node8 -->
<g id="node14" class="node"><title>Node8</title>
<a xlink:href="classint.htm" target="_top" xlink:title="int">
<polygon fill="white" stroke="black" points="205.5,-168.5 205.5,-189.5 234.5,-189.5 234.5,-168.5 205.5,-168.5"/>
<text text-anchor="middle" x="220" y="-176.5" font-family="Helvetica,sans-Serif" font-size="10.00">int</text>
</a>
</g>
<!-- Node8&#45;&gt;Node2 -->
<g id="edge14" class="edge"><title>Node8&#45;&gt;Node2</title>
<path fill="none" stroke="#9a32cd" stroke-dasharray="5,2" d="M216.084,-158.139C212.953,-146.702 207.461,-133.051 198,-124 191.437,-117.722 173.041,-111.014 155.231,-105.633"/>
<polygon fill="#9a32cd" stroke="#9a32cd" points="212.749,-159.252 218.414,-168.205 219.568,-157.673 212.749,-159.252"/>
<text text-anchor="middle" x="275.5" y="-141" font-family="Helvetica,sans-Serif" font-size="10.00"> MagicTypePropertyValue</text>
<text text-anchor="middle" x="275.5" y="-128" font-family="Helvetica,sans-Serif" font-size="10.00">MagicTypePropertyKey</text>
</g>
<!-- Node9 -->
<g id="node16" class="node"><title>Node9</title>
<polygon fill="white" stroke="#bfbfbf" points="175.5,-84.5 175.5,-105.5 230.5,-105.5 230.5,-84.5 175.5,-84.5"/>
<text text-anchor="middle" x="203" y="-92.5" font-family="Helvetica,sans-Serif" font-size="10.00">QPointF</text>
</g>
<!-- Node9&#45;&gt;Node1 -->
<g id="edge16" class="edge"><title>Node9&#45;&gt;Node1</title>
<path fill="none" stroke="#9a32cd" stroke-dasharray="5,2" d="M197.62,-74.3733C195.949,-63.0119 196.238,-49.359 204,-40 216.319,-25.145 265.327,-17.6366 301.907,-14.0308"/>
<polygon fill="#9a32cd" stroke="#9a32cd" points="194.225,-75.2438 199.643,-84.349 201.086,-73.8529 194.225,-75.2438"/>
<text text-anchor="middle" x="241.5" y="-50.5" font-family="Helvetica,sans-Serif" font-size="10.00"> m_labelPosICS</text>
</g>
<!-- Node10 -->
<g id="node18" class="node"><title>Node10</title>
<polygon fill="white" stroke="#bfbfbf" points="262,-84.5 262,-105.5 312,-105.5 312,-84.5 262,-84.5"/>
<text text-anchor="middle" x="287" y="-92.5" font-family="Helvetica,sans-Serif" font-size="10.00">QColor</text>
</g>
<!-- Node10&#45;&gt;Node1 -->
<g id="edge18" class="edge"><title>Node10&#45;&gt;Node1</title>
<path fill="none" stroke="#9a32cd" stroke-dasharray="5,2" d="M282.556,-74.3686C281.321,-63.3863 281.729,-50.1017 288,-40 293.024,-31.9074 301.101,-25.9659 309.575,-21.6481"/>
<polygon fill="#9a32cd" stroke="#9a32cd" points="279.125,-75.0714 284.184,-84.3805 286.034,-73.9485 279.125,-75.0714"/>
<text text-anchor="middle" x="333.5" y="-57" font-family="Helvetica,sans-Serif" font-size="10.00"> m_selectedColor</text>
<text text-anchor="middle" x="333.5" y="-44" font-family="Helvetica,sans-Serif" font-size="10.00">m_unselectedColor</text>
</g>
<!-- Node11 -->
<g id="node20" class="node"><title>Node11</title>
<polygon fill="white" stroke="#bfbfbf" points="362.5,-84.5 362.5,-105.5 439.5,-105.5 439.5,-84.5 362.5,-84.5"/>
<text text-anchor="middle" x="401" y="-92.5" font-family="Helvetica,sans-Serif" font-size="10.00">QTextLayout</text>
</g>
<!-- Node11&#45;&gt;Node1 -->
<g id="edge20" class="edge"><title>Node11&#45;&gt;Node1</title>
<path fill="none" stroke="#9a32cd" stroke-dasharray="5,2" d="M395.388,-74.1678C391.819,-63.3196 386.449,-50.2235 379,-40 373.888,-32.9845 366.707,-26.6436 360.179,-21.6929"/>
<polygon fill="#9a32cd" stroke="#9a32cd" points="392.136,-75.5081 398.367,-84.0771 398.839,-73.4928 392.136,-75.5081"/>
<text text-anchor="middle" x="440.5" y="-50.5" font-family="Helvetica,sans-Serif" font-size="10.00"> m_textLayoutObject</text>
</g>
<!-- Node12 -->
<g id="node23" class="node"><title>Node12</title>
<polygon fill="white" stroke="#bfbfbf" points="498,-84.5 498,-105.5 544,-105.5 544,-84.5 498,-84.5"/>
<text text-anchor="middle" x="521" y="-92.5" font-family="Helvetica,sans-Serif" font-size="10.00">QFont</text>
</g>
<!-- Node12&#45;&gt;Node1 -->
<g id="edge24" class="edge"><title>Node12&#45;&gt;Node1</title>
<path fill="none" stroke="#9a32cd" stroke-dasharray="5,2" d="M515.555,-74.6424C511.329,-62.7597 504.249,-48.4818 493,-40 476.482,-27.5451 424.183,-19.4596 386.204,-15.0687"/>
<polygon fill="#9a32cd" stroke="#9a32cd" points="512.239,-75.765 518.567,-84.2622 518.919,-73.6732 512.239,-75.765"/>
<text text-anchor="middle" x="539" y="-50.5" font-family="Helvetica,sans-Serif" font-size="10.00"> m_textFont</text>
</g>
<!-- Node13 -->
<g id="node25" class="node"><title>Node13</title>
<polygon fill="white" stroke="#bfbfbf" points="576.5,-84.5 576.5,-105.5 623.5,-105.5 623.5,-84.5 576.5,-84.5"/>
<text text-anchor="middle" x="600" y="-92.5" font-family="Helvetica,sans-Serif" font-size="10.00">QRect</text>
</g>
<!-- Node13&#45;&gt;Node1 -->
<g id="edge26" class="edge"><title>Node13&#45;&gt;Node1</title>
<path fill="none" stroke="#9a32cd" stroke-dasharray="5,2" d="M594.37,-74.3628C589.996,-62.3766 582.663,-48.088 571,-40 541.943,-19.8504 443.548,-13.701 386.286,-11.8243"/>
<polygon fill="#9a32cd" stroke="#9a32cd" points="591.102,-75.6345 597.486,-84.0898 597.768,-73.4987 591.102,-75.6345"/>
<text text-anchor="middle" x="634" y="-57" font-family="Helvetica,sans-Serif" font-size="10.00"> m_labelMaxGeom</text>
<text text-anchor="middle" x="634" y="-44" font-family="Helvetica,sans-Serif" font-size="10.00">m_labelGeom</text>
</g>
<!-- Node14 -->
<g id="node27" class="node"><title>Node14</title>
<polygon fill="white" stroke="#bfbfbf" points="686.5,-84.5 686.5,-105.5 735.5,-105.5 735.5,-84.5 686.5,-84.5"/>
<text text-anchor="middle" x="711" y="-92.5" font-family="Helvetica,sans-Serif" font-size="10.00">QPoint</text>
</g>
<!-- Node14&#45;&gt;Node1 -->
<g id="edge28" class="edge"><title>Node14&#45;&gt;Node1</title>
<path fill="none" stroke="#9a32cd" stroke-dasharray="5,2" d="M705.639,-74.6143C701.328,-62.4769 693.968,-47.9367 682,-40 657.857,-23.989 471.176,-15.4591 386.056,-12.3683"/>
<polygon fill="#9a32cd" stroke="#9a32cd" points="702.378,-75.9186 708.68,-84.4356 709.065,-73.8478 702.378,-75.9186"/>
<text text-anchor="middle" x="746" y="-50.5" font-family="Helvetica,sans-Serif" font-size="10.00"> m_labelPosPntCS</text>
</g>
</g>
</svg>
