<?xml version="1.0" encoding="UTF-8" standalone="no"?>
<!DOCTYPE svg PUBLIC "-//W3C//DTD SVG 1.1//EN"
 "http://www.w3.org/Graphics/SVG/1.1/DTD/svg11.dtd">
<!-- Generated by graphviz version 2.26.3 (20100126.1600)
 -->
<!-- Title: DynamicsSettings Pages: 1 -->
<svg width="924pt" height="258pt"
 viewBox="0.00 0.00 923.52 258.00" xmlns="http://www.w3.org/2000/svg" xmlns:xlink="http://www.w3.org/1999/xlink">
<g id="graph1" class="graph" transform="scale(1 1) rotate(0) translate(4 254)">
<title>DynamicsSettings</title>
<polygon fill="white" stroke="white" points="-4,5 -4,-254 920.519,-254 920.519,5 -4,5"/>
<!-- Node1 -->
<g id="node1" class="node"><title>Node1</title>
<polygon fill="#bfbfbf" stroke="black" points="331.019,-0.5 331.019,-21.5 432.019,-21.5 432.019,-0.5 331.019,-0.5"/>
<text text-anchor="middle" x="381.519" y="-8.5" font-family="Helvetica,sans-Serif" font-size="10.00">DynamicsSettings</text>
</g>
<!-- Node2 -->
<g id="node2" class="node"><title>Node2</title>
<polygon fill="white" stroke="#bfbfbf" points="3.01894,-228.5 3.01894,-249.5 44.0189,-249.5 44.0189,-228.5 3.01894,-228.5"/>
<text text-anchor="middle" x="23.5189" y="-236.5" font-family="Helvetica,sans-Serif" font-size="10.00">qreal</text>
</g>
<!-- Node2&#45;&gt;Node1 -->
<g id="edge2" class="edge"><title>Node2&#45;&gt;Node1</title>
<path fill="none" stroke="#9a32cd" stroke-dasharray="5,2" d="M16.2755,-218.591C3.47782,-178.449 -17.6675,-88.8896 28.5189,-40 48.8409,-18.4886 238.199,-12.9308 330.887,-11.4971"/>
<polygon fill="#9a32cd" stroke="#9a32cd" points="12.9651,-219.728 19.4523,-228.105 19.6046,-217.511 12.9651,-219.728"/>
<text text-anchor="middle" x="85.5189" y="-122.5" font-family="Helvetica,sans-Serif" font-size="10.00"> iconInstallModeOpacity</text>
</g>
<!-- Node3 -->
<g id="node4" class="node"><title>Node3</title>
<polygon fill="white" stroke="#bfbfbf" points="142.519,-228.5 142.519,-249.5 178.519,-249.5 178.519,-228.5 142.519,-228.5"/>
<text text-anchor="middle" x="160.519" y="-236.5" font-family="Helvetica,sans-Serif" font-size="10.00">bool</text>
</g>
<!-- Node3&#45;&gt;Node1 -->
<g id="edge4" class="edge"><title>Node3&#45;&gt;Node1</title>
<path fill="none" stroke="#9a32cd" stroke-dasharray="5,2" d="M155.173,-218.332C146.126,-178.062 133.005,-88.7728 179.519,-40 189.85,-29.1676 274.573,-19.999 330.966,-15.0183"/>
<polygon fill="#9a32cd" stroke="#9a32cd" points="151.78,-219.192 157.51,-228.103 158.588,-217.564 151.78,-219.192"/>
<text text-anchor="start" x="179.519" y="-148.5" font-family="Helvetica,sans-Serif" font-size="10.00"> iconReorderTrackedIconUse</text>
<text text-anchor="middle" x="278.519" y="-135.5" font-family="Helvetica,sans-Serif" font-size="10.00">DistanceBasedAnimTime</text>
<text text-anchor="start" x="179.519" y="-122.5" font-family="Helvetica,sans-Serif" font-size="10.00">alwaysWaitForIconReorderAnimTo</text>
<text text-anchor="middle" x="278.519" y="-109.5" font-family="Helvetica,sans-Serif" font-size="10.00">Finish</text>
<text text-anchor="middle" x="278.519" y="-96.5" font-family="Helvetica,sans-Serif" font-size="10.00">alphaIconMoveTrackedIconUseAnimation</text>
</g>
<!-- Node4 -->
<g id="node6" class="node"><title>Node4</title>
<polygon fill="white" stroke="#bfbfbf" points="360.019,-228.5 360.019,-249.5 403.019,-249.5 403.019,-228.5 360.019,-228.5"/>
<text text-anchor="middle" x="381.519" y="-236.5" font-family="Helvetica,sans-Serif" font-size="10.00">Enum</text>
</g>
<!-- Node4&#45;&gt;Node1 -->
<g id="edge6" class="edge"><title>Node4&#45;&gt;Node1</title>
<path fill="none" stroke="#9a32cd" stroke-dasharray="5,2" d="M381.519,-218.041C381.519,-170.727 381.519,-57.014 381.519,-21.668"/>
<polygon fill="#9a32cd" stroke="#9a32cd" points="378.019,-218.309 381.519,-228.309 385.019,-218.309 378.019,-218.309"/>
<text text-anchor="start" x="381.519" y="-129" font-family="Helvetica,sans-Serif" font-size="10.00"> alphaIconMoveTrackedIcon</text>
<text text-anchor="middle" x="449.519" y="-116" font-family="Helvetica,sans-Serif" font-size="10.00">AnimType</text>
</g>
<!-- Node5 -->
<g id="node8" class="node"><title>Node5</title>
<polygon fill="white" stroke="#bfbfbf" points="498.019,-228.5 498.019,-249.5 583.019,-249.5 583.019,-228.5 498.019,-228.5"/>
<text text-anchor="middle" x="540.519" y="-236.5" font-family="Helvetica,sans-Serif" font-size="10.00">QEasingCurve</text>
</g>
<!-- Node5&#45;&gt;Node1 -->
<g id="edge8" class="edge"><title>Node5&#45;&gt;Node1</title>
<path fill="none" stroke="#9a32cd" stroke-dasharray="5,2" d="M541.171,-218.328C542.157,-172.779 541.863,-65.7646 518.519,-40 506.97,-27.2534 466.332,-19.7378 432.291,-15.5648"/>
<polygon fill="#9a32cd" stroke="#9a32cd" points="537.668,-218.41 540.906,-228.498 544.665,-218.592 537.668,-218.41"/>
<text text-anchor="middle" x="620.519" y="-142" font-family="Helvetica,sans-Serif" font-size="10.00"> iconReorderIconMoveAnimCurve</text>
<text text-anchor="start" x="540.519" y="-129" font-family="Helvetica,sans-Serif" font-size="10.00">alphaIconMoveTrackedIconAnim</text>
<text text-anchor="middle" x="620.519" y="-116" font-family="Helvetica,sans-Serif" font-size="10.00">Curve</text>
<text text-anchor="middle" x="620.519" y="-103" font-family="Helvetica,sans-Serif" font-size="10.00">snapbackAnimCurve</text>
</g>
<!-- Node6 -->
<g id="node10" class="node"><title>Node6</title>
<polygon fill="white" stroke="#bfbfbf" points="698.019,-228.5 698.019,-249.5 749.019,-249.5 749.019,-228.5 698.019,-228.5"/>
<text text-anchor="middle" x="723.519" y="-236.5" font-family="Helvetica,sans-Serif" font-size="10.00">quint32</text>
</g>
<!-- Node6&#45;&gt;Node1 -->
<g id="edge10" class="edge"><title>Node6&#45;&gt;Node1</title>
<path fill="none" stroke="#9a32cd" stroke-dasharray="5,2" d="M728.596,-218.64C737.334,-178.181 749.945,-87.4799 701.519,-40 682.723,-21.5715 517.686,-14.5529 432.274,-12.1371"/>
<polygon fill="#9a32cd" stroke="#9a32cd" points="725.175,-217.899 726.34,-228.43 731.996,-219.471 725.175,-217.899"/>
<text text-anchor="middle" x="826.019" y="-200.5" font-family="Helvetica,sans-Serif" font-size="10.00"> pageScrollDelayMs</text>
<text text-anchor="start" x="736.519" y="-187.5" font-family="Helvetica,sans-Serif" font-size="10.00">pagePanForIconMoveDelay</text>
<text text-anchor="middle" x="826.019" y="-174.5" font-family="Helvetica,sans-Serif" font-size="10.00">Ms</text>
<text text-anchor="middle" x="826.019" y="-161.5" font-family="Helvetica,sans-Serif" font-size="10.00">pageScrollAnimTime</text>
<text text-anchor="start" x="736.519" y="-148.5" font-family="Helvetica,sans-Serif" font-size="10.00">iconReorderIconMoveAnim</text>
<text text-anchor="middle" x="826.019" y="-135.5" font-family="Helvetica,sans-Serif" font-size="10.00">Time</text>
<text text-anchor="middle" x="826.019" y="-122.5" font-family="Helvetica,sans-Serif" font-size="10.00">appInfoDialogFadeOutTime</text>
<text text-anchor="middle" x="826.019" y="-109.5" font-family="Helvetica,sans-Serif" font-size="10.00">iconReorderSampleRate</text>
<text text-anchor="middle" x="826.019" y="-96.5" font-family="Helvetica,sans-Serif" font-size="10.00">distanceMagFactor</text>
<text text-anchor="middle" x="826.019" y="-83.5" font-family="Helvetica,sans-Serif" font-size="10.00">launchFeedbackTimeout</text>
<text text-anchor="middle" x="826.019" y="-70.5" font-family="Helvetica,sans-Serif" font-size="10.00">maxVelocityForSampling</text>
<text text-anchor="middle" x="826.019" y="-57.5" font-family="Helvetica,sans-Serif" font-size="10.00">alphaIconMoveTrackedIconAnimTime</text>
<text text-anchor="middle" x="826.019" y="-44.5" font-family="Helvetica,sans-Serif" font-size="10.00">...</text>
</g>
</g>
</svg>
