<?xml version="1.0" encoding="UTF-8" standalone="no"?>
<!DOCTYPE svg PUBLIC "-//W3C//DTD SVG 1.1//EN"
 "http://www.w3.org/Graphics/SVG/1.1/DTD/svg11.dtd">
<!-- Generated by graphviz version 2.26.3 (20100126.1600)
 -->
<!-- Title: QGraphicsItem Pages: 1 -->
<svg width="480pt" height="88pt"
 viewBox="0.00 0.00 480.00 88.00" xmlns="http://www.w3.org/2000/svg" xmlns:xlink="http://www.w3.org/1999/xlink">
<g id="graph1" class="graph" transform="scale(1 1) rotate(0) translate(4 84)">
<title>QGraphicsItem</title>
<polygon fill="white" stroke="white" points="-4,5 -4,-84 477,-84 477,5 -4,5"/>
<!-- Node1 -->
<g id="node1" class="node"><title>Node1</title>
<polygon fill="#bfbfbf" stroke="black" points="170,-58.5 170,-79.5 258,-79.5 258,-58.5 170,-58.5"/>
<text text-anchor="middle" x="214" y="-66.5" font-family="Helvetica,sans-Serif" font-size="10.00">QGraphicsItem</text>
</g>
<!-- Node2 -->
<g id="node3" class="node"><title>Node2</title>
<a xlink:href="classFpsCounter.htm" target="_top" xlink:title="FpsCounter">
<polygon fill="white" stroke="black" points="-0.5,-0.5 -0.5,-21.5 70.5,-21.5 70.5,-0.5 -0.5,-0.5"/>
<text text-anchor="middle" x="35" y="-8.5" font-family="Helvetica,sans-Serif" font-size="10.00">FpsCounter</text>
</a>
</g>
<!-- Node1&#45;&gt;Node2 -->
<g id="edge2" class="edge"><title>Node1&#45;&gt;Node2</title>
<path fill="none" stroke="midnightblue" d="M172.067,-55.4127C140.13,-45.0646 96.8039,-31.0258 67.4763,-21.5231"/>
<polygon fill="midnightblue" stroke="midnightblue" points="170.992,-58.7437 181.584,-58.4966 173.15,-52.0845 170.992,-58.7437"/>
</g>
<!-- Node3 -->
<g id="node5" class="node"><title>Node3</title>
<a xlink:href="classReorderGrid.htm" target="_top" xlink:title="ReorderGrid">
<polygon fill="white" stroke="black" points="88,-0.5 88,-21.5 164,-21.5 164,-0.5 88,-0.5"/>
<text text-anchor="middle" x="126" y="-8.5" font-family="Helvetica,sans-Serif" font-size="10.00">ReorderGrid</text>
</a>
</g>
<!-- Node1&#45;&gt;Node3 -->
<g id="edge4" class="edge"><title>Node1&#45;&gt;Node3</title>
<path fill="none" stroke="midnightblue" d="M189.453,-52.8215C174.296,-42.8312 155.282,-30.2993 142.038,-21.5707"/>
<polygon fill="midnightblue" stroke="midnightblue" points="187.584,-55.7811 197.859,-58.3619 191.436,-49.9364 187.584,-55.7811"/>
</g>
<!-- Node4 -->
<g id="node7" class="node"><title>Node4</title>
<a xlink:href="classTouchPlot.htm" target="_top" xlink:title="TouchPlot">
<polygon fill="white" stroke="black" points="182,-0.5 182,-21.5 246,-21.5 246,-0.5 182,-0.5"/>
<text text-anchor="middle" x="214" y="-8.5" font-family="Helvetica,sans-Serif" font-size="10.00">TouchPlot</text>
</a>
</g>
<!-- Node1&#45;&gt;Node4 -->
<g id="edge6" class="edge"><title>Node1&#45;&gt;Node4</title>
<path fill="none" stroke="midnightblue" d="M214,-48.1906C214,-39.1684 214,-28.9941 214,-21.5707"/>
<polygon fill="midnightblue" stroke="midnightblue" points="210.5,-48.3619 214,-58.3619 217.5,-48.3619 210.5,-48.3619"/>
</g>
<!-- Node5 -->
<g id="node9" class="node"><title>Node5</title>
<a xlink:href="classUiRootItem.htm" target="_top" xlink:title="UiRootItem">
<polygon fill="white" stroke="black" points="263.5,-0.5 263.5,-21.5 332.5,-21.5 332.5,-0.5 263.5,-0.5"/>
<text text-anchor="middle" x="298" y="-8.5" font-family="Helvetica,sans-Serif" font-size="10.00">UiRootItem</text>
</a>
</g>
<!-- Node1&#45;&gt;Node5 -->
<g id="edge8" class="edge"><title>Node1&#45;&gt;Node5</title>
<path fill="none" stroke="midnightblue" d="M237.838,-52.5407C252.238,-42.5973 270.167,-30.2177 282.691,-21.5707"/>
<polygon fill="midnightblue" stroke="midnightblue" points="235.647,-49.7998 229.407,-58.3619 239.625,-55.5601 235.647,-49.7998"/>
</g>
<!-- Node6 -->
<g id="node11" class="node"><title>Node6</title>
<a xlink:href="classWindowServerOverlay.htm" target="_top" xlink:title="WindowServerOverlay">
<polygon fill="white" stroke="black" points="350,-0.5 350,-21.5 472,-21.5 472,-0.5 350,-0.5"/>
<text text-anchor="middle" x="411" y="-8.5" font-family="Helvetica,sans-Serif" font-size="10.00">WindowServerOverlay</text>
</a>
</g>
<!-- Node1&#45;&gt;Node6 -->
<g id="edge10" class="edge"><title>Node1&#45;&gt;Node6</title>
<path fill="none" stroke="midnightblue" d="M259.696,-55.5464C294.886,-45.1857 342.842,-31.0668 375.258,-21.5231"/>
<polygon fill="midnightblue" stroke="midnightblue" points="258.28,-52.3148 249.675,-58.4966 260.257,-59.0298 258.28,-52.3148"/>
</g>
</g>
</svg>
