<?xml version="1.0" encoding="UTF-8" standalone="no"?>
<!DOCTYPE svg PUBLIC "-//W3C//DTD SVG 1.1//EN"
 "http://www.w3.org/Graphics/SVG/1.1/DTD/svg11.dtd">
<!-- Generated by graphviz version 2.26.3 (20100126.1600)
 -->
<!-- Title: WebAppMgrProxy Pages: 1 -->
<svg width="470pt" height="319pt"
 viewBox="0.00 0.00 470.00 319.00" xmlns="http://www.w3.org/2000/svg" xmlns:xlink="http://www.w3.org/1999/xlink">
<g id="graph1" class="graph" transform="scale(1 1) rotate(0) translate(4 315)">
<title>WebAppMgrProxy</title>
<polygon fill="white" stroke="white" points="-4,5 -4,-315 467,-315 467,5 -4,5"/>
<!-- Node1 -->
<g id="node1" class="node"><title>Node1</title>
<polygon fill="#bfbfbf" stroke="black" points="360,-140.5 360,-161.5 462,-161.5 462,-140.5 360,-140.5"/>
<text text-anchor="middle" x="411" y="-148.5" font-family="Helvetica,sans-Serif" font-size="10.00">WebAppMgrProxy</text>
</g>
<!-- Node2 -->
<g id="node2" class="node"><title>Node2</title>
<a xlink:href="classIpcClientHost.htm" target="_top" xlink:title="IpcClientHost">
<polygon fill="white" stroke="black" points="242,-140.5 242,-161.5 322,-161.5 322,-140.5 242,-140.5"/>
<text text-anchor="middle" x="282" y="-148.5" font-family="Helvetica,sans-Serif" font-size="10.00">IpcClientHost</text>
</a>
</g>
<!-- Node2&#45;&gt;Node1 -->
<g id="edge2" class="edge"><title>Node2&#45;&gt;Node1</title>
<path fill="none" stroke="midnightblue" d="M332.192,-151C341.31,-151 350.83,-151 359.972,-151"/>
<polygon fill="midnightblue" stroke="midnightblue" points="332.109,-147.5 322.109,-151 332.109,-154.5 332.109,-147.5"/>
</g>
<!-- Node3 -->
<g id="node4" class="node"><title>Node3</title>
<a xlink:href="classQObject.htm" target="_top" xlink:title="QObject">
<polygon fill="white" stroke="black" points="31.5,-289.5 31.5,-310.5 86.5,-310.5 86.5,-289.5 31.5,-289.5"/>
<text text-anchor="middle" x="59" y="-297.5" font-family="Helvetica,sans-Serif" font-size="10.00">QObject</text>
</a>
</g>
<!-- Node3&#45;&gt;Node2 -->
<g id="edge4" class="edge"><title>Node3&#45;&gt;Node2</title>
<path fill="none" stroke="midnightblue" d="M96.9204,-299.744C133.054,-297.645 187.247,-289.456 224,-261 257.629,-234.963 273.847,-183.859 279.537,-161.686"/>
<polygon fill="midnightblue" stroke="midnightblue" points="96.6144,-296.254 86.7821,-300.201 96.9296,-303.247 96.6144,-296.254"/>
</g>
<!-- Node4 -->
<g id="node6" class="node"><title>Node4</title>
<a xlink:href="classPIpcChannelListener.htm" target="_top" xlink:title="PIpcChannelListener">
<polygon fill="white" stroke="black" points="1,-249.5 1,-270.5 117,-270.5 117,-249.5 1,-249.5"/>
<text text-anchor="middle" x="59" y="-257.5" font-family="Helvetica,sans-Serif" font-size="10.00">PIpcChannelListener</text>
</a>
</g>
<!-- Node4&#45;&gt;Node2 -->
<g id="edge6" class="edge"><title>Node4&#45;&gt;Node2</title>
<path fill="none" stroke="midnightblue" d="M127.146,-261.197C158.668,-258.887 195.375,-251.89 224,-234 252.026,-216.484 270.169,-179.932 277.829,-161.75"/>
<polygon fill="midnightblue" stroke="midnightblue" points="126.887,-257.706 117.111,-261.791 127.3,-264.694 126.887,-257.706"/>
</g>
<!-- Node5 -->
<g id="node8" class="node"><title>Node5</title>
<polygon fill="white" stroke="#bfbfbf" points="26,-209.5 26,-230.5 92,-230.5 92,-209.5 26,-209.5"/>
<text text-anchor="middle" x="59" y="-217.5" font-family="Helvetica,sans-Serif" font-size="10.00">GSource *</text>
</g>
<!-- Node5&#45;&gt;Node2 -->
<g id="edge8" class="edge"><title>Node5&#45;&gt;Node2</title>
<path fill="none" stroke="#9a32cd" stroke-dasharray="5,2" d="M102.458,-220.125C136.735,-218.788 185.085,-213.66 224,-197 243.14,-188.806 261.282,-172.562 272.025,-161.737"/>
<polygon fill="#9a32cd" stroke="#9a32cd" points="102.19,-216.631 92.2979,-220.427 102.397,-223.628 102.19,-216.631"/>
<text text-anchor="middle" x="180" y="-221" font-family="Helvetica,sans-Serif" font-size="10.00"> m_idleDestroySrc</text>
</g>
<!-- Node6 -->
<g id="node10" class="node"><title>Node6</title>
<polygon fill="white" stroke="#bfbfbf" points="11.5,-165.5 11.5,-186.5 106.5,-186.5 106.5,-165.5 11.5,-165.5"/>
<text text-anchor="middle" x="59" y="-173.5" font-family="Helvetica,sans-Serif" font-size="10.00">set&lt; Window * &gt;</text>
</g>
<!-- Node6&#45;&gt;Node2 -->
<g id="edge10" class="edge"><title>Node6&#45;&gt;Node2</title>
<path fill="none" stroke="#9a32cd" stroke-dasharray="5,2" d="M116.551,-169.548C155.884,-165.139 207.019,-159.406 241.966,-155.488"/>
<polygon fill="#9a32cd" stroke="#9a32cd" points="116.113,-166.075 106.566,-170.668 116.893,-173.032 116.113,-166.075"/>
<text text-anchor="middle" x="180" y="-184" font-family="Helvetica,sans-Serif" font-size="10.00"> m_closedWinSet</text>
<text text-anchor="middle" x="180" y="-171" font-family="Helvetica,sans-Serif" font-size="10.00">m_winSet</text>
</g>
<!-- Node7 -->
<g id="node12" class="node"><title>Node7</title>
<a xlink:href="classint.htm" target="_top" xlink:title="int">
<polygon fill="white" stroke="black" points="44.5,-120.5 44.5,-141.5 73.5,-141.5 73.5,-120.5 44.5,-120.5"/>
<text text-anchor="middle" x="59" y="-128.5" font-family="Helvetica,sans-Serif" font-size="10.00">int</text>
</a>
</g>
<!-- Node7&#45;&gt;Node2 -->
<g id="edge12" class="edge"><title>Node7&#45;&gt;Node2</title>
<path fill="none" stroke="#9a32cd" stroke-dasharray="5,2" d="M83.7037,-127.415C116.205,-123.409 174.95,-118.63 224,-128 236.768,-130.439 250.31,-135.645 261.095,-140.488"/>
<polygon fill="#9a32cd" stroke="#9a32cd" points="83.1994,-123.951 73.7396,-128.722 84.1099,-130.892 83.1994,-123.951"/>
<text text-anchor="middle" x="180" y="-145" font-family="Helvetica,sans-Serif" font-size="10.00"> m_processPriority</text>
<text text-anchor="middle" x="180" y="-132" font-family="Helvetica,sans-Serif" font-size="10.00">m_pid</text>
</g>
<!-- Node8 -->
<g id="node14" class="node"><title>Node8</title>
<polygon fill="white" stroke="#bfbfbf" points="41,-80.5 41,-101.5 77,-101.5 77,-80.5 41,-80.5"/>
<text text-anchor="middle" x="59" y="-88.5" font-family="Helvetica,sans-Serif" font-size="10.00">bool</text>
</g>
<!-- Node8&#45;&gt;Node2 -->
<g id="edge14" class="edge"><title>Node8&#45;&gt;Node2</title>
<path fill="none" stroke="#9a32cd" stroke-dasharray="5,2" d="M87.1852,-88.5663C120.96,-86.7215 178.666,-87.0199 224,-105 243.592,-112.771 261.885,-129.464 272.503,-140.458"/>
<polygon fill="#9a32cd" stroke="#9a32cd" points="86.8585,-85.08 77.1064,-89.2209 87.3123,-92.0653 86.8585,-85.08"/>
<text text-anchor="middle" x="180" y="-109" font-family="Helvetica,sans-Serif" font-size="10.00"> m_clearing</text>
</g>
<!-- Node9 -->
<g id="node16" class="node"><title>Node9</title>
<polygon fill="white" stroke="#bfbfbf" points="37.5,-40.5 37.5,-61.5 80.5,-61.5 80.5,-40.5 37.5,-40.5"/>
<text text-anchor="middle" x="59" y="-48.5" font-family="Helvetica,sans-Serif" font-size="10.00">string</text>
</g>
<!-- Node9&#45;&gt;Node2 -->
<g id="edge16" class="edge"><title>Node9&#45;&gt;Node2</title>
<path fill="none" stroke="#9a32cd" stroke-dasharray="5,2" d="M90.9224,-47.6438C126.017,-45.5137 182.873,-46.7892 224,-71 251.645,-87.2743 269.85,-122.46 277.656,-140.244"/>
<polygon fill="#9a32cd" stroke="#9a32cd" points="90.4864,-44.1664 80.771,-48.3926 91.0014,-51.1474 90.4864,-44.1664"/>
<text text-anchor="middle" x="180" y="-75" font-family="Helvetica,sans-Serif" font-size="10.00"> m_name</text>
</g>
<!-- Node10 -->
<g id="node18" class="node"><title>Node10</title>
<polygon fill="white" stroke="#bfbfbf" points="0.5,-0.5 0.5,-21.5 117.5,-21.5 117.5,-0.5 0.5,-0.5"/>
<text text-anchor="middle" x="59" y="-8.5" font-family="Helvetica,sans-Serif" font-size="10.00">map&lt; int, Window * &gt;</text>
</g>
<!-- Node10&#45;&gt;Node2 -->
<g id="edge18" class="edge"><title>Node10&#45;&gt;Node2</title>
<path fill="none" stroke="#9a32cd" stroke-dasharray="5,2" d="M127.93,-4.4044C159.793,-4.78143 196.561,-10.4432 224,-30 262.13,-57.1771 276.139,-116.271 280.399,-140.408"/>
<polygon fill="#9a32cd" stroke="#9a32cd" points="127.757,-0.905151 117.775,-4.45677 127.793,-7.90506 127.757,-0.905151"/>
<text text-anchor="middle" x="180" y="-34" font-family="Helvetica,sans-Serif" font-size="10.00"> m_winMap</text>
</g>
</g>
</svg>
