<?xml version="1.0" encoding="UTF-8" standalone="no"?>
<!DOCTYPE svg PUBLIC "-//W3C//DTD SVG 1.1//EN"
 "http://www.w3.org/Graphics/SVG/1.1/DTD/svg11.dtd">
<!-- Generated by graphviz version 2.26.3 (20100126.1600)
 -->
<!-- Title: QGraphicsPixmapObject Pages: 1 -->
<svg width="487pt" height="102pt"
 viewBox="0.00 0.00 487.00 102.00" xmlns="http://www.w3.org/2000/svg" xmlns:xlink="http://www.w3.org/1999/xlink">
<g id="graph1" class="graph" transform="scale(1 1) rotate(0) translate(4 98)">
<title>QGraphicsPixmapObject</title>
<polygon fill="white" stroke="white" points="-4,5 -4,-98 484,-98 484,5 -4,5"/>
<!-- Node1 -->
<g id="node1" class="node"><title>Node1</title>
<polygon fill="#bfbfbf" stroke="black" points="196,-0.5 196,-21.5 328,-21.5 328,-0.5 196,-0.5"/>
<text text-anchor="middle" x="262" y="-8.5" font-family="Helvetica,sans-Serif" font-size="10.00">QGraphicsPixmapObject</text>
</g>
<!-- Node2 -->
<g id="node2" class="node"><title>Node2</title>
<a xlink:href="classQGraphicsObject.htm" target="_top" xlink:title="QGraphicsObject">
<polygon fill="white" stroke="black" points="0,-72.5 0,-93.5 98,-93.5 98,-72.5 0,-72.5"/>
<text text-anchor="middle" x="49" y="-80.5" font-family="Helvetica,sans-Serif" font-size="10.00">QGraphicsObject</text>
</a>
</g>
<!-- Node2&#45;&gt;Node1 -->
<g id="edge2" class="edge"><title>Node2&#45;&gt;Node1</title>
<path fill="none" stroke="midnightblue" d="M88.6086,-69.0522C112.922,-60.5435 144.717,-49.5108 173,-40 191.484,-33.7843 212.195,-27.0237 228.984,-21.5949"/>
<polygon fill="midnightblue" stroke="midnightblue" points="87.2936,-65.8043 79.014,-72.4149 89.6088,-72.4104 87.2936,-65.8043"/>
</g>
<!-- Node3 -->
<g id="node4" class="node"><title>Node3</title>
<polygon fill="white" stroke="#bfbfbf" points="116,-72.5 116,-93.5 218,-93.5 218,-72.5 116,-72.5"/>
<text text-anchor="middle" x="167" y="-80.5" font-family="Helvetica,sans-Serif" font-size="10.00">CompositionMode</text>
</g>
<!-- Node3&#45;&gt;Node1 -->
<g id="edge4" class="edge"><title>Node3&#45;&gt;Node1</title>
<path fill="none" stroke="#9a32cd" stroke-dasharray="5,2" d="M173.173,-62.9719C176.488,-54.9562 181.301,-46.1782 188,-40 196.825,-31.8612 208.198,-25.9049 219.368,-21.5877"/>
<polygon fill="#9a32cd" stroke="#9a32cd" points="169.85,-61.8701 169.748,-72.4644 176.435,-64.2459 169.85,-61.8701"/>
<text text-anchor="middle" x="223" y="-44.5" font-family="Helvetica,sans-Serif" font-size="10.00"> m_compMode</text>
</g>
<!-- Node4 -->
<g id="node6" class="node"><title>Node4</title>
<polygon fill="white" stroke="#bfbfbf" points="235.5,-72.5 235.5,-93.5 294.5,-93.5 294.5,-72.5 235.5,-72.5"/>
<text text-anchor="middle" x="265" y="-80.5" font-family="Helvetica,sans-Serif" font-size="10.00">QPixmap</text>
</g>
<!-- Node4&#45;&gt;Node1 -->
<g id="edge6" class="edge"><title>Node4&#45;&gt;Node1</title>
<path fill="none" stroke="#9a32cd" stroke-dasharray="5,2" d="M263.449,-62.1761C263.278,-59.4275 263.122,-56.6467 263,-54 262.491,-42.9601 262.236,-30.3133 262.112,-21.6074"/>
<polygon fill="#9a32cd" stroke="#9a32cd" points="259.965,-62.528 264.142,-72.2645 266.948,-62.048 259.965,-62.528"/>
<text text-anchor="middle" x="289" y="-44.5" font-family="Helvetica,sans-Serif" font-size="10.00"> m_pixmap</text>
</g>
<!-- Node5 -->
<g id="node8" class="node"><title>Node5</title>
<polygon fill="white" stroke="#bfbfbf" points="316.5,-72.5 316.5,-93.5 357.5,-93.5 357.5,-72.5 316.5,-72.5"/>
<text text-anchor="middle" x="337" y="-80.5" font-family="Helvetica,sans-Serif" font-size="10.00">qreal</text>
</g>
<!-- Node5&#45;&gt;Node1 -->
<g id="edge8" class="edge"><title>Node5&#45;&gt;Node1</title>
<path fill="none" stroke="#9a32cd" stroke-dasharray="5,2" d="M329.802,-63.0729C326.242,-55.2048 321.331,-46.5091 315,-40 307.541,-32.3307 297.612,-26.1691 288.365,-21.5312"/>
<polygon fill="#9a32cd" stroke="#9a32cd" points="326.576,-64.4318 333.594,-72.3696 333.058,-61.7883 326.576,-64.4318"/>
<text text-anchor="middle" x="352" y="-44.5" font-family="Helvetica,sans-Serif" font-size="10.00"> m_rotation</text>
</g>
<!-- Node6 -->
<g id="node10" class="node"><title>Node6</title>
<a xlink:href="classint.htm" target="_top" xlink:title="int">
<polygon fill="white" stroke="black" points="399.5,-72.5 399.5,-93.5 428.5,-93.5 428.5,-72.5 399.5,-72.5"/>
<text text-anchor="middle" x="414" y="-80.5" font-family="Helvetica,sans-Serif" font-size="10.00">int</text>
</a>
</g>
<!-- Node6&#45;&gt;Node1 -->
<g id="edge10" class="edge"><title>Node6&#45;&gt;Node1</title>
<path fill="none" stroke="#9a32cd" stroke-dasharray="5,2" d="M404.119,-63.5555C398.913,-55.1375 391.775,-45.8839 383,-40 372.773,-33.1424 347.66,-26.6415 322.947,-21.5396"/>
<polygon fill="#9a32cd" stroke="#9a32cd" points="401.194,-65.494 409.159,-72.4805 407.289,-62.0519 401.194,-65.494"/>
<text text-anchor="middle" x="438" y="-44.5" font-family="Helvetica,sans-Serif" font-size="10.00"> m_topClipHeight</text>
</g>
</g>
</svg>
