<?xml version="1.0" encoding="UTF-8" standalone="no"?>
<!DOCTYPE svg PUBLIC "-//W3C//DTD SVG 1.1//EN"
 "http://www.w3.org/Graphics/SVG/1.1/DTD/svg11.dtd">
<!-- Generated by graphviz version 2.26.3 (20100126.1600)
 -->
<!-- Title: CmdResourceHandlers.cpp Pages: 1 -->
<svg width="921pt" height="204pt"
 viewBox="0.00 0.00 921.00 204.00" xmlns="http://www.w3.org/2000/svg" xmlns:xlink="http://www.w3.org/1999/xlink">
<g id="graph1" class="graph" transform="scale(1 1) rotate(0) translate(4 200)">
<title>CmdResourceHandlers.cpp</title>
<polygon fill="white" stroke="white" points="-4,5 -4,-200 918,-200 918,5 -4,5"/>
<!-- Node1 -->
<g id="node1" class="node"><title>Node1</title>
<polygon fill="#bfbfbf" stroke="black" points="524,-174.5 524,-195.5 670,-195.5 670,-174.5 524,-174.5"/>
<text text-anchor="middle" x="597" y="-182.5" font-family="Helvetica,sans-Serif" font-size="10.00">CmdResourceHandlers.cpp</text>
</g>
<!-- Node2 -->
<g id="node3" class="node"><title>Node2</title>
<polygon fill="white" stroke="#bfbfbf" points="-0.5,-0.5 -0.5,-21.5 66.5,-21.5 66.5,-0.5 -0.5,-0.5"/>
<text text-anchor="middle" x="33" y="-8.5" font-family="Helvetica,sans-Serif" font-size="10.00">Common.h</text>
</g>
<!-- Node1&#45;&gt;Node2 -->
<g id="edge2" class="edge"><title>Node1&#45;&gt;Node2</title>
<path fill="none" stroke="midnightblue" d="M523.962,-180.08C393.384,-169.809 127.345,-141.723 61,-80 47.3665,-67.3162 40.2106,-47.0617 36.5592,-31.7712"/>
<polygon fill="midnightblue" stroke="midnightblue" points="39.9282,-30.7789 34.4772,-21.6939 33.073,-32.1953 39.9282,-30.7789"/>
</g>
<!-- Node3 -->
<g id="node5" class="node"><title>Node3</title>
<polygon fill="white" stroke="#bfbfbf" points="598.5,-116.5 598.5,-137.5 647.5,-137.5 647.5,-116.5 598.5,-116.5"/>
<text text-anchor="middle" x="623" y="-124.5" font-family="Helvetica,sans-Serif" font-size="10.00">stdlib.h</text>
</g>
<!-- Node1&#45;&gt;Node3 -->
<g id="edge4" class="edge"><title>Node1&#45;&gt;Node3</title>
<path fill="none" stroke="midnightblue" d="M601.769,-174.362C605.214,-166.677 609.969,-156.069 614.106,-146.84"/>
<polygon fill="midnightblue" stroke="midnightblue" points="617.365,-148.127 618.261,-137.571 610.977,-145.264 617.365,-148.127"/>
</g>
<!-- Node4 -->
<g id="node7" class="node"><title>Node4</title>
<polygon fill="white" stroke="#bfbfbf" points="664.5,-116.5 664.5,-137.5 715.5,-137.5 715.5,-116.5 664.5,-116.5"/>
<text text-anchor="middle" x="690" y="-124.5" font-family="Helvetica,sans-Serif" font-size="10.00">string.h</text>
</g>
<!-- Node1&#45;&gt;Node4 -->
<g id="edge6" class="edge"><title>Node1&#45;&gt;Node4</title>
<path fill="none" stroke="midnightblue" d="M614.058,-174.362C628.085,-165.614 648.184,-153.079 664.182,-143.101"/>
<polygon fill="midnightblue" stroke="midnightblue" points="666.418,-145.832 673.051,-137.571 662.713,-139.893 666.418,-145.832"/>
</g>
<!-- Node5 -->
<g id="node9" class="node"><title>Node5</title>
<polygon fill="white" stroke="#bfbfbf" points="363.5,-0.5 363.5,-21.5 406.5,-21.5 406.5,-0.5 363.5,-0.5"/>
<text text-anchor="middle" x="385" y="-8.5" font-family="Helvetica,sans-Serif" font-size="10.00">string</text>
</g>
<!-- Node1&#45;&gt;Node5 -->
<g id="edge8" class="edge"><title>Node1&#45;&gt;Node5</title>
<path fill="none" stroke="midnightblue" d="M594.534,-174.243C588.01,-146.666 569.591,-74.4637 552,-58 532.395,-39.6519 459.09,-24.063 416.397,-16.2902"/>
<polygon fill="midnightblue" stroke="midnightblue" points="416.967,-12.8367 406.508,-14.5298 415.74,-19.7284 416.967,-12.8367"/>
</g>
<!-- Node6 -->
<g id="node11" class="node"><title>Node6</title>
<a xlink:href="CmdResourceHandlers_8h.htm" target="_top" xlink:title="CmdResourceHandlers.h">
<polygon fill="white" stroke="black" points="99,-58.5 99,-79.5 233,-79.5 233,-58.5 99,-58.5"/>
<text text-anchor="middle" x="166" y="-66.5" font-family="Helvetica,sans-Serif" font-size="10.00">CmdResourceHandlers.h</text>
</a>
</g>
<!-- Node1&#45;&gt;Node6 -->
<g id="edge10" class="edge"><title>Node1&#45;&gt;Node6</title>
<path fill="none" stroke="midnightblue" d="M523.879,-181.002C460.788,-175.863 367.95,-164.219 291,-138 253.342,-125.169 213.771,-101.306 189.487,-85.2869"/>
<polygon fill="midnightblue" stroke="midnightblue" points="191.219,-82.2342 180.965,-79.5708 187.32,-88.0478 191.219,-82.2342"/>
</g>
<!-- Node11 -->
<g id="node23" class="node"><title>Node11</title>
<a xlink:href="MimeSystem_8h.htm" target="_top" xlink:title="MimeSystem.h">
<polygon fill="white" stroke="black" points="299.5,-116.5 299.5,-137.5 384.5,-137.5 384.5,-116.5 299.5,-116.5"/>
<text text-anchor="middle" x="342" y="-124.5" font-family="Helvetica,sans-Serif" font-size="10.00">MimeSystem.h</text>
</a>
</g>
<!-- Node1&#45;&gt;Node11 -->
<g id="edge24" class="edge"><title>Node1&#45;&gt;Node11</title>
<path fill="none" stroke="midnightblue" d="M550.821,-174.497C506.83,-164.491 440.671,-149.443 394.652,-138.976"/>
<polygon fill="midnightblue" stroke="midnightblue" points="395.392,-135.555 384.864,-136.75 393.839,-142.38 395.392,-135.555"/>
</g>
<!-- Node15 -->
<g id="node36" class="node"><title>Node15</title>
<polygon fill="white" stroke="#bfbfbf" points="733,-116.5 733,-137.5 805,-137.5 805,-116.5 733,-116.5"/>
<text text-anchor="middle" x="769" y="-124.5" font-family="Helvetica,sans-Serif" font-size="10.00">cjson/json.h</text>
</g>
<!-- Node1&#45;&gt;Node15 -->
<g id="edge42" class="edge"><title>Node1&#45;&gt;Node15</title>
<path fill="none" stroke="midnightblue" d="M628.148,-174.497C656.189,-165.041 697.582,-151.083 728.245,-140.743"/>
<polygon fill="midnightblue" stroke="midnightblue" points="729.436,-144.035 737.794,-137.523 727.2,-137.402 729.436,-144.035"/>
</g>
<!-- Node16 -->
<g id="node38" class="node"><title>Node16</title>
<polygon fill="white" stroke="#bfbfbf" points="822.5,-116.5 822.5,-137.5 913.5,-137.5 913.5,-116.5 822.5,-116.5"/>
<text text-anchor="middle" x="868" y="-124.5" font-family="Helvetica,sans-Serif" font-size="10.00">cjson/json_util.h</text>
</g>
<!-- Node1&#45;&gt;Node16 -->
<g id="edge44" class="edge"><title>Node1&#45;&gt;Node16</title>
<path fill="none" stroke="midnightblue" d="M646.076,-174.497C693.024,-164.449 763.727,-149.317 812.658,-138.844"/>
<polygon fill="midnightblue" stroke="midnightblue" points="813.4,-142.265 822.446,-136.75 811.935,-135.42 813.4,-142.265"/>
</g>
<!-- Node6&#45;&gt;Node2 -->
<g id="edge12" class="edge"><title>Node6&#45;&gt;Node2</title>
<path fill="none" stroke="midnightblue" d="M141.915,-58.4966C120.861,-49.3154 90.0728,-35.8889 66.5976,-25.6516"/>
<polygon fill="midnightblue" stroke="midnightblue" points="67.921,-22.4104 57.3556,-21.6212 65.1228,-28.8268 67.921,-22.4104"/>
</g>
<!-- Node6&#45;&gt;Node5 -->
<g id="edge18" class="edge"><title>Node6&#45;&gt;Node5</title>
<path fill="none" stroke="midnightblue" d="M205.659,-58.4966C248.091,-47.2591 314.535,-29.662 353.521,-19.3368"/>
<polygon fill="midnightblue" stroke="midnightblue" points="354.508,-22.6962 363.279,-16.7527 352.716,-15.9295 354.508,-22.6962"/>
</g>
<!-- Node7 -->
<g id="node14" class="node"><title>Node7</title>
<polygon fill="white" stroke="#bfbfbf" points="84,-0.5 84,-21.5 136,-21.5 136,-0.5 84,-0.5"/>
<text text-anchor="middle" x="110" y="-8.5" font-family="Helvetica,sans-Serif" font-size="10.00">regex.h</text>
</g>
<!-- Node6&#45;&gt;Node7 -->
<g id="edge14" class="edge"><title>Node6&#45;&gt;Node7</title>
<path fill="none" stroke="midnightblue" d="M155.729,-58.3619C147.756,-50.1043 136.525,-38.4725 127.189,-28.8029"/>
<polygon fill="midnightblue" stroke="midnightblue" points="129.67,-26.3336 120.206,-21.5707 124.634,-31.1958 129.67,-26.3336"/>
</g>
<!-- Node8 -->
<g id="node16" class="node"><title>Node8</title>
<polygon fill="white" stroke="#bfbfbf" points="154,-0.5 154,-21.5 204,-21.5 204,-0.5 154,-0.5"/>
<text text-anchor="middle" x="179" y="-8.5" font-family="Helvetica,sans-Serif" font-size="10.00">stdint.h</text>
</g>
<!-- Node6&#45;&gt;Node8 -->
<g id="edge16" class="edge"><title>Node6&#45;&gt;Node8</title>
<path fill="none" stroke="midnightblue" d="M168.384,-58.3619C170.07,-50.8401 172.384,-40.5187 174.421,-31.4308"/>
<polygon fill="midnightblue" stroke="midnightblue" points="177.859,-32.0941 176.631,-21.5707 171.028,-30.563 177.859,-32.0941"/>
</g>
<!-- Node9 -->
<g id="node19" class="node"><title>Node9</title>
<polygon fill="white" stroke="#bfbfbf" points="222,-0.5 222,-21.5 268,-21.5 268,-0.5 222,-0.5"/>
<text text-anchor="middle" x="245" y="-8.5" font-family="Helvetica,sans-Serif" font-size="10.00">vector</text>
</g>
<!-- Node6&#45;&gt;Node9 -->
<g id="edge20" class="edge"><title>Node6&#45;&gt;Node9</title>
<path fill="none" stroke="midnightblue" d="M180.49,-58.3619C192.183,-49.7773 208.843,-37.5459 222.303,-27.6636"/>
<polygon fill="midnightblue" stroke="midnightblue" points="224.613,-30.31 230.602,-21.5707 220.47,-24.6675 224.613,-30.31"/>
</g>
<!-- Node10 -->
<g id="node21" class="node"><title>Node10</title>
<polygon fill="white" stroke="#bfbfbf" points="285.5,-0.5 285.5,-21.5 322.5,-21.5 322.5,-0.5 285.5,-0.5"/>
<text text-anchor="middle" x="304" y="-8.5" font-family="Helvetica,sans-Serif" font-size="10.00">map</text>
</g>
<!-- Node6&#45;&gt;Node10 -->
<g id="edge22" class="edge"><title>Node6&#45;&gt;Node10</title>
<path fill="none" stroke="midnightblue" d="M190.991,-58.4966C214.99,-48.41 251.18,-33.1996 276.107,-22.7232"/>
<polygon fill="midnightblue" stroke="midnightblue" points="277.52,-25.9258 285.383,-18.8245 274.808,-19.4725 277.52,-25.9258"/>
</g>
<!-- Node11&#45;&gt;Node2 -->
<g id="edge26" class="edge"><title>Node11&#45;&gt;Node2</title>
<path fill="none" stroke="midnightblue" d="M299.494,-122.613C237.233,-115.598 124.846,-100.528 90,-80 69.9332,-68.1786 53.8242,-46.5455 43.9176,-30.6432"/>
<polygon fill="midnightblue" stroke="midnightblue" points="46.6803,-28.4396 38.571,-21.6212 40.6583,-32.0084 46.6803,-28.4396"/>
</g>
<!-- Node11&#45;&gt;Node5 -->
<g id="edge28" class="edge"><title>Node11&#45;&gt;Node5</title>
<path fill="none" stroke="midnightblue" d="M348.169,-116.459C353.443,-107.117 360.959,-92.9817 366,-80 372.104,-64.2806 377.076,-45.8353 380.401,-31.9726"/>
<polygon fill="midnightblue" stroke="midnightblue" points="383.869,-32.5075 382.704,-21.977 377.048,-30.9357 383.869,-32.5075"/>
</g>
<!-- Node11&#45;&gt;Node6 -->
<g id="edge40" class="edge"><title>Node11&#45;&gt;Node6</title>
<path fill="none" stroke="midnightblue" d="M310.128,-116.497C281.435,-107.041 239.079,-93.0829 207.702,-82.7428"/>
<polygon fill="midnightblue" stroke="midnightblue" points="208.525,-79.3289 197.932,-79.5231 206.334,-85.9772 208.525,-79.3289"/>
</g>
<!-- Node11&#45;&gt;Node9 -->
<g id="edge30" class="edge"><title>Node11&#45;&gt;Node9</title>
<path fill="none" stroke="midnightblue" d="M333.048,-116.295C316.518,-96.5271 281.024,-54.0801 260.507,-29.5443"/>
<polygon fill="midnightblue" stroke="midnightblue" points="263.03,-27.1054 253.93,-21.6792 257.66,-31.5958 263.03,-27.1054"/>
</g>
<!-- Node11&#45;&gt;Node10 -->
<g id="edge32" class="edge"><title>Node11&#45;&gt;Node10</title>
<path fill="none" stroke="midnightblue" d="M335.395,-116.172C329.994,-106.88 322.533,-92.9738 318,-80 312.464,-64.1571 308.839,-45.461 306.668,-31.5291"/>
<polygon fill="midnightblue" stroke="midnightblue" points="310.117,-30.9231 305.23,-21.5229 303.188,-31.9192 310.117,-30.9231"/>
</g>
<!-- Node12 -->
<g id="node29" class="node"><title>Node12</title>
<polygon fill="white" stroke="#bfbfbf" points="326.5,-58.5 326.5,-79.5 357.5,-79.5 357.5,-58.5 326.5,-58.5"/>
<text text-anchor="middle" x="342" y="-66.5" font-family="Helvetica,sans-Serif" font-size="10.00">set</text>
</g>
<!-- Node11&#45;&gt;Node12 -->
<g id="edge34" class="edge"><title>Node11&#45;&gt;Node12</title>
<path fill="none" stroke="midnightblue" d="M342,-116.362C342,-108.922 342,-98.7427 342,-89.7276"/>
<polygon fill="midnightblue" stroke="midnightblue" points="345.5,-89.5706 342,-79.5707 338.5,-89.5707 345.5,-89.5706"/>
</g>
<!-- Node13 -->
<g id="node31" class="node"><title>Node13</title>
<polygon fill="white" stroke="#bfbfbf" points="413,-58.5 413,-79.5 473,-79.5 473,-58.5 413,-58.5"/>
<text text-anchor="middle" x="443" y="-66.5" font-family="Helvetica,sans-Serif" font-size="10.00">algorithm</text>
</g>
<!-- Node11&#45;&gt;Node13 -->
<g id="edge36" class="edge"><title>Node11&#45;&gt;Node13</title>
<path fill="none" stroke="midnightblue" d="M360.525,-116.362C375.901,-107.532 397.996,-94.844 415.447,-84.8224"/>
<polygon fill="midnightblue" stroke="midnightblue" points="417.664,-87.5857 424.592,-79.5707 414.178,-81.5154 417.664,-87.5857"/>
</g>
<!-- Node14 -->
<g id="node33" class="node"><title>Node14</title>
<polygon fill="white" stroke="#bfbfbf" points="490.5,-58.5 490.5,-79.5 543.5,-79.5 543.5,-58.5 490.5,-58.5"/>
<text text-anchor="middle" x="517" y="-66.5" font-family="Helvetica,sans-Serif" font-size="10.00">Mutex.h</text>
</g>
<!-- Node11&#45;&gt;Node14 -->
<g id="edge38" class="edge"><title>Node11&#45;&gt;Node14</title>
<path fill="none" stroke="midnightblue" d="M373.691,-116.497C403.821,-106.511 449.102,-91.5033 480.676,-81.0389"/>
<polygon fill="midnightblue" stroke="midnightblue" points="482.018,-84.2815 490.409,-77.8131 479.815,-77.6369 482.018,-84.2815"/>
</g>
</g>
</svg>
