<?xml version="1.0" encoding="UTF-8" standalone="no"?>
<!DOCTYPE svg PUBLIC "-//W3C//DTD SVG 1.1//EN"
 "http://www.w3.org/Graphics/SVG/1.1/DTD/svg11.dtd">
<!-- Generated by graphviz version 2.26.3 (20100126.1600)
 -->
<!-- Title: CmdResourceHandlers.h Pages: 1 -->
<svg width="390pt" height="88pt"
 viewBox="0.00 0.00 390.00 88.00" xmlns="http://www.w3.org/2000/svg" xmlns:xlink="http://www.w3.org/1999/xlink">
<g id="graph1" class="graph" transform="scale(1 1) rotate(0) translate(4 84)">
<title>CmdResourceHandlers.h</title>
<polygon fill="white" stroke="white" points="-4,5 -4,-84 387,-84 387,5 -4,5"/>
<!-- Node1 -->
<g id="node1" class="node"><title>Node1</title>
<polygon fill="#bfbfbf" stroke="black" points="144,-58.5 144,-79.5 278,-79.5 278,-58.5 144,-58.5"/>
<text text-anchor="middle" x="211" y="-66.5" font-family="Helvetica,sans-Serif" font-size="10.00">CmdResourceHandlers.h</text>
</g>
<!-- Node2 -->
<g id="node3" class="node"><title>Node2</title>
<polygon fill="white" stroke="#bfbfbf" points="-0.5,-0.5 -0.5,-21.5 66.5,-21.5 66.5,-0.5 -0.5,-0.5"/>
<text text-anchor="middle" x="33" y="-8.5" font-family="Helvetica,sans-Serif" font-size="10.00">Common.h</text>
</g>
<!-- Node1&#45;&gt;Node2 -->
<g id="edge2" class="edge"><title>Node1&#45;&gt;Node2</title>
<path fill="none" stroke="midnightblue" d="M178.766,-58.4966C149.747,-49.0411 106.91,-35.0829 75.1762,-24.7428"/>
<polygon fill="midnightblue" stroke="midnightblue" points="75.8873,-21.2934 65.2949,-21.5231 73.7185,-27.949 75.8873,-21.2934"/>
</g>
<!-- Node3 -->
<g id="node5" class="node"><title>Node3</title>
<polygon fill="white" stroke="#bfbfbf" points="84,-0.5 84,-21.5 136,-21.5 136,-0.5 84,-0.5"/>
<text text-anchor="middle" x="110" y="-8.5" font-family="Helvetica,sans-Serif" font-size="10.00">regex.h</text>
</g>
<!-- Node1&#45;&gt;Node3 -->
<g id="edge4" class="edge"><title>Node1&#45;&gt;Node3</title>
<path fill="none" stroke="midnightblue" d="M192.475,-58.3619C177.099,-49.532 155.004,-36.844 137.553,-26.8224"/>
<polygon fill="midnightblue" stroke="midnightblue" points="138.822,-23.5154 128.408,-21.5707 135.336,-29.5857 138.822,-23.5154"/>
</g>
<!-- Node4 -->
<g id="node7" class="node"><title>Node4</title>
<polygon fill="white" stroke="#bfbfbf" points="154,-0.5 154,-21.5 204,-21.5 204,-0.5 154,-0.5"/>
<text text-anchor="middle" x="179" y="-8.5" font-family="Helvetica,sans-Serif" font-size="10.00">stdint.h</text>
</g>
<!-- Node1&#45;&gt;Node4 -->
<g id="edge6" class="edge"><title>Node1&#45;&gt;Node4</title>
<path fill="none" stroke="midnightblue" d="M205.131,-58.3619C200.845,-50.5949 194.913,-39.8426 189.784,-30.5458"/>
<polygon fill="midnightblue" stroke="midnightblue" points="192.727,-28.6357 184.832,-21.5707 186.598,-32.0172 192.727,-28.6357"/>
</g>
<!-- Node5 -->
<g id="node9" class="node"><title>Node5</title>
<polygon fill="white" stroke="#bfbfbf" points="221.5,-0.5 221.5,-21.5 264.5,-21.5 264.5,-0.5 221.5,-0.5"/>
<text text-anchor="middle" x="243" y="-8.5" font-family="Helvetica,sans-Serif" font-size="10.00">string</text>
</g>
<!-- Node1&#45;&gt;Node5 -->
<g id="edge8" class="edge"><title>Node1&#45;&gt;Node5</title>
<path fill="none" stroke="midnightblue" d="M216.869,-58.3619C221.155,-50.5949 227.087,-39.8426 232.216,-30.5458"/>
<polygon fill="midnightblue" stroke="midnightblue" points="235.402,-32.0172 237.168,-21.5707 229.273,-28.6357 235.402,-32.0172"/>
</g>
<!-- Node6 -->
<g id="node11" class="node"><title>Node6</title>
<polygon fill="white" stroke="#bfbfbf" points="282,-0.5 282,-21.5 328,-21.5 328,-0.5 282,-0.5"/>
<text text-anchor="middle" x="305" y="-8.5" font-family="Helvetica,sans-Serif" font-size="10.00">vector</text>
</g>
<!-- Node1&#45;&gt;Node6 -->
<g id="edge10" class="edge"><title>Node1&#45;&gt;Node6</title>
<path fill="none" stroke="midnightblue" d="M228.241,-58.3619C242.552,-49.532 263.115,-36.844 279.357,-26.8224"/>
<polygon fill="midnightblue" stroke="midnightblue" points="281.196,-29.8004 287.868,-21.5707 277.52,-23.8431 281.196,-29.8004"/>
</g>
<!-- Node7 -->
<g id="node13" class="node"><title>Node7</title>
<polygon fill="white" stroke="#bfbfbf" points="345.5,-0.5 345.5,-21.5 382.5,-21.5 382.5,-0.5 345.5,-0.5"/>
<text text-anchor="middle" x="364" y="-8.5" font-family="Helvetica,sans-Serif" font-size="10.00">map</text>
</g>
<!-- Node1&#45;&gt;Node7 -->
<g id="edge12" class="edge"><title>Node1&#45;&gt;Node7</title>
<path fill="none" stroke="midnightblue" d="M240.12,-58.4177C263.718,-49.7806 298.044,-37.0795 335.776,-22.4161"/>
<polygon fill="midnightblue" stroke="midnightblue" points="337.394,-25.5421 345.438,-18.6472 334.85,-19.0207 337.394,-25.5421"/>
</g>
</g>
</svg>
