<?xml version="1.0" encoding="UTF-8" standalone="no"?>
<!DOCTYPE svg PUBLIC "-//W3C//DTD SVG 1.1//EN"
 "http://www.w3.org/Graphics/SVG/1.1/DTD/svg11.dtd">
<!-- Generated by graphviz version 2.26.3 (20100126.1600)
 -->
<!-- Title: CoreNaviLeds.h Pages: 1 -->
<svg width="734pt" height="88pt"
 viewBox="0.00 0.00 734.00 88.00" xmlns="http://www.w3.org/2000/svg" xmlns:xlink="http://www.w3.org/1999/xlink">
<g id="graph1" class="graph" transform="scale(1 1) rotate(0) translate(4 84)">
<title>CoreNaviLeds.h</title>
<polygon fill="white" stroke="white" points="-4,5 -4,-84 731,-84 731,5 -4,5"/>
<!-- Node1 -->
<g id="node1" class="node"><title>Node1</title>
<polygon fill="#bfbfbf" stroke="black" points="292,-58.5 292,-79.5 384,-79.5 384,-58.5 292,-58.5"/>
<text text-anchor="middle" x="338" y="-66.5" font-family="Helvetica,sans-Serif" font-size="10.00">CoreNaviLeds.h</text>
</g>
<!-- Node2 -->
<g id="node3" class="node"><title>Node2</title>
<polygon fill="white" stroke="#bfbfbf" points="-0.5,-0.5 -0.5,-21.5 66.5,-21.5 66.5,-0.5 -0.5,-0.5"/>
<text text-anchor="middle" x="33" y="-8.5" font-family="Helvetica,sans-Serif" font-size="10.00">Common.h</text>
</g>
<!-- Node1&#45;&gt;Node2 -->
<g id="edge2" class="edge"><title>Node1&#45;&gt;Node2</title>
<path fill="none" stroke="midnightblue" d="M291.697,-61.8657C241.049,-53.8084 157.289,-39.7427 76.6823,-22.2653"/>
<polygon fill="midnightblue" stroke="midnightblue" points="77.3874,-18.8368 66.8702,-20.1172 75.8903,-25.6749 77.3874,-18.8368"/>
</g>
<!-- Node3 -->
<g id="node5" class="node"><title>Node3</title>
<polygon fill="white" stroke="#bfbfbf" points="84,-0.5 84,-21.5 128,-21.5 128,-0.5 84,-0.5"/>
<text text-anchor="middle" x="106" y="-8.5" font-family="Helvetica,sans-Serif" font-size="10.00">fcntl.h</text>
</g>
<!-- Node1&#45;&gt;Node3 -->
<g id="edge4" class="edge"><title>Node1&#45;&gt;Node3</title>
<path fill="none" stroke="midnightblue" d="M291.718,-59.7083C252.893,-51.5706 195.85,-38.8178 137.932,-22.0653"/>
<polygon fill="midnightblue" stroke="midnightblue" points="138.835,-18.6828 128.254,-19.2304 136.867,-25.4005 138.835,-18.6828"/>
</g>
<!-- Node4 -->
<g id="node7" class="node"><title>Node4</title>
<polygon fill="white" stroke="#bfbfbf" points="145.5,-0.5 145.5,-21.5 192.5,-21.5 192.5,-0.5 145.5,-0.5"/>
<text text-anchor="middle" x="169" y="-8.5" font-family="Helvetica,sans-Serif" font-size="10.00">stdio.h</text>
</g>
<!-- Node1&#45;&gt;Node4 -->
<g id="edge6" class="edge"><title>Node1&#45;&gt;Node4</title>
<path fill="none" stroke="midnightblue" d="M307.256,-58.4588C281.495,-49.625 243.499,-36.5922 202.417,-22.4856"/>
<polygon fill="midnightblue" stroke="midnightblue" points="203.36,-19.1087 192.765,-19.1711 201.086,-25.7292 203.36,-19.1087"/>
</g>
<!-- Node5 -->
<g id="node9" class="node"><title>Node5</title>
<polygon fill="white" stroke="#bfbfbf" points="209.5,-0.5 209.5,-21.5 258.5,-21.5 258.5,-0.5 209.5,-0.5"/>
<text text-anchor="middle" x="234" y="-8.5" font-family="Helvetica,sans-Serif" font-size="10.00">stdlib.h</text>
</g>
<!-- Node1&#45;&gt;Node5 -->
<g id="edge8" class="edge"><title>Node1&#45;&gt;Node5</title>
<path fill="none" stroke="midnightblue" d="M318.925,-58.3619C302.945,-49.4502 279.919,-36.6087 261.873,-26.5447"/>
<polygon fill="midnightblue" stroke="midnightblue" points="263.393,-23.3846 252.954,-21.5707 259.983,-29.4982 263.393,-23.3846"/>
</g>
<!-- Node6 -->
<g id="node11" class="node"><title>Node6</title>
<polygon fill="white" stroke="#bfbfbf" points="275.5,-0.5 275.5,-21.5 326.5,-21.5 326.5,-0.5 275.5,-0.5"/>
<text text-anchor="middle" x="301" y="-8.5" font-family="Helvetica,sans-Serif" font-size="10.00">string.h</text>
</g>
<!-- Node1&#45;&gt;Node6 -->
<g id="edge10" class="edge"><title>Node1&#45;&gt;Node6</title>
<path fill="none" stroke="midnightblue" d="M331.214,-58.3619C326.207,-50.5131 319.255,-39.6159 313.282,-30.2527"/>
<polygon fill="midnightblue" stroke="midnightblue" points="316.072,-28.1189 307.743,-21.5707 310.171,-31.8837 316.072,-28.1189"/>
</g>
<!-- Node7 -->
<g id="node13" class="node"><title>Node7</title>
<polygon fill="white" stroke="#bfbfbf" points="344,-0.5 344,-21.5 406,-21.5 406,-0.5 344,-0.5"/>
<text text-anchor="middle" x="375" y="-8.5" font-family="Helvetica,sans-Serif" font-size="10.00">sys/ioctl.h</text>
</g>
<!-- Node1&#45;&gt;Node7 -->
<g id="edge12" class="edge"><title>Node1&#45;&gt;Node7</title>
<path fill="none" stroke="midnightblue" d="M344.786,-58.3619C349.793,-50.5131 356.745,-39.6159 362.718,-30.2527"/>
<polygon fill="midnightblue" stroke="midnightblue" points="365.829,-31.8837 368.257,-21.5707 359.928,-28.1189 365.829,-31.8837"/>
</g>
<!-- Node8 -->
<g id="node15" class="node"><title>Node8</title>
<polygon fill="white" stroke="#bfbfbf" points="423.5,-0.5 423.5,-21.5 476.5,-21.5 476.5,-0.5 423.5,-0.5"/>
<text text-anchor="middle" x="450" y="-8.5" font-family="Helvetica,sans-Serif" font-size="10.00">unistd.h</text>
</g>
<!-- Node1&#45;&gt;Node8 -->
<g id="edge14" class="edge"><title>Node1&#45;&gt;Node8</title>
<path fill="none" stroke="midnightblue" d="M358.282,-58.4966C375.618,-49.5194 400.79,-36.4835 420.38,-26.3387"/>
<polygon fill="midnightblue" stroke="midnightblue" points="422.22,-29.3278 429.49,-21.6212 419.001,-23.1118 422.22,-29.3278"/>
</g>
<!-- Node9 -->
<g id="node17" class="node"><title>Node9</title>
<polygon fill="white" stroke="#bfbfbf" points="494,-0.5 494,-21.5 544,-21.5 544,-0.5 494,-0.5"/>
<text text-anchor="middle" x="519" y="-8.5" font-family="Helvetica,sans-Serif" font-size="10.00">stdint.h</text>
</g>
<!-- Node1&#45;&gt;Node9 -->
<g id="edge16" class="edge"><title>Node1&#45;&gt;Node9</title>
<path fill="none" stroke="midnightblue" d="M370.997,-58.4858C398.759,-49.6316 439.759,-36.5371 483.972,-22.3245"/>
<polygon fill="midnightblue" stroke="midnightblue" points="485.304,-25.5727 493.752,-19.1791 483.161,-18.9088 485.304,-25.5727"/>
</g>
<!-- Node10 -->
<g id="node19" class="node"><title>Node10</title>
<polygon fill="white" stroke="#bfbfbf" points="561.5,-0.5 561.5,-21.5 616.5,-21.5 616.5,-0.5 561.5,-0.5"/>
<text text-anchor="middle" x="589" y="-8.5" font-family="Helvetica,sans-Serif" font-size="10.00">stdarg.h</text>
</g>
<!-- Node1&#45;&gt;Node10 -->
<g id="edge18" class="edge"><title>Node1&#45;&gt;Node10</title>
<path fill="none" stroke="midnightblue" d="M384.393,-59.9937C425.893,-51.6832 488.57,-38.5093 551.121,-22.3683"/>
<polygon fill="midnightblue" stroke="midnightblue" points="552.362,-25.6618 561.156,-19.7525 550.596,-18.8881 552.362,-25.6618"/>
</g>
<!-- Node11 -->
<g id="node21" class="node"><title>Node11</title>
<polygon fill="white" stroke="#bfbfbf" points="634,-0.5 634,-21.5 726,-21.5 726,-0.5 634,-0.5"/>
<text text-anchor="middle" x="680" y="-8.5" font-family="Helvetica,sans-Serif" font-size="10.00">nyx/nyx_client.h</text>
</g>
<!-- Node1&#45;&gt;Node11 -->
<g id="edge20" class="edge"><title>Node1&#45;&gt;Node11</title>
<path fill="none" stroke="midnightblue" d="M384.314,-61.9274C439.121,-53.4439 533.382,-38.4977 623.928,-22.1524"/>
<polygon fill="midnightblue" stroke="midnightblue" points="624.594,-25.5888 633.809,-20.3604 623.345,-18.7012 624.594,-25.5888"/>
</g>
</g>
</svg>
