<?xml version="1.0" encoding="UTF-8" standalone="no"?>
<!DOCTYPE svg PUBLIC "-//W3C//DTD SVG 1.1//EN"
 "http://www.w3.org/Graphics/SVG/1.1/DTD/svg11.dtd">
<!-- Generated by graphviz version 2.26.3 (20100126.1600)
 -->
<!-- Title: CoreNaviManager.h Pages: 1 -->
<svg width="2406pt" height="262pt"
 viewBox="0.00 0.00 2406.00 262.00" xmlns="http://www.w3.org/2000/svg" xmlns:xlink="http://www.w3.org/1999/xlink">
<g id="graph1" class="graph" transform="scale(1 1) rotate(0) translate(4 258)">
<title>CoreNaviManager.h</title>
<polygon fill="white" stroke="white" points="-4,5 -4,-258 2403,-258 2403,5 -4,5"/>
<!-- Node1 -->
<g id="node1" class="node"><title>Node1</title>
<polygon fill="#bfbfbf" stroke="black" points="855,-232.5 855,-253.5 967,-253.5 967,-232.5 855,-232.5"/>
<text text-anchor="middle" x="911" y="-240.5" font-family="Helvetica,sans-Serif" font-size="10.00">CoreNaviManager.h</text>
</g>
<!-- Node2 -->
<g id="node3" class="node"><title>Node2</title>
<polygon fill="white" stroke="#bfbfbf" points="1086.5,-0.5 1086.5,-21.5 1153.5,-21.5 1153.5,-0.5 1086.5,-0.5"/>
<text text-anchor="middle" x="1120" y="-8.5" font-family="Helvetica,sans-Serif" font-size="10.00">Common.h</text>
</g>
<!-- Node1&#45;&gt;Node2 -->
<g id="edge2" class="edge"><title>Node1&#45;&gt;Node2</title>
<path fill="none" stroke="midnightblue" d="M920.523,-232.429C953.369,-195.969 1062.17,-75.1911 1103.7,-29.0945"/>
<polygon fill="midnightblue" stroke="midnightblue" points="1106.33,-31.4059 1110.42,-21.6335 1101.13,-26.7207 1106.33,-31.4059"/>
</g>
<!-- Node3 -->
<g id="node5" class="node"><title>Node3</title>
<polygon fill="white" stroke="#bfbfbf" points="1519.5,-174.5 1519.5,-195.5 1590.5,-195.5 1590.5,-174.5 1519.5,-174.5"/>
<text text-anchor="middle" x="1555" y="-182.5" font-family="Helvetica,sans-Serif" font-size="10.00">HostBase.h</text>
</g>
<!-- Node1&#45;&gt;Node3 -->
<g id="edge4" class="edge"><title>Node1&#45;&gt;Node3</title>
<path fill="none" stroke="midnightblue" d="M967.208,-241.72C1072.16,-238.651 1305.08,-228.645 1509.08,-196.114"/>
<polygon fill="midnightblue" stroke="midnightblue" points="1509.77,-199.549 1519.08,-194.498 1508.65,-192.639 1509.77,-199.549"/>
</g>
<!-- Node4 -->
<g id="node7" class="node"><title>Node4</title>
<a xlink:href="CoreNaviLeds_8h.htm" target="_top" xlink:title="CoreNaviLeds.h">
<polygon fill="white" stroke="black" points="229,-58.5 229,-79.5 321,-79.5 321,-58.5 229,-58.5"/>
<text text-anchor="middle" x="275" y="-66.5" font-family="Helvetica,sans-Serif" font-size="10.00">CoreNaviLeds.h</text>
</a>
</g>
<!-- Node1&#45;&gt;Node4 -->
<g id="edge6" class="edge"><title>Node1&#45;&gt;Node4</title>
<path fill="none" stroke="midnightblue" d="M854.695,-237.157C729.703,-223.452 433.228,-186.685 346,-138 323.205,-125.277 302.468,-103.365 289.37,-87.645"/>
<polygon fill="midnightblue" stroke="midnightblue" points="291.918,-85.23 282.914,-79.6463 286.471,-89.6263 291.918,-85.23"/>
</g>
<!-- Node14 -->
<g id="node28" class="node"><title>Node14</title>
<a xlink:href="DisplayManager_8h.htm" target="_top" xlink:title="DisplayManager.h">
<polygon fill="white" stroke="black" points="585,-174.5 585,-195.5 687,-195.5 687,-174.5 585,-174.5"/>
<text text-anchor="middle" x="636" y="-182.5" font-family="Helvetica,sans-Serif" font-size="10.00">DisplayManager.h</text>
</a>
</g>
<!-- Node1&#45;&gt;Node14 -->
<g id="edge28" class="edge"><title>Node1&#45;&gt;Node14</title>
<path fill="none" stroke="midnightblue" d="M861.2,-232.497C814.717,-222.693 745.287,-208.05 695.819,-197.616"/>
<polygon fill="midnightblue" stroke="midnightblue" points="696.401,-194.162 685.894,-195.523 694.956,-201.011 696.401,-194.162"/>
</g>
<!-- Node19 -->
<g id="node39" class="node"><title>Node19</title>
<a xlink:href="AmbientLightSensor_8h.htm" target="_top" xlink:title="AmbientLightSensor.h">
<polygon fill="white" stroke="black" points="717.5,-116.5 717.5,-137.5 836.5,-137.5 836.5,-116.5 717.5,-116.5"/>
<text text-anchor="middle" x="777" y="-124.5" font-family="Helvetica,sans-Serif" font-size="10.00">AmbientLightSensor.h</text>
</a>
</g>
<!-- Node1&#45;&gt;Node19 -->
<g id="edge166" class="edge"><title>Node1&#45;&gt;Node19</title>
<path fill="none" stroke="midnightblue" d="M898.634,-232.295C875.4,-212.182 825.044,-168.59 796.956,-144.275"/>
<polygon fill="midnightblue" stroke="midnightblue" points="799.188,-141.578 789.336,-137.679 794.606,-146.87 799.188,-141.578"/>
</g>
<!-- Node24 -->
<g id="node53" class="node"><title>Node24</title>
<polygon fill="white" stroke="#bfbfbf" points="854,-116.5 854,-137.5 906,-137.5 906,-116.5 854,-116.5"/>
<text text-anchor="middle" x="880" y="-124.5" font-family="Helvetica,sans-Serif" font-size="10.00">QEvent</text>
</g>
<!-- Node1&#45;&gt;Node24 -->
<g id="edge170" class="edge"><title>Node1&#45;&gt;Node24</title>
<path fill="none" stroke="midnightblue" d="M908.139,-232.295C902.995,-213.045 892.103,-172.289 885.481,-147.509"/>
<polygon fill="midnightblue" stroke="midnightblue" points="888.817,-146.437 882.854,-137.679 882.054,-148.244 888.817,-146.437"/>
</g>
<!-- Node25 -->
<g id="node55" class="node"><title>Node25</title>
<polygon fill="white" stroke="#bfbfbf" points="923.5,-116.5 923.5,-137.5 978.5,-137.5 978.5,-116.5 923.5,-116.5"/>
<text text-anchor="middle" x="951" y="-124.5" font-family="Helvetica,sans-Serif" font-size="10.00">QObject</text>
</g>
<!-- Node1&#45;&gt;Node25 -->
<g id="edge168" class="edge"><title>Node1&#45;&gt;Node25</title>
<path fill="none" stroke="midnightblue" d="M914.691,-232.295C921.359,-212.959 935.509,-171.923 944.043,-147.177"/>
<polygon fill="midnightblue" stroke="midnightblue" points="947.366,-148.274 947.318,-137.679 940.749,-145.992 947.366,-148.274"/>
</g>
<!-- Node26 -->
<g id="node58" class="node"><title>Node26</title>
<a xlink:href="SystemUiController_8h.htm" target="_top" xlink:title="SystemUiController.h">
<polygon fill="white" stroke="black" points="1386,-174.5 1386,-195.5 1502,-195.5 1502,-174.5 1386,-174.5"/>
<text text-anchor="middle" x="1444" y="-182.5" font-family="Helvetica,sans-Serif" font-size="10.00">SystemUiController.h</text>
</a>
</g>
<!-- Node1&#45;&gt;Node26 -->
<g id="edge64" class="edge"><title>Node1&#45;&gt;Node26</title>
<path fill="none" stroke="midnightblue" d="M967.033,-236.903C1065.55,-226.182 1269.43,-203.996 1375.91,-192.41"/>
<polygon fill="midnightblue" stroke="midnightblue" points="1376.34,-195.884 1385.9,-191.323 1375.58,-188.925 1376.34,-195.884"/>
</g>
<!-- Node4&#45;&gt;Node2 -->
<g id="edge8" class="edge"><title>Node4&#45;&gt;Node2</title>
<path fill="none" stroke="midnightblue" d="M321.101,-59.9642C325.784,-59.2217 330.479,-58.5477 335,-58 615.895,-23.9701 956.46,-14.2355 1075.99,-11.762"/>
<polygon fill="midnightblue" stroke="midnightblue" points="1076.28,-15.2571 1086.2,-11.5574 1076.14,-8.25851 1076.28,-15.2571"/>
</g>
<!-- Node5 -->
<g id="node10" class="node"><title>Node5</title>
<polygon fill="white" stroke="#bfbfbf" points="466,-0.5 466,-21.5 510,-21.5 510,-0.5 466,-0.5"/>
<text text-anchor="middle" x="488" y="-8.5" font-family="Helvetica,sans-Serif" font-size="10.00">fcntl.h</text>
</g>
<!-- Node4&#45;&gt;Node5 -->
<g id="edge10" class="edge"><title>Node4&#45;&gt;Node5</title>
<path fill="none" stroke="midnightblue" d="M320.561,-58.4161C355.395,-50.0579 404.768,-37.6413 456.119,-22.105"/>
<polygon fill="midnightblue" stroke="midnightblue" points="457.187,-25.4384 465.727,-19.168 455.141,-18.7442 457.187,-25.4384"/>
</g>
<!-- Node6 -->
<g id="node12" class="node"><title>Node6</title>
<polygon fill="white" stroke="#bfbfbf" points="527.5,-0.5 527.5,-21.5 574.5,-21.5 574.5,-0.5 527.5,-0.5"/>
<text text-anchor="middle" x="551" y="-8.5" font-family="Helvetica,sans-Serif" font-size="10.00">stdio.h</text>
</g>
<!-- Node4&#45;&gt;Node6 -->
<g id="edge12" class="edge"><title>Node4&#45;&gt;Node6</title>
<path fill="none" stroke="midnightblue" d="M321.242,-60.4565C380.477,-49.4623 479.317,-30.9321 517.543,-21.9928"/>
<polygon fill="midnightblue" stroke="midnightblue" points="518.494,-25.3628 527.349,-19.5454 516.799,-18.5712 518.494,-25.3628"/>
</g>
<!-- Node7 -->
<g id="node14" class="node"><title>Node7</title>
<polygon fill="white" stroke="#bfbfbf" points="-0.5,-0.5 -0.5,-21.5 48.5,-21.5 48.5,-0.5 -0.5,-0.5"/>
<text text-anchor="middle" x="24" y="-8.5" font-family="Helvetica,sans-Serif" font-size="10.00">stdlib.h</text>
</g>
<!-- Node4&#45;&gt;Node7 -->
<g id="edge14" class="edge"><title>Node4&#45;&gt;Node7</title>
<path fill="none" stroke="midnightblue" d="M228.714,-60.5463C186.507,-52.4968 122.283,-39.3985 58.5805,-22.2544"/>
<polygon fill="midnightblue" stroke="midnightblue" points="59.3457,-18.8353 48.7772,-19.5823 57.5048,-25.589 59.3457,-18.8353"/>
</g>
<!-- Node8 -->
<g id="node16" class="node"><title>Node8</title>
<polygon fill="white" stroke="#bfbfbf" points="65.5,-0.5 65.5,-21.5 116.5,-21.5 116.5,-0.5 65.5,-0.5"/>
<text text-anchor="middle" x="91" y="-8.5" font-family="Helvetica,sans-Serif" font-size="10.00">string.h</text>
</g>
<!-- Node4&#45;&gt;Node8 -->
<g id="edge16" class="edge"><title>Node4&#45;&gt;Node8</title>
<path fill="none" stroke="midnightblue" d="M241.015,-58.4497C212.614,-49.6111 170.802,-36.5483 126.174,-22.3582"/>
<polygon fill="midnightblue" stroke="midnightblue" points="127.202,-19.0126 116.612,-19.3141 125.079,-25.6827 127.202,-19.0126"/>
</g>
<!-- Node9 -->
<g id="node18" class="node"><title>Node9</title>
<polygon fill="white" stroke="#bfbfbf" points="134,-0.5 134,-21.5 196,-21.5 196,-0.5 134,-0.5"/>
<text text-anchor="middle" x="165" y="-8.5" font-family="Helvetica,sans-Serif" font-size="10.00">sys/ioctl.h</text>
</g>
<!-- Node4&#45;&gt;Node9 -->
<g id="edge18" class="edge"><title>Node4&#45;&gt;Node9</title>
<path fill="none" stroke="midnightblue" d="M255.08,-58.4966C238.054,-49.5194 213.331,-36.4835 194.091,-26.3387"/>
<polygon fill="midnightblue" stroke="midnightblue" points="195.622,-23.1894 185.144,-21.6212 192.357,-29.3814 195.622,-23.1894"/>
</g>
<!-- Node10 -->
<g id="node20" class="node"><title>Node10</title>
<polygon fill="white" stroke="#bfbfbf" points="213.5,-0.5 213.5,-21.5 266.5,-21.5 266.5,-0.5 213.5,-0.5"/>
<text text-anchor="middle" x="240" y="-8.5" font-family="Helvetica,sans-Serif" font-size="10.00">unistd.h</text>
</g>
<!-- Node4&#45;&gt;Node10 -->
<g id="edge20" class="edge"><title>Node4&#45;&gt;Node10</title>
<path fill="none" stroke="midnightblue" d="M268.58,-58.3619C263.844,-50.5131 257.268,-39.6159 251.618,-30.2527"/>
<polygon fill="midnightblue" stroke="midnightblue" points="254.542,-28.3242 246.379,-21.5707 248.549,-31.9409 254.542,-28.3242"/>
</g>
<!-- Node11 -->
<g id="node22" class="node"><title>Node11</title>
<polygon fill="white" stroke="#bfbfbf" points="1756,-0.5 1756,-21.5 1806,-21.5 1806,-0.5 1756,-0.5"/>
<text text-anchor="middle" x="1781" y="-8.5" font-family="Helvetica,sans-Serif" font-size="10.00">stdint.h</text>
</g>
<!-- Node4&#45;&gt;Node11 -->
<g id="edge22" class="edge"><title>Node4&#45;&gt;Node11</title>
<path fill="none" stroke="midnightblue" d="M321.17,-64.4527C345.494,-62.2039 375.838,-59.6293 403,-58 540.473,-49.7541 1544.37,-18.352 1745.85,-12.0901"/>
<polygon fill="midnightblue" stroke="midnightblue" points="1745.99,-15.5873 1755.88,-11.7784 1745.78,-8.59064 1745.99,-15.5873"/>
</g>
<!-- Node12 -->
<g id="node24" class="node"><title>Node12</title>
<polygon fill="white" stroke="#bfbfbf" points="283.5,-0.5 283.5,-21.5 338.5,-21.5 338.5,-0.5 283.5,-0.5"/>
<text text-anchor="middle" x="311" y="-8.5" font-family="Helvetica,sans-Serif" font-size="10.00">stdarg.h</text>
</g>
<!-- Node4&#45;&gt;Node12 -->
<g id="edge24" class="edge"><title>Node4&#45;&gt;Node12</title>
<path fill="none" stroke="midnightblue" d="M281.603,-58.3619C286.475,-50.5131 293.238,-39.6159 299.05,-30.2527"/>
<polygon fill="midnightblue" stroke="midnightblue" points="302.139,-31.9129 304.439,-21.5707 296.191,-28.2213 302.139,-31.9129"/>
</g>
<!-- Node13 -->
<g id="node26" class="node"><title>Node13</title>
<polygon fill="white" stroke="#bfbfbf" points="356,-0.5 356,-21.5 448,-21.5 448,-0.5 356,-0.5"/>
<text text-anchor="middle" x="402" y="-8.5" font-family="Helvetica,sans-Serif" font-size="10.00">nyx/nyx_client.h</text>
</g>
<!-- Node4&#45;&gt;Node13 -->
<g id="edge26" class="edge"><title>Node4&#45;&gt;Node13</title>
<path fill="none" stroke="midnightblue" d="M297.999,-58.4966C318.013,-49.3562 347.241,-36.0082 369.619,-25.7883"/>
<polygon fill="midnightblue" stroke="midnightblue" points="371.101,-28.9592 378.743,-21.6212 368.193,-22.5918 371.101,-28.9592"/>
</g>
<!-- Node14&#45;&gt;Node2 -->
<g id="edge30" class="edge"><title>Node14&#45;&gt;Node2</title>
<path fill="none" stroke="midnightblue" d="M584.786,-179.873C508.76,-171.74 373.399,-155.048 359,-138 332.017,-106.053 378.285,-71.298 403,-58 462.146,-26.1762 929.203,-14.6339 1076,-11.7713"/>
<polygon fill="midnightblue" stroke="midnightblue" points="1076.48,-15.2629 1086.41,-11.5725 1076.34,-8.26422 1076.48,-15.2629"/>
</g>
<!-- Node15 -->
<g id="node31" class="node"><title>Node15</title>
<polygon fill="white" stroke="#bfbfbf" points="412,-58.5 412,-79.5 464,-79.5 464,-58.5 412,-58.5"/>
<text text-anchor="middle" x="438" y="-66.5" font-family="Helvetica,sans-Serif" font-size="10.00">Timer.h</text>
</g>
<!-- Node14&#45;&gt;Node15 -->
<g id="edge32" class="edge"><title>Node14&#45;&gt;Node15</title>
<path fill="none" stroke="midnightblue" d="M584.886,-177.379C538.604,-169.476 474.998,-155.784 457,-138 444.27,-125.421 439.85,-105.153 438.419,-89.8312"/>
<polygon fill="midnightblue" stroke="midnightblue" points="441.906,-89.5081 437.829,-79.7292 434.918,-89.9162 441.906,-89.5081"/>
</g>
<!-- Node16 -->
<g id="node33" class="node"><title>Node16</title>
<polygon fill="white" stroke="#bfbfbf" points="609.5,-116.5 609.5,-137.5 662.5,-137.5 662.5,-116.5 609.5,-116.5"/>
<text text-anchor="middle" x="636" y="-124.5" font-family="Helvetica,sans-Serif" font-size="10.00">Mutex.h</text>
</g>
<!-- Node14&#45;&gt;Node16 -->
<g id="edge34" class="edge"><title>Node14&#45;&gt;Node16</title>
<path fill="none" stroke="midnightblue" d="M636,-174.362C636,-166.922 636,-156.743 636,-147.728"/>
<polygon fill="midnightblue" stroke="midnightblue" points="639.5,-147.571 636,-137.571 632.5,-147.571 639.5,-147.571"/>
</g>
<!-- Node17 -->
<g id="node35" class="node"><title>Node17</title>
<polygon fill="white" stroke="#bfbfbf" points="664,-58.5 664,-79.5 716,-79.5 716,-58.5 664,-58.5"/>
<text text-anchor="middle" x="690" y="-66.5" font-family="Helvetica,sans-Serif" font-size="10.00">Event.h</text>
</g>
<!-- Node14&#45;&gt;Node17 -->
<g id="edge36" class="edge"><title>Node14&#45;&gt;Node17</title>
<path fill="none" stroke="midnightblue" d="M645.903,-174.187C653.726,-165.124 664.391,-151.529 671,-138 678.488,-122.672 683.409,-103.938 686.363,-89.8611"/>
<polygon fill="midnightblue" stroke="midnightblue" points="689.861,-90.2061 688.321,-79.7237 682.988,-88.8782 689.861,-90.2061"/>
</g>
<!-- Node18 -->
<g id="node37" class="node"><title>Node18</title>
<polygon fill="white" stroke="#bfbfbf" points="367.5,-116.5 367.5,-137.5 410.5,-137.5 410.5,-116.5 367.5,-116.5"/>
<text text-anchor="middle" x="389" y="-124.5" font-family="Helvetica,sans-Serif" font-size="10.00">sptr.h</text>
</g>
<!-- Node14&#45;&gt;Node18 -->
<g id="edge38" class="edge"><title>Node14&#45;&gt;Node18</title>
<path fill="none" stroke="midnightblue" d="M584.725,-174.926C541.601,-166.145 478.447,-152.562 424,-138 422.923,-137.712 421.83,-137.412 420.728,-137.103"/>
<polygon fill="midnightblue" stroke="midnightblue" points="421.341,-133.635 410.759,-134.158 419.358,-140.348 421.341,-133.635"/>
</g>
<!-- Node14&#45;&gt;Node19 -->
<g id="edge40" class="edge"><title>Node14&#45;&gt;Node19</title>
<path fill="none" stroke="midnightblue" d="M661.534,-174.497C683.953,-165.275 716.785,-151.769 741.713,-141.515"/>
<polygon fill="midnightblue" stroke="midnightblue" points="743.263,-144.662 751.179,-137.621 740.6,-138.189 743.263,-144.662"/>
</g>
<!-- Node20 -->
<g id="node42" class="node"><title>Node20</title>
<polygon fill="white" stroke="#bfbfbf" points="805,-58.5 805,-79.5 883,-79.5 883,-58.5 805,-58.5"/>
<text text-anchor="middle" x="844" y="-66.5" font-family="Helvetica,sans-Serif" font-size="10.00">lunaservice.h</text>
</g>
<!-- Node14&#45;&gt;Node20 -->
<g id="edge62" class="edge"><title>Node14&#45;&gt;Node20</title>
<path fill="none" stroke="midnightblue" d="M623.474,-174.339C608.139,-160.01 585.954,-134.235 601,-116 613.258,-101.144 727.543,-84.0427 794.928,-75.1287"/>
<polygon fill="midnightblue" stroke="midnightblue" points="795.453,-78.5898 804.915,-73.822 794.545,-71.649 795.453,-78.5898"/>
</g>
<!-- Node22 -->
<g id="node46" class="node"><title>Node22</title>
<a xlink:href="DisplayStates_8h.htm" target="_top" xlink:title="DisplayStates.h">
<polygon fill="white" stroke="black" points="465.5,-116.5 465.5,-137.5 554.5,-137.5 554.5,-116.5 465.5,-116.5"/>
<text text-anchor="middle" x="510" y="-124.5" font-family="Helvetica,sans-Serif" font-size="10.00">DisplayStates.h</text>
</a>
</g>
<!-- Node14&#45;&gt;Node22 -->
<g id="edge48" class="edge"><title>Node14&#45;&gt;Node22</title>
<path fill="none" stroke="midnightblue" d="M613.182,-174.497C593.414,-165.397 564.587,-152.127 542.424,-141.925"/>
<polygon fill="midnightblue" stroke="midnightblue" points="543.621,-138.623 533.074,-137.621 540.694,-144.982 543.621,-138.623"/>
</g>
<!-- Node14&#45;&gt;Node24 -->
<g id="edge58" class="edge"><title>Node14&#45;&gt;Node24</title>
<path fill="none" stroke="midnightblue" d="M687.398,-174.689C727.643,-166.332 785.206,-153.763 843.888,-138.159"/>
<polygon fill="midnightblue" stroke="midnightblue" points="844.946,-141.499 853.696,-135.525 843.13,-134.739 844.946,-141.499"/>
</g>
<!-- Node14&#45;&gt;Node25 -->
<g id="edge60" class="edge"><title>Node14&#45;&gt;Node25</title>
<path fill="none" stroke="midnightblue" d="M687.052,-178.426C741.157,-171.008 829.212,-157.652 913.231,-138.224"/>
<polygon fill="midnightblue" stroke="midnightblue" points="914.253,-141.579 923.189,-135.887 912.654,-134.764 914.253,-141.579"/>
</g>
<!-- Node19&#45;&gt;Node2 -->
<g id="edge42" class="edge"><title>Node19&#45;&gt;Node2</title>
<path fill="none" stroke="midnightblue" d="M776.596,-116.28C776.65,-100.899 779.231,-72.7988 796,-58 816.69,-39.741 992.43,-22.1382 1076.08,-14.7029"/>
<polygon fill="midnightblue" stroke="midnightblue" points="1076.63,-18.1679 1086.29,-13.8055 1076.02,-11.1948 1076.63,-18.1679"/>
</g>
<!-- Node19&#45;&gt;Node20 -->
<g id="edge44" class="edge"><title>Node19&#45;&gt;Node20</title>
<path fill="none" stroke="midnightblue" d="M789.289,-116.362C799.017,-107.941 812.798,-96.0105 824.095,-86.2308"/>
<polygon fill="midnightblue" stroke="midnightblue" points="826.519,-88.7619 831.789,-79.5707 821.938,-83.4695 826.519,-88.7619"/>
</g>
<!-- Node21 -->
<g id="node44" class="node"><title>Node21</title>
<polygon fill="white" stroke="#bfbfbf" points="1219.5,-0.5 1219.5,-21.5 1248.5,-21.5 1248.5,-0.5 1219.5,-0.5"/>
<text text-anchor="middle" x="1234" y="-8.5" font-family="Helvetica,sans-Serif" font-size="10.00">list</text>
</g>
<!-- Node19&#45;&gt;Node21 -->
<g id="edge46" class="edge"><title>Node19&#45;&gt;Node21</title>
<path fill="none" stroke="midnightblue" d="M818.767,-116.398C912.014,-92.7296 1134.79,-36.1826 1209.27,-17.2773"/>
<polygon fill="midnightblue" stroke="midnightblue" points="1210.32,-20.6223 1219.15,-14.7695 1208.6,-13.8374 1210.32,-20.6223"/>
</g>
<!-- Node22&#45;&gt;Node2 -->
<g id="edge50" class="edge"><title>Node22&#45;&gt;Node2</title>
<path fill="none" stroke="midnightblue" d="M527.093,-116.459C553.461,-100.768 606.133,-71.653 655,-58 733.684,-36.0164 976.305,-19.5362 1076.27,-13.5039"/>
<polygon fill="midnightblue" stroke="midnightblue" points="1076.56,-16.993 1086.33,-12.9029 1076.14,-10.0054 1076.56,-16.993"/>
</g>
<!-- Node22&#45;&gt;Node15 -->
<g id="edge52" class="edge"><title>Node22&#45;&gt;Node15</title>
<path fill="none" stroke="midnightblue" d="M496.794,-116.362C486.239,-107.859 471.242,-95.7785 459.037,-85.9466"/>
<polygon fill="midnightblue" stroke="midnightblue" points="461.105,-83.1183 451.122,-79.5707 456.714,-88.5696 461.105,-83.1183"/>
</g>
<!-- Node22&#45;&gt;Node17 -->
<g id="edge54" class="edge"><title>Node22&#45;&gt;Node17</title>
<path fill="none" stroke="midnightblue" d="M542.597,-116.497C574.088,-106.349 621.673,-91.0164 654.203,-80.5346"/>
<polygon fill="midnightblue" stroke="midnightblue" points="655.336,-83.8468 663.781,-77.4485 653.189,-77.1842 655.336,-83.8468"/>
</g>
<!-- Node23 -->
<g id="node51" class="node"><title>Node23</title>
<polygon fill="white" stroke="#bfbfbf" points="481.5,-58.5 481.5,-79.5 544.5,-79.5 544.5,-58.5 481.5,-58.5"/>
<text text-anchor="middle" x="513" y="-66.5" font-family="Helvetica,sans-Serif" font-size="10.00">Settings.h</text>
</g>
<!-- Node22&#45;&gt;Node23 -->
<g id="edge56" class="edge"><title>Node22&#45;&gt;Node23</title>
<path fill="none" stroke="midnightblue" d="M510.55,-116.362C510.935,-108.922 511.462,-98.7427 511.928,-89.7276"/>
<polygon fill="midnightblue" stroke="midnightblue" points="515.432,-89.7381 512.453,-79.5707 508.441,-89.3765 515.432,-89.7381"/>
</g>
<!-- Node26&#45;&gt;Node2 -->
<g id="edge66" class="edge"><title>Node26&#45;&gt;Node2</title>
<path fill="none" stroke="midnightblue" d="M1502.06,-175.328C1558.77,-165.292 1637.87,-149.487 1647,-138 1653.08,-130.346 1653.64,-123.177 1647,-116 1576.91,-40.2513 1276.91,-124.915 1184,-80 1161.62,-69.1812 1143.24,-46.8514 1132,-30.5137"/>
<polygon fill="midnightblue" stroke="midnightblue" points="1134.65,-28.1645 1126.24,-21.719 1128.79,-32.0014 1134.65,-28.1645"/>
</g>
<!-- Node26&#45;&gt;Node17 -->
<g id="edge120" class="edge"><title>Node26&#45;&gt;Node17</title>
<path fill="none" stroke="midnightblue" d="M1385.76,-180.713C1310.62,-174.521 1176.11,-161.195 1063,-138 1028.55,-130.936 1021.32,-123.652 987,-116 893.897,-95.2428 782.391,-80.1725 726.186,-73.2459"/>
<polygon fill="midnightblue" stroke="midnightblue" points="726.378,-69.7434 716.028,-72.0087 725.531,-76.6921 726.378,-69.7434"/>
</g>
<!-- Node26&#45;&gt;Node24 -->
<g id="edge70" class="edge"><title>Node26&#45;&gt;Node24</title>
<path fill="none" stroke="midnightblue" d="M1385.89,-183.925C1289.69,-181.255 1091.41,-171.981 916.131,-137.868"/>
<polygon fill="midnightblue" stroke="midnightblue" points="916.704,-134.414 906.215,-135.907 915.346,-141.281 916.704,-134.414"/>
</g>
<!-- Node26&#45;&gt;Node25 -->
<g id="edge76" class="edge"><title>Node26&#45;&gt;Node25</title>
<path fill="none" stroke="midnightblue" d="M1385.79,-181.905C1299.3,-176.64 1132.03,-163.896 992,-138 990.913,-137.799 989.813,-137.584 988.704,-137.357"/>
<polygon fill="midnightblue" stroke="midnightblue" points="989.182,-133.876 978.653,-135.056 987.62,-140.699 989.182,-133.876"/>
</g>
<!-- Node27 -->
<g id="node61" class="node"><title>Node27</title>
<polygon fill="white" stroke="#bfbfbf" points="1888.5,-0.5 1888.5,-21.5 1931.5,-21.5 1931.5,-0.5 1888.5,-0.5"/>
<text text-anchor="middle" x="1910" y="-8.5" font-family="Helvetica,sans-Serif" font-size="10.00">string</text>
</g>
<!-- Node26&#45;&gt;Node27 -->
<g id="edge68" class="edge"><title>Node26&#45;&gt;Node27</title>
<path fill="none" stroke="midnightblue" d="M1502.08,-175.278C1505.09,-174.831 1508.08,-174.403 1511,-174 1653.65,-154.329 1697.33,-186.281 1833,-138 1877.83,-122.045 1900.22,-121.78 1923,-80 1931.17,-65.0148 1926.51,-45.7809 1920.62,-31.4285"/>
<polygon fill="midnightblue" stroke="midnightblue" points="1923.63,-29.5957 1916.27,-21.971 1917.27,-32.5189 1923.63,-29.5957"/>
</g>
<!-- Node28 -->
<g id="node64" class="node"><title>Node28</title>
<polygon fill="white" stroke="#bfbfbf" points="1190,-116.5 1190,-137.5 1260,-137.5 1260,-116.5 1190,-116.5"/>
<text text-anchor="middle" x="1225" y="-124.5" font-family="Helvetica,sans-Serif" font-size="10.00">QKeyEvent</text>
</g>
<!-- Node26&#45;&gt;Node28 -->
<g id="edge72" class="edge"><title>Node26&#45;&gt;Node28</title>
<path fill="none" stroke="midnightblue" d="M1404.34,-174.497C1366.47,-164.466 1309.47,-149.37 1269.93,-138.9"/>
<polygon fill="midnightblue" stroke="midnightblue" points="1270.59,-135.454 1260.03,-136.277 1268.8,-142.221 1270.59,-135.454"/>
</g>
<!-- Node29 -->
<g id="node66" class="node"><title>Node29</title>
<polygon fill="white" stroke="#bfbfbf" points="1277.5,-116.5 1277.5,-137.5 1360.5,-137.5 1360.5,-116.5 1277.5,-116.5"/>
<text text-anchor="middle" x="1319" y="-124.5" font-family="Helvetica,sans-Serif" font-size="10.00">QMouseEvent</text>
</g>
<!-- Node26&#45;&gt;Node29 -->
<g id="edge74" class="edge"><title>Node26&#45;&gt;Node29</title>
<path fill="none" stroke="midnightblue" d="M1421.36,-174.497C1401.75,-165.397 1373.15,-152.127 1351.17,-141.925"/>
<polygon fill="midnightblue" stroke="midnightblue" points="1352.43,-138.655 1341.89,-137.621 1349.49,-145.005 1352.43,-138.655"/>
</g>
<!-- Node30 -->
<g id="node69" class="node"><title>Node30</title>
<polygon fill="white" stroke="#bfbfbf" points="1377.5,-116.5 1377.5,-137.5 1424.5,-137.5 1424.5,-116.5 1377.5,-116.5"/>
<text text-anchor="middle" x="1401" y="-124.5" font-family="Helvetica,sans-Serif" font-size="10.00">QRect</text>
</g>
<!-- Node26&#45;&gt;Node30 -->
<g id="edge78" class="edge"><title>Node26&#45;&gt;Node30</title>
<path fill="none" stroke="midnightblue" d="M1436.11,-174.362C1430.17,-166.35 1421.88,-155.161 1414.84,-145.67"/>
<polygon fill="midnightblue" stroke="midnightblue" points="1417.6,-143.519 1408.84,-137.571 1411.98,-147.688 1417.6,-143.519"/>
</g>
<!-- Node31 -->
<g id="node71" class="node"><title>Node31</title>
<polygon fill="white" stroke="#bfbfbf" points="1441.5,-116.5 1441.5,-137.5 1534.5,-137.5 1534.5,-116.5 1441.5,-116.5"/>
<text text-anchor="middle" x="1488" y="-124.5" font-family="Helvetica,sans-Serif" font-size="10.00">QSharedPointer</text>
</g>
<!-- Node26&#45;&gt;Node31 -->
<g id="edge80" class="edge"><title>Node26&#45;&gt;Node31</title>
<path fill="none" stroke="midnightblue" d="M1452.07,-174.362C1458.15,-166.35 1466.64,-155.161 1473.84,-145.67"/>
<polygon fill="midnightblue" stroke="midnightblue" points="1476.73,-147.653 1479.98,-137.571 1471.15,-143.422 1476.73,-147.653"/>
</g>
<!-- Node32 -->
<g id="node73" class="node"><title>Node32</title>
<polygon fill="white" stroke="#bfbfbf" points="1552,-116.5 1552,-137.5 1638,-137.5 1638,-116.5 1552,-116.5"/>
<text text-anchor="middle" x="1595" y="-124.5" font-family="Helvetica,sans-Serif" font-size="10.00">QWeakPointer</text>
</g>
<!-- Node26&#45;&gt;Node32 -->
<g id="edge82" class="edge"><title>Node26&#45;&gt;Node32</title>
<path fill="none" stroke="midnightblue" d="M1471.34,-174.497C1495.64,-165.164 1531.36,-151.445 1558.17,-141.147"/>
<polygon fill="midnightblue" stroke="midnightblue" points="1559.52,-144.376 1567.6,-137.523 1557.01,-137.842 1559.52,-144.376"/>
</g>
<!-- Node33 -->
<g id="node75" class="node"><title>Node33</title>
<a xlink:href="ApplicationDescription_8h.htm" target="_top" xlink:title="ApplicationDescription.h">
<polygon fill="white" stroke="black" points="1694,-116.5 1694,-137.5 1824,-137.5 1824,-116.5 1694,-116.5"/>
<text text-anchor="middle" x="1759" y="-124.5" font-family="Helvetica,sans-Serif" font-size="10.00">ApplicationDescription.h</text>
</a>
</g>
<!-- Node26&#45;&gt;Node33 -->
<g id="edge84" class="edge"><title>Node26&#45;&gt;Node33</title>
<path fill="none" stroke="midnightblue" d="M1501.04,-174.497C1554.73,-164.611 1635.15,-149.805 1691.89,-139.356"/>
<polygon fill="midnightblue" stroke="midnightblue" points="1692.65,-142.776 1701.85,-137.523 1691.38,-135.892 1692.65,-142.776"/>
</g>
<!-- Node41 -->
<g id="node102" class="node"><title>Node41</title>
<a xlink:href="SuspendBlocker_8h.htm" target="_top" xlink:title="SuspendBlocker.h">
<polygon fill="white" stroke="black" points="1071.5,-116.5 1071.5,-137.5 1172.5,-137.5 1172.5,-116.5 1071.5,-116.5"/>
<text text-anchor="middle" x="1122" y="-124.5" font-family="Helvetica,sans-Serif" font-size="10.00">SuspendBlocker.h</text>
</a>
</g>
<!-- Node26&#45;&gt;Node41 -->
<g id="edge122" class="edge"><title>Node26&#45;&gt;Node41</title>
<path fill="none" stroke="midnightblue" d="M1386,-174.763C1334.98,-165.73 1258.42,-152.104 1182.72,-138.305"/>
<polygon fill="midnightblue" stroke="midnightblue" points="1182.99,-134.798 1172.53,-136.446 1181.74,-141.684 1182.99,-134.798"/>
</g>
<!-- Node42 -->
<g id="node107" class="node"><title>Node42</title>
<a xlink:href="VariantAnimation_8h.htm" target="_top" xlink:title="VariantAnimation.h">
<polygon fill="white" stroke="black" points="1989.5,-58.5 1989.5,-79.5 2094.5,-79.5 2094.5,-58.5 1989.5,-58.5"/>
<text text-anchor="middle" x="2042" y="-66.5" font-family="Helvetica,sans-Serif" font-size="10.00">VariantAnimation.h</text>
</a>
</g>
<!-- Node26&#45;&gt;Node42 -->
<g id="edge130" class="edge"><title>Node26&#45;&gt;Node42</title>
<path fill="none" stroke="midnightblue" d="M1502.06,-175.156C1505.08,-174.742 1508.07,-174.353 1511,-174 1613.9,-161.593 1882.34,-182.374 1976,-138 1999,-127.101 2018.16,-104.45 2029.8,-88.0673"/>
<polygon fill="midnightblue" stroke="midnightblue" points="2032.75,-89.9623 2035.48,-79.7252 2026.96,-86.0254 2032.75,-89.9623"/>
</g>
<!-- Node44 -->
<g id="node112" class="node"><title>Node44</title>
<a xlink:href="Window_8h.htm" target="_top" xlink:title="Window.h">
<polygon fill="white" stroke="black" points="2112,-58.5 2112,-79.5 2174,-79.5 2174,-58.5 2112,-58.5"/>
<text text-anchor="middle" x="2143" y="-66.5" font-family="Helvetica,sans-Serif" font-size="10.00">Window.h</text>
</a>
</g>
<!-- Node26&#45;&gt;Node44 -->
<g id="edge136" class="edge"><title>Node26&#45;&gt;Node44</title>
<path fill="none" stroke="midnightblue" d="M1502.06,-175.14C1505.08,-174.73 1508.07,-174.346 1511,-174 1729.17,-148.178 1792.08,-195.928 2004,-138 2046.31,-126.435 2091.02,-101.673 2117.97,-85.1772"/>
<polygon fill="midnightblue" stroke="midnightblue" points="2120.09,-87.9801 2126.73,-79.7223 2116.39,-82.0385 2120.09,-87.9801"/>
</g>
<!-- Node48 -->
<g id="node124" class="node"><title>Node48</title>
<polygon fill="white" stroke="#bfbfbf" points="2306,-58.5 2306,-79.5 2398,-79.5 2398,-58.5 2306,-58.5"/>
<text text-anchor="middle" x="2352" y="-66.5" font-family="Helvetica,sans-Serif" font-size="10.00">CustomEvents.h</text>
</g>
<!-- Node26&#45;&gt;Node48 -->
<g id="edge152" class="edge"><title>Node26&#45;&gt;Node48</title>
<path fill="none" stroke="midnightblue" d="M1502.05,-175.052C1505.07,-174.665 1508.07,-174.31 1511,-174 1676.27,-156.509 2101.36,-193.53 2258,-138 2288.28,-127.266 2317.14,-103.324 2334.71,-86.6754"/>
<polygon fill="midnightblue" stroke="midnightblue" points="2337.23,-89.1008 2341.95,-79.6126 2332.34,-84.09 2337.23,-89.1008"/>
</g>
<!-- Node49 -->
<g id="node126" class="node"><title>Node49</title>
<a xlink:href="StatusBar_8h.htm" target="_top" xlink:title="StatusBar.h">
<polygon fill="white" stroke="black" points="2178.5,-116.5 2178.5,-137.5 2249.5,-137.5 2249.5,-116.5 2178.5,-116.5"/>
<text text-anchor="middle" x="2214" y="-124.5" font-family="Helvetica,sans-Serif" font-size="10.00">StatusBar.h</text>
</a>
</g>
<!-- Node26&#45;&gt;Node49 -->
<g id="edge154" class="edge"><title>Node26&#45;&gt;Node49</title>
<path fill="none" stroke="midnightblue" d="M1502.05,-175.089C1505.08,-174.692 1508.07,-174.325 1511,-174 1783.13,-143.78 1853.34,-162.994 2126,-138 2139.68,-136.746 2154.52,-135.029 2168.05,-133.325"/>
<polygon fill="midnightblue" stroke="midnightblue" points="2168.62,-136.78 2178.09,-132.032 2167.73,-129.837 2168.62,-136.78"/>
</g>
<!-- Node33&#45;&gt;Node2 -->
<g id="edge86" class="edge"><title>Node33&#45;&gt;Node2</title>
<path fill="none" stroke="midnightblue" d="M1693.94,-117.638C1689.23,-117.053 1684.54,-116.5 1680,-116 1482.77,-94.3087 1423.93,-140.639 1235,-80 1199.38,-68.5675 1163.17,-44.3057 1141.15,-27.8219"/>
<polygon fill="midnightblue" stroke="midnightblue" points="1143.23,-25.0087 1133.16,-21.717 1138.98,-30.5703 1143.23,-25.0087"/>
</g>
<!-- Node33&#45;&gt;Node11 -->
<g id="edge90" class="edge"><title>Node33&#45;&gt;Node11</title>
<path fill="none" stroke="midnightblue" d="M1755.71,-116.029C1752.11,-102.233 1747.51,-77.9401 1753,-58 1755.71,-48.153 1761.08,-38.2859 1766.41,-30.1528"/>
<polygon fill="midnightblue" stroke="midnightblue" points="1769.38,-32.0015 1772.25,-21.8007 1763.65,-27.9898 1769.38,-32.0015"/>
</g>
<!-- Node33&#45;&gt;Node21 -->
<g id="edge94" class="edge"><title>Node33&#45;&gt;Node21</title>
<path fill="none" stroke="midnightblue" d="M1693.94,-117.656C1689.22,-117.066 1684.54,-116.507 1680,-116 1632.68,-110.715 1289.63,-110.421 1253,-80 1239.08,-68.4374 1234.85,-47.6969 1233.79,-31.9646"/>
<polygon fill="midnightblue" stroke="midnightblue" points="1237.27,-31.4896 1233.48,-21.5969 1230.28,-31.6956 1237.27,-31.4896"/>
</g>
<!-- Node33&#45;&gt;Node27 -->
<g id="edge88" class="edge"><title>Node33&#45;&gt;Node27</title>
<path fill="none" stroke="midnightblue" d="M1811.97,-116.452C1848.75,-107.973 1893.2,-95.0247 1905,-80 1915.52,-66.6028 1915.92,-46.8686 1914.18,-31.9328"/>
<polygon fill="midnightblue" stroke="midnightblue" points="1917.57,-30.969 1912.57,-21.6311 1910.66,-32.0523 1917.57,-30.969"/>
</g>
<!-- Node34 -->
<g id="node80" class="node"><title>Node34</title>
<polygon fill="white" stroke="#bfbfbf" points="1675.5,-58.5 1675.5,-79.5 1706.5,-79.5 1706.5,-58.5 1675.5,-58.5"/>
<text text-anchor="middle" x="1691" y="-66.5" font-family="Helvetica,sans-Serif" font-size="10.00">set</text>
</g>
<!-- Node33&#45;&gt;Node34 -->
<g id="edge92" class="edge"><title>Node33&#45;&gt;Node34</title>
<path fill="none" stroke="midnightblue" d="M1746.53,-116.362C1736.65,-107.941 1722.67,-96.0105 1711.2,-86.2308"/>
<polygon fill="midnightblue" stroke="midnightblue" points="1713.27,-83.3972 1703.39,-79.5707 1708.73,-88.7231 1713.27,-83.3972"/>
</g>
<!-- Node35 -->
<g id="node83" class="node"><title>Node35</title>
<a xlink:href="LaunchPoint_8h.htm" target="_top" xlink:title="LaunchPoint.h">
<polygon fill="white" stroke="black" points="1261.5,-58.5 1261.5,-79.5 1344.5,-79.5 1344.5,-58.5 1261.5,-58.5"/>
<text text-anchor="middle" x="1303" y="-66.5" font-family="Helvetica,sans-Serif" font-size="10.00">LaunchPoint.h</text>
</a>
</g>
<!-- Node33&#45;&gt;Node35 -->
<g id="edge96" class="edge"><title>Node33&#45;&gt;Node35</title>
<path fill="none" stroke="midnightblue" d="M1693.91,-117.862C1689.21,-117.224 1684.53,-116.598 1680,-116 1551.67,-99.0742 1519.44,-96.0274 1391,-80 1379.3,-78.5402 1366.73,-76.9696 1354.85,-75.485"/>
<polygon fill="midnightblue" stroke="midnightblue" points="1354.99,-71.975 1344.63,-74.2075 1354.12,-78.921 1354.99,-71.975"/>
</g>
<!-- Node38 -->
<g id="node92" class="node"><title>Node38</title>
<polygon fill="white" stroke="#bfbfbf" points="1399.5,-58.5 1399.5,-79.5 1486.5,-79.5 1486.5,-58.5 1399.5,-58.5"/>
<text text-anchor="middle" x="1443" y="-66.5" font-family="Helvetica,sans-Serif" font-size="10.00">KeywordMap.h</text>
</g>
<!-- Node33&#45;&gt;Node38 -->
<g id="edge108" class="edge"><title>Node33&#45;&gt;Node38</title>
<path fill="none" stroke="midnightblue" d="M1696.49,-116.456C1645.23,-107.676 1570.53,-94.577 1496.62,-80.278"/>
<polygon fill="midnightblue" stroke="midnightblue" points="1497.16,-76.8168 1486.67,-78.3451 1495.82,-83.6883 1497.16,-76.8168"/>
</g>
<!-- Node39 -->
<g id="node94" class="node"><title>Node39</title>
<a xlink:href="CmdResourceHandlers_8h.htm" target="_top" xlink:title="CmdResourceHandlers.h">
<polygon fill="white" stroke="red" points="1762,-58.5 1762,-79.5 1896,-79.5 1896,-58.5 1762,-58.5"/>
<text text-anchor="middle" x="1829" y="-66.5" font-family="Helvetica,sans-Serif" font-size="10.00">CmdResourceHandlers.h</text>
</a>
</g>
<!-- Node33&#45;&gt;Node39 -->
<g id="edge110" class="edge"><title>Node33&#45;&gt;Node39</title>
<path fill="none" stroke="midnightblue" d="M1771.84,-116.362C1782,-107.941 1796.4,-96.0105 1808.2,-86.2308"/>
<polygon fill="midnightblue" stroke="midnightblue" points="1810.78,-88.6459 1816.24,-79.5707 1806.31,-83.2558 1810.78,-88.6459"/>
</g>
<!-- Node40 -->
<g id="node99" class="node"><title>Node40</title>
<polygon fill="white" stroke="#bfbfbf" points="1504,-58.5 1504,-79.5 1658,-79.5 1658,-58.5 1504,-58.5"/>
<text text-anchor="middle" x="1581" y="-66.5" font-family="Helvetica,sans-Serif" font-size="10.00">ApplicationDescriptionBase.h</text>
</g>
<!-- Node33&#45;&gt;Node40 -->
<g id="edge118" class="edge"><title>Node33&#45;&gt;Node40</title>
<path fill="none" stroke="midnightblue" d="M1726.77,-116.497C1697.75,-107.041 1654.91,-93.0829 1623.18,-82.7428"/>
<polygon fill="midnightblue" stroke="midnightblue" points="1623.89,-79.2934 1613.29,-79.5231 1621.72,-85.949 1623.89,-79.2934"/>
</g>
<!-- Node35&#45;&gt;Node2 -->
<g id="edge98" class="edge"><title>Node35&#45;&gt;Node2</title>
<path fill="none" stroke="midnightblue" d="M1269.86,-58.4966C1239.9,-49.0001 1195.6,-34.9619 1162.94,-24.6087"/>
<polygon fill="midnightblue" stroke="midnightblue" points="1163.79,-21.208 1153.2,-21.5231 1161.68,-27.8809 1163.79,-21.208"/>
</g>
<!-- Node35&#45;&gt;Node21 -->
<g id="edge102" class="edge"><title>Node35&#45;&gt;Node21</title>
<path fill="none" stroke="midnightblue" d="M1290.34,-58.3619C1280.33,-49.9408 1266.13,-38.0105 1254.5,-28.2308"/>
<polygon fill="midnightblue" stroke="midnightblue" points="1256.48,-25.326 1246.58,-21.5707 1251.98,-30.6844 1256.48,-25.326"/>
</g>
<!-- Node35&#45;&gt;Node27 -->
<g id="edge100" class="edge"><title>Node35&#45;&gt;Node27</title>
<path fill="none" stroke="midnightblue" d="M1344.59,-63.4574C1359.25,-61.5958 1375.84,-59.5904 1391,-58 1579.09,-38.2672 1626.82,-40.8787 1815,-22 1835.99,-19.8941 1859.55,-17.1688 1877.95,-14.9578"/>
<polygon fill="midnightblue" stroke="midnightblue" points="1878.63,-18.4015 1888.14,-13.7239 1877.79,-11.4523 1878.63,-18.4015"/>
</g>
<!-- Node36 -->
<g id="node88" class="node"><title>Node36</title>
<polygon fill="white" stroke="#bfbfbf" points="1273.5,-0.5 1273.5,-21.5 1332.5,-21.5 1332.5,-0.5 1273.5,-0.5"/>
<text text-anchor="middle" x="1303" y="-8.5" font-family="Helvetica,sans-Serif" font-size="10.00">QPixmap</text>
</g>
<!-- Node35&#45;&gt;Node36 -->
<g id="edge104" class="edge"><title>Node35&#45;&gt;Node36</title>
<path fill="none" stroke="midnightblue" d="M1303,-58.3619C1303,-50.9219 1303,-40.7427 1303,-31.7276"/>
<polygon fill="midnightblue" stroke="midnightblue" points="1306.5,-31.5706 1303,-21.5707 1299.5,-31.5707 1306.5,-31.5706"/>
</g>
<!-- Node37 -->
<g id="node90" class="node"><title>Node37</title>
<polygon fill="white" stroke="#bfbfbf" points="1351.5,-0.5 1351.5,-21.5 1392.5,-21.5 1392.5,-0.5 1351.5,-0.5"/>
<text text-anchor="middle" x="1372" y="-8.5" font-family="Helvetica,sans-Serif" font-size="10.00">glib.h</text>
</g>
<!-- Node35&#45;&gt;Node37 -->
<g id="edge106" class="edge"><title>Node35&#45;&gt;Node37</title>
<path fill="none" stroke="midnightblue" d="M1315.66,-58.3619C1325.67,-49.9408 1339.87,-38.0105 1351.5,-28.2308"/>
<polygon fill="midnightblue" stroke="midnightblue" points="1354.02,-30.6844 1359.42,-21.5707 1349.52,-25.326 1354.02,-30.6844"/>
</g>
<!-- Node39&#45;&gt;Node2 -->
<g id="edge112" class="edge"><title>Node39&#45;&gt;Node2</title>
<path fill="none" stroke="midnightblue" d="M1761.81,-62.2365C1746.44,-60.7667 1730.16,-59.2724 1715,-58 1491.22,-39.2141 1434.54,-43.4813 1211,-22 1195.56,-20.5158 1178.68,-18.5666 1163.69,-16.7218"/>
<polygon fill="midnightblue" stroke="midnightblue" points="1164.02,-13.2358 1153.67,-15.4684 1163.15,-20.1818 1164.02,-13.2358"/>
</g>
<!-- Node39&#45;&gt;Node11 -->
<g id="edge114" class="edge"><title>Node39&#45;&gt;Node11</title>
<path fill="none" stroke="midnightblue" d="M1820.2,-58.3619C1813.5,-50.2678 1804.12,-38.9318 1796.21,-29.3796"/>
<polygon fill="midnightblue" stroke="midnightblue" points="1798.82,-27.0431 1789.75,-21.5707 1793.43,-31.5061 1798.82,-27.0431"/>
</g>
<!-- Node39&#45;&gt;Node27 -->
<g id="edge116" class="edge"><title>Node39&#45;&gt;Node27</title>
<path fill="none" stroke="midnightblue" d="M1843.86,-58.3619C1855.85,-49.7773 1872.93,-37.5459 1886.73,-27.6636"/>
<polygon fill="midnightblue" stroke="midnightblue" points="1889.14,-30.2383 1895.24,-21.5707 1885.07,-24.5469 1889.14,-30.2383"/>
</g>
<!-- Node41&#45;&gt;Node2 -->
<g id="edge124" class="edge"><title>Node41&#45;&gt;Node2</title>
<path fill="none" stroke="midnightblue" d="M1121.82,-116.295C1121.49,-97.1314 1120.79,-56.654 1120.36,-31.8434"/>
<polygon fill="midnightblue" stroke="midnightblue" points="1123.86,-31.6173 1120.18,-21.6792 1116.86,-31.7381 1123.86,-31.6173"/>
</g>
<!-- Node41&#45;&gt;Node20 -->
<g id="edge128" class="edge"><title>Node41&#45;&gt;Node20</title>
<path fill="none" stroke="midnightblue" d="M1071.66,-116.497C1021.01,-105.93 943.405,-89.7393 893.176,-79.2597"/>
<polygon fill="midnightblue" stroke="midnightblue" points="893.706,-75.795 883.202,-77.1788 892.276,-82.6475 893.706,-75.795"/>
</g>
<!-- Node41&#45;&gt;Node37 -->
<g id="edge126" class="edge"><title>Node41&#45;&gt;Node37</title>
<path fill="none" stroke="midnightblue" d="M1172.62,-117.381C1239.6,-104.556 1349.68,-83.1038 1353,-80 1366.15,-67.7141 1370.5,-47.2422 1371.8,-31.7805"/>
<polygon fill="midnightblue" stroke="midnightblue" points="1375.31,-31.7527 1372.29,-21.5962 1368.32,-31.4167 1375.31,-31.7527"/>
</g>
<!-- Node42&#45;&gt;Node2 -->
<g id="edge132" class="edge"><title>Node42&#45;&gt;Node2</title>
<path fill="none" stroke="midnightblue" d="M1989.33,-64.4206C1963.87,-62.2963 1932.86,-59.8405 1905,-58 1596.81,-37.6383 1518.72,-48.548 1211,-22 1195.54,-20.6663 1178.66,-18.753 1163.68,-16.8949"/>
<polygon fill="midnightblue" stroke="midnightblue" points="1164.01,-13.4094 1153.65,-15.6252 1163.13,-20.3539 1164.01,-13.4094"/>
</g>
<!-- Node43 -->
<g id="node110" class="node"><title>Node43</title>
<polygon fill="white" stroke="#bfbfbf" points="1948.5,-0.5 1948.5,-21.5 2053.5,-21.5 2053.5,-0.5 1948.5,-0.5"/>
<text text-anchor="middle" x="2001" y="-8.5" font-family="Helvetica,sans-Serif" font-size="10.00">QVariantAnimation</text>
</g>
<!-- Node42&#45;&gt;Node43 -->
<g id="edge134" class="edge"><title>Node42&#45;&gt;Node43</title>
<path fill="none" stroke="midnightblue" d="M2034.48,-58.3619C2028.87,-50.4313 2021.07,-39.3885 2014.4,-29.9606"/>
<polygon fill="midnightblue" stroke="midnightblue" points="2017.1,-27.7161 2008.47,-21.5707 2011.39,-31.7568 2017.1,-27.7161"/>
</g>
<!-- Node44&#45;&gt;Node2 -->
<g id="edge138" class="edge"><title>Node44&#45;&gt;Node2</title>
<path fill="none" stroke="midnightblue" d="M2111.7,-59.6677C2108.78,-59.016 2105.85,-58.4429 2103,-58 1710.95,2.99874 1606.49,-53.8326 1211,-22 1195.53,-20.7552 1178.65,-18.863 1163.67,-16.9971"/>
<polygon fill="midnightblue" stroke="midnightblue" points="1164.01,-13.5118 1153.64,-15.7178 1163.12,-20.4555 1164.01,-13.5118"/>
</g>
<!-- Node44&#45;&gt;Node11 -->
<g id="edge142" class="edge"><title>Node44&#45;&gt;Node11</title>
<path fill="none" stroke="midnightblue" d="M2111.65,-59.9842C2108.73,-59.2661 2105.82,-58.5911 2103,-58 1999.72,-36.3479 1875.73,-21.271 1816.24,-14.701"/>
<polygon fill="midnightblue" stroke="midnightblue" points="1816.56,-11.2152 1806.24,-13.61 1815.8,-18.1739 1816.56,-11.2152"/>
</g>
<!-- Node44&#45;&gt;Node27 -->
<g id="edge144" class="edge"><title>Node44&#45;&gt;Node27</title>
<path fill="none" stroke="midnightblue" d="M2111.6,-60.2014C2108.7,-59.4377 2105.8,-58.6928 2103,-58 2034.08,-40.9248 2013.01,-42.6263 1941.47,-22.1734"/>
<polygon fill="midnightblue" stroke="midnightblue" points="1942.09,-18.7115 1931.51,-19.2809 1940.14,-25.4333 1942.09,-18.7115"/>
</g>
<!-- Node44&#45;&gt;Node37 -->
<g id="edge146" class="edge"><title>Node44&#45;&gt;Node37</title>
<path fill="none" stroke="midnightblue" d="M2111.69,-59.7402C2108.77,-59.0732 2105.84,-58.4769 2103,-58 1964.82,-34.8086 1522.94,-16.7197 1402.54,-12.1313"/>
<polygon fill="midnightblue" stroke="midnightblue" points="1402.66,-8.63344 1392.54,-11.753 1402.4,-15.6284 1402.66,-8.63344"/>
</g>
<!-- Node45 -->
<g id="node115" class="node"><title>Node45</title>
<polygon fill="white" stroke="#bfbfbf" points="2071,-0.5 2071,-21.5 2163,-21.5 2163,-0.5 2071,-0.5"/>
<text text-anchor="middle" x="2117" y="-8.5" font-family="Helvetica,sans-Serif" font-size="10.00">WindowTypes.h</text>
</g>
<!-- Node44&#45;&gt;Node45 -->
<g id="edge140" class="edge"><title>Node44&#45;&gt;Node45</title>
<path fill="none" stroke="midnightblue" d="M2138.23,-58.3619C2134.79,-50.6766 2130.03,-40.0686 2125.89,-30.8399"/>
<polygon fill="midnightblue" stroke="midnightblue" points="2129.02,-29.264 2121.74,-21.5707 2122.64,-32.1275 2129.02,-29.264"/>
</g>
<!-- Node46 -->
<g id="node120" class="node"><title>Node46</title>
<polygon fill="white" stroke="#bfbfbf" points="2243,-0.5 2243,-21.5 2341,-21.5 2341,-0.5 2243,-0.5"/>
<text text-anchor="middle" x="2292" y="-8.5" font-family="Helvetica,sans-Serif" font-size="10.00">QGraphicsObject</text>
</g>
<!-- Node44&#45;&gt;Node46 -->
<g id="edge148" class="edge"><title>Node44&#45;&gt;Node46</title>
<path fill="none" stroke="midnightblue" d="M2169.98,-58.4966C2193.85,-49.2048 2228.89,-35.5649 2255.31,-25.2832"/>
<polygon fill="midnightblue" stroke="midnightblue" points="2256.92,-28.4122 2264.97,-21.5231 2254.38,-21.889 2256.92,-28.4122"/>
</g>
<!-- Node47 -->
<g id="node122" class="node"><title>Node47</title>
<polygon fill="white" stroke="#bfbfbf" points="2180.5,-0.5 2180.5,-21.5 2225.5,-21.5 2225.5,-0.5 2180.5,-0.5"/>
<text text-anchor="middle" x="2203" y="-8.5" font-family="Helvetica,sans-Serif" font-size="10.00">QSize</text>
</g>
<!-- Node44&#45;&gt;Node47 -->
<g id="edge150" class="edge"><title>Node44&#45;&gt;Node47</title>
<path fill="none" stroke="midnightblue" d="M2154,-58.3619C2162.55,-50.1043 2174.58,-38.4725 2184.58,-28.8029"/>
<polygon fill="midnightblue" stroke="midnightblue" points="2187.31,-31.0374 2192.06,-21.5707 2182.44,-26.0044 2187.31,-31.0374"/>
</g>
<!-- Node49&#45;&gt;Node42 -->
<g id="edge162" class="edge"><title>Node49&#45;&gt;Node42</title>
<path fill="none" stroke="midnightblue" d="M2182.85,-116.497C2154.81,-107.041 2113.42,-93.0829 2082.75,-82.7428"/>
<polygon fill="midnightblue" stroke="midnightblue" points="2083.8,-79.4019 2073.21,-79.5231 2081.56,-86.035 2083.8,-79.4019"/>
</g>
<!-- Node49&#45;&gt;Node44 -->
<g id="edge156" class="edge"><title>Node49&#45;&gt;Node44</title>
<path fill="none" stroke="midnightblue" d="M2200.98,-116.362C2190.57,-107.859 2175.78,-95.7785 2163.74,-85.9466"/>
<polygon fill="midnightblue" stroke="midnightblue" points="2165.9,-83.1866 2155.94,-79.5707 2161.47,-88.6077 2165.9,-83.1866"/>
</g>
<!-- Node49&#45;&gt;Node46 -->
<g id="edge160" class="edge"><title>Node49&#45;&gt;Node46</title>
<path fill="none" stroke="midnightblue" d="M2226.19,-116.306C2235.94,-107.313 2249.49,-93.7527 2259,-80 2269.57,-64.7066 2278.45,-45.5016 2284.33,-31.2387"/>
<polygon fill="midnightblue" stroke="midnightblue" points="2287.62,-32.4388 2288.06,-21.8531 2281.11,-29.8544 2287.62,-32.4388"/>
</g>
<!-- Node49&#45;&gt;Node48 -->
<g id="edge164" class="edge"><title>Node49&#45;&gt;Node48</title>
<path fill="none" stroke="midnightblue" d="M2238.99,-116.497C2260.93,-107.275 2293.07,-93.7695 2317.46,-83.5153"/>
<polygon fill="midnightblue" stroke="midnightblue" points="2318.87,-86.7225 2326.73,-79.6212 2316.15,-80.2693 2318.87,-86.7225"/>
</g>
<!-- Node50 -->
<g id="node129" class="node"><title>Node50</title>
<polygon fill="white" stroke="#bfbfbf" points="2191.5,-58.5 2191.5,-79.5 2250.5,-79.5 2250.5,-58.5 2191.5,-58.5"/>
<text text-anchor="middle" x="2221" y="-66.5" font-family="Helvetica,sans-Serif" font-size="10.00">QPointer</text>
</g>
<!-- Node49&#45;&gt;Node50 -->
<g id="edge158" class="edge"><title>Node49&#45;&gt;Node50</title>
<path fill="none" stroke="midnightblue" d="M2215.28,-116.362C2216.18,-108.922 2217.41,-98.7427 2218.5,-89.7276"/>
<polygon fill="midnightblue" stroke="midnightblue" points="2222,-89.918 2219.72,-79.5707 2215.05,-89.0792 2222,-89.918"/>
</g>
</g>
</svg>
