<?xml version="1.0" encoding="UTF-8" standalone="no"?>
<!DOCTYPE svg PUBLIC "-//W3C//DTD SVG 1.1//EN"
 "http://www.w3.org/Graphics/SVG/1.1/DTD/svg11.dtd">
<!-- Generated by graphviz version 2.26.3 (20100126.1600)
 -->
<!-- Title: CpuAffinity.cpp Pages: 1 -->
<svg width="360pt" height="88pt"
 viewBox="0.00 0.00 360.00 88.00" xmlns="http://www.w3.org/2000/svg" xmlns:xlink="http://www.w3.org/1999/xlink">
<g id="graph1" class="graph" transform="scale(1 1) rotate(0) translate(4 84)">
<title>CpuAffinity.cpp</title>
<polygon fill="white" stroke="white" points="-4,5 -4,-84 357,-84 357,5 -4,5"/>
<!-- Node1 -->
<g id="node1" class="node"><title>Node1</title>
<polygon fill="#bfbfbf" stroke="black" points="129,-58.5 129,-79.5 215,-79.5 215,-58.5 129,-58.5"/>
<text text-anchor="middle" x="172" y="-66.5" font-family="Helvetica,sans-Serif" font-size="10.00">CpuAffinity.cpp</text>
</g>
<!-- Node2 -->
<g id="node3" class="node"><title>Node2</title>
<polygon fill="white" stroke="#bfbfbf" points="-0.5,-0.5 -0.5,-21.5 66.5,-21.5 66.5,-0.5 -0.5,-0.5"/>
<text text-anchor="middle" x="33" y="-8.5" font-family="Helvetica,sans-Serif" font-size="10.00">Common.h</text>
</g>
<!-- Node1&#45;&gt;Node2 -->
<g id="edge2" class="edge"><title>Node1&#45;&gt;Node2</title>
<path fill="none" stroke="midnightblue" d="M146.828,-58.4966C124.727,-49.2746 92.3613,-35.7695 67.7866,-25.5153"/>
<polygon fill="midnightblue" stroke="midnightblue" points="69.0309,-22.2421 58.4543,-21.6212 66.3353,-28.7022 69.0309,-22.2421"/>
</g>
<!-- Node3 -->
<g id="node5" class="node"><title>Node3</title>
<polygon fill="white" stroke="#bfbfbf" points="84,-0.5 84,-21.5 134,-21.5 134,-0.5 84,-0.5"/>
<text text-anchor="middle" x="109" y="-8.5" font-family="Helvetica,sans-Serif" font-size="10.00">errno.h</text>
</g>
<!-- Node1&#45;&gt;Node3 -->
<g id="edge4" class="edge"><title>Node1&#45;&gt;Node3</title>
<path fill="none" stroke="midnightblue" d="M160.445,-58.3619C151.387,-50.0226 138.59,-38.2418 128.026,-28.5162"/>
<polygon fill="midnightblue" stroke="midnightblue" points="130.21,-25.7688 120.482,-21.5707 125.468,-30.9187 130.21,-25.7688"/>
</g>
<!-- Node4 -->
<g id="node7" class="node"><title>Node4</title>
<polygon fill="white" stroke="#bfbfbf" points="151.5,-0.5 151.5,-21.5 192.5,-21.5 192.5,-0.5 151.5,-0.5"/>
<text text-anchor="middle" x="172" y="-8.5" font-family="Helvetica,sans-Serif" font-size="10.00">glib.h</text>
</g>
<!-- Node1&#45;&gt;Node4 -->
<g id="edge6" class="edge"><title>Node1&#45;&gt;Node4</title>
<path fill="none" stroke="midnightblue" d="M172,-58.3619C172,-50.9219 172,-40.7427 172,-31.7276"/>
<polygon fill="midnightblue" stroke="midnightblue" points="175.5,-31.5706 172,-21.5707 168.5,-31.5707 175.5,-31.5706"/>
</g>
<!-- Node5 -->
<g id="node9" class="node"><title>Node5</title>
<polygon fill="white" stroke="#bfbfbf" points="209.5,-0.5 209.5,-21.5 260.5,-21.5 260.5,-0.5 209.5,-0.5"/>
<text text-anchor="middle" x="235" y="-8.5" font-family="Helvetica,sans-Serif" font-size="10.00">string.h</text>
</g>
<!-- Node1&#45;&gt;Node5 -->
<g id="edge8" class="edge"><title>Node1&#45;&gt;Node5</title>
<path fill="none" stroke="midnightblue" d="M183.555,-58.3619C192.613,-50.0226 205.41,-38.2418 215.974,-28.5162"/>
<polygon fill="midnightblue" stroke="midnightblue" points="218.532,-30.9187 223.518,-21.5707 213.79,-25.7688 218.532,-30.9187"/>
</g>
<!-- Node6 -->
<g id="node11" class="node"><title>Node6</title>
<a xlink:href="CpuAffinity_8h.htm" target="_top" xlink:title="CpuAffinity.h">
<polygon fill="white" stroke="black" points="277.5,-0.5 277.5,-21.5 352.5,-21.5 352.5,-0.5 277.5,-0.5"/>
<text text-anchor="middle" x="315" y="-8.5" font-family="Helvetica,sans-Serif" font-size="10.00">CpuAffinity.h</text>
</a>
</g>
<!-- Node1&#45;&gt;Node6 -->
<g id="edge10" class="edge"><title>Node1&#45;&gt;Node6</title>
<path fill="none" stroke="midnightblue" d="M197.896,-58.4966C220.633,-49.2746 253.93,-35.7695 279.212,-25.5153"/>
<polygon fill="midnightblue" stroke="midnightblue" points="280.862,-28.6232 288.813,-21.6212 278.231,-22.1365 280.862,-28.6232"/>
</g>
</g>
</svg>
