<?xml version="1.0" encoding="UTF-8" standalone="no"?>
<!DOCTYPE svg PUBLIC "-//W3C//DTD SVG 1.1//EN"
 "http://www.w3.org/Graphics/SVG/1.1/DTD/svg11.dtd">
<!-- Generated by graphviz version 2.26.3 (20100126.1600)
 -->
<!-- Title: DashboardWindowManagerStates.h Pages: 1 -->
<svg width="260pt" height="88pt"
 viewBox="0.00 0.00 260.00 88.00" xmlns="http://www.w3.org/2000/svg" xmlns:xlink="http://www.w3.org/1999/xlink">
<g id="graph1" class="graph" transform="scale(1 1) rotate(0) translate(4 84)">
<title>DashboardWindowManagerStates.h</title>
<polygon fill="white" stroke="white" points="-4,5 -4,-84 257,-84 257,5 -4,5"/>
<!-- Node1 -->
<g id="node1" class="node"><title>Node1</title>
<polygon fill="#bfbfbf" stroke="black" points="40.5,-58.5 40.5,-79.5 227.5,-79.5 227.5,-58.5 40.5,-58.5"/>
<text text-anchor="middle" x="134" y="-66.5" font-family="Helvetica,sans-Serif" font-size="10.00">DashboardWindowManagerStates.h</text>
</g>
<!-- Node2 -->
<g id="node3" class="node"><title>Node2</title>
<polygon fill="white" stroke="#bfbfbf" points="-0.5,-0.5 -0.5,-21.5 66.5,-21.5 66.5,-0.5 -0.5,-0.5"/>
<text text-anchor="middle" x="33" y="-8.5" font-family="Helvetica,sans-Serif" font-size="10.00">Common.h</text>
</g>
<!-- Node1&#45;&gt;Node2 -->
<g id="edge2" class="edge"><title>Node1&#45;&gt;Node2</title>
<path fill="none" stroke="midnightblue" d="M115.475,-58.3619C100.099,-49.532 78.0041,-36.844 60.5528,-26.8224"/>
<polygon fill="midnightblue" stroke="midnightblue" points="61.8223,-23.5154 51.4075,-21.5707 58.3364,-29.5857 61.8223,-23.5154"/>
</g>
<!-- Node3 -->
<g id="node5" class="node"><title>Node3</title>
<polygon fill="white" stroke="#bfbfbf" points="83.5,-0.5 83.5,-21.5 184.5,-21.5 184.5,-0.5 83.5,-0.5"/>
<text text-anchor="middle" x="134" y="-8.5" font-family="Helvetica,sans-Serif" font-size="10.00">QSignalTransition</text>
</g>
<!-- Node1&#45;&gt;Node3 -->
<g id="edge4" class="edge"><title>Node1&#45;&gt;Node3</title>
<path fill="none" stroke="midnightblue" d="M134,-58.3619C134,-50.9219 134,-40.7427 134,-31.7276"/>
<polygon fill="midnightblue" stroke="midnightblue" points="137.5,-31.5706 134,-21.5707 130.5,-31.5707 137.5,-31.5706"/>
</g>
<!-- Node4 -->
<g id="node7" class="node"><title>Node4</title>
<polygon fill="white" stroke="#bfbfbf" points="202,-0.5 202,-21.5 252,-21.5 252,-0.5 202,-0.5"/>
<text text-anchor="middle" x="227" y="-8.5" font-family="Helvetica,sans-Serif" font-size="10.00">QState</text>
</g>
<!-- Node1&#45;&gt;Node4 -->
<g id="edge6" class="edge"><title>Node1&#45;&gt;Node4</title>
<path fill="none" stroke="midnightblue" d="M151.058,-58.3619C165.085,-49.6138 185.184,-37.0786 201.182,-27.1015"/>
<polygon fill="midnightblue" stroke="midnightblue" points="203.418,-29.8323 210.051,-21.5707 199.713,-23.8927 203.418,-29.8323"/>
</g>
</g>
</svg>
