<?xml version="1.0" encoding="UTF-8" standalone="no"?>
<!DOCTYPE svg PUBLIC "-//W3C//DTD SVG 1.1//EN"
 "http://www.w3.org/Graphics/SVG/1.1/DTD/svg11.dtd">
<!-- Generated by graphviz version 2.26.3 (20100126.1600)
 -->
<!-- Title: DashboardWindowContainer.h Pages: 1 -->
<svg width="859pt" height="146pt"
 viewBox="0.00 0.00 859.00 146.00" xmlns="http://www.w3.org/2000/svg" xmlns:xlink="http://www.w3.org/1999/xlink">
<g id="graph1" class="graph" transform="scale(1 1) rotate(0) translate(4 142)">
<title>DashboardWindowContainer.h</title>
<polygon fill="white" stroke="white" points="-4,5 -4,-142 856,-142 856,5 -4,5"/>
<!-- Node1 -->
<g id="node1" class="node"><title>Node1</title>
<polygon fill="#bfbfbf" stroke="black" points="427.5,-116.5 427.5,-137.5 588.5,-137.5 588.5,-116.5 427.5,-116.5"/>
<text text-anchor="middle" x="508" y="-124.5" font-family="Helvetica,sans-Serif" font-size="10.00">DashboardWindowContainer.h</text>
</g>
<!-- Node2 -->
<g id="node3" class="node"><title>Node2</title>
<polygon fill="white" stroke="#bfbfbf" points="662.5,-0.5 662.5,-21.5 729.5,-21.5 729.5,-0.5 662.5,-0.5"/>
<text text-anchor="middle" x="696" y="-8.5" font-family="Helvetica,sans-Serif" font-size="10.00">Common.h</text>
</g>
<!-- Node1&#45;&gt;Node2 -->
<g id="edge2" class="edge"><title>Node1&#45;&gt;Node2</title>
<path fill="none" stroke="midnightblue" d="M582.007,-116.488C625.546,-108.705 674.786,-96.5728 689,-80 700.228,-66.9089 701.083,-46.8665 699.657,-31.7496"/>
<polygon fill="midnightblue" stroke="midnightblue" points="703.12,-31.234 698.332,-21.7825 696.181,-32.1566 703.12,-31.234"/>
</g>
<!-- Node3 -->
<g id="node5" class="node"><title>Node3</title>
<polygon fill="white" stroke="#bfbfbf" points="203.5,-58.5 203.5,-79.5 244.5,-79.5 244.5,-58.5 203.5,-58.5"/>
<text text-anchor="middle" x="224" y="-66.5" font-family="Helvetica,sans-Serif" font-size="10.00">QList</text>
</g>
<!-- Node1&#45;&gt;Node3 -->
<g id="edge4" class="edge"><title>Node1&#45;&gt;Node3</title>
<path fill="none" stroke="midnightblue" d="M430.742,-116.471C382.236,-109.001 318.348,-97.5929 254.577,-80.1258"/>
<polygon fill="midnightblue" stroke="midnightblue" points="255.332,-76.7028 244.759,-77.3876 253.451,-83.4455 255.332,-76.7028"/>
</g>
<!-- Node4 -->
<g id="node7" class="node"><title>Node4</title>
<polygon fill="white" stroke="#bfbfbf" points="261.5,-58.5 261.5,-79.5 316.5,-79.5 316.5,-58.5 261.5,-58.5"/>
<text text-anchor="middle" x="289" y="-66.5" font-family="Helvetica,sans-Serif" font-size="10.00">QObject</text>
</g>
<!-- Node1&#45;&gt;Node4 -->
<g id="edge6" class="edge"><title>Node1&#45;&gt;Node4</title>
<path fill="none" stroke="midnightblue" d="M464.592,-116.438C429.597,-107.791 378.898,-94.9688 326.643,-80.3934"/>
<polygon fill="midnightblue" stroke="midnightblue" points="327.445,-76.9834 316.871,-77.6521 325.554,-83.7232 327.445,-76.9834"/>
</g>
<!-- Node5 -->
<g id="node9" class="node"><title>Node5</title>
<polygon fill="white" stroke="#bfbfbf" points="334,-58.5 334,-79.5 470,-79.5 470,-58.5 334,-58.5"/>
<text text-anchor="middle" x="402" y="-66.5" font-family="Helvetica,sans-Serif" font-size="10.00">QParallelAnimationGroup</text>
</g>
<!-- Node1&#45;&gt;Node5 -->
<g id="edge8" class="edge"><title>Node1&#45;&gt;Node5</title>
<path fill="none" stroke="midnightblue" d="M488.558,-116.362C472.196,-107.409 448.587,-94.4908 430.157,-84.4064"/>
<polygon fill="midnightblue" stroke="midnightblue" points="431.771,-81.3004 421.319,-79.5707 428.411,-87.4412 431.771,-81.3004"/>
</g>
<!-- Node6 -->
<g id="node11" class="node"><title>Node6</title>
<polygon fill="white" stroke="#bfbfbf" points="487.5,-58.5 487.5,-79.5 528.5,-79.5 528.5,-58.5 487.5,-58.5"/>
<text text-anchor="middle" x="508" y="-66.5" font-family="Helvetica,sans-Serif" font-size="10.00">QSet</text>
</g>
<!-- Node1&#45;&gt;Node6 -->
<g id="edge10" class="edge"><title>Node1&#45;&gt;Node6</title>
<path fill="none" stroke="midnightblue" d="M508,-116.362C508,-108.922 508,-98.7427 508,-89.7276"/>
<polygon fill="midnightblue" stroke="midnightblue" points="511.5,-89.5706 508,-79.5707 504.5,-89.5707 511.5,-89.5706"/>
</g>
<!-- Node7 -->
<g id="node13" class="node"><title>Node7</title>
<polygon fill="white" stroke="#bfbfbf" points="545.5,-58.5 545.5,-79.5 604.5,-79.5 604.5,-58.5 545.5,-58.5"/>
<text text-anchor="middle" x="575" y="-66.5" font-family="Helvetica,sans-Serif" font-size="10.00">QPointer</text>
</g>
<!-- Node1&#45;&gt;Node7 -->
<g id="edge12" class="edge"><title>Node1&#45;&gt;Node7</title>
<path fill="none" stroke="midnightblue" d="M520.289,-116.362C530.017,-107.941 543.798,-96.0105 555.095,-86.2308"/>
<polygon fill="midnightblue" stroke="midnightblue" points="557.519,-88.7619 562.789,-79.5707 552.938,-83.4695 557.519,-88.7619"/>
</g>
<!-- Node8 -->
<g id="node15" class="node"><title>Node8</title>
<polygon fill="white" stroke="#bfbfbf" points="621.5,-58.5 621.5,-79.5 680.5,-79.5 680.5,-58.5 621.5,-58.5"/>
<text text-anchor="middle" x="651" y="-66.5" font-family="Helvetica,sans-Serif" font-size="10.00">QPixmap</text>
</g>
<!-- Node1&#45;&gt;Node8 -->
<g id="edge14" class="edge"><title>Node1&#45;&gt;Node8</title>
<path fill="none" stroke="midnightblue" d="M533.896,-116.497C556.633,-107.275 589.93,-93.7695 615.212,-83.5153"/>
<polygon fill="midnightblue" stroke="midnightblue" points="616.862,-86.6232 624.813,-79.6212 614.231,-80.1365 616.862,-86.6232"/>
</g>
<!-- Node9 -->
<g id="node17" class="node"><title>Node9</title>
<a xlink:href="GraphicsItemContainer_8h.htm" target="_top" xlink:title="GraphicsItemContainer.h">
<polygon fill="white" stroke="black" points="52,-58.5 52,-79.5 186,-79.5 186,-58.5 52,-58.5"/>
<text text-anchor="middle" x="119" y="-66.5" font-family="Helvetica,sans-Serif" font-size="10.00">GraphicsItemContainer.h</text>
</a>
</g>
<!-- Node1&#45;&gt;Node9 -->
<g id="edge16" class="edge"><title>Node1&#45;&gt;Node9</title>
<path fill="none" stroke="midnightblue" d="M437.555,-116.497C369.525,-106.353 266.744,-91.0287 196.446,-80.5472"/>
<polygon fill="midnightblue" stroke="midnightblue" points="196.725,-77.0502 186.318,-79.0371 195.692,-83.9736 196.725,-77.0502"/>
</g>
<!-- Node13 -->
<g id="node26" class="node"><title>Node13</title>
<a xlink:href="VariantAnimation_8h.htm" target="_top" xlink:title="VariantAnimation.h">
<polygon fill="white" stroke="black" points="735.5,-58.5 735.5,-79.5 840.5,-79.5 840.5,-58.5 735.5,-58.5"/>
<text text-anchor="middle" x="788" y="-66.5" font-family="Helvetica,sans-Serif" font-size="10.00">VariantAnimation.h</text>
</a>
</g>
<!-- Node1&#45;&gt;Node13 -->
<g id="edge26" class="edge"><title>Node1&#45;&gt;Node13</title>
<path fill="none" stroke="midnightblue" d="M558.706,-116.497C606.033,-106.693 676.726,-92.0496 727.093,-81.6165"/>
<polygon fill="midnightblue" stroke="midnightblue" points="728.117,-84.9788 737.199,-79.5231 726.697,-78.1243 728.117,-84.9788"/>
</g>
<!-- Node9&#45;&gt;Node2 -->
<g id="edge18" class="edge"><title>Node9&#45;&gt;Node2</title>
<path fill="none" stroke="midnightblue" d="M186.113,-59.0999C189.114,-58.7159 192.088,-58.3472 195,-58 363.592,-37.9041 564.954,-21.2324 652.16,-14.3681"/>
<polygon fill="midnightblue" stroke="midnightblue" points="652.523,-17.8504 662.22,-13.58 651.977,-10.8718 652.523,-17.8504"/>
</g>
<!-- Node10 -->
<g id="node20" class="node"><title>Node10</title>
<polygon fill="white" stroke="#bfbfbf" points="0,-0.5 0,-21.5 52,-21.5 52,-0.5 0,-0.5"/>
<text text-anchor="middle" x="26" y="-8.5" font-family="Helvetica,sans-Serif" font-size="10.00">QBrush</text>
</g>
<!-- Node9&#45;&gt;Node10 -->
<g id="edge20" class="edge"><title>Node9&#45;&gt;Node10</title>
<path fill="none" stroke="midnightblue" d="M101.942,-58.3619C87.9152,-49.6138 67.8157,-37.0786 51.8179,-27.1015"/>
<polygon fill="midnightblue" stroke="midnightblue" points="53.2868,-23.8927 42.9495,-21.5707 49.5825,-29.8323 53.2868,-23.8927"/>
</g>
<!-- Node11 -->
<g id="node22" class="node"><title>Node11</title>
<polygon fill="white" stroke="#bfbfbf" points="70,-0.5 70,-21.5 168,-21.5 168,-0.5 70,-0.5"/>
<text text-anchor="middle" x="119" y="-8.5" font-family="Helvetica,sans-Serif" font-size="10.00">QGraphicsObject</text>
</g>
<!-- Node9&#45;&gt;Node11 -->
<g id="edge22" class="edge"><title>Node9&#45;&gt;Node11</title>
<path fill="none" stroke="midnightblue" d="M119,-58.3619C119,-50.9219 119,-40.7427 119,-31.7276"/>
<polygon fill="midnightblue" stroke="midnightblue" points="122.5,-31.5706 119,-21.5707 115.5,-31.5707 122.5,-31.5706"/>
</g>
<!-- Node12 -->
<g id="node24" class="node"><title>Node12</title>
<polygon fill="white" stroke="#bfbfbf" points="186,-0.5 186,-21.5 342,-21.5 342,-0.5 186,-0.5"/>
<text text-anchor="middle" x="264" y="-8.5" font-family="Helvetica,sans-Serif" font-size="10.00">QGraphicsSceneMouseEvent</text>
</g>
<!-- Node9&#45;&gt;Node12 -->
<g id="edge24" class="edge"><title>Node9&#45;&gt;Node12</title>
<path fill="none" stroke="midnightblue" d="M145.258,-58.4966C168.416,-49.2337 202.375,-35.6499 228.052,-25.3793"/>
<polygon fill="midnightblue" stroke="midnightblue" points="229.462,-28.5849 237.447,-21.6212 226.862,-22.0855 229.462,-28.5849"/>
</g>
<!-- Node13&#45;&gt;Node2 -->
<g id="edge28" class="edge"><title>Node13&#45;&gt;Node2</title>
<path fill="none" stroke="midnightblue" d="M771.126,-58.3619C757.249,-49.6138 737.366,-37.0786 721.54,-27.1015"/>
<polygon fill="midnightblue" stroke="midnightblue" points="723.093,-23.943 712.767,-21.5707 719.36,-29.8645 723.093,-23.943"/>
</g>
<!-- Node14 -->
<g id="node29" class="node"><title>Node14</title>
<polygon fill="white" stroke="#bfbfbf" points="746.5,-0.5 746.5,-21.5 851.5,-21.5 851.5,-0.5 746.5,-0.5"/>
<text text-anchor="middle" x="799" y="-8.5" font-family="Helvetica,sans-Serif" font-size="10.00">QVariantAnimation</text>
</g>
<!-- Node13&#45;&gt;Node14 -->
<g id="edge30" class="edge"><title>Node13&#45;&gt;Node14</title>
<path fill="none" stroke="midnightblue" d="M790.018,-58.3619C791.444,-50.8401 793.402,-40.5187 795.125,-31.4308"/>
<polygon fill="midnightblue" stroke="midnightblue" points="798.571,-32.0477 796.995,-21.5707 791.693,-30.7433 798.571,-32.0477"/>
</g>
</g>
</svg>
