<?xml version="1.0" encoding="UTF-8" standalone="no"?>
<!DOCTYPE svg PUBLIC "-//W3C//DTD SVG 1.1//EN"
 "http://www.w3.org/Graphics/SVG/1.1/DTD/svg11.dtd">
<!-- Generated by graphviz version 2.26.3 (20100126.1600)
 -->
<!-- Title: DashboardWindowManager.h Pages: 1 -->
<svg width="1718pt" height="88pt"
 viewBox="0.00 0.00 1718.00 88.00" xmlns="http://www.w3.org/2000/svg" xmlns:xlink="http://www.w3.org/1999/xlink">
<g id="graph1" class="graph" transform="scale(1 1) rotate(0) translate(4 84)">
<title>DashboardWindowManager.h</title>
<polygon fill="white" stroke="white" points="-4,5 -4,-84 1715,-84 1715,5 -4,5"/>
<!-- Node1 -->
<g id="node1" class="node"><title>Node1</title>
<polygon fill="#bfbfbf" stroke="black" points="763.5,-58.5 763.5,-79.5 920.5,-79.5 920.5,-58.5 763.5,-58.5"/>
<text text-anchor="middle" x="842" y="-66.5" font-family="Helvetica,sans-Serif" font-size="10.00">DashboardWindowManager.h</text>
</g>
<!-- Node2 -->
<g id="node3" class="node"><title>Node2</title>
<a xlink:href="SystemUiController_8cpp.htm" target="_top" xlink:title="SystemUiController.cpp">
<polygon fill="white" stroke="black" points="-0.5,-0.5 -0.5,-21.5 126.5,-21.5 126.5,-0.5 -0.5,-0.5"/>
<text text-anchor="middle" x="63" y="-8.5" font-family="Helvetica,sans-Serif" font-size="10.00">SystemUiController.cpp</text>
</a>
</g>
<!-- Node1&#45;&gt;Node2 -->
<g id="edge2" class="edge"><title>Node1&#45;&gt;Node2</title>
<path fill="none" stroke="midnightblue" d="M753.118,-65.5246C618.915,-59.7275 356.673,-46.2569 135,-22 132.235,-21.6974 129.413,-21.3656 126.565,-21.0118"/>
<polygon fill="midnightblue" stroke="midnightblue" points="753.202,-69.0314 763.343,-65.9622 753.502,-62.0378 753.202,-69.0314"/>
</g>
<!-- Node3 -->
<g id="node5" class="node"><title>Node3</title>
<a xlink:href="DockModeWindowManager_8cpp.htm" target="_top" xlink:title="DockModeWindowManager.cpp">
<polygon fill="white" stroke="black" points="143.5,-0.5 143.5,-21.5 310.5,-21.5 310.5,-0.5 143.5,-0.5"/>
<text text-anchor="middle" x="227" y="-8.5" font-family="Helvetica,sans-Serif" font-size="10.00">DockModeWindowManager.cpp</text>
</a>
</g>
<!-- Node1&#45;&gt;Node3 -->
<g id="edge4" class="edge"><title>Node1&#45;&gt;Node3</title>
<path fill="none" stroke="midnightblue" d="M752.916,-61.7962C648.767,-53.1883 471.241,-37.9386 319,-22 316.28,-21.7153 313.516,-21.4198 310.725,-21.1164"/>
<polygon fill="midnightblue" stroke="midnightblue" points="752.819,-65.2999 763.072,-62.6338 753.394,-58.3236 752.819,-65.2999"/>
</g>
<!-- Node4 -->
<g id="node7" class="node"><title>Node4</title>
<a xlink:href="LockWindow_8cpp.htm" target="_top" xlink:title="LockWindow.cpp">
<polygon fill="white" stroke="black" points="328,-0.5 328,-21.5 424,-21.5 424,-0.5 328,-0.5"/>
<text text-anchor="middle" x="376" y="-8.5" font-family="Helvetica,sans-Serif" font-size="10.00">LockWindow.cpp</text>
</a>
</g>
<!-- Node1&#45;&gt;Node4 -->
<g id="edge6" class="edge"><title>Node1&#45;&gt;Node4</title>
<path fill="none" stroke="midnightblue" d="M753.202,-60.7664C670.179,-52.6021 542.862,-38.8879 433,-22 430.111,-21.5559 427.145,-21.0713 424.157,-20.561"/>
<polygon fill="midnightblue" stroke="midnightblue" points="753.061,-64.2692 763.354,-61.7588 753.742,-57.3024 753.061,-64.2692"/>
</g>
<!-- Node5 -->
<g id="node9" class="node"><title>Node5</title>
<a xlink:href="BannerWindow_8cpp.htm" target="_top" xlink:title="BannerWindow.cpp">
<polygon fill="white" stroke="black" points="442,-0.5 442,-21.5 550,-21.5 550,-0.5 442,-0.5"/>
<text text-anchor="middle" x="496" y="-8.5" font-family="Helvetica,sans-Serif" font-size="10.00">BannerWindow.cpp</text>
</a>
</g>
<!-- Node1&#45;&gt;Node5 -->
<g id="edge8" class="edge"><title>Node1&#45;&gt;Node5</title>
<path fill="none" stroke="midnightblue" d="M767.607,-56.8178C710.516,-47.4269 629.749,-34.0512 559,-22 556.154,-21.5153 553.237,-21.0155 550.291,-20.5088"/>
<polygon fill="midnightblue" stroke="midnightblue" points="767.192,-60.2965 777.628,-58.4651 768.328,-53.3892 767.192,-60.2965"/>
</g>
<!-- Node6 -->
<g id="node11" class="node"><title>Node6</title>
<a xlink:href="DashboardWindowContainer_8cpp.htm" target="_top" xlink:title="DashboardWindowContainer.cpp">
<polygon fill="white" stroke="black" points="568,-0.5 568,-21.5 740,-21.5 740,-0.5 568,-0.5"/>
<text text-anchor="middle" x="654" y="-8.5" font-family="Helvetica,sans-Serif" font-size="10.00">DashboardWindowContainer.cpp</text>
</a>
</g>
<!-- Node1&#45;&gt;Node6 -->
<g id="edge10" class="edge"><title>Node1&#45;&gt;Node6</title>
<path fill="none" stroke="midnightblue" d="M798.392,-55.5464C764.809,-45.1857 719.044,-31.0668 688.109,-21.5231"/>
<polygon fill="midnightblue" stroke="midnightblue" points="797.367,-58.893 807.955,-58.4966 799.431,-52.2041 797.367,-58.893"/>
</g>
<!-- Node7 -->
<g id="node13" class="node"><title>Node7</title>
<a xlink:href="DashboardWindowManager_8cpp.htm" target="_top" xlink:title="DashboardWindowManager.cpp">
<polygon fill="white" stroke="black" points="758,-0.5 758,-21.5 926,-21.5 926,-0.5 758,-0.5"/>
<text text-anchor="middle" x="842" y="-8.5" font-family="Helvetica,sans-Serif" font-size="10.00">DashboardWindowManager.cpp</text>
</a>
</g>
<!-- Node1&#45;&gt;Node7 -->
<g id="edge12" class="edge"><title>Node1&#45;&gt;Node7</title>
<path fill="none" stroke="midnightblue" d="M842,-48.1906C842,-39.1684 842,-28.9941 842,-21.5707"/>
<polygon fill="midnightblue" stroke="midnightblue" points="838.5,-48.3619 842,-58.3619 845.5,-48.3619 838.5,-48.3619"/>
</g>
<!-- Node8 -->
<g id="node15" class="node"><title>Node8</title>
<a xlink:href="DashboardWindowManagerStates_8cpp.htm" target="_top" xlink:title="DashboardWindowManagerStates.cpp">
<polygon fill="white" stroke="black" points="944,-0.5 944,-21.5 1142,-21.5 1142,-0.5 944,-0.5"/>
<text text-anchor="middle" x="1043" y="-8.5" font-family="Helvetica,sans-Serif" font-size="10.00">DashboardWindowManagerStates.cpp</text>
</a>
</g>
<!-- Node1&#45;&gt;Node8 -->
<g id="edge14" class="edge"><title>Node1&#45;&gt;Node8</title>
<path fill="none" stroke="midnightblue" d="M888.162,-55.6795C924.108,-45.307 973.316,-31.1078 1006.53,-21.5231"/>
<polygon fill="midnightblue" stroke="midnightblue" points="887.037,-52.3613 878.4,-58.4966 888.978,-59.0869 887.037,-52.3613"/>
</g>
<!-- Node9 -->
<g id="node17" class="node"><title>Node9</title>
<a xlink:href="NativeAlertManager_8cpp.htm" target="_top" xlink:title="NativeAlertManager.cpp">
<polygon fill="white" stroke="black" points="1159.5,-0.5 1159.5,-21.5 1290.5,-21.5 1290.5,-0.5 1159.5,-0.5"/>
<text text-anchor="middle" x="1225" y="-8.5" font-family="Helvetica,sans-Serif" font-size="10.00">NativeAlertManager.cpp</text>
</a>
</g>
<!-- Node1&#45;&gt;Node9 -->
<g id="edge16" class="edge"><title>Node1&#45;&gt;Node9</title>
<path fill="none" stroke="midnightblue" d="M921.513,-56.9589C991.923,-46.2962 1093.47,-30.9178 1159.36,-20.9409"/>
<polygon fill="midnightblue" stroke="midnightblue" points="920.722,-53.5387 911.358,-58.4966 921.77,-60.4598 920.722,-53.5387"/>
</g>
<!-- Node10 -->
<g id="node19" class="node"><title>Node10</title>
<a xlink:href="StatusBar_8cpp.htm" target="_top" xlink:title="StatusBar.cpp">
<polygon fill="white" stroke="black" points="1308,-0.5 1308,-21.5 1390,-21.5 1390,-0.5 1308,-0.5"/>
<text text-anchor="middle" x="1349" y="-8.5" font-family="Helvetica,sans-Serif" font-size="10.00">StatusBar.cpp</text>
</a>
</g>
<!-- Node1&#45;&gt;Node10 -->
<g id="edge18" class="edge"><title>Node1&#45;&gt;Node10</title>
<path fill="none" stroke="midnightblue" d="M930.945,-62.8722C1023.33,-55.8022 1171.87,-42.4538 1299,-22 1301.9,-21.5341 1304.88,-21.0055 1307.87,-20.4382"/>
<polygon fill="midnightblue" stroke="midnightblue" points="930.504,-59.3955 920.797,-63.6409 931.033,-66.3755 930.504,-59.3955"/>
</g>
<!-- Node11 -->
<g id="node21" class="node"><title>Node11</title>
<a xlink:href="StatusBarNotificationArea_8cpp.htm" target="_top" xlink:title="StatusBarNotificationArea.cpp">
<polygon fill="white" stroke="black" points="1407.5,-0.5 1407.5,-21.5 1564.5,-21.5 1564.5,-0.5 1407.5,-0.5"/>
<text text-anchor="middle" x="1486" y="-8.5" font-family="Helvetica,sans-Serif" font-size="10.00">StatusBarNotificationArea.cpp</text>
</a>
</g>
<!-- Node1&#45;&gt;Node11 -->
<g id="edge20" class="edge"><title>Node1&#45;&gt;Node11</title>
<path fill="none" stroke="midnightblue" d="M930.557,-62.6696C1040.53,-54.5453 1233.82,-39.4043 1399,-22 1401.73,-21.7129 1404.5,-21.4117 1407.3,-21.0999"/>
<polygon fill="midnightblue" stroke="midnightblue" points="930.22,-59.1848 920.504,-63.4098 930.734,-66.1659 930.22,-59.1848"/>
</g>
<!-- Node12 -->
<g id="node23" class="node"><title>Node12</title>
<a xlink:href="WindowServerLuna_8cpp.htm" target="_top" xlink:title="WindowServerLuna.cpp">
<polygon fill="white" stroke="black" points="1582,-0.5 1582,-21.5 1710,-21.5 1710,-0.5 1582,-0.5"/>
<text text-anchor="middle" x="1646" y="-8.5" font-family="Helvetica,sans-Serif" font-size="10.00">WindowServerLuna.cpp</text>
</a>
</g>
<!-- Node1&#45;&gt;Node12 -->
<g id="edge22" class="edge"><title>Node1&#45;&gt;Node12</title>
<path fill="none" stroke="midnightblue" d="M930.701,-65.7411C1068.45,-60.1293 1342.01,-46.7834 1573,-22 1575.93,-21.6855 1578.92,-21.3388 1581.95,-20.9681"/>
<polygon fill="midnightblue" stroke="midnightblue" points="930.468,-62.2476 920.617,-66.148 930.75,-69.2419 930.468,-62.2476"/>
</g>
</g>
</svg>
