<?xml version="1.0" encoding="UTF-8" standalone="no"?>
<!DOCTYPE svg PUBLIC "-//W3C//DTD SVG 1.1//EN"
 "http://www.w3.org/Graphics/SVG/1.1/DTD/svg11.dtd">
<!-- Generated by graphviz version 2.26.3 (20100126.1600)
 -->
<!-- Title: debugglobal.cpp Pages: 1 -->
<svg width="724pt" height="146pt"
 viewBox="0.00 0.00 724.00 146.00" xmlns="http://www.w3.org/2000/svg" xmlns:xlink="http://www.w3.org/1999/xlink">
<g id="graph1" class="graph" transform="scale(1 1) rotate(0) translate(4 142)">
<title>debugglobal.cpp</title>
<polygon fill="white" stroke="white" points="-4,5 -4,-142 721,-142 721,5 -4,5"/>
<!-- Node1 -->
<g id="node1" class="node"><title>Node1</title>
<polygon fill="#bfbfbf" stroke="black" points="453,-116.5 453,-137.5 545,-137.5 545,-116.5 453,-116.5"/>
<text text-anchor="middle" x="499" y="-124.5" font-family="Helvetica,sans-Serif" font-size="10.00">debugglobal.cpp</text>
</g>
<!-- Node2 -->
<g id="node3" class="node"><title>Node2</title>
<a xlink:href="debugglobal_8h.htm" target="_top" xlink:title="debugglobal.h">
<polygon fill="white" stroke="black" points="222.5,-58.5 222.5,-79.5 303.5,-79.5 303.5,-58.5 222.5,-58.5"/>
<text text-anchor="middle" x="263" y="-66.5" font-family="Helvetica,sans-Serif" font-size="10.00">debugglobal.h</text>
</a>
</g>
<!-- Node1&#45;&gt;Node2 -->
<g id="edge2" class="edge"><title>Node1&#45;&gt;Node2</title>
<path fill="none" stroke="midnightblue" d="M456.262,-116.497C416.174,-106.644 356.194,-91.9037 313.704,-81.4611"/>
<polygon fill="midnightblue" stroke="midnightblue" points="314.387,-78.025 303.841,-79.0371 312.716,-84.8227 314.387,-78.025"/>
</g>
<!-- Node8 -->
<g id="node15" class="node"><title>Node8</title>
<polygon fill="white" stroke="#bfbfbf" points="401.5,-0.5 401.5,-21.5 482.5,-21.5 482.5,-0.5 401.5,-0.5"/>
<text text-anchor="middle" x="442" y="-8.5" font-family="Helvetica,sans-Serif" font-size="10.00">QTouchEvent</text>
</g>
<!-- Node1&#45;&gt;Node8 -->
<g id="edge26" class="edge"><title>Node1&#45;&gt;Node8</title>
<path fill="none" stroke="midnightblue" d="M467.862,-116.334C451.371,-108.911 432.592,-97.2098 423,-80 414.448,-64.6564 421.136,-45.2163 428.84,-30.8838"/>
<polygon fill="midnightblue" stroke="midnightblue" points="432.081,-32.2791 434.161,-21.8903 426.057,-28.7147 432.081,-32.2791"/>
</g>
<!-- Node10 -->
<g id="node19" class="node"><title>Node10</title>
<polygon fill="white" stroke="#bfbfbf" points="432,-58.5 432,-79.5 490,-79.5 490,-58.5 432,-58.5"/>
<text text-anchor="middle" x="461" y="-66.5" font-family="Helvetica,sans-Serif" font-size="10.00">QtGlobal</text>
</g>
<!-- Node1&#45;&gt;Node10 -->
<g id="edge18" class="edge"><title>Node1&#45;&gt;Node10</title>
<path fill="none" stroke="midnightblue" d="M492.03,-116.362C486.834,-108.431 479.599,-97.3885 473.422,-87.9606"/>
<polygon fill="midnightblue" stroke="midnightblue" points="476.334,-86.0172 467.926,-79.5707 470.478,-89.8534 476.334,-86.0172"/>
</g>
<!-- Node11 -->
<g id="node21" class="node"><title>Node11</title>
<polygon fill="white" stroke="#bfbfbf" points="507.5,-58.5 507.5,-79.5 566.5,-79.5 566.5,-58.5 507.5,-58.5"/>
<text text-anchor="middle" x="537" y="-66.5" font-family="Helvetica,sans-Serif" font-size="10.00">QPainter</text>
</g>
<!-- Node1&#45;&gt;Node11 -->
<g id="edge20" class="edge"><title>Node1&#45;&gt;Node11</title>
<path fill="none" stroke="midnightblue" d="M505.97,-116.362C511.166,-108.431 518.401,-97.3885 524.578,-87.9606"/>
<polygon fill="midnightblue" stroke="midnightblue" points="527.522,-89.8534 530.074,-79.5707 521.666,-86.0172 527.522,-89.8534"/>
</g>
<!-- Node12 -->
<g id="node23" class="node"><title>Node12</title>
<polygon fill="white" stroke="#bfbfbf" points="584,-58.5 584,-79.5 658,-79.5 658,-58.5 584,-58.5"/>
<text text-anchor="middle" x="621" y="-66.5" font-family="Helvetica,sans-Serif" font-size="10.00">QTransform</text>
</g>
<!-- Node1&#45;&gt;Node12 -->
<g id="edge22" class="edge"><title>Node1&#45;&gt;Node12</title>
<path fill="none" stroke="midnightblue" d="M521.093,-116.497C540.234,-107.397 568.146,-94.1273 589.605,-83.9253"/>
<polygon fill="midnightblue" stroke="midnightblue" points="591.13,-87.0758 598.659,-79.6212 588.125,-80.7539 591.13,-87.0758"/>
</g>
<!-- Node13 -->
<g id="node25" class="node"><title>Node13</title>
<polygon fill="white" stroke="#bfbfbf" points="675.5,-58.5 675.5,-79.5 716.5,-79.5 716.5,-58.5 675.5,-58.5"/>
<text text-anchor="middle" x="696" y="-66.5" font-family="Helvetica,sans-Serif" font-size="10.00">QFile</text>
</g>
<!-- Node1&#45;&gt;Node13 -->
<g id="edge24" class="edge"><title>Node1&#45;&gt;Node13</title>
<path fill="none" stroke="midnightblue" d="M540.737,-116.439C572.785,-108.079 618.291,-95.673 665.933,-80.181"/>
<polygon fill="midnightblue" stroke="midnightblue" points="667.079,-83.4886 675.486,-77.0417 664.893,-76.8385 667.079,-83.4886"/>
</g>
<!-- Node3 -->
<g id="node5" class="node"><title>Node3</title>
<polygon fill="white" stroke="#bfbfbf" points="-0.5,-0.5 -0.5,-21.5 46.5,-21.5 46.5,-0.5 -0.5,-0.5"/>
<text text-anchor="middle" x="23" y="-8.5" font-family="Helvetica,sans-Serif" font-size="10.00">QRect</text>
</g>
<!-- Node2&#45;&gt;Node3 -->
<g id="edge4" class="edge"><title>Node2&#45;&gt;Node3</title>
<path fill="none" stroke="midnightblue" d="M222.408,-61.1911C182.302,-53.1739 119.069,-39.7264 56.3297,-22.192"/>
<polygon fill="midnightblue" stroke="midnightblue" points="57.2499,-18.815 46.6747,-19.4595 55.3436,-25.5504 57.2499,-18.815"/>
</g>
<!-- Node4 -->
<g id="node7" class="node"><title>Node4</title>
<polygon fill="white" stroke="#bfbfbf" points="63.5,-0.5 63.5,-21.5 116.5,-21.5 116.5,-0.5 63.5,-0.5"/>
<text text-anchor="middle" x="90" y="-8.5" font-family="Helvetica,sans-Serif" font-size="10.00">QRectF</text>
</g>
<!-- Node2&#45;&gt;Node4 -->
<g id="edge6" class="edge"><title>Node2&#45;&gt;Node4</title>
<path fill="none" stroke="midnightblue" d="M231.671,-58.4966C201.974,-48.5403 157.386,-33.5918 126.186,-23.1316"/>
<polygon fill="midnightblue" stroke="midnightblue" points="127.156,-19.7655 116.562,-19.9052 124.931,-26.4025 127.156,-19.7655"/>
</g>
<!-- Node5 -->
<g id="node9" class="node"><title>Node5</title>
<polygon fill="white" stroke="#bfbfbf" points="133.5,-0.5 133.5,-21.5 182.5,-21.5 182.5,-0.5 133.5,-0.5"/>
<text text-anchor="middle" x="158" y="-8.5" font-family="Helvetica,sans-Serif" font-size="10.00">QPoint</text>
</g>
<!-- Node2&#45;&gt;Node5 -->
<g id="edge8" class="edge"><title>Node2&#45;&gt;Node5</title>
<path fill="none" stroke="midnightblue" d="M243.741,-58.3619C227.534,-49.4094 204.147,-36.4908 185.891,-26.4064"/>
<polygon fill="midnightblue" stroke="midnightblue" points="187.582,-23.3422 177.137,-21.5707 184.198,-29.4696 187.582,-23.3422"/>
</g>
<!-- Node6 -->
<g id="node11" class="node"><title>Node6</title>
<polygon fill="white" stroke="#bfbfbf" points="199.5,-0.5 199.5,-21.5 254.5,-21.5 254.5,-0.5 199.5,-0.5"/>
<text text-anchor="middle" x="227" y="-8.5" font-family="Helvetica,sans-Serif" font-size="10.00">QPointF</text>
</g>
<!-- Node2&#45;&gt;Node6 -->
<g id="edge10" class="edge"><title>Node2&#45;&gt;Node6</title>
<path fill="none" stroke="midnightblue" d="M256.397,-58.3619C251.525,-50.5131 244.762,-39.6159 238.95,-30.2527"/>
<polygon fill="midnightblue" stroke="midnightblue" points="241.809,-28.2213 233.561,-21.5707 235.861,-31.9129 241.809,-28.2213"/>
</g>
<!-- Node7 -->
<g id="node13" class="node"><title>Node7</title>
<polygon fill="white" stroke="#bfbfbf" points="271.5,-0.5 271.5,-21.5 326.5,-21.5 326.5,-0.5 271.5,-0.5"/>
<text text-anchor="middle" x="299" y="-8.5" font-family="Helvetica,sans-Serif" font-size="10.00">QDebug</text>
</g>
<!-- Node2&#45;&gt;Node7 -->
<g id="edge12" class="edge"><title>Node2&#45;&gt;Node7</title>
<path fill="none" stroke="midnightblue" d="M269.603,-58.3619C274.475,-50.5131 281.238,-39.6159 287.05,-30.2527"/>
<polygon fill="midnightblue" stroke="midnightblue" points="290.139,-31.9129 292.439,-21.5707 284.191,-28.2213 290.139,-31.9129"/>
</g>
<!-- Node2&#45;&gt;Node8 -->
<g id="edge14" class="edge"><title>Node2&#45;&gt;Node8</title>
<path fill="none" stroke="midnightblue" d="M295.416,-58.4966C324.724,-49.0001 368.048,-34.9619 400.001,-24.6087"/>
<polygon fill="midnightblue" stroke="midnightblue" points="401.089,-27.9352 409.524,-21.5231 398.932,-21.276 401.089,-27.9352"/>
</g>
<!-- Node9 -->
<g id="node17" class="node"><title>Node9</title>
<polygon fill="white" stroke="#bfbfbf" points="343.5,-0.5 343.5,-21.5 384.5,-21.5 384.5,-0.5 343.5,-0.5"/>
<text text-anchor="middle" x="364" y="-8.5" font-family="Helvetica,sans-Serif" font-size="10.00">QList</text>
</g>
<!-- Node2&#45;&gt;Node9 -->
<g id="edge16" class="edge"><title>Node2&#45;&gt;Node9</title>
<path fill="none" stroke="midnightblue" d="M281.525,-58.3619C296.901,-49.532 318.996,-36.844 336.447,-26.8224"/>
<polygon fill="midnightblue" stroke="midnightblue" points="338.664,-29.5857 345.592,-21.5707 335.178,-23.5154 338.664,-29.5857"/>
</g>
</g>
</svg>
