<?xml version="1.0" encoding="UTF-8" standalone="no"?>
<!DOCTYPE svg PUBLIC "-//W3C//DTD SVG 1.1//EN"
 "http://www.w3.org/Graphics/SVG/1.1/DTD/svg11.dtd">
<!-- Generated by graphviz version 2.26.3 (20100126.1600)
 -->
<!-- Title: debugglobal.h Pages: 1 -->
<svg width="490pt" height="88pt"
 viewBox="0.00 0.00 490.00 88.00" xmlns="http://www.w3.org/2000/svg" xmlns:xlink="http://www.w3.org/1999/xlink">
<g id="graph1" class="graph" transform="scale(1 1) rotate(0) translate(4 84)">
<title>debugglobal.h</title>
<polygon fill="white" stroke="white" points="-4,5 -4,-84 487,-84 487,5 -4,5"/>
<!-- Node1 -->
<g id="node1" class="node"><title>Node1</title>
<polygon fill="#bfbfbf" stroke="black" points="186.5,-58.5 186.5,-79.5 267.5,-79.5 267.5,-58.5 186.5,-58.5"/>
<text text-anchor="middle" x="227" y="-66.5" font-family="Helvetica,sans-Serif" font-size="10.00">debugglobal.h</text>
</g>
<!-- Node2 -->
<g id="node3" class="node"><title>Node2</title>
<polygon fill="white" stroke="#bfbfbf" points="-0.5,-0.5 -0.5,-21.5 46.5,-21.5 46.5,-0.5 -0.5,-0.5"/>
<text text-anchor="middle" x="23" y="-8.5" font-family="Helvetica,sans-Serif" font-size="10.00">QRect</text>
</g>
<!-- Node1&#45;&gt;Node2 -->
<g id="edge2" class="edge"><title>Node1&#45;&gt;Node2</title>
<path fill="none" stroke="midnightblue" d="M186.475,-58.713C153.604,-50.1931 105.883,-37.4284 56.3137,-22.2952"/>
<polygon fill="midnightblue" stroke="midnightblue" points="57.2971,-18.9359 46.71,-19.3403 55.2384,-25.6264 57.2971,-18.9359"/>
</g>
<!-- Node3 -->
<g id="node5" class="node"><title>Node3</title>
<polygon fill="white" stroke="#bfbfbf" points="63.5,-0.5 63.5,-21.5 116.5,-21.5 116.5,-0.5 63.5,-0.5"/>
<text text-anchor="middle" x="90" y="-8.5" font-family="Helvetica,sans-Serif" font-size="10.00">QRectF</text>
</g>
<!-- Node1&#45;&gt;Node3 -->
<g id="edge4" class="edge"><title>Node1&#45;&gt;Node3</title>
<path fill="none" stroke="midnightblue" d="M202.19,-58.4966C180.504,-49.3154 148.789,-35.8889 124.608,-25.6516"/>
<polygon fill="midnightblue" stroke="midnightblue" points="125.661,-22.2968 115.088,-21.6212 122.932,-28.7429 125.661,-22.2968"/>
</g>
<!-- Node4 -->
<g id="node7" class="node"><title>Node4</title>
<polygon fill="white" stroke="#bfbfbf" points="133.5,-0.5 133.5,-21.5 182.5,-21.5 182.5,-0.5 133.5,-0.5"/>
<text text-anchor="middle" x="158" y="-8.5" font-family="Helvetica,sans-Serif" font-size="10.00">QPoint</text>
</g>
<!-- Node1&#45;&gt;Node4 -->
<g id="edge6" class="edge"><title>Node1&#45;&gt;Node4</title>
<path fill="none" stroke="midnightblue" d="M214.344,-58.3619C204.326,-49.9408 190.133,-38.0105 178.499,-28.2308"/>
<polygon fill="midnightblue" stroke="midnightblue" points="180.482,-25.326 170.575,-21.5707 175.978,-30.6844 180.482,-25.326"/>
</g>
<!-- Node5 -->
<g id="node9" class="node"><title>Node5</title>
<polygon fill="white" stroke="#bfbfbf" points="199.5,-0.5 199.5,-21.5 254.5,-21.5 254.5,-0.5 199.5,-0.5"/>
<text text-anchor="middle" x="227" y="-8.5" font-family="Helvetica,sans-Serif" font-size="10.00">QPointF</text>
</g>
<!-- Node1&#45;&gt;Node5 -->
<g id="edge8" class="edge"><title>Node1&#45;&gt;Node5</title>
<path fill="none" stroke="midnightblue" d="M227,-58.3619C227,-50.9219 227,-40.7427 227,-31.7276"/>
<polygon fill="midnightblue" stroke="midnightblue" points="230.5,-31.5706 227,-21.5707 223.5,-31.5707 230.5,-31.5706"/>
</g>
<!-- Node6 -->
<g id="node11" class="node"><title>Node6</title>
<polygon fill="white" stroke="#bfbfbf" points="271.5,-0.5 271.5,-21.5 326.5,-21.5 326.5,-0.5 271.5,-0.5"/>
<text text-anchor="middle" x="299" y="-8.5" font-family="Helvetica,sans-Serif" font-size="10.00">QDebug</text>
</g>
<!-- Node1&#45;&gt;Node6 -->
<g id="edge10" class="edge"><title>Node1&#45;&gt;Node6</title>
<path fill="none" stroke="midnightblue" d="M240.206,-58.3619C250.761,-49.859 265.758,-37.7785 277.963,-27.9466"/>
<polygon fill="midnightblue" stroke="midnightblue" points="280.286,-30.5696 285.878,-21.5707 275.895,-25.1183 280.286,-30.5696"/>
</g>
<!-- Node7 -->
<g id="node13" class="node"><title>Node7</title>
<polygon fill="white" stroke="#bfbfbf" points="343.5,-0.5 343.5,-21.5 424.5,-21.5 424.5,-0.5 343.5,-0.5"/>
<text text-anchor="middle" x="384" y="-8.5" font-family="Helvetica,sans-Serif" font-size="10.00">QTouchEvent</text>
</g>
<!-- Node1&#45;&gt;Node7 -->
<g id="edge12" class="edge"><title>Node1&#45;&gt;Node7</title>
<path fill="none" stroke="midnightblue" d="M255.432,-58.4966C280.805,-49.1229 318.157,-35.3242 346.07,-25.0122"/>
<polygon fill="midnightblue" stroke="midnightblue" points="347.348,-28.2716 355.515,-21.5231 344.922,-21.7054 347.348,-28.2716"/>
</g>
<!-- Node8 -->
<g id="node15" class="node"><title>Node8</title>
<polygon fill="white" stroke="#bfbfbf" points="441.5,-0.5 441.5,-21.5 482.5,-21.5 482.5,-0.5 441.5,-0.5"/>
<text text-anchor="middle" x="462" y="-8.5" font-family="Helvetica,sans-Serif" font-size="10.00">QList</text>
</g>
<!-- Node1&#45;&gt;Node8 -->
<g id="edge14" class="edge"><title>Node1&#45;&gt;Node8</title>
<path fill="none" stroke="midnightblue" d="M267.694,-61.4437C307.436,-53.683 369.735,-40.5074 431.333,-22.2532"/>
<polygon fill="midnightblue" stroke="midnightblue" points="432.643,-25.5141 441.21,-19.28 430.625,-18.8112 432.643,-25.5141"/>
</g>
</g>
</svg>
