<?xml version="1.0" encoding="UTF-8" standalone="no"?>
<!DOCTYPE svg PUBLIC "-//W3C//DTD SVG 1.1//EN"
 "http://www.w3.org/Graphics/SVG/1.1/DTD/svg11.dtd">
<!-- Generated by graphviz version 2.26.3 (20100126.1600)
 -->
<!-- Title: demogoggles4.cpp Pages: 1 -->
<svg width="968pt" height="262pt"
 viewBox="0.00 0.00 968.00 262.00" xmlns="http://www.w3.org/2000/svg" xmlns:xlink="http://www.w3.org/1999/xlink">
<g id="graph1" class="graph" transform="scale(1 1) rotate(0) translate(4 258)">
<title>demogoggles4.cpp</title>
<polygon fill="white" stroke="white" points="-4,5 -4,-258 965,-258 965,5 -4,5"/>
<!-- Node1 -->
<g id="node1" class="node"><title>Node1</title>
<polygon fill="#bfbfbf" stroke="black" points="324,-232.5 324,-253.5 430,-253.5 430,-232.5 324,-232.5"/>
<text text-anchor="middle" x="377" y="-240.5" font-family="Helvetica,sans-Serif" font-size="10.00">demogoggles4.cpp</text>
</g>
<!-- Node2 -->
<g id="node3" class="node"><title>Node2</title>
<a xlink:href="demogoggles4_8h.htm" target="_top" xlink:title="demogoggles4.h">
<polygon fill="white" stroke="black" points="10.5,-174.5 10.5,-195.5 105.5,-195.5 105.5,-174.5 10.5,-174.5"/>
<text text-anchor="middle" x="58" y="-182.5" font-family="Helvetica,sans-Serif" font-size="10.00">demogoggles4.h</text>
</a>
</g>
<!-- Node1&#45;&gt;Node2 -->
<g id="edge2" class="edge"><title>Node1&#45;&gt;Node2</title>
<path fill="none" stroke="midnightblue" d="M323.966,-233.357C266.437,-222.898 174.902,-206.255 115.634,-195.479"/>
<polygon fill="midnightblue" stroke="midnightblue" points="116.149,-192.015 105.684,-193.67 114.897,-198.902 116.149,-192.015"/>
</g>
<!-- Node8 -->
<g id="node15" class="node"><title>Node8</title>
<polygon fill="white" stroke="#bfbfbf" points="75.5,-0.5 75.5,-21.5 128.5,-21.5 128.5,-0.5 75.5,-0.5"/>
<text text-anchor="middle" x="102" y="-8.5" font-family="Helvetica,sans-Serif" font-size="10.00">QString</text>
</g>
<!-- Node1&#45;&gt;Node8 -->
<g id="edge58" class="edge"><title>Node1&#45;&gt;Node8</title>
<path fill="none" stroke="midnightblue" d="M336.649,-232.404C289.166,-218.098 210.533,-188.412 161,-138 131.048,-107.517 114.411,-59.0179 106.926,-31.6161"/>
<polygon fill="midnightblue" stroke="midnightblue" points="110.228,-30.4035 104.342,-21.5938 103.45,-32.151 110.228,-30.4035"/>
</g>
<!-- Node10 -->
<g id="node19" class="node"><title>Node10</title>
<polygon fill="white" stroke="#bfbfbf" points="391.5,-0.5 391.5,-21.5 444.5,-21.5 444.5,-0.5 391.5,-0.5"/>
<text text-anchor="middle" x="418" y="-8.5" font-family="Helvetica,sans-Serif" font-size="10.00">QRectF</text>
</g>
<!-- Node1&#45;&gt;Node10 -->
<g id="edge60" class="edge"><title>Node1&#45;&gt;Node10</title>
<path fill="none" stroke="midnightblue" d="M368.201,-232.456C351.148,-210.684 316.575,-159.175 332,-116 344.877,-79.9557 376.038,-47.3783 397.095,-28.3803"/>
<polygon fill="midnightblue" stroke="midnightblue" points="399.667,-30.7799 404.88,-21.5562 395.053,-25.5159 399.667,-30.7799"/>
</g>
<!-- Node13 -->
<g id="node28" class="node"><title>Node13</title>
<a xlink:href="pixmapobject_8h.htm" target="_top" xlink:title="pixmapobject.h">
<polygon fill="white" stroke="black" points="399,-174.5 399,-195.5 485,-195.5 485,-174.5 399,-174.5"/>
<text text-anchor="middle" x="442" y="-182.5" font-family="Helvetica,sans-Serif" font-size="10.00">pixmapobject.h</text>
</a>
</g>
<!-- Node1&#45;&gt;Node13 -->
<g id="edge30" class="edge"><title>Node1&#45;&gt;Node13</title>
<path fill="none" stroke="midnightblue" d="M388.922,-232.362C398.359,-223.941 411.73,-212.011 422.69,-202.231"/>
<polygon fill="midnightblue" stroke="midnightblue" points="425.022,-204.84 430.154,-195.571 420.362,-199.617 425.022,-204.84"/>
</g>
<!-- Node17 -->
<g id="node37" class="node"><title>Node17</title>
<a xlink:href="dimensionsglobal_8h.htm" target="_top" xlink:title="dimensionsglobal.h">
<polygon fill="white" stroke="black" points="589,-58.5 589,-79.5 695,-79.5 695,-58.5 589,-58.5"/>
<text text-anchor="middle" x="642" y="-66.5" font-family="Helvetica,sans-Serif" font-size="10.00">dimensionsglobal.h</text>
</a>
</g>
<!-- Node1&#45;&gt;Node17 -->
<g id="edge40" class="edge"><title>Node1&#45;&gt;Node17</title>
<path fill="none" stroke="midnightblue" d="M411.679,-232.416C435.732,-224.289 467.99,-211.789 494,-196 546.458,-164.156 598.823,-113.741 624.931,-87.0154"/>
<polygon fill="midnightblue" stroke="midnightblue" points="627.733,-89.153 632.162,-79.5284 622.698,-84.2902 627.733,-89.153"/>
</g>
<!-- Node23 -->
<g id="node54" class="node"><title>Node23</title>
<polygon fill="white" stroke="#bfbfbf" points="626.5,-174.5 626.5,-195.5 685.5,-195.5 685.5,-174.5 626.5,-174.5"/>
<text text-anchor="middle" x="656" y="-182.5" font-family="Helvetica,sans-Serif" font-size="10.00">QPainter</text>
</g>
<!-- Node1&#45;&gt;Node23 -->
<g id="edge62" class="edge"><title>Node1&#45;&gt;Node23</title>
<path fill="none" stroke="midnightblue" d="M430.131,-233.266C478.076,-224.28 550.468,-210.214 613,-196 614.09,-195.752 615.194,-195.497 616.307,-195.237"/>
<polygon fill="midnightblue" stroke="midnightblue" points="617.546,-198.538 626.443,-192.784 615.9,-191.734 617.546,-198.538"/>
</g>
<!-- Node3 -->
<g id="node5" class="node"><title>Node3</title>
<a xlink:href="thingpaintable_8h.htm" target="_top" xlink:title="thingpaintable.h">
<polygon fill="white" stroke="black" points="169.5,-116.5 169.5,-137.5 260.5,-137.5 260.5,-116.5 169.5,-116.5"/>
<text text-anchor="middle" x="215" y="-124.5" font-family="Helvetica,sans-Serif" font-size="10.00">thingpaintable.h</text>
</a>
</g>
<!-- Node2&#45;&gt;Node3 -->
<g id="edge4" class="edge"><title>Node2&#45;&gt;Node3</title>
<path fill="none" stroke="midnightblue" d="M86.4315,-174.497C111.805,-165.123 149.157,-151.324 177.07,-141.012"/>
<polygon fill="midnightblue" stroke="midnightblue" points="178.348,-144.272 186.515,-137.523 175.922,-137.705 178.348,-144.272"/>
</g>
<!-- Node7 -->
<g id="node13" class="node"><title>Node7</title>
<polygon fill="white" stroke="#bfbfbf" points="-0.5,-0.5 -0.5,-21.5 58.5,-21.5 58.5,-0.5 -0.5,-0.5"/>
<text text-anchor="middle" x="29" y="-8.5" font-family="Helvetica,sans-Serif" font-size="10.00">QPointer</text>
</g>
<!-- Node2&#45;&gt;Node7 -->
<g id="edge28" class="edge"><title>Node2&#45;&gt;Node7</title>
<path fill="none" stroke="midnightblue" d="M56.2296,-174.377C51.5488,-146.293 38.7789,-69.6735 32.5338,-32.2027"/>
<polygon fill="midnightblue" stroke="midnightblue" points="35.9177,-31.2162 30.8213,-21.9277 29.013,-32.3671 35.9177,-31.2162"/>
</g>
<!-- Node4 -->
<g id="node7" class="node"><title>Node4</title>
<a xlink:href="thing_8h.htm" target="_top" xlink:title="thing.h">
<polygon fill="white" stroke="black" points="199,-58.5 199,-79.5 247,-79.5 247,-58.5 199,-58.5"/>
<text text-anchor="middle" x="223" y="-66.5" font-family="Helvetica,sans-Serif" font-size="10.00">thing.h</text>
</a>
</g>
<!-- Node3&#45;&gt;Node4 -->
<g id="edge6" class="edge"><title>Node3&#45;&gt;Node4</title>
<path fill="none" stroke="midnightblue" d="M216.467,-116.362C217.494,-108.922 218.898,-98.7427 220.141,-89.7276"/>
<polygon fill="midnightblue" stroke="midnightblue" points="223.643,-89.9551 221.542,-79.5707 216.708,-88.9986 223.643,-89.9551"/>
</g>
<!-- Node3&#45;&gt;Node8 -->
<g id="edge24" class="edge"><title>Node3&#45;&gt;Node8</title>
<path fill="none" stroke="midnightblue" d="M204.572,-116.295C185.147,-96.3545 143.242,-53.337 119.443,-28.9056"/>
<polygon fill="midnightblue" stroke="midnightblue" points="121.888,-26.4001 112.403,-21.6792 116.874,-31.2846 121.888,-26.4001"/>
</g>
<!-- Node3&#45;&gt;Node10 -->
<g id="edge26" class="edge"><title>Node3&#45;&gt;Node10</title>
<path fill="none" stroke="midnightblue" d="M225.579,-116.432C240.747,-101.741 270.048,-75.0379 299,-58 313.491,-49.4725 352.457,-34.5946 381.885,-23.8591"/>
<polygon fill="midnightblue" stroke="midnightblue" points="383.241,-27.0905 391.45,-20.3923 380.855,-20.5094 383.241,-27.0905"/>
</g>
<!-- Node5 -->
<g id="node9" class="node"><title>Node5</title>
<polygon fill="white" stroke="#bfbfbf" points="276,-0.5 276,-21.5 374,-21.5 374,-0.5 276,-0.5"/>
<text text-anchor="middle" x="325" y="-8.5" font-family="Helvetica,sans-Serif" font-size="10.00">QGraphicsObject</text>
</g>
<!-- Node4&#45;&gt;Node5 -->
<g id="edge8" class="edge"><title>Node4&#45;&gt;Node5</title>
<path fill="none" stroke="midnightblue" d="M241.708,-58.3619C257.381,-49.4502 279.964,-36.6087 297.663,-26.5447"/>
<polygon fill="midnightblue" stroke="midnightblue" points="299.447,-29.5562 306.41,-21.5707 295.987,-23.4712 299.447,-29.5562"/>
</g>
<!-- Node6 -->
<g id="node11" class="node"><title>Node6</title>
<polygon fill="white" stroke="#bfbfbf" points="530,-0.5 530,-21.5 576,-21.5 576,-0.5 530,-0.5"/>
<text text-anchor="middle" x="553" y="-8.5" font-family="Helvetica,sans-Serif" font-size="10.00">QUuid</text>
</g>
<!-- Node4&#45;&gt;Node6 -->
<g id="edge10" class="edge"><title>Node4&#45;&gt;Node6</title>
<path fill="none" stroke="midnightblue" d="M247.234,-66.6296C296.829,-61.4722 413.519,-47.7671 519.801,-21.9786"/>
<polygon fill="midnightblue" stroke="midnightblue" points="520.854,-25.3239 529.723,-19.5279 519.175,-18.5282 520.854,-25.3239"/>
</g>
<!-- Node4&#45;&gt;Node7 -->
<g id="edge12" class="edge"><title>Node4&#45;&gt;Node7</title>
<path fill="none" stroke="midnightblue" d="M198.822,-61.7715C166.118,-51.9942 107.389,-34.436 68.2998,-22.7494"/>
<polygon fill="midnightblue" stroke="midnightblue" points="69.1518,-19.3511 58.5683,-19.84 67.1467,-26.0578 69.1518,-19.3511"/>
</g>
<!-- Node4&#45;&gt;Node8 -->
<g id="edge14" class="edge"><title>Node4&#45;&gt;Node8</title>
<path fill="none" stroke="midnightblue" d="M201.088,-58.4966C182.189,-49.4378 154.669,-36.2462 133.424,-26.0628"/>
<polygon fill="midnightblue" stroke="midnightblue" points="134.689,-22.7876 124.158,-21.6212 131.663,-29.0999 134.689,-22.7876"/>
</g>
<!-- Node9 -->
<g id="node17" class="node"><title>Node9</title>
<polygon fill="white" stroke="#bfbfbf" points="145.5,-0.5 145.5,-21.5 186.5,-21.5 186.5,-0.5 145.5,-0.5"/>
<text text-anchor="middle" x="166" y="-8.5" font-family="Helvetica,sans-Serif" font-size="10.00">QList</text>
</g>
<!-- Node4&#45;&gt;Node9 -->
<g id="edge16" class="edge"><title>Node4&#45;&gt;Node9</title>
<path fill="none" stroke="midnightblue" d="M212.545,-58.3619C204.43,-50.1043 192.999,-38.4725 183.496,-28.8029"/>
<polygon fill="midnightblue" stroke="midnightblue" points="185.894,-26.2497 176.388,-21.5707 180.901,-31.1562 185.894,-26.2497"/>
</g>
<!-- Node4&#45;&gt;Node10 -->
<g id="edge18" class="edge"><title>Node4&#45;&gt;Node10</title>
<path fill="none" stroke="midnightblue" d="M247.182,-61.957C281.812,-51.8618 344.689,-33.4955 381.256,-22.4891"/>
<polygon fill="midnightblue" stroke="midnightblue" points="382.706,-25.707 391.263,-19.4599 380.678,-19.0072 382.706,-25.707"/>
</g>
<!-- Node11 -->
<g id="node21" class="node"><title>Node11</title>
<polygon fill="white" stroke="#bfbfbf" points="203.5,-0.5 203.5,-21.5 258.5,-21.5 258.5,-0.5 203.5,-0.5"/>
<text text-anchor="middle" x="231" y="-8.5" font-family="Helvetica,sans-Serif" font-size="10.00">QDebug</text>
</g>
<!-- Node4&#45;&gt;Node11 -->
<g id="edge20" class="edge"><title>Node4&#45;&gt;Node11</title>
<path fill="none" stroke="midnightblue" d="M224.467,-58.3619C225.494,-50.9219 226.898,-40.7427 228.141,-31.7276"/>
<polygon fill="midnightblue" stroke="midnightblue" points="231.643,-31.9551 229.542,-21.5707 224.708,-30.9986 231.643,-31.9551"/>
</g>
<!-- Node12 -->
<g id="node23" class="node"><title>Node12</title>
<polygon fill="white" stroke="#bfbfbf" points="462,-0.5 462,-21.5 512,-21.5 512,-0.5 462,-0.5"/>
<text text-anchor="middle" x="487" y="-8.5" font-family="Helvetica,sans-Serif" font-size="10.00">QHash</text>
</g>
<!-- Node4&#45;&gt;Node12 -->
<g id="edge22" class="edge"><title>Node4&#45;&gt;Node12</title>
<path fill="none" stroke="midnightblue" d="M247.042,-64.9969C287.475,-58.0708 371.777,-42.8002 452.072,-22.0428"/>
<polygon fill="midnightblue" stroke="midnightblue" points="453.054,-25.4038 461.841,-19.4844 451.281,-18.6321 453.054,-25.4038"/>
</g>
<!-- Node13&#45;&gt;Node6 -->
<g id="edge36" class="edge"><title>Node13&#45;&gt;Node6</title>
<path fill="none" stroke="midnightblue" d="M485.021,-175.458C505.657,-168.581 528.724,-157.04 542,-138 564.14,-106.249 561.162,-58.6025 557.053,-31.6011"/>
<polygon fill="midnightblue" stroke="midnightblue" points="560.497,-30.9743 555.353,-21.7118 553.598,-32.1602 560.497,-30.9743"/>
</g>
<!-- Node14 -->
<g id="node30" class="node"><title>Node14</title>
<polygon fill="white" stroke="#bfbfbf" points="340.5,-116.5 340.5,-137.5 395.5,-137.5 395.5,-116.5 340.5,-116.5"/>
<text text-anchor="middle" x="368" y="-124.5" font-family="Helvetica,sans-Serif" font-size="10.00">QObject</text>
</g>
<!-- Node13&#45;&gt;Node14 -->
<g id="edge32" class="edge"><title>Node13&#45;&gt;Node14</title>
<path fill="none" stroke="midnightblue" d="M428.427,-174.362C417.579,-165.859 402.166,-153.779 389.621,-143.947"/>
<polygon fill="midnightblue" stroke="midnightblue" points="391.516,-140.985 381.487,-137.571 387.198,-146.494 391.516,-140.985"/>
</g>
<!-- Node15 -->
<g id="node32" class="node"><title>Node15</title>
<polygon fill="white" stroke="#bfbfbf" points="412.5,-116.5 412.5,-137.5 471.5,-137.5 471.5,-116.5 412.5,-116.5"/>
<text text-anchor="middle" x="442" y="-124.5" font-family="Helvetica,sans-Serif" font-size="10.00">QPixmap</text>
</g>
<!-- Node13&#45;&gt;Node15 -->
<g id="edge34" class="edge"><title>Node13&#45;&gt;Node15</title>
<path fill="none" stroke="midnightblue" d="M442,-174.362C442,-166.922 442,-156.743 442,-147.728"/>
<polygon fill="midnightblue" stroke="midnightblue" points="445.5,-147.571 442,-137.571 438.5,-147.571 445.5,-147.571"/>
</g>
<!-- Node16 -->
<g id="node35" class="node"><title>Node16</title>
<polygon fill="white" stroke="#bfbfbf" points="488.5,-116.5 488.5,-137.5 533.5,-137.5 533.5,-116.5 488.5,-116.5"/>
<text text-anchor="middle" x="511" y="-124.5" font-family="Helvetica,sans-Serif" font-size="10.00">QSize</text>
</g>
<!-- Node13&#45;&gt;Node16 -->
<g id="edge38" class="edge"><title>Node13&#45;&gt;Node16</title>
<path fill="none" stroke="midnightblue" d="M454.656,-174.362C464.674,-165.941 478.867,-154.011 490.501,-144.231"/>
<polygon fill="midnightblue" stroke="midnightblue" points="493.022,-146.684 498.425,-137.571 488.518,-141.326 493.022,-146.684"/>
</g>
<!-- Node17&#45;&gt;Node6 -->
<g id="edge52" class="edge"><title>Node17&#45;&gt;Node6</title>
<path fill="none" stroke="midnightblue" d="M625.676,-58.3619C612.252,-49.6138 593.017,-37.0786 577.707,-27.1015"/>
<polygon fill="midnightblue" stroke="midnightblue" points="579.509,-24.0982 569.22,-21.5707 575.688,-29.9628 579.509,-24.0982"/>
</g>
<!-- Node17&#45;&gt;Node10 -->
<g id="edge46" class="edge"><title>Node17&#45;&gt;Node10</title>
<path fill="none" stroke="midnightblue" d="M596.351,-58.4699C560.119,-49.9269 507.98,-37.224 454.372,-22.2898"/>
<polygon fill="midnightblue" stroke="midnightblue" points="455.277,-18.9086 444.703,-19.576 453.385,-25.6481 455.277,-18.9086"/>
</g>
<!-- Node17&#45;&gt;Node12 -->
<g id="edge54" class="edge"><title>Node17&#45;&gt;Node12</title>
<path fill="none" stroke="midnightblue" d="M613.931,-58.4966C588.057,-48.815 549.569,-34.4128 521.761,-24.0074"/>
<polygon fill="midnightblue" stroke="midnightblue" points="522.635,-20.5975 512.043,-20.3708 520.182,-27.1535 522.635,-20.5975"/>
</g>
<!-- Node18 -->
<g id="node39" class="node"><title>Node18</title>
<polygon fill="white" stroke="#bfbfbf" points="763.5,-0.5 763.5,-21.5 822.5,-21.5 822.5,-0.5 763.5,-0.5"/>
<text text-anchor="middle" x="793" y="-8.5" font-family="Helvetica,sans-Serif" font-size="10.00">qglobal.h</text>
</g>
<!-- Node17&#45;&gt;Node18 -->
<g id="edge42" class="edge"><title>Node17&#45;&gt;Node18</title>
<path fill="none" stroke="midnightblue" d="M669.345,-58.4966C693.642,-49.1639 729.36,-35.4447 756.168,-25.1475"/>
<polygon fill="midnightblue" stroke="midnightblue" points="757.524,-28.376 765.604,-21.5231 755.014,-21.8415 757.524,-28.376"/>
</g>
<!-- Node19 -->
<g id="node41" class="node"><title>Node19</title>
<polygon fill="white" stroke="#bfbfbf" points="840,-0.5 840,-21.5 894,-21.5 894,-0.5 840,-0.5"/>
<text text-anchor="middle" x="867" y="-8.5" font-family="Helvetica,sans-Serif" font-size="10.00">qmath.h</text>
</g>
<!-- Node17&#45;&gt;Node19 -->
<g id="edge44" class="edge"><title>Node17&#45;&gt;Node19</title>
<path fill="none" stroke="midnightblue" d="M687.236,-58.4605C723.46,-49.861 775.781,-37.0842 830.113,-22.1546"/>
<polygon fill="midnightblue" stroke="midnightblue" points="831.213,-25.4818 839.918,-19.4426 829.347,-18.7351 831.213,-25.4818"/>
</g>
<!-- Node20 -->
<g id="node44" class="node"><title>Node20</title>
<polygon fill="white" stroke="#bfbfbf" points="911.5,-0.5 911.5,-21.5 960.5,-21.5 960.5,-0.5 911.5,-0.5"/>
<text text-anchor="middle" x="936" y="-8.5" font-family="Helvetica,sans-Serif" font-size="10.00">QPoint</text>
</g>
<!-- Node17&#45;&gt;Node20 -->
<g id="edge48" class="edge"><title>Node17&#45;&gt;Node20</title>
<path fill="none" stroke="midnightblue" d="M695.218,-61.7065C746.125,-54.217 825.147,-41.2557 901.471,-22.1589"/>
<polygon fill="midnightblue" stroke="midnightblue" points="902.417,-25.5299 911.247,-19.6749 900.693,-18.7455 902.417,-25.5299"/>
</g>
<!-- Node21 -->
<g id="node46" class="node"><title>Node21</title>
<polygon fill="white" stroke="#bfbfbf" points="593.5,-0.5 593.5,-21.5 648.5,-21.5 648.5,-0.5 593.5,-0.5"/>
<text text-anchor="middle" x="621" y="-8.5" font-family="Helvetica,sans-Serif" font-size="10.00">QPointF</text>
</g>
<!-- Node17&#45;&gt;Node21 -->
<g id="edge50" class="edge"><title>Node17&#45;&gt;Node21</title>
<path fill="none" stroke="midnightblue" d="M638.148,-58.3619C635.395,-50.7584 631.606,-40.294 628.29,-31.1349"/>
<polygon fill="midnightblue" stroke="midnightblue" points="631.523,-29.7818 624.827,-21.5707 624.941,-32.1649 631.523,-29.7818"/>
</g>
<!-- Node22 -->
<g id="node50" class="node"><title>Node22</title>
<polygon fill="white" stroke="#bfbfbf" points="666,-0.5 666,-21.5 746,-21.5 746,-0.5 666,-0.5"/>
<text text-anchor="middle" x="706" y="-8.5" font-family="Helvetica,sans-Serif" font-size="10.00">QVariantMap</text>
</g>
<!-- Node17&#45;&gt;Node22 -->
<g id="edge56" class="edge"><title>Node17&#45;&gt;Node22</title>
<path fill="none" stroke="midnightblue" d="M653.739,-58.3619C662.941,-50.0226 675.94,-38.2418 686.672,-28.5162"/>
<polygon fill="midnightblue" stroke="midnightblue" points="689.276,-30.8793 694.336,-21.5707 684.576,-25.6924 689.276,-30.8793"/>
</g>
</g>
</svg>
