<?xml version="1.0" encoding="UTF-8" standalone="no"?>
<!DOCTYPE svg PUBLIC "-//W3C//DTD SVG 1.1//EN"
 "http://www.w3.org/Graphics/SVG/1.1/DTD/svg11.dtd">
<!-- Generated by graphviz version 2.26.3 (20100126.1600)
 -->
<!-- Title: demogoggles2.cpp Pages: 1 -->
<svg width="969pt" height="262pt"
 viewBox="0.00 0.00 969.00 262.00" xmlns="http://www.w3.org/2000/svg" xmlns:xlink="http://www.w3.org/1999/xlink">
<g id="graph1" class="graph" transform="scale(1 1) rotate(0) translate(4 258)">
<title>demogoggles2.cpp</title>
<polygon fill="white" stroke="white" points="-4,5 -4,-258 966,-258 966,5 -4,5"/>
<!-- Node1 -->
<g id="node1" class="node"><title>Node1</title>
<polygon fill="#bfbfbf" stroke="black" points="476,-232.5 476,-253.5 582,-253.5 582,-232.5 476,-232.5"/>
<text text-anchor="middle" x="529" y="-240.5" font-family="Helvetica,sans-Serif" font-size="10.00">demogoggles2.cpp</text>
</g>
<!-- Node2 -->
<g id="node3" class="node"><title>Node2</title>
<a xlink:href="demogoggles2_8h.htm" target="_top" xlink:title="demogoggles2.h">
<polygon fill="white" stroke="black" points="71.5,-174.5 71.5,-195.5 166.5,-195.5 166.5,-174.5 71.5,-174.5"/>
<text text-anchor="middle" x="119" y="-182.5" font-family="Helvetica,sans-Serif" font-size="10.00">demogoggles2.h</text>
</a>
</g>
<!-- Node1&#45;&gt;Node2 -->
<g id="edge2" class="edge"><title>Node1&#45;&gt;Node2</title>
<path fill="none" stroke="midnightblue" d="M475.893,-236.236C408.254,-227.508 287.803,-211.586 185,-196 182.2,-195.576 179.336,-195.132 176.444,-194.677"/>
<polygon fill="midnightblue" stroke="midnightblue" points="176.987,-191.22 166.559,-193.098 175.882,-198.132 176.987,-191.22"/>
</g>
<!-- Node8 -->
<g id="node15" class="node"><title>Node8</title>
<polygon fill="white" stroke="#bfbfbf" points="76.5,-0.5 76.5,-21.5 129.5,-21.5 129.5,-0.5 76.5,-0.5"/>
<text text-anchor="middle" x="103" y="-8.5" font-family="Helvetica,sans-Serif" font-size="10.00">QString</text>
</g>
<!-- Node1&#45;&gt;Node8 -->
<g id="edge60" class="edge"><title>Node1&#45;&gt;Node8</title>
<path fill="none" stroke="midnightblue" d="M475.852,-232.511C412.607,-218.309 305.574,-188.723 226,-138 179.491,-108.354 137.674,-57.7562 116.875,-30.2247"/>
<polygon fill="midnightblue" stroke="midnightblue" points="119.42,-27.7813 110.651,-21.8357 113.799,-31.9522 119.42,-27.7813"/>
</g>
<!-- Node10 -->
<g id="node19" class="node"><title>Node10</title>
<polygon fill="white" stroke="#bfbfbf" points="392.5,-0.5 392.5,-21.5 445.5,-21.5 445.5,-0.5 392.5,-0.5"/>
<text text-anchor="middle" x="419" y="-8.5" font-family="Helvetica,sans-Serif" font-size="10.00">QRectF</text>
</g>
<!-- Node1&#45;&gt;Node10 -->
<g id="edge62" class="edge"><title>Node1&#45;&gt;Node10</title>
<path fill="none" stroke="midnightblue" d="M505.213,-232.379C473.691,-216.824 419.454,-184.552 397,-138 380.093,-102.948 396.311,-56.9082 408.45,-30.9871"/>
<polygon fill="midnightblue" stroke="midnightblue" points="411.696,-32.3175 412.981,-21.8008 405.418,-29.2207 411.696,-32.3175"/>
</g>
<!-- Node14 -->
<g id="node30" class="node"><title>Node14</title>
<a xlink:href="pixmapobject_8h.htm" target="_top" xlink:title="pixmapobject.h">
<polygon fill="white" stroke="black" points="486,-174.5 486,-195.5 572,-195.5 572,-174.5 486,-174.5"/>
<text text-anchor="middle" x="529" y="-182.5" font-family="Helvetica,sans-Serif" font-size="10.00">pixmapobject.h</text>
</a>
</g>
<!-- Node1&#45;&gt;Node14 -->
<g id="edge32" class="edge"><title>Node1&#45;&gt;Node14</title>
<path fill="none" stroke="midnightblue" d="M529,-232.362C529,-224.922 529,-214.743 529,-205.728"/>
<polygon fill="midnightblue" stroke="midnightblue" points="532.5,-205.571 529,-195.571 525.5,-205.571 532.5,-205.571"/>
</g>
<!-- Node18 -->
<g id="node39" class="node"><title>Node18</title>
<a xlink:href="dimensionsglobal_8h.htm" target="_top" xlink:title="dimensionsglobal.h">
<polygon fill="white" stroke="black" points="611,-58.5 611,-79.5 717,-79.5 717,-58.5 611,-58.5"/>
<text text-anchor="middle" x="664" y="-66.5" font-family="Helvetica,sans-Serif" font-size="10.00">dimensionsglobal.h</text>
</a>
</g>
<!-- Node1&#45;&gt;Node18 -->
<g id="edge42" class="edge"><title>Node1&#45;&gt;Node18</title>
<path fill="none" stroke="midnightblue" d="M545.98,-232.306C571.391,-215.413 619.091,-180.105 645,-138 654.132,-123.159 658.961,-103.869 661.461,-89.46"/>
<polygon fill="midnightblue" stroke="midnightblue" points="664.925,-89.9562 662.951,-79.547 658.003,-88.9156 664.925,-89.9562"/>
</g>
<!-- Node24 -->
<g id="node56" class="node"><title>Node24</title>
<polygon fill="white" stroke="#bfbfbf" points="691.5,-174.5 691.5,-195.5 750.5,-195.5 750.5,-174.5 691.5,-174.5"/>
<text text-anchor="middle" x="721" y="-182.5" font-family="Helvetica,sans-Serif" font-size="10.00">QPainter</text>
</g>
<!-- Node1&#45;&gt;Node24 -->
<g id="edge64" class="edge"><title>Node1&#45;&gt;Node24</title>
<path fill="none" stroke="midnightblue" d="M563.77,-232.497C596.916,-222.484 646.775,-207.422 681.428,-196.954"/>
<polygon fill="midnightblue" stroke="midnightblue" points="682.654,-200.24 691.215,-193.998 680.63,-193.539 682.654,-200.24"/>
</g>
<!-- Node25 -->
<g id="node58" class="node"><title>Node25</title>
<polygon fill="white" stroke="#bfbfbf" points="768,-174.5 768,-195.5 844,-195.5 844,-174.5 768,-174.5"/>
<text text-anchor="middle" x="806" y="-182.5" font-family="Helvetica,sans-Serif" font-size="10.00">QGLContext</text>
</g>
<!-- Node1&#45;&gt;Node25 -->
<g id="edge66" class="edge"><title>Node1&#45;&gt;Node25</title>
<path fill="none" stroke="midnightblue" d="M582.074,-232.598C626.47,-223.796 691.732,-210.625 757.647,-196.257"/>
<polygon fill="midnightblue" stroke="midnightblue" points="758.78,-199.592 767.801,-194.036 757.284,-192.754 758.78,-199.592"/>
</g>
<!-- Node3 -->
<g id="node5" class="node"><title>Node3</title>
<a xlink:href="thingpaintable_8h.htm" target="_top" xlink:title="thingpaintable.h">
<polygon fill="white" stroke="black" points="234.5,-116.5 234.5,-137.5 325.5,-137.5 325.5,-116.5 234.5,-116.5"/>
<text text-anchor="middle" x="280" y="-124.5" font-family="Helvetica,sans-Serif" font-size="10.00">thingpaintable.h</text>
</a>
</g>
<!-- Node2&#45;&gt;Node3 -->
<g id="edge4" class="edge"><title>Node2&#45;&gt;Node3</title>
<path fill="none" stroke="midnightblue" d="M148.156,-174.497C174.176,-165.123 212.479,-151.324 241.104,-141.012"/>
<polygon fill="midnightblue" stroke="midnightblue" points="242.568,-144.205 250.789,-137.523 240.195,-137.62 242.568,-144.205"/>
</g>
<!-- Node7 -->
<g id="node13" class="node"><title>Node7</title>
<polygon fill="white" stroke="#bfbfbf" points="-0.5,-0.5 -0.5,-21.5 58.5,-21.5 58.5,-0.5 -0.5,-0.5"/>
<text text-anchor="middle" x="29" y="-8.5" font-family="Helvetica,sans-Serif" font-size="10.00">QPointer</text>
</g>
<!-- Node2&#45;&gt;Node7 -->
<g id="edge28" class="edge"><title>Node2&#45;&gt;Node7</title>
<path fill="none" stroke="midnightblue" d="M92.8954,-174.36C77.3156,-166.619 58.5644,-154.581 48,-138 27.1408,-105.261 25.8673,-58.3034 27.1864,-31.6158"/>
<polygon fill="midnightblue" stroke="midnightblue" points="30.6864,-31.7309 27.8608,-21.5199 23.7019,-31.2643 30.6864,-31.7309"/>
</g>
<!-- Node13 -->
<g id="node28" class="node"><title>Node13</title>
<polygon fill="white" stroke="#bfbfbf" points="57,-116.5 57,-137.5 171,-137.5 171,-116.5 57,-116.5"/>
<text text-anchor="middle" x="114" y="-124.5" font-family="Helvetica,sans-Serif" font-size="10.00">QGLShaderProgram</text>
</g>
<!-- Node2&#45;&gt;Node13 -->
<g id="edge30" class="edge"><title>Node2&#45;&gt;Node13</title>
<path fill="none" stroke="midnightblue" d="M118.083,-174.362C117.442,-166.922 116.564,-156.743 115.787,-147.728"/>
<polygon fill="midnightblue" stroke="midnightblue" points="119.257,-147.233 114.911,-137.571 112.283,-147.834 119.257,-147.233"/>
</g>
<!-- Node4 -->
<g id="node7" class="node"><title>Node4</title>
<a xlink:href="thing_8h.htm" target="_top" xlink:title="thing.h">
<polygon fill="white" stroke="black" points="264,-58.5 264,-79.5 312,-79.5 312,-58.5 264,-58.5"/>
<text text-anchor="middle" x="288" y="-66.5" font-family="Helvetica,sans-Serif" font-size="10.00">thing.h</text>
</a>
</g>
<!-- Node3&#45;&gt;Node4 -->
<g id="edge6" class="edge"><title>Node3&#45;&gt;Node4</title>
<path fill="none" stroke="midnightblue" d="M281.467,-116.362C282.494,-108.922 283.898,-98.7427 285.141,-89.7276"/>
<polygon fill="midnightblue" stroke="midnightblue" points="288.643,-89.9551 286.542,-79.5707 281.708,-88.9986 288.643,-89.9551"/>
</g>
<!-- Node3&#45;&gt;Node8 -->
<g id="edge24" class="edge"><title>Node3&#45;&gt;Node8</title>
<path fill="none" stroke="midnightblue" d="M271.79,-116.394C259.933,-101.658 236.71,-74.9015 212,-58 189.579,-42.6644 161.35,-30.6608 139.237,-22.6237"/>
<polygon fill="midnightblue" stroke="midnightblue" points="140.145,-19.2329 129.55,-19.2123 137.82,-25.8354 140.145,-19.2329"/>
</g>
<!-- Node3&#45;&gt;Node10 -->
<g id="edge26" class="edge"><title>Node3&#45;&gt;Node10</title>
<path fill="none" stroke="midnightblue" d="M292.828,-116.295C316.929,-96.1819 369.163,-52.5904 398.3,-28.2752"/>
<polygon fill="midnightblue" stroke="midnightblue" points="400.768,-30.7737 406.203,-21.6792 396.283,-25.3993 400.768,-30.7737"/>
</g>
<!-- Node5 -->
<g id="node9" class="node"><title>Node5</title>
<polygon fill="white" stroke="#bfbfbf" points="277,-0.5 277,-21.5 375,-21.5 375,-0.5 277,-0.5"/>
<text text-anchor="middle" x="326" y="-8.5" font-family="Helvetica,sans-Serif" font-size="10.00">QGraphicsObject</text>
</g>
<!-- Node4&#45;&gt;Node5 -->
<g id="edge8" class="edge"><title>Node4&#45;&gt;Node5</title>
<path fill="none" stroke="midnightblue" d="M294.97,-58.3619C300.166,-50.4313 307.401,-39.3885 313.578,-29.9606"/>
<polygon fill="midnightblue" stroke="midnightblue" points="316.522,-31.8534 319.074,-21.5707 310.666,-28.0172 316.522,-31.8534"/>
</g>
<!-- Node6 -->
<g id="node11" class="node"><title>Node6</title>
<polygon fill="white" stroke="#bfbfbf" points="531,-0.5 531,-21.5 577,-21.5 577,-0.5 531,-0.5"/>
<text text-anchor="middle" x="554" y="-8.5" font-family="Helvetica,sans-Serif" font-size="10.00">QUuid</text>
</g>
<!-- Node4&#45;&gt;Node6 -->
<g id="edge10" class="edge"><title>Node4&#45;&gt;Node6</title>
<path fill="none" stroke="midnightblue" d="M312.162,-65.2366C353.221,-58.61 439.336,-43.7104 520.786,-22.0832"/>
<polygon fill="midnightblue" stroke="midnightblue" points="521.948,-25.3949 530.693,-19.4125 520.126,-18.6362 521.948,-25.3949"/>
</g>
<!-- Node4&#45;&gt;Node7 -->
<g id="edge12" class="edge"><title>Node4&#45;&gt;Node7</title>
<path fill="none" stroke="midnightblue" d="M263.793,-64.3591C224.819,-56.7734 145.559,-40.8794 68.6146,-22.0395"/>
<polygon fill="midnightblue" stroke="midnightblue" points="69.3054,-18.605 58.758,-19.6064 67.6277,-25.401 69.3054,-18.605"/>
</g>
<!-- Node4&#45;&gt;Node8 -->
<g id="edge14" class="edge"><title>Node4&#45;&gt;Node8</title>
<path fill="none" stroke="midnightblue" d="M263.837,-61.436C235.986,-52.716 188.586,-37.8706 139.3,-22.4066"/>
<polygon fill="midnightblue" stroke="midnightblue" points="140.341,-19.0651 129.752,-19.4105 138.246,-25.744 140.341,-19.0651"/>
</g>
<!-- Node9 -->
<g id="node17" class="node"><title>Node9</title>
<polygon fill="white" stroke="#bfbfbf" points="146.5,-0.5 146.5,-21.5 187.5,-21.5 187.5,-0.5 146.5,-0.5"/>
<text text-anchor="middle" x="167" y="-8.5" font-family="Helvetica,sans-Serif" font-size="10.00">QList</text>
</g>
<!-- Node4&#45;&gt;Node9 -->
<g id="edge16" class="edge"><title>Node4&#45;&gt;Node9</title>
<path fill="none" stroke="midnightblue" d="M266.088,-58.4966C246.717,-49.2113 218.287,-35.584 196.843,-25.3048"/>
<polygon fill="midnightblue" stroke="midnightblue" points="198.069,-22.0114 187.539,-20.8451 195.044,-28.3237 198.069,-22.0114"/>
</g>
<!-- Node4&#45;&gt;Node10 -->
<g id="edge18" class="edge"><title>Node4&#45;&gt;Node10</title>
<path fill="none" stroke="midnightblue" d="M311.723,-58.4966C332.368,-49.3562 362.516,-36.0082 385.599,-25.7883"/>
<polygon fill="midnightblue" stroke="midnightblue" points="387.284,-28.8701 395.011,-21.6212 384.45,-22.4694 387.284,-28.8701"/>
</g>
<!-- Node11 -->
<g id="node21" class="node"><title>Node11</title>
<polygon fill="white" stroke="#bfbfbf" points="204.5,-0.5 204.5,-21.5 259.5,-21.5 259.5,-0.5 204.5,-0.5"/>
<text text-anchor="middle" x="232" y="-8.5" font-family="Helvetica,sans-Serif" font-size="10.00">QDebug</text>
</g>
<!-- Node4&#45;&gt;Node11 -->
<g id="edge20" class="edge"><title>Node4&#45;&gt;Node11</title>
<path fill="none" stroke="midnightblue" d="M277.729,-58.3619C269.756,-50.1043 258.525,-38.4725 249.189,-28.8029"/>
<polygon fill="midnightblue" stroke="midnightblue" points="251.67,-26.3336 242.206,-21.5707 246.634,-31.1958 251.67,-26.3336"/>
</g>
<!-- Node12 -->
<g id="node23" class="node"><title>Node12</title>
<polygon fill="white" stroke="#bfbfbf" points="463,-0.5 463,-21.5 513,-21.5 513,-0.5 463,-0.5"/>
<text text-anchor="middle" x="488" y="-8.5" font-family="Helvetica,sans-Serif" font-size="10.00">QHash</text>
</g>
<!-- Node4&#45;&gt;Node12 -->
<g id="edge22" class="edge"><title>Node4&#45;&gt;Node12</title>
<path fill="none" stroke="midnightblue" d="M312.274,-62.4297C342.913,-54.0716 397.449,-38.9786 453.114,-22.2012"/>
<polygon fill="midnightblue" stroke="midnightblue" points="454.225,-25.5217 462.782,-19.2735 452.196,-18.8221 454.225,-25.5217"/>
</g>
<!-- Node14&#45;&gt;Node6 -->
<g id="edge38" class="edge"><title>Node14&#45;&gt;Node6</title>
<path fill="none" stroke="midnightblue" d="M530.526,-174.377C534.561,-146.293 545.57,-69.6735 550.954,-32.2027"/>
<polygon fill="midnightblue" stroke="midnightblue" points="554.472,-32.3239 552.43,-21.9277 547.543,-31.3283 554.472,-32.3239"/>
</g>
<!-- Node15 -->
<g id="node32" class="node"><title>Node15</title>
<polygon fill="white" stroke="#bfbfbf" points="581.5,-116.5 581.5,-137.5 636.5,-137.5 636.5,-116.5 581.5,-116.5"/>
<text text-anchor="middle" x="609" y="-124.5" font-family="Helvetica,sans-Serif" font-size="10.00">QObject</text>
</g>
<!-- Node14&#45;&gt;Node15 -->
<g id="edge34" class="edge"><title>Node14&#45;&gt;Node15</title>
<path fill="none" stroke="midnightblue" d="M543.673,-174.362C555.514,-165.777 572.385,-153.546 586.016,-143.664"/>
<polygon fill="midnightblue" stroke="midnightblue" points="588.378,-146.274 594.42,-137.571 584.269,-140.607 588.378,-146.274"/>
</g>
<!-- Node16 -->
<g id="node34" class="node"><title>Node16</title>
<polygon fill="white" stroke="#bfbfbf" points="405.5,-116.5 405.5,-137.5 464.5,-137.5 464.5,-116.5 405.5,-116.5"/>
<text text-anchor="middle" x="435" y="-124.5" font-family="Helvetica,sans-Serif" font-size="10.00">QPixmap</text>
</g>
<!-- Node14&#45;&gt;Node16 -->
<g id="edge36" class="edge"><title>Node14&#45;&gt;Node16</title>
<path fill="none" stroke="midnightblue" d="M511.759,-174.362C497.448,-165.532 476.885,-152.844 460.643,-142.822"/>
<polygon fill="midnightblue" stroke="midnightblue" points="462.48,-139.843 452.132,-137.571 458.804,-145.8 462.48,-139.843"/>
</g>
<!-- Node17 -->
<g id="node37" class="node"><title>Node17</title>
<polygon fill="white" stroke="#bfbfbf" points="481.5,-116.5 481.5,-137.5 526.5,-137.5 526.5,-116.5 481.5,-116.5"/>
<text text-anchor="middle" x="504" y="-124.5" font-family="Helvetica,sans-Serif" font-size="10.00">QSize</text>
</g>
<!-- Node14&#45;&gt;Node17 -->
<g id="edge40" class="edge"><title>Node14&#45;&gt;Node17</title>
<path fill="none" stroke="midnightblue" d="M524.415,-174.362C521.102,-166.677 516.53,-156.069 512.552,-146.84"/>
<polygon fill="midnightblue" stroke="midnightblue" points="515.729,-145.368 508.556,-137.571 509.301,-148.139 515.729,-145.368"/>
</g>
<!-- Node18&#45;&gt;Node6 -->
<g id="edge54" class="edge"><title>Node18&#45;&gt;Node6</title>
<path fill="none" stroke="midnightblue" d="M644.08,-58.4966C627.054,-49.5194 602.331,-36.4835 583.091,-26.3387"/>
<polygon fill="midnightblue" stroke="midnightblue" points="584.622,-23.1894 574.144,-21.6212 581.357,-29.3814 584.622,-23.1894"/>
</g>
<!-- Node18&#45;&gt;Node10 -->
<g id="edge48" class="edge"><title>Node18&#45;&gt;Node10</title>
<path fill="none" stroke="midnightblue" d="M611.054,-58.4404C570.659,-50.091 513.461,-37.642 455.389,-22.2409"/>
<polygon fill="midnightblue" stroke="midnightblue" points="456.25,-18.8482 445.685,-19.6415 454.439,-25.6098 456.25,-18.8482"/>
</g>
<!-- Node18&#45;&gt;Node12 -->
<g id="edge56" class="edge"><title>Node18&#45;&gt;Node12</title>
<path fill="none" stroke="midnightblue" d="M632.128,-58.4966C601.29,-48.3341 554.669,-32.9705 522.859,-22.4876"/>
<polygon fill="midnightblue" stroke="midnightblue" points="523.683,-19.0741 513.09,-19.2683 521.492,-25.7224 523.683,-19.0741"/>
</g>
<!-- Node19 -->
<g id="node41" class="node"><title>Node19</title>
<polygon fill="white" stroke="#bfbfbf" points="764.5,-0.5 764.5,-21.5 823.5,-21.5 823.5,-0.5 764.5,-0.5"/>
<text text-anchor="middle" x="794" y="-8.5" font-family="Helvetica,sans-Serif" font-size="10.00">qglobal.h</text>
</g>
<!-- Node18&#45;&gt;Node19 -->
<g id="edge44" class="edge"><title>Node18&#45;&gt;Node19</title>
<path fill="none" stroke="midnightblue" d="M687.542,-58.4966C708.029,-49.3562 737.947,-36.0082 760.854,-25.7883"/>
<polygon fill="midnightblue" stroke="midnightblue" points="762.488,-28.892 770.194,-21.6212 759.635,-22.4994 762.488,-28.892"/>
</g>
<!-- Node20 -->
<g id="node43" class="node"><title>Node20</title>
<polygon fill="white" stroke="#bfbfbf" points="841,-0.5 841,-21.5 895,-21.5 895,-0.5 841,-0.5"/>
<text text-anchor="middle" x="868" y="-8.5" font-family="Helvetica,sans-Serif" font-size="10.00">qmath.h</text>
</g>
<!-- Node18&#45;&gt;Node20 -->
<g id="edge46" class="edge"><title>Node18&#45;&gt;Node20</title>
<path fill="none" stroke="midnightblue" d="M702.776,-58.4331C734.81,-49.6404 781.71,-36.6239 831.28,-22.1697"/>
<polygon fill="midnightblue" stroke="midnightblue" points="832.278,-25.5243 840.894,-19.3578 830.313,-18.8057 832.278,-25.5243"/>
</g>
<!-- Node21 -->
<g id="node46" class="node"><title>Node21</title>
<polygon fill="white" stroke="#bfbfbf" points="912.5,-0.5 912.5,-21.5 961.5,-21.5 961.5,-0.5 912.5,-0.5"/>
<text text-anchor="middle" x="937" y="-8.5" font-family="Helvetica,sans-Serif" font-size="10.00">QPoint</text>
</g>
<!-- Node18&#45;&gt;Node21 -->
<g id="edge50" class="edge"><title>Node18&#45;&gt;Node21</title>
<path fill="none" stroke="midnightblue" d="M717.351,-60.5739C763.99,-52.7537 833.658,-39.9783 902.144,-22.2805"/>
<polygon fill="midnightblue" stroke="midnightblue" points="903.452,-25.5559 912.237,-19.6336 901.676,-18.7849 903.452,-25.5559"/>
</g>
<!-- Node22 -->
<g id="node48" class="node"><title>Node22</title>
<polygon fill="white" stroke="#bfbfbf" points="594.5,-0.5 594.5,-21.5 649.5,-21.5 649.5,-0.5 594.5,-0.5"/>
<text text-anchor="middle" x="622" y="-8.5" font-family="Helvetica,sans-Serif" font-size="10.00">QPointF</text>
</g>
<!-- Node18&#45;&gt;Node22 -->
<g id="edge52" class="edge"><title>Node18&#45;&gt;Node22</title>
<path fill="none" stroke="midnightblue" d="M656.297,-58.3619C650.554,-50.4313 642.557,-39.3885 635.73,-29.9606"/>
<polygon fill="midnightblue" stroke="midnightblue" points="638.355,-27.6173 629.655,-21.5707 632.685,-31.7229 638.355,-27.6173"/>
</g>
<!-- Node23 -->
<g id="node52" class="node"><title>Node23</title>
<polygon fill="white" stroke="#bfbfbf" points="667,-0.5 667,-21.5 747,-21.5 747,-0.5 667,-0.5"/>
<text text-anchor="middle" x="707" y="-8.5" font-family="Helvetica,sans-Serif" font-size="10.00">QVariantMap</text>
</g>
<!-- Node18&#45;&gt;Node23 -->
<g id="edge58" class="edge"><title>Node18&#45;&gt;Node23</title>
<path fill="none" stroke="midnightblue" d="M671.887,-58.3619C677.827,-50.3496 686.122,-39.1605 693.159,-29.6696"/>
<polygon fill="midnightblue" stroke="midnightblue" points="696.019,-31.6883 699.163,-21.5707 690.396,-27.5193 696.019,-31.6883"/>
</g>
</g>
</svg>
