<?xml version="1.0" encoding="UTF-8" standalone="no"?>
<!DOCTYPE svg PUBLIC "-//W3C//DTD SVG 1.1//EN"
 "http://www.w3.org/Graphics/SVG/1.1/DTD/svg11.dtd">
<!-- Generated by graphviz version 2.26.3 (20100126.1600)
 -->
<!-- Title: DeviceInfo.h Pages: 1 -->
<svg width="1014pt" height="88pt"
 viewBox="0.00 0.00 1014.00 88.00" xmlns="http://www.w3.org/2000/svg" xmlns:xlink="http://www.w3.org/1999/xlink">
<g id="graph1" class="graph" transform="scale(1 1) rotate(0) translate(4 84)">
<title>DeviceInfo.h</title>
<polygon fill="white" stroke="white" points="-4,5 -4,-84 1011,-84 1011,5 -4,5"/>
<!-- Node1 -->
<g id="node1" class="node"><title>Node1</title>
<polygon fill="#bfbfbf" stroke="black" points="486.5,-58.5 486.5,-79.5 561.5,-79.5 561.5,-58.5 486.5,-58.5"/>
<text text-anchor="middle" x="524" y="-66.5" font-family="Helvetica,sans-Serif" font-size="10.00">DeviceInfo.h</text>
</g>
<!-- Node2 -->
<g id="node3" class="node"><title>Node2</title>
<a xlink:href="ApplicationManager_8cpp.htm" target="_top" xlink:title="ApplicationManager.cpp">
<polygon fill="white" stroke="black" points="-0.5,-0.5 -0.5,-21.5 130.5,-21.5 130.5,-0.5 -0.5,-0.5"/>
<text text-anchor="middle" x="65" y="-8.5" font-family="Helvetica,sans-Serif" font-size="10.00">ApplicationManager.cpp</text>
</a>
</g>
<!-- Node1&#45;&gt;Node2 -->
<g id="edge2" class="edge"><title>Node1&#45;&gt;Node2</title>
<path fill="none" stroke="midnightblue" d="M476.016,-63.5497C403.125,-55.1782 260.159,-38.3976 139,-22 136.297,-21.6342 133.54,-21.2544 130.755,-20.8653"/>
<polygon fill="midnightblue" stroke="midnightblue" points="475.917,-67.0612 486.251,-64.7228 476.715,-60.1068 475.917,-67.0612"/>
</g>
<!-- Node3 -->
<g id="node5" class="node"><title>Node3</title>
<a xlink:href="CoreNaviLeds_8cpp.htm" target="_top" xlink:title="CoreNaviLeds.cpp">
<polygon fill="white" stroke="black" points="148,-0.5 148,-21.5 252,-21.5 252,-0.5 148,-0.5"/>
<text text-anchor="middle" x="200" y="-8.5" font-family="Helvetica,sans-Serif" font-size="10.00">CoreNaviLeds.cpp</text>
</a>
</g>
<!-- Node1&#45;&gt;Node3 -->
<g id="edge4" class="edge"><title>Node1&#45;&gt;Node3</title>
<path fill="none" stroke="midnightblue" d="M476.035,-60.4515C423.312,-51.0498 336.114,-35.4843 261,-22 258.14,-21.4866 255.205,-20.9592 252.242,-20.4263"/>
<polygon fill="midnightblue" stroke="midnightblue" points="475.646,-63.9375 486.106,-62.2473 476.875,-57.0462 475.646,-63.9375"/>
</g>
<!-- Node4 -->
<g id="node7" class="node"><title>Node4</title>
<a xlink:href="CoreNaviManager_8cpp.htm" target="_top" xlink:title="CoreNaviManager.cpp">
<polygon fill="white" stroke="black" points="269.5,-0.5 269.5,-21.5 392.5,-21.5 392.5,-0.5 269.5,-0.5"/>
<text text-anchor="middle" x="331" y="-8.5" font-family="Helvetica,sans-Serif" font-size="10.00">CoreNaviManager.cpp</text>
</a>
</g>
<!-- Node1&#45;&gt;Node4 -->
<g id="edge6" class="edge"><title>Node1&#45;&gt;Node4</title>
<path fill="none" stroke="midnightblue" d="M479.232,-55.5464C444.756,-45.1857 397.774,-31.0668 366.016,-21.5231"/>
<polygon fill="midnightblue" stroke="midnightblue" points="478.465,-58.9705 489.049,-58.4966 480.48,-52.2666 478.465,-58.9705"/>
</g>
<!-- Node5 -->
<g id="node9" class="node"><title>Node5</title>
<a xlink:href="DisplayManager_8cpp.htm" target="_top" xlink:title="DisplayManager.cpp">
<polygon fill="white" stroke="black" points="409.5,-0.5 409.5,-21.5 522.5,-21.5 522.5,-0.5 409.5,-0.5"/>
<text text-anchor="middle" x="466" y="-8.5" font-family="Helvetica,sans-Serif" font-size="10.00">DisplayManager.cpp</text>
</a>
</g>
<!-- Node1&#45;&gt;Node5 -->
<g id="edge8" class="edge"><title>Node1&#45;&gt;Node5</title>
<path fill="none" stroke="midnightblue" d="M506.118,-51.118C496.438,-41.4377 484.81,-29.8098 476.571,-21.5707"/>
<polygon fill="midnightblue" stroke="midnightblue" points="503.816,-53.7657 513.362,-58.3619 508.766,-48.8159 503.816,-53.7657"/>
</g>
<!-- Node6 -->
<g id="node11" class="node"><title>Node6</title>
<a xlink:href="DeviceInfo_8cpp.htm" target="_top" xlink:title="DeviceInfo.cpp">
<polygon fill="white" stroke="black" points="540,-0.5 540,-21.5 626,-21.5 626,-0.5 540,-0.5"/>
<text text-anchor="middle" x="583" y="-8.5" font-family="Helvetica,sans-Serif" font-size="10.00">DeviceInfo.cpp</text>
</a>
</g>
<!-- Node1&#45;&gt;Node6 -->
<g id="edge10" class="edge"><title>Node1&#45;&gt;Node6</title>
<path fill="none" stroke="midnightblue" d="M542.19,-51.118C552.037,-41.4377 563.866,-29.8098 572.247,-21.5707"/>
<polygon fill="midnightblue" stroke="midnightblue" points="539.499,-48.8556 534.822,-58.3619 544.406,-53.8474 539.499,-48.8556"/>
</g>
<!-- Node7 -->
<g id="node13" class="node"><title>Node7</title>
<a xlink:href="StatusBarServicesConnector_8cpp.htm" target="_top" xlink:title="StatusBarServicesConnector.cpp">
<polygon fill="white" stroke="black" points="644,-0.5 644,-21.5 816,-21.5 816,-0.5 644,-0.5"/>
<text text-anchor="middle" x="730" y="-8.5" font-family="Helvetica,sans-Serif" font-size="10.00">StatusBarServicesConnector.cpp</text>
</a>
</g>
<!-- Node1&#45;&gt;Node7 -->
<g id="edge12" class="edge"><title>Node1&#45;&gt;Node7</title>
<path fill="none" stroke="midnightblue" d="M571.311,-55.6795C608.151,-45.307 658.583,-31.1078 692.625,-21.5231"/>
<polygon fill="midnightblue" stroke="midnightblue" points="569.982,-52.4174 561.305,-58.4966 571.879,-59.1554 569.982,-52.4174"/>
</g>
<!-- Node8 -->
<g id="node15" class="node"><title>Node8</title>
<a xlink:href="SystemMenu_8cpp.htm" target="_top" xlink:title="SystemMenu.cpp">
<polygon fill="white" stroke="black" points="833.5,-0.5 833.5,-21.5 930.5,-21.5 930.5,-0.5 833.5,-0.5"/>
<text text-anchor="middle" x="882" y="-8.5" font-family="Helvetica,sans-Serif" font-size="10.00">SystemMenu.cpp</text>
</a>
</g>
<!-- Node1&#45;&gt;Node8 -->
<g id="edge14" class="edge"><title>Node1&#45;&gt;Node8</title>
<path fill="none" stroke="midnightblue" d="M571.819,-62.0722C631.266,-53.3358 735.79,-37.5678 825,-22 827.681,-21.5322 830.43,-21.0407 833.203,-20.5358"/>
<polygon fill="midnightblue" stroke="midnightblue" points="570.998,-58.655 561.612,-63.5682 572.014,-65.581 570.998,-58.655"/>
</g>
<!-- Node9 -->
<g id="node17" class="node"><title>Node9</title>
<a xlink:href="Main_8cpp.htm" target="_top" xlink:title="Main.cpp">
<polygon fill="white" stroke="black" points="947.5,-0.5 947.5,-21.5 1006.5,-21.5 1006.5,-0.5 947.5,-0.5"/>
<text text-anchor="middle" x="977" y="-8.5" font-family="Helvetica,sans-Serif" font-size="10.00">Main.cpp</text>
</a>
</g>
<!-- Node1&#45;&gt;Node9 -->
<g id="edge16" class="edge"><title>Node1&#45;&gt;Node9</title>
<path fill="none" stroke="midnightblue" d="M571.947,-66.2106C649.639,-61.1016 807.596,-48.2638 939,-22 941.694,-21.4616 944.474,-20.8228 947.247,-20.1283"/>
<polygon fill="midnightblue" stroke="midnightblue" points="571.282,-62.746 561.528,-66.8809 571.732,-69.7316 571.282,-62.746"/>
</g>
</g>
</svg>
