<?xml version="1.0" encoding="UTF-8" standalone="no"?>
<!DOCTYPE svg PUBLIC "-//W3C//DTD SVG 1.1//EN"
 "http://www.w3.org/Graphics/SVG/1.1/DTD/svg11.dtd">
<!-- Generated by graphviz version 2.26.3 (20100126.1600)
 -->
<!-- Title: DeviceInfo.cpp Pages: 1 -->
<svg width="548pt" height="204pt"
 viewBox="0.00 0.00 548.00 204.00" xmlns="http://www.w3.org/2000/svg" xmlns:xlink="http://www.w3.org/1999/xlink">
<g id="graph1" class="graph" transform="scale(1 1) rotate(0) translate(4 200)">
<title>DeviceInfo.cpp</title>
<polygon fill="white" stroke="white" points="-4,5 -4,-200 545,-200 545,5 -4,5"/>
<!-- Node1 -->
<g id="node1" class="node"><title>Node1</title>
<polygon fill="#bfbfbf" stroke="black" points="191,-174.5 191,-195.5 277,-195.5 277,-174.5 191,-174.5"/>
<text text-anchor="middle" x="234" y="-182.5" font-family="Helvetica,sans-Serif" font-size="10.00">DeviceInfo.cpp</text>
</g>
<!-- Node2 -->
<g id="node3" class="node"><title>Node2</title>
<polygon fill="white" stroke="#bfbfbf" points="-0.5,-0.5 -0.5,-21.5 66.5,-21.5 66.5,-0.5 -0.5,-0.5"/>
<text text-anchor="middle" x="33" y="-8.5" font-family="Helvetica,sans-Serif" font-size="10.00">Common.h</text>
</g>
<!-- Node1&#45;&gt;Node2 -->
<g id="edge2" class="edge"><title>Node1&#45;&gt;Node2</title>
<path fill="none" stroke="midnightblue" d="M190.814,-178.58C145.311,-170.935 77.8052,-156.8 60,-138 32.6172,-109.087 30.1693,-59.6002 31.2822,-31.7031"/>
<polygon fill="midnightblue" stroke="midnightblue" points="34.7884,-31.7024 31.8891,-21.512 27.8007,-31.2863 34.7884,-31.7024"/>
</g>
<!-- Node3 -->
<g id="node5" class="node"><title>Node3</title>
<a xlink:href="DeviceInfo_8h.htm" target="_top" xlink:title="DeviceInfo.h">
<polygon fill="white" stroke="black" points="68.5,-116.5 68.5,-137.5 143.5,-137.5 143.5,-116.5 68.5,-116.5"/>
<text text-anchor="middle" x="106" y="-124.5" font-family="Helvetica,sans-Serif" font-size="10.00">DeviceInfo.h</text>
</a>
</g>
<!-- Node1&#45;&gt;Node3 -->
<g id="edge4" class="edge"><title>Node1&#45;&gt;Node3</title>
<path fill="none" stroke="midnightblue" d="M210.82,-174.497C190.648,-165.356 161.19,-152.008 138.636,-141.788"/>
<polygon fill="midnightblue" stroke="midnightblue" points="139.993,-138.561 129.44,-137.621 137.104,-144.937 139.993,-138.561"/>
</g>
<!-- Node4 -->
<g id="node8" class="node"><title>Node4</title>
<a xlink:href="Window_8h.htm" target="_top" xlink:title="Window.h">
<polygon fill="white" stroke="black" points="140,-58.5 140,-79.5 202,-79.5 202,-58.5 140,-58.5"/>
<text text-anchor="middle" x="171" y="-66.5" font-family="Helvetica,sans-Serif" font-size="10.00">Window.h</text>
</a>
</g>
<!-- Node1&#45;&gt;Node4 -->
<g id="edge32" class="edge"><title>Node1&#45;&gt;Node4</title>
<path fill="none" stroke="midnightblue" d="M221.027,-174.311C211.165,-165.523 197.975,-152.238 190,-138 181.664,-123.116 176.804,-104.351 174.09,-90.1479"/>
<polygon fill="midnightblue" stroke="midnightblue" points="177.474,-89.1693 172.347,-79.8972 170.573,-90.3423 177.474,-89.1693"/>
</g>
<!-- Node11 -->
<g id="node24" class="node"><title>Node11</title>
<polygon fill="white" stroke="#bfbfbf" points="198.5,-116.5 198.5,-137.5 269.5,-137.5 269.5,-116.5 198.5,-116.5"/>
<text text-anchor="middle" x="234" y="-124.5" font-family="Helvetica,sans-Serif" font-size="10.00">HostBase.h</text>
</g>
<!-- Node1&#45;&gt;Node11 -->
<g id="edge26" class="edge"><title>Node1&#45;&gt;Node11</title>
<path fill="none" stroke="midnightblue" d="M234,-174.362C234,-166.922 234,-156.743 234,-147.728"/>
<polygon fill="midnightblue" stroke="midnightblue" points="237.5,-147.571 234,-137.571 230.5,-147.571 237.5,-147.571"/>
</g>
<!-- Node12 -->
<g id="node26" class="node"><title>Node12</title>
<polygon fill="white" stroke="#bfbfbf" points="286.5,-116.5 286.5,-137.5 367.5,-137.5 367.5,-116.5 286.5,-116.5"/>
<text text-anchor="middle" x="327" y="-124.5" font-family="Helvetica,sans-Serif" font-size="10.00">Localization.h</text>
</g>
<!-- Node1&#45;&gt;Node12 -->
<g id="edge28" class="edge"><title>Node1&#45;&gt;Node12</title>
<path fill="none" stroke="midnightblue" d="M251.058,-174.362C265.085,-165.614 285.184,-153.079 301.182,-143.101"/>
<polygon fill="midnightblue" stroke="midnightblue" points="303.418,-145.832 310.051,-137.571 299.713,-139.893 303.418,-145.832"/>
</g>
<!-- Node13 -->
<g id="node28" class="node"><title>Node13</title>
<polygon fill="white" stroke="#bfbfbf" points="384.5,-116.5 384.5,-137.5 447.5,-137.5 447.5,-116.5 384.5,-116.5"/>
<text text-anchor="middle" x="416" y="-124.5" font-family="Helvetica,sans-Serif" font-size="10.00">Settings.h</text>
</g>
<!-- Node1&#45;&gt;Node13 -->
<g id="edge30" class="edge"><title>Node1&#45;&gt;Node13</title>
<path fill="none" stroke="midnightblue" d="M266.959,-174.497C297.13,-164.882 341.909,-150.611 374.506,-140.223"/>
<polygon fill="midnightblue" stroke="midnightblue" points="375.736,-143.505 384.201,-137.134 373.611,-136.835 375.736,-143.505"/>
</g>
<!-- Node14 -->
<g id="node31" class="node"><title>Node14</title>
<polygon fill="white" stroke="#bfbfbf" points="465,-116.5 465,-137.5 537,-137.5 537,-116.5 465,-116.5"/>
<text text-anchor="middle" x="501" y="-124.5" font-family="Helvetica,sans-Serif" font-size="10.00">cjson/json.h</text>
</g>
<!-- Node1&#45;&gt;Node14 -->
<g id="edge34" class="edge"><title>Node1&#45;&gt;Node14</title>
<path fill="none" stroke="midnightblue" d="M277.06,-176.297C319.751,-167.577 387.267,-153.538 454.724,-138.247"/>
<polygon fill="midnightblue" stroke="midnightblue" points="455.7,-141.615 464.674,-135.982 454.146,-134.789 455.7,-141.615"/>
</g>
<!-- Node3&#45;&gt;Node2 -->
<g id="edge6" class="edge"><title>Node3&#45;&gt;Node2</title>
<path fill="none" stroke="midnightblue" d="M99.2632,-116.295C86.9318,-96.6998 60.5763,-54.8198 45.0773,-30.1913"/>
<polygon fill="midnightblue" stroke="midnightblue" points="48.009,-28.2786 39.7205,-21.6792 42.0845,-32.007 48.009,-28.2786"/>
</g>
<!-- Node3&#45;&gt;Node4 -->
<g id="edge8" class="edge"><title>Node3&#45;&gt;Node4</title>
<path fill="none" stroke="midnightblue" d="M117.922,-116.362C127.359,-107.941 140.73,-96.0105 151.69,-86.2308"/>
<polygon fill="midnightblue" stroke="midnightblue" points="154.022,-88.8401 159.154,-79.5707 149.362,-83.6171 154.022,-88.8401"/>
</g>
<!-- Node7 -->
<g id="node15" class="node"><title>Node7</title>
<polygon fill="white" stroke="#bfbfbf" points="83.5,-0.5 83.5,-21.5 126.5,-21.5 126.5,-0.5 83.5,-0.5"/>
<text text-anchor="middle" x="105" y="-8.5" font-family="Helvetica,sans-Serif" font-size="10.00">string</text>
</g>
<!-- Node3&#45;&gt;Node7 -->
<g id="edge24" class="edge"><title>Node3&#45;&gt;Node7</title>
<path fill="none" stroke="midnightblue" d="M105.908,-116.295C105.743,-97.1314 105.394,-56.654 105.18,-31.8434"/>
<polygon fill="midnightblue" stroke="midnightblue" points="108.678,-31.6486 105.092,-21.6792 101.678,-31.709 108.678,-31.6486"/>
</g>
<!-- Node4&#45;&gt;Node2 -->
<g id="edge10" class="edge"><title>Node4&#45;&gt;Node2</title>
<path fill="none" stroke="midnightblue" d="M146.009,-58.4966C124.067,-49.2746 91.9342,-35.7695 67.5363,-25.5153"/>
<polygon fill="midnightblue" stroke="midnightblue" points="68.8462,-22.2693 58.2712,-21.6212 66.1339,-28.7225 68.8462,-22.2693"/>
</g>
<!-- Node5 -->
<g id="node11" class="node"><title>Node5</title>
<polygon fill="white" stroke="#bfbfbf" points="448,-0.5 448,-21.5 540,-21.5 540,-0.5 448,-0.5"/>
<text text-anchor="middle" x="494" y="-8.5" font-family="Helvetica,sans-Serif" font-size="10.00">WindowTypes.h</text>
</g>
<!-- Node4&#45;&gt;Node5 -->
<g id="edge12" class="edge"><title>Node4&#45;&gt;Node5</title>
<path fill="none" stroke="midnightblue" d="M202.401,-63.7422C250.737,-55.5946 346.53,-39.2342 437.841,-22.1882"/>
<polygon fill="midnightblue" stroke="midnightblue" points="438.617,-25.6037 447.802,-20.3225 437.329,-18.7233 438.617,-25.6037"/>
</g>
<!-- Node6 -->
<g id="node13" class="node"><title>Node6</title>
<polygon fill="white" stroke="#bfbfbf" points="144,-0.5 144,-21.5 194,-21.5 194,-0.5 144,-0.5"/>
<text text-anchor="middle" x="169" y="-8.5" font-family="Helvetica,sans-Serif" font-size="10.00">stdint.h</text>
</g>
<!-- Node4&#45;&gt;Node6 -->
<g id="edge14" class="edge"><title>Node4&#45;&gt;Node6</title>
<path fill="none" stroke="midnightblue" d="M170.633,-58.3619C170.377,-50.9219 170.026,-40.7427 169.715,-31.7276"/>
<polygon fill="midnightblue" stroke="midnightblue" points="173.207,-31.4441 169.365,-21.5707 166.211,-31.6854 173.207,-31.4441"/>
</g>
<!-- Node4&#45;&gt;Node7 -->
<g id="edge16" class="edge"><title>Node4&#45;&gt;Node7</title>
<path fill="none" stroke="midnightblue" d="M158.895,-58.3619C149.312,-49.9408 135.736,-38.0105 124.607,-28.2308"/>
<polygon fill="midnightblue" stroke="midnightblue" points="126.851,-25.5427 117.029,-21.5707 122.23,-30.8009 126.851,-25.5427"/>
</g>
<!-- Node8 -->
<g id="node17" class="node"><title>Node8</title>
<polygon fill="white" stroke="#bfbfbf" points="211.5,-0.5 211.5,-21.5 252.5,-21.5 252.5,-0.5 211.5,-0.5"/>
<text text-anchor="middle" x="232" y="-8.5" font-family="Helvetica,sans-Serif" font-size="10.00">glib.h</text>
</g>
<!-- Node4&#45;&gt;Node8 -->
<g id="edge18" class="edge"><title>Node4&#45;&gt;Node8</title>
<path fill="none" stroke="midnightblue" d="M182.188,-58.3619C190.959,-50.0226 203.349,-38.2418 213.578,-28.5162"/>
<polygon fill="midnightblue" stroke="midnightblue" points="216.047,-30.9978 220.883,-21.5707 211.224,-25.9248 216.047,-30.9978"/>
</g>
<!-- Node9 -->
<g id="node19" class="node"><title>Node9</title>
<polygon fill="white" stroke="#bfbfbf" points="270,-0.5 270,-21.5 368,-21.5 368,-0.5 270,-0.5"/>
<text text-anchor="middle" x="319" y="-8.5" font-family="Helvetica,sans-Serif" font-size="10.00">QGraphicsObject</text>
</g>
<!-- Node4&#45;&gt;Node9 -->
<g id="edge20" class="edge"><title>Node4&#45;&gt;Node9</title>
<path fill="none" stroke="midnightblue" d="M197.802,-58.4966C221.438,-49.2337 256.1,-35.6499 282.308,-25.3793"/>
<polygon fill="midnightblue" stroke="midnightblue" points="283.864,-28.5287 291.898,-21.6212 281.31,-22.0113 283.864,-28.5287"/>
</g>
<!-- Node10 -->
<g id="node21" class="node"><title>Node10</title>
<polygon fill="white" stroke="#bfbfbf" points="385.5,-0.5 385.5,-21.5 430.5,-21.5 430.5,-0.5 385.5,-0.5"/>
<text text-anchor="middle" x="408" y="-8.5" font-family="Helvetica,sans-Serif" font-size="10.00">QSize</text>
</g>
<!-- Node4&#45;&gt;Node10 -->
<g id="edge22" class="edge"><title>Node4&#45;&gt;Node10</title>
<path fill="none" stroke="midnightblue" d="M202,-63.102C240.664,-55.4913 308.919,-41.2213 375.591,-22.1989"/>
<polygon fill="midnightblue" stroke="midnightblue" points="376.779,-25.4989 385.412,-19.3581 374.834,-18.7745 376.779,-25.4989"/>
</g>
</g>
</svg>
