<?xml version="1.0" encoding="UTF-8" standalone="no"?>
<!DOCTYPE svg PUBLIC "-//W3C//DTD SVG 1.1//EN"
 "http://www.w3.org/Graphics/SVG/1.1/DTD/svg11.dtd">
<!-- Generated by graphviz version 2.26.3 (20100126.1600)
 -->
<!-- Title: DeviceInfo.h Pages: 1 -->
<svg width="548pt" height="146pt"
 viewBox="0.00 0.00 548.00 146.00" xmlns="http://www.w3.org/2000/svg" xmlns:xlink="http://www.w3.org/1999/xlink">
<g id="graph1" class="graph" transform="scale(1 1) rotate(0) translate(4 142)">
<title>DeviceInfo.h</title>
<polygon fill="white" stroke="white" points="-4,5 -4,-142 545,-142 545,5 -4,5"/>
<!-- Node1 -->
<g id="node1" class="node"><title>Node1</title>
<polygon fill="#bfbfbf" stroke="black" points="244.5,-116.5 244.5,-137.5 319.5,-137.5 319.5,-116.5 244.5,-116.5"/>
<text text-anchor="middle" x="282" y="-124.5" font-family="Helvetica,sans-Serif" font-size="10.00">DeviceInfo.h</text>
</g>
<!-- Node2 -->
<g id="node3" class="node"><title>Node2</title>
<polygon fill="white" stroke="#bfbfbf" points="-0.5,-0.5 -0.5,-21.5 66.5,-21.5 66.5,-0.5 -0.5,-0.5"/>
<text text-anchor="middle" x="33" y="-8.5" font-family="Helvetica,sans-Serif" font-size="10.00">Common.h</text>
</g>
<!-- Node1&#45;&gt;Node2 -->
<g id="edge2" class="edge"><title>Node1&#45;&gt;Node2</title>
<path fill="none" stroke="midnightblue" d="M259.021,-116.295C214.344,-95.4818 115.701,-49.5272 64.786,-25.808"/>
<polygon fill="midnightblue" stroke="midnightblue" points="66.1065,-22.562 55.5638,-21.5117 63.1504,-28.9072 66.1065,-22.562"/>
</g>
<!-- Node3 -->
<g id="node5" class="node"><title>Node3</title>
<a xlink:href="Window_8h.htm" target="_top" xlink:title="Window.h">
<polygon fill="white" stroke="black" points="251,-58.5 251,-79.5 313,-79.5 313,-58.5 251,-58.5"/>
<text text-anchor="middle" x="282" y="-66.5" font-family="Helvetica,sans-Serif" font-size="10.00">Window.h</text>
</a>
</g>
<!-- Node1&#45;&gt;Node3 -->
<g id="edge4" class="edge"><title>Node1&#45;&gt;Node3</title>
<path fill="none" stroke="midnightblue" d="M282,-116.362C282,-108.922 282,-98.7427 282,-89.7276"/>
<polygon fill="midnightblue" stroke="midnightblue" points="285.5,-89.5706 282,-79.5707 278.5,-89.5707 285.5,-89.5706"/>
</g>
<!-- Node6 -->
<g id="node12" class="node"><title>Node6</title>
<polygon fill="white" stroke="#bfbfbf" points="497.5,-0.5 497.5,-21.5 540.5,-21.5 540.5,-0.5 497.5,-0.5"/>
<text text-anchor="middle" x="519" y="-8.5" font-family="Helvetica,sans-Serif" font-size="10.00">string</text>
</g>
<!-- Node1&#45;&gt;Node6 -->
<g id="edge20" class="edge"><title>Node1&#45;&gt;Node6</title>
<path fill="none" stroke="midnightblue" d="M303.872,-116.295C346.307,-95.525 439.895,-49.7182 488.443,-25.9562"/>
<polygon fill="midnightblue" stroke="midnightblue" points="490.08,-29.0515 497.524,-21.5117 487.003,-22.7642 490.08,-29.0515"/>
</g>
<!-- Node3&#45;&gt;Node2 -->
<g id="edge6" class="edge"><title>Node3&#45;&gt;Node2</title>
<path fill="none" stroke="midnightblue" d="M250.714,-62.2322C212.015,-53.7877 143.883,-38.6822 76.7896,-22.3925"/>
<polygon fill="midnightblue" stroke="midnightblue" points="77.4463,-18.9502 66.9018,-19.9812 75.7878,-25.7509 77.4463,-18.9502"/>
</g>
<!-- Node4 -->
<g id="node8" class="node"><title>Node4</title>
<polygon fill="white" stroke="#bfbfbf" points="84,-0.5 84,-21.5 176,-21.5 176,-0.5 84,-0.5"/>
<text text-anchor="middle" x="130" y="-8.5" font-family="Helvetica,sans-Serif" font-size="10.00">WindowTypes.h</text>
</g>
<!-- Node3&#45;&gt;Node4 -->
<g id="edge8" class="edge"><title>Node3&#45;&gt;Node4</title>
<path fill="none" stroke="midnightblue" d="M254.474,-58.4966C230.016,-49.1639 194.062,-35.4447 167.076,-25.1475"/>
<polygon fill="midnightblue" stroke="midnightblue" points="168.168,-21.8182 157.578,-21.5231 165.673,-28.3582 168.168,-21.8182"/>
</g>
<!-- Node5 -->
<g id="node10" class="node"><title>Node5</title>
<polygon fill="white" stroke="#bfbfbf" points="194,-0.5 194,-21.5 244,-21.5 244,-0.5 194,-0.5"/>
<text text-anchor="middle" x="219" y="-8.5" font-family="Helvetica,sans-Serif" font-size="10.00">stdint.h</text>
</g>
<!-- Node3&#45;&gt;Node5 -->
<g id="edge10" class="edge"><title>Node3&#45;&gt;Node5</title>
<path fill="none" stroke="midnightblue" d="M270.445,-58.3619C261.387,-50.0226 248.59,-38.2418 238.026,-28.5162"/>
<polygon fill="midnightblue" stroke="midnightblue" points="240.21,-25.7688 230.482,-21.5707 235.468,-30.9187 240.21,-25.7688"/>
</g>
<!-- Node3&#45;&gt;Node6 -->
<g id="edge12" class="edge"><title>Node3&#45;&gt;Node6</title>
<path fill="none" stroke="midnightblue" d="M313.181,-63.2164C352.065,-55.7238 420.685,-41.5808 487.621,-22.1676"/>
<polygon fill="midnightblue" stroke="midnightblue" points="488.876,-25.4467 497.481,-19.2653 486.899,-18.7316 488.876,-25.4467"/>
</g>
<!-- Node7 -->
<g id="node14" class="node"><title>Node7</title>
<polygon fill="white" stroke="#bfbfbf" points="261.5,-0.5 261.5,-21.5 302.5,-21.5 302.5,-0.5 261.5,-0.5"/>
<text text-anchor="middle" x="282" y="-8.5" font-family="Helvetica,sans-Serif" font-size="10.00">glib.h</text>
</g>
<!-- Node3&#45;&gt;Node7 -->
<g id="edge14" class="edge"><title>Node3&#45;&gt;Node7</title>
<path fill="none" stroke="midnightblue" d="M282,-58.3619C282,-50.9219 282,-40.7427 282,-31.7276"/>
<polygon fill="midnightblue" stroke="midnightblue" points="285.5,-31.5706 282,-21.5707 278.5,-31.5707 285.5,-31.5706"/>
</g>
<!-- Node8 -->
<g id="node16" class="node"><title>Node8</title>
<polygon fill="white" stroke="#bfbfbf" points="320,-0.5 320,-21.5 418,-21.5 418,-0.5 320,-0.5"/>
<text text-anchor="middle" x="369" y="-8.5" font-family="Helvetica,sans-Serif" font-size="10.00">QGraphicsObject</text>
</g>
<!-- Node3&#45;&gt;Node8 -->
<g id="edge16" class="edge"><title>Node3&#45;&gt;Node8</title>
<path fill="none" stroke="midnightblue" d="M297.957,-58.3619C310.957,-49.6955 329.531,-37.3126 344.427,-27.3819"/>
<polygon fill="midnightblue" stroke="midnightblue" points="346.765,-30.0299 353.144,-21.5707 342.882,-24.2055 346.765,-30.0299"/>
</g>
<!-- Node9 -->
<g id="node18" class="node"><title>Node9</title>
<polygon fill="white" stroke="#bfbfbf" points="435.5,-0.5 435.5,-21.5 480.5,-21.5 480.5,-0.5 435.5,-0.5"/>
<text text-anchor="middle" x="458" y="-8.5" font-family="Helvetica,sans-Serif" font-size="10.00">QSize</text>
</g>
<!-- Node3&#45;&gt;Node9 -->
<g id="edge18" class="edge"><title>Node3&#45;&gt;Node9</title>
<path fill="none" stroke="midnightblue" d="M313.196,-59.1618C340.604,-50.4575 381.79,-37.2334 425.646,-22.41"/>
<polygon fill="midnightblue" stroke="midnightblue" points="426.992,-25.6491 435.338,-19.1223 424.744,-19.0201 426.992,-25.6491"/>
</g>
</g>
</svg>
