<?xml version="1.0" encoding="UTF-8" standalone="no"?>
<!DOCTYPE svg PUBLIC "-//W3C//DTD SVG 1.1//EN"
 "http://www.w3.org/Graphics/SVG/1.1/DTD/svg11.dtd">
<!-- Generated by graphviz version 2.26.3 (20100126.1600)
 -->
<!-- Title: dimensionslauncher.h Pages: 1 -->
<svg width="1840pt" height="88pt"
 viewBox="0.00 0.00 1840.00 88.00" xmlns="http://www.w3.org/2000/svg" xmlns:xlink="http://www.w3.org/1999/xlink">
<g id="graph1" class="graph" transform="scale(1 1) rotate(0) translate(4 84)">
<title>dimensionslauncher.h</title>
<polygon fill="white" stroke="white" points="-4,5 -4,-84 1837,-84 1837,5 -4,5"/>
<!-- Node1 -->
<g id="node1" class="node"><title>Node1</title>
<polygon fill="#bfbfbf" stroke="black" points="877.5,-58.5 877.5,-79.5 996.5,-79.5 996.5,-58.5 877.5,-58.5"/>
<text text-anchor="middle" x="937" y="-66.5" font-family="Helvetica,sans-Serif" font-size="10.00">dimensionslauncher.h</text>
</g>
<!-- Node2 -->
<g id="node3" class="node"><title>Node2</title>
<a xlink:href="dimensionslauncher_8cpp.htm" target="_top" xlink:title="dimensionslauncher.cpp">
<polygon fill="white" stroke="black" points="0,-0.5 0,-21.5 130,-21.5 130,-0.5 0,-0.5"/>
<text text-anchor="middle" x="65" y="-8.5" font-family="Helvetica,sans-Serif" font-size="10.00">dimensionslauncher.cpp</text>
</a>
</g>
<!-- Node1&#45;&gt;Node2 -->
<g id="edge2" class="edge"><title>Node1&#45;&gt;Node2</title>
<path fill="none" stroke="midnightblue" d="M867.205,-66.9723C728.266,-62.4759 407.336,-49.7907 139,-22 136.158,-21.7056 133.258,-21.3806 130.33,-21.0324"/>
<polygon fill="midnightblue" stroke="midnightblue" points="867.184,-70.4733 877.29,-67.2946 867.407,-63.4769 867.184,-70.4733"/>
</g>
<!-- Node3 -->
<g id="node5" class="node"><title>Node3</title>
<a xlink:href="dimensionsmain_8cpp.htm" target="_top" xlink:title="dimensionsmain.cpp">
<polygon fill="white" stroke="black" points="148,-0.5 148,-21.5 260,-21.5 260,-0.5 148,-0.5"/>
<text text-anchor="middle" x="204" y="-8.5" font-family="Helvetica,sans-Serif" font-size="10.00">dimensionsmain.cpp</text>
</a>
</g>
<!-- Node1&#45;&gt;Node3 -->
<g id="edge4" class="edge"><title>Node1&#45;&gt;Node3</title>
<path fill="none" stroke="midnightblue" d="M867.092,-66.3247C745.273,-61.1626 486.326,-47.972 269,-22 266.159,-21.6605 263.253,-21.2824 260.322,-20.8764"/>
<polygon fill="midnightblue" stroke="midnightblue" points="867.252,-69.8344 877.389,-66.7557 867.544,-62.8405 867.252,-69.8344"/>
</g>
<!-- Node4 -->
<g id="node7" class="node"><title>Node4</title>
<a xlink:href="pagetabbar_8cpp.htm" target="_top" xlink:title="pagetabbar.cpp">
<polygon fill="white" stroke="black" points="277.5,-0.5 277.5,-21.5 366.5,-21.5 366.5,-0.5 277.5,-0.5"/>
<text text-anchor="middle" x="322" y="-8.5" font-family="Helvetica,sans-Serif" font-size="10.00">pagetabbar.cpp</text>
</a>
</g>
<!-- Node1&#45;&gt;Node4 -->
<g id="edge6" class="edge"><title>Node1&#45;&gt;Node4</title>
<path fill="none" stroke="midnightblue" d="M866.949,-65.874C760.313,-60.5 551.06,-47.5363 375,-22 372.303,-21.6088 369.537,-21.1651 366.752,-20.6858"/>
<polygon fill="midnightblue" stroke="midnightblue" points="867.094,-69.3855 877.255,-66.3858 867.441,-62.3941 867.094,-69.3855"/>
</g>
<!-- Node5 -->
<g id="node9" class="node"><title>Node5</title>
<a xlink:href="quicklaunchbar_8cpp.htm" target="_top" xlink:title="quicklaunchbar.cpp">
<polygon fill="white" stroke="black" points="384,-0.5 384,-21.5 490,-21.5 490,-0.5 384,-0.5"/>
<text text-anchor="middle" x="437" y="-8.5" font-family="Helvetica,sans-Serif" font-size="10.00">quicklaunchbar.cpp</text>
</a>
</g>
<!-- Node1&#45;&gt;Node5 -->
<g id="edge8" class="edge"><title>Node1&#45;&gt;Node5</title>
<path fill="none" stroke="midnightblue" d="M867.361,-63.0154C780.8,-55.2343 628.643,-40.434 499,-22 496.078,-21.5845 493.082,-21.1343 490.061,-20.6613"/>
<polygon fill="midnightblue" stroke="midnightblue" points="867.057,-66.5021 877.329,-63.9064 867.68,-59.5299 867.057,-66.5021"/>
</g>
<!-- Node6 -->
<g id="node11" class="node"><title>Node6</title>
<a xlink:href="icon_8cpp.htm" target="_top" xlink:title="icon.cpp">
<polygon fill="white" stroke="black" points="508,-0.5 508,-21.5 564,-21.5 564,-0.5 508,-0.5"/>
<text text-anchor="middle" x="536" y="-8.5" font-family="Helvetica,sans-Serif" font-size="10.00">icon.cpp</text>
</a>
</g>
<!-- Node1&#45;&gt;Node6 -->
<g id="edge10" class="edge"><title>Node1&#45;&gt;Node6</title>
<path fill="none" stroke="midnightblue" d="M867.152,-63.3388C793.459,-56.5857 674.212,-43.4342 573,-22 570.115,-21.3891 567.129,-20.6632 564.162,-19.88"/>
<polygon fill="midnightblue" stroke="midnightblue" points="866.967,-66.8363 877.241,-64.2494 867.597,-59.8646 866.967,-66.8363"/>
</g>
<!-- Node7 -->
<g id="node13" class="node"><title>Node7</title>
<a xlink:href="alphabetpage_8cpp.htm" target="_top" xlink:title="alphabetpage.cpp">
<polygon fill="white" stroke="black" points="581.5,-0.5 581.5,-21.5 682.5,-21.5 682.5,-0.5 581.5,-0.5"/>
<text text-anchor="middle" x="632" y="-8.5" font-family="Helvetica,sans-Serif" font-size="10.00">alphabetpage.cpp</text>
</a>
</g>
<!-- Node1&#45;&gt;Node7 -->
<g id="edge12" class="edge"><title>Node1&#45;&gt;Node7</title>
<path fill="none" stroke="midnightblue" d="M871.856,-56.6121C815.322,-45.8613 734.621,-30.5148 682.769,-20.6543"/>
<polygon fill="midnightblue" stroke="midnightblue" points="871.289,-60.0668 881.767,-58.4966 872.597,-53.19 871.289,-60.0668"/>
</g>
<!-- Node8 -->
<g id="node15" class="node"><title>Node8</title>
<a xlink:href="reorderableiconlayout_8cpp.htm" target="_top" xlink:title="reorderableiconlayout.cpp">
<polygon fill="white" stroke="black" points="700,-0.5 700,-21.5 838,-21.5 838,-0.5 700,-0.5"/>
<text text-anchor="middle" x="769" y="-8.5" font-family="Helvetica,sans-Serif" font-size="10.00">reorderableiconlayout.cpp</text>
</a>
</g>
<!-- Node1&#45;&gt;Node8 -->
<g id="edge14" class="edge"><title>Node1&#45;&gt;Node8</title>
<path fill="none" stroke="midnightblue" d="M896.866,-55.1443C866.97,-44.8229 826.769,-30.9439 799.481,-21.5231"/>
<polygon fill="midnightblue" stroke="midnightblue" points="895.982,-58.5416 906.576,-58.4966 898.266,-51.9248 895.982,-58.5416"/>
</g>
<!-- Node9 -->
<g id="node17" class="node"><title>Node9</title>
<a xlink:href="page_8cpp.htm" target="_top" xlink:title="page.cpp">
<polygon fill="white" stroke="black" points="856,-0.5 856,-21.5 916,-21.5 916,-0.5 856,-0.5"/>
<text text-anchor="middle" x="886" y="-8.5" font-family="Helvetica,sans-Serif" font-size="10.00">page.cpp</text>
</a>
</g>
<!-- Node1&#45;&gt;Node9 -->
<g id="edge16" class="edge"><title>Node1&#45;&gt;Node9</title>
<path fill="none" stroke="midnightblue" d="M921.023,-50.8299C912.562,-41.2078 902.468,-29.7282 895.295,-21.5707"/>
<polygon fill="midnightblue" stroke="midnightblue" points="918.414,-53.1634 927.646,-58.3619 923.671,-48.541 918.414,-53.1634"/>
</g>
<!-- Node10 -->
<g id="node19" class="node"><title>Node10</title>
<a xlink:href="pagemovement_8cpp.htm" target="_top" xlink:title="pagemovement.cpp">
<polygon fill="white" stroke="black" points="933.5,-0.5 933.5,-21.5 1042.5,-21.5 1042.5,-0.5 933.5,-0.5"/>
<text text-anchor="middle" x="988" y="-8.5" font-family="Helvetica,sans-Serif" font-size="10.00">pagemovement.cpp</text>
</a>
</g>
<!-- Node1&#45;&gt;Node10 -->
<g id="edge18" class="edge"><title>Node1&#45;&gt;Node10</title>
<path fill="none" stroke="midnightblue" d="M952.977,-50.8299C961.438,-41.2078 971.532,-29.7282 978.705,-21.5707"/>
<polygon fill="midnightblue" stroke="midnightblue" points="950.329,-48.541 946.354,-58.3619 955.586,-53.1634 950.329,-48.541"/>
</g>
<!-- Node11 -->
<g id="node21" class="node"><title>Node11</title>
<a xlink:href="reorderablepage_8cpp.htm" target="_top" xlink:title="reorderablepage.cpp">
<polygon fill="white" stroke="black" points="1059.5,-0.5 1059.5,-21.5 1174.5,-21.5 1174.5,-0.5 1059.5,-0.5"/>
<text text-anchor="middle" x="1117" y="-8.5" font-family="Helvetica,sans-Serif" font-size="10.00">reorderablepage.cpp</text>
</a>
</g>
<!-- Node1&#45;&gt;Node11 -->
<g id="edge20" class="edge"><title>Node1&#45;&gt;Node11</title>
<path fill="none" stroke="midnightblue" d="M979.167,-55.4127C1011.28,-45.0646 1054.85,-31.0258 1084.34,-21.5231"/>
<polygon fill="midnightblue" stroke="midnightblue" points="978.041,-52.0983 969.597,-58.4966 980.188,-58.761 978.041,-52.0983"/>
</g>
<!-- Node12 -->
<g id="node23" class="node"><title>Node12</title>
<a xlink:href="overlaylayer_8cpp.htm" target="_top" xlink:title="overlaylayer.cpp">
<polygon fill="white" stroke="black" points="1192,-0.5 1192,-21.5 1286,-21.5 1286,-0.5 1192,-0.5"/>
<text text-anchor="middle" x="1239" y="-8.5" font-family="Helvetica,sans-Serif" font-size="10.00">overlaylayer.cpp</text>
</a>
</g>
<!-- Node1&#45;&gt;Node12 -->
<g id="edge22" class="edge"><title>Node1&#45;&gt;Node12</title>
<path fill="none" stroke="midnightblue" d="M1002.65,-56.5521C1052.22,-47.1316 1121.9,-33.8379 1183,-22 1185.92,-21.4346 1188.92,-20.8507 1191.95,-20.2604"/>
<polygon fill="midnightblue" stroke="midnightblue" points="1001.88,-53.1371 992.705,-58.4423 1003.18,-60.0141 1001.88,-53.1371"/>
</g>
<!-- Node13 -->
<g id="node25" class="node"><title>Node13</title>
<a xlink:href="vcamera_8cpp.htm" target="_top" xlink:title="vcamera.cpp">
<polygon fill="white" stroke="black" points="1303.5,-0.5 1303.5,-21.5 1380.5,-21.5 1380.5,-0.5 1303.5,-0.5"/>
<text text-anchor="middle" x="1342" y="-8.5" font-family="Helvetica,sans-Serif" font-size="10.00">vcamera.cpp</text>
</a>
</g>
<!-- Node1&#45;&gt;Node13 -->
<g id="edge24" class="edge"><title>Node1&#45;&gt;Node13</title>
<path fill="none" stroke="midnightblue" d="M1006.86,-61.9065C1079.25,-54.0708 1195.51,-40.126 1295,-22 1297.72,-21.5043 1300.52,-20.9536 1303.34,-20.3703"/>
<polygon fill="midnightblue" stroke="midnightblue" points="1006.08,-58.4706 996.51,-63.018 1006.83,-65.4306 1006.08,-58.4706"/>
</g>
<!-- Node14 -->
<g id="node27" class="node"><title>Node14</title>
<a xlink:href="groupanchoritem_8cpp.htm" target="_top" xlink:title="groupanchoritem.cpp">
<polygon fill="white" stroke="black" points="1398,-0.5 1398,-21.5 1514,-21.5 1514,-0.5 1398,-0.5"/>
<text text-anchor="middle" x="1456" y="-8.5" font-family="Helvetica,sans-Serif" font-size="10.00">groupanchoritem.cpp</text>
</a>
</g>
<!-- Node1&#45;&gt;Node14 -->
<g id="edge26" class="edge"><title>Node1&#45;&gt;Node14</title>
<path fill="none" stroke="midnightblue" d="M1006.69,-63.0419C1095.6,-55.1451 1254.03,-40.0803 1389,-22 1391.92,-21.6087 1394.91,-21.189 1397.93,-20.75"/>
<polygon fill="midnightblue" stroke="midnightblue" points="1006.38,-59.5557 996.725,-63.9228 1006.99,-66.5285 1006.38,-59.5557"/>
</g>
<!-- Node15 -->
<g id="node29" class="node"><title>Node15</title>
<a xlink:href="appeffector_8cpp.htm" target="_top" xlink:title="appeffector.cpp">
<polygon fill="white" stroke="black" points="1532,-0.5 1532,-21.5 1622,-21.5 1622,-0.5 1532,-0.5"/>
<text text-anchor="middle" x="1577" y="-8.5" font-family="Helvetica,sans-Serif" font-size="10.00">appeffector.cpp</text>
</a>
</g>
<!-- Node1&#45;&gt;Node15 -->
<g id="edge28" class="edge"><title>Node1&#45;&gt;Node15</title>
<path fill="none" stroke="midnightblue" d="M1007.05,-66.1228C1117.27,-60.9802 1337.73,-48.2025 1523,-22 1525.94,-21.5847 1528.95,-21.1086 1531.99,-20.5927"/>
<polygon fill="midnightblue" stroke="midnightblue" points="1006.57,-62.6415 996.737,-66.5969 1006.89,-69.6341 1006.57,-62.6415"/>
</g>
<!-- Node16 -->
<g id="node31" class="node"><title>Node16</title>
<a xlink:href="appmonitor_8cpp.htm" target="_top" xlink:title="appmonitor.cpp">
<polygon fill="white" stroke="black" points="1639.5,-0.5 1639.5,-21.5 1728.5,-21.5 1728.5,-0.5 1639.5,-0.5"/>
<text text-anchor="middle" x="1684" y="-8.5" font-family="Helvetica,sans-Serif" font-size="10.00">appmonitor.cpp</text>
</a>
</g>
<!-- Node1&#45;&gt;Node16 -->
<g id="edge30" class="edge"><title>Node1&#45;&gt;Node16</title>
<path fill="none" stroke="midnightblue" d="M1006.93,-67.4296C1132.45,-63.9076 1404.07,-53.0842 1631,-22 1633.7,-21.6302 1636.47,-21.2029 1639.26,-20.7361"/>
<polygon fill="midnightblue" stroke="midnightblue" points="1006.59,-63.9373 996.693,-67.7096 1006.79,-70.9347 1006.59,-63.9373"/>
</g>
<!-- Node17 -->
<g id="node33" class="node"><title>Node17</title>
<a xlink:href="pagesaver_8cpp.htm" target="_top" xlink:title="pagesaver.cpp">
<polygon fill="white" stroke="black" points="1746,-0.5 1746,-21.5 1832,-21.5 1832,-0.5 1746,-0.5"/>
<text text-anchor="middle" x="1789" y="-8.5" font-family="Helvetica,sans-Serif" font-size="10.00">pagesaver.cpp</text>
</a>
</g>
<!-- Node1&#45;&gt;Node17 -->
<g id="edge32" class="edge"><title>Node1&#45;&gt;Node17</title>
<path fill="none" stroke="midnightblue" d="M1006.76,-66.246C1174.49,-59.4077 1596.79,-40.8406 1737,-22 1739.93,-21.6068 1742.93,-21.1399 1745.96,-20.6241"/>
<polygon fill="midnightblue" stroke="midnightblue" points="1006.42,-62.7571 996.568,-66.66 1006.7,-69.7513 1006.42,-62.7571"/>
</g>
</g>
</svg>
