<?xml version="1.0" encoding="UTF-8" standalone="no"?>
<!DOCTYPE svg PUBLIC "-//W3C//DTD SVG 1.1//EN"
 "http://www.w3.org/Graphics/SVG/1.1/DTD/svg11.dtd">
<!-- Generated by graphviz version 2.26.3 (20100126.1600)
 -->
<!-- Title: dimensionsglobal.cpp Pages: 1 -->
<svg width="2304pt" height="320pt"
 viewBox="0.00 0.00 2304.00 320.00" xmlns="http://www.w3.org/2000/svg" xmlns:xlink="http://www.w3.org/1999/xlink">
<g id="graph1" class="graph" transform="scale(1 1) rotate(0) translate(4 316)">
<title>dimensionsglobal.cpp</title>
<polygon fill="white" stroke="white" points="-4,5 -4,-316 2301,-316 2301,5 -4,5"/>
<!-- Node1 -->
<g id="node1" class="node"><title>Node1</title>
<polygon fill="#bfbfbf" stroke="black" points="1743.5,-290.5 1743.5,-311.5 1860.5,-311.5 1860.5,-290.5 1743.5,-290.5"/>
<text text-anchor="middle" x="1802" y="-298.5" font-family="Helvetica,sans-Serif" font-size="10.00">dimensionsglobal.cpp</text>
</g>
<!-- Node2 -->
<g id="node3" class="node"><title>Node2</title>
<a xlink:href="dimensionsglobal_8h.htm" target="_top" xlink:title="dimensionsglobal.h">
<polygon fill="white" stroke="black" points="807,-232.5 807,-253.5 913,-253.5 913,-232.5 807,-232.5"/>
<text text-anchor="middle" x="860" y="-240.5" font-family="Helvetica,sans-Serif" font-size="10.00">dimensionsglobal.h</text>
</a>
</g>
<!-- Node1&#45;&gt;Node2 -->
<g id="edge2" class="edge"><title>Node1&#45;&gt;Node2</title>
<path fill="none" stroke="midnightblue" d="M1743.43,-297.394C1576.02,-287.086 1096.39,-257.555 923.277,-246.896"/>
<polygon fill="midnightblue" stroke="midnightblue" points="923.253,-243.388 913.057,-246.267 922.823,-250.375 923.253,-243.388"/>
</g>
<!-- Node11 -->
<g id="node21" class="node"><title>Node11</title>
<a xlink:href="WindowServer_8h.htm" target="_top" xlink:title="WindowServer.h">
<polygon fill="white" stroke="black" points="1106,-174.5 1106,-195.5 1200,-195.5 1200,-174.5 1106,-174.5"/>
<text text-anchor="middle" x="1153" y="-182.5" font-family="Helvetica,sans-Serif" font-size="10.00">WindowServer.h</text>
</a>
</g>
<!-- Node1&#45;&gt;Node11 -->
<g id="edge20" class="edge"><title>Node1&#45;&gt;Node11</title>
<path fill="none" stroke="midnightblue" d="M1743.26,-290.501C1619.44,-268.369 1332.96,-217.165 1210.35,-195.251"/>
<polygon fill="midnightblue" stroke="midnightblue" points="1210.87,-191.788 1200.41,-193.474 1209.64,-198.679 1210.87,-191.788"/>
</g>
<!-- Node44 -->
<g id="node109" class="node"><title>Node44</title>
<a xlink:href="WindowServerLuna_8h.htm" target="_top" xlink:title="WindowServerLuna.h">
<polygon fill="white" stroke="black" points="1681.5,-232.5 1681.5,-253.5 1798.5,-253.5 1798.5,-232.5 1681.5,-232.5"/>
<text text-anchor="middle" x="1740" y="-240.5" font-family="Helvetica,sans-Serif" font-size="10.00">WindowServerLuna.h</text>
</a>
</g>
<!-- Node1&#45;&gt;Node44 -->
<g id="edge130" class="edge"><title>Node1&#45;&gt;Node44</title>
<path fill="none" stroke="midnightblue" d="M1790.63,-290.362C1781.71,-282.023 1769.12,-270.242 1758.72,-260.516"/>
<polygon fill="midnightblue" stroke="midnightblue" points="1760.99,-257.846 1751.3,-253.571 1756.21,-262.958 1760.99,-257.846"/>
</g>
<!-- Node48 -->
<g id="node128" class="node"><title>Node48</title>
<polygon fill="white" stroke="#bfbfbf" points="1816,-232.5 1816,-253.5 1914,-253.5 1914,-232.5 1816,-232.5"/>
<text text-anchor="middle" x="1865" y="-240.5" font-family="Helvetica,sans-Serif" font-size="10.00">QGraphicsScene</text>
</g>
<!-- Node1&#45;&gt;Node48 -->
<g id="edge160" class="edge"><title>Node1&#45;&gt;Node48</title>
<path fill="none" stroke="midnightblue" d="M1813.56,-290.362C1822.61,-282.023 1835.41,-270.242 1845.97,-260.516"/>
<polygon fill="midnightblue" stroke="midnightblue" points="1848.53,-262.919 1853.52,-253.571 1843.79,-257.769 1848.53,-262.919"/>
</g>
<!-- Node49 -->
<g id="node130" class="node"><title>Node49</title>
<polygon fill="white" stroke="#bfbfbf" points="1932,-232.5 1932,-253.5 1982,-253.5 1982,-232.5 1932,-232.5"/>
<text text-anchor="middle" x="1957" y="-240.5" font-family="Helvetica,sans-Serif" font-size="10.00">QState</text>
</g>
<!-- Node1&#45;&gt;Node49 -->
<g id="edge162" class="edge"><title>Node1&#45;&gt;Node49</title>
<path fill="none" stroke="midnightblue" d="M1830.07,-290.497C1855.94,-280.815 1894.43,-266.413 1922.24,-256.007"/>
<polygon fill="midnightblue" stroke="midnightblue" points="1923.82,-259.154 1931.96,-252.371 1921.36,-252.597 1923.82,-259.154"/>
</g>
<!-- Node50 -->
<g id="node132" class="node"><title>Node50</title>
<polygon fill="white" stroke="#bfbfbf" points="2000,-232.5 2000,-253.5 2090,-253.5 2090,-232.5 2000,-232.5"/>
<text text-anchor="middle" x="2045" y="-240.5" font-family="Helvetica,sans-Serif" font-size="10.00">QStateMachine</text>
</g>
<!-- Node1&#45;&gt;Node50 -->
<g id="edge164" class="edge"><title>Node1&#45;&gt;Node50</title>
<path fill="none" stroke="midnightblue" d="M1846.01,-290.497C1886.74,-280.775 1947.41,-266.294 1991.04,-255.879"/>
<polygon fill="midnightblue" stroke="midnightblue" points="1992,-259.249 2000.91,-253.523 1990.37,-252.44 1992,-259.249"/>
</g>
<!-- Node3 -->
<g id="node5" class="node"><title>Node3</title>
<polygon fill="white" stroke="#bfbfbf" points="617.5,-174.5 617.5,-195.5 676.5,-195.5 676.5,-174.5 617.5,-174.5"/>
<text text-anchor="middle" x="647" y="-182.5" font-family="Helvetica,sans-Serif" font-size="10.00">qglobal.h</text>
</g>
<!-- Node2&#45;&gt;Node3 -->
<g id="edge4" class="edge"><title>Node2&#45;&gt;Node3</title>
<path fill="none" stroke="midnightblue" d="M819.975,-232.487C786.616,-223.671 737.594,-210.595 686.712,-196.449"/>
<polygon fill="midnightblue" stroke="midnightblue" points="687.428,-193.015 676.855,-193.702 685.548,-199.758 687.428,-193.015"/>
</g>
<!-- Node4 -->
<g id="node7" class="node"><title>Node4</title>
<polygon fill="white" stroke="#bfbfbf" points="694,-174.5 694,-195.5 748,-195.5 748,-174.5 694,-174.5"/>
<text text-anchor="middle" x="721" y="-182.5" font-family="Helvetica,sans-Serif" font-size="10.00">qmath.h</text>
</g>
<!-- Node2&#45;&gt;Node4 -->
<g id="edge6" class="edge"><title>Node2&#45;&gt;Node4</title>
<path fill="none" stroke="midnightblue" d="M834.828,-232.497C812.727,-223.275 780.361,-209.769 755.787,-199.515"/>
<polygon fill="midnightblue" stroke="midnightblue" points="757.031,-196.242 746.454,-195.621 754.335,-202.702 757.031,-196.242"/>
</g>
<!-- Node5 -->
<g id="node9" class="node"><title>Node5</title>
<polygon fill="white" stroke="#bfbfbf" points="765.5,-174.5 765.5,-195.5 818.5,-195.5 818.5,-174.5 765.5,-174.5"/>
<text text-anchor="middle" x="792" y="-182.5" font-family="Helvetica,sans-Serif" font-size="10.00">QRectF</text>
</g>
<!-- Node2&#45;&gt;Node5 -->
<g id="edge8" class="edge"><title>Node2&#45;&gt;Node5</title>
<path fill="none" stroke="midnightblue" d="M847.528,-232.362C837.655,-223.941 823.667,-212.011 812.202,-202.231"/>
<polygon fill="midnightblue" stroke="midnightblue" points="814.273,-199.397 804.393,-195.571 809.73,-204.723 814.273,-199.397"/>
</g>
<!-- Node6 -->
<g id="node11" class="node"><title>Node6</title>
<polygon fill="white" stroke="#bfbfbf" points="835.5,-174.5 835.5,-195.5 884.5,-195.5 884.5,-174.5 835.5,-174.5"/>
<text text-anchor="middle" x="860" y="-182.5" font-family="Helvetica,sans-Serif" font-size="10.00">QPoint</text>
</g>
<!-- Node2&#45;&gt;Node6 -->
<g id="edge10" class="edge"><title>Node2&#45;&gt;Node6</title>
<path fill="none" stroke="midnightblue" d="M860,-232.362C860,-224.922 860,-214.743 860,-205.728"/>
<polygon fill="midnightblue" stroke="midnightblue" points="863.5,-205.571 860,-195.571 856.5,-205.571 863.5,-205.571"/>
</g>
<!-- Node7 -->
<g id="node13" class="node"><title>Node7</title>
<polygon fill="white" stroke="#bfbfbf" points="901.5,-174.5 901.5,-195.5 956.5,-195.5 956.5,-174.5 901.5,-174.5"/>
<text text-anchor="middle" x="929" y="-182.5" font-family="Helvetica,sans-Serif" font-size="10.00">QPointF</text>
</g>
<!-- Node2&#45;&gt;Node7 -->
<g id="edge12" class="edge"><title>Node2&#45;&gt;Node7</title>
<path fill="none" stroke="midnightblue" d="M872.656,-232.362C882.674,-223.941 896.867,-212.011 908.501,-202.231"/>
<polygon fill="midnightblue" stroke="midnightblue" points="911.022,-204.684 916.425,-195.571 906.518,-199.326 911.022,-204.684"/>
</g>
<!-- Node8 -->
<g id="node15" class="node"><title>Node8</title>
<polygon fill="white" stroke="#bfbfbf" points="974,-174.5 974,-195.5 1020,-195.5 1020,-174.5 974,-174.5"/>
<text text-anchor="middle" x="997" y="-182.5" font-family="Helvetica,sans-Serif" font-size="10.00">QUuid</text>
</g>
<!-- Node2&#45;&gt;Node8 -->
<g id="edge14" class="edge"><title>Node2&#45;&gt;Node8</title>
<path fill="none" stroke="midnightblue" d="M884.81,-232.497C907.137,-223.044 940.094,-209.092 964.516,-198.752"/>
<polygon fill="midnightblue" stroke="midnightblue" points="965.901,-201.967 973.745,-194.845 963.172,-195.521 965.901,-201.967"/>
</g>
<!-- Node9 -->
<g id="node17" class="node"><title>Node9</title>
<polygon fill="white" stroke="#bfbfbf" points="1038,-174.5 1038,-195.5 1088,-195.5 1088,-174.5 1038,-174.5"/>
<text text-anchor="middle" x="1063" y="-182.5" font-family="Helvetica,sans-Serif" font-size="10.00">QHash</text>
</g>
<!-- Node2&#45;&gt;Node9 -->
<g id="edge16" class="edge"><title>Node2&#45;&gt;Node9</title>
<path fill="none" stroke="midnightblue" d="M899.745,-232.448C931.932,-223.791 978.666,-210.969 1027.91,-196.254"/>
<polygon fill="midnightblue" stroke="midnightblue" points="1029.22,-199.516 1037.79,-193.287 1027.2,-192.812 1029.22,-199.516"/>
</g>
<!-- Node10 -->
<g id="node19" class="node"><title>Node10</title>
<polygon fill="white" stroke="#bfbfbf" points="520,-174.5 520,-195.5 600,-195.5 600,-174.5 520,-174.5"/>
<text text-anchor="middle" x="560" y="-182.5" font-family="Helvetica,sans-Serif" font-size="10.00">QVariantMap</text>
</g>
<!-- Node2&#45;&gt;Node10 -->
<g id="edge18" class="edge"><title>Node2&#45;&gt;Node10</title>
<path fill="none" stroke="midnightblue" d="M806.521,-233.557C757.818,-224.829 683.668,-211.218 610.003,-196.158"/>
<polygon fill="midnightblue" stroke="midnightblue" points="610.586,-192.705 600.086,-194.121 609.178,-199.562 610.586,-192.705"/>
</g>
<!-- Node12 -->
<g id="node23" class="node"><title>Node12</title>
<polygon fill="white" stroke="#bfbfbf" points="1253.5,-0.5 1253.5,-21.5 1320.5,-21.5 1320.5,-0.5 1253.5,-0.5"/>
<text text-anchor="middle" x="1287" y="-8.5" font-family="Helvetica,sans-Serif" font-size="10.00">Common.h</text>
</g>
<!-- Node11&#45;&gt;Node12 -->
<g id="edge22" class="edge"><title>Node11&#45;&gt;Node12</title>
<path fill="none" stroke="midnightblue" d="M1119.51,-174.408C1089.17,-162.87 1051.4,-142.469 1067,-116 1083.77,-87.5487 1103.26,-96.2738 1132,-80 1148.98,-70.3831 1152.46,-66.5479 1170,-58 1195.31,-45.6672 1224.72,-33.8624 1247.73,-25.1684"/>
<polygon fill="midnightblue" stroke="midnightblue" points="1249.02,-28.4211 1257.16,-21.6404 1246.57,-21.8645 1249.02,-28.4211"/>
</g>
<!-- Node13 -->
<g id="node25" class="node"><title>Node13</title>
<polygon fill="white" stroke="#bfbfbf" points="317.5,-0.5 317.5,-21.5 346.5,-21.5 346.5,-0.5 317.5,-0.5"/>
<text text-anchor="middle" x="332" y="-8.5" font-family="Helvetica,sans-Serif" font-size="10.00">list</text>
</g>
<!-- Node11&#45;&gt;Node13 -->
<g id="edge24" class="edge"><title>Node11&#45;&gt;Node13</title>
<path fill="none" stroke="midnightblue" d="M1105.72,-175.203C1102.78,-174.751 1099.85,-174.344 1097,-174 924.289,-153.178 478.665,-196.963 315,-138 268.572,-121.274 212.056,-99.9791 238,-58 253.071,-33.6143 285.05,-21.4578 307.506,-15.7048"/>
<polygon fill="midnightblue" stroke="midnightblue" points="308.398,-19.0911 317.354,-13.4303 306.823,-12.2707 308.398,-19.0911"/>
</g>
<!-- Node14 -->
<g id="node27" class="node"><title>Node14</title>
<polygon fill="white" stroke="#bfbfbf" points="246.5,-58.5 246.5,-79.5 289.5,-79.5 289.5,-58.5 246.5,-58.5"/>
<text text-anchor="middle" x="268" y="-66.5" font-family="Helvetica,sans-Serif" font-size="10.00">string</text>
</g>
<!-- Node11&#45;&gt;Node14 -->
<g id="edge26" class="edge"><title>Node11&#45;&gt;Node14</title>
<path fill="none" stroke="midnightblue" d="M1105.72,-175.211C1102.78,-174.757 1099.85,-174.347 1097,-174 933.129,-154.038 509.53,-196.077 355,-138 326.621,-127.334 300.277,-103.733 284.177,-87.1145"/>
<polygon fill="midnightblue" stroke="midnightblue" points="286.527,-84.5036 277.133,-79.6046 281.421,-89.2926 286.527,-84.5036"/>
</g>
<!-- Node15 -->
<g id="node29" class="node"><title>Node15</title>
<a xlink:href="DisplayManager_8h.htm" target="_top" xlink:title="DisplayManager.h">
<polygon fill="white" stroke="black" points="732,-116.5 732,-137.5 834,-137.5 834,-116.5 732,-116.5"/>
<text text-anchor="middle" x="783" y="-124.5" font-family="Helvetica,sans-Serif" font-size="10.00">DisplayManager.h</text>
</a>
</g>
<!-- Node11&#45;&gt;Node15 -->
<g id="edge28" class="edge"><title>Node11&#45;&gt;Node15</title>
<path fill="none" stroke="midnightblue" d="M1105.98,-175.593C1102.94,-175.039 1099.93,-174.503 1097,-174 988.527,-155.388 960.789,-154.664 852,-138 849.482,-137.614 846.913,-137.218 844.318,-136.815"/>
<polygon fill="midnightblue" stroke="midnightblue" points="844.654,-133.325 834.234,-135.239 843.573,-140.241 844.654,-133.325"/>
</g>
<!-- Node24 -->
<g id="node53" class="node"><title>Node24</title>
<polygon fill="white" stroke="#bfbfbf" points="1068.5,-58.5 1068.5,-79.5 1123.5,-79.5 1123.5,-58.5 1068.5,-58.5"/>
<text text-anchor="middle" x="1096" y="-66.5" font-family="Helvetica,sans-Serif" font-size="10.00">QObject</text>
</g>
<!-- Node11&#45;&gt;Node24 -->
<g id="edge114" class="edge"><title>Node11&#45;&gt;Node24</title>
<path fill="none" stroke="midnightblue" d="M1111.16,-174.409C1069.71,-163.496 1011.49,-146.866 1005,-138 986.433,-112.623 1025.8,-92.2071 1058.44,-80.3448"/>
<polygon fill="midnightblue" stroke="midnightblue" points="1059.97,-83.5172 1068.28,-76.9419 1057.69,-76.9014 1059.97,-83.5172"/>
</g>
<!-- Node25 -->
<g id="node56" class="node"><title>Node25</title>
<a xlink:href="InputManager_8h.htm" target="_top" xlink:title="InputManager.h">
<polygon fill="white" stroke="red" points="363.5,-116.5 363.5,-137.5 454.5,-137.5 454.5,-116.5 363.5,-116.5"/>
<text text-anchor="middle" x="409" y="-124.5" font-family="Helvetica,sans-Serif" font-size="10.00">InputManager.h</text>
</a>
</g>
<!-- Node11&#45;&gt;Node25 -->
<g id="edge62" class="edge"><title>Node11&#45;&gt;Node25</title>
<path fill="none" stroke="midnightblue" d="M1105.71,-175.277C1102.77,-174.807 1099.85,-174.376 1097,-174 863.395,-143.202 582.343,-131.979 464.866,-128.436"/>
<polygon fill="midnightblue" stroke="midnightblue" points="464.781,-124.933 454.682,-128.136 464.575,-131.93 464.781,-124.933"/>
</g>
<!-- Node27 -->
<g id="node65" class="node"><title>Node27</title>
<polygon fill="white" stroke="#bfbfbf" points="861,-116.5 861,-137.5 953,-137.5 953,-116.5 861,-116.5"/>
<text text-anchor="middle" x="907" y="-124.5" font-family="Helvetica,sans-Serif" font-size="10.00">CustomEvents.h</text>
</g>
<!-- Node11&#45;&gt;Node27 -->
<g id="edge76" class="edge"><title>Node11&#45;&gt;Node27</title>
<path fill="none" stroke="midnightblue" d="M1108.45,-174.497C1067.22,-164.775 1005.8,-150.294 961.624,-139.879"/>
<polygon fill="midnightblue" stroke="midnightblue" points="962.169,-136.411 951.632,-137.523 960.562,-143.225 962.169,-136.411"/>
</g>
<!-- Node28 -->
<g id="node67" class="node"><title>Node28</title>
<a xlink:href="VariantAnimation_8h.htm" target="_top" xlink:title="VariantAnimation.h">
<polygon fill="white" stroke="red" points="1824.5,-116.5 1824.5,-137.5 1929.5,-137.5 1929.5,-116.5 1824.5,-116.5"/>
<text text-anchor="middle" x="1877" y="-124.5" font-family="Helvetica,sans-Serif" font-size="10.00">VariantAnimation.h</text>
</a>
</g>
<!-- Node11&#45;&gt;Node28 -->
<g id="edge78" class="edge"><title>Node11&#45;&gt;Node28</title>
<path fill="none" stroke="midnightblue" d="M1200.17,-181.226C1299.85,-173.252 1539.24,-154.097 1740,-138 1764.24,-136.056 1790.89,-133.917 1814.2,-132.045"/>
<polygon fill="midnightblue" stroke="midnightblue" points="1814.62,-135.523 1824.3,-131.234 1814.06,-128.546 1814.62,-135.523"/>
</g>
<!-- Node29 -->
<g id="node70" class="node"><title>Node29</title>
<a xlink:href="HostWindow_8h.htm" target="_top" xlink:title="HostWindow.h">
<polygon fill="white" stroke="red" points="1947,-116.5 1947,-137.5 2031,-137.5 2031,-116.5 1947,-116.5"/>
<text text-anchor="middle" x="1989" y="-124.5" font-family="Helvetica,sans-Serif" font-size="10.00">HostWindow.h</text>
</a>
</g>
<!-- Node11&#45;&gt;Node29 -->
<g id="edge82" class="edge"><title>Node11&#45;&gt;Node29</title>
<path fill="none" stroke="midnightblue" d="M1200.07,-183.127C1343.54,-177.271 1774.94,-158.548 1936.54,-137.981"/>
<polygon fill="midnightblue" stroke="midnightblue" points="1937.33,-141.407 1946.79,-136.624 1936.41,-134.467 1937.33,-141.407"/>
</g>
<!-- Node30 -->
<g id="node74" class="node"><title>Node30</title>
<a xlink:href="ProgressAnimation_8h.htm" target="_top" xlink:title="ProgressAnimation.h">
<polygon fill="white" stroke="black" points="1397,-116.5 1397,-137.5 1511,-137.5 1511,-116.5 1397,-116.5"/>
<text text-anchor="middle" x="1454" y="-124.5" font-family="Helvetica,sans-Serif" font-size="10.00">ProgressAnimation.h</text>
</a>
</g>
<!-- Node11&#45;&gt;Node30 -->
<g id="edge88" class="edge"><title>Node11&#45;&gt;Node30</title>
<path fill="none" stroke="midnightblue" d="M1200.03,-175.938C1250.96,-166.124 1332.52,-150.408 1389.43,-139.442"/>
<polygon fill="midnightblue" stroke="midnightblue" points="1390.25,-142.849 1399.4,-137.52 1388.92,-135.976 1390.25,-142.849"/>
</g>
<!-- Node31 -->
<g id="node77" class="node"><title>Node31</title>
<polygon fill="white" stroke="#bfbfbf" points="1315,-58.5 1315,-79.5 1413,-79.5 1413,-58.5 1315,-58.5"/>
<text text-anchor="middle" x="1364" y="-66.5" font-family="Helvetica,sans-Serif" font-size="10.00">QGraphicsObject</text>
</g>
<!-- Node11&#45;&gt;Node31 -->
<g id="edge110" class="edge"><title>Node11&#45;&gt;Node31</title>
<path fill="none" stroke="midnightblue" d="M1158.78,-174.462C1167.63,-159.31 1185.95,-131.49 1209,-116 1237.52,-96.8351 1274.12,-85.2577 1304.6,-78.3909"/>
<polygon fill="midnightblue" stroke="midnightblue" points="1305.63,-81.7496 1314.68,-76.2385 1304.17,-74.904 1305.63,-81.7496"/>
</g>
<!-- Node32 -->
<g id="node79" class="node"><title>Node32</title>
<polygon fill="white" stroke="#bfbfbf" points="1430.5,-58.5 1430.5,-79.5 1489.5,-79.5 1489.5,-58.5 1430.5,-58.5"/>
<text text-anchor="middle" x="1460" y="-66.5" font-family="Helvetica,sans-Serif" font-size="10.00">QPixmap</text>
</g>
<!-- Node11&#45;&gt;Node32 -->
<g id="edge122" class="edge"><title>Node11&#45;&gt;Node32</title>
<path fill="none" stroke="midnightblue" d="M1165.29,-174.319C1185.55,-156.911 1225.37,-123.595 1242,-116 1313.31,-83.4296 1340.6,-98.0899 1420.22,-80.2305"/>
<polygon fill="midnightblue" stroke="midnightblue" points="1421.26,-83.5812 1430.19,-77.8859 1419.66,-76.7669 1421.26,-83.5812"/>
</g>
<!-- Node35 -->
<g id="node85" class="node"><title>Node35</title>
<a xlink:href="TouchPlot_8h.htm" target="_top" xlink:title="TouchPlot.h">
<polygon fill="white" stroke="red" points="1085,-116.5 1085,-137.5 1157,-137.5 1157,-116.5 1085,-116.5"/>
<text text-anchor="middle" x="1121" y="-124.5" font-family="Helvetica,sans-Serif" font-size="10.00">TouchPlot.h</text>
</a>
</g>
<!-- Node11&#45;&gt;Node35 -->
<g id="edge100" class="edge"><title>Node11&#45;&gt;Node35</title>
<path fill="none" stroke="midnightblue" d="M1147.13,-174.362C1142.85,-166.595 1136.91,-155.843 1131.78,-146.546"/>
<polygon fill="midnightblue" stroke="midnightblue" points="1134.73,-144.636 1126.83,-137.571 1128.6,-148.017 1134.73,-144.636"/>
</g>
<!-- Node36 -->
<g id="node89" class="node"><title>Node36</title>
<polygon fill="white" stroke="#bfbfbf" points="1178.5,-58.5 1178.5,-79.5 1259.5,-79.5 1259.5,-58.5 1178.5,-58.5"/>
<text text-anchor="middle" x="1219" y="-66.5" font-family="Helvetica,sans-Serif" font-size="10.00">QTouchEvent</text>
</g>
<!-- Node11&#45;&gt;Node36 -->
<g id="edge112" class="edge"><title>Node11&#45;&gt;Node36</title>
<path fill="none" stroke="midnightblue" d="M1124.92,-174.473C1096.32,-162.115 1058.47,-140.209 1076,-116 1081.77,-108.024 1130.32,-93.1469 1169.27,-82.2605"/>
<polygon fill="midnightblue" stroke="midnightblue" points="1170.23,-85.6264 1178.94,-79.5854 1168.36,-78.8801 1170.23,-85.6264"/>
</g>
<!-- Node37 -->
<g id="node91" class="node"><title>Node37</title>
<polygon fill="white" stroke="#bfbfbf" points="1251,-116.5 1251,-137.5 1341,-137.5 1341,-116.5 1251,-116.5"/>
<text text-anchor="middle" x="1296" y="-124.5" font-family="Helvetica,sans-Serif" font-size="10.00">QGraphicsView</text>
</g>
<!-- Node11&#45;&gt;Node37 -->
<g id="edge108" class="edge"><title>Node11&#45;&gt;Node37</title>
<path fill="none" stroke="midnightblue" d="M1178.9,-174.497C1201.63,-165.275 1234.93,-151.769 1260.21,-141.515"/>
<polygon fill="midnightblue" stroke="midnightblue" points="1261.86,-144.623 1269.81,-137.621 1259.23,-138.136 1261.86,-144.623"/>
</g>
<!-- Node38 -->
<g id="node96" class="node"><title>Node38</title>
<polygon fill="white" stroke="#bfbfbf" points="1529,-116.5 1529,-137.5 1585,-137.5 1585,-116.5 1529,-116.5"/>
<text text-anchor="middle" x="1557" y="-124.5" font-family="Helvetica,sans-Serif" font-size="10.00">QQueue</text>
</g>
<!-- Node11&#45;&gt;Node38 -->
<g id="edge116" class="edge"><title>Node11&#45;&gt;Node38</title>
<path fill="none" stroke="midnightblue" d="M1200.04,-181.425C1268.34,-175.698 1399,-162.731 1518.77,-137.997"/>
<polygon fill="midnightblue" stroke="midnightblue" points="1519.77,-141.362 1528.84,-135.883 1518.33,-134.512 1519.77,-141.362"/>
</g>
<!-- Node39 -->
<g id="node98" class="node"><title>Node39</title>
<polygon fill="white" stroke="#bfbfbf" points="0,-116.5 0,-137.5 48,-137.5 48,-116.5 0,-116.5"/>
<text text-anchor="middle" x="24" y="-124.5" font-family="Helvetica,sans-Serif" font-size="10.00">QTime</text>
</g>
<!-- Node11&#45;&gt;Node39 -->
<g id="edge118" class="edge"><title>Node11&#45;&gt;Node39</title>
<path fill="none" stroke="midnightblue" d="M1105.73,-175.164C1102.78,-174.722 1099.85,-174.328 1097,-174 640.883,-121.647 514.031,-218.533 58.4429,-137.784"/>
<polygon fill="midnightblue" stroke="midnightblue" points="58.7651,-134.286 48.3046,-135.967 57.5305,-141.176 58.7651,-134.286"/>
</g>
<!-- Node40 -->
<g id="node100" class="node"><title>Node40</title>
<polygon fill="white" stroke="#bfbfbf" points="1603,-116.5 1603,-137.5 1655,-137.5 1655,-116.5 1603,-116.5"/>
<text text-anchor="middle" x="1629" y="-124.5" font-family="Helvetica,sans-Serif" font-size="10.00">QTimer</text>
</g>
<!-- Node11&#45;&gt;Node40 -->
<g id="edge120" class="edge"><title>Node11&#45;&gt;Node40</title>
<path fill="none" stroke="midnightblue" d="M1200.14,-183.045C1279.51,-179.088 1444.83,-167.99 1592.62,-137.956"/>
<polygon fill="midnightblue" stroke="midnightblue" points="1593.69,-141.309 1602.77,-135.856 1592.27,-134.454 1593.69,-141.309"/>
</g>
<!-- Node41 -->
<g id="node103" class="node"><title>Node41</title>
<polygon fill="white" stroke="#bfbfbf" points="66,-116.5 66,-137.5 134,-137.5 134,-116.5 66,-116.5"/>
<text text-anchor="middle" x="100" y="-124.5" font-family="Helvetica,sans-Serif" font-size="10.00">QMultiMap</text>
</g>
<!-- Node11&#45;&gt;Node41 -->
<g id="edge124" class="edge"><title>Node11&#45;&gt;Node41</title>
<path fill="none" stroke="midnightblue" d="M1105.73,-175.175C1102.78,-174.73 1099.85,-174.332 1097,-174 678.834,-125.342 564.684,-197.774 144.127,-137.87"/>
<polygon fill="midnightblue" stroke="midnightblue" points="144.532,-134.392 134.135,-136.43 143.533,-141.321 144.532,-134.392"/>
</g>
<!-- Node42 -->
<g id="node105" class="node"><title>Node42</title>
<polygon fill="white" stroke="#bfbfbf" points="1672.5,-116.5 1672.5,-137.5 1731.5,-137.5 1731.5,-116.5 1672.5,-116.5"/>
<text text-anchor="middle" x="1702" y="-124.5" font-family="Helvetica,sans-Serif" font-size="10.00">QPointer</text>
</g>
<!-- Node11&#45;&gt;Node42 -->
<g id="edge126" class="edge"><title>Node11&#45;&gt;Node42</title>
<path fill="none" stroke="midnightblue" d="M1200.27,-183.649C1289.25,-180.459 1487.72,-170.27 1662.38,-138.041"/>
<polygon fill="midnightblue" stroke="midnightblue" points="1663.07,-141.471 1672.26,-136.189 1661.79,-134.591 1663.07,-141.471"/>
</g>
<!-- Node43 -->
<g id="node107" class="node"><title>Node43</title>
<polygon fill="white" stroke="#bfbfbf" points="152,-116.5 152,-137.5 214,-137.5 214,-116.5 152,-116.5"/>
<text text-anchor="middle" x="183" y="-124.5" font-family="Helvetica,sans-Serif" font-size="10.00">QGesture</text>
</g>
<!-- Node11&#45;&gt;Node43 -->
<g id="edge128" class="edge"><title>Node11&#45;&gt;Node43</title>
<path fill="none" stroke="midnightblue" d="M1105.72,-175.187C1102.78,-174.739 1099.85,-174.337 1097,-174 713.12,-128.615 610.74,-192.16 228,-138 226.746,-137.823 225.476,-137.625 224.196,-137.411"/>
<polygon fill="midnightblue" stroke="midnightblue" points="224.8,-133.963 214.317,-135.496 223.468,-140.835 224.8,-133.963"/>
</g>
<!-- Node15&#45;&gt;Node12 -->
<g id="edge30" class="edge"><title>Node15&#45;&gt;Node12</title>
<path fill="none" stroke="midnightblue" d="M834.253,-118.4C892.55,-108.32 983.939,-91.53 1017,-80 1037.27,-72.9309 1039.75,-65.1294 1060,-58 1121.76,-36.2545 1196.7,-23.1656 1243.13,-16.5133"/>
<polygon fill="midnightblue" stroke="midnightblue" points="1243.74,-19.9627 1253.16,-15.1134 1242.77,-13.0299 1243.74,-19.9627"/>
</g>
<!-- Node16 -->
<g id="node32" class="node"><title>Node16</title>
<polygon fill="white" stroke="#bfbfbf" points="665,-0.5 665,-21.5 717,-21.5 717,-0.5 665,-0.5"/>
<text text-anchor="middle" x="691" y="-8.5" font-family="Helvetica,sans-Serif" font-size="10.00">Timer.h</text>
</g>
<!-- Node15&#45;&gt;Node16 -->
<g id="edge32" class="edge"><title>Node15&#45;&gt;Node16</title>
<path fill="none" stroke="midnightblue" d="M773.004,-116.445C764.285,-107.093 751.435,-92.9527 741,-80 727.753,-63.5568 713.734,-43.9997 703.923,-29.9127"/>
<polygon fill="midnightblue" stroke="midnightblue" points="706.697,-27.7708 698.133,-21.5331 700.938,-31.7499 706.697,-27.7708"/>
</g>
<!-- Node17 -->
<g id="node34" class="node"><title>Node17</title>
<polygon fill="white" stroke="#bfbfbf" points="756.5,-58.5 756.5,-79.5 809.5,-79.5 809.5,-58.5 756.5,-58.5"/>
<text text-anchor="middle" x="783" y="-66.5" font-family="Helvetica,sans-Serif" font-size="10.00">Mutex.h</text>
</g>
<!-- Node15&#45;&gt;Node17 -->
<g id="edge34" class="edge"><title>Node15&#45;&gt;Node17</title>
<path fill="none" stroke="midnightblue" d="M783,-116.362C783,-108.922 783,-98.7427 783,-89.7276"/>
<polygon fill="midnightblue" stroke="midnightblue" points="786.5,-89.5706 783,-79.5707 779.5,-89.5707 786.5,-89.5706"/>
</g>
<!-- Node18 -->
<g id="node36" class="node"><title>Node18</title>
<polygon fill="white" stroke="#bfbfbf" points="820,-0.5 820,-21.5 872,-21.5 872,-0.5 820,-0.5"/>
<text text-anchor="middle" x="846" y="-8.5" font-family="Helvetica,sans-Serif" font-size="10.00">Event.h</text>
</g>
<!-- Node15&#45;&gt;Node18 -->
<g id="edge36" class="edge"><title>Node15&#45;&gt;Node18</title>
<path fill="none" stroke="midnightblue" d="M770.695,-116.385C756.193,-102.548 735.549,-77.7796 748,-58 761.598,-36.3968 788.192,-24.5009 810.248,-18.0855"/>
<polygon fill="midnightblue" stroke="midnightblue" points="811.226,-21.4473 820,-15.5084 809.438,-14.6796 811.226,-21.4473"/>
</g>
<!-- Node19 -->
<g id="node38" class="node"><title>Node19</title>
<polygon fill="white" stroke="#bfbfbf" points="826.5,-58.5 826.5,-79.5 869.5,-79.5 869.5,-58.5 826.5,-58.5"/>
<text text-anchor="middle" x="848" y="-66.5" font-family="Helvetica,sans-Serif" font-size="10.00">sptr.h</text>
</g>
<!-- Node15&#45;&gt;Node19 -->
<g id="edge38" class="edge"><title>Node15&#45;&gt;Node19</title>
<path fill="none" stroke="midnightblue" d="M794.922,-116.362C804.359,-107.941 817.73,-96.0105 828.69,-86.2308"/>
<polygon fill="midnightblue" stroke="midnightblue" points="831.022,-88.8401 836.154,-79.5707 826.362,-83.6171 831.022,-88.8401"/>
</g>
<!-- Node20 -->
<g id="node40" class="node"><title>Node20</title>
<a xlink:href="AmbientLightSensor_8h.htm" target="_top" xlink:title="AmbientLightSensor.h">
<polygon fill="white" stroke="black" points="544.5,-58.5 544.5,-79.5 663.5,-79.5 663.5,-58.5 544.5,-58.5"/>
<text text-anchor="middle" x="604" y="-66.5" font-family="Helvetica,sans-Serif" font-size="10.00">AmbientLightSensor.h</text>
</a>
</g>
<!-- Node15&#45;&gt;Node20 -->
<g id="edge40" class="edge"><title>Node15&#45;&gt;Node20</title>
<path fill="none" stroke="midnightblue" d="M750.584,-116.497C721.276,-107 677.952,-92.9619 645.999,-82.6087"/>
<polygon fill="midnightblue" stroke="midnightblue" points="647.068,-79.276 636.476,-79.5231 644.911,-85.9352 647.068,-79.276"/>
</g>
<!-- Node21 -->
<g id="node43" class="node"><title>Node21</title>
<polygon fill="white" stroke="#bfbfbf" points="478,-0.5 478,-21.5 556,-21.5 556,-0.5 478,-0.5"/>
<text text-anchor="middle" x="517" y="-8.5" font-family="Helvetica,sans-Serif" font-size="10.00">lunaservice.h</text>
</g>
<!-- Node15&#45;&gt;Node21 -->
<g id="edge60" class="edge"><title>Node15&#45;&gt;Node21</title>
<path fill="none" stroke="midnightblue" d="M731.8,-123.548C667.991,-118.208 563.915,-105.749 536,-80 522.772,-67.7978 518.43,-47.3149 517.154,-31.8279"/>
<polygon fill="midnightblue" stroke="midnightblue" points="520.64,-31.4517 516.683,-21.6237 513.648,-31.7744 520.64,-31.4517"/>
</g>
<!-- Node22 -->
<g id="node46" class="node"><title>Node22</title>
<a xlink:href="DisplayStates_8h.htm" target="_top" xlink:title="DisplayStates.h">
<polygon fill="white" stroke="red" points="886.5,-58.5 886.5,-79.5 975.5,-79.5 975.5,-58.5 886.5,-58.5"/>
<text text-anchor="middle" x="931" y="-66.5" font-family="Helvetica,sans-Serif" font-size="10.00">DisplayStates.h</text>
</a>
</g>
<!-- Node15&#45;&gt;Node22 -->
<g id="edge48" class="edge"><title>Node15&#45;&gt;Node22</title>
<path fill="none" stroke="midnightblue" d="M809.802,-116.497C833.438,-107.234 868.1,-93.6499 894.308,-83.3793"/>
<polygon fill="midnightblue" stroke="midnightblue" points="895.864,-86.5287 903.898,-79.6212 893.31,-80.0113 895.864,-86.5287"/>
</g>
<!-- Node23 -->
<g id="node51" class="node"><title>Node23</title>
<polygon fill="white" stroke="#bfbfbf" points="437,-58.5 437,-79.5 489,-79.5 489,-58.5 437,-58.5"/>
<text text-anchor="middle" x="463" y="-66.5" font-family="Helvetica,sans-Serif" font-size="10.00">QEvent</text>
</g>
<!-- Node15&#45;&gt;Node23 -->
<g id="edge56" class="edge"><title>Node15&#45;&gt;Node23</title>
<path fill="none" stroke="midnightblue" d="M731.861,-120.017C675.496,-111.949 582.297,-97.5107 503,-80 501.734,-79.7205 500.448,-79.4258 499.152,-79.1197"/>
<polygon fill="midnightblue" stroke="midnightblue" points="499.706,-75.6501 489.155,-76.604 497.998,-82.4385 499.706,-75.6501"/>
</g>
<!-- Node15&#45;&gt;Node24 -->
<g id="edge58" class="edge"><title>Node15&#45;&gt;Node24</title>
<path fill="none" stroke="midnightblue" d="M834.02,-118.754C900.696,-107.88 1013.81,-89.0636 1055,-80 1056.08,-79.7624 1057.17,-79.5149 1058.28,-79.2594"/>
<polygon fill="midnightblue" stroke="midnightblue" points="1059.42,-82.583 1068.3,-76.7992 1057.75,-75.785 1059.42,-82.583"/>
</g>
<!-- Node20&#45;&gt;Node12 -->
<g id="edge42" class="edge"><title>Node20&#45;&gt;Node12</title>
<path fill="none" stroke="midnightblue" d="M663.715,-63.9291C798.754,-52.4616 1125.04,-24.7537 1243.28,-14.7125"/>
<polygon fill="midnightblue" stroke="midnightblue" points="1243.74,-18.1863 1253.41,-13.8526 1243.15,-11.2114 1243.74,-18.1863"/>
</g>
<!-- Node20&#45;&gt;Node13 -->
<g id="edge46" class="edge"><title>Node20&#45;&gt;Node13</title>
<path fill="none" stroke="midnightblue" d="M554.743,-58.4966C496.332,-46.0414 401.283,-25.7736 356.638,-16.2537"/>
<polygon fill="midnightblue" stroke="midnightblue" points="357.181,-12.7909 346.671,-14.1284 355.722,-19.637 357.181,-12.7909"/>
</g>
<!-- Node20&#45;&gt;Node21 -->
<g id="edge44" class="edge"><title>Node20&#45;&gt;Node21</title>
<path fill="none" stroke="midnightblue" d="M588.043,-58.3619C575.043,-49.6955 556.469,-37.3126 541.573,-27.3819"/>
<polygon fill="midnightblue" stroke="midnightblue" points="543.118,-24.2055 532.856,-21.5707 539.235,-30.0299 543.118,-24.2055"/>
</g>
<!-- Node22&#45;&gt;Node12 -->
<g id="edge50" class="edge"><title>Node22&#45;&gt;Node12</title>
<path fill="none" stroke="midnightblue" d="M975.623,-60.3927C980.138,-59.565 984.658,-58.754 989,-58 1079.3,-42.3195 1185.39,-26.115 1243.49,-17.4297"/>
<polygon fill="midnightblue" stroke="midnightblue" points="1244.05,-20.8853 1253.43,-15.9484 1243.02,-13.9619 1244.05,-20.8853"/>
</g>
<!-- Node22&#45;&gt;Node16 -->
<g id="edge52" class="edge"><title>Node22&#45;&gt;Node16</title>
<path fill="none" stroke="midnightblue" d="M887.538,-58.4966C841.517,-47.375 769.722,-30.0244 726.829,-19.6586"/>
<polygon fill="midnightblue" stroke="midnightblue" points="727.64,-16.2541 717.098,-17.307 725.996,-23.0582 727.64,-16.2541"/>
</g>
<!-- Node22&#45;&gt;Node18 -->
<g id="edge54" class="edge"><title>Node22&#45;&gt;Node18</title>
<path fill="none" stroke="midnightblue" d="M915.41,-58.3619C902.709,-49.6955 884.562,-37.3126 870.008,-27.3819"/>
<polygon fill="midnightblue" stroke="midnightblue" points="871.724,-24.316 861.491,-21.5707 867.779,-30.0982 871.724,-24.316"/>
</g>
<!-- Node25&#45;&gt;Node12 -->
<g id="edge64" class="edge"><title>Node25&#45;&gt;Node12</title>
<path fill="none" stroke="midnightblue" d="M454.654,-126.21C572.854,-123.698 886.445,-113.937 984,-80 1000.65,-74.2084 1000.63,-64.5411 1017,-58 1092.96,-27.6457 1188.66,-16.8642 1243.34,-13.0564"/>
<polygon fill="midnightblue" stroke="midnightblue" points="1243.63,-16.545 1253.38,-12.4038 1243.17,-9.55973 1243.63,-16.545"/>
</g>
<!-- Node25&#45;&gt;Node14 -->
<g id="edge66" class="edge"><title>Node25&#45;&gt;Node14</title>
<path fill="none" stroke="midnightblue" d="M383.466,-116.497C359.786,-106.756 324.489,-92.2366 299.159,-81.8171"/>
<polygon fill="midnightblue" stroke="midnightblue" points="300.228,-78.4726 289.649,-77.9052 297.566,-84.9463 300.228,-78.4726"/>
</g>
<!-- Node25&#45;&gt;Node16 -->
<g id="edge74" class="edge"><title>Node25&#45;&gt;Node16</title>
<path fill="none" stroke="midnightblue" d="M408.66,-116.352C408.796,-101.061 411.476,-73.0717 428,-58 444.549,-42.9054 585.864,-23.8306 654.237,-15.3763"/>
<polygon fill="midnightblue" stroke="midnightblue" points="655.053,-18.8026 664.553,-14.1129 654.202,-11.8545 655.053,-18.8026"/>
</g>
<!-- Node25&#45;&gt;Node21 -->
<g id="edge70" class="edge"><title>Node25&#45;&gt;Node21</title>
<path fill="none" stroke="midnightblue" d="M382.698,-116.361C355.115,-103.648 318.075,-81.1742 336,-58 352.007,-37.3052 419.603,-24.0389 467.484,-17.0504"/>
<polygon fill="midnightblue" stroke="midnightblue" points="468.264,-20.4751 477.677,-15.6129 467.286,-13.5437 468.264,-20.4751"/>
</g>
<!-- Node25&#45;&gt;Node23 -->
<g id="edge72" class="edge"><title>Node25&#45;&gt;Node23</title>
<path fill="none" stroke="midnightblue" d="M418.904,-116.362C426.516,-108.186 437.208,-96.7025 446.157,-87.0907"/>
<polygon fill="midnightblue" stroke="midnightblue" points="448.906,-89.2746 453.158,-79.5707 443.783,-84.5046 448.906,-89.2746"/>
</g>
<!-- Node26 -->
<g id="node60" class="node"><title>Node26</title>
<polygon fill="white" stroke="#bfbfbf" points="344.5,-58.5 344.5,-79.5 381.5,-79.5 381.5,-58.5 344.5,-58.5"/>
<text text-anchor="middle" x="363" y="-66.5" font-family="Helvetica,sans-Serif" font-size="10.00">map</text>
</g>
<!-- Node25&#45;&gt;Node26 -->
<g id="edge68" class="edge"><title>Node25&#45;&gt;Node26</title>
<path fill="none" stroke="midnightblue" d="M400.563,-116.362C394.208,-108.35 385.334,-97.1605 377.807,-87.6696"/>
<polygon fill="midnightblue" stroke="midnightblue" points="380.34,-85.2308 371.384,-79.5707 374.855,-89.5805 380.34,-85.2308"/>
</g>
<!-- Node28&#45;&gt;Node12 -->
<g id="edge80" class="edge"><title>Node28&#45;&gt;Node12</title>
<path fill="none" stroke="midnightblue" d="M1875.31,-116.48C1872.18,-100.815 1863.89,-71.7342 1844,-58 1802.15,-29.0956 1455.31,-16.0127 1331.07,-12.2221"/>
<polygon fill="midnightblue" stroke="midnightblue" points="1330.88,-8.71512 1320.78,-11.9142 1330.67,-15.712 1330.88,-8.71512"/>
</g>
<!-- Node29&#45;&gt;Node12 -->
<g id="edge84" class="edge"><title>Node29&#45;&gt;Node12</title>
<path fill="none" stroke="midnightblue" d="M1974.92,-116.294C1953.14,-100.387 1909.34,-70.9941 1867,-58 1766.81,-27.2489 1448.02,-15.4706 1330.8,-12.1108"/>
<polygon fill="midnightblue" stroke="midnightblue" points="1330.84,-8.61076 1320.75,-11.8294 1330.64,-15.608 1330.84,-8.61076"/>
</g>
<!-- Node29&#45;&gt;Node29 -->
<g id="edge86" class="edge"><title>Node29&#45;&gt;Node29</title>
<path fill="none" stroke="midnightblue" d="M2019.56,-137.524C2035.08,-139.061 2049,-135.553 2049,-127 2049,-120.385 2040.67,-116.788 2029.72,-116.208"/>
<polygon fill="midnightblue" stroke="midnightblue" points="2029.47,-112.714 2019.56,-116.476 2029.65,-119.711 2029.47,-112.714"/>
</g>
<!-- Node30&#45;&gt;Node12 -->
<g id="edge90" class="edge"><title>Node30&#45;&gt;Node12</title>
<path fill="none" stroke="midnightblue" d="M1469.1,-116.474C1487.28,-102.519 1513.55,-77.3982 1498,-58 1477.49,-32.4178 1386.67,-19.8614 1331.08,-14.4677"/>
<polygon fill="midnightblue" stroke="midnightblue" points="1331.08,-10.9527 1320.8,-13.5125 1330.44,-17.9227 1331.08,-10.9527"/>
</g>
<!-- Node30&#45;&gt;Node31 -->
<g id="edge92" class="edge"><title>Node30&#45;&gt;Node31</title>
<path fill="none" stroke="midnightblue" d="M1437.49,-116.362C1423.92,-107.614 1404.47,-95.0786 1388.99,-85.1015"/>
<polygon fill="midnightblue" stroke="midnightblue" points="1390.7,-82.0457 1380.4,-79.5707 1386.91,-87.9297 1390.7,-82.0457"/>
</g>
<!-- Node30&#45;&gt;Node32 -->
<g id="edge94" class="edge"><title>Node30&#45;&gt;Node32</title>
<path fill="none" stroke="midnightblue" d="M1455.1,-116.362C1455.87,-108.922 1456.92,-98.7427 1457.86,-89.7276"/>
<polygon fill="midnightblue" stroke="midnightblue" points="1461.36,-89.8777 1458.91,-79.5707 1454.4,-89.1574 1461.36,-89.8777"/>
</g>
<!-- Node33 -->
<g id="node81" class="node"><title>Node33</title>
<polygon fill="white" stroke="#bfbfbf" points="1561,-58.5 1561,-79.5 1673,-79.5 1673,-58.5 1561,-58.5"/>
<text text-anchor="middle" x="1617" y="-66.5" font-family="Helvetica,sans-Serif" font-size="10.00">QPropertyAnimation</text>
</g>
<!-- Node30&#45;&gt;Node33 -->
<g id="edge96" class="edge"><title>Node30&#45;&gt;Node33</title>
<path fill="none" stroke="midnightblue" d="M1483.52,-116.497C1509.98,-107.082 1548.98,-93.2036 1578,-82.8773"/>
<polygon fill="midnightblue" stroke="midnightblue" points="1579.18,-86.173 1587.43,-79.5231 1576.83,-79.578 1579.18,-86.173"/>
</g>
<!-- Node34 -->
<g id="node83" class="node"><title>Node34</title>
<polygon fill="white" stroke="#bfbfbf" points="1699,-58.5 1699,-79.5 1835,-79.5 1835,-58.5 1699,-58.5"/>
<text text-anchor="middle" x="1767" y="-66.5" font-family="Helvetica,sans-Serif" font-size="10.00">QParallelAnimationGroup</text>
</g>
<!-- Node30&#45;&gt;Node34 -->
<g id="edge98" class="edge"><title>Node30&#45;&gt;Node34</title>
<path fill="none" stroke="midnightblue" d="M1510.68,-116.497C1564.03,-106.611 1643.93,-91.8046 1700.32,-81.356"/>
<polygon fill="midnightblue" stroke="midnightblue" points="1701.02,-84.7866 1710.21,-79.5231 1699.74,-77.9037 1701.02,-84.7866"/>
</g>
<!-- Node35&#45;&gt;Node12 -->
<g id="edge102" class="edge"><title>Node35&#45;&gt;Node12</title>
<path fill="none" stroke="midnightblue" d="M1157.31,-117.333C1198.24,-106.139 1260.14,-88.1902 1268,-80 1280.39,-67.0898 1284.86,-46.8636 1286.39,-31.6413"/>
<polygon fill="midnightblue" stroke="midnightblue" points="1289.88,-31.8286 1287.06,-21.6176 1282.9,-31.3621 1289.88,-31.8286"/>
</g>
<!-- Node35&#45;&gt;Node31 -->
<g id="edge104" class="edge"><title>Node35&#45;&gt;Node31</title>
<path fill="none" stroke="midnightblue" d="M1157.12,-118.379C1197.52,-108.736 1263.39,-93.0145 1309.93,-81.9049"/>
<polygon fill="midnightblue" stroke="midnightblue" points="1310.94,-85.2641 1319.85,-79.538 1309.31,-78.4554 1310.94,-85.2641"/>
</g>
<!-- Node35&#45;&gt;Node36 -->
<g id="edge106" class="edge"><title>Node35&#45;&gt;Node36</title>
<path fill="none" stroke="midnightblue" d="M1138.97,-116.362C1153.89,-107.532 1175.33,-94.844 1192.27,-84.8224"/>
<polygon fill="midnightblue" stroke="midnightblue" points="1194.32,-87.6759 1201.14,-79.5707 1190.75,-81.6519 1194.32,-87.6759"/>
</g>
<!-- Node44&#45;&gt;Node11 -->
<g id="edge134" class="edge"><title>Node44&#45;&gt;Node11</title>
<path fill="none" stroke="midnightblue" d="M1681.3,-237.2C1568.39,-226.044 1322.25,-201.723 1210.38,-190.67"/>
<polygon fill="midnightblue" stroke="midnightblue" points="1210.6,-187.175 1200.31,-189.674 1209.91,-194.141 1210.6,-187.175"/>
</g>
<!-- Node44&#45;&gt;Node12 -->
<g id="edge132" class="edge"><title>Node44&#45;&gt;Node12</title>
<path fill="none" stroke="midnightblue" d="M1798.8,-233.175C1801.57,-232.766 1804.31,-232.372 1807,-232 1877.44,-222.236 2077.62,-249.041 2125,-196 2131.51,-188.708 2129.06,-182.893 2125,-174 2079.06,-73.4628 2012.89,-82.0282 1905,-58 1795.29,-33.5677 1453.08,-17.7121 1330.9,-12.7057"/>
<polygon fill="midnightblue" stroke="midnightblue" points="1330.92,-9.2038 1320.79,-12.2956 1330.64,-16.1981 1330.92,-9.2038"/>
</g>
<!-- Node44&#45;&gt;Node28 -->
<g id="edge158" class="edge"><title>Node44&#45;&gt;Node28</title>
<path fill="none" stroke="midnightblue" d="M1752.64,-232.295C1776.4,-212.182 1827.88,-168.59 1856.6,-144.275"/>
<polygon fill="midnightblue" stroke="midnightblue" points="1859.02,-146.812 1864.39,-137.679 1854.49,-141.47 1859.02,-146.812"/>
</g>
<!-- Node44&#45;&gt;Node29 -->
<g id="edge136" class="edge"><title>Node44&#45;&gt;Node29</title>
<path fill="none" stroke="midnightblue" d="M1798.8,-233.195C1801.57,-232.781 1804.32,-232.38 1807,-232 1873.92,-222.523 2064.13,-246.54 2109,-196 2115.49,-188.688 2114.51,-182.077 2109,-174 2100.56,-161.629 2068.13,-149.344 2039.11,-140.438"/>
<polygon fill="midnightblue" stroke="midnightblue" points="2040.03,-137.058 2029.44,-137.552 2038.02,-143.766 2040.03,-137.058"/>
</g>
<!-- Node44&#45;&gt;Node31 -->
<g id="edge146" class="edge"><title>Node44&#45;&gt;Node31</title>
<path fill="none" stroke="midnightblue" d="M1682.55,-232.447C1594.14,-215.149 1430.46,-178.601 1388,-138 1374.8,-125.375 1368.85,-105.113 1366.18,-89.8049"/>
<polygon fill="midnightblue" stroke="midnightblue" points="1369.62,-89.1259 1364.75,-79.7138 1362.69,-90.105 1369.62,-89.1259"/>
</g>
<!-- Node44&#45;&gt;Node33 -->
<g id="edge138" class="edge"><title>Node44&#45;&gt;Node33</title>
<path fill="none" stroke="midnightblue" d="M1741.47,-232.499C1745.03,-205.542 1752.88,-134.706 1740,-116 1731.35,-103.439 1698.31,-91.2048 1668.65,-82.3687"/>
<polygon fill="midnightblue" stroke="midnightblue" points="1669.34,-78.9247 1658.76,-79.5068 1667.39,-85.6488 1669.34,-78.9247"/>
</g>
<!-- Node44&#45;&gt;Node34 -->
<g id="edge140" class="edge"><title>Node44&#45;&gt;Node34</title>
<path fill="none" stroke="midnightblue" d="M1744.59,-232.226C1752.31,-213.491 1767.55,-173.508 1773,-138 1774.48,-128.335 1773.62,-125.758 1773,-116 1772.45,-107.421 1771.35,-98.0146 1770.24,-89.8855"/>
<polygon fill="midnightblue" stroke="midnightblue" points="1773.68,-89.181 1768.77,-79.7899 1766.75,-90.19 1773.68,-89.181"/>
</g>
<!-- Node44&#45;&gt;Node38 -->
<g id="edge150" class="edge"><title>Node44&#45;&gt;Node38</title>
<path fill="none" stroke="midnightblue" d="M1723.11,-232.295C1690.89,-211.871 1620.48,-167.238 1582.5,-143.162"/>
<polygon fill="midnightblue" stroke="midnightblue" points="1583.9,-139.909 1573.58,-137.512 1580.16,-145.822 1583.9,-139.909"/>
</g>
<!-- Node44&#45;&gt;Node40 -->
<g id="edge148" class="edge"><title>Node44&#45;&gt;Node40</title>
<path fill="none" stroke="midnightblue" d="M1729.76,-232.295C1710.68,-212.355 1669.51,-169.337 1646.13,-144.906"/>
<polygon fill="midnightblue" stroke="midnightblue" points="1648.66,-142.485 1639.22,-137.679 1643.6,-147.324 1648.66,-142.485"/>
</g>
<!-- Node44&#45;&gt;Node42 -->
<g id="edge152" class="edge"><title>Node44&#45;&gt;Node42</title>
<path fill="none" stroke="midnightblue" d="M1736.49,-232.295C1730.19,-213.045 1716.84,-172.289 1708.72,-147.509"/>
<polygon fill="midnightblue" stroke="midnightblue" points="1711.94,-146.093 1705.5,-137.679 1705.29,-148.272 1711.94,-146.093"/>
</g>
<!-- Node45 -->
<g id="node116" class="node"><title>Node45</title>
<polygon fill="white" stroke="#bfbfbf" points="1844,-174.5 1844,-195.5 1994,-195.5 1994,-174.5 1844,-174.5"/>
<text text-anchor="middle" x="1919" y="-182.5" font-family="Helvetica,sans-Serif" font-size="10.00">QSequentialAnimationGroup</text>
</g>
<!-- Node44&#45;&gt;Node45 -->
<g id="edge142" class="edge"><title>Node44&#45;&gt;Node45</title>
<path fill="none" stroke="midnightblue" d="M1772.42,-232.497C1801.72,-223 1845.05,-208.962 1877,-198.609"/>
<polygon fill="midnightblue" stroke="midnightblue" points="1878.09,-201.935 1886.52,-195.523 1875.93,-195.276 1878.09,-201.935"/>
</g>
<!-- Node46 -->
<g id="node118" class="node"><title>Node46</title>
<polygon fill="white" stroke="#bfbfbf" points="2012,-174.5 2012,-195.5 2100,-195.5 2100,-174.5 2012,-174.5"/>
<text text-anchor="middle" x="2056" y="-182.5" font-family="Helvetica,sans-Serif" font-size="10.00">QGraphicsItem</text>
</g>
<!-- Node44&#45;&gt;Node46 -->
<g id="edge144" class="edge"><title>Node44&#45;&gt;Node46</title>
<path fill="none" stroke="midnightblue" d="M1798.58,-233.011C1849.65,-224.195 1925.96,-210.758 2001.59,-196.237"/>
<polygon fill="midnightblue" stroke="midnightblue" points="2002.62,-199.605 2011.77,-194.275 2001.29,-192.731 2002.62,-199.605"/>
</g>
<!-- Node47 -->
<g id="node124" class="node"><title>Node47</title>
<a xlink:href="QmlAlertWindow_8h.htm" target="_top" xlink:title="QmlAlertWindow.h">
<polygon fill="white" stroke="red" points="2193.5,-174.5 2193.5,-195.5 2296.5,-195.5 2296.5,-174.5 2193.5,-174.5"/>
<text text-anchor="middle" x="2245" y="-182.5" font-family="Helvetica,sans-Serif" font-size="10.00">QmlAlertWindow.h</text>
</a>
</g>
<!-- Node44&#45;&gt;Node47 -->
<g id="edge154" class="edge"><title>Node44&#45;&gt;Node47</title>
<path fill="none" stroke="midnightblue" d="M1798.79,-233.12C1801.57,-232.726 1804.31,-232.35 1807,-232 1972.15,-210.497 2014.9,-217.909 2180,-196 2181.08,-195.857 2182.17,-195.709 2183.26,-195.558"/>
<polygon fill="midnightblue" stroke="midnightblue" points="2183.86,-199.007 2193.25,-194.1 2182.85,-192.081 2183.86,-199.007"/>
</g>
<!-- Node47&#45;&gt;Node12 -->
<g id="edge156" class="edge"><title>Node47&#45;&gt;Node12</title>
<path fill="none" stroke="midnightblue" d="M2243.22,-174.441C2238.34,-149.183 2222.19,-85.3511 2180,-58 2144.04,-34.6848 1505.44,-16.6162 1330.82,-12.0955"/>
<polygon fill="midnightblue" stroke="midnightblue" points="1330.79,-8.5938 1320.71,-11.8355 1330.61,-15.5915 1330.79,-8.5938"/>
</g>
</g>
</svg>
