<?xml version="1.0" encoding="UTF-8" standalone="no"?>
<!DOCTYPE svg PUBLIC "-//W3C//DTD SVG 1.1//EN"
 "http://www.w3.org/Graphics/SVG/1.1/DTD/svg11.dtd">
<!-- Generated by graphviz version 2.26.3 (20100126.1600)
 -->
<!-- Title: dimensionsglobal.h Pages: 1 -->
<svg width="576pt" height="88pt"
 viewBox="0.00 0.00 576.00 88.00" xmlns="http://www.w3.org/2000/svg" xmlns:xlink="http://www.w3.org/1999/xlink">
<g id="graph1" class="graph" transform="scale(1 1) rotate(0) translate(4 84)">
<title>dimensionsglobal.h</title>
<polygon fill="white" stroke="white" points="-4,5 -4,-84 573,-84 573,5 -4,5"/>
<!-- Node1 -->
<g id="node1" class="node"><title>Node1</title>
<polygon fill="#bfbfbf" stroke="black" points="223,-58.5 223,-79.5 329,-79.5 329,-58.5 223,-58.5"/>
<text text-anchor="middle" x="276" y="-66.5" font-family="Helvetica,sans-Serif" font-size="10.00">dimensionsglobal.h</text>
</g>
<!-- Node2 -->
<g id="node3" class="node"><title>Node2</title>
<polygon fill="white" stroke="#bfbfbf" points="-0.5,-0.5 -0.5,-21.5 58.5,-21.5 58.5,-0.5 -0.5,-0.5"/>
<text text-anchor="middle" x="29" y="-8.5" font-family="Helvetica,sans-Serif" font-size="10.00">qglobal.h</text>
</g>
<!-- Node1&#45;&gt;Node2 -->
<g id="edge2" class="edge"><title>Node1&#45;&gt;Node2</title>
<path fill="none" stroke="midnightblue" d="M225.115,-58.4583C184.905,-49.924 127.156,-37.2172 68.6067,-22.3253"/>
<polygon fill="midnightblue" stroke="midnightblue" points="69.3798,-18.9104 58.8239,-19.8182 67.642,-25.6912 69.3798,-18.9104"/>
</g>
<!-- Node3 -->
<g id="node5" class="node"><title>Node3</title>
<polygon fill="white" stroke="#bfbfbf" points="76,-0.5 76,-21.5 130,-21.5 130,-0.5 76,-0.5"/>
<text text-anchor="middle" x="103" y="-8.5" font-family="Helvetica,sans-Serif" font-size="10.00">qmath.h</text>
</g>
<!-- Node1&#45;&gt;Node3 -->
<g id="edge4" class="edge"><title>Node1&#45;&gt;Node3</title>
<path fill="none" stroke="midnightblue" d="M244.671,-58.4966C215.149,-48.5992 170.913,-33.7685 139.741,-23.3178"/>
<polygon fill="midnightblue" stroke="midnightblue" points="140.708,-19.9507 130.114,-20.0904 138.483,-26.5876 140.708,-19.9507"/>
</g>
<!-- Node4 -->
<g id="node7" class="node"><title>Node4</title>
<polygon fill="white" stroke="#bfbfbf" points="147.5,-0.5 147.5,-21.5 200.5,-21.5 200.5,-0.5 147.5,-0.5"/>
<text text-anchor="middle" x="174" y="-8.5" font-family="Helvetica,sans-Serif" font-size="10.00">QRectF</text>
</g>
<!-- Node1&#45;&gt;Node4 -->
<g id="edge6" class="edge"><title>Node1&#45;&gt;Node4</title>
<path fill="none" stroke="midnightblue" d="M257.292,-58.3619C241.619,-49.4502 219.036,-36.6087 201.337,-26.5447"/>
<polygon fill="midnightblue" stroke="midnightblue" points="203.013,-23.4712 192.59,-21.5707 199.553,-29.5562 203.013,-23.4712"/>
</g>
<!-- Node5 -->
<g id="node9" class="node"><title>Node5</title>
<polygon fill="white" stroke="#bfbfbf" points="217.5,-0.5 217.5,-21.5 266.5,-21.5 266.5,-0.5 217.5,-0.5"/>
<text text-anchor="middle" x="242" y="-8.5" font-family="Helvetica,sans-Serif" font-size="10.00">QPoint</text>
</g>
<!-- Node1&#45;&gt;Node5 -->
<g id="edge8" class="edge"><title>Node1&#45;&gt;Node5</title>
<path fill="none" stroke="midnightblue" d="M269.764,-58.3619C265.163,-50.5131 258.775,-39.6159 253.286,-30.2527"/>
<polygon fill="midnightblue" stroke="midnightblue" points="256.273,-28.4276 248.197,-21.5707 250.234,-31.9677 256.273,-28.4276"/>
</g>
<!-- Node6 -->
<g id="node11" class="node"><title>Node6</title>
<polygon fill="white" stroke="#bfbfbf" points="283.5,-0.5 283.5,-21.5 338.5,-21.5 338.5,-0.5 283.5,-0.5"/>
<text text-anchor="middle" x="311" y="-8.5" font-family="Helvetica,sans-Serif" font-size="10.00">QPointF</text>
</g>
<!-- Node1&#45;&gt;Node6 -->
<g id="edge10" class="edge"><title>Node1&#45;&gt;Node6</title>
<path fill="none" stroke="midnightblue" d="M282.42,-58.3619C287.156,-50.5131 293.732,-39.6159 299.382,-30.2527"/>
<polygon fill="midnightblue" stroke="midnightblue" points="302.451,-31.9409 304.621,-21.5707 296.458,-28.3242 302.451,-31.9409"/>
</g>
<!-- Node7 -->
<g id="node13" class="node"><title>Node7</title>
<polygon fill="white" stroke="#bfbfbf" points="356,-0.5 356,-21.5 402,-21.5 402,-0.5 356,-0.5"/>
<text text-anchor="middle" x="379" y="-8.5" font-family="Helvetica,sans-Serif" font-size="10.00">QUuid</text>
</g>
<!-- Node1&#45;&gt;Node7 -->
<g id="edge12" class="edge"><title>Node1&#45;&gt;Node7</title>
<path fill="none" stroke="midnightblue" d="M294.892,-58.3619C310.718,-49.4502 333.523,-36.6087 351.395,-26.5447"/>
<polygon fill="midnightblue" stroke="midnightblue" points="353.232,-29.5271 360.228,-21.5707 349.797,-23.4276 353.232,-29.5271"/>
</g>
<!-- Node8 -->
<g id="node15" class="node"><title>Node8</title>
<polygon fill="white" stroke="#bfbfbf" points="420,-0.5 420,-21.5 470,-21.5 470,-0.5 420,-0.5"/>
<text text-anchor="middle" x="445" y="-8.5" font-family="Helvetica,sans-Serif" font-size="10.00">QHash</text>
</g>
<!-- Node1&#45;&gt;Node8 -->
<g id="edge14" class="edge"><title>Node1&#45;&gt;Node8</title>
<path fill="none" stroke="midnightblue" d="M306.605,-58.4966C335.746,-48.4954 379.565,-33.4569 410.062,-22.9904"/>
<polygon fill="midnightblue" stroke="midnightblue" points="411.531,-26.1867 419.854,-19.6301 409.259,-19.5658 411.531,-26.1867"/>
</g>
<!-- Node9 -->
<g id="node17" class="node"><title>Node9</title>
<polygon fill="white" stroke="#bfbfbf" points="488,-0.5 488,-21.5 568,-21.5 568,-0.5 488,-0.5"/>
<text text-anchor="middle" x="528" y="-8.5" font-family="Helvetica,sans-Serif" font-size="10.00">QVariantMap</text>
</g>
<!-- Node1&#45;&gt;Node9 -->
<g id="edge16" class="edge"><title>Node1&#45;&gt;Node9</title>
<path fill="none" stroke="midnightblue" d="M321.635,-58.4966C365.677,-48.36 432.202,-33.0487 477.74,-22.5678"/>
<polygon fill="midnightblue" stroke="midnightblue" points="478.733,-25.9308 487.693,-20.277 477.163,-19.1092 478.733,-25.9308"/>
</g>
</g>
</svg>
