<?xml version="1.0" encoding="UTF-8" standalone="no"?>
<!DOCTYPE svg PUBLIC "-//W3C//DTD SVG 1.1//EN"
 "http://www.w3.org/Graphics/SVG/1.1/DTD/svg11.dtd">
<!-- Generated by graphviz version 2.26.3 (20100126.1600)
 -->
<!-- Title: dimensionstypes.h Pages: 1 -->
<svg width="2645pt" height="262pt"
 viewBox="0.00 0.00 2645.00 262.00" xmlns="http://www.w3.org/2000/svg" xmlns:xlink="http://www.w3.org/1999/xlink">
<g id="graph1" class="graph" transform="scale(1 1) rotate(0) translate(4 258)">
<title>dimensionstypes.h</title>
<polygon fill="white" stroke="white" points="-4,5 -4,-258 2642,-258 2642,5 -4,5"/>
<!-- Node1 -->
<g id="node1" class="node"><title>Node1</title>
<polygon fill="#bfbfbf" stroke="black" points="841,-232.5 841,-253.5 945,-253.5 945,-232.5 841,-232.5"/>
<text text-anchor="middle" x="893" y="-240.5" font-family="Helvetica,sans-Serif" font-size="10.00">dimensionstypes.h</text>
</g>
<!-- Node2 -->
<g id="node3" class="node"><title>Node2</title>
<a xlink:href="dimensionslauncher_8h.htm" target="_top" xlink:title="dimensionslauncher.h">
<polygon fill="white" stroke="black" points="1925.5,-116.5 1925.5,-137.5 2044.5,-137.5 2044.5,-116.5 1925.5,-116.5"/>
<text text-anchor="middle" x="1985" y="-124.5" font-family="Helvetica,sans-Serif" font-size="10.00">dimensionslauncher.h</text>
</a>
</g>
<!-- Node1&#45;&gt;Node2 -->
<g id="edge2" class="edge"><title>Node1&#45;&gt;Node2</title>
<path fill="none" stroke="midnightblue" d="M955.281,-238.147C1055.12,-230.229 1257.13,-213.635 1428,-196 1645.7,-173.532 1700.26,-168.37 1917,-138 1919.72,-137.618 1922.51,-137.216 1925.32,-136.801"/>
<polygon fill="midnightblue" stroke="midnightblue" points="954.764,-234.677 945.072,-238.955 955.317,-241.655 954.764,-234.677"/>
</g>
<!-- Node19 -->
<g id="node37" class="node"><title>Node19</title>
<a xlink:href="dimensionsmain_8h.htm" target="_top" xlink:title="dimensionsmain.h">
<polygon fill="white" stroke="black" points="745.5,-116.5 745.5,-137.5 846.5,-137.5 846.5,-116.5 745.5,-116.5"/>
<text text-anchor="middle" x="796" y="-124.5" font-family="Helvetica,sans-Serif" font-size="10.00">dimensionsmain.h</text>
</a>
</g>
<!-- Node1&#45;&gt;Node19 -->
<g id="edge36" class="edge"><title>Node1&#45;&gt;Node19</title>
<path fill="none" stroke="midnightblue" d="M869.407,-226.099C858.756,-217.775 846.469,-207.143 837,-196 821.119,-177.312 807.696,-151.706 800.857,-137.528"/>
<polygon fill="midnightblue" stroke="midnightblue" points="867.431,-228.993 877.514,-232.246 871.66,-223.415 867.431,-228.993"/>
</g>
<!-- Node21 -->
<g id="node43" class="node"><title>Node21</title>
<a xlink:href="OverlayWindowManager_8h.htm" target="_top" xlink:title="OverlayWindowManager.h">
<polygon fill="white" stroke="black" points="331,-58.5 331,-79.5 473,-79.5 473,-58.5 331,-58.5"/>
<text text-anchor="middle" x="402" y="-66.5" font-family="Helvetica,sans-Serif" font-size="10.00">OverlayWindowManager.h</text>
</a>
</g>
<!-- Node1&#45;&gt;Node21 -->
<g id="edge68" class="edge"><title>Node1&#45;&gt;Node21</title>
<path fill="none" stroke="midnightblue" d="M853.451,-228.985C757.98,-195.152 516.555,-109.596 431.894,-79.5938"/>
<polygon fill="midnightblue" stroke="midnightblue" points="852.43,-232.336 863.025,-232.377 854.768,-225.738 852.43,-232.336"/>
</g>
<!-- Node27 -->
<g id="node62" class="node"><title>Node27</title>
<a xlink:href="quicklaunchbar_8h.htm" target="_top" xlink:title="quicklaunchbar.h">
<polygon fill="white" stroke="black" points="845.5,-174.5 845.5,-195.5 940.5,-195.5 940.5,-174.5 845.5,-174.5"/>
<text text-anchor="middle" x="893" y="-182.5" font-family="Helvetica,sans-Serif" font-size="10.00">quicklaunchbar.h</text>
</a>
</g>
<!-- Node1&#45;&gt;Node27 -->
<g id="edge70" class="edge"><title>Node1&#45;&gt;Node27</title>
<path fill="none" stroke="midnightblue" d="M893,-222.191C893,-213.168 893,-202.994 893,-195.571"/>
<polygon fill="midnightblue" stroke="midnightblue" points="889.5,-222.362 893,-232.362 896.5,-222.362 889.5,-222.362"/>
</g>
<!-- Node28 -->
<g id="node68" class="node"><title>Node28</title>
<a xlink:href="page_8h.htm" target="_top" xlink:title="page.h">
<polygon fill="white" stroke="black" points="1370.5,-174.5 1370.5,-195.5 1419.5,-195.5 1419.5,-174.5 1370.5,-174.5"/>
<text text-anchor="middle" x="1395" y="-182.5" font-family="Helvetica,sans-Serif" font-size="10.00">page.h</text>
</a>
</g>
<!-- Node1&#45;&gt;Node28 -->
<g id="edge80" class="edge"><title>Node1&#45;&gt;Node28</title>
<path fill="none" stroke="midnightblue" d="M955.376,-235.793C1066.68,-222.933 1294.91,-196.564 1370.25,-187.859"/>
<polygon fill="midnightblue" stroke="midnightblue" points="954.834,-232.332 945.302,-236.957 955.638,-239.286 954.834,-232.332"/>
</g>
<!-- Node3 -->
<g id="node5" class="node"><title>Node3</title>
<a xlink:href="dimensionslauncher_8cpp.htm" target="_top" xlink:title="dimensionslauncher.cpp">
<polygon fill="white" stroke="black" points="1011,-58.5 1011,-79.5 1141,-79.5 1141,-58.5 1011,-58.5"/>
<text text-anchor="middle" x="1076" y="-66.5" font-family="Helvetica,sans-Serif" font-size="10.00">dimensionslauncher.cpp</text>
</a>
</g>
<!-- Node2&#45;&gt;Node3 -->
<g id="edge4" class="edge"><title>Node2&#45;&gt;Node3</title>
<path fill="none" stroke="midnightblue" d="M1915.23,-115.915C1575.83,-81.3224 1486.34,-112.807 1150,-80 1147.16,-79.7226 1144.25,-79.4116 1141.33,-79.0749"/>
<polygon fill="midnightblue" stroke="midnightblue" points="1915.04,-119.413 1925.35,-116.958 1915.76,-112.45 1915.04,-119.413"/>
</g>
<!-- Node4 -->
<g id="node7" class="node"><title>Node4</title>
<a xlink:href="dimensionsmain_8cpp.htm" target="_top" xlink:title="dimensionsmain.cpp">
<polygon fill="white" stroke="black" points="608,-0.5 608,-21.5 720,-21.5 720,-0.5 608,-0.5"/>
<text text-anchor="middle" x="664" y="-8.5" font-family="Helvetica,sans-Serif" font-size="10.00">dimensionsmain.cpp</text>
</a>
</g>
<!-- Node2&#45;&gt;Node4 -->
<g id="edge6" class="edge"><title>Node2&#45;&gt;Node4</title>
<path fill="none" stroke="midnightblue" d="M2054.69,-125.777C2188.85,-122.698 2472.42,-112.39 2502,-80 2508.59,-72.7799 2508.82,-65.0017 2502,-58 2470.12,-25.294 1025.32,-13.4969 720.209,-11.3682"/>
<polygon fill="midnightblue" stroke="midnightblue" points="2054.44,-122.282 2044.52,-126.003 2054.59,-129.28 2054.44,-122.282"/>
</g>
<!-- Node5 -->
<g id="node9" class="node"><title>Node5</title>
<a xlink:href="pagetabbar_8cpp.htm" target="_top" xlink:title="pagetabbar.cpp">
<polygon fill="white" stroke="black" points="2548.5,-58.5 2548.5,-79.5 2637.5,-79.5 2637.5,-58.5 2548.5,-58.5"/>
<text text-anchor="middle" x="2593" y="-66.5" font-family="Helvetica,sans-Serif" font-size="10.00">pagetabbar.cpp</text>
</a>
</g>
<!-- Node2&#45;&gt;Node5 -->
<g id="edge8" class="edge"><title>Node2&#45;&gt;Node5</title>
<path fill="none" stroke="midnightblue" d="M2054.76,-123.33C2159.42,-117.305 2363.17,-103.573 2535,-80 2539.37,-79.401 2543.9,-78.6929 2548.43,-77.9292"/>
<polygon fill="midnightblue" stroke="midnightblue" points="2054.42,-119.843 2044.63,-123.906 2054.82,-126.832 2054.42,-119.843"/>
</g>
<!-- Node6 -->
<g id="node11" class="node"><title>Node6</title>
<a xlink:href="quicklaunchbar_8cpp.htm" target="_top" xlink:title="quicklaunchbar.cpp">
<polygon fill="white" stroke="black" points="887,-58.5 887,-79.5 993,-79.5 993,-58.5 887,-58.5"/>
<text text-anchor="middle" x="940" y="-66.5" font-family="Helvetica,sans-Serif" font-size="10.00">quicklaunchbar.cpp</text>
</a>
</g>
<!-- Node2&#45;&gt;Node6 -->
<g id="edge10" class="edge"><title>Node2&#45;&gt;Node6</title>
<path fill="none" stroke="midnightblue" d="M1915.12,-115.917C1510.28,-76.2247 1403.28,-123.287 1002,-80 999.065,-79.6834 996.06,-79.3113 993.032,-78.8988"/>
<polygon fill="midnightblue" stroke="midnightblue" points="1915.05,-119.427 1925.35,-116.932 1915.74,-112.461 1915.05,-119.427"/>
</g>
<!-- Node7 -->
<g id="node13" class="node"><title>Node7</title>
<a xlink:href="icon_8cpp.htm" target="_top" xlink:title="icon.cpp">
<polygon fill="white" stroke="black" points="1405,-58.5 1405,-79.5 1461,-79.5 1461,-58.5 1405,-58.5"/>
<text text-anchor="middle" x="1433" y="-66.5" font-family="Helvetica,sans-Serif" font-size="10.00">icon.cpp</text>
</a>
</g>
<!-- Node2&#45;&gt;Node7 -->
<g id="edge12" class="edge"><title>Node2&#45;&gt;Node7</title>
<path fill="none" stroke="midnightblue" d="M1915.19,-115.866C1717.33,-92.8647 1662.67,-115.99 1470,-80 1467.1,-79.4586 1464.11,-78.7783 1461.13,-78.0229"/>
<polygon fill="midnightblue" stroke="midnightblue" points="1914.99,-119.367 1925.33,-117.071 1915.82,-112.416 1914.99,-119.367"/>
</g>
<!-- Node8 -->
<g id="node15" class="node"><title>Node8</title>
<a xlink:href="alphabetpage_8cpp.htm" target="_top" xlink:title="alphabetpage.cpp">
<polygon fill="white" stroke="black" points="1712.5,-58.5 1712.5,-79.5 1813.5,-79.5 1813.5,-58.5 1712.5,-58.5"/>
<text text-anchor="middle" x="1763" y="-66.5" font-family="Helvetica,sans-Serif" font-size="10.00">alphabetpage.cpp</text>
</a>
</g>
<!-- Node2&#45;&gt;Node8 -->
<g id="edge14" class="edge"><title>Node2&#45;&gt;Node8</title>
<path fill="none" stroke="midnightblue" d="M1935.03,-113.945C1895.24,-103.55 1840.28,-89.1897 1803.28,-79.5231"/>
<polygon fill="midnightblue" stroke="midnightblue" points="1934.24,-117.355 1944.8,-116.497 1936.01,-110.582 1934.24,-117.355"/>
</g>
<!-- Node9 -->
<g id="node17" class="node"><title>Node9</title>
<a xlink:href="reorderableiconlayout_8cpp.htm" target="_top" xlink:title="reorderableiconlayout.cpp">
<polygon fill="white" stroke="black" points="1557,-58.5 1557,-79.5 1695,-79.5 1695,-58.5 1557,-58.5"/>
<text text-anchor="middle" x="1626" y="-66.5" font-family="Helvetica,sans-Serif" font-size="10.00">reorderableiconlayout.cpp</text>
</a>
</g>
<!-- Node2&#45;&gt;Node9 -->
<g id="edge16" class="edge"><title>Node2&#45;&gt;Node9</title>
<path fill="none" stroke="midnightblue" d="M1915.22,-115.713C1832.53,-102.348 1747.97,-88.6925 1691.3,-79.542"/>
<polygon fill="midnightblue" stroke="midnightblue" points="1914.87,-119.201 1925.3,-117.341 1915.98,-112.29 1914.87,-119.201"/>
</g>
<!-- Node10 -->
<g id="node19" class="node"><title>Node10</title>
<a xlink:href="page_8cpp.htm" target="_top" xlink:title="page.cpp">
<polygon fill="white" stroke="black" points="1479,-58.5 1479,-79.5 1539,-79.5 1539,-58.5 1479,-58.5"/>
<text text-anchor="middle" x="1509" y="-66.5" font-family="Helvetica,sans-Serif" font-size="10.00">page.cpp</text>
</a>
</g>
<!-- Node2&#45;&gt;Node10 -->
<g id="edge18" class="edge"><title>Node2&#45;&gt;Node10</title>
<path fill="none" stroke="midnightblue" d="M1914.92,-115.804C1751.75,-95.4554 1706.61,-109.86 1548,-80 1545.1,-79.4534 1542.1,-78.79 1539.11,-78.0629"/>
<polygon fill="midnightblue" stroke="midnightblue" points="1914.97,-119.338 1925.33,-117.129 1915.85,-112.394 1914.97,-119.338"/>
</g>
<!-- Node11 -->
<g id="node21" class="node"><title>Node11</title>
<a xlink:href="pagemovement_8cpp.htm" target="_top" xlink:title="pagemovement.cpp">
<polygon fill="white" stroke="black" points="1830.5,-58.5 1830.5,-79.5 1939.5,-79.5 1939.5,-58.5 1830.5,-58.5"/>
<text text-anchor="middle" x="1885" y="-66.5" font-family="Helvetica,sans-Serif" font-size="10.00">pagemovement.cpp</text>
</a>
</g>
<!-- Node2&#45;&gt;Node11 -->
<g id="edge20" class="edge"><title>Node2&#45;&gt;Node11</title>
<path fill="none" stroke="midnightblue" d="M1957.59,-111.101C1940.29,-101.066 1918.42,-88.3808 1903.23,-79.5707"/>
<polygon fill="midnightblue" stroke="midnightblue" points="1956.25,-114.372 1966.66,-116.362 1959.76,-108.317 1956.25,-114.372"/>
</g>
<!-- Node12 -->
<g id="node23" class="node"><title>Node12</title>
<a xlink:href="reorderablepage_8cpp.htm" target="_top" xlink:title="reorderablepage.cpp">
<polygon fill="white" stroke="black" points="754.5,-58.5 754.5,-79.5 869.5,-79.5 869.5,-58.5 754.5,-58.5"/>
<text text-anchor="middle" x="812" y="-66.5" font-family="Helvetica,sans-Serif" font-size="10.00">reorderablepage.cpp</text>
</a>
</g>
<!-- Node2&#45;&gt;Node12 -->
<g id="edge22" class="edge"><title>Node2&#45;&gt;Node12</title>
<path fill="none" stroke="midnightblue" d="M1915.12,-115.924C1455.37,-71.8197 1334.38,-125.741 878,-80 875.226,-79.722 872.392,-79.3994 869.534,-79.0431"/>
<polygon fill="midnightblue" stroke="midnightblue" points="1915.06,-119.434 1925.35,-116.916 1915.74,-112.467 1915.06,-119.434"/>
</g>
<!-- Node13 -->
<g id="node25" class="node"><title>Node13</title>
<a xlink:href="overlaylayer_8cpp.htm" target="_top" xlink:title="overlaylayer.cpp">
<polygon fill="white" stroke="black" points="1957,-58.5 1957,-79.5 2051,-79.5 2051,-58.5 1957,-58.5"/>
<text text-anchor="middle" x="2004" y="-66.5" font-family="Helvetica,sans-Serif" font-size="10.00">overlaylayer.cpp</text>
</a>
</g>
<!-- Node2&#45;&gt;Node13 -->
<g id="edge24" class="edge"><title>Node2&#45;&gt;Node13</title>
<path fill="none" stroke="midnightblue" d="M1991.62,-106.784C1994.63,-97.617 1998.05,-87.1572 2000.54,-79.5707"/>
<polygon fill="midnightblue" stroke="midnightblue" points="1988.27,-105.769 1988.48,-116.362 1994.92,-107.948 1988.27,-105.769"/>
</g>
<!-- Node14 -->
<g id="node27" class="node"><title>Node14</title>
<a xlink:href="vcamera_8cpp.htm" target="_top" xlink:title="vcamera.cpp">
<polygon fill="white" stroke="black" points="2068.5,-58.5 2068.5,-79.5 2145.5,-79.5 2145.5,-58.5 2068.5,-58.5"/>
<text text-anchor="middle" x="2107" y="-66.5" font-family="Helvetica,sans-Serif" font-size="10.00">vcamera.cpp</text>
</a>
</g>
<!-- Node2&#45;&gt;Node14 -->
<g id="edge26" class="edge"><title>Node2&#45;&gt;Node14</title>
<path fill="none" stroke="midnightblue" d="M2016.41,-112.069C2037.77,-101.912 2065.53,-88.7157 2084.66,-79.6212"/>
<polygon fill="midnightblue" stroke="midnightblue" points="2014.62,-109.042 2007.09,-116.497 2017.63,-115.364 2014.62,-109.042"/>
</g>
<!-- Node15 -->
<g id="node29" class="node"><title>Node15</title>
<a xlink:href="groupanchoritem_8cpp.htm" target="_top" xlink:title="groupanchoritem.cpp">
<polygon fill="white" stroke="black" points="2163,-58.5 2163,-79.5 2279,-79.5 2279,-58.5 2163,-58.5"/>
<text text-anchor="middle" x="2221" y="-66.5" font-family="Helvetica,sans-Serif" font-size="10.00">groupanchoritem.cpp</text>
</a>
</g>
<!-- Node2&#45;&gt;Node15 -->
<g id="edge28" class="edge"><title>Node2&#45;&gt;Node15</title>
<path fill="none" stroke="midnightblue" d="M2037.58,-114.077C2079.92,-103.672 2138.68,-89.2306 2178.18,-79.5231"/>
<polygon fill="midnightblue" stroke="midnightblue" points="2036.61,-110.711 2027.74,-116.497 2038.28,-117.509 2036.61,-110.711"/>
</g>
<!-- Node16 -->
<g id="node31" class="node"><title>Node16</title>
<a xlink:href="appeffector_8cpp.htm" target="_top" xlink:title="appeffector.cpp">
<polygon fill="white" stroke="black" points="2297,-58.5 2297,-79.5 2387,-79.5 2387,-58.5 2297,-58.5"/>
<text text-anchor="middle" x="2342" y="-66.5" font-family="Helvetica,sans-Serif" font-size="10.00">appeffector.cpp</text>
</a>
</g>
<!-- Node2&#45;&gt;Node16 -->
<g id="edge30" class="edge"><title>Node2&#45;&gt;Node16</title>
<path fill="none" stroke="midnightblue" d="M2054.63,-117.151C2116.14,-108.222 2208.21,-94.3064 2288,-80 2290.92,-79.4765 2293.92,-78.9185 2296.95,-78.3421"/>
<polygon fill="midnightblue" stroke="midnightblue" points="2054.04,-113.699 2044.64,-118.595 2055.04,-120.627 2054.04,-113.699"/>
</g>
<!-- Node17 -->
<g id="node33" class="node"><title>Node17</title>
<a xlink:href="appmonitor_8cpp.htm" target="_top" xlink:title="appmonitor.cpp">
<polygon fill="white" stroke="black" points="2404.5,-58.5 2404.5,-79.5 2493.5,-79.5 2493.5,-58.5 2404.5,-58.5"/>
<text text-anchor="middle" x="2449" y="-66.5" font-family="Helvetica,sans-Serif" font-size="10.00">appmonitor.cpp</text>
</a>
</g>
<!-- Node2&#45;&gt;Node17 -->
<g id="edge32" class="edge"><title>Node2&#45;&gt;Node17</title>
<path fill="none" stroke="midnightblue" d="M2054.99,-120.948C2136.99,-113.406 2276.83,-99.1406 2396,-80 2398.69,-79.5678 2401.45,-79.0924 2404.23,-78.5891"/>
<polygon fill="midnightblue" stroke="midnightblue" points="2054.43,-117.484 2044.79,-121.879 2055.06,-124.455 2054.43,-117.484"/>
</g>
<!-- Node18 -->
<g id="node35" class="node"><title>Node18</title>
<a xlink:href="pagesaver_8cpp.htm" target="_top" xlink:title="pagesaver.cpp">
<polygon fill="white" stroke="black" points="1159,-58.5 1159,-79.5 1245,-79.5 1245,-58.5 1159,-58.5"/>
<text text-anchor="middle" x="1202" y="-66.5" font-family="Helvetica,sans-Serif" font-size="10.00">pagesaver.cpp</text>
</a>
</g>
<!-- Node2&#45;&gt;Node18 -->
<g id="edge34" class="edge"><title>Node2&#45;&gt;Node18</title>
<path fill="none" stroke="midnightblue" d="M1915.26,-115.91C1621.84,-85.1536 1543.27,-118.218 1254,-80 1251.07,-79.6132 1248.06,-79.1513 1245.04,-78.639"/>
<polygon fill="midnightblue" stroke="midnightblue" points="1915.03,-119.405 1925.34,-116.983 1915.77,-112.444 1915.03,-119.405"/>
</g>
<!-- Node19&#45;&gt;Node3 -->
<g id="edge40" class="edge"><title>Node19&#45;&gt;Node3</title>
<path fill="none" stroke="midnightblue" d="M856.806,-114.404C907.145,-103.977 977.841,-89.333 1025.2,-79.5231"/>
<polygon fill="midnightblue" stroke="midnightblue" points="855.788,-111.041 846.706,-116.497 857.208,-117.895 855.788,-111.041"/>
</g>
<!-- Node19&#45;&gt;Node4 -->
<g id="edge42" class="edge"><title>Node19&#45;&gt;Node4</title>
<path fill="none" stroke="midnightblue" d="M735.499,-117.198C694.834,-109.233 646.47,-96.6023 634,-80 620.193,-61.6179 639.55,-35.8979 652.997,-21.618"/>
<polygon fill="midnightblue" stroke="midnightblue" points="734.899,-120.647 745.377,-119.073 736.205,-113.769 734.899,-120.647"/>
</g>
<!-- Node19&#45;&gt;Node6 -->
<g id="edge56" class="edge"><title>Node19&#45;&gt;Node6</title>
<path fill="none" stroke="midnightblue" d="M831.377,-112.751C856.806,-102.509 890.542,-88.9206 913.63,-79.6212"/>
<polygon fill="midnightblue" stroke="midnightblue" points="830.046,-109.514 822.077,-116.497 832.661,-116.007 830.046,-109.514"/>
</g>
<!-- Node19&#45;&gt;Node7 -->
<g id="edge58" class="edge"><title>Node19&#45;&gt;Node7</title>
<path fill="none" stroke="midnightblue" d="M856.986,-122.956C999.064,-113.429 1344.01,-89.6528 1396,-80 1398.9,-79.4617 1401.89,-78.7836 1404.87,-78.0294"/>
<polygon fill="midnightblue" stroke="midnightblue" points="856.452,-119.484 846.708,-123.644 856.92,-126.468 856.452,-119.484"/>
</g>
<!-- Node19&#45;&gt;Node10 -->
<g id="edge60" class="edge"><title>Node19&#45;&gt;Node10</title>
<path fill="none" stroke="midnightblue" d="M856.873,-123.095C1017.06,-112.775 1440.07,-85.2076 1470,-80 1472.91,-79.4935 1475.92,-78.8572 1478.91,-78.1471"/>
<polygon fill="midnightblue" stroke="midnightblue" points="856.464,-119.614 846.709,-123.75 856.914,-126.6 856.464,-119.614"/>
</g>
<!-- Node19&#45;&gt;Node12 -->
<g id="edge62" class="edge"><title>Node19&#45;&gt;Node12</title>
<path fill="none" stroke="midnightblue" d="M801.659,-106.488C804.168,-97.3924 807.014,-87.0756 809.084,-79.5707"/>
<polygon fill="midnightblue" stroke="midnightblue" points="798.22,-105.791 798.935,-116.362 804.968,-107.653 798.22,-105.791"/>
</g>
<!-- Node20 -->
<g id="node39" class="node"><title>Node20</title>
<a xlink:href="ApplicationManager_8cpp.htm" target="_top" xlink:title="ApplicationManager.cpp">
<polygon fill="white" stroke="black" points="459.5,-0.5 459.5,-21.5 590.5,-21.5 590.5,-0.5 459.5,-0.5"/>
<text text-anchor="middle" x="525" y="-8.5" font-family="Helvetica,sans-Serif" font-size="10.00">ApplicationManager.cpp</text>
</a>
</g>
<!-- Node19&#45;&gt;Node20 -->
<g id="edge38" class="edge"><title>Node19&#45;&gt;Node20</title>
<path fill="none" stroke="midnightblue" d="M735.208,-120.797C658.188,-112.315 533.746,-96.285 520,-80 506.21,-63.6632 514.014,-36.6861 520.05,-21.7635"/>
<polygon fill="midnightblue" stroke="midnightblue" points="734.961,-124.291 745.28,-121.893 735.718,-117.332 734.961,-124.291"/>
</g>
<!-- Node19&#45;&gt;Node21 -->
<g id="edge44" class="edge"><title>Node19&#45;&gt;Node21</title>
<path fill="none" stroke="midnightblue" d="M735.212,-118.052C664.526,-107.646 548.006,-90.4933 473.163,-79.4758"/>
<polygon fill="midnightblue" stroke="midnightblue" points="734.895,-121.542 745.298,-119.536 735.914,-114.617 734.895,-121.542"/>
</g>
<!-- Node25 -->
<g id="node57" class="node"><title>Node25</title>
<a xlink:href="pagerestore_8cpp.htm" target="_top" xlink:title="pagerestore.cpp">
<polygon fill="white" stroke="black" points="643,-58.5 643,-79.5 737,-79.5 737,-58.5 643,-58.5"/>
<text text-anchor="middle" x="690" y="-66.5" font-family="Helvetica,sans-Serif" font-size="10.00">pagerestore.cpp</text>
</a>
</g>
<!-- Node19&#45;&gt;Node25 -->
<g id="edge64" class="edge"><title>Node19&#45;&gt;Node25</title>
<path fill="none" stroke="midnightblue" d="M767.704,-111.517C749.248,-101.419 725.644,-88.5032 709.319,-79.5707"/>
<polygon fill="midnightblue" stroke="midnightblue" points="766.105,-114.632 776.558,-116.362 769.465,-108.491 766.105,-114.632"/>
</g>
<!-- Node26 -->
<g id="node59" class="node"><title>Node26</title>
<a xlink:href="thing_8cpp.htm" target="_top" xlink:title="thing.cpp">
<polygon fill="white" stroke="black" points="528.5,-58.5 528.5,-79.5 587.5,-79.5 587.5,-58.5 528.5,-58.5"/>
<text text-anchor="middle" x="558" y="-66.5" font-family="Helvetica,sans-Serif" font-size="10.00">thing.cpp</text>
</a>
</g>
<!-- Node19&#45;&gt;Node26 -->
<g id="edge66" class="edge"><title>Node19&#45;&gt;Node26</title>
<path fill="none" stroke="midnightblue" d="M741.557,-114.092C702.42,-104.761 648.412,-91.7776 601,-80 596.663,-78.9225 592.083,-77.7687 587.594,-76.6283"/>
<polygon fill="midnightblue" stroke="midnightblue" points="740.886,-117.53 751.425,-116.443 742.508,-110.721 740.886,-117.53"/>
</g>
<!-- Node21&#45;&gt;Node4 -->
<g id="edge50" class="edge"><title>Node21&#45;&gt;Node4</title>
<path fill="none" stroke="midnightblue" d="M459.488,-56.2737C506.552,-45.8548 572.336,-31.2921 616.465,-21.5231"/>
<polygon fill="midnightblue" stroke="midnightblue" points="458.453,-52.9179 449.446,-58.4966 459.966,-59.7524 458.453,-52.9179"/>
</g>
<!-- Node21&#45;&gt;Node20 -->
<g id="edge46" class="edge"><title>Node21&#45;&gt;Node20</title>
<path fill="none" stroke="midnightblue" d="M433.373,-54.2064C454.951,-44.031 483.102,-30.7567 502.476,-21.6212"/>
<polygon fill="midnightblue" stroke="midnightblue" points="431.826,-51.0658 424.274,-58.4966 434.812,-57.3972 431.826,-51.0658"/>
</g>
<!-- Node22 -->
<g id="node46" class="node"><title>Node22</title>
<a xlink:href="SystemUiController_8cpp.htm" target="_top" xlink:title="SystemUiController.cpp">
<polygon fill="white" stroke="black" points="315.5,-0.5 315.5,-21.5 442.5,-21.5 442.5,-0.5 315.5,-0.5"/>
<text text-anchor="middle" x="379" y="-8.5" font-family="Helvetica,sans-Serif" font-size="10.00">SystemUiController.cpp</text>
</a>
</g>
<!-- Node21&#45;&gt;Node22 -->
<g id="edge48" class="edge"><title>Node21&#45;&gt;Node22</title>
<path fill="none" stroke="midnightblue" d="M393.983,-48.7838C390.348,-39.617 386.2,-29.1572 383.192,-21.5707"/>
<polygon fill="midnightblue" stroke="midnightblue" points="390.842,-50.3563 397.781,-58.3619 397.349,-47.7759 390.842,-50.3563"/>
</g>
<!-- Node23 -->
<g id="node49" class="node"><title>Node23</title>
<a xlink:href="OverlayWindowManager_8cpp.htm" target="_top" xlink:title="OverlayWindowManager.cpp">
<polygon fill="white" stroke="black" points="-0.5,-0.5 -0.5,-21.5 152.5,-21.5 152.5,-0.5 -0.5,-0.5"/>
<text text-anchor="middle" x="76" y="-8.5" font-family="Helvetica,sans-Serif" font-size="10.00">OverlayWindowManager.cpp</text>
</a>
</g>
<!-- Node21&#45;&gt;Node23 -->
<g id="edge52" class="edge"><title>Node21&#45;&gt;Node23</title>
<path fill="none" stroke="midnightblue" d="M333.032,-56.7296C274.316,-46.2833 190.861,-31.4354 135.147,-21.5231"/>
<polygon fill="midnightblue" stroke="midnightblue" points="332.505,-60.1908 342.964,-58.4966 333.732,-53.299 332.505,-60.1908"/>
</g>
<!-- Node24 -->
<g id="node51" class="node"><title>Node24</title>
<a xlink:href="WindowServerLuna_8cpp.htm" target="_top" xlink:title="WindowServerLuna.cpp">
<polygon fill="white" stroke="black" points="170,-0.5 170,-21.5 298,-21.5 298,-0.5 170,-0.5"/>
<text text-anchor="middle" x="234" y="-8.5" font-family="Helvetica,sans-Serif" font-size="10.00">WindowServerLuna.cpp</text>
</a>
</g>
<!-- Node21&#45;&gt;Node24 -->
<g id="edge54" class="edge"><title>Node21&#45;&gt;Node24</title>
<path fill="none" stroke="midnightblue" d="M361.866,-55.1443C331.97,-44.8229 291.769,-30.9439 264.481,-21.5231"/>
<polygon fill="midnightblue" stroke="midnightblue" points="360.982,-58.5416 371.576,-58.4966 363.266,-51.9248 360.982,-58.5416"/>
</g>
<!-- Node27&#45;&gt;Node6 -->
<g id="edge74" class="edge"><title>Node27&#45;&gt;Node6</title>
<path fill="none" stroke="midnightblue" d="M901.188,-164.79C911.221,-140.029 927.846,-98.996 935.673,-79.6792"/>
<polygon fill="midnightblue" stroke="midnightblue" points="897.849,-163.712 897.337,-174.295 904.337,-166.341 897.849,-163.712"/>
</g>
<!-- Node27&#45;&gt;Node12 -->
<g id="edge76" class="edge"><title>Node27&#45;&gt;Node12</title>
<path fill="none" stroke="midnightblue" d="M883.54,-164.925C876.48,-150.74 866.16,-131.56 855,-116 845.332,-102.52 832.23,-88.7004 823.039,-79.5675"/>
<polygon fill="midnightblue" stroke="midnightblue" points="880.551,-166.784 888.07,-174.249 886.848,-163.725 880.551,-166.784"/>
</g>
<!-- Node27&#45;&gt;Node18 -->
<g id="edge78" class="edge"><title>Node27&#45;&gt;Node18</title>
<path fill="none" stroke="midnightblue" d="M950.685,-176.384C991.029,-169.15 1045.6,-156.908 1091,-138 1128.49,-122.385 1167.82,-94.872 1188.09,-79.7339"/>
<polygon fill="midnightblue" stroke="midnightblue" points="949.999,-172.951 940.749,-178.117 951.201,-179.847 949.999,-172.951"/>
</g>
<!-- Node27&#45;&gt;Node19 -->
<g id="edge72" class="edge"><title>Node27&#45;&gt;Node19</title>
<path fill="none" stroke="midnightblue" d="M866.41,-169.101C849.627,-159.066 828.413,-146.381 813.679,-137.571"/>
<polygon fill="midnightblue" stroke="midnightblue" points="864.83,-172.234 875.209,-174.362 868.422,-166.226 864.83,-172.234"/>
</g>
<!-- Node28&#45;&gt;Node2 -->
<g id="edge82" class="edge"><title>Node28&#45;&gt;Node2</title>
<path fill="none" stroke="midnightblue" d="M1429.51,-182.739C1513.26,-177.068 1733.89,-161.025 1917,-138 1919.73,-137.657 1922.52,-137.287 1925.33,-136.897"/>
<polygon fill="midnightblue" stroke="midnightblue" points="1429.27,-179.247 1419.53,-183.41 1429.74,-186.232 1429.27,-179.247"/>
</g>
<!-- Node28&#45;&gt;Node3 -->
<g id="edge84" class="edge"><title>Node28&#45;&gt;Node3</title>
<path fill="none" stroke="midnightblue" d="M1360.53,-178.397C1323.42,-170.762 1262.98,-156.792 1213,-138 1168.63,-121.317 1119.73,-94.4751 1094.05,-79.667"/>
<polygon fill="midnightblue" stroke="midnightblue" points="1359.85,-181.831 1370.35,-180.381 1361.24,-174.97 1359.85,-181.831"/>
</g>
<!-- Node28&#45;&gt;Node6 -->
<g id="edge88" class="edge"><title>Node28&#45;&gt;Node6</title>
<path fill="none" stroke="midnightblue" d="M1360.23,-183.175C1264.17,-177.855 1000.14,-161.252 969,-138 950.155,-123.928 943.461,-95.262 941.156,-79.6734"/>
<polygon fill="midnightblue" stroke="midnightblue" points="1360.13,-186.675 1370.31,-183.726 1360.51,-179.685 1360.13,-186.675"/>
</g>
<!-- Node28&#45;&gt;Node7 -->
<g id="edge90" class="edge"><title>Node28&#45;&gt;Node7</title>
<path fill="none" stroke="midnightblue" d="M1418.5,-167.643C1427.31,-159.701 1436.31,-149.493 1441,-138 1448.93,-118.571 1442.38,-93.677 1437.38,-79.7227"/>
<polygon fill="midnightblue" stroke="midnightblue" points="1416.01,-165.163 1410.6,-174.271 1420.51,-170.527 1416.01,-165.163"/>
</g>
<!-- Node28&#45;&gt;Node9 -->
<g id="edge104" class="edge"><title>Node28&#45;&gt;Node9</title>
<path fill="none" stroke="midnightblue" d="M1425.53,-169.671C1473.2,-145.731 1564.1,-100.082 1605.07,-79.5117"/>
<polygon fill="midnightblue" stroke="midnightblue" points="1423.68,-166.679 1416.32,-174.295 1426.83,-172.935 1423.68,-166.679"/>
</g>
<!-- Node28&#45;&gt;Node10 -->
<g id="edge106" class="edge"><title>Node28&#45;&gt;Node10</title>
<path fill="none" stroke="midnightblue" d="M1419.37,-168.47C1431.04,-160.01 1444.86,-149.157 1456,-138 1474.57,-119.401 1492.38,-94.2089 1501.89,-79.9783"/>
<polygon fill="midnightblue" stroke="midnightblue" points="1417.08,-165.801 1410.94,-174.439 1421.13,-171.513 1417.08,-165.801"/>
</g>
<!-- Node28&#45;&gt;Node18 -->
<g id="edge126" class="edge"><title>Node28&#45;&gt;Node18</title>
<path fill="none" stroke="midnightblue" d="M1360.45,-178.404C1319.08,-169.919 1252.98,-154.322 1234,-138 1215.98,-122.502 1207.48,-94.6853 1204.02,-79.5353"/>
<polygon fill="midnightblue" stroke="midnightblue" points="1359.9,-181.862 1370.4,-180.403 1361.28,-175 1359.9,-181.862"/>
</g>
<!-- Node29 -->
<g id="node72" class="node"><title>Node29</title>
<a xlink:href="pagetab_8cpp.htm" target="_top" xlink:title="pagetab.cpp">
<polygon fill="white" stroke="black" points="1358,-116.5 1358,-137.5 1432,-137.5 1432,-116.5 1358,-116.5"/>
<text text-anchor="middle" x="1395" y="-124.5" font-family="Helvetica,sans-Serif" font-size="10.00">pagetab.cpp</text>
</a>
</g>
<!-- Node28&#45;&gt;Node29 -->
<g id="edge86" class="edge"><title>Node28&#45;&gt;Node29</title>
<path fill="none" stroke="midnightblue" d="M1395,-164.191C1395,-155.168 1395,-144.994 1395,-137.571"/>
<polygon fill="midnightblue" stroke="midnightblue" points="1391.5,-164.362 1395,-174.362 1398.5,-164.362 1391.5,-164.362"/>
</g>
<!-- Node30 -->
<g id="node76" class="node"><title>Node30</title>
<a xlink:href="alphabetpage_8h.htm" target="_top" xlink:title="alphabetpage.h">
<polygon fill="white" stroke="black" points="1251.5,-116.5 1251.5,-137.5 1340.5,-137.5 1340.5,-116.5 1251.5,-116.5"/>
<text text-anchor="middle" x="1296" y="-124.5" font-family="Helvetica,sans-Serif" font-size="10.00">alphabetpage.h</text>
</a>
</g>
<!-- Node28&#45;&gt;Node30 -->
<g id="edge92" class="edge"><title>Node28&#45;&gt;Node30</title>
<path fill="none" stroke="midnightblue" d="M1367.86,-169.101C1350.73,-159.066 1329.08,-146.381 1314.04,-137.571"/>
<polygon fill="midnightblue" stroke="midnightblue" points="1366.44,-172.327 1376.84,-174.362 1369.98,-166.287 1366.44,-172.327"/>
</g>
<!-- Node31 -->
<g id="node80" class="node"><title>Node31</title>
<a xlink:href="alphabeticonlayout_8cpp.htm" target="_top" xlink:title="alphabeticonlayout.cpp">
<polygon fill="white" stroke="black" points="1263,-58.5 1263,-79.5 1387,-79.5 1387,-58.5 1263,-58.5"/>
<text text-anchor="middle" x="1325" y="-66.5" font-family="Helvetica,sans-Serif" font-size="10.00">alphabeticonlayout.cpp</text>
</a>
</g>
<!-- Node28&#45;&gt;Node31 -->
<g id="edge100" class="edge"><title>Node28&#45;&gt;Node31</title>
<path fill="none" stroke="midnightblue" d="M1360.24,-179.135C1319.87,-171.532 1256.99,-156.967 1243,-138 1224.78,-113.293 1264.11,-91.771 1294.37,-79.592"/>
<polygon fill="midnightblue" stroke="midnightblue" points="1359.76,-182.605 1370.23,-180.961 1361.02,-175.719 1359.76,-182.605"/>
</g>
<!-- Node32 -->
<g id="node83" class="node"><title>Node32</title>
<a xlink:href="iconlayout_8cpp.htm" target="_top" xlink:title="iconlayout.cpp">
<polygon fill="white" stroke="black" points="1563.5,-116.5 1563.5,-137.5 1646.5,-137.5 1646.5,-116.5 1563.5,-116.5"/>
<text text-anchor="middle" x="1605" y="-124.5" font-family="Helvetica,sans-Serif" font-size="10.00">iconlayout.cpp</text>
</a>
</g>
<!-- Node28&#45;&gt;Node32 -->
<g id="edge102" class="edge"><title>Node28&#45;&gt;Node32</title>
<path fill="none" stroke="midnightblue" d="M1429.52,-175.467C1467.29,-165.036 1527.66,-148.362 1566.82,-137.546"/>
<polygon fill="midnightblue" stroke="midnightblue" points="1428.21,-172.197 1419.5,-178.233 1430.07,-178.945 1428.21,-172.197"/>
</g>
<!-- Node33 -->
<g id="node87" class="node"><title>Node33</title>
<a xlink:href="reorderablepage_8h.htm" target="_top" xlink:title="reorderablepage.h">
<polygon fill="white" stroke="black" points="978,-116.5 978,-137.5 1082,-137.5 1082,-116.5 978,-116.5"/>
<text text-anchor="middle" x="1030" y="-124.5" font-family="Helvetica,sans-Serif" font-size="10.00">reorderablepage.h</text>
</a>
</g>
<!-- Node28&#45;&gt;Node33 -->
<g id="edge108" class="edge"><title>Node28&#45;&gt;Node33</title>
<path fill="none" stroke="midnightblue" d="M1360.46,-179.511C1296.14,-169.29 1157.7,-147.292 1082.02,-135.266"/>
<polygon fill="midnightblue" stroke="midnightblue" points="1360.06,-182.992 1370.48,-181.104 1361.16,-176.078 1360.06,-182.992"/>
</g>
<!-- Node34 -->
<g id="node95" class="node"><title>Node34</title>
<a xlink:href="layoutsettings_8cpp.htm" target="_top" xlink:title="layoutsettings.cpp">
<polygon fill="white" stroke="black" points="1663.5,-116.5 1663.5,-137.5 1764.5,-137.5 1764.5,-116.5 1663.5,-116.5"/>
<text text-anchor="middle" x="1714" y="-124.5" font-family="Helvetica,sans-Serif" font-size="10.00">layoutsettings.cpp</text>
</a>
</g>
<!-- Node28&#45;&gt;Node34 -->
<g id="edge122" class="edge"><title>Node28&#45;&gt;Node34</title>
<path fill="none" stroke="midnightblue" d="M1429.68,-178.794C1479.53,-169.857 1574.34,-152.81 1655,-138 1657.77,-137.492 1660.61,-136.969 1663.47,-136.439"/>
<polygon fill="midnightblue" stroke="midnightblue" points="1428.97,-175.365 1419.74,-180.574 1430.2,-182.255 1428.97,-175.365"/>
</g>
<!-- Node35 -->
<g id="node97" class="node"><title>Node35</title>
<a xlink:href="operationalsettings_8cpp.htm" target="_top" xlink:title="operationalsettings.cpp">
<polygon fill="white" stroke="black" points="1782,-116.5 1782,-137.5 1908,-137.5 1908,-116.5 1782,-116.5"/>
<text text-anchor="middle" x="1845" y="-124.5" font-family="Helvetica,sans-Serif" font-size="10.00">operationalsettings.cpp</text>
</a>
</g>
<!-- Node28&#45;&gt;Node35 -->
<g id="edge124" class="edge"><title>Node28&#45;&gt;Node35</title>
<path fill="none" stroke="midnightblue" d="M1429.76,-181.007C1496.41,-173.277 1646.78,-155.486 1773,-138 1775.88,-137.601 1778.83,-137.185 1781.8,-136.758"/>
<polygon fill="midnightblue" stroke="midnightblue" points="1429.33,-177.533 1419.8,-182.159 1430.13,-184.487 1429.33,-177.533"/>
</g>
<!-- Node30&#45;&gt;Node3 -->
<g id="edge94" class="edge"><title>Node30&#45;&gt;Node3</title>
<path fill="none" stroke="midnightblue" d="M1246.48,-113.945C1207.05,-103.55 1152.58,-89.1897 1115.92,-79.5231"/>
<polygon fill="midnightblue" stroke="midnightblue" points="1245.6,-117.332 1256.16,-116.497 1247.38,-110.563 1245.6,-117.332"/>
</g>
<!-- Node30&#45;&gt;Node8 -->
<g id="edge96" class="edge"><title>Node30&#45;&gt;Node8</title>
<path fill="none" stroke="midnightblue" d="M1350.76,-115.846C1507.48,-92.2787 1550.24,-102.09 1704,-80 1706.68,-79.6147 1709.43,-79.1943 1712.2,-78.7497"/>
<polygon fill="midnightblue" stroke="midnightblue" points="1350.12,-112.402 1340.76,-117.37 1351.17,-119.322 1350.12,-112.402"/>
</g>
<!-- Node30&#45;&gt;Node31 -->
<g id="edge98" class="edge"><title>Node30&#45;&gt;Node31</title>
<path fill="none" stroke="midnightblue" d="M1305.81,-107.373C1310.47,-98.0682 1315.84,-87.3204 1319.71,-79.5707"/>
<polygon fill="midnightblue" stroke="midnightblue" points="1302.66,-105.852 1301.32,-116.362 1308.92,-108.983 1302.66,-105.852"/>
</g>
<!-- Node33&#45;&gt;Node3 -->
<g id="edge110" class="edge"><title>Node33&#45;&gt;Node3</title>
<path fill="none" stroke="midnightblue" d="M1044.87,-108.25C1052.41,-98.75 1061.28,-87.5651 1067.62,-79.5707"/>
<polygon fill="midnightblue" stroke="midnightblue" points="1041.91,-106.352 1038.44,-116.362 1047.39,-110.702 1041.91,-106.352"/>
</g>
<!-- Node33&#45;&gt;Node6 -->
<g id="edge112" class="edge"><title>Node33&#45;&gt;Node6</title>
<path fill="none" stroke="midnightblue" d="M1004.9,-110.821C989.393,-100.831 969.947,-88.2993 956.403,-79.5707"/>
<polygon fill="midnightblue" stroke="midnightblue" points="1003.19,-113.887 1013.49,-116.362 1006.98,-108.003 1003.19,-113.887"/>
</g>
<!-- Node33&#45;&gt;Node9 -->
<g id="edge114" class="edge"><title>Node33&#45;&gt;Node9</title>
<path fill="none" stroke="midnightblue" d="M1092.56,-122.332C1190.03,-114.831 1383.99,-98.9932 1548,-80 1550.85,-79.6696 1553.76,-79.3194 1556.7,-78.9549"/>
<polygon fill="midnightblue" stroke="midnightblue" points="1091.99,-118.864 1082.29,-123.118 1092.53,-125.844 1091.99,-118.864"/>
</g>
<!-- Node33&#45;&gt;Node12 -->
<g id="edge116" class="edge"><title>Node33&#45;&gt;Node12</title>
<path fill="none" stroke="midnightblue" d="M980.432,-113.812C941.403,-103.428 887.731,-89.1487 851.552,-79.5231"/>
<polygon fill="midnightblue" stroke="midnightblue" points="979.958,-117.308 990.522,-116.497 981.758,-110.543 979.958,-117.308"/>
</g>
<!-- Node33&#45;&gt;Node18 -->
<g id="edge120" class="edge"><title>Node33&#45;&gt;Node18</title>
<path fill="none" stroke="midnightblue" d="M1070.69,-113.279C1101.34,-102.944 1142.73,-88.9849 1170.79,-79.5231"/>
<polygon fill="midnightblue" stroke="midnightblue" points="1069.51,-109.985 1061.15,-116.497 1071.74,-116.618 1069.51,-109.985"/>
</g>
<!-- Node33&#45;&gt;Node25 -->
<g id="edge118" class="edge"><title>Node33&#45;&gt;Node25</title>
<path fill="none" stroke="midnightblue" d="M967.799,-117.256C910.199,-108.102 822.199,-93.7859 746,-80 743.075,-79.4708 740.067,-78.9146 737.034,-78.345"/>
<polygon fill="midnightblue" stroke="midnightblue" points="967.411,-120.738 977.836,-118.847 968.508,-113.824 967.411,-120.738"/>
</g>
</g>
</svg>
