<?xml version="1.0" encoding="UTF-8" standalone="no"?>
<!DOCTYPE svg PUBLIC "-//W3C//DTD SVG 1.1//EN"
 "http://www.w3.org/Graphics/SVG/1.1/DTD/svg11.dtd">
<!-- Generated by graphviz version 2.26.3 (20100126.1600)
 -->
<!-- Title: dimensionsmain.h Pages: 1 -->
<svg width="1126pt" height="146pt"
 viewBox="0.00 0.00 1126.00 146.00" xmlns="http://www.w3.org/2000/svg" xmlns:xlink="http://www.w3.org/1999/xlink">
<g id="graph1" class="graph" transform="scale(1 1) rotate(0) translate(4 142)">
<title>dimensionsmain.h</title>
<polygon fill="white" stroke="white" points="-4,5 -4,-142 1123,-142 1123,5 -4,5"/>
<!-- Node1 -->
<g id="node1" class="node"><title>Node1</title>
<polygon fill="#bfbfbf" stroke="black" points="591.5,-116.5 591.5,-137.5 692.5,-137.5 692.5,-116.5 591.5,-116.5"/>
<text text-anchor="middle" x="642" y="-124.5" font-family="Helvetica,sans-Serif" font-size="10.00">dimensionsmain.h</text>
</g>
<!-- Node2 -->
<g id="node3" class="node"><title>Node2</title>
<a xlink:href="ApplicationManager_8cpp.htm" target="_top" xlink:title="ApplicationManager.cpp">
<polygon fill="white" stroke="black" points="-0.5,-0.5 -0.5,-21.5 130.5,-21.5 130.5,-0.5 -0.5,-0.5"/>
<text text-anchor="middle" x="65" y="-8.5" font-family="Helvetica,sans-Serif" font-size="10.00">ApplicationManager.cpp</text>
</a>
</g>
<!-- Node1&#45;&gt;Node2 -->
<g id="edge2" class="edge"><title>Node1&#45;&gt;Node2</title>
<path fill="none" stroke="midnightblue" d="M580.927,-123.078C477.886,-116.019 273.987,-100.027 205,-80 157.638,-66.2512 106.858,-37.1766 81.4589,-21.5167"/>
<polygon fill="midnightblue" stroke="midnightblue" points="580.963,-126.588 591.177,-123.773 581.437,-119.604 580.963,-126.588"/>
</g>
<!-- Node3 -->
<g id="node5" class="node"><title>Node3</title>
<a xlink:href="dimensionslauncher_8cpp.htm" target="_top" xlink:title="dimensionslauncher.cpp">
<polygon fill="white" stroke="black" points="392,-58.5 392,-79.5 522,-79.5 522,-58.5 392,-58.5"/>
<text text-anchor="middle" x="457" y="-66.5" font-family="Helvetica,sans-Serif" font-size="10.00">dimensionslauncher.cpp</text>
</a>
</g>
<!-- Node1&#45;&gt;Node3 -->
<g id="edge4" class="edge"><title>Node1&#45;&gt;Node3</title>
<path fill="none" stroke="midnightblue" d="M598.661,-113.413C565.654,-103.065 520.876,-89.0258 490.565,-79.5231"/>
<polygon fill="midnightblue" stroke="midnightblue" points="597.909,-116.845 608.498,-116.497 600.003,-110.165 597.909,-116.845"/>
</g>
<!-- Node4 -->
<g id="node7" class="node"><title>Node4</title>
<a xlink:href="dimensionsmain_8cpp.htm" target="_top" xlink:title="dimensionsmain.cpp">
<polygon fill="white" stroke="black" points="148,-0.5 148,-21.5 260,-21.5 260,-0.5 148,-0.5"/>
<text text-anchor="middle" x="204" y="-8.5" font-family="Helvetica,sans-Serif" font-size="10.00">dimensionsmain.cpp</text>
</a>
</g>
<!-- Node1&#45;&gt;Node4 -->
<g id="edge6" class="edge"><title>Node1&#45;&gt;Node4</title>
<path fill="none" stroke="midnightblue" d="M581.219,-123.917C471.612,-117.818 249.69,-102.798 223,-80 205.9,-65.3937 203.482,-36.949 203.534,-21.5358"/>
<polygon fill="midnightblue" stroke="midnightblue" points="581.289,-127.426 591.466,-124.479 581.673,-120.437 581.289,-127.426"/>
</g>
<!-- Node5 -->
<g id="node9" class="node"><title>Node5</title>
<a xlink:href="OverlayWindowManager_8h.htm" target="_top" xlink:title="OverlayWindowManager.h">
<polygon fill="white" stroke="black" points="232,-58.5 232,-79.5 374,-79.5 374,-58.5 232,-58.5"/>
<text text-anchor="middle" x="303" y="-66.5" font-family="Helvetica,sans-Serif" font-size="10.00">OverlayWindowManager.h</text>
</a>
</g>
<!-- Node1&#45;&gt;Node5 -->
<g id="edge8" class="edge"><title>Node1&#45;&gt;Node5</title>
<path fill="none" stroke="midnightblue" d="M581.336,-116.621C520.086,-106.142 425.981,-90.041 364.452,-79.5139"/>
<polygon fill="midnightblue" stroke="midnightblue" points="580.801,-120.08 591.248,-118.317 581.982,-113.18 580.801,-120.08"/>
</g>
<!-- Node9 -->
<g id="node19" class="node"><title>Node9</title>
<a xlink:href="quicklaunchbar_8cpp.htm" target="_top" xlink:title="quicklaunchbar.cpp">
<polygon fill="white" stroke="black" points="540,-58.5 540,-79.5 646,-79.5 646,-58.5 540,-58.5"/>
<text text-anchor="middle" x="593" y="-66.5" font-family="Helvetica,sans-Serif" font-size="10.00">quicklaunchbar.cpp</text>
</a>
</g>
<!-- Node1&#45;&gt;Node9 -->
<g id="edge20" class="edge"><title>Node1&#45;&gt;Node9</title>
<path fill="none" stroke="midnightblue" d="M626.405,-108.541C618.327,-98.9786 608.753,-87.6467 601.93,-79.5707"/>
<polygon fill="midnightblue" stroke="midnightblue" points="623.885,-110.982 633.013,-116.362 629.233,-106.464 623.885,-110.982"/>
</g>
<!-- Node10 -->
<g id="node21" class="node"><title>Node10</title>
<a xlink:href="icon_8cpp.htm" target="_top" xlink:title="icon.cpp">
<polygon fill="white" stroke="black" points="664,-58.5 664,-79.5 720,-79.5 720,-58.5 664,-58.5"/>
<text text-anchor="middle" x="692" y="-66.5" font-family="Helvetica,sans-Serif" font-size="10.00">icon.cpp</text>
</a>
</g>
<!-- Node1&#45;&gt;Node10 -->
<g id="edge22" class="edge"><title>Node1&#45;&gt;Node10</title>
<path fill="none" stroke="midnightblue" d="M657.913,-108.541C666.156,-98.9786 675.925,-87.6467 682.887,-79.5707"/>
<polygon fill="midnightblue" stroke="midnightblue" points="655.049,-106.502 651.171,-116.362 660.351,-111.073 655.049,-106.502"/>
</g>
<!-- Node11 -->
<g id="node23" class="node"><title>Node11</title>
<a xlink:href="page_8cpp.htm" target="_top" xlink:title="page.cpp">
<polygon fill="white" stroke="black" points="738,-58.5 738,-79.5 798,-79.5 798,-58.5 738,-58.5"/>
<text text-anchor="middle" x="768" y="-66.5" font-family="Helvetica,sans-Serif" font-size="10.00">page.cpp</text>
</a>
</g>
<!-- Node1&#45;&gt;Node11 -->
<g id="edge24" class="edge"><title>Node1&#45;&gt;Node11</title>
<path fill="none" stroke="midnightblue" d="M674.138,-112.206C696.243,-102.031 725.08,-88.7567 744.926,-79.6212"/>
<polygon fill="midnightblue" stroke="midnightblue" points="672.438,-109.136 664.818,-116.497 675.365,-115.494 672.438,-109.136"/>
</g>
<!-- Node12 -->
<g id="node25" class="node"><title>Node12</title>
<a xlink:href="reorderablepage_8cpp.htm" target="_top" xlink:title="reorderablepage.cpp">
<polygon fill="white" stroke="black" points="815.5,-58.5 815.5,-79.5 930.5,-79.5 930.5,-58.5 815.5,-58.5"/>
<text text-anchor="middle" x="873" y="-66.5" font-family="Helvetica,sans-Serif" font-size="10.00">reorderablepage.cpp</text>
</a>
</g>
<!-- Node1&#45;&gt;Node12 -->
<g id="edge26" class="edge"><title>Node1&#45;&gt;Node12</title>
<path fill="none" stroke="midnightblue" d="M693.733,-114.011C735.153,-103.611 792.508,-89.2102 831.089,-79.5231"/>
<polygon fill="midnightblue" stroke="midnightblue" points="692.679,-110.667 683.832,-116.497 694.384,-117.456 692.679,-110.667"/>
</g>
<!-- Node13 -->
<g id="node27" class="node"><title>Node13</title>
<a xlink:href="pagerestore_8cpp.htm" target="_top" xlink:title="pagerestore.cpp">
<polygon fill="white" stroke="black" points="948,-58.5 948,-79.5 1042,-79.5 1042,-58.5 948,-58.5"/>
<text text-anchor="middle" x="995" y="-66.5" font-family="Helvetica,sans-Serif" font-size="10.00">pagerestore.cpp</text>
</a>
</g>
<!-- Node1&#45;&gt;Node13 -->
<g id="edge28" class="edge"><title>Node1&#45;&gt;Node13</title>
<path fill="none" stroke="midnightblue" d="M702.618,-118.079C762.717,-109.076 857.366,-94.4717 939,-80 941.927,-79.4812 944.937,-78.9328 947.97,-78.3691"/>
<polygon fill="midnightblue" stroke="midnightblue" points="701.917,-114.645 692.544,-119.584 702.951,-121.568 701.917,-114.645"/>
</g>
<!-- Node14 -->
<g id="node29" class="node"><title>Node14</title>
<a xlink:href="thing_8cpp.htm" target="_top" xlink:title="thing.cpp">
<polygon fill="white" stroke="black" points="1059.5,-58.5 1059.5,-79.5 1118.5,-79.5 1118.5,-58.5 1059.5,-58.5"/>
<text text-anchor="middle" x="1089" y="-66.5" font-family="Helvetica,sans-Serif" font-size="10.00">thing.cpp</text>
</a>
</g>
<!-- Node1&#45;&gt;Node14 -->
<g id="edge30" class="edge"><title>Node1&#45;&gt;Node14</title>
<path fill="none" stroke="midnightblue" d="M703.227,-123.174C783.639,-117.419 928.941,-104.5 1051,-80 1053.69,-79.4593 1056.47,-78.8191 1059.25,-78.1236"/>
<polygon fill="midnightblue" stroke="midnightblue" points="702.527,-119.714 692.797,-123.906 703.017,-126.697 702.527,-119.714"/>
</g>
<!-- Node5&#45;&gt;Node2 -->
<g id="edge10" class="edge"><title>Node5&#45;&gt;Node2</title>
<path fill="none" stroke="midnightblue" d="M249.969,-56.0766C207.274,-45.6718 148.015,-31.2306 108.181,-21.5231"/>
<polygon fill="midnightblue" stroke="midnightblue" points="249.356,-59.5294 259.9,-58.4966 251.013,-52.7284 249.356,-59.5294"/>
</g>
<!-- Node5&#45;&gt;Node4 -->
<g id="edge14" class="edge"><title>Node5&#45;&gt;Node4</title>
<path fill="none" stroke="midnightblue" d="M275.862,-53.1009C258.733,-43.0658 237.081,-30.3808 222.043,-21.5707"/>
<polygon fill="midnightblue" stroke="midnightblue" points="274.444,-56.3268 284.842,-58.3619 277.983,-50.287 274.444,-56.3268"/>
</g>
<!-- Node6 -->
<g id="node12" class="node"><title>Node6</title>
<a xlink:href="SystemUiController_8cpp.htm" target="_top" xlink:title="SystemUiController.cpp">
<polygon fill="white" stroke="black" points="277.5,-0.5 277.5,-21.5 404.5,-21.5 404.5,-0.5 277.5,-0.5"/>
<text text-anchor="middle" x="341" y="-8.5" font-family="Helvetica,sans-Serif" font-size="10.00">SystemUiController.cpp</text>
</a>
</g>
<!-- Node5&#45;&gt;Node6 -->
<g id="edge12" class="edge"><title>Node5&#45;&gt;Node6</title>
<path fill="none" stroke="midnightblue" d="M315.475,-49.9591C321.658,-40.522 328.89,-29.4835 334.074,-21.5707"/>
<polygon fill="midnightblue" stroke="midnightblue" points="312.522,-48.0792 309.97,-58.3619 318.378,-51.9154 312.522,-48.0792"/>
</g>
<!-- Node7 -->
<g id="node15" class="node"><title>Node7</title>
<a xlink:href="OverlayWindowManager_8cpp.htm" target="_top" xlink:title="OverlayWindowManager.cpp">
<polygon fill="white" stroke="black" points="421.5,-0.5 421.5,-21.5 574.5,-21.5 574.5,-0.5 421.5,-0.5"/>
<text text-anchor="middle" x="498" y="-8.5" font-family="Helvetica,sans-Serif" font-size="10.00">OverlayWindowManager.cpp</text>
</a>
</g>
<!-- Node5&#45;&gt;Node7 -->
<g id="edge16" class="edge"><title>Node5&#45;&gt;Node7</title>
<path fill="none" stroke="midnightblue" d="M348.232,-55.5464C383.065,-45.1857 430.534,-31.0668 462.621,-21.5231"/>
<polygon fill="midnightblue" stroke="midnightblue" points="346.9,-52.2909 338.313,-58.4966 348.896,-59.0004 346.9,-52.2909"/>
</g>
<!-- Node8 -->
<g id="node17" class="node"><title>Node8</title>
<a xlink:href="WindowServerLuna_8cpp.htm" target="_top" xlink:title="WindowServerLuna.cpp">
<polygon fill="white" stroke="black" points="592,-0.5 592,-21.5 720,-21.5 720,-0.5 592,-0.5"/>
<text text-anchor="middle" x="656" y="-8.5" font-family="Helvetica,sans-Serif" font-size="10.00">WindowServerLuna.cpp</text>
</a>
</g>
<!-- Node5&#45;&gt;Node8 -->
<g id="edge18" class="edge"><title>Node5&#45;&gt;Node8</title>
<path fill="none" stroke="midnightblue" d="M376.893,-56.8589C440.511,-46.4061 531.376,-31.4764 591.954,-21.5231"/>
<polygon fill="midnightblue" stroke="midnightblue" points="376.226,-53.4215 366.926,-58.4966 377.361,-60.3289 376.226,-53.4215"/>
</g>
</g>
</svg>
