<?xml version="1.0" encoding="UTF-8" standalone="no"?>
<!DOCTYPE svg PUBLIC "-//W3C//DTD SVG 1.1//EN"
 "http://www.w3.org/Graphics/SVG/1.1/DTD/svg11.dtd">
<!-- Generated by graphviz version 2.26.3 (20100126.1600)
 -->
<!-- Title: sound Pages: 1 -->
<svg width="94pt" height="153pt"
 viewBox="0.00 0.00 94.00 153.00" xmlns="http://www.w3.org/2000/svg" xmlns:xlink="http://www.w3.org/1999/xlink">
<g id="graph1" class="graph" transform="scale(1 1) rotate(0) translate(4 149)">
<title>sound</title>
<polygon fill="white" stroke="white" points="-4,5 -4,-149 91,-149 91,5 -4,5"/>
<g id="graph2" class="cluster"><title>clusterdir_8c5e5096bb729179ac3532fcf9eeb777</title>
<a xlink:href="dir_8c5e5096bb729179ac3532fcf9eeb777.htm" target="_top" xlink:title="Src">
<polygon fill="#ddddee" stroke="black" points="8,-64 8,-137 78,-137 78,-64 8,-64"/>
<text text-anchor="middle" x="43" y="-124" font-family="Helvetica,sans-Serif" font-size="10.00">Src</text>
</a>
</g>
<!-- dir_4d9791920573076ed1c5754640e7d26a -->
<g id="node2" class="node"><title>dir_4d9791920573076ed1c5754640e7d26a</title>
<a xlink:href="dir_4d9791920573076ed1c5754640e7d26a.htm" target="_top" xlink:title="sound">
<polygon fill="#eeeeff" stroke="black" points="70,-108 16,-108 16,-72 70,-72 70,-108"/>
<text text-anchor="middle" x="43" y="-87.5" font-family="Helvetica,sans-Serif" font-size="10.00">sound</text>
</a>
</g>
<!-- dir_464f84f5da23097a678db14a336cf9f8 -->
<g id="node3" class="node"><title>dir_464f84f5da23097a678db14a336cf9f8</title>
<a xlink:href="dir_464f84f5da23097a678db14a336cf9f8.htm" target="_top" xlink:title="base">
<polygon fill="white" stroke="red" points="70,-36 16,-36 16,-1.77636e-14 70,-3.55271e-15 70,-36"/>
<text text-anchor="middle" x="43" y="-15.5" font-family="Helvetica,sans-Serif" font-size="10.00">base</text>
</a>
</g>
<!-- dir_4d9791920573076ed1c5754640e7d26a&#45;&gt;dir_464f84f5da23097a678db14a336cf9f8 -->
<g id="edge3" class="edge"><title>dir_4d9791920573076ed1c5754640e7d26a&#45;&gt;dir_464f84f5da23097a678db14a336cf9f8</title>
<path fill="none" stroke="black" d="M37.0476,-71.8314C36.2972,-64.131 36.0763,-54.9743 36.3849,-46.4166"/>
<polygon fill="black" stroke="black" points="39.8792,-46.6161 37.024,-36.4133 32.8935,-46.1697 39.8792,-46.6161"/>
<a xlink:href="dir_000037_000008.htm" target="_top" xlink:title="2">
<text text-anchor="middle" x="42.4836" y="-47.8844" font-family="Helvetica,sans-Serif" font-size="10.00">2</text>
</a>
</g>
<!-- dir_464f84f5da23097a678db14a336cf9f8&#45;&gt;dir_4d9791920573076ed1c5754640e7d26a -->
<g id="edge5" class="edge"><title>dir_464f84f5da23097a678db14a336cf9f8&#45;&gt;dir_4d9791920573076ed1c5754640e7d26a</title>
<path fill="none" stroke="black" d="M48.976,-36.4133C49.7071,-44.0593 49.9203,-53.1084 49.6155,-61.5726"/>
<polygon fill="black" stroke="black" points="46.1048,-61.6264 48.9524,-71.8314 53.0902,-62.078 46.1048,-61.6264"/>
<a xlink:href="dir_000008_000037.htm" target="_top" xlink:title="2">
<text text-anchor="middle" x="43.5032" y="-55.3562" font-family="Helvetica,sans-Serif" font-size="10.00">2</text>
</a>
</g>
</g>
</svg>
