<?xml version="1.0" encoding="UTF-8" standalone="no"?>
<!DOCTYPE svg PUBLIC "-//W3C//DTD SVG 1.1//EN"
 "http://www.w3.org/Graphics/SVG/1.1/DTD/svg11.dtd">
<!-- Generated by graphviz version 2.26.3 (20100126.1600)
 -->
<!-- Title: base Pages: 1 -->
<svg width="604pt" height="413pt"
 viewBox="0.00 0.00 604.05 413.00" xmlns="http://www.w3.org/2000/svg" xmlns:xlink="http://www.w3.org/1999/xlink">
<g id="graph1" class="graph" transform="scale(1 1) rotate(0) translate(4 409)">
<title>base</title>
<polygon fill="white" stroke="white" points="-4,5 -4,-409 601.047,-409 601.047,5 -4,5"/>
<g id="graph2" class="cluster"><title>clusterdir_8c5e5096bb729179ac3532fcf9eeb777</title>
<a xlink:href="dir_8c5e5096bb729179ac3532fcf9eeb777.htm" target="_top" xlink:title="Src">
<polygon fill="#ddddee" stroke="black" points="95.5987,-56 95.5987,-289 429.599,-289 429.599,-56 95.5987,-56"/>
<text text-anchor="middle" x="262.599" y="-276" font-family="Helvetica,sans-Serif" font-size="10.00">Src</text>
</a>
</g>
<g id="graph3" class="cluster"><title>clusterdir_464f84f5da23097a678db14a336cf9f8</title>
<a xlink:href="dir_464f84f5da23097a678db14a336cf9f8.htm" target="_top">
<polygon fill="#eeeeff" stroke="black" points="103.599,-64 103.599,-260 421.599,-260 421.599,-64 103.599,-64"/>
</a>
</g>
<!-- dir_464f84f5da23097a678db14a336cf9f8 -->
<g id="node3" class="node"><title>dir_464f84f5da23097a678db14a336cf9f8</title>
<text text-anchor="middle" x="325.599" y="-231.5" font-family="Helvetica,sans-Serif" font-size="10.00">base</text>
</g>
<!-- dir_1e11d809bd72c8e09b801d2aa6342677 -->
<g id="node4" class="node"><title>dir_1e11d809bd72c8e09b801d2aa6342677</title>
<a xlink:href="dir_1e11d809bd72c8e09b801d2aa6342677.htm" target="_top" xlink:title="application">
<polygon fill="white" stroke="black" points="413.599,-180 345.599,-180 345.599,-144 413.599,-144 413.599,-180"/>
<text text-anchor="middle" x="379.599" y="-159.5" font-family="Helvetica,sans-Serif" font-size="10.00">application</text>
</a>
</g>
<!-- dir_464f84f5da23097a678db14a336cf9f8&#45;&gt;dir_1e11d809bd72c8e09b801d2aa6342677 -->
<g id="edge78" class="edge"><title>dir_464f84f5da23097a678db14a336cf9f8&#45;&gt;dir_1e11d809bd72c8e09b801d2aa6342677</title>
<path fill="none" stroke="black" d="M339.225,-215.831C345.445,-207.539 352.931,-197.557 359.759,-188.453"/>
<polygon fill="black" stroke="black" points="362.589,-190.513 365.789,-180.413 356.989,-186.313 362.589,-190.513"/>
<a xlink:href="dir_000008_000012.htm" target="_top" xlink:title="8">
<text text-anchor="middle" x="362.703" y="-192.593" font-family="Helvetica,sans-Serif" font-size="10.00">8</text>
</a>
</g>
<!-- dir_c167092ae5eac99771683c5bd18e8921 -->
<g id="node5" class="node"><title>dir_c167092ae5eac99771683c5bd18e8921</title>
<a xlink:href="dir_c167092ae5eac99771683c5bd18e8921.htm" target="_top" xlink:title="gesture">
<polygon fill="white" stroke="black" points="237.599,-180 183.599,-180 183.599,-144 237.599,-144 237.599,-180"/>
<text text-anchor="middle" x="210.599" y="-159.5" font-family="Helvetica,sans-Serif" font-size="10.00">gesture</text>
</a>
</g>
<!-- dir_464f84f5da23097a678db14a336cf9f8&#45;&gt;dir_c167092ae5eac99771683c5bd18e8921 -->
<g id="edge74" class="edge"><title>dir_464f84f5da23097a678db14a336cf9f8&#45;&gt;dir_c167092ae5eac99771683c5bd18e8921</title>
<path fill="none" stroke="black" d="M298.345,-216.937C282.735,-207.163 262.966,-194.786 246.146,-184.256"/>
<polygon fill="black" stroke="black" points="247.99,-181.281 237.656,-178.941 244.275,-187.214 247.99,-181.281"/>
<a xlink:href="dir_000008_000025.htm" target="_top" xlink:title="10">
<text text-anchor="middle" x="252.543" y="-178.282" font-family="Helvetica,sans-Serif" font-size="10.00">10</text>
</a>
</g>
<!-- dir_25aa4e48a4e83683210fc5723977861b -->
<g id="node7" class="node"><title>dir_25aa4e48a4e83683210fc5723977861b</title>
<a xlink:href="dir_25aa4e48a4e83683210fc5723977861b.htm" target="_top" xlink:title="visual">
<polygon fill="white" stroke="black" points="165.599,-180 111.599,-180 111.599,-144 165.599,-144 165.599,-180"/>
<text text-anchor="middle" x="138.599" y="-159.5" font-family="Helvetica,sans-Serif" font-size="10.00">visual</text>
</a>
</g>
<!-- dir_464f84f5da23097a678db14a336cf9f8&#45;&gt;dir_25aa4e48a4e83683210fc5723977861b -->
<g id="edge70" class="edge"><title>dir_464f84f5da23097a678db14a336cf9f8&#45;&gt;dir_25aa4e48a4e83683210fc5723977861b</title>
<path fill="none" stroke="black" d="M298.492,-225.399C269.823,-216.067 223.188,-200.218 175.239,-180.055"/>
<polygon fill="black" stroke="black" points="176.528,-176.8 165.956,-176.104 173.786,-183.241 176.528,-176.8"/>
<a xlink:href="dir_000008_000015.htm" target="_top" xlink:title="5">
<text text-anchor="middle" x="180.948" y="-173.096" font-family="Helvetica,sans-Serif" font-size="10.00">5</text>
</a>
</g>
<!-- dir_ef5d7310b8347d781a85bb96f5a0641f -->
<g id="node8" class="node"><title>dir_ef5d7310b8347d781a85bb96f5a0641f</title>
<a xlink:href="dir_ef5d7310b8347d781a85bb96f5a0641f.htm" target="_top" xlink:title="windowdata">
<polygon fill="white" stroke="black" points="327.599,-180 255.599,-180 255.599,-144 327.599,-144 327.599,-180"/>
<text text-anchor="middle" x="291.599" y="-159.5" font-family="Helvetica,sans-Serif" font-size="10.00">windowdata</text>
</a>
</g>
<!-- dir_464f84f5da23097a678db14a336cf9f8&#45;&gt;dir_ef5d7310b8347d781a85bb96f5a0641f -->
<g id="edge68" class="edge"><title>dir_464f84f5da23097a678db14a336cf9f8&#45;&gt;dir_ef5d7310b8347d781a85bb96f5a0641f</title>
<path fill="none" stroke="black" d="M317.019,-215.831C313.263,-207.877 308.773,-198.369 304.619,-189.572"/>
<polygon fill="black" stroke="black" points="307.729,-187.961 300.294,-180.413 301.399,-190.95 307.729,-187.961"/>
<a xlink:href="dir_000008_000030.htm" target="_top" xlink:title="2">
<text text-anchor="middle" x="311.831" y="-187.499" font-family="Helvetica,sans-Serif" font-size="10.00">2</text>
</a>
</g>
<!-- dir_59731d5c6a3878ca841d15b3fcb24c81 -->
<g id="node9" class="node"><title>dir_59731d5c6a3878ca841d15b3fcb24c81</title>
<a xlink:href="dir_59731d5c6a3878ca841d15b3fcb24c81.htm" target="_top" xlink:title="ime">
<polygon fill="none" stroke="black" points="436.599,-333 382.599,-333 382.599,-297 436.599,-297 436.599,-333"/>
<text text-anchor="middle" x="409.599" y="-312.5" font-family="Helvetica,sans-Serif" font-size="10.00">ime</text>
</a>
</g>
<!-- dir_464f84f5da23097a678db14a336cf9f8&#45;&gt;dir_59731d5c6a3878ca841d15b3fcb24c81 -->
<g id="edge66" class="edge"><title>dir_464f84f5da23097a678db14a336cf9f8&#45;&gt;dir_59731d5c6a3878ca841d15b3fcb24c81</title>
<path fill="none" stroke="black" d="M324.853,-252.178C328.689,-263.882 336.761,-278.765 347.599,-289 351.674,-292.848 361.941,-298.154 373.068,-302.97"/>
<polygon fill="black" stroke="black" points="371.92,-306.282 382.499,-306.857 374.587,-299.81 371.92,-306.282"/>
<a xlink:href="dir_000008_000032.htm" target="_top" xlink:title="9">
<text text-anchor="middle" x="367.515" y="-305.038" font-family="Helvetica,sans-Serif" font-size="10.00">9</text>
</a>
</g>
<!-- dir_4d9791920573076ed1c5754640e7d26a -->
<g id="node11" class="node"><title>dir_4d9791920573076ed1c5754640e7d26a</title>
<a xlink:href="dir_4d9791920573076ed1c5754640e7d26a.htm" target="_top" xlink:title="sound">
<polygon fill="none" stroke="black" points="491.599,-180 437.599,-180 437.599,-144 491.599,-144 491.599,-180"/>
<text text-anchor="middle" x="464.599" y="-159.5" font-family="Helvetica,sans-Serif" font-size="10.00">sound</text>
</a>
</g>
<!-- dir_464f84f5da23097a678db14a336cf9f8&#45;&gt;dir_4d9791920573076ed1c5754640e7d26a -->
<g id="edge72" class="edge"><title>dir_464f84f5da23097a678db14a336cf9f8&#45;&gt;dir_4d9791920573076ed1c5754640e7d26a</title>
<path fill="none" stroke="black" d="M347.27,-216.178C347.379,-216.118 347.489,-216.059 347.599,-216 374.028,-201.738 404.699,-186.527 428.165,-175.896"/>
<polygon fill="black" stroke="black" points="429.71,-179.039 437.424,-171.777 426.865,-172.644 429.71,-179.039"/>
<a xlink:href="dir_000008_000037.htm" target="_top" xlink:title="2">
<text text-anchor="middle" x="427.58" y="-180.595" font-family="Helvetica,sans-Serif" font-size="10.00">2</text>
</a>
</g>
<!-- dir_57e915abe98f4a60d2ce98af8f14ea67 -->
<g id="node13" class="node"><title>dir_57e915abe98f4a60d2ce98af8f14ea67</title>
<a xlink:href="dir_57e915abe98f4a60d2ce98af8f14ea67.htm" target="_top" xlink:title="core">
<polygon fill="none" stroke="black" points="285.599,-36 231.599,-36 231.599,-1.77636e-14 285.599,-3.55271e-15 285.599,-36"/>
<text text-anchor="middle" x="258.599" y="-15.5" font-family="Helvetica,sans-Serif" font-size="10.00">core</text>
</a>
</g>
<!-- dir_464f84f5da23097a678db14a336cf9f8&#45;&gt;dir_57e915abe98f4a60d2ce98af8f14ea67 -->
<g id="edge76" class="edge"><title>dir_464f84f5da23097a678db14a336cf9f8&#45;&gt;dir_57e915abe98f4a60d2ce98af8f14ea67</title>
<path fill="none" stroke="black" d="M298.569,-231.548C244.632,-226.035 126.737,-210.68 102.599,-180 57.2029,-122.3 162.654,-61.9635 221.849,-33.9925"/>
<polygon fill="black" stroke="black" points="223.668,-37.0071 231.271,-29.628 220.726,-30.6554 223.668,-37.0071"/>
<a xlink:href="dir_000008_000009.htm" target="_top" xlink:title="4">
<text text-anchor="middle" x="221.6" y="-38.5942" font-family="Helvetica,sans-Serif" font-size="10.00">4</text>
</a>
</g>
<!-- dir_8251a59ace91be7fadfa1b96656146e6 -->
<g id="node14" class="node"><title>dir_8251a59ace91be7fadfa1b96656146e6</title>
<a xlink:href="dir_8251a59ace91be7fadfa1b96656146e6.htm" target="_top" xlink:title="minimalui">
<polygon fill="none" stroke="black" points="438.599,-405 380.599,-405 380.599,-369 438.599,-369 438.599,-405"/>
<text text-anchor="middle" x="409.599" y="-384.5" font-family="Helvetica,sans-Serif" font-size="10.00">minimalui</text>
</a>
</g>
<!-- dir_464f84f5da23097a678db14a336cf9f8&#45;&gt;dir_8251a59ace91be7fadfa1b96656146e6 -->
<g id="edge80" class="edge"><title>dir_464f84f5da23097a678db14a336cf9f8&#45;&gt;dir_8251a59ace91be7fadfa1b96656146e6</title>
<path fill="none" stroke="black" d="M333.549,-252.265C342.53,-272.425 357.946,-305.645 373.599,-333 378.832,-342.145 385.045,-351.815 390.825,-360.406"/>
<polygon fill="black" stroke="black" points="388.099,-362.62 396.631,-368.9 393.878,-358.669 388.099,-362.62"/>
<a xlink:href="dir_000008_000040.htm" target="_top" xlink:title="1">
<text text-anchor="middle" x="383.726" y="-358.754" font-family="Helvetica,sans-Serif" font-size="10.00">1</text>
</a>
</g>
<!-- dir_5be8bd0ea62fa52371e7cd2708d17a5a -->
<g id="node6" class="node"><title>dir_5be8bd0ea62fa52371e7cd2708d17a5a</title>
<a xlink:href="dir_5be8bd0ea62fa52371e7cd2708d17a5a.htm" target="_top" xlink:title="settings">
<polygon fill="white" stroke="black" points="285.599,-108 231.599,-108 231.599,-72 285.599,-72 285.599,-108"/>
<text text-anchor="middle" x="258.599" y="-87.5" font-family="Helvetica,sans-Serif" font-size="10.00">settings</text>
</a>
</g>
<!-- dir_1e11d809bd72c8e09b801d2aa6342677&#45;&gt;dir_5be8bd0ea62fa52371e7cd2708d17a5a -->
<g id="edge56" class="edge"><title>dir_1e11d809bd72c8e09b801d2aa6342677&#45;&gt;dir_5be8bd0ea62fa52371e7cd2708d17a5a</title>
<path fill="none" stroke="black" d="M349.065,-143.831C332.491,-133.969 311.904,-121.719 294.557,-111.397"/>
<polygon fill="black" stroke="black" points="296.203,-108.303 285.819,-106.197 292.623,-114.319 296.203,-108.303"/>
<a xlink:href="dir_000012_000010.htm" target="_top" xlink:title="4">
<text text-anchor="middle" x="300.744" y="-105.201" font-family="Helvetica,sans-Serif" font-size="10.00">4</text>
</a>
</g>
<!-- dir_068a3097f6591815b07393108c1b1474 -->
<g id="node10" class="node"><title>dir_068a3097f6591815b07393108c1b1474</title>
<a xlink:href="dir_068a3097f6591815b07393108c1b1474.htm" target="_top" xlink:title="lunaui">
<polygon fill="white" stroke="red" points="491.599,-252 437.599,-252 437.599,-216 491.599,-216 491.599,-252"/>
<text text-anchor="middle" x="464.599" y="-231.5" font-family="Helvetica,sans-Serif" font-size="10.00">lunaui</text>
</a>
</g>
<!-- dir_1e11d809bd72c8e09b801d2aa6342677&#45;&gt;dir_068a3097f6591815b07393108c1b1474 -->
<g id="edge52" class="edge"><title>dir_1e11d809bd72c8e09b801d2aa6342677&#45;&gt;dir_068a3097f6591815b07393108c1b1474</title>
<path fill="none" stroke="black" d="M395.089,-180.163C404.693,-189.03 417.28,-199.829 429.144,-209.422"/>
<polygon fill="black" stroke="black" points="427.193,-212.342 437.197,-215.831 431.553,-206.865 427.193,-212.342"/>
<a xlink:href="dir_000012_000002.htm" target="_top" xlink:title="5">
<text text-anchor="middle" x="422.613" y="-209.825" font-family="Helvetica,sans-Serif" font-size="10.00">5</text>
</a>
</g>
<!-- dir_269bfdf56438ec912a58fc83ca564e37 -->
<g id="node12" class="node"><title>dir_269bfdf56438ec912a58fc83ca564e37</title>
<a xlink:href="dir_269bfdf56438ec912a58fc83ca564e37.htm" target="_top" xlink:title="remote">
<polygon fill="none" stroke="black" points="563.599,-180 509.599,-180 509.599,-144 563.599,-144 563.599,-180"/>
<text text-anchor="middle" x="536.599" y="-159.5" font-family="Helvetica,sans-Serif" font-size="10.00">remote</text>
</a>
</g>
<!-- dir_1e11d809bd72c8e09b801d2aa6342677&#45;&gt;dir_269bfdf56438ec912a58fc83ca564e37 -->
<g id="edge54" class="edge"><title>dir_1e11d809bd72c8e09b801d2aa6342677&#45;&gt;dir_269bfdf56438ec912a58fc83ca564e37</title>
<path fill="none" stroke="black" d="M397.575,-180.23C405.708,-187.213 415.891,-194.37 426.599,-198 453.958,-207.274 464.338,-207.562 491.599,-198 498.738,-195.496 505.587,-191.329 511.693,-186.701"/>
<polygon fill="black" stroke="black" points="514.051,-189.293 519.517,-180.217 509.584,-183.903 514.051,-189.293"/>
<a xlink:href="dir_000012_000033.htm" target="_top" xlink:title="3">
<text text-anchor="middle" x="513.095" y="-191.273" font-family="Helvetica,sans-Serif" font-size="10.00">3</text>
</a>
</g>
<!-- dir_5be8bd0ea62fa52371e7cd2708d17a5a&#45;&gt;dir_59731d5c6a3878ca841d15b3fcb24c81 -->
<g id="edge48" class="edge"><title>dir_5be8bd0ea62fa52371e7cd2708d17a5a&#45;&gt;dir_59731d5c6a3878ca841d15b3fcb24c81</title>
<path fill="none" stroke="black" d="M231.489,-95.4576C190.99,-104.223 117.81,-122.638 102.599,-144 93.3181,-157.033 94.6274,-166.127 102.599,-180 158.333,-276.998 303.34,-304.441 372.22,-312.097"/>
<polygon fill="black" stroke="black" points="371.897,-315.582 382.203,-313.126 372.615,-308.619 371.897,-315.582"/>
<a xlink:href="dir_000010_000032.htm" target="_top" xlink:title="1">
<text text-anchor="middle" x="368.03" y="-315.538" font-family="Helvetica,sans-Serif" font-size="10.00">1</text>
</a>
</g>
<!-- dir_5be8bd0ea62fa52371e7cd2708d17a5a&#45;&gt;dir_57e915abe98f4a60d2ce98af8f14ea67 -->
<g id="edge50" class="edge"><title>dir_5be8bd0ea62fa52371e7cd2708d17a5a&#45;&gt;dir_57e915abe98f4a60d2ce98af8f14ea67</title>
<path fill="none" stroke="black" d="M258.599,-71.8314C258.599,-64.131 258.599,-54.9743 258.599,-46.4166"/>
<polygon fill="black" stroke="black" points="262.099,-46.4132 258.599,-36.4133 255.099,-46.4133 262.099,-46.4132"/>
<a xlink:href="dir_000010_000009.htm" target="_top" xlink:title="1">
<text text-anchor="middle" x="264.938" y="-47.5079" font-family="Helvetica,sans-Serif" font-size="10.00">1</text>
</a>
</g>
<!-- dir_25aa4e48a4e83683210fc5723977861b&#45;&gt;dir_5be8bd0ea62fa52371e7cd2708d17a5a -->
<g id="edge16" class="edge"><title>dir_25aa4e48a4e83683210fc5723977861b&#45;&gt;dir_5be8bd0ea62fa52371e7cd2708d17a5a</title>
<path fill="none" stroke="black" d="M165.829,-145.662C182.706,-135.536 204.573,-122.416 222.837,-111.457"/>
<polygon fill="black" stroke="black" points="224.702,-114.419 231.477,-106.273 221.101,-108.417 224.702,-114.419"/>
<a xlink:href="dir_000015_000010.htm" target="_top" xlink:title="3">
<text text-anchor="middle" x="223.081" y="-116.204" font-family="Helvetica,sans-Serif" font-size="10.00">3</text>
</a>
</g>
<!-- dir_ef5d7310b8347d781a85bb96f5a0641f&#45;&gt;dir_269bfdf56438ec912a58fc83ca564e37 -->
<g id="edge14" class="edge"><title>dir_ef5d7310b8347d781a85bb96f5a0641f&#45;&gt;dir_269bfdf56438ec912a58fc83ca564e37</title>
<path fill="none" stroke="black" d="M312.425,-180.077C321.887,-187.126 333.629,-194.376 345.599,-198 407.703,-216.804 430.368,-219.479 491.599,-198 498.738,-195.496 505.587,-191.329 511.693,-186.701"/>
<polygon fill="black" stroke="black" points="514.051,-189.293 519.517,-180.217 509.584,-183.903 514.051,-189.293"/>
<a xlink:href="dir_000030_000033.htm" target="_top" xlink:title="3">
<text text-anchor="middle" x="513.095" y="-191.273" font-family="Helvetica,sans-Serif" font-size="10.00">3</text>
</a>
</g>
<!-- dir_59731d5c6a3878ca841d15b3fcb24c81&#45;&gt;dir_464f84f5da23097a678db14a336cf9f8 -->
<g id="edge12" class="edge"><title>dir_59731d5c6a3878ca841d15b3fcb24c81&#45;&gt;dir_464f84f5da23097a678db14a336cf9f8</title>
<path fill="none" stroke="black" d="M382.367,-299.292C375.189,-295.59 368.654,-291.885 365.599,-289 357.386,-281.244 350.761,-270.818 345.19,-261.13"/>
<polygon fill="black" stroke="black" points="348.108,-259.178 340.154,-252.178 342.007,-262.61 348.108,-259.178"/>
<a xlink:href="dir_000032_000008.htm" target="_top" xlink:title="15">
<text text-anchor="middle" x="352.345" y="-258.419" font-family="Helvetica,sans-Serif" font-size="10.00">15</text>
</a>
</g>
<!-- dir_59731d5c6a3878ca841d15b3fcb24c81&#45;&gt;dir_c167092ae5eac99771683c5bd18e8921 -->
<g id="edge8" class="edge"><title>dir_59731d5c6a3878ca841d15b3fcb24c81&#45;&gt;dir_c167092ae5eac99771683c5bd18e8921</title>
<path fill="none" stroke="black" d="M405.524,-296.946C399.598,-274.766 386.485,-237.449 361.599,-216 323.329,-183.015 299.121,-198.06 247.51,-179.874"/>
<polygon fill="black" stroke="black" points="248.499,-176.505 237.908,-176.221 246.01,-183.048 248.499,-176.505"/>
<a xlink:href="dir_000032_000025.htm" target="_top" xlink:title="4">
<text text-anchor="middle" x="252.868" y="-172.63" font-family="Helvetica,sans-Serif" font-size="10.00">4</text>
</a>
</g>
<!-- dir_59731d5c6a3878ca841d15b3fcb24c81&#45;&gt;dir_5be8bd0ea62fa52371e7cd2708d17a5a -->
<g id="edge10" class="edge"><title>dir_59731d5c6a3878ca841d15b3fcb24c81&#45;&gt;dir_5be8bd0ea62fa52371e7cd2708d17a5a</title>
<path fill="none" stroke="black" d="M382.497,-314.139C297.89,-311.322 43.5645,-301.817 31.5987,-289 -12.3791,-241.893 -8.35096,-194.568 31.5987,-144 54.8257,-114.599 163.014,-99.4924 221.249,-93.3734"/>
<polygon fill="black" stroke="black" points="221.913,-96.8241 231.51,-92.334 221.208,-89.8598 221.913,-96.8241"/>
<a xlink:href="dir_000032_000010.htm" target="_top" xlink:title="4">
<text text-anchor="middle" x="218.623" y="-97.5111" font-family="Helvetica,sans-Serif" font-size="10.00">4</text>
</a>
</g>
<!-- dir_59731d5c6a3878ca841d15b3fcb24c81&#45;&gt;dir_068a3097f6591815b07393108c1b1474 -->
<g id="edge4" class="edge"><title>dir_59731d5c6a3878ca841d15b3fcb24c81&#45;&gt;dir_068a3097f6591815b07393108c1b1474</title>
<path fill="none" stroke="black" d="M416.318,-296.62C422.542,-285.878 431.668,-272.141 440.395,-260.271"/>
<polygon fill="black" stroke="black" points="443.389,-262.115 446.632,-252.028 437.807,-257.891 443.389,-262.115"/>
<a xlink:href="dir_000032_000002.htm" target="_top" xlink:title="4">
<text text-anchor="middle" x="443.484" y="-264.194" font-family="Helvetica,sans-Serif" font-size="10.00">4</text>
</a>
</g>
<!-- dir_59731d5c6a3878ca841d15b3fcb24c81&#45;&gt;dir_4d9791920573076ed1c5754640e7d26a -->
<g id="edge6" class="edge"><title>dir_59731d5c6a3878ca841d15b3fcb24c81&#45;&gt;dir_4d9791920573076ed1c5754640e7d26a</title>
<path fill="none" stroke="black" d="M436.874,-310.881C460.777,-306.648 492.881,-299.232 500.599,-289 520.137,-263.098 510.001,-247.052 500.599,-216 497.642,-206.236 492.273,-196.623 486.569,-188.276"/>
<polygon fill="black" stroke="black" points="489.312,-186.097 480.589,-180.083 483.657,-190.224 489.312,-186.097"/>
<a xlink:href="dir_000032_000037.htm" target="_top" xlink:title="1">
<text text-anchor="middle" x="493.724" y="-184.827" font-family="Helvetica,sans-Serif" font-size="10.00">1</text>
</a>
</g>
<!-- dir_068a3097f6591815b07393108c1b1474&#45;&gt;dir_1e11d809bd72c8e09b801d2aa6342677 -->
<g id="edge34" class="edge"><title>dir_068a3097f6591815b07393108c1b1474&#45;&gt;dir_1e11d809bd72c8e09b801d2aa6342677</title>
<path fill="none" stroke="black" d="M449.102,-215.831C439.497,-206.963 426.909,-196.164 415.045,-186.572"/>
<polygon fill="black" stroke="black" points="416.997,-183.652 406.993,-180.163 412.637,-189.129 416.997,-183.652"/>
<a xlink:href="dir_000002_000012.htm" target="_top" xlink:title="33">
<text text-anchor="middle" x="421.577" y="-181.169" font-family="Helvetica,sans-Serif" font-size="10.00">33</text>
</a>
</g>
<!-- dir_068a3097f6591815b07393108c1b1474&#45;&gt;dir_c167092ae5eac99771683c5bd18e8921 -->
<g id="edge26" class="edge"><title>dir_068a3097f6591815b07393108c1b1474&#45;&gt;dir_c167092ae5eac99771683c5bd18e8921</title>
<path fill="none" stroke="black" d="M437.223,-220.398C433.375,-218.772 429.427,-217.249 425.599,-216 351.467,-191.808 325.382,-205.224 247.547,-179.826"/>
<polygon fill="black" stroke="black" points="248.386,-176.415 237.792,-176.531 246.146,-183.047 248.386,-176.415"/>
<a xlink:href="dir_000002_000025.htm" target="_top" xlink:title="36">
<text text-anchor="middle" x="252.7" y="-172.376" font-family="Helvetica,sans-Serif" font-size="10.00">36</text>
</a>
</g>
<!-- dir_068a3097f6591815b07393108c1b1474&#45;&gt;dir_5be8bd0ea62fa52371e7cd2708d17a5a -->
<g id="edge30" class="edge"><title>dir_068a3097f6591815b07393108c1b1474&#45;&gt;dir_5be8bd0ea62fa52371e7cd2708d17a5a</title>
<path fill="none" stroke="black" d="M491.818,-228.829C517.657,-222.317 555.075,-208.353 572.599,-180 581.01,-166.39 582.909,-156.235 572.599,-144 554.86,-122.95 374.85,-101.986 295.655,-93.7016"/>
<polygon fill="black" stroke="black" points="295.928,-90.2113 285.621,-92.6636 295.208,-97.1742 295.928,-90.2113"/>
<a xlink:href="dir_000002_000010.htm" target="_top" xlink:title="36">
<text text-anchor="middle" x="299.796" y="-85.2569" font-family="Helvetica,sans-Serif" font-size="10.00">36</text>
</a>
</g>
<!-- dir_068a3097f6591815b07393108c1b1474&#45;&gt;dir_25aa4e48a4e83683210fc5723977861b -->
<g id="edge22" class="edge"><title>dir_068a3097f6591815b07393108c1b1474&#45;&gt;dir_25aa4e48a4e83683210fc5723977861b</title>
<path fill="none" stroke="black" d="M437.286,-220.197C433.428,-218.602 429.46,-217.142 425.599,-216 320.586,-184.956 284.222,-212.006 175.436,-179.681"/>
<polygon fill="black" stroke="black" points="176.323,-176.292 165.736,-176.7 174.267,-182.983 176.323,-176.292"/>
<a xlink:href="dir_000002_000015.htm" target="_top" xlink:title="9">
<text text-anchor="middle" x="180.593" y="-172.133" font-family="Helvetica,sans-Serif" font-size="10.00">9</text>
</a>
</g>
<!-- dir_068a3097f6591815b07393108c1b1474&#45;&gt;dir_ef5d7310b8347d781a85bb96f5a0641f -->
<g id="edge20" class="edge"><title>dir_068a3097f6591815b07393108c1b1474&#45;&gt;dir_ef5d7310b8347d781a85bb96f5a0641f</title>
<path fill="none" stroke="black" d="M437.401,-221.239C433.455,-219.449 429.432,-217.656 425.599,-216 416.996,-212.284 372.769,-194.503 337.444,-180.346"/>
<polygon fill="black" stroke="black" points="338.338,-176.933 327.754,-176.463 335.735,-183.431 338.338,-176.933"/>
<a xlink:href="dir_000002_000030.htm" target="_top" xlink:title="1">
<text text-anchor="middle" x="342.731" y="-173.135" font-family="Helvetica,sans-Serif" font-size="10.00">1</text>
</a>
</g>
<!-- dir_068a3097f6591815b07393108c1b1474&#45;&gt;dir_59731d5c6a3878ca841d15b3fcb24c81 -->
<g id="edge18" class="edge"><title>dir_068a3097f6591815b07393108c1b1474&#45;&gt;dir_59731d5c6a3878ca841d15b3fcb24c81</title>
<path fill="none" stroke="black" d="M458.083,-252.028C451.923,-262.704 442.825,-276.429 434.089,-288.338"/>
<polygon fill="black" stroke="black" points="431.07,-286.529 427.84,-296.62 436.657,-290.746 431.07,-286.529"/>
<a xlink:href="dir_000002_000032.htm" target="_top" xlink:title="6">
<text text-anchor="middle" x="430.968" y="-279.45" font-family="Helvetica,sans-Serif" font-size="10.00">6</text>
</a>
</g>
<!-- dir_068a3097f6591815b07393108c1b1474&#45;&gt;dir_4d9791920573076ed1c5754640e7d26a -->
<g id="edge24" class="edge"><title>dir_068a3097f6591815b07393108c1b1474&#45;&gt;dir_4d9791920573076ed1c5754640e7d26a</title>
<path fill="none" stroke="black" d="M464.599,-215.831C464.599,-208.131 464.599,-198.974 464.599,-190.417"/>
<polygon fill="black" stroke="black" points="468.099,-190.413 464.599,-180.413 461.099,-190.413 468.099,-190.413"/>
<a xlink:href="dir_000002_000037.htm" target="_top" xlink:title="7">
<text text-anchor="middle" x="470.938" y="-191.508" font-family="Helvetica,sans-Serif" font-size="10.00">7</text>
</a>
</g>
<!-- dir_068a3097f6591815b07393108c1b1474&#45;&gt;dir_269bfdf56438ec912a58fc83ca564e37 -->
<g id="edge28" class="edge"><title>dir_068a3097f6591815b07393108c1b1474&#45;&gt;dir_269bfdf56438ec912a58fc83ca564e37</title>
<path fill="none" stroke="black" d="M476.815,-215.831C484.665,-207.134 495.048,-196.578 505.004,-187.127"/>
<polygon fill="black" stroke="black" points="507.549,-189.538 512.484,-180.163 502.78,-184.415 507.549,-189.538"/>
<a xlink:href="dir_000002_000033.htm" target="_top" xlink:title="25">
<text text-anchor="middle" x="506.853" y="-191.566" font-family="Helvetica,sans-Serif" font-size="10.00">25</text>
</a>
</g>
<!-- dir_068a3097f6591815b07393108c1b1474&#45;&gt;dir_57e915abe98f4a60d2ce98af8f14ea67 -->
<g id="edge32" class="edge"><title>dir_068a3097f6591815b07393108c1b1474&#45;&gt;dir_57e915abe98f4a60d2ce98af8f14ea67</title>
<path fill="none" stroke="black" d="M491.823,-230.875C521.606,-225.84 567.979,-212.891 589.599,-180 598.387,-166.63 597.813,-157.73 589.599,-144 547.13,-73.0151 503.07,-84.9935 425.599,-56 382.443,-39.8492 330.34,-29.3272 295.935,-23.5376"/>
<polygon fill="black" stroke="black" points="296.289,-20.0491 285.856,-21.8917 295.161,-26.9576 296.289,-20.0491"/>
<a xlink:href="dir_000002_000009.htm" target="_top" xlink:title="15">
<text text-anchor="middle" x="300.294" y="-15.3261" font-family="Helvetica,sans-Serif" font-size="10.00">15</text>
</a>
</g>
<!-- dir_4d9791920573076ed1c5754640e7d26a&#45;&gt;dir_464f84f5da23097a678db14a336cf9f8 -->
<g id="edge38" class="edge"><title>dir_4d9791920573076ed1c5754640e7d26a&#45;&gt;dir_464f84f5da23097a678db14a336cf9f8</title>
<path fill="none" stroke="black" d="M437.577,-178.723C417.48,-189.124 389.766,-202.958 365.599,-216 364.298,-216.702 362.972,-217.429 361.629,-218.169"/>
<polygon fill="black" stroke="black" points="359.676,-215.249 352.615,-223.149 363.061,-221.377 359.676,-215.249"/>
<a xlink:href="dir_000037_000008.htm" target="_top" xlink:title="2">
<text text-anchor="middle" x="361.449" y="-208.526" font-family="Helvetica,sans-Serif" font-size="10.00">2</text>
</a>
</g>
<!-- dir_4d9791920573076ed1c5754640e7d26a&#45;&gt;dir_5be8bd0ea62fa52371e7cd2708d17a5a -->
<g id="edge36" class="edge"><title>dir_4d9791920573076ed1c5754640e7d26a&#45;&gt;dir_5be8bd0ea62fa52371e7cd2708d17a5a</title>
<path fill="none" stroke="black" d="M437.503,-148.991C433.542,-147.237 429.488,-145.52 425.599,-144 381.746,-126.861 329.992,-110.739 295.849,-100.65"/>
<polygon fill="black" stroke="black" points="296.428,-97.1726 285.847,-97.7183 294.459,-103.89 296.428,-97.1726"/>
<a xlink:href="dir_000037_000010.htm" target="_top" xlink:title="1">
<text text-anchor="middle" x="300.676" y="-92.959" font-family="Helvetica,sans-Serif" font-size="10.00">1</text>
</a>
</g>
<!-- dir_269bfdf56438ec912a58fc83ca564e37&#45;&gt;dir_464f84f5da23097a678db14a336cf9f8 -->
<g id="edge46" class="edge"><title>dir_269bfdf56438ec912a58fc83ca564e37&#45;&gt;dir_464f84f5da23097a678db14a336cf9f8</title>
<path fill="none" stroke="black" d="M509.356,-176.393C506.438,-177.702 503.482,-178.933 500.599,-180 441.869,-201.726 419.965,-192.291 362.338,-213.919"/>
<polygon fill="black" stroke="black" points="360.806,-210.76 352.771,-217.666 363.359,-217.278 360.806,-210.76"/>
<a xlink:href="dir_000033_000008.htm" target="_top" xlink:title="20">
<text text-anchor="middle" x="363.117" y="-204.305" font-family="Helvetica,sans-Serif" font-size="10.00">20</text>
</a>
</g>
<!-- dir_269bfdf56438ec912a58fc83ca564e37&#45;&gt;dir_1e11d809bd72c8e09b801d2aa6342677 -->
<g id="edge44" class="edge"><title>dir_269bfdf56438ec912a58fc83ca564e37&#45;&gt;dir_1e11d809bd72c8e09b801d2aa6342677</title>
<path fill="none" stroke="black" d="M519.517,-180.217C511.752,-187.198 501.984,-194.357 491.599,-198 464.338,-207.562 453.958,-207.274 426.599,-198 419.237,-195.505 412.123,-191.342 405.753,-186.715"/>
<polygon fill="black" stroke="black" points="407.585,-183.701 397.575,-180.23 403.236,-189.186 407.585,-183.701"/>
<a xlink:href="dir_000033_000012.htm" target="_top" xlink:title="4">
<text text-anchor="middle" x="412.166" y="-181.209" font-family="Helvetica,sans-Serif" font-size="10.00">4</text>
</a>
</g>
<!-- dir_269bfdf56438ec912a58fc83ca564e37&#45;&gt;dir_ef5d7310b8347d781a85bb96f5a0641f -->
<g id="edge40" class="edge"><title>dir_269bfdf56438ec912a58fc83ca564e37&#45;&gt;dir_ef5d7310b8347d781a85bb96f5a0641f</title>
<path fill="none" stroke="black" d="M519.517,-180.217C511.752,-187.198 501.984,-194.357 491.599,-198 430.368,-219.479 407.703,-216.804 345.599,-198 336.995,-195.395 328.509,-190.917 320.904,-185.987"/>
<polygon fill="black" stroke="black" points="322.63,-182.924 312.425,-180.077 318.627,-188.667 322.63,-182.924"/>
<a xlink:href="dir_000033_000030.htm" target="_top" xlink:title="1">
<text text-anchor="middle" x="327.203" y="-180.151" font-family="Helvetica,sans-Serif" font-size="10.00">1</text>
</a>
</g>
<!-- dir_269bfdf56438ec912a58fc83ca564e37&#45;&gt;dir_068a3097f6591815b07393108c1b1474 -->
<g id="edge42" class="edge"><title>dir_269bfdf56438ec912a58fc83ca564e37&#45;&gt;dir_068a3097f6591815b07393108c1b1474</title>
<path fill="none" stroke="black" d="M524.161,-180.413C516.325,-189.079 506.02,-199.546 496.142,-208.922"/>
<polygon fill="black" stroke="black" points="493.655,-206.456 488.72,-215.831 498.424,-211.58 493.655,-206.456"/>
<a xlink:href="dir_000033_000002.htm" target="_top" xlink:title="8">
<text text-anchor="middle" x="494.351" y="-199.429" font-family="Helvetica,sans-Serif" font-size="10.00">8</text>
</a>
</g>
<!-- dir_8251a59ace91be7fadfa1b96656146e6&#45;&gt;dir_464f84f5da23097a678db14a336cf9f8 -->
<g id="edge64" class="edge"><title>dir_8251a59ace91be7fadfa1b96656146e6&#45;&gt;dir_464f84f5da23097a678db14a336cf9f8</title>
<path fill="none" stroke="black" d="M380.367,-371.275C366.067,-362.041 349.957,-349.026 340.599,-333 328.057,-311.524 324.849,-283.134 324.458,-262.264"/>
<polygon fill="black" stroke="black" points="327.958,-262.119 324.477,-252.112 320.959,-262.106 327.958,-262.119"/>
<a xlink:href="dir_000040_000008.htm" target="_top" xlink:title="7">
<text text-anchor="middle" x="330.791" y="-263.218" font-family="Helvetica,sans-Serif" font-size="10.00">7</text>
</a>
</g>
<!-- dir_8251a59ace91be7fadfa1b96656146e6&#45;&gt;dir_59731d5c6a3878ca841d15b3fcb24c81 -->
<g id="edge58" class="edge"><title>dir_8251a59ace91be7fadfa1b96656146e6&#45;&gt;dir_59731d5c6a3878ca841d15b3fcb24c81</title>
<path fill="none" stroke="black" d="M409.599,-368.831C409.599,-361.131 409.599,-351.974 409.599,-343.417"/>
<polygon fill="black" stroke="black" points="413.099,-343.413 409.599,-333.413 406.099,-343.413 413.099,-343.413"/>
<a xlink:href="dir_000040_000032.htm" target="_top" xlink:title="1">
<text text-anchor="middle" x="415.938" y="-344.508" font-family="Helvetica,sans-Serif" font-size="10.00">1</text>
</a>
</g>
<!-- dir_8251a59ace91be7fadfa1b96656146e6&#45;&gt;dir_068a3097f6591815b07393108c1b1474 -->
<g id="edge60" class="edge"><title>dir_8251a59ace91be7fadfa1b96656146e6&#45;&gt;dir_068a3097f6591815b07393108c1b1474</title>
<path fill="none" stroke="black" d="M424.58,-368.558C431.967,-358.58 440.388,-345.72 445.599,-333 454.934,-310.212 459.747,-282.565 462.189,-262.286"/>
<polygon fill="black" stroke="black" points="465.691,-262.455 463.288,-252.137 458.732,-261.701 465.691,-262.455"/>
<a xlink:href="dir_000040_000002.htm" target="_top" xlink:title="4">
<text text-anchor="middle" x="468.127" y="-263.835" font-family="Helvetica,sans-Serif" font-size="10.00">4</text>
</a>
</g>
<!-- dir_8251a59ace91be7fadfa1b96656146e6&#45;&gt;dir_269bfdf56438ec912a58fc83ca564e37 -->
<g id="edge62" class="edge"><title>dir_8251a59ace91be7fadfa1b96656146e6&#45;&gt;dir_269bfdf56438ec912a58fc83ca564e37</title>
<path fill="none" stroke="black" d="M438.848,-369.886C464.972,-352.904 501.912,-324.337 520.599,-289 536.942,-258.093 539.241,-217.21 538.584,-190.285"/>
<polygon fill="black" stroke="black" points="542.071,-189.865 538.174,-180.013 535.076,-190.145 542.071,-189.865"/>
<a xlink:href="dir_000040_000033.htm" target="_top" xlink:title="2">
<text text-anchor="middle" x="545.051" y="-190.844" font-family="Helvetica,sans-Serif" font-size="10.00">2</text>
</a>
</g>
</g>
</svg>
