<?xml version="1.0" encoding="UTF-8" standalone="no"?>
<!DOCTYPE svg PUBLIC "-//W3C//DTD SVG 1.1//EN"
 "http://www.w3.org/Graphics/SVG/1.1/DTD/svg11.dtd">
<!-- Generated by graphviz version 2.26.3 (20100126.1600)
 -->
<!-- Title: settings Pages: 1 -->
<svg width="134pt" height="153pt"
 viewBox="0.00 0.00 134.00 153.00" xmlns="http://www.w3.org/2000/svg" xmlns:xlink="http://www.w3.org/1999/xlink">
<g id="graph1" class="graph" transform="scale(1 1) rotate(0) translate(4 149)">
<title>settings</title>
<polygon fill="white" stroke="white" points="-4,5 -4,-149 131,-149 131,5 -4,5"/>
<g id="graph2" class="cluster"><title>clusterdir_464f84f5da23097a678db14a336cf9f8</title>
<a xlink:href="dir_464f84f5da23097a678db14a336cf9f8.htm" target="_top" xlink:title="base">
<polygon fill="#ddddee" stroke="black" points="28,-64 28,-137 98,-137 98,-64 28,-64"/>
<text text-anchor="middle" x="63" y="-124" font-family="Helvetica,sans-Serif" font-size="10.00">base</text>
</a>
</g>
<!-- dir_5be8bd0ea62fa52371e7cd2708d17a5a -->
<g id="node2" class="node"><title>dir_5be8bd0ea62fa52371e7cd2708d17a5a</title>
<a xlink:href="dir_5be8bd0ea62fa52371e7cd2708d17a5a.htm" target="_top" xlink:title="settings">
<polygon fill="#eeeeff" stroke="black" points="90,-108 36,-108 36,-72 90,-72 90,-108"/>
<text text-anchor="middle" x="63" y="-87.5" font-family="Helvetica,sans-Serif" font-size="10.00">settings</text>
</a>
</g>
<!-- dir_59731d5c6a3878ca841d15b3fcb24c81 -->
<g id="node3" class="node"><title>dir_59731d5c6a3878ca841d15b3fcb24c81</title>
<a xlink:href="dir_59731d5c6a3878ca841d15b3fcb24c81.htm" target="_top" xlink:title="ime">
<polygon fill="none" stroke="black" points="54,-36 2.13163e-14,-36 0,-1.77636e-14 54,-3.55271e-15 54,-36"/>
<text text-anchor="middle" x="27" y="-15.5" font-family="Helvetica,sans-Serif" font-size="10.00">ime</text>
</a>
</g>
<!-- dir_5be8bd0ea62fa52371e7cd2708d17a5a&#45;&gt;dir_59731d5c6a3878ca841d15b3fcb24c81 -->
<g id="edge5" class="edge"><title>dir_5be8bd0ea62fa52371e7cd2708d17a5a&#45;&gt;dir_59731d5c6a3878ca841d15b3fcb24c81</title>
<path fill="none" stroke="black" d="M47.9633,-71.8314C43.2615,-63.9617 38.3524,-54.5712 34.3327,-45.8533"/>
<polygon fill="black" stroke="black" points="37.4261,-44.1899 30.2306,-36.4133 31.006,-46.9797 37.4261,-44.1899"/>
<a xlink:href="dir_000010_000032.htm" target="_top" xlink:title="1">
<text text-anchor="middle" x="41.4627" y="-43.8552" font-family="Helvetica,sans-Serif" font-size="10.00">1</text>
</a>
</g>
<!-- dir_57e915abe98f4a60d2ce98af8f14ea67 -->
<g id="node4" class="node"><title>dir_57e915abe98f4a60d2ce98af8f14ea67</title>
<a xlink:href="dir_57e915abe98f4a60d2ce98af8f14ea67.htm" target="_top" xlink:title="core">
<polygon fill="none" stroke="black" points="126,-36 72,-36 72,-1.77636e-14 126,-3.55271e-15 126,-36"/>
<text text-anchor="middle" x="99" y="-15.5" font-family="Helvetica,sans-Serif" font-size="10.00">core</text>
</a>
</g>
<!-- dir_5be8bd0ea62fa52371e7cd2708d17a5a&#45;&gt;dir_57e915abe98f4a60d2ce98af8f14ea67 -->
<g id="edge7" class="edge"><title>dir_5be8bd0ea62fa52371e7cd2708d17a5a&#45;&gt;dir_57e915abe98f4a60d2ce98af8f14ea67</title>
<path fill="none" stroke="black" d="M72.0843,-71.8314C76.0615,-63.8771 80.8155,-54.369 85.2139,-45.5723"/>
<polygon fill="black" stroke="black" points="88.4517,-46.9228 89.7934,-36.4133 82.1907,-43.7923 88.4517,-46.9228"/>
<a xlink:href="dir_000010_000009.htm" target="_top" xlink:title="1">
<text text-anchor="middle" x="89.3837" y="-48.9077" font-family="Helvetica,sans-Serif" font-size="10.00">1</text>
</a>
</g>
<!-- dir_59731d5c6a3878ca841d15b3fcb24c81&#45;&gt;dir_5be8bd0ea62fa52371e7cd2708d17a5a -->
<g id="edge3" class="edge"><title>dir_59731d5c6a3878ca841d15b3fcb24c81&#45;&gt;dir_5be8bd0ea62fa52371e7cd2708d17a5a</title>
<path fill="none" stroke="black" d="M42.1826,-36.4133C46.8886,-44.3141 51.7905,-53.7132 55.7918,-62.417"/>
<polygon fill="black" stroke="black" points="52.6828,-64.0454 59.8681,-71.8314 59.1065,-61.2639 52.6828,-64.0454"/>
<a xlink:href="dir_000032_000010.htm" target="_top" xlink:title="4">
<text text-anchor="middle" x="48.649" y="-59.3748" font-family="Helvetica,sans-Serif" font-size="10.00">4</text>
</a>
</g>
</g>
</svg>
