<?xml version="1.0" encoding="UTF-8" standalone="no"?>
<!DOCTYPE svg PUBLIC "-//W3C//DTD SVG 1.1//EN"
 "http://www.w3.org/Graphics/SVG/1.1/DTD/svg11.dtd">
<!-- Generated by graphviz version 2.26.3 (20100126.1600)
 -->
<!-- Title: Src Pages: 1 -->
<svg width="254pt" height="401pt"
 viewBox="0.00 0.00 254.00 401.00" xmlns="http://www.w3.org/2000/svg" xmlns:xlink="http://www.w3.org/1999/xlink">
<g id="graph1" class="graph" transform="scale(1 1) rotate(0) translate(4 397)">
<title>Src</title>
<polygon fill="white" stroke="white" points="-4,5 -4,-397 251,-397 251,5 -4,5"/>
<g id="graph2" class="cluster"><title>clusterdir_26332aa2644dbe93fe6f8b280178253c</title>
<a xlink:href="dir_26332aa2644dbe93fe6f8b280178253c.htm" target="_top" xlink:title="luna&#45;sysmgr">
<polygon fill="#ddddee" stroke="black" points="8,-8 8,-385 238,-385 238,-8 8,-8"/>
<text text-anchor="middle" x="123" y="-372" font-family="Helvetica,sans-Serif" font-size="10.00">luna&#45;sysmgr</text>
</a>
</g>
<g id="graph3" class="cluster"><title>clusterdir_8c5e5096bb729179ac3532fcf9eeb777</title>
<a xlink:href="dir_8c5e5096bb729179ac3532fcf9eeb777.htm" target="_top">
<polygon fill="#eeeeff" stroke="black" points="16,-16 16,-356 230,-356 230,-16 16,-16"/>
</a>
</g>
<!-- dir_8c5e5096bb729179ac3532fcf9eeb777 -->
<g id="node3" class="node"><title>dir_8c5e5096bb729179ac3532fcf9eeb777</title>
<text text-anchor="middle" x="195" y="-327.5" font-family="Helvetica,sans-Serif" font-size="10.00">Src</text>
</g>
<!-- dir_464f84f5da23097a678db14a336cf9f8 -->
<g id="node4" class="node"><title>dir_464f84f5da23097a678db14a336cf9f8</title>
<a xlink:href="dir_464f84f5da23097a678db14a336cf9f8.htm" target="_top" xlink:title="base">
<polygon fill="white" stroke="red" points="150,-348 96,-348 96,-312 150,-312 150,-348"/>
<text text-anchor="middle" x="123" y="-327.5" font-family="Helvetica,sans-Serif" font-size="10.00">base</text>
</a>
</g>
<!-- dir_57e915abe98f4a60d2ce98af8f14ea67 -->
<g id="node5" class="node"><title>dir_57e915abe98f4a60d2ce98af8f14ea67</title>
<a xlink:href="dir_57e915abe98f4a60d2ce98af8f14ea67.htm" target="_top" xlink:title="core">
<polygon fill="white" stroke="black" points="78,-60 24,-60 24,-24 78,-24 78,-60"/>
<text text-anchor="middle" x="51" y="-39.5" font-family="Helvetica,sans-Serif" font-size="10.00">core</text>
</a>
</g>
<!-- dir_464f84f5da23097a678db14a336cf9f8&#45;&gt;dir_57e915abe98f4a60d2ce98af8f14ea67 -->
<g id="edge42" class="edge"><title>dir_464f84f5da23097a678db14a336cf9f8&#45;&gt;dir_57e915abe98f4a60d2ce98af8f14ea67</title>
<path fill="none" stroke="black" d="M95.7227,-317.363C79.6115,-308.311 60.5508,-294.456 51,-276 16.2703,-208.887 32.0101,-115.762 43.2124,-69.8583"/>
<polygon fill="black" stroke="black" points="46.6402,-70.5805 45.7216,-60.0256 39.8575,-68.8496 46.6402,-70.5805"/>
<a xlink:href="dir_000008_000009.htm" target="_top" xlink:title="4">
<text text-anchor="middle" x="48.5025" y="-72.2655" font-family="Helvetica,sans-Serif" font-size="10.00">4</text>
</a>
</g>
<!-- dir_59731d5c6a3878ca841d15b3fcb24c81 -->
<g id="node6" class="node"><title>dir_59731d5c6a3878ca841d15b3fcb24c81</title>
<a xlink:href="dir_59731d5c6a3878ca841d15b3fcb24c81.htm" target="_top" xlink:title="ime">
<polygon fill="white" stroke="black" points="199,-204 145,-204 145,-168 199,-168 199,-204"/>
<text text-anchor="middle" x="172" y="-183.5" font-family="Helvetica,sans-Serif" font-size="10.00">ime</text>
</a>
</g>
<!-- dir_464f84f5da23097a678db14a336cf9f8&#45;&gt;dir_59731d5c6a3878ca841d15b3fcb24c81 -->
<g id="edge34" class="edge"><title>dir_464f84f5da23097a678db14a336cf9f8&#45;&gt;dir_59731d5c6a3878ca841d15b3fcb24c81</title>
<path fill="none" stroke="black" d="M128.923,-311.976C134.986,-301.91 143.115,-288.84 148,-276 155.581,-256.074 159.336,-232.224 162.502,-214.084"/>
<polygon fill="black" stroke="black" points="165.965,-214.602 164.321,-204.136 159.079,-213.343 165.965,-214.602"/>
<a xlink:href="dir_000008_000032.htm" target="_top" xlink:title="9">
<text text-anchor="middle" x="168.111" y="-216.149" font-family="Helvetica,sans-Serif" font-size="10.00">9</text>
</a>
</g>
<!-- dir_068a3097f6591815b07393108c1b1474 -->
<g id="node7" class="node"><title>dir_068a3097f6591815b07393108c1b1474</title>
<a xlink:href="dir_068a3097f6591815b07393108c1b1474.htm" target="_top" xlink:title="lunaui">
<polygon fill="white" stroke="red" points="153,-132 99,-132 99,-96 153,-96 153,-132"/>
<text text-anchor="middle" x="126" y="-111.5" font-family="Helvetica,sans-Serif" font-size="10.00">lunaui</text>
</a>
</g>
<!-- dir_464f84f5da23097a678db14a336cf9f8&#45;&gt;dir_068a3097f6591815b07393108c1b1474 -->
<g id="edge36" class="edge"><title>dir_464f84f5da23097a678db14a336cf9f8&#45;&gt;dir_068a3097f6591815b07393108c1b1474</title>
<path fill="none" stroke="black" d="M123.165,-311.917C126.256,-301.618 130.892,-288.344 133,-276 135.694,-260.228 134.32,-255.945 133,-240 131.662,-223.835 129.23,-220.067 127,-204 124.154,-183.496 121.591,-160.275 120.996,-142.556"/>
<polygon fill="black" stroke="black" points="124.494,-142.273 120.895,-132.308 117.494,-142.342 124.494,-142.273"/>
<a xlink:href="dir_000008_000002.htm" target="_top" xlink:title="16">
<text text-anchor="middle" x="127.368" y="-143.34" font-family="Helvetica,sans-Serif" font-size="10.00">16</text>
</a>
</g>
<!-- dir_8251a59ace91be7fadfa1b96656146e6 -->
<g id="node8" class="node"><title>dir_8251a59ace91be7fadfa1b96656146e6</title>
<a xlink:href="dir_8251a59ace91be7fadfa1b96656146e6.htm" target="_top" xlink:title="minimalui">
<polygon fill="white" stroke="black" points="133,-276 75,-276 75,-240 133,-240 133,-276"/>
<text text-anchor="middle" x="104" y="-255.5" font-family="Helvetica,sans-Serif" font-size="10.00">minimalui</text>
</a>
</g>
<!-- dir_464f84f5da23097a678db14a336cf9f8&#45;&gt;dir_8251a59ace91be7fadfa1b96656146e6 -->
<g id="edge44" class="edge"><title>dir_464f84f5da23097a678db14a336cf9f8&#45;&gt;dir_8251a59ace91be7fadfa1b96656146e6</title>
<path fill="none" stroke="black" d="M112.253,-311.831C109.471,-304.131 106.833,-294.974 104.884,-286.417"/>
<polygon fill="black" stroke="black" points="108.276,-285.533 102.883,-276.413 101.412,-286.906 108.276,-285.533"/>
<a xlink:href="dir_000008_000040.htm" target="_top" xlink:title="1">
<text text-anchor="middle" x="111.765" y="-286.001" font-family="Helvetica,sans-Serif" font-size="10.00">1</text>
</a>
</g>
<!-- dir_269bfdf56438ec912a58fc83ca564e37 -->
<g id="node9" class="node"><title>dir_269bfdf56438ec912a58fc83ca564e37</title>
<a xlink:href="dir_269bfdf56438ec912a58fc83ca564e37.htm" target="_top" xlink:title="remote">
<polygon fill="white" stroke="black" points="150,-60 96,-60 96,-24 150,-24 150,-60"/>
<text text-anchor="middle" x="123" y="-39.5" font-family="Helvetica,sans-Serif" font-size="10.00">remote</text>
</a>
</g>
<!-- dir_464f84f5da23097a678db14a336cf9f8&#45;&gt;dir_269bfdf56438ec912a58fc83ca564e37 -->
<g id="edge40" class="edge"><title>dir_464f84f5da23097a678db14a336cf9f8&#45;&gt;dir_269bfdf56438ec912a58fc83ca564e37</title>
<path fill="none" stroke="black" d="M95.9283,-317.788C81.1148,-308.245 64.5946,-293.656 57,-276 41.6112,-240.223 31.7696,-196.021 72,-96 76.0304,-85.9797 82.4971,-76.2643 89.5642,-67.9017"/>
<polygon fill="black" stroke="black" points="92.3137,-70.0808 96.4638,-60.3326 87.1404,-65.3651 92.3137,-70.0808"/>
<a xlink:href="dir_000008_000033.htm" target="_top" xlink:title="10">
<text text-anchor="middle" x="91.9905" y="-72.15" font-family="Helvetica,sans-Serif" font-size="10.00">10</text>
</a>
</g>
<!-- dir_4d9791920573076ed1c5754640e7d26a -->
<g id="node10" class="node"><title>dir_4d9791920573076ed1c5754640e7d26a</title>
<a xlink:href="dir_4d9791920573076ed1c5754640e7d26a.htm" target="_top" xlink:title="sound">
<polygon fill="white" stroke="black" points="222,-60 168,-60 168,-24 222,-24 222,-60"/>
<text text-anchor="middle" x="195" y="-39.5" font-family="Helvetica,sans-Serif" font-size="10.00">sound</text>
</a>
</g>
<!-- dir_464f84f5da23097a678db14a336cf9f8&#45;&gt;dir_4d9791920573076ed1c5754640e7d26a -->
<g id="edge38" class="edge"><title>dir_464f84f5da23097a678db14a336cf9f8&#45;&gt;dir_4d9791920573076ed1c5754640e7d26a</title>
<path fill="none" stroke="black" d="M134.752,-311.978C153.405,-289.185 187.451,-247.619 199,-204 211.068,-158.42 201.841,-103.317 196.482,-70.5454"/>
<polygon fill="black" stroke="black" points="199.884,-69.6557 194.849,-60.3338 192.972,-70.761 199.884,-69.6557"/>
<a xlink:href="dir_000008_000037.htm" target="_top" xlink:title="2">
<text text-anchor="middle" x="203.255" y="-70.2569" font-family="Helvetica,sans-Serif" font-size="10.00">2</text>
</a>
</g>
<!-- dir_59731d5c6a3878ca841d15b3fcb24c81&#45;&gt;dir_464f84f5da23097a678db14a336cf9f8 -->
<g id="edge8" class="edge"><title>dir_59731d5c6a3878ca841d15b3fcb24c81&#45;&gt;dir_464f84f5da23097a678db14a336cf9f8</title>
<path fill="none" stroke="black" d="M177.844,-204.136C178.663,-222.712 175.068,-252.163 166,-276 162.336,-285.63 156.848,-295.389 150.912,-303.914"/>
<polygon fill="black" stroke="black" points="148.068,-301.872 144.878,-311.976 153.672,-306.067 148.068,-301.872"/>
<a xlink:href="dir_000032_000008.htm" target="_top" xlink:title="15">
<text text-anchor="middle" x="147.948" y="-294.793" font-family="Helvetica,sans-Serif" font-size="10.00">15</text>
</a>
</g>
<!-- dir_59731d5c6a3878ca841d15b3fcb24c81&#45;&gt;dir_068a3097f6591815b07393108c1b1474 -->
<g id="edge4" class="edge"><title>dir_59731d5c6a3878ca841d15b3fcb24c81&#45;&gt;dir_068a3097f6591815b07393108c1b1474</title>
<path fill="none" stroke="black" d="M154.44,-167.831C148.52,-159.792 142.164,-150.167 136.865,-141.292"/>
<polygon fill="black" stroke="black" points="139.79,-139.357 131.788,-132.413 133.714,-142.832 139.79,-139.357"/>
<a xlink:href="dir_000032_000002.htm" target="_top" xlink:title="4">
<text text-anchor="middle" x="144.04" y="-138.568" font-family="Helvetica,sans-Serif" font-size="10.00">4</text>
</a>
</g>
<!-- dir_59731d5c6a3878ca841d15b3fcb24c81&#45;&gt;dir_4d9791920573076ed1c5754640e7d26a -->
<g id="edge6" class="edge"><title>dir_59731d5c6a3878ca841d15b3fcb24c81&#45;&gt;dir_4d9791920573076ed1c5754640e7d26a</title>
<path fill="none" stroke="black" d="M174.913,-167.762C178.853,-143.093 185.918,-98.8598 190.532,-69.9731"/>
<polygon fill="black" stroke="black" points="193.99,-70.5165 192.111,-60.0896 187.077,-69.4124 193.99,-70.5165"/>
<a xlink:href="dir_000032_000037.htm" target="_top" xlink:title="1">
<text text-anchor="middle" x="196.226" y="-72.0139" font-family="Helvetica,sans-Serif" font-size="10.00">1</text>
</a>
</g>
<!-- dir_068a3097f6591815b07393108c1b1474&#45;&gt;dir_464f84f5da23097a678db14a336cf9f8 -->
<g id="edge18" class="edge"><title>dir_068a3097f6591815b07393108c1b1474&#45;&gt;dir_464f84f5da23097a678db14a336cf9f8</title>
<path fill="none" stroke="black" d="M134.583,-132.308C138.538,-150.519 141.564,-179.241 145,-204 147.23,-220.067 149.662,-223.835 151,-240 152.32,-255.945 153.694,-260.228 151,-276 149.485,-284.872 146.664,-294.225 143.252,-302.608"/>
<polygon fill="black" stroke="black" points="139.973,-301.365 139.019,-311.917 146.345,-304.263 139.973,-301.365"/>
<a xlink:href="dir_000002_000008.htm" target="_top" xlink:title="237">
<text text-anchor="middle" x="138.876" y="-294.417" font-family="Helvetica,sans-Serif" font-size="10.00">237</text>
</a>
</g>
<!-- dir_068a3097f6591815b07393108c1b1474&#45;&gt;dir_57e915abe98f4a60d2ce98af8f14ea67 -->
<g id="edge16" class="edge"><title>dir_068a3097f6591815b07393108c1b1474&#45;&gt;dir_57e915abe98f4a60d2ce98af8f14ea67</title>
<path fill="none" stroke="black" d="M107.074,-95.8314C98.0143,-87.1337 87.0191,-76.5783 77.1735,-67.1265"/>
<polygon fill="black" stroke="black" points="79.5574,-64.5633 69.9196,-60.1628 74.7096,-69.613 79.5574,-64.5633"/>
<a xlink:href="dir_000002_000009.htm" target="_top" xlink:title="15">
<text text-anchor="middle" x="84.1167" y="-62.5045" font-family="Helvetica,sans-Serif" font-size="10.00">15</text>
</a>
</g>
<!-- dir_068a3097f6591815b07393108c1b1474&#45;&gt;dir_59731d5c6a3878ca841d15b3fcb24c81 -->
<g id="edge10" class="edge"><title>dir_068a3097f6591815b07393108c1b1474&#45;&gt;dir_59731d5c6a3878ca841d15b3fcb24c81</title>
<path fill="none" stroke="black" d="M143.74,-132.413C149.668,-140.484 156.018,-150.118 161.296,-158.978"/>
<polygon fill="black" stroke="black" points="158.35,-160.878 166.345,-167.831 164.431,-157.411 158.35,-160.878"/>
<a xlink:href="dir_000002_000032.htm" target="_top" xlink:title="6">
<text text-anchor="middle" x="154.103" y="-156.662" font-family="Helvetica,sans-Serif" font-size="10.00">6</text>
</a>
</g>
<!-- dir_068a3097f6591815b07393108c1b1474&#45;&gt;dir_269bfdf56438ec912a58fc83ca564e37 -->
<g id="edge14" class="edge"><title>dir_068a3097f6591815b07393108c1b1474&#45;&gt;dir_269bfdf56438ec912a58fc83ca564e37</title>
<path fill="none" stroke="black" d="M119.291,-95.8314C118.219,-88.131 117.617,-78.9743 117.569,-70.4166"/>
<polygon fill="black" stroke="black" points="121.068,-70.4886 117.791,-60.4133 114.07,-70.333 121.068,-70.4886"/>
<a xlink:href="dir_000002_000033.htm" target="_top" xlink:title="25">
<text text-anchor="middle" x="123.827" y="-71.6454" font-family="Helvetica,sans-Serif" font-size="10.00">25</text>
</a>
</g>
<!-- dir_068a3097f6591815b07393108c1b1474&#45;&gt;dir_4d9791920573076ed1c5754640e7d26a -->
<g id="edge12" class="edge"><title>dir_068a3097f6591815b07393108c1b1474&#45;&gt;dir_4d9791920573076ed1c5754640e7d26a</title>
<path fill="none" stroke="black" d="M143.412,-95.8314C151.521,-87.3694 161.316,-77.1489 170.182,-67.8971"/>
<polygon fill="black" stroke="black" points="172.962,-70.0549 177.354,-60.4133 167.908,-65.2115 172.962,-70.0549"/>
<a xlink:href="dir_000002_000037.htm" target="_top" xlink:title="7">
<text text-anchor="middle" x="172.525" y="-72.1146" font-family="Helvetica,sans-Serif" font-size="10.00">7</text>
</a>
</g>
<!-- dir_8251a59ace91be7fadfa1b96656146e6&#45;&gt;dir_464f84f5da23097a678db14a336cf9f8 -->
<g id="edge32" class="edge"><title>dir_8251a59ace91be7fadfa1b96656146e6&#45;&gt;dir_464f84f5da23097a678db14a336cf9f8</title>
<path fill="none" stroke="black" d="M114.835,-276.413C117.614,-284.144 120.243,-293.31 122.178,-301.854"/>
<polygon fill="black" stroke="black" points="118.778,-302.704 124.158,-311.831 125.644,-301.341 118.778,-302.704"/>
<a xlink:href="dir_000040_000008.htm" target="_top" xlink:title="7">
<text text-anchor="middle" x="115.293" y="-297.231" font-family="Helvetica,sans-Serif" font-size="10.00">7</text>
</a>
</g>
<!-- dir_8251a59ace91be7fadfa1b96656146e6&#45;&gt;dir_59731d5c6a3878ca841d15b3fcb24c81 -->
<g id="edge26" class="edge"><title>dir_8251a59ace91be7fadfa1b96656146e6&#45;&gt;dir_59731d5c6a3878ca841d15b3fcb24c81</title>
<path fill="none" stroke="black" d="M121.159,-239.831C129.151,-231.369 138.804,-221.149 147.542,-211.897"/>
<polygon fill="black" stroke="black" points="150.288,-214.087 154.61,-204.413 145.199,-209.28 150.288,-214.087"/>
<a xlink:href="dir_000040_000032.htm" target="_top" xlink:title="1">
<text text-anchor="middle" x="149.884" y="-216.149" font-family="Helvetica,sans-Serif" font-size="10.00">1</text>
</a>
</g>
<!-- dir_8251a59ace91be7fadfa1b96656146e6&#45;&gt;dir_068a3097f6591815b07393108c1b1474 -->
<g id="edge28" class="edge"><title>dir_8251a59ace91be7fadfa1b96656146e6&#45;&gt;dir_068a3097f6591815b07393108c1b1474</title>
<path fill="none" stroke="black" d="M106.786,-239.762C110.539,-215.201 117.254,-171.247 121.668,-142.354"/>
<polygon fill="black" stroke="black" points="125.186,-142.504 123.236,-132.09 118.266,-141.446 125.186,-142.504"/>
<a xlink:href="dir_000040_000002.htm" target="_top" xlink:title="4">
<text text-anchor="middle" x="127.45" y="-143.986" font-family="Helvetica,sans-Serif" font-size="10.00">4</text>
</a>
</g>
<!-- dir_8251a59ace91be7fadfa1b96656146e6&#45;&gt;dir_269bfdf56438ec912a58fc83ca564e37 -->
<g id="edge30" class="edge"><title>dir_8251a59ace91be7fadfa1b96656146e6&#45;&gt;dir_269bfdf56438ec912a58fc83ca564e37</title>
<path fill="none" stroke="black" d="M98.2422,-239.624C89.6131,-209.16 75.7784,-146.545 90,-96 92.6661,-86.5243 97.5081,-77.067 102.676,-68.7759"/>
<polygon fill="black" stroke="black" points="105.697,-70.5549 108.325,-60.2912 99.8697,-66.6757 105.697,-70.5549"/>
<a xlink:href="dir_000040_000033.htm" target="_top" xlink:title="2">
<text text-anchor="middle" x="106.068" y="-72.6205" font-family="Helvetica,sans-Serif" font-size="10.00">2</text>
</a>
</g>
<!-- dir_269bfdf56438ec912a58fc83ca564e37&#45;&gt;dir_464f84f5da23097a678db14a336cf9f8 -->
<g id="edge24" class="edge"><title>dir_269bfdf56438ec912a58fc83ca564e37&#45;&gt;dir_464f84f5da23097a678db14a336cf9f8</title>
<path fill="none" stroke="black" d="M112.61,-60.3326C104.879,-70.0857 95.3184,-82.7773 90,-96 49.7696,-196.021 59.6112,-240.223 75,-276 79.7012,-286.93 87.8224,-296.683 96.1286,-304.793"/>
<polygon fill="black" stroke="black" points="93.9842,-307.576 103.716,-311.765 98.7205,-302.421 93.9842,-307.576"/>
<a xlink:href="dir_000033_000008.htm" target="_top" xlink:title="20">
<text text-anchor="middle" x="89.4163" y="-304.734" font-family="Helvetica,sans-Serif" font-size="10.00">20</text>
</a>
</g>
<!-- dir_269bfdf56438ec912a58fc83ca564e37&#45;&gt;dir_068a3097f6591815b07393108c1b1474 -->
<g id="edge22" class="edge"><title>dir_269bfdf56438ec912a58fc83ca564e37&#45;&gt;dir_068a3097f6591815b07393108c1b1474</title>
<path fill="none" stroke="black" d="M129.743,-60.4133C130.793,-68.0593 131.383,-77.1084 131.431,-85.5726"/>
<polygon fill="black" stroke="black" points="127.926,-85.7536 131.195,-95.8314 134.924,-85.9144 127.926,-85.7536"/>
<a xlink:href="dir_000033_000002.htm" target="_top" xlink:title="8">
<text text-anchor="middle" x="125.17" y="-79.5948" font-family="Helvetica,sans-Serif" font-size="10.00">8</text>
</a>
</g>
<!-- dir_4d9791920573076ed1c5754640e7d26a&#45;&gt;dir_464f84f5da23097a678db14a336cf9f8 -->
<g id="edge20" class="edge"><title>dir_4d9791920573076ed1c5754640e7d26a&#45;&gt;dir_464f84f5da23097a678db14a336cf9f8</title>
<path fill="none" stroke="black" d="M205.945,-60.3338C217.483,-90.7369 230.432,-153.267 217,-204 206.579,-243.359 177.84,-281.047 154.681,-304.779"/>
<polygon fill="black" stroke="black" points="152.046,-302.462 147.388,-311.978 156.963,-307.444 152.046,-302.462"/>
<a xlink:href="dir_000037_000008.htm" target="_top" xlink:title="2">
<text text-anchor="middle" x="152.609" y="-295.416" font-family="Helvetica,sans-Serif" font-size="10.00">2</text>
</a>
</g>
</g>
</svg>
