<?xml version="1.0" encoding="UTF-8" standalone="no"?>
<!DOCTYPE svg PUBLIC "-//W3C//DTD SVG 1.1//EN"
 "http://www.w3.org/Graphics/SVG/1.1/DTD/svg11.dtd">
<!-- Generated by graphviz version 2.26.3 (20100126.1600)
 -->
<!-- Title: gfx Pages: 1 -->
<svg width="312pt" height="185pt"
 viewBox="0.00 0.00 312.00 185.00" xmlns="http://www.w3.org/2000/svg" xmlns:xlink="http://www.w3.org/1999/xlink">
<g id="graph1" class="graph" transform="scale(1 1) rotate(0) translate(4 181)">
<title>gfx</title>
<polygon fill="white" stroke="white" points="-4,5 -4,-181 309,-181 309,5 -4,5"/>
<g id="graph2" class="cluster"><title>clusterdir_5576ffdccfb1298a0fc1ef2b6785dd11</title>
<a xlink:href="dir_5576ffdccfb1298a0fc1ef2b6785dd11.htm" target="_top" xlink:title="launcher">
<polygon fill="#ddddee" stroke="black" points="8,-8 8,-169 238,-169 238,-8 8,-8"/>
<text text-anchor="middle" x="123" y="-156" font-family="Helvetica,sans-Serif" font-size="10.00">launcher</text>
</a>
</g>
<g id="graph3" class="cluster"><title>clusterdir_e415d1e77c00e8cfd0e3f2c57598d828</title>
<a xlink:href="dir_e415d1e77c00e8cfd0e3f2c57598d828.htm" target="_top">
<polygon fill="#eeeeff" stroke="black" points="16,-16 16,-140 230,-140 230,-16 16,-16"/>
</a>
</g>
<!-- dir_e415d1e77c00e8cfd0e3f2c57598d828 -->
<g id="node3" class="node"><title>dir_e415d1e77c00e8cfd0e3f2c57598d828</title>
<text text-anchor="middle" x="195" y="-111.5" font-family="Helvetica,sans-Serif" font-size="10.00">gfx</text>
</g>
<!-- dir_9208379e6302942b6b639d5bb6e1ea3f -->
<g id="node7" class="node"><title>dir_9208379e6302942b6b639d5bb6e1ea3f</title>
<a xlink:href="dir_9208379e6302942b6b639d5bb6e1ea3f.htm" target="_top" xlink:title="processors">
<polygon fill="white" stroke="black" points="222,-60 154,-60 154,-24 222,-24 222,-60"/>
<text text-anchor="middle" x="188" y="-39.5" font-family="Helvetica,sans-Serif" font-size="10.00">processors</text>
</a>
</g>
<!-- dir_e415d1e77c00e8cfd0e3f2c57598d828&#45;&gt;dir_9208379e6302942b6b639d5bb6e1ea3f -->
<g id="edge6" class="edge"><title>dir_e415d1e77c00e8cfd0e3f2c57598d828&#45;&gt;dir_9208379e6302942b6b639d5bb6e1ea3f</title>
<path fill="none" stroke="black" d="M193.234,-95.8314C192.485,-88.131 191.595,-78.9743 190.763,-70.4166"/>
<polygon fill="black" stroke="black" points="194.242,-70.0276 189.79,-60.4133 187.274,-70.7051 194.242,-70.0276"/>
<a xlink:href="dir_000023_000024.htm" target="_top" xlink:title="1">
<text text-anchor="middle" x="197.415" y="-70.8307" font-family="Helvetica,sans-Serif" font-size="10.00">1</text>
</a>
</g>
<!-- dir_f18584d457c4d1307344cf7be51d919c -->
<g id="node8" class="node"><title>dir_f18584d457c4d1307344cf7be51d919c</title>
<a xlink:href="dir_f18584d457c4d1307344cf7be51d919c.htm" target="_top" xlink:title="elements">
<polygon fill="white" stroke="red" points="304,-60 246,-60 246,-24 304,-24 304,-60"/>
<text text-anchor="middle" x="275" y="-39.5" font-family="Helvetica,sans-Serif" font-size="10.00">elements</text>
</a>
</g>
<!-- dir_e415d1e77c00e8cfd0e3f2c57598d828&#45;&gt;dir_f18584d457c4d1307344cf7be51d919c -->
<g id="edge8" class="edge"><title>dir_e415d1e77c00e8cfd0e3f2c57598d828&#45;&gt;dir_f18584d457c4d1307344cf7be51d919c</title>
<path fill="none" stroke="black" d="M215.187,-95.8314C224.851,-87.1337 236.58,-76.5783 247.082,-67.1265"/>
<polygon fill="black" stroke="black" points="249.728,-69.454 254.819,-60.1628 245.045,-64.251 249.728,-69.454"/>
<a xlink:href="dir_000023_000005.htm" target="_top" xlink:title="1">
<text text-anchor="middle" x="248.955" y="-71.4691" font-family="Helvetica,sans-Serif" font-size="10.00">1</text>
</a>
</g>
<!-- dir_6dc4009a11b981ec0a8ab0f8c7c8a7b3 -->
<g id="node4" class="node"><title>dir_6dc4009a11b981ec0a8ab0f8c7c8a7b3</title>
<a xlink:href="dir_6dc4009a11b981ec0a8ab0f8c7c8a7b3.htm" target="_top" xlink:title="debug">
<polygon fill="white" stroke="black" points="150,-132 96,-132 96,-96 150,-96 150,-132"/>
<text text-anchor="middle" x="123" y="-111.5" font-family="Helvetica,sans-Serif" font-size="10.00">debug</text>
</a>
</g>
<!-- dir_1c00682ce521a3d9c3507b9607d01a97 -->
<g id="node6" class="node"><title>dir_1c00682ce521a3d9c3507b9607d01a97</title>
<a xlink:href="dir_1c00682ce521a3d9c3507b9607d01a97.htm" target="_top" xlink:title="pixmapobject">
<polygon fill="white" stroke="black" points="136,-60 58,-60 58,-24 136,-24 136,-60"/>
<text text-anchor="middle" x="97" y="-39.5" font-family="Helvetica,sans-Serif" font-size="10.00">pixmapobject</text>
</a>
</g>
<!-- dir_6dc4009a11b981ec0a8ab0f8c7c8a7b3&#45;&gt;dir_1c00682ce521a3d9c3507b9607d01a97 -->
<g id="edge4" class="edge"><title>dir_6dc4009a11b981ec0a8ab0f8c7c8a7b3&#45;&gt;dir_1c00682ce521a3d9c3507b9607d01a97</title>
<path fill="none" stroke="black" d="M116.439,-95.8314C113.597,-87.9617 110.206,-78.5712 107.058,-69.8533"/>
<polygon fill="black" stroke="black" points="110.338,-68.63 103.649,-60.4133 103.754,-71.0076 110.338,-68.63"/>
<a xlink:href="dir_000036_000035.htm" target="_top" xlink:title="1">
<text text-anchor="middle" x="114.229" y="-68.5466" font-family="Helvetica,sans-Serif" font-size="10.00">1</text>
</a>
</g>
<!-- dir_b5db23f8a37a8795b5add7b9b52750bd -->
<g id="node5" class="node"><title>dir_b5db23f8a37a8795b5add7b9b52750bd</title>
<a xlink:href="dir_b5db23f8a37a8795b5add7b9b52750bd.htm" target="_top" xlink:title="effects">
<polygon fill="white" stroke="black" points="78,-132 24,-132 24,-96 78,-96 78,-132"/>
<text text-anchor="middle" x="51" y="-111.5" font-family="Helvetica,sans-Serif" font-size="10.00">effects</text>
</a>
</g>
<!-- dir_f18584d457c4d1307344cf7be51d919c&#45;&gt;dir_1c00682ce521a3d9c3507b9607d01a97 -->
<g id="edge10" class="edge"><title>dir_f18584d457c4d1307344cf7be51d919c&#45;&gt;dir_1c00682ce521a3d9c3507b9607d01a97</title>
<path fill="none" stroke="black" d="M255.688,-60.2475C247.004,-67.2335 236.198,-74.3881 225,-78 194.968,-87.6867 184.312,-86.7708 154,-78 144.835,-75.3481 135.728,-70.735 127.57,-65.6785"/>
<polygon fill="black" stroke="black" points="129.403,-62.6944 119.133,-60.0894 125.537,-68.53 129.403,-62.6944"/>
<a xlink:href="dir_000005_000035.htm" target="_top" xlink:title="32">
<text text-anchor="middle" x="133.968" y="-59.8126" font-family="Helvetica,sans-Serif" font-size="10.00">32</text>
</a>
</g>
</g>
</svg>
