<?xml version="1.0" encoding="UTF-8" standalone="no"?>
<!DOCTYPE svg PUBLIC "-//W3C//DTD SVG 1.1//EN"
 "http://www.w3.org/Graphics/SVG/1.1/DTD/svg11.dtd">
<!-- Generated by graphviz version 2.26.3 (20100126.1600)
 -->
<!-- Title: minimalui Pages: 1 -->
<svg width="210pt" height="297pt"
 viewBox="0.00 0.00 210.00 297.00" xmlns="http://www.w3.org/2000/svg" xmlns:xlink="http://www.w3.org/1999/xlink">
<g id="graph1" class="graph" transform="scale(1 1) rotate(0) translate(4 293)">
<title>minimalui</title>
<polygon fill="white" stroke="white" points="-4,5 -4,-293 207,-293 207,5 -4,5"/>
<g id="graph2" class="cluster"><title>clusterdir_8c5e5096bb729179ac3532fcf9eeb777</title>
<a xlink:href="dir_8c5e5096bb729179ac3532fcf9eeb777.htm" target="_top" xlink:title="Src">
<polygon fill="#ddddee" stroke="black" points="8,-208 8,-281 82,-281 82,-208 8,-208"/>
<text text-anchor="middle" x="45" y="-268" font-family="Helvetica,sans-Serif" font-size="10.00">Src</text>
</a>
</g>
<!-- dir_8251a59ace91be7fadfa1b96656146e6 -->
<g id="node2" class="node"><title>dir_8251a59ace91be7fadfa1b96656146e6</title>
<a xlink:href="dir_8251a59ace91be7fadfa1b96656146e6.htm" target="_top" xlink:title="minimalui">
<polygon fill="#eeeeff" stroke="black" points="74,-252 16,-252 16,-216 74,-216 74,-252"/>
<text text-anchor="middle" x="45" y="-231.5" font-family="Helvetica,sans-Serif" font-size="10.00">minimalui</text>
</a>
</g>
<!-- dir_59731d5c6a3878ca841d15b3fcb24c81 -->
<g id="node3" class="node"><title>dir_59731d5c6a3878ca841d15b3fcb24c81</title>
<a xlink:href="dir_59731d5c6a3878ca841d15b3fcb24c81.htm" target="_top" xlink:title="ime">
<polygon fill="none" stroke="black" points="170,-252 116,-252 116,-216 170,-216 170,-252"/>
<text text-anchor="middle" x="143" y="-231.5" font-family="Helvetica,sans-Serif" font-size="10.00">ime</text>
</a>
</g>
<!-- dir_8251a59ace91be7fadfa1b96656146e6&#45;&gt;dir_59731d5c6a3878ca841d15b3fcb24c81 -->
<g id="edge17" class="edge"><title>dir_8251a59ace91be7fadfa1b96656146e6&#45;&gt;dir_59731d5c6a3878ca841d15b3fcb24c81</title>
<path fill="none" stroke="black" d="M74.0938,-234C84.6325,-234 95.1713,-234 105.71,-234"/>
<polygon fill="black" stroke="black" points="105.814,-237.5 115.814,-234 105.814,-230.5 105.814,-237.5"/>
<a xlink:href="dir_000040_000032.htm" target="_top" xlink:title="1">
<text text-anchor="middle" x="102.22" y="-237.839" font-family="Helvetica,sans-Serif" font-size="10.00">1</text>
</a>
</g>
<!-- dir_068a3097f6591815b07393108c1b1474 -->
<g id="node4" class="node"><title>dir_068a3097f6591815b07393108c1b1474</title>
<a xlink:href="dir_068a3097f6591815b07393108c1b1474.htm" target="_top" xlink:title="lunaui">
<polygon fill="white" stroke="red" points="202,-180 148,-180 148,-144 202,-144 202,-180"/>
<text text-anchor="middle" x="175" y="-159.5" font-family="Helvetica,sans-Serif" font-size="10.00">lunaui</text>
</a>
</g>
<!-- dir_8251a59ace91be7fadfa1b96656146e6&#45;&gt;dir_068a3097f6591815b07393108c1b1474 -->
<g id="edge19" class="edge"><title>dir_8251a59ace91be7fadfa1b96656146e6&#45;&gt;dir_068a3097f6591815b07393108c1b1474</title>
<path fill="none" stroke="black" d="M66.5095,-215.942C70.2395,-213.137 74.1568,-210.383 78,-208 97.1538,-196.123 119.855,-185.203 138.479,-176.986"/>
<polygon fill="black" stroke="black" points="140.022,-180.132 147.806,-172.944 137.239,-173.709 140.022,-180.132"/>
<a xlink:href="dir_000040_000002.htm" target="_top" xlink:title="4">
<text text-anchor="middle" x="137.853" y="-181.666" font-family="Helvetica,sans-Serif" font-size="10.00">4</text>
</a>
</g>
<!-- dir_269bfdf56438ec912a58fc83ca564e37 -->
<g id="node5" class="node"><title>dir_269bfdf56438ec912a58fc83ca564e37</title>
<a xlink:href="dir_269bfdf56438ec912a58fc83ca564e37.htm" target="_top" xlink:title="remote">
<polygon fill="none" stroke="black" points="138,-36 84,-36 84,-1.77636e-14 138,-3.55271e-15 138,-36"/>
<text text-anchor="middle" x="111" y="-15.5" font-family="Helvetica,sans-Serif" font-size="10.00">remote</text>
</a>
</g>
<!-- dir_8251a59ace91be7fadfa1b96656146e6&#45;&gt;dir_269bfdf56438ec912a58fc83ca564e37 -->
<g id="edge21" class="edge"><title>dir_8251a59ace91be7fadfa1b96656146e6&#45;&gt;dir_269bfdf56438ec912a58fc83ca564e37</title>
<path fill="none" stroke="black" d="M40.2978,-215.806C36.3124,-197.436 32.1041,-168.373 38,-144 47.1458,-106.193 71.6669,-68.3178 89.7782,-44.1127"/>
<polygon fill="black" stroke="black" points="92.5798,-46.211 95.8814,-36.1438 87.0223,-41.9548 92.5798,-46.211"/>
<a xlink:href="dir_000040_000033.htm" target="_top" xlink:title="2">
<text text-anchor="middle" x="92.6483" y="-48.2912" font-family="Helvetica,sans-Serif" font-size="10.00">2</text>
</a>
</g>
<!-- dir_464f84f5da23097a678db14a336cf9f8 -->
<g id="node6" class="node"><title>dir_464f84f5da23097a678db14a336cf9f8</title>
<a xlink:href="dir_464f84f5da23097a678db14a336cf9f8.htm" target="_top" xlink:title="base">
<polygon fill="white" stroke="red" points="138,-108 84,-108 84,-72 138,-72 138,-108"/>
<text text-anchor="middle" x="111" y="-87.5" font-family="Helvetica,sans-Serif" font-size="10.00">base</text>
</a>
</g>
<!-- dir_8251a59ace91be7fadfa1b96656146e6&#45;&gt;dir_464f84f5da23097a678db14a336cf9f8 -->
<g id="edge23" class="edge"><title>dir_8251a59ace91be7fadfa1b96656146e6&#45;&gt;dir_464f84f5da23097a678db14a336cf9f8</title>
<path fill="none" stroke="black" d="M42.0593,-215.738C39.8856,-196.798 38.9537,-166.818 50,-144 55.8354,-131.946 65.6993,-121.421 75.8132,-112.944"/>
<polygon fill="black" stroke="black" points="78.1993,-115.52 83.9058,-106.594 73.878,-110.013 78.1993,-115.52"/>
<a xlink:href="dir_000040_000008.htm" target="_top" xlink:title="7">
<text text-anchor="middle" x="77.124" y="-117.473" font-family="Helvetica,sans-Serif" font-size="10.00">7</text>
</a>
</g>
<!-- dir_59731d5c6a3878ca841d15b3fcb24c81&#45;&gt;dir_068a3097f6591815b07393108c1b1474 -->
<g id="edge3" class="edge"><title>dir_59731d5c6a3878ca841d15b3fcb24c81&#45;&gt;dir_068a3097f6591815b07393108c1b1474</title>
<path fill="none" stroke="black" d="M145.123,-215.831C147.883,-207.877 151.898,-198.369 156.163,-189.572"/>
<polygon fill="black" stroke="black" points="159.409,-190.911 160.84,-180.413 153.175,-187.727 159.409,-190.911"/>
<a xlink:href="dir_000032_000002.htm" target="_top" xlink:title="4">
<text text-anchor="middle" x="160.303" y="-192.904" font-family="Helvetica,sans-Serif" font-size="10.00">4</text>
</a>
</g>
<!-- dir_59731d5c6a3878ca841d15b3fcb24c81&#45;&gt;dir_464f84f5da23097a678db14a336cf9f8 -->
<g id="edge5" class="edge"><title>dir_59731d5c6a3878ca841d15b3fcb24c81&#45;&gt;dir_464f84f5da23097a678db14a336cf9f8</title>
<path fill="none" stroke="black" d="M134.274,-215.762C126.356,-191.201 116.314,-147.247 111.803,-118.354"/>
<polygon fill="black" stroke="black" points="115.219,-117.505 110.362,-108.09 108.287,-118.479 115.219,-117.505"/>
<a xlink:href="dir_000032_000008.htm" target="_top" xlink:title="15">
<text text-anchor="middle" x="118.53" y="-118.17" font-family="Helvetica,sans-Serif" font-size="10.00">15</text>
</a>
</g>
<!-- dir_068a3097f6591815b07393108c1b1474&#45;&gt;dir_59731d5c6a3878ca841d15b3fcb24c81 -->
<g id="edge7" class="edge"><title>dir_068a3097f6591815b07393108c1b1474&#45;&gt;dir_59731d5c6a3878ca841d15b3fcb24c81</title>
<path fill="none" stroke="black" d="M172.792,-180.413C170.007,-188.399 165.976,-197.916 161.706,-206.697"/>
<polygon fill="black" stroke="black" points="158.472,-205.335 157.027,-215.831 164.702,-208.527 158.472,-205.335"/>
<a xlink:href="dir_000002_000032.htm" target="_top" xlink:title="6">
<text text-anchor="middle" x="157.583" y="-198.342" font-family="Helvetica,sans-Serif" font-size="10.00">6</text>
</a>
</g>
<!-- dir_068a3097f6591815b07393108c1b1474&#45;&gt;dir_269bfdf56438ec912a58fc83ca564e37 -->
<g id="edge9" class="edge"><title>dir_068a3097f6591815b07393108c1b1474&#45;&gt;dir_269bfdf56438ec912a58fc83ca564e37</title>
<path fill="none" stroke="black" d="M164.216,-143.842C157.488,-125.248 149.336,-95.7819 138,-72 133.585,-62.7381 127.756,-53.2326 122.482,-44.8288"/>
<polygon fill="black" stroke="black" points="125.351,-42.8158 117.071,-36.2058 119.422,-46.5366 125.351,-42.8158"/>
<a xlink:href="dir_000002_000033.htm" target="_top" xlink:title="25">
<text text-anchor="middle" x="129.667" y="-41.8514" font-family="Helvetica,sans-Serif" font-size="10.00">25</text>
</a>
</g>
<!-- dir_068a3097f6591815b07393108c1b1474&#45;&gt;dir_464f84f5da23097a678db14a336cf9f8 -->
<g id="edge11" class="edge"><title>dir_068a3097f6591815b07393108c1b1474&#45;&gt;dir_464f84f5da23097a678db14a336cf9f8</title>
<path fill="none" stroke="black" d="M152.898,-143.831C144.635,-135.454 135.467,-125.353 127.745,-116.175"/>
<polygon fill="black" stroke="black" points="130.434,-113.934 121.391,-108.413 125.018,-118.368 130.434,-113.934"/>
<a xlink:href="dir_000002_000008.htm" target="_top" xlink:title="237">
<text text-anchor="middle" x="134.908" y="-112.417" font-family="Helvetica,sans-Serif" font-size="10.00">237</text>
</a>
</g>
<!-- dir_269bfdf56438ec912a58fc83ca564e37&#45;&gt;dir_068a3097f6591815b07393108c1b1474 -->
<g id="edge13" class="edge"><title>dir_269bfdf56438ec912a58fc83ca564e37&#45;&gt;dir_068a3097f6591815b07393108c1b1474</title>
<path fill="none" stroke="black" d="M133.026,-36.2058C141.354,-46.3245 149.988,-59.388 156,-72 165.476,-91.8802 172.728,-115.732 176.166,-133.885"/>
<polygon fill="black" stroke="black" points="172.722,-134.51 177.739,-143.842 179.636,-133.418 172.722,-134.51"/>
<a xlink:href="dir_000033_000002.htm" target="_top" xlink:title="8">
<text text-anchor="middle" x="169.357" y="-128.902" font-family="Helvetica,sans-Serif" font-size="10.00">8</text>
</a>
</g>
<!-- dir_269bfdf56438ec912a58fc83ca564e37&#45;&gt;dir_464f84f5da23097a678db14a336cf9f8 -->
<g id="edge15" class="edge"><title>dir_269bfdf56438ec912a58fc83ca564e37&#45;&gt;dir_464f84f5da23097a678db14a336cf9f8</title>
<path fill="none" stroke="black" d="M116.976,-36.4133C117.707,-44.0593 117.92,-53.1084 117.615,-61.5726"/>
<polygon fill="black" stroke="black" points="114.105,-61.6264 116.952,-71.8314 121.09,-62.078 114.105,-61.6264"/>
<a xlink:href="dir_000033_000008.htm" target="_top" xlink:title="20">
<text text-anchor="middle" x="111.503" y="-55.3562" font-family="Helvetica,sans-Serif" font-size="10.00">20</text>
</a>
</g>
<!-- dir_464f84f5da23097a678db14a336cf9f8&#45;&gt;dir_8251a59ace91be7fadfa1b96656146e6 -->
<g id="edge31" class="edge"><title>dir_464f84f5da23097a678db14a336cf9f8&#45;&gt;dir_8251a59ace91be7fadfa1b96656146e6</title>
<path fill="none" stroke="black" d="M102.709,-108.09C91.3392,-132.896 70.8122,-177.682 57.5532,-206.611"/>
<polygon fill="black" stroke="black" points="54.3438,-205.213 53.3589,-215.762 60.7073,-208.13 54.3438,-205.213"/>
<a xlink:href="dir_000008_000040.htm" target="_top" xlink:title="1">
<text text-anchor="middle" x="53.2604" y="-198.263" font-family="Helvetica,sans-Serif" font-size="10.00">1</text>
</a>
</g>
<!-- dir_464f84f5da23097a678db14a336cf9f8&#45;&gt;dir_59731d5c6a3878ca841d15b3fcb24c81 -->
<g id="edge25" class="edge"><title>dir_464f84f5da23097a678db14a336cf9f8&#45;&gt;dir_59731d5c6a3878ca841d15b3fcb24c81</title>
<path fill="none" stroke="black" d="M119.678,-108.09C127.622,-132.681 137.725,-176.905 142.229,-205.853"/>
<polygon fill="black" stroke="black" points="138.764,-206.346 143.62,-215.762 145.696,-205.373 138.764,-206.346"/>
<a xlink:href="dir_000008_000032.htm" target="_top" xlink:title="9">
<text text-anchor="middle" x="135.452" y="-200.681" font-family="Helvetica,sans-Serif" font-size="10.00">9</text>
</a>
</g>
<!-- dir_464f84f5da23097a678db14a336cf9f8&#45;&gt;dir_068a3097f6591815b07393108c1b1474 -->
<g id="edge27" class="edge"><title>dir_464f84f5da23097a678db14a336cf9f8&#45;&gt;dir_068a3097f6591815b07393108c1b1474</title>
<path fill="none" stroke="black" d="M133.343,-108.413C141.54,-116.739 150.601,-126.728 158.246,-135.814"/>
<polygon fill="black" stroke="black" points="155.762,-138.306 164.802,-143.831 161.181,-133.875 155.762,-138.306"/>
<a xlink:href="dir_000008_000002.htm" target="_top" xlink:title="16">
<text text-anchor="middle" x="151.289" y="-134.821" font-family="Helvetica,sans-Serif" font-size="10.00">16</text>
</a>
</g>
<!-- dir_464f84f5da23097a678db14a336cf9f8&#45;&gt;dir_269bfdf56438ec912a58fc83ca564e37 -->
<g id="edge29" class="edge"><title>dir_464f84f5da23097a678db14a336cf9f8&#45;&gt;dir_269bfdf56438ec912a58fc83ca564e37</title>
<path fill="none" stroke="black" d="M105.048,-71.8314C104.297,-64.131 104.076,-54.9743 104.385,-46.4166"/>
<polygon fill="black" stroke="black" points="107.879,-46.6161 105.024,-36.4133 100.893,-46.1697 107.879,-46.6161"/>
<a xlink:href="dir_000008_000033.htm" target="_top" xlink:title="10">
<text text-anchor="middle" x="110.484" y="-47.8844" font-family="Helvetica,sans-Serif" font-size="10.00">10</text>
</a>
</g>
</g>
</svg>
