<?xml version="1.0" encoding="UTF-8" standalone="no"?>
<!DOCTYPE svg PUBLIC "-//W3C//DTD SVG 1.1//EN"
 "http://www.w3.org/Graphics/SVG/1.1/DTD/svg11.dtd">
<!-- Generated by graphviz version 2.26.3 (20100126.1600)
 -->
<!-- Title: page Pages: 1 -->
<svg width="525pt" height="269pt"
 viewBox="0.00 0.00 524.54 269.00" xmlns="http://www.w3.org/2000/svg" xmlns:xlink="http://www.w3.org/1999/xlink">
<g id="graph1" class="graph" transform="scale(1 1) rotate(0) translate(4 265)">
<title>page</title>
<polygon fill="white" stroke="white" points="-4,5 -4,-265 521.535,-265 521.535,5 -4,5"/>
<g id="graph2" class="cluster"><title>clusterdir_f18584d457c4d1307344cf7be51d919c</title>
<a xlink:href="dir_f18584d457c4d1307344cf7be51d919c.htm" target="_top" xlink:title="elements">
<polygon fill="#ddddee" stroke="black" points="92.2368,-56 92.2368,-217 198.237,-217 198.237,-56 92.2368,-56"/>
<text text-anchor="middle" x="145.237" y="-204" font-family="Helvetica,sans-Serif" font-size="10.00">elements</text>
</a>
</g>
<g id="graph3" class="cluster"><title>clusterdir_c406477c5903ef4654945fc6db8fcb47</title>
<a xlink:href="dir_c406477c5903ef4654945fc6db8fcb47.htm" target="_top">
<polygon fill="#eeeeff" stroke="black" points="100.237,-64 100.237,-188 190.237,-188 190.237,-64 100.237,-64"/>
</a>
</g>
<!-- dir_c406477c5903ef4654945fc6db8fcb47 -->
<g id="node3" class="node"><title>dir_c406477c5903ef4654945fc6db8fcb47</title>
<text text-anchor="middle" x="155.237" y="-159.5" font-family="Helvetica,sans-Serif" font-size="10.00">page</text>
</g>
<!-- dir_417fefd8a71db61db88798d0bb3f7e33 -->
<g id="node4" class="node"><title>dir_417fefd8a71db61db88798d0bb3f7e33</title>
<a xlink:href="dir_417fefd8a71db61db88798d0bb3f7e33.htm" target="_top" xlink:title="icon_layouts">
<polygon fill="white" stroke="black" points="182.237,-108 108.237,-108 108.237,-72 182.237,-72 182.237,-108"/>
<text text-anchor="middle" x="145.237" y="-87.5" font-family="Helvetica,sans-Serif" font-size="10.00">icon_layouts</text>
</a>
</g>
<!-- dir_c406477c5903ef4654945fc6db8fcb47&#45;&gt;dir_417fefd8a71db61db88798d0bb3f7e33 -->
<g id="edge14" class="edge"><title>dir_c406477c5903ef4654945fc6db8fcb47&#45;&gt;dir_417fefd8a71db61db88798d0bb3f7e33</title>
<path fill="none" stroke="black" d="M152.713,-143.831C151.644,-136.131 150.372,-126.974 149.184,-118.417"/>
<polygon fill="black" stroke="black" points="152.637,-117.837 147.794,-108.413 145.703,-118.8 152.637,-117.837"/>
<a xlink:href="dir_000006_000007.htm" target="_top" xlink:title="5">
<text text-anchor="middle" x="155.943" y="-118.507" font-family="Helvetica,sans-Serif" font-size="10.00">5</text>
</a>
</g>
<!-- dir_014d41af6e6ae2a12f90a8449c2d83d4 -->
<g id="node6" class="node"><title>dir_014d41af6e6ae2a12f90a8449c2d83d4</title>
<a xlink:href="dir_014d41af6e6ae2a12f90a8449c2d83d4.htm" target="_top" xlink:title="util">
<polygon fill="none" stroke="black" points="370.237,-108 316.237,-108 316.237,-72 370.237,-72 370.237,-108"/>
<text text-anchor="middle" x="343.237" y="-87.5" font-family="Helvetica,sans-Serif" font-size="10.00">util</text>
</a>
</g>
<!-- dir_c406477c5903ef4654945fc6db8fcb47&#45;&gt;dir_014d41af6e6ae2a12f90a8449c2d83d4 -->
<g id="edge16" class="edge"><title>dir_c406477c5903ef4654945fc6db8fcb47&#45;&gt;dir_014d41af6e6ae2a12f90a8449c2d83d4</title>
<path fill="none" stroke="black" d="M182.447,-145.755C183.716,-145.139 184.983,-144.55 186.237,-144 235.669,-122.31 251.665,-126.88 302.237,-108 303.648,-107.473 305.08,-106.923 306.522,-106.356"/>
<polygon fill="black" stroke="black" points="308.143,-109.474 316.066,-102.44 305.486,-102.998 308.143,-109.474"/>
<a xlink:href="dir_000006_000019.htm" target="_top" xlink:title="1">
<text text-anchor="middle" x="305.896" y="-110.966" font-family="Helvetica,sans-Serif" font-size="10.00">1</text>
</a>
</g>
<!-- dir_77a33e2fde2dee260511e703da35e562 -->
<g id="node7" class="node"><title>dir_77a33e2fde2dee260511e703da35e562</title>
<a xlink:href="dir_77a33e2fde2dee260511e703da35e562.htm" target="_top" xlink:title="bars">
<polygon fill="none" stroke="black" points="397.237,-261 343.237,-261 343.237,-225 397.237,-225 397.237,-261"/>
<text text-anchor="middle" x="370.237" y="-240.5" font-family="Helvetica,sans-Serif" font-size="10.00">bars</text>
</a>
</g>
<!-- dir_c406477c5903ef4654945fc6db8fcb47&#45;&gt;dir_77a33e2fde2dee260511e703da35e562 -->
<g id="edge18" class="edge"><title>dir_c406477c5903ef4654945fc6db8fcb47&#45;&gt;dir_77a33e2fde2dee260511e703da35e562</title>
<path fill="none" stroke="black" d="M153.16,-180.05C156.364,-192.487 164.472,-208.287 177.237,-217 201.378,-233.479 283.532,-239.656 332.668,-241.859"/>
<polygon fill="black" stroke="black" points="332.779,-245.366 342.915,-242.282 333.068,-238.372 332.779,-245.366"/>
<a xlink:href="dir_000006_000034.htm" target="_top" xlink:title="1">
<text text-anchor="middle" x="329.071" y="-245.555" font-family="Helvetica,sans-Serif" font-size="10.00">1</text>
</a>
</g>
<!-- dir_4fd8473e7d1f0b15f4924fed1ab25f7c -->
<g id="node9" class="node"><title>dir_4fd8473e7d1f0b15f4924fed1ab25f7c</title>
<a xlink:href="dir_4fd8473e7d1f0b15f4924fed1ab25f7c.htm" target="_top" xlink:title="physics">
<polygon fill="white" stroke="red" points="260.237,-108 206.237,-108 206.237,-72 260.237,-72 260.237,-108"/>
<text text-anchor="middle" x="233.237" y="-87.5" font-family="Helvetica,sans-Serif" font-size="10.00">physics</text>
</a>
</g>
<!-- dir_c406477c5903ef4654945fc6db8fcb47&#45;&gt;dir_4fd8473e7d1f0b15f4924fed1ab25f7c -->
<g id="edge20" class="edge"><title>dir_c406477c5903ef4654945fc6db8fcb47&#45;&gt;dir_4fd8473e7d1f0b15f4924fed1ab25f7c</title>
<path fill="none" stroke="black" d="M174.919,-143.831C184.342,-135.134 195.777,-124.578 206.016,-115.127"/>
<polygon fill="black" stroke="black" points="208.586,-117.517 213.56,-108.163 203.838,-112.374 208.586,-117.517"/>
<a xlink:href="dir_000006_000026.htm" target="_top" xlink:title="1">
<text text-anchor="middle" x="207.871" y="-119.542" font-family="Helvetica,sans-Serif" font-size="10.00">1</text>
</a>
</g>
<!-- dir_464f84f5da23097a678db14a336cf9f8 -->
<g id="node11" class="node"><title>dir_464f84f5da23097a678db14a336cf9f8</title>
<a xlink:href="dir_464f84f5da23097a678db14a336cf9f8.htm" target="_top" xlink:title="base">
<polygon fill="white" stroke="red" points="507.237,-36 453.237,-36 453.237,-1.77636e-14 507.237,-3.55271e-15 507.237,-36"/>
<text text-anchor="middle" x="480.237" y="-15.5" font-family="Helvetica,sans-Serif" font-size="10.00">base</text>
</a>
</g>
<!-- dir_c406477c5903ef4654945fc6db8fcb47&#45;&gt;dir_464f84f5da23097a678db14a336cf9f8 -->
<g id="edge22" class="edge"><title>dir_c406477c5903ef4654945fc6db8fcb47&#45;&gt;dir_464f84f5da23097a678db14a336cf9f8</title>
<path fill="none" stroke="black" d="M182.526,-145.923C183.774,-145.261 185.015,-144.617 186.237,-144 222.129,-125.874 237.832,-133.11 269.237,-108 291.593,-90.1243 283.262,-71.6382 307.237,-56 329.293,-41.6135 399.27,-29.4683 443.176,-23.0048"/>
<polygon fill="black" stroke="black" points="443.796,-26.4517 453.194,-21.5616 442.798,-19.5232 443.796,-26.4517"/>
<a xlink:href="dir_000006_000008.htm" target="_top" xlink:title="2">
<text text-anchor="middle" x="440.643" y="-27.2744" font-family="Helvetica,sans-Serif" font-size="10.00">2</text>
</a>
</g>
<!-- dir_e89844f41e8ca606ed8f570bb0f7b5f0 -->
<g id="node12" class="node"><title>dir_e89844f41e8ca606ed8f570bb0f7b5f0</title>
<a xlink:href="dir_e89844f41e8ca606ed8f570bb0f7b5f0.htm" target="_top" xlink:title="util">
<polygon fill="none" stroke="black" points="480.237,-108 426.237,-108 426.237,-72 480.237,-72 480.237,-108"/>
<text text-anchor="middle" x="453.237" y="-87.5" font-family="Helvetica,sans-Serif" font-size="10.00">util</text>
</a>
</g>
<!-- dir_c406477c5903ef4654945fc6db8fcb47&#45;&gt;dir_e89844f41e8ca606ed8f570bb0f7b5f0 -->
<g id="edge24" class="edge"><title>dir_c406477c5903ef4654945fc6db8fcb47&#45;&gt;dir_e89844f41e8ca606ed8f570bb0f7b5f0</title>
<path fill="none" stroke="black" d="M182.372,-145.57C183.661,-145.004 184.953,-144.476 186.237,-144 268.046,-113.651 293.924,-126.318 379.237,-108 391.235,-105.424 404.26,-102.35 415.99,-99.4772"/>
<polygon fill="black" stroke="black" points="417.041,-102.823 425.907,-97.0225 415.359,-96.0279 417.041,-102.823"/>
<a xlink:href="dir_000006_000020.htm" target="_top" xlink:title="3">
<text text-anchor="middle" x="414.234" y="-103.943" font-family="Helvetica,sans-Serif" font-size="10.00">3</text>
</a>
</g>
<!-- dir_e415d1e77c00e8cfd0e3f2c57598d828 -->
<g id="node5" class="node"><title>dir_e415d1e77c00e8cfd0e3f2c57598d828</title>
<a xlink:href="dir_e415d1e77c00e8cfd0e3f2c57598d828.htm" target="_top" xlink:title="gfx">
<polygon fill="white" stroke="red" points="139.237,-36 85.2368,-36 85.2368,-1.77636e-14 139.237,-3.55271e-15 139.237,-36"/>
<text text-anchor="middle" x="112.237" y="-15.5" font-family="Helvetica,sans-Serif" font-size="10.00">gfx</text>
</a>
</g>
<!-- dir_417fefd8a71db61db88798d0bb3f7e33&#45;&gt;dir_e415d1e77c00e8cfd0e3f2c57598d828 -->
<g id="edge8" class="edge"><title>dir_417fefd8a71db61db88798d0bb3f7e33&#45;&gt;dir_e415d1e77c00e8cfd0e3f2c57598d828</title>
<path fill="none" stroke="black" d="M130.957,-71.8314C126.583,-63.9617 122.065,-54.5712 118.409,-45.8533"/>
<polygon fill="black" stroke="black" points="121.615,-44.4409 114.7,-36.4133 115.099,-47.0006 121.615,-44.4409"/>
<a xlink:href="dir_000007_000023.htm" target="_top" xlink:title="6">
<text text-anchor="middle" x="125.572" y="-44.2484" font-family="Helvetica,sans-Serif" font-size="10.00">6</text>
</a>
</g>
<!-- dir_08fdc5d8002a2cb5b9e89270ac665b80 -->
<g id="node8" class="node"><title>dir_08fdc5d8002a2cb5b9e89270ac665b80</title>
<a xlink:href="dir_08fdc5d8002a2cb5b9e89270ac665b80.htm" target="_top" xlink:title="icons">
<polygon fill="none" stroke="black" points="425.237,-180 371.237,-180 371.237,-144 425.237,-144 425.237,-180"/>
<text text-anchor="middle" x="398.237" y="-159.5" font-family="Helvetica,sans-Serif" font-size="10.00">icons</text>
</a>
</g>
<!-- dir_417fefd8a71db61db88798d0bb3f7e33&#45;&gt;dir_08fdc5d8002a2cb5b9e89270ac665b80 -->
<g id="edge10" class="edge"><title>dir_417fefd8a71db61db88798d0bb3f7e33&#45;&gt;dir_08fdc5d8002a2cb5b9e89270ac665b80</title>
<path fill="none" stroke="black" d="M176.795,-107.847C176.943,-107.898 177.09,-107.949 177.237,-108 240.24,-129.689 316.453,-147.011 361.079,-155.766"/>
<polygon fill="black" stroke="black" points="360.699,-159.257 371.18,-157.704 362.018,-152.382 360.699,-159.257"/>
<a xlink:href="dir_000007_000031.htm" target="_top" xlink:title="8">
<text text-anchor="middle" x="356.634" y="-158.868" font-family="Helvetica,sans-Serif" font-size="10.00">8</text>
</a>
</g>
<!-- dir_429b8e0da341fbc3691d4e77af6b4a2e -->
<g id="node10" class="node"><title>dir_429b8e0da341fbc3691d4e77af6b4a2e</title>
<a xlink:href="dir_429b8e0da341fbc3691d4e77af6b4a2e.htm" target="_top" xlink:title="static">
<polygon fill="none" stroke="black" points="84.2368,-180 30.2368,-180 30.2368,-144 84.2368,-144 84.2368,-180"/>
<text text-anchor="middle" x="57.2368" y="-159.5" font-family="Helvetica,sans-Serif" font-size="10.00">static</text>
</a>
</g>
<!-- dir_417fefd8a71db61db88798d0bb3f7e33&#45;&gt;dir_429b8e0da341fbc3691d4e77af6b4a2e -->
<g id="edge12" class="edge"><title>dir_417fefd8a71db61db88798d0bb3f7e33&#45;&gt;dir_429b8e0da341fbc3691d4e77af6b4a2e</title>
<path fill="none" stroke="black" d="M117.086,-108.163C105.496,-116.945 92.2789,-127.622 81.1614,-137.145"/>
<polygon fill="black" stroke="black" points="78.7289,-134.622 73.4905,-143.831 83.3285,-139.899 78.7289,-134.622"/>
<a xlink:href="dir_000007_000029.htm" target="_top" xlink:title="1">
<text text-anchor="middle" x="79.573" y="-127.62" font-family="Helvetica,sans-Serif" font-size="10.00">1</text>
</a>
</g>
<!-- dir_e415d1e77c00e8cfd0e3f2c57598d828&#45;&gt;dir_c406477c5903ef4654945fc6db8fcb47 -->
<g id="edge6" class="edge"><title>dir_e415d1e77c00e8cfd0e3f2c57598d828&#45;&gt;dir_c406477c5903ef4654945fc6db8fcb47</title>
<path fill="none" stroke="black" d="M104.088,-36.3188C97.0014,-55.0408 89.2969,-84.6068 99.2368,-108 103.935,-119.056 112.128,-128.948 120.821,-137.151"/>
<polygon fill="black" stroke="black" points="118.691,-139.939 128.514,-143.91 123.312,-134.68 118.691,-139.939"/>
<a xlink:href="dir_000023_000006.htm" target="_top" xlink:title="1">
<text text-anchor="middle" x="114.117" y="-137.199" font-family="Helvetica,sans-Serif" font-size="10.00">1</text>
</a>
</g>
<!-- dir_e415d1e77c00e8cfd0e3f2c57598d828&#45;&gt;dir_417fefd8a71db61db88798d0bb3f7e33 -->
<g id="edge4" class="edge"><title>dir_e415d1e77c00e8cfd0e3f2c57598d828&#45;&gt;dir_417fefd8a71db61db88798d0bb3f7e33</title>
<path fill="none" stroke="black" d="M126.652,-36.4133C131.029,-44.3141 135.539,-53.7132 139.178,-62.417"/>
<polygon fill="black" stroke="black" points="135.958,-63.7944 142.862,-71.8314 142.477,-61.2435 135.958,-63.7944"/>
<a xlink:href="dir_000023_000007.htm" target="_top" xlink:title="1">
<text text-anchor="middle" x="132.004" y="-58.9817" font-family="Helvetica,sans-Serif" font-size="10.00">1</text>
</a>
</g>
<!-- dir_77a33e2fde2dee260511e703da35e562&#45;&gt;dir_c406477c5903ef4654945fc6db8fcb47 -->
<g id="edge30" class="edge"><title>dir_77a33e2fde2dee260511e703da35e562&#45;&gt;dir_c406477c5903ef4654945fc6db8fcb47</title>
<path fill="none" stroke="black" d="M343.068,-241.796C299.992,-239.539 219.151,-233.324 195.237,-217 185.464,-210.329 178.421,-199.504 172.868,-189.214"/>
<polygon fill="black" stroke="black" points="175.84,-187.34 168.152,-180.05 169.616,-190.543 175.84,-187.34"/>
<a xlink:href="dir_000034_000006.htm" target="_top" xlink:title="3">
<text text-anchor="middle" x="180.009" y="-186.737" font-family="Helvetica,sans-Serif" font-size="10.00">3</text>
</a>
</g>
<!-- dir_77a33e2fde2dee260511e703da35e562&#45;&gt;dir_e415d1e77c00e8cfd0e3f2c57598d828 -->
<g id="edge26" class="edge"><title>dir_77a33e2fde2dee260511e703da35e562&#45;&gt;dir_e415d1e77c00e8cfd0e3f2c57598d828</title>
<path fill="none" stroke="black" d="M342.973,-241.972C262.703,-238.816 32.152,-228.759 21.2368,-217 -29.5624,-162.276 22.6821,-114.378 69.2368,-56 72.7308,-51.6186 76.7654,-47.328 80.9343,-43.2999"/>
<polygon fill="black" stroke="black" points="83.4885,-45.7066 88.4957,-36.3696 78.7588,-40.5461 83.4885,-45.7066"/>
<a xlink:href="dir_000034_000023.htm" target="_top" xlink:title="13">
<text text-anchor="middle" x="82.7569" y="-47.7284" font-family="Helvetica,sans-Serif" font-size="10.00">13</text>
</a>
</g>
<!-- dir_77a33e2fde2dee260511e703da35e562&#45;&gt;dir_014d41af6e6ae2a12f90a8449c2d83d4 -->
<g id="edge28" class="edge"><title>dir_77a33e2fde2dee260511e703da35e562&#45;&gt;dir_014d41af6e6ae2a12f90a8449c2d83d4</title>
<path fill="none" stroke="black" d="M364.291,-224.91C363.536,-222.274 362.823,-219.579 362.237,-217 354.627,-183.521 349.297,-144.363 346.258,-118.474"/>
<polygon fill="black" stroke="black" points="349.702,-117.787 345.096,-108.246 342.747,-118.577 349.702,-117.787"/>
<a xlink:href="dir_000034_000019.htm" target="_top" xlink:title="1">
<text text-anchor="middle" x="352.929" y="-118.538" font-family="Helvetica,sans-Serif" font-size="10.00">1</text>
</a>
</g>
<!-- dir_77a33e2fde2dee260511e703da35e562&#45;&gt;dir_08fdc5d8002a2cb5b9e89270ac665b80 -->
<g id="edge32" class="edge"><title>dir_77a33e2fde2dee260511e703da35e562&#45;&gt;dir_08fdc5d8002a2cb5b9e89270ac665b80</title>
<path fill="none" stroke="black" d="M376.59,-224.62C380.16,-214.295 384.685,-201.203 388.674,-189.662"/>
<polygon fill="black" stroke="black" points="392.046,-190.623 392.005,-180.028 385.43,-188.336 392.046,-190.623"/>
<a xlink:href="dir_000034_000031.htm" target="_top" xlink:title="3">
<text text-anchor="middle" x="393.555" y="-192.448" font-family="Helvetica,sans-Serif" font-size="10.00">3</text>
</a>
</g>
<!-- dir_77a33e2fde2dee260511e703da35e562&#45;&gt;dir_464f84f5da23097a678db14a336cf9f8 -->
<g id="edge34" class="edge"><title>dir_77a33e2fde2dee260511e703da35e562&#45;&gt;dir_464f84f5da23097a678db14a336cf9f8</title>
<path fill="none" stroke="black" d="M397.385,-237.721C420.023,-232.85 450.011,-225.156 459.237,-217 515.083,-167.627 528.267,-127.212 506.237,-56 505.048,-52.1578 503.322,-48.3582 501.317,-44.7326"/>
<polygon fill="black" stroke="black" points="504.199,-42.7414 495.901,-36.1543 498.28,-46.4785 504.199,-42.7414"/>
<a xlink:href="dir_000034_000008.htm" target="_top" xlink:title="5">
<text text-anchor="middle" x="508.519" y="-41.765" font-family="Helvetica,sans-Serif" font-size="10.00">5</text>
</a>
</g>
<!-- dir_77a33e2fde2dee260511e703da35e562&#45;&gt;dir_e89844f41e8ca606ed8f570bb0f7b5f0 -->
<g id="edge36" class="edge"><title>dir_77a33e2fde2dee260511e703da35e562&#45;&gt;dir_e89844f41e8ca606ed8f570bb0f7b5f0</title>
<path fill="none" stroke="black" d="M397.372,-238.449C410.474,-234.836 425.263,-228.404 434.237,-217 456.266,-189.005 458.198,-146.479 456.538,-118.468"/>
<polygon fill="black" stroke="black" points="459.999,-117.844 455.725,-108.149 453.021,-118.393 459.999,-117.844"/>
<a xlink:href="dir_000034_000020.htm" target="_top" xlink:title="1">
<text text-anchor="middle" x="463.112" y="-118.704" font-family="Helvetica,sans-Serif" font-size="10.00">1</text>
</a>
</g>
<!-- dir_08fdc5d8002a2cb5b9e89270ac665b80&#45;&gt;dir_c406477c5903ef4654945fc6db8fcb47 -->
<g id="edge44" class="edge"><title>dir_08fdc5d8002a2cb5b9e89270ac665b80&#45;&gt;dir_c406477c5903ef4654945fc6db8fcb47</title>
<path fill="none" stroke="black" d="M370.822,-162C311.414,-162 252.007,-162 192.6,-162"/>
<polygon fill="black" stroke="black" points="192.29,-158.5 182.29,-162 192.289,-165.5 192.29,-158.5"/>
<a xlink:href="dir_000031_000006.htm" target="_top" xlink:title="3">
<text text-anchor="middle" x="195.884" y="-153.161" font-family="Helvetica,sans-Serif" font-size="10.00">3</text>
</a>
</g>
<!-- dir_08fdc5d8002a2cb5b9e89270ac665b80&#45;&gt;dir_417fefd8a71db61db88798d0bb3f7e33 -->
<g id="edge40" class="edge"><title>dir_08fdc5d8002a2cb5b9e89270ac665b80&#45;&gt;dir_417fefd8a71db61db88798d0bb3f7e33</title>
<path fill="none" stroke="black" d="M370.962,-155.242C331.473,-146.331 257.006,-129.265 195.237,-108 194.208,-107.646 193.169,-107.276 192.122,-106.895"/>
<polygon fill="black" stroke="black" points="193.167,-103.546 182.578,-103.198 190.639,-110.074 193.167,-103.546"/>
<a xlink:href="dir_000031_000007.htm" target="_top" xlink:title="2">
<text text-anchor="middle" x="197.545" y="-99.6967" font-family="Helvetica,sans-Serif" font-size="10.00">2</text>
</a>
</g>
<!-- dir_08fdc5d8002a2cb5b9e89270ac665b80&#45;&gt;dir_e415d1e77c00e8cfd0e3f2c57598d828 -->
<g id="edge38" class="edge"><title>dir_08fdc5d8002a2cb5b9e89270ac665b80&#45;&gt;dir_e415d1e77c00e8cfd0e3f2c57598d828</title>
<path fill="none" stroke="black" d="M400.806,-143.702C403.017,-119.908 402.785,-78.7152 379.237,-56 362.97,-40.3084 219.347,-26.6697 149.739,-20.9139"/>
<polygon fill="black" stroke="black" points="149.883,-17.4141 139.632,-20.0906 149.314,-24.391 149.883,-17.4141"/>
<a xlink:href="dir_000031_000023.htm" target="_top" xlink:title="8">
<text text-anchor="middle" x="153.696" y="-12.3759" font-family="Helvetica,sans-Serif" font-size="10.00">8</text>
</a>
</g>
<!-- dir_08fdc5d8002a2cb5b9e89270ac665b80&#45;&gt;dir_014d41af6e6ae2a12f90a8449c2d83d4 -->
<g id="edge42" class="edge"><title>dir_08fdc5d8002a2cb5b9e89270ac665b80&#45;&gt;dir_014d41af6e6ae2a12f90a8449c2d83d4</title>
<path fill="none" stroke="black" d="M384.358,-143.831C378.023,-135.539 370.398,-125.557 363.444,-116.453"/>
<polygon fill="black" stroke="black" points="366.154,-114.235 357.302,-108.413 360.592,-118.485 366.154,-114.235"/>
<a xlink:href="dir_000031_000019.htm" target="_top" xlink:title="1">
<text text-anchor="middle" x="370.593" y="-112.868" font-family="Helvetica,sans-Serif" font-size="10.00">1</text>
</a>
</g>
<!-- dir_08fdc5d8002a2cb5b9e89270ac665b80&#45;&gt;dir_464f84f5da23097a678db14a336cf9f8 -->
<g id="edge46" class="edge"><title>dir_08fdc5d8002a2cb5b9e89270ac665b80&#45;&gt;dir_464f84f5da23097a678db14a336cf9f8</title>
<path fill="none" stroke="black" d="M425.542,-154.051C447.087,-146.177 475.693,-131.787 489.237,-108 499.923,-89.2327 496.53,-64.6546 491.101,-45.9257"/>
<polygon fill="black" stroke="black" points="494.361,-44.6328 487.951,-36.1966 487.701,-46.7885 494.361,-44.6328"/>
<a xlink:href="dir_000031_000008.htm" target="_top" xlink:title="1">
<text text-anchor="middle" x="498.169" y="-44.6784" font-family="Helvetica,sans-Serif" font-size="10.00">1</text>
</a>
</g>
<!-- dir_08fdc5d8002a2cb5b9e89270ac665b80&#45;&gt;dir_e89844f41e8ca606ed8f570bb0f7b5f0 -->
<g id="edge48" class="edge"><title>dir_08fdc5d8002a2cb5b9e89270ac665b80&#45;&gt;dir_e89844f41e8ca606ed8f570bb0f7b5f0</title>
<path fill="none" stroke="black" d="M412.116,-143.831C418.45,-135.539 426.075,-125.557 433.029,-116.453"/>
<polygon fill="black" stroke="black" points="435.882,-118.485 439.171,-108.413 430.319,-114.235 435.882,-118.485"/>
<a xlink:href="dir_000031_000020.htm" target="_top" xlink:title="1">
<text text-anchor="middle" x="435.956" y="-120.565" font-family="Helvetica,sans-Serif" font-size="10.00">1</text>
</a>
</g>
<!-- dir_429b8e0da341fbc3691d4e77af6b4a2e&#45;&gt;dir_c406477c5903ef4654945fc6db8fcb47 -->
<g id="edge54" class="edge"><title>dir_429b8e0da341fbc3691d4e77af6b4a2e&#45;&gt;dir_c406477c5903ef4654945fc6db8fcb47</title>
<path fill="none" stroke="black" d="M84.4165,-162C95.5715,-162 106.726,-162 117.881,-162"/>
<polygon fill="black" stroke="black" points="118.126,-165.5 128.126,-162 118.126,-158.5 118.126,-165.5"/>
<a xlink:href="dir_000029_000006.htm" target="_top" xlink:title="1">
<text text-anchor="middle" x="114.531" y="-165.839" font-family="Helvetica,sans-Serif" font-size="10.00">1</text>
</a>
</g>
<!-- dir_429b8e0da341fbc3691d4e77af6b4a2e&#45;&gt;dir_417fefd8a71db61db88798d0bb3f7e33 -->
<g id="edge52" class="edge"><title>dir_429b8e0da341fbc3691d4e77af6b4a2e&#45;&gt;dir_417fefd8a71db61db88798d0bb3f7e33</title>
<path fill="none" stroke="black" d="M84.4174,-144.571C96.3389,-135.576 110.123,-124.451 121.613,-114.598"/>
<polygon fill="black" stroke="black" points="123.916,-117.233 129.149,-108.021 119.314,-111.959 123.916,-117.233"/>
<a xlink:href="dir_000029_000007.htm" target="_top" xlink:title="1">
<text text-anchor="middle" x="123.075" y="-119.235" font-family="Helvetica,sans-Serif" font-size="10.00">1</text>
</a>
</g>
<!-- dir_429b8e0da341fbc3691d4e77af6b4a2e&#45;&gt;dir_e415d1e77c00e8cfd0e3f2c57598d828 -->
<g id="edge50" class="edge"><title>dir_429b8e0da341fbc3691d4e77af6b4a2e&#45;&gt;dir_e415d1e77c00e8cfd0e3f2c57598d828</title>
<path fill="none" stroke="black" d="M61.8619,-143.983C67.6188,-122.576 78.2888,-85.9853 91.2368,-56 92.7607,-52.4708 94.5109,-48.8396 96.3367,-45.2871"/>
<polygon fill="black" stroke="black" points="99.5759,-46.6544 101.243,-36.1916 93.415,-43.3312 99.5759,-46.6544"/>
<a xlink:href="dir_000029_000023.htm" target="_top" xlink:title="5">
<text text-anchor="middle" x="100.368" y="-48.666" font-family="Helvetica,sans-Serif" font-size="10.00">5</text>
</a>
</g>
<!-- dir_e89844f41e8ca606ed8f570bb0f7b5f0&#45;&gt;dir_e415d1e77c00e8cfd0e3f2c57598d828 -->
<g id="edge56" class="edge"><title>dir_e89844f41e8ca606ed8f570bb0f7b5f0&#45;&gt;dir_e415d1e77c00e8cfd0e3f2c57598d828</title>
<path fill="none" stroke="black" d="M435.971,-71.9654C429.157,-65.9123 420.89,-59.7525 412.237,-56 365.85,-35.8849 219.437,-24.5271 149.775,-20.1358"/>
<polygon fill="black" stroke="black" points="149.874,-16.6354 139.678,-19.5144 149.444,-23.6221 149.874,-16.6354"/>
<a xlink:href="dir_000020_000023.htm" target="_top" xlink:title="4">
<text text-anchor="middle" x="153.636" y="-11.5222" font-family="Helvetica,sans-Serif" font-size="10.00">4</text>
</a>
</g>
<!-- dir_e89844f41e8ca606ed8f570bb0f7b5f0&#45;&gt;dir_464f84f5da23097a678db14a336cf9f8 -->
<g id="edge58" class="edge"><title>dir_e89844f41e8ca606ed8f570bb0f7b5f0&#45;&gt;dir_464f84f5da23097a678db14a336cf9f8</title>
<path fill="none" stroke="black" d="M460.05,-71.8314C463.001,-63.9617 466.523,-54.5712 469.792,-45.8533"/>
<polygon fill="black" stroke="black" points="473.098,-47.0055 473.332,-36.4133 466.543,-44.5476 473.098,-47.0055"/>
<a xlink:href="dir_000020_000008.htm" target="_top" xlink:title="1">
<text text-anchor="middle" x="474.494" y="-48.8682" font-family="Helvetica,sans-Serif" font-size="10.00">1</text>
</a>
</g>
</g>
</svg>
