<?xml version="1.0" encoding="UTF-8" standalone="no"?>
<!DOCTYPE svg PUBLIC "-//W3C//DTD SVG 1.1//EN"
 "http://www.w3.org/Graphics/SVG/1.1/DTD/svg11.dtd">
<!-- Generated by graphviz version 2.26.3 (20100126.1600)
 -->
<!-- Title: status&#45;bar Pages: 1 -->
<svg width="302pt" height="405pt"
 viewBox="0.00 0.00 301.64 405.00" xmlns="http://www.w3.org/2000/svg" xmlns:xlink="http://www.w3.org/1999/xlink">
<g id="graph1" class="graph" transform="scale(1 1) rotate(0) translate(4 401)">
<title>status&#45;bar</title>
<polygon fill="white" stroke="white" points="-4,5 -4,-401 298.639,-401 298.639,5 -4,5"/>
<g id="graph2" class="cluster"><title>clusterdir_068a3097f6591815b07393108c1b1474</title>
<a xlink:href="dir_068a3097f6591815b07393108c1b1474.htm" target="_top" xlink:title="lunaui">
<polygon fill="#ddddee" stroke="black" points="194,-208 194,-281 272,-281 272,-208 194,-208"/>
<text text-anchor="middle" x="233" y="-268" font-family="Helvetica,sans-Serif" font-size="10.00">lunaui</text>
</a>
</g>
<!-- dir_025330b281b8553ec010a9079c7d9ef5 -->
<g id="node2" class="node"><title>dir_025330b281b8553ec010a9079c7d9ef5</title>
<a xlink:href="dir_025330b281b8553ec010a9079c7d9ef5.htm" target="_top" xlink:title="status&#45;bar">
<polygon fill="#eeeeff" stroke="black" points="264,-252 202,-252 202,-216 264,-216 264,-252"/>
<text text-anchor="middle" x="233" y="-231.5" font-family="Helvetica,sans-Serif" font-size="10.00">status&#45;bar</text>
</a>
</g>
<!-- dir_5478126586c2487b09c5d03bec4f9bc0 -->
<g id="node3" class="node"><title>dir_5478126586c2487b09c5d03bec4f9bc0</title>
<a xlink:href="dir_5478126586c2487b09c5d03bec4f9bc0.htm" target="_top" xlink:title="notifications">
<polygon fill="none" stroke="black" points="211,-397 139,-397 139,-361 211,-361 211,-397"/>
<text text-anchor="middle" x="175" y="-376.5" font-family="Helvetica,sans-Serif" font-size="10.00">notifications</text>
</a>
</g>
<!-- dir_025330b281b8553ec010a9079c7d9ef5&#45;&gt;dir_5478126586c2487b09c5d03bec4f9bc0 -->
<g id="edge3" class="edge"><title>dir_025330b281b8553ec010a9079c7d9ef5&#45;&gt;dir_5478126586c2487b09c5d03bec4f9bc0</title>
<path fill="none" stroke="black" d="M226.216,-252.203C219.299,-270.627 208.169,-299.899 198,-325 194.535,-333.553 190.643,-342.813 187.06,-351.208"/>
<polygon fill="black" stroke="black" points="183.769,-350.003 183.04,-360.573 190.201,-352.765 183.769,-350.003"/>
<a xlink:href="dir_000014_000003.htm" target="_top" xlink:title="6">
<text text-anchor="middle" x="182.577" y="-343.08" font-family="Helvetica,sans-Serif" font-size="10.00">6</text>
</a>
</g>
<!-- dir_4d9791920573076ed1c5754640e7d26a -->
<g id="node4" class="node"><title>dir_4d9791920573076ed1c5754640e7d26a</title>
<a xlink:href="dir_4d9791920573076ed1c5754640e7d26a.htm" target="_top" xlink:title="sound">
<polygon fill="none" stroke="black" points="138,-325 84,-325 84,-289 138,-289 138,-325"/>
<text text-anchor="middle" x="111" y="-304.5" font-family="Helvetica,sans-Serif" font-size="10.00">sound</text>
</a>
</g>
<!-- dir_025330b281b8553ec010a9079c7d9ef5&#45;&gt;dir_4d9791920573076ed1c5754640e7d26a -->
<g id="edge5" class="edge"><title>dir_025330b281b8553ec010a9079c7d9ef5&#45;&gt;dir_4d9791920573076ed1c5754640e7d26a</title>
<path fill="none" stroke="black" d="M223.215,-252.365C217.146,-262.15 208.503,-273.651 198,-281 183.239,-291.329 164.32,-297.617 147.896,-301.414"/>
<polygon fill="black" stroke="black" points="147.125,-297.999 138.052,-303.47 148.556,-304.852 147.125,-297.999"/>
<a xlink:href="dir_000014_000037.htm" target="_top" xlink:title="1">
<text text-anchor="middle" x="150.063" y="-291.985" font-family="Helvetica,sans-Serif" font-size="10.00">1</text>
</a>
</g>
<!-- dir_269bfdf56438ec912a58fc83ca564e37 -->
<g id="node5" class="node"><title>dir_269bfdf56438ec912a58fc83ca564e37</title>
<a xlink:href="dir_269bfdf56438ec912a58fc83ca564e37.htm" target="_top" xlink:title="remote">
<polygon fill="none" stroke="black" points="167,-180 113,-180 113,-144 167,-144 167,-180"/>
<text text-anchor="middle" x="140" y="-159.5" font-family="Helvetica,sans-Serif" font-size="10.00">remote</text>
</a>
</g>
<!-- dir_025330b281b8553ec010a9079c7d9ef5&#45;&gt;dir_269bfdf56438ec912a58fc83ca564e37 -->
<g id="edge7" class="edge"><title>dir_025330b281b8553ec010a9079c7d9ef5&#45;&gt;dir_269bfdf56438ec912a58fc83ca564e37</title>
<path fill="none" stroke="black" d="M203.58,-215.831C191.261,-206.963 177.15,-196.164 165.3,-186.572"/>
<polygon fill="black" stroke="black" points="167.455,-183.812 157.508,-180.163 163.008,-189.218 167.455,-183.812"/>
<a xlink:href="dir_000014_000033.htm" target="_top" xlink:title="3">
<text text-anchor="middle" x="172.035" y="-181.403" font-family="Helvetica,sans-Serif" font-size="10.00">3</text>
</a>
</g>
<!-- dir_57e915abe98f4a60d2ce98af8f14ea67 -->
<g id="node6" class="node"><title>dir_57e915abe98f4a60d2ce98af8f14ea67</title>
<a xlink:href="dir_57e915abe98f4a60d2ce98af8f14ea67.htm" target="_top" xlink:title="core">
<polygon fill="none" stroke="black" points="134,-36 80,-36 80,-1.77636e-14 134,-3.55271e-15 134,-36"/>
<text text-anchor="middle" x="107" y="-15.5" font-family="Helvetica,sans-Serif" font-size="10.00">core</text>
</a>
</g>
<!-- dir_025330b281b8553ec010a9079c7d9ef5&#45;&gt;dir_57e915abe98f4a60d2ce98af8f14ea67 -->
<g id="edge9" class="edge"><title>dir_025330b281b8553ec010a9079c7d9ef5&#45;&gt;dir_57e915abe98f4a60d2ce98af8f14ea67</title>
<path fill="none" stroke="black" d="M235.056,-215.995C237.754,-183.243 238.553,-113.481 203,-72 187.173,-53.5332 163.376,-40.0869 143.435,-31.2306"/>
<polygon fill="black" stroke="black" points="144.582,-27.9155 134.008,-27.2499 141.859,-34.3642 144.582,-27.9155"/>
<a xlink:href="dir_000014_000009.htm" target="_top" xlink:title="4">
<text text-anchor="middle" x="148.998" y="-24.1981" font-family="Helvetica,sans-Serif" font-size="10.00">4</text>
</a>
</g>
<!-- dir_98517a60dc4e7f500e04883b39e61d98 -->
<g id="node7" class="node"><title>dir_98517a60dc4e7f500e04883b39e61d98</title>
<a xlink:href="dir_98517a60dc4e7f500e04883b39e61d98.htm" target="_top" xlink:title="dock">
<polygon fill="none" stroke="black" points="194,-108 140,-108 140,-72 194,-72 194,-108"/>
<text text-anchor="middle" x="167" y="-87.5" font-family="Helvetica,sans-Serif" font-size="10.00">dock</text>
</a>
</g>
<!-- dir_025330b281b8553ec010a9079c7d9ef5&#45;&gt;dir_98517a60dc4e7f500e04883b39e61d98 -->
<g id="edge11" class="edge"><title>dir_025330b281b8553ec010a9079c7d9ef5&#45;&gt;dir_98517a60dc4e7f500e04883b39e61d98</title>
<path fill="none" stroke="black" d="M230.381,-215.999C227.166,-197.272 220.649,-167.464 209,-144 204.167,-134.266 197.424,-124.592 190.753,-116.178"/>
<polygon fill="black" stroke="black" points="193.249,-113.705 184.179,-108.229 187.855,-118.166 193.249,-113.705"/>
<a xlink:href="dir_000014_000021.htm" target="_top" xlink:title="2">
<text text-anchor="middle" x="197.728" y="-112.166" font-family="Helvetica,sans-Serif" font-size="10.00">2</text>
</a>
</g>
<!-- dir_464f84f5da23097a678db14a336cf9f8 -->
<g id="node8" class="node"><title>dir_464f84f5da23097a678db14a336cf9f8</title>
<a xlink:href="dir_464f84f5da23097a678db14a336cf9f8.htm" target="_top" xlink:title="base">
<polygon fill="white" stroke="red" points="128,-252 74,-252 74,-216 128,-216 128,-252"/>
<text text-anchor="middle" x="101" y="-231.5" font-family="Helvetica,sans-Serif" font-size="10.00">base</text>
</a>
</g>
<!-- dir_025330b281b8553ec010a9079c7d9ef5&#45;&gt;dir_464f84f5da23097a678db14a336cf9f8 -->
<g id="edge13" class="edge"><title>dir_025330b281b8553ec010a9079c7d9ef5&#45;&gt;dir_464f84f5da23097a678db14a336cf9f8</title>
<path fill="none" stroke="black" d="M201.849,-234C180.618,-234 159.388,-234 138.157,-234"/>
<polygon fill="black" stroke="black" points="138.07,-230.5 128.07,-234 138.07,-237.5 138.07,-230.5"/>
<a xlink:href="dir_000014_000008.htm" target="_top" xlink:title="31">
<text text-anchor="middle" x="141.665" y="-225.161" font-family="Helvetica,sans-Serif" font-size="10.00">31</text>
</a>
</g>
<!-- dir_5478126586c2487b09c5d03bec4f9bc0&#45;&gt;dir_4d9791920573076ed1c5754640e7d26a -->
<g id="edge15" class="edge"><title>dir_5478126586c2487b09c5d03bec4f9bc0&#45;&gt;dir_4d9791920573076ed1c5754640e7d26a</title>
<path fill="none" stroke="black" d="M158.85,-360.831C151.328,-352.369 142.243,-342.149 134.02,-332.897"/>
<polygon fill="black" stroke="black" points="136.627,-330.562 127.367,-325.413 131.395,-335.213 136.627,-330.562"/>
<a xlink:href="dir_000003_000037.htm" target="_top" xlink:title="4">
<text text-anchor="middle" x="141.137" y="-328.862" font-family="Helvetica,sans-Serif" font-size="10.00">4</text>
</a>
</g>
<!-- dir_5478126586c2487b09c5d03bec4f9bc0&#45;&gt;dir_269bfdf56438ec912a58fc83ca564e37 -->
<g id="edge17" class="edge"><title>dir_5478126586c2487b09c5d03bec4f9bc0&#45;&gt;dir_269bfdf56438ec912a58fc83ca564e37</title>
<path fill="none" stroke="black" d="M168.13,-360.872C158.573,-323.057 144.195,-235.526 139.833,-190.255"/>
<polygon fill="black" stroke="black" points="143.316,-189.898 138.985,-180.229 136.341,-190.489 143.316,-189.898"/>
<a xlink:href="dir_000003_000033.htm" target="_top" xlink:title="9">
<text text-anchor="middle" x="146.448" y="-190.741" font-family="Helvetica,sans-Serif" font-size="10.00">9</text>
</a>
</g>
<!-- dir_5478126586c2487b09c5d03bec4f9bc0&#45;&gt;dir_57e915abe98f4a60d2ce98af8f14ea67 -->
<g id="edge21" class="edge"><title>dir_5478126586c2487b09c5d03bec4f9bc0&#45;&gt;dir_57e915abe98f4a60d2ce98af8f14ea67</title>
<path fill="none" stroke="black" d="M138.74,-367.345C87.4813,-348.329 0,-305.415 0,-234 0,-234 0,-234 0,-162 0,-112.251 41.6541,-68.5243 72.9837,-42.6715"/>
<polygon fill="black" stroke="black" points="75.4777,-45.1584 81.0983,-36.1774 71.1038,-39.6931 75.4777,-45.1584"/>
<a xlink:href="dir_000003_000009.htm" target="_top" xlink:title="2">
<text text-anchor="middle" x="74.4453" y="-47.1212" font-family="Helvetica,sans-Serif" font-size="10.00">2</text>
</a>
</g>
<!-- dir_5478126586c2487b09c5d03bec4f9bc0&#45;&gt;dir_98517a60dc4e7f500e04883b39e61d98 -->
<g id="edge19" class="edge"><title>dir_5478126586c2487b09c5d03bec4f9bc0&#45;&gt;dir_98517a60dc4e7f500e04883b39e61d98</title>
<path fill="none" stroke="black" d="M196.741,-360.892C219.203,-343.708 252.435,-315.427 267,-281 279.642,-251.12 276.947,-238.882 267,-208 254.424,-168.956 220.319,-135.825 195.281,-114.701"/>
<polygon fill="black" stroke="black" points="197.445,-111.95 187.509,-108.273 192.983,-117.343 197.445,-111.95"/>
<a xlink:href="dir_000003_000021.htm" target="_top" xlink:title="2">
<text text-anchor="middle" x="202.025" y="-109.553" font-family="Helvetica,sans-Serif" font-size="10.00">2</text>
</a>
</g>
<!-- dir_5478126586c2487b09c5d03bec4f9bc0&#45;&gt;dir_464f84f5da23097a678db14a336cf9f8 -->
<g id="edge23" class="edge"><title>dir_5478126586c2487b09c5d03bec4f9bc0&#45;&gt;dir_464f84f5da23097a678db14a336cf9f8</title>
<path fill="none" stroke="black" d="M138.881,-372.112C113.311,-364.777 81.2624,-350.587 66,-325 54.1559,-305.144 63.1879,-279.622 75.2194,-260.662"/>
<polygon fill="black" stroke="black" points="78.2677,-262.408 81.0904,-252.196 72.5155,-258.419 78.2677,-262.408"/>
<a xlink:href="dir_000003_000008.htm" target="_top" xlink:title="46">
<text text-anchor="middle" x="78.5523" y="-264.48" font-family="Helvetica,sans-Serif" font-size="10.00">46</text>
</a>
</g>
<!-- dir_4d9791920573076ed1c5754640e7d26a&#45;&gt;dir_464f84f5da23097a678db14a336cf9f8 -->
<g id="edge25" class="edge"><title>dir_4d9791920573076ed1c5754640e7d26a&#45;&gt;dir_464f84f5da23097a678db14a336cf9f8</title>
<path fill="none" stroke="black" d="M102.612,-288.955C100.708,-280.883 99.1532,-271.176 98.2688,-262.182"/>
<polygon fill="black" stroke="black" points="101.752,-261.82 97.5579,-252.09 94.7694,-262.312 101.752,-261.82"/>
<a xlink:href="dir_000037_000008.htm" target="_top" xlink:title="2">
<text text-anchor="middle" x="104.837" y="-262.706" font-family="Helvetica,sans-Serif" font-size="10.00">2</text>
</a>
</g>
<!-- dir_269bfdf56438ec912a58fc83ca564e37&#45;&gt;dir_025330b281b8553ec010a9079c7d9ef5 -->
<g id="edge27" class="edge"><title>dir_269bfdf56438ec912a58fc83ca564e37&#45;&gt;dir_025330b281b8553ec010a9079c7d9ef5</title>
<path fill="none" stroke="black" d="M167.006,-178.439C179.838,-187.586 195,-199.151 207.613,-209.358"/>
<polygon fill="black" stroke="black" points="205.538,-212.183 215.485,-215.831 209.984,-206.776 205.538,-212.183"/>
<a xlink:href="dir_000033_000014.htm" target="_top" xlink:title="1">
<text text-anchor="middle" x="200.958" y="-209.593" font-family="Helvetica,sans-Serif" font-size="10.00">1</text>
</a>
</g>
<!-- dir_269bfdf56438ec912a58fc83ca564e37&#45;&gt;dir_5478126586c2487b09c5d03bec4f9bc0 -->
<g id="edge29" class="edge"><title>dir_269bfdf56438ec912a58fc83ca564e37&#45;&gt;dir_5478126586c2487b09c5d03bec4f9bc0</title>
<path fill="none" stroke="black" d="M146.895,-180.229C156.462,-218.133 170.834,-305.67 175.178,-350.866"/>
<polygon fill="black" stroke="black" points="171.694,-351.201 176.022,-360.872 178.669,-350.613 171.694,-351.201"/>
<a xlink:href="dir_000033_000003.htm" target="_top" xlink:title="3">
<text text-anchor="middle" x="168.563" y="-345.358" font-family="Helvetica,sans-Serif" font-size="10.00">3</text>
</a>
</g>
<!-- dir_269bfdf56438ec912a58fc83ca564e37&#45;&gt;dir_98517a60dc4e7f500e04883b39e61d98 -->
<g id="edge31" class="edge"><title>dir_269bfdf56438ec912a58fc83ca564e37&#45;&gt;dir_98517a60dc4e7f500e04883b39e61d98</title>
<path fill="none" stroke="black" d="M140.861,-143.831C143.069,-135.877 146.424,-126.369 150.078,-117.572"/>
<polygon fill="black" stroke="black" points="153.284,-118.975 154.119,-108.413 146.88,-116.149 153.284,-118.975"/>
<a xlink:href="dir_000033_000021.htm" target="_top" xlink:title="1">
<text text-anchor="middle" x="154.431" y="-120.91" font-family="Helvetica,sans-Serif" font-size="10.00">1</text>
</a>
</g>
<!-- dir_269bfdf56438ec912a58fc83ca564e37&#45;&gt;dir_464f84f5da23097a678db14a336cf9f8 -->
<g id="edge33" class="edge"><title>dir_269bfdf56438ec912a58fc83ca564e37&#45;&gt;dir_464f84f5da23097a678db14a336cf9f8</title>
<path fill="none" stroke="black" d="M136.002,-180.413C132.364,-188.569 127.272,-198.321 122.033,-207.257"/>
<polygon fill="black" stroke="black" points="119.022,-205.473 116.794,-215.831 124.995,-209.123 119.022,-205.473"/>
<a xlink:href="dir_000033_000008.htm" target="_top" xlink:title="20">
<text text-anchor="middle" x="118.473" y="-198.426" font-family="Helvetica,sans-Serif" font-size="10.00">20</text>
</a>
</g>
<!-- dir_98517a60dc4e7f500e04883b39e61d98&#45;&gt;dir_025330b281b8553ec010a9079c7d9ef5 -->
<g id="edge35" class="edge"><title>dir_98517a60dc4e7f500e04883b39e61d98&#45;&gt;dir_025330b281b8553ec010a9079c7d9ef5</title>
<path fill="none" stroke="black" d="M175.291,-108.09C186.661,-132.896 207.188,-177.682 220.447,-206.611"/>
<polygon fill="black" stroke="black" points="217.293,-208.13 224.641,-215.762 223.656,-205.213 217.293,-208.13"/>
<a xlink:href="dir_000021_000014.htm" target="_top" xlink:title="5">
<text text-anchor="middle" x="213.214" y="-203.545" font-family="Helvetica,sans-Serif" font-size="10.00">5</text>
</a>
</g>
<!-- dir_98517a60dc4e7f500e04883b39e61d98&#45;&gt;dir_5478126586c2487b09c5d03bec4f9bc0 -->
<g id="edge37" class="edge"><title>dir_98517a60dc4e7f500e04883b39e61d98&#45;&gt;dir_5478126586c2487b09c5d03bec4f9bc0</title>
<path fill="none" stroke="black" d="M194.205,-103.846C224.336,-123.244 269.994,-161.412 285,-208 294.947,-238.882 297.642,-251.12 285,-281 271.971,-311.796 244.005,-337.674 219.423,-355.091"/>
<polygon fill="black" stroke="black" points="217.196,-352.372 210.898,-360.892 221.135,-358.159 217.196,-352.372"/>
<a xlink:href="dir_000021_000003.htm" target="_top" xlink:title="2">
<text text-anchor="middle" x="218.57" y="-345.502" font-family="Helvetica,sans-Serif" font-size="10.00">2</text>
</a>
</g>
<!-- dir_98517a60dc4e7f500e04883b39e61d98&#45;&gt;dir_269bfdf56438ec912a58fc83ca564e37 -->
<g id="edge39" class="edge"><title>dir_98517a60dc4e7f500e04883b39e61d98&#45;&gt;dir_269bfdf56438ec912a58fc83ca564e37</title>
<path fill="none" stroke="black" d="M166.071,-108.413C163.864,-116.314 160.541,-125.713 156.927,-134.417"/>
<polygon fill="black" stroke="black" points="153.607,-133.27 152.766,-143.831 160.01,-136.1 153.607,-133.27"/>
<a xlink:href="dir_000021_000033.htm" target="_top" xlink:title="3">
<text text-anchor="middle" x="152.464" y="-126.334" font-family="Helvetica,sans-Serif" font-size="10.00">3</text>
</a>
</g>
<!-- dir_98517a60dc4e7f500e04883b39e61d98&#45;&gt;dir_57e915abe98f4a60d2ce98af8f14ea67 -->
<g id="edge41" class="edge"><title>dir_98517a60dc4e7f500e04883b39e61d98&#45;&gt;dir_57e915abe98f4a60d2ce98af8f14ea67</title>
<path fill="none" stroke="black" d="M151.859,-71.8314C144.878,-63.454 136.461,-53.3531 128.812,-44.1749"/>
<polygon fill="black" stroke="black" points="131.435,-41.8548 122.344,-36.4133 126.057,-46.3362 131.435,-41.8548"/>
<a xlink:href="dir_000021_000009.htm" target="_top" xlink:title="4">
<text text-anchor="middle" x="135.917" y="-40.2986" font-family="Helvetica,sans-Serif" font-size="10.00">4</text>
</a>
</g>
<!-- dir_98517a60dc4e7f500e04883b39e61d98&#45;&gt;dir_464f84f5da23097a678db14a336cf9f8 -->
<g id="edge43" class="edge"><title>dir_98517a60dc4e7f500e04883b39e61d98&#45;&gt;dir_464f84f5da23097a678db14a336cf9f8</title>
<path fill="none" stroke="black" d="M139.867,-105.648C126.514,-114.938 111.671,-128.028 104,-144 94.8342,-163.084 94.5261,-187.163 96.2694,-205.611"/>
<polygon fill="black" stroke="black" points="92.8183,-206.229 97.4814,-215.742 99.7687,-205.397 92.8183,-206.229"/>
<a xlink:href="dir_000021_000008.htm" target="_top" xlink:title="43">
<text text-anchor="middle" x="89.5722" y="-200.497" font-family="Helvetica,sans-Serif" font-size="10.00">43</text>
</a>
</g>
<!-- dir_464f84f5da23097a678db14a336cf9f8&#45;&gt;dir_025330b281b8553ec010a9079c7d9ef5 -->
<g id="edge45" class="edge"><title>dir_464f84f5da23097a678db14a336cf9f8&#45;&gt;dir_025330b281b8553ec010a9079c7d9ef5</title>
<path fill="none" stroke="black" d="M128.07,-234C149.301,-234 170.531,-234 191.762,-234"/>
<polygon fill="black" stroke="black" points="191.849,-237.5 201.849,-234 191.849,-230.5 191.849,-237.5"/>
<a xlink:href="dir_000008_000014.htm" target="_top" xlink:title="3">
<text text-anchor="middle" x="188.254" y="-237.839" font-family="Helvetica,sans-Serif" font-size="10.00">3</text>
</a>
</g>
<!-- dir_464f84f5da23097a678db14a336cf9f8&#45;&gt;dir_5478126586c2487b09c5d03bec4f9bc0 -->
<g id="edge47" class="edge"><title>dir_464f84f5da23097a678db14a336cf9f8&#45;&gt;dir_5478126586c2487b09c5d03bec4f9bc0</title>
<path fill="none" stroke="black" d="M94.444,-252.196C84.5723,-271.396 70.2801,-301.999 84,-325 94.2339,-342.157 112.015,-354.189 129.216,-362.467"/>
<polygon fill="black" stroke="black" points="128.103,-365.804 138.661,-366.689 130.96,-359.413 128.103,-365.804"/>
<a xlink:href="dir_000008_000003.htm" target="_top" xlink:title="2">
<text text-anchor="middle" x="123.663" y="-364.429" font-family="Helvetica,sans-Serif" font-size="10.00">2</text>
</a>
</g>
<!-- dir_464f84f5da23097a678db14a336cf9f8&#45;&gt;dir_4d9791920573076ed1c5754640e7d26a -->
<g id="edge49" class="edge"><title>dir_464f84f5da23097a678db14a336cf9f8&#45;&gt;dir_4d9791920573076ed1c5754640e7d26a</title>
<path fill="none" stroke="black" d="M109.398,-252.09C111.301,-260.169 112.854,-269.877 113.736,-278.869"/>
<polygon fill="black" stroke="black" points="110.252,-279.225 114.444,-288.955 117.235,-278.735 110.252,-279.225"/>
<a xlink:href="dir_000008_000037.htm" target="_top" xlink:title="2">
<text text-anchor="middle" x="107.169" y="-273.337" font-family="Helvetica,sans-Serif" font-size="10.00">2</text>
</a>
</g>
<!-- dir_464f84f5da23097a678db14a336cf9f8&#45;&gt;dir_269bfdf56438ec912a58fc83ca564e37 -->
<g id="edge51" class="edge"><title>dir_464f84f5da23097a678db14a336cf9f8&#45;&gt;dir_269bfdf56438ec912a58fc83ca564e37</title>
<path fill="none" stroke="black" d="M104.889,-215.831C108.498,-207.708 113.573,-197.964 118.809,-189.012"/>
<polygon fill="black" stroke="black" points="121.834,-190.774 124.05,-180.413 115.857,-187.131 121.834,-190.774"/>
<a xlink:href="dir_000008_000033.htm" target="_top" xlink:title="10">
<text text-anchor="middle" x="122.388" y="-192.821" font-family="Helvetica,sans-Serif" font-size="10.00">10</text>
</a>
</g>
<!-- dir_464f84f5da23097a678db14a336cf9f8&#45;&gt;dir_57e915abe98f4a60d2ce98af8f14ea67 -->
<g id="edge53" class="edge"><title>dir_464f84f5da23097a678db14a336cf9f8&#45;&gt;dir_57e915abe98f4a60d2ce98af8f14ea67</title>
<path fill="none" stroke="black" d="M97.1587,-215.6C95.1834,-205.203 92.9877,-191.935 92,-180 88.1278,-133.213 95.6069,-78.8906 101.33,-46.5401"/>
<polygon fill="black" stroke="black" points="104.818,-46.9221 103.184,-36.454 97.9333,-45.6562 104.818,-46.9221"/>
<a xlink:href="dir_000008_000009.htm" target="_top" xlink:title="4">
<text text-anchor="middle" x="106.96" y="-48.4709" font-family="Helvetica,sans-Serif" font-size="10.00">4</text>
</a>
</g>
</g>
</svg>
