<?xml version="1.0" encoding="UTF-8" standalone="no"?>
<!DOCTYPE svg PUBLIC "-//W3C//DTD SVG 1.1//EN"
 "http://www.w3.org/Graphics/SVG/1.1/DTD/svg11.dtd">
<!-- Generated by graphviz version 2.26.3 (20100126.1600)
 -->
<!-- Title: systeminterface Pages: 1 -->
<svg width="267pt" height="377pt"
 viewBox="0.00 0.00 266.94 377.00" xmlns="http://www.w3.org/2000/svg" xmlns:xlink="http://www.w3.org/1999/xlink">
<g id="graph1" class="graph" transform="scale(1 1) rotate(0) translate(4 373)">
<title>systeminterface</title>
<polygon fill="white" stroke="white" points="-4,5 -4,-373 263.944,-373 263.944,5 -4,5"/>
<g id="graph2" class="cluster"><title>clusterdir_5576ffdccfb1298a0fc1ef2b6785dd11</title>
<a xlink:href="dir_5576ffdccfb1298a0fc1ef2b6785dd11.htm" target="_top" xlink:title="launcher">
<polygon fill="#ddddee" stroke="black" points="8,-200 8,-361 130,-361 130,-200 8,-200"/>
<text text-anchor="middle" x="69" y="-348" font-family="Helvetica,sans-Serif" font-size="10.00">launcher</text>
</a>
</g>
<g id="graph3" class="cluster"><title>clusterdir_cb75503eb7d91f60bcbed4bcb5c20e76</title>
<a xlink:href="dir_cb75503eb7d91f60bcbed4bcb5c20e76.htm" target="_top">
<polygon fill="#eeeeff" stroke="black" points="16,-208 16,-332 122,-332 122,-208 16,-208"/>
</a>
</g>
<!-- dir_cb75503eb7d91f60bcbed4bcb5c20e76 -->
<g id="node3" class="node"><title>dir_cb75503eb7d91f60bcbed4bcb5c20e76</title>
<text text-anchor="middle" x="69" y="-303.5" font-family="Helvetica,sans-Serif" font-size="10.00">systeminterface</text>
</g>
<!-- dir_199bc4e3909afc4f7f43677a60423cb4 -->
<g id="node4" class="node"><title>dir_199bc4e3909afc4f7f43677a60423cb4</title>
<a xlink:href="dir_199bc4e3909afc4f7f43677a60423cb4.htm" target="_top" xlink:title="util">
<polygon fill="white" stroke="black" points="114,-252 60,-252 60,-216 114,-216 114,-252"/>
<text text-anchor="middle" x="87" y="-231.5" font-family="Helvetica,sans-Serif" font-size="10.00">util</text>
</a>
</g>
<!-- dir_cb75503eb7d91f60bcbed4bcb5c20e76&#45;&gt;dir_199bc4e3909afc4f7f43677a60423cb4 -->
<g id="edge18" class="edge"><title>dir_cb75503eb7d91f60bcbed4bcb5c20e76&#45;&gt;dir_199bc4e3909afc4f7f43677a60423cb4</title>
<path fill="none" stroke="black" d="M73.5422,-287.831C75.4884,-280.046 77.8068,-270.773 79.9663,-262.135"/>
<polygon fill="black" stroke="black" points="83.3668,-262.964 82.3967,-252.413 76.5758,-261.266 83.3668,-262.964"/>
<a xlink:href="dir_000011_000013.htm" target="_top" xlink:title="5">
<text text-anchor="middle" x="85.2495" y="-264.639" font-family="Helvetica,sans-Serif" font-size="10.00">5</text>
</a>
</g>
<!-- dir_e415d1e77c00e8cfd0e3f2c57598d828 -->
<g id="node5" class="node"><title>dir_e415d1e77c00e8cfd0e3f2c57598d828</title>
<a xlink:href="dir_e415d1e77c00e8cfd0e3f2c57598d828.htm" target="_top" xlink:title="gfx">
<polygon fill="white" stroke="red" points="192,-252 138,-252 138,-216 192,-216 192,-252"/>
<text text-anchor="middle" x="165" y="-231.5" font-family="Helvetica,sans-Serif" font-size="10.00">gfx</text>
</a>
</g>
<!-- dir_cb75503eb7d91f60bcbed4bcb5c20e76&#45;&gt;dir_e415d1e77c00e8cfd0e3f2c57598d828 -->
<g id="edge12" class="edge"><title>dir_cb75503eb7d91f60bcbed4bcb5c20e76&#45;&gt;dir_e415d1e77c00e8cfd0e3f2c57598d828</title>
<path fill="none" stroke="black" d="M93.2249,-287.831C105.163,-278.878 119.726,-267.956 132.606,-258.295"/>
<polygon fill="black" stroke="black" points="134.883,-260.963 140.783,-252.163 130.683,-255.363 134.883,-260.963"/>
<a xlink:href="dir_000011_000023.htm" target="_top" xlink:title="1">
<text text-anchor="middle" x="133.711" y="-262.891" font-family="Helvetica,sans-Serif" font-size="10.00">1</text>
</a>
</g>
<!-- dir_269bfdf56438ec912a58fc83ca564e37 -->
<g id="node6" class="node"><title>dir_269bfdf56438ec912a58fc83ca564e37</title>
<a xlink:href="dir_269bfdf56438ec912a58fc83ca564e37.htm" target="_top" xlink:title="remote">
<polygon fill="none" stroke="black" points="230,-36 176,-36 176,-1.77636e-14 230,-3.55271e-15 230,-36"/>
<text text-anchor="middle" x="203" y="-15.5" font-family="Helvetica,sans-Serif" font-size="10.00">remote</text>
</a>
</g>
<!-- dir_cb75503eb7d91f60bcbed4bcb5c20e76&#45;&gt;dir_269bfdf56438ec912a58fc83ca564e37 -->
<g id="edge14" class="edge"><title>dir_cb75503eb7d91f60bcbed4bcb5c20e76&#45;&gt;dir_269bfdf56438ec912a58fc83ca564e37</title>
<path fill="none" stroke="black" d="M114.014,-295.784C154.276,-285.697 209.033,-269.308 223,-252 273.436,-189.496 262.274,-148.869 239,-72 236.044,-62.2355 230.675,-52.6229 224.97,-44.2762"/>
<polygon fill="black" stroke="black" points="227.713,-42.0973 218.99,-36.0831 222.059,-46.2239 227.713,-42.0973"/>
<a xlink:href="dir_000011_000033.htm" target="_top" xlink:title="1">
<text text-anchor="middle" x="232.125" y="-40.827" font-family="Helvetica,sans-Serif" font-size="10.00">1</text>
</a>
</g>
<!-- dir_f18584d457c4d1307344cf7be51d919c -->
<g id="node7" class="node"><title>dir_f18584d457c4d1307344cf7be51d919c</title>
<a xlink:href="dir_f18584d457c4d1307344cf7be51d919c.htm" target="_top" xlink:title="elements">
<polygon fill="white" stroke="red" points="192,-180 134,-180 134,-144 192,-144 192,-180"/>
<text text-anchor="middle" x="163" y="-159.5" font-family="Helvetica,sans-Serif" font-size="10.00">elements</text>
</a>
</g>
<!-- dir_cb75503eb7d91f60bcbed4bcb5c20e76&#45;&gt;dir_f18584d457c4d1307344cf7be51d919c -->
<g id="edge16" class="edge"><title>dir_cb75503eb7d91f60bcbed4bcb5c20e76&#45;&gt;dir_f18584d457c4d1307344cf7be51d919c</title>
<path fill="none" stroke="black" d="M58.4168,-287.681C46.8517,-264.975 32.2971,-226.096 51,-200 59.7738,-187.758 95.2723,-177.068 123.984,-170.171"/>
<polygon fill="black" stroke="black" points="124.852,-173.563 133.802,-167.893 123.27,-166.744 124.852,-173.563"/>
<a xlink:href="dir_000011_000005.htm" target="_top" xlink:title="13">
<text text-anchor="middle" x="121.992" y="-174.641" font-family="Helvetica,sans-Serif" font-size="10.00">13</text>
</a>
</g>
<!-- dir_464f84f5da23097a678db14a336cf9f8 -->
<g id="node8" class="node"><title>dir_464f84f5da23097a678db14a336cf9f8</title>
<a xlink:href="dir_464f84f5da23097a678db14a336cf9f8.htm" target="_top" xlink:title="base">
<polygon fill="white" stroke="red" points="230,-108 176,-108 176,-72 230,-72 230,-108"/>
<text text-anchor="middle" x="203" y="-87.5" font-family="Helvetica,sans-Serif" font-size="10.00">base</text>
</a>
</g>
<!-- dir_cb75503eb7d91f60bcbed4bcb5c20e76&#45;&gt;dir_464f84f5da23097a678db14a336cf9f8 -->
<g id="edge20" class="edge"><title>dir_cb75503eb7d91f60bcbed4bcb5c20e76&#45;&gt;dir_464f84f5da23097a678db14a336cf9f8</title>
<path fill="none" stroke="black" d="M114.058,-300.372C144.12,-294.027 181.571,-280.558 201,-252 228.171,-212.063 219.788,-152.804 211.324,-118.121"/>
<polygon fill="black" stroke="black" points="214.646,-116.987 208.735,-108.194 207.873,-118.754 214.646,-116.987"/>
<a xlink:href="dir_000011_000008.htm" target="_top" xlink:title="9">
<text text-anchor="middle" x="218.3" y="-117.248" font-family="Helvetica,sans-Serif" font-size="10.00">9</text>
</a>
</g>
<!-- dir_199bc4e3909afc4f7f43677a60423cb4&#45;&gt;dir_f18584d457c4d1307344cf7be51d919c -->
<g id="edge22" class="edge"><title>dir_199bc4e3909afc4f7f43677a60423cb4&#45;&gt;dir_f18584d457c4d1307344cf7be51d919c</title>
<path fill="none" stroke="black" d="M102.666,-215.941C107.452,-210.668 112.821,-204.986 118,-200 122.544,-195.625 127.511,-191.152 132.434,-186.883"/>
<polygon fill="black" stroke="black" points="134.721,-189.532 140.065,-180.384 130.182,-184.203 134.721,-189.532"/>
<a xlink:href="dir_000013_000005.htm" target="_top" xlink:title="1">
<text text-anchor="middle" x="133.825" y="-191.524" font-family="Helvetica,sans-Serif" font-size="10.00">1</text>
</a>
</g>
<!-- dir_e415d1e77c00e8cfd0e3f2c57598d828&#45;&gt;dir_f18584d457c4d1307344cf7be51d919c -->
<g id="edge4" class="edge"><title>dir_e415d1e77c00e8cfd0e3f2c57598d828&#45;&gt;dir_f18584d457c4d1307344cf7be51d919c</title>
<path fill="none" stroke="black" d="M158.543,-215.831C157.579,-208.131 157.103,-198.974 157.174,-190.417"/>
<polygon fill="black" stroke="black" points="160.672,-190.533 157.535,-180.413 153.677,-190.28 160.672,-190.533"/>
<a xlink:href="dir_000023_000005.htm" target="_top" xlink:title="1">
<text text-anchor="middle" x="163.38" y="-191.728" font-family="Helvetica,sans-Serif" font-size="10.00">1</text>
</a>
</g>
<!-- dir_269bfdf56438ec912a58fc83ca564e37&#45;&gt;dir_464f84f5da23097a678db14a336cf9f8 -->
<g id="edge6" class="edge"><title>dir_269bfdf56438ec912a58fc83ca564e37&#45;&gt;dir_464f84f5da23097a678db14a336cf9f8</title>
<path fill="none" stroke="black" d="M208.976,-36.4133C209.707,-44.0593 209.92,-53.1084 209.615,-61.5726"/>
<polygon fill="black" stroke="black" points="206.105,-61.6264 208.952,-71.8314 213.09,-62.078 206.105,-61.6264"/>
<a xlink:href="dir_000033_000008.htm" target="_top" xlink:title="20">
<text text-anchor="middle" x="203.503" y="-55.3562" font-family="Helvetica,sans-Serif" font-size="10.00">20</text>
</a>
</g>
<!-- dir_f18584d457c4d1307344cf7be51d919c&#45;&gt;dir_e415d1e77c00e8cfd0e3f2c57598d828 -->
<g id="edge8" class="edge"><title>dir_f18584d457c4d1307344cf7be51d919c&#45;&gt;dir_e415d1e77c00e8cfd0e3f2c57598d828</title>
<path fill="none" stroke="black" d="M169.487,-180.413C170.431,-188.059 170.896,-197.108 170.826,-205.573"/>
<polygon fill="black" stroke="black" points="167.319,-205.709 170.448,-215.831 174.314,-205.967 167.319,-205.709"/>
<a xlink:href="dir_000005_000023.htm" target="_top" xlink:title="53">
<text text-anchor="middle" x="164.613" y="-199.512" font-family="Helvetica,sans-Serif" font-size="10.00">53</text>
</a>
</g>
<!-- dir_f18584d457c4d1307344cf7be51d919c&#45;&gt;dir_464f84f5da23097a678db14a336cf9f8 -->
<g id="edge10" class="edge"><title>dir_f18584d457c4d1307344cf7be51d919c&#45;&gt;dir_464f84f5da23097a678db14a336cf9f8</title>
<path fill="none" stroke="black" d="M173.094,-143.831C177.56,-135.792 182.907,-126.167 187.838,-117.292"/>
<polygon fill="black" stroke="black" points="190.973,-118.855 192.77,-108.413 184.854,-115.455 190.973,-118.855"/>
<a xlink:href="dir_000005_000008.htm" target="_top" xlink:title="15">
<text text-anchor="middle" x="191.71" y="-120.876" font-family="Helvetica,sans-Serif" font-size="10.00">15</text>
</a>
</g>
<!-- dir_464f84f5da23097a678db14a336cf9f8&#45;&gt;dir_269bfdf56438ec912a58fc83ca564e37 -->
<g id="edge24" class="edge"><title>dir_464f84f5da23097a678db14a336cf9f8&#45;&gt;dir_269bfdf56438ec912a58fc83ca564e37</title>
<path fill="none" stroke="black" d="M197.048,-71.8314C196.297,-64.131 196.076,-54.9743 196.385,-46.4166"/>
<polygon fill="black" stroke="black" points="199.879,-46.6161 197.024,-36.4133 192.893,-46.1697 199.879,-46.6161"/>
<a xlink:href="dir_000008_000033.htm" target="_top" xlink:title="10">
<text text-anchor="middle" x="202.484" y="-47.8844" font-family="Helvetica,sans-Serif" font-size="10.00">10</text>
</a>
</g>
</g>
</svg>
