<?xml version="1.0" encoding="UTF-8" standalone="no"?>
<!DOCTYPE svg PUBLIC "-//W3C//DTD SVG 1.1//EN"
 "http://www.w3.org/Graphics/SVG/1.1/DTD/svg11.dtd">
<!-- Generated by graphviz version 2.26.3 (20100126.1600)
 -->
<!-- Title: DockModeWindowManager.h Pages: 1 -->
<svg width="1665pt" height="320pt"
 viewBox="0.00 0.00 1665.00 320.00" xmlns="http://www.w3.org/2000/svg" xmlns:xlink="http://www.w3.org/1999/xlink">
<g id="graph1" class="graph" transform="scale(1 1) rotate(0) translate(4 316)">
<title>DockModeWindowManager.h</title>
<polygon fill="white" stroke="white" points="-4,5 -4,-316 1662,-316 1662,5 -4,5"/>
<!-- Node1 -->
<g id="node1" class="node"><title>Node1</title>
<polygon fill="#bfbfbf" stroke="black" points="740,-290.5 740,-311.5 896,-311.5 896,-290.5 740,-290.5"/>
<text text-anchor="middle" x="818" y="-298.5" font-family="Helvetica,sans-Serif" font-size="10.00">DockModeWindowManager.h</text>
</g>
<!-- Node2 -->
<g id="node3" class="node"><title>Node2</title>
<polygon fill="white" stroke="#bfbfbf" points="258.5,-0.5 258.5,-21.5 325.5,-21.5 325.5,-0.5 258.5,-0.5"/>
<text text-anchor="middle" x="292" y="-8.5" font-family="Helvetica,sans-Serif" font-size="10.00">Common.h</text>
</g>
<!-- Node1&#45;&gt;Node2 -->
<g id="edge2" class="edge"><title>Node1&#45;&gt;Node2</title>
<path fill="none" stroke="midnightblue" d="M739.945,-297.901C568.874,-290.805 171.459,-272.557 113,-254 56.9132,-236.196 0,-243.845 0,-185 0,-185 0,-185 0,-127 0,-74.2314 166.783,-34.9674 248.253,-18.9356"/>
<polygon fill="midnightblue" stroke="midnightblue" points="249.066,-22.3433 258.219,-17.0068 247.736,-15.4709 249.066,-22.3433"/>
</g>
<!-- Node3 -->
<g id="node5" class="node"><title>Node3</title>
<polygon fill="white" stroke="#bfbfbf" points="581.5,-116.5 581.5,-137.5 612.5,-137.5 612.5,-116.5 581.5,-116.5"/>
<text text-anchor="middle" x="597" y="-124.5" font-family="Helvetica,sans-Serif" font-size="10.00">set</text>
</g>
<!-- Node1&#45;&gt;Node3 -->
<g id="edge4" class="edge"><title>Node1&#45;&gt;Node3</title>
<path fill="none" stroke="midnightblue" d="M739.965,-291.299C681.479,-279.487 605.214,-253.409 567,-196 556.472,-180.184 567.592,-160.066 579.159,-145.64"/>
<polygon fill="midnightblue" stroke="midnightblue" points="581.974,-147.735 585.861,-137.879 576.676,-143.16 581.974,-147.735"/>
</g>
<!-- Node4 -->
<g id="node7" class="node"><title>Node4</title>
<a xlink:href="WindowManagerBase_8h.htm" target="_top" xlink:title="WindowManagerBase.h">
<polygon fill="white" stroke="black" points="121.5,-232.5 121.5,-253.5 250.5,-253.5 250.5,-232.5 121.5,-232.5"/>
<text text-anchor="middle" x="186" y="-240.5" font-family="Helvetica,sans-Serif" font-size="10.00">WindowManagerBase.h</text>
</a>
</g>
<!-- Node1&#45;&gt;Node4 -->
<g id="edge6" class="edge"><title>Node1&#45;&gt;Node4</title>
<path fill="none" stroke="midnightblue" d="M739.871,-293.83C617.285,-282.58 381.34,-260.927 260.827,-249.867"/>
<polygon fill="midnightblue" stroke="midnightblue" points="260.867,-246.356 250.589,-248.927 260.227,-253.327 260.867,-246.356"/>
</g>
<!-- Node10 -->
<g id="node21" class="node"><title>Node10</title>
<a xlink:href="PtrArray_8h.htm" target="_top" xlink:title="PtrArray.h">
<polygon fill="white" stroke="black" points="320,-58.5 320,-79.5 384,-79.5 384,-58.5 320,-58.5"/>
<text text-anchor="middle" x="352" y="-66.5" font-family="Helvetica,sans-Serif" font-size="10.00">PtrArray.h</text>
</a>
</g>
<!-- Node1&#45;&gt;Node10 -->
<g id="edge22" class="edge"><title>Node1&#45;&gt;Node10</title>
<path fill="none" stroke="midnightblue" d="M739.684,-293.903C666.94,-286.305 564.651,-272.758 529,-254 452.12,-213.549 389.465,-127.039 364.123,-88.3708"/>
<polygon fill="midnightblue" stroke="midnightblue" points="366.852,-86.144 358.498,-79.6279 360.965,-89.9315 366.852,-86.144"/>
</g>
<!-- Node12 -->
<g id="node26" class="node"><title>Node12</title>
<a xlink:href="VariantAnimation_8h.htm" target="_top" xlink:title="VariantAnimation.h">
<polygon fill="white" stroke="black" points="401.5,-58.5 401.5,-79.5 506.5,-79.5 506.5,-58.5 401.5,-58.5"/>
<text text-anchor="middle" x="454" y="-66.5" font-family="Helvetica,sans-Serif" font-size="10.00">VariantAnimation.h</text>
</a>
</g>
<!-- Node1&#45;&gt;Node12 -->
<g id="edge28" class="edge"><title>Node1&#45;&gt;Node12</title>
<path fill="none" stroke="midnightblue" d="M739.711,-292.475C675.628,-284.445 590.864,-271.104 561,-254 498.18,-218.023 468.963,-129.423 458.619,-89.3126"/>
<polygon fill="midnightblue" stroke="midnightblue" points="462.014,-88.4626 456.238,-79.5807 455.214,-90.126 462.014,-88.4626"/>
</g>
<!-- Node14 -->
<g id="node31" class="node"><title>Node14</title>
<polygon fill="white" stroke="#bfbfbf" points="524,-58.5 524,-79.5 616,-79.5 616,-58.5 524,-58.5"/>
<text text-anchor="middle" x="570" y="-66.5" font-family="Helvetica,sans-Serif" font-size="10.00">CustomEvents.h</text>
</g>
<!-- Node1&#45;&gt;Node14 -->
<g id="edge34" class="edge"><title>Node1&#45;&gt;Node14</title>
<path fill="none" stroke="midnightblue" d="M744.02,-290.487C690.075,-281.845 622.335,-268.667 598,-254 540.441,-219.308 523.932,-201.172 501,-138 497.664,-128.809 496.429,-124.644 501,-116 508.212,-102.362 521.354,-91.94 534.249,-84.4171"/>
<polygon fill="midnightblue" stroke="midnightblue" points="535.919,-87.4935 543.061,-79.6683 532.598,-81.3314 535.919,-87.4935"/>
</g>
<!-- Node15 -->
<g id="node33" class="node"><title>Node15</title>
<a xlink:href="SystemMenu_8h.htm" target="_top" xlink:title="SystemMenu.h">
<polygon fill="white" stroke="black" points="775,-232.5 775,-253.5 861,-253.5 861,-232.5 775,-232.5"/>
<text text-anchor="middle" x="818" y="-240.5" font-family="Helvetica,sans-Serif" font-size="10.00">SystemMenu.h</text>
</a>
</g>
<!-- Node1&#45;&gt;Node15 -->
<g id="edge36" class="edge"><title>Node1&#45;&gt;Node15</title>
<path fill="none" stroke="midnightblue" d="M818,-290.362C818,-282.922 818,-272.743 818,-263.728"/>
<polygon fill="midnightblue" stroke="midnightblue" points="821.5,-263.571 818,-253.571 814.5,-263.571 821.5,-263.571"/>
</g>
<!-- Node17 -->
<g id="node37" class="node"><title>Node17</title>
<polygon fill="white" stroke="#bfbfbf" points="900,-174.5 900,-195.5 1012,-195.5 1012,-174.5 900,-174.5"/>
<text text-anchor="middle" x="956" y="-182.5" font-family="Helvetica,sans-Serif" font-size="10.00">QPropertyAnimation</text>
</g>
<!-- Node1&#45;&gt;Node17 -->
<g id="edge78" class="edge"><title>Node1&#45;&gt;Node17</title>
<path fill="none" stroke="midnightblue" d="M830.735,-290.295C854.663,-270.182 906.522,-226.59 935.448,-202.275"/>
<polygon fill="midnightblue" stroke="midnightblue" points="937.893,-204.793 943.295,-195.679 933.388,-199.435 937.893,-204.793"/>
</g>
<!-- Node27 -->
<g id="node62" class="node"><title>Node27</title>
<polygon fill="white" stroke="#bfbfbf" points="776.5,-58.5 776.5,-79.5 835.5,-79.5 835.5,-58.5 776.5,-58.5"/>
<text text-anchor="middle" x="806" y="-66.5" font-family="Helvetica,sans-Serif" font-size="10.00">QPointer</text>
</g>
<!-- Node1&#45;&gt;Node27 -->
<g id="edge90" class="edge"><title>Node1&#45;&gt;Node27</title>
<path fill="none" stroke="midnightblue" d="M799.905,-290.386C787.818,-282.167 772.915,-269.57 766,-254 762.031,-245.064 764.611,-241.679 766,-232 769.816,-205.41 772.124,-198.562 783,-174 790.592,-156.854 799.791,-156.013 805,-138 809.57,-122.199 809.525,-103.5 808.502,-89.556"/>
<polygon fill="midnightblue" stroke="midnightblue" points="811.98,-89.159 807.541,-79.5392 805.012,-89.8279 811.98,-89.159"/>
</g>
<!-- Node28 -->
<g id="node68" class="node"><title>Node28</title>
<polygon fill="white" stroke="#bfbfbf" points="917,-232.5 917,-253.5 1053,-253.5 1053,-232.5 917,-232.5"/>
<text text-anchor="middle" x="985" y="-240.5" font-family="Helvetica,sans-Serif" font-size="10.00">QParallelAnimationGroup</text>
</g>
<!-- Node1&#45;&gt;Node28 -->
<g id="edge80" class="edge"><title>Node1&#45;&gt;Node28</title>
<path fill="none" stroke="midnightblue" d="M848.242,-290.497C875.35,-281.082 915.31,-267.204 945.043,-256.877"/>
<polygon fill="midnightblue" stroke="midnightblue" points="946.403,-260.11 954.701,-253.523 944.106,-253.498 946.403,-260.11"/>
</g>
<!-- Node29 -->
<g id="node70" class="node"><title>Node29</title>
<polygon fill="white" stroke="#bfbfbf" points="1071,-232.5 1071,-253.5 1227,-253.5 1227,-232.5 1071,-232.5"/>
<text text-anchor="middle" x="1149" y="-240.5" font-family="Helvetica,sans-Serif" font-size="10.00">QGraphicsSceneMouseEvent</text>
</g>
<!-- Node1&#45;&gt;Node29 -->
<g id="edge82" class="edge"><title>Node1&#45;&gt;Node29</title>
<path fill="none" stroke="midnightblue" d="M877.942,-290.497C934.473,-280.591 1019.21,-265.743 1078.86,-255.291"/>
<polygon fill="midnightblue" stroke="midnightblue" points="1079.7,-258.697 1088.95,-253.523 1078.49,-251.802 1079.7,-258.697"/>
</g>
<!-- Node30 -->
<g id="node72" class="node"><title>Node30</title>
<polygon fill="white" stroke="#bfbfbf" points="1244.5,-232.5 1244.5,-253.5 1377.5,-253.5 1377.5,-232.5 1244.5,-232.5"/>
<text text-anchor="middle" x="1311" y="-240.5" font-family="Helvetica,sans-Serif" font-size="10.00">QDeclarativeComponent</text>
</g>
<!-- Node1&#45;&gt;Node30 -->
<g id="edge84" class="edge"><title>Node1&#45;&gt;Node30</title>
<path fill="none" stroke="midnightblue" d="M896.29,-292.992C978.132,-284.44 1110.56,-270.094 1234.33,-254.188"/>
<polygon fill="midnightblue" stroke="midnightblue" points="1234.89,-257.644 1244.36,-252.893 1233.99,-250.702 1234.89,-257.644"/>
</g>
<!-- Node31 -->
<g id="node74" class="node"><title>Node31</title>
<polygon fill="white" stroke="#bfbfbf" points="1394.5,-232.5 1394.5,-253.5 1483.5,-253.5 1483.5,-232.5 1394.5,-232.5"/>
<text text-anchor="middle" x="1439" y="-240.5" font-family="Helvetica,sans-Serif" font-size="10.00">QGestureEvent</text>
</g>
<!-- Node1&#45;&gt;Node31 -->
<g id="edge86" class="edge"><title>Node1&#45;&gt;Node31</title>
<path fill="none" stroke="midnightblue" d="M896.437,-297.542C1004.29,-292.112 1204.57,-279.61 1384.09,-254.147"/>
<polygon fill="midnightblue" stroke="midnightblue" points="1384.85,-257.574 1394.25,-252.689 1383.85,-250.645 1384.85,-257.574"/>
</g>
<!-- Node32 -->
<g id="node76" class="node"><title>Node32</title>
<polygon fill="white" stroke="#bfbfbf" points="1500.5,-232.5 1500.5,-253.5 1577.5,-253.5 1577.5,-232.5 1500.5,-232.5"/>
<text text-anchor="middle" x="1539" y="-240.5" font-family="Helvetica,sans-Serif" font-size="10.00">QTextLayout</text>
</g>
<!-- Node1&#45;&gt;Node32 -->
<g id="edge88" class="edge"><title>Node1&#45;&gt;Node32</title>
<path fill="none" stroke="midnightblue" d="M896.026,-299.612C1020.13,-296.511 1270.15,-286.617 1490.24,-254.076"/>
<polygon fill="midnightblue" stroke="midnightblue" points="1491,-257.502 1500.37,-252.559 1489.96,-250.579 1491,-257.502"/>
</g>
<!-- Node33 -->
<g id="node79" class="node"><title>Node33</title>
<polygon fill="white" stroke="#bfbfbf" points="1595,-232.5 1595,-253.5 1657,-253.5 1657,-232.5 1595,-232.5"/>
<text text-anchor="middle" x="1626" y="-240.5" font-family="Helvetica,sans-Serif" font-size="10.00">QBitArray</text>
</g>
<!-- Node1&#45;&gt;Node33 -->
<g id="edge92" class="edge"><title>Node1&#45;&gt;Node33</title>
<path fill="none" stroke="midnightblue" d="M896.084,-298.278C1060.09,-292.232 1436.76,-276.543 1584.46,-253.911"/>
<polygon fill="midnightblue" stroke="midnightblue" points="1585.37,-257.309 1594.69,-252.269 1584.27,-250.397 1585.37,-257.309"/>
</g>
<!-- Node4&#45;&gt;Node2 -->
<g id="edge8" class="edge"><title>Node4&#45;&gt;Node2</title>
<path fill="none" stroke="midnightblue" d="M167.566,-232.467C155.251,-224.287 140.062,-211.702 133,-196 128.989,-187.083 129.506,-183.132 133,-174 158.701,-106.834 228.165,-52.8159 266.217,-27.1765"/>
<polygon fill="midnightblue" stroke="midnightblue" points="268.304,-29.9929 274.724,-21.5651 264.449,-24.1495 268.304,-29.9929"/>
</g>
<!-- Node5 -->
<g id="node10" class="node"><title>Node5</title>
<polygon fill="white" stroke="#bfbfbf" points="142,-174.5 142,-195.5 230,-195.5 230,-174.5 142,-174.5"/>
<text text-anchor="middle" x="186" y="-182.5" font-family="Helvetica,sans-Serif" font-size="10.00">QGraphicsItem</text>
</g>
<!-- Node4&#45;&gt;Node5 -->
<g id="edge10" class="edge"><title>Node4&#45;&gt;Node5</title>
<path fill="none" stroke="midnightblue" d="M186,-232.362C186,-224.922 186,-214.743 186,-205.728"/>
<polygon fill="midnightblue" stroke="midnightblue" points="189.5,-205.571 186,-195.571 182.5,-205.571 189.5,-205.571"/>
</g>
<!-- Node6 -->
<g id="node12" class="node"><title>Node6</title>
<polygon fill="white" stroke="#bfbfbf" points="27.5,-174.5 27.5,-195.5 86.5,-195.5 86.5,-174.5 27.5,-174.5"/>
<text text-anchor="middle" x="57" y="-182.5" font-family="Helvetica,sans-Serif" font-size="10.00">QPainter</text>
</g>
<!-- Node4&#45;&gt;Node6 -->
<g id="edge12" class="edge"><title>Node4&#45;&gt;Node6</title>
<path fill="none" stroke="midnightblue" d="M162.639,-232.497C142.309,-223.356 112.622,-210.008 89.8911,-199.788"/>
<polygon fill="midnightblue" stroke="midnightblue" points="91.1789,-196.53 80.6231,-195.621 88.3083,-202.914 91.1789,-196.53"/>
</g>
<!-- Node7 -->
<g id="node14" class="node"><title>Node7</title>
<a xlink:href="UiNavigationController_8h.htm" target="_top" xlink:title="UiNavigationController.h">
<polygon fill="white" stroke="black" points="247.5,-174.5 247.5,-195.5 378.5,-195.5 378.5,-174.5 247.5,-174.5"/>
<text text-anchor="middle" x="313" y="-182.5" font-family="Helvetica,sans-Serif" font-size="10.00">UiNavigationController.h</text>
</a>
</g>
<!-- Node4&#45;&gt;Node7 -->
<g id="edge14" class="edge"><title>Node4&#45;&gt;Node7</title>
<path fill="none" stroke="midnightblue" d="M208.999,-232.497C229.013,-223.356 258.241,-210.008 280.619,-199.788"/>
<polygon fill="midnightblue" stroke="midnightblue" points="282.101,-202.959 289.743,-195.621 279.193,-196.592 282.101,-202.959"/>
</g>
<!-- Node7&#45;&gt;Node2 -->
<g id="edge16" class="edge"><title>Node7&#45;&gt;Node2</title>
<path fill="none" stroke="midnightblue" d="M311.718,-174.377C308.328,-146.293 299.081,-69.6735 294.559,-32.2027"/>
<polygon fill="midnightblue" stroke="midnightblue" points="297.992,-31.4363 293.319,-21.9277 291.042,-32.2751 297.992,-31.4363"/>
</g>
<!-- Node8 -->
<g id="node17" class="node"><title>Node8</title>
<polygon fill="white" stroke="#bfbfbf" points="509.5,-116.5 509.5,-137.5 564.5,-137.5 564.5,-116.5 509.5,-116.5"/>
<text text-anchor="middle" x="537" y="-124.5" font-family="Helvetica,sans-Serif" font-size="10.00">QObject</text>
</g>
<!-- Node7&#45;&gt;Node8 -->
<g id="edge18" class="edge"><title>Node7&#45;&gt;Node8</title>
<path fill="none" stroke="midnightblue" d="M353.565,-174.497C395.174,-163.723 459.358,-147.104 499.726,-136.651"/>
<polygon fill="midnightblue" stroke="midnightblue" points="500.644,-140.029 509.447,-134.134 498.889,-133.253 500.644,-140.029"/>
</g>
<!-- Node9 -->
<g id="node19" class="node"><title>Node9</title>
<polygon fill="white" stroke="#bfbfbf" points="194,-116.5 194,-137.5 264,-137.5 264,-116.5 194,-116.5"/>
<text text-anchor="middle" x="229" y="-124.5" font-family="Helvetica,sans-Serif" font-size="10.00">QKeyEvent</text>
</g>
<!-- Node7&#45;&gt;Node9 -->
<g id="edge20" class="edge"><title>Node7&#45;&gt;Node9</title>
<path fill="none" stroke="midnightblue" d="M297.593,-174.362C285.042,-165.696 267.108,-153.313 252.725,-143.382"/>
<polygon fill="midnightblue" stroke="midnightblue" points="254.527,-140.372 244.309,-137.571 250.55,-146.133 254.527,-140.372"/>
</g>
<!-- Node10&#45;&gt;Node2 -->
<g id="edge24" class="edge"><title>Node10&#45;&gt;Node2</title>
<path fill="none" stroke="midnightblue" d="M340.995,-58.3619C332.453,-50.1043 320.42,-38.4725 310.417,-28.8029"/>
<polygon fill="midnightblue" stroke="midnightblue" points="312.558,-26.0044 302.935,-21.5707 307.692,-31.0374 312.558,-26.0044"/>
</g>
<!-- Node11 -->
<g id="node24" class="node"><title>Node11</title>
<polygon fill="white" stroke="#bfbfbf" points="342.5,-0.5 342.5,-21.5 383.5,-21.5 383.5,-0.5 342.5,-0.5"/>
<text text-anchor="middle" x="363" y="-8.5" font-family="Helvetica,sans-Serif" font-size="10.00">glib.h</text>
</g>
<!-- Node10&#45;&gt;Node11 -->
<g id="edge26" class="edge"><title>Node10&#45;&gt;Node11</title>
<path fill="none" stroke="midnightblue" d="M354.018,-58.3619C355.444,-50.8401 357.402,-40.5187 359.125,-31.4308"/>
<polygon fill="midnightblue" stroke="midnightblue" points="362.571,-32.0477 360.995,-21.5707 355.693,-30.7433 362.571,-32.0477"/>
</g>
<!-- Node12&#45;&gt;Node2 -->
<g id="edge30" class="edge"><title>Node12&#45;&gt;Node2</title>
<path fill="none" stroke="midnightblue" d="M424.663,-58.4966C398.481,-49.1229 359.94,-35.3242 331.137,-25.0122"/>
<polygon fill="midnightblue" stroke="midnightblue" points="331.987,-21.5987 321.392,-21.5231 329.627,-28.189 331.987,-21.5987"/>
</g>
<!-- Node13 -->
<g id="node29" class="node"><title>Node13</title>
<polygon fill="white" stroke="#bfbfbf" points="400.5,-0.5 400.5,-21.5 505.5,-21.5 505.5,-0.5 400.5,-0.5"/>
<text text-anchor="middle" x="453" y="-8.5" font-family="Helvetica,sans-Serif" font-size="10.00">QVariantAnimation</text>
</g>
<!-- Node12&#45;&gt;Node13 -->
<g id="edge32" class="edge"><title>Node12&#45;&gt;Node13</title>
<path fill="none" stroke="midnightblue" d="M453.817,-58.3619C453.688,-50.9219 453.513,-40.7427 453.357,-31.7276"/>
<polygon fill="midnightblue" stroke="midnightblue" points="456.854,-31.5088 453.182,-21.5707 449.855,-31.6295 456.854,-31.5088"/>
</g>
<!-- Node16 -->
<g id="node35" class="node"><title>Node16</title>
<polygon fill="white" stroke="#bfbfbf" points="823,-0.5 823,-21.5 921,-21.5 921,-0.5 823,-0.5"/>
<text text-anchor="middle" x="872" y="-8.5" font-family="Helvetica,sans-Serif" font-size="10.00">QGraphicsObject</text>
</g>
<!-- Node15&#45;&gt;Node16 -->
<g id="edge38" class="edge"><title>Node15&#45;&gt;Node16</title>
<path fill="none" stroke="midnightblue" d="M828.516,-232.455C836.694,-223.548 847.538,-210.031 853,-196 874.876,-139.8 874.944,-67.1241 873.382,-31.9333"/>
<polygon fill="midnightblue" stroke="midnightblue" points="876.874,-31.6912 872.843,-21.8932 869.884,-32.0665 876.874,-31.6912"/>
</g>
<!-- Node15&#45;&gt;Node17 -->
<g id="edge40" class="edge"><title>Node15&#45;&gt;Node17</title>
<path fill="none" stroke="midnightblue" d="M842.991,-232.497C864.933,-223.275 897.066,-209.769 921.464,-199.515"/>
<polygon fill="midnightblue" stroke="midnightblue" points="922.866,-202.722 930.729,-195.621 920.154,-196.269 922.866,-202.722"/>
</g>
<!-- Node18 -->
<g id="node39" class="node"><title>Node18</title>
<polygon fill="white" stroke="#bfbfbf" points="792,-174.5 792,-195.5 844,-195.5 844,-174.5 792,-174.5"/>
<text text-anchor="middle" x="818" y="-182.5" font-family="Helvetica,sans-Serif" font-size="10.00">QTimer</text>
</g>
<!-- Node15&#45;&gt;Node18 -->
<g id="edge42" class="edge"><title>Node15&#45;&gt;Node18</title>
<path fill="none" stroke="midnightblue" d="M818,-232.362C818,-224.922 818,-214.743 818,-205.728"/>
<polygon fill="midnightblue" stroke="midnightblue" points="821.5,-205.571 818,-195.571 814.5,-205.571 821.5,-205.571"/>
</g>
<!-- Node19 -->
<g id="node41" class="node"><title>Node19</title>
<a xlink:href="StatusBarServicesConnector_8h.htm" target="_top" xlink:title="StatusBarServicesConnector.h">
<polygon fill="white" stroke="black" points="575.5,-174.5 575.5,-195.5 736.5,-195.5 736.5,-174.5 575.5,-174.5"/>
<text text-anchor="middle" x="656" y="-182.5" font-family="Helvetica,sans-Serif" font-size="10.00">StatusBarServicesConnector.h</text>
</a>
</g>
<!-- Node15&#45;&gt;Node19 -->
<g id="edge44" class="edge"><title>Node15&#45;&gt;Node19</title>
<path fill="none" stroke="midnightblue" d="M788.663,-232.497C762.481,-223.123 723.94,-209.324 695.137,-199.012"/>
<polygon fill="midnightblue" stroke="midnightblue" points="695.987,-195.599 685.392,-195.523 693.627,-202.189 695.987,-195.599"/>
</g>
<!-- Node19&#45;&gt;Node3 -->
<g id="edge50" class="edge"><title>Node19&#45;&gt;Node3</title>
<path fill="none" stroke="midnightblue" d="M645.178,-174.362C636.779,-166.104 624.946,-154.472 615.11,-144.803"/>
<polygon fill="midnightblue" stroke="midnightblue" points="617.338,-142.085 607.753,-137.571 612.431,-147.077 617.338,-142.085"/>
</g>
<!-- Node19&#45;&gt;Node8 -->
<g id="edge46" class="edge"><title>Node19&#45;&gt;Node8</title>
<path fill="none" stroke="midnightblue" d="M634.45,-174.497C615.864,-165.438 588.798,-152.246 567.905,-142.063"/>
<polygon fill="midnightblue" stroke="midnightblue" points="569.314,-138.856 558.792,-137.621 566.247,-145.149 569.314,-138.856"/>
</g>
<!-- Node20 -->
<g id="node44" class="node"><title>Node20</title>
<polygon fill="white" stroke="#bfbfbf" points="718,-116.5 718,-137.5 796,-137.5 796,-116.5 718,-116.5"/>
<text text-anchor="middle" x="757" y="-124.5" font-family="Helvetica,sans-Serif" font-size="10.00">lunaservice.h</text>
</g>
<!-- Node19&#45;&gt;Node20 -->
<g id="edge48" class="edge"><title>Node19&#45;&gt;Node20</title>
<path fill="none" stroke="midnightblue" d="M674.525,-174.362C689.901,-165.532 711.996,-152.844 729.447,-142.822"/>
<polygon fill="midnightblue" stroke="midnightblue" points="731.664,-145.586 738.592,-137.571 728.178,-139.515 731.664,-145.586"/>
</g>
<!-- Node21 -->
<g id="node47" class="node"><title>Node21</title>
<a xlink:href="StatusBar_8h.htm" target="_top" xlink:title="StatusBar.h">
<polygon fill="white" stroke="black" points="629.5,-116.5 629.5,-137.5 700.5,-137.5 700.5,-116.5 629.5,-116.5"/>
<text text-anchor="middle" x="665" y="-124.5" font-family="Helvetica,sans-Serif" font-size="10.00">StatusBar.h</text>
</a>
</g>
<!-- Node19&#45;&gt;Node21 -->
<g id="edge52" class="edge"><title>Node19&#45;&gt;Node21</title>
<path fill="none" stroke="midnightblue" d="M657.651,-174.362C658.805,-166.922 660.385,-156.743 661.784,-147.728"/>
<polygon fill="midnightblue" stroke="midnightblue" points="665.285,-147.989 663.36,-137.571 658.368,-146.916 665.285,-147.989"/>
</g>
<!-- Node21&#45;&gt;Node12 -->
<g id="edge74" class="edge"><title>Node21&#45;&gt;Node12</title>
<path fill="none" stroke="midnightblue" d="M629.207,-117.161C594.345,-107.578 541.102,-92.9427 502.459,-82.3205"/>
<polygon fill="midnightblue" stroke="midnightblue" points="503.043,-78.8511 492.473,-79.5754 501.187,-85.6008 503.043,-78.8511"/>
</g>
<!-- Node21&#45;&gt;Node14 -->
<g id="edge76" class="edge"><title>Node21&#45;&gt;Node14</title>
<path fill="none" stroke="midnightblue" d="M647.576,-116.362C633.113,-107.532 612.331,-94.844 595.916,-84.8224"/>
<polygon fill="midnightblue" stroke="midnightblue" points="597.673,-81.7943 587.314,-79.5707 594.025,-87.7688 597.673,-81.7943"/>
</g>
<!-- Node21&#45;&gt;Node16 -->
<g id="edge72" class="edge"><title>Node21&#45;&gt;Node16</title>
<path fill="none" stroke="midnightblue" d="M679.189,-116.389C698.623,-102.116 734.89,-76.4051 768,-58 789.977,-45.7835 815.721,-34.1294 836.098,-25.4821"/>
<polygon fill="midnightblue" stroke="midnightblue" points="837.468,-28.7026 845.339,-21.6096 834.763,-22.2466 837.468,-28.7026"/>
</g>
<!-- Node22 -->
<g id="node49" class="node"><title>Node22</title>
<a xlink:href="Window_8h.htm" target="_top" xlink:title="Window.h">
<polygon fill="white" stroke="black" points="634,-58.5 634,-79.5 696,-79.5 696,-58.5 634,-58.5"/>
<text text-anchor="middle" x="665" y="-66.5" font-family="Helvetica,sans-Serif" font-size="10.00">Window.h</text>
</a>
</g>
<!-- Node21&#45;&gt;Node22 -->
<g id="edge54" class="edge"><title>Node21&#45;&gt;Node22</title>
<path fill="none" stroke="midnightblue" d="M665,-116.362C665,-108.922 665,-98.7427 665,-89.7276"/>
<polygon fill="midnightblue" stroke="midnightblue" points="668.5,-89.5706 665,-79.5707 661.5,-89.5707 668.5,-89.5706"/>
</g>
<!-- Node21&#45;&gt;Node27 -->
<g id="edge70" class="edge"><title>Node21&#45;&gt;Node27</title>
<path fill="none" stroke="midnightblue" d="M690.534,-116.497C712.953,-107.275 745.785,-93.7695 770.713,-83.5153"/>
<polygon fill="midnightblue" stroke="midnightblue" points="772.263,-86.6623 780.179,-79.6212 769.6,-80.1886 772.263,-86.6623"/>
</g>
<!-- Node22&#45;&gt;Node2 -->
<g id="edge56" class="edge"><title>Node22&#45;&gt;Node2</title>
<path fill="none" stroke="midnightblue" d="M633.66,-59.9183C630.745,-59.214 627.826,-58.5603 625,-58 500.415,-33.2992 463.83,-45.8822 336.016,-22.2014"/>
<polygon fill="midnightblue" stroke="midnightblue" points="336.314,-18.6957 325.838,-20.2754 335.013,-25.5737 336.314,-18.6957"/>
</g>
<!-- Node22&#45;&gt;Node11 -->
<g id="edge64" class="edge"><title>Node22&#45;&gt;Node11</title>
<path fill="none" stroke="midnightblue" d="M633.641,-60.0094C630.73,-59.2859 627.817,-58.6029 625,-58 525.638,-36.7354 495.155,-47.9927 393.474,-22.0069"/>
<polygon fill="midnightblue" stroke="midnightblue" points="394.299,-18.605 383.739,-19.4622 392.529,-25.3774 394.299,-18.605"/>
</g>
<!-- Node22&#45;&gt;Node16 -->
<g id="edge66" class="edge"><title>Node22&#45;&gt;Node16</title>
<path fill="none" stroke="midnightblue" d="M696.439,-60.191C730.533,-50.638 785.339,-35.2817 824.649,-24.2675"/>
<polygon fill="midnightblue" stroke="midnightblue" points="825.602,-27.6353 834.287,-21.567 823.713,-20.8949 825.602,-27.6353"/>
</g>
<!-- Node23 -->
<g id="node52" class="node"><title>Node23</title>
<polygon fill="white" stroke="#bfbfbf" points="585,-0.5 585,-21.5 677,-21.5 677,-0.5 585,-0.5"/>
<text text-anchor="middle" x="631" y="-8.5" font-family="Helvetica,sans-Serif" font-size="10.00">WindowTypes.h</text>
</g>
<!-- Node22&#45;&gt;Node23 -->
<g id="edge58" class="edge"><title>Node22&#45;&gt;Node23</title>
<path fill="none" stroke="midnightblue" d="M658.764,-58.3619C654.163,-50.5131 647.775,-39.6159 642.286,-30.2527"/>
<polygon fill="midnightblue" stroke="midnightblue" points="645.273,-28.4276 637.197,-21.5707 639.234,-31.9677 645.273,-28.4276"/>
</g>
<!-- Node24 -->
<g id="node54" class="node"><title>Node24</title>
<polygon fill="white" stroke="#bfbfbf" points="695,-0.5 695,-21.5 745,-21.5 745,-0.5 695,-0.5"/>
<text text-anchor="middle" x="720" y="-8.5" font-family="Helvetica,sans-Serif" font-size="10.00">stdint.h</text>
</g>
<!-- Node22&#45;&gt;Node24 -->
<g id="edge60" class="edge"><title>Node22&#45;&gt;Node24</title>
<path fill="none" stroke="midnightblue" d="M675.088,-58.3619C682.841,-50.1861 693.73,-38.7025 702.845,-29.0907"/>
<polygon fill="midnightblue" stroke="midnightblue" points="705.635,-31.2352 709.976,-21.5707 700.555,-26.4186 705.635,-31.2352"/>
</g>
<!-- Node25 -->
<g id="node56" class="node"><title>Node25</title>
<polygon fill="white" stroke="#bfbfbf" points="762.5,-0.5 762.5,-21.5 805.5,-21.5 805.5,-0.5 762.5,-0.5"/>
<text text-anchor="middle" x="784" y="-8.5" font-family="Helvetica,sans-Serif" font-size="10.00">string</text>
</g>
<!-- Node22&#45;&gt;Node25 -->
<g id="edge62" class="edge"><title>Node22&#45;&gt;Node25</title>
<path fill="none" stroke="midnightblue" d="M686.55,-58.4966C705.136,-49.4378 732.202,-36.2462 753.095,-26.0628"/>
<polygon fill="midnightblue" stroke="midnightblue" points="754.753,-29.1487 762.208,-21.6212 751.686,-22.8563 754.753,-29.1487"/>
</g>
<!-- Node26 -->
<g id="node60" class="node"><title>Node26</title>
<polygon fill="white" stroke="#bfbfbf" points="522.5,-0.5 522.5,-21.5 567.5,-21.5 567.5,-0.5 522.5,-0.5"/>
<text text-anchor="middle" x="545" y="-8.5" font-family="Helvetica,sans-Serif" font-size="10.00">QSize</text>
</g>
<!-- Node22&#45;&gt;Node26 -->
<g id="edge68" class="edge"><title>Node22&#45;&gt;Node26</title>
<path fill="none" stroke="midnightblue" d="M643.269,-58.4966C624.526,-49.4378 597.233,-36.2462 576.164,-26.0628"/>
<polygon fill="midnightblue" stroke="midnightblue" points="577.502,-22.8217 566.975,-21.6212 574.455,-29.1242 577.502,-22.8217"/>
</g>
</g>
</svg>
