<?xml version="1.0" encoding="UTF-8" standalone="no"?>
<!DOCTYPE svg PUBLIC "-//W3C//DTD SVG 1.1//EN"
 "http://www.w3.org/Graphics/SVG/1.1/DTD/svg11.dtd">
<!-- Generated by graphviz version 2.26.3 (20100126.1600)
 -->
<!-- Title: DockModeAppMenuContainer.h Pages: 1 -->
<svg width="544pt" height="88pt"
 viewBox="0.00 0.00 544.00 88.00" xmlns="http://www.w3.org/2000/svg" xmlns:xlink="http://www.w3.org/1999/xlink">
<g id="graph1" class="graph" transform="scale(1 1) rotate(0) translate(4 84)">
<title>DockModeAppMenuContainer.h</title>
<polygon fill="white" stroke="white" points="-4,5 -4,-84 541,-84 541,5 -4,5"/>
<!-- Node1 -->
<g id="node1" class="node"><title>Node1</title>
<polygon fill="#bfbfbf" stroke="black" points="190.5,-58.5 190.5,-79.5 357.5,-79.5 357.5,-58.5 190.5,-58.5"/>
<text text-anchor="middle" x="274" y="-66.5" font-family="Helvetica,sans-Serif" font-size="10.00">DockModeAppMenuContainer.h</text>
</g>
<!-- Node2 -->
<g id="node3" class="node"><title>Node2</title>
<a xlink:href="DockModeAppMenuContainer_8cpp.htm" target="_top" xlink:title="DockModeAppMenuContainer.cpp">
<polygon fill="white" stroke="black" points="-0.5,-0.5 -0.5,-21.5 178.5,-21.5 178.5,-0.5 -0.5,-0.5"/>
<text text-anchor="middle" x="89" y="-8.5" font-family="Helvetica,sans-Serif" font-size="10.00">DockModeAppMenuContainer.cpp</text>
</a>
</g>
<!-- Node1&#45;&gt;Node2 -->
<g id="edge2" class="edge"><title>Node1&#45;&gt;Node2</title>
<path fill="none" stroke="midnightblue" d="M230.661,-55.4127C197.654,-45.0646 152.876,-31.0258 122.565,-21.5231"/>
<polygon fill="midnightblue" stroke="midnightblue" points="229.909,-58.8447 240.498,-58.4966 232.003,-52.1653 229.909,-58.8447"/>
</g>
<!-- Node3 -->
<g id="node5" class="node"><title>Node3</title>
<a xlink:href="DockModeMenuManager_8cpp.htm" target="_top" xlink:title="DockModeMenuManager.cpp">
<polygon fill="white" stroke="black" points="196,-0.5 196,-21.5 352,-21.5 352,-0.5 196,-0.5"/>
<text text-anchor="middle" x="274" y="-8.5" font-family="Helvetica,sans-Serif" font-size="10.00">DockModeMenuManager.cpp</text>
</a>
</g>
<!-- Node1&#45;&gt;Node3 -->
<g id="edge4" class="edge"><title>Node1&#45;&gt;Node3</title>
<path fill="none" stroke="midnightblue" d="M274,-48.1906C274,-39.1684 274,-28.9941 274,-21.5707"/>
<polygon fill="midnightblue" stroke="midnightblue" points="270.5,-48.3619 274,-58.3619 277.5,-48.3619 270.5,-48.3619"/>
</g>
<!-- Node4 -->
<g id="node7" class="node"><title>Node4</title>
<a xlink:href="DockModeWindowManager_8cpp.htm" target="_top" xlink:title="DockModeWindowManager.cpp">
<polygon fill="white" stroke="black" points="369.5,-0.5 369.5,-21.5 536.5,-21.5 536.5,-0.5 369.5,-0.5"/>
<text text-anchor="middle" x="453" y="-8.5" font-family="Helvetica,sans-Serif" font-size="10.00">DockModeWindowManager.cpp</text>
</a>
</g>
<!-- Node1&#45;&gt;Node4 -->
<g id="edge6" class="edge"><title>Node1&#45;&gt;Node4</title>
<path fill="none" stroke="midnightblue" d="M315.933,-55.4127C347.87,-45.0646 391.196,-31.0258 420.524,-21.5231"/>
<polygon fill="midnightblue" stroke="midnightblue" points="314.85,-52.0845 306.416,-58.4966 317.008,-58.7437 314.85,-52.0845"/>
</g>
</g>
</svg>
