<?xml version="1.0" encoding="UTF-8" standalone="no"?>
<!DOCTYPE svg PUBLIC "-//W3C//DTD SVG 1.1//EN"
 "http://www.w3.org/Graphics/SVG/1.1/DTD/svg11.dtd">
<!-- Generated by graphviz version 2.26.3 (20100126.1600)
 -->
<!-- Title: EventReporter.h Pages: 1 -->
<svg width="524pt" height="88pt"
 viewBox="0.00 0.00 524.00 88.00" xmlns="http://www.w3.org/2000/svg" xmlns:xlink="http://www.w3.org/1999/xlink">
<g id="graph1" class="graph" transform="scale(1 1) rotate(0) translate(4 84)">
<title>EventReporter.h</title>
<polygon fill="white" stroke="white" points="-4,5 -4,-84 521,-84 521,5 -4,5"/>
<!-- Node1 -->
<g id="node1" class="node"><title>Node1</title>
<polygon fill="#bfbfbf" stroke="black" points="227,-58.5 227,-79.5 321,-79.5 321,-58.5 227,-58.5"/>
<text text-anchor="middle" x="274" y="-66.5" font-family="Helvetica,sans-Serif" font-size="10.00">EventReporter.h</text>
</g>
<!-- Node2 -->
<g id="node3" class="node"><title>Node2</title>
<a xlink:href="ApplicationInstaller_8cpp.htm" target="_top" xlink:title="ApplicationInstaller.cpp">
<polygon fill="white" stroke="black" points="-0.5,-0.5 -0.5,-21.5 124.5,-21.5 124.5,-0.5 -0.5,-0.5"/>
<text text-anchor="middle" x="62" y="-8.5" font-family="Helvetica,sans-Serif" font-size="10.00">ApplicationInstaller.cpp</text>
</a>
</g>
<!-- Node1&#45;&gt;Node2 -->
<g id="edge2" class="edge"><title>Node1&#45;&gt;Node2</title>
<path fill="none" stroke="midnightblue" d="M225.797,-55.8123C187.842,-45.4285 135.647,-31.1487 100.464,-21.5231"/>
<polygon fill="midnightblue" stroke="midnightblue" points="225.039,-59.2336 235.608,-58.4966 226.886,-52.4818 225.039,-59.2336"/>
</g>
<!-- Node3 -->
<g id="node5" class="node"><title>Node3</title>
<a xlink:href="ApplicationManager_8cpp.htm" target="_top" xlink:title="ApplicationManager.cpp">
<polygon fill="white" stroke="black" points="141.5,-0.5 141.5,-21.5 272.5,-21.5 272.5,-0.5 141.5,-0.5"/>
<text text-anchor="middle" x="207" y="-8.5" font-family="Helvetica,sans-Serif" font-size="10.00">ApplicationManager.cpp</text>
</a>
</g>
<!-- Node1&#45;&gt;Node3 -->
<g id="edge4" class="edge"><title>Node1&#45;&gt;Node3</title>
<path fill="none" stroke="midnightblue" d="M254.005,-51.6908C242.694,-41.8996 228.917,-29.973 219.211,-21.5707"/>
<polygon fill="midnightblue" stroke="midnightblue" points="251.86,-54.4631 261.711,-58.3619 256.441,-49.1706 251.86,-54.4631"/>
</g>
<!-- Node4 -->
<g id="node7" class="node"><title>Node4</title>
<a xlink:href="EventReporter_8cpp.htm" target="_top" xlink:title="EventReporter.cpp">
<polygon fill="white" stroke="black" points="289.5,-0.5 289.5,-21.5 394.5,-21.5 394.5,-0.5 289.5,-0.5"/>
<text text-anchor="middle" x="342" y="-8.5" font-family="Helvetica,sans-Serif" font-size="10.00">EventReporter.cpp</text>
</a>
</g>
<!-- Node1&#45;&gt;Node4 -->
<g id="edge6" class="edge"><title>Node1&#45;&gt;Node4</title>
<path fill="none" stroke="midnightblue" d="M294.294,-51.6908C305.773,-41.8996 319.756,-29.973 329.607,-21.5707"/>
<polygon fill="midnightblue" stroke="midnightblue" points="291.809,-49.2095 286.472,-58.3619 296.352,-54.5353 291.809,-49.2095"/>
</g>
<!-- Node5 -->
<g id="node9" class="node"><title>Node5</title>
<a xlink:href="WindowServer_8cpp.htm" target="_top" xlink:title="WindowServer.cpp">
<polygon fill="white" stroke="black" points="411.5,-0.5 411.5,-21.5 516.5,-21.5 516.5,-0.5 411.5,-0.5"/>
<text text-anchor="middle" x="464" y="-8.5" font-family="Helvetica,sans-Serif" font-size="10.00">WindowServer.cpp</text>
</a>
</g>
<!-- Node1&#45;&gt;Node5 -->
<g id="edge8" class="edge"><title>Node1&#45;&gt;Node5</title>
<path fill="none" stroke="midnightblue" d="M318.072,-55.5464C352.012,-45.1857 398.264,-31.0668 429.528,-21.5231"/>
<polygon fill="midnightblue" stroke="midnightblue" points="316.95,-52.2294 308.408,-58.4966 318.994,-58.9244 316.95,-52.2294"/>
</g>
</g>
</svg>
