<?xml version="1.0" encoding="UTF-8" standalone="no"?>
<!DOCTYPE svg PUBLIC "-//W3C//DTD SVG 1.1//EN"
 "http://www.w3.org/Graphics/SVG/1.1/DTD/svg11.dtd">
<!-- Generated by graphviz version 2.26.3 (20100126.1600)
 -->
<!-- Title: EventThrottlerIme.h Pages: 1 -->
<svg width="268pt" height="88pt"
 viewBox="0.00 0.00 268.00 88.00" xmlns="http://www.w3.org/2000/svg" xmlns:xlink="http://www.w3.org/1999/xlink">
<g id="graph1" class="graph" transform="scale(1 1) rotate(0) translate(4 84)">
<title>EventThrottlerIme.h</title>
<polygon fill="white" stroke="white" points="-4,5 -4,-84 265,-84 265,5 -4,5"/>
<!-- Node1 -->
<g id="node1" class="node"><title>Node1</title>
<polygon fill="#bfbfbf" stroke="black" points="74,-58.5 74,-79.5 184,-79.5 184,-58.5 74,-58.5"/>
<text text-anchor="middle" x="129" y="-66.5" font-family="Helvetica,sans-Serif" font-size="10.00">EventThrottlerIme.h</text>
</g>
<!-- Node2 -->
<g id="node3" class="node"><title>Node2</title>
<a xlink:href="EventThrottlerIme_8cpp.htm" target="_top" xlink:title="EventThrottlerIme.cpp">
<polygon fill="white" stroke="black" points="-0.5,-0.5 -0.5,-21.5 120.5,-21.5 120.5,-0.5 -0.5,-0.5"/>
<text text-anchor="middle" x="60" y="-8.5" font-family="Helvetica,sans-Serif" font-size="10.00">EventThrottlerIme.cpp</text>
</a>
</g>
<!-- Node1&#45;&gt;Node2 -->
<g id="edge2" class="edge"><title>Node1&#45;&gt;Node2</title>
<path fill="none" stroke="midnightblue" d="M108.408,-51.6908C96.7599,-41.8996 82.5713,-29.973 72.5754,-21.5707"/>
<polygon fill="midnightblue" stroke="midnightblue" points="106.437,-54.6066 116.344,-58.3619 110.942,-49.2481 106.437,-54.6066"/>
</g>
<!-- Node3 -->
<g id="node5" class="node"><title>Node3</title>
<a xlink:href="WebAppMgrProxy_8cpp.htm" target="_top" xlink:title="WebAppMgrProxy.cpp">
<polygon fill="white" stroke="black" points="138,-0.5 138,-21.5 260,-21.5 260,-0.5 138,-0.5"/>
<text text-anchor="middle" x="199" y="-8.5" font-family="Helvetica,sans-Serif" font-size="10.00">WebAppMgrProxy.cpp</text>
</a>
</g>
<!-- Node1&#45;&gt;Node3 -->
<g id="edge4" class="edge"><title>Node1&#45;&gt;Node3</title>
<path fill="none" stroke="midnightblue" d="M149.547,-51.9753C161.427,-42.1315 176.003,-30.0545 186.242,-21.5707"/>
<polygon fill="midnightblue" stroke="midnightblue" points="147.306,-49.2866 141.839,-58.3619 151.772,-54.6768 147.306,-49.2866"/>
</g>
</g>
</svg>
