<?xml version="1.0" encoding="UTF-8" standalone="no"?>
<!DOCTYPE svg PUBLIC "-//W3C//DTD SVG 1.1//EN"
 "http://www.w3.org/Graphics/SVG/1.1/DTD/svg11.dtd">
<!-- Generated by graphviz version 2.26.3 (20100126.1600)
 -->
<!-- Title: EventThrottler.cpp Pages: 1 -->
<svg width="428pt" height="146pt"
 viewBox="0.00 0.00 427.67 146.00" xmlns="http://www.w3.org/2000/svg" xmlns:xlink="http://www.w3.org/1999/xlink">
<g id="graph1" class="graph" transform="scale(1 1) rotate(0) translate(4 142)">
<title>EventThrottler.cpp</title>
<polygon fill="white" stroke="white" points="-4,5 -4,-142 424.671,-142 424.671,5 -4,5"/>
<!-- Node1 -->
<g id="node1" class="node"><title>Node1</title>
<polygon fill="#bfbfbf" stroke="black" points="123.671,-116.5 123.671,-137.5 227.671,-137.5 227.671,-116.5 123.671,-116.5"/>
<text text-anchor="middle" x="175.671" y="-124.5" font-family="Helvetica,sans-Serif" font-size="10.00">EventThrottler.cpp</text>
</g>
<!-- Node2 -->
<g id="node3" class="node"><title>Node2</title>
<polygon fill="white" stroke="#bfbfbf" points="34.1715,-0.5 34.1715,-21.5 101.171,-21.5 101.171,-0.5 34.1715,-0.5"/>
<text text-anchor="middle" x="67.6715" y="-8.5" font-family="Helvetica,sans-Serif" font-size="10.00">Common.h</text>
</g>
<!-- Node1&#45;&gt;Node2 -->
<g id="edge2" class="edge"><title>Node1&#45;&gt;Node2</title>
<path fill="none" stroke="midnightblue" d="M123.577,-119.687C78.7723,-112.204 19.1362,-98.9769 4.67146,-80 -10.0864,-60.6386 14.111,-40.2642 36.6612,-26.7187"/>
<polygon fill="midnightblue" stroke="midnightblue" points="38.5047,-29.6966 45.4593,-21.7038 35.0382,-23.6151 38.5047,-29.6966"/>
</g>
<!-- Node3 -->
<g id="node5" class="node"><title>Node3</title>
<polygon fill="white" stroke="#bfbfbf" points="13.6715,-58.5 13.6715,-79.5 65.6715,-79.5 65.6715,-58.5 13.6715,-58.5"/>
<text text-anchor="middle" x="39.6715" y="-66.5" font-family="Helvetica,sans-Serif" font-size="10.00">QEvent</text>
</g>
<!-- Node1&#45;&gt;Node3 -->
<g id="edge4" class="edge"><title>Node1&#45;&gt;Node3</title>
<path fill="none" stroke="midnightblue" d="M151.043,-116.497C129.514,-107.315 98.0316,-93.8889 74.0269,-83.6516"/>
<polygon fill="midnightblue" stroke="midnightblue" points="75.1479,-80.3247 64.5764,-79.6212 72.4018,-86.7636 75.1479,-80.3247"/>
</g>
<!-- Node4 -->
<g id="node7" class="node"><title>Node4</title>
<polygon fill="white" stroke="#bfbfbf" points="83.1715,-58.5 83.1715,-79.5 164.171,-79.5 164.171,-58.5 83.1715,-58.5"/>
<text text-anchor="middle" x="123.671" y="-66.5" font-family="Helvetica,sans-Serif" font-size="10.00">QTouchEvent</text>
</g>
<!-- Node1&#45;&gt;Node4 -->
<g id="edge6" class="edge"><title>Node1&#45;&gt;Node4</title>
<path fill="none" stroke="midnightblue" d="M166.134,-116.362C158.804,-108.186 148.508,-96.7025 139.891,-87.0907"/>
<polygon fill="midnightblue" stroke="midnightblue" points="142.43,-84.68 133.149,-79.5707 137.218,-89.3528 142.43,-84.68"/>
</g>
<!-- Node5 -->
<g id="node9" class="node"><title>Node5</title>
<a xlink:href="EventThrottler_8h.htm" target="_top" xlink:title="EventThrottler.h">
<polygon fill="white" stroke="black" points="181.671,-58.5 181.671,-79.5 273.671,-79.5 273.671,-58.5 181.671,-58.5"/>
<text text-anchor="middle" x="227.671" y="-66.5" font-family="Helvetica,sans-Serif" font-size="10.00">EventThrottler.h</text>
</a>
</g>
<!-- Node1&#45;&gt;Node5 -->
<g id="edge8" class="edge"><title>Node1&#45;&gt;Node5</title>
<path fill="none" stroke="midnightblue" d="M185.209,-116.362C192.539,-108.186 202.835,-96.7025 211.452,-87.0907"/>
<polygon fill="midnightblue" stroke="midnightblue" points="214.125,-89.3528 218.194,-79.5707 208.913,-84.68 214.125,-89.3528"/>
</g>
<!-- Node7 -->
<g id="node14" class="node"><title>Node7</title>
<polygon fill="white" stroke="#bfbfbf" points="291.171,-58.5 291.171,-79.5 354.171,-79.5 354.171,-58.5 291.171,-58.5"/>
<text text-anchor="middle" x="322.671" y="-66.5" font-family="Helvetica,sans-Serif" font-size="10.00">Settings.h</text>
</g>
<!-- Node1&#45;&gt;Node7 -->
<g id="edge14" class="edge"><title>Node1&#45;&gt;Node7</title>
<path fill="none" stroke="midnightblue" d="M202.292,-116.497C225.769,-107.234 260.197,-93.6499 286.227,-83.3793"/>
<polygon fill="midnightblue" stroke="midnightblue" points="287.735,-86.5473 295.752,-79.6212 285.165,-80.0358 287.735,-86.5473"/>
</g>
<!-- Node8 -->
<g id="node16" class="node"><title>Node8</title>
<polygon fill="white" stroke="#bfbfbf" points="371.671,-58.5 371.671,-79.5 419.671,-79.5 419.671,-58.5 371.671,-58.5"/>
<text text-anchor="middle" x="395.671" y="-66.5" font-family="Helvetica,sans-Serif" font-size="10.00">Time.h</text>
</g>
<!-- Node1&#45;&gt;Node8 -->
<g id="edge16" class="edge"><title>Node1&#45;&gt;Node8</title>
<path fill="none" stroke="midnightblue" d="M221.658,-116.465C257.518,-108.02 308.745,-95.4524 361.979,-80.0637"/>
<polygon fill="midnightblue" stroke="midnightblue" points="362.967,-83.4216 371.587,-77.2616 361.007,-76.7015 362.967,-83.4216"/>
</g>
<!-- Node5&#45;&gt;Node2 -->
<g id="edge10" class="edge"><title>Node5&#45;&gt;Node2</title>
<path fill="none" stroke="midnightblue" d="M198.697,-58.4966C172.838,-49.1229 134.773,-35.3242 106.326,-25.0122"/>
<polygon fill="midnightblue" stroke="midnightblue" points="107.295,-21.6406 96.7006,-21.5231 104.909,-28.2216 107.295,-21.6406"/>
</g>
<!-- Node6 -->
<g id="node12" class="node"><title>Node6</title>
<polygon fill="white" stroke="#bfbfbf" points="201.671,-0.5 201.671,-21.5 253.671,-21.5 253.671,-0.5 201.671,-0.5"/>
<text text-anchor="middle" x="227.671" y="-8.5" font-family="Helvetica,sans-Serif" font-size="10.00">Event.h</text>
</g>
<!-- Node5&#45;&gt;Node6 -->
<g id="edge12" class="edge"><title>Node5&#45;&gt;Node6</title>
<path fill="none" stroke="midnightblue" d="M227.671,-58.3619C227.671,-50.9219 227.671,-40.7427 227.671,-31.7276"/>
<polygon fill="midnightblue" stroke="midnightblue" points="231.172,-31.5706 227.671,-21.5707 224.172,-31.5707 231.172,-31.5706"/>
</g>
</g>
</svg>
