<?xml version="1.0" encoding="UTF-8" standalone="no"?>
<!DOCTYPE svg PUBLIC "-//W3C//DTD SVG 1.1//EN"
 "http://www.w3.org/Graphics/SVG/1.1/DTD/svg11.dtd">
<!-- Generated by graphviz version 2.26.3 (20100126.1600)
 -->
<!-- Title: expblur.h Pages: 1 -->
<svg width="172pt" height="88pt"
 viewBox="0.00 0.00 172.00 88.00" xmlns="http://www.w3.org/2000/svg" xmlns:xlink="http://www.w3.org/1999/xlink">
<g id="graph1" class="graph" transform="scale(1 1) rotate(0) translate(4 84)">
<title>expblur.h</title>
<polygon fill="white" stroke="white" points="-4,5 -4,-84 169,-84 169,5 -4,5"/>
<!-- Node1 -->
<g id="node1" class="node"><title>Node1</title>
<polygon fill="#bfbfbf" stroke="black" points="50.5,-58.5 50.5,-79.5 109.5,-79.5 109.5,-58.5 50.5,-58.5"/>
<text text-anchor="middle" x="80" y="-66.5" font-family="Helvetica,sans-Serif" font-size="10.00">expblur.h</text>
</g>
<!-- Node2 -->
<g id="node3" class="node"><title>Node2</title>
<a xlink:href="expblur_8cpp.htm" target="_top" xlink:title="expblur.cpp">
<polygon fill="white" stroke="black" points="0,-0.5 0,-21.5 70,-21.5 70,-0.5 0,-0.5"/>
<text text-anchor="middle" x="35" y="-8.5" font-family="Helvetica,sans-Serif" font-size="10.00">expblur.cpp</text>
</a>
</g>
<!-- Node1&#45;&gt;Node2 -->
<g id="edge2" class="edge"><title>Node1&#45;&gt;Node2</title>
<path fill="none" stroke="midnightblue" d="M65.4529,-50.2504C58.0819,-40.75 49.4039,-29.5651 43.2014,-21.5707"/>
<polygon fill="midnightblue" stroke="midnightblue" points="62.851,-52.6065 71.7463,-58.3619 68.3816,-48.3155 62.851,-52.6065"/>
</g>
<!-- Node3 -->
<g id="node5" class="node"><title>Node3</title>
<a xlink:href="vcamera_8cpp.htm" target="_top" xlink:title="vcamera.cpp">
<polygon fill="white" stroke="black" points="87.5,-0.5 87.5,-21.5 164.5,-21.5 164.5,-0.5 87.5,-0.5"/>
<text text-anchor="middle" x="126" y="-8.5" font-family="Helvetica,sans-Serif" font-size="10.00">vcamera.cpp</text>
</a>
</g>
<!-- Node1&#45;&gt;Node3 -->
<g id="edge4" class="edge"><title>Node1&#45;&gt;Node3</title>
<path fill="none" stroke="midnightblue" d="M94.8704,-50.2504C102.405,-40.75 111.276,-29.5651 117.616,-21.5707"/>
<polygon fill="midnightblue" stroke="midnightblue" points="91.9088,-48.352 88.4371,-58.3619 97.3933,-52.7018 91.9088,-48.352"/>
</g>
</g>
</svg>
