<?xml version="1.0" encoding="UTF-8" standalone="no"?>
<!DOCTYPE svg PUBLIC "-//W3C//DTD SVG 1.1//EN"
 "http://www.w3.org/Graphics/SVG/1.1/DTD/svg11.dtd">
<!-- Generated by graphviz version 2.26.3 (20100126.1600)
 -->
<!-- Title: expblur.cpp Pages: 1 -->
<svg width="128pt" height="146pt"
 viewBox="0.00 0.00 128.00 146.00" xmlns="http://www.w3.org/2000/svg" xmlns:xlink="http://www.w3.org/1999/xlink">
<g id="graph1" class="graph" transform="scale(1 1) rotate(0) translate(4 142)">
<title>expblur.cpp</title>
<polygon fill="white" stroke="white" points="-4,5 -4,-142 125,-142 125,5 -4,5"/>
<!-- Node1 -->
<g id="node1" class="node"><title>Node1</title>
<polygon fill="#bfbfbf" stroke="black" points="28,-116.5 28,-137.5 98,-137.5 98,-116.5 28,-116.5"/>
<text text-anchor="middle" x="63" y="-124.5" font-family="Helvetica,sans-Serif" font-size="10.00">expblur.cpp</text>
</g>
<!-- Node2 -->
<g id="node3" class="node"><title>Node2</title>
<a xlink:href="expblur_8h.htm" target="_top" xlink:title="expblur.h">
<polygon fill="white" stroke="black" points="-0.5,-58.5 -0.5,-79.5 58.5,-79.5 58.5,-58.5 -0.5,-58.5"/>
<text text-anchor="middle" x="29" y="-66.5" font-family="Helvetica,sans-Serif" font-size="10.00">expblur.h</text>
</a>
</g>
<!-- Node1&#45;&gt;Node2 -->
<g id="edge2" class="edge"><title>Node1&#45;&gt;Node2</title>
<path fill="none" stroke="midnightblue" d="M56.7639,-116.362C52.1629,-108.513 45.7748,-97.6159 40.2861,-88.2527"/>
<polygon fill="midnightblue" stroke="midnightblue" points="43.2733,-86.4276 35.1966,-79.5707 37.2344,-89.9677 43.2733,-86.4276"/>
</g>
<!-- Node4 -->
<g id="node7" class="node"><title>Node4</title>
<polygon fill="white" stroke="#bfbfbf" points="75.5,-58.5 75.5,-79.5 120.5,-79.5 120.5,-58.5 75.5,-58.5"/>
<text text-anchor="middle" x="98" y="-66.5" font-family="Helvetica,sans-Serif" font-size="10.00">cmath</text>
</g>
<!-- Node1&#45;&gt;Node4 -->
<g id="edge6" class="edge"><title>Node1&#45;&gt;Node4</title>
<path fill="none" stroke="midnightblue" d="M69.4195,-116.362C74.1559,-108.513 80.7318,-97.6159 86.382,-88.2527"/>
<polygon fill="midnightblue" stroke="midnightblue" points="89.4511,-89.9409 91.6212,-79.5707 83.4578,-86.3242 89.4511,-89.9409"/>
</g>
<!-- Node3 -->
<g id="node5" class="node"><title>Node3</title>
<polygon fill="white" stroke="#bfbfbf" points="2,-0.5 2,-21.5 56,-21.5 56,-0.5 2,-0.5"/>
<text text-anchor="middle" x="29" y="-8.5" font-family="Helvetica,sans-Serif" font-size="10.00">QImage</text>
</g>
<!-- Node2&#45;&gt;Node3 -->
<g id="edge4" class="edge"><title>Node2&#45;&gt;Node3</title>
<path fill="none" stroke="midnightblue" d="M29,-58.3619C29,-50.9219 29,-40.7427 29,-31.7276"/>
<polygon fill="midnightblue" stroke="midnightblue" points="32.5001,-31.5706 29,-21.5707 25.5001,-31.5707 32.5001,-31.5706"/>
</g>
</g>
</svg>
