<?xml version="1.0" encoding="UTF-8" standalone="no"?>
<!DOCTYPE svg PUBLIC "-//W3C//DTD SVG 1.1//EN"
 "http://www.w3.org/Graphics/SVG/1.1/DTD/svg11.dtd">
<!-- Generated by graphviz version 2.26.3 (20100126.1600)
 -->
<!-- Title: externalapp.cpp Pages: 1 -->
<svg width="167pt" height="146pt"
 viewBox="0.00 0.00 167.00 146.00" xmlns="http://www.w3.org/2000/svg" xmlns:xlink="http://www.w3.org/1999/xlink">
<g id="graph1" class="graph" transform="scale(1 1) rotate(0) translate(4 142)">
<title>externalapp.cpp</title>
<polygon fill="white" stroke="white" points="-4,5 -4,-142 164,-142 164,5 -4,5"/>
<!-- Node1 -->
<g id="node1" class="node"><title>Node1</title>
<polygon fill="#bfbfbf" stroke="black" points="54,-116.5 54,-137.5 146,-137.5 146,-116.5 54,-116.5"/>
<text text-anchor="middle" x="100" y="-124.5" font-family="Helvetica,sans-Serif" font-size="10.00">externalapp.cpp</text>
</g>
<!-- Node2 -->
<g id="node3" class="node"><title>Node2</title>
<a xlink:href="externalapp_8h.htm" target="_top" xlink:title="externalapp.h">
<polygon fill="white" stroke="black" points="20.5,-58.5 20.5,-79.5 101.5,-79.5 101.5,-58.5 20.5,-58.5"/>
<text text-anchor="middle" x="61" y="-66.5" font-family="Helvetica,sans-Serif" font-size="10.00">externalapp.h</text>
</a>
</g>
<!-- Node1&#45;&gt;Node2 -->
<g id="edge2" class="edge"><title>Node1&#45;&gt;Node2</title>
<path fill="none" stroke="midnightblue" d="M92.8468,-116.362C87.5142,-108.431 80.0888,-97.3885 73.7494,-87.9606"/>
<polygon fill="midnightblue" stroke="midnightblue" points="76.5923,-85.9161 68.1079,-79.5707 70.7834,-89.8221 76.5923,-85.9161"/>
</g>
<!-- Node5 -->
<g id="node9" class="node"><title>Node5</title>
<polygon fill="white" stroke="#bfbfbf" points="118.5,-58.5 118.5,-79.5 159.5,-79.5 159.5,-58.5 118.5,-58.5"/>
<text text-anchor="middle" x="139" y="-66.5" font-family="Helvetica,sans-Serif" font-size="10.00">glib.h</text>
</g>
<!-- Node1&#45;&gt;Node5 -->
<g id="edge8" class="edge"><title>Node1&#45;&gt;Node5</title>
<path fill="none" stroke="midnightblue" d="M107.153,-116.362C112.486,-108.431 119.911,-97.3885 126.251,-87.9606"/>
<polygon fill="midnightblue" stroke="midnightblue" points="129.217,-89.8221 131.892,-79.5707 123.408,-85.9161 129.217,-89.8221"/>
</g>
<!-- Node3 -->
<g id="node5" class="node"><title>Node3</title>
<polygon fill="white" stroke="#bfbfbf" points="-0.5,-0.5 -0.5,-21.5 54.5,-21.5 54.5,-0.5 -0.5,-0.5"/>
<text text-anchor="middle" x="27" y="-8.5" font-family="Helvetica,sans-Serif" font-size="10.00">QObject</text>
</g>
<!-- Node2&#45;&gt;Node3 -->
<g id="edge4" class="edge"><title>Node2&#45;&gt;Node3</title>
<path fill="none" stroke="midnightblue" d="M54.7639,-58.3619C50.1629,-50.5131 43.7748,-39.6159 38.2861,-30.2527"/>
<polygon fill="midnightblue" stroke="midnightblue" points="41.2733,-28.4276 33.1966,-21.5707 35.2344,-31.9677 41.2733,-28.4276"/>
</g>
<!-- Node4 -->
<g id="node7" class="node"><title>Node4</title>
<polygon fill="white" stroke="#bfbfbf" points="72,-0.5 72,-21.5 118,-21.5 118,-0.5 72,-0.5"/>
<text text-anchor="middle" x="95" y="-8.5" font-family="Helvetica,sans-Serif" font-size="10.00">QUuid</text>
</g>
<!-- Node2&#45;&gt;Node4 -->
<g id="edge6" class="edge"><title>Node2&#45;&gt;Node4</title>
<path fill="none" stroke="midnightblue" d="M67.2361,-58.3619C71.8371,-50.5131 78.2252,-39.6159 83.7139,-30.2527"/>
<polygon fill="midnightblue" stroke="midnightblue" points="86.7656,-31.9677 88.8034,-21.5707 80.7267,-28.4276 86.7656,-31.9677"/>
</g>
</g>
</svg>
