<?xml version="1.0" encoding="UTF-8" standalone="no"?>
<!DOCTYPE svg PUBLIC "-//W3C//DTD SVG 1.1//EN"
 "http://www.w3.org/Graphics/SVG/1.1/DTD/svg11.dtd">
<!-- Generated by graphviz version 2.26.3 (20100126.1600)
 -->
<!-- Title: externalapp.h Pages: 1 -->
<svg width="2043pt" height="378pt"
 viewBox="0.00 0.00 2043.00 378.00" xmlns="http://www.w3.org/2000/svg" xmlns:xlink="http://www.w3.org/1999/xlink">
<g id="graph1" class="graph" transform="scale(1 1) rotate(0) translate(4 374)">
<title>externalapp.h</title>
<polygon fill="white" stroke="white" points="-4,5 -4,-374 2040,-374 2040,5 -4,5"/>
<!-- Node1 -->
<g id="node1" class="node"><title>Node1</title>
<polygon fill="#bfbfbf" stroke="black" points="1437.5,-348.5 1437.5,-369.5 1518.5,-369.5 1518.5,-348.5 1437.5,-348.5"/>
<text text-anchor="middle" x="1478" y="-356.5" font-family="Helvetica,sans-Serif" font-size="10.00">externalapp.h</text>
</g>
<!-- Node2 -->
<g id="node3" class="node"><title>Node2</title>
<a xlink:href="dimensionslauncher_8cpp.htm" target="_top" xlink:title="dimensionslauncher.cpp">
<polygon fill="white" stroke="black" points="70,-58.5 70,-79.5 200,-79.5 200,-58.5 70,-58.5"/>
<text text-anchor="middle" x="135" y="-66.5" font-family="Helvetica,sans-Serif" font-size="10.00">dimensionslauncher.cpp</text>
</a>
</g>
<!-- Node1&#45;&gt;Node2 -->
<g id="edge2" class="edge"><title>Node1&#45;&gt;Node2</title>
<path fill="none" stroke="midnightblue" d="M1427.03,-357.726C1166.94,-350.898 0,-316.185 0,-243 0,-243 0,-243 0,-185 0,-130.15 64.9009,-95.5949 104.703,-79.5603"/>
<polygon fill="midnightblue" stroke="midnightblue" points="1427.23,-361.232 1437.31,-357.994 1427.41,-354.235 1427.23,-361.232"/>
</g>
<!-- Node3 -->
<g id="node5" class="node"><title>Node3</title>
<a xlink:href="appeffector_8cpp.htm" target="_top" xlink:title="appeffector.cpp">
<polygon fill="white" stroke="black" points="72,-116.5 72,-137.5 162,-137.5 162,-116.5 72,-116.5"/>
<text text-anchor="middle" x="117" y="-124.5" font-family="Helvetica,sans-Serif" font-size="10.00">appeffector.cpp</text>
</a>
</g>
<!-- Node1&#45;&gt;Node3 -->
<g id="edge4" class="edge"><title>Node1&#45;&gt;Node3</title>
<path fill="none" stroke="midnightblue" d="M1427.06,-356.507C1227.4,-346.436 498.089,-306.752 273,-254 204.215,-237.879 168.113,-251.969 125,-196 111.901,-178.994 113.15,-152.279 115.127,-137.577"/>
<polygon fill="midnightblue" stroke="midnightblue" points="1427.1,-360.014 1437.26,-357.019 1427.45,-353.022 1427.1,-360.014"/>
</g>
<!-- Node4 -->
<g id="node7" class="node"><title>Node4</title>
<a xlink:href="webosapp_8h.htm" target="_top" xlink:title="webosapp.h">
<polygon fill="white" stroke="black" points="1473.5,-290.5 1473.5,-311.5 1546.5,-311.5 1546.5,-290.5 1473.5,-290.5"/>
<text text-anchor="middle" x="1510" y="-298.5" font-family="Helvetica,sans-Serif" font-size="10.00">webosapp.h</text>
</a>
</g>
<!-- Node1&#45;&gt;Node4 -->
<g id="edge6" class="edge"><title>Node1&#45;&gt;Node4</title>
<path fill="none" stroke="midnightblue" d="M1488.83,-339.373C1493.96,-330.068 1499.89,-319.32 1504.17,-311.571"/>
<polygon fill="midnightblue" stroke="midnightblue" points="1485.64,-337.915 1483.87,-348.362 1491.76,-341.297 1485.64,-337.915"/>
</g>
<!-- Node5 -->
<g id="node11" class="node"><title>Node5</title>
<a xlink:href="appmonitor_8h.htm" target="_top" xlink:title="appmonitor.h">
<polygon fill="white" stroke="black" points="1407,-232.5 1407,-253.5 1485,-253.5 1485,-232.5 1407,-232.5"/>
<text text-anchor="middle" x="1446" y="-240.5" font-family="Helvetica,sans-Serif" font-size="10.00">appmonitor.h</text>
</a>
</g>
<!-- Node1&#45;&gt;Node5 -->
<g id="edge110" class="edge"><title>Node1&#45;&gt;Node5</title>
<path fill="none" stroke="midnightblue" d="M1472.28,-338.338C1470.01,-330.139 1467.38,-320.625 1465,-312 1459.31,-291.399 1452.69,-267.333 1448.96,-253.758"/>
<polygon fill="midnightblue" stroke="midnightblue" points="1468.96,-339.47 1475,-348.174 1475.71,-337.602 1468.96,-339.47"/>
</g>
<!-- Node21 -->
<g id="node45" class="node"><title>Node21</title>
<a xlink:href="pagesaver_8cpp.htm" target="_top" xlink:title="pagesaver.cpp">
<polygon fill="white" stroke="black" points="1474,-116.5 1474,-137.5 1560,-137.5 1560,-116.5 1474,-116.5"/>
<text text-anchor="middle" x="1517" y="-124.5" font-family="Helvetica,sans-Serif" font-size="10.00">pagesaver.cpp</text>
</a>
</g>
<!-- Node1&#45;&gt;Node21 -->
<g id="edge114" class="edge"><title>Node1&#45;&gt;Node21</title>
<path fill="none" stroke="midnightblue" d="M1528.84,-351.448C1588.87,-340.088 1688.44,-313.254 1751,-254 1771.51,-234.574 1771.09,-223.625 1777,-196 1779.05,-186.438 1783.27,-181.504 1777,-174 1763.23,-157.521 1630.5,-140.003 1560.2,-131.783"/>
<polygon fill="midnightblue" stroke="midnightblue" points="1528.05,-348.035 1518.84,-353.267 1529.3,-354.922 1528.05,-348.035"/>
</g>
<!-- Node31 -->
<g id="node87" class="node"><title>Node31</title>
<a xlink:href="externalapp_8cpp.htm" target="_top" xlink:title="externalapp.cpp">
<polygon fill="white" stroke="black" points="1885,-290.5 1885,-311.5 1977,-311.5 1977,-290.5 1885,-290.5"/>
<text text-anchor="middle" x="1931" y="-298.5" font-family="Helvetica,sans-Serif" font-size="10.00">externalapp.cpp</text>
</a>
</g>
<!-- Node1&#45;&gt;Node31 -->
<g id="edge112" class="edge"><title>Node1&#45;&gt;Node31</title>
<path fill="none" stroke="midnightblue" d="M1528.67,-353.96C1603.66,-346.271 1748.52,-330.533 1871,-312 1875.5,-311.319 1880.19,-310.556 1884.86,-309.758"/>
<polygon fill="midnightblue" stroke="midnightblue" points="1528.16,-350.494 1518.56,-354.991 1528.87,-357.458 1528.16,-350.494"/>
</g>
<!-- Node4&#45;&gt;Node2 -->
<g id="edge8" class="edge"><title>Node4&#45;&gt;Node2</title>
<path fill="none" stroke="midnightblue" d="M1463.33,-300.151C1252.12,-296.184 390.99,-278.623 273,-254 168.623,-232.218 105.439,-235.816 63,-138 59.1082,-129.03 58.3446,-124.598 63,-116 72.2395,-98.9349 90.662,-87.0815 106.558,-79.5473"/>
<polygon fill="midnightblue" stroke="midnightblue" points="1463.4,-303.653 1473.46,-300.34 1463.53,-296.654 1463.4,-303.653"/>
</g>
<!-- Node4&#45;&gt;Node3 -->
<g id="edge10" class="edge"><title>Node4&#45;&gt;Node3</title>
<path fill="none" stroke="midnightblue" d="M1463.11,-300.284C1235.63,-296.432 253.504,-275.284 145,-196 126.107,-182.195 119.933,-153.418 117.937,-137.742"/>
<polygon fill="midnightblue" stroke="midnightblue" points="1463.31,-303.788 1473.36,-300.455 1463.42,-296.789 1463.31,-303.788"/>
</g>
<!-- Node4&#45;&gt;Node5 -->
<g id="edge12" class="edge"><title>Node4&#45;&gt;Node5</title>
<path fill="none" stroke="midnightblue" d="M1490.58,-283.405C1479.84,-273.668 1466.85,-261.891 1457.66,-253.571"/>
<polygon fill="midnightblue" stroke="midnightblue" points="1488.5,-286.24 1498.26,-290.362 1493.2,-281.053 1488.5,-286.24"/>
</g>
<!-- Node4&#45;&gt;Node21 -->
<g id="edge106" class="edge"><title>Node4&#45;&gt;Node21</title>
<path fill="none" stroke="midnightblue" d="M1556.68,-295.067C1643.93,-282.129 1817.76,-246.545 1758,-174 1745.51,-158.845 1626.16,-141.158 1560.24,-132.435"/>
<polygon fill="midnightblue" stroke="midnightblue" points="1556.14,-291.609 1546.74,-296.498 1557.14,-298.537 1556.14,-291.609"/>
</g>
<!-- Node28 -->
<g id="node69" class="node"><title>Node28</title>
<a xlink:href="pagerestore_8cpp.htm" target="_top" xlink:title="pagerestore.cpp">
<polygon fill="white" stroke="black" points="1821,-58.5 1821,-79.5 1915,-79.5 1915,-58.5 1821,-58.5"/>
<text text-anchor="middle" x="1868" y="-66.5" font-family="Helvetica,sans-Serif" font-size="10.00">pagerestore.cpp</text>
</a>
</g>
<!-- Node4&#45;&gt;Node28 -->
<g id="edge104" class="edge"><title>Node4&#45;&gt;Node28</title>
<path fill="none" stroke="midnightblue" d="M1557,-296.282C1617.94,-289.42 1720.06,-275.153 1751,-254 1817.19,-208.742 1853.75,-112.412 1864.56,-79.944"/>
<polygon fill="midnightblue" stroke="midnightblue" points="1556.42,-292.825 1546.86,-297.399 1557.19,-299.783 1556.42,-292.825"/>
</g>
<!-- Node30 -->
<g id="node81" class="node"><title>Node30</title>
<a xlink:href="webosapp_8cpp.htm" target="_top" xlink:title="webosapp.cpp">
<polygon fill="white" stroke="black" points="1665,-174.5 1665,-195.5 1749,-195.5 1749,-174.5 1665,-174.5"/>
<text text-anchor="middle" x="1707" y="-182.5" font-family="Helvetica,sans-Serif" font-size="10.00">webosapp.cpp</text>
</a>
</g>
<!-- Node4&#45;&gt;Node30 -->
<g id="edge108" class="edge"><title>Node4&#45;&gt;Node30</title>
<path fill="none" stroke="midnightblue" d="M1536.8,-285.219C1577.66,-261.161 1654.43,-215.953 1689.15,-195.512"/>
<polygon fill="midnightblue" stroke="midnightblue" points="1535.02,-282.205 1528.18,-290.295 1538.57,-288.237 1535.02,-282.205"/>
</g>
<!-- Node5&#45;&gt;Node2 -->
<g id="edge50" class="edge"><title>Node5&#45;&gt;Node2</title>
<path fill="none" stroke="midnightblue" d="M1396.76,-242.483C1173.5,-239.964 264.945,-227.789 214,-196 179.754,-174.631 192.899,-149.91 171,-116 162.636,-103.049 151.714,-89.1384 144.103,-79.8396"/>
<polygon fill="midnightblue" stroke="midnightblue" points="1396.83,-245.983 1406.87,-242.595 1396.91,-238.984 1396.83,-245.983"/>
</g>
<!-- Node5&#45;&gt;Node3 -->
<g id="edge94" class="edge"><title>Node5&#45;&gt;Node3</title>
<path fill="none" stroke="midnightblue" d="M1396.51,-242.278C1168.96,-238.819 231.824,-222.978 176,-196 150.03,-183.45 131.04,-153.583 122.321,-137.571"/>
<polygon fill="midnightblue" stroke="midnightblue" points="1396.76,-245.782 1406.81,-242.434 1396.86,-238.783 1396.76,-245.782"/>
</g>
<!-- Node6 -->
<g id="node13" class="node"><title>Node6</title>
<a xlink:href="ApplicationManager_8cpp.htm" target="_top" xlink:title="ApplicationManager.cpp">
<polygon fill="white" stroke="black" points="1314.5,-0.5 1314.5,-21.5 1445.5,-21.5 1445.5,-0.5 1314.5,-0.5"/>
<text text-anchor="middle" x="1380" y="-8.5" font-family="Helvetica,sans-Serif" font-size="10.00">ApplicationManager.cpp</text>
</a>
</g>
<!-- Node5&#45;&gt;Node6 -->
<g id="edge14" class="edge"><title>Node5&#45;&gt;Node6</title>
<path fill="none" stroke="midnightblue" d="M1396.65,-242.328C1188.16,-238.976 386.994,-220.755 315,-138 264.452,-79.8964 291.179,-94.5624 415,-58 500.611,-32.7203 1111.11,-16.9841 1314.36,-12.3998"/>
<polygon fill="midnightblue" stroke="midnightblue" points="1396.64,-245.828 1406.69,-242.485 1396.75,-238.829 1396.64,-245.828"/>
</g>
<!-- Node7 -->
<g id="node15" class="node"><title>Node7</title>
<a xlink:href="dimensionslauncher_8h.htm" target="_top" xlink:title="dimensionslauncher.h">
<polygon fill="white" stroke="black" points="738.5,-174.5 738.5,-195.5 857.5,-195.5 857.5,-174.5 738.5,-174.5"/>
<text text-anchor="middle" x="798" y="-182.5" font-family="Helvetica,sans-Serif" font-size="10.00">dimensionslauncher.h</text>
</a>
</g>
<!-- Node5&#45;&gt;Node7 -->
<g id="edge16" class="edge"><title>Node5&#45;&gt;Node7</title>
<path fill="none" stroke="midnightblue" d="M1396.82,-238.598C1279.8,-228.124 985.093,-201.746 857.935,-190.365"/>
<polygon fill="midnightblue" stroke="midnightblue" points="1396.65,-242.097 1406.92,-239.502 1397.28,-235.125 1396.65,-242.097"/>
</g>
<!-- Node10 -->
<g id="node22" class="node"><title>Node10</title>
<a xlink:href="quicklaunchbar_8cpp.htm" target="_top" xlink:title="quicklaunchbar.cpp">
<polygon fill="white" stroke="black" points="1101,-58.5 1101,-79.5 1207,-79.5 1207,-58.5 1101,-58.5"/>
<text text-anchor="middle" x="1154" y="-66.5" font-family="Helvetica,sans-Serif" font-size="10.00">quicklaunchbar.cpp</text>
</a>
</g>
<!-- Node5&#45;&gt;Node10 -->
<g id="edge92" class="edge"><title>Node5&#45;&gt;Node10</title>
<path fill="none" stroke="midnightblue" d="M1449.55,-222.446C1453.12,-194.359 1454.68,-144.258 1427,-116 1393.71,-82.0227 1262.86,-88.1548 1216,-80 1213.09,-79.494 1210.11,-78.9723 1207.1,-78.444"/>
<polygon fill="midnightblue" stroke="midnightblue" points="1446.08,-221.961 1448.09,-232.365 1453.01,-222.983 1446.08,-221.961"/>
</g>
<!-- Node20 -->
<g id="node43" class="node"><title>Node20</title>
<a xlink:href="appmonitor_8cpp.htm" target="_top" xlink:title="appmonitor.cpp">
<polygon fill="white" stroke="black" points="1329.5,-116.5 1329.5,-137.5 1418.5,-137.5 1418.5,-116.5 1329.5,-116.5"/>
<text text-anchor="middle" x="1374" y="-124.5" font-family="Helvetica,sans-Serif" font-size="10.00">appmonitor.cpp</text>
</a>
</g>
<!-- Node5&#45;&gt;Node20 -->
<g id="edge96" class="edge"><title>Node5&#45;&gt;Node20</title>
<path fill="none" stroke="midnightblue" d="M1434.07,-223.776C1418.77,-199.132 1392.78,-157.255 1380.63,-137.679"/>
<polygon fill="midnightblue" stroke="midnightblue" points="1431.11,-225.644 1439.36,-232.295 1437.06,-221.953 1431.11,-225.644"/>
</g>
<!-- Node5&#45;&gt;Node21 -->
<g id="edge100" class="edge"><title>Node5&#45;&gt;Node21</title>
<path fill="none" stroke="midnightblue" d="M1457.97,-223.45C1473.08,-198.764 1498.53,-157.168 1510.46,-137.679"/>
<polygon fill="midnightblue" stroke="midnightblue" points="1454.79,-221.939 1452.55,-232.295 1460.76,-225.593 1454.79,-221.939"/>
</g>
<!-- Node22 -->
<g id="node48" class="node"><title>Node22</title>
<a xlink:href="quicklaunchbar_8h.htm" target="_top" xlink:title="quicklaunchbar.h">
<polygon fill="white" stroke="black" points="1514.5,-174.5 1514.5,-195.5 1609.5,-195.5 1609.5,-174.5 1514.5,-174.5"/>
<text text-anchor="middle" x="1562" y="-182.5" font-family="Helvetica,sans-Serif" font-size="10.00">quicklaunchbar.h</text>
</a>
</g>
<!-- Node5&#45;&gt;Node22 -->
<g id="edge52" class="edge"><title>Node5&#45;&gt;Node22</title>
<path fill="none" stroke="midnightblue" d="M1476.14,-227.932C1496.41,-217.793 1522.65,-204.675 1540.76,-195.621"/>
<polygon fill="midnightblue" stroke="midnightblue" points="1474.39,-224.894 1467.01,-232.497 1477.52,-231.155 1474.39,-224.894"/>
</g>
<!-- Node5&#45;&gt;Node28 -->
<g id="edge98" class="edge"><title>Node5&#45;&gt;Node28</title>
<path fill="none" stroke="midnightblue" d="M1495.19,-233.114C1530.21,-225.227 1577.96,-212.727 1618,-196 1636.01,-188.477 1638.22,-182.041 1656,-174 1701.72,-153.327 1717.88,-159.958 1763,-138 1797.91,-121.008 1835.04,-94.2868 1854.42,-79.581"/>
<polygon fill="midnightblue" stroke="midnightblue" points="1494.22,-229.743 1485.21,-235.315 1495.73,-236.579 1494.22,-229.743"/>
</g>
<!-- Node5&#45;&gt;Node30 -->
<g id="edge102" class="edge"><title>Node5&#45;&gt;Node30</title>
<path fill="none" stroke="midnightblue" d="M1495.1,-232.089C1543.99,-221.225 1618.24,-204.724 1664.62,-194.417"/>
<polygon fill="midnightblue" stroke="midnightblue" points="1494.08,-228.731 1485.07,-234.317 1495.6,-235.564 1494.08,-228.731"/>
</g>
<!-- Node7&#45;&gt;Node2 -->
<g id="edge18" class="edge"><title>Node7&#45;&gt;Node2</title>
<path fill="none" stroke="midnightblue" d="M727.99,-181.348C608.646,-174.651 370.874,-159.128 290,-138 238.132,-124.449 181.672,-95.2912 153.365,-79.5664"/>
<polygon fill="midnightblue" stroke="midnightblue" points="727.937,-184.85 738.116,-181.911 728.326,-177.861 727.937,-184.85"/>
</g>
<!-- Node7&#45;&gt;Node3 -->
<g id="edge44" class="edge"><title>Node7&#45;&gt;Node3</title>
<path fill="none" stroke="midnightblue" d="M728.313,-179.065C588.807,-167.183 278.642,-140.767 162.273,-130.856"/>
<polygon fill="midnightblue" stroke="midnightblue" points="728.199,-182.568 738.46,-179.929 728.793,-175.593 728.199,-182.568"/>
</g>
<!-- Node8 -->
<g id="node18" class="node"><title>Node8</title>
<a xlink:href="dimensionsmain_8cpp.htm" target="_top" xlink:title="dimensionsmain.cpp">
<polygon fill="white" stroke="black" points="1463,-0.5 1463,-21.5 1575,-21.5 1575,-0.5 1463,-0.5"/>
<text text-anchor="middle" x="1519" y="-8.5" font-family="Helvetica,sans-Serif" font-size="10.00">dimensionsmain.cpp</text>
</a>
</g>
<!-- Node7&#45;&gt;Node8 -->
<g id="edge20" class="edge"><title>Node7&#45;&gt;Node8</title>
<path fill="none" stroke="midnightblue" d="M728.03,-183.159C602.519,-179.13 349.652,-167.419 323,-138 316.435,-130.754 316.379,-123.195 323,-116 408.394,-23.2147 1328.89,-37.7568 1454,-22 1456.84,-21.6425 1459.74,-21.2499 1462.67,-20.8324"/>
<polygon fill="midnightblue" stroke="midnightblue" points="728.201,-186.666 738.306,-183.481 728.42,-179.67 728.201,-186.666"/>
</g>
<!-- Node9 -->
<g id="node20" class="node"><title>Node9</title>
<a xlink:href="pagetabbar_8cpp.htm" target="_top" xlink:title="pagetabbar.cpp">
<polygon fill="white" stroke="black" points="331.5,-116.5 331.5,-137.5 420.5,-137.5 420.5,-116.5 331.5,-116.5"/>
<text text-anchor="middle" x="376" y="-124.5" font-family="Helvetica,sans-Serif" font-size="10.00">pagetabbar.cpp</text>
</a>
</g>
<!-- Node7&#45;&gt;Node9 -->
<g id="edge22" class="edge"><title>Node7&#45;&gt;Node9</title>
<path fill="none" stroke="midnightblue" d="M728.212,-177.229C654.809,-168.765 536.019,-154.246 434,-138 429.648,-137.307 425.121,-136.536 420.602,-135.734"/>
<polygon fill="midnightblue" stroke="midnightblue" points="727.928,-180.719 738.262,-178.382 728.726,-173.765 727.928,-180.719"/>
</g>
<!-- Node7&#45;&gt;Node10 -->
<g id="edge24" class="edge"><title>Node7&#45;&gt;Node10</title>
<path fill="none" stroke="midnightblue" d="M727.911,-179.729C637.138,-172.178 488.515,-157.067 472,-138 465.598,-130.609 465.328,-123.148 472,-116 493.385,-93.0902 943.883,-75.986 1100.73,-70.7063"/>
<polygon fill="midnightblue" stroke="midnightblue" points="727.884,-183.238 738.137,-180.568 728.457,-176.262 727.884,-183.238"/>
</g>
<!-- Node11 -->
<g id="node24" class="node"><title>Node11</title>
<a xlink:href="icon_8cpp.htm" target="_top" xlink:title="icon.cpp">
<polygon fill="white" stroke="black" points="1225,-58.5 1225,-79.5 1281,-79.5 1281,-58.5 1225,-58.5"/>
<text text-anchor="middle" x="1253" y="-66.5" font-family="Helvetica,sans-Serif" font-size="10.00">icon.cpp</text>
</a>
</g>
<!-- Node7&#45;&gt;Node11 -->
<g id="edge26" class="edge"><title>Node7&#45;&gt;Node11</title>
<path fill="none" stroke="midnightblue" d="M728.466,-178.561C646.448,-170.251 519.357,-154.843 505,-138 498.657,-130.559 498.263,-123.087 505,-116 559.5,-58.6702 1138.04,-93.3656 1216,-80 1218.91,-79.5018 1221.91,-78.8499 1224.88,-78.1118"/>
<polygon fill="midnightblue" stroke="midnightblue" points="728.183,-182.05 738.482,-179.564 728.881,-175.085 728.183,-182.05"/>
</g>
<!-- Node12 -->
<g id="node26" class="node"><title>Node12</title>
<a xlink:href="alphabetpage_8cpp.htm" target="_top" xlink:title="alphabetpage.cpp">
<polygon fill="white" stroke="black" points="513.5,-116.5 513.5,-137.5 614.5,-137.5 614.5,-116.5 513.5,-116.5"/>
<text text-anchor="middle" x="564" y="-124.5" font-family="Helvetica,sans-Serif" font-size="10.00">alphabetpage.cpp</text>
</a>
</g>
<!-- Node7&#45;&gt;Node12 -->
<g id="edge28" class="edge"><title>Node7&#45;&gt;Node12</title>
<path fill="none" stroke="midnightblue" d="M745.861,-172.077C703.883,-161.672 645.62,-147.231 606.455,-137.523"/>
<polygon fill="midnightblue" stroke="midnightblue" points="745.076,-175.488 755.624,-174.497 746.76,-168.694 745.076,-175.488"/>
</g>
<!-- Node13 -->
<g id="node28" class="node"><title>Node13</title>
<a xlink:href="reorderableiconlayout_8cpp.htm" target="_top" xlink:title="reorderableiconlayout.cpp">
<polygon fill="white" stroke="black" points="632,-116.5 632,-137.5 770,-137.5 770,-116.5 632,-116.5"/>
<text text-anchor="middle" x="701" y="-124.5" font-family="Helvetica,sans-Serif" font-size="10.00">reorderableiconlayout.cpp</text>
</a>
</g>
<!-- Node7&#45;&gt;Node13 -->
<g id="edge30" class="edge"><title>Node7&#45;&gt;Node13</title>
<path fill="none" stroke="midnightblue" d="M771.41,-169.101C754.627,-159.066 733.413,-146.381 718.679,-137.571"/>
<polygon fill="midnightblue" stroke="midnightblue" points="769.83,-172.234 780.209,-174.362 773.422,-166.226 769.83,-172.234"/>
</g>
<!-- Node14 -->
<g id="node30" class="node"><title>Node14</title>
<a xlink:href="page_8cpp.htm" target="_top" xlink:title="page.cpp">
<polygon fill="white" stroke="black" points="1299,-58.5 1299,-79.5 1359,-79.5 1359,-58.5 1299,-58.5"/>
<text text-anchor="middle" x="1329" y="-66.5" font-family="Helvetica,sans-Serif" font-size="10.00">page.cpp</text>
</a>
</g>
<!-- Node7&#45;&gt;Node14 -->
<g id="edge32" class="edge"><title>Node7&#45;&gt;Node14</title>
<path fill="none" stroke="midnightblue" d="M797.761,-164.004C798.807,-148.254 803.032,-127.506 817,-116 857.683,-82.4892 1238.1,-89.1995 1290,-80 1292.91,-79.4843 1295.91,-78.8417 1298.9,-78.1278"/>
<polygon fill="midnightblue" stroke="midnightblue" points="794.252,-164.29 797.467,-174.385 801.249,-164.488 794.252,-164.29"/>
</g>
<!-- Node15 -->
<g id="node32" class="node"><title>Node15</title>
<a xlink:href="pagemovement_8cpp.htm" target="_top" xlink:title="pagemovement.cpp">
<polygon fill="white" stroke="black" points="825.5,-116.5 825.5,-137.5 934.5,-137.5 934.5,-116.5 825.5,-116.5"/>
<text text-anchor="middle" x="880" y="-124.5" font-family="Helvetica,sans-Serif" font-size="10.00">pagemovement.cpp</text>
</a>
</g>
<!-- Node7&#45;&gt;Node15 -->
<g id="edge34" class="edge"><title>Node7&#45;&gt;Node15</title>
<path fill="none" stroke="midnightblue" d="M821.27,-168.541C835.328,-158.597 852.83,-146.218 865.055,-137.571"/>
<polygon fill="midnightblue" stroke="midnightblue" points="819.183,-165.73 813.04,-174.362 823.225,-171.445 819.183,-165.73"/>
</g>
<!-- Node16 -->
<g id="node34" class="node"><title>Node16</title>
<a xlink:href="reorderablepage_8cpp.htm" target="_top" xlink:title="reorderablepage.cpp">
<polygon fill="white" stroke="black" points="1376.5,-58.5 1376.5,-79.5 1491.5,-79.5 1491.5,-58.5 1376.5,-58.5"/>
<text text-anchor="middle" x="1434" y="-66.5" font-family="Helvetica,sans-Serif" font-size="10.00">reorderablepage.cpp</text>
</a>
</g>
<!-- Node7&#45;&gt;Node16 -->
<g id="edge36" class="edge"><title>Node7&#45;&gt;Node16</title>
<path fill="none" stroke="midnightblue" d="M847.948,-171.648C876.362,-163.355 912.295,-151.68 943,-138 960.826,-130.058 962.408,-121.931 981,-116 1145.57,-63.5048 1196.69,-102.214 1368,-80 1370.76,-79.6415 1373.59,-79.2535 1376.44,-78.8448"/>
<polygon fill="midnightblue" stroke="midnightblue" points="846.878,-168.314 838.233,-174.438 848.81,-175.042 846.878,-168.314"/>
</g>
<!-- Node17 -->
<g id="node36" class="node"><title>Node17</title>
<a xlink:href="overlaylayer_8cpp.htm" target="_top" xlink:title="overlaylayer.cpp">
<polygon fill="white" stroke="black" points="990,-116.5 990,-137.5 1084,-137.5 1084,-116.5 990,-116.5"/>
<text text-anchor="middle" x="1037" y="-124.5" font-family="Helvetica,sans-Serif" font-size="10.00">overlaylayer.cpp</text>
</a>
</g>
<!-- Node7&#45;&gt;Node17 -->
<g id="edge38" class="edge"><title>Node7&#45;&gt;Node17</title>
<path fill="none" stroke="midnightblue" d="M851.253,-172.077C894.128,-161.672 953.636,-147.231 993.638,-137.523"/>
<polygon fill="midnightblue" stroke="midnightblue" points="850.174,-168.737 841.281,-174.497 851.824,-175.54 850.174,-168.737"/>
</g>
<!-- Node18 -->
<g id="node38" class="node"><title>Node18</title>
<a xlink:href="vcamera_8cpp.htm" target="_top" xlink:title="vcamera.cpp">
<polygon fill="white" stroke="black" points="1101.5,-116.5 1101.5,-137.5 1178.5,-137.5 1178.5,-116.5 1101.5,-116.5"/>
<text text-anchor="middle" x="1140" y="-124.5" font-family="Helvetica,sans-Serif" font-size="10.00">vcamera.cpp</text>
</a>
</g>
<!-- Node7&#45;&gt;Node18 -->
<g id="edge40" class="edge"><title>Node7&#45;&gt;Node18</title>
<path fill="none" stroke="midnightblue" d="M867.656,-175.345C927.592,-166.693 1016.27,-153.071 1093,-138 1095.71,-137.467 1098.51,-136.889 1101.32,-136.285"/>
<polygon fill="midnightblue" stroke="midnightblue" points="866.952,-171.91 857.551,-176.796 867.947,-178.839 866.952,-171.91"/>
</g>
<!-- Node19 -->
<g id="node40" class="node"><title>Node19</title>
<a xlink:href="groupanchoritem_8cpp.htm" target="_top" xlink:title="groupanchoritem.cpp">
<polygon fill="white" stroke="black" points="1196,-116.5 1196,-137.5 1312,-137.5 1312,-116.5 1196,-116.5"/>
<text text-anchor="middle" x="1254" y="-124.5" font-family="Helvetica,sans-Serif" font-size="10.00">groupanchoritem.cpp</text>
</a>
</g>
<!-- Node7&#45;&gt;Node19 -->
<g id="edge42" class="edge"><title>Node7&#45;&gt;Node19</title>
<path fill="none" stroke="midnightblue" d="M867.928,-177.457C945.888,-168.836 1075.66,-153.859 1187,-138 1189.92,-137.584 1192.9,-137.145 1195.92,-136.691"/>
<polygon fill="midnightblue" stroke="midnightblue" points="867.304,-174.004 857.747,-178.579 868.071,-180.962 867.304,-174.004"/>
</g>
<!-- Node7&#45;&gt;Node20 -->
<g id="edge46" class="edge"><title>Node7&#45;&gt;Node20</title>
<path fill="none" stroke="midnightblue" d="M867.913,-181.281C968.502,-175.349 1159.71,-161.904 1321,-138 1323.7,-137.6 1326.46,-137.15 1329.25,-136.666"/>
<polygon fill="midnightblue" stroke="midnightblue" points="867.654,-177.79 857.874,-181.865 868.061,-184.778 867.654,-177.79"/>
</g>
<!-- Node7&#45;&gt;Node21 -->
<g id="edge48" class="edge"><title>Node7&#45;&gt;Node21</title>
<path fill="none" stroke="midnightblue" d="M868.108,-180.841C984.388,-173.702 1224.42,-157.937 1427,-138 1442.2,-136.504 1458.8,-134.563 1473.56,-132.728"/>
<polygon fill="midnightblue" stroke="midnightblue" points="867.69,-177.36 857.923,-181.464 868.118,-184.347 867.69,-177.36"/>
</g>
<!-- Node22&#45;&gt;Node10 -->
<g id="edge86" class="edge"><title>Node22&#45;&gt;Node10</title>
<path fill="none" stroke="midnightblue" d="M1571.36,-164.778C1576.88,-149.495 1580.74,-128.996 1569,-116 1516.15,-57.4836 1294.1,-90.8948 1216,-80 1213.08,-79.5922 1210.08,-79.148 1207.06,-78.6797"/>
<polygon fill="midnightblue" stroke="midnightblue" points="1567.98,-163.788 1567.44,-174.369 1574.46,-166.435 1567.98,-163.788"/>
</g>
<!-- Node22&#45;&gt;Node16 -->
<g id="edge88" class="edge"><title>Node22&#45;&gt;Node16</title>
<path fill="none" stroke="midnightblue" d="M1583.65,-167.535C1598.87,-153.121 1614.47,-132.439 1602,-116 1588.5,-98.205 1534.79,-85.3131 1491.68,-77.5818"/>
<polygon fill="midnightblue" stroke="midnightblue" points="1581.03,-165.186 1575.88,-174.446 1585.68,-170.417 1581.03,-165.186"/>
</g>
<!-- Node22&#45;&gt;Node21 -->
<g id="edge90" class="edge"><title>Node22&#45;&gt;Node21</title>
<path fill="none" stroke="midnightblue" d="M1547.45,-166.25C1540.08,-156.75 1531.4,-145.565 1525.2,-137.571"/>
<polygon fill="midnightblue" stroke="midnightblue" points="1544.85,-168.607 1553.75,-174.362 1550.38,-164.316 1544.85,-168.607"/>
</g>
<!-- Node23 -->
<g id="node50" class="node"><title>Node23</title>
<a xlink:href="dimensionsmain_8h.htm" target="_top" xlink:title="dimensionsmain.h">
<polygon fill="white" stroke="black" points="1653.5,-116.5 1653.5,-137.5 1754.5,-137.5 1754.5,-116.5 1653.5,-116.5"/>
<text text-anchor="middle" x="1704" y="-124.5" font-family="Helvetica,sans-Serif" font-size="10.00">dimensionsmain.h</text>
</a>
</g>
<!-- Node22&#45;&gt;Node23 -->
<g id="edge54" class="edge"><title>Node22&#45;&gt;Node23</title>
<path fill="none" stroke="midnightblue" d="M1597.22,-170.615C1622.25,-160.389 1655.33,-146.88 1678,-137.621"/>
<polygon fill="midnightblue" stroke="midnightblue" points="1595.65,-167.475 1587.72,-174.497 1598.3,-173.955 1595.65,-167.475"/>
</g>
<!-- Node23&#45;&gt;Node2 -->
<g id="edge58" class="edge"><title>Node23&#45;&gt;Node2</title>
<path fill="none" stroke="midnightblue" d="M1643.33,-121.426C1620.1,-119.457 1593.34,-117.389 1569,-116 1041.16,-85.8632 402.841,-73.3911 200.082,-70.0084"/>
<polygon fill="midnightblue" stroke="midnightblue" points="1643.13,-124.922 1653.4,-122.291 1643.73,-117.948 1643.13,-124.922"/>
</g>
<!-- Node23&#45;&gt;Node6 -->
<g id="edge56" class="edge"><title>Node23&#45;&gt;Node6</title>
<path fill="none" stroke="midnightblue" d="M1653.74,-113.749C1622.88,-105.148 1582.74,-93.1239 1548,-80 1526.05,-71.7068 1521.6,-67.1717 1500,-58 1468.9,-44.7958 1432.74,-30.8164 1408.31,-21.5702"/>
<polygon fill="midnightblue" stroke="midnightblue" points="1652.85,-117.133 1663.42,-116.419 1654.71,-110.385 1652.85,-117.133"/>
</g>
<!-- Node23&#45;&gt;Node8 -->
<g id="edge60" class="edge"><title>Node23&#45;&gt;Node8</title>
<path fill="none" stroke="midnightblue" d="M1648.36,-113.585C1624.66,-106.159 1597.57,-95.2699 1576,-80 1553.3,-63.9275 1534.48,-36.5968 1525.21,-21.6098"/>
<polygon fill="midnightblue" stroke="midnightblue" points="1647.36,-116.938 1657.94,-116.459 1649.37,-110.233 1647.36,-116.938"/>
</g>
<!-- Node23&#45;&gt;Node10 -->
<g id="edge74" class="edge"><title>Node23&#45;&gt;Node10</title>
<path fill="none" stroke="midnightblue" d="M1643.23,-120.301C1629.67,-118.846 1615.35,-117.342 1602,-116 1430.56,-98.7624 1386.75,-103.069 1216,-80 1213.07,-79.6048 1210.08,-79.1706 1207.05,-78.71"/>
<polygon fill="midnightblue" stroke="midnightblue" points="1643.11,-123.808 1653.43,-121.401 1643.86,-116.849 1643.11,-123.808"/>
</g>
<!-- Node23&#45;&gt;Node11 -->
<g id="edge76" class="edge"><title>Node23&#45;&gt;Node11</title>
<path fill="none" stroke="midnightblue" d="M1643.35,-120.399C1532.53,-108.297 1307.05,-83.4751 1290,-80 1287.11,-79.4113 1284.12,-78.7 1281.15,-77.9256"/>
<polygon fill="midnightblue" stroke="midnightblue" points="1643.07,-123.888 1653.39,-121.494 1643.82,-116.93 1643.07,-123.888"/>
</g>
<!-- Node23&#45;&gt;Node14 -->
<g id="edge78" class="edge"><title>Node23&#45;&gt;Node14</title>
<path fill="none" stroke="midnightblue" d="M1643.49,-119.54C1561.44,-109.252 1419.26,-90.7611 1368,-80 1365.11,-79.3929 1362.12,-78.6889 1359.13,-77.9362"/>
<polygon fill="midnightblue" stroke="midnightblue" points="1643.07,-123.015 1653.43,-120.783 1643.94,-116.069 1643.07,-123.015"/>
</g>
<!-- Node23&#45;&gt;Node16 -->
<g id="edge80" class="edge"><title>Node23&#45;&gt;Node16</title>
<path fill="none" stroke="midnightblue" d="M1645.06,-114.339C1596.54,-103.916 1528.56,-89.3126 1482.99,-79.5231"/>
<polygon fill="midnightblue" stroke="midnightblue" points="1644.59,-117.818 1655.11,-116.497 1646.06,-110.974 1644.59,-117.818"/>
</g>
<!-- Node24 -->
<g id="node55" class="node"><title>Node24</title>
<a xlink:href="OverlayWindowManager_8h.htm" target="_top" xlink:title="OverlayWindowManager.h">
<polygon fill="white" stroke="black" points="1585,-58.5 1585,-79.5 1727,-79.5 1727,-58.5 1585,-58.5"/>
<text text-anchor="middle" x="1656" y="-66.5" font-family="Helvetica,sans-Serif" font-size="10.00">OverlayWindowManager.h</text>
</a>
</g>
<!-- Node23&#45;&gt;Node24 -->
<g id="edge62" class="edge"><title>Node23&#45;&gt;Node24</title>
<path fill="none" stroke="midnightblue" d="M1688.72,-108.541C1680.81,-98.9786 1671.43,-87.6467 1664.75,-79.5707"/>
<polygon fill="midnightblue" stroke="midnightblue" points="1686.12,-110.889 1695.2,-116.362 1691.52,-106.426 1686.12,-110.889"/>
</g>
<!-- Node23&#45;&gt;Node28 -->
<g id="edge82" class="edge"><title>Node23&#45;&gt;Node28</title>
<path fill="none" stroke="midnightblue" d="M1743.18,-113.144C1772.36,-102.823 1811.61,-88.9439 1838.25,-79.5231"/>
<polygon fill="midnightblue" stroke="midnightblue" points="1741.96,-109.863 1733.7,-116.497 1744.29,-116.462 1741.96,-109.863"/>
</g>
<!-- Node29 -->
<g id="node71" class="node"><title>Node29</title>
<a xlink:href="thing_8cpp.htm" target="_top" xlink:title="thing.cpp">
<polygon fill="white" stroke="black" points="1744.5,-58.5 1744.5,-79.5 1803.5,-79.5 1803.5,-58.5 1744.5,-58.5"/>
<text text-anchor="middle" x="1774" y="-66.5" font-family="Helvetica,sans-Serif" font-size="10.00">thing.cpp</text>
</a>
</g>
<!-- Node23&#45;&gt;Node29 -->
<g id="edge84" class="edge"><title>Node23&#45;&gt;Node29</title>
<path fill="none" stroke="midnightblue" d="M1724.55,-109.975C1736.43,-100.132 1751,-88.0545 1761.24,-79.5707"/>
<polygon fill="midnightblue" stroke="midnightblue" points="1722.31,-107.287 1716.84,-116.362 1726.77,-112.677 1722.31,-107.287"/>
</g>
<!-- Node24&#45;&gt;Node6 -->
<g id="edge64" class="edge"><title>Node24&#45;&gt;Node6</title>
<path fill="none" stroke="midnightblue" d="M1596.06,-56.4045C1546.44,-45.977 1476.76,-31.333 1430.08,-21.5231"/>
<polygon fill="midnightblue" stroke="midnightblue" points="1595.51,-59.8652 1606.02,-58.4966 1596.95,-53.0148 1595.51,-59.8652"/>
</g>
<!-- Node24&#45;&gt;Node8 -->
<g id="edge68" class="edge"><title>Node24&#45;&gt;Node8</title>
<path fill="none" stroke="midnightblue" d="M1621.7,-54.4794C1597.58,-44.2695 1565.86,-30.8386 1544.09,-21.6212"/>
<polygon fill="midnightblue" stroke="midnightblue" points="1620.62,-57.821 1631.19,-58.4966 1623.35,-51.3749 1620.62,-57.821"/>
</g>
<!-- Node25 -->
<g id="node58" class="node"><title>Node25</title>
<a xlink:href="SystemUiController_8cpp.htm" target="_top" xlink:title="SystemUiController.cpp">
<polygon fill="white" stroke="black" points="1592.5,-0.5 1592.5,-21.5 1719.5,-21.5 1719.5,-0.5 1592.5,-0.5"/>
<text text-anchor="middle" x="1656" y="-8.5" font-family="Helvetica,sans-Serif" font-size="10.00">SystemUiController.cpp</text>
</a>
</g>
<!-- Node24&#45;&gt;Node25 -->
<g id="edge66" class="edge"><title>Node24&#45;&gt;Node25</title>
<path fill="none" stroke="midnightblue" d="M1656,-48.1906C1656,-39.1684 1656,-28.9941 1656,-21.5707"/>
<polygon fill="midnightblue" stroke="midnightblue" points="1652.5,-48.3619 1656,-58.3619 1659.5,-48.3619 1652.5,-48.3619"/>
</g>
<!-- Node26 -->
<g id="node61" class="node"><title>Node26</title>
<a xlink:href="OverlayWindowManager_8cpp.htm" target="_top" xlink:title="OverlayWindowManager.cpp">
<polygon fill="white" stroke="black" points="1736.5,-0.5 1736.5,-21.5 1889.5,-21.5 1889.5,-0.5 1736.5,-0.5"/>
<text text-anchor="middle" x="1813" y="-8.5" font-family="Helvetica,sans-Serif" font-size="10.00">OverlayWindowManager.cpp</text>
</a>
</g>
<!-- Node24&#45;&gt;Node26 -->
<g id="edge70" class="edge"><title>Node24&#45;&gt;Node26</title>
<path fill="none" stroke="midnightblue" d="M1693.87,-55.0095C1721.77,-44.7023 1759.12,-30.903 1784.52,-21.5231"/>
<polygon fill="midnightblue" stroke="midnightblue" points="1692.6,-51.7481 1684.43,-58.4966 1695.02,-58.3143 1692.6,-51.7481"/>
</g>
<!-- Node27 -->
<g id="node63" class="node"><title>Node27</title>
<a xlink:href="WindowServerLuna_8cpp.htm" target="_top" xlink:title="WindowServerLuna.cpp">
<polygon fill="white" stroke="black" points="1907,-0.5 1907,-21.5 2035,-21.5 2035,-0.5 1907,-0.5"/>
<text text-anchor="middle" x="1971" y="-8.5" font-family="Helvetica,sans-Serif" font-size="10.00">WindowServerLuna.cpp</text>
</a>
</g>
<!-- Node24&#45;&gt;Node27 -->
<g id="edge72" class="edge"><title>Node24&#45;&gt;Node27</title>
<path fill="none" stroke="midnightblue" d="M1722.99,-56.6648C1779.71,-46.222 1860.13,-31.415 1913.85,-21.5231"/>
<polygon fill="midnightblue" stroke="midnightblue" points="1722.24,-53.2436 1713.04,-58.4966 1723.51,-60.1279 1722.24,-53.2436"/>
</g>
</g>
</svg>
