<?xml version="1.0" encoding="UTF-8" standalone="no"?>
<!DOCTYPE svg PUBLIC "-//W3C//DTD SVG 1.1//EN"
 "http://www.w3.org/Graphics/SVG/1.1/DTD/svg11.dtd">
<!-- Generated by graphviz version 2.26.3 (20100126.1600)
 -->
<!-- Title: filenames.h Pages: 1 -->
<svg width="192pt" height="88pt"
 viewBox="0.00 0.00 192.00 88.00" xmlns="http://www.w3.org/2000/svg" xmlns:xlink="http://www.w3.org/1999/xlink">
<g id="graph1" class="graph" transform="scale(1 1) rotate(0) translate(4 84)">
<title>filenames.h</title>
<polygon fill="white" stroke="white" points="-4,5 -4,-84 189,-84 189,5 -4,5"/>
<!-- Node1 -->
<g id="node1" class="node"><title>Node1</title>
<polygon fill="#bfbfbf" stroke="black" points="58,-58.5 58,-79.5 128,-79.5 128,-58.5 58,-58.5"/>
<text text-anchor="middle" x="93" y="-66.5" font-family="Helvetica,sans-Serif" font-size="10.00">filenames.h</text>
</g>
<!-- Node2 -->
<g id="node3" class="node"><title>Node2</title>
<a xlink:href="pagesaver_8cpp.htm" target="_top" xlink:title="pagesaver.cpp">
<polygon fill="white" stroke="black" points="0,-0.5 0,-21.5 86,-21.5 86,-0.5 0,-0.5"/>
<text text-anchor="middle" x="43" y="-8.5" font-family="Helvetica,sans-Serif" font-size="10.00">pagesaver.cpp</text>
</a>
</g>
<!-- Node1&#45;&gt;Node2 -->
<g id="edge2" class="edge"><title>Node1&#45;&gt;Node2</title>
<path fill="none" stroke="midnightblue" d="M77.0868,-50.5407C68.8436,-40.9786 59.0747,-29.6467 52.1126,-21.5707"/>
<polygon fill="midnightblue" stroke="midnightblue" points="74.6489,-53.0731 83.8292,-58.3619 79.9507,-48.5025 74.6489,-53.0731"/>
</g>
<!-- Node3 -->
<g id="node5" class="node"><title>Node3</title>
<a xlink:href="filenames_8cpp.htm" target="_top" xlink:title="filenames.cpp">
<polygon fill="white" stroke="black" points="103.5,-0.5 103.5,-21.5 184.5,-21.5 184.5,-0.5 103.5,-0.5"/>
<text text-anchor="middle" x="144" y="-8.5" font-family="Helvetica,sans-Serif" font-size="10.00">filenames.cpp</text>
</a>
</g>
<!-- Node1&#45;&gt;Node3 -->
<g id="edge4" class="edge"><title>Node1&#45;&gt;Node3</title>
<path fill="none" stroke="midnightblue" d="M108.977,-50.8299C117.438,-41.2078 127.532,-29.7282 134.705,-21.5707"/>
<polygon fill="midnightblue" stroke="midnightblue" points="106.329,-48.541 102.354,-58.3619 111.586,-53.1634 106.329,-48.541"/>
</g>
</g>
</svg>
