<?xml version="1.0" encoding="UTF-8" standalone="no"?>
<!DOCTYPE svg PUBLIC "-//W3C//DTD SVG 1.1//EN"
 "http://www.w3.org/Graphics/SVG/1.1/DTD/svg11.dtd">
<!-- Generated by graphviz version 2.26.3 (20100126.1600)
 -->
<!-- Title: FlickGesture.h Pages: 1 -->
<svg width="3332pt" height="88pt"
 viewBox="0.00 0.00 3332.00 88.00" xmlns="http://www.w3.org/2000/svg" xmlns:xlink="http://www.w3.org/1999/xlink">
<g id="graph1" class="graph" transform="scale(1 1) rotate(0) translate(4 84)">
<title>FlickGesture.h</title>
<polygon fill="white" stroke="white" points="-4,5 -4,-84 3329,-84 3329,5 -4,5"/>
<!-- Node1 -->
<g id="node1" class="node"><title>Node1</title>
<polygon fill="#bfbfbf" stroke="black" points="1710.5,-58.5 1710.5,-79.5 1793.5,-79.5 1793.5,-58.5 1710.5,-58.5"/>
<text text-anchor="middle" x="1752" y="-66.5" font-family="Helvetica,sans-Serif" font-size="10.00">FlickGesture.h</text>
</g>
<!-- Node2 -->
<g id="node3" class="node"><title>Node2</title>
<a xlink:href="FlickGestureRecognizer_8cpp.htm" target="_top" xlink:title="FlickGestureRecognizer.cpp">
<polygon fill="white" stroke="black" points="-0.5,-0.5 -0.5,-21.5 148.5,-21.5 148.5,-0.5 -0.5,-0.5"/>
<text text-anchor="middle" x="74" y="-8.5" font-family="Helvetica,sans-Serif" font-size="10.00">FlickGestureRecognizer.cpp</text>
</a>
</g>
<!-- Node1&#45;&gt;Node2 -->
<g id="edge2" class="edge"><title>Node1&#45;&gt;Node2</title>
<path fill="none" stroke="midnightblue" d="M1700.09,-68.1859C1461.32,-64.332 467.177,-47.0578 157,-22 154.247,-21.7776 151.446,-21.5276 148.618,-21.2554"/>
<polygon fill="midnightblue" stroke="midnightblue" points="1700.17,-71.6877 1710.23,-68.3489 1700.29,-64.6886 1700.17,-71.6877"/>
</g>
<!-- Node3 -->
<g id="node5" class="node"><title>Node3</title>
<a xlink:href="WebosTapGestureRecognizer_8cpp.htm" target="_top" xlink:title="WebosTapGestureRecognizer.cpp">
<polygon fill="white" stroke="black" points="165.5,-0.5 165.5,-21.5 344.5,-21.5 344.5,-0.5 165.5,-0.5"/>
<text text-anchor="middle" x="255" y="-8.5" font-family="Helvetica,sans-Serif" font-size="10.00">WebosTapGestureRecognizer.cpp</text>
</a>
</g>
<!-- Node1&#45;&gt;Node3 -->
<g id="edge4" class="edge"><title>Node1&#45;&gt;Node3</title>
<path fill="none" stroke="midnightblue" d="M1700.27,-68.7203C1516.51,-67.4164 878.156,-60.2357 353,-22 350.268,-21.8011 347.495,-21.5841 344.696,-21.352"/>
<polygon fill="midnightblue" stroke="midnightblue" points="1700.43,-72.2213 1710.45,-68.7897 1700.47,-65.2215 1700.43,-72.2213"/>
</g>
<!-- Node4 -->
<g id="node7" class="node"><title>Node4</title>
<a xlink:href="WindowServer_8cpp.htm" target="_top" xlink:title="WindowServer.cpp">
<polygon fill="white" stroke="black" points="361.5,-0.5 361.5,-21.5 466.5,-21.5 466.5,-0.5 361.5,-0.5"/>
<text text-anchor="middle" x="414" y="-8.5" font-family="Helvetica,sans-Serif" font-size="10.00">WindowServer.cpp</text>
</a>
</g>
<!-- Node1&#45;&gt;Node4 -->
<g id="edge6" class="edge"><title>Node1&#45;&gt;Node4</title>
<path fill="none" stroke="midnightblue" d="M1700.29,-68.0755C1492.6,-64.2107 718.613,-48.3143 475,-22 472.218,-21.6995 469.372,-21.3466 466.504,-20.955"/>
<polygon fill="midnightblue" stroke="midnightblue" points="1700.26,-71.5754 1710.32,-68.2609 1700.39,-64.5766 1700.26,-71.5754"/>
</g>
<!-- Node5 -->
<g id="node9" class="node"><title>Node5</title>
<a xlink:href="IMEView_8cpp.htm" target="_top" xlink:title="IMEView.cpp">
<polygon fill="white" stroke="black" points="483.5,-0.5 483.5,-21.5 560.5,-21.5 560.5,-0.5 483.5,-0.5"/>
<text text-anchor="middle" x="522" y="-8.5" font-family="Helvetica,sans-Serif" font-size="10.00">IMEView.cpp</text>
</a>
</g>
<!-- Node1&#45;&gt;Node5 -->
<g id="edge8" class="edge"><title>Node1&#45;&gt;Node5</title>
<path fill="none" stroke="midnightblue" d="M1700.2,-68.2529C1502.12,-65.1925 792.485,-52.3111 569,-22 566.26,-21.6283 563.445,-21.1697 560.62,-20.6527"/>
<polygon fill="midnightblue" stroke="midnightblue" points="1700.29,-71.7545 1710.34,-68.4078 1700.4,-64.7554 1700.29,-71.7545"/>
</g>
<!-- Node6 -->
<g id="node11" class="node"><title>Node6</title>
<a xlink:href="CardWindow_8cpp.htm" target="_top" xlink:title="CardWindow.cpp">
<polygon fill="white" stroke="black" points="577.5,-0.5 577.5,-21.5 674.5,-21.5 674.5,-0.5 577.5,-0.5"/>
<text text-anchor="middle" x="626" y="-8.5" font-family="Helvetica,sans-Serif" font-size="10.00">CardWindow.cpp</text>
</a>
</g>
<!-- Node1&#45;&gt;Node6 -->
<g id="edge10" class="edge"><title>Node1&#45;&gt;Node6</title>
<path fill="none" stroke="midnightblue" d="M1700.38,-67.7356C1515.06,-63.0391 883.648,-45.6422 683,-22 680.298,-21.6816 677.531,-21.3079 674.744,-20.8943"/>
<polygon fill="midnightblue" stroke="midnightblue" points="1700.33,-71.2351 1710.41,-67.9883 1700.5,-64.2374 1700.33,-71.2351"/>
</g>
<!-- Node7 -->
<g id="node13" class="node"><title>Node7</title>
<a xlink:href="CardWindowManager_8cpp.htm" target="_top" xlink:title="CardWindowManager.cpp">
<polygon fill="white" stroke="black" points="692,-0.5 692,-21.5 832,-21.5 832,-0.5 692,-0.5"/>
<text text-anchor="middle" x="762" y="-8.5" font-family="Helvetica,sans-Serif" font-size="10.00">CardWindowManager.cpp</text>
</a>
</g>
<!-- Node1&#45;&gt;Node7 -->
<g id="edge12" class="edge"><title>Node1&#45;&gt;Node7</title>
<path fill="none" stroke="midnightblue" d="M1699.74,-67.8911C1560.11,-64.5847 1166.75,-53.0224 841,-22 838.105,-21.7243 835.154,-21.4198 832.174,-21.0931"/>
<polygon fill="midnightblue" stroke="midnightblue" points="1700.06,-71.3992 1710.14,-68.1329 1700.22,-64.4011 1700.06,-71.3992"/>
</g>
<!-- Node8 -->
<g id="node15" class="node"><title>Node8</title>
<a xlink:href="DockModeMenuManager_8cpp.htm" target="_top" xlink:title="DockModeMenuManager.cpp">
<polygon fill="white" stroke="black" points="850,-0.5 850,-21.5 1006,-21.5 1006,-0.5 850,-0.5"/>
<text text-anchor="middle" x="928" y="-8.5" font-family="Helvetica,sans-Serif" font-size="10.00">DockModeMenuManager.cpp</text>
</a>
</g>
<!-- Node1&#45;&gt;Node8 -->
<g id="edge14" class="edge"><title>Node1&#45;&gt;Node8</title>
<path fill="none" stroke="midnightblue" d="M1700.33,-66.8102C1580,-61.4685 1271.73,-46.392 1015,-22 1012.12,-21.7264 1009.19,-21.4328 1006.23,-21.1237"/>
<polygon fill="midnightblue" stroke="midnightblue" points="1700.23,-70.3088 1710.37,-67.2525 1700.54,-63.3156 1700.23,-70.3088"/>
</g>
<!-- Node9 -->
<g id="node17" class="node"><title>Node9</title>
<a xlink:href="DockModeWindow_8cpp.htm" target="_top" xlink:title="DockModeWindow.cpp">
<polygon fill="white" stroke="black" points="1023.5,-0.5 1023.5,-21.5 1148.5,-21.5 1148.5,-0.5 1023.5,-0.5"/>
<text text-anchor="middle" x="1086" y="-8.5" font-family="Helvetica,sans-Serif" font-size="10.00">DockModeWindow.cpp</text>
</a>
</g>
<!-- Node1&#45;&gt;Node9 -->
<g id="edge16" class="edge"><title>Node1&#45;&gt;Node9</title>
<path fill="none" stroke="midnightblue" d="M1700.25,-66.2199C1596.81,-60.3743 1357.25,-45.3882 1157,-22 1154.27,-21.6817 1151.49,-21.3368 1148.69,-20.9723"/>
<polygon fill="midnightblue" stroke="midnightblue" points="1700.24,-69.7246 1710.42,-66.7898 1700.63,-62.7356 1700.24,-69.7246"/>
</g>
<!-- Node10 -->
<g id="node19" class="node"><title>Node10</title>
<a xlink:href="EmergencyWindowManager_8cpp.htm" target="_top" xlink:title="EmergencyWindowManager.cpp">
<polygon fill="white" stroke="black" points="1166,-0.5 1166,-21.5 1336,-21.5 1336,-0.5 1166,-0.5"/>
<text text-anchor="middle" x="1251" y="-8.5" font-family="Helvetica,sans-Serif" font-size="10.00">EmergencyWindowManager.cpp</text>
</a>
</g>
<!-- Node1&#45;&gt;Node10 -->
<g id="edge18" class="edge"><title>Node1&#45;&gt;Node10</title>
<path fill="none" stroke="midnightblue" d="M1700.44,-63.0717C1623.19,-54.1826 1472.8,-36.8564 1345,-22 1342.06,-21.6585 1339.07,-21.3106 1336.05,-20.959"/>
<polygon fill="midnightblue" stroke="midnightblue" points="1700.06,-66.5511 1710.4,-64.217 1700.86,-59.5969 1700.06,-66.5511"/>
</g>
<!-- Node11 -->
<g id="node21" class="node"><title>Node11</title>
<a xlink:href="GraphicsItemContainer_8cpp.htm" target="_top" xlink:title="GraphicsItemContainer.cpp">
<polygon fill="white" stroke="black" points="1354,-0.5 1354,-21.5 1500,-21.5 1500,-0.5 1354,-0.5"/>
<text text-anchor="middle" x="1427" y="-8.5" font-family="Helvetica,sans-Serif" font-size="10.00">GraphicsItemContainer.cpp</text>
</a>
</g>
<!-- Node1&#45;&gt;Node11 -->
<g id="edge20" class="edge"><title>Node1&#45;&gt;Node11</title>
<path fill="none" stroke="midnightblue" d="M1700.07,-59.7324C1641.69,-49.3148 1547.11,-32.4353 1485.99,-21.5279"/>
<polygon fill="midnightblue" stroke="midnightblue" points="1699.72,-63.2249 1710.18,-61.5363 1700.95,-56.3338 1699.72,-63.2249"/>
</g>
<!-- Node12 -->
<g id="node23" class="node"><title>Node12</title>
<a xlink:href="dimensionslauncher_8cpp.htm" target="_top" xlink:title="dimensionslauncher.cpp">
<polygon fill="white" stroke="black" points="1518,-0.5 1518,-21.5 1648,-21.5 1648,-0.5 1518,-0.5"/>
<text text-anchor="middle" x="1583" y="-8.5" font-family="Helvetica,sans-Serif" font-size="10.00">dimensionslauncher.cpp</text>
</a>
</g>
<!-- Node1&#45;&gt;Node12 -->
<g id="edge22" class="edge"><title>Node1&#45;&gt;Node12</title>
<path fill="none" stroke="midnightblue" d="M1711.63,-55.1443C1681.55,-44.8229 1641.11,-30.9439 1613.66,-21.5231"/>
<polygon fill="midnightblue" stroke="midnightblue" points="1710.8,-58.5609 1721.4,-58.4966 1713.07,-51.94 1710.8,-58.5609"/>
</g>
<!-- Node13 -->
<g id="node25" class="node"><title>Node13</title>
<a xlink:href="pagetab_8cpp.htm" target="_top" xlink:title="pagetab.cpp">
<polygon fill="white" stroke="black" points="1666,-0.5 1666,-21.5 1740,-21.5 1740,-0.5 1666,-0.5"/>
<text text-anchor="middle" x="1703" y="-8.5" font-family="Helvetica,sans-Serif" font-size="10.00">pagetab.cpp</text>
</a>
</g>
<!-- Node1&#45;&gt;Node13 -->
<g id="edge24" class="edge"><title>Node1&#45;&gt;Node13</title>
<path fill="none" stroke="midnightblue" d="M1736.41,-50.5407C1728.33,-40.9786 1718.75,-29.6467 1711.93,-21.5707"/>
<polygon fill="midnightblue" stroke="midnightblue" points="1733.89,-52.9818 1743.01,-58.3619 1739.23,-48.4643 1733.89,-52.9818"/>
</g>
<!-- Node14 -->
<g id="node27" class="node"><title>Node14</title>
<a xlink:href="pagetabbar_8cpp.htm" target="_top" xlink:title="pagetabbar.cpp">
<polygon fill="white" stroke="black" points="1757.5,-0.5 1757.5,-21.5 1846.5,-21.5 1846.5,-0.5 1757.5,-0.5"/>
<text text-anchor="middle" x="1802" y="-8.5" font-family="Helvetica,sans-Serif" font-size="10.00">pagetabbar.cpp</text>
</a>
</g>
<!-- Node1&#45;&gt;Node14 -->
<g id="edge26" class="edge"><title>Node1&#45;&gt;Node14</title>
<path fill="none" stroke="midnightblue" d="M1767.91,-50.5407C1776.16,-40.9786 1785.93,-29.6467 1792.89,-21.5707"/>
<polygon fill="midnightblue" stroke="midnightblue" points="1765.05,-48.5025 1761.17,-58.3619 1770.35,-53.0731 1765.05,-48.5025"/>
</g>
<!-- Node15 -->
<g id="node29" class="node"><title>Node15</title>
<a xlink:href="quicklaunchbar_8cpp.htm" target="_top" xlink:title="quicklaunchbar.cpp">
<polygon fill="white" stroke="black" points="1864,-0.5 1864,-21.5 1970,-21.5 1970,-0.5 1864,-0.5"/>
<text text-anchor="middle" x="1917" y="-8.5" font-family="Helvetica,sans-Serif" font-size="10.00">quicklaunchbar.cpp</text>
</a>
</g>
<!-- Node1&#45;&gt;Node15 -->
<g id="edge28" class="edge"><title>Node1&#45;&gt;Node15</title>
<path fill="none" stroke="midnightblue" d="M1791.42,-55.1443C1820.78,-44.8229 1860.26,-30.9439 1887.06,-21.5231"/>
<polygon fill="midnightblue" stroke="midnightblue" points="1790.15,-51.8784 1781.88,-58.4966 1792.48,-58.4823 1790.15,-51.8784"/>
</g>
<!-- Node16 -->
<g id="node31" class="node"><title>Node16</title>
<a xlink:href="colorroundrectbutton_8cpp.htm" target="_top" xlink:title="colorroundrectbutton.cpp">
<polygon fill="white" stroke="black" points="1987.5,-0.5 1987.5,-21.5 2120.5,-21.5 2120.5,-0.5 1987.5,-0.5"/>
<text text-anchor="middle" x="2054" y="-8.5" font-family="Helvetica,sans-Serif" font-size="10.00">colorroundrectbutton.cpp</text>
</a>
</g>
<!-- Node1&#45;&gt;Node16 -->
<g id="edge30" class="edge"><title>Node1&#45;&gt;Node16</title>
<path fill="none" stroke="midnightblue" d="M1803.81,-59.0505C1858.28,-48.5886 1943.64,-32.1943 1999.21,-21.5219"/>
<polygon fill="midnightblue" stroke="midnightblue" points="1802.84,-55.6729 1793.67,-60.9962 1804.16,-62.5473 1802.84,-55.6729"/>
</g>
<!-- Node17 -->
<g id="node33" class="node"><title>Node17</title>
<a xlink:href="pixbutton_8cpp.htm" target="_top" xlink:title="pixbutton.cpp">
<polygon fill="white" stroke="black" points="2138,-0.5 2138,-21.5 2216,-21.5 2216,-0.5 2138,-0.5"/>
<text text-anchor="middle" x="2177" y="-8.5" font-family="Helvetica,sans-Serif" font-size="10.00">pixbutton.cpp</text>
</a>
</g>
<!-- Node1&#45;&gt;Node17 -->
<g id="edge32" class="edge"><title>Node1&#45;&gt;Node17</title>
<path fill="none" stroke="midnightblue" d="M1804.06,-64.1933C1877.02,-57.0748 2013.69,-42.346 2129,-22 2131.86,-21.4949 2134.81,-20.9299 2137.77,-20.3299"/>
<polygon fill="midnightblue" stroke="midnightblue" points="1803.38,-60.7422 1793.77,-65.1881 1804.06,-67.7097 1803.38,-60.7422"/>
</g>
<!-- Node18 -->
<g id="node35" class="node"><title>Node18</title>
<a xlink:href="pixbutton2state_8cpp.htm" target="_top" xlink:title="pixbutton2state.cpp">
<polygon fill="white" stroke="black" points="2233.5,-0.5 2233.5,-21.5 2340.5,-21.5 2340.5,-0.5 2233.5,-0.5"/>
<text text-anchor="middle" x="2287" y="-8.5" font-family="Helvetica,sans-Serif" font-size="10.00">pixbutton2state.cpp</text>
</a>
</g>
<!-- Node1&#45;&gt;Node18 -->
<g id="edge34" class="edge"><title>Node1&#45;&gt;Node18</title>
<path fill="none" stroke="midnightblue" d="M1803.72,-65.1645C1890.87,-58.41 2072.41,-43.0856 2225,-22 2227.71,-21.6259 2230.48,-21.2199 2233.27,-20.792"/>
<polygon fill="midnightblue" stroke="midnightblue" points="1803.27,-61.6886 1793.57,-65.9455 1803.81,-68.668 1803.27,-61.6886"/>
</g>
<!-- Node19 -->
<g id="node37" class="node"><title>Node19</title>
<a xlink:href="pixbuttonsimple_8cpp.htm" target="_top" xlink:title="pixbuttonsimple.cpp">
<polygon fill="white" stroke="black" points="2358,-0.5 2358,-21.5 2466,-21.5 2466,-0.5 2358,-0.5"/>
<text text-anchor="middle" x="2412" y="-8.5" font-family="Helvetica,sans-Serif" font-size="10.00">pixbuttonsimple.cpp</text>
</a>
</g>
<!-- Node1&#45;&gt;Node19 -->
<g id="edge36" class="edge"><title>Node1&#45;&gt;Node19</title>
<path fill="none" stroke="midnightblue" d="M1803.97,-66.561C1907.83,-61.322 2148.31,-47.3629 2349,-22 2351.86,-21.6381 2354.8,-21.2362 2357.75,-20.8062"/>
<polygon fill="midnightblue" stroke="midnightblue" points="1803.57,-63.0764 1793.76,-67.0701 1803.92,-70.0677 1803.57,-63.0764"/>
</g>
<!-- Node20 -->
<g id="node39" class="node"><title>Node20</title>
<a xlink:href="icon_8cpp.htm" target="_top" xlink:title="icon.cpp">
<polygon fill="white" stroke="black" points="2484,-0.5 2484,-21.5 2540,-21.5 2540,-0.5 2484,-0.5"/>
<text text-anchor="middle" x="2512" y="-8.5" font-family="Helvetica,sans-Serif" font-size="10.00">icon.cpp</text>
</a>
</g>
<!-- Node1&#45;&gt;Node20 -->
<g id="edge38" class="edge"><title>Node1&#45;&gt;Node20</title>
<path fill="none" stroke="midnightblue" d="M1804.04,-67.1326C1947.39,-61.7474 2345.9,-45.0858 2475,-22 2477.9,-21.481 2480.9,-20.8154 2483.88,-20.069"/>
<polygon fill="midnightblue" stroke="midnightblue" points="1803.63,-63.6454 1793.77,-67.5156 1803.89,-70.6406 1803.63,-63.6454"/>
</g>
<!-- Node21 -->
<g id="node41" class="node"><title>Node21</title>
<a xlink:href="page_8cpp.htm" target="_top" xlink:title="page.cpp">
<polygon fill="white" stroke="black" points="2558,-0.5 2558,-21.5 2618,-21.5 2618,-0.5 2558,-0.5"/>
<text text-anchor="middle" x="2588" y="-8.5" font-family="Helvetica,sans-Serif" font-size="10.00">page.cpp</text>
</a>
</g>
<!-- Node1&#45;&gt;Node21 -->
<g id="edge40" class="edge"><title>Node1&#45;&gt;Node21</title>
<path fill="none" stroke="midnightblue" d="M1804.06,-67.399C1957.28,-62.4549 2404.87,-46.2828 2549,-22 2551.91,-21.5091 2554.92,-20.8832 2557.91,-20.1799"/>
<polygon fill="midnightblue" stroke="midnightblue" points="1803.86,-63.9037 1793.98,-67.722 1804.08,-70.9001 1803.86,-63.9037"/>
</g>
<!-- Node22 -->
<g id="node43" class="node"><title>Node22</title>
<a xlink:href="OverlayWindowManager_8cpp.htm" target="_top" xlink:title="OverlayWindowManager.cpp">
<polygon fill="white" stroke="black" points="2635.5,-0.5 2635.5,-21.5 2788.5,-21.5 2788.5,-0.5 2635.5,-0.5"/>
<text text-anchor="middle" x="2712" y="-8.5" font-family="Helvetica,sans-Serif" font-size="10.00">OverlayWindowManager.cpp</text>
</a>
</g>
<!-- Node1&#45;&gt;Node22 -->
<g id="edge42" class="edge"><title>Node1&#45;&gt;Node22</title>
<path fill="none" stroke="midnightblue" d="M1803.61,-67.5805C1938.93,-63.5655 2315.09,-50.519 2627,-22 2629.67,-21.7561 2632.38,-21.4922 2635.12,-21.2121"/>
<polygon fill="midnightblue" stroke="midnightblue" points="1803.42,-64.0844 1793.53,-67.8761 1803.62,-71.0814 1803.42,-64.0844"/>
</g>
<!-- Node23 -->
<g id="node45" class="node"><title>Node23</title>
<a xlink:href="DashboardWindowContainer_8cpp.htm" target="_top" xlink:title="DashboardWindowContainer.cpp">
<polygon fill="white" stroke="black" points="2806,-0.5 2806,-21.5 2978,-21.5 2978,-0.5 2806,-0.5"/>
<text text-anchor="middle" x="2892" y="-8.5" font-family="Helvetica,sans-Serif" font-size="10.00">DashboardWindowContainer.cpp</text>
</a>
</g>
<!-- Node1&#45;&gt;Node23 -->
<g id="edge44" class="edge"><title>Node1&#45;&gt;Node23</title>
<path fill="none" stroke="midnightblue" d="M1803.9,-67.9572C1956.44,-64.6145 2416.54,-52.5445 2797,-22 2799.9,-21.7675 2802.84,-21.5153 2805.81,-21.2474"/>
<polygon fill="midnightblue" stroke="midnightblue" points="1803.8,-64.4585 1793.88,-68.1739 1803.95,-71.4568 1803.8,-64.4585"/>
</g>
<!-- Node24 -->
<g id="node47" class="node"><title>Node24</title>
<a xlink:href="DashboardWindowManager_8cpp.htm" target="_top" xlink:title="DashboardWindowManager.cpp">
<polygon fill="white" stroke="black" points="2996,-0.5 2996,-21.5 3164,-21.5 3164,-0.5 2996,-0.5"/>
<text text-anchor="middle" x="3080" y="-8.5" font-family="Helvetica,sans-Serif" font-size="10.00">DashboardWindowManager.cpp</text>
</a>
</g>
<!-- Node1&#45;&gt;Node24 -->
<g id="edge46" class="edge"><title>Node1&#45;&gt;Node24</title>
<path fill="none" stroke="midnightblue" d="M1803.81,-68.5053C1973.69,-66.5675 2529.18,-57.7296 2987,-22 2989.92,-21.7723 2992.88,-21.5222 2995.88,-21.2541"/>
<polygon fill="midnightblue" stroke="midnightblue" points="1803.61,-65.0072 1793.65,-68.6181 1803.69,-72.0067 1803.61,-65.0072"/>
</g>
<!-- Node25 -->
<g id="node49" class="node"><title>Node25</title>
<a xlink:href="MenuWindowManager_8cpp.htm" target="_top" xlink:title="MenuWindowManager.cpp">
<polygon fill="white" stroke="black" points="3181.5,-0.5 3181.5,-21.5 3324.5,-21.5 3324.5,-0.5 3181.5,-0.5"/>
<text text-anchor="middle" x="3253" y="-8.5" font-family="Helvetica,sans-Serif" font-size="10.00">MenuWindowManager.cpp</text>
</a>
</g>
<!-- Node1&#45;&gt;Node25 -->
<g id="edge48" class="edge"><title>Node1&#45;&gt;Node25</title>
<path fill="none" stroke="midnightblue" d="M1803.56,-68.0117C2025.31,-63.6507 2898.97,-45.3085 3173,-22 3175.65,-21.7742 3178.35,-21.5214 3181.08,-21.2468"/>
<polygon fill="midnightblue" stroke="midnightblue" points="1803.43,-64.5135 1793.5,-68.2087 1803.57,-71.5121 1803.43,-64.5135"/>
</g>
</g>
</svg>
