<?xml version="1.0" encoding="UTF-8" standalone="no"?>
<!DOCTYPE svg PUBLIC "-//W3C//DTD SVG 1.1//EN"
 "http://www.w3.org/Graphics/SVG/1.1/DTD/svg11.dtd">
<!-- Generated by graphviz version 2.26.3 (20100126.1600)
 -->
<!-- Title: FlickGestureRecognizer.cpp Pages: 1 -->
<svg width="1045pt" height="146pt"
 viewBox="0.00 0.00 1045.00 146.00" xmlns="http://www.w3.org/2000/svg" xmlns:xlink="http://www.w3.org/1999/xlink">
<g id="graph1" class="graph" transform="scale(1 1) rotate(0) translate(4 142)">
<title>FlickGestureRecognizer.cpp</title>
<polygon fill="white" stroke="white" points="-4,5 -4,-142 1042,-142 1042,5 -4,5"/>
<!-- Node1 -->
<g id="node1" class="node"><title>Node1</title>
<polygon fill="#bfbfbf" stroke="black" points="538.5,-116.5 538.5,-137.5 687.5,-137.5 687.5,-116.5 538.5,-116.5"/>
<text text-anchor="middle" x="613" y="-124.5" font-family="Helvetica,sans-Serif" font-size="10.00">FlickGestureRecognizer.cpp</text>
</g>
<!-- Node2 -->
<g id="node3" class="node"><title>Node2</title>
<polygon fill="white" stroke="#bfbfbf" points="207.5,-0.5 207.5,-21.5 274.5,-21.5 274.5,-0.5 207.5,-0.5"/>
<text text-anchor="middle" x="241" y="-8.5" font-family="Helvetica,sans-Serif" font-size="10.00">Common.h</text>
</g>
<!-- Node1&#45;&gt;Node2 -->
<g id="edge2" class="edge"><title>Node1&#45;&gt;Node2</title>
<path fill="none" stroke="midnightblue" d="M538.244,-118.22C469.018,-109.387 371.577,-94.9629 336,-80 320.421,-73.448 285.168,-46.4353 262.262,-28.2164"/>
<polygon fill="midnightblue" stroke="midnightblue" points="264.149,-25.2433 254.155,-21.7254 259.774,-30.7077 264.149,-25.2433"/>
</g>
<!-- Node3 -->
<g id="node5" class="node"><title>Node3</title>
<a xlink:href="FlickGestureRecognizer_8h.htm" target="_top" xlink:title="FlickGestureRecognizer.h">
<polygon fill="white" stroke="black" points="152.5,-58.5 152.5,-79.5 289.5,-79.5 289.5,-58.5 152.5,-58.5"/>
<text text-anchor="middle" x="221" y="-66.5" font-family="Helvetica,sans-Serif" font-size="10.00">FlickGestureRecognizer.h</text>
</a>
</g>
<!-- Node1&#45;&gt;Node3 -->
<g id="edge4" class="edge"><title>Node1&#45;&gt;Node3</title>
<path fill="none" stroke="midnightblue" d="M542.012,-116.497C473.773,-106.4 370.836,-91.1696 300.023,-80.6922"/>
<polygon fill="midnightblue" stroke="midnightblue" points="300.221,-77.1835 289.817,-79.1821 299.197,-84.1081 300.221,-77.1835"/>
</g>
<!-- Node7 -->
<g id="node14" class="node"><title>Node7</title>
<polygon fill="white" stroke="#bfbfbf" points="538,-0.5 538,-21.5 590,-21.5 590,-0.5 538,-0.5"/>
<text text-anchor="middle" x="564" y="-8.5" font-family="Helvetica,sans-Serif" font-size="10.00">QEvent</text>
</g>
<!-- Node1&#45;&gt;Node7 -->
<g id="edge14" class="edge"><title>Node1&#45;&gt;Node7</title>
<path fill="none" stroke="midnightblue" d="M596.41,-116.5C584.924,-108.174 570.566,-95.3968 564,-80 557.548,-64.8713 558.017,-46.1233 559.838,-31.9898"/>
<polygon fill="midnightblue" stroke="midnightblue" points="563.345,-32.2315 561.483,-21.8015 556.434,-31.1159 563.345,-32.2315"/>
</g>
<!-- Node8 -->
<g id="node16" class="node"><title>Node8</title>
<polygon fill="white" stroke="#bfbfbf" points="572.5,-58.5 572.5,-79.5 653.5,-79.5 653.5,-58.5 572.5,-58.5"/>
<text text-anchor="middle" x="613" y="-66.5" font-family="Helvetica,sans-Serif" font-size="10.00">QTouchEvent</text>
</g>
<!-- Node1&#45;&gt;Node8 -->
<g id="edge16" class="edge"><title>Node1&#45;&gt;Node8</title>
<path fill="none" stroke="midnightblue" d="M613,-116.362C613,-108.922 613,-98.7427 613,-89.7276"/>
<polygon fill="midnightblue" stroke="midnightblue" points="616.5,-89.5706 613,-79.5707 609.5,-89.5707 616.5,-89.5706"/>
</g>
<!-- Node9 -->
<g id="node18" class="node"><title>Node9</title>
<polygon fill="white" stroke="#bfbfbf" points="671,-58.5 671,-79.5 745,-79.5 745,-58.5 671,-58.5"/>
<text text-anchor="middle" x="708" y="-66.5" font-family="Helvetica,sans-Serif" font-size="10.00">QTransform</text>
</g>
<!-- Node1&#45;&gt;Node9 -->
<g id="edge18" class="edge"><title>Node1&#45;&gt;Node9</title>
<path fill="none" stroke="midnightblue" d="M630.424,-116.362C644.887,-107.532 665.669,-94.844 682.084,-84.8224"/>
<polygon fill="midnightblue" stroke="midnightblue" points="683.975,-87.7688 690.686,-79.5707 680.327,-81.7943 683.975,-87.7688"/>
</g>
<!-- Node10 -->
<g id="node20" class="node"><title>Node10</title>
<polygon fill="white" stroke="#bfbfbf" points="762.5,-58.5 762.5,-79.5 817.5,-79.5 817.5,-58.5 762.5,-58.5"/>
<text text-anchor="middle" x="790" y="-66.5" font-family="Helvetica,sans-Serif" font-size="10.00">QDebug</text>
</g>
<!-- Node1&#45;&gt;Node10 -->
<g id="edge20" class="edge"><title>Node1&#45;&gt;Node10</title>
<path fill="none" stroke="midnightblue" d="M645.053,-116.497C675.258,-106.599 720.517,-91.7685 752.41,-81.3178"/>
<polygon fill="midnightblue" stroke="midnightblue" points="753.846,-84.5304 762.259,-78.0904 751.666,-77.8784 753.846,-84.5304"/>
</g>
<!-- Node11 -->
<g id="node22" class="node"><title>Node11</title>
<polygon fill="white" stroke="#bfbfbf" points="835,-58.5 835,-79.5 883,-79.5 883,-58.5 835,-58.5"/>
<text text-anchor="middle" x="859" y="-66.5" font-family="Helvetica,sans-Serif" font-size="10.00">QTime</text>
</g>
<!-- Node1&#45;&gt;Node11 -->
<g id="edge22" class="edge"><title>Node1&#45;&gt;Node11</title>
<path fill="none" stroke="midnightblue" d="M668.11,-116.488C709.065,-108.301 766.449,-96.0453 825.129,-80.0497"/>
<polygon fill="midnightblue" stroke="midnightblue" points="826.23,-83.3769 834.939,-77.3435 824.368,-76.629 826.23,-83.3769"/>
</g>
<!-- Node12 -->
<g id="node24" class="node"><title>Node12</title>
<a xlink:href="FlickGesture_8h.htm" target="_top" xlink:title="FlickGesture.h">
<polygon fill="white" stroke="black" points="344.5,-58.5 344.5,-79.5 427.5,-79.5 427.5,-58.5 344.5,-58.5"/>
<text text-anchor="middle" x="386" y="-66.5" font-family="Helvetica,sans-Serif" font-size="10.00">FlickGesture.h</text>
</a>
</g>
<!-- Node1&#45;&gt;Node12 -->
<g id="edge24" class="edge"><title>Node1&#45;&gt;Node12</title>
<path fill="none" stroke="midnightblue" d="M571.892,-116.497C534.004,-106.816 477.644,-92.4156 436.92,-82.0105"/>
<polygon fill="midnightblue" stroke="midnightblue" points="437.74,-78.6076 427.185,-79.5231 436.007,-85.3897 437.74,-78.6076"/>
</g>
<!-- Node15 -->
<g id="node32" class="node"><title>Node15</title>
<polygon fill="white" stroke="#bfbfbf" points="901,-58.5 901,-79.5 949,-79.5 949,-58.5 901,-58.5"/>
<text text-anchor="middle" x="925" y="-66.5" font-family="Helvetica,sans-Serif" font-size="10.00">Time.h</text>
</g>
<!-- Node1&#45;&gt;Node15 -->
<g id="edge34" class="edge"><title>Node1&#45;&gt;Node15</title>
<path fill="none" stroke="midnightblue" d="M687.661,-117.626C741.792,-110.092 816.826,-98.1335 890.994,-79.9703"/>
<polygon fill="midnightblue" stroke="midnightblue" points="892.117,-83.2975 900.976,-77.4862 890.427,-76.5046 892.117,-83.2975"/>
</g>
<!-- Node16 -->
<g id="node34" class="node"><title>Node16</title>
<polygon fill="white" stroke="#bfbfbf" points="966.5,-58.5 966.5,-79.5 1037.5,-79.5 1037.5,-58.5 966.5,-58.5"/>
<text text-anchor="middle" x="1002" y="-66.5" font-family="Helvetica,sans-Serif" font-size="10.00">HostBase.h</text>
</g>
<!-- Node1&#45;&gt;Node16 -->
<g id="edge36" class="edge"><title>Node1&#45;&gt;Node16</title>
<path fill="none" stroke="midnightblue" d="M687.75,-119.211C755.561,-111.598 858.44,-98.6912 956.02,-80.2475"/>
<polygon fill="midnightblue" stroke="midnightblue" points="956.889,-83.6448 966.053,-78.3277 955.573,-76.7695 956.889,-83.6448"/>
</g>
<!-- Node17 -->
<g id="node36" class="node"><title>Node17</title>
<a xlink:href="FlickEvent_8h.htm" target="_top" xlink:title="FlickEvent.h">
<polygon fill="white" stroke="black" points="444.5,-58.5 444.5,-79.5 517.5,-79.5 517.5,-58.5 444.5,-58.5"/>
<text text-anchor="middle" x="481" y="-66.5" font-family="Helvetica,sans-Serif" font-size="10.00">FlickEvent.h</text>
</a>
</g>
<!-- Node1&#45;&gt;Node17 -->
<g id="edge38" class="edge"><title>Node1&#45;&gt;Node17</title>
<path fill="none" stroke="midnightblue" d="M589.096,-116.497C568.2,-107.315 537.644,-93.8889 514.345,-83.6516"/>
<polygon fill="midnightblue" stroke="midnightblue" points="515.736,-80.4397 505.172,-79.6212 512.92,-86.8483 515.736,-80.4397"/>
</g>
<!-- Node3&#45;&gt;Node2 -->
<g id="edge6" class="edge"><title>Node3&#45;&gt;Node2</title>
<path fill="none" stroke="midnightblue" d="M224.668,-58.3619C227.29,-50.7584 230.899,-40.294 234.057,-31.1349"/>
<polygon fill="midnightblue" stroke="midnightblue" points="237.404,-32.1654 237.355,-21.5707 230.786,-29.8834 237.404,-32.1654"/>
</g>
<!-- Node4 -->
<g id="node8" class="node"><title>Node4</title>
<polygon fill="white" stroke="#bfbfbf" points="0,-0.5 0,-21.5 116,-21.5 116,-0.5 0,-0.5"/>
<text text-anchor="middle" x="58" y="-8.5" font-family="Helvetica,sans-Serif" font-size="10.00">QGestureRecognizer</text>
</g>
<!-- Node3&#45;&gt;Node4 -->
<g id="edge8" class="edge"><title>Node3&#45;&gt;Node4</title>
<path fill="none" stroke="midnightblue" d="M191.482,-58.4966C165.024,-49.082 126.021,-35.2036 97,-24.8773"/>
<polygon fill="midnightblue" stroke="midnightblue" points="98.1681,-21.578 87.5734,-21.5231 95.8214,-28.173 98.1681,-21.578"/>
</g>
<!-- Node5 -->
<g id="node10" class="node"><title>Node5</title>
<polygon fill="white" stroke="#bfbfbf" points="291.5,-0.5 291.5,-21.5 340.5,-21.5 340.5,-0.5 291.5,-0.5"/>
<text text-anchor="middle" x="316" y="-8.5" font-family="Helvetica,sans-Serif" font-size="10.00">QPoint</text>
</g>
<!-- Node3&#45;&gt;Node5 -->
<g id="edge10" class="edge"><title>Node3&#45;&gt;Node5</title>
<path fill="none" stroke="midnightblue" d="M238.424,-58.3619C252.887,-49.532 273.669,-36.844 290.084,-26.8224"/>
<polygon fill="midnightblue" stroke="midnightblue" points="291.975,-29.7688 298.686,-21.5707 288.327,-23.7943 291.975,-29.7688"/>
</g>
<!-- Node6 -->
<g id="node12" class="node"><title>Node6</title>
<polygon fill="white" stroke="#bfbfbf" points="134,-0.5 134,-21.5 190,-21.5 190,-0.5 134,-0.5"/>
<text text-anchor="middle" x="162" y="-8.5" font-family="Helvetica,sans-Serif" font-size="10.00">QQueue</text>
</g>
<!-- Node3&#45;&gt;Node6 -->
<g id="edge12" class="edge"><title>Node3&#45;&gt;Node6</title>
<path fill="none" stroke="midnightblue" d="M210.178,-58.3619C201.779,-50.1043 189.946,-38.4725 180.11,-28.8029"/>
<polygon fill="midnightblue" stroke="midnightblue" points="182.338,-26.0851 172.753,-21.5707 177.431,-31.077 182.338,-26.0851"/>
</g>
<!-- Node12&#45;&gt;Node2 -->
<g id="edge26" class="edge"><title>Node12&#45;&gt;Node2</title>
<path fill="none" stroke="midnightblue" d="M359.742,-58.4966C336.584,-49.2337 302.625,-35.6499 276.948,-25.3793"/>
<polygon fill="midnightblue" stroke="midnightblue" points="278.138,-22.0855 267.553,-21.6212 275.538,-28.5849 278.138,-22.0855"/>
</g>
<!-- Node12&#45;&gt;Node5 -->
<g id="edge30" class="edge"><title>Node12&#45;&gt;Node5</title>
<path fill="none" stroke="midnightblue" d="M373.161,-58.3619C362.998,-49.9408 348.599,-38.0105 336.796,-28.2308"/>
<polygon fill="midnightblue" stroke="midnightblue" points="338.691,-25.2558 328.758,-21.5707 334.225,-30.6459 338.691,-25.2558"/>
</g>
<!-- Node13 -->
<g id="node27" class="node"><title>Node13</title>
<polygon fill="white" stroke="#bfbfbf" points="358,-0.5 358,-21.5 420,-21.5 420,-0.5 358,-0.5"/>
<text text-anchor="middle" x="389" y="-8.5" font-family="Helvetica,sans-Serif" font-size="10.00">QGesture</text>
</g>
<!-- Node12&#45;&gt;Node13 -->
<g id="edge28" class="edge"><title>Node12&#45;&gt;Node13</title>
<path fill="none" stroke="midnightblue" d="M386.55,-58.3619C386.935,-50.9219 387.462,-40.7427 387.928,-31.7276"/>
<polygon fill="midnightblue" stroke="midnightblue" points="391.432,-31.7381 388.453,-21.5707 384.441,-31.3765 391.432,-31.7381"/>
</g>
<!-- Node14 -->
<g id="node30" class="node"><title>Node14</title>
<polygon fill="white" stroke="#bfbfbf" points="437.5,-0.5 437.5,-21.5 520.5,-21.5 520.5,-0.5 437.5,-0.5"/>
<text text-anchor="middle" x="479" y="-8.5" font-family="Helvetica,sans-Serif" font-size="10.00">SysMgrDefs.h</text>
</g>
<!-- Node12&#45;&gt;Node14 -->
<g id="edge32" class="edge"><title>Node12&#45;&gt;Node14</title>
<path fill="none" stroke="midnightblue" d="M403.058,-58.3619C417.085,-49.6138 437.184,-37.0786 453.182,-27.1015"/>
<polygon fill="midnightblue" stroke="midnightblue" points="455.418,-29.8323 462.051,-21.5707 451.713,-23.8927 455.418,-29.8323"/>
</g>
<!-- Node17&#45;&gt;Node7 -->
<g id="edge40" class="edge"><title>Node17&#45;&gt;Node7</title>
<path fill="none" stroke="midnightblue" d="M496.223,-58.3619C508.625,-49.6955 526.346,-37.3126 540.557,-27.3819"/>
<polygon fill="midnightblue" stroke="midnightblue" points="542.681,-30.1676 548.873,-21.5707 538.671,-24.4297 542.681,-30.1676"/>
</g>
<!-- Node17&#45;&gt;Node14 -->
<g id="edge42" class="edge"><title>Node17&#45;&gt;Node14</title>
<path fill="none" stroke="midnightblue" d="M480.633,-58.3619C480.377,-50.9219 480.026,-40.7427 479.715,-31.7276"/>
<polygon fill="midnightblue" stroke="midnightblue" points="483.207,-31.4441 479.365,-21.5707 476.211,-31.6854 483.207,-31.4441"/>
</g>
</g>
</svg>
