<?xml version="1.0" encoding="UTF-8" standalone="no"?>
<!DOCTYPE svg PUBLIC "-//W3C//DTD SVG 1.1//EN"
 "http://www.w3.org/Graphics/SVG/1.1/DTD/svg11.dtd">
<!-- Generated by graphviz version 2.26.3 (20100126.1600)
 -->
<!-- Title: frictiontransform.h Pages: 1 -->
<svg width="2094pt" height="204pt"
 viewBox="0.00 0.00 2094.00 204.00" xmlns="http://www.w3.org/2000/svg" xmlns:xlink="http://www.w3.org/1999/xlink">
<g id="graph1" class="graph" transform="scale(1 1) rotate(0) translate(4 200)">
<title>frictiontransform.h</title>
<polygon fill="white" stroke="white" points="-4,5 -4,-200 2091,-200 2091,5 -4,5"/>
<!-- Node1 -->
<g id="node1" class="node"><title>Node1</title>
<polygon fill="#bfbfbf" stroke="black" points="915.5,-174.5 915.5,-195.5 1016.5,-195.5 1016.5,-174.5 915.5,-174.5"/>
<text text-anchor="middle" x="966" y="-182.5" font-family="Helvetica,sans-Serif" font-size="10.00">frictiontransform.h</text>
</g>
<!-- Node2 -->
<g id="node3" class="node"><title>Node2</title>
<a xlink:href="page_8h.htm" target="_top" xlink:title="page.h">
<polygon fill="white" stroke="black" points="892.5,-116.5 892.5,-137.5 941.5,-137.5 941.5,-116.5 892.5,-116.5"/>
<text text-anchor="middle" x="917" y="-124.5" font-family="Helvetica,sans-Serif" font-size="10.00">page.h</text>
</a>
</g>
<!-- Node1&#45;&gt;Node2 -->
<g id="edge2" class="edge"><title>Node1&#45;&gt;Node2</title>
<path fill="none" stroke="midnightblue" d="M950.405,-166.541C942.327,-156.979 932.753,-145.647 925.93,-137.571"/>
<polygon fill="midnightblue" stroke="midnightblue" points="947.885,-168.982 957.013,-174.362 953.233,-164.464 947.885,-168.982"/>
</g>
<!-- Node28 -->
<g id="node69" class="node"><title>Node28</title>
<a xlink:href="frictiontransform_8cpp.htm" target="_top" xlink:title="frictiontransform.cpp">
<polygon fill="white" stroke="black" points="958.5,-116.5 958.5,-137.5 1071.5,-137.5 1071.5,-116.5 958.5,-116.5"/>
<text text-anchor="middle" x="1015" y="-124.5" font-family="Helvetica,sans-Serif" font-size="10.00">frictiontransform.cpp</text>
</a>
</g>
<!-- Node1&#45;&gt;Node28 -->
<g id="edge82" class="edge"><title>Node1&#45;&gt;Node28</title>
<path fill="none" stroke="midnightblue" d="M981.595,-166.541C989.673,-156.979 999.247,-145.647 1006.07,-137.571"/>
<polygon fill="midnightblue" stroke="midnightblue" points="978.767,-164.464 974.987,-174.362 984.115,-168.982 978.767,-164.464"/>
</g>
<!-- Node3 -->
<g id="node5" class="node"><title>Node3</title>
<a xlink:href="dimensionslauncher_8h.htm" target="_top" xlink:title="dimensionslauncher.h">
<polygon fill="white" stroke="black" points="901.5,-58.5 901.5,-79.5 1020.5,-79.5 1020.5,-58.5 901.5,-58.5"/>
<text text-anchor="middle" x="961" y="-66.5" font-family="Helvetica,sans-Serif" font-size="10.00">dimensionslauncher.h</text>
</a>
</g>
<!-- Node2&#45;&gt;Node3 -->
<g id="edge4" class="edge"><title>Node2&#45;&gt;Node3</title>
<path fill="none" stroke="midnightblue" d="M931.224,-108.25C938.431,-98.75 946.916,-87.5651 952.981,-79.5707"/>
<polygon fill="midnightblue" stroke="midnightblue" points="928.326,-106.28 925.07,-116.362 933.903,-110.51 928.326,-106.28"/>
</g>
<!-- Node4 -->
<g id="node7" class="node"><title>Node4</title>
<a xlink:href="dimensionslauncher_8cpp.htm" target="_top" xlink:title="dimensionslauncher.cpp">
<polygon fill="white" stroke="black" points="260,-0.5 260,-21.5 390,-21.5 390,-0.5 260,-0.5"/>
<text text-anchor="middle" x="325" y="-8.5" font-family="Helvetica,sans-Serif" font-size="10.00">dimensionslauncher.cpp</text>
</a>
</g>
<!-- Node2&#45;&gt;Node4 -->
<g id="edge38" class="edge"><title>Node2&#45;&gt;Node4</title>
<path fill="none" stroke="midnightblue" d="M882.161,-123.663C820.448,-117.421 688.051,-102.539 578,-80 498.162,-63.6491 406.279,-36.4293 358.229,-21.5342"/>
<polygon fill="midnightblue" stroke="midnightblue" points="881.846,-127.149 892.144,-124.66 882.541,-120.184 881.846,-127.149"/>
</g>
<!-- Node7 -->
<g id="node13" class="node"><title>Node7</title>
<a xlink:href="quicklaunchbar_8cpp.htm" target="_top" xlink:title="quicklaunchbar.cpp">
<polygon fill="white" stroke="black" points="408,-0.5 408,-21.5 514,-21.5 514,-0.5 408,-0.5"/>
<text text-anchor="middle" x="461" y="-8.5" font-family="Helvetica,sans-Serif" font-size="10.00">quicklaunchbar.cpp</text>
</a>
</g>
<!-- Node2&#45;&gt;Node7 -->
<g id="edge42" class="edge"><title>Node2&#45;&gt;Node7</title>
<path fill="none" stroke="midnightblue" d="M882.043,-122.742C830.948,-116.082 733.126,-101.677 652,-80 591.029,-63.7085 521.941,-36.465 485.896,-21.5503"/>
<polygon fill="midnightblue" stroke="midnightblue" points="881.85,-126.245 892.214,-124.045 882.74,-119.302 881.85,-126.245"/>
</g>
<!-- Node8 -->
<g id="node15" class="node"><title>Node8</title>
<a xlink:href="icon_8cpp.htm" target="_top" xlink:title="icon.cpp">
<polygon fill="white" stroke="black" points="1952,-0.5 1952,-21.5 2008,-21.5 2008,-0.5 1952,-0.5"/>
<text text-anchor="middle" x="1980" y="-8.5" font-family="Helvetica,sans-Serif" font-size="10.00">icon.cpp</text>
</a>
</g>
<!-- Node2&#45;&gt;Node8 -->
<g id="edge44" class="edge"><title>Node2&#45;&gt;Node8</title>
<path fill="none" stroke="midnightblue" d="M951.1,-113.472C973.442,-104.417 1003.18,-92.0013 1029,-80 1048.47,-70.9513 1051.24,-63.4588 1072,-58 1259.35,-8.73987 1751.91,-53.8462 1943,-22 1945.91,-21.5153 1948.91,-20.8722 1951.89,-20.1396"/>
<polygon fill="midnightblue" stroke="midnightblue" points="949.67,-110.274 941.703,-117.259 952.287,-116.767 949.67,-110.274"/>
</g>
<!-- Node10 -->
<g id="node19" class="node"><title>Node10</title>
<a xlink:href="reorderableiconlayout_8cpp.htm" target="_top" xlink:title="reorderableiconlayout.cpp">
<polygon fill="white" stroke="black" points="644,-0.5 644,-21.5 782,-21.5 782,-0.5 644,-0.5"/>
<text text-anchor="middle" x="713" y="-8.5" font-family="Helvetica,sans-Serif" font-size="10.00">reorderableiconlayout.cpp</text>
</a>
</g>
<!-- Node2&#45;&gt;Node10 -->
<g id="edge58" class="edge"><title>Node2&#45;&gt;Node10</title>
<path fill="none" stroke="midnightblue" d="M889.247,-111.219C846.938,-87.1606 767.435,-41.9533 731.486,-21.5117"/>
<polygon fill="midnightblue" stroke="midnightblue" points="887.751,-114.394 898.174,-116.295 891.211,-108.309 887.751,-114.394"/>
</g>
<!-- Node11 -->
<g id="node21" class="node"><title>Node11</title>
<a xlink:href="page_8cpp.htm" target="_top" xlink:title="page.cpp">
<polygon fill="white" stroke="black" points="2026,-0.5 2026,-21.5 2086,-21.5 2086,-0.5 2026,-0.5"/>
<text text-anchor="middle" x="2056" y="-8.5" font-family="Helvetica,sans-Serif" font-size="10.00">page.cpp</text>
</a>
</g>
<!-- Node2&#45;&gt;Node11 -->
<g id="edge60" class="edge"><title>Node2&#45;&gt;Node11</title>
<path fill="none" stroke="midnightblue" d="M951.413,-115.615C1002.29,-99.648 1017.82,-99.4812 1064,-80 1083.05,-71.9625 1085.05,-63.4356 1105,-58 1300.69,-4.68864 1816.68,-53.7492 2017,-22 2019.92,-21.5375 2022.93,-20.9307 2025.92,-20.2393"/>
<polygon fill="midnightblue" stroke="midnightblue" points="950.313,-112.292 941.852,-118.669 952.443,-118.96 950.313,-112.292"/>
</g>
<!-- Node19 -->
<g id="node37" class="node"><title>Node19</title>
<a xlink:href="pagesaver_8cpp.htm" target="_top" xlink:title="pagesaver.cpp">
<polygon fill="white" stroke="black" points="800,-0.5 800,-21.5 886,-21.5 886,-0.5 800,-0.5"/>
<text text-anchor="middle" x="843" y="-8.5" font-family="Helvetica,sans-Serif" font-size="10.00">pagesaver.cpp</text>
</a>
</g>
<!-- Node2&#45;&gt;Node19 -->
<g id="edge80" class="edge"><title>Node2&#45;&gt;Node19</title>
<path fill="none" stroke="midnightblue" d="M904.737,-107.776C889.016,-83.1324 862.3,-41.2547 849.813,-21.6792"/>
<polygon fill="midnightblue" stroke="midnightblue" points="901.842,-109.747 910.171,-116.295 907.743,-105.982 901.842,-109.747"/>
</g>
<!-- Node20 -->
<g id="node40" class="node"><title>Node20</title>
<a xlink:href="pagetab_8cpp.htm" target="_top" xlink:title="pagetab.cpp">
<polygon fill="white" stroke="black" points="1114,-58.5 1114,-79.5 1188,-79.5 1188,-58.5 1114,-58.5"/>
<text text-anchor="middle" x="1151" y="-66.5" font-family="Helvetica,sans-Serif" font-size="10.00">pagetab.cpp</text>
</a>
</g>
<!-- Node2&#45;&gt;Node20 -->
<g id="edge40" class="edge"><title>Node2&#45;&gt;Node20</title>
<path fill="none" stroke="midnightblue" d="M951.639,-115.73C993.347,-104.458 1068.29,-87.4502 1113.69,-77.2917"/>
<polygon fill="midnightblue" stroke="midnightblue" points="950.489,-112.417 941.79,-118.465 952.362,-119.162 950.489,-112.417"/>
</g>
<!-- Node21 -->
<g id="node44" class="node"><title>Node21</title>
<a xlink:href="alphabetpage_8h.htm" target="_top" xlink:title="alphabetpage.h">
<polygon fill="white" stroke="black" points="232.5,-58.5 232.5,-79.5 321.5,-79.5 321.5,-58.5 232.5,-58.5"/>
<text text-anchor="middle" x="277" y="-66.5" font-family="Helvetica,sans-Serif" font-size="10.00">alphabetpage.h</text>
</a>
</g>
<!-- Node2&#45;&gt;Node21 -->
<g id="edge46" class="edge"><title>Node2&#45;&gt;Node21</title>
<path fill="none" stroke="midnightblue" d="M882.247,-123.85C773.996,-114.04 442.904,-84.035 321.894,-73.0685"/>
<polygon fill="midnightblue" stroke="midnightblue" points="882.028,-127.345 892.303,-124.762 882.66,-120.374 882.028,-127.345"/>
</g>
<!-- Node22 -->
<g id="node48" class="node"><title>Node22</title>
<a xlink:href="alphabeticonlayout_8cpp.htm" target="_top" xlink:title="alphabeticonlayout.cpp">
<polygon fill="white" stroke="black" points="0,-0.5 0,-21.5 124,-21.5 124,-0.5 0,-0.5"/>
<text text-anchor="middle" x="62" y="-8.5" font-family="Helvetica,sans-Serif" font-size="10.00">alphabeticonlayout.cpp</text>
</a>
</g>
<!-- Node2&#45;&gt;Node22 -->
<g id="edge54" class="edge"><title>Node2&#45;&gt;Node22</title>
<path fill="none" stroke="midnightblue" d="M882.018,-126.17C759.607,-123.026 351.067,-110.448 224,-80 169.894,-67.0352 110.84,-37.6299 81.2204,-21.7133"/>
<polygon fill="midnightblue" stroke="midnightblue" points="882.219,-129.676 892.304,-126.429 882.395,-122.678 882.219,-129.676"/>
</g>
<!-- Node23 -->
<g id="node51" class="node"><title>Node23</title>
<a xlink:href="iconlayout_8cpp.htm" target="_top" xlink:title="iconlayout.cpp">
<polygon fill="white" stroke="black" points="1205.5,-58.5 1205.5,-79.5 1288.5,-79.5 1288.5,-58.5 1205.5,-58.5"/>
<text text-anchor="middle" x="1247" y="-66.5" font-family="Helvetica,sans-Serif" font-size="10.00">iconlayout.cpp</text>
</a>
</g>
<!-- Node2&#45;&gt;Node23 -->
<g id="edge56" class="edge"><title>Node2&#45;&gt;Node23</title>
<path fill="none" stroke="midnightblue" d="M951.726,-115.879C1059.76,-90.8944 1091.06,-99.3471 1197,-80 1199.71,-79.505 1202.5,-78.9685 1205.3,-78.408"/>
<polygon fill="midnightblue" stroke="midnightblue" points="950.661,-112.534 941.73,-118.234 952.266,-119.347 950.661,-112.534"/>
</g>
<!-- Node24 -->
<g id="node55" class="node"><title>Node24</title>
<a xlink:href="reorderablepage_8h.htm" target="_top" xlink:title="reorderablepage.h">
<polygon fill="white" stroke="black" points="661,-58.5 661,-79.5 765,-79.5 765,-58.5 661,-58.5"/>
<text text-anchor="middle" x="713" y="-66.5" font-family="Helvetica,sans-Serif" font-size="10.00">reorderablepage.h</text>
</a>
</g>
<!-- Node2&#45;&gt;Node24 -->
<g id="edge62" class="edge"><title>Node2&#45;&gt;Node24</title>
<path fill="none" stroke="midnightblue" d="M882.634,-117.229C845.91,-106.788 787.892,-90.2928 750.137,-79.5586"/>
<polygon fill="midnightblue" stroke="midnightblue" points="881.817,-120.636 892.393,-120.004 883.731,-113.902 881.817,-120.636"/>
</g>
<!-- Node26 -->
<g id="node64" class="node"><title>Node26</title>
<a xlink:href="layoutsettings_8cpp.htm" target="_top" xlink:title="layoutsettings.cpp">
<polygon fill="white" stroke="black" points="1305.5,-58.5 1305.5,-79.5 1406.5,-79.5 1406.5,-58.5 1305.5,-58.5"/>
<text text-anchor="middle" x="1356" y="-66.5" font-family="Helvetica,sans-Serif" font-size="10.00">layoutsettings.cpp</text>
</a>
</g>
<!-- Node2&#45;&gt;Node26 -->
<g id="edge76" class="edge"><title>Node2&#45;&gt;Node26</title>
<path fill="none" stroke="midnightblue" d="M951.847,-115.949C1103.42,-84.0844 1146.85,-101.75 1297,-80 1299.68,-79.6116 1302.43,-79.1887 1305.19,-78.7422"/>
<polygon fill="midnightblue" stroke="midnightblue" points="950.75,-112.605 941.705,-118.121 952.216,-119.45 950.75,-112.605"/>
</g>
<!-- Node27 -->
<g id="node66" class="node"><title>Node27</title>
<a xlink:href="operationalsettings_8cpp.htm" target="_top" xlink:title="operationalsettings.cpp">
<polygon fill="white" stroke="black" points="1424,-58.5 1424,-79.5 1550,-79.5 1550,-58.5 1424,-58.5"/>
<text text-anchor="middle" x="1487" y="-66.5" font-family="Helvetica,sans-Serif" font-size="10.00">operationalsettings.cpp</text>
</a>
</g>
<!-- Node2&#45;&gt;Node27 -->
<g id="edge78" class="edge"><title>Node2&#45;&gt;Node27</title>
<path fill="none" stroke="midnightblue" d="M951.793,-116.02C1155.01,-75.8317 1212.39,-103.288 1415,-80 1417.89,-79.6679 1420.84,-79.3067 1423.82,-78.9243"/>
<polygon fill="midnightblue" stroke="midnightblue" points="950.805,-112.648 941.69,-118.049 952.183,-119.511 950.805,-112.648"/>
</g>
<!-- Node3&#45;&gt;Node4 -->
<g id="edge6" class="edge"><title>Node3&#45;&gt;Node4</title>
<path fill="none" stroke="midnightblue" d="M891.115,-64.6019C784.695,-57.578 575.717,-42.5024 399,-22 396.162,-21.6707 393.265,-21.3167 390.34,-20.9448"/>
<polygon fill="midnightblue" stroke="midnightblue" points="891.192,-68.1144 901.4,-65.2767 891.651,-61.1295 891.192,-68.1144"/>
</g>
<!-- Node5 -->
<g id="node9" class="node"><title>Node5</title>
<a xlink:href="dimensionsmain_8cpp.htm" target="_top" xlink:title="dimensionsmain.cpp">
<polygon fill="white" stroke="black" points="1250,-0.5 1250,-21.5 1362,-21.5 1362,-0.5 1250,-0.5"/>
<text text-anchor="middle" x="1306" y="-8.5" font-family="Helvetica,sans-Serif" font-size="10.00">dimensionsmain.cpp</text>
</a>
</g>
<!-- Node3&#45;&gt;Node5 -->
<g id="edge8" class="edge"><title>Node3&#45;&gt;Node5</title>
<path fill="none" stroke="midnightblue" d="M1030.46,-57.3664C1087.12,-47.8707 1169.24,-34.0946 1241,-22 1243.93,-21.5054 1246.94,-20.9979 1249.98,-20.485"/>
<polygon fill="midnightblue" stroke="midnightblue" points="1029.83,-53.9246 1020.54,-59.0293 1030.98,-60.8284 1029.83,-53.9246"/>
</g>
<!-- Node6 -->
<g id="node11" class="node"><title>Node6</title>
<a xlink:href="pagetabbar_8cpp.htm" target="_top" xlink:title="pagetabbar.cpp">
<polygon fill="white" stroke="black" points="1379.5,-0.5 1379.5,-21.5 1468.5,-21.5 1468.5,-0.5 1379.5,-0.5"/>
<text text-anchor="middle" x="1424" y="-8.5" font-family="Helvetica,sans-Serif" font-size="10.00">pagetabbar.cpp</text>
</a>
</g>
<!-- Node3&#45;&gt;Node6 -->
<g id="edge10" class="edge"><title>Node3&#45;&gt;Node6</title>
<path fill="none" stroke="midnightblue" d="M1030.73,-58.4255C1031.83,-58.281 1032.92,-58.1391 1034,-58 1183.4,-38.7734 1222.19,-45.3334 1371,-22 1373.69,-21.5778 1376.45,-21.1102 1379.24,-20.6127"/>
<polygon fill="midnightblue" stroke="midnightblue" points="1030.17,-54.9705 1020.73,-59.7854 1031.11,-61.9067 1030.17,-54.9705"/>
</g>
<!-- Node3&#45;&gt;Node7 -->
<g id="edge12" class="edge"><title>Node3&#45;&gt;Node7</title>
<path fill="none" stroke="midnightblue" d="M891.361,-63.0154C804.8,-55.2343 652.643,-40.434 523,-22 520.078,-21.5845 517.082,-21.1343 514.061,-20.6613"/>
<polygon fill="midnightblue" stroke="midnightblue" points="891.057,-66.5021 901.329,-63.9064 891.68,-59.5299 891.057,-66.5021"/>
</g>
<!-- Node3&#45;&gt;Node8 -->
<g id="edge14" class="edge"><title>Node3&#45;&gt;Node8</title>
<path fill="none" stroke="midnightblue" d="M1030.72,-58.324C1031.82,-58.211 1032.92,-58.1029 1034,-58 1436.51,-19.8201 1544.13,-88.1225 1943,-22 1945.91,-21.5178 1948.91,-20.8764 1951.89,-20.1447"/>
<polygon fill="midnightblue" stroke="midnightblue" points="1030.23,-54.8568 1020.69,-59.4589 1031.02,-61.8124 1030.23,-54.8568"/>
</g>
<!-- Node9 -->
<g id="node17" class="node"><title>Node9</title>
<a xlink:href="alphabetpage_8cpp.htm" target="_top" xlink:title="alphabetpage.cpp">
<polygon fill="white" stroke="black" points="141.5,-0.5 141.5,-21.5 242.5,-21.5 242.5,-0.5 141.5,-0.5"/>
<text text-anchor="middle" x="192" y="-8.5" font-family="Helvetica,sans-Serif" font-size="10.00">alphabetpage.cpp</text>
</a>
</g>
<!-- Node3&#45;&gt;Node9 -->
<g id="edge16" class="edge"><title>Node3&#45;&gt;Node9</title>
<path fill="none" stroke="midnightblue" d="M891.207,-64.8515C724.687,-54.8858 313.315,-29.8437 251,-22 248.312,-21.6617 245.562,-21.2786 242.789,-20.8634"/>
<polygon fill="midnightblue" stroke="midnightblue" points="891.148,-68.3541 901.339,-65.4573 891.566,-61.3666 891.148,-68.3541"/>
</g>
<!-- Node3&#45;&gt;Node10 -->
<g id="edge18" class="edge"><title>Node3&#45;&gt;Node10</title>
<path fill="none" stroke="midnightblue" d="M906.303,-56.2081C861.773,-45.7938 799.679,-31.2716 757.995,-21.5231"/>
<polygon fill="midnightblue" stroke="midnightblue" points="905.555,-59.6273 916.089,-58.4966 907.149,-52.8113 905.555,-59.6273"/>
</g>
<!-- Node3&#45;&gt;Node11 -->
<g id="edge20" class="edge"><title>Node3&#45;&gt;Node11</title>
<path fill="none" stroke="midnightblue" d="M1030.86,-61.4251C1044.49,-60.1314 1058.68,-58.9127 1072,-58 1491.32,-29.2624 1601.83,-87.5067 2017,-22 2019.92,-21.5395 2022.93,-20.934 2025.92,-20.2435"/>
<polygon fill="midnightblue" stroke="midnightblue" points="1030.18,-57.9743 1020.57,-62.4252 1030.86,-64.9414 1030.18,-57.9743"/>
</g>
<!-- Node12 -->
<g id="node23" class="node"><title>Node12</title>
<a xlink:href="pagemovement_8cpp.htm" target="_top" xlink:title="pagemovement.cpp">
<polygon fill="white" stroke="black" points="1485.5,-0.5 1485.5,-21.5 1594.5,-21.5 1594.5,-0.5 1485.5,-0.5"/>
<text text-anchor="middle" x="1540" y="-8.5" font-family="Helvetica,sans-Serif" font-size="10.00">pagemovement.cpp</text>
</a>
</g>
<!-- Node3&#45;&gt;Node12 -->
<g id="edge22" class="edge"><title>Node3&#45;&gt;Node12</title>
<path fill="none" stroke="midnightblue" d="M1030.73,-58.3871C1031.83,-58.2545 1032.92,-58.1254 1034,-58 1230.23,-35.2698 1281.05,-47.0147 1477,-22 1479.75,-21.6485 1482.57,-21.2608 1485.41,-20.8472"/>
<polygon fill="midnightblue" stroke="midnightblue" points="1030.19,-54.9272 1020.71,-59.6618 1031.08,-61.8712 1030.19,-54.9272"/>
</g>
<!-- Node13 -->
<g id="node25" class="node"><title>Node13</title>
<a xlink:href="reorderablepage_8cpp.htm" target="_top" xlink:title="reorderablepage.cpp">
<polygon fill="white" stroke="black" points="903.5,-0.5 903.5,-21.5 1018.5,-21.5 1018.5,-0.5 903.5,-0.5"/>
<text text-anchor="middle" x="961" y="-8.5" font-family="Helvetica,sans-Serif" font-size="10.00">reorderablepage.cpp</text>
</a>
</g>
<!-- Node3&#45;&gt;Node13 -->
<g id="edge24" class="edge"><title>Node3&#45;&gt;Node13</title>
<path fill="none" stroke="midnightblue" d="M961,-48.1906C961,-39.1684 961,-28.9941 961,-21.5707"/>
<polygon fill="midnightblue" stroke="midnightblue" points="957.5,-48.3619 961,-58.3619 964.5,-48.3619 957.5,-48.3619"/>
</g>
<!-- Node14 -->
<g id="node27" class="node"><title>Node14</title>
<a xlink:href="overlaylayer_8cpp.htm" target="_top" xlink:title="overlaylayer.cpp">
<polygon fill="white" stroke="black" points="1612,-0.5 1612,-21.5 1706,-21.5 1706,-0.5 1612,-0.5"/>
<text text-anchor="middle" x="1659" y="-8.5" font-family="Helvetica,sans-Serif" font-size="10.00">overlaylayer.cpp</text>
</a>
</g>
<!-- Node3&#45;&gt;Node14 -->
<g id="edge26" class="edge"><title>Node3&#45;&gt;Node14</title>
<path fill="none" stroke="midnightblue" d="M1030.73,-58.3599C1031.82,-58.2358 1032.92,-58.1157 1034,-58 1285.96,-31.0967 1351.7,-54.4897 1603,-22 1605.85,-21.6316 1608.77,-21.2055 1611.71,-20.7395"/>
<polygon fill="midnightblue" stroke="midnightblue" points="1030.21,-54.8968 1020.7,-59.5743 1031.05,-61.846 1030.21,-54.8968"/>
</g>
<!-- Node15 -->
<g id="node29" class="node"><title>Node15</title>
<a xlink:href="vcamera_8cpp.htm" target="_top" xlink:title="vcamera.cpp">
<polygon fill="white" stroke="black" points="1723.5,-0.5 1723.5,-21.5 1800.5,-21.5 1800.5,-0.5 1723.5,-0.5"/>
<text text-anchor="middle" x="1762" y="-8.5" font-family="Helvetica,sans-Serif" font-size="10.00">vcamera.cpp</text>
</a>
</g>
<!-- Node3&#45;&gt;Node15 -->
<g id="edge28" class="edge"><title>Node3&#45;&gt;Node15</title>
<path fill="none" stroke="midnightblue" d="M1030.72,-58.3442C1031.82,-58.2249 1032.92,-58.11 1034,-58 1335.54,-27.3836 1414.93,-64.702 1715,-22 1717.74,-21.6104 1720.55,-21.1384 1723.37,-20.6118"/>
<polygon fill="midnightblue" stroke="midnightblue" points="1030.22,-54.8792 1020.7,-59.5236 1031.04,-61.8313 1030.22,-54.8792"/>
</g>
<!-- Node16 -->
<g id="node31" class="node"><title>Node16</title>
<a xlink:href="groupanchoritem_8cpp.htm" target="_top" xlink:title="groupanchoritem.cpp">
<polygon fill="white" stroke="black" points="1818,-0.5 1818,-21.5 1934,-21.5 1934,-0.5 1818,-0.5"/>
<text text-anchor="middle" x="1876" y="-8.5" font-family="Helvetica,sans-Serif" font-size="10.00">groupanchoritem.cpp</text>
</a>
</g>
<!-- Node3&#45;&gt;Node16 -->
<g id="edge30" class="edge"><title>Node3&#45;&gt;Node16</title>
<path fill="none" stroke="midnightblue" d="M1030.72,-58.3344C1031.82,-58.2182 1032.92,-58.1066 1034,-58 1377.16,-24.2659 1466.07,-57.9927 1809,-22 1811.93,-21.6924 1814.93,-21.34 1817.95,-20.9544"/>
<polygon fill="midnightblue" stroke="midnightblue" points="1030.23,-54.8684 1020.7,-59.4924 1031.03,-61.8222 1030.23,-54.8684"/>
</g>
<!-- Node17 -->
<g id="node33" class="node"><title>Node17</title>
<a xlink:href="appeffector_8cpp.htm" target="_top" xlink:title="appeffector.cpp">
<polygon fill="white" stroke="black" points="1036,-0.5 1036,-21.5 1126,-21.5 1126,-0.5 1036,-0.5"/>
<text text-anchor="middle" x="1081" y="-8.5" font-family="Helvetica,sans-Serif" font-size="10.00">appeffector.cpp</text>
</a>
</g>
<!-- Node3&#45;&gt;Node17 -->
<g id="edge32" class="edge"><title>Node3&#45;&gt;Node17</title>
<path fill="none" stroke="midnightblue" d="M991.891,-54.0693C1012.91,-43.9121 1040.21,-30.7157 1059.03,-21.6212"/>
<polygon fill="midnightblue" stroke="midnightblue" points="990.211,-50.9937 982.731,-58.4966 993.258,-57.2961 990.211,-50.9937"/>
</g>
<!-- Node18 -->
<g id="node35" class="node"><title>Node18</title>
<a xlink:href="appmonitor_8cpp.htm" target="_top" xlink:title="appmonitor.cpp">
<polygon fill="white" stroke="black" points="1143.5,-0.5 1143.5,-21.5 1232.5,-21.5 1232.5,-0.5 1143.5,-0.5"/>
<text text-anchor="middle" x="1188" y="-8.5" font-family="Helvetica,sans-Serif" font-size="10.00">appmonitor.cpp</text>
</a>
</g>
<!-- Node3&#45;&gt;Node18 -->
<g id="edge34" class="edge"><title>Node3&#45;&gt;Node18</title>
<path fill="none" stroke="midnightblue" d="M1011.84,-56.0107C1052.54,-45.6109 1108.9,-31.2102 1146.81,-21.5231"/>
<polygon fill="midnightblue" stroke="midnightblue" points="1010.93,-52.63 1002.11,-58.4966 1012.66,-59.4121 1010.93,-52.63"/>
</g>
<!-- Node3&#45;&gt;Node19 -->
<g id="edge36" class="edge"><title>Node3&#45;&gt;Node19</title>
<path fill="none" stroke="midnightblue" d="M930.624,-54.0693C909.959,-43.9121 883.111,-30.7157 864.609,-21.6212"/>
<polygon fill="midnightblue" stroke="midnightblue" points="929.113,-57.2265 939.631,-58.4966 932.201,-50.9443 929.113,-57.2265"/>
</g>
<!-- Node21&#45;&gt;Node4 -->
<g id="edge48" class="edge"><title>Node21&#45;&gt;Node4</title>
<path fill="none" stroke="midnightblue" d="M292.277,-50.5407C300.19,-40.9786 309.568,-29.6467 316.252,-21.5707"/>
<polygon fill="midnightblue" stroke="midnightblue" points="289.483,-48.4264 285.804,-58.3619 294.876,-52.8894 289.483,-48.4264"/>
</g>
<!-- Node21&#45;&gt;Node9 -->
<g id="edge50" class="edge"><title>Node21&#45;&gt;Node9</title>
<path fill="none" stroke="midnightblue" d="M252.879,-52.5407C238.306,-42.5973 220.164,-30.2177 207.491,-21.5707"/>
<polygon fill="midnightblue" stroke="midnightblue" points="251.177,-55.6166 261.41,-58.3619 255.122,-49.8344 251.177,-55.6166"/>
</g>
<!-- Node21&#45;&gt;Node22 -->
<g id="edge52" class="edge"><title>Node21&#45;&gt;Node22</title>
<path fill="none" stroke="midnightblue" d="M228.115,-55.8123C189.623,-45.4285 136.689,-31.1487 101.008,-21.5231"/>
<polygon fill="midnightblue" stroke="midnightblue" points="227.499,-59.2712 238.065,-58.4966 229.322,-52.5128 227.499,-59.2712"/>
</g>
<!-- Node24&#45;&gt;Node4 -->
<g id="edge64" class="edge"><title>Node24&#45;&gt;Node4</title>
<path fill="none" stroke="midnightblue" d="M650.464,-59.6519C578.992,-48.9679 462.564,-31.5637 390.055,-20.7247"/>
<polygon fill="midnightblue" stroke="midnightblue" points="650.265,-63.1609 660.673,-61.1779 651.3,-56.2378 650.265,-63.1609"/>
</g>
<!-- Node24&#45;&gt;Node7 -->
<g id="edge66" class="edge"><title>Node24&#45;&gt;Node7</title>
<path fill="none" stroke="midnightblue" d="M657.421,-56.2081C612.173,-45.7938 549.077,-31.2716 506.721,-21.5231"/>
<polygon fill="midnightblue" stroke="midnightblue" points="656.834,-59.6644 667.365,-58.4966 658.405,-52.8428 656.834,-59.6644"/>
</g>
<!-- Node24&#45;&gt;Node10 -->
<g id="edge68" class="edge"><title>Node24&#45;&gt;Node10</title>
<path fill="none" stroke="midnightblue" d="M713,-48.1906C713,-39.1684 713,-28.9941 713,-21.5707"/>
<polygon fill="midnightblue" stroke="midnightblue" points="709.5,-48.3619 713,-58.3619 716.5,-48.3619 709.5,-48.3619"/>
</g>
<!-- Node24&#45;&gt;Node13 -->
<g id="edge70" class="edge"><title>Node24&#45;&gt;Node13</title>
<path fill="none" stroke="midnightblue" d="M767.697,-56.2081C812.227,-45.7938 874.321,-31.2716 916.005,-21.5231"/>
<polygon fill="midnightblue" stroke="midnightblue" points="766.851,-52.8113 757.911,-58.4966 768.445,-59.6273 766.851,-52.8113"/>
</g>
<!-- Node24&#45;&gt;Node19 -->
<g id="edge74" class="edge"><title>Node24&#45;&gt;Node19</title>
<path fill="none" stroke="midnightblue" d="M745.852,-54.3431C768.698,-44.1502 798.626,-30.7977 819.194,-21.6212"/>
<polygon fill="midnightblue" stroke="midnightblue" points="744.248,-51.2259 736.542,-58.4966 747.1,-57.6185 744.248,-51.2259"/>
</g>
<!-- Node25 -->
<g id="node61" class="node"><title>Node25</title>
<a xlink:href="pagerestore_8cpp.htm" target="_top" xlink:title="pagerestore.cpp">
<polygon fill="white" stroke="black" points="532,-0.5 532,-21.5 626,-21.5 626,-0.5 532,-0.5"/>
<text text-anchor="middle" x="579" y="-8.5" font-family="Helvetica,sans-Serif" font-size="10.00">pagerestore.cpp</text>
</a>
</g>
<!-- Node24&#45;&gt;Node25 -->
<g id="edge72" class="edge"><title>Node24&#45;&gt;Node25</title>
<path fill="none" stroke="midnightblue" d="M679.452,-54.4794C655.864,-44.2695 624.834,-30.8386 603.539,-21.6212"/>
<polygon fill="midnightblue" stroke="midnightblue" points="678.166,-57.7364 688.734,-58.4966 680.947,-51.3123 678.166,-57.7364"/>
</g>
</g>
</svg>
