<?xml version="1.0" encoding="UTF-8" standalone="no"?>
<!DOCTYPE svg PUBLIC "-//W3C//DTD SVG 1.1//EN"
 "http://www.w3.org/Graphics/SVG/1.1/DTD/svg11.dtd">
<!-- Generated by graphviz version 2.26.3 (20100126.1600)
 -->
<!-- Title: FullEraseConfirmationWindow.h Pages: 1 -->
<svg width="400pt" height="88pt"
 viewBox="0.00 0.00 400.00 88.00" xmlns="http://www.w3.org/2000/svg" xmlns:xlink="http://www.w3.org/1999/xlink">
<g id="graph1" class="graph" transform="scale(1 1) rotate(0) translate(4 84)">
<title>FullEraseConfirmationWindow.h</title>
<polygon fill="white" stroke="white" points="-4,5 -4,-84 397,-84 397,5 -4,5"/>
<!-- Node1 -->
<g id="node1" class="node"><title>Node1</title>
<polygon fill="#bfbfbf" stroke="black" points="146,-58.5 146,-79.5 312,-79.5 312,-58.5 146,-58.5"/>
<text text-anchor="middle" x="229" y="-66.5" font-family="Helvetica,sans-Serif" font-size="10.00">FullEraseConfirmationWindow.h</text>
</g>
<!-- Node2 -->
<g id="node3" class="node"><title>Node2</title>
<polygon fill="white" stroke="#bfbfbf" points="-0.5,-0.5 -0.5,-21.5 66.5,-21.5 66.5,-0.5 -0.5,-0.5"/>
<text text-anchor="middle" x="33" y="-8.5" font-family="Helvetica,sans-Serif" font-size="10.00">Common.h</text>
</g>
<!-- Node1&#45;&gt;Node2 -->
<g id="edge2" class="edge"><title>Node1&#45;&gt;Node2</title>
<path fill="none" stroke="midnightblue" d="M193.506,-58.4966C160.673,-48.7809 111.777,-34.3114 76.5856,-23.8978"/>
<polygon fill="midnightblue" stroke="midnightblue" points="77.1756,-20.4224 66.5935,-20.9409 75.1893,-27.1347 77.1756,-20.4224"/>
</g>
<!-- Node3 -->
<g id="node5" class="node"><title>Node3</title>
<polygon fill="white" stroke="#bfbfbf" points="84,-0.5 84,-21.5 182,-21.5 182,-0.5 84,-0.5"/>
<text text-anchor="middle" x="133" y="-8.5" font-family="Helvetica,sans-Serif" font-size="10.00">QGraphicsObject</text>
</g>
<!-- Node1&#45;&gt;Node3 -->
<g id="edge4" class="edge"><title>Node1&#45;&gt;Node3</title>
<path fill="none" stroke="midnightblue" d="M211.392,-58.3619C196.777,-49.532 175.776,-36.844 159.189,-26.8224"/>
<polygon fill="midnightblue" stroke="midnightblue" points="160.865,-23.7461 150.496,-21.5707 157.246,-29.7376 160.865,-23.7461"/>
</g>
<!-- Node4 -->
<g id="node7" class="node"><title>Node4</title>
<polygon fill="white" stroke="#bfbfbf" points="199.5,-0.5 199.5,-21.5 258.5,-21.5 258.5,-0.5 199.5,-0.5"/>
<text text-anchor="middle" x="229" y="-8.5" font-family="Helvetica,sans-Serif" font-size="10.00">QPainter</text>
</g>
<!-- Node1&#45;&gt;Node4 -->
<g id="edge6" class="edge"><title>Node1&#45;&gt;Node4</title>
<path fill="none" stroke="midnightblue" d="M229,-58.3619C229,-50.9219 229,-40.7427 229,-31.7276"/>
<polygon fill="midnightblue" stroke="midnightblue" points="232.5,-31.5706 229,-21.5707 225.5,-31.5707 232.5,-31.5706"/>
</g>
<!-- Node5 -->
<g id="node9" class="node"><title>Node5</title>
<polygon fill="white" stroke="#bfbfbf" points="276,-0.5 276,-21.5 322,-21.5 322,-0.5 276,-0.5"/>
<text text-anchor="middle" x="299" y="-8.5" font-family="Helvetica,sans-Serif" font-size="10.00">QFont</text>
</g>
<!-- Node1&#45;&gt;Node5 -->
<g id="edge8" class="edge"><title>Node1&#45;&gt;Node5</title>
<path fill="none" stroke="midnightblue" d="M241.839,-58.3619C252.002,-49.9408 266.401,-38.0105 278.204,-28.2308"/>
<polygon fill="midnightblue" stroke="midnightblue" points="280.775,-30.6459 286.242,-21.5707 276.309,-25.2558 280.775,-30.6459"/>
</g>
<!-- Node6 -->
<g id="node11" class="node"><title>Node6</title>
<polygon fill="white" stroke="#bfbfbf" points="340,-0.5 340,-21.5 392,-21.5 392,-0.5 340,-0.5"/>
<text text-anchor="middle" x="366" y="-8.5" font-family="Helvetica,sans-Serif" font-size="10.00">QTimer</text>
</g>
<!-- Node1&#45;&gt;Node6 -->
<g id="edge10" class="edge"><title>Node1&#45;&gt;Node6</title>
<path fill="none" stroke="midnightblue" d="M253.81,-58.4966C275.496,-49.3154 307.211,-35.8889 331.392,-25.6516"/>
<polygon fill="midnightblue" stroke="midnightblue" points="333.068,-28.7429 340.912,-21.6212 330.339,-22.2968 333.068,-28.7429"/>
</g>
</g>
</svg>
