<?xml version="1.0" encoding="UTF-8" standalone="no"?>
<!DOCTYPE svg PUBLIC "-//W3C//DTD SVG 1.1//EN"
 "http://www.w3.org/Graphics/SVG/1.1/DTD/svg11.dtd">
<!-- Generated by graphviz version 2.26.3 (20100126.1600)
 -->
<!-- Title: gfxeffectglslbase.h Pages: 1 -->
<svg width="233pt" height="146pt"
 viewBox="0.00 0.00 233.00 146.00" xmlns="http://www.w3.org/2000/svg" xmlns:xlink="http://www.w3.org/1999/xlink">
<g id="graph1" class="graph" transform="scale(1 1) rotate(0) translate(4 142)">
<title>gfxeffectglslbase.h</title>
<polygon fill="white" stroke="white" points="-4,5 -4,-142 230,-142 230,5 -4,5"/>
<!-- Node1 -->
<g id="node1" class="node"><title>Node1</title>
<polygon fill="#bfbfbf" stroke="black" points="80,-116.5 80,-137.5 184,-137.5 184,-116.5 80,-116.5"/>
<text text-anchor="middle" x="132" y="-124.5" font-family="Helvetica,sans-Serif" font-size="10.00">gfxeffectglslbase.h</text>
</g>
<!-- Node2 -->
<g id="node3" class="node"><title>Node2</title>
<a xlink:href="gfxeffectbase_8h.htm" target="_top" xlink:title="gfxeffectbase.h">
<polygon fill="white" stroke="black" points="3,-58.5 3,-79.5 91,-79.5 91,-58.5 3,-58.5"/>
<text text-anchor="middle" x="47" y="-66.5" font-family="Helvetica,sans-Serif" font-size="10.00">gfxeffectbase.h</text>
</a>
</g>
<!-- Node1&#45;&gt;Node2 -->
<g id="edge2" class="edge"><title>Node1&#45;&gt;Node2</title>
<path fill="none" stroke="midnightblue" d="M116.41,-116.362C103.709,-107.696 85.5615,-95.3126 71.0079,-85.3819"/>
<polygon fill="midnightblue" stroke="midnightblue" points="72.7245,-82.316 62.4915,-79.5707 68.779,-88.0982 72.7245,-82.316"/>
</g>
<!-- Node4 -->
<g id="node7" class="node"><title>Node4</title>
<polygon fill="white" stroke="#bfbfbf" points="109,-58.5 109,-79.5 155,-79.5 155,-58.5 109,-58.5"/>
<text text-anchor="middle" x="132" y="-66.5" font-family="Helvetica,sans-Serif" font-size="10.00">QMap</text>
</g>
<!-- Node1&#45;&gt;Node4 -->
<g id="edge6" class="edge"><title>Node1&#45;&gt;Node4</title>
<path fill="none" stroke="midnightblue" d="M132,-116.362C132,-108.922 132,-98.7427 132,-89.7276"/>
<polygon fill="midnightblue" stroke="midnightblue" points="135.5,-89.5706 132,-79.5707 128.5,-89.5707 135.5,-89.5706"/>
</g>
<!-- Node5 -->
<g id="node9" class="node"><title>Node5</title>
<polygon fill="white" stroke="#bfbfbf" points="172.5,-58.5 172.5,-79.5 225.5,-79.5 225.5,-58.5 172.5,-58.5"/>
<text text-anchor="middle" x="199" y="-66.5" font-family="Helvetica,sans-Serif" font-size="10.00">QString</text>
</g>
<!-- Node1&#45;&gt;Node5 -->
<g id="edge8" class="edge"><title>Node1&#45;&gt;Node5</title>
<path fill="none" stroke="midnightblue" d="M144.289,-116.362C154.017,-107.941 167.798,-96.0105 179.095,-86.2308"/>
<polygon fill="midnightblue" stroke="midnightblue" points="181.519,-88.7619 186.789,-79.5707 176.938,-83.4695 181.519,-88.7619"/>
</g>
<!-- Node3 -->
<g id="node5" class="node"><title>Node3</title>
<polygon fill="white" stroke="#bfbfbf" points="-0.5,-0.5 -0.5,-21.5 94.5,-21.5 94.5,-0.5 -0.5,-0.5"/>
<text text-anchor="middle" x="47" y="-8.5" font-family="Helvetica,sans-Serif" font-size="10.00">QGraphicsEffect</text>
</g>
<!-- Node2&#45;&gt;Node3 -->
<g id="edge4" class="edge"><title>Node2&#45;&gt;Node3</title>
<path fill="none" stroke="midnightblue" d="M47,-58.3619C47,-50.9219 47,-40.7427 47,-31.7276"/>
<polygon fill="midnightblue" stroke="midnightblue" points="50.5001,-31.5706 47,-21.5707 43.5001,-31.5707 50.5001,-31.5706"/>
</g>
</g>
</svg>
