<?xml version="1.0" encoding="UTF-8" standalone="no"?>
<!DOCTYPE svg PUBLIC "-//W3C//DTD SVG 1.1//EN"
 "http://www.w3.org/Graphics/SVG/1.1/DTD/svg11.dtd">
<!-- Generated by graphviz version 2.26.3 (20100126.1600)
 -->
<!-- Title: gfxsepiaeffect.h Pages: 1 -->
<svg width="258pt" height="88pt"
 viewBox="0.00 0.00 258.00 88.00" xmlns="http://www.w3.org/2000/svg" xmlns:xlink="http://www.w3.org/1999/xlink">
<g id="graph1" class="graph" transform="scale(1 1) rotate(0) translate(4 84)">
<title>gfxsepiaeffect.h</title>
<polygon fill="white" stroke="white" points="-4,5 -4,-84 255,-84 255,5 -4,5"/>
<!-- Node1 -->
<g id="node1" class="node"><title>Node1</title>
<polygon fill="#bfbfbf" stroke="black" points="86.5,-58.5 86.5,-79.5 177.5,-79.5 177.5,-58.5 86.5,-58.5"/>
<text text-anchor="middle" x="132" y="-66.5" font-family="Helvetica,sans-Serif" font-size="10.00">gfxsepiaeffect.h</text>
</g>
<!-- Node2 -->
<g id="node3" class="node"><title>Node2</title>
<a xlink:href="dimensionslauncher_8cpp.htm" target="_top" xlink:title="dimensionslauncher.cpp">
<polygon fill="white" stroke="black" points="0,-0.5 0,-21.5 130,-21.5 130,-0.5 0,-0.5"/>
<text text-anchor="middle" x="65" y="-8.5" font-family="Helvetica,sans-Serif" font-size="10.00">dimensionslauncher.cpp</text>
</a>
</g>
<!-- Node1&#45;&gt;Node2 -->
<g id="edge2" class="edge"><title>Node1&#45;&gt;Node2</title>
<path fill="none" stroke="midnightblue" d="M112.005,-51.6908C100.694,-41.8996 86.917,-29.973 77.2109,-21.5707"/>
<polygon fill="midnightblue" stroke="midnightblue" points="109.86,-54.4631 119.711,-58.3619 114.441,-49.1706 109.86,-54.4631"/>
</g>
<!-- Node3 -->
<g id="node5" class="node"><title>Node3</title>
<a xlink:href="gfxsepiaeffect_8cpp.htm" target="_top" xlink:title="gfxsepiaeffect.cpp">
<polygon fill="white" stroke="black" points="148,-0.5 148,-21.5 250,-21.5 250,-0.5 148,-0.5"/>
<text text-anchor="middle" x="199" y="-8.5" font-family="Helvetica,sans-Serif" font-size="10.00">gfxsepiaeffect.cpp</text>
</a>
</g>
<!-- Node1&#45;&gt;Node3 -->
<g id="edge4" class="edge"><title>Node1&#45;&gt;Node3</title>
<path fill="none" stroke="midnightblue" d="M151.995,-51.6908C163.306,-41.8996 177.083,-29.973 186.789,-21.5707"/>
<polygon fill="midnightblue" stroke="midnightblue" points="149.559,-49.1706 144.289,-58.3619 154.14,-54.4631 149.559,-49.1706"/>
</g>
</g>
</svg>
