<?xml version="1.0" encoding="UTF-8" standalone="no"?>
<!DOCTYPE svg PUBLIC "-//W3C//DTD SVG 1.1//EN"
 "http://www.w3.org/Graphics/SVG/1.1/DTD/svg11.dtd">
<!-- Generated by graphviz version 2.26.3 (20100126.1600)
 -->
<!-- Title: gfxsettings.h Pages: 1 -->
<svg width="1864pt" height="88pt"
 viewBox="0.00 0.00 1864.00 88.00" xmlns="http://www.w3.org/2000/svg" xmlns:xlink="http://www.w3.org/1999/xlink">
<g id="graph1" class="graph" transform="scale(1 1) rotate(0) translate(4 84)">
<title>gfxsettings.h</title>
<polygon fill="white" stroke="white" points="-4,5 -4,-84 1861,-84 1861,5 -4,5"/>
<!-- Node1 -->
<g id="node1" class="node"><title>Node1</title>
<polygon fill="#bfbfbf" stroke="black" points="828,-58.5 828,-79.5 904,-79.5 904,-58.5 828,-58.5"/>
<text text-anchor="middle" x="866" y="-66.5" font-family="Helvetica,sans-Serif" font-size="10.00">gfxsettings.h</text>
</g>
<!-- Node2 -->
<g id="node3" class="node"><title>Node2</title>
<a xlink:href="dimensionslauncher_8cpp.htm" target="_top" xlink:title="dimensionslauncher.cpp">
<polygon fill="white" stroke="black" points="0,-0.5 0,-21.5 130,-21.5 130,-0.5 0,-0.5"/>
<text text-anchor="middle" x="65" y="-8.5" font-family="Helvetica,sans-Serif" font-size="10.00">dimensionslauncher.cpp</text>
</a>
</g>
<!-- Node1&#45;&gt;Node2 -->
<g id="edge2" class="edge"><title>Node1&#45;&gt;Node2</title>
<path fill="none" stroke="midnightblue" d="M817.619,-67.2614C700.743,-62.7591 393.849,-49.1321 139,-22 136.159,-21.6975 133.259,-21.3657 130.332,-21.012"/>
<polygon fill="midnightblue" stroke="midnightblue" points="817.549,-70.7612 827.675,-67.6442 817.816,-63.7663 817.549,-70.7612"/>
</g>
<!-- Node3 -->
<g id="node5" class="node"><title>Node3</title>
<a xlink:href="pagetab_8cpp.htm" target="_top" xlink:title="pagetab.cpp">
<polygon fill="white" stroke="black" points="148,-0.5 148,-21.5 222,-21.5 222,-0.5 148,-0.5"/>
<text text-anchor="middle" x="185" y="-8.5" font-family="Helvetica,sans-Serif" font-size="10.00">pagetab.cpp</text>
</a>
</g>
<!-- Node1&#45;&gt;Node3 -->
<g id="edge4" class="edge"><title>Node1&#45;&gt;Node3</title>
<path fill="none" stroke="midnightblue" d="M817.709,-68.0709C711.181,-65.4442 448.236,-55.7885 231,-22 228.079,-21.5457 225.07,-21.0016 222.055,-20.402"/>
<polygon fill="midnightblue" stroke="midnightblue" points="817.743,-71.5726 827.823,-68.3106 817.909,-64.5746 817.743,-71.5726"/>
</g>
<!-- Node4 -->
<g id="node7" class="node"><title>Node4</title>
<a xlink:href="pagetabbar_8cpp.htm" target="_top" xlink:title="pagetabbar.cpp">
<polygon fill="white" stroke="black" points="239.5,-0.5 239.5,-21.5 328.5,-21.5 328.5,-0.5 239.5,-0.5"/>
<text text-anchor="middle" x="284" y="-8.5" font-family="Helvetica,sans-Serif" font-size="10.00">pagetabbar.cpp</text>
</a>
</g>
<!-- Node1&#45;&gt;Node4 -->
<g id="edge6" class="edge"><title>Node1&#45;&gt;Node4</title>
<path fill="none" stroke="midnightblue" d="M817.727,-66.5901C724.446,-61.5184 513.095,-48.0071 337,-22 334.304,-21.6018 331.539,-21.1527 328.754,-20.6693"/>
<polygon fill="midnightblue" stroke="midnightblue" points="817.804,-70.0991 827.977,-67.1391 818.179,-63.1092 817.804,-70.0991"/>
</g>
<!-- Node5 -->
<g id="node9" class="node"><title>Node5</title>
<a xlink:href="quicklaunchbar_8cpp.htm" target="_top" xlink:title="quicklaunchbar.cpp">
<polygon fill="white" stroke="black" points="346,-0.5 346,-21.5 452,-21.5 452,-0.5 346,-0.5"/>
<text text-anchor="middle" x="399" y="-8.5" font-family="Helvetica,sans-Serif" font-size="10.00">quicklaunchbar.cpp</text>
</a>
</g>
<!-- Node1&#45;&gt;Node5 -->
<g id="edge8" class="edge"><title>Node1&#45;&gt;Node5</title>
<path fill="none" stroke="midnightblue" d="M817.718,-64.3441C741.673,-56.798 589.428,-40.8275 461,-22 458.08,-21.5719 455.086,-21.1117 452.066,-20.631"/>
<polygon fill="midnightblue" stroke="midnightblue" points="817.636,-67.853 827.932,-65.3524 818.324,-60.8869 817.636,-67.853"/>
</g>
<!-- Node6 -->
<g id="node11" class="node"><title>Node6</title>
<a xlink:href="icon_8cpp.htm" target="_top" xlink:title="icon.cpp">
<polygon fill="white" stroke="black" points="470,-0.5 470,-21.5 526,-21.5 526,-0.5 470,-0.5"/>
<text text-anchor="middle" x="498" y="-8.5" font-family="Helvetica,sans-Serif" font-size="10.00">icon.cpp</text>
</a>
</g>
<!-- Node1&#45;&gt;Node6 -->
<g id="edge10" class="edge"><title>Node1&#45;&gt;Node6</title>
<path fill="none" stroke="midnightblue" d="M817.633,-64.3985C752.803,-57.7163 634.373,-43.7019 535,-22 532.119,-21.3709 529.136,-20.6331 526.17,-19.8425"/>
<polygon fill="midnightblue" stroke="midnightblue" points="817.647,-67.9178 827.949,-65.4463 818.354,-60.9536 817.647,-67.9178"/>
</g>
<!-- Node7 -->
<g id="node13" class="node"><title>Node7</title>
<a xlink:href="iconheap_8cpp.htm" target="_top" xlink:title="iconheap.cpp">
<polygon fill="white" stroke="black" points="544,-0.5 544,-21.5 624,-21.5 624,-0.5 544,-0.5"/>
<text text-anchor="middle" x="584" y="-8.5" font-family="Helvetica,sans-Serif" font-size="10.00">iconheap.cpp</text>
</a>
</g>
<!-- Node1&#45;&gt;Node7 -->
<g id="edge12" class="edge"><title>Node1&#45;&gt;Node7</title>
<path fill="none" stroke="midnightblue" d="M817.664,-59.5688C770.496,-50.2901 696.734,-35.5802 633,-22 630.101,-21.3822 627.107,-20.7345 624.096,-20.0757"/>
<polygon fill="midnightblue" stroke="midnightblue" points="817.116,-63.0279 827.603,-61.5209 818.465,-56.1591 817.116,-63.0279"/>
</g>
<!-- Node8 -->
<g id="node15" class="node"><title>Node8</title>
<a xlink:href="alphabeticonlayout_8cpp.htm" target="_top" xlink:title="alphabeticonlayout.cpp">
<polygon fill="white" stroke="black" points="642,-0.5 642,-21.5 766,-21.5 766,-0.5 642,-0.5"/>
<text text-anchor="middle" x="704" y="-8.5" font-family="Helvetica,sans-Serif" font-size="10.00">alphabeticonlayout.cpp</text>
</a>
</g>
<!-- Node1&#45;&gt;Node8 -->
<g id="edge14" class="edge"><title>Node1&#45;&gt;Node8</title>
<path fill="none" stroke="midnightblue" d="M826.923,-55.0095C798.134,-44.7023 759.591,-30.903 733.392,-21.5231"/>
<polygon fill="midnightblue" stroke="midnightblue" points="826.068,-58.421 836.663,-58.4966 828.428,-51.8307 826.068,-58.421"/>
</g>
<!-- Node9 -->
<g id="node17" class="node"><title>Node9</title>
<a xlink:href="page_8cpp.htm" target="_top" xlink:title="page.cpp">
<polygon fill="white" stroke="black" points="784,-0.5 784,-21.5 844,-21.5 844,-0.5 784,-0.5"/>
<text text-anchor="middle" x="814" y="-8.5" font-family="Helvetica,sans-Serif" font-size="10.00">page.cpp</text>
</a>
</g>
<!-- Node1&#45;&gt;Node9 -->
<g id="edge16" class="edge"><title>Node1&#45;&gt;Node9</title>
<path fill="none" stroke="midnightblue" d="M849.71,-50.8299C841.083,-41.2078 830.791,-29.7282 823.477,-21.5707"/>
<polygon fill="midnightblue" stroke="midnightblue" points="847.181,-53.2526 856.462,-58.3619 852.393,-48.5798 847.181,-53.2526"/>
</g>
<!-- Node10 -->
<g id="node19" class="node"><title>Node10</title>
<a xlink:href="reorderablepage_8cpp.htm" target="_top" xlink:title="reorderablepage.cpp">
<polygon fill="white" stroke="black" points="861.5,-0.5 861.5,-21.5 976.5,-21.5 976.5,-0.5 861.5,-0.5"/>
<text text-anchor="middle" x="919" y="-8.5" font-family="Helvetica,sans-Serif" font-size="10.00">reorderablepage.cpp</text>
</a>
</g>
<!-- Node1&#45;&gt;Node10 -->
<g id="edge18" class="edge"><title>Node1&#45;&gt;Node10</title>
<path fill="none" stroke="midnightblue" d="M882.604,-50.8299C891.396,-41.2078 901.886,-29.7282 909.341,-21.5707"/>
<polygon fill="midnightblue" stroke="midnightblue" points="879.883,-48.6188 875.721,-58.3619 885.051,-53.3408 879.883,-48.6188"/>
</g>
<!-- Node11 -->
<g id="node21" class="node"><title>Node11</title>
<a xlink:href="pixpagerdebugger_8cpp.htm" target="_top" xlink:title="pixpagerdebugger.cpp">
<polygon fill="white" stroke="black" points="994,-0.5 994,-21.5 1116,-21.5 1116,-0.5 994,-0.5"/>
<text text-anchor="middle" x="1055" y="-8.5" font-family="Helvetica,sans-Serif" font-size="10.00">pixpagerdebugger.cpp</text>
</a>
</g>
<!-- Node1&#45;&gt;Node11 -->
<g id="edge20" class="edge"><title>Node1&#45;&gt;Node11</title>
<path fill="none" stroke="midnightblue" d="M909.84,-55.5464C943.602,-45.1857 989.61,-31.0668 1020.71,-21.5231"/>
<polygon fill="midnightblue" stroke="midnightblue" points="908.76,-52.2168 900.226,-58.4966 910.813,-58.9088 908.76,-52.2168"/>
</g>
<!-- Node12 -->
<g id="node23" class="node"><title>Node12</title>
<a xlink:href="gfxsettings_8cpp.htm" target="_top" xlink:title="gfxsettings.cpp">
<polygon fill="white" stroke="black" points="1133.5,-0.5 1133.5,-21.5 1220.5,-21.5 1220.5,-0.5 1133.5,-0.5"/>
<text text-anchor="middle" x="1177" y="-8.5" font-family="Helvetica,sans-Serif" font-size="10.00">gfxsettings.cpp</text>
</a>
</g>
<!-- Node1&#45;&gt;Node12 -->
<g id="edge22" class="edge"><title>Node1&#45;&gt;Node12</title>
<path fill="none" stroke="midnightblue" d="M914.201,-60.683C966.272,-51.5979 1051.64,-36.4122 1125,-22 1127.72,-21.4663 1130.51,-20.9067 1133.33,-20.3345"/>
<polygon fill="midnightblue" stroke="midnightblue" points="913.496,-57.2531 904.244,-62.4166 914.697,-64.1493 913.496,-57.2531"/>
</g>
<!-- Node13 -->
<g id="node25" class="node"><title>Node13</title>
<a xlink:href="pixmaphugeobject_8cpp.htm" target="_top" xlink:title="pixmaphugeobject.cpp">
<polygon fill="white" stroke="black" points="1237.5,-0.5 1237.5,-21.5 1358.5,-21.5 1358.5,-0.5 1237.5,-0.5"/>
<text text-anchor="middle" x="1298" y="-8.5" font-family="Helvetica,sans-Serif" font-size="10.00">pixmaphugeobject.cpp</text>
</a>
</g>
<!-- Node1&#45;&gt;Node13 -->
<g id="edge24" class="edge"><title>Node1&#45;&gt;Node13</title>
<path fill="none" stroke="midnightblue" d="M914.42,-63.1889C984.069,-54.726 1116.53,-38.2423 1229,-22 1231.76,-21.6012 1234.58,-21.1853 1237.43,-20.7585"/>
<polygon fill="midnightblue" stroke="midnightblue" points="913.708,-59.7496 904.202,-64.4277 914.55,-66.6987 913.708,-59.7496"/>
</g>
<!-- Node14 -->
<g id="node27" class="node"><title>Node14</title>
<a xlink:href="pixmapjupocobject_8cpp.htm" target="_top" xlink:title="pixmapjupocobject.cpp">
<polygon fill="white" stroke="black" points="1376,-0.5 1376,-21.5 1498,-21.5 1498,-0.5 1376,-0.5"/>
<text text-anchor="middle" x="1437" y="-8.5" font-family="Helvetica,sans-Serif" font-size="10.00">pixmapjupocobject.cpp</text>
</a>
</g>
<!-- Node1&#45;&gt;Node14 -->
<g id="edge26" class="edge"><title>Node1&#45;&gt;Node14</title>
<path fill="none" stroke="midnightblue" d="M914.22,-65.4817C1003.67,-58.7321 1201.28,-42.7737 1367,-22 1369.93,-21.6328 1372.93,-21.2377 1375.95,-20.8233"/>
<polygon fill="midnightblue" stroke="midnightblue" points="913.823,-62.0016 904.113,-66.2399 914.346,-68.982 913.823,-62.0016"/>
</g>
<!-- Node15 -->
<g id="node29" class="node"><title>Node15</title>
<a xlink:href="pixpager_8cpp.htm" target="_top" xlink:title="pixpager.cpp">
<polygon fill="white" stroke="black" points="1515.5,-0.5 1515.5,-21.5 1592.5,-21.5 1592.5,-0.5 1515.5,-0.5"/>
<text text-anchor="middle" x="1554" y="-8.5" font-family="Helvetica,sans-Serif" font-size="10.00">pixpager.cpp</text>
</a>
</g>
<!-- Node1&#45;&gt;Node15 -->
<g id="edge28" class="edge"><title>Node1&#45;&gt;Node15</title>
<path fill="none" stroke="midnightblue" d="M914.343,-68.038C1021.6,-65.3402 1287.36,-55.5429 1507,-22 1509.73,-21.5825 1512.54,-21.0899 1515.36,-20.5484"/>
<polygon fill="midnightblue" stroke="midnightblue" points="914.076,-64.5434 904.163,-68.2845 914.245,-71.5413 914.076,-64.5434"/>
</g>
<!-- Node16 -->
<g id="node31" class="node"><title>Node16</title>
<a xlink:href="vcamera_8cpp.htm" target="_top" xlink:title="vcamera.cpp">
<polygon fill="white" stroke="black" points="1609.5,-0.5 1609.5,-21.5 1686.5,-21.5 1686.5,-0.5 1609.5,-0.5"/>
<text text-anchor="middle" x="1648" y="-8.5" font-family="Helvetica,sans-Serif" font-size="10.00">vcamera.cpp</text>
</a>
</g>
<!-- Node1&#45;&gt;Node16 -->
<g id="edge30" class="edge"><title>Node1&#45;&gt;Node16</title>
<path fill="none" stroke="midnightblue" d="M914.328,-66.9601C1055.84,-60.8201 1467.73,-41.7172 1601,-22 1603.74,-21.5953 1606.55,-21.1121 1609.37,-20.5774"/>
<polygon fill="midnightblue" stroke="midnightblue" points="914.06,-63.4683 904.22,-67.3965 914.362,-70.4618 914.06,-63.4683"/>
</g>
<!-- Node17 -->
<g id="node33" class="node"><title>Node17</title>
<a xlink:href="OverlayWindowManager_8cpp.htm" target="_top" xlink:title="OverlayWindowManager.cpp">
<polygon fill="white" stroke="black" points="1703.5,-0.5 1703.5,-21.5 1856.5,-21.5 1856.5,-0.5 1703.5,-0.5"/>
<text text-anchor="middle" x="1780" y="-8.5" font-family="Helvetica,sans-Serif" font-size="10.00">OverlayWindowManager.cpp</text>
</a>
</g>
<!-- Node1&#45;&gt;Node17 -->
<g id="edge32" class="edge"><title>Node1&#45;&gt;Node17</title>
<path fill="none" stroke="midnightblue" d="M914.302,-67.479C1042,-63.1943 1399.02,-49.5055 1695,-22 1697.67,-21.7522 1700.38,-21.4848 1703.12,-21.2019"/>
<polygon fill="midnightblue" stroke="midnightblue" points="913.961,-63.9883 904.083,-67.8181 914.193,-70.9844 913.961,-63.9883"/>
</g>
</g>
</svg>
