<?xml version="1.0" encoding="UTF-8" standalone="no"?>
<!DOCTYPE svg PUBLIC "-//W3C//DTD SVG 1.1//EN"
 "http://www.w3.org/Graphics/SVG/1.1/DTD/svg11.dtd">
<!-- Generated by graphviz version 2.26.3 (20100126.1600)
 -->
<!-- Title: gfxsettings.h Pages: 1 -->
<svg width="452pt" height="88pt"
 viewBox="0.00 0.00 452.00 88.00" xmlns="http://www.w3.org/2000/svg" xmlns:xlink="http://www.w3.org/1999/xlink">
<g id="graph1" class="graph" transform="scale(1 1) rotate(0) translate(4 84)">
<title>gfxsettings.h</title>
<polygon fill="white" stroke="white" points="-4,5 -4,-84 449,-84 449,5 -4,5"/>
<!-- Node1 -->
<g id="node1" class="node"><title>Node1</title>
<polygon fill="#bfbfbf" stroke="black" points="195,-58.5 195,-79.5 271,-79.5 271,-58.5 195,-58.5"/>
<text text-anchor="middle" x="233" y="-66.5" font-family="Helvetica,sans-Serif" font-size="10.00">gfxsettings.h</text>
</g>
<!-- Node2 -->
<g id="node3" class="node"><title>Node2</title>
<polygon fill="white" stroke="#bfbfbf" points="-0.5,-0.5 -0.5,-21.5 66.5,-21.5 66.5,-0.5 -0.5,-0.5"/>
<text text-anchor="middle" x="33" y="-8.5" font-family="Helvetica,sans-Serif" font-size="10.00">Common.h</text>
</g>
<!-- Node1&#45;&gt;Node2 -->
<g id="edge2" class="edge"><title>Node1&#45;&gt;Node2</title>
<path fill="none" stroke="midnightblue" d="M196.782,-58.4966C162.93,-48.6796 112.341,-34.009 76.3556,-23.5731"/>
<polygon fill="midnightblue" stroke="midnightblue" points="77.1982,-20.1733 66.6191,-20.7495 75.2485,-26.8964 77.1982,-20.1733"/>
</g>
<!-- Node3 -->
<g id="node5" class="node"><title>Node3</title>
<polygon fill="white" stroke="#bfbfbf" points="83.5,-0.5 83.5,-21.5 136.5,-21.5 136.5,-0.5 83.5,-0.5"/>
<text text-anchor="middle" x="110" y="-8.5" font-family="Helvetica,sans-Serif" font-size="10.00">QString</text>
</g>
<!-- Node1&#45;&gt;Node3 -->
<g id="edge4" class="edge"><title>Node1&#45;&gt;Node3</title>
<path fill="none" stroke="midnightblue" d="M210.726,-58.4966C191.428,-49.397 163.287,-36.1273 141.652,-25.9253"/>
<polygon fill="midnightblue" stroke="midnightblue" points="143.062,-22.7206 132.524,-21.6212 140.076,-29.052 143.062,-22.7206"/>
</g>
<!-- Node4 -->
<g id="node7" class="node"><title>Node4</title>
<polygon fill="white" stroke="#bfbfbf" points="154,-0.5 154,-21.5 200,-21.5 200,-0.5 154,-0.5"/>
<text text-anchor="middle" x="177" y="-8.5" font-family="Helvetica,sans-Serif" font-size="10.00">vector</text>
</g>
<!-- Node1&#45;&gt;Node4 -->
<g id="edge6" class="edge"><title>Node1&#45;&gt;Node4</title>
<path fill="none" stroke="midnightblue" d="M222.729,-58.3619C214.756,-50.1043 203.525,-38.4725 194.189,-28.8029"/>
<polygon fill="midnightblue" stroke="midnightblue" points="196.67,-26.3336 187.206,-21.5707 191.634,-31.1958 196.67,-26.3336"/>
</g>
<!-- Node5 -->
<g id="node9" class="node"><title>Node5</title>
<polygon fill="white" stroke="#bfbfbf" points="217.5,-0.5 217.5,-21.5 248.5,-21.5 248.5,-0.5 217.5,-0.5"/>
<text text-anchor="middle" x="233" y="-8.5" font-family="Helvetica,sans-Serif" font-size="10.00">set</text>
</g>
<!-- Node1&#45;&gt;Node5 -->
<g id="edge8" class="edge"><title>Node1&#45;&gt;Node5</title>
<path fill="none" stroke="midnightblue" d="M233,-58.3619C233,-50.9219 233,-40.7427 233,-31.7276"/>
<polygon fill="midnightblue" stroke="midnightblue" points="236.5,-31.5706 233,-21.5707 229.5,-31.5707 236.5,-31.5706"/>
</g>
<!-- Node6 -->
<g id="node11" class="node"><title>Node6</title>
<polygon fill="white" stroke="#bfbfbf" points="265.5,-0.5 265.5,-21.5 306.5,-21.5 306.5,-0.5 265.5,-0.5"/>
<text text-anchor="middle" x="286" y="-8.5" font-family="Helvetica,sans-Serif" font-size="10.00">glib.h</text>
</g>
<!-- Node1&#45;&gt;Node6 -->
<g id="edge10" class="edge"><title>Node1&#45;&gt;Node6</title>
<path fill="none" stroke="midnightblue" d="M242.721,-58.3619C250.192,-50.1861 260.686,-38.7025 269.469,-29.0907"/>
<polygon fill="midnightblue" stroke="midnightblue" points="272.179,-31.3138 276.341,-21.5707 267.011,-26.5918 272.179,-31.3138"/>
</g>
<!-- Node7 -->
<g id="node13" class="node"><title>Node7</title>
<polygon fill="white" stroke="#bfbfbf" points="324,-0.5 324,-21.5 382,-21.5 382,-0.5 324,-0.5"/>
<text text-anchor="middle" x="353" y="-8.5" font-family="Helvetica,sans-Serif" font-size="10.00">QtGlobal</text>
</g>
<!-- Node1&#45;&gt;Node7 -->
<g id="edge12" class="edge"><title>Node1&#45;&gt;Node7</title>
<path fill="none" stroke="midnightblue" d="M254.731,-58.4966C273.474,-49.4378 300.767,-36.2462 321.836,-26.0628"/>
<polygon fill="midnightblue" stroke="midnightblue" points="323.545,-29.1242 331.025,-21.6212 320.498,-22.8217 323.545,-29.1242"/>
</g>
<!-- Node8 -->
<g id="node15" class="node"><title>Node8</title>
<polygon fill="white" stroke="#bfbfbf" points="399.5,-0.5 399.5,-21.5 444.5,-21.5 444.5,-0.5 399.5,-0.5"/>
<text text-anchor="middle" x="422" y="-8.5" font-family="Helvetica,sans-Serif" font-size="10.00">QSize</text>
</g>
<!-- Node1&#45;&gt;Node8 -->
<g id="edge14" class="edge"><title>Node1&#45;&gt;Node8</title>
<path fill="none" stroke="midnightblue" d="M270.52,-58.4325C300.507,-49.8544 343.82,-37.1714 389.565,-22.375"/>
<polygon fill="midnightblue" stroke="midnightblue" points="390.934,-25.6102 399.359,-19.1863 388.767,-18.954 390.934,-25.6102"/>
</g>
</g>
</svg>
