<?xml version="1.0" encoding="UTF-8" standalone="no"?>
<!DOCTYPE svg PUBLIC "-//W3C//DTD SVG 1.1//EN"
 "http://www.w3.org/Graphics/SVG/1.1/DTD/svg11.dtd">
<!-- Generated by graphviz version 2.26.3 (20100126.1600)
 -->
<!-- Title: GhostCard.h Pages: 1 -->
<svg width="368pt" height="88pt"
 viewBox="0.00 0.00 368.00 88.00" xmlns="http://www.w3.org/2000/svg" xmlns:xlink="http://www.w3.org/1999/xlink">
<g id="graph1" class="graph" transform="scale(1 1) rotate(0) translate(4 84)">
<title>GhostCard.h</title>
<polygon fill="white" stroke="white" points="-4,5 -4,-84 365,-84 365,5 -4,5"/>
<!-- Node1 -->
<g id="node1" class="node"><title>Node1</title>
<polygon fill="#bfbfbf" stroke="black" points="145.5,-58.5 145.5,-79.5 222.5,-79.5 222.5,-58.5 145.5,-58.5"/>
<text text-anchor="middle" x="184" y="-66.5" font-family="Helvetica,sans-Serif" font-size="10.00">GhostCard.h</text>
</g>
<!-- Node2 -->
<g id="node3" class="node"><title>Node2</title>
<a xlink:href="CardWindow_8cpp.htm" target="_top" xlink:title="CardWindow.cpp">
<polygon fill="white" stroke="black" points="-0.5,-0.5 -0.5,-21.5 96.5,-21.5 96.5,-0.5 -0.5,-0.5"/>
<text text-anchor="middle" x="48" y="-8.5" font-family="Helvetica,sans-Serif" font-size="10.00">CardWindow.cpp</text>
</a>
</g>
<!-- Node1&#45;&gt;Node2 -->
<g id="edge2" class="edge"><title>Node1&#45;&gt;Node2</title>
<path fill="none" stroke="midnightblue" d="M149.952,-54.4794C126.011,-44.2695 94.5181,-30.8386 72.9049,-21.6212"/>
<polygon fill="midnightblue" stroke="midnightblue" points="148.8,-57.7932 159.371,-58.4966 151.546,-51.3543 148.8,-57.7932"/>
</g>
<!-- Node3 -->
<g id="node5" class="node"><title>Node3</title>
<a xlink:href="CardWindowManager_8cpp.htm" target="_top" xlink:title="CardWindowManager.cpp">
<polygon fill="white" stroke="black" points="114,-0.5 114,-21.5 254,-21.5 254,-0.5 114,-0.5"/>
<text text-anchor="middle" x="184" y="-8.5" font-family="Helvetica,sans-Serif" font-size="10.00">CardWindowManager.cpp</text>
</a>
</g>
<!-- Node1&#45;&gt;Node3 -->
<g id="edge4" class="edge"><title>Node1&#45;&gt;Node3</title>
<path fill="none" stroke="midnightblue" d="M184,-48.1906C184,-39.1684 184,-28.9941 184,-21.5707"/>
<polygon fill="midnightblue" stroke="midnightblue" points="180.5,-48.3619 184,-58.3619 187.5,-48.3619 180.5,-48.3619"/>
</g>
<!-- Node4 -->
<g id="node7" class="node"><title>Node4</title>
<a xlink:href="GhostCard_8cpp.htm" target="_top" xlink:title="GhostCard.cpp">
<polygon fill="white" stroke="black" points="272,-0.5 272,-21.5 360,-21.5 360,-0.5 272,-0.5"/>
<text text-anchor="middle" x="316" y="-8.5" font-family="Helvetica,sans-Serif" font-size="10.00">GhostCard.cpp</text>
</a>
</g>
<!-- Node1&#45;&gt;Node4 -->
<g id="edge6" class="edge"><title>Node1&#45;&gt;Node4</title>
<path fill="none" stroke="midnightblue" d="M217.357,-54.3431C240.555,-44.1502 270.943,-30.7977 291.828,-21.6212"/>
<polygon fill="midnightblue" stroke="midnightblue" points="215.651,-51.2695 207.904,-58.4966 218.467,-57.6782 215.651,-51.2695"/>
</g>
</g>
</svg>
