<?xml version="1.0" encoding="UTF-8" standalone="no"?>
<!DOCTYPE svg PUBLIC "-//W3C//DTD SVG 1.1//EN"
 "http://www.w3.org/Graphics/SVG/1.1/DTD/svg11.dtd">
<!-- Generated by graphviz version 2.26.3 (20100126.1600)
 -->
<!-- Title: GhostCard.cpp Pages: 1 -->
<svg width="2359pt" height="378pt"
 viewBox="0.00 0.00 2359.00 378.00" xmlns="http://www.w3.org/2000/svg" xmlns:xlink="http://www.w3.org/1999/xlink">
<g id="graph1" class="graph" transform="scale(1 1) rotate(0) translate(4 374)">
<title>GhostCard.cpp</title>
<polygon fill="white" stroke="white" points="-4,5 -4,-374 2356,-374 2356,5 -4,5"/>
<!-- Node1 -->
<g id="node1" class="node"><title>Node1</title>
<polygon fill="#bfbfbf" stroke="black" points="342,-348.5 342,-369.5 430,-369.5 430,-348.5 342,-348.5"/>
<text text-anchor="middle" x="386" y="-356.5" font-family="Helvetica,sans-Serif" font-size="10.00">GhostCard.cpp</text>
</g>
<!-- Node2 -->
<g id="node3" class="node"><title>Node2</title>
<a xlink:href="GhostCard_8h.htm" target="_top" xlink:title="GhostCard.h">
<polygon fill="white" stroke="black" points="347.5,-290.5 347.5,-311.5 424.5,-311.5 424.5,-290.5 347.5,-290.5"/>
<text text-anchor="middle" x="386" y="-298.5" font-family="Helvetica,sans-Serif" font-size="10.00">GhostCard.h</text>
</a>
</g>
<!-- Node1&#45;&gt;Node2 -->
<g id="edge2" class="edge"><title>Node1&#45;&gt;Node2</title>
<path fill="none" stroke="midnightblue" d="M386,-348.362C386,-340.922 386,-330.743 386,-321.728"/>
<polygon fill="midnightblue" stroke="midnightblue" points="389.5,-321.571 386,-311.571 382.5,-321.571 389.5,-321.571"/>
</g>
<!-- Node3 -->
<g id="node5" class="node"><title>Node3</title>
<polygon fill="white" stroke="#bfbfbf" points="1103.5,-0.5 1103.5,-21.5 1170.5,-21.5 1170.5,-0.5 1103.5,-0.5"/>
<text text-anchor="middle" x="1137" y="-8.5" font-family="Helvetica,sans-Serif" font-size="10.00">Common.h</text>
</g>
<!-- Node2&#45;&gt;Node3 -->
<g id="edge4" class="edge"><title>Node2&#45;&gt;Node3</title>
<path fill="none" stroke="midnightblue" d="M347.222,-297.667C249.337,-288.191 0,-256.986 0,-185 0,-185 0,-185 0,-127 0,45.5252 210.725,-78.7281 382,-58 650.984,-25.447 976.77,-14.8377 1093.11,-11.9455"/>
<polygon fill="midnightblue" stroke="midnightblue" points="1093.47,-15.4378 1103.38,-11.6968 1093.3,-8.43989 1093.47,-15.4378"/>
</g>
<!-- Node4 -->
<g id="node7" class="node"><title>Node4</title>
<a xlink:href="CardWindow_8h.htm" target="_top" xlink:title="CardWindow.h">
<polygon fill="white" stroke="black" points="730,-232.5 730,-253.5 816,-253.5 816,-232.5 730,-232.5"/>
<text text-anchor="middle" x="773" y="-240.5" font-family="Helvetica,sans-Serif" font-size="10.00">CardWindow.h</text>
</a>
</g>
<!-- Node2&#45;&gt;Node4 -->
<g id="edge6" class="edge"><title>Node2&#45;&gt;Node4</title>
<path fill="none" stroke="midnightblue" d="M424.522,-295.227C494.051,-284.806 640.622,-262.84 719.711,-250.986"/>
<polygon fill="midnightblue" stroke="midnightblue" points="720.572,-254.397 729.943,-249.453 719.534,-247.474 720.572,-254.397"/>
</g>
<!-- Node4&#45;&gt;Node3 -->
<g id="edge8" class="edge"><title>Node4&#45;&gt;Node3</title>
<path fill="none" stroke="midnightblue" d="M729.819,-241.777C578.499,-237.285 80.0977,-220.664 57,-196 50.3163,-188.863 51.7138,-182.226 57,-174 90.5477,-121.798 124.466,-133.497 184,-116 358.629,-64.6772 930.401,-24.4133 1093.32,-13.7693"/>
<polygon fill="midnightblue" stroke="midnightblue" points="1093.7,-17.2521 1103.45,-13.1112 1093.24,-10.2668 1093.7,-17.2521"/>
</g>
<!-- Node5 -->
<g id="node10" class="node"><title>Node5</title>
<polygon fill="white" stroke="#bfbfbf" points="65.5,-174.5 65.5,-195.5 128.5,-195.5 128.5,-174.5 65.5,-174.5"/>
<text text-anchor="middle" x="97" y="-182.5" font-family="Helvetica,sans-Serif" font-size="10.00">Settings.h</text>
</g>
<!-- Node4&#45;&gt;Node5 -->
<g id="edge10" class="edge"><title>Node4&#45;&gt;Node5</title>
<path fill="none" stroke="midnightblue" d="M729.872,-242.241C627.336,-239.905 361.17,-230.705 142,-196 140.928,-195.83 139.843,-195.648 138.751,-195.454"/>
<polygon fill="midnightblue" stroke="midnightblue" points="139.318,-191.998 128.826,-193.469 137.945,-198.863 139.318,-191.998"/>
</g>
<!-- Node6 -->
<g id="node12" class="node"><title>Node6</title>
<polygon fill="white" stroke="#bfbfbf" points="582,-116.5 582,-137.5 634,-137.5 634,-116.5 582,-116.5"/>
<text text-anchor="middle" x="608" y="-124.5" font-family="Helvetica,sans-Serif" font-size="10.00">Event.h</text>
</g>
<!-- Node4&#45;&gt;Node6 -->
<g id="edge12" class="edge"><title>Node4&#45;&gt;Node6</title>
<path fill="none" stroke="midnightblue" d="M729.882,-241.113C631.365,-236.36 396.437,-222.352 373,-196 366.502,-188.694 366.801,-181.562 373,-174 397.697,-143.874 512.001,-132.673 571.607,-128.83"/>
<polygon fill="midnightblue" stroke="midnightblue" points="571.952,-132.316 581.721,-128.215 571.527,-125.329 571.952,-132.316"/>
</g>
<!-- Node7 -->
<g id="node14" class="node"><title>Node7</title>
<a xlink:href="HostWindow_8h.htm" target="_top" xlink:title="HostWindow.h">
<polygon fill="white" stroke="black" points="1939,-116.5 1939,-137.5 2023,-137.5 2023,-116.5 1939,-116.5"/>
<text text-anchor="middle" x="1981" y="-124.5" font-family="Helvetica,sans-Serif" font-size="10.00">HostWindow.h</text>
</a>
</g>
<!-- Node4&#45;&gt;Node7 -->
<g id="edge14" class="edge"><title>Node4&#45;&gt;Node7</title>
<path fill="none" stroke="midnightblue" d="M816.156,-241.59C969.809,-236.431 1489.86,-217.743 1655,-196 1754.09,-182.954 1867.9,-156.093 1931.44,-140.004"/>
<polygon fill="midnightblue" stroke="midnightblue" points="1932.37,-143.379 1941.2,-137.518 1930.64,-136.596 1932.37,-143.379"/>
</g>
<!-- Node22 -->
<g id="node49" class="node"><title>Node22</title>
<polygon fill="white" stroke="#bfbfbf" points="184,-174.5 184,-195.5 326,-195.5 326,-174.5 184,-174.5"/>
<text text-anchor="middle" x="255" y="-182.5" font-family="Helvetica,sans-Serif" font-size="10.00">AppLaunchOptionsEvent.h</text>
</g>
<!-- Node4&#45;&gt;Node22 -->
<g id="edge54" class="edge"><title>Node4&#45;&gt;Node22</title>
<path fill="none" stroke="midnightblue" d="M729.946,-238.623C652.075,-230.641 482.663,-212.972 340,-196 338.892,-195.868 337.776,-195.735 336.653,-195.6"/>
<polygon fill="midnightblue" stroke="midnightblue" points="336.758,-192.087 326.408,-194.349 335.91,-199.035 336.758,-192.087"/>
</g>
<!-- Node23 -->
<g id="node51" class="node"><title>Node23</title>
<a xlink:href="SystemUiController_8h.htm" target="_top" xlink:title="SystemUiController.h">
<polygon fill="white" stroke="black" points="1344,-174.5 1344,-195.5 1460,-195.5 1460,-174.5 1344,-174.5"/>
<text text-anchor="middle" x="1402" y="-182.5" font-family="Helvetica,sans-Serif" font-size="10.00">SystemUiController.h</text>
</a>
</g>
<!-- Node4&#45;&gt;Node23 -->
<g id="edge56" class="edge"><title>Node4&#45;&gt;Node23</title>
<path fill="none" stroke="midnightblue" d="M816.129,-240.563C908.896,-235.069 1134.46,-220.36 1333.86,-196.061"/>
<polygon fill="midnightblue" stroke="midnightblue" points="1334.44,-199.516 1343.94,-194.822 1333.58,-192.569 1334.44,-199.516"/>
</g>
<!-- Node40 -->
<g id="node101" class="node"><title>Node40</title>
<polygon fill="white" stroke="#bfbfbf" points="1202.5,-58.5 1202.5,-79.5 1261.5,-79.5 1261.5,-58.5 1202.5,-58.5"/>
<text text-anchor="middle" x="1232" y="-66.5" font-family="Helvetica,sans-Serif" font-size="10.00">QPointer</text>
</g>
<!-- Node4&#45;&gt;Node40 -->
<g id="edge144" class="edge"><title>Node4&#45;&gt;Node40</title>
<path fill="none" stroke="midnightblue" d="M816.032,-241.752C947.643,-237.676 1343.43,-223.407 1469,-196 1540.05,-180.493 1580.68,-197.846 1622,-138 1627.55,-129.953 1628.55,-123.257 1622,-116 1571.26,-59.8058 1363.44,-92.352 1271.81,-79.8173"/>
<polygon fill="midnightblue" stroke="midnightblue" points="1272.18,-76.332 1261.75,-78.1595 1271.04,-83.2389 1272.18,-76.332"/>
</g>
<!-- Node41 -->
<g id="node106" class="node"><title>Node41</title>
<polygon fill="white" stroke="#bfbfbf" points="381.5,-174.5 381.5,-195.5 492.5,-195.5 492.5,-174.5 381.5,-174.5"/>
<text text-anchor="middle" x="437" y="-182.5" font-family="Helvetica,sans-Serif" font-size="10.00">WindowProperties.h</text>
</g>
<!-- Node4&#45;&gt;Node41 -->
<g id="edge130" class="edge"><title>Node4&#45;&gt;Node41</title>
<path fill="none" stroke="midnightblue" d="M729.762,-235.536C672.189,-225.598 569.832,-207.929 502.689,-196.339"/>
<polygon fill="midnightblue" stroke="midnightblue" points="503.087,-192.856 492.637,-194.604 501.896,-199.754 503.087,-192.856"/>
</g>
<!-- Node42 -->
<g id="node108" class="node"><title>Node42</title>
<polygon fill="white" stroke="#bfbfbf" points="510,-174.5 510,-195.5 666,-195.5 666,-174.5 510,-174.5"/>
<text text-anchor="middle" x="588" y="-182.5" font-family="Helvetica,sans-Serif" font-size="10.00">QGraphicsSceneMouseEvent</text>
</g>
<!-- Node4&#45;&gt;Node42 -->
<g id="edge132" class="edge"><title>Node4&#45;&gt;Node42</title>
<path fill="none" stroke="midnightblue" d="M739.498,-232.497C709.207,-223 664.43,-208.962 631.407,-198.609"/>
<polygon fill="midnightblue" stroke="midnightblue" points="632.154,-195.175 621.565,-195.523 630.06,-201.854 632.154,-195.175"/>
</g>
<!-- Node43 -->
<g id="node110" class="node"><title>Node43</title>
<polygon fill="white" stroke="#bfbfbf" points="683.5,-174.5 683.5,-195.5 764.5,-195.5 764.5,-174.5 683.5,-174.5"/>
<text text-anchor="middle" x="724" y="-182.5" font-family="Helvetica,sans-Serif" font-size="10.00">QTouchEvent</text>
</g>
<!-- Node4&#45;&gt;Node43 -->
<g id="edge134" class="edge"><title>Node4&#45;&gt;Node43</title>
<path fill="none" stroke="midnightblue" d="M764.013,-232.362C757.175,-224.268 747.598,-212.932 739.528,-203.38"/>
<polygon fill="midnightblue" stroke="midnightblue" points="742.058,-200.951 732.93,-195.571 736.71,-205.468 742.058,-200.951"/>
</g>
<!-- Node44 -->
<g id="node112" class="node"><title>Node44</title>
<polygon fill="white" stroke="#bfbfbf" points="782,-174.5 782,-195.5 862,-195.5 862,-174.5 782,-174.5"/>
<text text-anchor="middle" x="822" y="-182.5" font-family="Helvetica,sans-Serif" font-size="10.00">QPainterPath</text>
</g>
<!-- Node4&#45;&gt;Node44 -->
<g id="edge136" class="edge"><title>Node4&#45;&gt;Node44</title>
<path fill="none" stroke="midnightblue" d="M781.987,-232.362C788.825,-224.268 798.402,-212.932 806.472,-203.38"/>
<polygon fill="midnightblue" stroke="midnightblue" points="809.29,-205.468 813.07,-195.571 803.942,-200.951 809.29,-205.468"/>
</g>
<!-- Node45 -->
<g id="node114" class="node"><title>Node45</title>
<polygon fill="white" stroke="#bfbfbf" points="879.5,-174.5 879.5,-195.5 938.5,-195.5 938.5,-174.5 879.5,-174.5"/>
<text text-anchor="middle" x="909" y="-182.5" font-family="Helvetica,sans-Serif" font-size="10.00">QPainter</text>
</g>
<!-- Node4&#45;&gt;Node45 -->
<g id="edge138" class="edge"><title>Node4&#45;&gt;Node45</title>
<path fill="none" stroke="midnightblue" d="M797.629,-232.497C819.157,-223.315 850.64,-209.889 874.645,-199.652"/>
<polygon fill="midnightblue" stroke="midnightblue" points="876.27,-202.764 884.095,-195.621 873.524,-196.325 876.27,-202.764"/>
</g>
<!-- Node46 -->
<g id="node116" class="node"><title>Node46</title>
<polygon fill="white" stroke="#bfbfbf" points="955.5,-174.5 955.5,-195.5 1024.5,-195.5 1024.5,-174.5 955.5,-174.5"/>
<text text-anchor="middle" x="990" y="-182.5" font-family="Helvetica,sans-Serif" font-size="10.00">QVector3D</text>
</g>
<!-- Node4&#45;&gt;Node46 -->
<g id="edge140" class="edge"><title>Node4&#45;&gt;Node46</title>
<path fill="none" stroke="midnightblue" d="M812.297,-232.497C849.824,-222.466 906.306,-207.37 945.479,-196.9"/>
<polygon fill="midnightblue" stroke="midnightblue" points="946.534,-200.241 955.291,-194.277 944.727,-193.478 946.534,-200.241"/>
</g>
<!-- Node47 -->
<g id="node118" class="node"><title>Node47</title>
<polygon fill="white" stroke="#bfbfbf" points="1042,-174.5 1042,-195.5 1116,-195.5 1116,-174.5 1042,-174.5"/>
<text text-anchor="middle" x="1079" y="-182.5" font-family="Helvetica,sans-Serif" font-size="10.00">QTransform</text>
</g>
<!-- Node4&#45;&gt;Node47 -->
<g id="edge142" class="edge"><title>Node4&#45;&gt;Node47</title>
<path fill="none" stroke="midnightblue" d="M816.388,-235.919C866.102,-227.637 950.233,-213.107 1031.93,-196.144"/>
<polygon fill="midnightblue" stroke="midnightblue" points="1032.81,-199.537 1041.88,-194.064 1031.38,-192.685 1032.81,-199.537"/>
</g>
<!-- Node48 -->
<g id="node121" class="node"><title>Node48</title>
<polygon fill="white" stroke="#bfbfbf" points="1134,-174.5 1134,-195.5 1246,-195.5 1246,-174.5 1134,-174.5"/>
<text text-anchor="middle" x="1190" y="-182.5" font-family="Helvetica,sans-Serif" font-size="10.00">QPropertyAnimation</text>
</g>
<!-- Node4&#45;&gt;Node48 -->
<g id="edge146" class="edge"><title>Node4&#45;&gt;Node48</title>
<path fill="none" stroke="midnightblue" d="M816.148,-237.731C880.705,-229.74 1006.52,-213.751 1123.45,-196.199"/>
<polygon fill="midnightblue" stroke="midnightblue" points="1124.28,-199.612 1133.65,-194.66 1123.24,-192.691 1124.28,-199.612"/>
</g>
<!-- Node49 -->
<g id="node123" class="node"><title>Node49</title>
<polygon fill="white" stroke="#bfbfbf" points="1264,-174.5 1264,-195.5 1326,-195.5 1326,-174.5 1264,-174.5"/>
<text text-anchor="middle" x="1295" y="-182.5" font-family="Helvetica,sans-Serif" font-size="10.00">QGesture</text>
</g>
<!-- Node4&#45;&gt;Node49 -->
<g id="edge148" class="edge"><title>Node4&#45;&gt;Node49</title>
<path fill="none" stroke="midnightblue" d="M816.225,-241.267C899.351,-237.399 1087.28,-226.065 1253.75,-195.98"/>
<polygon fill="midnightblue" stroke="midnightblue" points="1254.47,-199.407 1263.67,-194.16 1253.21,-192.522 1254.47,-199.407"/>
</g>
<!-- Node50 -->
<g id="node125" class="node"><title>Node50</title>
<a xlink:href="CardRoundedCornerShaderStage_8h.htm" target="_top" xlink:title="CardRoundedCornerShaderStage.h">
<polygon fill="white" stroke="black" points="193,-116.5 193,-137.5 379,-137.5 379,-116.5 193,-116.5"/>
<text text-anchor="middle" x="286" y="-124.5" font-family="Helvetica,sans-Serif" font-size="10.00">CardRoundedCornerShaderStage.h</text>
</a>
</g>
<!-- Node4&#45;&gt;Node50 -->
<g id="edge150" class="edge"><title>Node4&#45;&gt;Node50</title>
<path fill="none" stroke="midnightblue" d="M729.646,-241.191C595.304,-235.377 193.822,-216.36 175,-196 152.28,-171.424 192.59,-152.262 230.841,-140.434"/>
<polygon fill="midnightblue" stroke="midnightblue" points="231.883,-143.775 240.482,-137.586 229.9,-137.062 231.883,-143.775"/>
</g>
<!-- Node7&#45;&gt;Node3 -->
<g id="edge16" class="edge"><title>Node7&#45;&gt;Node3</title>
<path fill="none" stroke="midnightblue" d="M1938.83,-124.135C1825.12,-116.263 1517.8,-93.9621 1474,-80 1455.41,-74.0725 1454.41,-64.4786 1436,-58 1336.33,-22.922 1305.29,-38.9499 1201,-22 1194.35,-20.9186 1187.31,-19.7422 1180.43,-18.5742"/>
<polygon fill="midnightblue" stroke="midnightblue" points="1180.98,-15.1168 1170.53,-16.881 1179.8,-22.0166 1180.98,-15.1168"/>
</g>
<!-- Node7&#45;&gt;Node7 -->
<g id="edge34" class="edge"><title>Node7&#45;&gt;Node7</title>
<path fill="none" stroke="midnightblue" d="M2011.56,-137.524C2027.08,-139.061 2041,-135.553 2041,-127 2041,-120.385 2032.67,-116.788 2021.72,-116.208"/>
<polygon fill="midnightblue" stroke="midnightblue" points="2021.47,-112.714 2011.56,-116.476 2021.65,-119.711 2021.47,-112.714"/>
</g>
<!-- Node8 -->
<g id="node17" class="node"><title>Node8</title>
<a xlink:href="Window_8h.htm" target="_top" xlink:title="Window.h">
<polygon fill="white" stroke="black" points="1483,-58.5 1483,-79.5 1545,-79.5 1545,-58.5 1483,-58.5"/>
<text text-anchor="middle" x="1514" y="-66.5" font-family="Helvetica,sans-Serif" font-size="10.00">Window.h</text>
</a>
</g>
<!-- Node7&#45;&gt;Node8 -->
<g id="edge18" class="edge"><title>Node7&#45;&gt;Node8</title>
<path fill="none" stroke="midnightblue" d="M1938.94,-122.196C1867.56,-113.98 1718.13,-96.5121 1592,-80 1580.04,-78.4348 1567.07,-76.6429 1555.2,-74.9661"/>
<polygon fill="midnightblue" stroke="midnightblue" points="1555.5,-71.4734 1545.1,-73.5308 1554.51,-78.4037 1555.5,-71.4734"/>
</g>
<!-- Node15 -->
<g id="node33" class="node"><title>Node15</title>
<a xlink:href="HostWindowData_8h.htm" target="_top" xlink:title="HostWindowData.h">
<polygon fill="white" stroke="black" points="2060.5,-58.5 2060.5,-79.5 2167.5,-79.5 2167.5,-58.5 2060.5,-58.5"/>
<text text-anchor="middle" x="2114" y="-66.5" font-family="Helvetica,sans-Serif" font-size="10.00">HostWindowData.h</text>
</a>
</g>
<!-- Node7&#45;&gt;Node15 -->
<g id="edge36" class="edge"><title>Node7&#45;&gt;Node15</title>
<path fill="none" stroke="midnightblue" d="M2005.09,-116.497C2026.14,-107.315 2056.93,-93.8889 2080.4,-83.6516"/>
<polygon fill="midnightblue" stroke="midnightblue" points="2081.88,-86.8268 2089.64,-79.6212 2079.08,-80.4104 2081.88,-86.8268"/>
</g>
<!-- Node18 -->
<g id="node40" class="node"><title>Node18</title>
<a xlink:href="InputClient_8h.htm" target="_top" xlink:title="InputClient.h">
<polygon fill="white" stroke="black" points="2184.5,-58.5 2184.5,-79.5 2259.5,-79.5 2259.5,-58.5 2184.5,-58.5"/>
<text text-anchor="middle" x="2222" y="-66.5" font-family="Helvetica,sans-Serif" font-size="10.00">InputClient.h</text>
</a>
</g>
<!-- Node7&#45;&gt;Node18 -->
<g id="edge44" class="edge"><title>Node7&#45;&gt;Node18</title>
<path fill="none" stroke="midnightblue" d="M2023.25,-116.831C2065.46,-106.673 2130.23,-91.0859 2174.27,-80.4874"/>
<polygon fill="midnightblue" stroke="midnightblue" points="2175.26,-83.8492 2184.16,-78.1065 2173.62,-77.0435 2175.26,-83.8492"/>
</g>
<!-- Node20 -->
<g id="node45" class="node"><title>Node20</title>
<polygon fill="white" stroke="#bfbfbf" points="2277,-58.5 2277,-79.5 2351,-79.5 2351,-58.5 2277,-58.5"/>
<text text-anchor="middle" x="2314" y="-66.5" font-family="Helvetica,sans-Serif" font-size="10.00">PIpcBuffer.h</text>
</g>
<!-- Node7&#45;&gt;Node20 -->
<g id="edge50" class="edge"><title>Node7&#45;&gt;Node20</title>
<path fill="none" stroke="midnightblue" d="M2023.48,-121.026C2077.68,-113.187 2174.51,-98.4587 2266.82,-80.1342"/>
<polygon fill="midnightblue" stroke="midnightblue" points="2267.78,-83.5129 2276.89,-78.1169 2266.4,-76.6493 2267.78,-83.5129"/>
</g>
<!-- Node21 -->
<g id="node47" class="node"><title>Node21</title>
<polygon fill="white" stroke="#bfbfbf" points="1919,-58.5 1919,-79.5 2043,-79.5 2043,-58.5 1919,-58.5"/>
<text text-anchor="middle" x="1981" y="-66.5" font-family="Helvetica,sans-Serif" font-size="10.00">PIpcChannelListener.h</text>
</g>
<!-- Node7&#45;&gt;Node21 -->
<g id="edge52" class="edge"><title>Node7&#45;&gt;Node21</title>
<path fill="none" stroke="midnightblue" d="M1981,-116.362C1981,-108.922 1981,-98.7427 1981,-89.7276"/>
<polygon fill="midnightblue" stroke="midnightblue" points="1984.5,-89.5706 1981,-79.5707 1977.5,-89.5707 1984.5,-89.5706"/>
</g>
<!-- Node8&#45;&gt;Node3 -->
<g id="edge20" class="edge"><title>Node8&#45;&gt;Node3</title>
<path fill="none" stroke="midnightblue" d="M1482.62,-60.879C1478.07,-59.8322 1473.43,-58.8357 1469,-58 1350.91,-35.6999 1319.8,-40.1819 1201,-22 1194.34,-20.9801 1187.29,-19.8365 1180.41,-18.6826"/>
<polygon fill="midnightblue" stroke="midnightblue" points="1180.96,-15.2248 1170.51,-16.9979 1179.78,-22.1256 1180.96,-15.2248"/>
</g>
<!-- Node9 -->
<g id="node20" class="node"><title>Node9</title>
<polygon fill="white" stroke="#bfbfbf" points="1468,-0.5 1468,-21.5 1560,-21.5 1560,-0.5 1468,-0.5"/>
<text text-anchor="middle" x="1514" y="-8.5" font-family="Helvetica,sans-Serif" font-size="10.00">WindowTypes.h</text>
</g>
<!-- Node8&#45;&gt;Node9 -->
<g id="edge22" class="edge"><title>Node8&#45;&gt;Node9</title>
<path fill="none" stroke="midnightblue" d="M1514,-58.3619C1514,-50.9219 1514,-40.7427 1514,-31.7276"/>
<polygon fill="midnightblue" stroke="midnightblue" points="1517.5,-31.5706 1514,-21.5707 1510.5,-31.5707 1517.5,-31.5706"/>
</g>
<!-- Node10 -->
<g id="node22" class="node"><title>Node10</title>
<polygon fill="white" stroke="#bfbfbf" points="1578,-0.5 1578,-21.5 1628,-21.5 1628,-0.5 1578,-0.5"/>
<text text-anchor="middle" x="1603" y="-8.5" font-family="Helvetica,sans-Serif" font-size="10.00">stdint.h</text>
</g>
<!-- Node8&#45;&gt;Node10 -->
<g id="edge24" class="edge"><title>Node8&#45;&gt;Node10</title>
<path fill="none" stroke="midnightblue" d="M1530.32,-58.3619C1543.75,-49.6138 1562.98,-37.0786 1578.29,-27.1015"/>
<polygon fill="midnightblue" stroke="midnightblue" points="1580.31,-29.9628 1586.78,-21.5707 1576.49,-24.0982 1580.31,-29.9628"/>
</g>
<!-- Node11 -->
<g id="node24" class="node"><title>Node11</title>
<polygon fill="white" stroke="#bfbfbf" points="1831.5,-0.5 1831.5,-21.5 1874.5,-21.5 1874.5,-0.5 1831.5,-0.5"/>
<text text-anchor="middle" x="1853" y="-8.5" font-family="Helvetica,sans-Serif" font-size="10.00">string</text>
</g>
<!-- Node8&#45;&gt;Node11 -->
<g id="edge26" class="edge"><title>Node8&#45;&gt;Node11</title>
<path fill="none" stroke="midnightblue" d="M1545.34,-64.0438C1597.44,-55.745 1705.14,-38.3364 1796,-22 1804.23,-20.5203 1813.11,-18.8443 1821.36,-17.2547"/>
<polygon fill="midnightblue" stroke="midnightblue" points="1822.22,-20.6527 1831.37,-15.3086 1820.89,-13.7813 1822.22,-20.6527"/>
</g>
<!-- Node12 -->
<g id="node26" class="node"><title>Node12</title>
<polygon fill="white" stroke="#bfbfbf" points="1347.5,-0.5 1347.5,-21.5 1388.5,-21.5 1388.5,-0.5 1347.5,-0.5"/>
<text text-anchor="middle" x="1368" y="-8.5" font-family="Helvetica,sans-Serif" font-size="10.00">glib.h</text>
</g>
<!-- Node8&#45;&gt;Node12 -->
<g id="edge28" class="edge"><title>Node8&#45;&gt;Node12</title>
<path fill="none" stroke="midnightblue" d="M1487.56,-58.4966C1462.35,-48.4811 1424.42,-33.414 1398.07,-22.9456"/>
<polygon fill="midnightblue" stroke="midnightblue" points="1399.17,-19.6181 1388.59,-19.1788 1396.59,-26.1236 1399.17,-19.6181"/>
</g>
<!-- Node13 -->
<g id="node28" class="node"><title>Node13</title>
<polygon fill="white" stroke="#bfbfbf" points="1210,-0.5 1210,-21.5 1308,-21.5 1308,-0.5 1210,-0.5"/>
<text text-anchor="middle" x="1259" y="-8.5" font-family="Helvetica,sans-Serif" font-size="10.00">QGraphicsObject</text>
</g>
<!-- Node8&#45;&gt;Node13 -->
<g id="edge30" class="edge"><title>Node8&#45;&gt;Node13</title>
<path fill="none" stroke="midnightblue" d="M1482.55,-61.2286C1478.01,-60.1304 1473.39,-59.0266 1469,-58 1417.81,-46.0165 1359.45,-33.0061 1317.26,-23.7187"/>
<polygon fill="midnightblue" stroke="midnightblue" points="1317.96,-20.2883 1307.44,-21.5592 1316.45,-27.125 1317.96,-20.2883"/>
</g>
<!-- Node14 -->
<g id="node30" class="node"><title>Node14</title>
<polygon fill="white" stroke="#bfbfbf" points="1405.5,-0.5 1405.5,-21.5 1450.5,-21.5 1450.5,-0.5 1405.5,-0.5"/>
<text text-anchor="middle" x="1428" y="-8.5" font-family="Helvetica,sans-Serif" font-size="10.00">QSize</text>
</g>
<!-- Node8&#45;&gt;Node14 -->
<g id="edge32" class="edge"><title>Node8&#45;&gt;Node14</title>
<path fill="none" stroke="midnightblue" d="M1498.23,-58.3619C1485.38,-49.6955 1467.02,-37.3126 1452.29,-27.3819"/>
<polygon fill="midnightblue" stroke="midnightblue" points="1453.92,-24.2604 1443.67,-21.5707 1450.01,-30.0639 1453.92,-24.2604"/>
</g>
<!-- Node15&#45;&gt;Node3 -->
<g id="edge38" class="edge"><title>Node15&#45;&gt;Node3</title>
<path fill="none" stroke="midnightblue" d="M2060.29,-59.02C2057.49,-58.6411 2054.72,-58.2971 2052,-58 1675.68,-16.843 1577.43,-62.1445 1201,-22 1194.53,-21.3096 1187.72,-20.3709 1181.05,-19.331"/>
<polygon fill="midnightblue" stroke="midnightblue" points="1181.2,-15.8088 1170.77,-17.6349 1180.06,-22.7155 1181.2,-15.8088"/>
</g>
<!-- Node16 -->
<g id="node36" class="node"><title>Node16</title>
<polygon fill="white" stroke="#bfbfbf" points="1943.5,-0.5 1943.5,-21.5 2002.5,-21.5 2002.5,-0.5 1943.5,-0.5"/>
<text text-anchor="middle" x="1973" y="-8.5" font-family="Helvetica,sans-Serif" font-size="10.00">QPixmap</text>
</g>
<!-- Node15&#45;&gt;Node16 -->
<g id="edge40" class="edge"><title>Node15&#45;&gt;Node16</title>
<path fill="none" stroke="midnightblue" d="M2088.47,-58.4966C2066.05,-49.2746 2033.22,-35.7695 2008.29,-25.5153"/>
<polygon fill="midnightblue" stroke="midnightblue" points="2009.4,-22.1886 1998.82,-21.6212 2006.74,-28.6623 2009.4,-22.1886"/>
</g>
<!-- Node17 -->
<g id="node38" class="node"><title>Node17</title>
<polygon fill="white" stroke="#bfbfbf" points="2070,-0.5 2070,-21.5 2156,-21.5 2156,-0.5 2070,-0.5"/>
<text text-anchor="middle" x="2113" y="-8.5" font-family="Helvetica,sans-Serif" font-size="10.00">PIpcChannel.h</text>
</g>
<!-- Node15&#45;&gt;Node17 -->
<g id="edge42" class="edge"><title>Node15&#45;&gt;Node17</title>
<path fill="none" stroke="midnightblue" d="M2113.82,-58.3619C2113.69,-50.9219 2113.51,-40.7427 2113.36,-31.7276"/>
<polygon fill="midnightblue" stroke="midnightblue" points="2116.85,-31.5088 2113.18,-21.5707 2109.86,-31.6295 2116.85,-31.5088"/>
</g>
<!-- Node18&#45;&gt;Node11 -->
<g id="edge48" class="edge"><title>Node18&#45;&gt;Node11</title>
<path fill="none" stroke="midnightblue" d="M2184.4,-59.7177C2181.57,-59.1066 2178.74,-58.5262 2176,-58 2120.42,-47.3332 1954.93,-24.6984 1884.88,-15.2658"/>
<polygon fill="midnightblue" stroke="midnightblue" points="1885.26,-11.7844 1874.88,-13.9209 1884.32,-18.722 1885.26,-11.7844"/>
</g>
<!-- Node19 -->
<g id="node42" class="node"><title>Node19</title>
<polygon fill="white" stroke="#bfbfbf" points="2174,-0.5 2174,-21.5 2272,-21.5 2272,-0.5 2174,-0.5"/>
<text text-anchor="middle" x="2223" y="-8.5" font-family="Helvetica,sans-Serif" font-size="10.00">palmimedefines.h</text>
</g>
<!-- Node18&#45;&gt;Node19 -->
<g id="edge46" class="edge"><title>Node18&#45;&gt;Node19</title>
<path fill="none" stroke="midnightblue" d="M2222.18,-58.3619C2222.31,-50.9219 2222.49,-40.7427 2222.64,-31.7276"/>
<polygon fill="midnightblue" stroke="midnightblue" points="2226.14,-31.6295 2222.82,-21.5707 2219.15,-31.5088 2226.14,-31.6295"/>
</g>
<!-- Node23&#45;&gt;Node3 -->
<g id="edge58" class="edge"><title>Node23&#45;&gt;Node3</title>
<path fill="none" stroke="midnightblue" d="M1343.94,-175.109C1340.92,-174.707 1337.93,-174.333 1335,-174 1272.94,-166.932 816.729,-183.559 774,-138 679.105,-36.8205 977.332,-16.2214 1093.09,-12.051"/>
<polygon fill="midnightblue" stroke="midnightblue" points="1093.5,-15.5392 1103.38,-11.7065 1093.27,-8.54312 1093.5,-15.5392"/>
</g>
<!-- Node23&#45;&gt;Node6 -->
<g id="edge102" class="edge"><title>Node23&#45;&gt;Node6</title>
<path fill="none" stroke="midnightblue" d="M1343.95,-175.096C1340.92,-174.697 1337.93,-174.328 1335,-174 1072.16,-144.537 1004.81,-156.901 741,-138 708.357,-135.661 671.246,-132.555 644.535,-130.239"/>
<polygon fill="midnightblue" stroke="midnightblue" points="644.749,-126.745 634.483,-129.363 644.141,-133.718 644.749,-126.745"/>
</g>
<!-- Node23&#45;&gt;Node8 -->
<g id="edge114" class="edge"><title>Node23&#45;&gt;Node8</title>
<path fill="none" stroke="midnightblue" d="M1394.66,-174.196C1385.82,-159.705 1373.61,-133.746 1386,-116 1396.28,-101.267 1439.38,-87.4813 1472.75,-78.6992"/>
<polygon fill="midnightblue" stroke="midnightblue" points="1473.93,-82.01 1482.75,-76.1388 1472.2,-75.2288 1473.93,-82.01"/>
</g>
<!-- Node23&#45;&gt;Node11 -->
<g id="edge60" class="edge"><title>Node23&#45;&gt;Node11</title>
<path fill="none" stroke="midnightblue" d="M1460.31,-181.468C1565.96,-174.601 1780.67,-158.327 1808,-138 1841.47,-113.104 1850.15,-61.2669 1852.33,-32.1033"/>
<polygon fill="midnightblue" stroke="midnightblue" points="1855.84,-31.9821 1852.9,-21.8042 1848.85,-31.5958 1855.84,-31.9821"/>
</g>
<!-- Node24 -->
<g id="node55" class="node"><title>Node24</title>
<polygon fill="white" stroke="#bfbfbf" points="1035,-116.5 1035,-137.5 1087,-137.5 1087,-116.5 1035,-116.5"/>
<text text-anchor="middle" x="1061" y="-124.5" font-family="Helvetica,sans-Serif" font-size="10.00">QEvent</text>
</g>
<!-- Node23&#45;&gt;Node24 -->
<g id="edge62" class="edge"><title>Node23&#45;&gt;Node24</title>
<path fill="none" stroke="midnightblue" d="M1343.9,-175.413C1340.89,-174.932 1337.91,-174.458 1335,-174 1231.99,-157.787 1202.38,-161.909 1097.01,-137.976"/>
<polygon fill="midnightblue" stroke="midnightblue" points="1097.78,-134.563 1087.25,-135.731 1096.21,-141.385 1097.78,-134.563"/>
</g>
<!-- Node25 -->
<g id="node57" class="node"><title>Node25</title>
<polygon fill="white" stroke="#bfbfbf" points="1105,-116.5 1105,-137.5 1175,-137.5 1175,-116.5 1105,-116.5"/>
<text text-anchor="middle" x="1140" y="-124.5" font-family="Helvetica,sans-Serif" font-size="10.00">QKeyEvent</text>
</g>
<!-- Node23&#45;&gt;Node25 -->
<g id="edge64" class="edge"><title>Node23&#45;&gt;Node25</title>
<path fill="none" stroke="midnightblue" d="M1353.77,-174.41C1310.59,-164.917 1245.56,-150.588 1189,-138 1187.73,-137.718 1186.44,-137.431 1185.15,-137.141"/>
<polygon fill="midnightblue" stroke="midnightblue" points="1185.58,-133.653 1175.06,-134.887 1184.06,-140.484 1185.58,-133.653"/>
</g>
<!-- Node26 -->
<g id="node59" class="node"><title>Node26</title>
<polygon fill="white" stroke="#bfbfbf" points="1394.5,-116.5 1394.5,-137.5 1477.5,-137.5 1477.5,-116.5 1394.5,-116.5"/>
<text text-anchor="middle" x="1436" y="-124.5" font-family="Helvetica,sans-Serif" font-size="10.00">QMouseEvent</text>
</g>
<!-- Node23&#45;&gt;Node26 -->
<g id="edge66" class="edge"><title>Node23&#45;&gt;Node26</title>
<path fill="none" stroke="midnightblue" d="M1408.24,-174.362C1412.84,-166.513 1419.23,-155.616 1424.71,-146.253"/>
<polygon fill="midnightblue" stroke="midnightblue" points="1427.77,-147.968 1429.8,-137.571 1421.73,-144.428 1427.77,-147.968"/>
</g>
<!-- Node27 -->
<g id="node61" class="node"><title>Node27</title>
<polygon fill="white" stroke="#bfbfbf" points="1494.5,-116.5 1494.5,-137.5 1549.5,-137.5 1549.5,-116.5 1494.5,-116.5"/>
<text text-anchor="middle" x="1522" y="-124.5" font-family="Helvetica,sans-Serif" font-size="10.00">QObject</text>
</g>
<!-- Node23&#45;&gt;Node27 -->
<g id="edge68" class="edge"><title>Node23&#45;&gt;Node27</title>
<path fill="none" stroke="midnightblue" d="M1423.73,-174.497C1442.47,-165.438 1469.77,-152.246 1490.84,-142.063"/>
<polygon fill="midnightblue" stroke="midnightblue" points="1492.54,-145.124 1500.03,-137.621 1489.5,-138.822 1492.54,-145.124"/>
</g>
<!-- Node28 -->
<g id="node63" class="node"><title>Node28</title>
<polygon fill="white" stroke="#bfbfbf" points="1566.5,-116.5 1566.5,-137.5 1613.5,-137.5 1613.5,-116.5 1566.5,-116.5"/>
<text text-anchor="middle" x="1590" y="-124.5" font-family="Helvetica,sans-Serif" font-size="10.00">QRect</text>
</g>
<!-- Node23&#45;&gt;Node28 -->
<g id="edge70" class="edge"><title>Node23&#45;&gt;Node28</title>
<path fill="none" stroke="midnightblue" d="M1438.37,-174.472C1467.96,-165.811 1511.02,-152.993 1556.52,-138.409"/>
<polygon fill="midnightblue" stroke="midnightblue" points="1557.82,-141.668 1566.27,-135.271 1555.68,-135.006 1557.82,-141.668"/>
</g>
<!-- Node29 -->
<g id="node65" class="node"><title>Node29</title>
<polygon fill="white" stroke="#bfbfbf" points="782.5,-116.5 782.5,-137.5 875.5,-137.5 875.5,-116.5 782.5,-116.5"/>
<text text-anchor="middle" x="829" y="-124.5" font-family="Helvetica,sans-Serif" font-size="10.00">QSharedPointer</text>
</g>
<!-- Node23&#45;&gt;Node29 -->
<g id="edge72" class="edge"><title>Node23&#45;&gt;Node29</title>
<path fill="none" stroke="midnightblue" d="M1343.94,-175.164C1340.92,-174.748 1337.93,-174.356 1335,-174 1138.61,-150.082 1084.88,-165.258 885.651,-138.107"/>
<polygon fill="midnightblue" stroke="midnightblue" points="886.129,-134.639 875.744,-136.738 885.171,-141.574 886.129,-134.639"/>
</g>
<!-- Node30 -->
<g id="node67" class="node"><title>Node30</title>
<polygon fill="white" stroke="#bfbfbf" points="893,-116.5 893,-137.5 979,-137.5 979,-116.5 893,-116.5"/>
<text text-anchor="middle" x="936" y="-124.5" font-family="Helvetica,sans-Serif" font-size="10.00">QWeakPointer</text>
</g>
<!-- Node23&#45;&gt;Node30 -->
<g id="edge74" class="edge"><title>Node23&#45;&gt;Node30</title>
<path fill="none" stroke="midnightblue" d="M1343.93,-175.255C1340.91,-174.814 1337.92,-174.393 1335,-174 1183.53,-153.611 1144.17,-160.501 993,-138 991.738,-137.812 990.462,-137.616 989.176,-137.413"/>
<polygon fill="midnightblue" stroke="midnightblue" points="989.634,-133.941 979.193,-135.739 988.477,-140.845 989.634,-133.941"/>
</g>
<!-- Node31 -->
<g id="node69" class="node"><title>Node31</title>
<a xlink:href="ApplicationDescription_8h.htm" target="_top" xlink:title="ApplicationDescription.h">
<polygon fill="white" stroke="red" points="1669,-116.5 1669,-137.5 1799,-137.5 1799,-116.5 1669,-116.5"/>
<text text-anchor="middle" x="1734" y="-124.5" font-family="Helvetica,sans-Serif" font-size="10.00">ApplicationDescription.h</text>
</a>
</g>
<!-- Node23&#45;&gt;Node31 -->
<g id="edge76" class="edge"><title>Node23&#45;&gt;Node31</title>
<path fill="none" stroke="midnightblue" d="M1460.21,-174.831C1517.02,-164.906 1603.51,-149.796 1664.04,-139.223"/>
<polygon fill="midnightblue" stroke="midnightblue" points="1664.65,-142.669 1673.89,-137.501 1663.44,-135.774 1664.65,-142.669"/>
</g>
<!-- Node36 -->
<g id="node88" class="node"><title>Node36</title>
<a xlink:href="SuspendBlocker_8h.htm" target="_top" xlink:title="SuspendBlocker.h">
<polygon fill="white" stroke="red" points="1278.5,-58.5 1278.5,-79.5 1379.5,-79.5 1379.5,-58.5 1278.5,-58.5"/>
<text text-anchor="middle" x="1329" y="-66.5" font-family="Helvetica,sans-Serif" font-size="10.00">SuspendBlocker.h</text>
</a>
</g>
<!-- Node23&#45;&gt;Node36 -->
<g id="edge104" class="edge"><title>Node23&#45;&gt;Node36</title>
<path fill="none" stroke="midnightblue" d="M1387.78,-174.447C1376.92,-165.735 1362.29,-152.485 1353,-138 1343.5,-123.199 1337.25,-104.189 1333.52,-89.8723"/>
<polygon fill="midnightblue" stroke="midnightblue" points="1336.88,-88.8905 1331.14,-79.9859 1330.08,-90.5271 1336.88,-88.8905"/>
</g>
<!-- Node37 -->
<g id="node92" class="node"><title>Node37</title>
<a xlink:href="VariantAnimation_8h.htm" target="_top" xlink:title="VariantAnimation.h">
<polygon fill="white" stroke="red" points="894.5,-58.5 894.5,-79.5 999.5,-79.5 999.5,-58.5 894.5,-58.5"/>
<text text-anchor="middle" x="947" y="-66.5" font-family="Helvetica,sans-Serif" font-size="10.00">VariantAnimation.h</text>
</a>
</g>
<!-- Node23&#45;&gt;Node37 -->
<g id="edge110" class="edge"><title>Node23&#45;&gt;Node37</title>
<path fill="none" stroke="midnightblue" d="M1343.92,-175.294C1340.91,-174.844 1337.92,-174.409 1335,-174 1198.08,-154.795 1152.42,-193.994 1026,-138 1000.2,-126.57 976.68,-103.69 962.141,-87.413"/>
<polygon fill="midnightblue" stroke="midnightblue" points="964.576,-84.8785 955.391,-79.5987 959.279,-89.4543 964.576,-84.8785"/>
</g>
<!-- Node38 -->
<g id="node96" class="node"><title>Node38</title>
<polygon fill="white" stroke="#bfbfbf" points="1017,-58.5 1017,-79.5 1109,-79.5 1109,-58.5 1017,-58.5"/>
<text text-anchor="middle" x="1063" y="-66.5" font-family="Helvetica,sans-Serif" font-size="10.00">CustomEvents.h</text>
</g>
<!-- Node23&#45;&gt;Node38 -->
<g id="edge116" class="edge"><title>Node23&#45;&gt;Node38</title>
<path fill="none" stroke="midnightblue" d="M1346,-174.452C1309.82,-166.654 1262.18,-154.52 1222,-138 1203.95,-130.579 1201.59,-124.447 1184,-116 1157.75,-103.397 1127.18,-91.5441 1103.33,-82.8939"/>
<polygon fill="midnightblue" stroke="midnightblue" points="1104.48,-79.5879 1093.89,-79.5074 1102.12,-86.1772 1104.48,-79.5879"/>
</g>
<!-- Node39 -->
<g id="node98" class="node"><title>Node39</title>
<a xlink:href="StatusBar_8h.htm" target="_top" xlink:title="StatusBar.h">
<polygon fill="white" stroke="black" points="1230.5,-116.5 1230.5,-137.5 1301.5,-137.5 1301.5,-116.5 1230.5,-116.5"/>
<text text-anchor="middle" x="1266" y="-124.5" font-family="Helvetica,sans-Serif" font-size="10.00">StatusBar.h</text>
</a>
</g>
<!-- Node23&#45;&gt;Node39 -->
<g id="edge118" class="edge"><title>Node23&#45;&gt;Node39</title>
<path fill="none" stroke="midnightblue" d="M1377.37,-174.497C1355.84,-165.315 1324.36,-151.889 1300.36,-141.652"/>
<polygon fill="midnightblue" stroke="midnightblue" points="1301.48,-138.325 1290.9,-137.621 1298.73,-144.764 1301.48,-138.325"/>
</g>
<!-- Node31&#45;&gt;Node3 -->
<g id="edge78" class="edge"><title>Node31&#45;&gt;Node3</title>
<path fill="none" stroke="midnightblue" d="M1668.87,-120.448C1653.5,-118.945 1637.18,-117.383 1622,-116 1526.95,-107.335 1278.57,-124.256 1194,-80 1173.06,-69.0391 1156.87,-46.7361 1147.19,-30.4435"/>
<polygon fill="midnightblue" stroke="midnightblue" points="1150.21,-28.6725 1142.25,-21.6763 1144.11,-32.1072 1150.21,-28.6725"/>
</g>
<!-- Node31&#45;&gt;Node10 -->
<g id="edge82" class="edge"><title>Node31&#45;&gt;Node10</title>
<path fill="none" stroke="midnightblue" d="M1682.15,-116.498C1646.21,-108.043 1602.91,-95.1036 1592,-80 1581.84,-65.9385 1586.47,-46.0565 1592.53,-31.2441"/>
<polygon fill="midnightblue" stroke="midnightblue" points="1595.81,-32.4827 1596.79,-21.9332 1589.44,-29.5697 1595.81,-32.4827"/>
</g>
<!-- Node31&#45;&gt;Node11 -->
<g id="edge80" class="edge"><title>Node31&#45;&gt;Node11</title>
<path fill="none" stroke="midnightblue" d="M1757.56,-116.351C1773.93,-108.116 1795.51,-95.5138 1811,-80 1825.17,-65.8108 1836.62,-45.9438 1843.96,-31.1695"/>
<polygon fill="midnightblue" stroke="midnightblue" points="1847.24,-32.4215 1848.37,-21.8871 1840.92,-29.4172 1847.24,-32.4215"/>
</g>
<!-- Node32 -->
<g id="node74" class="node"><title>Node32</title>
<polygon fill="white" stroke="#bfbfbf" points="1396.5,-58.5 1396.5,-79.5 1427.5,-79.5 1427.5,-58.5 1396.5,-58.5"/>
<text text-anchor="middle" x="1412" y="-66.5" font-family="Helvetica,sans-Serif" font-size="10.00">set</text>
</g>
<!-- Node31&#45;&gt;Node32 -->
<g id="edge84" class="edge"><title>Node31&#45;&gt;Node32</title>
<path fill="none" stroke="midnightblue" d="M1668.71,-117.246C1589.13,-105.246 1462.56,-85.7537 1441,-80 1439.77,-79.672 1438.52,-79.3108 1437.27,-78.9254"/>
<polygon fill="midnightblue" stroke="midnightblue" points="1438.36,-75.5998 1427.76,-75.6448 1436.07,-82.2165 1438.36,-75.5998"/>
</g>
<!-- Node33 -->
<g id="node76" class="node"><title>Node33</title>
<polygon fill="white" stroke="#bfbfbf" points="1758.5,-0.5 1758.5,-21.5 1787.5,-21.5 1787.5,-0.5 1758.5,-0.5"/>
<text text-anchor="middle" x="1773" y="-8.5" font-family="Helvetica,sans-Serif" font-size="10.00">list</text>
</g>
<!-- Node31&#45;&gt;Node33 -->
<g id="edge86" class="edge"><title>Node31&#45;&gt;Node33</title>
<path fill="none" stroke="midnightblue" d="M1757.02,-116.371C1771.09,-108.508 1787.89,-96.3304 1796,-80 1804.02,-63.8588 1795.95,-44.2669 1787.23,-30.09"/>
<polygon fill="midnightblue" stroke="midnightblue" points="1790.05,-28.007 1781.58,-21.6464 1784.23,-31.9026 1790.05,-28.007"/>
</g>
<!-- Node34 -->
<g id="node78" class="node"><title>Node34</title>
<a xlink:href="LaunchPoint_8h.htm" target="_top" xlink:title="LaunchPoint.h">
<polygon fill="white" stroke="black" points="1704.5,-58.5 1704.5,-79.5 1787.5,-79.5 1787.5,-58.5 1704.5,-58.5"/>
<text text-anchor="middle" x="1746" y="-66.5" font-family="Helvetica,sans-Serif" font-size="10.00">LaunchPoint.h</text>
</a>
</g>
<!-- Node31&#45;&gt;Node34 -->
<g id="edge88" class="edge"><title>Node31&#45;&gt;Node34</title>
<path fill="none" stroke="midnightblue" d="M1736.2,-116.362C1737.76,-108.84 1739.89,-98.5187 1741.77,-89.4308"/>
<polygon fill="midnightblue" stroke="midnightblue" points="1745.21,-90.0724 1743.81,-79.5707 1738.36,-88.6541 1745.21,-90.0724"/>
</g>
<!-- Node35 -->
<g id="node85" class="node"><title>Node35</title>
<polygon fill="white" stroke="#bfbfbf" points="1600.5,-58.5 1600.5,-79.5 1687.5,-79.5 1687.5,-58.5 1600.5,-58.5"/>
<text text-anchor="middle" x="1644" y="-66.5" font-family="Helvetica,sans-Serif" font-size="10.00">KeywordMap.h</text>
</g>
<!-- Node31&#45;&gt;Node35 -->
<g id="edge100" class="edge"><title>Node31&#45;&gt;Node35</title>
<path fill="none" stroke="midnightblue" d="M1717.49,-116.362C1703.92,-107.614 1684.47,-95.0786 1668.99,-85.1015"/>
<polygon fill="midnightblue" stroke="midnightblue" points="1670.7,-82.0457 1660.4,-79.5707 1666.91,-87.9297 1670.7,-82.0457"/>
</g>
<!-- Node34&#45;&gt;Node3 -->
<g id="edge90" class="edge"><title>Node34&#45;&gt;Node3</title>
<path fill="none" stroke="midnightblue" d="M1704.34,-59.3648C1701.53,-58.8591 1698.73,-58.397 1696,-58 1477.72,-26.2205 1419.96,-48.7141 1201,-22 1194.54,-21.2115 1187.73,-20.219 1181.07,-19.1546"/>
<polygon fill="midnightblue" stroke="midnightblue" points="1181.23,-15.6324 1170.79,-17.4418 1180.08,-22.5373 1181.23,-15.6324"/>
</g>
<!-- Node34&#45;&gt;Node11 -->
<g id="edge92" class="edge"><title>Node34&#45;&gt;Node11</title>
<path fill="none" stroke="midnightblue" d="M1765.63,-58.3619C1782.14,-49.4094 1805.97,-36.4908 1824.58,-26.4064"/>
<polygon fill="midnightblue" stroke="midnightblue" points="1826.38,-29.4132 1833.5,-21.5707 1823.04,-23.2592 1826.38,-29.4132"/>
</g>
<!-- Node34&#45;&gt;Node12 -->
<g id="edge98" class="edge"><title>Node34&#45;&gt;Node12</title>
<path fill="none" stroke="midnightblue" d="M1704.32,-59.5137C1701.51,-58.9721 1698.72,-58.4612 1696,-58 1567.26,-36.1413 1528.84,-53.0972 1398.66,-21.9768"/>
<polygon fill="midnightblue" stroke="midnightblue" points="1399.26,-18.5197 1388.72,-19.5487 1397.6,-25.3201 1399.26,-18.5197"/>
</g>
<!-- Node34&#45;&gt;Node16 -->
<g id="edge96" class="edge"><title>Node34&#45;&gt;Node16</title>
<path fill="none" stroke="midnightblue" d="M1787.11,-58.4966C1828.69,-47.8734 1892.51,-31.5668 1933.5,-21.0929"/>
<polygon fill="midnightblue" stroke="midnightblue" points="1934.58,-24.4294 1943.4,-18.5627 1932.85,-17.6473 1934.58,-24.4294"/>
</g>
<!-- Node34&#45;&gt;Node33 -->
<g id="edge94" class="edge"><title>Node34&#45;&gt;Node33</title>
<path fill="none" stroke="midnightblue" d="M1750.95,-58.3619C1754.53,-50.6766 1759.47,-40.0686 1763.76,-30.8399"/>
<polygon fill="midnightblue" stroke="midnightblue" points="1767.03,-32.1136 1768.08,-21.5707 1760.69,-29.1594 1767.03,-32.1136"/>
</g>
<!-- Node36&#45;&gt;Node3 -->
<g id="edge106" class="edge"><title>Node36&#45;&gt;Node3</title>
<path fill="none" stroke="midnightblue" d="M1294.23,-58.4966C1262.26,-48.8404 1214.75,-34.4883 1180.33,-24.0893"/>
<polygon fill="midnightblue" stroke="midnightblue" points="1181.13,-20.675 1170.55,-21.1337 1179.11,-27.376 1181.13,-20.675"/>
</g>
<!-- Node36&#45;&gt;Node12 -->
<g id="edge108" class="edge"><title>Node36&#45;&gt;Node12</title>
<path fill="none" stroke="midnightblue" d="M1336.15,-58.3619C1341.49,-50.4313 1348.91,-39.3885 1355.25,-29.9606"/>
<polygon fill="midnightblue" stroke="midnightblue" points="1358.22,-31.8221 1360.89,-21.5707 1352.41,-27.9161 1358.22,-31.8221"/>
</g>
<!-- Node37&#45;&gt;Node3 -->
<g id="edge112" class="edge"><title>Node37&#45;&gt;Node3</title>
<path fill="none" stroke="midnightblue" d="M981.408,-58.4966C1012.94,-48.8701 1059.77,-34.5765 1093.81,-24.1854"/>
<polygon fill="midnightblue" stroke="midnightblue" points="1094.94,-27.4977 1103.49,-21.2305 1092.9,-20.8027 1094.94,-27.4977"/>
</g>
<!-- Node39&#45;&gt;Node8 -->
<g id="edge120" class="edge"><title>Node39&#45;&gt;Node8</title>
<path fill="none" stroke="midnightblue" d="M1301.53,-118.69C1346.83,-108.097 1424.98,-89.8187 1472.83,-78.6293"/>
<polygon fill="midnightblue" stroke="midnightblue" points="1473.9,-81.9719 1482.84,-76.2866 1472.31,-75.1559 1473.9,-81.9719"/>
</g>
<!-- Node39&#45;&gt;Node13 -->
<g id="edge124" class="edge"><title>Node39&#45;&gt;Node13</title>
<path fill="none" stroke="midnightblue" d="M1237.56,-116.453C1221.66,-108.918 1203.24,-97.0651 1194,-80 1182.57,-58.8851 1205.28,-39.4262 1226.93,-26.5939"/>
<polygon fill="midnightblue" stroke="midnightblue" points="1228.7,-29.6127 1235.72,-21.6802 1225.29,-23.5016 1228.7,-29.6127"/>
</g>
<!-- Node39&#45;&gt;Node37 -->
<g id="edge126" class="edge"><title>Node39&#45;&gt;Node37</title>
<path fill="none" stroke="midnightblue" d="M1230.34,-120.515C1176.91,-110.801 1075.34,-92.3339 1009.44,-80.3521"/>
<polygon fill="midnightblue" stroke="midnightblue" points="1010.05,-76.9056 999.581,-78.5602 1008.79,-83.7927 1010.05,-76.9056"/>
</g>
<!-- Node39&#45;&gt;Node38 -->
<g id="edge128" class="edge"><title>Node39&#45;&gt;Node38</title>
<path fill="none" stroke="midnightblue" d="M1230.17,-116.764C1196.67,-107.192 1146.44,-92.8412 1109.79,-82.3687"/>
<polygon fill="midnightblue" stroke="midnightblue" points="1110.41,-78.9068 1099.84,-79.5249 1108.49,-85.6375 1110.41,-78.9068"/>
</g>
<!-- Node39&#45;&gt;Node40 -->
<g id="edge122" class="edge"><title>Node39&#45;&gt;Node40</title>
<path fill="none" stroke="midnightblue" d="M1259.76,-116.362C1255.16,-108.513 1248.77,-97.6159 1243.29,-88.2527"/>
<polygon fill="midnightblue" stroke="midnightblue" points="1246.27,-86.4276 1238.2,-79.5707 1240.23,-89.9677 1246.27,-86.4276"/>
</g>
<!-- Node50&#45;&gt;Node3 -->
<g id="edge152" class="edge"><title>Node50&#45;&gt;Node3</title>
<path fill="none" stroke="midnightblue" d="M351.08,-116.453C439.31,-102.31 601.847,-76.8039 741,-58 868.68,-40.7464 1019.99,-23.7406 1093.11,-15.7399"/>
<polygon fill="midnightblue" stroke="midnightblue" points="1093.75,-19.1902 1103.31,-14.6259 1092.99,-12.2315 1093.75,-19.1902"/>
</g>
</g>
</svg>
