<?xml version="1.0" encoding="UTF-8" standalone="no"?>
<!DOCTYPE svg PUBLIC "-//W3C//DTD SVG 1.1//EN"
 "http://www.w3.org/Graphics/SVG/1.1/DTD/svg11.dtd">
<!-- Generated by graphviz version 2.26.3 (20100126.1600)
 -->
<!-- Title: gogglesblurshadereffect.cpp Pages: 1 -->
<svg width="515pt" height="146pt"
 viewBox="0.00 0.00 515.00 146.00" xmlns="http://www.w3.org/2000/svg" xmlns:xlink="http://www.w3.org/1999/xlink">
<g id="graph1" class="graph" transform="scale(1 1) rotate(0) translate(4 142)">
<title>gogglesblurshadereffect.cpp</title>
<polygon fill="white" stroke="white" points="-4,5 -4,-142 512,-142 512,5 -4,5"/>
<!-- Node1 -->
<g id="node1" class="node"><title>Node1</title>
<polygon fill="#bfbfbf" stroke="black" points="221.5,-116.5 221.5,-137.5 370.5,-137.5 370.5,-116.5 221.5,-116.5"/>
<text text-anchor="middle" x="296" y="-124.5" font-family="Helvetica,sans-Serif" font-size="10.00">gogglesblurshadereffect.cpp</text>
</g>
<!-- Node2 -->
<g id="node3" class="node"><title>Node2</title>
<a xlink:href="gogglesblurshadereffect_8h.htm" target="_top" xlink:title="gogglesblurshadereffect.h">
<polygon fill="white" stroke="black" points="81,-58.5 81,-79.5 219,-79.5 219,-58.5 81,-58.5"/>
<text text-anchor="middle" x="150" y="-66.5" font-family="Helvetica,sans-Serif" font-size="10.00">gogglesblurshadereffect.h</text>
</a>
</g>
<!-- Node1&#45;&gt;Node2 -->
<g id="edge2" class="edge"><title>Node1&#45;&gt;Node2</title>
<path fill="none" stroke="midnightblue" d="M269.561,-116.497C246.244,-107.234 212.05,-93.6499 186.196,-83.3793"/>
<polygon fill="midnightblue" stroke="midnightblue" points="187.322,-80.0605 176.736,-79.6212 184.737,-86.566 187.322,-80.0605"/>
</g>
<!-- Node7 -->
<g id="node13" class="node"><title>Node7</title>
<polygon fill="white" stroke="#bfbfbf" points="236.5,-58.5 236.5,-79.5 277.5,-79.5 277.5,-58.5 236.5,-58.5"/>
<text text-anchor="middle" x="257" y="-66.5" font-family="Helvetica,sans-Serif" font-size="10.00">QFile</text>
</g>
<!-- Node1&#45;&gt;Node7 -->
<g id="edge12" class="edge"><title>Node1&#45;&gt;Node7</title>
<path fill="none" stroke="midnightblue" d="M288.847,-116.362C283.514,-108.431 276.089,-97.3885 269.749,-87.9606"/>
<polygon fill="midnightblue" stroke="midnightblue" points="272.592,-85.9161 264.108,-79.5707 266.783,-89.8221 272.592,-85.9161"/>
</g>
<!-- Node8 -->
<g id="node15" class="node"><title>Node8</title>
<polygon fill="white" stroke="#bfbfbf" points="295,-58.5 295,-79.5 375,-79.5 375,-58.5 295,-58.5"/>
<text text-anchor="middle" x="335" y="-66.5" font-family="Helvetica,sans-Serif" font-size="10.00">QTextStream</text>
</g>
<!-- Node1&#45;&gt;Node8 -->
<g id="edge14" class="edge"><title>Node1&#45;&gt;Node8</title>
<path fill="none" stroke="midnightblue" d="M303.153,-116.362C308.486,-108.431 315.911,-97.3885 322.251,-87.9606"/>
<polygon fill="midnightblue" stroke="midnightblue" points="325.217,-89.8221 327.892,-79.5707 319.408,-85.9161 325.217,-89.8221"/>
</g>
<!-- Node9 -->
<g id="node17" class="node"><title>Node9</title>
<polygon fill="white" stroke="#bfbfbf" points="393,-58.5 393,-79.5 507,-79.5 507,-58.5 393,-58.5"/>
<text text-anchor="middle" x="450" y="-66.5" font-family="Helvetica,sans-Serif" font-size="10.00">QGLShaderProgram</text>
</g>
<!-- Node1&#45;&gt;Node9 -->
<g id="edge16" class="edge"><title>Node1&#45;&gt;Node9</title>
<path fill="none" stroke="midnightblue" d="M323.888,-116.497C348.668,-107.164 385.095,-93.4447 412.436,-83.1475"/>
<polygon fill="midnightblue" stroke="midnightblue" points="413.935,-86.3231 422.059,-79.5231 411.468,-79.7723 413.935,-86.3231"/>
</g>
<!-- Node3 -->
<g id="node5" class="node"><title>Node3</title>
<polygon fill="white" stroke="#bfbfbf" points="-0.5,-0.5 -0.5,-21.5 70.5,-21.5 70.5,-0.5 -0.5,-0.5"/>
<text text-anchor="middle" x="35" y="-8.5" font-family="Helvetica,sans-Serif" font-size="10.00">QByteArray</text>
</g>
<!-- Node2&#45;&gt;Node3 -->
<g id="edge4" class="edge"><title>Node2&#45;&gt;Node3</title>
<path fill="none" stroke="midnightblue" d="M129.174,-58.4966C111.294,-49.4786 85.2926,-36.3649 65.139,-26.2006"/>
<polygon fill="midnightblue" stroke="midnightblue" points="66.5641,-22.9994 56.0593,-21.6212 63.4119,-29.2495 66.5641,-22.9994"/>
</g>
<!-- Node4 -->
<g id="node7" class="node"><title>Node4</title>
<polygon fill="white" stroke="#bfbfbf" points="87.5,-0.5 87.5,-21.5 142.5,-21.5 142.5,-0.5 87.5,-0.5"/>
<text text-anchor="middle" x="115" y="-8.5" font-family="Helvetica,sans-Serif" font-size="10.00">QObject</text>
</g>
<!-- Node2&#45;&gt;Node4 -->
<g id="edge6" class="edge"><title>Node2&#45;&gt;Node4</title>
<path fill="none" stroke="midnightblue" d="M143.58,-58.3619C138.844,-50.5131 132.268,-39.6159 126.618,-30.2527"/>
<polygon fill="midnightblue" stroke="midnightblue" points="129.542,-28.3242 121.379,-21.5707 123.549,-31.9409 129.542,-28.3242"/>
</g>
<!-- Node5 -->
<g id="node9" class="node"><title>Node5</title>
<polygon fill="white" stroke="#bfbfbf" points="159.5,-0.5 159.5,-21.5 212.5,-21.5 212.5,-0.5 159.5,-0.5"/>
<text text-anchor="middle" x="186" y="-8.5" font-family="Helvetica,sans-Serif" font-size="10.00">QString</text>
</g>
<!-- Node2&#45;&gt;Node5 -->
<g id="edge8" class="edge"><title>Node2&#45;&gt;Node5</title>
<path fill="none" stroke="midnightblue" d="M156.603,-58.3619C161.475,-50.5131 168.238,-39.6159 174.05,-30.2527"/>
<polygon fill="midnightblue" stroke="midnightblue" points="177.139,-31.9129 179.439,-21.5707 171.191,-28.2213 177.139,-31.9129"/>
</g>
<!-- Node6 -->
<g id="node11" class="node"><title>Node6</title>
<polygon fill="white" stroke="#bfbfbf" points="229.5,-0.5 229.5,-21.5 372.5,-21.5 372.5,-0.5 229.5,-0.5"/>
<text text-anchor="middle" x="301" y="-8.5" font-family="Helvetica,sans-Serif" font-size="10.00">qgraphicsshadereffect_p.h</text>
</g>
<!-- Node2&#45;&gt;Node6 -->
<g id="edge10" class="edge"><title>Node2&#45;&gt;Node6</title>
<path fill="none" stroke="midnightblue" d="M177.345,-58.4966C201.642,-49.1639 237.36,-35.4447 264.168,-25.1475"/>
<polygon fill="midnightblue" stroke="midnightblue" points="265.524,-28.376 273.604,-21.5231 263.014,-21.8415 265.524,-28.376"/>
</g>
</g>
</svg>
