<?xml version="1.0" encoding="UTF-8" standalone="no"?>
<!DOCTYPE svg PUBLIC "-//W3C//DTD SVG 1.1//EN"
 "http://www.w3.org/Graphics/SVG/1.1/DTD/svg11.dtd">
<!-- Generated by graphviz version 2.26.3 (20100126.1600)
 -->
<!-- Title: GraphicsDefs.h Pages: 1 -->
<svg width="340pt" height="88pt"
 viewBox="0.00 0.00 340.00 88.00" xmlns="http://www.w3.org/2000/svg" xmlns:xlink="http://www.w3.org/1999/xlink">
<g id="graph1" class="graph" transform="scale(1 1) rotate(0) translate(4 84)">
<title>GraphicsDefs.h</title>
<polygon fill="white" stroke="white" points="-4,5 -4,-84 337,-84 337,5 -4,5"/>
<!-- Node1 -->
<g id="node1" class="node"><title>Node1</title>
<polygon fill="#bfbfbf" stroke="black" points="124.5,-58.5 124.5,-79.5 213.5,-79.5 213.5,-58.5 124.5,-58.5"/>
<text text-anchor="middle" x="169" y="-66.5" font-family="Helvetica,sans-Serif" font-size="10.00">GraphicsDefs.h</text>
</g>
<!-- Node2 -->
<g id="node3" class="node"><title>Node2</title>
<polygon fill="white" stroke="#bfbfbf" points="-0.5,-0.5 -0.5,-21.5 66.5,-21.5 66.5,-0.5 -0.5,-0.5"/>
<text text-anchor="middle" x="33" y="-8.5" font-family="Helvetica,sans-Serif" font-size="10.00">Common.h</text>
</g>
<!-- Node1&#45;&gt;Node2 -->
<g id="edge2" class="edge"><title>Node1&#45;&gt;Node2</title>
<path fill="none" stroke="midnightblue" d="M144.371,-58.4966C122.843,-49.3154 91.3602,-35.8889 67.3554,-25.6516"/>
<polygon fill="midnightblue" stroke="midnightblue" points="68.4764,-22.3247 57.9049,-21.6212 65.7303,-28.7636 68.4764,-22.3247"/>
</g>
<!-- Node3 -->
<g id="node5" class="node"><title>Node3</title>
<polygon fill="white" stroke="#bfbfbf" points="83.5,-0.5 83.5,-21.5 160.5,-21.5 160.5,-0.5 83.5,-0.5"/>
<text text-anchor="middle" x="122" y="-8.5" font-family="Helvetica,sans-Serif" font-size="10.00">PGContext.h</text>
</g>
<!-- Node1&#45;&gt;Node3 -->
<g id="edge4" class="edge"><title>Node1&#45;&gt;Node3</title>
<path fill="none" stroke="midnightblue" d="M160.379,-58.3619C153.82,-50.2678 144.634,-38.9318 136.894,-29.3796"/>
<polygon fill="midnightblue" stroke="midnightblue" points="139.581,-27.1364 130.566,-21.5707 134.142,-31.5436 139.581,-27.1364"/>
</g>
<!-- Node4 -->
<g id="node7" class="node"><title>Node4</title>
<polygon fill="white" stroke="#bfbfbf" points="178,-0.5 178,-21.5 254,-21.5 254,-0.5 178,-0.5"/>
<text text-anchor="middle" x="216" y="-8.5" font-family="Helvetica,sans-Serif" font-size="10.00">PGSurface.h</text>
</g>
<!-- Node1&#45;&gt;Node4 -->
<g id="edge6" class="edge"><title>Node1&#45;&gt;Node4</title>
<path fill="none" stroke="midnightblue" d="M177.621,-58.3619C184.18,-50.2678 193.366,-38.9318 201.106,-29.3796"/>
<polygon fill="midnightblue" stroke="midnightblue" points="203.858,-31.5436 207.434,-21.5707 198.419,-27.1364 203.858,-31.5436"/>
</g>
<!-- Node5 -->
<g id="node9" class="node"><title>Node5</title>
<polygon fill="white" stroke="#bfbfbf" points="271.5,-0.5 271.5,-21.5 332.5,-21.5 332.5,-0.5 271.5,-0.5"/>
<text text-anchor="middle" x="302" y="-8.5" font-family="Helvetica,sans-Serif" font-size="10.00">PGFont.h</text>
</g>
<!-- Node1&#45;&gt;Node5 -->
<g id="edge8" class="edge"><title>Node1&#45;&gt;Node5</title>
<path fill="none" stroke="midnightblue" d="M193.085,-58.4966C214.139,-49.3154 244.927,-35.8889 268.402,-25.6516"/>
<polygon fill="midnightblue" stroke="midnightblue" points="269.877,-28.8268 277.644,-21.6212 267.079,-22.4104 269.877,-28.8268"/>
</g>
</g>
</svg>
