<?xml version="1.0" encoding="UTF-8" standalone="no"?>
<!DOCTYPE svg PUBLIC "-//W3C//DTD SVG 1.1//EN"
 "http://www.w3.org/Graphics/SVG/1.1/DTD/svg11.dtd">
<!-- Generated by graphviz version 2.26.3 (20100126.1600)
 -->
<!-- Title: GraphicsItemContainer.h Pages: 1 -->
<svg width="434pt" height="88pt"
 viewBox="0.00 0.00 434.00 88.00" xmlns="http://www.w3.org/2000/svg" xmlns:xlink="http://www.w3.org/1999/xlink">
<g id="graph1" class="graph" transform="scale(1 1) rotate(0) translate(4 84)">
<title>GraphicsItemContainer.h</title>
<polygon fill="white" stroke="white" points="-4,5 -4,-84 431,-84 431,5 -4,5"/>
<!-- Node1 -->
<g id="node1" class="node"><title>Node1</title>
<polygon fill="#bfbfbf" stroke="black" points="89,-58.5 89,-79.5 223,-79.5 223,-58.5 89,-58.5"/>
<text text-anchor="middle" x="156" y="-66.5" font-family="Helvetica,sans-Serif" font-size="10.00">GraphicsItemContainer.h</text>
</g>
<!-- Node2 -->
<g id="node3" class="node"><title>Node2</title>
<polygon fill="white" stroke="#bfbfbf" points="-0.5,-0.5 -0.5,-21.5 66.5,-21.5 66.5,-0.5 -0.5,-0.5"/>
<text text-anchor="middle" x="33" y="-8.5" font-family="Helvetica,sans-Serif" font-size="10.00">Common.h</text>
</g>
<!-- Node1&#45;&gt;Node2 -->
<g id="edge2" class="edge"><title>Node1&#45;&gt;Node2</title>
<path fill="none" stroke="midnightblue" d="M133.726,-58.4966C114.428,-49.397 86.2871,-36.1273 64.652,-25.9253"/>
<polygon fill="midnightblue" stroke="midnightblue" points="66.062,-22.7206 55.5243,-21.6212 63.0764,-29.052 66.062,-22.7206"/>
</g>
<!-- Node3 -->
<g id="node5" class="node"><title>Node3</title>
<polygon fill="white" stroke="#bfbfbf" points="84,-0.5 84,-21.5 136,-21.5 136,-0.5 84,-0.5"/>
<text text-anchor="middle" x="110" y="-8.5" font-family="Helvetica,sans-Serif" font-size="10.00">QBrush</text>
</g>
<!-- Node1&#45;&gt;Node3 -->
<g id="edge4" class="edge"><title>Node1&#45;&gt;Node3</title>
<path fill="none" stroke="midnightblue" d="M147.563,-58.3619C141.208,-50.3496 132.334,-39.1605 124.807,-29.6696"/>
<polygon fill="midnightblue" stroke="midnightblue" points="127.34,-27.2308 118.384,-21.5707 121.855,-31.5805 127.34,-27.2308"/>
</g>
<!-- Node4 -->
<g id="node7" class="node"><title>Node4</title>
<polygon fill="white" stroke="#bfbfbf" points="154,-0.5 154,-21.5 252,-21.5 252,-0.5 154,-0.5"/>
<text text-anchor="middle" x="203" y="-8.5" font-family="Helvetica,sans-Serif" font-size="10.00">QGraphicsObject</text>
</g>
<!-- Node1&#45;&gt;Node4 -->
<g id="edge6" class="edge"><title>Node1&#45;&gt;Node4</title>
<path fill="none" stroke="midnightblue" d="M164.621,-58.3619C171.18,-50.2678 180.366,-38.9318 188.106,-29.3796"/>
<polygon fill="midnightblue" stroke="midnightblue" points="190.858,-31.5436 194.434,-21.5707 185.419,-27.1364 190.858,-31.5436"/>
</g>
<!-- Node5 -->
<g id="node9" class="node"><title>Node5</title>
<polygon fill="white" stroke="#bfbfbf" points="270,-0.5 270,-21.5 426,-21.5 426,-0.5 270,-0.5"/>
<text text-anchor="middle" x="348" y="-8.5" font-family="Helvetica,sans-Serif" font-size="10.00">QGraphicsSceneMouseEvent</text>
</g>
<!-- Node1&#45;&gt;Node5 -->
<g id="edge8" class="edge"><title>Node1&#45;&gt;Node5</title>
<path fill="none" stroke="midnightblue" d="M190.77,-58.4966C222.342,-48.9592 269.079,-34.8408 303.393,-24.475"/>
<polygon fill="midnightblue" stroke="midnightblue" points="304.604,-27.7654 313.165,-21.5231 302.58,-21.0644 304.604,-27.7654"/>
</g>
</g>
</svg>
