<?xml version="1.0" encoding="UTF-8" standalone="no"?>
<!DOCTYPE svg PUBLIC "-//W3C//DTD SVG 1.1//EN"
 "http://www.w3.org/Graphics/SVG/1.1/DTD/svg11.dtd">
<!-- Generated by graphviz version 2.26.3 (20100126.1600)
 -->
<!-- Title: groupanchoritem.h Pages: 1 -->
<svg width="342pt" height="88pt"
 viewBox="0.00 0.00 342.00 88.00" xmlns="http://www.w3.org/2000/svg" xmlns:xlink="http://www.w3.org/1999/xlink">
<g id="graph1" class="graph" transform="scale(1 1) rotate(0) translate(4 84)">
<title>groupanchoritem.h</title>
<polygon fill="white" stroke="white" points="-4,5 -4,-84 339,-84 339,5 -4,5"/>
<!-- Node1 -->
<g id="node1" class="node"><title>Node1</title>
<polygon fill="#bfbfbf" stroke="black" points="129,-58.5 129,-79.5 233,-79.5 233,-58.5 129,-58.5"/>
<text text-anchor="middle" x="181" y="-66.5" font-family="Helvetica,sans-Serif" font-size="10.00">groupanchoritem.h</text>
</g>
<!-- Node2 -->
<g id="node3" class="node"><title>Node2</title>
<polygon fill="white" stroke="#bfbfbf" points="-0.5,-0.5 -0.5,-21.5 54.5,-21.5 54.5,-0.5 -0.5,-0.5"/>
<text text-anchor="middle" x="27" y="-8.5" font-family="Helvetica,sans-Serif" font-size="10.00">QObject</text>
</g>
<!-- Node1&#45;&gt;Node2 -->
<g id="edge2" class="edge"><title>Node1&#45;&gt;Node2</title>
<path fill="none" stroke="midnightblue" d="M153.112,-58.4966C128.254,-49.1348 91.6777,-35.3591 64.3087,-25.0513"/>
<polygon fill="midnightblue" stroke="midnightblue" points="65.2727,-21.6744 54.6808,-21.4252 62.8054,-28.2252 65.2727,-21.6744"/>
</g>
<!-- Node3 -->
<g id="node5" class="node"><title>Node3</title>
<polygon fill="white" stroke="#bfbfbf" points="71.5,-0.5 71.5,-21.5 188.5,-21.5 188.5,-0.5 71.5,-0.5"/>
<text text-anchor="middle" x="130" y="-8.5" font-family="Helvetica,sans-Serif" font-size="10.00">QGraphicsItemGroup</text>
</g>
<!-- Node1&#45;&gt;Node3 -->
<g id="edge4" class="edge"><title>Node1&#45;&gt;Node3</title>
<path fill="none" stroke="midnightblue" d="M171.646,-58.3619C164.457,-50.1861 154.359,-38.7025 145.907,-29.0907"/>
<polygon fill="midnightblue" stroke="midnightblue" points="148.527,-26.7692 139.295,-21.5707 143.27,-31.3916 148.527,-26.7692"/>
</g>
<!-- Node4 -->
<g id="node7" class="node"><title>Node4</title>
<polygon fill="white" stroke="#bfbfbf" points="205.5,-0.5 205.5,-21.5 258.5,-21.5 258.5,-0.5 205.5,-0.5"/>
<text text-anchor="middle" x="232" y="-8.5" font-family="Helvetica,sans-Serif" font-size="10.00">QRectF</text>
</g>
<!-- Node1&#45;&gt;Node4 -->
<g id="edge6" class="edge"><title>Node1&#45;&gt;Node4</title>
<path fill="none" stroke="midnightblue" d="M190.354,-58.3619C197.543,-50.1861 207.641,-38.7025 216.093,-29.0907"/>
<polygon fill="midnightblue" stroke="midnightblue" points="218.73,-31.3916 222.705,-21.5707 213.473,-26.7692 218.73,-31.3916"/>
</g>
<!-- Node5 -->
<g id="node9" class="node"><title>Node5</title>
<polygon fill="white" stroke="#bfbfbf" points="275.5,-0.5 275.5,-21.5 334.5,-21.5 334.5,-0.5 275.5,-0.5"/>
<text text-anchor="middle" x="305" y="-8.5" font-family="Helvetica,sans-Serif" font-size="10.00">QPointer</text>
</g>
<!-- Node1&#45;&gt;Node5 -->
<g id="edge8" class="edge"><title>Node1&#45;&gt;Node5</title>
<path fill="none" stroke="midnightblue" d="M203.455,-58.4966C222.91,-49.397 251.28,-36.1273 273.091,-25.9253"/>
<polygon fill="midnightblue" stroke="midnightblue" points="274.717,-29.0285 282.293,-21.6212 271.752,-22.6878 274.717,-29.0285"/>
</g>
</g>
</svg>
