<?xml version="1.0" encoding="UTF-8" standalone="no"?>
<!DOCTYPE svg PUBLIC "-//W3C//DTD SVG 1.1//EN"
 "http://www.w3.org/Graphics/SVG/1.1/DTD/svg11.dtd">
<!-- Generated by graphviz version 2.26.3 (20100126.1600)
 -->
<!-- Title: groupanchoritem.h Pages: 1 -->
<svg width="1840pt" height="146pt"
 viewBox="0.00 0.00 1840.00 146.00" xmlns="http://www.w3.org/2000/svg" xmlns:xlink="http://www.w3.org/1999/xlink">
<g id="graph1" class="graph" transform="scale(1 1) rotate(0) translate(4 142)">
<title>groupanchoritem.h</title>
<polygon fill="white" stroke="white" points="-4,5 -4,-142 1837,-142 1837,5 -4,5"/>
<!-- Node1 -->
<g id="node1" class="node"><title>Node1</title>
<polygon fill="#bfbfbf" stroke="black" points="1154,-116.5 1154,-137.5 1258,-137.5 1258,-116.5 1154,-116.5"/>
<text text-anchor="middle" x="1206" y="-124.5" font-family="Helvetica,sans-Serif" font-size="10.00">groupanchoritem.h</text>
</g>
<!-- Node2 -->
<g id="node3" class="node"><title>Node2</title>
<a xlink:href="dimensionslauncher_8h.htm" target="_top" xlink:title="dimensionslauncher.h">
<polygon fill="white" stroke="black" points="928.5,-58.5 928.5,-79.5 1047.5,-79.5 1047.5,-58.5 928.5,-58.5"/>
<text text-anchor="middle" x="988" y="-66.5" font-family="Helvetica,sans-Serif" font-size="10.00">dimensionslauncher.h</text>
</a>
</g>
<!-- Node1&#45;&gt;Node2 -->
<g id="edge2" class="edge"><title>Node1&#45;&gt;Node2</title>
<path fill="none" stroke="midnightblue" d="M1156.43,-113.812C1117.4,-103.428 1063.73,-89.1487 1027.55,-79.5231"/>
<polygon fill="midnightblue" stroke="midnightblue" points="1155.96,-117.308 1166.52,-116.497 1157.76,-110.543 1155.96,-117.308"/>
</g>
<!-- Node15 -->
<g id="node29" class="node"><title>Node15</title>
<a xlink:href="groupanchoritem_8cpp.htm" target="_top" xlink:title="groupanchoritem.cpp">
<polygon fill="white" stroke="black" points="1716,-0.5 1716,-21.5 1832,-21.5 1832,-0.5 1716,-0.5"/>
<text text-anchor="middle" x="1774" y="-8.5" font-family="Helvetica,sans-Serif" font-size="10.00">groupanchoritem.cpp</text>
</a>
</g>
<!-- Node1&#45;&gt;Node15 -->
<g id="edge36" class="edge"><title>Node1&#45;&gt;Node15</title>
<path fill="none" stroke="midnightblue" d="M1267.51,-114.438C1380.13,-91.438 1617.51,-42.9586 1722.36,-21.5469"/>
<polygon fill="midnightblue" stroke="midnightblue" points="1266.76,-111.02 1257.66,-116.45 1268.16,-117.878 1266.76,-111.02"/>
</g>
<!-- Node3 -->
<g id="node5" class="node"><title>Node3</title>
<a xlink:href="dimensionslauncher_8cpp.htm" target="_top" xlink:title="dimensionslauncher.cpp">
<polygon fill="white" stroke="black" points="0,-0.5 0,-21.5 130,-21.5 130,-0.5 0,-0.5"/>
<text text-anchor="middle" x="65" y="-8.5" font-family="Helvetica,sans-Serif" font-size="10.00">dimensionslauncher.cpp</text>
</a>
</g>
<!-- Node2&#45;&gt;Node3 -->
<g id="edge4" class="edge"><title>Node2&#45;&gt;Node3</title>
<path fill="none" stroke="midnightblue" d="M918.301,-67.3183C773.045,-63.3346 427.455,-51.3603 139,-22 136.157,-21.7107 133.257,-21.3898 130.329,-21.045"/>
<polygon fill="midnightblue" stroke="midnightblue" points="918.319,-70.8199 928.41,-67.5914 918.508,-63.8225 918.319,-70.8199"/>
</g>
<!-- Node4 -->
<g id="node7" class="node"><title>Node4</title>
<a xlink:href="dimensionsmain_8cpp.htm" target="_top" xlink:title="dimensionsmain.cpp">
<polygon fill="white" stroke="black" points="148,-0.5 148,-21.5 260,-21.5 260,-0.5 148,-0.5"/>
<text text-anchor="middle" x="204" y="-8.5" font-family="Helvetica,sans-Serif" font-size="10.00">dimensionsmain.cpp</text>
</a>
</g>
<!-- Node2&#45;&gt;Node4 -->
<g id="edge6" class="edge"><title>Node2&#45;&gt;Node4</title>
<path fill="none" stroke="midnightblue" d="M918.037,-66.806C789.245,-62.2389 506.1,-49.738 269,-22 266.158,-21.6675 263.251,-21.2951 260.32,-20.8937"/>
<polygon fill="midnightblue" stroke="midnightblue" points="918.041,-70.3082 928.157,-67.1597 918.286,-63.3124 918.041,-70.3082"/>
</g>
<!-- Node5 -->
<g id="node9" class="node"><title>Node5</title>
<a xlink:href="pagetabbar_8cpp.htm" target="_top" xlink:title="pagetabbar.cpp">
<polygon fill="white" stroke="black" points="277.5,-0.5 277.5,-21.5 366.5,-21.5 366.5,-0.5 277.5,-0.5"/>
<text text-anchor="middle" x="322" y="-8.5" font-family="Helvetica,sans-Serif" font-size="10.00">pagetabbar.cpp</text>
</a>
</g>
<!-- Node2&#45;&gt;Node5 -->
<g id="edge8" class="edge"><title>Node2&#45;&gt;Node5</title>
<path fill="none" stroke="midnightblue" d="M918.115,-66.5565C803.984,-61.9135 570.684,-49.6924 375,-22 372.302,-21.6181 369.534,-21.1816 366.749,-20.7078"/>
<polygon fill="midnightblue" stroke="midnightblue" points="917.987,-70.0541 928.119,-66.9564 918.267,-63.0597 917.987,-70.0541"/>
</g>
<!-- Node6 -->
<g id="node11" class="node"><title>Node6</title>
<a xlink:href="quicklaunchbar_8cpp.htm" target="_top" xlink:title="quicklaunchbar.cpp">
<polygon fill="white" stroke="black" points="384,-0.5 384,-21.5 490,-21.5 490,-0.5 384,-0.5"/>
<text text-anchor="middle" x="437" y="-8.5" font-family="Helvetica,sans-Serif" font-size="10.00">quicklaunchbar.cpp</text>
</a>
</g>
<!-- Node2&#45;&gt;Node6 -->
<g id="edge10" class="edge"><title>Node2&#45;&gt;Node6</title>
<path fill="none" stroke="midnightblue" d="M918.292,-64.0589C823.25,-56.9211 647.796,-42.3174 499,-22 496.076,-21.6007 493.078,-21.1632 490.056,-20.7001"/>
<polygon fill="midnightblue" stroke="midnightblue" points="918.124,-67.5559 928.356,-64.8093 918.644,-60.5753 918.124,-67.5559"/>
</g>
<!-- Node7 -->
<g id="node13" class="node"><title>Node7</title>
<a xlink:href="icon_8cpp.htm" target="_top" xlink:title="icon.cpp">
<polygon fill="white" stroke="black" points="508,-0.5 508,-21.5 564,-21.5 564,-0.5 508,-0.5"/>
<text text-anchor="middle" x="536" y="-8.5" font-family="Helvetica,sans-Serif" font-size="10.00">icon.cpp</text>
</a>
</g>
<!-- Node2&#45;&gt;Node7 -->
<g id="edge12" class="edge"><title>Node2&#45;&gt;Node7</title>
<path fill="none" stroke="midnightblue" d="M918.323,-64.8715C835.395,-59.0942 693.043,-46.4432 573,-22 570.111,-21.4117 567.121,-20.7006 564.152,-19.9264"/>
<polygon fill="midnightblue" stroke="midnightblue" points="918.168,-68.369 928.383,-65.5589 918.645,-61.3853 918.168,-68.369"/>
</g>
<!-- Node8 -->
<g id="node15" class="node"><title>Node8</title>
<a xlink:href="alphabetpage_8cpp.htm" target="_top" xlink:title="alphabetpage.cpp">
<polygon fill="white" stroke="black" points="581.5,-0.5 581.5,-21.5 682.5,-21.5 682.5,-0.5 581.5,-0.5"/>
<text text-anchor="middle" x="632" y="-8.5" font-family="Helvetica,sans-Serif" font-size="10.00">alphabetpage.cpp</text>
</a>
</g>
<!-- Node2&#45;&gt;Node8 -->
<g id="edge14" class="edge"><title>Node2&#45;&gt;Node8</title>
<path fill="none" stroke="midnightblue" d="M918.317,-58.5239C858.072,-49.3351 768.69,-35.387 691,-22 688.228,-21.5223 685.384,-21.023 682.514,-20.5119"/>
<polygon fill="midnightblue" stroke="midnightblue" points="918.059,-62.0249 928.472,-60.0698 919.113,-55.1046 918.059,-62.0249"/>
</g>
<!-- Node9 -->
<g id="node17" class="node"><title>Node9</title>
<a xlink:href="reorderableiconlayout_8cpp.htm" target="_top" xlink:title="reorderableiconlayout.cpp">
<polygon fill="white" stroke="black" points="700,-0.5 700,-21.5 838,-21.5 838,-0.5 700,-0.5"/>
<text text-anchor="middle" x="769" y="-8.5" font-family="Helvetica,sans-Serif" font-size="10.00">reorderableiconlayout.cpp</text>
</a>
</g>
<!-- Node2&#45;&gt;Node9 -->
<g id="edge16" class="edge"><title>Node2&#45;&gt;Node9</title>
<path fill="none" stroke="midnightblue" d="M938.455,-55.8785C899.227,-45.4892 845.156,-31.1692 808.734,-21.5231"/>
<polygon fill="midnightblue" stroke="midnightblue" points="937.778,-59.3198 948.341,-58.4966 939.57,-52.5531 937.778,-59.3198"/>
</g>
<!-- Node10 -->
<g id="node19" class="node"><title>Node10</title>
<a xlink:href="page_8cpp.htm" target="_top" xlink:title="page.cpp">
<polygon fill="white" stroke="black" points="856,-0.5 856,-21.5 916,-21.5 916,-0.5 856,-0.5"/>
<text text-anchor="middle" x="886" y="-8.5" font-family="Helvetica,sans-Serif" font-size="10.00">page.cpp</text>
</a>
</g>
<!-- Node2&#45;&gt;Node10 -->
<g id="edge18" class="edge"><title>Node2&#45;&gt;Node10</title>
<path fill="none" stroke="midnightblue" d="M960.529,-53.379C942.805,-43.3011 920.227,-30.4624 904.59,-21.5707"/>
<polygon fill="midnightblue" stroke="midnightblue" points="958.869,-56.4614 969.292,-58.3619 962.329,-50.3763 958.869,-56.4614"/>
</g>
<!-- Node11 -->
<g id="node21" class="node"><title>Node11</title>
<a xlink:href="pagemovement_8cpp.htm" target="_top" xlink:title="pagemovement.cpp">
<polygon fill="white" stroke="black" points="933.5,-0.5 933.5,-21.5 1042.5,-21.5 1042.5,-0.5 933.5,-0.5"/>
<text text-anchor="middle" x="988" y="-8.5" font-family="Helvetica,sans-Serif" font-size="10.00">pagemovement.cpp</text>
</a>
</g>
<!-- Node2&#45;&gt;Node11 -->
<g id="edge20" class="edge"><title>Node2&#45;&gt;Node11</title>
<path fill="none" stroke="midnightblue" d="M988,-48.1906C988,-39.1684 988,-28.9941 988,-21.5707"/>
<polygon fill="midnightblue" stroke="midnightblue" points="984.5,-48.3619 988,-58.3619 991.5,-48.3619 984.5,-48.3619"/>
</g>
<!-- Node12 -->
<g id="node23" class="node"><title>Node12</title>
<a xlink:href="reorderablepage_8cpp.htm" target="_top" xlink:title="reorderablepage.cpp">
<polygon fill="white" stroke="black" points="1059.5,-0.5 1059.5,-21.5 1174.5,-21.5 1174.5,-0.5 1059.5,-0.5"/>
<text text-anchor="middle" x="1117" y="-8.5" font-family="Helvetica,sans-Serif" font-size="10.00">reorderablepage.cpp</text>
</a>
</g>
<!-- Node2&#45;&gt;Node12 -->
<g id="edge22" class="edge"><title>Node2&#45;&gt;Node12</title>
<path fill="none" stroke="midnightblue" d="M1020.6,-54.3431C1043.27,-44.1502 1072.97,-30.7977 1093.38,-21.6212"/>
<polygon fill="midnightblue" stroke="midnightblue" points="1019.05,-51.2037 1011.36,-58.4966 1021.92,-57.5881 1019.05,-51.2037"/>
</g>
<!-- Node13 -->
<g id="node25" class="node"><title>Node13</title>
<a xlink:href="overlaylayer_8cpp.htm" target="_top" xlink:title="overlaylayer.cpp">
<polygon fill="white" stroke="black" points="1192,-0.5 1192,-21.5 1286,-21.5 1286,-0.5 1192,-0.5"/>
<text text-anchor="middle" x="1239" y="-8.5" font-family="Helvetica,sans-Serif" font-size="10.00">overlaylayer.cpp</text>
</a>
</g>
<!-- Node2&#45;&gt;Node13 -->
<g id="edge24" class="edge"><title>Node2&#45;&gt;Node13</title>
<path fill="none" stroke="midnightblue" d="M1043.36,-56.2081C1088.43,-45.7938 1151.27,-31.2716 1193.46,-21.5231"/>
<polygon fill="midnightblue" stroke="midnightblue" points="1042.41,-52.835 1033.45,-58.4966 1043.99,-59.6553 1042.41,-52.835"/>
</g>
<!-- Node14 -->
<g id="node27" class="node"><title>Node14</title>
<a xlink:href="vcamera_8cpp.htm" target="_top" xlink:title="vcamera.cpp">
<polygon fill="white" stroke="black" points="1303.5,-0.5 1303.5,-21.5 1380.5,-21.5 1380.5,-0.5 1303.5,-0.5"/>
<text text-anchor="middle" x="1342" y="-8.5" font-family="Helvetica,sans-Serif" font-size="10.00">vcamera.cpp</text>
</a>
</g>
<!-- Node2&#45;&gt;Node14 -->
<g id="edge26" class="edge"><title>Node2&#45;&gt;Node14</title>
<path fill="none" stroke="midnightblue" d="M1057.79,-59.8967C1120.18,-51.3817 1214.01,-37.6523 1295,-22 1297.72,-21.4752 1300.51,-20.903 1303.32,-20.3042"/>
<polygon fill="midnightblue" stroke="midnightblue" points="1057.1,-56.4571 1047.66,-61.2697 1058.04,-63.3936 1057.1,-56.4571"/>
</g>
<!-- Node2&#45;&gt;Node15 -->
<g id="edge28" class="edge"><title>Node2&#45;&gt;Node15</title>
<path fill="none" stroke="midnightblue" d="M1057.95,-66.6927C1186.72,-61.9422 1469.83,-49.1552 1707,-22 1709.93,-21.6648 1712.92,-21.2901 1715.94,-20.8869"/>
<polygon fill="midnightblue" stroke="midnightblue" points="1057.7,-63.1995 1047.83,-67.0611 1057.95,-70.1948 1057.7,-63.1995"/>
</g>
<!-- Node16 -->
<g id="node31" class="node"><title>Node16</title>
<a xlink:href="appeffector_8cpp.htm" target="_top" xlink:title="appeffector.cpp">
<polygon fill="white" stroke="black" points="1398,-0.5 1398,-21.5 1488,-21.5 1488,-0.5 1398,-0.5"/>
<text text-anchor="middle" x="1443" y="-8.5" font-family="Helvetica,sans-Serif" font-size="10.00">appeffector.cpp</text>
</a>
</g>
<!-- Node2&#45;&gt;Node16 -->
<g id="edge30" class="edge"><title>Node2&#45;&gt;Node16</title>
<path fill="none" stroke="midnightblue" d="M1057.64,-62.6347C1137.82,-54.8906 1273.34,-40.5239 1389,-22 1391.93,-21.5309 1394.94,-21.0142 1397.97,-20.4682"/>
<polygon fill="midnightblue" stroke="midnightblue" points="1057.28,-59.1529 1047.66,-63.5918 1057.95,-66.1209 1057.28,-59.1529"/>
</g>
<!-- Node17 -->
<g id="node33" class="node"><title>Node17</title>
<a xlink:href="appmonitor_8cpp.htm" target="_top" xlink:title="appmonitor.cpp">
<polygon fill="white" stroke="black" points="1505.5,-0.5 1505.5,-21.5 1594.5,-21.5 1594.5,-0.5 1505.5,-0.5"/>
<text text-anchor="middle" x="1550" y="-8.5" font-family="Helvetica,sans-Serif" font-size="10.00">appmonitor.cpp</text>
</a>
</g>
<!-- Node2&#45;&gt;Node17 -->
<g id="edge32" class="edge"><title>Node2&#45;&gt;Node17</title>
<path fill="none" stroke="midnightblue" d="M1057.93,-65.0422C1156.32,-58.9071 1341.02,-45.3117 1497,-22 1499.7,-21.5972 1502.46,-21.1444 1505.24,-20.6583"/>
<polygon fill="midnightblue" stroke="midnightblue" points="1057.58,-61.5571 1047.82,-65.6657 1058.01,-68.5438 1057.58,-61.5571"/>
</g>
<!-- Node18 -->
<g id="node35" class="node"><title>Node18</title>
<a xlink:href="pagesaver_8cpp.htm" target="_top" xlink:title="pagesaver.cpp">
<polygon fill="white" stroke="black" points="1612,-0.5 1612,-21.5 1698,-21.5 1698,-0.5 1612,-0.5"/>
<text text-anchor="middle" x="1655" y="-8.5" font-family="Helvetica,sans-Serif" font-size="10.00">pagesaver.cpp</text>
</a>
</g>
<!-- Node2&#45;&gt;Node18 -->
<g id="edge34" class="edge"><title>Node2&#45;&gt;Node18</title>
<path fill="none" stroke="midnightblue" d="M1057.68,-66.6754C1172.03,-62.1889 1406.47,-50.17 1603,-22 1605.92,-21.581 1608.93,-21.0949 1611.95,-20.565"/>
<polygon fill="midnightblue" stroke="midnightblue" points="1057.51,-63.179 1047.65,-67.0613 1057.78,-70.1738 1057.51,-63.179"/>
</g>
</g>
</svg>
