<?xml version="1.0" encoding="UTF-8" standalone="no"?>
<!DOCTYPE svg PUBLIC "-//W3C//DTD SVG 1.1//EN"
 "http://www.w3.org/Graphics/SVG/1.1/DTD/svg11.dtd">
<!-- Generated by graphviz version 2.26.3 (20100126.1600)
 -->
<!-- Title: horizontaldivider.h Pages: 1 -->
<svg width="584pt" height="204pt"
 viewBox="0.00 0.00 584.00 204.00" xmlns="http://www.w3.org/2000/svg" xmlns:xlink="http://www.w3.org/1999/xlink">
<g id="graph1" class="graph" transform="scale(1 1) rotate(0) translate(4 200)">
<title>horizontaldivider.h</title>
<polygon fill="white" stroke="white" points="-4,5 -4,-200 581,-200 581,5 -4,5"/>
<!-- Node1 -->
<g id="node1" class="node"><title>Node1</title>
<polygon fill="#bfbfbf" stroke="black" points="268.5,-174.5 268.5,-195.5 371.5,-195.5 371.5,-174.5 268.5,-174.5"/>
<text text-anchor="middle" x="320" y="-182.5" font-family="Helvetica,sans-Serif" font-size="10.00">horizontaldivider.h</text>
</g>
<!-- Node2 -->
<g id="node3" class="node"><title>Node2</title>
<a xlink:href="thingpaintable_8h.htm" target="_top" xlink:title="thingpaintable.h">
<polygon fill="white" stroke="black" points="319.5,-116.5 319.5,-137.5 410.5,-137.5 410.5,-116.5 319.5,-116.5"/>
<text text-anchor="middle" x="365" y="-124.5" font-family="Helvetica,sans-Serif" font-size="10.00">thingpaintable.h</text>
</a>
</g>
<!-- Node1&#45;&gt;Node2 -->
<g id="edge2" class="edge"><title>Node1&#45;&gt;Node2</title>
<path fill="none" stroke="midnightblue" d="M328.254,-174.362C334.47,-166.35 343.151,-155.161 350.515,-145.67"/>
<polygon fill="midnightblue" stroke="midnightblue" points="353.434,-147.617 356.799,-137.571 347.903,-143.326 353.434,-147.617"/>
</g>
<!-- Node5 -->
<g id="node9" class="node"><title>Node5</title>
<polygon fill="white" stroke="#bfbfbf" points="0,-0.5 0,-21.5 46,-21.5 46,-0.5 0,-0.5"/>
<text text-anchor="middle" x="23" y="-8.5" font-family="Helvetica,sans-Serif" font-size="10.00">QUuid</text>
</g>
<!-- Node1&#45;&gt;Node5 -->
<g id="edge26" class="edge"><title>Node1&#45;&gt;Node5</title>
<path fill="none" stroke="midnightblue" d="M268.456,-177.37C226.061,-170.124 164.895,-157.419 114,-138 64.1894,-118.995 36.0923,-125.916 9,-80 0.117492,-64.9459 5.52679,-45.1802 12.0328,-30.6639"/>
<polygon fill="midnightblue" stroke="midnightblue" points="15.2335,-32.088 16.5501,-21.5753 8.96504,-28.9724 15.2335,-32.088"/>
</g>
<!-- Node6 -->
<g id="node11" class="node"><title>Node6</title>
<polygon fill="white" stroke="#bfbfbf" points="63.5,-0.5 63.5,-21.5 122.5,-21.5 122.5,-0.5 63.5,-0.5"/>
<text text-anchor="middle" x="93" y="-8.5" font-family="Helvetica,sans-Serif" font-size="10.00">QPointer</text>
</g>
<!-- Node1&#45;&gt;Node6 -->
<g id="edge42" class="edge"><title>Node1&#45;&gt;Node6</title>
<path fill="none" stroke="midnightblue" d="M317.79,-174.316C312.174,-149.893 295.018,-89.6539 257,-58 214.602,-22.6998 189.691,-36.4179 132.694,-22.2885"/>
<polygon fill="midnightblue" stroke="midnightblue" points="133.433,-18.8631 122.868,-19.6566 131.622,-25.6248 133.433,-18.8631"/>
</g>
<!-- Node9 -->
<g id="node17" class="node"><title>Node9</title>
<polygon fill="white" stroke="#bfbfbf" points="523.5,-0.5 523.5,-21.5 576.5,-21.5 576.5,-0.5 523.5,-0.5"/>
<text text-anchor="middle" x="550" y="-8.5" font-family="Helvetica,sans-Serif" font-size="10.00">QRectF</text>
</g>
<!-- Node1&#45;&gt;Node9 -->
<g id="edge28" class="edge"><title>Node1&#45;&gt;Node9</title>
<path fill="none" stroke="midnightblue" d="M348.641,-174.326C369.165,-165.997 396.959,-153.293 419,-138 465.733,-105.575 511.359,-56.1534 534.438,-29.532"/>
<polygon fill="midnightblue" stroke="midnightblue" points="537.264,-31.6121 541.111,-21.7403 531.948,-27.0584 537.264,-31.6121"/>
</g>
<!-- Node12 -->
<g id="node27" class="node"><title>Node12</title>
<polygon fill="white" stroke="#bfbfbf" points="483.5,-116.5 483.5,-137.5 530.5,-137.5 530.5,-116.5 483.5,-116.5"/>
<text text-anchor="middle" x="507" y="-124.5" font-family="Helvetica,sans-Serif" font-size="10.00">QRect</text>
</g>
<!-- Node1&#45;&gt;Node12 -->
<g id="edge30" class="edge"><title>Node1&#45;&gt;Node12</title>
<path fill="none" stroke="midnightblue" d="M353.864,-174.497C387.821,-163.965 439.787,-147.847 473.584,-137.364"/>
<polygon fill="midnightblue" stroke="midnightblue" points="474.935,-140.61 483.45,-134.304 472.862,-133.924 474.935,-140.61"/>
</g>
<!-- Node13 -->
<g id="node29" class="node"><title>Node13</title>
<a xlink:href="pixmapobject_8h.htm" target="_top" xlink:title="pixmapobject.h">
<polygon fill="white" stroke="black" points="123,-116.5 123,-137.5 209,-137.5 209,-116.5 123,-116.5"/>
<text text-anchor="middle" x="166" y="-124.5" font-family="Helvetica,sans-Serif" font-size="10.00">pixmapobject.h</text>
</a>
</g>
<!-- Node1&#45;&gt;Node13 -->
<g id="edge32" class="edge"><title>Node1&#45;&gt;Node13</title>
<path fill="none" stroke="midnightblue" d="M292.112,-174.497C267.332,-165.164 230.905,-151.445 203.564,-141.147"/>
<polygon fill="midnightblue" stroke="midnightblue" points="204.532,-137.772 193.941,-137.523 202.065,-144.323 204.532,-137.772"/>
</g>
<!-- Node3 -->
<g id="node5" class="node"><title>Node3</title>
<a xlink:href="thing_8h.htm" target="_top" xlink:title="thing.h">
<polygon fill="white" stroke="black" points="304,-58.5 304,-79.5 352,-79.5 352,-58.5 304,-58.5"/>
<text text-anchor="middle" x="328" y="-66.5" font-family="Helvetica,sans-Serif" font-size="10.00">thing.h</text>
</a>
</g>
<!-- Node2&#45;&gt;Node3 -->
<g id="edge4" class="edge"><title>Node2&#45;&gt;Node3</title>
<path fill="none" stroke="midnightblue" d="M358.214,-116.362C353.207,-108.513 346.255,-97.6159 340.282,-88.2527"/>
<polygon fill="midnightblue" stroke="midnightblue" points="343.072,-86.1189 334.743,-79.5707 337.171,-89.8837 343.072,-86.1189"/>
</g>
<!-- Node7 -->
<g id="node13" class="node"><title>Node7</title>
<polygon fill="white" stroke="#bfbfbf" points="453.5,-0.5 453.5,-21.5 506.5,-21.5 506.5,-0.5 453.5,-0.5"/>
<text text-anchor="middle" x="480" y="-8.5" font-family="Helvetica,sans-Serif" font-size="10.00">QString</text>
</g>
<!-- Node2&#45;&gt;Node7 -->
<g id="edge22" class="edge"><title>Node2&#45;&gt;Node7</title>
<path fill="none" stroke="midnightblue" d="M369.128,-116.111C375.076,-101.525 387.216,-75.4588 404,-58 416.348,-45.1561 432.912,-34.3772 447.424,-26.3954"/>
<polygon fill="midnightblue" stroke="midnightblue" points="449.384,-29.3188 456.6,-21.5606 446.121,-23.1259 449.384,-29.3188"/>
</g>
<!-- Node2&#45;&gt;Node9 -->
<g id="edge24" class="edge"><title>Node2&#45;&gt;Node9</title>
<path fill="none" stroke="midnightblue" d="M374.6,-116.493C388.388,-101.875 415.11,-75.257 442,-58 464.386,-43.6337 491.906,-31.7323 513.564,-23.5"/>
<polygon fill="midnightblue" stroke="midnightblue" points="514.901,-26.7369 523.062,-19.9802 512.469,-20.1731 514.901,-26.7369"/>
</g>
<!-- Node4 -->
<g id="node7" class="node"><title>Node4</title>
<polygon fill="white" stroke="#bfbfbf" points="338,-0.5 338,-21.5 436,-21.5 436,-0.5 338,-0.5"/>
<text text-anchor="middle" x="387" y="-8.5" font-family="Helvetica,sans-Serif" font-size="10.00">QGraphicsObject</text>
</g>
<!-- Node3&#45;&gt;Node4 -->
<g id="edge6" class="edge"><title>Node3&#45;&gt;Node4</title>
<path fill="none" stroke="midnightblue" d="M338.822,-58.3619C347.221,-50.1043 359.054,-38.4725 368.89,-28.8029"/>
<polygon fill="midnightblue" stroke="midnightblue" points="371.569,-31.077 376.247,-21.5707 366.662,-26.0851 371.569,-31.077"/>
</g>
<!-- Node3&#45;&gt;Node5 -->
<g id="edge8" class="edge"><title>Node3&#45;&gt;Node5</title>
<path fill="none" stroke="midnightblue" d="M303.571,-65.0251C246.023,-55.6307 103.721,-32.216 56.2137,-21.8318"/>
<polygon fill="midnightblue" stroke="midnightblue" points="56.8239,-18.3798 46.2873,-19.489 55.2159,-25.1926 56.8239,-18.3798"/>
</g>
<!-- Node3&#45;&gt;Node6 -->
<g id="edge10" class="edge"><title>Node3&#45;&gt;Node6</title>
<path fill="none" stroke="midnightblue" d="M303.936,-61.8017C299.324,-60.4879 294.523,-59.1655 290,-58 222.852,-40.6956 202.863,-40.101 132.602,-22.3165"/>
<polygon fill="midnightblue" stroke="midnightblue" points="133.381,-18.9032 122.825,-19.8141 131.645,-25.6845 133.381,-18.9032"/>
</g>
<!-- Node3&#45;&gt;Node7 -->
<g id="edge12" class="edge"><title>Node3&#45;&gt;Node7</title>
<path fill="none" stroke="midnightblue" d="M352.085,-59.8097C376.796,-50.3805 415.533,-35.5992 443.909,-24.7717"/>
<polygon fill="midnightblue" stroke="midnightblue" points="445.378,-27.9572 453.473,-21.122 442.883,-21.4171 445.378,-27.9572"/>
</g>
<!-- Node8 -->
<g id="node15" class="node"><title>Node8</title>
<polygon fill="white" stroke="#bfbfbf" points="139.5,-0.5 139.5,-21.5 180.5,-21.5 180.5,-0.5 139.5,-0.5"/>
<text text-anchor="middle" x="160" y="-8.5" font-family="Helvetica,sans-Serif" font-size="10.00">QList</text>
</g>
<!-- Node3&#45;&gt;Node8 -->
<g id="edge14" class="edge"><title>Node3&#45;&gt;Node8</title>
<path fill="none" stroke="midnightblue" d="M303.801,-61.1146C277.842,-52.5916 235.196,-38.4062 190.194,-22.3566"/>
<polygon fill="midnightblue" stroke="midnightblue" points="191.155,-18.9831 180.561,-18.9049 188.794,-25.5729 191.155,-18.9831"/>
</g>
<!-- Node3&#45;&gt;Node9 -->
<g id="edge16" class="edge"><title>Node3&#45;&gt;Node9</title>
<path fill="none" stroke="midnightblue" d="M352.029,-63.4343C385.995,-55.4651 450.184,-40.0333 513.548,-22.3151"/>
<polygon fill="midnightblue" stroke="midnightblue" points="514.619,-25.6496 523.295,-19.5691 512.721,-18.9119 514.619,-25.6496"/>
</g>
<!-- Node10 -->
<g id="node19" class="node"><title>Node10</title>
<polygon fill="white" stroke="#bfbfbf" points="197.5,-0.5 197.5,-21.5 252.5,-21.5 252.5,-0.5 197.5,-0.5"/>
<text text-anchor="middle" x="225" y="-8.5" font-family="Helvetica,sans-Serif" font-size="10.00">QDebug</text>
</g>
<!-- Node3&#45;&gt;Node10 -->
<g id="edge18" class="edge"><title>Node3&#45;&gt;Node10</title>
<path fill="none" stroke="midnightblue" d="M309.108,-58.3619C293.282,-49.4502 270.477,-36.6087 252.605,-26.5447"/>
<polygon fill="midnightblue" stroke="midnightblue" points="254.203,-23.4276 243.772,-21.5707 250.768,-29.5271 254.203,-23.4276"/>
</g>
<!-- Node11 -->
<g id="node21" class="node"><title>Node11</title>
<polygon fill="white" stroke="#bfbfbf" points="270,-0.5 270,-21.5 320,-21.5 320,-0.5 270,-0.5"/>
<text text-anchor="middle" x="295" y="-8.5" font-family="Helvetica,sans-Serif" font-size="10.00">QHash</text>
</g>
<!-- Node3&#45;&gt;Node11 -->
<g id="edge20" class="edge"><title>Node3&#45;&gt;Node11</title>
<path fill="none" stroke="midnightblue" d="M321.947,-58.3619C317.528,-50.5949 311.41,-39.8426 306.121,-30.5458"/>
<polygon fill="midnightblue" stroke="midnightblue" points="309.002,-28.5315 301.014,-21.5707 302.918,-31.9932 309.002,-28.5315"/>
</g>
<!-- Node13&#45;&gt;Node5 -->
<g id="edge38" class="edge"><title>Node13&#45;&gt;Node5</title>
<path fill="none" stroke="midnightblue" d="M165.93,-116.241C165.259,-101.324 161.89,-74.3532 147,-58 143.741,-54.4212 91.2429,-35.2584 55.6105,-22.5331"/>
<polygon fill="midnightblue" stroke="midnightblue" points="56.6571,-19.1906 46.0625,-19.133 54.3088,-25.785 56.6571,-19.1906"/>
</g>
<!-- Node14 -->
<g id="node31" class="node"><title>Node14</title>
<polygon fill="white" stroke="#bfbfbf" points="193.5,-58.5 193.5,-79.5 248.5,-79.5 248.5,-58.5 193.5,-58.5"/>
<text text-anchor="middle" x="221" y="-66.5" font-family="Helvetica,sans-Serif" font-size="10.00">QObject</text>
</g>
<!-- Node13&#45;&gt;Node14 -->
<g id="edge34" class="edge"><title>Node13&#45;&gt;Node14</title>
<path fill="none" stroke="midnightblue" d="M176.088,-116.362C183.841,-108.186 194.73,-96.7025 203.845,-87.0907"/>
<polygon fill="midnightblue" stroke="midnightblue" points="206.635,-89.2352 210.976,-79.5707 201.555,-84.4186 206.635,-89.2352"/>
</g>
<!-- Node15 -->
<g id="node33" class="node"><title>Node15</title>
<polygon fill="white" stroke="#bfbfbf" points="17.5,-58.5 17.5,-79.5 76.5,-79.5 76.5,-58.5 17.5,-58.5"/>
<text text-anchor="middle" x="47" y="-66.5" font-family="Helvetica,sans-Serif" font-size="10.00">QPixmap</text>
</g>
<!-- Node13&#45;&gt;Node15 -->
<g id="edge36" class="edge"><title>Node13&#45;&gt;Node15</title>
<path fill="none" stroke="midnightblue" d="M144.45,-116.497C125.864,-107.438 98.7982,-94.2462 77.9046,-84.0628"/>
<polygon fill="midnightblue" stroke="midnightblue" points="79.3144,-80.8563 68.7918,-79.6212 76.2475,-87.1487 79.3144,-80.8563"/>
</g>
<!-- Node16 -->
<g id="node36" class="node"><title>Node16</title>
<polygon fill="white" stroke="#bfbfbf" points="93.5,-58.5 93.5,-79.5 138.5,-79.5 138.5,-58.5 93.5,-58.5"/>
<text text-anchor="middle" x="116" y="-66.5" font-family="Helvetica,sans-Serif" font-size="10.00">QSize</text>
</g>
<!-- Node13&#45;&gt;Node16 -->
<g id="edge40" class="edge"><title>Node13&#45;&gt;Node16</title>
<path fill="none" stroke="midnightblue" d="M156.829,-116.362C149.852,-108.268 140.079,-96.9318 131.844,-87.3796"/>
<polygon fill="midnightblue" stroke="midnightblue" points="134.293,-84.8595 125.113,-79.5707 128.991,-89.4301 134.293,-84.8595"/>
</g>
</g>
</svg>
