<?xml version="1.0" encoding="UTF-8" standalone="no"?>
<!DOCTYPE svg PUBLIC "-//W3C//DTD SVG 1.1//EN"
 "http://www.w3.org/Graphics/SVG/1.1/DTD/svg11.dtd">
<!-- Generated by graphviz version 2.26.3 (20100126.1600)
 -->
<!-- Title: horizontaldivider.h Pages: 1 -->
<svg width="359pt" height="146pt"
 viewBox="0.00 0.00 359.00 146.00" xmlns="http://www.w3.org/2000/svg" xmlns:xlink="http://www.w3.org/1999/xlink">
<g id="graph1" class="graph" transform="scale(1 1) rotate(0) translate(4 142)">
<title>horizontaldivider.h</title>
<polygon fill="white" stroke="white" points="-4,5 -4,-142 356,-142 356,5 -4,5"/>
<!-- Node1 -->
<g id="node1" class="node"><title>Node1</title>
<polygon fill="#bfbfbf" stroke="black" points="76.5,-116.5 76.5,-137.5 179.5,-137.5 179.5,-116.5 76.5,-116.5"/>
<text text-anchor="middle" x="128" y="-124.5" font-family="Helvetica,sans-Serif" font-size="10.00">horizontaldivider.h</text>
</g>
<!-- Node2 -->
<g id="node3" class="node"><title>Node2</title>
<a xlink:href="horizontaldivider_8cpp.htm" target="_top" xlink:title="horizontaldivider.cpp">
<polygon fill="white" stroke="black" points="0,-58.5 0,-79.5 114,-79.5 114,-58.5 0,-58.5"/>
<text text-anchor="middle" x="57" y="-66.5" font-family="Helvetica,sans-Serif" font-size="10.00">horizontaldivider.cpp</text>
</a>
</g>
<!-- Node1&#45;&gt;Node2 -->
<g id="edge2" class="edge"><title>Node1&#45;&gt;Node2</title>
<path fill="none" stroke="midnightblue" d="M107.159,-109.975C95.1093,-100.132 80.3254,-88.0545 69.9399,-79.5707"/>
<polygon fill="midnightblue" stroke="midnightblue" points="105.019,-112.746 114.978,-116.362 109.447,-107.325 105.019,-112.746"/>
</g>
<!-- Node3 -->
<g id="node5" class="node"><title>Node3</title>
<a xlink:href="horizontallabeleddivider_8h.htm" target="_top" xlink:title="horizontallabeleddivider.h">
<polygon fill="white" stroke="black" points="131.5,-58.5 131.5,-79.5 268.5,-79.5 268.5,-58.5 131.5,-58.5"/>
<text text-anchor="middle" x="200" y="-66.5" font-family="Helvetica,sans-Serif" font-size="10.00">horizontallabeleddivider.h</text>
</a>
</g>
<!-- Node1&#45;&gt;Node3 -->
<g id="edge4" class="edge"><title>Node1&#45;&gt;Node3</title>
<path fill="none" stroke="midnightblue" d="M149.134,-109.975C161.354,-100.132 176.346,-88.0545 186.878,-79.5707"/>
<polygon fill="midnightblue" stroke="midnightblue" points="146.798,-107.363 141.206,-116.362 151.189,-112.814 146.798,-107.363"/>
</g>
<!-- Node4 -->
<g id="node7" class="node"><title>Node4</title>
<a xlink:href="alphabeticonlayout_8cpp.htm" target="_top" xlink:title="alphabeticonlayout.cpp">
<polygon fill="white" stroke="black" points="61,-0.5 61,-21.5 185,-21.5 185,-0.5 61,-0.5"/>
<text text-anchor="middle" x="123" y="-8.5" font-family="Helvetica,sans-Serif" font-size="10.00">alphabeticonlayout.cpp</text>
</a>
</g>
<!-- Node3&#45;&gt;Node4 -->
<g id="edge6" class="edge"><title>Node3&#45;&gt;Node4</title>
<path fill="none" stroke="midnightblue" d="M177.774,-52.2587C164.639,-42.3641 148.405,-30.1361 137.033,-21.5707"/>
<polygon fill="midnightblue" stroke="midnightblue" points="175.784,-55.1409 185.877,-58.3619 179.995,-49.5496 175.784,-55.1409"/>
</g>
<!-- Node5 -->
<g id="node9" class="node"><title>Node5</title>
<a xlink:href="horizontallabeleddivider_8cpp.htm" target="_top" xlink:title="horizontallabeleddivider.cpp">
<polygon fill="white" stroke="black" points="203,-0.5 203,-21.5 351,-21.5 351,-0.5 203,-0.5"/>
<text text-anchor="middle" x="277" y="-8.5" font-family="Helvetica,sans-Serif" font-size="10.00">horizontallabeleddivider.cpp</text>
</a>
</g>
<!-- Node3&#45;&gt;Node5 -->
<g id="edge8" class="edge"><title>Node3&#45;&gt;Node5</title>
<path fill="none" stroke="midnightblue" d="M222.226,-52.2587C235.361,-42.3641 251.595,-30.1361 262.967,-21.5707"/>
<polygon fill="midnightblue" stroke="midnightblue" points="220.005,-49.5496 214.123,-58.3619 224.216,-55.1409 220.005,-49.5496"/>
</g>
</g>
</svg>
