<?xml version="1.0" encoding="UTF-8" standalone="no"?>
<!DOCTYPE svg PUBLIC "-//W3C//DTD SVG 1.1//EN"
 "http://www.w3.org/Graphics/SVG/1.1/DTD/svg11.dtd">
<!-- Generated by graphviz version 2.26.3 (20100126.1600)
 -->
<!-- Title: horizontaldivider.cpp Pages: 1 -->
<svg width="969pt" height="262pt"
 viewBox="0.00 0.00 969.00 262.00" xmlns="http://www.w3.org/2000/svg" xmlns:xlink="http://www.w3.org/1999/xlink">
<g id="graph1" class="graph" transform="scale(1 1) rotate(0) translate(4 258)">
<title>horizontaldivider.cpp</title>
<polygon fill="white" stroke="white" points="-4,5 -4,-258 966,-258 966,5 -4,5"/>
<!-- Node1 -->
<g id="node1" class="node"><title>Node1</title>
<polygon fill="#bfbfbf" stroke="black" points="461,-232.5 461,-253.5 575,-253.5 575,-232.5 461,-232.5"/>
<text text-anchor="middle" x="518" y="-240.5" font-family="Helvetica,sans-Serif" font-size="10.00">horizontaldivider.cpp</text>
</g>
<!-- Node2 -->
<g id="node3" class="node"><title>Node2</title>
<a xlink:href="horizontaldivider_8h.htm" target="_top" xlink:title="horizontaldivider.h">
<polygon fill="white" stroke="black" points="396.5,-174.5 396.5,-195.5 499.5,-195.5 499.5,-174.5 396.5,-174.5"/>
<text text-anchor="middle" x="448" y="-182.5" font-family="Helvetica,sans-Serif" font-size="10.00">horizontaldivider.h</text>
</a>
</g>
<!-- Node1&#45;&gt;Node2 -->
<g id="edge2" class="edge"><title>Node1&#45;&gt;Node2</title>
<path fill="none" stroke="midnightblue" d="M505.161,-232.362C494.998,-223.941 480.599,-212.011 468.796,-202.231"/>
<polygon fill="midnightblue" stroke="midnightblue" points="470.691,-199.256 460.758,-195.571 466.225,-204.646 470.691,-199.256"/>
</g>
<!-- Node11 -->
<g id="node21" class="node"><title>Node11</title>
<polygon fill="white" stroke="#bfbfbf" points="-0.5,-0.5 -0.5,-21.5 54.5,-21.5 54.5,-0.5 -0.5,-0.5"/>
<text text-anchor="middle" x="27" y="-8.5" font-family="Helvetica,sans-Serif" font-size="10.00">QDebug</text>
</g>
<!-- Node1&#45;&gt;Node11 -->
<g id="edge66" class="edge"><title>Node1&#45;&gt;Node11</title>
<path fill="none" stroke="midnightblue" d="M460.872,-237.592C380.84,-227.918 233.046,-202.254 125,-138 81.7472,-112.278 50.7288,-59.5943 36.2229,-30.8254"/>
<polygon fill="midnightblue" stroke="midnightblue" points="39.3166,-29.1843 31.7876,-21.7302 33.0249,-32.2525 39.3166,-29.1843"/>
</g>
<!-- Node18 -->
<g id="node41" class="node"><title>Node18</title>
<a xlink:href="dimensionsglobal_8h.htm" target="_top" xlink:title="dimensionsglobal.h">
<polygon fill="white" stroke="black" points="582,-58.5 582,-79.5 688,-79.5 688,-58.5 582,-58.5"/>
<text text-anchor="middle" x="635" y="-66.5" font-family="Helvetica,sans-Serif" font-size="10.00">dimensionsglobal.h</text>
</a>
</g>
<!-- Node1&#45;&gt;Node18 -->
<g id="edge46" class="edge"><title>Node1&#45;&gt;Node18</title>
<path fill="none" stroke="midnightblue" d="M525.143,-232.377C544.353,-203.809 597.333,-125.017 622.022,-88.2999"/>
<polygon fill="midnightblue" stroke="midnightblue" points="624.976,-90.1792 627.652,-79.9277 619.168,-86.2732 624.976,-90.1792"/>
</g>
<!-- Node24 -->
<g id="node56" class="node"><title>Node24</title>
<polygon fill="white" stroke="#bfbfbf" points="615.5,-174.5 615.5,-195.5 674.5,-195.5 674.5,-174.5 615.5,-174.5"/>
<text text-anchor="middle" x="645" y="-182.5" font-family="Helvetica,sans-Serif" font-size="10.00">QPainter</text>
</g>
<!-- Node1&#45;&gt;Node24 -->
<g id="edge64" class="edge"><title>Node1&#45;&gt;Node24</title>
<path fill="none" stroke="midnightblue" d="M540.999,-232.497C561.013,-223.356 590.241,-210.008 612.619,-199.788"/>
<polygon fill="midnightblue" stroke="midnightblue" points="614.101,-202.959 621.743,-195.621 611.193,-196.592 614.101,-202.959"/>
</g>
<!-- Node3 -->
<g id="node5" class="node"><title>Node3</title>
<a xlink:href="thingpaintable_8h.htm" target="_top" xlink:title="thingpaintable.h">
<polygon fill="white" stroke="black" points="321.5,-116.5 321.5,-137.5 412.5,-137.5 412.5,-116.5 321.5,-116.5"/>
<text text-anchor="middle" x="367" y="-124.5" font-family="Helvetica,sans-Serif" font-size="10.00">thingpaintable.h</text>
</a>
</g>
<!-- Node2&#45;&gt;Node3 -->
<g id="edge4" class="edge"><title>Node2&#45;&gt;Node3</title>
<path fill="none" stroke="midnightblue" d="M433.143,-174.362C421.154,-165.777 404.073,-153.546 390.272,-143.664"/>
<polygon fill="midnightblue" stroke="midnightblue" points="391.931,-140.547 381.762,-137.571 387.855,-146.238 391.931,-140.547"/>
</g>
<!-- Node6 -->
<g id="node11" class="node"><title>Node6</title>
<polygon fill="white" stroke="#bfbfbf" points="393,-0.5 393,-21.5 439,-21.5 439,-0.5 393,-0.5"/>
<text text-anchor="middle" x="416" y="-8.5" font-family="Helvetica,sans-Serif" font-size="10.00">QUuid</text>
</g>
<!-- Node2&#45;&gt;Node6 -->
<g id="edge28" class="edge"><title>Node2&#45;&gt;Node6</title>
<path fill="none" stroke="midnightblue" d="M446.046,-174.377C440.881,-146.293 426.791,-69.6735 419.899,-32.2027"/>
<polygon fill="midnightblue" stroke="midnightblue" points="423.261,-31.1297 418.01,-21.9277 416.376,-32.3959 423.261,-31.1297"/>
</g>
<!-- Node7 -->
<g id="node13" class="node"><title>Node7</title>
<polygon fill="white" stroke="#bfbfbf" points="72.5,-0.5 72.5,-21.5 131.5,-21.5 131.5,-0.5 72.5,-0.5"/>
<text text-anchor="middle" x="102" y="-8.5" font-family="Helvetica,sans-Serif" font-size="10.00">QPointer</text>
</g>
<!-- Node2&#45;&gt;Node7 -->
<g id="edge44" class="edge"><title>Node2&#45;&gt;Node7</title>
<path fill="none" stroke="midnightblue" d="M396.384,-178.68C303.144,-166.007 113.11,-133.985 79,-80 69.2811,-64.6182 77.7899,-44.6918 87.086,-30.2099"/>
<polygon fill="midnightblue" stroke="midnightblue" points="89.9717,-32.1906 92.82,-21.9858 84.2296,-28.1871 89.9717,-32.1906"/>
</g>
<!-- Node10 -->
<g id="node19" class="node"><title>Node10</title>
<polygon fill="white" stroke="#bfbfbf" points="456.5,-0.5 456.5,-21.5 509.5,-21.5 509.5,-0.5 456.5,-0.5"/>
<text text-anchor="middle" x="483" y="-8.5" font-family="Helvetica,sans-Serif" font-size="10.00">QRectF</text>
</g>
<!-- Node2&#45;&gt;Node10 -->
<g id="edge30" class="edge"><title>Node2&#45;&gt;Node10</title>
<path fill="none" stroke="midnightblue" d="M483.624,-174.373C501.181,-167.134 520.742,-155.597 531,-138 552.01,-101.958 521.024,-55.0471 499.897,-29.5244"/>
<polygon fill="midnightblue" stroke="midnightblue" points="502.374,-27.0358 493.2,-21.7354 497.066,-31.5997 502.374,-27.0358"/>
</g>
<!-- Node13 -->
<g id="node29" class="node"><title>Node13</title>
<polygon fill="white" stroke="#bfbfbf" points="475.5,-116.5 475.5,-137.5 522.5,-137.5 522.5,-116.5 475.5,-116.5"/>
<text text-anchor="middle" x="499" y="-124.5" font-family="Helvetica,sans-Serif" font-size="10.00">QRect</text>
</g>
<!-- Node2&#45;&gt;Node13 -->
<g id="edge32" class="edge"><title>Node2&#45;&gt;Node13</title>
<path fill="none" stroke="midnightblue" d="M457.354,-174.362C464.543,-166.186 474.641,-154.702 483.093,-145.091"/>
<polygon fill="midnightblue" stroke="midnightblue" points="485.73,-147.392 489.705,-137.571 480.473,-142.769 485.73,-147.392"/>
</g>
<!-- Node14 -->
<g id="node31" class="node"><title>Node14</title>
<a xlink:href="pixmapobject_8h.htm" target="_top" xlink:title="pixmapobject.h">
<polygon fill="white" stroke="black" points="210,-116.5 210,-137.5 296,-137.5 296,-116.5 210,-116.5"/>
<text text-anchor="middle" x="253" y="-124.5" font-family="Helvetica,sans-Serif" font-size="10.00">pixmapobject.h</text>
</a>
</g>
<!-- Node2&#45;&gt;Node14 -->
<g id="edge34" class="edge"><title>Node2&#45;&gt;Node14</title>
<path fill="none" stroke="midnightblue" d="M412.687,-174.497C380.621,-164.959 333.155,-150.841 298.304,-140.475"/>
<polygon fill="midnightblue" stroke="midnightblue" points="298.962,-137.019 288.379,-137.523 296.966,-143.729 298.962,-137.019"/>
</g>
<!-- Node4 -->
<g id="node7" class="node"><title>Node4</title>
<a xlink:href="thing_8h.htm" target="_top" xlink:title="thing.h">
<polygon fill="white" stroke="black" points="336,-58.5 336,-79.5 384,-79.5 384,-58.5 336,-58.5"/>
<text text-anchor="middle" x="360" y="-66.5" font-family="Helvetica,sans-Serif" font-size="10.00">thing.h</text>
</a>
</g>
<!-- Node3&#45;&gt;Node4 -->
<g id="edge6" class="edge"><title>Node3&#45;&gt;Node4</title>
<path fill="none" stroke="midnightblue" d="M365.716,-116.362C364.818,-108.922 363.59,-98.7427 362.502,-89.7276"/>
<polygon fill="midnightblue" stroke="midnightblue" points="365.949,-89.0792 361.276,-79.5707 358.999,-89.918 365.949,-89.0792"/>
</g>
<!-- Node8 -->
<g id="node15" class="node"><title>Node8</title>
<polygon fill="white" stroke="#bfbfbf" points="148.5,-0.5 148.5,-21.5 201.5,-21.5 201.5,-0.5 148.5,-0.5"/>
<text text-anchor="middle" x="175" y="-8.5" font-family="Helvetica,sans-Serif" font-size="10.00">QString</text>
</g>
<!-- Node3&#45;&gt;Node8 -->
<g id="edge24" class="edge"><title>Node3&#45;&gt;Node8</title>
<path fill="none" stroke="midnightblue" d="M357.294,-116.43C343.35,-101.737 316.306,-75.0305 289,-58 264.523,-42.7344 234.229,-30.5175 211.023,-22.3693"/>
<polygon fill="midnightblue" stroke="midnightblue" points="212.144,-19.0537 201.549,-19.1294 209.879,-25.677 212.144,-19.0537"/>
</g>
<!-- Node3&#45;&gt;Node10 -->
<g id="edge26" class="edge"><title>Node3&#45;&gt;Node10</title>
<path fill="none" stroke="midnightblue" d="M382.26,-116.215C394.615,-107.169 412.174,-93.5827 426,-80 441.972,-64.3098 458.022,-44.4221 469.003,-30.0331"/>
<polygon fill="midnightblue" stroke="midnightblue" points="471.927,-31.9676 475.138,-21.8712 466.332,-27.7614 471.927,-31.9676"/>
</g>
<!-- Node5 -->
<g id="node9" class="node"><title>Node5</title>
<polygon fill="white" stroke="#bfbfbf" points="219,-0.5 219,-21.5 317,-21.5 317,-0.5 219,-0.5"/>
<text text-anchor="middle" x="268" y="-8.5" font-family="Helvetica,sans-Serif" font-size="10.00">QGraphicsObject</text>
</g>
<!-- Node4&#45;&gt;Node5 -->
<g id="edge8" class="edge"><title>Node4&#45;&gt;Node5</title>
<path fill="none" stroke="midnightblue" d="M343.126,-58.3619C329.249,-49.6138 309.366,-37.0786 293.54,-27.1015"/>
<polygon fill="midnightblue" stroke="midnightblue" points="295.093,-23.943 284.767,-21.5707 291.36,-29.8645 295.093,-23.943"/>
</g>
<!-- Node4&#45;&gt;Node6 -->
<g id="edge10" class="edge"><title>Node4&#45;&gt;Node6</title>
<path fill="none" stroke="midnightblue" d="M370.271,-58.3619C378.244,-50.1043 389.475,-38.4725 398.811,-28.8029"/>
<polygon fill="midnightblue" stroke="midnightblue" points="401.366,-31.1958 405.794,-21.5707 396.33,-26.3336 401.366,-31.1958"/>
</g>
<!-- Node4&#45;&gt;Node7 -->
<g id="edge12" class="edge"><title>Node4&#45;&gt;Node7</title>
<path fill="none" stroke="midnightblue" d="M335.78,-64.4127C296.787,-56.9019 217.501,-41.1128 141.541,-22.2813"/>
<polygon fill="midnightblue" stroke="midnightblue" points="142.367,-18.88 131.816,-19.8487 140.668,-25.6708 142.367,-18.88"/>
</g>
<!-- Node4&#45;&gt;Node8 -->
<g id="edge14" class="edge"><title>Node4&#45;&gt;Node8</title>
<path fill="none" stroke="midnightblue" d="M335.837,-61.436C307.986,-52.716 260.586,-37.8706 211.3,-22.4066"/>
<polygon fill="midnightblue" stroke="midnightblue" points="212.341,-19.0651 201.752,-19.4105 210.246,-25.744 212.341,-19.0651"/>
</g>
<!-- Node9 -->
<g id="node17" class="node"><title>Node9</title>
<polygon fill="white" stroke="#bfbfbf" points="334.5,-0.5 334.5,-21.5 375.5,-21.5 375.5,-0.5 334.5,-0.5"/>
<text text-anchor="middle" x="355" y="-8.5" font-family="Helvetica,sans-Serif" font-size="10.00">QList</text>
</g>
<!-- Node4&#45;&gt;Node9 -->
<g id="edge16" class="edge"><title>Node4&#45;&gt;Node9</title>
<path fill="none" stroke="midnightblue" d="M359.083,-58.3619C358.442,-50.9219 357.564,-40.7427 356.787,-31.7276"/>
<polygon fill="midnightblue" stroke="midnightblue" points="360.257,-31.2331 355.911,-21.5707 353.283,-31.8343 360.257,-31.2331"/>
</g>
<!-- Node4&#45;&gt;Node10 -->
<g id="edge18" class="edge"><title>Node4&#45;&gt;Node10</title>
<path fill="none" stroke="midnightblue" d="M382.274,-58.4966C401.572,-49.397 429.713,-36.1273 451.348,-25.9253"/>
<polygon fill="midnightblue" stroke="midnightblue" points="452.924,-29.052 460.476,-21.6212 449.938,-22.7206 452.924,-29.052"/>
</g>
<!-- Node4&#45;&gt;Node11 -->
<g id="edge20" class="edge"><title>Node4&#45;&gt;Node11</title>
<path fill="none" stroke="midnightblue" d="M335.565,-65.2098C273.217,-55.528 110.409,-30.1746 64.6853,-21.6769"/>
<polygon fill="midnightblue" stroke="midnightblue" points="65.2704,-18.2246 54.7767,-19.6845 63.8904,-25.0873 65.2704,-18.2246"/>
</g>
<!-- Node12 -->
<g id="node23" class="node"><title>Node12</title>
<polygon fill="white" stroke="#bfbfbf" points="527,-0.5 527,-21.5 577,-21.5 577,-0.5 527,-0.5"/>
<text text-anchor="middle" x="552" y="-8.5" font-family="Helvetica,sans-Serif" font-size="10.00">QHash</text>
</g>
<!-- Node4&#45;&gt;Node12 -->
<g id="edge22" class="edge"><title>Node4&#45;&gt;Node12</title>
<path fill="none" stroke="midnightblue" d="M384.145,-62.0112C413.365,-53.5116 464.293,-38.5648 516.927,-22.2894"/>
<polygon fill="midnightblue" stroke="midnightblue" points="518.256,-25.5418 526.77,-19.2362 516.182,-18.8561 518.256,-25.5418"/>
</g>
<!-- Node14&#45;&gt;Node6 -->
<g id="edge40" class="edge"><title>Node14&#45;&gt;Node6</title>
<path fill="none" stroke="midnightblue" d="M296.025,-117.04C331.845,-107.96 379.146,-93.8837 393,-80 405.847,-67.1254 411.519,-46.8947 414.022,-31.6617"/>
<polygon fill="midnightblue" stroke="midnightblue" points="417.508,-32.0008 415.342,-21.6296 410.567,-31.0873 417.508,-32.0008"/>
</g>
<!-- Node15 -->
<g id="node33" class="node"><title>Node15</title>
<polygon fill="white" stroke="#bfbfbf" points="225.5,-58.5 225.5,-79.5 280.5,-79.5 280.5,-58.5 225.5,-58.5"/>
<text text-anchor="middle" x="253" y="-66.5" font-family="Helvetica,sans-Serif" font-size="10.00">QObject</text>
</g>
<!-- Node14&#45;&gt;Node15 -->
<g id="edge36" class="edge"><title>Node14&#45;&gt;Node15</title>
<path fill="none" stroke="midnightblue" d="M253,-116.362C253,-108.922 253,-98.7427 253,-89.7276"/>
<polygon fill="midnightblue" stroke="midnightblue" points="256.5,-89.5706 253,-79.5707 249.5,-89.5707 256.5,-89.5706"/>
</g>
<!-- Node16 -->
<g id="node35" class="node"><title>Node16</title>
<polygon fill="white" stroke="#bfbfbf" points="87.5,-58.5 87.5,-79.5 146.5,-79.5 146.5,-58.5 87.5,-58.5"/>
<text text-anchor="middle" x="117" y="-66.5" font-family="Helvetica,sans-Serif" font-size="10.00">QPixmap</text>
</g>
<!-- Node14&#45;&gt;Node16 -->
<g id="edge38" class="edge"><title>Node14&#45;&gt;Node16</title>
<path fill="none" stroke="midnightblue" d="M228.371,-116.497C206.843,-107.315 175.36,-93.8889 151.355,-83.6516"/>
<polygon fill="midnightblue" stroke="midnightblue" points="152.476,-80.3247 141.905,-79.6212 149.73,-86.7636 152.476,-80.3247"/>
</g>
<!-- Node17 -->
<g id="node38" class="node"><title>Node17</title>
<polygon fill="white" stroke="#bfbfbf" points="163.5,-58.5 163.5,-79.5 208.5,-79.5 208.5,-58.5 163.5,-58.5"/>
<text text-anchor="middle" x="186" y="-66.5" font-family="Helvetica,sans-Serif" font-size="10.00">QSize</text>
</g>
<!-- Node14&#45;&gt;Node17 -->
<g id="edge42" class="edge"><title>Node14&#45;&gt;Node17</title>
<path fill="none" stroke="midnightblue" d="M240.711,-116.362C230.983,-107.941 217.202,-96.0105 205.905,-86.2308"/>
<polygon fill="midnightblue" stroke="midnightblue" points="208.062,-83.4695 198.211,-79.5707 203.481,-88.7619 208.062,-83.4695"/>
</g>
<!-- Node18&#45;&gt;Node6 -->
<g id="edge58" class="edge"><title>Node18&#45;&gt;Node6</title>
<path fill="none" stroke="midnightblue" d="M588.594,-58.4934C552.801,-50.1292 501.889,-37.6704 449.2,-22.2034"/>
<polygon fill="midnightblue" stroke="midnightblue" points="449.927,-18.7684 439.345,-19.2807 447.937,-25.4795 449.927,-18.7684"/>
</g>
<!-- Node18&#45;&gt;Node10 -->
<g id="edge52" class="edge"><title>Node18&#45;&gt;Node10</title>
<path fill="none" stroke="midnightblue" d="M607.474,-58.4966C582.711,-49.0476 546.164,-35.1021 519.072,-24.7641"/>
<polygon fill="midnightblue" stroke="midnightblue" points="520.148,-21.4288 509.557,-21.1337 517.652,-27.9688 520.148,-21.4288"/>
</g>
<!-- Node18&#45;&gt;Node12 -->
<g id="edge60" class="edge"><title>Node18&#45;&gt;Node12</title>
<path fill="none" stroke="midnightblue" d="M619.777,-58.3619C607.375,-49.6955 589.654,-37.3126 575.443,-27.3819"/>
<polygon fill="midnightblue" stroke="midnightblue" points="577.329,-24.4297 567.127,-21.5707 573.319,-30.1676 577.329,-24.4297"/>
</g>
<!-- Node19 -->
<g id="node43" class="node"><title>Node19</title>
<polygon fill="white" stroke="#bfbfbf" points="692.5,-0.5 692.5,-21.5 751.5,-21.5 751.5,-0.5 692.5,-0.5"/>
<text text-anchor="middle" x="722" y="-8.5" font-family="Helvetica,sans-Serif" font-size="10.00">qglobal.h</text>
</g>
<!-- Node18&#45;&gt;Node19 -->
<g id="edge48" class="edge"><title>Node18&#45;&gt;Node19</title>
<path fill="none" stroke="midnightblue" d="M650.957,-58.3619C663.957,-49.6955 682.531,-37.3126 697.427,-27.3819"/>
<polygon fill="midnightblue" stroke="midnightblue" points="699.765,-30.0299 706.144,-21.5707 695.882,-24.2055 699.765,-30.0299"/>
</g>
<!-- Node20 -->
<g id="node45" class="node"><title>Node20</title>
<polygon fill="white" stroke="#bfbfbf" points="769,-0.5 769,-21.5 823,-21.5 823,-0.5 769,-0.5"/>
<text text-anchor="middle" x="796" y="-8.5" font-family="Helvetica,sans-Serif" font-size="10.00">qmath.h</text>
</g>
<!-- Node18&#45;&gt;Node20 -->
<g id="edge50" class="edge"><title>Node18&#45;&gt;Node20</title>
<path fill="none" stroke="midnightblue" d="M664.156,-58.4966C690.824,-48.8893 730.396,-34.6337 759.226,-24.2478"/>
<polygon fill="midnightblue" stroke="midnightblue" points="760.715,-27.4317 768.937,-20.7495 758.342,-20.846 760.715,-27.4317"/>
</g>
<!-- Node21 -->
<g id="node48" class="node"><title>Node21</title>
<polygon fill="white" stroke="#bfbfbf" points="840.5,-0.5 840.5,-21.5 889.5,-21.5 889.5,-0.5 840.5,-0.5"/>
<text text-anchor="middle" x="865" y="-8.5" font-family="Helvetica,sans-Serif" font-size="10.00">QPoint</text>
</g>
<!-- Node18&#45;&gt;Node21 -->
<g id="edge54" class="edge"><title>Node18&#45;&gt;Node21</title>
<path fill="none" stroke="midnightblue" d="M684.29,-58.4979C722.059,-50.1666 775.637,-37.7388 830.343,-22.3306"/>
<polygon fill="midnightblue" stroke="midnightblue" points="831.547,-25.6273 840.206,-19.5233 829.63,-18.8947 831.547,-25.6273"/>
</g>
<!-- Node22 -->
<g id="node50" class="node"><title>Node22</title>
<polygon fill="white" stroke="#bfbfbf" points="906.5,-0.5 906.5,-21.5 961.5,-21.5 961.5,-0.5 906.5,-0.5"/>
<text text-anchor="middle" x="934" y="-8.5" font-family="Helvetica,sans-Serif" font-size="10.00">QPointF</text>
</g>
<!-- Node18&#45;&gt;Node22 -->
<g id="edge56" class="edge"><title>Node18&#45;&gt;Node22</title>
<path fill="none" stroke="midnightblue" d="M688.03,-61.4326C739.232,-53.698 819.086,-40.5128 896.293,-22.233"/>
<polygon fill="midnightblue" stroke="midnightblue" points="897.276,-25.5967 906.183,-19.8596 895.642,-18.79 897.276,-25.5967"/>
</g>
<!-- Node23 -->
<g id="node54" class="node"><title>Node23</title>
<polygon fill="white" stroke="#bfbfbf" points="595,-0.5 595,-21.5 675,-21.5 675,-0.5 595,-0.5"/>
<text text-anchor="middle" x="635" y="-8.5" font-family="Helvetica,sans-Serif" font-size="10.00">QVariantMap</text>
</g>
<!-- Node18&#45;&gt;Node23 -->
<g id="edge62" class="edge"><title>Node18&#45;&gt;Node23</title>
<path fill="none" stroke="midnightblue" d="M635,-58.3619C635,-50.9219 635,-40.7427 635,-31.7276"/>
<polygon fill="midnightblue" stroke="midnightblue" points="638.5,-31.5706 635,-21.5707 631.5,-31.5707 638.5,-31.5706"/>
</g>
</g>
</svg>
