<?xml version="1.0" encoding="UTF-8" standalone="no"?>
<!DOCTYPE svg PUBLIC "-//W3C//DTD SVG 1.1//EN"
 "http://www.w3.org/Graphics/SVG/1.1/DTD/svg11.dtd">
<!-- Generated by graphviz version 2.26.3 (20100126.1600)
 -->
<!-- Title: HostWindowDataOpenGL.cpp Pages: 1 -->
<svg width="1269pt" height="262pt"
 viewBox="0.00 0.00 1269.00 262.00" xmlns="http://www.w3.org/2000/svg" xmlns:xlink="http://www.w3.org/1999/xlink">
<g id="graph1" class="graph" transform="scale(1 1) rotate(0) translate(4 258)">
<title>HostWindowDataOpenGL.cpp</title>
<polygon fill="white" stroke="white" points="-4,5 -4,-258 1266,-258 1266,5 -4,5"/>
<!-- Node1 -->
<g id="node1" class="node"><title>Node1</title>
<polygon fill="#bfbfbf" stroke="black" points="735,-232.5 735,-253.5 893,-253.5 893,-232.5 735,-232.5"/>
<text text-anchor="middle" x="814" y="-240.5" font-family="Helvetica,sans-Serif" font-size="10.00">HostWindowDataOpenGL.cpp</text>
</g>
<!-- Node2 -->
<g id="node3" class="node"><title>Node2</title>
<polygon fill="white" stroke="#bfbfbf" points="287.5,-0.5 287.5,-21.5 354.5,-21.5 354.5,-0.5 287.5,-0.5"/>
<text text-anchor="middle" x="321" y="-8.5" font-family="Helvetica,sans-Serif" font-size="10.00">Common.h</text>
</g>
<!-- Node1&#45;&gt;Node2 -->
<g id="edge2" class="edge"><title>Node1&#45;&gt;Node2</title>
<path fill="none" stroke="midnightblue" d="M735.334,-232.496C625.033,-216.384 431.851,-182.683 378,-138 344.998,-110.616 330.36,-60.1769 324.485,-31.8005"/>
<polygon fill="midnightblue" stroke="midnightblue" points="327.885,-30.9461 322.586,-21.772 321.008,-32.2486 327.885,-30.9461"/>
</g>
<!-- Node3 -->
<g id="node5" class="node"><title>Node3</title>
<a xlink:href="HostWindowDataOpenGL_8h.htm" target="_top" xlink:title="HostWindowDataOpenGL.h">
<polygon fill="white" stroke="black" points="184.5,-174.5 184.5,-195.5 331.5,-195.5 331.5,-174.5 184.5,-174.5"/>
<text text-anchor="middle" x="258" y="-182.5" font-family="Helvetica,sans-Serif" font-size="10.00">HostWindowDataOpenGL.h</text>
</a>
</g>
<!-- Node1&#45;&gt;Node3 -->
<g id="edge4" class="edge"><title>Node1&#45;&gt;Node3</title>
<path fill="none" stroke="midnightblue" d="M734.685,-235.683C641.37,-226.928 481.806,-211.501 345,-196 343.903,-195.876 342.799,-195.75 341.688,-195.622"/>
<polygon fill="midnightblue" stroke="midnightblue" points="341.895,-192.122 331.555,-194.436 341.081,-199.075 341.895,-192.122"/>
</g>
<!-- Node9 -->
<g id="node21" class="node"><title>Node9</title>
<polygon fill="white" stroke="#bfbfbf" points="776,-174.5 776,-195.5 852,-195.5 852,-174.5 776,-174.5"/>
<text text-anchor="middle" x="814" y="-182.5" font-family="Helvetica,sans-Serif" font-size="10.00">QGLContext</text>
</g>
<!-- Node1&#45;&gt;Node9 -->
<g id="edge24" class="edge"><title>Node1&#45;&gt;Node9</title>
<path fill="none" stroke="midnightblue" d="M814,-232.362C814,-224.922 814,-214.743 814,-205.728"/>
<polygon fill="midnightblue" stroke="midnightblue" points="817.5,-205.571 814,-195.571 810.5,-205.571 817.5,-205.571"/>
</g>
<!-- Node10 -->
<g id="node23" class="node"><title>Node10</title>
<polygon fill="white" stroke="#bfbfbf" points="869.5,-174.5 869.5,-195.5 928.5,-195.5 928.5,-174.5 869.5,-174.5"/>
<text text-anchor="middle" x="899" y="-182.5" font-family="Helvetica,sans-Serif" font-size="10.00">QPainter</text>
</g>
<!-- Node1&#45;&gt;Node10 -->
<g id="edge26" class="edge"><title>Node1&#45;&gt;Node10</title>
<path fill="none" stroke="midnightblue" d="M829.59,-232.362C842.291,-223.696 860.438,-211.313 874.992,-201.382"/>
<polygon fill="midnightblue" stroke="midnightblue" points="877.221,-204.098 883.509,-195.571 873.276,-198.316 877.221,-204.098"/>
</g>
<!-- Node11 -->
<g id="node25" class="node"><title>Node11</title>
<polygon fill="white" stroke="#bfbfbf" points="945.5,-174.5 945.5,-195.5 1016.5,-195.5 1016.5,-174.5 945.5,-174.5"/>
<text text-anchor="middle" x="981" y="-182.5" font-family="Helvetica,sans-Serif" font-size="10.00">HostBase.h</text>
</g>
<!-- Node1&#45;&gt;Node11 -->
<g id="edge28" class="edge"><title>Node1&#45;&gt;Node11</title>
<path fill="none" stroke="midnightblue" d="M844.242,-232.497C871.35,-223.082 911.31,-209.204 941.043,-198.877"/>
<polygon fill="midnightblue" stroke="midnightblue" points="942.403,-202.11 950.701,-195.523 940.106,-195.498 942.403,-202.11"/>
</g>
<!-- Node12 -->
<g id="node27" class="node"><title>Node12</title>
<polygon fill="white" stroke="#bfbfbf" points="1033.5,-174.5 1033.5,-195.5 1096.5,-195.5 1096.5,-174.5 1033.5,-174.5"/>
<text text-anchor="middle" x="1065" y="-182.5" font-family="Helvetica,sans-Serif" font-size="10.00">Logging.h</text>
</g>
<!-- Node1&#45;&gt;Node12 -->
<g id="edge30" class="edge"><title>Node1&#45;&gt;Node12</title>
<path fill="none" stroke="midnightblue" d="M864.47,-232.487C905.059,-223.868 963.776,-211.03 1023.23,-196.372"/>
<polygon fill="midnightblue" stroke="midnightblue" points="1024.3,-199.713 1033.16,-193.908 1022.61,-192.919 1024.3,-199.713"/>
</g>
<!-- Node13 -->
<g id="node29" class="node"><title>Node13</title>
<a xlink:href="WebAppMgrProxy_8h.htm" target="_top" xlink:title="WebAppMgrProxy.h">
<polygon fill="white" stroke="black" points="648,-174.5 648,-195.5 758,-195.5 758,-174.5 648,-174.5"/>
<text text-anchor="middle" x="703" y="-182.5" font-family="Helvetica,sans-Serif" font-size="10.00">WebAppMgrProxy.h</text>
</a>
</g>
<!-- Node1&#45;&gt;Node13 -->
<g id="edge32" class="edge"><title>Node1&#45;&gt;Node13</title>
<path fill="none" stroke="midnightblue" d="M793.899,-232.497C776.718,-223.519 751.77,-210.484 732.355,-200.339"/>
<polygon fill="midnightblue" stroke="midnightblue" points="733.811,-197.15 723.327,-195.621 730.569,-203.354 733.811,-197.15"/>
</g>
<!-- Node3&#45;&gt;Node2 -->
<g id="edge6" class="edge"><title>Node3&#45;&gt;Node2</title>
<path fill="none" stroke="midnightblue" d="M262.957,-174.443C271.63,-155.712 289.798,-115.307 302,-80 307.508,-64.0619 312.516,-45.6299 316.006,-31.8278"/>
<polygon fill="midnightblue" stroke="midnightblue" points="319.461,-32.4349 318.46,-21.8875 312.665,-30.7571 319.461,-32.4349"/>
</g>
<!-- Node4 -->
<g id="node8" class="node"><title>Node4</title>
<a xlink:href="HostWindowDataSoftware_8h.htm" target="_top" xlink:title="HostWindowDataSoftware.h">
<polygon fill="white" stroke="black" points="116.5,-116.5 116.5,-137.5 265.5,-137.5 265.5,-116.5 116.5,-116.5"/>
<text text-anchor="middle" x="191" y="-124.5" font-family="Helvetica,sans-Serif" font-size="10.00">HostWindowDataSoftware.h</text>
</a>
</g>
<!-- Node3&#45;&gt;Node4 -->
<g id="edge8" class="edge"><title>Node3&#45;&gt;Node4</title>
<path fill="none" stroke="midnightblue" d="M245.711,-174.362C235.983,-165.941 222.202,-154.011 210.905,-144.231"/>
<polygon fill="midnightblue" stroke="midnightblue" points="213.062,-141.469 203.211,-137.571 208.481,-146.762 213.062,-141.469"/>
</g>
<!-- Node4&#45;&gt;Node2 -->
<g id="edge10" class="edge"><title>Node4&#45;&gt;Node2</title>
<path fill="none" stroke="midnightblue" d="M191.158,-116.32C191.933,-101.496 195.425,-74.6349 210,-58 227.299,-38.2558 254.295,-26.5762 277.332,-19.7986"/>
<polygon fill="midnightblue" stroke="midnightblue" points="278.524,-23.1019 287.255,-17.1014 276.687,-16.347 278.524,-23.1019"/>
</g>
<!-- Node5 -->
<g id="node11" class="node"><title>Node5</title>
<a xlink:href="HostWindowData_8h.htm" target="_top" xlink:title="HostWindowData.h">
<polygon fill="white" stroke="black" points="56.5,-58.5 56.5,-79.5 163.5,-79.5 163.5,-58.5 56.5,-58.5"/>
<text text-anchor="middle" x="110" y="-66.5" font-family="Helvetica,sans-Serif" font-size="10.00">HostWindowData.h</text>
</a>
</g>
<!-- Node4&#45;&gt;Node5 -->
<g id="edge12" class="edge"><title>Node4&#45;&gt;Node5</title>
<path fill="none" stroke="midnightblue" d="M176.143,-116.362C164.154,-107.777 147.073,-95.5459 133.272,-85.6636"/>
<polygon fill="midnightblue" stroke="midnightblue" points="134.931,-82.5469 124.762,-79.5707 130.855,-88.2383 134.931,-82.5469"/>
</g>
<!-- Node6 -->
<g id="node14" class="node"><title>Node6</title>
<polygon fill="white" stroke="#bfbfbf" points="-0.5,-0.5 -0.5,-21.5 58.5,-21.5 58.5,-0.5 -0.5,-0.5"/>
<text text-anchor="middle" x="29" y="-8.5" font-family="Helvetica,sans-Serif" font-size="10.00">QPixmap</text>
</g>
<!-- Node4&#45;&gt;Node6 -->
<g id="edge20" class="edge"><title>Node4&#45;&gt;Node6</title>
<path fill="none" stroke="midnightblue" d="M143.242,-116.44C107.047,-107.525 61.3363,-94.0042 48,-80 35.6578,-67.0397 31.1894,-46.8198 29.6416,-31.6125"/>
<polygon fill="midnightblue" stroke="midnightblue" points="33.1312,-31.3398 28.9599,-21.6007 26.1474,-31.8154 33.1312,-31.3398"/>
</g>
<!-- Node8 -->
<g id="node19" class="node"><title>Node8</title>
<polygon fill="white" stroke="#bfbfbf" points="219,-58.5 219,-79.5 293,-79.5 293,-58.5 219,-58.5"/>
<text text-anchor="middle" x="256" y="-66.5" font-family="Helvetica,sans-Serif" font-size="10.00">PIpcBuffer.h</text>
</g>
<!-- Node4&#45;&gt;Node8 -->
<g id="edge22" class="edge"><title>Node4&#45;&gt;Node8</title>
<path fill="none" stroke="midnightblue" d="M202.922,-116.362C212.359,-107.941 225.73,-96.0105 236.69,-86.2308"/>
<polygon fill="midnightblue" stroke="midnightblue" points="239.022,-88.8401 244.154,-79.5707 234.362,-83.6171 239.022,-88.8401"/>
</g>
<!-- Node5&#45;&gt;Node2 -->
<g id="edge14" class="edge"><title>Node5&#45;&gt;Node2</title>
<path fill="none" stroke="midnightblue" d="M148.211,-58.4966C184.622,-48.4878 239.387,-33.4339 277.467,-22.9664"/>
<polygon fill="midnightblue" stroke="midnightblue" points="278.536,-26.3024 287.251,-20.277 276.681,-19.5527 278.536,-26.3024"/>
</g>
<!-- Node5&#45;&gt;Node6 -->
<g id="edge16" class="edge"><title>Node5&#45;&gt;Node6</title>
<path fill="none" stroke="midnightblue" d="M95.1434,-58.3619C83.1545,-49.7773 66.0727,-37.5459 52.2715,-27.6636"/>
<polygon fill="midnightblue" stroke="midnightblue" points="53.9307,-24.5469 43.7625,-21.5707 49.8554,-30.2383 53.9307,-24.5469"/>
</g>
<!-- Node7 -->
<g id="node16" class="node"><title>Node7</title>
<polygon fill="white" stroke="#bfbfbf" points="76,-0.5 76,-21.5 162,-21.5 162,-0.5 76,-0.5"/>
<text text-anchor="middle" x="119" y="-8.5" font-family="Helvetica,sans-Serif" font-size="10.00">PIpcChannel.h</text>
</g>
<!-- Node5&#45;&gt;Node7 -->
<g id="edge18" class="edge"><title>Node5&#45;&gt;Node7</title>
<path fill="none" stroke="midnightblue" d="M111.651,-58.3619C112.805,-50.9219 114.385,-40.7427 115.784,-31.7276"/>
<polygon fill="midnightblue" stroke="midnightblue" points="119.285,-31.9891 117.36,-21.5707 112.368,-30.9157 119.285,-31.9891"/>
</g>
<!-- Node13&#45;&gt;Node2 -->
<g id="edge34" class="edge"><title>Node13&#45;&gt;Node2</title>
<path fill="none" stroke="midnightblue" d="M665.904,-174.418C637.905,-165.921 598.834,-152.965 566,-138 548.242,-129.907 545.3,-125.03 528,-116 494.51,-98.5193 484.806,-96.861 451,-80 415.566,-62.3271 375.394,-40.766 349.205,-26.5002"/>
<polygon fill="midnightblue" stroke="midnightblue" points="350.677,-23.3167 340.223,-21.5952 347.322,-29.4602 350.677,-23.3167"/>
</g>
<!-- Node14 -->
<g id="node32" class="node"><title>Node14</title>
<polygon fill="white" stroke="#bfbfbf" points="828,-58.5 828,-79.5 952,-79.5 952,-58.5 828,-58.5"/>
<text text-anchor="middle" x="890" y="-66.5" font-family="Helvetica,sans-Serif" font-size="10.00">PIpcChannelListener.h</text>
</g>
<!-- Node13&#45;&gt;Node14 -->
<g id="edge36" class="edge"><title>Node13&#45;&gt;Node14</title>
<path fill="none" stroke="midnightblue" d="M730.496,-174.322C751.343,-165.73 780.343,-152.696 804,-138 828.734,-122.636 854.437,-101.17 871.225,-86.2769"/>
<polygon fill="midnightblue" stroke="midnightblue" points="873.612,-88.8383 878.708,-79.5496 868.931,-83.6329 873.612,-88.8383"/>
</g>
<!-- Node15 -->
<g id="node34" class="node"><title>Node15</title>
<polygon fill="white" stroke="#bfbfbf" points="680.5,-116.5 680.5,-137.5 725.5,-137.5 725.5,-116.5 680.5,-116.5"/>
<text text-anchor="middle" x="703" y="-124.5" font-family="Helvetica,sans-Serif" font-size="10.00">queue</text>
</g>
<!-- Node13&#45;&gt;Node15 -->
<g id="edge38" class="edge"><title>Node13&#45;&gt;Node15</title>
<path fill="none" stroke="midnightblue" d="M703,-174.362C703,-166.922 703,-156.743 703,-147.728"/>
<polygon fill="midnightblue" stroke="midnightblue" points="706.5,-147.571 703,-137.571 699.5,-147.571 706.5,-147.571"/>
</g>
<!-- Node16 -->
<g id="node36" class="node"><title>Node16</title>
<a xlink:href="IpcClientHost_8h.htm" target="_top" xlink:title="IpcClientHost.h">
<polygon fill="white" stroke="black" points="575,-116.5 575,-137.5 663,-137.5 663,-116.5 575,-116.5"/>
<text text-anchor="middle" x="619" y="-124.5" font-family="Helvetica,sans-Serif" font-size="10.00">IpcClientHost.h</text>
</a>
</g>
<!-- Node13&#45;&gt;Node16 -->
<g id="edge40" class="edge"><title>Node13&#45;&gt;Node16</title>
<path fill="none" stroke="midnightblue" d="M687.593,-174.362C675.042,-165.696 657.108,-153.313 642.725,-143.382"/>
<polygon fill="midnightblue" stroke="midnightblue" points="644.527,-140.372 634.309,-137.571 640.55,-146.133 644.527,-140.372"/>
</g>
<!-- Node27 -->
<g id="node63" class="node"><title>Node27</title>
<polygon fill="white" stroke="#bfbfbf" points="743,-116.5 743,-137.5 795,-137.5 795,-116.5 743,-116.5"/>
<text text-anchor="middle" x="769" y="-124.5" font-family="Helvetica,sans-Serif" font-size="10.00">Event.h</text>
</g>
<!-- Node13&#45;&gt;Node27 -->
<g id="edge72" class="edge"><title>Node13&#45;&gt;Node27</title>
<path fill="none" stroke="midnightblue" d="M715.105,-174.362C724.688,-165.941 738.264,-154.011 749.393,-144.231"/>
<polygon fill="midnightblue" stroke="midnightblue" points="751.77,-146.801 756.971,-137.571 747.149,-141.543 751.77,-146.801"/>
</g>
<!-- Node28 -->
<g id="node65" class="node"><title>Node28</title>
<polygon fill="white" stroke="#bfbfbf" points="851,-116.5 851,-137.5 943,-137.5 943,-116.5 851,-116.5"/>
<text text-anchor="middle" x="897" y="-124.5" font-family="Helvetica,sans-Serif" font-size="10.00">CustomEvents.h</text>
</g>
<!-- Node13&#45;&gt;Node28 -->
<g id="edge74" class="edge"><title>Node13&#45;&gt;Node28</title>
<path fill="none" stroke="midnightblue" d="M738.132,-174.497C770.033,-164.959 817.257,-150.841 851.928,-140.475"/>
<polygon fill="midnightblue" stroke="midnightblue" points="853.224,-143.741 861.802,-137.523 851.219,-137.034 853.224,-143.741"/>
</g>
<!-- Node29 -->
<g id="node67" class="node"><title>Node29</title>
<polygon fill="white" stroke="#bfbfbf" points="961,-116.5 961,-137.5 1113,-137.5 1113,-116.5 961,-116.5"/>
<text text-anchor="middle" x="1037" y="-124.5" font-family="Helvetica,sans-Serif" font-size="10.00">NewContentIndicatorEvent.h</text>
</g>
<!-- Node13&#45;&gt;Node29 -->
<g id="edge76" class="edge"><title>Node13&#45;&gt;Node29</title>
<path fill="none" stroke="midnightblue" d="M758.153,-175.422C815.107,-165.532 904.182,-150.064 966.281,-139.281"/>
<polygon fill="midnightblue" stroke="midnightblue" points="967.137,-142.684 976.391,-137.525 965.94,-135.788 967.137,-142.684"/>
</g>
<!-- Node30 -->
<g id="node69" class="node"><title>Node30</title>
<polygon fill="white" stroke="#bfbfbf" points="1131,-116.5 1131,-137.5 1261,-137.5 1261,-116.5 1131,-116.5"/>
<text text-anchor="middle" x="1196" y="-124.5" font-family="Helvetica,sans-Serif" font-size="10.00">BannerMessageEvent.h</text>
</g>
<!-- Node13&#45;&gt;Node30 -->
<g id="edge78" class="edge"><title>Node13&#45;&gt;Node30</title>
<path fill="none" stroke="midnightblue" d="M758.121,-175.277C761.121,-174.826 764.096,-174.396 767,-174 920.908,-152.995 962.926,-157.466 1120.6,-138.129"/>
<polygon fill="midnightblue" stroke="midnightblue" points="1121.16,-141.585 1130.65,-136.882 1120.3,-134.639 1121.16,-141.585"/>
</g>
<!-- Node31 -->
<g id="node71" class="node"><title>Node31</title>
<polygon fill="white" stroke="#bfbfbf" points="386.5,-116.5 386.5,-137.5 519.5,-137.5 519.5,-116.5 386.5,-116.5"/>
<text text-anchor="middle" x="453" y="-124.5" font-family="Helvetica,sans-Serif" font-size="10.00">ActiveCallBannerEvent.h</text>
</g>
<!-- Node13&#45;&gt;Node31 -->
<g id="edge80" class="edge"><title>Node13&#45;&gt;Node31</title>
<path fill="none" stroke="midnightblue" d="M657.727,-174.497C615.735,-164.755 553.141,-150.233 508.228,-139.813"/>
<polygon fill="midnightblue" stroke="midnightblue" points="508.89,-136.374 498.358,-137.523 507.308,-143.193 508.89,-136.374"/>
</g>
<!-- Node16&#45;&gt;Node2 -->
<g id="edge42" class="edge"><title>Node16&#45;&gt;Node2</title>
<path fill="none" stroke="midnightblue" d="M614.79,-116.357C608.048,-100.807 593.277,-72.1905 571,-58 494.576,-9.31759 457.275,-39.6565 364.886,-22.1745"/>
<polygon fill="midnightblue" stroke="midnightblue" points="365.364,-18.7 354.867,-20.1332 363.967,-25.5591 365.364,-18.7"/>
</g>
<!-- Node16&#45;&gt;Node14 -->
<g id="edge52" class="edge"><title>Node16&#45;&gt;Node14</title>
<path fill="none" stroke="midnightblue" d="M663.144,-117.552C708.842,-107.772 780.488,-92.4379 831.017,-81.6237"/>
<polygon fill="midnightblue" stroke="midnightblue" points="831.781,-85.0395 840.827,-79.5241 830.316,-78.1945 831.781,-85.0395"/>
</g>
<!-- Node17 -->
<g id="node39" class="node"><title>Node17</title>
<polygon fill="white" stroke="#bfbfbf" points="727.5,-0.5 727.5,-21.5 770.5,-21.5 770.5,-0.5 727.5,-0.5"/>
<text text-anchor="middle" x="749" y="-8.5" font-family="Helvetica,sans-Serif" font-size="10.00">string</text>
</g>
<!-- Node16&#45;&gt;Node17 -->
<g id="edge44" class="edge"><title>Node16&#45;&gt;Node17</title>
<path fill="none" stroke="midnightblue" d="M637.49,-116.439C652.182,-107.623 672.868,-94.2398 689,-80 706.346,-64.6884 723.39,-44.4458 734.852,-29.8501"/>
<polygon fill="midnightblue" stroke="midnightblue" points="737.888,-31.6438 741.221,-21.5866 732.344,-27.3707 737.888,-31.6438"/>
</g>
<!-- Node18 -->
<g id="node41" class="node"><title>Node18</title>
<polygon fill="white" stroke="#bfbfbf" points="773.5,-58.5 773.5,-79.5 810.5,-79.5 810.5,-58.5 773.5,-58.5"/>
<text text-anchor="middle" x="792" y="-66.5" font-family="Helvetica,sans-Serif" font-size="10.00">map</text>
</g>
<!-- Node16&#45;&gt;Node18 -->
<g id="edge46" class="edge"><title>Node16&#45;&gt;Node18</title>
<path fill="none" stroke="midnightblue" d="M650.948,-116.445C679.545,-106.975 722.606,-92.6592 760,-80 761.221,-79.5868 762.467,-79.1636 763.726,-78.7351"/>
<polygon fill="midnightblue" stroke="midnightblue" points="765.068,-81.9755 773.397,-75.4277 762.802,-75.3521 765.068,-81.9755"/>
</g>
<!-- Node19 -->
<g id="node43" class="node"><title>Node19</title>
<polygon fill="white" stroke="#bfbfbf" points="459.5,-58.5 459.5,-79.5 490.5,-79.5 490.5,-58.5 459.5,-58.5"/>
<text text-anchor="middle" x="475" y="-66.5" font-family="Helvetica,sans-Serif" font-size="10.00">set</text>
</g>
<!-- Node16&#45;&gt;Node19 -->
<g id="edge48" class="edge"><title>Node16&#45;&gt;Node19</title>
<path fill="none" stroke="midnightblue" d="M590.693,-116.43C568.264,-107.942 535.952,-95.4659 500.321,-80.436"/>
<polygon fill="midnightblue" stroke="midnightblue" points="501.266,-77.035 490.694,-76.3466 498.529,-83.4778 501.266,-77.035"/>
</g>
<!-- Node20 -->
<g id="node45" class="node"><title>Node20</title>
<polygon fill="white" stroke="#bfbfbf" points="787.5,-0.5 787.5,-21.5 828.5,-21.5 828.5,-0.5 787.5,-0.5"/>
<text text-anchor="middle" x="808" y="-8.5" font-family="Helvetica,sans-Serif" font-size="10.00">glib.h</text>
</g>
<!-- Node16&#45;&gt;Node20 -->
<g id="edge50" class="edge"><title>Node16&#45;&gt;Node20</title>
<path fill="none" stroke="midnightblue" d="M642.751,-116.449C662.11,-107.538 689.921,-94.0201 713,-80 739.59,-63.847 768.242,-42.4289 787.045,-27.7652"/>
<polygon fill="midnightblue" stroke="midnightblue" points="789.255,-30.4806 794.949,-21.5463 784.926,-24.9793 789.255,-30.4806"/>
</g>
<!-- Node21 -->
<g id="node48" class="node"><title>Node21</title>
<a xlink:href="Window_8h.htm" target="_top" xlink:title="Window.h">
<polygon fill="white" stroke="black" points="618,-58.5 618,-79.5 680,-79.5 680,-58.5 618,-58.5"/>
<text text-anchor="middle" x="649" y="-66.5" font-family="Helvetica,sans-Serif" font-size="10.00">Window.h</text>
</a>
</g>
<!-- Node16&#45;&gt;Node21 -->
<g id="edge54" class="edge"><title>Node16&#45;&gt;Node21</title>
<path fill="none" stroke="midnightblue" d="M624.502,-116.362C628.52,-108.595 634.081,-97.8426 638.89,-88.5458"/>
<polygon fill="midnightblue" stroke="midnightblue" points="642.047,-90.0608 643.532,-79.5707 635.829,-86.8448 642.047,-90.0608"/>
</g>
<!-- Node26 -->
<g id="node61" class="node"><title>Node26</title>
<polygon fill="white" stroke="#bfbfbf" points="507.5,-58.5 507.5,-79.5 562.5,-79.5 562.5,-58.5 507.5,-58.5"/>
<text text-anchor="middle" x="535" y="-66.5" font-family="Helvetica,sans-Serif" font-size="10.00">QObject</text>
</g>
<!-- Node16&#45;&gt;Node26 -->
<g id="edge70" class="edge"><title>Node16&#45;&gt;Node26</title>
<path fill="none" stroke="midnightblue" d="M603.593,-116.362C591.042,-107.696 573.108,-95.3126 558.725,-85.3819"/>
<polygon fill="midnightblue" stroke="midnightblue" points="560.527,-82.3725 550.309,-79.5707 556.55,-88.1327 560.527,-82.3725"/>
</g>
<!-- Node21&#45;&gt;Node2 -->
<g id="edge56" class="edge"><title>Node21&#45;&gt;Node2</title>
<path fill="none" stroke="midnightblue" d="M617.61,-60.9388C613.059,-59.8831 608.419,-58.8683 604,-58 500.846,-37.7319 470.838,-43.3861 364.677,-22.1947"/>
<polygon fill="midnightblue" stroke="midnightblue" points="365.349,-18.7598 354.852,-20.2011 363.957,-25.62 365.349,-18.7598"/>
</g>
<!-- Node21&#45;&gt;Node17 -->
<g id="edge62" class="edge"><title>Node21&#45;&gt;Node17</title>
<path fill="none" stroke="midnightblue" d="M667.342,-58.3619C682.566,-49.532 704.441,-36.844 721.72,-26.8224"/>
<polygon fill="midnightblue" stroke="midnightblue" points="723.88,-29.6155 730.775,-21.5707 720.368,-23.5603 723.88,-29.6155"/>
</g>
<!-- Node21&#45;&gt;Node20 -->
<g id="edge64" class="edge"><title>Node21&#45;&gt;Node20</title>
<path fill="none" stroke="midnightblue" d="M678.477,-58.491C702.899,-49.7515 738.746,-36.8493 777.935,-22.3645"/>
<polygon fill="midnightblue" stroke="midnightblue" points="779.258,-25.6068 787.42,-18.8517 776.827,-19.0426 779.258,-25.6068"/>
</g>
<!-- Node22 -->
<g id="node51" class="node"><title>Node22</title>
<polygon fill="white" stroke="#bfbfbf" points="372,-0.5 372,-21.5 464,-21.5 464,-0.5 372,-0.5"/>
<text text-anchor="middle" x="418" y="-8.5" font-family="Helvetica,sans-Serif" font-size="10.00">WindowTypes.h</text>
</g>
<!-- Node21&#45;&gt;Node22 -->
<g id="edge58" class="edge"><title>Node21&#45;&gt;Node22</title>
<path fill="none" stroke="midnightblue" d="M617.846,-61.1779C579.95,-51.6627 515.415,-35.4593 469.953,-24.0445"/>
<polygon fill="midnightblue" stroke="midnightblue" points="470.536,-20.5824 459.985,-21.5417 468.832,-27.3717 470.536,-20.5824"/>
</g>
<!-- Node23 -->
<g id="node53" class="node"><title>Node23</title>
<polygon fill="white" stroke="#bfbfbf" points="482,-0.5 482,-21.5 532,-21.5 532,-0.5 482,-0.5"/>
<text text-anchor="middle" x="507" y="-8.5" font-family="Helvetica,sans-Serif" font-size="10.00">stdint.h</text>
</g>
<!-- Node21&#45;&gt;Node23 -->
<g id="edge60" class="edge"><title>Node21&#45;&gt;Node23</title>
<path fill="none" stroke="midnightblue" d="M623.285,-58.4966C600.424,-49.1593 566.814,-35.4312 541.6,-25.1323"/>
<polygon fill="midnightblue" stroke="midnightblue" points="542.628,-21.7717 532.047,-21.2305 539.981,-28.252 542.628,-21.7717"/>
</g>
<!-- Node24 -->
<g id="node57" class="node"><title>Node24</title>
<polygon fill="white" stroke="#bfbfbf" points="550,-0.5 550,-21.5 648,-21.5 648,-0.5 550,-0.5"/>
<text text-anchor="middle" x="599" y="-8.5" font-family="Helvetica,sans-Serif" font-size="10.00">QGraphicsObject</text>
</g>
<!-- Node21&#45;&gt;Node24 -->
<g id="edge66" class="edge"><title>Node21&#45;&gt;Node24</title>
<path fill="none" stroke="midnightblue" d="M639.829,-58.3619C632.852,-50.2678 623.079,-38.9318 614.844,-29.3796"/>
<polygon fill="midnightblue" stroke="midnightblue" points="617.293,-26.8595 608.113,-21.5707 611.991,-31.4301 617.293,-26.8595"/>
</g>
<!-- Node25 -->
<g id="node59" class="node"><title>Node25</title>
<polygon fill="white" stroke="#bfbfbf" points="665.5,-0.5 665.5,-21.5 710.5,-21.5 710.5,-0.5 665.5,-0.5"/>
<text text-anchor="middle" x="688" y="-8.5" font-family="Helvetica,sans-Serif" font-size="10.00">QSize</text>
</g>
<!-- Node21&#45;&gt;Node25 -->
<g id="edge68" class="edge"><title>Node21&#45;&gt;Node25</title>
<path fill="none" stroke="midnightblue" d="M656.153,-58.3619C661.486,-50.4313 668.911,-39.3885 675.251,-29.9606"/>
<polygon fill="midnightblue" stroke="midnightblue" points="678.217,-31.8221 680.892,-21.5707 672.408,-27.9161 678.217,-31.8221"/>
</g>
</g>
</svg>
