<?xml version="1.0" encoding="UTF-8" standalone="no"?>
<!DOCTYPE svg PUBLIC "-//W3C//DTD SVG 1.1//EN"
 "http://www.w3.org/Graphics/SVG/1.1/DTD/svg11.dtd">
<!-- Generated by graphviz version 2.26.3 (20100126.1600)
 -->
<!-- Title: HostWindowDataOpenGL.h Pages: 1 -->
<svg width="324pt" height="204pt"
 viewBox="0.00 0.00 324.00 204.00" xmlns="http://www.w3.org/2000/svg" xmlns:xlink="http://www.w3.org/1999/xlink">
<g id="graph1" class="graph" transform="scale(1 1) rotate(0) translate(4 200)">
<title>HostWindowDataOpenGL.h</title>
<polygon fill="white" stroke="white" points="-4,5 -4,-200 321,-200 321,5 -4,5"/>
<!-- Node1 -->
<g id="node1" class="node"><title>Node1</title>
<polygon fill="#bfbfbf" stroke="black" points="-0.5,-174.5 -0.5,-195.5 146.5,-195.5 146.5,-174.5 -0.5,-174.5"/>
<text text-anchor="middle" x="73" y="-182.5" font-family="Helvetica,sans-Serif" font-size="10.00">HostWindowDataOpenGL.h</text>
</g>
<!-- Node2 -->
<g id="node3" class="node"><title>Node2</title>
<polygon fill="white" stroke="#bfbfbf" points="0.5,-0.5 0.5,-21.5 67.5,-21.5 67.5,-0.5 0.5,-0.5"/>
<text text-anchor="middle" x="34" y="-8.5" font-family="Helvetica,sans-Serif" font-size="10.00">Common.h</text>
</g>
<!-- Node1&#45;&gt;Node2 -->
<g id="edge2" class="edge"><title>Node1&#45;&gt;Node2</title>
<path fill="none" stroke="midnightblue" d="M66.4412,-174.215C61.1255,-164.949 53.8993,-151.057 50,-138 39.1426,-101.644 35.6507,-57.293 34.5291,-31.7819"/>
<polygon fill="midnightblue" stroke="midnightblue" points="38.0267,-31.6492 34.1707,-21.781 31.0312,-31.9 38.0267,-31.6492"/>
</g>
<!-- Node3 -->
<g id="node5" class="node"><title>Node3</title>
<a xlink:href="HostWindowDataSoftware_8h.htm" target="_top" xlink:title="HostWindowDataSoftware.h">
<polygon fill="white" stroke="black" points="58.5,-116.5 58.5,-137.5 207.5,-137.5 207.5,-116.5 58.5,-116.5"/>
<text text-anchor="middle" x="133" y="-124.5" font-family="Helvetica,sans-Serif" font-size="10.00">HostWindowDataSoftware.h</text>
</a>
</g>
<!-- Node1&#45;&gt;Node3 -->
<g id="edge4" class="edge"><title>Node1&#45;&gt;Node3</title>
<path fill="none" stroke="midnightblue" d="M84.0049,-174.362C92.5473,-166.104 104.58,-154.472 114.583,-144.803"/>
<polygon fill="midnightblue" stroke="midnightblue" points="117.308,-147.037 122.065,-137.571 112.442,-142.004 117.308,-147.037"/>
</g>
<!-- Node3&#45;&gt;Node2 -->
<g id="edge6" class="edge"><title>Node3&#45;&gt;Node2</title>
<path fill="none" stroke="midnightblue" d="M115.038,-116.374C101.674,-107.809 83.6367,-94.786 71,-80 58.4929,-65.3657 48.5002,-45.8056 42.0677,-31.2488"/>
<polygon fill="midnightblue" stroke="midnightblue" points="45.1405,-29.528 38.028,-21.6754 38.6911,-32.2495 45.1405,-29.528"/>
</g>
<!-- Node4 -->
<g id="node8" class="node"><title>Node4</title>
<a xlink:href="HostWindowData_8h.htm" target="_top" xlink:title="HostWindowData.h">
<polygon fill="white" stroke="black" points="79.5,-58.5 79.5,-79.5 186.5,-79.5 186.5,-58.5 79.5,-58.5"/>
<text text-anchor="middle" x="133" y="-66.5" font-family="Helvetica,sans-Serif" font-size="10.00">HostWindowData.h</text>
</a>
</g>
<!-- Node3&#45;&gt;Node4 -->
<g id="edge8" class="edge"><title>Node3&#45;&gt;Node4</title>
<path fill="none" stroke="midnightblue" d="M133,-116.362C133,-108.922 133,-98.7427 133,-89.7276"/>
<polygon fill="midnightblue" stroke="midnightblue" points="136.5,-89.5706 133,-79.5707 129.5,-89.5707 136.5,-89.5706"/>
</g>
<!-- Node5 -->
<g id="node11" class="node"><title>Node5</title>
<polygon fill="white" stroke="#bfbfbf" points="188.5,-0.5 188.5,-21.5 247.5,-21.5 247.5,-0.5 188.5,-0.5"/>
<text text-anchor="middle" x="218" y="-8.5" font-family="Helvetica,sans-Serif" font-size="10.00">QPixmap</text>
</g>
<!-- Node3&#45;&gt;Node5 -->
<g id="edge16" class="edge"><title>Node3&#45;&gt;Node5</title>
<path fill="none" stroke="midnightblue" d="M152.576,-116.438C166.223,-108.165 183.904,-95.4787 195,-80 205.318,-65.6067 211.234,-46.2744 214.474,-31.7348"/>
<polygon fill="midnightblue" stroke="midnightblue" points="217.95,-32.2012 216.459,-21.7118 211.083,-30.8413 217.95,-32.2012"/>
</g>
<!-- Node7 -->
<g id="node16" class="node"><title>Node7</title>
<polygon fill="white" stroke="#bfbfbf" points="242,-58.5 242,-79.5 316,-79.5 316,-58.5 242,-58.5"/>
<text text-anchor="middle" x="279" y="-66.5" font-family="Helvetica,sans-Serif" font-size="10.00">PIpcBuffer.h</text>
</g>
<!-- Node3&#45;&gt;Node7 -->
<g id="edge18" class="edge"><title>Node3&#45;&gt;Node7</title>
<path fill="none" stroke="midnightblue" d="M159.439,-116.497C182.756,-107.234 216.95,-93.6499 242.804,-83.3793"/>
<polygon fill="midnightblue" stroke="midnightblue" points="244.263,-86.566 252.264,-79.6212 241.678,-80.0605 244.263,-86.566"/>
</g>
<!-- Node4&#45;&gt;Node2 -->
<g id="edge10" class="edge"><title>Node4&#45;&gt;Node2</title>
<path fill="none" stroke="midnightblue" d="M114.842,-58.3619C99.7701,-49.532 78.1129,-36.844 61.0072,-26.8224"/>
<polygon fill="midnightblue" stroke="midnightblue" points="62.4406,-23.6058 52.043,-21.5707 58.9021,-29.6456 62.4406,-23.6058"/>
</g>
<!-- Node4&#45;&gt;Node5 -->
<g id="edge12" class="edge"><title>Node4&#45;&gt;Node5</title>
<path fill="none" stroke="midnightblue" d="M148.59,-58.3619C161.291,-49.6955 179.438,-37.3126 193.992,-27.3819"/>
<polygon fill="midnightblue" stroke="midnightblue" points="196.221,-30.0982 202.509,-21.5707 192.276,-24.316 196.221,-30.0982"/>
</g>
<!-- Node6 -->
<g id="node13" class="node"><title>Node6</title>
<polygon fill="white" stroke="#bfbfbf" points="85,-0.5 85,-21.5 171,-21.5 171,-0.5 85,-0.5"/>
<text text-anchor="middle" x="128" y="-8.5" font-family="Helvetica,sans-Serif" font-size="10.00">PIpcChannel.h</text>
</g>
<!-- Node4&#45;&gt;Node6 -->
<g id="edge14" class="edge"><title>Node4&#45;&gt;Node6</title>
<path fill="none" stroke="midnightblue" d="M132.083,-58.3619C131.442,-50.9219 130.564,-40.7427 129.787,-31.7276"/>
<polygon fill="midnightblue" stroke="midnightblue" points="133.257,-31.2331 128.911,-21.5707 126.283,-31.8343 133.257,-31.2331"/>
</g>
</g>
</svg>
