<?xml version="1.0" encoding="UTF-8" standalone="no"?>
<!DOCTYPE svg PUBLIC "-//W3C//DTD SVG 1.1//EN"
 "http://www.w3.org/Graphics/SVG/1.1/DTD/svg11.dtd">
<!-- Generated by graphviz version 2.26.3 (20100126.1600)
 -->
<!-- Title: HostWindowDataSoftware.cpp Pages: 1 -->
<svg width="1238pt" height="262pt"
 viewBox="0.00 0.00 1238.06 262.00" xmlns="http://www.w3.org/2000/svg" xmlns:xlink="http://www.w3.org/1999/xlink">
<g id="graph1" class="graph" transform="scale(1 1) rotate(0) translate(4 258)">
<title>HostWindowDataSoftware.cpp</title>
<polygon fill="white" stroke="white" points="-4,5 -4,-258 1235.06,-258 1235.06,5 -4,5"/>
<!-- Node1 -->
<g id="node1" class="node"><title>Node1</title>
<polygon fill="#bfbfbf" stroke="black" points="712.065,-232.5 712.065,-253.5 872.065,-253.5 872.065,-232.5 712.065,-232.5"/>
<text text-anchor="middle" x="792.065" y="-240.5" font-family="Helvetica,sans-Serif" font-size="10.00">HostWindowDataSoftware.cpp</text>
</g>
<!-- Node2 -->
<g id="node3" class="node"><title>Node2</title>
<polygon fill="white" stroke="#bfbfbf" points="440.565,-0.5 440.565,-21.5 507.565,-21.5 507.565,-0.5 440.565,-0.5"/>
<text text-anchor="middle" x="474.065" y="-8.5" font-family="Helvetica,sans-Serif" font-size="10.00">Common.h</text>
</g>
<!-- Node1&#45;&gt;Node2 -->
<g id="edge2" class="edge"><title>Node1&#45;&gt;Node2</title>
<path fill="none" stroke="midnightblue" d="M711.829,-237.712C586.337,-227.585 352.692,-200.625 302.065,-138 259.203,-84.9802 366.386,-42.6653 430.371,-22.9873"/>
<polygon fill="midnightblue" stroke="midnightblue" points="431.668,-26.2524 440.24,-20.0253 429.656,-19.5478 431.668,-26.2524"/>
</g>
<!-- Node3 -->
<g id="node5" class="node"><title>Node3</title>
<a xlink:href="HostWindowDataSoftware_8h.htm" target="_top" xlink:title="HostWindowDataSoftware.h">
<polygon fill="white" stroke="black" points="35.5646,-174.5 35.5646,-195.5 184.565,-195.5 184.565,-174.5 35.5646,-174.5"/>
<text text-anchor="middle" x="110.065" y="-182.5" font-family="Helvetica,sans-Serif" font-size="10.00">HostWindowDataSoftware.h</text>
</a>
</g>
<!-- Node1&#45;&gt;Node3 -->
<g id="edge4" class="edge"><title>Node1&#45;&gt;Node3</title>
<path fill="none" stroke="midnightblue" d="M711.693,-236.924C600.646,-228.413 394.049,-212.166 218.065,-196 210.477,-195.303 202.592,-194.552 194.693,-193.781"/>
<polygon fill="midnightblue" stroke="midnightblue" points="194.997,-190.294 184.702,-192.796 194.311,-197.26 194.997,-190.294"/>
</g>
<!-- Node7 -->
<g id="node16" class="node"><title>Node7</title>
<polygon fill="white" stroke="#bfbfbf" points="181.065,-116.5 181.065,-137.5 255.065,-137.5 255.065,-116.5 181.065,-116.5"/>
<text text-anchor="middle" x="218.065" y="-124.5" font-family="Helvetica,sans-Serif" font-size="10.00">PIpcBuffer.h</text>
</g>
<!-- Node1&#45;&gt;Node7 -->
<g id="edge22" class="edge"><title>Node1&#45;&gt;Node7</title>
<path fill="none" stroke="midnightblue" d="M711.877,-239.403C574.848,-232.725 306.692,-217.144 269.065,-196 249.492,-185.001 235.288,-163.037 226.916,-146.831"/>
<polygon fill="midnightblue" stroke="midnightblue" points="229.97,-145.108 222.461,-137.634 223.671,-148.159 229.97,-145.108"/>
</g>
<!-- Node8 -->
<g id="node18" class="node"><title>Node8</title>
<polygon fill="white" stroke="#bfbfbf" points="815.065,-174.5 815.065,-195.5 869.065,-195.5 869.065,-174.5 815.065,-174.5"/>
<text text-anchor="middle" x="842.065" y="-182.5" font-family="Helvetica,sans-Serif" font-size="10.00">QImage</text>
</g>
<!-- Node1&#45;&gt;Node8 -->
<g id="edge20" class="edge"><title>Node1&#45;&gt;Node8</title>
<path fill="none" stroke="midnightblue" d="M801.235,-232.362C808.213,-224.268 817.985,-212.932 826.22,-203.38"/>
<polygon fill="midnightblue" stroke="midnightblue" points="829.074,-205.43 832.952,-195.571 823.772,-200.859 829.074,-205.43"/>
</g>
<!-- Node9 -->
<g id="node21" class="node"><title>Node9</title>
<polygon fill="white" stroke="#bfbfbf" points="886.565,-174.5 886.565,-195.5 1011.56,-195.5 1011.56,-174.5 886.565,-174.5"/>
<text text-anchor="middle" x="949.065" y="-182.5" font-family="Helvetica,sans-Serif" font-size="10.00">PIpcMessageMacros.h</text>
</g>
<!-- Node1&#45;&gt;Node9 -->
<g id="edge24" class="edge"><title>Node1&#45;&gt;Node9</title>
<path fill="none" stroke="midnightblue" d="M820.496,-232.497C845.87,-223.123 883.221,-209.324 911.135,-199.012"/>
<polygon fill="midnightblue" stroke="midnightblue" points="912.412,-202.272 920.58,-195.523 909.987,-195.705 912.412,-202.272"/>
</g>
<!-- Node10 -->
<g id="node23" class="node"><title>Node10</title>
<polygon fill="white" stroke="#bfbfbf" points="1028.56,-174.5 1028.56,-195.5 1091.56,-195.5 1091.56,-174.5 1028.56,-174.5"/>
<text text-anchor="middle" x="1060.06" y="-182.5" font-family="Helvetica,sans-Serif" font-size="10.00">Logging.h</text>
</g>
<!-- Node1&#45;&gt;Node10 -->
<g id="edge26" class="edge"><title>Node1&#45;&gt;Node10</title>
<path fill="none" stroke="midnightblue" d="M848.51,-232.425C892.438,-223.954 955.142,-211.338 1018.13,-196.375"/>
<polygon fill="midnightblue" stroke="midnightblue" points="1019.33,-199.687 1028.24,-193.954 1017.7,-192.879 1019.33,-199.687"/>
</g>
<!-- Node11 -->
<g id="node25" class="node"><title>Node11</title>
<a xlink:href="WindowMetaData_8h.htm" target="_top" xlink:title="WindowMetaData.h">
<polygon fill="white" stroke="black" points="1108.56,-174.5 1108.56,-195.5 1217.56,-195.5 1217.56,-174.5 1108.56,-174.5"/>
<text text-anchor="middle" x="1163.06" y="-182.5" font-family="Helvetica,sans-Serif" font-size="10.00">WindowMetaData.h</text>
</a>
</g>
<!-- Node1&#45;&gt;Node11 -->
<g id="edge28" class="edge"><title>Node1&#45;&gt;Node11</title>
<path fill="none" stroke="midnightblue" d="M864.013,-232.466C924.159,-223.558 1012.48,-210.241 1098.51,-196.234"/>
<polygon fill="midnightblue" stroke="midnightblue" points="1099.14,-199.677 1108.44,-194.611 1098.01,-192.769 1099.14,-199.677"/>
</g>
<!-- Node12 -->
<g id="node27" class="node"><title>Node12</title>
<a xlink:href="WebAppMgrProxy_8h.htm" target="_top" xlink:title="WebAppMgrProxy.h">
<polygon fill="white" stroke="black" points="687.065,-174.5 687.065,-195.5 797.065,-195.5 797.065,-174.5 687.065,-174.5"/>
<text text-anchor="middle" x="742.065" y="-182.5" font-family="Helvetica,sans-Serif" font-size="10.00">WebAppMgrProxy.h</text>
</a>
</g>
<!-- Node1&#45;&gt;Node12 -->
<g id="edge30" class="edge"><title>Node1&#45;&gt;Node12</title>
<path fill="none" stroke="midnightblue" d="M782.894,-232.362C775.916,-224.268 766.144,-212.932 757.909,-203.38"/>
<polygon fill="midnightblue" stroke="midnightblue" points="760.358,-200.859 751.177,-195.571 755.056,-205.43 760.358,-200.859"/>
</g>
<!-- Node3&#45;&gt;Node2 -->
<g id="edge6" class="edge"><title>Node3&#45;&gt;Node2</title>
<path fill="none" stroke="midnightblue" d="M90.6712,-174.408C52.1955,-152.112 -27.0055,-99.0147 10.0646,-58 37.9399,-27.1586 319.719,-15.5528 430.075,-12.1688"/>
<polygon fill="midnightblue" stroke="midnightblue" points="430.314,-15.6633 440.205,-11.8666 430.105,-8.66641 430.314,-15.6633"/>
</g>
<!-- Node4 -->
<g id="node8" class="node"><title>Node4</title>
<a xlink:href="HostWindowData_8h.htm" target="_top" xlink:title="HostWindowData.h">
<polygon fill="white" stroke="black" points="56.5646,-116.5 56.5646,-137.5 163.565,-137.5 163.565,-116.5 56.5646,-116.5"/>
<text text-anchor="middle" x="110.065" y="-124.5" font-family="Helvetica,sans-Serif" font-size="10.00">HostWindowData.h</text>
</a>
</g>
<!-- Node3&#45;&gt;Node4 -->
<g id="edge8" class="edge"><title>Node3&#45;&gt;Node4</title>
<path fill="none" stroke="midnightblue" d="M110.065,-174.362C110.065,-166.922 110.065,-156.743 110.065,-147.728"/>
<polygon fill="midnightblue" stroke="midnightblue" points="113.565,-147.571 110.065,-137.571 106.565,-147.571 113.565,-147.571"/>
</g>
<!-- Node5 -->
<g id="node11" class="node"><title>Node5</title>
<polygon fill="white" stroke="#bfbfbf" points="18.5646,-58.5 18.5646,-79.5 77.5646,-79.5 77.5646,-58.5 18.5646,-58.5"/>
<text text-anchor="middle" x="48.0646" y="-66.5" font-family="Helvetica,sans-Serif" font-size="10.00">QPixmap</text>
</g>
<!-- Node3&#45;&gt;Node5 -->
<g id="edge16" class="edge"><title>Node3&#45;&gt;Node5</title>
<path fill="none" stroke="midnightblue" d="M87.0424,-174.371C72.9755,-166.508 56.1775,-154.33 48.0646,-138 40.6747,-123.125 41.2899,-104.121 43.4066,-89.8254"/>
<polygon fill="midnightblue" stroke="midnightblue" points="46.8552,-90.4236 45.2102,-79.9572 39.9693,-89.165 46.8552,-90.4236"/>
</g>
<!-- Node3&#45;&gt;Node7 -->
<g id="edge18" class="edge"><title>Node3&#45;&gt;Node7</title>
<path fill="none" stroke="midnightblue" d="M129.623,-174.497C146.263,-165.56 170.392,-152.602 189.245,-142.477"/>
<polygon fill="midnightblue" stroke="midnightblue" points="191.133,-145.436 198.287,-137.621 187.821,-139.269 191.133,-145.436"/>
</g>
<!-- Node4&#45;&gt;Node2 -->
<g id="edge10" class="edge"><title>Node4&#45;&gt;Node2</title>
<path fill="none" stroke="midnightblue" d="M130.927,-116.467C160.865,-101.696 218.035,-74.764 269.065,-58 323.705,-40.0498 388.715,-26.3956 430.648,-18.5463"/>
<polygon fill="midnightblue" stroke="midnightblue" points="431.331,-21.9793 440.531,-16.7239 430.062,-15.0954 431.331,-21.9793"/>
</g>
<!-- Node4&#45;&gt;Node5 -->
<g id="edge12" class="edge"><title>Node4&#45;&gt;Node5</title>
<path fill="none" stroke="midnightblue" d="M98.6929,-116.362C89.7784,-108.023 77.1852,-96.2418 66.7889,-86.5162"/>
<polygon fill="midnightblue" stroke="midnightblue" points="69.0581,-83.8463 59.3643,-79.5707 64.276,-88.9582 69.0581,-83.8463"/>
</g>
<!-- Node6 -->
<g id="node13" class="node"><title>Node6</title>
<polygon fill="white" stroke="#bfbfbf" points="95.0646,-58.5 95.0646,-79.5 181.065,-79.5 181.065,-58.5 95.0646,-58.5"/>
<text text-anchor="middle" x="138.065" y="-66.5" font-family="Helvetica,sans-Serif" font-size="10.00">PIpcChannel.h</text>
</g>
<!-- Node4&#45;&gt;Node6 -->
<g id="edge14" class="edge"><title>Node4&#45;&gt;Node6</title>
<path fill="none" stroke="midnightblue" d="M115.2,-116.362C118.91,-108.677 124.032,-98.0686 128.487,-88.8399"/>
<polygon fill="midnightblue" stroke="midnightblue" points="131.766,-90.0978 132.962,-79.5707 125.462,-87.0545 131.766,-90.0978"/>
</g>
<!-- Node12&#45;&gt;Node2 -->
<g id="edge32" class="edge"><title>Node12&#45;&gt;Node2</title>
<path fill="none" stroke="midnightblue" d="M752.405,-174.441C765.035,-160.229 783.191,-134.585 770.065,-116 762.447,-105.216 596.871,-50.6301 516.751,-24.707"/>
<polygon fill="midnightblue" stroke="midnightblue" points="517.551,-21.2872 506.959,-21.5437 515.399,-27.9483 517.551,-21.2872"/>
</g>
<!-- Node13 -->
<g id="node30" class="node"><title>Node13</title>
<polygon fill="white" stroke="#bfbfbf" points="1106.06,-58.5 1106.06,-79.5 1230.06,-79.5 1230.06,-58.5 1106.06,-58.5"/>
<text text-anchor="middle" x="1168.06" y="-66.5" font-family="Helvetica,sans-Serif" font-size="10.00">PIpcChannelListener.h</text>
</g>
<!-- Node12&#45;&gt;Node13 -->
<g id="edge34" class="edge"><title>Node12&#45;&gt;Node13</title>
<path fill="none" stroke="midnightblue" d="M797.186,-175.282C800.186,-174.829 803.161,-174.398 806.065,-174 883.527,-163.372 1098.88,-191.328 1156.06,-138 1168.94,-125.988 1171.09,-105.48 1170.53,-89.9356"/>
<polygon fill="midnightblue" stroke="midnightblue" points="1174,-89.3939 1169.75,-79.6863 1167.02,-89.9218 1174,-89.3939"/>
</g>
<!-- Node14 -->
<g id="node32" class="node"><title>Node14</title>
<polygon fill="white" stroke="#bfbfbf" points="922.565,-116.5 922.565,-137.5 967.565,-137.5 967.565,-116.5 922.565,-116.5"/>
<text text-anchor="middle" x="945.065" y="-124.5" font-family="Helvetica,sans-Serif" font-size="10.00">queue</text>
</g>
<!-- Node12&#45;&gt;Node14 -->
<g id="edge36" class="edge"><title>Node12&#45;&gt;Node14</title>
<path fill="none" stroke="midnightblue" d="M784.024,-174.464C816.821,-166.021 863.735,-153.49 912.639,-138.315"/>
<polygon fill="midnightblue" stroke="midnightblue" points="913.946,-141.574 922.443,-135.245 911.854,-134.894 913.946,-141.574"/>
</g>
<!-- Node15 -->
<g id="node34" class="node"><title>Node15</title>
<a xlink:href="IpcClientHost_8h.htm" target="_top" xlink:title="IpcClientHost.h">
<polygon fill="white" stroke="black" points="817.065,-116.5 817.065,-137.5 905.065,-137.5 905.065,-116.5 817.065,-116.5"/>
<text text-anchor="middle" x="861.065" y="-124.5" font-family="Helvetica,sans-Serif" font-size="10.00">IpcClientHost.h</text>
</a>
</g>
<!-- Node12&#45;&gt;Node15 -->
<g id="edge38" class="edge"><title>Node12&#45;&gt;Node15</title>
<path fill="none" stroke="midnightblue" d="M763.615,-174.497C782.201,-165.438 809.266,-152.246 830.16,-142.063"/>
<polygon fill="midnightblue" stroke="midnightblue" points="831.817,-145.149 839.273,-137.621 828.75,-138.856 831.817,-145.149"/>
</g>
<!-- Node26 -->
<g id="node61" class="node"><title>Node26</title>
<polygon fill="white" stroke="#bfbfbf" points="985.065,-116.5 985.065,-137.5 1037.06,-137.5 1037.06,-116.5 985.065,-116.5"/>
<text text-anchor="middle" x="1011.06" y="-124.5" font-family="Helvetica,sans-Serif" font-size="10.00">Event.h</text>
</g>
<!-- Node12&#45;&gt;Node26 -->
<g id="edge70" class="edge"><title>Node12&#45;&gt;Node26</title>
<path fill="none" stroke="midnightblue" d="M797.196,-174.629C851.116,-164.369 930.442,-148.938 975.021,-138.048"/>
<polygon fill="midnightblue" stroke="midnightblue" points="975.935,-141.428 984.778,-135.591 974.226,-134.64 975.935,-141.428"/>
</g>
<!-- Node27 -->
<g id="node63" class="node"><title>Node27</title>
<polygon fill="white" stroke="#bfbfbf" points="1055.06,-116.5 1055.06,-137.5 1147.06,-137.5 1147.06,-116.5 1055.06,-116.5"/>
<text text-anchor="middle" x="1101.06" y="-124.5" font-family="Helvetica,sans-Serif" font-size="10.00">CustomEvents.h</text>
</g>
<!-- Node12&#45;&gt;Node27 -->
<g id="edge72" class="edge"><title>Node12&#45;&gt;Node27</title>
<path fill="none" stroke="midnightblue" d="M797.21,-175.445C800.204,-174.95 803.171,-174.466 806.065,-174 909.435,-157.366 938.152,-156.613 1044.99,-138.129"/>
<polygon fill="midnightblue" stroke="midnightblue" points="1045.63,-141.57 1054.88,-136.406 1044.43,-134.674 1045.63,-141.57"/>
</g>
<!-- Node28 -->
<g id="node65" class="node"><title>Node28</title>
<polygon fill="white" stroke="#bfbfbf" points="311.065,-116.5 311.065,-137.5 463.065,-137.5 463.065,-116.5 311.065,-116.5"/>
<text text-anchor="middle" x="387.065" y="-124.5" font-family="Helvetica,sans-Serif" font-size="10.00">NewContentIndicatorEvent.h</text>
</g>
<!-- Node12&#45;&gt;Node28 -->
<g id="edge74" class="edge"><title>Node12&#45;&gt;Node28</title>
<path fill="none" stroke="midnightblue" d="M686.985,-176.001C626.504,-166.12 529.049,-150.197 461.725,-139.198"/>
<polygon fill="midnightblue" stroke="midnightblue" points="462.038,-135.703 451.605,-137.545 460.909,-142.611 462.038,-135.703"/>
</g>
<!-- Node29 -->
<g id="node67" class="node"><title>Node29</title>
<polygon fill="white" stroke="#bfbfbf" points="481.065,-116.5 481.065,-137.5 611.065,-137.5 611.065,-116.5 481.065,-116.5"/>
<text text-anchor="middle" x="546.065" y="-124.5" font-family="Helvetica,sans-Serif" font-size="10.00">BannerMessageEvent.h</text>
</g>
<!-- Node12&#45;&gt;Node29 -->
<g id="edge76" class="edge"><title>Node12&#45;&gt;Node29</title>
<path fill="none" stroke="midnightblue" d="M706.571,-174.497C674.341,-164.959 626.63,-150.841 591.601,-140.475"/>
<polygon fill="midnightblue" stroke="midnightblue" points="592.207,-137.005 581.625,-137.523 590.221,-143.717 592.207,-137.005"/>
</g>
<!-- Node30 -->
<g id="node69" class="node"><title>Node30</title>
<polygon fill="white" stroke="#bfbfbf" points="628.565,-116.5 628.565,-137.5 761.565,-137.5 761.565,-116.5 628.565,-116.5"/>
<text text-anchor="middle" x="695.065" y="-124.5" font-family="Helvetica,sans-Serif" font-size="10.00">ActiveCallBannerEvent.h</text>
</g>
<!-- Node12&#45;&gt;Node30 -->
<g id="edge78" class="edge"><title>Node12&#45;&gt;Node30</title>
<path fill="none" stroke="midnightblue" d="M733.444,-174.362C726.885,-166.268 717.699,-154.932 709.958,-145.38"/>
<polygon fill="midnightblue" stroke="midnightblue" points="712.646,-143.136 703.631,-137.571 707.207,-147.544 712.646,-143.136"/>
</g>
<!-- Node15&#45;&gt;Node2 -->
<g id="edge40" class="edge"><title>Node15&#45;&gt;Node2</title>
<path fill="none" stroke="midnightblue" d="M843.434,-116.402C811.633,-97.3001 747.702,-58.9752 745.065,-58 668.066,-29.5294 572.266,-18.1015 517.644,-13.666"/>
<polygon fill="midnightblue" stroke="midnightblue" points="517.851,-10.1717 507.612,-12.8929 517.313,-17.151 517.851,-10.1717"/>
</g>
<!-- Node15&#45;&gt;Node13 -->
<g id="edge50" class="edge"><title>Node15&#45;&gt;Node13</title>
<path fill="none" stroke="midnightblue" d="M905.297,-117.745C908.262,-117.148 911.206,-116.561 914.065,-116 976.67,-103.712 1048.14,-90.5668 1099.28,-81.3117"/>
<polygon fill="midnightblue" stroke="midnightblue" points="1100.01,-84.7364 1109.23,-79.5139 1098.77,-77.8479 1100.01,-84.7364"/>
</g>
<!-- Node16 -->
<g id="node37" class="node"><title>Node16</title>
<polygon fill="white" stroke="#bfbfbf" points="1174.56,-0.5 1174.56,-21.5 1217.56,-21.5 1217.56,-0.5 1174.56,-0.5"/>
<text text-anchor="middle" x="1196.06" y="-8.5" font-family="Helvetica,sans-Serif" font-size="10.00">string</text>
</g>
<!-- Node15&#45;&gt;Node16 -->
<g id="edge42" class="edge"><title>Node15&#45;&gt;Node16</title>
<path fill="none" stroke="midnightblue" d="M900.499,-116.481C933.075,-107.537 980.4,-93.9576 1021.06,-80 1072.09,-62.4854 1130.13,-38.8434 1164.89,-24.2749"/>
<polygon fill="midnightblue" stroke="midnightblue" points="1166.61,-27.3465 1174.47,-20.2405 1163.9,-20.895 1166.61,-27.3465"/>
</g>
<!-- Node17 -->
<g id="node39" class="node"><title>Node17</title>
<polygon fill="white" stroke="#bfbfbf" points="699.565,-58.5 699.565,-79.5 736.565,-79.5 736.565,-58.5 699.565,-58.5"/>
<text text-anchor="middle" x="718.065" y="-66.5" font-family="Helvetica,sans-Serif" font-size="10.00">map</text>
</g>
<!-- Node15&#45;&gt;Node17 -->
<g id="edge44" class="edge"><title>Node15&#45;&gt;Node17</title>
<path fill="none" stroke="midnightblue" d="M835.168,-116.497C810.157,-106.352 772.369,-91.0256 746.527,-80.5441"/>
<polygon fill="midnightblue" stroke="midnightblue" points="747.507,-77.1648 736.925,-76.6496 744.876,-83.6516 747.507,-77.1648"/>
</g>
<!-- Node18 -->
<g id="node41" class="node"><title>Node18</title>
<polygon fill="white" stroke="#bfbfbf" points="791.565,-58.5 791.565,-79.5 822.565,-79.5 822.565,-58.5 791.565,-58.5"/>
<text text-anchor="middle" x="807.065" y="-66.5" font-family="Helvetica,sans-Serif" font-size="10.00">set</text>
</g>
<!-- Node15&#45;&gt;Node18 -->
<g id="edge46" class="edge"><title>Node15&#45;&gt;Node18</title>
<path fill="none" stroke="midnightblue" d="M851.16,-116.362C843.548,-108.186 832.857,-96.7025 823.908,-87.0907"/>
<polygon fill="midnightblue" stroke="midnightblue" points="826.282,-84.5046 816.906,-79.5707 821.159,-89.2746 826.282,-84.5046"/>
</g>
<!-- Node19 -->
<g id="node43" class="node"><title>Node19</title>
<polygon fill="white" stroke="#bfbfbf" points="760.565,-0.5 760.565,-21.5 801.565,-21.5 801.565,-0.5 760.565,-0.5"/>
<text text-anchor="middle" x="781.065" y="-8.5" font-family="Helvetica,sans-Serif" font-size="10.00">glib.h</text>
</g>
<!-- Node15&#45;&gt;Node19 -->
<g id="edge48" class="edge"><title>Node15&#45;&gt;Node19</title>
<path fill="none" stroke="midnightblue" d="M875.482,-116.489C892.508,-102.765 916.874,-78.1183 903.065,-58 902.718,-57.4949 847.28,-36.2676 811.264,-22.5162"/>
<polygon fill="midnightblue" stroke="midnightblue" points="812.273,-19.1552 801.682,-18.8593 809.777,-25.6951 812.273,-19.1552"/>
</g>
<!-- Node20 -->
<g id="node46" class="node"><title>Node20</title>
<a xlink:href="Window_8h.htm" target="_top" xlink:title="Window.h">
<polygon fill="white" stroke="black" points="950.065,-58.5 950.065,-79.5 1012.06,-79.5 1012.06,-58.5 950.065,-58.5"/>
<text text-anchor="middle" x="981.065" y="-66.5" font-family="Helvetica,sans-Serif" font-size="10.00">Window.h</text>
</a>
</g>
<!-- Node15&#45;&gt;Node20 -->
<g id="edge52" class="edge"><title>Node15&#45;&gt;Node20</title>
<path fill="none" stroke="midnightblue" d="M882.796,-116.497C901.538,-107.438 928.831,-94.2462 949.9,-84.0628"/>
<polygon fill="midnightblue" stroke="midnightblue" points="951.609,-87.1242 959.09,-79.6212 948.563,-80.8217 951.609,-87.1242"/>
</g>
<!-- Node25 -->
<g id="node59" class="node"><title>Node25</title>
<polygon fill="white" stroke="#bfbfbf" points="839.565,-58.5 839.565,-79.5 894.565,-79.5 894.565,-58.5 839.565,-58.5"/>
<text text-anchor="middle" x="867.065" y="-66.5" font-family="Helvetica,sans-Serif" font-size="10.00">QObject</text>
</g>
<!-- Node15&#45;&gt;Node25 -->
<g id="edge68" class="edge"><title>Node15&#45;&gt;Node25</title>
<path fill="none" stroke="midnightblue" d="M862.165,-116.362C862.935,-108.922 863.988,-98.7427 864.92,-89.7276"/>
<polygon fill="midnightblue" stroke="midnightblue" points="868.423,-89.8777 865.971,-79.5707 861.461,-89.1574 868.423,-89.8777"/>
</g>
<!-- Node20&#45;&gt;Node2 -->
<g id="edge54" class="edge"><title>Node20&#45;&gt;Node2</title>
<path fill="none" stroke="midnightblue" d="M949.97,-64.3898C935.694,-62.331 918.534,-59.9377 903.065,-58 762.654,-40.412 595.921,-23.1938 518.13,-15.3728"/>
<polygon fill="midnightblue" stroke="midnightblue" points="518.055,-11.8477 507.755,-14.3325 517.356,-18.8128 518.055,-11.8477"/>
</g>
<!-- Node20&#45;&gt;Node16 -->
<g id="edge60" class="edge"><title>Node20&#45;&gt;Node16</title>
<path fill="none" stroke="midnightblue" d="M1012.1,-62.1414C1047.13,-54.1794 1105.94,-40.1387 1164.71,-22.2255"/>
<polygon fill="midnightblue" stroke="midnightblue" points="1166,-25.4911 1174.52,-19.1982 1163.94,-18.8023 1166,-25.4911"/>
</g>
<!-- Node20&#45;&gt;Node19 -->
<g id="edge62" class="edge"><title>Node20&#45;&gt;Node19</title>
<path fill="none" stroke="midnightblue" d="M949.912,-61.379C917.389,-53.2175 864.753,-39.4332 811.222,-22.1953"/>
<polygon fill="midnightblue" stroke="midnightblue" points="812.167,-18.8221 801.575,-19.0535 809.999,-25.478 812.167,-18.8221"/>
</g>
<!-- Node21 -->
<g id="node49" class="node"><title>Node21</title>
<polygon fill="white" stroke="#bfbfbf" points="1065.06,-0.5 1065.06,-21.5 1157.06,-21.5 1157.06,-0.5 1065.06,-0.5"/>
<text text-anchor="middle" x="1111.06" y="-8.5" font-family="Helvetica,sans-Serif" font-size="10.00">WindowTypes.h</text>
</g>
<!-- Node20&#45;&gt;Node21 -->
<g id="edge56" class="edge"><title>Node20&#45;&gt;Node21</title>
<path fill="none" stroke="midnightblue" d="M1004.61,-58.4966C1025.09,-49.3562 1055.01,-36.0082 1077.92,-25.7883"/>
<polygon fill="midnightblue" stroke="midnightblue" points="1079.55,-28.892 1087.26,-21.6212 1076.7,-22.4994 1079.55,-28.892"/>
</g>
<!-- Node22 -->
<g id="node51" class="node"><title>Node22</title>
<polygon fill="white" stroke="#bfbfbf" points="819.065,-0.5 819.065,-21.5 869.065,-21.5 869.065,-0.5 819.065,-0.5"/>
<text text-anchor="middle" x="844.065" y="-8.5" font-family="Helvetica,sans-Serif" font-size="10.00">stdint.h</text>
</g>
<!-- Node20&#45;&gt;Node22 -->
<g id="edge58" class="edge"><title>Node20&#45;&gt;Node22</title>
<path fill="none" stroke="midnightblue" d="M956.255,-58.4966C934.568,-49.3154 902.854,-35.8889 878.673,-25.6516"/>
<polygon fill="midnightblue" stroke="midnightblue" points="879.726,-22.2968 869.153,-21.6212 876.997,-28.7429 879.726,-22.2968"/>
</g>
<!-- Node23 -->
<g id="node55" class="node"><title>Node23</title>
<polygon fill="white" stroke="#bfbfbf" points="887.065,-0.5 887.065,-21.5 985.065,-21.5 985.065,-0.5 887.065,-0.5"/>
<text text-anchor="middle" x="936.065" y="-8.5" font-family="Helvetica,sans-Serif" font-size="10.00">QGraphicsObject</text>
</g>
<!-- Node20&#45;&gt;Node23 -->
<g id="edge64" class="edge"><title>Node20&#45;&gt;Node23</title>
<path fill="none" stroke="midnightblue" d="M972.811,-58.3619C966.594,-50.3496 957.913,-39.1605 950.55,-29.6696"/>
<polygon fill="midnightblue" stroke="midnightblue" points="953.161,-27.326 944.266,-21.5707 947.631,-31.617 953.161,-27.326"/>
</g>
<!-- Node24 -->
<g id="node57" class="node"><title>Node24</title>
<polygon fill="white" stroke="#bfbfbf" points="1002.56,-0.5 1002.56,-21.5 1047.56,-21.5 1047.56,-0.5 1002.56,-0.5"/>
<text text-anchor="middle" x="1025.06" y="-8.5" font-family="Helvetica,sans-Serif" font-size="10.00">QSize</text>
</g>
<!-- Node20&#45;&gt;Node24 -->
<g id="edge66" class="edge"><title>Node20&#45;&gt;Node24</title>
<path fill="none" stroke="midnightblue" d="M989.135,-58.3619C995.213,-50.3496 1003.7,-39.1605 1010.9,-29.6696"/>
<polygon fill="midnightblue" stroke="midnightblue" points="1013.79,-31.653 1017.05,-21.5707 1008.21,-27.4222 1013.79,-31.653"/>
</g>
</g>
</svg>
