<?xml version="1.0" encoding="UTF-8" standalone="no"?>
<!DOCTYPE svg PUBLIC "-//W3C//DTD SVG 1.1//EN"
 "http://www.w3.org/Graphics/SVG/1.1/DTD/svg11.dtd">
<!-- Generated by graphviz version 2.26.3 (20100126.1600)
 -->
<!-- Title: HostWindowData.cpp Pages: 1 -->
<svg width="345pt" height="204pt"
 viewBox="0.00 0.00 345.00 204.00" xmlns="http://www.w3.org/2000/svg" xmlns:xlink="http://www.w3.org/1999/xlink">
<g id="graph1" class="graph" transform="scale(1 1) rotate(0) translate(4 200)">
<title>HostWindowData.cpp</title>
<polygon fill="white" stroke="white" points="-4,5 -4,-200 342,-200 342,5 -4,5"/>
<!-- Node1 -->
<g id="node1" class="node"><title>Node1</title>
<polygon fill="#bfbfbf" stroke="black" points="73,-174.5 73,-195.5 191,-195.5 191,-174.5 73,-174.5"/>
<text text-anchor="middle" x="132" y="-182.5" font-family="Helvetica,sans-Serif" font-size="10.00">HostWindowData.cpp</text>
</g>
<!-- Node2 -->
<g id="node3" class="node"><title>Node2</title>
<polygon fill="white" stroke="#bfbfbf" points="-0.5,-0.5 -0.5,-21.5 66.5,-21.5 66.5,-0.5 -0.5,-0.5"/>
<text text-anchor="middle" x="33" y="-8.5" font-family="Helvetica,sans-Serif" font-size="10.00">Common.h</text>
</g>
<!-- Node1&#45;&gt;Node2 -->
<g id="edge2" class="edge"><title>Node1&#45;&gt;Node2</title>
<path fill="none" stroke="midnightblue" d="M120.418,-174.28C102.005,-156.539 66.2763,-119.13 48,-80 40.8773,-64.7502 37.0802,-46.011 35.0902,-31.9117"/>
<polygon fill="midnightblue" stroke="midnightblue" points="38.5364,-31.2576 33.8527,-21.7543 31.5878,-32.1042 38.5364,-31.2576"/>
</g>
<!-- Node3 -->
<g id="node5" class="node"><title>Node3</title>
<a xlink:href="HostWindowData_8h.htm" target="_top" xlink:title="HostWindowData.h">
<polygon fill="white" stroke="black" points="78.5,-58.5 78.5,-79.5 185.5,-79.5 185.5,-58.5 78.5,-58.5"/>
<text text-anchor="middle" x="132" y="-66.5" font-family="Helvetica,sans-Serif" font-size="10.00">HostWindowData.h</text>
</a>
</g>
<!-- Node1&#45;&gt;Node3 -->
<g id="edge4" class="edge"><title>Node1&#45;&gt;Node3</title>
<path fill="none" stroke="midnightblue" d="M122.016,-174.418C114.325,-165.489 104.302,-151.962 100,-138 97.1209,-128.656 97.1209,-125.344 100,-116 103.159,-105.747 109.404,-95.7278 115.545,-87.5925"/>
<polygon fill="midnightblue" stroke="midnightblue" points="118.454,-89.5603 122.016,-79.5822 113.009,-85.1612 118.454,-89.5603"/>
</g>
<!-- Node6 -->
<g id="node12" class="node"><title>Node6</title>
<polygon fill="white" stroke="#bfbfbf" points="274.5,-116.5 274.5,-137.5 337.5,-137.5 337.5,-116.5 274.5,-116.5"/>
<text text-anchor="middle" x="306" y="-124.5" font-family="Helvetica,sans-Serif" font-size="10.00">Settings.h</text>
</g>
<!-- Node1&#45;&gt;Node6 -->
<g id="edge12" class="edge"><title>Node1&#45;&gt;Node6</title>
<path fill="none" stroke="midnightblue" d="M163.51,-174.497C191.877,-165.041 233.751,-151.083 264.772,-140.743"/>
<polygon fill="midnightblue" stroke="midnightblue" points="266.051,-144.006 274.431,-137.523 263.837,-137.365 266.051,-144.006"/>
</g>
<!-- Node7 -->
<g id="node14" class="node"><title>Node7</title>
<a xlink:href="HostWindowDataSoftware_8h.htm" target="_top" xlink:title="HostWindowDataSoftware.h">
<polygon fill="white" stroke="black" points="108.5,-116.5 108.5,-137.5 257.5,-137.5 257.5,-116.5 108.5,-116.5"/>
<text text-anchor="middle" x="183" y="-124.5" font-family="Helvetica,sans-Serif" font-size="10.00">HostWindowDataSoftware.h</text>
</a>
</g>
<!-- Node1&#45;&gt;Node7 -->
<g id="edge14" class="edge"><title>Node1&#45;&gt;Node7</title>
<path fill="none" stroke="midnightblue" d="M141.354,-174.362C148.543,-166.186 158.641,-154.702 167.093,-145.091"/>
<polygon fill="midnightblue" stroke="midnightblue" points="169.73,-147.392 173.705,-137.571 164.473,-142.769 169.73,-147.392"/>
</g>
<!-- Node3&#45;&gt;Node2 -->
<g id="edge6" class="edge"><title>Node3&#45;&gt;Node2</title>
<path fill="none" stroke="midnightblue" d="M113.842,-58.3619C98.7701,-49.532 77.1129,-36.844 60.0072,-26.8224"/>
<polygon fill="midnightblue" stroke="midnightblue" points="61.4406,-23.6058 51.043,-21.5707 57.9021,-29.6456 61.4406,-23.6058"/>
</g>
<!-- Node4 -->
<g id="node8" class="node"><title>Node4</title>
<polygon fill="white" stroke="#bfbfbf" points="187.5,-0.5 187.5,-21.5 246.5,-21.5 246.5,-0.5 187.5,-0.5"/>
<text text-anchor="middle" x="217" y="-8.5" font-family="Helvetica,sans-Serif" font-size="10.00">QPixmap</text>
</g>
<!-- Node3&#45;&gt;Node4 -->
<g id="edge8" class="edge"><title>Node3&#45;&gt;Node4</title>
<path fill="none" stroke="midnightblue" d="M147.59,-58.3619C160.291,-49.6955 178.438,-37.3126 192.992,-27.3819"/>
<polygon fill="midnightblue" stroke="midnightblue" points="195.221,-30.0982 201.509,-21.5707 191.276,-24.316 195.221,-30.0982"/>
</g>
<!-- Node5 -->
<g id="node10" class="node"><title>Node5</title>
<polygon fill="white" stroke="#bfbfbf" points="84,-0.5 84,-21.5 170,-21.5 170,-0.5 84,-0.5"/>
<text text-anchor="middle" x="127" y="-8.5" font-family="Helvetica,sans-Serif" font-size="10.00">PIpcChannel.h</text>
</g>
<!-- Node3&#45;&gt;Node5 -->
<g id="edge10" class="edge"><title>Node3&#45;&gt;Node5</title>
<path fill="none" stroke="midnightblue" d="M131.083,-58.3619C130.442,-50.9219 129.564,-40.7427 128.787,-31.7276"/>
<polygon fill="midnightblue" stroke="midnightblue" points="132.257,-31.2331 127.911,-21.5707 125.283,-31.8343 132.257,-31.2331"/>
</g>
<!-- Node7&#45;&gt;Node2 -->
<g id="edge16" class="edge"><title>Node7&#45;&gt;Node2</title>
<path fill="none" stroke="midnightblue" d="M139.146,-116.424C116.424,-109.181 89.4418,-97.6232 70,-80 55.4348,-66.7972 45.5177,-46.4901 39.6455,-31.3195"/>
<polygon fill="midnightblue" stroke="midnightblue" points="42.8956,-30.0141 36.2189,-21.7878 36.3083,-32.3822 42.8956,-30.0141"/>
</g>
<!-- Node7&#45;&gt;Node3 -->
<g id="edge18" class="edge"><title>Node7&#45;&gt;Node3</title>
<path fill="none" stroke="midnightblue" d="M173.646,-116.362C166.457,-108.186 156.359,-96.7025 147.907,-87.0907"/>
<polygon fill="midnightblue" stroke="midnightblue" points="150.527,-84.7692 141.295,-79.5707 145.27,-89.3916 150.527,-84.7692"/>
</g>
<!-- Node7&#45;&gt;Node4 -->
<g id="edge20" class="edge"><title>Node7&#45;&gt;Node4</title>
<path fill="none" stroke="midnightblue" d="M186.138,-116.295C191.78,-97.0451 203.726,-56.2889 210.989,-31.5091"/>
<polygon fill="midnightblue" stroke="midnightblue" points="214.416,-32.26 213.87,-21.6792 207.698,-30.291 214.416,-32.26"/>
</g>
<!-- Node8 -->
<g id="node19" class="node"><title>Node8</title>
<polygon fill="white" stroke="#bfbfbf" points="241,-58.5 241,-79.5 315,-79.5 315,-58.5 241,-58.5"/>
<text text-anchor="middle" x="278" y="-66.5" font-family="Helvetica,sans-Serif" font-size="10.00">PIpcBuffer.h</text>
</g>
<!-- Node7&#45;&gt;Node8 -->
<g id="edge22" class="edge"><title>Node7&#45;&gt;Node8</title>
<path fill="none" stroke="midnightblue" d="M200.424,-116.362C214.887,-107.532 235.669,-94.844 252.084,-84.8224"/>
<polygon fill="midnightblue" stroke="midnightblue" points="253.975,-87.7688 260.686,-79.5707 250.327,-81.7943 253.975,-87.7688"/>
</g>
</g>
</svg>
