<?xml version="1.0" encoding="UTF-8" standalone="no"?>
<!DOCTYPE svg PUBLIC "-//W3C//DTD SVG 1.1//EN"
 "http://www.w3.org/Graphics/SVG/1.1/DTD/svg11.dtd">
<!-- Generated by graphviz version 2.26.3 (20100126.1600)
 -->
<!-- Title: HostWindow.h Pages: 1 -->
<svg width="922pt" height="146pt"
 viewBox="0.00 0.00 922.00 146.29" xmlns="http://www.w3.org/2000/svg" xmlns:xlink="http://www.w3.org/1999/xlink">
<g id="graph1" class="graph" transform="scale(1 1) rotate(0) translate(4 142.292)">
<title>HostWindow.h</title>
<polygon fill="white" stroke="white" points="-4,5 -4,-142.292 919,-142.292 919,5 -4,5"/>
<!-- Node1 -->
<g id="node1" class="node"><title>Node1</title>
<polygon fill="#bfbfbf" stroke="black" points="531,-116.5 531,-137.5 615,-137.5 615,-116.5 531,-116.5"/>
<text text-anchor="middle" x="573" y="-124.5" font-family="Helvetica,sans-Serif" font-size="10.00">HostWindow.h</text>
</g>
<!-- Node1&#45;&gt;Node1 -->
<g id="edge20" class="edge"><title>Node1&#45;&gt;Node1</title>
<path fill="none" stroke="midnightblue" d="M603.563,-137.524C619.083,-139.061 633,-135.553 633,-127 633,-120.385 624.675,-116.788 613.722,-116.208"/>
<polygon fill="midnightblue" stroke="midnightblue" points="613.467,-112.714 603.563,-116.476 613.652,-119.711 613.467,-112.714"/>
</g>
<!-- Node2 -->
<g id="node3" class="node"><title>Node2</title>
<polygon fill="white" stroke="#bfbfbf" points="-0.5,-0.5 -0.5,-21.5 66.5,-21.5 66.5,-0.5 -0.5,-0.5"/>
<text text-anchor="middle" x="33" y="-8.5" font-family="Helvetica,sans-Serif" font-size="10.00">Common.h</text>
</g>
<!-- Node1&#45;&gt;Node2 -->
<g id="edge2" class="edge"><title>Node1&#45;&gt;Node2</title>
<path fill="none" stroke="midnightblue" d="M530.811,-122.119C472.302,-114.963 363.4,-100.245 272,-80 201.732,-64.4359 121.671,-39.8962 74.3429,-24.6617"/>
<polygon fill="midnightblue" stroke="midnightblue" points="75.3475,-21.3082 64.7557,-21.5587 73.1919,-27.9681 75.3475,-21.3082"/>
</g>
<!-- Node3 -->
<g id="node5" class="node"><title>Node3</title>
<a xlink:href="Window_8h.htm" target="_top" xlink:title="Window.h">
<polygon fill="white" stroke="black" points="281,-58.5 281,-79.5 343,-79.5 343,-58.5 281,-58.5"/>
<text text-anchor="middle" x="312" y="-66.5" font-family="Helvetica,sans-Serif" font-size="10.00">Window.h</text>
</a>
</g>
<!-- Node1&#45;&gt;Node3 -->
<g id="edge4" class="edge"><title>Node1&#45;&gt;Node3</title>
<path fill="none" stroke="midnightblue" d="M530.776,-117.617C481.747,-106.722 401.424,-88.8719 352.947,-78.0993"/>
<polygon fill="midnightblue" stroke="midnightblue" points="353.629,-74.6657 343.108,-75.913 352.111,-81.499 353.629,-74.6657"/>
</g>
<!-- Node10 -->
<g id="node21" class="node"><title>Node10</title>
<a xlink:href="HostWindowData_8h.htm" target="_top" xlink:title="HostWindowData.h">
<polygon fill="white" stroke="black" points="573.5,-58.5 573.5,-79.5 680.5,-79.5 680.5,-58.5 573.5,-58.5"/>
<text text-anchor="middle" x="627" y="-66.5" font-family="Helvetica,sans-Serif" font-size="10.00">HostWindowData.h</text>
</a>
</g>
<!-- Node1&#45;&gt;Node10 -->
<g id="edge22" class="edge"><title>Node1&#45;&gt;Node10</title>
<path fill="none" stroke="midnightblue" d="M582.904,-116.362C590.516,-108.186 601.208,-96.7025 610.157,-87.0907"/>
<polygon fill="midnightblue" stroke="midnightblue" points="612.906,-89.2746 617.158,-79.5707 607.783,-84.5046 612.906,-89.2746"/>
</g>
<!-- Node13 -->
<g id="node28" class="node"><title>Node13</title>
<a xlink:href="InputClient_8h.htm" target="_top" xlink:title="InputClient.h">
<polygon fill="white" stroke="black" points="481.5,-58.5 481.5,-79.5 556.5,-79.5 556.5,-58.5 481.5,-58.5"/>
<text text-anchor="middle" x="519" y="-66.5" font-family="Helvetica,sans-Serif" font-size="10.00">InputClient.h</text>
</a>
</g>
<!-- Node1&#45;&gt;Node13 -->
<g id="edge30" class="edge"><title>Node1&#45;&gt;Node13</title>
<path fill="none" stroke="midnightblue" d="M563.096,-116.362C555.484,-108.186 544.792,-96.7025 535.843,-87.0907"/>
<polygon fill="midnightblue" stroke="midnightblue" points="538.217,-84.5046 528.842,-79.5707 533.094,-89.2746 538.217,-84.5046"/>
</g>
<!-- Node15 -->
<g id="node33" class="node"><title>Node15</title>
<polygon fill="white" stroke="#bfbfbf" points="698,-58.5 698,-79.5 772,-79.5 772,-58.5 698,-58.5"/>
<text text-anchor="middle" x="735" y="-66.5" font-family="Helvetica,sans-Serif" font-size="10.00">PIpcBuffer.h</text>
</g>
<!-- Node1&#45;&gt;Node15 -->
<g id="edge36" class="edge"><title>Node1&#45;&gt;Node15</title>
<path fill="none" stroke="midnightblue" d="M602.337,-116.497C628.519,-107.123 667.06,-93.3242 695.863,-83.0122"/>
<polygon fill="midnightblue" stroke="midnightblue" points="697.373,-86.189 705.608,-79.5231 695.013,-79.5987 697.373,-86.189"/>
</g>
<!-- Node16 -->
<g id="node35" class="node"><title>Node16</title>
<polygon fill="white" stroke="#bfbfbf" points="790,-58.5 790,-79.5 914,-79.5 914,-58.5 790,-58.5"/>
<text text-anchor="middle" x="852" y="-66.5" font-family="Helvetica,sans-Serif" font-size="10.00">PIpcChannelListener.h</text>
</g>
<!-- Node1&#45;&gt;Node16 -->
<g id="edge38" class="edge"><title>Node1&#45;&gt;Node16</title>
<path fill="none" stroke="midnightblue" d="M615.071,-118.254C661.836,-108.532 737.778,-92.7451 791.049,-81.6709"/>
<polygon fill="midnightblue" stroke="midnightblue" points="791.974,-85.0535 801.052,-79.5913 790.549,-78.2 791.974,-85.0535"/>
</g>
<!-- Node3&#45;&gt;Node2 -->
<g id="edge6" class="edge"><title>Node3&#45;&gt;Node2</title>
<path fill="none" stroke="midnightblue" d="M280.816,-63.4365C237.24,-55.5275 155.447,-40.1946 76.9353,-22.3629"/>
<polygon fill="midnightblue" stroke="midnightblue" points="77.4116,-18.8815 66.8827,-20.0616 75.8495,-25.705 77.4116,-18.8815"/>
</g>
<!-- Node4 -->
<g id="node8" class="node"><title>Node4</title>
<polygon fill="white" stroke="#bfbfbf" points="146,-0.5 146,-21.5 238,-21.5 238,-0.5 146,-0.5"/>
<text text-anchor="middle" x="192" y="-8.5" font-family="Helvetica,sans-Serif" font-size="10.00">WindowTypes.h</text>
</g>
<!-- Node3&#45;&gt;Node4 -->
<g id="edge8" class="edge"><title>Node3&#45;&gt;Node4</title>
<path fill="none" stroke="midnightblue" d="M290.269,-58.4966C271.526,-49.4378 244.233,-36.2462 223.164,-26.0628"/>
<polygon fill="midnightblue" stroke="midnightblue" points="224.502,-22.8217 213.975,-21.6212 221.455,-29.1242 224.502,-22.8217"/>
</g>
<!-- Node5 -->
<g id="node10" class="node"><title>Node5</title>
<polygon fill="white" stroke="#bfbfbf" points="256,-0.5 256,-21.5 306,-21.5 306,-0.5 256,-0.5"/>
<text text-anchor="middle" x="281" y="-8.5" font-family="Helvetica,sans-Serif" font-size="10.00">stdint.h</text>
</g>
<!-- Node3&#45;&gt;Node5 -->
<g id="edge10" class="edge"><title>Node3&#45;&gt;Node5</title>
<path fill="none" stroke="midnightblue" d="M306.314,-58.3619C302.163,-50.5949 296.416,-39.8426 291.447,-30.5458"/>
<polygon fill="midnightblue" stroke="midnightblue" points="294.45,-28.7401 286.65,-21.5707 288.277,-32.0398 294.45,-28.7401"/>
</g>
<!-- Node6 -->
<g id="node12" class="node"><title>Node6</title>
<polygon fill="white" stroke="#bfbfbf" points="497.5,-0.5 497.5,-21.5 540.5,-21.5 540.5,-0.5 497.5,-0.5"/>
<text text-anchor="middle" x="519" y="-8.5" font-family="Helvetica,sans-Serif" font-size="10.00">string</text>
</g>
<!-- Node3&#45;&gt;Node6 -->
<g id="edge12" class="edge"><title>Node3&#45;&gt;Node6</title>
<path fill="none" stroke="midnightblue" d="M343.263,-61.621C376.882,-53.4848 432.058,-39.553 487.779,-22.2131"/>
<polygon fill="midnightblue" stroke="midnightblue" points="488.963,-25.51 497.451,-19.17 486.862,-18.8327 488.963,-25.51"/>
</g>
<!-- Node7 -->
<g id="node14" class="node"><title>Node7</title>
<polygon fill="white" stroke="#bfbfbf" points="323.5,-0.5 323.5,-21.5 364.5,-21.5 364.5,-0.5 323.5,-0.5"/>
<text text-anchor="middle" x="344" y="-8.5" font-family="Helvetica,sans-Serif" font-size="10.00">glib.h</text>
</g>
<!-- Node3&#45;&gt;Node7 -->
<g id="edge14" class="edge"><title>Node3&#45;&gt;Node7</title>
<path fill="none" stroke="midnightblue" d="M317.869,-58.3619C322.155,-50.5949 328.087,-39.8426 333.216,-30.5458"/>
<polygon fill="midnightblue" stroke="midnightblue" points="336.402,-32.0172 338.168,-21.5707 330.273,-28.6357 336.402,-32.0172"/>
</g>
<!-- Node8 -->
<g id="node16" class="node"><title>Node8</title>
<polygon fill="white" stroke="#bfbfbf" points="382,-0.5 382,-21.5 480,-21.5 480,-0.5 382,-0.5"/>
<text text-anchor="middle" x="431" y="-8.5" font-family="Helvetica,sans-Serif" font-size="10.00">QGraphicsObject</text>
</g>
<!-- Node3&#45;&gt;Node8 -->
<g id="edge16" class="edge"><title>Node3&#45;&gt;Node8</title>
<path fill="none" stroke="midnightblue" d="M333.55,-58.4966C352.136,-49.4378 379.202,-36.2462 400.095,-26.0628"/>
<polygon fill="midnightblue" stroke="midnightblue" points="401.753,-29.1487 409.208,-21.6212 398.686,-22.8563 401.753,-29.1487"/>
</g>
<!-- Node9 -->
<g id="node18" class="node"><title>Node9</title>
<polygon fill="white" stroke="#bfbfbf" points="83.5,-0.5 83.5,-21.5 128.5,-21.5 128.5,-0.5 83.5,-0.5"/>
<text text-anchor="middle" x="106" y="-8.5" font-family="Helvetica,sans-Serif" font-size="10.00">QSize</text>
</g>
<!-- Node3&#45;&gt;Node9 -->
<g id="edge18" class="edge"><title>Node3&#45;&gt;Node9</title>
<path fill="none" stroke="midnightblue" d="M280.809,-61.4106C247.565,-53.1499 193.221,-39.1547 138.175,-22.2243"/>
<polygon fill="midnightblue" stroke="midnightblue" points="139.206,-18.8798 128.618,-19.257 137.13,-25.5649 139.206,-18.8798"/>
</g>
<!-- Node10&#45;&gt;Node2 -->
<g id="edge24" class="edge"><title>Node10&#45;&gt;Node2</title>
<path fill="none" stroke="midnightblue" d="M573.283,-59.123C570.485,-58.7172 567.712,-58.3393 565,-58 351.604,-31.3017 292.198,-57.0093 76.8521,-22.0767"/>
<polygon fill="midnightblue" stroke="midnightblue" points="77.2472,-18.5947 66.8113,-20.4226 76.1093,-25.5016 77.2472,-18.5947"/>
</g>
<!-- Node11 -->
<g id="node24" class="node"><title>Node11</title>
<polygon fill="white" stroke="#bfbfbf" points="673.5,-0.5 673.5,-21.5 732.5,-21.5 732.5,-0.5 673.5,-0.5"/>
<text text-anchor="middle" x="703" y="-8.5" font-family="Helvetica,sans-Serif" font-size="10.00">QPixmap</text>
</g>
<!-- Node10&#45;&gt;Node11 -->
<g id="edge26" class="edge"><title>Node10&#45;&gt;Node11</title>
<path fill="none" stroke="midnightblue" d="M640.94,-58.3619C652.188,-49.7773 668.216,-37.5459 681.165,-27.6636"/>
<polygon fill="midnightblue" stroke="midnightblue" points="683.323,-30.4198 689.149,-21.5707 679.076,-24.8551 683.323,-30.4198"/>
</g>
<!-- Node12 -->
<g id="node26" class="node"><title>Node12</title>
<polygon fill="white" stroke="#bfbfbf" points="750,-0.5 750,-21.5 836,-21.5 836,-0.5 750,-0.5"/>
<text text-anchor="middle" x="793" y="-8.5" font-family="Helvetica,sans-Serif" font-size="10.00">PIpcChannel.h</text>
</g>
<!-- Node10&#45;&gt;Node12 -->
<g id="edge28" class="edge"><title>Node10&#45;&gt;Node12</title>
<path fill="none" stroke="midnightblue" d="M657.061,-58.4966C684.007,-49.082 723.728,-35.2036 753.282,-24.8773"/>
<polygon fill="midnightblue" stroke="midnightblue" points="754.596,-28.1257 762.882,-21.5231 752.287,-21.5174 754.596,-28.1257"/>
</g>
<!-- Node13&#45;&gt;Node6 -->
<g id="edge34" class="edge"><title>Node13&#45;&gt;Node6</title>
<path fill="none" stroke="midnightblue" d="M519,-58.3619C519,-50.9219 519,-40.7427 519,-31.7276"/>
<polygon fill="midnightblue" stroke="midnightblue" points="522.5,-31.5706 519,-21.5707 515.5,-31.5707 522.5,-31.5706"/>
</g>
<!-- Node14 -->
<g id="node30" class="node"><title>Node14</title>
<polygon fill="white" stroke="#bfbfbf" points="558,-0.5 558,-21.5 656,-21.5 656,-0.5 558,-0.5"/>
<text text-anchor="middle" x="607" y="-8.5" font-family="Helvetica,sans-Serif" font-size="10.00">palmimedefines.h</text>
</g>
<!-- Node13&#45;&gt;Node14 -->
<g id="edge32" class="edge"><title>Node13&#45;&gt;Node14</title>
<path fill="none" stroke="midnightblue" d="M535.141,-58.3619C548.414,-49.6138 567.432,-37.0786 582.57,-27.1015"/>
<polygon fill="midnightblue" stroke="midnightblue" points="584.538,-29.9962 590.962,-21.5707 580.686,-24.1515 584.538,-29.9962"/>
</g>
</g>
</svg>
