<?xml version="1.0" encoding="UTF-8" standalone="no"?>
<!DOCTYPE svg PUBLIC "-//W3C//DTD SVG 1.1//EN"
 "http://www.w3.org/Graphics/SVG/1.1/DTD/svg11.dtd">
<!-- Generated by graphviz version 2.26.3 (20100126.1600)
 -->
<!-- Title: iconlayoutsettings.h Pages: 1 -->
<svg width="404pt" height="88pt"
 viewBox="0.00 0.00 404.00 88.00" xmlns="http://www.w3.org/2000/svg" xmlns:xlink="http://www.w3.org/1999/xlink">
<g id="graph1" class="graph" transform="scale(1 1) rotate(0) translate(4 84)">
<title>iconlayoutsettings.h</title>
<polygon fill="white" stroke="white" points="-4,5 -4,-84 401,-84 401,5 -4,5"/>
<!-- Node1 -->
<g id="node1" class="node"><title>Node1</title>
<polygon fill="#bfbfbf" stroke="black" points="150.5,-58.5 150.5,-79.5 259.5,-79.5 259.5,-58.5 150.5,-58.5"/>
<text text-anchor="middle" x="205" y="-66.5" font-family="Helvetica,sans-Serif" font-size="10.00">iconlayoutsettings.h</text>
</g>
<!-- Node2 -->
<g id="node3" class="node"><title>Node2</title>
<polygon fill="white" stroke="#bfbfbf" points="-0.5,-0.5 -0.5,-21.5 66.5,-21.5 66.5,-0.5 -0.5,-0.5"/>
<text text-anchor="middle" x="33" y="-8.5" font-family="Helvetica,sans-Serif" font-size="10.00">Common.h</text>
</g>
<!-- Node1&#45;&gt;Node2 -->
<g id="edge2" class="edge"><title>Node1&#45;&gt;Node2</title>
<path fill="none" stroke="midnightblue" d="M173.852,-58.4966C145.811,-49.0411 104.418,-35.0829 73.7545,-24.7428"/>
<polygon fill="midnightblue" stroke="midnightblue" points="74.8005,-21.4019 64.2063,-21.5231 72.5637,-28.035 74.8005,-21.4019"/>
</g>
<!-- Node3 -->
<g id="node5" class="node"><title>Node3</title>
<polygon fill="white" stroke="#bfbfbf" points="83.5,-0.5 83.5,-21.5 124.5,-21.5 124.5,-0.5 83.5,-0.5"/>
<text text-anchor="middle" x="104" y="-8.5" font-family="Helvetica,sans-Serif" font-size="10.00">glib.h</text>
</g>
<!-- Node1&#45;&gt;Node3 -->
<g id="edge4" class="edge"><title>Node1&#45;&gt;Node3</title>
<path fill="none" stroke="midnightblue" d="M186.475,-58.3619C171.099,-49.532 149.004,-36.844 131.553,-26.8224"/>
<polygon fill="midnightblue" stroke="midnightblue" points="132.822,-23.5154 122.408,-21.5707 129.336,-29.5857 132.822,-23.5154"/>
</g>
<!-- Node4 -->
<g id="node7" class="node"><title>Node4</title>
<polygon fill="white" stroke="#bfbfbf" points="142,-0.5 142,-21.5 200,-21.5 200,-0.5 142,-0.5"/>
<text text-anchor="middle" x="171" y="-8.5" font-family="Helvetica,sans-Serif" font-size="10.00">QtGlobal</text>
</g>
<!-- Node1&#45;&gt;Node4 -->
<g id="edge6" class="edge"><title>Node1&#45;&gt;Node4</title>
<path fill="none" stroke="midnightblue" d="M198.764,-58.3619C194.163,-50.5131 187.775,-39.6159 182.286,-30.2527"/>
<polygon fill="midnightblue" stroke="midnightblue" points="185.273,-28.4276 177.197,-21.5707 179.234,-31.9677 185.273,-28.4276"/>
</g>
<!-- Node5 -->
<g id="node9" class="node"><title>Node5</title>
<polygon fill="white" stroke="#bfbfbf" points="217.5,-0.5 217.5,-21.5 262.5,-21.5 262.5,-0.5 217.5,-0.5"/>
<text text-anchor="middle" x="240" y="-8.5" font-family="Helvetica,sans-Serif" font-size="10.00">QSize</text>
</g>
<!-- Node1&#45;&gt;Node5 -->
<g id="edge8" class="edge"><title>Node1&#45;&gt;Node5</title>
<path fill="none" stroke="midnightblue" d="M211.42,-58.3619C216.156,-50.5131 222.732,-39.6159 228.382,-30.2527"/>
<polygon fill="midnightblue" stroke="midnightblue" points="231.451,-31.9409 233.621,-21.5707 225.458,-28.3242 231.451,-31.9409"/>
</g>
<!-- Node6 -->
<g id="node11" class="node"><title>Node6</title>
<polygon fill="white" stroke="#bfbfbf" points="280,-0.5 280,-21.5 330,-21.5 330,-0.5 280,-0.5"/>
<text text-anchor="middle" x="305" y="-8.5" font-family="Helvetica,sans-Serif" font-size="10.00">QColor</text>
</g>
<!-- Node1&#45;&gt;Node6 -->
<g id="edge10" class="edge"><title>Node1&#45;&gt;Node6</title>
<path fill="none" stroke="midnightblue" d="M223.342,-58.3619C238.566,-49.532 260.441,-36.844 277.72,-26.8224"/>
<polygon fill="midnightblue" stroke="midnightblue" points="279.88,-29.6155 286.775,-21.5707 276.368,-23.5603 279.88,-29.6155"/>
</g>
<!-- Node7 -->
<g id="node13" class="node"><title>Node7</title>
<polygon fill="white" stroke="#bfbfbf" points="347.5,-0.5 347.5,-21.5 396.5,-21.5 396.5,-0.5 347.5,-0.5"/>
<text text-anchor="middle" x="372" y="-8.5" font-family="Helvetica,sans-Serif" font-size="10.00">QPoint</text>
</g>
<!-- Node1&#45;&gt;Node7 -->
<g id="edge12" class="edge"><title>Node1&#45;&gt;Node7</title>
<path fill="none" stroke="midnightblue" d="M235.242,-58.4966C264.123,-48.4661 307.594,-33.3687 337.741,-22.8985"/>
<polygon fill="midnightblue" stroke="midnightblue" points="339.115,-26.1263 347.413,-19.5391 336.818,-19.5137 339.115,-26.1263"/>
</g>
</g>
</svg>
