<?xml version="1.0" encoding="UTF-8" standalone="no"?>
<!DOCTYPE svg PUBLIC "-//W3C//DTD SVG 1.1//EN"
 "http://www.w3.org/Graphics/SVG/1.1/DTD/svg11.dtd">
<!-- Generated by graphviz version 2.26.3 (20100126.1600)
 -->
<!-- Title: iconcmdevents.cpp Pages: 1 -->
<svg width="1152pt" height="262pt"
 viewBox="0.00 0.00 1152.02 262.00" xmlns="http://www.w3.org/2000/svg" xmlns:xlink="http://www.w3.org/1999/xlink">
<g id="graph1" class="graph" transform="scale(1 1) rotate(0) translate(4 258)">
<title>iconcmdevents.cpp</title>
<polygon fill="white" stroke="white" points="-4,5 -4,-258 1149.02,-258 1149.02,5 -4,5"/>
<!-- Node1 -->
<g id="node1" class="node"><title>Node1</title>
<polygon fill="#bfbfbf" stroke="black" points="282.5,-232.5 282.5,-253.5 389.5,-253.5 389.5,-232.5 282.5,-232.5"/>
<text text-anchor="middle" x="336" y="-240.5" font-family="Helvetica,sans-Serif" font-size="10.00">iconcmdevents.cpp</text>
</g>
<!-- Node2 -->
<g id="node3" class="node"><title>Node2</title>
<a xlink:href="iconcmdevents_8h.htm" target="_top" xlink:title="iconcmdevents.h">
<polygon fill="white" stroke="black" points="62.5,-174.5 62.5,-195.5 157.5,-195.5 157.5,-174.5 62.5,-174.5"/>
<text text-anchor="middle" x="110" y="-182.5" font-family="Helvetica,sans-Serif" font-size="10.00">iconcmdevents.h</text>
</a>
</g>
<!-- Node1&#45;&gt;Node2 -->
<g id="edge2" class="edge"><title>Node1&#45;&gt;Node2</title>
<path fill="none" stroke="midnightblue" d="M295.073,-232.497C257.352,-222.816 201.24,-208.416 160.696,-198.01"/>
<polygon fill="midnightblue" stroke="midnightblue" points="161.56,-194.619 151.004,-195.523 159.82,-201.399 161.56,-194.619"/>
</g>
<!-- Node5 -->
<g id="node9" class="node"><title>Node5</title>
<a xlink:href="icon_8h.htm" target="_top" xlink:title="icon.h">
<polygon fill="white" stroke="black" points="541,-174.5 541,-195.5 585,-195.5 585,-174.5 541,-174.5"/>
<text text-anchor="middle" x="563" y="-182.5" font-family="Helvetica,sans-Serif" font-size="10.00">icon.h</text>
</a>
</g>
<!-- Node1&#45;&gt;Node5 -->
<g id="edge8" class="edge"><title>Node1&#45;&gt;Node5</title>
<path fill="none" stroke="midnightblue" d="M377.108,-232.497C421.3,-221.205 490.622,-203.493 530.952,-193.189"/>
<polygon fill="midnightblue" stroke="midnightblue" points="531.966,-196.542 540.789,-190.675 530.233,-189.76 531.966,-196.542"/>
</g>
<!-- Node3 -->
<g id="node5" class="node"><title>Node3</title>
<polygon fill="white" stroke="#bfbfbf" points="30,-116.5 30,-137.5 82,-137.5 82,-116.5 30,-116.5"/>
<text text-anchor="middle" x="56" y="-124.5" font-family="Helvetica,sans-Serif" font-size="10.00">QEvent</text>
</g>
<!-- Node2&#45;&gt;Node3 -->
<g id="edge4" class="edge"><title>Node2&#45;&gt;Node3</title>
<path fill="none" stroke="midnightblue" d="M100.096,-174.362C92.4836,-166.186 81.792,-154.702 72.843,-145.091"/>
<polygon fill="midnightblue" stroke="midnightblue" points="75.2175,-142.505 65.8416,-137.571 70.0942,-147.275 75.2175,-142.505"/>
</g>
<!-- Node4 -->
<g id="node7" class="node"><title>Node4</title>
<polygon fill="white" stroke="#bfbfbf" points="137.5,-0.5 137.5,-21.5 196.5,-21.5 196.5,-0.5 137.5,-0.5"/>
<text text-anchor="middle" x="167" y="-8.5" font-family="Helvetica,sans-Serif" font-size="10.00">QPointer</text>
</g>
<!-- Node2&#45;&gt;Node4 -->
<g id="edge6" class="edge"><title>Node2&#45;&gt;Node4</title>
<path fill="none" stroke="midnightblue" d="M109.746,-174.279C109.601,-151.739 111.324,-98.2052 129,-58 133.624,-47.4817 141.245,-37.3625 148.453,-29.2254"/>
<polygon fill="midnightblue" stroke="midnightblue" points="151.118,-31.5 155.397,-21.8076 146.007,-26.7162 151.118,-31.5"/>
</g>
<!-- Node5&#45;&gt;Node4 -->
<g id="edge16" class="edge"><title>Node5&#45;&gt;Node4</title>
<path fill="none" stroke="midnightblue" d="M540.75,-182.591C487.164,-176.51 352.469,-159.482 313,-138 269.925,-114.555 274.473,-89.6374 237,-58 223.55,-46.6447 207.291,-35.587 193.829,-27.0527"/>
<polygon fill="midnightblue" stroke="midnightblue" points="195.365,-23.8861 185.025,-21.5749 191.667,-29.8295 195.365,-23.8861"/>
</g>
<!-- Node6 -->
<g id="node11" class="node"><title>Node6</title>
<polygon fill="white" stroke="#bfbfbf" points="1095,-0.5 1095,-21.5 1141,-21.5 1141,-0.5 1095,-0.5"/>
<text text-anchor="middle" x="1118" y="-8.5" font-family="Helvetica,sans-Serif" font-size="10.00">QUuid</text>
</g>
<!-- Node5&#45;&gt;Node6 -->
<g id="edge10" class="edge"><title>Node5&#45;&gt;Node6</title>
<path fill="none" stroke="midnightblue" d="M585.231,-184.887C685.403,-184.154 1091.56,-178.673 1129,-138 1155.83,-108.85 1139.76,-58.3657 1127.66,-30.6389"/>
<polygon fill="midnightblue" stroke="midnightblue" points="1130.84,-29.1568 1123.48,-21.535 1124.48,-32.0826 1130.84,-29.1568"/>
</g>
<!-- Node7 -->
<g id="node13" class="node"><title>Node7</title>
<polygon fill="white" stroke="#bfbfbf" points="213.5,-0.5 213.5,-21.5 266.5,-21.5 266.5,-0.5 213.5,-0.5"/>
<text text-anchor="middle" x="240" y="-8.5" font-family="Helvetica,sans-Serif" font-size="10.00">QRectF</text>
</g>
<!-- Node5&#45;&gt;Node7 -->
<g id="edge12" class="edge"><title>Node5&#45;&gt;Node7</title>
<path fill="none" stroke="midnightblue" d="M540.64,-182.326C490.715,-176.041 371.9,-159.242 338,-138 315.876,-124.137 273.592,-62.4579 252.545,-30.4389"/>
<polygon fill="midnightblue" stroke="midnightblue" points="255.369,-28.3611 246.973,-21.8985 249.506,-32.1861 255.369,-28.3611"/>
</g>
<!-- Node8 -->
<g id="node15" class="node"><title>Node8</title>
<polygon fill="white" stroke="#bfbfbf" points="539.5,-116.5 539.5,-137.5 586.5,-137.5 586.5,-116.5 539.5,-116.5"/>
<text text-anchor="middle" x="563" y="-124.5" font-family="Helvetica,sans-Serif" font-size="10.00">QRect</text>
</g>
<!-- Node5&#45;&gt;Node8 -->
<g id="edge14" class="edge"><title>Node5&#45;&gt;Node8</title>
<path fill="none" stroke="midnightblue" d="M563,-174.362C563,-166.922 563,-156.743 563,-147.728"/>
<polygon fill="midnightblue" stroke="midnightblue" points="566.5,-147.571 563,-137.571 559.5,-147.571 566.5,-147.571"/>
</g>
<!-- Node9 -->
<g id="node18" class="node"><title>Node9</title>
<polygon fill="white" stroke="#bfbfbf" points="539.5,-0.5 539.5,-21.5 592.5,-21.5 592.5,-0.5 539.5,-0.5"/>
<text text-anchor="middle" x="566" y="-8.5" font-family="Helvetica,sans-Serif" font-size="10.00">QString</text>
</g>
<!-- Node5&#45;&gt;Node9 -->
<g id="edge18" class="edge"><title>Node5&#45;&gt;Node9</title>
<path fill="none" stroke="midnightblue" d="M540.843,-175.653C525.745,-167.967 506.934,-155.485 498,-138 481.822,-106.338 481.486,-89.4881 498,-58 505.08,-44.5003 517.991,-34.1118 530.676,-26.5768"/>
<polygon fill="midnightblue" stroke="midnightblue" points="532.694,-29.4621 539.786,-21.5907 529.333,-23.3217 532.694,-29.4621"/>
</g>
<!-- Node10 -->
<g id="node20" class="node"><title>Node10</title>
<polygon fill="white" stroke="#bfbfbf" points="604,-116.5 604,-137.5 656,-137.5 656,-116.5 604,-116.5"/>
<text text-anchor="middle" x="630" y="-124.5" font-family="Helvetica,sans-Serif" font-size="10.00">QTimer</text>
</g>
<!-- Node5&#45;&gt;Node10 -->
<g id="edge20" class="edge"><title>Node5&#45;&gt;Node10</title>
<path fill="none" stroke="midnightblue" d="M575.289,-174.362C585.017,-165.941 598.798,-154.011 610.095,-144.231"/>
<polygon fill="midnightblue" stroke="midnightblue" points="612.519,-146.762 617.789,-137.571 607.938,-141.469 612.519,-146.762"/>
</g>
<!-- Node11 -->
<g id="node22" class="node"><title>Node11</title>
<polygon fill="white" stroke="#bfbfbf" points="609.5,-0.5 609.5,-21.5 650.5,-21.5 650.5,-0.5 609.5,-0.5"/>
<text text-anchor="middle" x="630" y="-8.5" font-family="Helvetica,sans-Serif" font-size="10.00">QList</text>
</g>
<!-- Node5&#45;&gt;Node11 -->
<g id="edge22" class="edge"><title>Node5&#45;&gt;Node11</title>
<path fill="none" stroke="midnightblue" d="M552.218,-174.406C539.945,-161 522.618,-137.109 531,-116 545.988,-78.2556 581.686,-46.213 605.86,-27.784"/>
<polygon fill="midnightblue" stroke="midnightblue" points="608.227,-30.3863 614.184,-21.625 604.064,-24.759 608.227,-30.3863"/>
</g>
<!-- Node12 -->
<g id="node24" class="node"><title>Node12</title>
<polygon fill="white" stroke="#bfbfbf" points="674,-116.5 674,-137.5 720,-137.5 720,-116.5 674,-116.5"/>
<text text-anchor="middle" x="697" y="-124.5" font-family="Helvetica,sans-Serif" font-size="10.00">QFont</text>
</g>
<!-- Node5&#45;&gt;Node12 -->
<g id="edge24" class="edge"><title>Node5&#45;&gt;Node12</title>
<path fill="none" stroke="midnightblue" d="M585.127,-175.422C606.783,-166.049 640.015,-151.665 664.638,-141.008"/>
<polygon fill="midnightblue" stroke="midnightblue" points="666.154,-144.165 673.941,-136.981 663.373,-137.741 666.154,-144.165"/>
</g>
<!-- Node13 -->
<g id="node26" class="node"><title>Node13</title>
<polygon fill="white" stroke="#bfbfbf" points="737.5,-116.5 737.5,-137.5 814.5,-137.5 814.5,-116.5 737.5,-116.5"/>
<text text-anchor="middle" x="776" y="-124.5" font-family="Helvetica,sans-Serif" font-size="10.00">QTextLayout</text>
</g>
<!-- Node5&#45;&gt;Node13 -->
<g id="edge26" class="edge"><title>Node5&#45;&gt;Node13</title>
<path fill="none" stroke="midnightblue" d="M585.392,-178.903C618.956,-169.763 683.118,-152.292 727.677,-140.158"/>
<polygon fill="midnightblue" stroke="midnightblue" points="728.7,-143.507 737.429,-137.503 726.861,-136.753 728.7,-143.507"/>
</g>
<!-- Node14 -->
<g id="node28" class="node"><title>Node14</title>
<polygon fill="white" stroke="#bfbfbf" points="832,-116.5 832,-137.5 922,-137.5 922,-116.5 832,-116.5"/>
<text text-anchor="middle" x="877" y="-124.5" font-family="Helvetica,sans-Serif" font-size="10.00">QStateMachine</text>
</g>
<!-- Node5&#45;&gt;Node14 -->
<g id="edge28" class="edge"><title>Node5&#45;&gt;Node14</title>
<path fill="none" stroke="midnightblue" d="M585.29,-181.142C628.745,-173.584 728.061,-156.131 821.985,-138.167"/>
<polygon fill="midnightblue" stroke="midnightblue" points="822.772,-141.579 831.934,-136.258 821.453,-134.705 822.772,-141.579"/>
</g>
<!-- Node15 -->
<g id="node30" class="node"><title>Node15</title>
<a xlink:href="thingpaintable_8h.htm" target="_top" xlink:title="thingpaintable.h">
<polygon fill="white" stroke="black" points="346.5,-116.5 346.5,-137.5 437.5,-137.5 437.5,-116.5 346.5,-116.5"/>
<text text-anchor="middle" x="392" y="-124.5" font-family="Helvetica,sans-Serif" font-size="10.00">thingpaintable.h</text>
</a>
</g>
<!-- Node5&#45;&gt;Node15 -->
<g id="edge30" class="edge"><title>Node5&#45;&gt;Node15</title>
<path fill="none" stroke="midnightblue" d="M540.995,-177.536C513.738,-168.291 466.757,-152.356 432.828,-140.848"/>
<polygon fill="midnightblue" stroke="midnightblue" points="433.787,-137.478 423.193,-137.58 431.539,-144.107 433.787,-137.478"/>
</g>
<!-- Node20 -->
<g id="node47" class="node"><title>Node20</title>
<a xlink:href="pixmapobject_8h.htm" target="_top" xlink:title="pixmapobject.h">
<polygon fill="white" stroke="black" points="1034,-116.5 1034,-137.5 1120,-137.5 1120,-116.5 1034,-116.5"/>
<text text-anchor="middle" x="1077" y="-124.5" font-family="Helvetica,sans-Serif" font-size="10.00">pixmapobject.h</text>
</a>
</g>
<!-- Node5&#45;&gt;Node20 -->
<g id="edge54" class="edge"><title>Node5&#45;&gt;Node20</title>
<path fill="none" stroke="midnightblue" d="M585.227,-183.587C650.785,-179.241 849.172,-164.813 1023.79,-138.053"/>
<polygon fill="midnightblue" stroke="midnightblue" points="1024.59,-141.472 1033.94,-136.481 1023.52,-134.554 1024.59,-141.472"/>
</g>
<!-- Node24 -->
<g id="node56" class="node"><title>Node24</title>
<a xlink:href="icondecorator_8h.htm" target="_top" xlink:title="icondecorator.h">
<polygon fill="white" stroke="black" points="138,-58.5 138,-79.5 228,-79.5 228,-58.5 138,-58.5"/>
<text text-anchor="middle" x="183" y="-66.5" font-family="Helvetica,sans-Serif" font-size="10.00">icondecorator.h</text>
</a>
</g>
<!-- Node5&#45;&gt;Node24 -->
<g id="edge64" class="edge"><title>Node5&#45;&gt;Node24</title>
<path fill="none" stroke="midnightblue" d="M540.647,-183.761C476.612,-179.898 293.775,-166.58 242,-138 221.122,-126.475 204.313,-104.47 194.057,-88.3995"/>
<polygon fill="midnightblue" stroke="midnightblue" points="196.981,-86.4718 188.794,-79.7469 191,-90.1095 196.981,-86.4718"/>
</g>
<!-- Node27 -->
<g id="node64" class="node"><title>Node27</title>
<a xlink:href="renderopts_8h.htm" target="_top" xlink:title="renderopts.h">
<polygon fill="white" stroke="black" points="939.5,-116.5 939.5,-137.5 1016.5,-137.5 1016.5,-116.5 939.5,-116.5"/>
<text text-anchor="middle" x="978" y="-124.5" font-family="Helvetica,sans-Serif" font-size="10.00">renderopts.h</text>
</a>
</g>
<!-- Node5&#45;&gt;Node27 -->
<g id="edge74" class="edge"><title>Node5&#45;&gt;Node27</title>
<path fill="none" stroke="midnightblue" d="M585.105,-182.978C641.077,-177.688 793.076,-162.274 929.153,-138.204"/>
<polygon fill="midnightblue" stroke="midnightblue" points="930.11,-141.589 939.337,-136.381 928.877,-134.698 930.11,-141.589"/>
</g>
<!-- Node15&#45;&gt;Node7 -->
<g id="edge52" class="edge"><title>Node15&#45;&gt;Node7</title>
<path fill="none" stroke="midnightblue" d="M379.735,-116.384C363.601,-102.544 334.217,-77.7745 308,-58 293.943,-47.3975 277.742,-36.1626 264.68,-27.3365"/>
<polygon fill="midnightblue" stroke="midnightblue" points="266.457,-24.3144 256.203,-21.6484 262.557,-30.1269 266.457,-24.3144"/>
</g>
<!-- Node15&#45;&gt;Node9 -->
<g id="edge50" class="edge"><title>Node15&#45;&gt;Node9</title>
<path fill="none" stroke="midnightblue" d="M400.234,-116.429C412.12,-101.735 435.377,-75.0278 460,-58 481.44,-43.1732 508.312,-31.3205 529.634,-23.2268"/>
<polygon fill="midnightblue" stroke="midnightblue" points="531.128,-26.4064 539.304,-19.6673 528.71,-19.8374 531.128,-26.4064"/>
</g>
<!-- Node16 -->
<g id="node32" class="node"><title>Node16</title>
<a xlink:href="thing_8h.htm" target="_top" xlink:title="thing.h">
<polygon fill="white" stroke="black" points="360,-58.5 360,-79.5 408,-79.5 408,-58.5 360,-58.5"/>
<text text-anchor="middle" x="384" y="-66.5" font-family="Helvetica,sans-Serif" font-size="10.00">thing.h</text>
</a>
</g>
<!-- Node15&#45;&gt;Node16 -->
<g id="edge32" class="edge"><title>Node15&#45;&gt;Node16</title>
<path fill="none" stroke="midnightblue" d="M390.533,-116.362C389.506,-108.922 388.102,-98.7427 386.859,-89.7276"/>
<polygon fill="midnightblue" stroke="midnightblue" points="390.292,-88.9986 385.458,-79.5707 383.357,-89.9551 390.292,-88.9986"/>
</g>
<!-- Node16&#45;&gt;Node4 -->
<g id="edge38" class="edge"><title>Node16&#45;&gt;Node4</title>
<path fill="none" stroke="midnightblue" d="M359.918,-62.8806C327.247,-54.5347 266.829,-38.946 206.524,-22.383"/>
<polygon fill="midnightblue" stroke="midnightblue" points="207.421,-18.9999 196.851,-19.7174 205.562,-25.7483 207.421,-18.9999"/>
</g>
<!-- Node16&#45;&gt;Node6 -->
<g id="edge36" class="edge"><title>Node16&#45;&gt;Node6</title>
<path fill="none" stroke="midnightblue" d="M408.004,-67.1032C516.277,-58.5476 959.34,-23.5372 1084.77,-13.6258"/>
<polygon fill="midnightblue" stroke="midnightblue" points="1085.22,-17.1013 1094.91,-12.8244 1084.67,-10.1231 1085.22,-17.1013"/>
</g>
<!-- Node16&#45;&gt;Node7 -->
<g id="edge44" class="edge"><title>Node16&#45;&gt;Node7</title>
<path fill="none" stroke="midnightblue" d="M359.898,-59.2921C336.895,-50.0272 301.956,-35.9545 275.719,-25.3867"/>
<polygon fill="midnightblue" stroke="midnightblue" points="276.716,-22.015 266.132,-21.5254 274.1,-28.5081 276.716,-22.015"/>
</g>
<!-- Node16&#45;&gt;Node9 -->
<g id="edge40" class="edge"><title>Node16&#45;&gt;Node9</title>
<path fill="none" stroke="midnightblue" d="M408.168,-61.298C439.28,-51.3834 493.618,-34.0667 529.705,-22.5665"/>
<polygon fill="midnightblue" stroke="midnightblue" points="530.9,-25.8592 539.365,-19.488 528.774,-19.1897 530.9,-25.8592"/>
</g>
<!-- Node16&#45;&gt;Node11 -->
<g id="edge42" class="edge"><title>Node16&#45;&gt;Node11</title>
<path fill="none" stroke="midnightblue" d="M408.056,-65.0024C446.669,-58.3283 524.959,-43.7398 599.241,-22.245"/>
<polygon fill="midnightblue" stroke="midnightblue" points="600.613,-25.4896 609.218,-19.3081 598.637,-18.7744 600.613,-25.4896"/>
</g>
<!-- Node17 -->
<g id="node34" class="node"><title>Node17</title>
<polygon fill="white" stroke="#bfbfbf" points="352,-0.5 352,-21.5 450,-21.5 450,-0.5 352,-0.5"/>
<text text-anchor="middle" x="401" y="-8.5" font-family="Helvetica,sans-Serif" font-size="10.00">QGraphicsObject</text>
</g>
<!-- Node16&#45;&gt;Node17 -->
<g id="edge34" class="edge"><title>Node16&#45;&gt;Node17</title>
<path fill="none" stroke="midnightblue" d="M387.118,-58.3619C389.323,-50.8401 392.348,-40.5187 395.012,-31.4308"/>
<polygon fill="midnightblue" stroke="midnightblue" points="398.448,-32.1514 397.902,-21.5707 391.73,-30.1825 398.448,-32.1514"/>
</g>
<!-- Node18 -->
<g id="node41" class="node"><title>Node18</title>
<polygon fill="white" stroke="#bfbfbf" points="467.5,-0.5 467.5,-21.5 522.5,-21.5 522.5,-0.5 467.5,-0.5"/>
<text text-anchor="middle" x="495" y="-8.5" font-family="Helvetica,sans-Serif" font-size="10.00">QDebug</text>
</g>
<!-- Node16&#45;&gt;Node18 -->
<g id="edge46" class="edge"><title>Node16&#45;&gt;Node18</title>
<path fill="none" stroke="midnightblue" d="M404.101,-58.4966C421.282,-49.5194 446.23,-36.4835 465.645,-26.3387"/>
<polygon fill="midnightblue" stroke="midnightblue" points="467.431,-29.3544 474.673,-21.6212 464.189,-23.1503 467.431,-29.3544"/>
</g>
<!-- Node19 -->
<g id="node43" class="node"><title>Node19</title>
<polygon fill="white" stroke="#bfbfbf" points="284,-0.5 284,-21.5 334,-21.5 334,-0.5 284,-0.5"/>
<text text-anchor="middle" x="309" y="-8.5" font-family="Helvetica,sans-Serif" font-size="10.00">QHash</text>
</g>
<!-- Node16&#45;&gt;Node19 -->
<g id="edge48" class="edge"><title>Node16&#45;&gt;Node19</title>
<path fill="none" stroke="midnightblue" d="M370.244,-58.3619C359.249,-49.859 343.627,-37.7785 330.914,-27.9466"/>
<polygon fill="midnightblue" stroke="midnightblue" points="332.721,-24.9195 322.669,-21.5707 328.438,-30.4569 332.721,-24.9195"/>
</g>
<!-- Node20&#45;&gt;Node6 -->
<g id="edge60" class="edge"><title>Node20&#45;&gt;Node6</title>
<path fill="none" stroke="midnightblue" d="M1082.6,-116.394C1087.39,-107.009 1094.26,-92.8487 1099,-80 1104.83,-64.1781 1109.82,-45.7391 1113.22,-31.9047"/>
<polygon fill="midnightblue" stroke="midnightblue" points="1116.68,-32.4736 1115.59,-21.935 1109.87,-30.8535 1116.68,-32.4736"/>
</g>
<!-- Node21 -->
<g id="node49" class="node"><title>Node21</title>
<polygon fill="white" stroke="#bfbfbf" points="897.5,-58.5 897.5,-79.5 952.5,-79.5 952.5,-58.5 897.5,-58.5"/>
<text text-anchor="middle" x="925" y="-66.5" font-family="Helvetica,sans-Serif" font-size="10.00">QObject</text>
</g>
<!-- Node20&#45;&gt;Node21 -->
<g id="edge56" class="edge"><title>Node20&#45;&gt;Node21</title>
<path fill="none" stroke="midnightblue" d="M1049.47,-116.497C1025.02,-107.164 989.062,-93.4447 962.076,-83.1475"/>
<polygon fill="midnightblue" stroke="midnightblue" points="963.168,-79.8182 952.578,-79.5231 960.673,-86.3582 963.168,-79.8182"/>
</g>
<!-- Node22 -->
<g id="node51" class="node"><title>Node22</title>
<polygon fill="white" stroke="#bfbfbf" points="969.5,-58.5 969.5,-79.5 1028.5,-79.5 1028.5,-58.5 969.5,-58.5"/>
<text text-anchor="middle" x="999" y="-66.5" font-family="Helvetica,sans-Serif" font-size="10.00">QPixmap</text>
</g>
<!-- Node20&#45;&gt;Node22 -->
<g id="edge58" class="edge"><title>Node20&#45;&gt;Node22</title>
<path fill="none" stroke="midnightblue" d="M1062.69,-116.362C1051.15,-107.777 1034.7,-95.5459 1021.41,-85.6636"/>
<polygon fill="midnightblue" stroke="midnightblue" points="1023.33,-82.7291 1013.22,-79.5707 1019.15,-88.3463 1023.33,-82.7291"/>
</g>
<!-- Node23 -->
<g id="node54" class="node"><title>Node23</title>
<polygon fill="white" stroke="#bfbfbf" points="1045.5,-58.5 1045.5,-79.5 1090.5,-79.5 1090.5,-58.5 1045.5,-58.5"/>
<text text-anchor="middle" x="1068" y="-66.5" font-family="Helvetica,sans-Serif" font-size="10.00">QSize</text>
</g>
<!-- Node20&#45;&gt;Node23 -->
<g id="edge62" class="edge"><title>Node20&#45;&gt;Node23</title>
<path fill="none" stroke="midnightblue" d="M1075.35,-116.362C1074.19,-108.922 1072.62,-98.7427 1071.22,-89.7276"/>
<polygon fill="midnightblue" stroke="midnightblue" points="1074.63,-88.9157 1069.64,-79.5707 1067.72,-89.9891 1074.63,-88.9157"/>
</g>
<!-- Node24&#45;&gt;Node4 -->
<g id="edge66" class="edge"><title>Node24&#45;&gt;Node4</title>
<path fill="none" stroke="midnightblue" d="M180.065,-58.3619C177.99,-50.8401 175.143,-40.5187 172.636,-31.4308"/>
<polygon fill="midnightblue" stroke="midnightblue" points="175.949,-30.2798 169.916,-21.5707 169.201,-32.1414 175.949,-30.2798"/>
</g>
<!-- Node24&#45;&gt;Node7 -->
<g id="edge68" class="edge"><title>Node24&#45;&gt;Node7</title>
<path fill="none" stroke="midnightblue" d="M193.455,-58.3619C201.57,-50.1043 213.001,-38.4725 222.504,-28.8029"/>
<polygon fill="midnightblue" stroke="midnightblue" points="225.099,-31.1562 229.612,-21.5707 220.106,-26.2497 225.099,-31.1562"/>
</g>
<!-- Node25 -->
<g id="node60" class="node"><title>Node25</title>
<polygon fill="white" stroke="#bfbfbf" points="-0.5,-0.5 -0.5,-21.5 54.5,-21.5 54.5,-0.5 -0.5,-0.5"/>
<text text-anchor="middle" x="27" y="-8.5" font-family="Helvetica,sans-Serif" font-size="10.00">QPointF</text>
</g>
<!-- Node24&#45;&gt;Node25 -->
<g id="edge70" class="edge"><title>Node24&#45;&gt;Node25</title>
<path fill="none" stroke="midnightblue" d="M154.75,-58.4966C129.302,-49.0353 91.7291,-35.0659 63.9128,-24.724"/>
<polygon fill="midnightblue" stroke="midnightblue" points="65.1094,-21.4349 54.5166,-21.2305 62.67,-27.9961 65.1094,-21.4349"/>
</g>
<!-- Node26 -->
<g id="node62" class="node"><title>Node26</title>
<polygon fill="white" stroke="#bfbfbf" points="71.5,-0.5 71.5,-21.5 120.5,-21.5 120.5,-0.5 71.5,-0.5"/>
<text text-anchor="middle" x="96" y="-8.5" font-family="Helvetica,sans-Serif" font-size="10.00">QPoint</text>
</g>
<!-- Node24&#45;&gt;Node26 -->
<g id="edge72" class="edge"><title>Node24&#45;&gt;Node26</title>
<path fill="none" stroke="midnightblue" d="M167.043,-58.3619C154.043,-49.6955 135.469,-37.3126 120.573,-27.3819"/>
<polygon fill="midnightblue" stroke="midnightblue" points="122.118,-24.2055 111.856,-21.5707 118.235,-30.0299 122.118,-24.2055"/>
</g>
</g>
</svg>
