<?xml version="1.0" encoding="UTF-8" standalone="no"?>
<!DOCTYPE svg PUBLIC "-//W3C//DTD SVG 1.1//EN"
 "http://www.w3.org/Graphics/SVG/1.1/DTD/svg11.dtd">
<!-- Generated by graphviz version 2.26.3 (20100126.1600)
 -->
<!-- Title: iconheap.h Pages: 1 -->
<svg width="1014pt" height="88pt"
 viewBox="0.00 0.00 1014.00 88.00" xmlns="http://www.w3.org/2000/svg" xmlns:xlink="http://www.w3.org/1999/xlink">
<g id="graph1" class="graph" transform="scale(1 1) rotate(0) translate(4 84)">
<title>iconheap.h</title>
<polygon fill="white" stroke="white" points="-4,5 -4,-84 1011,-84 1011,5 -4,5"/>
<!-- Node1 -->
<g id="node1" class="node"><title>Node1</title>
<polygon fill="#bfbfbf" stroke="black" points="451,-58.5 451,-79.5 519,-79.5 519,-58.5 451,-58.5"/>
<text text-anchor="middle" x="485" y="-66.5" font-family="Helvetica,sans-Serif" font-size="10.00">iconheap.h</text>
</g>
<!-- Node2 -->
<g id="node3" class="node"><title>Node2</title>
<a xlink:href="dimensionslauncher_8cpp.htm" target="_top" xlink:title="dimensionslauncher.cpp">
<polygon fill="white" stroke="black" points="0,-0.5 0,-21.5 130,-21.5 130,-0.5 0,-0.5"/>
<text text-anchor="middle" x="65" y="-8.5" font-family="Helvetica,sans-Serif" font-size="10.00">dimensionslauncher.cpp</text>
</a>
</g>
<!-- Node1&#45;&gt;Node2 -->
<g id="edge2" class="edge"><title>Node1&#45;&gt;Node2</title>
<path fill="none" stroke="midnightblue" d="M440.572,-63.1464C374.697,-54.4261 247.242,-37.396 139,-22 136.171,-21.5976 133.282,-21.1831 130.364,-20.7617"/>
<polygon fill="midnightblue" stroke="midnightblue" points="440.231,-66.6317 450.603,-64.4731 441.149,-59.6921 440.231,-66.6317"/>
</g>
<!-- Node3 -->
<g id="node5" class="node"><title>Node3</title>
<a xlink:href="quicklaunchbar_8cpp.htm" target="_top" xlink:title="quicklaunchbar.cpp">
<polygon fill="white" stroke="black" points="148,-0.5 148,-21.5 254,-21.5 254,-0.5 148,-0.5"/>
<text text-anchor="middle" x="201" y="-8.5" font-family="Helvetica,sans-Serif" font-size="10.00">quicklaunchbar.cpp</text>
</a>
</g>
<!-- Node1&#45;&gt;Node3 -->
<g id="edge4" class="edge"><title>Node1&#45;&gt;Node3</title>
<path fill="none" stroke="midnightblue" d="M440.696,-59.9521C389.745,-49.5465 306.224,-32.4894 252.442,-21.5059"/>
<polygon fill="midnightblue" stroke="midnightblue" points="440.245,-63.432 450.743,-62.0038 441.646,-56.5736 440.245,-63.432"/>
</g>
<!-- Node4 -->
<g id="node7" class="node"><title>Node4</title>
<a xlink:href="iconheap_8cpp.htm" target="_top" xlink:title="iconheap.cpp">
<polygon fill="white" stroke="black" points="272,-0.5 272,-21.5 352,-21.5 352,-0.5 272,-0.5"/>
<text text-anchor="middle" x="312" y="-8.5" font-family="Helvetica,sans-Serif" font-size="10.00">iconheap.cpp</text>
</a>
</g>
<!-- Node1&#45;&gt;Node4 -->
<g id="edge6" class="edge"><title>Node1&#45;&gt;Node4</title>
<path fill="none" stroke="midnightblue" d="M444.073,-55.2787C413.246,-44.9437 371.61,-30.9849 343.388,-21.5231"/>
<polygon fill="midnightblue" stroke="midnightblue" points="443.077,-58.6363 453.671,-58.4966 445.302,-51.9994 443.077,-58.6363"/>
</g>
<!-- Node5 -->
<g id="node9" class="node"><title>Node5</title>
<a xlink:href="alphabetpage_8cpp.htm" target="_top" xlink:title="alphabetpage.cpp">
<polygon fill="white" stroke="black" points="369.5,-0.5 369.5,-21.5 470.5,-21.5 470.5,-0.5 369.5,-0.5"/>
<text text-anchor="middle" x="420" y="-8.5" font-family="Helvetica,sans-Serif" font-size="10.00">alphabetpage.cpp</text>
</a>
</g>
<!-- Node1&#45;&gt;Node5 -->
<g id="edge8" class="edge"><title>Node1&#45;&gt;Node5</title>
<path fill="none" stroke="midnightblue" d="M465.602,-51.6908C454.629,-41.8996 441.263,-29.973 431.846,-21.5707"/>
<polygon fill="midnightblue" stroke="midnightblue" points="463.286,-54.3155 473.078,-58.3619 467.947,-49.0925 463.286,-54.3155"/>
</g>
<!-- Node6 -->
<g id="node11" class="node"><title>Node6</title>
<a xlink:href="alphabeticonlayout_8cpp.htm" target="_top" xlink:title="alphabeticonlayout.cpp">
<polygon fill="white" stroke="black" points="488,-0.5 488,-21.5 612,-21.5 612,-0.5 488,-0.5"/>
<text text-anchor="middle" x="550" y="-8.5" font-family="Helvetica,sans-Serif" font-size="10.00">alphabeticonlayout.cpp</text>
</a>
</g>
<!-- Node1&#45;&gt;Node6 -->
<g id="edge10" class="edge"><title>Node1&#45;&gt;Node6</title>
<path fill="none" stroke="midnightblue" d="M504.398,-51.6908C515.371,-41.8996 528.737,-29.973 538.154,-21.5707"/>
<polygon fill="midnightblue" stroke="midnightblue" points="502.053,-49.0925 496.922,-58.3619 506.714,-54.3155 502.053,-49.0925"/>
</g>
<!-- Node7 -->
<g id="node13" class="node"><title>Node7</title>
<a xlink:href="reorderableiconlayout_8cpp.htm" target="_top" xlink:title="reorderableiconlayout.cpp">
<polygon fill="white" stroke="black" points="630,-0.5 630,-21.5 768,-21.5 768,-0.5 630,-0.5"/>
<text text-anchor="middle" x="699" y="-8.5" font-family="Helvetica,sans-Serif" font-size="10.00">reorderableiconlayout.cpp</text>
</a>
</g>
<!-- Node1&#45;&gt;Node7 -->
<g id="edge12" class="edge"><title>Node1&#45;&gt;Node7</title>
<path fill="none" stroke="midnightblue" d="M529.284,-56.9977C567.81,-46.5561 623.101,-31.5708 659.988,-21.5733"/>
<polygon fill="midnightblue" stroke="midnightblue" points="528.119,-53.6872 519.383,-59.6813 529.95,-60.4434 528.119,-53.6872"/>
</g>
<!-- Node8 -->
<g id="node15" class="node"><title>Node8</title>
<a xlink:href="reorderablepage_8cpp.htm" target="_top" xlink:title="reorderablepage.cpp">
<polygon fill="white" stroke="black" points="785.5,-0.5 785.5,-21.5 900.5,-21.5 900.5,-0.5 785.5,-0.5"/>
<text text-anchor="middle" x="843" y="-8.5" font-family="Helvetica,sans-Serif" font-size="10.00">reorderablepage.cpp</text>
</a>
</g>
<!-- Node1&#45;&gt;Node8 -->
<g id="edge14" class="edge"><title>Node1&#45;&gt;Node8</title>
<path fill="none" stroke="midnightblue" d="M529.318,-61.9451C586.547,-52.8171 689.227,-36.3782 777,-22 779.751,-21.5493 782.567,-21.0864 785.41,-20.6177"/>
<polygon fill="midnightblue" stroke="midnightblue" points="528.499,-58.5314 519.175,-63.5623 529.602,-65.4441 528.499,-58.5314"/>
</g>
<!-- Node9 -->
<g id="node17" class="node"><title>Node9</title>
<a xlink:href="appmonitor_8cpp.htm" target="_top" xlink:title="appmonitor.cpp">
<polygon fill="white" stroke="black" points="917.5,-0.5 917.5,-21.5 1006.5,-21.5 1006.5,-0.5 917.5,-0.5"/>
<text text-anchor="middle" x="962" y="-8.5" font-family="Helvetica,sans-Serif" font-size="10.00">appmonitor.cpp</text>
</a>
</g>
<!-- Node1&#45;&gt;Node9 -->
<g id="edge16" class="edge"><title>Node1&#45;&gt;Node9</title>
<path fill="none" stroke="midnightblue" d="M529.562,-65.4521C607.018,-58.9751 771.377,-43.8594 909,-22 911.692,-21.5725 914.453,-21.1007 917.235,-20.6001"/>
<polygon fill="midnightblue" stroke="midnightblue" points="528.898,-61.995 519.221,-66.3085 529.476,-68.9711 528.898,-61.995"/>
</g>
</g>
</svg>
