<?xml version="1.0" encoding="UTF-8" standalone="no"?>
<!DOCTYPE svg PUBLIC "-//W3C//DTD SVG 1.1//EN"
 "http://www.w3.org/Graphics/SVG/1.1/DTD/svg11.dtd">
<!-- Generated by graphviz version 2.26.3 (20100126.1600)
 -->
<!-- Title: iconcmdevents.h Pages: 1 -->
<svg width="336pt" height="88pt"
 viewBox="0.00 0.00 336.00 88.00" xmlns="http://www.w3.org/2000/svg" xmlns:xlink="http://www.w3.org/1999/xlink">
<g id="graph1" class="graph" transform="scale(1 1) rotate(0) translate(4 84)">
<title>iconcmdevents.h</title>
<polygon fill="white" stroke="white" points="-4,5 -4,-84 333,-84 333,5 -4,5"/>
<!-- Node1 -->
<g id="node1" class="node"><title>Node1</title>
<polygon fill="#bfbfbf" stroke="black" points="128.5,-58.5 128.5,-79.5 223.5,-79.5 223.5,-58.5 128.5,-58.5"/>
<text text-anchor="middle" x="176" y="-66.5" font-family="Helvetica,sans-Serif" font-size="10.00">iconcmdevents.h</text>
</g>
<!-- Node2 -->
<g id="node3" class="node"><title>Node2</title>
<a xlink:href="dimensionslauncher_8cpp.htm" target="_top" xlink:title="dimensionslauncher.cpp">
<polygon fill="white" stroke="black" points="0,-0.5 0,-21.5 130,-21.5 130,-0.5 0,-0.5"/>
<text text-anchor="middle" x="65" y="-8.5" font-family="Helvetica,sans-Serif" font-size="10.00">dimensionslauncher.cpp</text>
</a>
</g>
<!-- Node1&#45;&gt;Node2 -->
<g id="edge2" class="edge"><title>Node1&#45;&gt;Node2</title>
<path fill="none" stroke="midnightblue" d="M146.899,-53.794C127.532,-43.6746 102.575,-30.6338 85.3268,-21.6212"/>
<polygon fill="midnightblue" stroke="midnightblue" points="145.415,-56.9675 155.899,-58.4966 148.657,-50.7634 145.415,-56.9675"/>
</g>
<!-- Node3 -->
<g id="node5" class="node"><title>Node3</title>
<a xlink:href="icon_8cpp.htm" target="_top" xlink:title="icon.cpp">
<polygon fill="white" stroke="black" points="148,-0.5 148,-21.5 204,-21.5 204,-0.5 148,-0.5"/>
<text text-anchor="middle" x="176" y="-8.5" font-family="Helvetica,sans-Serif" font-size="10.00">icon.cpp</text>
</a>
</g>
<!-- Node1&#45;&gt;Node3 -->
<g id="edge4" class="edge"><title>Node1&#45;&gt;Node3</title>
<path fill="none" stroke="midnightblue" d="M176,-48.1906C176,-39.1684 176,-28.9941 176,-21.5707"/>
<polygon fill="midnightblue" stroke="midnightblue" points="172.5,-48.3619 176,-58.3619 179.5,-48.3619 172.5,-48.3619"/>
</g>
<!-- Node4 -->
<g id="node7" class="node"><title>Node4</title>
<a xlink:href="iconcmdevents_8cpp.htm" target="_top" xlink:title="iconcmdevents.cpp">
<polygon fill="white" stroke="black" points="221.5,-0.5 221.5,-21.5 328.5,-21.5 328.5,-0.5 221.5,-0.5"/>
<text text-anchor="middle" x="275" y="-8.5" font-family="Helvetica,sans-Serif" font-size="10.00">iconcmdevents.cpp</text>
</a>
</g>
<!-- Node1&#45;&gt;Node4 -->
<g id="edge6" class="edge"><title>Node1&#45;&gt;Node4</title>
<path fill="none" stroke="midnightblue" d="M203.138,-53.1009C220.267,-43.0658 241.919,-30.3808 256.957,-21.5707"/>
<polygon fill="midnightblue" stroke="midnightblue" points="201.017,-50.287 194.158,-58.3619 204.556,-56.3268 201.017,-50.287"/>
</g>
</g>
</svg>
