<?xml version="1.0" encoding="UTF-8" standalone="no"?>
<!DOCTYPE svg PUBLIC "-//W3C//DTD SVG 1.1//EN"
 "http://www.w3.org/Graphics/SVG/1.1/DTD/svg11.dtd">
<!-- Generated by graphviz version 2.26.3 (20100126.1600)
 -->
<!-- Title: iconheap.h Pages: 1 -->
<svg width="456pt" height="88pt"
 viewBox="0.00 0.00 456.00 88.00" xmlns="http://www.w3.org/2000/svg" xmlns:xlink="http://www.w3.org/1999/xlink">
<g id="graph1" class="graph" transform="scale(1 1) rotate(0) translate(4 84)">
<title>iconheap.h</title>
<polygon fill="white" stroke="white" points="-4,5 -4,-84 453,-84 453,5 -4,5"/>
<!-- Node1 -->
<g id="node1" class="node"><title>Node1</title>
<polygon fill="#bfbfbf" stroke="black" points="195,-58.5 195,-79.5 263,-79.5 263,-58.5 195,-58.5"/>
<text text-anchor="middle" x="229" y="-66.5" font-family="Helvetica,sans-Serif" font-size="10.00">iconheap.h</text>
</g>
<!-- Node2 -->
<g id="node3" class="node"><title>Node2</title>
<polygon fill="white" stroke="#bfbfbf" points="-0.5,-0.5 -0.5,-21.5 54.5,-21.5 54.5,-0.5 -0.5,-0.5"/>
<text text-anchor="middle" x="27" y="-8.5" font-family="Helvetica,sans-Serif" font-size="10.00">QObject</text>
</g>
<!-- Node1&#45;&gt;Node2 -->
<g id="edge2" class="edge"><title>Node1&#45;&gt;Node2</title>
<path fill="none" stroke="midnightblue" d="M194.923,-59.5732C163.359,-50.7925 114.864,-37.1786 64.6227,-22.4458"/>
<polygon fill="midnightblue" stroke="midnightblue" points="65.4722,-19.0475 54.8909,-19.5843 63.4974,-25.7632 65.4722,-19.0475"/>
</g>
<!-- Node3 -->
<g id="node5" class="node"><title>Node3</title>
<polygon fill="white" stroke="#bfbfbf" points="72,-0.5 72,-21.5 118,-21.5 118,-0.5 72,-0.5"/>
<text text-anchor="middle" x="95" y="-8.5" font-family="Helvetica,sans-Serif" font-size="10.00">QUuid</text>
</g>
<!-- Node1&#45;&gt;Node3 -->
<g id="edge4" class="edge"><title>Node1&#45;&gt;Node3</title>
<path fill="none" stroke="midnightblue" d="M204.734,-58.4966C183.124,-49.1432 151.335,-35.3839 127.528,-25.0791"/>
<polygon fill="midnightblue" stroke="midnightblue" points="128.757,-21.7974 118.189,-21.0371 125.976,-28.2215 128.757,-21.7974"/>
</g>
<!-- Node4 -->
<g id="node7" class="node"><title>Node4</title>
<polygon fill="white" stroke="#bfbfbf" points="135.5,-0.5 135.5,-21.5 188.5,-21.5 188.5,-0.5 135.5,-0.5"/>
<text text-anchor="middle" x="162" y="-8.5" font-family="Helvetica,sans-Serif" font-size="10.00">QString</text>
</g>
<!-- Node1&#45;&gt;Node4 -->
<g id="edge6" class="edge"><title>Node1&#45;&gt;Node4</title>
<path fill="none" stroke="midnightblue" d="M216.711,-58.3619C206.983,-49.9408 193.202,-38.0105 181.905,-28.2308"/>
<polygon fill="midnightblue" stroke="midnightblue" points="184.062,-25.4695 174.211,-21.5707 179.481,-30.7619 184.062,-25.4695"/>
</g>
<!-- Node5 -->
<g id="node9" class="node"><title>Node5</title>
<polygon fill="white" stroke="#bfbfbf" points="206,-0.5 206,-21.5 252,-21.5 252,-0.5 206,-0.5"/>
<text text-anchor="middle" x="229" y="-8.5" font-family="Helvetica,sans-Serif" font-size="10.00">QMap</text>
</g>
<!-- Node1&#45;&gt;Node5 -->
<g id="edge8" class="edge"><title>Node1&#45;&gt;Node5</title>
<path fill="none" stroke="midnightblue" d="M229,-58.3619C229,-50.9219 229,-40.7427 229,-31.7276"/>
<polygon fill="midnightblue" stroke="midnightblue" points="232.5,-31.5706 229,-21.5707 225.5,-31.5707 232.5,-31.5706"/>
</g>
<!-- Node6 -->
<g id="node11" class="node"><title>Node6</title>
<polygon fill="white" stroke="#bfbfbf" points="269.5,-0.5 269.5,-21.5 328.5,-21.5 328.5,-0.5 269.5,-0.5"/>
<text text-anchor="middle" x="299" y="-8.5" font-family="Helvetica,sans-Serif" font-size="10.00">QPointer</text>
</g>
<!-- Node1&#45;&gt;Node6 -->
<g id="edge10" class="edge"><title>Node1&#45;&gt;Node6</title>
<path fill="none" stroke="midnightblue" d="M241.839,-58.3619C252.002,-49.9408 266.401,-38.0105 278.204,-28.2308"/>
<polygon fill="midnightblue" stroke="midnightblue" points="280.775,-30.6459 286.242,-21.5707 276.309,-25.2558 280.775,-30.6459"/>
</g>
<!-- Node7 -->
<g id="node13" class="node"><title>Node7</title>
<polygon fill="white" stroke="#bfbfbf" points="345.5,-0.5 345.5,-21.5 386.5,-21.5 386.5,-0.5 345.5,-0.5"/>
<text text-anchor="middle" x="366" y="-8.5" font-family="Helvetica,sans-Serif" font-size="10.00">QList</text>
</g>
<!-- Node1&#45;&gt;Node7 -->
<g id="edge12" class="edge"><title>Node1&#45;&gt;Node7</title>
<path fill="none" stroke="midnightblue" d="M253.81,-58.4966C276.954,-48.6982 311.52,-34.0646 336.161,-23.6325"/>
<polygon fill="midnightblue" stroke="midnightblue" points="337.555,-26.8432 345.399,-19.7214 334.826,-20.397 337.555,-26.8432"/>
</g>
<!-- Node8 -->
<g id="node15" class="node"><title>Node8</title>
<polygon fill="white" stroke="#bfbfbf" points="403.5,-0.5 403.5,-21.5 448.5,-21.5 448.5,-0.5 403.5,-0.5"/>
<text text-anchor="middle" x="426" y="-8.5" font-family="Helvetica,sans-Serif" font-size="10.00">QSize</text>
</g>
<!-- Node1&#45;&gt;Node8 -->
<g id="edge14" class="edge"><title>Node1&#45;&gt;Node8</title>
<path fill="none" stroke="midnightblue" d="M263.211,-60.0121C294.87,-51.5407 343.436,-38.1576 393.646,-22.3144"/>
<polygon fill="midnightblue" stroke="midnightblue" points="394.902,-25.5878 403.371,-19.2212 392.78,-18.9172 394.902,-25.5878"/>
</g>
</g>
</svg>
