<?xml version="1.0" encoding="UTF-8" standalone="no"?>
<!DOCTYPE svg PUBLIC "-//W3C//DTD SVG 1.1//EN"
 "http://www.w3.org/Graphics/SVG/1.1/DTD/svg11.dtd">
<!-- Generated by graphviz version 2.26.3 (20100126.1600)
 -->
<!-- Title: icon.h Pages: 1 -->
<svg width="1049pt" height="204pt"
 viewBox="0.00 0.00 1049.00 204.00" xmlns="http://www.w3.org/2000/svg" xmlns:xlink="http://www.w3.org/1999/xlink">
<g id="graph1" class="graph" transform="scale(1 1) rotate(0) translate(4 200)">
<title>icon.h</title>
<polygon fill="white" stroke="white" points="-4,5 -4,-200 1046,-200 1046,5 -4,5"/>
<!-- Node1 -->
<g id="node1" class="node"><title>Node1</title>
<polygon fill="#bfbfbf" stroke="black" points="496,-174.5 496,-195.5 540,-195.5 540,-174.5 496,-174.5"/>
<text text-anchor="middle" x="518" y="-182.5" font-family="Helvetica,sans-Serif" font-size="10.00">icon.h</text>
</g>
<!-- Node2 -->
<g id="node3" class="node"><title>Node2</title>
<polygon fill="white" stroke="#bfbfbf" points="70,-0.5 70,-21.5 116,-21.5 116,-0.5 70,-0.5"/>
<text text-anchor="middle" x="93" y="-8.5" font-family="Helvetica,sans-Serif" font-size="10.00">QUuid</text>
</g>
<!-- Node1&#45;&gt;Node2 -->
<g id="edge2" class="edge"><title>Node1&#45;&gt;Node2</title>
<path fill="none" stroke="midnightblue" d="M495.911,-183.805C417.12,-179.349 153.054,-162.679 125,-138 94.556,-111.218 90.9984,-60.1223 91.6422,-31.5824"/>
<polygon fill="midnightblue" stroke="midnightblue" points="95.142,-31.6579 92.0676,-21.519 88.1483,-31.3622 95.142,-31.6579"/>
</g>
<!-- Node3 -->
<g id="node5" class="node"><title>Node3</title>
<polygon fill="white" stroke="#bfbfbf" points="447.5,-0.5 447.5,-21.5 500.5,-21.5 500.5,-0.5 447.5,-0.5"/>
<text text-anchor="middle" x="474" y="-8.5" font-family="Helvetica,sans-Serif" font-size="10.00">QRectF</text>
</g>
<!-- Node1&#45;&gt;Node3 -->
<g id="edge4" class="edge"><title>Node1&#45;&gt;Node3</title>
<path fill="none" stroke="midnightblue" d="M495.964,-182.961C465.641,-179.094 410.853,-168.164 376,-138 354.208,-119.14 353.622,-108.049 347,-80 344.754,-70.4838 341.413,-66.0246 347,-58 349.747,-54.0539 400.861,-35.953 437.393,-23.4028"/>
<polygon fill="midnightblue" stroke="midnightblue" points="438.931,-26.5761 447.259,-20.0266 436.664,-19.9532 438.931,-26.5761"/>
</g>
<!-- Node4 -->
<g id="node7" class="node"><title>Node4</title>
<polygon fill="white" stroke="#bfbfbf" points="564.5,-116.5 564.5,-137.5 611.5,-137.5 611.5,-116.5 564.5,-116.5"/>
<text text-anchor="middle" x="588" y="-124.5" font-family="Helvetica,sans-Serif" font-size="10.00">QRect</text>
</g>
<!-- Node1&#45;&gt;Node4 -->
<g id="edge6" class="edge"><title>Node1&#45;&gt;Node4</title>
<path fill="none" stroke="midnightblue" d="M530.839,-174.362C541.002,-165.941 555.401,-154.011 567.204,-144.231"/>
<polygon fill="midnightblue" stroke="midnightblue" points="569.775,-146.646 575.242,-137.571 565.309,-141.256 569.775,-146.646"/>
</g>
<!-- Node5 -->
<g id="node9" class="node"><title>Node5</title>
<polygon fill="white" stroke="#bfbfbf" points="655.5,-0.5 655.5,-21.5 714.5,-21.5 714.5,-0.5 655.5,-0.5"/>
<text text-anchor="middle" x="685" y="-8.5" font-family="Helvetica,sans-Serif" font-size="10.00">QPointer</text>
</g>
<!-- Node1&#45;&gt;Node5 -->
<g id="edge8" class="edge"><title>Node1&#45;&gt;Node5</title>
<path fill="none" stroke="midnightblue" d="M521.135,-174.273C526.094,-159.144 537.17,-131.642 556,-116 595.244,-83.3994 629.596,-116.734 665,-80 677.467,-67.0649 682.236,-46.8418 684.023,-31.627"/>
<polygon fill="midnightblue" stroke="midnightblue" points="687.515,-31.8671 684.865,-21.6092 680.54,-31.281 687.515,-31.8671"/>
</g>
<!-- Node6 -->
<g id="node11" class="node"><title>Node6</title>
<polygon fill="white" stroke="#bfbfbf" points="-0.5,-0.5 -0.5,-21.5 52.5,-21.5 52.5,-0.5 -0.5,-0.5"/>
<text text-anchor="middle" x="26" y="-8.5" font-family="Helvetica,sans-Serif" font-size="10.00">QString</text>
</g>
<!-- Node1&#45;&gt;Node6 -->
<g id="edge10" class="edge"><title>Node1&#45;&gt;Node6</title>
<path fill="none" stroke="midnightblue" d="M495.878,-183.608C414.993,-178.367 138.28,-159.042 105,-138 65.5155,-113.035 42.5114,-60.4371 32.3245,-31.3745"/>
<polygon fill="midnightblue" stroke="midnightblue" points="35.6252,-30.2084 29.1445,-21.8268 28.9839,-32.4204 35.6252,-30.2084"/>
</g>
<!-- Node7 -->
<g id="node13" class="node"><title>Node7</title>
<polygon fill="white" stroke="#bfbfbf" points="629,-116.5 629,-137.5 681,-137.5 681,-116.5 629,-116.5"/>
<text text-anchor="middle" x="655" y="-124.5" font-family="Helvetica,sans-Serif" font-size="10.00">QTimer</text>
</g>
<!-- Node1&#45;&gt;Node7 -->
<g id="edge12" class="edge"><title>Node1&#45;&gt;Node7</title>
<path fill="none" stroke="midnightblue" d="M540.011,-175.681C561.742,-166.481 595.291,-152.278 620.553,-141.583"/>
<polygon fill="midnightblue" stroke="midnightblue" points="621.943,-144.796 629.787,-137.674 619.214,-138.35 621.943,-144.796"/>
</g>
<!-- Node8 -->
<g id="node15" class="node"><title>Node8</title>
<polygon fill="white" stroke="#bfbfbf" points="389.5,-0.5 389.5,-21.5 430.5,-21.5 430.5,-0.5 389.5,-0.5"/>
<text text-anchor="middle" x="410" y="-8.5" font-family="Helvetica,sans-Serif" font-size="10.00">QList</text>
</g>
<!-- Node1&#45;&gt;Node8 -->
<g id="edge14" class="edge"><title>Node1&#45;&gt;Node8</title>
<path fill="none" stroke="midnightblue" d="M495.932,-181.524C455.714,-174.75 372.804,-158.626 353,-138 328,-111.963 321.916,-89.7971 339,-58 347.749,-41.7165 364.891,-30.1267 380.14,-22.5305"/>
<polygon fill="midnightblue" stroke="midnightblue" points="381.68,-25.6744 389.297,-18.3105 378.75,-19.317 381.68,-25.6744"/>
</g>
<!-- Node9 -->
<g id="node17" class="node"><title>Node9</title>
<polygon fill="white" stroke="#bfbfbf" points="699,-116.5 699,-137.5 745,-137.5 745,-116.5 699,-116.5"/>
<text text-anchor="middle" x="722" y="-124.5" font-family="Helvetica,sans-Serif" font-size="10.00">QFont</text>
</g>
<!-- Node1&#45;&gt;Node9 -->
<g id="edge16" class="edge"><title>Node1&#45;&gt;Node9</title>
<path fill="none" stroke="midnightblue" d="M540.123,-179.441C571.263,-171.512 629.979,-156.184 689.111,-138.146"/>
<polygon fill="midnightblue" stroke="midnightblue" points="690.457,-141.394 698.986,-135.109 688.399,-134.703 690.457,-141.394"/>
</g>
<!-- Node10 -->
<g id="node19" class="node"><title>Node10</title>
<polygon fill="white" stroke="#bfbfbf" points="762.5,-116.5 762.5,-137.5 839.5,-137.5 839.5,-116.5 762.5,-116.5"/>
<text text-anchor="middle" x="801" y="-124.5" font-family="Helvetica,sans-Serif" font-size="10.00">QTextLayout</text>
</g>
<!-- Node1&#45;&gt;Node10 -->
<g id="edge18" class="edge"><title>Node1&#45;&gt;Node10</title>
<path fill="none" stroke="midnightblue" d="M540.176,-180.839C580.458,-173.226 668.554,-156.328 752.363,-138.311"/>
<polygon fill="midnightblue" stroke="midnightblue" points="753.259,-141.699 762.294,-136.166 751.781,-134.856 753.259,-141.699"/>
</g>
<!-- Node11 -->
<g id="node21" class="node"><title>Node11</title>
<polygon fill="white" stroke="#bfbfbf" points="857,-116.5 857,-137.5 947,-137.5 947,-116.5 857,-116.5"/>
<text text-anchor="middle" x="902" y="-124.5" font-family="Helvetica,sans-Serif" font-size="10.00">QStateMachine</text>
</g>
<!-- Node1&#45;&gt;Node11 -->
<g id="edge20" class="edge"><title>Node1&#45;&gt;Node11</title>
<path fill="none" stroke="midnightblue" d="M540.084,-182.316C591.851,-175.926 725.242,-158.896 847.085,-138.083"/>
<polygon fill="midnightblue" stroke="midnightblue" points="847.695,-141.53 856.957,-136.384 846.508,-134.631 847.695,-141.53"/>
</g>
<!-- Node12 -->
<g id="node23" class="node"><title>Node12</title>
<a xlink:href="thingpaintable_8h.htm" target="_top" xlink:title="thingpaintable.h">
<polygon fill="white" stroke="black" points="133.5,-116.5 133.5,-137.5 224.5,-137.5 224.5,-116.5 133.5,-116.5"/>
<text text-anchor="middle" x="179" y="-124.5" font-family="Helvetica,sans-Serif" font-size="10.00">thingpaintable.h</text>
</a>
</g>
<!-- Node1&#45;&gt;Node12 -->
<g id="edge22" class="edge"><title>Node1&#45;&gt;Node12</title>
<path fill="none" stroke="midnightblue" d="M495.835,-181.419C448.463,-173.734 333.858,-154.98 238,-138 236.923,-137.809 235.835,-137.616 234.738,-137.42"/>
<polygon fill="midnightblue" stroke="midnightblue" points="235.187,-133.944 224.723,-135.609 233.941,-140.832 235.187,-133.944"/>
</g>
<!-- Node17 -->
<g id="node40" class="node"><title>Node17</title>
<a xlink:href="pixmapobject_8h.htm" target="_top" xlink:title="pixmapobject.h">
<polygon fill="white" stroke="black" points="385,-116.5 385,-137.5 471,-137.5 471,-116.5 385,-116.5"/>
<text text-anchor="middle" x="428" y="-124.5" font-family="Helvetica,sans-Serif" font-size="10.00">pixmapobject.h</text>
</a>
</g>
<!-- Node1&#45;&gt;Node17 -->
<g id="edge46" class="edge"><title>Node1&#45;&gt;Node17</title>
<path fill="none" stroke="midnightblue" d="M501.493,-174.362C487.918,-165.614 468.467,-153.079 452.985,-143.101"/>
<polygon fill="midnightblue" stroke="midnightblue" points="454.704,-140.046 444.403,-137.571 450.912,-145.93 454.704,-140.046"/>
</g>
<!-- Node21 -->
<g id="node49" class="node"><title>Node21</title>
<a xlink:href="icondecorator_8h.htm" target="_top" xlink:title="icondecorator.h">
<polygon fill="white" stroke="black" points="566,-58.5 566,-79.5 656,-79.5 656,-58.5 566,-58.5"/>
<text text-anchor="middle" x="611" y="-66.5" font-family="Helvetica,sans-Serif" font-size="10.00">icondecorator.h</text>
</a>
</g>
<!-- Node1&#45;&gt;Node21 -->
<g id="edge56" class="edge"><title>Node1&#45;&gt;Node21</title>
<path fill="none" stroke="midnightblue" d="M515.785,-174.189C513.437,-159.691 511.481,-133.724 523,-116 532.535,-101.327 548.251,-90.9157 563.783,-83.687"/>
<polygon fill="midnightblue" stroke="midnightblue" points="565.553,-86.7365 573.373,-79.5878 562.802,-80.2998 565.553,-86.7365"/>
</g>
<!-- Node24 -->
<g id="node57" class="node"><title>Node24</title>
<a xlink:href="renderopts_8h.htm" target="_top" xlink:title="renderopts.h">
<polygon fill="white" stroke="black" points="964.5,-116.5 964.5,-137.5 1041.5,-137.5 1041.5,-116.5 964.5,-116.5"/>
<text text-anchor="middle" x="1003" y="-124.5" font-family="Helvetica,sans-Serif" font-size="10.00">renderopts.h</text>
</a>
</g>
<!-- Node1&#45;&gt;Node24 -->
<g id="edge66" class="edge"><title>Node1&#45;&gt;Node24</title>
<path fill="none" stroke="midnightblue" d="M540.007,-183.6C603.044,-179.389 789.793,-165.504 954.061,-138.178"/>
<polygon fill="midnightblue" stroke="midnightblue" points="955.069,-141.557 964.348,-136.444 953.905,-134.655 955.069,-141.557"/>
</g>
<!-- Node12&#45;&gt;Node3 -->
<g id="edge44" class="edge"><title>Node12&#45;&gt;Node3</title>
<path fill="none" stroke="midnightblue" d="M196.826,-116.484C222.182,-101.855 270.429,-75.224 314,-58 364.93,-37.867 381.861,-38.53 437.587,-22.3413"/>
<polygon fill="midnightblue" stroke="midnightblue" points="438.673,-25.6702 447.267,-19.4745 436.685,-18.9583 438.673,-25.6702"/>
</g>
<!-- Node12&#45;&gt;Node6 -->
<g id="edge42" class="edge"><title>Node12&#45;&gt;Node6</title>
<path fill="none" stroke="midnightblue" d="M164.88,-116.295C138.238,-96.0955 80.3622,-52.2158 48.3739,-27.9632"/>
<polygon fill="midnightblue" stroke="midnightblue" points="50.1687,-24.9318 40.0855,-21.6792 45.9396,-30.5099 50.1687,-24.9318"/>
</g>
<!-- Node13 -->
<g id="node25" class="node"><title>Node13</title>
<a xlink:href="thing_8h.htm" target="_top" xlink:title="thing.h">
<polygon fill="white" stroke="black" points="176,-58.5 176,-79.5 224,-79.5 224,-58.5 176,-58.5"/>
<text text-anchor="middle" x="200" y="-66.5" font-family="Helvetica,sans-Serif" font-size="10.00">thing.h</text>
</a>
</g>
<!-- Node12&#45;&gt;Node13 -->
<g id="edge24" class="edge"><title>Node12&#45;&gt;Node13</title>
<path fill="none" stroke="midnightblue" d="M182.852,-116.362C185.605,-108.758 189.394,-98.294 192.71,-89.1349"/>
<polygon fill="midnightblue" stroke="midnightblue" points="196.059,-90.1649 196.173,-79.5707 189.477,-87.7818 196.059,-90.1649"/>
</g>
<!-- Node13&#45;&gt;Node2 -->
<g id="edge28" class="edge"><title>Node13&#45;&gt;Node2</title>
<path fill="none" stroke="midnightblue" d="M180.375,-58.3619C163.859,-49.4094 140.026,-36.4908 121.422,-26.4064"/>
<polygon fill="midnightblue" stroke="midnightblue" points="122.96,-23.2592 112.501,-21.5707 119.625,-29.4132 122.96,-23.2592"/>
</g>
<!-- Node13&#45;&gt;Node3 -->
<g id="edge36" class="edge"><title>Node13&#45;&gt;Node3</title>
<path fill="none" stroke="midnightblue" d="M224.283,-65.1364C266.042,-58.2979 354.282,-42.9995 437.479,-22.2092"/>
<polygon fill="midnightblue" stroke="midnightblue" points="438.499,-25.5614 447.334,-19.714 436.781,-18.7755 438.499,-25.5614"/>
</g>
<!-- Node13&#45;&gt;Node5 -->
<g id="edge30" class="edge"><title>Node13&#45;&gt;Node5</title>
<path fill="none" stroke="midnightblue" d="M224.108,-67.0326C301.986,-60.5911 547.029,-39.6317 645.375,-22.009"/>
<polygon fill="midnightblue" stroke="midnightblue" points="646.071,-25.4396 655.251,-20.1513 644.777,-18.5602 646.071,-25.4396"/>
</g>
<!-- Node13&#45;&gt;Node6 -->
<g id="edge32" class="edge"><title>Node13&#45;&gt;Node6</title>
<path fill="none" stroke="midnightblue" d="M175.806,-60.9353C146.314,-51.1048 96.2056,-34.4019 62.1362,-23.0454"/>
<polygon fill="midnightblue" stroke="midnightblue" points="63.1448,-19.6923 52.5511,-19.8504 60.9311,-26.3331 63.1448,-19.6923"/>
</g>
<!-- Node13&#45;&gt;Node8 -->
<g id="edge34" class="edge"><title>Node13&#45;&gt;Node8</title>
<path fill="none" stroke="midnightblue" d="M224.087,-61.8892C228.697,-60.5674 233.492,-59.2196 238,-58 298.299,-41.6878 316.763,-41.622 379.59,-22.2288"/>
<polygon fill="midnightblue" stroke="midnightblue" points="380.694,-25.5508 389.192,-19.2231 378.603,-18.8705 380.694,-25.5508"/>
</g>
<!-- Node14 -->
<g id="node27" class="node"><title>Node14</title>
<polygon fill="white" stroke="#bfbfbf" points="274,-0.5 274,-21.5 372,-21.5 372,-0.5 274,-0.5"/>
<text text-anchor="middle" x="323" y="-8.5" font-family="Helvetica,sans-Serif" font-size="10.00">QGraphicsObject</text>
</g>
<!-- Node13&#45;&gt;Node14 -->
<g id="edge26" class="edge"><title>Node13&#45;&gt;Node14</title>
<path fill="none" stroke="midnightblue" d="M222.274,-58.4966C241.572,-49.397 269.713,-36.1273 291.348,-25.9253"/>
<polygon fill="midnightblue" stroke="midnightblue" points="292.924,-29.052 300.476,-21.6212 289.938,-22.7206 292.924,-29.052"/>
</g>
<!-- Node15 -->
<g id="node34" class="node"><title>Node15</title>
<polygon fill="white" stroke="#bfbfbf" points="133.5,-0.5 133.5,-21.5 188.5,-21.5 188.5,-0.5 133.5,-0.5"/>
<text text-anchor="middle" x="161" y="-8.5" font-family="Helvetica,sans-Serif" font-size="10.00">QDebug</text>
</g>
<!-- Node13&#45;&gt;Node15 -->
<g id="edge38" class="edge"><title>Node13&#45;&gt;Node15</title>
<path fill="none" stroke="midnightblue" d="M192.847,-58.3619C187.514,-50.4313 180.089,-39.3885 173.749,-29.9606"/>
<polygon fill="midnightblue" stroke="midnightblue" points="176.592,-27.9161 168.108,-21.5707 170.783,-31.8221 176.592,-27.9161"/>
</g>
<!-- Node16 -->
<g id="node36" class="node"><title>Node16</title>
<polygon fill="white" stroke="#bfbfbf" points="206,-0.5 206,-21.5 256,-21.5 256,-0.5 206,-0.5"/>
<text text-anchor="middle" x="231" y="-8.5" font-family="Helvetica,sans-Serif" font-size="10.00">QHash</text>
</g>
<!-- Node13&#45;&gt;Node16 -->
<g id="edge40" class="edge"><title>Node13&#45;&gt;Node16</title>
<path fill="none" stroke="midnightblue" d="M205.686,-58.3619C209.837,-50.5949 215.584,-39.8426 220.553,-30.5458"/>
<polygon fill="midnightblue" stroke="midnightblue" points="223.723,-32.0398 225.35,-21.5707 217.55,-28.7401 223.723,-32.0398"/>
</g>
<!-- Node17&#45;&gt;Node2 -->
<g id="edge52" class="edge"><title>Node17&#45;&gt;Node2</title>
<path fill="none" stroke="midnightblue" d="M384.837,-122.223C320.895,-114.646 204.513,-98.7877 167,-80 143.014,-67.9872 121.311,-45.7513 107.703,-29.7647"/>
<polygon fill="midnightblue" stroke="midnightblue" points="110.068,-27.1307 101.013,-21.6308 104.662,-31.5774 110.068,-27.1307"/>
</g>
<!-- Node18 -->
<g id="node42" class="node"><title>Node18</title>
<polygon fill="white" stroke="#bfbfbf" points="355.5,-58.5 355.5,-79.5 410.5,-79.5 410.5,-58.5 355.5,-58.5"/>
<text text-anchor="middle" x="383" y="-66.5" font-family="Helvetica,sans-Serif" font-size="10.00">QObject</text>
</g>
<!-- Node17&#45;&gt;Node18 -->
<g id="edge48" class="edge"><title>Node17&#45;&gt;Node18</title>
<path fill="none" stroke="midnightblue" d="M419.746,-116.362C413.53,-108.35 404.849,-97.1605 397.485,-87.6696"/>
<polygon fill="midnightblue" stroke="midnightblue" points="400.097,-85.326 391.201,-79.5707 394.566,-89.617 400.097,-85.326"/>
</g>
<!-- Node19 -->
<g id="node44" class="node"><title>Node19</title>
<polygon fill="white" stroke="#bfbfbf" points="427.5,-58.5 427.5,-79.5 486.5,-79.5 486.5,-58.5 427.5,-58.5"/>
<text text-anchor="middle" x="457" y="-66.5" font-family="Helvetica,sans-Serif" font-size="10.00">QPixmap</text>
</g>
<!-- Node17&#45;&gt;Node19 -->
<g id="edge50" class="edge"><title>Node17&#45;&gt;Node19</title>
<path fill="none" stroke="midnightblue" d="M433.319,-116.362C437.203,-108.595 442.579,-97.8426 447.227,-88.5458"/>
<polygon fill="midnightblue" stroke="midnightblue" points="450.373,-90.0802 451.715,-79.5707 444.112,-86.9497 450.373,-90.0802"/>
</g>
<!-- Node20 -->
<g id="node47" class="node"><title>Node20</title>
<polygon fill="white" stroke="#bfbfbf" points="503.5,-58.5 503.5,-79.5 548.5,-79.5 548.5,-58.5 503.5,-58.5"/>
<text text-anchor="middle" x="526" y="-66.5" font-family="Helvetica,sans-Serif" font-size="10.00">QSize</text>
</g>
<!-- Node17&#45;&gt;Node20 -->
<g id="edge54" class="edge"><title>Node17&#45;&gt;Node20</title>
<path fill="none" stroke="midnightblue" d="M445.975,-116.362C460.894,-107.532 482.333,-94.844 499.266,-84.8224"/>
<polygon fill="midnightblue" stroke="midnightblue" points="501.316,-87.6759 508.139,-79.5707 497.751,-81.6519 501.316,-87.6759"/>
</g>
<!-- Node21&#45;&gt;Node3 -->
<g id="edge60" class="edge"><title>Node21&#45;&gt;Node3</title>
<path fill="none" stroke="midnightblue" d="M586.19,-58.4966C564.504,-49.3154 532.789,-35.8889 508.608,-25.6516"/>
<polygon fill="midnightblue" stroke="midnightblue" points="509.661,-22.2968 499.088,-21.6212 506.932,-28.7429 509.661,-22.2968"/>
</g>
<!-- Node21&#45;&gt;Node5 -->
<g id="edge58" class="edge"><title>Node21&#45;&gt;Node5</title>
<path fill="none" stroke="midnightblue" d="M624.573,-58.3619C635.421,-49.859 650.834,-37.7785 663.379,-27.9466"/>
<polygon fill="midnightblue" stroke="midnightblue" points="665.802,-30.4942 671.513,-21.5707 661.484,-24.9848 665.802,-30.4942"/>
</g>
<!-- Node22 -->
<g id="node53" class="node"><title>Node22</title>
<polygon fill="white" stroke="#bfbfbf" points="583.5,-0.5 583.5,-21.5 638.5,-21.5 638.5,-0.5 583.5,-0.5"/>
<text text-anchor="middle" x="611" y="-8.5" font-family="Helvetica,sans-Serif" font-size="10.00">QPointF</text>
</g>
<!-- Node21&#45;&gt;Node22 -->
<g id="edge62" class="edge"><title>Node21&#45;&gt;Node22</title>
<path fill="none" stroke="midnightblue" d="M611,-58.3619C611,-50.9219 611,-40.7427 611,-31.7276"/>
<polygon fill="midnightblue" stroke="midnightblue" points="614.5,-31.5706 611,-21.5707 607.5,-31.5707 614.5,-31.5706"/>
</g>
<!-- Node23 -->
<g id="node55" class="node"><title>Node23</title>
<polygon fill="white" stroke="#bfbfbf" points="517.5,-0.5 517.5,-21.5 566.5,-21.5 566.5,-0.5 517.5,-0.5"/>
<text text-anchor="middle" x="542" y="-8.5" font-family="Helvetica,sans-Serif" font-size="10.00">QPoint</text>
</g>
<!-- Node21&#45;&gt;Node23 -->
<g id="edge64" class="edge"><title>Node21&#45;&gt;Node23</title>
<path fill="none" stroke="midnightblue" d="M598.344,-58.3619C588.326,-49.9408 574.133,-38.0105 562.499,-28.2308"/>
<polygon fill="midnightblue" stroke="midnightblue" points="564.482,-25.326 554.575,-21.5707 559.978,-30.6844 564.482,-25.326"/>
</g>
</g>
</svg>
