<?xml version="1.0" encoding="UTF-8" standalone="no"?>
<!DOCTYPE svg PUBLIC "-//W3C//DTD SVG 1.1//EN"
 "http://www.w3.org/Graphics/SVG/1.1/DTD/svg11.dtd">
<!-- Generated by graphviz version 2.26.3 (20100126.1600)
 -->
<!-- Title: IMEController.h Pages: 1 -->
<svg width="1890pt" height="88pt"
 viewBox="0.00 0.00 1890.00 88.00" xmlns="http://www.w3.org/2000/svg" xmlns:xlink="http://www.w3.org/1999/xlink">
<g id="graph1" class="graph" transform="scale(1 1) rotate(0) translate(4 84)">
<title>IMEController.h</title>
<polygon fill="white" stroke="white" points="-4,5 -4,-84 1887,-84 1887,5 -4,5"/>
<!-- Node1 -->
<g id="node1" class="node"><title>Node1</title>
<polygon fill="#bfbfbf" stroke="black" points="785,-58.5 785,-79.5 875,-79.5 875,-58.5 785,-58.5"/>
<text text-anchor="middle" x="830" y="-66.5" font-family="Helvetica,sans-Serif" font-size="10.00">IMEController.h</text>
</g>
<!-- Node2 -->
<g id="node3" class="node"><title>Node2</title>
<a xlink:href="DisplayManager_8cpp.htm" target="_top" xlink:title="DisplayManager.cpp">
<polygon fill="white" stroke="black" points="-0.5,-0.5 -0.5,-21.5 112.5,-21.5 112.5,-0.5 -0.5,-0.5"/>
<text text-anchor="middle" x="56" y="-8.5" font-family="Helvetica,sans-Serif" font-size="10.00">DisplayManager.cpp</text>
</a>
</g>
<!-- Node1&#45;&gt;Node2 -->
<g id="edge2" class="edge"><title>Node1&#45;&gt;Node2</title>
<path fill="none" stroke="midnightblue" d="M774.63,-67.2419C654.99,-63.0238 363.561,-50.4897 121,-22 118.272,-21.6796 115.484,-21.3226 112.672,-20.9386"/>
<polygon fill="midnightblue" stroke="midnightblue" points="774.532,-70.7405 784.648,-67.5897 774.775,-63.7447 774.532,-70.7405"/>
</g>
<!-- Node3 -->
<g id="node5" class="node"><title>Node3</title>
<a xlink:href="HostWindow_8cpp.htm" target="_top" xlink:title="HostWindow.cpp">
<polygon fill="white" stroke="black" points="129.5,-0.5 129.5,-21.5 224.5,-21.5 224.5,-0.5 129.5,-0.5"/>
<text text-anchor="middle" x="177" y="-8.5" font-family="Helvetica,sans-Serif" font-size="10.00">HostWindow.cpp</text>
</a>
</g>
<!-- Node1&#45;&gt;Node3 -->
<g id="edge4" class="edge"><title>Node1&#45;&gt;Node3</title>
<path fill="none" stroke="midnightblue" d="M774.769,-66.7838C669.144,-62.0741 431.37,-49.1988 233,-22 230.251,-21.6231 227.434,-21.1971 224.596,-20.7372"/>
<polygon fill="midnightblue" stroke="midnightblue" points="774.731,-70.2854 784.875,-67.2273 775.038,-63.2921 774.731,-70.2854"/>
</g>
<!-- Node4 -->
<g id="node7" class="node"><title>Node4</title>
<a xlink:href="SystemService_8cpp.htm" target="_top" xlink:title="SystemService.cpp">
<polygon fill="white" stroke="black" points="242,-0.5 242,-21.5 348,-21.5 348,-0.5 242,-0.5"/>
<text text-anchor="middle" x="295" y="-8.5" font-family="Helvetica,sans-Serif" font-size="10.00">SystemService.cpp</text>
</a>
</g>
<!-- Node1&#45;&gt;Node4 -->
<g id="edge6" class="edge"><title>Node1&#45;&gt;Node4</title>
<path fill="none" stroke="midnightblue" d="M774.792,-64.8935C686.36,-58.0058 507.581,-42.8082 357,-22 354.076,-21.596 351.079,-21.1548 348.058,-20.6888"/>
<polygon fill="midnightblue" stroke="midnightblue" points="774.624,-68.3908 784.864,-65.6723 775.164,-61.4117 774.624,-68.3908"/>
</g>
<!-- Node5 -->
<g id="node9" class="node"><title>Node5</title>
<a xlink:href="SystemUiController_8cpp.htm" target="_top" xlink:title="SystemUiController.cpp">
<polygon fill="white" stroke="black" points="365.5,-0.5 365.5,-21.5 492.5,-21.5 492.5,-0.5 365.5,-0.5"/>
<text text-anchor="middle" x="429" y="-8.5" font-family="Helvetica,sans-Serif" font-size="10.00">SystemUiController.cpp</text>
</a>
</g>
<!-- Node1&#45;&gt;Node5 -->
<g id="edge8" class="edge"><title>Node1&#45;&gt;Node5</title>
<path fill="none" stroke="midnightblue" d="M774.659,-61.2613C709.26,-52.0774 597.168,-36.215 501,-22 498.248,-21.5932 495.437,-21.1751 492.598,-20.7506"/>
<polygon fill="midnightblue" stroke="midnightblue" points="774.356,-64.7529 784.745,-62.6766 775.328,-57.8208 774.356,-64.7529"/>
</g>
<!-- Node6 -->
<g id="node11" class="node"><title>Node6</title>
<a xlink:href="IMEController_8cpp.htm" target="_top" xlink:title="IMEController.cpp">
<polygon fill="white" stroke="black" points="509.5,-0.5 509.5,-21.5 610.5,-21.5 610.5,-0.5 509.5,-0.5"/>
<text text-anchor="middle" x="560" y="-8.5" font-family="Helvetica,sans-Serif" font-size="10.00">IMEController.cpp</text>
</a>
</g>
<!-- Node1&#45;&gt;Node6 -->
<g id="edge10" class="edge"><title>Node1&#45;&gt;Node6</title>
<path fill="none" stroke="midnightblue" d="M774.758,-57.1332C726.047,-46.6694 655.739,-31.5662 608.998,-21.5254"/>
<polygon fill="midnightblue" stroke="midnightblue" points="774.296,-60.6137 784.808,-59.2921 775.766,-53.7699 774.296,-60.6137"/>
</g>
<!-- Node7 -->
<g id="node13" class="node"><title>Node7</title>
<a xlink:href="IMEView_8cpp.htm" target="_top" xlink:title="IMEView.cpp">
<polygon fill="white" stroke="black" points="627.5,-0.5 627.5,-21.5 704.5,-21.5 704.5,-0.5 627.5,-0.5"/>
<text text-anchor="middle" x="666" y="-8.5" font-family="Helvetica,sans-Serif" font-size="10.00">IMEView.cpp</text>
</a>
</g>
<!-- Node1&#45;&gt;Node7 -->
<g id="edge12" class="edge"><title>Node1&#45;&gt;Node7</title>
<path fill="none" stroke="midnightblue" d="M790.822,-55.1443C761.637,-44.8229 722.393,-30.9439 695.755,-21.5231"/>
<polygon fill="midnightblue" stroke="midnightblue" points="789.706,-58.4621 800.301,-58.4966 792.04,-51.8626 789.706,-58.4621"/>
</g>
<!-- Node8 -->
<g id="node15" class="node"><title>Node8</title>
<a xlink:href="InputClient_8cpp.htm" target="_top" xlink:title="InputClient.cpp">
<polygon fill="white" stroke="black" points="722,-0.5 722,-21.5 808,-21.5 808,-0.5 722,-0.5"/>
<text text-anchor="middle" x="765" y="-8.5" font-family="Helvetica,sans-Serif" font-size="10.00">InputClient.cpp</text>
</a>
</g>
<!-- Node1&#45;&gt;Node8 -->
<g id="edge14" class="edge"><title>Node1&#45;&gt;Node8</title>
<path fill="none" stroke="midnightblue" d="M810.602,-51.6908C799.629,-41.8996 786.263,-29.973 776.846,-21.5707"/>
<polygon fill="midnightblue" stroke="midnightblue" points="808.286,-54.3155 818.078,-58.3619 812.947,-49.0925 808.286,-54.3155"/>
</g>
<!-- Node9 -->
<g id="node17" class="node"><title>Node9</title>
<a xlink:href="InputWindowManager_8cpp.htm" target="_top" xlink:title="InputWindowManager.cpp">
<polygon fill="white" stroke="black" points="826,-0.5 826,-21.5 966,-21.5 966,-0.5 826,-0.5"/>
<text text-anchor="middle" x="896" y="-8.5" font-family="Helvetica,sans-Serif" font-size="10.00">InputWindowManager.cpp</text>
</a>
</g>
<!-- Node1&#45;&gt;Node9 -->
<g id="edge16" class="edge"><title>Node1&#45;&gt;Node9</title>
<path fill="none" stroke="midnightblue" d="M849.697,-51.6908C860.838,-41.8996 874.41,-29.973 883.971,-21.5707"/>
<polygon fill="midnightblue" stroke="midnightblue" points="847.307,-49.1316 842.105,-58.3619 851.928,-54.3898 847.307,-49.1316"/>
</g>
<!-- Node10 -->
<g id="node19" class="node"><title>Node10</title>
<a xlink:href="SysmgrIMEDataInterface_8cpp.htm" target="_top" xlink:title="SysmgrIMEDataInterface.cpp">
<polygon fill="white" stroke="black" points="983.5,-0.5 983.5,-21.5 1138.5,-21.5 1138.5,-0.5 983.5,-0.5"/>
<text text-anchor="middle" x="1061" y="-8.5" font-family="Helvetica,sans-Serif" font-size="10.00">SysmgrIMEDataInterface.cpp</text>
</a>
</g>
<!-- Node1&#45;&gt;Node10 -->
<g id="edge18" class="edge"><title>Node1&#45;&gt;Node10</title>
<path fill="none" stroke="midnightblue" d="M881.733,-56.0107C923.153,-45.6109 980.508,-31.2102 1019.09,-21.5231"/>
<polygon fill="midnightblue" stroke="midnightblue" points="880.679,-52.6667 871.832,-58.4966 882.384,-59.456 880.679,-52.6667"/>
</g>
<!-- Node11 -->
<g id="node21" class="node"><title>Node11</title>
<a xlink:href="CardWindow_8cpp.htm" target="_top" xlink:title="CardWindow.cpp">
<polygon fill="white" stroke="black" points="1155.5,-0.5 1155.5,-21.5 1252.5,-21.5 1252.5,-0.5 1155.5,-0.5"/>
<text text-anchor="middle" x="1204" y="-8.5" font-family="Helvetica,sans-Serif" font-size="10.00">CardWindow.cpp</text>
</a>
</g>
<!-- Node1&#45;&gt;Node11 -->
<g id="edge20" class="edge"><title>Node1&#45;&gt;Node11</title>
<path fill="none" stroke="midnightblue" d="M885.412,-61.5275C948.776,-52.8103 1055.56,-37.5936 1147,-22 1149.68,-21.5425 1152.43,-21.0592 1155.21,-20.5606"/>
<polygon fill="midnightblue" stroke="midnightblue" points="884.676,-58.0957 875.244,-62.9219 885.627,-65.0308 884.676,-58.0957"/>
</g>
<!-- Node12 -->
<g id="node23" class="node"><title>Node12</title>
<a xlink:href="CardWindowManager_8cpp.htm" target="_top" xlink:title="CardWindowManager.cpp">
<polygon fill="white" stroke="black" points="1270,-0.5 1270,-21.5 1410,-21.5 1410,-0.5 1270,-0.5"/>
<text text-anchor="middle" x="1340" y="-8.5" font-family="Helvetica,sans-Serif" font-size="10.00">CardWindowManager.cpp</text>
</a>
</g>
<!-- Node1&#45;&gt;Node12 -->
<g id="edge22" class="edge"><title>Node1&#45;&gt;Node12</title>
<path fill="none" stroke="midnightblue" d="M885.131,-63.5178C967.157,-55.2413 1126.15,-38.7371 1261,-22 1263.89,-21.6418 1266.83,-21.2684 1269.8,-20.8846"/>
<polygon fill="midnightblue" stroke="midnightblue" points="884.636,-60.0499 875.037,-64.534 885.337,-67.0147 884.636,-60.0499"/>
</g>
<!-- Node13 -->
<g id="node25" class="node"><title>Node13</title>
<a xlink:href="EmergencyWindowManager_8cpp.htm" target="_top" xlink:title="EmergencyWindowManager.cpp">
<polygon fill="white" stroke="black" points="1428,-0.5 1428,-21.5 1598,-21.5 1598,-0.5 1428,-0.5"/>
<text text-anchor="middle" x="1513" y="-8.5" font-family="Helvetica,sans-Serif" font-size="10.00">EmergencyWindowManager.cpp</text>
</a>
</g>
<!-- Node1&#45;&gt;Node13 -->
<g id="edge24" class="edge"><title>Node1&#45;&gt;Node13</title>
<path fill="none" stroke="midnightblue" d="M885.111,-65.2833C989.431,-58.0968 1222.88,-41.293 1419,-22 1421.94,-21.7104 1424.94,-21.4072 1427.96,-21.0937"/>
<polygon fill="midnightblue" stroke="midnightblue" points="884.862,-61.7921 875.125,-65.969 885.342,-68.7756 884.862,-61.7921"/>
</g>
<!-- Node14 -->
<g id="node27" class="node"><title>Node14</title>
<a xlink:href="OverlayWindowManager_8cpp.htm" target="_top" xlink:title="OverlayWindowManager.cpp">
<polygon fill="white" stroke="black" points="1615.5,-0.5 1615.5,-21.5 1768.5,-21.5 1768.5,-0.5 1615.5,-0.5"/>
<text text-anchor="middle" x="1692" y="-8.5" font-family="Helvetica,sans-Serif" font-size="10.00">OverlayWindowManager.cpp</text>
</a>
</g>
<!-- Node1&#45;&gt;Node14 -->
<g id="edge26" class="edge"><title>Node1&#45;&gt;Node14</title>
<path fill="none" stroke="midnightblue" d="M885.478,-66.9462C1013.06,-61.9384 1337.1,-47.5969 1607,-22 1609.67,-21.7471 1612.38,-21.4754 1615.12,-21.1888"/>
<polygon fill="midnightblue" stroke="midnightblue" points="885.046,-63.4603 875.189,-67.3465 885.318,-70.455 885.046,-63.4603"/>
</g>
<!-- Node15 -->
<g id="node29" class="node"><title>Node15</title>
<a xlink:href="LockWindow_8cpp.htm" target="_top" xlink:title="LockWindow.cpp">
<polygon fill="white" stroke="black" points="1786,-0.5 1786,-21.5 1882,-21.5 1882,-0.5 1786,-0.5"/>
<text text-anchor="middle" x="1834" y="-8.5" font-family="Helvetica,sans-Serif" font-size="10.00">LockWindow.cpp</text>
</a>
</g>
<!-- Node1&#45;&gt;Node15 -->
<g id="edge28" class="edge"><title>Node1&#45;&gt;Node15</title>
<path fill="none" stroke="midnightblue" d="M885.218,-67.2847C1060.42,-61.6807 1602.55,-43.0559 1777,-22 1779.9,-21.6498 1782.88,-21.2377 1785.87,-20.7824"/>
<polygon fill="midnightblue" stroke="midnightblue" points="885.073,-63.7875 875.19,-67.6041 885.296,-70.7839 885.073,-63.7875"/>
</g>
</g>
</svg>
