<?xml version="1.0" encoding="UTF-8" standalone="no"?>
<!DOCTYPE svg PUBLIC "-//W3C//DTD SVG 1.1//EN"
 "http://www.w3.org/Graphics/SVG/1.1/DTD/svg11.dtd">
<!-- Generated by graphviz version 2.26.3 (20100126.1600)
 -->
<!-- Title: IMEController.cpp Pages: 1 -->
<svg width="2226pt" height="262pt"
 viewBox="0.00 0.00 2226.00 262.00" xmlns="http://www.w3.org/2000/svg" xmlns:xlink="http://www.w3.org/1999/xlink">
<g id="graph1" class="graph" transform="scale(1 1) rotate(0) translate(4 258)">
<title>IMEController.cpp</title>
<polygon fill="white" stroke="white" points="-4,5 -4,-258 2223,-258 2223,5 -4,5"/>
<!-- Node1 -->
<g id="node1" class="node"><title>Node1</title>
<polygon fill="#bfbfbf" stroke="black" points="919.5,-232.5 919.5,-253.5 1020.5,-253.5 1020.5,-232.5 919.5,-232.5"/>
<text text-anchor="middle" x="970" y="-240.5" font-family="Helvetica,sans-Serif" font-size="10.00">IMEController.cpp</text>
</g>
<!-- Node2 -->
<g id="node3" class="node"><title>Node2</title>
<a xlink:href="IMEController_8h.htm" target="_top" xlink:title="IMEController.h">
<polygon fill="white" stroke="black" points="50,-116.5 50,-137.5 140,-137.5 140,-116.5 50,-116.5"/>
<text text-anchor="middle" x="95" y="-124.5" font-family="Helvetica,sans-Serif" font-size="10.00">IMEController.h</text>
</a>
</g>
<!-- Node1&#45;&gt;Node2 -->
<g id="edge2" class="edge"><title>Node1&#45;&gt;Node2</title>
<path fill="none" stroke="midnightblue" d="M919.494,-236.304C766.541,-216.027 309.157,-155.391 150.18,-134.315"/>
<polygon fill="midnightblue" stroke="midnightblue" points="150.52,-130.83 140.147,-132.985 149.6,-137.769 150.52,-130.83"/>
</g>
<!-- Node5 -->
<g id="node9" class="node"><title>Node5</title>
<a xlink:href="InputClient_8h.htm" target="_top" xlink:title="InputClient.h">
<polygon fill="white" stroke="black" points="663.5,-58.5 663.5,-79.5 738.5,-79.5 738.5,-58.5 663.5,-58.5"/>
<text text-anchor="middle" x="701" y="-66.5" font-family="Helvetica,sans-Serif" font-size="10.00">InputClient.h</text>
</a>
</g>
<!-- Node1&#45;&gt;Node5 -->
<g id="edge8" class="edge"><title>Node1&#45;&gt;Node5</title>
<path fill="none" stroke="midnightblue" d="M950.321,-232.374C917.014,-214.174 847.719,-175.376 792,-138 767.238,-121.39 740.164,-100.482 722.04,-86.0593"/>
<polygon fill="midnightblue" stroke="midnightblue" points="723.904,-83.0679 713.912,-79.547 719.528,-88.5309 723.904,-83.0679"/>
</g>
<!-- Node7 -->
<g id="node14" class="node"><title>Node7</title>
<polygon fill="white" stroke="#bfbfbf" points="934.5,-174.5 934.5,-195.5 1005.5,-195.5 1005.5,-174.5 934.5,-174.5"/>
<text text-anchor="middle" x="970" y="-182.5" font-family="Helvetica,sans-Serif" font-size="10.00">HostBase.h</text>
</g>
<!-- Node1&#45;&gt;Node7 -->
<g id="edge14" class="edge"><title>Node1&#45;&gt;Node7</title>
<path fill="none" stroke="midnightblue" d="M970,-232.362C970,-224.922 970,-214.743 970,-205.728"/>
<polygon fill="midnightblue" stroke="midnightblue" points="973.5,-205.571 970,-195.571 966.5,-205.571 973.5,-205.571"/>
</g>
<!-- Node8 -->
<g id="node16" class="node"><title>Node8</title>
<a xlink:href="WindowServer_8h.htm" target="_top" xlink:title="WindowServer.h">
<polygon fill="white" stroke="black" points="1240,-174.5 1240,-195.5 1334,-195.5 1334,-174.5 1240,-174.5"/>
<text text-anchor="middle" x="1287" y="-182.5" font-family="Helvetica,sans-Serif" font-size="10.00">WindowServer.h</text>
</a>
</g>
<!-- Node1&#45;&gt;Node8 -->
<g id="edge16" class="edge"><title>Node1&#45;&gt;Node8</title>
<path fill="none" stroke="midnightblue" d="M1020.58,-233.746C1077.67,-223.3 1170.34,-206.345 1229.96,-195.437"/>
<polygon fill="midnightblue" stroke="midnightblue" points="1230.75,-198.849 1239.96,-193.606 1229.49,-191.963 1230.75,-198.849"/>
</g>
<!-- Node31 -->
<g id="node80" class="node"><title>Node31</title>
<polygon fill="white" stroke="#bfbfbf" points="2079.5,-0.5 2079.5,-21.5 2120.5,-21.5 2120.5,-0.5 2079.5,-0.5"/>
<text text-anchor="middle" x="2100" y="-8.5" font-family="Helvetica,sans-Serif" font-size="10.00">glib.h</text>
</g>
<!-- Node1&#45;&gt;Node31 -->
<g id="edge164" class="edge"><title>Node1&#45;&gt;Node31</title>
<path fill="none" stroke="midnightblue" d="M1020.54,-240.693C1192.09,-232.354 1750.81,-200.89 1918,-138 1985.2,-112.722 2051,-56.9514 2081.84,-28.4747"/>
<polygon fill="midnightblue" stroke="midnightblue" points="2084.34,-30.9277 2089.24,-21.5356 2079.55,-25.8202 2084.34,-30.9277"/>
</g>
<!-- Node3 -->
<g id="node5" class="node"><title>Node3</title>
<polygon fill="white" stroke="#bfbfbf" points="67.5,-58.5 67.5,-79.5 122.5,-79.5 122.5,-58.5 67.5,-58.5"/>
<text text-anchor="middle" x="95" y="-66.5" font-family="Helvetica,sans-Serif" font-size="10.00">QObject</text>
</g>
<!-- Node2&#45;&gt;Node3 -->
<g id="edge4" class="edge"><title>Node2&#45;&gt;Node3</title>
<path fill="none" stroke="midnightblue" d="M95,-116.362C95,-108.922 95,-98.7427 95,-89.7276"/>
<polygon fill="midnightblue" stroke="midnightblue" points="98.5001,-89.5706 95,-79.5707 91.5001,-89.5707 98.5001,-89.5706"/>
</g>
<!-- Node4 -->
<g id="node7" class="node"><title>Node4</title>
<polygon fill="white" stroke="#bfbfbf" points="70,-0.5 70,-21.5 168,-21.5 168,-0.5 70,-0.5"/>
<text text-anchor="middle" x="119" y="-8.5" font-family="Helvetica,sans-Serif" font-size="10.00">palmimedefines.h</text>
</g>
<!-- Node2&#45;&gt;Node4 -->
<g id="edge6" class="edge"><title>Node2&#45;&gt;Node4</title>
<path fill="none" stroke="midnightblue" d="M82.6294,-116.337C68.574,-102.86 48.8256,-78.8944 59,-58 65.2782,-45.1071 76.9937,-34.7071 88.4178,-27.0001"/>
<polygon fill="midnightblue" stroke="midnightblue" points="90.3773,-29.9028 97.0022,-21.6346 86.6672,-23.9668 90.3773,-29.9028"/>
</g>
<!-- Node5&#45;&gt;Node4 -->
<g id="edge10" class="edge"><title>Node5&#45;&gt;Node4</title>
<path fill="none" stroke="midnightblue" d="M663.411,-63.7C648.923,-61.7564 632.209,-59.6345 617,-58 427.199,-37.6013 378.524,-44.8318 189,-22 185.536,-21.5827 181.981,-21.1229 178.397,-20.6351"/>
<polygon fill="midnightblue" stroke="midnightblue" points="178.664,-17.1381 168.272,-19.1983 177.681,-24.0687 178.664,-17.1381"/>
</g>
<!-- Node6 -->
<g id="node12" class="node"><title>Node6</title>
<polygon fill="white" stroke="#bfbfbf" points="847.5,-0.5 847.5,-21.5 890.5,-21.5 890.5,-0.5 847.5,-0.5"/>
<text text-anchor="middle" x="869" y="-8.5" font-family="Helvetica,sans-Serif" font-size="10.00">string</text>
</g>
<!-- Node5&#45;&gt;Node6 -->
<g id="edge12" class="edge"><title>Node5&#45;&gt;Node6</title>
<path fill="none" stroke="midnightblue" d="M731.424,-58.4966C761.497,-48.1141 807.295,-32.303 837.677,-21.8139"/>
<polygon fill="midnightblue" stroke="midnightblue" points="839.034,-25.0481 847.345,-18.4762 836.75,-18.4313 839.034,-25.0481"/>
</g>
<!-- Node8&#45;&gt;Node3 -->
<g id="edge148" class="edge"><title>Node8&#45;&gt;Node3</title>
<path fill="none" stroke="midnightblue" d="M1239.81,-182.93C1069.25,-175.385 490.481,-149.22 408,-138 307.352,-124.309 191.097,-95.0606 132.665,-79.4021"/>
<polygon fill="midnightblue" stroke="midnightblue" points="133.348,-75.9612 122.782,-76.7349 131.524,-82.7195 133.348,-75.9612"/>
</g>
<!-- Node8&#45;&gt;Node6 -->
<g id="edge22" class="edge"><title>Node8&#45;&gt;Node6</title>
<path fill="none" stroke="midnightblue" d="M1239.99,-182.3C1163.02,-177.183 1014.15,-164.165 969,-138 925.127,-112.573 893.367,-59.7677 878.479,-30.9019"/>
<polygon fill="midnightblue" stroke="midnightblue" points="881.521,-29.1592 873.924,-21.7742 875.258,-32.2848 881.521,-29.1592"/>
</g>
<!-- Node9 -->
<g id="node18" class="node"><title>Node9</title>
<polygon fill="white" stroke="#bfbfbf" points="1076.5,-0.5 1076.5,-21.5 1143.5,-21.5 1143.5,-0.5 1076.5,-0.5"/>
<text text-anchor="middle" x="1110" y="-8.5" font-family="Helvetica,sans-Serif" font-size="10.00">Common.h</text>
</g>
<!-- Node8&#45;&gt;Node9 -->
<g id="edge18" class="edge"><title>Node8&#45;&gt;Node9</title>
<path fill="none" stroke="midnightblue" d="M1239.81,-176.724C1198.75,-168.532 1143.59,-154.8 1129,-138 1103.3,-108.411 1103.94,-59.5781 1106.86,-31.8795"/>
<polygon fill="midnightblue" stroke="midnightblue" points="1110.36,-32.0983 1108.13,-21.7398 1103.41,-31.2253 1110.36,-32.0983"/>
</g>
<!-- Node10 -->
<g id="node20" class="node"><title>Node10</title>
<polygon fill="white" stroke="#bfbfbf" points="-0.5,-0.5 -0.5,-21.5 28.5,-21.5 28.5,-0.5 -0.5,-0.5"/>
<text text-anchor="middle" x="14" y="-8.5" font-family="Helvetica,sans-Serif" font-size="10.00">list</text>
</g>
<!-- Node8&#45;&gt;Node10 -->
<g id="edge20" class="edge"><title>Node8&#45;&gt;Node10</title>
<path fill="none" stroke="midnightblue" d="M1239.66,-183.045C1185.21,-180.808 1093.16,-177.059 1014,-174 959.948,-171.911 82.4019,-172.812 41,-138 10.2331,-112.13 9.22874,-60.6759 11.4515,-31.8344"/>
<polygon fill="midnightblue" stroke="midnightblue" points="14.9568,-31.9497 12.4452,-21.6569 7.98993,-31.2694 14.9568,-31.9497"/>
</g>
<!-- Node11 -->
<g id="node23" class="node"><title>Node11</title>
<a xlink:href="DisplayManager_8h.htm" target="_top" xlink:title="DisplayManager.h">
<polygon fill="white" stroke="black" points="417,-116.5 417,-137.5 519,-137.5 519,-116.5 417,-116.5"/>
<text text-anchor="middle" x="468" y="-124.5" font-family="Helvetica,sans-Serif" font-size="10.00">DisplayManager.h</text>
</a>
</g>
<!-- Node8&#45;&gt;Node11 -->
<g id="edge24" class="edge"><title>Node8&#45;&gt;Node11</title>
<path fill="none" stroke="midnightblue" d="M1239.73,-181.652C1099.62,-171.73 686.601,-142.481 529.556,-131.359"/>
<polygon fill="midnightblue" stroke="midnightblue" points="529.365,-127.837 519.143,-130.622 528.87,-134.82 529.365,-127.837"/>
</g>
<!-- Node21 -->
<g id="node51" class="node"><title>Node21</title>
<a xlink:href="InputManager_8h.htm" target="_top" xlink:title="InputManager.h">
<polygon fill="white" stroke="black" points="755.5,-58.5 755.5,-79.5 846.5,-79.5 846.5,-58.5 755.5,-58.5"/>
<text text-anchor="middle" x="801" y="-66.5" font-family="Helvetica,sans-Serif" font-size="10.00">InputManager.h</text>
</a>
</g>
<!-- Node8&#45;&gt;Node21 -->
<g id="edge60" class="edge"><title>Node8&#45;&gt;Node21</title>
<path fill="none" stroke="midnightblue" d="M1239.95,-183.821C1124.56,-180.459 834.792,-168.986 805,-138 792.954,-125.471 793.259,-105.031 795.794,-89.6432"/>
<polygon fill="midnightblue" stroke="midnightblue" points="799.291,-90.0183 797.89,-79.5164 792.436,-88.5995 799.291,-90.0183"/>
</g>
<!-- Node24 -->
<g id="node62" class="node"><title>Node24</title>
<polygon fill="white" stroke="#bfbfbf" points="814,-116.5 814,-137.5 906,-137.5 906,-116.5 814,-116.5"/>
<text text-anchor="middle" x="860" y="-124.5" font-family="Helvetica,sans-Serif" font-size="10.00">CustomEvents.h</text>
</g>
<!-- Node8&#45;&gt;Node24 -->
<g id="edge76" class="edge"><title>Node8&#45;&gt;Node24</title>
<path fill="none" stroke="midnightblue" d="M1239.96,-179.798C1170.03,-171.879 1034.57,-155.825 920,-138 918.734,-137.803 917.455,-137.6 916.165,-137.392"/>
<polygon fill="midnightblue" stroke="midnightblue" points="916.585,-133.914 906.145,-135.719 915.432,-140.819 916.585,-133.914"/>
</g>
<!-- Node25 -->
<g id="node64" class="node"><title>Node25</title>
<a xlink:href="VariantAnimation_8h.htm" target="_top" xlink:title="VariantAnimation.h">
<polygon fill="white" stroke="black" points="977.5,-116.5 977.5,-137.5 1082.5,-137.5 1082.5,-116.5 977.5,-116.5"/>
<text text-anchor="middle" x="1030" y="-124.5" font-family="Helvetica,sans-Serif" font-size="10.00">VariantAnimation.h</text>
</a>
</g>
<!-- Node8&#45;&gt;Node25 -->
<g id="edge78" class="edge"><title>Node8&#45;&gt;Node25</title>
<path fill="none" stroke="midnightblue" d="M1240.46,-174.497C1197.2,-164.734 1132.67,-150.172 1086.48,-139.747"/>
<polygon fill="midnightblue" stroke="midnightblue" points="1087.15,-136.31 1076.63,-137.523 1085.61,-143.139 1087.15,-136.31"/>
</g>
<!-- Node27 -->
<g id="node69" class="node"><title>Node27</title>
<a xlink:href="HostWindow_8h.htm" target="_top" xlink:title="HostWindow.h">
<polygon fill="white" stroke="black" points="1138,-116.5 1138,-137.5 1222,-137.5 1222,-116.5 1138,-116.5"/>
<text text-anchor="middle" x="1180" y="-124.5" font-family="Helvetica,sans-Serif" font-size="10.00">HostWindow.h</text>
</a>
</g>
<!-- Node8&#45;&gt;Node27 -->
<g id="edge84" class="edge"><title>Node8&#45;&gt;Node27</title>
<path fill="none" stroke="midnightblue" d="M1267.37,-174.362C1250.86,-165.409 1227.03,-152.491 1208.42,-142.406"/>
<polygon fill="midnightblue" stroke="midnightblue" points="1209.96,-139.259 1199.5,-137.571 1206.62,-145.413 1209.96,-139.259"/>
</g>
<!-- Node32 -->
<g id="node82" class="node"><title>Node32</title>
<polygon fill="white" stroke="#bfbfbf" points="1604,-0.5 1604,-21.5 1702,-21.5 1702,-0.5 1604,-0.5"/>
<text text-anchor="middle" x="1653" y="-8.5" font-family="Helvetica,sans-Serif" font-size="10.00">QGraphicsObject</text>
</g>
<!-- Node8&#45;&gt;Node32 -->
<g id="edge144" class="edge"><title>Node8&#45;&gt;Node32</title>
<path fill="none" stroke="midnightblue" d="M1289.48,-174.467C1293.77,-158.787 1304.21,-129.686 1325,-116 1394,-70.5759 1639.49,-141.178 1695,-80 1709.25,-64.292 1692,-43.0595 1675.5,-28.3136"/>
<polygon fill="midnightblue" stroke="midnightblue" points="1677.5,-25.4217 1667.6,-21.6484 1672.99,-30.7719 1677.5,-25.4217"/>
</g>
<!-- Node35 -->
<g id="node90" class="node"><title>Node35</title>
<polygon fill="white" stroke="#bfbfbf" points="1719.5,-0.5 1719.5,-21.5 1778.5,-21.5 1778.5,-0.5 1719.5,-0.5"/>
<text text-anchor="middle" x="1749" y="-8.5" font-family="Helvetica,sans-Serif" font-size="10.00">QPixmap</text>
</g>
<!-- Node8&#45;&gt;Node35 -->
<g id="edge156" class="edge"><title>Node8&#45;&gt;Node35</title>
<path fill="none" stroke="midnightblue" d="M1334.47,-183.113C1475.23,-177.289 1881.79,-158.734 1901,-138 1914.58,-123.339 1909.96,-80.8346 1890,-58 1886.49,-53.9839 1828.68,-35.545 1788.19,-22.992"/>
<polygon fill="midnightblue" stroke="midnightblue" points="1789.15,-19.6268 1778.56,-20.0184 1787.08,-26.3148 1789.15,-19.6268"/>
</g>
<!-- Node39 -->
<g id="node99" class="node"><title>Node39</title>
<a xlink:href="ProgressAnimation_8h.htm" target="_top" xlink:title="ProgressAnimation.h">
<polygon fill="white" stroke="black" points="1767,-58.5 1767,-79.5 1881,-79.5 1881,-58.5 1767,-58.5"/>
<text text-anchor="middle" x="1824" y="-66.5" font-family="Helvetica,sans-Serif" font-size="10.00">ProgressAnimation.h</text>
</a>
</g>
<!-- Node8&#45;&gt;Node39 -->
<g id="edge120" class="edge"><title>Node8&#45;&gt;Node39</title>
<path fill="none" stroke="midnightblue" d="M1334.21,-183.023C1472.2,-177.019 1866.35,-158.169 1885,-138 1901.58,-120.069 1876.66,-98.9745 1853.87,-84.8731"/>
<polygon fill="midnightblue" stroke="midnightblue" points="1855.39,-81.7108 1845,-79.6509 1851.84,-87.7422 1855.39,-81.7108"/>
</g>
<!-- Node42 -->
<g id="node108" class="node"><title>Node42</title>
<a xlink:href="TouchPlot_8h.htm" target="_top" xlink:title="TouchPlot.h">
<polygon fill="white" stroke="black" points="1614,-58.5 1614,-79.5 1686,-79.5 1686,-58.5 1614,-58.5"/>
<text text-anchor="middle" x="1650" y="-66.5" font-family="Helvetica,sans-Serif" font-size="10.00">TouchPlot.h</text>
</a>
</g>
<!-- Node8&#45;&gt;Node42 -->
<g id="edge132" class="edge"><title>Node8&#45;&gt;Node42</title>
<path fill="none" stroke="midnightblue" d="M1284.1,-174.493C1280.64,-159.379 1277.04,-131.606 1292,-116 1338.47,-67.5326 1520.28,-90.2622 1603.6,-79.8097"/>
<polygon fill="midnightblue" stroke="midnightblue" points="1604.37,-83.2336 1613.73,-78.2783 1603.32,-76.3122 1604.37,-83.2336"/>
</g>
<!-- Node43 -->
<g id="node113" class="node"><title>Node43</title>
<polygon fill="white" stroke="#bfbfbf" points="2137.5,-0.5 2137.5,-21.5 2218.5,-21.5 2218.5,-0.5 2137.5,-0.5"/>
<text text-anchor="middle" x="2178" y="-8.5" font-family="Helvetica,sans-Serif" font-size="10.00">QTouchEvent</text>
</g>
<!-- Node8&#45;&gt;Node43 -->
<g id="edge146" class="edge"><title>Node8&#45;&gt;Node43</title>
<path fill="none" stroke="midnightblue" d="M1334.06,-183.798C1460.92,-180.192 1807.86,-167.816 1918,-138 2010.09,-113.071 2108.64,-55.2345 2153.38,-27.0358"/>
<polygon fill="midnightblue" stroke="midnightblue" points="2155.28,-29.9724 2161.84,-21.6501 2151.52,-24.0672 2155.28,-29.9724"/>
</g>
<!-- Node44 -->
<g id="node115" class="node"><title>Node44</title>
<polygon fill="white" stroke="#bfbfbf" points="1334,-116.5 1334,-137.5 1424,-137.5 1424,-116.5 1334,-116.5"/>
<text text-anchor="middle" x="1379" y="-124.5" font-family="Helvetica,sans-Serif" font-size="10.00">QGraphicsView</text>
</g>
<!-- Node8&#45;&gt;Node44 -->
<g id="edge142" class="edge"><title>Node8&#45;&gt;Node44</title>
<path fill="none" stroke="midnightblue" d="M1303.87,-174.362C1317.75,-165.614 1337.63,-153.079 1353.46,-143.101"/>
<polygon fill="midnightblue" stroke="midnightblue" points="1355.64,-145.864 1362.23,-137.571 1351.91,-139.943 1355.64,-145.864"/>
</g>
<!-- Node45 -->
<g id="node120" class="node"><title>Node45</title>
<polygon fill="white" stroke="#bfbfbf" points="1442,-116.5 1442,-137.5 1498,-137.5 1498,-116.5 1442,-116.5"/>
<text text-anchor="middle" x="1470" y="-124.5" font-family="Helvetica,sans-Serif" font-size="10.00">QQueue</text>
</g>
<!-- Node8&#45;&gt;Node45 -->
<g id="edge150" class="edge"><title>Node8&#45;&gt;Node45</title>
<path fill="none" stroke="midnightblue" d="M1320.14,-174.497C1351.69,-164.497 1399.13,-149.462 1432.15,-138.996"/>
<polygon fill="midnightblue" stroke="midnightblue" points="1433.43,-142.263 1441.9,-135.905 1431.31,-135.59 1433.43,-142.263"/>
</g>
<!-- Node46 -->
<g id="node122" class="node"><title>Node46</title>
<polygon fill="white" stroke="#bfbfbf" points="1516,-116.5 1516,-137.5 1564,-137.5 1564,-116.5 1516,-116.5"/>
<text text-anchor="middle" x="1540" y="-124.5" font-family="Helvetica,sans-Serif" font-size="10.00">QTime</text>
</g>
<!-- Node8&#45;&gt;Node46 -->
<g id="edge152" class="edge"><title>Node8&#45;&gt;Node46</title>
<path fill="none" stroke="midnightblue" d="M1334.14,-176.504C1376.75,-168.472 1441.34,-155.427 1505.99,-138.07"/>
<polygon fill="midnightblue" stroke="midnightblue" points="1507.21,-141.364 1515.94,-135.363 1505.38,-134.61 1507.21,-141.364"/>
</g>
<!-- Node47 -->
<g id="node124" class="node"><title>Node47</title>
<polygon fill="white" stroke="#bfbfbf" points="1582,-116.5 1582,-137.5 1634,-137.5 1634,-116.5 1582,-116.5"/>
<text text-anchor="middle" x="1608" y="-124.5" font-family="Helvetica,sans-Serif" font-size="10.00">QTimer</text>
</g>
<!-- Node8&#45;&gt;Node47 -->
<g id="edge154" class="edge"><title>Node8&#45;&gt;Node47</title>
<path fill="none" stroke="midnightblue" d="M1334.22,-179.326C1389.2,-172.258 1482.83,-158.798 1571.76,-138.056"/>
<polygon fill="midnightblue" stroke="midnightblue" points="1572.81,-141.403 1581.74,-135.692 1571.2,-134.591 1572.81,-141.403"/>
</g>
<!-- Node48 -->
<g id="node127" class="node"><title>Node48</title>
<polygon fill="white" stroke="#bfbfbf" points="1652,-116.5 1652,-137.5 1720,-137.5 1720,-116.5 1652,-116.5"/>
<text text-anchor="middle" x="1686" y="-124.5" font-family="Helvetica,sans-Serif" font-size="10.00">QMultiMap</text>
</g>
<!-- Node8&#45;&gt;Node48 -->
<g id="edge158" class="edge"><title>Node8&#45;&gt;Node48</title>
<path fill="none" stroke="midnightblue" d="M1334.22,-180.576C1400.74,-173.947 1525.93,-160.016 1641.72,-138.075"/>
<polygon fill="midnightblue" stroke="midnightblue" points="1642.65,-141.459 1651.82,-136.136 1641.33,-134.585 1642.65,-141.459"/>
</g>
<!-- Node49 -->
<g id="node129" class="node"><title>Node49</title>
<polygon fill="white" stroke="#bfbfbf" points="1737.5,-116.5 1737.5,-137.5 1796.5,-137.5 1796.5,-116.5 1737.5,-116.5"/>
<text text-anchor="middle" x="1767" y="-124.5" font-family="Helvetica,sans-Serif" font-size="10.00">QPointer</text>
</g>
<!-- Node8&#45;&gt;Node49 -->
<g id="edge160" class="edge"><title>Node8&#45;&gt;Node49</title>
<path fill="none" stroke="midnightblue" d="M1334.18,-182.711C1413.63,-178.264 1579.18,-166.457 1727.08,-138.127"/>
<polygon fill="midnightblue" stroke="midnightblue" points="1728.1,-141.494 1737.25,-136.148 1726.77,-134.623 1728.1,-141.494"/>
</g>
<!-- Node50 -->
<g id="node131" class="node"><title>Node50</title>
<polygon fill="white" stroke="#bfbfbf" points="1814,-116.5 1814,-137.5 1876,-137.5 1876,-116.5 1814,-116.5"/>
<text text-anchor="middle" x="1845" y="-124.5" font-family="Helvetica,sans-Serif" font-size="10.00">QGesture</text>
</g>
<!-- Node8&#45;&gt;Node50 -->
<g id="edge162" class="edge"><title>Node8&#45;&gt;Node50</title>
<path fill="none" stroke="midnightblue" d="M1334.16,-183.526C1423.95,-180.115 1625.63,-169.545 1803.61,-137.992"/>
<polygon fill="midnightblue" stroke="midnightblue" points="1804.46,-141.396 1813.68,-136.18 1803.22,-134.507 1804.46,-141.396"/>
</g>
<!-- Node11&#45;&gt;Node3 -->
<g id="edge56" class="edge"><title>Node11&#45;&gt;Node3</title>
<path fill="none" stroke="midnightblue" d="M416.766,-121.703C351.264,-114.484 234.532,-100.115 136,-80 134.917,-79.7789 133.82,-79.5459 132.714,-79.3032"/>
<polygon fill="midnightblue" stroke="midnightblue" points="133.219,-75.8256 122.68,-76.9151 131.598,-82.6354 133.219,-75.8256"/>
</g>
<!-- Node11&#45;&gt;Node9 -->
<g id="edge26" class="edge"><title>Node11&#45;&gt;Node9</title>
<path fill="none" stroke="midnightblue" d="M519.133,-123.425C593.593,-117.626 735.966,-104.292 855,-80 889.454,-72.9686 897.103,-67.3548 931,-58 977.146,-45.2649 1030.21,-31.4334 1066.51,-22.0954"/>
<polygon fill="midnightblue" stroke="midnightblue" points="1067.47,-25.4629 1076.28,-19.5854 1065.73,-18.6829 1067.47,-25.4629"/>
</g>
<!-- Node12 -->
<g id="node26" class="node"><title>Node12</title>
<polygon fill="white" stroke="#bfbfbf" points="446,-0.5 446,-21.5 498,-21.5 498,-0.5 446,-0.5"/>
<text text-anchor="middle" x="472" y="-8.5" font-family="Helvetica,sans-Serif" font-size="10.00">Timer.h</text>
</g>
<!-- Node11&#45;&gt;Node12 -->
<g id="edge28" class="edge"><title>Node11&#45;&gt;Node12</title>
<path fill="none" stroke="midnightblue" d="M468.369,-116.295C469.03,-97.1314 470.426,-56.654 471.281,-31.8434"/>
<polygon fill="midnightblue" stroke="midnightblue" points="474.785,-31.7939 471.632,-21.6792 467.789,-31.5526 474.785,-31.7939"/>
</g>
<!-- Node13 -->
<g id="node28" class="node"><title>Node13</title>
<polygon fill="white" stroke="#bfbfbf" points="495.5,-58.5 495.5,-79.5 548.5,-79.5 548.5,-58.5 495.5,-58.5"/>
<text text-anchor="middle" x="522" y="-66.5" font-family="Helvetica,sans-Serif" font-size="10.00">Mutex.h</text>
</g>
<!-- Node11&#45;&gt;Node13 -->
<g id="edge30" class="edge"><title>Node11&#45;&gt;Node13</title>
<path fill="none" stroke="midnightblue" d="M477.904,-116.362C485.516,-108.186 496.208,-96.7025 505.157,-87.0907"/>
<polygon fill="midnightblue" stroke="midnightblue" points="507.906,-89.2746 512.158,-79.5707 502.783,-84.5046 507.906,-89.2746"/>
</g>
<!-- Node14 -->
<g id="node30" class="node"><title>Node14</title>
<polygon fill="white" stroke="#bfbfbf" points="296,-0.5 296,-21.5 348,-21.5 348,-0.5 296,-0.5"/>
<text text-anchor="middle" x="322" y="-8.5" font-family="Helvetica,sans-Serif" font-size="10.00">Event.h</text>
</g>
<!-- Node11&#45;&gt;Node14 -->
<g id="edge32" class="edge"><title>Node11&#45;&gt;Node14</title>
<path fill="none" stroke="midnightblue" d="M416.7,-118.727C391.404,-112.178 362.269,-100.548 343,-80 330.731,-66.9173 325.618,-46.8739 323.493,-31.7545"/>
<polygon fill="midnightblue" stroke="midnightblue" points="326.97,-31.3509 322.414,-21.7854 320.01,-32.1038 326.97,-31.3509"/>
</g>
<!-- Node15 -->
<g id="node32" class="node"><title>Node15</title>
<polygon fill="white" stroke="#bfbfbf" points="565.5,-58.5 565.5,-79.5 608.5,-79.5 608.5,-58.5 565.5,-58.5"/>
<text text-anchor="middle" x="587" y="-66.5" font-family="Helvetica,sans-Serif" font-size="10.00">sptr.h</text>
</g>
<!-- Node11&#45;&gt;Node15 -->
<g id="edge34" class="edge"><title>Node11&#45;&gt;Node15</title>
<path fill="none" stroke="midnightblue" d="M489.55,-116.497C508.136,-107.438 535.202,-94.2462 556.095,-84.0628"/>
<polygon fill="midnightblue" stroke="midnightblue" points="557.753,-87.1487 565.208,-79.6212 554.686,-80.8563 557.753,-87.1487"/>
</g>
<!-- Node16 -->
<g id="node34" class="node"><title>Node16</title>
<a xlink:href="AmbientLightSensor_8h.htm" target="_top" xlink:title="AmbientLightSensor.h">
<polygon fill="white" stroke="black" points="177.5,-58.5 177.5,-79.5 296.5,-79.5 296.5,-58.5 177.5,-58.5"/>
<text text-anchor="middle" x="237" y="-66.5" font-family="Helvetica,sans-Serif" font-size="10.00">AmbientLightSensor.h</text>
</a>
</g>
<!-- Node11&#45;&gt;Node16 -->
<g id="edge36" class="edge"><title>Node11&#45;&gt;Node16</title>
<path fill="none" stroke="midnightblue" d="M426.168,-116.497C387.612,-106.816 330.259,-92.4156 288.818,-82.0105"/>
<polygon fill="midnightblue" stroke="midnightblue" points="289.462,-78.5637 278.911,-79.5231 287.757,-85.353 289.462,-78.5637"/>
</g>
<!-- Node17 -->
<g id="node37" class="node"><title>Node17</title>
<polygon fill="white" stroke="#bfbfbf" points="198,-0.5 198,-21.5 276,-21.5 276,-0.5 198,-0.5"/>
<text text-anchor="middle" x="237" y="-8.5" font-family="Helvetica,sans-Serif" font-size="10.00">lunaservice.h</text>
</g>
<!-- Node11&#45;&gt;Node17 -->
<g id="edge58" class="edge"><title>Node11&#45;&gt;Node17</title>
<path fill="none" stroke="midnightblue" d="M416.721,-122.545C335.524,-114.967 184.88,-98.5708 169,-80 152.353,-60.5323 179.58,-39.8073 204.369,-26.211"/>
<polygon fill="midnightblue" stroke="midnightblue" points="206.065,-29.2739 213.307,-21.5399 202.823,-23.0702 206.065,-29.2739"/>
</g>
<!-- Node18 -->
<g id="node40" class="node"><title>Node18</title>
<a xlink:href="DisplayStates_8h.htm" target="_top" xlink:title="DisplayStates.h">
<polygon fill="white" stroke="black" points="351.5,-58.5 351.5,-79.5 440.5,-79.5 440.5,-58.5 351.5,-58.5"/>
<text text-anchor="middle" x="396" y="-66.5" font-family="Helvetica,sans-Serif" font-size="10.00">DisplayStates.h</text>
</a>
</g>
<!-- Node11&#45;&gt;Node18 -->
<g id="edge44" class="edge"><title>Node11&#45;&gt;Node18</title>
<path fill="none" stroke="midnightblue" d="M454.794,-116.362C444.239,-107.859 429.242,-95.7785 417.037,-85.9466"/>
<polygon fill="midnightblue" stroke="midnightblue" points="419.105,-83.1183 409.122,-79.5707 414.714,-88.5696 419.105,-83.1183"/>
</g>
<!-- Node20 -->
<g id="node47" class="node"><title>Node20</title>
<polygon fill="white" stroke="#bfbfbf" points="642,-0.5 642,-21.5 694,-21.5 694,-0.5 642,-0.5"/>
<text text-anchor="middle" x="668" y="-8.5" font-family="Helvetica,sans-Serif" font-size="10.00">QEvent</text>
</g>
<!-- Node11&#45;&gt;Node20 -->
<g id="edge54" class="edge"><title>Node11&#45;&gt;Node20</title>
<path fill="none" stroke="midnightblue" d="M519.195,-119.092C549.74,-112.467 588.079,-100.644 617,-80 634.902,-67.2214 649.12,-46.229 657.947,-30.7491"/>
<polygon fill="midnightblue" stroke="midnightblue" points="661.265,-31.9735 662.955,-21.5143 655.111,-28.6369 661.265,-31.9735"/>
</g>
<!-- Node16&#45;&gt;Node9 -->
<g id="edge38" class="edge"><title>Node16&#45;&gt;Node9</title>
<path fill="none" stroke="midnightblue" d="M296.663,-62.3627C311.77,-60.8048 327.972,-59.2396 343,-58 485.197,-46.2704 925.231,-21.3301 1066.12,-13.4439"/>
<polygon fill="midnightblue" stroke="midnightblue" points="1066.34,-16.9373 1076.13,-12.8843 1065.95,-9.9482 1066.34,-16.9373"/>
</g>
<!-- Node16&#45;&gt;Node10 -->
<g id="edge42" class="edge"><title>Node16&#45;&gt;Node10</title>
<path fill="none" stroke="midnightblue" d="M196.616,-58.4966C150.496,-46.5013 76.5156,-27.2597 38.4193,-17.3512"/>
<polygon fill="midnightblue" stroke="midnightblue" points="39.2378,-13.9477 28.6788,-14.8178 37.4758,-20.7223 39.2378,-13.9477"/>
</g>
<!-- Node16&#45;&gt;Node17 -->
<g id="edge40" class="edge"><title>Node16&#45;&gt;Node17</title>
<path fill="none" stroke="midnightblue" d="M237,-58.3619C237,-50.9219 237,-40.7427 237,-31.7276"/>
<polygon fill="midnightblue" stroke="midnightblue" points="240.5,-31.5706 237,-21.5707 233.5,-31.5707 240.5,-31.5706"/>
</g>
<!-- Node18&#45;&gt;Node9 -->
<g id="edge46" class="edge"><title>Node18&#45;&gt;Node9</title>
<path fill="none" stroke="midnightblue" d="M440.853,-63.1717C455.544,-61.3715 471.954,-59.4761 487,-58 703.859,-36.7239 964.01,-19.8972 1065.97,-13.6385"/>
<polygon fill="midnightblue" stroke="midnightblue" points="1066.42,-17.1174 1076.19,-13.014 1065.99,-10.1305 1066.42,-17.1174"/>
</g>
<!-- Node18&#45;&gt;Node12 -->
<g id="edge48" class="edge"><title>Node18&#45;&gt;Node12</title>
<path fill="none" stroke="midnightblue" d="M409.94,-58.3619C421.188,-49.7773 437.216,-37.5459 450.165,-27.6636"/>
<polygon fill="midnightblue" stroke="midnightblue" points="452.323,-30.4198 458.149,-21.5707 448.076,-24.8551 452.323,-30.4198"/>
</g>
<!-- Node18&#45;&gt;Node14 -->
<g id="edge50" class="edge"><title>Node18&#45;&gt;Node14</title>
<path fill="none" stroke="midnightblue" d="M382.427,-58.3619C371.579,-49.859 356.166,-37.7785 343.621,-27.9466"/>
<polygon fill="midnightblue" stroke="midnightblue" points="345.516,-24.9848 335.487,-21.5707 341.198,-30.4942 345.516,-24.9848"/>
</g>
<!-- Node19 -->
<g id="node45" class="node"><title>Node19</title>
<polygon fill="white" stroke="#bfbfbf" points="365.5,-0.5 365.5,-21.5 428.5,-21.5 428.5,-0.5 365.5,-0.5"/>
<text text-anchor="middle" x="397" y="-8.5" font-family="Helvetica,sans-Serif" font-size="10.00">Settings.h</text>
</g>
<!-- Node18&#45;&gt;Node19 -->
<g id="edge52" class="edge"><title>Node18&#45;&gt;Node19</title>
<path fill="none" stroke="midnightblue" d="M396.183,-58.3619C396.312,-50.9219 396.487,-40.7427 396.643,-31.7276"/>
<polygon fill="midnightblue" stroke="midnightblue" points="400.145,-31.6295 396.818,-21.5707 393.146,-31.5088 400.145,-31.6295"/>
</g>
<!-- Node21&#45;&gt;Node6 -->
<g id="edge64" class="edge"><title>Node21&#45;&gt;Node6</title>
<path fill="none" stroke="midnightblue" d="M813.472,-58.3619C823.345,-49.9408 837.333,-38.0105 848.798,-28.2308"/>
<polygon fill="midnightblue" stroke="midnightblue" points="851.27,-30.7231 856.607,-21.5707 846.727,-25.3972 851.27,-30.7231"/>
</g>
<!-- Node21&#45;&gt;Node9 -->
<g id="edge62" class="edge"><title>Node21&#45;&gt;Node9</title>
<path fill="none" stroke="midnightblue" d="M846.594,-60.4419C905.666,-49.354 1007.95,-30.1543 1066.16,-19.2295"/>
<polygon fill="midnightblue" stroke="midnightblue" points="1066.96,-22.6395 1076.14,-17.3547 1065.67,-15.7597 1066.96,-22.6395"/>
</g>
<!-- Node21&#45;&gt;Node12 -->
<g id="edge74" class="edge"><title>Node21&#45;&gt;Node12</title>
<path fill="none" stroke="midnightblue" d="M755.355,-59.5961C752.529,-59.0468 749.727,-58.5107 747,-58 661.707,-42.0283 561.11,-25.3926 508.403,-16.8447"/>
<polygon fill="midnightblue" stroke="midnightblue" points="508.643,-13.3381 498.212,-15.1961 507.525,-20.2482 508.643,-13.3381"/>
</g>
<!-- Node21&#45;&gt;Node17 -->
<g id="edge68" class="edge"><title>Node21&#45;&gt;Node17</title>
<path fill="none" stroke="midnightblue" d="M755.403,-59.3017C752.566,-58.8255 749.748,-58.3859 747,-58 543.923,-29.4798 489.848,-52.1029 287,-22 286.78,-21.9674 286.56,-21.9344 286.339,-21.9009"/>
<polygon fill="midnightblue" stroke="midnightblue" points="286.656,-18.4043 276.209,-20.1636 285.473,-25.3036 286.656,-18.4043"/>
</g>
<!-- Node21&#45;&gt;Node20 -->
<g id="edge72" class="edge"><title>Node21&#45;&gt;Node20</title>
<path fill="none" stroke="midnightblue" d="M776.915,-58.4966C755.861,-49.3154 725.073,-35.8889 701.598,-25.6516"/>
<polygon fill="midnightblue" stroke="midnightblue" points="702.921,-22.4104 692.356,-21.6212 700.123,-28.8268 702.921,-22.4104"/>
</g>
<!-- Node22 -->
<g id="node55" class="node"><title>Node22</title>
<polygon fill="white" stroke="#bfbfbf" points="737.5,-0.5 737.5,-21.5 774.5,-21.5 774.5,-0.5 737.5,-0.5"/>
<text text-anchor="middle" x="756" y="-8.5" font-family="Helvetica,sans-Serif" font-size="10.00">map</text>
</g>
<!-- Node21&#45;&gt;Node22 -->
<g id="edge66" class="edge"><title>Node21&#45;&gt;Node22</title>
<path fill="none" stroke="midnightblue" d="M792.746,-58.3619C786.53,-50.3496 777.849,-39.1605 770.485,-29.6696"/>
<polygon fill="midnightblue" stroke="midnightblue" points="773.097,-27.326 764.201,-21.5707 767.566,-31.617 773.097,-27.326"/>
</g>
<!-- Node23 -->
<g id="node58" class="node"><title>Node23</title>
<polygon fill="white" stroke="#bfbfbf" points="791.5,-0.5 791.5,-21.5 820.5,-21.5 820.5,-0.5 791.5,-0.5"/>
<text text-anchor="middle" x="806" y="-8.5" font-family="Helvetica,sans-Serif" font-size="10.00">Qt</text>
</g>
<!-- Node21&#45;&gt;Node23 -->
<g id="edge70" class="edge"><title>Node21&#45;&gt;Node23</title>
<path fill="none" stroke="midnightblue" d="M801.917,-58.3619C802.558,-50.9219 803.436,-40.7427 804.213,-31.7276"/>
<polygon fill="midnightblue" stroke="midnightblue" points="807.717,-31.8343 805.089,-21.5707 800.743,-31.2331 807.717,-31.8343"/>
</g>
<!-- Node25&#45;&gt;Node9 -->
<g id="edge80" class="edge"><title>Node25&#45;&gt;Node9</title>
<path fill="none" stroke="midnightblue" d="M1037.38,-116.295C1050.9,-96.6998 1079.78,-54.8198 1096.76,-30.1913"/>
<polygon fill="midnightblue" stroke="midnightblue" points="1099.84,-31.8984 1102.64,-21.6792 1094.08,-27.9243 1099.84,-31.8984"/>
</g>
<!-- Node26 -->
<g id="node67" class="node"><title>Node26</title>
<polygon fill="white" stroke="#bfbfbf" points="939.5,-58.5 939.5,-79.5 1044.5,-79.5 1044.5,-58.5 939.5,-58.5"/>
<text text-anchor="middle" x="992" y="-66.5" font-family="Helvetica,sans-Serif" font-size="10.00">QVariantAnimation</text>
</g>
<!-- Node25&#45;&gt;Node26 -->
<g id="edge82" class="edge"><title>Node25&#45;&gt;Node26</title>
<path fill="none" stroke="midnightblue" d="M1023.03,-116.362C1017.83,-108.431 1010.6,-97.3885 1004.42,-87.9606"/>
<polygon fill="midnightblue" stroke="midnightblue" points="1007.33,-86.0172 998.926,-79.5707 1001.48,-89.8534 1007.33,-86.0172"/>
</g>
<!-- Node27&#45;&gt;Node5 -->
<g id="edge114" class="edge"><title>Node27&#45;&gt;Node5</title>
<path fill="none" stroke="midnightblue" d="M1137.92,-121.635C1123.09,-119.789 1106.31,-117.748 1091,-116 941.549,-98.9456 900.281,-105.626 748.718,-80.1333"/>
<polygon fill="midnightblue" stroke="midnightblue" points="749.019,-76.6342 738.573,-78.407 747.844,-83.535 749.019,-76.6342"/>
</g>
<!-- Node27&#45;&gt;Node9 -->
<g id="edge86" class="edge"><title>Node27&#45;&gt;Node9</title>
<path fill="none" stroke="midnightblue" d="M1222.05,-119.005C1273.32,-108.834 1354.28,-91.2425 1363,-80 1368.99,-72.2738 1369.25,-65.5189 1363,-58 1349.74,-42.0497 1222.57,-24.5065 1153.74,-16.0759"/>
<polygon fill="midnightblue" stroke="midnightblue" points="1153.97,-12.5786 1143.62,-14.8511 1153.13,-19.5279 1153.97,-12.5786"/>
</g>
<!-- Node27&#45;&gt;Node27 -->
<g id="edge104" class="edge"><title>Node27&#45;&gt;Node27</title>
<path fill="none" stroke="midnightblue" d="M1210.56,-137.524C1226.08,-139.061 1240,-135.553 1240,-127 1240,-120.385 1231.67,-116.788 1220.72,-116.208"/>
<polygon fill="midnightblue" stroke="midnightblue" points="1220.47,-112.714 1210.56,-116.476 1220.65,-119.711 1220.47,-112.714"/>
</g>
<!-- Node28 -->
<g id="node72" class="node"><title>Node28</title>
<a xlink:href="Window_8h.htm" target="_top" xlink:title="Window.h">
<polygon fill="white" stroke="black" points="1534,-58.5 1534,-79.5 1596,-79.5 1596,-58.5 1534,-58.5"/>
<text text-anchor="middle" x="1565" y="-66.5" font-family="Helvetica,sans-Serif" font-size="10.00">Window.h</text>
</a>
</g>
<!-- Node27&#45;&gt;Node28 -->
<g id="edge88" class="edge"><title>Node27&#45;&gt;Node28</title>
<path fill="none" stroke="midnightblue" d="M1222.25,-120.605C1232.63,-119.065 1243.71,-117.448 1254,-116 1371.14,-99.5135 1404.2,-103.911 1523.75,-80.0558"/>
<polygon fill="midnightblue" stroke="midnightblue" points="1524.55,-83.4655 1533.65,-78.0546 1523.16,-76.6041 1524.55,-83.4655"/>
</g>
<!-- Node34 -->
<g id="node87" class="node"><title>Node34</title>
<a xlink:href="HostWindowData_8h.htm" target="_top" xlink:title="HostWindowData.h">
<polygon fill="white" stroke="black" points="1409.5,-58.5 1409.5,-79.5 1516.5,-79.5 1516.5,-58.5 1409.5,-58.5"/>
<text text-anchor="middle" x="1463" y="-66.5" font-family="Helvetica,sans-Serif" font-size="10.00">HostWindowData.h</text>
</a>
</g>
<!-- Node27&#45;&gt;Node34 -->
<g id="edge106" class="edge"><title>Node27&#45;&gt;Node34</title>
<path fill="none" stroke="midnightblue" d="M1222.06,-118.379C1269.61,-108.635 1347.44,-92.6843 1401.73,-81.557"/>
<polygon fill="midnightblue" stroke="midnightblue" points="1402.49,-84.9746 1411.58,-79.538 1401.08,-78.1171 1402.49,-84.9746"/>
</g>
<!-- Node37 -->
<g id="node95" class="node"><title>Node37</title>
<polygon fill="white" stroke="#bfbfbf" points="1138,-58.5 1138,-79.5 1212,-79.5 1212,-58.5 1138,-58.5"/>
<text text-anchor="middle" x="1175" y="-66.5" font-family="Helvetica,sans-Serif" font-size="10.00">PIpcBuffer.h</text>
</g>
<!-- Node27&#45;&gt;Node37 -->
<g id="edge116" class="edge"><title>Node27&#45;&gt;Node37</title>
<path fill="none" stroke="midnightblue" d="M1179.08,-116.362C1178.44,-108.922 1177.56,-98.7427 1176.79,-89.7276"/>
<polygon fill="midnightblue" stroke="midnightblue" points="1180.26,-89.2331 1175.91,-79.5707 1173.28,-89.8343 1180.26,-89.2331"/>
</g>
<!-- Node38 -->
<g id="node97" class="node"><title>Node38</title>
<polygon fill="white" stroke="#bfbfbf" points="1230,-58.5 1230,-79.5 1354,-79.5 1354,-58.5 1230,-58.5"/>
<text text-anchor="middle" x="1292" y="-66.5" font-family="Helvetica,sans-Serif" font-size="10.00">PIpcChannelListener.h</text>
</g>
<!-- Node27&#45;&gt;Node38 -->
<g id="edge118" class="edge"><title>Node27&#45;&gt;Node38</title>
<path fill="none" stroke="midnightblue" d="M1200.28,-116.497C1217.62,-107.519 1242.79,-94.4835 1262.38,-84.3387"/>
<polygon fill="midnightblue" stroke="midnightblue" points="1264.22,-87.3278 1271.49,-79.6212 1261,-81.1118 1264.22,-87.3278"/>
</g>
<!-- Node28&#45;&gt;Node6 -->
<g id="edge96" class="edge"><title>Node28&#45;&gt;Node6</title>
<path fill="none" stroke="midnightblue" d="M1533.69,-59.7624C1530.77,-59.0908 1527.84,-58.4872 1525,-58 1463.14,-47.3854 1023.66,-20.3355 900.825,-12.9105"/>
<polygon fill="midnightblue" stroke="midnightblue" points="900.779,-9.40155 890.587,-12.2929 900.358,-16.3888 900.779,-9.40155"/>
</g>
<!-- Node28&#45;&gt;Node9 -->
<g id="edge90" class="edge"><title>Node28&#45;&gt;Node9</title>
<path fill="none" stroke="midnightblue" d="M1533.67,-59.8872C1530.75,-59.1894 1527.83,-58.5457 1525,-58 1454.56,-44.4115 1245.07,-23.7494 1153.57,-15.0671"/>
<polygon fill="midnightblue" stroke="midnightblue" points="1153.82,-11.5749 1143.54,-14.1178 1153.16,-18.5438 1153.82,-11.5749"/>
</g>
<!-- Node29 -->
<g id="node75" class="node"><title>Node29</title>
<polygon fill="white" stroke="#bfbfbf" points="1426,-0.5 1426,-21.5 1518,-21.5 1518,-0.5 1426,-0.5"/>
<text text-anchor="middle" x="1472" y="-8.5" font-family="Helvetica,sans-Serif" font-size="10.00">WindowTypes.h</text>
</g>
<!-- Node28&#45;&gt;Node29 -->
<g id="edge92" class="edge"><title>Node28&#45;&gt;Node29</title>
<path fill="none" stroke="midnightblue" d="M1547.94,-58.3619C1533.92,-49.6138 1513.82,-37.0786 1497.82,-27.1015"/>
<polygon fill="midnightblue" stroke="midnightblue" points="1499.29,-23.8927 1488.95,-21.5707 1495.58,-29.8323 1499.29,-23.8927"/>
</g>
<!-- Node30 -->
<g id="node77" class="node"><title>Node30</title>
<polygon fill="white" stroke="#bfbfbf" points="1536,-0.5 1536,-21.5 1586,-21.5 1586,-0.5 1536,-0.5"/>
<text text-anchor="middle" x="1561" y="-8.5" font-family="Helvetica,sans-Serif" font-size="10.00">stdint.h</text>
</g>
<!-- Node28&#45;&gt;Node30 -->
<g id="edge94" class="edge"><title>Node28&#45;&gt;Node30</title>
<path fill="none" stroke="midnightblue" d="M1564.27,-58.3619C1563.75,-50.9219 1563.05,-40.7427 1562.43,-31.7276"/>
<polygon fill="midnightblue" stroke="midnightblue" points="1565.91,-31.3061 1561.73,-21.5707 1558.93,-31.7878 1565.91,-31.3061"/>
</g>
<!-- Node28&#45;&gt;Node31 -->
<g id="edge98" class="edge"><title>Node28&#45;&gt;Node31</title>
<path fill="none" stroke="midnightblue" d="M1596.31,-59.7793C1599.23,-59.1041 1602.16,-58.4952 1605,-58 1806.44,-22.8545 1866.4,-65.9099 2069.53,-21.8254"/>
<polygon fill="midnightblue" stroke="midnightblue" points="2070.3,-25.2387 2079.31,-19.6597 2068.79,-18.4042 2070.3,-25.2387"/>
</g>
<!-- Node28&#45;&gt;Node32 -->
<g id="edge100" class="edge"><title>Node28&#45;&gt;Node32</title>
<path fill="none" stroke="midnightblue" d="M1581.14,-58.3619C1594.41,-49.6138 1613.43,-37.0786 1628.57,-27.1015"/>
<polygon fill="midnightblue" stroke="midnightblue" points="1630.54,-29.9962 1636.96,-21.5707 1626.69,-24.1515 1630.54,-29.9962"/>
</g>
<!-- Node33 -->
<g id="node84" class="node"><title>Node33</title>
<polygon fill="white" stroke="#bfbfbf" points="1363.5,-0.5 1363.5,-21.5 1408.5,-21.5 1408.5,-0.5 1363.5,-0.5"/>
<text text-anchor="middle" x="1386" y="-8.5" font-family="Helvetica,sans-Serif" font-size="10.00">QSize</text>
</g>
<!-- Node28&#45;&gt;Node33 -->
<g id="edge102" class="edge"><title>Node28&#45;&gt;Node33</title>
<path fill="none" stroke="midnightblue" d="M1533.72,-59.3995C1505.69,-50.7237 1463.23,-37.4028 1418.28,-22.3706"/>
<polygon fill="midnightblue" stroke="midnightblue" points="1419.25,-19.0038 1408.66,-19.138 1417.02,-25.6396 1419.25,-19.0038"/>
</g>
<!-- Node34&#45;&gt;Node9 -->
<g id="edge108" class="edge"><title>Node34&#45;&gt;Node9</title>
<path fill="none" stroke="midnightblue" d="M1409.39,-60.191C1339.45,-48.7002 1218.41,-28.8131 1153.73,-18.1855"/>
<polygon fill="midnightblue" stroke="midnightblue" points="1154.29,-14.7298 1143.85,-16.5621 1153.15,-21.6372 1154.29,-14.7298"/>
</g>
<!-- Node34&#45;&gt;Node35 -->
<g id="edge110" class="edge"><title>Node34&#45;&gt;Node35</title>
<path fill="none" stroke="midnightblue" d="M1516.71,-59.4354C1573.95,-49.1397 1661.86,-33.0156 1709.41,-22.2044"/>
<polygon fill="midnightblue" stroke="midnightblue" points="1710.26,-25.6008 1719.2,-19.9147 1708.67,-18.7849 1710.26,-25.6008"/>
</g>
<!-- Node36 -->
<g id="node92" class="node"><title>Node36</title>
<polygon fill="white" stroke="#bfbfbf" points="1260,-0.5 1260,-21.5 1346,-21.5 1346,-0.5 1260,-0.5"/>
<text text-anchor="middle" x="1303" y="-8.5" font-family="Helvetica,sans-Serif" font-size="10.00">PIpcChannel.h</text>
</g>
<!-- Node34&#45;&gt;Node36 -->
<g id="edge112" class="edge"><title>Node34&#45;&gt;Node36</title>
<path fill="none" stroke="midnightblue" d="M1434.03,-58.4966C1408.17,-49.1229 1370.1,-35.3242 1341.65,-25.0122"/>
<polygon fill="midnightblue" stroke="midnightblue" points="1342.62,-21.6406 1332.03,-21.5231 1340.24,-28.2216 1342.62,-21.6406"/>
</g>
<!-- Node39&#45;&gt;Node9 -->
<g id="edge122" class="edge"><title>Node39&#45;&gt;Node9</title>
<path fill="none" stroke="midnightblue" d="M1766.85,-64.0664C1744.45,-62.1481 1718.52,-59.9476 1695,-58 1492.69,-41.2473 1250.94,-22.1022 1153.69,-14.4362"/>
<polygon fill="midnightblue" stroke="midnightblue" points="1153.88,-10.941 1143.64,-13.6446 1153.33,-17.9194 1153.88,-10.941"/>
</g>
<!-- Node39&#45;&gt;Node32 -->
<g id="edge124" class="edge"><title>Node39&#45;&gt;Node32</title>
<path fill="none" stroke="midnightblue" d="M1793.03,-58.4966C1765.16,-49.0411 1724,-35.0829 1693.52,-24.7428"/>
<polygon fill="midnightblue" stroke="midnightblue" points="1694.62,-21.4207 1684.02,-21.5231 1692.37,-28.0497 1694.62,-21.4207"/>
</g>
<!-- Node39&#45;&gt;Node35 -->
<g id="edge126" class="edge"><title>Node39&#45;&gt;Node35</title>
<path fill="none" stroke="midnightblue" d="M1810.24,-58.3619C1799.25,-49.859 1783.63,-37.7785 1770.91,-27.9466"/>
<polygon fill="midnightblue" stroke="midnightblue" points="1772.72,-24.9195 1762.67,-21.5707 1768.44,-30.4569 1772.72,-24.9195"/>
</g>
<!-- Node40 -->
<g id="node104" class="node"><title>Node40</title>
<polygon fill="white" stroke="#bfbfbf" points="1796,-0.5 1796,-21.5 1908,-21.5 1908,-0.5 1796,-0.5"/>
<text text-anchor="middle" x="1852" y="-8.5" font-family="Helvetica,sans-Serif" font-size="10.00">QPropertyAnimation</text>
</g>
<!-- Node39&#45;&gt;Node40 -->
<g id="edge128" class="edge"><title>Node39&#45;&gt;Node40</title>
<path fill="none" stroke="midnightblue" d="M1829.14,-58.3619C1832.85,-50.6766 1837.97,-40.0686 1842.42,-30.8399"/>
<polygon fill="midnightblue" stroke="midnightblue" points="1845.7,-32.0978 1846.9,-21.5707 1839.4,-29.0545 1845.7,-32.0978"/>
</g>
<!-- Node41 -->
<g id="node106" class="node"><title>Node41</title>
<polygon fill="white" stroke="#bfbfbf" points="1926,-0.5 1926,-21.5 2062,-21.5 2062,-0.5 1926,-0.5"/>
<text text-anchor="middle" x="1994" y="-8.5" font-family="Helvetica,sans-Serif" font-size="10.00">QParallelAnimationGroup</text>
</g>
<!-- Node39&#45;&gt;Node41 -->
<g id="edge130" class="edge"><title>Node39&#45;&gt;Node41</title>
<path fill="none" stroke="midnightblue" d="M1854.79,-58.4966C1882.38,-49.082 1923.06,-35.2036 1953.33,-24.8773"/>
<polygon fill="midnightblue" stroke="midnightblue" points="1954.82,-28.0646 1963.16,-21.5231 1952.56,-21.4396 1954.82,-28.0646"/>
</g>
<!-- Node42&#45;&gt;Node9 -->
<g id="edge136" class="edge"><title>Node42&#45;&gt;Node9</title>
<path fill="none" stroke="midnightblue" d="M1613.74,-59.659C1610.8,-59.0457 1607.85,-58.4819 1605,-58 1518.59,-43.4159 1257.9,-22.4029 1153.71,-14.3311"/>
<polygon fill="midnightblue" stroke="midnightblue" points="1153.79,-10.8264 1143.55,-13.546 1153.25,-17.8056 1153.79,-10.8264"/>
</g>
<!-- Node42&#45;&gt;Node30 -->
<g id="edge134" class="edge"><title>Node42&#45;&gt;Node30</title>
<path fill="none" stroke="midnightblue" d="M1633.68,-58.3619C1620.25,-49.6138 1601.02,-37.0786 1585.71,-27.1015"/>
<polygon fill="midnightblue" stroke="midnightblue" points="1587.51,-24.0982 1577.22,-21.5707 1583.69,-29.9628 1587.51,-24.0982"/>
</g>
<!-- Node42&#45;&gt;Node32 -->
<g id="edge138" class="edge"><title>Node42&#45;&gt;Node32</title>
<path fill="none" stroke="midnightblue" d="M1650.55,-58.3619C1650.94,-50.9219 1651.46,-40.7427 1651.93,-31.7276"/>
<polygon fill="midnightblue" stroke="midnightblue" points="1655.43,-31.7381 1652.45,-21.5707 1648.44,-31.3765 1655.43,-31.7381"/>
</g>
<!-- Node42&#45;&gt;Node43 -->
<g id="edge140" class="edge"><title>Node42&#45;&gt;Node43</title>
<path fill="none" stroke="midnightblue" d="M1686.49,-65.2398C1707.42,-63.0943 1734.18,-60.3686 1758,-58 1919.63,-41.927 1963.71,-47.9452 2127.5,-22.0972"/>
<polygon fill="midnightblue" stroke="midnightblue" points="2128.11,-25.5445 2137.43,-20.5141 2127.01,-18.6318 2128.11,-25.5445"/>
</g>
</g>
</svg>
