<?xml version="1.0" encoding="UTF-8" standalone="no"?>
<!DOCTYPE svg PUBLIC "-//W3C//DTD SVG 1.1//EN"
 "http://www.w3.org/Graphics/SVG/1.1/DTD/svg11.dtd">
<!-- Generated by graphviz version 2.26.3 (20100126.1600)
 -->
<!-- Title: IMEView.cpp Pages: 1 -->
<svg width="2678pt" height="262pt"
 viewBox="0.00 0.00 2678.00 262.00" xmlns="http://www.w3.org/2000/svg" xmlns:xlink="http://www.w3.org/1999/xlink">
<g id="graph1" class="graph" transform="scale(1 1) rotate(0) translate(4 258)">
<title>IMEView.cpp</title>
<polygon fill="white" stroke="white" points="-4,5 -4,-258 2675,-258 2675,5 -4,5"/>
<!-- Node1 -->
<g id="node1" class="node"><title>Node1</title>
<polygon fill="#bfbfbf" stroke="black" points="1880.5,-232.5 1880.5,-253.5 1957.5,-253.5 1957.5,-232.5 1880.5,-232.5"/>
<text text-anchor="middle" x="1919" y="-240.5" font-family="Helvetica,sans-Serif" font-size="10.00">IMEView.cpp</text>
</g>
<!-- Node2 -->
<g id="node3" class="node"><title>Node2</title>
<a xlink:href="IMEView_8h.htm" target="_top" xlink:title="IMEView.h">
<polygon fill="white" stroke="black" points="1567,-116.5 1567,-137.5 1633,-137.5 1633,-116.5 1567,-116.5"/>
<text text-anchor="middle" x="1600" y="-124.5" font-family="Helvetica,sans-Serif" font-size="10.00">IMEView.h</text>
</a>
</g>
<!-- Node1&#45;&gt;Node2 -->
<g id="edge2" class="edge"><title>Node1&#45;&gt;Node2</title>
<path fill="none" stroke="midnightblue" d="M1880.44,-241.856C1776.64,-238.383 1497.28,-226.282 1470,-196 1463.46,-188.735 1464.38,-182.003 1470,-174 1475.31,-166.436 1521.29,-150.961 1557.07,-139.832"/>
<polygon fill="midnightblue" stroke="midnightblue" points="1558.33,-143.108 1566.86,-136.819 1556.27,-136.418 1558.33,-143.108"/>
</g>
<!-- Node6 -->
<g id="node11" class="node"><title>Node6</title>
<polygon fill="white" stroke="#bfbfbf" points="2051.5,-174.5 2051.5,-195.5 2122.5,-195.5 2122.5,-174.5 2051.5,-174.5"/>
<text text-anchor="middle" x="2087" y="-182.5" font-family="Helvetica,sans-Serif" font-size="10.00">HostBase.h</text>
</g>
<!-- Node1&#45;&gt;Node6 -->
<g id="edge10" class="edge"><title>Node1&#45;&gt;Node6</title>
<path fill="none" stroke="midnightblue" d="M1949.42,-232.497C1976.69,-223.082 2016.89,-209.204 2046.8,-198.877"/>
<polygon fill="midnightblue" stroke="midnightblue" points="2048.21,-202.095 2056.52,-195.523 2045.92,-195.478 2048.21,-202.095"/>
</g>
<!-- Node7 -->
<g id="node13" class="node"><title>Node7</title>
<a xlink:href="IMEController_8h.htm" target="_top" xlink:title="IMEController.h">
<polygon fill="white" stroke="black" points="68,-174.5 68,-195.5 158,-195.5 158,-174.5 68,-174.5"/>
<text text-anchor="middle" x="113" y="-182.5" font-family="Helvetica,sans-Serif" font-size="10.00">IMEController.h</text>
</a>
</g>
<!-- Node1&#45;&gt;Node7 -->
<g id="edge12" class="edge"><title>Node1&#45;&gt;Node7</title>
<path fill="none" stroke="midnightblue" d="M1880.44,-241.762C1648.78,-234.322 442.58,-195.585 168.461,-186.781"/>
<polygon fill="midnightblue" stroke="midnightblue" points="168.46,-183.279 158.353,-186.457 168.236,-190.276 168.46,-183.279"/>
</g>
<!-- Node10 -->
<g id="node19" class="node"><title>Node10</title>
<a xlink:href="WindowServer_8h.htm" target="_top" xlink:title="WindowServer.h">
<polygon fill="white" stroke="black" points="913,-174.5 913,-195.5 1007,-195.5 1007,-174.5 913,-174.5"/>
<text text-anchor="middle" x="960" y="-182.5" font-family="Helvetica,sans-Serif" font-size="10.00">WindowServer.h</text>
</a>
</g>
<!-- Node1&#45;&gt;Node10 -->
<g id="edge18" class="edge"><title>Node1&#45;&gt;Node10</title>
<path fill="none" stroke="midnightblue" d="M1880.22,-240.654C1731.19,-231.642 1194.85,-199.203 1017.43,-188.473"/>
<polygon fill="midnightblue" stroke="midnightblue" points="1017.45,-184.969 1007.26,-187.858 1017.03,-191.956 1017.45,-184.969"/>
</g>
<!-- Node39 -->
<g id="node102" class="node"><title>Node39</title>
<polygon fill="white" stroke="#bfbfbf" points="1689,-116.5 1689,-137.5 1751,-137.5 1751,-116.5 1689,-116.5"/>
<text text-anchor="middle" x="1720" y="-124.5" font-family="Helvetica,sans-Serif" font-size="10.00">QGesture</text>
</g>
<!-- Node1&#45;&gt;Node39 -->
<g id="edge136" class="edge"><title>Node1&#45;&gt;Node39</title>
<path fill="none" stroke="midnightblue" d="M1880.47,-241.77C1778.17,-238.109 1505.64,-225.639 1479,-196 1472.46,-188.728 1472.78,-181.547 1479,-174 1485.34,-166.309 1611,-144.777 1678.29,-133.727"/>
<polygon fill="midnightblue" stroke="midnightblue" points="1679.26,-137.116 1688.56,-132.048 1678.13,-130.207 1679.26,-137.116"/>
</g>
<!-- Node40 -->
<g id="node104" class="node"><title>Node40</title>
<polygon fill="white" stroke="#bfbfbf" points="2140,-174.5 2140,-195.5 2296,-195.5 2296,-174.5 2140,-174.5"/>
<text text-anchor="middle" x="2218" y="-182.5" font-family="Helvetica,sans-Serif" font-size="10.00">QGraphicsSceneMouseEvent</text>
</g>
<!-- Node1&#45;&gt;Node40 -->
<g id="edge128" class="edge"><title>Node1&#45;&gt;Node40</title>
<path fill="none" stroke="midnightblue" d="M1957.78,-235.477C2007.45,-225.843 2094.2,-209.014 2153.79,-197.455"/>
<polygon fill="midnightblue" stroke="midnightblue" points="2154.7,-200.845 2163.85,-195.504 2153.36,-193.973 2154.7,-200.845"/>
</g>
<!-- Node41 -->
<g id="node106" class="node"><title>Node41</title>
<polygon fill="white" stroke="#bfbfbf" points="2313.5,-174.5 2313.5,-195.5 2390.5,-195.5 2390.5,-174.5 2313.5,-174.5"/>
<text text-anchor="middle" x="2352" y="-182.5" font-family="Helvetica,sans-Serif" font-size="10.00">QApplication</text>
</g>
<!-- Node1&#45;&gt;Node41 -->
<g id="edge130" class="edge"><title>Node1&#45;&gt;Node41</title>
<path fill="none" stroke="midnightblue" d="M1957.56,-239.705C2025.55,-233.592 2171.36,-219.129 2303.45,-196.141"/>
<polygon fill="midnightblue" stroke="midnightblue" points="2304.1,-199.581 2313.34,-194.399 2302.88,-192.687 2304.1,-199.581"/>
</g>
<!-- Node42 -->
<g id="node108" class="node"><title>Node42</title>
<polygon fill="white" stroke="#bfbfbf" points="2408,-174.5 2408,-195.5 2466,-195.5 2466,-174.5 2408,-174.5"/>
<text text-anchor="middle" x="2437" y="-182.5" font-family="Helvetica,sans-Serif" font-size="10.00">QWidget</text>
</g>
<!-- Node1&#45;&gt;Node42 -->
<g id="edge132" class="edge"><title>Node1&#45;&gt;Node42</title>
<path fill="none" stroke="midnightblue" d="M1957.61,-241.631C2037.98,-238.264 2229.14,-227.571 2397.63,-195.981"/>
<polygon fill="midnightblue" stroke="midnightblue" points="2398.5,-199.378 2407.67,-194.069 2397.19,-192.502 2398.5,-199.378"/>
</g>
<!-- Node43 -->
<g id="node110" class="node"><title>Node43</title>
<polygon fill="white" stroke="#bfbfbf" points="2483.5,-174.5 2483.5,-195.5 2572.5,-195.5 2572.5,-174.5 2483.5,-174.5"/>
<text text-anchor="middle" x="2528" y="-182.5" font-family="Helvetica,sans-Serif" font-size="10.00">QGestureEvent</text>
</g>
<!-- Node1&#45;&gt;Node43 -->
<g id="edge134" class="edge"><title>Node1&#45;&gt;Node43</title>
<path fill="none" stroke="midnightblue" d="M1957.6,-241.338C2046.78,-237.156 2274.12,-224.534 2473.19,-196.135"/>
<polygon fill="midnightblue" stroke="midnightblue" points="2473.85,-199.576 2483.25,-194.683 2472.85,-192.648 2473.85,-199.576"/>
</g>
<!-- Node44 -->
<g id="node113" class="node"><title>Node44</title>
<polygon fill="white" stroke="#bfbfbf" points="2589.5,-174.5 2589.5,-195.5 2670.5,-195.5 2670.5,-174.5 2589.5,-174.5"/>
<text text-anchor="middle" x="2630" y="-182.5" font-family="Helvetica,sans-Serif" font-size="10.00">QTapGesture</text>
</g>
<!-- Node1&#45;&gt;Node44 -->
<g id="edge138" class="edge"><title>Node1&#45;&gt;Node44</title>
<path fill="none" stroke="midnightblue" d="M1957.65,-242.278C2058.52,-239.963 2338.1,-230.794 2579.43,-196.055"/>
<polygon fill="midnightblue" stroke="midnightblue" points="2580.05,-199.502 2589.45,-194.596 2579.05,-192.575 2580.05,-199.502"/>
</g>
<!-- Node45 -->
<g id="node115" class="node"><title>Node45</title>
<a xlink:href="SingleClickGesture_8h.htm" target="_top" xlink:title="SingleClickGesture.h">
<polygon fill="white" stroke="black" points="1920,-174.5 1920,-195.5 2034,-195.5 2034,-174.5 1920,-174.5"/>
<text text-anchor="middle" x="1977" y="-182.5" font-family="Helvetica,sans-Serif" font-size="10.00">SingleClickGesture.h</text>
</a>
</g>
<!-- Node1&#45;&gt;Node45 -->
<g id="edge140" class="edge"><title>Node1&#45;&gt;Node45</title>
<path fill="none" stroke="midnightblue" d="M1929.64,-232.362C1937.9,-224.104 1949.53,-212.472 1959.2,-202.803"/>
<polygon fill="midnightblue" stroke="midnightblue" points="1961.83,-205.117 1966.43,-195.571 1956.88,-200.167 1961.83,-205.117"/>
</g>
<!-- Node48 -->
<g id="node124" class="node"><title>Node48</title>
<a xlink:href="WebosTapAndHoldGesture_8h.htm" target="_top" xlink:title="WebosTapAndHoldGesture.h">
<polygon fill="white" stroke="black" points="1648,-174.5 1648,-195.5 1802,-195.5 1802,-174.5 1648,-174.5"/>
<text text-anchor="middle" x="1725" y="-182.5" font-family="Helvetica,sans-Serif" font-size="10.00">WebosTapAndHoldGesture.h</text>
</a>
</g>
<!-- Node1&#45;&gt;Node48 -->
<g id="edge152" class="edge"><title>Node1&#45;&gt;Node48</title>
<path fill="none" stroke="midnightblue" d="M1883.87,-232.497C1851.97,-222.959 1804.74,-208.841 1770.07,-198.475"/>
<polygon fill="midnightblue" stroke="midnightblue" points="1770.78,-195.034 1760.2,-195.523 1768.78,-201.741 1770.78,-195.034"/>
</g>
<!-- Node49 -->
<g id="node128" class="node"><title>Node49</title>
<a xlink:href="FlickGesture_8h.htm" target="_top" xlink:title="FlickGesture.h">
<polygon fill="white" stroke="black" points="1819.5,-174.5 1819.5,-195.5 1902.5,-195.5 1902.5,-174.5 1819.5,-174.5"/>
<text text-anchor="middle" x="1861" y="-182.5" font-family="Helvetica,sans-Serif" font-size="10.00">FlickGesture.h</text>
</a>
</g>
<!-- Node1&#45;&gt;Node49 -->
<g id="edge158" class="edge"><title>Node1&#45;&gt;Node49</title>
<path fill="none" stroke="midnightblue" d="M1908.36,-232.362C1900.1,-224.104 1888.47,-212.472 1878.8,-202.803"/>
<polygon fill="midnightblue" stroke="midnightblue" points="1881.12,-200.167 1871.57,-195.571 1876.17,-205.117 1881.12,-200.167"/>
</g>
<!-- Node50 -->
<g id="node134" class="node"><title>Node50</title>
<a xlink:href="ScreenEdgeFlickGesture_8h.htm" target="_top" xlink:title="ScreenEdgeFlickGesture.h">
<polygon fill="white" stroke="black" points="1488,-174.5 1488,-195.5 1630,-195.5 1630,-174.5 1488,-174.5"/>
<text text-anchor="middle" x="1559" y="-182.5" font-family="Helvetica,sans-Serif" font-size="10.00">ScreenEdgeFlickGesture.h</text>
</a>
</g>
<!-- Node1&#45;&gt;Node50 -->
<g id="edge168" class="edge"><title>Node1&#45;&gt;Node50</title>
<path fill="none" stroke="midnightblue" d="M1880.47,-236.793C1821.89,-227.354 1709.28,-209.212 1634.13,-197.104"/>
<polygon fill="midnightblue" stroke="midnightblue" points="1634.67,-193.646 1624.24,-195.511 1633.55,-200.557 1634.67,-193.646"/>
</g>
<!-- Node3 -->
<g id="node5" class="node"><title>Node3</title>
<polygon fill="white" stroke="#bfbfbf" points="1326,-58.5 1326,-79.5 1424,-79.5 1424,-58.5 1326,-58.5"/>
<text text-anchor="middle" x="1375" y="-66.5" font-family="Helvetica,sans-Serif" font-size="10.00">QGraphicsObject</text>
</g>
<!-- Node2&#45;&gt;Node3 -->
<g id="edge4" class="edge"><title>Node2&#45;&gt;Node3</title>
<path fill="none" stroke="midnightblue" d="M1566.8,-118.442C1529.6,-108.853 1468.87,-93.1979 1425.72,-82.0742"/>
<polygon fill="midnightblue" stroke="midnightblue" points="1426.53,-78.6693 1415.97,-79.5622 1424.78,-85.4477 1426.53,-78.6693"/>
</g>
<!-- Node4 -->
<g id="node7" class="node"><title>Node4</title>
<polygon fill="white" stroke="#bfbfbf" points="1646,-58.5 1646,-79.5 1754,-79.5 1754,-58.5 1646,-58.5"/>
<text text-anchor="middle" x="1700" y="-66.5" font-family="Helvetica,sans-Serif" font-size="10.00">IMEDataInterface.h</text>
</g>
<!-- Node2&#45;&gt;Node4 -->
<g id="edge6" class="edge"><title>Node2&#45;&gt;Node4</title>
<path fill="none" stroke="midnightblue" d="M1618.34,-116.362C1633.57,-107.532 1655.44,-94.844 1672.72,-84.8224"/>
<polygon fill="midnightblue" stroke="midnightblue" points="1674.88,-87.6155 1681.77,-79.5707 1671.37,-81.5603 1674.88,-87.6155"/>
</g>
<!-- Node5 -->
<g id="node9" class="node"><title>Node5</title>
<polygon fill="white" stroke="#bfbfbf" points="1578,-58.5 1578,-79.5 1628,-79.5 1628,-58.5 1578,-58.5"/>
<text text-anchor="middle" x="1603" y="-66.5" font-family="Helvetica,sans-Serif" font-size="10.00">stdint.h</text>
</g>
<!-- Node2&#45;&gt;Node5 -->
<g id="edge8" class="edge"><title>Node2&#45;&gt;Node5</title>
<path fill="none" stroke="midnightblue" d="M1600.55,-116.362C1600.94,-108.922 1601.46,-98.7427 1601.93,-89.7276"/>
<polygon fill="midnightblue" stroke="midnightblue" points="1605.43,-89.7381 1602.45,-79.5707 1598.44,-89.3765 1605.43,-89.7381"/>
</g>
<!-- Node8 -->
<g id="node15" class="node"><title>Node8</title>
<polygon fill="white" stroke="#bfbfbf" points="-0.5,-58.5 -0.5,-79.5 54.5,-79.5 54.5,-58.5 -0.5,-58.5"/>
<text text-anchor="middle" x="27" y="-66.5" font-family="Helvetica,sans-Serif" font-size="10.00">QObject</text>
</g>
<!-- Node7&#45;&gt;Node8 -->
<g id="edge14" class="edge"><title>Node7&#45;&gt;Node8</title>
<path fill="none" stroke="midnightblue" d="M95.7888,-174.494C83.0729,-165.993 66.1101,-152.996 55,-138 44.2064,-123.431 36.8354,-104.116 32.3765,-89.6273"/>
<polygon fill="midnightblue" stroke="midnightblue" points="35.6379,-88.3015 29.5259,-79.6473 28.907,-90.224 35.6379,-88.3015"/>
</g>
<!-- Node9 -->
<g id="node17" class="node"><title>Node9</title>
<polygon fill="white" stroke="#bfbfbf" points="64,-116.5 64,-137.5 162,-137.5 162,-116.5 64,-116.5"/>
<text text-anchor="middle" x="113" y="-124.5" font-family="Helvetica,sans-Serif" font-size="10.00">palmimedefines.h</text>
</g>
<!-- Node7&#45;&gt;Node9 -->
<g id="edge16" class="edge"><title>Node7&#45;&gt;Node9</title>
<path fill="none" stroke="midnightblue" d="M113,-174.362C113,-166.922 113,-156.743 113,-147.728"/>
<polygon fill="midnightblue" stroke="midnightblue" points="116.5,-147.571 113,-137.571 109.5,-147.571 116.5,-147.571"/>
</g>
<!-- Node10&#45;&gt;Node3 -->
<g id="edge108" class="edge"><title>Node10&#45;&gt;Node3</title>
<path fill="none" stroke="midnightblue" d="M1007.35,-183.347C1114.18,-179.131 1366.65,-166.254 1392,-138 1404.14,-124.463 1396.67,-103.638 1388.14,-88.4066"/>
<polygon fill="midnightblue" stroke="midnightblue" points="1391.06,-86.4706 1382.86,-79.7607 1385.08,-90.1192 1391.06,-86.4706"/>
</g>
<!-- Node10&#45;&gt;Node8 -->
<g id="edge112" class="edge"><title>Node10&#45;&gt;Node8</title>
<path fill="none" stroke="midnightblue" d="M912.967,-184.536C770.698,-182.74 346.571,-174.393 214,-138 193.299,-132.317 190.821,-124.245 171,-116 135.596,-101.273 93.8077,-88.075 64.3927,-79.4418"/>
<polygon fill="midnightblue" stroke="midnightblue" points="65.1141,-76.0069 54.535,-76.5834 63.1647,-82.7299 65.1141,-76.0069"/>
</g>
<!-- Node11 -->
<g id="node21" class="node"><title>Node11</title>
<polygon fill="white" stroke="#bfbfbf" points="1110.5,-0.5 1110.5,-21.5 1177.5,-21.5 1177.5,-0.5 1110.5,-0.5"/>
<text text-anchor="middle" x="1144" y="-8.5" font-family="Helvetica,sans-Serif" font-size="10.00">Common.h</text>
</g>
<!-- Node10&#45;&gt;Node11 -->
<g id="edge20" class="edge"><title>Node10&#45;&gt;Node11</title>
<path fill="none" stroke="midnightblue" d="M1007.01,-181.926C1066.01,-176.975 1162.15,-164.915 1184,-138 1210.05,-105.915 1180.2,-56.7011 1159.83,-29.9334"/>
<polygon fill="midnightblue" stroke="midnightblue" points="1162.33,-27.4468 1153.38,-21.7733 1156.84,-31.7884 1162.33,-27.4468"/>
</g>
<!-- Node12 -->
<g id="node23" class="node"><title>Node12</title>
<polygon fill="white" stroke="#bfbfbf" points="377.5,-0.5 377.5,-21.5 406.5,-21.5 406.5,-0.5 377.5,-0.5"/>
<text text-anchor="middle" x="392" y="-8.5" font-family="Helvetica,sans-Serif" font-size="10.00">list</text>
</g>
<!-- Node10&#45;&gt;Node12 -->
<g id="edge22" class="edge"><title>Node10&#45;&gt;Node12</title>
<path fill="none" stroke="midnightblue" d="M912.611,-182.95C776.057,-176.815 390.279,-157.798 372,-138 336.317,-99.3512 417.272,-121.891 443,-80 455.169,-60.1864 433.537,-38.882 414.8,-25.2712"/>
<polygon fill="midnightblue" stroke="midnightblue" points="416.751,-22.3657 406.526,-19.592 412.79,-28.1369 416.751,-22.3657"/>
</g>
<!-- Node13 -->
<g id="node25" class="node"><title>Node13</title>
<polygon fill="white" stroke="#bfbfbf" points="871.5,-58.5 871.5,-79.5 914.5,-79.5 914.5,-58.5 871.5,-58.5"/>
<text text-anchor="middle" x="893" y="-66.5" font-family="Helvetica,sans-Serif" font-size="10.00">string</text>
</g>
<!-- Node10&#45;&gt;Node13 -->
<g id="edge24" class="edge"><title>Node10&#45;&gt;Node13</title>
<path fill="none" stroke="midnightblue" d="M945.371,-174.193C934.646,-165.533 920.524,-152.471 912,-138 903.256,-123.156 898.41,-104.15 895.805,-89.845"/>
<polygon fill="midnightblue" stroke="midnightblue" points="899.261,-89.2892 894.222,-79.9692 892.349,-90.3972 899.261,-89.2892"/>
</g>
<!-- Node14 -->
<g id="node27" class="node"><title>Node14</title>
<a xlink:href="DisplayManager_8h.htm" target="_top" xlink:title="DisplayManager.h">
<polygon fill="white" stroke="black" points="223,-116.5 223,-137.5 325,-137.5 325,-116.5 223,-116.5"/>
<text text-anchor="middle" x="274" y="-124.5" font-family="Helvetica,sans-Serif" font-size="10.00">DisplayManager.h</text>
</a>
</g>
<!-- Node10&#45;&gt;Node14 -->
<g id="edge26" class="edge"><title>Node10&#45;&gt;Node14</title>
<path fill="none" stroke="midnightblue" d="M912.722,-182.91C808.709,-177.987 552.304,-164.064 339,-138 337.722,-137.844 336.431,-137.68 335.13,-137.51"/>
<polygon fill="midnightblue" stroke="midnightblue" points="335.419,-134.016 325.03,-136.092 334.446,-140.948 335.419,-134.016"/>
</g>
<!-- Node24 -->
<g id="node55" class="node"><title>Node24</title>
<a xlink:href="InputManager_8h.htm" target="_top" xlink:title="InputManager.h">
<polygon fill="white" stroke="red" points="738.5,-116.5 738.5,-137.5 829.5,-137.5 829.5,-116.5 738.5,-116.5"/>
<text text-anchor="middle" x="784" y="-124.5" font-family="Helvetica,sans-Serif" font-size="10.00">InputManager.h</text>
</a>
</g>
<!-- Node10&#45;&gt;Node24 -->
<g id="edge62" class="edge"><title>Node10&#45;&gt;Node24</title>
<path fill="none" stroke="midnightblue" d="M928.128,-174.497C899.435,-165.041 857.079,-151.083 825.702,-140.743"/>
<polygon fill="midnightblue" stroke="midnightblue" points="826.525,-137.329 815.932,-137.523 824.334,-143.977 826.525,-137.329"/>
</g>
<!-- Node26 -->
<g id="node64" class="node"><title>Node26</title>
<polygon fill="white" stroke="#bfbfbf" points="381,-116.5 381,-137.5 473,-137.5 473,-116.5 381,-116.5"/>
<text text-anchor="middle" x="427" y="-124.5" font-family="Helvetica,sans-Serif" font-size="10.00">CustomEvents.h</text>
</g>
<!-- Node10&#45;&gt;Node26 -->
<g id="edge76" class="edge"><title>Node10&#45;&gt;Node26</title>
<path fill="none" stroke="midnightblue" d="M912.995,-181.935C828.854,-176.111 646.788,-161.973 483.393,-138.09"/>
<polygon fill="midnightblue" stroke="midnightblue" points="483.559,-134.577 473.155,-136.577 482.536,-141.502 483.559,-134.577"/>
</g>
<!-- Node27 -->
<g id="node66" class="node"><title>Node27</title>
<a xlink:href="VariantAnimation_8h.htm" target="_top" xlink:title="VariantAnimation.h">
<polygon fill="white" stroke="red" points="1051.5,-58.5 1051.5,-79.5 1156.5,-79.5 1156.5,-58.5 1051.5,-58.5"/>
<text text-anchor="middle" x="1104" y="-66.5" font-family="Helvetica,sans-Serif" font-size="10.00">VariantAnimation.h</text>
</a>
</g>
<!-- Node10&#45;&gt;Node27 -->
<g id="edge78" class="edge"><title>Node10&#45;&gt;Node27</title>
<path fill="none" stroke="midnightblue" d="M954.676,-174.498C948.104,-159.886 939.259,-133.276 952,-116 963.015,-101.065 1004.34,-88.86 1041.13,-80.6335"/>
<polygon fill="midnightblue" stroke="midnightblue" points="1042.32,-83.9564 1051.35,-78.4197 1040.84,-77.1149 1042.32,-83.9564"/>
</g>
<!-- Node28 -->
<g id="node69" class="node"><title>Node28</title>
<a xlink:href="HostWindow_8h.htm" target="_top" xlink:title="HostWindow.h">
<polygon fill="white" stroke="red" points="932,-58.5 932,-79.5 1016,-79.5 1016,-58.5 932,-58.5"/>
<text text-anchor="middle" x="974" y="-66.5" font-family="Helvetica,sans-Serif" font-size="10.00">HostWindow.h</text>
</a>
</g>
<!-- Node10&#45;&gt;Node28 -->
<g id="edge82" class="edge"><title>Node10&#45;&gt;Node28</title>
<path fill="none" stroke="midnightblue" d="M946.143,-174.388C930.671,-161.157 909.027,-137.64 919,-116 924.766,-103.489 935.687,-93.0708 946.287,-85.249"/>
<polygon fill="midnightblue" stroke="midnightblue" points="948.344,-88.0822 954.615,-79.5423 944.387,-82.3078 948.344,-88.0822"/>
</g>
<!-- Node29 -->
<g id="node73" class="node"><title>Node29</title>
<a xlink:href="ProgressAnimation_8h.htm" target="_top" xlink:title="ProgressAnimation.h">
<polygon fill="white" stroke="red" points="1269,-116.5 1269,-137.5 1383,-137.5 1383,-116.5 1269,-116.5"/>
<text text-anchor="middle" x="1326" y="-124.5" font-family="Helvetica,sans-Serif" font-size="10.00">ProgressAnimation.h</text>
</a>
</g>
<!-- Node10&#45;&gt;Node29 -->
<g id="edge88" class="edge"><title>Node10&#45;&gt;Node29</title>
<path fill="none" stroke="midnightblue" d="M1007.1,-177.536C1071.08,-167.397 1185.85,-149.21 1258.85,-137.642"/>
<polygon fill="midnightblue" stroke="midnightblue" points="1259.53,-141.077 1268.86,-136.055 1258.44,-134.163 1259.53,-141.077"/>
</g>
<!-- Node30 -->
<g id="node77" class="node"><title>Node30</title>
<polygon fill="white" stroke="#bfbfbf" points="1211.5,-58.5 1211.5,-79.5 1270.5,-79.5 1270.5,-58.5 1211.5,-58.5"/>
<text text-anchor="middle" x="1241" y="-66.5" font-family="Helvetica,sans-Serif" font-size="10.00">QPixmap</text>
</g>
<!-- Node10&#45;&gt;Node30 -->
<g id="edge120" class="edge"><title>Node10&#45;&gt;Node30</title>
<path fill="none" stroke="midnightblue" d="M1007.12,-181.992C1072.49,-176.903 1186.13,-164.451 1217,-138 1230.95,-126.047 1236.8,-105.531 1239.25,-89.9686"/>
<polygon fill="midnightblue" stroke="midnightblue" points="1242.76,-90.0551 1240.49,-79.7055 1235.81,-89.2095 1242.76,-90.0551"/>
</g>
<!-- Node31 -->
<g id="node79" class="node"><title>Node31</title>
<a xlink:href="TouchPlot_8h.htm" target="_top" xlink:title="TouchPlot.h">
<polygon fill="white" stroke="black" points="1439,-116.5 1439,-137.5 1511,-137.5 1511,-116.5 1439,-116.5"/>
<text text-anchor="middle" x="1475" y="-124.5" font-family="Helvetica,sans-Serif" font-size="10.00">TouchPlot.h</text>
</a>
</g>
<!-- Node10&#45;&gt;Node31 -->
<g id="edge96" class="edge"><title>Node10&#45;&gt;Node31</title>
<path fill="none" stroke="midnightblue" d="M1007.09,-182.051C1091.32,-176.373 1273.17,-162.291 1425,-138 1426.26,-137.799 1427.53,-137.585 1428.82,-137.362"/>
<polygon fill="midnightblue" stroke="midnightblue" points="1429.59,-140.777 1438.77,-135.487 1428.3,-133.898 1429.59,-140.777"/>
</g>
<!-- Node32 -->
<g id="node84" class="node"><title>Node32</title>
<polygon fill="white" stroke="#bfbfbf" points="1479.5,-58.5 1479.5,-79.5 1560.5,-79.5 1560.5,-58.5 1479.5,-58.5"/>
<text text-anchor="middle" x="1520" y="-66.5" font-family="Helvetica,sans-Serif" font-size="10.00">QTouchEvent</text>
</g>
<!-- Node10&#45;&gt;Node32 -->
<g id="edge110" class="edge"><title>Node10&#45;&gt;Node32</title>
<path fill="none" stroke="midnightblue" d="M1007.13,-184.612C1135.76,-183.068 1485.58,-175.434 1520,-138 1531.68,-125.299 1530.22,-105.047 1526.7,-89.7614"/>
<polygon fill="midnightblue" stroke="midnightblue" points="1529.96,-88.4063 1523.94,-79.6882 1523.21,-90.2578 1529.96,-88.4063"/>
</g>
<!-- Node33 -->
<g id="node86" class="node"><title>Node33</title>
<polygon fill="white" stroke="#bfbfbf" points="491,-116.5 491,-137.5 581,-137.5 581,-116.5 491,-116.5"/>
<text text-anchor="middle" x="536" y="-124.5" font-family="Helvetica,sans-Serif" font-size="10.00">QGraphicsView</text>
</g>
<!-- Node10&#45;&gt;Node33 -->
<g id="edge106" class="edge"><title>Node10&#45;&gt;Node33</title>
<path fill="none" stroke="midnightblue" d="M912.819,-180.147C844.196,-172.838 712.647,-157.884 590.903,-138.057"/>
<polygon fill="midnightblue" stroke="midnightblue" points="591.47,-134.603 581.035,-136.435 590.335,-141.511 591.47,-134.603"/>
</g>
<!-- Node34 -->
<g id="node91" class="node"><title>Node34</title>
<polygon fill="white" stroke="#bfbfbf" points="599,-116.5 599,-137.5 655,-137.5 655,-116.5 599,-116.5"/>
<text text-anchor="middle" x="627" y="-124.5" font-family="Helvetica,sans-Serif" font-size="10.00">QQueue</text>
</g>
<!-- Node10&#45;&gt;Node34 -->
<g id="edge114" class="edge"><title>Node10&#45;&gt;Node34</title>
<path fill="none" stroke="midnightblue" d="M912.984,-179.475C856.298,-172.385 758.029,-158.729 665.032,-138.019"/>
<polygon fill="midnightblue" stroke="midnightblue" points="665.706,-134.583 655.181,-135.794 664.164,-141.411 665.706,-134.583"/>
</g>
<!-- Node35 -->
<g id="node93" class="node"><title>Node35</title>
<polygon fill="white" stroke="#bfbfbf" points="673,-116.5 673,-137.5 721,-137.5 721,-116.5 673,-116.5"/>
<text text-anchor="middle" x="697" y="-124.5" font-family="Helvetica,sans-Serif" font-size="10.00">QTime</text>
</g>
<!-- Node10&#45;&gt;Node35 -->
<g id="edge116" class="edge"><title>Node10&#45;&gt;Node35</title>
<path fill="none" stroke="midnightblue" d="M912.921,-177.09C868.352,-169.221 799.434,-156.07 731.121,-138.077"/>
<polygon fill="midnightblue" stroke="midnightblue" points="731.614,-134.586 721.049,-135.388 729.808,-141.349 731.614,-134.586"/>
</g>
<!-- Node36 -->
<g id="node95" class="node"><title>Node36</title>
<polygon fill="white" stroke="#bfbfbf" points="961,-116.5 961,-137.5 1013,-137.5 1013,-116.5 961,-116.5"/>
<text text-anchor="middle" x="987" y="-124.5" font-family="Helvetica,sans-Serif" font-size="10.00">QTimer</text>
</g>
<!-- Node10&#45;&gt;Node36 -->
<g id="edge118" class="edge"><title>Node10&#45;&gt;Node36</title>
<path fill="none" stroke="midnightblue" d="M964.952,-174.362C968.53,-166.677 973.468,-156.069 977.764,-146.84"/>
<polygon fill="midnightblue" stroke="midnightblue" points="981.032,-148.114 982.079,-137.571 974.686,-145.159 981.032,-148.114"/>
</g>
<!-- Node37 -->
<g id="node98" class="node"><title>Node37</title>
<polygon fill="white" stroke="#bfbfbf" points="1031,-116.5 1031,-137.5 1099,-137.5 1099,-116.5 1031,-116.5"/>
<text text-anchor="middle" x="1065" y="-124.5" font-family="Helvetica,sans-Serif" font-size="10.00">QMultiMap</text>
</g>
<!-- Node10&#45;&gt;Node37 -->
<g id="edge122" class="edge"><title>Node10&#45;&gt;Node37</title>
<path fill="none" stroke="midnightblue" d="M979.259,-174.362C995.466,-165.409 1018.85,-152.491 1037.11,-142.406"/>
<polygon fill="midnightblue" stroke="midnightblue" points="1038.8,-145.47 1045.86,-137.571 1035.42,-139.342 1038.8,-145.47"/>
</g>
<!-- Node38 -->
<g id="node100" class="node"><title>Node38</title>
<polygon fill="white" stroke="#bfbfbf" points="1116.5,-116.5 1116.5,-137.5 1175.5,-137.5 1175.5,-116.5 1116.5,-116.5"/>
<text text-anchor="middle" x="1146" y="-124.5" font-family="Helvetica,sans-Serif" font-size="10.00">QPointer</text>
</g>
<!-- Node10&#45;&gt;Node38 -->
<g id="edge124" class="edge"><title>Node10&#45;&gt;Node38</title>
<path fill="none" stroke="midnightblue" d="M993.683,-174.497C1025.37,-164.616 1072.83,-149.817 1106.33,-139.37"/>
<polygon fill="midnightblue" stroke="midnightblue" points="1107.74,-142.595 1116.25,-136.277 1105.66,-135.913 1107.74,-142.595"/>
</g>
<!-- Node10&#45;&gt;Node39 -->
<g id="edge126" class="edge"><title>Node10&#45;&gt;Node39</title>
<path fill="none" stroke="midnightblue" d="M1007.23,-182.907C1118.2,-177.735 1404.16,-162.934 1642,-138 1653.99,-136.743 1666.98,-135.047 1678.85,-133.363"/>
<polygon fill="midnightblue" stroke="midnightblue" points="1679.55,-136.799 1688.94,-131.898 1678.54,-129.871 1679.55,-136.799"/>
</g>
<!-- Node14&#45;&gt;Node8 -->
<g id="edge58" class="edge"><title>Node14&#45;&gt;Node8</title>
<path fill="none" stroke="midnightblue" d="M225.595,-116.498C183.771,-107.295 121.761,-93.3397 68,-80 66.9271,-79.7338 65.8391,-79.461 64.7416,-79.1833"/>
<polygon fill="midnightblue" stroke="midnightblue" points="65.3099,-75.7151 54.7519,-76.5978 63.556,-82.4919 65.3099,-75.7151"/>
</g>
<!-- Node14&#45;&gt;Node11 -->
<g id="edge28" class="edge"><title>Node14&#45;&gt;Node11</title>
<path fill="none" stroke="midnightblue" d="M325.021,-121.283C415.505,-110.979 597.217,-89.484 625,-80 643.469,-73.6956 644.422,-63.9737 663,-58 743.893,-31.9896 997.878,-17.7165 1100.42,-12.8898"/>
<polygon fill="midnightblue" stroke="midnightblue" points="1100.61,-16.3849 1110.44,-12.4258 1100.29,-9.39236 1100.61,-16.3849"/>
</g>
<!-- Node15 -->
<g id="node30" class="node"><title>Node15</title>
<polygon fill="white" stroke="#bfbfbf" points="546,-0.5 546,-21.5 598,-21.5 598,-0.5 546,-0.5"/>
<text text-anchor="middle" x="572" y="-8.5" font-family="Helvetica,sans-Serif" font-size="10.00">Timer.h</text>
</g>
<!-- Node14&#45;&gt;Node15 -->
<g id="edge30" class="edge"><title>Node14&#45;&gt;Node15</title>
<path fill="none" stroke="midnightblue" d="M322.643,-116.478C356.927,-108.342 403.567,-95.8055 443,-80 480.374,-65.02 520.929,-42.1326 546.393,-26.8759"/>
<polygon fill="midnightblue" stroke="midnightblue" points="548.317,-29.8027 555.058,-21.629 544.691,-23.8149 548.317,-29.8027"/>
</g>
<!-- Node16 -->
<g id="node32" class="node"><title>Node16</title>
<polygon fill="white" stroke="#bfbfbf" points="147.5,-58.5 147.5,-79.5 200.5,-79.5 200.5,-58.5 147.5,-58.5"/>
<text text-anchor="middle" x="174" y="-66.5" font-family="Helvetica,sans-Serif" font-size="10.00">Mutex.h</text>
</g>
<!-- Node14&#45;&gt;Node16 -->
<g id="edge32" class="edge"><title>Node14&#45;&gt;Node16</title>
<path fill="none" stroke="midnightblue" d="M255.658,-116.362C240.434,-107.532 218.559,-94.844 201.28,-84.8224"/>
<polygon fill="midnightblue" stroke="midnightblue" points="202.632,-81.5603 192.225,-79.5707 199.12,-87.6155 202.632,-81.5603"/>
</g>
<!-- Node17 -->
<g id="node34" class="node"><title>Node17</title>
<polygon fill="white" stroke="#bfbfbf" points="442,-0.5 442,-21.5 494,-21.5 494,-0.5 442,-0.5"/>
<text text-anchor="middle" x="468" y="-8.5" font-family="Helvetica,sans-Serif" font-size="10.00">Event.h</text>
</g>
<!-- Node14&#45;&gt;Node17 -->
<g id="edge34" class="edge"><title>Node14&#45;&gt;Node17</title>
<path fill="none" stroke="midnightblue" d="M222.74,-119.151C173.547,-109.515 110.605,-90.3388 139,-58 179.81,-11.521 354.009,-32.292 415,-22 420.502,-21.0716 426.303,-19.9821 431.968,-18.8562"/>
<polygon fill="midnightblue" stroke="midnightblue" points="432.83,-22.2523 441.925,-16.8172 431.426,-15.3946 432.83,-22.2523"/>
</g>
<!-- Node18 -->
<g id="node36" class="node"><title>Node18</title>
<polygon fill="white" stroke="#bfbfbf" points="217.5,-58.5 217.5,-79.5 260.5,-79.5 260.5,-58.5 217.5,-58.5"/>
<text text-anchor="middle" x="239" y="-66.5" font-family="Helvetica,sans-Serif" font-size="10.00">sptr.h</text>
</g>
<!-- Node14&#45;&gt;Node18 -->
<g id="edge36" class="edge"><title>Node14&#45;&gt;Node18</title>
<path fill="none" stroke="midnightblue" d="M267.58,-116.362C262.844,-108.513 256.268,-97.6159 250.618,-88.2527"/>
<polygon fill="midnightblue" stroke="midnightblue" points="253.542,-86.3242 245.379,-79.5707 247.549,-89.9409 253.542,-86.3242"/>
</g>
<!-- Node19 -->
<g id="node38" class="node"><title>Node19</title>
<a xlink:href="AmbientLightSensor_8h.htm" target="_top" xlink:title="AmbientLightSensor.h">
<polygon fill="white" stroke="black" points="315.5,-58.5 315.5,-79.5 434.5,-79.5 434.5,-58.5 315.5,-58.5"/>
<text text-anchor="middle" x="375" y="-66.5" font-family="Helvetica,sans-Serif" font-size="10.00">AmbientLightSensor.h</text>
</a>
</g>
<!-- Node14&#45;&gt;Node19 -->
<g id="edge38" class="edge"><title>Node14&#45;&gt;Node19</title>
<path fill="none" stroke="midnightblue" d="M292.525,-116.362C307.901,-107.532 329.996,-94.844 347.447,-84.8224"/>
<polygon fill="midnightblue" stroke="midnightblue" points="349.664,-87.5857 356.592,-79.5707 346.178,-81.5154 349.664,-87.5857"/>
</g>
<!-- Node20 -->
<g id="node41" class="node"><title>Node20</title>
<polygon fill="white" stroke="#bfbfbf" points="249,-0.5 249,-21.5 327,-21.5 327,-0.5 249,-0.5"/>
<text text-anchor="middle" x="288" y="-8.5" font-family="Helvetica,sans-Serif" font-size="10.00">lunaservice.h</text>
</g>
<!-- Node14&#45;&gt;Node20 -->
<g id="edge60" class="edge"><title>Node14&#45;&gt;Node20</title>
<path fill="none" stroke="midnightblue" d="M225.245,-116.497C178.318,-105.898 113.391,-89.742 106,-80 100.09,-72.2102 100.013,-65.7301 106,-58 122.185,-37.105 190.751,-23.8355 238.933,-16.907"/>
<polygon fill="midnightblue" stroke="midnightblue" points="239.456,-20.368 248.879,-15.5243 238.492,-13.4347 239.456,-20.368"/>
</g>
<!-- Node21 -->
<g id="node44" class="node"><title>Node21</title>
<a xlink:href="DisplayStates_8h.htm" target="_top" xlink:title="DisplayStates.h">
<polygon fill="white" stroke="black" points="527.5,-58.5 527.5,-79.5 616.5,-79.5 616.5,-58.5 527.5,-58.5"/>
<text text-anchor="middle" x="572" y="-66.5" font-family="Helvetica,sans-Serif" font-size="10.00">DisplayStates.h</text>
</a>
</g>
<!-- Node14&#45;&gt;Node21 -->
<g id="edge46" class="edge"><title>Node14&#45;&gt;Node21</title>
<path fill="none" stroke="midnightblue" d="M325.228,-117.029C378.806,-106.602 462.581,-90.2962 517.39,-79.6288"/>
<polygon fill="midnightblue" stroke="midnightblue" points="518.126,-83.0513 527.273,-77.7052 516.789,-76.1802 518.126,-83.0513"/>
</g>
<!-- Node23 -->
<g id="node51" class="node"><title>Node23</title>
<polygon fill="white" stroke="#bfbfbf" points="672,-58.5 672,-79.5 724,-79.5 724,-58.5 672,-58.5"/>
<text text-anchor="middle" x="698" y="-66.5" font-family="Helvetica,sans-Serif" font-size="10.00">QEvent</text>
</g>
<!-- Node14&#45;&gt;Node23 -->
<g id="edge56" class="edge"><title>Node14&#45;&gt;Node23</title>
<path fill="none" stroke="midnightblue" d="M325.037,-121.176C421.998,-110.05 626.043,-86.3144 658,-80 659.272,-79.7487 660.563,-79.4784 661.863,-79.1929"/>
<polygon fill="midnightblue" stroke="midnightblue" points="662.982,-82.5234 671.881,-76.7735 661.339,-75.719 662.982,-82.5234"/>
</g>
<!-- Node19&#45;&gt;Node11 -->
<g id="edge40" class="edge"><title>Node19&#45;&gt;Node11</title>
<path fill="none" stroke="midnightblue" d="M434.55,-64.4351C460.491,-62.4508 491.249,-60.1034 519,-58 737.233,-41.4592 998.347,-21.8975 1100.25,-14.2721"/>
<polygon fill="midnightblue" stroke="midnightblue" points="1100.75,-17.7445 1110.46,-13.508 1100.23,-10.764 1100.75,-17.7445"/>
</g>
<!-- Node19&#45;&gt;Node12 -->
<g id="edge44" class="edge"><title>Node19&#45;&gt;Node12</title>
<path fill="none" stroke="midnightblue" d="M378.118,-58.3619C380.323,-50.8401 383.348,-40.5187 386.012,-31.4308"/>
<polygon fill="midnightblue" stroke="midnightblue" points="389.448,-32.1514 388.902,-21.5707 382.73,-30.1825 389.448,-32.1514"/>
</g>
<!-- Node19&#45;&gt;Node20 -->
<g id="edge42" class="edge"><title>Node19&#45;&gt;Node20</title>
<path fill="none" stroke="midnightblue" d="M359.043,-58.3619C346.043,-49.6955 327.469,-37.3126 312.573,-27.3819"/>
<polygon fill="midnightblue" stroke="midnightblue" points="314.118,-24.2055 303.856,-21.5707 310.235,-30.0299 314.118,-24.2055"/>
</g>
<!-- Node21&#45;&gt;Node11 -->
<g id="edge48" class="edge"><title>Node21&#45;&gt;Node11</title>
<path fill="none" stroke="midnightblue" d="M616.577,-60.0977C621.101,-59.3287 625.636,-58.612 630,-58 803.319,-33.6979 1011.36,-19.1204 1100.26,-13.5745"/>
<polygon fill="midnightblue" stroke="midnightblue" points="1100.73,-17.052 1110.5,-12.9429 1100.3,-10.0653 1100.73,-17.052"/>
</g>
<!-- Node21&#45;&gt;Node15 -->
<g id="edge50" class="edge"><title>Node21&#45;&gt;Node15</title>
<path fill="none" stroke="midnightblue" d="M572,-58.3619C572,-50.9219 572,-40.7427 572,-31.7276"/>
<polygon fill="midnightblue" stroke="midnightblue" points="575.5,-31.5706 572,-21.5707 568.5,-31.5707 575.5,-31.5706"/>
</g>
<!-- Node21&#45;&gt;Node17 -->
<g id="edge52" class="edge"><title>Node21&#45;&gt;Node17</title>
<path fill="none" stroke="midnightblue" d="M552.925,-58.3619C536.945,-49.4502 513.919,-36.6087 495.873,-26.5447"/>
<polygon fill="midnightblue" stroke="midnightblue" points="497.393,-23.3846 486.954,-21.5707 493.983,-29.4982 497.393,-23.3846"/>
</g>
<!-- Node22 -->
<g id="node49" class="node"><title>Node22</title>
<polygon fill="white" stroke="#bfbfbf" points="1611.5,-0.5 1611.5,-21.5 1674.5,-21.5 1674.5,-0.5 1611.5,-0.5"/>
<text text-anchor="middle" x="1643" y="-8.5" font-family="Helvetica,sans-Serif" font-size="10.00">Settings.h</text>
</g>
<!-- Node21&#45;&gt;Node22 -->
<g id="edge54" class="edge"><title>Node21&#45;&gt;Node22</title>
<path fill="none" stroke="midnightblue" d="M616.831,-62.9272C631.52,-61.1123 647.936,-59.2701 663,-58 1025.33,-27.4531 1464.81,-15.1697 1600.84,-11.9313"/>
<polygon fill="midnightblue" stroke="midnightblue" points="1601.3,-15.4216 1611.22,-11.688 1601.14,-8.4235 1601.3,-15.4216"/>
</g>
<!-- Node24&#45;&gt;Node11 -->
<g id="edge64" class="edge"><title>Node24&#45;&gt;Node11</title>
<path fill="none" stroke="midnightblue" d="M792.697,-116.332C806.05,-100.751 833.205,-72.0936 863,-58 904.253,-38.4864 1032.03,-22.6843 1100.17,-15.3818"/>
<polygon fill="midnightblue" stroke="midnightblue" points="1100.59,-18.8565 1110.17,-14.325 1099.86,-11.8953 1100.59,-18.8565"/>
</g>
<!-- Node24&#45;&gt;Node13 -->
<g id="edge66" class="edge"><title>Node24&#45;&gt;Node13</title>
<path fill="none" stroke="midnightblue" d="M803.739,-116.497C820.61,-107.519 845.109,-94.4835 864.174,-84.3387"/>
<polygon fill="midnightblue" stroke="midnightblue" points="865.856,-87.4086 873.039,-79.6212 862.567,-81.2289 865.856,-87.4086"/>
</g>
<!-- Node24&#45;&gt;Node15 -->
<g id="edge74" class="edge"><title>Node24&#45;&gt;Node15</title>
<path fill="none" stroke="midnightblue" d="M778.999,-116.423C771.27,-101.222 754.99,-73.3419 733,-58 695.343,-31.7281 642.991,-19.9889 608.335,-14.8471"/>
<polygon fill="midnightblue" stroke="midnightblue" points="608.567,-11.3461 598.184,-13.4544 607.615,-18.2812 608.567,-11.3461"/>
</g>
<!-- Node24&#45;&gt;Node20 -->
<g id="edge70" class="edge"><title>Node24&#45;&gt;Node20</title>
<path fill="none" stroke="midnightblue" d="M738.4,-117.324C735.563,-116.842 732.746,-116.395 730,-116 636.622,-102.562 379.549,-140.305 307,-80 293.083,-68.4319 288.852,-47.6922 287.79,-31.9615"/>
<polygon fill="midnightblue" stroke="midnightblue" points="291.278,-31.4874 287.484,-21.5952 284.281,-31.6942 291.278,-31.4874"/>
</g>
<!-- Node24&#45;&gt;Node23 -->
<g id="edge72" class="edge"><title>Node24&#45;&gt;Node23</title>
<path fill="none" stroke="midnightblue" d="M768.226,-116.362C755.376,-107.696 737.015,-95.3126 722.29,-85.3819"/>
<polygon fill="midnightblue" stroke="midnightblue" points="723.921,-82.2604 713.674,-79.5707 720.007,-88.0639 723.921,-82.2604"/>
</g>
<!-- Node25 -->
<g id="node59" class="node"><title>Node25</title>
<polygon fill="white" stroke="#bfbfbf" points="779.5,-58.5 779.5,-79.5 816.5,-79.5 816.5,-58.5 779.5,-58.5"/>
<text text-anchor="middle" x="798" y="-66.5" font-family="Helvetica,sans-Serif" font-size="10.00">map</text>
</g>
<!-- Node24&#45;&gt;Node25 -->
<g id="edge68" class="edge"><title>Node24&#45;&gt;Node25</title>
<path fill="none" stroke="midnightblue" d="M786.568,-116.362C788.383,-108.84 790.875,-98.5187 793.068,-89.4308"/>
<polygon fill="midnightblue" stroke="midnightblue" points="796.504,-90.1127 795.448,-79.5707 789.7,-88.4702 796.504,-90.1127"/>
</g>
<!-- Node27&#45;&gt;Node11 -->
<g id="edge80" class="edge"><title>Node27&#45;&gt;Node11</title>
<path fill="none" stroke="midnightblue" d="M1111.34,-58.3619C1116.81,-50.4313 1124.42,-39.3885 1130.92,-29.9606"/>
<polygon fill="midnightblue" stroke="midnightblue" points="1133.91,-31.7899 1136.71,-21.5707 1128.15,-27.8157 1133.91,-31.7899"/>
</g>
<!-- Node28&#45;&gt;Node11 -->
<g id="edge84" class="edge"><title>Node28&#45;&gt;Node11</title>
<path fill="none" stroke="midnightblue" d="M1004.79,-58.4966C1032.38,-49.082 1073.06,-35.2036 1103.33,-24.8773"/>
<polygon fill="midnightblue" stroke="midnightblue" points="1104.82,-28.0646 1113.16,-21.5231 1102.56,-21.4396 1104.82,-28.0646"/>
</g>
<!-- Node28&#45;&gt;Node28 -->
<g id="edge86" class="edge"><title>Node28&#45;&gt;Node28</title>
<path fill="none" stroke="midnightblue" d="M1004.56,-79.5239C1020.08,-81.0607 1034,-77.5527 1034,-69 1034,-62.385 1025.67,-58.7878 1014.72,-58.2084"/>
<polygon fill="midnightblue" stroke="midnightblue" points="1014.47,-54.7138 1004.56,-58.4761 1014.65,-61.7114 1014.47,-54.7138"/>
</g>
<!-- Node29&#45;&gt;Node3 -->
<g id="edge92" class="edge"><title>Node29&#45;&gt;Node3</title>
<path fill="none" stroke="midnightblue" d="M1334.99,-116.362C1341.83,-108.268 1351.4,-96.9318 1359.47,-87.3796"/>
<polygon fill="midnightblue" stroke="midnightblue" points="1362.29,-89.4683 1366.07,-79.5707 1356.94,-84.9508 1362.29,-89.4683"/>
</g>
<!-- Node29&#45;&gt;Node11 -->
<g id="edge90" class="edge"><title>Node29&#45;&gt;Node11</title>
<path fill="none" stroke="midnightblue" d="M1321.39,-116.311C1314.37,-101.229 1299.59,-73.7823 1279,-58 1252.25,-37.4959 1215.88,-25.519 1187.63,-18.7926"/>
<polygon fill="midnightblue" stroke="midnightblue" points="1188.15,-15.3216 1177.63,-16.546 1186.62,-22.1516 1188.15,-15.3216"/>
</g>
<!-- Node29&#45;&gt;Node30 -->
<g id="edge94" class="edge"><title>Node29&#45;&gt;Node30</title>
<path fill="none" stroke="midnightblue" d="M1310.41,-116.362C1297.71,-107.696 1279.56,-95.3126 1265.01,-85.3819"/>
<polygon fill="midnightblue" stroke="midnightblue" points="1266.72,-82.316 1256.49,-79.5707 1262.78,-88.0982 1266.72,-82.316"/>
</g>
<!-- Node31&#45;&gt;Node3 -->
<g id="edge102" class="edge"><title>Node31&#45;&gt;Node3</title>
<path fill="none" stroke="midnightblue" d="M1456.66,-116.362C1441.43,-107.532 1419.56,-94.844 1402.28,-84.8224"/>
<polygon fill="midnightblue" stroke="midnightblue" points="1403.63,-81.5603 1393.23,-79.5707 1400.12,-87.6155 1403.63,-81.5603"/>
</g>
<!-- Node31&#45;&gt;Node5 -->
<g id="edge98" class="edge"><title>Node31&#45;&gt;Node5</title>
<path fill="none" stroke="midnightblue" d="M1498.18,-116.497C1518.35,-107.356 1547.81,-94.0082 1570.36,-83.7883"/>
<polygon fill="midnightblue" stroke="midnightblue" points="1571.9,-86.9366 1579.56,-79.6212 1569.01,-80.5606 1571.9,-86.9366"/>
</g>
<!-- Node31&#45;&gt;Node11 -->
<g id="edge100" class="edge"><title>Node31&#45;&gt;Node11</title>
<path fill="none" stroke="midnightblue" d="M1471.72,-116.354C1466.33,-100.8 1454.05,-72.1773 1433,-58 1393.75,-31.5685 1258.72,-18.7227 1187.99,-13.6823"/>
<polygon fill="midnightblue" stroke="midnightblue" points="1187.85,-10.1641 1177.63,-12.967 1187.37,-17.1475 1187.85,-10.1641"/>
</g>
<!-- Node31&#45;&gt;Node32 -->
<g id="edge104" class="edge"><title>Node31&#45;&gt;Node32</title>
<path fill="none" stroke="midnightblue" d="M1483.25,-116.362C1489.47,-108.35 1498.15,-97.1605 1505.51,-87.6696"/>
<polygon fill="midnightblue" stroke="midnightblue" points="1508.43,-89.617 1511.8,-79.5707 1502.9,-85.326 1508.43,-89.617"/>
</g>
<!-- Node45&#45;&gt;Node11 -->
<g id="edge142" class="edge"><title>Node45&#45;&gt;Node11</title>
<path fill="none" stroke="midnightblue" d="M1978.02,-174.298C1978.83,-159.449 1978.02,-132.559 1964,-116 1915.66,-58.9122 1879.14,-73.6922 1806,-58 1687.38,-32.5508 1315.98,-17.1677 1187.92,-12.5102"/>
<polygon fill="midnightblue" stroke="midnightblue" points="1187.83,-9.00467 1177.71,-12.1428 1187.58,-16.0001 1187.83,-9.00467"/>
</g>
<!-- Node45&#45;&gt;Node22 -->
<g id="edge148" class="edge"><title>Node45&#45;&gt;Node22</title>
<path fill="none" stroke="midnightblue" d="M1983.68,-174.248C1997.66,-150.205 2026.42,-91.5788 1997,-58 1976.66,-34.7857 1773.8,-19.2499 1684.66,-13.4919"/>
<polygon fill="midnightblue" stroke="midnightblue" points="1684.82,-9.99547 1674.62,-12.8541 1684.38,-16.9814 1684.82,-9.99547"/>
</g>
<!-- Node45&#45;&gt;Node39 -->
<g id="edge144" class="edge"><title>Node45&#45;&gt;Node39</title>
<path fill="none" stroke="midnightblue" d="M1924.19,-174.411C1882.37,-165.832 1822.26,-153.076 1761.2,-138.214"/>
<polygon fill="midnightblue" stroke="midnightblue" points="1761.95,-134.792 1751.4,-135.811 1760.28,-141.591 1761.95,-134.792"/>
</g>
<!-- Node46 -->
<g id="node119" class="node"><title>Node46</title>
<polygon fill="white" stroke="#bfbfbf" points="1768.5,-116.5 1768.5,-137.5 1817.5,-137.5 1817.5,-116.5 1768.5,-116.5"/>
<text text-anchor="middle" x="1793" y="-124.5" font-family="Helvetica,sans-Serif" font-size="10.00">QPoint</text>
</g>
<!-- Node45&#45;&gt;Node46 -->
<g id="edge146" class="edge"><title>Node45&#45;&gt;Node46</title>
<path fill="none" stroke="midnightblue" d="M1943.68,-174.497C1910.74,-164.113 1860.57,-148.298 1827.29,-137.809"/>
<polygon fill="midnightblue" stroke="midnightblue" points="1828.13,-134.405 1817.54,-134.737 1826.03,-141.081 1828.13,-134.405"/>
</g>
<!-- Node47 -->
<g id="node122" class="node"><title>Node47</title>
<polygon fill="white" stroke="#bfbfbf" points="1872.5,-116.5 1872.5,-137.5 1955.5,-137.5 1955.5,-116.5 1872.5,-116.5"/>
<text text-anchor="middle" x="1914" y="-124.5" font-family="Helvetica,sans-Serif" font-size="10.00">SysMgrDefs.h</text>
</g>
<!-- Node45&#45;&gt;Node47 -->
<g id="edge150" class="edge"><title>Node45&#45;&gt;Node47</title>
<path fill="none" stroke="midnightblue" d="M1965.44,-174.362C1956.39,-166.023 1943.59,-154.242 1933.03,-144.516"/>
<polygon fill="midnightblue" stroke="midnightblue" points="1935.21,-141.769 1925.48,-137.571 1930.47,-146.919 1935.21,-141.769"/>
</g>
<!-- Node48&#45;&gt;Node39 -->
<g id="edge156" class="edge"><title>Node48&#45;&gt;Node39</title>
<path fill="none" stroke="midnightblue" d="M1724.08,-174.362C1723.44,-166.922 1722.56,-156.743 1721.79,-147.728"/>
<polygon fill="midnightblue" stroke="midnightblue" points="1725.26,-147.233 1720.91,-137.571 1718.28,-147.834 1725.26,-147.233"/>
</g>
<!-- Node48&#45;&gt;Node46 -->
<g id="edge154" class="edge"><title>Node48&#45;&gt;Node46</title>
<path fill="none" stroke="midnightblue" d="M1737.47,-174.362C1747.35,-165.941 1761.33,-154.011 1772.8,-144.231"/>
<polygon fill="midnightblue" stroke="midnightblue" points="1775.27,-146.723 1780.61,-137.571 1770.73,-141.397 1775.27,-146.723"/>
</g>
<!-- Node49&#45;&gt;Node11 -->
<g id="edge160" class="edge"><title>Node49&#45;&gt;Node11</title>
<path fill="none" stroke="midnightblue" d="M1858.1,-174.48C1850.35,-148.726 1826.44,-82.8106 1779,-58 1726.91,-30.7592 1322.99,-16.3388 1187.87,-12.2406"/>
<polygon fill="midnightblue" stroke="midnightblue" points="1187.97,-8.74205 1177.86,-11.9413 1187.76,-15.7389 1187.97,-8.74205"/>
</g>
<!-- Node49&#45;&gt;Node39 -->
<g id="edge162" class="edge"><title>Node49&#45;&gt;Node39</title>
<path fill="none" stroke="midnightblue" d="M1835.47,-174.497C1813.05,-165.275 1780.22,-151.769 1755.29,-141.515"/>
<polygon fill="midnightblue" stroke="midnightblue" points="1756.4,-138.189 1745.82,-137.621 1753.74,-144.662 1756.4,-138.189"/>
</g>
<!-- Node49&#45;&gt;Node46 -->
<g id="edge164" class="edge"><title>Node49&#45;&gt;Node46</title>
<path fill="none" stroke="midnightblue" d="M1848.53,-174.362C1838.65,-165.941 1824.67,-154.011 1813.2,-144.231"/>
<polygon fill="midnightblue" stroke="midnightblue" points="1815.27,-141.397 1805.39,-137.571 1810.73,-146.723 1815.27,-141.397"/>
</g>
<!-- Node49&#45;&gt;Node47 -->
<g id="edge166" class="edge"><title>Node49&#45;&gt;Node47</title>
<path fill="none" stroke="midnightblue" d="M1870.72,-174.362C1878.19,-166.186 1888.69,-154.702 1897.47,-145.091"/>
<polygon fill="midnightblue" stroke="midnightblue" points="1900.18,-147.314 1904.34,-137.571 1895.01,-142.592 1900.18,-147.314"/>
</g>
<!-- Node50&#45;&gt;Node11 -->
<g id="edge170" class="edge"><title>Node50&#45;&gt;Node11</title>
<path fill="none" stroke="midnightblue" d="M1577.82,-174.411C1594.66,-164.919 1620.01,-150.59 1642,-138 1658.94,-128.303 1662.57,-124.786 1680,-116 1715.9,-97.8966 1740.94,-113.617 1763,-80 1768.36,-71.8254 1769.65,-65.1709 1763,-58 1743.45,-36.9121 1326.21,-18.3168 1188.02,-12.7167"/>
<polygon fill="midnightblue" stroke="midnightblue" points="1187.93,-9.21039 1177.8,-12.3056 1187.65,-16.2047 1187.93,-9.21039"/>
</g>
<!-- Node50&#45;&gt;Node39 -->
<g id="edge172" class="edge"><title>Node50&#45;&gt;Node39</title>
<path fill="none" stroke="midnightblue" d="M1588.16,-174.497C1614.18,-165.123 1652.48,-151.324 1681.1,-141.012"/>
<polygon fill="midnightblue" stroke="midnightblue" points="1682.57,-144.205 1690.79,-137.523 1680.2,-137.62 1682.57,-144.205"/>
</g>
<!-- Node50&#45;&gt;Node46 -->
<g id="edge174" class="edge"><title>Node50&#45;&gt;Node46</title>
<path fill="none" stroke="midnightblue" d="M1609.72,-174.494C1648.33,-166.191 1702.94,-153.791 1758.55,-138.262"/>
<polygon fill="midnightblue" stroke="midnightblue" points="1759.54,-141.62 1768.21,-135.535 1757.63,-134.883 1759.54,-141.62"/>
</g>
</g>
</svg>
