<?xml version="1.0" encoding="UTF-8" standalone="no"?>
<!DOCTYPE svg PUBLIC "-//W3C//DTD SVG 1.1//EN"
 "http://www.w3.org/Graphics/SVG/1.1/DTD/svg11.dtd">
<!-- Generated by graphviz version 2.26.3 (20100126.1600)
 -->
<!-- Title: Graphical Class Hierarchy Pages: 1 -->
<svg width="416pt" height="90pt"
 viewBox="0.00 0.00 416.00 90.00" xmlns="http://www.w3.org/2000/svg" xmlns:xlink="http://www.w3.org/1999/xlink">
<g id="graph1" class="graph" transform="scale(1 1) rotate(0) translate(4 86)">
<title>Graphical Class Hierarchy</title>
<polygon fill="white" stroke="white" points="-4,5 -4,-86 413,-86 413,5 -4,5"/>
<!-- Node1 -->
<g id="node1" class="node"><title>Node1</title>
<a xlink:href="classQGraphicsEffect.htm" target="_top" xlink:title="QGraphicsEffect">
<polygon fill="white" stroke="black" points="0.5,-40.5 0.5,-61.5 95.5,-61.5 95.5,-40.5 0.5,-40.5"/>
<text text-anchor="middle" x="48" y="-48.5" font-family="Helvetica,sans-Serif" font-size="10.00">QGraphicsEffect</text>
</a>
</g>
<!-- Node2 -->
<g id="node3" class="node"><title>Node2</title>
<a xlink:href="classCardDropShadowEffect.htm" target="_top" xlink:title="CardDropShadowEffect">
<polygon fill="white" stroke="black" points="132,-60.5 132,-81.5 260,-81.5 260,-60.5 132,-60.5"/>
<text text-anchor="middle" x="196" y="-68.5" font-family="Helvetica,sans-Serif" font-size="10.00">CardDropShadowEffect</text>
</a>
</g>
<!-- Node1&#45;&gt;Node2 -->
<g id="edge2" class="edge"><title>Node1&#45;&gt;Node2</title>
<path fill="none" stroke="midnightblue" d="M105.615,-58.7859C114.259,-59.954 123.217,-61.1645 131.984,-62.3493"/>
<polygon fill="midnightblue" stroke="midnightblue" points="106.021,-55.309 95.6428,-57.4382 105.084,-62.246 106.021,-55.309"/>
</g>
<!-- Node3 -->
<g id="node5" class="node"><title>Node3</title>
<a xlink:href="classGfxEffectBase.htm" target="_top" xlink:title="GfxEffectBase">
<polygon fill="white" stroke="black" points="154,-20.5 154,-41.5 238,-41.5 238,-20.5 154,-20.5"/>
<text text-anchor="middle" x="196" y="-28.5" font-family="Helvetica,sans-Serif" font-size="10.00">GfxEffectBase</text>
</a>
</g>
<!-- Node1&#45;&gt;Node3 -->
<g id="edge4" class="edge"><title>Node1&#45;&gt;Node3</title>
<path fill="none" stroke="midnightblue" d="M105.974,-43.1657C121.975,-41.0033 139.028,-38.699 153.939,-36.684"/>
<polygon fill="midnightblue" stroke="midnightblue" points="105.084,-39.754 95.6428,-44.5618 106.021,-46.691 105.084,-39.754"/>
</g>
<!-- Node4 -->
<g id="node7" class="node"><title>Node4</title>
<a xlink:href="classGfxEffectGLSLBase.htm" target="_top" xlink:title="GfxEffectGLSLBase">
<polygon fill="white" stroke="black" points="296.5,-40.5 296.5,-61.5 407.5,-61.5 407.5,-40.5 296.5,-40.5"/>
<text text-anchor="middle" x="352" y="-48.5" font-family="Helvetica,sans-Serif" font-size="10.00">GfxEffectGLSLBase</text>
</a>
</g>
<!-- Node3&#45;&gt;Node4 -->
<g id="edge6" class="edge"><title>Node3&#45;&gt;Node4</title>
<path fill="none" stroke="midnightblue" d="M248.569,-37.7396C263.913,-39.7068 280.731,-41.863 296.264,-43.8543"/>
<polygon fill="midnightblue" stroke="midnightblue" points="248.58,-34.2124 238.216,-36.4123 247.69,-41.1556 248.58,-34.2124"/>
</g>
<!-- Node5 -->
<g id="node9" class="node"><title>Node5</title>
<a xlink:href="classGfxSepiaEffect.htm" target="_top" xlink:title="GfxSepiaEffect">
<polygon fill="white" stroke="black" points="308.5,-0.5 308.5,-21.5 395.5,-21.5 395.5,-0.5 308.5,-0.5"/>
<text text-anchor="middle" x="352" y="-8.5" font-family="Helvetica,sans-Serif" font-size="10.00">GfxSepiaEffect</text>
</a>
</g>
<!-- Node3&#45;&gt;Node5 -->
<g id="edge8" class="edge"><title>Node3&#45;&gt;Node5</title>
<path fill="none" stroke="midnightblue" d="M248.183,-24.3099C267.725,-21.8045 289.704,-18.9867 308.391,-16.591"/>
<polygon fill="midnightblue" stroke="midnightblue" points="247.69,-20.8444 238.216,-25.5877 248.58,-27.7876 247.69,-20.8444"/>
</g>
</g>
</svg>
