<?xml version="1.0" encoding="UTF-8" standalone="no"?>
<!DOCTYPE svg PUBLIC "-//W3C//DTD SVG 1.1//EN"
 "http://www.w3.org/Graphics/SVG/1.1/DTD/svg11.dtd">
<!-- Generated by graphviz version 2.26.3 (20100126.1600)
 -->
<!-- Title: Graphical Class Hierarchy Pages: 1 -->
<svg width="308pt" height="82pt"
 viewBox="0.00 0.00 308.00 82.00" xmlns="http://www.w3.org/2000/svg" xmlns:xlink="http://www.w3.org/1999/xlink">
<g id="graph1" class="graph" transform="scale(1 1) rotate(0) translate(4 78)">
<title>Graphical Class Hierarchy</title>
<polygon fill="white" stroke="white" points="-4,5 -4,-78 305,-78 305,5 -4,5"/>
<!-- Node1 -->
<g id="node1" class="node"><title>Node1</title>
<a xlink:href="classSuspendBlockerBase.htm" target="_top" xlink:title="SuspendBlockerBase">
<polygon fill="white" stroke="black" points="0.5,-29.5 0.5,-50.5 117.5,-50.5 117.5,-29.5 0.5,-29.5"/>
<text text-anchor="middle" x="59" y="-37.5" font-family="Helvetica,sans-Serif" font-size="10.00">SuspendBlockerBase</text>
</a>
</g>
<!-- Node2 -->
<g id="node3" class="node"><title>Node2</title>
<a xlink:href="classSuspendBlocker.htm" target="_top" xlink:title="SuspendBlocker\&lt; Target \&gt;">
<polygon fill="white" stroke="black" points="155.5,-52.5 155.5,-73.5 298.5,-73.5 298.5,-52.5 155.5,-52.5"/>
<text text-anchor="middle" x="227" y="-60.5" font-family="Helvetica,sans-Serif" font-size="10.00">SuspendBlocker&lt; Target &gt;</text>
</a>
</g>
<!-- Node1&#45;&gt;Node2 -->
<g id="edge2" class="edge"><title>Node1&#45;&gt;Node2</title>
<path fill="none" stroke="midnightblue" d="M127.843,-49.425C136.888,-50.6632 146.175,-51.9346 155.266,-53.1792"/>
<polygon fill="midnightblue" stroke="midnightblue" points="128.141,-45.9331 117.758,-48.0443 127.191,-52.8684 128.141,-45.9331"/>
</g>
<!-- Node3 -->
<g id="node5" class="node"><title>Node3</title>
<a xlink:href="classSuspendBlocker.htm" target="_top" xlink:title="SuspendBlocker\&lt; SystemUi\lController \&gt;">
<polygon fill="white" stroke="black" points="154,-0 154,-34 300,-34 300,-0 154,-0"/>
<text text-anchor="start" x="162" y="-21" font-family="Helvetica,sans-Serif" font-size="10.00">SuspendBlocker&lt; SystemUi</text>
<text text-anchor="middle" x="227" y="-8" font-family="Helvetica,sans-Serif" font-size="10.00">Controller &gt;</text>
</a>
</g>
<!-- Node1&#45;&gt;Node3 -->
<g id="edge4" class="edge"><title>Node1&#45;&gt;Node3</title>
<path fill="none" stroke="midnightblue" d="M127.725,-30.5913C136.32,-29.4145 145.137,-28.2074 153.798,-27.0218"/>
<polygon fill="midnightblue" stroke="midnightblue" points="127.191,-27.1316 117.758,-31.9557 128.141,-34.0669 127.191,-27.1316"/>
</g>
</g>
</svg>
