<?xml version="1.0" encoding="UTF-8" standalone="no"?>
<!DOCTYPE svg PUBLIC "-//W3C//DTD SVG 1.1//EN"
 "http://www.w3.org/Graphics/SVG/1.1/DTD/svg11.dtd">
<!-- Generated by graphviz version 2.26.3 (20100126.1600)
 -->
<!-- Title: Graphical Class Hierarchy Pages: 1 -->
<svg width="212pt" height="70pt"
 viewBox="0.00 0.00 212.00 70.00" xmlns="http://www.w3.org/2000/svg" xmlns:xlink="http://www.w3.org/1999/xlink">
<g id="graph1" class="graph" transform="scale(1 1) rotate(0) translate(4 66)">
<title>Graphical Class Hierarchy</title>
<polygon fill="white" stroke="white" points="-4,5 -4,-66 209,-66 209,5 -4,5"/>
<!-- Node1 -->
<g id="node1" class="node"><title>Node1</title>
<a xlink:href="classLunaConnector.htm" target="_top" xlink:title="LunaConnector">
<polygon fill="white" stroke="black" points="0.5,-40.5 0.5,-61.5 89.5,-61.5 89.5,-40.5 0.5,-40.5"/>
<text text-anchor="middle" x="45" y="-48.5" font-family="Helvetica,sans-Serif" font-size="10.00">LunaConnector</text>
</a>
</g>
<!-- Node2 -->
<g id="node3" class="node"><title>Node2</title>
<a xlink:href="classSoundPlayer.htm" target="_top" xlink:title="SoundPlayer">
<polygon fill="white" stroke="black" points="126.5,-20.5 126.5,-41.5 203.5,-41.5 203.5,-20.5 126.5,-20.5"/>
<text text-anchor="middle" x="165" y="-28.5" font-family="Helvetica,sans-Serif" font-size="10.00">SoundPlayer</text>
</a>
</g>
<!-- Node1&#45;&gt;Node2 -->
<g id="edge2" class="edge"><title>Node1&#45;&gt;Node2</title>
<path fill="none" stroke="midnightblue" d="M99.6762,-41.8873C108.625,-40.3959 117.733,-38.8779 126.195,-37.4675"/>
<polygon fill="midnightblue" stroke="midnightblue" points="98.9721,-38.4563 89.6836,-43.5527 100.123,-45.361 98.9721,-38.4563"/>
</g>
<!-- Node3 -->
<g id="node4" class="node"><title>Node3</title>
<a xlink:href="classRefCounted.htm" target="_top" xlink:title="RefCounted">
<polygon fill="white" stroke="black" points="8.5,-0.5 8.5,-21.5 81.5,-21.5 81.5,-0.5 8.5,-0.5"/>
<text text-anchor="middle" x="45" y="-8.5" font-family="Helvetica,sans-Serif" font-size="10.00">RefCounted</text>
</a>
</g>
<!-- Node3&#45;&gt;Node2 -->
<g id="edge4" class="edge"><title>Node3&#45;&gt;Node2</title>
<path fill="none" stroke="midnightblue" d="M91.5788,-18.7631C103.127,-20.6879 115.375,-22.7292 126.49,-24.5816"/>
<polygon fill="midnightblue" stroke="midnightblue" points="92.0954,-15.301 81.656,-17.1093 90.9445,-22.2058 92.0954,-15.301"/>
</g>
</g>
</svg>
