<?xml version="1.0" encoding="UTF-8" standalone="no"?>
<!DOCTYPE svg PUBLIC "-//W3C//DTD SVG 1.1//EN"
 "http://www.w3.org/Graphics/SVG/1.1/DTD/svg11.dtd">
<!-- Generated by graphviz version 2.26.3 (20100126.1600)
 -->
<!-- Title: Graphical Class Hierarchy Pages: 1 -->
<svg width="238pt" height="70pt"
 viewBox="0.00 0.00 238.00 70.00" xmlns="http://www.w3.org/2000/svg" xmlns:xlink="http://www.w3.org/1999/xlink">
<g id="graph1" class="graph" transform="scale(1 1) rotate(0) translate(4 66)">
<title>Graphical Class Hierarchy</title>
<polygon fill="white" stroke="white" points="-4,5 -4,-66 235,-66 235,5 -4,5"/>
<!-- Node1 -->
<g id="node1" class="node"><title>Node1</title>
<a xlink:href="classCommandParams.htm" target="_top" xlink:title="CommandParams">
<polygon fill="white" stroke="black" points="0.5,-20.5 0.5,-41.5 101.5,-41.5 101.5,-20.5 0.5,-20.5"/>
<text text-anchor="middle" x="51" y="-28.5" font-family="Helvetica,sans-Serif" font-size="10.00">CommandParams</text>
</a>
</g>
<!-- Node2 -->
<g id="node3" class="node"><title>Node2</title>
<a xlink:href="classInstallParams.htm" target="_top" xlink:title="InstallParams">
<polygon fill="white" stroke="black" points="144,-40.5 144,-61.5 224,-61.5 224,-40.5 144,-40.5"/>
<text text-anchor="middle" x="184" y="-48.5" font-family="Helvetica,sans-Serif" font-size="10.00">InstallParams</text>
</a>
</g>
<!-- Node1&#45;&gt;Node2 -->
<g id="edge2" class="edge"><title>Node1&#45;&gt;Node2</title>
<path fill="none" stroke="midnightblue" d="M111.597,-40.1123C122.518,-41.7546 133.654,-43.4291 143.812,-44.9567"/>
<polygon fill="midnightblue" stroke="midnightblue" points="112.07,-36.6442 101.661,-38.6182 111.029,-43.5664 112.07,-36.6442"/>
</g>
<!-- Node3 -->
<g id="node5" class="node"><title>Node3</title>
<a xlink:href="classRemoveParams.htm" target="_top" xlink:title="RemoveParams">
<polygon fill="white" stroke="black" points="138,-0.5 138,-21.5 230,-21.5 230,-0.5 138,-0.5"/>
<text text-anchor="middle" x="184" y="-8.5" font-family="Helvetica,sans-Serif" font-size="10.00">RemoveParams</text>
</a>
</g>
<!-- Node1&#45;&gt;Node3 -->
<g id="edge4" class="edge"><title>Node1&#45;&gt;Node3</title>
<path fill="none" stroke="midnightblue" d="M111.829,-21.8528C120.573,-20.5379 129.449,-19.2031 137.846,-17.9404"/>
<polygon fill="midnightblue" stroke="midnightblue" points="111.029,-18.4336 101.661,-23.3818 112.07,-25.3558 111.029,-18.4336"/>
</g>
</g>
</svg>
