<?xml version="1.0" encoding="UTF-8" standalone="no"?>
<!DOCTYPE svg PUBLIC "-//W3C//DTD SVG 1.1//EN"
 "http://www.w3.org/Graphics/SVG/1.1/DTD/svg11.dtd">
<!-- Generated by graphviz version 2.26.3 (20100126.1600)
 -->
<!-- Title: Graphical Class Hierarchy Pages: 1 -->
<svg width="254pt" height="190pt"
 viewBox="0.00 0.00 254.00 190.00" xmlns="http://www.w3.org/2000/svg" xmlns:xlink="http://www.w3.org/1999/xlink">
<g id="graph1" class="graph" transform="scale(1 1) rotate(0) translate(4 186)">
<title>Graphical Class Hierarchy</title>
<polygon fill="white" stroke="white" points="-4,5 -4,-186 251,-186 251,5 -4,5"/>
<!-- Node1 -->
<g id="node1" class="node"><title>Node1</title>
<a xlink:href="classQGraphicsItem.htm" target="_top" xlink:title="QGraphicsItem">
<polygon fill="white" stroke="black" points="0,-80.5 0,-101.5 88,-101.5 88,-80.5 0,-80.5"/>
<text text-anchor="middle" x="44" y="-88.5" font-family="Helvetica,sans-Serif" font-size="10.00">QGraphicsItem</text>
</a>
</g>
<!-- Node2 -->
<g id="node3" class="node"><title>Node2</title>
<a xlink:href="classFpsCounter.htm" target="_top" xlink:title="FpsCounter">
<polygon fill="white" stroke="black" points="149.5,-160.5 149.5,-181.5 220.5,-181.5 220.5,-160.5 149.5,-160.5"/>
<text text-anchor="middle" x="185" y="-168.5" font-family="Helvetica,sans-Serif" font-size="10.00">FpsCounter</text>
</a>
</g>
<!-- Node1&#45;&gt;Node2 -->
<g id="edge2" class="edge"><title>Node1&#45;&gt;Node2</title>
<path fill="none" stroke="midnightblue" d="M63.4454,-108.466C78.9339,-121.637 101.654,-139.362 124,-151 131.908,-155.118 140.83,-158.616 149.361,-161.479"/>
<polygon fill="midnightblue" stroke="midnightblue" points="65.4793,-105.597 55.633,-101.685 60.8909,-110.883 65.4793,-105.597"/>
</g>
<!-- Node3 -->
<g id="node5" class="node"><title>Node3</title>
<a xlink:href="classReorderGrid.htm" target="_top" xlink:title="ReorderGrid">
<polygon fill="white" stroke="black" points="147,-120.5 147,-141.5 223,-141.5 223,-120.5 147,-120.5"/>
<text text-anchor="middle" x="185" y="-128.5" font-family="Helvetica,sans-Serif" font-size="10.00">ReorderGrid</text>
</a>
</g>
<!-- Node1&#45;&gt;Node3 -->
<g id="edge4" class="edge"><title>Node1&#45;&gt;Node3</title>
<path fill="none" stroke="midnightblue" d="M90.7527,-104.263C109.265,-109.515 130.25,-115.468 147.712,-120.422"/>
<polygon fill="midnightblue" stroke="midnightblue" points="91.6217,-100.872 81.0461,-101.51 89.7112,-107.606 91.6217,-100.872"/>
</g>
<!-- Node4 -->
<g id="node7" class="node"><title>Node4</title>
<a xlink:href="classTouchPlot.htm" target="_top" xlink:title="TouchPlot">
<polygon fill="white" stroke="black" points="153,-80.5 153,-101.5 217,-101.5 217,-80.5 153,-80.5"/>
<text text-anchor="middle" x="185" y="-88.5" font-family="Helvetica,sans-Serif" font-size="10.00">TouchPlot</text>
</a>
</g>
<!-- Node1&#45;&gt;Node4 -->
<g id="edge6" class="edge"><title>Node1&#45;&gt;Node4</title>
<path fill="none" stroke="midnightblue" d="M98.4763,-91C116.746,-91 136.531,-91 152.565,-91"/>
<polygon fill="midnightblue" stroke="midnightblue" points="98.2265,-87.5001 88.2264,-91 98.2264,-94.5001 98.2265,-87.5001"/>
</g>
<!-- Node5 -->
<g id="node9" class="node"><title>Node5</title>
<a xlink:href="classUiRootItem.htm" target="_top" xlink:title="UiRootItem">
<polygon fill="white" stroke="black" points="150.5,-40.5 150.5,-61.5 219.5,-61.5 219.5,-40.5 150.5,-40.5"/>
<text text-anchor="middle" x="185" y="-48.5" font-family="Helvetica,sans-Serif" font-size="10.00">UiRootItem</text>
</a>
</g>
<!-- Node1&#45;&gt;Node5 -->
<g id="edge8" class="edge"><title>Node1&#45;&gt;Node5</title>
<path fill="none" stroke="midnightblue" d="M90.8827,-77.6999C110.23,-72.2114 132.26,-65.9616 150.14,-60.8892"/>
<polygon fill="midnightblue" stroke="midnightblue" points="89.7112,-74.3941 81.0461,-80.4905 91.6217,-81.1283 89.7112,-74.3941"/>
</g>
<!-- Node6 -->
<g id="node11" class="node"><title>Node6</title>
<a xlink:href="classWindowServerOverlay.htm" target="_top" xlink:title="WindowServerOverlay">
<polygon fill="white" stroke="black" points="124,-0.5 124,-21.5 246,-21.5 246,-0.5 124,-0.5"/>
<text text-anchor="middle" x="185" y="-8.5" font-family="Helvetica,sans-Serif" font-size="10.00">WindowServerOverlay</text>
</a>
</g>
<!-- Node1&#45;&gt;Node6 -->
<g id="edge10" class="edge"><title>Node1&#45;&gt;Node6</title>
<path fill="none" stroke="midnightblue" d="M63.4454,-73.5339C78.9339,-60.3634 101.654,-42.6383 124,-31 131.018,-27.3448 138.835,-24.1787 146.469,-21.5116"/>
<polygon fill="midnightblue" stroke="midnightblue" points="60.8909,-71.1166 55.633,-80.3148 65.4793,-76.4031 60.8909,-71.1166"/>
</g>
</g>
</svg>
