<?xml version="1.0" encoding="UTF-8" standalone="no"?>
<!DOCTYPE svg PUBLIC "-//W3C//DTD SVG 1.1//EN"
 "http://www.w3.org/Graphics/SVG/1.1/DTD/svg11.dtd">
<!-- Generated by graphviz version 2.26.3 (20100126.1600)
 -->
<!-- Title: Graphical Class Hierarchy Pages: 1 -->
<svg width="308pt" height="238pt"
 viewBox="0.00 0.00 308.00 238.00" xmlns="http://www.w3.org/2000/svg" xmlns:xlink="http://www.w3.org/1999/xlink">
<g id="graph1" class="graph" transform="scale(1 1) rotate(0) translate(4 234)">
<title>Graphical Class Hierarchy</title>
<polygon fill="white" stroke="white" points="-4,5 -4,-234 305,-234 305,5 -4,5"/>
<!-- Node1 -->
<g id="node1" class="node"><title>Node1</title>
<polygon fill="white" stroke="#bfbfbf" points="0.5,-110.5 0.5,-131.5 105.5,-131.5 105.5,-110.5 0.5,-110.5"/>
<text text-anchor="middle" x="53" y="-118.5" font-family="Helvetica,sans-Serif" font-size="10.00">QVariantAnimation</text>
</g>
<!-- Node2 -->
<g id="node3" class="node"><title>Node2</title>
<a xlink:href="classVariantAnimation.htm" target="_top" xlink:title="VariantAnimation\&lt; Target \&gt;">
<polygon fill="white" stroke="black" points="148,-208.5 148,-229.5 294,-229.5 294,-208.5 148,-208.5"/>
<text text-anchor="middle" x="221" y="-216.5" font-family="Helvetica,sans-Serif" font-size="10.00">VariantAnimation&lt; Target &gt;</text>
</a>
</g>
<!-- Node1&#45;&gt;Node2 -->
<g id="edge2" class="edge"><title>Node1&#45;&gt;Node2</title>
<path fill="none" stroke="midnightblue" d="M68.7505,-139.086C85.2614,-156.92 112.821,-183.668 142,-199 149.264,-202.817 157.292,-205.931 165.364,-208.464"/>
<polygon fill="midnightblue" stroke="midnightblue" points="71.2783,-136.662 61.9758,-131.591 66.0856,-141.357 71.2783,-136.662"/>
</g>
<!-- Node3 -->
<g id="node5" class="node"><title>Node3</title>
<a xlink:href="classVariantAnimation.htm" target="_top" xlink:title="VariantAnimation\&lt; Dashboard\lWindowContainer \&gt;">
<polygon fill="white" stroke="black" points="142,-156 142,-190 300,-190 300,-156 142,-156"/>
<text text-anchor="start" x="150" y="-177" font-family="Helvetica,sans-Serif" font-size="10.00">VariantAnimation&lt; Dashboard</text>
<text text-anchor="middle" x="221" y="-164" font-family="Helvetica,sans-Serif" font-size="10.00">WindowContainer &gt;</text>
</a>
</g>
<!-- Node1&#45;&gt;Node3 -->
<g id="edge4" class="edge"><title>Node1&#45;&gt;Node3</title>
<path fill="none" stroke="midnightblue" d="M96.6747,-134.518C117.814,-141.062 143.421,-148.988 165.889,-155.942"/>
<polygon fill="midnightblue" stroke="midnightblue" points="97.5851,-131.136 86.9973,-131.523 95.5153,-137.823 97.5851,-131.136"/>
</g>
<!-- Node4 -->
<g id="node7" class="node"><title>Node4</title>
<a xlink:href="classVariantAnimation.htm" target="_top" xlink:title="VariantAnimation\&lt; Status\lBarTitle \&gt;">
<polygon fill="white" stroke="black" points="153.5,-104 153.5,-138 288.5,-138 288.5,-104 153.5,-104"/>
<text text-anchor="start" x="161.5" y="-125" font-family="Helvetica,sans-Serif" font-size="10.00">VariantAnimation&lt; Status</text>
<text text-anchor="middle" x="221" y="-112" font-family="Helvetica,sans-Serif" font-size="10.00">BarTitle &gt;</text>
</a>
</g>
<!-- Node1&#45;&gt;Node4 -->
<g id="edge6" class="edge"><title>Node1&#45;&gt;Node4</title>
<path fill="none" stroke="midnightblue" d="M115.811,-121C128.064,-121 140.96,-121 153.361,-121"/>
<polygon fill="midnightblue" stroke="midnightblue" points="115.695,-117.5 105.695,-121 115.695,-124.5 115.695,-117.5"/>
</g>
<!-- Node5 -->
<g id="node9" class="node"><title>Node5</title>
<a xlink:href="classVariantAnimation.htm" target="_top" xlink:title="VariantAnimation\&lt; System\lUiController \&gt;">
<polygon fill="white" stroke="black" points="151,-52 151,-86 291,-86 291,-52 151,-52"/>
<text text-anchor="start" x="159" y="-73" font-family="Helvetica,sans-Serif" font-size="10.00">VariantAnimation&lt; System</text>
<text text-anchor="middle" x="221" y="-60" font-family="Helvetica,sans-Serif" font-size="10.00">UiController &gt;</text>
</a>
</g>
<!-- Node1&#45;&gt;Node5 -->
<g id="edge8" class="edge"><title>Node1&#45;&gt;Node5</title>
<path fill="none" stroke="midnightblue" d="M96.6747,-107.482C117.814,-100.938 143.421,-93.0124 165.889,-86.0582"/>
<polygon fill="midnightblue" stroke="midnightblue" points="95.5153,-104.177 86.9973,-110.477 97.5851,-110.864 95.5153,-104.177"/>
</g>
<!-- Node6 -->
<g id="node11" class="node"><title>Node6</title>
<a xlink:href="classVariantAnimation.htm" target="_top" xlink:title="VariantAnimation\&lt; Window\lServer \&gt;">
<polygon fill="white" stroke="black" points="149.5,-0 149.5,-34 292.5,-34 292.5,-0 149.5,-0"/>
<text text-anchor="start" x="157.5" y="-21" font-family="Helvetica,sans-Serif" font-size="10.00">VariantAnimation&lt; Window</text>
<text text-anchor="middle" x="221" y="-8" font-family="Helvetica,sans-Serif" font-size="10.00">Server &gt;</text>
</a>
</g>
<!-- Node1&#45;&gt;Node6 -->
<g id="edge10" class="edge"><title>Node1&#45;&gt;Node6</title>
<path fill="none" stroke="midnightblue" d="M69.2539,-103.053C85.9748,-85.549 113.53,-59.2547 142,-43 147.768,-39.7068 154.014,-36.7575 160.38,-34.1351"/>
<polygon fill="midnightblue" stroke="midnightblue" points="66.6472,-100.716 62.3694,-110.409 71.7581,-105.499 66.6472,-100.716"/>
</g>
</g>
</svg>
