<?xml version="1.0" encoding="UTF-8" standalone="no"?>
<!DOCTYPE svg PUBLIC "-//W3C//DTD SVG 1.1//EN"
 "http://www.w3.org/Graphics/SVG/1.1/DTD/svg11.dtd">
<!-- Generated by graphviz version 2.26.3 (20100126.1600)
 -->
<!-- Title: Graphical Class Hierarchy Pages: 1 -->
<svg width="494pt" height="82pt"
 viewBox="0.00 0.00 494.00 82.00" xmlns="http://www.w3.org/2000/svg" xmlns:xlink="http://www.w3.org/1999/xlink">
<g id="graph1" class="graph" transform="scale(1 1) rotate(0) translate(4 78)">
<title>Graphical Class Hierarchy</title>
<polygon fill="white" stroke="white" points="-4,5 -4,-78 491,-78 491,5 -4,5"/>
<!-- Node1 -->
<g id="node1" class="node"><title>Node1</title>
<a xlink:href="classHostWindowData.htm" target="_top" xlink:title="HostWindowData">
<polygon fill="white" stroke="black" points="0,-29.5 0,-50.5 98,-50.5 98,-29.5 0,-29.5"/>
<text text-anchor="middle" x="49" y="-37.5" font-family="Helvetica,sans-Serif" font-size="10.00">HostWindowData</text>
</a>
</g>
<!-- Node2 -->
<g id="node3" class="node"><title>Node2</title>
<a xlink:href="classHostWindowDataSoftware.htm" target="_top" xlink:title="HostWindowDataSoftware">
<polygon fill="white" stroke="black" points="134,-29.5 134,-50.5 274,-50.5 274,-29.5 134,-29.5"/>
<text text-anchor="middle" x="204" y="-37.5" font-family="Helvetica,sans-Serif" font-size="10.00">HostWindowDataSoftware</text>
</a>
</g>
<!-- Node1&#45;&gt;Node2 -->
<g id="edge2" class="edge"><title>Node1&#45;&gt;Node2</title>
<path fill="none" stroke="midnightblue" d="M108.096,-40C116.486,-40 125.181,-40 133.756,-40"/>
<polygon fill="midnightblue" stroke="midnightblue" points="108.043,-36.5001 98.043,-40 108.043,-43.5001 108.043,-36.5001"/>
</g>
<!-- Node3 -->
<g id="node5" class="node"><title>Node3</title>
<a xlink:href="classHostWindowDataOpenGL.htm" target="_top" xlink:title="HostWindowDataOpenGL">
<polygon fill="white" stroke="black" points="328.5,-52.5 328.5,-73.5 467.5,-73.5 467.5,-52.5 328.5,-52.5"/>
<text text-anchor="middle" x="398" y="-60.5" font-family="Helvetica,sans-Serif" font-size="10.00">HostWindowDataOpenGL</text>
</a>
</g>
<!-- Node2&#45;&gt;Node3 -->
<g id="edge4" class="edge"><title>Node2&#45;&gt;Node3</title>
<path fill="none" stroke="midnightblue" d="M284.109,-49.4975C298.804,-51.2397 314.033,-53.0452 328.39,-54.7472"/>
<polygon fill="midnightblue" stroke="midnightblue" points="284.381,-46.0053 274.038,-48.3035 283.557,-52.9566 284.381,-46.0053"/>
</g>
<!-- Node4 -->
<g id="node7" class="node"><title>Node4</title>
<a xlink:href="classHostWindowDataOpenGLTextureShared.htm" target="_top" xlink:title="HostWindowDataOpenGLTexture\lShared">
<polygon fill="white" stroke="black" points="310.5,-0 310.5,-34 485.5,-34 485.5,-0 310.5,-0"/>
<text text-anchor="start" x="318.5" y="-21" font-family="Helvetica,sans-Serif" font-size="10.00">HostWindowDataOpenGLTexture</text>
<text text-anchor="middle" x="398" y="-8" font-family="Helvetica,sans-Serif" font-size="10.00">Shared</text>
</a>
</g>
<!-- Node2&#45;&gt;Node4 -->
<g id="edge6" class="edge"><title>Node2&#45;&gt;Node4</title>
<path fill="none" stroke="midnightblue" d="M284.141,-30.4988C292.834,-29.4681 301.714,-28.4154 310.489,-27.375"/>
<polygon fill="midnightblue" stroke="midnightblue" points="283.557,-27.0434 274.038,-31.6965 284.381,-33.9947 283.557,-27.0434"/>
</g>
</g>
</svg>
