<?xml version="1.0" encoding="UTF-8" standalone="no"?>
<!DOCTYPE svg PUBLIC "-//W3C//DTD SVG 1.1//EN"
 "http://www.w3.org/Graphics/SVG/1.1/DTD/svg11.dtd">
<!-- Generated by graphviz version 2.26.3 (20100126.1600)
 -->
<!-- Title: Graphical Class Hierarchy Pages: 1 -->
<svg width="264pt" height="310pt"
 viewBox="0.00 0.00 264.00 310.00" xmlns="http://www.w3.org/2000/svg" xmlns:xlink="http://www.w3.org/1999/xlink">
<g id="graph1" class="graph" transform="scale(1 1) rotate(0) translate(4 306)">
<title>Graphical Class Hierarchy</title>
<polygon fill="white" stroke="white" points="-4,5 -4,-306 261,-306 261,5 -4,5"/>
<!-- Node1 -->
<g id="node1" class="node"><title>Node1</title>
<a xlink:href="classDisplayStateBase.htm" target="_top" xlink:title="DisplayStateBase">
<polygon fill="white" stroke="black" points="0,-140.5 0,-161.5 100,-161.5 100,-140.5 0,-140.5"/>
<text text-anchor="middle" x="50" y="-148.5" font-family="Helvetica,sans-Serif" font-size="10.00">DisplayStateBase</text>
</a>
</g>
<!-- Node2 -->
<g id="node3" class="node"><title>Node2</title>
<a xlink:href="classDisplayDim.htm" target="_top" xlink:title="DisplayDim">
<polygon fill="white" stroke="black" points="161.5,-280.5 161.5,-301.5 230.5,-301.5 230.5,-280.5 161.5,-280.5"/>
<text text-anchor="middle" x="196" y="-288.5" font-family="Helvetica,sans-Serif" font-size="10.00">DisplayDim</text>
</a>
</g>
<!-- Node1&#45;&gt;Node2 -->
<g id="edge2" class="edge"><title>Node1&#45;&gt;Node2</title>
<path fill="none" stroke="midnightblue" d="M59.2056,-170.782C72.519,-197.306 99.5981,-244.159 136,-271 143.423,-276.474 152.435,-280.509 161.194,-283.46"/>
<polygon fill="midnightblue" stroke="midnightblue" points="62.3077,-169.158 54.7864,-161.696 56.0127,-172.22 62.3077,-169.158"/>
</g>
<!-- Node3 -->
<g id="node5" class="node"><title>Node3</title>
<a xlink:href="classDisplayDockMode.htm" target="_top" xlink:title="DisplayDockMode">
<polygon fill="white" stroke="black" points="145,-240.5 145,-261.5 247,-261.5 247,-240.5 145,-240.5"/>
<text text-anchor="middle" x="196" y="-248.5" font-family="Helvetica,sans-Serif" font-size="10.00">DisplayDockMode</text>
</a>
</g>
<!-- Node1&#45;&gt;Node3 -->
<g id="edge4" class="edge"><title>Node1&#45;&gt;Node3</title>
<path fill="none" stroke="midnightblue" d="M65.6792,-169.632C81.6993,-187.607 108.119,-214.457 136,-231 142.232,-234.698 149.239,-237.818 156.207,-240.414"/>
<polygon fill="midnightblue" stroke="midnightblue" points="67.8959,-166.848 58.6893,-161.605 62.6169,-171.445 67.8959,-166.848"/>
</g>
<!-- Node4 -->
<g id="node7" class="node"><title>Node4</title>
<a xlink:href="classDisplayOff.htm" target="_top" xlink:title="DisplayOff">
<polygon fill="white" stroke="black" points="163.5,-200.5 163.5,-221.5 228.5,-221.5 228.5,-200.5 163.5,-200.5"/>
<text text-anchor="middle" x="196" y="-208.5" font-family="Helvetica,sans-Serif" font-size="10.00">DisplayOff</text>
</a>
</g>
<!-- Node1&#45;&gt;Node4 -->
<g id="edge6" class="edge"><title>Node1&#45;&gt;Node4</title>
<path fill="none" stroke="midnightblue" d="M79.9935,-165.972C96.3512,-173.877 117.07,-183.471 136,-191 144.774,-194.49 154.425,-197.892 163.372,-200.872"/>
<polygon fill="midnightblue" stroke="midnightblue" points="81.435,-162.781 70.9129,-161.542 78.3654,-169.072 81.435,-162.781"/>
</g>
<!-- Node5 -->
<g id="node9" class="node"><title>Node5</title>
<a xlink:href="classDisplayOffOnCall.htm" target="_top" xlink:title="DisplayOffOnCall">
<polygon fill="white" stroke="black" points="147,-160.5 147,-181.5 245,-181.5 245,-160.5 147,-160.5"/>
<text text-anchor="middle" x="196" y="-168.5" font-family="Helvetica,sans-Serif" font-size="10.00">DisplayOffOnCall</text>
</a>
</g>
<!-- Node1&#45;&gt;Node5 -->
<g id="edge8" class="edge"><title>Node1&#45;&gt;Node5</title>
<path fill="none" stroke="midnightblue" d="M110.271,-159.256C122.378,-160.915 134.967,-162.639 146.651,-164.24"/>
<polygon fill="midnightblue" stroke="midnightblue" points="110.627,-155.773 100.245,-157.883 109.677,-162.708 110.627,-155.773"/>
</g>
<!-- Node6 -->
<g id="node11" class="node"><title>Node6</title>
<a xlink:href="classDisplayOffSuspended.htm" target="_top" xlink:title="DisplayOffSuspended">
<polygon fill="white" stroke="black" points="136.5,-120.5 136.5,-141.5 255.5,-141.5 255.5,-120.5 136.5,-120.5"/>
<text text-anchor="middle" x="196" y="-128.5" font-family="Helvetica,sans-Serif" font-size="10.00">DisplayOffSuspended</text>
</a>
</g>
<!-- Node1&#45;&gt;Node6 -->
<g id="edge10" class="edge"><title>Node1&#45;&gt;Node6</title>
<path fill="none" stroke="midnightblue" d="M110.231,-142.749C118.86,-141.567 127.734,-140.352 136.351,-139.171"/>
<polygon fill="midnightblue" stroke="midnightblue" points="109.677,-139.292 100.245,-144.117 110.627,-146.227 109.677,-139.292"/>
</g>
<!-- Node7 -->
<g id="node13" class="node"><title>Node7</title>
<a xlink:href="classDisplayOn.htm" target="_top" xlink:title="DisplayOn">
<polygon fill="white" stroke="black" points="163.5,-80.5 163.5,-101.5 228.5,-101.5 228.5,-80.5 163.5,-80.5"/>
<text text-anchor="middle" x="196" y="-88.5" font-family="Helvetica,sans-Serif" font-size="10.00">DisplayOn</text>
</a>
</g>
<!-- Node1&#45;&gt;Node7 -->
<g id="edge12" class="edge"><title>Node1&#45;&gt;Node7</title>
<path fill="none" stroke="midnightblue" d="M79.9935,-136.028C96.3512,-128.123 117.07,-118.529 136,-111 144.774,-107.51 154.425,-104.108 163.372,-101.128"/>
<polygon fill="midnightblue" stroke="midnightblue" points="78.3654,-132.928 70.9129,-140.458 81.435,-139.219 78.3654,-132.928"/>
</g>
<!-- Node8 -->
<g id="node15" class="node"><title>Node8</title>
<a xlink:href="classDisplayOnLocked.htm" target="_top" xlink:title="DisplayOnLocked">
<polygon fill="white" stroke="black" points="146,-40.5 146,-61.5 246,-61.5 246,-40.5 146,-40.5"/>
<text text-anchor="middle" x="196" y="-48.5" font-family="Helvetica,sans-Serif" font-size="10.00">DisplayOnLocked</text>
</a>
</g>
<!-- Node1&#45;&gt;Node8 -->
<g id="edge14" class="edge"><title>Node1&#45;&gt;Node8</title>
<path fill="none" stroke="midnightblue" d="M65.6792,-132.368C81.6993,-114.393 108.119,-87.5431 136,-71 142.232,-67.3021 149.239,-64.1815 156.207,-61.5865"/>
<polygon fill="midnightblue" stroke="midnightblue" points="62.6169,-130.555 58.6893,-140.395 67.8959,-135.152 62.6169,-130.555"/>
</g>
<!-- Node9 -->
<g id="node17" class="node"><title>Node9</title>
<a xlink:href="classDisplayOnPuck.htm" target="_top" xlink:title="DisplayOnPuck">
<polygon fill="white" stroke="black" points="152,-0.5 152,-21.5 240,-21.5 240,-0.5 152,-0.5"/>
<text text-anchor="middle" x="196" y="-8.5" font-family="Helvetica,sans-Serif" font-size="10.00">DisplayOnPuck</text>
</a>
</g>
<!-- Node1&#45;&gt;Node9 -->
<g id="edge16" class="edge"><title>Node1&#45;&gt;Node9</title>
<path fill="none" stroke="midnightblue" d="M59.2056,-131.218C72.519,-104.694 99.5981,-57.8412 136,-31 141.126,-27.2205 147.009,-24.127 153.043,-21.6026"/>
<polygon fill="midnightblue" stroke="midnightblue" points="56.0127,-129.78 54.7864,-140.304 62.3077,-132.842 56.0127,-129.78"/>
</g>
</g>
</svg>
