<?xml version="1.0" encoding="UTF-8" standalone="no"?>
<!DOCTYPE svg PUBLIC "-//W3C//DTD SVG 1.1//EN"
 "http://www.w3.org/Graphics/SVG/1.1/DTD/svg11.dtd">
<!-- Generated by graphviz version 2.26.3 (20100126.1600)
 -->
<!-- Title: Graphical Class Hierarchy Pages: 1 -->
<svg width="360pt" height="190pt"
 viewBox="0.00 0.00 360.00 190.00" xmlns="http://www.w3.org/2000/svg" xmlns:xlink="http://www.w3.org/1999/xlink">
<g id="graph1" class="graph" transform="scale(1 1) rotate(0) translate(4 186)">
<title>Graphical Class Hierarchy</title>
<polygon fill="white" stroke="white" points="-4,5 -4,-186 357,-186 357,5 -4,5"/>
<!-- Node1 -->
<g id="node1" class="node"><title>Node1</title>
<a xlink:href="classQGestureRecognizer.htm" target="_top" xlink:title="QGestureRecognizer">
<polygon fill="white" stroke="black" points="0,-80.5 0,-101.5 116,-101.5 116,-80.5 0,-80.5"/>
<text text-anchor="middle" x="58" y="-88.5" font-family="Helvetica,sans-Serif" font-size="10.00">QGestureRecognizer</text>
</a>
</g>
<!-- Node2 -->
<g id="node3" class="node"><title>Node2</title>
<a xlink:href="classFlickGestureRecognizer.htm" target="_top" xlink:title="FlickGestureRecognizer">
<polygon fill="white" stroke="black" points="187.5,-160.5 187.5,-181.5 316.5,-181.5 316.5,-160.5 187.5,-160.5"/>
<text text-anchor="middle" x="252" y="-168.5" font-family="Helvetica,sans-Serif" font-size="10.00">FlickGestureRecognizer</text>
</a>
</g>
<!-- Node1&#45;&gt;Node2 -->
<g id="edge2" class="edge"><title>Node1&#45;&gt;Node2</title>
<path fill="none" stroke="midnightblue" d="M79.3176,-107.891C97.5912,-121.536 125.145,-140.188 152,-151 163.168,-155.496 175.459,-159.015 187.488,-161.759"/>
<polygon fill="midnightblue" stroke="midnightblue" points="81.21,-104.933 71.1361,-101.652 76.9651,-110.499 81.21,-104.933"/>
</g>
<!-- Node3 -->
<g id="node5" class="node"><title>Node3</title>
<a xlink:href="classScreenEdgeFlickGestureRecognizer.htm" target="_top" xlink:title="ScreenEdgeFlickGestureRecognizer">
<polygon fill="white" stroke="black" points="158,-120.5 158,-141.5 346,-141.5 346,-120.5 158,-120.5"/>
<text text-anchor="middle" x="252" y="-128.5" font-family="Helvetica,sans-Serif" font-size="10.00">ScreenEdgeFlickGestureRecognizer</text>
</a>
</g>
<!-- Node1&#45;&gt;Node3 -->
<g id="edge4" class="edge"><title>Node1&#45;&gt;Node3</title>
<path fill="none" stroke="midnightblue" d="M117.229,-103.717C128.756,-106.16 140.752,-108.679 152,-111 167.172,-114.131 183.655,-117.458 198.781,-120.482"/>
<polygon fill="midnightblue" stroke="midnightblue" points="117.758,-100.252 107.249,-101.597 116.304,-107.099 117.758,-100.252"/>
</g>
<!-- Node4 -->
<g id="node7" class="node"><title>Node4</title>
<a xlink:href="classSingleClickGestureRecognizer.htm" target="_top" xlink:title="SingleClickGestureRecognizer">
<polygon fill="white" stroke="black" points="172,-80.5 172,-101.5 332,-101.5 332,-80.5 172,-80.5"/>
<text text-anchor="middle" x="252" y="-88.5" font-family="Helvetica,sans-Serif" font-size="10.00">SingleClickGestureRecognizer</text>
</a>
</g>
<!-- Node1&#45;&gt;Node4 -->
<g id="edge6" class="edge"><title>Node1&#45;&gt;Node4</title>
<path fill="none" stroke="midnightblue" d="M126.257,-91C141.028,-91 156.776,-91 171.953,-91"/>
<polygon fill="midnightblue" stroke="midnightblue" points="126.206,-87.5001 116.206,-91 126.206,-94.5001 126.206,-87.5001"/>
</g>
<!-- Node5 -->
<g id="node9" class="node"><title>Node5</title>
<a xlink:href="classWebosTapAndHoldGestureRecognizer.htm" target="_top" xlink:title="WebosTapAndHoldGestureRecognizer">
<polygon fill="white" stroke="black" points="152,-40.5 152,-61.5 352,-61.5 352,-40.5 152,-40.5"/>
<text text-anchor="middle" x="252" y="-48.5" font-family="Helvetica,sans-Serif" font-size="10.00">WebosTapAndHoldGestureRecognizer</text>
</a>
</g>
<!-- Node1&#45;&gt;Node5 -->
<g id="edge8" class="edge"><title>Node1&#45;&gt;Node5</title>
<path fill="none" stroke="midnightblue" d="M117.229,-78.2829C128.756,-75.8403 140.752,-73.3213 152,-71 167.172,-67.8689 183.655,-64.5416 198.781,-61.5182"/>
<polygon fill="midnightblue" stroke="midnightblue" points="116.304,-74.9012 107.249,-80.4027 117.758,-81.7484 116.304,-74.9012"/>
</g>
<!-- Node6 -->
<g id="node11" class="node"><title>Node6</title>
<a xlink:href="classWebosTapGestureRecognizer.htm" target="_top" xlink:title="WebosTapGestureRecognizer">
<polygon fill="white" stroke="black" points="172.5,-0.5 172.5,-21.5 331.5,-21.5 331.5,-0.5 172.5,-0.5"/>
<text text-anchor="middle" x="252" y="-8.5" font-family="Helvetica,sans-Serif" font-size="10.00">WebosTapGestureRecognizer</text>
</a>
</g>
<!-- Node1&#45;&gt;Node6 -->
<g id="edge10" class="edge"><title>Node1&#45;&gt;Node6</title>
<path fill="none" stroke="midnightblue" d="M79.3176,-74.1086C97.5912,-60.4642 125.145,-41.8121 152,-31 161.526,-27.1649 171.868,-24.0409 182.168,-21.5027"/>
<polygon fill="midnightblue" stroke="midnightblue" points="76.9651,-71.501 71.1361,-80.3482 81.21,-77.067 76.9651,-71.501"/>
</g>
</g>
</svg>
