<?xml version="1.0" encoding="UTF-8" standalone="no"?>
<!DOCTYPE svg PUBLIC "-//W3C//DTD SVG 1.1//EN"
 "http://www.w3.org/Graphics/SVG/1.1/DTD/svg11.dtd">
<!-- Generated by graphviz version 2.26.3 (20100126.1600)
 -->
<!-- Title: InputWindowManager.h Pages: 1 -->
<svg width="730pt" height="204pt"
 viewBox="0.00 0.00 729.68 204.00" xmlns="http://www.w3.org/2000/svg" xmlns:xlink="http://www.w3.org/1999/xlink">
<g id="graph1" class="graph" transform="scale(1 1) rotate(0) translate(4 200)">
<title>InputWindowManager.h</title>
<polygon fill="white" stroke="white" points="-4,5 -4,-200 726.682,-200 726.682,5 -4,5"/>
<!-- Node1 -->
<g id="node1" class="node"><title>Node1</title>
<polygon fill="#bfbfbf" stroke="black" points="419.682,-174.5 419.682,-195.5 547.682,-195.5 547.682,-174.5 419.682,-174.5"/>
<text text-anchor="middle" x="483.682" y="-182.5" font-family="Helvetica,sans-Serif" font-size="10.00">InputWindowManager.h</text>
</g>
<!-- Node2 -->
<g id="node3" class="node"><title>Node2</title>
<a xlink:href="WindowManagerBase_8h.htm" target="_top" xlink:title="WindowManagerBase.h">
<polygon fill="white" stroke="black" points="84.182,-116.5 84.182,-137.5 213.182,-137.5 213.182,-116.5 84.182,-116.5"/>
<text text-anchor="middle" x="148.682" y="-124.5" font-family="Helvetica,sans-Serif" font-size="10.00">WindowManagerBase.h</text>
</a>
</g>
<!-- Node1&#45;&gt;Node2 -->
<g id="edge2" class="edge"><title>Node1&#45;&gt;Node2</title>
<path fill="none" stroke="midnightblue" d="M423.016,-174.497C365.801,-164.591 280.044,-149.743 219.674,-139.291"/>
<polygon fill="midnightblue" stroke="midnightblue" points="219.912,-135.78 209.462,-137.523 218.718,-142.678 219.912,-135.78"/>
</g>
<!-- Node9 -->
<g id="node18" class="node"><title>Node9</title>
<a xlink:href="IMEManager_8h.htm" target="_top" xlink:title="IMEManager.h">
<polygon fill="white" stroke="black" points="393.682,-116.5 393.682,-137.5 479.682,-137.5 479.682,-116.5 393.682,-116.5"/>
<text text-anchor="middle" x="436.682" y="-124.5" font-family="Helvetica,sans-Serif" font-size="10.00">IMEManager.h</text>
</a>
</g>
<!-- Node1&#45;&gt;Node9 -->
<g id="edge18" class="edge"><title>Node1&#45;&gt;Node9</title>
<path fill="none" stroke="midnightblue" d="M475.062,-174.362C468.503,-166.268 459.316,-154.932 451.576,-145.38"/>
<polygon fill="midnightblue" stroke="midnightblue" points="454.263,-143.136 445.248,-137.571 448.825,-147.544 454.263,-143.136"/>
</g>
<!-- Node12 -->
<g id="node24" class="node"><title>Node12</title>
<a xlink:href="IMEView_8h.htm" target="_top" xlink:title="IMEView.h">
<polygon fill="white" stroke="black" points="497.682,-116.5 497.682,-137.5 563.682,-137.5 563.682,-116.5 497.682,-116.5"/>
<text text-anchor="middle" x="530.682" y="-124.5" font-family="Helvetica,sans-Serif" font-size="10.00">IMEView.h</text>
</a>
</g>
<!-- Node1&#45;&gt;Node12 -->
<g id="edge24" class="edge"><title>Node1&#45;&gt;Node12</title>
<path fill="none" stroke="midnightblue" d="M492.303,-174.362C498.862,-166.268 508.048,-154.932 515.788,-145.38"/>
<polygon fill="midnightblue" stroke="midnightblue" points="518.54,-147.544 522.116,-137.571 513.101,-143.136 518.54,-147.544"/>
</g>
<!-- Node15 -->
<g id="node31" class="node"><title>Node15</title>
<polygon fill="white" stroke="#bfbfbf" points="581.682,-116.5 581.682,-137.5 693.682,-137.5 693.682,-116.5 581.682,-116.5"/>
<text text-anchor="middle" x="637.682" y="-124.5" font-family="Helvetica,sans-Serif" font-size="10.00">QPropertyAnimation</text>
</g>
<!-- Node1&#45;&gt;Node15 -->
<g id="edge32" class="edge"><title>Node1&#45;&gt;Node15</title>
<path fill="none" stroke="midnightblue" d="M511.57,-174.497C536.35,-165.164 572.777,-151.445 600.118,-141.147"/>
<polygon fill="midnightblue" stroke="midnightblue" points="601.617,-144.323 609.741,-137.523 599.15,-137.772 601.617,-144.323"/>
</g>
<!-- Node3 -->
<g id="node5" class="node"><title>Node3</title>
<polygon fill="white" stroke="#bfbfbf" points="51.182,-0.5 51.182,-21.5 118.182,-21.5 118.182,-0.5 51.182,-0.5"/>
<text text-anchor="middle" x="84.682" y="-8.5" font-family="Helvetica,sans-Serif" font-size="10.00">Common.h</text>
</g>
<!-- Node2&#45;&gt;Node3 -->
<g id="edge4" class="edge"><title>Node2&#45;&gt;Node3</title>
<path fill="none" stroke="midnightblue" d="M95.3528,-116.42C59.0572,-108.011 15.6855,-95.1661 4.68204,-80 -11.3333,-57.926 18.2443,-38.2165 45.8546,-25.5717"/>
<polygon fill="midnightblue" stroke="midnightblue" points="47.3003,-28.7597 55.074,-21.5611 44.5079,-22.3408 47.3003,-28.7597"/>
</g>
<!-- Node4 -->
<g id="node7" class="node"><title>Node4</title>
<polygon fill="white" stroke="#bfbfbf" points="13.682,-58.5 13.682,-79.5 101.682,-79.5 101.682,-58.5 13.682,-58.5"/>
<text text-anchor="middle" x="57.682" y="-66.5" font-family="Helvetica,sans-Serif" font-size="10.00">QGraphicsItem</text>
</g>
<!-- Node2&#45;&gt;Node4 -->
<g id="edge6" class="edge"><title>Node2&#45;&gt;Node4</title>
<path fill="none" stroke="midnightblue" d="M131.991,-116.362C118.266,-107.614 98.5984,-95.0786 82.9447,-85.1015"/>
<polygon fill="midnightblue" stroke="midnightblue" points="84.581,-81.994 74.267,-79.5707 80.8187,-87.8969 84.581,-81.994"/>
</g>
<!-- Node5 -->
<g id="node9" class="node"><title>Node5</title>
<polygon fill="white" stroke="#bfbfbf" points="119.182,-58.5 119.182,-79.5 178.182,-79.5 178.182,-58.5 119.182,-58.5"/>
<text text-anchor="middle" x="148.682" y="-66.5" font-family="Helvetica,sans-Serif" font-size="10.00">QPainter</text>
</g>
<!-- Node2&#45;&gt;Node5 -->
<g id="edge8" class="edge"><title>Node2&#45;&gt;Node5</title>
<path fill="none" stroke="midnightblue" d="M148.682,-116.362C148.682,-108.922 148.682,-98.7427 148.682,-89.7276"/>
<polygon fill="midnightblue" stroke="midnightblue" points="152.182,-89.5706 148.682,-79.5707 145.182,-89.5707 152.182,-89.5706"/>
</g>
<!-- Node6 -->
<g id="node11" class="node"><title>Node6</title>
<a xlink:href="UiNavigationController_8h.htm" target="_top" xlink:title="UiNavigationController.h">
<polygon fill="white" stroke="black" points="195.182,-58.5 195.182,-79.5 326.182,-79.5 326.182,-58.5 195.182,-58.5"/>
<text text-anchor="middle" x="260.682" y="-66.5" font-family="Helvetica,sans-Serif" font-size="10.00">UiNavigationController.h</text>
</a>
</g>
<!-- Node2&#45;&gt;Node6 -->
<g id="edge10" class="edge"><title>Node2&#45;&gt;Node6</title>
<path fill="none" stroke="midnightblue" d="M168.964,-116.497C186.3,-107.519 211.472,-94.4835 231.062,-84.3387"/>
<polygon fill="midnightblue" stroke="midnightblue" points="232.902,-87.3278 240.172,-79.6212 229.683,-81.1118 232.902,-87.3278"/>
</g>
<!-- Node6&#45;&gt;Node3 -->
<g id="edge12" class="edge"><title>Node6&#45;&gt;Node3</title>
<path fill="none" stroke="midnightblue" d="M228.81,-58.4966C200.117,-49.0411 157.761,-35.0829 126.384,-24.7428"/>
<polygon fill="midnightblue" stroke="midnightblue" points="127.207,-21.3289 116.614,-21.5231 125.016,-27.9772 127.207,-21.3289"/>
</g>
<!-- Node7 -->
<g id="node14" class="node"><title>Node7</title>
<polygon fill="white" stroke="#bfbfbf" points="193.182,-0.5 193.182,-21.5 248.182,-21.5 248.182,-0.5 193.182,-0.5"/>
<text text-anchor="middle" x="220.682" y="-8.5" font-family="Helvetica,sans-Serif" font-size="10.00">QObject</text>
</g>
<!-- Node6&#45;&gt;Node7 -->
<g id="edge14" class="edge"><title>Node6&#45;&gt;Node7</title>
<path fill="none" stroke="midnightblue" d="M253.345,-58.3619C247.876,-50.4313 240.26,-39.3885 233.758,-29.9606"/>
<polygon fill="midnightblue" stroke="midnightblue" points="236.531,-27.8157 227.972,-21.5707 230.768,-31.7899 236.531,-27.8157"/>
</g>
<!-- Node8 -->
<g id="node16" class="node"><title>Node8</title>
<polygon fill="white" stroke="#bfbfbf" points="265.682,-0.5 265.682,-21.5 335.682,-21.5 335.682,-0.5 265.682,-0.5"/>
<text text-anchor="middle" x="300.682" y="-8.5" font-family="Helvetica,sans-Serif" font-size="10.00">QKeyEvent</text>
</g>
<!-- Node6&#45;&gt;Node8 -->
<g id="edge16" class="edge"><title>Node6&#45;&gt;Node8</title>
<path fill="none" stroke="midnightblue" d="M268.019,-58.3619C273.488,-50.4313 281.104,-39.3885 287.606,-29.9606"/>
<polygon fill="midnightblue" stroke="midnightblue" points="290.596,-31.7899 293.392,-21.5707 284.833,-27.8157 290.596,-31.7899"/>
</g>
<!-- Node10 -->
<g id="node20" class="node"><title>Node10</title>
<polygon fill="white" stroke="#bfbfbf" points="343.182,-58.5 343.182,-79.5 412.182,-79.5 412.182,-58.5 343.182,-58.5"/>
<text text-anchor="middle" x="377.682" y="-66.5" font-family="Helvetica,sans-Serif" font-size="10.00">QStringList</text>
</g>
<!-- Node9&#45;&gt;Node10 -->
<g id="edge20" class="edge"><title>Node9&#45;&gt;Node10</title>
<path fill="none" stroke="midnightblue" d="M425.861,-116.362C417.461,-108.104 405.628,-96.4725 395.792,-86.8029"/>
<polygon fill="midnightblue" stroke="midnightblue" points="398.02,-84.0851 388.435,-79.5707 393.113,-89.077 398.02,-84.0851"/>
</g>
<!-- Node11 -->
<g id="node22" class="node"><title>Node11</title>
<polygon fill="white" stroke="#bfbfbf" points="429.682,-58.5 429.682,-79.5 537.682,-79.5 537.682,-58.5 429.682,-58.5"/>
<text text-anchor="middle" x="483.682" y="-66.5" font-family="Helvetica,sans-Serif" font-size="10.00">IMEDataInterface.h</text>
</g>
<!-- Node9&#45;&gt;Node11 -->
<g id="edge22" class="edge"><title>Node9&#45;&gt;Node11</title>
<path fill="none" stroke="midnightblue" d="M445.303,-116.362C451.862,-108.268 461.048,-96.9318 468.788,-87.3796"/>
<polygon fill="midnightblue" stroke="midnightblue" points="471.54,-89.5436 475.116,-79.5707 466.101,-85.1364 471.54,-89.5436"/>
</g>
<!-- Node12&#45;&gt;Node11 -->
<g id="edge28" class="edge"><title>Node12&#45;&gt;Node11</title>
<path fill="none" stroke="midnightblue" d="M522.062,-116.362C515.503,-108.268 506.316,-96.9318 498.576,-87.3796"/>
<polygon fill="midnightblue" stroke="midnightblue" points="501.263,-85.1364 492.248,-79.5707 495.825,-89.5436 501.263,-85.1364"/>
</g>
<!-- Node13 -->
<g id="node26" class="node"><title>Node13</title>
<polygon fill="white" stroke="#bfbfbf" points="555.682,-58.5 555.682,-79.5 653.682,-79.5 653.682,-58.5 555.682,-58.5"/>
<text text-anchor="middle" x="604.682" y="-66.5" font-family="Helvetica,sans-Serif" font-size="10.00">QGraphicsObject</text>
</g>
<!-- Node12&#45;&gt;Node13 -->
<g id="edge26" class="edge"><title>Node12&#45;&gt;Node13</title>
<path fill="none" stroke="midnightblue" d="M544.255,-116.362C555.103,-107.859 570.516,-95.7785 583.061,-85.9466"/>
<polygon fill="midnightblue" stroke="midnightblue" points="585.484,-88.4942 591.195,-79.5707 581.166,-82.9848 585.484,-88.4942"/>
</g>
<!-- Node14 -->
<g id="node29" class="node"><title>Node14</title>
<polygon fill="white" stroke="#bfbfbf" points="671.682,-58.5 671.682,-79.5 721.682,-79.5 721.682,-58.5 671.682,-58.5"/>
<text text-anchor="middle" x="696.682" y="-66.5" font-family="Helvetica,sans-Serif" font-size="10.00">stdint.h</text>
</g>
<!-- Node12&#45;&gt;Node14 -->
<g id="edge30" class="edge"><title>Node12&#45;&gt;Node14</title>
<path fill="none" stroke="midnightblue" d="M560.743,-116.497C589.2,-106.554 631.904,-91.6332 661.836,-81.1751"/>
<polygon fill="midnightblue" stroke="midnightblue" points="663.172,-84.4158 671.458,-77.8131 660.863,-77.8075 663.172,-84.4158"/>
</g>
</g>
</svg>
