<?xml version="1.0" encoding="UTF-8" standalone="no"?>
<!DOCTYPE svg PUBLIC "-//W3C//DTD SVG 1.1//EN"
 "http://www.w3.org/Graphics/SVG/1.1/DTD/svg11.dtd">
<!-- Generated by graphviz version 2.26.3 (20100126.1600)
 -->
<!-- Title: InputWindowManager.cpp Pages: 1 -->
<svg width="2400pt" height="262pt"
 viewBox="0.00 0.00 2400.00 262.00" xmlns="http://www.w3.org/2000/svg" xmlns:xlink="http://www.w3.org/1999/xlink">
<g id="graph1" class="graph" transform="scale(1 1) rotate(0) translate(4 258)">
<title>InputWindowManager.cpp</title>
<polygon fill="white" stroke="white" points="-4,5 -4,-258 2397,-258 2397,5 -4,5"/>
<!-- Node1 -->
<g id="node1" class="node"><title>Node1</title>
<polygon fill="#bfbfbf" stroke="black" points="1907,-232.5 1907,-253.5 2047,-253.5 2047,-232.5 1907,-232.5"/>
<text text-anchor="middle" x="1977" y="-240.5" font-family="Helvetica,sans-Serif" font-size="10.00">InputWindowManager.cpp</text>
</g>
<!-- Node2 -->
<g id="node3" class="node"><title>Node2</title>
<a xlink:href="InputWindowManager_8h.htm" target="_top" xlink:title="InputWindowManager.h">
<polygon fill="white" stroke="black" points="241,-174.5 241,-195.5 369,-195.5 369,-174.5 241,-174.5"/>
<text text-anchor="middle" x="305" y="-182.5" font-family="Helvetica,sans-Serif" font-size="10.00">InputWindowManager.h</text>
</a>
</g>
<!-- Node1&#45;&gt;Node2 -->
<g id="edge2" class="edge"><title>Node1&#45;&gt;Node2</title>
<path fill="none" stroke="midnightblue" d="M1906.76,-240.563C1635.51,-231.154 657.761,-197.237 379.412,-187.581"/>
<polygon fill="midnightblue" stroke="midnightblue" points="379.14,-184.07 369.025,-187.221 378.897,-191.066 379.14,-184.07"/>
</g>
<!-- Node17 -->
<g id="node35" class="node"><title>Node17</title>
<polygon fill="white" stroke="#bfbfbf" points="1082.5,-174.5 1082.5,-195.5 1153.5,-195.5 1153.5,-174.5 1082.5,-174.5"/>
<text text-anchor="middle" x="1118" y="-182.5" font-family="Helvetica,sans-Serif" font-size="10.00">HostBase.h</text>
</g>
<!-- Node1&#45;&gt;Node17 -->
<g id="edge36" class="edge"><title>Node1&#45;&gt;Node17</title>
<path fill="none" stroke="midnightblue" d="M1906.84,-240.645C1740.19,-234.784 1323.17,-218.482 1164.01,-196.046"/>
<polygon fill="midnightblue" stroke="midnightblue" points="1164.31,-192.552 1153.91,-194.559 1163.29,-199.477 1164.31,-192.552"/>
</g>
<!-- Node18 -->
<g id="node37" class="node"><title>Node18</title>
<a xlink:href="SystemUiController_8h.htm" target="_top" xlink:title="SystemUiController.h">
<polygon fill="white" stroke="black" points="1171,-174.5 1171,-195.5 1287,-195.5 1287,-174.5 1171,-174.5"/>
<text text-anchor="middle" x="1229" y="-182.5" font-family="Helvetica,sans-Serif" font-size="10.00">SystemUiController.h</text>
</a>
</g>
<!-- Node1&#45;&gt;Node18 -->
<g id="edge38" class="edge"><title>Node1&#45;&gt;Node18</title>
<path fill="none" stroke="midnightblue" d="M1906.97,-237.57C1763.82,-226.47 1439.31,-201.307 1297.48,-190.31"/>
<polygon fill="midnightblue" stroke="midnightblue" points="1297.43,-186.795 1287.19,-189.512 1296.89,-193.774 1297.43,-186.795"/>
</g>
<!-- Node38 -->
<g id="node98" class="node"><title>Node38</title>
<a xlink:href="IMEController_8h.htm" target="_top" xlink:title="IMEController.h">
<polygon fill="white" stroke="black" points="1975,-174.5 1975,-195.5 2065,-195.5 2065,-174.5 1975,-174.5"/>
<text text-anchor="middle" x="2020" y="-182.5" font-family="Helvetica,sans-Serif" font-size="10.00">IMEController.h</text>
</a>
</g>
<!-- Node1&#45;&gt;Node38 -->
<g id="edge120" class="edge"><title>Node1&#45;&gt;Node38</title>
<path fill="none" stroke="midnightblue" d="M1984.89,-232.362C1990.83,-224.35 1999.12,-213.161 2006.16,-203.67"/>
<polygon fill="midnightblue" stroke="midnightblue" points="2009.02,-205.688 2012.16,-195.571 2003.4,-201.519 2009.02,-205.688"/>
</g>
<!-- Node40 -->
<g id="node103" class="node"><title>Node40</title>
<polygon fill="white" stroke="#bfbfbf" points="1912.5,-174.5 1912.5,-195.5 1957.5,-195.5 1957.5,-174.5 1912.5,-174.5"/>
<text text-anchor="middle" x="1935" y="-182.5" font-family="Helvetica,sans-Serif" font-size="10.00">Utils.h</text>
</g>
<!-- Node1&#45;&gt;Node40 -->
<g id="edge126" class="edge"><title>Node1&#45;&gt;Node40</title>
<path fill="none" stroke="midnightblue" d="M1969.3,-232.362C1963.55,-224.431 1955.56,-213.389 1948.73,-203.961"/>
<polygon fill="midnightblue" stroke="midnightblue" points="1951.35,-201.617 1942.65,-195.571 1945.68,-205.723 1951.35,-201.617"/>
</g>
<!-- Node41 -->
<g id="node105" class="node"><title>Node41</title>
<a xlink:href="SystemService_8h.htm" target="_top" xlink:title="SystemService.h">
<polygon fill="white" stroke="black" points="2009.5,-58.5 2009.5,-79.5 2104.5,-79.5 2104.5,-58.5 2009.5,-58.5"/>
<text text-anchor="middle" x="2057" y="-66.5" font-family="Helvetica,sans-Serif" font-size="10.00">SystemService.h</text>
</a>
</g>
<!-- Node1&#45;&gt;Node41 -->
<g id="edge128" class="edge"><title>Node1&#45;&gt;Node41</title>
<path fill="none" stroke="midnightblue" d="M2008.04,-232.405C2028.25,-224.489 2054.4,-212.239 2074,-196 2098.71,-175.524 2106.94,-168.471 2117,-138 2120.07,-128.715 2121.28,-124.791 2117,-116 2110.72,-103.107 2099.01,-92.7071 2087.58,-85.0001"/>
<polygon fill="midnightblue" stroke="midnightblue" points="2089.33,-81.9668 2079,-79.6346 2085.62,-87.9028 2089.33,-81.9668"/>
</g>
<!-- Node43 -->
<g id="node113" class="node"><title>Node43</title>
<a xlink:href="AnimationSettings_8h.htm" target="_top" xlink:title="AnimationSettings.h">
<polygon fill="white" stroke="black" points="1705,-116.5 1705,-137.5 1815,-137.5 1815,-116.5 1705,-116.5"/>
<text text-anchor="middle" x="1760" y="-124.5" font-family="Helvetica,sans-Serif" font-size="10.00">AnimationSettings.h</text>
</a>
</g>
<!-- Node1&#45;&gt;Node43 -->
<g id="edge140" class="edge"><title>Node1&#45;&gt;Node43</title>
<path fill="none" stroke="midnightblue" d="M1956.97,-232.295C1918.28,-211.612 1833.14,-166.099 1788.54,-142.254"/>
<polygon fill="midnightblue" stroke="midnightblue" points="1790.13,-139.139 1779.66,-137.512 1786.83,-145.313 1790.13,-139.139"/>
</g>
<!-- Node46 -->
<g id="node123" class="node"><title>Node46</title>
<a xlink:href="Preferences_8h.htm" target="_top" xlink:title="Preferences.h">
<polygon fill="white" stroke="black" points="2121.5,-58.5 2121.5,-79.5 2204.5,-79.5 2204.5,-58.5 2121.5,-58.5"/>
<text text-anchor="middle" x="2163" y="-66.5" font-family="Helvetica,sans-Serif" font-size="10.00">Preferences.h</text>
</a>
</g>
<!-- Node1&#45;&gt;Node46 -->
<g id="edge154" class="edge"><title>Node1&#45;&gt;Node46</title>
<path fill="none" stroke="midnightblue" d="M2027.04,-232.453C2051.22,-225.358 2079.39,-213.927 2100,-196 2132.95,-167.34 2150.49,-117.394 2158.15,-89.4401"/>
<polygon fill="midnightblue" stroke="midnightblue" points="2161.59,-90.1288 2160.69,-79.5718 2154.81,-88.3829 2161.59,-90.1288"/>
</g>
<!-- Node49 -->
<g id="node134" class="node"><title>Node49</title>
<polygon fill="white" stroke="#bfbfbf" points="2201.5,-174.5 2201.5,-195.5 2278.5,-195.5 2278.5,-174.5 2201.5,-174.5"/>
<text text-anchor="middle" x="2240" y="-182.5" font-family="Helvetica,sans-Serif" font-size="10.00">QApplication</text>
</g>
<!-- Node1&#45;&gt;Node49 -->
<g id="edge170" class="edge"><title>Node1&#45;&gt;Node49</title>
<path fill="none" stroke="midnightblue" d="M2024.63,-232.497C2071.79,-222.095 2143.66,-206.246 2191.22,-195.757"/>
<polygon fill="midnightblue" stroke="midnightblue" points="2192.27,-199.111 2201.28,-193.539 2190.76,-192.275 2192.27,-199.111"/>
</g>
<!-- Node50 -->
<g id="node136" class="node"><title>Node50</title>
<polygon fill="white" stroke="#bfbfbf" points="2295.5,-174.5 2295.5,-195.5 2392.5,-195.5 2392.5,-174.5 2295.5,-174.5"/>
<text text-anchor="middle" x="2344" y="-182.5" font-family="Helvetica,sans-Serif" font-size="10.00">QDesktopWidget</text>
</g>
<!-- Node1&#45;&gt;Node50 -->
<g id="edge172" class="edge"><title>Node1&#45;&gt;Node50</title>
<path fill="none" stroke="midnightblue" d="M2047.31,-233.162C2107.89,-224.497 2197.94,-211.17 2285.14,-196.279"/>
<polygon fill="midnightblue" stroke="midnightblue" points="2285.94,-199.692 2295.21,-194.55 2284.76,-192.793 2285.94,-199.692"/>
</g>
<!-- Node3 -->
<g id="node5" class="node"><title>Node3</title>
<a xlink:href="WindowManagerBase_8h.htm" target="_top" xlink:title="WindowManagerBase.h">
<polygon fill="white" stroke="black" points="383.5,-116.5 383.5,-137.5 512.5,-137.5 512.5,-116.5 383.5,-116.5"/>
<text text-anchor="middle" x="448" y="-124.5" font-family="Helvetica,sans-Serif" font-size="10.00">WindowManagerBase.h</text>
</a>
</g>
<!-- Node2&#45;&gt;Node3 -->
<g id="edge4" class="edge"><title>Node2&#45;&gt;Node3</title>
<path fill="none" stroke="midnightblue" d="M330.896,-174.497C353.633,-165.275 386.93,-151.769 412.212,-141.515"/>
<polygon fill="midnightblue" stroke="midnightblue" points="413.862,-144.623 421.813,-137.621 411.231,-138.136 413.862,-144.623"/>
</g>
<!-- Node10 -->
<g id="node20" class="node"><title>Node10</title>
<a xlink:href="IMEManager_8h.htm" target="_top" xlink:title="IMEManager.h">
<polygon fill="white" stroke="black" points="0,-116.5 0,-137.5 86,-137.5 86,-116.5 0,-116.5"/>
<text text-anchor="middle" x="43" y="-124.5" font-family="Helvetica,sans-Serif" font-size="10.00">IMEManager.h</text>
</a>
</g>
<!-- Node2&#45;&gt;Node10 -->
<g id="edge20" class="edge"><title>Node2&#45;&gt;Node10</title>
<path fill="none" stroke="midnightblue" d="M257.554,-174.497C212.08,-164.43 143.553,-149.26 96.2377,-138.785"/>
<polygon fill="midnightblue" stroke="midnightblue" points="96.7027,-135.304 86.1825,-136.559 95.1896,-142.138 96.7027,-135.304"/>
</g>
<!-- Node13 -->
<g id="node26" class="node"><title>Node13</title>
<a xlink:href="IMEView_8h.htm" target="_top" xlink:title="IMEView.h">
<polygon fill="white" stroke="black" points="272,-116.5 272,-137.5 338,-137.5 338,-116.5 272,-116.5"/>
<text text-anchor="middle" x="305" y="-124.5" font-family="Helvetica,sans-Serif" font-size="10.00">IMEView.h</text>
</a>
</g>
<!-- Node2&#45;&gt;Node13 -->
<g id="edge26" class="edge"><title>Node2&#45;&gt;Node13</title>
<path fill="none" stroke="midnightblue" d="M305,-174.362C305,-166.922 305,-156.743 305,-147.728"/>
<polygon fill="midnightblue" stroke="midnightblue" points="308.5,-147.571 305,-137.571 301.5,-147.571 308.5,-147.571"/>
</g>
<!-- Node16 -->
<g id="node33" class="node"><title>Node16</title>
<polygon fill="white" stroke="#bfbfbf" points="104,-116.5 104,-137.5 216,-137.5 216,-116.5 104,-116.5"/>
<text text-anchor="middle" x="160" y="-124.5" font-family="Helvetica,sans-Serif" font-size="10.00">QPropertyAnimation</text>
</g>
<!-- Node2&#45;&gt;Node16 -->
<g id="edge34" class="edge"><title>Node2&#45;&gt;Node16</title>
<path fill="none" stroke="midnightblue" d="M278.742,-174.497C255.584,-165.234 221.625,-151.65 195.948,-141.379"/>
<polygon fill="midnightblue" stroke="midnightblue" points="197.138,-138.086 186.553,-137.621 194.538,-144.585 197.138,-138.086"/>
</g>
<!-- Node4 -->
<g id="node7" class="node"><title>Node4</title>
<polygon fill="white" stroke="#bfbfbf" points="1296.5,-0.5 1296.5,-21.5 1363.5,-21.5 1363.5,-0.5 1296.5,-0.5"/>
<text text-anchor="middle" x="1330" y="-8.5" font-family="Helvetica,sans-Serif" font-size="10.00">Common.h</text>
</g>
<!-- Node3&#45;&gt;Node4 -->
<g id="edge6" class="edge"><title>Node3&#45;&gt;Node4</title>
<path fill="none" stroke="midnightblue" d="M470.12,-116.466C504.501,-100.644 573.24,-71.1962 635,-58 666.905,-51.1828 1138.97,-22.4557 1286.37,-13.6061"/>
<polygon fill="midnightblue" stroke="midnightblue" points="1286.64,-17.0964 1296.41,-13.0039 1286.22,-10.109 1286.64,-17.0964"/>
</g>
<!-- Node5 -->
<g id="node9" class="node"><title>Node5</title>
<polygon fill="white" stroke="#bfbfbf" points="348,-58.5 348,-79.5 436,-79.5 436,-58.5 348,-58.5"/>
<text text-anchor="middle" x="392" y="-66.5" font-family="Helvetica,sans-Serif" font-size="10.00">QGraphicsItem</text>
</g>
<!-- Node3&#45;&gt;Node5 -->
<g id="edge8" class="edge"><title>Node3&#45;&gt;Node5</title>
<path fill="none" stroke="midnightblue" d="M437.729,-116.362C429.756,-108.104 418.525,-96.4725 409.189,-86.8029"/>
<polygon fill="midnightblue" stroke="midnightblue" points="411.67,-84.3336 402.206,-79.5707 406.634,-89.1958 411.67,-84.3336"/>
</g>
<!-- Node6 -->
<g id="node11" class="node"><title>Node6</title>
<polygon fill="white" stroke="#bfbfbf" points="453.5,-58.5 453.5,-79.5 512.5,-79.5 512.5,-58.5 453.5,-58.5"/>
<text text-anchor="middle" x="483" y="-66.5" font-family="Helvetica,sans-Serif" font-size="10.00">QPainter</text>
</g>
<!-- Node3&#45;&gt;Node6 -->
<g id="edge10" class="edge"><title>Node3&#45;&gt;Node6</title>
<path fill="none" stroke="midnightblue" d="M454.42,-116.362C459.156,-108.513 465.732,-97.6159 471.382,-88.2527"/>
<polygon fill="midnightblue" stroke="midnightblue" points="474.451,-89.9409 476.621,-79.5707 468.458,-86.3242 474.451,-89.9409"/>
</g>
<!-- Node7 -->
<g id="node13" class="node"><title>Node7</title>
<a xlink:href="UiNavigationController_8h.htm" target="_top" xlink:title="UiNavigationController.h">
<polygon fill="white" stroke="black" points="643.5,-58.5 643.5,-79.5 774.5,-79.5 774.5,-58.5 643.5,-58.5"/>
<text text-anchor="middle" x="709" y="-66.5" font-family="Helvetica,sans-Serif" font-size="10.00">UiNavigationController.h</text>
</a>
</g>
<!-- Node3&#45;&gt;Node7 -->
<g id="edge12" class="edge"><title>Node3&#45;&gt;Node7</title>
<path fill="none" stroke="midnightblue" d="M495.265,-116.497C539.197,-106.734 604.727,-92.1718 651.637,-81.7474"/>
<polygon fill="midnightblue" stroke="midnightblue" points="652.644,-85.1091 661.646,-79.5231 651.125,-78.2758 652.644,-85.1091"/>
</g>
<!-- Node7&#45;&gt;Node4 -->
<g id="edge14" class="edge"><title>Node7&#45;&gt;Node4</title>
<path fill="none" stroke="midnightblue" d="M774.739,-59.0124C777.528,-58.6568 780.291,-58.3174 783,-58 969.639,-36.1311 1193.23,-20.0704 1286.16,-13.8422"/>
<polygon fill="midnightblue" stroke="midnightblue" points="1286.57,-17.3228 1296.31,-13.1661 1286.1,-10.3383 1286.57,-17.3228"/>
</g>
<!-- Node8 -->
<g id="node16" class="node"><title>Node8</title>
<polygon fill="white" stroke="#bfbfbf" points="1934.5,-0.5 1934.5,-21.5 1989.5,-21.5 1989.5,-0.5 1934.5,-0.5"/>
<text text-anchor="middle" x="1962" y="-8.5" font-family="Helvetica,sans-Serif" font-size="10.00">QObject</text>
</g>
<!-- Node7&#45;&gt;Node8 -->
<g id="edge16" class="edge"><title>Node7&#45;&gt;Node8</title>
<path fill="none" stroke="midnightblue" d="M774.72,-58.8264C777.514,-58.5217 780.283,-58.2439 783,-58 1032.89,-35.5677 1659.12,-62.7858 1924.22,-21.8813"/>
<polygon fill="midnightblue" stroke="midnightblue" points="1924.95,-25.3096 1934.27,-20.2694 1923.84,-18.398 1924.95,-25.3096"/>
</g>
<!-- Node9 -->
<g id="node18" class="node"><title>Node9</title>
<polygon fill="white" stroke="#bfbfbf" points="318,-0.5 318,-21.5 388,-21.5 388,-0.5 318,-0.5"/>
<text text-anchor="middle" x="353" y="-8.5" font-family="Helvetica,sans-Serif" font-size="10.00">QKeyEvent</text>
</g>
<!-- Node7&#45;&gt;Node9 -->
<g id="edge18" class="edge"><title>Node7&#45;&gt;Node9</title>
<path fill="none" stroke="midnightblue" d="M644.531,-58.4966C573.355,-46.9005 460.612,-28.5323 398.242,-18.3709"/>
<polygon fill="midnightblue" stroke="midnightblue" points="398.742,-14.9063 388.309,-16.7527 397.617,-21.8152 398.742,-14.9063"/>
</g>
<!-- Node11 -->
<g id="node22" class="node"><title>Node11</title>
<polygon fill="white" stroke="#bfbfbf" points="8.5,-58.5 8.5,-79.5 77.5,-79.5 77.5,-58.5 8.5,-58.5"/>
<text text-anchor="middle" x="43" y="-66.5" font-family="Helvetica,sans-Serif" font-size="10.00">QStringList</text>
</g>
<!-- Node10&#45;&gt;Node11 -->
<g id="edge22" class="edge"><title>Node10&#45;&gt;Node11</title>
<path fill="none" stroke="midnightblue" d="M43,-116.362C43,-108.922 43,-98.7427 43,-89.7276"/>
<polygon fill="midnightblue" stroke="midnightblue" points="46.5001,-89.5706 43,-79.5707 39.5001,-89.5707 46.5001,-89.5706"/>
</g>
<!-- Node12 -->
<g id="node24" class="node"><title>Node12</title>
<polygon fill="white" stroke="#bfbfbf" points="102,-58.5 102,-79.5 210,-79.5 210,-58.5 102,-58.5"/>
<text text-anchor="middle" x="156" y="-66.5" font-family="Helvetica,sans-Serif" font-size="10.00">IMEDataInterface.h</text>
</g>
<!-- Node10&#45;&gt;Node12 -->
<g id="edge24" class="edge"><title>Node10&#45;&gt;Node12</title>
<path fill="none" stroke="midnightblue" d="M63.4634,-116.497C81.0331,-107.479 106.582,-94.3649 126.385,-84.2006"/>
<polygon fill="midnightblue" stroke="midnightblue" points="128.009,-87.3014 135.307,-79.6212 124.812,-81.0738 128.009,-87.3014"/>
</g>
<!-- Node13&#45;&gt;Node12 -->
<g id="edge30" class="edge"><title>Node13&#45;&gt;Node12</title>
<path fill="none" stroke="midnightblue" d="M278.017,-116.497C254.147,-107.205 219.106,-93.5649 192.693,-83.2832"/>
<polygon fill="midnightblue" stroke="midnightblue" points="193.622,-79.889 183.033,-79.5231 191.083,-86.4122 193.622,-79.889"/>
</g>
<!-- Node14 -->
<g id="node28" class="node"><title>Node14</title>
<polygon fill="white" stroke="#bfbfbf" points="943,-0.5 943,-21.5 1041,-21.5 1041,-0.5 943,-0.5"/>
<text text-anchor="middle" x="992" y="-8.5" font-family="Helvetica,sans-Serif" font-size="10.00">QGraphicsObject</text>
</g>
<!-- Node13&#45;&gt;Node14 -->
<g id="edge28" class="edge"><title>Node13&#45;&gt;Node14</title>
<path fill="none" stroke="midnightblue" d="M306.826,-116.439C310.158,-100.721 318.836,-71.5711 339,-58 387.594,-25.2941 781.33,-14.7852 932.864,-11.9322"/>
<polygon fill="midnightblue" stroke="midnightblue" points="932.984,-15.4307 942.918,-11.7475 932.856,-8.43188 932.984,-15.4307"/>
</g>
<!-- Node15 -->
<g id="node31" class="node"><title>Node15</title>
<polygon fill="white" stroke="#bfbfbf" points="515,-0.5 515,-21.5 565,-21.5 565,-0.5 515,-0.5"/>
<text text-anchor="middle" x="540" y="-8.5" font-family="Helvetica,sans-Serif" font-size="10.00">stdint.h</text>
</g>
<!-- Node13&#45;&gt;Node15 -->
<g id="edge32" class="edge"><title>Node13&#45;&gt;Node15</title>
<path fill="none" stroke="midnightblue" d="M301.425,-116.254C297.209,-101.352 292.368,-74.3988 306,-58 330.926,-28.0158 445.67,-16.7164 504.699,-12.8344"/>
<polygon fill="midnightblue" stroke="midnightblue" points="504.934,-16.3266 514.698,-12.2129 504.5,-9.34008 504.934,-16.3266"/>
</g>
<!-- Node18&#45;&gt;Node4 -->
<g id="edge40" class="edge"><title>Node18&#45;&gt;Node4</title>
<path fill="none" stroke="midnightblue" d="M1267.96,-174.495C1288.48,-167.212 1312.71,-155.594 1329,-138 1354.05,-110.943 1358.69,-94.0646 1351,-58 1349.01,-48.6789 1345.04,-38.9678 1341.07,-30.809"/>
<polygon fill="midnightblue" stroke="midnightblue" points="1344.09,-29.0246 1336.38,-21.7575 1337.88,-32.2463 1344.09,-29.0246"/>
</g>
<!-- Node18&#45;&gt;Node8 -->
<g id="edge50" class="edge"><title>Node18&#45;&gt;Node8</title>
<path fill="none" stroke="midnightblue" d="M1287.16,-183.543C1435.68,-179.43 1820.8,-166.151 1871,-138 1913.77,-114.014 1941.52,-60.5636 1954.13,-31.2301"/>
<polygon fill="midnightblue" stroke="midnightblue" points="1957.52,-32.1928 1958.09,-21.6134 1951.04,-29.527 1957.52,-32.1928"/>
</g>
<!-- Node18&#45;&gt;Node9 -->
<g id="edge46" class="edge"><title>Node18&#45;&gt;Node9</title>
<path fill="none" stroke="midnightblue" d="M1170.95,-175.023C1167.93,-174.643 1164.93,-174.298 1162,-174 1112.27,-168.941 297.63,-174.045 263,-138 228.681,-102.279 289.652,-52.5994 327.048,-27.2652"/>
<polygon fill="midnightblue" stroke="midnightblue" points="329.113,-30.0954 335.526,-21.6613 325.253,-24.2558 329.113,-30.0954"/>
</g>
<!-- Node19 -->
<g id="node40" class="node"><title>Node19</title>
<polygon fill="white" stroke="#bfbfbf" points="1754.5,-0.5 1754.5,-21.5 1797.5,-21.5 1797.5,-0.5 1754.5,-0.5"/>
<text text-anchor="middle" x="1776" y="-8.5" font-family="Helvetica,sans-Serif" font-size="10.00">string</text>
</g>
<!-- Node18&#45;&gt;Node19 -->
<g id="edge42" class="edge"><title>Node18&#45;&gt;Node19</title>
<path fill="none" stroke="midnightblue" d="M1287.1,-183.784C1428.28,-180.357 1781,-168.782 1824,-138 1854.29,-116.316 1866.84,-90.702 1849,-58 1840.03,-41.5628 1822.58,-30.0112 1806.99,-22.474"/>
<polygon fill="midnightblue" stroke="midnightblue" points="1808.17,-19.1694 1797.61,-18.292 1805.32,-25.5622 1808.17,-19.1694"/>
</g>
<!-- Node20 -->
<g id="node42" class="node"><title>Node20</title>
<polygon fill="white" stroke="#bfbfbf" points="530,-116.5 530,-137.5 582,-137.5 582,-116.5 530,-116.5"/>
<text text-anchor="middle" x="556" y="-124.5" font-family="Helvetica,sans-Serif" font-size="10.00">QEvent</text>
</g>
<!-- Node18&#45;&gt;Node20 -->
<g id="edge44" class="edge"><title>Node18&#45;&gt;Node20</title>
<path fill="none" stroke="midnightblue" d="M1170.94,-175.105C1167.92,-174.704 1164.93,-174.332 1162,-174 912.667,-145.744 842.835,-183.44 592.338,-137.853"/>
<polygon fill="midnightblue" stroke="midnightblue" points="592.67,-134.356 582.201,-135.981 591.399,-141.239 592.67,-134.356"/>
</g>
<!-- Node21 -->
<g id="node45" class="node"><title>Node21</title>
<polygon fill="white" stroke="#bfbfbf" points="599.5,-116.5 599.5,-137.5 682.5,-137.5 682.5,-116.5 599.5,-116.5"/>
<text text-anchor="middle" x="641" y="-124.5" font-family="Helvetica,sans-Serif" font-size="10.00">QMouseEvent</text>
</g>
<!-- Node18&#45;&gt;Node21 -->
<g id="edge48" class="edge"><title>Node18&#45;&gt;Node21</title>
<path fill="none" stroke="midnightblue" d="M1170.94,-175.152C1167.92,-174.739 1164.93,-174.351 1162,-174 956.81,-149.361 900.449,-168.026 692.671,-138.086"/>
<polygon fill="midnightblue" stroke="midnightblue" points="693.062,-134.606 682.661,-136.624 692.05,-141.533 693.062,-134.606"/>
</g>
<!-- Node22 -->
<g id="node48" class="node"><title>Node22</title>
<polygon fill="white" stroke="#bfbfbf" points="699.5,-116.5 699.5,-137.5 746.5,-137.5 746.5,-116.5 699.5,-116.5"/>
<text text-anchor="middle" x="723" y="-124.5" font-family="Helvetica,sans-Serif" font-size="10.00">QRect</text>
</g>
<!-- Node18&#45;&gt;Node22 -->
<g id="edge52" class="edge"><title>Node18&#45;&gt;Node22</title>
<path fill="none" stroke="midnightblue" d="M1170.93,-175.195C1167.92,-174.77 1164.92,-174.369 1162,-174 985.087,-151.685 934.44,-174.924 756.535,-137.927"/>
<polygon fill="midnightblue" stroke="midnightblue" points="757.092,-134.467 746.585,-135.823 755.644,-141.316 757.092,-134.467"/>
</g>
<!-- Node23 -->
<g id="node50" class="node"><title>Node23</title>
<polygon fill="white" stroke="#bfbfbf" points="763.5,-116.5 763.5,-137.5 856.5,-137.5 856.5,-116.5 763.5,-116.5"/>
<text text-anchor="middle" x="810" y="-124.5" font-family="Helvetica,sans-Serif" font-size="10.00">QSharedPointer</text>
</g>
<!-- Node18&#45;&gt;Node23 -->
<g id="edge54" class="edge"><title>Node18&#45;&gt;Node23</title>
<path fill="none" stroke="midnightblue" d="M1170.92,-175.311C1167.9,-174.856 1164.92,-174.416 1162,-174 1033.58,-155.683 998.011,-158.88 866.797,-138.204"/>
<polygon fill="midnightblue" stroke="midnightblue" points="867.19,-134.723 856.764,-136.607 866.089,-141.636 867.19,-134.723"/>
</g>
<!-- Node24 -->
<g id="node52" class="node"><title>Node24</title>
<polygon fill="white" stroke="#bfbfbf" points="874,-116.5 874,-137.5 960,-137.5 960,-116.5 874,-116.5"/>
<text text-anchor="middle" x="917" y="-124.5" font-family="Helvetica,sans-Serif" font-size="10.00">QWeakPointer</text>
</g>
<!-- Node18&#45;&gt;Node24 -->
<g id="edge56" class="edge"><title>Node18&#45;&gt;Node24</title>
<path fill="none" stroke="midnightblue" d="M1170.82,-174.991C1120.33,-166.19 1045.02,-152.785 970.185,-138.194"/>
<polygon fill="midnightblue" stroke="midnightblue" points="970.596,-134.708 960.11,-136.222 969.251,-141.578 970.596,-134.708"/>
</g>
<!-- Node25 -->
<g id="node54" class="node"><title>Node25</title>
<a xlink:href="ApplicationDescription_8h.htm" target="_top" xlink:title="ApplicationDescription.h">
<polygon fill="white" stroke="red" points="978,-116.5 978,-137.5 1108,-137.5 1108,-116.5 978,-116.5"/>
<text text-anchor="middle" x="1043" y="-124.5" font-family="Helvetica,sans-Serif" font-size="10.00">ApplicationDescription.h</text>
</a>
</g>
<!-- Node18&#45;&gt;Node25 -->
<g id="edge58" class="edge"><title>Node18&#45;&gt;Node25</title>
<path fill="none" stroke="midnightblue" d="M1195.32,-174.497C1164.86,-165 1119.84,-150.962 1086.64,-140.609"/>
<polygon fill="midnightblue" stroke="midnightblue" points="1087.33,-137.159 1076.75,-137.523 1085.25,-143.841 1087.33,-137.159"/>
</g>
<!-- Node31 -->
<g id="node72" class="node"><title>Node31</title>
<polygon fill="white" stroke="#bfbfbf" points="1164,-116.5 1164,-137.5 1216,-137.5 1216,-116.5 1164,-116.5"/>
<text text-anchor="middle" x="1190" y="-124.5" font-family="Helvetica,sans-Serif" font-size="10.00">Event.h</text>
</g>
<!-- Node18&#45;&gt;Node31 -->
<g id="edge82" class="edge"><title>Node18&#45;&gt;Node31</title>
<path fill="none" stroke="midnightblue" d="M1221.85,-174.362C1216.51,-166.431 1209.09,-155.389 1202.75,-145.961"/>
<polygon fill="midnightblue" stroke="midnightblue" points="1205.59,-143.916 1197.11,-137.571 1199.78,-147.822 1205.59,-143.916"/>
</g>
<!-- Node32 -->
<g id="node74" class="node"><title>Node32</title>
<a xlink:href="SuspendBlocker_8h.htm" target="_top" xlink:title="SuspendBlocker.h">
<polygon fill="white" stroke="black" points="1609.5,-58.5 1609.5,-79.5 1710.5,-79.5 1710.5,-58.5 1609.5,-58.5"/>
<text text-anchor="middle" x="1660" y="-66.5" font-family="Helvetica,sans-Serif" font-size="10.00">SuspendBlocker.h</text>
</a>
</g>
<!-- Node18&#45;&gt;Node32 -->
<g id="edge84" class="edge"><title>Node18&#45;&gt;Node32</title>
<path fill="none" stroke="midnightblue" d="M1268.39,-174.398C1347.35,-153.147 1524.78,-105.393 1611.05,-82.1745"/>
<polygon fill="midnightblue" stroke="midnightblue" points="1612.11,-85.5139 1620.86,-79.5352 1610.29,-78.7544 1612.11,-85.5139"/>
</g>
<!-- Node34 -->
<g id="node80" class="node"><title>Node34</title>
<a xlink:href="VariantAnimation_8h.htm" target="_top" xlink:title="VariantAnimation.h">
<polygon fill="white" stroke="red" points="1237.5,-58.5 1237.5,-79.5 1342.5,-79.5 1342.5,-58.5 1237.5,-58.5"/>
<text text-anchor="middle" x="1290" y="-66.5" font-family="Helvetica,sans-Serif" font-size="10.00">VariantAnimation.h</text>
</a>
</g>
<!-- Node18&#45;&gt;Node34 -->
<g id="edge92" class="edge"><title>Node18&#45;&gt;Node34</title>
<path fill="none" stroke="midnightblue" d="M1265.04,-174.481C1282.81,-167.274 1302.6,-155.731 1313,-138 1322.12,-122.452 1313.92,-102.792 1304.88,-88.4386"/>
<polygon fill="midnightblue" stroke="midnightblue" points="1307.54,-86.1287 1298.99,-79.8692 1301.77,-90.0931 1307.54,-86.1287"/>
</g>
<!-- Node35 -->
<g id="node83" class="node"><title>Node35</title>
<a xlink:href="Window_8h.htm" target="_top" xlink:title="Window.h">
<polygon fill="white" stroke="red" points="1020,-58.5 1020,-79.5 1082,-79.5 1082,-58.5 1020,-58.5"/>
<text text-anchor="middle" x="1051" y="-66.5" font-family="Helvetica,sans-Serif" font-size="10.00">Window.h</text>
</a>
</g>
<!-- Node18&#45;&gt;Node35 -->
<g id="edge96" class="edge"><title>Node18&#45;&gt;Node35</title>
<path fill="none" stroke="midnightblue" d="M1212.19,-174.455C1197.15,-164.991 1174.53,-150.68 1155,-138 1127.49,-120.14 1096.15,-99.2758 1075.13,-85.2051"/>
<polygon fill="midnightblue" stroke="midnightblue" points="1077.05,-82.2783 1066.79,-79.6193 1073.15,-88.0935 1077.05,-82.2783"/>
</g>
<!-- Node36 -->
<g id="node90" class="node"><title>Node36</title>
<polygon fill="white" stroke="#bfbfbf" points="1825,-0.5 1825,-21.5 1917,-21.5 1917,-0.5 1825,-0.5"/>
<text text-anchor="middle" x="1871" y="-8.5" font-family="Helvetica,sans-Serif" font-size="10.00">CustomEvents.h</text>
</g>
<!-- Node18&#45;&gt;Node36 -->
<g id="edge108" class="edge"><title>Node18&#45;&gt;Node36</title>
<path fill="none" stroke="midnightblue" d="M1287.1,-184.305C1432.93,-182.044 1805.93,-172.879 1849,-138 1880.15,-112.776 1878.48,-60.6771 1874.67,-31.6587"/>
<polygon fill="midnightblue" stroke="midnightblue" points="1878.13,-31.1323 1873.17,-21.7714 1871.21,-32.1837 1878.13,-31.1323"/>
</g>
<!-- Node37 -->
<g id="node92" class="node"><title>Node37</title>
<a xlink:href="StatusBar_8h.htm" target="_top" xlink:title="StatusBar.h">
<polygon fill="white" stroke="red" points="1233.5,-116.5 1233.5,-137.5 1304.5,-137.5 1304.5,-116.5 1233.5,-116.5"/>
<text text-anchor="middle" x="1269" y="-124.5" font-family="Helvetica,sans-Serif" font-size="10.00">StatusBar.h</text>
</a>
</g>
<!-- Node18&#45;&gt;Node37 -->
<g id="edge110" class="edge"><title>Node18&#45;&gt;Node37</title>
<path fill="none" stroke="midnightblue" d="M1236.34,-174.362C1241.81,-166.431 1249.42,-155.389 1255.92,-145.961"/>
<polygon fill="midnightblue" stroke="midnightblue" points="1258.91,-147.79 1261.71,-137.571 1253.15,-143.816 1258.91,-147.79"/>
</g>
<!-- Node25&#45;&gt;Node4 -->
<g id="edge60" class="edge"><title>Node25&#45;&gt;Node4</title>
<path fill="none" stroke="midnightblue" d="M1031.13,-116.15C1016.63,-101.607 995.811,-75.5903 1011,-58 1028.76,-37.4297 1203.14,-21.0222 1286.3,-14.2988"/>
<polygon fill="midnightblue" stroke="midnightblue" points="1286.76,-17.7733 1296.45,-13.4897 1286.21,-10.7954 1286.76,-17.7733"/>
</g>
<!-- Node25&#45;&gt;Node15 -->
<g id="edge64" class="edge"><title>Node25&#45;&gt;Node15</title>
<path fill="none" stroke="midnightblue" d="M977.651,-117.131C974.729,-116.739 971.835,-116.36 969,-116 817.376,-96.7594 768.496,-137.783 627,-80 599.086,-68.6008 572.806,-45.3746 556.583,-29.0282"/>
<polygon fill="midnightblue" stroke="midnightblue" points="558.922,-26.4116 549.464,-21.6382 553.881,-31.2682 558.922,-26.4116"/>
</g>
<!-- Node25&#45;&gt;Node19 -->
<g id="edge62" class="edge"><title>Node25&#45;&gt;Node19</title>
<path fill="none" stroke="midnightblue" d="M1084.4,-116.458C1114.57,-108.153 1156.11,-95.4204 1191,-80 1208.85,-72.1113 1210.39,-63.865 1229,-58 1278.16,-42.5101 1634.74,-19.6432 1744.16,-12.923"/>
<polygon fill="midnightblue" stroke="midnightblue" points="1744.48,-16.4101 1754.25,-12.3063 1744.05,-9.42311 1744.48,-16.4101"/>
</g>
<!-- Node26 -->
<g id="node59" class="node"><title>Node26</title>
<polygon fill="white" stroke="#bfbfbf" points="791.5,-58.5 791.5,-79.5 822.5,-79.5 822.5,-58.5 791.5,-58.5"/>
<text text-anchor="middle" x="807" y="-66.5" font-family="Helvetica,sans-Serif" font-size="10.00">set</text>
</g>
<!-- Node25&#45;&gt;Node26 -->
<g id="edge66" class="edge"><title>Node25&#45;&gt;Node26</title>
<path fill="none" stroke="midnightblue" d="M978.963,-116.459C938.809,-109.013 885.992,-97.6941 832.246,-79.9682"/>
<polygon fill="midnightblue" stroke="midnightblue" points="833.151,-76.5801 822.557,-76.7055 830.917,-83.214 833.151,-76.5801"/>
</g>
<!-- Node27 -->
<g id="node61" class="node"><title>Node27</title>
<polygon fill="white" stroke="#bfbfbf" points="1092.5,-0.5 1092.5,-21.5 1121.5,-21.5 1121.5,-0.5 1092.5,-0.5"/>
<text text-anchor="middle" x="1107" y="-8.5" font-family="Helvetica,sans-Serif" font-size="10.00">list</text>
</g>
<!-- Node25&#45;&gt;Node27 -->
<g id="edge68" class="edge"><title>Node25&#45;&gt;Node27</title>
<path fill="none" stroke="midnightblue" d="M977.65,-117.14C974.728,-116.745 971.834,-116.363 969,-116 894.954,-106.51 684.878,-135.543 635,-80 628.467,-72.725 628.392,-65.2065 635,-58 666.282,-23.8872 1004.16,-28.3938 1050,-22 1060.56,-20.5277 1072.12,-18.3947 1082.05,-16.3982"/>
<polygon fill="midnightblue" stroke="midnightblue" points="1082.99,-19.7788 1092.07,-14.3229 1081.57,-12.9243 1082.99,-19.7788"/>
</g>
<!-- Node28 -->
<g id="node63" class="node"><title>Node28</title>
<a xlink:href="LaunchPoint_8h.htm" target="_top" xlink:title="LaunchPoint.h">
<polygon fill="white" stroke="red" points="1099.5,-58.5 1099.5,-79.5 1182.5,-79.5 1182.5,-58.5 1099.5,-58.5"/>
<text text-anchor="middle" x="1141" y="-66.5" font-family="Helvetica,sans-Serif" font-size="10.00">LaunchPoint.h</text>
</a>
</g>
<!-- Node25&#45;&gt;Node28 -->
<g id="edge70" class="edge"><title>Node25&#45;&gt;Node28</title>
<path fill="none" stroke="midnightblue" d="M1060.97,-116.362C1075.89,-107.532 1097.33,-94.844 1114.27,-84.8224"/>
<polygon fill="midnightblue" stroke="midnightblue" points="1116.32,-87.6759 1123.14,-79.5707 1112.75,-81.6519 1116.32,-87.6759"/>
</g>
<!-- Node30 -->
<g id="node70" class="node"><title>Node30</title>
<polygon fill="white" stroke="#bfbfbf" points="839.5,-58.5 839.5,-79.5 926.5,-79.5 926.5,-58.5 839.5,-58.5"/>
<text text-anchor="middle" x="883" y="-66.5" font-family="Helvetica,sans-Serif" font-size="10.00">KeywordMap.h</text>
</g>
<!-- Node25&#45;&gt;Node30 -->
<g id="edge80" class="edge"><title>Node25&#45;&gt;Node30</title>
<path fill="none" stroke="midnightblue" d="M1014.03,-116.497C988.167,-107.123 950.101,-93.3242 921.654,-83.0122"/>
<polygon fill="midnightblue" stroke="midnightblue" points="922.623,-79.6406 912.029,-79.5231 920.238,-86.2216 922.623,-79.6406"/>
</g>
<!-- Node28&#45;&gt;Node4 -->
<g id="edge72" class="edge"><title>Node28&#45;&gt;Node4</title>
<path fill="none" stroke="midnightblue" d="M1175.23,-58.4966C1206.5,-48.8998 1252.89,-34.6647 1286.72,-24.2817"/>
<polygon fill="midnightblue" stroke="midnightblue" points="1287.81,-27.6075 1296.35,-21.3277 1285.76,-20.9155 1287.81,-27.6075"/>
</g>
<!-- Node28&#45;&gt;Node19 -->
<g id="edge74" class="edge"><title>Node28&#45;&gt;Node19</title>
<path fill="none" stroke="midnightblue" d="M1182.65,-60.1386C1187.15,-59.3416 1191.66,-58.6077 1196,-58 1303.49,-42.9484 1639.14,-20.0526 1744.22,-13.0842"/>
<polygon fill="midnightblue" stroke="midnightblue" points="1744.47,-16.5757 1754.21,-12.4235 1744,-9.59097 1744.47,-16.5757"/>
</g>
<!-- Node28&#45;&gt;Node27 -->
<g id="edge76" class="edge"><title>Node28&#45;&gt;Node27</title>
<path fill="none" stroke="midnightblue" d="M1134.76,-58.3619C1130.16,-50.5131 1123.77,-39.6159 1118.29,-30.2527"/>
<polygon fill="midnightblue" stroke="midnightblue" points="1121.27,-28.4276 1113.2,-21.5707 1115.23,-31.9677 1121.27,-28.4276"/>
</g>
<!-- Node29 -->
<g id="node68" class="node"><title>Node29</title>
<polygon fill="white" stroke="#bfbfbf" points="1529.5,-0.5 1529.5,-21.5 1570.5,-21.5 1570.5,-0.5 1529.5,-0.5"/>
<text text-anchor="middle" x="1550" y="-8.5" font-family="Helvetica,sans-Serif" font-size="10.00">glib.h</text>
</g>
<!-- Node28&#45;&gt;Node29 -->
<g id="edge78" class="edge"><title>Node28&#45;&gt;Node29</title>
<path fill="none" stroke="midnightblue" d="M1182.69,-60.3644C1187.17,-59.5242 1191.68,-58.7184 1196,-58 1314.85,-38.2468 1457.25,-21.3997 1518.96,-14.4293"/>
<polygon fill="midnightblue" stroke="midnightblue" points="1519.63,-17.8758 1529.18,-13.2821 1518.85,-10.9195 1519.63,-17.8758"/>
</g>
<!-- Node32&#45;&gt;Node4 -->
<g id="edge86" class="edge"><title>Node32&#45;&gt;Node4</title>
<path fill="none" stroke="midnightblue" d="M1609.16,-60.0646C1544.73,-48.7401 1434.74,-29.4089 1373.83,-18.704"/>
<polygon fill="midnightblue" stroke="midnightblue" points="1374.23,-15.2199 1363.77,-16.9359 1373.02,-22.1142 1374.23,-15.2199"/>
</g>
<!-- Node32&#45;&gt;Node29 -->
<g id="edge88" class="edge"><title>Node32&#45;&gt;Node29</title>
<path fill="none" stroke="midnightblue" d="M1640.08,-58.4966C1623.05,-49.5194 1598.33,-36.4835 1579.09,-26.3387"/>
<polygon fill="midnightblue" stroke="midnightblue" points="1580.62,-23.1894 1570.14,-21.6212 1577.36,-29.3814 1580.62,-23.1894"/>
</g>
<!-- Node33 -->
<g id="node78" class="node"><title>Node33</title>
<polygon fill="white" stroke="#bfbfbf" points="2007,-0.5 2007,-21.5 2085,-21.5 2085,-0.5 2007,-0.5"/>
<text text-anchor="middle" x="2046" y="-8.5" font-family="Helvetica,sans-Serif" font-size="10.00">lunaservice.h</text>
</g>
<!-- Node32&#45;&gt;Node33 -->
<g id="edge90" class="edge"><title>Node32&#45;&gt;Node33</title>
<path fill="none" stroke="midnightblue" d="M1710.61,-63.357C1774.89,-55.8812 1889.41,-41.5327 1996.74,-22.1174"/>
<polygon fill="midnightblue" stroke="midnightblue" points="1997.56,-25.5254 2006.76,-20.2843 1996.3,-18.6395 1997.56,-25.5254"/>
</g>
<!-- Node34&#45;&gt;Node4 -->
<g id="edge94" class="edge"><title>Node34&#45;&gt;Node4</title>
<path fill="none" stroke="midnightblue" d="M1297.34,-58.3619C1302.81,-50.4313 1310.42,-39.3885 1316.92,-29.9606"/>
<polygon fill="midnightblue" stroke="midnightblue" points="1319.91,-31.7899 1322.71,-21.5707 1314.15,-27.8157 1319.91,-31.7899"/>
</g>
<!-- Node35&#45;&gt;Node4 -->
<g id="edge98" class="edge"><title>Node35&#45;&gt;Node4</title>
<path fill="none" stroke="midnightblue" d="M1082.39,-60.1321C1085.29,-59.3829 1088.2,-58.6603 1091,-58 1158.68,-42.0614 1238.02,-27.2071 1286.12,-18.62"/>
<polygon fill="midnightblue" stroke="midnightblue" points="1286.95,-22.0272 1296.19,-16.8331 1285.73,-15.135 1286.95,-22.0272"/>
</g>
<!-- Node35&#45;&gt;Node14 -->
<g id="edge106" class="edge"><title>Node35&#45;&gt;Node14</title>
<path fill="none" stroke="midnightblue" d="M1040.18,-58.3619C1031.78,-50.1043 1019.95,-38.4725 1010.11,-28.8029"/>
<polygon fill="midnightblue" stroke="midnightblue" points="1012.34,-26.0851 1002.75,-21.5707 1007.43,-31.077 1012.34,-26.0851"/>
</g>
<!-- Node35&#45;&gt;Node15 -->
<g id="edge100" class="edge"><title>Node35&#45;&gt;Node15</title>
<path fill="none" stroke="midnightblue" d="M1019.8,-65.4591C929.785,-55.2417 669.972,-25.7522 575.163,-14.9911"/>
<polygon fill="midnightblue" stroke="midnightblue" points="575.545,-11.5121 565.214,-13.8618 574.755,-18.4674 575.545,-11.5121"/>
</g>
<!-- Node35&#45;&gt;Node19 -->
<g id="edge102" class="edge"><title>Node35&#45;&gt;Node19</title>
<path fill="none" stroke="midnightblue" d="M1082.31,-59.7532C1085.23,-59.0835 1088.16,-58.483 1091,-58 1155.8,-46.9806 1617.46,-20.0588 1744,-12.8182"/>
<polygon fill="midnightblue" stroke="midnightblue" points="1744.4,-16.3007 1754.19,-12.2362 1744,-9.31211 1744.4,-16.3007"/>
</g>
<!-- Node35&#45;&gt;Node29 -->
<g id="edge104" class="edge"><title>Node35&#45;&gt;Node29</title>
<path fill="none" stroke="midnightblue" d="M1082.33,-59.8548C1085.25,-59.1638 1088.17,-58.5305 1091,-58 1250.47,-28.1236 1444.91,-16.1022 1519.17,-12.3842"/>
<polygon fill="midnightblue" stroke="midnightblue" points="1519.42,-15.8764 1529.24,-11.8948 1519.08,-8.8847 1519.42,-15.8764"/>
</g>
<!-- Node37&#45;&gt;Node14 -->
<g id="edge114" class="edge"><title>Node37&#45;&gt;Node14</title>
<path fill="none" stroke="midnightblue" d="M1233.03,-117.765C1230.32,-117.143 1227.62,-116.547 1225,-116 1130.59,-96.2889 1082.59,-144.632 1011,-80 997.642,-67.9398 993.317,-47.4382 992.08,-31.9082"/>
<polygon fill="midnightblue" stroke="midnightblue" points="995.567,-31.5108 991.64,-21.6704 988.573,-31.8115 995.567,-31.5108"/>
</g>
<!-- Node37&#45;&gt;Node34 -->
<g id="edge116" class="edge"><title>Node37&#45;&gt;Node34</title>
<path fill="none" stroke="midnightblue" d="M1272.85,-116.362C1275.6,-108.758 1279.39,-98.294 1282.71,-89.1349"/>
<polygon fill="midnightblue" stroke="midnightblue" points="1286.06,-90.1649 1286.17,-79.5707 1279.48,-87.7818 1286.06,-90.1649"/>
</g>
<!-- Node37&#45;&gt;Node35 -->
<g id="edge112" class="edge"><title>Node37&#45;&gt;Node35</title>
<path fill="none" stroke="midnightblue" d="M1233.17,-117.655C1199.24,-108.779 1146.61,-94.9454 1091.88,-80.2199"/>
<polygon fill="midnightblue" stroke="midnightblue" points="1092.57,-76.7806 1082,-77.5587 1090.75,-83.5396 1092.57,-76.7806"/>
</g>
<!-- Node37&#45;&gt;Node36 -->
<g id="edge118" class="edge"><title>Node37&#45;&gt;Node36</title>
<path fill="none" stroke="midnightblue" d="M1304.85,-121.581C1354.58,-113.802 1447.16,-98.3641 1525,-80 1559.23,-71.9261 1566.74,-65.916 1601,-58 1611.36,-55.6071 1738.85,-33.6472 1814.88,-20.6079"/>
<polygon fill="midnightblue" stroke="midnightblue" points="1815.53,-24.0477 1824.79,-18.9081 1814.35,-17.1484 1815.53,-24.0477"/>
</g>
<!-- Node38&#45;&gt;Node8 -->
<g id="edge122" class="edge"><title>Node38&#45;&gt;Node8</title>
<path fill="none" stroke="midnightblue" d="M2015.36,-174.274C2011.33,-164.813 2005.47,-150.607 2001,-138 1987.83,-100.889 1974.88,-56.7895 1967.71,-31.5303"/>
<polygon fill="midnightblue" stroke="midnightblue" points="1971.01,-30.3166 1964.93,-21.638 1964.27,-32.2122 1971.01,-30.3166"/>
</g>
<!-- Node39 -->
<g id="node101" class="node"><title>Node39</title>
<polygon fill="white" stroke="#bfbfbf" points="2010,-116.5 2010,-137.5 2108,-137.5 2108,-116.5 2010,-116.5"/>
<text text-anchor="middle" x="2059" y="-124.5" font-family="Helvetica,sans-Serif" font-size="10.00">palmimedefines.h</text>
</g>
<!-- Node38&#45;&gt;Node39 -->
<g id="edge124" class="edge"><title>Node38&#45;&gt;Node39</title>
<path fill="none" stroke="midnightblue" d="M2027.15,-174.362C2032.49,-166.431 2039.91,-155.389 2046.25,-145.961"/>
<polygon fill="midnightblue" stroke="midnightblue" points="2049.22,-147.822 2051.89,-137.571 2043.41,-143.916 2049.22,-147.822"/>
</g>
<!-- Node41&#45;&gt;Node4 -->
<g id="edge130" class="edge"><title>Node41&#45;&gt;Node4</title>
<path fill="none" stroke="midnightblue" d="M2009.3,-65.1945C1876.26,-54.5804 1502.45,-24.7582 1374,-14.5102"/>
<polygon fill="midnightblue" stroke="midnightblue" points="1374,-10.9996 1363.76,-13.6932 1373.45,-17.9774 1374,-10.9996"/>
</g>
<!-- Node41&#45;&gt;Node8 -->
<g id="edge138" class="edge"><title>Node41&#45;&gt;Node8</title>
<path fill="none" stroke="midnightblue" d="M2039.58,-58.3619C2025.11,-49.532 2004.33,-36.844 1987.92,-26.8224"/>
<polygon fill="midnightblue" stroke="midnightblue" points="1989.67,-23.7943 1979.31,-21.5707 1986.03,-29.7688 1989.67,-23.7943"/>
</g>
<!-- Node41&#45;&gt;Node19 -->
<g id="edge132" class="edge"><title>Node41&#45;&gt;Node19</title>
<path fill="none" stroke="midnightblue" d="M2009.22,-60.7834C1960.43,-52.1359 1882.61,-37.6302 1816,-22 1813.17,-21.3367 1810.25,-20.6096 1807.32,-19.8551"/>
<polygon fill="midnightblue" stroke="midnightblue" points="1808.08,-16.4355 1797.51,-17.2379 1806.27,-23.1987 1808.08,-16.4355"/>
</g>
<!-- Node41&#45;&gt;Node33 -->
<g id="edge134" class="edge"><title>Node41&#45;&gt;Node33</title>
<path fill="none" stroke="midnightblue" d="M2054.98,-58.3619C2053.56,-50.8401 2051.6,-40.5187 2049.87,-31.4308"/>
<polygon fill="midnightblue" stroke="midnightblue" points="2053.31,-30.7433 2048,-21.5707 2046.43,-32.0477 2053.31,-30.7433"/>
</g>
<!-- Node42 -->
<g id="node110" class="node"><title>Node42</title>
<polygon fill="white" stroke="#bfbfbf" points="2103,-0.5 2103,-21.5 2155,-21.5 2155,-0.5 2103,-0.5"/>
<text text-anchor="middle" x="2129" y="-8.5" font-family="Helvetica,sans-Serif" font-size="10.00">QTimer</text>
</g>
<!-- Node41&#45;&gt;Node42 -->
<g id="edge136" class="edge"><title>Node41&#45;&gt;Node42</title>
<path fill="none" stroke="midnightblue" d="M2070.21,-58.3619C2080.76,-49.859 2095.76,-37.7785 2107.96,-27.9466"/>
<polygon fill="midnightblue" stroke="midnightblue" points="2110.29,-30.5696 2115.88,-21.5707 2105.89,-25.1183 2110.29,-30.5696"/>
</g>
<!-- Node43&#45;&gt;Node4 -->
<g id="edge142" class="edge"><title>Node43&#45;&gt;Node4</title>
<path fill="none" stroke="midnightblue" d="M1724.12,-116.361C1663.25,-98.3234 1544.41,-63.1855 1525,-58 1473.16,-44.1508 1413.08,-29.9459 1373.46,-20.8308"/>
<polygon fill="midnightblue" stroke="midnightblue" points="1374.13,-17.393 1363.6,-18.5698 1372.56,-24.2159 1374.13,-17.393"/>
</g>
<!-- Node43&#45;&gt;Node19 -->
<g id="edge148" class="edge"><title>Node43&#45;&gt;Node19</title>
<path fill="none" stroke="midnightblue" d="M1761.48,-116.295C1764.12,-97.1314 1769.7,-56.654 1773.13,-31.8434"/>
<polygon fill="midnightblue" stroke="midnightblue" points="1776.63,-32.0637 1774.53,-21.6792 1769.69,-31.1072 1776.63,-32.0637"/>
</g>
<!-- Node43&#45;&gt;Node29 -->
<g id="edge144" class="edge"><title>Node43&#45;&gt;Node29</title>
<path fill="none" stroke="midnightblue" d="M1756.57,-116.396C1751.1,-101.16 1738.92,-73.2381 1719,-58 1697.31,-41.4128 1623.1,-25.0043 1580.58,-16.6615"/>
<polygon fill="midnightblue" stroke="midnightblue" points="1580.98,-13.1752 1570.5,-14.719 1579.66,-20.0487 1580.98,-13.1752"/>
</g>
<!-- Node44 -->
<g id="node117" class="node"><title>Node44</title>
<polygon fill="white" stroke="#bfbfbf" points="1803.5,-58.5 1803.5,-79.5 1840.5,-79.5 1840.5,-58.5 1803.5,-58.5"/>
<text text-anchor="middle" x="1822" y="-66.5" font-family="Helvetica,sans-Serif" font-size="10.00">map</text>
</g>
<!-- Node43&#45;&gt;Node44 -->
<g id="edge146" class="edge"><title>Node43&#45;&gt;Node44</title>
<path fill="none" stroke="midnightblue" d="M1771.37,-116.362C1780.29,-108.023 1792.88,-96.2418 1803.28,-86.5162"/>
<polygon fill="midnightblue" stroke="midnightblue" points="1805.79,-88.9582 1810.7,-79.5707 1801.01,-83.8463 1805.79,-88.9582"/>
</g>
<!-- Node45 -->
<g id="node120" class="node"><title>Node45</title>
<a xlink:href="AnimationEquations_8h.htm" target="_top" xlink:title="AnimationEquations.h">
<polygon fill="white" stroke="black" points="1398,-58.5 1398,-79.5 1516,-79.5 1516,-58.5 1398,-58.5"/>
<text text-anchor="middle" x="1457" y="-66.5" font-family="Helvetica,sans-Serif" font-size="10.00">AnimationEquations.h</text>
</a>
</g>
<!-- Node43&#45;&gt;Node45 -->
<g id="edge150" class="edge"><title>Node43&#45;&gt;Node45</title>
<path fill="none" stroke="midnightblue" d="M1705.13,-116.497C1653.59,-106.632 1576.45,-91.8659 1521.89,-81.4209"/>
<polygon fill="midnightblue" stroke="midnightblue" points="1522.45,-77.9656 1511.97,-79.5231 1521.14,-84.8408 1522.45,-77.9656"/>
</g>
<!-- Node45&#45;&gt;Node4 -->
<g id="edge152" class="edge"><title>Node45&#45;&gt;Node4</title>
<path fill="none" stroke="midnightblue" d="M1434,-58.4966C1413.99,-49.3562 1384.76,-36.0082 1362.38,-25.7883"/>
<polygon fill="midnightblue" stroke="midnightblue" points="1363.81,-22.5918 1353.26,-21.6212 1360.9,-28.9592 1363.81,-22.5918"/>
</g>
<!-- Node46&#45;&gt;Node4 -->
<g id="edge156" class="edge"><title>Node46&#45;&gt;Node4</title>
<path fill="none" stroke="midnightblue" d="M2121.35,-59.3248C2118.53,-58.8288 2115.73,-58.3797 2113,-58 2094.56,-55.4347 1536.18,-22.9513 1373.85,-13.5394"/>
<polygon fill="midnightblue" stroke="midnightblue" points="1373.93,-10.0381 1363.74,-12.9534 1373.52,-17.0263 1373.93,-10.0381"/>
</g>
<!-- Node46&#45;&gt;Node8 -->
<g id="edge168" class="edge"><title>Node46&#45;&gt;Node8</title>
<path fill="none" stroke="midnightblue" d="M2125.26,-58.4703C2093.87,-49.6634 2047.78,-36.6173 1999.24,-22.3343"/>
<polygon fill="midnightblue" stroke="midnightblue" points="2000.08,-18.9345 1989.5,-19.462 1998.1,-25.6485 2000.08,-18.9345"/>
</g>
<!-- Node46&#45;&gt;Node19 -->
<g id="edge160" class="edge"><title>Node46&#45;&gt;Node19</title>
<path fill="none" stroke="midnightblue" d="M2121.32,-59.5162C2118.51,-58.974 2115.72,-58.4623 2113,-58 1981.92,-35.6897 1946.46,-47.6985 1816,-22 1813.31,-21.4702 1810.54,-20.8547 1807.76,-20.1908"/>
<polygon fill="midnightblue" stroke="midnightblue" points="1808.42,-16.7473 1797.87,-17.6408 1806.68,-23.5258 1808.42,-16.7473"/>
</g>
<!-- Node46&#45;&gt;Node33 -->
<g id="edge162" class="edge"><title>Node46&#45;&gt;Node33</title>
<path fill="none" stroke="midnightblue" d="M2141.81,-58.4966C2123.54,-49.4378 2096.93,-36.2462 2076.39,-26.0628"/>
<polygon fill="midnightblue" stroke="midnightblue" points="2077.94,-22.9269 2067.43,-21.6212 2074.83,-29.1986 2077.94,-22.9269"/>
</g>
<!-- Node46&#45;&gt;Node36 -->
<g id="edge166" class="edge"><title>Node46&#45;&gt;Node36</title>
<path fill="none" stroke="midnightblue" d="M2121.28,-59.7345C2118.48,-59.1395 2115.7,-58.5565 2113,-58 2033.18,-41.5402 2010.7,-38.5129 1927.15,-22.2122"/>
<polygon fill="midnightblue" stroke="midnightblue" points="1927.69,-18.7529 1917.21,-20.2668 1926.35,-25.6226 1927.69,-18.7529"/>
</g>
<!-- Node47 -->
<g id="node126" class="node"><title>Node47</title>
<polygon fill="white" stroke="#bfbfbf" points="2173,-0.5 2173,-21.5 2287,-21.5 2287,-0.5 2173,-0.5"/>
<text text-anchor="middle" x="2230" y="-8.5" font-family="Helvetica,sans-Serif" font-size="10.00">LocalePreferences.h</text>
</g>
<!-- Node46&#45;&gt;Node47 -->
<g id="edge158" class="edge"><title>Node46&#45;&gt;Node47</title>
<path fill="none" stroke="midnightblue" d="M2175.29,-58.3619C2185.02,-49.9408 2198.8,-38.0105 2210.1,-28.2308"/>
<polygon fill="midnightblue" stroke="midnightblue" points="2212.52,-30.7619 2217.79,-21.5707 2207.94,-25.4695 2212.52,-30.7619"/>
</g>
<!-- Node48 -->
<g id="node130" class="node"><title>Node48</title>
<polygon fill="white" stroke="#bfbfbf" points="2304.5,-0.5 2304.5,-21.5 2357.5,-21.5 2357.5,-0.5 2304.5,-0.5"/>
<text text-anchor="middle" x="2331" y="-8.5" font-family="Helvetica,sans-Serif" font-size="10.00">Mutex.h</text>
</g>
<!-- Node46&#45;&gt;Node48 -->
<g id="edge164" class="edge"><title>Node46&#45;&gt;Node48</title>
<path fill="none" stroke="midnightblue" d="M2193.42,-58.4966C2221.88,-48.6714 2264.42,-33.9846 2294.66,-23.5471"/>
<polygon fill="midnightblue" stroke="midnightblue" points="2296.09,-26.7553 2304.4,-20.1835 2293.8,-20.1386 2296.09,-26.7553"/>
</g>
</g>
</svg>
