<?xml version="1.0" encoding="UTF-8" standalone="no"?>
<!DOCTYPE svg PUBLIC "-//W3C//DTD SVG 1.1//EN"
 "http://www.w3.org/Graphics/SVG/1.1/DTD/svg11.dtd">
<!-- Generated by graphviz version 2.26.3 (20100126.1600)
 -->
<!-- Title: IpcServer.h Pages: 1 -->
<svg width="972pt" height="204pt"
 viewBox="0.00 0.00 971.65 204.00" xmlns="http://www.w3.org/2000/svg" xmlns:xlink="http://www.w3.org/1999/xlink">
<g id="graph1" class="graph" transform="scale(1 1) rotate(0) translate(4 200)">
<title>IpcServer.h</title>
<polygon fill="white" stroke="white" points="-4,5 -4,-200 968.654,-200 968.654,5 -4,5"/>
<!-- Node1 -->
<g id="node1" class="node"><title>Node1</title>
<polygon fill="#bfbfbf" stroke="black" points="422.154,-174.5 422.154,-195.5 493.154,-195.5 493.154,-174.5 422.154,-174.5"/>
<text text-anchor="middle" x="457.654" y="-182.5" font-family="Helvetica,sans-Serif" font-size="10.00">IpcServer.h</text>
</g>
<!-- Node2 -->
<g id="node3" class="node"><title>Node2</title>
<polygon fill="white" stroke="#bfbfbf" points="388.154,-0.5 388.154,-21.5 455.154,-21.5 455.154,-0.5 388.154,-0.5"/>
<text text-anchor="middle" x="421.654" y="-8.5" font-family="Helvetica,sans-Serif" font-size="10.00">Common.h</text>
</g>
<!-- Node1&#45;&gt;Node2 -->
<g id="edge2" class="edge"><title>Node1&#45;&gt;Node2</title>
<path fill="none" stroke="midnightblue" d="M455.456,-174.377C449.646,-146.293 433.794,-69.6735 426.041,-32.2027"/>
<polygon fill="midnightblue" stroke="midnightblue" points="429.369,-31.0112 423.915,-21.9277 422.514,-32.4295 429.369,-31.0112"/>
</g>
<!-- Node3 -->
<g id="node5" class="node"><title>Node3</title>
<polygon fill="white" stroke="#bfbfbf" points="736.154,-0.5 736.154,-21.5 773.154,-21.5 773.154,-0.5 736.154,-0.5"/>
<text text-anchor="middle" x="754.654" y="-8.5" font-family="Helvetica,sans-Serif" font-size="10.00">map</text>
</g>
<!-- Node1&#45;&gt;Node3 -->
<g id="edge4" class="edge"><title>Node1&#45;&gt;Node3</title>
<path fill="none" stroke="midnightblue" d="M493.188,-178.422C567.975,-163.779 737.478,-126.122 770.654,-80 781.021,-65.5874 774.606,-45.4853 767.041,-30.6951"/>
<polygon fill="midnightblue" stroke="midnightblue" points="770.021,-28.8553 762.068,-21.8561 763.921,-32.2876 770.021,-28.8553"/>
</g>
<!-- Node4 -->
<g id="node7" class="node"><title>Node4</title>
<polygon fill="white" stroke="#bfbfbf" points="13.1543,-58.5 13.1543,-79.5 44.1543,-79.5 44.1543,-58.5 13.1543,-58.5"/>
<text text-anchor="middle" x="28.6543" y="-66.5" font-family="Helvetica,sans-Serif" font-size="10.00">set</text>
</g>
<!-- Node1&#45;&gt;Node4 -->
<g id="edge6" class="edge"><title>Node1&#45;&gt;Node4</title>
<path fill="none" stroke="midnightblue" d="M421.816,-175.309C337.363,-152.474 127.483,-95.7229 54.3087,-75.9369"/>
<polygon fill="midnightblue" stroke="midnightblue" points="55.1026,-72.5259 44.5357,-73.2943 53.2754,-79.2832 55.1026,-72.5259"/>
</g>
<!-- Node5 -->
<g id="node9" class="node"><title>Node5</title>
<polygon fill="white" stroke="#bfbfbf" points="52.1543,-0.5 52.1543,-21.5 95.1543,-21.5 95.1543,-0.5 52.1543,-0.5"/>
<text text-anchor="middle" x="73.6543" y="-8.5" font-family="Helvetica,sans-Serif" font-size="10.00">string</text>
</g>
<!-- Node1&#45;&gt;Node5 -->
<g id="edge8" class="edge"><title>Node1&#45;&gt;Node5</title>
<path fill="none" stroke="midnightblue" d="M421.856,-182.461C323.835,-174.672 55.0196,-147.428 4.65427,-80 -11.1469,-58.8456 17.8684,-37.8737 42.9863,-24.7034"/>
<polygon fill="midnightblue" stroke="midnightblue" points="44.5889,-27.8154 51.9737,-20.2183 41.4631,-21.552 44.5889,-27.8154"/>
</g>
<!-- Node6 -->
<g id="node11" class="node"><title>Node6</title>
<polygon fill="white" stroke="#bfbfbf" points="817.154,-116.5 817.154,-137.5 894.154,-137.5 894.154,-116.5 817.154,-116.5"/>
<text text-anchor="middle" x="855.654" y="-124.5" font-family="Helvetica,sans-Serif" font-size="10.00">PIpcServer.h</text>
</g>
<!-- Node1&#45;&gt;Node6 -->
<g id="edge10" class="edge"><title>Node1&#45;&gt;Node6</title>
<path fill="none" stroke="midnightblue" d="M493.401,-181.022C556.33,-173.824 690.915,-157.554 803.654,-138 804.745,-137.811 805.848,-137.615 806.96,-137.414"/>
<polygon fill="midnightblue" stroke="midnightblue" points="807.926,-140.793 817.096,-135.486 806.618,-133.916 807.926,-140.793"/>
</g>
<!-- Node7 -->
<g id="node13" class="node"><title>Node7</title>
<polygon fill="white" stroke="#bfbfbf" points="911.654,-116.5 911.654,-137.5 963.654,-137.5 963.654,-116.5 911.654,-116.5"/>
<text text-anchor="middle" x="937.654" y="-124.5" font-family="Helvetica,sans-Serif" font-size="10.00">Timer.h</text>
</g>
<!-- Node1&#45;&gt;Node7 -->
<g id="edge12" class="edge"><title>Node1&#45;&gt;Node7</title>
<path fill="none" stroke="midnightblue" d="M493.213,-183.649C567.582,-180.309 744.959,-169.663 901.618,-137.883"/>
<polygon fill="midnightblue" stroke="midnightblue" points="902.343,-141.307 911.429,-135.859 900.928,-134.452 902.343,-141.307"/>
</g>
<!-- Node8 -->
<g id="node15" class="node"><title>Node8</title>
<a xlink:href="ApplicationDescription_8h.htm" target="_top" xlink:title="ApplicationDescription.h">
<polygon fill="white" stroke="black" points="299.654,-116.5 299.654,-137.5 429.654,-137.5 429.654,-116.5 299.654,-116.5"/>
<text text-anchor="middle" x="364.654" y="-124.5" font-family="Helvetica,sans-Serif" font-size="10.00">ApplicationDescription.h</text>
</a>
</g>
<!-- Node1&#45;&gt;Node8 -->
<g id="edge14" class="edge"><title>Node1&#45;&gt;Node8</title>
<path fill="none" stroke="midnightblue" d="M440.597,-174.362C426.569,-165.614 406.47,-153.079 390.472,-143.101"/>
<polygon fill="midnightblue" stroke="midnightblue" points="391.941,-139.893 381.604,-137.571 388.237,-145.832 391.941,-139.893"/>
</g>
<!-- Node8&#45;&gt;Node2 -->
<g id="edge16" class="edge"><title>Node8&#45;&gt;Node2</title>
<path fill="none" stroke="midnightblue" d="M369.915,-116.295C379.458,-96.8724 399.76,-55.5561 411.902,-30.8462"/>
<polygon fill="midnightblue" stroke="midnightblue" points="415.138,-32.1978 416.407,-21.6792 408.855,-29.1107 415.138,-32.1978"/>
</g>
<!-- Node8&#45;&gt;Node4 -->
<g id="edge22" class="edge"><title>Node8&#45;&gt;Node4</title>
<path fill="none" stroke="midnightblue" d="M299.458,-121.044C236.75,-114.375 139.653,-101.57 57.6543,-80 56.424,-79.6764 55.1738,-79.3188 53.9178,-78.9363"/>
<polygon fill="midnightblue" stroke="midnightblue" points="55.0071,-75.6097 44.4124,-75.6659 52.7297,-82.2289 55.0071,-75.6097"/>
</g>
<!-- Node8&#45;&gt;Node5 -->
<g id="edge18" class="edge"><title>Node8&#45;&gt;Node5</title>
<path fill="none" stroke="midnightblue" d="M299.346,-123.885C228.09,-119.127 120.198,-107.498 90.6543,-80 77.5736,-67.825 73.8528,-47.3385 73.0877,-31.8432"/>
<polygon fill="midnightblue" stroke="midnightblue" points="76.585,-31.5886 72.9615,-21.6327 69.5855,-31.6752 76.585,-31.5886"/>
</g>
<!-- Node9 -->
<g id="node19" class="node"><title>Node9</title>
<polygon fill="white" stroke="#bfbfbf" points="619.654,-0.5 619.654,-21.5 669.654,-21.5 669.654,-0.5 619.654,-0.5"/>
<text text-anchor="middle" x="644.654" y="-8.5" font-family="Helvetica,sans-Serif" font-size="10.00">stdint.h</text>
</g>
<!-- Node8&#45;&gt;Node9 -->
<g id="edge20" class="edge"><title>Node8&#45;&gt;Node9</title>
<path fill="none" stroke="midnightblue" d="M429.833,-123.477C498.567,-118.399 600.719,-106.527 628.654,-80 641.57,-67.735 644.992,-47.2603 645.529,-31.7923"/>
<polygon fill="midnightblue" stroke="midnightblue" points="649.029,-31.5946 645.505,-21.6031 642.029,-31.6115 649.029,-31.5946"/>
</g>
<!-- Node10 -->
<g id="node22" class="node"><title>Node10</title>
<polygon fill="white" stroke="#bfbfbf" points="299.154,-0.5 299.154,-21.5 328.154,-21.5 328.154,-0.5 299.154,-0.5"/>
<text text-anchor="middle" x="313.654" y="-8.5" font-family="Helvetica,sans-Serif" font-size="10.00">list</text>
</g>
<!-- Node8&#45;&gt;Node10 -->
<g id="edge24" class="edge"><title>Node8&#45;&gt;Node10</title>
<path fill="none" stroke="midnightblue" d="M366.773,-116.164C368.996,-102.087 371.111,-77.0605 362.654,-58 357.052,-45.3734 346.311,-34.4581 336.31,-26.3332"/>
<polygon fill="midnightblue" stroke="midnightblue" points="338.294,-23.445 328.212,-20.1882 334.062,-29.0213 338.294,-23.445"/>
</g>
<!-- Node11 -->
<g id="node24" class="node"><title>Node11</title>
<a xlink:href="LaunchPoint_8h.htm" target="_top" xlink:title="LaunchPoint.h">
<polygon fill="white" stroke="black" points="99.1543,-58.5 99.1543,-79.5 182.154,-79.5 182.154,-58.5 99.1543,-58.5"/>
<text text-anchor="middle" x="140.654" y="-66.5" font-family="Helvetica,sans-Serif" font-size="10.00">LaunchPoint.h</text>
</a>
</g>
<!-- Node8&#45;&gt;Node11 -->
<g id="edge26" class="edge"><title>Node8&#45;&gt;Node11</title>
<path fill="none" stroke="midnightblue" d="M324.09,-116.497C286.781,-106.836 231.322,-92.4765 191.157,-82.0765"/>
<polygon fill="midnightblue" stroke="midnightblue" points="191.853,-78.6415 181.295,-79.5231 190.098,-85.418 191.853,-78.6415"/>
</g>
<!-- Node14 -->
<g id="node33" class="node"><title>Node14</title>
<polygon fill="white" stroke="#bfbfbf" points="675.154,-58.5 675.154,-79.5 762.154,-79.5 762.154,-58.5 675.154,-58.5"/>
<text text-anchor="middle" x="718.654" y="-66.5" font-family="Helvetica,sans-Serif" font-size="10.00">KeywordMap.h</text>
</g>
<!-- Node8&#45;&gt;Node14 -->
<g id="edge38" class="edge"><title>Node8&#45;&gt;Node14</title>
<path fill="none" stroke="midnightblue" d="M429.941,-117.315C490.187,-108.224 582.085,-93.9695 661.654,-80 662.746,-79.8083 663.85,-79.6128 664.961,-79.4141"/>
<polygon fill="midnightblue" stroke="midnightblue" points="665.905,-82.7997 675.113,-77.5592 664.647,-75.9137 665.905,-82.7997"/>
</g>
<!-- Node15 -->
<g id="node35" class="node"><title>Node15</title>
<a xlink:href="CmdResourceHandlers_8h.htm" target="_top" xlink:title="CmdResourceHandlers.h">
<polygon fill="white" stroke="black" points="485.654,-58.5 485.654,-79.5 619.654,-79.5 619.654,-58.5 485.654,-58.5"/>
<text text-anchor="middle" x="552.654" y="-66.5" font-family="Helvetica,sans-Serif" font-size="10.00">CmdResourceHandlers.h</text>
</a>
</g>
<!-- Node8&#45;&gt;Node15 -->
<g id="edge40" class="edge"><title>Node8&#45;&gt;Node15</title>
<path fill="none" stroke="midnightblue" d="M398.7,-116.497C429.614,-106.959 475.377,-92.8408 508.977,-82.475"/>
<polygon fill="midnightblue" stroke="midnightblue" points="510.021,-85.8156 518.545,-79.5231 507.958,-79.1267 510.021,-85.8156"/>
</g>
<!-- Node18 -->
<g id="node45" class="node"><title>Node18</title>
<polygon fill="white" stroke="#bfbfbf" points="199.654,-58.5 199.654,-79.5 353.654,-79.5 353.654,-58.5 199.654,-58.5"/>
<text text-anchor="middle" x="276.654" y="-66.5" font-family="Helvetica,sans-Serif" font-size="10.00">ApplicationDescriptionBase.h</text>
</g>
<!-- Node8&#45;&gt;Node18 -->
<g id="edge54" class="edge"><title>Node8&#45;&gt;Node18</title>
<path fill="none" stroke="midnightblue" d="M348.514,-116.362C335.241,-107.614 316.222,-95.0786 301.084,-85.1015"/>
<polygon fill="midnightblue" stroke="midnightblue" points="302.968,-82.1515 292.693,-79.5707 299.116,-87.9962 302.968,-82.1515"/>
</g>
<!-- Node11&#45;&gt;Node2 -->
<g id="edge28" class="edge"><title>Node11&#45;&gt;Node2</title>
<path fill="none" stroke="midnightblue" d="M182.385,-59.7674C185.183,-59.1645 187.959,-58.5707 190.654,-58 255.795,-44.2086 331.438,-28.9637 377.925,-19.6831"/>
<polygon fill="midnightblue" stroke="midnightblue" points="378.832,-23.0711 387.954,-17.683 377.463,-16.2063 378.832,-23.0711"/>
</g>
<!-- Node11&#45;&gt;Node5 -->
<g id="edge30" class="edge"><title>Node11&#45;&gt;Node5</title>
<path fill="none" stroke="midnightblue" d="M128.365,-58.3619C118.638,-49.9408 104.856,-38.0105 93.5588,-28.2308"/>
<polygon fill="midnightblue" stroke="midnightblue" points="95.7166,-25.4695 85.8652,-21.5707 91.1351,-30.7619 95.7166,-25.4695"/>
</g>
<!-- Node11&#45;&gt;Node10 -->
<g id="edge32" class="edge"><title>Node11&#45;&gt;Node10</title>
<path fill="none" stroke="midnightblue" d="M171.983,-58.4966C205.751,-47.1756 258.771,-29.4001 289.471,-19.1078"/>
<polygon fill="midnightblue" stroke="midnightblue" points="290.597,-22.4216 298.966,-15.9243 288.372,-15.7846 290.597,-22.4216"/>
</g>
<!-- Node12 -->
<g id="node29" class="node"><title>Node12</title>
<polygon fill="white" stroke="#bfbfbf" points="175.154,-0.5 175.154,-21.5 234.154,-21.5 234.154,-0.5 175.154,-0.5"/>
<text text-anchor="middle" x="204.654" y="-8.5" font-family="Helvetica,sans-Serif" font-size="10.00">QPixmap</text>
</g>
<!-- Node11&#45;&gt;Node12 -->
<g id="edge34" class="edge"><title>Node11&#45;&gt;Node12</title>
<path fill="none" stroke="midnightblue" d="M152.393,-58.3619C161.595,-50.0226 174.594,-38.2418 185.326,-28.5162"/>
<polygon fill="midnightblue" stroke="midnightblue" points="187.931,-30.8793 192.99,-21.5707 183.23,-25.6924 187.931,-30.8793"/>
</g>
<!-- Node13 -->
<g id="node31" class="node"><title>Node13</title>
<polygon fill="white" stroke="#bfbfbf" points="117.154,-0.5 117.154,-21.5 158.154,-21.5 158.154,-0.5 117.154,-0.5"/>
<text text-anchor="middle" x="137.654" y="-8.5" font-family="Helvetica,sans-Serif" font-size="10.00">glib.h</text>
</g>
<!-- Node11&#45;&gt;Node13 -->
<g id="edge36" class="edge"><title>Node11&#45;&gt;Node13</title>
<path fill="none" stroke="midnightblue" d="M140.104,-58.3619C139.719,-50.9219 139.193,-40.7427 138.726,-31.7276"/>
<polygon fill="midnightblue" stroke="midnightblue" points="142.213,-31.3765 138.201,-21.5707 135.222,-31.7381 142.213,-31.3765"/>
</g>
<!-- Node15&#45;&gt;Node2 -->
<g id="edge42" class="edge"><title>Node15&#45;&gt;Node2</title>
<path fill="none" stroke="midnightblue" d="M528.931,-58.4966C508.286,-49.3562 478.138,-36.0082 455.055,-25.7883"/>
<polygon fill="midnightblue" stroke="midnightblue" points="456.204,-22.4694 445.644,-21.6212 453.37,-28.8701 456.204,-22.4694"/>
</g>
<!-- Node15&#45;&gt;Node3 -->
<g id="edge52" class="edge"><title>Node15&#45;&gt;Node3</title>
<path fill="none" stroke="midnightblue" d="M589.235,-58.4966C628.557,-47.2062 690.237,-29.4962 726.126,-19.1914"/>
<polygon fill="midnightblue" stroke="midnightblue" points="727.308,-22.4935 735.953,-16.3695 725.376,-15.7653 727.308,-22.4935"/>
</g>
<!-- Node15&#45;&gt;Node5 -->
<g id="edge48" class="edge"><title>Node15&#45;&gt;Node5</title>
<path fill="none" stroke="midnightblue" d="M485.442,-66.0524C397.913,-61.2667 240.515,-49.4148 108.654,-22 107.563,-21.7731 106.457,-21.5258 105.344,-21.262"/>
<polygon fill="midnightblue" stroke="midnightblue" points="105.889,-17.7834 95.3216,-18.5451 104.058,-24.5396 105.889,-17.7834"/>
</g>
<!-- Node15&#45;&gt;Node9 -->
<g id="edge46" class="edge"><title>Node15&#45;&gt;Node9</title>
<path fill="none" stroke="midnightblue" d="M569.528,-58.3619C583.405,-49.6138 603.288,-37.0786 619.114,-27.1015"/>
<polygon fill="midnightblue" stroke="midnightblue" points="621.294,-29.8645 627.887,-21.5707 617.561,-23.943 621.294,-29.8645"/>
</g>
<!-- Node16 -->
<g id="node38" class="node"><title>Node16</title>
<polygon fill="white" stroke="#bfbfbf" points="540.654,-0.5 540.654,-21.5 592.654,-21.5 592.654,-0.5 540.654,-0.5"/>
<text text-anchor="middle" x="566.654" y="-8.5" font-family="Helvetica,sans-Serif" font-size="10.00">regex.h</text>
</g>
<!-- Node15&#45;&gt;Node16 -->
<g id="edge44" class="edge"><title>Node15&#45;&gt;Node16</title>
<path fill="none" stroke="midnightblue" d="M555.222,-58.3619C557.038,-50.8401 559.529,-40.5187 561.723,-31.4308"/>
<polygon fill="midnightblue" stroke="midnightblue" points="565.159,-32.1127 564.103,-21.5707 558.354,-30.4702 565.159,-32.1127"/>
</g>
<!-- Node17 -->
<g id="node42" class="node"><title>Node17</title>
<polygon fill="white" stroke="#bfbfbf" points="476.654,-0.5 476.654,-21.5 522.654,-21.5 522.654,-0.5 476.654,-0.5"/>
<text text-anchor="middle" x="499.654" y="-8.5" font-family="Helvetica,sans-Serif" font-size="10.00">vector</text>
</g>
<!-- Node15&#45;&gt;Node17 -->
<g id="edge50" class="edge"><title>Node15&#45;&gt;Node17</title>
<path fill="none" stroke="midnightblue" d="M542.933,-58.3619C535.462,-50.1861 524.969,-38.7025 516.185,-29.0907"/>
<polygon fill="midnightblue" stroke="midnightblue" points="518.643,-26.5918 509.314,-21.5707 513.476,-31.3138 518.643,-26.5918"/>
</g>
</g>
</svg>
