<?xml version="1.0" encoding="UTF-8" standalone="no"?>
<!DOCTYPE svg PUBLIC "-//W3C//DTD SVG 1.1//EN"
 "http://www.w3.org/Graphics/SVG/1.1/DTD/svg11.dtd">
<!-- Generated by graphviz version 2.26.3 (20100126.1600)
 -->
<!-- Title: JSONUtils.cpp Pages: 1 -->
<svg width="222pt" height="88pt"
 viewBox="0.00 0.00 222.00 88.00" xmlns="http://www.w3.org/2000/svg" xmlns:xlink="http://www.w3.org/1999/xlink">
<g id="graph1" class="graph" transform="scale(1 1) rotate(0) translate(4 84)">
<title>JSONUtils.cpp</title>
<polygon fill="white" stroke="white" points="-4,5 -4,-84 219,-84 219,5 -4,5"/>
<!-- Node1 -->
<g id="node1" class="node"><title>Node1</title>
<polygon fill="#bfbfbf" stroke="black" points="79,-58.5 79,-79.5 163,-79.5 163,-58.5 79,-58.5"/>
<text text-anchor="middle" x="121" y="-66.5" font-family="Helvetica,sans-Serif" font-size="10.00">JSONUtils.cpp</text>
</g>
<!-- Node2 -->
<g id="node3" class="node"><title>Node2</title>
<polygon fill="white" stroke="#bfbfbf" points="-0.5,-0.5 -0.5,-21.5 72.5,-21.5 72.5,-0.5 -0.5,-0.5"/>
<text text-anchor="middle" x="36" y="-8.5" font-family="Helvetica,sans-Serif" font-size="10.00">JSONUtils.h</text>
</g>
<!-- Node1&#45;&gt;Node2 -->
<g id="edge2" class="edge"><title>Node1&#45;&gt;Node2</title>
<path fill="none" stroke="midnightblue" d="M105.41,-58.3619C92.709,-49.6955 74.5615,-37.3126 60.0079,-27.3819"/>
<polygon fill="midnightblue" stroke="midnightblue" points="61.7245,-24.316 51.4915,-21.5707 57.779,-30.0982 61.7245,-24.316"/>
</g>
<!-- Node3 -->
<g id="node5" class="node"><title>Node3</title>
<polygon fill="white" stroke="#bfbfbf" points="89.5,-0.5 89.5,-21.5 152.5,-21.5 152.5,-0.5 89.5,-0.5"/>
<text text-anchor="middle" x="121" y="-8.5" font-family="Helvetica,sans-Serif" font-size="10.00">Logging.h</text>
</g>
<!-- Node1&#45;&gt;Node3 -->
<g id="edge4" class="edge"><title>Node1&#45;&gt;Node3</title>
<path fill="none" stroke="midnightblue" d="M121,-58.3619C121,-50.9219 121,-40.7427 121,-31.7276"/>
<polygon fill="midnightblue" stroke="midnightblue" points="124.5,-31.5706 121,-21.5707 117.5,-31.5707 124.5,-31.5706"/>
</g>
<!-- Node4 -->
<g id="node7" class="node"><title>Node4</title>
<polygon fill="white" stroke="#bfbfbf" points="169.5,-0.5 169.5,-21.5 214.5,-21.5 214.5,-0.5 169.5,-0.5"/>
<text text-anchor="middle" x="192" y="-8.5" font-family="Helvetica,sans-Serif" font-size="10.00">Utils.h</text>
</g>
<!-- Node1&#45;&gt;Node4 -->
<g id="edge6" class="edge"><title>Node1&#45;&gt;Node4</title>
<path fill="none" stroke="midnightblue" d="M134.022,-58.3619C144.431,-49.859 159.219,-37.7785 171.255,-27.9466"/>
<polygon fill="midnightblue" stroke="midnightblue" points="173.53,-30.6077 179.06,-21.5707 169.101,-25.1866 173.53,-30.6077"/>
</g>
</g>
</svg>
