<?xml version="1.0" encoding="UTF-8" standalone="no"?>
<!DOCTYPE svg PUBLIC "-//W3C//DTD SVG 1.1//EN"
 "http://www.w3.org/Graphics/SVG/1.1/DTD/svg11.dtd">
<!-- Generated by graphviz version 2.26.3 (20100126.1600)
 -->
<!-- Title: KeyLocationRecorder.h Pages: 1 -->
<svg width="254pt" height="88pt"
 viewBox="0.00 0.00 254.00 88.00" xmlns="http://www.w3.org/2000/svg" xmlns:xlink="http://www.w3.org/1999/xlink">
<g id="graph1" class="graph" transform="scale(1 1) rotate(0) translate(4 84)">
<title>KeyLocationRecorder.h</title>
<polygon fill="white" stroke="white" points="-4,5 -4,-84 251,-84 251,5 -4,5"/>
<!-- Node1 -->
<g id="node1" class="node"><title>Node1</title>
<polygon fill="#bfbfbf" stroke="black" points="71,-58.5 71,-79.5 199,-79.5 199,-58.5 71,-58.5"/>
<text text-anchor="middle" x="135" y="-66.5" font-family="Helvetica,sans-Serif" font-size="10.00">KeyLocationRecorder.h</text>
</g>
<!-- Node2 -->
<g id="node3" class="node"><title>Node2</title>
<a xlink:href="KeyLocationRecorder_8cpp.htm" target="_top" xlink:title="KeyLocationRecorder.cpp">
<polygon fill="white" stroke="black" points="-0.5,-0.5 -0.5,-21.5 138.5,-21.5 138.5,-0.5 -0.5,-0.5"/>
<text text-anchor="middle" x="69" y="-8.5" font-family="Helvetica,sans-Serif" font-size="10.00">KeyLocationRecorder.cpp</text>
</a>
</g>
<!-- Node1&#45;&gt;Node2 -->
<g id="edge2" class="edge"><title>Node1&#45;&gt;Node2</title>
<path fill="none" stroke="midnightblue" d="M115.303,-51.6908C104.162,-41.8996 90.5899,-29.973 81.0287,-21.5707"/>
<polygon fill="midnightblue" stroke="midnightblue" points="113.072,-54.3898 122.895,-58.3619 117.693,-49.1316 113.072,-54.3898"/>
</g>
<!-- Node3 -->
<g id="node5" class="node"><title>Node3</title>
<a xlink:href="PreKeymap_8cpp.htm" target="_top" xlink:title="PreKeymap.cpp">
<polygon fill="white" stroke="black" points="155.5,-0.5 155.5,-21.5 246.5,-21.5 246.5,-0.5 155.5,-0.5"/>
<text text-anchor="middle" x="201" y="-8.5" font-family="Helvetica,sans-Serif" font-size="10.00">PreKeymap.cpp</text>
</a>
</g>
<!-- Node1&#45;&gt;Node3 -->
<g id="edge4" class="edge"><title>Node1&#45;&gt;Node3</title>
<path fill="none" stroke="midnightblue" d="M154.697,-51.6908C165.838,-41.8996 179.41,-29.973 188.971,-21.5707"/>
<polygon fill="midnightblue" stroke="midnightblue" points="152.307,-49.1316 147.105,-58.3619 156.928,-54.3898 152.307,-49.1316"/>
</g>
</g>
</svg>
