<?xml version="1.0" encoding="UTF-8" standalone="no"?>
<!DOCTYPE svg PUBLIC "-//W3C//DTD SVG 1.1//EN"
 "http://www.w3.org/Graphics/SVG/1.1/DTD/svg11.dtd">
<!-- Generated by graphviz version 2.26.3 (20100126.1600)
 -->
<!-- Title: KineticScroller.h Pages: 1 -->
<svg width="590pt" height="88pt"
 viewBox="0.00 0.00 590.00 88.00" xmlns="http://www.w3.org/2000/svg" xmlns:xlink="http://www.w3.org/1999/xlink">
<g id="graph1" class="graph" transform="scale(1 1) rotate(0) translate(4 84)">
<title>KineticScroller.h</title>
<polygon fill="white" stroke="white" points="-4,5 -4,-84 587,-84 587,5 -4,5"/>
<!-- Node1 -->
<g id="node1" class="node"><title>Node1</title>
<polygon fill="#bfbfbf" stroke="black" points="248,-58.5 248,-79.5 340,-79.5 340,-58.5 248,-58.5"/>
<text text-anchor="middle" x="294" y="-66.5" font-family="Helvetica,sans-Serif" font-size="10.00">KineticScroller.h</text>
</g>
<!-- Node2 -->
<g id="node3" class="node"><title>Node2</title>
<polygon fill="white" stroke="#bfbfbf" points="-0.5,-0.5 -0.5,-21.5 54.5,-21.5 54.5,-0.5 -0.5,-0.5"/>
<text text-anchor="middle" x="27" y="-8.5" font-family="Helvetica,sans-Serif" font-size="10.00">QObject</text>
</g>
<!-- Node1&#45;&gt;Node2 -->
<g id="edge2" class="edge"><title>Node1&#45;&gt;Node2</title>
<path fill="none" stroke="midnightblue" d="M247.686,-60.9269C203.031,-52.8423 133.379,-39.4444 64.9222,-22.3428"/>
<polygon fill="midnightblue" stroke="midnightblue" points="65.3866,-18.8502 54.8338,-19.7929 63.6712,-25.6367 65.3866,-18.8502"/>
</g>
<!-- Node3 -->
<g id="node5" class="node"><title>Node3</title>
<polygon fill="white" stroke="#bfbfbf" points="72,-0.5 72,-21.5 124,-21.5 124,-0.5 72,-0.5"/>
<text text-anchor="middle" x="98" y="-8.5" font-family="Helvetica,sans-Serif" font-size="10.00">QTimer</text>
</g>
<!-- Node1&#45;&gt;Node3 -->
<g id="edge4" class="edge"><title>Node1&#45;&gt;Node3</title>
<path fill="none" stroke="midnightblue" d="M257.169,-58.4803C226.601,-49.6978 181.745,-36.6915 134.213,-22.3326"/>
<polygon fill="midnightblue" stroke="midnightblue" points="134.941,-18.8959 124.355,-19.3466 132.911,-25.5953 134.941,-18.8959"/>
</g>
<!-- Node4 -->
<g id="node7" class="node"><title>Node4</title>
<polygon fill="white" stroke="#bfbfbf" points="142,-0.5 142,-21.5 190,-21.5 190,-0.5 142,-0.5"/>
<text text-anchor="middle" x="166" y="-8.5" font-family="Helvetica,sans-Serif" font-size="10.00">QTime</text>
</g>
<!-- Node1&#45;&gt;Node4 -->
<g id="edge6" class="edge"><title>Node1&#45;&gt;Node4</title>
<path fill="none" stroke="midnightblue" d="M270.82,-58.4966C250.648,-49.3562 221.19,-36.0082 198.636,-25.7883"/>
<polygon fill="midnightblue" stroke="midnightblue" points="199.993,-22.5606 189.44,-21.6212 197.104,-28.9366 199.993,-22.5606"/>
</g>
<!-- Node5 -->
<g id="node9" class="node"><title>Node5</title>
<polygon fill="white" stroke="#bfbfbf" points="207.5,-0.5 207.5,-21.5 292.5,-21.5 292.5,-0.5 207.5,-0.5"/>
<text text-anchor="middle" x="250" y="-8.5" font-family="Helvetica,sans-Serif" font-size="10.00">QEasingCurve</text>
</g>
<!-- Node1&#45;&gt;Node5 -->
<g id="edge8" class="edge"><title>Node1&#45;&gt;Node5</title>
<path fill="none" stroke="midnightblue" d="M285.93,-58.3619C279.851,-50.3496 271.363,-39.1605 264.163,-29.6696"/>
<polygon fill="midnightblue" stroke="midnightblue" points="266.851,-27.4222 258.019,-21.5707 261.275,-31.653 266.851,-27.4222"/>
</g>
<!-- Node6 -->
<g id="node11" class="node"><title>Node6</title>
<polygon fill="white" stroke="#bfbfbf" points="309.5,-0.5 309.5,-21.5 368.5,-21.5 368.5,-0.5 309.5,-0.5"/>
<text text-anchor="middle" x="339" y="-8.5" font-family="Helvetica,sans-Serif" font-size="10.00">QPointer</text>
</g>
<!-- Node1&#45;&gt;Node6 -->
<g id="edge10" class="edge"><title>Node1&#45;&gt;Node6</title>
<path fill="none" stroke="midnightblue" d="M302.254,-58.3619C308.47,-50.3496 317.151,-39.1605 324.515,-29.6696"/>
<polygon fill="midnightblue" stroke="midnightblue" points="327.434,-31.617 330.799,-21.5707 321.903,-27.326 327.434,-31.617"/>
</g>
<!-- Node7 -->
<g id="node13" class="node"><title>Node7</title>
<polygon fill="white" stroke="#bfbfbf" points="386,-0.5 386,-21.5 466,-21.5 466,-0.5 386,-0.5"/>
<text text-anchor="middle" x="426" y="-8.5" font-family="Helvetica,sans-Serif" font-size="10.00">QTextStream</text>
</g>
<!-- Node1&#45;&gt;Node7 -->
<g id="edge12" class="edge"><title>Node1&#45;&gt;Node7</title>
<path fill="none" stroke="midnightblue" d="M317.904,-58.4966C338.8,-49.3154 369.356,-35.8889 392.655,-25.6516"/>
<polygon fill="midnightblue" stroke="midnightblue" points="394.08,-28.8483 401.828,-21.6212 391.264,-22.4397 394.08,-28.8483"/>
</g>
<!-- Node8 -->
<g id="node15" class="node"><title>Node8</title>
<polygon fill="white" stroke="#bfbfbf" points="483.5,-0.5 483.5,-21.5 524.5,-21.5 524.5,-0.5 483.5,-0.5"/>
<text text-anchor="middle" x="504" y="-8.5" font-family="Helvetica,sans-Serif" font-size="10.00">QFile</text>
</g>
<!-- Node1&#45;&gt;Node8 -->
<g id="edge14" class="edge"><title>Node1&#45;&gt;Node8</title>
<path fill="none" stroke="midnightblue" d="M340.142,-58.4807C374.726,-50.2676 423.354,-38.0269 473.479,-22.2902"/>
<polygon fill="midnightblue" stroke="midnightblue" points="474.717,-25.5695 483.186,-19.2042 472.596,-18.8986 474.717,-25.5695"/>
</g>
<!-- Node9 -->
<g id="node17" class="node"><title>Node9</title>
<polygon fill="white" stroke="#bfbfbf" points="542,-0.5 542,-21.5 582,-21.5 582,-0.5 542,-0.5"/>
<text text-anchor="middle" x="562" y="-8.5" font-family="Helvetica,sans-Serif" font-size="10.00">limits</text>
</g>
<!-- Node1&#45;&gt;Node9 -->
<g id="edge16" class="edge"><title>Node1&#45;&gt;Node9</title>
<path fill="none" stroke="midnightblue" d="M340.364,-62.257C386.833,-54.9722 460.464,-42.0003 532.215,-21.8865"/>
<polygon fill="midnightblue" stroke="midnightblue" points="533.208,-25.2427 541.865,-19.134 531.288,-18.5112 533.208,-25.2427"/>
</g>
</g>
</svg>
