<?xml version="1.0" encoding="UTF-8" standalone="no"?>
<!DOCTYPE svg PUBLIC "-//W3C//DTD SVG 1.1//EN"
 "http://www.w3.org/Graphics/SVG/1.1/DTD/svg11.dtd">
<!-- Generated by graphviz version 2.26.3 (20100126.1600)
 -->
<!-- Title: labeledbutton.h Pages: 1 -->
<svg width="324pt" height="146pt"
 viewBox="0.00 0.00 324.00 146.00" xmlns="http://www.w3.org/2000/svg" xmlns:xlink="http://www.w3.org/1999/xlink">
<g id="graph1" class="graph" transform="scale(1 1) rotate(0) translate(4 142)">
<title>labeledbutton.h</title>
<polygon fill="white" stroke="white" points="-4,5 -4,-142 321,-142 321,5 -4,5"/>
<!-- Node1 -->
<g id="node1" class="node"><title>Node1</title>
<polygon fill="#bfbfbf" stroke="black" points="159.5,-116.5 159.5,-137.5 246.5,-137.5 246.5,-116.5 159.5,-116.5"/>
<text text-anchor="middle" x="203" y="-124.5" font-family="Helvetica,sans-Serif" font-size="10.00">labeledbutton.h</text>
</g>
<!-- Node2 -->
<g id="node3" class="node"><title>Node2</title>
<a xlink:href="colorroundrectbutton_8h.htm" target="_top" xlink:title="colorroundrectbutton.h">
<polygon fill="white" stroke="black" points="78,-58.5 78,-79.5 200,-79.5 200,-58.5 78,-58.5"/>
<text text-anchor="middle" x="139" y="-66.5" font-family="Helvetica,sans-Serif" font-size="10.00">colorroundrectbutton.h</text>
</a>
</g>
<!-- Node1&#45;&gt;Node2 -->
<g id="edge2" class="edge"><title>Node1&#45;&gt;Node2</title>
<path fill="none" stroke="midnightblue" d="M183.585,-109.405C172.841,-99.6683 159.846,-87.8914 150.664,-79.5707"/>
<polygon fill="midnightblue" stroke="midnightblue" points="181.501,-112.24 191.261,-116.362 186.202,-107.053 181.501,-112.24"/>
</g>
<!-- Node5 -->
<g id="node9" class="node"><title>Node5</title>
<a xlink:href="labeledbutton_8cpp.htm" target="_top" xlink:title="labeledbutton.cpp">
<polygon fill="white" stroke="black" points="218,-58.5 218,-79.5 316,-79.5 316,-58.5 218,-58.5"/>
<text text-anchor="middle" x="267" y="-66.5" font-family="Helvetica,sans-Serif" font-size="10.00">labeledbutton.cpp</text>
</a>
</g>
<!-- Node1&#45;&gt;Node5 -->
<g id="edge8" class="edge"><title>Node1&#45;&gt;Node5</title>
<path fill="none" stroke="midnightblue" d="M222.415,-109.405C233.159,-99.6683 246.154,-87.8914 255.336,-79.5707"/>
<polygon fill="midnightblue" stroke="midnightblue" points="219.798,-107.053 214.739,-116.362 224.499,-112.24 219.798,-107.053"/>
</g>
<!-- Node3 -->
<g id="node5" class="node"><title>Node3</title>
<a xlink:href="dimensionslauncher_8cpp.htm" target="_top" xlink:title="dimensionslauncher.cpp">
<polygon fill="white" stroke="black" points="0,-0.5 0,-21.5 130,-21.5 130,-0.5 0,-0.5"/>
<text text-anchor="middle" x="65" y="-8.5" font-family="Helvetica,sans-Serif" font-size="10.00">dimensionslauncher.cpp</text>
</a>
</g>
<!-- Node2&#45;&gt;Node3 -->
<g id="edge4" class="edge"><title>Node2&#45;&gt;Node3</title>
<path fill="none" stroke="midnightblue" d="M117.279,-51.9753C104.72,-42.1315 89.311,-30.0545 78.4867,-21.5707"/>
<polygon fill="midnightblue" stroke="midnightblue" points="115.398,-54.9478 125.427,-58.3619 119.716,-49.4383 115.398,-54.9478"/>
</g>
<!-- Node4 -->
<g id="node7" class="node"><title>Node4</title>
<a xlink:href="colorroundrectbutton_8cpp.htm" target="_top" xlink:title="colorroundrectbutton.cpp">
<polygon fill="white" stroke="black" points="147.5,-0.5 147.5,-21.5 280.5,-21.5 280.5,-0.5 147.5,-0.5"/>
<text text-anchor="middle" x="214" y="-8.5" font-family="Helvetica,sans-Serif" font-size="10.00">colorroundrectbutton.cpp</text>
</a>
</g>
<!-- Node2&#45;&gt;Node4 -->
<g id="edge6" class="edge"><title>Node2&#45;&gt;Node4</title>
<path fill="none" stroke="midnightblue" d="M161.015,-51.9753C173.744,-42.1315 189.361,-30.0545 200.331,-21.5707"/>
<polygon fill="midnightblue" stroke="midnightblue" points="158.526,-49.4757 152.756,-58.3619 162.808,-55.0131 158.526,-49.4757"/>
</g>
</g>
</svg>
