<?xml version="1.0" encoding="UTF-8" standalone="no"?>
<!DOCTYPE svg PUBLIC "-//W3C//DTD SVG 1.1//EN"
 "http://www.w3.org/Graphics/SVG/1.1/DTD/svg11.dtd">
<!-- Generated by graphviz version 2.26.3 (20100126.1600)
 -->
<!-- Title: LaunchPoint.cpp Pages: 1 -->
<svg width="1750pt" height="262pt"
 viewBox="0.00 0.00 1750.00 262.00" xmlns="http://www.w3.org/2000/svg" xmlns:xlink="http://www.w3.org/1999/xlink">
<g id="graph1" class="graph" transform="scale(1 1) rotate(0) translate(4 258)">
<title>LaunchPoint.cpp</title>
<polygon fill="white" stroke="white" points="-4,5 -4,-258 1747,-258 1747,5 -4,5"/>
<!-- Node1 -->
<g id="node1" class="node"><title>Node1</title>
<polygon fill="#bfbfbf" stroke="black" points="1254.5,-232.5 1254.5,-253.5 1349.5,-253.5 1349.5,-232.5 1254.5,-232.5"/>
<text text-anchor="middle" x="1302" y="-240.5" font-family="Helvetica,sans-Serif" font-size="10.00">LaunchPoint.cpp</text>
</g>
<!-- Node2 -->
<g id="node3" class="node"><title>Node2</title>
<polygon fill="white" stroke="#bfbfbf" points="402.5,-0.5 402.5,-21.5 469.5,-21.5 469.5,-0.5 402.5,-0.5"/>
<text text-anchor="middle" x="436" y="-8.5" font-family="Helvetica,sans-Serif" font-size="10.00">Common.h</text>
</g>
<!-- Node1&#45;&gt;Node2 -->
<g id="edge2" class="edge"><title>Node1&#45;&gt;Node2</title>
<path fill="none" stroke="midnightblue" d="M1254.21,-242.041C1145.93,-239.327 873.846,-229.465 649,-196 534.038,-178.89 504.05,-175.39 394,-138 335.629,-118.168 301.252,-131.912 268,-80 237.437,-32.2852 332.573,-17.5585 391.99,-13.0187"/>
<polygon fill="midnightblue" stroke="midnightblue" points="392.537,-16.4892 402.271,-12.3062 392.053,-9.50599 392.537,-16.4892"/>
</g>
<!-- Node3 -->
<g id="node5" class="node"><title>Node3</title>
<polygon fill="white" stroke="#bfbfbf" points="109.5,-174.5 109.5,-195.5 156.5,-195.5 156.5,-174.5 109.5,-174.5"/>
<text text-anchor="middle" x="133" y="-182.5" font-family="Helvetica,sans-Serif" font-size="10.00">stdio.h</text>
</g>
<!-- Node1&#45;&gt;Node3 -->
<g id="edge4" class="edge"><title>Node1&#45;&gt;Node3</title>
<path fill="none" stroke="midnightblue" d="M1254.44,-242.591C1067.59,-240.741 383.662,-231.629 170,-196 168.909,-195.818 167.806,-195.614 166.695,-195.391"/>
<polygon fill="midnightblue" stroke="midnightblue" points="167.222,-191.918 156.681,-192.981 165.584,-198.724 167.222,-191.918"/>
</g>
<!-- Node4 -->
<g id="node7" class="node"><title>Node4</title>
<polygon fill="white" stroke="#bfbfbf" points="-0.5,-0.5 -0.5,-21.5 40.5,-21.5 40.5,-0.5 -0.5,-0.5"/>
<text text-anchor="middle" x="20" y="-8.5" font-family="Helvetica,sans-Serif" font-size="10.00">glib.h</text>
</g>
<!-- Node1&#45;&gt;Node4 -->
<g id="edge6" class="edge"><title>Node1&#45;&gt;Node4</title>
<path fill="none" stroke="midnightblue" d="M1254.48,-242.543C1037.52,-240.278 149.402,-229.015 101,-196 44.9908,-157.796 27.38,-71.7565 22.1152,-31.9423"/>
<polygon fill="midnightblue" stroke="midnightblue" points="25.5665,-31.3233 20.9139,-21.8047 18.6151,-32.1471 25.5665,-31.3233"/>
</g>
<!-- Node5 -->
<g id="node9" class="node"><title>Node5</title>
<polygon fill="white" stroke="#bfbfbf" points="1358,-0.5 1358,-21.5 1430,-21.5 1430,-0.5 1358,-0.5"/>
<text text-anchor="middle" x="1394" y="-8.5" font-family="Helvetica,sans-Serif" font-size="10.00">cjson/json.h</text>
</g>
<!-- Node1&#45;&gt;Node5 -->
<g id="edge8" class="edge"><title>Node1&#45;&gt;Node5</title>
<path fill="none" stroke="midnightblue" d="M1310.89,-232.475C1336.24,-202.197 1407.8,-114.818 1419,-80 1424.45,-63.0499 1416.5,-44.0435 1408.16,-30.2771"/>
<polygon fill="midnightblue" stroke="midnightblue" points="1410.91,-28.0899 1402.48,-21.6733 1405.07,-31.9469 1410.91,-28.0899"/>
</g>
<!-- Node6 -->
<g id="node11" class="node"><title>Node6</title>
<a xlink:href="ApplicationDescription_8h.htm" target="_top" xlink:title="ApplicationDescription.h">
<polygon fill="white" stroke="black" points="403,-116.5 403,-137.5 533,-137.5 533,-116.5 403,-116.5"/>
<text text-anchor="middle" x="468" y="-124.5" font-family="Helvetica,sans-Serif" font-size="10.00">ApplicationDescription.h</text>
</a>
</g>
<!-- Node1&#45;&gt;Node6 -->
<g id="edge10" class="edge"><title>Node1&#45;&gt;Node6</title>
<path fill="none" stroke="midnightblue" d="M1254.41,-241.248C1159.48,-237.234 940.027,-225.354 758,-196 671.001,-181.97 571.436,-156.078 514.51,-140.31"/>
<polygon fill="midnightblue" stroke="midnightblue" points="515.302,-136.897 504.729,-137.584 513.423,-143.64 515.302,-136.897"/>
</g>
<!-- Node11 -->
<g id="node22" class="node"><title>Node11</title>
<a xlink:href="LaunchPoint_8h.htm" target="_top" xlink:title="LaunchPoint.h">
<polygon fill="white" stroke="black" points="111.5,-58.5 111.5,-79.5 194.5,-79.5 194.5,-58.5 111.5,-58.5"/>
<text text-anchor="middle" x="153" y="-66.5" font-family="Helvetica,sans-Serif" font-size="10.00">LaunchPoint.h</text>
</a>
</g>
<!-- Node1&#45;&gt;Node11 -->
<g id="edge102" class="edge"><title>Node1&#45;&gt;Node11</title>
<path fill="none" stroke="midnightblue" d="M1254.33,-242.355C1049.39,-239.406 251.661,-226.032 208,-196 172.366,-171.489 159.651,-118.658 155.242,-89.4509"/>
<polygon fill="midnightblue" stroke="midnightblue" points="158.71,-88.9766 153.929,-79.5221 151.77,-89.8947 158.71,-88.9766"/>
</g>
<!-- Node19 -->
<g id="node45" class="node"><title>Node19</title>
<a xlink:href="PackageDescription_8h.htm" target="_top" xlink:title="PackageDescription.h">
<polygon fill="white" stroke="black" points="1291.5,-58.5 1291.5,-79.5 1410.5,-79.5 1410.5,-58.5 1291.5,-58.5"/>
<text text-anchor="middle" x="1351" y="-66.5" font-family="Helvetica,sans-Serif" font-size="10.00">PackageDescription.h</text>
</a>
</g>
<!-- Node1&#45;&gt;Node19 -->
<g id="edge52" class="edge"><title>Node1&#45;&gt;Node19</title>
<path fill="none" stroke="midnightblue" d="M1304.99,-232.377C1312.93,-204.172 1334.66,-127.012 1345.16,-89.7203"/>
<polygon fill="midnightblue" stroke="midnightblue" points="1348.58,-90.5021 1347.92,-79.9277 1341.84,-88.6046 1348.58,-90.5021"/>
</g>
<!-- Node20 -->
<g id="node51" class="node"><title>Node20</title>
<a xlink:href="ApplicationManager_8h.htm" target="_top" xlink:title="ApplicationManager.h">
<polygon fill="white" stroke="black" points="766.5,-174.5 766.5,-195.5 885.5,-195.5 885.5,-174.5 766.5,-174.5"/>
<text text-anchor="middle" x="826" y="-182.5" font-family="Helvetica,sans-Serif" font-size="10.00">ApplicationManager.h</text>
</a>
</g>
<!-- Node1&#45;&gt;Node20 -->
<g id="edge62" class="edge"><title>Node1&#45;&gt;Node20</title>
<path fill="none" stroke="midnightblue" d="M1254.18,-237.173C1169.7,-226.88 993.754,-205.441 895.739,-193.498"/>
<polygon fill="midnightblue" stroke="midnightblue" points="895.984,-190.002 885.634,-192.266 895.137,-196.95 895.984,-190.002"/>
</g>
<!-- Node27 -->
<g id="node79" class="node"><title>Node27</title>
<polygon fill="white" stroke="#bfbfbf" points="1367.5,-174.5 1367.5,-195.5 1430.5,-195.5 1430.5,-174.5 1367.5,-174.5"/>
<text text-anchor="middle" x="1399" y="-182.5" font-family="Helvetica,sans-Serif" font-size="10.00">Logging.h</text>
</g>
<!-- Node1&#45;&gt;Node27 -->
<g id="edge104" class="edge"><title>Node1&#45;&gt;Node27</title>
<path fill="none" stroke="midnightblue" d="M1319.79,-232.362C1334.56,-223.532 1355.78,-210.844 1372.54,-200.822"/>
<polygon fill="midnightblue" stroke="midnightblue" points="1374.53,-203.707 1381.32,-195.571 1370.94,-197.699 1374.53,-203.707"/>
</g>
<!-- Node28 -->
<g id="node81" class="node"><title>Node28</title>
<polygon fill="white" stroke="#bfbfbf" points="1447.5,-174.5 1447.5,-195.5 1492.5,-195.5 1492.5,-174.5 1447.5,-174.5"/>
<text text-anchor="middle" x="1470" y="-182.5" font-family="Helvetica,sans-Serif" font-size="10.00">Utils.h</text>
</g>
<!-- Node1&#45;&gt;Node28 -->
<g id="edge106" class="edge"><title>Node1&#45;&gt;Node28</title>
<path fill="none" stroke="midnightblue" d="M1333.05,-232.453C1358.83,-223.672 1396.7,-210.718 1437.69,-196.438"/>
<polygon fill="midnightblue" stroke="midnightblue" points="1439.03,-199.676 1447.32,-193.078 1436.73,-193.067 1439.03,-199.676"/>
</g>
<!-- Node29 -->
<g id="node83" class="node"><title>Node29</title>
<polygon fill="white" stroke="#bfbfbf" points="1509.5,-174.5 1509.5,-195.5 1572.5,-195.5 1572.5,-174.5 1509.5,-174.5"/>
<text text-anchor="middle" x="1541" y="-182.5" font-family="Helvetica,sans-Serif" font-size="10.00">Settings.h</text>
</g>
<!-- Node1&#45;&gt;Node29 -->
<g id="edge108" class="edge"><title>Node1&#45;&gt;Node29</title>
<path fill="none" stroke="midnightblue" d="M1348.76,-232.463C1386.95,-223.742 1442.57,-210.783 1499.3,-196.384"/>
<polygon fill="midnightblue" stroke="midnightblue" points="1500.33,-199.734 1509.15,-193.871 1498.6,-192.951 1500.33,-199.734"/>
</g>
<!-- Node30 -->
<g id="node85" class="node"><title>Node30</title>
<polygon fill="white" stroke="#bfbfbf" points="1589.5,-174.5 1589.5,-195.5 1670.5,-195.5 1670.5,-174.5 1589.5,-174.5"/>
<text text-anchor="middle" x="1630" y="-182.5" font-family="Helvetica,sans-Serif" font-size="10.00">Localization.h</text>
</g>
<!-- Node1&#45;&gt;Node30 -->
<g id="edge110" class="edge"><title>Node1&#45;&gt;Node30</title>
<path fill="none" stroke="midnightblue" d="M1349.53,-235.793C1403.11,-227.491 1493.04,-213.022 1579.42,-196.243"/>
<polygon fill="midnightblue" stroke="midnightblue" points="1580.25,-199.647 1589.39,-194.293 1578.91,-192.778 1580.25,-199.647"/>
</g>
<!-- Node31 -->
<g id="node87" class="node"><title>Node31</title>
<polygon fill="white" stroke="#bfbfbf" points="1687.5,-174.5 1687.5,-195.5 1742.5,-195.5 1742.5,-174.5 1687.5,-174.5"/>
<text text-anchor="middle" x="1715" y="-182.5" font-family="Helvetica,sans-Serif" font-size="10.00">QDebug</text>
</g>
<!-- Node1&#45;&gt;Node31 -->
<g id="edge112" class="edge"><title>Node1&#45;&gt;Node31</title>
<path fill="none" stroke="midnightblue" d="M1349.75,-239.701C1419.84,-234.28 1554.73,-221.644 1677.29,-196.111"/>
<polygon fill="midnightblue" stroke="midnightblue" points="1678.16,-199.504 1687.22,-194.008 1676.71,-192.656 1678.16,-199.504"/>
</g>
<!-- Node6&#45;&gt;Node2 -->
<g id="edge12" class="edge"><title>Node6&#45;&gt;Node2</title>
<path fill="none" stroke="midnightblue" d="M402.711,-119.342C354.353,-112.17 294.306,-99.5787 279,-80 246.373,-38.2658 334.939,-21.2131 391.995,-14.6935"/>
<polygon fill="midnightblue" stroke="midnightblue" points="392.675,-18.1407 402.245,-13.5952 391.929,-11.1806 392.675,-18.1407"/>
</g>
<!-- Node7 -->
<g id="node14" class="node"><title>Node7</title>
<polygon fill="white" stroke="#bfbfbf" points="761.5,-0.5 761.5,-21.5 804.5,-21.5 804.5,-0.5 761.5,-0.5"/>
<text text-anchor="middle" x="783" y="-8.5" font-family="Helvetica,sans-Serif" font-size="10.00">string</text>
</g>
<!-- Node6&#45;&gt;Node7 -->
<g id="edge14" class="edge"><title>Node6&#45;&gt;Node7</title>
<path fill="none" stroke="midnightblue" d="M491.966,-116.445C524.348,-102.348 584.01,-76.9531 636,-58 675.406,-43.6342 721.586,-29.263 751.521,-20.2649"/>
<polygon fill="midnightblue" stroke="midnightblue" points="752.814,-23.5314 761.394,-17.315 750.81,-16.8244 752.814,-23.5314"/>
</g>
<!-- Node8 -->
<g id="node16" class="node"><title>Node8</title>
<polygon fill="white" stroke="#bfbfbf" points="917,-0.5 917,-21.5 967,-21.5 967,-0.5 917,-0.5"/>
<text text-anchor="middle" x="942" y="-8.5" font-family="Helvetica,sans-Serif" font-size="10.00">stdint.h</text>
</g>
<!-- Node6&#45;&gt;Node8 -->
<g id="edge16" class="edge"><title>Node6&#45;&gt;Node8</title>
<path fill="none" stroke="midnightblue" d="M501.406,-116.396C547.397,-102.017 632.945,-76.062 707,-58 777.314,-40.8506 860.574,-25.3066 906.722,-17.1043"/>
<polygon fill="midnightblue" stroke="midnightblue" points="907.568,-20.5092 916.807,-15.3239 906.351,-13.6158 907.568,-20.5092"/>
</g>
<!-- Node9 -->
<g id="node18" class="node"><title>Node9</title>
<polygon fill="white" stroke="#bfbfbf" points="715.5,-58.5 715.5,-79.5 746.5,-79.5 746.5,-58.5 715.5,-58.5"/>
<text text-anchor="middle" x="731" y="-66.5" font-family="Helvetica,sans-Serif" font-size="10.00">set</text>
</g>
<!-- Node6&#45;&gt;Node9 -->
<g id="edge18" class="edge"><title>Node6&#45;&gt;Node9</title>
<path fill="none" stroke="midnightblue" d="M515.627,-116.497C571.422,-104.192 661.789,-84.2632 705.588,-74.6041"/>
<polygon fill="midnightblue" stroke="midnightblue" points="706.415,-78.0059 715.427,-72.4344 704.908,-71.1701 706.415,-78.0059"/>
</g>
<!-- Node10 -->
<g id="node20" class="node"><title>Node10</title>
<polygon fill="white" stroke="#bfbfbf" points="69.5,-0.5 69.5,-21.5 98.5,-21.5 98.5,-0.5 69.5,-0.5"/>
<text text-anchor="middle" x="84" y="-8.5" font-family="Helvetica,sans-Serif" font-size="10.00">list</text>
</g>
<!-- Node6&#45;&gt;Node10 -->
<g id="edge20" class="edge"><title>Node6&#45;&gt;Node10</title>
<path fill="none" stroke="midnightblue" d="M402.89,-122.511C304.042,-115.12 125.191,-99.2703 103,-80 89.4116,-68.1999 85.1173,-47.6641 83.95,-32.0553"/>
<polygon fill="midnightblue" stroke="midnightblue" points="87.4362,-31.6179 83.5645,-21.7558 80.4411,-31.8798 87.4362,-31.6179"/>
</g>
<!-- Node6&#45;&gt;Node11 -->
<g id="edge22" class="edge"><title>Node6&#45;&gt;Node11</title>
<path fill="none" stroke="midnightblue" d="M410.956,-116.497C352.205,-105.679 261.448,-88.9683 204.725,-78.524"/>
<polygon fill="midnightblue" stroke="midnightblue" points="205.014,-75.0184 194.545,-76.6496 203.746,-81.9026 205.014,-75.0184"/>
</g>
<!-- Node13 -->
<g id="node30" class="node"><title>Node13</title>
<polygon fill="white" stroke="#bfbfbf" points="287.5,-58.5 287.5,-79.5 374.5,-79.5 374.5,-58.5 287.5,-58.5"/>
<text text-anchor="middle" x="331" y="-66.5" font-family="Helvetica,sans-Serif" font-size="10.00">KeywordMap.h</text>
</g>
<!-- Node6&#45;&gt;Node13 -->
<g id="edge34" class="edge"><title>Node6&#45;&gt;Node13</title>
<path fill="none" stroke="midnightblue" d="M443.19,-116.497C421.504,-107.315 389.789,-93.8889 365.608,-83.6516"/>
<polygon fill="midnightblue" stroke="midnightblue" points="366.661,-80.2968 356.088,-79.6212 363.932,-86.7429 366.661,-80.2968"/>
</g>
<!-- Node14 -->
<g id="node32" class="node"><title>Node14</title>
<a xlink:href="CmdResourceHandlers_8h.htm" target="_top" xlink:title="CmdResourceHandlers.h">
<polygon fill="white" stroke="black" points="910,-58.5 910,-79.5 1044,-79.5 1044,-58.5 910,-58.5"/>
<text text-anchor="middle" x="977" y="-66.5" font-family="Helvetica,sans-Serif" font-size="10.00">CmdResourceHandlers.h</text>
</a>
</g>
<!-- Node6&#45;&gt;Node14 -->
<g id="edge36" class="edge"><title>Node6&#45;&gt;Node14</title>
<path fill="none" stroke="midnightblue" d="M533.241,-119.566C626.996,-108.883 799.528,-89.2228 899.602,-77.8194"/>
<polygon fill="midnightblue" stroke="midnightblue" points="900.111,-81.2841 909.651,-76.6744 899.319,-74.3291 900.111,-81.2841"/>
</g>
<!-- Node18 -->
<g id="node43" class="node"><title>Node18</title>
<polygon fill="white" stroke="#bfbfbf" points="392,-58.5 392,-79.5 546,-79.5 546,-58.5 392,-58.5"/>
<text text-anchor="middle" x="469" y="-66.5" font-family="Helvetica,sans-Serif" font-size="10.00">ApplicationDescriptionBase.h</text>
</g>
<!-- Node6&#45;&gt;Node18 -->
<g id="edge50" class="edge"><title>Node6&#45;&gt;Node18</title>
<path fill="none" stroke="midnightblue" d="M468.183,-116.362C468.312,-108.922 468.487,-98.7427 468.643,-89.7276"/>
<polygon fill="midnightblue" stroke="midnightblue" points="472.145,-89.6295 468.818,-79.5707 465.146,-89.5088 472.145,-89.6295"/>
</g>
<!-- Node11&#45;&gt;Node2 -->
<g id="edge24" class="edge"><title>Node11&#45;&gt;Node2</title>
<path fill="none" stroke="midnightblue" d="M194.758,-60.4419C247.768,-49.5775 338.779,-30.9251 392.573,-19.9002"/>
<polygon fill="midnightblue" stroke="midnightblue" points="393.397,-23.3042 402.49,-17.8677 391.991,-16.4468 393.397,-23.3042"/>
</g>
<!-- Node11&#45;&gt;Node4 -->
<g id="edge32" class="edge"><title>Node11&#45;&gt;Node4</title>
<path fill="none" stroke="midnightblue" d="M128.915,-58.4966C106.808,-48.8563 73.9696,-34.5356 50.1333,-24.1408"/>
<polygon fill="midnightblue" stroke="midnightblue" points="51.4106,-20.8796 40.8452,-20.0904 48.6124,-27.296 51.4106,-20.8796"/>
</g>
<!-- Node11&#45;&gt;Node7 -->
<g id="edge26" class="edge"><title>Node11&#45;&gt;Node7</title>
<path fill="none" stroke="midnightblue" d="M194.824,-65.1495C312.806,-54.2877 646.461,-23.5702 751.161,-13.9313"/>
<polygon fill="midnightblue" stroke="midnightblue" points="751.759,-17.391 761.396,-12.9889 751.118,-10.4205 751.759,-17.391"/>
</g>
<!-- Node11&#45;&gt;Node10 -->
<g id="edge28" class="edge"><title>Node11&#45;&gt;Node10</title>
<path fill="none" stroke="midnightblue" d="M140.344,-58.3619C130.326,-49.9408 116.133,-38.0105 104.499,-28.2308"/>
<polygon fill="midnightblue" stroke="midnightblue" points="106.482,-25.326 96.5754,-21.5707 101.978,-30.6844 106.482,-25.326"/>
</g>
<!-- Node12 -->
<g id="node27" class="node"><title>Node12</title>
<polygon fill="white" stroke="#bfbfbf" points="123.5,-0.5 123.5,-21.5 182.5,-21.5 182.5,-0.5 123.5,-0.5"/>
<text text-anchor="middle" x="153" y="-8.5" font-family="Helvetica,sans-Serif" font-size="10.00">QPixmap</text>
</g>
<!-- Node11&#45;&gt;Node12 -->
<g id="edge30" class="edge"><title>Node11&#45;&gt;Node12</title>
<path fill="none" stroke="midnightblue" d="M153,-58.3619C153,-50.9219 153,-40.7427 153,-31.7276"/>
<polygon fill="midnightblue" stroke="midnightblue" points="156.5,-31.5706 153,-21.5707 149.5,-31.5707 156.5,-31.5706"/>
</g>
<!-- Node14&#45;&gt;Node2 -->
<g id="edge38" class="edge"><title>Node14&#45;&gt;Node2</title>
<path fill="none" stroke="midnightblue" d="M909.848,-61.8007C797.337,-49.7386 573.821,-25.7756 479.55,-15.669"/>
<polygon fill="midnightblue" stroke="midnightblue" points="479.822,-12.1781 469.506,-14.5921 479.076,-19.1383 479.822,-12.1781"/>
</g>
<!-- Node14&#45;&gt;Node7 -->
<g id="edge44" class="edge"><title>Node14&#45;&gt;Node7</title>
<path fill="none" stroke="midnightblue" d="M941.868,-58.4966C905.495,-47.6222 849.202,-30.7924 814.307,-20.3598"/>
<polygon fill="midnightblue" stroke="midnightblue" points="815.222,-16.9804 804.638,-17.4692 813.217,-23.687 815.222,-16.9804"/>
</g>
<!-- Node14&#45;&gt;Node8 -->
<g id="edge42" class="edge"><title>Node14&#45;&gt;Node8</title>
<path fill="none" stroke="midnightblue" d="M970.58,-58.3619C965.844,-50.5131 959.268,-39.6159 953.618,-30.2527"/>
<polygon fill="midnightblue" stroke="midnightblue" points="956.542,-28.3242 948.379,-21.5707 950.549,-31.9409 956.542,-28.3242"/>
</g>
<!-- Node15 -->
<g id="node35" class="node"><title>Node15</title>
<polygon fill="white" stroke="#bfbfbf" points="985,-0.5 985,-21.5 1037,-21.5 1037,-0.5 985,-0.5"/>
<text text-anchor="middle" x="1011" y="-8.5" font-family="Helvetica,sans-Serif" font-size="10.00">regex.h</text>
</g>
<!-- Node14&#45;&gt;Node15 -->
<g id="edge40" class="edge"><title>Node14&#45;&gt;Node15</title>
<path fill="none" stroke="midnightblue" d="M983.236,-58.3619C987.837,-50.5131 994.225,-39.6159 999.714,-30.2527"/>
<polygon fill="midnightblue" stroke="midnightblue" points="1002.77,-31.9677 1004.8,-21.5707 996.727,-28.4276 1002.77,-31.9677"/>
</g>
<!-- Node16 -->
<g id="node39" class="node"><title>Node16</title>
<polygon fill="white" stroke="#bfbfbf" points="1222,-0.5 1222,-21.5 1268,-21.5 1268,-0.5 1222,-0.5"/>
<text text-anchor="middle" x="1245" y="-8.5" font-family="Helvetica,sans-Serif" font-size="10.00">vector</text>
</g>
<!-- Node14&#45;&gt;Node16 -->
<g id="edge46" class="edge"><title>Node14&#45;&gt;Node16</title>
<path fill="none" stroke="midnightblue" d="M1025.53,-58.4966C1079.52,-46.8122 1165.28,-28.2522 1212.01,-18.1401"/>
<polygon fill="midnightblue" stroke="midnightblue" points="1212.88,-21.5335 1221.91,-15.9974 1211.39,-14.6919 1212.88,-21.5335"/>
</g>
<!-- Node17 -->
<g id="node41" class="node"><title>Node17</title>
<polygon fill="white" stroke="#bfbfbf" points="1131.5,-0.5 1131.5,-21.5 1168.5,-21.5 1168.5,-0.5 1131.5,-0.5"/>
<text text-anchor="middle" x="1150" y="-8.5" font-family="Helvetica,sans-Serif" font-size="10.00">map</text>
</g>
<!-- Node14&#45;&gt;Node17 -->
<g id="edge48" class="edge"><title>Node14&#45;&gt;Node17</title>
<path fill="none" stroke="midnightblue" d="M1008.33,-58.4966C1040.52,-47.7035 1090.21,-31.0439 1121.38,-20.595"/>
<polygon fill="midnightblue" stroke="midnightblue" points="1122.82,-23.8043 1131.19,-17.307 1120.59,-17.1674 1122.82,-23.8043"/>
</g>
<!-- Node19&#45;&gt;Node5 -->
<g id="edge60" class="edge"><title>Node19&#45;&gt;Node5</title>
<path fill="none" stroke="midnightblue" d="M1358.89,-58.3619C1364.83,-50.3496 1373.12,-39.1605 1380.16,-29.6696"/>
<polygon fill="midnightblue" stroke="midnightblue" points="1383.02,-31.6883 1386.16,-21.5707 1377.4,-27.5193 1383.02,-31.6883"/>
</g>
<!-- Node19&#45;&gt;Node7 -->
<g id="edge54" class="edge"><title>Node19&#45;&gt;Node7</title>
<path fill="none" stroke="midnightblue" d="M1291.29,-62.9026C1171.56,-50.6767 905.813,-23.5407 814.516,-14.2182"/>
<polygon fill="midnightblue" stroke="midnightblue" points="814.816,-10.7307 804.512,-13.1967 814.105,-17.6945 814.816,-10.7307"/>
</g>
<!-- Node19&#45;&gt;Node8 -->
<g id="edge56" class="edge"><title>Node19&#45;&gt;Node8</title>
<path fill="none" stroke="midnightblue" d="M1291.3,-65.0014C1218.85,-59.3753 1092.96,-47.1185 976.872,-21.8655"/>
<polygon fill="midnightblue" stroke="midnightblue" points="977.625,-18.4477 967.105,-19.7048 976.113,-25.2824 977.625,-18.4477"/>
</g>
<!-- Node19&#45;&gt;Node16 -->
<g id="edge58" class="edge"><title>Node19&#45;&gt;Node16</title>
<path fill="none" stroke="midnightblue" d="M1331.56,-58.3619C1315.2,-49.4094 1291.59,-36.4908 1273.16,-26.4064"/>
<polygon fill="midnightblue" stroke="midnightblue" points="1274.77,-23.3004 1264.32,-21.5707 1271.41,-29.4412 1274.77,-23.3004"/>
</g>
<!-- Node20&#45;&gt;Node2 -->
<g id="edge64" class="edge"><title>Node20&#45;&gt;Node2</title>
<path fill="none" stroke="midnightblue" d="M766.336,-176.859C698.052,-167.04 593.811,-150.319 580,-138 552.2,-113.204 580.358,-85.2877 555,-58 535.331,-36.8343 504.926,-25.0433 479.774,-18.5648"/>
<polygon fill="midnightblue" stroke="midnightblue" points="480.257,-15.0822 469.719,-16.1789 478.641,-21.8931 480.257,-15.0822"/>
</g>
<!-- Node20&#45;&gt;Node7 -->
<g id="edge68" class="edge"><title>Node20&#45;&gt;Node7</title>
<path fill="none" stroke="midnightblue" d="M795.015,-174.458C776.081,-166.756 752.431,-154.723 736,-138 715.801,-117.442 713.622,-108.049 707,-80 704.754,-70.4838 702.24,-66.5408 707,-58 716.597,-40.7817 735.39,-29.0771 751.886,-21.6546"/>
<polygon fill="midnightblue" stroke="midnightblue" points="753.352,-24.8357 761.246,-17.7699 750.668,-18.3704 753.352,-24.8357"/>
</g>
<!-- Node20&#45;&gt;Node9 -->
<g id="edge74" class="edge"><title>Node20&#45;&gt;Node9</title>
<path fill="none" stroke="midnightblue" d="M800.368,-174.387C784.336,-166.53 764.437,-154.354 752,-138 741.369,-124.021 736.084,-104.65 733.477,-89.9893"/>
<polygon fill="midnightblue" stroke="midnightblue" points="736.904,-89.2362 731.962,-79.8643 729.981,-90.2721 736.904,-89.2362"/>
</g>
<!-- Node20&#45;&gt;Node10 -->
<g id="edge70" class="edge"><title>Node20&#45;&gt;Node10</title>
<path fill="none" stroke="midnightblue" d="M766.294,-181.002C598.179,-169.139 130.162,-131.711 86,-80 74.8524,-66.9468 75.5531,-46.8999 78.3333,-31.7717"/>
<polygon fill="midnightblue" stroke="midnightblue" points="81.7974,-32.3209 80.5857,-21.7956 74.9692,-30.7793 81.7974,-32.3209"/>
</g>
<!-- Node20&#45;&gt;Node16 -->
<g id="edge66" class="edge"><title>Node20&#45;&gt;Node16</title>
<path fill="none" stroke="midnightblue" d="M885.675,-181.24C940.82,-176.204 1024.22,-164.577 1092,-138 1136.3,-120.629 1145.65,-110.716 1182,-80 1200.23,-64.5955 1218.31,-44.1072 1230.4,-29.4665"/>
<polygon fill="midnightblue" stroke="midnightblue" points="1233.19,-31.5755 1236.78,-21.6046 1227.76,-27.1653 1233.19,-31.5755"/>
</g>
<!-- Node20&#45;&gt;Node17 -->
<g id="edge72" class="edge"><title>Node20&#45;&gt;Node17</title>
<path fill="none" stroke="midnightblue" d="M885.578,-176.847C930.141,-169.633 992.078,-157.22 1044,-138 1094.73,-119.221 1123.33,-126.478 1151,-80 1159.6,-65.5628 1158.47,-46.2347 1155.7,-31.7079"/>
<polygon fill="midnightblue" stroke="midnightblue" points="1159.05,-30.6537 1153.39,-21.6956 1152.23,-32.2263 1159.05,-30.6537"/>
</g>
<!-- Node21 -->
<g id="node59" class="node"><title>Node21</title>
<polygon fill="white" stroke="#bfbfbf" points="589,-116.5 589,-137.5 667,-137.5 667,-116.5 589,-116.5"/>
<text text-anchor="middle" x="628" y="-124.5" font-family="Helvetica,sans-Serif" font-size="10.00">lunaservice.h</text>
</g>
<!-- Node20&#45;&gt;Node21 -->
<g id="edge76" class="edge"><title>Node20&#45;&gt;Node21</title>
<path fill="none" stroke="midnightblue" d="M790.144,-174.497C757.445,-164.918 708.974,-150.72 673.546,-140.342"/>
<polygon fill="midnightblue" stroke="midnightblue" points="674.504,-136.975 663.924,-137.523 672.536,-143.693 674.504,-136.975"/>
</g>
<!-- Node22 -->
<g id="node61" class="node"><title>Node22</title>
<polygon fill="white" stroke="#bfbfbf" points="763.5,-58.5 763.5,-79.5 816.5,-79.5 816.5,-58.5 763.5,-58.5"/>
<text text-anchor="middle" x="790" y="-66.5" font-family="Helvetica,sans-Serif" font-size="10.00">Mutex.h</text>
</g>
<!-- Node20&#45;&gt;Node22 -->
<g id="edge78" class="edge"><title>Node20&#45;&gt;Node22</title>
<path fill="none" stroke="midnightblue" d="M854.851,-174.44C883.394,-162.288 920.594,-140.79 904,-116 894.906,-102.414 856.085,-88.3097 826.245,-79.1413"/>
<polygon fill="midnightblue" stroke="midnightblue" points="827.109,-75.7466 816.525,-76.2291 825.1,-82.4521 827.109,-75.7466"/>
</g>
<!-- Node23 -->
<g id="node63" class="node"><title>Node23</title>
<a xlink:href="MimeSystem_8h.htm" target="_top" xlink:title="MimeSystem.h">
<polygon fill="white" stroke="black" points="950.5,-116.5 950.5,-137.5 1035.5,-137.5 1035.5,-116.5 950.5,-116.5"/>
<text text-anchor="middle" x="993" y="-124.5" font-family="Helvetica,sans-Serif" font-size="10.00">MimeSystem.h</text>
</a>
</g>
<!-- Node20&#45;&gt;Node23 -->
<g id="edge80" class="edge"><title>Node20&#45;&gt;Node23</title>
<path fill="none" stroke="midnightblue" d="M856.242,-174.497C883.35,-165.082 923.31,-151.204 953.043,-140.877"/>
<polygon fill="midnightblue" stroke="midnightblue" points="954.403,-144.11 962.701,-137.523 952.106,-137.498 954.403,-144.11"/>
</g>
<!-- Node25 -->
<g id="node74" class="node"><title>Node25</title>
<polygon fill="white" stroke="#bfbfbf" points="760.5,-116.5 760.5,-137.5 815.5,-137.5 815.5,-116.5 760.5,-116.5"/>
<text text-anchor="middle" x="788" y="-124.5" font-family="Helvetica,sans-Serif" font-size="10.00">QObject</text>
</g>
<!-- Node20&#45;&gt;Node25 -->
<g id="edge98" class="edge"><title>Node20&#45;&gt;Node25</title>
<path fill="none" stroke="midnightblue" d="M819.03,-174.362C813.834,-166.431 806.599,-155.389 800.422,-145.961"/>
<polygon fill="midnightblue" stroke="midnightblue" points="803.334,-144.017 794.926,-137.571 797.478,-147.853 803.334,-144.017"/>
</g>
<!-- Node26 -->
<g id="node76" class="node"><title>Node26</title>
<polygon fill="white" stroke="#bfbfbf" points="833,-116.5 833,-137.5 895,-137.5 895,-116.5 833,-116.5"/>
<text text-anchor="middle" x="864" y="-124.5" font-family="Helvetica,sans-Serif" font-size="10.00">QBitArray</text>
</g>
<!-- Node20&#45;&gt;Node26 -->
<g id="edge100" class="edge"><title>Node20&#45;&gt;Node26</title>
<path fill="none" stroke="midnightblue" d="M832.97,-174.362C838.166,-166.431 845.401,-155.389 851.578,-145.961"/>
<polygon fill="midnightblue" stroke="midnightblue" points="854.522,-147.853 857.074,-137.571 848.666,-144.017 854.522,-147.853"/>
</g>
<!-- Node23&#45;&gt;Node2 -->
<g id="edge82" class="edge"><title>Node23&#45;&gt;Node2</title>
<path fill="none" stroke="midnightblue" d="M956.278,-116.435C929.068,-108.034 891.417,-95.1926 860,-80 843.459,-72.0012 842.317,-64.1394 825,-58 762.157,-35.7203 567.46,-20.0025 479.692,-13.8612"/>
<polygon fill="midnightblue" stroke="midnightblue" points="479.752,-10.3571 469.535,-13.16 479.27,-17.3405 479.752,-10.3571"/>
</g>
<!-- Node23&#45;&gt;Node7 -->
<g id="edge84" class="edge"><title>Node23&#45;&gt;Node7</title>
<path fill="none" stroke="midnightblue" d="M971.255,-116.327C952.497,-107.017 924.758,-93.0013 901,-80 869.021,-62.5002 832.934,-41.1584 809.183,-26.886"/>
<polygon fill="midnightblue" stroke="midnightblue" points="810.786,-23.7659 800.415,-21.6015 807.173,-29.7612 810.786,-23.7659"/>
</g>
<!-- Node23&#45;&gt;Node9 -->
<g id="edge90" class="edge"><title>Node23&#45;&gt;Node9</title>
<path fill="none" stroke="midnightblue" d="M950.105,-121.624C903.926,-115.159 828.375,-102.624 756.233,-79.8849"/>
<polygon fill="midnightblue" stroke="midnightblue" points="757.131,-76.497 746.539,-76.76 754.983,-83.1594 757.131,-76.497"/>
</g>
<!-- Node23&#45;&gt;Node14 -->
<g id="edge96" class="edge"><title>Node23&#45;&gt;Node14</title>
<path fill="none" stroke="midnightblue" d="M990.065,-116.362C987.99,-108.84 985.143,-98.5187 982.636,-89.4308"/>
<polygon fill="midnightblue" stroke="midnightblue" points="985.949,-88.2798 979.916,-79.5707 979.201,-90.1414 985.949,-88.2798"/>
</g>
<!-- Node23&#45;&gt;Node16 -->
<g id="edge86" class="edge"><title>Node23&#45;&gt;Node16</title>
<path fill="none" stroke="midnightblue" d="M1035.73,-118.492C1068.4,-111.005 1113.97,-98.4023 1151,-80 1179.14,-66.0163 1207.72,-43.6219 1225.85,-28.1578"/>
<polygon fill="midnightblue" stroke="midnightblue" points="1228.15,-30.7941 1233.41,-21.5954 1223.57,-25.5081 1228.15,-30.7941"/>
</g>
<!-- Node23&#45;&gt;Node17 -->
<g id="edge88" class="edge"><title>Node23&#45;&gt;Node17</title>
<path fill="none" stroke="midnightblue" d="M1035.59,-117.141C1071.02,-108.128 1117.72,-94.0925 1131,-80 1143.27,-66.9738 1147.75,-46.7622 1149.32,-31.5747"/>
<polygon fill="midnightblue" stroke="midnightblue" points="1152.81,-31.798 1150.02,-21.5785 1145.83,-31.3103 1152.81,-31.798"/>
</g>
<!-- Node23&#45;&gt;Node22 -->
<g id="edge94" class="edge"><title>Node23&#45;&gt;Node22</title>
<path fill="none" stroke="midnightblue" d="M956.238,-116.497C919.476,-105.993 863.269,-89.934 826.574,-79.4497"/>
<polygon fill="midnightblue" stroke="midnightblue" points="827.35,-76.0315 816.774,-76.6496 825.427,-82.7622 827.35,-76.0315"/>
</g>
<!-- Node24 -->
<g id="node70" class="node"><title>Node24</title>
<polygon fill="white" stroke="#bfbfbf" points="1062,-58.5 1062,-79.5 1122,-79.5 1122,-58.5 1062,-58.5"/>
<text text-anchor="middle" x="1092" y="-66.5" font-family="Helvetica,sans-Serif" font-size="10.00">algorithm</text>
</g>
<!-- Node23&#45;&gt;Node24 -->
<g id="edge92" class="edge"><title>Node23&#45;&gt;Node24</title>
<path fill="none" stroke="midnightblue" d="M1011.16,-116.362C1026.23,-107.532 1047.89,-94.844 1064.99,-84.8224"/>
<polygon fill="midnightblue" stroke="midnightblue" points="1067.1,-87.6456 1073.96,-79.5707 1063.56,-81.6058 1067.1,-87.6456"/>
</g>
</g>
</svg>
