<?xml version="1.0" encoding="UTF-8" standalone="no"?>
<!DOCTYPE svg PUBLIC "-//W3C//DTD SVG 1.1//EN"
 "http://www.w3.org/Graphics/SVG/1.1/DTD/svg11.dtd">
<!-- Generated by graphviz version 2.26.3 (20100126.1600)
 -->
<!-- Title: layoutsettings.h Pages: 1 -->
<svg width="652pt" height="88pt"
 viewBox="0.00 0.00 652.00 88.00" xmlns="http://www.w3.org/2000/svg" xmlns:xlink="http://www.w3.org/1999/xlink">
<g id="graph1" class="graph" transform="scale(1 1) rotate(0) translate(4 84)">
<title>layoutsettings.h</title>
<polygon fill="white" stroke="white" points="-4,5 -4,-84 649,-84 649,5 -4,5"/>
<!-- Node1 -->
<g id="node1" class="node"><title>Node1</title>
<polygon fill="#bfbfbf" stroke="black" points="264.5,-58.5 264.5,-79.5 353.5,-79.5 353.5,-58.5 264.5,-58.5"/>
<text text-anchor="middle" x="309" y="-66.5" font-family="Helvetica,sans-Serif" font-size="10.00">layoutsettings.h</text>
</g>
<!-- Node2 -->
<g id="node3" class="node"><title>Node2</title>
<polygon fill="white" stroke="#bfbfbf" points="-0.5,-0.5 -0.5,-21.5 66.5,-21.5 66.5,-0.5 -0.5,-0.5"/>
<text text-anchor="middle" x="33" y="-8.5" font-family="Helvetica,sans-Serif" font-size="10.00">Common.h</text>
</g>
<!-- Node1&#45;&gt;Node2 -->
<g id="edge2" class="edge"><title>Node1&#45;&gt;Node2</title>
<path fill="none" stroke="midnightblue" d="M264.411,-60.8402C219.327,-52.4123 147.427,-38.488 76.8337,-22.3465"/>
<polygon fill="midnightblue" stroke="midnightblue" points="77.4148,-18.8887 66.8843,-20.0545 75.8434,-25.7101 77.4148,-18.8887"/>
</g>
<!-- Node3 -->
<g id="node5" class="node"><title>Node3</title>
<polygon fill="white" stroke="#bfbfbf" points="83.5,-0.5 83.5,-21.5 126.5,-21.5 126.5,-0.5 83.5,-0.5"/>
<text text-anchor="middle" x="105" y="-8.5" font-family="Helvetica,sans-Serif" font-size="10.00">string</text>
</g>
<!-- Node1&#45;&gt;Node3 -->
<g id="edge4" class="edge"><title>Node1&#45;&gt;Node3</title>
<path fill="none" stroke="midnightblue" d="M265.791,-58.4504C232.539,-50.0801 185.286,-37.643 136.086,-22.1849"/>
<polygon fill="midnightblue" stroke="midnightblue" points="137.142,-18.8483 126.552,-19.1588 135.025,-25.5203 137.142,-18.8483"/>
</g>
<!-- Node4 -->
<g id="node7" class="node"><title>Node4</title>
<polygon fill="white" stroke="#bfbfbf" points="144,-0.5 144,-21.5 190,-21.5 190,-0.5 144,-0.5"/>
<text text-anchor="middle" x="167" y="-8.5" font-family="Helvetica,sans-Serif" font-size="10.00">vector</text>
</g>
<!-- Node1&#45;&gt;Node4 -->
<g id="edge6" class="edge"><title>Node1&#45;&gt;Node4</title>
<path fill="none" stroke="midnightblue" d="M283.285,-58.4966C259.86,-48.9287 225.148,-34.7506 199.748,-24.3758"/>
<polygon fill="midnightblue" stroke="midnightblue" points="200.754,-21.0061 190.173,-20.465 198.107,-27.4864 200.754,-21.0061"/>
</g>
<!-- Node5 -->
<g id="node9" class="node"><title>Node5</title>
<polygon fill="white" stroke="#bfbfbf" points="207.5,-0.5 207.5,-21.5 238.5,-21.5 238.5,-0.5 207.5,-0.5"/>
<text text-anchor="middle" x="223" y="-8.5" font-family="Helvetica,sans-Serif" font-size="10.00">set</text>
</g>
<!-- Node1&#45;&gt;Node5 -->
<g id="edge8" class="edge"><title>Node1&#45;&gt;Node5</title>
<path fill="none" stroke="midnightblue" d="M293.226,-58.3619C280.376,-49.6955 262.015,-37.3126 247.29,-27.3819"/>
<polygon fill="midnightblue" stroke="midnightblue" points="248.921,-24.2604 238.674,-21.5707 245.007,-30.0639 248.921,-24.2604"/>
</g>
<!-- Node6 -->
<g id="node11" class="node"><title>Node6</title>
<polygon fill="white" stroke="#bfbfbf" points="255.5,-0.5 255.5,-21.5 296.5,-21.5 296.5,-0.5 255.5,-0.5"/>
<text text-anchor="middle" x="276" y="-8.5" font-family="Helvetica,sans-Serif" font-size="10.00">glib.h</text>
</g>
<!-- Node1&#45;&gt;Node6 -->
<g id="edge10" class="edge"><title>Node1&#45;&gt;Node6</title>
<path fill="none" stroke="midnightblue" d="M302.947,-58.3619C298.528,-50.5949 292.41,-39.8426 287.121,-30.5458"/>
<polygon fill="midnightblue" stroke="midnightblue" points="290.002,-28.5315 282.014,-21.5707 283.918,-31.9932 290.002,-28.5315"/>
</g>
<!-- Node7 -->
<g id="node13" class="node"><title>Node7</title>
<polygon fill="white" stroke="#bfbfbf" points="314,-0.5 314,-21.5 372,-21.5 372,-0.5 314,-0.5"/>
<text text-anchor="middle" x="343" y="-8.5" font-family="Helvetica,sans-Serif" font-size="10.00">QtGlobal</text>
</g>
<!-- Node1&#45;&gt;Node7 -->
<g id="edge12" class="edge"><title>Node1&#45;&gt;Node7</title>
<path fill="none" stroke="midnightblue" d="M315.236,-58.3619C319.837,-50.5131 326.225,-39.6159 331.714,-30.2527"/>
<polygon fill="midnightblue" stroke="midnightblue" points="334.766,-31.9677 336.803,-21.5707 328.727,-28.4276 334.766,-31.9677"/>
</g>
<!-- Node8 -->
<g id="node15" class="node"><title>Node8</title>
<polygon fill="white" stroke="#bfbfbf" points="389.5,-0.5 389.5,-21.5 440.5,-21.5 440.5,-0.5 389.5,-0.5"/>
<text text-anchor="middle" x="415" y="-8.5" font-family="Helvetica,sans-Serif" font-size="10.00">QSizeF</text>
</g>
<!-- Node1&#45;&gt;Node8 -->
<g id="edge14" class="edge"><title>Node1&#45;&gt;Node8</title>
<path fill="none" stroke="midnightblue" d="M328.442,-58.3619C344.804,-49.4094 368.413,-36.4908 386.843,-26.4064"/>
<polygon fill="midnightblue" stroke="midnightblue" points="388.589,-29.4412 395.681,-21.5707 385.229,-23.3004 388.589,-29.4412"/>
</g>
<!-- Node9 -->
<g id="node17" class="node"><title>Node9</title>
<polygon fill="white" stroke="#bfbfbf" points="457.5,-0.5 457.5,-21.5 510.5,-21.5 510.5,-0.5 457.5,-0.5"/>
<text text-anchor="middle" x="484" y="-8.5" font-family="Helvetica,sans-Serif" font-size="10.00">QString</text>
</g>
<!-- Node1&#45;&gt;Node9 -->
<g id="edge16" class="edge"><title>Node1&#45;&gt;Node9</title>
<path fill="none" stroke="midnightblue" d="M340.691,-58.4966C370.821,-48.5109 416.102,-33.5033 447.676,-23.0389"/>
<polygon fill="midnightblue" stroke="midnightblue" points="449.018,-26.2815 457.409,-19.8131 446.815,-19.6369 449.018,-26.2815"/>
</g>
<!-- Node10 -->
<g id="node19" class="node"><title>Node10</title>
<polygon fill="white" stroke="#bfbfbf" points="527.5,-0.5 527.5,-21.5 576.5,-21.5 576.5,-0.5 527.5,-0.5"/>
<text text-anchor="middle" x="552" y="-8.5" font-family="Helvetica,sans-Serif" font-size="10.00">QPoint</text>
</g>
<!-- Node1&#45;&gt;Node10 -->
<g id="edge18" class="edge"><title>Node1&#45;&gt;Node10</title>
<path fill="none" stroke="midnightblue" d="M353.571,-60.3935C394.135,-52.2556 455.824,-39.1197 517.347,-22.2931"/>
<polygon fill="midnightblue" stroke="midnightblue" points="518.513,-25.6022 527.217,-19.5611 516.646,-18.8559 518.513,-25.6022"/>
</g>
<!-- Node11 -->
<g id="node21" class="node"><title>Node11</title>
<polygon fill="white" stroke="#bfbfbf" points="594,-0.5 594,-21.5 644,-21.5 644,-0.5 594,-0.5"/>
<text text-anchor="middle" x="619" y="-8.5" font-family="Helvetica,sans-Serif" font-size="10.00">QColor</text>
</g>
<!-- Node1&#45;&gt;Node11 -->
<g id="edge20" class="edge"><title>Node1&#45;&gt;Node11</title>
<path fill="none" stroke="midnightblue" d="M353.863,-63.3873C406.773,-56.3213 497.47,-42.8134 583.894,-22.0156"/>
<polygon fill="midnightblue" stroke="midnightblue" points="584.982,-25.3528 593.865,-19.5785 583.32,-18.553 584.982,-25.3528"/>
</g>
</g>
</svg>
