<?xml version="1.0" encoding="UTF-8" standalone="no"?>
<!DOCTYPE svg PUBLIC "-//W3C//DTD SVG 1.1//EN"
 "http://www.w3.org/Graphics/SVG/1.1/DTD/svg11.dtd">
<!-- Generated by graphviz version 2.26.3 (20100126.1600)
 -->
<!-- Title: layoutitem.h Pages: 1 -->
<svg width="991pt" height="204pt"
 viewBox="0.00 0.00 991.00 204.00" xmlns="http://www.w3.org/2000/svg" xmlns:xlink="http://www.w3.org/1999/xlink">
<g id="graph1" class="graph" transform="scale(1 1) rotate(0) translate(4 200)">
<title>layoutitem.h</title>
<polygon fill="white" stroke="white" points="-4,5 -4,-200 988,-200 988,5 -4,5"/>
<!-- Node1 -->
<g id="node1" class="node"><title>Node1</title>
<polygon fill="#bfbfbf" stroke="black" points="779,-174.5 779,-195.5 851,-195.5 851,-174.5 779,-174.5"/>
<text text-anchor="middle" x="815" y="-182.5" font-family="Helvetica,sans-Serif" font-size="10.00">layoutitem.h</text>
</g>
<!-- Node2 -->
<g id="node3" class="node"><title>Node2</title>
<a xlink:href="icon_8cpp.htm" target="_top" xlink:title="icon.cpp">
<polygon fill="white" stroke="black" points="505,-116.5 505,-137.5 561,-137.5 561,-116.5 505,-116.5"/>
<text text-anchor="middle" x="533" y="-124.5" font-family="Helvetica,sans-Serif" font-size="10.00">icon.cpp</text>
</a>
</g>
<!-- Node1&#45;&gt;Node2 -->
<g id="edge2" class="edge"><title>Node1&#45;&gt;Node2</title>
<path fill="none" stroke="midnightblue" d="M768.566,-177.509C719.07,-169.194 638.548,-154.721 570,-138 567.135,-137.301 564.162,-136.518 561.203,-135.699"/>
<polygon fill="midnightblue" stroke="midnightblue" points="768.202,-180.996 778.641,-179.188 769.353,-174.091 768.202,-180.996"/>
</g>
<!-- Node3 -->
<g id="node5" class="node"><title>Node3</title>
<a xlink:href="iconlayout_8h.htm" target="_top" xlink:title="iconlayout.h">
<polygon fill="white" stroke="black" points="579,-116.5 579,-137.5 651,-137.5 651,-116.5 579,-116.5"/>
<text text-anchor="middle" x="615" y="-124.5" font-family="Helvetica,sans-Serif" font-size="10.00">iconlayout.h</text>
</a>
</g>
<!-- Node1&#45;&gt;Node3 -->
<g id="edge4" class="edge"><title>Node1&#45;&gt;Node3</title>
<path fill="none" stroke="midnightblue" d="M769.067,-171.68C733.3,-161.307 684.337,-147.108 651.286,-137.523"/>
<polygon fill="midnightblue" stroke="midnightblue" points="768.202,-175.073 778.782,-174.497 770.152,-168.35 768.202,-175.073"/>
</g>
<!-- Node6 -->
<g id="node11" class="node"><title>Node6</title>
<a xlink:href="alphabeticonlayout_8cpp.htm" target="_top" xlink:title="alphabeticonlayout.cpp">
<polygon fill="white" stroke="black" points="718,-0.5 718,-21.5 842,-21.5 842,-0.5 718,-0.5"/>
<text text-anchor="middle" x="780" y="-8.5" font-family="Helvetica,sans-Serif" font-size="10.00">alphabeticonlayout.cpp</text>
</a>
</g>
<!-- Node1&#45;&gt;Node6 -->
<g id="edge32" class="edge"><title>Node1&#45;&gt;Node6</title>
<path fill="none" stroke="midnightblue" d="M829.705,-166.065C847.72,-140.381 873.575,-93.6215 854,-58 844.545,-40.7936 825.829,-28.9937 809.585,-21.5207"/>
<polygon fill="midnightblue" stroke="midnightblue" points="826.821,-164.079 823.747,-174.218 832.473,-168.209 826.821,-164.079"/>
</g>
<!-- Node12 -->
<g id="node25" class="node"><title>Node12</title>
<a xlink:href="page_8cpp.htm" target="_top" xlink:title="page.cpp">
<polygon fill="white" stroke="black" points="785,-58.5 785,-79.5 845,-79.5 845,-58.5 785,-58.5"/>
<text text-anchor="middle" x="815" y="-66.5" font-family="Helvetica,sans-Serif" font-size="10.00">page.cpp</text>
</a>
</g>
<!-- Node1&#45;&gt;Node12 -->
<g id="edge36" class="edge"><title>Node1&#45;&gt;Node12</title>
<path fill="none" stroke="midnightblue" d="M815,-164.123C815,-139.298 815,-98.8235 815,-79.6792"/>
<polygon fill="midnightblue" stroke="midnightblue" points="811.5,-164.295 815,-174.295 818.5,-164.295 811.5,-164.295"/>
</g>
<!-- Node15 -->
<g id="node32" class="node"><title>Node15</title>
<a xlink:href="layoutitem_8cpp.htm" target="_top" xlink:title="layoutitem.cpp">
<polygon fill="white" stroke="black" points="900.5,-116.5 900.5,-137.5 983.5,-137.5 983.5,-116.5 900.5,-116.5"/>
<text text-anchor="middle" x="942" y="-124.5" font-family="Helvetica,sans-Serif" font-size="10.00">layoutitem.cpp</text>
</a>
</g>
<!-- Node1&#45;&gt;Node15 -->
<g id="edge34" class="edge"><title>Node1&#45;&gt;Node15</title>
<path fill="none" stroke="midnightblue" d="M847.393,-170.206C869.673,-160.031 898.74,-146.757 918.743,-137.621"/>
<polygon fill="midnightblue" stroke="midnightblue" points="845.641,-167.159 837.999,-174.497 848.549,-173.526 845.641,-167.159"/>
</g>
<!-- Node4 -->
<g id="node7" class="node"><title>Node4</title>
<a xlink:href="alphabeticonlayout_8h.htm" target="_top" xlink:title="alphabeticonlayout.h">
<polygon fill="white" stroke="black" points="616.5,-58.5 616.5,-79.5 729.5,-79.5 729.5,-58.5 616.5,-58.5"/>
<text text-anchor="middle" x="673" y="-66.5" font-family="Helvetica,sans-Serif" font-size="10.00">alphabeticonlayout.h</text>
</a>
</g>
<!-- Node3&#45;&gt;Node4 -->
<g id="edge6" class="edge"><title>Node3&#45;&gt;Node4</title>
<path fill="none" stroke="midnightblue" d="M632.882,-109.118C642.562,-99.4377 654.19,-87.8098 662.429,-79.5707"/>
<polygon fill="midnightblue" stroke="midnightblue" points="630.234,-106.816 625.638,-116.362 635.184,-111.766 630.234,-106.816"/>
</g>
<!-- Node3&#45;&gt;Node6 -->
<g id="edge12" class="edge"><title>Node3&#45;&gt;Node6</title>
<path fill="none" stroke="midnightblue" d="M661.007,-117.157C685.877,-110.049 715.924,-98.3881 738,-80 757.288,-63.9342 770.137,-36.6009 776.122,-21.6116"/>
<polygon fill="midnightblue" stroke="midnightblue" points="659.8,-113.857 651.057,-119.841 661.623,-120.616 659.8,-113.857"/>
</g>
<!-- Node7 -->
<g id="node14" class="node"><title>Node7</title>
<a xlink:href="iconlayout_8cpp.htm" target="_top" xlink:title="iconlayout.cpp">
<polygon fill="white" stroke="black" points="68.5,-58.5 68.5,-79.5 151.5,-79.5 151.5,-58.5 68.5,-58.5"/>
<text text-anchor="middle" x="110" y="-66.5" font-family="Helvetica,sans-Serif" font-size="10.00">iconlayout.cpp</text>
</a>
</g>
<!-- Node3&#45;&gt;Node7 -->
<g id="edge14" class="edge"><title>Node3&#45;&gt;Node7</title>
<path fill="none" stroke="midnightblue" d="M568.628,-115.984C387.718,-86.9572 337.546,-107.209 160,-80 157.276,-79.5826 154.479,-79.105 151.666,-78.5879"/>
<polygon fill="midnightblue" stroke="midnightblue" points="568.315,-119.479 578.748,-117.637 569.443,-112.57 568.315,-119.479"/>
</g>
<!-- Node8 -->
<g id="node16" class="node"><title>Node8</title>
<a xlink:href="reorderableiconlayout_8h.htm" target="_top" xlink:title="reorderableiconlayout.h">
<polygon fill="white" stroke="black" points="168.5,-58.5 168.5,-79.5 295.5,-79.5 295.5,-58.5 168.5,-58.5"/>
<text text-anchor="middle" x="232" y="-66.5" font-family="Helvetica,sans-Serif" font-size="10.00">reorderableiconlayout.h</text>
</a>
</g>
<!-- Node3&#45;&gt;Node8 -->
<g id="edge16" class="edge"><title>Node3&#45;&gt;Node8</title>
<path fill="none" stroke="midnightblue" d="M568.776,-115.904C453.268,-94.1756 421.79,-95.835 309,-80 304.721,-79.3992 300.308,-78.7768 295.863,-78.1474"/>
<polygon fill="midnightblue" stroke="midnightblue" points="568.243,-119.365 578.721,-117.793 569.549,-112.488 568.243,-119.365"/>
</g>
<!-- Node10 -->
<g id="node20" class="node"><title>Node10</title>
<a xlink:href="reorderableiconlayout_8cpp.htm" target="_top" xlink:title="reorderableiconlayout.cpp">
<polygon fill="white" stroke="black" points="286,-0.5 286,-21.5 424,-21.5 424,-0.5 286,-0.5"/>
<text text-anchor="middle" x="355" y="-8.5" font-family="Helvetica,sans-Serif" font-size="10.00">reorderableiconlayout.cpp</text>
</a>
</g>
<!-- Node3&#45;&gt;Node10 -->
<g id="edge24" class="edge"><title>Node3&#45;&gt;Node10</title>
<path fill="none" stroke="midnightblue" d="M568.691,-116.161C504.79,-107.138 373.565,-116.94 342,-80 327.904,-63.504 339.695,-36.5891 348.189,-21.7192"/>
<polygon fill="midnightblue" stroke="midnightblue" points="568.265,-119.639 578.709,-117.854 569.432,-112.736 568.265,-119.639"/>
</g>
<!-- Node3&#45;&gt;Node12 -->
<g id="edge26" class="edge"><title>Node3&#45;&gt;Node12</title>
<path fill="none" stroke="midnightblue" d="M661.044,-113.647C699.12,-102.605 752.091,-87.2435 784.926,-77.7214"/>
<polygon fill="midnightblue" stroke="midnightblue" points="659.848,-110.35 651.218,-116.497 661.798,-117.073 659.848,-110.35"/>
</g>
<!-- Node13 -->
<g id="node27" class="node"><title>Node13</title>
<a xlink:href="scrollinglayoutrenderer_8cpp.htm" target="_top" xlink:title="scrollinglayoutrenderer.cpp">
<polygon fill="white" stroke="black" points="351,-58.5 351,-79.5 495,-79.5 495,-58.5 351,-58.5"/>
<text text-anchor="middle" x="423" y="-66.5" font-family="Helvetica,sans-Serif" font-size="10.00">scrollinglayoutrenderer.cpp</text>
</a>
</g>
<!-- Node3&#45;&gt;Node13 -->
<g id="edge28" class="edge"><title>Node3&#45;&gt;Node13</title>
<path fill="none" stroke="midnightblue" d="M570.464,-113.546C536.167,-103.186 489.428,-89.0668 457.835,-79.5231"/>
<polygon fill="midnightblue" stroke="midnightblue" points="569.645,-116.955 580.23,-116.497 571.67,-110.254 569.645,-116.955"/>
</g>
<!-- Node14 -->
<g id="node29" class="node"><title>Node14</title>
<a xlink:href="pagesaver_8cpp.htm" target="_top" xlink:title="pagesaver.cpp">
<polygon fill="white" stroke="black" points="513,-58.5 513,-79.5 599,-79.5 599,-58.5 513,-58.5"/>
<text text-anchor="middle" x="556" y="-66.5" font-family="Helvetica,sans-Serif" font-size="10.00">pagesaver.cpp</text>
</a>
</g>
<!-- Node3&#45;&gt;Node14 -->
<g id="edge30" class="edge"><title>Node3&#45;&gt;Node14</title>
<path fill="none" stroke="midnightblue" d="M596.81,-109.118C586.963,-99.4377 575.134,-87.8098 566.753,-79.5707"/>
<polygon fill="midnightblue" stroke="midnightblue" points="594.594,-111.847 604.178,-116.362 599.501,-106.856 594.594,-111.847"/>
</g>
<!-- Node5 -->
<g id="node9" class="node"><title>Node5</title>
<a xlink:href="alphabetpage_8cpp.htm" target="_top" xlink:title="alphabetpage.cpp">
<polygon fill="white" stroke="black" points="599.5,-0.5 599.5,-21.5 700.5,-21.5 700.5,-0.5 599.5,-0.5"/>
<text text-anchor="middle" x="650" y="-8.5" font-family="Helvetica,sans-Serif" font-size="10.00">alphabetpage.cpp</text>
</a>
</g>
<!-- Node4&#45;&gt;Node5 -->
<g id="edge8" class="edge"><title>Node4&#45;&gt;Node5</title>
<path fill="none" stroke="midnightblue" d="M664.983,-48.7838C661.348,-39.617 657.2,-29.1572 654.192,-21.5707"/>
<polygon fill="midnightblue" stroke="midnightblue" points="661.842,-50.3563 668.781,-58.3619 668.349,-47.7759 661.842,-50.3563"/>
</g>
<!-- Node4&#45;&gt;Node6 -->
<g id="edge10" class="edge"><title>Node4&#45;&gt;Node6</title>
<path fill="none" stroke="midnightblue" d="M701.563,-53.5175C720.193,-43.4189 744.02,-30.5032 760.499,-21.5707"/>
<polygon fill="midnightblue" stroke="midnightblue" points="699.749,-50.5194 692.625,-58.3619 703.085,-56.6734 699.749,-50.5194"/>
</g>
<!-- Node9 -->
<g id="node18" class="node"><title>Node9</title>
<a xlink:href="iconreorderanimation_8cpp.htm" target="_top" xlink:title="iconreorderanimation.cpp">
<polygon fill="white" stroke="black" points="131.5,-0.5 131.5,-21.5 268.5,-21.5 268.5,-0.5 131.5,-0.5"/>
<text text-anchor="middle" x="200" y="-8.5" font-family="Helvetica,sans-Serif" font-size="10.00">iconreorderanimation.cpp</text>
</a>
</g>
<!-- Node8&#45;&gt;Node9 -->
<g id="edge18" class="edge"><title>Node8&#45;&gt;Node9</title>
<path fill="none" stroke="midnightblue" d="M221.171,-49.3733C216.038,-40.0682 210.108,-29.3204 205.832,-21.5707"/>
<polygon fill="midnightblue" stroke="midnightblue" points="218.235,-51.2969 226.131,-58.3619 224.364,-47.9153 218.235,-51.2969"/>
</g>
<!-- Node8&#45;&gt;Node10 -->
<g id="edge20" class="edge"><title>Node8&#45;&gt;Node10</title>
<path fill="none" stroke="midnightblue" d="M263.373,-54.2064C284.951,-44.031 313.102,-30.7567 332.476,-21.6212"/>
<polygon fill="midnightblue" stroke="midnightblue" points="261.826,-51.0658 254.274,-58.4966 264.812,-57.3972 261.826,-51.0658"/>
</g>
<!-- Node11 -->
<g id="node22" class="node"><title>Node11</title>
<a xlink:href="reorderablepage_8cpp.htm" target="_top" xlink:title="reorderablepage.cpp">
<polygon fill="white" stroke="black" points="-0.5,-0.5 -0.5,-21.5 114.5,-21.5 114.5,-0.5 -0.5,-0.5"/>
<text text-anchor="middle" x="57" y="-8.5" font-family="Helvetica,sans-Serif" font-size="10.00">reorderablepage.cpp</text>
</a>
</g>
<!-- Node8&#45;&gt;Node11 -->
<g id="edge22" class="edge"><title>Node8&#45;&gt;Node11</title>
<path fill="none" stroke="midnightblue" d="M190.6,-55.2787C159.416,-44.9437 117.299,-30.9849 88.7506,-21.5231"/>
<polygon fill="midnightblue" stroke="midnightblue" points="189.715,-58.6729 200.309,-58.4966 191.918,-52.0283 189.715,-58.6729"/>
</g>
</g>
</svg>
