<?xml version="1.0" encoding="UTF-8" standalone="no"?>
<!DOCTYPE svg PUBLIC "-//W3C//DTD SVG 1.1//EN"
 "http://www.w3.org/Graphics/SVG/1.1/DTD/svg11.dtd">
<!-- Generated by graphviz version 2.26.3 (20100126.1600)
 -->
<!-- Title: LsmUtils.cpp Pages: 1 -->
<svg width="2305pt" height="262pt"
 viewBox="0.00 0.00 2305.00 262.00" xmlns="http://www.w3.org/2000/svg" xmlns:xlink="http://www.w3.org/1999/xlink">
<g id="graph1" class="graph" transform="scale(1 1) rotate(0) translate(4 258)">
<title>LsmUtils.cpp</title>
<polygon fill="white" stroke="white" points="-4,5 -4,-258 2302,-258 2302,5 -4,5"/>
<!-- Node1 -->
<g id="node1" class="node"><title>Node1</title>
<polygon fill="#bfbfbf" stroke="black" points="1602,-232.5 1602,-253.5 1678,-253.5 1678,-232.5 1602,-232.5"/>
<text text-anchor="middle" x="1640" y="-240.5" font-family="Helvetica,sans-Serif" font-size="10.00">LsmUtils.cpp</text>
</g>
<!-- Node2 -->
<g id="node3" class="node"><title>Node2</title>
<polygon fill="white" stroke="#bfbfbf" points="470.5,-0.5 470.5,-21.5 537.5,-21.5 537.5,-0.5 470.5,-0.5"/>
<text text-anchor="middle" x="504" y="-8.5" font-family="Helvetica,sans-Serif" font-size="10.00">Common.h</text>
</g>
<!-- Node1&#45;&gt;Node2 -->
<g id="edge2" class="edge"><title>Node1&#45;&gt;Node2</title>
<path fill="none" stroke="midnightblue" d="M1601.82,-242.544C1410.38,-239.869 561.105,-223.232 485,-138 458.551,-108.379 478.107,-58.4929 492.452,-30.8835"/>
<polygon fill="midnightblue" stroke="midnightblue" points="495.692,-32.2533 497.407,-21.7982 489.546,-28.9019 495.692,-32.2533"/>
</g>
<!-- Node3 -->
<g id="node5" class="node"><title>Node3</title>
<polygon fill="white" stroke="#bfbfbf" points="1314.5,-174.5 1314.5,-195.5 1361.5,-195.5 1361.5,-174.5 1314.5,-174.5"/>
<text text-anchor="middle" x="1338" y="-182.5" font-family="Helvetica,sans-Serif" font-size="10.00">stdio.h</text>
</g>
<!-- Node1&#45;&gt;Node3 -->
<g id="edge4" class="edge"><title>Node1&#45;&gt;Node3</title>
<path fill="none" stroke="midnightblue" d="M1601.59,-238.269C1550.76,-231.583 1458.32,-217.949 1371.39,-196.087"/>
<polygon fill="midnightblue" stroke="midnightblue" points="1372.19,-192.68 1361.64,-193.594 1370.46,-199.462 1372.19,-192.68"/>
</g>
<!-- Node4 -->
<g id="node7" class="node"><title>Node4</title>
<polygon fill="white" stroke="#bfbfbf" points="1378.5,-174.5 1378.5,-195.5 1429.5,-195.5 1429.5,-174.5 1378.5,-174.5"/>
<text text-anchor="middle" x="1404" y="-182.5" font-family="Helvetica,sans-Serif" font-size="10.00">string.h</text>
</g>
<!-- Node1&#45;&gt;Node4 -->
<g id="edge6" class="edge"><title>Node1&#45;&gt;Node4</title>
<path fill="none" stroke="midnightblue" d="M1601.78,-235.113C1563.05,-226.899 1501.23,-213.181 1439.46,-196.263"/>
<polygon fill="midnightblue" stroke="midnightblue" points="1440.12,-192.815 1429.55,-193.521 1438.25,-199.561 1440.12,-192.815"/>
</g>
<!-- Node5 -->
<g id="node9" class="node"><title>Node5</title>
<polygon fill="white" stroke="#bfbfbf" points="1446.5,-174.5 1446.5,-195.5 1495.5,-195.5 1495.5,-174.5 1446.5,-174.5"/>
<text text-anchor="middle" x="1471" y="-182.5" font-family="Helvetica,sans-Serif" font-size="10.00">stdlib.h</text>
</g>
<!-- Node1&#45;&gt;Node5 -->
<g id="edge8" class="edge"><title>Node1&#45;&gt;Node5</title>
<path fill="none" stroke="midnightblue" d="M1609.4,-232.497C1580.08,-222.437 1535.92,-207.28 1505.4,-196.807"/>
<polygon fill="midnightblue" stroke="midnightblue" points="1506.21,-193.384 1495.62,-193.448 1503.94,-200.005 1506.21,-193.384"/>
</g>
<!-- Node6 -->
<g id="node11" class="node"><title>Node6</title>
<polygon fill="white" stroke="#bfbfbf" points="1512.5,-174.5 1512.5,-195.5 1565.5,-195.5 1565.5,-174.5 1512.5,-174.5"/>
<text text-anchor="middle" x="1539" y="-182.5" font-family="Helvetica,sans-Serif" font-size="10.00">unistd.h</text>
</g>
<!-- Node1&#45;&gt;Node6 -->
<g id="edge10" class="edge"><title>Node1&#45;&gt;Node6</title>
<path fill="none" stroke="midnightblue" d="M1621.48,-232.362C1606.1,-223.532 1584,-210.844 1566.55,-200.822"/>
<polygon fill="midnightblue" stroke="midnightblue" points="1567.82,-197.515 1557.41,-195.571 1564.34,-203.586 1567.82,-197.515"/>
</g>
<!-- Node7 -->
<g id="node13" class="node"><title>Node7</title>
<polygon fill="white" stroke="#bfbfbf" points="1583,-174.5 1583,-195.5 1627,-195.5 1627,-174.5 1583,-174.5"/>
<text text-anchor="middle" x="1605" y="-182.5" font-family="Helvetica,sans-Serif" font-size="10.00">time.h</text>
</g>
<!-- Node1&#45;&gt;Node7 -->
<g id="edge12" class="edge"><title>Node1&#45;&gt;Node7</title>
<path fill="none" stroke="midnightblue" d="M1633.58,-232.362C1628.84,-224.513 1622.27,-213.616 1616.62,-204.253"/>
<polygon fill="midnightblue" stroke="midnightblue" points="1619.54,-202.324 1611.38,-195.571 1613.55,-205.941 1619.54,-202.324"/>
</g>
<!-- Node8 -->
<g id="node15" class="node"><title>Node8</title>
<polygon fill="white" stroke="#bfbfbf" points="1644.5,-174.5 1644.5,-195.5 1707.5,-195.5 1707.5,-174.5 1644.5,-174.5"/>
<text text-anchor="middle" x="1676" y="-182.5" font-family="Helvetica,sans-Serif" font-size="10.00">sys/time.h</text>
</g>
<!-- Node1&#45;&gt;Node8 -->
<g id="edge14" class="edge"><title>Node1&#45;&gt;Node8</title>
<path fill="none" stroke="midnightblue" d="M1646.6,-232.362C1651.47,-224.513 1658.24,-213.616 1664.05,-204.253"/>
<polygon fill="midnightblue" stroke="midnightblue" points="1667.14,-205.913 1669.44,-195.571 1661.19,-202.221 1667.14,-205.913"/>
</g>
<!-- Node9 -->
<g id="node17" class="node"><title>Node9</title>
<polygon fill="white" stroke="#bfbfbf" points="1725,-174.5 1725,-195.5 1787,-195.5 1787,-174.5 1725,-174.5"/>
<text text-anchor="middle" x="1756" y="-182.5" font-family="Helvetica,sans-Serif" font-size="10.00">sys/wait.h</text>
</g>
<!-- Node1&#45;&gt;Node9 -->
<g id="edge16" class="edge"><title>Node1&#45;&gt;Node9</title>
<path fill="none" stroke="midnightblue" d="M1661.01,-232.497C1679.04,-223.479 1705.27,-210.365 1725.6,-200.201"/>
<polygon fill="midnightblue" stroke="midnightblue" points="1727.38,-203.224 1734.76,-195.621 1724.25,-196.963 1727.38,-203.224"/>
</g>
<!-- Node10 -->
<g id="node19" class="node"><title>Node10</title>
<polygon fill="white" stroke="#bfbfbf" points="1804.5,-174.5 1804.5,-195.5 1873.5,-195.5 1873.5,-174.5 1804.5,-174.5"/>
<text text-anchor="middle" x="1839" y="-182.5" font-family="Helvetica,sans-Serif" font-size="10.00">sys/types.h</text>
</g>
<!-- Node1&#45;&gt;Node10 -->
<g id="edge18" class="edge"><title>Node1&#45;&gt;Node10</title>
<path fill="none" stroke="midnightblue" d="M1676.04,-232.497C1709.31,-222.799 1758.83,-208.365 1794.55,-197.956"/>
<polygon fill="midnightblue" stroke="midnightblue" points="1795.61,-201.292 1804.23,-195.134 1793.65,-194.572 1795.61,-201.292"/>
</g>
<!-- Node11 -->
<g id="node21" class="node"><title>Node11</title>
<polygon fill="white" stroke="#bfbfbf" points="1890.5,-174.5 1890.5,-195.5 1951.5,-195.5 1951.5,-174.5 1890.5,-174.5"/>
<text text-anchor="middle" x="1921" y="-182.5" font-family="Helvetica,sans-Serif" font-size="10.00">sys/stat.h</text>
</g>
<!-- Node1&#45;&gt;Node11 -->
<g id="edge20" class="edge"><title>Node1&#45;&gt;Node11</title>
<path fill="none" stroke="midnightblue" d="M1678.35,-236.566C1724.28,-228.638 1803.73,-214.219 1880.56,-196.218"/>
<polygon fill="midnightblue" stroke="midnightblue" points="1881.48,-199.598 1890.41,-193.888 1879.87,-192.786 1881.48,-199.598"/>
</g>
<!-- Node12 -->
<g id="node23" class="node"><title>Node12</title>
<polygon fill="white" stroke="#bfbfbf" points="1969,-174.5 1969,-195.5 2013,-195.5 2013,-174.5 1969,-174.5"/>
<text text-anchor="middle" x="1991" y="-182.5" font-family="Helvetica,sans-Serif" font-size="10.00">fcntl.h</text>
</g>
<!-- Node1&#45;&gt;Node12 -->
<g id="edge22" class="edge"><title>Node1&#45;&gt;Node12</title>
<path fill="none" stroke="midnightblue" d="M1678.4,-239.802C1737.11,-234.383 1852.73,-221.636 1958.89,-195.907"/>
<polygon fill="midnightblue" stroke="midnightblue" points="1959.94,-199.255 1968.81,-193.459 1958.26,-192.459 1959.94,-199.255"/>
</g>
<!-- Node13 -->
<g id="node25" class="node"><title>Node13</title>
<polygon fill="white" stroke="#bfbfbf" points="2030.5,-174.5 2030.5,-195.5 2071.5,-195.5 2071.5,-174.5 2030.5,-174.5"/>
<text text-anchor="middle" x="2051" y="-182.5" font-family="Helvetica,sans-Serif" font-size="10.00">QFile</text>
</g>
<!-- Node1&#45;&gt;Node13 -->
<g id="edge24" class="edge"><title>Node1&#45;&gt;Node13</title>
<path fill="none" stroke="midnightblue" d="M1678.23,-241.332C1745.87,-237.731 1890.98,-227.084 2020.22,-196.012"/>
<polygon fill="midnightblue" stroke="midnightblue" points="2021.4,-199.324 2030.28,-193.542 2019.74,-192.526 2021.4,-199.324"/>
</g>
<!-- Node14 -->
<g id="node27" class="node"><title>Node14</title>
<polygon fill="white" stroke="#bfbfbf" points="2088.5,-174.5 2088.5,-195.5 2159.5,-195.5 2159.5,-174.5 2088.5,-174.5"/>
<text text-anchor="middle" x="2124" y="-182.5" font-family="Helvetica,sans-Serif" font-size="10.00">QByteArray</text>
</g>
<!-- Node1&#45;&gt;Node14 -->
<g id="edge26" class="edge"><title>Node1&#45;&gt;Node14</title>
<path fill="none" stroke="midnightblue" d="M1678.21,-240.707C1753.22,-235.821 1925.1,-222.73 2078.02,-196.182"/>
<polygon fill="midnightblue" stroke="midnightblue" points="2078.83,-199.595 2088.07,-194.414 2077.61,-192.701 2078.83,-199.595"/>
</g>
<!-- Node15 -->
<g id="node29" class="node"><title>Node15</title>
<polygon fill="white" stroke="#bfbfbf" points="2177,-174.5 2177,-195.5 2235,-195.5 2235,-174.5 2177,-174.5"/>
<text text-anchor="middle" x="2206" y="-182.5" font-family="Helvetica,sans-Serif" font-size="10.00">QtDebug</text>
</g>
<!-- Node1&#45;&gt;Node15 -->
<g id="edge28" class="edge"><title>Node1&#45;&gt;Node15</title>
<path fill="none" stroke="midnightblue" d="M1678.12,-242.124C1763.95,-239.614 1978.91,-230.326 2166.63,-195.964"/>
<polygon fill="midnightblue" stroke="midnightblue" points="2167.48,-199.364 2176.68,-194.095 2166.21,-192.482 2167.48,-199.364"/>
</g>
<!-- Node16 -->
<g id="node31" class="node"><title>Node16</title>
<a xlink:href="ApplicationManager_8h.htm" target="_top" xlink:title="ApplicationManager.h">
<polygon fill="white" stroke="black" points="1004.5,-174.5 1004.5,-195.5 1123.5,-195.5 1123.5,-174.5 1004.5,-174.5"/>
<text text-anchor="middle" x="1064" y="-182.5" font-family="Helvetica,sans-Serif" font-size="10.00">ApplicationManager.h</text>
</a>
</g>
<!-- Node1&#45;&gt;Node16 -->
<g id="edge30" class="edge"><title>Node1&#45;&gt;Node16</title>
<path fill="none" stroke="midnightblue" d="M1601.76,-239.15C1506.33,-229.54 1256.54,-204.388 1133.93,-192.042"/>
<polygon fill="midnightblue" stroke="midnightblue" points="1134.2,-188.551 1123.9,-191.032 1133.5,-195.516 1134.2,-188.551"/>
</g>
<!-- Node31 -->
<g id="node72" class="node"><title>Node31</title>
<a xlink:href="ApplicationDescription_8h.htm" target="_top" xlink:title="ApplicationDescription.h">
<polygon fill="white" stroke="black" points="308,-116.5 308,-137.5 438,-137.5 438,-116.5 308,-116.5"/>
<text text-anchor="middle" x="373" y="-124.5" font-family="Helvetica,sans-Serif" font-size="10.00">ApplicationDescription.h</text>
</a>
</g>
<!-- Node1&#45;&gt;Node31 -->
<g id="edge82" class="edge"><title>Node1&#45;&gt;Node31</title>
<path fill="none" stroke="midnightblue" d="M1601.79,-242.203C1404.32,-237.995 506.598,-217.727 452,-196 425.633,-185.507 402.093,-162.221 387.709,-145.604"/>
<polygon fill="midnightblue" stroke="midnightblue" points="390.148,-143.064 381.055,-137.626 384.772,-147.548 390.148,-143.064"/>
</g>
<!-- Node37 -->
<g id="node93" class="node"><title>Node37</title>
<a xlink:href="Preferences_8h.htm" target="_top" xlink:title="Preferences.h">
<polygon fill="white" stroke="black" points="1214.5,-174.5 1214.5,-195.5 1297.5,-195.5 1297.5,-174.5 1214.5,-174.5"/>
<text text-anchor="middle" x="1256" y="-182.5" font-family="Helvetica,sans-Serif" font-size="10.00">Preferences.h</text>
</a>
</g>
<!-- Node1&#45;&gt;Node37 -->
<g id="edge112" class="edge"><title>Node1&#45;&gt;Node37</title>
<path fill="none" stroke="midnightblue" d="M1601.78,-238.59C1541.39,-231.412 1420,-216.13 1307.82,-196.237"/>
<polygon fill="midnightblue" stroke="midnightblue" points="1308.15,-192.741 1297.69,-194.423 1306.92,-199.631 1308.15,-192.741"/>
</g>
<!-- Node40 -->
<g id="node104" class="node"><title>Node40</title>
<polygon fill="white" stroke="#bfbfbf" points="2252.5,-174.5 2252.5,-195.5 2297.5,-195.5 2297.5,-174.5 2252.5,-174.5"/>
<text text-anchor="middle" x="2275" y="-182.5" font-family="Helvetica,sans-Serif" font-size="10.00">Utils.h</text>
</g>
<!-- Node1&#45;&gt;Node40 -->
<g id="edge128" class="edge"><title>Node1&#45;&gt;Node40</title>
<path fill="none" stroke="midnightblue" d="M1678.14,-241.347C1789.96,-236.297 2116.54,-220.061 2242.07,-195.912"/>
<polygon fill="midnightblue" stroke="midnightblue" points="2243.07,-199.281 2252.17,-193.857 2241.67,-192.421 2243.07,-199.281"/>
</g>
<!-- Node16&#45;&gt;Node2 -->
<g id="edge32" class="edge"><title>Node16&#45;&gt;Node2</title>
<path fill="none" stroke="midnightblue" d="M1004.46,-183.438C901.424,-179.934 694.703,-169.145 630,-138 578.737,-113.325 536.325,-58.9394 516.343,-29.9942"/>
<polygon fill="midnightblue" stroke="midnightblue" points="519.151,-27.898 510.661,-21.5602 513.345,-31.8092 519.151,-27.898"/>
</g>
<!-- Node17 -->
<g id="node34" class="node"><title>Node17</title>
<polygon fill="white" stroke="#bfbfbf" points="987,-0.5 987,-21.5 1033,-21.5 1033,-0.5 987,-0.5"/>
<text text-anchor="middle" x="1010" y="-8.5" font-family="Helvetica,sans-Serif" font-size="10.00">vector</text>
</g>
<!-- Node16&#45;&gt;Node17 -->
<g id="edge34" class="edge"><title>Node16&#45;&gt;Node17</title>
<path fill="none" stroke="midnightblue" d="M1075.45,-174.182C1103.79,-147.409 1174.92,-80.1951 1175,-80 1178.87,-71.0193 1180.89,-65.8037 1175,-58 1170.94,-52.6155 1089.96,-31.3056 1042.98,-19.313"/>
<polygon fill="midnightblue" stroke="midnightblue" points="1043.79,-15.907 1033.24,-16.8335 1042.07,-22.6909 1043.79,-15.907"/>
</g>
<!-- Node18 -->
<g id="node36" class="node"><title>Node18</title>
<polygon fill="white" stroke="#bfbfbf" points="884.5,-0.5 884.5,-21.5 927.5,-21.5 927.5,-0.5 884.5,-0.5"/>
<text text-anchor="middle" x="906" y="-8.5" font-family="Helvetica,sans-Serif" font-size="10.00">string</text>
</g>
<!-- Node16&#45;&gt;Node18 -->
<g id="edge36" class="edge"><title>Node16&#45;&gt;Node18</title>
<path fill="none" stroke="midnightblue" d="M1058.49,-174.312C1051.14,-160.395 1037.35,-135.541 1023,-116 1002.5,-88.0973 996.73,-81.1642 971,-58 958.674,-46.9036 943.749,-35.9597 931.311,-27.428"/>
<polygon fill="midnightblue" stroke="midnightblue" points="933.016,-24.3565 922.766,-21.6742 929.106,-30.1628 933.016,-24.3565"/>
</g>
<!-- Node19 -->
<g id="node38" class="node"><title>Node19</title>
<polygon fill="white" stroke="#bfbfbf" points="-0.5,-0.5 -0.5,-21.5 28.5,-21.5 28.5,-0.5 -0.5,-0.5"/>
<text text-anchor="middle" x="14" y="-8.5" font-family="Helvetica,sans-Serif" font-size="10.00">list</text>
</g>
<!-- Node16&#45;&gt;Node19 -->
<g id="edge38" class="edge"><title>Node16&#45;&gt;Node19</title>
<path fill="none" stroke="midnightblue" d="M1004.21,-184.186C874.975,-181.799 560.181,-172.612 299,-138 171.721,-121.133 98.5959,-178.298 16,-80 4.95728,-66.858 5.64547,-46.8216 8.39439,-31.72"/>
<polygon fill="midnightblue" stroke="midnightblue" points="11.8538,-32.2878 10.622,-21.7649 5.02272,-30.7593 11.8538,-32.2878"/>
</g>
<!-- Node20 -->
<g id="node40" class="node"><title>Node20</title>
<polygon fill="white" stroke="#bfbfbf" points="1067.5,-0.5 1067.5,-21.5 1104.5,-21.5 1104.5,-0.5 1067.5,-0.5"/>
<text text-anchor="middle" x="1086" y="-8.5" font-family="Helvetica,sans-Serif" font-size="10.00">map</text>
</g>
<!-- Node16&#45;&gt;Node20 -->
<g id="edge40" class="edge"><title>Node16&#45;&gt;Node20</title>
<path fill="none" stroke="midnightblue" d="M1080.82,-174.406C1102.9,-160.591 1142.98,-135.847 1178,-116 1207.75,-99.1396 1228.36,-109.296 1246,-80 1276.29,-29.6904 1168.64,-16.004 1114.83,-12.3271"/>
<polygon fill="midnightblue" stroke="midnightblue" points="1114.73,-8.81476 1104.54,-11.7009 1114.31,-15.8018 1114.73,-8.81476"/>
</g>
<!-- Node21 -->
<g id="node42" class="node"><title>Node21</title>
<polygon fill="white" stroke="#bfbfbf" points="607.5,-58.5 607.5,-79.5 638.5,-79.5 638.5,-58.5 607.5,-58.5"/>
<text text-anchor="middle" x="623" y="-66.5" font-family="Helvetica,sans-Serif" font-size="10.00">set</text>
</g>
<!-- Node16&#45;&gt;Node21 -->
<g id="edge42" class="edge"><title>Node16&#45;&gt;Node21</title>
<path fill="none" stroke="midnightblue" d="M1004.39,-181.516C897.008,-174.759 679.614,-158.7 652,-138 636.71,-126.538 629.416,-105.474 625.978,-89.6234"/>
<polygon fill="midnightblue" stroke="midnightblue" points="629.4,-88.8747 624.163,-79.6644 622.513,-90.1299 629.4,-88.8747"/>
</g>
<!-- Node22 -->
<g id="node44" class="node"><title>Node22</title>
<polygon fill="white" stroke="#bfbfbf" points="1259,-116.5 1259,-137.5 1337,-137.5 1337,-116.5 1259,-116.5"/>
<text text-anchor="middle" x="1298" y="-124.5" font-family="Helvetica,sans-Serif" font-size="10.00">lunaservice.h</text>
</g>
<!-- Node16&#45;&gt;Node22 -->
<g id="edge44" class="edge"><title>Node16&#45;&gt;Node22</title>
<path fill="none" stroke="midnightblue" d="M1106.38,-174.497C1146.49,-164.554 1206.69,-149.632 1248.88,-139.174"/>
<polygon fill="midnightblue" stroke="midnightblue" points="1249.8,-142.553 1258.67,-136.75 1248.12,-135.758 1249.8,-142.553"/>
</g>
<!-- Node23 -->
<g id="node46" class="node"><title>Node23</title>
<polygon fill="white" stroke="#bfbfbf" points="1113.5,-58.5 1113.5,-79.5 1166.5,-79.5 1166.5,-58.5 1113.5,-58.5"/>
<text text-anchor="middle" x="1140" y="-66.5" font-family="Helvetica,sans-Serif" font-size="10.00">Mutex.h</text>
</g>
<!-- Node16&#45;&gt;Node23 -->
<g id="edge46" class="edge"><title>Node16&#45;&gt;Node23</title>
<path fill="none" stroke="midnightblue" d="M1070.52,-174.127C1078.8,-160.433 1093.6,-136.244 1107,-116 1113.21,-106.621 1120.35,-96.3811 1126.4,-87.8603"/>
<polygon fill="midnightblue" stroke="midnightblue" points="1129.26,-89.8822 1132.23,-79.7113 1123.57,-85.812 1129.26,-89.8822"/>
</g>
<!-- Node24 -->
<g id="node48" class="node"><title>Node24</title>
<a xlink:href="MimeSystem_8h.htm" target="_top" xlink:title="MimeSystem.h">
<polygon fill="white" stroke="black" points="929.5,-116.5 929.5,-137.5 1014.5,-137.5 1014.5,-116.5 929.5,-116.5"/>
<text text-anchor="middle" x="972" y="-124.5" font-family="Helvetica,sans-Serif" font-size="10.00">MimeSystem.h</text>
</a>
</g>
<!-- Node16&#45;&gt;Node24 -->
<g id="edge48" class="edge"><title>Node16&#45;&gt;Node24</title>
<path fill="none" stroke="midnightblue" d="M1047.13,-174.362C1033.25,-165.614 1013.37,-153.079 997.54,-143.101"/>
<polygon fill="midnightblue" stroke="midnightblue" points="999.093,-139.943 988.767,-137.571 995.36,-145.864 999.093,-139.943"/>
</g>
<!-- Node29 -->
<g id="node68" class="node"><title>Node29</title>
<polygon fill="white" stroke="#bfbfbf" points="1186.5,-116.5 1186.5,-137.5 1241.5,-137.5 1241.5,-116.5 1186.5,-116.5"/>
<text text-anchor="middle" x="1214" y="-124.5" font-family="Helvetica,sans-Serif" font-size="10.00">QObject</text>
</g>
<!-- Node16&#45;&gt;Node29 -->
<g id="edge78" class="edge"><title>Node16&#45;&gt;Node29</title>
<path fill="none" stroke="midnightblue" d="M1091.16,-174.497C1115.3,-165.164 1150.78,-151.445 1177.41,-141.147"/>
<polygon fill="midnightblue" stroke="midnightblue" points="1178.72,-144.394 1186.79,-137.523 1176.2,-137.865 1178.72,-144.394"/>
</g>
<!-- Node30 -->
<g id="node70" class="node"><title>Node30</title>
<polygon fill="white" stroke="#bfbfbf" points="494,-116.5 494,-137.5 556,-137.5 556,-116.5 494,-116.5"/>
<text text-anchor="middle" x="525" y="-124.5" font-family="Helvetica,sans-Serif" font-size="10.00">QBitArray</text>
</g>
<!-- Node16&#45;&gt;Node30 -->
<g id="edge80" class="edge"><title>Node16&#45;&gt;Node30</title>
<path fill="none" stroke="midnightblue" d="M1004.32,-182.119C911.093,-176.99 725.455,-164.253 570,-138 568.751,-137.789 567.485,-137.562 566.21,-137.323"/>
<polygon fill="midnightblue" stroke="midnightblue" points="566.853,-133.882 556.351,-135.278 565.431,-140.736 566.853,-133.882"/>
</g>
<!-- Node24&#45;&gt;Node2 -->
<g id="edge50" class="edge"><title>Node24&#45;&gt;Node2</title>
<path fill="none" stroke="midnightblue" d="M929.197,-122.693C878.818,-116.769 793.134,-104.002 723,-80 702.689,-73.0491 700.038,-65.7014 680,-58 636.204,-41.1676 584.062,-28.0601 547.955,-20.0132"/>
<polygon fill="midnightblue" stroke="midnightblue" points="548.272,-16.4997 537.754,-17.7794 546.774,-23.3377 548.272,-16.4997"/>
</g>
<!-- Node24&#45;&gt;Node17 -->
<g id="edge54" class="edge"><title>Node24&#45;&gt;Node17</title>
<path fill="none" stroke="midnightblue" d="M975.507,-116.295C981.813,-97.0451 995.164,-56.2889 1003.28,-31.5091"/>
<polygon fill="midnightblue" stroke="midnightblue" points="1006.71,-32.2719 1006.5,-21.6792 1000.06,-30.0927 1006.71,-32.2719"/>
</g>
<!-- Node24&#45;&gt;Node18 -->
<g id="edge52" class="edge"><title>Node24&#45;&gt;Node18</title>
<path fill="none" stroke="midnightblue" d="M970.748,-116.048C968.744,-101.847 963.874,-76.6857 953,-58 946.446,-46.7376 936.529,-36.2661 927.491,-28.0791"/>
<polygon fill="midnightblue" stroke="midnightblue" points="929.739,-25.3955 919.882,-21.5101 925.164,-30.6942 929.739,-25.3955"/>
</g>
<!-- Node24&#45;&gt;Node20 -->
<g id="edge56" class="edge"><title>Node24&#45;&gt;Node20</title>
<path fill="none" stroke="midnightblue" d="M982.521,-116.295C1002.12,-96.3545 1044.39,-53.337 1068.4,-28.9056"/>
<polygon fill="midnightblue" stroke="midnightblue" points="1070.99,-31.2648 1075.5,-21.6792 1066,-26.3582 1070.99,-31.2648"/>
</g>
<!-- Node24&#45;&gt;Node21 -->
<g id="edge58" class="edge"><title>Node24&#45;&gt;Node21</title>
<path fill="none" stroke="midnightblue" d="M929.206,-119.888C855.867,-107.7 708.324,-83.1798 648.786,-73.2853"/>
<polygon fill="midnightblue" stroke="midnightblue" points="649.169,-69.8011 638.731,-71.6143 648.022,-76.7064 649.169,-69.8011"/>
</g>
<!-- Node24&#45;&gt;Node23 -->
<g id="edge62" class="edge"><title>Node24&#45;&gt;Node23</title>
<path fill="none" stroke="midnightblue" d="M1002.42,-116.497C1030.88,-106.671 1073.42,-91.9846 1103.66,-81.5471"/>
<polygon fill="midnightblue" stroke="midnightblue" points="1105.09,-84.7553 1113.4,-78.1835 1102.8,-78.1386 1105.09,-84.7553"/>
</g>
<!-- Node25 -->
<g id="node55" class="node"><title>Node25</title>
<polygon fill="white" stroke="#bfbfbf" points="884,-58.5 884,-79.5 944,-79.5 944,-58.5 884,-58.5"/>
<text text-anchor="middle" x="914" y="-66.5" font-family="Helvetica,sans-Serif" font-size="10.00">algorithm</text>
</g>
<!-- Node24&#45;&gt;Node25 -->
<g id="edge60" class="edge"><title>Node24&#45;&gt;Node25</title>
<path fill="none" stroke="midnightblue" d="M961.362,-116.362C953.104,-108.104 941.472,-96.4725 931.803,-86.8029"/>
<polygon fill="midnightblue" stroke="midnightblue" points="934.117,-84.1669 924.571,-79.5707 929.167,-89.1166 934.117,-84.1669"/>
</g>
<!-- Node26 -->
<g id="node58" class="node"><title>Node26</title>
<a xlink:href="CmdResourceHandlers_8h.htm" target="_top" xlink:title="CmdResourceHandlers.h">
<polygon fill="white" stroke="black" points="732,-58.5 732,-79.5 866,-79.5 866,-58.5 732,-58.5"/>
<text text-anchor="middle" x="799" y="-66.5" font-family="Helvetica,sans-Serif" font-size="10.00">CmdResourceHandlers.h</text>
</a>
</g>
<!-- Node24&#45;&gt;Node26 -->
<g id="edge64" class="edge"><title>Node24&#45;&gt;Node26</title>
<path fill="none" stroke="midnightblue" d="M940.671,-116.497C912.467,-107.041 870.833,-93.0829 839.991,-82.7428"/>
<polygon fill="midnightblue" stroke="midnightblue" points="840.982,-79.3834 830.388,-79.5231 838.757,-86.0203 840.982,-79.3834"/>
</g>
<!-- Node26&#45;&gt;Node2 -->
<g id="edge66" class="edge"><title>Node26&#45;&gt;Node2</title>
<path fill="none" stroke="midnightblue" d="M745.578,-58.4966C688.918,-47.3567 600.47,-29.9671 547.779,-19.6073"/>
<polygon fill="midnightblue" stroke="midnightblue" points="548.224,-16.128 537.737,-17.633 546.874,-22.9965 548.224,-16.128"/>
</g>
<!-- Node26&#45;&gt;Node17 -->
<g id="edge74" class="edge"><title>Node26&#45;&gt;Node17</title>
<path fill="none" stroke="midnightblue" d="M837.211,-58.4966C877.049,-47.5457 938.859,-30.5553 976.747,-20.1405"/>
<polygon fill="midnightblue" stroke="midnightblue" points="978.047,-23.4133 986.761,-17.3879 976.191,-16.6637 978.047,-23.4133"/>
</g>
<!-- Node26&#45;&gt;Node18 -->
<g id="edge72" class="edge"><title>Node26&#45;&gt;Node18</title>
<path fill="none" stroke="midnightblue" d="M818.625,-58.3619C835.141,-49.4094 858.974,-36.4908 877.578,-26.4064"/>
<polygon fill="midnightblue" stroke="midnightblue" points="879.375,-29.4132 886.499,-21.5707 876.04,-23.2592 879.375,-29.4132"/>
</g>
<!-- Node26&#45;&gt;Node20 -->
<g id="edge76" class="edge"><title>Node26&#45;&gt;Node20</title>
<path fill="none" stroke="midnightblue" d="M858.107,-58.489C907.428,-49.4979 979.491,-35.8481 1042,-22 1046.93,-20.9079 1052.15,-19.6727 1057.21,-18.4347"/>
<polygon fill="midnightblue" stroke="midnightblue" points="1058.36,-21.7548 1067.21,-15.9343 1056.66,-14.9637 1058.36,-21.7548"/>
</g>
<!-- Node27 -->
<g id="node61" class="node"><title>Node27</title>
<polygon fill="white" stroke="#bfbfbf" points="773,-0.5 773,-21.5 825,-21.5 825,-0.5 773,-0.5"/>
<text text-anchor="middle" x="799" y="-8.5" font-family="Helvetica,sans-Serif" font-size="10.00">regex.h</text>
</g>
<!-- Node26&#45;&gt;Node27 -->
<g id="edge68" class="edge"><title>Node26&#45;&gt;Node27</title>
<path fill="none" stroke="midnightblue" d="M799,-58.3619C799,-50.9219 799,-40.7427 799,-31.7276"/>
<polygon fill="midnightblue" stroke="midnightblue" points="802.5,-31.5706 799,-21.5707 795.5,-31.5707 802.5,-31.5706"/>
</g>
<!-- Node28 -->
<g id="node63" class="node"><title>Node28</title>
<polygon fill="white" stroke="#bfbfbf" points="630,-0.5 630,-21.5 680,-21.5 680,-0.5 630,-0.5"/>
<text text-anchor="middle" x="655" y="-8.5" font-family="Helvetica,sans-Serif" font-size="10.00">stdint.h</text>
</g>
<!-- Node26&#45;&gt;Node28 -->
<g id="edge70" class="edge"><title>Node26&#45;&gt;Node28</title>
<path fill="none" stroke="midnightblue" d="M772.923,-58.4966C749.638,-49.118 715.355,-35.3096 689.748,-24.9958"/>
<polygon fill="midnightblue" stroke="midnightblue" points="690.983,-21.7201 680.4,-21.2305 688.368,-28.2132 690.983,-21.7201"/>
</g>
<!-- Node31&#45;&gt;Node2 -->
<g id="edge84" class="edge"><title>Node31&#45;&gt;Node2</title>
<path fill="none" stroke="midnightblue" d="M385.089,-116.295C407.706,-96.2682 456.61,-52.9641 484.136,-28.5893"/>
<polygon fill="midnightblue" stroke="midnightblue" points="486.773,-30.929 491.94,-21.6792 482.133,-25.6883 486.773,-30.929"/>
</g>
<!-- Node31&#45;&gt;Node18 -->
<g id="edge86" class="edge"><title>Node31&#45;&gt;Node18</title>
<path fill="none" stroke="midnightblue" d="M408.352,-116.48C439.994,-107.032 487.637,-92.7303 529,-80 560.169,-70.4072 567.234,-65.3779 599,-58 599.841,-57.8048 795.939,-27.8231 874.247,-15.8533"/>
<polygon fill="midnightblue" stroke="midnightblue" points="875.125,-19.2597 884.482,-14.2888 874.068,-12.3401 875.125,-19.2597"/>
</g>
<!-- Node31&#45;&gt;Node19 -->
<g id="edge92" class="edge"><title>Node31&#45;&gt;Node19</title>
<path fill="none" stroke="midnightblue" d="M307.773,-121.838C214.844,-113.91 53.2766,-97.7742 33,-80 19.4666,-68.1368 15.1651,-47.6093 13.9812,-32.0196"/>
<polygon fill="midnightblue" stroke="midnightblue" points="17.4673,-31.592 13.5826,-21.7351 10.4726,-31.8632 17.4673,-31.592"/>
</g>
<!-- Node31&#45;&gt;Node21 -->
<g id="edge90" class="edge"><title>Node31&#45;&gt;Node21</title>
<path fill="none" stroke="midnightblue" d="M435.077,-116.428C479.722,-108.189 541.127,-95.5507 594,-80 595.25,-79.6325 596.522,-79.2363 597.801,-78.82"/>
<polygon fill="midnightblue" stroke="midnightblue" points="599.242,-82.0227 607.497,-75.3813 596.902,-75.4254 599.242,-82.0227"/>
</g>
<!-- Node31&#45;&gt;Node26 -->
<g id="edge108" class="edge"><title>Node31&#45;&gt;Node26</title>
<path fill="none" stroke="midnightblue" d="M438.164,-118.128C514.383,-107.751 640.438,-90.5882 721.576,-79.5413"/>
<polygon fill="midnightblue" stroke="midnightblue" points="722.297,-82.9755 731.733,-78.1584 721.352,-76.0395 722.297,-82.9755"/>
</g>
<!-- Node31&#45;&gt;Node28 -->
<g id="edge88" class="edge"><title>Node31&#45;&gt;Node28</title>
<path fill="none" stroke="midnightblue" d="M399.024,-116.295C450.066,-95.2989 563.307,-48.7179 620.508,-25.188"/>
<polygon fill="midnightblue" stroke="midnightblue" points="621.934,-28.3863 629.85,-21.3452 619.271,-21.9126 621.934,-28.3863"/>
</g>
<!-- Node32 -->
<g id="node79" class="node"><title>Node32</title>
<a xlink:href="LaunchPoint_8h.htm" target="_top" xlink:title="LaunchPoint.h">
<polygon fill="white" stroke="black" points="41.5,-58.5 41.5,-79.5 124.5,-79.5 124.5,-58.5 41.5,-58.5"/>
<text text-anchor="middle" x="83" y="-66.5" font-family="Helvetica,sans-Serif" font-size="10.00">LaunchPoint.h</text>
</a>
</g>
<!-- Node31&#45;&gt;Node32 -->
<g id="edge94" class="edge"><title>Node31&#45;&gt;Node32</title>
<path fill="none" stroke="midnightblue" d="M317.157,-116.444C270.751,-107.585 202.721,-94.3996 134.752,-80.3364"/>
<polygon fill="midnightblue" stroke="midnightblue" points="135.229,-76.8609 124.726,-78.2555 133.806,-83.7149 135.229,-76.8609"/>
</g>
<!-- Node35 -->
<g id="node88" class="node"><title>Node35</title>
<polygon fill="white" stroke="#bfbfbf" points="141.5,-58.5 141.5,-79.5 228.5,-79.5 228.5,-58.5 141.5,-58.5"/>
<text text-anchor="middle" x="185" y="-66.5" font-family="Helvetica,sans-Serif" font-size="10.00">KeywordMap.h</text>
</g>
<!-- Node31&#45;&gt;Node35 -->
<g id="edge106" class="edge"><title>Node31&#45;&gt;Node35</title>
<path fill="none" stroke="midnightblue" d="M338.955,-116.497C308.04,-106.959 262.277,-92.8408 228.678,-82.475"/>
<polygon fill="midnightblue" stroke="midnightblue" points="229.697,-79.1267 219.109,-79.5231 227.633,-85.8156 229.697,-79.1267"/>
</g>
<!-- Node36 -->
<g id="node91" class="node"><title>Node36</title>
<polygon fill="white" stroke="#bfbfbf" points="246,-58.5 246,-79.5 400,-79.5 400,-58.5 246,-58.5"/>
<text text-anchor="middle" x="323" y="-66.5" font-family="Helvetica,sans-Serif" font-size="10.00">ApplicationDescriptionBase.h</text>
</g>
<!-- Node31&#45;&gt;Node36 -->
<g id="edge110" class="edge"><title>Node31&#45;&gt;Node36</title>
<path fill="none" stroke="midnightblue" d="M363.829,-116.362C356.852,-108.268 347.079,-96.9318 338.844,-87.3796"/>
<polygon fill="midnightblue" stroke="midnightblue" points="341.293,-84.8595 332.113,-79.5707 335.991,-89.4301 341.293,-84.8595"/>
</g>
<!-- Node32&#45;&gt;Node2 -->
<g id="edge96" class="edge"><title>Node32&#45;&gt;Node2</title>
<path fill="none" stroke="midnightblue" d="M124.686,-59.5332C127.494,-58.9868 130.285,-58.4696 133,-58 250.594,-37.659 390.589,-22.2974 460.19,-15.2515"/>
<polygon fill="midnightblue" stroke="midnightblue" points="460.74,-18.7141 470.34,-14.2326 460.04,-11.7491 460.74,-18.7141"/>
</g>
<!-- Node32&#45;&gt;Node18 -->
<g id="edge98" class="edge"><title>Node32&#45;&gt;Node18</title>
<path fill="none" stroke="midnightblue" d="M124.65,-59.2975C127.467,-58.808 130.269,-58.3679 133,-58 442.172,-16.3431 523.638,-53.5971 834,-22 847.268,-20.6492 861.824,-18.5444 874.355,-16.5361"/>
<polygon fill="midnightblue" stroke="midnightblue" points="875.035,-19.9713 884.332,-14.8905 873.896,-13.0646 875.035,-19.9713"/>
</g>
<!-- Node32&#45;&gt;Node19 -->
<g id="edge100" class="edge"><title>Node32&#45;&gt;Node19</title>
<path fill="none" stroke="midnightblue" d="M70.3443,-58.3619C60.3261,-49.9408 46.1332,-38.0105 34.4987,-28.2308"/>
<polygon fill="midnightblue" stroke="midnightblue" points="36.4824,-25.326 26.5754,-21.5707 31.9782,-30.6844 36.4824,-25.326"/>
</g>
<!-- Node33 -->
<g id="node84" class="node"><title>Node33</title>
<polygon fill="white" stroke="#bfbfbf" points="49.5,-0.5 49.5,-21.5 108.5,-21.5 108.5,-0.5 49.5,-0.5"/>
<text text-anchor="middle" x="79" y="-8.5" font-family="Helvetica,sans-Serif" font-size="10.00">QPixmap</text>
</g>
<!-- Node32&#45;&gt;Node33 -->
<g id="edge102" class="edge"><title>Node32&#45;&gt;Node33</title>
<path fill="none" stroke="midnightblue" d="M82.2663,-58.3619C81.7532,-50.9219 81.0512,-40.7427 80.4295,-31.7276"/>
<polygon fill="midnightblue" stroke="midnightblue" points="83.9088,-31.3061 79.729,-21.5707 76.9254,-31.7878 83.9088,-31.3061"/>
</g>
<!-- Node34 -->
<g id="node86" class="node"><title>Node34</title>
<polygon fill="white" stroke="#bfbfbf" points="125.5,-0.5 125.5,-21.5 166.5,-21.5 166.5,-0.5 125.5,-0.5"/>
<text text-anchor="middle" x="146" y="-8.5" font-family="Helvetica,sans-Serif" font-size="10.00">glib.h</text>
</g>
<!-- Node32&#45;&gt;Node34 -->
<g id="edge104" class="edge"><title>Node32&#45;&gt;Node34</title>
<path fill="none" stroke="midnightblue" d="M94.5552,-58.3619C103.613,-50.0226 116.41,-38.2418 126.974,-28.5162"/>
<polygon fill="midnightblue" stroke="midnightblue" points="129.532,-30.9187 134.518,-21.5707 124.79,-25.7688 129.532,-30.9187"/>
</g>
<!-- Node37&#45;&gt;Node2 -->
<g id="edge114" class="edge"><title>Node37&#45;&gt;Node2</title>
<path fill="none" stroke="midnightblue" d="M1214.27,-180.461C1150.68,-173.249 1025.86,-157.926 921,-138 812.767,-117.434 780.947,-124.125 680,-80 663.848,-72.9399 662.851,-65.7112 647,-58 614.943,-42.4046 576.445,-30.0841 547.473,-21.9767"/>
<polygon fill="midnightblue" stroke="midnightblue" points="548.218,-18.5519 537.649,-19.2862 546.369,-25.3033 548.218,-18.5519"/>
</g>
<!-- Node37&#45;&gt;Node18 -->
<g id="edge118" class="edge"><title>Node37&#45;&gt;Node18</title>
<path fill="none" stroke="midnightblue" d="M1297.62,-175.304C1335.64,-164.414 1382.97,-144.461 1362,-116 1310.38,-45.9463 1259.59,-78.419 1175,-58 1130.33,-47.2168 999.055,-25.8128 937.958,-16.0572"/>
<polygon fill="midnightblue" stroke="midnightblue" points="938.172,-12.5473 927.746,-14.4308 937.071,-19.4601 938.172,-12.5473"/>
</g>
<!-- Node37&#45;&gt;Node22 -->
<g id="edge120" class="edge"><title>Node37&#45;&gt;Node22</title>
<path fill="none" stroke="midnightblue" d="M1263.7,-174.362C1269.45,-166.431 1277.44,-155.389 1284.27,-145.961"/>
<polygon fill="midnightblue" stroke="midnightblue" points="1287.32,-147.723 1290.35,-137.571 1281.65,-143.617 1287.32,-147.723"/>
</g>
<!-- Node37&#45;&gt;Node23 -->
<g id="edge122" class="edge"><title>Node37&#45;&gt;Node23</title>
<path fill="none" stroke="midnightblue" d="M1290.37,-174.41C1323.63,-162.384 1366.27,-141.135 1346,-116 1298.61,-57.2333 1253.31,-98.0155 1180,-80 1178.92,-79.7336 1177.82,-79.4591 1176.71,-79.1785"/>
<polygon fill="midnightblue" stroke="midnightblue" points="1177.19,-75.6863 1166.63,-76.541 1175.42,-82.4584 1177.19,-75.6863"/>
</g>
<!-- Node37&#45;&gt;Node29 -->
<g id="edge126" class="edge"><title>Node37&#45;&gt;Node29</title>
<path fill="none" stroke="midnightblue" d="M1248.3,-174.362C1242.55,-166.431 1234.56,-155.389 1227.73,-145.961"/>
<polygon fill="midnightblue" stroke="midnightblue" points="1230.35,-143.617 1221.65,-137.571 1224.68,-147.723 1230.35,-143.617"/>
</g>
<!-- Node38 -->
<g id="node96" class="node"><title>Node38</title>
<polygon fill="white" stroke="#bfbfbf" points="1431,-116.5 1431,-137.5 1545,-137.5 1545,-116.5 1431,-116.5"/>
<text text-anchor="middle" x="1488" y="-124.5" font-family="Helvetica,sans-Serif" font-size="10.00">LocalePreferences.h</text>
</g>
<!-- Node37&#45;&gt;Node38 -->
<g id="edge116" class="edge"><title>Node37&#45;&gt;Node38</title>
<path fill="none" stroke="midnightblue" d="M1297.74,-174.564C1336.51,-164.872 1394.37,-150.407 1436.1,-139.975"/>
<polygon fill="midnightblue" stroke="midnightblue" points="1436.95,-143.369 1445.81,-137.548 1435.26,-136.578 1436.95,-143.369"/>
</g>
<!-- Node39 -->
<g id="node101" class="node"><title>Node39</title>
<polygon fill="white" stroke="#bfbfbf" points="1563,-116.5 1563,-137.5 1655,-137.5 1655,-116.5 1563,-116.5"/>
<text text-anchor="middle" x="1609" y="-124.5" font-family="Helvetica,sans-Serif" font-size="10.00">CustomEvents.h</text>
</g>
<!-- Node37&#45;&gt;Node39 -->
<g id="edge124" class="edge"><title>Node37&#45;&gt;Node39</title>
<path fill="none" stroke="midnightblue" d="M1297.7,-175.59C1300.5,-175.03 1303.29,-174.494 1306,-174 1412.47,-154.587 1442.55,-156.782 1552.96,-138.108"/>
<polygon fill="midnightblue" stroke="midnightblue" points="1553.55,-141.558 1562.82,-136.421 1552.37,-134.658 1553.55,-141.558"/>
</g>
</g>
</svg>
