<?xml version="1.0" encoding="UTF-8" standalone="no"?>
<!DOCTYPE svg PUBLIC "-//W3C//DTD SVG 1.1//EN"
 "http://www.w3.org/Graphics/SVG/1.1/DTD/svg11.dtd">
<!-- Generated by graphviz version 2.26.3 (20100126.1600)
 -->
<!-- Title: MemoryMonitor.cpp Pages: 1 -->
<svg width="733pt" height="146pt"
 viewBox="0.00 0.00 733.35 146.00" xmlns="http://www.w3.org/2000/svg" xmlns:xlink="http://www.w3.org/1999/xlink">
<g id="graph1" class="graph" transform="scale(1 1) rotate(0) translate(4 142)">
<title>MemoryMonitor.cpp</title>
<polygon fill="white" stroke="white" points="-4,5 -4,-142 730.349,-142 730.349,5 -4,5"/>
<!-- Node1 -->
<g id="node1" class="node"><title>Node1</title>
<polygon fill="#bfbfbf" stroke="black" points="256.349,-116.5 256.349,-137.5 366.349,-137.5 366.349,-116.5 256.349,-116.5"/>
<text text-anchor="middle" x="311.349" y="-124.5" font-family="Helvetica,sans-Serif" font-size="10.00">MemoryMonitor.cpp</text>
</g>
<!-- Node2 -->
<g id="node3" class="node"><title>Node2</title>
<polygon fill="white" stroke="#bfbfbf" points="80.8488,-0.5 80.8488,-21.5 147.849,-21.5 147.849,-0.5 80.8488,-0.5"/>
<text text-anchor="middle" x="114.349" y="-8.5" font-family="Helvetica,sans-Serif" font-size="10.00">Common.h</text>
</g>
<!-- Node1&#45;&gt;Node2 -->
<g id="edge2" class="edge"><title>Node1&#45;&gt;Node2</title>
<path fill="none" stroke="midnightblue" d="M256.009,-122.346C172.529,-114.759 22.3719,-98.6814 6.34877,-80 -16.9538,-52.8315 31.6758,-32.5616 71.0365,-21.2484"/>
<polygon fill="midnightblue" stroke="midnightblue" points="72.0795,-24.5916 80.7943,-18.5664 70.2243,-17.8419 72.0795,-24.5916"/>
</g>
<!-- Node3 -->
<g id="node5" class="node"><title>Node3</title>
<polygon fill="white" stroke="#bfbfbf" points="14.8488,-58.5 14.8488,-79.5 83.8488,-79.5 83.8488,-58.5 14.8488,-58.5"/>
<text text-anchor="middle" x="49.3488" y="-66.5" font-family="Helvetica,sans-Serif" font-size="10.00">sys/types.h</text>
</g>
<!-- Node1&#45;&gt;Node3 -->
<g id="edge4" class="edge"><title>Node1&#45;&gt;Node3</title>
<path fill="none" stroke="midnightblue" d="M259.45,-116.457C217.252,-107.75 155.935,-94.7933 93.9971,-80.3349"/>
<polygon fill="midnightblue" stroke="midnightblue" points="94.5891,-76.8788 84.054,-78.0019 92.99,-83.6937 94.5891,-76.8788"/>
</g>
<!-- Node4 -->
<g id="node7" class="node"><title>Node4</title>
<polygon fill="white" stroke="#bfbfbf" points="100.849,-58.5 100.849,-79.5 161.849,-79.5 161.849,-58.5 100.849,-58.5"/>
<text text-anchor="middle" x="131.349" y="-66.5" font-family="Helvetica,sans-Serif" font-size="10.00">sys/stat.h</text>
</g>
<!-- Node1&#45;&gt;Node4 -->
<g id="edge6" class="edge"><title>Node1&#45;&gt;Node4</title>
<path fill="none" stroke="midnightblue" d="M278.752,-116.497C248.638,-106.793 203.807,-92.3475 171.497,-81.9367"/>
<polygon fill="midnightblue" stroke="midnightblue" points="172.494,-78.5807 161.902,-78.8451 170.347,-85.2434 172.494,-78.5807"/>
</g>
<!-- Node5 -->
<g id="node9" class="node"><title>Node5</title>
<polygon fill="white" stroke="#bfbfbf" points="178.849,-58.5 178.849,-79.5 231.849,-79.5 231.849,-58.5 178.849,-58.5"/>
<text text-anchor="middle" x="205.349" y="-66.5" font-family="Helvetica,sans-Serif" font-size="10.00">unistd.h</text>
</g>
<!-- Node1&#45;&gt;Node5 -->
<g id="edge8" class="edge"><title>Node1&#45;&gt;Node5</title>
<path fill="none" stroke="midnightblue" d="M291.907,-116.362C275.545,-107.409 251.935,-94.4908 233.505,-84.4064"/>
<polygon fill="midnightblue" stroke="midnightblue" points="235.12,-81.3004 224.668,-79.5707 231.76,-87.4412 235.12,-81.3004"/>
</g>
<!-- Node6 -->
<g id="node11" class="node"><title>Node6</title>
<polygon fill="white" stroke="#bfbfbf" points="249.349,-58.5 249.349,-79.5 301.349,-79.5 301.349,-58.5 249.349,-58.5"/>
<text text-anchor="middle" x="275.349" y="-66.5" font-family="Helvetica,sans-Serif" font-size="10.00">fstream</text>
</g>
<!-- Node1&#45;&gt;Node6 -->
<g id="edge10" class="edge"><title>Node1&#45;&gt;Node6</title>
<path fill="none" stroke="midnightblue" d="M304.746,-116.362C299.874,-108.513 293.11,-97.6159 287.299,-88.2527"/>
<polygon fill="midnightblue" stroke="midnightblue" points="290.157,-86.2213 281.91,-79.5707 284.21,-89.9129 290.157,-86.2213"/>
</g>
<!-- Node7 -->
<g id="node13" class="node"><title>Node7</title>
<polygon fill="white" stroke="#bfbfbf" points="319.349,-58.5 319.349,-79.5 375.349,-79.5 375.349,-58.5 319.349,-58.5"/>
<text text-anchor="middle" x="347.349" y="-66.5" font-family="Helvetica,sans-Serif" font-size="10.00">strings.h</text>
</g>
<!-- Node1&#45;&gt;Node7 -->
<g id="edge12" class="edge"><title>Node1&#45;&gt;Node7</title>
<path fill="none" stroke="midnightblue" d="M317.952,-116.362C322.823,-108.513 329.587,-97.6159 335.399,-88.2527"/>
<polygon fill="midnightblue" stroke="midnightblue" points="338.488,-89.9129 340.788,-79.5707 332.54,-86.2213 338.488,-89.9129"/>
</g>
<!-- Node8 -->
<g id="node15" class="node"><title>Node8</title>
<a xlink:href="MemoryMonitor_8h.htm" target="_top" xlink:title="MemoryMonitor.h">
<polygon fill="white" stroke="black" points="392.849,-58.5 392.849,-79.5 491.849,-79.5 491.849,-58.5 392.849,-58.5"/>
<text text-anchor="middle" x="442.349" y="-66.5" font-family="Helvetica,sans-Serif" font-size="10.00">MemoryMonitor.h</text>
</a>
</g>
<!-- Node1&#45;&gt;Node8 -->
<g id="edge14" class="edge"><title>Node1&#45;&gt;Node8</title>
<path fill="none" stroke="midnightblue" d="M335.072,-116.497C355.717,-107.356 385.865,-94.0082 408.948,-83.7883"/>
<polygon fill="midnightblue" stroke="midnightblue" points="410.633,-86.8701 418.359,-79.6212 407.799,-80.4694 410.633,-86.8701"/>
</g>
<!-- Node14 -->
<g id="node28" class="node"><title>Node14</title>
<polygon fill="white" stroke="#bfbfbf" points="508.849,-58.5 508.849,-79.5 571.849,-79.5 571.849,-58.5 508.849,-58.5"/>
<text text-anchor="middle" x="540.349" y="-66.5" font-family="Helvetica,sans-Serif" font-size="10.00">Settings.h</text>
</g>
<!-- Node1&#45;&gt;Node14 -->
<g id="edge28" class="edge"><title>Node1&#45;&gt;Node14</title>
<path fill="none" stroke="midnightblue" d="M354.966,-116.476C391.15,-107.673 444.199,-94.6012 498.668,-80.4054"/>
<polygon fill="midnightblue" stroke="midnightblue" points="499.702,-83.7529 508.491,-77.8369 497.931,-76.9805 499.702,-83.7529"/>
</g>
<!-- Node15 -->
<g id="node30" class="node"><title>Node15</title>
<polygon fill="white" stroke="#bfbfbf" points="589.349,-58.5 589.349,-79.5 637.349,-79.5 637.349,-58.5 589.349,-58.5"/>
<text text-anchor="middle" x="613.349" y="-66.5" font-family="Helvetica,sans-Serif" font-size="10.00">Time.h</text>
</g>
<!-- Node1&#45;&gt;Node15 -->
<g id="edge30" class="edge"><title>Node1&#45;&gt;Node15</title>
<path fill="none" stroke="midnightblue" d="M366.464,-119.82C418.95,-112.433 500.256,-99.5672 579.206,-80.0145"/>
<polygon fill="midnightblue" stroke="midnightblue" points="580.477,-83.3037 589.321,-77.4689 578.769,-76.5154 580.477,-83.3037"/>
</g>
<!-- Node16 -->
<g id="node32" class="node"><title>Node16</title>
<polygon fill="white" stroke="#bfbfbf" points="654.849,-58.5 654.849,-79.5 725.849,-79.5 725.849,-58.5 654.849,-58.5"/>
<text text-anchor="middle" x="690.349" y="-66.5" font-family="Helvetica,sans-Serif" font-size="10.00">HostBase.h</text>
</g>
<!-- Node1&#45;&gt;Node16 -->
<g id="edge32" class="edge"><title>Node1&#45;&gt;Node16</title>
<path fill="none" stroke="midnightblue" d="M366.481,-121.074C431.033,-113.733 541.328,-99.9383 644.445,-80.2405"/>
<polygon fill="midnightblue" stroke="midnightblue" points="645.246,-83.6505 654.4,-78.3158 643.917,-76.7778 645.246,-83.6505"/>
</g>
<!-- Node8&#45;&gt;Node2 -->
<g id="edge16" class="edge"><title>Node8&#45;&gt;Node2</title>
<path fill="none" stroke="midnightblue" d="M392.684,-59.5298C389.865,-59.0081 387.071,-58.4951 384.349,-58 304.695,-43.5146 211.645,-27.5212 158.198,-18.4239"/>
<polygon fill="midnightblue" stroke="midnightblue" points="158.497,-14.9247 148.052,-16.6989 157.324,-21.8257 158.497,-14.9247"/>
</g>
<!-- Node9 -->
<g id="node18" class="node"><title>Node9</title>
<polygon fill="white" stroke="#bfbfbf" points="293.349,-0.5 293.349,-21.5 343.349,-21.5 343.349,-0.5 293.349,-0.5"/>
<text text-anchor="middle" x="318.349" y="-8.5" font-family="Helvetica,sans-Serif" font-size="10.00">stdint.h</text>
</g>
<!-- Node8&#45;&gt;Node9 -->
<g id="edge18" class="edge"><title>Node8&#45;&gt;Node9</title>
<path fill="none" stroke="midnightblue" d="M419.893,-58.4966C400.439,-49.397 372.069,-36.1273 350.258,-25.9253"/>
<polygon fill="midnightblue" stroke="midnightblue" points="351.597,-22.6878 341.056,-21.6212 348.631,-29.0285 351.597,-22.6878"/>
</g>
<!-- Node10 -->
<g id="node20" class="node"><title>Node10</title>
<polygon fill="white" stroke="#bfbfbf" points="360.849,-0.5 360.849,-21.5 397.849,-21.5 397.849,-0.5 360.849,-0.5"/>
<text text-anchor="middle" x="379.349" y="-8.5" font-family="Helvetica,sans-Serif" font-size="10.00">map</text>
</g>
<!-- Node8&#45;&gt;Node10 -->
<g id="edge20" class="edge"><title>Node8&#45;&gt;Node10</title>
<path fill="none" stroke="midnightblue" d="M430.794,-58.3619C421.735,-50.0226 408.939,-38.2418 398.375,-28.5162"/>
<polygon fill="midnightblue" stroke="midnightblue" points="400.558,-25.7688 390.831,-21.5707 395.817,-30.9187 400.558,-25.7688"/>
</g>
<!-- Node11 -->
<g id="node22" class="node"><title>Node11</title>
<polygon fill="white" stroke="#bfbfbf" points="414.849,-0.5 414.849,-21.5 469.849,-21.5 469.849,-0.5 414.849,-0.5"/>
<text text-anchor="middle" x="442.349" y="-8.5" font-family="Helvetica,sans-Serif" font-size="10.00">QObject</text>
</g>
<!-- Node8&#45;&gt;Node11 -->
<g id="edge22" class="edge"><title>Node8&#45;&gt;Node11</title>
<path fill="none" stroke="midnightblue" d="M442.349,-58.3619C442.349,-50.9219 442.349,-40.7427 442.349,-31.7276"/>
<polygon fill="midnightblue" stroke="midnightblue" points="445.849,-31.5706 442.349,-21.5707 438.849,-31.5707 445.849,-31.5706"/>
</g>
<!-- Node12 -->
<g id="node24" class="node"><title>Node12</title>
<polygon fill="white" stroke="#bfbfbf" points="487.349,-0.5 487.349,-21.5 539.349,-21.5 539.349,-0.5 487.349,-0.5"/>
<text text-anchor="middle" x="513.349" y="-8.5" font-family="Helvetica,sans-Serif" font-size="10.00">Timer.h</text>
</g>
<!-- Node8&#45;&gt;Node12 -->
<g id="edge24" class="edge"><title>Node8&#45;&gt;Node12</title>
<path fill="none" stroke="midnightblue" d="M455.371,-58.3619C465.78,-49.859 480.568,-37.7785 492.604,-27.9466"/>
<polygon fill="midnightblue" stroke="midnightblue" points="494.879,-30.6077 500.409,-21.5707 490.45,-25.1866 494.879,-30.6077"/>
</g>
<!-- Node13 -->
<g id="node26" class="node"><title>Node13</title>
<polygon fill="white" stroke="#bfbfbf" points="556.849,-0.5 556.849,-21.5 609.849,-21.5 609.849,-0.5 556.849,-0.5"/>
<text text-anchor="middle" x="583.349" y="-8.5" font-family="Helvetica,sans-Serif" font-size="10.00">Mutex.h</text>
</g>
<!-- Node8&#45;&gt;Node13 -->
<g id="edge26" class="edge"><title>Node8&#45;&gt;Node13</title>
<path fill="none" stroke="midnightblue" d="M467.883,-58.4966C490.302,-49.2746 523.133,-35.7695 548.062,-25.5153"/>
<polygon fill="midnightblue" stroke="midnightblue" points="549.612,-28.6623 557.528,-21.6212 546.949,-22.1886 549.612,-28.6623"/>
</g>
</g>
</svg>
