<?xml version="1.0" encoding="UTF-8" standalone="no"?>
<!DOCTYPE svg PUBLIC "-//W3C//DTD SVG 1.1//EN"
 "http://www.w3.org/Graphics/SVG/1.1/DTD/svg11.dtd">
<!-- Generated by graphviz version 2.26.3 (20100126.1600)
 -->
<!-- Title: MemoryMonitor.h Pages: 1 -->
<svg width="704pt" height="88pt"
 viewBox="0.00 0.00 704.00 88.00" xmlns="http://www.w3.org/2000/svg" xmlns:xlink="http://www.w3.org/1999/xlink">
<g id="graph1" class="graph" transform="scale(1 1) rotate(0) translate(4 84)">
<title>MemoryMonitor.h</title>
<polygon fill="white" stroke="white" points="-4,5 -4,-84 701,-84 701,5 -4,5"/>
<!-- Node1 -->
<g id="node1" class="node"><title>Node1</title>
<polygon fill="#bfbfbf" stroke="black" points="321.5,-58.5 321.5,-79.5 420.5,-79.5 420.5,-58.5 321.5,-58.5"/>
<text text-anchor="middle" x="371" y="-66.5" font-family="Helvetica,sans-Serif" font-size="10.00">MemoryMonitor.h</text>
</g>
<!-- Node2 -->
<g id="node3" class="node"><title>Node2</title>
<a xlink:href="MemoryMonitor_8cpp.htm" target="_top" xlink:title="MemoryMonitor.cpp">
<polygon fill="white" stroke="black" points="0,-0.5 0,-21.5 110,-21.5 110,-0.5 0,-0.5"/>
<text text-anchor="middle" x="55" y="-8.5" font-family="Helvetica,sans-Serif" font-size="10.00">MemoryMonitor.cpp</text>
</a>
</g>
<!-- Node1&#45;&gt;Node2 -->
<g id="edge2" class="edge"><title>Node1&#45;&gt;Node2</title>
<path fill="none" stroke="midnightblue" d="M311.175,-58.0195C253.27,-47.3913 166.223,-31.4143 110.005,-21.0959"/>
<polygon fill="midnightblue" stroke="midnightblue" points="310.81,-61.5108 321.277,-59.8737 312.074,-54.6258 310.81,-61.5108"/>
</g>
<!-- Node3 -->
<g id="node5" class="node"><title>Node3</title>
<a xlink:href="SystemService_8cpp.htm" target="_top" xlink:title="SystemService.cpp">
<polygon fill="white" stroke="black" points="128,-0.5 128,-21.5 234,-21.5 234,-0.5 128,-0.5"/>
<text text-anchor="middle" x="181" y="-8.5" font-family="Helvetica,sans-Serif" font-size="10.00">SystemService.cpp</text>
</a>
</g>
<!-- Node1&#45;&gt;Node3 -->
<g id="edge4" class="edge"><title>Node1&#45;&gt;Node3</title>
<path fill="none" stroke="midnightblue" d="M326.928,-55.5464C292.988,-45.1857 246.736,-31.0668 215.472,-21.5231"/>
<polygon fill="midnightblue" stroke="midnightblue" points="326.006,-58.9244 336.592,-58.4966 328.05,-52.2294 326.006,-58.9244"/>
</g>
<!-- Node4 -->
<g id="node7" class="node"><title>Node4</title>
<a xlink:href="WindowServerLuna_8cpp.htm" target="_top" xlink:title="WindowServerLuna.cpp">
<polygon fill="white" stroke="black" points="252,-0.5 252,-21.5 380,-21.5 380,-0.5 252,-0.5"/>
<text text-anchor="middle" x="316" y="-8.5" font-family="Helvetica,sans-Serif" font-size="10.00">WindowServerLuna.cpp</text>
</a>
</g>
<!-- Node1&#45;&gt;Node4 -->
<g id="edge6" class="edge"><title>Node1&#45;&gt;Node4</title>
<path fill="none" stroke="midnightblue" d="M353.77,-50.8299C344.645,-41.2078 333.76,-29.7282 326.024,-21.5707"/>
<polygon fill="midnightblue" stroke="midnightblue" points="351.492,-53.514 360.912,-58.3619 356.571,-48.6973 351.492,-53.514"/>
</g>
<!-- Node5 -->
<g id="node9" class="node"><title>Node5</title>
<a xlink:href="Main_8cpp.htm" target="_top" xlink:title="Main.cpp">
<polygon fill="white" stroke="black" points="397.5,-0.5 397.5,-21.5 456.5,-21.5 456.5,-0.5 397.5,-0.5"/>
<text text-anchor="middle" x="427" y="-8.5" font-family="Helvetica,sans-Serif" font-size="10.00">Main.cpp</text>
</a>
</g>
<!-- Node1&#45;&gt;Node5 -->
<g id="edge8" class="edge"><title>Node1&#45;&gt;Node5</title>
<path fill="none" stroke="midnightblue" d="M388.265,-51.118C397.612,-41.4377 408.839,-29.8098 416.794,-21.5707"/>
<polygon fill="midnightblue" stroke="midnightblue" points="385.699,-48.7368 381.271,-58.3619 390.735,-53.599 385.699,-48.7368"/>
</g>
<!-- Node6 -->
<g id="node11" class="node"><title>Node6</title>
<a xlink:href="IpcServer_8cpp.htm" target="_top" xlink:title="IpcServer.cpp">
<polygon fill="white" stroke="black" points="474,-0.5 474,-21.5 556,-21.5 556,-0.5 474,-0.5"/>
<text text-anchor="middle" x="515" y="-8.5" font-family="Helvetica,sans-Serif" font-size="10.00">IpcServer.cpp</text>
</a>
</g>
<!-- Node1&#45;&gt;Node6 -->
<g id="edge10" class="edge"><title>Node1&#45;&gt;Node6</title>
<path fill="none" stroke="midnightblue" d="M406.377,-54.7509C431.806,-44.5086 465.542,-30.9206 488.63,-21.6212"/>
<polygon fill="midnightblue" stroke="midnightblue" points="405.046,-51.5139 397.077,-58.4966 407.661,-58.007 405.046,-51.5139"/>
</g>
<!-- Node7 -->
<g id="node13" class="node"><title>Node7</title>
<a xlink:href="WebAppMgrProxy_8cpp.htm" target="_top" xlink:title="WebAppMgrProxy.cpp">
<polygon fill="white" stroke="black" points="574,-0.5 574,-21.5 696,-21.5 696,-0.5 574,-0.5"/>
<text text-anchor="middle" x="635" y="-8.5" font-family="Helvetica,sans-Serif" font-size="10.00">WebAppMgrProxy.cpp</text>
</a>
</g>
<!-- Node1&#45;&gt;Node7 -->
<g id="edge12" class="edge"><title>Node1&#45;&gt;Node7</title>
<path fill="none" stroke="midnightblue" d="M428.629,-56.3391C476.072,-45.9159 542.543,-31.3126 587.102,-21.5231"/>
<polygon fill="midnightblue" stroke="midnightblue" points="427.824,-52.9323 418.808,-58.4966 429.327,-59.7692 427.824,-52.9323"/>
</g>
</g>
</svg>
