<?xml version="1.0" encoding="UTF-8" standalone="no"?>
<!DOCTYPE svg PUBLIC "-//W3C//DTD SVG 1.1//EN"
 "http://www.w3.org/Graphics/SVG/1.1/DTD/svg11.dtd">
<!-- Generated by graphviz version 2.26.3 (20100126.1600)
 -->
<!-- Title: MenuWindow.h Pages: 1 -->
<svg width="578pt" height="88pt"
 viewBox="0.00 0.00 578.00 88.00" xmlns="http://www.w3.org/2000/svg" xmlns:xlink="http://www.w3.org/1999/xlink">
<g id="graph1" class="graph" transform="scale(1 1) rotate(0) translate(4 84)">
<title>MenuWindow.h</title>
<polygon fill="white" stroke="white" points="-4,5 -4,-84 575,-84 575,5 -4,5"/>
<!-- Node1 -->
<g id="node1" class="node"><title>Node1</title>
<polygon fill="#bfbfbf" stroke="black" points="244.5,-58.5 244.5,-79.5 333.5,-79.5 333.5,-58.5 244.5,-58.5"/>
<text text-anchor="middle" x="289" y="-66.5" font-family="Helvetica,sans-Serif" font-size="10.00">MenuWindow.h</text>
</g>
<!-- Node2 -->
<g id="node3" class="node"><title>Node2</title>
<a xlink:href="PersistentWindowCache_8cpp.htm" target="_top" xlink:title="PersistentWindowCache.cpp">
<polygon fill="white" stroke="black" points="0,-0.5 0,-21.5 152,-21.5 152,-0.5 0,-0.5"/>
<text text-anchor="middle" x="76" y="-8.5" font-family="Helvetica,sans-Serif" font-size="10.00">PersistentWindowCache.cpp</text>
</a>
</g>
<!-- Node1&#45;&gt;Node2 -->
<g id="edge2" class="edge"><title>Node1&#45;&gt;Node2</title>
<path fill="none" stroke="midnightblue" d="M240.569,-55.8123C202.436,-45.4285 149.994,-31.1487 114.645,-21.5231"/>
<polygon fill="midnightblue" stroke="midnightblue" points="239.859,-59.2463 250.427,-58.4966 241.698,-52.4922 239.859,-59.2463"/>
</g>
<!-- Node3 -->
<g id="node5" class="node"><title>Node3</title>
<a xlink:href="MenuWindow_8cpp.htm" target="_top" xlink:title="MenuWindow.cpp">
<polygon fill="white" stroke="black" points="170,-0.5 170,-21.5 270,-21.5 270,-0.5 170,-0.5"/>
<text text-anchor="middle" x="220" y="-8.5" font-family="Helvetica,sans-Serif" font-size="10.00">MenuWindow.cpp</text>
</a>
</g>
<!-- Node1&#45;&gt;Node3 -->
<g id="edge4" class="edge"><title>Node1&#45;&gt;Node3</title>
<path fill="none" stroke="midnightblue" d="M268.408,-51.6908C256.76,-41.8996 242.571,-29.973 232.575,-21.5707"/>
<polygon fill="midnightblue" stroke="midnightblue" points="266.437,-54.6066 276.344,-58.3619 270.942,-49.2481 266.437,-54.6066"/>
</g>
<!-- Node4 -->
<g id="node7" class="node"><title>Node4</title>
<a xlink:href="MenuWindowManager_8cpp.htm" target="_top" xlink:title="MenuWindowManager.cpp">
<polygon fill="white" stroke="black" points="287.5,-0.5 287.5,-21.5 430.5,-21.5 430.5,-0.5 287.5,-0.5"/>
<text text-anchor="middle" x="359" y="-8.5" font-family="Helvetica,sans-Serif" font-size="10.00">MenuWindowManager.cpp</text>
</a>
</g>
<!-- Node1&#45;&gt;Node4 -->
<g id="edge6" class="edge"><title>Node1&#45;&gt;Node4</title>
<path fill="none" stroke="midnightblue" d="M309.547,-51.9753C321.427,-42.1315 336.003,-30.0545 346.242,-21.5707"/>
<polygon fill="midnightblue" stroke="midnightblue" points="307.306,-49.2866 301.839,-58.3619 311.772,-54.6768 307.306,-49.2866"/>
</g>
<!-- Node5 -->
<g id="node9" class="node"><title>Node5</title>
<a xlink:href="WebAppMgrProxy_8cpp.htm" target="_top" xlink:title="WebAppMgrProxy.cpp">
<polygon fill="white" stroke="black" points="448,-0.5 448,-21.5 570,-21.5 570,-0.5 448,-0.5"/>
<text text-anchor="middle" x="509" y="-8.5" font-family="Helvetica,sans-Serif" font-size="10.00">WebAppMgrProxy.cpp</text>
</a>
</g>
<!-- Node1&#45;&gt;Node5 -->
<g id="edge8" class="edge"><title>Node1&#45;&gt;Node5</title>
<path fill="none" stroke="midnightblue" d="M338.52,-55.9447C377.948,-45.5501 432.418,-31.1897 469.085,-21.5231"/>
<polygon fill="midnightblue" stroke="midnightblue" points="337.618,-52.5629 328.84,-58.4966 339.402,-59.3317 337.618,-52.5629"/>
</g>
</g>
</svg>
