<?xml version="1.0" encoding="UTF-8" standalone="no"?>
<!DOCTYPE svg PUBLIC "-//W3C//DTD SVG 1.1//EN"
 "http://www.w3.org/Graphics/SVG/1.1/DTD/svg11.dtd">
<!-- Generated by graphviz version 2.26.3 (20100126.1600)
 -->
<!-- Title: MimeSystem.h Pages: 1 -->
<svg width="2776pt" height="146pt"
 viewBox="0.00 0.00 2776.00 146.00" xmlns="http://www.w3.org/2000/svg" xmlns:xlink="http://www.w3.org/1999/xlink">
<g id="graph1" class="graph" transform="scale(1 1) rotate(0) translate(4 142)">
<title>MimeSystem.h</title>
<polygon fill="white" stroke="white" points="-4,5 -4,-142 2773,-142 2773,5 -4,5"/>
<!-- Node1 -->
<g id="node1" class="node"><title>Node1</title>
<polygon fill="#bfbfbf" stroke="black" points="946.5,-116.5 946.5,-137.5 1031.5,-137.5 1031.5,-116.5 946.5,-116.5"/>
<text text-anchor="middle" x="989" y="-124.5" font-family="Helvetica,sans-Serif" font-size="10.00">MimeSystem.h</text>
</g>
<!-- Node2 -->
<g id="node3" class="node"><title>Node2</title>
<a xlink:href="ApplicationDescription_8cpp.htm" target="_top" xlink:title="ApplicationDescription.cpp">
<polygon fill="white" stroke="black" points="-0.5,-0.5 -0.5,-21.5 140.5,-21.5 140.5,-0.5 -0.5,-0.5"/>
<text text-anchor="middle" x="70" y="-8.5" font-family="Helvetica,sans-Serif" font-size="10.00">ApplicationDescription.cpp</text>
</a>
</g>
<!-- Node1&#45;&gt;Node2 -->
<g id="edge2" class="edge"><title>Node1&#45;&gt;Node2</title>
<path fill="none" stroke="midnightblue" d="M936.293,-123.196C845.403,-116.373 653.399,-100.802 492,-80 360.759,-63.0847 207.688,-36.2728 126.815,-21.547"/>
<polygon fill="midnightblue" stroke="midnightblue" points="936.111,-126.692 946.343,-123.946 936.631,-119.712 936.111,-126.692"/>
</g>
<!-- Node3 -->
<g id="node5" class="node"><title>Node3</title>
<a xlink:href="ApplicationManager_8h.htm" target="_top" xlink:title="ApplicationManager.h">
<polygon fill="white" stroke="black" points="1142.5,-58.5 1142.5,-79.5 1261.5,-79.5 1261.5,-58.5 1142.5,-58.5"/>
<text text-anchor="middle" x="1202" y="-66.5" font-family="Helvetica,sans-Serif" font-size="10.00">ApplicationManager.h</text>
</a>
</g>
<!-- Node1&#45;&gt;Node3 -->
<g id="edge4" class="edge"><title>Node1&#45;&gt;Node3</title>
<path fill="none" stroke="midnightblue" d="M1037.43,-113.812C1075.56,-103.428 1128.01,-89.1487 1163.35,-79.5231"/>
<polygon fill="midnightblue" stroke="midnightblue" points="1036.3,-110.492 1027.57,-116.497 1038.14,-117.246 1036.3,-110.492"/>
</g>
<!-- Node5 -->
<g id="node10" class="node"><title>Node5</title>
<a xlink:href="ApplicationManager_8cpp.htm" target="_top" xlink:title="ApplicationManager.cpp">
<polygon fill="white" stroke="black" points="157.5,-0.5 157.5,-21.5 288.5,-21.5 288.5,-0.5 157.5,-0.5"/>
<text text-anchor="middle" x="223" y="-8.5" font-family="Helvetica,sans-Serif" font-size="10.00">ApplicationManager.cpp</text>
</a>
</g>
<!-- Node1&#45;&gt;Node5 -->
<g id="edge48" class="edge"><title>Node1&#45;&gt;Node5</title>
<path fill="none" stroke="midnightblue" d="M936.19,-120.687C866.274,-112.187 739.2,-96.246 631,-80 505.965,-61.2261 360.009,-35.653 280.997,-21.5033"/>
<polygon fill="midnightblue" stroke="midnightblue" points="936.146,-124.207 946.495,-121.936 936.989,-117.258 936.146,-124.207"/>
</g>
<!-- Node6 -->
<g id="node12" class="node"><title>Node6</title>
<a xlink:href="ApplicationManagerService_8cpp.htm" target="_top" xlink:title="ApplicationManagerService.cpp">
<polygon fill="white" stroke="black" points="306,-0.5 306,-21.5 472,-21.5 472,-0.5 306,-0.5"/>
<text text-anchor="middle" x="389" y="-8.5" font-family="Helvetica,sans-Serif" font-size="10.00">ApplicationManagerService.cpp</text>
</a>
</g>
<!-- Node1&#45;&gt;Node6 -->
<g id="edge50" class="edge"><title>Node1&#45;&gt;Node6</title>
<path fill="none" stroke="midnightblue" d="M936.192,-116.79C823.11,-94.9279 558.523,-43.7744 443.739,-21.5828"/>
<polygon fill="midnightblue" stroke="midnightblue" points="935.848,-120.289 946.33,-118.751 937.177,-113.416 935.848,-120.289"/>
</g>
<!-- Node24 -->
<g id="node50" class="node"><title>Node24</title>
<a xlink:href="CmdResourceHandlers_8cpp.htm" target="_top" xlink:title="CmdResourceHandlers.cpp">
<polygon fill="white" stroke="black" points="1279,-58.5 1279,-79.5 1425,-79.5 1425,-58.5 1279,-58.5"/>
<text text-anchor="middle" x="1352" y="-66.5" font-family="Helvetica,sans-Serif" font-size="10.00">CmdResourceHandlers.cpp</text>
</a>
</g>
<!-- Node1&#45;&gt;Node24 -->
<g id="edge52" class="edge"><title>Node1&#45;&gt;Node24</title>
<path fill="none" stroke="midnightblue" d="M1041.69,-118.582C1106.34,-108.252 1215.99,-90.7318 1286.14,-79.5229"/>
<polygon fill="midnightblue" stroke="midnightblue" points="1041.03,-115.142 1031.71,-120.176 1042.14,-122.054 1041.03,-115.142"/>
</g>
<!-- Node25 -->
<g id="node52" class="node"><title>Node25</title>
<a xlink:href="MimeSystem_8cpp.htm" target="_top" xlink:title="MimeSystem.cpp">
<polygon fill="white" stroke="black" points="1443,-58.5 1443,-79.5 1539,-79.5 1539,-58.5 1443,-58.5"/>
<text text-anchor="middle" x="1491" y="-66.5" font-family="Helvetica,sans-Serif" font-size="10.00">MimeSystem.cpp</text>
</a>
</g>
<!-- Node1&#45;&gt;Node25 -->
<g id="edge54" class="edge"><title>Node1&#45;&gt;Node25</title>
<path fill="none" stroke="midnightblue" d="M1041.8,-122.892C1125.33,-116.065 1292.93,-101.022 1434,-80 1436.89,-79.5692 1439.86,-79.0949 1442.85,-78.5923"/>
<polygon fill="midnightblue" stroke="midnightblue" points="1041.48,-119.407 1031.8,-123.704 1042.05,-126.384 1041.48,-119.407"/>
</g>
<!-- Node3&#45;&gt;Node2 -->
<g id="edge6" class="edge"><title>Node3&#45;&gt;Node2</title>
<path fill="none" stroke="midnightblue" d="M1132.24,-68.1449C963.223,-65.5813 518.479,-55.8937 149,-22 146.242,-21.747 143.433,-21.4664 140.597,-21.164"/>
<polygon fill="midnightblue" stroke="midnightblue" points="1132.44,-71.6481 1142.49,-68.2967 1132.55,-64.6489 1132.44,-71.6481"/>
</g>
<!-- Node4 -->
<g id="node8" class="node"><title>Node4</title>
<a xlink:href="ApplicationInstaller_8cpp.htm" target="_top" xlink:title="ApplicationInstaller.cpp">
<polygon fill="white" stroke="black" points="1539.5,-0.5 1539.5,-21.5 1664.5,-21.5 1664.5,-0.5 1539.5,-0.5"/>
<text text-anchor="middle" x="1602" y="-8.5" font-family="Helvetica,sans-Serif" font-size="10.00">ApplicationInstaller.cpp</text>
</a>
</g>
<!-- Node3&#45;&gt;Node4 -->
<g id="edge8" class="edge"><title>Node3&#45;&gt;Node4</title>
<path fill="none" stroke="midnightblue" d="M1271.66,-57.7736C1387.47,-40.5456 1418.31,-38.5008 1531,-22 1533.72,-21.6024 1536.49,-21.192 1539.29,-20.7738"/>
<polygon fill="midnightblue" stroke="midnightblue" points="1271.06,-54.3242 1261.69,-59.2633 1272.1,-61.2474 1271.06,-54.3242"/>
</g>
<!-- Node3&#45;&gt;Node5 -->
<g id="edge10" class="edge"><title>Node3&#45;&gt;Node5</title>
<path fill="none" stroke="midnightblue" d="M1132.15,-67.6483C980.025,-64.2051 607.463,-53.0648 297,-22 294.286,-21.7284 291.519,-21.4274 288.727,-21.1036"/>
<polygon fill="midnightblue" stroke="midnightblue" points="1132.21,-71.1503 1142.29,-67.8735 1132.37,-64.1521 1132.21,-71.1503"/>
</g>
<!-- Node3&#45;&gt;Node6 -->
<g id="edge12" class="edge"><title>Node3&#45;&gt;Node6</title>
<path fill="none" stroke="midnightblue" d="M1131.96,-65.6911C1003,-59.3192 719.365,-44.0031 481,-22 478.117,-21.7339 475.184,-21.4508 472.223,-21.1544"/>
<polygon fill="midnightblue" stroke="midnightblue" points="1131.93,-69.1939 1142.09,-66.1891 1132.28,-62.2023 1131.93,-69.1939"/>
</g>
<!-- Node7 -->
<g id="node14" class="node"><title>Node7</title>
<a xlink:href="LaunchPoint_8cpp.htm" target="_top" xlink:title="LaunchPoint.cpp">
<polygon fill="white" stroke="black" points="1681.5,-0.5 1681.5,-21.5 1776.5,-21.5 1776.5,-0.5 1681.5,-0.5"/>
<text text-anchor="middle" x="1729" y="-8.5" font-family="Helvetica,sans-Serif" font-size="10.00">LaunchPoint.cpp</text>
</a>
</g>
<!-- Node3&#45;&gt;Node7 -->
<g id="edge14" class="edge"><title>Node3&#45;&gt;Node7</title>
<path fill="none" stroke="midnightblue" d="M1271.66,-57.8627C1450.15,-36.0398 1498.19,-46.9068 1673,-22 1675.75,-21.6087 1678.56,-21.1714 1681.4,-20.7028"/>
<polygon fill="midnightblue" stroke="midnightblue" points="1271.16,-54.3969 1261.67,-59.1008 1272.02,-61.3437 1271.16,-54.3969"/>
</g>
<!-- Node8 -->
<g id="node16" class="node"><title>Node8</title>
<a xlink:href="LsmUtils_8cpp.htm" target="_top" xlink:title="LsmUtils.cpp">
<polygon fill="white" stroke="black" points="1794,-0.5 1794,-21.5 1870,-21.5 1870,-0.5 1794,-0.5"/>
<text text-anchor="middle" x="1832" y="-8.5" font-family="Helvetica,sans-Serif" font-size="10.00">LsmUtils.cpp</text>
</a>
</g>
<!-- Node3&#45;&gt;Node8 -->
<g id="edge16" class="edge"><title>Node3&#45;&gt;Node8</title>
<path fill="none" stroke="midnightblue" d="M1271.93,-57.8651C1499.73,-32.361 1561.45,-55.7517 1785,-22 1787.9,-21.5621 1790.89,-21.0384 1793.88,-20.4604"/>
<polygon fill="midnightblue" stroke="midnightblue" points="1271.2,-54.4257 1261.66,-59.0353 1271.99,-61.3807 1271.2,-54.4257"/>
</g>
<!-- Node9 -->
<g id="node18" class="node"><title>Node9</title>
<a xlink:href="SystemService_8cpp.htm" target="_top" xlink:title="SystemService.cpp">
<polygon fill="white" stroke="black" points="1888,-0.5 1888,-21.5 1994,-21.5 1994,-0.5 1888,-0.5"/>
<text text-anchor="middle" x="1941" y="-8.5" font-family="Helvetica,sans-Serif" font-size="10.00">SystemService.cpp</text>
</a>
</g>
<!-- Node3&#45;&gt;Node9 -->
<g id="edge18" class="edge"><title>Node3&#45;&gt;Node9</title>
<path fill="none" stroke="midnightblue" d="M1271.74,-57.9C1541.25,-28.9251 1613.01,-53.3493 1879,-22 1881.93,-21.6545 1884.93,-21.2595 1887.96,-20.8294"/>
<polygon fill="midnightblue" stroke="midnightblue" points="1271.22,-54.436 1261.66,-58.9988 1271.98,-61.3948 1271.22,-54.436"/>
</g>
<!-- Node10 -->
<g id="node20" class="node"><title>Node10</title>
<a xlink:href="SystemUiController_8cpp.htm" target="_top" xlink:title="SystemUiController.cpp">
<polygon fill="white" stroke="black" points="2011.5,-0.5 2011.5,-21.5 2138.5,-21.5 2138.5,-0.5 2011.5,-0.5"/>
<text text-anchor="middle" x="2075" y="-8.5" font-family="Helvetica,sans-Serif" font-size="10.00">SystemUiController.cpp</text>
</a>
</g>
<!-- Node3&#45;&gt;Node10 -->
<g id="edge20" class="edge"><title>Node3&#45;&gt;Node10</title>
<path fill="none" stroke="midnightblue" d="M1271.81,-57.9071C1596.13,-24.5287 1681.8,-54.3379 2003,-22 2005.77,-21.7213 2008.59,-21.4093 2011.44,-21.0718"/>
<polygon fill="midnightblue" stroke="midnightblue" points="1271.24,-54.4478 1261.65,-58.965 1271.96,-61.4101 1271.24,-54.4478"/>
</g>
<!-- Node11 -->
<g id="node22" class="node"><title>Node11</title>
<a xlink:href="Window_8cpp.htm" target="_top" xlink:title="Window.cpp">
<polygon fill="white" stroke="black" points="2156,-0.5 2156,-21.5 2230,-21.5 2230,-0.5 2156,-0.5"/>
<text text-anchor="middle" x="2193" y="-8.5" font-family="Helvetica,sans-Serif" font-size="10.00">Window.cpp</text>
</a>
</g>
<!-- Node3&#45;&gt;Node11 -->
<g id="edge22" class="edge"><title>Node3&#45;&gt;Node11</title>
<path fill="none" stroke="midnightblue" d="M1271.75,-57.9294C1659.9,-19.7456 1763.9,-75.1572 2147,-22 2149.93,-21.5937 2152.94,-21.0842 2155.96,-20.5085"/>
<polygon fill="midnightblue" stroke="midnightblue" points="1271.25,-54.4615 1261.65,-58.9376 1271.95,-61.4268 1271.25,-54.4615"/>
</g>
<!-- Node12 -->
<g id="node24" class="node"><title>Node12</title>
<a xlink:href="DockModePositionManager_8cpp.htm" target="_top" xlink:title="DockModePositionManager.cpp">
<polygon fill="white" stroke="black" points="2247.5,-0.5 2247.5,-21.5 2414.5,-21.5 2414.5,-0.5 2247.5,-0.5"/>
<text text-anchor="middle" x="2331" y="-8.5" font-family="Helvetica,sans-Serif" font-size="10.00">DockModePositionManager.cpp</text>
</a>
</g>
<!-- Node3&#45;&gt;Node12 -->
<g id="edge24" class="edge"><title>Node3&#45;&gt;Node12</title>
<path fill="none" stroke="midnightblue" d="M1271.84,-57.922C1700.61,-16.1314 1812.71,-55.3475 2239,-22 2241.73,-21.7867 2244.5,-21.5533 2247.29,-21.3033"/>
<polygon fill="midnightblue" stroke="midnightblue" points="1271.26,-54.462 1261.65,-58.9244 1271.94,-61.4283 1271.26,-54.462"/>
</g>
<!-- Node13 -->
<g id="node26" class="node"><title>Node13</title>
<a xlink:href="DockModeWindowManager_8cpp.htm" target="_top" xlink:title="DockModeWindowManager.cpp">
<polygon fill="white" stroke="black" points="2431.5,-0.5 2431.5,-21.5 2598.5,-21.5 2598.5,-0.5 2431.5,-0.5"/>
<text text-anchor="middle" x="2515" y="-8.5" font-family="Helvetica,sans-Serif" font-size="10.00">DockModeWindowManager.cpp</text>
</a>
</g>
<!-- Node3&#45;&gt;Node13 -->
<g id="edge26" class="edge"><title>Node3&#45;&gt;Node13</title>
<path fill="none" stroke="midnightblue" d="M1271.85,-57.9298C1782.09,-9.63716 1915.12,-60.2169 2423,-22 2425.73,-21.7948 2428.5,-21.5684 2431.29,-21.3244"/>
<polygon fill="midnightblue" stroke="midnightblue" points="1271.27,-54.4696 1261.65,-58.9042 1271.94,-61.4379 1271.27,-54.4696"/>
</g>
<!-- Node14 -->
<g id="node28" class="node"><title>Node14</title>
<a xlink:href="OverlayWindowManager_8cpp.htm" target="_top" xlink:title="OverlayWindowManager.cpp">
<polygon fill="white" stroke="black" points="2615.5,-0.5 2615.5,-21.5 2768.5,-21.5 2768.5,-0.5 2615.5,-0.5"/>
<text text-anchor="middle" x="2692" y="-8.5" font-family="Helvetica,sans-Serif" font-size="10.00">OverlayWindowManager.cpp</text>
</a>
</g>
<!-- Node3&#45;&gt;Node14 -->
<g id="edge28" class="edge"><title>Node3&#45;&gt;Node14</title>
<path fill="none" stroke="midnightblue" d="M1271.71,-57.9498C1863.56,-3.14911 2017.69,-67.9459 2607,-22 2609.67,-21.7918 2612.39,-21.5585 2615.13,-21.3047"/>
<polygon fill="midnightblue" stroke="midnightblue" points="1271.28,-54.4753 1261.65,-58.8896 1271.93,-61.445 1271.28,-54.4753"/>
</g>
<!-- Node15 -->
<g id="node30" class="node"><title>Node15</title>
<a xlink:href="appeffector_8cpp.htm" target="_top" xlink:title="appeffector.cpp">
<polygon fill="white" stroke="black" points="490,-0.5 490,-21.5 580,-21.5 580,-0.5 490,-0.5"/>
<text text-anchor="middle" x="535" y="-8.5" font-family="Helvetica,sans-Serif" font-size="10.00">appeffector.cpp</text>
</a>
</g>
<!-- Node3&#45;&gt;Node15 -->
<g id="edge30" class="edge"><title>Node3&#45;&gt;Node15</title>
<path fill="none" stroke="midnightblue" d="M1132.13,-66.4736C1018.01,-61.7138 784.735,-49.3315 589,-22 586.063,-21.5898 583.045,-21.1177 580.009,-20.6046"/>
<polygon fill="midnightblue" stroke="midnightblue" points="1131.99,-69.971 1142.13,-66.884 1132.28,-62.9769 1131.99,-69.971"/>
</g>
<!-- Node16 -->
<g id="node32" class="node"><title>Node16</title>
<a xlink:href="appmonitor_8cpp.htm" target="_top" xlink:title="appmonitor.cpp">
<polygon fill="white" stroke="black" points="597.5,-0.5 597.5,-21.5 686.5,-21.5 686.5,-0.5 597.5,-0.5"/>
<text text-anchor="middle" x="642" y="-8.5" font-family="Helvetica,sans-Serif" font-size="10.00">appmonitor.cpp</text>
</a>
</g>
<!-- Node3&#45;&gt;Node16 -->
<g id="edge32" class="edge"><title>Node3&#45;&gt;Node16</title>
<path fill="none" stroke="midnightblue" d="M1132.34,-65.0246C1034.34,-58.8687 850.363,-45.2489 695,-22 692.305,-21.5967 689.54,-21.1436 686.756,-20.6571"/>
<polygon fill="midnightblue" stroke="midnightblue" points="1132.22,-68.5237 1142.42,-65.6502 1132.65,-61.5372 1132.22,-68.5237"/>
</g>
<!-- Node17 -->
<g id="node34" class="node"><title>Node17</title>
<a xlink:href="pagerestore_8cpp.htm" target="_top" xlink:title="pagerestore.cpp">
<polygon fill="white" stroke="black" points="704,-0.5 704,-21.5 798,-21.5 798,-0.5 704,-0.5"/>
<text text-anchor="middle" x="751" y="-8.5" font-family="Helvetica,sans-Serif" font-size="10.00">pagerestore.cpp</text>
</a>
</g>
<!-- Node3&#45;&gt;Node17 -->
<g id="edge34" class="edge"><title>Node3&#45;&gt;Node17</title>
<path fill="none" stroke="midnightblue" d="M1131.92,-62.2763C1052.78,-54.3091 920.275,-39.8383 807,-22 804.064,-21.5376 801.047,-21.0325 798.008,-20.5011"/>
<polygon fill="midnightblue" stroke="midnightblue" points="1131.95,-65.7968 1142.25,-63.3098 1132.65,-58.8316 1131.95,-65.7968"/>
</g>
<!-- Node18 -->
<g id="node36" class="node"><title>Node18</title>
<a xlink:href="AlertWindow_8cpp.htm" target="_top" xlink:title="AlertWindow.cpp">
<polygon fill="white" stroke="black" points="815.5,-0.5 815.5,-21.5 910.5,-21.5 910.5,-0.5 815.5,-0.5"/>
<text text-anchor="middle" x="863" y="-8.5" font-family="Helvetica,sans-Serif" font-size="10.00">AlertWindow.cpp</text>
</a>
</g>
<!-- Node3&#45;&gt;Node18 -->
<g id="edge36" class="edge"><title>Node3&#45;&gt;Node18</title>
<path fill="none" stroke="midnightblue" d="M1132.25,-58.0007C1074.9,-48.8183 991.583,-35.1529 919,-22 916.27,-21.5053 913.468,-20.9873 910.641,-20.4569"/>
<polygon fill="midnightblue" stroke="midnightblue" points="1131.86,-61.4831 1142.28,-59.6051 1132.96,-54.5708 1131.86,-61.4831"/>
</g>
<!-- Node19 -->
<g id="node38" class="node"><title>Node19</title>
<a xlink:href="BannerMessageHandler_8cpp.htm" target="_top" xlink:title="BannerMessageHandler.cpp">
<polygon fill="white" stroke="black" points="928,-0.5 928,-21.5 1080,-21.5 1080,-0.5 928,-0.5"/>
<text text-anchor="middle" x="1004" y="-8.5" font-family="Helvetica,sans-Serif" font-size="10.00">BannerMessageHandler.cpp</text>
</a>
</g>
<!-- Node3&#45;&gt;Node19 -->
<g id="edge38" class="edge"><title>Node3&#45;&gt;Node19</title>
<path fill="none" stroke="midnightblue" d="M1156.53,-55.6795C1121.12,-45.307 1072.64,-31.1078 1039.92,-21.5231"/>
<polygon fill="midnightblue" stroke="midnightblue" points="1155.56,-59.0443 1166.14,-58.4966 1157.53,-52.3265 1155.56,-59.0443"/>
</g>
<!-- Node20 -->
<g id="node40" class="node"><title>Node20</title>
<a xlink:href="BannerWindow_8cpp.htm" target="_top" xlink:title="BannerWindow.cpp">
<polygon fill="white" stroke="black" points="1098,-0.5 1098,-21.5 1206,-21.5 1206,-0.5 1098,-0.5"/>
<text text-anchor="middle" x="1152" y="-8.5" font-family="Helvetica,sans-Serif" font-size="10.00">BannerWindow.cpp</text>
</a>
</g>
<!-- Node3&#45;&gt;Node20 -->
<g id="edge40" class="edge"><title>Node3&#45;&gt;Node20</title>
<path fill="none" stroke="midnightblue" d="M1186.09,-50.5407C1177.84,-40.9786 1168.07,-29.6467 1161.11,-21.5707"/>
<polygon fill="midnightblue" stroke="midnightblue" points="1183.65,-53.0731 1192.83,-58.3619 1188.95,-48.5025 1183.65,-53.0731"/>
</g>
<!-- Node21 -->
<g id="node42" class="node"><title>Node21</title>
<a xlink:href="Main_8cpp.htm" target="_top" xlink:title="Main.cpp">
<polygon fill="white" stroke="black" points="1223.5,-0.5 1223.5,-21.5 1282.5,-21.5 1282.5,-0.5 1223.5,-0.5"/>
<text text-anchor="middle" x="1253" y="-8.5" font-family="Helvetica,sans-Serif" font-size="10.00">Main.cpp</text>
</a>
</g>
<!-- Node3&#45;&gt;Node21 -->
<g id="edge42" class="edge"><title>Node3&#45;&gt;Node21</title>
<path fill="none" stroke="midnightblue" d="M1217.98,-50.8299C1226.44,-41.2078 1236.53,-29.7282 1243.71,-21.5707"/>
<polygon fill="midnightblue" stroke="midnightblue" points="1215.33,-48.541 1211.35,-58.3619 1220.59,-53.1634 1215.33,-48.541"/>
</g>
<!-- Node22 -->
<g id="node44" class="node"><title>Node22</title>
<a xlink:href="IpcServer_8cpp.htm" target="_top" xlink:title="IpcServer.cpp">
<polygon fill="white" stroke="black" points="1300,-0.5 1300,-21.5 1382,-21.5 1382,-0.5 1300,-0.5"/>
<text text-anchor="middle" x="1341" y="-8.5" font-family="Helvetica,sans-Serif" font-size="10.00">IpcServer.cpp</text>
</a>
</g>
<!-- Node3&#45;&gt;Node22 -->
<g id="edge44" class="edge"><title>Node3&#45;&gt;Node22</title>
<path fill="none" stroke="midnightblue" d="M1236.47,-54.6153C1260.98,-44.3889 1293.36,-30.8796 1315.55,-21.6212"/>
<polygon fill="midnightblue" stroke="midnightblue" points="1235.05,-51.4156 1227.17,-58.4966 1237.75,-57.8758 1235.05,-51.4156"/>
</g>
<!-- Node23 -->
<g id="node46" class="node"><title>Node23</title>
<a xlink:href="WebAppMgrProxy_8cpp.htm" target="_top" xlink:title="WebAppMgrProxy.cpp">
<polygon fill="white" stroke="black" points="1400,-0.5 1400,-21.5 1522,-21.5 1522,-0.5 1400,-0.5"/>
<text text-anchor="middle" x="1461" y="-8.5" font-family="Helvetica,sans-Serif" font-size="10.00">WebAppMgrProxy.cpp</text>
</a>
</g>
<!-- Node3&#45;&gt;Node23 -->
<g id="edge46" class="edge"><title>Node3&#45;&gt;Node23</title>
<path fill="none" stroke="midnightblue" d="M1258.83,-56.2737C1305.36,-45.8548 1370.39,-31.2921 1414.01,-21.5231"/>
<polygon fill="midnightblue" stroke="midnightblue" points="1257.9,-52.8959 1248.9,-58.4966 1259.43,-59.7267 1257.9,-52.8959"/>
</g>
</g>
</svg>
