<?xml version="1.0" encoding="UTF-8" standalone="no"?>
<!DOCTYPE svg PUBLIC "-//W3C//DTD SVG 1.1//EN"
 "http://www.w3.org/Graphics/SVG/1.1/DTD/svg11.dtd">
<!-- Generated by graphviz version 2.26.3 (20100126.1600)
 -->
<!-- Title: MimeSystem.cpp Pages: 1 -->
<svg width="1148pt" height="204pt"
 viewBox="0.00 0.00 1148.00 204.00" xmlns="http://www.w3.org/2000/svg" xmlns:xlink="http://www.w3.org/1999/xlink">
<g id="graph1" class="graph" transform="scale(1 1) rotate(0) translate(4 200)">
<title>MimeSystem.cpp</title>
<polygon fill="white" stroke="white" points="-4,5 -4,-200 1145,-200 1145,5 -4,5"/>
<!-- Node1 -->
<g id="node1" class="node"><title>Node1</title>
<polygon fill="#bfbfbf" stroke="black" points="588,-174.5 588,-195.5 684,-195.5 684,-174.5 588,-174.5"/>
<text text-anchor="middle" x="636" y="-182.5" font-family="Helvetica,sans-Serif" font-size="10.00">MimeSystem.cpp</text>
</g>
<!-- Node2 -->
<g id="node3" class="node"><title>Node2</title>
<polygon fill="white" stroke="#bfbfbf" points="-0.5,-0.5 -0.5,-21.5 66.5,-21.5 66.5,-0.5 -0.5,-0.5"/>
<text text-anchor="middle" x="33" y="-8.5" font-family="Helvetica,sans-Serif" font-size="10.00">Common.h</text>
</g>
<!-- Node1&#45;&gt;Node2 -->
<g id="edge2" class="edge"><title>Node1&#45;&gt;Node2</title>
<path fill="none" stroke="midnightblue" d="M587.914,-182.708C463.791,-175.816 136.962,-151.169 60,-80 46.3963,-67.4202 39.5533,-47.1527 36.1698,-31.8309"/>
<polygon fill="midnightblue" stroke="midnightblue" points="39.5581,-30.91 34.2703,-21.729 32.6786,-32.2036 39.5581,-30.91"/>
</g>
<!-- Node3 -->
<g id="node5" class="node"><title>Node3</title>
<polygon fill="white" stroke="#bfbfbf" points="399.5,-116.5 399.5,-137.5 448.5,-137.5 448.5,-116.5 399.5,-116.5"/>
<text text-anchor="middle" x="424" y="-124.5" font-family="Helvetica,sans-Serif" font-size="10.00">stdlib.h</text>
</g>
<!-- Node1&#45;&gt;Node3 -->
<g id="edge4" class="edge"><title>Node1&#45;&gt;Node3</title>
<path fill="none" stroke="midnightblue" d="M592.741,-174.479C558.554,-165.977 509.432,-153.347 458.648,-138.384"/>
<polygon fill="midnightblue" stroke="midnightblue" points="459.394,-134.955 448.811,-135.462 457.401,-141.665 459.394,-134.955"/>
</g>
<!-- Node4 -->
<g id="node7" class="node"><title>Node4</title>
<polygon fill="white" stroke="#bfbfbf" points="465.5,-116.5 465.5,-137.5 512.5,-137.5 512.5,-116.5 465.5,-116.5"/>
<text text-anchor="middle" x="489" y="-124.5" font-family="Helvetica,sans-Serif" font-size="10.00">stdio.h</text>
</g>
<!-- Node1&#45;&gt;Node4 -->
<g id="edge6" class="edge"><title>Node1&#45;&gt;Node4</title>
<path fill="none" stroke="midnightblue" d="M609.379,-174.497C584.876,-164.828 548.441,-150.453 522.078,-140.051"/>
<polygon fill="midnightblue" stroke="midnightblue" points="523.099,-136.692 512.512,-136.277 520.53,-143.203 523.099,-136.692"/>
</g>
<!-- Node5 -->
<g id="node9" class="node"><title>Node5</title>
<polygon fill="white" stroke="#bfbfbf" points="529.5,-116.5 529.5,-137.5 582.5,-137.5 582.5,-116.5 529.5,-116.5"/>
<text text-anchor="middle" x="556" y="-124.5" font-family="Helvetica,sans-Serif" font-size="10.00">unistd.h</text>
</g>
<!-- Node1&#45;&gt;Node5 -->
<g id="edge8" class="edge"><title>Node1&#45;&gt;Node5</title>
<path fill="none" stroke="midnightblue" d="M621.327,-174.362C609.486,-165.777 592.615,-153.546 578.984,-143.664"/>
<polygon fill="midnightblue" stroke="midnightblue" points="580.731,-140.607 570.58,-137.571 576.622,-146.274 580.731,-140.607"/>
</g>
<!-- Node6 -->
<g id="node11" class="node"><title>Node6</title>
<polygon fill="white" stroke="#bfbfbf" points="600,-116.5 600,-137.5 672,-137.5 672,-116.5 600,-116.5"/>
<text text-anchor="middle" x="636" y="-124.5" font-family="Helvetica,sans-Serif" font-size="10.00">cjson/json.h</text>
</g>
<!-- Node1&#45;&gt;Node6 -->
<g id="edge10" class="edge"><title>Node1&#45;&gt;Node6</title>
<path fill="none" stroke="midnightblue" d="M636,-174.362C636,-166.922 636,-156.743 636,-147.728"/>
<polygon fill="midnightblue" stroke="midnightblue" points="639.5,-147.571 636,-137.571 632.5,-147.571 639.5,-147.571"/>
</g>
<!-- Node7 -->
<g id="node13" class="node"><title>Node7</title>
<polygon fill="white" stroke="#bfbfbf" points="689.5,-116.5 689.5,-137.5 780.5,-137.5 780.5,-116.5 689.5,-116.5"/>
<text text-anchor="middle" x="735" y="-124.5" font-family="Helvetica,sans-Serif" font-size="10.00">cjson/json_util.h</text>
</g>
<!-- Node1&#45;&gt;Node7 -->
<g id="edge12" class="edge"><title>Node1&#45;&gt;Node7</title>
<path fill="none" stroke="midnightblue" d="M654.158,-174.362C669.23,-165.532 690.887,-152.844 707.993,-142.822"/>
<polygon fill="midnightblue" stroke="midnightblue" points="710.098,-145.646 716.957,-137.571 706.559,-139.606 710.098,-145.646"/>
</g>
<!-- Node8 -->
<g id="node15" class="node"><title>Node8</title>
<polygon fill="white" stroke="#bfbfbf" points="797.5,-116.5 797.5,-137.5 838.5,-137.5 838.5,-116.5 797.5,-116.5"/>
<text text-anchor="middle" x="818" y="-124.5" font-family="Helvetica,sans-Serif" font-size="10.00">glib.h</text>
</g>
<!-- Node1&#45;&gt;Node8 -->
<g id="edge14" class="edge"><title>Node1&#45;&gt;Node8</title>
<path fill="none" stroke="midnightblue" d="M672.692,-174.452C701.753,-165.936 743.56,-153.332 787.955,-138.235"/>
<polygon fill="midnightblue" stroke="midnightblue" points="789.139,-141.53 797.464,-134.977 786.87,-134.908 789.139,-141.53"/>
</g>
<!-- Node9 -->
<g id="node17" class="node"><title>Node9</title>
<a xlink:href="MimeSystem_8h.htm" target="_top" xlink:title="MimeSystem.h">
<polygon fill="white" stroke="black" points="259.5,-116.5 259.5,-137.5 344.5,-137.5 344.5,-116.5 259.5,-116.5"/>
<text text-anchor="middle" x="302" y="-124.5" font-family="Helvetica,sans-Serif" font-size="10.00">MimeSystem.h</text>
</a>
</g>
<!-- Node1&#45;&gt;Node9 -->
<g id="edge16" class="edge"><title>Node1&#45;&gt;Node9</title>
<path fill="none" stroke="midnightblue" d="M587.719,-177.235C532.216,-168.217 438.413,-152.693 358,-138 356.928,-137.804 355.844,-137.605 354.753,-137.403"/>
<polygon fill="midnightblue" stroke="midnightblue" points="355.258,-133.936 344.783,-135.525 353.962,-140.815 355.258,-133.936"/>
</g>
<!-- Node14 -->
<g id="node28" class="node"><title>Node14</title>
<polygon fill="white" stroke="#bfbfbf" points="452,-58.5 452,-79.5 512,-79.5 512,-58.5 452,-58.5"/>
<text text-anchor="middle" x="482" y="-66.5" font-family="Helvetica,sans-Serif" font-size="10.00">algorithm</text>
</g>
<!-- Node1&#45;&gt;Node14 -->
<g id="edge48" class="edge"><title>Node1&#45;&gt;Node14</title>
<path fill="none" stroke="midnightblue" d="M587.924,-182.81C523.8,-178.766 415.486,-167.63 391,-138 371.286,-114.144 409.444,-93.7272 442.23,-81.4246"/>
<polygon fill="midnightblue" stroke="midnightblue" points="443.489,-84.6916 451.722,-78.023 441.127,-78.102 443.489,-84.6916"/>
</g>
<!-- Node19 -->
<g id="node42" class="node"><title>Node19</title>
<polygon fill="white" stroke="#bfbfbf" points="856,-116.5 856,-137.5 942,-137.5 942,-116.5 856,-116.5"/>
<text text-anchor="middle" x="899" y="-124.5" font-family="Helvetica,sans-Serif" font-size="10.00">MutexLocker.h</text>
</g>
<!-- Node1&#45;&gt;Node19 -->
<g id="edge46" class="edge"><title>Node1&#45;&gt;Node19</title>
<path fill="none" stroke="midnightblue" d="M683.627,-174.497C729.37,-164.409 798.352,-149.196 845.858,-138.72"/>
<polygon fill="midnightblue" stroke="midnightblue" points="846.641,-142.131 855.653,-136.559 845.134,-135.295 846.641,-142.131"/>
</g>
<!-- Node20 -->
<g id="node45" class="node"><title>Node20</title>
<polygon fill="white" stroke="#bfbfbf" points="959.5,-116.5 959.5,-137.5 1004.5,-137.5 1004.5,-116.5 959.5,-116.5"/>
<text text-anchor="middle" x="982" y="-124.5" font-family="Helvetica,sans-Serif" font-size="10.00">Utils.h</text>
</g>
<!-- Node1&#45;&gt;Node20 -->
<g id="edge50" class="edge"><title>Node1&#45;&gt;Node20</title>
<path fill="none" stroke="midnightblue" d="M684.058,-180.739C744.314,-174.758 850.779,-162.079 949.621,-138.005"/>
<polygon fill="midnightblue" stroke="midnightblue" points="950.605,-141.367 959.467,-135.562 948.919,-134.573 950.605,-141.367"/>
</g>
<!-- Node21 -->
<g id="node47" class="node"><title>Node21</title>
<polygon fill="white" stroke="#bfbfbf" points="1021.5,-116.5 1021.5,-137.5 1084.5,-137.5 1084.5,-116.5 1021.5,-116.5"/>
<text text-anchor="middle" x="1053" y="-124.5" font-family="Helvetica,sans-Serif" font-size="10.00">Settings.h</text>
</g>
<!-- Node1&#45;&gt;Node21 -->
<g id="edge52" class="edge"><title>Node1&#45;&gt;Node21</title>
<path fill="none" stroke="midnightblue" d="M684.263,-181.229C754.417,-175.255 888.745,-161.966 1011.29,-138.143"/>
<polygon fill="midnightblue" stroke="midnightblue" points="1012.09,-141.554 1021.22,-136.184 1010.73,-134.686 1012.09,-141.554"/>
</g>
<!-- Node22 -->
<g id="node49" class="node"><title>Node22</title>
<polygon fill="white" stroke="#bfbfbf" points="1102,-116.5 1102,-137.5 1140,-137.5 1140,-116.5 1102,-116.5"/>
<text text-anchor="middle" x="1121" y="-124.5" font-family="Helvetica,sans-Serif" font-size="10.00">QUrl</text>
</g>
<!-- Node1&#45;&gt;Node22 -->
<g id="edge54" class="edge"><title>Node1&#45;&gt;Node22</title>
<path fill="none" stroke="midnightblue" d="M684.312,-181.7C781.783,-174.779 999.85,-157.903 1092.11,-137.578"/>
<polygon fill="midnightblue" stroke="midnightblue" points="1093,-140.964 1101.94,-135.278 1091.41,-134.148 1093,-140.964"/>
</g>
<!-- Node9&#45;&gt;Node2 -->
<g id="edge18" class="edge"><title>Node9&#45;&gt;Node2</title>
<path fill="none" stroke="midnightblue" d="M259.085,-121.135C204.869,-113.13 115.227,-97.7356 87,-80 67.6939,-67.8696 52.4833,-46.2894 43.1908,-30.4839"/>
<polygon fill="midnightblue" stroke="midnightblue" points="46.1186,-28.5482 38.1859,-21.5251 40.0075,-31.9622 46.1186,-28.5482"/>
</g>
<!-- Node10 -->
<g id="node20" class="node"><title>Node10</title>
<polygon fill="white" stroke="#bfbfbf" points="386.5,-0.5 386.5,-21.5 429.5,-21.5 429.5,-0.5 386.5,-0.5"/>
<text text-anchor="middle" x="408" y="-8.5" font-family="Helvetica,sans-Serif" font-size="10.00">string</text>
</g>
<!-- Node9&#45;&gt;Node10 -->
<g id="edge20" class="edge"><title>Node9&#45;&gt;Node10</title>
<path fill="none" stroke="midnightblue" d="M329.715,-116.4C346.827,-108.613 368.095,-96.5095 382,-80 393.566,-66.2679 400.263,-46.8724 403.954,-32.1404"/>
<polygon fill="midnightblue" stroke="midnightblue" points="407.465,-32.4765 406.222,-21.9549 400.632,-30.9552 407.465,-32.4765"/>
</g>
<!-- Node11 -->
<g id="node22" class="node"><title>Node11</title>
<polygon fill="white" stroke="#bfbfbf" points="84,-0.5 84,-21.5 130,-21.5 130,-0.5 84,-0.5"/>
<text text-anchor="middle" x="107" y="-8.5" font-family="Helvetica,sans-Serif" font-size="10.00">vector</text>
</g>
<!-- Node9&#45;&gt;Node11 -->
<g id="edge22" class="edge"><title>Node9&#45;&gt;Node11</title>
<path fill="none" stroke="midnightblue" d="M259.397,-123.367C205.395,-117.776 116.908,-104.989 97,-80 86.0919,-66.308 90.7003,-46.0644 96.7747,-31.0417"/>
<polygon fill="midnightblue" stroke="midnightblue" points="100.104,-32.1734 101.042,-21.6201 93.7278,-29.2855 100.104,-32.1734"/>
</g>
<!-- Node12 -->
<g id="node24" class="node"><title>Node12</title>
<polygon fill="white" stroke="#bfbfbf" points="316.5,-0.5 316.5,-21.5 353.5,-21.5 353.5,-0.5 316.5,-0.5"/>
<text text-anchor="middle" x="335" y="-8.5" font-family="Helvetica,sans-Serif" font-size="10.00">map</text>
</g>
<!-- Node9&#45;&gt;Node12 -->
<g id="edge24" class="edge"><title>Node9&#45;&gt;Node12</title>
<path fill="none" stroke="midnightblue" d="M326.432,-116.473C341.098,-108.715 358.509,-96.617 367,-80 375.639,-63.0932 364.479,-43.4119 353.036,-29.4059"/>
<polygon fill="midnightblue" stroke="midnightblue" points="355.646,-27.0744 346.413,-21.879 350.391,-31.6986 355.646,-27.0744"/>
</g>
<!-- Node13 -->
<g id="node26" class="node"><title>Node13</title>
<polygon fill="white" stroke="#bfbfbf" points="257.5,-58.5 257.5,-79.5 288.5,-79.5 288.5,-58.5 257.5,-58.5"/>
<text text-anchor="middle" x="273" y="-66.5" font-family="Helvetica,sans-Serif" font-size="10.00">set</text>
</g>
<!-- Node9&#45;&gt;Node13 -->
<g id="edge26" class="edge"><title>Node9&#45;&gt;Node13</title>
<path fill="none" stroke="midnightblue" d="M296.681,-116.362C292.797,-108.595 287.421,-97.8426 282.773,-88.5458"/>
<polygon fill="midnightblue" stroke="midnightblue" points="285.888,-86.9497 278.285,-79.5707 279.627,-90.0802 285.888,-86.9497"/>
</g>
<!-- Node9&#45;&gt;Node14 -->
<g id="edge28" class="edge"><title>Node9&#45;&gt;Node14</title>
<path fill="none" stroke="midnightblue" d="M334.597,-116.497C364.803,-106.763 409.816,-92.2594 442.147,-81.8416"/>
<polygon fill="midnightblue" stroke="midnightblue" points="443.298,-85.1479 451.743,-78.7495 441.151,-78.4852 443.298,-85.1479"/>
</g>
<!-- Node15 -->
<g id="node30" class="node"><title>Node15</title>
<polygon fill="white" stroke="#bfbfbf" points="305.5,-58.5 305.5,-79.5 358.5,-79.5 358.5,-58.5 305.5,-58.5"/>
<text text-anchor="middle" x="332" y="-66.5" font-family="Helvetica,sans-Serif" font-size="10.00">Mutex.h</text>
</g>
<!-- Node9&#45;&gt;Node15 -->
<g id="edge30" class="edge"><title>Node9&#45;&gt;Node15</title>
<path fill="none" stroke="midnightblue" d="M307.502,-116.362C311.52,-108.595 317.081,-97.8426 321.89,-88.5458"/>
<polygon fill="midnightblue" stroke="midnightblue" points="325.047,-90.0608 326.532,-79.5707 318.829,-86.8448 325.047,-90.0608"/>
</g>
<!-- Node16 -->
<g id="node32" class="node"><title>Node16</title>
<a xlink:href="CmdResourceHandlers_8h.htm" target="_top" xlink:title="CmdResourceHandlers.h">
<polygon fill="white" stroke="black" points="106,-58.5 106,-79.5 240,-79.5 240,-58.5 106,-58.5"/>
<text text-anchor="middle" x="173" y="-66.5" font-family="Helvetica,sans-Serif" font-size="10.00">CmdResourceHandlers.h</text>
</a>
</g>
<!-- Node9&#45;&gt;Node16 -->
<g id="edge32" class="edge"><title>Node9&#45;&gt;Node16</title>
<path fill="none" stroke="midnightblue" d="M278.639,-116.497C258.309,-107.356 228.622,-94.0082 205.891,-83.7883"/>
<polygon fill="midnightblue" stroke="midnightblue" points="207.179,-80.5298 196.623,-79.6212 204.308,-86.9142 207.179,-80.5298"/>
</g>
<!-- Node16&#45;&gt;Node2 -->
<g id="edge34" class="edge"><title>Node16&#45;&gt;Node2</title>
<path fill="none" stroke="midnightblue" d="M147.647,-58.4966C125.387,-49.2746 92.7884,-35.7695 68.0369,-25.5153"/>
<polygon fill="midnightblue" stroke="midnightblue" points="69.2156,-22.2152 58.6374,-21.6212 66.5364,-28.6822 69.2156,-22.2152"/>
</g>
<!-- Node16&#45;&gt;Node10 -->
<g id="edge40" class="edge"><title>Node16&#45;&gt;Node10</title>
<path fill="none" stroke="midnightblue" d="M215.557,-58.4966C261.891,-47.0608 334.911,-29.039 376.408,-18.7971"/>
<polygon fill="midnightblue" stroke="midnightblue" points="377.374,-22.1638 386.244,-16.3695 375.697,-15.3678 377.374,-22.1638"/>
</g>
<!-- Node16&#45;&gt;Node11 -->
<g id="edge42" class="edge"><title>Node16&#45;&gt;Node11</title>
<path fill="none" stroke="midnightblue" d="M160.895,-58.3619C151.312,-49.9408 137.736,-38.0105 126.607,-28.2308"/>
<polygon fill="midnightblue" stroke="midnightblue" points="128.851,-25.5427 119.029,-21.5707 124.23,-30.8009 128.851,-25.5427"/>
</g>
<!-- Node16&#45;&gt;Node12 -->
<g id="edge44" class="edge"><title>Node16&#45;&gt;Node12</title>
<path fill="none" stroke="midnightblue" d="M202.337,-58.4966C232.026,-47.8673 277.607,-31.548 306.86,-21.0748"/>
<polygon fill="midnightblue" stroke="midnightblue" points="308.238,-24.299 316.473,-17.633 305.879,-17.7086 308.238,-24.299"/>
</g>
<!-- Node17 -->
<g id="node35" class="node"><title>Node17</title>
<polygon fill="white" stroke="#bfbfbf" points="216,-0.5 216,-21.5 268,-21.5 268,-0.5 216,-0.5"/>
<text text-anchor="middle" x="242" y="-8.5" font-family="Helvetica,sans-Serif" font-size="10.00">regex.h</text>
</g>
<!-- Node16&#45;&gt;Node17 -->
<g id="edge36" class="edge"><title>Node16&#45;&gt;Node17</title>
<path fill="none" stroke="midnightblue" d="M185.656,-58.3619C195.674,-49.9408 209.867,-38.0105 221.501,-28.2308"/>
<polygon fill="midnightblue" stroke="midnightblue" points="224.022,-30.6844 229.425,-21.5707 219.518,-25.326 224.022,-30.6844"/>
</g>
<!-- Node18 -->
<g id="node37" class="node"><title>Node18</title>
<polygon fill="white" stroke="#bfbfbf" points="148,-0.5 148,-21.5 198,-21.5 198,-0.5 148,-0.5"/>
<text text-anchor="middle" x="173" y="-8.5" font-family="Helvetica,sans-Serif" font-size="10.00">stdint.h</text>
</g>
<!-- Node16&#45;&gt;Node18 -->
<g id="edge38" class="edge"><title>Node16&#45;&gt;Node18</title>
<path fill="none" stroke="midnightblue" d="M173,-58.3619C173,-50.9219 173,-40.7427 173,-31.7276"/>
<polygon fill="midnightblue" stroke="midnightblue" points="176.5,-31.5706 173,-21.5707 169.5,-31.5707 176.5,-31.5706"/>
</g>
</g>
</svg>
