<?xml version="1.0" encoding="UTF-8" standalone="no"?>
<!DOCTYPE svg PUBLIC "-//W3C//DTD SVG 1.1//EN"
 "http://www.w3.org/Graphics/SVG/1.1/DTD/svg11.dtd">
<!-- Generated by graphviz version 2.26.3 (20100126.1600)
 -->
<!-- Title: MouseEventEater.h Pages: 1 -->
<svg width="2394pt" height="262pt"
 viewBox="0.00 0.00 2394.00 262.00" xmlns="http://www.w3.org/2000/svg" xmlns:xlink="http://www.w3.org/1999/xlink">
<g id="graph1" class="graph" transform="scale(1 1) rotate(0) translate(4 258)">
<title>MouseEventEater.h</title>
<polygon fill="white" stroke="white" points="-4,5 -4,-258 2391,-258 2391,5 -4,5"/>
<!-- Node1 -->
<g id="node1" class="node"><title>Node1</title>
<polygon fill="#bfbfbf" stroke="black" points="323.5,-232.5 323.5,-253.5 432.5,-253.5 432.5,-232.5 323.5,-232.5"/>
<text text-anchor="middle" x="378" y="-240.5" font-family="Helvetica,sans-Serif" font-size="10.00">MouseEventEater.h</text>
</g>
<!-- Node2 -->
<g id="node3" class="node"><title>Node2</title>
<polygon fill="white" stroke="#bfbfbf" points="-0.5,-174.5 -0.5,-195.5 76.5,-195.5 76.5,-174.5 -0.5,-174.5"/>
<text text-anchor="middle" x="38" y="-182.5" font-family="Helvetica,sans-Serif" font-size="10.00">QApplication</text>
</g>
<!-- Node1&#45;&gt;Node2 -->
<g id="edge2" class="edge"><title>Node1&#45;&gt;Node2</title>
<path fill="none" stroke="midnightblue" d="M323.253,-235.402C266.371,-227.241 174.576,-213.33 86.5619,-196.22"/>
<polygon fill="midnightblue" stroke="midnightblue" points="87.1684,-192.772 76.6817,-194.282 85.8212,-199.641 87.1684,-192.772"/>
</g>
<!-- Node3 -->
<g id="node5" class="node"><title>Node3</title>
<polygon fill="white" stroke="#bfbfbf" points="94,-174.5 94,-195.5 250,-195.5 250,-174.5 94,-174.5"/>
<text text-anchor="middle" x="172" y="-182.5" font-family="Helvetica,sans-Serif" font-size="10.00">QGraphicsSceneMouseEvent</text>
</g>
<!-- Node1&#45;&gt;Node3 -->
<g id="edge4" class="edge"><title>Node1&#45;&gt;Node3</title>
<path fill="none" stroke="midnightblue" d="M340.695,-232.497C306.675,-222.918 256.245,-208.72 219.386,-198.342"/>
<polygon fill="midnightblue" stroke="midnightblue" points="219.949,-194.864 209.375,-195.523 218.052,-201.602 219.949,-194.864"/>
</g>
<!-- Node4 -->
<g id="node7" class="node"><title>Node4</title>
<polygon fill="white" stroke="#bfbfbf" points="267.5,-174.5 267.5,-195.5 350.5,-195.5 350.5,-174.5 267.5,-174.5"/>
<text text-anchor="middle" x="309" y="-182.5" font-family="Helvetica,sans-Serif" font-size="10.00">QMouseEvent</text>
</g>
<!-- Node1&#45;&gt;Node4 -->
<g id="edge6" class="edge"><title>Node1&#45;&gt;Node4</title>
<path fill="none" stroke="midnightblue" d="M365.344,-232.362C355.326,-223.941 341.133,-212.011 329.499,-202.231"/>
<polygon fill="midnightblue" stroke="midnightblue" points="331.482,-199.326 321.575,-195.571 326.978,-204.684 331.482,-199.326"/>
</g>
<!-- Node5 -->
<g id="node9" class="node"><title>Node5</title>
<polygon fill="white" stroke="#bfbfbf" points="299.5,-58.5 299.5,-79.5 354.5,-79.5 354.5,-58.5 299.5,-58.5"/>
<text text-anchor="middle" x="327" y="-66.5" font-family="Helvetica,sans-Serif" font-size="10.00">QObject</text>
</g>
<!-- Node1&#45;&gt;Node5 -->
<g id="edge8" class="edge"><title>Node1&#45;&gt;Node5</title>
<path fill="none" stroke="midnightblue" d="M375.128,-232.218C371.483,-218.617 364.952,-194.525 359,-174 350.457,-144.542 340.008,-110.623 333.426,-89.4947"/>
<polygon fill="midnightblue" stroke="midnightblue" points="336.69,-88.2048 330.367,-79.7034 330.008,-90.2922 336.69,-88.2048"/>
</g>
<!-- Node6 -->
<g id="node11" class="node"><title>Node6</title>
<polygon fill="white" stroke="#bfbfbf" points="406,-174.5 406,-195.5 464,-195.5 464,-174.5 406,-174.5"/>
<text text-anchor="middle" x="435" y="-182.5" font-family="Helvetica,sans-Serif" font-size="10.00">QWidget</text>
</g>
<!-- Node1&#45;&gt;Node6 -->
<g id="edge10" class="edge"><title>Node1&#45;&gt;Node6</title>
<path fill="none" stroke="midnightblue" d="M388.455,-232.362C396.57,-224.104 408.001,-212.472 417.504,-202.803"/>
<polygon fill="midnightblue" stroke="midnightblue" points="420.099,-205.156 424.612,-195.571 415.106,-200.25 420.099,-205.156"/>
</g>
<!-- Node7 -->
<g id="node13" class="node"><title>Node7</title>
<polygon fill="white" stroke="#bfbfbf" points="481.5,-174.5 481.5,-195.5 552.5,-195.5 552.5,-174.5 481.5,-174.5"/>
<text text-anchor="middle" x="517" y="-182.5" font-family="Helvetica,sans-Serif" font-size="10.00">HostBase.h</text>
</g>
<!-- Node1&#45;&gt;Node7 -->
<g id="edge12" class="edge"><title>Node1&#45;&gt;Node7</title>
<path fill="none" stroke="midnightblue" d="M403.172,-232.497C425.273,-223.275 457.639,-209.769 482.213,-199.515"/>
<polygon fill="midnightblue" stroke="midnightblue" points="483.665,-202.702 491.546,-195.621 480.969,-196.242 483.665,-202.702"/>
</g>
<!-- Node8 -->
<g id="node15" class="node"><title>Node8</title>
<a xlink:href="WindowServer_8h.htm" target="_top" xlink:title="WindowServer.h">
<polygon fill="white" stroke="black" points="1452,-174.5 1452,-195.5 1546,-195.5 1546,-174.5 1452,-174.5"/>
<text text-anchor="middle" x="1499" y="-182.5" font-family="Helvetica,sans-Serif" font-size="10.00">WindowServer.h</text>
</a>
</g>
<!-- Node1&#45;&gt;Node8 -->
<g id="edge14" class="edge"><title>Node1&#45;&gt;Node8</title>
<path fill="none" stroke="midnightblue" d="M432.827,-240.163C622.314,-230.359 1248.49,-197.961 1441.71,-187.964"/>
<polygon fill="midnightblue" stroke="midnightblue" points="1442.12,-191.448 1451.93,-187.435 1441.76,-184.457 1442.12,-191.448"/>
</g>
<!-- Node8&#45;&gt;Node5 -->
<g id="edge144" class="edge"><title>Node8&#45;&gt;Node5</title>
<path fill="none" stroke="midnightblue" d="M1451.73,-183.88C1289.28,-179.828 754.606,-164.736 585,-138 505.088,-125.403 414.258,-97.9249 364.514,-81.7022"/>
<polygon fill="midnightblue" stroke="midnightblue" points="365.428,-78.3184 354.835,-78.5181 363.241,-84.9678 365.428,-78.3184"/>
</g>
<!-- Node9 -->
<g id="node17" class="node"><title>Node9</title>
<polygon fill="white" stroke="#bfbfbf" points="1254.5,-0.5 1254.5,-21.5 1321.5,-21.5 1321.5,-0.5 1254.5,-0.5"/>
<text text-anchor="middle" x="1288" y="-8.5" font-family="Helvetica,sans-Serif" font-size="10.00">Common.h</text>
</g>
<!-- Node8&#45;&gt;Node9 -->
<g id="edge16" class="edge"><title>Node8&#45;&gt;Node9</title>
<path fill="none" stroke="midnightblue" d="M1451.94,-180.255C1418.1,-174.79 1372.98,-163.072 1341,-138 1307.47,-111.715 1294.94,-60.4239 1290.42,-31.7197"/>
<polygon fill="midnightblue" stroke="midnightblue" points="1293.85,-31.0175 1289.01,-21.5941 1286.92,-31.9806 1293.85,-31.0175"/>
</g>
<!-- Node10 -->
<g id="node19" class="node"><title>Node10</title>
<polygon fill="white" stroke="#bfbfbf" points="977.5,-0.5 977.5,-21.5 1006.5,-21.5 1006.5,-0.5 977.5,-0.5"/>
<text text-anchor="middle" x="992" y="-8.5" font-family="Helvetica,sans-Serif" font-size="10.00">list</text>
</g>
<!-- Node8&#45;&gt;Node10 -->
<g id="edge18" class="edge"><title>Node8&#45;&gt;Node10</title>
<path fill="none" stroke="midnightblue" d="M1451.91,-183.139C1362.8,-178.984 1173.18,-166.941 1115,-138 1064.66,-112.959 1023.39,-58.7312 1003.98,-29.9054"/>
<polygon fill="midnightblue" stroke="midnightblue" points="1006.88,-27.9438 998.46,-21.5081 1001.03,-31.7875 1006.88,-27.9438"/>
</g>
<!-- Node11 -->
<g id="node21" class="node"><title>Node11</title>
<polygon fill="white" stroke="#bfbfbf" points="1131.5,-0.5 1131.5,-21.5 1174.5,-21.5 1174.5,-0.5 1131.5,-0.5"/>
<text text-anchor="middle" x="1153" y="-8.5" font-family="Helvetica,sans-Serif" font-size="10.00">string</text>
</g>
<!-- Node8&#45;&gt;Node11 -->
<g id="edge20" class="edge"><title>Node8&#45;&gt;Node11</title>
<path fill="none" stroke="midnightblue" d="M1451.75,-183.501C1367.8,-180.062 1196.77,-169.323 1147,-138 1113.69,-117.032 1094.54,-94.6098 1109,-58 1113.53,-46.5388 1122.32,-36.2323 1130.86,-28.2117"/>
<polygon fill="midnightblue" stroke="midnightblue" points="1133.28,-30.7411 1138.5,-21.5208 1128.67,-25.474 1133.28,-30.7411"/>
</g>
<!-- Node12 -->
<g id="node23" class="node"><title>Node12</title>
<a xlink:href="DisplayManager_8h.htm" target="_top" xlink:title="DisplayManager.h">
<polygon fill="white" stroke="black" points="594,-116.5 594,-137.5 696,-137.5 696,-116.5 594,-116.5"/>
<text text-anchor="middle" x="645" y="-124.5" font-family="Helvetica,sans-Serif" font-size="10.00">DisplayManager.h</text>
</a>
</g>
<!-- Node8&#45;&gt;Node12 -->
<g id="edge22" class="edge"><title>Node8&#45;&gt;Node12</title>
<path fill="none" stroke="midnightblue" d="M1451.87,-181.799C1307.14,-171.969 869.087,-142.219 706.559,-131.181"/>
<polygon fill="midnightblue" stroke="midnightblue" points="706.472,-127.667 696.258,-130.481 705.997,-134.651 706.472,-127.667"/>
</g>
<!-- Node22 -->
<g id="node51" class="node"><title>Node22</title>
<a xlink:href="InputManager_8h.htm" target="_top" xlink:title="InputManager.h">
<polygon fill="white" stroke="black" points="721.5,-58.5 721.5,-79.5 812.5,-79.5 812.5,-58.5 721.5,-58.5"/>
<text text-anchor="middle" x="767" y="-66.5" font-family="Helvetica,sans-Serif" font-size="10.00">InputManager.h</text>
</a>
</g>
<!-- Node8&#45;&gt;Node22 -->
<g id="edge58" class="edge"><title>Node8&#45;&gt;Node22</title>
<path fill="none" stroke="midnightblue" d="M1451.83,-183.182C1332.83,-178.27 1022.79,-163.367 923,-138 875.864,-126.018 825.005,-101.013 794.598,-84.6252"/>
<polygon fill="midnightblue" stroke="midnightblue" points="795.928,-81.3632 785.475,-79.6346 792.568,-87.5044 795.928,-81.3632"/>
</g>
<!-- Node25 -->
<g id="node62" class="node"><title>Node25</title>
<polygon fill="white" stroke="#bfbfbf" points="932,-116.5 932,-137.5 1024,-137.5 1024,-116.5 932,-116.5"/>
<text text-anchor="middle" x="978" y="-124.5" font-family="Helvetica,sans-Serif" font-size="10.00">CustomEvents.h</text>
</g>
<!-- Node8&#45;&gt;Node25 -->
<g id="edge74" class="edge"><title>Node8&#45;&gt;Node25</title>
<path fill="none" stroke="midnightblue" d="M1451.73,-181.432C1368.07,-174.839 1188.53,-159.437 1038,-138 1036.73,-137.819 1035.45,-137.631 1034.16,-137.437"/>
<polygon fill="midnightblue" stroke="midnightblue" points="1034.55,-133.956 1024.13,-135.84 1033.45,-140.869 1034.55,-133.956"/>
</g>
<!-- Node26 -->
<g id="node64" class="node"><title>Node26</title>
<a xlink:href="VariantAnimation_8h.htm" target="_top" xlink:title="VariantAnimation.h">
<polygon fill="white" stroke="black" points="1155.5,-116.5 1155.5,-137.5 1260.5,-137.5 1260.5,-116.5 1155.5,-116.5"/>
<text text-anchor="middle" x="1208" y="-124.5" font-family="Helvetica,sans-Serif" font-size="10.00">VariantAnimation.h</text>
</a>
</g>
<!-- Node8&#45;&gt;Node26 -->
<g id="edge76" class="edge"><title>Node8&#45;&gt;Node26</title>
<path fill="none" stroke="midnightblue" d="M1451.92,-175.617C1402.63,-165.792 1324.97,-150.314 1270.55,-139.467"/>
<polygon fill="midnightblue" stroke="midnightblue" points="1271.17,-136.021 1260.67,-137.499 1269.8,-142.886 1271.17,-136.021"/>
</g>
<!-- Node28 -->
<g id="node69" class="node"><title>Node28</title>
<a xlink:href="HostWindow_8h.htm" target="_top" xlink:title="HostWindow.h">
<polygon fill="white" stroke="black" points="1350,-116.5 1350,-137.5 1434,-137.5 1434,-116.5 1350,-116.5"/>
<text text-anchor="middle" x="1392" y="-124.5" font-family="Helvetica,sans-Serif" font-size="10.00">HostWindow.h</text>
</a>
</g>
<!-- Node8&#45;&gt;Node28 -->
<g id="edge82" class="edge"><title>Node8&#45;&gt;Node28</title>
<path fill="none" stroke="midnightblue" d="M1479.37,-174.362C1462.86,-165.409 1439.03,-152.491 1420.42,-142.406"/>
<polygon fill="midnightblue" stroke="midnightblue" points="1421.96,-139.259 1411.5,-137.571 1418.62,-145.413 1421.96,-139.259"/>
</g>
<!-- Node33 -->
<g id="node82" class="node"><title>Node33</title>
<polygon fill="white" stroke="#bfbfbf" points="1830,-0.5 1830,-21.5 1928,-21.5 1928,-0.5 1830,-0.5"/>
<text text-anchor="middle" x="1879" y="-8.5" font-family="Helvetica,sans-Serif" font-size="10.00">QGraphicsObject</text>
</g>
<!-- Node8&#45;&gt;Node33 -->
<g id="edge140" class="edge"><title>Node8&#45;&gt;Node33</title>
<path fill="none" stroke="midnightblue" d="M1501.46,-174.433C1505.72,-158.708 1516.12,-129.55 1537,-116 1617.06,-64.0401 1900.4,-150.263 1965,-80 1984.67,-58.6097 1950.77,-38.3262 1919.92,-25.3577"/>
<polygon fill="midnightblue" stroke="midnightblue" points="1921.09,-22.0559 1910.51,-21.5748 1918.48,-28.5511 1921.09,-22.0559"/>
</g>
<!-- Node35 -->
<g id="node88" class="node"><title>Node35</title>
<polygon fill="white" stroke="#bfbfbf" points="2075.5,-0.5 2075.5,-21.5 2134.5,-21.5 2134.5,-0.5 2075.5,-0.5"/>
<text text-anchor="middle" x="2105" y="-8.5" font-family="Helvetica,sans-Serif" font-size="10.00">QPixmap</text>
</g>
<!-- Node8&#45;&gt;Node35 -->
<g id="edge152" class="edge"><title>Node8&#45;&gt;Node35</title>
<path fill="none" stroke="midnightblue" d="M1546.02,-184.268C1681.85,-181.758 2067.95,-171.704 2113,-138 2142.53,-115.909 2145.33,-93.3978 2135,-58 2132.05,-47.9004 2126.2,-37.9047 2120.44,-29.7452"/>
<polygon fill="midnightblue" stroke="midnightblue" points="2123.18,-27.5714 2114.37,-21.694 2117.6,-31.7858 2123.18,-27.5714"/>
</g>
<!-- Node39 -->
<g id="node97" class="node"><title>Node39</title>
<a xlink:href="ProgressAnimation_8h.htm" target="_top" xlink:title="ProgressAnimation.h">
<polygon fill="white" stroke="black" points="2012,-58.5 2012,-79.5 2126,-79.5 2126,-58.5 2012,-58.5"/>
<text text-anchor="middle" x="2069" y="-66.5" font-family="Helvetica,sans-Serif" font-size="10.00">ProgressAnimation.h</text>
</a>
</g>
<!-- Node8&#45;&gt;Node39 -->
<g id="edge116" class="edge"><title>Node8&#45;&gt;Node39</title>
<path fill="none" stroke="midnightblue" d="M1546.21,-183.023C1684.2,-177.019 2078.35,-158.169 2097,-138 2110.18,-123.743 2098.26,-102.466 2086.15,-87.3124"/>
<polygon fill="midnightblue" stroke="midnightblue" points="2088.72,-84.9341 2079.56,-79.6074 2083.4,-89.4828 2088.72,-84.9341"/>
</g>
<!-- Node42 -->
<g id="node106" class="node"><title>Node42</title>
<a xlink:href="TouchPlot_8h.htm" target="_top" xlink:title="TouchPlot.h">
<polygon fill="white" stroke="black" points="1884,-58.5 1884,-79.5 1956,-79.5 1956,-58.5 1884,-58.5"/>
<text text-anchor="middle" x="1920" y="-66.5" font-family="Helvetica,sans-Serif" font-size="10.00">TouchPlot.h</text>
</a>
</g>
<!-- Node8&#45;&gt;Node42 -->
<g id="edge128" class="edge"><title>Node8&#45;&gt;Node42</title>
<path fill="none" stroke="midnightblue" d="M1496.07,-174.458C1492.56,-159.299 1488.9,-131.472 1504,-116 1559.82,-58.8032 1777.28,-91.3768 1873.7,-79.7841"/>
<polygon fill="midnightblue" stroke="midnightblue" points="1874.35,-83.2271 1883.74,-78.3345 1873.35,-76.2988 1874.35,-83.2271"/>
</g>
<!-- Node43 -->
<g id="node111" class="node"><title>Node43</title>
<polygon fill="white" stroke="#bfbfbf" points="2151.5,-0.5 2151.5,-21.5 2232.5,-21.5 2232.5,-0.5 2151.5,-0.5"/>
<text text-anchor="middle" x="2192" y="-8.5" font-family="Helvetica,sans-Serif" font-size="10.00">QTouchEvent</text>
</g>
<!-- Node8&#45;&gt;Node43 -->
<g id="edge142" class="edge"><title>Node8&#45;&gt;Node43</title>
<path fill="none" stroke="midnightblue" d="M1546.29,-184.308C1685.84,-181.883 2089.19,-171.977 2137,-138 2172.08,-113.07 2185,-60.8535 2189.59,-31.7382"/>
<polygon fill="midnightblue" stroke="midnightblue" points="2193.06,-32.2029 2190.97,-21.8157 2186.13,-31.2373 2193.06,-32.2029"/>
</g>
<!-- Node44 -->
<g id="node113" class="node"><title>Node44</title>
<polygon fill="white" stroke="#bfbfbf" points="1546,-116.5 1546,-137.5 1636,-137.5 1636,-116.5 1546,-116.5"/>
<text text-anchor="middle" x="1591" y="-124.5" font-family="Helvetica,sans-Serif" font-size="10.00">QGraphicsView</text>
</g>
<!-- Node8&#45;&gt;Node44 -->
<g id="edge138" class="edge"><title>Node8&#45;&gt;Node44</title>
<path fill="none" stroke="midnightblue" d="M1515.87,-174.362C1529.75,-165.614 1549.63,-153.079 1565.46,-143.101"/>
<polygon fill="midnightblue" stroke="midnightblue" points="1567.64,-145.864 1574.23,-137.571 1563.91,-139.943 1567.64,-145.864"/>
</g>
<!-- Node45 -->
<g id="node118" class="node"><title>Node45</title>
<polygon fill="white" stroke="#bfbfbf" points="1654,-116.5 1654,-137.5 1710,-137.5 1710,-116.5 1654,-116.5"/>
<text text-anchor="middle" x="1682" y="-124.5" font-family="Helvetica,sans-Serif" font-size="10.00">QQueue</text>
</g>
<!-- Node8&#45;&gt;Node45 -->
<g id="edge146" class="edge"><title>Node8&#45;&gt;Node45</title>
<path fill="none" stroke="midnightblue" d="M1532.14,-174.497C1563.69,-164.497 1611.13,-149.462 1644.15,-138.996"/>
<polygon fill="midnightblue" stroke="midnightblue" points="1645.43,-142.263 1653.9,-135.905 1643.31,-135.59 1645.43,-142.263"/>
</g>
<!-- Node46 -->
<g id="node120" class="node"><title>Node46</title>
<polygon fill="white" stroke="#bfbfbf" points="1728,-116.5 1728,-137.5 1776,-137.5 1776,-116.5 1728,-116.5"/>
<text text-anchor="middle" x="1752" y="-124.5" font-family="Helvetica,sans-Serif" font-size="10.00">QTime</text>
</g>
<!-- Node8&#45;&gt;Node46 -->
<g id="edge148" class="edge"><title>Node8&#45;&gt;Node46</title>
<path fill="none" stroke="midnightblue" d="M1546.14,-176.504C1588.75,-168.472 1653.34,-155.427 1717.99,-138.07"/>
<polygon fill="midnightblue" stroke="midnightblue" points="1719.21,-141.364 1727.94,-135.363 1717.38,-134.61 1719.21,-141.364"/>
</g>
<!-- Node47 -->
<g id="node122" class="node"><title>Node47</title>
<polygon fill="white" stroke="#bfbfbf" points="1794,-116.5 1794,-137.5 1846,-137.5 1846,-116.5 1794,-116.5"/>
<text text-anchor="middle" x="1820" y="-124.5" font-family="Helvetica,sans-Serif" font-size="10.00">QTimer</text>
</g>
<!-- Node8&#45;&gt;Node47 -->
<g id="edge150" class="edge"><title>Node8&#45;&gt;Node47</title>
<path fill="none" stroke="midnightblue" d="M1546.22,-179.326C1601.2,-172.258 1694.83,-158.798 1783.76,-138.056"/>
<polygon fill="midnightblue" stroke="midnightblue" points="1784.81,-141.403 1793.74,-135.692 1783.2,-134.591 1784.81,-141.403"/>
</g>
<!-- Node48 -->
<g id="node125" class="node"><title>Node48</title>
<polygon fill="white" stroke="#bfbfbf" points="1864,-116.5 1864,-137.5 1932,-137.5 1932,-116.5 1864,-116.5"/>
<text text-anchor="middle" x="1898" y="-124.5" font-family="Helvetica,sans-Serif" font-size="10.00">QMultiMap</text>
</g>
<!-- Node8&#45;&gt;Node48 -->
<g id="edge154" class="edge"><title>Node8&#45;&gt;Node48</title>
<path fill="none" stroke="midnightblue" d="M1546.22,-180.576C1612.74,-173.947 1737.93,-160.016 1853.72,-138.075"/>
<polygon fill="midnightblue" stroke="midnightblue" points="1854.65,-141.459 1863.82,-136.136 1853.33,-134.585 1854.65,-141.459"/>
</g>
<!-- Node49 -->
<g id="node127" class="node"><title>Node49</title>
<polygon fill="white" stroke="#bfbfbf" points="1949.5,-116.5 1949.5,-137.5 2008.5,-137.5 2008.5,-116.5 1949.5,-116.5"/>
<text text-anchor="middle" x="1979" y="-124.5" font-family="Helvetica,sans-Serif" font-size="10.00">QPointer</text>
</g>
<!-- Node8&#45;&gt;Node49 -->
<g id="edge156" class="edge"><title>Node8&#45;&gt;Node49</title>
<path fill="none" stroke="midnightblue" d="M1546.18,-182.711C1625.63,-178.264 1791.18,-166.457 1939.08,-138.127"/>
<polygon fill="midnightblue" stroke="midnightblue" points="1940.1,-141.494 1949.25,-136.148 1938.77,-134.623 1940.1,-141.494"/>
</g>
<!-- Node50 -->
<g id="node129" class="node"><title>Node50</title>
<polygon fill="white" stroke="#bfbfbf" points="2026,-116.5 2026,-137.5 2088,-137.5 2088,-116.5 2026,-116.5"/>
<text text-anchor="middle" x="2057" y="-124.5" font-family="Helvetica,sans-Serif" font-size="10.00">QGesture</text>
</g>
<!-- Node8&#45;&gt;Node50 -->
<g id="edge158" class="edge"><title>Node8&#45;&gt;Node50</title>
<path fill="none" stroke="midnightblue" d="M1546.16,-183.526C1635.95,-180.115 1837.63,-169.545 2015.61,-137.992"/>
<polygon fill="midnightblue" stroke="midnightblue" points="2016.46,-141.396 2025.68,-136.18 2015.22,-134.507 2016.46,-141.396"/>
</g>
<!-- Node12&#45;&gt;Node5 -->
<g id="edge54" class="edge"><title>Node12&#45;&gt;Node5</title>
<path fill="none" stroke="midnightblue" d="M593.924,-119.806C538.132,-111.605 446.271,-97.1004 368,-80 366.92,-79.764 365.826,-79.518 364.723,-79.2638"/>
<polygon fill="midnightblue" stroke="midnightblue" points="365.248,-75.789 354.702,-76.8108 363.583,-82.5882 365.248,-75.789"/>
</g>
<!-- Node12&#45;&gt;Node9 -->
<g id="edge24" class="edge"><title>Node12&#45;&gt;Node9</title>
<path fill="none" stroke="midnightblue" d="M696.256,-121.706C764.676,-114.278 889.488,-99.4599 995,-80 1084.45,-63.5026 1187.7,-37.5432 1244.65,-22.6137"/>
<polygon fill="midnightblue" stroke="midnightblue" points="1245.61,-25.9794 1254.39,-20.0483 1243.83,-19.2101 1245.61,-25.9794"/>
</g>
<!-- Node13 -->
<g id="node26" class="node"><title>Node13</title>
<polygon fill="white" stroke="#bfbfbf" points="570,-0.5 570,-21.5 622,-21.5 622,-0.5 570,-0.5"/>
<text text-anchor="middle" x="596" y="-8.5" font-family="Helvetica,sans-Serif" font-size="10.00">Timer.h</text>
</g>
<!-- Node12&#45;&gt;Node13 -->
<g id="edge26" class="edge"><title>Node12&#45;&gt;Node13</title>
<path fill="none" stroke="midnightblue" d="M636.864,-116.323C630.185,-107.124 620.9,-93.2679 615,-80 608.069,-64.4124 603.107,-45.6977 599.996,-31.6938"/>
<polygon fill="midnightblue" stroke="midnightblue" points="603.364,-30.6972 597.896,-21.6225 596.511,-32.1265 603.364,-30.6972"/>
</g>
<!-- Node14 -->
<g id="node28" class="node"><title>Node14</title>
<polygon fill="white" stroke="#bfbfbf" points="515.5,-58.5 515.5,-79.5 568.5,-79.5 568.5,-58.5 515.5,-58.5"/>
<text text-anchor="middle" x="542" y="-66.5" font-family="Helvetica,sans-Serif" font-size="10.00">Mutex.h</text>
</g>
<!-- Node12&#45;&gt;Node14 -->
<g id="edge28" class="edge"><title>Node12&#45;&gt;Node14</title>
<path fill="none" stroke="midnightblue" d="M626.108,-116.362C610.282,-107.45 587.477,-94.6087 569.605,-84.5447"/>
<polygon fill="midnightblue" stroke="midnightblue" points="571.203,-81.4276 560.772,-79.5707 567.768,-87.5271 571.203,-81.4276"/>
</g>
<!-- Node15 -->
<g id="node30" class="node"><title>Node15</title>
<polygon fill="white" stroke="#bfbfbf" points="356,-0.5 356,-21.5 408,-21.5 408,-0.5 356,-0.5"/>
<text text-anchor="middle" x="382" y="-8.5" font-family="Helvetica,sans-Serif" font-size="10.00">Event.h</text>
</g>
<!-- Node12&#45;&gt;Node15 -->
<g id="edge30" class="edge"><title>Node12&#45;&gt;Node15</title>
<path fill="none" stroke="midnightblue" d="M593.873,-123.418C530.786,-117.963 428.48,-105.405 401,-80 387.785,-67.7829 383.442,-47.3019 382.161,-31.8194"/>
<polygon fill="midnightblue" stroke="midnightblue" points="385.648,-31.4455 381.687,-21.6188 378.655,-31.7706 385.648,-31.4455"/>
</g>
<!-- Node16 -->
<g id="node32" class="node"><title>Node16</title>
<polygon fill="white" stroke="#bfbfbf" points="623.5,-58.5 623.5,-79.5 666.5,-79.5 666.5,-58.5 623.5,-58.5"/>
<text text-anchor="middle" x="645" y="-66.5" font-family="Helvetica,sans-Serif" font-size="10.00">sptr.h</text>
</g>
<!-- Node12&#45;&gt;Node16 -->
<g id="edge32" class="edge"><title>Node12&#45;&gt;Node16</title>
<path fill="none" stroke="midnightblue" d="M645,-116.362C645,-108.922 645,-98.7427 645,-89.7276"/>
<polygon fill="midnightblue" stroke="midnightblue" points="648.5,-89.5706 645,-79.5707 641.5,-89.5707 648.5,-89.5706"/>
</g>
<!-- Node17 -->
<g id="node34" class="node"><title>Node17</title>
<a xlink:href="AmbientLightSensor_8h.htm" target="_top" xlink:title="AmbientLightSensor.h">
<polygon fill="white" stroke="black" points="867.5,-58.5 867.5,-79.5 986.5,-79.5 986.5,-58.5 867.5,-58.5"/>
<text text-anchor="middle" x="927" y="-66.5" font-family="Helvetica,sans-Serif" font-size="10.00">AmbientLightSensor.h</text>
</a>
</g>
<!-- Node12&#45;&gt;Node17 -->
<g id="edge34" class="edge"><title>Node12&#45;&gt;Node17</title>
<path fill="none" stroke="midnightblue" d="M696.068,-116.497C743.833,-106.673 815.229,-91.9884 865.975,-81.5512"/>
<polygon fill="midnightblue" stroke="midnightblue" points="866.746,-84.966 875.836,-79.5231 865.336,-78.1095 866.746,-84.966"/>
</g>
<!-- Node18 -->
<g id="node37" class="node"><title>Node18</title>
<polygon fill="white" stroke="#bfbfbf" points="838,-0.5 838,-21.5 916,-21.5 916,-0.5 838,-0.5"/>
<text text-anchor="middle" x="877" y="-8.5" font-family="Helvetica,sans-Serif" font-size="10.00">lunaservice.h</text>
</g>
<!-- Node12&#45;&gt;Node18 -->
<g id="edge56" class="edge"><title>Node12&#45;&gt;Node18</title>
<path fill="none" stroke="midnightblue" d="M696.199,-121.87C733.283,-116.213 783.312,-104.423 821,-80 840.299,-67.4934 856.11,-46.1573 865.952,-30.5144"/>
<polygon fill="midnightblue" stroke="midnightblue" points="869.134,-32.014 871.286,-21.64 863.134,-28.4078 869.134,-32.014"/>
</g>
<!-- Node19 -->
<g id="node40" class="node"><title>Node19</title>
<a xlink:href="DisplayStates_8h.htm" target="_top" xlink:title="DisplayStates.h">
<polygon fill="white" stroke="black" points="409.5,-58.5 409.5,-79.5 498.5,-79.5 498.5,-58.5 409.5,-58.5"/>
<text text-anchor="middle" x="454" y="-66.5" font-family="Helvetica,sans-Serif" font-size="10.00">DisplayStates.h</text>
</a>
</g>
<!-- Node12&#45;&gt;Node19 -->
<g id="edge42" class="edge"><title>Node12&#45;&gt;Node19</title>
<path fill="none" stroke="midnightblue" d="M610.411,-116.497C579.004,-106.959 532.51,-92.8408 498.375,-82.475"/>
<polygon fill="midnightblue" stroke="midnightblue" points="499.239,-79.0798 488.654,-79.5231 497.205,-85.7778 499.239,-79.0798"/>
</g>
<!-- Node21 -->
<g id="node47" class="node"><title>Node21</title>
<polygon fill="white" stroke="#bfbfbf" points="668,-0.5 668,-21.5 720,-21.5 720,-0.5 668,-0.5"/>
<text text-anchor="middle" x="694" y="-8.5" font-family="Helvetica,sans-Serif" font-size="10.00">QEvent</text>
</g>
<!-- Node12&#45;&gt;Node21 -->
<g id="edge52" class="edge"><title>Node12&#45;&gt;Node21</title>
<path fill="none" stroke="midnightblue" d="M653.136,-116.323C659.815,-107.124 669.1,-93.2679 675,-80 681.931,-64.4124 686.893,-45.6977 690.004,-31.6938"/>
<polygon fill="midnightblue" stroke="midnightblue" points="693.489,-32.1265 692.104,-21.6225 686.636,-30.6972 693.489,-32.1265"/>
</g>
<!-- Node17&#45;&gt;Node9 -->
<g id="edge36" class="edge"><title>Node17&#45;&gt;Node9</title>
<path fill="none" stroke="midnightblue" d="M986.612,-59.4225C1059.08,-47.7798 1179.65,-28.4073 1244.14,-18.0465"/>
<polygon fill="midnightblue" stroke="midnightblue" points="1245.05,-21.4449 1254.37,-16.4028 1243.94,-14.5335 1245.05,-21.4449"/>
</g>
<!-- Node17&#45;&gt;Node10 -->
<g id="edge40" class="edge"><title>Node17&#45;&gt;Node10</title>
<path fill="none" stroke="midnightblue" d="M938.922,-58.3619C948.359,-49.9408 961.73,-38.0105 972.69,-28.2308"/>
<polygon fill="midnightblue" stroke="midnightblue" points="975.022,-30.8401 980.154,-21.5707 970.362,-25.6171 975.022,-30.8401"/>
</g>
<!-- Node17&#45;&gt;Node18 -->
<g id="edge38" class="edge"><title>Node17&#45;&gt;Node18</title>
<path fill="none" stroke="midnightblue" d="M917.829,-58.3619C910.852,-50.2678 901.079,-38.9318 892.844,-29.3796"/>
<polygon fill="midnightblue" stroke="midnightblue" points="895.293,-26.8595 886.113,-21.5707 889.991,-31.4301 895.293,-26.8595"/>
</g>
<!-- Node19&#45;&gt;Node9 -->
<g id="edge44" class="edge"><title>Node19&#45;&gt;Node9</title>
<path fill="none" stroke="midnightblue" d="M498.739,-59.218C501.527,-58.7625 504.297,-58.3504 507,-58 805.373,-19.3183 883.063,-45.6818 1183,-22 1203.2,-20.4054 1225.53,-18.1371 1244.38,-16.0742"/>
<polygon fill="midnightblue" stroke="midnightblue" points="1244.91,-19.537 1254.47,-14.9549 1244.14,-12.5797 1244.91,-19.537"/>
</g>
<!-- Node19&#45;&gt;Node13 -->
<g id="edge46" class="edge"><title>Node19&#45;&gt;Node13</title>
<path fill="none" stroke="midnightblue" d="M479.715,-58.4966C502.293,-49.2746 535.358,-35.7695 560.463,-25.5153"/>
<polygon fill="midnightblue" stroke="midnightblue" points="562.062,-28.6427 569.996,-21.6212 559.415,-22.1624 562.062,-28.6427"/>
</g>
<!-- Node19&#45;&gt;Node15 -->
<g id="edge48" class="edge"><title>Node19&#45;&gt;Node15</title>
<path fill="none" stroke="midnightblue" d="M440.794,-58.3619C430.239,-49.859 415.242,-37.7785 403.037,-27.9466"/>
<polygon fill="midnightblue" stroke="midnightblue" points="405.105,-25.1183 395.122,-21.5707 400.714,-30.5696 405.105,-25.1183"/>
</g>
<!-- Node20 -->
<g id="node45" class="node"><title>Node20</title>
<polygon fill="white" stroke="#bfbfbf" points="425.5,-0.5 425.5,-21.5 488.5,-21.5 488.5,-0.5 425.5,-0.5"/>
<text text-anchor="middle" x="457" y="-8.5" font-family="Helvetica,sans-Serif" font-size="10.00">Settings.h</text>
</g>
<!-- Node19&#45;&gt;Node20 -->
<g id="edge50" class="edge"><title>Node19&#45;&gt;Node20</title>
<path fill="none" stroke="midnightblue" d="M454.55,-58.3619C454.935,-50.9219 455.462,-40.7427 455.928,-31.7276"/>
<polygon fill="midnightblue" stroke="midnightblue" points="459.432,-31.7381 456.453,-21.5707 452.441,-31.3765 459.432,-31.7381"/>
</g>
<!-- Node22&#45;&gt;Node9 -->
<g id="edge60" class="edge"><title>Node22&#45;&gt;Node9</title>
<path fill="none" stroke="midnightblue" d="M812.85,-63.4276C827.583,-61.6612 843.977,-59.721 859,-58 999.589,-41.8944 1166.24,-23.9713 1243.97,-15.6786"/>
<polygon fill="midnightblue" stroke="midnightblue" points="1244.77,-19.1139 1254.34,-14.5735 1244.02,-12.1533 1244.77,-19.1139"/>
</g>
<!-- Node22&#45;&gt;Node11 -->
<g id="edge62" class="edge"><title>Node22&#45;&gt;Node11</title>
<path fill="none" stroke="midnightblue" d="M812.795,-62.1189C892.031,-50.2129 1052.77,-26.0608 1121.1,-15.7928"/>
<polygon fill="midnightblue" stroke="midnightblue" points="1121.88,-19.2153 1131.25,-14.2681 1120.84,-12.293 1121.88,-19.2153"/>
</g>
<!-- Node22&#45;&gt;Node13 -->
<g id="edge72" class="edge"><title>Node22&#45;&gt;Node13</title>
<path fill="none" stroke="midnightblue" d="M736.033,-58.4966C706.679,-48.5403 662.607,-33.5918 631.767,-23.1316"/>
<polygon fill="midnightblue" stroke="midnightblue" points="632.849,-19.8028 622.255,-19.9052 630.601,-26.4319 632.849,-19.8028"/>
</g>
<!-- Node22&#45;&gt;Node18 -->
<g id="edge66" class="edge"><title>Node22&#45;&gt;Node18</title>
<path fill="none" stroke="midnightblue" d="M786.92,-58.4966C803.946,-49.5194 828.669,-36.4835 847.909,-26.3387"/>
<polygon fill="midnightblue" stroke="midnightblue" points="849.643,-29.3814 856.856,-21.6212 846.378,-23.1894 849.643,-29.3814"/>
</g>
<!-- Node22&#45;&gt;Node21 -->
<g id="edge70" class="edge"><title>Node22&#45;&gt;Node21</title>
<path fill="none" stroke="midnightblue" d="M753.611,-58.3619C742.909,-49.859 727.704,-37.7785 715.329,-27.9466"/>
<polygon fill="midnightblue" stroke="midnightblue" points="717.311,-25.0511 707.304,-21.5707 712.957,-30.5318 717.311,-25.0511"/>
</g>
<!-- Node23 -->
<g id="node55" class="node"><title>Node23</title>
<polygon fill="white" stroke="#bfbfbf" points="783.5,-0.5 783.5,-21.5 820.5,-21.5 820.5,-0.5 783.5,-0.5"/>
<text text-anchor="middle" x="802" y="-8.5" font-family="Helvetica,sans-Serif" font-size="10.00">map</text>
</g>
<!-- Node22&#45;&gt;Node23 -->
<g id="edge64" class="edge"><title>Node22&#45;&gt;Node23</title>
<path fill="none" stroke="midnightblue" d="M773.42,-58.3619C778.156,-50.5131 784.732,-39.6159 790.382,-30.2527"/>
<polygon fill="midnightblue" stroke="midnightblue" points="793.451,-31.9409 795.621,-21.5707 787.458,-28.3242 793.451,-31.9409"/>
</g>
<!-- Node24 -->
<g id="node58" class="node"><title>Node24</title>
<polygon fill="white" stroke="#bfbfbf" points="737.5,-0.5 737.5,-21.5 766.5,-21.5 766.5,-0.5 737.5,-0.5"/>
<text text-anchor="middle" x="752" y="-8.5" font-family="Helvetica,sans-Serif" font-size="10.00">Qt</text>
</g>
<!-- Node22&#45;&gt;Node24 -->
<g id="edge68" class="edge"><title>Node22&#45;&gt;Node24</title>
<path fill="none" stroke="midnightblue" d="M764.249,-58.3619C762.303,-50.8401 759.634,-40.5187 757.284,-31.4308"/>
<polygon fill="midnightblue" stroke="midnightblue" points="760.626,-30.3758 754.734,-21.5707 753.849,-32.1285 760.626,-30.3758"/>
</g>
<!-- Node26&#45;&gt;Node9 -->
<g id="edge78" class="edge"><title>Node26&#45;&gt;Node9</title>
<path fill="none" stroke="midnightblue" d="M1215.38,-116.295C1228.9,-96.6998 1257.78,-54.8198 1274.76,-30.1913"/>
<polygon fill="midnightblue" stroke="midnightblue" points="1277.84,-31.8984 1280.64,-21.6792 1272.08,-27.9243 1277.84,-31.8984"/>
</g>
<!-- Node27 -->
<g id="node67" class="node"><title>Node27</title>
<polygon fill="white" stroke="#bfbfbf" points="1117.5,-58.5 1117.5,-79.5 1222.5,-79.5 1222.5,-58.5 1117.5,-58.5"/>
<text text-anchor="middle" x="1170" y="-66.5" font-family="Helvetica,sans-Serif" font-size="10.00">QVariantAnimation</text>
</g>
<!-- Node26&#45;&gt;Node27 -->
<g id="edge80" class="edge"><title>Node26&#45;&gt;Node27</title>
<path fill="none" stroke="midnightblue" d="M1201.03,-116.362C1195.83,-108.431 1188.6,-97.3885 1182.42,-87.9606"/>
<polygon fill="midnightblue" stroke="midnightblue" points="1185.33,-86.0172 1176.93,-79.5707 1179.48,-89.8534 1185.33,-86.0172"/>
</g>
<!-- Node28&#45;&gt;Node9 -->
<g id="edge84" class="edge"><title>Node28&#45;&gt;Node9</title>
<path fill="none" stroke="midnightblue" d="M1397.05,-116.172C1403.01,-101.655 1410.7,-75.6661 1399,-58 1384.02,-35.3836 1355.74,-23.6204 1331.48,-17.518"/>
<polygon fill="midnightblue" stroke="midnightblue" points="1332.25,-14.1044 1321.73,-15.3045 1330.71,-20.9308 1332.25,-14.1044"/>
</g>
<!-- Node28&#45;&gt;Node28 -->
<g id="edge100" class="edge"><title>Node28&#45;&gt;Node28</title>
<path fill="none" stroke="midnightblue" d="M1422.56,-137.524C1438.08,-139.061 1452,-135.553 1452,-127 1452,-120.385 1443.67,-116.788 1432.72,-116.208"/>
<polygon fill="midnightblue" stroke="midnightblue" points="1432.47,-112.714 1422.56,-116.476 1432.65,-119.711 1432.47,-112.714"/>
</g>
<!-- Node29 -->
<g id="node72" class="node"><title>Node29</title>
<a xlink:href="Window_8h.htm" target="_top" xlink:title="Window.h">
<polygon fill="white" stroke="red" points="1588,-58.5 1588,-79.5 1650,-79.5 1650,-58.5 1588,-58.5"/>
<text text-anchor="middle" x="1619" y="-66.5" font-family="Helvetica,sans-Serif" font-size="10.00">Window.h</text>
</a>
</g>
<!-- Node28&#45;&gt;Node29 -->
<g id="edge86" class="edge"><title>Node28&#45;&gt;Node29</title>
<path fill="none" stroke="midnightblue" d="M1434.03,-116.718C1469.83,-107.898 1522.87,-94.6791 1577.69,-80.3121"/>
<polygon fill="midnightblue" stroke="midnightblue" points="1578.79,-83.6401 1587.57,-77.7125 1577.01,-76.8701 1578.79,-83.6401"/>
</g>
<!-- Node34 -->
<g id="node85" class="node"><title>Node34</title>
<a xlink:href="HostWindowData_8h.htm" target="_top" xlink:title="HostWindowData.h">
<polygon fill="white" stroke="red" points="1759.5,-58.5 1759.5,-79.5 1866.5,-79.5 1866.5,-58.5 1759.5,-58.5"/>
<text text-anchor="middle" x="1813" y="-66.5" font-family="Helvetica,sans-Serif" font-size="10.00">HostWindowData.h</text>
</a>
</g>
<!-- Node28&#45;&gt;Node34 -->
<g id="edge102" class="edge"><title>Node28&#45;&gt;Node34</title>
<path fill="none" stroke="midnightblue" d="M1434.24,-120.558C1444.62,-119.02 1455.71,-117.415 1466,-116 1589.27,-99.0543 1623.07,-99.1416 1749.21,-80.2221"/>
<polygon fill="midnightblue" stroke="midnightblue" points="1749.89,-83.6585 1759.26,-78.7041 1748.85,-76.737 1749.89,-83.6585"/>
</g>
<!-- Node36 -->
<g id="node90" class="node"><title>Node36</title>
<a xlink:href="InputClient_8h.htm" target="_top" xlink:title="InputClient.h">
<polygon fill="white" stroke="red" points="1315.5,-58.5 1315.5,-79.5 1390.5,-79.5 1390.5,-58.5 1315.5,-58.5"/>
<text text-anchor="middle" x="1353" y="-66.5" font-family="Helvetica,sans-Serif" font-size="10.00">InputClient.h</text>
</a>
</g>
<!-- Node28&#45;&gt;Node36 -->
<g id="edge108" class="edge"><title>Node28&#45;&gt;Node36</title>
<path fill="none" stroke="midnightblue" d="M1384.85,-116.362C1379.51,-108.431 1372.09,-97.3885 1365.75,-87.9606"/>
<polygon fill="midnightblue" stroke="midnightblue" points="1368.59,-85.9161 1360.11,-79.5707 1362.78,-89.8221 1368.59,-85.9161"/>
</g>
<!-- Node37 -->
<g id="node93" class="node"><title>Node37</title>
<polygon fill="white" stroke="#bfbfbf" points="1668,-58.5 1668,-79.5 1742,-79.5 1742,-58.5 1668,-58.5"/>
<text text-anchor="middle" x="1705" y="-66.5" font-family="Helvetica,sans-Serif" font-size="10.00">PIpcBuffer.h</text>
</g>
<!-- Node28&#45;&gt;Node37 -->
<g id="edge112" class="edge"><title>Node28&#45;&gt;Node37</title>
<path fill="none" stroke="midnightblue" d="M1434.23,-120.376C1485.04,-112.228 1573.12,-97.5334 1658.08,-80.1056"/>
<polygon fill="midnightblue" stroke="midnightblue" points="1658.8,-83.5304 1667.89,-78.0787 1657.38,-76.6753 1658.8,-83.5304"/>
</g>
<!-- Node38 -->
<g id="node95" class="node"><title>Node38</title>
<polygon fill="white" stroke="#bfbfbf" points="1446,-58.5 1446,-79.5 1570,-79.5 1570,-58.5 1446,-58.5"/>
<text text-anchor="middle" x="1508" y="-66.5" font-family="Helvetica,sans-Serif" font-size="10.00">PIpcChannelListener.h</text>
</g>
<!-- Node28&#45;&gt;Node38 -->
<g id="edge114" class="edge"><title>Node28&#45;&gt;Node38</title>
<path fill="none" stroke="midnightblue" d="M1413.01,-116.497C1431.04,-107.479 1457.27,-94.3649 1477.6,-84.2006"/>
<polygon fill="midnightblue" stroke="midnightblue" points="1479.38,-87.2239 1486.76,-79.6212 1476.25,-80.9629 1479.38,-87.2239"/>
</g>
<!-- Node29&#45;&gt;Node9 -->
<g id="edge88" class="edge"><title>Node29&#45;&gt;Node9</title>
<path fill="none" stroke="midnightblue" d="M1587.64,-60.0299C1584.73,-59.3022 1581.82,-58.6125 1579,-58 1492.15,-39.1016 1389.19,-24.212 1331.97,-16.5909"/>
<polygon fill="midnightblue" stroke="midnightblue" points="1332.2,-13.0914 1321.83,-15.2531 1331.29,-20.0312 1332.2,-13.0914"/>
</g>
<!-- Node29&#45;&gt;Node11 -->
<g id="edge94" class="edge"><title>Node29&#45;&gt;Node11</title>
<path fill="none" stroke="midnightblue" d="M1587.67,-59.8718C1584.75,-59.1773 1581.83,-58.5385 1579,-58 1432.76,-30.1743 1393.92,-38.743 1246,-22 1225.61,-19.6918 1202.72,-16.9855 1184.75,-14.8348"/>
<polygon fill="midnightblue" stroke="midnightblue" points="1185.14,-11.3567 1174.79,-13.64 1184.3,-18.3068 1185.14,-11.3567"/>
</g>
<!-- Node30 -->
<g id="node75" class="node"><title>Node30</title>
<polygon fill="white" stroke="#bfbfbf" points="1531,-0.5 1531,-21.5 1623,-21.5 1623,-0.5 1531,-0.5"/>
<text text-anchor="middle" x="1577" y="-8.5" font-family="Helvetica,sans-Serif" font-size="10.00">WindowTypes.h</text>
</g>
<!-- Node29&#45;&gt;Node30 -->
<g id="edge90" class="edge"><title>Node29&#45;&gt;Node30</title>
<path fill="none" stroke="midnightblue" d="M1611.3,-58.3619C1605.55,-50.4313 1597.56,-39.3885 1590.73,-29.9606"/>
<polygon fill="midnightblue" stroke="midnightblue" points="1593.35,-27.6173 1584.65,-21.5707 1587.68,-31.7229 1593.35,-27.6173"/>
</g>
<!-- Node31 -->
<g id="node77" class="node"><title>Node31</title>
<polygon fill="white" stroke="#bfbfbf" points="1752,-0.5 1752,-21.5 1802,-21.5 1802,-0.5 1752,-0.5"/>
<text text-anchor="middle" x="1777" y="-8.5" font-family="Helvetica,sans-Serif" font-size="10.00">stdint.h</text>
</g>
<!-- Node29&#45;&gt;Node31 -->
<g id="edge92" class="edge"><title>Node29&#45;&gt;Node31</title>
<path fill="none" stroke="midnightblue" d="M1647.61,-58.4966C1674.26,-48.7141 1714.04,-34.1122 1742.45,-23.6835"/>
<polygon fill="midnightblue" stroke="midnightblue" points="1743.8,-26.9152 1751.98,-20.1835 1741.39,-20.344 1743.8,-26.9152"/>
</g>
<!-- Node32 -->
<g id="node80" class="node"><title>Node32</title>
<polygon fill="white" stroke="#bfbfbf" points="1640.5,-0.5 1640.5,-21.5 1681.5,-21.5 1681.5,-0.5 1640.5,-0.5"/>
<text text-anchor="middle" x="1661" y="-8.5" font-family="Helvetica,sans-Serif" font-size="10.00">glib.h</text>
</g>
<!-- Node29&#45;&gt;Node32 -->
<g id="edge96" class="edge"><title>Node29&#45;&gt;Node32</title>
<path fill="none" stroke="midnightblue" d="M1626.7,-58.3619C1632.45,-50.4313 1640.44,-39.3885 1647.27,-29.9606"/>
<polygon fill="midnightblue" stroke="midnightblue" points="1650.32,-31.7229 1653.35,-21.5707 1644.65,-27.6173 1650.32,-31.7229"/>
</g>
<!-- Node29&#45;&gt;Node33 -->
<g id="edge98" class="edge"><title>Node29&#45;&gt;Node33</title>
<path fill="none" stroke="midnightblue" d="M1650.4,-60.1808C1653.3,-59.4214 1656.2,-58.6832 1659,-58 1713.21,-44.7676 1775.43,-31.6661 1819.84,-22.6708"/>
<polygon fill="midnightblue" stroke="midnightblue" points="1820.77,-26.0537 1829.88,-20.6454 1819.39,-19.1919 1820.77,-26.0537"/>
</g>
<!-- Node34&#45;&gt;Node9 -->
<g id="edge104" class="edge"><title>Node34&#45;&gt;Node9</title>
<path fill="none" stroke="midnightblue" d="M1759.27,-59.2151C1756.48,-58.7852 1753.71,-58.377 1751,-58 1597.33,-36.5982 1413.67,-20.8576 1331.49,-14.3279"/>
<polygon fill="midnightblue" stroke="midnightblue" points="1331.76,-10.8382 1321.51,-13.5409 1331.2,-17.8165 1331.76,-10.8382"/>
</g>
<!-- Node34&#45;&gt;Node35 -->
<g id="edge106" class="edge"><title>Node34&#45;&gt;Node35</title>
<path fill="none" stroke="midnightblue" d="M1866.58,-59.3776C1928.83,-48.1573 2027.11,-30.3026 2065.36,-22.1334"/>
<polygon fill="midnightblue" stroke="midnightblue" points="2066.21,-25.5303 2075.2,-19.9271 2064.68,-18.6999 2066.21,-25.5303"/>
</g>
<!-- Node36&#45;&gt;Node11 -->
<g id="edge110" class="edge"><title>Node36&#45;&gt;Node11</title>
<path fill="none" stroke="midnightblue" d="M1316.78,-58.4966C1279.08,-47.5628 1220.61,-30.6083 1184.69,-20.1893"/>
<polygon fill="midnightblue" stroke="midnightblue" points="1185.33,-16.7309 1174.75,-17.307 1183.38,-23.4539 1185.33,-16.7309"/>
</g>
<!-- Node39&#45;&gt;Node9 -->
<g id="edge118" class="edge"><title>Node39&#45;&gt;Node9</title>
<path fill="none" stroke="midnightblue" d="M2011.82,-62.5775C1996.61,-60.9721 1980.19,-59.3304 1965,-58 1726.47,-37.1124 1439.99,-19.7679 1332.03,-13.5051"/>
<polygon fill="midnightblue" stroke="midnightblue" points="1332.03,-9.99945 1321.85,-12.9166 1331.63,-16.9878 1332.03,-9.99945"/>
</g>
<!-- Node39&#45;&gt;Node33 -->
<g id="edge120" class="edge"><title>Node39&#45;&gt;Node33</title>
<path fill="none" stroke="midnightblue" d="M2034.59,-58.4966C2003.35,-48.9592 1957.1,-34.8408 1923.14,-24.475"/>
<polygon fill="midnightblue" stroke="midnightblue" points="1924.06,-21.0953 1913.47,-21.5231 1922.01,-27.7903 1924.06,-21.0953"/>
</g>
<!-- Node39&#45;&gt;Node35 -->
<g id="edge122" class="edge"><title>Node39&#45;&gt;Node35</title>
<path fill="none" stroke="midnightblue" d="M2075.6,-58.3619C2080.47,-50.5131 2087.24,-39.6159 2093.05,-30.2527"/>
<polygon fill="midnightblue" stroke="midnightblue" points="2096.14,-31.9129 2098.44,-21.5707 2090.19,-28.2213 2096.14,-31.9129"/>
</g>
<!-- Node40 -->
<g id="node102" class="node"><title>Node40</title>
<polygon fill="white" stroke="#bfbfbf" points="1946,-0.5 1946,-21.5 2058,-21.5 2058,-0.5 1946,-0.5"/>
<text text-anchor="middle" x="2002" y="-8.5" font-family="Helvetica,sans-Serif" font-size="10.00">QPropertyAnimation</text>
</g>
<!-- Node39&#45;&gt;Node40 -->
<g id="edge124" class="edge"><title>Node39&#45;&gt;Node40</title>
<path fill="none" stroke="midnightblue" d="M2056.71,-58.3619C2046.98,-49.9408 2033.2,-38.0105 2021.9,-28.2308"/>
<polygon fill="midnightblue" stroke="midnightblue" points="2024.06,-25.4695 2014.21,-21.5707 2019.48,-30.7619 2024.06,-25.4695"/>
</g>
<!-- Node41 -->
<g id="node104" class="node"><title>Node41</title>
<polygon fill="white" stroke="#bfbfbf" points="2250,-0.5 2250,-21.5 2386,-21.5 2386,-0.5 2250,-0.5"/>
<text text-anchor="middle" x="2318" y="-8.5" font-family="Helvetica,sans-Serif" font-size="10.00">QParallelAnimationGroup</text>
</g>
<!-- Node39&#45;&gt;Node41 -->
<g id="edge126" class="edge"><title>Node39&#45;&gt;Node41</title>
<path fill="none" stroke="midnightblue" d="M2114.09,-58.4966C2155.92,-48.7545 2218.26,-34.2328 2262.99,-23.813"/>
<polygon fill="midnightblue" stroke="midnightblue" points="2263.88,-27.2005 2272.82,-21.5231 2262.29,-20.383 2263.88,-27.2005"/>
</g>
<!-- Node42&#45;&gt;Node9 -->
<g id="edge132" class="edge"><title>Node42&#45;&gt;Node9</title>
<path fill="none" stroke="midnightblue" d="M1883.75,-59.6123C1880.8,-59.0095 1877.86,-58.4608 1875,-58 1770.29,-41.121 1449.71,-20.7281 1331.97,-13.6053"/>
<polygon fill="midnightblue" stroke="midnightblue" points="1332.07,-10.1049 1321.87,-12.9971 1331.65,-17.0923 1332.07,-10.1049"/>
</g>
<!-- Node42&#45;&gt;Node31 -->
<g id="edge130" class="edge"><title>Node42&#45;&gt;Node31</title>
<path fill="none" stroke="midnightblue" d="M1894.1,-58.4966C1870.98,-49.118 1836.94,-35.3096 1811.51,-24.9958"/>
<polygon fill="midnightblue" stroke="midnightblue" points="1812.81,-21.7458 1802.22,-21.2305 1810.17,-28.2325 1812.81,-21.7458"/>
</g>
<!-- Node42&#45;&gt;Node33 -->
<g id="edge134" class="edge"><title>Node42&#45;&gt;Node33</title>
<path fill="none" stroke="midnightblue" d="M1912.48,-58.3619C1906.87,-50.4313 1899.07,-39.3885 1892.4,-29.9606"/>
<polygon fill="midnightblue" stroke="midnightblue" points="1895.1,-27.7161 1886.47,-21.5707 1889.39,-31.7568 1895.1,-27.7161"/>
</g>
<!-- Node42&#45;&gt;Node43 -->
<g id="edge136" class="edge"><title>Node42&#45;&gt;Node43</title>
<path fill="none" stroke="midnightblue" d="M1956.34,-61.4936C1998.52,-52.7469 2070.44,-37.7291 2141.37,-22.3383"/>
<polygon fill="midnightblue" stroke="midnightblue" points="2142.34,-25.7093 2151.37,-20.1647 2140.85,-18.8691 2142.34,-25.7093"/>
</g>
</g>
</svg>
