<?xml version="1.0" encoding="UTF-8" standalone="no"?>
<!DOCTYPE svg PUBLIC "-//W3C//DTD SVG 1.1//EN"
 "http://www.w3.org/Graphics/SVG/1.1/DTD/svg11.dtd">
<!-- Generated by graphviz version 2.26.3 (20100126.1600)
 -->
<!-- Title: NativeAlertManager.h Pages: 1 -->
<svg width="588pt" height="88pt"
 viewBox="0.00 0.00 588.00 88.00" xmlns="http://www.w3.org/2000/svg" xmlns:xlink="http://www.w3.org/1999/xlink">
<g id="graph1" class="graph" transform="scale(1 1) rotate(0) translate(4 84)">
<title>NativeAlertManager.h</title>
<polygon fill="white" stroke="white" points="-4,5 -4,-84 585,-84 585,5 -4,5"/>
<!-- Node1 -->
<g id="node1" class="node"><title>Node1</title>
<polygon fill="#bfbfbf" stroke="black" points="209.5,-58.5 209.5,-79.5 328.5,-79.5 328.5,-58.5 209.5,-58.5"/>
<text text-anchor="middle" x="269" y="-66.5" font-family="Helvetica,sans-Serif" font-size="10.00">NativeAlertManager.h</text>
</g>
<!-- Node2 -->
<g id="node3" class="node"><title>Node2</title>
<a xlink:href="WindowServer_8cpp.htm" target="_top" xlink:title="WindowServer.cpp">
<polygon fill="white" stroke="black" points="-0.5,-0.5 -0.5,-21.5 104.5,-21.5 104.5,-0.5 -0.5,-0.5"/>
<text text-anchor="middle" x="52" y="-8.5" font-family="Helvetica,sans-Serif" font-size="10.00">WindowServer.cpp</text>
</a>
</g>
<!-- Node1&#45;&gt;Node2 -->
<g id="edge2" class="edge"><title>Node1&#45;&gt;Node2</title>
<path fill="none" stroke="midnightblue" d="M219.66,-55.8123C180.81,-45.4285 127.384,-31.1487 91.3708,-21.5231"/>
<polygon fill="midnightblue" stroke="midnightblue" points="219.138,-59.2957 229.703,-58.4966 220.946,-52.5331 219.138,-59.2957"/>
</g>
<!-- Node3 -->
<g id="node5" class="node"><title>Node3</title>
<a xlink:href="NativeAlertManager_8cpp.htm" target="_top" xlink:title="NativeAlertManager.cpp">
<polygon fill="white" stroke="black" points="121.5,-0.5 121.5,-21.5 252.5,-21.5 252.5,-0.5 121.5,-0.5"/>
<text text-anchor="middle" x="187" y="-8.5" font-family="Helvetica,sans-Serif" font-size="10.00">NativeAlertManager.cpp</text>
</a>
</g>
<!-- Node1&#45;&gt;Node3 -->
<g id="edge4" class="edge"><title>Node1&#45;&gt;Node3</title>
<path fill="none" stroke="midnightblue" d="M245.73,-52.5407C231.672,-42.5973 214.17,-30.2177 201.945,-21.5707"/>
<polygon fill="midnightblue" stroke="midnightblue" points="243.775,-55.4447 253.96,-58.3619 247.817,-49.7298 243.775,-55.4447"/>
</g>
<!-- Node4 -->
<g id="node7" class="node"><title>Node4</title>
<a xlink:href="VolumeControlAlertWindow_8cpp.htm" target="_top" xlink:title="VolumeControlAlertWindow.cpp">
<polygon fill="white" stroke="black" points="270,-0.5 270,-21.5 434,-21.5 434,-0.5 270,-0.5"/>
<text text-anchor="middle" x="352" y="-8.5" font-family="Helvetica,sans-Serif" font-size="10.00">VolumeControlAlertWindow.cpp</text>
</a>
</g>
<!-- Node1&#45;&gt;Node4 -->
<g id="edge6" class="edge"><title>Node1&#45;&gt;Node4</title>
<path fill="none" stroke="midnightblue" d="M292.554,-52.5407C306.783,-42.5973 324.499,-30.2177 336.873,-21.5707"/>
<polygon fill="midnightblue" stroke="midnightblue" points="290.416,-49.7649 284.223,-58.3619 294.425,-55.5028 290.416,-49.7649"/>
</g>
<!-- Node5 -->
<g id="node9" class="node"><title>Node5</title>
<a xlink:href="WindowServerLuna_8cpp.htm" target="_top" xlink:title="WindowServerLuna.cpp">
<polygon fill="white" stroke="black" points="452,-0.5 452,-21.5 580,-21.5 580,-0.5 452,-0.5"/>
<text text-anchor="middle" x="516" y="-8.5" font-family="Helvetica,sans-Serif" font-size="10.00">WindowServerLuna.cpp</text>
</a>
</g>
<!-- Node1&#45;&gt;Node5 -->
<g id="edge8" class="edge"><title>Node1&#45;&gt;Node5</title>
<path fill="none" stroke="midnightblue" d="M323.476,-56.2081C367.826,-45.7938 429.671,-31.2716 471.186,-21.5231"/>
<polygon fill="midnightblue" stroke="midnightblue" points="322.665,-52.8032 313.73,-58.4966 324.265,-59.6179 322.665,-52.8032"/>
</g>
</g>
</svg>
