<?xml version="1.0" encoding="UTF-8" standalone="no"?>
<!DOCTYPE svg PUBLIC "-//W3C//DTD SVG 1.1//EN"
 "http://www.w3.org/Graphics/SVG/1.1/DTD/svg11.dtd">
<!-- Generated by graphviz version 2.26.3 (20100126.1600)
 -->
<!-- Title: NotificationPolicy.cpp Pages: 1 -->
<svg width="279pt" height="146pt"
 viewBox="0.00 0.00 279.00 146.00" xmlns="http://www.w3.org/2000/svg" xmlns:xlink="http://www.w3.org/1999/xlink">
<g id="graph1" class="graph" transform="scale(1 1) rotate(0) translate(4 142)">
<title>NotificationPolicy.cpp</title>
<polygon fill="white" stroke="white" points="-4,5 -4,-142 276,-142 276,5 -4,5"/>
<!-- Node1 -->
<g id="node1" class="node"><title>Node1</title>
<polygon fill="#bfbfbf" stroke="black" points="20,-116.5 20,-137.5 136,-137.5 136,-116.5 20,-116.5"/>
<text text-anchor="middle" x="78" y="-124.5" font-family="Helvetica,sans-Serif" font-size="10.00">NotificationPolicy.cpp</text>
</g>
<!-- Node2 -->
<g id="node3" class="node"><title>Node2</title>
<polygon fill="white" stroke="#bfbfbf" points="-0.5,-0.5 -0.5,-21.5 66.5,-21.5 66.5,-0.5 -0.5,-0.5"/>
<text text-anchor="middle" x="33" y="-8.5" font-family="Helvetica,sans-Serif" font-size="10.00">Common.h</text>
</g>
<!-- Node1&#45;&gt;Node2 -->
<g id="edge2" class="edge"><title>Node1&#45;&gt;Node2</title>
<path fill="none" stroke="midnightblue" d="M62.7327,-116.196C52.1691,-107.719 38.9773,-94.8861 33,-80 26.8715,-64.7374 27.3166,-45.9992 29.0471,-31.9034"/>
<polygon fill="midnightblue" stroke="midnightblue" points="32.5479,-32.1653 30.6094,-21.7493 25.6293,-31.1007 32.5479,-32.1653"/>
</g>
<!-- Node3 -->
<g id="node5" class="node"><title>Node3</title>
<polygon fill="white" stroke="#bfbfbf" points="42,-58.5 42,-79.5 114,-79.5 114,-58.5 42,-58.5"/>
<text text-anchor="middle" x="78" y="-66.5" font-family="Helvetica,sans-Serif" font-size="10.00">cjson/json.h</text>
</g>
<!-- Node1&#45;&gt;Node3 -->
<g id="edge4" class="edge"><title>Node1&#45;&gt;Node3</title>
<path fill="none" stroke="midnightblue" d="M78,-116.362C78,-108.922 78,-98.7427 78,-89.7276"/>
<polygon fill="midnightblue" stroke="midnightblue" points="81.5001,-89.5706 78,-79.5707 74.5001,-89.5707 81.5001,-89.5706"/>
</g>
<!-- Node4 -->
<g id="node7" class="node"><title>Node4</title>
<a xlink:href="NotificationPolicy_8h.htm" target="_top" xlink:title="NotificationPolicy.h">
<polygon fill="white" stroke="black" points="131.5,-58.5 131.5,-79.5 236.5,-79.5 236.5,-58.5 131.5,-58.5"/>
<text text-anchor="middle" x="184" y="-66.5" font-family="Helvetica,sans-Serif" font-size="10.00">NotificationPolicy.h</text>
</a>
</g>
<!-- Node1&#45;&gt;Node4 -->
<g id="edge6" class="edge"><title>Node1&#45;&gt;Node4</title>
<path fill="none" stroke="midnightblue" d="M97.442,-116.362C113.804,-107.409 137.413,-94.4908 155.843,-84.4064"/>
<polygon fill="midnightblue" stroke="midnightblue" points="157.589,-87.4412 164.681,-79.5707 154.229,-81.3004 157.589,-87.4412"/>
</g>
<!-- Node4&#45;&gt;Node2 -->
<g id="edge8" class="edge"><title>Node4&#45;&gt;Node2</title>
<path fill="none" stroke="midnightblue" d="M156.655,-58.4966C132.358,-49.1639 96.6404,-35.4447 69.8322,-25.1475"/>
<polygon fill="midnightblue" stroke="midnightblue" points="70.9863,-21.8415 60.3962,-21.5231 68.4763,-28.376 70.9863,-21.8415"/>
</g>
<!-- Node5 -->
<g id="node10" class="node"><title>Node5</title>
<polygon fill="white" stroke="#bfbfbf" points="102.5,-0.5 102.5,-21.5 139.5,-21.5 139.5,-0.5 102.5,-0.5"/>
<text text-anchor="middle" x="121" y="-8.5" font-family="Helvetica,sans-Serif" font-size="10.00">map</text>
</g>
<!-- Node4&#45;&gt;Node5 -->
<g id="edge10" class="edge"><title>Node4&#45;&gt;Node5</title>
<path fill="none" stroke="midnightblue" d="M172.445,-58.3619C163.387,-50.0226 150.59,-38.2418 140.026,-28.5162"/>
<polygon fill="midnightblue" stroke="midnightblue" points="142.21,-25.7688 132.482,-21.5707 137.468,-30.9187 142.21,-25.7688"/>
</g>
<!-- Node6 -->
<g id="node12" class="node"><title>Node6</title>
<polygon fill="white" stroke="#bfbfbf" points="157,-0.5 157,-21.5 211,-21.5 211,-0.5 157,-0.5"/>
<text text-anchor="middle" x="184" y="-8.5" font-family="Helvetica,sans-Serif" font-size="10.00">memory</text>
</g>
<!-- Node4&#45;&gt;Node6 -->
<g id="edge12" class="edge"><title>Node4&#45;&gt;Node6</title>
<path fill="none" stroke="midnightblue" d="M184,-58.3619C184,-50.9219 184,-40.7427 184,-31.7276"/>
<polygon fill="midnightblue" stroke="midnightblue" points="187.5,-31.5706 184,-21.5707 180.5,-31.5707 187.5,-31.5706"/>
</g>
<!-- Node7 -->
<g id="node14" class="node"><title>Node7</title>
<polygon fill="white" stroke="#bfbfbf" points="228.5,-0.5 228.5,-21.5 271.5,-21.5 271.5,-0.5 228.5,-0.5"/>
<text text-anchor="middle" x="250" y="-8.5" font-family="Helvetica,sans-Serif" font-size="10.00">string</text>
</g>
<!-- Node4&#45;&gt;Node7 -->
<g id="edge14" class="edge"><title>Node4&#45;&gt;Node7</title>
<path fill="none" stroke="midnightblue" d="M196.105,-58.3619C205.688,-49.9408 219.264,-38.0105 230.393,-28.2308"/>
<polygon fill="midnightblue" stroke="midnightblue" points="232.77,-30.8009 237.971,-21.5707 228.149,-25.5427 232.77,-30.8009"/>
</g>
</g>
</svg>
