<?xml version="1.0" encoding="UTF-8" standalone="no"?>
<!DOCTYPE svg PUBLIC "-//W3C//DTD SVG 1.1//EN"
 "http://www.w3.org/Graphics/SVG/1.1/DTD/svg11.dtd">
<!-- Generated by graphviz version 2.26.3 (20100126.1600)
 -->
<!-- Title: operationalsettings.cpp Pages: 1 -->
<svg width="2310pt" height="320pt"
 viewBox="0.00 0.00 2310.00 320.00" xmlns="http://www.w3.org/2000/svg" xmlns:xlink="http://www.w3.org/1999/xlink">
<g id="graph1" class="graph" transform="scale(1 1) rotate(0) translate(4 316)">
<title>operationalsettings.cpp</title>
<polygon fill="white" stroke="white" points="-4,5 -4,-316 2307,-316 2307,5 -4,5"/>
<!-- Node1 -->
<g id="node1" class="node"><title>Node1</title>
<polygon fill="#bfbfbf" stroke="black" points="1565,-290.5 1565,-311.5 1691,-311.5 1691,-290.5 1565,-290.5"/>
<text text-anchor="middle" x="1628" y="-298.5" font-family="Helvetica,sans-Serif" font-size="10.00">operationalsettings.cpp</text>
</g>
<!-- Node2 -->
<g id="node3" class="node"><title>Node2</title>
<polygon fill="white" stroke="#bfbfbf" points="-0.5,-174.5 -0.5,-195.5 66.5,-195.5 66.5,-174.5 -0.5,-174.5"/>
<text text-anchor="middle" x="33" y="-182.5" font-family="Helvetica,sans-Serif" font-size="10.00">Common.h</text>
</g>
<!-- Node1&#45;&gt;Node2 -->
<g id="edge2" class="edge"><title>Node1&#45;&gt;Node2</title>
<path fill="none" stroke="midnightblue" d="M1564.57,-300.149C1306.72,-296.52 344.469,-281.261 211,-254 156.533,-242.875 97.0268,-216.708 62.4666,-199.985"/>
<polygon fill="midnightblue" stroke="midnightblue" points="63.9246,-196.802 53.4052,-195.539 60.8412,-203.086 63.9246,-196.802"/>
</g>
<!-- Node3 -->
<g id="node5" class="node"><title>Node3</title>
<a xlink:href="operationalsettings_8h.htm" target="_top" xlink:title="operationalsettings.h">
<polygon fill="white" stroke="black" points="219.5,-232.5 219.5,-253.5 334.5,-253.5 334.5,-232.5 219.5,-232.5"/>
<text text-anchor="middle" x="277" y="-240.5" font-family="Helvetica,sans-Serif" font-size="10.00">operationalsettings.h</text>
</a>
</g>
<!-- Node1&#45;&gt;Node3 -->
<g id="edge4" class="edge"><title>Node1&#45;&gt;Node3</title>
<path fill="none" stroke="midnightblue" d="M1564.65,-298.28C1339.25,-288.603 577.257,-255.89 344.856,-245.913"/>
<polygon fill="midnightblue" stroke="midnightblue" points="344.987,-242.416 334.846,-245.483 344.687,-249.409 344.987,-242.416"/>
</g>
<!-- Node10 -->
<g id="node20" class="node"><title>Node10</title>
<a xlink:href="page_8h.htm" target="_top" xlink:title="page.h">
<polygon fill="white" stroke="black" points="1072.5,-232.5 1072.5,-253.5 1121.5,-253.5 1121.5,-232.5 1072.5,-232.5"/>
<text text-anchor="middle" x="1097" y="-240.5" font-family="Helvetica,sans-Serif" font-size="10.00">page.h</text>
</a>
</g>
<!-- Node1&#45;&gt;Node10 -->
<g id="edge20" class="edge"><title>Node1&#45;&gt;Node10</title>
<path fill="none" stroke="midnightblue" d="M1564.74,-294.09C1451.9,-281.765 1219.51,-256.382 1131.66,-246.786"/>
<polygon fill="midnightblue" stroke="midnightblue" points="1132.01,-243.303 1121.68,-245.696 1131.25,-250.261 1132.01,-243.303"/>
</g>
<!-- Node39 -->
<g id="node100" class="node"><title>Node39</title>
<polygon fill="white" stroke="#bfbfbf" points="2071.5,-0.5 2071.5,-21.5 2130.5,-21.5 2130.5,-0.5 2071.5,-0.5"/>
<text text-anchor="middle" x="2101" y="-8.5" font-family="Helvetica,sans-Serif" font-size="10.00">qglobal.h</text>
</g>
<!-- Node1&#45;&gt;Node39 -->
<g id="edge158" class="edge"><title>Node1&#45;&gt;Node39</title>
<path fill="none" stroke="midnightblue" d="M1691.12,-293.816C1832.04,-276.922 2160,-232.502 2160,-185 2160,-185 2160,-185 2160,-127 2160,-89.1019 2134.67,-51.0672 2117.2,-29.3447"/>
<polygon fill="midnightblue" stroke="midnightblue" points="2119.84,-27.0337 2110.74,-21.5949 2114.46,-31.5167 2119.84,-27.0337"/>
</g>
<!-- Node49 -->
<g id="node129" class="node"><title>Node49</title>
<polygon fill="white" stroke="#bfbfbf" points="2187.5,-232.5 2187.5,-253.5 2246.5,-253.5 2246.5,-232.5 2187.5,-232.5"/>
<text text-anchor="middle" x="2217" y="-240.5" font-family="Helvetica,sans-Serif" font-size="10.00">QFileInfo</text>
</g>
<!-- Node1&#45;&gt;Node49 -->
<g id="edge160" class="edge"><title>Node1&#45;&gt;Node49</title>
<path fill="none" stroke="midnightblue" d="M1691.07,-298.941C1793.17,-294.854 2000.7,-283.419 2174,-254 2175.06,-253.819 2176.14,-253.626 2177.22,-253.421"/>
<polygon fill="midnightblue" stroke="midnightblue" points="2178.01,-256.832 2187.06,-251.329 2176.55,-249.985 2178.01,-256.832"/>
</g>
<!-- Node50 -->
<g id="node131" class="node"><title>Node50</title>
<polygon fill="white" stroke="#bfbfbf" points="2264,-232.5 2264,-253.5 2302,-253.5 2302,-232.5 2264,-232.5"/>
<text text-anchor="middle" x="2283" y="-240.5" font-family="Helvetica,sans-Serif" font-size="10.00">QDir</text>
</g>
<!-- Node1&#45;&gt;Node50 -->
<g id="edge162" class="edge"><title>Node1&#45;&gt;Node50</title>
<path fill="none" stroke="midnightblue" d="M1691.15,-298.665C1824.42,-293.358 2131.57,-279.031 2254.07,-253.529"/>
<polygon fill="midnightblue" stroke="midnightblue" points="2254.95,-256.92 2263.96,-251.351 2253.44,-250.084 2254.95,-256.92"/>
</g>
<!-- Node3&#45;&gt;Node2 -->
<g id="edge6" class="edge"><title>Node3&#45;&gt;Node2</title>
<path fill="none" stroke="midnightblue" d="M229.974,-232.444C191.22,-223.658 134.569,-210.616 76.918,-196.437"/>
<polygon fill="midnightblue" stroke="midnightblue" points="77.453,-192.964 66.9056,-193.966 75.7753,-199.76 77.453,-192.964"/>
</g>
<!-- Node4 -->
<g id="node8" class="node"><title>Node4</title>
<polygon fill="white" stroke="#bfbfbf" points="83.5,-174.5 83.5,-195.5 124.5,-195.5 124.5,-174.5 83.5,-174.5"/>
<text text-anchor="middle" x="104" y="-182.5" font-family="Helvetica,sans-Serif" font-size="10.00">glib.h</text>
</g>
<!-- Node3&#45;&gt;Node4 -->
<g id="edge8" class="edge"><title>Node3&#45;&gt;Node4</title>
<path fill="none" stroke="midnightblue" d="M243.098,-232.431C215.879,-223.835 176.479,-211.148 134.191,-196.33"/>
<polygon fill="midnightblue" stroke="midnightblue" points="135.146,-192.955 124.551,-192.932 132.819,-199.557 135.146,-192.955"/>
</g>
<!-- Node5 -->
<g id="node10" class="node"><title>Node5</title>
<polygon fill="white" stroke="#bfbfbf" points="142,-174.5 142,-195.5 200,-195.5 200,-174.5 142,-174.5"/>
<text text-anchor="middle" x="171" y="-182.5" font-family="Helvetica,sans-Serif" font-size="10.00">QtGlobal</text>
</g>
<!-- Node3&#45;&gt;Node5 -->
<g id="edge10" class="edge"><title>Node3&#45;&gt;Node5</title>
<path fill="none" stroke="midnightblue" d="M257.558,-232.362C241.196,-223.409 217.587,-210.491 199.157,-200.406"/>
<polygon fill="midnightblue" stroke="midnightblue" points="200.771,-197.3 190.319,-195.571 197.411,-203.441 200.771,-197.3"/>
</g>
<!-- Node6 -->
<g id="node12" class="node"><title>Node6</title>
<polygon fill="white" stroke="#bfbfbf" points="358.5,-58.5 358.5,-79.5 403.5,-79.5 403.5,-58.5 358.5,-58.5"/>
<text text-anchor="middle" x="381" y="-66.5" font-family="Helvetica,sans-Serif" font-size="10.00">QSize</text>
</g>
<!-- Node3&#45;&gt;Node6 -->
<g id="edge12" class="edge"><title>Node3&#45;&gt;Node6</title>
<path fill="none" stroke="midnightblue" d="M300.003,-232.339C314.888,-224.325 333.558,-211.989 345,-196 368.222,-163.548 376.509,-116.487 379.434,-89.704"/>
<polygon fill="midnightblue" stroke="midnightblue" points="382.936,-89.8525 380.388,-79.5687 375.967,-89.1969 382.936,-89.8525"/>
</g>
<!-- Node7 -->
<g id="node14" class="node"><title>Node7</title>
<polygon fill="white" stroke="#bfbfbf" points="217.5,-174.5 217.5,-195.5 268.5,-195.5 268.5,-174.5 217.5,-174.5"/>
<text text-anchor="middle" x="243" y="-182.5" font-family="Helvetica,sans-Serif" font-size="10.00">QSizeF</text>
</g>
<!-- Node3&#45;&gt;Node7 -->
<g id="edge14" class="edge"><title>Node3&#45;&gt;Node7</title>
<path fill="none" stroke="midnightblue" d="M270.764,-232.362C266.163,-224.513 259.775,-213.616 254.286,-204.253"/>
<polygon fill="midnightblue" stroke="midnightblue" points="257.273,-202.428 249.197,-195.571 251.234,-205.968 257.273,-202.428"/>
</g>
<!-- Node8 -->
<g id="node16" class="node"><title>Node8</title>
<polygon fill="white" stroke="#bfbfbf" points="286,-174.5 286,-195.5 336,-195.5 336,-174.5 286,-174.5"/>
<text text-anchor="middle" x="311" y="-182.5" font-family="Helvetica,sans-Serif" font-size="10.00">QColor</text>
</g>
<!-- Node3&#45;&gt;Node8 -->
<g id="edge16" class="edge"><title>Node3&#45;&gt;Node8</title>
<path fill="none" stroke="midnightblue" d="M283.236,-232.362C287.837,-224.513 294.225,-213.616 299.714,-204.253"/>
<polygon fill="midnightblue" stroke="midnightblue" points="302.766,-205.968 304.803,-195.571 296.727,-202.428 302.766,-205.968"/>
</g>
<!-- Node9 -->
<g id="node18" class="node"><title>Node9</title>
<polygon fill="white" stroke="#bfbfbf" points="1249.5,-0.5 1249.5,-21.5 1298.5,-21.5 1298.5,-0.5 1249.5,-0.5"/>
<text text-anchor="middle" x="1274" y="-8.5" font-family="Helvetica,sans-Serif" font-size="10.00">QPoint</text>
</g>
<!-- Node3&#45;&gt;Node9 -->
<g id="edge18" class="edge"><title>Node3&#45;&gt;Node9</title>
<path fill="none" stroke="midnightblue" d="M334.734,-241.529C467.102,-237.683 789.048,-225.509 893,-196 957.251,-177.761 1099.4,-86.088 1160,-58 1186.39,-45.7659 1216.89,-33.2768 1239.69,-24.2506"/>
<polygon fill="midnightblue" stroke="midnightblue" points="1241.25,-27.3999 1249.27,-20.483 1238.69,-20.8855 1241.25,-27.3999"/>
</g>
<!-- Node11 -->
<g id="node22" class="node"><title>Node11</title>
<polygon fill="white" stroke="#bfbfbf" points="1110,-0.5 1110,-21.5 1156,-21.5 1156,-0.5 1110,-0.5"/>
<text text-anchor="middle" x="1133" y="-8.5" font-family="Helvetica,sans-Serif" font-size="10.00">QUuid</text>
</g>
<!-- Node10&#45;&gt;Node11 -->
<g id="edge22" class="edge"><title>Node10&#45;&gt;Node11</title>
<path fill="none" stroke="midnightblue" d="M1072.4,-241.995C962.463,-237.395 519.102,-217.643 461,-196 387.239,-168.524 296.036,-115.301 350,-58 376.073,-30.3145 952.965,-15.156 1099.43,-11.7452"/>
<polygon fill="midnightblue" stroke="midnightblue" points="1099.68,-15.2403 1109.6,-11.5111 1099.52,-8.24217 1099.68,-15.2403"/>
</g>
<!-- Node12 -->
<g id="node24" class="node"><title>Node12</title>
<polygon fill="white" stroke="#bfbfbf" points="1315.5,-0.5 1315.5,-21.5 1368.5,-21.5 1368.5,-0.5 1315.5,-0.5"/>
<text text-anchor="middle" x="1342" y="-8.5" font-family="Helvetica,sans-Serif" font-size="10.00">QRectF</text>
</g>
<!-- Node10&#45;&gt;Node12 -->
<g id="edge24" class="edge"><title>Node10&#45;&gt;Node12</title>
<path fill="none" stroke="midnightblue" d="M1093.41,-232.363C1086.24,-209.053 1072.85,-152.63 1097,-116 1109.21,-97.4887 1240.46,-47.8411 1305.67,-24.0552"/>
<polygon fill="midnightblue" stroke="midnightblue" points="1306.96,-27.3098 1315.16,-20.6042 1304.57,-20.7309 1306.96,-27.3098"/>
</g>
<!-- Node13 -->
<g id="node26" class="node"><title>Node13</title>
<polygon fill="white" stroke="#bfbfbf" points="1173.5,-0.5 1173.5,-21.5 1232.5,-21.5 1232.5,-0.5 1173.5,-0.5"/>
<text text-anchor="middle" x="1203" y="-8.5" font-family="Helvetica,sans-Serif" font-size="10.00">QPointer</text>
</g>
<!-- Node10&#45;&gt;Node13 -->
<g id="edge26" class="edge"><title>Node10&#45;&gt;Node13</title>
<path fill="none" stroke="midnightblue" d="M1086.71,-232.475C1078.78,-223.58 1068.45,-210.07 1064,-196 1053.29,-162.097 1048.15,-147.829 1064,-116 1085.62,-72.569 1134.73,-42.3384 1168.38,-25.8186"/>
<polygon fill="midnightblue" stroke="midnightblue" points="1169.9,-28.974 1177.43,-21.5231 1166.89,-22.6506 1169.9,-28.974"/>
</g>
<!-- Node14 -->
<g id="node28" class="node"><title>Node14</title>
<polygon fill="white" stroke="#bfbfbf" points="1941.5,-0.5 1941.5,-21.5 1994.5,-21.5 1994.5,-0.5 1941.5,-0.5"/>
<text text-anchor="middle" x="1968" y="-8.5" font-family="Helvetica,sans-Serif" font-size="10.00">QString</text>
</g>
<!-- Node10&#45;&gt;Node14 -->
<g id="edge28" class="edge"><title>Node10&#45;&gt;Node14</title>
<path fill="none" stroke="midnightblue" d="M1121.83,-241.282C1251.6,-232.111 1848.35,-187.481 1913,-138 1947.03,-111.959 1960.34,-60.5722 1965.28,-31.7872"/>
<polygon fill="midnightblue" stroke="midnightblue" points="1968.78,-32.0457 1966.84,-21.6311 1961.86,-30.9858 1968.78,-32.0457"/>
</g>
<!-- Node15 -->
<g id="node30" class="node"><title>Node15</title>
<polygon fill="white" stroke="#bfbfbf" points="1106,-116.5 1106,-137.5 1158,-137.5 1158,-116.5 1106,-116.5"/>
<text text-anchor="middle" x="1132" y="-124.5" font-family="Helvetica,sans-Serif" font-size="10.00">QTimer</text>
</g>
<!-- Node10&#45;&gt;Node15 -->
<g id="edge30" class="edge"><title>Node10&#45;&gt;Node15</title>
<path fill="none" stroke="midnightblue" d="M1100.23,-232.295C1106.04,-213.045 1118.34,-172.289 1125.81,-147.509"/>
<polygon fill="midnightblue" stroke="midnightblue" points="1129.24,-148.264 1128.78,-137.679 1122.54,-146.242 1129.24,-148.264"/>
</g>
<!-- Node16 -->
<g id="node32" class="node"><title>Node16</title>
<polygon fill="white" stroke="#bfbfbf" points="960,-174.5 960,-195.5 1012,-195.5 1012,-174.5 960,-174.5"/>
<text text-anchor="middle" x="986" y="-182.5" font-family="Helvetica,sans-Serif" font-size="10.00">QBrush</text>
</g>
<!-- Node10&#45;&gt;Node16 -->
<g id="edge32" class="edge"><title>Node10&#45;&gt;Node16</title>
<path fill="none" stroke="midnightblue" d="M1076.9,-232.497C1059.72,-223.519 1034.77,-210.484 1015.36,-200.339"/>
<polygon fill="midnightblue" stroke="midnightblue" points="1016.81,-197.15 1006.33,-195.621 1013.57,-203.354 1016.81,-197.15"/>
</g>
<!-- Node17 -->
<g id="node34" class="node"><title>Node17</title>
<polygon fill="white" stroke="#bfbfbf" points="556.5,-58.5 556.5,-79.5 611.5,-79.5 611.5,-58.5 556.5,-58.5"/>
<text text-anchor="middle" x="584" y="-66.5" font-family="Helvetica,sans-Serif" font-size="10.00">QObject</text>
</g>
<!-- Node10&#45;&gt;Node17 -->
<g id="edge34" class="edge"><title>Node10&#45;&gt;Node17</title>
<path fill="none" stroke="midnightblue" d="M1072.44,-242.55C972.046,-240.139 594.861,-225.309 525,-138 510.114,-119.396 533.382,-98.7029 554.935,-84.8755"/>
<polygon fill="midnightblue" stroke="midnightblue" points="556.92,-87.7646 563.641,-79.5746 553.28,-81.7856 556.92,-87.7646"/>
</g>
<!-- Node18 -->
<g id="node36" class="node"><title>Node18</title>
<a xlink:href="thingpaintable_8h.htm" target="_top" xlink:title="thingpaintable.h">
<polygon fill="white" stroke="black" points="1789.5,-116.5 1789.5,-137.5 1880.5,-137.5 1880.5,-116.5 1789.5,-116.5"/>
<text text-anchor="middle" x="1835" y="-124.5" font-family="Helvetica,sans-Serif" font-size="10.00">thingpaintable.h</text>
</a>
</g>
<!-- Node10&#45;&gt;Node18 -->
<g id="edge36" class="edge"><title>Node10&#45;&gt;Node18</title>
<path fill="none" stroke="midnightblue" d="M1121.62,-239.745C1209.55,-228.011 1516.34,-186.125 1779.24,-138.278"/>
<polygon fill="midnightblue" stroke="midnightblue" points="1780.15,-141.669 1789.36,-136.429 1778.89,-134.783 1780.15,-141.669"/>
</g>
<!-- Node24 -->
<g id="node54" class="node"><title>Node24</title>
<a xlink:href="icon_8h.htm" target="_top" xlink:title="icon.h">
<polygon fill="white" stroke="black" points="1372,-174.5 1372,-195.5 1416,-195.5 1416,-174.5 1372,-174.5"/>
<text text-anchor="middle" x="1394" y="-182.5" font-family="Helvetica,sans-Serif" font-size="10.00">icon.h</text>
</a>
</g>
<!-- Node10&#45;&gt;Node24 -->
<g id="edge60" class="edge"><title>Node10&#45;&gt;Node24</title>
<path fill="none" stroke="midnightblue" d="M1121.56,-238.204C1175.05,-227.758 1302.08,-202.951 1361.85,-191.278"/>
<polygon fill="midnightblue" stroke="midnightblue" points="1362.72,-194.675 1371.86,-189.323 1361.38,-187.805 1362.72,-194.675"/>
</g>
<!-- Node29 -->
<g id="node71" class="node"><title>Node29</title>
<a xlink:href="pixmapobject_8h.htm" target="_top" xlink:title="pixmapobject.h">
<polygon fill="white" stroke="black" points="392,-116.5 392,-137.5 478,-137.5 478,-116.5 392,-116.5"/>
<text text-anchor="middle" x="435" y="-124.5" font-family="Helvetica,sans-Serif" font-size="10.00">pixmapobject.h</text>
</a>
</g>
<!-- Node10&#45;&gt;Node29 -->
<g id="edge106" class="edge"><title>Node10&#45;&gt;Node29</title>
<path fill="none" stroke="midnightblue" d="M1072.39,-242.22C965.458,-238.677 544.183,-223.097 492,-196 471.02,-185.106 454.845,-162.79 445.174,-146.477"/>
<polygon fill="midnightblue" stroke="midnightblue" points="448.191,-144.702 440.244,-137.696 442.088,-148.13 448.191,-144.702"/>
</g>
<!-- Node34 -->
<g id="node88" class="node"><title>Node34</title>
<a xlink:href="frictiontransform_8h.htm" target="_top" xlink:title="frictiontransform.h">
<polygon fill="white" stroke="black" points="1980.5,-174.5 1980.5,-195.5 2081.5,-195.5 2081.5,-174.5 1980.5,-174.5"/>
<text text-anchor="middle" x="2031" y="-182.5" font-family="Helvetica,sans-Serif" font-size="10.00">frictiontransform.h</text>
</a>
</g>
<!-- Node10&#45;&gt;Node34 -->
<g id="edge108" class="edge"><title>Node10&#45;&gt;Node34</title>
<path fill="none" stroke="midnightblue" d="M1121.79,-242.55C1224.84,-240.49 1629.44,-230.522 1960,-196 1963.29,-195.657 1966.66,-195.267 1970.05,-194.843"/>
<polygon fill="midnightblue" stroke="midnightblue" points="1970.82,-198.272 1980.27,-193.485 1969.9,-191.333 1970.82,-198.272"/>
</g>
<!-- Node42 -->
<g id="node111" class="node"><title>Node42</title>
<a xlink:href="dimensionstypes_8h.htm" target="_top" xlink:title="dimensionstypes.h">
<polygon fill="white" stroke="black" points="1144,-174.5 1144,-195.5 1248,-195.5 1248,-174.5 1144,-174.5"/>
<text text-anchor="middle" x="1196" y="-182.5" font-family="Helvetica,sans-Serif" font-size="10.00">dimensionstypes.h</text>
</a>
</g>
<!-- Node10&#45;&gt;Node42 -->
<g id="edge138" class="edge"><title>Node10&#45;&gt;Node42</title>
<path fill="none" stroke="midnightblue" d="M1115.16,-232.362C1130.23,-223.532 1151.89,-210.844 1168.99,-200.822"/>
<polygon fill="midnightblue" stroke="midnightblue" points="1171.1,-203.646 1177.96,-195.571 1167.56,-197.606 1171.1,-203.646"/>
</g>
<!-- Node43 -->
<g id="node113" class="node"><title>Node43</title>
<a xlink:href="KineticScroller_8h.htm" target="_top" xlink:title="KineticScroller.h">
<polygon fill="white" stroke="black" points="792,-174.5 792,-195.5 884,-195.5 884,-174.5 792,-174.5"/>
<text text-anchor="middle" x="838" y="-182.5" font-family="Helvetica,sans-Serif" font-size="10.00">KineticScroller.h</text>
</a>
</g>
<!-- Node10&#45;&gt;Node43 -->
<g id="edge140" class="edge"><title>Node10&#45;&gt;Node43</title>
<path fill="none" stroke="midnightblue" d="M1072.17,-237.439C1031.52,-228.337 949.789,-210.034 894.471,-197.646"/>
<polygon fill="midnightblue" stroke="midnightblue" points="894.988,-194.175 884.465,-195.405 893.459,-201.006 894.988,-194.175"/>
</g>
<!-- Node18&#45;&gt;Node12 -->
<g id="edge58" class="edge"><title>Node18&#45;&gt;Node12</title>
<path fill="none" stroke="midnightblue" d="M1789.39,-117.41C1786.55,-116.907 1783.74,-116.432 1781,-116 1639.19,-93.65 1596.25,-125.215 1460,-80 1423.81,-67.991 1386.57,-43.8763 1363.85,-27.5821"/>
<polygon fill="midnightblue" stroke="midnightblue" points="1365.74,-24.6314 1355.6,-21.5533 1361.61,-30.2816 1365.74,-24.6314"/>
</g>
<!-- Node18&#45;&gt;Node14 -->
<g id="edge56" class="edge"><title>Node18&#45;&gt;Node14</title>
<path fill="none" stroke="midnightblue" d="M1842.55,-116.322C1853.02,-101.975 1873.05,-76.1786 1894,-58 1907.77,-46.055 1924.85,-34.9997 1939.13,-26.6161"/>
<polygon fill="midnightblue" stroke="midnightblue" points="1941.11,-29.5163 1948.05,-21.5101 1937.63,-23.4415 1941.11,-29.5163"/>
</g>
<!-- Node19 -->
<g id="node38" class="node"><title>Node19</title>
<a xlink:href="thing_8h.htm" target="_top" xlink:title="thing.h">
<polygon fill="white" stroke="black" points="1469,-58.5 1469,-79.5 1517,-79.5 1517,-58.5 1469,-58.5"/>
<text text-anchor="middle" x="1493" y="-66.5" font-family="Helvetica,sans-Serif" font-size="10.00">thing.h</text>
</a>
</g>
<!-- Node18&#45;&gt;Node19 -->
<g id="edge38" class="edge"><title>Node18&#45;&gt;Node19</title>
<path fill="none" stroke="midnightblue" d="M1789.36,-117.572C1786.53,-117.029 1783.73,-116.5 1781,-116 1689.67,-99.2522 1581.49,-82.3944 1527.41,-74.1685"/>
<polygon fill="midnightblue" stroke="midnightblue" points="1527.74,-70.6796 1517.33,-72.6411 1526.69,-77.6005 1527.74,-70.6796"/>
</g>
<!-- Node19&#45;&gt;Node11 -->
<g id="edge42" class="edge"><title>Node19&#45;&gt;Node11</title>
<path fill="none" stroke="midnightblue" d="M1468.84,-67.11C1415.62,-62.6168 1284.29,-49.7126 1166.19,-21.9443"/>
<polygon fill="midnightblue" stroke="midnightblue" points="1166.81,-18.4924 1156.27,-19.567 1165.18,-25.2999 1166.81,-18.4924"/>
</g>
<!-- Node19&#45;&gt;Node12 -->
<g id="edge50" class="edge"><title>Node19&#45;&gt;Node12</title>
<path fill="none" stroke="midnightblue" d="M1468.74,-59.6813C1444.28,-50.2858 1406.23,-35.6719 1378.2,-24.9059"/>
<polygon fill="midnightblue" stroke="midnightblue" points="1379.34,-21.5917 1368.75,-21.2732 1376.83,-28.1262 1379.34,-21.5917"/>
</g>
<!-- Node19&#45;&gt;Node13 -->
<g id="edge44" class="edge"><title>Node19&#45;&gt;Node13</title>
<path fill="none" stroke="midnightblue" d="M1468.86,-65.3016C1425.43,-58.4754 1331.07,-42.8677 1242.71,-22.2613"/>
<polygon fill="midnightblue" stroke="midnightblue" points="1243.33,-18.8134 1232.8,-19.923 1241.73,-25.6263 1243.33,-18.8134"/>
</g>
<!-- Node19&#45;&gt;Node14 -->
<g id="edge46" class="edge"><title>Node19&#45;&gt;Node14</title>
<path fill="none" stroke="midnightblue" d="M1517.02,-67.066C1593.95,-60.777 1834.41,-40.356 1931.38,-21.9623"/>
<polygon fill="midnightblue" stroke="midnightblue" points="1932.27,-25.353 1941.39,-19.9605 1930.9,-18.4888 1932.27,-25.353"/>
</g>
<!-- Node20 -->
<g id="node40" class="node"><title>Node20</title>
<polygon fill="white" stroke="#bfbfbf" points="1444,-0.5 1444,-21.5 1542,-21.5 1542,-0.5 1444,-0.5"/>
<text text-anchor="middle" x="1493" y="-8.5" font-family="Helvetica,sans-Serif" font-size="10.00">QGraphicsObject</text>
</g>
<!-- Node19&#45;&gt;Node20 -->
<g id="edge40" class="edge"><title>Node19&#45;&gt;Node20</title>
<path fill="none" stroke="midnightblue" d="M1493,-58.3619C1493,-50.9219 1493,-40.7427 1493,-31.7276"/>
<polygon fill="midnightblue" stroke="midnightblue" points="1496.5,-31.5706 1493,-21.5707 1489.5,-31.5707 1496.5,-31.5706"/>
</g>
<!-- Node21 -->
<g id="node45" class="node"><title>Node21</title>
<polygon fill="white" stroke="#bfbfbf" points="1385.5,-0.5 1385.5,-21.5 1426.5,-21.5 1426.5,-0.5 1385.5,-0.5"/>
<text text-anchor="middle" x="1406" y="-8.5" font-family="Helvetica,sans-Serif" font-size="10.00">QList</text>
</g>
<!-- Node19&#45;&gt;Node21 -->
<g id="edge48" class="edge"><title>Node19&#45;&gt;Node21</title>
<path fill="none" stroke="midnightblue" d="M1477.04,-58.3619C1464.04,-49.6955 1445.47,-37.3126 1430.57,-27.3819"/>
<polygon fill="midnightblue" stroke="midnightblue" points="1432.12,-24.2055 1421.86,-21.5707 1428.24,-30.0299 1432.12,-24.2055"/>
</g>
<!-- Node22 -->
<g id="node48" class="node"><title>Node22</title>
<polygon fill="white" stroke="#bfbfbf" points="1559.5,-0.5 1559.5,-21.5 1614.5,-21.5 1614.5,-0.5 1559.5,-0.5"/>
<text text-anchor="middle" x="1587" y="-8.5" font-family="Helvetica,sans-Serif" font-size="10.00">QDebug</text>
</g>
<!-- Node19&#45;&gt;Node22 -->
<g id="edge52" class="edge"><title>Node19&#45;&gt;Node22</title>
<path fill="none" stroke="midnightblue" d="M1510.24,-58.3619C1524.55,-49.532 1545.11,-36.844 1561.36,-26.8224"/>
<polygon fill="midnightblue" stroke="midnightblue" points="1563.2,-29.8004 1569.87,-21.5707 1559.52,-23.8431 1563.2,-29.8004"/>
</g>
<!-- Node23 -->
<g id="node50" class="node"><title>Node23</title>
<polygon fill="white" stroke="#bfbfbf" points="1704,-0.5 1704,-21.5 1754,-21.5 1754,-0.5 1704,-0.5"/>
<text text-anchor="middle" x="1729" y="-8.5" font-family="Helvetica,sans-Serif" font-size="10.00">QHash</text>
</g>
<!-- Node19&#45;&gt;Node23 -->
<g id="edge54" class="edge"><title>Node19&#45;&gt;Node23</title>
<path fill="none" stroke="midnightblue" d="M1517.11,-64.0783C1553.44,-56.5134 1624.57,-41.1352 1694.03,-22.115"/>
<polygon fill="midnightblue" stroke="midnightblue" points="1695.12,-25.4472 1703.82,-19.4075 1693.25,-18.7006 1695.12,-25.4472"/>
</g>
<!-- Node24&#45;&gt;Node11 -->
<g id="edge62" class="edge"><title>Node24&#45;&gt;Node11</title>
<path fill="none" stroke="midnightblue" d="M1371.76,-181.651C1341.53,-176.299 1286.7,-163.693 1247,-138 1202.08,-108.93 1163.81,-57.6766 1145.16,-30.0021"/>
<polygon fill="midnightblue" stroke="midnightblue" points="1148.03,-28.0048 1139.6,-21.5869 1142.19,-31.8609 1148.03,-28.0048"/>
</g>
<!-- Node24&#45;&gt;Node12 -->
<g id="edge64" class="edge"><title>Node24&#45;&gt;Node12</title>
<path fill="none" stroke="midnightblue" d="M1391.16,-174.21C1387.54,-160.6 1381.04,-136.499 1375,-116 1366.31,-86.5006 1355.5,-52.5916 1348.67,-31.4773"/>
<polygon fill="midnightblue" stroke="midnightblue" points="1351.92,-30.1251 1345.5,-21.6933 1345.26,-32.2854 1351.92,-30.1251"/>
</g>
<!-- Node24&#45;&gt;Node13 -->
<g id="edge68" class="edge"><title>Node24&#45;&gt;Node13</title>
<path fill="none" stroke="midnightblue" d="M1371.78,-181.091C1345.27,-175.475 1300.81,-162.929 1271,-138 1236.95,-109.532 1217.44,-59.5115 1208.66,-31.4942"/>
<polygon fill="midnightblue" stroke="midnightblue" points="1211.93,-30.1935 1205.73,-21.6019 1205.22,-32.1844 1211.93,-30.1935"/>
</g>
<!-- Node24&#45;&gt;Node14 -->
<g id="edge70" class="edge"><title>Node24&#45;&gt;Node14</title>
<path fill="none" stroke="midnightblue" d="M1416.07,-184.123C1506.92,-180.348 1849.13,-164.471 1889,-138 1922.63,-115.672 1910.1,-91.9098 1932,-58 1938.21,-48.3876 1945.82,-38.2471 1952.45,-29.8557"/>
<polygon fill="midnightblue" stroke="midnightblue" points="1955.36,-31.8258 1958.9,-21.8396 1949.9,-27.4391 1955.36,-31.8258"/>
</g>
<!-- Node24&#45;&gt;Node15 -->
<g id="edge72" class="edge"><title>Node24&#45;&gt;Node15</title>
<path fill="none" stroke="midnightblue" d="M1371.84,-180.765C1331.79,-173.008 1244.73,-155.683 1172,-138 1170.74,-137.694 1169.46,-137.376 1168.17,-137.05"/>
<polygon fill="midnightblue" stroke="midnightblue" points="1168.75,-133.585 1158.19,-134.444 1166.98,-140.358 1168.75,-133.585"/>
</g>
<!-- Node24&#45;&gt;Node18 -->
<g id="edge82" class="edge"><title>Node24&#45;&gt;Node18</title>
<path fill="none" stroke="midnightblue" d="M1416.34,-182.919C1474.5,-177.368 1635.59,-161.143 1779.49,-138.155"/>
<polygon fill="midnightblue" stroke="midnightblue" points="1780.07,-141.608 1789.38,-136.56 1778.95,-134.697 1780.07,-141.608"/>
</g>
<!-- Node24&#45;&gt;Node21 -->
<g id="edge74" class="edge"><title>Node24&#45;&gt;Node21</title>
<path fill="none" stroke="midnightblue" d="M1398.13,-174.372C1401.55,-164.974 1406.13,-150.806 1408,-138 1413.41,-100.912 1410.75,-57.0884 1408.36,-31.8227"/>
<polygon fill="midnightblue" stroke="midnightblue" points="1411.81,-31.1994 1407.31,-21.6108 1404.85,-31.9168 1411.81,-31.1994"/>
</g>
<!-- Node25 -->
<g id="node58" class="node"><title>Node25</title>
<polygon fill="white" stroke="#bfbfbf" points="1459.5,-116.5 1459.5,-137.5 1506.5,-137.5 1506.5,-116.5 1459.5,-116.5"/>
<text text-anchor="middle" x="1483" y="-124.5" font-family="Helvetica,sans-Serif" font-size="10.00">QRect</text>
</g>
<!-- Node24&#45;&gt;Node25 -->
<g id="edge66" class="edge"><title>Node24&#45;&gt;Node25</title>
<path fill="none" stroke="midnightblue" d="M1410.32,-174.362C1423.75,-165.614 1442.98,-153.079 1458.29,-143.101"/>
<polygon fill="midnightblue" stroke="midnightblue" points="1460.31,-145.963 1466.78,-137.571 1456.49,-140.098 1460.31,-145.963"/>
</g>
<!-- Node26 -->
<g id="node64" class="node"><title>Node26</title>
<polygon fill="white" stroke="#bfbfbf" points="1524,-116.5 1524,-137.5 1570,-137.5 1570,-116.5 1524,-116.5"/>
<text text-anchor="middle" x="1547" y="-124.5" font-family="Helvetica,sans-Serif" font-size="10.00">QFont</text>
</g>
<!-- Node24&#45;&gt;Node26 -->
<g id="edge76" class="edge"><title>Node24&#45;&gt;Node26</title>
<path fill="none" stroke="midnightblue" d="M1416.25,-176.566C1442.09,-166.771 1484.94,-150.527 1514.5,-139.32"/>
<polygon fill="midnightblue" stroke="midnightblue" points="1515.86,-142.546 1523.97,-135.729 1513.38,-136.001 1515.86,-142.546"/>
</g>
<!-- Node27 -->
<g id="node66" class="node"><title>Node27</title>
<polygon fill="white" stroke="#bfbfbf" points="1587.5,-116.5 1587.5,-137.5 1664.5,-137.5 1664.5,-116.5 1587.5,-116.5"/>
<text text-anchor="middle" x="1626" y="-124.5" font-family="Helvetica,sans-Serif" font-size="10.00">QTextLayout</text>
</g>
<!-- Node24&#45;&gt;Node27 -->
<g id="edge78" class="edge"><title>Node24&#45;&gt;Node27</title>
<path fill="none" stroke="midnightblue" d="M1416.25,-179.439C1453.17,-170.208 1527.95,-151.513 1577.51,-139.123"/>
<polygon fill="midnightblue" stroke="midnightblue" points="1578.52,-142.478 1587.37,-136.657 1576.82,-135.687 1578.52,-142.478"/>
</g>
<!-- Node28 -->
<g id="node68" class="node"><title>Node28</title>
<polygon fill="white" stroke="#bfbfbf" points="1682,-116.5 1682,-137.5 1772,-137.5 1772,-116.5 1682,-116.5"/>
<text text-anchor="middle" x="1727" y="-124.5" font-family="Helvetica,sans-Serif" font-size="10.00">QStateMachine</text>
</g>
<!-- Node24&#45;&gt;Node28 -->
<g id="edge80" class="edge"><title>Node24&#45;&gt;Node28</title>
<path fill="none" stroke="midnightblue" d="M1416.11,-181.538C1461.83,-174.323 1570.33,-156.913 1671.83,-138.174"/>
<polygon fill="midnightblue" stroke="midnightblue" points="1672.75,-141.563 1681.94,-136.298 1671.47,-134.681 1672.75,-141.563"/>
</g>
<!-- Node24&#45;&gt;Node29 -->
<g id="edge84" class="edge"><title>Node24&#45;&gt;Node29</title>
<path fill="none" stroke="midnightblue" d="M1371.71,-182.997C1344.61,-180.611 1297.48,-176.62 1257,-174 931.954,-152.963 849.54,-165.777 525,-138 513.233,-136.993 500.634,-135.631 488.7,-134.21"/>
<polygon fill="midnightblue" stroke="midnightblue" points="488.773,-130.693 478.422,-132.952 487.923,-137.641 488.773,-130.693"/>
</g>
<!-- Node31 -->
<g id="node78" class="node"><title>Node31</title>
<a xlink:href="icondecorator_8h.htm" target="_top" xlink:title="icondecorator.h">
<polygon fill="white" stroke="black" points="1245,-58.5 1245,-79.5 1335,-79.5 1335,-58.5 1245,-58.5"/>
<text text-anchor="middle" x="1290" y="-66.5" font-family="Helvetica,sans-Serif" font-size="10.00">icondecorator.h</text>
</a>
</g>
<!-- Node24&#45;&gt;Node31 -->
<g id="edge94" class="edge"><title>Node24&#45;&gt;Node31</title>
<path fill="none" stroke="midnightblue" d="M1371.57,-182.893C1344.81,-179.042 1301.16,-168.224 1281,-138 1271.51,-123.767 1275.27,-104.164 1280.53,-89.4893"/>
<polygon fill="midnightblue" stroke="midnightblue" points="1283.94,-90.4037 1284.46,-79.8216 1277.45,-87.77 1283.94,-90.4037"/>
</g>
<!-- Node33 -->
<g id="node85" class="node"><title>Node33</title>
<a xlink:href="renderopts_8h.htm" target="_top" xlink:title="renderopts.h">
<polygon fill="white" stroke="black" points="1289.5,-116.5 1289.5,-137.5 1366.5,-137.5 1366.5,-116.5 1289.5,-116.5"/>
<text text-anchor="middle" x="1328" y="-124.5" font-family="Helvetica,sans-Serif" font-size="10.00">renderopts.h</text>
</a>
</g>
<!-- Node24&#45;&gt;Node33 -->
<g id="edge104" class="edge"><title>Node24&#45;&gt;Node33</title>
<path fill="none" stroke="midnightblue" d="M1381.89,-174.362C1372.31,-165.941 1358.74,-154.011 1347.61,-144.231"/>
<polygon fill="midnightblue" stroke="midnightblue" points="1349.85,-141.543 1340.03,-137.571 1345.23,-146.801 1349.85,-141.543"/>
</g>
<!-- Node29&#45;&gt;Node6 -->
<g id="edge92" class="edge"><title>Node29&#45;&gt;Node6</title>
<path fill="none" stroke="midnightblue" d="M425.096,-116.362C417.484,-108.186 406.792,-96.7025 397.843,-87.0907"/>
<polygon fill="midnightblue" stroke="midnightblue" points="400.217,-84.5046 390.842,-79.5707 395.094,-89.2746 400.217,-84.5046"/>
</g>
<!-- Node29&#45;&gt;Node11 -->
<g id="edge90" class="edge"><title>Node29&#45;&gt;Node11</title>
<path fill="none" stroke="midnightblue" d="M434.454,-116.37C434.302,-100.836 436.592,-72.2388 454,-58 479.268,-37.3312 967.001,-17.3191 1099.84,-12.2354"/>
<polygon fill="midnightblue" stroke="midnightblue" points="1099.97,-15.7329 1109.83,-11.8555 1099.71,-8.73793 1099.97,-15.7329"/>
</g>
<!-- Node29&#45;&gt;Node17 -->
<g id="edge86" class="edge"><title>Node29&#45;&gt;Node17</title>
<path fill="none" stroke="midnightblue" d="M461.983,-116.497C485.853,-107.205 520.894,-93.5649 547.307,-83.2832"/>
<polygon fill="midnightblue" stroke="midnightblue" points="548.917,-86.4122 556.967,-79.5231 546.378,-79.889 548.917,-86.4122"/>
</g>
<!-- Node30 -->
<g id="node74" class="node"><title>Node30</title>
<polygon fill="white" stroke="#bfbfbf" points="462.5,-58.5 462.5,-79.5 521.5,-79.5 521.5,-58.5 462.5,-58.5"/>
<text text-anchor="middle" x="492" y="-66.5" font-family="Helvetica,sans-Serif" font-size="10.00">QPixmap</text>
</g>
<!-- Node29&#45;&gt;Node30 -->
<g id="edge88" class="edge"><title>Node29&#45;&gt;Node30</title>
<path fill="none" stroke="midnightblue" d="M445.455,-116.362C453.57,-108.104 465.001,-96.4725 474.504,-86.8029"/>
<polygon fill="midnightblue" stroke="midnightblue" points="477.099,-89.1562 481.612,-79.5707 472.106,-84.2497 477.099,-89.1562"/>
</g>
<!-- Node31&#45;&gt;Node9 -->
<g id="edge102" class="edge"><title>Node31&#45;&gt;Node9</title>
<path fill="none" stroke="midnightblue" d="M1287.07,-58.3619C1284.99,-50.8401 1282.14,-40.5187 1279.64,-31.4308"/>
<polygon fill="midnightblue" stroke="midnightblue" points="1282.95,-30.2798 1276.92,-21.5707 1276.2,-32.1414 1282.95,-30.2798"/>
</g>
<!-- Node31&#45;&gt;Node12 -->
<g id="edge98" class="edge"><title>Node31&#45;&gt;Node12</title>
<path fill="none" stroke="midnightblue" d="M1299.54,-58.3619C1306.87,-50.1861 1317.16,-38.7025 1325.78,-29.0907"/>
<polygon fill="midnightblue" stroke="midnightblue" points="1328.45,-31.3528 1332.52,-21.5707 1323.24,-26.68 1328.45,-31.3528"/>
</g>
<!-- Node31&#45;&gt;Node13 -->
<g id="edge96" class="edge"><title>Node31&#45;&gt;Node13</title>
<path fill="none" stroke="midnightblue" d="M1274.04,-58.3619C1261.04,-49.6955 1242.47,-37.3126 1227.57,-27.3819"/>
<polygon fill="midnightblue" stroke="midnightblue" points="1229.12,-24.2055 1218.86,-21.5707 1225.24,-30.0299 1229.12,-24.2055"/>
</g>
<!-- Node32 -->
<g id="node82" class="node"><title>Node32</title>
<polygon fill="white" stroke="#bfbfbf" points="1631.5,-0.5 1631.5,-21.5 1686.5,-21.5 1686.5,-0.5 1631.5,-0.5"/>
<text text-anchor="middle" x="1659" y="-8.5" font-family="Helvetica,sans-Serif" font-size="10.00">QPointF</text>
</g>
<!-- Node31&#45;&gt;Node32 -->
<g id="edge100" class="edge"><title>Node31&#45;&gt;Node32</title>
<path fill="none" stroke="midnightblue" d="M1335.1,-64.8935C1397.55,-58.7141 1513.94,-45.416 1621.19,-22.1687"/>
<polygon fill="midnightblue" stroke="midnightblue" points="1622.19,-25.5317 1631.21,-19.9623 1620.69,-18.6956 1622.19,-25.5317"/>
</g>
<!-- Node35 -->
<g id="node90" class="node"><title>Node35</title>
<a xlink:href="linearmotiontransform_8h.htm" target="_top" xlink:title="linearmotiontransform.h">
<polygon fill="white" stroke="black" points="1974,-116.5 1974,-137.5 2102,-137.5 2102,-116.5 1974,-116.5"/>
<text text-anchor="middle" x="2038" y="-124.5" font-family="Helvetica,sans-Serif" font-size="10.00">linearmotiontransform.h</text>
</a>
</g>
<!-- Node34&#45;&gt;Node35 -->
<g id="edge110" class="edge"><title>Node34&#45;&gt;Node35</title>
<path fill="none" stroke="midnightblue" d="M2032.28,-174.362C2033.18,-166.922 2034.41,-156.743 2035.5,-147.728"/>
<polygon fill="midnightblue" stroke="midnightblue" points="2039,-147.918 2036.72,-137.571 2032.05,-147.079 2039,-147.918"/>
</g>
<!-- Node35&#45;&gt;Node14 -->
<g id="edge114" class="edge"><title>Node35&#45;&gt;Node14</title>
<path fill="none" stroke="midnightblue" d="M2061,-116.364C2085.62,-103.479 2119.11,-80.6705 2103,-58 2091.39,-41.66 2040.67,-27.2258 2004.83,-18.7993"/>
<polygon fill="midnightblue" stroke="midnightblue" points="2005.23,-15.3007 1994.7,-16.4834 2003.67,-22.1246 2005.23,-15.3007"/>
</g>
<!-- Node35&#45;&gt;Node17 -->
<g id="edge112" class="edge"><title>Node35&#45;&gt;Node17</title>
<path fill="none" stroke="midnightblue" d="M1973.86,-121.733C1947.57,-119.713 1916.84,-117.529 1889,-116 1387.79,-88.4832 777.374,-73.4067 621.58,-69.8351"/>
<polygon fill="midnightblue" stroke="midnightblue" points="621.645,-66.3358 611.568,-69.6071 621.486,-73.334 621.645,-66.3358"/>
</g>
<!-- Node36 -->
<g id="node94" class="node"><title>Node36</title>
<polygon fill="white" stroke="#bfbfbf" points="1974,-58.5 1974,-79.5 2020,-79.5 2020,-58.5 1974,-58.5"/>
<text text-anchor="middle" x="1997" y="-66.5" font-family="Helvetica,sans-Serif" font-size="10.00">QMap</text>
</g>
<!-- Node35&#45;&gt;Node36 -->
<g id="edge116" class="edge"><title>Node35&#45;&gt;Node36</title>
<path fill="none" stroke="midnightblue" d="M2030.48,-116.362C2024.87,-108.431 2017.07,-97.3885 2010.4,-87.9606"/>
<polygon fill="midnightblue" stroke="midnightblue" points="2013.1,-85.7161 2004.47,-79.5707 2007.39,-89.7568 2013.1,-85.7161"/>
</g>
<!-- Node37 -->
<g id="node96" class="node"><title>Node37</title>
<polygon fill="white" stroke="#bfbfbf" points="2038,-58.5 2038,-79.5 2094,-79.5 2094,-58.5 2038,-58.5"/>
<text text-anchor="middle" x="2066" y="-66.5" font-family="Helvetica,sans-Serif" font-size="10.00">QVector</text>
</g>
<!-- Node35&#45;&gt;Node37 -->
<g id="edge118" class="edge"><title>Node35&#45;&gt;Node37</title>
<path fill="none" stroke="midnightblue" d="M2043.14,-116.362C2046.85,-108.677 2051.97,-98.0686 2056.42,-88.8399"/>
<polygon fill="midnightblue" stroke="midnightblue" points="2059.7,-90.0978 2060.9,-79.5707 2053.4,-87.0545 2059.7,-90.0978"/>
</g>
<!-- Node38 -->
<g id="node98" class="node"><title>Node38</title>
<a xlink:href="dimensionsglobal_8h.htm" target="_top" xlink:title="../../dimensionsglobal.h">
<polygon fill="white" stroke="black" points="1668.5,-58.5 1668.5,-79.5 1789.5,-79.5 1789.5,-58.5 1668.5,-58.5"/>
<text text-anchor="middle" x="1729" y="-66.5" font-family="Helvetica,sans-Serif" font-size="10.00">../../dimensionsglobal.h</text>
</a>
</g>
<!-- Node35&#45;&gt;Node38 -->
<g id="edge120" class="edge"><title>Node35&#45;&gt;Node38</title>
<path fill="none" stroke="midnightblue" d="M1982.04,-116.497C1929.49,-106.632 1850.82,-91.8659 1795.17,-81.4209"/>
<polygon fill="midnightblue" stroke="midnightblue" points="1795.54,-77.928 1785.06,-79.5231 1794.25,-84.8079 1795.54,-77.928"/>
</g>
<!-- Node38&#45;&gt;Node9 -->
<g id="edge128" class="edge"><title>Node38&#45;&gt;Node9</title>
<path fill="none" stroke="midnightblue" d="M1668.25,-66.258C1587.68,-61.7338 1441.1,-50.4196 1308.63,-22.0226"/>
<polygon fill="midnightblue" stroke="midnightblue" points="1309.23,-18.571 1298.71,-19.8584 1307.73,-25.41 1309.23,-18.571"/>
</g>
<!-- Node38&#45;&gt;Node11 -->
<g id="edge132" class="edge"><title>Node38&#45;&gt;Node11</title>
<path fill="none" stroke="midnightblue" d="M1668.03,-65.8328C1546.44,-59.2128 1276.7,-42.9286 1166.11,-21.7312"/>
<polygon fill="midnightblue" stroke="midnightblue" points="1166.73,-18.2844 1156.23,-19.7317 1165.34,-25.1453 1166.73,-18.2844"/>
</g>
<!-- Node38&#45;&gt;Node12 -->
<g id="edge126" class="edge"><title>Node38&#45;&gt;Node12</title>
<path fill="none" stroke="midnightblue" d="M1668.34,-64.0918C1599.89,-57.8414 1485.17,-45.2252 1378.58,-22.0845"/>
<polygon fill="midnightblue" stroke="midnightblue" points="1379.14,-18.6244 1368.62,-19.8863 1377.64,-25.4598 1379.14,-18.6244"/>
</g>
<!-- Node38&#45;&gt;Node23 -->
<g id="edge134" class="edge"><title>Node38&#45;&gt;Node23</title>
<path fill="none" stroke="midnightblue" d="M1729,-58.3619C1729,-50.9219 1729,-40.7427 1729,-31.7276"/>
<polygon fill="midnightblue" stroke="midnightblue" points="1732.5,-31.5706 1729,-21.5707 1725.5,-31.5707 1732.5,-31.5706"/>
</g>
<!-- Node38&#45;&gt;Node32 -->
<g id="edge130" class="edge"><title>Node38&#45;&gt;Node32</title>
<path fill="none" stroke="midnightblue" d="M1716.16,-58.3619C1706,-49.9408 1691.6,-38.0105 1679.8,-28.2308"/>
<polygon fill="midnightblue" stroke="midnightblue" points="1681.69,-25.2558 1671.76,-21.5707 1677.22,-30.6459 1681.69,-25.2558"/>
</g>
<!-- Node38&#45;&gt;Node39 -->
<g id="edge122" class="edge"><title>Node38&#45;&gt;Node39</title>
<path fill="none" stroke="midnightblue" d="M1789.6,-59.5522C1866.24,-47.6023 1996.06,-27.3616 2061.21,-17.2042"/>
<polygon fill="midnightblue" stroke="midnightblue" points="2062.12,-20.6036 2071.47,-15.6048 2061.05,-13.6872 2062.12,-20.6036"/>
</g>
<!-- Node40 -->
<g id="node102" class="node"><title>Node40</title>
<polygon fill="white" stroke="#bfbfbf" points="1870,-0.5 1870,-21.5 1924,-21.5 1924,-0.5 1870,-0.5"/>
<text text-anchor="middle" x="1897" y="-8.5" font-family="Helvetica,sans-Serif" font-size="10.00">qmath.h</text>
</g>
<!-- Node38&#45;&gt;Node40 -->
<g id="edge124" class="edge"><title>Node38&#45;&gt;Node40</title>
<path fill="none" stroke="midnightblue" d="M1759.42,-58.4966C1787.71,-48.7301 1829.92,-34.1598 1860.11,-23.7345"/>
<polygon fill="midnightblue" stroke="midnightblue" points="1861.55,-26.9426 1869.86,-20.3708 1859.26,-20.3259 1861.55,-26.9426"/>
</g>
<!-- Node41 -->
<g id="node109" class="node"><title>Node41</title>
<polygon fill="white" stroke="#bfbfbf" points="1772,-0.5 1772,-21.5 1852,-21.5 1852,-0.5 1772,-0.5"/>
<text text-anchor="middle" x="1812" y="-8.5" font-family="Helvetica,sans-Serif" font-size="10.00">QVariantMap</text>
</g>
<!-- Node38&#45;&gt;Node41 -->
<g id="edge136" class="edge"><title>Node38&#45;&gt;Node41</title>
<path fill="none" stroke="midnightblue" d="M1744.22,-58.3619C1756.63,-49.6955 1774.35,-37.3126 1788.56,-27.3819"/>
<polygon fill="midnightblue" stroke="midnightblue" points="1790.68,-30.1676 1796.87,-21.5707 1786.67,-24.4297 1790.68,-30.1676"/>
</g>
<!-- Node43&#45;&gt;Node13 -->
<g id="edge150" class="edge"><title>Node43&#45;&gt;Node13</title>
<path fill="none" stroke="midnightblue" d="M870,-174.45C892.128,-166.338 921.669,-153.843 945,-138 986.859,-109.575 981.997,-82.9789 1026,-58 1078.79,-28.0341 1101.23,-37.7698 1163.27,-22.3149"/>
<polygon fill="midnightblue" stroke="midnightblue" points="1164.37,-25.6472 1173.15,-19.7268 1162.59,-18.8758 1164.37,-25.6472"/>
</g>
<!-- Node43&#45;&gt;Node15 -->
<g id="edge144" class="edge"><title>Node43&#45;&gt;Node15</title>
<path fill="none" stroke="midnightblue" d="M884.261,-175.874C942.779,-164.329 1042.33,-144.689 1095.69,-134.164"/>
<polygon fill="midnightblue" stroke="midnightblue" points="1096.58,-137.555 1105.71,-132.186 1095.23,-130.687 1096.58,-137.555"/>
</g>
<!-- Node43&#45;&gt;Node17 -->
<g id="edge142" class="edge"><title>Node43&#45;&gt;Node17</title>
<path fill="none" stroke="midnightblue" d="M791.792,-179.585C736.329,-172.312 647.472,-157.955 621,-138 605.126,-126.034 595.313,-105.22 589.817,-89.5736"/>
<polygon fill="midnightblue" stroke="midnightblue" points="593.054,-88.2027 586.681,-79.739 586.385,-90.3297 593.054,-88.2027"/>
</g>
<!-- Node44 -->
<g id="node117" class="node"><title>Node44</title>
<polygon fill="white" stroke="#bfbfbf" points="630,-116.5 630,-137.5 678,-137.5 678,-116.5 630,-116.5"/>
<text text-anchor="middle" x="654" y="-124.5" font-family="Helvetica,sans-Serif" font-size="10.00">QTime</text>
</g>
<!-- Node43&#45;&gt;Node44 -->
<g id="edge146" class="edge"><title>Node43&#45;&gt;Node44</title>
<path fill="none" stroke="midnightblue" d="M803.454,-174.462C774.843,-165.687 732.888,-152.71 687.798,-138.22"/>
<polygon fill="midnightblue" stroke="midnightblue" points="688.724,-134.841 678.132,-135.106 686.577,-141.504 688.724,-134.841"/>
</g>
<!-- Node45 -->
<g id="node119" class="node"><title>Node45</title>
<polygon fill="white" stroke="#bfbfbf" points="695.5,-116.5 695.5,-137.5 780.5,-137.5 780.5,-116.5 695.5,-116.5"/>
<text text-anchor="middle" x="738" y="-124.5" font-family="Helvetica,sans-Serif" font-size="10.00">QEasingCurve</text>
</g>
<!-- Node43&#45;&gt;Node45 -->
<g id="edge148" class="edge"><title>Node43&#45;&gt;Node45</title>
<path fill="none" stroke="midnightblue" d="M819.658,-174.362C804.434,-165.532 782.559,-152.844 765.28,-142.822"/>
<polygon fill="midnightblue" stroke="midnightblue" points="766.632,-139.56 756.225,-137.571 763.12,-145.615 766.632,-139.56"/>
</g>
<!-- Node46 -->
<g id="node122" class="node"><title>Node46</title>
<polygon fill="white" stroke="#bfbfbf" points="798,-116.5 798,-137.5 878,-137.5 878,-116.5 798,-116.5"/>
<text text-anchor="middle" x="838" y="-124.5" font-family="Helvetica,sans-Serif" font-size="10.00">QTextStream</text>
</g>
<!-- Node43&#45;&gt;Node46 -->
<g id="edge152" class="edge"><title>Node43&#45;&gt;Node46</title>
<path fill="none" stroke="midnightblue" d="M838,-174.362C838,-166.922 838,-156.743 838,-147.728"/>
<polygon fill="midnightblue" stroke="midnightblue" points="841.5,-147.571 838,-137.571 834.5,-147.571 841.5,-147.571"/>
</g>
<!-- Node47 -->
<g id="node124" class="node"><title>Node47</title>
<polygon fill="white" stroke="#bfbfbf" points="895.5,-116.5 895.5,-137.5 936.5,-137.5 936.5,-116.5 895.5,-116.5"/>
<text text-anchor="middle" x="916" y="-124.5" font-family="Helvetica,sans-Serif" font-size="10.00">QFile</text>
</g>
<!-- Node43&#45;&gt;Node47 -->
<g id="edge154" class="edge"><title>Node43&#45;&gt;Node47</title>
<path fill="none" stroke="midnightblue" d="M852.306,-174.362C863.851,-165.777 880.3,-153.546 893.59,-143.664"/>
<polygon fill="midnightblue" stroke="midnightblue" points="895.848,-146.346 901.784,-137.571 891.671,-140.729 895.848,-146.346"/>
</g>
<!-- Node48 -->
<g id="node126" class="node"><title>Node48</title>
<polygon fill="white" stroke="#bfbfbf" points="534,-116.5 534,-137.5 574,-137.5 574,-116.5 534,-116.5"/>
<text text-anchor="middle" x="554" y="-124.5" font-family="Helvetica,sans-Serif" font-size="10.00">limits</text>
</g>
<!-- Node43&#45;&gt;Node48 -->
<g id="edge156" class="edge"><title>Node43&#45;&gt;Node48</title>
<path fill="none" stroke="midnightblue" d="M791.999,-178.151C741.553,-170.223 658.401,-155.929 588,-138 586.572,-137.636 585.117,-137.246 583.651,-136.836"/>
<polygon fill="midnightblue" stroke="midnightblue" points="584.597,-133.465 574.013,-133.941 582.583,-140.17 584.597,-133.465"/>
</g>
</g>
</svg>
