<?xml version="1.0" encoding="UTF-8" standalone="no"?>
<!DOCTYPE svg PUBLIC "-//W3C//DTD SVG 1.1//EN"
 "http://www.w3.org/Graphics/SVG/1.1/DTD/svg11.dtd">
<!-- Generated by graphviz version 2.26.3 (20100126.1600)
 -->
<!-- Title: OverlayWindowManager_p.h Pages: 1 -->
<svg width="2585pt" height="262pt"
 viewBox="0.00 0.00 2585.32 262.00" xmlns="http://www.w3.org/2000/svg" xmlns:xlink="http://www.w3.org/1999/xlink">
<g id="graph1" class="graph" transform="scale(1 1) rotate(0) translate(4 258)">
<title>OverlayWindowManager_p.h</title>
<polygon fill="white" stroke="white" points="-4,5 -4,-258 2582.32,-258 2582.32,5 -4,5"/>
<!-- Node1 -->
<g id="node1" class="node"><title>Node1</title>
<polygon fill="#bfbfbf" stroke="black" points="305.324,-232.5 305.324,-253.5 459.324,-253.5 459.324,-232.5 305.324,-232.5"/>
<text text-anchor="middle" x="382.324" y="-240.5" font-family="Helvetica,sans-Serif" font-size="10.00">OverlayWindowManager_p.h</text>
</g>
<!-- Node2 -->
<g id="node3" class="node"><title>Node2</title>
<polygon fill="white" stroke="#bfbfbf" points="766.824,-0.5 766.824,-21.5 833.824,-21.5 833.824,-0.5 766.824,-0.5"/>
<text text-anchor="middle" x="800.324" y="-8.5" font-family="Helvetica,sans-Serif" font-size="10.00">Common.h</text>
</g>
<!-- Node1&#45;&gt;Node2 -->
<g id="edge2" class="edge"><title>Node1&#45;&gt;Node2</title>
<path fill="none" stroke="midnightblue" d="M372.014,-232.131C357.79,-217.567 330.883,-191.526 304.324,-174 273.129,-153.414 248.311,-169.583 228.324,-138 204.23,-99.9257 269.194,-63.1426 279.324,-58 300.496,-47.252 634.841,-22.6938 756.497,-14.0658"/>
<polygon fill="midnightblue" stroke="midnightblue" points="756.851,-17.5496 766.58,-13.3527 756.358,-10.567 756.851,-17.5496"/>
</g>
<!-- Node3 -->
<g id="node5" class="node"><title>Node3</title>
<polygon fill="white" stroke="#bfbfbf" points="13.3242,-174.5 13.3242,-195.5 75.3242,-195.5 75.3242,-174.5 13.3242,-174.5"/>
<text text-anchor="middle" x="44.3242" y="-182.5" font-family="Helvetica,sans-Serif" font-size="10.00">QGesture</text>
</g>
<!-- Node1&#45;&gt;Node3 -->
<g id="edge4" class="edge"><title>Node1&#45;&gt;Node3</title>
<path fill="none" stroke="midnightblue" d="M305.016,-233.226C247.079,-225.343 165.695,-213.093 85.9113,-196.177"/>
<polygon fill="midnightblue" stroke="midnightblue" points="86.1971,-192.659 75.6851,-193.981 84.7273,-199.503 86.1971,-192.659"/>
</g>
<!-- Node4 -->
<g id="node7" class="node"><title>Node4</title>
<polygon fill="white" stroke="#bfbfbf" points="92.8242,-174.5 92.8242,-195.5 181.824,-195.5 181.824,-174.5 92.8242,-174.5"/>
<text text-anchor="middle" x="137.324" y="-182.5" font-family="Helvetica,sans-Serif" font-size="10.00">QGestureEvent</text>
</g>
<!-- Node1&#45;&gt;Node4 -->
<g id="edge6" class="edge"><title>Node1&#45;&gt;Node4</title>
<path fill="none" stroke="midnightblue" d="M337.957,-232.497C296.891,-222.775 235.72,-208.294 191.726,-197.879"/>
<polygon fill="midnightblue" stroke="midnightblue" points="192.312,-194.421 181.775,-195.523 190.7,-201.233 192.312,-194.421"/>
</g>
<!-- Node5 -->
<g id="node9" class="node"><title>Node5</title>
<polygon fill="white" stroke="#bfbfbf" points="524.324,-0.5 524.324,-21.5 622.324,-21.5 622.324,-0.5 524.324,-0.5"/>
<text text-anchor="middle" x="573.324" y="-8.5" font-family="Helvetica,sans-Serif" font-size="10.00">QGraphicsObject</text>
</g>
<!-- Node1&#45;&gt;Node5 -->
<g id="edge8" class="edge"><title>Node1&#45;&gt;Node5</title>
<path fill="none" stroke="midnightblue" d="M305.182,-238.794C200.423,-232.281 23.889,-218.148 4.32416,-196 -2.14918,-188.672 -0.0258019,-182.757 4.32416,-174 42.288,-97.5754 78.0963,-89.7004 157.324,-58 220.706,-32.6399 415.068,-19.1906 514.055,-13.8272"/>
<polygon fill="midnightblue" stroke="midnightblue" points="514.396,-17.3141 524.196,-13.288 514.025,-10.324 514.396,-17.3141"/>
</g>
<!-- Node6 -->
<g id="node11" class="node"><title>Node6</title>
<polygon fill="white" stroke="#bfbfbf" points="236.824,-174.5 236.824,-195.5 295.824,-195.5 295.824,-174.5 236.824,-174.5"/>
<text text-anchor="middle" x="266.324" y="-182.5" font-family="Helvetica,sans-Serif" font-size="10.00">QPainter</text>
</g>
<!-- Node1&#45;&gt;Node6 -->
<g id="edge10" class="edge"><title>Node1&#45;&gt;Node6</title>
<path fill="none" stroke="midnightblue" d="M361.317,-232.497C343.281,-223.479 317.054,-210.365 296.725,-200.201"/>
<polygon fill="midnightblue" stroke="midnightblue" points="298.076,-196.963 287.567,-195.621 294.946,-203.224 298.076,-196.963"/>
</g>
<!-- Node7 -->
<g id="node13" class="node"><title>Node7</title>
<polygon fill="white" stroke="#bfbfbf" points="287.824,-58.5 287.824,-79.5 346.824,-79.5 346.824,-58.5 287.824,-58.5"/>
<text text-anchor="middle" x="317.324" y="-66.5" font-family="Helvetica,sans-Serif" font-size="10.00">QPointer</text>
</g>
<!-- Node1&#45;&gt;Node7 -->
<g id="edge12" class="edge"><title>Node1&#45;&gt;Node7</title>
<path fill="none" stroke="midnightblue" d="M323.292,-232.482C284.933,-224.309 239.967,-211.727 228.324,-196 207.168,-167.424 209.969,-146.451 228.324,-116 239.232,-97.904 259.693,-86.4169 278.248,-79.3327"/>
<polygon fill="midnightblue" stroke="midnightblue" points="279.434,-82.6256 287.716,-76.0178 277.121,-76.0188 279.434,-82.6256"/>
</g>
<!-- Node8 -->
<g id="node15" class="node"><title>Node8</title>
<polygon fill="white" stroke="#bfbfbf" points="350.824,-174.5 350.824,-195.5 413.824,-195.5 413.824,-174.5 350.824,-174.5"/>
<text text-anchor="middle" x="382.324" y="-182.5" font-family="Helvetica,sans-Serif" font-size="10.00">Settings.h</text>
</g>
<!-- Node1&#45;&gt;Node8 -->
<g id="edge14" class="edge"><title>Node1&#45;&gt;Node8</title>
<path fill="none" stroke="midnightblue" d="M382.324,-232.362C382.324,-224.922 382.324,-214.743 382.324,-205.728"/>
<polygon fill="midnightblue" stroke="midnightblue" points="385.824,-205.571 382.324,-195.571 378.824,-205.571 385.824,-205.571"/>
</g>
<!-- Node9 -->
<g id="node17" class="node"><title>Node9</title>
<polygon fill="white" stroke="#bfbfbf" points="430.824,-174.5 430.824,-195.5 501.824,-195.5 501.824,-174.5 430.824,-174.5"/>
<text text-anchor="middle" x="466.324" y="-182.5" font-family="Helvetica,sans-Serif" font-size="10.00">HostBase.h</text>
</g>
<!-- Node1&#45;&gt;Node9 -->
<g id="edge16" class="edge"><title>Node1&#45;&gt;Node9</title>
<path fill="none" stroke="midnightblue" d="M397.731,-232.362C410.282,-223.696 428.216,-211.313 442.599,-201.382"/>
<polygon fill="midnightblue" stroke="midnightblue" points="444.775,-204.133 451.015,-195.571 440.797,-198.372 444.775,-204.133"/>
</g>
<!-- Node10 -->
<g id="node19" class="node"><title>Node10</title>
<polygon fill="white" stroke="#bfbfbf" points="518.824,-174.5 518.824,-195.5 599.824,-195.5 599.824,-174.5 518.824,-174.5"/>
<text text-anchor="middle" x="559.324" y="-182.5" font-family="Helvetica,sans-Serif" font-size="10.00">Localization.h</text>
</g>
<!-- Node1&#45;&gt;Node10 -->
<g id="edge18" class="edge"><title>Node1&#45;&gt;Node10</title>
<path fill="none" stroke="midnightblue" d="M414.378,-232.497C443.233,-223.041 485.83,-209.083 517.385,-198.743"/>
<polygon fill="midnightblue" stroke="midnightblue" points="518.798,-201.963 527.211,-195.523 516.618,-195.311 518.798,-201.963"/>
</g>
<!-- Node11 -->
<g id="node21" class="node"><title>Node11</title>
<a xlink:href="SystemUiController_8h.htm" target="_top" xlink:title="SystemUiController.h">
<polygon fill="white" stroke="black" points="732.324,-174.5 732.324,-195.5 848.324,-195.5 848.324,-174.5 732.324,-174.5"/>
<text text-anchor="middle" x="790.324" y="-182.5" font-family="Helvetica,sans-Serif" font-size="10.00">SystemUiController.h</text>
</a>
</g>
<!-- Node1&#45;&gt;Node11 -->
<g id="edge20" class="edge"><title>Node1&#45;&gt;Node11</title>
<path fill="none" stroke="midnightblue" d="M456.21,-232.497C531.876,-221.74 648.53,-205.157 722.078,-194.702"/>
<polygon fill="midnightblue" stroke="midnightblue" points="722.753,-198.141 732.161,-193.268 721.768,-191.211 722.753,-198.141"/>
</g>
<!-- Node35 -->
<g id="node88" class="node"><title>Node35</title>
<a xlink:href="pixmapobject_8h.htm" target="_top" xlink:title="pixmapobject.h">
<polygon fill="white" stroke="black" points="1425.32,-116.5 1425.32,-137.5 1511.32,-137.5 1511.32,-116.5 1425.32,-116.5"/>
<text text-anchor="middle" x="1468.32" y="-124.5" font-family="Helvetica,sans-Serif" font-size="10.00">pixmapobject.h</text>
</a>
</g>
<!-- Node1&#45;&gt;Node35 -->
<g id="edge106" class="edge"><title>Node1&#45;&gt;Node35</title>
<path fill="none" stroke="midnightblue" d="M459.429,-237.559C631.062,-224.917 1057.41,-190.576 1411.32,-138 1412.59,-137.813 1413.86,-137.617 1415.15,-137.414"/>
<polygon fill="midnightblue" stroke="midnightblue" points="1415.85,-140.846 1425.13,-135.742 1414.69,-133.942 1415.85,-140.846"/>
</g>
<!-- Node37 -->
<g id="node95" class="node"><title>Node37</title>
<a xlink:href="dimensionsglobal_8h.htm" target="_top" xlink:title="dimensionsglobal.h">
<polygon fill="white" stroke="black" points="1681.32,-116.5 1681.32,-137.5 1787.32,-137.5 1787.32,-116.5 1681.32,-116.5"/>
<text text-anchor="middle" x="1734.32" y="-124.5" font-family="Helvetica,sans-Serif" font-size="10.00">dimensionsglobal.h</text>
</a>
</g>
<!-- Node1&#45;&gt;Node37 -->
<g id="edge116" class="edge"><title>Node1&#45;&gt;Node37</title>
<path fill="none" stroke="midnightblue" d="M459.436,-238.452C585.014,-230.862 841.478,-214.6 1058.32,-196 1283.89,-176.652 1551.15,-147.537 1670.84,-134.171"/>
<polygon fill="midnightblue" stroke="midnightblue" points="1671.37,-137.633 1680.92,-133.043 1670.6,-130.677 1671.37,-137.633"/>
</g>
<!-- Node45 -->
<g id="node112" class="node"><title>Node45</title>
<a xlink:href="layoutsettings_8h.htm" target="_top" xlink:title="layoutsettings.h">
<polygon fill="white" stroke="black" points="2191.82,-116.5 2191.82,-137.5 2280.82,-137.5 2280.82,-116.5 2191.82,-116.5"/>
<text text-anchor="middle" x="2236.32" y="-124.5" font-family="Helvetica,sans-Serif" font-size="10.00">layoutsettings.h</text>
</a>
</g>
<!-- Node1&#45;&gt;Node45 -->
<g id="edge134" class="edge"><title>Node1&#45;&gt;Node45</title>
<path fill="none" stroke="midnightblue" d="M459.379,-238.654C602.178,-230.561 917.596,-212.502 1183.32,-196 1565.39,-172.273 2025.27,-141.311 2181.41,-130.731"/>
<polygon fill="midnightblue" stroke="midnightblue" points="2181.94,-134.203 2191.68,-130.035 2181.47,-127.219 2181.94,-134.203"/>
</g>
<!-- Node11&#45;&gt;Node2 -->
<g id="edge22" class="edge"><title>Node11&#45;&gt;Node2</title>
<path fill="none" stroke="midnightblue" d="M754.841,-174.417C696.286,-155.142 589.731,-111.339 630.324,-58 645.593,-37.937 711.56,-24.2378 756.684,-17.0168"/>
<polygon fill="midnightblue" stroke="midnightblue" points="757.469,-20.437 766.815,-15.4474 756.398,-13.5195 757.469,-20.437"/>
</g>
<!-- Node12 -->
<g id="node24" class="node"><title>Node12</title>
<polygon fill="white" stroke="#bfbfbf" points="1337.82,-0.5 1337.82,-21.5 1380.82,-21.5 1380.82,-0.5 1337.82,-0.5"/>
<text text-anchor="middle" x="1359.32" y="-8.5" font-family="Helvetica,sans-Serif" font-size="10.00">string</text>
</g>
<!-- Node11&#45;&gt;Node12 -->
<g id="edge24" class="edge"><title>Node11&#45;&gt;Node12</title>
<path fill="none" stroke="midnightblue" d="M848.532,-181.13C978.016,-172.317 1279.98,-150.544 1298.32,-138 1334.49,-113.273 1349.91,-60.975 1355.91,-31.793"/>
<polygon fill="midnightblue" stroke="midnightblue" points="1359.37,-32.3194 1357.77,-21.8461 1352.49,-31.0315 1359.37,-32.3194"/>
</g>
<!-- Node13 -->
<g id="node26" class="node"><title>Node13</title>
<polygon fill="white" stroke="#bfbfbf" points="685.324,-116.5 685.324,-137.5 737.324,-137.5 737.324,-116.5 685.324,-116.5"/>
<text text-anchor="middle" x="711.324" y="-124.5" font-family="Helvetica,sans-Serif" font-size="10.00">QEvent</text>
</g>
<!-- Node11&#45;&gt;Node13 -->
<g id="edge26" class="edge"><title>Node11&#45;&gt;Node13</title>
<path fill="none" stroke="midnightblue" d="M775.834,-174.362C764.141,-165.777 747.481,-153.546 734.021,-143.664"/>
<polygon fill="midnightblue" stroke="midnightblue" points="735.854,-140.667 725.722,-137.571 731.712,-146.31 735.854,-140.667"/>
</g>
<!-- Node14 -->
<g id="node28" class="node"><title>Node14</title>
<polygon fill="white" stroke="#bfbfbf" points="755.324,-116.5 755.324,-137.5 825.324,-137.5 825.324,-116.5 755.324,-116.5"/>
<text text-anchor="middle" x="790.324" y="-124.5" font-family="Helvetica,sans-Serif" font-size="10.00">QKeyEvent</text>
</g>
<!-- Node11&#45;&gt;Node14 -->
<g id="edge28" class="edge"><title>Node11&#45;&gt;Node14</title>
<path fill="none" stroke="midnightblue" d="M790.324,-174.362C790.324,-166.922 790.324,-156.743 790.324,-147.728"/>
<polygon fill="midnightblue" stroke="midnightblue" points="793.824,-147.571 790.324,-137.571 786.824,-147.571 793.824,-147.571"/>
</g>
<!-- Node15 -->
<g id="node30" class="node"><title>Node15</title>
<polygon fill="white" stroke="#bfbfbf" points="956.824,-116.5 956.824,-137.5 1039.82,-137.5 1039.82,-116.5 956.824,-116.5"/>
<text text-anchor="middle" x="998.324" y="-124.5" font-family="Helvetica,sans-Serif" font-size="10.00">QMouseEvent</text>
</g>
<!-- Node11&#45;&gt;Node15 -->
<g id="edge30" class="edge"><title>Node11&#45;&gt;Node15</title>
<path fill="none" stroke="midnightblue" d="M827.991,-174.497C862.341,-164.918 913.261,-150.72 950.478,-140.342"/>
<polygon fill="midnightblue" stroke="midnightblue" points="951.894,-143.581 960.586,-137.523 950.014,-136.838 951.894,-143.581"/>
</g>
<!-- Node16 -->
<g id="node32" class="node"><title>Node16</title>
<polygon fill="white" stroke="#bfbfbf" points="1238.82,-58.5 1238.82,-79.5 1293.82,-79.5 1293.82,-58.5 1238.82,-58.5"/>
<text text-anchor="middle" x="1266.32" y="-66.5" font-family="Helvetica,sans-Serif" font-size="10.00">QObject</text>
</g>
<!-- Node11&#45;&gt;Node16 -->
<g id="edge32" class="edge"><title>Node11&#45;&gt;Node16</title>
<path fill="none" stroke="midnightblue" d="M809.615,-174.416C838.741,-158.94 896.1,-130.417 948.324,-116 1067.03,-83.2301 1104.88,-105.366 1228.68,-80.0745"/>
<polygon fill="midnightblue" stroke="midnightblue" points="1229.47,-83.485 1238.54,-77.9995 1228.03,-76.6352 1229.47,-83.485"/>
</g>
<!-- Node17 -->
<g id="node34" class="node"><title>Node17</title>
<polygon fill="white" stroke="#bfbfbf" points="1242.82,-116.5 1242.82,-137.5 1289.82,-137.5 1289.82,-116.5 1242.82,-116.5"/>
<text text-anchor="middle" x="1266.32" y="-124.5" font-family="Helvetica,sans-Serif" font-size="10.00">QRect</text>
</g>
<!-- Node11&#45;&gt;Node17 -->
<g id="edge34" class="edge"><title>Node11&#45;&gt;Node17</title>
<path fill="none" stroke="midnightblue" d="M848.469,-183.021C932.02,-179.262 1090.77,-168.703 1232.96,-137.929"/>
<polygon fill="midnightblue" stroke="midnightblue" points="1233.72,-141.345 1242.73,-135.776 1232.21,-134.509 1233.72,-141.345"/>
</g>
<!-- Node18 -->
<g id="node36" class="node"><title>Node18</title>
<polygon fill="white" stroke="#bfbfbf" points="236.824,-116.5 236.824,-137.5 329.824,-137.5 329.824,-116.5 236.824,-116.5"/>
<text text-anchor="middle" x="283.324" y="-124.5" font-family="Helvetica,sans-Serif" font-size="10.00">QSharedPointer</text>
</g>
<!-- Node11&#45;&gt;Node18 -->
<g id="edge36" class="edge"><title>Node11&#45;&gt;Node18</title>
<path fill="none" stroke="midnightblue" d="M732.309,-180.719C648.014,-174.111 486.58,-160.004 340.148,-138.178"/>
<polygon fill="midnightblue" stroke="midnightblue" points="340.489,-134.69 330.079,-136.661 339.446,-141.612 340.489,-134.69"/>
</g>
<!-- Node19 -->
<g id="node38" class="node"><title>Node19</title>
<polygon fill="white" stroke="#bfbfbf" points="347.324,-116.5 347.324,-137.5 433.324,-137.5 433.324,-116.5 347.324,-116.5"/>
<text text-anchor="middle" x="390.324" y="-124.5" font-family="Helvetica,sans-Serif" font-size="10.00">QWeakPointer</text>
</g>
<!-- Node11&#45;&gt;Node19 -->
<g id="edge38" class="edge"><title>Node11&#45;&gt;Node19</title>
<path fill="none" stroke="midnightblue" d="M732.242,-178.492C665.085,-170.668 551.014,-156.462 443.459,-138.102"/>
<polygon fill="midnightblue" stroke="midnightblue" points="443.856,-134.619 433.407,-136.371 442.668,-141.518 443.856,-134.619"/>
</g>
<!-- Node20 -->
<g id="node40" class="node"><title>Node20</title>
<a xlink:href="ApplicationDescription_8h.htm" target="_top" xlink:title="ApplicationDescription.h">
<polygon fill="white" stroke="red" points="1095.32,-116.5 1095.32,-137.5 1225.32,-137.5 1225.32,-116.5 1095.32,-116.5"/>
<text text-anchor="middle" x="1160.32" y="-124.5" font-family="Helvetica,sans-Serif" font-size="10.00">ApplicationDescription.h</text>
</a>
</g>
<!-- Node11&#45;&gt;Node20 -->
<g id="edge40" class="edge"><title>Node11&#45;&gt;Node20</title>
<path fill="none" stroke="midnightblue" d="M848.544,-175.874C912.457,-165.855 1015.27,-149.738 1085.21,-138.774"/>
<polygon fill="midnightblue" stroke="midnightblue" points="1085.95,-142.202 1095.28,-137.195 1084.86,-135.286 1085.95,-142.202"/>
</g>
<!-- Node28 -->
<g id="node61" class="node"><title>Node28</title>
<polygon fill="white" stroke="#bfbfbf" points="451.324,-116.5 451.324,-137.5 503.324,-137.5 503.324,-116.5 451.324,-116.5"/>
<text text-anchor="middle" x="477.324" y="-124.5" font-family="Helvetica,sans-Serif" font-size="10.00">Event.h</text>
</g>
<!-- Node11&#45;&gt;Node28 -->
<g id="edge66" class="edge"><title>Node11&#45;&gt;Node28</title>
<path fill="none" stroke="midnightblue" d="M732.218,-176.684C676.728,-168.345 590.902,-154.409 517.324,-138 516.059,-137.718 514.774,-137.421 513.478,-137.113"/>
<polygon fill="midnightblue" stroke="midnightblue" points="514.035,-133.644 503.482,-134.588 512.321,-140.431 514.035,-133.644"/>
</g>
<!-- Node29 -->
<g id="node63" class="node"><title>Node29</title>
<a xlink:href="SuspendBlocker_8h.htm" target="_top" xlink:title="SuspendBlocker.h">
<polygon fill="white" stroke="red" points="878.824,-58.5 878.824,-79.5 979.824,-79.5 979.824,-58.5 878.824,-58.5"/>
<text text-anchor="middle" x="929.324" y="-66.5" font-family="Helvetica,sans-Serif" font-size="10.00">SuspendBlocker.h</text>
</a>
</g>
<!-- Node11&#45;&gt;Node29 -->
<g id="edge68" class="edge"><title>Node11&#45;&gt;Node29</title>
<path fill="none" stroke="midnightblue" d="M848.518,-182.782C916.649,-178.82 1023.39,-167.891 1048.32,-138 1070.44,-111.488 1029.62,-92.9136 989.899,-81.7677"/>
<polygon fill="midnightblue" stroke="midnightblue" points="990.696,-78.3579 980.131,-79.1619 988.891,-85.1214 990.696,-78.3579"/>
</g>
<!-- Node30 -->
<g id="node67" class="node"><title>Node30</title>
<a xlink:href="VariantAnimation_8h.htm" target="_top" xlink:title="VariantAnimation.h">
<polygon fill="white" stroke="red" points="638.824,-58.5 638.824,-79.5 743.824,-79.5 743.824,-58.5 638.824,-58.5"/>
<text text-anchor="middle" x="691.324" y="-66.5" font-family="Helvetica,sans-Serif" font-size="10.00">VariantAnimation.h</text>
</a>
</g>
<!-- Node11&#45;&gt;Node30 -->
<g id="edge74" class="edge"><title>Node11&#45;&gt;Node30</title>
<path fill="none" stroke="midnightblue" d="M805.437,-174.461C823.284,-160.704 848.821,-136.024 834.324,-116 824.351,-102.225 787.557,-90.3078 753.791,-81.9204"/>
<polygon fill="midnightblue" stroke="midnightblue" points="754.45,-78.4792 743.909,-79.5413 752.812,-85.2847 754.45,-78.4792"/>
</g>
<!-- Node31 -->
<g id="node70" class="node"><title>Node31</title>
<a xlink:href="Window_8h.htm" target="_top" xlink:title="Window.h">
<polygon fill="white" stroke="red" points="799.324,-58.5 799.324,-79.5 861.324,-79.5 861.324,-58.5 799.324,-58.5"/>
<text text-anchor="middle" x="830.324" y="-66.5" font-family="Helvetica,sans-Serif" font-size="10.00">Window.h</text>
</a>
</g>
<!-- Node11&#45;&gt;Node31 -->
<g id="edge78" class="edge"><title>Node11&#45;&gt;Node31</title>
<path fill="none" stroke="midnightblue" d="M821.86,-174.438C838.564,-167.048 857.59,-155.346 867.324,-138 877.034,-120.697 863.642,-100.693 850.336,-86.6936"/>
<polygon fill="midnightblue" stroke="midnightblue" points="852.687,-84.0975 843.099,-79.5892 847.783,-89.0926 852.687,-84.0975"/>
</g>
<!-- Node33 -->
<g id="node79" class="node"><title>Node33</title>
<polygon fill="white" stroke="#bfbfbf" points="453.324,-58.5 453.324,-79.5 545.324,-79.5 545.324,-58.5 453.324,-58.5"/>
<text text-anchor="middle" x="499.324" y="-66.5" font-family="Helvetica,sans-Serif" font-size="10.00">CustomEvents.h</text>
</g>
<!-- Node11&#45;&gt;Node33 -->
<g id="edge92" class="edge"><title>Node11&#45;&gt;Node33</title>
<path fill="none" stroke="midnightblue" d="M732.129,-178.502C671.073,-170.834 579.93,-156.72 550.324,-138 531.452,-126.067 517.196,-104.453 508.62,-88.5857"/>
<polygon fill="midnightblue" stroke="midnightblue" points="511.689,-86.9002 504.023,-79.5865 505.455,-90.0842 511.689,-86.9002"/>
</g>
<!-- Node34 -->
<g id="node81" class="node"><title>Node34</title>
<a xlink:href="StatusBar_8h.htm" target="_top" xlink:title="StatusBar.h">
<polygon fill="white" stroke="black" points="558.824,-116.5 558.824,-137.5 629.824,-137.5 629.824,-116.5 558.824,-116.5"/>
<text text-anchor="middle" x="594.324" y="-124.5" font-family="Helvetica,sans-Serif" font-size="10.00">StatusBar.h</text>
</a>
</g>
<!-- Node11&#45;&gt;Node34 -->
<g id="edge94" class="edge"><title>Node11&#45;&gt;Node34</title>
<path fill="none" stroke="midnightblue" d="M754.83,-174.497C722.6,-164.959 674.89,-150.841 639.861,-140.475"/>
<polygon fill="midnightblue" stroke="midnightblue" points="640.467,-137.005 629.885,-137.523 638.481,-143.717 640.467,-137.005"/>
</g>
<!-- Node20&#45;&gt;Node2 -->
<g id="edge42" class="edge"><title>Node20&#45;&gt;Node2</title>
<path fill="none" stroke="midnightblue" d="M1095.27,-119.835C990.447,-108.14 795.327,-85.6785 790.324,-80 778.575,-66.6639 783.594,-45.9259 790.011,-30.6647"/>
<polygon fill="midnightblue" stroke="midnightblue" points="793.203,-32.1008 794.267,-21.5596 786.861,-29.1364 793.203,-32.1008"/>
</g>
<!-- Node20&#45;&gt;Node12 -->
<g id="edge44" class="edge"><title>Node20&#45;&gt;Node12</title>
<path fill="none" stroke="midnightblue" d="M1215.16,-116.464C1242.98,-109.307 1276.28,-97.815 1302.32,-80 1321.33,-66.995 1337.44,-45.9159 1347.63,-30.4737"/>
<polygon fill="midnightblue" stroke="midnightblue" points="1350.79,-32.0299 1353.19,-21.7097 1344.88,-28.2826 1350.79,-32.0299"/>
</g>
<!-- Node21 -->
<g id="node44" class="node"><title>Node21</title>
<polygon fill="white" stroke="#bfbfbf" points="902.324,-0.5 902.324,-21.5 952.324,-21.5 952.324,-0.5 902.324,-0.5"/>
<text text-anchor="middle" x="927.324" y="-8.5" font-family="Helvetica,sans-Serif" font-size="10.00">stdint.h</text>
</g>
<!-- Node20&#45;&gt;Node21 -->
<g id="edge46" class="edge"><title>Node20&#45;&gt;Node21</title>
<path fill="none" stroke="midnightblue" d="M1121.64,-116.48C1094.24,-108.306 1057.05,-95.7239 1026.32,-80 997.407,-65.2011 967.201,-43.0163 947.875,-27.8217"/>
<polygon fill="midnightblue" stroke="midnightblue" points="950.051,-25.08 940.05,-21.5819 945.687,-30.553 950.051,-25.08"/>
</g>
<!-- Node22 -->
<g id="node46" class="node"><title>Node22</title>
<polygon fill="white" stroke="#bfbfbf" points="1778.82,-58.5 1778.82,-79.5 1809.82,-79.5 1809.82,-58.5 1778.82,-58.5"/>
<text text-anchor="middle" x="1794.32" y="-66.5" font-family="Helvetica,sans-Serif" font-size="10.00">set</text>
</g>
<!-- Node20&#45;&gt;Node22 -->
<g id="edge48" class="edge"><title>Node20&#45;&gt;Node22</title>
<path fill="none" stroke="midnightblue" d="M1225.66,-116.997C1228.58,-116.641 1231.48,-116.306 1234.32,-116 1468.46,-90.7762 1537.03,-137.396 1768.87,-79.6357"/>
<polygon fill="midnightblue" stroke="midnightblue" points="1769.77,-83.0185 1778.61,-77.1732 1768.06,-76.2322 1769.77,-83.0185"/>
</g>
<!-- Node23 -->
<g id="node48" class="node"><title>Node23</title>
<polygon fill="white" stroke="#bfbfbf" points="1397.82,-0.5 1397.82,-21.5 1426.82,-21.5 1426.82,-0.5 1397.82,-0.5"/>
<text text-anchor="middle" x="1412.32" y="-8.5" font-family="Helvetica,sans-Serif" font-size="10.00">list</text>
</g>
<!-- Node20&#45;&gt;Node23 -->
<g id="edge50" class="edge"><title>Node20&#45;&gt;Node23</title>
<path fill="none" stroke="midnightblue" d="M1219.71,-116.457C1252.65,-109.119 1293.63,-97.461 1327.32,-80 1353.28,-66.5475 1378.74,-44.3482 1394.92,-28.771"/>
<polygon fill="midnightblue" stroke="midnightblue" points="1397.41,-31.2325 1402.08,-21.7234 1392.5,-26.2436 1397.41,-31.2325"/>
</g>
<!-- Node24 -->
<g id="node50" class="node"><title>Node24</title>
<a xlink:href="LaunchPoint_8h.htm" target="_top" xlink:title="LaunchPoint.h">
<polygon fill="white" stroke="black" points="1138.82,-58.5 1138.82,-79.5 1221.82,-79.5 1221.82,-58.5 1138.82,-58.5"/>
<text text-anchor="middle" x="1180.32" y="-66.5" font-family="Helvetica,sans-Serif" font-size="10.00">LaunchPoint.h</text>
</a>
</g>
<!-- Node20&#45;&gt;Node24 -->
<g id="edge52" class="edge"><title>Node20&#45;&gt;Node24</title>
<path fill="none" stroke="midnightblue" d="M1163.99,-116.362C1166.61,-108.758 1170.22,-98.294 1173.38,-89.1349"/>
<polygon fill="midnightblue" stroke="midnightblue" points="1176.73,-90.1654 1176.68,-79.5707 1170.11,-87.8834 1176.73,-90.1654"/>
</g>
<!-- Node27 -->
<g id="node59" class="node"><title>Node27</title>
<polygon fill="white" stroke="#bfbfbf" points="1034.82,-58.5 1034.82,-79.5 1121.82,-79.5 1121.82,-58.5 1034.82,-58.5"/>
<text text-anchor="middle" x="1078.32" y="-66.5" font-family="Helvetica,sans-Serif" font-size="10.00">KeywordMap.h</text>
</g>
<!-- Node20&#45;&gt;Node27 -->
<g id="edge64" class="edge"><title>Node20&#45;&gt;Node27</title>
<path fill="none" stroke="midnightblue" d="M1145.28,-116.362C1133.03,-107.696 1115.52,-95.3126 1101.48,-85.3819"/>
<polygon fill="midnightblue" stroke="midnightblue" points="1103.45,-82.4879 1093.27,-79.5707 1099.41,-88.2028 1103.45,-82.4879"/>
</g>
<!-- Node24&#45;&gt;Node2 -->
<g id="edge54" class="edge"><title>Node24&#45;&gt;Node2</title>
<path fill="none" stroke="midnightblue" d="M1138.63,-59.5818C1135.82,-59.0237 1133.04,-58.4906 1130.32,-58 1028.37,-39.5522 907.622,-23.9201 844.229,-16.188"/>
<polygon fill="midnightblue" stroke="midnightblue" points="844.537,-12.6998 834.188,-14.971 843.694,-19.6489 844.537,-12.6998"/>
</g>
<!-- Node24&#45;&gt;Node12 -->
<g id="edge56" class="edge"><title>Node24&#45;&gt;Node12</title>
<path fill="none" stroke="midnightblue" d="M1212.74,-58.4966C1245.38,-47.9217 1295.39,-31.715 1327.73,-21.2362"/>
<polygon fill="midnightblue" stroke="midnightblue" points="1329.13,-24.4617 1337.57,-18.0497 1326.98,-17.8026 1329.13,-24.4617"/>
</g>
<!-- Node24&#45;&gt;Node23 -->
<g id="edge58" class="edge"><title>Node24&#45;&gt;Node23</title>
<path fill="none" stroke="midnightblue" d="M1222.11,-59.7265C1273.77,-48.2471 1357.88,-29.5015 1387.7,-21.5883"/>
<polygon fill="midnightblue" stroke="midnightblue" points="1388.83,-24.9026 1397.43,-18.7157 1386.85,-18.1887 1388.83,-24.9026"/>
</g>
<!-- Node25 -->
<g id="node55" class="node"><title>Node25</title>
<polygon fill="white" stroke="#bfbfbf" points="1443.82,-0.5 1443.82,-21.5 1502.82,-21.5 1502.82,-0.5 1443.82,-0.5"/>
<text text-anchor="middle" x="1473.32" y="-8.5" font-family="Helvetica,sans-Serif" font-size="10.00">QPixmap</text>
</g>
<!-- Node24&#45;&gt;Node25 -->
<g id="edge60" class="edge"><title>Node24&#45;&gt;Node25</title>
<path fill="none" stroke="midnightblue" d="M1222.04,-59.6833C1224.84,-59.1007 1227.62,-58.5344 1230.32,-58 1317.97,-40.6712 1343.48,-42.7219 1433.71,-22.2168"/>
<polygon fill="midnightblue" stroke="midnightblue" points="1434.57,-25.6085 1443.53,-19.9532 1433,-18.7871 1434.57,-25.6085"/>
</g>
<!-- Node26 -->
<g id="node57" class="node"><title>Node26</title>
<polygon fill="white" stroke="#bfbfbf" points="1135.82,-0.5 1135.82,-21.5 1176.82,-21.5 1176.82,-0.5 1135.82,-0.5"/>
<text text-anchor="middle" x="1156.32" y="-8.5" font-family="Helvetica,sans-Serif" font-size="10.00">glib.h</text>
</g>
<!-- Node24&#45;&gt;Node26 -->
<g id="edge62" class="edge"><title>Node24&#45;&gt;Node26</title>
<path fill="none" stroke="midnightblue" d="M1175.92,-58.3619C1172.74,-50.6766 1168.35,-40.0686 1164.53,-30.8399"/>
<polygon fill="midnightblue" stroke="midnightblue" points="1167.76,-29.4726 1160.7,-21.5707 1161.29,-32.1491 1167.76,-29.4726"/>
</g>
<!-- Node29&#45;&gt;Node2 -->
<g id="edge70" class="edge"><title>Node29&#45;&gt;Node2</title>
<path fill="none" stroke="midnightblue" d="M905.963,-58.4966C885.634,-49.3562 855.946,-36.0082 833.215,-25.7883"/>
<polygon fill="midnightblue" stroke="midnightblue" points="834.503,-22.5298 823.947,-21.6212 831.632,-28.9142 834.503,-22.5298"/>
</g>
<!-- Node29&#45;&gt;Node26 -->
<g id="edge72" class="edge"><title>Node29&#45;&gt;Node26</title>
<path fill="none" stroke="midnightblue" d="M971.846,-58.4429C1009.58,-49.031 1066.17,-34.803 1115.32,-22 1118.71,-21.1188 1122.24,-20.1864 1125.76,-19.2522"/>
<polygon fill="midnightblue" stroke="midnightblue" points="1126.72,-22.6179 1135.48,-16.6549 1124.92,-15.8552 1126.72,-22.6179"/>
</g>
<!-- Node30&#45;&gt;Node2 -->
<g id="edge76" class="edge"><title>Node30&#45;&gt;Node2</title>
<path fill="none" stroke="midnightblue" d="M711.063,-58.4966C727.934,-49.5194 752.433,-36.4835 771.498,-26.3387"/>
<polygon fill="midnightblue" stroke="midnightblue" points="773.18,-29.4086 780.364,-21.6212 769.891,-23.2289 773.18,-29.4086"/>
</g>
<!-- Node31&#45;&gt;Node2 -->
<g id="edge80" class="edge"><title>Node31&#45;&gt;Node2</title>
<path fill="none" stroke="midnightblue" d="M824.822,-58.3619C820.804,-50.5949 815.243,-39.8426 810.434,-30.5458"/>
<polygon fill="midnightblue" stroke="midnightblue" points="813.495,-28.8448 805.792,-21.5707 807.277,-32.0608 813.495,-28.8448"/>
</g>
<!-- Node31&#45;&gt;Node5 -->
<g id="edge88" class="edge"><title>Node31&#45;&gt;Node5</title>
<path fill="none" stroke="midnightblue" d="M799.324,-62.0038C757.433,-52.5499 682.007,-35.5276 629.882,-23.764"/>
<polygon fill="midnightblue" stroke="midnightblue" points="630.635,-20.3459 620.109,-21.5586 629.094,-27.1742 630.635,-20.3459"/>
</g>
<!-- Node31&#45;&gt;Node12 -->
<g id="edge84" class="edge"><title>Node31&#45;&gt;Node12</title>
<path fill="none" stroke="midnightblue" d="M861.649,-59.836C864.566,-59.1489 867.491,-58.5217 870.324,-58 958.862,-41.6973 1233.93,-20.3198 1327.66,-13.3245"/>
<polygon fill="midnightblue" stroke="midnightblue" points="1327.96,-16.8123 1337.67,-12.5809 1327.44,-9.83152 1327.96,-16.8123"/>
</g>
<!-- Node31&#45;&gt;Node21 -->
<g id="edge82" class="edge"><title>Node31&#45;&gt;Node21</title>
<path fill="none" stroke="midnightblue" d="M848.115,-58.3619C862.883,-49.532 884.102,-36.844 900.863,-26.8224"/>
<polygon fill="midnightblue" stroke="midnightblue" points="902.859,-29.7066 909.646,-21.5707 899.267,-23.6987 902.859,-29.7066"/>
</g>
<!-- Node31&#45;&gt;Node26 -->
<g id="edge86" class="edge"><title>Node31&#45;&gt;Node26</title>
<path fill="none" stroke="midnightblue" d="M861.678,-59.9871C864.59,-59.2683 867.505,-58.5925 870.324,-58 978.03,-35.3663 1007.55,-44.2972 1115.32,-22 1118.75,-21.2917 1122.31,-20.4682 1125.84,-19.5965"/>
<polygon fill="midnightblue" stroke="midnightblue" points="1126.78,-22.9695 1135.58,-17.0679 1125.02,-16.1943 1126.78,-22.9695"/>
</g>
<!-- Node32 -->
<g id="node77" class="node"><title>Node32</title>
<polygon fill="white" stroke="#bfbfbf" points="1061.82,-0.5 1061.82,-21.5 1106.82,-21.5 1106.82,-0.5 1061.82,-0.5"/>
<text text-anchor="middle" x="1084.32" y="-8.5" font-family="Helvetica,sans-Serif" font-size="10.00">QSize</text>
</g>
<!-- Node31&#45;&gt;Node32 -->
<g id="edge90" class="edge"><title>Node31&#45;&gt;Node32</title>
<path fill="none" stroke="midnightblue" d="M861.726,-60.1979C864.628,-59.4349 867.527,-58.6912 870.324,-58 934.324,-42.1835 1009.75,-26.241 1051.8,-17.5923"/>
<polygon fill="midnightblue" stroke="midnightblue" points="1052.65,-20.991 1061.74,-15.5552 1051.24,-14.1334 1052.65,-20.991"/>
</g>
<!-- Node34&#45;&gt;Node5 -->
<g id="edge100" class="edge"><title>Node34&#45;&gt;Node5</title>
<path fill="none" stroke="midnightblue" d="M592.386,-116.295C588.917,-97.1314 581.589,-56.654 577.098,-31.8434"/>
<polygon fill="midnightblue" stroke="midnightblue" points="580.483,-30.8957 575.257,-21.6792 573.595,-32.1428 580.483,-30.8957"/>
</g>
<!-- Node34&#45;&gt;Node7 -->
<g id="edge98" class="edge"><title>Node34&#45;&gt;Node7</title>
<path fill="none" stroke="midnightblue" d="M558.678,-119.536C506.789,-108.671 410.774,-88.5672 356.805,-77.2667"/>
<polygon fill="midnightblue" stroke="midnightblue" points="357.422,-73.8201 346.917,-75.1963 355.987,-80.6715 357.422,-73.8201"/>
</g>
<!-- Node34&#45;&gt;Node30 -->
<g id="edge102" class="edge"><title>Node34&#45;&gt;Node30</title>
<path fill="none" stroke="midnightblue" d="M612.115,-116.362C626.883,-107.532 648.102,-94.844 664.863,-84.8224"/>
<polygon fill="midnightblue" stroke="midnightblue" points="666.859,-87.7066 673.646,-79.5707 663.267,-81.6987 666.859,-87.7066"/>
</g>
<!-- Node34&#45;&gt;Node31 -->
<g id="edge96" class="edge"><title>Node34&#45;&gt;Node31</title>
<path fill="none" stroke="midnightblue" d="M629.911,-118.254C672.649,-107.751 744.194,-90.1675 789.24,-79.0969"/>
<polygon fill="midnightblue" stroke="midnightblue" points="790.106,-82.4883 798.982,-76.7028 788.435,-75.6906 790.106,-82.4883"/>
</g>
<!-- Node34&#45;&gt;Node33 -->
<g id="edge104" class="edge"><title>Node34&#45;&gt;Node33</title>
<path fill="none" stroke="midnightblue" d="M576.9,-116.362C562.437,-107.532 541.655,-94.844 525.24,-84.8224"/>
<polygon fill="midnightblue" stroke="midnightblue" points="526.997,-81.7943 516.638,-79.5707 523.349,-87.7688 526.997,-81.7943"/>
</g>
<!-- Node35&#45;&gt;Node16 -->
<g id="edge108" class="edge"><title>Node35&#45;&gt;Node16</title>
<path fill="none" stroke="midnightblue" d="M1431.74,-116.497C1395.47,-106.083 1340.18,-90.2074 1303.66,-79.7189"/>
<polygon fill="midnightblue" stroke="midnightblue" points="1304.46,-76.3083 1293.88,-76.9125 1302.53,-83.0364 1304.46,-76.3083"/>
</g>
<!-- Node35&#45;&gt;Node25 -->
<g id="edge110" class="edge"><title>Node35&#45;&gt;Node25</title>
<path fill="none" stroke="midnightblue" d="M1468.79,-116.295C1469.61,-97.1314 1471.36,-56.654 1472.43,-31.8434"/>
<polygon fill="midnightblue" stroke="midnightblue" points="1475.93,-31.8207 1472.86,-21.6792 1468.94,-31.5192 1475.93,-31.8207"/>
</g>
<!-- Node35&#45;&gt;Node32 -->
<g id="edge114" class="edge"><title>Node35&#45;&gt;Node32</title>
<path fill="none" stroke="midnightblue" d="M1446.8,-116.486C1415.6,-101.615 1355.72,-74.4246 1302.32,-58 1226.43,-34.6545 1204.7,-39.8448 1127.32,-22 1123.92,-21.2143 1120.37,-20.3615 1116.83,-19.4901"/>
<polygon fill="midnightblue" stroke="midnightblue" points="1117.59,-16.0717 1107.04,-17.0254 1115.88,-22.8601 1117.59,-16.0717"/>
</g>
<!-- Node36 -->
<g id="node92" class="node"><title>Node36</title>
<polygon fill="white" stroke="#bfbfbf" points="1501.32,-58.5 1501.32,-79.5 1547.32,-79.5 1547.32,-58.5 1501.32,-58.5"/>
<text text-anchor="middle" x="1524.32" y="-66.5" font-family="Helvetica,sans-Serif" font-size="10.00">QUuid</text>
</g>
<!-- Node35&#45;&gt;Node36 -->
<g id="edge112" class="edge"><title>Node35&#45;&gt;Node36</title>
<path fill="none" stroke="midnightblue" d="M1478.6,-116.362C1486.57,-108.104 1497.8,-96.4725 1507.14,-86.8029"/>
<polygon fill="midnightblue" stroke="midnightblue" points="1509.69,-89.1958 1514.12,-79.5707 1504.65,-84.3336 1509.69,-89.1958"/>
</g>
<!-- Node37&#45;&gt;Node36 -->
<g id="edge128" class="edge"><title>Node37&#45;&gt;Node36</title>
<path fill="none" stroke="midnightblue" d="M1690.91,-116.479C1656.84,-108.009 1608.03,-95.4128 1556.9,-80.0361"/>
<polygon fill="midnightblue" stroke="midnightblue" points="1557.92,-76.6866 1547.33,-77.1329 1555.88,-83.3851 1557.92,-76.6866"/>
</g>
<!-- Node38 -->
<g id="node97" class="node"><title>Node38</title>
<polygon fill="white" stroke="#bfbfbf" points="1992.82,-58.5 1992.82,-79.5 2051.82,-79.5 2051.82,-58.5 1992.82,-58.5"/>
<text text-anchor="middle" x="2022.32" y="-66.5" font-family="Helvetica,sans-Serif" font-size="10.00">qglobal.h</text>
</g>
<!-- Node37&#45;&gt;Node38 -->
<g id="edge118" class="edge"><title>Node37&#45;&gt;Node38</title>
<path fill="none" stroke="midnightblue" d="M1787.8,-118.476C1836.44,-110.376 1910.4,-97.2053 1982.79,-80.2285"/>
<polygon fill="midnightblue" stroke="midnightblue" points="1983.6,-83.6321 1992.53,-77.9189 1981.99,-76.8211 1983.6,-83.6321"/>
</g>
<!-- Node39 -->
<g id="node99" class="node"><title>Node39</title>
<polygon fill="white" stroke="#bfbfbf" points="1565.32,-58.5 1565.32,-79.5 1619.32,-79.5 1619.32,-58.5 1565.32,-58.5"/>
<text text-anchor="middle" x="1592.32" y="-66.5" font-family="Helvetica,sans-Serif" font-size="10.00">qmath.h</text>
</g>
<!-- Node37&#45;&gt;Node39 -->
<g id="edge120" class="edge"><title>Node37&#45;&gt;Node39</title>
<path fill="none" stroke="midnightblue" d="M1708.61,-116.497C1686.03,-107.275 1652.97,-93.7695 1627.86,-83.5153"/>
<polygon fill="midnightblue" stroke="midnightblue" points="1628.91,-80.1624 1618.33,-79.6212 1626.26,-86.6427 1628.91,-80.1624"/>
</g>
<!-- Node40 -->
<g id="node101" class="node"><title>Node40</title>
<polygon fill="white" stroke="#bfbfbf" points="1636.82,-58.5 1636.82,-79.5 1689.82,-79.5 1689.82,-58.5 1636.82,-58.5"/>
<text text-anchor="middle" x="1663.32" y="-66.5" font-family="Helvetica,sans-Serif" font-size="10.00">QRectF</text>
</g>
<!-- Node37&#45;&gt;Node40 -->
<g id="edge122" class="edge"><title>Node37&#45;&gt;Node40</title>
<path fill="none" stroke="midnightblue" d="M1721.3,-116.362C1710.89,-107.859 1696.1,-95.7785 1684.07,-85.9466"/>
<polygon fill="midnightblue" stroke="midnightblue" points="1686.22,-83.1866 1676.26,-79.5707 1681.79,-88.6077 1686.22,-83.1866"/>
</g>
<!-- Node41 -->
<g id="node103" class="node"><title>Node41</title>
<polygon fill="white" stroke="#bfbfbf" points="2068.82,-58.5 2068.82,-79.5 2117.82,-79.5 2117.82,-58.5 2068.82,-58.5"/>
<text text-anchor="middle" x="2093.32" y="-66.5" font-family="Helvetica,sans-Serif" font-size="10.00">QPoint</text>
</g>
<!-- Node37&#45;&gt;Node41 -->
<g id="edge124" class="edge"><title>Node37&#45;&gt;Node41</title>
<path fill="none" stroke="midnightblue" d="M1787.38,-122.29C1850.25,-116.059 1958.21,-103.317 2058.59,-80.1222"/>
<polygon fill="midnightblue" stroke="midnightblue" points="2059.66,-83.4666 2068.59,-77.7702 2058.06,-76.6525 2059.66,-83.4666"/>
</g>
<!-- Node42 -->
<g id="node105" class="node"><title>Node42</title>
<polygon fill="white" stroke="#bfbfbf" points="1706.82,-58.5 1706.82,-79.5 1761.82,-79.5 1761.82,-58.5 1706.82,-58.5"/>
<text text-anchor="middle" x="1734.32" y="-66.5" font-family="Helvetica,sans-Serif" font-size="10.00">QPointF</text>
</g>
<!-- Node37&#45;&gt;Node42 -->
<g id="edge126" class="edge"><title>Node37&#45;&gt;Node42</title>
<path fill="none" stroke="midnightblue" d="M1734.32,-116.362C1734.32,-108.922 1734.32,-98.7427 1734.32,-89.7276"/>
<polygon fill="midnightblue" stroke="midnightblue" points="1737.82,-89.5706 1734.32,-79.5707 1730.82,-89.5707 1737.82,-89.5706"/>
</g>
<!-- Node43 -->
<g id="node108" class="node"><title>Node43</title>
<polygon fill="white" stroke="#bfbfbf" points="1827.32,-58.5 1827.32,-79.5 1877.32,-79.5 1877.32,-58.5 1827.32,-58.5"/>
<text text-anchor="middle" x="1852.32" y="-66.5" font-family="Helvetica,sans-Serif" font-size="10.00">QHash</text>
</g>
<!-- Node37&#45;&gt;Node43 -->
<g id="edge130" class="edge"><title>Node37&#45;&gt;Node43</title>
<path fill="none" stroke="midnightblue" d="M1755.69,-116.497C1774.12,-107.438 1800.96,-94.2462 1821.68,-84.0628"/>
<polygon fill="midnightblue" stroke="midnightblue" points="1823.28,-87.1735 1830.72,-79.6212 1820.2,-80.8914 1823.28,-87.1735"/>
</g>
<!-- Node44 -->
<g id="node110" class="node"><title>Node44</title>
<polygon fill="white" stroke="#bfbfbf" points="1895.32,-58.5 1895.32,-79.5 1975.32,-79.5 1975.32,-58.5 1895.32,-58.5"/>
<text text-anchor="middle" x="1935.32" y="-66.5" font-family="Helvetica,sans-Serif" font-size="10.00">QVariantMap</text>
</g>
<!-- Node37&#45;&gt;Node44 -->
<g id="edge132" class="edge"><title>Node37&#45;&gt;Node44</title>
<path fill="none" stroke="midnightblue" d="M1770.72,-116.497C1803.92,-106.918 1853.12,-92.7196 1889.09,-82.3418"/>
<polygon fill="midnightblue" stroke="midnightblue" points="1890.22,-85.6584 1898.86,-79.5231 1888.28,-78.9328 1890.22,-85.6584"/>
</g>
<!-- Node45&#45;&gt;Node2 -->
<g id="edge136" class="edge"><title>Node45&#45;&gt;Node2</title>
<path fill="none" stroke="midnightblue" d="M2218.46,-116.373C2202.77,-106.975 2179.39,-92.8064 2159.32,-80 2144.46,-70.5173 2143.12,-63.3537 2126.32,-58 1995.74,-16.3725 1030.01,-32.0593 893.324,-22 877.252,-20.8172 859.682,-18.9011 844.185,-16.997"/>
<polygon fill="midnightblue" stroke="midnightblue" points="844.191,-13.47 833.832,-15.6898 843.314,-20.4149 844.191,-13.47"/>
</g>
<!-- Node45&#45;&gt;Node12 -->
<g id="edge138" class="edge"><title>Node45&#45;&gt;Node12</title>
<path fill="none" stroke="midnightblue" d="M2228.53,-116.405C2216.01,-100.359 2189.72,-70.4488 2159.32,-58 2003.75,5.7132 1573.6,-53.5912 1391.14,-21.7449"/>
<polygon fill="midnightblue" stroke="midnightblue" points="1391.53,-18.2579 1381.06,-19.8395 1390.23,-25.1361 1391.53,-18.2579"/>
</g>
<!-- Node45&#45;&gt;Node22 -->
<g id="edge142" class="edge"><title>Node45&#45;&gt;Node22</title>
<path fill="none" stroke="midnightblue" d="M2191.7,-123.782C2102.5,-117.065 1904.12,-100.646 1819.77,-79.6498"/>
<polygon fill="midnightblue" stroke="midnightblue" points="1820.63,-76.2564 1810.07,-77.0669 1818.83,-83.021 1820.63,-76.2564"/>
</g>
<!-- Node45&#45;&gt;Node26 -->
<g id="edge144" class="edge"><title>Node45&#45;&gt;Node26</title>
<path fill="none" stroke="midnightblue" d="M2280.91,-124.907C2343.83,-120.913 2453.79,-109.762 2478.32,-80 2484.54,-72.4557 2485.13,-65.0214 2478.32,-58 2433.88,-12.1392 1393.12,-25.0267 1329.32,-22 1279.68,-19.6448 1222.1,-15.7512 1187.48,-13.2838"/>
<polygon fill="midnightblue" stroke="midnightblue" points="1187.31,-9.76258 1177.08,-12.5365 1186.81,-16.7446 1187.31,-9.76258"/>
</g>
<!-- Node45&#45;&gt;Node41 -->
<g id="edge152" class="edge"><title>Node45&#45;&gt;Node41</title>
<path fill="none" stroke="midnightblue" d="M2210.43,-116.497C2187.16,-107.06 2152.84,-93.139 2127.36,-82.8052"/>
<polygon fill="midnightblue" stroke="midnightblue" points="2128.65,-79.5524 2118.07,-79.0371 2126.02,-86.0391 2128.65,-79.5524"/>
</g>
<!-- Node46 -->
<g id="node116" class="node"><title>Node46</title>
<polygon fill="white" stroke="#bfbfbf" points="2279.32,-58.5 2279.32,-79.5 2325.32,-79.5 2325.32,-58.5 2279.32,-58.5"/>
<text text-anchor="middle" x="2302.32" y="-66.5" font-family="Helvetica,sans-Serif" font-size="10.00">vector</text>
</g>
<!-- Node45&#45;&gt;Node46 -->
<g id="edge140" class="edge"><title>Node45&#45;&gt;Node46</title>
<path fill="none" stroke="midnightblue" d="M2248.43,-116.362C2258.01,-107.941 2271.59,-96.0105 2282.72,-86.2308"/>
<polygon fill="midnightblue" stroke="midnightblue" points="2285.09,-88.8009 2290.3,-79.5707 2280.47,-83.5427 2285.09,-88.8009"/>
</g>
<!-- Node47 -->
<g id="node120" class="node"><title>Node47</title>
<polygon fill="white" stroke="#bfbfbf" points="2343.32,-58.5 2343.32,-79.5 2401.32,-79.5 2401.32,-58.5 2343.32,-58.5"/>
<text text-anchor="middle" x="2372.32" y="-66.5" font-family="Helvetica,sans-Serif" font-size="10.00">QtGlobal</text>
</g>
<!-- Node45&#45;&gt;Node47 -->
<g id="edge146" class="edge"><title>Node45&#45;&gt;Node47</title>
<path fill="none" stroke="midnightblue" d="M2260.95,-116.497C2282.48,-107.315 2313.96,-93.8889 2337.97,-83.6516"/>
<polygon fill="midnightblue" stroke="midnightblue" points="2339.59,-86.7636 2347.42,-79.6212 2336.85,-80.3247 2339.59,-86.7636"/>
</g>
<!-- Node48 -->
<g id="node122" class="node"><title>Node48</title>
<polygon fill="white" stroke="#bfbfbf" points="2418.82,-58.5 2418.82,-79.5 2469.82,-79.5 2469.82,-58.5 2418.82,-58.5"/>
<text text-anchor="middle" x="2444.32" y="-66.5" font-family="Helvetica,sans-Serif" font-size="10.00">QSizeF</text>
</g>
<!-- Node45&#45;&gt;Node48 -->
<g id="edge148" class="edge"><title>Node45&#45;&gt;Node48</title>
<path fill="none" stroke="midnightblue" d="M2277.62,-116.456C2310.83,-107.838 2358.92,-95.057 2409.03,-80.3009"/>
<polygon fill="midnightblue" stroke="midnightblue" points="2410.15,-83.6201 2418.75,-77.4238 2408.16,-76.9084 2410.15,-83.6201"/>
</g>
<!-- Node49 -->
<g id="node124" class="node"><title>Node49</title>
<polygon fill="white" stroke="#bfbfbf" points="2524.82,-58.5 2524.82,-79.5 2577.82,-79.5 2577.82,-58.5 2524.82,-58.5"/>
<text text-anchor="middle" x="2551.32" y="-66.5" font-family="Helvetica,sans-Serif" font-size="10.00">QString</text>
</g>
<!-- Node45&#45;&gt;Node49 -->
<g id="edge150" class="edge"><title>Node45&#45;&gt;Node49</title>
<path fill="none" stroke="midnightblue" d="M2280.88,-120.773C2335.49,-112.823 2430.71,-97.9268 2511.32,-80 2512.41,-79.7577 2513.52,-79.5044 2514.63,-79.2423"/>
<polygon fill="midnightblue" stroke="midnightblue" points="2515.89,-82.5355 2524.74,-76.7069 2514.18,-75.7459 2515.89,-82.5355"/>
</g>
<!-- Node50 -->
<g id="node127" class="node"><title>Node50</title>
<polygon fill="white" stroke="#bfbfbf" points="2211.32,-58.5 2211.32,-79.5 2261.32,-79.5 2261.32,-58.5 2211.32,-58.5"/>
<text text-anchor="middle" x="2236.32" y="-66.5" font-family="Helvetica,sans-Serif" font-size="10.00">QColor</text>
</g>
<!-- Node45&#45;&gt;Node50 -->
<g id="edge154" class="edge"><title>Node45&#45;&gt;Node50</title>
<path fill="none" stroke="midnightblue" d="M2236.32,-116.362C2236.32,-108.922 2236.32,-98.7427 2236.32,-89.7276"/>
<polygon fill="midnightblue" stroke="midnightblue" points="2239.82,-89.5706 2236.32,-79.5707 2232.82,-89.5707 2239.82,-89.5706"/>
</g>
</g>
</svg>
