<?xml version="1.0" encoding="UTF-8" standalone="no"?>
<!DOCTYPE svg PUBLIC "-//W3C//DTD SVG 1.1//EN"
 "http://www.w3.org/Graphics/SVG/1.1/DTD/svg11.dtd">
<!-- Generated by graphviz version 2.26.3 (20100126.1600)
 -->
<!-- Title: overlaylayer.h Pages: 1 -->
<svg width="250pt" height="88pt"
 viewBox="0.00 0.00 250.00 88.00" xmlns="http://www.w3.org/2000/svg" xmlns:xlink="http://www.w3.org/1999/xlink">
<g id="graph1" class="graph" transform="scale(1 1) rotate(0) translate(4 84)">
<title>overlaylayer.h</title>
<polygon fill="white" stroke="white" points="-4,5 -4,-84 247,-84 247,5 -4,5"/>
<!-- Node1 -->
<g id="node1" class="node"><title>Node1</title>
<polygon fill="#bfbfbf" stroke="black" points="88.5,-58.5 88.5,-79.5 171.5,-79.5 171.5,-58.5 88.5,-58.5"/>
<text text-anchor="middle" x="130" y="-66.5" font-family="Helvetica,sans-Serif" font-size="10.00">overlaylayer.h</text>
</g>
<!-- Node2 -->
<g id="node3" class="node"><title>Node2</title>
<a xlink:href="dimensionslauncher_8cpp.htm" target="_top" xlink:title="dimensionslauncher.cpp">
<polygon fill="white" stroke="black" points="0,-0.5 0,-21.5 130,-21.5 130,-0.5 0,-0.5"/>
<text text-anchor="middle" x="65" y="-8.5" font-family="Helvetica,sans-Serif" font-size="10.00">dimensionslauncher.cpp</text>
</a>
</g>
<!-- Node1&#45;&gt;Node2 -->
<g id="edge2" class="edge"><title>Node1&#45;&gt;Node2</title>
<path fill="none" stroke="midnightblue" d="M110.602,-51.6908C99.6289,-41.8996 86.2628,-29.973 76.8464,-21.5707"/>
<polygon fill="midnightblue" stroke="midnightblue" points="108.286,-54.3155 118.078,-58.3619 112.947,-49.0925 108.286,-54.3155"/>
</g>
<!-- Node3 -->
<g id="node5" class="node"><title>Node3</title>
<a xlink:href="overlaylayer_8cpp.htm" target="_top" xlink:title="overlaylayer.cpp">
<polygon fill="white" stroke="black" points="148,-0.5 148,-21.5 242,-21.5 242,-0.5 148,-0.5"/>
<text text-anchor="middle" x="195" y="-8.5" font-family="Helvetica,sans-Serif" font-size="10.00">overlaylayer.cpp</text>
</a>
</g>
<!-- Node1&#45;&gt;Node3 -->
<g id="edge4" class="edge"><title>Node1&#45;&gt;Node3</title>
<path fill="none" stroke="midnightblue" d="M149.398,-51.6908C160.371,-41.8996 173.737,-29.973 183.154,-21.5707"/>
<polygon fill="midnightblue" stroke="midnightblue" points="147.053,-49.0925 141.922,-58.3619 151.714,-54.3155 147.053,-49.0925"/>
</g>
</g>
</svg>
