<?xml version="1.0" encoding="UTF-8" standalone="no"?>
<!DOCTYPE svg PUBLIC "-//W3C//DTD SVG 1.1//EN"
 "http://www.w3.org/Graphics/SVG/1.1/DTD/svg11.dtd">
<!-- Generated by graphviz version 2.26.3 (20100126.1600)
 -->
<!-- Title: PackageDescription.h Pages: 1 -->
<svg width="724pt" height="88pt"
 viewBox="0.00 0.00 724.00 88.00" xmlns="http://www.w3.org/2000/svg" xmlns:xlink="http://www.w3.org/1999/xlink">
<g id="graph1" class="graph" transform="scale(1 1) rotate(0) translate(4 84)">
<title>PackageDescription.h</title>
<polygon fill="white" stroke="white" points="-4,5 -4,-84 721,-84 721,5 -4,5"/>
<!-- Node1 -->
<g id="node1" class="node"><title>Node1</title>
<polygon fill="#bfbfbf" stroke="black" points="313.5,-58.5 313.5,-79.5 432.5,-79.5 432.5,-58.5 313.5,-58.5"/>
<text text-anchor="middle" x="373" y="-66.5" font-family="Helvetica,sans-Serif" font-size="10.00">PackageDescription.h</text>
</g>
<!-- Node2 -->
<g id="node3" class="node"><title>Node2</title>
<a xlink:href="ApplicationInstaller_8cpp.htm" target="_top" xlink:title="ApplicationInstaller.cpp">
<polygon fill="white" stroke="black" points="-0.5,-0.5 -0.5,-21.5 124.5,-21.5 124.5,-0.5 -0.5,-0.5"/>
<text text-anchor="middle" x="62" y="-8.5" font-family="Helvetica,sans-Serif" font-size="10.00">ApplicationInstaller.cpp</text>
</a>
</g>
<!-- Node1&#45;&gt;Node2 -->
<g id="edge2" class="edge"><title>Node1&#45;&gt;Node2</title>
<path fill="none" stroke="midnightblue" d="M306.51,-56.5999C250.534,-46.1607 171.357,-31.3945 118.425,-21.5231"/>
<polygon fill="midnightblue" stroke="midnightblue" points="306.208,-60.1039 316.68,-58.4966 307.491,-53.2225 306.208,-60.1039"/>
</g>
<!-- Node3 -->
<g id="node5" class="node"><title>Node3</title>
<a xlink:href="ApplicationManager_8cpp.htm" target="_top" xlink:title="ApplicationManager.cpp">
<polygon fill="white" stroke="black" points="141.5,-0.5 141.5,-21.5 272.5,-21.5 272.5,-0.5 141.5,-0.5"/>
<text text-anchor="middle" x="207" y="-8.5" font-family="Helvetica,sans-Serif" font-size="10.00">ApplicationManager.cpp</text>
</a>
</g>
<!-- Node1&#45;&gt;Node3 -->
<g id="edge4" class="edge"><title>Node1&#45;&gt;Node3</title>
<path fill="none" stroke="midnightblue" d="M333.344,-55.1443C303.804,-44.8229 264.081,-30.9439 237.118,-21.5231"/>
<polygon fill="midnightblue" stroke="midnightblue" points="332.344,-58.5023 342.939,-58.4966 334.653,-51.894 332.344,-58.5023"/>
</g>
<!-- Node4 -->
<g id="node7" class="node"><title>Node4</title>
<a xlink:href="ApplicationManagerService_8cpp.htm" target="_top" xlink:title="ApplicationManagerService.cpp">
<polygon fill="white" stroke="black" points="290,-0.5 290,-21.5 456,-21.5 456,-0.5 290,-0.5"/>
<text text-anchor="middle" x="373" y="-8.5" font-family="Helvetica,sans-Serif" font-size="10.00">ApplicationManagerService.cpp</text>
</a>
</g>
<!-- Node1&#45;&gt;Node4 -->
<g id="edge6" class="edge"><title>Node1&#45;&gt;Node4</title>
<path fill="none" stroke="midnightblue" d="M373,-48.1906C373,-39.1684 373,-28.9941 373,-21.5707"/>
<polygon fill="midnightblue" stroke="midnightblue" points="369.5,-48.3619 373,-58.3619 376.5,-48.3619 369.5,-48.3619"/>
</g>
<!-- Node5 -->
<g id="node9" class="node"><title>Node5</title>
<a xlink:href="LaunchPoint_8cpp.htm" target="_top" xlink:title="LaunchPoint.cpp">
<polygon fill="white" stroke="black" points="473.5,-0.5 473.5,-21.5 568.5,-21.5 568.5,-0.5 473.5,-0.5"/>
<text text-anchor="middle" x="521" y="-8.5" font-family="Helvetica,sans-Serif" font-size="10.00">LaunchPoint.cpp</text>
</a>
</g>
<!-- Node1&#45;&gt;Node5 -->
<g id="edge8" class="edge"><title>Node1&#45;&gt;Node5</title>
<path fill="none" stroke="midnightblue" d="M409.36,-54.7509C435.495,-44.5086 470.168,-30.9206 493.898,-21.6212"/>
<polygon fill="midnightblue" stroke="midnightblue" points="407.835,-51.5891 399.802,-58.4966 410.389,-58.1065 407.835,-51.5891"/>
</g>
<!-- Node6 -->
<g id="node11" class="node"><title>Node6</title>
<a xlink:href="PackageDescription_8cpp.htm" target="_top" xlink:title="PackageDescription.cpp">
<polygon fill="white" stroke="black" points="585.5,-0.5 585.5,-21.5 716.5,-21.5 716.5,-0.5 585.5,-0.5"/>
<text text-anchor="middle" x="651" y="-8.5" font-family="Helvetica,sans-Serif" font-size="10.00">PackageDescription.cpp</text>
</a>
</g>
<!-- Node1&#45;&gt;Node6 -->
<g id="edge10" class="edge"><title>Node1&#45;&gt;Node6</title>
<path fill="none" stroke="midnightblue" d="M433.372,-56.4045C483.351,-45.977 553.542,-31.333 600.562,-21.5231"/>
<polygon fill="midnightblue" stroke="midnightblue" points="432.418,-53.028 423.344,-58.4966 433.848,-59.8804 432.418,-53.028"/>
</g>
</g>
</svg>
