<?xml version="1.0" encoding="UTF-8" standalone="no"?>
<!DOCTYPE svg PUBLIC "-//W3C//DTD SVG 1.1//EN"
 "http://www.w3.org/Graphics/SVG/1.1/DTD/svg11.dtd">
<!-- Generated by graphviz version 2.26.3 (20100126.1600)
 -->
<!-- Title: PackageDescription.cpp Pages: 1 -->
<svg width="1034pt" height="204pt"
 viewBox="0.00 0.00 1034.00 204.00" xmlns="http://www.w3.org/2000/svg" xmlns:xlink="http://www.w3.org/1999/xlink">
<g id="graph1" class="graph" transform="scale(1 1) rotate(0) translate(4 200)">
<title>PackageDescription.cpp</title>
<polygon fill="white" stroke="white" points="-4,5 -4,-200 1031,-200 1031,5 -4,5"/>
<!-- Node1 -->
<g id="node1" class="node"><title>Node1</title>
<polygon fill="#bfbfbf" stroke="black" points="701.5,-174.5 701.5,-195.5 832.5,-195.5 832.5,-174.5 701.5,-174.5"/>
<text text-anchor="middle" x="767" y="-182.5" font-family="Helvetica,sans-Serif" font-size="10.00">PackageDescription.cpp</text>
</g>
<!-- Node2 -->
<g id="node3" class="node"><title>Node2</title>
<polygon fill="white" stroke="#bfbfbf" points="492.5,-116.5 492.5,-137.5 539.5,-137.5 539.5,-116.5 492.5,-116.5"/>
<text text-anchor="middle" x="516" y="-124.5" font-family="Helvetica,sans-Serif" font-size="10.00">stdio.h</text>
</g>
<!-- Node1&#45;&gt;Node2 -->
<g id="edge2" class="edge"><title>Node1&#45;&gt;Node2</title>
<path fill="none" stroke="midnightblue" d="M713.979,-174.475C670.518,-165.579 607.51,-152.069 553,-138 551.929,-137.724 550.843,-137.437 549.747,-137.143"/>
<polygon fill="midnightblue" stroke="midnightblue" points="550.387,-133.688 539.813,-134.357 548.496,-140.427 550.387,-133.688"/>
</g>
<!-- Node3 -->
<g id="node5" class="node"><title>Node3</title>
<polygon fill="white" stroke="#bfbfbf" points="866.5,-0.5 866.5,-21.5 907.5,-21.5 907.5,-0.5 866.5,-0.5"/>
<text text-anchor="middle" x="887" y="-8.5" font-family="Helvetica,sans-Serif" font-size="10.00">glib.h</text>
</g>
<!-- Node1&#45;&gt;Node3 -->
<g id="edge4" class="edge"><title>Node1&#45;&gt;Node3</title>
<path fill="none" stroke="midnightblue" d="M774.326,-174.377C794.028,-145.809 848.368,-67.017 873.69,-30.2999"/>
<polygon fill="midnightblue" stroke="midnightblue" points="876.668,-32.1469 879.464,-21.9277 870.905,-28.1728 876.668,-32.1469"/>
</g>
<!-- Node4 -->
<g id="node7" class="node"><title>Node4</title>
<a xlink:href="PackageDescription_8h.htm" target="_top" xlink:title="PackageDescription.h">
<polygon fill="white" stroke="black" points="-0.5,-58.5 -0.5,-79.5 118.5,-79.5 118.5,-58.5 -0.5,-58.5"/>
<text text-anchor="middle" x="59" y="-66.5" font-family="Helvetica,sans-Serif" font-size="10.00">PackageDescription.h</text>
</a>
</g>
<!-- Node1&#45;&gt;Node4 -->
<g id="edge6" class="edge"><title>Node1&#45;&gt;Node4</title>
<path fill="none" stroke="midnightblue" d="M710.686,-174.491C674.308,-166.71 626.397,-154.578 586,-138 567.946,-130.591 566.614,-121.861 548,-116 372.025,-60.5893 315.368,-101.515 128.808,-80.1212"/>
<polygon fill="midnightblue" stroke="midnightblue" points="129.012,-76.6207 118.668,-78.912 128.183,-83.5715 129.012,-76.6207"/>
</g>
<!-- Node9 -->
<g id="node17" class="node"><title>Node9</title>
<a xlink:href="ApplicationDescription_8h.htm" target="_top" xlink:title="ApplicationDescription.h">
<polygon fill="white" stroke="black" points="595,-116.5 595,-137.5 725,-137.5 725,-116.5 595,-116.5"/>
<text text-anchor="middle" x="660" y="-124.5" font-family="Helvetica,sans-Serif" font-size="10.00">ApplicationDescription.h</text>
</a>
</g>
<!-- Node1&#45;&gt;Node9 -->
<g id="edge16" class="edge"><title>Node1&#45;&gt;Node9</title>
<path fill="none" stroke="midnightblue" d="M747.375,-174.362C730.859,-165.409 707.026,-152.491 688.422,-142.406"/>
<polygon fill="midnightblue" stroke="midnightblue" points="689.96,-139.259 679.501,-137.571 686.625,-145.413 689.96,-139.259"/>
</g>
<!-- Node20 -->
<g id="node49" class="node"><title>Node20</title>
<polygon fill="white" stroke="#bfbfbf" points="901.5,-116.5 901.5,-137.5 946.5,-137.5 946.5,-116.5 901.5,-116.5"/>
<text text-anchor="middle" x="924" y="-124.5" font-family="Helvetica,sans-Serif" font-size="10.00">Utils.h</text>
</g>
<!-- Node1&#45;&gt;Node20 -->
<g id="edge58" class="edge"><title>Node1&#45;&gt;Node20</title>
<path fill="none" stroke="midnightblue" d="M795.432,-174.497C822.623,-164.451 863.571,-149.324 891.917,-138.852"/>
<polygon fill="midnightblue" stroke="midnightblue" points="893.208,-142.107 901.375,-135.358 890.782,-135.541 893.208,-142.107"/>
</g>
<!-- Node21 -->
<g id="node51" class="node"><title>Node21</title>
<polygon fill="white" stroke="#bfbfbf" points="963.5,-116.5 963.5,-137.5 1026.5,-137.5 1026.5,-116.5 963.5,-116.5"/>
<text text-anchor="middle" x="995" y="-124.5" font-family="Helvetica,sans-Serif" font-size="10.00">Settings.h</text>
</g>
<!-- Node1&#45;&gt;Node21 -->
<g id="edge60" class="edge"><title>Node1&#45;&gt;Node21</title>
<path fill="none" stroke="midnightblue" d="M810.382,-174.46C846.373,-165.646 899.14,-152.568 953.362,-138.397"/>
<polygon fill="midnightblue" stroke="midnightblue" points="954.356,-141.755 963.141,-135.833 952.581,-134.984 954.356,-141.755"/>
</g>
<!-- Node5 -->
<g id="node9" class="node"><title>Node5</title>
<polygon fill="white" stroke="#bfbfbf" points="600.5,-0.5 600.5,-21.5 643.5,-21.5 643.5,-0.5 600.5,-0.5"/>
<text text-anchor="middle" x="622" y="-8.5" font-family="Helvetica,sans-Serif" font-size="10.00">string</text>
</g>
<!-- Node4&#45;&gt;Node5 -->
<g id="edge8" class="edge"><title>Node4&#45;&gt;Node5</title>
<path fill="none" stroke="midnightblue" d="M118.665,-59.0607C121.48,-58.6823 124.269,-58.3261 127,-58 329.507,-33.8242 387.595,-65.0553 590.18,-21.9377"/>
<polygon fill="midnightblue" stroke="midnightblue" points="591.217,-25.2944 600.251,-19.7589 589.737,-18.4527 591.217,-25.2944"/>
</g>
<!-- Node6 -->
<g id="node11" class="node"><title>Node6</title>
<polygon fill="white" stroke="#bfbfbf" points="345,-0.5 345,-21.5 395,-21.5 395,-0.5 345,-0.5"/>
<text text-anchor="middle" x="370" y="-8.5" font-family="Helvetica,sans-Serif" font-size="10.00">stdint.h</text>
</g>
<!-- Node4&#45;&gt;Node6 -->
<g id="edge10" class="edge"><title>Node4&#45;&gt;Node6</title>
<path fill="none" stroke="midnightblue" d="M115.32,-58.4966C179.155,-46.5916 281.264,-27.5489 334.736,-17.5765"/>
<polygon fill="midnightblue" stroke="midnightblue" points="335.568,-20.9819 344.757,-15.7078 334.284,-14.1005 335.568,-20.9819"/>
</g>
<!-- Node7 -->
<g id="node13" class="node"><title>Node7</title>
<polygon fill="white" stroke="#bfbfbf" points="413,-0.5 413,-21.5 459,-21.5 459,-0.5 413,-0.5"/>
<text text-anchor="middle" x="436" y="-8.5" font-family="Helvetica,sans-Serif" font-size="10.00">vector</text>
</g>
<!-- Node4&#45;&gt;Node7 -->
<g id="edge12" class="edge"><title>Node4&#45;&gt;Node7</title>
<path fill="none" stroke="midnightblue" d="M118.688,-59.2368C121.497,-58.8113 124.278,-58.3969 127,-58 246.608,-40.5578 281.31,-49.8026 402.686,-21.9491"/>
<polygon fill="midnightblue" stroke="midnightblue" points="403.797,-25.2838 412.741,-19.6033 402.207,-18.4669 403.797,-25.2838"/>
</g>
<!-- Node8 -->
<g id="node15" class="node"><title>Node8</title>
<polygon fill="white" stroke="#bfbfbf" points="23,-0.5 23,-21.5 95,-21.5 95,-0.5 23,-0.5"/>
<text text-anchor="middle" x="59" y="-8.5" font-family="Helvetica,sans-Serif" font-size="10.00">cjson/json.h</text>
</g>
<!-- Node4&#45;&gt;Node8 -->
<g id="edge14" class="edge"><title>Node4&#45;&gt;Node8</title>
<path fill="none" stroke="midnightblue" d="M59,-58.3619C59,-50.9219 59,-40.7427 59,-31.7276"/>
<polygon fill="midnightblue" stroke="midnightblue" points="62.5001,-31.5706 59,-21.5707 55.5001,-31.5707 62.5001,-31.5706"/>
</g>
<!-- Node9&#45;&gt;Node5 -->
<g id="edge20" class="edge"><title>Node9&#45;&gt;Node5</title>
<path fill="none" stroke="midnightblue" d="M657.419,-116.127C654.074,-102.432 647.853,-78.2425 641,-58 637.95,-48.9914 634.09,-39.2135 630.646,-30.921"/>
<polygon fill="midnightblue" stroke="midnightblue" points="633.86,-29.5355 626.735,-21.6942 627.415,-32.2672 633.86,-29.5355"/>
</g>
<!-- Node9&#45;&gt;Node6 -->
<g id="edge22" class="edge"><title>Node9&#45;&gt;Node6</title>
<path fill="none" stroke="midnightblue" d="M608.342,-116.456C573.803,-108.527 527.76,-96.2435 489,-80 488.696,-79.8726 432.111,-47.0445 397.089,-26.721"/>
<polygon fill="midnightblue" stroke="midnightblue" points="398.678,-23.5965 388.272,-21.6044 395.164,-29.6509 398.678,-23.5965"/>
</g>
<!-- Node10 -->
<g id="node19" class="node"><title>Node10</title>
<polygon fill="white" stroke="#bfbfbf" points="660.5,-0.5 660.5,-21.5 727.5,-21.5 727.5,-0.5 660.5,-0.5"/>
<text text-anchor="middle" x="694" y="-8.5" font-family="Helvetica,sans-Serif" font-size="10.00">Common.h</text>
</g>
<!-- Node9&#45;&gt;Node10 -->
<g id="edge18" class="edge"><title>Node9&#45;&gt;Node10</title>
<path fill="none" stroke="midnightblue" d="M663.248,-116.179C666.1,-106.658 670.351,-92.4163 674,-80 678.772,-63.7595 684.106,-45.3457 688.064,-31.6275"/>
<polygon fill="midnightblue" stroke="midnightblue" points="691.501,-32.3418 690.907,-21.7637 684.774,-30.4034 691.501,-32.3418"/>
</g>
<!-- Node11 -->
<g id="node23" class="node"><title>Node11</title>
<polygon fill="white" stroke="#bfbfbf" points="135.5,-58.5 135.5,-79.5 166.5,-79.5 166.5,-58.5 135.5,-58.5"/>
<text text-anchor="middle" x="151" y="-66.5" font-family="Helvetica,sans-Serif" font-size="10.00">set</text>
</g>
<!-- Node9&#45;&gt;Node11 -->
<g id="edge24" class="edge"><title>Node9&#45;&gt;Node11</title>
<path fill="none" stroke="midnightblue" d="M594.935,-117.678C590.223,-117.084 585.54,-116.517 581,-116 404.263,-95.8726 351.987,-125.313 176.537,-79.7163"/>
<polygon fill="midnightblue" stroke="midnightblue" points="177.289,-76.2948 166.726,-77.1225 175.499,-83.0623 177.289,-76.2948"/>
</g>
<!-- Node12 -->
<g id="node25" class="node"><title>Node12</title>
<polygon fill="white" stroke="#bfbfbf" points="820.5,-0.5 820.5,-21.5 849.5,-21.5 849.5,-0.5 820.5,-0.5"/>
<text text-anchor="middle" x="835" y="-8.5" font-family="Helvetica,sans-Serif" font-size="10.00">list</text>
</g>
<!-- Node9&#45;&gt;Node12 -->
<g id="edge26" class="edge"><title>Node9&#45;&gt;Node12</title>
<path fill="none" stroke="midnightblue" d="M715.282,-116.437C754.545,-107.86 802.726,-94.7928 817,-80 829.382,-67.1678 833.529,-46.9319 834.788,-31.686"/>
<polygon fill="midnightblue" stroke="midnightblue" points="838.286,-31.8004 835.271,-21.6439 831.294,-31.4643 838.286,-31.8004"/>
</g>
<!-- Node13 -->
<g id="node27" class="node"><title>Node13</title>
<a xlink:href="LaunchPoint_8h.htm" target="_top" xlink:title="LaunchPoint.h">
<polygon fill="white" stroke="black" points="725.5,-58.5 725.5,-79.5 808.5,-79.5 808.5,-58.5 725.5,-58.5"/>
<text text-anchor="middle" x="767" y="-66.5" font-family="Helvetica,sans-Serif" font-size="10.00">LaunchPoint.h</text>
</a>
</g>
<!-- Node9&#45;&gt;Node13 -->
<g id="edge28" class="edge"><title>Node9&#45;&gt;Node13</title>
<path fill="none" stroke="midnightblue" d="M679.625,-116.362C696.141,-107.409 719.974,-94.4908 738.578,-84.4064"/>
<polygon fill="midnightblue" stroke="midnightblue" points="740.375,-87.4132 747.499,-79.5707 737.04,-81.2592 740.375,-87.4132"/>
</g>
<!-- Node15 -->
<g id="node35" class="node"><title>Node15</title>
<polygon fill="white" stroke="#bfbfbf" points="183.5,-58.5 183.5,-79.5 270.5,-79.5 270.5,-58.5 183.5,-58.5"/>
<text text-anchor="middle" x="227" y="-66.5" font-family="Helvetica,sans-Serif" font-size="10.00">KeywordMap.h</text>
</g>
<!-- Node9&#45;&gt;Node15 -->
<g id="edge40" class="edge"><title>Node9&#45;&gt;Node15</title>
<path fill="none" stroke="midnightblue" d="M594.917,-117.834C590.208,-117.203 585.532,-116.586 581,-116 450.215,-99.1012 414.116,-101.859 280.831,-80.2009"/>
<polygon fill="midnightblue" stroke="midnightblue" points="281.074,-76.694 270.639,-78.5283 279.94,-83.6016 281.074,-76.694"/>
</g>
<!-- Node16 -->
<g id="node37" class="node"><title>Node16</title>
<a xlink:href="CmdResourceHandlers_8h.htm" target="_top" xlink:title="CmdResourceHandlers.h">
<polygon fill="white" stroke="black" points="498,-58.5 498,-79.5 632,-79.5 632,-58.5 498,-58.5"/>
<text text-anchor="middle" x="565" y="-66.5" font-family="Helvetica,sans-Serif" font-size="10.00">CmdResourceHandlers.h</text>
</a>
</g>
<!-- Node9&#45;&gt;Node16 -->
<g id="edge42" class="edge"><title>Node9&#45;&gt;Node16</title>
<path fill="none" stroke="midnightblue" d="M642.576,-116.362C628.113,-107.532 607.331,-94.844 590.916,-84.8224"/>
<polygon fill="midnightblue" stroke="midnightblue" points="592.673,-81.7943 582.314,-79.5707 589.025,-87.7688 592.673,-81.7943"/>
</g>
<!-- Node19 -->
<g id="node47" class="node"><title>Node19</title>
<polygon fill="white" stroke="#bfbfbf" points="288,-58.5 288,-79.5 442,-79.5 442,-58.5 288,-58.5"/>
<text text-anchor="middle" x="365" y="-66.5" font-family="Helvetica,sans-Serif" font-size="10.00">ApplicationDescriptionBase.h</text>
</g>
<!-- Node9&#45;&gt;Node19 -->
<g id="edge56" class="edge"><title>Node9&#45;&gt;Node19</title>
<path fill="none" stroke="midnightblue" d="M606.578,-116.497C556.507,-106.652 481.612,-91.9272 428.506,-81.486"/>
<polygon fill="midnightblue" stroke="midnightblue" points="429.01,-78.0181 418.522,-79.5231 427.659,-84.8866 429.01,-78.0181"/>
</g>
<!-- Node13&#45;&gt;Node3 -->
<g id="edge38" class="edge"><title>Node13&#45;&gt;Node3</title>
<path fill="none" stroke="midnightblue" d="M788.731,-58.4966C807.825,-49.2679 835.793,-35.75 857.014,-25.4932"/>
<polygon fill="midnightblue" stroke="midnightblue" points="858.753,-28.5401 866.234,-21.0371 855.707,-22.2376 858.753,-28.5401"/>
</g>
<!-- Node13&#45;&gt;Node5 -->
<g id="edge32" class="edge"><title>Node13&#45;&gt;Node5</title>
<path fill="none" stroke="midnightblue" d="M740.742,-58.4966C716.137,-48.6548 679.338,-33.935 653.236,-23.4943"/>
<polygon fill="midnightblue" stroke="midnightblue" points="654.388,-20.1857 643.804,-19.7214 651.788,-26.6851 654.388,-20.1857"/>
</g>
<!-- Node13&#45;&gt;Node10 -->
<g id="edge30" class="edge"><title>Node13&#45;&gt;Node10</title>
<path fill="none" stroke="midnightblue" d="M753.611,-58.3619C742.909,-49.859 727.704,-37.7785 715.329,-27.9466"/>
<polygon fill="midnightblue" stroke="midnightblue" points="717.311,-25.0511 707.304,-21.5707 712.957,-30.5318 717.311,-25.0511"/>
</g>
<!-- Node13&#45;&gt;Node12 -->
<g id="edge34" class="edge"><title>Node13&#45;&gt;Node12</title>
<path fill="none" stroke="midnightblue" d="M779.472,-58.3619C789.345,-49.9408 803.333,-38.0105 814.798,-28.2308"/>
<polygon fill="midnightblue" stroke="midnightblue" points="817.27,-30.7231 822.607,-21.5707 812.727,-25.3972 817.27,-30.7231"/>
</g>
<!-- Node14 -->
<g id="node32" class="node"><title>Node14</title>
<polygon fill="white" stroke="#bfbfbf" points="744.5,-0.5 744.5,-21.5 803.5,-21.5 803.5,-0.5 744.5,-0.5"/>
<text text-anchor="middle" x="774" y="-8.5" font-family="Helvetica,sans-Serif" font-size="10.00">QPixmap</text>
</g>
<!-- Node13&#45;&gt;Node14 -->
<g id="edge36" class="edge"><title>Node13&#45;&gt;Node14</title>
<path fill="none" stroke="midnightblue" d="M768.284,-58.3619C769.182,-50.9219 770.41,-40.7427 771.498,-31.7276"/>
<polygon fill="midnightblue" stroke="midnightblue" points="775.001,-31.918 772.724,-21.5707 768.051,-31.0792 775.001,-31.918"/>
</g>
<!-- Node16&#45;&gt;Node5 -->
<g id="edge50" class="edge"><title>Node16&#45;&gt;Node5</title>
<path fill="none" stroke="midnightblue" d="M575.455,-58.3619C583.57,-50.1043 595.001,-38.4725 604.504,-28.8029"/>
<polygon fill="midnightblue" stroke="midnightblue" points="607.099,-31.1562 611.612,-21.5707 602.106,-26.2497 607.099,-31.1562"/>
</g>
<!-- Node16&#45;&gt;Node6 -->
<g id="edge48" class="edge"><title>Node16&#45;&gt;Node6</title>
<path fill="none" stroke="midnightblue" d="M527.82,-58.4757C497.237,-49.7453 452.53,-36.8161 405.07,-22.2775"/>
<polygon fill="midnightblue" stroke="midnightblue" points="405.812,-18.8442 395.225,-19.2506 403.755,-25.5351 405.812,-18.8442"/>
</g>
<!-- Node16&#45;&gt;Node7 -->
<g id="edge52" class="edge"><title>Node16&#45;&gt;Node7</title>
<path fill="none" stroke="midnightblue" d="M541.639,-58.4966C521.182,-49.299 491.25,-35.8411 468.466,-25.597"/>
<polygon fill="midnightblue" stroke="midnightblue" points="469.743,-22.3338 459.187,-21.4252 466.872,-28.7182 469.743,-22.3338"/>
</g>
<!-- Node16&#45;&gt;Node10 -->
<g id="edge44" class="edge"><title>Node16&#45;&gt;Node10</title>
<path fill="none" stroke="midnightblue" d="M588.361,-58.4966C608.691,-49.3562 638.378,-36.0082 661.109,-25.7883"/>
<polygon fill="midnightblue" stroke="midnightblue" points="662.692,-28.9142 670.377,-21.6212 659.821,-22.5298 662.692,-28.9142"/>
</g>
<!-- Node17 -->
<g id="node40" class="node"><title>Node17</title>
<polygon fill="white" stroke="#bfbfbf" points="477,-0.5 477,-21.5 529,-21.5 529,-0.5 477,-0.5"/>
<text text-anchor="middle" x="503" y="-8.5" font-family="Helvetica,sans-Serif" font-size="10.00">regex.h</text>
</g>
<!-- Node16&#45;&gt;Node17 -->
<g id="edge46" class="edge"><title>Node16&#45;&gt;Node17</title>
<path fill="none" stroke="midnightblue" d="M553.628,-58.3619C544.714,-50.0226 532.121,-38.2418 521.724,-28.5162"/>
<polygon fill="midnightblue" stroke="midnightblue" points="523.993,-25.8463 514.3,-21.5707 519.211,-30.9582 523.993,-25.8463"/>
</g>
<!-- Node18 -->
<g id="node45" class="node"><title>Node18</title>
<polygon fill="white" stroke="#bfbfbf" points="546.5,-0.5 546.5,-21.5 583.5,-21.5 583.5,-0.5 546.5,-0.5"/>
<text text-anchor="middle" x="565" y="-8.5" font-family="Helvetica,sans-Serif" font-size="10.00">map</text>
</g>
<!-- Node16&#45;&gt;Node18 -->
<g id="edge54" class="edge"><title>Node16&#45;&gt;Node18</title>
<path fill="none" stroke="midnightblue" d="M565,-58.3619C565,-50.9219 565,-40.7427 565,-31.7276"/>
<polygon fill="midnightblue" stroke="midnightblue" points="568.5,-31.5706 565,-21.5707 561.5,-31.5707 568.5,-31.5706"/>
</g>
</g>
</svg>
