<?xml version="1.0" encoding="UTF-8" standalone="no"?>
<!DOCTYPE svg PUBLIC "-//W3C//DTD SVG 1.1//EN"
 "http://www.w3.org/Graphics/SVG/1.1/DTD/svg11.dtd">
<!-- Generated by graphviz version 2.26.3 (20100126.1600)
 -->
<!-- Title: pagesaver.h Pages: 1 -->
<svg width="608pt" height="88pt"
 viewBox="0.00 0.00 608.00 88.00" xmlns="http://www.w3.org/2000/svg" xmlns:xlink="http://www.w3.org/1999/xlink">
<g id="graph1" class="graph" transform="scale(1 1) rotate(0) translate(4 84)">
<title>pagesaver.h</title>
<polygon fill="white" stroke="white" points="-4,5 -4,-84 605,-84 605,5 -4,5"/>
<!-- Node1 -->
<g id="node1" class="node"><title>Node1</title>
<polygon fill="#bfbfbf" stroke="black" points="293.5,-58.5 293.5,-79.5 368.5,-79.5 368.5,-58.5 293.5,-58.5"/>
<text text-anchor="middle" x="331" y="-66.5" font-family="Helvetica,sans-Serif" font-size="10.00">pagesaver.h</text>
</g>
<!-- Node2 -->
<g id="node3" class="node"><title>Node2</title>
<a xlink:href="BackupManager_8cpp.htm" target="_top" xlink:title="BackupManager.cpp">
<polygon fill="white" stroke="black" points="-0.5,-0.5 -0.5,-21.5 112.5,-21.5 112.5,-0.5 -0.5,-0.5"/>
<text text-anchor="middle" x="56" y="-8.5" font-family="Helvetica,sans-Serif" font-size="10.00">BackupManager.cpp</text>
</a>
</g>
<!-- Node1&#45;&gt;Node2 -->
<g id="edge2" class="edge"><title>Node1&#45;&gt;Node2</title>
<path fill="none" stroke="midnightblue" d="M283.522,-58.9864C234.022,-48.5465 156.753,-32.2497 106.247,-21.5975"/>
<polygon fill="midnightblue" stroke="midnightblue" points="282.832,-62.4179 293.339,-61.057 284.277,-55.5685 282.832,-62.4179"/>
</g>
<!-- Node3 -->
<g id="node5" class="node"><title>Node3</title>
<a xlink:href="dimensionslauncher_8cpp.htm" target="_top" xlink:title="dimensionslauncher.cpp">
<polygon fill="white" stroke="black" points="130,-0.5 130,-21.5 260,-21.5 260,-0.5 130,-0.5"/>
<text text-anchor="middle" x="195" y="-8.5" font-family="Helvetica,sans-Serif" font-size="10.00">dimensionslauncher.cpp</text>
</a>
</g>
<!-- Node1&#45;&gt;Node3 -->
<g id="edge4" class="edge"><title>Node1&#45;&gt;Node3</title>
<path fill="none" stroke="midnightblue" d="M296.952,-54.4794C273.011,-44.2695 241.518,-30.8386 219.905,-21.6212"/>
<polygon fill="midnightblue" stroke="midnightblue" points="295.8,-57.7932 306.371,-58.4966 298.546,-51.3543 295.8,-57.7932"/>
</g>
<!-- Node4 -->
<g id="node7" class="node"><title>Node4</title>
<a xlink:href="quicklaunchbar_8cpp.htm" target="_top" xlink:title="quicklaunchbar.cpp">
<polygon fill="white" stroke="black" points="278,-0.5 278,-21.5 384,-21.5 384,-0.5 278,-0.5"/>
<text text-anchor="middle" x="331" y="-8.5" font-family="Helvetica,sans-Serif" font-size="10.00">quicklaunchbar.cpp</text>
</a>
</g>
<!-- Node1&#45;&gt;Node4 -->
<g id="edge6" class="edge"><title>Node1&#45;&gt;Node4</title>
<path fill="none" stroke="midnightblue" d="M331,-48.1906C331,-39.1684 331,-28.9941 331,-21.5707"/>
<polygon fill="midnightblue" stroke="midnightblue" points="327.5,-48.3619 331,-58.3619 334.5,-48.3619 327.5,-48.3619"/>
</g>
<!-- Node5 -->
<g id="node9" class="node"><title>Node5</title>
<a xlink:href="pagerestore_8cpp.htm" target="_top" xlink:title="pagerestore.cpp">
<polygon fill="white" stroke="black" points="402,-0.5 402,-21.5 496,-21.5 496,-0.5 402,-0.5"/>
<text text-anchor="middle" x="449" y="-8.5" font-family="Helvetica,sans-Serif" font-size="10.00">pagerestore.cpp</text>
</a>
</g>
<!-- Node1&#45;&gt;Node5 -->
<g id="edge8" class="edge"><title>Node1&#45;&gt;Node5</title>
<path fill="none" stroke="midnightblue" d="M361.376,-54.0693C382.041,-43.9121 408.889,-30.7157 427.391,-21.6212"/>
<polygon fill="midnightblue" stroke="midnightblue" points="359.799,-50.9443 352.369,-58.4966 362.887,-57.2265 359.799,-50.9443"/>
</g>
<!-- Node6 -->
<g id="node11" class="node"><title>Node6</title>
<a xlink:href="pagesaver_8cpp.htm" target="_top" xlink:title="pagesaver.cpp">
<polygon fill="white" stroke="black" points="514,-0.5 514,-21.5 600,-21.5 600,-0.5 514,-0.5"/>
<text text-anchor="middle" x="557" y="-8.5" font-family="Helvetica,sans-Serif" font-size="10.00">pagesaver.cpp</text>
</a>
</g>
<!-- Node1&#45;&gt;Node6 -->
<g id="edge10" class="edge"><title>Node1&#45;&gt;Node6</title>
<path fill="none" stroke="midnightblue" d="M378.263,-56.8706C418.958,-46.4267 477.093,-31.5072 515.891,-21.5501"/>
<polygon fill="midnightblue" stroke="midnightblue" points="377.389,-53.4813 368.573,-59.3574 379.129,-60.2616 377.389,-53.4813"/>
</g>
</g>
</svg>
