<?xml version="1.0" encoding="UTF-8" standalone="no"?>
<!DOCTYPE svg PUBLIC "-//W3C//DTD SVG 1.1//EN"
 "http://www.w3.org/Graphics/SVG/1.1/DTD/svg11.dtd">
<!-- Generated by graphviz version 2.26.3 (20100126.1600)
 -->
<!-- Title: pagetabbar.h Pages: 1 -->
<svg width="336pt" height="88pt"
 viewBox="0.00 0.00 336.00 88.00" xmlns="http://www.w3.org/2000/svg" xmlns:xlink="http://www.w3.org/1999/xlink">
<g id="graph1" class="graph" transform="scale(1 1) rotate(0) translate(4 84)">
<title>pagetabbar.h</title>
<polygon fill="white" stroke="white" points="-4,5 -4,-84 333,-84 333,5 -4,5"/>
<!-- Node1 -->
<g id="node1" class="node"><title>Node1</title>
<polygon fill="#bfbfbf" stroke="black" points="146,-58.5 146,-79.5 224,-79.5 224,-58.5 146,-58.5"/>
<text text-anchor="middle" x="185" y="-66.5" font-family="Helvetica,sans-Serif" font-size="10.00">pagetabbar.h</text>
</g>
<!-- Node2 -->
<g id="node3" class="node"><title>Node2</title>
<a xlink:href="dimensionslauncher_8cpp.htm" target="_top" xlink:title="dimensionslauncher.cpp">
<polygon fill="white" stroke="black" points="0,-0.5 0,-21.5 130,-21.5 130,-0.5 0,-0.5"/>
<text text-anchor="middle" x="65" y="-8.5" font-family="Helvetica,sans-Serif" font-size="10.00">dimensionslauncher.cpp</text>
</a>
</g>
<!-- Node1&#45;&gt;Node2 -->
<g id="edge2" class="edge"><title>Node1&#45;&gt;Node2</title>
<path fill="none" stroke="midnightblue" d="M154.109,-54.0693C133.094,-43.9121 105.791,-30.7157 86.9749,-21.6212"/>
<polygon fill="midnightblue" stroke="midnightblue" points="152.742,-57.2961 163.269,-58.4966 155.789,-50.9937 152.742,-57.2961"/>
</g>
<!-- Node3 -->
<g id="node5" class="node"><title>Node3</title>
<a xlink:href="pagetab_8cpp.htm" target="_top" xlink:title="pagetab.cpp">
<polygon fill="white" stroke="black" points="148,-0.5 148,-21.5 222,-21.5 222,-0.5 148,-0.5"/>
<text text-anchor="middle" x="185" y="-8.5" font-family="Helvetica,sans-Serif" font-size="10.00">pagetab.cpp</text>
</a>
</g>
<!-- Node1&#45;&gt;Node3 -->
<g id="edge4" class="edge"><title>Node1&#45;&gt;Node3</title>
<path fill="none" stroke="midnightblue" d="M185,-48.1906C185,-39.1684 185,-28.9941 185,-21.5707"/>
<polygon fill="midnightblue" stroke="midnightblue" points="181.5,-48.3619 185,-58.3619 188.5,-48.3619 181.5,-48.3619"/>
</g>
<!-- Node4 -->
<g id="node7" class="node"><title>Node4</title>
<a xlink:href="pagetabbar_8cpp.htm" target="_top" xlink:title="pagetabbar.cpp">
<polygon fill="white" stroke="black" points="239.5,-0.5 239.5,-21.5 328.5,-21.5 328.5,-0.5 239.5,-0.5"/>
<text text-anchor="middle" x="284" y="-8.5" font-family="Helvetica,sans-Serif" font-size="10.00">pagetabbar.cpp</text>
</a>
</g>
<!-- Node1&#45;&gt;Node4 -->
<g id="edge6" class="edge"><title>Node1&#45;&gt;Node4</title>
<path fill="none" stroke="midnightblue" d="M212.138,-53.1009C229.267,-43.0658 250.919,-30.3808 265.957,-21.5707"/>
<polygon fill="midnightblue" stroke="midnightblue" points="210.017,-50.287 203.158,-58.3619 213.556,-56.3268 210.017,-50.287"/>
</g>
</g>
</svg>
