<?xml version="1.0" encoding="UTF-8" standalone="no"?>
<!DOCTYPE svg PUBLIC "-//W3C//DTD SVG 1.1//EN"
 "http://www.w3.org/Graphics/SVG/1.1/DTD/svg11.dtd">
<!-- Generated by graphviz version 2.26.3 (20100126.1600)
 -->
<!-- Title: pagerestore.h Pages: 1 -->
<svg width="692pt" height="146pt"
 viewBox="0.00 0.00 692.00 146.00" xmlns="http://www.w3.org/2000/svg" xmlns:xlink="http://www.w3.org/1999/xlink">
<g id="graph1" class="graph" transform="scale(1 1) rotate(0) translate(4 142)">
<title>pagerestore.h</title>
<polygon fill="white" stroke="white" points="-4,5 -4,-142 689,-142 689,5 -4,5"/>
<!-- Node1 -->
<g id="node1" class="node"><title>Node1</title>
<polygon fill="#bfbfbf" stroke="black" points="303.5,-116.5 303.5,-137.5 386.5,-137.5 386.5,-116.5 303.5,-116.5"/>
<text text-anchor="middle" x="345" y="-124.5" font-family="Helvetica,sans-Serif" font-size="10.00">pagerestore.h</text>
</g>
<!-- Node2 -->
<g id="node3" class="node"><title>Node2</title>
<polygon fill="white" stroke="#bfbfbf" points="-0.5,-58.5 -0.5,-79.5 54.5,-79.5 54.5,-58.5 -0.5,-58.5"/>
<text text-anchor="middle" x="27" y="-66.5" font-family="Helvetica,sans-Serif" font-size="10.00">QObject</text>
</g>
<!-- Node1&#45;&gt;Node2 -->
<g id="edge2" class="edge"><title>Node1&#45;&gt;Node2</title>
<path fill="none" stroke="midnightblue" d="M303.09,-121.768C249.657,-114.713 154.317,-100.837 64.5927,-80.1777"/>
<polygon fill="midnightblue" stroke="midnightblue" points="65.3435,-76.7589 54.8095,-77.8923 63.7511,-83.5754 65.3435,-76.7589"/>
</g>
<!-- Node3 -->
<g id="node5" class="node"><title>Node3</title>
<polygon fill="white" stroke="#bfbfbf" points="71.5,-58.5 71.5,-79.5 130.5,-79.5 130.5,-58.5 71.5,-58.5"/>
<text text-anchor="middle" x="101" y="-66.5" font-family="Helvetica,sans-Serif" font-size="10.00">QPointer</text>
</g>
<!-- Node1&#45;&gt;Node3 -->
<g id="edge4" class="edge"><title>Node1&#45;&gt;Node3</title>
<path fill="none" stroke="midnightblue" d="M303.401,-118.244C263.791,-109.743 202.289,-96.1201 140.707,-80.3571"/>
<polygon fill="midnightblue" stroke="midnightblue" points="141.383,-76.9171 130.826,-77.8094 139.636,-83.6954 141.383,-76.9171"/>
</g>
<!-- Node4 -->
<g id="node7" class="node"><title>Node4</title>
<polygon fill="white" stroke="#bfbfbf" points="147.5,-58.5 147.5,-79.5 206.5,-79.5 206.5,-58.5 147.5,-58.5"/>
<text text-anchor="middle" x="177" y="-66.5" font-family="Helvetica,sans-Serif" font-size="10.00">QVariant</text>
</g>
<!-- Node1&#45;&gt;Node4 -->
<g id="edge6" class="edge"><title>Node1&#45;&gt;Node4</title>
<path fill="none" stroke="midnightblue" d="M314.576,-116.497C287.052,-106.994 246.355,-92.9438 216.36,-82.5887"/>
<polygon fill="midnightblue" stroke="midnightblue" points="217.228,-79.1856 206.633,-79.2305 214.944,-85.8024 217.228,-79.1856"/>
</g>
<!-- Node5 -->
<g id="node9" class="node"><title>Node5</title>
<polygon fill="white" stroke="#bfbfbf" points="223.5,-58.5 223.5,-79.5 264.5,-79.5 264.5,-58.5 223.5,-58.5"/>
<text text-anchor="middle" x="244" y="-66.5" font-family="Helvetica,sans-Serif" font-size="10.00">QList</text>
</g>
<!-- Node1&#45;&gt;Node5 -->
<g id="edge8" class="edge"><title>Node1&#45;&gt;Node5</title>
<path fill="none" stroke="midnightblue" d="M326.475,-116.362C311.099,-107.532 289.004,-94.844 271.553,-84.8224"/>
<polygon fill="midnightblue" stroke="midnightblue" points="272.822,-81.5154 262.408,-79.5707 269.336,-87.5857 272.822,-81.5154"/>
</g>
<!-- Node6 -->
<g id="node11" class="node"><title>Node6</title>
<polygon fill="white" stroke="#bfbfbf" points="282,-58.5 282,-79.5 328,-79.5 328,-58.5 282,-58.5"/>
<text text-anchor="middle" x="305" y="-66.5" font-family="Helvetica,sans-Serif" font-size="10.00">QUuid</text>
</g>
<!-- Node1&#45;&gt;Node6 -->
<g id="edge10" class="edge"><title>Node1&#45;&gt;Node6</title>
<path fill="none" stroke="midnightblue" d="M337.663,-116.362C332.194,-108.431 324.578,-97.3885 318.076,-87.9606"/>
<polygon fill="midnightblue" stroke="midnightblue" points="320.849,-85.8157 312.29,-79.5707 315.086,-89.7899 320.849,-85.8157"/>
</g>
<!-- Node7 -->
<g id="node13" class="node"><title>Node7</title>
<polygon fill="white" stroke="#bfbfbf" points="346,-58.5 346,-79.5 426,-79.5 426,-58.5 346,-58.5"/>
<text text-anchor="middle" x="386" y="-66.5" font-family="Helvetica,sans-Serif" font-size="10.00">QVariantMap</text>
</g>
<!-- Node1&#45;&gt;Node7 -->
<g id="edge12" class="edge"><title>Node1&#45;&gt;Node7</title>
<path fill="none" stroke="midnightblue" d="M352.52,-116.362C358.126,-108.431 365.932,-97.3885 372.597,-87.9606"/>
<polygon fill="midnightblue" stroke="midnightblue" points="375.613,-89.7568 378.528,-79.5707 369.897,-85.7161 375.613,-89.7568"/>
</g>
<!-- Node8 -->
<g id="node15" class="node"><title>Node8</title>
<polygon fill="white" stroke="#bfbfbf" points="444,-58.5 444,-79.5 490,-79.5 490,-58.5 444,-58.5"/>
<text text-anchor="middle" x="467" y="-66.5" font-family="Helvetica,sans-Serif" font-size="10.00">QMap</text>
</g>
<!-- Node1&#45;&gt;Node8 -->
<g id="edge14" class="edge"><title>Node1&#45;&gt;Node8</title>
<path fill="none" stroke="midnightblue" d="M367.093,-116.497C386.234,-107.397 414.146,-94.1273 435.605,-83.9253"/>
<polygon fill="midnightblue" stroke="midnightblue" points="437.13,-87.0758 444.659,-79.6212 434.125,-80.7539 437.13,-87.0758"/>
</g>
<!-- Node9 -->
<g id="node17" class="node"><title>Node9</title>
<polygon fill="white" stroke="#bfbfbf" points="517.5,-0.5 517.5,-21.5 570.5,-21.5 570.5,-0.5 517.5,-0.5"/>
<text text-anchor="middle" x="544" y="-8.5" font-family="Helvetica,sans-Serif" font-size="10.00">QString</text>
</g>
<!-- Node1&#45;&gt;Node9 -->
<g id="edge16" class="edge"><title>Node1&#45;&gt;Node9</title>
<path fill="none" stroke="midnightblue" d="M386.779,-122.179C419.938,-116.602 466.041,-104.774 499,-80 515.88,-67.3119 528.259,-46.3056 535.713,-30.7977"/>
<polygon fill="midnightblue" stroke="midnightblue" points="538.966,-32.0973 539.898,-21.5435 532.588,-29.2129 538.966,-32.0973"/>
</g>
<!-- Node10 -->
<g id="node19" class="node"><title>Node10</title>
<polygon fill="white" stroke="#bfbfbf" points="546,-58.5 546,-79.5 590,-79.5 590,-58.5 546,-58.5"/>
<text text-anchor="middle" x="568" y="-66.5" font-family="Helvetica,sans-Serif" font-size="10.00">QPair</text>
</g>
<!-- Node1&#45;&gt;Node10 -->
<g id="edge18" class="edge"><title>Node1&#45;&gt;Node10</title>
<path fill="none" stroke="midnightblue" d="M386.75,-117.143C424.752,-108.021 482.335,-93.8195 532,-80 533.417,-79.6058 534.862,-79.196 536.321,-78.7762"/>
<polygon fill="midnightblue" stroke="midnightblue" points="537.37,-82.1161 545.967,-75.9242 535.385,-75.4033 537.37,-82.1161"/>
</g>
<!-- Node11 -->
<g id="node21" class="node"><title>Node11</title>
<a xlink:href="safefileops_8h.htm" target="_top" xlink:title="safefileops.h">
<polygon fill="white" stroke="black" points="608,-58.5 608,-79.5 684,-79.5 684,-58.5 608,-58.5"/>
<text text-anchor="middle" x="646" y="-66.5" font-family="Helvetica,sans-Serif" font-size="10.00">safefileops.h</text>
</a>
</g>
<!-- Node1&#45;&gt;Node11 -->
<g id="edge20" class="edge"><title>Node1&#45;&gt;Node11</title>
<path fill="none" stroke="midnightblue" d="M386.918,-119.865C435.302,-111.492 517.507,-96.8451 597.557,-80.2367"/>
<polygon fill="midnightblue" stroke="midnightblue" points="598.74,-83.5652 607.814,-78.0952 597.31,-76.713 598.74,-83.5652"/>
</g>
<!-- Node11&#45;&gt;Node9 -->
<g id="edge24" class="edge"><title>Node11&#45;&gt;Node9</title>
<path fill="none" stroke="midnightblue" d="M627.292,-58.3619C611.619,-49.4502 589.036,-36.6087 571.337,-26.5447"/>
<polygon fill="midnightblue" stroke="midnightblue" points="573.013,-23.4712 562.59,-21.5707 569.553,-29.5562 573.013,-23.4712"/>
</g>
<!-- Node12 -->
<g id="node23" class="node"><title>Node12</title>
<polygon fill="white" stroke="#bfbfbf" points="614.5,-0.5 614.5,-21.5 677.5,-21.5 677.5,-0.5 614.5,-0.5"/>
<text text-anchor="middle" x="646" y="-8.5" font-family="Helvetica,sans-Serif" font-size="10.00">QSettings</text>
</g>
<!-- Node11&#45;&gt;Node12 -->
<g id="edge22" class="edge"><title>Node11&#45;&gt;Node12</title>
<path fill="none" stroke="midnightblue" d="M646,-58.3619C646,-50.9219 646,-40.7427 646,-31.7276"/>
<polygon fill="midnightblue" stroke="midnightblue" points="649.5,-31.5706 646,-21.5707 642.5,-31.5707 649.5,-31.5706"/>
</g>
</g>
</svg>
