<?xml version="1.0" encoding="UTF-8" standalone="no"?>
<!DOCTYPE svg PUBLIC "-//W3C//DTD SVG 1.1//EN"
 "http://www.w3.org/Graphics/SVG/1.1/DTD/svg11.dtd">
<!-- Generated by graphviz version 2.26.3 (20100126.1600)
 -->
<!-- Title: pagemovement.h Pages: 1 -->
<svg width="168pt" height="88pt"
 viewBox="0.00 0.00 168.00 88.00" xmlns="http://www.w3.org/2000/svg" xmlns:xlink="http://www.w3.org/1999/xlink">
<g id="graph1" class="graph" transform="scale(1 1) rotate(0) translate(4 84)">
<title>pagemovement.h</title>
<polygon fill="white" stroke="white" points="-4,5 -4,-84 165,-84 165,5 -4,5"/>
<!-- Node1 -->
<g id="node1" class="node"><title>Node1</title>
<polygon fill="#bfbfbf" stroke="black" points="40,-58.5 40,-79.5 138,-79.5 138,-58.5 40,-58.5"/>
<text text-anchor="middle" x="89" y="-66.5" font-family="Helvetica,sans-Serif" font-size="10.00">pagemovement.h</text>
</g>
<!-- Node2 -->
<g id="node3" class="node"><title>Node2</title>
<polygon fill="white" stroke="#bfbfbf" points="0,-0.5 0,-21.5 90,-21.5 90,-0.5 0,-0.5"/>
<text text-anchor="middle" x="45" y="-8.5" font-family="Helvetica,sans-Serif" font-size="10.00">QStateMachine</text>
</g>
<!-- Node1&#45;&gt;Node2 -->
<g id="edge2" class="edge"><title>Node1&#45;&gt;Node2</title>
<path fill="none" stroke="midnightblue" d="M80.9297,-58.3619C74.8514,-50.3496 66.3631,-39.1605 59.1631,-29.6696"/>
<polygon fill="midnightblue" stroke="midnightblue" points="61.8514,-27.4222 53.0191,-21.5707 56.2746,-31.653 61.8514,-27.4222"/>
</g>
<!-- Node3 -->
<g id="node5" class="node"><title>Node3</title>
<polygon fill="white" stroke="#bfbfbf" points="108,-0.5 108,-21.5 160,-21.5 160,-0.5 108,-0.5"/>
<text text-anchor="middle" x="134" y="-8.5" font-family="Helvetica,sans-Serif" font-size="10.00">QTimer</text>
</g>
<!-- Node1&#45;&gt;Node3 -->
<g id="edge4" class="edge"><title>Node1&#45;&gt;Node3</title>
<path fill="none" stroke="midnightblue" d="M97.2537,-58.3619C103.47,-50.3496 112.151,-39.1605 119.515,-29.6696"/>
<polygon fill="midnightblue" stroke="midnightblue" points="122.434,-31.617 125.799,-21.5707 116.903,-27.326 122.434,-31.617"/>
</g>
</g>
</svg>
