<?xml version="1.0" encoding="UTF-8" standalone="no"?>
<!DOCTYPE svg PUBLIC "-//W3C//DTD SVG 1.1//EN"
 "http://www.w3.org/Graphics/SVG/1.1/DTD/svg11.dtd">
<!-- Generated by graphviz version 2.26.3 (20100126.1600)
 -->
<!-- Title: PersistentWindowCache.cpp Pages: 1 -->
<svg width="1609pt" height="262pt"
 viewBox="0.00 0.00 1609.00 262.00" xmlns="http://www.w3.org/2000/svg" xmlns:xlink="http://www.w3.org/1999/xlink">
<g id="graph1" class="graph" transform="scale(1 1) rotate(0) translate(4 258)">
<title>PersistentWindowCache.cpp</title>
<polygon fill="white" stroke="white" points="-4,5 -4,-258 1606,-258 1606,5 -4,5"/>
<!-- Node1 -->
<g id="node1" class="node"><title>Node1</title>
<polygon fill="#bfbfbf" stroke="black" points="473,-232.5 473,-253.5 625,-253.5 625,-232.5 473,-232.5"/>
<text text-anchor="middle" x="549" y="-240.5" font-family="Helvetica,sans-Serif" font-size="10.00">PersistentWindowCache.cpp</text>
</g>
<!-- Node2 -->
<g id="node3" class="node"><title>Node2</title>
<polygon fill="white" stroke="#bfbfbf" points="303.5,-0.5 303.5,-21.5 370.5,-21.5 370.5,-0.5 303.5,-0.5"/>
<text text-anchor="middle" x="337" y="-8.5" font-family="Helvetica,sans-Serif" font-size="10.00">Common.h</text>
</g>
<!-- Node1&#45;&gt;Node2 -->
<g id="edge2" class="edge"><title>Node1&#45;&gt;Node2</title>
<path fill="none" stroke="midnightblue" d="M472.723,-234.663C405.395,-226.404 312.973,-212.608 280,-196 246.589,-179.172 235.502,-171.574 219,-138 203.272,-106.001 192.743,-87.3419 213,-58 222.56,-44.1526 261.633,-30.7946 293.398,-21.8822"/>
<polygon fill="midnightblue" stroke="midnightblue" points="294.682,-25.1597 303.408,-19.1498 292.839,-18.4068 294.682,-25.1597"/>
</g>
<!-- Node3 -->
<g id="node5" class="node"><title>Node3</title>
<polygon fill="white" stroke="#bfbfbf" points="1442.5,-0.5 1442.5,-21.5 1483.5,-21.5 1483.5,-0.5 1442.5,-0.5"/>
<text text-anchor="middle" x="1463" y="-8.5" font-family="Helvetica,sans-Serif" font-size="10.00">glib.h</text>
</g>
<!-- Node1&#45;&gt;Node3 -->
<g id="edge4" class="edge"><title>Node1&#45;&gt;Node3</title>
<path fill="none" stroke="midnightblue" d="M625.295,-240.135C837.895,-231.373 1425.18,-201.577 1482,-138 1508.46,-108.391 1488.9,-58.5006 1474.55,-30.8869"/>
<polygon fill="midnightblue" stroke="midnightblue" points="1477.46,-28.9033 1469.6,-21.8003 1471.31,-32.2552 1477.46,-28.9033"/>
</g>
<!-- Node4 -->
<g id="node7" class="node"><title>Node4</title>
<polygon fill="white" stroke="#bfbfbf" points="1529,-174.5 1529,-195.5 1601,-195.5 1601,-174.5 1529,-174.5"/>
<text text-anchor="middle" x="1565" y="-182.5" font-family="Helvetica,sans-Serif" font-size="10.00">cjson/json.h</text>
</g>
<!-- Node1&#45;&gt;Node4 -->
<g id="edge6" class="edge"><title>Node1&#45;&gt;Node4</title>
<path fill="none" stroke="midnightblue" d="M625.179,-240.948C821.898,-235.384 1343.47,-218.876 1515,-196 1516.26,-195.831 1517.54,-195.647 1518.83,-195.45"/>
<polygon fill="midnightblue" stroke="midnightblue" points="1519.56,-198.876 1528.81,-193.711 1518.35,-191.98 1519.56,-198.876"/>
</g>
<!-- Node5 -->
<g id="node9" class="node"><title>Node5</title>
<a xlink:href="PersistentWindowCache_8h.htm" target="_top" xlink:title="PersistentWindowCache.h">
<polygon fill="white" stroke="black" points="479,-116.5 479,-137.5 619,-137.5 619,-116.5 479,-116.5"/>
<text text-anchor="middle" x="549" y="-124.5" font-family="Helvetica,sans-Serif" font-size="10.00">PersistentWindowCache.h</text>
</a>
</g>
<!-- Node1&#45;&gt;Node5 -->
<g id="edge8" class="edge"><title>Node1&#45;&gt;Node5</title>
<path fill="none" stroke="midnightblue" d="M549,-232.295C549,-213.131 549,-172.654 549,-147.843"/>
<polygon fill="midnightblue" stroke="midnightblue" points="552.5,-147.679 549,-137.679 545.5,-147.679 552.5,-147.679"/>
</g>
<!-- Node9 -->
<g id="node18" class="node"><title>Node9</title>
<a xlink:href="Window_8h.htm" target="_top" xlink:title="Window.h">
<polygon fill="white" stroke="black" points="643,-58.5 643,-79.5 705,-79.5 705,-58.5 643,-58.5"/>
<text text-anchor="middle" x="674" y="-66.5" font-family="Helvetica,sans-Serif" font-size="10.00">Window.h</text>
</a>
</g>
<!-- Node1&#45;&gt;Node9 -->
<g id="edge70" class="edge"><title>Node1&#45;&gt;Node9</title>
<path fill="none" stroke="midnightblue" d="M533.237,-232.224C502.005,-209.58 437.94,-155.861 470,-116 514.851,-60.2353 557.877,-94.7796 632.806,-79.9827"/>
<polygon fill="midnightblue" stroke="midnightblue" points="633.598,-83.3922 642.598,-77.8024 632.076,-76.5596 633.598,-83.3922"/>
</g>
<!-- Node14 -->
<g id="node31" class="node"><title>Node14</title>
<a xlink:href="WebAppMgrProxy_8h.htm" target="_top" xlink:title="WebAppMgrProxy.h">
<polygon fill="white" stroke="black" points="830,-174.5 830,-195.5 940,-195.5 940,-174.5 830,-174.5"/>
<text text-anchor="middle" x="885" y="-182.5" font-family="Helvetica,sans-Serif" font-size="10.00">WebAppMgrProxy.h</text>
</a>
</g>
<!-- Node1&#45;&gt;Node14 -->
<g id="edge34" class="edge"><title>Node1&#45;&gt;Node14</title>
<path fill="none" stroke="midnightblue" d="M609.847,-232.497C669.232,-222.246 759.274,-206.703 820.031,-196.215"/>
<polygon fill="midnightblue" stroke="midnightblue" points="820.636,-199.662 829.895,-194.512 819.445,-192.764 820.636,-199.662"/>
</g>
<!-- Node25 -->
<g id="node61" class="node"><title>Node25</title>
<a xlink:href="MenuWindow_8h.htm" target="_top" xlink:title="MenuWindow.h">
<polygon fill="white" stroke="black" points="288.5,-174.5 288.5,-195.5 377.5,-195.5 377.5,-174.5 288.5,-174.5"/>
<text text-anchor="middle" x="333" y="-182.5" font-family="Helvetica,sans-Serif" font-size="10.00">MenuWindow.h</text>
</a>
</g>
<!-- Node1&#45;&gt;Node25 -->
<g id="edge72" class="edge"><title>Node1&#45;&gt;Node25</title>
<path fill="none" stroke="midnightblue" d="M509.884,-232.497C474.06,-222.877 420.883,-208.598 382.192,-198.209"/>
<polygon fill="midnightblue" stroke="midnightblue" points="382.755,-194.736 372.189,-195.523 380.94,-201.497 382.755,-194.736"/>
</g>
<!-- Node5&#45;&gt;Node2 -->
<g id="edge10" class="edge"><title>Node5&#45;&gt;Node2</title>
<path fill="none" stroke="midnightblue" d="M516.749,-116.465C492.691,-108.037 459.394,-95.1466 432,-80 404.618,-64.8604 375.92,-43.0704 357.327,-28.0475"/>
<polygon fill="midnightblue" stroke="midnightblue" points="359.491,-25.2961 349.536,-21.6695 355.057,-30.7125 359.491,-25.2961"/>
</g>
<!-- Node6 -->
<g id="node12" class="node"><title>Node6</title>
<polygon fill="white" stroke="#bfbfbf" points="1240.5,-58.5 1240.5,-79.5 1271.5,-79.5 1271.5,-58.5 1240.5,-58.5"/>
<text text-anchor="middle" x="1256" y="-66.5" font-family="Helvetica,sans-Serif" font-size="10.00">set</text>
</g>
<!-- Node5&#45;&gt;Node6 -->
<g id="edge12" class="edge"><title>Node5&#45;&gt;Node6</title>
<path fill="none" stroke="midnightblue" d="M619.177,-116.936C622.156,-116.601 625.106,-116.287 628,-116 892.339,-89.7602 969.215,-143.789 1230.52,-79.6244"/>
<polygon fill="midnightblue" stroke="midnightblue" points="1231.43,-83.0036 1240.29,-77.1911 1229.74,-76.211 1231.43,-83.0036"/>
</g>
<!-- Node7 -->
<g id="node14" class="node"><title>Node7</title>
<polygon fill="white" stroke="#bfbfbf" points="441,-58.5 441,-79.5 495,-79.5 495,-58.5 441,-58.5"/>
<text text-anchor="middle" x="468" y="-66.5" font-family="Helvetica,sans-Serif" font-size="10.00">memory</text>
</g>
<!-- Node5&#45;&gt;Node7 -->
<g id="edge14" class="edge"><title>Node5&#45;&gt;Node7</title>
<path fill="none" stroke="midnightblue" d="M534.143,-116.362C522.154,-107.777 505.073,-95.5459 491.272,-85.6636"/>
<polygon fill="midnightblue" stroke="midnightblue" points="492.931,-82.5469 482.762,-79.5707 488.855,-88.2383 492.931,-82.5469"/>
</g>
<!-- Node8 -->
<g id="node16" class="node"><title>Node8</title>
<polygon fill="white" stroke="#bfbfbf" points="859.5,-0.5 859.5,-21.5 902.5,-21.5 902.5,-0.5 859.5,-0.5"/>
<text text-anchor="middle" x="881" y="-8.5" font-family="Helvetica,sans-Serif" font-size="10.00">string</text>
</g>
<!-- Node5&#45;&gt;Node8 -->
<g id="edge16" class="edge"><title>Node5&#45;&gt;Node8</title>
<path fill="none" stroke="midnightblue" d="M591.117,-116.426C624.707,-107.652 672.785,-94.3318 714,-80 762.407,-63.1671 817.044,-39.7173 850.244,-24.9517"/>
<polygon fill="midnightblue" stroke="midnightblue" points="851.722,-28.1247 859.423,-20.8476 848.865,-21.7345 851.722,-28.1247"/>
</g>
<!-- Node5&#45;&gt;Node9 -->
<g id="edge18" class="edge"><title>Node5&#45;&gt;Node9</title>
<path fill="none" stroke="midnightblue" d="M571.637,-116.497C591.248,-107.397 619.846,-94.1273 641.833,-83.9253"/>
<polygon fill="midnightblue" stroke="midnightblue" points="643.512,-87.0051 651.109,-79.6212 640.565,-80.6554 643.512,-87.0051"/>
</g>
<!-- Node9&#45;&gt;Node2 -->
<g id="edge20" class="edge"><title>Node9&#45;&gt;Node2</title>
<path fill="none" stroke="midnightblue" d="M642.649,-59.9701C639.737,-59.2549 636.821,-58.5845 634,-58 525.097,-35.4355 493.021,-44.0109 380.862,-22.2099"/>
<polygon fill="midnightblue" stroke="midnightblue" points="381.337,-18.7361 370.848,-20.2248 379.976,-25.6025 381.337,-18.7361"/>
</g>
<!-- Node9&#45;&gt;Node3 -->
<g id="edge28" class="edge"><title>Node9&#45;&gt;Node3</title>
<path fill="none" stroke="midnightblue" d="M705.417,-66.6905C832.41,-57.3552 1306.97,-22.4697 1432.42,-13.2478"/>
<polygon fill="midnightblue" stroke="midnightblue" points="1432.77,-16.7319 1442.48,-12.5081 1432.25,-9.75077 1432.77,-16.7319"/>
</g>
<!-- Node9&#45;&gt;Node8 -->
<g id="edge26" class="edge"><title>Node9&#45;&gt;Node8</title>
<path fill="none" stroke="midnightblue" d="M705.263,-61.621C738.882,-53.4848 794.058,-39.553 849.779,-22.2131"/>
<polygon fill="midnightblue" stroke="midnightblue" points="850.963,-25.51 859.451,-19.17 848.862,-18.8327 850.963,-25.51"/>
</g>
<!-- Node10 -->
<g id="node21" class="node"><title>Node10</title>
<polygon fill="white" stroke="#bfbfbf" points="682,-0.5 682,-21.5 774,-21.5 774,-0.5 682,-0.5"/>
<text text-anchor="middle" x="728" y="-8.5" font-family="Helvetica,sans-Serif" font-size="10.00">WindowTypes.h</text>
</g>
<!-- Node9&#45;&gt;Node10 -->
<g id="edge22" class="edge"><title>Node9&#45;&gt;Node10</title>
<path fill="none" stroke="midnightblue" d="M683.904,-58.3619C691.516,-50.1861 702.208,-38.7025 711.157,-29.0907"/>
<polygon fill="midnightblue" stroke="midnightblue" points="713.906,-31.2746 718.158,-21.5707 708.783,-26.5046 713.906,-31.2746"/>
</g>
<!-- Node11 -->
<g id="node23" class="node"><title>Node11</title>
<polygon fill="white" stroke="#bfbfbf" points="792,-0.5 792,-21.5 842,-21.5 842,-0.5 792,-0.5"/>
<text text-anchor="middle" x="817" y="-8.5" font-family="Helvetica,sans-Serif" font-size="10.00">stdint.h</text>
</g>
<!-- Node9&#45;&gt;Node11 -->
<g id="edge24" class="edge"><title>Node9&#45;&gt;Node11</title>
<path fill="none" stroke="midnightblue" d="M699.896,-58.4966C723.02,-49.118 757.064,-35.3096 782.493,-24.9958"/>
<polygon fill="midnightblue" stroke="midnightblue" points="783.825,-28.2325 791.776,-21.2305 781.194,-21.7458 783.825,-28.2325"/>
</g>
<!-- Node12 -->
<g id="node27" class="node"><title>Node12</title>
<polygon fill="white" stroke="#bfbfbf" points="504,-0.5 504,-21.5 602,-21.5 602,-0.5 504,-0.5"/>
<text text-anchor="middle" x="553" y="-8.5" font-family="Helvetica,sans-Serif" font-size="10.00">QGraphicsObject</text>
</g>
<!-- Node9&#45;&gt;Node12 -->
<g id="edge30" class="edge"><title>Node9&#45;&gt;Node12</title>
<path fill="none" stroke="midnightblue" d="M652.088,-58.4966C633.189,-49.4378 605.669,-36.2462 584.424,-26.0628"/>
<polygon fill="midnightblue" stroke="midnightblue" points="585.689,-22.7876 575.158,-21.6212 582.663,-29.0999 585.689,-22.7876"/>
</g>
<!-- Node13 -->
<g id="node29" class="node"><title>Node13</title>
<polygon fill="white" stroke="#bfbfbf" points="619.5,-0.5 619.5,-21.5 664.5,-21.5 664.5,-0.5 619.5,-0.5"/>
<text text-anchor="middle" x="642" y="-8.5" font-family="Helvetica,sans-Serif" font-size="10.00">QSize</text>
</g>
<!-- Node9&#45;&gt;Node13 -->
<g id="edge32" class="edge"><title>Node9&#45;&gt;Node13</title>
<path fill="none" stroke="midnightblue" d="M668.131,-58.3619C663.845,-50.5949 657.913,-39.8426 652.784,-30.5458"/>
<polygon fill="midnightblue" stroke="midnightblue" points="655.727,-28.6357 647.832,-21.5707 649.598,-32.0172 655.727,-28.6357"/>
</g>
<!-- Node14&#45;&gt;Node2 -->
<g id="edge36" class="edge"><title>Node14&#45;&gt;Node2</title>
<path fill="none" stroke="midnightblue" d="M829.968,-182.445C732.552,-177.316 533.996,-163.971 470,-138 415.308,-115.804 370.247,-59.4329 349.429,-29.8225"/>
<polygon fill="midnightblue" stroke="midnightblue" points="352.305,-27.8275 343.763,-21.5597 346.532,-31.7863 352.305,-27.8275"/>
</g>
<!-- Node15 -->
<g id="node34" class="node"><title>Node15</title>
<polygon fill="white" stroke="#bfbfbf" points="1099,-58.5 1099,-79.5 1223,-79.5 1223,-58.5 1099,-58.5"/>
<text text-anchor="middle" x="1161" y="-66.5" font-family="Helvetica,sans-Serif" font-size="10.00">PIpcChannelListener.h</text>
</g>
<!-- Node14&#45;&gt;Node15 -->
<g id="edge38" class="edge"><title>Node14&#45;&gt;Node15</title>
<path fill="none" stroke="midnightblue" d="M940.186,-183.332C1055.14,-179.287 1311.79,-167.068 1338,-138 1344.55,-130.738 1343.96,-123.751 1338,-116 1330.74,-106.559 1271.34,-92.068 1223.32,-81.673"/>
<polygon fill="midnightblue" stroke="midnightblue" points="1223.78,-78.1924 1213.27,-79.5203 1222.32,-85.0372 1223.78,-78.1924"/>
</g>
<!-- Node16 -->
<g id="node36" class="node"><title>Node16</title>
<polygon fill="white" stroke="#bfbfbf" points="636.5,-116.5 636.5,-137.5 681.5,-137.5 681.5,-116.5 636.5,-116.5"/>
<text text-anchor="middle" x="659" y="-124.5" font-family="Helvetica,sans-Serif" font-size="10.00">queue</text>
</g>
<!-- Node14&#45;&gt;Node16 -->
<g id="edge40" class="edge"><title>Node14&#45;&gt;Node16</title>
<path fill="none" stroke="midnightblue" d="M834.926,-174.443C797.553,-166.222 745.092,-153.964 691.298,-138.202"/>
<polygon fill="midnightblue" stroke="midnightblue" points="692.18,-134.813 681.597,-135.326 690.189,-141.524 692.18,-134.813"/>
</g>
<!-- Node17 -->
<g id="node38" class="node"><title>Node17</title>
<a xlink:href="IpcClientHost_8h.htm" target="_top" xlink:title="IpcClientHost.h">
<polygon fill="white" stroke="black" points="1385,-116.5 1385,-137.5 1473,-137.5 1473,-116.5 1385,-116.5"/>
<text text-anchor="middle" x="1429" y="-124.5" font-family="Helvetica,sans-Serif" font-size="10.00">IpcClientHost.h</text>
</a>
</g>
<!-- Node14&#45;&gt;Node17 -->
<g id="edge42" class="edge"><title>Node14&#45;&gt;Node17</title>
<path fill="none" stroke="midnightblue" d="M940.222,-181.304C1030.58,-174.888 1215.54,-160.211 1371,-138 1372.26,-137.821 1373.53,-137.633 1374.8,-137.438"/>
<polygon fill="midnightblue" stroke="midnightblue" points="1375.43,-140.883 1384.74,-135.825 1374.3,-133.974 1375.43,-140.883"/>
</g>
<!-- Node20 -->
<g id="node50" class="node"><title>Node20</title>
<polygon fill="white" stroke="#bfbfbf" points="699,-116.5 699,-137.5 751,-137.5 751,-116.5 699,-116.5"/>
<text text-anchor="middle" x="725" y="-124.5" font-family="Helvetica,sans-Serif" font-size="10.00">Event.h</text>
</g>
<!-- Node14&#45;&gt;Node20 -->
<g id="edge60" class="edge"><title>Node14&#45;&gt;Node20</title>
<path fill="none" stroke="midnightblue" d="M856.025,-174.497C829.281,-164.802 789.478,-150.373 760.765,-139.965"/>
<polygon fill="midnightblue" stroke="midnightblue" points="761.704,-136.583 751.11,-136.465 759.319,-143.164 761.704,-136.583"/>
</g>
<!-- Node21 -->
<g id="node52" class="node"><title>Node21</title>
<polygon fill="white" stroke="#bfbfbf" points="769,-116.5 769,-137.5 861,-137.5 861,-116.5 769,-116.5"/>
<text text-anchor="middle" x="815" y="-124.5" font-family="Helvetica,sans-Serif" font-size="10.00">CustomEvents.h</text>
</g>
<!-- Node14&#45;&gt;Node21 -->
<g id="edge62" class="edge"><title>Node14&#45;&gt;Node21</title>
<path fill="none" stroke="midnightblue" d="M872.161,-174.362C861.998,-165.941 847.599,-154.011 835.796,-144.231"/>
<polygon fill="midnightblue" stroke="midnightblue" points="837.691,-141.256 827.758,-137.571 833.225,-146.646 837.691,-141.256"/>
</g>
<!-- Node22 -->
<g id="node54" class="node"><title>Node22</title>
<polygon fill="white" stroke="#bfbfbf" points="879,-116.5 879,-137.5 1031,-137.5 1031,-116.5 879,-116.5"/>
<text text-anchor="middle" x="955" y="-124.5" font-family="Helvetica,sans-Serif" font-size="10.00">NewContentIndicatorEvent.h</text>
</g>
<!-- Node14&#45;&gt;Node22 -->
<g id="edge64" class="edge"><title>Node14&#45;&gt;Node22</title>
<path fill="none" stroke="midnightblue" d="M897.839,-174.362C908.002,-165.941 922.401,-154.011 934.204,-144.231"/>
<polygon fill="midnightblue" stroke="midnightblue" points="936.775,-146.646 942.242,-137.571 932.309,-141.256 936.775,-146.646"/>
</g>
<!-- Node23 -->
<g id="node56" class="node"><title>Node23</title>
<polygon fill="white" stroke="#bfbfbf" points="1049,-116.5 1049,-137.5 1179,-137.5 1179,-116.5 1049,-116.5"/>
<text text-anchor="middle" x="1114" y="-124.5" font-family="Helvetica,sans-Serif" font-size="10.00">BannerMessageEvent.h</text>
</g>
<!-- Node14&#45;&gt;Node23 -->
<g id="edge66" class="edge"><title>Node14&#45;&gt;Node23</title>
<path fill="none" stroke="midnightblue" d="M926.47,-174.497C964.692,-164.816 1021.55,-150.416 1062.63,-140.01"/>
<polygon fill="midnightblue" stroke="midnightblue" points="1063.62,-143.371 1072.45,-137.523 1061.9,-136.585 1063.62,-143.371"/>
</g>
<!-- Node24 -->
<g id="node58" class="node"><title>Node24</title>
<polygon fill="white" stroke="#bfbfbf" points="1196.5,-116.5 1196.5,-137.5 1329.5,-137.5 1329.5,-116.5 1196.5,-116.5"/>
<text text-anchor="middle" x="1263" y="-124.5" font-family="Helvetica,sans-Serif" font-size="10.00">ActiveCallBannerEvent.h</text>
</g>
<!-- Node14&#45;&gt;Node24 -->
<g id="edge68" class="edge"><title>Node14&#45;&gt;Node24</title>
<path fill="none" stroke="midnightblue" d="M940.369,-176.504C1005.29,-166.542 1113.29,-149.971 1186.27,-138.774"/>
<polygon fill="midnightblue" stroke="midnightblue" points="1186.97,-142.207 1196.32,-137.231 1185.91,-135.288 1186.97,-142.207"/>
</g>
<!-- Node17&#45;&gt;Node2 -->
<g id="edge44" class="edge"><title>Node17&#45;&gt;Node2</title>
<path fill="none" stroke="midnightblue" d="M1384.63,-120.96C1369.83,-119.125 1353.22,-117.263 1338,-116 1161.54,-101.365 711.927,-129.784 542,-80 523.272,-74.5133 521.978,-65.5918 504,-58 492.521,-53.1525 426.099,-34.9325 380.564,-22.6542"/>
<polygon fill="midnightblue" stroke="midnightblue" points="381.19,-19.1981 370.624,-19.9787 379.371,-25.9576 381.19,-19.1981"/>
</g>
<!-- Node17&#45;&gt;Node3 -->
<g id="edge52" class="edge"><title>Node17&#45;&gt;Node3</title>
<path fill="none" stroke="midnightblue" d="M1432.58,-116.211C1435.7,-106.709 1440.29,-92.4799 1444,-80 1448.8,-63.8354 1453.85,-45.417 1457.54,-31.6777"/>
<polygon fill="midnightblue" stroke="midnightblue" points="1460.98,-32.3587 1460.17,-21.7947 1454.22,-30.5569 1460.98,-32.3587"/>
</g>
<!-- Node17&#45;&gt;Node6 -->
<g id="edge50" class="edge"><title>Node17&#45;&gt;Node6</title>
<path fill="none" stroke="midnightblue" d="M1395.1,-116.431C1365.82,-107.185 1322.45,-93.2059 1285,-80 1283.77,-79.5669 1282.52,-79.1174 1281.25,-78.6585"/>
<polygon fill="midnightblue" stroke="midnightblue" points="1282.2,-75.2759 1271.6,-75.0725 1279.76,-81.8373 1282.2,-75.2759"/>
</g>
<!-- Node17&#45;&gt;Node8 -->
<g id="edge46" class="edge"><title>Node17&#45;&gt;Node8</title>
<path fill="none" stroke="midnightblue" d="M1401.2,-116.344C1378.48,-107.373 1345.72,-93.824 1318,-80 1300.54,-71.2897 1298.52,-64.1578 1280,-58 1211.83,-35.3308 995.007,-18.7112 912.914,-13.084"/>
<polygon fill="midnightblue" stroke="midnightblue" points="912.91,-9.57587 902.696,-12.393 912.437,-16.5599 912.91,-9.57587"/>
</g>
<!-- Node17&#45;&gt;Node9 -->
<g id="edge56" class="edge"><title>Node17&#45;&gt;Node9</title>
<path fill="none" stroke="midnightblue" d="M1384.61,-121.187C1369.81,-119.367 1353.21,-117.456 1338,-116 1102.77,-93.4716 819.692,-76.9465 715.276,-71.2074"/>
<polygon fill="midnightblue" stroke="midnightblue" points="715.336,-67.7055 705.16,-70.6545 714.954,-74.6951 715.336,-67.7055"/>
</g>
<!-- Node17&#45;&gt;Node15 -->
<g id="edge54" class="edge"><title>Node17&#45;&gt;Node15</title>
<path fill="none" stroke="midnightblue" d="M1384.75,-117.422C1339.68,-107.67 1269.55,-92.4929 1219.83,-81.7327"/>
<polygon fill="midnightblue" stroke="midnightblue" points="1220.38,-78.2693 1209.86,-79.5749 1218.9,-85.111 1220.38,-78.2693"/>
</g>
<!-- Node18 -->
<g id="node42" class="node"><title>Node18</title>
<polygon fill="white" stroke="#bfbfbf" points="1398.5,-58.5 1398.5,-79.5 1435.5,-79.5 1435.5,-58.5 1398.5,-58.5"/>
<text text-anchor="middle" x="1417" y="-66.5" font-family="Helvetica,sans-Serif" font-size="10.00">map</text>
</g>
<!-- Node17&#45;&gt;Node18 -->
<g id="edge48" class="edge"><title>Node17&#45;&gt;Node18</title>
<path fill="none" stroke="midnightblue" d="M1426.8,-116.362C1425.24,-108.84 1423.11,-98.5187 1421.23,-89.4308"/>
<polygon fill="midnightblue" stroke="midnightblue" points="1424.64,-88.6541 1419.19,-79.5707 1417.79,-90.0724 1424.64,-88.6541"/>
</g>
<!-- Node19 -->
<g id="node48" class="node"><title>Node19</title>
<polygon fill="white" stroke="#bfbfbf" points="1326.5,-58.5 1326.5,-79.5 1381.5,-79.5 1381.5,-58.5 1326.5,-58.5"/>
<text text-anchor="middle" x="1354" y="-66.5" font-family="Helvetica,sans-Serif" font-size="10.00">QObject</text>
</g>
<!-- Node17&#45;&gt;Node19 -->
<g id="edge58" class="edge"><title>Node17&#45;&gt;Node19</title>
<path fill="none" stroke="midnightblue" d="M1415.24,-116.362C1404.25,-107.859 1388.63,-95.7785 1375.91,-85.9466"/>
<polygon fill="midnightblue" stroke="midnightblue" points="1377.72,-82.9195 1367.67,-79.5707 1373.44,-88.4569 1377.72,-82.9195"/>
</g>
<!-- Node25&#45;&gt;Node2 -->
<g id="edge74" class="edge"><title>Node25&#45;&gt;Node2</title>
<path fill="none" stroke="midnightblue" d="M291.392,-174.491C271.661,-167.391 249.503,-155.942 236,-138 214.453,-109.37 206.21,-87.8712 226,-58 240.984,-35.3836 269.257,-23.6204 293.518,-17.518"/>
<polygon fill="midnightblue" stroke="midnightblue" points="294.294,-20.9308 303.272,-15.3045 292.745,-14.1044 294.294,-20.9308"/>
</g>
<!-- Node25&#45;&gt;Node9 -->
<g id="edge76" class="edge"><title>Node25&#45;&gt;Node9</title>
<path fill="none" stroke="midnightblue" d="M345.183,-174.48C363.698,-159.086 400.626,-130.666 437,-116 516.646,-83.8866 545.215,-98.6789 632.808,-80.0783"/>
<polygon fill="midnightblue" stroke="midnightblue" points="633.614,-83.4846 642.623,-77.9082 632.103,-76.6496 633.614,-83.4846"/>
</g>
<!-- Node26 -->
<g id="node65" class="node"><title>Node26</title>
<a xlink:href="HostWindow_8h.htm" target="_top" xlink:title="HostWindow.h">
<polygon fill="white" stroke="black" points="245,-116.5 245,-137.5 329,-137.5 329,-116.5 245,-116.5"/>
<text text-anchor="middle" x="287" y="-124.5" font-family="Helvetica,sans-Serif" font-size="10.00">HostWindow.h</text>
</a>
</g>
<!-- Node25&#45;&gt;Node26 -->
<g id="edge78" class="edge"><title>Node25&#45;&gt;Node26</title>
<path fill="none" stroke="midnightblue" d="M324.563,-174.362C318.208,-166.35 309.334,-155.161 301.807,-145.67"/>
<polygon fill="midnightblue" stroke="midnightblue" points="304.34,-143.231 295.384,-137.571 298.855,-147.581 304.34,-143.231"/>
</g>
<!-- Node26&#45;&gt;Node2 -->
<g id="edge80" class="edge"><title>Node26&#45;&gt;Node2</title>
<path fill="none" stroke="midnightblue" d="M295.428,-116.367C302.341,-107.194 311.943,-93.3524 318,-80 325.048,-64.4647 330.001,-45.7463 333.079,-31.7275"/>
<polygon fill="midnightblue" stroke="midnightblue" points="336.567,-32.1426 335.15,-21.6429 329.71,-30.7345 336.567,-32.1426"/>
</g>
<!-- Node26&#45;&gt;Node9 -->
<g id="edge82" class="edge"><title>Node26&#45;&gt;Node9</title>
<path fill="none" stroke="midnightblue" d="M329.235,-123.119C393.016,-116.858 517.821,-103.047 632.641,-80.0785"/>
<polygon fill="midnightblue" stroke="midnightblue" points="633.549,-83.4656 642.653,-78.0469 632.157,-76.6055 633.549,-83.4656"/>
</g>
<!-- Node26&#45;&gt;Node15 -->
<g id="edge102" class="edge"><title>Node26&#45;&gt;Node15</title>
<path fill="none" stroke="midnightblue" d="M329.155,-124.203C468.151,-114.979 913.095,-85.4514 1088.72,-73.7966"/>
<polygon fill="midnightblue" stroke="midnightblue" points="1089.14,-77.2762 1098.89,-73.1216 1088.68,-70.2916 1089.14,-77.2762"/>
</g>
<!-- Node26&#45;&gt;Node26 -->
<g id="edge84" class="edge"><title>Node26&#45;&gt;Node26</title>
<path fill="none" stroke="midnightblue" d="M317.563,-137.524C333.083,-139.061 347,-135.553 347,-127 347,-120.385 338.675,-116.788 327.722,-116.208"/>
<polygon fill="midnightblue" stroke="midnightblue" points="327.467,-112.714 317.563,-116.476 327.652,-119.711 327.467,-112.714"/>
</g>
<!-- Node27 -->
<g id="node70" class="node"><title>Node27</title>
<a xlink:href="HostWindowData_8h.htm" target="_top" xlink:title="HostWindowData.h">
<polygon fill="white" stroke="black" points="34.5,-58.5 34.5,-79.5 141.5,-79.5 141.5,-58.5 34.5,-58.5"/>
<text text-anchor="middle" x="88" y="-66.5" font-family="Helvetica,sans-Serif" font-size="10.00">HostWindowData.h</text>
</a>
</g>
<!-- Node26&#45;&gt;Node27 -->
<g id="edge86" class="edge"><title>Node26&#45;&gt;Node27</title>
<path fill="none" stroke="midnightblue" d="M250.963,-116.497C218.099,-106.918 169.383,-92.7196 133.776,-82.3418"/>
<polygon fill="midnightblue" stroke="midnightblue" points="134.685,-78.9611 124.105,-79.5231 132.726,-85.6815 134.685,-78.9611"/>
</g>
<!-- Node30 -->
<g id="node77" class="node"><title>Node30</title>
<a xlink:href="InputClient_8h.htm" target="_top" xlink:title="InputClient.h">
<polygon fill="white" stroke="black" points="550.5,-58.5 550.5,-79.5 625.5,-79.5 625.5,-58.5 550.5,-58.5"/>
<text text-anchor="middle" x="588" y="-66.5" font-family="Helvetica,sans-Serif" font-size="10.00">InputClient.h</text>
</a>
</g>
<!-- Node26&#45;&gt;Node30 -->
<g id="edge94" class="edge"><title>Node26&#45;&gt;Node30</title>
<path fill="none" stroke="midnightblue" d="M329.17,-118.874C384.728,-108.169 482.185,-89.3896 540.35,-78.1817"/>
<polygon fill="midnightblue" stroke="midnightblue" points="541.228,-81.5771 550.385,-76.2481 539.903,-74.7035 541.228,-81.5771"/>
</g>
<!-- Node32 -->
<g id="node82" class="node"><title>Node32</title>
<polygon fill="white" stroke="#bfbfbf" points="235,-58.5 235,-79.5 309,-79.5 309,-58.5 235,-58.5"/>
<text text-anchor="middle" x="272" y="-66.5" font-family="Helvetica,sans-Serif" font-size="10.00">PIpcBuffer.h</text>
</g>
<!-- Node26&#45;&gt;Node32 -->
<g id="edge100" class="edge"><title>Node26&#45;&gt;Node32</title>
<path fill="none" stroke="midnightblue" d="M284.249,-116.362C282.303,-108.84 279.634,-98.5187 277.284,-89.4308"/>
<polygon fill="midnightblue" stroke="midnightblue" points="280.626,-88.3758 274.734,-79.5707 273.849,-90.1285 280.626,-88.3758"/>
</g>
<!-- Node27&#45;&gt;Node2 -->
<g id="edge88" class="edge"><title>Node27&#45;&gt;Node2</title>
<path fill="none" stroke="midnightblue" d="M133.092,-58.4966C178.694,-47.8744 248.691,-31.5699 293.657,-21.0959"/>
<polygon fill="midnightblue" stroke="midnightblue" points="294.463,-24.5019 303.409,-18.8245 292.875,-17.6844 294.463,-24.5019"/>
</g>
<!-- Node28 -->
<g id="node73" class="node"><title>Node28</title>
<polygon fill="white" stroke="#bfbfbf" points="103.5,-0.5 103.5,-21.5 162.5,-21.5 162.5,-0.5 103.5,-0.5"/>
<text text-anchor="middle" x="133" y="-8.5" font-family="Helvetica,sans-Serif" font-size="10.00">QPixmap</text>
</g>
<!-- Node27&#45;&gt;Node28 -->
<g id="edge90" class="edge"><title>Node27&#45;&gt;Node28</title>
<path fill="none" stroke="midnightblue" d="M96.2537,-58.3619C102.47,-50.3496 111.151,-39.1605 118.515,-29.6696"/>
<polygon fill="midnightblue" stroke="midnightblue" points="121.434,-31.617 124.799,-21.5707 115.903,-27.326 121.434,-31.617"/>
</g>
<!-- Node29 -->
<g id="node75" class="node"><title>Node29</title>
<polygon fill="white" stroke="#bfbfbf" points="0,-0.5 0,-21.5 86,-21.5 86,-0.5 0,-0.5"/>
<text text-anchor="middle" x="43" y="-8.5" font-family="Helvetica,sans-Serif" font-size="10.00">PIpcChannel.h</text>
</g>
<!-- Node27&#45;&gt;Node29 -->
<g id="edge92" class="edge"><title>Node27&#45;&gt;Node29</title>
<path fill="none" stroke="midnightblue" d="M79.7463,-58.3619C73.5299,-50.3496 64.8487,-39.1605 57.485,-29.6696"/>
<polygon fill="midnightblue" stroke="midnightblue" points="60.0967,-27.326 51.2014,-21.5707 54.5661,-31.617 60.0967,-27.326"/>
</g>
<!-- Node30&#45;&gt;Node8 -->
<g id="edge98" class="edge"><title>Node30&#45;&gt;Node8</title>
<path fill="none" stroke="midnightblue" d="M625.608,-59.7792C628.443,-59.1539 631.264,-58.5535 634,-58 726.734,-39.2441 754.682,-46.4293 849.497,-22.0711"/>
<polygon fill="midnightblue" stroke="midnightblue" points="850.409,-25.4503 859.196,-19.5307 848.636,-18.6787 850.409,-25.4503"/>
</g>
<!-- Node31 -->
<g id="node79" class="node"><title>Node31</title>
<polygon fill="white" stroke="#bfbfbf" points="388,-0.5 388,-21.5 486,-21.5 486,-0.5 388,-0.5"/>
<text text-anchor="middle" x="437" y="-8.5" font-family="Helvetica,sans-Serif" font-size="10.00">palmimedefines.h</text>
</g>
<!-- Node30&#45;&gt;Node31 -->
<g id="edge96" class="edge"><title>Node30&#45;&gt;Node31</title>
<path fill="none" stroke="midnightblue" d="M560.655,-58.4966C536.358,-49.1639 500.64,-35.4447 473.832,-25.1475"/>
<polygon fill="midnightblue" stroke="midnightblue" points="474.986,-21.8415 464.396,-21.5231 472.476,-28.376 474.986,-21.8415"/>
</g>
</g>
</svg>
