<?xml version="1.0" encoding="UTF-8" standalone="no"?>
<!DOCTYPE svg PUBLIC "-//W3C//DTD SVG 1.1//EN"
 "http://www.w3.org/Graphics/SVG/1.1/DTD/svg11.dtd">
<!-- Generated by graphviz version 2.26.3 (20100126.1600)
 -->
<!-- Title: picturebox.h Pages: 1 -->
<svg width="584pt" height="204pt"
 viewBox="0.00 0.00 584.00 204.00" xmlns="http://www.w3.org/2000/svg" xmlns:xlink="http://www.w3.org/1999/xlink">
<g id="graph1" class="graph" transform="scale(1 1) rotate(0) translate(4 200)">
<title>picturebox.h</title>
<polygon fill="white" stroke="white" points="-4,5 -4,-200 581,-200 581,5 -4,5"/>
<!-- Node1 -->
<g id="node1" class="node"><title>Node1</title>
<polygon fill="#bfbfbf" stroke="black" points="207.5,-174.5 207.5,-195.5 280.5,-195.5 280.5,-174.5 207.5,-174.5"/>
<text text-anchor="middle" x="244" y="-182.5" font-family="Helvetica,sans-Serif" font-size="10.00">picturebox.h</text>
</g>
<!-- Node2 -->
<g id="node3" class="node"><title>Node2</title>
<a xlink:href="thingpaintable_8h.htm" target="_top" xlink:title="thingpaintable.h">
<polygon fill="white" stroke="black" points="109.5,-116.5 109.5,-137.5 200.5,-137.5 200.5,-116.5 109.5,-116.5"/>
<text text-anchor="middle" x="155" y="-124.5" font-family="Helvetica,sans-Serif" font-size="10.00">thingpaintable.h</text>
</a>
</g>
<!-- Node1&#45;&gt;Node2 -->
<g id="edge2" class="edge"><title>Node1&#45;&gt;Node2</title>
<path fill="none" stroke="midnightblue" d="M227.676,-174.362C214.252,-165.614 195.017,-153.079 179.707,-143.101"/>
<polygon fill="midnightblue" stroke="midnightblue" points="181.509,-140.098 171.22,-137.571 177.688,-145.963 181.509,-140.098"/>
</g>
<!-- Node6 -->
<g id="node11" class="node"><title>Node6</title>
<polygon fill="white" stroke="#bfbfbf" points="517.5,-0.5 517.5,-21.5 576.5,-21.5 576.5,-0.5 517.5,-0.5"/>
<text text-anchor="middle" x="547" y="-8.5" font-family="Helvetica,sans-Serif" font-size="10.00">QPointer</text>
</g>
<!-- Node1&#45;&gt;Node6 -->
<g id="edge28" class="edge"><title>Node1&#45;&gt;Node6</title>
<path fill="none" stroke="midnightblue" d="M244.051,-174.224C244.7,-159.287 248.043,-132.292 263,-116 280.189,-97.2765 433.5,-46.9145 507.447,-23.4051"/>
<polygon fill="midnightblue" stroke="midnightblue" points="508.856,-26.6299 517.332,-20.2721 506.742,-19.957 508.856,-26.6299"/>
</g>
<!-- Node7 -->
<g id="node13" class="node"><title>Node7</title>
<polygon fill="white" stroke="#bfbfbf" points="-0.5,-0.5 -0.5,-21.5 52.5,-21.5 52.5,-0.5 -0.5,-0.5"/>
<text text-anchor="middle" x="26" y="-8.5" font-family="Helvetica,sans-Serif" font-size="10.00">QString</text>
</g>
<!-- Node1&#45;&gt;Node7 -->
<g id="edge26" class="edge"><title>Node1&#45;&gt;Node7</title>
<path fill="none" stroke="midnightblue" d="M207.39,-180.304C176.267,-174.721 131.849,-162.816 101,-138 65.4399,-109.394 43.0412,-59.061 32.714,-31.1202"/>
<polygon fill="midnightblue" stroke="midnightblue" points="35.9806,-29.8594 29.3448,-21.6 29.3816,-32.1948 35.9806,-29.8594"/>
</g>
<!-- Node12 -->
<g id="node27" class="node"><title>Node12</title>
<polygon fill="white" stroke="#bfbfbf" points="272,-116.5 272,-137.5 318,-137.5 318,-116.5 272,-116.5"/>
<text text-anchor="middle" x="295" y="-124.5" font-family="Helvetica,sans-Serif" font-size="10.00">QFont</text>
</g>
<!-- Node1&#45;&gt;Node12 -->
<g id="edge30" class="edge"><title>Node1&#45;&gt;Node12</title>
<path fill="none" stroke="midnightblue" d="M253.354,-174.362C260.543,-166.186 270.641,-154.702 279.093,-145.091"/>
<polygon fill="midnightblue" stroke="midnightblue" points="281.73,-147.392 285.705,-137.571 276.473,-142.769 281.73,-147.392"/>
</g>
<!-- Node13 -->
<g id="node29" class="node"><title>Node13</title>
<polygon fill="white" stroke="#bfbfbf" points="335.5,-116.5 335.5,-137.5 412.5,-137.5 412.5,-116.5 335.5,-116.5"/>
<text text-anchor="middle" x="374" y="-124.5" font-family="Helvetica,sans-Serif" font-size="10.00">QTextLayout</text>
</g>
<!-- Node1&#45;&gt;Node13 -->
<g id="edge32" class="edge"><title>Node1&#45;&gt;Node13</title>
<path fill="none" stroke="midnightblue" d="M267.542,-174.497C288.029,-165.356 317.947,-152.008 340.854,-141.788"/>
<polygon fill="midnightblue" stroke="midnightblue" points="342.488,-144.892 350.194,-137.621 339.635,-138.499 342.488,-144.892"/>
</g>
<!-- Node3 -->
<g id="node5" class="node"><title>Node3</title>
<a xlink:href="thing_8h.htm" target="_top" xlink:title="thing.h">
<polygon fill="white" stroke="black" points="168,-58.5 168,-79.5 216,-79.5 216,-58.5 168,-58.5"/>
<text text-anchor="middle" x="192" y="-66.5" font-family="Helvetica,sans-Serif" font-size="10.00">thing.h</text>
</a>
</g>
<!-- Node2&#45;&gt;Node3 -->
<g id="edge4" class="edge"><title>Node2&#45;&gt;Node3</title>
<path fill="none" stroke="midnightblue" d="M161.786,-116.362C166.793,-108.513 173.745,-97.6159 179.718,-88.2527"/>
<polygon fill="midnightblue" stroke="midnightblue" points="182.829,-89.8837 185.257,-79.5707 176.928,-86.1189 182.829,-89.8837"/>
</g>
<!-- Node2&#45;&gt;Node7 -->
<g id="edge22" class="edge"><title>Node2&#45;&gt;Node7</title>
<path fill="none" stroke="midnightblue" d="M143.095,-116.295C120.824,-96.2682 72.667,-52.9641 45.5606,-28.5893"/>
<polygon fill="midnightblue" stroke="midnightblue" points="47.6521,-25.7632 37.876,-21.6792 42.9716,-30.9682 47.6521,-25.7632"/>
</g>
<!-- Node9 -->
<g id="node17" class="node"><title>Node9</title>
<polygon fill="white" stroke="#bfbfbf" points="69.5,-0.5 69.5,-21.5 122.5,-21.5 122.5,-0.5 69.5,-0.5"/>
<text text-anchor="middle" x="96" y="-8.5" font-family="Helvetica,sans-Serif" font-size="10.00">QRectF</text>
</g>
<!-- Node2&#45;&gt;Node9 -->
<g id="edge24" class="edge"><title>Node2&#45;&gt;Node9</title>
<path fill="none" stroke="midnightblue" d="M149.555,-116.295C139.676,-96.8724 118.662,-55.5561 106.094,-30.8462"/>
<polygon fill="midnightblue" stroke="midnightblue" points="109.085,-29.0058 101.432,-21.6792 102.846,-32.1793 109.085,-29.0058"/>
</g>
<!-- Node4 -->
<g id="node7" class="node"><title>Node4</title>
<polygon fill="white" stroke="#bfbfbf" points="338,-0.5 338,-21.5 436,-21.5 436,-0.5 338,-0.5"/>
<text text-anchor="middle" x="387" y="-8.5" font-family="Helvetica,sans-Serif" font-size="10.00">QGraphicsObject</text>
</g>
<!-- Node3&#45;&gt;Node4 -->
<g id="edge6" class="edge"><title>Node3&#45;&gt;Node4</title>
<path fill="none" stroke="midnightblue" d="M216.303,-61.7715C247.512,-52.4888 302.301,-36.1926 341.389,-24.5665"/>
<polygon fill="midnightblue" stroke="midnightblue" points="342.876,-27.7756 351.463,-21.5699 340.881,-21.0661 342.876,-27.7756"/>
</g>
<!-- Node5 -->
<g id="node9" class="node"><title>Node5</title>
<polygon fill="white" stroke="#bfbfbf" points="454,-0.5 454,-21.5 500,-21.5 500,-0.5 454,-0.5"/>
<text text-anchor="middle" x="477" y="-8.5" font-family="Helvetica,sans-Serif" font-size="10.00">QUuid</text>
</g>
<!-- Node3&#45;&gt;Node5 -->
<g id="edge8" class="edge"><title>Node3&#45;&gt;Node5</title>
<path fill="none" stroke="midnightblue" d="M216.013,-61.5933C220.63,-60.2987 225.446,-59.0367 230,-58 321.332,-37.208 349.248,-45.2431 443.74,-22.0086"/>
<polygon fill="midnightblue" stroke="midnightblue" points="444.87,-25.3333 453.716,-19.5017 443.164,-18.5444 444.87,-25.3333"/>
</g>
<!-- Node3&#45;&gt;Node6 -->
<g id="edge10" class="edge"><title>Node3&#45;&gt;Node6</title>
<path fill="none" stroke="midnightblue" d="M216.391,-61.3417C220.887,-60.1012 225.562,-58.923 230,-58 349.181,-33.2138 384.727,-46.699 507.101,-22.1622"/>
<polygon fill="midnightblue" stroke="midnightblue" points="508.145,-25.5211 517.238,-20.0836 506.738,-18.6638 508.145,-25.5211"/>
</g>
<!-- Node3&#45;&gt;Node7 -->
<g id="edge12" class="edge"><title>Node3&#45;&gt;Node7</title>
<path fill="none" stroke="midnightblue" d="M167.862,-60.5663C140.074,-50.8571 94.1491,-34.8111 62.1049,-23.615"/>
<polygon fill="midnightblue" stroke="midnightblue" points="63.2361,-20.3028 52.6413,-20.3084 60.9272,-26.911 63.2361,-20.3028"/>
</g>
<!-- Node8 -->
<g id="node15" class="node"><title>Node8</title>
<polygon fill="white" stroke="#bfbfbf" points="139.5,-0.5 139.5,-21.5 180.5,-21.5 180.5,-0.5 139.5,-0.5"/>
<text text-anchor="middle" x="160" y="-8.5" font-family="Helvetica,sans-Serif" font-size="10.00">QList</text>
</g>
<!-- Node3&#45;&gt;Node8 -->
<g id="edge14" class="edge"><title>Node3&#45;&gt;Node8</title>
<path fill="none" stroke="midnightblue" d="M186.131,-58.3619C181.845,-50.5949 175.913,-39.8426 170.784,-30.5458"/>
<polygon fill="midnightblue" stroke="midnightblue" points="173.727,-28.6357 165.832,-21.5707 167.598,-32.0172 173.727,-28.6357"/>
</g>
<!-- Node3&#45;&gt;Node9 -->
<g id="edge16" class="edge"><title>Node3&#45;&gt;Node9</title>
<path fill="none" stroke="midnightblue" d="M174.392,-58.3619C159.777,-49.532 138.776,-36.844 122.189,-26.8224"/>
<polygon fill="midnightblue" stroke="midnightblue" points="123.865,-23.7461 113.496,-21.5707 120.246,-29.7376 123.865,-23.7461"/>
</g>
<!-- Node10 -->
<g id="node19" class="node"><title>Node10</title>
<polygon fill="white" stroke="#bfbfbf" points="197.5,-0.5 197.5,-21.5 252.5,-21.5 252.5,-0.5 197.5,-0.5"/>
<text text-anchor="middle" x="225" y="-8.5" font-family="Helvetica,sans-Serif" font-size="10.00">QDebug</text>
</g>
<!-- Node3&#45;&gt;Node10 -->
<g id="edge18" class="edge"><title>Node3&#45;&gt;Node10</title>
<path fill="none" stroke="midnightblue" d="M198.053,-58.3619C202.472,-50.5949 208.59,-39.8426 213.879,-30.5458"/>
<polygon fill="midnightblue" stroke="midnightblue" points="217.082,-31.9932 218.986,-21.5707 210.998,-28.5315 217.082,-31.9932"/>
</g>
<!-- Node11 -->
<g id="node21" class="node"><title>Node11</title>
<polygon fill="white" stroke="#bfbfbf" points="270,-0.5 270,-21.5 320,-21.5 320,-0.5 270,-0.5"/>
<text text-anchor="middle" x="295" y="-8.5" font-family="Helvetica,sans-Serif" font-size="10.00">QHash</text>
</g>
<!-- Node3&#45;&gt;Node11 -->
<g id="edge20" class="edge"><title>Node3&#45;&gt;Node11</title>
<path fill="none" stroke="midnightblue" d="M210.892,-58.3619C226.718,-49.4502 249.523,-36.6087 267.395,-26.5447"/>
<polygon fill="midnightblue" stroke="midnightblue" points="269.232,-29.5271 276.228,-21.5707 265.797,-23.4276 269.232,-29.5271"/>
</g>
</g>
</svg>
