<?xml version="1.0" encoding="UTF-8" standalone="no"?>
<!DOCTYPE svg PUBLIC "-//W3C//DTD SVG 1.1//EN"
 "http://www.w3.org/Graphics/SVG/1.1/DTD/svg11.dtd">
<!-- Generated by graphviz version 2.26.3 (20100126.1600)
 -->
<!-- Title: picturebox.h Pages: 1 -->
<svg width="224pt" height="88pt"
 viewBox="0.00 0.00 224.00 88.00" xmlns="http://www.w3.org/2000/svg" xmlns:xlink="http://www.w3.org/1999/xlink">
<g id="graph1" class="graph" transform="scale(1 1) rotate(0) translate(4 84)">
<title>picturebox.h</title>
<polygon fill="white" stroke="white" points="-4,5 -4,-84 221,-84 221,5 -4,5"/>
<!-- Node1 -->
<g id="node1" class="node"><title>Node1</title>
<polygon fill="#bfbfbf" stroke="black" points="78.5,-58.5 78.5,-79.5 151.5,-79.5 151.5,-58.5 78.5,-58.5"/>
<text text-anchor="middle" x="115" y="-66.5" font-family="Helvetica,sans-Serif" font-size="10.00">picturebox.h</text>
</g>
<!-- Node2 -->
<g id="node3" class="node"><title>Node2</title>
<a xlink:href="reorderablepage_8cpp.htm" target="_top" xlink:title="reorderablepage.cpp">
<polygon fill="white" stroke="black" points="-0.5,-0.5 -0.5,-21.5 114.5,-21.5 114.5,-0.5 -0.5,-0.5"/>
<text text-anchor="middle" x="57" y="-8.5" font-family="Helvetica,sans-Serif" font-size="10.00">reorderablepage.cpp</text>
</a>
</g>
<!-- Node1&#45;&gt;Node2 -->
<g id="edge2" class="edge"><title>Node1&#45;&gt;Node2</title>
<path fill="none" stroke="midnightblue" d="M97.118,-51.118C87.4377,-41.4377 75.8098,-29.8098 67.5707,-21.5707"/>
<polygon fill="midnightblue" stroke="midnightblue" points="94.8159,-53.7657 104.362,-58.3619 99.7657,-48.8159 94.8159,-53.7657"/>
</g>
<!-- Node3 -->
<g id="node5" class="node"><title>Node3</title>
<a xlink:href="picturebox_8cpp.htm" target="_top" xlink:title="picturebox.cpp">
<polygon fill="white" stroke="black" points="132,-0.5 132,-21.5 216,-21.5 216,-0.5 132,-0.5"/>
<text text-anchor="middle" x="174" y="-8.5" font-family="Helvetica,sans-Serif" font-size="10.00">picturebox.cpp</text>
</a>
</g>
<!-- Node1&#45;&gt;Node3 -->
<g id="edge4" class="edge"><title>Node1&#45;&gt;Node3</title>
<path fill="none" stroke="midnightblue" d="M133.19,-51.118C143.037,-41.4377 154.866,-29.8098 163.247,-21.5707"/>
<polygon fill="midnightblue" stroke="midnightblue" points="130.499,-48.8556 125.822,-58.3619 135.406,-53.8474 130.499,-48.8556"/>
</g>
</g>
</svg>
