<?xml version="1.0" encoding="UTF-8" standalone="no"?>
<!DOCTYPE svg PUBLIC "-//W3C//DTD SVG 1.1//EN"
 "http://www.w3.org/Graphics/SVG/1.1/DTD/svg11.dtd">
<!-- Generated by graphviz version 2.26.3 (20100126.1600)
 -->
<!-- Title: pixbuttonsimple.h Pages: 1 -->
<svg width="264pt" height="88pt"
 viewBox="0.00 0.00 264.00 88.00" xmlns="http://www.w3.org/2000/svg" xmlns:xlink="http://www.w3.org/1999/xlink">
<g id="graph1" class="graph" transform="scale(1 1) rotate(0) translate(4 84)">
<title>pixbuttonsimple.h</title>
<polygon fill="white" stroke="white" points="-4,5 -4,-84 261,-84 261,5 -4,5"/>
<!-- Node1 -->
<g id="node1" class="node"><title>Node1</title>
<polygon fill="#bfbfbf" stroke="black" points="84.5,-58.5 84.5,-79.5 181.5,-79.5 181.5,-58.5 84.5,-58.5"/>
<text text-anchor="middle" x="133" y="-66.5" font-family="Helvetica,sans-Serif" font-size="10.00">pixbuttonsimple.h</text>
</g>
<!-- Node2 -->
<g id="node3" class="node"><title>Node2</title>
<a xlink:href="dimensionslauncher_8cpp.htm" target="_top" xlink:title="dimensionslauncher.cpp">
<polygon fill="white" stroke="black" points="0,-0.5 0,-21.5 130,-21.5 130,-0.5 0,-0.5"/>
<text text-anchor="middle" x="65" y="-8.5" font-family="Helvetica,sans-Serif" font-size="10.00">dimensionslauncher.cpp</text>
</a>
</g>
<!-- Node1&#45;&gt;Node2 -->
<g id="edge2" class="edge"><title>Node1&#45;&gt;Node2</title>
<path fill="none" stroke="midnightblue" d="M112.706,-51.6908C101.227,-41.8996 87.2442,-29.973 77.3932,-21.5707"/>
<polygon fill="midnightblue" stroke="midnightblue" points="110.648,-54.5353 120.528,-58.3619 115.191,-49.2095 110.648,-54.5353"/>
</g>
<!-- Node3 -->
<g id="node5" class="node"><title>Node3</title>
<a xlink:href="pixbuttonsimple_8cpp.htm" target="_top" xlink:title="pixbuttonsimple.cpp">
<polygon fill="white" stroke="black" points="148,-0.5 148,-21.5 256,-21.5 256,-0.5 148,-0.5"/>
<text text-anchor="middle" x="202" y="-8.5" font-family="Helvetica,sans-Serif" font-size="10.00">pixbuttonsimple.cpp</text>
</a>
</g>
<!-- Node1&#45;&gt;Node3 -->
<g id="edge4" class="edge"><title>Node1&#45;&gt;Node3</title>
<path fill="none" stroke="midnightblue" d="M153.592,-51.6908C165.24,-41.8996 179.429,-29.973 189.425,-21.5707"/>
<polygon fill="midnightblue" stroke="midnightblue" points="151.058,-49.2481 145.656,-58.3619 155.563,-54.6066 151.058,-49.2481"/>
</g>
</g>
</svg>
