<?xml version="1.0" encoding="UTF-8" standalone="no"?>
<!DOCTYPE svg PUBLIC "-//W3C//DTD SVG 1.1//EN"
 "http://www.w3.org/Graphics/SVG/1.1/DTD/svg11.dtd">
<!-- Generated by graphviz version 2.26.3 (20100126.1600)
 -->
<!-- Title: pixbuttonsimple.cpp Pages: 1 -->
<svg width="1391pt" height="320pt"
 viewBox="0.00 0.00 1391.00 320.00" xmlns="http://www.w3.org/2000/svg" xmlns:xlink="http://www.w3.org/1999/xlink">
<g id="graph1" class="graph" transform="scale(1 1) rotate(0) translate(4 316)">
<title>pixbuttonsimple.cpp</title>
<polygon fill="white" stroke="white" points="-4,5 -4,-316 1388,-316 1388,5 -4,5"/>
<!-- Node1 -->
<g id="node1" class="node"><title>Node1</title>
<polygon fill="#bfbfbf" stroke="black" points="817,-290.5 817,-311.5 925,-311.5 925,-290.5 817,-290.5"/>
<text text-anchor="middle" x="871" y="-298.5" font-family="Helvetica,sans-Serif" font-size="10.00">pixbuttonsimple.cpp</text>
</g>
<!-- Node2 -->
<g id="node3" class="node"><title>Node2</title>
<a xlink:href="dimensionsglobal_8h.htm" target="_top" xlink:title="dimensionsglobal.h">
<polygon fill="white" stroke="black" points="321,-174.5 321,-195.5 427,-195.5 427,-174.5 321,-174.5"/>
<text text-anchor="middle" x="374" y="-182.5" font-family="Helvetica,sans-Serif" font-size="10.00">dimensionsglobal.h</text>
</a>
</g>
<!-- Node1&#45;&gt;Node2 -->
<g id="edge2" class="edge"><title>Node1&#45;&gt;Node2</title>
<path fill="none" stroke="midnightblue" d="M816.813,-299.127C746.383,-295.496 620.199,-284.884 517,-254 474.056,-241.148 427.968,-216.782 400.059,-200.715"/>
<polygon fill="midnightblue" stroke="midnightblue" points="401.722,-197.634 391.322,-195.614 398.193,-203.679 401.722,-197.634"/>
</g>
<!-- Node11 -->
<g id="node21" class="node"><title>Node11</title>
<a xlink:href="pixbuttonsimple_8h.htm" target="_top" xlink:title="pixbuttonsimple.h">
<polygon fill="white" stroke="black" points="822.5,-232.5 822.5,-253.5 919.5,-253.5 919.5,-232.5 822.5,-232.5"/>
<text text-anchor="middle" x="871" y="-240.5" font-family="Helvetica,sans-Serif" font-size="10.00">pixbuttonsimple.h</text>
</a>
</g>
<!-- Node1&#45;&gt;Node11 -->
<g id="edge20" class="edge"><title>Node1&#45;&gt;Node11</title>
<path fill="none" stroke="midnightblue" d="M871,-290.362C871,-282.922 871,-272.743 871,-263.728"/>
<polygon fill="midnightblue" stroke="midnightblue" points="874.5,-263.571 871,-253.571 867.5,-263.571 874.5,-263.571"/>
</g>
<!-- Node17 -->
<g id="node34" class="node"><title>Node17</title>
<polygon fill="white" stroke="#bfbfbf" points="911.5,-0.5 911.5,-21.5 964.5,-21.5 964.5,-0.5 911.5,-0.5"/>
<text text-anchor="middle" x="938" y="-8.5" font-family="Helvetica,sans-Serif" font-size="10.00">QString</text>
</g>
<!-- Node1&#45;&gt;Node17 -->
<g id="edge78" class="edge"><title>Node1&#45;&gt;Node17</title>
<path fill="none" stroke="midnightblue" d="M884.387,-290.26C902.377,-276.069 935.613,-250.686 966,-232 1043.89,-184.103 1101.35,-216.04 1149,-138 1192.64,-66.5247 1045.98,-30.0776 974.68,-16.8988"/>
<polygon fill="midnightblue" stroke="midnightblue" points="975.198,-13.436 964.738,-15.1219 973.966,-20.3268 975.198,-13.436"/>
</g>
<!-- Node19 -->
<g id="node39" class="node"><title>Node19</title>
<polygon fill="white" stroke="#bfbfbf" points="460.5,-0.5 460.5,-21.5 515.5,-21.5 515.5,-0.5 460.5,-0.5"/>
<text text-anchor="middle" x="488" y="-8.5" font-family="Helvetica,sans-Serif" font-size="10.00">QDebug</text>
</g>
<!-- Node1&#45;&gt;Node19 -->
<g id="edge80" class="edge"><title>Node1&#45;&gt;Node19</title>
<path fill="none" stroke="midnightblue" d="M816.757,-292.08C775.074,-284.374 716.453,-271.679 667,-254 612.349,-234.463 587.179,-240.567 550,-196 526.301,-167.591 538.56,-151.143 527,-116 517.176,-86.1333 504.204,-52.1095 495.98,-31.0931"/>
<polygon fill="midnightblue" stroke="midnightblue" points="499.177,-29.6594 492.256,-21.6376 492.664,-32.2246 499.177,-29.6594"/>
</g>
<!-- Node24 -->
<g id="node56" class="node"><title>Node24</title>
<a xlink:href="pixmapobject_8h.htm" target="_top" xlink:title="pixmapobject.h">
<polygon fill="white" stroke="black" points="96,-232.5 96,-253.5 182,-253.5 182,-232.5 96,-232.5"/>
<text text-anchor="middle" x="139" y="-240.5" font-family="Helvetica,sans-Serif" font-size="10.00">pixmapobject.h</text>
</a>
</g>
<!-- Node1&#45;&gt;Node24 -->
<g id="edge64" class="edge"><title>Node1&#45;&gt;Node24</title>
<path fill="none" stroke="midnightblue" d="M816.877,-296.712C681.166,-285.959 327.621,-257.945 192.538,-247.242"/>
<polygon fill="midnightblue" stroke="midnightblue" points="192.679,-243.742 182.433,-246.441 192.126,-250.72 192.679,-243.742"/>
</g>
<!-- Node28 -->
<g id="node65" class="node"><title>Node28</title>
<polygon fill="white" stroke="#bfbfbf" points="975,-232.5 975,-253.5 1131,-253.5 1131,-232.5 975,-232.5"/>
<text text-anchor="middle" x="1053" y="-240.5" font-family="Helvetica,sans-Serif" font-size="10.00">QGraphicsSceneMouseEvent</text>
</g>
<!-- Node1&#45;&gt;Node28 -->
<g id="edge74" class="edge"><title>Node1&#45;&gt;Node28</title>
<path fill="none" stroke="midnightblue" d="M903.959,-290.497C933.758,-281 977.809,-266.962 1010.3,-256.609"/>
<polygon fill="midnightblue" stroke="midnightblue" points="1011.51,-259.894 1019.98,-253.523 1009.39,-253.225 1011.51,-259.894"/>
</g>
<!-- Node29 -->
<g id="node67" class="node"><title>Node29</title>
<polygon fill="white" stroke="#bfbfbf" points="1148.5,-232.5 1148.5,-253.5 1207.5,-253.5 1207.5,-232.5 1148.5,-232.5"/>
<text text-anchor="middle" x="1178" y="-240.5" font-family="Helvetica,sans-Serif" font-size="10.00">QPainter</text>
</g>
<!-- Node1&#45;&gt;Node29 -->
<g id="edge76" class="edge"><title>Node1&#45;&gt;Node29</title>
<path fill="none" stroke="midnightblue" d="M925.192,-293.304C977.528,-285.474 1059.18,-272.216 1138.1,-254.282"/>
<polygon fill="midnightblue" stroke="midnightblue" points="1139.25,-257.609 1148.21,-251.956 1137.68,-250.788 1139.25,-257.609"/>
</g>
<!-- Node30 -->
<g id="node71" class="node"><title>Node30</title>
<polygon fill="white" stroke="#bfbfbf" points="1225,-232.5 1225,-253.5 1277,-253.5 1277,-232.5 1225,-232.5"/>
<text text-anchor="middle" x="1251" y="-240.5" font-family="Helvetica,sans-Serif" font-size="10.00">QEvent</text>
</g>
<!-- Node1&#45;&gt;Node30 -->
<g id="edge82" class="edge"><title>Node1&#45;&gt;Node30</title>
<path fill="none" stroke="midnightblue" d="M925.284,-296.467C991.603,-290.296 1107.26,-277.491 1214.72,-254.003"/>
<polygon fill="midnightblue" stroke="midnightblue" points="1215.75,-257.358 1224.76,-251.772 1214.24,-250.525 1215.75,-257.358"/>
</g>
<!-- Node31 -->
<g id="node73" class="node"><title>Node31</title>
<polygon fill="white" stroke="#bfbfbf" points="559,-174.5 559,-195.5 621,-195.5 621,-174.5 559,-174.5"/>
<text text-anchor="middle" x="590" y="-182.5" font-family="Helvetica,sans-Serif" font-size="10.00">QGesture</text>
</g>
<!-- Node1&#45;&gt;Node31 -->
<g id="edge84" class="edge"><title>Node1&#45;&gt;Node31</title>
<path fill="none" stroke="midnightblue" d="M826.453,-290.423C794.524,-282.181 750.83,-269.542 714,-254 678.174,-238.882 639.389,-216.177 614.912,-200.987"/>
<polygon fill="midnightblue" stroke="midnightblue" points="616.599,-197.913 606.267,-195.565 612.879,-203.844 616.599,-197.913"/>
</g>
<!-- Node32 -->
<g id="node75" class="node"><title>Node32</title>
<polygon fill="white" stroke="#bfbfbf" points="1294.5,-232.5 1294.5,-253.5 1383.5,-253.5 1383.5,-232.5 1294.5,-232.5"/>
<text text-anchor="middle" x="1339" y="-240.5" font-family="Helvetica,sans-Serif" font-size="10.00">QGestureEvent</text>
</g>
<!-- Node1&#45;&gt;Node32 -->
<g id="edge86" class="edge"><title>Node1&#45;&gt;Node32</title>
<path fill="none" stroke="midnightblue" d="M925.267,-296.457C1002.79,-289.613 1149.9,-275.319 1284.18,-254.191"/>
<polygon fill="midnightblue" stroke="midnightblue" points="1284.91,-257.62 1294.23,-252.593 1283.81,-250.706 1284.91,-257.62"/>
</g>
<!-- Node33 -->
<g id="node77" class="node"><title>Node33</title>
<a xlink:href="FlickGesture_8h.htm" target="_top" xlink:title="FlickGesture.h">
<polygon fill="white" stroke="black" points="722.5,-232.5 722.5,-253.5 805.5,-253.5 805.5,-232.5 722.5,-232.5"/>
<text text-anchor="middle" x="764" y="-240.5" font-family="Helvetica,sans-Serif" font-size="10.00">FlickGesture.h</text>
</a>
</g>
<!-- Node1&#45;&gt;Node33 -->
<g id="edge88" class="edge"><title>Node1&#45;&gt;Node33</title>
<path fill="none" stroke="midnightblue" d="M851.375,-290.362C834.859,-281.409 811.026,-268.491 792.422,-258.406"/>
<polygon fill="midnightblue" stroke="midnightblue" points="793.96,-255.259 783.501,-253.571 790.625,-261.413 793.96,-255.259"/>
</g>
<!-- Node3 -->
<g id="node5" class="node"><title>Node3</title>
<polygon fill="white" stroke="#bfbfbf" points="147.5,-116.5 147.5,-137.5 206.5,-137.5 206.5,-116.5 147.5,-116.5"/>
<text text-anchor="middle" x="177" y="-124.5" font-family="Helvetica,sans-Serif" font-size="10.00">qglobal.h</text>
</g>
<!-- Node2&#45;&gt;Node3 -->
<g id="edge4" class="edge"><title>Node2&#45;&gt;Node3</title>
<path fill="none" stroke="midnightblue" d="M338.325,-174.497C304.013,-164.395 252.245,-149.153 216.657,-138.676"/>
<polygon fill="midnightblue" stroke="midnightblue" points="217.204,-135.188 206.623,-135.721 215.227,-141.903 217.204,-135.188"/>
</g>
<!-- Node4 -->
<g id="node7" class="node"><title>Node4</title>
<polygon fill="white" stroke="#bfbfbf" points="224,-116.5 224,-137.5 278,-137.5 278,-116.5 224,-116.5"/>
<text text-anchor="middle" x="251" y="-124.5" font-family="Helvetica,sans-Serif" font-size="10.00">qmath.h</text>
</g>
<!-- Node2&#45;&gt;Node4 -->
<g id="edge6" class="edge"><title>Node2&#45;&gt;Node4</title>
<path fill="none" stroke="midnightblue" d="M351.726,-174.497C332.428,-165.397 304.287,-152.127 282.652,-141.925"/>
<polygon fill="midnightblue" stroke="midnightblue" points="284.062,-138.721 273.524,-137.621 281.076,-145.052 284.062,-138.721"/>
</g>
<!-- Node5 -->
<g id="node9" class="node"><title>Node5</title>
<polygon fill="white" stroke="#bfbfbf" points="782.5,-0.5 782.5,-21.5 835.5,-21.5 835.5,-0.5 782.5,-0.5"/>
<text text-anchor="middle" x="809" y="-8.5" font-family="Helvetica,sans-Serif" font-size="10.00">QRectF</text>
</g>
<!-- Node2&#45;&gt;Node5 -->
<g id="edge8" class="edge"><title>Node2&#45;&gt;Node5</title>
<path fill="none" stroke="midnightblue" d="M383.826,-174.375C398.849,-158.847 429.153,-130.258 461,-116 546.629,-77.663 579.787,-109.035 669,-80 710.489,-66.4971 755.171,-42.6835 782.617,-26.8712"/>
<polygon fill="midnightblue" stroke="midnightblue" points="784.702,-29.7069 791.573,-21.6419 781.172,-23.662 784.702,-29.7069"/>
</g>
<!-- Node6 -->
<g id="node11" class="node"><title>Node6</title>
<polygon fill="white" stroke="#bfbfbf" points="469.5,-116.5 469.5,-137.5 518.5,-137.5 518.5,-116.5 469.5,-116.5"/>
<text text-anchor="middle" x="494" y="-124.5" font-family="Helvetica,sans-Serif" font-size="10.00">QPoint</text>
</g>
<!-- Node2&#45;&gt;Node6 -->
<g id="edge10" class="edge"><title>Node2&#45;&gt;Node6</title>
<path fill="none" stroke="midnightblue" d="M395.731,-174.497C414.474,-165.438 441.767,-152.246 462.836,-142.063"/>
<polygon fill="midnightblue" stroke="midnightblue" points="464.545,-145.124 472.025,-137.621 461.498,-138.822 464.545,-145.124"/>
</g>
<!-- Node7 -->
<g id="node13" class="node"><title>Node7</title>
<polygon fill="white" stroke="#bfbfbf" points="611.5,-116.5 611.5,-137.5 666.5,-137.5 666.5,-116.5 611.5,-116.5"/>
<text text-anchor="middle" x="639" y="-124.5" font-family="Helvetica,sans-Serif" font-size="10.00">QPointF</text>
</g>
<!-- Node2&#45;&gt;Node7 -->
<g id="edge12" class="edge"><title>Node2&#45;&gt;Node7</title>
<path fill="none" stroke="midnightblue" d="M421.99,-174.497C473.542,-163.213 554.388,-145.519 601.484,-135.211"/>
<polygon fill="midnightblue" stroke="midnightblue" points="602.26,-138.624 611.28,-133.067 600.763,-131.786 602.26,-138.624"/>
</g>
<!-- Node8 -->
<g id="node15" class="node"><title>Node8</title>
<polygon fill="white" stroke="#bfbfbf" points="97,-0.5 97,-21.5 143,-21.5 143,-0.5 97,-0.5"/>
<text text-anchor="middle" x="120" y="-8.5" font-family="Helvetica,sans-Serif" font-size="10.00">QUuid</text>
</g>
<!-- Node2&#45;&gt;Node8 -->
<g id="edge14" class="edge"><title>Node2&#45;&gt;Node8</title>
<path fill="none" stroke="midnightblue" d="M320.785,-181.346C259.298,-175.97 163.424,-163.649 139,-138 111.84,-109.478 113.117,-59.8427 116.517,-31.8158"/>
<polygon fill="midnightblue" stroke="midnightblue" points="120.031,-31.9671 117.975,-21.5737 113.101,-30.9808 120.031,-31.9671"/>
</g>
<!-- Node9 -->
<g id="node17" class="node"><title>Node9</title>
<polygon fill="white" stroke="#bfbfbf" points="337,-0.5 337,-21.5 387,-21.5 387,-0.5 337,-0.5"/>
<text text-anchor="middle" x="362" y="-8.5" font-family="Helvetica,sans-Serif" font-size="10.00">QHash</text>
</g>
<!-- Node2&#45;&gt;Node9 -->
<g id="edge16" class="edge"><title>Node2&#45;&gt;Node9</title>
<path fill="none" stroke="midnightblue" d="M357.41,-174.5C345.924,-166.174 331.566,-153.397 325,-138 309.274,-101.125 332.198,-55.488 348.375,-30.1842"/>
<polygon fill="midnightblue" stroke="midnightblue" points="351.307,-32.0966 353.945,-21.8356 345.484,-28.2114 351.307,-32.0966"/>
</g>
<!-- Node10 -->
<g id="node19" class="node"><title>Node10</title>
<polygon fill="white" stroke="#bfbfbf" points="334,-116.5 334,-137.5 414,-137.5 414,-116.5 334,-116.5"/>
<text text-anchor="middle" x="374" y="-124.5" font-family="Helvetica,sans-Serif" font-size="10.00">QVariantMap</text>
</g>
<!-- Node2&#45;&gt;Node10 -->
<g id="edge18" class="edge"><title>Node2&#45;&gt;Node10</title>
<path fill="none" stroke="midnightblue" d="M374,-174.362C374,-166.922 374,-156.743 374,-147.728"/>
<polygon fill="midnightblue" stroke="midnightblue" points="377.5,-147.571 374,-137.571 370.5,-147.571 377.5,-147.571"/>
</g>
<!-- Node12 -->
<g id="node23" class="node"><title>Node12</title>
<a xlink:href="pixbutton_8h.htm" target="_top" xlink:title="pixbutton.h">
<polygon fill="white" stroke="black" points="898.5,-174.5 898.5,-195.5 965.5,-195.5 965.5,-174.5 898.5,-174.5"/>
<text text-anchor="middle" x="932" y="-182.5" font-family="Helvetica,sans-Serif" font-size="10.00">pixbutton.h</text>
</a>
</g>
<!-- Node11&#45;&gt;Node12 -->
<g id="edge22" class="edge"><title>Node11&#45;&gt;Node12</title>
<path fill="none" stroke="midnightblue" d="M882.188,-232.362C890.959,-224.023 903.349,-212.242 913.578,-202.516"/>
<polygon fill="midnightblue" stroke="midnightblue" points="916.047,-204.998 920.883,-195.571 911.224,-199.925 916.047,-204.998"/>
</g>
<!-- Node16 -->
<g id="node32" class="node"><title>Node16</title>
<polygon fill="white" stroke="#bfbfbf" points="532.5,-0.5 532.5,-21.5 591.5,-21.5 591.5,-0.5 532.5,-0.5"/>
<text text-anchor="middle" x="562" y="-8.5" font-family="Helvetica,sans-Serif" font-size="10.00">QPointer</text>
</g>
<!-- Node11&#45;&gt;Node16 -->
<g id="edge62" class="edge"><title>Node11&#45;&gt;Node16</title>
<path fill="none" stroke="midnightblue" d="M867.879,-232.348C862.726,-216.788 850.873,-188.157 830,-174 745.46,-116.663 680.606,-204.422 603,-138 571.61,-111.134 564.057,-60.0714 562.364,-31.5593"/>
<polygon fill="midnightblue" stroke="midnightblue" points="565.859,-31.3566 561.957,-21.5063 558.864,-31.6396 565.859,-31.3566"/>
</g>
<!-- Node12&#45;&gt;Node5 -->
<g id="edge48" class="edge"><title>Node12&#45;&gt;Node5</title>
<path fill="none" stroke="midnightblue" d="M919.571,-174.154C909.57,-165.072 895.503,-151.468 885,-138 857.519,-102.761 832.301,-56.7887 818.955,-30.9296"/>
<polygon fill="midnightblue" stroke="midnightblue" points="821.946,-29.0906 814.289,-21.7672 815.708,-32.2667 821.946,-29.0906"/>
</g>
<!-- Node12&#45;&gt;Node7 -->
<g id="edge56" class="edge"><title>Node12&#45;&gt;Node7</title>
<path fill="none" stroke="midnightblue" d="M898.421,-176.882C893.918,-175.87 889.353,-174.882 885,-174 795.271,-155.826 768.871,-159.595 676.562,-138.177"/>
<polygon fill="midnightblue" stroke="midnightblue" points="677.349,-134.767 666.813,-135.879 675.743,-141.58 677.349,-134.767"/>
</g>
<!-- Node13 -->
<g id="node25" class="node"><title>Node13</title>
<a xlink:href="thingpaintable_8h.htm" target="_top" xlink:title="thingpaintable.h">
<polygon fill="white" stroke="black" points="683.5,-116.5 683.5,-137.5 774.5,-137.5 774.5,-116.5 683.5,-116.5"/>
<text text-anchor="middle" x="729" y="-124.5" font-family="Helvetica,sans-Serif" font-size="10.00">thingpaintable.h</text>
</a>
</g>
<!-- Node12&#45;&gt;Node13 -->
<g id="edge24" class="edge"><title>Node12&#45;&gt;Node13</title>
<path fill="none" stroke="midnightblue" d="M898.479,-175.422C864.985,-165.853 813.214,-151.061 775.703,-140.344"/>
<polygon fill="midnightblue" stroke="midnightblue" points="776.589,-136.957 766.012,-137.575 774.666,-143.687 776.589,-136.957"/>
</g>
<!-- Node12&#45;&gt;Node17 -->
<g id="edge52" class="edge"><title>Node12&#45;&gt;Node17</title>
<path fill="none" stroke="midnightblue" d="M947.929,-174.346C958.954,-165.944 972.729,-153.139 979,-138 994.477,-100.634 969.784,-55.1759 952.506,-30.0353"/>
<polygon fill="midnightblue" stroke="midnightblue" points="955.235,-27.8341 946.565,-21.7449 949.545,-31.9119 955.235,-27.8341"/>
</g>
<!-- Node20 -->
<g id="node45" class="node"><title>Node20</title>
<polygon fill="white" stroke="#bfbfbf" points="1025.5,-116.5 1025.5,-137.5 1072.5,-137.5 1072.5,-116.5 1025.5,-116.5"/>
<text text-anchor="middle" x="1049" y="-124.5" font-family="Helvetica,sans-Serif" font-size="10.00">QRect</text>
</g>
<!-- Node12&#45;&gt;Node20 -->
<g id="edge50" class="edge"><title>Node12&#45;&gt;Node20</title>
<path fill="none" stroke="midnightblue" d="M953.188,-174.497C971.462,-165.438 998.072,-152.246 1018.61,-142.063"/>
<polygon fill="midnightblue" stroke="midnightblue" points="1020.17,-145.199 1027.57,-137.621 1017.06,-138.927 1020.17,-145.199"/>
</g>
<!-- Node21 -->
<g id="node48" class="node"><title>Node21</title>
<polygon fill="white" stroke="#bfbfbf" points="1090,-116.5 1090,-137.5 1140,-137.5 1140,-116.5 1090,-116.5"/>
<text text-anchor="middle" x="1115" y="-124.5" font-family="Helvetica,sans-Serif" font-size="10.00">QColor</text>
</g>
<!-- Node12&#45;&gt;Node21 -->
<g id="edge54" class="edge"><title>Node12&#45;&gt;Node21</title>
<path fill="none" stroke="midnightblue" d="M965.753,-174.431C993.961,-165.58 1035.49,-152.51 1080.18,-138.25"/>
<polygon fill="midnightblue" stroke="midnightblue" points="1081.29,-141.567 1089.76,-135.19 1079.16,-134.899 1081.29,-141.567"/>
</g>
<!-- Node22 -->
<g id="node51" class="node"><title>Node22</title>
<polygon fill="white" stroke="#bfbfbf" points="792,-116.5 792,-137.5 838,-137.5 838,-116.5 792,-116.5"/>
<text text-anchor="middle" x="815" y="-124.5" font-family="Helvetica,sans-Serif" font-size="10.00">QFont</text>
</g>
<!-- Node12&#45;&gt;Node22 -->
<g id="edge58" class="edge"><title>Node12&#45;&gt;Node22</title>
<path fill="none" stroke="midnightblue" d="M910.812,-174.497C892.538,-165.438 865.928,-152.246 845.385,-142.063"/>
<polygon fill="midnightblue" stroke="midnightblue" points="846.94,-138.927 836.426,-137.621 843.831,-145.199 846.94,-138.927"/>
</g>
<!-- Node23 -->
<g id="node53" class="node"><title>Node23</title>
<polygon fill="white" stroke="#bfbfbf" points="893.5,-116.5 893.5,-137.5 970.5,-137.5 970.5,-116.5 893.5,-116.5"/>
<text text-anchor="middle" x="932" y="-124.5" font-family="Helvetica,sans-Serif" font-size="10.00">QTextLayout</text>
</g>
<!-- Node12&#45;&gt;Node23 -->
<g id="edge60" class="edge"><title>Node12&#45;&gt;Node23</title>
<path fill="none" stroke="midnightblue" d="M932,-174.362C932,-166.922 932,-156.743 932,-147.728"/>
<polygon fill="midnightblue" stroke="midnightblue" points="935.5,-147.571 932,-137.571 928.5,-147.571 935.5,-147.571"/>
</g>
<!-- Node13&#45;&gt;Node5 -->
<g id="edge46" class="edge"><title>Node13&#45;&gt;Node5</title>
<path fill="none" stroke="midnightblue" d="M736.383,-116.295C749.897,-96.6998 778.779,-54.8198 795.765,-30.1913"/>
<polygon fill="midnightblue" stroke="midnightblue" points="798.839,-31.8984 801.635,-21.6792 793.076,-27.9243 798.839,-31.8984"/>
</g>
<!-- Node14 -->
<g id="node27" class="node"><title>Node14</title>
<a xlink:href="thing_8h.htm" target="_top" xlink:title="thing.h">
<polygon fill="white" stroke="black" points="612,-58.5 612,-79.5 660,-79.5 660,-58.5 612,-58.5"/>
<text text-anchor="middle" x="636" y="-66.5" font-family="Helvetica,sans-Serif" font-size="10.00">thing.h</text>
</a>
</g>
<!-- Node13&#45;&gt;Node14 -->
<g id="edge26" class="edge"><title>Node13&#45;&gt;Node14</title>
<path fill="none" stroke="midnightblue" d="M711.942,-116.362C697.915,-107.614 677.816,-95.0786 661.818,-85.1015"/>
<polygon fill="midnightblue" stroke="midnightblue" points="663.287,-81.8927 652.949,-79.5707 659.582,-87.8323 663.287,-81.8927"/>
</g>
<!-- Node13&#45;&gt;Node17 -->
<g id="edge44" class="edge"><title>Node13&#45;&gt;Node17</title>
<path fill="none" stroke="midnightblue" d="M748.288,-116.295C785.475,-95.6548 867.211,-50.2898 910.246,-26.4043"/>
<polygon fill="midnightblue" stroke="midnightblue" points="912.016,-29.4248 919.061,-21.5117 908.619,-23.3043 912.016,-29.4248"/>
</g>
<!-- Node14&#45;&gt;Node5 -->
<g id="edge38" class="edge"><title>Node14&#45;&gt;Node5</title>
<path fill="none" stroke="midnightblue" d="M660.055,-60.9353C689.293,-51.1331 738.911,-34.4981 772.778,-23.1437"/>
<polygon fill="midnightblue" stroke="midnightblue" points="773.944,-26.4445 782.312,-19.9473 771.719,-19.8076 773.944,-26.4445"/>
</g>
<!-- Node14&#45;&gt;Node8 -->
<g id="edge30" class="edge"><title>Node14&#45;&gt;Node8</title>
<path fill="none" stroke="midnightblue" d="M611.804,-66.2803C527.975,-56.8577 249.827,-25.5929 153.322,-14.7455"/>
<polygon fill="midnightblue" stroke="midnightblue" points="153.583,-11.2529 143.255,-13.6139 152.801,-18.2091 153.583,-11.2529"/>
</g>
<!-- Node14&#45;&gt;Node9 -->
<g id="edge42" class="edge"><title>Node14&#45;&gt;Node9</title>
<path fill="none" stroke="midnightblue" d="M611.684,-63.8529C562.981,-53.5435 453.318,-30.3301 396.933,-18.3946"/>
<polygon fill="midnightblue" stroke="midnightblue" points="397.56,-14.9497 387.052,-16.3029 396.11,-21.798 397.56,-14.9497"/>
</g>
<!-- Node15 -->
<g id="node29" class="node"><title>Node15</title>
<polygon fill="white" stroke="#bfbfbf" points="609,-0.5 609,-21.5 707,-21.5 707,-0.5 609,-0.5"/>
<text text-anchor="middle" x="658" y="-8.5" font-family="Helvetica,sans-Serif" font-size="10.00">QGraphicsObject</text>
</g>
<!-- Node14&#45;&gt;Node15 -->
<g id="edge28" class="edge"><title>Node14&#45;&gt;Node15</title>
<path fill="none" stroke="midnightblue" d="M640.035,-58.3619C642.919,-50.7584 646.888,-40.294 650.363,-31.1349"/>
<polygon fill="midnightblue" stroke="midnightblue" points="653.716,-32.1619 653.99,-21.5707 647.171,-29.6793 653.716,-32.1619"/>
</g>
<!-- Node14&#45;&gt;Node16 -->
<g id="edge32" class="edge"><title>Node14&#45;&gt;Node16</title>
<path fill="none" stroke="midnightblue" d="M622.427,-58.3619C611.579,-49.859 596.166,-37.7785 583.621,-27.9466"/>
<polygon fill="midnightblue" stroke="midnightblue" points="585.516,-24.9848 575.487,-21.5707 581.198,-30.4942 585.516,-24.9848"/>
</g>
<!-- Node14&#45;&gt;Node17 -->
<g id="edge34" class="edge"><title>Node14&#45;&gt;Node17</title>
<path fill="none" stroke="midnightblue" d="M660.203,-64.3517C712.973,-54.2171 838.654,-30.0798 901.257,-18.0567"/>
<polygon fill="midnightblue" stroke="midnightblue" points="901.942,-21.4892 911.102,-16.1658 900.621,-14.6148 901.942,-21.4892"/>
</g>
<!-- Node18 -->
<g id="node36" class="node"><title>Node18</title>
<polygon fill="white" stroke="#bfbfbf" points="724.5,-0.5 724.5,-21.5 765.5,-21.5 765.5,-0.5 724.5,-0.5"/>
<text text-anchor="middle" x="745" y="-8.5" font-family="Helvetica,sans-Serif" font-size="10.00">QList</text>
</g>
<!-- Node14&#45;&gt;Node18 -->
<g id="edge36" class="edge"><title>Node14&#45;&gt;Node18</title>
<path fill="none" stroke="midnightblue" d="M655.739,-58.4966C672.61,-49.5194 697.109,-36.4835 716.174,-26.3387"/>
<polygon fill="midnightblue" stroke="midnightblue" points="717.856,-29.4086 725.039,-21.6212 714.567,-23.2289 717.856,-29.4086"/>
</g>
<!-- Node14&#45;&gt;Node19 -->
<g id="edge40" class="edge"><title>Node14&#45;&gt;Node19</title>
<path fill="none" stroke="midnightblue" d="M611.892,-59.5522C588.183,-50.2609 551.684,-35.9574 524.435,-25.2785"/>
<polygon fill="midnightblue" stroke="midnightblue" points="525.442,-21.9142 514.855,-21.5241 522.888,-28.4316 525.442,-21.9142"/>
</g>
<!-- Node24&#45;&gt;Node8 -->
<g id="edge70" class="edge"><title>Node24&#45;&gt;Node8</title>
<path fill="none" stroke="midnightblue" d="M126.811,-232.424C117.75,-223.699 106.108,-210.443 101,-196 80.8038,-138.898 100.409,-66.1423 112.329,-31.3372"/>
<polygon fill="midnightblue" stroke="midnightblue" points="115.663,-32.4079 115.729,-21.8133 109.07,-30.0544 115.663,-32.4079"/>
</g>
<!-- Node25 -->
<g id="node58" class="node"><title>Node25</title>
<polygon fill="white" stroke="#bfbfbf" points="-0.5,-174.5 -0.5,-195.5 54.5,-195.5 54.5,-174.5 -0.5,-174.5"/>
<text text-anchor="middle" x="27" y="-182.5" font-family="Helvetica,sans-Serif" font-size="10.00">QObject</text>
</g>
<!-- Node24&#45;&gt;Node25 -->
<g id="edge66" class="edge"><title>Node24&#45;&gt;Node25</title>
<path fill="none" stroke="midnightblue" d="M118.718,-232.497C101.382,-223.519 76.2096,-210.484 56.6196,-200.339"/>
<polygon fill="midnightblue" stroke="midnightblue" points="57.9994,-197.112 47.5099,-195.621 54.7804,-203.328 57.9994,-197.112"/>
</g>
<!-- Node26 -->
<g id="node60" class="node"><title>Node26</title>
<polygon fill="white" stroke="#bfbfbf" points="109.5,-174.5 109.5,-195.5 168.5,-195.5 168.5,-174.5 109.5,-174.5"/>
<text text-anchor="middle" x="139" y="-182.5" font-family="Helvetica,sans-Serif" font-size="10.00">QPixmap</text>
</g>
<!-- Node24&#45;&gt;Node26 -->
<g id="edge68" class="edge"><title>Node24&#45;&gt;Node26</title>
<path fill="none" stroke="midnightblue" d="M139,-232.362C139,-224.922 139,-214.743 139,-205.728"/>
<polygon fill="midnightblue" stroke="midnightblue" points="142.5,-205.571 139,-195.571 135.5,-205.571 142.5,-205.571"/>
</g>
<!-- Node27 -->
<g id="node63" class="node"><title>Node27</title>
<polygon fill="white" stroke="#bfbfbf" points="185.5,-174.5 185.5,-195.5 230.5,-195.5 230.5,-174.5 185.5,-174.5"/>
<text text-anchor="middle" x="208" y="-182.5" font-family="Helvetica,sans-Serif" font-size="10.00">QSize</text>
</g>
<!-- Node24&#45;&gt;Node27 -->
<g id="edge72" class="edge"><title>Node24&#45;&gt;Node27</title>
<path fill="none" stroke="midnightblue" d="M151.656,-232.362C161.674,-223.941 175.867,-212.011 187.501,-202.231"/>
<polygon fill="midnightblue" stroke="midnightblue" points="190.022,-204.684 195.425,-195.571 185.518,-199.326 190.022,-204.684"/>
</g>
<!-- Node33&#45;&gt;Node6 -->
<g id="edge94" class="edge"><title>Node33&#45;&gt;Node6</title>
<path fill="none" stroke="midnightblue" d="M781.283,-232.293C801.681,-218.355 830.827,-193.479 814,-174 813.416,-173.323 610.988,-143.942 528.435,-131.984"/>
<polygon fill="midnightblue" stroke="midnightblue" points="528.924,-128.518 518.526,-130.549 527.921,-135.446 528.924,-128.518"/>
</g>
<!-- Node33&#45;&gt;Node31 -->
<g id="edge92" class="edge"><title>Node33&#45;&gt;Node31</title>
<path fill="none" stroke="midnightblue" d="M732.49,-232.497C704.035,-223.012 661.988,-208.996 630.939,-198.646"/>
<polygon fill="midnightblue" stroke="midnightblue" points="631.869,-195.267 621.276,-195.425 629.656,-201.908 631.869,-195.267"/>
</g>
<!-- Node34 -->
<g id="node79" class="node"><title>Node34</title>
<polygon fill="white" stroke="#bfbfbf" points="638.5,-174.5 638.5,-195.5 705.5,-195.5 705.5,-174.5 638.5,-174.5"/>
<text text-anchor="middle" x="672" y="-182.5" font-family="Helvetica,sans-Serif" font-size="10.00">Common.h</text>
</g>
<!-- Node33&#45;&gt;Node34 -->
<g id="edge90" class="edge"><title>Node33&#45;&gt;Node34</title>
<path fill="none" stroke="midnightblue" d="M747.126,-232.362C733.249,-223.614 713.366,-211.079 697.54,-201.101"/>
<polygon fill="midnightblue" stroke="midnightblue" points="699.093,-197.943 688.767,-195.571 695.36,-203.864 699.093,-197.943"/>
</g>
<!-- Node35 -->
<g id="node83" class="node"><title>Node35</title>
<polygon fill="white" stroke="#bfbfbf" points="722.5,-174.5 722.5,-195.5 805.5,-195.5 805.5,-174.5 722.5,-174.5"/>
<text text-anchor="middle" x="764" y="-182.5" font-family="Helvetica,sans-Serif" font-size="10.00">SysMgrDefs.h</text>
</g>
<!-- Node33&#45;&gt;Node35 -->
<g id="edge96" class="edge"><title>Node33&#45;&gt;Node35</title>
<path fill="none" stroke="midnightblue" d="M764,-232.362C764,-224.922 764,-214.743 764,-205.728"/>
<polygon fill="midnightblue" stroke="midnightblue" points="767.5,-205.571 764,-195.571 760.5,-205.571 767.5,-205.571"/>
</g>
</g>
</svg>
