<?xml version="1.0" encoding="UTF-8" standalone="no"?>
<!DOCTYPE svg PUBLIC "-//W3C//DTD SVG 1.1//EN"
 "http://www.w3.org/Graphics/SVG/1.1/DTD/svg11.dtd">
<!-- Generated by graphviz version 2.26.3 (20100126.1600)
 -->
<!-- Title: pixbutton.cpp Pages: 1 -->
<svg width="2241pt" height="262pt"
 viewBox="0.00 0.00 2241.00 262.00" xmlns="http://www.w3.org/2000/svg" xmlns:xlink="http://www.w3.org/1999/xlink">
<g id="graph1" class="graph" transform="scale(1 1) rotate(0) translate(4 258)">
<title>pixbutton.cpp</title>
<polygon fill="white" stroke="white" points="-4,5 -4,-258 2238,-258 2238,5 -4,5"/>
<!-- Node1 -->
<g id="node1" class="node"><title>Node1</title>
<polygon fill="#bfbfbf" stroke="black" points="1512,-232.5 1512,-253.5 1590,-253.5 1590,-232.5 1512,-232.5"/>
<text text-anchor="middle" x="1551" y="-240.5" font-family="Helvetica,sans-Serif" font-size="10.00">pixbutton.cpp</text>
</g>
<!-- Node2 -->
<g id="node3" class="node"><title>Node2</title>
<a xlink:href="dimensionsglobal_8h.htm" target="_top" xlink:title="dimensionsglobal.h">
<polygon fill="white" stroke="black" points="241,-174.5 241,-195.5 347,-195.5 347,-174.5 241,-174.5"/>
<text text-anchor="middle" x="294" y="-182.5" font-family="Helvetica,sans-Serif" font-size="10.00">dimensionsglobal.h</text>
</a>
</g>
<!-- Node1&#45;&gt;Node2 -->
<g id="edge2" class="edge"><title>Node1&#45;&gt;Node2</title>
<path fill="none" stroke="midnightblue" d="M1511.99,-241.287C1375.2,-235.266 904.537,-214.448 516,-196 462.539,-193.462 401.843,-190.445 357.444,-188.213"/>
<polygon fill="midnightblue" stroke="midnightblue" points="357.54,-184.714 347.377,-187.707 357.188,-191.705 357.54,-184.714"/>
</g>
<!-- Node11 -->
<g id="node21" class="node"><title>Node11</title>
<a xlink:href="pixbutton_8h.htm" target="_top" xlink:title="pixbutton.h">
<polygon fill="white" stroke="black" points="878.5,-174.5 878.5,-195.5 945.5,-195.5 945.5,-174.5 878.5,-174.5"/>
<text text-anchor="middle" x="912" y="-182.5" font-family="Helvetica,sans-Serif" font-size="10.00">pixbutton.h</text>
</a>
</g>
<!-- Node1&#45;&gt;Node11 -->
<g id="edge20" class="edge"><title>Node1&#45;&gt;Node11</title>
<path fill="none" stroke="midnightblue" d="M1511.99,-239.459C1399.41,-229.241 1074.48,-199.747 955.942,-188.988"/>
<polygon fill="midnightblue" stroke="midnightblue" points="956.06,-185.485 945.785,-188.067 955.428,-192.456 956.06,-185.485"/>
</g>
<!-- Node16 -->
<g id="node32" class="node"><title>Node16</title>
<polygon fill="white" stroke="#bfbfbf" points="1095.5,-0.5 1095.5,-21.5 1148.5,-21.5 1148.5,-0.5 1095.5,-0.5"/>
<text text-anchor="middle" x="1122" y="-8.5" font-family="Helvetica,sans-Serif" font-size="10.00">QString</text>
</g>
<!-- Node1&#45;&gt;Node16 -->
<g id="edge96" class="edge"><title>Node1&#45;&gt;Node16</title>
<path fill="none" stroke="midnightblue" d="M1511.69,-240.395C1416.46,-233.805 1179.01,-215.594 1149,-196 1095.97,-161.374 1108.09,-72.0662 1116.86,-31.542"/>
<polygon fill="midnightblue" stroke="midnightblue" points="1120.29,-32.2369 1119.13,-21.7056 1113.47,-30.6607 1120.29,-32.2369"/>
</g>
<!-- Node18 -->
<g id="node37" class="node"><title>Node18</title>
<polygon fill="white" stroke="#bfbfbf" points="1540.5,-0.5 1540.5,-21.5 1595.5,-21.5 1595.5,-0.5 1540.5,-0.5"/>
<text text-anchor="middle" x="1568" y="-8.5" font-family="Helvetica,sans-Serif" font-size="10.00">QDebug</text>
</g>
<!-- Node1&#45;&gt;Node18 -->
<g id="edge98" class="edge"><title>Node1&#45;&gt;Node18</title>
<path fill="none" stroke="midnightblue" d="M1563.2,-232.472C1583.76,-214.955 1624.75,-181.045 1642,-174 1700.69,-150.036 1883.1,-185.572 1925,-138 2016.74,-33.854 1714.8,-15.1105 1605.76,-11.739"/>
<polygon fill="midnightblue" stroke="midnightblue" points="1605.62,-8.23384 1595.53,-11.4507 1605.43,-15.2311 1605.62,-8.23384"/>
</g>
<!-- Node23 -->
<g id="node53" class="node"><title>Node23</title>
<a xlink:href="pixmapobject_8h.htm" target="_top" xlink:title="pixmapobject.h">
<polygon fill="white" stroke="black" points="525,-174.5 525,-195.5 611,-195.5 611,-174.5 525,-174.5"/>
<text text-anchor="middle" x="568" y="-182.5" font-family="Helvetica,sans-Serif" font-size="10.00">pixmapobject.h</text>
</a>
</g>
<!-- Node1&#45;&gt;Node23 -->
<g id="edge60" class="edge"><title>Node1&#45;&gt;Node23</title>
<path fill="none" stroke="midnightblue" d="M1511.86,-240.691C1358.34,-231.632 797.105,-198.518 621.139,-188.135"/>
<polygon fill="midnightblue" stroke="midnightblue" points="621.277,-184.637 611.088,-187.542 620.864,-191.625 621.277,-184.637"/>
</g>
<!-- Node27 -->
<g id="node62" class="node"><title>Node27</title>
<a xlink:href="layoutsettings_8h.htm" target="_top" xlink:title="layoutsettings.h">
<polygon fill="white" stroke="black" points="1506.5,-174.5 1506.5,-195.5 1595.5,-195.5 1595.5,-174.5 1506.5,-174.5"/>
<text text-anchor="middle" x="1551" y="-182.5" font-family="Helvetica,sans-Serif" font-size="10.00">layoutsettings.h</text>
</a>
</g>
<!-- Node1&#45;&gt;Node27 -->
<g id="edge70" class="edge"><title>Node1&#45;&gt;Node27</title>
<path fill="none" stroke="midnightblue" d="M1551,-232.362C1551,-224.922 1551,-214.743 1551,-205.728"/>
<polygon fill="midnightblue" stroke="midnightblue" points="1554.5,-205.571 1551,-195.571 1547.5,-205.571 1554.5,-205.571"/>
</g>
<!-- Node35 -->
<g id="node81" class="node"><title>Node35</title>
<polygon fill="white" stroke="#bfbfbf" points="1651,-174.5 1651,-195.5 1807,-195.5 1807,-174.5 1651,-174.5"/>
<text text-anchor="middle" x="1729" y="-182.5" font-family="Helvetica,sans-Serif" font-size="10.00">QGraphicsSceneMouseEvent</text>
</g>
<!-- Node1&#45;&gt;Node35 -->
<g id="edge92" class="edge"><title>Node1&#45;&gt;Node35</title>
<path fill="none" stroke="midnightblue" d="M1583.23,-232.497C1612.25,-223.041 1655.09,-209.083 1686.82,-198.743"/>
<polygon fill="midnightblue" stroke="midnightblue" points="1688.28,-201.949 1696.71,-195.523 1686.11,-195.293 1688.28,-201.949"/>
</g>
<!-- Node36 -->
<g id="node83" class="node"><title>Node36</title>
<polygon fill="white" stroke="#bfbfbf" points="1824.5,-174.5 1824.5,-195.5 1883.5,-195.5 1883.5,-174.5 1824.5,-174.5"/>
<text text-anchor="middle" x="1854" y="-182.5" font-family="Helvetica,sans-Serif" font-size="10.00">QPainter</text>
</g>
<!-- Node1&#45;&gt;Node36 -->
<g id="edge94" class="edge"><title>Node1&#45;&gt;Node36</title>
<path fill="none" stroke="midnightblue" d="M1590.33,-237.362C1640.38,-229.893 1729.65,-215.593 1814.43,-196.212"/>
<polygon fill="midnightblue" stroke="midnightblue" points="1815.25,-199.613 1824.21,-193.948 1813.68,-192.793 1815.25,-199.613"/>
</g>
<!-- Node37 -->
<g id="node87" class="node"><title>Node37</title>
<polygon fill="white" stroke="#bfbfbf" points="1900.5,-174.5 1900.5,-195.5 1977.5,-195.5 1977.5,-174.5 1900.5,-174.5"/>
<text text-anchor="middle" x="1939" y="-182.5" font-family="Helvetica,sans-Serif" font-size="10.00">QTextOption</text>
</g>
<!-- Node1&#45;&gt;Node37 -->
<g id="edge100" class="edge"><title>Node1&#45;&gt;Node37</title>
<path fill="none" stroke="midnightblue" d="M1590.06,-238.813C1651.82,-231.932 1776.01,-217.042 1890.36,-196.189"/>
<polygon fill="midnightblue" stroke="midnightblue" points="1891.13,-199.606 1900.33,-194.35 1889.86,-192.722 1891.13,-199.606"/>
</g>
<!-- Node38 -->
<g id="node89" class="node"><title>Node38</title>
<polygon fill="white" stroke="#bfbfbf" points="1995,-174.5 1995,-195.5 2047,-195.5 2047,-174.5 1995,-174.5"/>
<text text-anchor="middle" x="2021" y="-182.5" font-family="Helvetica,sans-Serif" font-size="10.00">QEvent</text>
</g>
<!-- Node1&#45;&gt;Node38 -->
<g id="edge102" class="edge"><title>Node1&#45;&gt;Node38</title>
<path fill="none" stroke="midnightblue" d="M1590.1,-241.356C1665.12,-237.648 1834.46,-226.602 1984.89,-195.903"/>
<polygon fill="midnightblue" stroke="midnightblue" points="1985.69,-199.311 1994.77,-193.852 1984.27,-192.457 1985.69,-199.311"/>
</g>
<!-- Node39 -->
<g id="node91" class="node"><title>Node39</title>
<polygon fill="white" stroke="#bfbfbf" points="1124,-116.5 1124,-137.5 1186,-137.5 1186,-116.5 1124,-116.5"/>
<text text-anchor="middle" x="1155" y="-124.5" font-family="Helvetica,sans-Serif" font-size="10.00">QGesture</text>
</g>
<!-- Node1&#45;&gt;Node39 -->
<g id="edge104" class="edge"><title>Node1&#45;&gt;Node39</title>
<path fill="none" stroke="midnightblue" d="M1511.71,-240.89C1418.42,-235.508 1189.53,-219.978 1165,-196 1152.46,-183.745 1150.91,-163.269 1151.93,-147.798"/>
<polygon fill="midnightblue" stroke="midnightblue" points="1155.43,-147.918 1153,-137.606 1148.47,-147.185 1155.43,-147.918"/>
</g>
<!-- Node40 -->
<g id="node93" class="node"><title>Node40</title>
<polygon fill="white" stroke="#bfbfbf" points="2064.5,-174.5 2064.5,-195.5 2153.5,-195.5 2153.5,-174.5 2064.5,-174.5"/>
<text text-anchor="middle" x="2109" y="-182.5" font-family="Helvetica,sans-Serif" font-size="10.00">QGestureEvent</text>
</g>
<!-- Node1&#45;&gt;Node40 -->
<g id="edge106" class="edge"><title>Node1&#45;&gt;Node40</title>
<path fill="none" stroke="midnightblue" d="M1590.15,-240.853C1673.67,-235.949 1875.68,-222.382 2054.15,-196.157"/>
<polygon fill="midnightblue" stroke="midnightblue" points="2054.87,-199.589 2064.24,-194.656 2053.84,-192.665 2054.87,-199.589"/>
</g>
<!-- Node41 -->
<g id="node95" class="node"><title>Node41</title>
<a xlink:href="FlickGesture_8h.htm" target="_top" xlink:title="FlickGesture.h">
<polygon fill="white" stroke="black" points="1345.5,-174.5 1345.5,-195.5 1428.5,-195.5 1428.5,-174.5 1345.5,-174.5"/>
<text text-anchor="middle" x="1387" y="-182.5" font-family="Helvetica,sans-Serif" font-size="10.00">FlickGesture.h</text>
</a>
</g>
<!-- Node1&#45;&gt;Node41 -->
<g id="edge108" class="edge"><title>Node1&#45;&gt;Node41</title>
<path fill="none" stroke="midnightblue" d="M1521.3,-232.497C1494.68,-223.082 1455.44,-209.204 1426.24,-198.877"/>
<polygon fill="midnightblue" stroke="midnightblue" points="1427.35,-195.558 1416.75,-195.523 1425.02,-202.157 1427.35,-195.558"/>
</g>
<!-- Node43 -->
<g id="node102" class="node"><title>Node43</title>
<a xlink:href="WebosTapAndHoldGesture_8h.htm" target="_top" xlink:title="WebosTapAndHoldGesture.h">
<polygon fill="white" stroke="black" points="1174,-174.5 1174,-195.5 1328,-195.5 1328,-174.5 1174,-174.5"/>
<text text-anchor="middle" x="1251" y="-182.5" font-family="Helvetica,sans-Serif" font-size="10.00">WebosTapAndHoldGesture.h</text>
</a>
</g>
<!-- Node1&#45;&gt;Node43 -->
<g id="edge118" class="edge"><title>Node1&#45;&gt;Node43</title>
<path fill="none" stroke="midnightblue" d="M1511.78,-235.418C1461.93,-225.781 1375.21,-209.014 1315.55,-197.48"/>
<polygon fill="midnightblue" stroke="midnightblue" points="1315.96,-193.995 1305.48,-195.533 1314.63,-200.867 1315.96,-193.995"/>
</g>
<!-- Node44 -->
<g id="node106" class="node"><title>Node44</title>
<polygon fill="white" stroke="#bfbfbf" points="2170.5,-174.5 2170.5,-195.5 2233.5,-195.5 2233.5,-174.5 2170.5,-174.5"/>
<text text-anchor="middle" x="2202" y="-182.5" font-family="Helvetica,sans-Serif" font-size="10.00">Settings.h</text>
</g>
<!-- Node1&#45;&gt;Node44 -->
<g id="edge124" class="edge"><title>Node1&#45;&gt;Node44</title>
<path fill="none" stroke="midnightblue" d="M1590.28,-242.577C1686.31,-240.991 1940.6,-233.455 2160.15,-196.068"/>
<polygon fill="midnightblue" stroke="midnightblue" points="2160.99,-199.474 2170.25,-194.322 2159.8,-192.577 2160.99,-199.474"/>
</g>
<!-- Node3 -->
<g id="node5" class="node"><title>Node3</title>
<polygon fill="white" stroke="#bfbfbf" points="207.5,-116.5 207.5,-137.5 266.5,-137.5 266.5,-116.5 207.5,-116.5"/>
<text text-anchor="middle" x="237" y="-124.5" font-family="Helvetica,sans-Serif" font-size="10.00">qglobal.h</text>
</g>
<!-- Node2&#45;&gt;Node3 -->
<g id="edge4" class="edge"><title>Node2&#45;&gt;Node3</title>
<path fill="none" stroke="midnightblue" d="M283.545,-174.362C275.43,-166.104 263.999,-154.472 254.496,-144.803"/>
<polygon fill="midnightblue" stroke="midnightblue" points="256.894,-142.25 247.388,-137.571 251.901,-147.156 256.894,-142.25"/>
</g>
<!-- Node4 -->
<g id="node7" class="node"><title>Node4</title>
<polygon fill="white" stroke="#bfbfbf" points="0,-116.5 0,-137.5 54,-137.5 54,-116.5 0,-116.5"/>
<text text-anchor="middle" x="27" y="-124.5" font-family="Helvetica,sans-Serif" font-size="10.00">qmath.h</text>
</g>
<!-- Node2&#45;&gt;Node4 -->
<g id="edge6" class="edge"><title>Node2&#45;&gt;Node4</title>
<path fill="none" stroke="midnightblue" d="M240.84,-174.835C194.921,-165.842 126.871,-152.007 68,-138 66.7498,-137.703 65.4797,-137.395 64.1982,-137.079"/>
<polygon fill="midnightblue" stroke="midnightblue" points="64.8466,-133.632 54.292,-134.555 63.1181,-140.416 64.8466,-133.632"/>
</g>
<!-- Node5 -->
<g id="node9" class="node"><title>Node5</title>
<polygon fill="white" stroke="#bfbfbf" points="775.5,-0.5 775.5,-21.5 828.5,-21.5 828.5,-0.5 775.5,-0.5"/>
<text text-anchor="middle" x="802" y="-8.5" font-family="Helvetica,sans-Serif" font-size="10.00">QRectF</text>
</g>
<!-- Node2&#45;&gt;Node5 -->
<g id="edge8" class="edge"><title>Node2&#45;&gt;Node5</title>
<path fill="none" stroke="midnightblue" d="M299.801,-174.261C308.702,-158.857 327.223,-130.727 351,-116 421.487,-72.3421 671.178,-30.8709 765.532,-16.4055"/>
<polygon fill="midnightblue" stroke="midnightblue" points="766.11,-19.8578 775.47,-14.8938 765.058,-12.9374 766.11,-19.8578"/>
</g>
<!-- Node6 -->
<g id="node11" class="node"><title>Node6</title>
<polygon fill="white" stroke="#bfbfbf" points="1203.5,-116.5 1203.5,-137.5 1252.5,-137.5 1252.5,-116.5 1203.5,-116.5"/>
<text text-anchor="middle" x="1228" y="-124.5" font-family="Helvetica,sans-Serif" font-size="10.00">QPoint</text>
</g>
<!-- Node2&#45;&gt;Node6 -->
<g id="edge10" class="edge"><title>Node2&#45;&gt;Node6</title>
<path fill="none" stroke="midnightblue" d="M347.3,-182.315C527.637,-173.22 1108.05,-143.852 1193.26,-137.044"/>
<polygon fill="midnightblue" stroke="midnightblue" points="1193.73,-140.514 1203.32,-136.02 1193.02,-133.55 1193.73,-140.514"/>
</g>
<!-- Node7 -->
<g id="node13" class="node"><title>Node7</title>
<polygon fill="white" stroke="#bfbfbf" points="359.5,-116.5 359.5,-137.5 414.5,-137.5 414.5,-116.5 359.5,-116.5"/>
<text text-anchor="middle" x="387" y="-124.5" font-family="Helvetica,sans-Serif" font-size="10.00">QPointF</text>
</g>
<!-- Node2&#45;&gt;Node7 -->
<g id="edge12" class="edge"><title>Node2&#45;&gt;Node7</title>
<path fill="none" stroke="midnightblue" d="M311.058,-174.362C325.085,-165.614 345.184,-153.079 361.182,-143.101"/>
<polygon fill="midnightblue" stroke="midnightblue" points="363.418,-145.832 370.051,-137.571 359.713,-139.893 363.418,-145.832"/>
</g>
<!-- Node8 -->
<g id="node15" class="node"><title>Node8</title>
<polygon fill="white" stroke="#bfbfbf" points="419,-0.5 419,-21.5 465,-21.5 465,-0.5 419,-0.5"/>
<text text-anchor="middle" x="442" y="-8.5" font-family="Helvetica,sans-Serif" font-size="10.00">QUuid</text>
</g>
<!-- Node2&#45;&gt;Node8 -->
<g id="edge14" class="edge"><title>Node2&#45;&gt;Node8</title>
<path fill="none" stroke="midnightblue" d="M240.601,-179.343C189.619,-172.711 118.098,-159.762 101,-138 94.9591,-130.312 95.2496,-123.908 101,-116 137.881,-65.2804 329.738,-29.1076 408.351,-16.199"/>
<polygon fill="midnightblue" stroke="midnightblue" points="409.351,-19.583 418.665,-14.5328 408.234,-12.6726 409.351,-19.583"/>
</g>
<!-- Node9 -->
<g id="node17" class="node"><title>Node9</title>
<polygon fill="white" stroke="#bfbfbf" points="596,-0.5 596,-21.5 646,-21.5 646,-0.5 596,-0.5"/>
<text text-anchor="middle" x="621" y="-8.5" font-family="Helvetica,sans-Serif" font-size="10.00">QHash</text>
</g>
<!-- Node2&#45;&gt;Node9 -->
<g id="edge16" class="edge"><title>Node2&#45;&gt;Node9</title>
<path fill="none" stroke="midnightblue" d="M294.967,-174.218C296.859,-159.273 302.349,-132.27 318,-116 391.337,-39.7644 522.729,-18.8525 585.596,-13.137"/>
<polygon fill="midnightblue" stroke="midnightblue" points="586.119,-16.6058 595.795,-12.2899 585.539,-9.62978 586.119,-16.6058"/>
</g>
<!-- Node10 -->
<g id="node19" class="node"><title>Node10</title>
<polygon fill="white" stroke="#bfbfbf" points="110,-116.5 110,-137.5 190,-137.5 190,-116.5 110,-116.5"/>
<text text-anchor="middle" x="150" y="-124.5" font-family="Helvetica,sans-Serif" font-size="10.00">QVariantMap</text>
</g>
<!-- Node2&#45;&gt;Node10 -->
<g id="edge18" class="edge"><title>Node2&#45;&gt;Node10</title>
<path fill="none" stroke="midnightblue" d="M267.923,-174.497C244.925,-165.234 211.2,-151.65 185.7,-141.379"/>
<polygon fill="midnightblue" stroke="midnightblue" points="186.953,-138.111 176.37,-137.621 184.338,-144.604 186.953,-138.111"/>
</g>
<!-- Node11&#45;&gt;Node5 -->
<g id="edge46" class="edge"><title>Node11&#45;&gt;Node5</title>
<path fill="none" stroke="midnightblue" d="M910.541,-174.164C908.313,-160.087 903.201,-135.061 893,-116 874.41,-81.2646 842.502,-48.1139 821.836,-28.6634"/>
<polygon fill="midnightblue" stroke="midnightblue" points="823.98,-25.8796 814.257,-21.6702 819.233,-31.0241 823.98,-25.8796"/>
</g>
<!-- Node11&#45;&gt;Node7 -->
<g id="edge54" class="edge"><title>Node11&#45;&gt;Node7</title>
<path fill="none" stroke="midnightblue" d="M878.279,-181.994C803.202,-175.191 616.617,-157.665 461,-138 449.26,-136.516 436.503,-134.696 424.941,-132.965"/>
<polygon fill="midnightblue" stroke="midnightblue" points="425.133,-129.455 414.721,-131.414 424.083,-136.375 425.133,-129.455"/>
</g>
<!-- Node12 -->
<g id="node23" class="node"><title>Node12</title>
<a xlink:href="thingpaintable_8h.htm" target="_top" xlink:title="thingpaintable.h">
<polygon fill="white" stroke="black" points="939.5,-116.5 939.5,-137.5 1030.5,-137.5 1030.5,-116.5 939.5,-116.5"/>
<text text-anchor="middle" x="985" y="-124.5" font-family="Helvetica,sans-Serif" font-size="10.00">thingpaintable.h</text>
</a>
</g>
<!-- Node11&#45;&gt;Node12 -->
<g id="edge22" class="edge"><title>Node11&#45;&gt;Node12</title>
<path fill="none" stroke="midnightblue" d="M925.389,-174.362C936.091,-165.859 951.296,-153.779 963.671,-143.947"/>
<polygon fill="midnightblue" stroke="midnightblue" points="966.043,-146.532 971.696,-137.571 961.689,-141.051 966.043,-146.532"/>
</g>
<!-- Node11&#45;&gt;Node16 -->
<g id="edge50" class="edge"><title>Node11&#45;&gt;Node16</title>
<path fill="none" stroke="midnightblue" d="M945.606,-179.405C973.366,-173.305 1012.4,-161.148 1039,-138 1069.45,-111.504 1059.24,-91.335 1082,-58 1088.87,-47.9419 1097.52,-37.5493 1105.03,-29.1024"/>
<polygon fill="midnightblue" stroke="midnightblue" points="1107.64,-31.4314 1111.77,-21.6744 1102.45,-26.7267 1107.64,-31.4314"/>
</g>
<!-- Node19 -->
<g id="node43" class="node"><title>Node19</title>
<polygon fill="white" stroke="#bfbfbf" points="679.5,-116.5 679.5,-137.5 726.5,-137.5 726.5,-116.5 679.5,-116.5"/>
<text text-anchor="middle" x="703" y="-124.5" font-family="Helvetica,sans-Serif" font-size="10.00">QRect</text>
</g>
<!-- Node11&#45;&gt;Node19 -->
<g id="edge48" class="edge"><title>Node11&#45;&gt;Node19</title>
<path fill="none" stroke="midnightblue" d="M878.195,-176.789C844.45,-168.424 790.927,-154.704 736.511,-138.336"/>
<polygon fill="midnightblue" stroke="midnightblue" points="737.29,-134.914 726.704,-135.359 735.257,-141.613 737.29,-134.914"/>
</g>
<!-- Node20 -->
<g id="node46" class="node"><title>Node20</title>
<polygon fill="white" stroke="#bfbfbf" points="1270,-116.5 1270,-137.5 1320,-137.5 1320,-116.5 1270,-116.5"/>
<text text-anchor="middle" x="1295" y="-124.5" font-family="Helvetica,sans-Serif" font-size="10.00">QColor</text>
</g>
<!-- Node11&#45;&gt;Node20 -->
<g id="edge52" class="edge"><title>Node11&#45;&gt;Node20</title>
<path fill="none" stroke="midnightblue" d="M945.558,-182.492C1006.53,-177.504 1139.57,-164.639 1260.12,-137.883"/>
<polygon fill="midnightblue" stroke="midnightblue" points="1260.91,-141.295 1269.89,-135.678 1259.36,-134.466 1260.91,-141.295"/>
</g>
<!-- Node21 -->
<g id="node49" class="node"><title>Node21</title>
<polygon fill="white" stroke="#bfbfbf" points="744,-116.5 744,-137.5 790,-137.5 790,-116.5 744,-116.5"/>
<text text-anchor="middle" x="767" y="-124.5" font-family="Helvetica,sans-Serif" font-size="10.00">QFont</text>
</g>
<!-- Node11&#45;&gt;Node21 -->
<g id="edge56" class="edge"><title>Node11&#45;&gt;Node21</title>
<path fill="none" stroke="midnightblue" d="M885.742,-174.497C861.571,-164.828 825.633,-150.453 799.628,-140.051"/>
<polygon fill="midnightblue" stroke="midnightblue" points="800.777,-136.741 790.192,-136.277 798.177,-143.241 800.777,-136.741"/>
</g>
<!-- Node22 -->
<g id="node51" class="node"><title>Node22</title>
<polygon fill="white" stroke="#bfbfbf" points="807.5,-116.5 807.5,-137.5 884.5,-137.5 884.5,-116.5 807.5,-116.5"/>
<text text-anchor="middle" x="846" y="-124.5" font-family="Helvetica,sans-Serif" font-size="10.00">QTextLayout</text>
</g>
<!-- Node11&#45;&gt;Node22 -->
<g id="edge58" class="edge"><title>Node11&#45;&gt;Node22</title>
<path fill="none" stroke="midnightblue" d="M899.895,-174.362C890.312,-165.941 876.736,-154.011 865.607,-144.231"/>
<polygon fill="midnightblue" stroke="midnightblue" points="867.851,-141.543 858.029,-137.571 863.23,-146.801 867.851,-141.543"/>
</g>
<!-- Node12&#45;&gt;Node5 -->
<g id="edge44" class="edge"><title>Node12&#45;&gt;Node5</title>
<path fill="none" stroke="midnightblue" d="M971.914,-116.259C954.325,-102.066 921.813,-76.6824 892,-58 873.348,-46.3113 851.478,-34.8427 833.967,-26.1606"/>
<polygon fill="midnightblue" stroke="midnightblue" points="835.256,-22.8947 824.736,-21.6403 832.177,-29.1815 835.256,-22.8947"/>
</g>
<!-- Node13 -->
<g id="node25" class="node"><title>Node13</title>
<a xlink:href="thing_8h.htm" target="_top" xlink:title="thing.h">
<polygon fill="white" stroke="black" points="944,-58.5 944,-79.5 992,-79.5 992,-58.5 944,-58.5"/>
<text text-anchor="middle" x="968" y="-66.5" font-family="Helvetica,sans-Serif" font-size="10.00">thing.h</text>
</a>
</g>
<!-- Node12&#45;&gt;Node13 -->
<g id="edge24" class="edge"><title>Node12&#45;&gt;Node13</title>
<path fill="none" stroke="midnightblue" d="M981.882,-116.362C979.677,-108.84 976.652,-98.5187 973.988,-89.4308"/>
<polygon fill="midnightblue" stroke="midnightblue" points="977.27,-88.1825 971.098,-79.5707 970.552,-90.1514 977.27,-88.1825"/>
</g>
<!-- Node12&#45;&gt;Node16 -->
<g id="edge42" class="edge"><title>Node12&#45;&gt;Node16</title>
<path fill="none" stroke="midnightblue" d="M992.483,-116.25C1002.88,-101.82 1022.83,-75.9307 1044,-58 1058.39,-45.8134 1076.29,-34.7819 1091.32,-26.4737"/>
<polygon fill="midnightblue" stroke="midnightblue" points="1093.1,-29.4893 1100.25,-21.6666 1089.79,-23.326 1093.1,-29.4893"/>
</g>
<!-- Node13&#45;&gt;Node5 -->
<g id="edge36" class="edge"><title>Node13&#45;&gt;Node5</title>
<path fill="none" stroke="midnightblue" d="M943.862,-60.5663C916.074,-50.8571 870.149,-34.8111 838.105,-23.615"/>
<polygon fill="midnightblue" stroke="midnightblue" points="839.236,-20.3028 828.641,-20.3084 836.927,-26.911 839.236,-20.3028"/>
</g>
<!-- Node13&#45;&gt;Node8 -->
<g id="edge28" class="edge"><title>Node13&#45;&gt;Node8</title>
<path fill="none" stroke="midnightblue" d="M943.685,-66.3189C858.483,-56.924 573.313,-25.4794 475.366,-14.6791"/>
<polygon fill="midnightblue" stroke="midnightblue" points="475.483,-11.171 465.16,-13.5538 474.716,-18.1288 475.483,-11.171"/>
</g>
<!-- Node13&#45;&gt;Node9 -->
<g id="edge40" class="edge"><title>Node13&#45;&gt;Node9</title>
<path fill="none" stroke="midnightblue" d="M943.875,-64.9676C883.791,-54.9247 727.227,-28.7555 656.543,-16.941"/>
<polygon fill="midnightblue" stroke="midnightblue" points="656.802,-13.4357 646.361,-15.2391 655.648,-20.3399 656.802,-13.4357"/>
</g>
<!-- Node14 -->
<g id="node27" class="node"><title>Node14</title>
<polygon fill="white" stroke="#bfbfbf" points="980,-0.5 980,-21.5 1078,-21.5 1078,-0.5 980,-0.5"/>
<text text-anchor="middle" x="1029" y="-8.5" font-family="Helvetica,sans-Serif" font-size="10.00">QGraphicsObject</text>
</g>
<!-- Node13&#45;&gt;Node14 -->
<g id="edge26" class="edge"><title>Node13&#45;&gt;Node14</title>
<path fill="none" stroke="midnightblue" d="M979.188,-58.3619C987.959,-50.0226 1000.35,-38.2418 1010.58,-28.5162"/>
<polygon fill="midnightblue" stroke="midnightblue" points="1013.05,-30.9978 1017.88,-21.5707 1008.22,-25.9248 1013.05,-30.9978"/>
</g>
<!-- Node15 -->
<g id="node30" class="node"><title>Node15</title>
<polygon fill="white" stroke="#bfbfbf" points="845.5,-0.5 845.5,-21.5 904.5,-21.5 904.5,-0.5 845.5,-0.5"/>
<text text-anchor="middle" x="875" y="-8.5" font-family="Helvetica,sans-Serif" font-size="10.00">QPointer</text>
</g>
<!-- Node13&#45;&gt;Node15 -->
<g id="edge30" class="edge"><title>Node13&#45;&gt;Node15</title>
<path fill="none" stroke="midnightblue" d="M950.942,-58.3619C936.915,-49.6138 916.816,-37.0786 900.818,-27.1015"/>
<polygon fill="midnightblue" stroke="midnightblue" points="902.287,-23.8927 891.949,-21.5707 898.582,-29.8323 902.287,-23.8927"/>
</g>
<!-- Node13&#45;&gt;Node16 -->
<g id="edge32" class="edge"><title>Node13&#45;&gt;Node16</title>
<path fill="none" stroke="midnightblue" d="M992.062,-59.9375C1017.11,-50.504 1056.64,-35.615 1085.53,-24.7353"/>
<polygon fill="midnightblue" stroke="midnightblue" points="1087.14,-27.8697 1095.26,-21.0697 1084.67,-21.3189 1087.14,-27.8697"/>
</g>
<!-- Node17 -->
<g id="node34" class="node"><title>Node17</title>
<polygon fill="white" stroke="#bfbfbf" points="921.5,-0.5 921.5,-21.5 962.5,-21.5 962.5,-0.5 921.5,-0.5"/>
<text text-anchor="middle" x="942" y="-8.5" font-family="Helvetica,sans-Serif" font-size="10.00">QList</text>
</g>
<!-- Node13&#45;&gt;Node17 -->
<g id="edge34" class="edge"><title>Node13&#45;&gt;Node17</title>
<path fill="none" stroke="midnightblue" d="M963.231,-58.3619C959.786,-50.6766 955.031,-40.0686 950.894,-30.8399"/>
<polygon fill="midnightblue" stroke="midnightblue" points="954.023,-29.264 946.739,-21.5707 947.635,-32.1275 954.023,-29.264"/>
</g>
<!-- Node13&#45;&gt;Node18 -->
<g id="edge38" class="edge"><title>Node13&#45;&gt;Node18</title>
<path fill="none" stroke="midnightblue" d="M992.264,-66.6545C1084.97,-57.6928 1417.26,-25.5717 1530.15,-14.6586"/>
<polygon fill="midnightblue" stroke="midnightblue" points="1530.76,-18.1162 1540.38,-13.6702 1530.09,-11.1487 1530.76,-18.1162"/>
</g>
<!-- Node23&#45;&gt;Node8 -->
<g id="edge66" class="edge"><title>Node23&#45;&gt;Node8</title>
<path fill="none" stroke="midnightblue" d="M524.989,-176.582C502.482,-169.92 476.465,-158.229 461,-138 437.318,-107.023 437.127,-59.0925 439.382,-31.834"/>
<polygon fill="midnightblue" stroke="midnightblue" points="442.869,-32.1456 440.399,-21.8427 435.905,-31.437 442.869,-32.1456"/>
</g>
<!-- Node24 -->
<g id="node55" class="node"><title>Node24</title>
<polygon fill="white" stroke="#bfbfbf" points="607.5,-116.5 607.5,-137.5 662.5,-137.5 662.5,-116.5 607.5,-116.5"/>
<text text-anchor="middle" x="635" y="-124.5" font-family="Helvetica,sans-Serif" font-size="10.00">QObject</text>
</g>
<!-- Node23&#45;&gt;Node24 -->
<g id="edge62" class="edge"><title>Node23&#45;&gt;Node24</title>
<path fill="none" stroke="midnightblue" d="M580.289,-174.362C590.017,-165.941 603.798,-154.011 615.095,-144.231"/>
<polygon fill="midnightblue" stroke="midnightblue" points="617.519,-146.762 622.789,-137.571 612.938,-141.469 617.519,-146.762"/>
</g>
<!-- Node25 -->
<g id="node57" class="node"><title>Node25</title>
<polygon fill="white" stroke="#bfbfbf" points="469.5,-116.5 469.5,-137.5 528.5,-137.5 528.5,-116.5 469.5,-116.5"/>
<text text-anchor="middle" x="499" y="-124.5" font-family="Helvetica,sans-Serif" font-size="10.00">QPixmap</text>
</g>
<!-- Node23&#45;&gt;Node25 -->
<g id="edge64" class="edge"><title>Node23&#45;&gt;Node25</title>
<path fill="none" stroke="midnightblue" d="M555.344,-174.362C545.326,-165.941 531.133,-154.011 519.499,-144.231"/>
<polygon fill="midnightblue" stroke="midnightblue" points="521.482,-141.326 511.575,-137.571 516.978,-146.684 521.482,-141.326"/>
</g>
<!-- Node26 -->
<g id="node60" class="node"><title>Node26</title>
<polygon fill="white" stroke="#bfbfbf" points="545.5,-116.5 545.5,-137.5 590.5,-137.5 590.5,-116.5 545.5,-116.5"/>
<text text-anchor="middle" x="568" y="-124.5" font-family="Helvetica,sans-Serif" font-size="10.00">QSize</text>
</g>
<!-- Node23&#45;&gt;Node26 -->
<g id="edge68" class="edge"><title>Node23&#45;&gt;Node26</title>
<path fill="none" stroke="midnightblue" d="M568,-174.362C568,-166.922 568,-156.743 568,-147.728"/>
<polygon fill="midnightblue" stroke="midnightblue" points="571.5,-147.571 568,-137.571 564.5,-147.571 571.5,-147.571"/>
</g>
<!-- Node27&#45;&gt;Node6 -->
<g id="edge88" class="edge"><title>Node27&#45;&gt;Node6</title>
<path fill="none" stroke="midnightblue" d="M1506.33,-180.029C1451.01,-173.374 1353.82,-160.057 1262.68,-138.151"/>
<polygon fill="midnightblue" stroke="midnightblue" points="1263.29,-134.697 1252.74,-135.723 1261.62,-141.497 1263.29,-134.697"/>
</g>
<!-- Node27&#45;&gt;Node16 -->
<g id="edge86" class="edge"><title>Node27&#45;&gt;Node16</title>
<path fill="none" stroke="midnightblue" d="M1594.68,-174.4C1632.92,-163.048 1679.18,-142.96 1657,-116 1593.34,-38.6322 1269.11,-17.419 1158.8,-12.3941"/>
<polygon fill="midnightblue" stroke="midnightblue" points="1158.65,-8.88445 1148.51,-11.9445 1158.34,-15.8778 1158.65,-8.88445"/>
</g>
<!-- Node27&#45;&gt;Node20 -->
<g id="edge90" class="edge"><title>Node27&#45;&gt;Node20</title>
<path fill="none" stroke="midnightblue" d="M1506.45,-176.985C1463.51,-168.943 1396.55,-155.579 1329.98,-138.077"/>
<polygon fill="midnightblue" stroke="midnightblue" points="1330.73,-134.654 1320.16,-135.464 1328.93,-141.418 1330.73,-134.654"/>
</g>
<!-- Node28 -->
<g id="node64" class="node"><title>Node28</title>
<polygon fill="white" stroke="#bfbfbf" points="1437.5,-116.5 1437.5,-137.5 1504.5,-137.5 1504.5,-116.5 1437.5,-116.5"/>
<text text-anchor="middle" x="1471" y="-124.5" font-family="Helvetica,sans-Serif" font-size="10.00">Common.h</text>
</g>
<!-- Node27&#45;&gt;Node28 -->
<g id="edge72" class="edge"><title>Node27&#45;&gt;Node28</title>
<path fill="none" stroke="midnightblue" d="M1536.33,-174.362C1524.49,-165.777 1507.61,-153.546 1493.98,-143.664"/>
<polygon fill="midnightblue" stroke="midnightblue" points="1495.73,-140.607 1485.58,-137.571 1491.62,-146.274 1495.73,-140.607"/>
</g>
<!-- Node29 -->
<g id="node66" class="node"><title>Node29</title>
<polygon fill="white" stroke="#bfbfbf" points="1703.5,-116.5 1703.5,-137.5 1746.5,-137.5 1746.5,-116.5 1703.5,-116.5"/>
<text text-anchor="middle" x="1725" y="-124.5" font-family="Helvetica,sans-Serif" font-size="10.00">string</text>
</g>
<!-- Node27&#45;&gt;Node29 -->
<g id="edge74" class="edge"><title>Node27&#45;&gt;Node29</title>
<path fill="none" stroke="midnightblue" d="M1582.51,-174.497C1614.06,-163.981 1662.31,-147.895 1693.76,-137.412"/>
<polygon fill="midnightblue" stroke="midnightblue" points="1694.96,-140.702 1703.34,-134.219 1692.75,-134.061 1694.96,-140.702"/>
</g>
<!-- Node30 -->
<g id="node68" class="node"><title>Node30</title>
<polygon fill="white" stroke="#bfbfbf" points="1764,-116.5 1764,-137.5 1810,-137.5 1810,-116.5 1764,-116.5"/>
<text text-anchor="middle" x="1787" y="-124.5" font-family="Helvetica,sans-Serif" font-size="10.00">vector</text>
</g>
<!-- Node27&#45;&gt;Node30 -->
<g id="edge76" class="edge"><title>Node27&#45;&gt;Node30</title>
<path fill="none" stroke="midnightblue" d="M1595.51,-176.147C1634.88,-168.005 1694.02,-155.013 1753.7,-138.182"/>
<polygon fill="midnightblue" stroke="midnightblue" points="1755.02,-141.446 1763.67,-135.335 1753.09,-134.715 1755.02,-141.446"/>
</g>
<!-- Node31 -->
<g id="node70" class="node"><title>Node31</title>
<polygon fill="white" stroke="#bfbfbf" points="1827.5,-116.5 1827.5,-137.5 1858.5,-137.5 1858.5,-116.5 1827.5,-116.5"/>
<text text-anchor="middle" x="1843" y="-124.5" font-family="Helvetica,sans-Serif" font-size="10.00">set</text>
</g>
<!-- Node27&#45;&gt;Node31 -->
<g id="edge78" class="edge"><title>Node27&#45;&gt;Node31</title>
<path fill="none" stroke="midnightblue" d="M1595.63,-176.453C1600.15,-175.613 1604.66,-174.783 1609,-174 1699.09,-157.736 1726.71,-165.408 1817.86,-137.792"/>
<polygon fill="midnightblue" stroke="midnightblue" points="1818.96,-141.115 1827.48,-134.819 1816.89,-134.427 1818.96,-141.115"/>
</g>
<!-- Node32 -->
<g id="node72" class="node"><title>Node32</title>
<polygon fill="white" stroke="#bfbfbf" points="1875.5,-116.5 1875.5,-137.5 1916.5,-137.5 1916.5,-116.5 1875.5,-116.5"/>
<text text-anchor="middle" x="1896" y="-124.5" font-family="Helvetica,sans-Serif" font-size="10.00">glib.h</text>
</g>
<!-- Node27&#45;&gt;Node32 -->
<g id="edge80" class="edge"><title>Node27&#45;&gt;Node32</title>
<path fill="none" stroke="midnightblue" d="M1595.61,-176.312C1600.13,-175.501 1604.65,-174.715 1609,-174 1720.01,-155.74 1752.98,-166.083 1865.25,-138.051"/>
<polygon fill="midnightblue" stroke="midnightblue" points="1866.44,-141.358 1875.27,-135.5 1864.72,-134.575 1866.44,-141.358"/>
</g>
<!-- Node33 -->
<g id="node74" class="node"><title>Node33</title>
<polygon fill="white" stroke="#bfbfbf" points="1522,-116.5 1522,-137.5 1580,-137.5 1580,-116.5 1522,-116.5"/>
<text text-anchor="middle" x="1551" y="-124.5" font-family="Helvetica,sans-Serif" font-size="10.00">QtGlobal</text>
</g>
<!-- Node27&#45;&gt;Node33 -->
<g id="edge82" class="edge"><title>Node27&#45;&gt;Node33</title>
<path fill="none" stroke="midnightblue" d="M1551,-174.362C1551,-166.922 1551,-156.743 1551,-147.728"/>
<polygon fill="midnightblue" stroke="midnightblue" points="1554.5,-147.571 1551,-137.571 1547.5,-147.571 1554.5,-147.571"/>
</g>
<!-- Node34 -->
<g id="node76" class="node"><title>Node34</title>
<polygon fill="white" stroke="#bfbfbf" points="1597.5,-116.5 1597.5,-137.5 1648.5,-137.5 1648.5,-116.5 1597.5,-116.5"/>
<text text-anchor="middle" x="1623" y="-124.5" font-family="Helvetica,sans-Serif" font-size="10.00">QSizeF</text>
</g>
<!-- Node27&#45;&gt;Node34 -->
<g id="edge84" class="edge"><title>Node27&#45;&gt;Node34</title>
<path fill="none" stroke="midnightblue" d="M1564.21,-174.362C1574.76,-165.859 1589.76,-153.779 1601.96,-143.947"/>
<polygon fill="midnightblue" stroke="midnightblue" points="1604.29,-146.57 1609.88,-137.571 1599.89,-141.118 1604.29,-146.57"/>
</g>
<!-- Node41&#45;&gt;Node6 -->
<g id="edge114" class="edge"><title>Node41&#45;&gt;Node6</title>
<path fill="none" stroke="midnightblue" d="M1358.21,-174.497C1331.23,-164.656 1290.88,-149.938 1262.26,-139.497"/>
<polygon fill="midnightblue" stroke="midnightblue" points="1263.26,-136.137 1252.67,-135.998 1260.86,-142.713 1263.26,-136.137"/>
</g>
<!-- Node41&#45;&gt;Node28 -->
<g id="edge110" class="edge"><title>Node41&#45;&gt;Node28</title>
<path fill="none" stroke="midnightblue" d="M1402.41,-174.362C1414.96,-165.696 1432.89,-153.313 1447.27,-143.382"/>
<polygon fill="midnightblue" stroke="midnightblue" points="1449.45,-146.133 1455.69,-137.571 1445.47,-140.372 1449.45,-146.133"/>
</g>
<!-- Node41&#45;&gt;Node39 -->
<g id="edge112" class="edge"><title>Node41&#45;&gt;Node39</title>
<path fill="none" stroke="midnightblue" d="M1345.34,-175.162C1308.52,-166.386 1253.12,-152.986 1196.29,-138.293"/>
<polygon fill="midnightblue" stroke="midnightblue" points="1196.98,-134.855 1186.42,-135.731 1195.22,-141.631 1196.98,-134.855"/>
</g>
<!-- Node42 -->
<g id="node100" class="node"><title>Node42</title>
<polygon fill="white" stroke="#bfbfbf" points="1337.5,-116.5 1337.5,-137.5 1420.5,-137.5 1420.5,-116.5 1337.5,-116.5"/>
<text text-anchor="middle" x="1379" y="-124.5" font-family="Helvetica,sans-Serif" font-size="10.00">SysMgrDefs.h</text>
</g>
<!-- Node41&#45;&gt;Node42 -->
<g id="edge116" class="edge"><title>Node41&#45;&gt;Node42</title>
<path fill="none" stroke="midnightblue" d="M1385.53,-174.362C1384.51,-166.922 1383.1,-156.743 1381.86,-147.728"/>
<polygon fill="midnightblue" stroke="midnightblue" points="1385.29,-146.999 1380.46,-137.571 1378.36,-147.955 1385.29,-146.999"/>
</g>
<!-- Node43&#45;&gt;Node6 -->
<g id="edge120" class="edge"><title>Node43&#45;&gt;Node6</title>
<path fill="none" stroke="midnightblue" d="M1246.78,-174.362C1243.77,-166.758 1239.62,-156.294 1235.98,-147.135"/>
<polygon fill="midnightblue" stroke="midnightblue" points="1239.13,-145.576 1232.19,-137.571 1232.62,-148.157 1239.13,-145.576"/>
</g>
<!-- Node43&#45;&gt;Node39 -->
<g id="edge122" class="edge"><title>Node43&#45;&gt;Node39</title>
<path fill="none" stroke="midnightblue" d="M1233.39,-174.362C1218.78,-165.532 1197.78,-152.844 1181.19,-142.822"/>
<polygon fill="midnightblue" stroke="midnightblue" points="1182.87,-139.746 1172.5,-137.571 1179.25,-145.738 1182.87,-139.746"/>
</g>
</g>
</svg>
