<?xml version="1.0" encoding="UTF-8" standalone="no"?>
<!DOCTYPE svg PUBLIC "-//W3C//DTD SVG 1.1//EN"
 "http://www.w3.org/Graphics/SVG/1.1/DTD/svg11.dtd">
<!-- Generated by graphviz version 2.26.3 (20100126.1600)
 -->
<!-- Title: pixmap3vtileobject.cpp Pages: 1 -->
<svg width="757pt" height="204pt"
 viewBox="0.00 0.00 757.00 204.00" xmlns="http://www.w3.org/2000/svg" xmlns:xlink="http://www.w3.org/1999/xlink">
<g id="graph1" class="graph" transform="scale(1 1) rotate(0) translate(4 200)">
<title>pixmap3vtileobject.cpp</title>
<polygon fill="white" stroke="white" points="-4,5 -4,-200 754,-200 754,5 -4,5"/>
<!-- Node1 -->
<g id="node1" class="node"><title>Node1</title>
<polygon fill="#bfbfbf" stroke="black" points="420,-174.5 420,-195.5 542,-195.5 542,-174.5 420,-174.5"/>
<text text-anchor="middle" x="481" y="-182.5" font-family="Helvetica,sans-Serif" font-size="10.00">pixmap3vtileobject.cpp</text>
</g>
<!-- Node2 -->
<g id="node3" class="node"><title>Node2</title>
<a xlink:href="pixmap3vtileobject_8h.htm" target="_top" xlink:title="pixmap3vtileobject.h">
<polygon fill="white" stroke="black" points="46.5,-116.5 46.5,-137.5 157.5,-137.5 157.5,-116.5 46.5,-116.5"/>
<text text-anchor="middle" x="102" y="-124.5" font-family="Helvetica,sans-Serif" font-size="10.00">pixmap3vtileobject.h</text>
</a>
</g>
<!-- Node1&#45;&gt;Node2 -->
<g id="edge2" class="edge"><title>Node1&#45;&gt;Node2</title>
<path fill="none" stroke="midnightblue" d="M419.686,-175.617C350.596,-165.044 238.71,-147.921 167.821,-137.073"/>
<polygon fill="midnightblue" stroke="midnightblue" points="168.084,-133.572 157.67,-135.519 167.025,-140.492 168.084,-133.572"/>
</g>
<!-- Node8 -->
<g id="node15" class="node"><title>Node8</title>
<polygon fill="white" stroke="#bfbfbf" points="160.5,-58.5 160.5,-79.5 213.5,-79.5 213.5,-58.5 160.5,-58.5"/>
<text text-anchor="middle" x="187" y="-66.5" font-family="Helvetica,sans-Serif" font-size="10.00">QRectF</text>
</g>
<!-- Node1&#45;&gt;Node8 -->
<g id="edge42" class="edge"><title>Node1&#45;&gt;Node8</title>
<path fill="none" stroke="midnightblue" d="M430.173,-174.451C395.584,-166.449 349.16,-154.084 310,-138 274.252,-123.317 235.829,-100.511 211.618,-85.1791"/>
<polygon fill="midnightblue" stroke="midnightblue" points="213.378,-82.15 203.07,-79.7017 209.601,-88.0438 213.378,-82.15"/>
</g>
<!-- Node9 -->
<g id="node18" class="node"><title>Node9</title>
<a xlink:href="dimensionsglobal_8h.htm" target="_top" xlink:title="dimensionsglobal.h">
<polygon fill="white" stroke="black" points="319,-116.5 319,-137.5 425,-137.5 425,-116.5 319,-116.5"/>
<text text-anchor="middle" x="372" y="-124.5" font-family="Helvetica,sans-Serif" font-size="10.00">dimensionsglobal.h</text>
</a>
</g>
<!-- Node1&#45;&gt;Node9 -->
<g id="edge18" class="edge"><title>Node1&#45;&gt;Node9</title>
<path fill="none" stroke="midnightblue" d="M461.261,-174.497C444.39,-165.519 419.891,-152.484 400.826,-142.339"/>
<polygon fill="midnightblue" stroke="midnightblue" points="402.433,-139.229 391.961,-137.621 399.144,-145.409 402.433,-139.229"/>
</g>
<!-- Node13 -->
<g id="node27" class="node"><title>Node13</title>
<polygon fill="white" stroke="#bfbfbf" points="648.5,-58.5 648.5,-79.5 703.5,-79.5 703.5,-58.5 648.5,-58.5"/>
<text text-anchor="middle" x="676" y="-66.5" font-family="Helvetica,sans-Serif" font-size="10.00">QPointF</text>
</g>
<!-- Node1&#45;&gt;Node13 -->
<g id="edge38" class="edge"><title>Node1&#45;&gt;Node13</title>
<path fill="none" stroke="midnightblue" d="M475.238,-174.344C468.113,-159.549 458.481,-132.723 472,-116 518.038,-59.0518 562.302,-95.855 638.239,-80.0871"/>
<polygon fill="midnightblue" stroke="midnightblue" points="639.22,-83.4521 648.159,-77.764 637.624,-76.6365 639.22,-83.4521"/>
</g>
<!-- Node16 -->
<g id="node34" class="node"><title>Node16</title>
<polygon fill="white" stroke="#bfbfbf" points="480.5,-116.5 480.5,-137.5 539.5,-137.5 539.5,-116.5 480.5,-116.5"/>
<text text-anchor="middle" x="510" y="-124.5" font-family="Helvetica,sans-Serif" font-size="10.00">QPainter</text>
</g>
<!-- Node1&#45;&gt;Node16 -->
<g id="edge36" class="edge"><title>Node1&#45;&gt;Node16</title>
<path fill="none" stroke="midnightblue" d="M486.319,-174.362C490.203,-166.595 495.579,-155.843 500.227,-146.546"/>
<polygon fill="midnightblue" stroke="midnightblue" points="503.373,-148.08 504.715,-137.571 497.112,-144.95 503.373,-148.08"/>
</g>
<!-- Node17 -->
<g id="node37" class="node"><title>Node17</title>
<polygon fill="white" stroke="#bfbfbf" points="556.5,-116.5 556.5,-137.5 603.5,-137.5 603.5,-116.5 556.5,-116.5"/>
<text text-anchor="middle" x="580" y="-124.5" font-family="Helvetica,sans-Serif" font-size="10.00">QRect</text>
</g>
<!-- Node1&#45;&gt;Node17 -->
<g id="edge40" class="edge"><title>Node1&#45;&gt;Node17</title>
<path fill="none" stroke="midnightblue" d="M499.158,-174.362C514.23,-165.532 535.887,-152.844 552.993,-142.822"/>
<polygon fill="midnightblue" stroke="midnightblue" points="555.098,-145.646 561.957,-137.571 551.559,-139.606 555.098,-145.646"/>
</g>
<!-- Node18 -->
<g id="node40" class="node"><title>Node18</title>
<polygon fill="white" stroke="#bfbfbf" points="621,-116.5 621,-137.5 677,-137.5 677,-116.5 621,-116.5"/>
<text text-anchor="middle" x="649" y="-124.5" font-family="Helvetica,sans-Serif" font-size="10.00">QVector</text>
</g>
<!-- Node1&#45;&gt;Node18 -->
<g id="edge44" class="edge"><title>Node1&#45;&gt;Node18</title>
<path fill="none" stroke="midnightblue" d="M511.424,-174.497C539.373,-164.847 580.905,-150.509 611.021,-140.112"/>
<polygon fill="midnightblue" stroke="midnightblue" points="612.45,-143.321 620.76,-136.75 610.165,-136.705 612.45,-143.321"/>
</g>
<!-- Node19 -->
<g id="node42" class="node"><title>Node19</title>
<polygon fill="white" stroke="#bfbfbf" points="694.5,-116.5 694.5,-137.5 749.5,-137.5 749.5,-116.5 694.5,-116.5"/>
<text text-anchor="middle" x="722" y="-124.5" font-family="Helvetica,sans-Serif" font-size="10.00">QDebug</text>
</g>
<!-- Node1&#45;&gt;Node19 -->
<g id="edge46" class="edge"><title>Node1&#45;&gt;Node19</title>
<path fill="none" stroke="midnightblue" d="M531.374,-174.498C570.745,-166.053 627.043,-153.461 684.219,-138.368"/>
<polygon fill="midnightblue" stroke="midnightblue" points="685.386,-141.68 694.148,-135.724 683.584,-134.916 685.386,-141.68"/>
</g>
<!-- Node3 -->
<g id="node5" class="node"><title>Node3</title>
<a xlink:href="pixmapobject_8h.htm" target="_top" xlink:title="pixmapobject.h">
<polygon fill="white" stroke="black" points="57,-58.5 57,-79.5 143,-79.5 143,-58.5 57,-58.5"/>
<text text-anchor="middle" x="100" y="-66.5" font-family="Helvetica,sans-Serif" font-size="10.00">pixmapobject.h</text>
</a>
</g>
<!-- Node2&#45;&gt;Node3 -->
<g id="edge4" class="edge"><title>Node2&#45;&gt;Node3</title>
<path fill="none" stroke="midnightblue" d="M101.633,-116.362C101.377,-108.922 101.026,-98.7427 100.715,-89.7276"/>
<polygon fill="midnightblue" stroke="midnightblue" points="104.207,-89.4441 100.365,-79.5707 97.2113,-89.6854 104.207,-89.4441"/>
</g>
<!-- Node4 -->
<g id="node7" class="node"><title>Node4</title>
<polygon fill="white" stroke="#bfbfbf" points="-0.5,-0.5 -0.5,-21.5 54.5,-21.5 54.5,-0.5 -0.5,-0.5"/>
<text text-anchor="middle" x="27" y="-8.5" font-family="Helvetica,sans-Serif" font-size="10.00">QObject</text>
</g>
<!-- Node2&#45;&gt;Node4 -->
<g id="edge16" class="edge"><title>Node2&#45;&gt;Node4</title>
<path fill="none" stroke="midnightblue" d="M85.3742,-116.33C73.3826,-107.832 57.6658,-94.9148 48,-80 38.4491,-65.2626 33.0602,-45.9632 30.1396,-31.5238"/>
<polygon fill="midnightblue" stroke="midnightblue" points="33.5678,-30.8114 28.3592,-21.5852 26.6774,-32.0457 33.5678,-30.8114"/>
</g>
<!-- Node2&#45;&gt;Node8 -->
<g id="edge14" class="edge"><title>Node2&#45;&gt;Node8</title>
<path fill="none" stroke="midnightblue" d="M117.59,-116.362C130.291,-107.696 148.438,-95.3126 162.992,-85.3819"/>
<polygon fill="midnightblue" stroke="midnightblue" points="165.221,-88.0982 171.509,-79.5707 161.276,-82.316 165.221,-88.0982"/>
</g>
<!-- Node3&#45;&gt;Node4 -->
<g id="edge6" class="edge"><title>Node3&#45;&gt;Node4</title>
<path fill="none" stroke="midnightblue" d="M86.6107,-58.3619C75.9088,-49.859 60.704,-37.7785 48.3293,-27.9466"/>
<polygon fill="midnightblue" stroke="midnightblue" points="50.3113,-25.0511 40.3044,-21.5707 45.9568,-30.5318 50.3113,-25.0511"/>
</g>
<!-- Node5 -->
<g id="node9" class="node"><title>Node5</title>
<polygon fill="white" stroke="#bfbfbf" points="71.5,-0.5 71.5,-21.5 130.5,-21.5 130.5,-0.5 71.5,-0.5"/>
<text text-anchor="middle" x="101" y="-8.5" font-family="Helvetica,sans-Serif" font-size="10.00">QPixmap</text>
</g>
<!-- Node3&#45;&gt;Node5 -->
<g id="edge8" class="edge"><title>Node3&#45;&gt;Node5</title>
<path fill="none" stroke="midnightblue" d="M100.183,-58.3619C100.312,-50.9219 100.487,-40.7427 100.643,-31.7276"/>
<polygon fill="midnightblue" stroke="midnightblue" points="104.145,-31.6295 100.818,-21.5707 97.1458,-31.5088 104.145,-31.6295"/>
</g>
<!-- Node6 -->
<g id="node11" class="node"><title>Node6</title>
<polygon fill="white" stroke="#bfbfbf" points="214,-0.5 214,-21.5 260,-21.5 260,-0.5 214,-0.5"/>
<text text-anchor="middle" x="237" y="-8.5" font-family="Helvetica,sans-Serif" font-size="10.00">QUuid</text>
</g>
<!-- Node3&#45;&gt;Node6 -->
<g id="edge10" class="edge"><title>Node3&#45;&gt;Node6</title>
<path fill="none" stroke="midnightblue" d="M124.81,-58.4966C147.137,-49.044 180.094,-35.0915 204.516,-24.7524"/>
<polygon fill="midnightblue" stroke="midnightblue" points="205.901,-27.9668 213.745,-20.8451 203.172,-21.5207 205.901,-27.9668"/>
</g>
<!-- Node7 -->
<g id="node13" class="node"><title>Node7</title>
<polygon fill="white" stroke="#bfbfbf" points="147.5,-0.5 147.5,-21.5 192.5,-21.5 192.5,-0.5 147.5,-0.5"/>
<text text-anchor="middle" x="170" y="-8.5" font-family="Helvetica,sans-Serif" font-size="10.00">QSize</text>
</g>
<!-- Node3&#45;&gt;Node7 -->
<g id="edge12" class="edge"><title>Node3&#45;&gt;Node7</title>
<path fill="none" stroke="midnightblue" d="M112.839,-58.3619C123.002,-49.9408 137.401,-38.0105 149.204,-28.2308"/>
<polygon fill="midnightblue" stroke="midnightblue" points="151.775,-30.6459 157.242,-21.5707 147.309,-25.2558 151.775,-30.6459"/>
</g>
<!-- Node9&#45;&gt;Node6 -->
<g id="edge30" class="edge"><title>Node9&#45;&gt;Node6</title>
<path fill="none" stroke="midnightblue" d="M323.635,-116.48C301.61,-109.464 276.774,-98.0923 260,-80 247.703,-66.737 241.967,-46.715 239.299,-31.6495"/>
<polygon fill="midnightblue" stroke="midnightblue" points="242.757,-31.112 237.849,-21.723 235.831,-32.1239 242.757,-31.112"/>
</g>
<!-- Node9&#45;&gt;Node8 -->
<g id="edge24" class="edge"><title>Node9&#45;&gt;Node8</title>
<path fill="none" stroke="midnightblue" d="M338.498,-116.497C306.037,-106.32 256.939,-90.9269 223.499,-80.443"/>
<polygon fill="midnightblue" stroke="midnightblue" points="224.249,-77.0101 213.66,-77.3582 222.155,-83.6896 224.249,-77.0101"/>
</g>
<!-- Node10 -->
<g id="node20" class="node"><title>Node10</title>
<polygon fill="white" stroke="#bfbfbf" points="268.5,-58.5 268.5,-79.5 327.5,-79.5 327.5,-58.5 268.5,-58.5"/>
<text text-anchor="middle" x="298" y="-66.5" font-family="Helvetica,sans-Serif" font-size="10.00">qglobal.h</text>
</g>
<!-- Node9&#45;&gt;Node10 -->
<g id="edge20" class="edge"><title>Node9&#45;&gt;Node10</title>
<path fill="none" stroke="midnightblue" d="M358.427,-116.362C347.579,-107.859 332.166,-95.7785 319.621,-85.9466"/>
<polygon fill="midnightblue" stroke="midnightblue" points="321.516,-82.9848 311.487,-79.5707 317.198,-88.4942 321.516,-82.9848"/>
</g>
<!-- Node11 -->
<g id="node22" class="node"><title>Node11</title>
<polygon fill="white" stroke="#bfbfbf" points="345,-58.5 345,-79.5 399,-79.5 399,-58.5 345,-58.5"/>
<text text-anchor="middle" x="372" y="-66.5" font-family="Helvetica,sans-Serif" font-size="10.00">qmath.h</text>
</g>
<!-- Node9&#45;&gt;Node11 -->
<g id="edge22" class="edge"><title>Node9&#45;&gt;Node11</title>
<path fill="none" stroke="midnightblue" d="M372,-116.362C372,-108.922 372,-98.7427 372,-89.7276"/>
<polygon fill="midnightblue" stroke="midnightblue" points="375.5,-89.5706 372,-79.5707 368.5,-89.5707 375.5,-89.5706"/>
</g>
<!-- Node12 -->
<g id="node25" class="node"><title>Node12</title>
<polygon fill="white" stroke="#bfbfbf" points="416.5,-58.5 416.5,-79.5 465.5,-79.5 465.5,-58.5 416.5,-58.5"/>
<text text-anchor="middle" x="441" y="-66.5" font-family="Helvetica,sans-Serif" font-size="10.00">QPoint</text>
</g>
<!-- Node9&#45;&gt;Node12 -->
<g id="edge26" class="edge"><title>Node9&#45;&gt;Node12</title>
<path fill="none" stroke="midnightblue" d="M384.656,-116.362C394.674,-107.941 408.867,-96.0105 420.501,-86.2308"/>
<polygon fill="midnightblue" stroke="midnightblue" points="423.022,-88.6844 428.425,-79.5707 418.518,-83.326 423.022,-88.6844"/>
</g>
<!-- Node9&#45;&gt;Node13 -->
<g id="edge28" class="edge"><title>Node9&#45;&gt;Node13</title>
<path fill="none" stroke="midnightblue" d="M425.177,-118.036C490.813,-106.92 597.945,-88.5975 638.293,-80.086"/>
<polygon fill="midnightblue" stroke="midnightblue" points="639.193,-83.4713 648.185,-77.8687 637.661,-76.6408 639.193,-83.4713"/>
</g>
<!-- Node14 -->
<g id="node30" class="node"><title>Node14</title>
<polygon fill="white" stroke="#bfbfbf" points="483,-58.5 483,-79.5 533,-79.5 533,-58.5 483,-58.5"/>
<text text-anchor="middle" x="508" y="-66.5" font-family="Helvetica,sans-Serif" font-size="10.00">QHash</text>
</g>
<!-- Node9&#45;&gt;Node14 -->
<g id="edge32" class="edge"><title>Node9&#45;&gt;Node14</title>
<path fill="none" stroke="midnightblue" d="M396.629,-116.497C418.157,-107.315 449.64,-93.8889 473.645,-83.6516"/>
<polygon fill="midnightblue" stroke="midnightblue" points="475.27,-86.7636 483.095,-79.6212 472.524,-80.3247 475.27,-86.7636"/>
</g>
<!-- Node15 -->
<g id="node32" class="node"><title>Node15</title>
<polygon fill="white" stroke="#bfbfbf" points="551,-58.5 551,-79.5 631,-79.5 631,-58.5 551,-58.5"/>
<text text-anchor="middle" x="591" y="-66.5" font-family="Helvetica,sans-Serif" font-size="10.00">QVariantMap</text>
</g>
<!-- Node9&#45;&gt;Node15 -->
<g id="edge34" class="edge"><title>Node9&#45;&gt;Node15</title>
<path fill="none" stroke="midnightblue" d="M411.659,-116.497C448.058,-106.857 502.126,-92.5373 541.375,-82.1427"/>
<polygon fill="midnightblue" stroke="midnightblue" points="542.496,-85.4666 551.266,-79.5231 540.704,-78.6999 542.496,-85.4666"/>
</g>
</g>
</svg>
