<?xml version="1.0" encoding="UTF-8" standalone="no"?>
<!DOCTYPE svg PUBLIC "-//W3C//DTD SVG 1.1//EN"
 "http://www.w3.org/Graphics/SVG/1.1/DTD/svg11.dtd">
<!-- Generated by graphviz version 2.26.3 (20100126.1600)
 -->
<!-- Title: pixmaphugeobject.h Pages: 1 -->
<svg width="455pt" height="146pt"
 viewBox="0.00 0.00 455.00 146.00" xmlns="http://www.w3.org/2000/svg" xmlns:xlink="http://www.w3.org/1999/xlink">
<g id="graph1" class="graph" transform="scale(1 1) rotate(0) translate(4 142)">
<title>pixmaphugeobject.h</title>
<polygon fill="white" stroke="white" points="-4,5 -4,-142 452,-142 452,5 -4,5"/>
<!-- Node1 -->
<g id="node1" class="node"><title>Node1</title>
<polygon fill="#bfbfbf" stroke="black" points="236,-116.5 236,-137.5 346,-137.5 346,-116.5 236,-116.5"/>
<text text-anchor="middle" x="291" y="-124.5" font-family="Helvetica,sans-Serif" font-size="10.00">pixmaphugeobject.h</text>
</g>
<!-- Node2 -->
<g id="node3" class="node"><title>Node2</title>
<a xlink:href="pixmapobject_8h.htm" target="_top" xlink:title="pixmapobject.h">
<polygon fill="white" stroke="black" points="93,-58.5 93,-79.5 179,-79.5 179,-58.5 93,-58.5"/>
<text text-anchor="middle" x="136" y="-66.5" font-family="Helvetica,sans-Serif" font-size="10.00">pixmapobject.h</text>
</a>
</g>
<!-- Node1&#45;&gt;Node2 -->
<g id="edge2" class="edge"><title>Node1&#45;&gt;Node2</title>
<path fill="none" stroke="midnightblue" d="M262.931,-116.497C237.99,-107.164 201.326,-93.4447 173.808,-83.1475"/>
<polygon fill="midnightblue" stroke="midnightblue" points="174.714,-79.7497 164.122,-79.5231 172.261,-86.3058 174.714,-79.7497"/>
</g>
<!-- Node7 -->
<g id="node13" class="node"><title>Node7</title>
<polygon fill="white" stroke="#bfbfbf" points="197,-58.5 197,-79.5 253,-79.5 253,-58.5 197,-58.5"/>
<text text-anchor="middle" x="225" y="-66.5" font-family="Helvetica,sans-Serif" font-size="10.00">QVector</text>
</g>
<!-- Node1&#45;&gt;Node7 -->
<g id="edge12" class="edge"><title>Node1&#45;&gt;Node7</title>
<path fill="none" stroke="midnightblue" d="M278.895,-116.362C269.312,-107.941 255.736,-96.0105 244.607,-86.2308"/>
<polygon fill="midnightblue" stroke="midnightblue" points="246.851,-83.5427 237.029,-79.5707 242.23,-88.8009 246.851,-83.5427"/>
</g>
<!-- Node8 -->
<g id="node15" class="node"><title>Node8</title>
<polygon fill="white" stroke="#bfbfbf" points="270.5,-58.5 270.5,-79.5 311.5,-79.5 311.5,-58.5 270.5,-58.5"/>
<text text-anchor="middle" x="291" y="-66.5" font-family="Helvetica,sans-Serif" font-size="10.00">QList</text>
</g>
<!-- Node1&#45;&gt;Node8 -->
<g id="edge14" class="edge"><title>Node1&#45;&gt;Node8</title>
<path fill="none" stroke="midnightblue" d="M291,-116.362C291,-108.922 291,-98.7427 291,-89.7276"/>
<polygon fill="midnightblue" stroke="midnightblue" points="294.5,-89.5706 291,-79.5707 287.5,-89.5707 294.5,-89.5706"/>
</g>
<!-- Node9 -->
<g id="node17" class="node"><title>Node9</title>
<polygon fill="white" stroke="#bfbfbf" points="328.5,-58.5 328.5,-79.5 375.5,-79.5 375.5,-58.5 328.5,-58.5"/>
<text text-anchor="middle" x="352" y="-66.5" font-family="Helvetica,sans-Serif" font-size="10.00">QRect</text>
</g>
<!-- Node1&#45;&gt;Node9 -->
<g id="edge16" class="edge"><title>Node1&#45;&gt;Node9</title>
<path fill="none" stroke="midnightblue" d="M302.188,-116.362C310.959,-108.023 323.349,-96.2418 333.578,-86.5162"/>
<polygon fill="midnightblue" stroke="midnightblue" points="336.047,-88.9978 340.883,-79.5707 331.224,-83.9248 336.047,-88.9978"/>
</g>
<!-- Node10 -->
<g id="node19" class="node"><title>Node10</title>
<polygon fill="white" stroke="#bfbfbf" points="392.5,-58.5 392.5,-79.5 447.5,-79.5 447.5,-58.5 392.5,-58.5"/>
<text text-anchor="middle" x="420" y="-66.5" font-family="Helvetica,sans-Serif" font-size="10.00">QDebug</text>
</g>
<!-- Node1&#45;&gt;Node10 -->
<g id="edge18" class="edge"><title>Node1&#45;&gt;Node10</title>
<path fill="none" stroke="midnightblue" d="M314.361,-116.497C334.691,-107.356 364.378,-94.0082 387.109,-83.7883"/>
<polygon fill="midnightblue" stroke="midnightblue" points="388.692,-86.9142 396.377,-79.6212 385.821,-80.5298 388.692,-86.9142"/>
</g>
<!-- Node3 -->
<g id="node5" class="node"><title>Node3</title>
<polygon fill="white" stroke="#bfbfbf" points="-0.5,-0.5 -0.5,-21.5 54.5,-21.5 54.5,-0.5 -0.5,-0.5"/>
<text text-anchor="middle" x="27" y="-8.5" font-family="Helvetica,sans-Serif" font-size="10.00">QObject</text>
</g>
<!-- Node2&#45;&gt;Node3 -->
<g id="edge4" class="edge"><title>Node2&#45;&gt;Node3</title>
<path fill="none" stroke="midnightblue" d="M116.261,-58.4966C99.3899,-49.5194 74.8915,-36.4835 55.8262,-26.3387"/>
<polygon fill="midnightblue" stroke="midnightblue" points="57.4327,-23.2289 46.9606,-21.6212 54.1445,-29.4086 57.4327,-23.2289"/>
</g>
<!-- Node4 -->
<g id="node7" class="node"><title>Node4</title>
<polygon fill="white" stroke="#bfbfbf" points="71.5,-0.5 71.5,-21.5 130.5,-21.5 130.5,-0.5 71.5,-0.5"/>
<text text-anchor="middle" x="101" y="-8.5" font-family="Helvetica,sans-Serif" font-size="10.00">QPixmap</text>
</g>
<!-- Node2&#45;&gt;Node4 -->
<g id="edge6" class="edge"><title>Node2&#45;&gt;Node4</title>
<path fill="none" stroke="midnightblue" d="M129.58,-58.3619C124.844,-50.5131 118.268,-39.6159 112.618,-30.2527"/>
<polygon fill="midnightblue" stroke="midnightblue" points="115.542,-28.3242 107.379,-21.5707 109.549,-31.9409 115.542,-28.3242"/>
</g>
<!-- Node5 -->
<g id="node9" class="node"><title>Node5</title>
<polygon fill="white" stroke="#bfbfbf" points="148,-0.5 148,-21.5 194,-21.5 194,-0.5 148,-0.5"/>
<text text-anchor="middle" x="171" y="-8.5" font-family="Helvetica,sans-Serif" font-size="10.00">QUuid</text>
</g>
<!-- Node2&#45;&gt;Node5 -->
<g id="edge8" class="edge"><title>Node2&#45;&gt;Node5</title>
<path fill="none" stroke="midnightblue" d="M142.42,-58.3619C147.156,-50.5131 153.732,-39.6159 159.382,-30.2527"/>
<polygon fill="midnightblue" stroke="midnightblue" points="162.451,-31.9409 164.621,-21.5707 156.458,-28.3242 162.451,-31.9409"/>
</g>
<!-- Node6 -->
<g id="node11" class="node"><title>Node6</title>
<polygon fill="white" stroke="#bfbfbf" points="211.5,-0.5 211.5,-21.5 256.5,-21.5 256.5,-0.5 211.5,-0.5"/>
<text text-anchor="middle" x="234" y="-8.5" font-family="Helvetica,sans-Serif" font-size="10.00">QSize</text>
</g>
<!-- Node2&#45;&gt;Node6 -->
<g id="edge10" class="edge"><title>Node2&#45;&gt;Node6</title>
<path fill="none" stroke="midnightblue" d="M153.975,-58.3619C168.894,-49.532 190.333,-36.844 207.266,-26.8224"/>
<polygon fill="midnightblue" stroke="midnightblue" points="209.316,-29.6759 216.139,-21.5707 205.751,-23.6519 209.316,-29.6759"/>
</g>
</g>
</svg>
