<?xml version="1.0" encoding="UTF-8" standalone="no"?>
<!DOCTYPE svg PUBLIC "-//W3C//DTD SVG 1.1//EN"
 "http://www.w3.org/Graphics/SVG/1.1/DTD/svg11.dtd">
<!-- Generated by graphviz version 2.26.3 (20100126.1600)
 -->
<!-- Title: pixmaploader.cpp Pages: 1 -->
<svg width="829pt" height="262pt"
 viewBox="0.00 0.00 829.26 262.00" xmlns="http://www.w3.org/2000/svg" xmlns:xlink="http://www.w3.org/1999/xlink">
<g id="graph1" class="graph" transform="scale(1 1) rotate(0) translate(4 258)">
<title>pixmaploader.cpp</title>
<polygon fill="white" stroke="white" points="-4,5 -4,-258 826.259,-258 826.259,5 -4,5"/>
<!-- Node1 -->
<g id="node1" class="node"><title>Node1</title>
<polygon fill="#bfbfbf" stroke="black" points="340.259,-232.5 340.259,-253.5 440.259,-253.5 440.259,-232.5 340.259,-232.5"/>
<text text-anchor="middle" x="390.259" y="-240.5" font-family="Helvetica,sans-Serif" font-size="10.00">pixmaploader.cpp</text>
</g>
<!-- Node2 -->
<g id="node3" class="node"><title>Node2</title>
<a xlink:href="pixmaploader_8h.htm" target="_top" xlink:title="pixmaploader.h">
<polygon fill="white" stroke="black" points="587.759,-174.5 587.759,-195.5 676.759,-195.5 676.759,-174.5 587.759,-174.5"/>
<text text-anchor="middle" x="632.259" y="-182.5" font-family="Helvetica,sans-Serif" font-size="10.00">pixmaploader.h</text>
</a>
</g>
<!-- Node1&#45;&gt;Node2 -->
<g id="edge2" class="edge"><title>Node1&#45;&gt;Node2</title>
<path fill="none" stroke="midnightblue" d="M434.084,-232.497C474.646,-222.775 535.068,-208.294 578.524,-197.879"/>
<polygon fill="midnightblue" stroke="midnightblue" points="579.444,-201.257 588.353,-195.523 577.812,-194.45 579.444,-201.257"/>
</g>
<!-- Node3 -->
<g id="node5" class="node"><title>Node3</title>
<a xlink:href="pixmapfilmstripobject_8h.htm" target="_top" xlink:title="pixmapfilmstripobject.h">
<polygon fill="white" stroke="black" points="439.259,-116.5 439.259,-137.5 561.259,-137.5 561.259,-116.5 439.259,-116.5"/>
<text text-anchor="middle" x="500.259" y="-124.5" font-family="Helvetica,sans-Serif" font-size="10.00">pixmapfilmstripobject.h</text>
</a>
</g>
<!-- Node1&#45;&gt;Node3 -->
<g id="edge64" class="edge"><title>Node1&#45;&gt;Node3</title>
<path fill="none" stroke="midnightblue" d="M400.411,-232.295C419.238,-212.441 459.759,-169.709 482.978,-145.224"/>
<polygon fill="midnightblue" stroke="midnightblue" points="485.791,-147.344 490.132,-137.679 480.712,-142.527 485.791,-147.344"/>
</g>
<!-- Node4 -->
<g id="node7" class="node"><title>Node4</title>
<a xlink:href="pixmapobject_8h.htm" target="_top" xlink:title="pixmapobject.h">
<polygon fill="white" stroke="black" points="288.259,-58.5 288.259,-79.5 374.259,-79.5 374.259,-58.5 288.259,-58.5"/>
<text text-anchor="middle" x="331.259" y="-66.5" font-family="Helvetica,sans-Serif" font-size="10.00">pixmapobject.h</text>
</a>
</g>
<!-- Node1&#45;&gt;Node4 -->
<g id="edge40" class="edge"><title>Node1&#45;&gt;Node4</title>
<path fill="none" stroke="midnightblue" d="M393.488,-232.43C399.796,-209.725 411.531,-155.178 392.259,-116 385.864,-102.999 373.951,-92.5825 362.339,-84.8922"/>
<polygon fill="midnightblue" stroke="midnightblue" points="363.969,-81.7861 353.613,-79.5452 360.311,-87.7546 363.969,-81.7861"/>
</g>
<!-- Node16 -->
<g id="node37" class="node"><title>Node16</title>
<a xlink:href="pixmap9tileobject_8h.htm" target="_top" xlink:title="pixmap9tileobject.h">
<polygon fill="white" stroke="black" points="19.2593,-116.5 19.2593,-137.5 125.259,-137.5 125.259,-116.5 19.2593,-116.5"/>
<text text-anchor="middle" x="72.2593" y="-124.5" font-family="Helvetica,sans-Serif" font-size="10.00">pixmap9tileobject.h</text>
</a>
</g>
<!-- Node1&#45;&gt;Node16 -->
<g id="edge42" class="edge"><title>Node1&#45;&gt;Node16</title>
<path fill="none" stroke="midnightblue" d="M361.196,-232.398C303.708,-211.428 175.469,-164.649 110.931,-141.107"/>
<polygon fill="midnightblue" stroke="midnightblue" points="111.734,-137.674 101.14,-137.535 109.335,-144.25 111.734,-137.674"/>
</g>
<!-- Node17 -->
<g id="node42" class="node"><title>Node17</title>
<a xlink:href="pixmap3htileobject_8h.htm" target="_top" xlink:title="pixmap3htileobject.h">
<polygon fill="white" stroke="black" points="271.259,-116.5 271.259,-137.5 383.259,-137.5 383.259,-116.5 271.259,-116.5"/>
<text text-anchor="middle" x="327.259" y="-124.5" font-family="Helvetica,sans-Serif" font-size="10.00">pixmap3htileobject.h</text>
</a>
</g>
<!-- Node1&#45;&gt;Node17 -->
<g id="edge50" class="edge"><title>Node1&#45;&gt;Node17</title>
<path fill="none" stroke="midnightblue" d="M384.445,-232.295C373.85,-212.786 351.258,-171.188 337.859,-146.518"/>
<polygon fill="midnightblue" stroke="midnightblue" points="340.908,-144.796 333.059,-137.679 334.756,-148.137 340.908,-144.796"/>
</g>
<!-- Node18 -->
<g id="node46" class="node"><title>Node18</title>
<a xlink:href="pixmap3vtileobject_8h.htm" target="_top" xlink:title="pixmap3vtileobject.h">
<polygon fill="white" stroke="black" points="142.759,-116.5 142.759,-137.5 253.759,-137.5 253.759,-116.5 142.759,-116.5"/>
<text text-anchor="middle" x="198.259" y="-124.5" font-family="Helvetica,sans-Serif" font-size="10.00">pixmap3vtileobject.h</text>
</a>
</g>
<!-- Node1&#45;&gt;Node18 -->
<g id="edge56" class="edge"><title>Node1&#45;&gt;Node18</title>
<path fill="none" stroke="midnightblue" d="M372.541,-232.295C338.521,-211.741 263.92,-166.67 224.255,-142.706"/>
<polygon fill="midnightblue" stroke="midnightblue" points="226.027,-139.687 215.658,-137.512 222.407,-145.679 226.027,-139.687"/>
</g>
<!-- Node2&#45;&gt;Node3 -->
<g id="edge4" class="edge"><title>Node2&#45;&gt;Node3</title>
<path fill="none" stroke="midnightblue" d="M608.355,-174.497C587.46,-165.315 556.903,-151.889 533.604,-141.652"/>
<polygon fill="midnightblue" stroke="midnightblue" points="534.995,-138.44 524.432,-137.621 532.179,-144.848 534.995,-138.44"/>
</g>
<!-- Node5 -->
<g id="node9" class="node"><title>Node5</title>
<polygon fill="white" stroke="#bfbfbf" points="93.7593,-0.5 93.7593,-21.5 148.759,-21.5 148.759,-0.5 93.7593,-0.5"/>
<text text-anchor="middle" x="121.259" y="-8.5" font-family="Helvetica,sans-Serif" font-size="10.00">QObject</text>
</g>
<!-- Node2&#45;&gt;Node5 -->
<g id="edge28" class="edge"><title>Node2&#45;&gt;Node5</title>
<path fill="none" stroke="midnightblue" d="M587.658,-183.277C448.422,-177.683 29.8873,-159.167 10.2593,-138 -26.2677,-98.6089 46.5575,-50.456 90.7674,-26.3271"/>
<polygon fill="midnightblue" stroke="midnightblue" points="92.5403,-29.3483 99.7173,-21.5547 89.2466,-23.1716 92.5403,-29.3483"/>
</g>
<!-- Node6 -->
<g id="node11" class="node"><title>Node6</title>
<polygon fill="white" stroke="#bfbfbf" points="607.759,-0.5 607.759,-21.5 666.759,-21.5 666.759,-0.5 607.759,-0.5"/>
<text text-anchor="middle" x="637.259" y="-8.5" font-family="Helvetica,sans-Serif" font-size="10.00">QPixmap</text>
</g>
<!-- Node2&#45;&gt;Node6 -->
<g id="edge36" class="edge"><title>Node2&#45;&gt;Node6</title>
<path fill="none" stroke="midnightblue" d="M644.399,-174.247C663.066,-156.743 697.855,-120 709.259,-80 711.94,-70.5969 713.915,-66.5984 709.259,-58 701.752,-44.1346 688.183,-33.7098 674.832,-26.2467"/>
<polygon fill="midnightblue" stroke="midnightblue" points="676.194,-23.0115 665.701,-21.5473 672.991,-29.2355 676.194,-23.0115"/>
</g>
<!-- Node9 -->
<g id="node17" class="node"><title>Node9</title>
<polygon fill="white" stroke="#bfbfbf" points="581.759,-58.5 581.759,-79.5 628.759,-79.5 628.759,-58.5 581.759,-58.5"/>
<text text-anchor="middle" x="605.259" y="-66.5" font-family="Helvetica,sans-Serif" font-size="10.00">QRect</text>
</g>
<!-- Node2&#45;&gt;Node9 -->
<g id="edge38" class="edge"><title>Node2&#45;&gt;Node9</title>
<path fill="none" stroke="midnightblue" d="M636.228,-174.428C640.793,-160.636 646.861,-135.918 640.259,-116 636.791,-105.536 629.988,-95.5092 623.295,-87.4248"/>
<polygon fill="midnightblue" stroke="midnightblue" points="625.757,-84.9263 616.504,-79.7661 620.52,-89.5704 625.757,-84.9263"/>
</g>
<!-- Node13 -->
<g id="node26" class="node"><title>Node13</title>
<polygon fill="white" stroke="#bfbfbf" points="659.759,-58.5 659.759,-79.5 700.759,-79.5 700.759,-58.5 659.759,-58.5"/>
<text text-anchor="middle" x="680.259" y="-66.5" font-family="Helvetica,sans-Serif" font-size="10.00">QList</text>
</g>
<!-- Node2&#45;&gt;Node13 -->
<g id="edge34" class="edge"><title>Node2&#45;&gt;Node13</title>
<path fill="none" stroke="midnightblue" d="M637.892,-174.325C642.768,-164.897 649.865,-150.711 655.259,-138 662.082,-121.924 668.765,-103.283 673.502,-89.4323"/>
<polygon fill="midnightblue" stroke="midnightblue" points="676.839,-90.4898 676.716,-79.8957 670.206,-88.2544 676.839,-90.4898"/>
</g>
<!-- Node14 -->
<g id="node29" class="node"><title>Node14</title>
<polygon fill="white" stroke="#bfbfbf" points="762.759,-116.5 762.759,-137.5 821.759,-137.5 821.759,-116.5 762.759,-116.5"/>
<text text-anchor="middle" x="792.259" y="-124.5" font-family="Helvetica,sans-Serif" font-size="10.00">QPointer</text>
</g>
<!-- Node2&#45;&gt;Node14 -->
<g id="edge30" class="edge"><title>Node2&#45;&gt;Node14</title>
<path fill="none" stroke="midnightblue" d="M661.234,-174.497C687.093,-165.123 725.158,-151.324 753.605,-141.012"/>
<polygon fill="midnightblue" stroke="midnightblue" points="755.022,-144.222 763.23,-137.523 752.636,-137.641 755.022,-144.222"/>
</g>
<!-- Node15 -->
<g id="node31" class="node"><title>Node15</title>
<polygon fill="white" stroke="#bfbfbf" points="578.759,-116.5 578.759,-137.5 631.759,-137.5 631.759,-116.5 578.759,-116.5"/>
<text text-anchor="middle" x="605.259" y="-124.5" font-family="Helvetica,sans-Serif" font-size="10.00">QString</text>
</g>
<!-- Node2&#45;&gt;Node15 -->
<g id="edge32" class="edge"><title>Node2&#45;&gt;Node15</title>
<path fill="none" stroke="midnightblue" d="M627.307,-174.362C623.729,-166.677 618.791,-156.069 614.495,-146.84"/>
<polygon fill="midnightblue" stroke="midnightblue" points="617.573,-145.159 610.18,-137.571 611.227,-148.114 617.573,-145.159"/>
</g>
<!-- Node3&#45;&gt;Node4 -->
<g id="edge6" class="edge"><title>Node3&#45;&gt;Node4</title>
<path fill="none" stroke="midnightblue" d="M469.655,-116.497C442.222,-107.082 401.784,-93.2036 371.695,-82.8773"/>
<polygon fill="midnightblue" stroke="midnightblue" points="372.516,-79.4588 361.921,-79.5231 370.244,-86.0797 372.516,-79.4588"/>
</g>
<!-- Node8 -->
<g id="node15" class="node"><title>Node8</title>
<polygon fill="white" stroke="#bfbfbf" points="447.759,-0.5 447.759,-21.5 492.759,-21.5 492.759,-0.5 447.759,-0.5"/>
<text text-anchor="middle" x="470.259" y="-8.5" font-family="Helvetica,sans-Serif" font-size="10.00">QSize</text>
</g>
<!-- Node3&#45;&gt;Node8 -->
<g id="edge22" class="edge"><title>Node3&#45;&gt;Node8</title>
<path fill="none" stroke="midnightblue" d="M510.121,-116.052C521.264,-102.281 536.696,-78.0121 527.259,-58 521.302,-45.3676 510.1,-34.9782 499.193,-27.2091"/>
<polygon fill="midnightblue" stroke="midnightblue" points="500.889,-24.1346 490.614,-21.5475 497.033,-29.977 500.889,-24.1346"/>
</g>
<!-- Node3&#45;&gt;Node9 -->
<g id="edge16" class="edge"><title>Node3&#45;&gt;Node9</title>
<path fill="none" stroke="midnightblue" d="M519.518,-116.362C535.725,-107.409 559.112,-94.4908 577.368,-84.4064"/>
<polygon fill="midnightblue" stroke="midnightblue" points="579.062,-87.4696 586.123,-79.5707 575.677,-81.3422 579.062,-87.4696"/>
</g>
<!-- Node10 -->
<g id="node19" class="node"><title>Node10</title>
<polygon fill="white" stroke="#bfbfbf" points="194.759,-58.5 194.759,-79.5 247.759,-79.5 247.759,-58.5 194.759,-58.5"/>
<text text-anchor="middle" x="221.259" y="-66.5" font-family="Helvetica,sans-Serif" font-size="10.00">QRectF</text>
</g>
<!-- Node3&#45;&gt;Node10 -->
<g id="edge18" class="edge"><title>Node3&#45;&gt;Node10</title>
<path fill="none" stroke="midnightblue" d="M449.734,-116.497C394.318,-104.976 306.752,-86.7726 257.681,-76.5715"/>
<polygon fill="midnightblue" stroke="midnightblue" points="258.323,-73.1302 247.82,-74.5215 256.898,-79.9836 258.323,-73.1302"/>
</g>
<!-- Node11 -->
<g id="node21" class="node"><title>Node11</title>
<polygon fill="white" stroke="#bfbfbf" points="395.759,-58.5 395.759,-79.5 450.759,-79.5 450.759,-58.5 395.759,-58.5"/>
<text text-anchor="middle" x="423.259" y="-66.5" font-family="Helvetica,sans-Serif" font-size="10.00">QPointF</text>
</g>
<!-- Node3&#45;&gt;Node11 -->
<g id="edge20" class="edge"><title>Node3&#45;&gt;Node11</title>
<path fill="none" stroke="midnightblue" d="M486.136,-116.362C474.739,-107.777 458.501,-95.5459 445.382,-85.6636"/>
<polygon fill="midnightblue" stroke="midnightblue" points="447.386,-82.7916 437.293,-79.5707 443.174,-88.3829 447.386,-82.7916"/>
</g>
<!-- Node12 -->
<g id="node24" class="node"><title>Node12</title>
<polygon fill="white" stroke="#bfbfbf" points="467.759,-58.5 467.759,-79.5 518.759,-79.5 518.759,-58.5 467.759,-58.5"/>
<text text-anchor="middle" x="493.259" y="-66.5" font-family="Helvetica,sans-Serif" font-size="10.00">QSizeF</text>
</g>
<!-- Node3&#45;&gt;Node12 -->
<g id="edge24" class="edge"><title>Node3&#45;&gt;Node12</title>
<path fill="none" stroke="midnightblue" d="M498.975,-116.362C498.077,-108.922 496.849,-98.7427 495.761,-89.7276"/>
<polygon fill="midnightblue" stroke="midnightblue" points="499.208,-89.0792 494.535,-79.5707 492.259,-89.918 499.208,-89.0792"/>
</g>
<!-- Node3&#45;&gt;Node13 -->
<g id="edge26" class="edge"><title>Node3&#45;&gt;Node13</title>
<path fill="none" stroke="midnightblue" d="M532.856,-116.497C566.132,-105.774 617.376,-89.2625 649.84,-78.8017"/>
<polygon fill="midnightblue" stroke="midnightblue" points="651.229,-82.0314 659.674,-75.633 649.082,-75.3687 651.229,-82.0314"/>
</g>
<!-- Node4&#45;&gt;Node5 -->
<g id="edge8" class="edge"><title>Node4&#45;&gt;Node5</title>
<path fill="none" stroke="midnightblue" d="M293.23,-58.4966C255.038,-47.9484 196.558,-31.7967 158.609,-21.3155"/>
<polygon fill="midnightblue" stroke="midnightblue" points="159.527,-17.9382 148.956,-18.6496 157.663,-24.6856 159.527,-17.9382"/>
</g>
<!-- Node4&#45;&gt;Node6 -->
<g id="edge10" class="edge"><title>Node4&#45;&gt;Node6</title>
<path fill="none" stroke="midnightblue" d="M374.361,-60.4969C378.717,-59.6486 383.075,-58.8042 387.259,-58 461.557,-43.7191 548.371,-27.5039 597.678,-18.3386"/>
<polygon fill="midnightblue" stroke="midnightblue" points="598.419,-21.7608 607.612,-16.4931 597.141,-14.8786 598.419,-21.7608"/>
</g>
<!-- Node7 -->
<g id="node13" class="node"><title>Node7</title>
<polygon fill="white" stroke="#bfbfbf" points="308.259,-0.5 308.259,-21.5 354.259,-21.5 354.259,-0.5 308.259,-0.5"/>
<text text-anchor="middle" x="331.259" y="-8.5" font-family="Helvetica,sans-Serif" font-size="10.00">QUuid</text>
</g>
<!-- Node4&#45;&gt;Node7 -->
<g id="edge12" class="edge"><title>Node4&#45;&gt;Node7</title>
<path fill="none" stroke="midnightblue" d="M331.259,-58.3619C331.259,-50.9219 331.259,-40.7427 331.259,-31.7276"/>
<polygon fill="midnightblue" stroke="midnightblue" points="334.759,-31.5706 331.259,-21.5707 327.759,-31.5707 334.759,-31.5706"/>
</g>
<!-- Node4&#45;&gt;Node8 -->
<g id="edge14" class="edge"><title>Node4&#45;&gt;Node8</title>
<path fill="none" stroke="midnightblue" d="M356.431,-58.4966C379.361,-48.9287 413.34,-34.7506 438.204,-24.3758"/>
<polygon fill="midnightblue" stroke="midnightblue" points="439.695,-27.546 447.576,-20.465 436.999,-21.0858 439.695,-27.546"/>
</g>
<!-- Node16&#45;&gt;Node4 -->
<g id="edge44" class="edge"><title>Node16&#45;&gt;Node4</title>
<path fill="none" stroke="midnightblue" d="M119.162,-116.497C163.979,-106.46 231.449,-91.3514 278.207,-80.8805"/>
<polygon fill="midnightblue" stroke="midnightblue" points="279.154,-84.2551 288.148,-78.6543 277.624,-77.4243 279.154,-84.2551"/>
</g>
<!-- Node16&#45;&gt;Node5 -->
<g id="edge48" class="edge"><title>Node16&#45;&gt;Node5</title>
<path fill="none" stroke="midnightblue" d="M76.7812,-116.295C84.9491,-96.9588 102.283,-55.9229 112.736,-31.1767"/>
<polygon fill="midnightblue" stroke="midnightblue" points="116.081,-32.253 116.748,-21.6792 109.633,-29.5291 116.081,-32.253"/>
</g>
<!-- Node16&#45;&gt;Node10 -->
<g id="edge46" class="edge"><title>Node16&#45;&gt;Node10</title>
<path fill="none" stroke="midnightblue" d="M99.2421,-116.497C123.367,-107.106 158.901,-93.2735 185.408,-82.9554"/>
<polygon fill="midnightblue" stroke="midnightblue" points="186.679,-86.2169 194.728,-79.3277 184.139,-79.6936 186.679,-86.2169"/>
</g>
<!-- Node17&#45;&gt;Node4 -->
<g id="edge52" class="edge"><title>Node17&#45;&gt;Node4</title>
<path fill="none" stroke="midnightblue" d="M327.993,-116.362C328.506,-108.922 329.208,-98.7427 329.83,-89.7276"/>
<polygon fill="midnightblue" stroke="midnightblue" points="333.334,-89.7878 330.53,-79.5707 326.35,-89.3061 333.334,-89.7878"/>
</g>
<!-- Node17&#45;&gt;Node10 -->
<g id="edge54" class="edge"><title>Node17&#45;&gt;Node10</title>
<path fill="none" stroke="midnightblue" d="M307.817,-116.362C291.456,-107.409 267.846,-94.4908 249.416,-84.4064"/>
<polygon fill="midnightblue" stroke="midnightblue" points="251.031,-81.3004 240.578,-79.5707 247.671,-87.4412 251.031,-81.3004"/>
</g>
<!-- Node18&#45;&gt;Node4 -->
<g id="edge58" class="edge"><title>Node18&#45;&gt;Node4</title>
<path fill="none" stroke="midnightblue" d="M222.345,-116.497C243.398,-107.315 274.186,-93.8889 297.662,-83.6516"/>
<polygon fill="midnightblue" stroke="midnightblue" points="299.136,-86.8268 306.904,-79.6212 296.338,-80.4104 299.136,-86.8268"/>
</g>
<!-- Node18&#45;&gt;Node5 -->
<g id="edge62" class="edge"><title>Node18&#45;&gt;Node5</title>
<path fill="none" stroke="midnightblue" d="M191.153,-116.295C178.146,-96.6998 150.347,-54.8198 133.998,-30.1913"/>
<polygon fill="midnightblue" stroke="midnightblue" points="136.795,-28.0751 128.348,-21.6792 130.962,-31.9464 136.795,-28.0751"/>
</g>
<!-- Node18&#45;&gt;Node10 -->
<g id="edge60" class="edge"><title>Node18&#45;&gt;Node10</title>
<path fill="none" stroke="midnightblue" d="M202.478,-116.362C205.493,-108.758 209.643,-98.294 213.275,-89.1349"/>
<polygon fill="midnightblue" stroke="midnightblue" points="216.635,-90.1567 217.067,-79.5707 210.128,-87.5762 216.635,-90.1567"/>
</g>
</g>
</svg>
