<?xml version="1.0" encoding="UTF-8" standalone="no"?>
<!DOCTYPE svg PUBLIC "-//W3C//DTD SVG 1.1//EN"
 "http://www.w3.org/Graphics/SVG/1.1/DTD/svg11.dtd">
<!-- Generated by graphviz version 2.26.3 (20100126.1600)
 -->
<!-- Title: pixmap3htileobject.h Pages: 1 -->
<svg width="264pt" height="146pt"
 viewBox="0.00 0.00 264.00 146.00" xmlns="http://www.w3.org/2000/svg" xmlns:xlink="http://www.w3.org/1999/xlink">
<g id="graph1" class="graph" transform="scale(1 1) rotate(0) translate(4 142)">
<title>pixmap3htileobject.h</title>
<polygon fill="white" stroke="white" points="-4,5 -4,-142 261,-142 261,5 -4,5"/>
<!-- Node1 -->
<g id="node1" class="node"><title>Node1</title>
<polygon fill="#bfbfbf" stroke="black" points="123,-116.5 123,-137.5 235,-137.5 235,-116.5 123,-116.5"/>
<text text-anchor="middle" x="179" y="-124.5" font-family="Helvetica,sans-Serif" font-size="10.00">pixmap3htileobject.h</text>
</g>
<!-- Node2 -->
<g id="node3" class="node"><title>Node2</title>
<a xlink:href="pixmapobject_8h.htm" target="_top" xlink:title="pixmapobject.h">
<polygon fill="white" stroke="black" points="93,-58.5 93,-79.5 179,-79.5 179,-58.5 93,-58.5"/>
<text text-anchor="middle" x="136" y="-66.5" font-family="Helvetica,sans-Serif" font-size="10.00">pixmapobject.h</text>
</a>
</g>
<!-- Node1&#45;&gt;Node2 -->
<g id="edge2" class="edge"><title>Node1&#45;&gt;Node2</title>
<path fill="none" stroke="midnightblue" d="M171.113,-116.362C165.173,-108.35 156.878,-97.1605 149.841,-87.6696"/>
<polygon fill="midnightblue" stroke="midnightblue" points="152.604,-85.5193 143.837,-79.5707 146.981,-89.6883 152.604,-85.5193"/>
</g>
<!-- Node7 -->
<g id="node13" class="node"><title>Node7</title>
<polygon fill="white" stroke="#bfbfbf" points="196.5,-58.5 196.5,-79.5 249.5,-79.5 249.5,-58.5 196.5,-58.5"/>
<text text-anchor="middle" x="223" y="-66.5" font-family="Helvetica,sans-Serif" font-size="10.00">QRectF</text>
</g>
<!-- Node1&#45;&gt;Node7 -->
<g id="edge12" class="edge"><title>Node1&#45;&gt;Node7</title>
<path fill="none" stroke="midnightblue" d="M187.07,-116.362C193.149,-108.35 201.637,-97.1605 208.837,-87.6696"/>
<polygon fill="midnightblue" stroke="midnightblue" points="211.725,-89.653 214.981,-79.5707 206.149,-85.4222 211.725,-89.653"/>
</g>
<!-- Node3 -->
<g id="node5" class="node"><title>Node3</title>
<polygon fill="white" stroke="#bfbfbf" points="-0.5,-0.5 -0.5,-21.5 54.5,-21.5 54.5,-0.5 -0.5,-0.5"/>
<text text-anchor="middle" x="27" y="-8.5" font-family="Helvetica,sans-Serif" font-size="10.00">QObject</text>
</g>
<!-- Node2&#45;&gt;Node3 -->
<g id="edge4" class="edge"><title>Node2&#45;&gt;Node3</title>
<path fill="none" stroke="midnightblue" d="M116.261,-58.4966C99.3899,-49.5194 74.8915,-36.4835 55.8262,-26.3387"/>
<polygon fill="midnightblue" stroke="midnightblue" points="57.4327,-23.2289 46.9606,-21.6212 54.1445,-29.4086 57.4327,-23.2289"/>
</g>
<!-- Node4 -->
<g id="node7" class="node"><title>Node4</title>
<polygon fill="white" stroke="#bfbfbf" points="71.5,-0.5 71.5,-21.5 130.5,-21.5 130.5,-0.5 71.5,-0.5"/>
<text text-anchor="middle" x="101" y="-8.5" font-family="Helvetica,sans-Serif" font-size="10.00">QPixmap</text>
</g>
<!-- Node2&#45;&gt;Node4 -->
<g id="edge6" class="edge"><title>Node2&#45;&gt;Node4</title>
<path fill="none" stroke="midnightblue" d="M129.58,-58.3619C124.844,-50.5131 118.268,-39.6159 112.618,-30.2527"/>
<polygon fill="midnightblue" stroke="midnightblue" points="115.542,-28.3242 107.379,-21.5707 109.549,-31.9409 115.542,-28.3242"/>
</g>
<!-- Node5 -->
<g id="node9" class="node"><title>Node5</title>
<polygon fill="white" stroke="#bfbfbf" points="148,-0.5 148,-21.5 194,-21.5 194,-0.5 148,-0.5"/>
<text text-anchor="middle" x="171" y="-8.5" font-family="Helvetica,sans-Serif" font-size="10.00">QUuid</text>
</g>
<!-- Node2&#45;&gt;Node5 -->
<g id="edge8" class="edge"><title>Node2&#45;&gt;Node5</title>
<path fill="none" stroke="midnightblue" d="M142.42,-58.3619C147.156,-50.5131 153.732,-39.6159 159.382,-30.2527"/>
<polygon fill="midnightblue" stroke="midnightblue" points="162.451,-31.9409 164.621,-21.5707 156.458,-28.3242 162.451,-31.9409"/>
</g>
<!-- Node6 -->
<g id="node11" class="node"><title>Node6</title>
<polygon fill="white" stroke="#bfbfbf" points="211.5,-0.5 211.5,-21.5 256.5,-21.5 256.5,-0.5 211.5,-0.5"/>
<text text-anchor="middle" x="234" y="-8.5" font-family="Helvetica,sans-Serif" font-size="10.00">QSize</text>
</g>
<!-- Node2&#45;&gt;Node6 -->
<g id="edge10" class="edge"><title>Node2&#45;&gt;Node6</title>
<path fill="none" stroke="midnightblue" d="M153.975,-58.3619C168.894,-49.532 190.333,-36.844 207.266,-26.8224"/>
<polygon fill="midnightblue" stroke="midnightblue" points="209.316,-29.6759 216.139,-21.5707 205.751,-23.6519 209.316,-29.6759"/>
</g>
</g>
</svg>
