<?xml version="1.0" encoding="UTF-8" standalone="no"?>
<!DOCTYPE svg PUBLIC "-//W3C//DTD SVG 1.1//EN"
 "http://www.w3.org/Graphics/SVG/1.1/DTD/svg11.dtd">
<!-- Generated by graphviz version 2.26.3 (20100126.1600)
 -->
<!-- Title: pixmapjupocobject.h Pages: 1 -->
<svg width="379pt" height="146pt"
 viewBox="0.00 0.00 379.00 146.00" xmlns="http://www.w3.org/2000/svg" xmlns:xlink="http://www.w3.org/1999/xlink">
<g id="graph1" class="graph" transform="scale(1 1) rotate(0) translate(4 142)">
<title>pixmapjupocobject.h</title>
<polygon fill="white" stroke="white" points="-4,5 -4,-142 376,-142 376,5 -4,5"/>
<!-- Node1 -->
<g id="node1" class="node"><title>Node1</title>
<polygon fill="#bfbfbf" stroke="black" points="202.5,-116.5 202.5,-137.5 313.5,-137.5 313.5,-116.5 202.5,-116.5"/>
<text text-anchor="middle" x="258" y="-124.5" font-family="Helvetica,sans-Serif" font-size="10.00">pixmapjupocobject.h</text>
</g>
<!-- Node2 -->
<g id="node3" class="node"><title>Node2</title>
<a xlink:href="pixmapobject_8h.htm" target="_top" xlink:title="pixmapobject.h">
<polygon fill="white" stroke="black" points="119,-58.5 119,-79.5 205,-79.5 205,-58.5 119,-58.5"/>
<text text-anchor="middle" x="162" y="-66.5" font-family="Helvetica,sans-Serif" font-size="10.00">pixmapobject.h</text>
</a>
</g>
<!-- Node1&#45;&gt;Node2 -->
<g id="edge2" class="edge"><title>Node1&#45;&gt;Node2</title>
<path fill="none" stroke="midnightblue" d="M240.392,-116.362C225.777,-107.532 204.776,-94.844 188.189,-84.8224"/>
<polygon fill="midnightblue" stroke="midnightblue" points="189.865,-81.7461 179.496,-79.5707 186.246,-87.7376 189.865,-81.7461"/>
</g>
<!-- Node5 -->
<g id="node9" class="node"><title>Node5</title>
<polygon fill="white" stroke="#bfbfbf" points="210,-0.5 210,-21.5 256,-21.5 256,-0.5 210,-0.5"/>
<text text-anchor="middle" x="233" y="-8.5" font-family="Helvetica,sans-Serif" font-size="10.00">QUuid</text>
</g>
<!-- Node1&#45;&gt;Node5 -->
<g id="edge14" class="edge"><title>Node1&#45;&gt;Node5</title>
<path fill="none" stroke="midnightblue" d="M255.693,-116.295C251.544,-97.0451 242.761,-56.2889 237.42,-31.5091"/>
<polygon fill="midnightblue" stroke="midnightblue" points="240.83,-30.7174 235.302,-21.6792 233.987,-32.1922 240.83,-30.7174"/>
</g>
<!-- Node7 -->
<g id="node13" class="node"><title>Node7</title>
<polygon fill="white" stroke="#bfbfbf" points="260.5,-58.5 260.5,-79.5 307.5,-79.5 307.5,-58.5 260.5,-58.5"/>
<text text-anchor="middle" x="284" y="-66.5" font-family="Helvetica,sans-Serif" font-size="10.00">QRect</text>
</g>
<!-- Node1&#45;&gt;Node7 -->
<g id="edge12" class="edge"><title>Node1&#45;&gt;Node7</title>
<path fill="none" stroke="midnightblue" d="M262.769,-116.362C266.214,-108.677 270.969,-98.0686 275.106,-88.8399"/>
<polygon fill="midnightblue" stroke="midnightblue" points="278.365,-90.1275 279.261,-79.5707 271.977,-87.264 278.365,-90.1275"/>
</g>
<!-- Node8 -->
<g id="node16" class="node"><title>Node8</title>
<polygon fill="white" stroke="#bfbfbf" points="325,-58.5 325,-79.5 371,-79.5 371,-58.5 325,-58.5"/>
<text text-anchor="middle" x="348" y="-66.5" font-family="Helvetica,sans-Serif" font-size="10.00">QMap</text>
</g>
<!-- Node1&#45;&gt;Node8 -->
<g id="edge16" class="edge"><title>Node1&#45;&gt;Node8</title>
<path fill="none" stroke="midnightblue" d="M274.507,-116.362C288.082,-107.614 307.533,-95.0786 323.015,-85.1015"/>
<polygon fill="midnightblue" stroke="midnightblue" points="325.088,-87.9297 331.597,-79.5707 321.296,-82.0457 325.088,-87.9297"/>
</g>
<!-- Node3 -->
<g id="node5" class="node"><title>Node3</title>
<polygon fill="white" stroke="#bfbfbf" points="-0.5,-0.5 -0.5,-21.5 54.5,-21.5 54.5,-0.5 -0.5,-0.5"/>
<text text-anchor="middle" x="27" y="-8.5" font-family="Helvetica,sans-Serif" font-size="10.00">QObject</text>
</g>
<!-- Node2&#45;&gt;Node3 -->
<g id="edge4" class="edge"><title>Node2&#45;&gt;Node3</title>
<path fill="none" stroke="midnightblue" d="M137.553,-58.4966C116.182,-49.3154 84.931,-35.8889 61.1028,-25.6516"/>
<polygon fill="midnightblue" stroke="midnightblue" points="62.2914,-22.3529 51.7218,-21.6212 59.5281,-28.7845 62.2914,-22.3529"/>
</g>
<!-- Node4 -->
<g id="node7" class="node"><title>Node4</title>
<polygon fill="white" stroke="#bfbfbf" points="71.5,-0.5 71.5,-21.5 130.5,-21.5 130.5,-0.5 71.5,-0.5"/>
<text text-anchor="middle" x="101" y="-8.5" font-family="Helvetica,sans-Serif" font-size="10.00">QPixmap</text>
</g>
<!-- Node2&#45;&gt;Node4 -->
<g id="edge6" class="edge"><title>Node2&#45;&gt;Node4</title>
<path fill="none" stroke="midnightblue" d="M150.812,-58.3619C142.041,-50.0226 129.651,-38.2418 119.422,-28.5162"/>
<polygon fill="midnightblue" stroke="midnightblue" points="121.776,-25.9248 112.117,-21.5707 116.953,-30.9978 121.776,-25.9248"/>
</g>
<!-- Node2&#45;&gt;Node5 -->
<g id="edge8" class="edge"><title>Node2&#45;&gt;Node5</title>
<path fill="none" stroke="midnightblue" d="M175.022,-58.3619C185.431,-49.859 200.219,-37.7785 212.255,-27.9466"/>
<polygon fill="midnightblue" stroke="midnightblue" points="214.53,-30.6077 220.06,-21.5707 210.101,-25.1866 214.53,-30.6077"/>
</g>
<!-- Node6 -->
<g id="node11" class="node"><title>Node6</title>
<polygon fill="white" stroke="#bfbfbf" points="147.5,-0.5 147.5,-21.5 192.5,-21.5 192.5,-0.5 147.5,-0.5"/>
<text text-anchor="middle" x="170" y="-8.5" font-family="Helvetica,sans-Serif" font-size="10.00">QSize</text>
</g>
<!-- Node2&#45;&gt;Node6 -->
<g id="edge10" class="edge"><title>Node2&#45;&gt;Node6</title>
<path fill="none" stroke="midnightblue" d="M163.467,-58.3619C164.494,-50.9219 165.898,-40.7427 167.141,-31.7276"/>
<polygon fill="midnightblue" stroke="midnightblue" points="170.643,-31.9551 168.542,-21.5707 163.708,-30.9986 170.643,-31.9551"/>
</g>
</g>
</svg>
