<?xml version="1.0" encoding="UTF-8" standalone="no"?>
<!DOCTYPE svg PUBLIC "-//W3C//DTD SVG 1.1//EN"
 "http://www.w3.org/Graphics/SVG/1.1/DTD/svg11.dtd">
<!-- Generated by graphviz version 2.26.3 (20100126.1600)
 -->
<!-- Title: pixmapfilmstripobject.h Pages: 1 -->
<svg width="584pt" height="146pt"
 viewBox="0.00 0.00 584.00 146.00" xmlns="http://www.w3.org/2000/svg" xmlns:xlink="http://www.w3.org/1999/xlink">
<g id="graph1" class="graph" transform="scale(1 1) rotate(0) translate(4 142)">
<title>pixmapfilmstripobject.h</title>
<polygon fill="white" stroke="white" points="-4,5 -4,-142 581,-142 581,5 -4,5"/>
<!-- Node1 -->
<g id="node1" class="node"><title>Node1</title>
<polygon fill="#bfbfbf" stroke="black" points="291,-116.5 291,-137.5 413,-137.5 413,-116.5 291,-116.5"/>
<text text-anchor="middle" x="352" y="-124.5" font-family="Helvetica,sans-Serif" font-size="10.00">pixmapfilmstripobject.h</text>
</g>
<!-- Node2 -->
<g id="node3" class="node"><title>Node2</title>
<a xlink:href="pixmapobject_8h.htm" target="_top" xlink:title="pixmapobject.h">
<polygon fill="white" stroke="black" points="120,-58.5 120,-79.5 206,-79.5 206,-58.5 120,-58.5"/>
<text text-anchor="middle" x="163" y="-66.5" font-family="Helvetica,sans-Serif" font-size="10.00">pixmapobject.h</text>
</a>
</g>
<!-- Node1&#45;&gt;Node2 -->
<g id="edge2" class="edge"><title>Node1&#45;&gt;Node2</title>
<path fill="none" stroke="midnightblue" d="M317.774,-116.497C286.695,-106.959 240.688,-92.8408 206.91,-82.475"/>
<polygon fill="midnightblue" stroke="midnightblue" points="207.877,-79.1109 197.291,-79.5231 205.824,-85.8029 207.877,-79.1109"/>
</g>
<!-- Node6 -->
<g id="node11" class="node"><title>Node6</title>
<polygon fill="white" stroke="#bfbfbf" points="211.5,-0.5 211.5,-21.5 256.5,-21.5 256.5,-0.5 211.5,-0.5"/>
<text text-anchor="middle" x="234" y="-8.5" font-family="Helvetica,sans-Serif" font-size="10.00">QSize</text>
</g>
<!-- Node1&#45;&gt;Node6 -->
<g id="edge18" class="edge"><title>Node1&#45;&gt;Node6</title>
<path fill="none" stroke="midnightblue" d="M311.286,-116.464C291.104,-109.289 267.92,-97.7813 253,-80 241.671,-66.4991 237.064,-46.7762 235.207,-31.871"/>
<polygon fill="midnightblue" stroke="midnightblue" points="238.663,-31.2304 234.257,-21.5948 231.692,-31.8745 238.663,-31.2304"/>
</g>
<!-- Node7 -->
<g id="node13" class="node"><title>Node7</title>
<polygon fill="white" stroke="#bfbfbf" points="261.5,-58.5 261.5,-79.5 308.5,-79.5 308.5,-58.5 261.5,-58.5"/>
<text text-anchor="middle" x="285" y="-66.5" font-family="Helvetica,sans-Serif" font-size="10.00">QRect</text>
</g>
<!-- Node1&#45;&gt;Node7 -->
<g id="edge12" class="edge"><title>Node1&#45;&gt;Node7</title>
<path fill="none" stroke="midnightblue" d="M339.711,-116.362C329.983,-107.941 316.202,-96.0105 304.905,-86.2308"/>
<polygon fill="midnightblue" stroke="midnightblue" points="307.062,-83.4695 297.211,-79.5707 302.481,-88.7619 307.062,-83.4695"/>
</g>
<!-- Node8 -->
<g id="node15" class="node"><title>Node8</title>
<polygon fill="white" stroke="#bfbfbf" points="325.5,-58.5 325.5,-79.5 378.5,-79.5 378.5,-58.5 325.5,-58.5"/>
<text text-anchor="middle" x="352" y="-66.5" font-family="Helvetica,sans-Serif" font-size="10.00">QRectF</text>
</g>
<!-- Node1&#45;&gt;Node8 -->
<g id="edge14" class="edge"><title>Node1&#45;&gt;Node8</title>
<path fill="none" stroke="midnightblue" d="M352,-116.362C352,-108.922 352,-98.7427 352,-89.7276"/>
<polygon fill="midnightblue" stroke="midnightblue" points="355.5,-89.5706 352,-79.5707 348.5,-89.5707 355.5,-89.5706"/>
</g>
<!-- Node9 -->
<g id="node17" class="node"><title>Node9</title>
<polygon fill="white" stroke="#bfbfbf" points="395.5,-58.5 395.5,-79.5 450.5,-79.5 450.5,-58.5 395.5,-58.5"/>
<text text-anchor="middle" x="423" y="-66.5" font-family="Helvetica,sans-Serif" font-size="10.00">QPointF</text>
</g>
<!-- Node1&#45;&gt;Node9 -->
<g id="edge16" class="edge"><title>Node1&#45;&gt;Node9</title>
<path fill="none" stroke="midnightblue" d="M365.022,-116.362C375.431,-107.859 390.219,-95.7785 402.255,-85.9466"/>
<polygon fill="midnightblue" stroke="midnightblue" points="404.53,-88.6077 410.06,-79.5707 400.101,-83.1866 404.53,-88.6077"/>
</g>
<!-- Node10 -->
<g id="node20" class="node"><title>Node10</title>
<polygon fill="white" stroke="#bfbfbf" points="467.5,-58.5 467.5,-79.5 518.5,-79.5 518.5,-58.5 467.5,-58.5"/>
<text text-anchor="middle" x="493" y="-66.5" font-family="Helvetica,sans-Serif" font-size="10.00">QSizeF</text>
</g>
<!-- Node1&#45;&gt;Node10 -->
<g id="edge20" class="edge"><title>Node1&#45;&gt;Node10</title>
<path fill="none" stroke="midnightblue" d="M377.534,-116.497C399.953,-107.275 432.785,-93.7695 457.713,-83.5153"/>
<polygon fill="midnightblue" stroke="midnightblue" points="459.263,-86.6623 467.179,-79.6212 456.6,-80.1886 459.263,-86.6623"/>
</g>
<!-- Node11 -->
<g id="node22" class="node"><title>Node11</title>
<polygon fill="white" stroke="#bfbfbf" points="535.5,-58.5 535.5,-79.5 576.5,-79.5 576.5,-58.5 535.5,-58.5"/>
<text text-anchor="middle" x="556" y="-66.5" font-family="Helvetica,sans-Serif" font-size="10.00">QList</text>
</g>
<!-- Node1&#45;&gt;Node11 -->
<g id="edge22" class="edge"><title>Node1&#45;&gt;Node11</title>
<path fill="none" stroke="midnightblue" d="M396.228,-116.425C429.669,-108.137 476.856,-95.8199 525.977,-80.1416"/>
<polygon fill="midnightblue" stroke="midnightblue" points="527.054,-83.4718 535.495,-77.0686 524.903,-76.8103 527.054,-83.4718"/>
</g>
<!-- Node3 -->
<g id="node5" class="node"><title>Node3</title>
<polygon fill="white" stroke="#bfbfbf" points="-0.5,-0.5 -0.5,-21.5 54.5,-21.5 54.5,-0.5 -0.5,-0.5"/>
<text text-anchor="middle" x="27" y="-8.5" font-family="Helvetica,sans-Serif" font-size="10.00">QObject</text>
</g>
<!-- Node2&#45;&gt;Node3 -->
<g id="edge4" class="edge"><title>Node2&#45;&gt;Node3</title>
<path fill="none" stroke="midnightblue" d="M138.371,-58.4966C116.843,-49.3154 85.3602,-35.8889 61.3554,-25.6516"/>
<polygon fill="midnightblue" stroke="midnightblue" points="62.4764,-22.3247 51.9049,-21.6212 59.7303,-28.7636 62.4764,-22.3247"/>
</g>
<!-- Node4 -->
<g id="node7" class="node"><title>Node4</title>
<polygon fill="white" stroke="#bfbfbf" points="71.5,-0.5 71.5,-21.5 130.5,-21.5 130.5,-0.5 71.5,-0.5"/>
<text text-anchor="middle" x="101" y="-8.5" font-family="Helvetica,sans-Serif" font-size="10.00">QPixmap</text>
</g>
<!-- Node2&#45;&gt;Node4 -->
<g id="edge6" class="edge"><title>Node2&#45;&gt;Node4</title>
<path fill="none" stroke="midnightblue" d="M151.628,-58.3619C142.714,-50.0226 130.121,-38.2418 119.724,-28.5162"/>
<polygon fill="midnightblue" stroke="midnightblue" points="121.993,-25.8463 112.3,-21.5707 117.211,-30.9582 121.993,-25.8463"/>
</g>
<!-- Node5 -->
<g id="node9" class="node"><title>Node5</title>
<polygon fill="white" stroke="#bfbfbf" points="148,-0.5 148,-21.5 194,-21.5 194,-0.5 148,-0.5"/>
<text text-anchor="middle" x="171" y="-8.5" font-family="Helvetica,sans-Serif" font-size="10.00">QUuid</text>
</g>
<!-- Node2&#45;&gt;Node5 -->
<g id="edge8" class="edge"><title>Node2&#45;&gt;Node5</title>
<path fill="none" stroke="midnightblue" d="M164.467,-58.3619C165.494,-50.9219 166.898,-40.7427 168.141,-31.7276"/>
<polygon fill="midnightblue" stroke="midnightblue" points="171.643,-31.9551 169.542,-21.5707 164.708,-30.9986 171.643,-31.9551"/>
</g>
<!-- Node2&#45;&gt;Node6 -->
<g id="edge10" class="edge"><title>Node2&#45;&gt;Node6</title>
<path fill="none" stroke="midnightblue" d="M176.022,-58.3619C186.431,-49.859 201.219,-37.7785 213.255,-27.9466"/>
<polygon fill="midnightblue" stroke="midnightblue" points="215.53,-30.6077 221.06,-21.5707 211.101,-25.1866 215.53,-30.6077"/>
</g>
</g>
</svg>
