<?xml version="1.0" encoding="UTF-8" standalone="no"?>
<!DOCTYPE svg PUBLIC "-//W3C//DTD SVG 1.1//EN"
 "http://www.w3.org/Graphics/SVG/1.1/DTD/svg11.dtd">
<!-- Generated by graphviz version 2.26.3 (20100126.1600)
 -->
<!-- Title: pixmap3htileobject.h Pages: 1 -->
<svg width="396pt" height="88pt"
 viewBox="0.00 0.00 396.00 88.00" xmlns="http://www.w3.org/2000/svg" xmlns:xlink="http://www.w3.org/1999/xlink">
<g id="graph1" class="graph" transform="scale(1 1) rotate(0) translate(4 84)">
<title>pixmap3htileobject.h</title>
<polygon fill="white" stroke="white" points="-4,5 -4,-84 393,-84 393,5 -4,5"/>
<!-- Node1 -->
<g id="node1" class="node"><title>Node1</title>
<polygon fill="#bfbfbf" stroke="black" points="142,-58.5 142,-79.5 254,-79.5 254,-58.5 142,-58.5"/>
<text text-anchor="middle" x="198" y="-66.5" font-family="Helvetica,sans-Serif" font-size="10.00">pixmap3htileobject.h</text>
</g>
<!-- Node2 -->
<g id="node3" class="node"><title>Node2</title>
<a xlink:href="dimensionslauncher_8cpp.htm" target="_top" xlink:title="dimensionslauncher.cpp">
<polygon fill="white" stroke="black" points="0,-0.5 0,-21.5 130,-21.5 130,-0.5 0,-0.5"/>
<text text-anchor="middle" x="65" y="-8.5" font-family="Helvetica,sans-Serif" font-size="10.00">dimensionslauncher.cpp</text>
</a>
</g>
<!-- Node1&#45;&gt;Node2 -->
<g id="edge2" class="edge"><title>Node1&#45;&gt;Node2</title>
<path fill="none" stroke="midnightblue" d="M164.703,-54.4794C141.29,-44.2695 110.492,-30.8386 89.3556,-21.6212"/>
<polygon fill="midnightblue" stroke="midnightblue" points="163.349,-57.7075 173.915,-58.4966 166.147,-51.291 163.349,-57.7075"/>
</g>
<!-- Node3 -->
<g id="node5" class="node"><title>Node3</title>
<a xlink:href="pixmaploader_8cpp.htm" target="_top" xlink:title="pixmaploader.cpp">
<polygon fill="white" stroke="black" points="148,-0.5 148,-21.5 248,-21.5 248,-0.5 148,-0.5"/>
<text text-anchor="middle" x="198" y="-8.5" font-family="Helvetica,sans-Serif" font-size="10.00">pixmaploader.cpp</text>
</a>
</g>
<!-- Node1&#45;&gt;Node3 -->
<g id="edge4" class="edge"><title>Node1&#45;&gt;Node3</title>
<path fill="none" stroke="midnightblue" d="M198,-48.1906C198,-39.1684 198,-28.9941 198,-21.5707"/>
<polygon fill="midnightblue" stroke="midnightblue" points="194.5,-48.3619 198,-58.3619 201.5,-48.3619 194.5,-48.3619"/>
</g>
<!-- Node4 -->
<g id="node7" class="node"><title>Node4</title>
<a xlink:href="pixmap3htileobject_8cpp.htm" target="_top" xlink:title="pixmap3htileobject.cpp">
<polygon fill="white" stroke="black" points="265.5,-0.5 265.5,-21.5 388.5,-21.5 388.5,-0.5 265.5,-0.5"/>
<text text-anchor="middle" x="327" y="-8.5" font-family="Helvetica,sans-Serif" font-size="10.00">pixmap3htileobject.cpp</text>
</a>
</g>
<!-- Node1&#45;&gt;Node4 -->
<g id="edge6" class="edge"><title>Node1&#45;&gt;Node4</title>
<path fill="none" stroke="midnightblue" d="M230.599,-54.3431C253.269,-44.1502 282.967,-30.7977 303.377,-21.6212"/>
<polygon fill="midnightblue" stroke="midnightblue" points="229.046,-51.2037 221.361,-58.4966 231.917,-57.5881 229.046,-51.2037"/>
</g>
</g>
</svg>
