<?xml version="1.0" encoding="UTF-8" standalone="no"?>
<!DOCTYPE svg PUBLIC "-//W3C//DTD SVG 1.1//EN"
 "http://www.w3.org/Graphics/SVG/1.1/DTD/svg11.dtd">
<!-- Generated by graphviz version 2.26.3 (20100126.1600)
 -->
<!-- Title: pixmapobject.cpp Pages: 1 -->
<svg width="427pt" height="146pt"
 viewBox="0.00 0.00 427.00 146.00" xmlns="http://www.w3.org/2000/svg" xmlns:xlink="http://www.w3.org/1999/xlink">
<g id="graph1" class="graph" transform="scale(1 1) rotate(0) translate(4 142)">
<title>pixmapobject.cpp</title>
<polygon fill="white" stroke="white" points="-4,5 -4,-142 424,-142 424,5 -4,5"/>
<!-- Node1 -->
<g id="node1" class="node"><title>Node1</title>
<polygon fill="#bfbfbf" stroke="black" points="214,-116.5 214,-137.5 312,-137.5 312,-116.5 214,-116.5"/>
<text text-anchor="middle" x="263" y="-124.5" font-family="Helvetica,sans-Serif" font-size="10.00">pixmapobject.cpp</text>
</g>
<!-- Node2 -->
<g id="node3" class="node"><title>Node2</title>
<a xlink:href="pixmapobject_8h.htm" target="_top" xlink:title="pixmapobject.h">
<polygon fill="white" stroke="black" points="93,-58.5 93,-79.5 179,-79.5 179,-58.5 93,-58.5"/>
<text text-anchor="middle" x="136" y="-66.5" font-family="Helvetica,sans-Serif" font-size="10.00">pixmapobject.h</text>
</a>
</g>
<!-- Node1&#45;&gt;Node2 -->
<g id="edge2" class="edge"><title>Node1&#45;&gt;Node2</title>
<path fill="none" stroke="midnightblue" d="M240.001,-116.497C219.987,-107.356 190.759,-94.0082 168.381,-83.7883"/>
<polygon fill="midnightblue" stroke="midnightblue" points="169.807,-80.5918 159.257,-79.6212 166.899,-86.9592 169.807,-80.5918"/>
</g>
<!-- Node7 -->
<g id="node13" class="node"><title>Node7</title>
<polygon fill="white" stroke="#bfbfbf" points="196.5,-58.5 196.5,-79.5 255.5,-79.5 255.5,-58.5 196.5,-58.5"/>
<text text-anchor="middle" x="226" y="-66.5" font-family="Helvetica,sans-Serif" font-size="10.00">QPainter</text>
</g>
<!-- Node1&#45;&gt;Node7 -->
<g id="edge12" class="edge"><title>Node1&#45;&gt;Node7</title>
<path fill="none" stroke="midnightblue" d="M256.214,-116.362C251.207,-108.513 244.255,-97.6159 238.282,-88.2527"/>
<polygon fill="midnightblue" stroke="midnightblue" points="241.072,-86.1189 232.743,-79.5707 235.171,-89.8837 241.072,-86.1189"/>
</g>
<!-- Node8 -->
<g id="node15" class="node"><title>Node8</title>
<polygon fill="white" stroke="#bfbfbf" points="272.5,-58.5 272.5,-79.5 327.5,-79.5 327.5,-58.5 272.5,-58.5"/>
<text text-anchor="middle" x="300" y="-66.5" font-family="Helvetica,sans-Serif" font-size="10.00">QPointF</text>
</g>
<!-- Node1&#45;&gt;Node8 -->
<g id="edge14" class="edge"><title>Node1&#45;&gt;Node8</title>
<path fill="none" stroke="midnightblue" d="M269.786,-116.362C274.793,-108.513 281.745,-97.6159 287.718,-88.2527"/>
<polygon fill="midnightblue" stroke="midnightblue" points="290.829,-89.8837 293.257,-79.5707 284.928,-86.1189 290.829,-89.8837"/>
</g>
<!-- Node9 -->
<g id="node17" class="node"><title>Node9</title>
<polygon fill="white" stroke="#bfbfbf" points="345,-58.5 345,-79.5 419,-79.5 419,-58.5 345,-58.5"/>
<text text-anchor="middle" x="382" y="-66.5" font-family="Helvetica,sans-Serif" font-size="10.00">QTransform</text>
</g>
<!-- Node1&#45;&gt;Node9 -->
<g id="edge16" class="edge"><title>Node1&#45;&gt;Node9</title>
<path fill="none" stroke="midnightblue" d="M284.55,-116.497C303.136,-107.438 330.202,-94.2462 351.095,-84.0628"/>
<polygon fill="midnightblue" stroke="midnightblue" points="352.753,-87.1487 360.208,-79.6212 349.686,-80.8563 352.753,-87.1487"/>
</g>
<!-- Node3 -->
<g id="node5" class="node"><title>Node3</title>
<polygon fill="white" stroke="#bfbfbf" points="-0.5,-0.5 -0.5,-21.5 54.5,-21.5 54.5,-0.5 -0.5,-0.5"/>
<text text-anchor="middle" x="27" y="-8.5" font-family="Helvetica,sans-Serif" font-size="10.00">QObject</text>
</g>
<!-- Node2&#45;&gt;Node3 -->
<g id="edge4" class="edge"><title>Node2&#45;&gt;Node3</title>
<path fill="none" stroke="midnightblue" d="M116.261,-58.4966C99.3899,-49.5194 74.8915,-36.4835 55.8262,-26.3387"/>
<polygon fill="midnightblue" stroke="midnightblue" points="57.4327,-23.2289 46.9606,-21.6212 54.1445,-29.4086 57.4327,-23.2289"/>
</g>
<!-- Node4 -->
<g id="node7" class="node"><title>Node4</title>
<polygon fill="white" stroke="#bfbfbf" points="71.5,-0.5 71.5,-21.5 130.5,-21.5 130.5,-0.5 71.5,-0.5"/>
<text text-anchor="middle" x="101" y="-8.5" font-family="Helvetica,sans-Serif" font-size="10.00">QPixmap</text>
</g>
<!-- Node2&#45;&gt;Node4 -->
<g id="edge6" class="edge"><title>Node2&#45;&gt;Node4</title>
<path fill="none" stroke="midnightblue" d="M129.58,-58.3619C124.844,-50.5131 118.268,-39.6159 112.618,-30.2527"/>
<polygon fill="midnightblue" stroke="midnightblue" points="115.542,-28.3242 107.379,-21.5707 109.549,-31.9409 115.542,-28.3242"/>
</g>
<!-- Node5 -->
<g id="node9" class="node"><title>Node5</title>
<polygon fill="white" stroke="#bfbfbf" points="148,-0.5 148,-21.5 194,-21.5 194,-0.5 148,-0.5"/>
<text text-anchor="middle" x="171" y="-8.5" font-family="Helvetica,sans-Serif" font-size="10.00">QUuid</text>
</g>
<!-- Node2&#45;&gt;Node5 -->
<g id="edge8" class="edge"><title>Node2&#45;&gt;Node5</title>
<path fill="none" stroke="midnightblue" d="M142.42,-58.3619C147.156,-50.5131 153.732,-39.6159 159.382,-30.2527"/>
<polygon fill="midnightblue" stroke="midnightblue" points="162.451,-31.9409 164.621,-21.5707 156.458,-28.3242 162.451,-31.9409"/>
</g>
<!-- Node6 -->
<g id="node11" class="node"><title>Node6</title>
<polygon fill="white" stroke="#bfbfbf" points="211.5,-0.5 211.5,-21.5 256.5,-21.5 256.5,-0.5 211.5,-0.5"/>
<text text-anchor="middle" x="234" y="-8.5" font-family="Helvetica,sans-Serif" font-size="10.00">QSize</text>
</g>
<!-- Node2&#45;&gt;Node6 -->
<g id="edge10" class="edge"><title>Node2&#45;&gt;Node6</title>
<path fill="none" stroke="midnightblue" d="M153.975,-58.3619C168.894,-49.532 190.333,-36.844 207.266,-26.8224"/>
<polygon fill="midnightblue" stroke="midnightblue" points="209.316,-29.6759 216.139,-21.5707 205.751,-23.6519 209.316,-29.6759"/>
</g>
</g>
</svg>
