<?xml version="1.0" encoding="UTF-8" standalone="no"?>
<!DOCTYPE svg PUBLIC "-//W3C//DTD SVG 1.1//EN"
 "http://www.w3.org/Graphics/SVG/1.1/DTD/svg11.dtd">
<!-- Generated by graphviz version 2.26.3 (20100126.1600)
 -->
<!-- Title: pixmaphugeobject.cpp Pages: 1 -->
<svg width="1360pt" height="204pt"
 viewBox="0.00 0.00 1360.00 204.00" xmlns="http://www.w3.org/2000/svg" xmlns:xlink="http://www.w3.org/1999/xlink">
<g id="graph1" class="graph" transform="scale(1 1) rotate(0) translate(4 200)">
<title>pixmaphugeobject.cpp</title>
<polygon fill="white" stroke="white" points="-4,5 -4,-200 1357,-200 1357,5 -4,5"/>
<!-- Node1 -->
<g id="node1" class="node"><title>Node1</title>
<polygon fill="#bfbfbf" stroke="black" points="868.5,-174.5 868.5,-195.5 989.5,-195.5 989.5,-174.5 868.5,-174.5"/>
<text text-anchor="middle" x="929" y="-182.5" font-family="Helvetica,sans-Serif" font-size="10.00">pixmaphugeobject.cpp</text>
</g>
<!-- Node2 -->
<g id="node3" class="node"><title>Node2</title>
<a xlink:href="dimensionsglobal_8h.htm" target="_top" xlink:title="dimensionsglobal.h">
<polygon fill="white" stroke="black" points="241,-116.5 241,-137.5 347,-137.5 347,-116.5 241,-116.5"/>
<text text-anchor="middle" x="294" y="-124.5" font-family="Helvetica,sans-Serif" font-size="10.00">dimensionsglobal.h</text>
</a>
</g>
<!-- Node1&#45;&gt;Node2 -->
<g id="edge2" class="edge"><title>Node1&#45;&gt;Node2</title>
<path fill="none" stroke="midnightblue" d="M868.401,-179.465C747.941,-168.462 479.477,-143.941 357.044,-132.758"/>
<polygon fill="midnightblue" stroke="midnightblue" points="357.348,-129.272 347.071,-131.847 356.711,-136.243 357.348,-129.272"/>
</g>
<!-- Node7 -->
<g id="node13" class="node"><title>Node7</title>
<polygon fill="white" stroke="#bfbfbf" points="487.5,-58.5 487.5,-79.5 542.5,-79.5 542.5,-58.5 487.5,-58.5"/>
<text text-anchor="middle" x="515" y="-66.5" font-family="Helvetica,sans-Serif" font-size="10.00">QPointF</text>
</g>
<!-- Node1&#45;&gt;Node7 -->
<g id="edge58" class="edge"><title>Node1&#45;&gt;Node7</title>
<path fill="none" stroke="midnightblue" d="M876.847,-174.451C835.212,-165.692 775.524,-152.378 724,-138 663.179,-121.028 593.792,-97.2158 552.241,-82.4663"/>
<polygon fill="midnightblue" stroke="midnightblue" points="553.398,-79.1631 542.803,-79.1019 551.047,-85.7566 553.398,-79.1631"/>
</g>
<!-- Node11 -->
<g id="node21" class="node"><title>Node11</title>
<a xlink:href="pixmaphugeobject_8h.htm" target="_top" xlink:title="pixmaphugeobject.h">
<polygon fill="white" stroke="black" points="733,-116.5 733,-137.5 843,-137.5 843,-116.5 733,-116.5"/>
<text text-anchor="middle" x="788" y="-124.5" font-family="Helvetica,sans-Serif" font-size="10.00">pixmaphugeobject.h</text>
</a>
</g>
<!-- Node1&#45;&gt;Node11 -->
<g id="edge20" class="edge"><title>Node1&#45;&gt;Node11</title>
<path fill="none" stroke="midnightblue" d="M903.466,-174.497C881.047,-165.275 848.215,-151.769 823.287,-141.515"/>
<polygon fill="midnightblue" stroke="midnightblue" points="824.4,-138.189 813.821,-137.621 821.737,-144.662 824.4,-138.189"/>
</g>
<!-- Node20 -->
<g id="node40" class="node"><title>Node20</title>
<a xlink:href="gfxsettings_8h.htm" target="_top" xlink:title="gfxsettings.h">
<polygon fill="white" stroke="black" points="1003,-116.5 1003,-137.5 1079,-137.5 1079,-116.5 1003,-116.5"/>
<text text-anchor="middle" x="1041" y="-124.5" font-family="Helvetica,sans-Serif" font-size="10.00">gfxsettings.h</text>
</a>
</g>
<!-- Node1&#45;&gt;Node20 -->
<g id="edge40" class="edge"><title>Node1&#45;&gt;Node20</title>
<path fill="none" stroke="midnightblue" d="M949.282,-174.497C966.618,-165.519 991.79,-152.484 1011.38,-142.339"/>
<polygon fill="midnightblue" stroke="midnightblue" points="1013.22,-145.328 1020.49,-137.621 1010,-139.112 1013.22,-145.328"/>
</g>
<!-- Node27 -->
<g id="node55" class="node"><title>Node27</title>
<polygon fill="white" stroke="#bfbfbf" points="1096.5,-116.5 1096.5,-137.5 1155.5,-137.5 1155.5,-116.5 1096.5,-116.5"/>
<text text-anchor="middle" x="1126" y="-124.5" font-family="Helvetica,sans-Serif" font-size="10.00">QPainter</text>
</g>
<!-- Node1&#45;&gt;Node27 -->
<g id="edge56" class="edge"><title>Node1&#45;&gt;Node27</title>
<path fill="none" stroke="midnightblue" d="M964.675,-174.497C998.987,-164.395 1050.75,-149.153 1086.34,-138.676"/>
<polygon fill="midnightblue" stroke="midnightblue" points="1087.77,-141.903 1096.38,-135.721 1085.8,-135.188 1087.77,-141.903"/>
</g>
<!-- Node28 -->
<g id="node58" class="node"><title>Node28</title>
<polygon fill="white" stroke="#bfbfbf" points="1173,-116.5 1173,-137.5 1227,-137.5 1227,-116.5 1173,-116.5"/>
<text text-anchor="middle" x="1200" y="-124.5" font-family="Helvetica,sans-Serif" font-size="10.00">QImage</text>
</g>
<!-- Node1&#45;&gt;Node28 -->
<g id="edge60" class="edge"><title>Node1&#45;&gt;Node28</title>
<path fill="none" stroke="midnightblue" d="M989.743,-174.561C1035.08,-166.379 1098.72,-154.074 1163.04,-138.072"/>
<polygon fill="midnightblue" stroke="midnightblue" points="1164.11,-141.413 1172.95,-135.579 1162.4,-134.625 1164.11,-141.413"/>
</g>
<!-- Node3 -->
<g id="node5" class="node"><title>Node3</title>
<polygon fill="white" stroke="#bfbfbf" points="-0.5,-58.5 -0.5,-79.5 58.5,-79.5 58.5,-58.5 -0.5,-58.5"/>
<text text-anchor="middle" x="29" y="-66.5" font-family="Helvetica,sans-Serif" font-size="10.00">qglobal.h</text>
</g>
<!-- Node2&#45;&gt;Node3 -->
<g id="edge4" class="edge"><title>Node2&#45;&gt;Node3</title>
<path fill="none" stroke="midnightblue" d="M240.99,-117.232C197.071,-108.866 132.83,-96.0015 68.6866,-80.306"/>
<polygon fill="midnightblue" stroke="midnightblue" points="69.3592,-76.867 58.8117,-77.8667 67.6805,-83.6628 69.3592,-76.867"/>
</g>
<!-- Node4 -->
<g id="node7" class="node"><title>Node4</title>
<polygon fill="white" stroke="#bfbfbf" points="76,-58.5 76,-79.5 130,-79.5 130,-58.5 76,-58.5"/>
<text text-anchor="middle" x="103" y="-66.5" font-family="Helvetica,sans-Serif" font-size="10.00">qmath.h</text>
</g>
<!-- Node2&#45;&gt;Node4 -->
<g id="edge6" class="edge"><title>Node2&#45;&gt;Node4</title>
<path fill="none" stroke="midnightblue" d="M259.212,-116.475C229.819,-107.576 186.349,-94.4044 139.789,-80.2363"/>
<polygon fill="midnightblue" stroke="midnightblue" points="140.711,-76.8585 130.125,-77.2949 138.672,-83.5552 140.711,-76.8585"/>
</g>
<!-- Node5 -->
<g id="node9" class="node"><title>Node5</title>
<polygon fill="white" stroke="#bfbfbf" points="147.5,-58.5 147.5,-79.5 200.5,-79.5 200.5,-58.5 147.5,-58.5"/>
<text text-anchor="middle" x="174" y="-66.5" font-family="Helvetica,sans-Serif" font-size="10.00">QRectF</text>
</g>
<!-- Node2&#45;&gt;Node5 -->
<g id="edge8" class="edge"><title>Node2&#45;&gt;Node5</title>
<path fill="none" stroke="midnightblue" d="M272.269,-116.497C253.526,-107.438 226.233,-94.2462 205.164,-84.0628"/>
<polygon fill="midnightblue" stroke="midnightblue" points="206.502,-80.8217 195.975,-79.6212 203.455,-87.1242 206.502,-80.8217"/>
</g>
<!-- Node6 -->
<g id="node11" class="node"><title>Node6</title>
<polygon fill="white" stroke="#bfbfbf" points="217.5,-58.5 217.5,-79.5 266.5,-79.5 266.5,-58.5 217.5,-58.5"/>
<text text-anchor="middle" x="242" y="-66.5" font-family="Helvetica,sans-Serif" font-size="10.00">QPoint</text>
</g>
<!-- Node2&#45;&gt;Node6 -->
<g id="edge10" class="edge"><title>Node2&#45;&gt;Node6</title>
<path fill="none" stroke="midnightblue" d="M284.462,-116.362C277.132,-108.186 266.837,-96.7025 258.219,-87.0907"/>
<polygon fill="midnightblue" stroke="midnightblue" points="260.759,-84.68 251.477,-79.5707 255.547,-89.3528 260.759,-84.68"/>
</g>
<!-- Node2&#45;&gt;Node7 -->
<g id="edge12" class="edge"><title>Node2&#45;&gt;Node7</title>
<path fill="none" stroke="midnightblue" d="M337.89,-116.476C373.271,-107.851 424.527,-95.0417 477.269,-80.4116"/>
<polygon fill="midnightblue" stroke="midnightblue" points="478.44,-83.7187 487.131,-77.6593 476.558,-76.9764 478.44,-83.7187"/>
</g>
<!-- Node8 -->
<g id="node15" class="node"><title>Node8</title>
<polygon fill="white" stroke="#bfbfbf" points="392,-0.5 392,-21.5 438,-21.5 438,-0.5 392,-0.5"/>
<text text-anchor="middle" x="415" y="-8.5" font-family="Helvetica,sans-Serif" font-size="10.00">QUuid</text>
</g>
<!-- Node2&#45;&gt;Node8 -->
<g id="edge14" class="edge"><title>Node2&#45;&gt;Node8</title>
<path fill="none" stroke="midnightblue" d="M294.23,-116.382C295.092,-101.633 298.687,-74.8606 313,-58 330.617,-37.247 359.357,-25.1509 381.847,-18.4418"/>
<polygon fill="midnightblue" stroke="midnightblue" points="382.971,-21.7626 391.679,-15.7266 381.108,-15.0152 382.971,-21.7626"/>
</g>
<!-- Node9 -->
<g id="node17" class="node"><title>Node9</title>
<polygon fill="white" stroke="#bfbfbf" points="322,-58.5 322,-79.5 372,-79.5 372,-58.5 322,-58.5"/>
<text text-anchor="middle" x="347" y="-66.5" font-family="Helvetica,sans-Serif" font-size="10.00">QHash</text>
</g>
<!-- Node2&#45;&gt;Node9 -->
<g id="edge16" class="edge"><title>Node2&#45;&gt;Node9</title>
<path fill="none" stroke="midnightblue" d="M303.721,-116.362C311.192,-108.186 321.686,-96.7025 330.469,-87.0907"/>
<polygon fill="midnightblue" stroke="midnightblue" points="333.179,-89.3138 337.341,-79.5707 328.011,-84.5918 333.179,-89.3138"/>
</g>
<!-- Node10 -->
<g id="node19" class="node"><title>Node10</title>
<polygon fill="white" stroke="#bfbfbf" points="390,-58.5 390,-79.5 470,-79.5 470,-58.5 390,-58.5"/>
<text text-anchor="middle" x="430" y="-66.5" font-family="Helvetica,sans-Serif" font-size="10.00">QVariantMap</text>
</g>
<!-- Node2&#45;&gt;Node10 -->
<g id="edge18" class="edge"><title>Node2&#45;&gt;Node10</title>
<path fill="none" stroke="midnightblue" d="M318.629,-116.497C340.157,-107.315 371.64,-93.8889 395.645,-83.6516"/>
<polygon fill="midnightblue" stroke="midnightblue" points="397.27,-86.7636 405.095,-79.6212 394.524,-80.3247 397.27,-86.7636"/>
</g>
<!-- Node12 -->
<g id="node23" class="node"><title>Node12</title>
<a xlink:href="pixmapobject_8h.htm" target="_top" xlink:title="pixmapobject.h">
<polygon fill="white" stroke="black" points="560,-58.5 560,-79.5 646,-79.5 646,-58.5 560,-58.5"/>
<text text-anchor="middle" x="603" y="-66.5" font-family="Helvetica,sans-Serif" font-size="10.00">pixmapobject.h</text>
</a>
</g>
<!-- Node11&#45;&gt;Node12 -->
<g id="edge22" class="edge"><title>Node11&#45;&gt;Node12</title>
<path fill="none" stroke="midnightblue" d="M754.498,-116.497C724.207,-107 679.43,-92.9619 646.407,-82.6087"/>
<polygon fill="midnightblue" stroke="midnightblue" points="647.154,-79.175 636.565,-79.5231 645.06,-85.8544 647.154,-79.175"/>
</g>
<!-- Node16 -->
<g id="node32" class="node"><title>Node16</title>
<polygon fill="white" stroke="#bfbfbf" points="664,-58.5 664,-79.5 720,-79.5 720,-58.5 664,-58.5"/>
<text text-anchor="middle" x="692" y="-66.5" font-family="Helvetica,sans-Serif" font-size="10.00">QVector</text>
</g>
<!-- Node11&#45;&gt;Node16 -->
<g id="edge32" class="edge"><title>Node11&#45;&gt;Node16</title>
<path fill="none" stroke="midnightblue" d="M770.392,-116.362C755.777,-107.532 734.776,-94.844 718.189,-84.8224"/>
<polygon fill="midnightblue" stroke="midnightblue" points="719.865,-81.7461 709.496,-79.5707 716.246,-87.7376 719.865,-81.7461"/>
</g>
<!-- Node17 -->
<g id="node34" class="node"><title>Node17</title>
<polygon fill="white" stroke="#bfbfbf" points="737.5,-58.5 737.5,-79.5 778.5,-79.5 778.5,-58.5 737.5,-58.5"/>
<text text-anchor="middle" x="758" y="-66.5" font-family="Helvetica,sans-Serif" font-size="10.00">QList</text>
</g>
<!-- Node11&#45;&gt;Node17 -->
<g id="edge34" class="edge"><title>Node11&#45;&gt;Node17</title>
<path fill="none" stroke="midnightblue" d="M782.498,-116.362C778.48,-108.595 772.919,-97.8426 768.11,-88.5458"/>
<polygon fill="midnightblue" stroke="midnightblue" points="771.171,-86.8448 763.468,-79.5707 764.953,-90.0608 771.171,-86.8448"/>
</g>
<!-- Node18 -->
<g id="node36" class="node"><title>Node18</title>
<polygon fill="white" stroke="#bfbfbf" points="795.5,-58.5 795.5,-79.5 842.5,-79.5 842.5,-58.5 795.5,-58.5"/>
<text text-anchor="middle" x="819" y="-66.5" font-family="Helvetica,sans-Serif" font-size="10.00">QRect</text>
</g>
<!-- Node11&#45;&gt;Node18 -->
<g id="edge36" class="edge"><title>Node11&#45;&gt;Node18</title>
<path fill="none" stroke="midnightblue" d="M793.686,-116.362C797.837,-108.595 803.584,-97.8426 808.553,-88.5458"/>
<polygon fill="midnightblue" stroke="midnightblue" points="811.723,-90.0398 813.35,-79.5707 805.55,-86.7401 811.723,-90.0398"/>
</g>
<!-- Node19 -->
<g id="node38" class="node"><title>Node19</title>
<polygon fill="white" stroke="#bfbfbf" points="859.5,-58.5 859.5,-79.5 914.5,-79.5 914.5,-58.5 859.5,-58.5"/>
<text text-anchor="middle" x="887" y="-66.5" font-family="Helvetica,sans-Serif" font-size="10.00">QDebug</text>
</g>
<!-- Node11&#45;&gt;Node19 -->
<g id="edge38" class="edge"><title>Node11&#45;&gt;Node19</title>
<path fill="none" stroke="midnightblue" d="M806.158,-116.362C821.23,-107.532 842.887,-94.844 859.993,-84.8224"/>
<polygon fill="midnightblue" stroke="midnightblue" points="862.098,-87.6456 868.957,-79.5707 858.559,-81.6058 862.098,-87.6456"/>
</g>
<!-- Node12&#45;&gt;Node8 -->
<g id="edge28" class="edge"><title>Node12&#45;&gt;Node8</title>
<path fill="none" stroke="midnightblue" d="M568.955,-58.4966C534.625,-47.9055 481.984,-31.6654 448.024,-21.1881"/>
<polygon fill="midnightblue" stroke="midnightblue" points="448.712,-17.7378 438.125,-18.1342 446.648,-24.4267 448.712,-17.7378"/>
</g>
<!-- Node13 -->
<g id="node25" class="node"><title>Node13</title>
<polygon fill="white" stroke="#bfbfbf" points="538.5,-0.5 538.5,-21.5 593.5,-21.5 593.5,-0.5 538.5,-0.5"/>
<text text-anchor="middle" x="566" y="-8.5" font-family="Helvetica,sans-Serif" font-size="10.00">QObject</text>
</g>
<!-- Node12&#45;&gt;Node13 -->
<g id="edge24" class="edge"><title>Node12&#45;&gt;Node13</title>
<path fill="none" stroke="midnightblue" d="M596.214,-58.3619C591.207,-50.5131 584.255,-39.6159 578.282,-30.2527"/>
<polygon fill="midnightblue" stroke="midnightblue" points="581.072,-28.1189 572.743,-21.5707 575.171,-31.8837 581.072,-28.1189"/>
</g>
<!-- Node14 -->
<g id="node27" class="node"><title>Node14</title>
<polygon fill="white" stroke="#bfbfbf" points="610.5,-0.5 610.5,-21.5 669.5,-21.5 669.5,-0.5 610.5,-0.5"/>
<text text-anchor="middle" x="640" y="-8.5" font-family="Helvetica,sans-Serif" font-size="10.00">QPixmap</text>
</g>
<!-- Node12&#45;&gt;Node14 -->
<g id="edge26" class="edge"><title>Node12&#45;&gt;Node14</title>
<path fill="none" stroke="midnightblue" d="M609.786,-58.3619C614.793,-50.5131 621.745,-39.6159 627.718,-30.2527"/>
<polygon fill="midnightblue" stroke="midnightblue" points="630.829,-31.8837 633.257,-21.5707 624.928,-28.1189 630.829,-31.8837"/>
</g>
<!-- Node15 -->
<g id="node30" class="node"><title>Node15</title>
<polygon fill="white" stroke="#bfbfbf" points="821.5,-0.5 821.5,-21.5 866.5,-21.5 866.5,-0.5 821.5,-0.5"/>
<text text-anchor="middle" x="844" y="-8.5" font-family="Helvetica,sans-Serif" font-size="10.00">QSize</text>
</g>
<!-- Node12&#45;&gt;Node15 -->
<g id="edge30" class="edge"><title>Node12&#45;&gt;Node15</title>
<path fill="none" stroke="midnightblue" d="M646.086,-58.6308C693.491,-47.2222 768.614,-29.1426 811.377,-18.8511"/>
<polygon fill="midnightblue" stroke="midnightblue" points="812.358,-22.2152 821.261,-16.4724 810.72,-15.4095 812.358,-22.2152"/>
</g>
<!-- Node20&#45;&gt;Node15 -->
<g id="edge54" class="edge"><title>Node20&#45;&gt;Node15</title>
<path fill="none" stroke="midnightblue" d="M1022.88,-116.369C1006.67,-106.848 982.24,-92.5021 961,-80 929.962,-61.7305 894.316,-40.7014 870.606,-26.7079"/>
<polygon fill="midnightblue" stroke="midnightblue" points="872.225,-23.5992 861.834,-21.53 868.667,-29.6274 872.225,-23.5992"/>
</g>
<!-- Node21 -->
<g id="node42" class="node"><title>Node21</title>
<polygon fill="white" stroke="#bfbfbf" points="969.5,-58.5 969.5,-79.5 1036.5,-79.5 1036.5,-58.5 969.5,-58.5"/>
<text text-anchor="middle" x="1003" y="-66.5" font-family="Helvetica,sans-Serif" font-size="10.00">Common.h</text>
</g>
<!-- Node20&#45;&gt;Node21 -->
<g id="edge42" class="edge"><title>Node20&#45;&gt;Node21</title>
<path fill="none" stroke="midnightblue" d="M1034.03,-116.362C1028.83,-108.431 1021.6,-97.3885 1015.42,-87.9606"/>
<polygon fill="midnightblue" stroke="midnightblue" points="1018.33,-86.0172 1009.93,-79.5707 1012.48,-89.8534 1018.33,-86.0172"/>
</g>
<!-- Node22 -->
<g id="node44" class="node"><title>Node22</title>
<polygon fill="white" stroke="#bfbfbf" points="1053.5,-58.5 1053.5,-79.5 1106.5,-79.5 1106.5,-58.5 1053.5,-58.5"/>
<text text-anchor="middle" x="1080" y="-66.5" font-family="Helvetica,sans-Serif" font-size="10.00">QString</text>
</g>
<!-- Node20&#45;&gt;Node22 -->
<g id="edge44" class="edge"><title>Node20&#45;&gt;Node22</title>
<path fill="none" stroke="midnightblue" d="M1048.15,-116.362C1053.49,-108.431 1060.91,-97.3885 1067.25,-87.9606"/>
<polygon fill="midnightblue" stroke="midnightblue" points="1070.22,-89.8221 1072.89,-79.5707 1064.41,-85.9161 1070.22,-89.8221"/>
</g>
<!-- Node23 -->
<g id="node46" class="node"><title>Node23</title>
<polygon fill="white" stroke="#bfbfbf" points="1124,-58.5 1124,-79.5 1170,-79.5 1170,-58.5 1124,-58.5"/>
<text text-anchor="middle" x="1147" y="-66.5" font-family="Helvetica,sans-Serif" font-size="10.00">vector</text>
</g>
<!-- Node20&#45;&gt;Node23 -->
<g id="edge46" class="edge"><title>Node20&#45;&gt;Node23</title>
<path fill="none" stroke="midnightblue" d="M1060.44,-116.362C1076.8,-107.409 1100.41,-94.4908 1118.84,-84.4064"/>
<polygon fill="midnightblue" stroke="midnightblue" points="1120.59,-87.4412 1127.68,-79.5707 1117.23,-81.3004 1120.59,-87.4412"/>
</g>
<!-- Node24 -->
<g id="node48" class="node"><title>Node24</title>
<polygon fill="white" stroke="#bfbfbf" points="1187.5,-58.5 1187.5,-79.5 1218.5,-79.5 1218.5,-58.5 1187.5,-58.5"/>
<text text-anchor="middle" x="1203" y="-66.5" font-family="Helvetica,sans-Serif" font-size="10.00">set</text>
</g>
<!-- Node20&#45;&gt;Node24 -->
<g id="edge48" class="edge"><title>Node20&#45;&gt;Node24</title>
<path fill="none" stroke="midnightblue" d="M1075.09,-116.454C1101.21,-108.142 1138.25,-95.8462 1178.01,-80.1734"/>
<polygon fill="midnightblue" stroke="midnightblue" points="1179.36,-83.4048 1187.35,-76.4497 1176.76,-76.9026 1179.36,-83.4048"/>
</g>
<!-- Node25 -->
<g id="node50" class="node"><title>Node25</title>
<polygon fill="white" stroke="#bfbfbf" points="1235.5,-58.5 1235.5,-79.5 1276.5,-79.5 1276.5,-58.5 1235.5,-58.5"/>
<text text-anchor="middle" x="1256" y="-66.5" font-family="Helvetica,sans-Serif" font-size="10.00">glib.h</text>
</g>
<!-- Node20&#45;&gt;Node25 -->
<g id="edge50" class="edge"><title>Node20&#45;&gt;Node25</title>
<path fill="none" stroke="midnightblue" d="M1079.11,-117.918C1121.15,-107.812 1187.07,-91.6874 1225.21,-80.2986"/>
<polygon fill="midnightblue" stroke="midnightblue" points="1226.67,-83.5129 1235.19,-77.2209 1224.6,-76.8238 1226.67,-83.5129"/>
</g>
<!-- Node26 -->
<g id="node52" class="node"><title>Node26</title>
<polygon fill="white" stroke="#bfbfbf" points="1294,-58.5 1294,-79.5 1352,-79.5 1352,-58.5 1294,-58.5"/>
<text text-anchor="middle" x="1323" y="-66.5" font-family="Helvetica,sans-Serif" font-size="10.00">QtGlobal</text>
</g>
<!-- Node20&#45;&gt;Node26 -->
<g id="edge52" class="edge"><title>Node20&#45;&gt;Node26</title>
<path fill="none" stroke="midnightblue" d="M1079.18,-117.898C1082.16,-117.238 1085.13,-116.598 1088,-116 1172.07,-98.491 1196.65,-100.247 1283.83,-80.1129"/>
<polygon fill="midnightblue" stroke="midnightblue" points="1284.68,-83.5096 1293.62,-77.8229 1283.08,-76.6938 1284.68,-83.5096"/>
</g>
</g>
</svg>
