<?xml version="1.0" encoding="UTF-8" standalone="no"?>
<!DOCTYPE svg PUBLIC "-//W3C//DTD SVG 1.1//EN"
 "http://www.w3.org/Graphics/SVG/1.1/DTD/svg11.dtd">
<!-- Generated by graphviz version 2.26.3 (20100126.1600)
 -->
<!-- Title: pixmap9tileobject.h Pages: 1 -->
<svg width="264pt" height="146pt"
 viewBox="0.00 0.00 264.00 146.00" xmlns="http://www.w3.org/2000/svg" xmlns:xlink="http://www.w3.org/1999/xlink">
<g id="graph1" class="graph" transform="scale(1 1) rotate(0) translate(4 142)">
<title>pixmap9tileobject.h</title>
<polygon fill="white" stroke="white" points="-4,5 -4,-142 261,-142 261,5 -4,5"/>
<!-- Node1 -->
<g id="node1" class="node"><title>Node1</title>
<polygon fill="#bfbfbf" stroke="black" points="48,-116.5 48,-137.5 154,-137.5 154,-116.5 48,-116.5"/>
<text text-anchor="middle" x="101" y="-124.5" font-family="Helvetica,sans-Serif" font-size="10.00">pixmap9tileobject.h</text>
</g>
<!-- Node2 -->
<g id="node3" class="node"><title>Node2</title>
<a xlink:href="pixmapobject_8h.htm" target="_top" xlink:title="pixmapobject.h">
<polygon fill="white" stroke="black" points="58,-58.5 58,-79.5 144,-79.5 144,-58.5 58,-58.5"/>
<text text-anchor="middle" x="101" y="-66.5" font-family="Helvetica,sans-Serif" font-size="10.00">pixmapobject.h</text>
</a>
</g>
<!-- Node1&#45;&gt;Node2 -->
<g id="edge2" class="edge"><title>Node1&#45;&gt;Node2</title>
<path fill="none" stroke="midnightblue" d="M101,-116.362C101,-108.922 101,-98.7427 101,-89.7276"/>
<polygon fill="midnightblue" stroke="midnightblue" points="104.5,-89.5706 101,-79.5707 97.5001,-89.5707 104.5,-89.5706"/>
</g>
<!-- Node3 -->
<g id="node5" class="node"><title>Node3</title>
<polygon fill="white" stroke="#bfbfbf" points="-0.5,-0.5 -0.5,-21.5 54.5,-21.5 54.5,-0.5 -0.5,-0.5"/>
<text text-anchor="middle" x="27" y="-8.5" font-family="Helvetica,sans-Serif" font-size="10.00">QObject</text>
</g>
<!-- Node1&#45;&gt;Node3 -->
<g id="edge14" class="edge"><title>Node1&#45;&gt;Node3</title>
<path fill="none" stroke="midnightblue" d="M85.2986,-116.342C73.7563,-107.761 58.4893,-94.7314 49,-80 39.4506,-65.1753 33.7614,-45.8844 30.5689,-31.4703"/>
<polygon fill="midnightblue" stroke="midnightblue" points="33.9795,-30.6758 28.5917,-21.5532 27.1146,-32.0445 33.9795,-30.6758"/>
</g>
<!-- Node7 -->
<g id="node13" class="node"><title>Node7</title>
<polygon fill="white" stroke="#bfbfbf" points="161.5,-58.5 161.5,-79.5 214.5,-79.5 214.5,-58.5 161.5,-58.5"/>
<text text-anchor="middle" x="188" y="-66.5" font-family="Helvetica,sans-Serif" font-size="10.00">QRectF</text>
</g>
<!-- Node1&#45;&gt;Node7 -->
<g id="edge12" class="edge"><title>Node1&#45;&gt;Node7</title>
<path fill="none" stroke="midnightblue" d="M116.957,-116.362C129.957,-107.696 148.531,-95.3126 163.427,-85.3819"/>
<polygon fill="midnightblue" stroke="midnightblue" points="165.765,-88.0299 172.144,-79.5707 161.882,-82.2055 165.765,-88.0299"/>
</g>
<!-- Node2&#45;&gt;Node3 -->
<g id="edge4" class="edge"><title>Node2&#45;&gt;Node3</title>
<path fill="none" stroke="midnightblue" d="M87.4273,-58.3619C76.5788,-49.859 61.1657,-37.7785 48.6215,-27.9466"/>
<polygon fill="midnightblue" stroke="midnightblue" points="50.5164,-24.9848 40.4867,-21.5707 46.1982,-30.4942 50.5164,-24.9848"/>
</g>
<!-- Node4 -->
<g id="node7" class="node"><title>Node4</title>
<polygon fill="white" stroke="#bfbfbf" points="71.5,-0.5 71.5,-21.5 130.5,-21.5 130.5,-0.5 71.5,-0.5"/>
<text text-anchor="middle" x="101" y="-8.5" font-family="Helvetica,sans-Serif" font-size="10.00">QPixmap</text>
</g>
<!-- Node2&#45;&gt;Node4 -->
<g id="edge6" class="edge"><title>Node2&#45;&gt;Node4</title>
<path fill="none" stroke="midnightblue" d="M101,-58.3619C101,-50.9219 101,-40.7427 101,-31.7276"/>
<polygon fill="midnightblue" stroke="midnightblue" points="104.5,-31.5706 101,-21.5707 97.5001,-31.5707 104.5,-31.5706"/>
</g>
<!-- Node5 -->
<g id="node9" class="node"><title>Node5</title>
<polygon fill="white" stroke="#bfbfbf" points="148,-0.5 148,-21.5 194,-21.5 194,-0.5 148,-0.5"/>
<text text-anchor="middle" x="171" y="-8.5" font-family="Helvetica,sans-Serif" font-size="10.00">QUuid</text>
</g>
<!-- Node2&#45;&gt;Node5 -->
<g id="edge8" class="edge"><title>Node2&#45;&gt;Node5</title>
<path fill="none" stroke="midnightblue" d="M113.839,-58.3619C124.002,-49.9408 138.401,-38.0105 150.204,-28.2308"/>
<polygon fill="midnightblue" stroke="midnightblue" points="152.775,-30.6459 158.242,-21.5707 148.309,-25.2558 152.775,-30.6459"/>
</g>
<!-- Node6 -->
<g id="node11" class="node"><title>Node6</title>
<polygon fill="white" stroke="#bfbfbf" points="211.5,-0.5 211.5,-21.5 256.5,-21.5 256.5,-0.5 211.5,-0.5"/>
<text text-anchor="middle" x="234" y="-8.5" font-family="Helvetica,sans-Serif" font-size="10.00">QSize</text>
</g>
<!-- Node2&#45;&gt;Node6 -->
<g id="edge10" class="edge"><title>Node2&#45;&gt;Node6</title>
<path fill="none" stroke="midnightblue" d="M125.085,-58.4966C146.665,-49.0858 178.473,-35.2149 202.149,-24.8899"/>
<polygon fill="midnightblue" stroke="midnightblue" points="203.657,-28.0507 211.424,-20.8451 200.859,-21.6343 203.657,-28.0507"/>
</g>
</g>
</svg>
