<?xml version="1.0" encoding="UTF-8" standalone="no"?>
<!DOCTYPE svg PUBLIC "-//W3C//DTD SVG 1.1//EN"
 "http://www.w3.org/Graphics/SVG/1.1/DTD/svg11.dtd">
<!-- Generated by graphviz version 2.26.3 (20100126.1600)
 -->
<!-- Title: pixpager.h Pages: 1 -->
<svg width="224pt" height="88pt"
 viewBox="0.00 0.00 224.00 88.00" xmlns="http://www.w3.org/2000/svg" xmlns:xlink="http://www.w3.org/1999/xlink">
<g id="graph1" class="graph" transform="scale(1 1) rotate(0) translate(4 84)">
<title>pixpager.h</title>
<polygon fill="white" stroke="white" points="-4,5 -4,-84 221,-84 221,5 -4,5"/>
<!-- Node1 -->
<g id="node1" class="node"><title>Node1</title>
<polygon fill="#bfbfbf" stroke="black" points="86,-58.5 86,-79.5 152,-79.5 152,-58.5 86,-58.5"/>
<text text-anchor="middle" x="119" y="-66.5" font-family="Helvetica,sans-Serif" font-size="10.00">pixpager.h</text>
</g>
<!-- Node2 -->
<g id="node3" class="node"><title>Node2</title>
<a xlink:href="pixpagerdebugger_8cpp.htm" target="_top" xlink:title="pixpagerdebugger.cpp">
<polygon fill="white" stroke="black" points="0,-0.5 0,-21.5 122,-21.5 122,-0.5 0,-0.5"/>
<text text-anchor="middle" x="61" y="-8.5" font-family="Helvetica,sans-Serif" font-size="10.00">pixpagerdebugger.cpp</text>
</a>
</g>
<!-- Node1&#45;&gt;Node2 -->
<g id="edge2" class="edge"><title>Node1&#45;&gt;Node2</title>
<path fill="none" stroke="midnightblue" d="M101.118,-51.118C91.4377,-41.4377 79.8098,-29.8098 71.5707,-21.5707"/>
<polygon fill="midnightblue" stroke="midnightblue" points="98.8159,-53.7657 108.362,-58.3619 103.766,-48.8159 98.8159,-53.7657"/>
</g>
<!-- Node3 -->
<g id="node5" class="node"><title>Node3</title>
<a xlink:href="pixpager_8cpp.htm" target="_top" xlink:title="pixpager.cpp">
<polygon fill="white" stroke="black" points="139.5,-0.5 139.5,-21.5 216.5,-21.5 216.5,-0.5 139.5,-0.5"/>
<text text-anchor="middle" x="178" y="-8.5" font-family="Helvetica,sans-Serif" font-size="10.00">pixpager.cpp</text>
</a>
</g>
<!-- Node1&#45;&gt;Node3 -->
<g id="edge4" class="edge"><title>Node1&#45;&gt;Node3</title>
<path fill="none" stroke="midnightblue" d="M137.19,-51.118C147.037,-41.4377 158.866,-29.8098 167.247,-21.5707"/>
<polygon fill="midnightblue" stroke="midnightblue" points="134.499,-48.8556 129.822,-58.3619 139.406,-53.8474 134.499,-48.8556"/>
</g>
</g>
</svg>
