<?xml version="1.0" encoding="UTF-8" standalone="no"?>
<!DOCTYPE svg PUBLIC "-//W3C//DTD SVG 1.1//EN"
 "http://www.w3.org/Graphics/SVG/1.1/DTD/svg11.dtd">
<!-- Generated by graphviz version 2.26.3 (20100126.1600)
 -->
<!-- Title: pixpagerdebugger.cpp Pages: 1 -->
<svg width="1171pt" height="204pt"
 viewBox="0.00 0.00 1170.72 204.00" xmlns="http://www.w3.org/2000/svg" xmlns:xlink="http://www.w3.org/1999/xlink">
<g id="graph1" class="graph" transform="scale(1 1) rotate(0) translate(4 200)">
<title>pixpagerdebugger.cpp</title>
<polygon fill="white" stroke="white" points="-4,5 -4,-200 1167.72,-200 1167.72,5 -4,5"/>
<!-- Node1 -->
<g id="node1" class="node"><title>Node1</title>
<polygon fill="#bfbfbf" stroke="black" points="683.722,-174.5 683.722,-195.5 805.722,-195.5 805.722,-174.5 683.722,-174.5"/>
<text text-anchor="middle" x="744.722" y="-182.5" font-family="Helvetica,sans-Serif" font-size="10.00">pixpagerdebugger.cpp</text>
</g>
<!-- Node2 -->
<g id="node3" class="node"><title>Node2</title>
<a xlink:href="pixpagerdebugger_8h.htm" target="_top" xlink:title="pixpagerdebugger.h">
<polygon fill="white" stroke="black" points="155.722,-116.5 155.722,-137.5 265.722,-137.5 265.722,-116.5 155.722,-116.5"/>
<text text-anchor="middle" x="210.722" y="-124.5" font-family="Helvetica,sans-Serif" font-size="10.00">pixpagerdebugger.h</text>
</a>
</g>
<!-- Node1&#45;&gt;Node2 -->
<g id="edge2" class="edge"><title>Node1&#45;&gt;Node2</title>
<path fill="none" stroke="midnightblue" d="M683.466,-178.347C582.055,-167.332 380.17,-145.404 276.105,-134.101"/>
<polygon fill="midnightblue" stroke="midnightblue" points="276.361,-130.609 266.042,-133.008 275.605,-137.568 276.361,-130.609"/>
</g>
<!-- Node5 -->
<g id="node9" class="node"><title>Node5</title>
<a xlink:href="pixpager_8h.htm" target="_top" xlink:title="pixpager.h">
<polygon fill="white" stroke="black" points="401.722,-116.5 401.722,-137.5 467.722,-137.5 467.722,-116.5 401.722,-116.5"/>
<text text-anchor="middle" x="434.722" y="-124.5" font-family="Helvetica,sans-Serif" font-size="10.00">pixpager.h</text>
</a>
</g>
<!-- Node1&#45;&gt;Node5 -->
<g id="edge8" class="edge"><title>Node1&#45;&gt;Node5</title>
<path fill="none" stroke="midnightblue" d="M688.583,-174.497C628.099,-163.18 533.143,-145.414 478.123,-135.12"/>
<polygon fill="midnightblue" stroke="midnightblue" points="478.475,-131.625 468.002,-133.227 477.188,-138.506 478.475,-131.625"/>
</g>
<!-- Node7 -->
<g id="node15" class="node"><title>Node7</title>
<polygon fill="white" stroke="#bfbfbf" points="620.222,-58.5 620.222,-79.5 667.222,-79.5 667.222,-58.5 620.222,-58.5"/>
<text text-anchor="middle" x="643.722" y="-66.5" font-family="Helvetica,sans-Serif" font-size="10.00">QRect</text>
</g>
<!-- Node1&#45;&gt;Node7 -->
<g id="edge82" class="edge"><title>Node1&#45;&gt;Node7</title>
<path fill="none" stroke="midnightblue" d="M735.401,-174.295C718.115,-154.441 680.908,-111.709 659.59,-87.2239"/>
<polygon fill="midnightblue" stroke="midnightblue" points="662.227,-84.9228 653.02,-79.6792 656.947,-89.5194 662.227,-84.9228"/>
</g>
<!-- Node19 -->
<g id="node41" class="node"><title>Node19</title>
<a xlink:href="gfxsettings_8h.htm" target="_top" xlink:title="gfxsettings.h">
<polygon fill="white" stroke="black" points="772.722,-116.5 772.722,-137.5 848.722,-137.5 848.722,-116.5 772.722,-116.5"/>
<text text-anchor="middle" x="810.722" y="-124.5" font-family="Helvetica,sans-Serif" font-size="10.00">gfxsettings.h</text>
</a>
</g>
<!-- Node1&#45;&gt;Node19 -->
<g id="edge44" class="edge"><title>Node1&#45;&gt;Node19</title>
<path fill="none" stroke="midnightblue" d="M756.828,-174.362C766.41,-165.941 779.986,-154.011 791.115,-144.231"/>
<polygon fill="midnightblue" stroke="midnightblue" points="793.492,-146.801 798.693,-137.571 788.871,-141.543 793.492,-146.801"/>
</g>
<!-- Node21 -->
<g id="node45" class="node"><title>Node21</title>
<polygon fill="white" stroke="#bfbfbf" points="746.222,-58.5 746.222,-79.5 799.222,-79.5 799.222,-58.5 746.222,-58.5"/>
<text text-anchor="middle" x="772.722" y="-66.5" font-family="Helvetica,sans-Serif" font-size="10.00">QString</text>
</g>
<!-- Node1&#45;&gt;Node21 -->
<g id="edge74" class="edge"><title>Node1&#45;&gt;Node21</title>
<path fill="none" stroke="midnightblue" d="M747.306,-174.295C751.953,-155.045 761.79,-114.289 767.772,-89.5091"/>
<polygon fill="midnightblue" stroke="midnightblue" points="771.2,-90.2213 770.144,-79.6792 764.396,-88.5788 771.2,-90.2213"/>
</g>
<!-- Node26 -->
<g id="node55" class="node"><title>Node26</title>
<polygon fill="white" stroke="#bfbfbf" points="684.222,-58.5 684.222,-79.5 729.222,-79.5 729.222,-58.5 684.222,-58.5"/>
<text text-anchor="middle" x="706.722" y="-66.5" font-family="Helvetica,sans-Serif" font-size="10.00">QSize</text>
</g>
<!-- Node1&#45;&gt;Node26 -->
<g id="edge80" class="edge"><title>Node1&#45;&gt;Node26</title>
<path fill="none" stroke="midnightblue" d="M741.215,-174.295C734.909,-155.045 721.558,-114.289 713.441,-89.5091"/>
<polygon fill="midnightblue" stroke="midnightblue" points="716.66,-88.0927 710.221,-79.6792 710.008,-90.2719 716.66,-88.0927"/>
</g>
<!-- Node27 -->
<g id="node57" class="node"><title>Node27</title>
<a xlink:href="pixmapobject_8h.htm" target="_top" xlink:title="pixmapobject.h">
<polygon fill="white" stroke="black" points="51.7222,-116.5 51.7222,-137.5 137.722,-137.5 137.722,-116.5 51.7222,-116.5"/>
<text text-anchor="middle" x="94.7222" y="-124.5" font-family="Helvetica,sans-Serif" font-size="10.00">pixmapobject.h</text>
</a>
</g>
<!-- Node1&#45;&gt;Node27 -->
<g id="edge60" class="edge"><title>Node1&#45;&gt;Node27</title>
<path fill="none" stroke="midnightblue" d="M683.31,-182.809C576.439,-178.42 349.23,-166.541 147.946,-138.017"/>
<polygon fill="midnightblue" stroke="midnightblue" points="148.171,-134.513 137.775,-136.558 147.177,-141.442 148.171,-134.513"/>
</g>
<!-- Node29 -->
<g id="node64" class="node"><title>Node29</title>
<polygon fill="white" stroke="#bfbfbf" points="866.722,-116.5 866.722,-137.5 946.722,-137.5 946.722,-116.5 866.722,-116.5"/>
<text text-anchor="middle" x="906.722" y="-124.5" font-family="Helvetica,sans-Serif" font-size="10.00">QTextStream</text>
</g>
<!-- Node1&#45;&gt;Node29 -->
<g id="edge70" class="edge"><title>Node1&#45;&gt;Node29</title>
<path fill="none" stroke="midnightblue" d="M774.059,-174.497C800.241,-165.123 838.782,-151.324 867.585,-141.012"/>
<polygon fill="midnightblue" stroke="midnightblue" points="869.095,-144.189 877.33,-137.523 866.736,-137.599 869.095,-144.189"/>
</g>
<!-- Node30 -->
<g id="node66" class="node"><title>Node30</title>
<polygon fill="white" stroke="#bfbfbf" points="964.222,-116.5 964.222,-137.5 1019.22,-137.5 1019.22,-116.5 964.222,-116.5"/>
<text text-anchor="middle" x="991.722" y="-124.5" font-family="Helvetica,sans-Serif" font-size="10.00">QDebug</text>
</g>
<!-- Node1&#45;&gt;Node30 -->
<g id="edge72" class="edge"><title>Node1&#45;&gt;Node30</title>
<path fill="none" stroke="midnightblue" d="M797.455,-174.436C838.044,-166.036 895.721,-153.522 954.118,-138.307"/>
<polygon fill="midnightblue" stroke="midnightblue" points="955.094,-141.67 963.875,-135.742 953.314,-134.9 955.094,-141.67"/>
</g>
<!-- Node31 -->
<g id="node69" class="node"><title>Node31</title>
<polygon fill="white" stroke="#bfbfbf" points="1036.22,-116.5 1036.22,-137.5 1107.22,-137.5 1107.22,-116.5 1036.22,-116.5"/>
<text text-anchor="middle" x="1071.72" y="-124.5" font-family="Helvetica,sans-Serif" font-size="10.00">QDateTime</text>
</g>
<!-- Node1&#45;&gt;Node31 -->
<g id="edge76" class="edge"><title>Node1&#45;&gt;Node31</title>
<path fill="none" stroke="midnightblue" d="M805.987,-176.279C861.239,-168.084 944.921,-154.858 1025.9,-138.279"/>
<polygon fill="midnightblue" stroke="midnightblue" points="1026.67,-141.693 1035.76,-136.241 1025.26,-134.838 1026.67,-141.693"/>
</g>
<!-- Node32 -->
<g id="node71" class="node"><title>Node32</title>
<polygon fill="white" stroke="#bfbfbf" points="1124.72,-116.5 1124.72,-137.5 1162.72,-137.5 1162.72,-116.5 1124.72,-116.5"/>
<text text-anchor="middle" x="1143.72" y="-124.5" font-family="Helvetica,sans-Serif" font-size="10.00">QDir</text>
</g>
<!-- Node1&#45;&gt;Node32 -->
<g id="edge78" class="edge"><title>Node1&#45;&gt;Node32</title>
<path fill="none" stroke="midnightblue" d="M805.994,-181.902C878.168,-177.221 1001.55,-165.985 1114.78,-137.73"/>
<polygon fill="midnightblue" stroke="midnightblue" points="1115.82,-141.076 1124.65,-135.216 1114.1,-134.292 1115.82,-141.076"/>
</g>
<!-- Node3 -->
<g id="node5" class="node"><title>Node3</title>
<polygon fill="white" stroke="#bfbfbf" points="88.2222,-58.5 88.2222,-79.5 143.222,-79.5 143.222,-58.5 88.2222,-58.5"/>
<text text-anchor="middle" x="115.722" y="-66.5" font-family="Helvetica,sans-Serif" font-size="10.00">QObject</text>
</g>
<!-- Node2&#45;&gt;Node3 -->
<g id="edge4" class="edge"><title>Node2&#45;&gt;Node3</title>
<path fill="none" stroke="midnightblue" d="M193.298,-116.362C178.835,-107.532 158.053,-94.844 141.638,-84.8224"/>
<polygon fill="midnightblue" stroke="midnightblue" points="143.395,-81.7943 133.036,-79.5707 139.747,-87.7688 143.395,-81.7943"/>
</g>
<!-- Node4 -->
<g id="node7" class="node"><title>Node4</title>
<polygon fill="white" stroke="#bfbfbf" points="160.222,-58.5 160.222,-79.5 219.222,-79.5 219.222,-58.5 160.222,-58.5"/>
<text text-anchor="middle" x="189.722" y="-66.5" font-family="Helvetica,sans-Serif" font-size="10.00">QPointer</text>
</g>
<!-- Node2&#45;&gt;Node4 -->
<g id="edge6" class="edge"><title>Node2&#45;&gt;Node4</title>
<path fill="none" stroke="midnightblue" d="M206.87,-116.362C204.117,-108.758 200.329,-98.294 197.012,-89.1349"/>
<polygon fill="midnightblue" stroke="midnightblue" points="200.245,-87.7818 193.549,-79.5707 193.663,-90.1649 200.245,-87.7818"/>
</g>
<!-- Node5&#45;&gt;Node3 -->
<g id="edge10" class="edge"><title>Node5&#45;&gt;Node3</title>
<path fill="none" stroke="midnightblue" d="M401.328,-122.908C349.924,-116.294 248.201,-101.966 153.551,-80.2295"/>
<polygon fill="midnightblue" stroke="midnightblue" points="154.065,-76.7555 143.531,-77.894 152.476,-83.5727 154.065,-76.7555"/>
</g>
<!-- Node5&#45;&gt;Node4 -->
<g id="edge12" class="edge"><title>Node5&#45;&gt;Node4</title>
<path fill="none" stroke="midnightblue" d="M401.427,-119.487C361.343,-110.389 292.01,-94.4789 232.722,-80 231.637,-79.7349 230.536,-79.4646 229.426,-79.1904"/>
<polygon fill="midnightblue" stroke="midnightblue" points="229.859,-75.6911 219.309,-76.6591 228.16,-82.4817 229.859,-75.6911"/>
</g>
<!-- Node6 -->
<g id="node13" class="node"><title>Node6</title>
<polygon fill="white" stroke="#bfbfbf" points="21.7222,-0.5 21.7222,-21.5 67.7222,-21.5 67.7222,-0.5 21.7222,-0.5"/>
<text text-anchor="middle" x="44.7222" y="-8.5" font-family="Helvetica,sans-Serif" font-size="10.00">QUuid</text>
</g>
<!-- Node5&#45;&gt;Node6 -->
<g id="edge14" class="edge"><title>Node5&#45;&gt;Node6</title>
<path fill="none" stroke="midnightblue" d="M401.493,-120.378C366.797,-112.864 311.201,-99.1222 265.722,-80 247.733,-72.436 245.849,-65.228 227.722,-58 166.516,-33.5946 144.922,-40.5162 77.8344,-22.0885"/>
<polygon fill="midnightblue" stroke="midnightblue" points="78.6329,-18.677 68.0572,-19.3141 76.722,-25.4111 78.6329,-18.677"/>
</g>
<!-- Node5&#45;&gt;Node7 -->
<g id="edge16" class="edge"><title>Node5&#45;&gt;Node7</title>
<path fill="none" stroke="midnightblue" d="M467.87,-118.952C501.561,-110.606 555.446,-96.8064 610.158,-80.3515"/>
<polygon fill="midnightblue" stroke="midnightblue" points="611.465,-83.6126 620.018,-77.3595 609.433,-76.9142 611.465,-83.6126"/>
</g>
<!-- Node8 -->
<g id="node17" class="node"><title>Node8</title>
<a xlink:href="dimensionsglobal_8h.htm" target="_top" xlink:title="dimensionsglobal.h">
<polygon fill="white" stroke="black" points="274.722,-58.5 274.722,-79.5 380.722,-79.5 380.722,-58.5 274.722,-58.5"/>
<text text-anchor="middle" x="327.722" y="-66.5" font-family="Helvetica,sans-Serif" font-size="10.00">dimensionsglobal.h</text>
</a>
</g>
<!-- Node5&#45;&gt;Node8 -->
<g id="edge18" class="edge"><title>Node5&#45;&gt;Node8</title>
<path fill="none" stroke="midnightblue" d="M415.097,-116.362C398.581,-107.409 374.748,-94.4908 356.144,-84.4064"/>
<polygon fill="midnightblue" stroke="midnightblue" points="357.683,-81.2592 347.223,-79.5707 354.347,-87.4132 357.683,-81.2592"/>
</g>
<!-- Node14 -->
<g id="node30" class="node"><title>Node14</title>
<polygon fill="white" stroke="#bfbfbf" points="539.722,-0.5 539.722,-21.5 589.722,-21.5 589.722,-0.5 539.722,-0.5"/>
<text text-anchor="middle" x="564.722" y="-8.5" font-family="Helvetica,sans-Serif" font-size="10.00">QHash</text>
</g>
<!-- Node5&#45;&gt;Node14 -->
<g id="edge36" class="edge"><title>Node5&#45;&gt;Node14</title>
<path fill="none" stroke="midnightblue" d="M429.49,-116.049C423.333,-101.392 415.406,-75.2454 427.722,-58 429.284,-55.8129 489.892,-35.5753 529.963,-22.3785"/>
<polygon fill="midnightblue" stroke="midnightblue" points="531.254,-25.6387 539.66,-19.1904 529.067,-18.9889 531.254,-25.6387"/>
</g>
<!-- Node16 -->
<g id="node35" class="node"><title>Node16</title>
<polygon fill="white" stroke="#bfbfbf" points="436.722,-58.5 436.722,-79.5 482.722,-79.5 482.722,-58.5 436.722,-58.5"/>
<text text-anchor="middle" x="459.722" y="-66.5" font-family="Helvetica,sans-Serif" font-size="10.00">QMap</text>
</g>
<!-- Node5&#45;&gt;Node16 -->
<g id="edge38" class="edge"><title>Node5&#45;&gt;Node16</title>
<path fill="none" stroke="midnightblue" d="M439.308,-116.362C442.62,-108.677 447.193,-98.0686 451.17,-88.8399"/>
<polygon fill="midnightblue" stroke="midnightblue" points="454.422,-90.1393 455.166,-79.5707 447.993,-87.3685 454.422,-90.1393"/>
</g>
<!-- Node17 -->
<g id="node37" class="node"><title>Node17</title>
<polygon fill="white" stroke="#bfbfbf" points="500.722,-58.5 500.722,-79.5 544.722,-79.5 544.722,-58.5 500.722,-58.5"/>
<text text-anchor="middle" x="522.722" y="-66.5" font-family="Helvetica,sans-Serif" font-size="10.00">QPair</text>
</g>
<!-- Node5&#45;&gt;Node17 -->
<g id="edge40" class="edge"><title>Node5&#45;&gt;Node17</title>
<path fill="none" stroke="midnightblue" d="M450.863,-116.362C464.136,-107.614 483.155,-95.0786 498.292,-85.1015"/>
<polygon fill="midnightblue" stroke="midnightblue" points="500.26,-87.9962 506.684,-79.5707 496.408,-82.1515 500.26,-87.9962"/>
</g>
<!-- Node18 -->
<g id="node39" class="node"><title>Node18</title>
<polygon fill="white" stroke="#bfbfbf" points="562.222,-58.5 562.222,-79.5 603.222,-79.5 603.222,-58.5 562.222,-58.5"/>
<text text-anchor="middle" x="582.722" y="-66.5" font-family="Helvetica,sans-Serif" font-size="10.00">QList</text>
</g>
<!-- Node5&#45;&gt;Node18 -->
<g id="edge42" class="edge"><title>Node5&#45;&gt;Node18</title>
<path fill="none" stroke="midnightblue" d="M461.524,-116.497C487.081,-106.481 525.528,-91.414 552.24,-80.9456"/>
<polygon fill="midnightblue" stroke="midnightblue" points="553.819,-84.0863 561.852,-77.1788 551.264,-77.5689 553.819,-84.0863"/>
</g>
<!-- Node8&#45;&gt;Node6 -->
<g id="edge30" class="edge"><title>Node8&#45;&gt;Node6</title>
<path fill="none" stroke="midnightblue" d="M274.659,-60.0022C216.599,-50.0032 126.277,-33.9598 77.7208,-21.9472"/>
<polygon fill="midnightblue" stroke="midnightblue" points="78.5769,-18.5535 68.02,-19.4487 76.8309,-25.3323 78.5769,-18.5535"/>
</g>
<!-- Node9 -->
<g id="node19" class="node"><title>Node9</title>
<polygon fill="white" stroke="#bfbfbf" points="85.2222,-0.5 85.2222,-21.5 144.222,-21.5 144.222,-0.5 85.2222,-0.5"/>
<text text-anchor="middle" x="114.722" y="-8.5" font-family="Helvetica,sans-Serif" font-size="10.00">qglobal.h</text>
</g>
<!-- Node8&#45;&gt;Node9 -->
<g id="edge20" class="edge"><title>Node8&#45;&gt;Node9</title>
<path fill="none" stroke="midnightblue" d="M287.697,-58.4866C254.338,-49.6712 205.316,-36.5954 154.435,-22.4491"/>
<polygon fill="midnightblue" stroke="midnightblue" points="155.15,-19.0152 144.577,-19.7015 153.27,-25.7581 155.15,-19.0152"/>
</g>
<!-- Node10 -->
<g id="node21" class="node"><title>Node10</title>
<polygon fill="white" stroke="#bfbfbf" points="161.722,-0.5 161.722,-21.5 215.722,-21.5 215.722,-0.5 161.722,-0.5"/>
<text text-anchor="middle" x="188.722" y="-8.5" font-family="Helvetica,sans-Serif" font-size="10.00">qmath.h</text>
</g>
<!-- Node8&#45;&gt;Node10 -->
<g id="edge22" class="edge"><title>Node8&#45;&gt;Node10</title>
<path fill="none" stroke="midnightblue" d="M302.55,-58.4966C280.449,-49.2746 248.083,-35.7695 223.509,-25.5153"/>
<polygon fill="midnightblue" stroke="midnightblue" points="224.753,-22.2421 214.176,-21.6212 222.057,-28.7022 224.753,-22.2421"/>
</g>
<!-- Node11 -->
<g id="node23" class="node"><title>Node11</title>
<polygon fill="white" stroke="#bfbfbf" points="233.222,-0.5 233.222,-21.5 286.222,-21.5 286.222,-0.5 233.222,-0.5"/>
<text text-anchor="middle" x="259.722" y="-8.5" font-family="Helvetica,sans-Serif" font-size="10.00">QRectF</text>
</g>
<!-- Node8&#45;&gt;Node11 -->
<g id="edge24" class="edge"><title>Node8&#45;&gt;Node11</title>
<path fill="none" stroke="midnightblue" d="M315.25,-58.3619C305.377,-49.9408 291.39,-38.0105 279.924,-28.2308"/>
<polygon fill="midnightblue" stroke="midnightblue" points="281.995,-25.3972 272.115,-21.5707 277.452,-30.7231 281.995,-25.3972"/>
</g>
<!-- Node12 -->
<g id="node25" class="node"><title>Node12</title>
<polygon fill="white" stroke="#bfbfbf" points="303.222,-0.5 303.222,-21.5 352.222,-21.5 352.222,-0.5 303.222,-0.5"/>
<text text-anchor="middle" x="327.722" y="-8.5" font-family="Helvetica,sans-Serif" font-size="10.00">QPoint</text>
</g>
<!-- Node8&#45;&gt;Node12 -->
<g id="edge26" class="edge"><title>Node8&#45;&gt;Node12</title>
<path fill="none" stroke="midnightblue" d="M327.722,-58.3619C327.722,-50.9219 327.722,-40.7427 327.722,-31.7276"/>
<polygon fill="midnightblue" stroke="midnightblue" points="331.222,-31.5706 327.722,-21.5707 324.222,-31.5707 331.222,-31.5706"/>
</g>
<!-- Node13 -->
<g id="node27" class="node"><title>Node13</title>
<polygon fill="white" stroke="#bfbfbf" points="369.222,-0.5 369.222,-21.5 424.222,-21.5 424.222,-0.5 369.222,-0.5"/>
<text text-anchor="middle" x="396.722" y="-8.5" font-family="Helvetica,sans-Serif" font-size="10.00">QPointF</text>
</g>
<!-- Node8&#45;&gt;Node13 -->
<g id="edge28" class="edge"><title>Node8&#45;&gt;Node13</title>
<path fill="none" stroke="midnightblue" d="M340.378,-58.3619C350.396,-49.9408 364.589,-38.0105 376.223,-28.2308"/>
<polygon fill="midnightblue" stroke="midnightblue" points="378.744,-30.6844 384.147,-21.5707 374.24,-25.326 378.744,-30.6844"/>
</g>
<!-- Node8&#45;&gt;Node14 -->
<g id="edge32" class="edge"><title>Node8&#45;&gt;Node14</title>
<path fill="none" stroke="midnightblue" d="M378.916,-58.4142C417.892,-50.0679 473.039,-37.6458 529.698,-22.1336"/>
<polygon fill="midnightblue" stroke="midnightblue" points="530.838,-25.4497 539.544,-19.4106 528.972,-18.7029 530.838,-25.4497"/>
</g>
<!-- Node15 -->
<g id="node32" class="node"><title>Node15</title>
<polygon fill="white" stroke="#bfbfbf" points="441.722,-0.5 441.722,-21.5 521.722,-21.5 521.722,-0.5 441.722,-0.5"/>
<text text-anchor="middle" x="481.722" y="-8.5" font-family="Helvetica,sans-Serif" font-size="10.00">QVariantMap</text>
</g>
<!-- Node8&#45;&gt;Node15 -->
<g id="edge34" class="edge"><title>Node8&#45;&gt;Node15</title>
<path fill="none" stroke="midnightblue" d="M355.61,-58.4966C380.39,-49.1639 416.817,-35.4447 444.158,-25.1475"/>
<polygon fill="midnightblue" stroke="midnightblue" points="445.657,-28.3231 453.782,-21.5231 443.19,-21.7723 445.657,-28.3231"/>
</g>
<!-- Node20 -->
<g id="node43" class="node"><title>Node20</title>
<polygon fill="white" stroke="#bfbfbf" points="892.222,-58.5 892.222,-79.5 959.222,-79.5 959.222,-58.5 892.222,-58.5"/>
<text text-anchor="middle" x="925.722" y="-66.5" font-family="Helvetica,sans-Serif" font-size="10.00">Common.h</text>
</g>
<!-- Node19&#45;&gt;Node20 -->
<g id="edge46" class="edge"><title>Node19&#45;&gt;Node20</title>
<path fill="none" stroke="midnightblue" d="M831.548,-116.497C849.428,-107.479 875.43,-94.3649 895.583,-84.2006"/>
<polygon fill="midnightblue" stroke="midnightblue" points="897.31,-87.2495 904.663,-79.6212 894.158,-80.9994 897.31,-87.2495"/>
</g>
<!-- Node19&#45;&gt;Node21 -->
<g id="edge48" class="edge"><title>Node19&#45;&gt;Node21</title>
<path fill="none" stroke="midnightblue" d="M803.752,-116.362C798.556,-108.431 791.322,-97.3885 785.145,-87.9606"/>
<polygon fill="midnightblue" stroke="midnightblue" points="788.056,-86.0172 779.648,-79.5707 782.2,-89.8534 788.056,-86.0172"/>
</g>
<!-- Node22 -->
<g id="node47" class="node"><title>Node22</title>
<polygon fill="white" stroke="#bfbfbf" points="976.722,-58.5 976.722,-79.5 1022.72,-79.5 1022.72,-58.5 976.722,-58.5"/>
<text text-anchor="middle" x="999.722" y="-66.5" font-family="Helvetica,sans-Serif" font-size="10.00">vector</text>
</g>
<!-- Node19&#45;&gt;Node22 -->
<g id="edge50" class="edge"><title>Node19&#45;&gt;Node22</title>
<path fill="none" stroke="midnightblue" d="M847.333,-116.492C877.178,-107.826 920.633,-94.9798 967.054,-80.1374"/>
<polygon fill="midnightblue" stroke="midnightblue" points="968.237,-83.4335 976.687,-77.0421 966.096,-76.7691 968.237,-83.4335"/>
</g>
<!-- Node23 -->
<g id="node49" class="node"><title>Node23</title>
<polygon fill="white" stroke="#bfbfbf" points="1040.22,-58.5 1040.22,-79.5 1071.22,-79.5 1071.22,-58.5 1040.22,-58.5"/>
<text text-anchor="middle" x="1055.72" y="-66.5" font-family="Helvetica,sans-Serif" font-size="10.00">set</text>
</g>
<!-- Node19&#45;&gt;Node23 -->
<g id="edge52" class="edge"><title>Node19&#45;&gt;Node23</title>
<path fill="none" stroke="midnightblue" d="M848.923,-117.972C851.898,-117.296 854.858,-116.631 857.722,-116 931.829,-99.6645 954.892,-104.205 1030.67,-79.8548"/>
<polygon fill="midnightblue" stroke="midnightblue" points="1031.76,-83.1788 1040.18,-76.7387 1029.58,-76.5268 1031.76,-83.1788"/>
</g>
<!-- Node24 -->
<g id="node51" class="node"><title>Node24</title>
<polygon fill="white" stroke="#bfbfbf" points="1088.22,-58.5 1088.22,-79.5 1129.22,-79.5 1129.22,-58.5 1088.22,-58.5"/>
<text text-anchor="middle" x="1108.72" y="-66.5" font-family="Helvetica,sans-Serif" font-size="10.00">glib.h</text>
</g>
<!-- Node19&#45;&gt;Node24 -->
<g id="edge54" class="edge"><title>Node19&#45;&gt;Node24</title>
<path fill="none" stroke="midnightblue" d="M848.894,-117.833C851.876,-117.189 854.845,-116.569 857.722,-116 952.617,-97.2245 981.33,-105.289 1078.08,-80.0748"/>
<polygon fill="midnightblue" stroke="midnightblue" points="1079.21,-83.3955 1087.98,-77.443 1077.41,-76.6306 1079.21,-83.3955"/>
</g>
<!-- Node25 -->
<g id="node53" class="node"><title>Node25</title>
<polygon fill="white" stroke="#bfbfbf" points="816.722,-58.5 816.722,-79.5 874.722,-79.5 874.722,-58.5 816.722,-58.5"/>
<text text-anchor="middle" x="845.722" y="-66.5" font-family="Helvetica,sans-Serif" font-size="10.00">QtGlobal</text>
</g>
<!-- Node19&#45;&gt;Node25 -->
<g id="edge56" class="edge"><title>Node19&#45;&gt;Node25</title>
<path fill="none" stroke="midnightblue" d="M817.142,-116.362C821.878,-108.513 828.454,-97.6159 834.104,-88.2527"/>
<polygon fill="midnightblue" stroke="midnightblue" points="837.173,-89.9409 839.343,-79.5707 831.18,-86.3242 837.173,-89.9409"/>
</g>
<!-- Node19&#45;&gt;Node26 -->
<g id="edge58" class="edge"><title>Node19&#45;&gt;Node26</title>
<path fill="none" stroke="midnightblue" d="M791.647,-116.362C775.667,-107.45 752.641,-94.6087 734.595,-84.5447"/>
<polygon fill="midnightblue" stroke="midnightblue" points="736.115,-81.3846 725.676,-79.5707 732.705,-87.4982 736.115,-81.3846"/>
</g>
<!-- Node27&#45;&gt;Node3 -->
<g id="edge62" class="edge"><title>Node27&#45;&gt;Node3</title>
<path fill="none" stroke="midnightblue" d="M98.5739,-116.362C101.327,-108.758 105.116,-98.294 108.432,-89.1349"/>
<polygon fill="midnightblue" stroke="midnightblue" points="111.781,-90.1649 111.895,-79.5707 105.199,-87.7818 111.781,-90.1649"/>
</g>
<!-- Node27&#45;&gt;Node6 -->
<g id="edge66" class="edge"><title>Node27&#45;&gt;Node6</title>
<path fill="none" stroke="midnightblue" d="M53.4152,-116.374C34.8227,-109.306 14.6359,-97.9202 3.72215,-80 -6.95555,-62.4674 8.23394,-42.2633 23.0551,-28.2687"/>
<polygon fill="midnightblue" stroke="midnightblue" points="25.4633,-30.8113 30.6331,-21.5634 20.8246,-25.5689 25.4633,-30.8113"/>
</g>
<!-- Node27&#45;&gt;Node26 -->
<g id="edge68" class="edge"><title>Node27&#45;&gt;Node26</title>
<path fill="none" stroke="midnightblue" d="M137.77,-117.407C140.791,-116.884 143.797,-116.407 146.722,-116 376.825,-83.9942 443.106,-126.608 673.853,-79.9489"/>
<polygon fill="midnightblue" stroke="midnightblue" points="674.809,-83.3256 683.899,-77.8826 673.399,-76.4692 674.809,-83.3256"/>
</g>
<!-- Node28 -->
<g id="node60" class="node"><title>Node28</title>
<polygon fill="white" stroke="#bfbfbf" points="12.2222,-58.5 12.2222,-79.5 71.2222,-79.5 71.2222,-58.5 12.2222,-58.5"/>
<text text-anchor="middle" x="41.7222" y="-66.5" font-family="Helvetica,sans-Serif" font-size="10.00">QPixmap</text>
</g>
<!-- Node27&#45;&gt;Node28 -->
<g id="edge64" class="edge"><title>Node27&#45;&gt;Node28</title>
<path fill="none" stroke="midnightblue" d="M85.0011,-116.362C77.5301,-108.186 67.0365,-96.7025 58.2533,-87.0907"/>
<polygon fill="midnightblue" stroke="midnightblue" points="60.711,-84.5918 51.3815,-79.5707 55.5435,-89.3138 60.711,-84.5918"/>
</g>
</g>
</svg>
