<?xml version="1.0" encoding="UTF-8" standalone="no"?>
<!DOCTYPE svg PUBLIC "-//W3C//DTD SVG 1.1//EN"
 "http://www.w3.org/Graphics/SVG/1.1/DTD/svg11.dtd">
<!-- Generated by graphviz version 2.26.3 (20100126.1600)
 -->
<!-- Title: pixpager.cpp Pages: 1 -->
<svg width="1423pt" height="204pt"
 viewBox="0.00 0.00 1423.00 204.00" xmlns="http://www.w3.org/2000/svg" xmlns:xlink="http://www.w3.org/1999/xlink">
<g id="graph1" class="graph" transform="scale(1 1) rotate(0) translate(4 200)">
<title>pixpager.cpp</title>
<polygon fill="white" stroke="white" points="-4,5 -4,-200 1420,-200 1420,5 -4,5"/>
<!-- Node1 -->
<g id="node1" class="node"><title>Node1</title>
<polygon fill="#bfbfbf" stroke="black" points="976.5,-174.5 976.5,-195.5 1053.5,-195.5 1053.5,-174.5 976.5,-174.5"/>
<text text-anchor="middle" x="1015" y="-182.5" font-family="Helvetica,sans-Serif" font-size="10.00">pixpager.cpp</text>
</g>
<!-- Node2 -->
<g id="node3" class="node"><title>Node2</title>
<a xlink:href="pixpager_8h.htm" target="_top" xlink:title="pixpager.h">
<polygon fill="white" stroke="black" points="504,-116.5 504,-137.5 570,-137.5 570,-116.5 504,-116.5"/>
<text text-anchor="middle" x="537" y="-124.5" font-family="Helvetica,sans-Serif" font-size="10.00">pixpager.h</text>
</a>
</g>
<!-- Node1&#45;&gt;Node2 -->
<g id="edge2" class="edge"><title>Node1&#45;&gt;Node2</title>
<path fill="none" stroke="midnightblue" d="M976.288,-180.303C888.117,-169.604 672.851,-143.484 580.378,-132.263"/>
<polygon fill="midnightblue" stroke="midnightblue" points="580.596,-128.764 570.247,-131.034 579.753,-135.713 580.596,-128.764"/>
</g>
<!-- Node15 -->
<g id="node31" class="node"><title>Node15</title>
<polygon fill="white" stroke="#bfbfbf" points="590,-58.5 590,-79.5 636,-79.5 636,-58.5 590,-58.5"/>
<text text-anchor="middle" x="613" y="-66.5" font-family="Helvetica,sans-Serif" font-size="10.00">QMap</text>
</g>
<!-- Node1&#45;&gt;Node15 -->
<g id="edge70" class="edge"><title>Node1&#45;&gt;Node15</title>
<path fill="none" stroke="midnightblue" d="M976.085,-181.811C923.289,-176.667 826.544,-164.323 748,-138 707.815,-124.533 664.774,-100.71 638.367,-84.8859"/>
<polygon fill="midnightblue" stroke="midnightblue" points="640.116,-81.8532 629.752,-79.6525 636.482,-87.8358 640.116,-81.8532"/>
</g>
<!-- Node17 -->
<g id="node35" class="node"><title>Node17</title>
<polygon fill="white" stroke="#bfbfbf" points="653.5,-58.5 653.5,-79.5 694.5,-79.5 694.5,-58.5 653.5,-58.5"/>
<text text-anchor="middle" x="674" y="-66.5" font-family="Helvetica,sans-Serif" font-size="10.00">QList</text>
</g>
<!-- Node1&#45;&gt;Node17 -->
<g id="edge72" class="edge"><title>Node1&#45;&gt;Node17</title>
<path fill="none" stroke="midnightblue" d="M976.191,-180.022C932.195,-173.592 858.818,-160.469 799,-138 762.168,-124.165 722.957,-100.961 698.476,-85.3246"/>
<polygon fill="midnightblue" stroke="midnightblue" points="700.146,-82.2362 689.85,-79.7374 696.34,-88.1115 700.146,-82.2362"/>
</g>
<!-- Node18 -->
<g id="node37" class="node"><title>Node18</title>
<a xlink:href="pixmapobject_8h.htm" target="_top" xlink:title="pixmapobject.h">
<polygon fill="white" stroke="black" points="808,-116.5 808,-137.5 894,-137.5 894,-116.5 808,-116.5"/>
<text text-anchor="middle" x="851" y="-124.5" font-family="Helvetica,sans-Serif" font-size="10.00">pixmapobject.h</text>
</a>
</g>
<!-- Node1&#45;&gt;Node18 -->
<g id="edge38" class="edge"><title>Node1&#45;&gt;Node18</title>
<path fill="none" stroke="midnightblue" d="M985.301,-174.497C958.68,-165.082 919.438,-151.204 890.239,-140.877"/>
<polygon fill="midnightblue" stroke="midnightblue" points="891.35,-137.558 880.755,-137.523 889.016,-144.157 891.35,-137.558"/>
</g>
<!-- Node21 -->
<g id="node45" class="node"><title>Node21</title>
<a xlink:href="gfxsettings_8h.htm" target="_top" xlink:title="gfxsettings.h">
<polygon fill="white" stroke="black" points="977,-116.5 977,-137.5 1053,-137.5 1053,-116.5 977,-116.5"/>
<text text-anchor="middle" x="1015" y="-124.5" font-family="Helvetica,sans-Serif" font-size="10.00">gfxsettings.h</text>
</a>
</g>
<!-- Node1&#45;&gt;Node21 -->
<g id="edge48" class="edge"><title>Node1&#45;&gt;Node21</title>
<path fill="none" stroke="midnightblue" d="M1015,-174.362C1015,-166.922 1015,-156.743 1015,-147.728"/>
<polygon fill="midnightblue" stroke="midnightblue" points="1018.5,-147.571 1015,-137.571 1011.5,-147.571 1018.5,-147.571"/>
</g>
<!-- Node27 -->
<g id="node57" class="node"><title>Node27</title>
<polygon fill="white" stroke="#bfbfbf" points="1284,-58.5 1284,-79.5 1342,-79.5 1342,-58.5 1284,-58.5"/>
<text text-anchor="middle" x="1313" y="-66.5" font-family="Helvetica,sans-Serif" font-size="10.00">QtGlobal</text>
</g>
<!-- Node1&#45;&gt;Node27 -->
<g id="edge66" class="edge"><title>Node1&#45;&gt;Node27</title>
<path fill="none" stroke="midnightblue" d="M1024.61,-174.495C1039.29,-159.122 1068.91,-130.727 1100,-116 1168.96,-83.3347 1195.8,-97.8006 1273.83,-80.0833"/>
<polygon fill="midnightblue" stroke="midnightblue" points="1274.68,-83.4772 1283.6,-77.7578 1273.06,-76.6673 1274.68,-83.4772"/>
</g>
<!-- Node28 -->
<g id="node60" class="node"><title>Node28</title>
<polygon fill="white" stroke="#bfbfbf" points="1108.5,-116.5 1108.5,-137.5 1229.5,-137.5 1229.5,-116.5 1108.5,-116.5"/>
<text text-anchor="middle" x="1169" y="-124.5" font-family="Helvetica,sans-Serif" font-size="10.00">QMutableHashIterator</text>
</g>
<!-- Node1&#45;&gt;Node28 -->
<g id="edge64" class="edge"><title>Node1&#45;&gt;Node28</title>
<path fill="none" stroke="midnightblue" d="M1042.89,-174.497C1067.67,-165.164 1104.1,-151.445 1131.44,-141.147"/>
<polygon fill="midnightblue" stroke="midnightblue" points="1132.93,-144.323 1141.06,-137.523 1130.47,-137.772 1132.93,-144.323"/>
</g>
<!-- Node29 -->
<g id="node63" class="node"><title>Node29</title>
<polygon fill="white" stroke="#bfbfbf" points="1247,-116.5 1247,-137.5 1339,-137.5 1339,-116.5 1247,-116.5"/>
<text text-anchor="middle" x="1293" y="-124.5" font-family="Helvetica,sans-Serif" font-size="10.00">QtCore/qmath.h</text>
</g>
<!-- Node1&#45;&gt;Node29 -->
<g id="edge68" class="edge"><title>Node1&#45;&gt;Node29</title>
<path fill="none" stroke="midnightblue" d="M1053.65,-176.935C1101.27,-167.002 1182.52,-150.051 1236.97,-138.69"/>
<polygon fill="midnightblue" stroke="midnightblue" points="1237.74,-142.105 1246.81,-136.637 1236.31,-135.253 1237.74,-142.105"/>
</g>
<!-- Node30 -->
<g id="node67" class="node"><title>Node30</title>
<polygon fill="white" stroke="#bfbfbf" points="1356.5,-116.5 1356.5,-137.5 1415.5,-137.5 1415.5,-116.5 1356.5,-116.5"/>
<text text-anchor="middle" x="1386" y="-124.5" font-family="Helvetica,sans-Serif" font-size="10.00">QPainter</text>
</g>
<!-- Node1&#45;&gt;Node30 -->
<g id="edge74" class="edge"><title>Node1&#45;&gt;Node30</title>
<path fill="none" stroke="midnightblue" d="M1053.52,-181.354C1114.03,-175.238 1235.16,-161.431 1346.21,-138.18"/>
<polygon fill="midnightblue" stroke="midnightblue" points="1347.18,-141.552 1356.23,-136.049 1345.72,-134.705 1347.18,-141.552"/>
</g>
<!-- Node3 -->
<g id="node5" class="node"><title>Node3</title>
<polygon fill="white" stroke="#bfbfbf" points="711.5,-58.5 711.5,-79.5 766.5,-79.5 766.5,-58.5 711.5,-58.5"/>
<text text-anchor="middle" x="739" y="-66.5" font-family="Helvetica,sans-Serif" font-size="10.00">QObject</text>
</g>
<!-- Node2&#45;&gt;Node3 -->
<g id="edge4" class="edge"><title>Node2&#45;&gt;Node3</title>
<path fill="none" stroke="midnightblue" d="M570.128,-117.837C601.645,-109.072 650.638,-95.3235 701.298,-80.4691"/>
<polygon fill="midnightblue" stroke="midnightblue" points="702.502,-83.7631 711.109,-77.5843 700.528,-77.0474 702.502,-83.7631"/>
</g>
<!-- Node4 -->
<g id="node7" class="node"><title>Node4</title>
<polygon fill="white" stroke="#bfbfbf" points="187.5,-58.5 187.5,-79.5 246.5,-79.5 246.5,-58.5 187.5,-58.5"/>
<text text-anchor="middle" x="217" y="-66.5" font-family="Helvetica,sans-Serif" font-size="10.00">QPointer</text>
</g>
<!-- Node2&#45;&gt;Node4 -->
<g id="edge6" class="edge"><title>Node2&#45;&gt;Node4</title>
<path fill="none" stroke="midnightblue" d="M503.761,-122.741C452.586,-115.906 351.288,-101.283 256.79,-80.2366"/>
<polygon fill="midnightblue" stroke="midnightblue" points="257.311,-76.7661 246.785,-77.978 255.769,-83.5943 257.311,-76.7661"/>
</g>
<!-- Node5 -->
<g id="node9" class="node"><title>Node5</title>
<polygon fill="white" stroke="#bfbfbf" points="539,-0.5 539,-21.5 585,-21.5 585,-0.5 539,-0.5"/>
<text text-anchor="middle" x="562" y="-8.5" font-family="Helvetica,sans-Serif" font-size="10.00">QUuid</text>
</g>
<!-- Node2&#45;&gt;Node5 -->
<g id="edge8" class="edge"><title>Node2&#45;&gt;Node5</title>
<path fill="none" stroke="midnightblue" d="M539.307,-116.295C543.456,-97.0451 552.239,-56.2889 557.58,-31.5091"/>
<polygon fill="midnightblue" stroke="midnightblue" points="561.013,-32.1922 559.698,-21.6792 554.17,-30.7174 561.013,-32.1922"/>
</g>
<!-- Node6 -->
<g id="node11" class="node"><title>Node6</title>
<polygon fill="white" stroke="#bfbfbf" points="387.5,-58.5 387.5,-79.5 434.5,-79.5 434.5,-58.5 387.5,-58.5"/>
<text text-anchor="middle" x="411" y="-66.5" font-family="Helvetica,sans-Serif" font-size="10.00">QRect</text>
</g>
<!-- Node2&#45;&gt;Node6 -->
<g id="edge10" class="edge"><title>Node2&#45;&gt;Node6</title>
<path fill="none" stroke="midnightblue" d="M514.182,-116.497C494.414,-107.397 465.587,-94.1273 443.424,-83.9253"/>
<polygon fill="midnightblue" stroke="midnightblue" points="444.621,-80.6234 434.074,-79.6212 441.694,-86.982 444.621,-80.6234"/>
</g>
<!-- Node7 -->
<g id="node13" class="node"><title>Node7</title>
<a xlink:href="dimensionsglobal_8h.htm" target="_top" xlink:title="dimensionsglobal.h">
<polygon fill="white" stroke="black" points="264,-58.5 264,-79.5 370,-79.5 370,-58.5 264,-58.5"/>
<text text-anchor="middle" x="317" y="-66.5" font-family="Helvetica,sans-Serif" font-size="10.00">dimensionsglobal.h</text>
</a>
</g>
<!-- Node2&#45;&gt;Node7 -->
<g id="edge12" class="edge"><title>Node2&#45;&gt;Node7</title>
<path fill="none" stroke="midnightblue" d="M503.587,-118.191C467.197,-108.597 408.609,-93.1515 366.795,-82.1277"/>
<polygon fill="midnightblue" stroke="midnightblue" points="367.643,-78.7319 357.082,-79.567 365.859,-85.5007 367.643,-78.7319"/>
</g>
<!-- Node13 -->
<g id="node26" class="node"><title>Node13</title>
<polygon fill="white" stroke="#bfbfbf" points="454,-0.5 454,-21.5 504,-21.5 504,-0.5 454,-0.5"/>
<text text-anchor="middle" x="479" y="-8.5" font-family="Helvetica,sans-Serif" font-size="10.00">QHash</text>
</g>
<!-- Node2&#45;&gt;Node13 -->
<g id="edge30" class="edge"><title>Node2&#45;&gt;Node13</title>
<path fill="none" stroke="midnightblue" d="M517.417,-116.473C504.535,-108.372 488.686,-95.8805 481,-80 473.832,-65.1896 473.777,-46.4185 475.268,-32.1951"/>
<polygon fill="midnightblue" stroke="midnightblue" points="478.785,-32.3109 476.688,-21.9257 471.851,-31.3519 478.785,-32.3109"/>
</g>
<!-- Node2&#45;&gt;Node15 -->
<g id="edge32" class="edge"><title>Node2&#45;&gt;Node15</title>
<path fill="none" stroke="midnightblue" d="M550.94,-116.362C562.188,-107.777 578.216,-95.5459 591.165,-85.6636"/>
<polygon fill="midnightblue" stroke="midnightblue" points="593.323,-88.4198 599.149,-79.5707 589.076,-82.8551 593.323,-88.4198"/>
</g>
<!-- Node16 -->
<g id="node33" class="node"><title>Node16</title>
<polygon fill="white" stroke="#bfbfbf" points="490,-58.5 490,-79.5 534,-79.5 534,-58.5 490,-58.5"/>
<text text-anchor="middle" x="512" y="-66.5" font-family="Helvetica,sans-Serif" font-size="10.00">QPair</text>
</g>
<!-- Node2&#45;&gt;Node16 -->
<g id="edge34" class="edge"><title>Node2&#45;&gt;Node16</title>
<path fill="none" stroke="midnightblue" d="M532.415,-116.362C529.102,-108.677 524.53,-98.0686 520.552,-88.8399"/>
<polygon fill="midnightblue" stroke="midnightblue" points="523.729,-87.3685 516.556,-79.5707 517.301,-90.1393 523.729,-87.3685"/>
</g>
<!-- Node2&#45;&gt;Node17 -->
<g id="edge36" class="edge"><title>Node2&#45;&gt;Node17</title>
<path fill="none" stroke="midnightblue" d="M561.81,-116.497C584.954,-106.698 619.52,-92.0646 644.161,-81.6325"/>
<polygon fill="midnightblue" stroke="midnightblue" points="645.555,-84.8432 653.399,-77.7214 642.826,-78.397 645.555,-84.8432"/>
</g>
<!-- Node7&#45;&gt;Node5 -->
<g id="edge24" class="edge"><title>Node7&#45;&gt;Node5</title>
<path fill="none" stroke="midnightblue" d="M361.368,-58.4966C409.649,-47.0668 485.722,-29.0577 528.997,-18.813"/>
<polygon fill="midnightblue" stroke="midnightblue" points="530.074,-22.1549 538.998,-16.4453 528.461,-15.3432 530.074,-22.1549"/>
</g>
<!-- Node8 -->
<g id="node15" class="node"><title>Node8</title>
<polygon fill="white" stroke="#bfbfbf" points="169.5,-0.5 169.5,-21.5 228.5,-21.5 228.5,-0.5 169.5,-0.5"/>
<text text-anchor="middle" x="199" y="-8.5" font-family="Helvetica,sans-Serif" font-size="10.00">qglobal.h</text>
</g>
<!-- Node7&#45;&gt;Node8 -->
<g id="edge14" class="edge"><title>Node7&#45;&gt;Node8</title>
<path fill="none" stroke="midnightblue" d="M295.631,-58.4966C277.201,-49.4378 250.363,-36.2462 229.645,-26.0628"/>
<polygon fill="midnightblue" stroke="midnightblue" points="231.127,-22.8914 220.609,-21.6212 228.039,-29.1735 231.127,-22.8914"/>
</g>
<!-- Node9 -->
<g id="node17" class="node"><title>Node9</title>
<polygon fill="white" stroke="#bfbfbf" points="246,-0.5 246,-21.5 300,-21.5 300,-0.5 246,-0.5"/>
<text text-anchor="middle" x="273" y="-8.5" font-family="Helvetica,sans-Serif" font-size="10.00">qmath.h</text>
</g>
<!-- Node7&#45;&gt;Node9 -->
<g id="edge16" class="edge"><title>Node7&#45;&gt;Node9</title>
<path fill="none" stroke="midnightblue" d="M308.93,-58.3619C302.851,-50.3496 294.363,-39.1605 287.163,-29.6696"/>
<polygon fill="midnightblue" stroke="midnightblue" points="289.851,-27.4222 281.019,-21.5707 284.275,-31.653 289.851,-27.4222"/>
</g>
<!-- Node10 -->
<g id="node19" class="node"><title>Node10</title>
<polygon fill="white" stroke="#bfbfbf" points="317.5,-0.5 317.5,-21.5 370.5,-21.5 370.5,-0.5 317.5,-0.5"/>
<text text-anchor="middle" x="344" y="-8.5" font-family="Helvetica,sans-Serif" font-size="10.00">QRectF</text>
</g>
<!-- Node7&#45;&gt;Node10 -->
<g id="edge18" class="edge"><title>Node7&#45;&gt;Node10</title>
<path fill="none" stroke="midnightblue" d="M321.952,-58.3619C325.53,-50.6766 330.468,-40.0686 334.764,-30.8399"/>
<polygon fill="midnightblue" stroke="midnightblue" points="338.032,-32.1136 339.079,-21.5707 331.686,-29.1594 338.032,-32.1136"/>
</g>
<!-- Node11 -->
<g id="node21" class="node"><title>Node11</title>
<polygon fill="white" stroke="#bfbfbf" points="387.5,-0.5 387.5,-21.5 436.5,-21.5 436.5,-0.5 387.5,-0.5"/>
<text text-anchor="middle" x="412" y="-8.5" font-family="Helvetica,sans-Serif" font-size="10.00">QPoint</text>
</g>
<!-- Node7&#45;&gt;Node11 -->
<g id="edge20" class="edge"><title>Node7&#45;&gt;Node11</title>
<path fill="none" stroke="midnightblue" d="M334.424,-58.3619C348.887,-49.532 369.669,-36.844 386.084,-26.8224"/>
<polygon fill="midnightblue" stroke="midnightblue" points="387.975,-29.7688 394.686,-21.5707 384.327,-23.7943 387.975,-29.7688"/>
</g>
<!-- Node12 -->
<g id="node23" class="node"><title>Node12</title>
<polygon fill="white" stroke="#bfbfbf" points="-0.5,-0.5 -0.5,-21.5 54.5,-21.5 54.5,-0.5 -0.5,-0.5"/>
<text text-anchor="middle" x="27" y="-8.5" font-family="Helvetica,sans-Serif" font-size="10.00">QPointF</text>
</g>
<!-- Node7&#45;&gt;Node12 -->
<g id="edge22" class="edge"><title>Node7&#45;&gt;Node12</title>
<path fill="none" stroke="midnightblue" d="M263.997,-59.5244C201.79,-48.3568 103.021,-30.4659 64.6748,-22.1112"/>
<polygon fill="midnightblue" stroke="midnightblue" points="65.3518,-18.6755 54.8214,-19.8425 63.7811,-25.4971 65.3518,-18.6755"/>
</g>
<!-- Node7&#45;&gt;Node13 -->
<g id="edge26" class="edge"><title>Node7&#45;&gt;Node13</title>
<path fill="none" stroke="midnightblue" d="M346.337,-58.4966C373.824,-48.6557 414.933,-33.9377 444.094,-23.4972"/>
<polygon fill="midnightblue" stroke="midnightblue" points="445.634,-26.6636 453.869,-19.9976 443.274,-20.0732 445.634,-26.6636"/>
</g>
<!-- Node14 -->
<g id="node28" class="node"><title>Node14</title>
<polygon fill="white" stroke="#bfbfbf" points="72,-0.5 72,-21.5 152,-21.5 152,-0.5 72,-0.5"/>
<text text-anchor="middle" x="112" y="-8.5" font-family="Helvetica,sans-Serif" font-size="10.00">QVariantMap</text>
</g>
<!-- Node7&#45;&gt;Node14 -->
<g id="edge28" class="edge"><title>Node7&#45;&gt;Node14</title>
<path fill="none" stroke="midnightblue" d="M279.876,-58.4966C246.021,-48.9183 195.836,-34.7196 159.156,-24.3418"/>
<polygon fill="midnightblue" stroke="midnightblue" points="159.769,-20.8777 149.194,-21.5231 157.863,-27.6133 159.769,-20.8777"/>
</g>
<!-- Node18&#45;&gt;Node3 -->
<g id="edge40" class="edge"><title>Node18&#45;&gt;Node3</title>
<path fill="none" stroke="midnightblue" d="M830.718,-116.497C813.382,-107.519 788.21,-94.4835 768.62,-84.3387"/>
<polygon fill="midnightblue" stroke="midnightblue" points="769.999,-81.1118 759.51,-79.6212 766.78,-87.3278 769.999,-81.1118"/>
</g>
<!-- Node18&#45;&gt;Node5 -->
<g id="edge44" class="edge"><title>Node18&#45;&gt;Node5</title>
<path fill="none" stroke="midnightblue" d="M842.417,-116.262C829.492,-100.86 803.495,-72.7324 775,-58 716.266,-27.6333 638.566,-16.8258 595.093,-13.0231"/>
<polygon fill="midnightblue" stroke="midnightblue" points="595.316,-9.52984 585.068,-12.2183 594.756,-16.5074 595.316,-9.52984"/>
</g>
<!-- Node19 -->
<g id="node40" class="node"><title>Node19</title>
<polygon fill="white" stroke="#bfbfbf" points="821.5,-58.5 821.5,-79.5 880.5,-79.5 880.5,-58.5 821.5,-58.5"/>
<text text-anchor="middle" x="851" y="-66.5" font-family="Helvetica,sans-Serif" font-size="10.00">QPixmap</text>
</g>
<!-- Node18&#45;&gt;Node19 -->
<g id="edge42" class="edge"><title>Node18&#45;&gt;Node19</title>
<path fill="none" stroke="midnightblue" d="M851,-116.362C851,-108.922 851,-98.7427 851,-89.7276"/>
<polygon fill="midnightblue" stroke="midnightblue" points="854.5,-89.5706 851,-79.5707 847.5,-89.5707 854.5,-89.5706"/>
</g>
<!-- Node20 -->
<g id="node43" class="node"><title>Node20</title>
<polygon fill="white" stroke="#bfbfbf" points="897.5,-58.5 897.5,-79.5 942.5,-79.5 942.5,-58.5 897.5,-58.5"/>
<text text-anchor="middle" x="920" y="-66.5" font-family="Helvetica,sans-Serif" font-size="10.00">QSize</text>
</g>
<!-- Node18&#45;&gt;Node20 -->
<g id="edge46" class="edge"><title>Node18&#45;&gt;Node20</title>
<path fill="none" stroke="midnightblue" d="M863.656,-116.362C873.674,-107.941 887.867,-96.0105 899.501,-86.2308"/>
<polygon fill="midnightblue" stroke="midnightblue" points="902.022,-88.6844 907.425,-79.5707 897.518,-83.326 902.022,-88.6844"/>
</g>
<!-- Node21&#45;&gt;Node20 -->
<g id="edge62" class="edge"><title>Node21&#45;&gt;Node20</title>
<path fill="none" stroke="midnightblue" d="M997.576,-116.362C983.113,-107.532 962.331,-94.844 945.916,-84.8224"/>
<polygon fill="midnightblue" stroke="midnightblue" points="947.673,-81.7943 937.314,-79.5707 944.025,-87.7688 947.673,-81.7943"/>
</g>
<!-- Node22 -->
<g id="node47" class="node"><title>Node22</title>
<polygon fill="white" stroke="#bfbfbf" points="1017.5,-58.5 1017.5,-79.5 1084.5,-79.5 1084.5,-58.5 1017.5,-58.5"/>
<text text-anchor="middle" x="1051" y="-66.5" font-family="Helvetica,sans-Serif" font-size="10.00">Common.h</text>
</g>
<!-- Node21&#45;&gt;Node22 -->
<g id="edge50" class="edge"><title>Node21&#45;&gt;Node22</title>
<path fill="none" stroke="midnightblue" d="M1021.6,-116.362C1026.47,-108.513 1033.24,-97.6159 1039.05,-88.2527"/>
<polygon fill="midnightblue" stroke="midnightblue" points="1042.14,-89.9129 1044.44,-79.5707 1036.19,-86.2213 1042.14,-89.9129"/>
</g>
<!-- Node23 -->
<g id="node49" class="node"><title>Node23</title>
<polygon fill="white" stroke="#bfbfbf" points="1101.5,-58.5 1101.5,-79.5 1154.5,-79.5 1154.5,-58.5 1101.5,-58.5"/>
<text text-anchor="middle" x="1128" y="-66.5" font-family="Helvetica,sans-Serif" font-size="10.00">QString</text>
</g>
<!-- Node21&#45;&gt;Node23 -->
<g id="edge52" class="edge"><title>Node21&#45;&gt;Node23</title>
<path fill="none" stroke="midnightblue" d="M1035.46,-116.497C1053.03,-107.479 1078.58,-94.3649 1098.39,-84.2006"/>
<polygon fill="midnightblue" stroke="midnightblue" points="1100.01,-87.3014 1107.31,-79.6212 1096.81,-81.0738 1100.01,-87.3014"/>
</g>
<!-- Node24 -->
<g id="node51" class="node"><title>Node24</title>
<polygon fill="white" stroke="#bfbfbf" points="1172,-58.5 1172,-79.5 1218,-79.5 1218,-58.5 1172,-58.5"/>
<text text-anchor="middle" x="1195" y="-66.5" font-family="Helvetica,sans-Serif" font-size="10.00">vector</text>
</g>
<!-- Node21&#45;&gt;Node24 -->
<g id="edge54" class="edge"><title>Node21&#45;&gt;Node24</title>
<path fill="none" stroke="midnightblue" d="M1048.87,-116.493C1076.92,-107.736 1118.05,-94.7709 1162.43,-80.142"/>
<polygon fill="midnightblue" stroke="midnightblue" points="1163.55,-83.4579 1171.95,-76.9961 1161.36,-76.8116 1163.55,-83.4579"/>
</g>
<!-- Node25 -->
<g id="node53" class="node"><title>Node25</title>
<polygon fill="white" stroke="#bfbfbf" points="1235.5,-58.5 1235.5,-79.5 1266.5,-79.5 1266.5,-58.5 1235.5,-58.5"/>
<text text-anchor="middle" x="1251" y="-66.5" font-family="Helvetica,sans-Serif" font-size="10.00">set</text>
</g>
<!-- Node21&#45;&gt;Node25 -->
<g id="edge56" class="edge"><title>Node21&#45;&gt;Node25</title>
<path fill="none" stroke="midnightblue" d="M1053.45,-118.697C1105.16,-107.501 1193.67,-88.2309 1225.68,-79.6123"/>
<polygon fill="midnightblue" stroke="midnightblue" points="1226.86,-82.9126 1235.44,-76.7055 1224.86,-76.2034 1226.86,-82.9126"/>
</g>
<!-- Node26 -->
<g id="node55" class="node"><title>Node26</title>
<polygon fill="white" stroke="#bfbfbf" points="959.5,-58.5 959.5,-79.5 1000.5,-79.5 1000.5,-58.5 959.5,-58.5"/>
<text text-anchor="middle" x="980" y="-66.5" font-family="Helvetica,sans-Serif" font-size="10.00">glib.h</text>
</g>
<!-- Node21&#45;&gt;Node26 -->
<g id="edge58" class="edge"><title>Node21&#45;&gt;Node26</title>
<path fill="none" stroke="midnightblue" d="M1008.58,-116.362C1003.84,-108.513 997.268,-97.6159 991.618,-88.2527"/>
<polygon fill="midnightblue" stroke="midnightblue" points="994.542,-86.3242 986.379,-79.5707 988.549,-89.9409 994.542,-86.3242"/>
</g>
<!-- Node21&#45;&gt;Node27 -->
<g id="edge60" class="edge"><title>Node21&#45;&gt;Node27</title>
<path fill="none" stroke="midnightblue" d="M1053.02,-118.787C1057.72,-117.821 1062.47,-116.871 1067,-116 1155.98,-98.894 1181.83,-100.909 1273.63,-80.1426"/>
<polygon fill="midnightblue" stroke="midnightblue" points="1274.66,-83.4964 1283.63,-77.8505 1273.1,-76.6734 1274.66,-83.4964"/>
</g>
</g>
</svg>
