<?xml version="1.0" encoding="UTF-8" standalone="no"?>
<!DOCTYPE svg PUBLIC "-//W3C//DTD SVG 1.1//EN"
 "http://www.w3.org/Graphics/SVG/1.1/DTD/svg11.dtd">
<!-- Generated by graphviz version 2.26.3 (20100126.1600)
 -->
<!-- Title: Preferences.h Pages: 1 -->
<svg width="4462pt" height="88pt"
 viewBox="0.00 0.00 4462.00 88.00" xmlns="http://www.w3.org/2000/svg" xmlns:xlink="http://www.w3.org/1999/xlink">
<g id="graph1" class="graph" transform="scale(1 1) rotate(0) translate(4 84)">
<title>Preferences.h</title>
<polygon fill="white" stroke="white" points="-4,5 -4,-84 4459,-84 4459,5 -4,5"/>
<!-- Node1 -->
<g id="node1" class="node"><title>Node1</title>
<polygon fill="#bfbfbf" stroke="black" points="2230.5,-58.5 2230.5,-79.5 2313.5,-79.5 2313.5,-58.5 2230.5,-58.5"/>
<text text-anchor="middle" x="2272" y="-66.5" font-family="Helvetica,sans-Serif" font-size="10.00">Preferences.h</text>
</g>
<!-- Node2 -->
<g id="node3" class="node"><title>Node2</title>
<a xlink:href="ApplicationDescription_8cpp.htm" target="_top" xlink:title="ApplicationDescription.cpp">
<polygon fill="white" stroke="black" points="-0.5,-0.5 -0.5,-21.5 140.5,-21.5 140.5,-0.5 -0.5,-0.5"/>
<text text-anchor="middle" x="70" y="-8.5" font-family="Helvetica,sans-Serif" font-size="10.00">ApplicationDescription.cpp</text>
</a>
</g>
<!-- Node1&#45;&gt;Node2 -->
<g id="edge2" class="edge"><title>Node1&#45;&gt;Node2</title>
<path fill="none" stroke="midnightblue" d="M2220.34,-68.6721C1937.08,-66.7503 569.847,-55.8426 149,-22 146.239,-21.778 143.428,-21.5236 140.59,-21.2431"/>
<polygon fill="midnightblue" stroke="midnightblue" points="2220.32,-72.1719 2230.34,-68.7393 2220.37,-65.1721 2220.32,-72.1719"/>
</g>
<!-- Node3 -->
<g id="node5" class="node"><title>Node3</title>
<a xlink:href="ApplicationInstaller_8cpp.htm" target="_top" xlink:title="ApplicationInstaller.cpp">
<polygon fill="white" stroke="black" points="157.5,-0.5 157.5,-21.5 282.5,-21.5 282.5,-0.5 157.5,-0.5"/>
<text text-anchor="middle" x="220" y="-8.5" font-family="Helvetica,sans-Serif" font-size="10.00">ApplicationInstaller.cpp</text>
</a>
</g>
<!-- Node1&#45;&gt;Node3 -->
<g id="edge4" class="edge"><title>Node1&#45;&gt;Node3</title>
<path fill="none" stroke="midnightblue" d="M2219.95,-68.6822C1947.3,-66.8778 681.563,-56.7397 291,-22 288.267,-21.7569 285.479,-21.4743 282.666,-21.1608"/>
<polygon fill="midnightblue" stroke="midnightblue" points="2220.31,-72.1845 2230.34,-68.7501 2220.36,-65.1847 2220.31,-72.1845"/>
</g>
<!-- Node4 -->
<g id="node7" class="node"><title>Node4</title>
<a xlink:href="ApplicationManager_8cpp.htm" target="_top" xlink:title="ApplicationManager.cpp">
<polygon fill="white" stroke="black" points="299.5,-0.5 299.5,-21.5 430.5,-21.5 430.5,-0.5 299.5,-0.5"/>
<text text-anchor="middle" x="365" y="-8.5" font-family="Helvetica,sans-Serif" font-size="10.00">ApplicationManager.cpp</text>
</a>
</g>
<!-- Node1&#45;&gt;Node4 -->
<g id="edge6" class="edge"><title>Node1&#45;&gt;Node4</title>
<path fill="none" stroke="midnightblue" d="M2220.12,-68.5256C1960.3,-66.0187 798.726,-53.231 439,-22 436.283,-21.7641 433.513,-21.4929 430.718,-21.1937"/>
<polygon fill="midnightblue" stroke="midnightblue" points="2220.37,-72.028 2230.4,-68.6239 2220.44,-65.0283 2220.37,-72.028"/>
</g>
<!-- Node5 -->
<g id="node9" class="node"><title>Node5</title>
<a xlink:href="CoreNaviManager_8cpp.htm" target="_top" xlink:title="CoreNaviManager.cpp">
<polygon fill="white" stroke="black" points="447.5,-0.5 447.5,-21.5 570.5,-21.5 570.5,-0.5 447.5,-0.5"/>
<text text-anchor="middle" x="509" y="-8.5" font-family="Helvetica,sans-Serif" font-size="10.00">CoreNaviManager.cpp</text>
</a>
</g>
<!-- Node1&#45;&gt;Node5 -->
<g id="edge8" class="edge"><title>Node1&#45;&gt;Node5</title>
<path fill="none" stroke="midnightblue" d="M2220.13,-68.4568C1972.55,-65.7263 909.327,-52.4132 579,-22 576.305,-21.7519 573.556,-21.4651 570.783,-21.1483"/>
<polygon fill="midnightblue" stroke="midnightblue" points="2220.25,-71.9582 2230.29,-68.5679 2220.33,-64.9586 2220.25,-71.9582"/>
</g>
<!-- Node6 -->
<g id="node11" class="node"><title>Node6</title>
<a xlink:href="DisplayManager_8cpp.htm" target="_top" xlink:title="DisplayManager.cpp">
<polygon fill="white" stroke="black" points="587.5,-0.5 587.5,-21.5 700.5,-21.5 700.5,-0.5 587.5,-0.5"/>
<text text-anchor="middle" x="644" y="-8.5" font-family="Helvetica,sans-Serif" font-size="10.00">DisplayManager.cpp</text>
</a>
</g>
<!-- Node1&#45;&gt;Node6 -->
<g id="edge10" class="edge"><title>Node1&#45;&gt;Node6</title>
<path fill="none" stroke="midnightblue" d="M2220.33,-68.403C1984.9,-65.536 1012.13,-52.0628 709,-22 706.267,-21.7289 703.474,-21.412 700.658,-21.0602"/>
<polygon fill="midnightblue" stroke="midnightblue" points="2220.3,-71.9028 2230.34,-68.5239 2220.38,-64.9033 2220.3,-71.9028"/>
</g>
<!-- Node7 -->
<g id="node13" class="node"><title>Node7</title>
<a xlink:href="DisplayStates_8cpp.htm" target="_top" xlink:title="DisplayStates.cpp">
<polygon fill="white" stroke="black" points="717.5,-0.5 717.5,-21.5 818.5,-21.5 818.5,-0.5 717.5,-0.5"/>
<text text-anchor="middle" x="768" y="-8.5" font-family="Helvetica,sans-Serif" font-size="10.00">DisplayStates.cpp</text>
</a>
</g>
<!-- Node1&#45;&gt;Node7 -->
<g id="edge12" class="edge"><title>Node1&#45;&gt;Node7</title>
<path fill="none" stroke="midnightblue" d="M2220.28,-68.3713C1995.87,-65.4812 1105.33,-52.2949 827,-22 824.307,-21.7069 821.552,-21.3598 818.776,-20.9728"/>
<polygon fill="midnightblue" stroke="midnightblue" points="2220.41,-71.8732 2230.46,-68.5012 2220.5,-64.8738 2220.41,-71.8732"/>
</g>
<!-- Node8 -->
<g id="node15" class="node"><title>Node8</title>
<a xlink:href="EASPolicyManager_8cpp.htm" target="_top" xlink:title="EASPolicyManager.cpp">
<polygon fill="white" stroke="black" points="835.5,-0.5 835.5,-21.5 962.5,-21.5 962.5,-0.5 835.5,-0.5"/>
<text text-anchor="middle" x="899" y="-8.5" font-family="Helvetica,sans-Serif" font-size="10.00">EASPolicyManager.cpp</text>
</a>
</g>
<!-- Node1&#45;&gt;Node8 -->
<g id="edge14" class="edge"><title>Node1&#45;&gt;Node8</title>
<path fill="none" stroke="midnightblue" d="M2220.04,-67.9258C2009.58,-63.4502 1219.81,-45.4213 971,-22 968.23,-21.7393 965.405,-21.4421 962.554,-21.1167"/>
<polygon fill="midnightblue" stroke="midnightblue" points="2220.13,-71.4283 2230.2,-68.1408 2220.28,-64.4299 2220.13,-71.4283"/>
</g>
<!-- Node9 -->
<g id="node17" class="node"><title>Node9</title>
<a xlink:href="InputManager_8cpp.htm" target="_top" xlink:title="InputManager.cpp">
<polygon fill="white" stroke="black" points="980,-0.5 980,-21.5 1082,-21.5 1082,-0.5 980,-0.5"/>
<text text-anchor="middle" x="1031" y="-8.5" font-family="Helvetica,sans-Serif" font-size="10.00">InputManager.cpp</text>
</a>
</g>
<!-- Node1&#45;&gt;Node9 -->
<g id="edge16" class="edge"><title>Node1&#45;&gt;Node9</title>
<path fill="none" stroke="midnightblue" d="M2220.33,-67.9183C2022.73,-63.6299 1314.78,-46.8393 1091,-22 1088.16,-21.6845 1085.25,-21.3133 1082.32,-20.9015"/>
<polygon fill="midnightblue" stroke="midnightblue" points="2220.37,-71.4198 2230.44,-68.1365 2220.52,-64.4215 2220.37,-71.4198"/>
</g>
<!-- Node10 -->
<g id="node19" class="node"><title>Node10</title>
<a xlink:href="LsmUtils_8cpp.htm" target="_top" xlink:title="LsmUtils.cpp">
<polygon fill="white" stroke="black" points="1100,-0.5 1100,-21.5 1176,-21.5 1176,-0.5 1100,-0.5"/>
<text text-anchor="middle" x="1138" y="-8.5" font-family="Helvetica,sans-Serif" font-size="10.00">LsmUtils.cpp</text>
</a>
</g>
<!-- Node1&#45;&gt;Node10 -->
<g id="edge18" class="edge"><title>Node1&#45;&gt;Node10</title>
<path fill="none" stroke="midnightblue" d="M2220.12,-68.0412C2032.37,-64.3716 1388.75,-49.9978 1185,-22 1182.09,-21.6007 1179.1,-21.105 1176.11,-20.5467"/>
<polygon fill="midnightblue" stroke="midnightblue" points="2220.21,-71.5435 2230.27,-68.2379 2220.34,-64.5448 2220.21,-71.5435"/>
</g>
<!-- Node11 -->
<g id="node21" class="node"><title>Node11</title>
<a xlink:href="Preferences_8cpp.htm" target="_top" xlink:title="Preferences.cpp">
<polygon fill="white" stroke="black" points="1194,-0.5 1194,-21.5 1288,-21.5 1288,-0.5 1194,-0.5"/>
<text text-anchor="middle" x="1241" y="-8.5" font-family="Helvetica,sans-Serif" font-size="10.00">Preferences.cpp</text>
</a>
</g>
<!-- Node1&#45;&gt;Node11 -->
<g id="edge20" class="edge"><title>Node1&#45;&gt;Node11</title>
<path fill="none" stroke="midnightblue" d="M2220.06,-67.4971C2045.12,-62.2782 1478.24,-44.0496 1297,-22 1294.15,-21.653 1291.22,-21.2434 1288.28,-20.79"/>
<polygon fill="midnightblue" stroke="midnightblue" points="2220.18,-71.0022 2230.28,-67.8005 2220.39,-64.0053 2220.18,-71.0022"/>
</g>
<!-- Node12 -->
<g id="node23" class="node"><title>Node12</title>
<a xlink:href="SystemUiController_8cpp.htm" target="_top" xlink:title="SystemUiController.cpp">
<polygon fill="white" stroke="black" points="1305.5,-0.5 1305.5,-21.5 1432.5,-21.5 1432.5,-0.5 1305.5,-0.5"/>
<text text-anchor="middle" x="1369" y="-8.5" font-family="Helvetica,sans-Serif" font-size="10.00">SystemUiController.cpp</text>
</a>
</g>
<!-- Node1&#45;&gt;Node12 -->
<g id="edge22" class="edge"><title>Node1&#45;&gt;Node12</title>
<path fill="none" stroke="midnightblue" d="M2220.25,-67.7835C2089.41,-64.3366 1734.85,-52.6869 1441,-22 1438.23,-21.7111 1435.41,-21.3905 1432.56,-21.046"/>
<polygon fill="midnightblue" stroke="midnightblue" points="2220.3,-71.2858 2230.38,-68.0457 2220.48,-64.2881 2220.3,-71.2858"/>
</g>
<!-- Node13 -->
<g id="node25" class="node"><title>Node13</title>
<a xlink:href="WindowServer_8cpp.htm" target="_top" xlink:title="WindowServer.cpp">
<polygon fill="white" stroke="black" points="1449.5,-0.5 1449.5,-21.5 1554.5,-21.5 1554.5,-0.5 1449.5,-0.5"/>
<text text-anchor="middle" x="1502" y="-8.5" font-family="Helvetica,sans-Serif" font-size="10.00">WindowServer.cpp</text>
</a>
</g>
<!-- Node1&#45;&gt;Node13 -->
<g id="edge24" class="edge"><title>Node1&#45;&gt;Node13</title>
<path fill="none" stroke="midnightblue" d="M2220.15,-67.5558C2102.77,-63.8508 1807.83,-52.094 1563,-22 1560.22,-21.6587 1557.38,-21.2732 1554.52,-20.8561"/>
<polygon fill="midnightblue" stroke="midnightblue" points="2220.19,-71.0584 2230.29,-67.8696 2220.4,-64.0618 2220.19,-71.0584"/>
</g>
<!-- Node14 -->
<g id="node27" class="node"><title>Node14</title>
<a xlink:href="InputWindowManager_8cpp.htm" target="_top" xlink:title="InputWindowManager.cpp">
<polygon fill="white" stroke="black" points="1572,-0.5 1572,-21.5 1712,-21.5 1712,-0.5 1572,-0.5"/>
<text text-anchor="middle" x="1642" y="-8.5" font-family="Helvetica,sans-Serif" font-size="10.00">InputWindowManager.cpp</text>
</a>
</g>
<!-- Node1&#45;&gt;Node14 -->
<g id="edge26" class="edge"><title>Node1&#45;&gt;Node14</title>
<path fill="none" stroke="midnightblue" d="M2220.26,-65.51C2122.54,-58.7138 1904.19,-42.5518 1721,-22 1718.11,-21.6758 1715.16,-21.3307 1712.19,-20.9705"/>
<polygon fill="midnightblue" stroke="midnightblue" points="2220.24,-69.0167 2230.45,-66.2154 2220.72,-62.0334 2220.24,-69.0167"/>
</g>
<!-- Node15 -->
<g id="node29" class="node"><title>Node15</title>
<a xlink:href="SysmgrIMEDataInterface_8cpp.htm" target="_top" xlink:title="SysmgrIMEDataInterface.cpp">
<polygon fill="white" stroke="black" points="1729.5,-0.5 1729.5,-21.5 1884.5,-21.5 1884.5,-0.5 1729.5,-0.5"/>
<text text-anchor="middle" x="1807" y="-8.5" font-family="Helvetica,sans-Serif" font-size="10.00">SysmgrIMEDataInterface.cpp</text>
</a>
</g>
<!-- Node1&#45;&gt;Node15 -->
<g id="edge28" class="edge"><title>Node1&#45;&gt;Node15</title>
<path fill="none" stroke="midnightblue" d="M2220.2,-62.6401C2147.21,-53.6641 2009.93,-36.7288 1893,-22 1890.31,-21.6614 1887.58,-21.316 1884.81,-20.9665"/>
<polygon fill="midnightblue" stroke="midnightblue" points="2220.14,-66.159 2230.49,-63.9055 2220.99,-59.2114 2220.14,-66.159"/>
</g>
<!-- Node16 -->
<g id="node31" class="node"><title>Node16</title>
<a xlink:href="VirtualKeyboardPreferences_8cpp.htm" target="_top" xlink:title="VirtualKeyboardPreferences.cpp">
<polygon fill="white" stroke="black" points="1902,-0.5 1902,-21.5 2070,-21.5 2070,-0.5 1902,-0.5"/>
<text text-anchor="middle" x="1986" y="-8.5" font-family="Helvetica,sans-Serif" font-size="10.00">VirtualKeyboardPreferences.cpp</text>
</a>
</g>
<!-- Node1&#45;&gt;Node16 -->
<g id="edge30" class="edge"><title>Node1&#45;&gt;Node16</title>
<path fill="none" stroke="midnightblue" d="M2220.46,-58.5473C2168.77,-48.0645 2089.61,-32.0108 2037.82,-21.5084"/>
<polygon fill="midnightblue" stroke="midnightblue" points="2219.92,-62.0089 2230.41,-60.5663 2221.31,-55.1485 2219.92,-62.0089"/>
</g>
<!-- Node17 -->
<g id="node33" class="node"><title>Node17</title>
<a xlink:href="DockModeAppMenuContainer_8cpp.htm" target="_top" xlink:title="DockModeAppMenuContainer.cpp">
<polygon fill="white" stroke="black" points="2087.5,-0.5 2087.5,-21.5 2266.5,-21.5 2266.5,-0.5 2087.5,-0.5"/>
<text text-anchor="middle" x="2177" y="-8.5" font-family="Helvetica,sans-Serif" font-size="10.00">DockModeAppMenuContainer.cpp</text>
</a>
</g>
<!-- Node1&#45;&gt;Node17 -->
<g id="edge32" class="edge"><title>Node1&#45;&gt;Node17</title>
<path fill="none" stroke="midnightblue" d="M2245.96,-53.1009C2229.52,-43.0658 2208.74,-30.3808 2194.31,-21.5707"/>
<polygon fill="midnightblue" stroke="midnightblue" points="2244.22,-56.1383 2254.58,-58.3619 2247.86,-50.1637 2244.22,-56.1383"/>
</g>
<!-- Node18 -->
<g id="node35" class="node"><title>Node18</title>
<a xlink:href="DockModeWindowManager_8cpp.htm" target="_top" xlink:title="DockModeWindowManager.cpp">
<polygon fill="white" stroke="black" points="2283.5,-0.5 2283.5,-21.5 2450.5,-21.5 2450.5,-0.5 2283.5,-0.5"/>
<text text-anchor="middle" x="2367" y="-8.5" font-family="Helvetica,sans-Serif" font-size="10.00">DockModeWindowManager.cpp</text>
</a>
</g>
<!-- Node1&#45;&gt;Node18 -->
<g id="edge34" class="edge"><title>Node1&#45;&gt;Node18</title>
<path fill="none" stroke="midnightblue" d="M2298.04,-53.1009C2314.48,-43.0658 2335.26,-30.3808 2349.69,-21.5707"/>
<polygon fill="midnightblue" stroke="midnightblue" points="2296.14,-50.1637 2289.42,-58.3619 2299.78,-56.1383 2296.14,-50.1637"/>
</g>
<!-- Node19 -->
<g id="node37" class="node"><title>Node19</title>
<a xlink:href="ClockWindow_8cpp.htm" target="_top" xlink:title="ClockWindow.cpp">
<polygon fill="white" stroke="black" points="2468,-0.5 2468,-21.5 2568,-21.5 2568,-0.5 2468,-0.5"/>
<text text-anchor="middle" x="2518" y="-8.5" font-family="Helvetica,sans-Serif" font-size="10.00">ClockWindow.cpp</text>
</a>
</g>
<!-- Node1&#45;&gt;Node19 -->
<g id="edge36" class="edge"><title>Node1&#45;&gt;Node19</title>
<path fill="none" stroke="midnightblue" d="M2323.71,-56.8084C2367.96,-46.3763 2431,-31.5126 2473.15,-21.5754"/>
<polygon fill="midnightblue" stroke="midnightblue" points="2322.66,-53.4596 2313.73,-59.1611 2324.27,-60.2728 2322.66,-53.4596"/>
</g>
<!-- Node20 -->
<g id="node39" class="node"><title>Node20</title>
<a xlink:href="LockWindow_8cpp.htm" target="_top" xlink:title="LockWindow.cpp">
<polygon fill="white" stroke="black" points="2586,-0.5 2586,-21.5 2682,-21.5 2682,-0.5 2586,-0.5"/>
<text text-anchor="middle" x="2634" y="-8.5" font-family="Helvetica,sans-Serif" font-size="10.00">LockWindow.cpp</text>
</a>
</g>
<!-- Node1&#45;&gt;Node20 -->
<g id="edge38" class="edge"><title>Node1&#45;&gt;Node20</title>
<path fill="none" stroke="midnightblue" d="M2323.62,-61.6524C2384.35,-52.8669 2488.18,-37.4089 2577,-22 2579.88,-21.5004 2582.84,-20.9729 2585.82,-20.4301"/>
<polygon fill="midnightblue" stroke="midnightblue" points="2322.92,-58.2169 2313.52,-63.1089 2323.92,-65.1452 2322.92,-58.2169"/>
</g>
<!-- Node21 -->
<g id="node41" class="node"><title>Node21</title>
<a xlink:href="AlertWindow_8cpp.htm" target="_top" xlink:title="AlertWindow.cpp">
<polygon fill="white" stroke="black" points="2699.5,-0.5 2699.5,-21.5 2794.5,-21.5 2794.5,-0.5 2699.5,-0.5"/>
<text text-anchor="middle" x="2747" y="-8.5" font-family="Helvetica,sans-Serif" font-size="10.00">AlertWindow.cpp</text>
</a>
</g>
<!-- Node1&#45;&gt;Node21 -->
<g id="edge40" class="edge"><title>Node1&#45;&gt;Node21</title>
<path fill="none" stroke="midnightblue" d="M2324,-64.5536C2403.38,-57.4532 2559.45,-42.2632 2691,-22 2693.74,-21.5777 2696.55,-21.1161 2699.39,-20.629"/>
<polygon fill="midnightblue" stroke="midnightblue" points="2323.43,-61.0902 2313.78,-65.4608 2324.05,-68.0628 2323.43,-61.0902"/>
</g>
<!-- Node22 -->
<g id="node43" class="node"><title>Node22</title>
<a xlink:href="BannerMessageHandler_8cpp.htm" target="_top" xlink:title="BannerMessageHandler.cpp">
<polygon fill="white" stroke="black" points="2812,-0.5 2812,-21.5 2964,-21.5 2964,-0.5 2812,-0.5"/>
<text text-anchor="middle" x="2888" y="-8.5" font-family="Helvetica,sans-Serif" font-size="10.00">BannerMessageHandler.cpp</text>
</a>
</g>
<!-- Node1&#45;&gt;Node22 -->
<g id="edge42" class="edge"><title>Node1&#45;&gt;Node22</title>
<path fill="none" stroke="midnightblue" d="M2323.92,-65.1051C2419.04,-57.8129 2627.64,-41.1001 2803,-22 2805.81,-21.6939 2808.67,-21.3726 2811.56,-21.0401"/>
<polygon fill="midnightblue" stroke="midnightblue" points="2323.41,-61.6336 2313.71,-65.8851 2323.94,-68.6133 2323.41,-61.6336"/>
</g>
<!-- Node23 -->
<g id="node45" class="node"><title>Node23</title>
<a xlink:href="BannerWindow_8cpp.htm" target="_top" xlink:title="BannerWindow.cpp">
<polygon fill="white" stroke="black" points="2982,-0.5 2982,-21.5 3090,-21.5 3090,-0.5 2982,-0.5"/>
<text text-anchor="middle" x="3036" y="-8.5" font-family="Helvetica,sans-Serif" font-size="10.00">BannerWindow.cpp</text>
</a>
</g>
<!-- Node1&#45;&gt;Node23 -->
<g id="edge44" class="edge"><title>Node1&#45;&gt;Node23</title>
<path fill="none" stroke="midnightblue" d="M2323.67,-67.4093C2439.99,-63.4188 2731.14,-51.1399 2973,-22 2975.87,-21.6547 2978.8,-21.2661 2981.76,-20.8465"/>
<polygon fill="midnightblue" stroke="midnightblue" points="2323.5,-63.913 2313.62,-67.7481 2323.74,-70.909 2323.5,-63.913"/>
</g>
<!-- Node24 -->
<g id="node47" class="node"><title>Node24</title>
<a xlink:href="DashboardWindowManager_8cpp.htm" target="_top" xlink:title="DashboardWindowManager.cpp">
<polygon fill="white" stroke="black" points="3108,-0.5 3108,-21.5 3276,-21.5 3276,-0.5 3108,-0.5"/>
<text text-anchor="middle" x="3192" y="-8.5" font-family="Helvetica,sans-Serif" font-size="10.00">DashboardWindowManager.cpp</text>
</a>
</g>
<!-- Node1&#45;&gt;Node24 -->
<g id="edge46" class="edge"><title>Node1&#45;&gt;Node24</title>
<path fill="none" stroke="midnightblue" d="M2323.91,-67.1503C2454.36,-62.2626 2806.43,-47.5919 3099,-22 3101.92,-21.745 3104.88,-21.4714 3107.87,-21.1832"/>
<polygon fill="midnightblue" stroke="midnightblue" points="2323.66,-63.6568 2313.8,-67.5259 2323.92,-70.652 2323.66,-63.6568"/>
</g>
<!-- Node25 -->
<g id="node49" class="node"><title>Node25</title>
<a xlink:href="StatusBar_8cpp.htm" target="_top" xlink:title="StatusBar.cpp">
<polygon fill="white" stroke="black" points="3294,-0.5 3294,-21.5 3376,-21.5 3376,-0.5 3294,-0.5"/>
<text text-anchor="middle" x="3335" y="-8.5" font-family="Helvetica,sans-Serif" font-size="10.00">StatusBar.cpp</text>
</a>
</g>
<!-- Node1&#45;&gt;Node25 -->
<g id="edge48" class="edge"><title>Node1&#45;&gt;Node25</title>
<path fill="none" stroke="midnightblue" d="M2323.87,-67.7613C2503.19,-63.2963 3096.22,-46.96 3285,-22 3287.91,-21.6155 3290.9,-21.1474 3293.9,-20.6236"/>
<polygon fill="midnightblue" stroke="midnightblue" points="2323.56,-64.2677 2313.65,-68.014 2323.74,-71.2656 2323.56,-64.2677"/>
</g>
<!-- Node26 -->
<g id="node51" class="node"><title>Node26</title>
<a xlink:href="StatusBarClock_8cpp.htm" target="_top" xlink:title="StatusBarClock.cpp">
<polygon fill="white" stroke="black" points="3394,-0.5 3394,-21.5 3502,-21.5 3502,-0.5 3394,-0.5"/>
<text text-anchor="middle" x="3448" y="-8.5" font-family="Helvetica,sans-Serif" font-size="10.00">StatusBarClock.cpp</text>
</a>
</g>
<!-- Node1&#45;&gt;Node26 -->
<g id="edge50" class="edge"><title>Node1&#45;&gt;Node26</title>
<path fill="none" stroke="midnightblue" d="M2323.82,-67.712C2514.26,-62.8383 3175.18,-44.6492 3385,-22 3387.87,-21.6902 3390.81,-21.3298 3393.77,-20.9324"/>
<polygon fill="midnightblue" stroke="midnightblue" points="2323.7,-64.2138 2313.79,-67.9674 2323.88,-71.2115 2323.7,-64.2138"/>
</g>
<!-- Node27 -->
<g id="node53" class="node"><title>Node27</title>
<a xlink:href="StatusBarInfo_8cpp.htm" target="_top" xlink:title="StatusBarInfo.cpp">
<polygon fill="white" stroke="black" points="3520,-0.5 3520,-21.5 3620,-21.5 3620,-0.5 3520,-0.5"/>
<text text-anchor="middle" x="3570" y="-8.5" font-family="Helvetica,sans-Serif" font-size="10.00">StatusBarInfo.cpp</text>
</a>
</g>
<!-- Node1&#45;&gt;Node27 -->
<g id="edge52" class="edge"><title>Node1&#45;&gt;Node27</title>
<path fill="none" stroke="midnightblue" d="M2323.83,-68.0466C2527.78,-64.138 3275.36,-48.2926 3511,-22 3513.9,-21.6765 3516.87,-21.2921 3519.86,-20.8641"/>
<polygon fill="midnightblue" stroke="midnightblue" points="2323.62,-64.5498 2313.69,-68.2396 2323.76,-71.5485 2323.62,-64.5498"/>
</g>
<!-- Node28 -->
<g id="node55" class="node"><title>Node28</title>
<a xlink:href="StatusBarNotificationArea_8cpp.htm" target="_top" xlink:title="StatusBarNotificationArea.cpp">
<polygon fill="white" stroke="black" points="3637.5,-0.5 3637.5,-21.5 3794.5,-21.5 3794.5,-0.5 3637.5,-0.5"/>
<text text-anchor="middle" x="3716" y="-8.5" font-family="Helvetica,sans-Serif" font-size="10.00">StatusBarNotificationArea.cpp</text>
</a>
</g>
<!-- Node1&#45;&gt;Node28 -->
<g id="edge54" class="edge"><title>Node1&#45;&gt;Node28</title>
<path fill="none" stroke="midnightblue" d="M2323.68,-67.8416C2539.32,-62.9107 3368.19,-42.9606 3629,-22 3631.73,-21.7805 3634.51,-21.5374 3637.31,-21.2753"/>
<polygon fill="midnightblue" stroke="midnightblue" points="2323.5,-64.3447 2313.58,-68.0717 2323.66,-71.3429 2323.5,-64.3447"/>
</g>
<!-- Node29 -->
<g id="node57" class="node"><title>Node29</title>
<a xlink:href="StatusBarServicesConnector_8cpp.htm" target="_top" xlink:title="StatusBarServicesConnector.cpp">
<polygon fill="white" stroke="black" points="3812,-0.5 3812,-21.5 3984,-21.5 3984,-0.5 3812,-0.5"/>
<text text-anchor="middle" x="3898" y="-8.5" font-family="Helvetica,sans-Serif" font-size="10.00">StatusBarServicesConnector.cpp</text>
</a>
</g>
<!-- Node1&#45;&gt;Node29 -->
<g id="edge56" class="edge"><title>Node1&#45;&gt;Node29</title>
<path fill="none" stroke="midnightblue" d="M2324.07,-67.9944C2557.13,-63.402 3506.05,-43.711 3803,-22 3805.9,-21.7881 3808.84,-21.5538 3811.82,-21.3011"/>
<polygon fill="midnightblue" stroke="midnightblue" points="2323.76,-64.4996 2313.84,-68.1954 2323.9,-71.4982 2323.76,-64.4996"/>
</g>
<!-- Node30 -->
<g id="node59" class="node"><title>Node30</title>
<a xlink:href="SystemMenu_8cpp.htm" target="_top" xlink:title="SystemMenu.cpp">
<polygon fill="white" stroke="black" points="4001.5,-0.5 4001.5,-21.5 4098.5,-21.5 4098.5,-0.5 4001.5,-0.5"/>
<text text-anchor="middle" x="4050" y="-8.5" font-family="Helvetica,sans-Serif" font-size="10.00">SystemMenu.cpp</text>
</a>
</g>
<!-- Node1&#45;&gt;Node30 -->
<g id="edge58" class="edge"><title>Node1&#45;&gt;Node30</title>
<path fill="none" stroke="midnightblue" d="M2323.93,-68.7259C2574.18,-67.23 3657.43,-58.713 3993,-22 3995.71,-21.7041 3998.47,-21.3482 4001.26,-20.9483"/>
<polygon fill="midnightblue" stroke="midnightblue" points="2323.64,-65.2274 2313.66,-68.7861 2323.68,-72.2273 2323.64,-65.2274"/>
</g>
<!-- Node31 -->
<g id="node61" class="node"><title>Node31</title>
<a xlink:href="WindowServerLuna_8cpp.htm" target="_top" xlink:title="WindowServerLuna.cpp">
<polygon fill="white" stroke="black" points="4116,-0.5 4116,-21.5 4244,-21.5 4244,-0.5 4116,-0.5"/>
<text text-anchor="middle" x="4180" y="-8.5" font-family="Helvetica,sans-Serif" font-size="10.00">WindowServerLuna.cpp</text>
</a>
</g>
<!-- Node1&#45;&gt;Node31 -->
<g id="edge60" class="edge"><title>Node1&#45;&gt;Node31</title>
<path fill="none" stroke="midnightblue" d="M2323.93,-68.5406C2584.04,-66.1069 3746.91,-53.6186 4107,-22 4109.94,-21.7421 4112.93,-21.4418 4115.96,-21.1088"/>
<polygon fill="midnightblue" stroke="midnightblue" points="2323.61,-65.0434 2313.64,-68.6361 2323.67,-72.0431 2323.61,-65.0434"/>
</g>
<!-- Node32 -->
<g id="node63" class="node"><title>Node32</title>
<a xlink:href="Main_8cpp.htm" target="_top" xlink:title="Main.cpp">
<polygon fill="white" stroke="black" points="4261.5,-0.5 4261.5,-21.5 4320.5,-21.5 4320.5,-0.5 4261.5,-0.5"/>
<text text-anchor="middle" x="4291" y="-8.5" font-family="Helvetica,sans-Serif" font-size="10.00">Main.cpp</text>
</a>
</g>
<!-- Node1&#45;&gt;Node32 -->
<g id="edge62" class="edge"><title>Node1&#45;&gt;Node32</title>
<path fill="none" stroke="midnightblue" d="M2323.92,-68.5683C2616.94,-66.0255 4057.67,-52.0696 4253,-22 4255.72,-21.582 4258.51,-21.0261 4261.29,-20.3855"/>
<polygon fill="midnightblue" stroke="midnightblue" points="2323.56,-65.0712 2313.59,-68.6574 2323.62,-72.071 2323.56,-65.0712"/>
</g>
<!-- Node33 -->
<g id="node65" class="node"><title>Node33</title>
<a xlink:href="SoundPlayerPool_8cpp.htm" target="_top" xlink:title="SoundPlayerPool.cpp">
<polygon fill="white" stroke="black" points="4337.5,-0.5 4337.5,-21.5 4454.5,-21.5 4454.5,-0.5 4337.5,-0.5"/>
<text text-anchor="middle" x="4396" y="-8.5" font-family="Helvetica,sans-Serif" font-size="10.00">SoundPlayerPool.cpp</text>
</a>
</g>
<!-- Node1&#45;&gt;Node33 -->
<g id="edge64" class="edge"><title>Node1&#45;&gt;Node33</title>
<path fill="none" stroke="midnightblue" d="M2323.82,-68.7995C2602.19,-67.5727 3922.53,-59.8231 4329,-22 4331.7,-21.7488 4334.45,-21.454 4337.23,-21.1253"/>
<polygon fill="midnightblue" stroke="midnightblue" points="2323.59,-65.3003 2313.6,-68.8436 2323.62,-72.3003 2323.59,-65.3003"/>
</g>
</g>
</svg>
