<?xml version="1.0" encoding="UTF-8" standalone="no"?>
<!DOCTYPE svg PUBLIC "-//W3C//DTD SVG 1.1//EN"
 "http://www.w3.org/Graphics/SVG/1.1/DTD/svg11.dtd">
<!-- Generated by graphviz version 2.26.3 (20100126.1600)
 -->
<!-- Title: PreKeymap.cpp Pages: 1 -->
<svg width="1048pt" height="146pt"
 viewBox="0.00 0.00 1048.00 146.00" xmlns="http://www.w3.org/2000/svg" xmlns:xlink="http://www.w3.org/1999/xlink">
<g id="graph1" class="graph" transform="scale(1 1) rotate(0) translate(4 142)">
<title>PreKeymap.cpp</title>
<polygon fill="white" stroke="white" points="-4,5 -4,-142 1045,-142 1045,5 -4,5"/>
<!-- Node1 -->
<g id="node1" class="node"><title>Node1</title>
<polygon fill="#bfbfbf" stroke="black" points="722.5,-116.5 722.5,-137.5 813.5,-137.5 813.5,-116.5 722.5,-116.5"/>
<text text-anchor="middle" x="768" y="-124.5" font-family="Helvetica,sans-Serif" font-size="10.00">PreKeymap.cpp</text>
</g>
<!-- Node2 -->
<g id="node3" class="node"><title>Node2</title>
<a xlink:href="PreKeymap_8h.htm" target="_top" xlink:title="PreKeymap.h">
<polygon fill="white" stroke="black" points="166,-58.5 166,-79.5 246,-79.5 246,-58.5 166,-58.5"/>
<text text-anchor="middle" x="206" y="-66.5" font-family="Helvetica,sans-Serif" font-size="10.00">PreKeymap.h</text>
</a>
</g>
<!-- Node1&#45;&gt;Node2 -->
<g id="edge2" class="edge"><title>Node1&#45;&gt;Node2</title>
<path fill="none" stroke="midnightblue" d="M722.485,-122.303C618.568,-111.578 364.498,-85.3574 256.213,-74.1821"/>
<polygon fill="midnightblue" stroke="midnightblue" points="256.505,-70.6938 246.199,-73.1486 255.787,-77.6568 256.505,-70.6938"/>
</g>
<!-- Node7 -->
<g id="node13" class="node"><title>Node7</title>
<a xlink:href="KeyLocationRecorder_8h.htm" target="_top" xlink:title="KeyLocationRecorder.h">
<polygon fill="white" stroke="black" points="345,-58.5 345,-79.5 473,-79.5 473,-58.5 345,-58.5"/>
<text text-anchor="middle" x="409" y="-66.5" font-family="Helvetica,sans-Serif" font-size="10.00">KeyLocationRecorder.h</text>
</a>
</g>
<!-- Node1&#45;&gt;Node7 -->
<g id="edge12" class="edge"><title>Node1&#45;&gt;Node7</title>
<path fill="none" stroke="midnightblue" d="M722.168,-119.595C661.779,-109.839 554.823,-92.5591 482.925,-80.9433"/>
<polygon fill="midnightblue" stroke="midnightblue" points="483.451,-77.483 473.021,-79.3432 482.334,-84.3934 483.451,-77.483"/>
</g>
<!-- Node12 -->
<g id="node25" class="node"><title>Node12</title>
<polygon fill="white" stroke="#bfbfbf" points="683.5,-58.5 683.5,-79.5 764.5,-79.5 764.5,-58.5 683.5,-58.5"/>
<text text-anchor="middle" x="724" y="-66.5" font-family="Helvetica,sans-Serif" font-size="10.00">Localization.h</text>
</g>
<!-- Node1&#45;&gt;Node12 -->
<g id="edge26" class="edge"><title>Node1&#45;&gt;Node12</title>
<path fill="none" stroke="midnightblue" d="M759.93,-116.362C753.851,-108.35 745.363,-97.1605 738.163,-87.6696"/>
<polygon fill="midnightblue" stroke="midnightblue" points="740.851,-85.4222 732.019,-79.5707 735.275,-89.653 740.851,-85.4222"/>
</g>
<!-- Node13 -->
<g id="node27" class="node"><title>Node13</title>
<polygon fill="white" stroke="#bfbfbf" points="781.5,-58.5 781.5,-79.5 844.5,-79.5 844.5,-58.5 781.5,-58.5"/>
<text text-anchor="middle" x="813" y="-66.5" font-family="Helvetica,sans-Serif" font-size="10.00">Logging.h</text>
</g>
<!-- Node1&#45;&gt;Node13 -->
<g id="edge28" class="edge"><title>Node1&#45;&gt;Node13</title>
<path fill="none" stroke="midnightblue" d="M776.254,-116.362C782.47,-108.35 791.151,-97.1605 798.515,-87.6696"/>
<polygon fill="midnightblue" stroke="midnightblue" points="801.434,-89.617 804.799,-79.5707 795.903,-85.326 801.434,-89.617"/>
</g>
<!-- Node14 -->
<g id="node29" class="node"><title>Node14</title>
<polygon fill="white" stroke="#bfbfbf" points="861.5,-58.5 861.5,-79.5 906.5,-79.5 906.5,-58.5 861.5,-58.5"/>
<text text-anchor="middle" x="884" y="-66.5" font-family="Helvetica,sans-Serif" font-size="10.00">Utils.h</text>
</g>
<!-- Node1&#45;&gt;Node14 -->
<g id="edge30" class="edge"><title>Node1&#45;&gt;Node14</title>
<path fill="none" stroke="midnightblue" d="M789.007,-116.497C807.043,-107.479 833.27,-94.3649 853.599,-84.2006"/>
<polygon fill="midnightblue" stroke="midnightblue" points="855.379,-87.2239 862.758,-79.6212 852.248,-80.9629 855.379,-87.2239"/>
</g>
<!-- Node15 -->
<g id="node31" class="node"><title>Node15</title>
<a xlink:href="VirtualKeyboardPreferences_8h.htm" target="_top" xlink:title="VirtualKeyboardPreferences.h">
<polygon fill="white" stroke="black" points="509.5,-58.5 509.5,-79.5 666.5,-79.5 666.5,-58.5 509.5,-58.5"/>
<text text-anchor="middle" x="588" y="-66.5" font-family="Helvetica,sans-Serif" font-size="10.00">VirtualKeyboardPreferences.h</text>
</a>
</g>
<!-- Node1&#45;&gt;Node15 -->
<g id="edge32" class="edge"><title>Node1&#45;&gt;Node15</title>
<path fill="none" stroke="midnightblue" d="M735.403,-116.497C705.931,-107 662.365,-92.9619 630.234,-82.6087"/>
<polygon fill="midnightblue" stroke="midnightblue" points="631.249,-79.2587 620.658,-79.5231 629.102,-85.9214 631.249,-79.2587"/>
</g>
<!-- Node19 -->
<g id="node40" class="node"><title>Node19</title>
<polygon fill="white" stroke="#bfbfbf" points="923.5,-58.5 923.5,-79.5 964.5,-79.5 964.5,-58.5 923.5,-58.5"/>
<text text-anchor="middle" x="944" y="-66.5" font-family="Helvetica,sans-Serif" font-size="10.00">QFile</text>
</g>
<!-- Node1&#45;&gt;Node19 -->
<g id="edge42" class="edge"><title>Node1&#45;&gt;Node19</title>
<path fill="none" stroke="midnightblue" d="M802.626,-116.498C830.48,-107.924 870.817,-95.2253 913.924,-80.2742"/>
<polygon fill="midnightblue" stroke="midnightblue" points="915.167,-83.5478 923.454,-76.9474 912.859,-76.9389 915.167,-83.5478"/>
</g>
<!-- Node20 -->
<g id="node42" class="node"><title>Node20</title>
<polygon fill="white" stroke="#bfbfbf" points="981.5,-58.5 981.5,-79.5 1040.5,-79.5 1040.5,-58.5 981.5,-58.5"/>
<text text-anchor="middle" x="1011" y="-66.5" font-family="Helvetica,sans-Serif" font-size="10.00">qdebug.h</text>
</g>
<!-- Node1&#45;&gt;Node20 -->
<g id="edge44" class="edge"><title>Node1&#45;&gt;Node20</title>
<path fill="none" stroke="midnightblue" d="M813.775,-117.28C853.242,-108.725 911.969,-95.5838 971.267,-80.3666"/>
<polygon fill="midnightblue" stroke="midnightblue" points="972.367,-83.6975 981.173,-77.8063 970.615,-76.9202 972.367,-83.6975"/>
</g>
<!-- Node3 -->
<g id="node5" class="node"><title>Node3</title>
<polygon fill="white" stroke="#bfbfbf" points="62,-0.5 62,-21.5 160,-21.5 160,-0.5 62,-0.5"/>
<text text-anchor="middle" x="111" y="-8.5" font-family="Helvetica,sans-Serif" font-size="10.00">palmimedefines.h</text>
</g>
<!-- Node2&#45;&gt;Node3 -->
<g id="edge4" class="edge"><title>Node2&#45;&gt;Node3</title>
<path fill="none" stroke="midnightblue" d="M188.576,-58.3619C174.113,-49.532 153.331,-36.844 136.916,-26.8224"/>
<polygon fill="midnightblue" stroke="midnightblue" points="138.673,-23.7943 128.314,-21.5707 135.025,-29.7688 138.673,-23.7943"/>
</g>
<!-- Node4 -->
<g id="node7" class="node"><title>Node4</title>
<polygon fill="white" stroke="#bfbfbf" points="0,-0.5 0,-21.5 44,-21.5 44,-0.5 0,-0.5"/>
<text text-anchor="middle" x="22" y="-8.5" font-family="Helvetica,sans-Serif" font-size="10.00">qlist.h</text>
</g>
<!-- Node2&#45;&gt;Node4 -->
<g id="edge6" class="edge"><title>Node2&#45;&gt;Node4</title>
<path fill="none" stroke="midnightblue" d="M170.002,-58.4173C140.974,-49.7778 98.8886,-37.0158 53.9424,-22.2308"/>
<polygon fill="midnightblue" stroke="midnightblue" points="54.9049,-18.8627 44.3116,-19.0459 52.707,-25.5087 54.9049,-18.8627"/>
</g>
<!-- Node5 -->
<g id="node9" class="node"><title>Node5</title>
<polygon fill="white" stroke="#bfbfbf" points="251.5,-0.5 251.5,-21.5 300.5,-21.5 300.5,-0.5 251.5,-0.5"/>
<text text-anchor="middle" x="276" y="-8.5" font-family="Helvetica,sans-Serif" font-size="10.00">qrect.h</text>
</g>
<!-- Node2&#45;&gt;Node5 -->
<g id="edge8" class="edge"><title>Node2&#45;&gt;Node5</title>
<path fill="none" stroke="midnightblue" d="M218.839,-58.3619C229.002,-49.9408 243.401,-38.0105 255.204,-28.2308"/>
<polygon fill="midnightblue" stroke="midnightblue" points="257.775,-30.6459 263.242,-21.5707 253.309,-25.2558 257.775,-30.6459"/>
</g>
<!-- Node6 -->
<g id="node11" class="node"><title>Node6</title>
<polygon fill="white" stroke="#bfbfbf" points="177.5,-0.5 177.5,-21.5 234.5,-21.5 234.5,-0.5 177.5,-0.5"/>
<text text-anchor="middle" x="206" y="-8.5" font-family="Helvetica,sans-Serif" font-size="10.00">qstring.h</text>
</g>
<!-- Node2&#45;&gt;Node6 -->
<g id="edge10" class="edge"><title>Node2&#45;&gt;Node6</title>
<path fill="none" stroke="midnightblue" d="M206,-58.3619C206,-50.9219 206,-40.7427 206,-31.7276"/>
<polygon fill="midnightblue" stroke="midnightblue" points="209.5,-31.5706 206,-21.5707 202.5,-31.5707 209.5,-31.5706"/>
</g>
<!-- Node7&#45;&gt;Node5 -->
<g id="edge20" class="edge"><title>Node7&#45;&gt;Node5</title>
<path fill="none" stroke="midnightblue" d="M384.915,-58.4966C363.861,-49.3154 333.073,-35.8889 309.598,-25.6516"/>
<polygon fill="midnightblue" stroke="midnightblue" points="310.921,-22.4104 300.356,-21.6212 308.123,-28.8268 310.921,-22.4104"/>
</g>
<!-- Node7&#45;&gt;Node6 -->
<g id="edge24" class="edge"><title>Node7&#45;&gt;Node6</title>
<path fill="none" stroke="midnightblue" d="M371.381,-58.4999C339.814,-49.6553 293.282,-36.5398 244.463,-22.4042"/>
<polygon fill="midnightblue" stroke="midnightblue" points="245.252,-18.9887 234.672,-19.5644 243.301,-25.7117 245.252,-18.9887"/>
</g>
<!-- Node8 -->
<g id="node15" class="node"><title>Node8</title>
<polygon fill="white" stroke="#bfbfbf" points="317.5,-0.5 317.5,-21.5 364.5,-21.5 364.5,-0.5 317.5,-0.5"/>
<text text-anchor="middle" x="341" y="-8.5" font-family="Helvetica,sans-Serif" font-size="10.00">stdio.h</text>
</g>
<!-- Node7&#45;&gt;Node8 -->
<g id="edge14" class="edge"><title>Node7&#45;&gt;Node8</title>
<path fill="none" stroke="midnightblue" d="M396.528,-58.3619C386.655,-49.9408 372.667,-38.0105 361.202,-28.2308"/>
<polygon fill="midnightblue" stroke="midnightblue" points="363.273,-25.3972 353.393,-21.5707 358.73,-30.7231 363.273,-25.3972"/>
</g>
<!-- Node9 -->
<g id="node17" class="node"><title>Node9</title>
<polygon fill="white" stroke="#bfbfbf" points="523.5,-0.5 523.5,-21.5 566.5,-21.5 566.5,-0.5 523.5,-0.5"/>
<text text-anchor="middle" x="545" y="-8.5" font-family="Helvetica,sans-Serif" font-size="10.00">string</text>
</g>
<!-- Node7&#45;&gt;Node9 -->
<g id="edge16" class="edge"><title>Node7&#45;&gt;Node9</title>
<path fill="none" stroke="midnightblue" d="M433.629,-58.4966C456.099,-48.9137 489.414,-34.706 513.751,-24.3269"/>
<polygon fill="midnightblue" stroke="midnightblue" points="515.422,-27.4194 523.247,-20.277 512.676,-20.9805 515.422,-27.4194"/>
</g>
<!-- Node10 -->
<g id="node19" class="node"><title>Node10</title>
<polygon fill="white" stroke="#bfbfbf" points="382,-0.5 382,-21.5 436,-21.5 436,-0.5 382,-0.5"/>
<text text-anchor="middle" x="409" y="-8.5" font-family="Helvetica,sans-Serif" font-size="10.00">qpoint.h</text>
</g>
<!-- Node7&#45;&gt;Node10 -->
<g id="edge18" class="edge"><title>Node7&#45;&gt;Node10</title>
<path fill="none" stroke="midnightblue" d="M409,-58.3619C409,-50.9219 409,-40.7427 409,-31.7276"/>
<polygon fill="midnightblue" stroke="midnightblue" points="412.5,-31.5706 409,-21.5707 405.5,-31.5707 412.5,-31.5706"/>
</g>
<!-- Node11 -->
<g id="node22" class="node"><title>Node11</title>
<polygon fill="white" stroke="#bfbfbf" points="454,-0.5 454,-21.5 506,-21.5 506,-0.5 454,-0.5"/>
<text text-anchor="middle" x="480" y="-8.5" font-family="Helvetica,sans-Serif" font-size="10.00">qchar.h</text>
</g>
<!-- Node7&#45;&gt;Node11 -->
<g id="edge22" class="edge"><title>Node7&#45;&gt;Node11</title>
<path fill="none" stroke="midnightblue" d="M422.022,-58.3619C432.431,-49.859 447.219,-37.7785 459.255,-27.9466"/>
<polygon fill="midnightblue" stroke="midnightblue" points="461.53,-30.6077 467.06,-21.5707 457.101,-25.1866 461.53,-30.6077"/>
</g>
<!-- Node15&#45;&gt;Node9 -->
<g id="edge34" class="edge"><title>Node15&#45;&gt;Node9</title>
<path fill="none" stroke="midnightblue" d="M580.113,-58.3619C574.173,-50.3496 565.878,-39.1605 558.841,-29.6696"/>
<polygon fill="midnightblue" stroke="midnightblue" points="561.604,-27.5193 552.837,-21.5707 555.981,-31.6883 561.604,-27.5193"/>
</g>
<!-- Node16 -->
<g id="node34" class="node"><title>Node16</title>
<polygon fill="white" stroke="#bfbfbf" points="584,-0.5 584,-21.5 630,-21.5 630,-0.5 584,-0.5"/>
<text text-anchor="middle" x="607" y="-8.5" font-family="Helvetica,sans-Serif" font-size="10.00">vector</text>
</g>
<!-- Node15&#45;&gt;Node16 -->
<g id="edge36" class="edge"><title>Node15&#45;&gt;Node16</title>
<path fill="none" stroke="midnightblue" d="M591.485,-58.3619C593.976,-50.7584 597.404,-40.294 600.404,-31.1349"/>
<polygon fill="midnightblue" stroke="midnightblue" points="603.75,-32.1634 603.537,-21.5707 597.098,-29.9841 603.75,-32.1634"/>
</g>
<!-- Node17 -->
<g id="node36" class="node"><title>Node17</title>
<polygon fill="white" stroke="#bfbfbf" points="647.5,-0.5 647.5,-21.5 746.5,-21.5 746.5,-0.5 647.5,-0.5"/>
<text text-anchor="middle" x="697" y="-8.5" font-family="Helvetica,sans-Serif" font-size="10.00">VirtualKeyboard.h</text>
</g>
<!-- Node15&#45;&gt;Node17 -->
<g id="edge38" class="edge"><title>Node15&#45;&gt;Node17</title>
<path fill="none" stroke="midnightblue" d="M607.739,-58.4966C624.61,-49.5194 649.109,-36.4835 668.174,-26.3387"/>
<polygon fill="midnightblue" stroke="midnightblue" points="669.856,-29.4086 677.039,-21.6212 666.567,-23.2289 669.856,-29.4086"/>
</g>
<!-- Node18 -->
<g id="node38" class="node"><title>Node18</title>
<polygon fill="white" stroke="#bfbfbf" points="763.5,-0.5 763.5,-21.5 822.5,-21.5 822.5,-0.5 763.5,-0.5"/>
<text text-anchor="middle" x="793" y="-8.5" font-family="Helvetica,sans-Serif" font-size="10.00">qobject.h</text>
</g>
<!-- Node15&#45;&gt;Node18 -->
<g id="edge40" class="edge"><title>Node15&#45;&gt;Node18</title>
<path fill="none" stroke="midnightblue" d="M625.828,-58.4402C657.574,-49.5587 704.38,-36.4199 753.322,-22.4679"/>
<polygon fill="midnightblue" stroke="midnightblue" points="754.48,-25.7775 763.135,-19.6677 752.559,-19.0461 754.48,-25.7775"/>
</g>
</g>
</svg>
