<?xml version="1.0" encoding="UTF-8" standalone="no"?>
<!DOCTYPE svg PUBLIC "-//W3C//DTD SVG 1.1//EN"
 "http://www.w3.org/Graphics/SVG/1.1/DTD/svg11.dtd">
<!-- Generated by graphviz version 2.26.3 (20100126.1600)
 -->
<!-- Title: ProgressAnimation.cpp Pages: 1 -->
<svg width="2003pt" height="262pt"
 viewBox="0.00 0.00 2002.84 262.00" xmlns="http://www.w3.org/2000/svg" xmlns:xlink="http://www.w3.org/1999/xlink">
<g id="graph1" class="graph" transform="scale(1 1) rotate(0) translate(4 258)">
<title>ProgressAnimation.cpp</title>
<polygon fill="white" stroke="white" points="-4,5 -4,-258 1999.84,-258 1999.84,5 -4,5"/>
<!-- Node1 -->
<g id="node1" class="node"><title>Node1</title>
<polygon fill="#bfbfbf" stroke="black" points="1000.34,-232.5 1000.34,-253.5 1125.34,-253.5 1125.34,-232.5 1000.34,-232.5"/>
<text text-anchor="middle" x="1062.84" y="-240.5" font-family="Helvetica,sans-Serif" font-size="10.00">ProgressAnimation.cpp</text>
</g>
<!-- Node2 -->
<g id="node3" class="node"><title>Node2</title>
<polygon fill="white" stroke="#bfbfbf" points="904.335,-0.5 904.335,-21.5 971.335,-21.5 971.335,-0.5 904.335,-0.5"/>
<text text-anchor="middle" x="937.835" y="-8.5" font-family="Helvetica,sans-Serif" font-size="10.00">Common.h</text>
</g>
<!-- Node1&#45;&gt;Node2 -->
<g id="edge2" class="edge"><title>Node1&#45;&gt;Node2</title>
<path fill="none" stroke="midnightblue" d="M1046.9,-232.205C1035.11,-223.551 1019.34,-210.492 1008.84,-196 970.598,-143.239 950.076,-67.2806 941.987,-31.3323"/>
<polygon fill="midnightblue" stroke="midnightblue" points="945.402,-30.5661 939.87,-21.5304 938.56,-32.044 945.402,-30.5661"/>
</g>
<!-- Node3 -->
<g id="node5" class="node"><title>Node3</title>
<a xlink:href="ProgressAnimation_8h.htm" target="_top" xlink:title="ProgressAnimation.h">
<polygon fill="white" stroke="black" points="187.835,-58.5 187.835,-79.5 301.835,-79.5 301.835,-58.5 187.835,-58.5"/>
<text text-anchor="middle" x="244.835" y="-66.5" font-family="Helvetica,sans-Serif" font-size="10.00">ProgressAnimation.h</text>
</a>
</g>
<!-- Node1&#45;&gt;Node3 -->
<g id="edge4" class="edge"><title>Node1&#45;&gt;Node3</title>
<path fill="none" stroke="midnightblue" d="M1000.21,-241.571C783.048,-235.976 71.9389,-212.093 4.83536,-138 -1.72829,-130.753 -1.37878,-123.549 4.83536,-116 26.3384,-89.8775 114.089,-78.0643 177.266,-72.8682"/>
<polygon fill="midnightblue" stroke="midnightblue" points="177.877,-76.3312 187.573,-72.0606 177.33,-69.3526 177.877,-76.3312"/>
</g>
<!-- Node8 -->
<g id="node16" class="node"><title>Node8</title>
<polygon fill="white" stroke="#bfbfbf" points="1027.34,-174.5 1027.34,-195.5 1098.34,-195.5 1098.34,-174.5 1027.34,-174.5"/>
<text text-anchor="middle" x="1062.84" y="-182.5" font-family="Helvetica,sans-Serif" font-size="10.00">HostBase.h</text>
</g>
<!-- Node1&#45;&gt;Node8 -->
<g id="edge16" class="edge"><title>Node1&#45;&gt;Node8</title>
<path fill="none" stroke="midnightblue" d="M1062.84,-232.362C1062.84,-224.922 1062.84,-214.743 1062.84,-205.728"/>
<polygon fill="midnightblue" stroke="midnightblue" points="1066.34,-205.571 1062.84,-195.571 1059.34,-205.571 1066.34,-205.571"/>
</g>
<!-- Node9 -->
<g id="node18" class="node"><title>Node9</title>
<polygon fill="white" stroke="#bfbfbf" points="1115.34,-174.5 1115.34,-195.5 1178.34,-195.5 1178.34,-174.5 1115.34,-174.5"/>
<text text-anchor="middle" x="1146.84" y="-182.5" font-family="Helvetica,sans-Serif" font-size="10.00">Settings.h</text>
</g>
<!-- Node1&#45;&gt;Node9 -->
<g id="edge18" class="edge"><title>Node1&#45;&gt;Node9</title>
<path fill="none" stroke="midnightblue" d="M1078.24,-232.362C1090.79,-223.696 1108.73,-211.313 1123.11,-201.382"/>
<polygon fill="midnightblue" stroke="midnightblue" points="1125.29,-204.133 1131.53,-195.571 1121.31,-198.372 1125.29,-204.133"/>
</g>
<!-- Node10 -->
<g id="node20" class="node"><title>Node10</title>
<a xlink:href="AnimationSettings_8h.htm" target="_top" xlink:title="AnimationSettings.h">
<polygon fill="white" stroke="black" points="1500.84,-116.5 1500.84,-137.5 1610.84,-137.5 1610.84,-116.5 1500.84,-116.5"/>
<text text-anchor="middle" x="1555.84" y="-124.5" font-family="Helvetica,sans-Serif" font-size="10.00">AnimationSettings.h</text>
</a>
</g>
<!-- Node1&#45;&gt;Node10 -->
<g id="edge20" class="edge"><title>Node1&#45;&gt;Node10</title>
<path fill="none" stroke="midnightblue" d="M1047.67,-232.384C1029.04,-218.107 1001.89,-192.39 1018.84,-174 1052,-138.007 1409.12,-142.73 1457.84,-138 1468.47,-136.968 1479.74,-135.785 1490.71,-134.586"/>
<polygon fill="midnightblue" stroke="midnightblue" points="1491.11,-138.063 1500.67,-133.485 1490.34,-131.106 1491.11,-138.063"/>
</g>
<!-- Node15 -->
<g id="node32" class="node"><title>Node15</title>
<polygon fill="white" stroke="#bfbfbf" points="1195.84,-174.5 1195.84,-195.5 1251.84,-195.5 1251.84,-174.5 1195.84,-174.5"/>
<text text-anchor="middle" x="1223.84" y="-182.5" font-family="Helvetica,sans-Serif" font-size="10.00">QtUtils.h</text>
</g>
<!-- Node1&#45;&gt;Node15 -->
<g id="edge34" class="edge"><title>Node1&#45;&gt;Node15</title>
<path fill="none" stroke="midnightblue" d="M1091.99,-232.497C1118.34,-223.006 1157.27,-208.98 1186.01,-198.628"/>
<polygon fill="midnightblue" stroke="midnightblue" points="1187.48,-201.816 1195.71,-195.134 1185.11,-195.23 1187.48,-201.816"/>
</g>
<!-- Node16 -->
<g id="node34" class="node"><title>Node16</title>
<a xlink:href="SystemUiController_8h.htm" target="_top" xlink:title="SystemUiController.h">
<polygon fill="white" stroke="black" points="618.835,-174.5 618.835,-195.5 734.835,-195.5 734.835,-174.5 618.835,-174.5"/>
<text text-anchor="middle" x="676.835" y="-182.5" font-family="Helvetica,sans-Serif" font-size="10.00">SystemUiController.h</text>
</a>
</g>
<!-- Node1&#45;&gt;Node16 -->
<g id="edge36" class="edge"><title>Node1&#45;&gt;Node16</title>
<path fill="none" stroke="midnightblue" d="M999.959,-233.552C929.874,-223.021 816.938,-206.052 744.841,-195.218"/>
<polygon fill="midnightblue" stroke="midnightblue" points="745.357,-191.757 734.947,-193.732 744.316,-198.679 745.357,-191.757"/>
</g>
<!-- Node45 -->
<g id="node117" class="node"><title>Node45</title>
<polygon fill="white" stroke="#bfbfbf" points="1269.34,-174.5 1269.34,-195.5 1350.34,-195.5 1350.34,-174.5 1269.34,-174.5"/>
<text text-anchor="middle" x="1309.84" y="-182.5" font-family="Helvetica,sans-Serif" font-size="10.00">Localization.h</text>
</g>
<!-- Node1&#45;&gt;Node45 -->
<g id="edge144" class="edge"><title>Node1&#45;&gt;Node45</title>
<path fill="none" stroke="midnightblue" d="M1107.57,-232.497C1150.35,-222.451 1214.77,-207.323 1259.36,-196.851"/>
<polygon fill="midnightblue" stroke="midnightblue" points="1260.19,-200.253 1269.13,-194.559 1258.59,-193.438 1260.19,-200.253"/>
</g>
<!-- Node46 -->
<g id="node119" class="node"><title>Node46</title>
<polygon fill="white" stroke="#bfbfbf" points="1367.34,-174.5 1367.34,-195.5 1426.34,-195.5 1426.34,-174.5 1367.34,-174.5"/>
<text text-anchor="middle" x="1396.84" y="-182.5" font-family="Helvetica,sans-Serif" font-size="10.00">QPainter</text>
</g>
<!-- Node1&#45;&gt;Node46 -->
<g id="edge146" class="edge"><title>Node1&#45;&gt;Node46</title>
<path fill="none" stroke="midnightblue" d="M1125.34,-235.372C1183.31,-227.778 1272.09,-214.831 1357.23,-196.182"/>
<polygon fill="midnightblue" stroke="midnightblue" points="1358.05,-199.585 1367.06,-194 1356.53,-192.751 1358.05,-199.585"/>
</g>
<!-- Node3&#45;&gt;Node2 -->
<g id="edge6" class="edge"><title>Node3&#45;&gt;Node2</title>
<path fill="none" stroke="midnightblue" d="M302.102,-60.1002C308.081,-59.3208 314.076,-58.6013 319.835,-58 571.585,-31.7172 640.767,-61.8683 893.789,-22.0871"/>
<polygon fill="midnightblue" stroke="midnightblue" points="894.705,-25.4854 904.029,-20.455 893.603,-18.5727 894.705,-25.4854"/>
</g>
<!-- Node4 -->
<g id="node8" class="node"><title>Node4</title>
<polygon fill="white" stroke="#bfbfbf" points="444.835,-0.5 444.835,-21.5 542.835,-21.5 542.835,-0.5 444.835,-0.5"/>
<text text-anchor="middle" x="493.835" y="-8.5" font-family="Helvetica,sans-Serif" font-size="10.00">QGraphicsObject</text>
</g>
<!-- Node3&#45;&gt;Node4 -->
<g id="edge8" class="edge"><title>Node3&#45;&gt;Node4</title>
<path fill="none" stroke="midnightblue" d="M289.927,-58.4966C331.751,-48.7545 394.095,-34.2328 438.828,-23.813"/>
<polygon fill="midnightblue" stroke="midnightblue" points="439.714,-27.2005 448.659,-21.5231 438.125,-20.383 439.714,-27.2005"/>
</g>
<!-- Node5 -->
<g id="node10" class="node"><title>Node5</title>
<polygon fill="white" stroke="#bfbfbf" points="560.335,-0.5 560.335,-21.5 619.335,-21.5 619.335,-0.5 560.335,-0.5"/>
<text text-anchor="middle" x="589.835" y="-8.5" font-family="Helvetica,sans-Serif" font-size="10.00">QPixmap</text>
</g>
<!-- Node3&#45;&gt;Node5 -->
<g id="edge10" class="edge"><title>Node3&#45;&gt;Node5</title>
<path fill="none" stroke="midnightblue" d="M301.851,-60.4666C378.584,-48.9568 509.473,-29.2267 549.991,-21.9691"/>
<polygon fill="midnightblue" stroke="midnightblue" points="550.908,-25.3565 560.059,-20.0159 549.575,-18.4846 550.908,-25.3565"/>
</g>
<!-- Node6 -->
<g id="node12" class="node"><title>Node6</title>
<polygon fill="white" stroke="#bfbfbf" points="38.8354,-0.5 38.8354,-21.5 150.835,-21.5 150.835,-0.5 38.8354,-0.5"/>
<text text-anchor="middle" x="94.8354" y="-8.5" font-family="Helvetica,sans-Serif" font-size="10.00">QPropertyAnimation</text>
</g>
<!-- Node3&#45;&gt;Node6 -->
<g id="edge12" class="edge"><title>Node3&#45;&gt;Node6</title>
<path fill="none" stroke="midnightblue" d="M217.671,-58.4966C193.535,-49.1639 158.054,-35.4447 131.424,-25.1475"/>
<polygon fill="midnightblue" stroke="midnightblue" points="132.639,-21.8651 122.05,-21.5231 130.115,-28.394 132.639,-21.8651"/>
</g>
<!-- Node7 -->
<g id="node14" class="node"><title>Node7</title>
<polygon fill="white" stroke="#bfbfbf" points="168.835,-0.5 168.835,-21.5 304.835,-21.5 304.835,-0.5 168.835,-0.5"/>
<text text-anchor="middle" x="236.835" y="-8.5" font-family="Helvetica,sans-Serif" font-size="10.00">QParallelAnimationGroup</text>
</g>
<!-- Node3&#45;&gt;Node7 -->
<g id="edge14" class="edge"><title>Node3&#45;&gt;Node7</title>
<path fill="none" stroke="midnightblue" d="M243.368,-58.3619C242.342,-50.9219 240.938,-40.7427 239.694,-31.7276"/>
<polygon fill="midnightblue" stroke="midnightblue" points="243.127,-30.9986 238.293,-21.5707 236.193,-31.9551 243.127,-30.9986"/>
</g>
<!-- Node10&#45;&gt;Node2 -->
<g id="edge22" class="edge"><title>Node10&#45;&gt;Node2</title>
<path fill="none" stroke="midnightblue" d="M1540.15,-116.289C1512.89,-97.7738 1458.76,-61.4244 1448.84,-58 1362.85,-28.3325 1088.91,-16.0899 981.572,-12.3502"/>
<polygon fill="midnightblue" stroke="midnightblue" points="981.53,-8.8468 971.417,-12.0045 981.292,-15.8427 981.53,-8.8468"/>
</g>
<!-- Node11 -->
<g id="node23" class="node"><title>Node11</title>
<polygon fill="white" stroke="#bfbfbf" points="1260.34,-0.5 1260.34,-21.5 1301.34,-21.5 1301.34,-0.5 1260.34,-0.5"/>
<text text-anchor="middle" x="1280.84" y="-8.5" font-family="Helvetica,sans-Serif" font-size="10.00">glib.h</text>
</g>
<!-- Node10&#45;&gt;Node11 -->
<g id="edge24" class="edge"><title>Node10&#45;&gt;Node11</title>
<path fill="none" stroke="midnightblue" d="M1567.44,-116.135C1581.59,-101.576 1601.89,-75.5404 1586.84,-58 1569.03,-37.2496 1386.18,-19.7908 1311.93,-13.5018"/>
<polygon fill="midnightblue" stroke="midnightblue" points="1312.05,-9.99984 1301.79,-12.6559 1311.47,-16.9756 1312.05,-9.99984"/>
</g>
<!-- Node12 -->
<g id="node25" class="node"><title>Node12</title>
<polygon fill="white" stroke="#bfbfbf" points="1958.34,-0.5 1958.34,-21.5 1995.34,-21.5 1995.34,-0.5 1958.34,-0.5"/>
<text text-anchor="middle" x="1976.84" y="-8.5" font-family="Helvetica,sans-Serif" font-size="10.00">map</text>
</g>
<!-- Node10&#45;&gt;Node12 -->
<g id="edge26" class="edge"><title>Node10&#45;&gt;Node12</title>
<path fill="none" stroke="midnightblue" d="M1610.85,-124.398C1716.97,-118.853 1941.74,-104.351 1966.84,-80 1979.42,-67.7905 1980.96,-47.3086 1979.93,-31.8238"/>
<polygon fill="midnightblue" stroke="midnightblue" points="1983.39,-31.1954 1978.85,-21.6213 1976.43,-31.9352 1983.39,-31.1954"/>
</g>
<!-- Node13 -->
<g id="node27" class="node"><title>Node13</title>
<polygon fill="white" stroke="#bfbfbf" points="1730.34,-0.5 1730.34,-21.5 1773.34,-21.5 1773.34,-0.5 1730.34,-0.5"/>
<text text-anchor="middle" x="1751.84" y="-8.5" font-family="Helvetica,sans-Serif" font-size="10.00">string</text>
</g>
<!-- Node10&#45;&gt;Node13 -->
<g id="edge28" class="edge"><title>Node10&#45;&gt;Node13</title>
<path fill="none" stroke="midnightblue" d="M1611.16,-118.628C1656.76,-110.634 1716.63,-97.2584 1733.84,-80 1746.43,-67.3721 1750.55,-47.1105 1751.74,-31.8033"/>
<polygon fill="midnightblue" stroke="midnightblue" points="1755.24,-31.8538 1752.18,-21.7128 1748.25,-31.5533 1755.24,-31.8538"/>
</g>
<!-- Node14 -->
<g id="node29" class="node"><title>Node14</title>
<a xlink:href="AnimationEquations_8h.htm" target="_top" xlink:title="AnimationEquations.h">
<polygon fill="white" stroke="black" points="1321.84,-58.5 1321.84,-79.5 1439.84,-79.5 1439.84,-58.5 1321.84,-58.5"/>
<text text-anchor="middle" x="1380.84" y="-66.5" font-family="Helvetica,sans-Serif" font-size="10.00">AnimationEquations.h</text>
</a>
</g>
<!-- Node10&#45;&gt;Node14 -->
<g id="edge30" class="edge"><title>Node10&#45;&gt;Node14</title>
<path fill="none" stroke="midnightblue" d="M1524.14,-116.497C1495.61,-107.041 1453.5,-93.0829 1422.3,-82.7428"/>
<polygon fill="midnightblue" stroke="midnightblue" points="1423.18,-79.3468 1412.59,-79.5231 1420.98,-85.9914 1423.18,-79.3468"/>
</g>
<!-- Node14&#45;&gt;Node2 -->
<g id="edge32" class="edge"><title>Node14&#45;&gt;Node2</title>
<path fill="none" stroke="midnightblue" d="M1321.52,-59.2764C1318.58,-58.8356 1315.68,-58.4077 1312.84,-58 1193.3,-40.846 1051.81,-24.0639 981.721,-15.9857"/>
<polygon fill="midnightblue" stroke="midnightblue" points="981.839,-12.4762 971.504,-14.8115 981.039,-19.4304 981.839,-12.4762"/>
</g>
<!-- Node16&#45;&gt;Node2 -->
<g id="edge38" class="edge"><title>Node16&#45;&gt;Node2</title>
<path fill="none" stroke="midnightblue" d="M707.95,-174.417C731.586,-165.875 764.563,-152.862 791.835,-138 831.352,-116.466 841.013,-109.687 874.835,-80 892.568,-64.4357 910.488,-44.2831 922.658,-29.7806"/>
<polygon fill="midnightblue" stroke="midnightblue" points="925.439,-31.9092 929.114,-21.9721 920.045,-27.4487 925.439,-31.9092"/>
</g>
<!-- Node16&#45;&gt;Node13 -->
<g id="edge40" class="edge"><title>Node16&#45;&gt;Node13</title>
<path fill="none" stroke="midnightblue" d="M735.049,-183.309C927.218,-177.561 1534.03,-158.013 1619.84,-138 1683.03,-123.259 1718.21,-134.241 1753.84,-80 1763.15,-65.8138 1761.55,-46.206 1758.26,-31.5171"/>
<polygon fill="midnightblue" stroke="midnightblue" points="1761.64,-30.6085 1755.69,-21.8385 1754.87,-32.4014 1761.64,-30.6085"/>
</g>
<!-- Node17 -->
<g id="node38" class="node"><title>Node17</title>
<polygon fill="white" stroke="#bfbfbf" points="881.835,-116.5 881.835,-137.5 933.835,-137.5 933.835,-116.5 881.835,-116.5"/>
<text text-anchor="middle" x="907.835" y="-124.5" font-family="Helvetica,sans-Serif" font-size="10.00">QEvent</text>
</g>
<!-- Node16&#45;&gt;Node17 -->
<g id="edge42" class="edge"><title>Node16&#45;&gt;Node17</title>
<path fill="none" stroke="midnightblue" d="M721.304,-174.418C760.069,-165.107 817.77,-151.041 867.835,-138 869.09,-137.673 870.366,-137.338 871.654,-136.997"/>
<polygon fill="midnightblue" stroke="midnightblue" points="872.864,-140.296 881.613,-134.321 871.047,-133.536 872.864,-140.296"/>
</g>
<!-- Node18 -->
<g id="node40" class="node"><title>Node18</title>
<polygon fill="white" stroke="#bfbfbf" points="33.8354,-116.5 33.8354,-137.5 103.835,-137.5 103.835,-116.5 33.8354,-116.5"/>
<text text-anchor="middle" x="68.8354" y="-124.5" font-family="Helvetica,sans-Serif" font-size="10.00">QKeyEvent</text>
</g>
<!-- Node16&#45;&gt;Node18 -->
<g id="edge44" class="edge"><title>Node16&#45;&gt;Node18</title>
<path fill="none" stroke="midnightblue" d="M618.808,-183.26C517.953,-179.56 303.747,-168.72 114.412,-138.048"/>
<polygon fill="midnightblue" stroke="midnightblue" points="114.709,-134.55 104.274,-136.383 113.574,-141.458 114.709,-134.55"/>
</g>
<!-- Node19 -->
<g id="node42" class="node"><title>Node19</title>
<polygon fill="white" stroke="#bfbfbf" points="121.335,-116.5 121.335,-137.5 204.335,-137.5 204.335,-116.5 121.335,-116.5"/>
<text text-anchor="middle" x="162.835" y="-124.5" font-family="Helvetica,sans-Serif" font-size="10.00">QMouseEvent</text>
</g>
<!-- Node16&#45;&gt;Node19 -->
<g id="edge46" class="edge"><title>Node16&#45;&gt;Node19</title>
<path fill="none" stroke="midnightblue" d="M618.686,-181.278C532.421,-175.278 365.321,-161.826 214.423,-138.122"/>
<polygon fill="midnightblue" stroke="midnightblue" points="214.934,-134.659 204.508,-136.546 213.835,-141.572 214.934,-134.659"/>
</g>
<!-- Node20 -->
<g id="node44" class="node"><title>Node20</title>
<polygon fill="white" stroke="#bfbfbf" points="221.335,-116.5 221.335,-137.5 276.335,-137.5 276.335,-116.5 221.335,-116.5"/>
<text text-anchor="middle" x="248.835" y="-124.5" font-family="Helvetica,sans-Serif" font-size="10.00">QObject</text>
</g>
<!-- Node16&#45;&gt;Node20 -->
<g id="edge48" class="edge"><title>Node16&#45;&gt;Node20</title>
<path fill="none" stroke="midnightblue" d="M618.526,-181.25C543.519,-175.71 409.186,-163.366 286.552,-138.102"/>
<polygon fill="midnightblue" stroke="midnightblue" points="287.121,-134.645 276.616,-136.021 285.686,-141.497 287.121,-134.645"/>
</g>
<!-- Node21 -->
<g id="node46" class="node"><title>Node21</title>
<polygon fill="white" stroke="#bfbfbf" points="293.335,-116.5 293.335,-137.5 340.335,-137.5 340.335,-116.5 293.335,-116.5"/>
<text text-anchor="middle" x="316.835" y="-124.5" font-family="Helvetica,sans-Serif" font-size="10.00">QRect</text>
</g>
<!-- Node16&#45;&gt;Node21 -->
<g id="edge50" class="edge"><title>Node16&#45;&gt;Node21</title>
<path fill="none" stroke="midnightblue" d="M618.738,-180.019C554.815,-173.794 449.037,-161.3 350.293,-138.035"/>
<polygon fill="midnightblue" stroke="midnightblue" points="350.994,-134.604 340.453,-135.675 349.361,-141.411 350.994,-134.604"/>
</g>
<!-- Node22 -->
<g id="node48" class="node"><title>Node22</title>
<polygon fill="white" stroke="#bfbfbf" points="357.335,-116.5 357.335,-137.5 450.335,-137.5 450.335,-116.5 357.335,-116.5"/>
<text text-anchor="middle" x="403.835" y="-124.5" font-family="Helvetica,sans-Serif" font-size="10.00">QSharedPointer</text>
</g>
<!-- Node16&#45;&gt;Node22 -->
<g id="edge52" class="edge"><title>Node16&#45;&gt;Node22</title>
<path fill="none" stroke="midnightblue" d="M627.397,-174.497C580.391,-164.51 509.743,-149.5 460.487,-139.036"/>
<polygon fill="midnightblue" stroke="midnightblue" points="461.135,-135.596 450.626,-136.941 459.681,-142.443 461.135,-135.596"/>
</g>
<!-- Node23 -->
<g id="node50" class="node"><title>Node23</title>
<polygon fill="white" stroke="#bfbfbf" points="467.835,-116.5 467.835,-137.5 553.835,-137.5 553.835,-116.5 467.835,-116.5"/>
<text text-anchor="middle" x="510.835" y="-124.5" font-family="Helvetica,sans-Serif" font-size="10.00">QWeakPointer</text>
</g>
<!-- Node16&#45;&gt;Node23 -->
<g id="edge54" class="edge"><title>Node16&#45;&gt;Node23</title>
<path fill="none" stroke="midnightblue" d="M646.774,-174.497C619.829,-165.082 580.108,-151.204 550.553,-140.877"/>
<polygon fill="midnightblue" stroke="midnightblue" points="551.548,-137.517 540.953,-137.523 549.239,-144.126 551.548,-137.517"/>
</g>
<!-- Node24 -->
<g id="node52" class="node"><title>Node24</title>
<a xlink:href="ApplicationDescription_8h.htm" target="_top" xlink:title="ApplicationDescription.h">
<polygon fill="white" stroke="black" points="1318.84,-116.5 1318.84,-137.5 1448.84,-137.5 1448.84,-116.5 1318.84,-116.5"/>
<text text-anchor="middle" x="1383.84" y="-124.5" font-family="Helvetica,sans-Serif" font-size="10.00">ApplicationDescription.h</text>
</a>
</g>
<!-- Node16&#45;&gt;Node24 -->
<g id="edge56" class="edge"><title>Node16&#45;&gt;Node24</title>
<path fill="none" stroke="midnightblue" d="M734.993,-180.229C862.442,-169.773 1166.29,-144.847 1308.28,-133.198"/>
<polygon fill="midnightblue" stroke="midnightblue" points="1308.95,-136.655 1318.63,-132.349 1308.38,-129.678 1308.95,-136.655"/>
</g>
<!-- Node34 -->
<g id="node83" class="node"><title>Node34</title>
<polygon fill="white" stroke="#bfbfbf" points="571.835,-116.5 571.835,-137.5 623.835,-137.5 623.835,-116.5 571.835,-116.5"/>
<text text-anchor="middle" x="597.835" y="-124.5" font-family="Helvetica,sans-Serif" font-size="10.00">Event.h</text>
</g>
<!-- Node16&#45;&gt;Node34 -->
<g id="edge98" class="edge"><title>Node16&#45;&gt;Node34</title>
<path fill="none" stroke="midnightblue" d="M662.346,-174.362C650.653,-165.777 633.993,-153.546 620.532,-143.664"/>
<polygon fill="midnightblue" stroke="midnightblue" points="622.365,-140.667 612.233,-137.571 618.223,-146.31 622.365,-140.667"/>
</g>
<!-- Node35 -->
<g id="node85" class="node"><title>Node35</title>
<a xlink:href="SuspendBlocker_8h.htm" target="_top" xlink:title="SuspendBlocker.h">
<polygon fill="white" stroke="black" points="765.335,-58.5 765.335,-79.5 866.335,-79.5 866.335,-58.5 765.335,-58.5"/>
<text text-anchor="middle" x="815.835" y="-66.5" font-family="Helvetica,sans-Serif" font-size="10.00">SuspendBlocker.h</text>
</a>
</g>
<!-- Node16&#45;&gt;Node35 -->
<g id="edge100" class="edge"><title>Node16&#45;&gt;Node35</title>
<path fill="none" stroke="midnightblue" d="M706.467,-174.334C725.717,-166.388 750.538,-154.131 768.835,-138 784.711,-124.004 797.766,-103.527 806.055,-88.5144"/>
<polygon fill="midnightblue" stroke="midnightblue" points="809.209,-90.0371 810.794,-79.5616 803.022,-86.7619 809.209,-90.0371"/>
</g>
<!-- Node37 -->
<g id="node91" class="node"><title>Node37</title>
<a xlink:href="VariantAnimation_8h.htm" target="_top" xlink:title="VariantAnimation.h">
<polygon fill="white" stroke="black" points="328.335,-58.5 328.335,-79.5 433.335,-79.5 433.335,-58.5 328.335,-58.5"/>
<text text-anchor="middle" x="380.835" y="-66.5" font-family="Helvetica,sans-Serif" font-size="10.00">VariantAnimation.h</text>
</a>
</g>
<!-- Node16&#45;&gt;Node37 -->
<g id="edge108" class="edge"><title>Node16&#45;&gt;Node37</title>
<path fill="none" stroke="midnightblue" d="M618.785,-182.941C462.795,-177.128 44.9358,-159.602 24.8354,-138 -7.62617,-103.114 -16.7359,-126.343 310.835,-80 313.199,-79.6656 315.607,-79.3187 318.038,-78.963"/>
<polygon fill="midnightblue" stroke="midnightblue" points="318.74,-82.3973 328.115,-77.4619 317.708,-75.4737 318.74,-82.3973"/>
</g>
<!-- Node39 -->
<g id="node96" class="node"><title>Node39</title>
<a xlink:href="Window_8h.htm" target="_top" xlink:title="Window.h">
<polygon fill="white" stroke="black" points="685.835,-58.5 685.835,-79.5 747.835,-79.5 747.835,-58.5 685.835,-58.5"/>
<text text-anchor="middle" x="716.835" y="-66.5" font-family="Helvetica,sans-Serif" font-size="10.00">Window.h</text>
</a>
</g>
<!-- Node16&#45;&gt;Node39 -->
<g id="edge114" class="edge"><title>Node16&#45;&gt;Node39</title>
<path fill="none" stroke="midnightblue" d="M708.371,-174.438C725.075,-167.048 744.101,-155.346 753.835,-138 763.545,-120.697 750.153,-100.693 736.847,-86.6936"/>
<polygon fill="midnightblue" stroke="midnightblue" points="739.198,-84.0975 729.611,-79.5892 734.294,-89.0926 739.198,-84.0975"/>
</g>
<!-- Node42 -->
<g id="node107" class="node"><title>Node42</title>
<polygon fill="white" stroke="#bfbfbf" points="575.835,-58.5 575.835,-79.5 667.835,-79.5 667.835,-58.5 575.835,-58.5"/>
<text text-anchor="middle" x="621.835" y="-66.5" font-family="Helvetica,sans-Serif" font-size="10.00">CustomEvents.h</text>
</g>
<!-- Node16&#45;&gt;Node42 -->
<g id="edge130" class="edge"><title>Node16&#45;&gt;Node42</title>
<path fill="none" stroke="midnightblue" d="M691.854,-174.495C709.258,-160.982 733.97,-136.775 720.835,-116 710.927,-100.328 694.216,-89.7769 677.317,-82.719"/>
<polygon fill="midnightblue" stroke="midnightblue" points="678.543,-79.4405 667.952,-79.147 676.048,-85.9809 678.543,-79.4405"/>
</g>
<!-- Node43 -->
<g id="node109" class="node"><title>Node43</title>
<a xlink:href="StatusBar_8h.htm" target="_top" xlink:title="StatusBar.h">
<polygon fill="white" stroke="black" points="641.335,-116.5 641.335,-137.5 712.335,-137.5 712.335,-116.5 641.335,-116.5"/>
<text text-anchor="middle" x="676.835" y="-124.5" font-family="Helvetica,sans-Serif" font-size="10.00">StatusBar.h</text>
</a>
</g>
<!-- Node16&#45;&gt;Node43 -->
<g id="edge132" class="edge"><title>Node16&#45;&gt;Node43</title>
<path fill="none" stroke="midnightblue" d="M676.835,-174.362C676.835,-166.922 676.835,-156.743 676.835,-147.728"/>
<polygon fill="midnightblue" stroke="midnightblue" points="680.335,-147.571 676.835,-137.571 673.335,-147.571 680.335,-147.571"/>
</g>
<!-- Node24&#45;&gt;Node2 -->
<g id="edge58" class="edge"><title>Node24&#45;&gt;Node2</title>
<path fill="none" stroke="midnightblue" d="M1318.73,-125.445C1221.35,-122.094 1043.4,-111.703 988.835,-80 969.423,-68.7207 955.191,-46.8058 946.768,-30.6883"/>
<polygon fill="midnightblue" stroke="midnightblue" points="949.829,-28.9823 942.28,-21.549 943.546,-32.0679 949.829,-28.9823"/>
</g>
<!-- Node24&#45;&gt;Node13 -->
<g id="edge60" class="edge"><title>Node24&#45;&gt;Node13</title>
<path fill="none" stroke="midnightblue" d="M1448.88,-120.695C1499.86,-114.334 1571.94,-102.175 1631.84,-80 1667.65,-66.7418 1705.24,-43.3572 1728.6,-27.526"/>
<polygon fill="midnightblue" stroke="midnightblue" points="1730.86,-30.217 1737.11,-21.6623 1726.89,-24.4521 1730.86,-30.217"/>
</g>
<!-- Node25 -->
<g id="node56" class="node"><title>Node25</title>
<polygon fill="white" stroke="#bfbfbf" points="1656.84,-0.5 1656.84,-21.5 1706.84,-21.5 1706.84,-0.5 1656.84,-0.5"/>
<text text-anchor="middle" x="1681.84" y="-8.5" font-family="Helvetica,sans-Serif" font-size="10.00">stdint.h</text>
</g>
<!-- Node24&#45;&gt;Node25 -->
<g id="edge62" class="edge"><title>Node24&#45;&gt;Node25</title>
<path fill="none" stroke="midnightblue" d="M1448.98,-121.7C1494.1,-115.997 1554.51,-104.222 1602.84,-80 1627.79,-67.4915 1651.18,-45.2251 1665.94,-29.3703"/>
<polygon fill="midnightblue" stroke="midnightblue" points="1668.72,-31.514 1672.83,-21.7493 1663.53,-26.819 1668.72,-31.514"/>
</g>
<!-- Node26 -->
<g id="node58" class="node"><title>Node26</title>
<polygon fill="white" stroke="#bfbfbf" points="1169.34,-58.5 1169.34,-79.5 1200.34,-79.5 1200.34,-58.5 1169.34,-58.5"/>
<text text-anchor="middle" x="1184.84" y="-66.5" font-family="Helvetica,sans-Serif" font-size="10.00">set</text>
</g>
<!-- Node24&#45;&gt;Node26 -->
<g id="edge64" class="edge"><title>Node24&#45;&gt;Node26</title>
<path fill="none" stroke="midnightblue" d="M1336.01,-116.443C1302.67,-108.571 1257.13,-96.7937 1209.9,-80.0231"/>
<polygon fill="midnightblue" stroke="midnightblue" points="1211.02,-76.7091 1200.43,-76.6021 1208.64,-83.2924 1211.02,-76.7091"/>
</g>
<!-- Node27 -->
<g id="node60" class="node"><title>Node27</title>
<polygon fill="white" stroke="#bfbfbf" points="1556.34,-0.5 1556.34,-21.5 1585.34,-21.5 1585.34,-0.5 1556.34,-0.5"/>
<text text-anchor="middle" x="1570.84" y="-8.5" font-family="Helvetica,sans-Serif" font-size="10.00">list</text>
</g>
<!-- Node24&#45;&gt;Node27 -->
<g id="edge66" class="edge"><title>Node24&#45;&gt;Node27</title>
<path fill="none" stroke="midnightblue" d="M1448.91,-120.655C1501.59,-114.015 1569.76,-101.486 1586.84,-80 1598.01,-65.9443 1591.23,-45.4751 1583.34,-30.4813"/>
<polygon fill="midnightblue" stroke="midnightblue" points="1586.21,-28.4493 1578.18,-21.5413 1580.15,-31.951 1586.21,-28.4493"/>
</g>
<!-- Node28 -->
<g id="node62" class="node"><title>Node28</title>
<a xlink:href="LaunchPoint_8h.htm" target="_top" xlink:title="LaunchPoint.h">
<polygon fill="white" stroke="black" points="1495.34,-58.5 1495.34,-79.5 1578.34,-79.5 1578.34,-58.5 1495.34,-58.5"/>
<text text-anchor="middle" x="1536.84" y="-66.5" font-family="Helvetica,sans-Serif" font-size="10.00">LaunchPoint.h</text>
</a>
</g>
<!-- Node24&#45;&gt;Node28 -->
<g id="edge68" class="edge"><title>Node24&#45;&gt;Node28</title>
<path fill="none" stroke="midnightblue" d="M1411.54,-116.497C1436.16,-107.164 1472.35,-93.4447 1499.52,-83.1475"/>
<polygon fill="midnightblue" stroke="midnightblue" points="1500.97,-86.3406 1509.08,-79.5231 1498.48,-79.7951 1500.97,-86.3406"/>
</g>
<!-- Node29 -->
<g id="node69" class="node"><title>Node29</title>
<polygon fill="white" stroke="#bfbfbf" points="1217.34,-58.5 1217.34,-79.5 1304.34,-79.5 1304.34,-58.5 1217.34,-58.5"/>
<text text-anchor="middle" x="1260.84" y="-66.5" font-family="Helvetica,sans-Serif" font-size="10.00">KeywordMap.h</text>
</g>
<!-- Node24&#45;&gt;Node29 -->
<g id="edge80" class="edge"><title>Node24&#45;&gt;Node29</title>
<path fill="none" stroke="midnightblue" d="M1361.56,-116.497C1342.26,-107.397 1314.12,-94.1273 1292.49,-83.9253"/>
<polygon fill="midnightblue" stroke="midnightblue" points="1293.9,-80.7206 1283.36,-79.6212 1290.91,-87.052 1293.9,-80.7206"/>
</g>
<!-- Node30 -->
<g id="node71" class="node"><title>Node30</title>
<a xlink:href="CmdResourceHandlers_8h.htm" target="_top" xlink:title="CmdResourceHandlers.h">
<polygon fill="white" stroke="black" points="1823.84,-58.5 1823.84,-79.5 1957.84,-79.5 1957.84,-58.5 1823.84,-58.5"/>
<text text-anchor="middle" x="1890.84" y="-66.5" font-family="Helvetica,sans-Serif" font-size="10.00">CmdResourceHandlers.h</text>
</a>
</g>
<!-- Node24&#45;&gt;Node30 -->
<g id="edge82" class="edge"><title>Node24&#45;&gt;Node30</title>
<path fill="none" stroke="midnightblue" d="M1449.08,-119.536C1542.55,-108.843 1714.25,-89.2008 1813.83,-77.8094"/>
<polygon fill="midnightblue" stroke="midnightblue" points="1814.29,-81.2796 1823.83,-76.6656 1813.49,-74.3249 1814.29,-81.2796"/>
</g>
<!-- Node33 -->
<g id="node81" class="node"><title>Node33</title>
<polygon fill="white" stroke="#bfbfbf" points="997.835,-58.5 997.835,-79.5 1151.84,-79.5 1151.84,-58.5 997.835,-58.5"/>
<text text-anchor="middle" x="1074.84" y="-66.5" font-family="Helvetica,sans-Serif" font-size="10.00">ApplicationDescriptionBase.h</text>
</g>
<!-- Node24&#45;&gt;Node33 -->
<g id="edge96" class="edge"><title>Node24&#45;&gt;Node33</title>
<path fill="none" stroke="midnightblue" d="M1327.88,-116.497C1275.32,-106.632 1196.66,-91.8659 1141.01,-81.4209"/>
<polygon fill="midnightblue" stroke="midnightblue" points="1141.37,-77.928 1130.9,-79.5231 1140.08,-84.8079 1141.37,-77.928"/>
</g>
<!-- Node28&#45;&gt;Node2 -->
<g id="edge70" class="edge"><title>Node28&#45;&gt;Node2</title>
<path fill="none" stroke="midnightblue" d="M1495.18,-60.1622C1490.69,-59.3607 1486.17,-58.6192 1481.84,-58 1296.82,-31.5893 1074.13,-17.9824 981.528,-13.1221"/>
<polygon fill="midnightblue" stroke="midnightblue" points="981.578,-9.62015 971.411,-12.599 981.217,-16.6108 981.578,-9.62015"/>
</g>
<!-- Node28&#45;&gt;Node5 -->
<g id="edge76" class="edge"><title>Node28&#45;&gt;Node5</title>
<path fill="none" stroke="midnightblue" d="M1495.28,-63.1074C1480.63,-61.2153 1464.02,-59.2802 1448.84,-58 1088.17,-27.601 990.013,-80.231 629.478,-21.9489"/>
<polygon fill="midnightblue" stroke="midnightblue" points="629.986,-18.4856 619.552,-20.3273 628.857,-25.394 629.986,-18.4856"/>
</g>
<!-- Node28&#45;&gt;Node11 -->
<g id="edge78" class="edge"><title>Node28&#45;&gt;Node11</title>
<path fill="none" stroke="midnightblue" d="M1495.13,-59.5522C1443.61,-47.8785 1357.16,-28.2928 1311.4,-17.9244"/>
<polygon fill="midnightblue" stroke="midnightblue" points="1312.01,-14.4736 1301.48,-15.6774 1310.46,-21.3005 1312.01,-14.4736"/>
</g>
<!-- Node28&#45;&gt;Node13 -->
<g id="edge72" class="edge"><title>Node28&#45;&gt;Node13</title>
<path fill="none" stroke="midnightblue" d="M1578.56,-58.5454C1614.92,-49.3152 1669.01,-35.2957 1715.84,-22 1717.29,-21.5872 1718.77,-21.1592 1720.27,-20.7222"/>
<polygon fill="midnightblue" stroke="midnightblue" points="1721.59,-23.9815 1730.17,-17.771 1719.59,-17.2731 1721.59,-23.9815"/>
</g>
<!-- Node28&#45;&gt;Node27 -->
<g id="edge74" class="edge"><title>Node28&#45;&gt;Node27</title>
<path fill="none" stroke="midnightblue" d="M1543.07,-58.3619C1547.67,-50.5131 1554.06,-39.6159 1559.55,-30.2527"/>
<polygon fill="midnightblue" stroke="midnightblue" points="1562.6,-31.9677 1564.64,-21.5707 1556.56,-28.4276 1562.6,-31.9677"/>
</g>
<!-- Node30&#45;&gt;Node2 -->
<g id="edge84" class="edge"><title>Node30&#45;&gt;Node2</title>
<path fill="none" stroke="midnightblue" d="M1823.82,-64.9216C1640.53,-53.7664 1134.44,-22.9652 981.907,-13.6822"/>
<polygon fill="midnightblue" stroke="midnightblue" points="981.739,-10.1656 971.545,-13.0516 981.314,-17.1527 981.739,-10.1656"/>
</g>
<!-- Node30&#45;&gt;Node12 -->
<g id="edge94" class="edge"><title>Node30&#45;&gt;Node12</title>
<path fill="none" stroke="midnightblue" d="M1906.61,-58.3619C1919.46,-49.6955 1937.82,-37.3126 1952.55,-27.3819"/>
<polygon fill="midnightblue" stroke="midnightblue" points="1954.83,-30.0639 1961.16,-21.5707 1950.91,-24.2604 1954.83,-30.0639"/>
</g>
<!-- Node30&#45;&gt;Node13 -->
<g id="edge90" class="edge"><title>Node30&#45;&gt;Node13</title>
<path fill="none" stroke="midnightblue" d="M1865.66,-58.4966C1842.46,-48.8134 1807.93,-34.4082 1783,-24.0025"/>
<polygon fill="midnightblue" stroke="midnightblue" points="1784.2,-20.7112 1773.62,-20.0904 1781.5,-27.1714 1784.2,-20.7112"/>
</g>
<!-- Node30&#45;&gt;Node25 -->
<g id="edge88" class="edge"><title>Node30&#45;&gt;Node25</title>
<path fill="none" stroke="midnightblue" d="M1852.99,-58.4966C1814.28,-47.7545 1754.63,-31.2012 1716.95,-20.7436"/>
<polygon fill="midnightblue" stroke="midnightblue" points="1717.51,-17.2671 1706.94,-17.9655 1715.64,-24.0122 1717.51,-17.2671"/>
</g>
<!-- Node31 -->
<g id="node74" class="node"><title>Node31</title>
<polygon fill="white" stroke="#bfbfbf" points="1872.84,-0.5 1872.84,-21.5 1924.84,-21.5 1924.84,-0.5 1872.84,-0.5"/>
<text text-anchor="middle" x="1898.84" y="-8.5" font-family="Helvetica,sans-Serif" font-size="10.00">regex.h</text>
</g>
<!-- Node30&#45;&gt;Node31 -->
<g id="edge86" class="edge"><title>Node30&#45;&gt;Node31</title>
<path fill="none" stroke="midnightblue" d="M1892.3,-58.3619C1893.33,-50.9219 1894.73,-40.7427 1895.98,-31.7276"/>
<polygon fill="midnightblue" stroke="midnightblue" points="1899.48,-31.9551 1897.38,-21.5707 1892.54,-30.9986 1899.48,-31.9551"/>
</g>
<!-- Node32 -->
<g id="node78" class="node"><title>Node32</title>
<polygon fill="white" stroke="#bfbfbf" points="1808.84,-0.5 1808.84,-21.5 1854.84,-21.5 1854.84,-0.5 1808.84,-0.5"/>
<text text-anchor="middle" x="1831.84" y="-8.5" font-family="Helvetica,sans-Serif" font-size="10.00">vector</text>
</g>
<!-- Node30&#45;&gt;Node32 -->
<g id="edge92" class="edge"><title>Node30&#45;&gt;Node32</title>
<path fill="none" stroke="midnightblue" d="M1880.01,-58.3619C1871.61,-50.1043 1859.78,-38.4725 1849.95,-28.8029"/>
<polygon fill="midnightblue" stroke="midnightblue" points="1852.17,-26.0851 1842.59,-21.5707 1847.27,-31.077 1852.17,-26.0851"/>
</g>
<!-- Node35&#45;&gt;Node2 -->
<g id="edge102" class="edge"><title>Node35&#45;&gt;Node2</title>
<path fill="none" stroke="midnightblue" d="M837.929,-58.4966C857.069,-49.397 884.981,-36.1273 906.441,-25.9253"/>
<polygon fill="midnightblue" stroke="midnightblue" points="907.966,-29.0758 915.494,-21.6212 904.96,-22.7539 907.966,-29.0758"/>
</g>
<!-- Node35&#45;&gt;Node11 -->
<g id="edge104" class="edge"><title>Node35&#45;&gt;Node11</title>
<path fill="none" stroke="midnightblue" d="M866.484,-62.6826C963.153,-50.6249 1171.33,-24.6585 1249.94,-14.8539"/>
<polygon fill="midnightblue" stroke="midnightblue" points="1250.65,-18.2918 1260.14,-13.5809 1249.79,-11.3456 1250.65,-18.2918"/>
</g>
<!-- Node36 -->
<g id="node89" class="node"><title>Node36</title>
<polygon fill="white" stroke="#bfbfbf" points="808.835,-0.5 808.835,-21.5 886.835,-21.5 886.835,-0.5 808.835,-0.5"/>
<text text-anchor="middle" x="847.835" y="-8.5" font-family="Helvetica,sans-Serif" font-size="10.00">lunaservice.h</text>
</g>
<!-- Node35&#45;&gt;Node36 -->
<g id="edge106" class="edge"><title>Node35&#45;&gt;Node36</title>
<path fill="none" stroke="midnightblue" d="M821.705,-58.3619C825.99,-50.5949 831.922,-39.8426 837.051,-30.5458"/>
<polygon fill="midnightblue" stroke="midnightblue" points="840.237,-32.0172 842.003,-21.5707 834.108,-28.6357 840.237,-32.0172"/>
</g>
<!-- Node37&#45;&gt;Node2 -->
<g id="edge110" class="edge"><title>Node37&#45;&gt;Node2</title>
<path fill="none" stroke="midnightblue" d="M433.419,-63.6227C451.601,-61.7949 472.11,-59.7684 490.835,-58 667.494,-41.3161 716.061,-52.5771 894.059,-22.1021"/>
<polygon fill="midnightblue" stroke="midnightblue" points="894.761,-25.5327 904.016,-20.3772 893.566,-18.6355 894.761,-25.5327"/>
</g>
<!-- Node38 -->
<g id="node94" class="node"><title>Node38</title>
<polygon fill="white" stroke="#bfbfbf" points="322.335,-0.5 322.335,-21.5 427.335,-21.5 427.335,-0.5 322.335,-0.5"/>
<text text-anchor="middle" x="374.835" y="-8.5" font-family="Helvetica,sans-Serif" font-size="10.00">QVariantAnimation</text>
</g>
<!-- Node37&#45;&gt;Node38 -->
<g id="edge112" class="edge"><title>Node37&#45;&gt;Node38</title>
<path fill="none" stroke="midnightblue" d="M379.735,-58.3619C378.965,-50.9219 377.912,-40.7427 376.98,-31.7276"/>
<polygon fill="midnightblue" stroke="midnightblue" points="380.439,-31.1574 375.929,-21.5707 373.477,-31.8777 380.439,-31.1574"/>
</g>
<!-- Node39&#45;&gt;Node2 -->
<g id="edge116" class="edge"><title>Node39&#45;&gt;Node2</title>
<path fill="none" stroke="midnightblue" d="M748.266,-60.3088C751.162,-59.5226 754.052,-58.7431 756.835,-58 815.481,-42.3427 832.447,-38.4526 894.058,-22.4558"/>
<polygon fill="midnightblue" stroke="midnightblue" points="895.114,-25.7977 903.911,-19.8933 893.352,-19.0231 895.114,-25.7977"/>
</g>
<!-- Node39&#45;&gt;Node4 -->
<g id="edge126" class="edge"><title>Node39&#45;&gt;Node4</title>
<path fill="none" stroke="midnightblue" d="M685.406,-60.3028C682.51,-59.5178 679.62,-58.7403 676.835,-58 632.647,-46.2505 582.322,-33.3613 545.646,-24.0573"/>
<polygon fill="midnightblue" stroke="midnightblue" points="546.233,-20.5955 535.68,-21.532 544.514,-27.381 546.233,-20.5955"/>
</g>
<!-- Node39&#45;&gt;Node11 -->
<g id="edge124" class="edge"><title>Node39&#45;&gt;Node11</title>
<path fill="none" stroke="midnightblue" d="M748.156,-59.8167C751.075,-59.1337 754,-58.5127 756.835,-58 942.203,-24.4773 1168.99,-14.4635 1250.15,-11.8373"/>
<polygon fill="midnightblue" stroke="midnightblue" points="1250.3,-15.3345 1260.18,-11.5267 1250.08,-8.33783 1250.3,-15.3345"/>
</g>
<!-- Node39&#45;&gt;Node13 -->
<g id="edge122" class="edge"><title>Node39&#45;&gt;Node13</title>
<path fill="none" stroke="midnightblue" d="M748.13,-59.6591C751.054,-59.0092 753.988,-58.4389 756.835,-58 1178.38,6.97996 1295.25,-92.9128 1715.84,-22 1717.29,-21.7555 1718.76,-21.4691 1720.24,-21.1499"/>
<polygon fill="midnightblue" stroke="midnightblue" points="1721.14,-24.5314 1729.97,-18.6667 1719.41,-17.7488 1721.14,-24.5314"/>
</g>
<!-- Node39&#45;&gt;Node25 -->
<g id="edge120" class="edge"><title>Node39&#45;&gt;Node25</title>
<path fill="none" stroke="midnightblue" d="M748.132,-59.6757C751.056,-59.0223 753.989,-58.4467 756.835,-58 1124.68,-0.269115 1222.79,-53.1175 1593.84,-22 1611.2,-20.5434 1630.42,-18.224 1646.45,-16.0898"/>
<polygon fill="midnightblue" stroke="midnightblue" points="1647.04,-19.5421 1656.48,-14.725 1646.1,-12.6061 1647.04,-19.5421"/>
</g>
<!-- Node40 -->
<g id="node99" class="node"><title>Node40</title>
<polygon fill="white" stroke="#bfbfbf" points="698.835,-0.5 698.835,-21.5 790.835,-21.5 790.835,-0.5 698.835,-0.5"/>
<text text-anchor="middle" x="744.835" y="-8.5" font-family="Helvetica,sans-Serif" font-size="10.00">WindowTypes.h</text>
</g>
<!-- Node39&#45;&gt;Node40 -->
<g id="edge118" class="edge"><title>Node39&#45;&gt;Node40</title>
<path fill="none" stroke="midnightblue" d="M721.971,-58.3619C725.681,-50.6766 730.802,-40.0686 735.257,-30.8399"/>
<polygon fill="midnightblue" stroke="midnightblue" points="738.537,-32.0978 739.732,-21.5707 732.233,-29.0545 738.537,-32.0978"/>
</g>
<!-- Node41 -->
<g id="node105" class="node"><title>Node41</title>
<polygon fill="white" stroke="#bfbfbf" points="636.335,-0.5 636.335,-21.5 681.335,-21.5 681.335,-0.5 636.335,-0.5"/>
<text text-anchor="middle" x="658.835" y="-8.5" font-family="Helvetica,sans-Serif" font-size="10.00">QSize</text>
</g>
<!-- Node39&#45;&gt;Node41 -->
<g id="edge128" class="edge"><title>Node39&#45;&gt;Node41</title>
<path fill="none" stroke="midnightblue" d="M706.197,-58.3619C697.94,-50.1043 686.308,-38.4725 676.638,-28.8029"/>
<polygon fill="midnightblue" stroke="midnightblue" points="678.952,-26.1669 669.406,-21.5707 674.002,-31.1166 678.952,-26.1669"/>
</g>
<!-- Node43&#45;&gt;Node4 -->
<g id="edge138" class="edge"><title>Node43&#45;&gt;Node4</title>
<path fill="none" stroke="midnightblue" d="M641.043,-118.028C587.089,-104.493 491.13,-80.3778 490.835,-80 480.283,-66.4496 482.478,-46.4619 486.459,-31.4822"/>
<polygon fill="midnightblue" stroke="midnightblue" points="489.898,-32.2115 489.517,-21.6235 483.212,-30.1377 489.898,-32.2115"/>
</g>
<!-- Node43&#45;&gt;Node37 -->
<g id="edge140" class="edge"><title>Node43&#45;&gt;Node37</title>
<path fill="none" stroke="midnightblue" d="M640.859,-117.817C638.148,-117.183 635.451,-116.57 632.835,-116 568.63,-102 494.655,-88.5144 443.54,-79.6069"/>
<polygon fill="midnightblue" stroke="midnightblue" points="444.082,-76.1488 433.631,-77.8876 442.886,-83.0458 444.082,-76.1488"/>
</g>
<!-- Node43&#45;&gt;Node39 -->
<g id="edge134" class="edge"><title>Node43&#45;&gt;Node39</title>
<path fill="none" stroke="midnightblue" d="M684.172,-116.362C689.641,-108.431 697.257,-97.3885 703.759,-87.9606"/>
<polygon fill="midnightblue" stroke="midnightblue" points="706.749,-89.7899 709.545,-79.5707 700.987,-85.8157 706.749,-89.7899"/>
</g>
<!-- Node43&#45;&gt;Node42 -->
<g id="edge142" class="edge"><title>Node43&#45;&gt;Node42</title>
<path fill="none" stroke="midnightblue" d="M666.748,-116.362C658.995,-108.186 648.105,-96.7025 638.99,-87.0907"/>
<polygon fill="midnightblue" stroke="midnightblue" points="641.28,-84.4186 631.859,-79.5707 636.201,-89.2352 641.28,-84.4186"/>
</g>
<!-- Node44 -->
<g id="node112" class="node"><title>Node44</title>
<polygon fill="white" stroke="#bfbfbf" points="499.335,-58.5 499.335,-79.5 558.335,-79.5 558.335,-58.5 499.335,-58.5"/>
<text text-anchor="middle" x="528.835" y="-66.5" font-family="Helvetica,sans-Serif" font-size="10.00">QPointer</text>
</g>
<!-- Node43&#45;&gt;Node44 -->
<g id="edge136" class="edge"><title>Node43&#45;&gt;Node44</title>
<path fill="none" stroke="midnightblue" d="M650.034,-116.497C626.397,-107.234 591.735,-93.6499 565.527,-83.3793"/>
<polygon fill="midnightblue" stroke="midnightblue" points="566.525,-80.0113 555.938,-79.6212 563.971,-86.5287 566.525,-80.0113"/>
</g>
</g>
</svg>
