<?xml version="1.0" encoding="UTF-8" standalone="no"?>
<!DOCTYPE svg PUBLIC "-//W3C//DTD SVG 1.1//EN"
 "http://www.w3.org/Graphics/SVG/1.1/DTD/svg11.dtd">
<!-- Generated by graphviz version 2.26.3 (20100126.1600)
 -->
<!-- Title: propertysettingsignaltransition.h Pages: 1 -->
<svg width="388pt" height="88pt"
 viewBox="0.00 0.00 388.00 88.00" xmlns="http://www.w3.org/2000/svg" xmlns:xlink="http://www.w3.org/1999/xlink">
<g id="graph1" class="graph" transform="scale(1 1) rotate(0) translate(4 84)">
<title>propertysettingsignaltransition.h</title>
<polygon fill="white" stroke="white" points="-4,5 -4,-84 385,-84 385,5 -4,5"/>
<!-- Node1 -->
<g id="node1" class="node"><title>Node1</title>
<polygon fill="#bfbfbf" stroke="black" points="70.5,-58.5 70.5,-79.5 237.5,-79.5 237.5,-58.5 70.5,-58.5"/>
<text text-anchor="middle" x="154" y="-66.5" font-family="Helvetica,sans-Serif" font-size="10.00">propertysettingsignaltransition.h</text>
</g>
<!-- Node2 -->
<g id="node3" class="node"><title>Node2</title>
<a xlink:href="quicklaunchbar_8cpp.htm" target="_top" xlink:title="quicklaunchbar.cpp">
<polygon fill="white" stroke="black" points="0,-0.5 0,-21.5 106,-21.5 106,-0.5 0,-0.5"/>
<text text-anchor="middle" x="53" y="-8.5" font-family="Helvetica,sans-Serif" font-size="10.00">quicklaunchbar.cpp</text>
</a>
</g>
<!-- Node1&#45;&gt;Node2 -->
<g id="edge2" class="edge"><title>Node1&#45;&gt;Node2</title>
<path fill="none" stroke="midnightblue" d="M126.798,-53.379C109.248,-43.3011 86.8915,-30.4624 71.4075,-21.5707"/>
<polygon fill="midnightblue" stroke="midnightblue" points="125.06,-56.4171 135.475,-58.3619 128.546,-50.3468 125.06,-56.4171"/>
</g>
<!-- Node3 -->
<g id="node5" class="node"><title>Node3</title>
<a xlink:href="page_8cpp.htm" target="_top" xlink:title="page.cpp">
<polygon fill="white" stroke="black" points="124,-0.5 124,-21.5 184,-21.5 184,-0.5 124,-0.5"/>
<text text-anchor="middle" x="154" y="-8.5" font-family="Helvetica,sans-Serif" font-size="10.00">page.cpp</text>
</a>
</g>
<!-- Node1&#45;&gt;Node3 -->
<g id="edge4" class="edge"><title>Node1&#45;&gt;Node3</title>
<path fill="none" stroke="midnightblue" d="M154,-48.1906C154,-39.1684 154,-28.9941 154,-21.5707"/>
<polygon fill="midnightblue" stroke="midnightblue" points="150.5,-48.3619 154,-58.3619 157.5,-48.3619 150.5,-48.3619"/>
</g>
<!-- Node4 -->
<g id="node7" class="node"><title>Node4</title>
<a xlink:href="propertysettingsignaltransition_8cpp.htm" target="_top" xlink:title="propertysettingsignaltransition.cpp">
<polygon fill="white" stroke="black" points="201.5,-0.5 201.5,-21.5 380.5,-21.5 380.5,-0.5 201.5,-0.5"/>
<text text-anchor="middle" x="291" y="-8.5" font-family="Helvetica,sans-Serif" font-size="10.00">propertysettingsignaltransition.cpp</text>
</a>
</g>
<!-- Node1&#45;&gt;Node4 -->
<g id="edge6" class="edge"><title>Node1&#45;&gt;Node4</title>
<path fill="none" stroke="midnightblue" d="M188.299,-54.4794C212.415,-44.2695 244.14,-30.8386 265.912,-21.6212"/>
<polygon fill="midnightblue" stroke="midnightblue" points="186.654,-51.3749 178.81,-58.4966 189.383,-57.821 186.654,-51.3749"/>
</g>
</g>
</svg>
