<?xml version="1.0" encoding="UTF-8" standalone="no"?>
<!DOCTYPE svg PUBLIC "-//W3C//DTD SVG 1.1//EN"
 "http://www.w3.org/Graphics/SVG/1.1/DTD/svg11.dtd">
<!-- Generated by graphviz version 2.26.3 (20100126.1600)
 -->
<!-- Title: QmlAlertWindow.h Pages: 1 -->
<svg width="844pt" height="262pt"
 viewBox="0.00 0.00 844.00 262.00" xmlns="http://www.w3.org/2000/svg" xmlns:xlink="http://www.w3.org/1999/xlink">
<g id="graph1" class="graph" transform="scale(1 1) rotate(0) translate(4 258)">
<title>QmlAlertWindow.h</title>
<polygon fill="white" stroke="white" points="-4,5 -4,-258 841,-258 841,5 -4,5"/>
<!-- Node1 -->
<g id="node1" class="node"><title>Node1</title>
<polygon fill="#bfbfbf" stroke="black" points="146.5,-232.5 146.5,-253.5 249.5,-253.5 249.5,-232.5 146.5,-232.5"/>
<text text-anchor="middle" x="198" y="-240.5" font-family="Helvetica,sans-Serif" font-size="10.00">QmlAlertWindow.h</text>
</g>
<!-- Node2 -->
<g id="node3" class="node"><title>Node2</title>
<polygon fill="white" stroke="#bfbfbf" points="-0.5,-0.5 -0.5,-21.5 66.5,-21.5 66.5,-0.5 -0.5,-0.5"/>
<text text-anchor="middle" x="33" y="-8.5" font-family="Helvetica,sans-Serif" font-size="10.00">Common.h</text>
</g>
<!-- Node1&#45;&gt;Node2 -->
<g id="edge2" class="edge"><title>Node1&#45;&gt;Node2</title>
<path fill="none" stroke="midnightblue" d="M187.752,-232.23C164.17,-207.074 105.089,-141.88 66,-80 56.0705,-64.2813 47.131,-45.1163 41.0689,-30.9768"/>
<polygon fill="midnightblue" stroke="midnightblue" points="44.274,-29.569 37.1903,-21.6904 37.8148,-32.2669 44.274,-29.569"/>
</g>
<!-- Node3 -->
<g id="node5" class="node"><title>Node3</title>
<a xlink:href="AlertWindow_8h.htm" target="_top" xlink:title="AlertWindow.h">
<polygon fill="white" stroke="black" points="322,-174.5 322,-195.5 406,-195.5 406,-174.5 322,-174.5"/>
<text text-anchor="middle" x="364" y="-182.5" font-family="Helvetica,sans-Serif" font-size="10.00">AlertWindow.h</text>
</a>
</g>
<!-- Node1&#45;&gt;Node3 -->
<g id="edge4" class="edge"><title>Node1&#45;&gt;Node3</title>
<path fill="none" stroke="midnightblue" d="M228.061,-232.497C255.007,-223.082 294.728,-209.204 324.282,-198.877"/>
<polygon fill="midnightblue" stroke="midnightblue" points="325.596,-202.126 333.882,-195.523 323.287,-195.517 325.596,-202.126"/>
</g>
<!-- Node3&#45;&gt;Node2 -->
<g id="edge6" class="edge"><title>Node3&#45;&gt;Node2</title>
<path fill="none" stroke="midnightblue" d="M321.916,-175.113C266.353,-160.665 167.137,-129.933 95,-80 75.2965,-66.3614 57.5519,-45.2666 46.1456,-29.9908"/>
<polygon fill="midnightblue" stroke="midnightblue" points="48.8938,-27.8183 40.1953,-21.7695 43.2232,-31.9225 48.8938,-27.8183"/>
</g>
<!-- Node4 -->
<g id="node8" class="node"><title>Node4</title>
<polygon fill="white" stroke="#bfbfbf" points="476.5,-116.5 476.5,-137.5 519.5,-137.5 519.5,-116.5 476.5,-116.5"/>
<text text-anchor="middle" x="498" y="-124.5" font-family="Helvetica,sans-Serif" font-size="10.00">sptr.h</text>
</g>
<!-- Node3&#45;&gt;Node4 -->
<g id="edge8" class="edge"><title>Node3&#45;&gt;Node4</title>
<path fill="none" stroke="midnightblue" d="M388.266,-174.497C410.274,-164.971 442.838,-150.876 466.779,-140.514"/>
<polygon fill="midnightblue" stroke="midnightblue" points="468.346,-143.649 476.133,-136.465 465.565,-137.225 468.346,-143.649"/>
</g>
<!-- Node5 -->
<g id="node10" class="node"><title>Node5</title>
<a xlink:href="Window_8h.htm" target="_top" xlink:title="Window.h">
<polygon fill="white" stroke="black" points="368,-58.5 368,-79.5 430,-79.5 430,-58.5 368,-58.5"/>
<text text-anchor="middle" x="399" y="-66.5" font-family="Helvetica,sans-Serif" font-size="10.00">Window.h</text>
</a>
</g>
<!-- Node3&#45;&gt;Node5 -->
<g id="edge10" class="edge"><title>Node3&#45;&gt;Node5</title>
<path fill="none" stroke="midnightblue" d="M357.483,-174.329C349.889,-160.431 339.41,-135.597 348,-116 353.325,-103.852 363.51,-93.4564 373.387,-85.554"/>
<polygon fill="midnightblue" stroke="midnightblue" points="375.564,-88.2965 381.497,-79.5188 371.385,-82.6807 375.564,-88.2965"/>
</g>
<!-- Node12 -->
<g id="node25" class="node"><title>Node12</title>
<a xlink:href="HostWindow_8h.htm" target="_top" xlink:title="HostWindow.h">
<polygon fill="white" stroke="black" points="357,-116.5 357,-137.5 441,-137.5 441,-116.5 357,-116.5"/>
<text text-anchor="middle" x="399" y="-124.5" font-family="Helvetica,sans-Serif" font-size="10.00">HostWindow.h</text>
</a>
</g>
<!-- Node3&#45;&gt;Node12 -->
<g id="edge26" class="edge"><title>Node3&#45;&gt;Node12</title>
<path fill="none" stroke="midnightblue" d="M370.42,-174.362C375.156,-166.513 381.732,-155.616 387.382,-146.253"/>
<polygon fill="midnightblue" stroke="midnightblue" points="390.451,-147.941 392.621,-137.571 384.458,-144.324 390.451,-147.941"/>
</g>
<!-- Node20 -->
<g id="node46" class="node"><title>Node20</title>
<polygon fill="white" stroke="#bfbfbf" points="537,-116.5 537,-137.5 589,-137.5 589,-116.5 537,-116.5"/>
<text text-anchor="middle" x="563" y="-124.5" font-family="Helvetica,sans-Serif" font-size="10.00">Event.h</text>
</g>
<!-- Node3&#45;&gt;Node20 -->
<g id="edge52" class="edge"><title>Node3&#45;&gt;Node20</title>
<path fill="none" stroke="midnightblue" d="M401.86,-174.444C433.071,-165.677 478.731,-152.7 526.97,-138.266"/>
<polygon fill="midnightblue" stroke="midnightblue" points="528.077,-141.588 536.649,-135.361 526.065,-134.884 528.077,-141.588"/>
</g>
<!-- Node5&#45;&gt;Node2 -->
<g id="edge12" class="edge"><title>Node5&#45;&gt;Node2</title>
<path fill="none" stroke="midnightblue" d="M367.976,-65.673C311.753,-59.3918 189.136,-44.5398 76.9746,-22.2519"/>
<polygon fill="midnightblue" stroke="midnightblue" points="77.3439,-18.7561 66.8498,-20.2136 75.9623,-25.6184 77.3439,-18.7561"/>
</g>
<!-- Node6 -->
<g id="node13" class="node"><title>Node6</title>
<polygon fill="white" stroke="#bfbfbf" points="264,-0.5 264,-21.5 356,-21.5 356,-0.5 264,-0.5"/>
<text text-anchor="middle" x="310" y="-8.5" font-family="Helvetica,sans-Serif" font-size="10.00">WindowTypes.h</text>
</g>
<!-- Node5&#45;&gt;Node6 -->
<g id="edge14" class="edge"><title>Node5&#45;&gt;Node6</title>
<path fill="none" stroke="midnightblue" d="M382.676,-58.3619C369.252,-49.6138 350.017,-37.0786 334.707,-27.1015"/>
<polygon fill="midnightblue" stroke="midnightblue" points="336.509,-24.0982 326.22,-21.5707 332.688,-29.9628 336.509,-24.0982"/>
</g>
<!-- Node7 -->
<g id="node15" class="node"><title>Node7</title>
<polygon fill="white" stroke="#bfbfbf" points="374,-0.5 374,-21.5 424,-21.5 424,-0.5 374,-0.5"/>
<text text-anchor="middle" x="399" y="-8.5" font-family="Helvetica,sans-Serif" font-size="10.00">stdint.h</text>
</g>
<!-- Node5&#45;&gt;Node7 -->
<g id="edge16" class="edge"><title>Node5&#45;&gt;Node7</title>
<path fill="none" stroke="midnightblue" d="M399,-58.3619C399,-50.9219 399,-40.7427 399,-31.7276"/>
<polygon fill="midnightblue" stroke="midnightblue" points="402.5,-31.5706 399,-21.5707 395.5,-31.5707 402.5,-31.5706"/>
</g>
<!-- Node8 -->
<g id="node17" class="node"><title>Node8</title>
<polygon fill="white" stroke="#bfbfbf" points="677.5,-0.5 677.5,-21.5 720.5,-21.5 720.5,-0.5 677.5,-0.5"/>
<text text-anchor="middle" x="699" y="-8.5" font-family="Helvetica,sans-Serif" font-size="10.00">string</text>
</g>
<!-- Node5&#45;&gt;Node8 -->
<g id="edge18" class="edge"><title>Node5&#45;&gt;Node8</title>
<path fill="none" stroke="midnightblue" d="M430.36,-60.0153C433.271,-59.2906 436.183,-58.6057 439,-58 536.993,-36.9275 566.973,-47.2364 667.272,-22.1"/>
<polygon fill="midnightblue" stroke="midnightblue" points="668.385,-25.428 677.202,-19.5545 666.646,-18.6472 668.385,-25.428"/>
</g>
<!-- Node9 -->
<g id="node19" class="node"><title>Node9</title>
<polygon fill="white" stroke="#bfbfbf" points="441.5,-0.5 441.5,-21.5 482.5,-21.5 482.5,-0.5 441.5,-0.5"/>
<text text-anchor="middle" x="462" y="-8.5" font-family="Helvetica,sans-Serif" font-size="10.00">glib.h</text>
</g>
<!-- Node5&#45;&gt;Node9 -->
<g id="edge20" class="edge"><title>Node5&#45;&gt;Node9</title>
<path fill="none" stroke="midnightblue" d="M410.555,-58.3619C419.613,-50.0226 432.41,-38.2418 442.974,-28.5162"/>
<polygon fill="midnightblue" stroke="midnightblue" points="445.532,-30.9187 450.518,-21.5707 440.79,-25.7688 445.532,-30.9187"/>
</g>
<!-- Node10 -->
<g id="node21" class="node"><title>Node10</title>
<polygon fill="white" stroke="#bfbfbf" points="500,-0.5 500,-21.5 598,-21.5 598,-0.5 500,-0.5"/>
<text text-anchor="middle" x="549" y="-8.5" font-family="Helvetica,sans-Serif" font-size="10.00">QGraphicsObject</text>
</g>
<!-- Node5&#45;&gt;Node10 -->
<g id="edge22" class="edge"><title>Node5&#45;&gt;Node10</title>
<path fill="none" stroke="midnightblue" d="M426.164,-58.4966C450.3,-49.1639 485.781,-35.4447 512.412,-25.1475"/>
<polygon fill="midnightblue" stroke="midnightblue" points="513.72,-28.394 521.785,-21.5231 511.196,-21.8651 513.72,-28.394"/>
</g>
<!-- Node11 -->
<g id="node23" class="node"><title>Node11</title>
<polygon fill="white" stroke="#bfbfbf" points="615.5,-0.5 615.5,-21.5 660.5,-21.5 660.5,-0.5 615.5,-0.5"/>
<text text-anchor="middle" x="638" y="-8.5" font-family="Helvetica,sans-Serif" font-size="10.00">QSize</text>
</g>
<!-- Node5&#45;&gt;Node11 -->
<g id="edge24" class="edge"><title>Node5&#45;&gt;Node11</title>
<path fill="none" stroke="midnightblue" d="M430.399,-60.1827C433.301,-59.4229 436.201,-58.684 439,-58 510.135,-40.6123 531.769,-42.6059 605.648,-22.1451"/>
<polygon fill="midnightblue" stroke="midnightblue" points="606.745,-25.4725 615.422,-19.3933 604.848,-18.7344 606.745,-25.4725"/>
</g>
<!-- Node12&#45;&gt;Node2 -->
<g id="edge28" class="edge"><title>Node12&#45;&gt;Node2</title>
<path fill="none" stroke="midnightblue" d="M356.8,-124.428C304.361,-120.099 212.896,-108.789 140,-80 107.44,-67.141 74.2146,-43.7841 53.6087,-27.8399"/>
<polygon fill="midnightblue" stroke="midnightblue" points="55.6076,-24.9589 45.5889,-21.5127 51.2719,-30.4545 55.6076,-24.9589"/>
</g>
<!-- Node12&#45;&gt;Node5 -->
<g id="edge30" class="edge"><title>Node12&#45;&gt;Node5</title>
<path fill="none" stroke="midnightblue" d="M399,-116.362C399,-108.922 399,-98.7427 399,-89.7276"/>
<polygon fill="midnightblue" stroke="midnightblue" points="402.5,-89.5706 399,-79.5707 395.5,-89.5707 402.5,-89.5706"/>
</g>
<!-- Node12&#45;&gt;Node12 -->
<g id="edge32" class="edge"><title>Node12&#45;&gt;Node12</title>
<path fill="none" stroke="midnightblue" d="M429.563,-137.524C445.083,-139.061 459,-135.553 459,-127 459,-120.385 450.675,-116.788 439.722,-116.208"/>
<polygon fill="midnightblue" stroke="midnightblue" points="439.467,-112.714 429.563,-116.476 439.652,-119.711 439.467,-112.714"/>
</g>
<!-- Node13 -->
<g id="node30" class="node"><title>Node13</title>
<a xlink:href="HostWindowData_8h.htm" target="_top" xlink:title="HostWindowData.h">
<polygon fill="white" stroke="black" points="148.5,-58.5 148.5,-79.5 255.5,-79.5 255.5,-58.5 148.5,-58.5"/>
<text text-anchor="middle" x="202" y="-66.5" font-family="Helvetica,sans-Serif" font-size="10.00">HostWindowData.h</text>
</a>
</g>
<!-- Node12&#45;&gt;Node13 -->
<g id="edge34" class="edge"><title>Node12&#45;&gt;Node13</title>
<path fill="none" stroke="midnightblue" d="M363.325,-116.497C330.93,-106.959 282.977,-92.8408 247.769,-82.475"/>
<polygon fill="midnightblue" stroke="midnightblue" points="248.324,-78.9899 237.742,-79.5231 246.346,-85.7049 248.324,-78.9899"/>
</g>
<!-- Node16 -->
<g id="node37" class="node"><title>Node16</title>
<a xlink:href="InputClient_8h.htm" target="_top" xlink:title="InputClient.h">
<polygon fill="white" stroke="black" points="447.5,-58.5 447.5,-79.5 522.5,-79.5 522.5,-58.5 447.5,-58.5"/>
<text text-anchor="middle" x="485" y="-66.5" font-family="Helvetica,sans-Serif" font-size="10.00">InputClient.h</text>
</a>
</g>
<!-- Node12&#45;&gt;Node16 -->
<g id="edge42" class="edge"><title>Node12&#45;&gt;Node16</title>
<path fill="none" stroke="midnightblue" d="M414.774,-116.362C427.624,-107.696 445.985,-95.3126 460.71,-85.3819"/>
<polygon fill="midnightblue" stroke="midnightblue" points="462.993,-88.0639 469.326,-79.5707 459.079,-82.2604 462.993,-88.0639"/>
</g>
<!-- Node18 -->
<g id="node42" class="node"><title>Node18</title>
<polygon fill="white" stroke="#bfbfbf" points="540,-58.5 540,-79.5 614,-79.5 614,-58.5 540,-58.5"/>
<text text-anchor="middle" x="577" y="-66.5" font-family="Helvetica,sans-Serif" font-size="10.00">PIpcBuffer.h</text>
</g>
<!-- Node12&#45;&gt;Node18 -->
<g id="edge48" class="edge"><title>Node12&#45;&gt;Node18</title>
<path fill="none" stroke="midnightblue" d="M431.234,-116.497C460.253,-107.041 503.09,-93.0829 534.824,-82.7428"/>
<polygon fill="midnightblue" stroke="midnightblue" points="536.281,-85.949 544.705,-79.5231 534.113,-79.2934 536.281,-85.949"/>
</g>
<!-- Node19 -->
<g id="node44" class="node"><title>Node19</title>
<polygon fill="white" stroke="#bfbfbf" points="632,-58.5 632,-79.5 756,-79.5 756,-58.5 632,-58.5"/>
<text text-anchor="middle" x="694" y="-66.5" font-family="Helvetica,sans-Serif" font-size="10.00">PIpcChannelListener.h</text>
</g>
<!-- Node12&#45;&gt;Node19 -->
<g id="edge50" class="edge"><title>Node12&#45;&gt;Node19</title>
<path fill="none" stroke="midnightblue" d="M441.266,-118.69C490.788,-108.954 573.331,-92.7247 630.549,-81.4752"/>
<polygon fill="midnightblue" stroke="midnightblue" points="631.431,-84.8687 640.568,-79.5052 630.081,-78.0002 631.431,-84.8687"/>
</g>
<!-- Node13&#45;&gt;Node2 -->
<g id="edge36" class="edge"><title>Node13&#45;&gt;Node2</title>
<path fill="none" stroke="midnightblue" d="M171.395,-58.4966C143.963,-49.082 103.524,-35.2036 73.4356,-24.8773"/>
<polygon fill="midnightblue" stroke="midnightblue" points="74.2567,-21.4588 63.662,-21.5231 71.9843,-28.0797 74.2567,-21.4588"/>
</g>
<!-- Node14 -->
<g id="node33" class="node"><title>Node14</title>
<polygon fill="white" stroke="#bfbfbf" points="83.5,-0.5 83.5,-21.5 142.5,-21.5 142.5,-0.5 83.5,-0.5"/>
<text text-anchor="middle" x="113" y="-8.5" font-family="Helvetica,sans-Serif" font-size="10.00">QPixmap</text>
</g>
<!-- Node13&#45;&gt;Node14 -->
<g id="edge38" class="edge"><title>Node13&#45;&gt;Node14</title>
<path fill="none" stroke="midnightblue" d="M185.676,-58.3619C172.252,-49.6138 153.017,-37.0786 137.707,-27.1015"/>
<polygon fill="midnightblue" stroke="midnightblue" points="139.509,-24.0982 129.22,-21.5707 135.688,-29.9628 139.509,-24.0982"/>
</g>
<!-- Node15 -->
<g id="node35" class="node"><title>Node15</title>
<polygon fill="white" stroke="#bfbfbf" points="160,-0.5 160,-21.5 246,-21.5 246,-0.5 160,-0.5"/>
<text text-anchor="middle" x="203" y="-8.5" font-family="Helvetica,sans-Serif" font-size="10.00">PIpcChannel.h</text>
</g>
<!-- Node13&#45;&gt;Node15 -->
<g id="edge40" class="edge"><title>Node13&#45;&gt;Node15</title>
<path fill="none" stroke="midnightblue" d="M202.183,-58.3619C202.312,-50.9219 202.487,-40.7427 202.643,-31.7276"/>
<polygon fill="midnightblue" stroke="midnightblue" points="206.145,-31.6295 202.818,-21.5707 199.146,-31.5088 206.145,-31.6295"/>
</g>
<!-- Node16&#45;&gt;Node8 -->
<g id="edge46" class="edge"><title>Node16&#45;&gt;Node8</title>
<path fill="none" stroke="midnightblue" d="M522.684,-59.8531C564.258,-49.685 629.451,-33.4971 667.492,-22.2324"/>
<polygon fill="midnightblue" stroke="midnightblue" points="668.914,-25.458 677.459,-19.1948 666.873,-18.7621 668.914,-25.458"/>
</g>
<!-- Node17 -->
<g id="node39" class="node"><title>Node17</title>
<polygon fill="white" stroke="#bfbfbf" points="738,-0.5 738,-21.5 836,-21.5 836,-0.5 738,-0.5"/>
<text text-anchor="middle" x="787" y="-8.5" font-family="Helvetica,sans-Serif" font-size="10.00">palmimedefines.h</text>
</g>
<!-- Node16&#45;&gt;Node17 -->
<g id="edge44" class="edge"><title>Node16&#45;&gt;Node17</title>
<path fill="none" stroke="midnightblue" d="M522.618,-59.8268C525.45,-59.1906 528.268,-58.5746 531,-58 615.451,-40.2392 639.397,-38.4429 728.007,-22.1666"/>
<polygon fill="midnightblue" stroke="midnightblue" points="728.76,-25.5869 737.957,-20.3282 727.488,-18.7034 728.76,-25.5869"/>
</g>
</g>
</svg>
