<?xml version="1.0" encoding="UTF-8" standalone="no"?>
<!DOCTYPE svg PUBLIC "-//W3C//DTD SVG 1.1//EN"
 "http://www.w3.org/Graphics/SVG/1.1/DTD/svg11.dtd">
<!-- Generated by graphviz version 2.26.3 (20100126.1600)
 -->
<!-- Title: QmlInputItem.h Pages: 1 -->
<svg width="274pt" height="146pt"
 viewBox="0.00 0.00 274.00 146.00" xmlns="http://www.w3.org/2000/svg" xmlns:xlink="http://www.w3.org/1999/xlink">
<g id="graph1" class="graph" transform="scale(1 1) rotate(0) translate(4 142)">
<title>QmlInputItem.h</title>
<polygon fill="white" stroke="white" points="-4,5 -4,-142 271,-142 271,5 -4,5"/>
<!-- Node1 -->
<g id="node1" class="node"><title>Node1</title>
<polygon fill="#bfbfbf" stroke="black" points="69.5,-116.5 69.5,-137.5 156.5,-137.5 156.5,-116.5 69.5,-116.5"/>
<text text-anchor="middle" x="113" y="-124.5" font-family="Helvetica,sans-Serif" font-size="10.00">QmlInputItem.h</text>
</g>
<!-- Node2 -->
<g id="node3" class="node"><title>Node2</title>
<polygon fill="white" stroke="#bfbfbf" points="-0.5,-58.5 -0.5,-79.5 58.5,-79.5 58.5,-58.5 -0.5,-58.5"/>
<text text-anchor="middle" x="29" y="-66.5" font-family="Helvetica,sans-Serif" font-size="10.00">qglobal.h</text>
</g>
<!-- Node1&#45;&gt;Node2 -->
<g id="edge2" class="edge"><title>Node1&#45;&gt;Node2</title>
<path fill="none" stroke="midnightblue" d="M97.5931,-116.362C85.0418,-107.696 67.1078,-95.3126 52.7255,-85.3819"/>
<polygon fill="midnightblue" stroke="midnightblue" points="54.5269,-82.3725 44.3092,-79.5707 50.5495,-88.1327 54.5269,-82.3725"/>
</g>
<!-- Node3 -->
<g id="node5" class="node"><title>Node3</title>
<a xlink:href="InputClient_8h.htm" target="_top" xlink:title="InputClient.h">
<polygon fill="white" stroke="black" points="75.5,-58.5 75.5,-79.5 150.5,-79.5 150.5,-58.5 75.5,-58.5"/>
<text text-anchor="middle" x="113" y="-66.5" font-family="Helvetica,sans-Serif" font-size="10.00">InputClient.h</text>
</a>
</g>
<!-- Node1&#45;&gt;Node3 -->
<g id="edge4" class="edge"><title>Node1&#45;&gt;Node3</title>
<path fill="none" stroke="midnightblue" d="M113,-116.362C113,-108.922 113,-98.7427 113,-89.7276"/>
<polygon fill="midnightblue" stroke="midnightblue" points="116.5,-89.5706 113,-79.5707 109.5,-89.5707 116.5,-89.5706"/>
</g>
<!-- Node6 -->
<g id="node11" class="node"><title>Node6</title>
<polygon fill="white" stroke="#bfbfbf" points="168,-58.5 168,-79.5 266,-79.5 266,-58.5 168,-58.5"/>
<text text-anchor="middle" x="217" y="-66.5" font-family="Helvetica,sans-Serif" font-size="10.00">QDeclarativeItem</text>
</g>
<!-- Node1&#45;&gt;Node6 -->
<g id="edge10" class="edge"><title>Node1&#45;&gt;Node6</title>
<path fill="none" stroke="midnightblue" d="M132.075,-116.362C148.055,-107.45 171.081,-94.6087 189.127,-84.5447"/>
<polygon fill="midnightblue" stroke="midnightblue" points="191.017,-87.4982 198.046,-79.5707 187.607,-81.3846 191.017,-87.4982"/>
</g>
<!-- Node4 -->
<g id="node7" class="node"><title>Node4</title>
<polygon fill="white" stroke="#bfbfbf" points="20,-0.5 20,-21.5 118,-21.5 118,-0.5 20,-0.5"/>
<text text-anchor="middle" x="69" y="-8.5" font-family="Helvetica,sans-Serif" font-size="10.00">palmimedefines.h</text>
</g>
<!-- Node3&#45;&gt;Node4 -->
<g id="edge6" class="edge"><title>Node3&#45;&gt;Node4</title>
<path fill="none" stroke="midnightblue" d="M104.93,-58.3619C98.8514,-50.3496 90.3631,-39.1605 83.1631,-29.6696"/>
<polygon fill="midnightblue" stroke="midnightblue" points="85.8514,-27.4222 77.0191,-21.5707 80.2746,-31.653 85.8514,-27.4222"/>
</g>
<!-- Node5 -->
<g id="node9" class="node"><title>Node5</title>
<polygon fill="white" stroke="#bfbfbf" points="135.5,-0.5 135.5,-21.5 178.5,-21.5 178.5,-0.5 135.5,-0.5"/>
<text text-anchor="middle" x="157" y="-8.5" font-family="Helvetica,sans-Serif" font-size="10.00">string</text>
</g>
<!-- Node3&#45;&gt;Node5 -->
<g id="edge8" class="edge"><title>Node3&#45;&gt;Node5</title>
<path fill="none" stroke="midnightblue" d="M121.07,-58.3619C127.149,-50.3496 135.637,-39.1605 142.837,-29.6696"/>
<polygon fill="midnightblue" stroke="midnightblue" points="145.725,-31.653 148.981,-21.5707 140.149,-27.4222 145.725,-31.653"/>
</g>
</g>
</svg>
