<?xml version="1.0" encoding="UTF-8" standalone="no"?>
<!DOCTYPE svg PUBLIC "-//W3C//DTD SVG 1.1//EN"
 "http://www.w3.org/Graphics/SVG/1.1/DTD/svg11.dtd">
<!-- Generated by graphviz version 2.26.3 (20100126.1600)
 -->
<!-- Title: QtHostWindow.cpp Pages: 1 -->
<svg width="2643pt" height="436pt"
 viewBox="0.00 0.00 2643.00 436.00" xmlns="http://www.w3.org/2000/svg" xmlns:xlink="http://www.w3.org/1999/xlink">
<g id="graph1" class="graph" transform="scale(1 1) rotate(0) translate(4 432)">
<title>QtHostWindow.cpp</title>
<polygon fill="white" stroke="white" points="-4,5 -4,-432 2640,-432 2640,5 -4,5"/>
<!-- Node1 -->
<g id="node1" class="node"><title>Node1</title>
<polygon fill="#bfbfbf" stroke="black" points="2429.5,-406.5 2429.5,-427.5 2536.5,-427.5 2536.5,-406.5 2429.5,-406.5"/>
<text text-anchor="middle" x="2483" y="-414.5" font-family="Helvetica,sans-Serif" font-size="10.00">QtHostWindow.cpp</text>
</g>
<!-- Node2 -->
<g id="node3" class="node"><title>Node2</title>
<polygon fill="white" stroke="#bfbfbf" points="1268.5,-0.5 1268.5,-21.5 1335.5,-21.5 1335.5,-0.5 1268.5,-0.5"/>
<text text-anchor="middle" x="1302" y="-8.5" font-family="Helvetica,sans-Serif" font-size="10.00">Common.h</text>
</g>
<!-- Node1&#45;&gt;Node2 -->
<g id="edge2" class="edge"><title>Node1&#45;&gt;Node2</title>
<path fill="none" stroke="midnightblue" d="M2483,-406.444C2483,-386.062 2483,-339.868 2483,-301 2483,-301 2483,-301 2483,-127 2483,-57.2321 2409.6,-75.2697 2342,-58 2244.62,-33.1217 1531.32,-15.9933 1345.93,-11.9291"/>
<polygon fill="midnightblue" stroke="midnightblue" points="1345.81,-8.42584 1335.74,-11.7073 1345.66,-15.4242 1345.81,-8.42584"/>
</g>
<!-- Node3 -->
<g id="node5" class="node"><title>Node3</title>
<a xlink:href="QtHostWindow_8h.htm" target="_top" xlink:title="QtHostWindow.h">
<polygon fill="white" stroke="black" points="2360.5,-348.5 2360.5,-369.5 2455.5,-369.5 2455.5,-348.5 2360.5,-348.5"/>
<text text-anchor="middle" x="2408" y="-356.5" font-family="Helvetica,sans-Serif" font-size="10.00">QtHostWindow.h</text>
</a>
</g>
<!-- Node1&#45;&gt;Node3 -->
<g id="edge4" class="edge"><title>Node1&#45;&gt;Node3</title>
<path fill="none" stroke="midnightblue" d="M2469.24,-406.362C2458.25,-397.859 2442.63,-385.779 2429.91,-375.947"/>
<polygon fill="midnightblue" stroke="midnightblue" points="2431.72,-372.919 2421.67,-369.571 2427.44,-378.457 2431.72,-372.919"/>
</g>
<!-- Node50 -->
<g id="node124" class="node"><title>Node50</title>
<polygon fill="white" stroke="#bfbfbf" points="2510.5,-348.5 2510.5,-369.5 2635.5,-369.5 2635.5,-348.5 2510.5,-348.5"/>
<text text-anchor="middle" x="2573" y="-356.5" font-family="Helvetica,sans-Serif" font-size="10.00">PIpcMessageMacros.h</text>
</g>
<!-- Node1&#45;&gt;Node50 -->
<g id="edge148" class="edge"><title>Node1&#45;&gt;Node50</title>
<path fill="none" stroke="midnightblue" d="M2499.51,-406.362C2513.08,-397.614 2532.53,-385.079 2548.01,-375.101"/>
<polygon fill="midnightblue" stroke="midnightblue" points="2550.09,-377.93 2556.6,-369.571 2546.3,-372.046 2550.09,-377.93"/>
</g>
<!-- Node3&#45;&gt;Node2 -->
<g id="edge6" class="edge"><title>Node3&#45;&gt;Node2</title>
<path fill="none" stroke="midnightblue" d="M2413.78,-348.485C2424.19,-328.543 2445,-283.586 2445,-243 2445,-243 2445,-243 2445,-127 2445,-25.7974 2327.58,-76.0473 2228,-58 2055.55,-26.7471 1506.53,-14.6566 1346.3,-11.7412"/>
<polygon fill="midnightblue" stroke="midnightblue" points="1345.94,-8.23431 1335.88,-11.5546 1345.81,-15.2332 1345.94,-8.23431"/>
</g>
<!-- Node4 -->
<g id="node8" class="node"><title>Node4</title>
<a xlink:href="CardHostWindow_8h.htm" target="_top" xlink:title="CardHostWindow.h">
<polygon fill="white" stroke="black" points="2283.5,-290.5 2283.5,-311.5 2390.5,-311.5 2390.5,-290.5 2283.5,-290.5"/>
<text text-anchor="middle" x="2337" y="-298.5" font-family="Helvetica,sans-Serif" font-size="10.00">CardHostWindow.h</text>
</a>
</g>
<!-- Node3&#45;&gt;Node4 -->
<g id="edge8" class="edge"><title>Node3&#45;&gt;Node4</title>
<path fill="none" stroke="midnightblue" d="M2394.98,-348.362C2384.57,-339.859 2369.78,-327.779 2357.74,-317.947"/>
<polygon fill="midnightblue" stroke="midnightblue" points="2359.9,-315.187 2349.94,-311.571 2355.47,-320.608 2359.9,-315.187"/>
</g>
<!-- Node4&#45;&gt;Node2 -->
<g id="edge10" class="edge"><title>Node4&#45;&gt;Node2</title>
<path fill="none" stroke="midnightblue" d="M2337,-290.444C2337,-270.062 2337,-223.868 2337,-185 2337,-185 2337,-185 2337,-127 2337,-25.6324 1542.81,-12.8452 1345.81,-11.2326"/>
<polygon fill="midnightblue" stroke="midnightblue" points="1345.58,-7.73086 1335.56,-11.1545 1345.53,-14.7307 1345.58,-7.73086"/>
</g>
<!-- Node5 -->
<g id="node11" class="node"><title>Node5</title>
<a xlink:href="CardWindow_8h.htm" target="_top" xlink:title="CardWindow.h">
<polygon fill="white" stroke="black" points="1557,-232.5 1557,-253.5 1643,-253.5 1643,-232.5 1557,-232.5"/>
<text text-anchor="middle" x="1600" y="-240.5" font-family="Helvetica,sans-Serif" font-size="10.00">CardWindow.h</text>
</a>
</g>
<!-- Node4&#45;&gt;Node5 -->
<g id="edge12" class="edge"><title>Node4&#45;&gt;Node5</title>
<path fill="none" stroke="midnightblue" d="M2283.4,-296.782C2147.33,-286.073 1789.67,-257.927 1653.6,-247.218"/>
<polygon fill="midnightblue" stroke="midnightblue" points="1653.66,-243.713 1643.42,-246.417 1653.12,-250.691 1653.66,-243.713"/>
</g>
<!-- Node48 -->
<g id="node119" class="node"><title>Node48</title>
<a xlink:href="AnimationEquations_8h.htm" target="_top" xlink:title="AnimationEquations.h">
<polygon fill="white" stroke="black" points="2191,-232.5 2191,-253.5 2309,-253.5 2309,-232.5 2191,-232.5"/>
<text text-anchor="middle" x="2250" y="-240.5" font-family="Helvetica,sans-Serif" font-size="10.00">AnimationEquations.h</text>
</a>
</g>
<!-- Node4&#45;&gt;Node48 -->
<g id="edge142" class="edge"><title>Node4&#45;&gt;Node48</title>
<path fill="none" stroke="midnightblue" d="M2321.04,-290.362C2308.04,-281.696 2289.47,-269.313 2274.57,-259.382"/>
<polygon fill="midnightblue" stroke="midnightblue" points="2276.12,-256.206 2265.86,-253.571 2272.24,-262.03 2276.12,-256.206"/>
</g>
<!-- Node49 -->
<g id="node122" class="node"><title>Node49</title>
<polygon fill="white" stroke="#bfbfbf" points="2365,-232.5 2365,-253.5 2417,-253.5 2417,-232.5 2365,-232.5"/>
<text text-anchor="middle" x="2391" y="-240.5" font-family="Helvetica,sans-Serif" font-size="10.00">Timer.h</text>
</g>
<!-- Node4&#45;&gt;Node49 -->
<g id="edge146" class="edge"><title>Node4&#45;&gt;Node49</title>
<path fill="none" stroke="midnightblue" d="M2346.9,-290.362C2354.52,-282.186 2365.21,-270.702 2374.16,-261.091"/>
<polygon fill="midnightblue" stroke="midnightblue" points="2376.91,-263.275 2381.16,-253.571 2371.78,-258.505 2376.91,-263.275"/>
</g>
<!-- Node5&#45;&gt;Node2 -->
<g id="edge14" class="edge"><title>Node5&#45;&gt;Node2</title>
<path fill="none" stroke="midnightblue" d="M1643.2,-242.672C1768.77,-241.275 2127.08,-233.967 2162,-196 2168.62,-188.804 2168.24,-181.53 2162,-174 2056.35,-46.4395 1507.04,-17.9304 1346.26,-12.2767"/>
<polygon fill="midnightblue" stroke="midnightblue" points="1345.91,-8.76311 1335.8,-11.9223 1345.67,-15.7591 1345.91,-8.76311"/>
</g>
<!-- Node6 -->
<g id="node14" class="node"><title>Node6</title>
<polygon fill="white" stroke="#bfbfbf" points="2208.5,-174.5 2208.5,-195.5 2271.5,-195.5 2271.5,-174.5 2208.5,-174.5"/>
<text text-anchor="middle" x="2240" y="-182.5" font-family="Helvetica,sans-Serif" font-size="10.00">Settings.h</text>
</g>
<!-- Node5&#45;&gt;Node6 -->
<g id="edge16" class="edge"><title>Node5&#45;&gt;Node6</title>
<path fill="none" stroke="midnightblue" d="M1643.22,-241.966C1741.7,-239.093 1990.13,-228.912 2195,-196 2196.07,-195.828 2197.16,-195.643 2198.25,-195.448"/>
<polygon fill="midnightblue" stroke="midnightblue" points="2199.06,-198.855 2208.17,-193.451 2197.68,-191.993 2199.06,-198.855"/>
</g>
<!-- Node7 -->
<g id="node16" class="node"><title>Node7</title>
<polygon fill="white" stroke="#bfbfbf" points="410,-116.5 410,-137.5 462,-137.5 462,-116.5 410,-116.5"/>
<text text-anchor="middle" x="436" y="-124.5" font-family="Helvetica,sans-Serif" font-size="10.00">Event.h</text>
</g>
<!-- Node5&#45;&gt;Node7 -->
<g id="edge18" class="edge"><title>Node5&#45;&gt;Node7</title>
<path fill="none" stroke="midnightblue" d="M1556.87,-241.901C1439.72,-238.586 1105.84,-226.935 830,-196 671.562,-178.232 631.747,-172.074 476,-138 474.734,-137.723 473.447,-137.43 472.151,-137.126"/>
<polygon fill="midnightblue" stroke="midnightblue" points="472.702,-133.656 462.151,-134.619 471,-140.446 472.702,-133.656"/>
</g>
<!-- Node8 -->
<g id="node18" class="node"><title>Node8</title>
<a xlink:href="HostWindow_8h.htm" target="_top" xlink:title="HostWindow.h">
<polygon fill="white" stroke="black" points="290,-116.5 290,-137.5 374,-137.5 374,-116.5 290,-116.5"/>
<text text-anchor="middle" x="332" y="-124.5" font-family="Helvetica,sans-Serif" font-size="10.00">HostWindow.h</text>
</a>
</g>
<!-- Node5&#45;&gt;Node8 -->
<g id="edge20" class="edge"><title>Node5&#45;&gt;Node8</title>
<path fill="none" stroke="midnightblue" d="M1556.75,-241.786C1395.76,-237.124 831.408,-219.444 653,-196 555.565,-183.196 443.781,-156.344 381.165,-140.172"/>
<polygon fill="midnightblue" stroke="midnightblue" points="381.734,-136.704 371.175,-137.575 379.973,-143.479 381.734,-136.704"/>
</g>
<!-- Node23 -->
<g id="node53" class="node"><title>Node23</title>
<polygon fill="white" stroke="#bfbfbf" points="973,-174.5 973,-195.5 1115,-195.5 1115,-174.5 973,-174.5"/>
<text text-anchor="middle" x="1044" y="-182.5" font-family="Helvetica,sans-Serif" font-size="10.00">AppLaunchOptionsEvent.h</text>
</g>
<!-- Node5&#45;&gt;Node23 -->
<g id="edge60" class="edge"><title>Node5&#45;&gt;Node23</title>
<path fill="none" stroke="midnightblue" d="M1556.77,-239.112C1473.77,-231.554 1286.37,-214.03 1129,-196 1127.89,-195.873 1126.77,-195.744 1125.65,-195.613"/>
<polygon fill="midnightblue" stroke="midnightblue" points="1125.75,-192.1 1115.4,-194.394 1124.92,-199.051 1125.75,-192.1"/>
</g>
<!-- Node24 -->
<g id="node55" class="node"><title>Node24</title>
<a xlink:href="SystemUiController_8h.htm" target="_top" xlink:title="SystemUiController.h">
<polygon fill="white" stroke="black" points="839,-174.5 839,-195.5 955,-195.5 955,-174.5 839,-174.5"/>
<text text-anchor="middle" x="897" y="-182.5" font-family="Helvetica,sans-Serif" font-size="10.00">SystemUiController.h</text>
</a>
</g>
<!-- Node5&#45;&gt;Node24 -->
<g id="edge62" class="edge"><title>Node5&#45;&gt;Node24</title>
<path fill="none" stroke="midnightblue" d="M1556.69,-241.13C1455.19,-236.463 1193.89,-222.793 965.235,-196.058"/>
<polygon fill="midnightblue" stroke="midnightblue" points="965.401,-192.553 955.06,-194.857 964.581,-199.505 965.401,-192.553"/>
</g>
<!-- Node37 -->
<g id="node92" class="node"><title>Node37</title>
<polygon fill="white" stroke="#bfbfbf" points="1215.5,-58.5 1215.5,-79.5 1274.5,-79.5 1274.5,-58.5 1215.5,-58.5"/>
<text text-anchor="middle" x="1245" y="-66.5" font-family="Helvetica,sans-Serif" font-size="10.00">QPointer</text>
</g>
<!-- Node5&#45;&gt;Node37 -->
<g id="edge132" class="edge"><title>Node5&#45;&gt;Node37</title>
<path fill="none" stroke="midnightblue" d="M1556.66,-241.222C1456.38,-236.662 1215.05,-222.974 1191,-196 1184.49,-188.702 1184.61,-181.405 1191,-174 1262.01,-91.647 1361.99,-220.353 1433,-138 1476.1,-88.0119 1351.89,-74.2182 1284.81,-70.4274"/>
<polygon fill="midnightblue" stroke="midnightblue" points="1284.74,-66.919 1274.57,-69.9008 1284.38,-73.9098 1284.74,-66.919"/>
</g>
<!-- Node38 -->
<g id="node97" class="node"><title>Node38</title>
<polygon fill="white" stroke="#bfbfbf" points="1208.5,-174.5 1208.5,-195.5 1319.5,-195.5 1319.5,-174.5 1208.5,-174.5"/>
<text text-anchor="middle" x="1264" y="-182.5" font-family="Helvetica,sans-Serif" font-size="10.00">WindowProperties.h</text>
</g>
<!-- Node5&#45;&gt;Node38 -->
<g id="edge118" class="edge"><title>Node5&#45;&gt;Node38</title>
<path fill="none" stroke="midnightblue" d="M1556.76,-235.536C1499.19,-225.598 1396.83,-207.929 1329.69,-196.339"/>
<polygon fill="midnightblue" stroke="midnightblue" points="1330.09,-192.856 1319.64,-194.604 1328.9,-199.754 1330.09,-192.856"/>
</g>
<!-- Node39 -->
<g id="node99" class="node"><title>Node39</title>
<polygon fill="white" stroke="#bfbfbf" points="1337,-174.5 1337,-195.5 1493,-195.5 1493,-174.5 1337,-174.5"/>
<text text-anchor="middle" x="1415" y="-182.5" font-family="Helvetica,sans-Serif" font-size="10.00">QGraphicsSceneMouseEvent</text>
</g>
<!-- Node5&#45;&gt;Node39 -->
<g id="edge120" class="edge"><title>Node5&#45;&gt;Node39</title>
<path fill="none" stroke="midnightblue" d="M1566.5,-232.497C1536.21,-223 1491.43,-208.962 1458.41,-198.609"/>
<polygon fill="midnightblue" stroke="midnightblue" points="1459.15,-195.175 1448.56,-195.523 1457.06,-201.854 1459.15,-195.175"/>
</g>
<!-- Node40 -->
<g id="node101" class="node"><title>Node40</title>
<polygon fill="white" stroke="#bfbfbf" points="1510.5,-174.5 1510.5,-195.5 1591.5,-195.5 1591.5,-174.5 1510.5,-174.5"/>
<text text-anchor="middle" x="1551" y="-182.5" font-family="Helvetica,sans-Serif" font-size="10.00">QTouchEvent</text>
</g>
<!-- Node5&#45;&gt;Node40 -->
<g id="edge122" class="edge"><title>Node5&#45;&gt;Node40</title>
<path fill="none" stroke="midnightblue" d="M1591.01,-232.362C1584.17,-224.268 1574.6,-212.932 1566.53,-203.38"/>
<polygon fill="midnightblue" stroke="midnightblue" points="1569.06,-200.951 1559.93,-195.571 1563.71,-205.468 1569.06,-200.951"/>
</g>
<!-- Node41 -->
<g id="node103" class="node"><title>Node41</title>
<polygon fill="white" stroke="#bfbfbf" points="1609,-174.5 1609,-195.5 1689,-195.5 1689,-174.5 1609,-174.5"/>
<text text-anchor="middle" x="1649" y="-182.5" font-family="Helvetica,sans-Serif" font-size="10.00">QPainterPath</text>
</g>
<!-- Node5&#45;&gt;Node41 -->
<g id="edge124" class="edge"><title>Node5&#45;&gt;Node41</title>
<path fill="none" stroke="midnightblue" d="M1608.99,-232.362C1615.83,-224.268 1625.4,-212.932 1633.47,-203.38"/>
<polygon fill="midnightblue" stroke="midnightblue" points="1636.29,-205.468 1640.07,-195.571 1630.94,-200.951 1636.29,-205.468"/>
</g>
<!-- Node42 -->
<g id="node105" class="node"><title>Node42</title>
<polygon fill="white" stroke="#bfbfbf" points="1706.5,-174.5 1706.5,-195.5 1765.5,-195.5 1765.5,-174.5 1706.5,-174.5"/>
<text text-anchor="middle" x="1736" y="-182.5" font-family="Helvetica,sans-Serif" font-size="10.00">QPainter</text>
</g>
<!-- Node5&#45;&gt;Node42 -->
<g id="edge126" class="edge"><title>Node5&#45;&gt;Node42</title>
<path fill="none" stroke="midnightblue" d="M1624.63,-232.497C1646.16,-223.315 1677.64,-209.889 1701.64,-199.652"/>
<polygon fill="midnightblue" stroke="midnightblue" points="1703.27,-202.764 1711.1,-195.621 1700.52,-196.325 1703.27,-202.764"/>
</g>
<!-- Node43 -->
<g id="node107" class="node"><title>Node43</title>
<polygon fill="white" stroke="#bfbfbf" points="1782.5,-174.5 1782.5,-195.5 1851.5,-195.5 1851.5,-174.5 1782.5,-174.5"/>
<text text-anchor="middle" x="1817" y="-182.5" font-family="Helvetica,sans-Serif" font-size="10.00">QVector3D</text>
</g>
<!-- Node5&#45;&gt;Node43 -->
<g id="edge128" class="edge"><title>Node5&#45;&gt;Node43</title>
<path fill="none" stroke="midnightblue" d="M1639.3,-232.497C1676.82,-222.466 1733.31,-207.37 1772.48,-196.9"/>
<polygon fill="midnightblue" stroke="midnightblue" points="1773.53,-200.241 1782.29,-194.277 1771.73,-193.478 1773.53,-200.241"/>
</g>
<!-- Node44 -->
<g id="node109" class="node"><title>Node44</title>
<polygon fill="white" stroke="#bfbfbf" points="1869,-174.5 1869,-195.5 1943,-195.5 1943,-174.5 1869,-174.5"/>
<text text-anchor="middle" x="1906" y="-182.5" font-family="Helvetica,sans-Serif" font-size="10.00">QTransform</text>
</g>
<!-- Node5&#45;&gt;Node44 -->
<g id="edge130" class="edge"><title>Node5&#45;&gt;Node44</title>
<path fill="none" stroke="midnightblue" d="M1643.39,-235.919C1693.1,-227.637 1777.23,-213.107 1858.93,-196.144"/>
<polygon fill="midnightblue" stroke="midnightblue" points="1859.81,-199.537 1868.88,-194.064 1858.38,-192.685 1859.81,-199.537"/>
</g>
<!-- Node45 -->
<g id="node112" class="node"><title>Node45</title>
<polygon fill="white" stroke="#bfbfbf" points="1961,-174.5 1961,-195.5 2073,-195.5 2073,-174.5 1961,-174.5"/>
<text text-anchor="middle" x="2017" y="-182.5" font-family="Helvetica,sans-Serif" font-size="10.00">QPropertyAnimation</text>
</g>
<!-- Node5&#45;&gt;Node45 -->
<g id="edge134" class="edge"><title>Node5&#45;&gt;Node45</title>
<path fill="none" stroke="midnightblue" d="M1643.15,-237.731C1707.71,-229.74 1833.52,-213.751 1950.45,-196.199"/>
<polygon fill="midnightblue" stroke="midnightblue" points="1951.28,-199.612 1960.65,-194.66 1950.24,-192.691 1951.28,-199.612"/>
</g>
<!-- Node46 -->
<g id="node114" class="node"><title>Node46</title>
<polygon fill="white" stroke="#bfbfbf" points="2091,-174.5 2091,-195.5 2153,-195.5 2153,-174.5 2091,-174.5"/>
<text text-anchor="middle" x="2122" y="-182.5" font-family="Helvetica,sans-Serif" font-size="10.00">QGesture</text>
</g>
<!-- Node5&#45;&gt;Node46 -->
<g id="edge136" class="edge"><title>Node5&#45;&gt;Node46</title>
<path fill="none" stroke="midnightblue" d="M1643.22,-241.267C1726.35,-237.399 1914.28,-226.065 2080.75,-195.98"/>
<polygon fill="midnightblue" stroke="midnightblue" points="2081.47,-199.407 2090.67,-194.16 2080.21,-192.522 2081.47,-199.407"/>
</g>
<!-- Node47 -->
<g id="node116" class="node"><title>Node47</title>
<a xlink:href="CardRoundedCornerShaderStage_8h.htm" target="_top" xlink:title="CardRoundedCornerShaderStage.h">
<polygon fill="white" stroke="black" points="1480,-116.5 1480,-137.5 1666,-137.5 1666,-116.5 1480,-116.5"/>
<text text-anchor="middle" x="1573" y="-124.5" font-family="Helvetica,sans-Serif" font-size="10.00">CardRoundedCornerShaderStage.h</text>
</a>
</g>
<!-- Node5&#45;&gt;Node47 -->
<g id="edge138" class="edge"><title>Node5&#45;&gt;Node47</title>
<path fill="none" stroke="midnightblue" d="M1556.88,-241.113C1458.37,-236.36 1223.44,-222.352 1200,-196 1193.5,-188.694 1193.53,-181.333 1200,-174 1204.49,-168.904 1361.02,-150.546 1469.85,-138.338"/>
<polygon fill="midnightblue" stroke="midnightblue" points="1470.35,-141.804 1479.9,-137.213 1469.57,-134.848 1470.35,-141.804"/>
</g>
<!-- Node8&#45;&gt;Node2 -->
<g id="edge22" class="edge"><title>Node8&#45;&gt;Node2</title>
<path fill="none" stroke="midnightblue" d="M374.268,-119.826C383.087,-118.451 392.336,-117.1 401,-116 569.294,-94.6354 619.422,-131.691 781,-80 799.587,-74.0537 800.42,-63.97 819,-58 900.231,-31.8988 1155.27,-17.6785 1258.24,-12.8779"/>
<polygon fill="midnightblue" stroke="midnightblue" points="1258.47,-16.3712 1268.3,-12.4165 1258.15,-9.37852 1258.47,-16.3712"/>
</g>
<!-- Node8&#45;&gt;Node8 -->
<g id="edge40" class="edge"><title>Node8&#45;&gt;Node8</title>
<path fill="none" stroke="midnightblue" d="M362.563,-137.524C378.083,-139.061 392,-135.553 392,-127 392,-120.385 383.675,-116.788 372.722,-116.208"/>
<polygon fill="midnightblue" stroke="midnightblue" points="372.467,-112.714 362.563,-116.476 372.652,-119.711 372.467,-112.714"/>
</g>
<!-- Node9 -->
<g id="node21" class="node"><title>Node9</title>
<a xlink:href="Window_8h.htm" target="_top" xlink:title="Window.h">
<polygon fill="white" stroke="black" points="710,-58.5 710,-79.5 772,-79.5 772,-58.5 710,-58.5"/>
<text text-anchor="middle" x="741" y="-66.5" font-family="Helvetica,sans-Serif" font-size="10.00">Window.h</text>
</a>
</g>
<!-- Node8&#45;&gt;Node9 -->
<g id="edge24" class="edge"><title>Node8&#45;&gt;Node9</title>
<path fill="none" stroke="midnightblue" d="M374.29,-119.993C383.108,-118.607 392.35,-117.208 401,-116 530.752,-97.8792 567.448,-105.479 699.561,-80.0637"/>
<polygon fill="midnightblue" stroke="midnightblue" points="700.518,-83.4432 709.662,-78.0927 699.177,-76.5728 700.518,-83.4432"/>
</g>
<!-- Node16 -->
<g id="node37" class="node"><title>Node16</title>
<a xlink:href="HostWindowData_8h.htm" target="_top" xlink:title="HostWindowData.h">
<polygon fill="white" stroke="black" points="73.5,-58.5 73.5,-79.5 180.5,-79.5 180.5,-58.5 73.5,-58.5"/>
<text text-anchor="middle" x="127" y="-66.5" font-family="Helvetica,sans-Serif" font-size="10.00">HostWindowData.h</text>
</a>
</g>
<!-- Node8&#45;&gt;Node16 -->
<g id="edge42" class="edge"><title>Node8&#45;&gt;Node16</title>
<path fill="none" stroke="midnightblue" d="M294.876,-116.497C261.021,-106.918 210.836,-92.7196 174.156,-82.3418"/>
<polygon fill="midnightblue" stroke="midnightblue" points="174.769,-78.8777 164.194,-79.5231 172.863,-85.6133 174.769,-78.8777"/>
</g>
<!-- Node19 -->
<g id="node44" class="node"><title>Node19</title>
<a xlink:href="InputClient_8h.htm" target="_top" xlink:title="InputClient.h">
<polygon fill="white" stroke="black" points="197.5,-58.5 197.5,-79.5 272.5,-79.5 272.5,-58.5 197.5,-58.5"/>
<text text-anchor="middle" x="235" y="-66.5" font-family="Helvetica,sans-Serif" font-size="10.00">InputClient.h</text>
</a>
</g>
<!-- Node8&#45;&gt;Node19 -->
<g id="edge50" class="edge"><title>Node8&#45;&gt;Node19</title>
<path fill="none" stroke="midnightblue" d="M314.209,-116.362C299.441,-107.532 278.222,-94.844 261.462,-84.8224"/>
<polygon fill="midnightblue" stroke="midnightblue" points="263.057,-81.6987 252.679,-79.5707 259.465,-87.7066 263.057,-81.6987"/>
</g>
<!-- Node21 -->
<g id="node49" class="node"><title>Node21</title>
<polygon fill="white" stroke="#bfbfbf" points="290,-58.5 290,-79.5 364,-79.5 364,-58.5 290,-58.5"/>
<text text-anchor="middle" x="327" y="-66.5" font-family="Helvetica,sans-Serif" font-size="10.00">PIpcBuffer.h</text>
</g>
<!-- Node8&#45;&gt;Node21 -->
<g id="edge56" class="edge"><title>Node8&#45;&gt;Node21</title>
<path fill="none" stroke="midnightblue" d="M331.083,-116.362C330.442,-108.922 329.564,-98.7427 328.787,-89.7276"/>
<polygon fill="midnightblue" stroke="midnightblue" points="332.257,-89.2331 327.911,-79.5707 325.283,-89.8343 332.257,-89.2331"/>
</g>
<!-- Node22 -->
<g id="node51" class="node"><title>Node22</title>
<polygon fill="white" stroke="#bfbfbf" points="382,-58.5 382,-79.5 506,-79.5 506,-58.5 382,-58.5"/>
<text text-anchor="middle" x="444" y="-66.5" font-family="Helvetica,sans-Serif" font-size="10.00">PIpcChannelListener.h</text>
</g>
<!-- Node8&#45;&gt;Node22 -->
<g id="edge58" class="edge"><title>Node8&#45;&gt;Node22</title>
<path fill="none" stroke="midnightblue" d="M352.282,-116.497C369.618,-107.519 394.79,-94.4835 414.38,-84.3387"/>
<polygon fill="midnightblue" stroke="midnightblue" points="416.22,-87.3278 423.49,-79.6212 413.001,-81.1118 416.22,-87.3278"/>
</g>
<!-- Node9&#45;&gt;Node2 -->
<g id="edge26" class="edge"><title>Node9&#45;&gt;Node2</title>
<path fill="none" stroke="midnightblue" d="M772.348,-60.7057C776.905,-59.6843 781.558,-58.741 786,-58 959.472,-29.0631 1168.94,-16.9121 1258.24,-12.7855"/>
<polygon fill="midnightblue" stroke="midnightblue" points="1258.44,-16.28 1268.27,-12.3325 1258.13,-9.28716 1258.44,-16.28"/>
</g>
<!-- Node10 -->
<g id="node24" class="node"><title>Node10</title>
<polygon fill="white" stroke="#bfbfbf" points="738,-0.5 738,-21.5 830,-21.5 830,-0.5 738,-0.5"/>
<text text-anchor="middle" x="784" y="-8.5" font-family="Helvetica,sans-Serif" font-size="10.00">WindowTypes.h</text>
</g>
<!-- Node9&#45;&gt;Node10 -->
<g id="edge28" class="edge"><title>Node9&#45;&gt;Node10</title>
<path fill="none" stroke="midnightblue" d="M748.887,-58.3619C754.827,-50.3496 763.122,-39.1605 770.159,-29.6696"/>
<polygon fill="midnightblue" stroke="midnightblue" points="773.019,-31.6883 776.163,-21.5707 767.396,-27.5193 773.019,-31.6883"/>
</g>
<!-- Node11 -->
<g id="node26" class="node"><title>Node11</title>
<polygon fill="white" stroke="#bfbfbf" points="604,-0.5 604,-21.5 654,-21.5 654,-0.5 604,-0.5"/>
<text text-anchor="middle" x="629" y="-8.5" font-family="Helvetica,sans-Serif" font-size="10.00">stdint.h</text>
</g>
<!-- Node9&#45;&gt;Node11 -->
<g id="edge30" class="edge"><title>Node9&#45;&gt;Node11</title>
<path fill="none" stroke="midnightblue" d="M720.718,-58.4966C703.382,-49.5194 678.21,-36.4835 658.62,-26.3387"/>
<polygon fill="midnightblue" stroke="midnightblue" points="659.999,-23.1118 649.51,-21.6212 656.78,-29.3278 659.999,-23.1118"/>
</g>
<!-- Node12 -->
<g id="node28" class="node"><title>Node12</title>
<polygon fill="white" stroke="#bfbfbf" points="527.5,-0.5 527.5,-21.5 570.5,-21.5 570.5,-0.5 527.5,-0.5"/>
<text text-anchor="middle" x="549" y="-8.5" font-family="Helvetica,sans-Serif" font-size="10.00">string</text>
</g>
<!-- Node9&#45;&gt;Node12 -->
<g id="edge32" class="edge"><title>Node9&#45;&gt;Node12</title>
<path fill="none" stroke="midnightblue" d="M709.725,-59.5522C674.134,-48.8009 616.327,-31.3384 580.601,-20.5462"/>
<polygon fill="midnightblue" stroke="midnightblue" points="581.295,-17.0995 570.71,-17.5582 579.27,-23.8005 581.295,-17.0995"/>
</g>
<!-- Node13 -->
<g id="node30" class="node"><title>Node13</title>
<polygon fill="white" stroke="#bfbfbf" points="855.5,-0.5 855.5,-21.5 896.5,-21.5 896.5,-0.5 855.5,-0.5"/>
<text text-anchor="middle" x="876" y="-8.5" font-family="Helvetica,sans-Serif" font-size="10.00">glib.h</text>
</g>
<!-- Node9&#45;&gt;Node13 -->
<g id="edge34" class="edge"><title>Node9&#45;&gt;Node13</title>
<path fill="none" stroke="midnightblue" d="M765.447,-58.4966C788.02,-48.7989 821.616,-34.365 845.845,-23.9556"/>
<polygon fill="midnightblue" stroke="midnightblue" points="847.466,-27.0684 855.272,-19.9052 844.703,-20.6369 847.466,-27.0684"/>
</g>
<!-- Node14 -->
<g id="node32" class="node"><title>Node14</title>
<polygon fill="white" stroke="#bfbfbf" points="964,-0.5 964,-21.5 1062,-21.5 1062,-0.5 964,-0.5"/>
<text text-anchor="middle" x="1013" y="-8.5" font-family="Helvetica,sans-Serif" font-size="10.00">QGraphicsObject</text>
</g>
<!-- Node9&#45;&gt;Node14 -->
<g id="edge36" class="edge"><title>Node9&#45;&gt;Node14</title>
<path fill="none" stroke="midnightblue" d="M772.438,-61.1642C776.982,-60.0755 781.607,-58.9914 786,-58 842.754,-45.1922 907.799,-31.8615 953.672,-22.6829"/>
<polygon fill="midnightblue" stroke="midnightblue" points="954.618,-26.0633 963.739,-20.6737 953.248,-19.1987 954.618,-26.0633"/>
</g>
<!-- Node15 -->
<g id="node34" class="node"><title>Node15</title>
<polygon fill="white" stroke="#bfbfbf" points="675.5,-0.5 675.5,-21.5 720.5,-21.5 720.5,-0.5 675.5,-0.5"/>
<text text-anchor="middle" x="698" y="-8.5" font-family="Helvetica,sans-Serif" font-size="10.00">QSize</text>
</g>
<!-- Node9&#45;&gt;Node15 -->
<g id="edge38" class="edge"><title>Node9&#45;&gt;Node15</title>
<path fill="none" stroke="midnightblue" d="M733.113,-58.3619C727.173,-50.3496 718.878,-39.1605 711.841,-29.6696"/>
<polygon fill="midnightblue" stroke="midnightblue" points="714.604,-27.5193 705.837,-21.5707 708.981,-31.6883 714.604,-27.5193"/>
</g>
<!-- Node16&#45;&gt;Node2 -->
<g id="edge44" class="edge"><title>Node16&#45;&gt;Node2</title>
<path fill="none" stroke="midnightblue" d="M180.705,-59.0151C183.505,-58.6375 186.283,-58.2951 189,-58 579.032,-15.6358 679.057,-39.3306 1071,-22 1136.26,-19.1145 1211.87,-15.4538 1258.32,-13.1686"/>
<polygon fill="midnightblue" stroke="midnightblue" points="1258.52,-16.6628 1268.34,-12.6747 1258.18,-9.67132 1258.52,-16.6628"/>
</g>
<!-- Node17 -->
<g id="node40" class="node"><title>Node17</title>
<polygon fill="white" stroke="#bfbfbf" points="103.5,-0.5 103.5,-21.5 162.5,-21.5 162.5,-0.5 103.5,-0.5"/>
<text text-anchor="middle" x="133" y="-8.5" font-family="Helvetica,sans-Serif" font-size="10.00">QPixmap</text>
</g>
<!-- Node16&#45;&gt;Node17 -->
<g id="edge46" class="edge"><title>Node16&#45;&gt;Node17</title>
<path fill="none" stroke="midnightblue" d="M128.1,-58.3619C128.87,-50.9219 129.923,-40.7427 130.856,-31.7276"/>
<polygon fill="midnightblue" stroke="midnightblue" points="134.359,-31.8777 131.906,-21.5707 127.396,-31.1574 134.359,-31.8777"/>
</g>
<!-- Node18 -->
<g id="node42" class="node"><title>Node18</title>
<polygon fill="white" stroke="#bfbfbf" points="0,-0.5 0,-21.5 86,-21.5 86,-0.5 0,-0.5"/>
<text text-anchor="middle" x="43" y="-8.5" font-family="Helvetica,sans-Serif" font-size="10.00">PIpcChannel.h</text>
</g>
<!-- Node16&#45;&gt;Node18 -->
<g id="edge48" class="edge"><title>Node16&#45;&gt;Node18</title>
<path fill="none" stroke="midnightblue" d="M111.593,-58.3619C99.0418,-49.6955 81.1078,-37.3126 66.7255,-27.3819"/>
<polygon fill="midnightblue" stroke="midnightblue" points="68.5269,-24.3725 58.3092,-21.5707 64.5495,-30.1327 68.5269,-24.3725"/>
</g>
<!-- Node19&#45;&gt;Node12 -->
<g id="edge54" class="edge"><title>Node19&#45;&gt;Node12</title>
<path fill="none" stroke="midnightblue" d="M272.614,-59.8076C275.447,-59.1758 278.266,-58.566 281,-58 366.074,-40.3853 467.235,-23.8218 517.457,-15.8908"/>
<polygon fill="midnightblue" stroke="midnightblue" points="518.042,-19.342 527.377,-14.3321 516.955,-12.4269 518.042,-19.342"/>
</g>
<!-- Node20 -->
<g id="node46" class="node"><title>Node20</title>
<polygon fill="white" stroke="#bfbfbf" points="186,-0.5 186,-21.5 284,-21.5 284,-0.5 186,-0.5"/>
<text text-anchor="middle" x="235" y="-8.5" font-family="Helvetica,sans-Serif" font-size="10.00">palmimedefines.h</text>
</g>
<!-- Node19&#45;&gt;Node20 -->
<g id="edge52" class="edge"><title>Node19&#45;&gt;Node20</title>
<path fill="none" stroke="midnightblue" d="M235,-58.3619C235,-50.9219 235,-40.7427 235,-31.7276"/>
<polygon fill="midnightblue" stroke="midnightblue" points="238.5,-31.5706 235,-21.5707 231.5,-31.5707 238.5,-31.5706"/>
</g>
<!-- Node24&#45;&gt;Node2 -->
<g id="edge64" class="edge"><title>Node24&#45;&gt;Node2</title>
<path fill="none" stroke="midnightblue" d="M954.024,-174.458C1010.25,-163.826 1092.11,-147.645 1123,-138 1146.95,-130.521 1151.52,-124.863 1175,-116 1222.34,-98.129 1248.18,-116.713 1283,-80 1295.31,-67.0138 1299.79,-46.7972 1301.34,-31.5977"/>
<polygon fill="midnightblue" stroke="midnightblue" points="1304.84,-31.8085 1302.03,-21.5919 1297.85,-31.3282 1304.84,-31.8085"/>
</g>
<!-- Node24&#45;&gt;Node7 -->
<g id="edge90" class="edge"><title>Node24&#45;&gt;Node7</title>
<path fill="none" stroke="midnightblue" d="M838.682,-181.399C757.016,-175.697 604.198,-162.625 476,-138 474.727,-137.755 473.435,-137.491 472.133,-137.21"/>
<polygon fill="midnightblue" stroke="midnightblue" points="472.651,-133.736 462.111,-134.814 471.023,-140.544 472.651,-133.736"/>
</g>
<!-- Node24&#45;&gt;Node9 -->
<g id="edge102" class="edge"><title>Node24&#45;&gt;Node9</title>
<path fill="none" stroke="midnightblue" d="M899.591,-174.351C902.514,-159.565 905.288,-132.748 892,-116 878.264,-98.687 822.09,-84.5622 782.285,-76.4624"/>
<polygon fill="midnightblue" stroke="midnightblue" points="782.79,-72.9945 772.3,-74.4859 781.43,-79.8613 782.79,-72.9945"/>
</g>
<!-- Node24&#45;&gt;Node12 -->
<g id="edge66" class="edge"><title>Node24&#45;&gt;Node12</title>
<path fill="none" stroke="midnightblue" d="M838.813,-179.978C733.205,-170.584 519.815,-150.204 509,-138 494.751,-121.921 522.284,-62.2338 538.435,-30.7443"/>
<polygon fill="midnightblue" stroke="midnightblue" points="541.682,-32.0862 543.211,-21.6022 535.478,-28.8446 541.682,-32.0862"/>
</g>
<!-- Node25 -->
<g id="node59" class="node"><title>Node25</title>
<polygon fill="white" stroke="#bfbfbf" points="1184,-116.5 1184,-137.5 1236,-137.5 1236,-116.5 1184,-116.5"/>
<text text-anchor="middle" x="1210" y="-124.5" font-family="Helvetica,sans-Serif" font-size="10.00">QEvent</text>
</g>
<!-- Node24&#45;&gt;Node25 -->
<g id="edge68" class="edge"><title>Node24&#45;&gt;Node25</title>
<path fill="none" stroke="midnightblue" d="M955.213,-175.29C1029.09,-162.919 1149.43,-142.587 1170,-138 1171.27,-137.718 1172.55,-137.421 1173.85,-137.113"/>
<polygon fill="midnightblue" stroke="midnightblue" points="1175,-140.431 1183.84,-134.588 1173.29,-133.644 1175,-140.431"/>
</g>
<!-- Node26 -->
<g id="node61" class="node"><title>Node26</title>
<polygon fill="white" stroke="#bfbfbf" points="1254,-116.5 1254,-137.5 1324,-137.5 1324,-116.5 1254,-116.5"/>
<text text-anchor="middle" x="1289" y="-124.5" font-family="Helvetica,sans-Serif" font-size="10.00">QKeyEvent</text>
</g>
<!-- Node24&#45;&gt;Node26 -->
<g id="edge70" class="edge"><title>Node24&#45;&gt;Node26</title>
<path fill="none" stroke="midnightblue" d="M955.085,-175.335C958.099,-174.874 961.084,-174.426 964,-174 1085.42,-156.26 1119.55,-161.044 1243.65,-138.097"/>
<polygon fill="midnightblue" stroke="midnightblue" points="1244.35,-141.527 1253.54,-136.246 1243.06,-134.646 1244.35,-141.527"/>
</g>
<!-- Node27 -->
<g id="node63" class="node"><title>Node27</title>
<polygon fill="white" stroke="#bfbfbf" points="1341.5,-116.5 1341.5,-137.5 1424.5,-137.5 1424.5,-116.5 1341.5,-116.5"/>
<text text-anchor="middle" x="1383" y="-124.5" font-family="Helvetica,sans-Serif" font-size="10.00">QMouseEvent</text>
</g>
<!-- Node24&#45;&gt;Node27 -->
<g id="edge72" class="edge"><title>Node24&#45;&gt;Node27</title>
<path fill="none" stroke="midnightblue" d="M955.07,-175.227C958.088,-174.794 961.078,-174.382 964,-174 1124.2,-153.058 1168.53,-163.327 1331.45,-138.107"/>
<polygon fill="midnightblue" stroke="midnightblue" points="1331.99,-141.565 1341.33,-136.557 1330.91,-134.65 1331.99,-141.565"/>
</g>
<!-- Node28 -->
<g id="node65" class="node"><title>Node28</title>
<polygon fill="white" stroke="#bfbfbf" points="517.5,-116.5 517.5,-137.5 572.5,-137.5 572.5,-116.5 517.5,-116.5"/>
<text text-anchor="middle" x="545" y="-124.5" font-family="Helvetica,sans-Serif" font-size="10.00">QObject</text>
</g>
<!-- Node24&#45;&gt;Node28 -->
<g id="edge74" class="edge"><title>Node24&#45;&gt;Node28</title>
<path fill="none" stroke="midnightblue" d="M838.859,-178.982C777.278,-172.02 677.134,-159.025 582.791,-138.184"/>
<polygon fill="midnightblue" stroke="midnightblue" points="583.322,-134.716 572.798,-135.941 581.789,-141.546 583.322,-134.716"/>
</g>
<!-- Node29 -->
<g id="node67" class="node"><title>Node29</title>
<polygon fill="white" stroke="#bfbfbf" points="589.5,-116.5 589.5,-137.5 636.5,-137.5 636.5,-116.5 589.5,-116.5"/>
<text text-anchor="middle" x="613" y="-124.5" font-family="Helvetica,sans-Serif" font-size="10.00">QRect</text>
</g>
<!-- Node24&#45;&gt;Node29 -->
<g id="edge76" class="edge"><title>Node24&#45;&gt;Node29</title>
<path fill="none" stroke="midnightblue" d="M838.916,-176.648C789.801,-169.026 717.482,-156.49 646.632,-138.183"/>
<polygon fill="midnightblue" stroke="midnightblue" points="647.208,-134.716 636.647,-135.561 645.43,-141.486 647.208,-134.716"/>
</g>
<!-- Node30 -->
<g id="node69" class="node"><title>Node30</title>
<polygon fill="white" stroke="#bfbfbf" points="653.5,-116.5 653.5,-137.5 746.5,-137.5 746.5,-116.5 653.5,-116.5"/>
<text text-anchor="middle" x="700" y="-124.5" font-family="Helvetica,sans-Serif" font-size="10.00">QSharedPointer</text>
</g>
<!-- Node24&#45;&gt;Node30 -->
<g id="edge78" class="edge"><title>Node24&#45;&gt;Node30</title>
<path fill="none" stroke="midnightblue" d="M861.325,-174.497C828.93,-164.959 780.977,-150.841 745.769,-140.475"/>
<polygon fill="midnightblue" stroke="midnightblue" points="746.324,-136.99 735.742,-137.523 744.346,-143.705 746.324,-136.99"/>
</g>
<!-- Node31 -->
<g id="node71" class="node"><title>Node31</title>
<polygon fill="white" stroke="#bfbfbf" points="764,-116.5 764,-137.5 850,-137.5 850,-116.5 764,-116.5"/>
<text text-anchor="middle" x="807" y="-124.5" font-family="Helvetica,sans-Serif" font-size="10.00">QWeakPointer</text>
</g>
<!-- Node24&#45;&gt;Node31 -->
<g id="edge80" class="edge"><title>Node24&#45;&gt;Node31</title>
<path fill="none" stroke="midnightblue" d="M880.493,-174.362C866.918,-165.614 847.467,-153.079 831.985,-143.101"/>
<polygon fill="midnightblue" stroke="midnightblue" points="833.704,-140.046 823.403,-137.571 829.912,-145.93 833.704,-140.046"/>
</g>
<!-- Node32 -->
<g id="node73" class="node"><title>Node32</title>
<a xlink:href="ApplicationDescription_8h.htm" target="_top" xlink:title="ApplicationDescription.h">
<polygon fill="white" stroke="red" points="562,-58.5 562,-79.5 692,-79.5 692,-58.5 562,-58.5"/>
<text text-anchor="middle" x="627" y="-66.5" font-family="Helvetica,sans-Serif" font-size="10.00">ApplicationDescription.h</text>
</a>
</g>
<!-- Node24&#45;&gt;Node32 -->
<g id="edge82" class="edge"><title>Node24&#45;&gt;Node32</title>
<path fill="none" stroke="midnightblue" d="M894.263,-174.477C889.684,-159.08 878.948,-130.656 859,-116 846.249,-106.631 764.872,-91.5246 702.057,-80.9746"/>
<polygon fill="midnightblue" stroke="midnightblue" points="702.587,-77.5148 692.148,-79.3221 701.436,-84.4195 702.587,-77.5148"/>
</g>
<!-- Node33 -->
<g id="node79" class="node"><title>Node33</title>
<a xlink:href="SuspendBlocker_8h.htm" target="_top" xlink:title="SuspendBlocker.h">
<polygon fill="white" stroke="red" points="827.5,-58.5 827.5,-79.5 928.5,-79.5 928.5,-58.5 827.5,-58.5"/>
<text text-anchor="middle" x="878" y="-66.5" font-family="Helvetica,sans-Serif" font-size="10.00">SuspendBlocker.h</text>
</a>
</g>
<!-- Node24&#45;&gt;Node33 -->
<g id="edge92" class="edge"><title>Node24&#45;&gt;Node33</title>
<path fill="none" stroke="midnightblue" d="M908.321,-174.331C921.187,-160.846 939.27,-136.874 930,-116 924.598,-103.836 914.32,-93.4865 904.318,-85.6217"/>
<polygon fill="midnightblue" stroke="midnightblue" points="906.235,-82.6872 896.095,-79.6143 902.105,-88.3395 906.235,-82.6872"/>
</g>
<!-- Node34 -->
<g id="node83" class="node"><title>Node34</title>
<a xlink:href="VariantAnimation_8h.htm" target="_top" xlink:title="VariantAnimation.h">
<polygon fill="white" stroke="red" points="1093.5,-58.5 1093.5,-79.5 1198.5,-79.5 1198.5,-58.5 1093.5,-58.5"/>
<text text-anchor="middle" x="1146" y="-66.5" font-family="Helvetica,sans-Serif" font-size="10.00">VariantAnimation.h</text>
</a>
</g>
<!-- Node24&#45;&gt;Node34 -->
<g id="edge98" class="edge"><title>Node24&#45;&gt;Node34</title>
<path fill="none" stroke="midnightblue" d="M951.288,-174.487C1006.86,-163.39 1086.78,-146.37 1099,-138 1116.65,-125.903 1129.58,-104.806 1137.36,-89.1154"/>
<polygon fill="midnightblue" stroke="midnightblue" points="1140.68,-90.2771 1141.72,-79.734 1134.33,-87.3236 1140.68,-90.2771"/>
</g>
<!-- Node35 -->
<g id="node87" class="node"><title>Node35</title>
<polygon fill="white" stroke="#bfbfbf" points="946,-58.5 946,-79.5 1038,-79.5 1038,-58.5 946,-58.5"/>
<text text-anchor="middle" x="992" y="-66.5" font-family="Helvetica,sans-Serif" font-size="10.00">CustomEvents.h</text>
</g>
<!-- Node24&#45;&gt;Node35 -->
<g id="edge104" class="edge"><title>Node24&#45;&gt;Node35</title>
<path fill="none" stroke="midnightblue" d="M909.098,-174.399C919.221,-165.245 933.771,-151.415 945,-138 958.279,-122.136 971.362,-102.512 980.338,-88.2529"/>
<polygon fill="midnightblue" stroke="midnightblue" points="983.314,-90.0947 985.605,-79.7505 977.364,-86.4084 983.314,-90.0947"/>
</g>
<!-- Node36 -->
<g id="node89" class="node"><title>Node36</title>
<a xlink:href="StatusBar_8h.htm" target="_top" xlink:title="StatusBar.h">
<polygon fill="white" stroke="black" points="1019.5,-116.5 1019.5,-137.5 1090.5,-137.5 1090.5,-116.5 1019.5,-116.5"/>
<text text-anchor="middle" x="1055" y="-124.5" font-family="Helvetica,sans-Serif" font-size="10.00">StatusBar.h</text>
</a>
</g>
<!-- Node24&#45;&gt;Node36 -->
<g id="edge106" class="edge"><title>Node24&#45;&gt;Node36</title>
<path fill="none" stroke="midnightblue" d="M925.613,-174.497C951.148,-165.123 988.737,-151.324 1016.83,-141.012"/>
<polygon fill="midnightblue" stroke="midnightblue" points="1018.15,-144.255 1026.33,-137.523 1015.74,-137.684 1018.15,-144.255"/>
</g>
<!-- Node32&#45;&gt;Node2 -->
<g id="edge84" class="edge"><title>Node32&#45;&gt;Node2</title>
<path fill="none" stroke="midnightblue" d="M692.338,-59.036C695.263,-58.6693 698.161,-58.3217 701,-58 908.95,-34.442 1158.73,-19.0106 1258.11,-13.3837"/>
<polygon fill="midnightblue" stroke="midnightblue" points="1258.58,-16.8631 1268.36,-12.8077 1258.18,-9.87406 1258.58,-16.8631"/>
</g>
<!-- Node32&#45;&gt;Node11 -->
<g id="edge88" class="edge"><title>Node32&#45;&gt;Node11</title>
<path fill="none" stroke="midnightblue" d="M627.367,-58.3619C627.623,-50.9219 627.974,-40.7427 628.285,-31.7276"/>
<polygon fill="midnightblue" stroke="midnightblue" points="631.789,-31.6854 628.635,-21.5707 624.793,-31.4441 631.789,-31.6854"/>
</g>
<!-- Node32&#45;&gt;Node12 -->
<g id="edge86" class="edge"><title>Node32&#45;&gt;Node12</title>
<path fill="none" stroke="midnightblue" d="M612.694,-58.3619C601.149,-49.7773 584.7,-37.5459 571.41,-27.6636"/>
<polygon fill="midnightblue" stroke="midnightblue" points="573.329,-24.7291 563.216,-21.5707 569.152,-30.3463 573.329,-24.7291"/>
</g>
<!-- Node33&#45;&gt;Node2 -->
<g id="edge94" class="edge"><title>Node33&#45;&gt;Node2</title>
<path fill="none" stroke="midnightblue" d="M928.817,-59.3379C931.583,-58.8707 934.324,-58.4214 937,-58 1052.71,-39.7782 1189.89,-23.5501 1258.44,-15.8059"/>
<polygon fill="midnightblue" stroke="midnightblue" points="1258.9,-19.2767 1268.45,-14.6812 1258.12,-12.3206 1258.9,-19.2767"/>
</g>
<!-- Node33&#45;&gt;Node13 -->
<g id="edge96" class="edge"><title>Node33&#45;&gt;Node13</title>
<path fill="none" stroke="midnightblue" d="M877.633,-58.3619C877.377,-50.9219 877.026,-40.7427 876.715,-31.7276"/>
<polygon fill="midnightblue" stroke="midnightblue" points="880.207,-31.4441 876.365,-21.5707 873.211,-31.6854 880.207,-31.4441"/>
</g>
<!-- Node34&#45;&gt;Node2 -->
<g id="edge100" class="edge"><title>Node34&#45;&gt;Node2</title>
<path fill="none" stroke="midnightblue" d="M1174.25,-58.4966C1199.46,-49.1229 1236.58,-35.3242 1264.31,-25.0122"/>
<polygon fill="midnightblue" stroke="midnightblue" points="1265.54,-28.2886 1273.7,-21.5231 1263.1,-21.7274 1265.54,-28.2886"/>
</g>
<!-- Node36&#45;&gt;Node9 -->
<g id="edge108" class="edge"><title>Node36&#45;&gt;Node9</title>
<path fill="none" stroke="midnightblue" d="M1019.29,-120.403C960.664,-109.575 844.361,-88.0921 782.292,-76.6272"/>
<polygon fill="midnightblue" stroke="midnightblue" points="782.919,-73.1838 772.449,-74.8091 781.647,-80.0674 782.919,-73.1838"/>
</g>
<!-- Node36&#45;&gt;Node14 -->
<g id="edge112" class="edge"><title>Node36&#45;&gt;Node14</title>
<path fill="none" stroke="midnightblue" d="M1055.4,-116.317C1055.57,-102.405 1054.6,-77.557 1047,-58 1042.99,-47.6897 1036.16,-37.5742 1029.67,-29.3845"/>
<polygon fill="midnightblue" stroke="midnightblue" points="1032.27,-27.0351 1023.16,-21.6197 1026.91,-31.5319 1032.27,-27.0351"/>
</g>
<!-- Node36&#45;&gt;Node34 -->
<g id="edge114" class="edge"><title>Node36&#45;&gt;Node34</title>
<path fill="none" stroke="midnightblue" d="M1071.69,-116.362C1085.42,-107.614 1105.08,-95.0786 1120.74,-85.1015"/>
<polygon fill="midnightblue" stroke="midnightblue" points="1122.86,-87.8969 1129.42,-79.5707 1119.1,-81.994 1122.86,-87.8969"/>
</g>
<!-- Node36&#45;&gt;Node35 -->
<g id="edge116" class="edge"><title>Node36&#45;&gt;Node35</title>
<path fill="none" stroke="midnightblue" d="M1043.44,-116.362C1034.39,-108.023 1021.59,-96.2418 1011.03,-86.5162"/>
<polygon fill="midnightblue" stroke="midnightblue" points="1013.21,-83.7688 1003.48,-79.5707 1008.47,-88.9187 1013.21,-83.7688"/>
</g>
<!-- Node36&#45;&gt;Node37 -->
<g id="edge110" class="edge"><title>Node36&#45;&gt;Node37</title>
<path fill="none" stroke="midnightblue" d="M1089.41,-116.497C1122.11,-106.514 1171.26,-91.5114 1205.53,-81.0473"/>
<polygon fill="midnightblue" stroke="midnightblue" points="1206.68,-84.3576 1215.22,-78.0904 1204.63,-77.6626 1206.68,-84.3576"/>
</g>
<!-- Node47&#45;&gt;Node2 -->
<g id="edge140" class="edge"><title>Node47&#45;&gt;Node2</title>
<path fill="none" stroke="midnightblue" d="M1547.99,-116.295C1499.16,-95.3952 1391.11,-49.1446 1335.91,-25.5132"/>
<polygon fill="midnightblue" stroke="midnightblue" points="1337.13,-22.2292 1326.56,-21.5117 1334.37,-28.6644 1337.13,-22.2292"/>
</g>
<!-- Node48&#45;&gt;Node2 -->
<g id="edge144" class="edge"><title>Node48&#45;&gt;Node2</title>
<path fill="none" stroke="midnightblue" d="M2260.89,-232.467C2274.2,-218.284 2293.41,-192.674 2280,-174 2266.55,-155.266 1912.42,-58.6244 1909,-58 1800.62,-38.2292 1466.26,-19.4925 1345.81,-13.2152"/>
<polygon fill="midnightblue" stroke="midnightblue" points="1345.67,-9.70326 1335.5,-12.6812 1345.31,-16.6939 1345.67,-9.70326"/>
</g>
</g>
</svg>
