<?xml version="1.0" encoding="UTF-8" standalone="no"?>
<!DOCTYPE svg PUBLIC "-//W3C//DTD SVG 1.1//EN"
 "http://www.w3.org/Graphics/SVG/1.1/DTD/svg11.dtd">
<!-- Generated by graphviz version 2.26.3 (20100126.1600)
 -->
<!-- Title: QtHostWindow.h Pages: 1 -->
<svg width="2709pt" height="378pt"
 viewBox="0.00 0.00 2709.00 378.00" xmlns="http://www.w3.org/2000/svg" xmlns:xlink="http://www.w3.org/1999/xlink">
<g id="graph1" class="graph" transform="scale(1 1) rotate(0) translate(4 374)">
<title>QtHostWindow.h</title>
<polygon fill="white" stroke="white" points="-4,5 -4,-374 2706,-374 2706,5 -4,5"/>
<!-- Node1 -->
<g id="node1" class="node"><title>Node1</title>
<polygon fill="#bfbfbf" stroke="black" points="1788.5,-348.5 1788.5,-369.5 1883.5,-369.5 1883.5,-348.5 1788.5,-348.5"/>
<text text-anchor="middle" x="1836" y="-356.5" font-family="Helvetica,sans-Serif" font-size="10.00">QtHostWindow.h</text>
</g>
<!-- Node2 -->
<g id="node3" class="node"><title>Node2</title>
<polygon fill="white" stroke="#bfbfbf" points="1156.5,-0.5 1156.5,-21.5 1223.5,-21.5 1223.5,-0.5 1156.5,-0.5"/>
<text text-anchor="middle" x="1190" y="-8.5" font-family="Helvetica,sans-Serif" font-size="10.00">Common.h</text>
</g>
<!-- Node1&#45;&gt;Node2 -->
<g id="edge2" class="edge"><title>Node1&#45;&gt;Node2</title>
<path fill="none" stroke="midnightblue" d="M1788.1,-350.929C1672.49,-330.373 1383.6,-272.237 1328,-196 1281.15,-131.765 1533.94,-180.891 1488,-116 1457.96,-73.561 1308.98,-36.3943 1233.7,-19.9657"/>
<polygon fill="midnightblue" stroke="midnightblue" points="1234.1,-16.4716 1223.59,-17.7868 1232.63,-23.3146 1234.1,-16.4716"/>
</g>
<!-- Node3 -->
<g id="node5" class="node"><title>Node3</title>
<a xlink:href="CardHostWindow_8h.htm" target="_top" xlink:title="CardHostWindow.h">
<polygon fill="white" stroke="black" points="2266.5,-290.5 2266.5,-311.5 2373.5,-311.5 2373.5,-290.5 2266.5,-290.5"/>
<text text-anchor="middle" x="2320" y="-298.5" font-family="Helvetica,sans-Serif" font-size="10.00">CardHostWindow.h</text>
</a>
</g>
<!-- Node1&#45;&gt;Node3 -->
<g id="edge4" class="edge"><title>Node1&#45;&gt;Node3</title>
<path fill="none" stroke="midnightblue" d="M1883.73,-353.28C1971.38,-342.777 2157.96,-320.418 2256.3,-308.633"/>
<polygon fill="midnightblue" stroke="midnightblue" points="2256.89,-312.088 2266.41,-307.422 2256.06,-305.137 2256.89,-312.088"/>
</g>
<!-- Node3&#45;&gt;Node2 -->
<g id="edge6" class="edge"><title>Node3&#45;&gt;Node2</title>
<path fill="none" stroke="midnightblue" d="M2373.78,-295.951C2478.8,-284.596 2701,-252.588 2701,-185 2701,-185 2701,-185 2701,-127 2701,-51.3766 1481.9,-18.0168 1233.76,-12.01"/>
<polygon fill="midnightblue" stroke="midnightblue" points="1233.76,-8.509 1223.68,-11.7681 1233.59,-15.507 1233.76,-8.509"/>
</g>
<!-- Node4 -->
<g id="node8" class="node"><title>Node4</title>
<a xlink:href="CardWindow_8h.htm" target="_top" xlink:title="CardWindow.h">
<polygon fill="white" stroke="black" points="1976,-232.5 1976,-253.5 2062,-253.5 2062,-232.5 1976,-232.5"/>
<text text-anchor="middle" x="2019" y="-240.5" font-family="Helvetica,sans-Serif" font-size="10.00">CardWindow.h</text>
</a>
</g>
<!-- Node3&#45;&gt;Node4 -->
<g id="edge8" class="edge"><title>Node3&#45;&gt;Node4</title>
<path fill="none" stroke="midnightblue" d="M2266.19,-290.631C2211.27,-280.048 2126.56,-263.725 2071.95,-253.203"/>
<polygon fill="midnightblue" stroke="midnightblue" points="2072.6,-249.764 2062.12,-251.309 2071.28,-256.638 2072.6,-249.764"/>
</g>
<!-- Node49 -->
<g id="node120" class="node"><title>Node49</title>
<a xlink:href="AnimationEquations_8h.htm" target="_top" xlink:title="AnimationEquations.h">
<polygon fill="white" stroke="black" points="2261,-232.5 2261,-253.5 2379,-253.5 2379,-232.5 2261,-232.5"/>
<text text-anchor="middle" x="2320" y="-240.5" font-family="Helvetica,sans-Serif" font-size="10.00">AnimationEquations.h</text>
</a>
</g>
<!-- Node3&#45;&gt;Node49 -->
<g id="edge142" class="edge"><title>Node3&#45;&gt;Node49</title>
<path fill="none" stroke="midnightblue" d="M2320,-290.362C2320,-282.922 2320,-272.743 2320,-263.728"/>
<polygon fill="midnightblue" stroke="midnightblue" points="2323.5,-263.571 2320,-253.571 2316.5,-263.571 2323.5,-263.571"/>
</g>
<!-- Node50 -->
<g id="node123" class="node"><title>Node50</title>
<polygon fill="white" stroke="#bfbfbf" points="2397,-232.5 2397,-253.5 2449,-253.5 2449,-232.5 2397,-232.5"/>
<text text-anchor="middle" x="2423" y="-240.5" font-family="Helvetica,sans-Serif" font-size="10.00">Timer.h</text>
</g>
<!-- Node3&#45;&gt;Node50 -->
<g id="edge146" class="edge"><title>Node3&#45;&gt;Node50</title>
<path fill="none" stroke="midnightblue" d="M2338.89,-290.362C2354.72,-281.45 2377.52,-268.609 2395.39,-258.545"/>
<polygon fill="midnightblue" stroke="midnightblue" points="2397.23,-261.527 2404.23,-253.571 2393.8,-255.428 2397.23,-261.527"/>
</g>
<!-- Node4&#45;&gt;Node2 -->
<g id="edge10" class="edge"><title>Node4&#45;&gt;Node2</title>
<path fill="none" stroke="midnightblue" d="M2062.2,-240.38C2178.28,-233.134 2489.22,-212.286 2504,-196 2510.57,-188.76 2509.81,-181.867 2504,-174 2426.53,-69.0211 1453.02,-22.0438 1233.69,-12.7564"/>
<polygon fill="midnightblue" stroke="midnightblue" points="1233.67,-9.25246 1223.53,-12.3304 1233.37,-16.2463 1233.67,-9.25246"/>
</g>
<!-- Node5 -->
<g id="node11" class="node"><title>Node5</title>
<polygon fill="white" stroke="#bfbfbf" points="2572.5,-174.5 2572.5,-195.5 2635.5,-195.5 2635.5,-174.5 2572.5,-174.5"/>
<text text-anchor="middle" x="2604" y="-182.5" font-family="Helvetica,sans-Serif" font-size="10.00">Settings.h</text>
</g>
<!-- Node4&#45;&gt;Node5 -->
<g id="edge12" class="edge"><title>Node4&#45;&gt;Node5</title>
<path fill="none" stroke="midnightblue" d="M2062.33,-241.478C2154.35,-237.752 2375.85,-226.174 2559,-196 2560.07,-195.824 2561.15,-195.635 2562.25,-195.436"/>
<polygon fill="midnightblue" stroke="midnightblue" points="2563.06,-198.842 2572.17,-193.419 2561.67,-191.982 2563.06,-198.842"/>
</g>
<!-- Node6 -->
<g id="node13" class="node"><title>Node6</title>
<polygon fill="white" stroke="#bfbfbf" points="503,-116.5 503,-137.5 555,-137.5 555,-116.5 503,-116.5"/>
<text text-anchor="middle" x="529" y="-124.5" font-family="Helvetica,sans-Serif" font-size="10.00">Event.h</text>
</g>
<!-- Node4&#45;&gt;Node6 -->
<g id="edge14" class="edge"><title>Node4&#45;&gt;Node6</title>
<path fill="none" stroke="midnightblue" d="M1975.95,-241.759C1801.65,-236.635 1147.91,-216.439 942,-196 775.05,-179.429 733.038,-173.189 569,-138 567.732,-137.728 566.445,-137.44 565.148,-137.139"/>
<polygon fill="midnightblue" stroke="midnightblue" points="565.694,-133.669 555.145,-134.65 564.003,-140.461 565.694,-133.669"/>
</g>
<!-- Node7 -->
<g id="node15" class="node"><title>Node7</title>
<a xlink:href="HostWindow_8h.htm" target="_top" xlink:title="HostWindow.h">
<polygon fill="white" stroke="black" points="383,-116.5 383,-137.5 467,-137.5 467,-116.5 383,-116.5"/>
<text text-anchor="middle" x="425" y="-124.5" font-family="Helvetica,sans-Serif" font-size="10.00">HostWindow.h</text>
</a>
</g>
<!-- Node4&#45;&gt;Node7 -->
<g id="edge16" class="edge"><title>Node4&#45;&gt;Node7</title>
<path fill="none" stroke="midnightblue" d="M1975.84,-242.37C1783.1,-239.407 999.81,-225.734 756,-196 654.921,-183.673 538.844,-156.37 474.507,-140.046"/>
<polygon fill="midnightblue" stroke="midnightblue" points="475.191,-136.609 464.636,-137.525 473.459,-143.391 475.191,-136.609"/>
</g>
<!-- Node22 -->
<g id="node50" class="node"><title>Node22</title>
<polygon fill="white" stroke="#bfbfbf" points="1337,-174.5 1337,-195.5 1479,-195.5 1479,-174.5 1337,-174.5"/>
<text text-anchor="middle" x="1408" y="-182.5" font-family="Helvetica,sans-Serif" font-size="10.00">AppLaunchOptionsEvent.h</text>
</g>
<!-- Node4&#45;&gt;Node22 -->
<g id="edge56" class="edge"><title>Node4&#45;&gt;Node22</title>
<path fill="none" stroke="midnightblue" d="M1975.99,-239.737C1886.16,-232.794 1672.09,-215.582 1493,-196 1491.89,-195.879 1490.77,-195.755 1489.65,-195.629"/>
<polygon fill="midnightblue" stroke="midnightblue" points="1489.73,-192.116 1479.4,-194.448 1488.93,-199.07 1489.73,-192.116"/>
</g>
<!-- Node23 -->
<g id="node52" class="node"><title>Node23</title>
<a xlink:href="SystemUiController_8h.htm" target="_top" xlink:title="SystemUiController.h">
<polygon fill="white" stroke="black" points="951,-174.5 951,-195.5 1067,-195.5 1067,-174.5 951,-174.5"/>
<text text-anchor="middle" x="1009" y="-182.5" font-family="Helvetica,sans-Serif" font-size="10.00">SystemUiController.h</text>
</a>
</g>
<!-- Node4&#45;&gt;Node23 -->
<g id="edge58" class="edge"><title>Node4&#45;&gt;Node23</title>
<path fill="none" stroke="midnightblue" d="M1975.92,-240.526C1818.07,-231.461 1270.4,-200.011 1077.16,-188.914"/>
<polygon fill="midnightblue" stroke="midnightblue" points="1077.31,-185.417 1067.13,-188.338 1076.91,-192.406 1077.31,-185.417"/>
</g>
<!-- Node38 -->
<g id="node93" class="node"><title>Node38</title>
<polygon fill="white" stroke="#bfbfbf" points="1236.5,-58.5 1236.5,-79.5 1295.5,-79.5 1295.5,-58.5 1236.5,-58.5"/>
<text text-anchor="middle" x="1266" y="-66.5" font-family="Helvetica,sans-Serif" font-size="10.00">QPointer</text>
</g>
<!-- Node4&#45;&gt;Node38 -->
<g id="edge132" class="edge"><title>Node4&#45;&gt;Node38</title>
<path fill="none" stroke="midnightblue" d="M1975.73,-241.3C1862.28,-236.504 1562.44,-221.533 1526,-196 1493.76,-173.412 1518.9,-140.382 1488,-116 1460.18,-94.0496 1361.82,-79.7391 1305.81,-73.171"/>
<polygon fill="midnightblue" stroke="midnightblue" points="1305.87,-69.6552 1295.54,-71.9976 1305.07,-76.61 1305.87,-69.6552"/>
</g>
<!-- Node39 -->
<g id="node98" class="node"><title>Node39</title>
<polygon fill="white" stroke="#bfbfbf" points="1534.5,-174.5 1534.5,-195.5 1645.5,-195.5 1645.5,-174.5 1534.5,-174.5"/>
<text text-anchor="middle" x="1590" y="-182.5" font-family="Helvetica,sans-Serif" font-size="10.00">WindowProperties.h</text>
</g>
<!-- Node4&#45;&gt;Node39 -->
<g id="edge118" class="edge"><title>Node4&#45;&gt;Node39</title>
<path fill="none" stroke="midnightblue" d="M1975.93,-238.051C1909.45,-230.279 1777.56,-214.346 1656.05,-196.267"/>
<polygon fill="midnightblue" stroke="midnightblue" points="1656.23,-192.756 1645.83,-194.738 1655.2,-199.679 1656.23,-192.756"/>
</g>
<!-- Node40 -->
<g id="node100" class="node"><title>Node40</title>
<polygon fill="white" stroke="#bfbfbf" points="1663,-174.5 1663,-195.5 1819,-195.5 1819,-174.5 1663,-174.5"/>
<text text-anchor="middle" x="1741" y="-182.5" font-family="Helvetica,sans-Serif" font-size="10.00">QGraphicsSceneMouseEvent</text>
</g>
<!-- Node4&#45;&gt;Node40 -->
<g id="edge120" class="edge"><title>Node4&#45;&gt;Node40</title>
<path fill="none" stroke="midnightblue" d="M1975.87,-234.001C1929.16,-224.256 1854.29,-208.637 1801.67,-197.657"/>
<polygon fill="midnightblue" stroke="midnightblue" points="1802.29,-194.211 1791.78,-195.595 1800.86,-201.064 1802.29,-194.211"/>
</g>
<!-- Node41 -->
<g id="node102" class="node"><title>Node41</title>
<polygon fill="white" stroke="#bfbfbf" points="1836.5,-174.5 1836.5,-195.5 1917.5,-195.5 1917.5,-174.5 1836.5,-174.5"/>
<text text-anchor="middle" x="1877" y="-182.5" font-family="Helvetica,sans-Serif" font-size="10.00">QTouchEvent</text>
</g>
<!-- Node4&#45;&gt;Node41 -->
<g id="edge122" class="edge"><title>Node4&#45;&gt;Node41</title>
<path fill="none" stroke="midnightblue" d="M1993.28,-232.497C1970.71,-223.275 1937.64,-209.769 1912.54,-199.515"/>
<polygon fill="midnightblue" stroke="midnightblue" points="1913.58,-196.162 1903,-195.621 1910.94,-202.643 1913.58,-196.162"/>
</g>
<!-- Node42 -->
<g id="node104" class="node"><title>Node42</title>
<polygon fill="white" stroke="#bfbfbf" points="1935,-174.5 1935,-195.5 2015,-195.5 2015,-174.5 1935,-174.5"/>
<text text-anchor="middle" x="1975" y="-182.5" font-family="Helvetica,sans-Serif" font-size="10.00">QPainterPath</text>
</g>
<!-- Node4&#45;&gt;Node42 -->
<g id="edge124" class="edge"><title>Node4&#45;&gt;Node42</title>
<path fill="none" stroke="midnightblue" d="M2010.93,-232.362C2004.85,-224.35 1996.36,-213.161 1989.16,-203.67"/>
<polygon fill="midnightblue" stroke="midnightblue" points="1991.85,-201.422 1983.02,-195.571 1986.27,-205.653 1991.85,-201.422"/>
</g>
<!-- Node43 -->
<g id="node106" class="node"><title>Node43</title>
<polygon fill="white" stroke="#bfbfbf" points="2032.5,-174.5 2032.5,-195.5 2091.5,-195.5 2091.5,-174.5 2032.5,-174.5"/>
<text text-anchor="middle" x="2062" y="-182.5" font-family="Helvetica,sans-Serif" font-size="10.00">QPainter</text>
</g>
<!-- Node4&#45;&gt;Node43 -->
<g id="edge126" class="edge"><title>Node4&#45;&gt;Node43</title>
<path fill="none" stroke="midnightblue" d="M2026.89,-232.362C2032.83,-224.35 2041.12,-213.161 2048.16,-203.67"/>
<polygon fill="midnightblue" stroke="midnightblue" points="2051.02,-205.688 2054.16,-195.571 2045.4,-201.519 2051.02,-205.688"/>
</g>
<!-- Node44 -->
<g id="node108" class="node"><title>Node44</title>
<polygon fill="white" stroke="#bfbfbf" points="2108.5,-174.5 2108.5,-195.5 2177.5,-195.5 2177.5,-174.5 2108.5,-174.5"/>
<text text-anchor="middle" x="2143" y="-182.5" font-family="Helvetica,sans-Serif" font-size="10.00">QVector3D</text>
</g>
<!-- Node4&#45;&gt;Node44 -->
<g id="edge128" class="edge"><title>Node4&#45;&gt;Node44</title>
<path fill="none" stroke="midnightblue" d="M2041.46,-232.497C2060.91,-223.397 2089.28,-210.127 2111.09,-199.925"/>
<polygon fill="midnightblue" stroke="midnightblue" points="2112.72,-203.028 2120.29,-195.621 2109.75,-196.688 2112.72,-203.028"/>
</g>
<!-- Node45 -->
<g id="node110" class="node"><title>Node45</title>
<polygon fill="white" stroke="#bfbfbf" points="2195,-174.5 2195,-195.5 2269,-195.5 2269,-174.5 2195,-174.5"/>
<text text-anchor="middle" x="2232" y="-182.5" font-family="Helvetica,sans-Serif" font-size="10.00">QTransform</text>
</g>
<!-- Node4&#45;&gt;Node45 -->
<g id="edge130" class="edge"><title>Node4&#45;&gt;Node45</title>
<path fill="none" stroke="midnightblue" d="M2057.57,-232.497C2093.34,-222.757 2146.65,-208.242 2184.91,-197.822"/>
<polygon fill="midnightblue" stroke="midnightblue" points="2186.06,-201.138 2194.79,-195.134 2184.22,-194.384 2186.06,-201.138"/>
</g>
<!-- Node46 -->
<g id="node113" class="node"><title>Node46</title>
<polygon fill="white" stroke="#bfbfbf" points="2287,-174.5 2287,-195.5 2399,-195.5 2399,-174.5 2287,-174.5"/>
<text text-anchor="middle" x="2343" y="-182.5" font-family="Helvetica,sans-Serif" font-size="10.00">QPropertyAnimation</text>
</g>
<!-- Node4&#45;&gt;Node46 -->
<g id="edge134" class="edge"><title>Node4&#45;&gt;Node46</title>
<path fill="none" stroke="midnightblue" d="M2062.02,-235.298C2116.93,-225.47 2212.46,-208.369 2276.7,-196.869"/>
<polygon fill="midnightblue" stroke="midnightblue" points="2277.5,-200.281 2286.73,-195.074 2276.27,-193.391 2277.5,-200.281"/>
</g>
<!-- Node47 -->
<g id="node115" class="node"><title>Node47</title>
<polygon fill="white" stroke="#bfbfbf" points="2417,-174.5 2417,-195.5 2479,-195.5 2479,-174.5 2417,-174.5"/>
<text text-anchor="middle" x="2448" y="-182.5" font-family="Helvetica,sans-Serif" font-size="10.00">QGesture</text>
</g>
<!-- Node4&#45;&gt;Node47 -->
<g id="edge136" class="edge"><title>Node4&#45;&gt;Node47</title>
<path fill="none" stroke="midnightblue" d="M2062.21,-239.882C2132.52,-234.352 2276.15,-221.156 2406.5,-196.075"/>
<polygon fill="midnightblue" stroke="midnightblue" points="2407.52,-199.443 2416.66,-194.09 2406.18,-192.572 2407.52,-199.443"/>
</g>
<!-- Node48 -->
<g id="node117" class="node"><title>Node48</title>
<a xlink:href="CardRoundedCornerShaderStage_8h.htm" target="_top" xlink:title="CardRoundedCornerShaderStage.h">
<polygon fill="white" stroke="black" points="2121,-116.5 2121,-137.5 2307,-137.5 2307,-116.5 2121,-116.5"/>
<text text-anchor="middle" x="2214" y="-124.5" font-family="Helvetica,sans-Serif" font-size="10.00">CardRoundedCornerShaderStage.h</text>
</a>
</g>
<!-- Node4&#45;&gt;Node48 -->
<g id="edge138" class="edge"><title>Node4&#45;&gt;Node48</title>
<path fill="none" stroke="midnightblue" d="M2062.41,-240.219C2175.92,-232.74 2473.79,-211.701 2488,-196 2494.56,-188.75 2494.3,-181.476 2488,-174 2476.71,-160.608 2390.11,-147.29 2317.25,-138.269"/>
<polygon fill="midnightblue" stroke="midnightblue" points="2317.42,-134.764 2307.07,-137.026 2316.57,-141.713 2317.42,-134.764"/>
</g>
<!-- Node7&#45;&gt;Node2 -->
<g id="edge18" class="edge"><title>Node7&#45;&gt;Node2</title>
<path fill="none" stroke="midnightblue" d="M467.26,-119.757C476.079,-118.388 485.33,-117.056 494,-116 682.614,-93.0277 733.166,-114.585 920,-80 954.577,-73.5994 962.015,-67.0309 996,-58 1047.45,-44.3271 1107.02,-30.1386 1146.43,-20.9773"/>
<polygon fill="midnightblue" stroke="midnightblue" points="1147.29,-24.3701 1156.24,-18.7028 1145.71,-17.5508 1147.29,-24.3701"/>
</g>
<!-- Node7&#45;&gt;Node7 -->
<g id="edge36" class="edge"><title>Node7&#45;&gt;Node7</title>
<path fill="none" stroke="midnightblue" d="M455.563,-137.524C471.083,-139.061 485,-135.553 485,-127 485,-120.385 476.675,-116.788 465.722,-116.208"/>
<polygon fill="midnightblue" stroke="midnightblue" points="465.467,-112.714 455.563,-116.476 465.652,-119.711 465.467,-112.714"/>
</g>
<!-- Node8 -->
<g id="node18" class="node"><title>Node8</title>
<a xlink:href="Window_8h.htm" target="_top" xlink:title="Window.h">
<polygon fill="white" stroke="black" points="731,-58.5 731,-79.5 793,-79.5 793,-58.5 731,-58.5"/>
<text text-anchor="middle" x="762" y="-66.5" font-family="Helvetica,sans-Serif" font-size="10.00">Window.h</text>
</a>
</g>
<!-- Node7&#45;&gt;Node8 -->
<g id="edge20" class="edge"><title>Node7&#45;&gt;Node8</title>
<path fill="none" stroke="midnightblue" d="M467.34,-119.713C532.314,-108.531 655.845,-87.2699 720.382,-76.1628"/>
<polygon fill="midnightblue" stroke="midnightblue" points="721.33,-79.5511 730.591,-74.4056 720.143,-72.6526 721.33,-79.5511"/>
</g>
<!-- Node15 -->
<g id="node34" class="node"><title>Node15</title>
<a xlink:href="HostWindowData_8h.htm" target="_top" xlink:title="HostWindowData.h">
<polygon fill="white" stroke="black" points="73.5,-58.5 73.5,-79.5 180.5,-79.5 180.5,-58.5 73.5,-58.5"/>
<text text-anchor="middle" x="127" y="-66.5" font-family="Helvetica,sans-Serif" font-size="10.00">HostWindowData.h</text>
</a>
</g>
<!-- Node7&#45;&gt;Node15 -->
<g id="edge38" class="edge"><title>Node7&#45;&gt;Node15</title>
<path fill="none" stroke="midnightblue" d="M382.936,-118.813C332.915,-109.077 248.909,-92.7273 190.857,-81.4285"/>
<polygon fill="midnightblue" stroke="midnightblue" points="191.178,-77.9255 180.694,-79.4505 189.841,-84.7966 191.178,-77.9255"/>
</g>
<!-- Node18 -->
<g id="node41" class="node"><title>Node18</title>
<a xlink:href="InputClient_8h.htm" target="_top" xlink:title="InputClient.h">
<polygon fill="white" stroke="black" points="197.5,-58.5 197.5,-79.5 272.5,-79.5 272.5,-58.5 197.5,-58.5"/>
<text text-anchor="middle" x="235" y="-66.5" font-family="Helvetica,sans-Serif" font-size="10.00">InputClient.h</text>
</a>
</g>
<!-- Node7&#45;&gt;Node18 -->
<g id="edge46" class="edge"><title>Node7&#45;&gt;Node18</title>
<path fill="none" stroke="midnightblue" d="M390.592,-116.497C359.349,-106.959 313.099,-92.8408 279.142,-82.475"/>
<polygon fill="midnightblue" stroke="midnightblue" points="280.058,-79.0953 269.472,-79.5231 278.015,-85.7903 280.058,-79.0953"/>
</g>
<!-- Node20 -->
<g id="node46" class="node"><title>Node20</title>
<polygon fill="white" stroke="#bfbfbf" points="438,-58.5 438,-79.5 512,-79.5 512,-58.5 438,-58.5"/>
<text text-anchor="middle" x="475" y="-66.5" font-family="Helvetica,sans-Serif" font-size="10.00">PIpcBuffer.h</text>
</g>
<!-- Node7&#45;&gt;Node20 -->
<g id="edge52" class="edge"><title>Node7&#45;&gt;Node20</title>
<path fill="none" stroke="midnightblue" d="M434.171,-116.362C441.148,-108.268 450.921,-96.9318 459.156,-87.3796"/>
<polygon fill="midnightblue" stroke="midnightblue" points="462.009,-89.4301 465.887,-79.5707 456.707,-84.8595 462.009,-89.4301"/>
</g>
<!-- Node21 -->
<g id="node48" class="node"><title>Node21</title>
<polygon fill="white" stroke="#bfbfbf" points="530,-58.5 530,-79.5 654,-79.5 654,-58.5 530,-58.5"/>
<text text-anchor="middle" x="592" y="-66.5" font-family="Helvetica,sans-Serif" font-size="10.00">PIpcChannelListener.h</text>
</g>
<!-- Node7&#45;&gt;Node21 -->
<g id="edge54" class="edge"><title>Node7&#45;&gt;Node21</title>
<path fill="none" stroke="midnightblue" d="M455.242,-116.497C482.35,-107.082 522.31,-93.2036 552.043,-82.8773"/>
<polygon fill="midnightblue" stroke="midnightblue" points="553.403,-86.1102 561.701,-79.5231 551.106,-79.4977 553.403,-86.1102"/>
</g>
<!-- Node8&#45;&gt;Node2 -->
<g id="edge22" class="edge"><title>Node8&#45;&gt;Node2</title>
<path fill="none" stroke="midnightblue" d="M793.339,-59.9107C796.254,-59.208 799.173,-58.5567 802,-58 925.577,-33.6622 1073.94,-19.9082 1146.17,-14.1853"/>
<polygon fill="midnightblue" stroke="midnightblue" points="1146.56,-17.6652 1156.26,-13.3989 1146.02,-10.6863 1146.56,-17.6652"/>
</g>
<!-- Node9 -->
<g id="node21" class="node"><title>Node9</title>
<polygon fill="white" stroke="#bfbfbf" points="642,-0.5 642,-21.5 734,-21.5 734,-0.5 642,-0.5"/>
<text text-anchor="middle" x="688" y="-8.5" font-family="Helvetica,sans-Serif" font-size="10.00">WindowTypes.h</text>
</g>
<!-- Node8&#45;&gt;Node9 -->
<g id="edge24" class="edge"><title>Node8&#45;&gt;Node9</title>
<path fill="none" stroke="midnightblue" d="M748.427,-58.3619C737.579,-49.859 722.166,-37.7785 709.621,-27.9466"/>
<polygon fill="midnightblue" stroke="midnightblue" points="711.516,-24.9848 701.487,-21.5707 707.198,-30.4942 711.516,-24.9848"/>
</g>
<!-- Node10 -->
<g id="node23" class="node"><title>Node10</title>
<polygon fill="white" stroke="#bfbfbf" points="566,-0.5 566,-21.5 616,-21.5 616,-0.5 566,-0.5"/>
<text text-anchor="middle" x="591" y="-8.5" font-family="Helvetica,sans-Serif" font-size="10.00">stdint.h</text>
</g>
<!-- Node8&#45;&gt;Node10 -->
<g id="edge26" class="edge"><title>Node8&#45;&gt;Node10</title>
<path fill="none" stroke="midnightblue" d="M731.033,-58.4966C701.332,-48.4225 656.562,-33.2373 625.678,-22.7622"/>
<polygon fill="midnightblue" stroke="midnightblue" points="626.77,-19.4367 616.176,-19.5391 624.521,-26.0658 626.77,-19.4367"/>
</g>
<!-- Node11 -->
<g id="node25" class="node"><title>Node11</title>
<polygon fill="white" stroke="#bfbfbf" points="442.5,-0.5 442.5,-21.5 485.5,-21.5 485.5,-0.5 442.5,-0.5"/>
<text text-anchor="middle" x="464" y="-8.5" font-family="Helvetica,sans-Serif" font-size="10.00">string</text>
</g>
<!-- Node8&#45;&gt;Node11 -->
<g id="edge28" class="edge"><title>Node8&#45;&gt;Node11</title>
<path fill="none" stroke="midnightblue" d="M730.952,-62.9571C673.975,-51.8676 553.301,-28.3807 495.782,-17.1857"/>
<polygon fill="midnightblue" stroke="midnightblue" points="496.291,-13.7191 485.806,-15.2441 494.953,-20.5902 496.291,-13.7191"/>
</g>
<!-- Node12 -->
<g id="node27" class="node"><title>Node12</title>
<polygon fill="white" stroke="#bfbfbf" points="832.5,-0.5 832.5,-21.5 873.5,-21.5 873.5,-0.5 832.5,-0.5"/>
<text text-anchor="middle" x="853" y="-8.5" font-family="Helvetica,sans-Serif" font-size="10.00">glib.h</text>
</g>
<!-- Node8&#45;&gt;Node12 -->
<g id="edge30" class="edge"><title>Node8&#45;&gt;Node12</title>
<path fill="none" stroke="midnightblue" d="M778.691,-58.3619C792.416,-49.6138 812.084,-37.0786 827.737,-27.1015"/>
<polygon fill="midnightblue" stroke="midnightblue" points="829.863,-29.8969 836.415,-21.5707 826.101,-23.994 829.863,-29.8969"/>
</g>
<!-- Node13 -->
<g id="node29" class="node"><title>Node13</title>
<polygon fill="white" stroke="#bfbfbf" points="895,-0.5 895,-21.5 993,-21.5 993,-0.5 895,-0.5"/>
<text text-anchor="middle" x="944" y="-8.5" font-family="Helvetica,sans-Serif" font-size="10.00">QGraphicsObject</text>
</g>
<!-- Node8&#45;&gt;Node13 -->
<g id="edge32" class="edge"><title>Node8&#45;&gt;Node13</title>
<path fill="none" stroke="midnightblue" d="M793.287,-59.0294C823.037,-49.5486 868.032,-35.2096 901.116,-24.6663"/>
<polygon fill="midnightblue" stroke="midnightblue" points="902.506,-27.8969 910.971,-21.5257 900.38,-21.2274 902.506,-27.8969"/>
</g>
<!-- Node14 -->
<g id="node31" class="node"><title>Node14</title>
<polygon fill="white" stroke="#bfbfbf" points="751.5,-0.5 751.5,-21.5 796.5,-21.5 796.5,-0.5 751.5,-0.5"/>
<text text-anchor="middle" x="774" y="-8.5" font-family="Helvetica,sans-Serif" font-size="10.00">QSize</text>
</g>
<!-- Node8&#45;&gt;Node14 -->
<g id="edge34" class="edge"><title>Node8&#45;&gt;Node14</title>
<path fill="none" stroke="midnightblue" d="M764.201,-58.3619C765.757,-50.8401 767.893,-40.5187 769.773,-31.4308"/>
<polygon fill="midnightblue" stroke="midnightblue" points="773.214,-32.0724 771.813,-21.5707 766.359,-30.6541 773.214,-32.0724"/>
</g>
<!-- Node15&#45;&gt;Node2 -->
<g id="edge40" class="edge"><title>Node15&#45;&gt;Node2</title>
<path fill="none" stroke="midnightblue" d="M180.706,-59.0266C183.506,-58.646 186.283,-58.2998 189,-58 548.505,-18.3227 640.789,-40.5637 1002,-22 1051.39,-19.4615 1108.06,-16.082 1146.16,-13.7418"/>
<polygon fill="midnightblue" stroke="midnightblue" points="1146.62,-17.2199 1156.39,-13.1109 1146.19,-10.2332 1146.62,-17.2199"/>
</g>
<!-- Node16 -->
<g id="node37" class="node"><title>Node16</title>
<polygon fill="white" stroke="#bfbfbf" points="103.5,-0.5 103.5,-21.5 162.5,-21.5 162.5,-0.5 103.5,-0.5"/>
<text text-anchor="middle" x="133" y="-8.5" font-family="Helvetica,sans-Serif" font-size="10.00">QPixmap</text>
</g>
<!-- Node15&#45;&gt;Node16 -->
<g id="edge42" class="edge"><title>Node15&#45;&gt;Node16</title>
<path fill="none" stroke="midnightblue" d="M128.1,-58.3619C128.87,-50.9219 129.923,-40.7427 130.856,-31.7276"/>
<polygon fill="midnightblue" stroke="midnightblue" points="134.359,-31.8777 131.906,-21.5707 127.396,-31.1574 134.359,-31.8777"/>
</g>
<!-- Node17 -->
<g id="node39" class="node"><title>Node17</title>
<polygon fill="white" stroke="#bfbfbf" points="0,-0.5 0,-21.5 86,-21.5 86,-0.5 0,-0.5"/>
<text text-anchor="middle" x="43" y="-8.5" font-family="Helvetica,sans-Serif" font-size="10.00">PIpcChannel.h</text>
</g>
<!-- Node15&#45;&gt;Node17 -->
<g id="edge44" class="edge"><title>Node15&#45;&gt;Node17</title>
<path fill="none" stroke="midnightblue" d="M111.593,-58.3619C99.0418,-49.6955 81.1078,-37.3126 66.7255,-27.3819"/>
<polygon fill="midnightblue" stroke="midnightblue" points="68.5269,-24.3725 58.3092,-21.5707 64.5495,-30.1327 68.5269,-24.3725"/>
</g>
<!-- Node18&#45;&gt;Node11 -->
<g id="edge50" class="edge"><title>Node18&#45;&gt;Node11</title>
<path fill="none" stroke="midnightblue" d="M272.558,-59.4874C317.126,-48.1996 390.639,-29.5805 432.411,-19.0007"/>
<polygon fill="midnightblue" stroke="midnightblue" points="433.475,-22.3417 442.31,-16.4936 431.757,-15.556 433.475,-22.3417"/>
</g>
<!-- Node19 -->
<g id="node43" class="node"><title>Node19</title>
<polygon fill="white" stroke="#bfbfbf" points="186,-0.5 186,-21.5 284,-21.5 284,-0.5 186,-0.5"/>
<text text-anchor="middle" x="235" y="-8.5" font-family="Helvetica,sans-Serif" font-size="10.00">palmimedefines.h</text>
</g>
<!-- Node18&#45;&gt;Node19 -->
<g id="edge48" class="edge"><title>Node18&#45;&gt;Node19</title>
<path fill="none" stroke="midnightblue" d="M235,-58.3619C235,-50.9219 235,-40.7427 235,-31.7276"/>
<polygon fill="midnightblue" stroke="midnightblue" points="238.5,-31.5706 235,-21.5707 231.5,-31.5707 238.5,-31.5706"/>
</g>
<!-- Node23&#45;&gt;Node2 -->
<g id="edge60" class="edge"><title>Node23&#45;&gt;Node2</title>
<path fill="none" stroke="midnightblue" d="M1046.08,-174.442C1121.91,-152.485 1288.84,-102.111 1304,-80 1325.21,-49.0623 1273.83,-29.6358 1233.3,-19.5491"/>
<polygon fill="midnightblue" stroke="midnightblue" points="1234.07,-16.1369 1223.54,-17.2433 1232.46,-22.9493 1234.07,-16.1369"/>
</g>
<!-- Node23&#45;&gt;Node6 -->
<g id="edge90" class="edge"><title>Node23&#45;&gt;Node6</title>
<path fill="none" stroke="midnightblue" d="M950.904,-181.799C866.295,-176.461 704.484,-163.69 569,-138 567.726,-137.758 566.434,-137.497 565.132,-137.218"/>
<polygon fill="midnightblue" stroke="midnightblue" points="565.646,-133.743 555.108,-134.832 564.025,-140.553 565.646,-133.743"/>
</g>
<!-- Node23&#45;&gt;Node8 -->
<g id="edge102" class="edge"><title>Node23&#45;&gt;Node8</title>
<path fill="none" stroke="midnightblue" d="M1003.19,-174.282C994.268,-158.905 975.727,-130.808 952,-116 896.45,-81.3319 870.747,-95.6377 803.229,-80.1375"/>
<polygon fill="midnightblue" stroke="midnightblue" points="803.961,-76.7137 793.417,-77.7444 802.303,-83.5143 803.961,-76.7137"/>
</g>
<!-- Node23&#45;&gt;Node11 -->
<g id="edge62" class="edge"><title>Node23&#45;&gt;Node11</title>
<path fill="none" stroke="midnightblue" d="M950.965,-180.331C841.291,-171.229 613.476,-150.877 602,-138 595.495,-130.7 597.152,-124.491 602,-116 617.61,-88.6623 647.39,-107.338 663,-80 667.848,-71.5089 669.068,-65.6675 663,-58 652.597,-44.8533 549.188,-25.5165 495.698,-16.2838"/>
<polygon fill="midnightblue" stroke="midnightblue" points="496.155,-12.8112 485.708,-14.5768 494.976,-19.7112 496.155,-12.8112"/>
</g>
<!-- Node24 -->
<g id="node56" class="node"><title>Node24</title>
<polygon fill="white" stroke="#bfbfbf" points="1239,-116.5 1239,-137.5 1291,-137.5 1291,-116.5 1239,-116.5"/>
<text text-anchor="middle" x="1265" y="-124.5" font-family="Helvetica,sans-Serif" font-size="10.00">QEvent</text>
</g>
<!-- Node23&#45;&gt;Node24 -->
<g id="edge64" class="edge"><title>Node23&#45;&gt;Node24</title>
<path fill="none" stroke="midnightblue" d="M1061.12,-174.484C1104.98,-165.437 1169.29,-151.711 1225,-138 1226.26,-137.69 1227.54,-137.37 1228.83,-137.041"/>
<polygon fill="midnightblue" stroke="midnightblue" points="1230.02,-140.347 1238.8,-134.422 1228.24,-133.577 1230.02,-140.347"/>
</g>
<!-- Node25 -->
<g id="node58" class="node"><title>Node25</title>
<polygon fill="white" stroke="#bfbfbf" points="1309,-116.5 1309,-137.5 1379,-137.5 1379,-116.5 1309,-116.5"/>
<text text-anchor="middle" x="1344" y="-124.5" font-family="Helvetica,sans-Serif" font-size="10.00">QKeyEvent</text>
</g>
<!-- Node23&#45;&gt;Node25 -->
<g id="edge66" class="edge"><title>Node23&#45;&gt;Node25</title>
<path fill="none" stroke="midnightblue" d="M1067.24,-177.078C1123.99,-169.024 1212.89,-155.521 1299.05,-138.07"/>
<polygon fill="midnightblue" stroke="midnightblue" points="1299.9,-141.469 1309,-136.035 1298.5,-134.611 1299.9,-141.469"/>
</g>
<!-- Node26 -->
<g id="node60" class="node"><title>Node26</title>
<polygon fill="white" stroke="#bfbfbf" points="1396.5,-116.5 1396.5,-137.5 1479.5,-137.5 1479.5,-116.5 1396.5,-116.5"/>
<text text-anchor="middle" x="1438" y="-124.5" font-family="Helvetica,sans-Serif" font-size="10.00">QMouseEvent</text>
</g>
<!-- Node23&#45;&gt;Node26 -->
<g id="edge68" class="edge"><title>Node23&#45;&gt;Node26</title>
<path fill="none" stroke="midnightblue" d="M1067.03,-179.5C1139.57,-172.249 1267.7,-158.197 1386.33,-138.178"/>
<polygon fill="midnightblue" stroke="midnightblue" points="1387.05,-141.607 1396.32,-136.475 1385.87,-134.706 1387.05,-141.607"/>
</g>
<!-- Node27 -->
<g id="node62" class="node"><title>Node27</title>
<polygon fill="white" stroke="#bfbfbf" points="610.5,-116.5 610.5,-137.5 665.5,-137.5 665.5,-116.5 610.5,-116.5"/>
<text text-anchor="middle" x="638" y="-124.5" font-family="Helvetica,sans-Serif" font-size="10.00">QObject</text>
</g>
<!-- Node23&#45;&gt;Node27 -->
<g id="edge70" class="edge"><title>Node23&#45;&gt;Node27</title>
<path fill="none" stroke="midnightblue" d="M950.707,-179.629C885.582,-173.002 776.954,-160.081 675.579,-138.118"/>
<polygon fill="midnightblue" stroke="midnightblue" points="676.312,-134.696 665.793,-135.965 674.807,-141.532 676.312,-134.696"/>
</g>
<!-- Node28 -->
<g id="node64" class="node"><title>Node28</title>
<polygon fill="white" stroke="#bfbfbf" points="682.5,-116.5 682.5,-137.5 729.5,-137.5 729.5,-116.5 682.5,-116.5"/>
<text text-anchor="middle" x="706" y="-124.5" font-family="Helvetica,sans-Serif" font-size="10.00">QRect</text>
</g>
<!-- Node23&#45;&gt;Node28 -->
<g id="edge72" class="edge"><title>Node23&#45;&gt;Node28</title>
<path fill="none" stroke="midnightblue" d="M950.81,-177.644C897.81,-170.329 817.317,-157.682 739.593,-138.141"/>
<polygon fill="midnightblue" stroke="midnightblue" points="740.193,-134.682 729.638,-135.596 738.459,-141.464 740.193,-134.682"/>
</g>
<!-- Node29 -->
<g id="node66" class="node"><title>Node29</title>
<polygon fill="white" stroke="#bfbfbf" points="746.5,-116.5 746.5,-137.5 839.5,-137.5 839.5,-116.5 746.5,-116.5"/>
<text text-anchor="middle" x="793" y="-124.5" font-family="Helvetica,sans-Serif" font-size="10.00">QSharedPointer</text>
</g>
<!-- Node23&#45;&gt;Node29 -->
<g id="edge74" class="edge"><title>Node23&#45;&gt;Node29</title>
<path fill="none" stroke="midnightblue" d="M969.884,-174.497C934.06,-164.877 880.883,-150.598 842.192,-140.209"/>
<polygon fill="midnightblue" stroke="midnightblue" points="842.755,-136.736 832.189,-137.523 840.94,-143.497 842.755,-136.736"/>
</g>
<!-- Node30 -->
<g id="node68" class="node"><title>Node30</title>
<polygon fill="white" stroke="#bfbfbf" points="857,-116.5 857,-137.5 943,-137.5 943,-116.5 857,-116.5"/>
<text text-anchor="middle" x="900" y="-124.5" font-family="Helvetica,sans-Serif" font-size="10.00">QWeakPointer</text>
</g>
<!-- Node23&#45;&gt;Node30 -->
<g id="edge76" class="edge"><title>Node23&#45;&gt;Node30</title>
<path fill="none" stroke="midnightblue" d="M989.261,-174.497C972.39,-165.519 947.891,-152.484 928.826,-142.339"/>
<polygon fill="midnightblue" stroke="midnightblue" points="930.433,-139.229 919.961,-137.621 927.144,-145.409 930.433,-139.229"/>
</g>
<!-- Node31 -->
<g id="node70" class="node"><title>Node31</title>
<a xlink:href="ApplicationDescription_8h.htm" target="_top" xlink:title="ApplicationDescription.h">
<polygon fill="white" stroke="red" points="290,-58.5 290,-79.5 420,-79.5 420,-58.5 290,-58.5"/>
<text text-anchor="middle" x="355" y="-66.5" font-family="Helvetica,sans-Serif" font-size="10.00">ApplicationDescription.h</text>
</a>
</g>
<!-- Node23&#45;&gt;Node31 -->
<g id="edge78" class="edge"><title>Node23&#45;&gt;Node31</title>
<path fill="none" stroke="midnightblue" d="M950.825,-184.459C802.356,-182.555 417.98,-174.15 374,-138 360.02,-126.509 355.797,-105.758 354.755,-90.0043"/>
<polygon fill="midnightblue" stroke="midnightblue" points="358.242,-89.5177 354.463,-79.6198 351.245,-89.714 358.242,-89.5177"/>
</g>
<!-- Node34 -->
<g id="node80" class="node"><title>Node34</title>
<a xlink:href="SuspendBlocker_8h.htm" target="_top" xlink:title="SuspendBlocker.h">
<polygon fill="white" stroke="red" points="810.5,-58.5 810.5,-79.5 911.5,-79.5 911.5,-58.5 810.5,-58.5"/>
<text text-anchor="middle" x="861" y="-66.5" font-family="Helvetica,sans-Serif" font-size="10.00">SuspendBlocker.h</text>
</a>
</g>
<!-- Node23&#45;&gt;Node34 -->
<g id="edge92" class="edge"><title>Node23&#45;&gt;Node34</title>
<path fill="none" stroke="midnightblue" d="M1008.09,-174.445C1006.26,-159.524 1000.83,-132.273 985,-116 968.01,-98.5346 943.873,-87.4772 921.404,-80.5145"/>
<polygon fill="midnightblue" stroke="midnightblue" points="922.144,-77.0857 911.567,-77.685 920.209,-83.813 922.144,-77.0857"/>
</g>
<!-- Node35 -->
<g id="node84" class="node"><title>Node35</title>
<a xlink:href="VariantAnimation_8h.htm" target="_top" xlink:title="VariantAnimation.h">
<polygon fill="white" stroke="red" points="1004.5,-58.5 1004.5,-79.5 1109.5,-79.5 1109.5,-58.5 1004.5,-58.5"/>
<text text-anchor="middle" x="1057" y="-66.5" font-family="Helvetica,sans-Serif" font-size="10.00">VariantAnimation.h</text>
</a>
</g>
<!-- Node23&#45;&gt;Node35 -->
<g id="edge98" class="edge"><title>Node23&#45;&gt;Node35</title>
<path fill="none" stroke="midnightblue" d="M1062.92,-174.434C1083.1,-167.579 1104.02,-156.348 1116,-138 1128.82,-118.369 1106.82,-98.2555 1086.14,-84.8479"/>
<polygon fill="midnightblue" stroke="midnightblue" points="1087.82,-81.7714 1077.46,-79.5333 1084.16,-87.7409 1087.82,-81.7714"/>
</g>
<!-- Node36 -->
<g id="node88" class="node"><title>Node36</title>
<polygon fill="white" stroke="#bfbfbf" points="1127,-58.5 1127,-79.5 1219,-79.5 1219,-58.5 1127,-58.5"/>
<text text-anchor="middle" x="1173" y="-66.5" font-family="Helvetica,sans-Serif" font-size="10.00">CustomEvents.h</text>
</g>
<!-- Node23&#45;&gt;Node36 -->
<g id="edge104" class="edge"><title>Node23&#45;&gt;Node36</title>
<path fill="none" stroke="midnightblue" d="M1056.82,-174.44C1081.04,-167.258 1109.75,-155.752 1131,-138 1146.65,-124.925 1158.08,-104.436 1165.02,-89.1774"/>
<polygon fill="midnightblue" stroke="midnightblue" points="1168.4,-90.1754 1169.12,-79.6044 1161.97,-87.4243 1168.4,-90.1754"/>
</g>
<!-- Node37 -->
<g id="node90" class="node"><title>Node37</title>
<a xlink:href="StatusBar_8h.htm" target="_top" xlink:title="StatusBar.h">
<polygon fill="white" stroke="black" points="1036.5,-116.5 1036.5,-137.5 1107.5,-137.5 1107.5,-116.5 1036.5,-116.5"/>
<text text-anchor="middle" x="1072" y="-124.5" font-family="Helvetica,sans-Serif" font-size="10.00">StatusBar.h</text>
</a>
</g>
<!-- Node23&#45;&gt;Node37 -->
<g id="edge106" class="edge"><title>Node23&#45;&gt;Node37</title>
<path fill="none" stroke="midnightblue" d="M1020.56,-174.362C1029.61,-166.023 1042.41,-154.242 1052.97,-144.516"/>
<polygon fill="midnightblue" stroke="midnightblue" points="1055.53,-146.919 1060.52,-137.571 1050.79,-141.769 1055.53,-146.919"/>
</g>
<!-- Node31&#45;&gt;Node2 -->
<g id="edge80" class="edge"><title>Node31&#45;&gt;Node2</title>
<path fill="none" stroke="midnightblue" d="M420.331,-58.9777C423.258,-58.6268 426.158,-58.2984 429,-58 464.792,-54.2416 989.094,-22.9425 1145.98,-13.614"/>
<polygon fill="midnightblue" stroke="midnightblue" points="1146.42,-17.0937 1156.2,-13.0064 1146.01,-10.106 1146.42,-17.0937"/>
</g>
<!-- Node31&#45;&gt;Node10 -->
<g id="edge84" class="edge"><title>Node31&#45;&gt;Node10</title>
<path fill="none" stroke="midnightblue" d="M397.738,-58.4966C443.141,-47.3382 514.059,-29.9093 556.187,-19.5558"/>
<polygon fill="midnightblue" stroke="midnightblue" points="557.114,-22.9321 565.99,-17.1465 555.444,-16.1344 557.114,-22.9321"/>
</g>
<!-- Node31&#45;&gt;Node11 -->
<g id="edge82" class="edge"><title>Node31&#45;&gt;Node11</title>
<path fill="none" stroke="midnightblue" d="M374.739,-58.4966C391.61,-49.5194 416.109,-36.4835 435.174,-26.3387"/>
<polygon fill="midnightblue" stroke="midnightblue" points="436.856,-29.4086 444.039,-21.6212 433.567,-23.2289 436.856,-29.4086"/>
</g>
<!-- Node32 -->
<g id="node75" class="node"><title>Node32</title>
<polygon fill="white" stroke="#bfbfbf" points="363.5,-0.5 363.5,-21.5 394.5,-21.5 394.5,-0.5 363.5,-0.5"/>
<text text-anchor="middle" x="379" y="-8.5" font-family="Helvetica,sans-Serif" font-size="10.00">set</text>
</g>
<!-- Node31&#45;&gt;Node32 -->
<g id="edge86" class="edge"><title>Node31&#45;&gt;Node32</title>
<path fill="none" stroke="midnightblue" d="M359.402,-58.3619C362.582,-50.6766 366.972,-40.0686 370.79,-30.8399"/>
<polygon fill="midnightblue" stroke="midnightblue" points="374.036,-32.1491 374.626,-21.5707 367.568,-29.4726 374.036,-32.1491"/>
</g>
<!-- Node33 -->
<g id="node77" class="node"><title>Node33</title>
<polygon fill="white" stroke="#bfbfbf" points="317.5,-0.5 317.5,-21.5 346.5,-21.5 346.5,-0.5 317.5,-0.5"/>
<text text-anchor="middle" x="332" y="-8.5" font-family="Helvetica,sans-Serif" font-size="10.00">list</text>
</g>
<!-- Node31&#45;&gt;Node33 -->
<g id="edge88" class="edge"><title>Node31&#45;&gt;Node33</title>
<path fill="none" stroke="midnightblue" d="M350.781,-58.3619C347.766,-50.7584 343.617,-40.294 339.985,-31.1349"/>
<polygon fill="midnightblue" stroke="midnightblue" points="343.132,-29.5762 336.192,-21.5707 336.625,-32.1567 343.132,-29.5762"/>
</g>
<!-- Node34&#45;&gt;Node2 -->
<g id="edge94" class="edge"><title>Node34&#45;&gt;Node2</title>
<path fill="none" stroke="midnightblue" d="M911.685,-60.0646C975.923,-48.7401 1085.58,-29.4089 1146.3,-18.704"/>
<polygon fill="midnightblue" stroke="midnightblue" points="1147.09,-22.119 1156.33,-16.9359 1145.87,-15.2253 1147.09,-22.119"/>
</g>
<!-- Node34&#45;&gt;Node12 -->
<g id="edge96" class="edge"><title>Node34&#45;&gt;Node12</title>
<path fill="none" stroke="midnightblue" d="M859.533,-58.3619C858.506,-50.9219 857.102,-40.7427 855.859,-31.7276"/>
<polygon fill="midnightblue" stroke="midnightblue" points="859.292,-30.9986 854.458,-21.5707 852.357,-31.9551 859.292,-30.9986"/>
</g>
<!-- Node35&#45;&gt;Node2 -->
<g id="edge100" class="edge"><title>Node35&#45;&gt;Node2</title>
<path fill="none" stroke="midnightblue" d="M1081.09,-58.4966C1102.14,-49.3154 1132.93,-35.8889 1156.4,-25.6516"/>
<polygon fill="midnightblue" stroke="midnightblue" points="1157.88,-28.8268 1165.64,-21.6212 1155.08,-22.4104 1157.88,-28.8268"/>
</g>
<!-- Node37&#45;&gt;Node8 -->
<g id="edge108" class="edge"><title>Node37&#45;&gt;Node8</title>
<path fill="none" stroke="midnightblue" d="M1036.4,-121.918C986.426,-114.541 892.449,-99.7845 803.367,-80.1607"/>
<polygon fill="midnightblue" stroke="midnightblue" points="803.893,-76.6923 793.371,-77.9334 802.371,-83.5247 803.893,-76.6923"/>
</g>
<!-- Node37&#45;&gt;Node13 -->
<g id="edge112" class="edge"><title>Node37&#45;&gt;Node13</title>
<path fill="none" stroke="midnightblue" d="M1050.23,-116.35C1034.18,-107.863 1012.39,-94.9492 996,-80 979.999,-65.4067 965.507,-45.3278 955.911,-30.592"/>
<polygon fill="midnightblue" stroke="midnightblue" points="958.649,-28.3726 950.346,-21.7915 952.733,-32.114 958.649,-28.3726"/>
</g>
<!-- Node37&#45;&gt;Node35 -->
<g id="edge114" class="edge"><title>Node37&#45;&gt;Node35</title>
<path fill="none" stroke="midnightblue" d="M1069.25,-116.362C1067.3,-108.84 1064.63,-98.5187 1062.28,-89.4308"/>
<polygon fill="midnightblue" stroke="midnightblue" points="1065.63,-88.3758 1059.73,-79.5707 1058.85,-90.1285 1065.63,-88.3758"/>
</g>
<!-- Node37&#45;&gt;Node36 -->
<g id="edge116" class="edge"><title>Node37&#45;&gt;Node36</title>
<path fill="none" stroke="midnightblue" d="M1090.52,-116.362C1105.9,-107.532 1128,-94.844 1145.45,-84.8224"/>
<polygon fill="midnightblue" stroke="midnightblue" points="1147.66,-87.5857 1154.59,-79.5707 1144.18,-81.5154 1147.66,-87.5857"/>
</g>
<!-- Node37&#45;&gt;Node38 -->
<g id="edge110" class="edge"><title>Node37&#45;&gt;Node38</title>
<path fill="none" stroke="midnightblue" d="M1107.13,-116.497C1140.72,-106.454 1191.3,-91.3326 1226.33,-80.861"/>
<polygon fill="midnightblue" stroke="midnightblue" points="1227.64,-84.123 1236.21,-77.9052 1225.63,-77.4163 1227.64,-84.123"/>
</g>
<!-- Node48&#45;&gt;Node2 -->
<g id="edge140" class="edge"><title>Node48&#45;&gt;Node2</title>
<path fill="none" stroke="midnightblue" d="M2120.87,-116.45C1907.12,-92.2366 1387.93,-33.4218 1233.82,-15.9643"/>
<polygon fill="midnightblue" stroke="midnightblue" points="1234.12,-12.4753 1223.79,-14.8274 1233.33,-19.4308 1234.12,-12.4753"/>
</g>
<!-- Node49&#45;&gt;Node2 -->
<g id="edge144" class="edge"><title>Node49&#45;&gt;Node2</title>
<path fill="none" stroke="midnightblue" d="M2379.33,-233.329C2382.26,-232.874 2385.16,-232.429 2388,-232 2503.35,-214.561 2715.75,-265.99 2644,-174 2554.76,-59.5885 1466.54,-19.5608 1233.68,-12.2789"/>
<polygon fill="midnightblue" stroke="midnightblue" points="1233.66,-8.77665 1223.55,-11.9662 1233.44,-15.7733 1233.66,-8.77665"/>
</g>
</g>
</svg>
