<?xml version="1.0" encoding="UTF-8" standalone="no"?>
<!DOCTYPE svg PUBLIC "-//W3C//DTD SVG 1.1//EN"
 "http://www.w3.org/Graphics/SVG/1.1/DTD/svg11.dtd">
<!-- Generated by graphviz version 2.26.3 (20100126.1600)
 -->
<!-- Title: qtjsonabstract.h Pages: 1 -->
<svg width="276pt" height="88pt"
 viewBox="0.00 0.00 276.00 88.00" xmlns="http://www.w3.org/2000/svg" xmlns:xlink="http://www.w3.org/1999/xlink">
<g id="graph1" class="graph" transform="scale(1 1) rotate(0) translate(4 84)">
<title>qtjsonabstract.h</title>
<polygon fill="white" stroke="white" points="-4,5 -4,-84 273,-84 273,5 -4,5"/>
<!-- Node1 -->
<g id="node1" class="node"><title>Node1</title>
<polygon fill="#bfbfbf" stroke="black" points="76.5,-58.5 76.5,-79.5 167.5,-79.5 167.5,-58.5 76.5,-58.5"/>
<text text-anchor="middle" x="122" y="-66.5" font-family="Helvetica,sans-Serif" font-size="10.00">qtjsonabstract.h</text>
</g>
<!-- Node2 -->
<g id="node3" class="node"><title>Node2</title>
<a xlink:href="qtjsonabstract_8cpp.htm" target="_top" xlink:title="qtjsonabstract.cpp">
<polygon fill="white" stroke="black" points="0,-0.5 0,-21.5 102,-21.5 102,-0.5 0,-0.5"/>
<text text-anchor="middle" x="51" y="-8.5" font-family="Helvetica,sans-Serif" font-size="10.00">qtjsonabstract.cpp</text>
</a>
</g>
<!-- Node1&#45;&gt;Node2 -->
<g id="edge2" class="edge"><title>Node1&#45;&gt;Node2</title>
<path fill="none" stroke="midnightblue" d="M101.159,-51.9753C89.1093,-42.1315 74.3254,-30.0545 63.9399,-21.5707"/>
<polygon fill="midnightblue" stroke="midnightblue" points="99.0188,-54.746 108.978,-58.3619 103.447,-49.3249 99.0188,-54.746"/>
</g>
<!-- Node3 -->
<g id="node5" class="node"><title>Node3</title>
<a xlink:href="sysmgrdebuggerservice_8cpp.htm" target="_top" xlink:title="sysmgrdebuggerservice.cpp">
<polygon fill="white" stroke="black" points="120,-0.5 120,-21.5 268,-21.5 268,-0.5 120,-0.5"/>
<text text-anchor="middle" x="194" y="-8.5" font-family="Helvetica,sans-Serif" font-size="10.00">sysmgrdebuggerservice.cpp</text>
</a>
</g>
<!-- Node1&#45;&gt;Node3 -->
<g id="edge4" class="edge"><title>Node1&#45;&gt;Node3</title>
<path fill="none" stroke="midnightblue" d="M143.134,-51.9753C155.354,-42.1315 170.346,-30.0545 180.878,-21.5707"/>
<polygon fill="midnightblue" stroke="midnightblue" points="140.798,-49.3629 135.206,-58.3619 145.189,-54.8142 140.798,-49.3629"/>
</g>
</g>
</svg>
