<?xml version="1.0" encoding="UTF-8" standalone="no"?>
<!DOCTYPE svg PUBLIC "-//W3C//DTD SVG 1.1//EN"
 "http://www.w3.org/Graphics/SVG/1.1/DTD/svg11.dtd">
<!-- Generated by graphviz version 2.26.3 (20100126.1600)
 -->
<!-- Title: QuicklaunchLayout.h Pages: 1 -->
<svg width="204pt" height="88pt"
 viewBox="0.00 0.00 204.00 88.00" xmlns="http://www.w3.org/2000/svg" xmlns:xlink="http://www.w3.org/1999/xlink">
<g id="graph1" class="graph" transform="scale(1 1) rotate(0) translate(4 84)">
<title>QuicklaunchLayout.h</title>
<polygon fill="white" stroke="white" points="-4,5 -4,-84 201,-84 201,5 -4,5"/>
<!-- Node1 -->
<g id="node1" class="node"><title>Node1</title>
<polygon fill="#bfbfbf" stroke="black" points="50.5,-58.5 50.5,-79.5 163.5,-79.5 163.5,-58.5 50.5,-58.5"/>
<text text-anchor="middle" x="107" y="-66.5" font-family="Helvetica,sans-Serif" font-size="10.00">QuicklaunchLayout.h</text>
</g>
<!-- Node2 -->
<g id="node3" class="node"><title>Node2</title>
<polygon fill="white" stroke="#bfbfbf" points="-0.5,-0.5 -0.5,-21.5 66.5,-21.5 66.5,-0.5 -0.5,-0.5"/>
<text text-anchor="middle" x="33" y="-8.5" font-family="Helvetica,sans-Serif" font-size="10.00">Common.h</text>
</g>
<!-- Node1&#45;&gt;Node2 -->
<g id="edge2" class="edge"><title>Node1&#45;&gt;Node2</title>
<path fill="none" stroke="midnightblue" d="M93.4273,-58.3619C82.5788,-49.859 67.1657,-37.7785 54.6215,-27.9466"/>
<polygon fill="midnightblue" stroke="midnightblue" points="56.5164,-24.9848 46.4867,-21.5707 52.1982,-30.4942 56.5164,-24.9848"/>
</g>
<!-- Node3 -->
<g id="node5" class="node"><title>Node3</title>
<polygon fill="white" stroke="#bfbfbf" points="83.5,-0.5 83.5,-21.5 130.5,-21.5 130.5,-0.5 83.5,-0.5"/>
<text text-anchor="middle" x="107" y="-8.5" font-family="Helvetica,sans-Serif" font-size="10.00">QRect</text>
</g>
<!-- Node1&#45;&gt;Node3 -->
<g id="edge4" class="edge"><title>Node1&#45;&gt;Node3</title>
<path fill="none" stroke="midnightblue" d="M107,-58.3619C107,-50.9219 107,-40.7427 107,-31.7276"/>
<polygon fill="midnightblue" stroke="midnightblue" points="110.5,-31.5706 107,-21.5707 103.5,-31.5707 110.5,-31.5706"/>
</g>
<!-- Node4 -->
<g id="node7" class="node"><title>Node4</title>
<polygon fill="white" stroke="#bfbfbf" points="147.5,-0.5 147.5,-21.5 196.5,-21.5 196.5,-0.5 147.5,-0.5"/>
<text text-anchor="middle" x="172" y="-8.5" font-family="Helvetica,sans-Serif" font-size="10.00">QPoint</text>
</g>
<!-- Node1&#45;&gt;Node4 -->
<g id="edge6" class="edge"><title>Node1&#45;&gt;Node4</title>
<path fill="none" stroke="midnightblue" d="M118.922,-58.3619C128.359,-49.9408 141.73,-38.0105 152.69,-28.2308"/>
<polygon fill="midnightblue" stroke="midnightblue" points="155.022,-30.8401 160.154,-21.5707 150.362,-25.6171 155.022,-30.8401"/>
</g>
</g>
</svg>
