<?xml version="1.0" encoding="UTF-8" standalone="no"?>
<!DOCTYPE svg PUBLIC "-//W3C//DTD SVG 1.1//EN"
 "http://www.w3.org/Graphics/SVG/1.1/DTD/svg11.dtd">
<!-- Generated by graphviz version 2.26.3 (20100126.1600)
 -->
<!-- Title: QuicklaunchLayout.cpp Pages: 1 -->
<svg width="206pt" height="146pt"
 viewBox="0.00 0.00 206.00 146.00" xmlns="http://www.w3.org/2000/svg" xmlns:xlink="http://www.w3.org/1999/xlink">
<g id="graph1" class="graph" transform="scale(1 1) rotate(0) translate(4 142)">
<title>QuicklaunchLayout.cpp</title>
<polygon fill="white" stroke="white" points="-4,5 -4,-142 203,-142 203,5 -4,5"/>
<!-- Node1 -->
<g id="node1" class="node"><title>Node1</title>
<polygon fill="#bfbfbf" stroke="black" points="7.5,-116.5 7.5,-137.5 132.5,-137.5 132.5,-116.5 7.5,-116.5"/>
<text text-anchor="middle" x="70" y="-124.5" font-family="Helvetica,sans-Serif" font-size="10.00">QuicklaunchLayout.cpp</text>
</g>
<!-- Node2 -->
<g id="node3" class="node"><title>Node2</title>
<polygon fill="white" stroke="#bfbfbf" points="-0.5,-0.5 -0.5,-21.5 66.5,-21.5 66.5,-0.5 -0.5,-0.5"/>
<text text-anchor="middle" x="33" y="-8.5" font-family="Helvetica,sans-Serif" font-size="10.00">Common.h</text>
</g>
<!-- Node1&#45;&gt;Node2 -->
<g id="edge2" class="edge"><title>Node1&#45;&gt;Node2</title>
<path fill="none" stroke="midnightblue" d="M63.6911,-116.135C58.5279,-106.82 51.3852,-92.9017 47,-80 41.5993,-64.1106 37.9647,-45.4179 35.7552,-31.4991"/>
<polygon fill="midnightblue" stroke="midnightblue" points="39.203,-30.8876 34.2823,-21.5048 32.2778,-31.9083 39.203,-30.8876"/>
</g>
<!-- Node3 -->
<g id="node5" class="node"><title>Node3</title>
<a xlink:href="QuicklaunchLayout_8h.htm" target="_top" xlink:title="QuicklaunchLayout.h">
<polygon fill="white" stroke="black" points="55.5,-58.5 55.5,-79.5 168.5,-79.5 168.5,-58.5 55.5,-58.5"/>
<text text-anchor="middle" x="112" y="-66.5" font-family="Helvetica,sans-Serif" font-size="10.00">QuicklaunchLayout.h</text>
</a>
</g>
<!-- Node1&#45;&gt;Node3 -->
<g id="edge4" class="edge"><title>Node1&#45;&gt;Node3</title>
<path fill="none" stroke="midnightblue" d="M77.7034,-116.362C83.4463,-108.431 91.4428,-97.3885 98.2699,-87.9606"/>
<polygon fill="midnightblue" stroke="midnightblue" points="101.315,-89.7229 104.345,-79.5707 95.6454,-85.6173 101.315,-89.7229"/>
</g>
<!-- Node3&#45;&gt;Node2 -->
<g id="edge6" class="edge"><title>Node3&#45;&gt;Node2</title>
<path fill="none" stroke="midnightblue" d="M97.5102,-58.3619C85.8173,-49.7773 69.1573,-37.5459 55.6969,-27.6636"/>
<polygon fill="midnightblue" stroke="midnightblue" points="57.5301,-24.6675 47.398,-21.5707 53.3874,-30.31 57.5301,-24.6675"/>
</g>
<!-- Node4 -->
<g id="node8" class="node"><title>Node4</title>
<polygon fill="white" stroke="#bfbfbf" points="85.5,-0.5 85.5,-21.5 132.5,-21.5 132.5,-0.5 85.5,-0.5"/>
<text text-anchor="middle" x="109" y="-8.5" font-family="Helvetica,sans-Serif" font-size="10.00">QRect</text>
</g>
<!-- Node3&#45;&gt;Node4 -->
<g id="edge8" class="edge"><title>Node3&#45;&gt;Node4</title>
<path fill="none" stroke="midnightblue" d="M111.45,-58.3619C111.065,-50.9219 110.538,-40.7427 110.072,-31.7276"/>
<polygon fill="midnightblue" stroke="midnightblue" points="113.559,-31.3765 109.547,-21.5707 106.568,-31.7381 113.559,-31.3765"/>
</g>
<!-- Node5 -->
<g id="node10" class="node"><title>Node5</title>
<polygon fill="white" stroke="#bfbfbf" points="149.5,-0.5 149.5,-21.5 198.5,-21.5 198.5,-0.5 149.5,-0.5"/>
<text text-anchor="middle" x="174" y="-8.5" font-family="Helvetica,sans-Serif" font-size="10.00">QPoint</text>
</g>
<!-- Node3&#45;&gt;Node5 -->
<g id="edge10" class="edge"><title>Node3&#45;&gt;Node5</title>
<path fill="none" stroke="midnightblue" d="M123.372,-58.3619C132.286,-50.0226 144.879,-38.2418 155.276,-28.5162"/>
<polygon fill="midnightblue" stroke="midnightblue" points="157.789,-30.9582 162.7,-21.5707 153.007,-25.8463 157.789,-30.9582"/>
</g>
</g>
</svg>
