<?xml version="1.0" encoding="UTF-8" standalone="no"?>
<!DOCTYPE svg PUBLIC "-//W3C//DTD SVG 1.1//EN"
 "http://www.w3.org/Graphics/SVG/1.1/DTD/svg11.dtd">
<!-- Generated by graphviz version 2.26.3 (20100126.1600)
 -->
<!-- Title: renderedlabel.h Pages: 1 -->
<svg width="382pt" height="88pt"
 viewBox="0.00 0.00 382.00 88.00" xmlns="http://www.w3.org/2000/svg" xmlns:xlink="http://www.w3.org/1999/xlink">
<g id="graph1" class="graph" transform="scale(1 1) rotate(0) translate(4 84)">
<title>renderedlabel.h</title>
<polygon fill="white" stroke="white" points="-4,5 -4,-84 379,-84 379,5 -4,5"/>
<!-- Node1 -->
<g id="node1" class="node"><title>Node1</title>
<polygon fill="#bfbfbf" stroke="black" points="155,-58.5 155,-79.5 245,-79.5 245,-58.5 155,-58.5"/>
<text text-anchor="middle" x="200" y="-66.5" font-family="Helvetica,sans-Serif" font-size="10.00">renderedlabel.h</text>
</g>
<!-- Node2 -->
<g id="node3" class="node"><title>Node2</title>
<polygon fill="white" stroke="#bfbfbf" points="-0.5,-0.5 -0.5,-21.5 58.5,-21.5 58.5,-0.5 -0.5,-0.5"/>
<text text-anchor="middle" x="29" y="-8.5" font-family="Helvetica,sans-Serif" font-size="10.00">QPixmap</text>
</g>
<!-- Node1&#45;&gt;Node2 -->
<g id="edge2" class="edge"><title>Node1&#45;&gt;Node2</title>
<path fill="none" stroke="midnightblue" d="M169.033,-58.4966C140.721,-48.8938 98.7177,-34.6469 68.1009,-24.2623"/>
<polygon fill="midnightblue" stroke="midnightblue" points="69.1866,-20.9347 58.5922,-21.0371 66.9381,-27.5638 69.1866,-20.9347"/>
</g>
<!-- Node3 -->
<g id="node5" class="node"><title>Node3</title>
<polygon fill="white" stroke="#bfbfbf" points="75.5,-0.5 75.5,-21.5 128.5,-21.5 128.5,-0.5 75.5,-0.5"/>
<text text-anchor="middle" x="102" y="-8.5" font-family="Helvetica,sans-Serif" font-size="10.00">QString</text>
</g>
<!-- Node1&#45;&gt;Node3 -->
<g id="edge4" class="edge"><title>Node1&#45;&gt;Node3</title>
<path fill="none" stroke="midnightblue" d="M182.025,-58.3619C167.106,-49.532 145.667,-36.844 128.734,-26.8224"/>
<polygon fill="midnightblue" stroke="midnightblue" points="130.249,-23.6519 119.861,-21.5707 126.684,-29.6759 130.249,-23.6519"/>
</g>
<!-- Node4 -->
<g id="node7" class="node"><title>Node4</title>
<polygon fill="white" stroke="#bfbfbf" points="146,-0.5 146,-21.5 192,-21.5 192,-0.5 146,-0.5"/>
<text text-anchor="middle" x="169" y="-8.5" font-family="Helvetica,sans-Serif" font-size="10.00">QFont</text>
</g>
<!-- Node1&#45;&gt;Node4 -->
<g id="edge6" class="edge"><title>Node1&#45;&gt;Node4</title>
<path fill="none" stroke="midnightblue" d="M194.314,-58.3619C190.163,-50.5949 184.416,-39.8426 179.447,-30.5458"/>
<polygon fill="midnightblue" stroke="midnightblue" points="182.45,-28.7401 174.65,-21.5707 176.277,-32.0398 182.45,-28.7401"/>
</g>
<!-- Node5 -->
<g id="node9" class="node"><title>Node5</title>
<polygon fill="white" stroke="#bfbfbf" points="210,-0.5 210,-21.5 254,-21.5 254,-0.5 210,-0.5"/>
<text text-anchor="middle" x="232" y="-8.5" font-family="Helvetica,sans-Serif" font-size="10.00">QPen</text>
</g>
<!-- Node1&#45;&gt;Node5 -->
<g id="edge8" class="edge"><title>Node1&#45;&gt;Node5</title>
<path fill="none" stroke="midnightblue" d="M205.869,-58.3619C210.155,-50.5949 216.087,-39.8426 221.216,-30.5458"/>
<polygon fill="midnightblue" stroke="midnightblue" points="224.402,-32.0172 226.168,-21.5707 218.273,-28.6357 224.402,-32.0172"/>
</g>
<!-- Node6 -->
<g id="node11" class="node"><title>Node6</title>
<polygon fill="white" stroke="#bfbfbf" points="271.5,-0.5 271.5,-21.5 316.5,-21.5 316.5,-0.5 271.5,-0.5"/>
<text text-anchor="middle" x="294" y="-8.5" font-family="Helvetica,sans-Serif" font-size="10.00">QSize</text>
</g>
<!-- Node1&#45;&gt;Node6 -->
<g id="edge10" class="edge"><title>Node1&#45;&gt;Node6</title>
<path fill="none" stroke="midnightblue" d="M217.241,-58.3619C231.552,-49.532 252.115,-36.844 268.357,-26.8224"/>
<polygon fill="midnightblue" stroke="midnightblue" points="270.196,-29.8004 276.868,-21.5707 266.52,-23.8431 270.196,-29.8004"/>
</g>
<!-- Node7 -->
<g id="node13" class="node"><title>Node7</title>
<polygon fill="white" stroke="#bfbfbf" points="333.5,-0.5 333.5,-21.5 374.5,-21.5 374.5,-0.5 333.5,-0.5"/>
<text text-anchor="middle" x="354" y="-8.5" font-family="Helvetica,sans-Serif" font-size="10.00">QList</text>
</g>
<!-- Node1&#45;&gt;Node7 -->
<g id="edge12" class="edge"><title>Node1&#45;&gt;Node7</title>
<path fill="none" stroke="midnightblue" d="M228.306,-58.3835C251.668,-49.6158 285.93,-36.7437 323.727,-22.4753"/>
<polygon fill="midnightblue" stroke="midnightblue" points="325.289,-25.6265 333.408,-18.8193 322.816,-19.0779 325.289,-25.6265"/>
</g>
</g>
</svg>
