<?xml version="1.0" encoding="UTF-8" standalone="no"?>
<!DOCTYPE svg PUBLIC "-//W3C//DTD SVG 1.1//EN"
 "http://www.w3.org/Graphics/SVG/1.1/DTD/svg11.dtd">
<!-- Generated by graphviz version 2.26.3 (20100126.1600)
 -->
<!-- Title: reorderableiconlayout.h Pages: 1 -->
<svg width="1626pt" height="320pt"
 viewBox="0.00 0.00 1626.00 320.00" xmlns="http://www.w3.org/2000/svg" xmlns:xlink="http://www.w3.org/1999/xlink">
<g id="graph1" class="graph" transform="scale(1 1) rotate(0) translate(4 316)">
<title>reorderableiconlayout.h</title>
<polygon fill="white" stroke="white" points="-4,5 -4,-316 1623,-316 1623,5 -4,5"/>
<!-- Node1 -->
<g id="node1" class="node"><title>Node1</title>
<polygon fill="#bfbfbf" stroke="black" points="655.5,-290.5 655.5,-311.5 782.5,-311.5 782.5,-290.5 655.5,-290.5"/>
<text text-anchor="middle" x="719" y="-298.5" font-family="Helvetica,sans-Serif" font-size="10.00">reorderableiconlayout.h</text>
</g>
<!-- Node2 -->
<g id="node3" class="node"><title>Node2</title>
<a xlink:href="iconlayout_8h.htm" target="_top" xlink:title="iconlayout.h">
<polygon fill="white" stroke="black" points="366,-232.5 366,-253.5 438,-253.5 438,-232.5 366,-232.5"/>
<text text-anchor="middle" x="402" y="-240.5" font-family="Helvetica,sans-Serif" font-size="10.00">iconlayout.h</text>
</a>
</g>
<!-- Node1&#45;&gt;Node2 -->
<g id="edge2" class="edge"><title>Node1&#45;&gt;Node2</title>
<path fill="none" stroke="midnightblue" d="M661.594,-290.497C600.454,-279.31 504.872,-261.822 448.338,-251.478"/>
<polygon fill="midnightblue" stroke="midnightblue" points="448.72,-247.99 438.253,-249.633 447.46,-254.876 448.72,-247.99"/>
</g>
<!-- Node4 -->
<g id="node7" class="node"><title>Node4</title>
<polygon fill="white" stroke="#bfbfbf" points="955.5,-0.5 955.5,-21.5 996.5,-21.5 996.5,-0.5 955.5,-0.5"/>
<text text-anchor="middle" x="976" y="-8.5" font-family="Helvetica,sans-Serif" font-size="10.00">QList</text>
</g>
<!-- Node1&#45;&gt;Node4 -->
<g id="edge116" class="edge"><title>Node1&#45;&gt;Node4</title>
<path fill="none" stroke="midnightblue" d="M720.822,-290.201C726.435,-259.707 745.95,-171.561 792,-116 793.928,-113.674 881.374,-59.4943 884,-58 904.255,-46.4726 927.65,-34.5387 945.779,-25.5807"/>
<polygon fill="midnightblue" stroke="midnightblue" points="947.819,-28.4783 955.256,-20.9317 944.736,-22.1938 947.819,-28.4783"/>
</g>
<!-- Node5 -->
<g id="node9" class="node"><title>Node5</title>
<polygon fill="white" stroke="#bfbfbf" points="1186.5,-0.5 1186.5,-21.5 1245.5,-21.5 1245.5,-0.5 1186.5,-0.5"/>
<text text-anchor="middle" x="1216" y="-8.5" font-family="Helvetica,sans-Serif" font-size="10.00">QPointer</text>
</g>
<!-- Node1&#45;&gt;Node5 -->
<g id="edge124" class="edge"><title>Node1&#45;&gt;Node5</title>
<path fill="none" stroke="midnightblue" d="M782.536,-297.819C963.388,-287.924 1468,-254.123 1468,-185 1468,-185 1468,-185 1468,-127 1468,-87.2228 1444.73,-79.0762 1411,-58 1385.36,-41.9796 1304.78,-26.0677 1255.59,-17.4883"/>
<polygon fill="midnightblue" stroke="midnightblue" points="1256.05,-14.0161 1245.61,-15.7715 1254.87,-20.915 1256.05,-14.0161"/>
</g>
<!-- Node8 -->
<g id="node15" class="node"><title>Node8</title>
<polygon fill="white" stroke="#bfbfbf" points="48.5,-0.5 48.5,-21.5 103.5,-21.5 103.5,-0.5 48.5,-0.5"/>
<text text-anchor="middle" x="76" y="-8.5" font-family="Helvetica,sans-Serif" font-size="10.00">QDebug</text>
</g>
<!-- Node1&#45;&gt;Node8 -->
<g id="edge120" class="edge"><title>Node1&#45;&gt;Node8</title>
<path fill="none" stroke="midnightblue" d="M655.375,-297.421C534.752,-290.293 277.085,-273.335 190,-254 102.295,-234.527 0,-274.84 0,-185 0,-185 0,-185 0,-127 0,-86.5104 32.7975,-49.1585 55.3017,-28.2949"/>
<polygon fill="midnightblue" stroke="midnightblue" points="57.6399,-30.8993 62.7618,-21.6247 52.9742,-25.681 57.6399,-30.8993"/>
</g>
<!-- Node15 -->
<g id="node30" class="node"><title>Node15</title>
<polygon fill="white" stroke="#bfbfbf" points="1407,-0.5 1407,-21.5 1453,-21.5 1453,-0.5 1407,-0.5"/>
<text text-anchor="middle" x="1430" y="-8.5" font-family="Helvetica,sans-Serif" font-size="10.00">QUuid</text>
</g>
<!-- Node1&#45;&gt;Node15 -->
<g id="edge126" class="edge"><title>Node1&#45;&gt;Node15</title>
<path fill="none" stroke="midnightblue" d="M782.708,-298.732C976.219,-291.006 1544,-261.794 1544,-185 1544,-185 1544,-185 1544,-127 1544,-80.0264 1495.86,-45.1175 1462.14,-26.4297"/>
<polygon fill="midnightblue" stroke="midnightblue" points="1463.54,-23.2078 1453.07,-21.5923 1460.25,-29.385 1463.54,-23.2078"/>
</g>
<!-- Node22 -->
<g id="node46" class="node"><title>Node22</title>
<polygon fill="white" stroke="#bfbfbf" points="247.5,-0.5 247.5,-21.5 300.5,-21.5 300.5,-0.5 247.5,-0.5"/>
<text text-anchor="middle" x="274" y="-8.5" font-family="Helvetica,sans-Serif" font-size="10.00">QString</text>
</g>
<!-- Node1&#45;&gt;Node22 -->
<g id="edge118" class="edge"><title>Node1&#45;&gt;Node22</title>
<path fill="none" stroke="midnightblue" d="M655.448,-295.062C503.657,-280.225 129.989,-239.582 95,-196 40.3323,-127.907 173.389,-55.9868 239.458,-25.7487"/>
<polygon fill="midnightblue" stroke="midnightblue" points="241.006,-28.8902 248.689,-21.5953 238.133,-22.5066 241.006,-28.8902"/>
</g>
<!-- Node25 -->
<g id="node60" class="node"><title>Node25</title>
<a xlink:href="icon_8h.htm" target="_top" xlink:title="icon.h">
<polygon fill="white" stroke="black" points="814,-174.5 814,-195.5 858,-195.5 858,-174.5 814,-174.5"/>
<text text-anchor="middle" x="836" y="-182.5" font-family="Helvetica,sans-Serif" font-size="10.00">icon.h</text>
</a>
</g>
<!-- Node1&#45;&gt;Node25 -->
<g id="edge70" class="edge"><title>Node1&#45;&gt;Node25</title>
<path fill="none" stroke="midnightblue" d="M729.797,-290.295C749.91,-270.355 793.298,-227.337 817.94,-202.906"/>
<polygon fill="midnightblue" stroke="midnightblue" points="820.592,-205.205 825.229,-195.679 815.663,-200.234 820.592,-205.205"/>
</g>
<!-- Node35 -->
<g id="node96" class="node"><title>Node35</title>
<polygon fill="white" stroke="#bfbfbf" points="1572,-232.5 1572,-253.5 1618,-253.5 1618,-232.5 1572,-232.5"/>
<text text-anchor="middle" x="1595" y="-240.5" font-family="Helvetica,sans-Serif" font-size="10.00">QMap</text>
</g>
<!-- Node1&#45;&gt;Node35 -->
<g id="edge122" class="edge"><title>Node1&#45;&gt;Node35</title>
<path fill="none" stroke="midnightblue" d="M782.791,-299.35C951.945,-294.667 1409.16,-279.928 1558,-254 1559.26,-253.78 1560.54,-253.532 1561.83,-253.26"/>
<polygon fill="midnightblue" stroke="midnightblue" points="1562.84,-256.616 1571.71,-250.819 1561.16,-249.821 1562.84,-256.616"/>
</g>
<!-- Node3 -->
<g id="node5" class="node"><title>Node3</title>
<polygon fill="white" stroke="#bfbfbf" points="223.5,-58.5 223.5,-79.5 278.5,-79.5 278.5,-58.5 223.5,-58.5"/>
<text text-anchor="middle" x="251" y="-66.5" font-family="Helvetica,sans-Serif" font-size="10.00">QObject</text>
</g>
<!-- Node2&#45;&gt;Node3 -->
<g id="edge4" class="edge"><title>Node2&#45;&gt;Node3</title>
<path fill="none" stroke="midnightblue" d="M365.974,-239.849C313.797,-234.455 221.21,-221.481 201,-196 174.444,-162.519 210.118,-113.183 233.522,-86.9474"/>
<polygon fill="midnightblue" stroke="midnightblue" points="236.102,-89.3133 240.309,-79.5899 230.956,-84.567 236.102,-89.3133"/>
</g>
<!-- Node2&#45;&gt;Node4 -->
<g id="edge6" class="edge"><title>Node2&#45;&gt;Node4</title>
<path fill="none" stroke="midnightblue" d="M438.101,-236.859C471.475,-230.156 521.695,-217.416 561,-196 608.876,-169.913 605.305,-140.523 654,-116 718.712,-83.4105 744.883,-104.694 813,-80 833.182,-72.6837 836.426,-66.8143 856,-58 864.528,-54.1599 913.107,-35.2864 945.781,-22.6553"/>
<polygon fill="midnightblue" stroke="midnightblue" points="947.282,-25.8277 955.349,-18.9593 944.759,-19.298 947.282,-25.8277"/>
</g>
<!-- Node2&#45;&gt;Node5 -->
<g id="edge8" class="edge"><title>Node2&#45;&gt;Node5</title>
<path fill="none" stroke="midnightblue" d="M438.086,-241.319C592.64,-233.755 1193.33,-200.483 1247,-138 1273.57,-107.064 1247.57,-56.987 1229.71,-29.8808"/>
<polygon fill="midnightblue" stroke="midnightblue" points="1232.59,-27.8971 1224.05,-21.6296 1226.82,-31.8562 1232.59,-27.8971"/>
</g>
<!-- Node6 -->
<g id="node11" class="node"><title>Node6</title>
<polygon fill="white" stroke="#bfbfbf" points="317.5,-0.5 317.5,-21.5 370.5,-21.5 370.5,-0.5 317.5,-0.5"/>
<text text-anchor="middle" x="344" y="-8.5" font-family="Helvetica,sans-Serif" font-size="10.00">QRectF</text>
</g>
<!-- Node2&#45;&gt;Node6 -->
<g id="edge10" class="edge"><title>Node2&#45;&gt;Node6</title>
<path fill="none" stroke="midnightblue" d="M400.787,-232.025C398.826,-217.799 394.002,-192.611 383,-174 371.324,-154.249 356.695,-158.299 346,-138 333.807,-114.858 338.23,-106.063 336,-80 335.166,-70.2578 335.177,-67.7431 336,-58 336.728,-49.3812 338.195,-39.9672 339.676,-31.8434"/>
<polygon fill="midnightblue" stroke="midnightblue" points="343.163,-32.2453 341.636,-21.761 336.292,-30.9092 343.163,-32.2453"/>
</g>
<!-- Node7 -->
<g id="node13" class="node"><title>Node7</title>
<polygon fill="white" stroke="#bfbfbf" points="103.5,-174.5 103.5,-195.5 154.5,-195.5 154.5,-174.5 103.5,-174.5"/>
<text text-anchor="middle" x="129" y="-182.5" font-family="Helvetica,sans-Serif" font-size="10.00">QSizeF</text>
</g>
<!-- Node2&#45;&gt;Node7 -->
<g id="edge12" class="edge"><title>Node2&#45;&gt;Node7</title>
<path fill="none" stroke="midnightblue" d="M365.733,-236.608C319.576,-228.268 237.487,-212.752 168,-196 166.769,-195.703 165.518,-195.394 164.257,-195.075"/>
<polygon fill="midnightblue" stroke="midnightblue" points="165.083,-191.673 154.52,-192.501 163.293,-198.441 165.083,-191.673"/>
</g>
<!-- Node2&#45;&gt;Node8 -->
<g id="edge14" class="edge"><title>Node2&#45;&gt;Node8</title>
<path fill="none" stroke="midnightblue" d="M365.869,-239.938C288.744,-233.054 113.492,-215.432 95,-196 52.256,-151.083 62.95,-69.4474 70.9614,-31.4607"/>
<polygon fill="midnightblue" stroke="midnightblue" points="74.4073,-32.0906 73.2015,-21.5646 67.58,-30.5451 74.4073,-32.0906"/>
</g>
<!-- Node9 -->
<g id="node17" class="node"><title>Node9</title>
<polygon fill="white" stroke="#bfbfbf" points="210,-174.5 210,-195.5 284,-195.5 284,-174.5 210,-174.5"/>
<text text-anchor="middle" x="247" y="-182.5" font-family="Helvetica,sans-Serif" font-size="10.00">QTransform</text>
</g>
<!-- Node2&#45;&gt;Node9 -->
<g id="edge16" class="edge"><title>Node2&#45;&gt;Node9</title>
<path fill="none" stroke="midnightblue" d="M373.931,-232.497C348.99,-223.164 312.326,-209.445 284.808,-199.147"/>
<polygon fill="midnightblue" stroke="midnightblue" points="285.714,-195.75 275.122,-195.523 283.261,-202.306 285.714,-195.75"/>
</g>
<!-- Node10 -->
<g id="node19" class="node"><title>Node10</title>
<a xlink:href="dimensionsglobal_8h.htm" target="_top" xlink:title="dimensionsglobal.h">
<polygon fill="white" stroke="black" points="590,-58.5 590,-79.5 696,-79.5 696,-58.5 590,-58.5"/>
<text text-anchor="middle" x="643" y="-66.5" font-family="Helvetica,sans-Serif" font-size="10.00">dimensionsglobal.h</text>
</a>
</g>
<!-- Node2&#45;&gt;Node10 -->
<g id="edge18" class="edge"><title>Node2&#45;&gt;Node10</title>
<path fill="none" stroke="midnightblue" d="M438.252,-235.654C466.431,-228.71 505.549,-216.274 535,-196 577.652,-166.639 613.436,-116.29 631.12,-88.6277"/>
<polygon fill="midnightblue" stroke="midnightblue" points="634.268,-90.1954 636.602,-79.8609 628.332,-86.4841 634.268,-90.1954"/>
</g>
<!-- Node18 -->
<g id="node36" class="node"><title>Node18</title>
<a xlink:href="scrollableobject_8h.htm" target="_top" xlink:title="scrollableobject.h">
<polygon fill="white" stroke="black" points="429.5,-174.5 429.5,-195.5 526.5,-195.5 526.5,-174.5 429.5,-174.5"/>
<text text-anchor="middle" x="478" y="-182.5" font-family="Helvetica,sans-Serif" font-size="10.00">scrollableobject.h</text>
</a>
</g>
<!-- Node2&#45;&gt;Node18 -->
<g id="edge36" class="edge"><title>Node2&#45;&gt;Node18</title>
<path fill="none" stroke="midnightblue" d="M415.94,-232.362C427.188,-223.777 443.216,-211.546 456.165,-201.664"/>
<polygon fill="midnightblue" stroke="midnightblue" points="458.323,-204.42 464.149,-195.571 454.076,-198.855 458.323,-204.42"/>
</g>
<!-- Node24 -->
<g id="node57" class="node"><title>Node24</title>
<a xlink:href="layoutitem_8h.htm" target="_top" xlink:title="layoutitem.h">
<polygon fill="white" stroke="black" points="302,-174.5 302,-195.5 374,-195.5 374,-174.5 302,-174.5"/>
<text text-anchor="middle" x="338" y="-182.5" font-family="Helvetica,sans-Serif" font-size="10.00">layoutitem.h</text>
</a>
</g>
<!-- Node2&#45;&gt;Node24 -->
<g id="edge66" class="edge"><title>Node2&#45;&gt;Node24</title>
<path fill="none" stroke="midnightblue" d="M390.261,-232.362C381.059,-224.023 368.06,-212.242 357.328,-202.516"/>
<polygon fill="midnightblue" stroke="midnightblue" points="359.424,-199.692 349.664,-195.571 354.724,-204.879 359.424,-199.692"/>
</g>
<!-- Node10&#45;&gt;Node6 -->
<g id="edge24" class="edge"><title>Node10&#45;&gt;Node6</title>
<path fill="none" stroke="midnightblue" d="M589.898,-59.5678C523.367,-47.7478 414.594,-28.4136 380.594,-21.823"/>
<polygon fill="midnightblue" stroke="midnightblue" points="381.155,-18.3651 370.653,-19.7643 379.736,-25.2197 381.155,-18.3651"/>
</g>
<!-- Node11 -->
<g id="node21" class="node"><title>Node11</title>
<polygon fill="white" stroke="#bfbfbf" points="741.5,-0.5 741.5,-21.5 800.5,-21.5 800.5,-0.5 741.5,-0.5"/>
<text text-anchor="middle" x="771" y="-8.5" font-family="Helvetica,sans-Serif" font-size="10.00">qglobal.h</text>
</g>
<!-- Node10&#45;&gt;Node11 -->
<g id="edge20" class="edge"><title>Node10&#45;&gt;Node11</title>
<path fill="none" stroke="midnightblue" d="M666.18,-58.4966C686.352,-49.3562 715.81,-36.0082 738.364,-25.7883"/>
<polygon fill="midnightblue" stroke="midnightblue" points="739.896,-28.9366 747.56,-21.6212 737.007,-22.5606 739.896,-28.9366"/>
</g>
<!-- Node12 -->
<g id="node23" class="node"><title>Node12</title>
<polygon fill="white" stroke="#bfbfbf" points="572,-0.5 572,-21.5 626,-21.5 626,-0.5 572,-0.5"/>
<text text-anchor="middle" x="599" y="-8.5" font-family="Helvetica,sans-Serif" font-size="10.00">qmath.h</text>
</g>
<!-- Node10&#45;&gt;Node12 -->
<g id="edge22" class="edge"><title>Node10&#45;&gt;Node12</title>
<path fill="none" stroke="midnightblue" d="M634.93,-58.3619C628.851,-50.3496 620.363,-39.1605 613.163,-29.6696"/>
<polygon fill="midnightblue" stroke="midnightblue" points="615.851,-27.4222 607.019,-21.5707 610.275,-31.653 615.851,-27.4222"/>
</g>
<!-- Node13 -->
<g id="node26" class="node"><title>Node13</title>
<polygon fill="white" stroke="#bfbfbf" points="889.5,-0.5 889.5,-21.5 938.5,-21.5 938.5,-0.5 889.5,-0.5"/>
<text text-anchor="middle" x="914" y="-8.5" font-family="Helvetica,sans-Serif" font-size="10.00">QPoint</text>
</g>
<!-- Node10&#45;&gt;Node13 -->
<g id="edge26" class="edge"><title>Node10&#45;&gt;Node13</title>
<path fill="none" stroke="midnightblue" d="M696.173,-59.3126C750.99,-49.1921 833.779,-33.5035 879.306,-22.189"/>
<polygon fill="midnightblue" stroke="midnightblue" points="880.426,-25.5148 889.235,-19.6293 878.678,-18.7364 880.426,-25.5148"/>
</g>
<!-- Node14 -->
<g id="node28" class="node"><title>Node14</title>
<polygon fill="white" stroke="#bfbfbf" points="817.5,-0.5 817.5,-21.5 872.5,-21.5 872.5,-0.5 817.5,-0.5"/>
<text text-anchor="middle" x="845" y="-8.5" font-family="Helvetica,sans-Serif" font-size="10.00">QPointF</text>
</g>
<!-- Node10&#45;&gt;Node14 -->
<g id="edge28" class="edge"><title>Node10&#45;&gt;Node14</title>
<path fill="none" stroke="midnightblue" d="M680.974,-58.4886C712.556,-49.6928 758.932,-36.6538 807.393,-22.4415"/>
<polygon fill="midnightblue" stroke="midnightblue" points="808.503,-25.7634 817.109,-19.5843 806.528,-19.0477 808.503,-25.7634"/>
</g>
<!-- Node10&#45;&gt;Node15 -->
<g id="edge30" class="edge"><title>Node10&#45;&gt;Node15</title>
<path fill="none" stroke="midnightblue" d="M696.042,-59.1907C699.068,-58.7554 702.07,-58.3538 705,-58 722.41,-55.8978 1257.01,-21.9595 1396.81,-13.1013"/>
<polygon fill="midnightblue" stroke="midnightblue" points="1397.16,-16.5863 1406.92,-12.461 1396.72,-9.60034 1397.16,-16.5863"/>
</g>
<!-- Node16 -->
<g id="node32" class="node"><title>Node16</title>
<polygon fill="white" stroke="#bfbfbf" points="504,-0.5 504,-21.5 554,-21.5 554,-0.5 504,-0.5"/>
<text text-anchor="middle" x="529" y="-8.5" font-family="Helvetica,sans-Serif" font-size="10.00">QHash</text>
</g>
<!-- Node10&#45;&gt;Node16 -->
<g id="edge32" class="edge"><title>Node10&#45;&gt;Node16</title>
<path fill="none" stroke="midnightblue" d="M622.355,-58.4966C604.63,-49.4786 578.855,-36.3649 558.877,-26.2006"/>
<polygon fill="midnightblue" stroke="midnightblue" points="560.376,-23.0364 549.876,-21.6212 557.202,-29.2753 560.376,-23.0364"/>
</g>
<!-- Node17 -->
<g id="node34" class="node"><title>Node17</title>
<polygon fill="white" stroke="#bfbfbf" points="644,-0.5 644,-21.5 724,-21.5 724,-0.5 644,-0.5"/>
<text text-anchor="middle" x="684" y="-8.5" font-family="Helvetica,sans-Serif" font-size="10.00">QVariantMap</text>
</g>
<!-- Node10&#45;&gt;Node17 -->
<g id="edge34" class="edge"><title>Node10&#45;&gt;Node17</title>
<path fill="none" stroke="midnightblue" d="M650.52,-58.3619C656.126,-50.4313 663.932,-39.3885 670.597,-29.9606"/>
<polygon fill="midnightblue" stroke="midnightblue" points="673.613,-31.7568 676.528,-21.5707 667.897,-27.7161 673.613,-31.7568"/>
</g>
<!-- Node18&#45;&gt;Node6 -->
<g id="edge62" class="edge"><title>Node18&#45;&gt;Node6</title>
<path fill="none" stroke="midnightblue" d="M429.234,-176.699C405.69,-170.149 379.117,-158.526 363,-138 338.798,-107.178 338.874,-58.8052 341.298,-31.5162"/>
<polygon fill="midnightblue" stroke="midnightblue" points="344.782,-31.8566 342.377,-21.5384 337.822,-31.1044 344.782,-31.8566"/>
</g>
<!-- Node19 -->
<g id="node38" class="node"><title>Node19</title>
<a xlink:href="thingpaintable_8h.htm" target="_top" xlink:title="thingpaintable.h">
<polygon fill="white" stroke="black" points="371.5,-116.5 371.5,-137.5 462.5,-137.5 462.5,-116.5 371.5,-116.5"/>
<text text-anchor="middle" x="417" y="-124.5" font-family="Helvetica,sans-Serif" font-size="10.00">thingpaintable.h</text>
</a>
</g>
<!-- Node18&#45;&gt;Node19 -->
<g id="edge38" class="edge"><title>Node18&#45;&gt;Node19</title>
<path fill="none" stroke="midnightblue" d="M466.812,-174.362C458.041,-166.023 445.651,-154.242 435.422,-144.516"/>
<polygon fill="midnightblue" stroke="midnightblue" points="437.776,-141.925 428.117,-137.571 432.953,-146.998 437.776,-141.925"/>
</g>
<!-- Node23 -->
<g id="node55" class="node"><title>Node23</title>
<polygon fill="white" stroke="#bfbfbf" points="479.5,-116.5 479.5,-137.5 526.5,-137.5 526.5,-116.5 479.5,-116.5"/>
<text text-anchor="middle" x="503" y="-124.5" font-family="Helvetica,sans-Serif" font-size="10.00">QRect</text>
</g>
<!-- Node18&#45;&gt;Node23 -->
<g id="edge64" class="edge"><title>Node18&#45;&gt;Node23</title>
<path fill="none" stroke="midnightblue" d="M482.585,-174.362C485.898,-166.677 490.47,-156.069 494.448,-146.84"/>
<polygon fill="midnightblue" stroke="midnightblue" points="497.699,-148.139 498.444,-137.571 491.271,-145.368 497.699,-148.139"/>
</g>
<!-- Node19&#45;&gt;Node6 -->
<g id="edge60" class="edge"><title>Node19&#45;&gt;Node6</title>
<path fill="none" stroke="midnightblue" d="M415.59,-116.447C413.308,-102.242 407.812,-76.6055 396,-58 388.663,-46.4424 377.732,-35.9662 367.783,-27.853"/>
<polygon fill="midnightblue" stroke="midnightblue" points="369.803,-24.9899 359.757,-21.6218 365.51,-30.5191 369.803,-24.9899"/>
</g>
<!-- Node20 -->
<g id="node40" class="node"><title>Node20</title>
<a xlink:href="thing_8h.htm" target="_top" xlink:title="thing.h">
<polygon fill="white" stroke="black" points="524,-58.5 524,-79.5 572,-79.5 572,-58.5 524,-58.5"/>
<text text-anchor="middle" x="548" y="-66.5" font-family="Helvetica,sans-Serif" font-size="10.00">thing.h</text>
</a>
</g>
<!-- Node19&#45;&gt;Node20 -->
<g id="edge40" class="edge"><title>Node19&#45;&gt;Node20</title>
<path fill="none" stroke="midnightblue" d="M440.723,-116.497C461.368,-107.356 491.516,-94.0082 514.599,-83.7883"/>
<polygon fill="midnightblue" stroke="midnightblue" points="516.284,-86.8701 524.011,-79.6212 513.45,-80.4694 516.284,-86.8701"/>
</g>
<!-- Node19&#45;&gt;Node22 -->
<g id="edge58" class="edge"><title>Node19&#45;&gt;Node22</title>
<path fill="none" stroke="midnightblue" d="M403.803,-116.295C379.009,-96.1819 325.271,-52.5904 295.296,-28.2752"/>
<polygon fill="midnightblue" stroke="midnightblue" points="297.136,-25.2609 287.165,-21.6792 292.726,-30.6972 297.136,-25.2609"/>
</g>
<!-- Node20&#45;&gt;Node4 -->
<g id="edge50" class="edge"><title>Node20&#45;&gt;Node4</title>
<path fill="none" stroke="midnightblue" d="M572.34,-60.2113C575.233,-59.3682 578.165,-58.604 581,-58 737.586,-24.6416 785.888,-57.8888 945.146,-21.9545"/>
<polygon fill="midnightblue" stroke="midnightblue" points="946.344,-25.2699 955.297,-19.6052 944.765,-18.4501 946.344,-25.2699"/>
</g>
<!-- Node20&#45;&gt;Node5 -->
<g id="edge46" class="edge"><title>Node20&#45;&gt;Node5</title>
<path fill="none" stroke="midnightblue" d="M572.326,-60.1434C575.221,-59.3125 578.158,-58.5697 581,-58 639.116,-46.3515 1045.54,-21.2328 1175.88,-13.3897"/>
<polygon fill="midnightblue" stroke="midnightblue" points="1176.43,-16.863 1186.2,-12.7699 1176.01,-9.87556 1176.43,-16.863"/>
</g>
<!-- Node20&#45;&gt;Node6 -->
<g id="edge52" class="edge"><title>Node20&#45;&gt;Node6</title>
<path fill="none" stroke="midnightblue" d="M523.891,-61.9678C519.283,-60.6387 514.495,-59.2681 510,-58 454.839,-42.4375 438.553,-39.3494 380.424,-22.3586"/>
<polygon fill="midnightblue" stroke="midnightblue" points="381.304,-18.9693 370.723,-19.5083 379.33,-25.6854 381.304,-18.9693"/>
</g>
<!-- Node20&#45;&gt;Node8 -->
<g id="edge54" class="edge"><title>Node20&#45;&gt;Node8</title>
<path fill="none" stroke="midnightblue" d="M523.945,-66.044C447.157,-56.6083 207.482,-27.1567 113.936,-15.6617"/>
<polygon fill="midnightblue" stroke="midnightblue" points="114.142,-12.1607 103.789,-14.4148 113.288,-19.1084 114.142,-12.1607"/>
</g>
<!-- Node20&#45;&gt;Node15 -->
<g id="edge44" class="edge"><title>Node20&#45;&gt;Node15</title>
<path fill="none" stroke="midnightblue" d="M572.314,-60.0858C575.212,-59.2652 578.152,-58.5406 581,-58 875.283,-2.13682 954.964,-39.3425 1254,-22 1303.72,-19.1166 1361.32,-15.456 1396.7,-13.1703"/>
<polygon fill="midnightblue" stroke="midnightblue" points="1397.19,-16.6464 1406.94,-12.5074 1396.74,-9.66103 1397.19,-16.6464"/>
</g>
<!-- Node20&#45;&gt;Node16 -->
<g id="edge56" class="edge"><title>Node20&#45;&gt;Node16</title>
<path fill="none" stroke="midnightblue" d="M544.515,-58.3619C542.024,-50.7584 538.596,-40.294 535.596,-31.1349"/>
<polygon fill="midnightblue" stroke="midnightblue" points="538.902,-29.9841 532.463,-21.5707 532.25,-32.1634 538.902,-29.9841"/>
</g>
<!-- Node21 -->
<g id="node42" class="node"><title>Node21</title>
<polygon fill="white" stroke="#bfbfbf" points="388,-0.5 388,-21.5 486,-21.5 486,-0.5 388,-0.5"/>
<text text-anchor="middle" x="437" y="-8.5" font-family="Helvetica,sans-Serif" font-size="10.00">QGraphicsObject</text>
</g>
<!-- Node20&#45;&gt;Node21 -->
<g id="edge42" class="edge"><title>Node20&#45;&gt;Node21</title>
<path fill="none" stroke="midnightblue" d="M527.899,-58.4966C510.718,-49.5194 485.77,-36.4835 466.355,-26.3387"/>
<polygon fill="midnightblue" stroke="midnightblue" points="467.811,-23.1503 457.327,-21.6212 464.569,-29.3544 467.811,-23.1503"/>
</g>
<!-- Node20&#45;&gt;Node22 -->
<g id="edge48" class="edge"><title>Node20&#45;&gt;Node22</title>
<path fill="none" stroke="midnightblue" d="M523.717,-65.1364C481.958,-58.2979 393.718,-42.9995 310.521,-22.2092"/>
<polygon fill="midnightblue" stroke="midnightblue" points="311.219,-18.7755 300.666,-19.714 309.501,-25.5614 311.219,-18.7755"/>
</g>
<!-- Node24&#45;&gt;Node3 -->
<g id="edge68" class="edge"><title>Node24&#45;&gt;Node3</title>
<path fill="none" stroke="midnightblue" d="M326.24,-174.483C316.437,-165.38 302.438,-151.578 292,-138 279.994,-122.382 268.744,-102.971 261.077,-88.7187"/>
<polygon fill="midnightblue" stroke="midnightblue" points="264.131,-87.0058 256.377,-79.7864 257.936,-90.2658 264.131,-87.0058"/>
</g>
<!-- Node25&#45;&gt;Node4 -->
<g id="edge84" class="edge"><title>Node25&#45;&gt;Node4</title>
<path fill="none" stroke="midnightblue" d="M823.58,-174.311C808.954,-160.394 788.176,-135.54 801,-116 823.062,-82.3835 849.234,-100.201 884,-80 910.258,-64.7426 937.793,-43.2561 955.816,-28.3296"/>
<polygon fill="midnightblue" stroke="midnightblue" points="958.443,-30.6944 963.853,-21.585 953.943,-25.3324 958.443,-30.6944"/>
</g>
<!-- Node25&#45;&gt;Node5 -->
<g id="edge78" class="edge"><title>Node25&#45;&gt;Node5</title>
<path fill="none" stroke="midnightblue" d="M858.148,-184.048C937.759,-180.404 1206.04,-166.11 1231,-138 1244.58,-122.705 1230.84,-63.6255 1222.07,-31.7204"/>
<polygon fill="midnightblue" stroke="midnightblue" points="1225.32,-30.3534 1219.23,-21.6848 1218.59,-32.26 1225.32,-30.3534"/>
</g>
<!-- Node25&#45;&gt;Node6 -->
<g id="edge74" class="edge"><title>Node25&#45;&gt;Node6</title>
<path fill="none" stroke="midnightblue" d="M813.64,-178.256C761.131,-162.294 625.993,-120.494 515,-80 467.099,-62.5238 412.609,-40.084 378.271,-25.6222"/>
<polygon fill="midnightblue" stroke="midnightblue" points="379.292,-22.2536 368.718,-21.5851 376.567,-28.7016 379.292,-22.2536"/>
</g>
<!-- Node25&#45;&gt;Node15 -->
<g id="edge72" class="edge"><title>Node25&#45;&gt;Node15</title>
<path fill="none" stroke="midnightblue" d="M858.318,-184.631C958.915,-182.776 1367.19,-173.121 1411,-138 1442.16,-113.024 1439.02,-60.8258 1434.32,-31.7257"/>
<polygon fill="midnightblue" stroke="midnightblue" points="1437.75,-31.0187 1432.51,-21.8087 1430.86,-32.2743 1437.75,-31.0187"/>
</g>
<!-- Node25&#45;&gt;Node19 -->
<g id="edge92" class="edge"><title>Node25&#45;&gt;Node19</title>
<path fill="none" stroke="midnightblue" d="M813.698,-182.701C757.934,-176.832 607.783,-160.285 472.731,-138.205"/>
<polygon fill="midnightblue" stroke="midnightblue" points="473.058,-134.711 462.622,-136.537 471.919,-141.618 473.058,-134.711"/>
</g>
<!-- Node25&#45;&gt;Node22 -->
<g id="edge80" class="edge"><title>Node25&#45;&gt;Node22</title>
<path fill="none" stroke="midnightblue" d="M813.699,-181.194C773.839,-174.174 687.908,-158.058 617,-138 542.606,-116.956 525.521,-106.795 453,-80 403.312,-61.6411 346.273,-39.4612 310.195,-25.2943"/>
<polygon fill="midnightblue" stroke="midnightblue" points="311.186,-21.9231 300.599,-21.5208 308.625,-28.4376 311.186,-21.9231"/>
</g>
<!-- Node25&#45;&gt;Node23 -->
<g id="edge76" class="edge"><title>Node25&#45;&gt;Node23</title>
<path fill="none" stroke="midnightblue" d="M813.893,-181.15C756.946,-171.231 604.94,-144.755 536.83,-132.892"/>
<polygon fill="midnightblue" stroke="midnightblue" points="537.099,-129.387 526.647,-131.119 535.898,-136.283 537.099,-129.387"/>
</g>
<!-- Node26 -->
<g id="node67" class="node"><title>Node26</title>
<polygon fill="white" stroke="#bfbfbf" points="810,-116.5 810,-137.5 862,-137.5 862,-116.5 810,-116.5"/>
<text text-anchor="middle" x="836" y="-124.5" font-family="Helvetica,sans-Serif" font-size="10.00">QTimer</text>
</g>
<!-- Node25&#45;&gt;Node26 -->
<g id="edge82" class="edge"><title>Node25&#45;&gt;Node26</title>
<path fill="none" stroke="midnightblue" d="M836,-174.362C836,-166.922 836,-156.743 836,-147.728"/>
<polygon fill="midnightblue" stroke="midnightblue" points="839.5,-147.571 836,-137.571 832.5,-147.571 839.5,-147.571"/>
</g>
<!-- Node27 -->
<g id="node70" class="node"><title>Node27</title>
<polygon fill="white" stroke="#bfbfbf" points="880,-116.5 880,-137.5 926,-137.5 926,-116.5 880,-116.5"/>
<text text-anchor="middle" x="903" y="-124.5" font-family="Helvetica,sans-Serif" font-size="10.00">QFont</text>
</g>
<!-- Node25&#45;&gt;Node27 -->
<g id="edge86" class="edge"><title>Node25&#45;&gt;Node27</title>
<path fill="none" stroke="midnightblue" d="M848.289,-174.362C858.017,-165.941 871.798,-154.011 883.095,-144.231"/>
<polygon fill="midnightblue" stroke="midnightblue" points="885.519,-146.762 890.789,-137.571 880.938,-141.469 885.519,-146.762"/>
</g>
<!-- Node28 -->
<g id="node72" class="node"><title>Node28</title>
<polygon fill="white" stroke="#bfbfbf" points="943.5,-116.5 943.5,-137.5 1020.5,-137.5 1020.5,-116.5 943.5,-116.5"/>
<text text-anchor="middle" x="982" y="-124.5" font-family="Helvetica,sans-Serif" font-size="10.00">QTextLayout</text>
</g>
<!-- Node25&#45;&gt;Node28 -->
<g id="edge88" class="edge"><title>Node25&#45;&gt;Node28</title>
<path fill="none" stroke="midnightblue" d="M858.174,-176.191C881.406,-166.962 918.273,-152.316 945.746,-141.402"/>
<polygon fill="midnightblue" stroke="midnightblue" points="947.399,-144.512 955.4,-137.567 944.815,-138.006 947.399,-144.512"/>
</g>
<!-- Node29 -->
<g id="node74" class="node"><title>Node29</title>
<polygon fill="white" stroke="#bfbfbf" points="1038,-116.5 1038,-137.5 1128,-137.5 1128,-116.5 1038,-116.5"/>
<text text-anchor="middle" x="1083" y="-124.5" font-family="Helvetica,sans-Serif" font-size="10.00">QStateMachine</text>
</g>
<!-- Node25&#45;&gt;Node29 -->
<g id="edge90" class="edge"><title>Node25&#45;&gt;Node29</title>
<path fill="none" stroke="midnightblue" d="M858.355,-179.751C896.398,-170.817 974.781,-152.412 1028.13,-139.885"/>
<polygon fill="midnightblue" stroke="midnightblue" points="1029.18,-143.233 1038.11,-137.54 1027.58,-136.419 1029.18,-143.233"/>
</g>
<!-- Node30 -->
<g id="node77" class="node"><title>Node30</title>
<a xlink:href="pixmapobject_8h.htm" target="_top" xlink:title="pixmapobject.h">
<polygon fill="white" stroke="black" points="1316,-116.5 1316,-137.5 1402,-137.5 1402,-116.5 1316,-116.5"/>
<text text-anchor="middle" x="1359" y="-124.5" font-family="Helvetica,sans-Serif" font-size="10.00">pixmapobject.h</text>
</a>
</g>
<!-- Node25&#45;&gt;Node30 -->
<g id="edge94" class="edge"><title>Node25&#45;&gt;Node30</title>
<path fill="none" stroke="midnightblue" d="M858.284,-182.6C921.725,-175.757 1108.75,-155.512 1264,-138 1277.54,-136.472 1292.17,-134.794 1305.79,-133.218"/>
<polygon fill="midnightblue" stroke="midnightblue" points="1306.44,-136.665 1315.97,-132.037 1305.63,-129.712 1306.44,-136.665"/>
</g>
<!-- Node33 -->
<g id="node85" class="node"><title>Node33</title>
<a xlink:href="icondecorator_8h.htm" target="_top" xlink:title="icondecorator.h">
<polygon fill="white" stroke="black" points="714,-58.5 714,-79.5 804,-79.5 804,-58.5 714,-58.5"/>
<text text-anchor="middle" x="759" y="-66.5" font-family="Helvetica,sans-Serif" font-size="10.00">icondecorator.h</text>
</a>
</g>
<!-- Node25&#45;&gt;Node33 -->
<g id="edge104" class="edge"><title>Node25&#45;&gt;Node33</title>
<path fill="none" stroke="midnightblue" d="M813.87,-175.689C798.376,-167.954 778.614,-155.396 768,-138 759.175,-123.537 757.318,-104.211 757.443,-89.6919"/>
<polygon fill="midnightblue" stroke="midnightblue" points="760.941,-89.8177 757.843,-79.686 753.947,-89.5384 760.941,-89.8177"/>
</g>
<!-- Node34 -->
<g id="node91" class="node"><title>Node34</title>
<a xlink:href="renderopts_8h.htm" target="_top" xlink:title="renderopts.h">
<polygon fill="white" stroke="black" points="1145.5,-116.5 1145.5,-137.5 1222.5,-137.5 1222.5,-116.5 1145.5,-116.5"/>
<text text-anchor="middle" x="1184" y="-124.5" font-family="Helvetica,sans-Serif" font-size="10.00">renderopts.h</text>
</a>
</g>
<!-- Node25&#45;&gt;Node34 -->
<g id="edge114" class="edge"><title>Node25&#45;&gt;Node34</title>
<path fill="none" stroke="midnightblue" d="M858.003,-182.141C906.399,-175.729 1025.89,-159.232 1135.43,-138.211"/>
<polygon fill="midnightblue" stroke="midnightblue" points="1136.17,-141.633 1145.32,-136.295 1134.84,-134.761 1136.17,-141.633"/>
</g>
<!-- Node30&#45;&gt;Node3 -->
<g id="edge96" class="edge"><title>Node30&#45;&gt;Node3</title>
<path fill="none" stroke="midnightblue" d="M1315.78,-122.876C1290.99,-120.613 1259.26,-117.891 1231,-116 1042.64,-103.394 445.765,-77.3823 289.009,-70.63"/>
<polygon fill="midnightblue" stroke="midnightblue" points="289.052,-67.1287 278.911,-70.1955 288.751,-74.1223 289.052,-67.1287"/>
</g>
<!-- Node30&#45;&gt;Node15 -->
<g id="edge100" class="edge"><title>Node30&#45;&gt;Node15</title>
<path fill="none" stroke="midnightblue" d="M1374.87,-116.45C1386.5,-107.924 1401.81,-94.918 1411,-80 1420.14,-65.1646 1424.97,-45.8747 1427.47,-31.4637"/>
<polygon fill="midnightblue" stroke="midnightblue" points="1430.93,-31.9579 1428.95,-21.5492 1424.01,-30.9191 1430.93,-31.9579"/>
</g>
<!-- Node31 -->
<g id="node80" class="node"><title>Node31</title>
<polygon fill="white" stroke="#bfbfbf" points="1343.5,-58.5 1343.5,-79.5 1402.5,-79.5 1402.5,-58.5 1343.5,-58.5"/>
<text text-anchor="middle" x="1373" y="-66.5" font-family="Helvetica,sans-Serif" font-size="10.00">QPixmap</text>
</g>
<!-- Node30&#45;&gt;Node31 -->
<g id="edge98" class="edge"><title>Node30&#45;&gt;Node31</title>
<path fill="none" stroke="midnightblue" d="M1361.57,-116.362C1363.38,-108.84 1365.87,-98.5187 1368.07,-89.4308"/>
<polygon fill="midnightblue" stroke="midnightblue" points="1371.5,-90.1127 1370.45,-79.5707 1364.7,-88.4702 1371.5,-90.1127"/>
</g>
<!-- Node32 -->
<g id="node83" class="node"><title>Node32</title>
<polygon fill="white" stroke="#bfbfbf" points="1281.5,-58.5 1281.5,-79.5 1326.5,-79.5 1326.5,-58.5 1281.5,-58.5"/>
<text text-anchor="middle" x="1304" y="-66.5" font-family="Helvetica,sans-Serif" font-size="10.00">QSize</text>
</g>
<!-- Node30&#45;&gt;Node32 -->
<g id="edge102" class="edge"><title>Node30&#45;&gt;Node32</title>
<path fill="none" stroke="midnightblue" d="M1348.91,-116.362C1341.16,-108.186 1330.27,-96.7025 1321.15,-87.0907"/>
<polygon fill="midnightblue" stroke="midnightblue" points="1323.44,-84.4186 1314.02,-79.5707 1318.37,-89.2352 1323.44,-84.4186"/>
</g>
<!-- Node33&#45;&gt;Node5 -->
<g id="edge106" class="edge"><title>Node33&#45;&gt;Node5</title>
<path fill="none" stroke="midnightblue" d="M804.07,-63.28C893.455,-51.9357 1091.84,-26.758 1176.48,-16.015"/>
<polygon fill="midnightblue" stroke="midnightblue" points="1176.99,-19.4795 1186.47,-14.7482 1176.11,-12.5352 1176.99,-19.4795"/>
</g>
<!-- Node33&#45;&gt;Node6 -->
<g id="edge108" class="edge"><title>Node33&#45;&gt;Node6</title>
<path fill="none" stroke="midnightblue" d="M713.974,-59.5091C710.943,-58.9686 707.93,-58.4593 705,-58 564.223,-35.9355 523.47,-51.2701 380.622,-22.0371"/>
<polygon fill="midnightblue" stroke="midnightblue" points="381.115,-18.5647 370.611,-19.9504 379.686,-25.4174 381.115,-18.5647"/>
</g>
<!-- Node33&#45;&gt;Node13 -->
<g id="edge112" class="edge"><title>Node33&#45;&gt;Node13</title>
<path fill="none" stroke="midnightblue" d="M787.069,-58.4966C813.098,-48.7568 851.894,-34.2396 879.739,-23.8204"/>
<polygon fill="midnightblue" stroke="midnightblue" points="881.319,-26.9662 889.458,-20.1835 878.865,-20.4102 881.319,-26.9662"/>
</g>
<!-- Node33&#45;&gt;Node14 -->
<g id="edge110" class="edge"><title>Node33&#45;&gt;Node14</title>
<path fill="none" stroke="midnightblue" d="M774.774,-58.3619C787.624,-49.6955 805.985,-37.3126 820.71,-27.3819"/>
<polygon fill="midnightblue" stroke="midnightblue" points="822.993,-30.0639 829.326,-21.5707 819.079,-24.2604 822.993,-30.0639"/>
</g>
</g>
</svg>
