<?xml version="1.0" encoding="UTF-8" standalone="no"?>
<!DOCTYPE svg PUBLIC "-//W3C//DTD SVG 1.1//EN"
 "http://www.w3.org/Graphics/SVG/1.1/DTD/svg11.dtd">
<!-- Generated by graphviz version 2.26.3 (20100126.1600)
 -->
<!-- Title: reorderableiconlayout.h Pages: 1 -->
<svg width="432pt" height="88pt"
 viewBox="0.00 0.00 432.00 88.00" xmlns="http://www.w3.org/2000/svg" xmlns:xlink="http://www.w3.org/1999/xlink">
<g id="graph1" class="graph" transform="scale(1 1) rotate(0) translate(4 84)">
<title>reorderableiconlayout.h</title>
<polygon fill="white" stroke="white" points="-4,5 -4,-84 429,-84 429,5 -4,5"/>
<!-- Node1 -->
<g id="node1" class="node"><title>Node1</title>
<polygon fill="#bfbfbf" stroke="black" points="159.5,-58.5 159.5,-79.5 286.5,-79.5 286.5,-58.5 159.5,-58.5"/>
<text text-anchor="middle" x="223" y="-66.5" font-family="Helvetica,sans-Serif" font-size="10.00">reorderableiconlayout.h</text>
</g>
<!-- Node2 -->
<g id="node3" class="node"><title>Node2</title>
<a xlink:href="iconreorderanimation_8cpp.htm" target="_top" xlink:title="iconreorderanimation.cpp">
<polygon fill="white" stroke="black" points="-0.5,-0.5 -0.5,-21.5 136.5,-21.5 136.5,-0.5 -0.5,-0.5"/>
<text text-anchor="middle" x="68" y="-8.5" font-family="Helvetica,sans-Serif" font-size="10.00">iconreorderanimation.cpp</text>
</a>
</g>
<!-- Node1&#45;&gt;Node2 -->
<g id="edge2" class="edge"><title>Node1&#45;&gt;Node2</title>
<path fill="none" stroke="midnightblue" d="M185.25,-54.8742C157.745,-44.5819 121.079,-30.862 96.122,-21.5231"/>
<polygon fill="midnightblue" stroke="midnightblue" points="184.338,-58.27 194.931,-58.4966 186.792,-51.7139 184.338,-58.27"/>
</g>
<!-- Node3 -->
<g id="node5" class="node"><title>Node3</title>
<a xlink:href="reorderableiconlayout_8cpp.htm" target="_top" xlink:title="reorderableiconlayout.cpp">
<polygon fill="white" stroke="black" points="154,-0.5 154,-21.5 292,-21.5 292,-0.5 154,-0.5"/>
<text text-anchor="middle" x="223" y="-8.5" font-family="Helvetica,sans-Serif" font-size="10.00">reorderableiconlayout.cpp</text>
</a>
</g>
<!-- Node1&#45;&gt;Node3 -->
<g id="edge4" class="edge"><title>Node1&#45;&gt;Node3</title>
<path fill="none" stroke="midnightblue" d="M223,-48.1906C223,-39.1684 223,-28.9941 223,-21.5707"/>
<polygon fill="midnightblue" stroke="midnightblue" points="219.5,-48.3619 223,-58.3619 226.5,-48.3619 219.5,-48.3619"/>
</g>
<!-- Node4 -->
<g id="node7" class="node"><title>Node4</title>
<a xlink:href="reorderablepage_8cpp.htm" target="_top" xlink:title="reorderablepage.cpp">
<polygon fill="white" stroke="black" points="309.5,-0.5 309.5,-21.5 424.5,-21.5 424.5,-0.5 309.5,-0.5"/>
<text text-anchor="middle" x="367" y="-8.5" font-family="Helvetica,sans-Serif" font-size="10.00">reorderablepage.cpp</text>
</a>
</g>
<!-- Node1&#45;&gt;Node4 -->
<g id="edge6" class="edge"><title>Node1&#45;&gt;Node4</title>
<path fill="none" stroke="midnightblue" d="M258.377,-54.7509C283.806,-44.5086 317.542,-30.9206 340.63,-21.6212"/>
<polygon fill="midnightblue" stroke="midnightblue" points="257.046,-51.5139 249.077,-58.4966 259.661,-58.007 257.046,-51.5139"/>
</g>
</g>
</svg>
