<?xml version="1.0" encoding="UTF-8" standalone="no"?>
<!DOCTYPE svg PUBLIC "-//W3C//DTD SVG 1.1//EN"
 "http://www.w3.org/Graphics/SVG/1.1/DTD/svg11.dtd">
<!-- Generated by graphviz version 2.26.3 (20100126.1600)
 -->
<!-- Title: ReticleItem.h Pages: 1 -->
<svg width="266pt" height="88pt"
 viewBox="0.00 0.00 266.00 88.00" xmlns="http://www.w3.org/2000/svg" xmlns:xlink="http://www.w3.org/1999/xlink">
<g id="graph1" class="graph" transform="scale(1 1) rotate(0) translate(4 84)">
<title>ReticleItem.h</title>
<polygon fill="white" stroke="white" points="-4,5 -4,-84 263,-84 263,5 -4,5"/>
<!-- Node1 -->
<g id="node1" class="node"><title>Node1</title>
<polygon fill="#bfbfbf" stroke="black" points="94.5,-58.5 94.5,-79.5 171.5,-79.5 171.5,-58.5 94.5,-58.5"/>
<text text-anchor="middle" x="133" y="-66.5" font-family="Helvetica,sans-Serif" font-size="10.00">ReticleItem.h</text>
</g>
<!-- Node2 -->
<g id="node3" class="node"><title>Node2</title>
<polygon fill="white" stroke="#bfbfbf" points="-0.5,-0.5 -0.5,-21.5 66.5,-21.5 66.5,-0.5 -0.5,-0.5"/>
<text text-anchor="middle" x="33" y="-8.5" font-family="Helvetica,sans-Serif" font-size="10.00">Common.h</text>
</g>
<!-- Node1&#45;&gt;Node2 -->
<g id="edge2" class="edge"><title>Node1&#45;&gt;Node2</title>
<path fill="none" stroke="midnightblue" d="M114.658,-58.3619C99.4345,-49.532 77.5585,-36.844 60.28,-26.8224"/>
<polygon fill="midnightblue" stroke="midnightblue" points="61.6316,-23.5603 51.2253,-21.5707 58.1196,-29.6155 61.6316,-23.5603"/>
</g>
<!-- Node3 -->
<g id="node5" class="node"><title>Node3</title>
<polygon fill="white" stroke="#bfbfbf" points="84,-0.5 84,-21.5 182,-21.5 182,-0.5 84,-0.5"/>
<text text-anchor="middle" x="133" y="-8.5" font-family="Helvetica,sans-Serif" font-size="10.00">QGraphicsObject</text>
</g>
<!-- Node1&#45;&gt;Node3 -->
<g id="edge4" class="edge"><title>Node1&#45;&gt;Node3</title>
<path fill="none" stroke="midnightblue" d="M133,-58.3619C133,-50.9219 133,-40.7427 133,-31.7276"/>
<polygon fill="midnightblue" stroke="midnightblue" points="136.5,-31.5706 133,-21.5707 129.5,-31.5707 136.5,-31.5706"/>
</g>
<!-- Node4 -->
<g id="node7" class="node"><title>Node4</title>
<polygon fill="white" stroke="#bfbfbf" points="199.5,-0.5 199.5,-21.5 258.5,-21.5 258.5,-0.5 199.5,-0.5"/>
<text text-anchor="middle" x="229" y="-8.5" font-family="Helvetica,sans-Serif" font-size="10.00">QPointer</text>
</g>
<!-- Node1&#45;&gt;Node4 -->
<g id="edge6" class="edge"><title>Node1&#45;&gt;Node4</title>
<path fill="none" stroke="midnightblue" d="M150.608,-58.3619C165.223,-49.532 186.224,-36.844 202.811,-26.8224"/>
<polygon fill="midnightblue" stroke="midnightblue" points="204.754,-29.7376 211.504,-21.5707 201.135,-23.7461 204.754,-29.7376"/>
</g>
</g>
</svg>
