<?xml version="1.0" encoding="UTF-8" standalone="no"?>
<!DOCTYPE svg PUBLIC "-//W3C//DTD SVG 1.1//EN"
 "http://www.w3.org/Graphics/SVG/1.1/DTD/svg11.dtd">
<!-- Generated by graphviz version 2.26.3 (20100126.1600)
 -->
<!-- Title: RoundedCorners.cpp Pages: 1 -->
<svg width="358pt" height="146pt"
 viewBox="0.00 0.00 358.00 146.00" xmlns="http://www.w3.org/2000/svg" xmlns:xlink="http://www.w3.org/1999/xlink">
<g id="graph1" class="graph" transform="scale(1 1) rotate(0) translate(4 142)">
<title>RoundedCorners.cpp</title>
<polygon fill="white" stroke="white" points="-4,5 -4,-142 355,-142 355,5 -4,5"/>
<!-- Node1 -->
<g id="node1" class="node"><title>Node1</title>
<polygon fill="#bfbfbf" stroke="black" points="84.5,-116.5 84.5,-137.5 201.5,-137.5 201.5,-116.5 84.5,-116.5"/>
<text text-anchor="middle" x="143" y="-124.5" font-family="Helvetica,sans-Serif" font-size="10.00">RoundedCorners.cpp</text>
</g>
<!-- Node2 -->
<g id="node3" class="node"><title>Node2</title>
<polygon fill="white" stroke="#bfbfbf" points="-0.5,-0.5 -0.5,-21.5 66.5,-21.5 66.5,-0.5 -0.5,-0.5"/>
<text text-anchor="middle" x="33" y="-8.5" font-family="Helvetica,sans-Serif" font-size="10.00">Common.h</text>
</g>
<!-- Node1&#45;&gt;Node2 -->
<g id="edge2" class="edge"><title>Node1&#45;&gt;Node2</title>
<path fill="none" stroke="midnightblue" d="M102.557,-116.448C71.5046,-107.432 32.3947,-93.7692 23,-80 13.2444,-65.7019 17.5079,-45.8476 23.1726,-31.1058"/>
<polygon fill="midnightblue" stroke="midnightblue" points="26.4188,-32.4165 27.163,-21.8478 19.9906,-29.6457 26.4188,-32.4165"/>
</g>
<!-- Node3 -->
<g id="node5" class="node"><title>Node3</title>
<polygon fill="white" stroke="#bfbfbf" points="31.5,-58.5 31.5,-79.5 72.5,-79.5 72.5,-58.5 31.5,-58.5"/>
<text text-anchor="middle" x="52" y="-66.5" font-family="Helvetica,sans-Serif" font-size="10.00">glib.h</text>
</g>
<!-- Node1&#45;&gt;Node3 -->
<g id="edge4" class="edge"><title>Node1&#45;&gt;Node3</title>
<path fill="none" stroke="midnightblue" d="M126.309,-116.362C112.584,-107.614 92.9164,-95.0786 77.2626,-85.1015"/>
<polygon fill="midnightblue" stroke="midnightblue" points="78.899,-81.994 68.585,-79.5707 75.1366,-87.8969 78.899,-81.994"/>
</g>
<!-- Node4 -->
<g id="node7" class="node"><title>Node4</title>
<a xlink:href="RoundedCorners_8h.htm" target="_top" xlink:title="RoundedCorners.h">
<polygon fill="white" stroke="black" points="90,-58.5 90,-79.5 196,-79.5 196,-58.5 90,-58.5"/>
<text text-anchor="middle" x="143" y="-66.5" font-family="Helvetica,sans-Serif" font-size="10.00">RoundedCorners.h</text>
</a>
</g>
<!-- Node1&#45;&gt;Node4 -->
<g id="edge6" class="edge"><title>Node1&#45;&gt;Node4</title>
<path fill="none" stroke="midnightblue" d="M143,-116.362C143,-108.922 143,-98.7427 143,-89.7276"/>
<polygon fill="midnightblue" stroke="midnightblue" points="146.5,-89.5706 143,-79.5707 139.5,-89.5707 146.5,-89.5706"/>
</g>
<!-- Node6 -->
<g id="node12" class="node"><title>Node6</title>
<polygon fill="white" stroke="#bfbfbf" points="213.5,-58.5 213.5,-79.5 276.5,-79.5 276.5,-58.5 213.5,-58.5"/>
<text text-anchor="middle" x="245" y="-66.5" font-family="Helvetica,sans-Serif" font-size="10.00">Settings.h</text>
</g>
<!-- Node1&#45;&gt;Node6 -->
<g id="edge12" class="edge"><title>Node1&#45;&gt;Node6</title>
<path fill="none" stroke="midnightblue" d="M161.708,-116.362C177.381,-107.45 199.964,-94.6087 217.663,-84.5447"/>
<polygon fill="midnightblue" stroke="midnightblue" points="219.447,-87.5562 226.41,-79.5707 215.987,-81.4712 219.447,-87.5562"/>
</g>
<!-- Node7 -->
<g id="node14" class="node"><title>Node7</title>
<polygon fill="white" stroke="#bfbfbf" points="294,-58.5 294,-79.5 350,-79.5 350,-58.5 294,-58.5"/>
<text text-anchor="middle" x="322" y="-66.5" font-family="Helvetica,sans-Serif" font-size="10.00">QtUtils.h</text>
</g>
<!-- Node1&#45;&gt;Node7 -->
<g id="edge14" class="edge"><title>Node1&#45;&gt;Node7</title>
<path fill="none" stroke="midnightblue" d="M175.416,-116.497C206.093,-106.556 252.128,-91.64 284.403,-81.1823"/>
<polygon fill="midnightblue" stroke="midnightblue" points="285.511,-84.5025 293.945,-78.0904 283.353,-77.8433 285.511,-84.5025"/>
</g>
<!-- Node4&#45;&gt;Node2 -->
<g id="edge8" class="edge"><title>Node4&#45;&gt;Node2</title>
<path fill="none" stroke="midnightblue" d="M123.08,-58.4966C106.054,-49.5194 81.3308,-36.4835 62.0907,-26.3387"/>
<polygon fill="midnightblue" stroke="midnightblue" points="63.6218,-23.1894 53.1437,-21.6212 60.3569,-29.3814 63.6218,-23.1894"/>
</g>
<!-- Node5 -->
<g id="node10" class="node"><title>Node5</title>
<polygon fill="white" stroke="#bfbfbf" points="113.5,-0.5 113.5,-21.5 172.5,-21.5 172.5,-0.5 113.5,-0.5"/>
<text text-anchor="middle" x="143" y="-8.5" font-family="Helvetica,sans-Serif" font-size="10.00">QPixmap</text>
</g>
<!-- Node4&#45;&gt;Node5 -->
<g id="edge10" class="edge"><title>Node4&#45;&gt;Node5</title>
<path fill="none" stroke="midnightblue" d="M143,-58.3619C143,-50.9219 143,-40.7427 143,-31.7276"/>
<polygon fill="midnightblue" stroke="midnightblue" points="146.5,-31.5706 143,-21.5707 139.5,-31.5707 146.5,-31.5706"/>
</g>
</g>
</svg>
