<?xml version="1.0" encoding="UTF-8" standalone="no"?>
<!DOCTYPE svg PUBLIC "-//W3C//DTD SVG 1.1//EN"
 "http://www.w3.org/Graphics/SVG/1.1/DTD/svg11.dtd">
<!-- Generated by graphviz version 2.26.3 (20100126.1600)
 -->
<!-- Title: RoundedCorners.h Pages: 1 -->
<svg width="646pt" height="88pt"
 viewBox="0.00 0.00 646.00 88.00" xmlns="http://www.w3.org/2000/svg" xmlns:xlink="http://www.w3.org/1999/xlink">
<g id="graph1" class="graph" transform="scale(1 1) rotate(0) translate(4 84)">
<title>RoundedCorners.h</title>
<polygon fill="white" stroke="white" points="-4,5 -4,-84 643,-84 643,5 -4,5"/>
<!-- Node1 -->
<g id="node1" class="node"><title>Node1</title>
<polygon fill="#bfbfbf" stroke="black" points="249,-58.5 249,-79.5 355,-79.5 355,-58.5 249,-58.5"/>
<text text-anchor="middle" x="302" y="-66.5" font-family="Helvetica,sans-Serif" font-size="10.00">RoundedCorners.h</text>
</g>
<!-- Node2 -->
<g id="node3" class="node"><title>Node2</title>
<a xlink:href="RoundedCorners_8cpp.htm" target="_top" xlink:title="RoundedCorners.cpp">
<polygon fill="white" stroke="black" points="-0.5,-0.5 -0.5,-21.5 116.5,-21.5 116.5,-0.5 -0.5,-0.5"/>
<text text-anchor="middle" x="58" y="-8.5" font-family="Helvetica,sans-Serif" font-size="10.00">RoundedCorners.cpp</text>
</a>
</g>
<!-- Node1&#45;&gt;Node2 -->
<g id="edge2" class="edge"><title>Node1&#45;&gt;Node2</title>
<path fill="none" stroke="midnightblue" d="M247.909,-56.1424C204.117,-45.7328 143.194,-31.2511 102.269,-21.5231"/>
<polygon fill="midnightblue" stroke="midnightblue" points="247.275,-59.5891 257.813,-58.4966 248.894,-52.7788 247.275,-59.5891"/>
</g>
<!-- Node3 -->
<g id="node5" class="node"><title>Node3</title>
<a xlink:href="DockModeMenuManager_8cpp.htm" target="_top" xlink:title="DockModeMenuManager.cpp">
<polygon fill="white" stroke="black" points="134,-0.5 134,-21.5 290,-21.5 290,-0.5 134,-0.5"/>
<text text-anchor="middle" x="212" y="-8.5" font-family="Helvetica,sans-Serif" font-size="10.00">DockModeMenuManager.cpp</text>
</a>
</g>
<!-- Node1&#45;&gt;Node3 -->
<g id="edge4" class="edge"><title>Node1&#45;&gt;Node3</title>
<path fill="none" stroke="midnightblue" d="M276.895,-52.8215C261.393,-42.8312 241.947,-30.2993 228.403,-21.5707"/>
<polygon fill="midnightblue" stroke="midnightblue" points="275.191,-55.8869 285.493,-58.3619 278.983,-50.0028 275.191,-55.8869"/>
</g>
<!-- Node4 -->
<g id="node7" class="node"><title>Node4</title>
<a xlink:href="EmergencyWindowManager_8cpp.htm" target="_top" xlink:title="EmergencyWindowManager.cpp">
<polygon fill="white" stroke="black" points="308,-0.5 308,-21.5 478,-21.5 478,-0.5 308,-0.5"/>
<text text-anchor="middle" x="393" y="-8.5" font-family="Helvetica,sans-Serif" font-size="10.00">EmergencyWindowManager.cpp</text>
</a>
</g>
<!-- Node1&#45;&gt;Node4 -->
<g id="edge6" class="edge"><title>Node1&#45;&gt;Node4</title>
<path fill="none" stroke="midnightblue" d="M327.384,-52.8215C343.058,-42.8312 362.72,-30.2993 376.415,-21.5707"/>
<polygon fill="midnightblue" stroke="midnightblue" points="325.242,-50.0356 318.691,-58.3619 329.005,-55.9386 325.242,-50.0356"/>
</g>
<!-- Node5 -->
<g id="node9" class="node"><title>Node5</title>
<a xlink:href="MenuWindowManager_8cpp.htm" target="_top" xlink:title="MenuWindowManager.cpp">
<polygon fill="white" stroke="black" points="495.5,-0.5 495.5,-21.5 638.5,-21.5 638.5,-0.5 495.5,-0.5"/>
<text text-anchor="middle" x="567" y="-8.5" font-family="Helvetica,sans-Serif" font-size="10.00">MenuWindowManager.cpp</text>
</a>
</g>
<!-- Node1&#45;&gt;Node5 -->
<g id="edge8" class="edge"><title>Node1&#45;&gt;Node5</title>
<path fill="none" stroke="midnightblue" d="M359.847,-56.3391C407.47,-45.9159 474.193,-31.3126 518.92,-21.5231"/>
<polygon fill="midnightblue" stroke="midnightblue" points="359.01,-52.9394 349.99,-58.4966 360.507,-59.7776 359.01,-52.9394"/>
</g>
</g>
</svg>
