<?xml version="1.0" encoding="UTF-8" standalone="no"?>
<!DOCTYPE svg PUBLIC "-//W3C//DTD SVG 1.1//EN"
 "http://www.w3.org/Graphics/SVG/1.1/DTD/svg11.dtd">
<!-- Generated by graphviz version 2.26.3 (20100126.1600)
 -->
<!-- Title: RoundedCorners.h Pages: 1 -->
<svg width="150pt" height="88pt"
 viewBox="0.00 0.00 150.00 88.00" xmlns="http://www.w3.org/2000/svg" xmlns:xlink="http://www.w3.org/1999/xlink">
<g id="graph1" class="graph" transform="scale(1 1) rotate(0) translate(4 84)">
<title>RoundedCorners.h</title>
<polygon fill="white" stroke="white" points="-4,5 -4,-84 147,-84 147,5 -4,5"/>
<!-- Node1 -->
<g id="node1" class="node"><title>Node1</title>
<polygon fill="#bfbfbf" stroke="black" points="20,-58.5 20,-79.5 126,-79.5 126,-58.5 20,-58.5"/>
<text text-anchor="middle" x="73" y="-66.5" font-family="Helvetica,sans-Serif" font-size="10.00">RoundedCorners.h</text>
</g>
<!-- Node2 -->
<g id="node3" class="node"><title>Node2</title>
<polygon fill="white" stroke="#bfbfbf" points="-0.5,-0.5 -0.5,-21.5 66.5,-21.5 66.5,-0.5 -0.5,-0.5"/>
<text text-anchor="middle" x="33" y="-8.5" font-family="Helvetica,sans-Serif" font-size="10.00">Common.h</text>
</g>
<!-- Node1&#45;&gt;Node2 -->
<g id="edge2" class="edge"><title>Node1&#45;&gt;Node2</title>
<path fill="none" stroke="midnightblue" d="M65.6634,-58.3619C60.194,-50.4313 52.5783,-39.3885 46.0763,-29.9606"/>
<polygon fill="midnightblue" stroke="midnightblue" points="48.8487,-27.8157 40.2901,-21.5707 43.0862,-31.7899 48.8487,-27.8157"/>
</g>
<!-- Node3 -->
<g id="node5" class="node"><title>Node3</title>
<polygon fill="white" stroke="#bfbfbf" points="83.5,-0.5 83.5,-21.5 142.5,-21.5 142.5,-0.5 83.5,-0.5"/>
<text text-anchor="middle" x="113" y="-8.5" font-family="Helvetica,sans-Serif" font-size="10.00">QPixmap</text>
</g>
<!-- Node1&#45;&gt;Node3 -->
<g id="edge4" class="edge"><title>Node1&#45;&gt;Node3</title>
<path fill="none" stroke="midnightblue" d="M80.3366,-58.3619C85.806,-50.4313 93.4217,-39.3885 99.9237,-29.9606"/>
<polygon fill="midnightblue" stroke="midnightblue" points="102.914,-31.7899 105.71,-21.5707 97.1513,-27.8157 102.914,-31.7899"/>
</g>
</g>
</svg>
