<?xml version="1.0" encoding="UTF-8" standalone="no"?>
<!DOCTYPE svg PUBLIC "-//W3C//DTD SVG 1.1//EN"
 "http://www.w3.org/Graphics/SVG/1.1/DTD/svg11.dtd">
<!-- Generated by graphviz version 2.26.3 (20100126.1600)
 -->
<!-- Title: ScreenEdgeFlickGestureRecognizer.cpp Pages: 1 -->
<svg width="1077pt" height="146pt"
 viewBox="0.00 0.00 1076.71 146.00" xmlns="http://www.w3.org/2000/svg" xmlns:xlink="http://www.w3.org/1999/xlink">
<g id="graph1" class="graph" transform="scale(1 1) rotate(0) translate(4 142)">
<title>ScreenEdgeFlickGestureRecognizer.cpp</title>
<polygon fill="white" stroke="white" points="-4,5 -4,-142 1073.71,-142 1073.71,5 -4,5"/>
<!-- Node1 -->
<g id="node1" class="node"><title>Node1</title>
<polygon fill="#bfbfbf" stroke="black" points="513.214,-116.5 513.214,-137.5 720.214,-137.5 720.214,-116.5 513.214,-116.5"/>
<text text-anchor="middle" x="616.714" y="-124.5" font-family="Helvetica,sans-Serif" font-size="10.00">ScreenEdgeFlickGestureRecognizer.cpp</text>
</g>
<!-- Node2 -->
<g id="node3" class="node"><title>Node2</title>
<polygon fill="white" stroke="#bfbfbf" points="9.21414,-0.5 9.21414,-21.5 76.2141,-21.5 76.2141,-0.5 9.21414,-0.5"/>
<text text-anchor="middle" x="42.7141" y="-8.5" font-family="Helvetica,sans-Serif" font-size="10.00">Common.h</text>
</g>
<!-- Node1&#45;&gt;Node2 -->
<g id="edge2" class="edge"><title>Node1&#45;&gt;Node2</title>
<path fill="none" stroke="midnightblue" d="M513.204,-122.666C343.4,-115.048 22.6789,-98.3198 5.71414,-80 -8.20636,-64.9676 7.09154,-43.7173 22.0273,-28.7821"/>
<polygon fill="midnightblue" stroke="midnightblue" points="24.762,-31.0148 29.6481,-21.6139 19.966,-25.916 24.762,-31.0148"/>
</g>
<!-- Node3 -->
<g id="node5" class="node"><title>Node3</title>
<a xlink:href="FlickGestureRecognizer_8h.htm" target="_top" xlink:title="FlickGestureRecognizer.h">
<polygon fill="white" stroke="black" points="14.2141,-58.5 14.2141,-79.5 151.214,-79.5 151.214,-58.5 14.2141,-58.5"/>
<text text-anchor="middle" x="82.7141" y="-66.5" font-family="Helvetica,sans-Serif" font-size="10.00">FlickGestureRecognizer.h</text>
</a>
</g>
<!-- Node1&#45;&gt;Node3 -->
<g id="edge4" class="edge"><title>Node1&#45;&gt;Node3</title>
<path fill="none" stroke="midnightblue" d="M513.128,-117.521C422.86,-108.988 288.163,-95.6025 161.791,-80.2236"/>
<polygon fill="midnightblue" stroke="midnightblue" points="161.894,-76.7102 151.543,-78.9698 161.044,-83.6584 161.894,-76.7102"/>
</g>
<!-- Node7 -->
<g id="node14" class="node"><title>Node7</title>
<polygon fill="white" stroke="#bfbfbf" points="526.714,-0.5 526.714,-21.5 578.714,-21.5 578.714,-0.5 526.714,-0.5"/>
<text text-anchor="middle" x="552.714" y="-8.5" font-family="Helvetica,sans-Serif" font-size="10.00">QEvent</text>
</g>
<!-- Node1&#45;&gt;Node7 -->
<g id="edge14" class="edge"><title>Node1&#45;&gt;Node7</title>
<path fill="none" stroke="midnightblue" d="M603.438,-116.37C593.346,-107.614 579.855,-94.3443 571.714,-80 563.294,-65.1635 558.441,-46.3943 555.75,-32.1782"/>
<polygon fill="midnightblue" stroke="midnightblue" points="559.135,-31.1989 554.029,-21.9155 552.231,-32.3567 559.135,-31.1989"/>
</g>
<!-- Node8 -->
<g id="node16" class="node"><title>Node8</title>
<polygon fill="white" stroke="#bfbfbf" points="670.214,-58.5 670.214,-79.5 751.214,-79.5 751.214,-58.5 670.214,-58.5"/>
<text text-anchor="middle" x="710.714" y="-66.5" font-family="Helvetica,sans-Serif" font-size="10.00">QTouchEvent</text>
</g>
<!-- Node1&#45;&gt;Node8 -->
<g id="edge16" class="edge"><title>Node1&#45;&gt;Node8</title>
<path fill="none" stroke="midnightblue" d="M633.955,-116.362C648.266,-107.532 668.829,-94.844 685.071,-84.8224"/>
<polygon fill="midnightblue" stroke="midnightblue" points="686.91,-87.8004 693.582,-79.5707 683.234,-81.8431 686.91,-87.8004"/>
</g>
<!-- Node9 -->
<g id="node18" class="node"><title>Node9</title>
<polygon fill="white" stroke="#bfbfbf" points="768.714,-58.5 768.714,-79.5 842.714,-79.5 842.714,-58.5 768.714,-58.5"/>
<text text-anchor="middle" x="805.714" y="-66.5" font-family="Helvetica,sans-Serif" font-size="10.00">QTransform</text>
</g>
<!-- Node1&#45;&gt;Node9 -->
<g id="edge18" class="edge"><title>Node1&#45;&gt;Node9</title>
<path fill="none" stroke="midnightblue" d="M650.941,-116.497C682.019,-106.959 728.026,-92.8408 761.804,-82.475"/>
<polygon fill="midnightblue" stroke="midnightblue" points="762.89,-85.8029 771.423,-79.5231 760.837,-79.1109 762.89,-85.8029"/>
</g>
<!-- Node10 -->
<g id="node20" class="node"><title>Node10</title>
<polygon fill="white" stroke="#bfbfbf" points="860.214,-58.5 860.214,-79.5 915.214,-79.5 915.214,-58.5 860.214,-58.5"/>
<text text-anchor="middle" x="887.714" y="-66.5" font-family="Helvetica,sans-Serif" font-size="10.00">QDebug</text>
</g>
<!-- Node1&#45;&gt;Node10 -->
<g id="edge20" class="edge"><title>Node1&#45;&gt;Node10</title>
<path fill="none" stroke="midnightblue" d="M677.95,-116.472C723.266,-108.288 786.659,-96.0191 850.113,-80.2571"/>
<polygon fill="midnightblue" stroke="midnightblue" points="851.037,-83.6337 859.883,-77.8022 849.331,-76.8447 851.037,-83.6337"/>
</g>
<!-- Node11 -->
<g id="node22" class="node"><title>Node11</title>
<a xlink:href="ScreenEdgeFlickGesture_8h.htm" target="_top" xlink:title="ScreenEdgeFlickGesture.h">
<polygon fill="white" stroke="black" points="382.714,-58.5 382.714,-79.5 524.714,-79.5 524.714,-58.5 382.714,-58.5"/>
<text text-anchor="middle" x="453.714" y="-66.5" font-family="Helvetica,sans-Serif" font-size="10.00">ScreenEdgeFlickGesture.h</text>
</a>
</g>
<!-- Node1&#45;&gt;Node11 -->
<g id="edge22" class="edge"><title>Node1&#45;&gt;Node11</title>
<path fill="none" stroke="midnightblue" d="M587.196,-116.497C560.738,-107.082 521.735,-93.2036 492.714,-82.8773"/>
<polygon fill="midnightblue" stroke="midnightblue" points="493.882,-79.578 483.288,-79.5231 491.536,-86.173 493.882,-79.578"/>
</g>
<!-- Node13 -->
<g id="node28" class="node"><title>Node13</title>
<a xlink:href="ScreenEdgeFlickGestureRecognizer_8h.htm" target="_top" xlink:title="ScreenEdgeFlickGestureRecognizer.h">
<polygon fill="white" stroke="black" points="168.714,-58.5 168.714,-79.5 364.714,-79.5 364.714,-58.5 168.714,-58.5"/>
<text text-anchor="middle" x="266.714" y="-66.5" font-family="Helvetica,sans-Serif" font-size="10.00">ScreenEdgeFlickGestureRecognizer.h</text>
</a>
</g>
<!-- Node1&#45;&gt;Node13 -->
<g id="edge30" class="edge"><title>Node1&#45;&gt;Node13</title>
<path fill="none" stroke="midnightblue" d="M553.332,-116.497C493.308,-106.55 403.217,-91.6205 340.104,-81.1618"/>
<polygon fill="midnightblue" stroke="midnightblue" points="340.653,-77.7051 330.215,-79.5231 339.509,-84.6109 340.653,-77.7051"/>
</g>
<!-- Node14 -->
<g id="node33" class="node"><title>Node14</title>
<polygon fill="white" stroke="#bfbfbf" points="932.714,-58.5 932.714,-79.5 980.714,-79.5 980.714,-58.5 932.714,-58.5"/>
<text text-anchor="middle" x="956.714" y="-66.5" font-family="Helvetica,sans-Serif" font-size="10.00">Time.h</text>
</g>
<!-- Node1&#45;&gt;Node14 -->
<g id="edge38" class="edge"><title>Node1&#45;&gt;Node14</title>
<path fill="none" stroke="midnightblue" d="M713.29,-116.486C771.548,-109.139 847.297,-97.8186 922.567,-79.9723"/>
<polygon fill="midnightblue" stroke="midnightblue" points="923.8,-83.2754 932.701,-77.5288 922.159,-76.4704 923.8,-83.2754"/>
</g>
<!-- Node15 -->
<g id="node35" class="node"><title>Node15</title>
<polygon fill="white" stroke="#bfbfbf" points="998.214,-58.5 998.214,-79.5 1069.21,-79.5 1069.21,-58.5 998.214,-58.5"/>
<text text-anchor="middle" x="1033.71" y="-66.5" font-family="Helvetica,sans-Serif" font-size="10.00">HostBase.h</text>
</g>
<!-- Node1&#45;&gt;Node15 -->
<g id="edge40" class="edge"><title>Node1&#45;&gt;Node15</title>
<path fill="none" stroke="midnightblue" d="M720.538,-117.283C793.093,-109.704 892.359,-97.7636 987.67,-80.2391"/>
<polygon fill="midnightblue" stroke="midnightblue" points="988.583,-83.6294 997.773,-78.3575 987.301,-76.7477 988.583,-83.6294"/>
</g>
<!-- Node16 -->
<g id="node37" class="node"><title>Node16</title>
<a xlink:href="FlickEvent_8h.htm" target="_top" xlink:title="FlickEvent.h">
<polygon fill="white" stroke="black" points="580.214,-58.5 580.214,-79.5 653.214,-79.5 653.214,-58.5 580.214,-58.5"/>
<text text-anchor="middle" x="616.714" y="-66.5" font-family="Helvetica,sans-Serif" font-size="10.00">FlickEvent.h</text>
</a>
</g>
<!-- Node1&#45;&gt;Node16 -->
<g id="edge42" class="edge"><title>Node1&#45;&gt;Node16</title>
<path fill="none" stroke="midnightblue" d="M616.714,-116.362C616.714,-108.922 616.714,-98.7427 616.714,-89.7276"/>
<polygon fill="midnightblue" stroke="midnightblue" points="620.214,-89.5706 616.714,-79.5707 613.214,-89.5707 620.214,-89.5706"/>
</g>
<!-- Node3&#45;&gt;Node2 -->
<g id="edge6" class="edge"><title>Node3&#45;&gt;Node2</title>
<path fill="none" stroke="midnightblue" d="M75.3775,-58.3619C69.9082,-50.4313 62.2924,-39.3885 55.7904,-29.9606"/>
<polygon fill="midnightblue" stroke="midnightblue" points="58.5629,-27.8157 50.0042,-21.5707 52.8004,-31.7899 58.5629,-27.8157"/>
</g>
<!-- Node4 -->
<g id="node8" class="node"><title>Node4</title>
<polygon fill="white" stroke="#bfbfbf" points="167.714,-0.5 167.714,-21.5 283.714,-21.5 283.714,-0.5 167.714,-0.5"/>
<text text-anchor="middle" x="225.714" y="-8.5" font-family="Helvetica,sans-Serif" font-size="10.00">QGestureRecognizer</text>
</g>
<!-- Node3&#45;&gt;Node4 -->
<g id="edge8" class="edge"><title>Node3&#45;&gt;Node4</title>
<path fill="none" stroke="midnightblue" d="M108.61,-58.4966C131.348,-49.2746 164.645,-35.7695 189.926,-25.5153"/>
<polygon fill="midnightblue" stroke="midnightblue" points="191.576,-28.6232 199.527,-21.6212 188.945,-22.1365 191.576,-28.6232"/>
</g>
<!-- Node5 -->
<g id="node10" class="node"><title>Node5</title>
<polygon fill="white" stroke="#bfbfbf" points="301.214,-0.5 301.214,-21.5 350.214,-21.5 350.214,-0.5 301.214,-0.5"/>
<text text-anchor="middle" x="325.714" y="-8.5" font-family="Helvetica,sans-Serif" font-size="10.00">QPoint</text>
</g>
<!-- Node3&#45;&gt;Node5 -->
<g id="edge10" class="edge"><title>Node3&#45;&gt;Node5</title>
<path fill="none" stroke="midnightblue" d="M137.04,-58.4218C177.331,-50.2178 233.756,-37.9794 290.992,-22.3142"/>
<polygon fill="midnightblue" stroke="midnightblue" points="292.228,-25.6036 300.931,-19.5611 290.36,-18.8577 292.228,-25.6036"/>
</g>
<!-- Node6 -->
<g id="node12" class="node"><title>Node6</title>
<polygon fill="white" stroke="#bfbfbf" points="93.7141,-0.5 93.7141,-21.5 149.714,-21.5 149.714,-0.5 93.7141,-0.5"/>
<text text-anchor="middle" x="121.714" y="-8.5" font-family="Helvetica,sans-Serif" font-size="10.00">QQueue</text>
</g>
<!-- Node3&#45;&gt;Node6 -->
<g id="edge12" class="edge"><title>Node3&#45;&gt;Node6</title>
<path fill="none" stroke="midnightblue" d="M89.8673,-58.3619C95.2,-50.4313 102.625,-39.3885 108.965,-29.9606"/>
<polygon fill="midnightblue" stroke="midnightblue" points="111.931,-31.8221 114.606,-21.5707 106.122,-27.9161 111.931,-31.8221"/>
</g>
<!-- Node11&#45;&gt;Node2 -->
<g id="edge24" class="edge"><title>Node11&#45;&gt;Node2</title>
<path fill="none" stroke="midnightblue" d="M382.62,-59.1769C379.612,-58.7763 376.633,-58.3825 373.714,-58 248.633,-41.6108 213.586,-46.1973 86.6624,-22.207"/>
<polygon fill="midnightblue" stroke="midnightblue" points="87.0318,-18.7142 76.5522,-20.2729 85.7165,-25.5896 87.0318,-18.7142"/>
</g>
<!-- Node11&#45;&gt;Node5 -->
<g id="edge28" class="edge"><title>Node11&#45;&gt;Node5</title>
<path fill="none" stroke="midnightblue" d="M430.534,-58.4966C410.362,-49.3562 380.905,-36.0082 358.35,-25.7883"/>
<polygon fill="midnightblue" stroke="midnightblue" points="359.707,-22.5606 349.154,-21.6212 356.818,-28.9366 359.707,-22.5606"/>
</g>
<!-- Node12 -->
<g id="node25" class="node"><title>Node12</title>
<polygon fill="white" stroke="#bfbfbf" points="422.714,-0.5 422.714,-21.5 484.714,-21.5 484.714,-0.5 422.714,-0.5"/>
<text text-anchor="middle" x="453.714" y="-8.5" font-family="Helvetica,sans-Serif" font-size="10.00">QGesture</text>
</g>
<!-- Node11&#45;&gt;Node12 -->
<g id="edge26" class="edge"><title>Node11&#45;&gt;Node12</title>
<path fill="none" stroke="midnightblue" d="M453.714,-58.3619C453.714,-50.9219 453.714,-40.7427 453.714,-31.7276"/>
<polygon fill="midnightblue" stroke="midnightblue" points="457.214,-31.5706 453.714,-21.5707 450.214,-31.5707 457.214,-31.5706"/>
</g>
<!-- Node13&#45;&gt;Node4 -->
<g id="edge32" class="edge"><title>Node13&#45;&gt;Node4</title>
<path fill="none" stroke="midnightblue" d="M259.194,-58.3619C253.588,-50.4313 245.782,-39.3885 239.117,-29.9606"/>
<polygon fill="midnightblue" stroke="midnightblue" points="241.817,-27.7161 233.186,-21.5707 236.101,-31.7568 241.817,-27.7161"/>
</g>
<!-- Node13&#45;&gt;Node5 -->
<g id="edge34" class="edge"><title>Node13&#45;&gt;Node5</title>
<path fill="none" stroke="midnightblue" d="M277.536,-58.3619C285.936,-50.1043 297.768,-38.4725 307.604,-28.8029"/>
<polygon fill="midnightblue" stroke="midnightblue" points="310.284,-31.077 314.961,-21.5707 305.376,-26.0851 310.284,-31.077"/>
</g>
<!-- Node13&#45;&gt;Node6 -->
<g id="edge36" class="edge"><title>Node13&#45;&gt;Node6</title>
<path fill="none" stroke="midnightblue" d="M240.456,-58.4966C217.299,-49.2337 183.339,-35.6499 157.663,-25.3793"/>
<polygon fill="midnightblue" stroke="midnightblue" points="158.852,-22.0855 148.267,-21.6212 156.252,-28.5849 158.852,-22.0855"/>
</g>
<!-- Node16&#45;&gt;Node7 -->
<g id="edge44" class="edge"><title>Node16&#45;&gt;Node7</title>
<path fill="none" stroke="midnightblue" d="M604.976,-58.3619C595.774,-50.0226 582.774,-38.2418 572.042,-28.5162"/>
<polygon fill="midnightblue" stroke="midnightblue" points="574.139,-25.6924 564.378,-21.5707 569.438,-30.8793 574.139,-25.6924"/>
</g>
<!-- Node17 -->
<g id="node40" class="node"><title>Node17</title>
<polygon fill="white" stroke="#bfbfbf" points="596.214,-0.5 596.214,-21.5 679.214,-21.5 679.214,-0.5 596.214,-0.5"/>
<text text-anchor="middle" x="637.714" y="-8.5" font-family="Helvetica,sans-Serif" font-size="10.00">SysMgrDefs.h</text>
</g>
<!-- Node16&#45;&gt;Node17 -->
<g id="edge46" class="edge"><title>Node16&#45;&gt;Node17</title>
<path fill="none" stroke="midnightblue" d="M620.566,-58.3619C623.319,-50.7584 627.108,-40.294 630.424,-31.1349"/>
<polygon fill="midnightblue" stroke="midnightblue" points="633.773,-32.1649 633.887,-21.5707 627.191,-29.7818 633.773,-32.1649"/>
</g>
</g>
</svg>
