<?xml version="1.0" encoding="UTF-8" standalone="no"?>
<!DOCTYPE svg PUBLIC "-//W3C//DTD SVG 1.1//EN"
 "http://www.w3.org/Graphics/SVG/1.1/DTD/svg11.dtd">
<!-- Generated by graphviz version 2.26.3 (20100126.1600)
 -->
<!-- Title: scrollinglayoutrenderer.h Pages: 1 -->
<svg width="584pt" height="262pt"
 viewBox="0.00 0.00 584.00 262.00" xmlns="http://www.w3.org/2000/svg" xmlns:xlink="http://www.w3.org/1999/xlink">
<g id="graph1" class="graph" transform="scale(1 1) rotate(0) translate(4 258)">
<title>scrollinglayoutrenderer.h</title>
<polygon fill="white" stroke="white" points="-4,5 -4,-258 581,-258 581,5 -4,5"/>
<!-- Node1 -->
<g id="node1" class="node"><title>Node1</title>
<polygon fill="#bfbfbf" stroke="black" points="90.5,-232.5 90.5,-253.5 223.5,-253.5 223.5,-232.5 90.5,-232.5"/>
<text text-anchor="middle" x="157" y="-240.5" font-family="Helvetica,sans-Serif" font-size="10.00">scrollinglayoutrenderer.h</text>
</g>
<!-- Node2 -->
<g id="node3" class="node"><title>Node2</title>
<a xlink:href="scrollableobject_8h.htm" target="_top" xlink:title="scrollableobject.h">
<polygon fill="white" stroke="black" points="215.5,-174.5 215.5,-195.5 312.5,-195.5 312.5,-174.5 215.5,-174.5"/>
<text text-anchor="middle" x="264" y="-182.5" font-family="Helvetica,sans-Serif" font-size="10.00">scrollableobject.h</text>
</a>
</g>
<!-- Node1&#45;&gt;Node2 -->
<g id="edge2" class="edge"><title>Node1&#45;&gt;Node2</title>
<path fill="none" stroke="midnightblue" d="M176.625,-232.362C193.141,-223.409 216.974,-210.491 235.578,-200.406"/>
<polygon fill="midnightblue" stroke="midnightblue" points="237.375,-203.413 244.499,-195.571 234.04,-197.259 237.375,-203.413"/>
</g>
<!-- Node7 -->
<g id="node13" class="node"><title>Node7</title>
<polygon fill="white" stroke="#bfbfbf" points="-0.5,-0.5 -0.5,-21.5 58.5,-21.5 58.5,-0.5 -0.5,-0.5"/>
<text text-anchor="middle" x="29" y="-8.5" font-family="Helvetica,sans-Serif" font-size="10.00">QPointer</text>
</g>
<!-- Node1&#45;&gt;Node7 -->
<g id="edge32" class="edge"><title>Node1&#45;&gt;Node7</title>
<path fill="none" stroke="midnightblue" d="M151.167,-232.429C131.26,-196.346 65.7904,-77.6826 39.7862,-30.5499"/>
<polygon fill="midnightblue" stroke="midnightblue" points="42.7621,-28.6985 34.8668,-21.6335 36.6331,-32.0801 42.7621,-28.6985"/>
</g>
<!-- Node3 -->
<g id="node5" class="node"><title>Node3</title>
<a xlink:href="thingpaintable_8h.htm" target="_top" xlink:title="thingpaintable.h">
<polygon fill="white" stroke="black" points="261.5,-116.5 261.5,-137.5 352.5,-137.5 352.5,-116.5 261.5,-116.5"/>
<text text-anchor="middle" x="307" y="-124.5" font-family="Helvetica,sans-Serif" font-size="10.00">thingpaintable.h</text>
</a>
</g>
<!-- Node2&#45;&gt;Node3 -->
<g id="edge4" class="edge"><title>Node2&#45;&gt;Node3</title>
<path fill="none" stroke="midnightblue" d="M271.887,-174.362C277.827,-166.35 286.122,-155.161 293.159,-145.67"/>
<polygon fill="midnightblue" stroke="midnightblue" points="296.019,-147.688 299.163,-137.571 290.396,-143.519 296.019,-147.688"/>
</g>
<!-- Node10 -->
<g id="node19" class="node"><title>Node10</title>
<polygon fill="white" stroke="#bfbfbf" points="523.5,-0.5 523.5,-21.5 576.5,-21.5 576.5,-0.5 523.5,-0.5"/>
<text text-anchor="middle" x="550" y="-8.5" font-family="Helvetica,sans-Serif" font-size="10.00">QRectF</text>
</g>
<!-- Node2&#45;&gt;Node10 -->
<g id="edge28" class="edge"><title>Node2&#45;&gt;Node10</title>
<path fill="none" stroke="midnightblue" d="M288.403,-174.329C308.317,-165.349 336.985,-151.796 361,-138 423.304,-102.209 492.41,-53.2212 527.253,-27.8179"/>
<polygon fill="midnightblue" stroke="midnightblue" points="529.744,-30.3316 535.743,-21.5989 525.608,-24.6844 529.744,-30.3316"/>
</g>
<!-- Node13 -->
<g id="node28" class="node"><title>Node13</title>
<polygon fill="white" stroke="#bfbfbf" points="197.5,-116.5 197.5,-137.5 244.5,-137.5 244.5,-116.5 197.5,-116.5"/>
<text text-anchor="middle" x="221" y="-124.5" font-family="Helvetica,sans-Serif" font-size="10.00">QRect</text>
</g>
<!-- Node2&#45;&gt;Node13 -->
<g id="edge30" class="edge"><title>Node2&#45;&gt;Node13</title>
<path fill="none" stroke="midnightblue" d="M256.113,-174.362C250.173,-166.35 241.878,-155.161 234.841,-145.67"/>
<polygon fill="midnightblue" stroke="midnightblue" points="237.604,-143.519 228.837,-137.571 231.981,-147.688 237.604,-143.519"/>
</g>
<!-- Node4 -->
<g id="node7" class="node"><title>Node4</title>
<a xlink:href="thing_8h.htm" target="_top" xlink:title="thing.h">
<polygon fill="white" stroke="black" points="283,-58.5 283,-79.5 331,-79.5 331,-58.5 283,-58.5"/>
<text text-anchor="middle" x="307" y="-66.5" font-family="Helvetica,sans-Serif" font-size="10.00">thing.h</text>
</a>
</g>
<!-- Node3&#45;&gt;Node4 -->
<g id="edge6" class="edge"><title>Node3&#45;&gt;Node4</title>
<path fill="none" stroke="midnightblue" d="M307,-116.362C307,-108.922 307,-98.7427 307,-89.7276"/>
<polygon fill="midnightblue" stroke="midnightblue" points="310.5,-89.5706 307,-79.5707 303.5,-89.5707 310.5,-89.5706"/>
</g>
<!-- Node8 -->
<g id="node15" class="node"><title>Node8</title>
<polygon fill="white" stroke="#bfbfbf" points="75.5,-0.5 75.5,-21.5 128.5,-21.5 128.5,-0.5 75.5,-0.5"/>
<text text-anchor="middle" x="102" y="-8.5" font-family="Helvetica,sans-Serif" font-size="10.00">QString</text>
</g>
<!-- Node3&#45;&gt;Node8 -->
<g id="edge24" class="edge"><title>Node3&#45;&gt;Node8</title>
<path fill="none" stroke="midnightblue" d="M288.082,-116.295C251.682,-95.6981 171.77,-50.4799 129.489,-26.5548"/>
<polygon fill="midnightblue" stroke="midnightblue" points="131.004,-23.3903 120.577,-21.5117 127.556,-29.4826 131.004,-23.3903"/>
</g>
<!-- Node3&#45;&gt;Node10 -->
<g id="edge26" class="edge"><title>Node3&#45;&gt;Node10</title>
<path fill="none" stroke="midnightblue" d="M329.425,-116.295C372.935,-95.525 468.892,-49.7182 518.669,-25.9562"/>
<polygon fill="midnightblue" stroke="midnightblue" points="520.463,-28.9783 527.98,-21.5117 517.448,-22.6611 520.463,-28.9783"/>
</g>
<!-- Node5 -->
<g id="node9" class="node"><title>Node5</title>
<polygon fill="white" stroke="#bfbfbf" points="146,-0.5 146,-21.5 244,-21.5 244,-0.5 146,-0.5"/>
<text text-anchor="middle" x="195" y="-8.5" font-family="Helvetica,sans-Serif" font-size="10.00">QGraphicsObject</text>
</g>
<!-- Node4&#45;&gt;Node5 -->
<g id="edge8" class="edge"><title>Node4&#45;&gt;Node5</title>
<path fill="none" stroke="midnightblue" d="M286.718,-58.4966C269.382,-49.5194 244.21,-36.4835 224.62,-26.3387"/>
<polygon fill="midnightblue" stroke="midnightblue" points="225.999,-23.1118 215.51,-21.6212 222.78,-29.3278 225.999,-23.1118"/>
</g>
<!-- Node6 -->
<g id="node11" class="node"><title>Node6</title>
<polygon fill="white" stroke="#bfbfbf" points="262,-0.5 262,-21.5 308,-21.5 308,-0.5 262,-0.5"/>
<text text-anchor="middle" x="285" y="-8.5" font-family="Helvetica,sans-Serif" font-size="10.00">QUuid</text>
</g>
<!-- Node4&#45;&gt;Node6 -->
<g id="edge10" class="edge"><title>Node4&#45;&gt;Node6</title>
<path fill="none" stroke="midnightblue" d="M302.965,-58.3619C300.081,-50.7584 296.112,-40.294 292.637,-31.1349"/>
<polygon fill="midnightblue" stroke="midnightblue" points="295.829,-29.6793 289.01,-21.5707 289.284,-32.1619 295.829,-29.6793"/>
</g>
<!-- Node4&#45;&gt;Node7 -->
<g id="edge12" class="edge"><title>Node4&#45;&gt;Node7</title>
<path fill="none" stroke="midnightblue" d="M282.659,-64.9665C240.791,-57.8722 152.28,-42.1911 68.705,-22.2818"/>
<polygon fill="midnightblue" stroke="midnightblue" points="69.3457,-18.8361 58.8042,-19.8974 67.7067,-25.6416 69.3457,-18.8361"/>
</g>
<!-- Node4&#45;&gt;Node8 -->
<g id="edge14" class="edge"><title>Node4&#45;&gt;Node8</title>
<path fill="none" stroke="midnightblue" d="M282.995,-62.6454C251.807,-54.3285 195.44,-39.0916 138.59,-22.4122"/>
<polygon fill="midnightblue" stroke="midnightblue" points="139.305,-18.9741 128.724,-19.504 137.326,-25.6885 139.305,-18.9741"/>
</g>
<!-- Node9 -->
<g id="node17" class="node"><title>Node9</title>
<polygon fill="white" stroke="#bfbfbf" points="325.5,-0.5 325.5,-21.5 366.5,-21.5 366.5,-0.5 325.5,-0.5"/>
<text text-anchor="middle" x="346" y="-8.5" font-family="Helvetica,sans-Serif" font-size="10.00">QList</text>
</g>
<!-- Node4&#45;&gt;Node9 -->
<g id="edge16" class="edge"><title>Node4&#45;&gt;Node9</title>
<path fill="none" stroke="midnightblue" d="M314.153,-58.3619C319.486,-50.4313 326.911,-39.3885 333.251,-29.9606"/>
<polygon fill="midnightblue" stroke="midnightblue" points="336.217,-31.8221 338.892,-21.5707 330.408,-27.9161 336.217,-31.8221"/>
</g>
<!-- Node4&#45;&gt;Node10 -->
<g id="edge18" class="edge"><title>Node4&#45;&gt;Node10</title>
<path fill="none" stroke="midnightblue" d="M331.179,-64.2104C368.374,-56.6987 442.04,-41.2527 513.281,-22.3287"/>
<polygon fill="midnightblue" stroke="midnightblue" points="514.563,-25.6086 523.313,-19.6358 512.748,-18.848 514.563,-25.6086"/>
</g>
<!-- Node11 -->
<g id="node21" class="node"><title>Node11</title>
<polygon fill="white" stroke="#bfbfbf" points="383.5,-0.5 383.5,-21.5 438.5,-21.5 438.5,-0.5 383.5,-0.5"/>
<text text-anchor="middle" x="411" y="-8.5" font-family="Helvetica,sans-Serif" font-size="10.00">QDebug</text>
</g>
<!-- Node4&#45;&gt;Node11 -->
<g id="edge20" class="edge"><title>Node4&#45;&gt;Node11</title>
<path fill="none" stroke="midnightblue" d="M326.075,-58.3619C342.055,-49.4502 365.081,-36.6087 383.127,-26.5447"/>
<polygon fill="midnightblue" stroke="midnightblue" points="385.017,-29.4982 392.046,-21.5707 381.607,-23.3846 385.017,-29.4982"/>
</g>
<!-- Node12 -->
<g id="node23" class="node"><title>Node12</title>
<polygon fill="white" stroke="#bfbfbf" points="456,-0.5 456,-21.5 506,-21.5 506,-0.5 456,-0.5"/>
<text text-anchor="middle" x="481" y="-8.5" font-family="Helvetica,sans-Serif" font-size="10.00">QHash</text>
</g>
<!-- Node4&#45;&gt;Node12 -->
<g id="edge22" class="edge"><title>Node4&#45;&gt;Node12</title>
<path fill="none" stroke="midnightblue" d="M331.194,-60.9353C361.11,-50.9632 412.243,-33.9191 446.326,-22.5578"/>
<polygon fill="midnightblue" stroke="midnightblue" points="447.505,-25.8545 455.885,-19.3718 445.291,-19.2137 447.505,-25.8545"/>
</g>
</g>
</svg>
