<?xml version="1.0" encoding="UTF-8" standalone="no"?>
<!DOCTYPE svg PUBLIC "-//W3C//DTD SVG 1.1//EN"
 "http://www.w3.org/Graphics/SVG/1.1/DTD/svg11.dtd">
<!-- Generated by graphviz version 2.26.3 (20100126.1600)
 -->
<!-- Title: scrollableobject.h Pages: 1 -->
<svg width="1028pt" height="204pt"
 viewBox="0.00 0.00 1028.00 204.00" xmlns="http://www.w3.org/2000/svg" xmlns:xlink="http://www.w3.org/1999/xlink">
<g id="graph1" class="graph" transform="scale(1 1) rotate(0) translate(4 200)">
<title>scrollableobject.h</title>
<polygon fill="white" stroke="white" points="-4,5 -4,-200 1025,-200 1025,5 -4,5"/>
<!-- Node1 -->
<g id="node1" class="node"><title>Node1</title>
<polygon fill="#bfbfbf" stroke="black" points="686.5,-174.5 686.5,-195.5 783.5,-195.5 783.5,-174.5 686.5,-174.5"/>
<text text-anchor="middle" x="735" y="-182.5" font-family="Helvetica,sans-Serif" font-size="10.00">scrollableobject.h</text>
</g>
<!-- Node2 -->
<g id="node3" class="node"><title>Node2</title>
<a xlink:href="iconlayout_8h.htm" target="_top" xlink:title="iconlayout.h">
<polygon fill="white" stroke="black" points="338,-116.5 338,-137.5 410,-137.5 410,-116.5 338,-116.5"/>
<text text-anchor="middle" x="374" y="-124.5" font-family="Helvetica,sans-Serif" font-size="10.00">iconlayout.h</text>
</a>
</g>
<!-- Node1&#45;&gt;Node2 -->
<g id="edge2" class="edge"><title>Node1&#45;&gt;Node2</title>
<path fill="none" stroke="midnightblue" d="M676.044,-175.528C600.693,-163.422 472.557,-142.835 410.216,-132.819"/>
<polygon fill="midnightblue" stroke="midnightblue" points="675.885,-179.047 686.314,-177.178 676.996,-172.136 675.885,-179.047"/>
</g>
<!-- Node14 -->
<g id="node29" class="node"><title>Node14</title>
<a xlink:href="scrollableobject_8cpp.htm" target="_top" xlink:title="scrollableobject.cpp">
<polygon fill="white" stroke="black" points="612,-116.5 612,-137.5 720,-137.5 720,-116.5 612,-116.5"/>
<text text-anchor="middle" x="666" y="-124.5" font-family="Helvetica,sans-Serif" font-size="10.00">scrollableobject.cpp</text>
</a>
</g>
<!-- Node1&#45;&gt;Node14 -->
<g id="edge30" class="edge"><title>Node1&#45;&gt;Node14</title>
<path fill="none" stroke="midnightblue" d="M714.408,-167.691C702.76,-157.9 688.571,-145.973 678.575,-137.571"/>
<polygon fill="midnightblue" stroke="midnightblue" points="712.437,-170.607 722.344,-174.362 716.942,-165.248 712.437,-170.607"/>
</g>
<!-- Node15 -->
<g id="node31" class="node"><title>Node15</title>
<a xlink:href="scrollinglayoutrenderer_8h.htm" target="_top" xlink:title="scrollinglayoutrenderer.h">
<polygon fill="white" stroke="black" points="737.5,-116.5 737.5,-137.5 870.5,-137.5 870.5,-116.5 737.5,-116.5"/>
<text text-anchor="middle" x="804" y="-124.5" font-family="Helvetica,sans-Serif" font-size="10.00">scrollinglayoutrenderer.h</text>
</a>
</g>
<!-- Node1&#45;&gt;Node15 -->
<g id="edge32" class="edge"><title>Node1&#45;&gt;Node15</title>
<path fill="none" stroke="midnightblue" d="M755.592,-167.691C767.24,-157.9 781.429,-145.973 791.425,-137.571"/>
<polygon fill="midnightblue" stroke="midnightblue" points="753.058,-165.248 747.656,-174.362 757.563,-170.607 753.058,-165.248"/>
</g>
<!-- Node16 -->
<g id="node36" class="node"><title>Node16</title>
<a xlink:href="scrollingsurface_8h.htm" target="_top" xlink:title="scrollingsurface.h">
<polygon fill="white" stroke="black" points="870,-58.5 870,-79.5 968,-79.5 968,-58.5 870,-58.5"/>
<text text-anchor="middle" x="919" y="-66.5" font-family="Helvetica,sans-Serif" font-size="10.00">scrollingsurface.h</text>
</a>
</g>
<!-- Node1&#45;&gt;Node16 -->
<g id="edge40" class="edge"><title>Node1&#45;&gt;Node16</title>
<path fill="none" stroke="midnightblue" d="M793.384,-176.013C821.618,-169.31 854.589,-157.758 879,-138 898.265,-122.406 910.145,-94.8849 915.549,-79.7397"/>
<polygon fill="midnightblue" stroke="midnightblue" points="792.617,-172.598 783.617,-178.187 794.138,-179.43 792.617,-172.598"/>
</g>
<!-- Node3 -->
<g id="node5" class="node"><title>Node3</title>
<a xlink:href="alphabeticonlayout_8h.htm" target="_top" xlink:title="alphabeticonlayout.h">
<polygon fill="white" stroke="black" points="501.5,-58.5 501.5,-79.5 614.5,-79.5 614.5,-58.5 501.5,-58.5"/>
<text text-anchor="middle" x="558" y="-66.5" font-family="Helvetica,sans-Serif" font-size="10.00">alphabeticonlayout.h</text>
</a>
</g>
<!-- Node2&#45;&gt;Node3 -->
<g id="edge4" class="edge"><title>Node2&#45;&gt;Node3</title>
<path fill="none" stroke="midnightblue" d="M417.104,-113.413C449.933,-103.065 494.47,-89.0258 524.616,-79.5231"/>
<polygon fill="midnightblue" stroke="midnightblue" points="415.806,-110.152 407.321,-116.497 417.911,-116.828 415.806,-110.152"/>
</g>
<!-- Node5 -->
<g id="node9" class="node"><title>Node5</title>
<a xlink:href="alphabeticonlayout_8cpp.htm" target="_top" xlink:title="alphabeticonlayout.cpp">
<polygon fill="white" stroke="black" points="432,-0.5 432,-21.5 556,-21.5 556,-0.5 432,-0.5"/>
<text text-anchor="middle" x="494" y="-8.5" font-family="Helvetica,sans-Serif" font-size="10.00">alphabeticonlayout.cpp</text>
</a>
</g>
<!-- Node2&#45;&gt;Node5 -->
<g id="edge10" class="edge"><title>Node2&#45;&gt;Node5</title>
<path fill="none" stroke="midnightblue" d="M375.176,-106.103C377.017,-91.1848 381.62,-71.4572 393,-58 408.111,-40.1312 431.501,-28.654 451.968,-21.5183"/>
<polygon fill="midnightblue" stroke="midnightblue" points="371.661,-106.114 374.239,-116.39 378.632,-106.748 371.661,-106.114"/>
</g>
<!-- Node6 -->
<g id="node12" class="node"><title>Node6</title>
<a xlink:href="iconlayout_8cpp.htm" target="_top" xlink:title="iconlayout.cpp">
<polygon fill="white" stroke="black" points="401.5,-58.5 401.5,-79.5 484.5,-79.5 484.5,-58.5 401.5,-58.5"/>
<text text-anchor="middle" x="443" y="-66.5" font-family="Helvetica,sans-Serif" font-size="10.00">iconlayout.cpp</text>
</a>
</g>
<!-- Node2&#45;&gt;Node6 -->
<g id="edge12" class="edge"><title>Node2&#45;&gt;Node6</title>
<path fill="none" stroke="midnightblue" d="M394.592,-109.691C406.24,-99.8996 420.429,-87.973 430.425,-79.5707"/>
<polygon fill="midnightblue" stroke="midnightblue" points="392.058,-107.248 386.656,-116.362 396.563,-112.607 392.058,-107.248"/>
</g>
<!-- Node7 -->
<g id="node14" class="node"><title>Node7</title>
<a xlink:href="reorderableiconlayout_8h.htm" target="_top" xlink:title="reorderableiconlayout.h">
<polygon fill="white" stroke="black" points="219.5,-58.5 219.5,-79.5 346.5,-79.5 346.5,-58.5 219.5,-58.5"/>
<text text-anchor="middle" x="283" y="-66.5" font-family="Helvetica,sans-Serif" font-size="10.00">reorderableiconlayout.h</text>
</a>
</g>
<!-- Node2&#45;&gt;Node7 -->
<g id="edge14" class="edge"><title>Node2&#45;&gt;Node7</title>
<path fill="none" stroke="midnightblue" d="M348.616,-110.821C332.942,-100.831 313.28,-88.2993 299.585,-79.5707"/>
<polygon fill="midnightblue" stroke="midnightblue" points="346.995,-113.939 357.309,-116.362 350.758,-108.036 346.995,-113.939"/>
</g>
<!-- Node9 -->
<g id="node18" class="node"><title>Node9</title>
<a xlink:href="reorderableiconlayout_8cpp.htm" target="_top" xlink:title="reorderableiconlayout.cpp">
<polygon fill="white" stroke="black" points="0,-0.5 0,-21.5 138,-21.5 138,-0.5 0,-0.5"/>
<text text-anchor="middle" x="69" y="-8.5" font-family="Helvetica,sans-Serif" font-size="10.00">reorderableiconlayout.cpp</text>
</a>
</g>
<!-- Node2&#45;&gt;Node9 -->
<g id="edge22" class="edge"><title>Node2&#45;&gt;Node9</title>
<path fill="none" stroke="midnightblue" d="M327.578,-124.027C237.996,-117.816 48.3592,-102.175 29,-80 12.9731,-61.6417 37.8894,-35.9128 55.0273,-21.625"/>
<polygon fill="midnightblue" stroke="midnightblue" points="327.516,-127.531 337.732,-124.72 327.993,-120.547 327.516,-127.531"/>
</g>
<!-- Node11 -->
<g id="node23" class="node"><title>Node11</title>
<a xlink:href="page_8cpp.htm" target="_top" xlink:title="page.cpp">
<polygon fill="white" stroke="black" points="38,-58.5 38,-79.5 98,-79.5 98,-58.5 38,-58.5"/>
<text text-anchor="middle" x="68" y="-66.5" font-family="Helvetica,sans-Serif" font-size="10.00">page.cpp</text>
</a>
</g>
<!-- Node2&#45;&gt;Node11 -->
<g id="edge24" class="edge"><title>Node2&#45;&gt;Node11</title>
<path fill="none" stroke="midnightblue" d="M327.74,-120.305C274.274,-112.232 183.786,-97.5402 107,-80 104.119,-79.342 101.134,-78.6038 98.1566,-77.8295"/>
<polygon fill="midnightblue" stroke="midnightblue" points="327.517,-123.81 337.925,-121.83 328.554,-116.887 327.517,-123.81"/>
</g>
<!-- Node12 -->
<g id="node25" class="node"><title>Node12</title>
<a xlink:href="scrollinglayoutrenderer_8cpp.htm" target="_top" xlink:title="scrollinglayoutrenderer.cpp">
<polygon fill="white" stroke="black" points="632,-58.5 632,-79.5 776,-79.5 776,-58.5 632,-58.5"/>
<text text-anchor="middle" x="704" y="-66.5" font-family="Helvetica,sans-Serif" font-size="10.00">scrollinglayoutrenderer.cpp</text>
</a>
</g>
<!-- Node2&#45;&gt;Node12 -->
<g id="edge26" class="edge"><title>Node2&#45;&gt;Node12</title>
<path fill="none" stroke="midnightblue" d="M420.325,-118.858C478.835,-108.574 579.628,-90.8593 643.981,-79.5488"/>
<polygon fill="midnightblue" stroke="midnightblue" points="419.503,-115.449 410.26,-120.627 420.715,-122.343 419.503,-115.449"/>
</g>
<!-- Node13 -->
<g id="node27" class="node"><title>Node13</title>
<a xlink:href="pagesaver_8cpp.htm" target="_top" xlink:title="pagesaver.cpp">
<polygon fill="white" stroke="black" points="116,-58.5 116,-79.5 202,-79.5 202,-58.5 116,-58.5"/>
<text text-anchor="middle" x="159" y="-66.5" font-family="Helvetica,sans-Serif" font-size="10.00">pagesaver.cpp</text>
</a>
</g>
<!-- Node2&#45;&gt;Node13 -->
<g id="edge28" class="edge"><title>Node2&#45;&gt;Node13</title>
<path fill="none" stroke="midnightblue" d="M327.58,-114.477C288.978,-104.064 234.65,-89.408 198.202,-79.5754"/>
<polygon fill="midnightblue" stroke="midnightblue" points="326.962,-117.936 337.528,-117.161 328.785,-111.177 326.962,-117.936"/>
</g>
<!-- Node4 -->
<g id="node7" class="node"><title>Node4</title>
<a xlink:href="alphabetpage_8cpp.htm" target="_top" xlink:title="alphabetpage.cpp">
<polygon fill="white" stroke="black" points="791.5,-0.5 791.5,-21.5 892.5,-21.5 892.5,-0.5 791.5,-0.5"/>
<text text-anchor="middle" x="842" y="-8.5" font-family="Helvetica,sans-Serif" font-size="10.00">alphabetpage.cpp</text>
</a>
</g>
<!-- Node3&#45;&gt;Node4 -->
<g id="edge6" class="edge"><title>Node3&#45;&gt;Node4</title>
<path fill="none" stroke="midnightblue" d="M619.419,-56.4567C670.833,-45.9567 743.314,-31.1541 791.43,-21.3277"/>
<polygon fill="midnightblue" stroke="midnightblue" points="618.528,-53.0664 609.43,-58.4966 619.928,-59.9248 618.528,-53.0664"/>
</g>
<!-- Node3&#45;&gt;Node5 -->
<g id="edge8" class="edge"><title>Node3&#45;&gt;Node5</title>
<path fill="none" stroke="midnightblue" d="M538.585,-51.405C527.841,-41.6683 514.846,-29.8914 505.664,-21.5707"/>
<polygon fill="midnightblue" stroke="midnightblue" points="536.501,-54.2401 546.261,-58.3619 541.202,-49.0532 536.501,-54.2401"/>
</g>
<!-- Node8 -->
<g id="node16" class="node"><title>Node8</title>
<a xlink:href="iconreorderanimation_8cpp.htm" target="_top" xlink:title="iconreorderanimation.cpp">
<polygon fill="white" stroke="black" points="214.5,-0.5 214.5,-21.5 351.5,-21.5 351.5,-0.5 214.5,-0.5"/>
<text text-anchor="middle" x="283" y="-8.5" font-family="Helvetica,sans-Serif" font-size="10.00">iconreorderanimation.cpp</text>
</a>
</g>
<!-- Node7&#45;&gt;Node8 -->
<g id="edge16" class="edge"><title>Node7&#45;&gt;Node8</title>
<path fill="none" stroke="midnightblue" d="M283,-48.1906C283,-39.1684 283,-28.9941 283,-21.5707"/>
<polygon fill="midnightblue" stroke="midnightblue" points="279.5,-48.3619 283,-58.3619 286.5,-48.3619 279.5,-48.3619"/>
</g>
<!-- Node7&#45;&gt;Node9 -->
<g id="edge18" class="edge"><title>Node7&#45;&gt;Node9</title>
<path fill="none" stroke="midnightblue" d="M234.342,-55.8123C196.029,-45.4285 143.342,-31.1487 107.826,-21.5231"/>
<polygon fill="midnightblue" stroke="midnightblue" points="233.679,-59.2588 244.246,-58.4966 235.51,-52.5025 233.679,-59.2588"/>
</g>
<!-- Node10 -->
<g id="node20" class="node"><title>Node10</title>
<a xlink:href="reorderablepage_8cpp.htm" target="_top" xlink:title="reorderablepage.cpp">
<polygon fill="white" stroke="black" points="659.5,-0.5 659.5,-21.5 774.5,-21.5 774.5,-0.5 659.5,-0.5"/>
<text text-anchor="middle" x="717" y="-8.5" font-family="Helvetica,sans-Serif" font-size="10.00">reorderablepage.cpp</text>
</a>
</g>
<!-- Node7&#45;&gt;Node10 -->
<g id="edge20" class="edge"><title>Node7&#45;&gt;Node10</title>
<path fill="none" stroke="midnightblue" d="M356.731,-59.1465C442.285,-47.7131 581.551,-29.1015 659.499,-18.6844"/>
<polygon fill="midnightblue" stroke="midnightblue" points="356.02,-55.7103 346.572,-60.5042 356.948,-62.6486 356.02,-55.7103"/>
</g>
<!-- Node15&#45;&gt;Node4 -->
<g id="edge34" class="edge"><title>Node15&#45;&gt;Node4</title>
<path fill="none" stroke="midnightblue" d="M810.62,-106.79C818.732,-82.0294 832.174,-40.996 838.502,-21.6792"/>
<polygon fill="midnightblue" stroke="midnightblue" points="807.294,-105.702 807.507,-116.295 813.946,-107.881 807.294,-105.702"/>
</g>
<!-- Node15&#45;&gt;Node10 -->
<g id="edge36" class="edge"><title>Node15&#45;&gt;Node10</title>
<path fill="none" stroke="midnightblue" d="M802.047,-106.152C799.825,-91.5593 795.088,-72.2094 785,-58 773.619,-41.9683 754.944,-29.6351 740.042,-21.6332"/>
<polygon fill="midnightblue" stroke="midnightblue" points="798.591,-106.731 803.302,-116.221 805.538,-105.864 798.591,-106.731"/>
</g>
<!-- Node15&#45;&gt;Node12 -->
<g id="edge38" class="edge"><title>Node15&#45;&gt;Node12</title>
<path fill="none" stroke="midnightblue" d="M776.588,-111.101C759.286,-101.066 737.415,-88.3808 722.225,-79.5707"/>
<polygon fill="midnightblue" stroke="midnightblue" points="775.252,-114.372 785.658,-116.362 778.764,-108.317 775.252,-114.372"/>
</g>
<!-- Node16&#45;&gt;Node4 -->
<g id="edge42" class="edge"><title>Node16&#45;&gt;Node4</title>
<path fill="none" stroke="midnightblue" d="M896.774,-52.2587C883.639,-42.3641 867.405,-30.1361 856.033,-21.5707"/>
<polygon fill="midnightblue" stroke="midnightblue" points="894.784,-55.1409 904.877,-58.3619 898.995,-49.5496 894.784,-55.1409"/>
</g>
<!-- Node16&#45;&gt;Node10 -->
<g id="edge44" class="edge"><title>Node16&#45;&gt;Node10</title>
<path fill="none" stroke="midnightblue" d="M872.608,-55.6795C836.483,-45.307 787.03,-31.1078 753.649,-21.5231"/>
<polygon fill="midnightblue" stroke="midnightblue" points="871.842,-59.1009 882.419,-58.4966 873.774,-52.3727 871.842,-59.1009"/>
</g>
<!-- Node17 -->
<g id="node40" class="node"><title>Node17</title>
<a xlink:href="scrollingsurface_8cpp.htm" target="_top" xlink:title="scrollingsurface.cpp">
<polygon fill="white" stroke="black" points="910,-0.5 910,-21.5 1020,-21.5 1020,-0.5 910,-0.5"/>
<text text-anchor="middle" x="965" y="-8.5" font-family="Helvetica,sans-Serif" font-size="10.00">scrollingsurface.cpp</text>
</a>
</g>
<!-- Node16&#45;&gt;Node17 -->
<g id="edge46" class="edge"><title>Node16&#45;&gt;Node17</title>
<path fill="none" stroke="midnightblue" d="M933.87,-50.2504C941.405,-40.75 950.276,-29.5651 956.616,-21.5707"/>
<polygon fill="midnightblue" stroke="midnightblue" points="930.909,-48.352 927.437,-58.3619 936.393,-52.7018 930.909,-48.352"/>
</g>
</g>
</svg>
