<?xml version="1.0" encoding="UTF-8" standalone="no"?>
<!DOCTYPE svg PUBLIC "-//W3C//DTD SVG 1.1//EN"
 "http://www.w3.org/Graphics/SVG/1.1/DTD/svg11.dtd">
<!-- Generated by graphviz version 2.26.3 (20100126.1600)
 -->
<!-- Title: scrollinglayoutrenderer.h Pages: 1 -->
<svg width="402pt" height="88pt"
 viewBox="0.00 0.00 402.00 88.00" xmlns="http://www.w3.org/2000/svg" xmlns:xlink="http://www.w3.org/1999/xlink">
<g id="graph1" class="graph" transform="scale(1 1) rotate(0) translate(4 84)">
<title>scrollinglayoutrenderer.h</title>
<polygon fill="white" stroke="white" points="-4,5 -4,-84 399,-84 399,5 -4,5"/>
<!-- Node1 -->
<g id="node1" class="node"><title>Node1</title>
<polygon fill="#bfbfbf" stroke="black" points="108.5,-58.5 108.5,-79.5 241.5,-79.5 241.5,-58.5 108.5,-58.5"/>
<text text-anchor="middle" x="175" y="-66.5" font-family="Helvetica,sans-Serif" font-size="10.00">scrollinglayoutrenderer.h</text>
</g>
<!-- Node2 -->
<g id="node3" class="node"><title>Node2</title>
<a xlink:href="alphabetpage_8cpp.htm" target="_top" xlink:title="alphabetpage.cpp">
<polygon fill="white" stroke="black" points="-0.5,-0.5 -0.5,-21.5 100.5,-21.5 100.5,-0.5 -0.5,-0.5"/>
<text text-anchor="middle" x="50" y="-8.5" font-family="Helvetica,sans-Serif" font-size="10.00">alphabetpage.cpp</text>
</a>
</g>
<!-- Node1&#45;&gt;Node2 -->
<g id="edge2" class="edge"><title>Node1&#45;&gt;Node2</title>
<path fill="none" stroke="midnightblue" d="M143.117,-54.2064C121.188,-44.031 92.5791,-30.7567 72.8906,-21.6212"/>
<polygon fill="midnightblue" stroke="midnightblue" points="141.819,-57.4625 152.363,-58.4966 144.766,-51.1127 141.819,-57.4625"/>
</g>
<!-- Node3 -->
<g id="node5" class="node"><title>Node3</title>
<a xlink:href="reorderablepage_8cpp.htm" target="_top" xlink:title="reorderablepage.cpp">
<polygon fill="white" stroke="black" points="117.5,-0.5 117.5,-21.5 232.5,-21.5 232.5,-0.5 117.5,-0.5"/>
<text text-anchor="middle" x="175" y="-8.5" font-family="Helvetica,sans-Serif" font-size="10.00">reorderablepage.cpp</text>
</a>
</g>
<!-- Node1&#45;&gt;Node3 -->
<g id="edge4" class="edge"><title>Node1&#45;&gt;Node3</title>
<path fill="none" stroke="midnightblue" d="M175,-48.1906C175,-39.1684 175,-28.9941 175,-21.5707"/>
<polygon fill="midnightblue" stroke="midnightblue" points="171.5,-48.3619 175,-58.3619 178.5,-48.3619 171.5,-48.3619"/>
</g>
<!-- Node4 -->
<g id="node7" class="node"><title>Node4</title>
<a xlink:href="scrollinglayoutrenderer_8cpp.htm" target="_top" xlink:title="scrollinglayoutrenderer.cpp">
<polygon fill="white" stroke="black" points="250,-0.5 250,-21.5 394,-21.5 394,-0.5 250,-0.5"/>
<text text-anchor="middle" x="322" y="-8.5" font-family="Helvetica,sans-Serif" font-size="10.00">scrollinglayoutrenderer.cpp</text>
</a>
</g>
<!-- Node1&#45;&gt;Node4 -->
<g id="edge6" class="edge"><title>Node1&#45;&gt;Node4</title>
<path fill="none" stroke="midnightblue" d="M211.114,-54.7509C237.073,-44.5086 271.512,-30.9206 295.081,-21.6212"/>
<polygon fill="midnightblue" stroke="midnightblue" points="209.638,-51.5706 201.621,-58.4966 212.207,-58.0821 209.638,-51.5706"/>
</g>
</g>
</svg>
