<?xml version="1.0" encoding="UTF-8" standalone="no"?>
<!DOCTYPE svg PUBLIC "-//W3C//DTD SVG 1.1//EN"
 "http://www.w3.org/Graphics/SVG/1.1/DTD/svg11.dtd">
<!-- Generated by graphviz version 2.26.3 (20100126.1600)
 -->
<!-- Title: scrollinglayoutrenderer.cpp Pages: 1 -->
<svg width="1371pt" height="320pt"
 viewBox="0.00 0.00 1370.84 320.00" xmlns="http://www.w3.org/2000/svg" xmlns:xlink="http://www.w3.org/1999/xlink">
<g id="graph1" class="graph" transform="scale(1 1) rotate(0) translate(4 316)">
<title>scrollinglayoutrenderer.cpp</title>
<polygon fill="white" stroke="white" points="-4,5 -4,-316 1367.84,-316 1367.84,5 -4,5"/>
<!-- Node1 -->
<g id="node1" class="node"><title>Node1</title>
<polygon fill="#bfbfbf" stroke="black" points="826.843,-290.5 826.843,-311.5 970.843,-311.5 970.843,-290.5 826.843,-290.5"/>
<text text-anchor="middle" x="898.843" y="-298.5" font-family="Helvetica,sans-Serif" font-size="10.00">scrollinglayoutrenderer.cpp</text>
</g>
<!-- Node2 -->
<g id="node3" class="node"><title>Node2</title>
<a xlink:href="scrollinglayoutrenderer_8h.htm" target="_top" xlink:title="scrollinglayoutrenderer.h">
<polygon fill="white" stroke="black" points="112.343,-232.5 112.343,-253.5 245.343,-253.5 245.343,-232.5 112.343,-232.5"/>
<text text-anchor="middle" x="178.843" y="-240.5" font-family="Helvetica,sans-Serif" font-size="10.00">scrollinglayoutrenderer.h</text>
</a>
</g>
<!-- Node1&#45;&gt;Node2 -->
<g id="edge2" class="edge"><title>Node1&#45;&gt;Node2</title>
<path fill="none" stroke="midnightblue" d="M826.842,-295.2C690.466,-284.214 395.63,-260.463 255.634,-249.186"/>
<polygon fill="midnightblue" stroke="midnightblue" points="255.668,-245.677 245.419,-248.363 255.106,-252.655 255.668,-245.677"/>
</g>
<!-- Node12 -->
<g id="node23" class="node"><title>Node12</title>
<polygon fill="white" stroke="#bfbfbf" points="833.343,-0.5 833.343,-21.5 888.343,-21.5 888.343,-0.5 833.343,-0.5"/>
<text text-anchor="middle" x="860.843" y="-8.5" font-family="Helvetica,sans-Serif" font-size="10.00">QDebug</text>
</g>
<!-- Node1&#45;&gt;Node12 -->
<g id="edge98" class="edge"><title>Node1&#45;&gt;Node12</title>
<path fill="none" stroke="midnightblue" d="M898.843,-290.444C898.843,-270.062 898.843,-223.868 898.843,-185 898.843,-185 898.843,-185 898.843,-127 898.843,-91.7411 882.792,-53.3154 871.554,-30.7323"/>
<polygon fill="midnightblue" stroke="midnightblue" points="874.645,-29.0901 866.948,-21.809 868.424,-32.3005 874.645,-29.0901"/>
</g>
<!-- Node15 -->
<g id="node33" class="node"><title>Node15</title>
<a xlink:href="iconlayout_8h.htm" target="_top" xlink:title="iconlayout.h">
<polygon fill="white" stroke="black" points="455.843,-232.5 455.843,-253.5 527.843,-253.5 527.843,-232.5 455.843,-232.5"/>
<text text-anchor="middle" x="491.843" y="-240.5" font-family="Helvetica,sans-Serif" font-size="10.00">iconlayout.h</text>
</a>
</g>
<!-- Node1&#45;&gt;Node15 -->
<g id="edge36" class="edge"><title>Node1&#45;&gt;Node15</title>
<path fill="none" stroke="midnightblue" d="M826.548,-290.698C743.223,-278.823 608.737,-259.658 538.283,-249.618"/>
<polygon fill="midnightblue" stroke="midnightblue" points="538.349,-246.092 527.955,-248.146 537.361,-253.022 538.349,-246.092"/>
</g>
<!-- Node19 -->
<g id="node45" class="node"><title>Node19</title>
<a xlink:href="dimensionsglobal_8h.htm" target="_top" xlink:title="dimensionsglobal.h">
<polygon fill="white" stroke="black" points="574.843,-174.5 574.843,-195.5 680.843,-195.5 680.843,-174.5 574.843,-174.5"/>
<text text-anchor="middle" x="627.843" y="-182.5" font-family="Helvetica,sans-Serif" font-size="10.00">dimensionsglobal.h</text>
</a>
</g>
<!-- Node1&#45;&gt;Node19 -->
<g id="edge76" class="edge"><title>Node1&#45;&gt;Node19</title>
<path fill="none" stroke="midnightblue" d="M873.834,-290.295C825.008,-269.395 716.957,-223.145 661.749,-199.513"/>
<polygon fill="midnightblue" stroke="midnightblue" points="662.971,-196.229 652.4,-195.512 660.216,-202.664 662.971,-196.229"/>
</g>
<!-- Node26 -->
<g id="node65" class="node"><title>Node26</title>
<a xlink:href="renderopts_8h.htm" target="_top" xlink:title="renderopts.h">
<polygon fill="white" stroke="black" points="926.343,-232.5 926.343,-253.5 1003.34,-253.5 1003.34,-232.5 926.343,-232.5"/>
<text text-anchor="middle" x="964.843" y="-240.5" font-family="Helvetica,sans-Serif" font-size="10.00">renderopts.h</text>
</a>
</g>
<!-- Node1&#45;&gt;Node26 -->
<g id="edge78" class="edge"><title>Node1&#45;&gt;Node26</title>
<path fill="none" stroke="midnightblue" d="M910.948,-290.362C920.531,-281.941 934.107,-270.011 945.235,-260.231"/>
<polygon fill="midnightblue" stroke="midnightblue" points="947.613,-262.801 952.814,-253.571 942.992,-257.543 947.613,-262.801"/>
</g>
<!-- Node27 -->
<g id="node67" class="node"><title>Node27</title>
<a xlink:href="operationalsettings_8h.htm" target="_top" xlink:title="operationalsettings.h">
<polygon fill="white" stroke="black" points="1020.34,-232.5 1020.34,-253.5 1135.34,-253.5 1135.34,-232.5 1020.34,-232.5"/>
<text text-anchor="middle" x="1077.84" y="-240.5" font-family="Helvetica,sans-Serif" font-size="10.00">operationalsettings.h</text>
</a>
</g>
<!-- Node1&#45;&gt;Node27 -->
<g id="edge80" class="edge"><title>Node1&#45;&gt;Node27</title>
<path fill="none" stroke="midnightblue" d="M931.258,-290.497C960.567,-281 1003.89,-266.962 1035.84,-256.609"/>
<polygon fill="midnightblue" stroke="midnightblue" points="1036.93,-259.935 1045.37,-253.523 1034.77,-253.276 1036.93,-259.935"/>
</g>
<!-- Node33 -->
<g id="node81" class="node"><title>Node33</title>
<polygon fill="white" stroke="#bfbfbf" points="1152.34,-232.5 1152.34,-253.5 1211.34,-253.5 1211.34,-232.5 1152.34,-232.5"/>
<text text-anchor="middle" x="1181.84" y="-240.5" font-family="Helvetica,sans-Serif" font-size="10.00">QPainter</text>
</g>
<!-- Node1&#45;&gt;Node33 -->
<g id="edge96" class="edge"><title>Node1&#45;&gt;Node33</title>
<path fill="none" stroke="midnightblue" d="M962.385,-290.468C1009.72,-282.243 1076.1,-269.911 1142.28,-254.244"/>
<polygon fill="midnightblue" stroke="midnightblue" points="1143.13,-257.639 1152.04,-251.908 1141.5,-250.832 1143.13,-257.639"/>
</g>
<!-- Node3 -->
<g id="node5" class="node"><title>Node3</title>
<a xlink:href="scrollableobject_8h.htm" target="_top" xlink:title="scrollableobject.h">
<polygon fill="white" stroke="black" points="130.343,-174.5 130.343,-195.5 227.343,-195.5 227.343,-174.5 130.343,-174.5"/>
<text text-anchor="middle" x="178.843" y="-182.5" font-family="Helvetica,sans-Serif" font-size="10.00">scrollableobject.h</text>
</a>
</g>
<!-- Node2&#45;&gt;Node3 -->
<g id="edge4" class="edge"><title>Node2&#45;&gt;Node3</title>
<path fill="none" stroke="midnightblue" d="M178.843,-232.362C178.843,-224.922 178.843,-214.743 178.843,-205.728"/>
<polygon fill="midnightblue" stroke="midnightblue" points="182.343,-205.571 178.843,-195.571 175.343,-205.571 182.343,-205.571"/>
</g>
<!-- Node8 -->
<g id="node15" class="node"><title>Node8</title>
<polygon fill="white" stroke="#bfbfbf" points="3.34286,-0.5 3.34286,-21.5 62.3429,-21.5 62.3429,-0.5 3.34286,-0.5"/>
<text text-anchor="middle" x="32.8429" y="-8.5" font-family="Helvetica,sans-Serif" font-size="10.00">QPointer</text>
</g>
<!-- Node2&#45;&gt;Node8 -->
<g id="edge34" class="edge"><title>Node2&#45;&gt;Node8</title>
<path fill="none" stroke="midnightblue" d="M115.829,-232.442C76.3724,-224.401 30.8134,-211.993 18.8429,-196 -18.0481,-146.714 7.95149,-67.8983 23.496,-31.1211"/>
<polygon fill="midnightblue" stroke="midnightblue" points="26.8937,-32.0901 27.7231,-21.5277 20.488,-29.2675 26.8937,-32.0901"/>
</g>
<!-- Node4 -->
<g id="node7" class="node"><title>Node4</title>
<a xlink:href="thingpaintable_8h.htm" target="_top" xlink:title="thingpaintable.h">
<polygon fill="white" stroke="black" points="124.343,-116.5 124.343,-137.5 215.343,-137.5 215.343,-116.5 124.343,-116.5"/>
<text text-anchor="middle" x="169.843" y="-124.5" font-family="Helvetica,sans-Serif" font-size="10.00">thingpaintable.h</text>
</a>
</g>
<!-- Node3&#45;&gt;Node4 -->
<g id="edge6" class="edge"><title>Node3&#45;&gt;Node4</title>
<path fill="none" stroke="midnightblue" d="M177.192,-174.362C176.038,-166.922 174.458,-156.743 173.059,-147.728"/>
<polygon fill="midnightblue" stroke="midnightblue" points="176.475,-146.916 171.483,-137.571 169.558,-147.989 176.475,-146.916"/>
</g>
<!-- Node11 -->
<g id="node21" class="node"><title>Node11</title>
<polygon fill="white" stroke="#bfbfbf" points="219.343,-0.5 219.343,-21.5 272.343,-21.5 272.343,-0.5 219.343,-0.5"/>
<text text-anchor="middle" x="245.843" y="-8.5" font-family="Helvetica,sans-Serif" font-size="10.00">QRectF</text>
</g>
<!-- Node3&#45;&gt;Node11 -->
<g id="edge30" class="edge"><title>Node3&#45;&gt;Node11</title>
<path fill="none" stroke="midnightblue" d="M192.936,-174.222C203.189,-165.577 216.511,-152.521 223.843,-138 241.239,-103.548 245.181,-57.8711 245.901,-31.7331"/>
<polygon fill="midnightblue" stroke="midnightblue" points="249.403,-31.56 246.042,-21.5126 242.404,-31.4633 249.403,-31.56"/>
</g>
<!-- Node14 -->
<g id="node30" class="node"><title>Node14</title>
<polygon fill="white" stroke="#bfbfbf" points="60.3429,-116.5 60.3429,-137.5 107.343,-137.5 107.343,-116.5 60.3429,-116.5"/>
<text text-anchor="middle" x="83.8429" y="-124.5" font-family="Helvetica,sans-Serif" font-size="10.00">QRect</text>
</g>
<!-- Node3&#45;&gt;Node14 -->
<g id="edge32" class="edge"><title>Node3&#45;&gt;Node14</title>
<path fill="none" stroke="midnightblue" d="M161.418,-174.362C146.956,-165.532 126.173,-152.844 109.759,-142.822"/>
<polygon fill="midnightblue" stroke="midnightblue" points="111.516,-139.794 101.157,-137.571 107.868,-145.769 111.516,-139.794"/>
</g>
<!-- Node5 -->
<g id="node9" class="node"><title>Node5</title>
<a xlink:href="thing_8h.htm" target="_top" xlink:title="thing.h">
<polygon fill="white" stroke="black" points="352.843,-58.5 352.843,-79.5 400.843,-79.5 400.843,-58.5 352.843,-58.5"/>
<text text-anchor="middle" x="376.843" y="-66.5" font-family="Helvetica,sans-Serif" font-size="10.00">thing.h</text>
</a>
</g>
<!-- Node4&#45;&gt;Node5 -->
<g id="edge8" class="edge"><title>Node4&#45;&gt;Node5</title>
<path fill="none" stroke="midnightblue" d="M207.329,-116.497C245.88,-105.695 305.403,-89.0171 342.688,-78.5698"/>
<polygon fill="midnightblue" stroke="midnightblue" points="343.895,-81.8668 352.579,-75.7985 342.006,-75.1264 343.895,-81.8668"/>
</g>
<!-- Node9 -->
<g id="node17" class="node"><title>Node9</title>
<polygon fill="white" stroke="#bfbfbf" points="146.343,-0.5 146.343,-21.5 199.343,-21.5 199.343,-0.5 146.343,-0.5"/>
<text text-anchor="middle" x="172.843" y="-8.5" font-family="Helvetica,sans-Serif" font-size="10.00">QString</text>
</g>
<!-- Node4&#45;&gt;Node9 -->
<g id="edge26" class="edge"><title>Node4&#45;&gt;Node9</title>
<path fill="none" stroke="midnightblue" d="M170.12,-116.295C170.615,-97.1314 171.662,-56.654 172.304,-31.8434"/>
<polygon fill="midnightblue" stroke="midnightblue" points="175.807,-31.7664 172.567,-21.6792 168.809,-31.5853 175.807,-31.7664"/>
</g>
<!-- Node4&#45;&gt;Node11 -->
<g id="edge28" class="edge"><title>Node4&#45;&gt;Node11</title>
<path fill="none" stroke="midnightblue" d="M176.857,-116.295C189.695,-96.6998 217.133,-54.8198 233.269,-30.1913"/>
<polygon fill="midnightblue" stroke="midnightblue" points="236.293,-31.9619 238.846,-21.6792 230.438,-28.1257 236.293,-31.9619"/>
</g>
<!-- Node6 -->
<g id="node11" class="node"><title>Node6</title>
<polygon fill="white" stroke="#bfbfbf" points="289.843,-0.5 289.843,-21.5 387.843,-21.5 387.843,-0.5 289.843,-0.5"/>
<text text-anchor="middle" x="338.843" y="-8.5" font-family="Helvetica,sans-Serif" font-size="10.00">QGraphicsObject</text>
</g>
<!-- Node5&#45;&gt;Node6 -->
<g id="edge10" class="edge"><title>Node5&#45;&gt;Node6</title>
<path fill="none" stroke="midnightblue" d="M369.873,-58.3619C364.677,-50.4313 357.442,-39.3885 351.265,-29.9606"/>
<polygon fill="midnightblue" stroke="midnightblue" points="354.176,-28.0172 345.768,-21.5707 348.321,-31.8534 354.176,-28.0172"/>
</g>
<!-- Node7 -->
<g id="node13" class="node"><title>Node7</title>
<polygon fill="white" stroke="#bfbfbf" points="543.843,-0.5 543.843,-21.5 589.843,-21.5 589.843,-0.5 543.843,-0.5"/>
<text text-anchor="middle" x="566.843" y="-8.5" font-family="Helvetica,sans-Serif" font-size="10.00">QUuid</text>
</g>
<!-- Node5&#45;&gt;Node7 -->
<g id="edge12" class="edge"><title>Node5&#45;&gt;Node7</title>
<path fill="none" stroke="midnightblue" d="M400.906,-61.6543C434.496,-51.4007 495.572,-32.7563 533.521,-21.172"/>
<polygon fill="midnightblue" stroke="midnightblue" points="535.027,-24.3719 543.569,-18.1047 532.983,-17.6769 535.027,-24.3719"/>
</g>
<!-- Node5&#45;&gt;Node8 -->
<g id="edge14" class="edge"><title>Node5&#45;&gt;Node8</title>
<path fill="none" stroke="midnightblue" d="M352.653,-64.9216C294.129,-55.0541 144.431,-29.8143 72.5434,-17.6937"/>
<polygon fill="midnightblue" stroke="midnightblue" points="72.9645,-14.2154 62.5217,-16.004 71.8006,-21.1179 72.9645,-14.2154"/>
</g>
<!-- Node5&#45;&gt;Node9 -->
<g id="edge16" class="edge"><title>Node5&#45;&gt;Node9</title>
<path fill="none" stroke="midnightblue" d="M352.638,-62.1947C320.303,-53.0929 261.235,-36.4272 210.843,-22 210.265,-21.8346 209.682,-21.6676 209.096,-21.4994"/>
<polygon fill="midnightblue" stroke="midnightblue" points="209.991,-18.115 199.413,-18.7128 208.055,-24.842 209.991,-18.115"/>
</g>
<!-- Node10 -->
<g id="node19" class="node"><title>Node10</title>
<polygon fill="white" stroke="#bfbfbf" points="405.343,-0.5 405.343,-21.5 446.343,-21.5 446.343,-0.5 405.343,-0.5"/>
<text text-anchor="middle" x="425.843" y="-8.5" font-family="Helvetica,sans-Serif" font-size="10.00">QList</text>
</g>
<!-- Node5&#45;&gt;Node10 -->
<g id="edge18" class="edge"><title>Node5&#45;&gt;Node10</title>
<path fill="none" stroke="midnightblue" d="M385.83,-58.3619C392.668,-50.2678 402.245,-38.9318 410.315,-29.3796"/>
<polygon fill="midnightblue" stroke="midnightblue" points="413.133,-31.4683 416.912,-21.5707 407.785,-26.9508 413.133,-31.4683"/>
</g>
<!-- Node5&#45;&gt;Node11 -->
<g id="edge20" class="edge"><title>Node5&#45;&gt;Node11</title>
<path fill="none" stroke="midnightblue" d="M353.12,-58.4966C332.475,-49.3562 302.327,-36.0082 279.244,-25.7883"/>
<polygon fill="midnightblue" stroke="midnightblue" points="280.393,-22.4694 269.832,-21.6212 277.559,-28.8701 280.393,-22.4694"/>
</g>
<!-- Node5&#45;&gt;Node12 -->
<g id="edge22" class="edge"><title>Node5&#45;&gt;Node12</title>
<path fill="none" stroke="midnightblue" d="M400.844,-66.1238C479.166,-56.7382 727.714,-26.9535 823.083,-15.5249"/>
<polygon fill="midnightblue" stroke="midnightblue" points="823.633,-18.9841 833.146,-14.3191 822.8,-12.0338 823.633,-18.9841"/>
</g>
<!-- Node13 -->
<g id="node25" class="node"><title>Node13</title>
<polygon fill="white" stroke="#bfbfbf" points="463.843,-0.5 463.843,-21.5 513.843,-21.5 513.843,-0.5 463.843,-0.5"/>
<text text-anchor="middle" x="488.843" y="-8.5" font-family="Helvetica,sans-Serif" font-size="10.00">QHash</text>
</g>
<!-- Node5&#45;&gt;Node13 -->
<g id="edge24" class="edge"><title>Node5&#45;&gt;Node13</title>
<path fill="none" stroke="midnightblue" d="M397.125,-58.4966C414.461,-49.5194 439.633,-36.4835 459.223,-26.3387"/>
<polygon fill="midnightblue" stroke="midnightblue" points="461.062,-29.3278 468.333,-21.6212 457.843,-23.1118 461.062,-29.3278"/>
</g>
<!-- Node15&#45;&gt;Node3 -->
<g id="edge70" class="edge"><title>Node15&#45;&gt;Node3</title>
<path fill="none" stroke="midnightblue" d="M455.632,-236.29C402.17,-226.383 301.548,-207.738 237.478,-195.865"/>
<polygon fill="midnightblue" stroke="midnightblue" points="237.993,-192.401 227.522,-194.02 236.717,-199.284 237.993,-192.401"/>
</g>
<!-- Node15&#45;&gt;Node8 -->
<g id="edge42" class="edge"><title>Node15&#45;&gt;Node8</title>
<path fill="none" stroke="midnightblue" d="M455.61,-240.972C374.627,-236.027 181.399,-221.824 121.843,-196 84.7746,-179.927 71.6966,-173.188 51.8429,-138 32.8631,-104.361 30.8707,-58.0865 31.5658,-31.6859"/>
<polygon fill="midnightblue" stroke="midnightblue" points="35.0631,-31.8211 31.9865,-21.6828 28.0693,-31.5269 35.0631,-31.8211"/>
</g>
<!-- Node15&#45;&gt;Node10 -->
<g id="edge40" class="edge"><title>Node15&#45;&gt;Node10</title>
<path fill="none" stroke="midnightblue" d="M493.823,-232.474C495.998,-218.732 498.489,-194.067 492.843,-174 487.764,-155.95 478.907,-154.929 470.843,-138 453.591,-101.782 439.258,-57.0935 431.676,-31.5381"/>
<polygon fill="midnightblue" stroke="midnightblue" points="435.007,-30.4601 428.851,-21.8376 428.287,-32.4174 435.007,-30.4601"/>
</g>
<!-- Node15&#45;&gt;Node11 -->
<g id="edge44" class="edge"><title>Node15&#45;&gt;Node11</title>
<path fill="none" stroke="midnightblue" d="M455.701,-239.088C404.317,-232.795 313.814,-218.768 290.843,-196 289.356,-194.526 262.009,-79.3906 250.688,-31.5203"/>
<polygon fill="midnightblue" stroke="midnightblue" points="254.06,-30.5707 248.354,-21.6437 247.247,-32.1807 254.06,-30.5707"/>
</g>
<!-- Node15&#45;&gt;Node12 -->
<g id="edge48" class="edge"><title>Node15&#45;&gt;Node12</title>
<path fill="none" stroke="midnightblue" d="M528.137,-237.372C609.388,-223.986 801.933,-187.618 841.843,-138 866.405,-107.464 866.194,-58.9844 863.65,-31.6004"/>
<polygon fill="midnightblue" stroke="midnightblue" points="867.12,-31.1316 862.525,-21.5851 860.164,-31.9135 867.12,-31.1316"/>
</g>
<!-- Node16 -->
<g id="node35" class="node"><title>Node16</title>
<polygon fill="white" stroke="#bfbfbf" points="308.343,-116.5 308.343,-137.5 363.343,-137.5 363.343,-116.5 308.343,-116.5"/>
<text text-anchor="middle" x="335.843" y="-124.5" font-family="Helvetica,sans-Serif" font-size="10.00">QObject</text>
</g>
<!-- Node15&#45;&gt;Node16 -->
<g id="edge38" class="edge"><title>Node15&#45;&gt;Node16</title>
<path fill="none" stroke="midnightblue" d="M491.855,-232.426C491.296,-217.483 488.076,-190.205 472.843,-174 465.768,-166.474 411.333,-149.246 373.25,-137.871"/>
<polygon fill="midnightblue" stroke="midnightblue" points="374.06,-134.461 363.478,-134.973 372.07,-141.172 374.06,-134.461"/>
</g>
<!-- Node17 -->
<g id="node40" class="node"><title>Node17</title>
<polygon fill="white" stroke="#bfbfbf" points="926.343,-174.5 926.343,-195.5 977.343,-195.5 977.343,-174.5 926.343,-174.5"/>
<text text-anchor="middle" x="951.843" y="-182.5" font-family="Helvetica,sans-Serif" font-size="10.00">QSizeF</text>
</g>
<!-- Node15&#45;&gt;Node17 -->
<g id="edge46" class="edge"><title>Node15&#45;&gt;Node17</title>
<path fill="none" stroke="midnightblue" d="M528.045,-238.799C596.048,-230.855 747.504,-212.907 874.843,-196 888.363,-194.205 903.2,-192.114 916.211,-190.24"/>
<polygon fill="midnightblue" stroke="midnightblue" points="916.799,-193.692 926.194,-188.794 915.795,-186.764 916.799,-193.692"/>
</g>
<!-- Node18 -->
<g id="node43" class="node"><title>Node18</title>
<polygon fill="white" stroke="#bfbfbf" points="299.843,-174.5 299.843,-195.5 373.843,-195.5 373.843,-174.5 299.843,-174.5"/>
<text text-anchor="middle" x="336.843" y="-182.5" font-family="Helvetica,sans-Serif" font-size="10.00">QTransform</text>
</g>
<!-- Node15&#45;&gt;Node18 -->
<g id="edge50" class="edge"><title>Node15&#45;&gt;Node18</title>
<path fill="none" stroke="midnightblue" d="M463.774,-232.497C438.833,-223.164 402.169,-209.445 374.651,-199.147"/>
<polygon fill="midnightblue" stroke="midnightblue" points="375.557,-195.75 364.965,-195.523 373.104,-202.306 375.557,-195.75"/>
</g>
<!-- Node15&#45;&gt;Node19 -->
<g id="edge52" class="edge"><title>Node15&#45;&gt;Node19</title>
<path fill="none" stroke="midnightblue" d="M516.471,-232.497C538,-223.315 569.483,-209.889 593.487,-199.652"/>
<polygon fill="midnightblue" stroke="midnightblue" points="595.113,-202.764 602.938,-195.621 592.366,-196.325 595.113,-202.764"/>
</g>
<!-- Node25 -->
<g id="node61" class="node"><title>Node25</title>
<a xlink:href="layoutitem_8h.htm" target="_top" xlink:title="layoutitem.h">
<polygon fill="white" stroke="black" points="391.843,-174.5 391.843,-195.5 463.843,-195.5 463.843,-174.5 391.843,-174.5"/>
<text text-anchor="middle" x="427.843" y="-182.5" font-family="Helvetica,sans-Serif" font-size="10.00">layoutitem.h</text>
</a>
</g>
<!-- Node15&#45;&gt;Node25 -->
<g id="edge72" class="edge"><title>Node15&#45;&gt;Node25</title>
<path fill="none" stroke="midnightblue" d="M480.104,-232.362C470.902,-224.023 457.903,-212.242 447.171,-202.516"/>
<polygon fill="midnightblue" stroke="midnightblue" points="449.267,-199.692 439.507,-195.571 444.567,-204.879 449.267,-199.692"/>
</g>
<!-- Node19&#45;&gt;Node7 -->
<g id="edge64" class="edge"><title>Node19&#45;&gt;Node7</title>
<path fill="none" stroke="midnightblue" d="M620.242,-174.26C614.004,-165.023 605.335,-151.146 599.843,-138 584.772,-101.929 575.078,-57.1498 570.324,-31.546"/>
<polygon fill="midnightblue" stroke="midnightblue" points="573.739,-30.759 568.537,-21.5293 566.848,-31.9887 573.739,-30.759"/>
</g>
<!-- Node19&#45;&gt;Node11 -->
<g id="edge58" class="edge"><title>Node19&#45;&gt;Node11</title>
<path fill="none" stroke="midnightblue" d="M587,-174.433C555.011,-165.76 509.592,-152.569 470.843,-138 412.761,-116.162 397.664,-110.883 343.843,-80 316.297,-64.1943 286.763,-42.7094 267.402,-27.9351"/>
<polygon fill="midnightblue" stroke="midnightblue" points="269.323,-24.9968 259.266,-21.6636 265.05,-30.5408 269.323,-24.9968"/>
</g>
<!-- Node19&#45;&gt;Node13 -->
<g id="edge66" class="edge"><title>Node19&#45;&gt;Node13</title>
<path fill="none" stroke="midnightblue" d="M575.997,-174.498C540.05,-166.043 496.753,-153.104 485.843,-138 463.155,-106.592 473.019,-58.4822 481.442,-31.3852"/>
<polygon fill="midnightblue" stroke="midnightblue" points="484.797,-32.387 484.641,-21.7933 478.157,-30.1725 484.797,-32.387"/>
</g>
<!-- Node20 -->
<g id="node47" class="node"><title>Node20</title>
<polygon fill="white" stroke="#bfbfbf" points="494.343,-116.5 494.343,-137.5 553.343,-137.5 553.343,-116.5 494.343,-116.5"/>
<text text-anchor="middle" x="523.843" y="-124.5" font-family="Helvetica,sans-Serif" font-size="10.00">qglobal.h</text>
</g>
<!-- Node19&#45;&gt;Node20 -->
<g id="edge54" class="edge"><title>Node19&#45;&gt;Node20</title>
<path fill="none" stroke="midnightblue" d="M608.768,-174.362C592.788,-165.45 569.762,-152.609 551.716,-142.545"/>
<polygon fill="midnightblue" stroke="midnightblue" points="553.236,-139.385 542.797,-137.571 549.826,-145.498 553.236,-139.385"/>
</g>
<!-- Node21 -->
<g id="node49" class="node"><title>Node21</title>
<polygon fill="white" stroke="#bfbfbf" points="608.843,-116.5 608.843,-137.5 662.843,-137.5 662.843,-116.5 608.843,-116.5"/>
<text text-anchor="middle" x="635.843" y="-124.5" font-family="Helvetica,sans-Serif" font-size="10.00">qmath.h</text>
</g>
<!-- Node19&#45;&gt;Node21 -->
<g id="edge56" class="edge"><title>Node19&#45;&gt;Node21</title>
<path fill="none" stroke="midnightblue" d="M629.31,-174.362C630.336,-166.922 631.74,-156.743 632.984,-147.728"/>
<polygon fill="midnightblue" stroke="midnightblue" points="636.486,-147.955 634.385,-137.571 629.551,-146.999 636.486,-147.955"/>
</g>
<!-- Node22 -->
<g id="node52" class="node"><title>Node22</title>
<polygon fill="white" stroke="#bfbfbf" points="953.343,-116.5 953.343,-137.5 1002.34,-137.5 1002.34,-116.5 953.343,-116.5"/>
<text text-anchor="middle" x="977.843" y="-124.5" font-family="Helvetica,sans-Serif" font-size="10.00">QPoint</text>
</g>
<!-- Node19&#45;&gt;Node22 -->
<g id="edge60" class="edge"><title>Node19&#45;&gt;Node22</title>
<path fill="none" stroke="midnightblue" d="M681,-176.191C753.672,-164.148 881.994,-142.884 943.323,-132.72"/>
<polygon fill="midnightblue" stroke="midnightblue" points="943.977,-136.16 953.271,-131.072 942.833,-129.254 943.977,-136.16"/>
</g>
<!-- Node23 -->
<g id="node54" class="node"><title>Node23</title>
<polygon fill="white" stroke="#bfbfbf" points="680.343,-116.5 680.343,-137.5 735.343,-137.5 735.343,-116.5 680.343,-116.5"/>
<text text-anchor="middle" x="707.843" y="-124.5" font-family="Helvetica,sans-Serif" font-size="10.00">QPointF</text>
</g>
<!-- Node19&#45;&gt;Node23 -->
<g id="edge62" class="edge"><title>Node19&#45;&gt;Node23</title>
<path fill="none" stroke="midnightblue" d="M642.516,-174.362C654.357,-165.777 671.228,-153.546 684.859,-143.664"/>
<polygon fill="midnightblue" stroke="midnightblue" points="687.221,-146.274 693.263,-137.571 683.112,-140.607 687.221,-146.274"/>
</g>
<!-- Node24 -->
<g id="node58" class="node"><title>Node24</title>
<polygon fill="white" stroke="#bfbfbf" points="752.843,-116.5 752.843,-137.5 832.843,-137.5 832.843,-116.5 752.843,-116.5"/>
<text text-anchor="middle" x="792.843" y="-124.5" font-family="Helvetica,sans-Serif" font-size="10.00">QVariantMap</text>
</g>
<!-- Node19&#45;&gt;Node24 -->
<g id="edge68" class="edge"><title>Node19&#45;&gt;Node24</title>
<path fill="none" stroke="midnightblue" d="M657.723,-174.497C684.506,-165.082 723.988,-151.204 753.364,-140.877"/>
<polygon fill="midnightblue" stroke="midnightblue" points="754.633,-144.141 762.907,-137.523 752.312,-137.537 754.633,-144.141"/>
</g>
<!-- Node25&#45;&gt;Node16 -->
<g id="edge74" class="edge"><title>Node25&#45;&gt;Node16</title>
<path fill="none" stroke="midnightblue" d="M410.969,-174.362C397.092,-165.614 377.209,-153.079 361.383,-143.101"/>
<polygon fill="midnightblue" stroke="midnightblue" points="362.936,-139.943 352.61,-137.571 359.203,-145.864 362.936,-139.943"/>
</g>
<!-- Node27&#45;&gt;Node17 -->
<g id="edge90" class="edge"><title>Node27&#45;&gt;Node17</title>
<path fill="none" stroke="midnightblue" d="M1055.03,-232.497C1035.26,-223.397 1006.43,-210.127 984.267,-199.925"/>
<polygon fill="midnightblue" stroke="midnightblue" points="985.464,-196.623 974.917,-195.621 982.537,-202.982 985.464,-196.623"/>
</g>
<!-- Node27&#45;&gt;Node22 -->
<g id="edge94" class="edge"><title>Node27&#45;&gt;Node22</title>
<path fill="none" stroke="midnightblue" d="M1063.61,-232.338C1052.14,-223.364 1035.99,-209.813 1023.84,-196 1010.4,-180.715 997.777,-161.269 989.167,-146.919"/>
<polygon fill="midnightblue" stroke="midnightblue" points="991.964,-144.769 983.886,-137.913 985.925,-148.309 991.964,-144.769"/>
</g>
<!-- Node28 -->
<g id="node69" class="node"><title>Node28</title>
<polygon fill="white" stroke="#bfbfbf" points="1032.34,-174.5 1032.34,-195.5 1099.34,-195.5 1099.34,-174.5 1032.34,-174.5"/>
<text text-anchor="middle" x="1065.84" y="-182.5" font-family="Helvetica,sans-Serif" font-size="10.00">Common.h</text>
</g>
<!-- Node27&#45;&gt;Node28 -->
<g id="edge82" class="edge"><title>Node27&#45;&gt;Node28</title>
<path fill="none" stroke="midnightblue" d="M1075.64,-232.362C1074.09,-224.84 1071.95,-214.519 1070.07,-205.431"/>
<polygon fill="midnightblue" stroke="midnightblue" points="1073.48,-204.654 1068.03,-195.571 1066.63,-206.072 1073.48,-204.654"/>
</g>
<!-- Node29 -->
<g id="node71" class="node"><title>Node29</title>
<polygon fill="white" stroke="#bfbfbf" points="1116.34,-174.5 1116.34,-195.5 1157.34,-195.5 1157.34,-174.5 1116.34,-174.5"/>
<text text-anchor="middle" x="1136.84" y="-182.5" font-family="Helvetica,sans-Serif" font-size="10.00">glib.h</text>
</g>
<!-- Node27&#45;&gt;Node29 -->
<g id="edge84" class="edge"><title>Node27&#45;&gt;Node29</title>
<path fill="none" stroke="midnightblue" d="M1088.66,-232.362C1097.06,-224.104 1108.9,-212.472 1118.73,-202.803"/>
<polygon fill="midnightblue" stroke="midnightblue" points="1121.41,-205.077 1126.09,-195.571 1116.51,-200.085 1121.41,-205.077"/>
</g>
<!-- Node30 -->
<g id="node73" class="node"><title>Node30</title>
<polygon fill="white" stroke="#bfbfbf" points="1174.84,-174.5 1174.84,-195.5 1232.84,-195.5 1232.84,-174.5 1174.84,-174.5"/>
<text text-anchor="middle" x="1203.84" y="-182.5" font-family="Helvetica,sans-Serif" font-size="10.00">QtGlobal</text>
</g>
<!-- Node27&#45;&gt;Node30 -->
<g id="edge86" class="edge"><title>Node27&#45;&gt;Node30</title>
<path fill="none" stroke="midnightblue" d="M1100.66,-232.497C1120.43,-223.397 1149.26,-210.127 1171.42,-199.925"/>
<polygon fill="midnightblue" stroke="midnightblue" points="1173.15,-202.982 1180.77,-195.621 1170.22,-196.623 1173.15,-202.982"/>
</g>
<!-- Node31 -->
<g id="node75" class="node"><title>Node31</title>
<polygon fill="white" stroke="#bfbfbf" points="1250.34,-174.5 1250.34,-195.5 1295.34,-195.5 1295.34,-174.5 1250.34,-174.5"/>
<text text-anchor="middle" x="1272.84" y="-182.5" font-family="Helvetica,sans-Serif" font-size="10.00">QSize</text>
</g>
<!-- Node27&#45;&gt;Node31 -->
<g id="edge88" class="edge"><title>Node27&#45;&gt;Node31</title>
<path fill="none" stroke="midnightblue" d="M1117.15,-232.471C1148.35,-223.948 1193.28,-211.315 1240.44,-196.34"/>
<polygon fill="midnightblue" stroke="midnightblue" points="1241.75,-199.594 1250.21,-193.213 1239.62,-192.927 1241.75,-199.594"/>
</g>
<!-- Node32 -->
<g id="node78" class="node"><title>Node32</title>
<polygon fill="white" stroke="#bfbfbf" points="1312.84,-174.5 1312.84,-195.5 1362.84,-195.5 1362.84,-174.5 1312.84,-174.5"/>
<text text-anchor="middle" x="1337.84" y="-182.5" font-family="Helvetica,sans-Serif" font-size="10.00">QColor</text>
</g>
<!-- Node27&#45;&gt;Node32 -->
<g id="edge92" class="edge"><title>Node27&#45;&gt;Node32</title>
<path fill="none" stroke="midnightblue" d="M1135.37,-232.812C1178.95,-224.689 1240.46,-212.366 1302.69,-196.116"/>
<polygon fill="midnightblue" stroke="midnightblue" points="1303.91,-199.414 1312.68,-193.475 1302.12,-192.647 1303.91,-199.414"/>
</g>
</g>
</svg>
