<?xml version="1.0" encoding="UTF-8" standalone="no"?>
<!DOCTYPE svg PUBLIC "-//W3C//DTD SVG 1.1//EN"
 "http://www.w3.org/Graphics/SVG/1.1/DTD/svg11.dtd">
<!-- Generated by graphviz version 2.26.3 (20100126.1600)
 -->
<!-- Title: scrollingsurface.cpp Pages: 1 -->
<svg width="972pt" height="320pt"
 viewBox="0.00 0.00 972.00 320.00" xmlns="http://www.w3.org/2000/svg" xmlns:xlink="http://www.w3.org/1999/xlink">
<g id="graph1" class="graph" transform="scale(1 1) rotate(0) translate(4 316)">
<title>scrollingsurface.cpp</title>
<polygon fill="white" stroke="white" points="-4,5 -4,-316 969,-316 969,5 -4,5"/>
<!-- Node1 -->
<g id="node1" class="node"><title>Node1</title>
<polygon fill="#bfbfbf" stroke="black" points="599,-290.5 599,-311.5 709,-311.5 709,-290.5 599,-290.5"/>
<text text-anchor="middle" x="654" y="-298.5" font-family="Helvetica,sans-Serif" font-size="10.00">scrollingsurface.cpp</text>
</g>
<!-- Node2 -->
<g id="node3" class="node"><title>Node2</title>
<a xlink:href="scrollingsurface_8h.htm" target="_top" xlink:title="scrollingsurface.h">
<polygon fill="white" stroke="black" points="605,-232.5 605,-253.5 703,-253.5 703,-232.5 605,-232.5"/>
<text text-anchor="middle" x="654" y="-240.5" font-family="Helvetica,sans-Serif" font-size="10.00">scrollingsurface.h</text>
</a>
</g>
<!-- Node1&#45;&gt;Node2 -->
<g id="edge2" class="edge"><title>Node1&#45;&gt;Node2</title>
<path fill="none" stroke="midnightblue" d="M654,-290.362C654,-282.922 654,-272.743 654,-263.728"/>
<polygon fill="midnightblue" stroke="midnightblue" points="657.5,-263.571 654,-253.571 650.5,-263.571 657.5,-263.571"/>
</g>
<!-- Node12 -->
<g id="node23" class="node"><title>Node12</title>
<polygon fill="white" stroke="#bfbfbf" points="909.5,-0.5 909.5,-21.5 964.5,-21.5 964.5,-0.5 909.5,-0.5"/>
<text text-anchor="middle" x="937" y="-8.5" font-family="Helvetica,sans-Serif" font-size="10.00">QDebug</text>
</g>
<!-- Node1&#45;&gt;Node12 -->
<g id="edge70" class="edge"><title>Node1&#45;&gt;Node12</title>
<path fill="none" stroke="midnightblue" d="M709.147,-294.763C771.962,-284.237 866,-256.533 866,-185 866,-185 866,-185 866,-127 866,-87.2548 896.697,-49.6247 917.722,-28.512"/>
<polygon fill="midnightblue" stroke="midnightblue" points="920.206,-30.9783 924.956,-21.5076 915.337,-25.9494 920.206,-30.9783"/>
</g>
<!-- Node15 -->
<g id="node35" class="node"><title>Node15</title>
<a xlink:href="pixmapobject_8h.htm" target="_top" xlink:title="pixmapobject.h">
<polygon fill="white" stroke="black" points="416,-232.5 416,-253.5 502,-253.5 502,-232.5 416,-232.5"/>
<text text-anchor="middle" x="459" y="-240.5" font-family="Helvetica,sans-Serif" font-size="10.00">pixmapobject.h</text>
</a>
</g>
<!-- Node1&#45;&gt;Node15 -->
<g id="edge40" class="edge"><title>Node1&#45;&gt;Node15</title>
<path fill="none" stroke="midnightblue" d="M618.687,-290.497C586.621,-280.959 539.155,-266.841 504.304,-256.475"/>
<polygon fill="midnightblue" stroke="midnightblue" points="504.962,-253.019 494.379,-253.523 502.966,-259.729 504.962,-253.019"/>
</g>
<!-- Node19 -->
<g id="node44" class="node"><title>Node19</title>
<a xlink:href="dimensionsglobal_8h.htm" target="_top" xlink:title="dimensionsglobal.h">
<polygon fill="white" stroke="black" points="209,-58.5 209,-79.5 315,-79.5 315,-58.5 209,-58.5"/>
<text text-anchor="middle" x="262" y="-66.5" font-family="Helvetica,sans-Serif" font-size="10.00">dimensionsglobal.h</text>
</a>
</g>
<!-- Node1&#45;&gt;Node19 -->
<g id="edge50" class="edge"><title>Node1&#45;&gt;Node19</title>
<path fill="none" stroke="midnightblue" d="M598.839,-293.73C536.791,-284.99 440.328,-269.548 407,-254 334.537,-220.195 288.054,-129.758 270.232,-89.1862"/>
<polygon fill="midnightblue" stroke="midnightblue" points="273.371,-87.623 266.231,-79.7948 266.931,-90.3665 273.371,-87.623"/>
</g>
<!-- Node25 -->
<g id="node59" class="node"><title>Node25</title>
<polygon fill="white" stroke="#bfbfbf" points="893.5,-232.5 893.5,-253.5 952.5,-253.5 952.5,-232.5 893.5,-232.5"/>
<text text-anchor="middle" x="923" y="-240.5" font-family="Helvetica,sans-Serif" font-size="10.00">QPainter</text>
</g>
<!-- Node1&#45;&gt;Node25 -->
<g id="edge68" class="edge"><title>Node1&#45;&gt;Node25</title>
<path fill="none" stroke="midnightblue" d="M708.034,-290.48C753.913,-281.376 821.439,-267.572 880,-254 881.088,-253.748 882.192,-253.489 883.304,-253.225"/>
<polygon fill="midnightblue" stroke="midnightblue" points="884.551,-256.523 893.435,-250.751 882.89,-249.723 884.551,-256.523"/>
</g>
<!-- Node3 -->
<g id="node5" class="node"><title>Node3</title>
<a xlink:href="scrollableobject_8h.htm" target="_top" xlink:title="scrollableobject.h">
<polygon fill="white" stroke="black" points="643.5,-174.5 643.5,-195.5 740.5,-195.5 740.5,-174.5 643.5,-174.5"/>
<text text-anchor="middle" x="692" y="-182.5" font-family="Helvetica,sans-Serif" font-size="10.00">scrollableobject.h</text>
</a>
</g>
<!-- Node2&#45;&gt;Node3 -->
<g id="edge4" class="edge"><title>Node2&#45;&gt;Node3</title>
<path fill="none" stroke="midnightblue" d="M660.97,-232.362C666.166,-224.431 673.401,-213.389 679.578,-203.961"/>
<polygon fill="midnightblue" stroke="midnightblue" points="682.522,-205.853 685.074,-195.571 676.666,-202.017 682.522,-205.853"/>
</g>
<!-- Node8 -->
<g id="node15" class="node"><title>Node8</title>
<polygon fill="white" stroke="#bfbfbf" points="833.5,-0.5 833.5,-21.5 892.5,-21.5 892.5,-0.5 833.5,-0.5"/>
<text text-anchor="middle" x="863" y="-8.5" font-family="Helvetica,sans-Serif" font-size="10.00">QPointer</text>
</g>
<!-- Node2&#45;&gt;Node8 -->
<g id="edge38" class="edge"><title>Node2&#45;&gt;Node8</title>
<path fill="none" stroke="midnightblue" d="M683.901,-232.384C703.726,-224.39 729.567,-212.059 749,-196 804.823,-149.87 841.026,-68.9062 855.646,-31.2822"/>
<polygon fill="midnightblue" stroke="midnightblue" points="858.936,-32.4762 859.196,-21.8846 852.388,-30.0027 858.936,-32.4762"/>
</g>
<!-- Node11 -->
<g id="node21" class="node"><title>Node11</title>
<polygon fill="white" stroke="#bfbfbf" points="451.5,-0.5 451.5,-21.5 504.5,-21.5 504.5,-0.5 451.5,-0.5"/>
<text text-anchor="middle" x="478" y="-8.5" font-family="Helvetica,sans-Serif" font-size="10.00">QRectF</text>
</g>
<!-- Node2&#45;&gt;Node11 -->
<g id="edge34" class="edge"><title>Node2&#45;&gt;Node11</title>
<path fill="none" stroke="midnightblue" d="M645.98,-232.429C618.436,-196.12 527.454,-76.1899 492.164,-29.671"/>
<polygon fill="midnightblue" stroke="midnightblue" points="494.899,-27.4851 486.067,-21.6335 489.322,-31.7158 494.899,-27.4851"/>
</g>
<!-- Node14 -->
<g id="node30" class="node"><title>Node14</title>
<polygon fill="white" stroke="#bfbfbf" points="591.5,-116.5 591.5,-137.5 638.5,-137.5 638.5,-116.5 591.5,-116.5"/>
<text text-anchor="middle" x="615" y="-124.5" font-family="Helvetica,sans-Serif" font-size="10.00">QRect</text>
</g>
<!-- Node2&#45;&gt;Node14 -->
<g id="edge36" class="edge"><title>Node2&#45;&gt;Node14</title>
<path fill="none" stroke="midnightblue" d="M649.307,-232.291C645.253,-222.841 639.375,-208.642 635,-196 629.465,-180.004 624.177,-161.575 620.431,-147.789"/>
<polygon fill="midnightblue" stroke="midnightblue" points="623.742,-146.622 617.781,-137.864 616.979,-148.428 623.742,-146.622"/>
</g>
<!-- Node4 -->
<g id="node7" class="node"><title>Node4</title>
<a xlink:href="thingpaintable_8h.htm" target="_top" xlink:title="thingpaintable.h">
<polygon fill="white" stroke="black" points="693.5,-116.5 693.5,-137.5 784.5,-137.5 784.5,-116.5 693.5,-116.5"/>
<text text-anchor="middle" x="739" y="-124.5" font-family="Helvetica,sans-Serif" font-size="10.00">thingpaintable.h</text>
</a>
</g>
<!-- Node3&#45;&gt;Node4 -->
<g id="edge6" class="edge"><title>Node3&#45;&gt;Node4</title>
<path fill="none" stroke="midnightblue" d="M700.621,-174.362C707.18,-166.268 716.366,-154.932 724.106,-145.38"/>
<polygon fill="midnightblue" stroke="midnightblue" points="726.858,-147.544 730.434,-137.571 721.419,-143.136 726.858,-147.544"/>
</g>
<!-- Node3&#45;&gt;Node11 -->
<g id="edge30" class="edge"><title>Node3&#45;&gt;Node11</title>
<path fill="none" stroke="midnightblue" d="M686.185,-174.031C678.359,-159.81 663.499,-134.629 647,-116 620.438,-86.0099 611.746,-79.5909 578,-58 557.956,-45.1758 533.858,-33.7446 514.341,-25.3673"/>
<polygon fill="midnightblue" stroke="midnightblue" points="515.458,-22.04 504.883,-21.3909 512.745,-28.493 515.458,-22.04"/>
</g>
<!-- Node3&#45;&gt;Node14 -->
<g id="edge32" class="edge"><title>Node3&#45;&gt;Node14</title>
<path fill="none" stroke="midnightblue" d="M677.877,-174.362C666.48,-165.777 650.242,-153.546 637.122,-143.664"/>
<polygon fill="midnightblue" stroke="midnightblue" points="639.127,-140.792 629.033,-137.571 634.915,-146.383 639.127,-140.792"/>
</g>
<!-- Node5 -->
<g id="node9" class="node"><title>Node5</title>
<a xlink:href="thing_8h.htm" target="_top" xlink:title="thing.h">
<polygon fill="white" stroke="black" points="714,-58.5 714,-79.5 762,-79.5 762,-58.5 714,-58.5"/>
<text text-anchor="middle" x="738" y="-66.5" font-family="Helvetica,sans-Serif" font-size="10.00">thing.h</text>
</a>
</g>
<!-- Node4&#45;&gt;Node5 -->
<g id="edge8" class="edge"><title>Node4&#45;&gt;Node5</title>
<path fill="none" stroke="midnightblue" d="M738.817,-116.362C738.688,-108.922 738.513,-98.7427 738.357,-89.7276"/>
<polygon fill="midnightblue" stroke="midnightblue" points="741.854,-89.5088 738.182,-79.5707 734.855,-89.6295 741.854,-89.5088"/>
</g>
<!-- Node9 -->
<g id="node17" class="node"><title>Node9</title>
<polygon fill="white" stroke="#bfbfbf" points="763.5,-0.5 763.5,-21.5 816.5,-21.5 816.5,-0.5 763.5,-0.5"/>
<text text-anchor="middle" x="790" y="-8.5" font-family="Helvetica,sans-Serif" font-size="10.00">QString</text>
</g>
<!-- Node4&#45;&gt;Node9 -->
<g id="edge26" class="edge"><title>Node4&#45;&gt;Node9</title>
<path fill="none" stroke="midnightblue" d="M747.718,-116.411C754.866,-107.265 764.784,-93.4392 771,-80 778.162,-64.5169 783.106,-45.7946 786.152,-31.7611"/>
<polygon fill="midnightblue" stroke="midnightblue" points="789.643,-32.1586 788.194,-21.6633 782.782,-30.7712 789.643,-32.1586"/>
</g>
<!-- Node4&#45;&gt;Node11 -->
<g id="edge28" class="edge"><title>Node4&#45;&gt;Node11</title>
<path fill="none" stroke="midnightblue" d="M730.233,-116.341C717.05,-101.037 690.601,-73.0307 662,-58 604.402,-27.7306 580.791,-39.0653 514.363,-22.1727"/>
<polygon fill="midnightblue" stroke="midnightblue" points="515.262,-18.7902 504.698,-19.5945 513.458,-25.5537 515.262,-18.7902"/>
</g>
<!-- Node6 -->
<g id="node11" class="node"><title>Node6</title>
<polygon fill="white" stroke="#bfbfbf" points="590,-0.5 590,-21.5 688,-21.5 688,-0.5 590,-0.5"/>
<text text-anchor="middle" x="639" y="-8.5" font-family="Helvetica,sans-Serif" font-size="10.00">QGraphicsObject</text>
</g>
<!-- Node5&#45;&gt;Node6 -->
<g id="edge10" class="edge"><title>Node5&#45;&gt;Node6</title>
<path fill="none" stroke="midnightblue" d="M719.842,-58.3619C704.77,-49.532 683.113,-36.844 666.007,-26.8224"/>
<polygon fill="midnightblue" stroke="midnightblue" points="667.441,-23.6058 657.043,-21.5707 663.902,-29.6456 667.441,-23.6058"/>
</g>
<!-- Node7 -->
<g id="node13" class="node"><title>Node7</title>
<polygon fill="white" stroke="#bfbfbf" points="384,-0.5 384,-21.5 430,-21.5 430,-0.5 384,-0.5"/>
<text text-anchor="middle" x="407" y="-8.5" font-family="Helvetica,sans-Serif" font-size="10.00">QUuid</text>
</g>
<!-- Node5&#45;&gt;Node7 -->
<g id="edge12" class="edge"><title>Node5&#45;&gt;Node7</title>
<path fill="none" stroke="midnightblue" d="M713.69,-66.2846C662.96,-60.3648 542.287,-44.9616 443,-22 441.949,-21.757 440.885,-21.4997 439.812,-21.2308"/>
<polygon fill="midnightblue" stroke="midnightblue" points="440.68,-17.8397 430.111,-18.5776 438.833,-24.5918 440.68,-17.8397"/>
</g>
<!-- Node5&#45;&gt;Node8 -->
<g id="edge14" class="edge"><title>Node5&#45;&gt;Node8</title>
<path fill="none" stroke="midnightblue" d="M760.637,-58.4966C780.248,-49.397 808.846,-36.1273 830.833,-25.9253"/>
<polygon fill="midnightblue" stroke="midnightblue" points="832.512,-29.0051 840.109,-21.6212 829.565,-22.6554 832.512,-29.0051"/>
</g>
<!-- Node5&#45;&gt;Node9 -->
<g id="edge16" class="edge"><title>Node5&#45;&gt;Node9</title>
<path fill="none" stroke="midnightblue" d="M747.538,-58.3619C754.868,-50.1861 765.163,-38.7025 773.781,-29.0907"/>
<polygon fill="midnightblue" stroke="midnightblue" points="776.453,-31.3528 780.523,-21.5707 771.241,-26.68 776.453,-31.3528"/>
</g>
<!-- Node10 -->
<g id="node19" class="node"><title>Node10</title>
<polygon fill="white" stroke="#bfbfbf" points="705.5,-0.5 705.5,-21.5 746.5,-21.5 746.5,-0.5 705.5,-0.5"/>
<text text-anchor="middle" x="726" y="-8.5" font-family="Helvetica,sans-Serif" font-size="10.00">QList</text>
</g>
<!-- Node5&#45;&gt;Node10 -->
<g id="edge18" class="edge"><title>Node5&#45;&gt;Node10</title>
<path fill="none" stroke="midnightblue" d="M735.799,-58.3619C734.243,-50.8401 732.107,-40.5187 730.227,-31.4308"/>
<polygon fill="midnightblue" stroke="midnightblue" points="733.641,-30.6541 728.187,-21.5707 726.786,-32.0724 733.641,-30.6541"/>
</g>
<!-- Node5&#45;&gt;Node11 -->
<g id="edge20" class="edge"><title>Node5&#45;&gt;Node11</title>
<path fill="none" stroke="midnightblue" d="M713.966,-61.6826C709.351,-60.3798 704.541,-59.0919 700,-58 620.762,-38.9465 596.824,-42.4208 514.454,-22.1744"/>
<polygon fill="midnightblue" stroke="midnightblue" points="515.214,-18.7567 504.663,-19.7252 513.515,-25.5475 515.214,-18.7567"/>
</g>
<!-- Node5&#45;&gt;Node12 -->
<g id="edge22" class="edge"><title>Node5&#45;&gt;Node12</title>
<path fill="none" stroke="midnightblue" d="M762.063,-62.1903C792.092,-53.6641 845.265,-38.4766 899.685,-22.3639"/>
<polygon fill="midnightblue" stroke="midnightblue" points="900.905,-25.6529 909.496,-19.4529 898.914,-18.942 900.905,-25.6529"/>
</g>
<!-- Node13 -->
<g id="node25" class="node"><title>Node13</title>
<polygon fill="white" stroke="#bfbfbf" points="522,-0.5 522,-21.5 572,-21.5 572,-0.5 522,-0.5"/>
<text text-anchor="middle" x="547" y="-8.5" font-family="Helvetica,sans-Serif" font-size="10.00">QHash</text>
</g>
<!-- Node5&#45;&gt;Node13 -->
<g id="edge24" class="edge"><title>Node5&#45;&gt;Node13</title>
<path fill="none" stroke="midnightblue" d="M713.743,-61.9186C684.664,-53.3902 634.222,-38.4741 581.999,-22.2706"/>
<polygon fill="midnightblue" stroke="midnightblue" points="582.82,-18.8606 572.231,-19.2313 580.74,-25.5445 582.82,-18.8606"/>
</g>
<!-- Node15&#45;&gt;Node7 -->
<g id="edge46" class="edge"><title>Node15&#45;&gt;Node7</title>
<path fill="none" stroke="midnightblue" d="M415.821,-236.354C391.792,-230.208 363.817,-218.444 349,-196 313.441,-142.137 363.691,-65.1717 391.154,-29.9314"/>
<polygon fill="midnightblue" stroke="midnightblue" points="394.059,-31.9034 397.579,-21.9105 388.596,-27.527 394.059,-31.9034"/>
</g>
<!-- Node16 -->
<g id="node37" class="node"><title>Node16</title>
<polygon fill="white" stroke="#bfbfbf" points="357.5,-174.5 357.5,-195.5 412.5,-195.5 412.5,-174.5 357.5,-174.5"/>
<text text-anchor="middle" x="385" y="-182.5" font-family="Helvetica,sans-Serif" font-size="10.00">QObject</text>
</g>
<!-- Node15&#45;&gt;Node16 -->
<g id="edge42" class="edge"><title>Node15&#45;&gt;Node16</title>
<path fill="none" stroke="midnightblue" d="M445.427,-232.362C434.579,-223.859 419.166,-211.779 406.621,-201.947"/>
<polygon fill="midnightblue" stroke="midnightblue" points="408.516,-198.985 398.487,-195.571 404.198,-204.494 408.516,-198.985"/>
</g>
<!-- Node17 -->
<g id="node39" class="node"><title>Node17</title>
<polygon fill="white" stroke="#bfbfbf" points="429.5,-174.5 429.5,-195.5 488.5,-195.5 488.5,-174.5 429.5,-174.5"/>
<text text-anchor="middle" x="459" y="-182.5" font-family="Helvetica,sans-Serif" font-size="10.00">QPixmap</text>
</g>
<!-- Node15&#45;&gt;Node17 -->
<g id="edge44" class="edge"><title>Node15&#45;&gt;Node17</title>
<path fill="none" stroke="midnightblue" d="M459,-232.362C459,-224.922 459,-214.743 459,-205.728"/>
<polygon fill="midnightblue" stroke="midnightblue" points="462.5,-205.571 459,-195.571 455.5,-205.571 462.5,-205.571"/>
</g>
<!-- Node18 -->
<g id="node42" class="node"><title>Node18</title>
<polygon fill="white" stroke="#bfbfbf" points="505.5,-174.5 505.5,-195.5 550.5,-195.5 550.5,-174.5 505.5,-174.5"/>
<text text-anchor="middle" x="528" y="-182.5" font-family="Helvetica,sans-Serif" font-size="10.00">QSize</text>
</g>
<!-- Node15&#45;&gt;Node18 -->
<g id="edge48" class="edge"><title>Node15&#45;&gt;Node18</title>
<path fill="none" stroke="midnightblue" d="M471.656,-232.362C481.674,-223.941 495.867,-212.011 507.501,-202.231"/>
<polygon fill="midnightblue" stroke="midnightblue" points="510.022,-204.684 515.425,-195.571 505.518,-199.326 510.022,-204.684"/>
</g>
<!-- Node19&#45;&gt;Node7 -->
<g id="edge62" class="edge"><title>Node19&#45;&gt;Node7</title>
<path fill="none" stroke="midnightblue" d="M288.258,-58.4966C312.429,-48.8285 348.367,-34.453 374.372,-24.051"/>
<polygon fill="midnightblue" stroke="midnightblue" points="375.823,-27.2406 383.808,-20.277 373.223,-20.7413 375.823,-27.2406"/>
</g>
<!-- Node19&#45;&gt;Node11 -->
<g id="edge56" class="edge"><title>Node19&#45;&gt;Node11</title>
<path fill="none" stroke="midnightblue" d="M302.469,-58.4429C338.375,-49.0311 392.235,-34.8032 439,-22 439.738,-21.798 440.483,-21.5933 441.235,-21.3865"/>
<polygon fill="midnightblue" stroke="midnightblue" points="442.463,-24.6778 451.161,-18.6283 440.589,-17.9333 442.463,-24.6778"/>
</g>
<!-- Node19&#45;&gt;Node13 -->
<g id="edge64" class="edge"><title>Node19&#45;&gt;Node13</title>
<path fill="none" stroke="midnightblue" d="M315.314,-61.0455C364.225,-53.2923 438.795,-40.3278 512.003,-22.0285"/>
<polygon fill="midnightblue" stroke="midnightblue" points="513.02,-25.3815 521.853,-19.5314 511.3,-18.5962 513.02,-25.3815"/>
</g>
<!-- Node20 -->
<g id="node46" class="node"><title>Node20</title>
<polygon fill="white" stroke="#bfbfbf" points="97.5,-0.5 97.5,-21.5 156.5,-21.5 156.5,-0.5 97.5,-0.5"/>
<text text-anchor="middle" x="127" y="-8.5" font-family="Helvetica,sans-Serif" font-size="10.00">qglobal.h</text>
</g>
<!-- Node19&#45;&gt;Node20 -->
<g id="edge52" class="edge"><title>Node19&#45;&gt;Node20</title>
<path fill="none" stroke="midnightblue" d="M237.553,-58.4966C216.182,-49.3154 184.931,-35.8889 161.103,-25.6516"/>
<polygon fill="midnightblue" stroke="midnightblue" points="162.291,-22.3529 151.722,-21.6212 159.528,-28.7845 162.291,-22.3529"/>
</g>
<!-- Node21 -->
<g id="node48" class="node"><title>Node21</title>
<polygon fill="white" stroke="#bfbfbf" points="174,-0.5 174,-21.5 228,-21.5 228,-0.5 174,-0.5"/>
<text text-anchor="middle" x="201" y="-8.5" font-family="Helvetica,sans-Serif" font-size="10.00">qmath.h</text>
</g>
<!-- Node19&#45;&gt;Node21 -->
<g id="edge54" class="edge"><title>Node19&#45;&gt;Node21</title>
<path fill="none" stroke="midnightblue" d="M250.812,-58.3619C242.041,-50.0226 229.651,-38.2418 219.422,-28.5162"/>
<polygon fill="midnightblue" stroke="midnightblue" points="221.776,-25.9248 212.117,-21.5707 216.953,-30.9978 221.776,-25.9248"/>
</g>
<!-- Node22 -->
<g id="node51" class="node"><title>Node22</title>
<polygon fill="white" stroke="#bfbfbf" points="245.5,-0.5 245.5,-21.5 294.5,-21.5 294.5,-0.5 245.5,-0.5"/>
<text text-anchor="middle" x="270" y="-8.5" font-family="Helvetica,sans-Serif" font-size="10.00">QPoint</text>
</g>
<!-- Node19&#45;&gt;Node22 -->
<g id="edge58" class="edge"><title>Node19&#45;&gt;Node22</title>
<path fill="none" stroke="midnightblue" d="M263.467,-58.3619C264.494,-50.9219 265.898,-40.7427 267.141,-31.7276"/>
<polygon fill="midnightblue" stroke="midnightblue" points="270.643,-31.9551 268.542,-21.5707 263.708,-30.9986 270.643,-31.9551"/>
</g>
<!-- Node23 -->
<g id="node53" class="node"><title>Node23</title>
<polygon fill="white" stroke="#bfbfbf" points="311.5,-0.5 311.5,-21.5 366.5,-21.5 366.5,-0.5 311.5,-0.5"/>
<text text-anchor="middle" x="339" y="-8.5" font-family="Helvetica,sans-Serif" font-size="10.00">QPointF</text>
</g>
<!-- Node19&#45;&gt;Node23 -->
<g id="edge60" class="edge"><title>Node19&#45;&gt;Node23</title>
<path fill="none" stroke="midnightblue" d="M276.123,-58.3619C287.52,-49.7773 303.758,-37.5459 316.878,-27.6636"/>
<polygon fill="midnightblue" stroke="midnightblue" points="319.085,-30.3829 324.967,-21.5707 314.873,-24.7916 319.085,-30.3829"/>
</g>
<!-- Node24 -->
<g id="node57" class="node"><title>Node24</title>
<polygon fill="white" stroke="#bfbfbf" points="0,-0.5 0,-21.5 80,-21.5 80,-0.5 0,-0.5"/>
<text text-anchor="middle" x="40" y="-8.5" font-family="Helvetica,sans-Serif" font-size="10.00">QVariantMap</text>
</g>
<!-- Node19&#45;&gt;Node24 -->
<g id="edge66" class="edge"><title>Node19&#45;&gt;Node24</title>
<path fill="none" stroke="midnightblue" d="M221.797,-58.4966C184.822,-48.8364 129.858,-34.4765 90.0516,-24.0765"/>
<polygon fill="midnightblue" stroke="midnightblue" points="90.8379,-20.6646 80.2779,-21.5231 89.0684,-27.4372 90.8379,-20.6646"/>
</g>
</g>
</svg>
