<?xml version="1.0" encoding="UTF-8" standalone="no"?>
<!DOCTYPE svg PUBLIC "-//W3C//DTD SVG 1.1//EN"
 "http://www.w3.org/Graphics/SVG/1.1/DTD/svg11.dtd">
<!-- Generated by graphviz version 2.26.3 (20100126.1600)
 -->
<!-- Title: scrollingsurface.h Pages: 1 -->
<svg width="603pt" height="262pt"
 viewBox="0.00 0.00 602.64 262.00" xmlns="http://www.w3.org/2000/svg" xmlns:xlink="http://www.w3.org/1999/xlink">
<g id="graph1" class="graph" transform="scale(1 1) rotate(0) translate(4 258)">
<title>scrollingsurface.h</title>
<polygon fill="white" stroke="white" points="-4,5 -4,-258 599.636,-258 599.636,5 -4,5"/>
<!-- Node1 -->
<g id="node1" class="node"><title>Node1</title>
<polygon fill="#bfbfbf" stroke="black" points="479,-232.5 479,-253.5 577,-253.5 577,-232.5 479,-232.5"/>
<text text-anchor="middle" x="528" y="-240.5" font-family="Helvetica,sans-Serif" font-size="10.00">scrollingsurface.h</text>
</g>
<!-- Node2 -->
<g id="node3" class="node"><title>Node2</title>
<a xlink:href="scrollableobject_8h.htm" target="_top" xlink:title="scrollableobject.h">
<polygon fill="white" stroke="black" points="441.5,-174.5 441.5,-195.5 538.5,-195.5 538.5,-174.5 441.5,-174.5"/>
<text text-anchor="middle" x="490" y="-182.5" font-family="Helvetica,sans-Serif" font-size="10.00">scrollableobject.h</text>
</a>
</g>
<!-- Node1&#45;&gt;Node2 -->
<g id="edge2" class="edge"><title>Node1&#45;&gt;Node2</title>
<path fill="none" stroke="midnightblue" d="M521.03,-232.362C515.834,-224.431 508.599,-213.389 502.422,-203.961"/>
<polygon fill="midnightblue" stroke="midnightblue" points="505.334,-202.017 496.926,-195.571 499.478,-205.853 505.334,-202.017"/>
</g>
<!-- Node7 -->
<g id="node13" class="node"><title>Node7</title>
<polygon fill="white" stroke="#bfbfbf" points="-0.5,-0.5 -0.5,-21.5 58.5,-21.5 58.5,-0.5 -0.5,-0.5"/>
<text text-anchor="middle" x="29" y="-8.5" font-family="Helvetica,sans-Serif" font-size="10.00">QPointer</text>
</g>
<!-- Node1&#45;&gt;Node7 -->
<g id="edge36" class="edge"><title>Node1&#45;&gt;Node7</title>
<path fill="none" stroke="midnightblue" d="M505.262,-232.429C424.883,-195.058 153.973,-69.1035 60.7938,-25.7819"/>
<polygon fill="midnightblue" stroke="midnightblue" points="62.1287,-22.5428 51.5853,-21.5006 59.1775,-28.8903 62.1287,-22.5428"/>
</g>
<!-- Node10 -->
<g id="node19" class="node"><title>Node10</title>
<polygon fill="white" stroke="#bfbfbf" points="523.5,-0.5 523.5,-21.5 576.5,-21.5 576.5,-0.5 523.5,-0.5"/>
<text text-anchor="middle" x="550" y="-8.5" font-family="Helvetica,sans-Serif" font-size="10.00">QRectF</text>
</g>
<!-- Node1&#45;&gt;Node10 -->
<g id="edge32" class="edge"><title>Node1&#45;&gt;Node10</title>
<path fill="none" stroke="midnightblue" d="M537.692,-232.41C553.226,-214.563 582.877,-176.646 592,-138 601.226,-98.9192 578.828,-54.6929 563.317,-30.1009"/>
<polygon fill="midnightblue" stroke="midnightblue" points="566.206,-28.1242 557.79,-21.6888 560.356,-31.9681 566.206,-28.1242"/>
</g>
<!-- Node13 -->
<g id="node28" class="node"><title>Node13</title>
<polygon fill="white" stroke="#bfbfbf" points="536.5,-116.5 536.5,-137.5 583.5,-137.5 583.5,-116.5 536.5,-116.5"/>
<text text-anchor="middle" x="560" y="-124.5" font-family="Helvetica,sans-Serif" font-size="10.00">QRect</text>
</g>
<!-- Node1&#45;&gt;Node13 -->
<g id="edge34" class="edge"><title>Node1&#45;&gt;Node13</title>
<path fill="none" stroke="midnightblue" d="M532.996,-232.388C537.244,-223 543.236,-208.838 547,-196 551.655,-180.124 555.028,-161.688 557.17,-147.869"/>
<polygon fill="midnightblue" stroke="midnightblue" points="560.642,-148.314 558.625,-137.913 553.715,-147.302 560.642,-148.314"/>
</g>
<!-- Node3 -->
<g id="node5" class="node"><title>Node3</title>
<a xlink:href="thingpaintable_8h.htm" target="_top" xlink:title="thingpaintable.h">
<polygon fill="white" stroke="black" points="388.5,-116.5 388.5,-137.5 479.5,-137.5 479.5,-116.5 388.5,-116.5"/>
<text text-anchor="middle" x="434" y="-124.5" font-family="Helvetica,sans-Serif" font-size="10.00">thingpaintable.h</text>
</a>
</g>
<!-- Node2&#45;&gt;Node3 -->
<g id="edge4" class="edge"><title>Node2&#45;&gt;Node3</title>
<path fill="none" stroke="midnightblue" d="M479.729,-174.362C471.756,-166.104 460.525,-154.472 451.189,-144.803"/>
<polygon fill="midnightblue" stroke="midnightblue" points="453.67,-142.334 444.206,-137.571 448.634,-147.196 453.67,-142.334"/>
</g>
<!-- Node2&#45;&gt;Node10 -->
<g id="edge28" class="edge"><title>Node2&#45;&gt;Node10</title>
<path fill="none" stroke="midnightblue" d="M493.663,-174.377C503.389,-146.172 529.996,-69.0121 542.855,-31.7203"/>
<polygon fill="midnightblue" stroke="midnightblue" points="546.281,-32.5224 546.232,-21.9277 539.663,-30.2405 546.281,-32.5224"/>
</g>
<!-- Node2&#45;&gt;Node13 -->
<g id="edge30" class="edge"><title>Node2&#45;&gt;Node13</title>
<path fill="none" stroke="midnightblue" d="M502.839,-174.362C513.002,-165.941 527.401,-154.011 539.204,-144.231"/>
<polygon fill="midnightblue" stroke="midnightblue" points="541.775,-146.646 547.242,-137.571 537.309,-141.256 541.775,-146.646"/>
</g>
<!-- Node4 -->
<g id="node7" class="node"><title>Node4</title>
<a xlink:href="thing_8h.htm" target="_top" xlink:title="thing.h">
<polygon fill="white" stroke="black" points="317,-58.5 317,-79.5 365,-79.5 365,-58.5 317,-58.5"/>
<text text-anchor="middle" x="341" y="-66.5" font-family="Helvetica,sans-Serif" font-size="10.00">thing.h</text>
</a>
</g>
<!-- Node3&#45;&gt;Node4 -->
<g id="edge6" class="edge"><title>Node3&#45;&gt;Node4</title>
<path fill="none" stroke="midnightblue" d="M416.942,-116.362C402.915,-107.614 382.816,-95.0786 366.818,-85.1015"/>
<polygon fill="midnightblue" stroke="midnightblue" points="368.287,-81.8927 357.949,-79.5707 364.582,-87.8323 368.287,-81.8927"/>
</g>
<!-- Node8 -->
<g id="node15" class="node"><title>Node8</title>
<polygon fill="white" stroke="#bfbfbf" points="453.5,-0.5 453.5,-21.5 506.5,-21.5 506.5,-0.5 453.5,-0.5"/>
<text text-anchor="middle" x="480" y="-8.5" font-family="Helvetica,sans-Serif" font-size="10.00">QString</text>
</g>
<!-- Node3&#45;&gt;Node8 -->
<g id="edge24" class="edge"><title>Node3&#45;&gt;Node8</title>
<path fill="none" stroke="midnightblue" d="M437.147,-116.081C441.219,-102.339 448.774,-78.1008 457,-58 460.759,-48.8147 465.498,-38.9094 469.697,-30.5716"/>
<polygon fill="midnightblue" stroke="midnightblue" points="472.828,-32.1348 474.286,-21.6407 466.602,-28.9355 472.828,-32.1348"/>
</g>
<!-- Node3&#45;&gt;Node10 -->
<g id="edge26" class="edge"><title>Node3&#45;&gt;Node10</title>
<path fill="none" stroke="midnightblue" d="M442.66,-116.301C454.111,-102.373 475.163,-77.5065 495,-58 505.6,-47.5768 518.155,-36.7451 528.592,-28.1106"/>
<polygon fill="midnightblue" stroke="midnightblue" points="530.9,-30.7443 536.429,-21.7068 526.471,-25.3235 530.9,-30.7443"/>
</g>
<!-- Node5 -->
<g id="node9" class="node"><title>Node5</title>
<polygon fill="white" stroke="#bfbfbf" points="76,-0.5 76,-21.5 174,-21.5 174,-0.5 76,-0.5"/>
<text text-anchor="middle" x="125" y="-8.5" font-family="Helvetica,sans-Serif" font-size="10.00">QGraphicsObject</text>
</g>
<!-- Node4&#45;&gt;Node5 -->
<g id="edge8" class="edge"><title>Node4&#45;&gt;Node5</title>
<path fill="none" stroke="midnightblue" d="M316.642,-62.4594C282.177,-53.205 218.432,-36.0882 173.963,-24.1475"/>
<polygon fill="midnightblue" stroke="midnightblue" points="174.791,-20.7459 164.226,-21.5328 172.976,-27.5064 174.791,-20.7459"/>
</g>
<!-- Node6 -->
<g id="node11" class="node"><title>Node6</title>
<polygon fill="white" stroke="#bfbfbf" points="192,-0.5 192,-21.5 238,-21.5 238,-0.5 192,-0.5"/>
<text text-anchor="middle" x="215" y="-8.5" font-family="Helvetica,sans-Serif" font-size="10.00">QUuid</text>
</g>
<!-- Node4&#45;&gt;Node6 -->
<g id="edge10" class="edge"><title>Node4&#45;&gt;Node6</title>
<path fill="none" stroke="midnightblue" d="M318.182,-58.4966C298.414,-49.397 269.587,-36.1273 247.424,-25.9253"/>
<polygon fill="midnightblue" stroke="midnightblue" points="248.621,-22.6234 238.074,-21.6212 245.694,-28.982 248.621,-22.6234"/>
</g>
<!-- Node4&#45;&gt;Node7 -->
<g id="edge12" class="edge"><title>Node4&#45;&gt;Node7</title>
<path fill="none" stroke="midnightblue" d="M316.998,-65.805C270.713,-59.448 165.768,-44.0852 68.753,-22.2382"/>
<polygon fill="midnightblue" stroke="midnightblue" points="69.3164,-18.7769 58.7883,-19.9645 67.7591,-25.6015 69.3164,-18.7769"/>
</g>
<!-- Node4&#45;&gt;Node8 -->
<g id="edge14" class="edge"><title>Node4&#45;&gt;Node8</title>
<path fill="none" stroke="midnightblue" d="M365.212,-58.8972C387.323,-49.6711 420.265,-35.9253 445.196,-25.5225"/>
<polygon fill="midnightblue" stroke="midnightblue" points="446.776,-28.6559 454.657,-21.5749 444.08,-22.1957 446.776,-28.6559"/>
</g>
<!-- Node9 -->
<g id="node17" class="node"><title>Node9</title>
<polygon fill="white" stroke="#bfbfbf" points="255.5,-0.5 255.5,-21.5 296.5,-21.5 296.5,-0.5 255.5,-0.5"/>
<text text-anchor="middle" x="276" y="-8.5" font-family="Helvetica,sans-Serif" font-size="10.00">QList</text>
</g>
<!-- Node4&#45;&gt;Node9 -->
<g id="edge16" class="edge"><title>Node4&#45;&gt;Node9</title>
<path fill="none" stroke="midnightblue" d="M329.078,-58.3619C319.641,-49.9408 306.27,-38.0105 295.31,-28.2308"/>
<polygon fill="midnightblue" stroke="midnightblue" points="297.638,-25.6171 287.846,-21.5707 292.978,-30.8401 297.638,-25.6171"/>
</g>
<!-- Node4&#45;&gt;Node10 -->
<g id="edge18" class="edge"><title>Node4&#45;&gt;Node10</title>
<path fill="none" stroke="midnightblue" d="M365.01,-62.8447C396.879,-54.6035 455.12,-39.2975 513.529,-22.3628"/>
<polygon fill="midnightblue" stroke="midnightblue" points="514.66,-25.6789 523.281,-19.5203 512.701,-18.9585 514.66,-25.6789"/>
</g>
<!-- Node11 -->
<g id="node21" class="node"><title>Node11</title>
<polygon fill="white" stroke="#bfbfbf" points="313.5,-0.5 313.5,-21.5 368.5,-21.5 368.5,-0.5 313.5,-0.5"/>
<text text-anchor="middle" x="341" y="-8.5" font-family="Helvetica,sans-Serif" font-size="10.00">QDebug</text>
</g>
<!-- Node4&#45;&gt;Node11 -->
<g id="edge20" class="edge"><title>Node4&#45;&gt;Node11</title>
<path fill="none" stroke="midnightblue" d="M341,-58.3619C341,-50.9219 341,-40.7427 341,-31.7276"/>
<polygon fill="midnightblue" stroke="midnightblue" points="344.5,-31.5706 341,-21.5707 337.5,-31.5707 344.5,-31.5706"/>
</g>
<!-- Node12 -->
<g id="node23" class="node"><title>Node12</title>
<polygon fill="white" stroke="#bfbfbf" points="386,-0.5 386,-21.5 436,-21.5 436,-0.5 386,-0.5"/>
<text text-anchor="middle" x="411" y="-8.5" font-family="Helvetica,sans-Serif" font-size="10.00">QHash</text>
</g>
<!-- Node4&#45;&gt;Node12 -->
<g id="edge22" class="edge"><title>Node4&#45;&gt;Node12</title>
<path fill="none" stroke="midnightblue" d="M353.839,-58.3619C364.002,-49.9408 378.401,-38.0105 390.204,-28.2308"/>
<polygon fill="midnightblue" stroke="midnightblue" points="392.775,-30.6459 398.242,-21.5707 388.309,-25.2558 392.775,-30.6459"/>
</g>
</g>
</svg>
