<?xml version="1.0" encoding="UTF-8" standalone="no"?>
<!DOCTYPE svg PUBLIC "-//W3C//DTD SVG 1.1//EN"
 "http://www.w3.org/Graphics/SVG/1.1/DTD/svg11.dtd">
<!-- Generated by graphviz version 2.26.3 (20100126.1600)
 -->
<!-- Title: Security.h Pages: 1 -->
<svg width="462pt" height="88pt"
 viewBox="0.00 0.00 462.00 88.00" xmlns="http://www.w3.org/2000/svg" xmlns:xlink="http://www.w3.org/1999/xlink">
<g id="graph1" class="graph" transform="scale(1 1) rotate(0) translate(4 84)">
<title>Security.h</title>
<polygon fill="white" stroke="white" points="-4,5 -4,-84 459,-84 459,5 -4,5"/>
<!-- Node1 -->
<g id="node1" class="node"><title>Node1</title>
<polygon fill="#bfbfbf" stroke="black" points="198,-58.5 198,-79.5 260,-79.5 260,-58.5 198,-58.5"/>
<text text-anchor="middle" x="229" y="-66.5" font-family="Helvetica,sans-Serif" font-size="10.00">Security.h</text>
</g>
<!-- Node2 -->
<g id="node3" class="node"><title>Node2</title>
<polygon fill="white" stroke="#bfbfbf" points="-0.5,-0.5 -0.5,-21.5 66.5,-21.5 66.5,-0.5 -0.5,-0.5"/>
<text text-anchor="middle" x="33" y="-8.5" font-family="Helvetica,sans-Serif" font-size="10.00">Common.h</text>
</g>
<!-- Node1&#45;&gt;Node2 -->
<g id="edge2" class="edge"><title>Node1&#45;&gt;Node2</title>
<path fill="none" stroke="midnightblue" d="M197.943,-59.8097C165.186,-50.1163 113.314,-34.7664 76.4944,-23.8708"/>
<polygon fill="midnightblue" stroke="midnightblue" points="77.1191,-20.4057 66.537,-20.9242 75.1328,-27.118 77.1191,-20.4057"/>
</g>
<!-- Node3 -->
<g id="node5" class="node"><title>Node3</title>
<polygon fill="white" stroke="#bfbfbf" points="83.5,-0.5 83.5,-21.5 126.5,-21.5 126.5,-0.5 83.5,-0.5"/>
<text text-anchor="middle" x="105" y="-8.5" font-family="Helvetica,sans-Serif" font-size="10.00">string</text>
</g>
<!-- Node1&#45;&gt;Node3 -->
<g id="edge4" class="edge"><title>Node1&#45;&gt;Node3</title>
<path fill="none" stroke="midnightblue" d="M206.545,-58.4966C186.847,-49.2832 158.01,-35.7949 136.095,-25.5442"/>
<polygon fill="midnightblue" stroke="midnightblue" points="137.413,-22.2971 126.872,-21.2305 134.447,-28.6378 137.413,-22.2971"/>
</g>
<!-- Node4 -->
<g id="node7" class="node"><title>Node4</title>
<polygon fill="white" stroke="#bfbfbf" points="144,-0.5 144,-21.5 222,-21.5 222,-0.5 144,-0.5"/>
<text text-anchor="middle" x="183" y="-8.5" font-family="Helvetica,sans-Serif" font-size="10.00">lunaservice.h</text>
</g>
<!-- Node1&#45;&gt;Node4 -->
<g id="edge6" class="edge"><title>Node1&#45;&gt;Node4</title>
<path fill="none" stroke="midnightblue" d="M220.563,-58.3619C214.208,-50.3496 205.334,-39.1605 197.807,-29.6696"/>
<polygon fill="midnightblue" stroke="midnightblue" points="200.34,-27.2308 191.384,-21.5707 194.855,-31.5805 200.34,-27.2308"/>
</g>
<!-- Node5 -->
<g id="node9" class="node"><title>Node5</title>
<polygon fill="white" stroke="#bfbfbf" points="240,-0.5 240,-21.5 312,-21.5 312,-0.5 240,-0.5"/>
<text text-anchor="middle" x="276" y="-8.5" font-family="Helvetica,sans-Serif" font-size="10.00">cjson/json.h</text>
</g>
<!-- Node1&#45;&gt;Node5 -->
<g id="edge8" class="edge"><title>Node1&#45;&gt;Node5</title>
<path fill="none" stroke="midnightblue" d="M237.621,-58.3619C244.18,-50.2678 253.366,-38.9318 261.106,-29.3796"/>
<polygon fill="midnightblue" stroke="midnightblue" points="263.858,-31.5436 267.434,-21.5707 258.419,-27.1364 263.858,-31.5436"/>
</g>
<!-- Node6 -->
<g id="node11" class="node"><title>Node6</title>
<polygon fill="white" stroke="#bfbfbf" points="329.5,-0.5 329.5,-21.5 384.5,-21.5 384.5,-0.5 329.5,-0.5"/>
<text text-anchor="middle" x="357" y="-8.5" font-family="Helvetica,sans-Serif" font-size="10.00">QObject</text>
</g>
<!-- Node1&#45;&gt;Node6 -->
<g id="edge10" class="edge"><title>Node1&#45;&gt;Node6</title>
<path fill="none" stroke="midnightblue" d="M252.18,-58.4966C272.352,-49.3562 301.81,-36.0082 324.364,-25.7883"/>
<polygon fill="midnightblue" stroke="midnightblue" points="325.896,-28.9366 333.56,-21.6212 323.007,-22.5606 325.896,-28.9366"/>
</g>
<!-- Node7 -->
<g id="node13" class="node"><title>Node7</title>
<polygon fill="white" stroke="#bfbfbf" points="401.5,-0.5 401.5,-21.5 454.5,-21.5 454.5,-0.5 401.5,-0.5"/>
<text text-anchor="middle" x="428" y="-8.5" font-family="Helvetica,sans-Serif" font-size="10.00">QString</text>
</g>
<!-- Node1&#45;&gt;Node7 -->
<g id="edge12" class="edge"><title>Node1&#45;&gt;Node7</title>
<path fill="none" stroke="midnightblue" d="M260.204,-60.312C291.248,-51.6125 340.483,-37.6657 391.406,-22.4374"/>
<polygon fill="midnightblue" stroke="midnightblue" points="392.696,-25.7045 401.269,-19.4781 390.684,-18.9998 392.696,-25.7045"/>
</g>
</g>
</svg>
