<?xml version="1.0" encoding="UTF-8" standalone="no"?>
<!DOCTYPE svg PUBLIC "-//W3C//DTD SVG 1.1//EN"
 "http://www.w3.org/Graphics/SVG/1.1/DTD/svg11.dtd">
<!-- Generated by graphviz version 2.26.3 (20100126.1600)
 -->
<!-- Title: Settings.cpp Pages: 1 -->
<svg width="706pt" height="88pt"
 viewBox="0.00 0.00 706.00 88.00" xmlns="http://www.w3.org/2000/svg" xmlns:xlink="http://www.w3.org/1999/xlink">
<g id="graph1" class="graph" transform="scale(1 1) rotate(0) translate(4 84)">
<title>Settings.cpp</title>
<polygon fill="white" stroke="white" points="-4,5 -4,-84 703,-84 703,5 -4,5"/>
<!-- Node1 -->
<g id="node1" class="node"><title>Node1</title>
<polygon fill="#bfbfbf" stroke="black" points="315,-58.5 315,-79.5 389,-79.5 389,-58.5 315,-58.5"/>
<text text-anchor="middle" x="352" y="-66.5" font-family="Helvetica,sans-Serif" font-size="10.00">Settings.cpp</text>
</g>
<!-- Node2 -->
<g id="node3" class="node"><title>Node2</title>
<polygon fill="white" stroke="#bfbfbf" points="-0.5,-0.5 -0.5,-21.5 66.5,-21.5 66.5,-0.5 -0.5,-0.5"/>
<text text-anchor="middle" x="33" y="-8.5" font-family="Helvetica,sans-Serif" font-size="10.00">Common.h</text>
</g>
<!-- Node1&#45;&gt;Node2 -->
<g id="edge2" class="edge"><title>Node1&#45;&gt;Node2</title>
<path fill="none" stroke="midnightblue" d="M314.614,-63.7254C263.085,-56.2221 167.166,-41.4186 76.7264,-22.2549"/>
<polygon fill="midnightblue" stroke="midnightblue" points="77.3758,-18.8147 66.8646,-20.1429 75.9099,-25.6595 77.3758,-18.8147"/>
</g>
<!-- Node3 -->
<g id="node5" class="node"><title>Node3</title>
<polygon fill="white" stroke="#bfbfbf" points="83.5,-0.5 83.5,-21.5 146.5,-21.5 146.5,-0.5 83.5,-0.5"/>
<text text-anchor="middle" x="115" y="-8.5" font-family="Helvetica,sans-Serif" font-size="10.00">Settings.h</text>
</g>
<!-- Node1&#45;&gt;Node3 -->
<g id="edge4" class="edge"><title>Node1&#45;&gt;Node3</title>
<path fill="none" stroke="midnightblue" d="M314.872,-60.5406C277.214,-51.8721 217.018,-37.7746 156.554,-22.3506"/>
<polygon fill="midnightblue" stroke="midnightblue" points="157.406,-18.9561 146.851,-19.8644 155.669,-25.7371 157.406,-18.9561"/>
</g>
<!-- Node4 -->
<g id="node7" class="node"><title>Node4</title>
<polygon fill="white" stroke="#bfbfbf" points="164,-0.5 164,-21.5 214,-21.5 214,-0.5 164,-0.5"/>
<text text-anchor="middle" x="189" y="-8.5" font-family="Helvetica,sans-Serif" font-size="10.00">QHash</text>
</g>
<!-- Node1&#45;&gt;Node4 -->
<g id="edge6" class="edge"><title>Node1&#45;&gt;Node4</title>
<path fill="none" stroke="midnightblue" d="M322.482,-58.4966C294.622,-48.5834 252.854,-33.7211 223.477,-23.2677"/>
<polygon fill="midnightblue" stroke="midnightblue" points="224.621,-19.9602 214.027,-19.9052 222.275,-26.5551 224.621,-19.9602"/>
</g>
<!-- Node5 -->
<g id="node9" class="node"><title>Node5</title>
<polygon fill="white" stroke="#bfbfbf" points="231.5,-0.5 231.5,-21.5 278.5,-21.5 278.5,-0.5 231.5,-0.5"/>
<text text-anchor="middle" x="255" y="-8.5" font-family="Helvetica,sans-Serif" font-size="10.00">stdio.h</text>
</g>
<!-- Node1&#45;&gt;Node5 -->
<g id="edge8" class="edge"><title>Node1&#45;&gt;Node5</title>
<path fill="none" stroke="midnightblue" d="M334.209,-58.3619C319.441,-49.532 298.222,-36.844 281.462,-26.8224"/>
<polygon fill="midnightblue" stroke="midnightblue" points="283.057,-23.6987 272.679,-21.5707 279.465,-29.7066 283.057,-23.6987"/>
</g>
<!-- Node6 -->
<g id="node11" class="node"><title>Node6</title>
<polygon fill="white" stroke="#bfbfbf" points="295.5,-0.5 295.5,-21.5 346.5,-21.5 346.5,-0.5 295.5,-0.5"/>
<text text-anchor="middle" x="321" y="-8.5" font-family="Helvetica,sans-Serif" font-size="10.00">string.h</text>
</g>
<!-- Node1&#45;&gt;Node6 -->
<g id="edge10" class="edge"><title>Node1&#45;&gt;Node6</title>
<path fill="none" stroke="midnightblue" d="M346.314,-58.3619C342.163,-50.5949 336.416,-39.8426 331.447,-30.5458"/>
<polygon fill="midnightblue" stroke="midnightblue" points="334.45,-28.7401 326.65,-21.5707 328.277,-32.0398 334.45,-28.7401"/>
</g>
<!-- Node7 -->
<g id="node13" class="node"><title>Node7</title>
<polygon fill="white" stroke="#bfbfbf" points="363.5,-0.5 363.5,-21.5 404.5,-21.5 404.5,-0.5 363.5,-0.5"/>
<text text-anchor="middle" x="384" y="-8.5" font-family="Helvetica,sans-Serif" font-size="10.00">glib.h</text>
</g>
<!-- Node1&#45;&gt;Node7 -->
<g id="edge12" class="edge"><title>Node1&#45;&gt;Node7</title>
<path fill="none" stroke="midnightblue" d="M357.869,-58.3619C362.155,-50.5949 368.087,-39.8426 373.216,-30.5458"/>
<polygon fill="midnightblue" stroke="midnightblue" points="376.402,-32.0172 378.168,-21.5707 370.273,-28.6357 376.402,-32.0172"/>
</g>
<!-- Node8 -->
<g id="node15" class="node"><title>Node8</title>
<polygon fill="white" stroke="#bfbfbf" points="422,-0.5 422,-21.5 470,-21.5 470,-0.5 422,-0.5"/>
<text text-anchor="middle" x="446" y="-8.5" font-family="Helvetica,sans-Serif" font-size="10.00">math.h</text>
</g>
<!-- Node1&#45;&gt;Node8 -->
<g id="edge14" class="edge"><title>Node1&#45;&gt;Node8</title>
<path fill="none" stroke="midnightblue" d="M369.241,-58.3619C383.552,-49.532 404.115,-36.844 420.357,-26.8224"/>
<polygon fill="midnightblue" stroke="midnightblue" points="422.196,-29.8004 428.868,-21.5707 418.52,-23.8431 422.196,-29.8004"/>
</g>
<!-- Node9 -->
<g id="node17" class="node"><title>Node9</title>
<polygon fill="white" stroke="#bfbfbf" points="487.5,-0.5 487.5,-21.5 532.5,-21.5 532.5,-0.5 487.5,-0.5"/>
<text text-anchor="middle" x="510" y="-8.5" font-family="Helvetica,sans-Serif" font-size="10.00">Utils.h</text>
</g>
<!-- Node1&#45;&gt;Node9 -->
<g id="edge16" class="edge"><title>Node1&#45;&gt;Node9</title>
<path fill="none" stroke="midnightblue" d="M380.613,-58.4966C407.977,-48.4513 449.186,-33.3241 477.713,-22.8522"/>
<polygon fill="midnightblue" stroke="midnightblue" points="479.05,-26.09 487.231,-19.3582 476.637,-19.5187 479.05,-26.09"/>
</g>
<!-- Node10 -->
<g id="node19" class="node"><title>Node10</title>
<polygon fill="white" stroke="#bfbfbf" points="549.5,-0.5 549.5,-21.5 612.5,-21.5 612.5,-0.5 549.5,-0.5"/>
<text text-anchor="middle" x="581" y="-8.5" font-family="Helvetica,sans-Serif" font-size="10.00">Logging.h</text>
</g>
<!-- Node1&#45;&gt;Node10 -->
<g id="edge18" class="edge"><title>Node1&#45;&gt;Node10</title>
<path fill="none" stroke="midnightblue" d="M389.008,-60.0823C425.074,-51.3284 481.715,-37.414 539.167,-22.4447"/>
<polygon fill="midnightblue" stroke="midnightblue" points="540.353,-25.7525 549.142,-19.8369 538.582,-18.98 540.353,-25.7525"/>
</g>
<!-- Node11 -->
<g id="node21" class="node"><title>Node11</title>
<polygon fill="white" stroke="#bfbfbf" points="630,-0.5 630,-21.5 698,-21.5 698,-0.5 630,-0.5"/>
<text text-anchor="middle" x="664" y="-8.5" font-family="Helvetica,sans-Serif" font-size="10.00">lunaprefs.h</text>
</g>
<!-- Node1&#45;&gt;Node11 -->
<g id="edge20" class="edge"><title>Node1&#45;&gt;Node11</title>
<path fill="none" stroke="midnightblue" d="M389.161,-63.4403C439.342,-55.7287 531.741,-40.8112 619.895,-22.1236"/>
<polygon fill="midnightblue" stroke="midnightblue" points="620.743,-25.5216 629.789,-20.0063 619.278,-18.6766 620.743,-25.5216"/>
</g>
</g>
</svg>
