<?xml version="1.0" encoding="UTF-8" standalone="no"?>
<!DOCTYPE svg PUBLIC "-//W3C//DTD SVG 1.1//EN"
 "http://www.w3.org/Graphics/SVG/1.1/DTD/svg11.dtd">
<!-- Generated by graphviz version 2.26.3 (20100126.1600)
 -->
<!-- Title: SharedGlobalProperties.h Pages: 1 -->
<svg width="226pt" height="88pt"
 viewBox="0.00 0.00 226.00 88.00" xmlns="http://www.w3.org/2000/svg" xmlns:xlink="http://www.w3.org/1999/xlink">
<g id="graph1" class="graph" transform="scale(1 1) rotate(0) translate(4 84)">
<title>SharedGlobalProperties.h</title>
<polygon fill="white" stroke="white" points="-4,5 -4,-84 223,-84 223,5 -4,5"/>
<!-- Node1 -->
<g id="node1" class="node"><title>Node1</title>
<polygon fill="#bfbfbf" stroke="black" points="42,-58.5 42,-79.5 180,-79.5 180,-58.5 42,-58.5"/>
<text text-anchor="middle" x="111" y="-66.5" font-family="Helvetica,sans-Serif" font-size="10.00">SharedGlobalProperties.h</text>
</g>
<!-- Node2 -->
<g id="node3" class="node"><title>Node2</title>
<a xlink:href="WindowServer_8cpp.htm" target="_top" xlink:title="WindowServer.cpp">
<polygon fill="white" stroke="black" points="-0.5,-0.5 -0.5,-21.5 104.5,-21.5 104.5,-0.5 -0.5,-0.5"/>
<text text-anchor="middle" x="52" y="-8.5" font-family="Helvetica,sans-Serif" font-size="10.00">WindowServer.cpp</text>
</a>
</g>
<!-- Node1&#45;&gt;Node2 -->
<g id="edge2" class="edge"><title>Node1&#45;&gt;Node2</title>
<path fill="none" stroke="midnightblue" d="M92.8097,-51.118C82.9625,-41.4377 71.1341,-29.8098 62.7529,-21.5707"/>
<polygon fill="midnightblue" stroke="midnightblue" points="90.5936,-53.8474 100.178,-58.3619 95.5009,-48.8556 90.5936,-53.8474"/>
</g>
<!-- Node3 -->
<g id="node5" class="node"><title>Node3</title>
<a xlink:href="CardWindow_8cpp.htm" target="_top" xlink:title="CardWindow.cpp">
<polygon fill="white" stroke="black" points="121.5,-0.5 121.5,-21.5 218.5,-21.5 218.5,-0.5 121.5,-0.5"/>
<text text-anchor="middle" x="170" y="-8.5" font-family="Helvetica,sans-Serif" font-size="10.00">CardWindow.cpp</text>
</a>
</g>
<!-- Node1&#45;&gt;Node3 -->
<g id="edge4" class="edge"><title>Node1&#45;&gt;Node3</title>
<path fill="none" stroke="midnightblue" d="M129.19,-51.118C139.037,-41.4377 150.866,-29.8098 159.247,-21.5707"/>
<polygon fill="midnightblue" stroke="midnightblue" points="126.499,-48.8556 121.822,-58.3619 131.406,-53.8474 126.499,-48.8556"/>
</g>
</g>
</svg>
