<?xml version="1.0" encoding="UTF-8" standalone="no"?>
<!DOCTYPE svg PUBLIC "-//W3C//DTD SVG 1.1//EN"
 "http://www.w3.org/Graphics/SVG/1.1/DTD/svg11.dtd">
<!-- Generated by graphviz version 2.26.3 (20100126.1600)
 -->
<!-- Title: SingleClickGestureRecognizer.h Pages: 1 -->
<svg width="432pt" height="88pt"
 viewBox="0.00 0.00 432.00 88.00" xmlns="http://www.w3.org/2000/svg" xmlns:xlink="http://www.w3.org/1999/xlink">
<g id="graph1" class="graph" transform="scale(1 1) rotate(0) translate(4 84)">
<title>SingleClickGestureRecognizer.h</title>
<polygon fill="white" stroke="white" points="-4,5 -4,-84 429,-84 429,5 -4,5"/>
<!-- Node1 -->
<g id="node1" class="node"><title>Node1</title>
<polygon fill="#bfbfbf" stroke="black" points="165,-58.5 165,-79.5 333,-79.5 333,-58.5 165,-58.5"/>
<text text-anchor="middle" x="249" y="-66.5" font-family="Helvetica,sans-Serif" font-size="10.00">SingleClickGestureRecognizer.h</text>
</g>
<!-- Node2 -->
<g id="node3" class="node"><title>Node2</title>
<a xlink:href="SingleClickGestureRecognizer_8cpp.htm" target="_top" xlink:title="SingleClickGestureRecognizer.cpp">
<polygon fill="white" stroke="black" points="-0.5,-0.5 -0.5,-21.5 178.5,-21.5 178.5,-0.5 -0.5,-0.5"/>
<text text-anchor="middle" x="89" y="-8.5" font-family="Helvetica,sans-Serif" font-size="10.00">SingleClickGestureRecognizer.cpp</text>
</a>
</g>
<!-- Node1&#45;&gt;Node2 -->
<g id="edge2" class="edge"><title>Node1&#45;&gt;Node2</title>
<path fill="none" stroke="midnightblue" d="M210.405,-55.0095C181.972,-44.7023 143.905,-30.903 118.029,-21.5231"/>
<polygon fill="midnightblue" stroke="midnightblue" points="209.431,-58.3791 220.025,-58.4966 211.817,-51.7981 209.431,-58.3791"/>
</g>
<!-- Node3 -->
<g id="node5" class="node"><title>Node3</title>
<a xlink:href="SystemService_8cpp.htm" target="_top" xlink:title="SystemService.cpp">
<polygon fill="white" stroke="black" points="196,-0.5 196,-21.5 302,-21.5 302,-0.5 196,-0.5"/>
<text text-anchor="middle" x="249" y="-8.5" font-family="Helvetica,sans-Serif" font-size="10.00">SystemService.cpp</text>
</a>
</g>
<!-- Node1&#45;&gt;Node3 -->
<g id="edge4" class="edge"><title>Node1&#45;&gt;Node3</title>
<path fill="none" stroke="midnightblue" d="M249,-48.1906C249,-39.1684 249,-28.9941 249,-21.5707"/>
<polygon fill="midnightblue" stroke="midnightblue" points="245.5,-48.3619 249,-58.3619 252.5,-48.3619 245.5,-48.3619"/>
</g>
<!-- Node4 -->
<g id="node7" class="node"><title>Node4</title>
<a xlink:href="WindowServer_8cpp.htm" target="_top" xlink:title="WindowServer.cpp">
<polygon fill="white" stroke="black" points="319.5,-0.5 319.5,-21.5 424.5,-21.5 424.5,-0.5 319.5,-0.5"/>
<text text-anchor="middle" x="372" y="-8.5" font-family="Helvetica,sans-Serif" font-size="10.00">WindowServer.cpp</text>
</a>
</g>
<!-- Node1&#45;&gt;Node4 -->
<g id="edge6" class="edge"><title>Node1&#45;&gt;Node4</title>
<path fill="none" stroke="midnightblue" d="M280.373,-54.2064C301.951,-44.031 330.102,-30.7567 349.476,-21.6212"/>
<polygon fill="midnightblue" stroke="midnightblue" points="278.826,-51.0658 271.274,-58.4966 281.812,-57.3972 278.826,-51.0658"/>
</g>
</g>
</svg>
