<?xml version="1.0" encoding="UTF-8" standalone="no"?>
<!DOCTYPE svg PUBLIC "-//W3C//DTD SVG 1.1//EN"
 "http://www.w3.org/Graphics/SVG/1.1/DTD/svg11.dtd">
<!-- Generated by graphviz version 2.26.3 (20100126.1600)
 -->
<!-- Title: SingleClickGestureRecognizer.cpp Pages: 1 -->
<svg width="809pt" height="146pt"
 viewBox="0.00 0.00 809.00 146.00" xmlns="http://www.w3.org/2000/svg" xmlns:xlink="http://www.w3.org/1999/xlink">
<g id="graph1" class="graph" transform="scale(1 1) rotate(0) translate(4 142)">
<title>SingleClickGestureRecognizer.cpp</title>
<polygon fill="white" stroke="white" points="-4,5 -4,-142 806,-142 806,5 -4,5"/>
<!-- Node1 -->
<g id="node1" class="node"><title>Node1</title>
<polygon fill="#bfbfbf" stroke="black" points="440.5,-116.5 440.5,-137.5 619.5,-137.5 619.5,-116.5 440.5,-116.5"/>
<text text-anchor="middle" x="530" y="-124.5" font-family="Helvetica,sans-Serif" font-size="10.00">SingleClickGestureRecognizer.cpp</text>
</g>
<!-- Node2 -->
<g id="node3" class="node"><title>Node2</title>
<polygon fill="white" stroke="#bfbfbf" points="207.5,-0.5 207.5,-21.5 274.5,-21.5 274.5,-0.5 207.5,-0.5"/>
<text text-anchor="middle" x="241" y="-8.5" font-family="Helvetica,sans-Serif" font-size="10.00">Common.h</text>
</g>
<!-- Node1&#45;&gt;Node2 -->
<g id="edge2" class="edge"><title>Node1&#45;&gt;Node2</title>
<path fill="none" stroke="midnightblue" d="M458.431,-116.485C403.734,-107.596 333.523,-94.0883 308,-80 285.675,-67.677 266.142,-45.501 254.015,-29.6132"/>
<polygon fill="midnightblue" stroke="midnightblue" points="256.817,-27.5144 248.069,-21.5362 251.179,-31.6643 256.817,-27.5144"/>
</g>
<!-- Node3 -->
<g id="node5" class="node"><title>Node3</title>
<polygon fill="white" stroke="#bfbfbf" points="448.5,-58.5 448.5,-79.5 529.5,-79.5 529.5,-58.5 448.5,-58.5"/>
<text text-anchor="middle" x="489" y="-66.5" font-family="Helvetica,sans-Serif" font-size="10.00">QTouchEvent</text>
</g>
<!-- Node1&#45;&gt;Node3 -->
<g id="edge4" class="edge"><title>Node1&#45;&gt;Node3</title>
<path fill="none" stroke="midnightblue" d="M522.48,-116.362C516.874,-108.431 509.068,-97.3885 502.403,-87.9606"/>
<polygon fill="midnightblue" stroke="midnightblue" points="505.103,-85.7161 496.472,-79.5707 499.387,-89.7568 505.103,-85.7161"/>
</g>
<!-- Node4 -->
<g id="node7" class="node"><title>Node4</title>
<polygon fill="white" stroke="#bfbfbf" points="546.5,-58.5 546.5,-79.5 597.5,-79.5 597.5,-58.5 546.5,-58.5"/>
<text text-anchor="middle" x="572" y="-66.5" font-family="Helvetica,sans-Serif" font-size="10.00">QLineF</text>
</g>
<!-- Node1&#45;&gt;Node4 -->
<g id="edge6" class="edge"><title>Node1&#45;&gt;Node4</title>
<path fill="none" stroke="midnightblue" d="M537.703,-116.362C543.446,-108.431 551.443,-97.3885 558.27,-87.9606"/>
<polygon fill="midnightblue" stroke="midnightblue" points="561.315,-89.7229 564.345,-79.5707 555.645,-85.6173 561.315,-89.7229"/>
</g>
<!-- Node5 -->
<g id="node9" class="node"><title>Node5</title>
<polygon fill="white" stroke="#bfbfbf" points="614.5,-58.5 614.5,-79.5 655.5,-79.5 655.5,-58.5 614.5,-58.5"/>
<text text-anchor="middle" x="635" y="-66.5" font-family="Helvetica,sans-Serif" font-size="10.00">glib.h</text>
</g>
<!-- Node1&#45;&gt;Node5 -->
<g id="edge8" class="edge"><title>Node1&#45;&gt;Node5</title>
<path fill="none" stroke="midnightblue" d="M549.259,-116.362C565.466,-107.409 588.853,-94.4908 607.109,-84.4064"/>
<polygon fill="midnightblue" stroke="midnightblue" points="608.802,-87.4696 615.863,-79.5707 605.418,-81.3422 608.802,-87.4696"/>
</g>
<!-- Node6 -->
<g id="node11" class="node"><title>Node6</title>
<polygon fill="white" stroke="#bfbfbf" points="673,-58.5 673,-79.5 721,-79.5 721,-58.5 673,-58.5"/>
<text text-anchor="middle" x="697" y="-66.5" font-family="Helvetica,sans-Serif" font-size="10.00">Time.h</text>
</g>
<!-- Node1&#45;&gt;Node6 -->
<g id="edge10" class="edge"><title>Node1&#45;&gt;Node6</title>
<path fill="none" stroke="midnightblue" d="M560.242,-116.497C589.292,-106.407 633.103,-91.1919 663.268,-80.7153"/>
<polygon fill="midnightblue" stroke="midnightblue" points="664.636,-83.9454 672.934,-77.3582 662.339,-77.3328 664.636,-83.9454"/>
</g>
<!-- Node7 -->
<g id="node13" class="node"><title>Node7</title>
<a xlink:href="SingleClickGesture_8h.htm" target="_top" xlink:title="SingleClickGesture.h">
<polygon fill="white" stroke="black" points="317,-58.5 317,-79.5 431,-79.5 431,-58.5 317,-58.5"/>
<text text-anchor="middle" x="374" y="-66.5" font-family="Helvetica,sans-Serif" font-size="10.00">SingleClickGesture.h</text>
</a>
</g>
<!-- Node1&#45;&gt;Node7 -->
<g id="edge12" class="edge"><title>Node1&#45;&gt;Node7</title>
<path fill="none" stroke="midnightblue" d="M501.75,-116.497C476.538,-107.123 439.424,-93.3242 411.688,-83.0122"/>
<polygon fill="midnightblue" stroke="midnightblue" points="412.896,-79.7274 402.303,-79.5231 410.457,-86.2886 412.896,-79.7274"/>
</g>
<!-- Node12 -->
<g id="node24" class="node"><title>Node12</title>
<a xlink:href="SingleClickGestureRecognizer_8h.htm" target="_top" xlink:title="SingleClickGestureRecognizer.h">
<polygon fill="white" stroke="black" points="93,-58.5 93,-79.5 261,-79.5 261,-58.5 93,-58.5"/>
<text text-anchor="middle" x="177" y="-66.5" font-family="Helvetica,sans-Serif" font-size="10.00">SingleClickGestureRecognizer.h</text>
</a>
</g>
<!-- Node1&#45;&gt;Node12 -->
<g id="edge24" class="edge"><title>Node1&#45;&gt;Node12</title>
<path fill="none" stroke="midnightblue" d="M466.074,-116.497C405.536,-106.55 314.673,-91.6205 251.019,-81.1618"/>
<polygon fill="midnightblue" stroke="midnightblue" points="251.481,-77.6908 241.046,-79.5231 250.346,-84.5982 251.481,-77.6908"/>
</g>
<!-- Node15 -->
<g id="node32" class="node"><title>Node15</title>
<polygon fill="white" stroke="#bfbfbf" points="738.5,-58.5 738.5,-79.5 801.5,-79.5 801.5,-58.5 738.5,-58.5"/>
<text text-anchor="middle" x="770" y="-66.5" font-family="Helvetica,sans-Serif" font-size="10.00">Logging.h</text>
</g>
<!-- Node1&#45;&gt;Node15 -->
<g id="edge34" class="edge"><title>Node1&#45;&gt;Node15</title>
<path fill="none" stroke="midnightblue" d="M576.997,-116.48C615.384,-107.769 671.284,-94.8163 728.256,-80.3918"/>
<polygon fill="midnightblue" stroke="midnightblue" points="729.324,-83.7319 738.152,-77.8742 727.598,-76.948 729.324,-83.7319"/>
</g>
<!-- Node7&#45;&gt;Node2 -->
<g id="edge14" class="edge"><title>Node7&#45;&gt;Node2</title>
<path fill="none" stroke="midnightblue" d="M349.915,-58.4966C328.861,-49.3154 298.073,-35.8889 274.598,-25.6516"/>
<polygon fill="midnightblue" stroke="midnightblue" points="275.921,-22.4104 265.356,-21.6212 273.123,-28.8268 275.921,-22.4104"/>
</g>
<!-- Node8 -->
<g id="node16" class="node"><title>Node8</title>
<polygon fill="white" stroke="#bfbfbf" points="358,-0.5 358,-21.5 420,-21.5 420,-0.5 358,-0.5"/>
<text text-anchor="middle" x="389" y="-8.5" font-family="Helvetica,sans-Serif" font-size="10.00">QGesture</text>
</g>
<!-- Node7&#45;&gt;Node8 -->
<g id="edge16" class="edge"><title>Node7&#45;&gt;Node8</title>
<path fill="none" stroke="midnightblue" d="M376.751,-58.3619C378.697,-50.8401 381.366,-40.5187 383.716,-31.4308"/>
<polygon fill="midnightblue" stroke="midnightblue" points="387.151,-32.1285 386.266,-21.5707 380.374,-30.3758 387.151,-32.1285"/>
</g>
<!-- Node9 -->
<g id="node18" class="node"><title>Node9</title>
<polygon fill="white" stroke="#bfbfbf" points="291.5,-0.5 291.5,-21.5 340.5,-21.5 340.5,-0.5 291.5,-0.5"/>
<text text-anchor="middle" x="316" y="-8.5" font-family="Helvetica,sans-Serif" font-size="10.00">QPoint</text>
</g>
<!-- Node7&#45;&gt;Node9 -->
<g id="edge18" class="edge"><title>Node7&#45;&gt;Node9</title>
<path fill="none" stroke="midnightblue" d="M363.362,-58.3619C355.104,-50.1043 343.472,-38.4725 333.803,-28.8029"/>
<polygon fill="midnightblue" stroke="midnightblue" points="336.117,-26.1669 326.571,-21.5707 331.167,-31.1166 336.117,-26.1669"/>
</g>
<!-- Node10 -->
<g id="node20" class="node"><title>Node10</title>
<polygon fill="white" stroke="#bfbfbf" points="437.5,-0.5 437.5,-21.5 500.5,-21.5 500.5,-0.5 437.5,-0.5"/>
<text text-anchor="middle" x="469" y="-8.5" font-family="Helvetica,sans-Serif" font-size="10.00">Settings.h</text>
</g>
<!-- Node7&#45;&gt;Node10 -->
<g id="edge20" class="edge"><title>Node7&#45;&gt;Node10</title>
<path fill="none" stroke="midnightblue" d="M391.424,-58.3619C405.887,-49.532 426.669,-36.844 443.084,-26.8224"/>
<polygon fill="midnightblue" stroke="midnightblue" points="444.975,-29.7688 451.686,-21.5707 441.327,-23.7943 444.975,-29.7688"/>
</g>
<!-- Node11 -->
<g id="node22" class="node"><title>Node11</title>
<polygon fill="white" stroke="#bfbfbf" points="517.5,-0.5 517.5,-21.5 600.5,-21.5 600.5,-0.5 517.5,-0.5"/>
<text text-anchor="middle" x="559" y="-8.5" font-family="Helvetica,sans-Serif" font-size="10.00">SysMgrDefs.h</text>
</g>
<!-- Node7&#45;&gt;Node11 -->
<g id="edge22" class="edge"><title>Node7&#45;&gt;Node11</title>
<path fill="none" stroke="midnightblue" d="M407.502,-58.4966C437.793,-49.0001 482.57,-34.9619 515.593,-24.6087"/>
<polygon fill="midnightblue" stroke="midnightblue" points="516.94,-27.8544 525.435,-21.5231 514.846,-21.175 516.94,-27.8544"/>
</g>
<!-- Node12&#45;&gt;Node2 -->
<g id="edge26" class="edge"><title>Node12&#45;&gt;Node2</title>
<path fill="none" stroke="midnightblue" d="M188.739,-58.3619C197.941,-50.0226 210.94,-38.2418 221.672,-28.5162"/>
<polygon fill="midnightblue" stroke="midnightblue" points="224.276,-30.8793 229.336,-21.5707 219.576,-25.6924 224.276,-30.8793"/>
</g>
<!-- Node12&#45;&gt;Node9 -->
<g id="edge30" class="edge"><title>Node12&#45;&gt;Node9</title>
<path fill="none" stroke="midnightblue" d="M202.172,-58.4966C224.549,-49.1593 257.449,-35.4312 282.131,-25.1323"/>
<polygon fill="midnightblue" stroke="midnightblue" points="283.601,-28.3115 291.482,-21.2305 280.905,-21.8514 283.601,-28.3115"/>
</g>
<!-- Node13 -->
<g id="node27" class="node"><title>Node13</title>
<polygon fill="white" stroke="#bfbfbf" points="0,-0.5 0,-21.5 116,-21.5 116,-0.5 0,-0.5"/>
<text text-anchor="middle" x="58" y="-8.5" font-family="Helvetica,sans-Serif" font-size="10.00">QGestureRecognizer</text>
</g>
<!-- Node12&#45;&gt;Node13 -->
<g id="edge28" class="edge"><title>Node12&#45;&gt;Node13</title>
<path fill="none" stroke="midnightblue" d="M155.45,-58.4966C136.864,-49.4378 109.798,-36.2462 88.9046,-26.0628"/>
<polygon fill="midnightblue" stroke="midnightblue" points="90.3144,-22.8563 79.7918,-21.6212 87.2475,-29.1487 90.3144,-22.8563"/>
</g>
<!-- Node14 -->
<g id="node30" class="node"><title>Node14</title>
<polygon fill="white" stroke="#bfbfbf" points="134,-0.5 134,-21.5 190,-21.5 190,-0.5 134,-0.5"/>
<text text-anchor="middle" x="162" y="-8.5" font-family="Helvetica,sans-Serif" font-size="10.00">QQueue</text>
</g>
<!-- Node12&#45;&gt;Node14 -->
<g id="edge32" class="edge"><title>Node12&#45;&gt;Node14</title>
<path fill="none" stroke="midnightblue" d="M174.249,-58.3619C172.303,-50.8401 169.634,-40.5187 167.284,-31.4308"/>
<polygon fill="midnightblue" stroke="midnightblue" points="170.626,-30.3758 164.734,-21.5707 163.849,-32.1285 170.626,-30.3758"/>
</g>
</g>
</svg>
