<?xml version="1.0" encoding="UTF-8" standalone="no"?>
<!DOCTYPE svg PUBLIC "-//W3C//DTD SVG 1.1//EN"
 "http://www.w3.org/Graphics/SVG/1.1/DTD/svg11.dtd">
<!-- Generated by graphviz version 2.26.3 (20100126.1600)
 -->
<!-- Title: SingleClickGesture.h Pages: 1 -->
<svg width="1388pt" height="88pt"
 viewBox="0.00 0.00 1388.00 88.00" xmlns="http://www.w3.org/2000/svg" xmlns:xlink="http://www.w3.org/1999/xlink">
<g id="graph1" class="graph" transform="scale(1 1) rotate(0) translate(4 84)">
<title>SingleClickGesture.h</title>
<polygon fill="white" stroke="white" points="-4,5 -4,-84 1385,-84 1385,5 -4,5"/>
<!-- Node1 -->
<g id="node1" class="node"><title>Node1</title>
<polygon fill="#bfbfbf" stroke="black" points="547,-58.5 547,-79.5 661,-79.5 661,-58.5 547,-58.5"/>
<text text-anchor="middle" x="604" y="-66.5" font-family="Helvetica,sans-Serif" font-size="10.00">SingleClickGesture.h</text>
</g>
<!-- Node2 -->
<g id="node3" class="node"><title>Node2</title>
<a xlink:href="SingleClickGestureRecognizer_8cpp.htm" target="_top" xlink:title="SingleClickGestureRecognizer.cpp">
<polygon fill="white" stroke="black" points="-0.5,-0.5 -0.5,-21.5 178.5,-21.5 178.5,-0.5 -0.5,-0.5"/>
<text text-anchor="middle" x="89" y="-8.5" font-family="Helvetica,sans-Serif" font-size="10.00">SingleClickGestureRecognizer.cpp</text>
</a>
</g>
<!-- Node1&#45;&gt;Node2 -->
<g id="edge2" class="edge"><title>Node1&#45;&gt;Node2</title>
<path fill="none" stroke="midnightblue" d="M536.931,-61.4465C445.324,-51.1297 280.824,-32.6035 178.699,-21.1021"/>
<polygon fill="midnightblue" stroke="midnightblue" points="536.589,-64.9302 546.918,-62.5714 537.373,-57.9741 536.589,-64.9302"/>
</g>
<!-- Node3 -->
<g id="node5" class="node"><title>Node3</title>
<a xlink:href="WindowServer_8cpp.htm" target="_top" xlink:title="WindowServer.cpp">
<polygon fill="white" stroke="black" points="195.5,-0.5 195.5,-21.5 300.5,-21.5 300.5,-0.5 195.5,-0.5"/>
<text text-anchor="middle" x="248" y="-8.5" font-family="Helvetica,sans-Serif" font-size="10.00">WindowServer.cpp</text>
</a>
</g>
<!-- Node1&#45;&gt;Node3 -->
<g id="edge4" class="edge"><title>Node1&#45;&gt;Node3</title>
<path fill="none" stroke="midnightblue" d="M536.764,-58.6879C476.93,-49.4156 387.058,-35.2548 309,-22 306.242,-21.5316 303.414,-21.0449 300.561,-20.5484"/>
<polygon fill="midnightblue" stroke="midnightblue" points="536.421,-62.1764 546.839,-60.2469 537.492,-55.2587 536.421,-62.1764"/>
</g>
<!-- Node4 -->
<g id="node7" class="node"><title>Node4</title>
<a xlink:href="IMEView_8cpp.htm" target="_top" xlink:title="IMEView.cpp">
<polygon fill="white" stroke="black" points="317.5,-0.5 317.5,-21.5 394.5,-21.5 394.5,-0.5 317.5,-0.5"/>
<text text-anchor="middle" x="356" y="-8.5" font-family="Helvetica,sans-Serif" font-size="10.00">IMEView.cpp</text>
</a>
</g>
<!-- Node1&#45;&gt;Node4 -->
<g id="edge6" class="edge"><title>Node1&#45;&gt;Node4</title>
<path fill="none" stroke="midnightblue" d="M548.98,-56.1377C508.584,-46.6934 452.379,-33.5516 403,-22 400.307,-21.3701 397.528,-20.7197 394.729,-20.0648"/>
<polygon fill="midnightblue" stroke="midnightblue" points="548.362,-59.5875 558.896,-58.456 549.955,-52.7713 548.362,-59.5875"/>
</g>
<!-- Node5 -->
<g id="node9" class="node"><title>Node5</title>
<a xlink:href="CardWindow_8cpp.htm" target="_top" xlink:title="CardWindow.cpp">
<polygon fill="white" stroke="black" points="411.5,-0.5 411.5,-21.5 508.5,-21.5 508.5,-0.5 411.5,-0.5"/>
<text text-anchor="middle" x="460" y="-8.5" font-family="Helvetica,sans-Serif" font-size="10.00">CardWindow.cpp</text>
</a>
</g>
<!-- Node1&#45;&gt;Node5 -->
<g id="edge8" class="edge"><title>Node1&#45;&gt;Node5</title>
<path fill="none" stroke="midnightblue" d="M568.623,-54.7509C543.194,-44.5086 509.458,-30.9206 486.37,-21.6212"/>
<polygon fill="midnightblue" stroke="midnightblue" points="567.339,-58.007 577.923,-58.4966 569.954,-51.5139 567.339,-58.007"/>
</g>
<!-- Node6 -->
<g id="node11" class="node"><title>Node6</title>
<a xlink:href="DockModeMenuManager_8cpp.htm" target="_top" xlink:title="DockModeMenuManager.cpp">
<polygon fill="white" stroke="black" points="526,-0.5 526,-21.5 682,-21.5 682,-0.5 526,-0.5"/>
<text text-anchor="middle" x="604" y="-8.5" font-family="Helvetica,sans-Serif" font-size="10.00">DockModeMenuManager.cpp</text>
</a>
</g>
<!-- Node1&#45;&gt;Node6 -->
<g id="edge10" class="edge"><title>Node1&#45;&gt;Node6</title>
<path fill="none" stroke="midnightblue" d="M604,-48.1906C604,-39.1684 604,-28.9941 604,-21.5707"/>
<polygon fill="midnightblue" stroke="midnightblue" points="600.5,-48.3619 604,-58.3619 607.5,-48.3619 600.5,-48.3619"/>
</g>
<!-- Node7 -->
<g id="node13" class="node"><title>Node7</title>
<a xlink:href="EmergencyWindowManager_8cpp.htm" target="_top" xlink:title="EmergencyWindowManager.cpp">
<polygon fill="white" stroke="black" points="700,-0.5 700,-21.5 870,-21.5 870,-0.5 700,-0.5"/>
<text text-anchor="middle" x="785" y="-8.5" font-family="Helvetica,sans-Serif" font-size="10.00">EmergencyWindowManager.cpp</text>
</a>
</g>
<!-- Node1&#45;&gt;Node7 -->
<g id="edge12" class="edge"><title>Node1&#45;&gt;Node7</title>
<path fill="none" stroke="midnightblue" d="M646.402,-55.4127C678.695,-45.0646 722.506,-31.0258 752.161,-21.5231"/>
<polygon fill="midnightblue" stroke="midnightblue" points="645.233,-52.1119 636.778,-58.4966 647.369,-58.7781 645.233,-52.1119"/>
</g>
<!-- Node8 -->
<g id="node15" class="node"><title>Node8</title>
<a xlink:href="GraphicsItemContainer_8cpp.htm" target="_top" xlink:title="GraphicsItemContainer.cpp">
<polygon fill="white" stroke="black" points="888,-0.5 888,-21.5 1034,-21.5 1034,-0.5 888,-0.5"/>
<text text-anchor="middle" x="961" y="-8.5" font-family="Helvetica,sans-Serif" font-size="10.00">GraphicsItemContainer.cpp</text>
</a>
</g>
<!-- Node1&#45;&gt;Node8 -->
<g id="edge14" class="edge"><title>Node1&#45;&gt;Node8</title>
<path fill="none" stroke="midnightblue" d="M671.428,-58.0453C735.951,-47.5626 832.606,-31.8595 896.229,-21.5231"/>
<polygon fill="midnightblue" stroke="midnightblue" points="670.668,-54.6229 661.358,-59.6813 671.79,-61.5323 670.668,-54.6229"/>
</g>
<!-- Node9 -->
<g id="node17" class="node"><title>Node9</title>
<a xlink:href="DashboardWindowManager_8cpp.htm" target="_top" xlink:title="DashboardWindowManager.cpp">
<polygon fill="white" stroke="black" points="1052,-0.5 1052,-21.5 1220,-21.5 1220,-0.5 1052,-0.5"/>
<text text-anchor="middle" x="1136" y="-8.5" font-family="Helvetica,sans-Serif" font-size="10.00">DashboardWindowManager.cpp</text>
</a>
</g>
<!-- Node1&#45;&gt;Node9 -->
<g id="edge16" class="edge"><title>Node1&#45;&gt;Node9</title>
<path fill="none" stroke="midnightblue" d="M671.368,-62.0216C757.555,-53.0399 911.435,-36.8231 1043,-22 1045.91,-21.6724 1048.87,-21.3364 1051.86,-20.9949"/>
<polygon fill="midnightblue" stroke="midnightblue" points="670.783,-58.5635 661.199,-63.0805 671.508,-65.5259 670.783,-58.5635"/>
</g>
<!-- Node10 -->
<g id="node19" class="node"><title>Node10</title>
<a xlink:href="MenuWindowManager_8cpp.htm" target="_top" xlink:title="MenuWindowManager.cpp">
<polygon fill="white" stroke="black" points="1237.5,-0.5 1237.5,-21.5 1380.5,-21.5 1380.5,-0.5 1237.5,-0.5"/>
<text text-anchor="middle" x="1309" y="-8.5" font-family="Helvetica,sans-Serif" font-size="10.00">MenuWindowManager.cpp</text>
</a>
</g>
<!-- Node1&#45;&gt;Node10 -->
<g id="edge18" class="edge"><title>Node1&#45;&gt;Node10</title>
<path fill="none" stroke="midnightblue" d="M671.449,-65.2937C786.17,-58.6842 1026.55,-43.5103 1229,-22 1231.79,-21.7038 1234.63,-21.3867 1237.5,-21.0538"/>
<polygon fill="midnightblue" stroke="midnightblue" points="671.193,-61.8025 661.41,-65.8686 671.594,-68.791 671.193,-61.8025"/>
</g>
</g>
</svg>
