<?xml version="1.0" encoding="UTF-8" standalone="no"?>
<!DOCTYPE svg PUBLIC "-//W3C//DTD SVG 1.1//EN"
 "http://www.w3.org/Graphics/SVG/1.1/DTD/svg11.dtd">
<!-- Generated by graphviz version 2.26.3 (20100126.1600)
 -->
<!-- Title: SoundPlayer.h Pages: 1 -->
<svg width="858pt" height="88pt"
 viewBox="0.00 0.00 858.00 88.00" xmlns="http://www.w3.org/2000/svg" xmlns:xlink="http://www.w3.org/1999/xlink">
<g id="graph1" class="graph" transform="scale(1 1) rotate(0) translate(4 84)">
<title>SoundPlayer.h</title>
<polygon fill="white" stroke="white" points="-4,5 -4,-84 855,-84 855,5 -4,5"/>
<!-- Node1 -->
<g id="node1" class="node"><title>Node1</title>
<polygon fill="#bfbfbf" stroke="black" points="271.5,-58.5 271.5,-79.5 356.5,-79.5 356.5,-58.5 271.5,-58.5"/>
<text text-anchor="middle" x="314" y="-66.5" font-family="Helvetica,sans-Serif" font-size="10.00">SoundPlayer.h</text>
</g>
<!-- Node2 -->
<g id="node3" class="node"><title>Node2</title>
<polygon fill="white" stroke="#bfbfbf" points="-0.5,-0.5 -0.5,-21.5 66.5,-21.5 66.5,-0.5 -0.5,-0.5"/>
<text text-anchor="middle" x="33" y="-8.5" font-family="Helvetica,sans-Serif" font-size="10.00">Common.h</text>
</g>
<!-- Node1&#45;&gt;Node2 -->
<g id="edge2" class="edge"><title>Node1&#45;&gt;Node2</title>
<path fill="none" stroke="midnightblue" d="M271.089,-61.39C225.183,-53.0648 150.027,-38.9084 76.739,-22.3157"/>
<polygon fill="midnightblue" stroke="midnightblue" points="77.4097,-18.8788 66.8816,-20.0663 75.8523,-25.7034 77.4097,-18.8788"/>
</g>
<!-- Node3 -->
<g id="node5" class="node"><title>Node3</title>
<polygon fill="white" stroke="#bfbfbf" points="83.5,-0.5 83.5,-21.5 126.5,-21.5 126.5,-0.5 83.5,-0.5"/>
<text text-anchor="middle" x="105" y="-8.5" font-family="Helvetica,sans-Serif" font-size="10.00">string</text>
</g>
<!-- Node1&#45;&gt;Node3 -->
<g id="edge4" class="edge"><title>Node1&#45;&gt;Node3</title>
<path fill="none" stroke="midnightblue" d="M271.362,-59.0099C237.029,-50.6958 187.377,-38.0683 136.13,-22.1813"/>
<polygon fill="midnightblue" stroke="midnightblue" points="137.135,-18.8285 126.546,-19.1773 135.042,-25.5081 137.135,-18.8285"/>
</g>
<!-- Node4 -->
<g id="node7" class="node"><title>Node4</title>
<polygon fill="white" stroke="#bfbfbf" points="143.5,-0.5 143.5,-21.5 172.5,-21.5 172.5,-0.5 143.5,-0.5"/>
<text text-anchor="middle" x="158" y="-8.5" font-family="Helvetica,sans-Serif" font-size="10.00">list</text>
</g>
<!-- Node1&#45;&gt;Node4 -->
<g id="edge6" class="edge"><title>Node1&#45;&gt;Node4</title>
<path fill="none" stroke="midnightblue" d="M281.111,-58.4629C256.089,-50.2083 220.673,-38.0181 182.696,-22.4746"/>
<polygon fill="midnightblue" stroke="midnightblue" points="183.568,-19.0475 172.99,-18.451 180.887,-25.5138 183.568,-19.0475"/>
</g>
<!-- Node5 -->
<g id="node9" class="node"><title>Node5</title>
<polygon fill="white" stroke="#bfbfbf" points="189.5,-0.5 189.5,-21.5 230.5,-21.5 230.5,-0.5 189.5,-0.5"/>
<text text-anchor="middle" x="210" y="-8.5" font-family="Helvetica,sans-Serif" font-size="10.00">glib.h</text>
</g>
<!-- Node1&#45;&gt;Node5 -->
<g id="edge8" class="edge"><title>Node1&#45;&gt;Node5</title>
<path fill="none" stroke="midnightblue" d="M294.925,-58.3619C278.945,-49.4502 255.919,-36.6087 237.873,-26.5447"/>
<polygon fill="midnightblue" stroke="midnightblue" points="239.393,-23.3846 228.954,-21.5707 235.983,-29.4982 239.393,-23.3846"/>
</g>
<!-- Node6 -->
<g id="node11" class="node"><title>Node6</title>
<polygon fill="white" stroke="#bfbfbf" points="248,-0.5 248,-21.5 310,-21.5 310,-0.5 248,-0.5"/>
<text text-anchor="middle" x="279" y="-8.5" font-family="Helvetica,sans-Serif" font-size="10.00">pthread.h</text>
</g>
<!-- Node1&#45;&gt;Node6 -->
<g id="edge10" class="edge"><title>Node1&#45;&gt;Node6</title>
<path fill="none" stroke="midnightblue" d="M307.58,-58.3619C302.844,-50.5131 296.268,-39.6159 290.618,-30.2527"/>
<polygon fill="midnightblue" stroke="midnightblue" points="293.542,-28.3242 285.379,-21.5707 287.549,-31.9409 293.542,-28.3242"/>
</g>
<!-- Node7 -->
<g id="node13" class="node"><title>Node7</title>
<polygon fill="white" stroke="#bfbfbf" points="327.5,-0.5 327.5,-21.5 370.5,-21.5 370.5,-0.5 327.5,-0.5"/>
<text text-anchor="middle" x="349" y="-8.5" font-family="Helvetica,sans-Serif" font-size="10.00">sptr.h</text>
</g>
<!-- Node1&#45;&gt;Node7 -->
<g id="edge12" class="edge"><title>Node1&#45;&gt;Node7</title>
<path fill="none" stroke="midnightblue" d="M320.42,-58.3619C325.156,-50.5131 331.732,-39.6159 337.382,-30.2527"/>
<polygon fill="midnightblue" stroke="midnightblue" points="340.451,-31.9409 342.621,-21.5707 334.458,-28.3242 340.451,-31.9409"/>
</g>
<!-- Node8 -->
<g id="node15" class="node"><title>Node8</title>
<polygon fill="white" stroke="#bfbfbf" points="387.5,-0.5 387.5,-21.5 516.5,-21.5 516.5,-0.5 387.5,-0.5"/>
<text text-anchor="middle" x="452" y="-8.5" font-family="Helvetica,sans-Serif" font-size="10.00">media/LunaConnector.h</text>
</g>
<!-- Node1&#45;&gt;Node8 -->
<g id="edge14" class="edge"><title>Node1&#45;&gt;Node8</title>
<path fill="none" stroke="midnightblue" d="M338.991,-58.4966C360.933,-49.2746 393.066,-35.7695 417.464,-25.5153"/>
<polygon fill="midnightblue" stroke="midnightblue" points="418.866,-28.7225 426.729,-21.6212 416.154,-22.2693 418.866,-28.7225"/>
</g>
<!-- Node9 -->
<g id="node17" class="node"><title>Node9</title>
<polygon fill="white" stroke="#bfbfbf" points="533.5,-0.5 533.5,-21.5 646.5,-21.5 646.5,-0.5 533.5,-0.5"/>
<text text-anchor="middle" x="590" y="-8.5" font-family="Helvetica,sans-Serif" font-size="10.00">media/MediaClient.h</text>
</g>
<!-- Node1&#45;&gt;Node9 -->
<g id="edge16" class="edge"><title>Node1&#45;&gt;Node9</title>
<path fill="none" stroke="midnightblue" d="M356.52,-60.0646C402.972,-50.3029 477.735,-34.5919 530.113,-23.585"/>
<polygon fill="midnightblue" stroke="midnightblue" points="530.881,-27.0001 539.947,-21.5183 529.441,-20.1498 530.881,-27.0001"/>
</g>
<!-- Node10 -->
<g id="node19" class="node"><title>Node10</title>
<polygon fill="white" stroke="#bfbfbf" points="664,-0.5 664,-21.5 780,-21.5 780,-0.5 664,-0.5"/>
<text text-anchor="middle" x="722" y="-8.5" font-family="Helvetica,sans-Serif" font-size="10.00">media/MediaPlayer.h</text>
</g>
<!-- Node1&#45;&gt;Node10 -->
<g id="edge18" class="edge"><title>Node1&#45;&gt;Node10</title>
<path fill="none" stroke="midnightblue" d="M356.58,-63.4895C419.341,-55.2886 540.629,-39.1407 654.017,-22.1213"/>
<polygon fill="midnightblue" stroke="midnightblue" points="654.543,-25.5817 663.91,-20.6312 653.5,-18.6598 654.543,-25.5817"/>
</g>
<!-- Node11 -->
<g id="node21" class="node"><title>Node11</title>
<polygon fill="white" stroke="#bfbfbf" points="798,-0.5 798,-21.5 850,-21.5 850,-0.5 798,-0.5"/>
<text text-anchor="middle" x="824" y="-8.5" font-family="Helvetica,sans-Serif" font-size="10.00">Timer.h</text>
</g>
<!-- Node1&#45;&gt;Node11 -->
<g id="edge20" class="edge"><title>Node1&#45;&gt;Node11</title>
<path fill="none" stroke="midnightblue" d="M356.695,-67.7164C438.7,-64.6192 623.894,-54.5684 787.53,-21.9562"/>
<polygon fill="midnightblue" stroke="midnightblue" points="788.674,-25.2956 797.779,-19.878 787.283,-18.4352 788.674,-25.2956"/>
</g>
</g>
</svg>
