<?xml version="1.0" encoding="UTF-8" standalone="no"?>
<!DOCTYPE svg PUBLIC "-//W3C//DTD SVG 1.1//EN"
 "http://www.w3.org/Graphics/SVG/1.1/DTD/svg11.dtd">
<!-- Generated by graphviz version 2.26.3 (20100126.1600)
 -->
<!-- Title: SoundPlayerDummy.h Pages: 1 -->
<svg width="1796pt" height="262pt"
 viewBox="0.00 0.00 1796.00 262.00" xmlns="http://www.w3.org/2000/svg" xmlns:xlink="http://www.w3.org/1999/xlink">
<g id="graph1" class="graph" transform="scale(1 1) rotate(0) translate(4 258)">
<title>SoundPlayerDummy.h</title>
<polygon fill="white" stroke="white" points="-4,5 -4,-258 1793,-258 1793,5 -4,5"/>
<!-- Node1 -->
<g id="node1" class="node"><title>Node1</title>
<polygon fill="#bfbfbf" stroke="black" points="925.5,-232.5 925.5,-253.5 1044.5,-253.5 1044.5,-232.5 925.5,-232.5"/>
<text text-anchor="middle" x="985" y="-240.5" font-family="Helvetica,sans-Serif" font-size="10.00">SoundPlayerDummy.h</text>
</g>
<!-- Node2 -->
<g id="node3" class="node"><title>Node2</title>
<a xlink:href="SoundPlayerPool_8h.htm" target="_top" xlink:title="SoundPlayerPool.h">
<polygon fill="white" stroke="black" points="864,-174.5 864,-195.5 970,-195.5 970,-174.5 864,-174.5"/>
<text text-anchor="middle" x="917" y="-182.5" font-family="Helvetica,sans-Serif" font-size="10.00">SoundPlayerPool.h</text>
</a>
</g>
<!-- Node1&#45;&gt;Node2 -->
<g id="edge2" class="edge"><title>Node1&#45;&gt;Node2</title>
<path fill="none" stroke="midnightblue" d="M964.706,-225.691C953.227,-215.9 939.244,-203.973 929.393,-195.571"/>
<polygon fill="midnightblue" stroke="midnightblue" points="962.648,-228.535 972.528,-232.362 967.191,-223.209 962.648,-228.535"/>
</g>
<!-- Node25 -->
<g id="node52" class="node"><title>Node25</title>
<a xlink:href="SoundPlayerDummy_8cpp.htm" target="_top" xlink:title="SoundPlayerDummy.cpp">
<polygon fill="white" stroke="black" points="987.5,-174.5 987.5,-195.5 1118.5,-195.5 1118.5,-174.5 987.5,-174.5"/>
<text text-anchor="middle" x="1053" y="-182.5" font-family="Helvetica,sans-Serif" font-size="10.00">SoundPlayerDummy.cpp</text>
</a>
</g>
<!-- Node1&#45;&gt;Node25 -->
<g id="edge54" class="edge"><title>Node1&#45;&gt;Node25</title>
<path fill="none" stroke="midnightblue" d="M1005.29,-225.691C1016.77,-215.9 1030.76,-203.973 1040.61,-195.571"/>
<polygon fill="midnightblue" stroke="midnightblue" points="1002.81,-223.209 997.472,-232.362 1007.35,-228.535 1002.81,-223.209"/>
</g>
<!-- Node3 -->
<g id="node5" class="node"><title>Node3</title>
<a xlink:href="SystemUiController_8cpp.htm" target="_top" xlink:title="SystemUiController.cpp">
<polygon fill="white" stroke="black" points="357.5,-116.5 357.5,-137.5 484.5,-137.5 484.5,-116.5 357.5,-116.5"/>
<text text-anchor="middle" x="421" y="-124.5" font-family="Helvetica,sans-Serif" font-size="10.00">SystemUiController.cpp</text>
</a>
</g>
<!-- Node2&#45;&gt;Node3 -->
<g id="edge4" class="edge"><title>Node2&#45;&gt;Node3</title>
<path fill="none" stroke="midnightblue" d="M853.677,-178.803C770.714,-170.496 620.758,-154.833 493,-138 490.242,-137.637 487.426,-137.254 484.583,-136.859"/>
<polygon fill="midnightblue" stroke="midnightblue" points="853.404,-182.293 863.702,-179.804 854.099,-175.328 853.404,-182.293"/>
</g>
<!-- Node4 -->
<g id="node7" class="node"><title>Node4</title>
<a xlink:href="WindowServer_8cpp.htm" target="_top" xlink:title="WindowServer.cpp">
<polygon fill="white" stroke="black" points="501.5,-116.5 501.5,-137.5 606.5,-137.5 606.5,-116.5 501.5,-116.5"/>
<text text-anchor="middle" x="554" y="-124.5" font-family="Helvetica,sans-Serif" font-size="10.00">WindowServer.cpp</text>
</a>
</g>
<!-- Node2&#45;&gt;Node4 -->
<g id="edge6" class="edge"><title>Node2&#45;&gt;Node4</title>
<path fill="none" stroke="midnightblue" d="M853.765,-175.147C793.622,-165.739 700.616,-151.096 620,-138 615.643,-137.292 611.125,-136.552 606.59,-135.805"/>
<polygon fill="midnightblue" stroke="midnightblue" points="853.444,-178.639 863.865,-176.726 854.525,-171.723 853.444,-178.639"/>
</g>
<!-- Node5 -->
<g id="node9" class="node"><title>Node5</title>
<a xlink:href="SysmgrIMEDataInterface_8cpp.htm" target="_top" xlink:title="SysmgrIMEDataInterface.cpp">
<polygon fill="white" stroke="black" points="-0.5,-58.5 -0.5,-79.5 154.5,-79.5 154.5,-58.5 -0.5,-58.5"/>
<text text-anchor="middle" x="77" y="-66.5" font-family="Helvetica,sans-Serif" font-size="10.00">SysmgrIMEDataInterface.cpp</text>
</a>
</g>
<!-- Node2&#45;&gt;Node5 -->
<g id="edge8" class="edge"><title>Node2&#45;&gt;Node5</title>
<path fill="none" stroke="midnightblue" d="M853.789,-179.976C799.276,-174.192 719.133,-162.177 653,-138 634.671,-131.299 633.631,-121.807 615,-116 422.603,-56.034 363.45,-100.79 163,-80 160.305,-79.7205 157.564,-79.4259 154.796,-79.1197"/>
<polygon fill="midnightblue" stroke="midnightblue" points="853.695,-183.485 863.998,-181.019 854.406,-176.521 853.695,-183.485"/>
</g>
<!-- Node6 -->
<g id="node11" class="node"><title>Node6</title>
<a xlink:href="CardWindowManager_8cpp.htm" target="_top" xlink:title="CardWindowManager.cpp">
<polygon fill="white" stroke="black" points="896,-116.5 896,-137.5 1036,-137.5 1036,-116.5 896,-116.5"/>
<text text-anchor="middle" x="966" y="-124.5" font-family="Helvetica,sans-Serif" font-size="10.00">CardWindowManager.cpp</text>
</a>
</g>
<!-- Node2&#45;&gt;Node6 -->
<g id="edge10" class="edge"><title>Node2&#45;&gt;Node6</title>
<path fill="none" stroke="midnightblue" d="M932.595,-166.541C940.673,-156.979 950.247,-145.647 957.07,-137.571"/>
<polygon fill="midnightblue" stroke="midnightblue" points="929.767,-164.464 925.987,-174.362 935.115,-168.982 929.767,-164.464"/>
</g>
<!-- Node7 -->
<g id="node13" class="node"><title>Node7</title>
<a xlink:href="CardWindowManagerStates_8cpp.htm" target="_top" xlink:title="CardWindowManagerStates.cpp">
<polygon fill="white" stroke="black" points="1054,-116.5 1054,-137.5 1224,-137.5 1224,-116.5 1054,-116.5"/>
<text text-anchor="middle" x="1139" y="-124.5" font-family="Helvetica,sans-Serif" font-size="10.00">CardWindowManagerStates.cpp</text>
</a>
</g>
<!-- Node2&#45;&gt;Node7 -->
<g id="edge12" class="edge"><title>Node2&#45;&gt;Node7</title>
<path fill="none" stroke="midnightblue" d="M966.97,-171.945C1006.76,-161.55 1061.72,-147.19 1098.72,-137.523"/>
<polygon fill="midnightblue" stroke="midnightblue" points="965.993,-168.582 957.203,-174.497 967.763,-175.355 965.993,-168.582"/>
</g>
<!-- Node8 -->
<g id="node15" class="node"><title>Node8</title>
<a xlink:href="BannerMessageHandler_8h.htm" target="_top" xlink:title="BannerMessageHandler.h">
<polygon fill="white" stroke="black" points="662,-116.5 662,-137.5 802,-137.5 802,-116.5 662,-116.5"/>
<text text-anchor="middle" x="732" y="-124.5" font-family="Helvetica,sans-Serif" font-size="10.00">BannerMessageHandler.h</text>
</a>
</g>
<!-- Node2&#45;&gt;Node8 -->
<g id="edge14" class="edge"><title>Node2&#45;&gt;Node8</title>
<path fill="none" stroke="midnightblue" d="M873.661,-171.413C840.654,-161.065 795.876,-147.026 765.565,-137.523"/>
<polygon fill="midnightblue" stroke="midnightblue" points="872.909,-174.845 883.498,-174.497 875.003,-168.165 872.909,-174.845"/>
</g>
<!-- Node12 -->
<g id="node24" class="node"><title>Node12</title>
<a xlink:href="AlertWindow_8cpp.htm" target="_top" xlink:title="AlertWindow.cpp">
<polygon fill="white" stroke="black" points="995.5,-58.5 995.5,-79.5 1090.5,-79.5 1090.5,-58.5 995.5,-58.5"/>
<text text-anchor="middle" x="1043" y="-66.5" font-family="Helvetica,sans-Serif" font-size="10.00">AlertWindow.cpp</text>
</a>
</g>
<!-- Node2&#45;&gt;Node12 -->
<g id="edge42" class="edge"><title>Node2&#45;&gt;Node12</title>
<path fill="none" stroke="midnightblue" d="M886.268,-169.427C863.531,-155.825 838.918,-135.292 854,-116 858.438,-110.323 940.801,-91.3597 995.321,-79.3262"/>
<polygon fill="midnightblue" stroke="midnightblue" points="884.702,-172.563 895.126,-174.458 888.159,-166.476 884.702,-172.563"/>
</g>
<!-- Node13 -->
<g id="node26" class="node"><title>Node13</title>
<a xlink:href="BannerMessageHandler_8cpp.htm" target="_top" xlink:title="BannerMessageHandler.cpp">
<polygon fill="white" stroke="black" points="1108,-58.5 1108,-79.5 1260,-79.5 1260,-58.5 1108,-58.5"/>
<text text-anchor="middle" x="1184" y="-66.5" font-family="Helvetica,sans-Serif" font-size="10.00">BannerMessageHandler.cpp</text>
</a>
</g>
<!-- Node2&#45;&gt;Node13 -->
<g id="edge44" class="edge"><title>Node2&#45;&gt;Node13</title>
<path fill="none" stroke="midnightblue" d="M898.908,-166.52C886.514,-151.605 874.401,-130.749 887,-116 890.64,-111.739 1023.08,-92.0405 1109.85,-79.5364"/>
<polygon fill="midnightblue" stroke="midnightblue" points="896.406,-168.973 905.667,-174.118 901.636,-164.32 896.406,-168.973"/>
</g>
<!-- Node21 -->
<g id="node44" class="node"><title>Node21</title>
<a xlink:href="VolumeControlAlertWindow_8cpp.htm" target="_top" xlink:title="VolumeControlAlertWindow.cpp">
<polygon fill="white" stroke="black" points="1242,-116.5 1242,-137.5 1406,-137.5 1406,-116.5 1242,-116.5"/>
<text text-anchor="middle" x="1324" y="-124.5" font-family="Helvetica,sans-Serif" font-size="10.00">VolumeControlAlertWindow.cpp</text>
</a>
</g>
<!-- Node2&#45;&gt;Node21 -->
<g id="edge46" class="edge"><title>Node2&#45;&gt;Node21</title>
<path fill="none" stroke="midnightblue" d="M980.207,-173.855C1075.75,-159 1174.37,-145.883 1241.96,-137.234"/>
<polygon fill="midnightblue" stroke="midnightblue" points="979.416,-170.436 970.076,-175.439 980.497,-177.352 979.416,-170.436"/>
</g>
<!-- Node22 -->
<g id="node46" class="node"><title>Node22</title>
<a xlink:href="StatusBarBattery_8cpp.htm" target="_top" xlink:title="StatusBarBattery.cpp">
<polygon fill="white" stroke="black" points="1424,-116.5 1424,-137.5 1540,-137.5 1540,-116.5 1424,-116.5"/>
<text text-anchor="middle" x="1482" y="-124.5" font-family="Helvetica,sans-Serif" font-size="10.00">StatusBarBattery.cpp</text>
</a>
</g>
<!-- Node2&#45;&gt;Node22 -->
<g id="edge48" class="edge"><title>Node2&#45;&gt;Node22</title>
<path fill="none" stroke="midnightblue" d="M979.975,-173.977C1173.53,-149.404 1225.22,-161.375 1415,-138 1417.92,-137.64 1420.92,-137.245 1423.94,-136.826"/>
<polygon fill="midnightblue" stroke="midnightblue" points="979.522,-170.506 970.05,-175.253 980.414,-177.449 979.522,-170.506"/>
</g>
<!-- Node23 -->
<g id="node48" class="node"><title>Node23</title>
<a xlink:href="SoundPlayer_8cpp.htm" target="_top" xlink:title="SoundPlayer.cpp">
<polygon fill="white" stroke="black" points="1558,-116.5 1558,-137.5 1654,-137.5 1654,-116.5 1558,-116.5"/>
<text text-anchor="middle" x="1606" y="-124.5" font-family="Helvetica,sans-Serif" font-size="10.00">SoundPlayer.cpp</text>
</a>
</g>
<!-- Node2&#45;&gt;Node23 -->
<g id="edge50" class="edge"><title>Node2&#45;&gt;Node23</title>
<path fill="none" stroke="midnightblue" d="M980.263,-173.973C1232.81,-144.465 1300.52,-169.691 1549,-138 1551.9,-137.63 1554.87,-137.203 1557.87,-136.736"/>
<polygon fill="midnightblue" stroke="midnightblue" points="979.559,-170.531 970.041,-175.185 980.384,-177.483 979.559,-170.531"/>
</g>
<!-- Node24 -->
<g id="node50" class="node"><title>Node24</title>
<a xlink:href="SoundPlayerPool_8cpp.htm" target="_top" xlink:title="SoundPlayerPool.cpp">
<polygon fill="white" stroke="black" points="1671.5,-116.5 1671.5,-137.5 1788.5,-137.5 1788.5,-116.5 1671.5,-116.5"/>
<text text-anchor="middle" x="1730" y="-124.5" font-family="Helvetica,sans-Serif" font-size="10.00">SoundPlayerPool.cpp</text>
</a>
</g>
<!-- Node2&#45;&gt;Node24 -->
<g id="edge52" class="edge"><title>Node2&#45;&gt;Node24</title>
<path fill="none" stroke="midnightblue" d="M979.993,-174.017C1283.16,-140.011 1363.59,-170.358 1663,-138 1665.7,-137.709 1668.45,-137.381 1671.22,-137.026"/>
<polygon fill="midnightblue" stroke="midnightblue" points="979.578,-170.542 970.037,-175.148 980.368,-177.497 979.578,-170.542"/>
</g>
<!-- Node8&#45;&gt;Node5 -->
<g id="edge18" class="edge"><title>Node8&#45;&gt;Node5</title>
<path fill="none" stroke="midnightblue" d="M651.856,-116.403C650.562,-116.265 649.276,-116.131 648,-116 432.978,-93.9585 378.055,-101.719 163,-80 160.304,-79.7277 157.563,-79.4394 154.794,-79.1386"/>
<polygon fill="midnightblue" stroke="midnightblue" points="651.582,-119.894 661.908,-117.522 652.357,-112.937 651.582,-119.894"/>
</g>
<!-- Node9 -->
<g id="node17" class="node"><title>Node9</title>
<a xlink:href="KeyLocationRecorder_8cpp.htm" target="_top" xlink:title="KeyLocationRecorder.cpp">
<polygon fill="white" stroke="black" points="589.5,-58.5 589.5,-79.5 728.5,-79.5 728.5,-58.5 589.5,-58.5"/>
<text text-anchor="middle" x="659" y="-66.5" font-family="Helvetica,sans-Serif" font-size="10.00">KeyLocationRecorder.cpp</text>
</a>
</g>
<!-- Node8&#45;&gt;Node9 -->
<g id="edge16" class="edge"><title>Node8&#45;&gt;Node9</title>
<path fill="none" stroke="midnightblue" d="M710.572,-109.975C698.183,-100.132 682.982,-88.0545 672.304,-79.5707"/>
<polygon fill="midnightblue" stroke="midnightblue" points="708.604,-112.881 718.611,-116.362 712.958,-107.401 708.604,-112.881"/>
</g>
<!-- Node10 -->
<g id="node20" class="node"><title>Node10</title>
<a xlink:href="CardHostWindow_8cpp.htm" target="_top" xlink:title="CardHostWindow.cpp">
<polygon fill="white" stroke="black" points="745.5,-58.5 745.5,-79.5 864.5,-79.5 864.5,-58.5 745.5,-58.5"/>
<text text-anchor="middle" x="805" y="-66.5" font-family="Helvetica,sans-Serif" font-size="10.00">CardHostWindow.cpp</text>
</a>
</g>
<!-- Node8&#45;&gt;Node10 -->
<g id="edge20" class="edge"><title>Node8&#45;&gt;Node10</title>
<path fill="none" stroke="midnightblue" d="M753.428,-109.975C765.817,-100.132 781.018,-88.0545 791.696,-79.5707"/>
<polygon fill="midnightblue" stroke="midnightblue" points="751.042,-107.401 745.389,-116.362 755.396,-112.881 751.042,-107.401"/>
</g>
<!-- Node11 -->
<g id="node22" class="node"><title>Node11</title>
<a xlink:href="LockWindow_8cpp.htm" target="_top" xlink:title="LockWindow.cpp">
<polygon fill="white" stroke="black" points="882,-58.5 882,-79.5 978,-79.5 978,-58.5 882,-58.5"/>
<text text-anchor="middle" x="930" y="-66.5" font-family="Helvetica,sans-Serif" font-size="10.00">LockWindow.cpp</text>
</a>
</g>
<!-- Node8&#45;&gt;Node11 -->
<g id="edge22" class="edge"><title>Node8&#45;&gt;Node11</title>
<path fill="none" stroke="midnightblue" d="M777.473,-113.68C812.883,-103.307 861.356,-89.1078 894.076,-79.5231"/>
<polygon fill="midnightblue" stroke="midnightblue" points="776.469,-110.327 767.856,-116.497 778.437,-117.044 776.469,-110.327"/>
</g>
<!-- Node8&#45;&gt;Node12 -->
<g id="edge24" class="edge"><title>Node8&#45;&gt;Node12</title>
<path fill="none" stroke="midnightblue" d="M800.26,-114.642C851.637,-105.287 923.776,-92.0356 987,-80 989.725,-79.4812 992.524,-78.9443 995.348,-78.3995"/>
<polygon fill="midnightblue" stroke="midnightblue" points="799.483,-111.226 790.271,-116.46 800.736,-118.113 799.483,-111.226"/>
</g>
<!-- Node8&#45;&gt;Node13 -->
<g id="edge26" class="edge"><title>Node8&#45;&gt;Node13</title>
<path fill="none" stroke="midnightblue" d="M812.243,-116.755C886.597,-107.254 1000.27,-92.7098 1099,-80 1101.8,-79.639 1104.66,-79.271 1107.54,-78.899"/>
<polygon fill="midnightblue" stroke="midnightblue" points="811.494,-113.322 802.018,-118.061 812.381,-120.265 811.494,-113.322"/>
</g>
<!-- Node14 -->
<g id="node28" class="node"><title>Node14</title>
<a xlink:href="BannerWindow_8h.htm" target="_top" xlink:title="BannerWindow.h">
<polygon fill="white" stroke="black" points="171.5,-58.5 171.5,-79.5 268.5,-79.5 268.5,-58.5 171.5,-58.5"/>
<text text-anchor="middle" x="220" y="-66.5" font-family="Helvetica,sans-Serif" font-size="10.00">BannerWindow.h</text>
</a>
</g>
<!-- Node8&#45;&gt;Node14 -->
<g id="edge28" class="edge"><title>Node8&#45;&gt;Node14</title>
<path fill="none" stroke="midnightblue" d="M651.852,-116.444C650.559,-116.293 649.274,-116.145 648,-116 483.402,-97.2422 440.956,-103.722 277,-80 274.307,-79.6104 271.548,-79.1805 268.767,-78.7234"/>
<polygon fill="midnightblue" stroke="midnightblue" points="651.551,-119.933 661.895,-117.641 652.38,-112.982 651.551,-119.933"/>
</g>
<!-- Node17 -->
<g id="node34" class="node"><title>Node17</title>
<a xlink:href="StatusBarNotificationArea_8h.htm" target="_top" xlink:title="StatusBarNotificationArea.h">
<polygon fill="white" stroke="black" points="286,-58.5 286,-79.5 432,-79.5 432,-58.5 286,-58.5"/>
<text text-anchor="middle" x="359" y="-66.5" font-family="Helvetica,sans-Serif" font-size="10.00">StatusBarNotificationArea.h</text>
</a>
</g>
<!-- Node8&#45;&gt;Node17 -->
<g id="edge34" class="edge"><title>Node8&#45;&gt;Node17</title>
<path fill="none" stroke="midnightblue" d="M654.335,-114.923C587.093,-104.468 490.816,-89.4969 426.674,-79.5231"/>
<polygon fill="midnightblue" stroke="midnightblue" points="654.033,-118.418 664.453,-116.497 655.109,-111.502 654.033,-118.418"/>
</g>
<!-- Node20 -->
<g id="node40" class="node"><title>Node20</title>
<a xlink:href="WebAppMgrProxy_8cpp.htm" target="_top" xlink:title="WebAppMgrProxy.cpp">
<polygon fill="white" stroke="black" points="450,-58.5 450,-79.5 572,-79.5 572,-58.5 450,-58.5"/>
<text text-anchor="middle" x="511" y="-66.5" font-family="Helvetica,sans-Serif" font-size="10.00">WebAppMgrProxy.cpp</text>
</a>
</g>
<!-- Node8&#45;&gt;Node20 -->
<g id="edge40" class="edge"><title>Node8&#45;&gt;Node20</title>
<path fill="none" stroke="midnightblue" d="M682.255,-113.945C642.648,-103.55 587.93,-89.1897 551.096,-79.5231"/>
<polygon fill="midnightblue" stroke="midnightblue" points="681.418,-117.343 691.979,-116.497 683.195,-110.573 681.418,-117.343"/>
</g>
<!-- Node15 -->
<g id="node30" class="node"><title>Node15</title>
<a xlink:href="BannerWindow_8cpp.htm" target="_top" xlink:title="BannerWindow.cpp">
<polygon fill="white" stroke="black" points="8,-0.5 8,-21.5 116,-21.5 116,-0.5 8,-0.5"/>
<text text-anchor="middle" x="62" y="-8.5" font-family="Helvetica,sans-Serif" font-size="10.00">BannerWindow.cpp</text>
</a>
</g>
<!-- Node14&#45;&gt;Node15 -->
<g id="edge30" class="edge"><title>Node14&#45;&gt;Node15</title>
<path fill="none" stroke="midnightblue" d="M181.888,-55.0095C153.81,-44.7023 116.218,-30.903 90.6663,-21.5231"/>
<polygon fill="midnightblue" stroke="midnightblue" points="180.794,-58.3362 191.387,-58.4966 183.206,-51.7649 180.794,-58.3362"/>
</g>
<!-- Node16 -->
<g id="node32" class="node"><title>Node16</title>
<a xlink:href="DashboardWindowManager_8cpp.htm" target="_top" xlink:title="DashboardWindowManager.cpp">
<polygon fill="white" stroke="black" points="134,-0.5 134,-21.5 302,-21.5 302,-0.5 134,-0.5"/>
<text text-anchor="middle" x="218" y="-8.5" font-family="Helvetica,sans-Serif" font-size="10.00">DashboardWindowManager.cpp</text>
</a>
</g>
<!-- Node14&#45;&gt;Node16 -->
<g id="edge32" class="edge"><title>Node14&#45;&gt;Node16</title>
<path fill="none" stroke="midnightblue" d="M219.282,-48.1906C218.971,-39.1684 218.62,-28.9941 218.365,-21.5707"/>
<polygon fill="midnightblue" stroke="midnightblue" points="215.791,-48.4885 219.633,-58.3619 222.786,-48.2472 215.791,-48.4885"/>
</g>
<!-- Node18 -->
<g id="node36" class="node"><title>Node18</title>
<a xlink:href="StatusBar_8cpp.htm" target="_top" xlink:title="StatusBar.cpp">
<polygon fill="white" stroke="black" points="320,-0.5 320,-21.5 402,-21.5 402,-0.5 320,-0.5"/>
<text text-anchor="middle" x="361" y="-8.5" font-family="Helvetica,sans-Serif" font-size="10.00">StatusBar.cpp</text>
</a>
</g>
<!-- Node17&#45;&gt;Node18 -->
<g id="edge36" class="edge"><title>Node17&#45;&gt;Node18</title>
<path fill="none" stroke="midnightblue" d="M359.718,-48.1906C360.029,-39.1684 360.38,-28.9941 360.635,-21.5707"/>
<polygon fill="midnightblue" stroke="midnightblue" points="356.214,-48.2472 359.367,-58.3619 363.209,-48.4885 356.214,-48.2472"/>
</g>
<!-- Node19 -->
<g id="node38" class="node"><title>Node19</title>
<a xlink:href="StatusBarNotificationArea_8cpp.htm" target="_top" xlink:title="StatusBarNotificationArea.cpp">
<polygon fill="white" stroke="black" points="419.5,-0.5 419.5,-21.5 576.5,-21.5 576.5,-0.5 419.5,-0.5"/>
<text text-anchor="middle" x="498" y="-8.5" font-family="Helvetica,sans-Serif" font-size="10.00">StatusBarNotificationArea.cpp</text>
</a>
</g>
<!-- Node17&#45;&gt;Node19 -->
<g id="edge38" class="edge"><title>Node17&#45;&gt;Node19</title>
<path fill="none" stroke="midnightblue" d="M393.474,-54.6153C417.982,-44.3889 450.358,-30.8796 472.546,-21.6212"/>
<polygon fill="midnightblue" stroke="midnightblue" points="392.053,-51.4156 384.172,-58.4966 394.748,-57.8758 392.053,-51.4156"/>
</g>
</g>
</svg>
