<?xml version="1.0" encoding="UTF-8" standalone="no"?>
<!DOCTYPE svg PUBLIC "-//W3C//DTD SVG 1.1//EN"
 "http://www.w3.org/Graphics/SVG/1.1/DTD/svg11.dtd">
<!-- Generated by graphviz version 2.26.3 (20100126.1600)
 -->
<!-- Title: SoundPlayerPool.h Pages: 1 -->
<svg width="465pt" height="146pt"
 viewBox="0.00 0.00 465.00 146.00" xmlns="http://www.w3.org/2000/svg" xmlns:xlink="http://www.w3.org/1999/xlink">
<g id="graph1" class="graph" transform="scale(1 1) rotate(0) translate(4 142)">
<title>SoundPlayerPool.h</title>
<polygon fill="white" stroke="white" points="-4,5 -4,-142 462,-142 462,5 -4,5"/>
<!-- Node1 -->
<g id="node1" class="node"><title>Node1</title>
<polygon fill="#bfbfbf" stroke="black" points="182,-116.5 182,-137.5 288,-137.5 288,-116.5 182,-116.5"/>
<text text-anchor="middle" x="235" y="-124.5" font-family="Helvetica,sans-Serif" font-size="10.00">SoundPlayerPool.h</text>
</g>
<!-- Node2 -->
<g id="node3" class="node"><title>Node2</title>
<polygon fill="white" stroke="#bfbfbf" points="-0.5,-0.5 -0.5,-21.5 66.5,-21.5 66.5,-0.5 -0.5,-0.5"/>
<text text-anchor="middle" x="33" y="-8.5" font-family="Helvetica,sans-Serif" font-size="10.00">Common.h</text>
</g>
<!-- Node1&#45;&gt;Node2 -->
<g id="edge2" class="edge"><title>Node1&#45;&gt;Node2</title>
<path fill="none" stroke="midnightblue" d="M181.85,-122.066C147.47,-116.54 103.432,-104.827 72,-80 56.2078,-67.5261 45.731,-46.785 39.6504,-31.2938"/>
<polygon fill="midnightblue" stroke="midnightblue" points="42.8267,-29.7854 36.1318,-21.5739 36.2447,-32.1681 42.8267,-29.7854"/>
</g>
<!-- Node3 -->
<g id="node5" class="node"><title>Node3</title>
<polygon fill="white" stroke="#bfbfbf" points="262.5,-58.5 262.5,-79.5 291.5,-79.5 291.5,-58.5 262.5,-58.5"/>
<text text-anchor="middle" x="277" y="-66.5" font-family="Helvetica,sans-Serif" font-size="10.00">list</text>
</g>
<!-- Node1&#45;&gt;Node3 -->
<g id="edge4" class="edge"><title>Node1&#45;&gt;Node3</title>
<path fill="none" stroke="midnightblue" d="M242.703,-116.362C248.446,-108.431 256.443,-97.3885 263.27,-87.9606"/>
<polygon fill="midnightblue" stroke="midnightblue" points="266.315,-89.7229 269.345,-79.5707 260.645,-85.6173 266.315,-89.7229"/>
</g>
<!-- Node4 -->
<g id="node7" class="node"><title>Node4</title>
<polygon fill="white" stroke="#bfbfbf" points="103.5,-0.5 103.5,-21.5 146.5,-21.5 146.5,-0.5 103.5,-0.5"/>
<text text-anchor="middle" x="125" y="-8.5" font-family="Helvetica,sans-Serif" font-size="10.00">string</text>
</g>
<!-- Node1&#45;&gt;Node4 -->
<g id="edge6" class="edge"><title>Node1&#45;&gt;Node4</title>
<path fill="none" stroke="midnightblue" d="M181.731,-117.805C141.928,-109.722 92.3547,-96.6564 80,-80 67.2598,-62.8238 84.756,-42.1716 101.513,-27.9643"/>
<polygon fill="midnightblue" stroke="midnightblue" points="103.914,-30.5262 109.544,-21.551 99.5454,-25.0563 103.914,-30.5262"/>
</g>
<!-- Node5 -->
<g id="node9" class="node"><title>Node5</title>
<polygon fill="white" stroke="#bfbfbf" points="309,-58.5 309,-79.5 387,-79.5 387,-58.5 309,-58.5"/>
<text text-anchor="middle" x="348" y="-66.5" font-family="Helvetica,sans-Serif" font-size="10.00">lunaservice.h</text>
</g>
<!-- Node1&#45;&gt;Node5 -->
<g id="edge8" class="edge"><title>Node1&#45;&gt;Node5</title>
<path fill="none" stroke="midnightblue" d="M255.463,-116.497C273.033,-107.479 298.582,-94.3649 318.385,-84.2006"/>
<polygon fill="midnightblue" stroke="midnightblue" points="320.009,-87.3014 327.307,-79.6212 316.812,-81.0738 320.009,-87.3014"/>
</g>
<!-- Node6 -->
<g id="node11" class="node"><title>Node6</title>
<polygon fill="white" stroke="#bfbfbf" points="203.5,-0.5 203.5,-21.5 246.5,-21.5 246.5,-0.5 203.5,-0.5"/>
<text text-anchor="middle" x="225" y="-8.5" font-family="Helvetica,sans-Serif" font-size="10.00">sptr.h</text>
</g>
<!-- Node1&#45;&gt;Node6 -->
<g id="edge10" class="edge"><title>Node1&#45;&gt;Node6</title>
<path fill="none" stroke="midnightblue" d="M234.077,-116.295C232.425,-97.1314 228.936,-56.654 226.797,-31.8434"/>
<polygon fill="midnightblue" stroke="midnightblue" points="230.267,-31.3416 225.921,-21.6792 223.293,-31.9429 230.267,-31.3416"/>
</g>
<!-- Node7 -->
<g id="node13" class="node"><title>Node7</title>
<polygon fill="white" stroke="#bfbfbf" points="405,-58.5 405,-79.5 457,-79.5 457,-58.5 405,-58.5"/>
<text text-anchor="middle" x="431" y="-66.5" font-family="Helvetica,sans-Serif" font-size="10.00">Timer.h</text>
</g>
<!-- Node1&#45;&gt;Node7 -->
<g id="edge12" class="edge"><title>Node1&#45;&gt;Node7</title>
<path fill="none" stroke="midnightblue" d="M271.831,-116.48C302.399,-107.698 347.255,-94.6915 394.787,-80.3326"/>
<polygon fill="midnightblue" stroke="midnightblue" points="396.089,-83.5953 404.645,-77.3466 394.059,-76.8959 396.089,-83.5953"/>
</g>
<!-- Node8 -->
<g id="node15" class="node"><title>Node8</title>
<a xlink:href="SoundPlayerDummy_8h.htm" target="_top" xlink:title="SoundPlayerDummy.h">
<polygon fill="white" stroke="black" points="88.5,-58.5 88.5,-79.5 207.5,-79.5 207.5,-58.5 88.5,-58.5"/>
<text text-anchor="middle" x="148" y="-66.5" font-family="Helvetica,sans-Serif" font-size="10.00">SoundPlayerDummy.h</text>
</a>
</g>
<!-- Node1&#45;&gt;Node8 -->
<g id="edge14" class="edge"><title>Node1&#45;&gt;Node8</title>
<path fill="none" stroke="midnightblue" d="M219.043,-116.362C206.043,-107.696 187.469,-95.3126 172.573,-85.3819"/>
<polygon fill="midnightblue" stroke="midnightblue" points="174.118,-82.2055 163.856,-79.5707 170.235,-88.0299 174.118,-82.2055"/>
</g>
<!-- Node8&#45;&gt;Node2 -->
<g id="edge16" class="edge"><title>Node8&#45;&gt;Node2</title>
<path fill="none" stroke="midnightblue" d="M127.174,-58.4966C109.294,-49.4786 83.2926,-36.3649 63.139,-26.2006"/>
<polygon fill="midnightblue" stroke="midnightblue" points="64.5641,-22.9994 54.0593,-21.6212 61.4119,-29.2495 64.5641,-22.9994"/>
</g>
<!-- Node8&#45;&gt;Node4 -->
<g id="edge18" class="edge"><title>Node8&#45;&gt;Node4</title>
<path fill="none" stroke="midnightblue" d="M143.781,-58.3619C140.766,-50.7584 136.617,-40.294 132.985,-31.1349"/>
<polygon fill="midnightblue" stroke="midnightblue" points="136.132,-29.5762 129.192,-21.5707 129.625,-32.1567 136.132,-29.5762"/>
</g>
<!-- Node8&#45;&gt;Node6 -->
<g id="edge20" class="edge"><title>Node8&#45;&gt;Node6</title>
<path fill="none" stroke="midnightblue" d="M162.123,-58.3619C173.52,-49.7773 189.758,-37.5459 202.878,-27.6636"/>
<polygon fill="midnightblue" stroke="midnightblue" points="205.085,-30.3829 210.967,-21.5707 200.873,-24.7916 205.085,-30.3829"/>
</g>
</g>
</svg>
