<?xml version="1.0" encoding="UTF-8" standalone="no"?>
<!DOCTYPE svg PUBLIC "-//W3C//DTD SVG 1.1//EN"
 "http://www.w3.org/Graphics/SVG/1.1/DTD/svg11.dtd">
<!-- Generated by graphviz version 2.26.3 (20100126.1600)
 -->
<!-- Title: StatusBarBattery.cpp Pages: 1 -->
<svg width="1775pt" height="320pt"
 viewBox="0.00 0.00 1774.78 320.00" xmlns="http://www.w3.org/2000/svg" xmlns:xlink="http://www.w3.org/1999/xlink">
<g id="graph1" class="graph" transform="scale(1 1) rotate(0) translate(4 316)">
<title>StatusBarBattery.cpp</title>
<polygon fill="white" stroke="white" points="-4,5 -4,-316 1771.78,-316 1771.78,5 -4,5"/>
<!-- Node1 -->
<g id="node1" class="node"><title>Node1</title>
<polygon fill="#bfbfbf" stroke="black" points="656.776,-290.5 656.776,-311.5 772.776,-311.5 772.776,-290.5 656.776,-290.5"/>
<text text-anchor="middle" x="714.776" y="-298.5" font-family="Helvetica,sans-Serif" font-size="10.00">StatusBarBattery.cpp</text>
</g>
<!-- Node2 -->
<g id="node3" class="node"><title>Node2</title>
<a xlink:href="StatusBarBattery_8h.htm" target="_top" xlink:title="StatusBarBattery.h">
<polygon fill="white" stroke="black" points="64.7765,-232.5 64.7765,-253.5 168.776,-253.5 168.776,-232.5 64.7765,-232.5"/>
<text text-anchor="middle" x="116.776" y="-240.5" font-family="Helvetica,sans-Serif" font-size="10.00">StatusBarBattery.h</text>
</a>
</g>
<!-- Node1&#45;&gt;Node2 -->
<g id="edge2" class="edge"><title>Node1&#45;&gt;Node2</title>
<path fill="none" stroke="midnightblue" d="M656.622,-295.36C543.657,-284.403 295.467,-260.331 179.192,-249.054"/>
<polygon fill="midnightblue" stroke="midnightblue" points="179.323,-245.55 169.032,-248.068 178.647,-252.517 179.323,-245.55"/>
</g>
<!-- Node18 -->
<g id="node39" class="node"><title>Node18</title>
<polygon fill="white" stroke="#bfbfbf" points="536.276,-232.5 536.276,-253.5 599.276,-253.5 599.276,-232.5 536.276,-232.5"/>
<text text-anchor="middle" x="567.776" y="-240.5" font-family="Helvetica,sans-Serif" font-size="10.00">Settings.h</text>
</g>
<!-- Node1&#45;&gt;Node18 -->
<g id="edge42" class="edge"><title>Node1&#45;&gt;Node18</title>
<path fill="none" stroke="midnightblue" d="M688.156,-290.497C664.679,-281.234 630.251,-267.65 604.221,-257.379"/>
<polygon fill="midnightblue" stroke="midnightblue" points="605.282,-254.036 594.696,-253.621 602.713,-260.547 605.282,-254.036"/>
</g>
<!-- Node19 -->
<g id="node41" class="node"><title>Node19</title>
<polygon fill="white" stroke="#bfbfbf" points="616.276,-232.5 616.276,-253.5 687.276,-253.5 687.276,-232.5 616.276,-232.5"/>
<text text-anchor="middle" x="651.776" y="-240.5" font-family="Helvetica,sans-Serif" font-size="10.00">HostBase.h</text>
</g>
<!-- Node1&#45;&gt;Node19 -->
<g id="edge44" class="edge"><title>Node1&#45;&gt;Node19</title>
<path fill="none" stroke="midnightblue" d="M703.221,-290.362C694.163,-282.023 681.367,-270.242 670.803,-260.516"/>
<polygon fill="midnightblue" stroke="midnightblue" points="672.986,-257.769 663.258,-253.571 668.245,-262.919 672.986,-257.769"/>
</g>
<!-- Node20 -->
<g id="node43" class="node"><title>Node20</title>
<a xlink:href="StatusBarServicesConnector_8h.htm" target="_top" xlink:title="StatusBarServicesConnector.h">
<polygon fill="white" stroke="black" points="220.276,-174.5 220.276,-195.5 381.276,-195.5 381.276,-174.5 220.276,-174.5"/>
<text text-anchor="middle" x="300.776" y="-182.5" font-family="Helvetica,sans-Serif" font-size="10.00">StatusBarServicesConnector.h</text>
</a>
</g>
<!-- Node1&#45;&gt;Node20 -->
<g id="edge46" class="edge"><title>Node1&#45;&gt;Node20</title>
<path fill="none" stroke="midnightblue" d="M715.23,-290.479C715.265,-275.085 712.828,-246.664 695.776,-232 673.15,-212.541 500.995,-197.932 391.553,-190.495"/>
<polygon fill="midnightblue" stroke="midnightblue" points="391.705,-186.998 381.493,-189.82 391.236,-193.982 391.705,-186.998"/>
</g>
<!-- Node24 -->
<g id="node52" class="node"><title>Node24</title>
<a xlink:href="SystemUiController_8h.htm" target="_top" xlink:title="SystemUiController.h">
<polygon fill="white" stroke="black" points="694.776,-174.5 694.776,-195.5 810.776,-195.5 810.776,-174.5 694.776,-174.5"/>
<text text-anchor="middle" x="752.776" y="-182.5" font-family="Helvetica,sans-Serif" font-size="10.00">SystemUiController.h</text>
</a>
</g>
<!-- Node1&#45;&gt;Node24 -->
<g id="edge56" class="edge"><title>Node1&#45;&gt;Node24</title>
<path fill="none" stroke="midnightblue" d="M718.283,-290.295C724.589,-271.045 737.94,-230.289 746.058,-205.509"/>
<polygon fill="midnightblue" stroke="midnightblue" points="749.491,-206.272 749.278,-195.679 742.839,-204.093 749.491,-206.272"/>
</g>
<!-- Node43 -->
<g id="node111" class="node"><title>Node43</title>
<a xlink:href="SoundPlayerPool_8h.htm" target="_top" xlink:title="SoundPlayerPool.h">
<polygon fill="white" stroke="black" points="1555.78,-116.5 1555.78,-137.5 1661.78,-137.5 1661.78,-116.5 1555.78,-116.5"/>
<text text-anchor="middle" x="1608.78" y="-124.5" font-family="Helvetica,sans-Serif" font-size="10.00">SoundPlayerPool.h</text>
</a>
</g>
<!-- Node1&#45;&gt;Node43 -->
<g id="edge136" class="edge"><title>Node1&#45;&gt;Node43</title>
<path fill="none" stroke="midnightblue" d="M732.105,-290.409C758.3,-274.924 810.003,-246.39 857.776,-232 1150.52,-143.818 1239.54,-184.984 1545.65,-138.119"/>
<polygon fill="midnightblue" stroke="midnightblue" points="1546.35,-141.552 1555.7,-136.561 1545.28,-134.634 1546.35,-141.552"/>
</g>
<!-- Node47 -->
<g id="node126" class="node"><title>Node47</title>
<polygon fill="white" stroke="#bfbfbf" points="866.276,-232.5 866.276,-253.5 925.276,-253.5 925.276,-232.5 866.276,-232.5"/>
<text text-anchor="middle" x="895.776" y="-240.5" font-family="Helvetica,sans-Serif" font-size="10.00">QPainter</text>
</g>
<!-- Node1&#45;&gt;Node47 -->
<g id="edge158" class="edge"><title>Node1&#45;&gt;Node47</title>
<path fill="none" stroke="midnightblue" d="M747.554,-290.497C778.205,-280.675 824.018,-265.994 856.588,-255.558"/>
<polygon fill="midnightblue" stroke="midnightblue" points="857.784,-258.85 866.239,-252.465 855.648,-252.184 857.784,-258.85"/>
</g>
<!-- Node3 -->
<g id="node5" class="node"><title>Node3</title>
<a xlink:href="StatusBarItem_8h.htm" target="_top" xlink:title="StatusBarItem.h">
<polygon fill="white" stroke="black" points="22.2765,-174.5 22.2765,-195.5 113.276,-195.5 113.276,-174.5 22.2765,-174.5"/>
<text text-anchor="middle" x="67.7765" y="-182.5" font-family="Helvetica,sans-Serif" font-size="10.00">StatusBarItem.h</text>
</a>
</g>
<!-- Node2&#45;&gt;Node3 -->
<g id="edge4" class="edge"><title>Node2&#45;&gt;Node3</title>
<path fill="none" stroke="midnightblue" d="M107.789,-232.362C100.951,-224.268 91.374,-212.932 83.304,-203.38"/>
<polygon fill="midnightblue" stroke="midnightblue" points="85.834,-200.951 76.7068,-195.571 80.4868,-205.468 85.834,-200.951"/>
</g>
<!-- Node11 -->
<g id="node21" class="node"><title>Node11</title>
<polygon fill="white" stroke="#bfbfbf" points="2.77645,-0.5 2.77645,-21.5 100.776,-21.5 100.776,-0.5 2.77645,-0.5"/>
<text text-anchor="middle" x="51.7765" y="-8.5" font-family="Helvetica,sans-Serif" font-size="10.00">QGraphicsObject</text>
</g>
<!-- Node2&#45;&gt;Node11 -->
<g id="edge40" class="edge"><title>Node2&#45;&gt;Node11</title>
<path fill="none" stroke="midnightblue" d="M66.163,-232.416C46.3178,-225.524 25.5217,-214.27 13.7765,-196 -20.0969,-143.31 17.747,-66.2359 39.1343,-30.5131"/>
<polygon fill="midnightblue" stroke="midnightblue" points="42.371,-31.9339 44.6569,-21.5886 36.4185,-28.2504 42.371,-31.9339"/>
</g>
<!-- Node17 -->
<g id="node36" class="node"><title>Node17</title>
<polygon fill="white" stroke="#bfbfbf" points="130.776,-174.5 130.776,-195.5 202.776,-195.5 202.776,-174.5 130.776,-174.5"/>
<text text-anchor="middle" x="166.776" y="-182.5" font-family="Helvetica,sans-Serif" font-size="10.00">cjson/json.h</text>
</g>
<!-- Node2&#45;&gt;Node17 -->
<g id="edge38" class="edge"><title>Node2&#45;&gt;Node17</title>
<path fill="none" stroke="midnightblue" d="M125.947,-232.362C132.925,-224.268 142.697,-212.932 150.932,-203.38"/>
<polygon fill="midnightblue" stroke="midnightblue" points="153.785,-205.43 157.664,-195.571 148.483,-200.859 153.785,-205.43"/>
</g>
<!-- Node4 -->
<g id="node7" class="node"><title>Node4</title>
<a xlink:href="StatusBar_8h.htm" target="_top" xlink:title="StatusBar.h">
<polygon fill="white" stroke="black" points="130.276,-116.5 130.276,-137.5 201.276,-137.5 201.276,-116.5 130.276,-116.5"/>
<text text-anchor="middle" x="165.776" y="-124.5" font-family="Helvetica,sans-Serif" font-size="10.00">StatusBar.h</text>
</a>
</g>
<!-- Node3&#45;&gt;Node4 -->
<g id="edge6" class="edge"><title>Node3&#45;&gt;Node4</title>
<path fill="none" stroke="midnightblue" d="M85.7512,-174.362C100.671,-165.532 122.109,-152.844 139.042,-142.822"/>
<polygon fill="midnightblue" stroke="midnightblue" points="141.093,-145.676 147.916,-137.571 137.527,-139.652 141.093,-145.676"/>
</g>
<!-- Node3&#45;&gt;Node11 -->
<g id="edge36" class="edge"><title>Node3&#45;&gt;Node11</title>
<path fill="none" stroke="midnightblue" d="M66.7997,-174.377C64.2172,-146.293 57.1717,-69.6735 53.7261,-32.2027"/>
<polygon fill="midnightblue" stroke="midnightblue" points="57.1824,-31.5652 52.7813,-21.9277 50.2118,-32.2062 57.1824,-31.5652"/>
</g>
<!-- Node5 -->
<g id="node9" class="node"><title>Node5</title>
<a xlink:href="Window_8h.htm" target="_top" xlink:title="Window.h">
<polygon fill="white" stroke="black" points="284.776,-58.5 284.776,-79.5 346.776,-79.5 346.776,-58.5 284.776,-58.5"/>
<text text-anchor="middle" x="315.776" y="-66.5" font-family="Helvetica,sans-Serif" font-size="10.00">Window.h</text>
</a>
</g>
<!-- Node4&#45;&gt;Node5 -->
<g id="edge8" class="edge"><title>Node4&#45;&gt;Node5</title>
<path fill="none" stroke="midnightblue" d="M192.94,-116.497C217.077,-107.164 252.557,-93.4447 279.188,-83.1475"/>
<polygon fill="midnightblue" stroke="midnightblue" points="280.497,-86.394 288.562,-79.5231 277.972,-79.8651 280.497,-86.394"/>
</g>
<!-- Node4&#45;&gt;Node11 -->
<g id="edge26" class="edge"><title>Node4&#45;&gt;Node11</title>
<path fill="none" stroke="midnightblue" d="M142.323,-116.49C126.068,-108.321 104.742,-95.7403 89.7765,-80 76.3013,-65.8273 66.0234,-45.9583 59.5754,-31.1791"/>
<polygon fill="midnightblue" stroke="midnightblue" points="62.7901,-29.7938 55.7311,-21.8931 56.3224,-32.4714 62.7901,-29.7938"/>
</g>
<!-- Node13 -->
<g id="node25" class="node"><title>Node13</title>
<polygon fill="white" stroke="#bfbfbf" points="98.2765,-58.5 98.2765,-79.5 157.276,-79.5 157.276,-58.5 98.2765,-58.5"/>
<text text-anchor="middle" x="127.776" y="-66.5" font-family="Helvetica,sans-Serif" font-size="10.00">QPointer</text>
</g>
<!-- Node4&#45;&gt;Node13 -->
<g id="edge24" class="edge"><title>Node4&#45;&gt;Node13</title>
<path fill="none" stroke="midnightblue" d="M158.807,-116.362C153.611,-108.431 146.376,-97.3885 140.199,-87.9606"/>
<polygon fill="midnightblue" stroke="midnightblue" points="143.11,-86.0172 134.702,-79.5707 137.255,-89.8534 143.11,-86.0172"/>
</g>
<!-- Node14 -->
<g id="node28" class="node"><title>Node14</title>
<a xlink:href="VariantAnimation_8h.htm" target="_top" xlink:title="VariantAnimation.h">
<polygon fill="white" stroke="black" points="364.276,-58.5 364.276,-79.5 469.276,-79.5 469.276,-58.5 364.276,-58.5"/>
<text text-anchor="middle" x="416.776" y="-66.5" font-family="Helvetica,sans-Serif" font-size="10.00">VariantAnimation.h</text>
</a>
</g>
<!-- Node4&#45;&gt;Node14 -->
<g id="edge28" class="edge"><title>Node4&#45;&gt;Node14</title>
<path fill="none" stroke="midnightblue" d="M201.472,-118.752C243.131,-109.125 312.512,-93.0929 361.229,-81.8356"/>
<polygon fill="midnightblue" stroke="midnightblue" points="362.033,-85.2422 370.988,-79.5805 360.457,-78.4219 362.033,-85.2422"/>
</g>
<!-- Node16 -->
<g id="node33" class="node"><title>Node16</title>
<polygon fill="white" stroke="#bfbfbf" points="174.776,-58.5 174.776,-79.5 266.776,-79.5 266.776,-58.5 174.776,-58.5"/>
<text text-anchor="middle" x="220.776" y="-66.5" font-family="Helvetica,sans-Serif" font-size="10.00">CustomEvents.h</text>
</g>
<!-- Node4&#45;&gt;Node16 -->
<g id="edge34" class="edge"><title>Node4&#45;&gt;Node16</title>
<path fill="none" stroke="midnightblue" d="M175.864,-116.362C183.617,-108.186 194.507,-96.7025 203.622,-87.0907"/>
<polygon fill="midnightblue" stroke="midnightblue" points="206.411,-89.2352 210.753,-79.5707 201.332,-84.4186 206.411,-89.2352"/>
</g>
<!-- Node6 -->
<g id="node11" class="node"><title>Node6</title>
<polygon fill="white" stroke="#bfbfbf" points="1149.28,-0.5 1149.28,-21.5 1216.28,-21.5 1216.28,-0.5 1149.28,-0.5"/>
<text text-anchor="middle" x="1182.78" y="-8.5" font-family="Helvetica,sans-Serif" font-size="10.00">Common.h</text>
</g>
<!-- Node5&#45;&gt;Node6 -->
<g id="edge10" class="edge"><title>Node5&#45;&gt;Node6</title>
<path fill="none" stroke="midnightblue" d="M347.08,-59.7176C350.002,-59.0554 352.934,-58.4663 355.776,-58 433.115,-45.3152 978.4,-20.1536 1138.61,-12.9617"/>
<polygon fill="midnightblue" stroke="midnightblue" points="1139.2,-16.4388 1149.04,-12.4947 1138.89,-9.44585 1139.2,-16.4388"/>
</g>
<!-- Node7 -->
<g id="node13" class="node"><title>Node7</title>
<polygon fill="white" stroke="#bfbfbf" points="269.776,-0.5 269.776,-21.5 361.776,-21.5 361.776,-0.5 269.776,-0.5"/>
<text text-anchor="middle" x="315.776" y="-8.5" font-family="Helvetica,sans-Serif" font-size="10.00">WindowTypes.h</text>
</g>
<!-- Node5&#45;&gt;Node7 -->
<g id="edge12" class="edge"><title>Node5&#45;&gt;Node7</title>
<path fill="none" stroke="midnightblue" d="M315.776,-58.3619C315.776,-50.9219 315.776,-40.7427 315.776,-31.7276"/>
<polygon fill="midnightblue" stroke="midnightblue" points="319.277,-31.5706 315.776,-21.5707 312.277,-31.5707 319.277,-31.5706"/>
</g>
<!-- Node8 -->
<g id="node15" class="node"><title>Node8</title>
<polygon fill="white" stroke="#bfbfbf" points="534.776,-0.5 534.776,-21.5 584.776,-21.5 584.776,-0.5 534.776,-0.5"/>
<text text-anchor="middle" x="559.776" y="-8.5" font-family="Helvetica,sans-Serif" font-size="10.00">stdint.h</text>
</g>
<!-- Node5&#45;&gt;Node8 -->
<g id="edge14" class="edge"><title>Node5&#45;&gt;Node8</title>
<path fill="none" stroke="midnightblue" d="M347.186,-60.2285C350.086,-59.4591 352.983,-58.7055 355.776,-58 414.774,-43.0986 483.858,-27.5854 524.6,-18.6343"/>
<polygon fill="midnightblue" stroke="midnightblue" points="525.551,-22.0091 534.57,-16.4506 524.053,-15.1712 525.551,-22.0091"/>
</g>
<!-- Node9 -->
<g id="node17" class="node"><title>Node9</title>
<polygon fill="white" stroke="#bfbfbf" points="1375.28,-0.5 1375.28,-21.5 1418.28,-21.5 1418.28,-0.5 1375.28,-0.5"/>
<text text-anchor="middle" x="1396.78" y="-8.5" font-family="Helvetica,sans-Serif" font-size="10.00">string</text>
</g>
<!-- Node5&#45;&gt;Node9 -->
<g id="edge16" class="edge"><title>Node5&#45;&gt;Node9</title>
<path fill="none" stroke="midnightblue" d="M347.07,-59.6534C349.994,-59.0047 352.929,-58.4362 355.776,-58 796.52,9.51254 922.698,-104.391 1365.15,-21.5264"/>
<polygon fill="midnightblue" stroke="midnightblue" points="1365.82,-24.9614 1374.99,-19.6599 1364.51,-18.0839 1365.82,-24.9614"/>
</g>
<!-- Node10 -->
<g id="node19" class="node"><title>Node10</title>
<polygon fill="white" stroke="#bfbfbf" points="602.276,-0.5 602.276,-21.5 643.276,-21.5 643.276,-0.5 602.276,-0.5"/>
<text text-anchor="middle" x="622.776" y="-8.5" font-family="Helvetica,sans-Serif" font-size="10.00">glib.h</text>
</g>
<!-- Node5&#45;&gt;Node10 -->
<g id="edge18" class="edge"><title>Node5&#45;&gt;Node10</title>
<path fill="none" stroke="midnightblue" d="M347.133,-59.9998C350.044,-59.2784 352.958,-58.5984 355.776,-58 457.256,-36.4506 488.414,-48.348 592.112,-22.0475"/>
<polygon fill="midnightblue" stroke="midnightblue" points="593.24,-25.3706 602.04,-19.4704 591.481,-18.5951 593.24,-25.3706"/>
</g>
<!-- Node5&#45;&gt;Node11 -->
<g id="edge20" class="edge"><title>Node5&#45;&gt;Node11</title>
<path fill="none" stroke="midnightblue" d="M284.381,-60.1699C281.478,-59.4128 278.576,-58.6781 275.776,-58 220.125,-44.5231 156.151,-31.3263 110.857,-22.3645"/>
<polygon fill="midnightblue" stroke="midnightblue" points="111.4,-18.9043 100.912,-20.4055 110.047,-25.7724 111.4,-18.9043"/>
</g>
<!-- Node12 -->
<g id="node23" class="node"><title>Node12</title>
<polygon fill="white" stroke="#bfbfbf" points="207.276,-0.5 207.276,-21.5 252.276,-21.5 252.276,-0.5 207.276,-0.5"/>
<text text-anchor="middle" x="229.776" y="-8.5" font-family="Helvetica,sans-Serif" font-size="10.00">QSize</text>
</g>
<!-- Node5&#45;&gt;Node12 -->
<g id="edge22" class="edge"><title>Node5&#45;&gt;Node12</title>
<path fill="none" stroke="midnightblue" d="M300.003,-58.3619C287.153,-49.6955 268.792,-37.3126 254.067,-27.3819"/>
<polygon fill="midnightblue" stroke="midnightblue" points="255.698,-24.2604 245.45,-21.5707 251.784,-30.0639 255.698,-24.2604"/>
</g>
<!-- Node14&#45;&gt;Node6 -->
<g id="edge30" class="edge"><title>Node14&#45;&gt;Node6</title>
<path fill="none" stroke="midnightblue" d="M469.4,-62.7542C484.373,-61.0854 500.707,-59.3676 515.776,-58 750.455,-36.7027 1032.34,-19.6292 1139.01,-13.4716"/>
<polygon fill="midnightblue" stroke="midnightblue" points="1139.29,-16.9612 1149.08,-12.893 1138.89,-9.97275 1139.29,-16.9612"/>
</g>
<!-- Node15 -->
<g id="node31" class="node"><title>Node15</title>
<polygon fill="white" stroke="#bfbfbf" points="379.276,-0.5 379.276,-21.5 484.276,-21.5 484.276,-0.5 379.276,-0.5"/>
<text text-anchor="middle" x="431.776" y="-8.5" font-family="Helvetica,sans-Serif" font-size="10.00">QVariantAnimation</text>
</g>
<!-- Node14&#45;&gt;Node15 -->
<g id="edge32" class="edge"><title>Node14&#45;&gt;Node15</title>
<path fill="none" stroke="midnightblue" d="M419.528,-58.3619C421.473,-50.8401 424.142,-40.5187 426.493,-31.4308"/>
<polygon fill="midnightblue" stroke="midnightblue" points="429.927,-32.1285 429.043,-21.5707 423.15,-30.3758 429.927,-32.1285"/>
</g>
<!-- Node20&#45;&gt;Node4 -->
<g id="edge54" class="edge"><title>Node20&#45;&gt;Node4</title>
<path fill="none" stroke="midnightblue" d="M276.329,-174.497C254.959,-165.315 223.708,-151.889 199.879,-141.652"/>
<polygon fill="midnightblue" stroke="midnightblue" points="201.068,-138.353 190.498,-137.621 198.305,-144.784 201.068,-138.353"/>
</g>
<!-- Node21 -->
<g id="node45" class="node"><title>Node21</title>
<polygon fill="white" stroke="#bfbfbf" points="294.276,-116.5 294.276,-137.5 349.276,-137.5 349.276,-116.5 294.276,-116.5"/>
<text text-anchor="middle" x="321.776" y="-124.5" font-family="Helvetica,sans-Serif" font-size="10.00">QObject</text>
</g>
<!-- Node20&#45;&gt;Node21 -->
<g id="edge48" class="edge"><title>Node20&#45;&gt;Node21</title>
<path fill="none" stroke="midnightblue" d="M304.628,-174.362C307.381,-166.758 311.17,-156.294 314.486,-147.135"/>
<polygon fill="midnightblue" stroke="midnightblue" points="317.836,-148.165 317.949,-137.571 311.254,-145.782 317.836,-148.165"/>
</g>
<!-- Node22 -->
<g id="node47" class="node"><title>Node22</title>
<polygon fill="white" stroke="#bfbfbf" points="572.776,-58.5 572.776,-79.5 650.776,-79.5 650.776,-58.5 572.776,-58.5"/>
<text text-anchor="middle" x="611.776" y="-66.5" font-family="Helvetica,sans-Serif" font-size="10.00">lunaservice.h</text>
</g>
<!-- Node20&#45;&gt;Node22 -->
<g id="edge50" class="edge"><title>Node20&#45;&gt;Node22</title>
<path fill="none" stroke="midnightblue" d="M293.436,-174.252C284.25,-159.347 271.372,-132.391 285.776,-116 325.052,-71.3107 486.955,-89.1534 562.484,-79.8211"/>
<polygon fill="midnightblue" stroke="midnightblue" points="563.175,-83.2567 572.547,-78.3146 562.139,-76.3339 563.175,-83.2567"/>
</g>
<!-- Node23 -->
<g id="node49" class="node"><title>Node23</title>
<polygon fill="white" stroke="#bfbfbf" points="524.276,-58.5 524.276,-79.5 555.276,-79.5 555.276,-58.5 524.276,-58.5"/>
<text text-anchor="middle" x="539.776" y="-66.5" font-family="Helvetica,sans-Serif" font-size="10.00">set</text>
</g>
<!-- Node20&#45;&gt;Node23 -->
<g id="edge52" class="edge"><title>Node20&#45;&gt;Node23</title>
<path fill="none" stroke="midnightblue" d="M284.425,-174.484C264.721,-160.54 236.207,-135.432 252.776,-116 285.632,-77.4702 427.846,-88.4231 477.776,-80 489.785,-77.9742 503.082,-75.6286 514.273,-73.625"/>
<polygon fill="midnightblue" stroke="midnightblue" points="515.024,-77.0462 524.246,-71.8305 513.785,-70.1568 515.024,-77.0462"/>
</g>
<!-- Node24&#45;&gt;Node4 -->
<g id="edge134" class="edge"><title>Node24&#45;&gt;Node4</title>
<path fill="none" stroke="midnightblue" d="M694.617,-179.253C577.879,-167.719 317.183,-141.96 211.546,-131.522"/>
<polygon fill="midnightblue" stroke="midnightblue" points="211.815,-128.032 201.519,-130.532 211.127,-134.998 211.815,-128.032"/>
</g>
<!-- Node24&#45;&gt;Node5 -->
<g id="edge130" class="edge"><title>Node24&#45;&gt;Node5</title>
<path fill="none" stroke="midnightblue" d="M694.741,-179.131C616.264,-170.736 480.718,-154.484 433.776,-138 414.885,-131.366 369.632,-103.5 340.976,-85.2734"/>
<polygon fill="midnightblue" stroke="midnightblue" points="342.62,-82.1707 332.31,-79.7336 338.85,-88.0686 342.62,-82.1707"/>
</g>
<!-- Node24&#45;&gt;Node6 -->
<g id="edge58" class="edge"><title>Node24&#45;&gt;Node6</title>
<path fill="none" stroke="midnightblue" d="M810.9,-175.862C815.591,-175.203 820.261,-174.574 824.776,-174 864.107,-169.005 1152.69,-166.952 1179.78,-138 1206.51,-109.421 1197.63,-59.4438 1189.65,-31.463"/>
<polygon fill="midnightblue" stroke="midnightblue" points="1192.9,-30.1125 1186.61,-21.5846 1186.21,-32.1717 1192.9,-30.1125"/>
</g>
<!-- Node24&#45;&gt;Node9 -->
<g id="edge60" class="edge"><title>Node24&#45;&gt;Node9</title>
<path fill="none" stroke="midnightblue" d="M810.897,-175.835C815.588,-175.183 820.259,-174.561 824.776,-174 990.931,-153.349 1035.37,-169.676 1199.78,-138 1289.82,-120.652 1342.8,-153.39 1397.78,-80 1408.06,-66.2659 1406.53,-46.3001 1403.18,-31.3753"/>
<polygon fill="midnightblue" stroke="midnightblue" points="1406.52,-30.3206 1400.56,-21.56 1399.75,-32.1241 1406.52,-30.3206"/>
</g>
<!-- Node24&#45;&gt;Node14 -->
<g id="edge128" class="edge"><title>Node24&#45;&gt;Node14</title>
<path fill="none" stroke="midnightblue" d="M806.628,-174.45C850.545,-163.54 901.441,-144.123 875.776,-116 846.218,-83.6104 526.266,-85.6082 482.776,-80 481.682,-79.8589 480.578,-79.713 479.466,-79.5631"/>
<polygon fill="midnightblue" stroke="midnightblue" points="479.715,-76.0633 469.321,-78.1166 478.727,-82.9932 479.715,-76.0633"/>
</g>
<!-- Node24&#45;&gt;Node16 -->
<g id="edge132" class="edge"><title>Node24&#45;&gt;Node16</title>
<path fill="none" stroke="midnightblue" d="M694.503,-180.678C606.727,-173.623 445.077,-158.349 390.776,-138 374.27,-131.814 373.577,-123.814 357.776,-116 329.695,-102.114 296.499,-90.6118 269.818,-82.4624"/>
<polygon fill="midnightblue" stroke="midnightblue" points="270.519,-79.0188 259.935,-79.5052 268.512,-85.7251 270.519,-79.0188"/>
</g>
<!-- Node24&#45;&gt;Node21 -->
<g id="edge68" class="edge"><title>Node24&#45;&gt;Node21</title>
<path fill="none" stroke="midnightblue" d="M694.559,-180.585C617.981,-174.186 479.45,-160.563 362.776,-138 361.691,-137.79 360.592,-137.567 359.485,-137.333"/>
<polygon fill="midnightblue" stroke="midnightblue" points="359.974,-133.853 349.441,-134.994 358.387,-140.671 359.974,-133.853"/>
</g>
<!-- Node25 -->
<g id="node56" class="node"><title>Node25</title>
<polygon fill="white" stroke="#bfbfbf" points="726.776,-116.5 726.776,-137.5 778.776,-137.5 778.776,-116.5 726.776,-116.5"/>
<text text-anchor="middle" x="752.776" y="-124.5" font-family="Helvetica,sans-Serif" font-size="10.00">QEvent</text>
</g>
<!-- Node24&#45;&gt;Node25 -->
<g id="edge62" class="edge"><title>Node24&#45;&gt;Node25</title>
<path fill="none" stroke="midnightblue" d="M752.776,-174.362C752.776,-166.922 752.776,-156.743 752.776,-147.728"/>
<polygon fill="midnightblue" stroke="midnightblue" points="756.277,-147.571 752.776,-137.571 749.277,-147.571 756.277,-147.571"/>
</g>
<!-- Node26 -->
<g id="node58" class="node"><title>Node26</title>
<polygon fill="white" stroke="#bfbfbf" points="796.776,-116.5 796.776,-137.5 866.776,-137.5 866.776,-116.5 796.776,-116.5"/>
<text text-anchor="middle" x="831.776" y="-124.5" font-family="Helvetica,sans-Serif" font-size="10.00">QKeyEvent</text>
</g>
<!-- Node24&#45;&gt;Node26 -->
<g id="edge64" class="edge"><title>Node24&#45;&gt;Node26</title>
<path fill="none" stroke="midnightblue" d="M767.266,-174.362C778.959,-165.777 795.619,-153.546 809.08,-143.664"/>
<polygon fill="midnightblue" stroke="midnightblue" points="811.389,-146.31 817.378,-137.571 807.246,-140.667 811.389,-146.31"/>
</g>
<!-- Node27 -->
<g id="node60" class="node"><title>Node27</title>
<polygon fill="white" stroke="#bfbfbf" points="1391.28,-116.5 1391.28,-137.5 1474.28,-137.5 1474.28,-116.5 1391.28,-116.5"/>
<text text-anchor="middle" x="1432.78" y="-124.5" font-family="Helvetica,sans-Serif" font-size="10.00">QMouseEvent</text>
</g>
<!-- Node24&#45;&gt;Node27 -->
<g id="edge66" class="edge"><title>Node24&#45;&gt;Node27</title>
<path fill="none" stroke="midnightblue" d="M810.879,-175.682C815.574,-175.063 820.251,-174.492 824.776,-174 1069.63,-147.376 1133.6,-170.222 1377.78,-138 1378.86,-137.857 1379.96,-137.705 1381.06,-137.545"/>
<polygon fill="midnightblue" stroke="midnightblue" points="1381.81,-140.97 1391.13,-135.931 1380.7,-134.058 1381.81,-140.97"/>
</g>
<!-- Node28 -->
<g id="node63" class="node"><title>Node28</title>
<polygon fill="white" stroke="#bfbfbf" points="1491.28,-116.5 1491.28,-137.5 1538.28,-137.5 1538.28,-116.5 1491.28,-116.5"/>
<text text-anchor="middle" x="1514.78" y="-124.5" font-family="Helvetica,sans-Serif" font-size="10.00">QRect</text>
</g>
<!-- Node24&#45;&gt;Node28 -->
<g id="edge70" class="edge"><title>Node24&#45;&gt;Node28</title>
<path fill="none" stroke="midnightblue" d="M810.873,-175.63C815.57,-175.023 820.248,-174.469 824.776,-174 1112.83,-144.187 1193.52,-193.021 1481.32,-137.835"/>
<polygon fill="midnightblue" stroke="midnightblue" points="1482.06,-141.257 1491.21,-135.914 1480.73,-134.386 1482.06,-141.257"/>
</g>
<!-- Node29 -->
<g id="node65" class="node"><title>Node29</title>
<polygon fill="white" stroke="#bfbfbf" points="442.276,-116.5 442.276,-137.5 535.276,-137.5 535.276,-116.5 442.276,-116.5"/>
<text text-anchor="middle" x="488.776" y="-124.5" font-family="Helvetica,sans-Serif" font-size="10.00">QSharedPointer</text>
</g>
<!-- Node24&#45;&gt;Node29 -->
<g id="edge72" class="edge"><title>Node24&#45;&gt;Node29</title>
<path fill="none" stroke="midnightblue" d="M704.968,-174.497C660.022,-164.622 592.726,-149.837 545.175,-139.391"/>
<polygon fill="midnightblue" stroke="midnightblue" points="545.861,-135.958 535.343,-137.231 544.359,-142.795 545.861,-135.958"/>
</g>
<!-- Node30 -->
<g id="node67" class="node"><title>Node30</title>
<polygon fill="white" stroke="#bfbfbf" points="552.776,-116.5 552.776,-137.5 638.776,-137.5 638.776,-116.5 552.776,-116.5"/>
<text text-anchor="middle" x="595.776" y="-124.5" font-family="Helvetica,sans-Serif" font-size="10.00">QWeakPointer</text>
</g>
<!-- Node24&#45;&gt;Node30 -->
<g id="edge74" class="edge"><title>Node24&#45;&gt;Node30</title>
<path fill="none" stroke="midnightblue" d="M724.345,-174.497C698.971,-165.123 661.62,-151.324 633.706,-141.012"/>
<polygon fill="midnightblue" stroke="midnightblue" points="634.855,-137.705 624.261,-137.523 632.429,-144.272 634.855,-137.705"/>
</g>
<!-- Node31 -->
<g id="node69" class="node"><title>Node31</title>
<a xlink:href="ApplicationDescription_8h.htm" target="_top" xlink:title="ApplicationDescription.h">
<polygon fill="white" stroke="black" points="1040.78,-116.5 1040.78,-137.5 1170.78,-137.5 1170.78,-116.5 1040.78,-116.5"/>
<text text-anchor="middle" x="1105.78" y="-124.5" font-family="Helvetica,sans-Serif" font-size="10.00">ApplicationDescription.h</text>
</a>
</g>
<!-- Node24&#45;&gt;Node31 -->
<g id="edge76" class="edge"><title>Node24&#45;&gt;Node31</title>
<path fill="none" stroke="midnightblue" d="M811.067,-175.422C871.509,-165.491 966.18,-149.936 1031.84,-139.147"/>
<polygon fill="midnightblue" stroke="midnightblue" points="1032.42,-142.6 1041.72,-137.525 1031.28,-135.693 1032.42,-142.6"/>
</g>
<!-- Node41 -->
<g id="node100" class="node"><title>Node41</title>
<polygon fill="white" stroke="#bfbfbf" points="656.776,-116.5 656.776,-137.5 708.776,-137.5 708.776,-116.5 656.776,-116.5"/>
<text text-anchor="middle" x="682.776" y="-124.5" font-family="Helvetica,sans-Serif" font-size="10.00">Event.h</text>
</g>
<!-- Node24&#45;&gt;Node41 -->
<g id="edge118" class="edge"><title>Node24&#45;&gt;Node41</title>
<path fill="none" stroke="midnightblue" d="M739.937,-174.362C729.774,-165.941 715.375,-154.011 703.572,-144.231"/>
<polygon fill="midnightblue" stroke="midnightblue" points="705.467,-141.256 695.534,-137.571 701.001,-146.646 705.467,-141.256"/>
</g>
<!-- Node42 -->
<g id="node102" class="node"><title>Node42</title>
<a xlink:href="SuspendBlocker_8h.htm" target="_top" xlink:title="SuspendBlocker.h">
<polygon fill="white" stroke="black" points="922.276,-116.5 922.276,-137.5 1023.28,-137.5 1023.28,-116.5 922.276,-116.5"/>
<text text-anchor="middle" x="972.776" y="-124.5" font-family="Helvetica,sans-Serif" font-size="10.00">SuspendBlocker.h</text>
</a>
</g>
<!-- Node24&#45;&gt;Node42 -->
<g id="edge120" class="edge"><title>Node24&#45;&gt;Node42</title>
<path fill="none" stroke="midnightblue" d="M792.617,-174.497C829.259,-164.836 883.728,-150.477 923.176,-140.077"/>
<polygon fill="midnightblue" stroke="midnightblue" points="924.084,-143.457 932.861,-137.523 922.3,-136.688 924.084,-143.457"/>
</g>
<!-- Node31&#45;&gt;Node6 -->
<g id="edge78" class="edge"><title>Node31&#45;&gt;Node6</title>
<path fill="none" stroke="midnightblue" d="M1124.32,-116.326C1137.19,-107.998 1153.77,-95.2934 1163.78,-80 1173.32,-65.4165 1178.11,-46.1024 1180.49,-31.6182"/>
<polygon fill="midnightblue" stroke="midnightblue" points="1183.96,-32.0292 1181.88,-21.6418 1177.03,-31.063 1183.96,-32.0292"/>
</g>
<!-- Node31&#45;&gt;Node8 -->
<g id="edge82" class="edge"><title>Node31&#45;&gt;Node8</title>
<path fill="none" stroke="midnightblue" d="M1040.43,-117.14C1037.5,-116.745 1034.61,-116.363 1031.78,-116 883.684,-97.0198 839.684,-126.411 697.776,-80 679.228,-73.9338 677.067,-67.0476 659.776,-58 637.866,-46.5355 612.666,-34.6997 593.045,-25.7734"/>
<polygon fill="midnightblue" stroke="midnightblue" points="594.453,-22.5692 583.899,-21.6395 591.57,-28.9478 594.453,-22.5692"/>
</g>
<!-- Node31&#45;&gt;Node9 -->
<g id="edge80" class="edge"><title>Node31&#45;&gt;Node9</title>
<path fill="none" stroke="midnightblue" d="M1170.8,-123.655C1241.42,-118.692 1348.14,-106.881 1377.78,-80 1391.11,-67.9102 1395.44,-47.4125 1396.68,-31.8914"/>
<polygon fill="midnightblue" stroke="midnightblue" points="1400.19,-31.8038 1397.13,-21.6607 1393.19,-31.4985 1400.19,-31.8038"/>
</g>
<!-- Node31&#45;&gt;Node23 -->
<g id="edge84" class="edge"><title>Node31&#45;&gt;Node23</title>
<path fill="none" stroke="midnightblue" d="M1040.44,-117.031C1037.51,-116.666 1034.62,-116.32 1031.78,-116 827.712,-93.0136 767.608,-131.049 565.241,-79.6652"/>
<polygon fill="midnightblue" stroke="midnightblue" points="566.053,-76.2602 555.495,-77.1502 564.304,-83.0381 566.053,-76.2602"/>
</g>
<!-- Node32 -->
<g id="node75" class="node"><title>Node32</title>
<polygon fill="white" stroke="#bfbfbf" points="1632.28,-0.5 1632.28,-21.5 1661.28,-21.5 1661.28,-0.5 1632.28,-0.5"/>
<text text-anchor="middle" x="1646.78" y="-8.5" font-family="Helvetica,sans-Serif" font-size="10.00">list</text>
</g>
<!-- Node31&#45;&gt;Node32 -->
<g id="edge86" class="edge"><title>Node31&#45;&gt;Node32</title>
<path fill="none" stroke="midnightblue" d="M1170.83,-123.447C1294.31,-116.3 1553.62,-99.2184 1589.78,-80 1610.65,-68.9043 1626.85,-46.6267 1636.55,-30.3769"/>
<polygon fill="midnightblue" stroke="midnightblue" points="1639.62,-32.0622 1641.5,-21.6359 1633.53,-28.6124 1639.62,-32.0622"/>
</g>
<!-- Node33 -->
<g id="node77" class="node"><title>Node33</title>
<a xlink:href="LaunchPoint_8h.htm" target="_top" xlink:title="LaunchPoint.h">
<polygon fill="white" stroke="black" points="1286.28,-58.5 1286.28,-79.5 1369.28,-79.5 1369.28,-58.5 1286.28,-58.5"/>
<text text-anchor="middle" x="1327.78" y="-66.5" font-family="Helvetica,sans-Serif" font-size="10.00">LaunchPoint.h</text>
</a>
</g>
<!-- Node31&#45;&gt;Node33 -->
<g id="edge88" class="edge"><title>Node31&#45;&gt;Node33</title>
<path fill="none" stroke="midnightblue" d="M1145.98,-116.497C1182.95,-106.836 1237.92,-92.4765 1277.72,-82.0765"/>
<polygon fill="midnightblue" stroke="midnightblue" points="1278.71,-85.4372 1287.5,-79.5231 1276.94,-78.6646 1278.71,-85.4372"/>
</g>
<!-- Node35 -->
<g id="node85" class="node"><title>Node35</title>
<polygon fill="white" stroke="#bfbfbf" points="896.276,-58.5 896.276,-79.5 983.276,-79.5 983.276,-58.5 896.276,-58.5"/>
<text text-anchor="middle" x="939.776" y="-66.5" font-family="Helvetica,sans-Serif" font-size="10.00">KeywordMap.h</text>
</g>
<!-- Node31&#45;&gt;Node35 -->
<g id="edge100" class="edge"><title>Node31&#45;&gt;Node35</title>
<path fill="none" stroke="midnightblue" d="M1075.72,-116.497C1048.77,-107.082 1009.05,-93.2036 979.494,-82.8773"/>
<polygon fill="midnightblue" stroke="midnightblue" points="980.489,-79.5174 969.894,-79.5231 978.18,-86.1257 980.489,-79.5174"/>
</g>
<!-- Node36 -->
<g id="node87" class="node"><title>Node36</title>
<a xlink:href="CmdResourceHandlers_8h.htm" target="_top" xlink:title="CmdResourceHandlers.h">
<polygon fill="white" stroke="black" points="706.776,-58.5 706.776,-79.5 840.776,-79.5 840.776,-58.5 706.776,-58.5"/>
<text text-anchor="middle" x="773.776" y="-66.5" font-family="Helvetica,sans-Serif" font-size="10.00">CmdResourceHandlers.h</text>
</a>
</g>
<!-- Node31&#45;&gt;Node36 -->
<g id="edge102" class="edge"><title>Node31&#45;&gt;Node36</title>
<path fill="none" stroke="midnightblue" d="M1045.65,-116.497C988.951,-106.591 903.962,-91.7433 844.133,-81.2911"/>
<polygon fill="midnightblue" stroke="midnightblue" points="844.465,-77.7963 834.012,-79.5231 843.26,-84.6918 844.465,-77.7963"/>
</g>
<!-- Node40 -->
<g id="node98" class="node"><title>Node40</title>
<polygon fill="white" stroke="#bfbfbf" points="1000.78,-58.5 1000.78,-79.5 1154.78,-79.5 1154.78,-58.5 1000.78,-58.5"/>
<text text-anchor="middle" x="1077.78" y="-66.5" font-family="Helvetica,sans-Serif" font-size="10.00">ApplicationDescriptionBase.h</text>
</g>
<!-- Node31&#45;&gt;Node40 -->
<g id="edge116" class="edge"><title>Node31&#45;&gt;Node40</title>
<path fill="none" stroke="midnightblue" d="M1100.64,-116.362C1096.93,-108.677 1091.81,-98.0686 1087.35,-88.8399"/>
<polygon fill="midnightblue" stroke="midnightblue" points="1090.38,-87.0545 1082.88,-79.5707 1084.08,-90.0978 1090.38,-87.0545"/>
</g>
<!-- Node33&#45;&gt;Node6 -->
<g id="edge90" class="edge"><title>Node33&#45;&gt;Node6</title>
<path fill="none" stroke="midnightblue" d="M1301.52,-58.4966C1278.36,-49.2337 1244.4,-35.6499 1218.72,-25.3793"/>
<polygon fill="midnightblue" stroke="midnightblue" points="1219.91,-22.0855 1209.33,-21.6212 1217.31,-28.5849 1219.91,-22.0855"/>
</g>
<!-- Node33&#45;&gt;Node9 -->
<g id="edge92" class="edge"><title>Node33&#45;&gt;Node9</title>
<path fill="none" stroke="midnightblue" d="M1340.43,-58.3619C1350.45,-49.9408 1364.64,-38.0105 1376.28,-28.2308"/>
<polygon fill="midnightblue" stroke="midnightblue" points="1378.8,-30.6844 1384.2,-21.5707 1374.29,-25.326 1378.8,-30.6844"/>
</g>
<!-- Node33&#45;&gt;Node10 -->
<g id="edge98" class="edge"><title>Node33&#45;&gt;Node10</title>
<path fill="none" stroke="midnightblue" d="M1285.87,-66.1879C1152.64,-57.2138 744.128,-29.4143 684.776,-22 674.471,-20.7126 663.276,-18.8659 653.271,-17.0523"/>
<polygon fill="midnightblue" stroke="midnightblue" points="653.836,-13.5973 643.363,-15.1991 652.549,-20.4779 653.836,-13.5973"/>
</g>
<!-- Node33&#45;&gt;Node32 -->
<g id="edge94" class="edge"><title>Node33&#45;&gt;Node32</title>
<path fill="none" stroke="midnightblue" d="M1369.48,-61.4175C1436.79,-49.1798 1567.33,-25.4452 1621.88,-15.5272"/>
<polygon fill="midnightblue" stroke="midnightblue" points="1622.81,-18.9148 1632.02,-13.6823 1621.56,-12.0277 1622.81,-18.9148"/>
</g>
<!-- Node34 -->
<g id="node82" class="node"><title>Node34</title>
<polygon fill="white" stroke="#bfbfbf" points="1298.28,-0.5 1298.28,-21.5 1357.28,-21.5 1357.28,-0.5 1298.28,-0.5"/>
<text text-anchor="middle" x="1327.78" y="-8.5" font-family="Helvetica,sans-Serif" font-size="10.00">QPixmap</text>
</g>
<!-- Node33&#45;&gt;Node34 -->
<g id="edge96" class="edge"><title>Node33&#45;&gt;Node34</title>
<path fill="none" stroke="midnightblue" d="M1327.78,-58.3619C1327.78,-50.9219 1327.78,-40.7427 1327.78,-31.7276"/>
<polygon fill="midnightblue" stroke="midnightblue" points="1331.28,-31.5706 1327.78,-21.5707 1324.28,-31.5707 1331.28,-31.5706"/>
</g>
<!-- Node36&#45;&gt;Node6 -->
<g id="edge104" class="edge"><title>Node36&#45;&gt;Node6</title>
<path fill="none" stroke="midnightblue" d="M840.856,-59.4874C925.205,-47.526 1067.61,-27.3321 1139.09,-17.1958"/>
<polygon fill="midnightblue" stroke="midnightblue" points="1139.69,-20.6449 1149.1,-15.7754 1138.71,-13.7142 1139.69,-20.6449"/>
</g>
<!-- Node36&#45;&gt;Node8 -->
<g id="edge108" class="edge"><title>Node36&#45;&gt;Node8</title>
<path fill="none" stroke="midnightblue" d="M730.67,-58.4847C696.229,-49.9169 646.526,-37.1831 594.68,-22.1623"/>
<polygon fill="midnightblue" stroke="midnightblue" points="595.558,-18.7725 584.978,-19.3315 593.597,-25.4923 595.558,-18.7725"/>
</g>
<!-- Node36&#45;&gt;Node9 -->
<g id="edge110" class="edge"><title>Node36&#45;&gt;Node9</title>
<path fill="none" stroke="midnightblue" d="M840.968,-62.2797C856.344,-60.8077 872.621,-59.3017 887.776,-58 1096.72,-40.0528 1155.5,-65.2013 1364.88,-21.6734"/>
<polygon fill="midnightblue" stroke="midnightblue" points="1365.9,-25.0349 1374.97,-19.5483 1364.46,-18.1853 1365.9,-25.0349"/>
</g>
<!-- Node37 -->
<g id="node90" class="node"><title>Node37</title>
<polygon fill="white" stroke="#bfbfbf" points="747.776,-0.5 747.776,-21.5 799.776,-21.5 799.776,-0.5 747.776,-0.5"/>
<text text-anchor="middle" x="773.776" y="-8.5" font-family="Helvetica,sans-Serif" font-size="10.00">regex.h</text>
</g>
<!-- Node36&#45;&gt;Node37 -->
<g id="edge106" class="edge"><title>Node36&#45;&gt;Node37</title>
<path fill="none" stroke="midnightblue" d="M773.776,-58.3619C773.776,-50.9219 773.776,-40.7427 773.776,-31.7276"/>
<polygon fill="midnightblue" stroke="midnightblue" points="777.277,-31.5706 773.776,-21.5707 770.277,-31.5707 777.277,-31.5706"/>
</g>
<!-- Node38 -->
<g id="node94" class="node"><title>Node38</title>
<polygon fill="white" stroke="#bfbfbf" points="817.776,-0.5 817.776,-21.5 863.776,-21.5 863.776,-0.5 817.776,-0.5"/>
<text text-anchor="middle" x="840.776" y="-8.5" font-family="Helvetica,sans-Serif" font-size="10.00">vector</text>
</g>
<!-- Node36&#45;&gt;Node38 -->
<g id="edge112" class="edge"><title>Node36&#45;&gt;Node38</title>
<path fill="none" stroke="midnightblue" d="M786.065,-58.3619C795.793,-49.9408 809.575,-38.0105 820.872,-28.2308"/>
<polygon fill="midnightblue" stroke="midnightblue" points="823.296,-30.7619 828.566,-21.5707 818.714,-25.4695 823.296,-30.7619"/>
</g>
<!-- Node39 -->
<g id="node96" class="node"><title>Node39</title>
<polygon fill="white" stroke="#bfbfbf" points="693.276,-0.5 693.276,-21.5 730.276,-21.5 730.276,-0.5 693.276,-0.5"/>
<text text-anchor="middle" x="711.776" y="-8.5" font-family="Helvetica,sans-Serif" font-size="10.00">map</text>
</g>
<!-- Node36&#45;&gt;Node39 -->
<g id="edge114" class="edge"><title>Node36&#45;&gt;Node39</title>
<path fill="none" stroke="midnightblue" d="M762.405,-58.3619C753.49,-50.0226 740.897,-38.2418 730.501,-28.5162"/>
<polygon fill="midnightblue" stroke="midnightblue" points="732.77,-25.8463 723.076,-21.5707 727.988,-30.9582 732.77,-25.8463"/>
</g>
<!-- Node42&#45;&gt;Node6 -->
<g id="edge122" class="edge"><title>Node42&#45;&gt;Node6</title>
<path fill="none" stroke="midnightblue" d="M941.341,-116.423C909.369,-104.02 867.235,-82.0738 887.776,-58 903.885,-39.1221 1060.82,-22.1992 1138.99,-14.8612"/>
<polygon fill="midnightblue" stroke="midnightblue" points="1139.39,-18.3393 1149.02,-13.9314 1138.74,-11.3692 1139.39,-18.3393"/>
</g>
<!-- Node42&#45;&gt;Node10 -->
<g id="edge124" class="edge"><title>Node42&#45;&gt;Node10</title>
<path fill="none" stroke="midnightblue" d="M922.032,-119.7C912.329,-118.396 902.246,-117.103 892.776,-116 850.979,-111.133 544.082,-111.137 515.776,-80 509.199,-72.7649 510.431,-66.187 515.776,-58 518.066,-54.4934 561.921,-35.9553 592.767,-23.2363"/>
<polygon fill="midnightblue" stroke="midnightblue" points="594.336,-26.3756 602.256,-19.3377 591.676,-19.9008 594.336,-26.3756"/>
</g>
<!-- Node42&#45;&gt;Node22 -->
<g id="edge126" class="edge"><title>Node42&#45;&gt;Node22</title>
<path fill="none" stroke="midnightblue" d="M922.139,-118.183C917.623,-117.431 913.118,-116.693 908.776,-116 800.529,-98.7146 772.71,-99.1462 664.776,-80 663.501,-79.7738 662.21,-79.5401 660.907,-79.3003"/>
<polygon fill="midnightblue" stroke="midnightblue" points="661.281,-75.8083 650.801,-77.3677 659.966,-82.6837 661.281,-75.8083"/>
</g>
<!-- Node43&#45;&gt;Node6 -->
<g id="edge138" class="edge"><title>Node43&#45;&gt;Node6</title>
<path fill="none" stroke="midnightblue" d="M1555.7,-117.43C1552.68,-116.934 1549.69,-116.454 1546.78,-116 1427.59,-97.4601 1389.77,-124.809 1277.78,-80 1247.91,-68.0486 1218.76,-44.6073 1200.8,-28.3862"/>
<polygon fill="midnightblue" stroke="midnightblue" points="1203.08,-25.734 1193.37,-21.5085 1198.33,-30.8705 1203.08,-25.734"/>
</g>
<!-- Node43&#45;&gt;Node9 -->
<g id="edge142" class="edge"><title>Node43&#45;&gt;Node9</title>
<path fill="none" stroke="midnightblue" d="M1608.99,-116.485C1608.7,-101.361 1605.83,-73.5769 1589.78,-58 1567.01,-35.9026 1477.27,-21.29 1428.59,-14.8183"/>
<polygon fill="midnightblue" stroke="midnightblue" points="1428.94,-11.3353 1418.58,-13.5255 1428.05,-18.2777 1428.94,-11.3353"/>
</g>
<!-- Node43&#45;&gt;Node22 -->
<g id="edge144" class="edge"><title>Node43&#45;&gt;Node22</title>
<path fill="none" stroke="midnightblue" d="M1555.74,-117.112C1552.72,-116.697 1549.71,-116.321 1546.78,-116 1171.34,-74.9209 1074.09,-111.987 697.776,-80 685.944,-78.9943 673.238,-77.5638 661.319,-76.0658"/>
<polygon fill="midnightblue" stroke="midnightblue" points="661.456,-72.5545 651.09,-74.741 660.557,-79.4965 661.456,-72.5545"/>
</g>
<!-- Node43&#45;&gt;Node32 -->
<g id="edge140" class="edge"><title>Node43&#45;&gt;Node32</title>
<path fill="none" stroke="midnightblue" d="M1652.54,-116.497C1685.22,-107.665 1725.87,-94.2297 1735.78,-80 1755.84,-51.1877 1703.97,-28.8467 1671.2,-18.0745"/>
<polygon fill="midnightblue" stroke="midnightblue" points="1671.94,-14.6384 1661.35,-14.99 1669.85,-21.3185 1671.94,-14.6384"/>
</g>
<!-- Node44 -->
<g id="node117" class="node"><title>Node44</title>
<polygon fill="white" stroke="#bfbfbf" points="1724.28,-0.5 1724.28,-21.5 1767.28,-21.5 1767.28,-0.5 1724.28,-0.5"/>
<text text-anchor="middle" x="1745.78" y="-8.5" font-family="Helvetica,sans-Serif" font-size="10.00">sptr.h</text>
</g>
<!-- Node43&#45;&gt;Node44 -->
<g id="edge146" class="edge"><title>Node43&#45;&gt;Node44</title>
<path fill="none" stroke="midnightblue" d="M1661.36,-116.459C1697.48,-108.027 1740.82,-95.1351 1751.78,-80 1761.76,-66.2059 1758.86,-46.5564 1754.28,-31.7519"/>
<polygon fill="midnightblue" stroke="midnightblue" points="1757.45,-30.23 1750.8,-21.9813 1750.86,-32.576 1757.45,-30.23"/>
</g>
<!-- Node45 -->
<g id="node119" class="node"><title>Node45</title>
<polygon fill="white" stroke="#bfbfbf" points="1674.78,-58.5 1674.78,-79.5 1726.78,-79.5 1726.78,-58.5 1674.78,-58.5"/>
<text text-anchor="middle" x="1700.78" y="-66.5" font-family="Helvetica,sans-Serif" font-size="10.00">Timer.h</text>
</g>
<!-- Node43&#45;&gt;Node45 -->
<g id="edge148" class="edge"><title>Node43&#45;&gt;Node45</title>
<path fill="none" stroke="midnightblue" d="M1625.65,-116.362C1639.53,-107.614 1659.41,-95.0786 1675.24,-85.1015"/>
<polygon fill="midnightblue" stroke="midnightblue" points="1677.42,-87.8645 1684.01,-79.5707 1673.68,-81.943 1677.42,-87.8645"/>
</g>
<!-- Node46 -->
<g id="node121" class="node"><title>Node46</title>
<a xlink:href="SoundPlayerDummy_8h.htm" target="_top" xlink:title="SoundPlayerDummy.h">
<polygon fill="white" stroke="black" points="1462.28,-58.5 1462.28,-79.5 1581.28,-79.5 1581.28,-58.5 1462.28,-58.5"/>
<text text-anchor="middle" x="1521.78" y="-66.5" font-family="Helvetica,sans-Serif" font-size="10.00">SoundPlayerDummy.h</text>
</a>
</g>
<!-- Node43&#45;&gt;Node46 -->
<g id="edge150" class="edge"><title>Node43&#45;&gt;Node46</title>
<path fill="none" stroke="midnightblue" d="M1592.82,-116.362C1579.82,-107.696 1561.25,-95.3126 1546.35,-85.3819"/>
<polygon fill="midnightblue" stroke="midnightblue" points="1547.89,-82.2055 1537.63,-79.5707 1544.01,-88.0299 1547.89,-82.2055"/>
</g>
<!-- Node46&#45;&gt;Node6 -->
<g id="edge152" class="edge"><title>Node46&#45;&gt;Node6</title>
<path fill="none" stroke="midnightblue" d="M1461.95,-58.7643C1394.39,-47.2052 1286.09,-28.6759 1226.17,-18.4247"/>
<polygon fill="midnightblue" stroke="midnightblue" points="1226.72,-14.9683 1216.28,-16.7316 1225.54,-21.868 1226.72,-14.9683"/>
</g>
<!-- Node46&#45;&gt;Node9 -->
<g id="edge154" class="edge"><title>Node46&#45;&gt;Node9</title>
<path fill="none" stroke="midnightblue" d="M1499.14,-58.4966C1479.16,-49.2264 1449.85,-35.6282 1427.71,-25.3548"/>
<polygon fill="midnightblue" stroke="midnightblue" points="1428.95,-22.0713 1418.41,-21.0371 1426.01,-28.421 1428.95,-22.0713"/>
</g>
<!-- Node46&#45;&gt;Node44 -->
<g id="edge156" class="edge"><title>Node46&#45;&gt;Node44</title>
<path fill="none" stroke="midnightblue" d="M1562.34,-58.4966C1606.07,-47.1752 1674.72,-29.3987 1714.47,-19.1065"/>
<polygon fill="midnightblue" stroke="midnightblue" points="1715.35,-22.4931 1724.16,-16.5981 1713.6,-15.7165 1715.35,-22.4931"/>
</g>
</g>
</svg>
