<?xml version="1.0" encoding="UTF-8" standalone="no"?>
<!DOCTYPE svg PUBLIC "-//W3C//DTD SVG 1.1//EN"
 "http://www.w3.org/Graphics/SVG/1.1/DTD/svg11.dtd">
<!-- Generated by graphviz version 2.26.3 (20100126.1600)
 -->
<!-- Title: StatusBarIcon.cpp Pages: 1 -->
<svg width="976pt" height="204pt"
 viewBox="0.00 0.00 976.00 204.00" xmlns="http://www.w3.org/2000/svg" xmlns:xlink="http://www.w3.org/1999/xlink">
<g id="graph1" class="graph" transform="scale(1 1) rotate(0) translate(4 200)">
<title>StatusBarIcon.cpp</title>
<polygon fill="white" stroke="white" points="-4,5 -4,-200 973,-200 973,5 -4,5"/>
<!-- Node1 -->
<g id="node1" class="node"><title>Node1</title>
<polygon fill="#bfbfbf" stroke="black" points="269,-174.5 269,-195.5 371,-195.5 371,-174.5 269,-174.5"/>
<text text-anchor="middle" x="320" y="-182.5" font-family="Helvetica,sans-Serif" font-size="10.00">StatusBarIcon.cpp</text>
</g>
<!-- Node2 -->
<g id="node3" class="node"><title>Node2</title>
<a xlink:href="StatusBarIcon_8h.htm" target="_top" xlink:title="StatusBarIcon.h">
<polygon fill="white" stroke="black" points="227.5,-116.5 227.5,-137.5 318.5,-137.5 318.5,-116.5 227.5,-116.5"/>
<text text-anchor="middle" x="273" y="-124.5" font-family="Helvetica,sans-Serif" font-size="10.00">StatusBarIcon.h</text>
</a>
</g>
<!-- Node1&#45;&gt;Node2 -->
<g id="edge2" class="edge"><title>Node1&#45;&gt;Node2</title>
<path fill="none" stroke="midnightblue" d="M311.379,-174.362C304.82,-166.268 295.634,-154.932 287.894,-145.38"/>
<polygon fill="midnightblue" stroke="midnightblue" points="290.581,-143.136 281.566,-137.571 285.142,-147.544 290.581,-143.136"/>
</g>
<!-- Node5 -->
<g id="node9" class="node"><title>Node5</title>
<polygon fill="white" stroke="#bfbfbf" points="-0.5,-58.5 -0.5,-79.5 58.5,-79.5 58.5,-58.5 -0.5,-58.5"/>
<text text-anchor="middle" x="29" y="-66.5" font-family="Helvetica,sans-Serif" font-size="10.00">QPainter</text>
</g>
<!-- Node1&#45;&gt;Node5 -->
<g id="edge38" class="edge"><title>Node1&#45;&gt;Node5</title>
<path fill="none" stroke="midnightblue" d="M293.404,-174.398C240.906,-153.471 123.929,-106.841 64.7532,-83.2521"/>
<polygon fill="midnightblue" stroke="midnightblue" points="66.0139,-79.9869 55.4287,-79.5352 63.4218,-86.4893 66.0139,-79.9869"/>
</g>
<!-- Node12 -->
<g id="node23" class="node"><title>Node12</title>
<polygon fill="white" stroke="#bfbfbf" points="335.5,-116.5 335.5,-137.5 398.5,-137.5 398.5,-116.5 335.5,-116.5"/>
<text text-anchor="middle" x="367" y="-124.5" font-family="Helvetica,sans-Serif" font-size="10.00">Settings.h</text>
</g>
<!-- Node1&#45;&gt;Node12 -->
<g id="edge22" class="edge"><title>Node1&#45;&gt;Node12</title>
<path fill="none" stroke="midnightblue" d="M328.621,-174.362C335.18,-166.268 344.366,-154.932 352.106,-145.38"/>
<polygon fill="midnightblue" stroke="midnightblue" points="354.858,-147.544 358.434,-137.571 349.419,-143.136 354.858,-147.544"/>
</g>
<!-- Node13 -->
<g id="node25" class="node"><title>Node13</title>
<a xlink:href="AnimationSettings_8h.htm" target="_top" xlink:title="AnimationSettings.h">
<polygon fill="white" stroke="black" points="671,-116.5 671,-137.5 781,-137.5 781,-116.5 671,-116.5"/>
<text text-anchor="middle" x="726" y="-124.5" font-family="Helvetica,sans-Serif" font-size="10.00">AnimationSettings.h</text>
</a>
</g>
<!-- Node1&#45;&gt;Node13 -->
<g id="edge24" class="edge"><title>Node1&#45;&gt;Node13</title>
<path fill="none" stroke="midnightblue" d="M371.009,-177.713C444.535,-167.209 580.307,-147.813 660.952,-136.293"/>
<polygon fill="midnightblue" stroke="midnightblue" points="661.583,-139.738 670.988,-134.859 660.593,-132.808 661.583,-139.738"/>
</g>
<!-- Node3 -->
<g id="node5" class="node"><title>Node3</title>
<polygon fill="white" stroke="#bfbfbf" points="75.5,-58.5 75.5,-79.5 134.5,-79.5 134.5,-58.5 75.5,-58.5"/>
<text text-anchor="middle" x="105" y="-66.5" font-family="Helvetica,sans-Serif" font-size="10.00">QPixmap</text>
</g>
<!-- Node2&#45;&gt;Node3 -->
<g id="edge4" class="edge"><title>Node2&#45;&gt;Node3</title>
<path fill="none" stroke="midnightblue" d="M242.576,-116.497C215.052,-106.994 174.355,-92.9438 144.36,-82.5887"/>
<polygon fill="midnightblue" stroke="midnightblue" points="145.228,-79.1856 134.633,-79.2305 142.944,-85.8024 145.228,-79.1856"/>
</g>
<!-- Node4 -->
<g id="node7" class="node"><title>Node4</title>
<polygon fill="white" stroke="#bfbfbf" points="151.5,-58.5 151.5,-79.5 206.5,-79.5 206.5,-58.5 151.5,-58.5"/>
<text text-anchor="middle" x="179" y="-66.5" font-family="Helvetica,sans-Serif" font-size="10.00">QObject</text>
</g>
<!-- Node2&#45;&gt;Node4 -->
<g id="edge6" class="edge"><title>Node2&#45;&gt;Node4</title>
<path fill="none" stroke="midnightblue" d="M255.759,-116.362C241.448,-107.532 220.885,-94.844 204.643,-84.8224"/>
<polygon fill="midnightblue" stroke="midnightblue" points="206.48,-81.8431 196.132,-79.5707 202.804,-87.8004 206.48,-81.8431"/>
</g>
<!-- Node2&#45;&gt;Node5 -->
<g id="edge8" class="edge"><title>Node2&#45;&gt;Node5</title>
<path fill="none" stroke="midnightblue" d="M227.406,-117.385C187.75,-108.845 128.525,-95.67 68.8019,-80.3818"/>
<polygon fill="midnightblue" stroke="midnightblue" points="69.3834,-76.9174 58.8262,-77.8094 67.6354,-83.6956 69.3834,-76.9174"/>
</g>
<!-- Node6 -->
<g id="node11" class="node"><title>Node6</title>
<polygon fill="white" stroke="#bfbfbf" points="224,-58.5 224,-79.5 322,-79.5 322,-58.5 224,-58.5"/>
<text text-anchor="middle" x="273" y="-66.5" font-family="Helvetica,sans-Serif" font-size="10.00">QGraphicsObject</text>
</g>
<!-- Node2&#45;&gt;Node6 -->
<g id="edge10" class="edge"><title>Node2&#45;&gt;Node6</title>
<path fill="none" stroke="midnightblue" d="M273,-116.362C273,-108.922 273,-98.7427 273,-89.7276"/>
<polygon fill="midnightblue" stroke="midnightblue" points="276.5,-89.5706 273,-79.5707 269.5,-89.5707 276.5,-89.5706"/>
</g>
<!-- Node7 -->
<g id="node13" class="node"><title>Node7</title>
<polygon fill="white" stroke="#bfbfbf" points="339.5,-58.5 339.5,-79.5 398.5,-79.5 398.5,-58.5 339.5,-58.5"/>
<text text-anchor="middle" x="369" y="-66.5" font-family="Helvetica,sans-Serif" font-size="10.00">QPointer</text>
</g>
<!-- Node2&#45;&gt;Node7 -->
<g id="edge12" class="edge"><title>Node2&#45;&gt;Node7</title>
<path fill="none" stroke="midnightblue" d="M290.608,-116.362C305.223,-107.532 326.224,-94.844 342.811,-84.8224"/>
<polygon fill="midnightblue" stroke="midnightblue" points="344.754,-87.7376 351.504,-79.5707 341.135,-81.7461 344.754,-87.7376"/>
</g>
<!-- Node8 -->
<g id="node15" class="node"><title>Node8</title>
<polygon fill="white" stroke="#bfbfbf" points="415.5,-58.5 415.5,-79.5 500.5,-79.5 500.5,-58.5 415.5,-58.5"/>
<text text-anchor="middle" x="458" y="-66.5" font-family="Helvetica,sans-Serif" font-size="10.00">QEasingCurve</text>
</g>
<!-- Node2&#45;&gt;Node8 -->
<g id="edge14" class="edge"><title>Node2&#45;&gt;Node8</title>
<path fill="none" stroke="midnightblue" d="M306.502,-116.497C336.793,-107 381.57,-92.9619 414.593,-82.6087"/>
<polygon fill="midnightblue" stroke="midnightblue" points="415.94,-85.8544 424.435,-79.5231 413.846,-79.175 415.94,-85.8544"/>
</g>
<!-- Node9 -->
<g id="node17" class="node"><title>Node9</title>
<a xlink:href="VariantAnimation_8h.htm" target="_top" xlink:title="VariantAnimation.h">
<polygon fill="white" stroke="black" points="517.5,-58.5 517.5,-79.5 622.5,-79.5 622.5,-58.5 517.5,-58.5"/>
<text text-anchor="middle" x="570" y="-66.5" font-family="Helvetica,sans-Serif" font-size="10.00">VariantAnimation.h</text>
</a>
</g>
<!-- Node2&#45;&gt;Node9 -->
<g id="edge16" class="edge"><title>Node2&#45;&gt;Node9</title>
<path fill="none" stroke="midnightblue" d="M318.659,-117.666C321.481,-117.099 324.279,-116.54 327,-116 388.314,-103.826 458.414,-90.3103 507.515,-80.9094"/>
<polygon fill="midnightblue" stroke="midnightblue" points="508.19,-84.3437 517.354,-79.0267 506.875,-77.4684 508.19,-84.3437"/>
</g>
<!-- Node10 -->
<g id="node19" class="node"><title>Node10</title>
<polygon fill="white" stroke="#bfbfbf" points="627.5,-0.5 627.5,-21.5 694.5,-21.5 694.5,-0.5 627.5,-0.5"/>
<text text-anchor="middle" x="661" y="-8.5" font-family="Helvetica,sans-Serif" font-size="10.00">Common.h</text>
</g>
<!-- Node9&#45;&gt;Node10 -->
<g id="edge18" class="edge"><title>Node9&#45;&gt;Node10</title>
<path fill="none" stroke="midnightblue" d="M586.691,-58.3619C600.416,-49.6138 620.084,-37.0786 635.737,-27.1015"/>
<polygon fill="midnightblue" stroke="midnightblue" points="637.863,-29.8969 644.415,-21.5707 634.101,-23.994 637.863,-29.8969"/>
</g>
<!-- Node11 -->
<g id="node21" class="node"><title>Node11</title>
<polygon fill="white" stroke="#bfbfbf" points="505.5,-0.5 505.5,-21.5 610.5,-21.5 610.5,-0.5 505.5,-0.5"/>
<text text-anchor="middle" x="558" y="-8.5" font-family="Helvetica,sans-Serif" font-size="10.00">QVariantAnimation</text>
</g>
<!-- Node9&#45;&gt;Node11 -->
<g id="edge20" class="edge"><title>Node9&#45;&gt;Node11</title>
<path fill="none" stroke="midnightblue" d="M567.799,-58.3619C566.243,-50.8401 564.107,-40.5187 562.227,-31.4308"/>
<polygon fill="midnightblue" stroke="midnightblue" points="565.641,-30.6541 560.187,-21.5707 558.786,-32.0724 565.641,-30.6541"/>
</g>
<!-- Node13&#45;&gt;Node10 -->
<g id="edge26" class="edge"><title>Node13&#45;&gt;Node10</title>
<path fill="none" stroke="midnightblue" d="M706.505,-116.335C693.594,-108.17 677.521,-95.6599 669,-80 660.995,-65.2894 659.321,-46.2335 659.465,-31.876"/>
<polygon fill="midnightblue" stroke="midnightblue" points="662.976,-31.6751 659.883,-21.5416 655.981,-31.3916 662.976,-31.6751"/>
</g>
<!-- Node14 -->
<g id="node28" class="node"><title>Node14</title>
<polygon fill="white" stroke="#bfbfbf" points="677.5,-58.5 677.5,-79.5 718.5,-79.5 718.5,-58.5 677.5,-58.5"/>
<text text-anchor="middle" x="698" y="-66.5" font-family="Helvetica,sans-Serif" font-size="10.00">glib.h</text>
</g>
<!-- Node13&#45;&gt;Node14 -->
<g id="edge28" class="edge"><title>Node13&#45;&gt;Node14</title>
<path fill="none" stroke="midnightblue" d="M720.864,-116.362C717.154,-108.677 712.033,-98.0686 707.578,-88.8399"/>
<polygon fill="midnightblue" stroke="midnightblue" points="710.603,-87.0545 703.103,-79.5707 704.299,-90.0978 710.603,-87.0545"/>
</g>
<!-- Node15 -->
<g id="node30" class="node"><title>Node15</title>
<polygon fill="white" stroke="#bfbfbf" points="735.5,-58.5 735.5,-79.5 772.5,-79.5 772.5,-58.5 735.5,-58.5"/>
<text text-anchor="middle" x="754" y="-66.5" font-family="Helvetica,sans-Serif" font-size="10.00">map</text>
</g>
<!-- Node13&#45;&gt;Node15 -->
<g id="edge30" class="edge"><title>Node13&#45;&gt;Node15</title>
<path fill="none" stroke="midnightblue" d="M731.136,-116.362C734.846,-108.677 739.967,-98.0686 744.422,-88.8399"/>
<polygon fill="midnightblue" stroke="midnightblue" points="747.701,-90.0978 748.897,-79.5707 741.397,-87.0545 747.701,-90.0978"/>
</g>
<!-- Node16 -->
<g id="node32" class="node"><title>Node16</title>
<polygon fill="white" stroke="#bfbfbf" points="789.5,-58.5 789.5,-79.5 832.5,-79.5 832.5,-58.5 789.5,-58.5"/>
<text text-anchor="middle" x="811" y="-66.5" font-family="Helvetica,sans-Serif" font-size="10.00">string</text>
</g>
<!-- Node13&#45;&gt;Node16 -->
<g id="edge32" class="edge"><title>Node13&#45;&gt;Node16</title>
<path fill="none" stroke="midnightblue" d="M741.59,-116.362C754.291,-107.696 772.438,-95.3126 786.992,-85.3819"/>
<polygon fill="midnightblue" stroke="midnightblue" points="789.221,-88.0982 795.509,-79.5707 785.276,-82.316 789.221,-88.0982"/>
</g>
<!-- Node17 -->
<g id="node34" class="node"><title>Node17</title>
<a xlink:href="AnimationEquations_8h.htm" target="_top" xlink:title="AnimationEquations.h">
<polygon fill="white" stroke="black" points="850,-58.5 850,-79.5 968,-79.5 968,-58.5 850,-58.5"/>
<text text-anchor="middle" x="909" y="-66.5" font-family="Helvetica,sans-Serif" font-size="10.00">AnimationEquations.h</text>
</a>
</g>
<!-- Node13&#45;&gt;Node17 -->
<g id="edge34" class="edge"><title>Node13&#45;&gt;Node17</title>
<path fill="none" stroke="midnightblue" d="M759.14,-116.497C789.103,-107 833.396,-92.9619 866.062,-82.6087"/>
<polygon fill="midnightblue" stroke="midnightblue" points="867.323,-85.8809 875.798,-79.5231 865.208,-79.208 867.323,-85.8809"/>
</g>
<!-- Node17&#45;&gt;Node10 -->
<g id="edge36" class="edge"><title>Node17&#45;&gt;Node10</title>
<path fill="none" stroke="midnightblue" d="M864.089,-58.4966C818.895,-47.927 749.644,-31.7313 704.836,-21.2519"/>
<polygon fill="midnightblue" stroke="midnightblue" points="705.367,-17.7818 694.833,-18.9125 703.773,-24.5979 705.367,-17.7818"/>
</g>
</g>
</svg>
