<?xml version="1.0" encoding="UTF-8" standalone="no"?>
<!DOCTYPE svg PUBLIC "-//W3C//DTD SVG 1.1//EN"
 "http://www.w3.org/Graphics/SVG/1.1/DTD/svg11.dtd">
<!-- Generated by graphviz version 2.26.3 (20100126.1600)
 -->
<!-- Title: staticelementsettings.h Pages: 1 -->
<svg width="308pt" height="88pt"
 viewBox="0.00 0.00 308.00 88.00" xmlns="http://www.w3.org/2000/svg" xmlns:xlink="http://www.w3.org/1999/xlink">
<g id="graph1" class="graph" transform="scale(1 1) rotate(0) translate(4 84)">
<title>staticelementsettings.h</title>
<polygon fill="white" stroke="white" points="-4,5 -4,-84 305,-84 305,5 -4,5"/>
<!-- Node1 -->
<g id="node1" class="node"><title>Node1</title>
<polygon fill="#bfbfbf" stroke="black" points="91,-58.5 91,-79.5 215,-79.5 215,-58.5 91,-58.5"/>
<text text-anchor="middle" x="153" y="-66.5" font-family="Helvetica,sans-Serif" font-size="10.00">staticelementsettings.h</text>
</g>
<!-- Node2 -->
<g id="node3" class="node"><title>Node2</title>
<a xlink:href="horizontallabeleddivider_8cpp.htm" target="_top" xlink:title="horizontallabeleddivider.cpp">
<polygon fill="white" stroke="black" points="0,-0.5 0,-21.5 148,-21.5 148,-0.5 0,-0.5"/>
<text text-anchor="middle" x="74" y="-8.5" font-family="Helvetica,sans-Serif" font-size="10.00">horizontallabeleddivider.cpp</text>
</a>
</g>
<!-- Node1&#45;&gt;Node2 -->
<g id="edge2" class="edge"><title>Node1&#45;&gt;Node2</title>
<path fill="none" stroke="midnightblue" d="M130.197,-52.2587C116.72,-42.3641 100.065,-30.1361 88.398,-21.5707"/>
<polygon fill="midnightblue" stroke="midnightblue" points="128.378,-55.2651 138.51,-58.3619 132.521,-49.6225 128.378,-55.2651"/>
</g>
<!-- Node3 -->
<g id="node5" class="node"><title>Node3</title>
<a xlink:href="staticelementsettings_8cpp.htm" target="_top" xlink:title="staticelementsettings.cpp">
<polygon fill="white" stroke="black" points="165.5,-0.5 165.5,-21.5 300.5,-21.5 300.5,-0.5 165.5,-0.5"/>
<text text-anchor="middle" x="233" y="-8.5" font-family="Helvetica,sans-Serif" font-size="10.00">staticelementsettings.cpp</text>
</a>
</g>
<!-- Node1&#45;&gt;Node3 -->
<g id="edge4" class="edge"><title>Node1&#45;&gt;Node3</title>
<path fill="none" stroke="midnightblue" d="M176.092,-52.2587C189.739,-42.3641 206.605,-30.1361 218.42,-21.5707"/>
<polygon fill="midnightblue" stroke="midnightblue" points="173.715,-49.6585 167.673,-58.3619 177.824,-55.3258 173.715,-49.6585"/>
</g>
</g>
</svg>
