<?xml version="1.0" encoding="UTF-8" standalone="no"?>
<!DOCTYPE svg PUBLIC "-//W3C//DTD SVG 1.1//EN"
 "http://www.w3.org/Graphics/SVG/1.1/DTD/svg11.dtd">
<!-- Generated by graphviz version 2.26.3 (20100126.1600)
 -->
<!-- Title: StatusBarItemGroup.h Pages: 1 -->
<svg width="238pt" height="88pt"
 viewBox="0.00 0.00 238.00 88.00" xmlns="http://www.w3.org/2000/svg" xmlns:xlink="http://www.w3.org/1999/xlink">
<g id="graph1" class="graph" transform="scale(1 1) rotate(0) translate(4 84)">
<title>StatusBarItemGroup.h</title>
<polygon fill="white" stroke="white" points="-4,5 -4,-84 235,-84 235,5 -4,5"/>
<!-- Node1 -->
<g id="node1" class="node"><title>Node1</title>
<polygon fill="#bfbfbf" stroke="black" points="43,-58.5 43,-79.5 163,-79.5 163,-58.5 43,-58.5"/>
<text text-anchor="middle" x="103" y="-66.5" font-family="Helvetica,sans-Serif" font-size="10.00">StatusBarItemGroup.h</text>
</g>
<!-- Node2 -->
<g id="node3" class="node"><title>Node2</title>
<a xlink:href="StatusBar_8cpp.htm" target="_top" xlink:title="StatusBar.cpp">
<polygon fill="white" stroke="black" points="0,-0.5 0,-21.5 82,-21.5 82,-0.5 0,-0.5"/>
<text text-anchor="middle" x="41" y="-8.5" font-family="Helvetica,sans-Serif" font-size="10.00">StatusBar.cpp</text>
</a>
</g>
<!-- Node1&#45;&gt;Node2 -->
<g id="edge2" class="edge"><title>Node1&#45;&gt;Node2</title>
<path fill="none" stroke="midnightblue" d="M84.1915,-51.405C73.7834,-41.6683 61.1942,-29.8914 52.2997,-21.5707"/>
<polygon fill="midnightblue" stroke="midnightblue" points="81.9344,-54.0863 91.6282,-58.3619 86.7166,-48.9743 81.9344,-54.0863"/>
</g>
<!-- Node3 -->
<g id="node5" class="node"><title>Node3</title>
<a xlink:href="StatusBarItemGroup_8cpp.htm" target="_top" xlink:title="StatusBarItemGroup.cpp">
<polygon fill="white" stroke="black" points="99.5,-0.5 99.5,-21.5 230.5,-21.5 230.5,-0.5 99.5,-0.5"/>
<text text-anchor="middle" x="165" y="-8.5" font-family="Helvetica,sans-Serif" font-size="10.00">StatusBarItemGroup.cpp</text>
</a>
</g>
<!-- Node1&#45;&gt;Node3 -->
<g id="edge4" class="edge"><title>Node1&#45;&gt;Node3</title>
<path fill="none" stroke="midnightblue" d="M121.808,-51.405C132.217,-41.6683 144.806,-29.8914 153.7,-21.5707"/>
<polygon fill="midnightblue" stroke="midnightblue" points="119.283,-48.9743 114.372,-58.3619 124.066,-54.0863 119.283,-48.9743"/>
</g>
</g>
</svg>
