<?xml version="1.0" encoding="UTF-8" standalone="no"?>
<!DOCTYPE svg PUBLIC "-//W3C//DTD SVG 1.1//EN"
 "http://www.w3.org/Graphics/SVG/1.1/DTD/svg11.dtd">
<!-- Generated by graphviz version 2.26.3 (20100126.1600)
 -->
<!-- Title: StatusBarTitle.cpp Pages: 1 -->
<svg width="793pt" height="320pt"
 viewBox="0.00 0.00 793.00 320.00" xmlns="http://www.w3.org/2000/svg" xmlns:xlink="http://www.w3.org/1999/xlink">
<g id="graph1" class="graph" transform="scale(1 1) rotate(0) translate(4 316)">
<title>StatusBarTitle.cpp</title>
<polygon fill="white" stroke="white" points="-4,5 -4,-316 790,-316 790,5 -4,5"/>
<!-- Node1 -->
<g id="node1" class="node"><title>Node1</title>
<polygon fill="#bfbfbf" stroke="black" points="501,-290.5 501,-311.5 603,-311.5 603,-290.5 501,-290.5"/>
<text text-anchor="middle" x="552" y="-298.5" font-family="Helvetica,sans-Serif" font-size="10.00">StatusBarTitle.cpp</text>
</g>
<!-- Node2 -->
<g id="node3" class="node"><title>Node2</title>
<a xlink:href="StatusBarTitle_8h.htm" target="_top" xlink:title="StatusBarTitle.h">
<polygon fill="white" stroke="black" points="216.5,-232.5 216.5,-253.5 307.5,-253.5 307.5,-232.5 216.5,-232.5"/>
<text text-anchor="middle" x="262" y="-240.5" font-family="Helvetica,sans-Serif" font-size="10.00">StatusBarTitle.h</text>
</a>
</g>
<!-- Node1&#45;&gt;Node2 -->
<g id="edge2" class="edge"><title>Node1&#45;&gt;Node2</title>
<path fill="none" stroke="midnightblue" d="M500.821,-290.764C449.494,-280.499 370.681,-264.736 317.782,-254.156"/>
<polygon fill="midnightblue" stroke="midnightblue" points="318.384,-250.707 307.891,-252.178 317.011,-257.572 318.384,-250.707"/>
</g>
<!-- Node18 -->
<g id="node41" class="node"><title>Node18</title>
<polygon fill="white" stroke="#bfbfbf" points="520.5,-232.5 520.5,-253.5 583.5,-253.5 583.5,-232.5 520.5,-232.5"/>
<text text-anchor="middle" x="552" y="-240.5" font-family="Helvetica,sans-Serif" font-size="10.00">Settings.h</text>
</g>
<!-- Node1&#45;&gt;Node18 -->
<g id="edge46" class="edge"><title>Node1&#45;&gt;Node18</title>
<path fill="none" stroke="midnightblue" d="M552,-290.362C552,-282.922 552,-272.743 552,-263.728"/>
<polygon fill="midnightblue" stroke="midnightblue" points="555.5,-263.571 552,-253.571 548.5,-263.571 555.5,-263.571"/>
</g>
<!-- Node19 -->
<g id="node43" class="node"><title>Node19</title>
<polygon fill="white" stroke="#bfbfbf" points="600.5,-232.5 600.5,-253.5 647.5,-253.5 647.5,-232.5 600.5,-232.5"/>
<text text-anchor="middle" x="624" y="-240.5" font-family="Helvetica,sans-Serif" font-size="10.00">stdio.h</text>
</g>
<!-- Node1&#45;&gt;Node19 -->
<g id="edge48" class="edge"><title>Node1&#45;&gt;Node19</title>
<path fill="none" stroke="midnightblue" d="M565.206,-290.362C575.761,-281.859 590.758,-269.779 602.963,-259.947"/>
<polygon fill="midnightblue" stroke="midnightblue" points="605.286,-262.57 610.878,-253.571 600.895,-257.118 605.286,-262.57"/>
</g>
<!-- Node20 -->
<g id="node45" class="node"><title>Node20</title>
<a xlink:href="AnimationSettings_8h.htm" target="_top" xlink:title="AnimationSettings.h">
<polygon fill="white" stroke="black" points="511,-116.5 511,-137.5 621,-137.5 621,-116.5 511,-116.5"/>
<text text-anchor="middle" x="566" y="-124.5" font-family="Helvetica,sans-Serif" font-size="10.00">AnimationSettings.h</text>
</a>
</g>
<!-- Node1&#45;&gt;Node20 -->
<g id="edge50" class="edge"><title>Node1&#45;&gt;Node20</title>
<path fill="none" stroke="midnightblue" d="M538.79,-290.198C529.318,-281.541 517.328,-268.48 512,-254 508.624,-244.824 509.699,-241.503 512,-232 519.821,-199.692 539.402,-166.182 552.705,-145.958"/>
<polygon fill="midnightblue" stroke="midnightblue" points="555.618,-147.899 558.311,-137.652 549.816,-143.983 555.618,-147.899"/>
</g>
<!-- Node23 -->
<g id="node55" class="node"><title>Node23</title>
<polygon fill="white" stroke="#bfbfbf" points="664.5,-232.5 664.5,-253.5 723.5,-253.5 723.5,-232.5 664.5,-232.5"/>
<text text-anchor="middle" x="694" y="-240.5" font-family="Helvetica,sans-Serif" font-size="10.00">QPainter</text>
</g>
<!-- Node1&#45;&gt;Node23 -->
<g id="edge64" class="edge"><title>Node1&#45;&gt;Node23</title>
<path fill="none" stroke="midnightblue" d="M577.715,-290.497C600.293,-281.275 633.358,-267.769 658.463,-257.515"/>
<polygon fill="midnightblue" stroke="midnightblue" points="660.062,-260.643 667.996,-253.621 657.415,-254.162 660.062,-260.643"/>
</g>
<!-- Node3 -->
<g id="node5" class="node"><title>Node3</title>
<polygon fill="white" stroke="#bfbfbf" points="0,-0.5 0,-21.5 98,-21.5 98,-0.5 0,-0.5"/>
<text text-anchor="middle" x="49" y="-8.5" font-family="Helvetica,sans-Serif" font-size="10.00">QGraphicsObject</text>
</g>
<!-- Node2&#45;&gt;Node3 -->
<g id="edge4" class="edge"><title>Node2&#45;&gt;Node3</title>
<path fill="none" stroke="midnightblue" d="M216.156,-237.098C167.881,-229.913 96.3581,-216.182 78,-196 36.3679,-150.231 40.6081,-70.2708 45.5251,-32.2499"/>
<polygon fill="midnightblue" stroke="midnightblue" points="49.0572,-32.2787 47.0228,-21.8811 42.1291,-31.278 49.0572,-32.2787"/>
</g>
<!-- Node4 -->
<g id="node7" class="node"><title>Node4</title>
<polygon fill="white" stroke="#bfbfbf" points="86.5,-174.5 86.5,-195.5 163.5,-195.5 163.5,-174.5 86.5,-174.5"/>
<text text-anchor="middle" x="125" y="-182.5" font-family="Helvetica,sans-Serif" font-size="10.00">QTextLayout</text>
</g>
<!-- Node2&#45;&gt;Node4 -->
<g id="edge6" class="edge"><title>Node2&#45;&gt;Node4</title>
<path fill="none" stroke="midnightblue" d="M237.19,-232.497C215.504,-223.315 183.789,-209.889 159.608,-199.652"/>
<polygon fill="midnightblue" stroke="midnightblue" points="160.661,-196.297 150.088,-195.621 157.932,-202.743 160.661,-196.297"/>
</g>
<!-- Node5 -->
<g id="node9" class="node"><title>Node5</title>
<a xlink:href="StatusBarItem_8h.htm" target="_top" xlink:title="StatusBarItem.h">
<polygon fill="white" stroke="black" points="180.5,-174.5 180.5,-195.5 271.5,-195.5 271.5,-174.5 180.5,-174.5"/>
<text text-anchor="middle" x="226" y="-182.5" font-family="Helvetica,sans-Serif" font-size="10.00">StatusBarItem.h</text>
</a>
</g>
<!-- Node2&#45;&gt;Node5 -->
<g id="edge8" class="edge"><title>Node2&#45;&gt;Node5</title>
<path fill="none" stroke="midnightblue" d="M255.397,-232.362C250.525,-224.513 243.762,-213.616 237.95,-204.253"/>
<polygon fill="midnightblue" stroke="midnightblue" points="240.809,-202.221 232.561,-195.571 234.861,-205.913 240.809,-202.221"/>
</g>
<!-- Node6 -->
<g id="node11" class="node"><title>Node6</title>
<a xlink:href="StatusBar_8h.htm" target="_top" xlink:title="StatusBar.h">
<polygon fill="white" stroke="black" points="214.5,-116.5 214.5,-137.5 285.5,-137.5 285.5,-116.5 214.5,-116.5"/>
<text text-anchor="middle" x="250" y="-124.5" font-family="Helvetica,sans-Serif" font-size="10.00">StatusBar.h</text>
</a>
</g>
<!-- Node2&#45;&gt;Node6 -->
<g id="edge44" class="edge"><title>Node2&#45;&gt;Node6</title>
<path fill="none" stroke="midnightblue" d="M268.47,-232.191C275.791,-218.562 285.968,-194.44 280,-174 277.051,-163.9 271.199,-153.905 265.44,-145.745"/>
<polygon fill="midnightblue" stroke="midnightblue" points="268.184,-143.571 259.369,-137.694 262.595,-147.786 268.184,-143.571"/>
</g>
<!-- Node15 -->
<g id="node31" class="node"><title>Node15</title>
<a xlink:href="VariantAnimation_8h.htm" target="_top" xlink:title="VariantAnimation.h">
<polygon fill="white" stroke="black" points="376.5,-58.5 376.5,-79.5 481.5,-79.5 481.5,-58.5 376.5,-58.5"/>
<text text-anchor="middle" x="429" y="-66.5" font-family="Helvetica,sans-Serif" font-size="10.00">VariantAnimation.h</text>
</a>
</g>
<!-- Node2&#45;&gt;Node15 -->
<g id="edge42" class="edge"><title>Node2&#45;&gt;Node15</title>
<path fill="none" stroke="midnightblue" d="M272.195,-232.377C299.847,-203.567 376.522,-123.678 411.364,-87.3755"/>
<polygon fill="midnightblue" stroke="midnightblue" points="414.113,-89.566 418.512,-79.9277 409.062,-84.7189 414.113,-89.566"/>
</g>
<!-- Node5&#45;&gt;Node3 -->
<g id="edge40" class="edge"><title>Node5&#45;&gt;Node3</title>
<path fill="none" stroke="midnightblue" d="M203.272,-174.489C170.83,-158.426 111.278,-124.847 76,-80 64.8458,-65.8201 57.8095,-46.4674 53.7269,-31.8657"/>
<polygon fill="midnightblue" stroke="midnightblue" points="57.0208,-30.6173 51.1614,-21.7902 50.2372,-32.3447 57.0208,-30.6173"/>
</g>
<!-- Node5&#45;&gt;Node6 -->
<g id="edge10" class="edge"><title>Node5&#45;&gt;Node6</title>
<path fill="none" stroke="midnightblue" d="M230.402,-174.362C233.582,-166.677 237.972,-156.069 241.79,-146.84"/>
<polygon fill="midnightblue" stroke="midnightblue" points="245.036,-148.149 245.626,-137.571 238.568,-145.473 245.036,-148.149"/>
</g>
<!-- Node6&#45;&gt;Node3 -->
<g id="edge30" class="edge"><title>Node6&#45;&gt;Node3</title>
<path fill="none" stroke="midnightblue" d="M214.425,-121.916C182.644,-116.005 135.99,-103.84 102,-80 83.566,-67.0708 68.6299,-45.8043 59.3683,-30.2932"/>
<polygon fill="midnightblue" stroke="midnightblue" points="62.35,-28.4564 54.3543,-21.5051 56.2699,-31.9253 62.35,-28.4564"/>
</g>
<!-- Node7 -->
<g id="node13" class="node"><title>Node7</title>
<a xlink:href="Window_8h.htm" target="_top" xlink:title="Window.h">
<polygon fill="white" stroke="black" points="297,-58.5 297,-79.5 359,-79.5 359,-58.5 297,-58.5"/>
<text text-anchor="middle" x="328" y="-66.5" font-family="Helvetica,sans-Serif" font-size="10.00">Window.h</text>
</a>
</g>
<!-- Node6&#45;&gt;Node7 -->
<g id="edge12" class="edge"><title>Node6&#45;&gt;Node7</title>
<path fill="none" stroke="midnightblue" d="M264.306,-116.362C275.851,-107.777 292.3,-95.5459 305.59,-85.6636"/>
<polygon fill="midnightblue" stroke="midnightblue" points="307.848,-88.3463 313.784,-79.5707 303.671,-82.7291 307.848,-88.3463"/>
</g>
<!-- Node14 -->
<g id="node28" class="node"><title>Node14</title>
<polygon fill="white" stroke="#bfbfbf" points="220.5,-58.5 220.5,-79.5 279.5,-79.5 279.5,-58.5 220.5,-58.5"/>
<text text-anchor="middle" x="250" y="-66.5" font-family="Helvetica,sans-Serif" font-size="10.00">QPointer</text>
</g>
<!-- Node6&#45;&gt;Node14 -->
<g id="edge28" class="edge"><title>Node6&#45;&gt;Node14</title>
<path fill="none" stroke="midnightblue" d="M250,-116.362C250,-108.922 250,-98.7427 250,-89.7276"/>
<polygon fill="midnightblue" stroke="midnightblue" points="253.5,-89.5706 250,-79.5707 246.5,-89.5707 253.5,-89.5706"/>
</g>
<!-- Node6&#45;&gt;Node15 -->
<g id="edge32" class="edge"><title>Node6&#45;&gt;Node15</title>
<path fill="none" stroke="midnightblue" d="M282.416,-116.497C311.724,-107 355.048,-92.9619 387.001,-82.6087"/>
<polygon fill="midnightblue" stroke="midnightblue" points="388.089,-85.9352 396.524,-79.5231 385.932,-79.276 388.089,-85.9352"/>
</g>
<!-- Node17 -->
<g id="node36" class="node"><title>Node17</title>
<polygon fill="white" stroke="#bfbfbf" points="111,-58.5 111,-79.5 203,-79.5 203,-58.5 111,-58.5"/>
<text text-anchor="middle" x="157" y="-66.5" font-family="Helvetica,sans-Serif" font-size="10.00">CustomEvents.h</text>
</g>
<!-- Node6&#45;&gt;Node17 -->
<g id="edge38" class="edge"><title>Node6&#45;&gt;Node17</title>
<path fill="none" stroke="midnightblue" d="M232.942,-116.362C218.915,-107.614 198.816,-95.0786 182.818,-85.1015"/>
<polygon fill="midnightblue" stroke="midnightblue" points="184.287,-81.8927 173.949,-79.5707 180.582,-87.8323 184.287,-81.8927"/>
</g>
<!-- Node7&#45;&gt;Node3 -->
<g id="edge24" class="edge"><title>Node7&#45;&gt;Node3</title>
<path fill="none" stroke="midnightblue" d="M296.614,-60.1321C293.709,-59.3829 290.804,-58.6603 288,-58 227.091,-43.6569 156.743,-30.1918 108.218,-21.3819"/>
<polygon fill="midnightblue" stroke="midnightblue" points="108.669,-17.9068 98.2058,-19.574 107.425,-24.7954 108.669,-17.9068"/>
</g>
<!-- Node8 -->
<g id="node15" class="node"><title>Node8</title>
<polygon fill="white" stroke="#bfbfbf" points="602.5,-0.5 602.5,-21.5 669.5,-21.5 669.5,-0.5 602.5,-0.5"/>
<text text-anchor="middle" x="636" y="-8.5" font-family="Helvetica,sans-Serif" font-size="10.00">Common.h</text>
</g>
<!-- Node7&#45;&gt;Node8 -->
<g id="edge14" class="edge"><title>Node7&#45;&gt;Node8</title>
<path fill="none" stroke="midnightblue" d="M359.362,-60.0234C362.272,-59.297 365.184,-58.6095 368,-58 464.302,-37.155 492.7,-42.5355 592.278,-22.2205"/>
<polygon fill="midnightblue" stroke="midnightblue" points="593.062,-25.6325 602.142,-20.1726 591.639,-18.7787 593.062,-25.6325"/>
</g>
<!-- Node9 -->
<g id="node17" class="node"><title>Node9</title>
<polygon fill="white" stroke="#bfbfbf" points="253,-0.5 253,-21.5 345,-21.5 345,-0.5 253,-0.5"/>
<text text-anchor="middle" x="299" y="-8.5" font-family="Helvetica,sans-Serif" font-size="10.00">WindowTypes.h</text>
</g>
<!-- Node7&#45;&gt;Node9 -->
<g id="edge16" class="edge"><title>Node7&#45;&gt;Node9</title>
<path fill="none" stroke="midnightblue" d="M322.681,-58.3619C318.797,-50.5949 313.421,-39.8426 308.773,-30.5458"/>
<polygon fill="midnightblue" stroke="midnightblue" points="311.888,-28.9497 304.285,-21.5707 305.627,-32.0802 311.888,-28.9497"/>
</g>
<!-- Node10 -->
<g id="node19" class="node"><title>Node10</title>
<polygon fill="white" stroke="#bfbfbf" points="123,-0.5 123,-21.5 173,-21.5 173,-0.5 123,-0.5"/>
<text text-anchor="middle" x="148" y="-8.5" font-family="Helvetica,sans-Serif" font-size="10.00">stdint.h</text>
</g>
<!-- Node7&#45;&gt;Node10 -->
<g id="edge18" class="edge"><title>Node7&#45;&gt;Node10</title>
<path fill="none" stroke="midnightblue" d="M296.951,-59.0194C269.355,-50.1453 227.662,-36.7303 182.854,-22.2731"/>
<polygon fill="midnightblue" stroke="midnightblue" points="183.841,-18.9139 173.25,-19.1735 181.691,-25.5756 183.841,-18.9139"/>
</g>
<!-- Node11 -->
<g id="node21" class="node"><title>Node11</title>
<polygon fill="white" stroke="#bfbfbf" points="542.5,-0.5 542.5,-21.5 585.5,-21.5 585.5,-0.5 542.5,-0.5"/>
<text text-anchor="middle" x="564" y="-8.5" font-family="Helvetica,sans-Serif" font-size="10.00">string</text>
</g>
<!-- Node7&#45;&gt;Node11 -->
<g id="edge20" class="edge"><title>Node7&#45;&gt;Node11</title>
<path fill="none" stroke="midnightblue" d="M359.4,-60.19C362.302,-59.4287 365.202,-58.6875 368,-58 438.305,-40.7235 459.754,-42.8288 532.822,-22.0817"/>
<polygon fill="midnightblue" stroke="midnightblue" points="533.851,-25.4275 542.488,-19.2909 531.91,-18.7021 533.851,-25.4275"/>
</g>
<!-- Node12 -->
<g id="node23" class="node"><title>Node12</title>
<polygon fill="white" stroke="#bfbfbf" points="484.5,-0.5 484.5,-21.5 525.5,-21.5 525.5,-0.5 484.5,-0.5"/>
<text text-anchor="middle" x="505" y="-8.5" font-family="Helvetica,sans-Serif" font-size="10.00">glib.h</text>
</g>
<!-- Node7&#45;&gt;Node12 -->
<g id="edge22" class="edge"><title>Node7&#45;&gt;Node12</title>
<path fill="none" stroke="midnightblue" d="M359.061,-59.6805C387.126,-51.1406 429.761,-37.872 474.811,-22.3076"/>
<polygon fill="midnightblue" stroke="midnightblue" points="476.161,-25.5437 484.456,-18.9524 473.861,-18.9323 476.161,-25.5437"/>
</g>
<!-- Node13 -->
<g id="node26" class="node"><title>Node13</title>
<polygon fill="white" stroke="#bfbfbf" points="190.5,-0.5 190.5,-21.5 235.5,-21.5 235.5,-0.5 190.5,-0.5"/>
<text text-anchor="middle" x="213" y="-8.5" font-family="Helvetica,sans-Serif" font-size="10.00">QSize</text>
</g>
<!-- Node7&#45;&gt;Node13 -->
<g id="edge26" class="edge"><title>Node7&#45;&gt;Node13</title>
<path fill="none" stroke="midnightblue" d="M307.174,-58.4966C289.294,-49.4786 263.293,-36.3649 243.139,-26.2006"/>
<polygon fill="midnightblue" stroke="midnightblue" points="244.564,-22.9994 234.059,-21.6212 241.412,-29.2495 244.564,-22.9994"/>
</g>
<!-- Node15&#45;&gt;Node8 -->
<g id="edge34" class="edge"><title>Node15&#45;&gt;Node8</title>
<path fill="none" stroke="midnightblue" d="M466.486,-58.4966C501.842,-48.59 554.838,-33.741 592.142,-23.2887"/>
<polygon fill="midnightblue" stroke="midnightblue" points="593.535,-26.5333 602.22,-20.465 591.646,-19.7929 593.535,-26.5333"/>
</g>
<!-- Node16 -->
<g id="node34" class="node"><title>Node16</title>
<polygon fill="white" stroke="#bfbfbf" points="362.5,-0.5 362.5,-21.5 467.5,-21.5 467.5,-0.5 362.5,-0.5"/>
<text text-anchor="middle" x="415" y="-8.5" font-family="Helvetica,sans-Serif" font-size="10.00">QVariantAnimation</text>
</g>
<!-- Node15&#45;&gt;Node16 -->
<g id="edge36" class="edge"><title>Node15&#45;&gt;Node16</title>
<path fill="none" stroke="midnightblue" d="M426.432,-58.3619C424.617,-50.8401 422.125,-40.5187 419.932,-31.4308"/>
<polygon fill="midnightblue" stroke="midnightblue" points="423.3,-30.4702 417.552,-21.5707 416.496,-32.1127 423.3,-30.4702"/>
</g>
<!-- Node20&#45;&gt;Node8 -->
<g id="edge52" class="edge"><title>Node20&#45;&gt;Node8</title>
<path fill="none" stroke="midnightblue" d="M571.614,-116.063C578.77,-102.303 591.694,-78.0461 604,-58 609.765,-48.6094 616.586,-38.4721 622.447,-30.0247"/>
<polygon fill="midnightblue" stroke="midnightblue" points="625.454,-31.8328 628.334,-21.6369 619.724,-27.8115 625.454,-31.8328"/>
</g>
<!-- Node20&#45;&gt;Node11 -->
<g id="edge58" class="edge"><title>Node20&#45;&gt;Node11</title>
<path fill="none" stroke="midnightblue" d="M565.815,-116.295C565.485,-97.1314 564.787,-56.654 564.359,-31.8434"/>
<polygon fill="midnightblue" stroke="midnightblue" points="567.856,-31.6173 564.184,-21.6792 560.857,-31.7381 567.856,-31.6173"/>
</g>
<!-- Node20&#45;&gt;Node12 -->
<g id="edge54" class="edge"><title>Node20&#45;&gt;Node12</title>
<path fill="none" stroke="midnightblue" d="M560.371,-116.295C550.157,-96.8724 528.43,-55.5561 515.436,-30.8462"/>
<polygon fill="midnightblue" stroke="midnightblue" points="518.368,-28.901 510.616,-21.6792 512.172,-32.1591 518.368,-28.901"/>
</g>
<!-- Node21 -->
<g id="node49" class="node"><title>Node21</title>
<polygon fill="white" stroke="#bfbfbf" points="748.5,-58.5 748.5,-79.5 785.5,-79.5 785.5,-58.5 748.5,-58.5"/>
<text text-anchor="middle" x="767" y="-66.5" font-family="Helvetica,sans-Serif" font-size="10.00">map</text>
</g>
<!-- Node20&#45;&gt;Node21 -->
<g id="edge56" class="edge"><title>Node20&#45;&gt;Node21</title>
<path fill="none" stroke="midnightblue" d="M611.157,-116.423C644.338,-108.288 690.63,-96.1841 738.613,-80.2336"/>
<polygon fill="midnightblue" stroke="midnightblue" points="739.87,-83.5032 748.229,-76.9922 737.634,-76.8699 739.87,-83.5032"/>
</g>
<!-- Node22 -->
<g id="node52" class="node"><title>Node22</title>
<a xlink:href="AnimationEquations_8h.htm" target="_top" xlink:title="AnimationEquations.h">
<polygon fill="white" stroke="black" points="613,-58.5 613,-79.5 731,-79.5 731,-58.5 613,-58.5"/>
<text text-anchor="middle" x="672" y="-66.5" font-family="Helvetica,sans-Serif" font-size="10.00">AnimationEquations.h</text>
</a>
</g>
<!-- Node20&#45;&gt;Node22 -->
<g id="edge60" class="edge"><title>Node20&#45;&gt;Node22</title>
<path fill="none" stroke="midnightblue" d="M585.442,-116.362C601.804,-107.409 625.413,-94.4908 643.843,-84.4064"/>
<polygon fill="midnightblue" stroke="midnightblue" points="645.589,-87.4412 652.681,-79.5707 642.229,-81.3004 645.589,-87.4412"/>
</g>
<!-- Node22&#45;&gt;Node8 -->
<g id="edge62" class="edge"><title>Node22&#45;&gt;Node8</title>
<path fill="none" stroke="midnightblue" d="M665.397,-58.3619C660.525,-50.5131 653.762,-39.6159 647.95,-30.2527"/>
<polygon fill="midnightblue" stroke="midnightblue" points="650.809,-28.2213 642.561,-21.5707 644.861,-31.9129 650.809,-28.2213"/>
</g>
</g>
</svg>
