<?xml version="1.0" encoding="UTF-8" standalone="no"?>
<!DOCTYPE svg PUBLIC "-//W3C//DTD SVG 1.1//EN"
 "http://www.w3.org/Graphics/SVG/1.1/DTD/svg11.dtd">
<!-- Generated by graphviz version 2.26.3 (20100126.1600)
 -->
<!-- Title: StatusBarItem.h Pages: 1 -->
<svg width="670pt" height="204pt"
 viewBox="0.00 0.00 670.00 204.00" xmlns="http://www.w3.org/2000/svg" xmlns:xlink="http://www.w3.org/1999/xlink">
<g id="graph1" class="graph" transform="scale(1 1) rotate(0) translate(4 200)">
<title>StatusBarItem.h</title>
<polygon fill="white" stroke="white" points="-4,5 -4,-200 667,-200 667,5 -4,5"/>
<!-- Node1 -->
<g id="node1" class="node"><title>Node1</title>
<polygon fill="#bfbfbf" stroke="black" points="480.5,-174.5 480.5,-195.5 571.5,-195.5 571.5,-174.5 480.5,-174.5"/>
<text text-anchor="middle" x="526" y="-182.5" font-family="Helvetica,sans-Serif" font-size="10.00">StatusBarItem.h</text>
</g>
<!-- Node2 -->
<g id="node3" class="node"><title>Node2</title>
<a xlink:href="StatusBar_8h.htm" target="_top" xlink:title="StatusBar.h">
<polygon fill="white" stroke="black" points="364.5,-116.5 364.5,-137.5 435.5,-137.5 435.5,-116.5 364.5,-116.5"/>
<text text-anchor="middle" x="400" y="-124.5" font-family="Helvetica,sans-Serif" font-size="10.00">StatusBar.h</text>
</a>
</g>
<!-- Node1&#45;&gt;Node2 -->
<g id="edge2" class="edge"><title>Node1&#45;&gt;Node2</title>
<path fill="none" stroke="midnightblue" d="M503.182,-174.497C483.414,-165.397 454.587,-152.127 432.424,-141.925"/>
<polygon fill="midnightblue" stroke="midnightblue" points="433.621,-138.623 423.074,-137.621 430.694,-144.982 433.621,-138.623"/>
</g>
<!-- Node9 -->
<g id="node17" class="node"><title>Node9</title>
<polygon fill="white" stroke="#bfbfbf" points="564,-0.5 564,-21.5 662,-21.5 662,-0.5 564,-0.5"/>
<text text-anchor="middle" x="613" y="-8.5" font-family="Helvetica,sans-Serif" font-size="10.00">QGraphicsObject</text>
</g>
<!-- Node1&#45;&gt;Node9 -->
<g id="edge32" class="edge"><title>Node1&#45;&gt;Node9</title>
<path fill="none" stroke="midnightblue" d="M531.311,-174.377C545.475,-146.051 584.326,-68.3488 602.879,-31.2424"/>
<polygon fill="midnightblue" stroke="midnightblue" points="606.194,-32.4373 607.536,-21.9277 599.933,-29.3067 606.194,-32.4373"/>
</g>
<!-- Node3 -->
<g id="node5" class="node"><title>Node3</title>
<a xlink:href="Window_8h.htm" target="_top" xlink:title="Window.h">
<polygon fill="white" stroke="black" points="322,-58.5 322,-79.5 384,-79.5 384,-58.5 322,-58.5"/>
<text text-anchor="middle" x="353" y="-66.5" font-family="Helvetica,sans-Serif" font-size="10.00">Window.h</text>
</a>
</g>
<!-- Node2&#45;&gt;Node3 -->
<g id="edge4" class="edge"><title>Node2&#45;&gt;Node3</title>
<path fill="none" stroke="midnightblue" d="M391.379,-116.362C384.82,-108.268 375.634,-96.9318 367.894,-87.3796"/>
<polygon fill="midnightblue" stroke="midnightblue" points="370.581,-85.1364 361.566,-79.5707 365.142,-89.5436 370.581,-85.1364"/>
</g>
<!-- Node2&#45;&gt;Node9 -->
<g id="edge22" class="edge"><title>Node2&#45;&gt;Node9</title>
<path fill="none" stroke="midnightblue" d="M425.854,-116.33C446.966,-107.35 477.39,-93.7974 503,-80 533.526,-63.5545 567.078,-41.9629 589.002,-27.3454"/>
<polygon fill="midnightblue" stroke="midnightblue" points="591.011,-30.2121 597.363,-21.7323 587.109,-24.4003 591.011,-30.2121"/>
</g>
<!-- Node11 -->
<g id="node21" class="node"><title>Node11</title>
<polygon fill="white" stroke="#bfbfbf" points="245.5,-58.5 245.5,-79.5 304.5,-79.5 304.5,-58.5 245.5,-58.5"/>
<text text-anchor="middle" x="275" y="-66.5" font-family="Helvetica,sans-Serif" font-size="10.00">QPointer</text>
</g>
<!-- Node2&#45;&gt;Node11 -->
<g id="edge20" class="edge"><title>Node2&#45;&gt;Node11</title>
<path fill="none" stroke="midnightblue" d="M377.363,-116.497C357.752,-107.397 329.154,-94.1273 307.167,-83.9253"/>
<polygon fill="midnightblue" stroke="midnightblue" points="308.435,-80.6554 297.891,-79.6212 305.488,-87.0051 308.435,-80.6554"/>
</g>
<!-- Node12 -->
<g id="node24" class="node"><title>Node12</title>
<a xlink:href="VariantAnimation_8h.htm" target="_top" xlink:title="VariantAnimation.h">
<polygon fill="white" stroke="black" points="102.5,-58.5 102.5,-79.5 207.5,-79.5 207.5,-58.5 102.5,-58.5"/>
<text text-anchor="middle" x="155" y="-66.5" font-family="Helvetica,sans-Serif" font-size="10.00">VariantAnimation.h</text>
</a>
</g>
<!-- Node2&#45;&gt;Node12 -->
<g id="edge24" class="edge"><title>Node2&#45;&gt;Node12</title>
<path fill="none" stroke="midnightblue" d="M364.375,-118.566C323.611,-108.916 256.405,-93.006 209.152,-81.8197"/>
<polygon fill="midnightblue" stroke="midnightblue" points="209.926,-78.4062 199.389,-79.5084 208.313,-85.218 209.926,-78.4062"/>
</g>
<!-- Node14 -->
<g id="node29" class="node"><title>Node14</title>
<polygon fill="white" stroke="#bfbfbf" points="402,-58.5 402,-79.5 494,-79.5 494,-58.5 402,-58.5"/>
<text text-anchor="middle" x="448" y="-66.5" font-family="Helvetica,sans-Serif" font-size="10.00">CustomEvents.h</text>
</g>
<!-- Node2&#45;&gt;Node14 -->
<g id="edge30" class="edge"><title>Node2&#45;&gt;Node14</title>
<path fill="none" stroke="midnightblue" d="M408.804,-116.362C415.502,-108.268 424.884,-96.9318 432.789,-87.3796"/>
<polygon fill="midnightblue" stroke="midnightblue" points="435.573,-89.5061 439.252,-79.5707 430.18,-85.0431 435.573,-89.5061"/>
</g>
<!-- Node4 -->
<g id="node7" class="node"><title>Node4</title>
<polygon fill="white" stroke="#bfbfbf" points="121.5,-0.5 121.5,-21.5 188.5,-21.5 188.5,-0.5 121.5,-0.5"/>
<text text-anchor="middle" x="155" y="-8.5" font-family="Helvetica,sans-Serif" font-size="10.00">Common.h</text>
</g>
<!-- Node3&#45;&gt;Node4 -->
<g id="edge6" class="edge"><title>Node3&#45;&gt;Node4</title>
<path fill="none" stroke="midnightblue" d="M321.626,-59.8097C288.435,-50.0871 235.818,-34.6739 198.603,-23.7725"/>
<polygon fill="midnightblue" stroke="midnightblue" points="199.124,-20.2782 188.543,-20.8258 197.156,-26.9959 199.124,-20.2782"/>
</g>
<!-- Node5 -->
<g id="node9" class="node"><title>Node5</title>
<polygon fill="white" stroke="#bfbfbf" points="386,-0.5 386,-21.5 478,-21.5 478,-0.5 386,-0.5"/>
<text text-anchor="middle" x="432" y="-8.5" font-family="Helvetica,sans-Serif" font-size="10.00">WindowTypes.h</text>
</g>
<!-- Node3&#45;&gt;Node5 -->
<g id="edge8" class="edge"><title>Node3&#45;&gt;Node5</title>
<path fill="none" stroke="midnightblue" d="M367.49,-58.3619C379.183,-49.7773 395.843,-37.5459 409.303,-27.6636"/>
<polygon fill="midnightblue" stroke="midnightblue" points="411.613,-30.31 417.602,-21.5707 407.47,-24.6675 411.613,-30.31"/>
</g>
<!-- Node6 -->
<g id="node11" class="node"><title>Node6</title>
<polygon fill="white" stroke="#bfbfbf" points="496,-0.5 496,-21.5 546,-21.5 546,-0.5 496,-0.5"/>
<text text-anchor="middle" x="521" y="-8.5" font-family="Helvetica,sans-Serif" font-size="10.00">stdint.h</text>
</g>
<!-- Node3&#45;&gt;Node6 -->
<g id="edge10" class="edge"><title>Node3&#45;&gt;Node6</title>
<path fill="none" stroke="midnightblue" d="M383.424,-58.4966C412.308,-48.5247 455.697,-33.5451 486.002,-23.0826"/>
<polygon fill="midnightblue" stroke="midnightblue" points="487.428,-26.2933 495.738,-19.7214 485.143,-19.6765 487.428,-26.2933"/>
</g>
<!-- Node7 -->
<g id="node13" class="node"><title>Node7</title>
<polygon fill="white" stroke="#bfbfbf" points="205.5,-0.5 205.5,-21.5 248.5,-21.5 248.5,-0.5 205.5,-0.5"/>
<text text-anchor="middle" x="227" y="-8.5" font-family="Helvetica,sans-Serif" font-size="10.00">string</text>
</g>
<!-- Node3&#45;&gt;Node7 -->
<g id="edge12" class="edge"><title>Node3&#45;&gt;Node7</title>
<path fill="none" stroke="midnightblue" d="M330.182,-58.4966C310.043,-49.2264 280.503,-35.6282 258.184,-25.3548"/>
<polygon fill="midnightblue" stroke="midnightblue" points="259.352,-22.0393 248.805,-21.0371 256.425,-28.398 259.352,-22.0393"/>
</g>
<!-- Node8 -->
<g id="node15" class="node"><title>Node8</title>
<polygon fill="white" stroke="#bfbfbf" points="265.5,-0.5 265.5,-21.5 306.5,-21.5 306.5,-0.5 265.5,-0.5"/>
<text text-anchor="middle" x="286" y="-8.5" font-family="Helvetica,sans-Serif" font-size="10.00">glib.h</text>
</g>
<!-- Node3&#45;&gt;Node8 -->
<g id="edge14" class="edge"><title>Node3&#45;&gt;Node8</title>
<path fill="none" stroke="midnightblue" d="M340.711,-58.3619C330.983,-49.9408 317.202,-38.0105 305.905,-28.2308"/>
<polygon fill="midnightblue" stroke="midnightblue" points="308.062,-25.4695 298.211,-21.5707 303.481,-30.7619 308.062,-25.4695"/>
</g>
<!-- Node3&#45;&gt;Node9 -->
<g id="edge16" class="edge"><title>Node3&#45;&gt;Node9</title>
<path fill="none" stroke="midnightblue" d="M384.398,-60.1808C387.301,-59.4214 390.201,-58.6832 393,-58 447.209,-44.7676 509.433,-31.6661 553.842,-22.6708"/>
<polygon fill="midnightblue" stroke="midnightblue" points="554.772,-26.0537 563.883,-20.6454 553.388,-19.1919 554.772,-26.0537"/>
</g>
<!-- Node10 -->
<g id="node19" class="node"><title>Node10</title>
<polygon fill="white" stroke="#bfbfbf" points="323.5,-0.5 323.5,-21.5 368.5,-21.5 368.5,-0.5 323.5,-0.5"/>
<text text-anchor="middle" x="346" y="-8.5" font-family="Helvetica,sans-Serif" font-size="10.00">QSize</text>
</g>
<!-- Node3&#45;&gt;Node10 -->
<g id="edge18" class="edge"><title>Node3&#45;&gt;Node10</title>
<path fill="none" stroke="midnightblue" d="M351.716,-58.3619C350.818,-50.9219 349.59,-40.7427 348.502,-31.7276"/>
<polygon fill="midnightblue" stroke="midnightblue" points="351.949,-31.0792 347.276,-21.5707 344.999,-31.918 351.949,-31.0792"/>
</g>
<!-- Node12&#45;&gt;Node4 -->
<g id="edge26" class="edge"><title>Node12&#45;&gt;Node4</title>
<path fill="none" stroke="midnightblue" d="M155,-58.3619C155,-50.9219 155,-40.7427 155,-31.7276"/>
<polygon fill="midnightblue" stroke="midnightblue" points="158.5,-31.5706 155,-21.5707 151.5,-31.5707 158.5,-31.5706"/>
</g>
<!-- Node13 -->
<g id="node27" class="node"><title>Node13</title>
<polygon fill="white" stroke="#bfbfbf" points="-0.5,-0.5 -0.5,-21.5 104.5,-21.5 104.5,-0.5 -0.5,-0.5"/>
<text text-anchor="middle" x="52" y="-8.5" font-family="Helvetica,sans-Serif" font-size="10.00">QVariantAnimation</text>
</g>
<!-- Node12&#45;&gt;Node13 -->
<g id="edge28" class="edge"><title>Node12&#45;&gt;Node13</title>
<path fill="none" stroke="midnightblue" d="M136.108,-58.3619C120.282,-49.4502 97.4774,-36.6087 79.6053,-26.5447"/>
<polygon fill="midnightblue" stroke="midnightblue" points="81.2029,-23.4276 70.772,-21.5707 77.7682,-29.5271 81.2029,-23.4276"/>
</g>
</g>
</svg>
