<?xml version="1.0" encoding="UTF-8" standalone="no"?>
<!DOCTYPE svg PUBLIC "-//W3C//DTD SVG 1.1//EN"
 "http://www.w3.org/Graphics/SVG/1.1/DTD/svg11.dtd">
<!-- Generated by graphviz version 2.26.3 (20100126.1600)
 -->
<!-- Title: StatusBarBattery.h Pages: 1 -->
<svg width="224pt" height="88pt"
 viewBox="0.00 0.00 224.00 88.00" xmlns="http://www.w3.org/2000/svg" xmlns:xlink="http://www.w3.org/1999/xlink">
<g id="graph1" class="graph" transform="scale(1 1) rotate(0) translate(4 84)">
<title>StatusBarBattery.h</title>
<polygon fill="white" stroke="white" points="-4,5 -4,-84 221,-84 221,5 -4,5"/>
<!-- Node1 -->
<g id="node1" class="node"><title>Node1</title>
<polygon fill="#bfbfbf" stroke="black" points="47,-58.5 47,-79.5 151,-79.5 151,-58.5 47,-58.5"/>
<text text-anchor="middle" x="99" y="-66.5" font-family="Helvetica,sans-Serif" font-size="10.00">StatusBarBattery.h</text>
</g>
<!-- Node2 -->
<g id="node3" class="node"><title>Node2</title>
<a xlink:href="StatusBar_8cpp.htm" target="_top" xlink:title="StatusBar.cpp">
<polygon fill="white" stroke="black" points="0,-0.5 0,-21.5 82,-21.5 82,-0.5 0,-0.5"/>
<text text-anchor="middle" x="41" y="-8.5" font-family="Helvetica,sans-Serif" font-size="10.00">StatusBar.cpp</text>
</a>
</g>
<!-- Node1&#45;&gt;Node2 -->
<g id="edge2" class="edge"><title>Node1&#45;&gt;Node2</title>
<path fill="none" stroke="midnightblue" d="M81.118,-51.118C71.4377,-41.4377 59.8098,-29.8098 51.5707,-21.5707"/>
<polygon fill="midnightblue" stroke="midnightblue" points="78.8159,-53.7657 88.3619,-58.3619 83.7657,-48.8159 78.8159,-53.7657"/>
</g>
<!-- Node3 -->
<g id="node5" class="node"><title>Node3</title>
<a xlink:href="StatusBarBattery_8cpp.htm" target="_top" xlink:title="StatusBarBattery.cpp">
<polygon fill="white" stroke="black" points="100,-0.5 100,-21.5 216,-21.5 216,-0.5 100,-0.5"/>
<text text-anchor="middle" x="158" y="-8.5" font-family="Helvetica,sans-Serif" font-size="10.00">StatusBarBattery.cpp</text>
</a>
</g>
<!-- Node1&#45;&gt;Node3 -->
<g id="edge4" class="edge"><title>Node1&#45;&gt;Node3</title>
<path fill="none" stroke="midnightblue" d="M117.19,-51.118C127.037,-41.4377 138.866,-29.8098 147.247,-21.5707"/>
<polygon fill="midnightblue" stroke="midnightblue" points="114.499,-48.8556 109.822,-58.3619 119.406,-53.8474 114.499,-48.8556"/>
</g>
</g>
</svg>
