<?xml version="1.0" encoding="UTF-8" standalone="no"?>
<!DOCTYPE svg PUBLIC "-//W3C//DTD SVG 1.1//EN"
 "http://www.w3.org/Graphics/SVG/1.1/DTD/svg11.dtd">
<!-- Generated by graphviz version 2.26.3 (20100126.1600)
 -->
<!-- Title: StatusBarInfo.cpp Pages: 1 -->
<svg width="1026pt" height="320pt"
 viewBox="0.00 0.00 1025.84 320.00" xmlns="http://www.w3.org/2000/svg" xmlns:xlink="http://www.w3.org/1999/xlink">
<g id="graph1" class="graph" transform="scale(1 1) rotate(0) translate(4 316)">
<title>StatusBarInfo.cpp</title>
<polygon fill="white" stroke="white" points="-4,5 -4,-316 1022.84,-316 1022.84,5 -4,5"/>
<!-- Node1 -->
<g id="node1" class="node"><title>Node1</title>
<polygon fill="#bfbfbf" stroke="black" points="450.84,-290.5 450.84,-311.5 550.84,-311.5 550.84,-290.5 450.84,-290.5"/>
<text text-anchor="middle" x="500.84" y="-298.5" font-family="Helvetica,sans-Serif" font-size="10.00">StatusBarInfo.cpp</text>
</g>
<!-- Node2 -->
<g id="node3" class="node"><title>Node2</title>
<a xlink:href="StatusBarInfo_8h.htm" target="_top" xlink:title="StatusBarInfo.h">
<polygon fill="white" stroke="black" points="330.34,-232.5 330.34,-253.5 419.34,-253.5 419.34,-232.5 330.34,-232.5"/>
<text text-anchor="middle" x="374.84" y="-240.5" font-family="Helvetica,sans-Serif" font-size="10.00">StatusBarInfo.h</text>
</a>
</g>
<!-- Node1&#45;&gt;Node2 -->
<g id="edge2" class="edge"><title>Node1&#45;&gt;Node2</title>
<path fill="none" stroke="midnightblue" d="M478.023,-290.497C458.254,-281.397 429.427,-268.127 407.264,-257.925"/>
<polygon fill="midnightblue" stroke="midnightblue" points="408.461,-254.623 397.914,-253.621 405.534,-260.982 408.461,-254.623"/>
</g>
<!-- Node20 -->
<g id="node43" class="node"><title>Node20</title>
<polygon fill="white" stroke="#bfbfbf" points="13.3402,-116.5 13.3402,-137.5 72.3402,-137.5 72.3402,-116.5 13.3402,-116.5"/>
<text text-anchor="middle" x="42.8402" y="-124.5" font-family="Helvetica,sans-Serif" font-size="10.00">QPainter</text>
</g>
<!-- Node1&#45;&gt;Node20 -->
<g id="edge90" class="edge"><title>Node1&#45;&gt;Node20</title>
<path fill="none" stroke="midnightblue" d="M453.16,-290.49C386.32,-274.807 261.853,-242.107 162.84,-196 128.799,-180.148 91.6058,-157.94 67.7914,-143.042"/>
<polygon fill="midnightblue" stroke="midnightblue" points="69.3784,-139.905 59.0537,-137.527 65.6423,-145.824 69.3784,-139.905"/>
</g>
<!-- Node22 -->
<g id="node50" class="node"><title>Node22</title>
<a xlink:href="StatusBarServicesConnector_8h.htm" target="_top" xlink:title="StatusBarServicesConnector.h">
<polygon fill="white" stroke="black" points="475.34,-174.5 475.34,-195.5 636.34,-195.5 636.34,-174.5 475.34,-174.5"/>
<text text-anchor="middle" x="555.84" y="-182.5" font-family="Helvetica,sans-Serif" font-size="10.00">StatusBarServicesConnector.h</text>
</a>
</g>
<!-- Node1&#45;&gt;Node22 -->
<g id="edge88" class="edge"><title>Node1&#45;&gt;Node22</title>
<path fill="none" stroke="midnightblue" d="M502.478,-290.256C504.899,-276.279 510.22,-251.361 519.84,-232 524.864,-221.889 532.205,-211.802 538.949,-203.58"/>
<polygon fill="midnightblue" stroke="midnightblue" points="541.795,-205.636 545.639,-195.763 536.477,-201.085 541.795,-205.636"/>
</g>
<!-- Node25 -->
<g id="node60" class="node"><title>Node25</title>
<polygon fill="white" stroke="#bfbfbf" points="528.34,-232.5 528.34,-253.5 591.34,-253.5 591.34,-232.5 528.34,-232.5"/>
<text text-anchor="middle" x="559.84" y="-240.5" font-family="Helvetica,sans-Serif" font-size="10.00">Settings.h</text>
</g>
<!-- Node1&#45;&gt;Node25 -->
<g id="edge70" class="edge"><title>Node1&#45;&gt;Node25</title>
<path fill="none" stroke="midnightblue" d="M511.662,-290.362C520.062,-282.104 531.894,-270.472 541.73,-260.803"/>
<polygon fill="midnightblue" stroke="midnightblue" points="544.41,-263.077 549.087,-253.571 539.502,-258.085 544.41,-263.077"/>
</g>
<!-- Node26 -->
<g id="node62" class="node"><title>Node26</title>
<a xlink:href="Preferences_8h.htm" target="_top" xlink:title="Preferences.h">
<polygon fill="white" stroke="black" points="734.34,-174.5 734.34,-195.5 817.34,-195.5 817.34,-174.5 734.34,-174.5"/>
<text text-anchor="middle" x="775.84" y="-182.5" font-family="Helvetica,sans-Serif" font-size="10.00">Preferences.h</text>
</a>
</g>
<!-- Node1&#45;&gt;Node26 -->
<g id="edge72" class="edge"><title>Node1&#45;&gt;Node26</title>
<path fill="none" stroke="midnightblue" d="M526.219,-290.295C575.765,-269.395 685.411,-223.145 741.434,-199.513"/>
<polygon fill="midnightblue" stroke="midnightblue" points="743.067,-202.623 750.92,-195.512 740.346,-196.173 743.067,-202.623"/>
</g>
<!-- Node3 -->
<g id="node5" class="node"><title>Node3</title>
<a xlink:href="StatusBar_8h.htm" target="_top" xlink:title="StatusBar.h">
<polygon fill="white" stroke="black" points="419.34,-116.5 419.34,-137.5 490.34,-137.5 490.34,-116.5 419.34,-116.5"/>
<text text-anchor="middle" x="454.84" y="-124.5" font-family="Helvetica,sans-Serif" font-size="10.00">StatusBar.h</text>
</a>
</g>
<!-- Node2&#45;&gt;Node3 -->
<g id="edge4" class="edge"><title>Node2&#45;&gt;Node3</title>
<path fill="none" stroke="midnightblue" d="M390.938,-232.322C402.816,-223.729 418.624,-210.695 428.84,-196 439.088,-181.258 445.911,-161.959 449.986,-147.521"/>
<polygon fill="midnightblue" stroke="midnightblue" points="453.441,-148.143 452.578,-137.584 446.667,-146.377 453.441,-148.143"/>
</g>
<!-- Node10 -->
<g id="node19" class="node"><title>Node10</title>
<polygon fill="white" stroke="#bfbfbf" points="341.84,-0.5 341.84,-21.5 439.84,-21.5 439.84,-0.5 341.84,-0.5"/>
<text text-anchor="middle" x="390.84" y="-8.5" font-family="Helvetica,sans-Serif" font-size="10.00">QGraphicsObject</text>
</g>
<!-- Node2&#45;&gt;Node10 -->
<g id="edge66" class="edge"><title>Node2&#45;&gt;Node10</title>
<path fill="none" stroke="midnightblue" d="M330.037,-236.221C222.704,-219.005 -37.2262,-171.038 4.8402,-116 44.4519,-64.1738 233.775,-31.8693 331.764,-18.3428"/>
<polygon fill="midnightblue" stroke="midnightblue" points="332.376,-21.7919 341.813,-16.9773 331.433,-14.8557 332.376,-21.7919"/>
</g>
<!-- Node16 -->
<g id="node33" class="node"><title>Node16</title>
<a xlink:href="StatusBarItem_8h.htm" target="_top" xlink:title="StatusBarItem.h">
<polygon fill="white" stroke="black" points="329.34,-174.5 329.34,-195.5 420.34,-195.5 420.34,-174.5 329.34,-174.5"/>
<text text-anchor="middle" x="374.84" y="-182.5" font-family="Helvetica,sans-Serif" font-size="10.00">StatusBarItem.h</text>
</a>
</g>
<!-- Node2&#45;&gt;Node16 -->
<g id="edge34" class="edge"><title>Node2&#45;&gt;Node16</title>
<path fill="none" stroke="midnightblue" d="M374.84,-232.362C374.84,-224.922 374.84,-214.743 374.84,-205.728"/>
<polygon fill="midnightblue" stroke="midnightblue" points="378.34,-205.571 374.84,-195.571 371.34,-205.571 378.34,-205.571"/>
</g>
<!-- Node17 -->
<g id="node37" class="node"><title>Node17</title>
<a xlink:href="StatusBarIcon_8h.htm" target="_top" xlink:title="StatusBarIcon.h">
<polygon fill="white" stroke="black" points="207.34,-174.5 207.34,-195.5 298.34,-195.5 298.34,-174.5 207.34,-174.5"/>
<text text-anchor="middle" x="252.84" y="-182.5" font-family="Helvetica,sans-Serif" font-size="10.00">StatusBarIcon.h</text>
</a>
</g>
<!-- Node2&#45;&gt;Node17 -->
<g id="edge40" class="edge"><title>Node2&#45;&gt;Node17</title>
<path fill="none" stroke="midnightblue" d="M352.747,-232.497C333.606,-223.397 305.694,-210.127 284.235,-199.925"/>
<polygon fill="midnightblue" stroke="midnightblue" points="285.716,-196.754 275.181,-195.621 282.71,-203.076 285.716,-196.754"/>
</g>
<!-- Node18 -->
<g id="node39" class="node"><title>Node18</title>
<polygon fill="white" stroke="#bfbfbf" points="89.3402,-116.5 89.3402,-137.5 148.34,-137.5 148.34,-116.5 89.3402,-116.5"/>
<text text-anchor="middle" x="118.84" y="-124.5" font-family="Helvetica,sans-Serif" font-size="10.00">QPixmap</text>
</g>
<!-- Node2&#45;&gt;Node18 -->
<g id="edge68" class="edge"><title>Node2&#45;&gt;Node18</title>
<path fill="none" stroke="midnightblue" d="M330.136,-236.774C293.287,-230.333 240.5,-218.025 198.84,-196 173.986,-182.86 150.214,-160.718 135.139,-145.065"/>
<polygon fill="midnightblue" stroke="midnightblue" points="137.485,-142.45 128.089,-137.553 132.381,-147.24 137.485,-142.45"/>
</g>
<!-- Node2&#45;&gt;Node22 -->
<g id="edge56" class="edge"><title>Node2&#45;&gt;Node22</title>
<path fill="none" stroke="midnightblue" d="M407.618,-232.497C437.254,-223 481.062,-208.962 513.372,-198.609"/>
<polygon fill="midnightblue" stroke="midnightblue" points="514.546,-201.908 523.001,-195.523 512.41,-195.242 514.546,-201.908"/>
</g>
<!-- Node4 -->
<g id="node7" class="node"><title>Node4</title>
<a xlink:href="Window_8h.htm" target="_top" xlink:title="Window.h">
<polygon fill="white" stroke="black" points="764.84,-58.5 764.84,-79.5 826.84,-79.5 826.84,-58.5 764.84,-58.5"/>
<text text-anchor="middle" x="795.84" y="-66.5" font-family="Helvetica,sans-Serif" font-size="10.00">Window.h</text>
</a>
</g>
<!-- Node3&#45;&gt;Node4 -->
<g id="edge6" class="edge"><title>Node3&#45;&gt;Node4</title>
<path fill="none" stroke="midnightblue" d="M490.8,-117.736C493.514,-117.121 496.217,-116.534 498.84,-116 589.374,-97.5571 696.681,-82.151 754.298,-74.3977"/>
<polygon fill="midnightblue" stroke="midnightblue" points="755.014,-77.8332 764.463,-73.04 754.087,-70.8948 755.014,-77.8332"/>
</g>
<!-- Node3&#45;&gt;Node10 -->
<g id="edge24" class="edge"><title>Node3&#45;&gt;Node10</title>
<path fill="none" stroke="midnightblue" d="M448.934,-116.295C438.17,-96.7861 415.22,-55.1884 401.609,-30.5177"/>
<polygon fill="midnightblue" stroke="midnightblue" points="404.628,-28.7442 396.732,-21.6792 398.498,-32.1258 404.628,-28.7442"/>
</g>
<!-- Node12 -->
<g id="node23" class="node"><title>Node12</title>
<polygon fill="white" stroke="#bfbfbf" points="295.34,-58.5 295.34,-79.5 354.34,-79.5 354.34,-58.5 295.34,-58.5"/>
<text text-anchor="middle" x="324.84" y="-66.5" font-family="Helvetica,sans-Serif" font-size="10.00">QPointer</text>
</g>
<!-- Node3&#45;&gt;Node12 -->
<g id="edge22" class="edge"><title>Node3&#45;&gt;Node12</title>
<path fill="none" stroke="midnightblue" d="M431.298,-116.497C410.811,-107.356 380.893,-94.0082 357.986,-83.7883"/>
<polygon fill="midnightblue" stroke="midnightblue" points="359.205,-80.4994 348.646,-79.6212 356.353,-86.892 359.205,-80.4994"/>
</g>
<!-- Node13 -->
<g id="node26" class="node"><title>Node13</title>
<a xlink:href="VariantAnimation_8h.htm" target="_top" xlink:title="VariantAnimation.h">
<polygon fill="white" stroke="black" points="457.34,-58.5 457.34,-79.5 562.34,-79.5 562.34,-58.5 457.34,-58.5"/>
<text text-anchor="middle" x="509.84" y="-66.5" font-family="Helvetica,sans-Serif" font-size="10.00">VariantAnimation.h</text>
</a>
</g>
<!-- Node3&#45;&gt;Node13 -->
<g id="edge26" class="edge"><title>Node3&#45;&gt;Node13</title>
<path fill="none" stroke="midnightblue" d="M464.928,-116.362C472.681,-108.186 483.571,-96.7025 492.685,-87.0907"/>
<polygon fill="midnightblue" stroke="midnightblue" points="495.475,-89.2352 499.816,-79.5707 490.396,-84.4186 495.475,-89.2352"/>
</g>
<!-- Node15 -->
<g id="node31" class="node"><title>Node15</title>
<polygon fill="white" stroke="#bfbfbf" points="869.84,-58.5 869.84,-79.5 961.84,-79.5 961.84,-58.5 869.84,-58.5"/>
<text text-anchor="middle" x="915.84" y="-66.5" font-family="Helvetica,sans-Serif" font-size="10.00">CustomEvents.h</text>
</g>
<!-- Node3&#45;&gt;Node15 -->
<g id="edge32" class="edge"><title>Node3&#45;&gt;Node15</title>
<path fill="none" stroke="midnightblue" d="M490.771,-117.586C493.492,-117.006 496.204,-116.468 498.84,-116 647.151,-89.6703 686.321,-98.2614 835.84,-80 843.57,-79.0559 851.712,-78.0036 859.723,-76.9346"/>
<polygon fill="midnightblue" stroke="midnightblue" points="860.319,-80.386 869.76,-75.5783 859.381,-73.449 860.319,-80.386"/>
</g>
<!-- Node5 -->
<g id="node9" class="node"><title>Node5</title>
<polygon fill="white" stroke="#bfbfbf" points="579.34,-0.5 579.34,-21.5 646.34,-21.5 646.34,-0.5 579.34,-0.5"/>
<text text-anchor="middle" x="612.84" y="-8.5" font-family="Helvetica,sans-Serif" font-size="10.00">Common.h</text>
</g>
<!-- Node4&#45;&gt;Node5 -->
<g id="edge8" class="edge"><title>Node4&#45;&gt;Node5</title>
<path fill="none" stroke="midnightblue" d="M764.797,-59.1611C734.947,-49.7005 689.56,-35.3156 656.158,-24.7292"/>
<polygon fill="midnightblue" stroke="midnightblue" points="656.798,-21.2603 646.207,-21.5754 654.683,-27.9332 656.798,-21.2603"/>
</g>
<!-- Node6 -->
<g id="node11" class="node"><title>Node6</title>
<polygon fill="white" stroke="#bfbfbf" points="663.84,-0.5 663.84,-21.5 755.84,-21.5 755.84,-0.5 663.84,-0.5"/>
<text text-anchor="middle" x="709.84" y="-8.5" font-family="Helvetica,sans-Serif" font-size="10.00">WindowTypes.h</text>
</g>
<!-- Node4&#45;&gt;Node6 -->
<g id="edge10" class="edge"><title>Node4&#45;&gt;Node6</title>
<path fill="none" stroke="midnightblue" d="M780.066,-58.3619C767.216,-49.6955 748.855,-37.3126 734.131,-27.3819"/>
<polygon fill="midnightblue" stroke="midnightblue" points="735.762,-24.2604 725.514,-21.5707 731.848,-30.0639 735.762,-24.2604"/>
</g>
<!-- Node7 -->
<g id="node13" class="node"><title>Node7</title>
<polygon fill="white" stroke="#bfbfbf" points="773.84,-0.5 773.84,-21.5 823.84,-21.5 823.84,-0.5 773.84,-0.5"/>
<text text-anchor="middle" x="798.84" y="-8.5" font-family="Helvetica,sans-Serif" font-size="10.00">stdint.h</text>
</g>
<!-- Node4&#45;&gt;Node7 -->
<g id="edge12" class="edge"><title>Node4&#45;&gt;Node7</title>
<path fill="none" stroke="midnightblue" d="M796.39,-58.3619C796.775,-50.9219 797.302,-40.7427 797.768,-31.7276"/>
<polygon fill="midnightblue" stroke="midnightblue" points="801.272,-31.7381 798.293,-21.5707 794.281,-31.3765 801.272,-31.7381"/>
</g>
<!-- Node8 -->
<g id="node15" class="node"><title>Node8</title>
<polygon fill="white" stroke="#bfbfbf" points="975.34,-0.5 975.34,-21.5 1018.34,-21.5 1018.34,-0.5 975.34,-0.5"/>
<text text-anchor="middle" x="996.84" y="-8.5" font-family="Helvetica,sans-Serif" font-size="10.00">string</text>
</g>
<!-- Node4&#45;&gt;Node8 -->
<g id="edge14" class="edge"><title>Node4&#45;&gt;Node8</title>
<path fill="none" stroke="midnightblue" d="M827.246,-59.9375C864.891,-49.0749 927.604,-30.9787 965.305,-20.0996"/>
<polygon fill="midnightblue" stroke="midnightblue" points="966.597,-23.3699 975.234,-17.2345 964.656,-16.6443 966.597,-23.3699"/>
</g>
<!-- Node9 -->
<g id="node17" class="node"><title>Node9</title>
<polygon fill="white" stroke="#bfbfbf" points="841.34,-0.5 841.34,-21.5 882.34,-21.5 882.34,-0.5 841.34,-0.5"/>
<text text-anchor="middle" x="861.84" y="-8.5" font-family="Helvetica,sans-Serif" font-size="10.00">glib.h</text>
</g>
<!-- Node4&#45;&gt;Node9 -->
<g id="edge16" class="edge"><title>Node4&#45;&gt;Node9</title>
<path fill="none" stroke="midnightblue" d="M807.946,-58.3619C817.528,-49.9408 831.104,-38.0105 842.233,-28.2308"/>
<polygon fill="midnightblue" stroke="midnightblue" points="844.61,-30.8009 849.812,-21.5707 839.989,-25.5427 844.61,-30.8009"/>
</g>
<!-- Node4&#45;&gt;Node10 -->
<g id="edge18" class="edge"><title>Node4&#45;&gt;Node10</title>
<path fill="none" stroke="midnightblue" d="M764.653,-65.3362C705.39,-58.2534 572.22,-41.7609 449.778,-22.0895"/>
<polygon fill="midnightblue" stroke="midnightblue" points="450.286,-18.6263 439.856,-20.4844 449.169,-25.5365 450.286,-18.6263"/>
</g>
<!-- Node11 -->
<g id="node21" class="node"><title>Node11</title>
<polygon fill="white" stroke="#bfbfbf" points="899.34,-0.5 899.34,-21.5 944.34,-21.5 944.34,-0.5 899.34,-0.5"/>
<text text-anchor="middle" x="921.84" y="-8.5" font-family="Helvetica,sans-Serif" font-size="10.00">QSize</text>
</g>
<!-- Node4&#45;&gt;Node11 -->
<g id="edge20" class="edge"><title>Node4&#45;&gt;Node11</title>
<path fill="none" stroke="midnightblue" d="M818.658,-58.4966C838.55,-49.3401 867.614,-35.9612 889.831,-25.7344"/>
<polygon fill="midnightblue" stroke="midnightblue" points="891.572,-28.7861 899.192,-21.4252 888.645,-22.4274 891.572,-28.7861"/>
</g>
<!-- Node13&#45;&gt;Node5 -->
<g id="edge28" class="edge"><title>Node13&#45;&gt;Node5</title>
<path fill="none" stroke="midnightblue" d="M528.732,-58.3619C544.558,-49.4502 567.363,-36.6087 585.235,-26.5447"/>
<polygon fill="midnightblue" stroke="midnightblue" points="587.072,-29.5271 594.068,-21.5707 583.637,-23.4276 587.072,-29.5271"/>
</g>
<!-- Node14 -->
<g id="node29" class="node"><title>Node14</title>
<polygon fill="white" stroke="#bfbfbf" points="457.34,-0.5 457.34,-21.5 562.34,-21.5 562.34,-0.5 457.34,-0.5"/>
<text text-anchor="middle" x="509.84" y="-8.5" font-family="Helvetica,sans-Serif" font-size="10.00">QVariantAnimation</text>
</g>
<!-- Node13&#45;&gt;Node14 -->
<g id="edge30" class="edge"><title>Node13&#45;&gt;Node14</title>
<path fill="none" stroke="midnightblue" d="M509.84,-58.3619C509.84,-50.9219 509.84,-40.7427 509.84,-31.7276"/>
<polygon fill="midnightblue" stroke="midnightblue" points="513.34,-31.5706 509.84,-21.5707 506.34,-31.5707 513.34,-31.5706"/>
</g>
<!-- Node16&#45;&gt;Node3 -->
<g id="edge36" class="edge"><title>Node16&#45;&gt;Node3</title>
<path fill="none" stroke="midnightblue" d="M389.513,-174.362C401.354,-165.777 418.225,-153.546 431.856,-143.664"/>
<polygon fill="midnightblue" stroke="midnightblue" points="434.218,-146.274 440.26,-137.571 430.109,-140.607 434.218,-146.274"/>
</g>
<!-- Node16&#45;&gt;Node10 -->
<g id="edge38" class="edge"><title>Node16&#45;&gt;Node10</title>
<path fill="none" stroke="midnightblue" d="M375.817,-174.377C378.399,-146.293 385.445,-69.6735 388.891,-32.2027"/>
<polygon fill="midnightblue" stroke="midnightblue" points="392.405,-32.2062 389.835,-21.9277 385.434,-31.5652 392.405,-32.2062"/>
</g>
<!-- Node17&#45;&gt;Node10 -->
<g id="edge48" class="edge"><title>Node17&#45;&gt;Node10</title>
<path fill="none" stroke="midnightblue" d="M232.489,-174.306C211.087,-161.542 182.14,-139.02 194.84,-116 222.695,-65.5109 284.775,-38.1931 331.656,-24.1957"/>
<polygon fill="midnightblue" stroke="midnightblue" points="332.759,-27.5209 341.412,-21.4075 330.835,-20.7904 332.759,-27.5209"/>
</g>
<!-- Node17&#45;&gt;Node12 -->
<g id="edge50" class="edge"><title>Node17&#45;&gt;Node12</title>
<path fill="none" stroke="midnightblue" d="M264.967,-174.404C274.614,-165.468 287.928,-151.936 296.84,-138 306.498,-122.899 313.908,-103.914 318.672,-89.683"/>
<polygon fill="midnightblue" stroke="midnightblue" points="322.097,-90.4604 321.792,-79.8699 315.426,-88.3389 322.097,-90.4604"/>
</g>
<!-- Node17&#45;&gt;Node13 -->
<g id="edge54" class="edge"><title>Node17&#45;&gt;Node13</title>
<path fill="none" stroke="midnightblue" d="M276.557,-174.295C322.765,-153.438 424.906,-107.336 477.36,-83.6603"/>
<polygon fill="midnightblue" stroke="midnightblue" points="478.877,-86.8158 486.551,-79.5117 475.997,-80.4356 478.877,-86.8158"/>
</g>
<!-- Node17&#45;&gt;Node18 -->
<g id="edge42" class="edge"><title>Node17&#45;&gt;Node18</title>
<path fill="none" stroke="midnightblue" d="M228.574,-174.497C207.362,-165.315 176.342,-151.889 152.69,-141.652"/>
<polygon fill="midnightblue" stroke="midnightblue" points="153.946,-138.381 143.379,-137.621 151.166,-144.806 153.946,-138.381"/>
</g>
<!-- Node19 -->
<g id="node41" class="node"><title>Node19</title>
<polygon fill="white" stroke="#bfbfbf" points="555.34,-116.5 555.34,-137.5 610.34,-137.5 610.34,-116.5 555.34,-116.5"/>
<text text-anchor="middle" x="582.84" y="-124.5" font-family="Helvetica,sans-Serif" font-size="10.00">QObject</text>
</g>
<!-- Node17&#45;&gt;Node19 -->
<g id="edge44" class="edge"><title>Node17&#45;&gt;Node19</title>
<path fill="none" stroke="midnightblue" d="M298.56,-177.589C306.006,-176.386 313.637,-175.156 320.84,-174 418.127,-158.383 446.017,-160.745 545.209,-138.176"/>
<polygon fill="midnightblue" stroke="midnightblue" points="546.076,-141.568 555.035,-135.912 544.505,-134.746 546.076,-141.568"/>
</g>
<!-- Node17&#45;&gt;Node20 -->
<g id="edge46" class="edge"><title>Node17&#45;&gt;Node20</title>
<path fill="none" stroke="midnightblue" d="M213.514,-174.434C180.734,-165.587 132.557,-152.491 82.4147,-138.421"/>
<polygon fill="midnightblue" stroke="midnightblue" points="83.2729,-135.027 72.6988,-135.689 81.3782,-141.765 83.2729,-135.027"/>
</g>
<!-- Node21 -->
<g id="node47" class="node"><title>Node21</title>
<polygon fill="white" stroke="#bfbfbf" points="203.34,-116.5 203.34,-137.5 288.34,-137.5 288.34,-116.5 203.34,-116.5"/>
<text text-anchor="middle" x="245.84" y="-124.5" font-family="Helvetica,sans-Serif" font-size="10.00">QEasingCurve</text>
</g>
<!-- Node17&#45;&gt;Node21 -->
<g id="edge52" class="edge"><title>Node17&#45;&gt;Node21</title>
<path fill="none" stroke="midnightblue" d="M251.556,-174.362C250.658,-166.922 249.43,-156.743 248.342,-147.728"/>
<polygon fill="midnightblue" stroke="midnightblue" points="251.789,-147.079 247.116,-137.571 244.839,-147.918 251.789,-147.079"/>
</g>
<!-- Node22&#45;&gt;Node3 -->
<g id="edge64" class="edge"><title>Node22&#45;&gt;Node3</title>
<path fill="none" stroke="midnightblue" d="M537.315,-174.362C521.939,-165.532 499.844,-152.844 482.393,-142.822"/>
<polygon fill="midnightblue" stroke="midnightblue" points="483.663,-139.515 473.248,-137.571 480.177,-145.586 483.663,-139.515"/>
</g>
<!-- Node22&#45;&gt;Node19 -->
<g id="edge58" class="edge"><title>Node22&#45;&gt;Node19</title>
<path fill="none" stroke="midnightblue" d="M560.792,-174.362C564.37,-166.677 569.308,-156.069 573.604,-146.84"/>
<polygon fill="midnightblue" stroke="midnightblue" points="576.872,-148.114 577.919,-137.571 570.526,-145.159 576.872,-148.114"/>
</g>
<!-- Node23 -->
<g id="node53" class="node"><title>Node23</title>
<polygon fill="white" stroke="#bfbfbf" points="627.84,-116.5 627.84,-137.5 705.84,-137.5 705.84,-116.5 627.84,-116.5"/>
<text text-anchor="middle" x="666.84" y="-124.5" font-family="Helvetica,sans-Serif" font-size="10.00">lunaservice.h</text>
</g>
<!-- Node22&#45;&gt;Node23 -->
<g id="edge60" class="edge"><title>Node22&#45;&gt;Node23</title>
<path fill="none" stroke="midnightblue" d="M575.941,-174.497C593.122,-165.519 618.07,-152.484 637.485,-142.339"/>
<polygon fill="midnightblue" stroke="midnightblue" points="639.271,-145.354 646.513,-137.621 636.029,-139.15 639.271,-145.354"/>
</g>
<!-- Node24 -->
<g id="node55" class="node"><title>Node24</title>
<polygon fill="white" stroke="#bfbfbf" points="507.34,-116.5 507.34,-137.5 538.34,-137.5 538.34,-116.5 507.34,-116.5"/>
<text text-anchor="middle" x="522.84" y="-124.5" font-family="Helvetica,sans-Serif" font-size="10.00">set</text>
</g>
<!-- Node22&#45;&gt;Node24 -->
<g id="edge62" class="edge"><title>Node22&#45;&gt;Node24</title>
<path fill="none" stroke="midnightblue" d="M549.787,-174.362C545.368,-166.595 539.251,-155.843 533.961,-146.546"/>
<polygon fill="midnightblue" stroke="midnightblue" points="536.842,-144.531 528.855,-137.571 530.758,-147.993 536.842,-144.531"/>
</g>
<!-- Node26&#45;&gt;Node5 -->
<g id="edge74" class="edge"><title>Node26&#45;&gt;Node5</title>
<path fill="none" stroke="midnightblue" d="M766.485,-174.103C754.645,-160.385 733.534,-136.171 714.84,-116 685.888,-84.7613 651.13,-49.4241 630.575,-28.7423"/>
<polygon fill="midnightblue" stroke="midnightblue" points="632.97,-26.1881 623.434,-21.5725 628.011,-31.1278 632.97,-26.1881"/>
</g>
<!-- Node26&#45;&gt;Node8 -->
<g id="edge78" class="edge"><title>Node26&#45;&gt;Node8</title>
<path fill="none" stroke="midnightblue" d="M817.443,-180.214C868.217,-173.512 949.912,-159.665 970.84,-138 998.464,-109.404 1000.34,-59.7967 998.856,-31.7944"/>
<polygon fill="midnightblue" stroke="midnightblue" points="1002.33,-31.28 998.108,-21.562 995.346,-31.7906 1002.33,-31.28"/>
</g>
<!-- Node26&#45;&gt;Node15 -->
<g id="edge84" class="edge"><title>Node26&#45;&gt;Node15</title>
<path fill="none" stroke="midnightblue" d="M817.643,-179.913C865.13,-173.175 938.209,-159.561 954.84,-138 967.364,-121.763 952.091,-101.048 937.14,-86.5707"/>
<polygon fill="midnightblue" stroke="midnightblue" points="939.254,-83.762 929.5,-79.6254 934.545,-88.9418 939.254,-83.762"/>
</g>
<!-- Node26&#45;&gt;Node19 -->
<g id="edge86" class="edge"><title>Node26&#45;&gt;Node19</title>
<path fill="none" stroke="midnightblue" d="M740.281,-174.418C710.501,-165.541 666.621,-152.429 620.019,-138.347"/>
<polygon fill="midnightblue" stroke="midnightblue" points="620.938,-134.969 610.353,-135.424 618.911,-141.669 620.938,-134.969"/>
</g>
<!-- Node26&#45;&gt;Node23 -->
<g id="edge80" class="edge"><title>Node26&#45;&gt;Node23</title>
<path fill="none" stroke="midnightblue" d="M756.101,-174.497C739.23,-165.519 714.732,-152.484 695.666,-142.339"/>
<polygon fill="midnightblue" stroke="midnightblue" points="697.273,-139.229 686.801,-137.621 693.985,-145.409 697.273,-139.229"/>
</g>
<!-- Node27 -->
<g id="node65" class="node"><title>Node27</title>
<polygon fill="white" stroke="#bfbfbf" points="761.84,-116.5 761.84,-137.5 875.84,-137.5 875.84,-116.5 761.84,-116.5"/>
<text text-anchor="middle" x="818.84" y="-124.5" font-family="Helvetica,sans-Serif" font-size="10.00">LocalePreferences.h</text>
</g>
<!-- Node26&#45;&gt;Node27 -->
<g id="edge76" class="edge"><title>Node26&#45;&gt;Node27</title>
<path fill="none" stroke="midnightblue" d="M783.727,-174.362C789.667,-166.35 797.963,-155.161 804.999,-145.67"/>
<polygon fill="midnightblue" stroke="midnightblue" points="807.859,-147.688 811.003,-137.571 802.236,-143.519 807.859,-147.688"/>
</g>
<!-- Node28 -->
<g id="node69" class="node"><title>Node28</title>
<polygon fill="white" stroke="#bfbfbf" points="893.34,-116.5 893.34,-137.5 946.34,-137.5 946.34,-116.5 893.34,-116.5"/>
<text text-anchor="middle" x="919.84" y="-124.5" font-family="Helvetica,sans-Serif" font-size="10.00">Mutex.h</text>
</g>
<!-- Node26&#45;&gt;Node28 -->
<g id="edge82" class="edge"><title>Node26&#45;&gt;Node28</title>
<path fill="none" stroke="midnightblue" d="M801.918,-174.497C824.915,-165.234 858.641,-151.65 884.14,-141.379"/>
<polygon fill="midnightblue" stroke="midnightblue" points="885.502,-144.604 893.47,-137.621 882.887,-138.111 885.502,-144.604"/>
</g>
</g>
</svg>
