<?xml version="1.0" encoding="UTF-8" standalone="no"?>
<!DOCTYPE svg PUBLIC "-//W3C//DTD SVG 1.1//EN"
 "http://www.w3.org/Graphics/SVG/1.1/DTD/svg11.dtd">
<!-- Generated by graphviz version 2.26.3 (20100126.1600)
 -->
<!-- Title: StatusBarServicesConnector.h Pages: 1 -->
<svg width="1999pt" height="320pt"
 viewBox="0.00 0.00 1999.00 320.00" xmlns="http://www.w3.org/2000/svg" xmlns:xlink="http://www.w3.org/1999/xlink">
<g id="graph1" class="graph" transform="scale(1 1) rotate(0) translate(4 316)">
<title>StatusBarServicesConnector.h</title>
<polygon fill="white" stroke="white" points="-4,5 -4,-316 1996,-316 1996,5 -4,5"/>
<!-- Node1 -->
<g id="node1" class="node"><title>Node1</title>
<polygon fill="#bfbfbf" stroke="black" points="1342.5,-290.5 1342.5,-311.5 1503.5,-311.5 1503.5,-290.5 1342.5,-290.5"/>
<text text-anchor="middle" x="1423" y="-298.5" font-family="Helvetica,sans-Serif" font-size="10.00">StatusBarServicesConnector.h</text>
</g>
<!-- Node2 -->
<g id="node3" class="node"><title>Node2</title>
<a xlink:href="SystemService_8cpp.htm" target="_top" xlink:title="SystemService.cpp">
<polygon fill="white" stroke="black" points="967,-232.5 967,-253.5 1073,-253.5 1073,-232.5 967,-232.5"/>
<text text-anchor="middle" x="1020" y="-240.5" font-family="Helvetica,sans-Serif" font-size="10.00">SystemService.cpp</text>
</a>
</g>
<!-- Node1&#45;&gt;Node2 -->
<g id="edge2" class="edge"><title>Node1&#45;&gt;Node2</title>
<path fill="none" stroke="midnightblue" d="M1332.32,-289.47C1263.53,-280.489 1166.68,-267.343 1082,-254 1079.08,-253.541 1076.09,-253.056 1073.08,-252.556"/>
<polygon fill="midnightblue" stroke="midnightblue" points="1331.89,-292.944 1342.26,-290.765 1332.8,-286.003 1331.89,-292.944"/>
</g>
<!-- Node3 -->
<g id="node5" class="node"><title>Node3</title>
<a xlink:href="SystemUiController_8cpp.htm" target="_top" xlink:title="SystemUiController.cpp">
<polygon fill="white" stroke="black" points="1090.5,-232.5 1090.5,-253.5 1217.5,-253.5 1217.5,-232.5 1090.5,-232.5"/>
<text text-anchor="middle" x="1154" y="-240.5" font-family="Helvetica,sans-Serif" font-size="10.00">SystemUiController.cpp</text>
</a>
</g>
<!-- Node1&#45;&gt;Node3 -->
<g id="edge4" class="edge"><title>Node1&#45;&gt;Node3</title>
<path fill="none" stroke="midnightblue" d="M1364.28,-288.339C1315.94,-277.916 1248.21,-263.313 1202.81,-253.523"/>
<polygon fill="midnightblue" stroke="midnightblue" points="1363.77,-291.81 1374.29,-290.497 1365.25,-284.967 1363.77,-291.81"/>
</g>
<!-- Node4 -->
<g id="node7" class="node"><title>Node4</title>
<a xlink:href="SystemMenu_8h.htm" target="_top" xlink:title="SystemMenu.h">
<polygon fill="white" stroke="black" points="1235,-232.5 1235,-253.5 1321,-253.5 1321,-232.5 1235,-232.5"/>
<text text-anchor="middle" x="1278" y="-240.5" font-family="Helvetica,sans-Serif" font-size="10.00">SystemMenu.h</text>
</a>
</g>
<!-- Node1&#45;&gt;Node4 -->
<g id="edge6" class="edge"><title>Node1&#45;&gt;Node4</title>
<path fill="none" stroke="midnightblue" d="M1387.38,-286.751C1361.77,-276.509 1327.8,-262.921 1304.55,-253.621"/>
<polygon fill="midnightblue" stroke="midnightblue" points="1386.16,-290.032 1396.74,-290.497 1388.76,-283.533 1386.16,-290.032"/>
</g>
<!-- Node20 -->
<g id="node48" class="node"><title>Node20</title>
<a xlink:href="StatusBar_8cpp.htm" target="_top" xlink:title="StatusBar.cpp">
<polygon fill="white" stroke="black" points="1680,-116.5 1680,-137.5 1762,-137.5 1762,-116.5 1680,-116.5"/>
<text text-anchor="middle" x="1721" y="-124.5" font-family="Helvetica,sans-Serif" font-size="10.00">StatusBar.cpp</text>
</a>
</g>
<!-- Node1&#45;&gt;Node20 -->
<g id="edge90" class="edge"><title>Node1&#45;&gt;Node20</title>
<path fill="none" stroke="midnightblue" d="M1411.89,-281.279C1405.49,-267.26 1399.83,-248.134 1406,-232 1418.37,-199.665 1427.68,-190.709 1458,-174 1542.09,-127.663 1576.75,-156.32 1671,-138 1673.88,-137.44 1676.85,-136.842 1679.83,-136.225"/>
<polygon fill="midnightblue" stroke="midnightblue" points="1408.9,-283.114 1416.52,-290.468 1415.15,-279.963 1408.9,-283.114"/>
</g>
<!-- Node26 -->
<g id="node67" class="node"><title>Node26</title>
<a xlink:href="SystemMenu_8cpp.htm" target="_top" xlink:title="SystemMenu.cpp">
<polygon fill="white" stroke="black" points="1262.5,-174.5 1262.5,-195.5 1359.5,-195.5 1359.5,-174.5 1262.5,-174.5"/>
<text text-anchor="middle" x="1311" y="-182.5" font-family="Helvetica,sans-Serif" font-size="10.00">SystemMenu.cpp</text>
</a>
</g>
<!-- Node1&#45;&gt;Node26 -->
<g id="edge100" class="edge"><title>Node1&#45;&gt;Node26</title>
<path fill="none" stroke="midnightblue" d="M1403.82,-283.68C1394.36,-274.96 1382.89,-264.115 1373,-254 1353.41,-233.964 1331.81,-209.288 1319.98,-195.536"/>
<polygon fill="midnightblue" stroke="midnightblue" points="1401.48,-286.276 1411.22,-290.443 1406.2,-281.111 1401.48,-286.276"/>
</g>
<!-- Node27 -->
<g id="node69" class="node"><title>Node27</title>
<a xlink:href="StatusBarInfo_8h.htm" target="_top" xlink:title="StatusBarInfo.h">
<polygon fill="white" stroke="black" points="1414.5,-232.5 1414.5,-253.5 1503.5,-253.5 1503.5,-232.5 1414.5,-232.5"/>
<text text-anchor="middle" x="1459" y="-240.5" font-family="Helvetica,sans-Serif" font-size="10.00">StatusBarInfo.h</text>
</a>
</g>
<!-- Node1&#45;&gt;Node27 -->
<g id="edge84" class="edge"><title>Node1&#45;&gt;Node27</title>
<path fill="none" stroke="midnightblue" d="M1435,-281.667C1440.82,-272.295 1447.58,-261.402 1452.44,-253.571"/>
<polygon fill="midnightblue" stroke="midnightblue" points="1431.9,-280.02 1429.6,-290.362 1437.85,-283.711 1431.9,-280.02"/>
</g>
<!-- Node28 -->
<g id="node72" class="node"><title>Node28</title>
<a xlink:href="StatusBarInfo_8cpp.htm" target="_top" xlink:title="StatusBarInfo.cpp">
<polygon fill="white" stroke="black" points="1484,-174.5 1484,-195.5 1584,-195.5 1584,-174.5 1484,-174.5"/>
<text text-anchor="middle" x="1534" y="-182.5" font-family="Helvetica,sans-Serif" font-size="10.00">StatusBarInfo.cpp</text>
</a>
</g>
<!-- Node1&#45;&gt;Node28 -->
<g id="edge96" class="edge"><title>Node1&#45;&gt;Node28</title>
<path fill="none" stroke="midnightblue" d="M1466.16,-286.341C1482.48,-278.902 1500,-268.339 1512,-254 1526.36,-236.836 1531.39,-210.182 1533.12,-195.533"/>
<polygon fill="midnightblue" stroke="midnightblue" points="1464.56,-283.219 1456.73,-290.365 1467.31,-289.657 1464.56,-283.219"/>
</g>
<!-- Node29 -->
<g id="node75" class="node"><title>Node29</title>
<a xlink:href="StatusBarBattery_8cpp.htm" target="_top" xlink:title="StatusBarBattery.cpp">
<polygon fill="white" stroke="black" points="1559,-232.5 1559,-253.5 1675,-253.5 1675,-232.5 1559,-232.5"/>
<text text-anchor="middle" x="1617" y="-240.5" font-family="Helvetica,sans-Serif" font-size="10.00">StatusBarBattery.cpp</text>
</a>
</g>
<!-- Node1&#45;&gt;Node29 -->
<g id="edge92" class="edge"><title>Node1&#45;&gt;Node29</title>
<path fill="none" stroke="midnightblue" d="M1468,-287.546C1502.65,-277.186 1549.88,-263.067 1581.8,-253.523"/>
<polygon fill="midnightblue" stroke="midnightblue" points="1466.71,-284.279 1458.13,-290.497 1468.72,-290.985 1466.71,-284.279"/>
</g>
<!-- Node30 -->
<g id="node77" class="node"><title>Node30</title>
<a xlink:href="StatusBarClock_8cpp.htm" target="_top" xlink:title="StatusBarClock.cpp">
<polygon fill="white" stroke="black" points="1693,-232.5 1693,-253.5 1801,-253.5 1801,-232.5 1693,-232.5"/>
<text text-anchor="middle" x="1747" y="-240.5" font-family="Helvetica,sans-Serif" font-size="10.00">StatusBarClock.cpp</text>
</a>
</g>
<!-- Node1&#45;&gt;Node30 -->
<g id="edge94" class="edge"><title>Node1&#45;&gt;Node30</title>
<path fill="none" stroke="midnightblue" d="M1491.81,-288.682C1551.79,-277.945 1637.59,-262.585 1692.8,-252.702"/>
<polygon fill="midnightblue" stroke="midnightblue" points="1490.9,-285.289 1481.67,-290.497 1492.13,-292.18 1490.9,-285.289"/>
</g>
<!-- Node31 -->
<g id="node80" class="node"><title>Node31</title>
<a xlink:href="StatusBarServicesConnector_8cpp.htm" target="_top" xlink:title="StatusBarServicesConnector.cpp">
<polygon fill="white" stroke="black" points="1819,-232.5 1819,-253.5 1991,-253.5 1991,-232.5 1819,-232.5"/>
<text text-anchor="middle" x="1905" y="-240.5" font-family="Helvetica,sans-Serif" font-size="10.00">StatusBarServicesConnector.cpp</text>
</a>
</g>
<!-- Node1&#45;&gt;Node31 -->
<g id="edge98" class="edge"><title>Node1&#45;&gt;Node31</title>
<path fill="none" stroke="midnightblue" d="M1513.86,-290.067C1601.39,-279.534 1732.83,-263.717 1818.77,-253.376"/>
<polygon fill="midnightblue" stroke="midnightblue" points="1513.19,-286.622 1503.68,-291.292 1514.02,-293.572 1513.19,-286.622"/>
</g>
<!-- Node5 -->
<g id="node9" class="node"><title>Node5</title>
<a xlink:href="DockModeWindowManager_8h.htm" target="_top" xlink:title="DockModeWindowManager.h">
<polygon fill="white" stroke="black" points="1089,-174.5 1089,-195.5 1245,-195.5 1245,-174.5 1089,-174.5"/>
<text text-anchor="middle" x="1167" y="-182.5" font-family="Helvetica,sans-Serif" font-size="10.00">DockModeWindowManager.h</text>
</a>
</g>
<!-- Node4&#45;&gt;Node5 -->
<g id="edge8" class="edge"><title>Node4&#45;&gt;Node5</title>
<path fill="none" stroke="midnightblue" d="M1248.9,-227.794C1229.53,-217.675 1204.58,-204.634 1187.33,-195.621"/>
<polygon fill="midnightblue" stroke="midnightblue" points="1247.41,-230.968 1257.9,-232.497 1250.66,-224.763 1247.41,-230.968"/>
</g>
<!-- Node22 -->
<g id="node52" class="node"><title>Node22</title>
<a xlink:href="DockModeMenuManager_8h.htm" target="_top" xlink:title="DockModeMenuManager.h">
<polygon fill="white" stroke="black" points="433.5,-174.5 433.5,-195.5 578.5,-195.5 578.5,-174.5 433.5,-174.5"/>
<text text-anchor="middle" x="506" y="-182.5" font-family="Helvetica,sans-Serif" font-size="10.00">DockModeMenuManager.h</text>
</a>
</g>
<!-- Node4&#45;&gt;Node22 -->
<g id="edge60" class="edge"><title>Node4&#45;&gt;Node22</title>
<path fill="none" stroke="midnightblue" d="M1224.91,-232.025C983.008,-199.323 707.152,-189.369 578.649,-186.306"/>
<polygon fill="midnightblue" stroke="midnightblue" points="1224.57,-235.51 1234.95,-233.398 1225.52,-228.575 1224.57,-235.51"/>
</g>
<!-- Node23 -->
<g id="node58" class="node"><title>Node23</title>
<a xlink:href="MenuWindowManager_8h.htm" target="_top" xlink:title="MenuWindowManager.h">
<polygon fill="white" stroke="black" points="251.5,-174.5 251.5,-195.5 382.5,-195.5 382.5,-174.5 251.5,-174.5"/>
<text text-anchor="middle" x="317" y="-182.5" font-family="Helvetica,sans-Serif" font-size="10.00">MenuWindowManager.h</text>
</a>
</g>
<!-- Node4&#45;&gt;Node23 -->
<g id="edge70" class="edge"><title>Node4&#45;&gt;Node23</title>
<path fill="none" stroke="midnightblue" d="M1224.94,-232.06C870.765,-187.62 777.108,-221.823 425,-196 411.279,-194.994 396.601,-193.667 382.628,-192.284"/>
<polygon fill="midnightblue" stroke="midnightblue" points="1224.6,-235.545 1234.96,-233.33 1225.48,-228.6 1224.6,-235.545"/>
</g>
<!-- Node4&#45;&gt;Node26 -->
<g id="edge82" class="edge"><title>Node4&#45;&gt;Node26</title>
<path fill="none" stroke="midnightblue" d="M1289,-223.667C1294.33,-214.295 1300.53,-203.402 1304.99,-195.571"/>
<polygon fill="midnightblue" stroke="midnightblue" points="1285.96,-221.939 1284.05,-232.362 1292.04,-225.401 1285.96,-221.939"/>
</g>
<!-- Node6 -->
<g id="node11" class="node"><title>Node6</title>
<a xlink:href="DockModeAppMenuContainer_8cpp.htm" target="_top" xlink:title="DockModeAppMenuContainer.cpp">
<polygon fill="white" stroke="black" points="744.5,-58.5 744.5,-79.5 923.5,-79.5 923.5,-58.5 744.5,-58.5"/>
<text text-anchor="middle" x="834" y="-66.5" font-family="Helvetica,sans-Serif" font-size="10.00">DockModeAppMenuContainer.cpp</text>
</a>
</g>
<!-- Node5&#45;&gt;Node6 -->
<g id="edge10" class="edge"><title>Node5&#45;&gt;Node6</title>
<path fill="none" stroke="midnightblue" d="M1078.32,-182.041C953.593,-176.953 738.827,-164.433 715,-138 689.976,-110.239 740.021,-90.6335 782.703,-79.5868"/>
<polygon fill="midnightblue" stroke="midnightblue" points="1078.48,-185.551 1088.62,-182.453 1078.76,-178.556 1078.48,-185.551"/>
</g>
<!-- Node7 -->
<g id="node13" class="node"><title>Node7</title>
<a xlink:href="DockModeLaunchPoint_8h.htm" target="_top" xlink:title="DockModeLaunchPoint.h">
<polygon fill="white" stroke="black" points="1100,-116.5 1100,-137.5 1234,-137.5 1234,-116.5 1100,-116.5"/>
<text text-anchor="middle" x="1167" y="-124.5" font-family="Helvetica,sans-Serif" font-size="10.00">DockModeLaunchPoint.h</text>
</a>
</g>
<!-- Node5&#45;&gt;Node7 -->
<g id="edge12" class="edge"><title>Node5&#45;&gt;Node7</title>
<path fill="none" stroke="midnightblue" d="M1167,-164.191C1167,-155.168 1167,-144.994 1167,-137.571"/>
<polygon fill="midnightblue" stroke="midnightblue" points="1163.5,-164.362 1167,-174.362 1170.5,-164.362 1163.5,-164.362"/>
</g>
<!-- Node8 -->
<g id="node16" class="node"><title>Node8</title>
<a xlink:href="DockModeLaunchPoint_8cpp.htm" target="_top" xlink:title="DockModeLaunchPoint.cpp">
<polygon fill="white" stroke="black" points="1121,-58.5 1121,-79.5 1267,-79.5 1267,-58.5 1121,-58.5"/>
<text text-anchor="middle" x="1194" y="-66.5" font-family="Helvetica,sans-Serif" font-size="10.00">DockModeLaunchPoint.cpp</text>
</a>
</g>
<!-- Node5&#45;&gt;Node8 -->
<g id="edge40" class="edge"><title>Node5&#45;&gt;Node8</title>
<path fill="none" stroke="midnightblue" d="M1232.04,-170.954C1249.21,-163.969 1265.78,-153.544 1276,-138 1292.72,-112.586 1254.63,-91.4889 1224.93,-79.5613"/>
<polygon fill="midnightblue" stroke="midnightblue" points="1230.64,-167.739 1222.48,-174.491 1233.07,-174.304 1230.64,-167.739"/>
</g>
<!-- Node9 -->
<g id="node18" class="node"><title>Node9</title>
<a xlink:href="DockModeMenuManager_8cpp.htm" target="_top" xlink:title="DockModeMenuManager.cpp">
<polygon fill="white" stroke="black" points="571,-58.5 571,-79.5 727,-79.5 727,-58.5 571,-58.5"/>
<text text-anchor="middle" x="649" y="-66.5" font-family="Helvetica,sans-Serif" font-size="10.00">DockModeMenuManager.cpp</text>
</a>
</g>
<!-- Node5&#45;&gt;Node9 -->
<g id="edge42" class="edge"><title>Node5&#45;&gt;Node9</title>
<path fill="none" stroke="midnightblue" d="M1078.35,-179.649C953.384,-171.55 736.998,-155.282 705,-138 680.294,-124.657 662.413,-95.411 654.139,-79.6184"/>
<polygon fill="midnightblue" stroke="midnightblue" points="1078.46,-183.163 1088.67,-180.312 1078.91,-176.178 1078.46,-183.163"/>
</g>
<!-- Node10 -->
<g id="node20" class="node"><title>Node10</title>
<a xlink:href="DockModeWindow_8cpp.htm" target="_top" xlink:title="DockModeWindow.cpp">
<polygon fill="white" stroke="black" points="978.5,-58.5 978.5,-79.5 1103.5,-79.5 1103.5,-58.5 978.5,-58.5"/>
<text text-anchor="middle" x="1041" y="-66.5" font-family="Helvetica,sans-Serif" font-size="10.00">DockModeWindow.cpp</text>
</a>
</g>
<!-- Node5&#45;&gt;Node10 -->
<g id="edge46" class="edge"><title>Node5&#45;&gt;Node10</title>
<path fill="none" stroke="midnightblue" d="M1203.7,-170.148C1230.56,-157.101 1259.65,-136.974 1243,-116 1234.17,-104.879 1159.52,-89.6175 1103.52,-79.5407"/>
<polygon fill="midnightblue" stroke="midnightblue" points="1201.98,-167.087 1194.37,-174.457 1204.91,-173.442 1201.98,-167.087"/>
</g>
<!-- Node11 -->
<g id="node22" class="node"><title>Node11</title>
<a xlink:href="DockModeWindowManager_8cpp.htm" target="_top" xlink:title="DockModeWindowManager.cpp">
<polygon fill="white" stroke="black" points="1211.5,-0.5 1211.5,-21.5 1378.5,-21.5 1378.5,-0.5 1211.5,-0.5"/>
<text text-anchor="middle" x="1295" y="-8.5" font-family="Helvetica,sans-Serif" font-size="10.00">DockModeWindowManager.cpp</text>
</a>
</g>
<!-- Node5&#45;&gt;Node11 -->
<g id="edge48" class="edge"><title>Node5&#45;&gt;Node11</title>
<path fill="none" stroke="midnightblue" d="M1254.61,-173.032C1334.89,-161.661 1442.3,-145.255 1449,-138 1473.17,-111.832 1475.32,-86.5386 1454,-58 1442.07,-42.0315 1396.51,-29.5847 1357.2,-21.5228"/>
<polygon fill="midnightblue" stroke="midnightblue" points="1253.88,-169.6 1244.46,-174.462 1254.86,-176.532 1253.88,-169.6"/>
</g>
<!-- Node12 -->
<g id="node24" class="node"><title>Node12</title>
<a xlink:href="DockModeWindow_8h.htm" target="_top" xlink:title="DockModeWindow.h">
<polygon fill="white" stroke="black" points="1327.5,-116.5 1327.5,-137.5 1440.5,-137.5 1440.5,-116.5 1327.5,-116.5"/>
<text text-anchor="middle" x="1384" y="-124.5" font-family="Helvetica,sans-Serif" font-size="10.00">DockModeWindow.h</text>
</a>
</g>
<!-- Node5&#45;&gt;Node12 -->
<g id="edge24" class="edge"><title>Node5&#45;&gt;Node12</title>
<path fill="none" stroke="midnightblue" d="M1216.34,-171.812C1255.19,-161.428 1308.62,-147.149 1344.63,-137.523"/>
<polygon fill="midnightblue" stroke="midnightblue" points="1215.05,-168.533 1206.3,-174.497 1216.86,-175.296 1215.05,-168.533"/>
</g>
<!-- Node16 -->
<g id="node38" class="node"><title>Node16</title>
<a xlink:href="DockModePositionManager_8cpp.htm" target="_top" xlink:title="DockModePositionManager.cpp">
<polygon fill="white" stroke="black" points="1495.5,-116.5 1495.5,-137.5 1662.5,-137.5 1662.5,-116.5 1495.5,-116.5"/>
<text text-anchor="middle" x="1579" y="-124.5" font-family="Helvetica,sans-Serif" font-size="10.00">DockModePositionManager.cpp</text>
</a>
</g>
<!-- Node5&#45;&gt;Node16 -->
<g id="edge44" class="edge"><title>Node5&#45;&gt;Node16</title>
<path fill="none" stroke="midnightblue" d="M1251.87,-173.052C1326.18,-162.591 1433.11,-147.538 1504.25,-137.523"/>
<polygon fill="midnightblue" stroke="midnightblue" points="1251.02,-169.637 1241.61,-174.497 1252,-176.568 1251.02,-169.637"/>
</g>
<!-- Node17 -->
<g id="node42" class="node"><title>Node17</title>
<a xlink:href="LockWindow_8cpp.htm" target="_top" xlink:title="LockWindow.cpp">
<polygon fill="white" stroke="black" points="534,-116.5 534,-137.5 630,-137.5 630,-116.5 534,-116.5"/>
<text text-anchor="middle" x="582" y="-124.5" font-family="Helvetica,sans-Serif" font-size="10.00">LockWindow.cpp</text>
</a>
</g>
<!-- Node5&#45;&gt;Node17 -->
<g id="edge50" class="edge"><title>Node5&#45;&gt;Node17</title>
<path fill="none" stroke="midnightblue" d="M1078.63,-179.386C974.439,-172.228 796.166,-158.298 644,-138 639.449,-137.393 634.722,-136.689 630,-135.936"/>
<polygon fill="midnightblue" stroke="midnightblue" points="1078.58,-182.89 1088.79,-180.078 1079.05,-175.906 1078.58,-182.89"/>
</g>
<!-- Node18 -->
<g id="node44" class="node"><title>Node18</title>
<a xlink:href="DashboardWindowContainer_8cpp.htm" target="_top" xlink:title="DashboardWindowContainer.cpp">
<polygon fill="white" stroke="black" points="724,-116.5 724,-137.5 896,-137.5 896,-116.5 724,-116.5"/>
<text text-anchor="middle" x="810" y="-124.5" font-family="Helvetica,sans-Serif" font-size="10.00">DashboardWindowContainer.cpp</text>
</a>
</g>
<!-- Node5&#45;&gt;Node18 -->
<g id="edge52" class="edge"><title>Node5&#45;&gt;Node18</title>
<path fill="none" stroke="midnightblue" d="M1092.27,-172.859C1027.93,-162.406 936.036,-147.476 874.771,-137.523"/>
<polygon fill="midnightblue" stroke="midnightblue" points="1091.92,-176.348 1102.35,-174.497 1093.04,-169.438 1091.92,-176.348"/>
</g>
<!-- Node19 -->
<g id="node46" class="node"><title>Node19</title>
<a xlink:href="DashboardWindowManager_8cpp.htm" target="_top" xlink:title="DashboardWindowManager.cpp">
<polygon fill="white" stroke="black" points="914,-116.5 914,-137.5 1082,-137.5 1082,-116.5 914,-116.5"/>
<text text-anchor="middle" x="998" y="-124.5" font-family="Helvetica,sans-Serif" font-size="10.00">DashboardWindowManager.cpp</text>
</a>
</g>
<!-- Node5&#45;&gt;Node19 -->
<g id="edge54" class="edge"><title>Node5&#45;&gt;Node19</title>
<path fill="none" stroke="midnightblue" d="M1126.63,-171.144C1096.55,-160.823 1056.11,-146.944 1028.66,-137.523"/>
<polygon fill="midnightblue" stroke="midnightblue" points="1125.8,-174.561 1136.4,-174.497 1128.07,-167.94 1125.8,-174.561"/>
</g>
<!-- Node5&#45;&gt;Node20 -->
<g id="edge56" class="edge"><title>Node5&#45;&gt;Node20</title>
<path fill="none" stroke="midnightblue" d="M1255.32,-173.901C1440.71,-154.729 1490.34,-165.551 1671,-138 1673.9,-137.558 1676.88,-137.047 1679.88,-136.492"/>
<polygon fill="midnightblue" stroke="midnightblue" points="1254.82,-170.434 1245.24,-174.959 1255.55,-177.396 1254.82,-170.434"/>
</g>
<!-- Node21 -->
<g id="node50" class="node"><title>Node21</title>
<a xlink:href="WindowServerLuna_8cpp.htm" target="_top" xlink:title="WindowServerLuna.cpp">
<polygon fill="white" stroke="black" points="350,-116.5 350,-137.5 478,-137.5 478,-116.5 350,-116.5"/>
<text text-anchor="middle" x="414" y="-124.5" font-family="Helvetica,sans-Serif" font-size="10.00">WindowServerLuna.cpp</text>
</a>
</g>
<!-- Node5&#45;&gt;Node21 -->
<g id="edge58" class="edge"><title>Node5&#45;&gt;Node21</title>
<path fill="none" stroke="midnightblue" d="M1078.69,-179.256C954.872,-171.038 722.647,-155.025 525,-138 509.854,-136.695 493.56,-135.157 478.246,-133.65"/>
<polygon fill="midnightblue" stroke="midnightblue" points="1078.67,-182.762 1088.88,-179.93 1079.13,-175.777 1078.67,-182.762"/>
</g>
<!-- Node7&#45;&gt;Node6 -->
<g id="edge14" class="edge"><title>Node7&#45;&gt;Node6</title>
<path fill="none" stroke="midnightblue" d="M1096.55,-114.73C1036.57,-104.283 951.328,-89.4354 894.417,-79.5231"/>
<polygon fill="midnightblue" stroke="midnightblue" points="1096.24,-118.229 1106.7,-116.497 1097.45,-111.333 1096.24,-118.229"/>
</g>
<!-- Node7&#45;&gt;Node8 -->
<g id="edge16" class="edge"><title>Node7&#45;&gt;Node8</title>
<path fill="none" stroke="midnightblue" d="M1176.27,-107.079C1180.57,-97.8422 1185.51,-87.2388 1189.08,-79.5707"/>
<polygon fill="midnightblue" stroke="midnightblue" points="1173,-105.819 1171.95,-116.362 1179.35,-108.773 1173,-105.819"/>
</g>
<!-- Node7&#45;&gt;Node9 -->
<g id="edge18" class="edge"><title>Node7&#45;&gt;Node9</title>
<path fill="none" stroke="midnightblue" d="M1089.81,-115.894C931.908,-96.6829 890.337,-97.5797 736,-80 733.126,-79.6726 730.199,-79.3333 727.244,-78.9855"/>
<polygon fill="midnightblue" stroke="midnightblue" points="1089.53,-119.386 1099.88,-117.127 1090.38,-112.438 1089.53,-119.386"/>
</g>
<!-- Node7&#45;&gt;Node10 -->
<g id="edge20" class="edge"><title>Node7&#45;&gt;Node10</title>
<path fill="none" stroke="midnightblue" d="M1134.86,-112.206C1112.76,-102.031 1083.92,-88.7567 1064.07,-79.6212"/>
<polygon fill="midnightblue" stroke="midnightblue" points="1133.64,-115.494 1144.18,-116.497 1136.56,-109.136 1133.64,-115.494"/>
</g>
<!-- Node7&#45;&gt;Node11 -->
<g id="edge22" class="edge"><title>Node7&#45;&gt;Node11</title>
<path fill="none" stroke="midnightblue" d="M1096.67,-114.599C1043.44,-104.497 978.111,-90.2733 970,-80 963.941,-72.3256 963.6,-65.3922 970,-58 985.65,-39.9245 1120.34,-25.3568 1211.34,-17.461"/>
<polygon fill="midnightblue" stroke="midnightblue" points="1096.32,-118.095 1106.8,-116.499 1097.61,-111.215 1096.32,-118.095"/>
</g>
<!-- Node12&#45;&gt;Node8 -->
<g id="edge32" class="edge"><title>Node12&#45;&gt;Node8</title>
<path fill="none" stroke="midnightblue" d="M1339.93,-113.546C1305.99,-103.186 1259.74,-89.0668 1228.47,-79.5231"/>
<polygon fill="midnightblue" stroke="midnightblue" points="1339.01,-116.924 1349.59,-116.497 1341.05,-110.229 1339.01,-116.924"/>
</g>
<!-- Node12&#45;&gt;Node10 -->
<g id="edge34" class="edge"><title>Node12&#45;&gt;Node10</title>
<path fill="none" stroke="midnightblue" d="M1317.3,-115.721C1255.32,-105.241 1163.74,-89.7551 1103.24,-79.5249"/>
<polygon fill="midnightblue" stroke="midnightblue" points="1316.92,-119.206 1327.36,-117.422 1318.08,-112.304 1316.92,-119.206"/>
</g>
<!-- Node12&#45;&gt;Node11 -->
<g id="edge36" class="edge"><title>Node12&#45;&gt;Node11</title>
<path fill="none" stroke="midnightblue" d="M1351.03,-111.431C1337.79,-103.677 1323.45,-93.1258 1314,-80 1301.22,-62.2544 1297.03,-36.2957 1295.66,-21.8045"/>
<polygon fill="midnightblue" stroke="midnightblue" points="1349.5,-114.585 1359.95,-116.349 1352.88,-108.455 1349.5,-114.585"/>
</g>
<!-- Node13 -->
<g id="node26" class="node"><title>Node13</title>
<a xlink:href="DockModeClock_8h.htm" target="_top" xlink:title="DockModeClock.h">
<polygon fill="white" stroke="black" points="1501,-58.5 1501,-79.5 1603,-79.5 1603,-58.5 1501,-58.5"/>
<text text-anchor="middle" x="1552" y="-66.5" font-family="Helvetica,sans-Serif" font-size="10.00">DockModeClock.h</text>
</a>
</g>
<!-- Node12&#45;&gt;Node13 -->
<g id="edge26" class="edge"><title>Node12&#45;&gt;Node13</title>
<path fill="none" stroke="midnightblue" d="M1424.13,-113.144C1454.03,-102.823 1494.23,-88.9439 1521.52,-79.5231"/>
<polygon fill="midnightblue" stroke="midnightblue" points="1422.73,-109.925 1414.42,-116.497 1425.02,-116.542 1422.73,-109.925"/>
</g>
<!-- Node15 -->
<g id="node34" class="node"><title>Node15</title>
<a xlink:href="WebAppMgrProxy_8cpp.htm" target="_top" xlink:title="WebAppMgrProxy.cpp">
<polygon fill="white" stroke="black" points="1323,-58.5 1323,-79.5 1445,-79.5 1445,-58.5 1323,-58.5"/>
<text text-anchor="middle" x="1384" y="-66.5" font-family="Helvetica,sans-Serif" font-size="10.00">WebAppMgrProxy.cpp</text>
</a>
</g>
<!-- Node12&#45;&gt;Node15 -->
<g id="edge38" class="edge"><title>Node12&#45;&gt;Node15</title>
<path fill="none" stroke="midnightblue" d="M1384,-106.191C1384,-97.1684 1384,-86.9941 1384,-79.5707"/>
<polygon fill="midnightblue" stroke="midnightblue" points="1380.5,-106.362 1384,-116.362 1387.5,-106.362 1380.5,-106.362"/>
</g>
<!-- Node13&#45;&gt;Node11 -->
<g id="edge30" class="edge"><title>Node13&#45;&gt;Node11</title>
<path fill="none" stroke="midnightblue" d="M1495.61,-56.2737C1449.44,-45.8548 1384.91,-31.2921 1341.63,-21.5231"/>
<polygon fill="midnightblue" stroke="midnightblue" points="1494.93,-59.7093 1505.46,-58.4966 1496.48,-52.881 1494.93,-59.7093"/>
</g>
<!-- Node14 -->
<g id="node28" class="node"><title>Node14</title>
<a xlink:href="DockModeClock_8cpp.htm" target="_top" xlink:title="DockModeClock.cpp">
<polygon fill="white" stroke="black" points="1495.5,-0.5 1495.5,-21.5 1608.5,-21.5 1608.5,-0.5 1495.5,-0.5"/>
<text text-anchor="middle" x="1552" y="-8.5" font-family="Helvetica,sans-Serif" font-size="10.00">DockModeClock.cpp</text>
</a>
</g>
<!-- Node13&#45;&gt;Node14 -->
<g id="edge28" class="edge"><title>Node13&#45;&gt;Node14</title>
<path fill="none" stroke="midnightblue" d="M1552,-48.1906C1552,-39.1684 1552,-28.9941 1552,-21.5707"/>
<polygon fill="midnightblue" stroke="midnightblue" points="1548.5,-48.3619 1552,-58.3619 1555.5,-48.3619 1548.5,-48.3619"/>
</g>
<!-- Node22&#45;&gt;Node9 -->
<g id="edge62" class="edge"><title>Node22&#45;&gt;Node9</title>
<path fill="none" stroke="midnightblue" d="M506.887,-163.849C508.585,-148.805 513.135,-129.031 525,-116 541.74,-97.6152 566.425,-86.3776 589.372,-79.5288"/>
<polygon fill="midnightblue" stroke="midnightblue" points="503.364,-163.998 506.07,-174.241 510.343,-164.546 503.364,-163.998"/>
</g>
<!-- Node22&#45;&gt;Node11 -->
<g id="edge64" class="edge"><title>Node22&#45;&gt;Node11</title>
<path fill="none" stroke="midnightblue" d="M423.246,-177.27C369.338,-168.817 313.684,-151.411 341,-116 393.827,-47.5194 988.485,-21.0525 1211.34,-13.4951"/>
<polygon fill="midnightblue" stroke="midnightblue" points="422.868,-180.752 433.271,-178.746 423.888,-173.826 422.868,-180.752"/>
</g>
<!-- Node22&#45;&gt;Node20 -->
<g id="edge66" class="edge"><title>Node22&#45;&gt;Node20</title>
<path fill="none" stroke="midnightblue" d="M588.861,-183.556C818.761,-179.246 1461.42,-165.066 1671,-138 1673.91,-137.624 1676.9,-137.163 1679.9,-136.644"/>
<polygon fill="midnightblue" stroke="midnightblue" points="588.49,-180.062 578.557,-183.748 588.62,-187.061 588.49,-180.062"/>
</g>
<!-- Node22&#45;&gt;Node21 -->
<g id="edge68" class="edge"><title>Node22&#45;&gt;Node21</title>
<path fill="none" stroke="midnightblue" d="M480.338,-168.821C464.491,-158.831 444.613,-146.299 430.767,-137.571"/>
<polygon fill="midnightblue" stroke="midnightblue" points="478.8,-171.99 489.126,-174.362 482.533,-166.068 478.8,-171.99"/>
</g>
<!-- Node23&#45;&gt;Node10 -->
<g id="edge74" class="edge"><title>Node23&#45;&gt;Node10</title>
<path fill="none" stroke="midnightblue" d="M318.263,-164.27C320.428,-148.358 326.134,-127.265 341,-116 393.435,-76.267 866.426,-85.3039 932,-80 947.071,-78.781 963.294,-77.2582 978.499,-75.738"/>
<polygon fill="midnightblue" stroke="midnightblue" points="314.775,-163.974 317.262,-174.273 321.741,-164.672 314.775,-163.974"/>
</g>
<!-- Node23&#45;&gt;Node17 -->
<g id="edge76" class="edge"><title>Node23&#45;&gt;Node17</title>
<path fill="none" stroke="midnightblue" d="M374.847,-172.339C422.47,-161.916 489.193,-147.313 533.92,-137.523"/>
<polygon fill="midnightblue" stroke="midnightblue" points="374.01,-168.939 364.99,-174.497 375.507,-175.778 374.01,-168.939"/>
</g>
<!-- Node23&#45;&gt;Node21 -->
<g id="edge80" class="edge"><title>Node23&#45;&gt;Node21</title>
<path fill="none" stroke="midnightblue" d="M343.59,-169.101C360.373,-159.066 381.587,-146.381 396.321,-137.571"/>
<polygon fill="midnightblue" stroke="midnightblue" points="341.578,-166.226 334.791,-174.362 345.17,-172.234 341.578,-166.226"/>
</g>
<!-- Node24 -->
<g id="node60" class="node"><title>Node24</title>
<a xlink:href="CardWindow_8cpp.htm" target="_top" xlink:title="CardWindow.cpp">
<polygon fill="white" stroke="black" points="159.5,-116.5 159.5,-137.5 256.5,-137.5 256.5,-116.5 159.5,-116.5"/>
<text text-anchor="middle" x="208" y="-124.5" font-family="Helvetica,sans-Serif" font-size="10.00">CardWindow.cpp</text>
</a>
</g>
<!-- Node23&#45;&gt;Node24 -->
<g id="edge72" class="edge"><title>Node23&#45;&gt;Node24</title>
<path fill="none" stroke="midnightblue" d="M288.423,-169.794C269.406,-159.675 244.898,-146.634 227.961,-137.621"/>
<polygon fill="midnightblue" stroke="midnightblue" points="286.789,-172.889 297.261,-174.497 290.077,-166.709 286.789,-172.889"/>
</g>
<!-- Node25 -->
<g id="node64" class="node"><title>Node25</title>
<a xlink:href="MenuWindowManager_8cpp.htm" target="_top" xlink:title="MenuWindowManager.cpp">
<polygon fill="white" stroke="black" points="-0.5,-116.5 -0.5,-137.5 142.5,-137.5 142.5,-116.5 -0.5,-116.5"/>
<text text-anchor="middle" x="71" y="-124.5" font-family="Helvetica,sans-Serif" font-size="10.00">MenuWindowManager.cpp</text>
</a>
</g>
<!-- Node23&#45;&gt;Node25 -->
<g id="edge78" class="edge"><title>Node23&#45;&gt;Node25</title>
<path fill="none" stroke="midnightblue" d="M262.466,-172.142C218.315,-161.733 156.893,-147.251 115.632,-137.523"/>
<polygon fill="midnightblue" stroke="midnightblue" points="261.915,-175.608 272.451,-174.497 263.521,-168.795 261.915,-175.608"/>
</g>
<!-- Node27&#45;&gt;Node20 -->
<g id="edge86" class="edge"><title>Node27&#45;&gt;Node20</title>
<path fill="none" stroke="midnightblue" d="M1458.14,-222.228C1458.69,-206.77 1462.12,-186.3 1475,-174 1539.06,-112.836 1584.18,-155.518 1671,-138 1673.88,-137.42 1676.84,-136.807 1679.82,-136.178"/>
<polygon fill="midnightblue" stroke="midnightblue" points="1454.64,-222.414 1458.16,-232.409 1461.64,-222.403 1454.64,-222.414"/>
</g>
<!-- Node27&#45;&gt;Node28 -->
<g id="edge88" class="edge"><title>Node27&#45;&gt;Node28</title>
<path fill="none" stroke="midnightblue" d="M1481.01,-225.975C1493.74,-216.132 1509.36,-204.055 1520.33,-195.571"/>
<polygon fill="midnightblue" stroke="midnightblue" points="1478.53,-223.476 1472.76,-232.362 1482.81,-229.013 1478.53,-223.476"/>
</g>
</g>
</svg>
