<?xml version="1.0" encoding="UTF-8" standalone="no"?>
<!DOCTYPE svg PUBLIC "-//W3C//DTD SVG 1.1//EN"
 "http://www.w3.org/Graphics/SVG/1.1/DTD/svg11.dtd">
<!-- Generated by graphviz version 2.26.3 (20100126.1600)
 -->
<!-- Title: StatusBarItem.h Pages: 1 -->
<svg width="917pt" height="146pt"
 viewBox="0.00 0.00 917.00 146.00" xmlns="http://www.w3.org/2000/svg" xmlns:xlink="http://www.w3.org/1999/xlink">
<g id="graph1" class="graph" transform="scale(1 1) rotate(0) translate(4 142)">
<title>StatusBarItem.h</title>
<polygon fill="white" stroke="white" points="-4,5 -4,-142 914,-142 914,5 -4,5"/>
<!-- Node1 -->
<g id="node1" class="node"><title>Node1</title>
<polygon fill="#bfbfbf" stroke="black" points="415.5,-116.5 415.5,-137.5 506.5,-137.5 506.5,-116.5 415.5,-116.5"/>
<text text-anchor="middle" x="461" y="-124.5" font-family="Helvetica,sans-Serif" font-size="10.00">StatusBarItem.h</text>
</g>
<!-- Node2 -->
<g id="node3" class="node"><title>Node2</title>
<a xlink:href="StatusBarTitle_8h.htm" target="_top" xlink:title="StatusBarTitle.h">
<polygon fill="white" stroke="black" points="602.5,-58.5 602.5,-79.5 693.5,-79.5 693.5,-58.5 602.5,-58.5"/>
<text text-anchor="middle" x="648" y="-66.5" font-family="Helvetica,sans-Serif" font-size="10.00">StatusBarTitle.h</text>
</a>
</g>
<!-- Node1&#45;&gt;Node2 -->
<g id="edge2" class="edge"><title>Node1&#45;&gt;Node2</title>
<path fill="none" stroke="midnightblue" d="M504.807,-113.413C538.171,-103.065 583.434,-89.0258 614.072,-79.5231"/>
<polygon fill="midnightblue" stroke="midnightblue" points="503.379,-110.191 494.864,-116.497 505.452,-116.877 503.379,-110.191"/>
</g>
<!-- Node3 -->
<g id="node5" class="node"><title>Node3</title>
<a xlink:href="StatusBar_8cpp.htm" target="_top" xlink:title="StatusBar.cpp">
<polygon fill="white" stroke="black" points="378,-0.5 378,-21.5 460,-21.5 460,-0.5 378,-0.5"/>
<text text-anchor="middle" x="419" y="-8.5" font-family="Helvetica,sans-Serif" font-size="10.00">StatusBar.cpp</text>
</a>
</g>
<!-- Node1&#45;&gt;Node3 -->
<g id="edge26" class="edge"><title>Node1&#45;&gt;Node3</title>
<path fill="none" stroke="midnightblue" d="M445.841,-108.059C440.016,-99.8687 433.848,-89.9028 430,-80 422.356,-60.3259 420.021,-35.52 419.31,-21.6473"/>
<polygon fill="midnightblue" stroke="midnightblue" points="443.109,-110.25 451.901,-116.163 448.715,-106.058 443.109,-110.25"/>
</g>
<!-- Node5 -->
<g id="node9" class="node"><title>Node5</title>
<a xlink:href="StatusBarClock_8h.htm" target="_top" xlink:title="StatusBarClock.h">
<polygon fill="white" stroke="black" points="58.5,-58.5 58.5,-79.5 155.5,-79.5 155.5,-58.5 58.5,-58.5"/>
<text text-anchor="middle" x="107" y="-66.5" font-family="Helvetica,sans-Serif" font-size="10.00">StatusBarClock.h</text>
</a>
</g>
<!-- Node1&#45;&gt;Node5 -->
<g id="edge8" class="edge"><title>Node1&#45;&gt;Node5</title>
<path fill="none" stroke="midnightblue" d="M405.405,-118.774C345.663,-109.801 247.967,-94.7415 164,-80 161.32,-79.5295 158.571,-79.0358 155.798,-78.5292"/>
<polygon fill="midnightblue" stroke="midnightblue" points="404.974,-122.248 415.383,-120.269 406.012,-115.326 404.974,-122.248"/>
</g>
<!-- Node7 -->
<g id="node14" class="node"><title>Node7</title>
<a xlink:href="StatusBarBattery_8h.htm" target="_top" xlink:title="StatusBarBattery.h">
<polygon fill="white" stroke="black" points="173,-58.5 173,-79.5 277,-79.5 277,-58.5 173,-58.5"/>
<text text-anchor="middle" x="225" y="-66.5" font-family="Helvetica,sans-Serif" font-size="10.00">StatusBarBattery.h</text>
</a>
</g>
<!-- Node1&#45;&gt;Node7 -->
<g id="edge14" class="edge"><title>Node1&#45;&gt;Node7</title>
<path fill="none" stroke="midnightblue" d="M408.415,-114.077C366.079,-103.672 307.318,-89.2306 267.818,-79.5231"/>
<polygon fill="midnightblue" stroke="midnightblue" points="407.716,-117.509 418.262,-116.497 409.386,-110.711 407.716,-117.509"/>
</g>
<!-- Node9 -->
<g id="node19" class="node"><title>Node9</title>
<a xlink:href="StatusBarInfo_8h.htm" target="_top" xlink:title="StatusBarInfo.h">
<polygon fill="white" stroke="black" points="294.5,-58.5 294.5,-79.5 383.5,-79.5 383.5,-58.5 294.5,-58.5"/>
<text text-anchor="middle" x="339" y="-66.5" font-family="Helvetica,sans-Serif" font-size="10.00">StatusBarInfo.h</text>
</a>
</g>
<!-- Node1&#45;&gt;Node9 -->
<g id="edge20" class="edge"><title>Node1&#45;&gt;Node9</title>
<path fill="none" stroke="midnightblue" d="M429.594,-112.069C408.229,-101.912 380.471,-88.7157 361.341,-79.6212"/>
<polygon fill="midnightblue" stroke="midnightblue" points="428.373,-115.364 438.907,-116.497 431.378,-109.042 428.373,-115.364"/>
</g>
<!-- Node11 -->
<g id="node25" class="node"><title>Node11</title>
<a xlink:href="StatusBarNotificationArea_8h.htm" target="_top" xlink:title="StatusBarNotificationArea.h">
<polygon fill="white" stroke="black" points="439,-58.5 439,-79.5 585,-79.5 585,-58.5 439,-58.5"/>
<text text-anchor="middle" x="512" y="-66.5" font-family="Helvetica,sans-Serif" font-size="10.00">StatusBarNotificationArea.h</text>
</a>
</g>
<!-- Node1&#45;&gt;Node11 -->
<g id="edge28" class="edge"><title>Node1&#45;&gt;Node11</title>
<path fill="none" stroke="midnightblue" d="M476.977,-108.83C485.438,-99.2078 495.532,-87.7282 502.705,-79.5707"/>
<polygon fill="midnightblue" stroke="midnightblue" points="474.329,-106.541 470.354,-116.362 479.586,-111.163 474.329,-106.541"/>
</g>
<!-- Node13 -->
<g id="node30" class="node"><title>Node13</title>
<a xlink:href="StatusBarItemGroup_8h.htm" target="_top" xlink:title="StatusBarItemGroup.h">
<polygon fill="white" stroke="black" points="711,-58.5 711,-79.5 831,-79.5 831,-58.5 711,-58.5"/>
<text text-anchor="middle" x="771" y="-66.5" font-family="Helvetica,sans-Serif" font-size="10.00">StatusBarItemGroup.h</text>
</a>
</g>
<!-- Node1&#45;&gt;Node13 -->
<g id="edge34" class="edge"><title>Node1&#45;&gt;Node13</title>
<path fill="none" stroke="midnightblue" d="M516.842,-116.552C572.865,-106.07 658.676,-90.0154 714.819,-79.5112"/>
<polygon fill="midnightblue" stroke="midnightblue" points="515.927,-113.162 506.742,-118.442 517.215,-120.043 515.927,-113.162"/>
</g>
<!-- Node14 -->
<g id="node33" class="node"><title>Node14</title>
<a xlink:href="StatusBarItemGroup_8cpp.htm" target="_top" xlink:title="StatusBarItemGroup.cpp">
<polygon fill="white" stroke="black" points="778.5,-0.5 778.5,-21.5 909.5,-21.5 909.5,-0.5 778.5,-0.5"/>
<text text-anchor="middle" x="844" y="-8.5" font-family="Helvetica,sans-Serif" font-size="10.00">StatusBarItemGroup.cpp</text>
</a>
</g>
<!-- Node1&#45;&gt;Node14 -->
<g id="edge40" class="edge"><title>Node1&#45;&gt;Node14</title>
<path fill="none" stroke="midnightblue" d="M516.962,-123.962C617.042,-117.97 818.304,-103.165 840,-80 854.682,-64.3233 850.788,-36.8349 847.117,-21.7172"/>
<polygon fill="midnightblue" stroke="midnightblue" points="516.506,-120.483 506.73,-124.565 516.918,-127.471 516.506,-120.483"/>
</g>
<!-- Node2&#45;&gt;Node3 -->
<g id="edge4" class="edge"><title>Node2&#45;&gt;Node3</title>
<path fill="none" stroke="midnightblue" d="M596.683,-56.0027C555.486,-45.5685 498.402,-31.1105 460.162,-21.4252"/>
<polygon fill="midnightblue" stroke="midnightblue" points="595.977,-59.4342 606.53,-58.4966 597.695,-52.6485 595.977,-59.4342"/>
</g>
<!-- Node4 -->
<g id="node7" class="node"><title>Node4</title>
<a xlink:href="StatusBarTitle_8cpp.htm" target="_top" xlink:title="StatusBarTitle.cpp">
<polygon fill="white" stroke="black" points="652,-0.5 652,-21.5 754,-21.5 754,-0.5 652,-0.5"/>
<text text-anchor="middle" x="703" y="-8.5" font-family="Helvetica,sans-Serif" font-size="10.00">StatusBarTitle.cpp</text>
</a>
</g>
<!-- Node2&#45;&gt;Node4 -->
<g id="edge6" class="edge"><title>Node2&#45;&gt;Node4</title>
<path fill="none" stroke="midnightblue" d="M665.23,-50.8299C674.355,-41.2078 685.24,-29.7282 692.976,-21.5707"/>
<polygon fill="midnightblue" stroke="midnightblue" points="662.429,-48.6973 658.088,-58.3619 667.508,-53.514 662.429,-48.6973"/>
</g>
<!-- Node5&#45;&gt;Node3 -->
<g id="edge10" class="edge"><title>Node5&#45;&gt;Node3</title>
<path fill="none" stroke="midnightblue" d="M165.716,-57.7079C256.644,-41.1273 281.353,-39.3288 369,-22 371.877,-21.4311 374.844,-20.8261 377.828,-20.2037"/>
<polygon fill="midnightblue" stroke="midnightblue" points="165.012,-54.2785 155.807,-59.5251 166.275,-61.1637 165.012,-54.2785"/>
</g>
<!-- Node6 -->
<g id="node12" class="node"><title>Node6</title>
<a xlink:href="StatusBarClock_8cpp.htm" target="_top" xlink:title="StatusBarClock.cpp">
<polygon fill="white" stroke="black" points="0,-0.5 0,-21.5 108,-21.5 108,-0.5 0,-0.5"/>
<text text-anchor="middle" x="54" y="-8.5" font-family="Helvetica,sans-Serif" font-size="10.00">StatusBarClock.cpp</text>
</a>
</g>
<!-- Node5&#45;&gt;Node6 -->
<g id="edge12" class="edge"><title>Node5&#45;&gt;Node6</title>
<path fill="none" stroke="midnightblue" d="M90.3963,-50.8299C81.6037,-41.2078 71.1137,-29.7282 63.6594,-21.5707"/>
<polygon fill="midnightblue" stroke="midnightblue" points="87.9495,-53.3408 97.279,-58.3619 93.117,-48.6188 87.9495,-53.3408"/>
</g>
<!-- Node7&#45;&gt;Node3 -->
<g id="edge16" class="edge"><title>Node7&#45;&gt;Node3</title>
<path fill="none" stroke="midnightblue" d="M270,-55.5464C304.655,-45.1857 351.88,-31.0668 383.802,-21.5231"/>
<polygon fill="midnightblue" stroke="midnightblue" points="268.71,-52.2788 260.132,-58.4966 270.715,-58.9855 268.71,-52.2788"/>
</g>
<!-- Node8 -->
<g id="node17" class="node"><title>Node8</title>
<a xlink:href="StatusBarBattery_8cpp.htm" target="_top" xlink:title="StatusBarBattery.cpp">
<polygon fill="white" stroke="black" points="126,-0.5 126,-21.5 242,-21.5 242,-0.5 126,-0.5"/>
<text text-anchor="middle" x="184" y="-8.5" font-family="Helvetica,sans-Serif" font-size="10.00">StatusBarBattery.cpp</text>
</a>
</g>
<!-- Node7&#45;&gt;Node8 -->
<g id="edge18" class="edge"><title>Node7&#45;&gt;Node8</title>
<path fill="none" stroke="midnightblue" d="M211.54,-49.9591C204.869,-40.522 197.066,-29.4835 191.472,-21.5707"/>
<polygon fill="midnightblue" stroke="midnightblue" points="208.85,-52.2165 217.48,-58.3619 214.566,-48.1758 208.85,-52.2165"/>
</g>
<!-- Node9&#45;&gt;Node3 -->
<g id="edge22" class="edge"><title>Node9&#45;&gt;Node3</title>
<path fill="none" stroke="midnightblue" d="M362.092,-52.2587C375.739,-42.3641 392.605,-30.1361 404.42,-21.5707"/>
<polygon fill="midnightblue" stroke="midnightblue" points="359.715,-49.6585 353.673,-58.3619 363.824,-55.3258 359.715,-49.6585"/>
</g>
<!-- Node10 -->
<g id="node22" class="node"><title>Node10</title>
<a xlink:href="StatusBarInfo_8cpp.htm" target="_top" xlink:title="StatusBarInfo.cpp">
<polygon fill="white" stroke="black" points="260,-0.5 260,-21.5 360,-21.5 360,-0.5 260,-0.5"/>
<text text-anchor="middle" x="310" y="-8.5" font-family="Helvetica,sans-Serif" font-size="10.00">StatusBarInfo.cpp</text>
</a>
</g>
<!-- Node9&#45;&gt;Node10 -->
<g id="edge24" class="edge"><title>Node9&#45;&gt;Node10</title>
<path fill="none" stroke="midnightblue" d="M329.187,-49.3733C324.534,-40.0682 319.16,-29.3204 315.285,-21.5707"/>
<polygon fill="midnightblue" stroke="midnightblue" points="326.078,-50.9829 333.681,-58.3619 332.339,-47.8524 326.078,-50.9829"/>
</g>
<!-- Node11&#45;&gt;Node3 -->
<g id="edge30" class="edge"><title>Node11&#45;&gt;Node3</title>
<path fill="none" stroke="midnightblue" d="M486.059,-52.8215C470.04,-42.8312 449.945,-30.2993 435.949,-21.5707"/>
<polygon fill="midnightblue" stroke="midnightblue" points="484.605,-56.0399 494.942,-58.3619 488.309,-50.1003 484.605,-56.0399"/>
</g>
<!-- Node12 -->
<g id="node28" class="node"><title>Node12</title>
<a xlink:href="StatusBarNotificationArea_8cpp.htm" target="_top" xlink:title="StatusBarNotificationArea.cpp">
<polygon fill="white" stroke="black" points="477.5,-0.5 477.5,-21.5 634.5,-21.5 634.5,-0.5 477.5,-0.5"/>
<text text-anchor="middle" x="556" y="-8.5" font-family="Helvetica,sans-Serif" font-size="10.00">StatusBarNotificationArea.cpp</text>
</a>
</g>
<!-- Node11&#45;&gt;Node12 -->
<g id="edge32" class="edge"><title>Node11&#45;&gt;Node12</title>
<path fill="none" stroke="midnightblue" d="M526.224,-50.2504C533.431,-40.75 541.916,-29.5651 547.981,-21.5707"/>
<polygon fill="midnightblue" stroke="midnightblue" points="523.326,-48.2796 520.07,-58.3619 528.903,-52.5103 523.326,-48.2796"/>
</g>
<!-- Node13&#45;&gt;Node3 -->
<g id="edge36" class="edge"><title>Node13&#45;&gt;Node3</title>
<path fill="none" stroke="midnightblue" d="M700.823,-57.829C596.809,-41.7052 568.88,-40.6834 469,-22 466.117,-21.4607 463.146,-20.8776 460.159,-20.2711"/>
<polygon fill="midnightblue" stroke="midnightblue" points="700.372,-61.3008 710.792,-59.3842 701.451,-54.3844 700.372,-61.3008"/>
</g>
<!-- Node13&#45;&gt;Node14 -->
<g id="edge38" class="edge"><title>Node13&#45;&gt;Node14</title>
<path fill="none" stroke="midnightblue" d="M792.428,-51.9753C804.817,-42.1315 820.018,-30.0545 830.696,-21.5707"/>
<polygon fill="midnightblue" stroke="midnightblue" points="790.042,-49.4008 784.389,-58.3619 794.396,-54.8815 790.042,-49.4008"/>
</g>
</g>
</svg>
