<?xml version="1.0" encoding="UTF-8" standalone="no"?>
<!DOCTYPE svg PUBLIC "-//W3C//DTD SVG 1.1//EN"
 "http://www.w3.org/Graphics/SVG/1.1/DTD/svg11.dtd">
<!-- Generated by graphviz version 2.26.3 (20100126.1600)
 -->
<!-- Title: staticmatchlist.h Pages: 1 -->
<svg width="194pt" height="88pt"
 viewBox="0.00 0.00 194.00 88.00" xmlns="http://www.w3.org/2000/svg" xmlns:xlink="http://www.w3.org/1999/xlink">
<g id="graph1" class="graph" transform="scale(1 1) rotate(0) translate(4 84)">
<title>staticmatchlist.h</title>
<polygon fill="white" stroke="white" points="-4,5 -4,-84 191,-84 191,5 -4,5"/>
<!-- Node1 -->
<g id="node1" class="node"><title>Node1</title>
<polygon fill="#bfbfbf" stroke="black" points="50.5,-58.5 50.5,-79.5 141.5,-79.5 141.5,-58.5 50.5,-58.5"/>
<text text-anchor="middle" x="96" y="-66.5" font-family="Helvetica,sans-Serif" font-size="10.00">staticmatchlist.h</text>
</g>
<!-- Node2 -->
<g id="node3" class="node"><title>Node2</title>
<a xlink:href="filterlist_8h.htm" target="_top" xlink:title="filterlist.h">
<polygon fill="white" stroke="black" points="0,-0.5 0,-21.5 58,-21.5 58,-0.5 0,-0.5"/>
<text text-anchor="middle" x="29" y="-8.5" font-family="Helvetica,sans-Serif" font-size="10.00">filterlist.h</text>
</a>
</g>
<!-- Node1&#45;&gt;Node2 -->
<g id="edge2" class="edge"><title>Node1&#45;&gt;Node2</title>
<path fill="none" stroke="midnightblue" d="M83.7112,-58.3619C73.9833,-49.9408 60.2018,-38.0105 48.9045,-28.2308"/>
<polygon fill="midnightblue" stroke="midnightblue" points="51.0623,-25.4695 41.2109,-21.5707 46.4808,-30.7619 51.0623,-25.4695"/>
</g>
<!-- Node3 -->
<g id="node5" class="node"><title>Node3</title>
<polygon fill="white" stroke="#bfbfbf" points="75.5,-0.5 75.5,-21.5 116.5,-21.5 116.5,-0.5 75.5,-0.5"/>
<text text-anchor="middle" x="96" y="-8.5" font-family="Helvetica,sans-Serif" font-size="10.00">QSet</text>
</g>
<!-- Node1&#45;&gt;Node3 -->
<g id="edge4" class="edge"><title>Node1&#45;&gt;Node3</title>
<path fill="none" stroke="midnightblue" d="M96,-58.3619C96,-50.9219 96,-40.7427 96,-31.7276"/>
<polygon fill="midnightblue" stroke="midnightblue" points="99.5001,-31.5706 96,-21.5707 92.5001,-31.5707 99.5001,-31.5706"/>
</g>
<!-- Node4 -->
<g id="node7" class="node"><title>Node4</title>
<polygon fill="white" stroke="#bfbfbf" points="133.5,-0.5 133.5,-21.5 186.5,-21.5 186.5,-0.5 133.5,-0.5"/>
<text text-anchor="middle" x="160" y="-8.5" font-family="Helvetica,sans-Serif" font-size="10.00">QString</text>
</g>
<!-- Node1&#45;&gt;Node4 -->
<g id="edge6" class="edge"><title>Node1&#45;&gt;Node4</title>
<path fill="none" stroke="midnightblue" d="M107.739,-58.3619C116.941,-50.0226 129.94,-38.2418 140.672,-28.5162"/>
<polygon fill="midnightblue" stroke="midnightblue" points="143.276,-30.8793 148.336,-21.5707 138.576,-25.6924 143.276,-30.8793"/>
</g>
</g>
</svg>
