<?xml version="1.0" encoding="UTF-8" standalone="no"?>
<!DOCTYPE svg PUBLIC "-//W3C//DTD SVG 1.1//EN"
 "http://www.w3.org/Graphics/SVG/1.1/DTD/svg11.dtd">
<!-- Generated by graphviz version 2.26.3 (20100126.1600)
 -->
<!-- Title: StatusBar.cpp Pages: 1 -->
<svg width="3640pt" height="320pt"
 viewBox="0.00 0.00 3639.56 320.00" xmlns="http://www.w3.org/2000/svg" xmlns:xlink="http://www.w3.org/1999/xlink">
<g id="graph1" class="graph" transform="scale(1 1) rotate(0) translate(4 316)">
<title>StatusBar.cpp</title>
<polygon fill="white" stroke="white" points="-4,5 -4,-316 3636.56,-316 3636.56,5 -4,5"/>
<!-- Node1 -->
<g id="node1" class="node"><title>Node1</title>
<polygon fill="#bfbfbf" stroke="black" points="1294.56,-290.5 1294.56,-311.5 1376.56,-311.5 1376.56,-290.5 1294.56,-290.5"/>
<text text-anchor="middle" x="1335.56" y="-298.5" font-family="Helvetica,sans-Serif" font-size="10.00">StatusBar.cpp</text>
</g>
<!-- Node2 -->
<g id="node3" class="node"><title>Node2</title>
<a xlink:href="StatusBar_8h.htm" target="_top" xlink:title="StatusBar.h">
<polygon fill="white" stroke="black" points="1145.06,-116.5 1145.06,-137.5 1216.06,-137.5 1216.06,-116.5 1145.06,-116.5"/>
<text text-anchor="middle" x="1180.56" y="-124.5" font-family="Helvetica,sans-Serif" font-size="10.00">StatusBar.h</text>
</a>
</g>
<!-- Node1&#45;&gt;Node2 -->
<g id="edge2" class="edge"><title>Node1&#45;&gt;Node2</title>
<path fill="none" stroke="midnightblue" d="M1323.27,-290.332C1302.58,-272.071 1259.96,-233.183 1228.56,-196 1215.12,-180.087 1201.74,-160.469 1192.54,-146.224"/>
<polygon fill="midnightblue" stroke="midnightblue" points="1195.45,-144.289 1187.13,-137.732 1189.55,-148.048 1195.45,-144.289"/>
</g>
<!-- Node11 -->
<g id="node23" class="node"><title>Node11</title>
<polygon fill="white" stroke="#bfbfbf" points="3441.06,-116.5 3441.06,-137.5 3504.06,-137.5 3504.06,-116.5 3441.06,-116.5"/>
<text text-anchor="middle" x="3472.56" y="-124.5" font-family="Helvetica,sans-Serif" font-size="10.00">Settings.h</text>
</g>
<!-- Node1&#45;&gt;Node11 -->
<g id="edge24" class="edge"><title>Node1&#45;&gt;Node11</title>
<path fill="none" stroke="midnightblue" d="M1376.83,-300.618C1597.97,-298.447 2644.56,-286.594 2966.56,-254 3115.58,-238.915 3154.4,-236.71 3298.56,-196 3349.65,-181.571 3406.39,-157.457 3440.77,-141.896"/>
<polygon fill="midnightblue" stroke="midnightblue" points="3442.63,-144.895 3450.27,-137.555 3439.72,-138.528 3442.63,-144.895"/>
</g>
<!-- Node12 -->
<g id="node25" class="node"><title>Node12</title>
<a xlink:href="Preferences_8h.htm" target="_top" xlink:title="Preferences.h">
<polygon fill="white" stroke="black" points="629.056,-174.5 629.056,-195.5 712.056,-195.5 712.056,-174.5 629.056,-174.5"/>
<text text-anchor="middle" x="670.556" y="-182.5" font-family="Helvetica,sans-Serif" font-size="10.00">Preferences.h</text>
</a>
</g>
<!-- Node1&#45;&gt;Node12 -->
<g id="edge26" class="edge"><title>Node1&#45;&gt;Node12</title>
<path fill="none" stroke="midnightblue" d="M1294.33,-298.457C1192.99,-291.972 933.803,-273.918 849.556,-254 795.784,-241.287 736.531,-216.073 701.483,-199.9"/>
<polygon fill="midnightblue" stroke="midnightblue" points="702.807,-196.655 692.265,-195.596 699.845,-202.998 702.807,-196.655"/>
</g>
<!-- Node17 -->
<g id="node38" class="node"><title>Node17</title>
<a xlink:href="SystemService_8h.htm" target="_top" xlink:title="SystemService.h">
<polygon fill="white" stroke="black" points="729.056,-174.5 729.056,-195.5 824.056,-195.5 824.056,-174.5 729.056,-174.5"/>
<text text-anchor="middle" x="776.556" y="-182.5" font-family="Helvetica,sans-Serif" font-size="10.00">SystemService.h</text>
</a>
</g>
<!-- Node1&#45;&gt;Node17 -->
<g id="edge42" class="edge"><title>Node1&#45;&gt;Node17</title>
<path fill="none" stroke="midnightblue" d="M1294.28,-298.468C1201.39,-292.45 978.435,-276.12 906.556,-254 866.97,-241.818 825.395,-217.4 800.22,-201.124"/>
<polygon fill="midnightblue" stroke="midnightblue" points="802,-198.106 791.722,-195.535 798.153,-203.954 802,-198.106"/>
</g>
<!-- Node19 -->
<g id="node46" class="node"><title>Node19</title>
<a xlink:href="StatusBarTitle_8h.htm" target="_top" xlink:title="StatusBarTitle.h">
<polygon fill="white" stroke="black" points="362.056,-232.5 362.056,-253.5 453.056,-253.5 453.056,-232.5 362.056,-232.5"/>
<text text-anchor="middle" x="407.556" y="-240.5" font-family="Helvetica,sans-Serif" font-size="10.00">StatusBarTitle.h</text>
</a>
</g>
<!-- Node1&#45;&gt;Node19 -->
<g id="edge54" class="edge"><title>Node1&#45;&gt;Node19</title>
<path fill="none" stroke="midnightblue" d="M1294.48,-298.433C1145.55,-289.125 633.722,-257.135 463.275,-246.482"/>
<polygon fill="midnightblue" stroke="midnightblue" points="463.461,-242.987 453.262,-245.857 463.024,-249.974 463.461,-242.987"/>
</g>
<!-- Node21 -->
<g id="node51" class="node"><title>Node21</title>
<a xlink:href="StatusBarItem_8h.htm" target="_top" xlink:title="StatusBarItem.h">
<polygon fill="white" stroke="black" points="445.056,-174.5 445.056,-195.5 536.056,-195.5 536.056,-174.5 445.056,-174.5"/>
<text text-anchor="middle" x="490.556" y="-182.5" font-family="Helvetica,sans-Serif" font-size="10.00">StatusBarItem.h</text>
</a>
</g>
<!-- Node1&#45;&gt;Node21 -->
<g id="edge120" class="edge"><title>Node1&#45;&gt;Node21</title>
<path fill="none" stroke="midnightblue" d="M1294.46,-299.734C1201.38,-296.393 967.503,-285.328 774.556,-254 689.215,-240.144 591.661,-214.164 535.96,-198.338"/>
<polygon fill="midnightblue" stroke="midnightblue" points="536.636,-194.891 526.059,-195.507 534.711,-201.622 536.636,-194.891"/>
</g>
<!-- Node22 -->
<g id="node57" class="node"><title>Node22</title>
<a xlink:href="StatusBarClock_8h.htm" target="_top" xlink:title="StatusBarClock.h">
<polygon fill="white" stroke="black" points="228.056,-232.5 228.056,-253.5 325.056,-253.5 325.056,-232.5 228.056,-232.5"/>
<text text-anchor="middle" x="276.556" y="-240.5" font-family="Helvetica,sans-Serif" font-size="10.00">StatusBarClock.h</text>
</a>
</g>
<!-- Node1&#45;&gt;Node22 -->
<g id="edge70" class="edge"><title>Node1&#45;&gt;Node22</title>
<path fill="none" stroke="midnightblue" d="M1294.29,-300.414C1159.08,-298.195 717.172,-288.597 353.556,-254 347.7,-253.443 341.607,-252.757 335.528,-252.002"/>
<polygon fill="midnightblue" stroke="midnightblue" points="335.722,-248.498 325.354,-250.677 334.818,-255.439 335.722,-248.498"/>
</g>
<!-- Node23 -->
<g id="node62" class="node"><title>Node23</title>
<a xlink:href="StatusBarBattery_8h.htm" target="_top" xlink:title="StatusBarBattery.h">
<polygon fill="white" stroke="black" points="85.5558,-232.5 85.5558,-253.5 189.556,-253.5 189.556,-232.5 85.5558,-232.5"/>
<text text-anchor="middle" x="137.556" y="-240.5" font-family="Helvetica,sans-Serif" font-size="10.00">StatusBarBattery.h</text>
</a>
</g>
<!-- Node1&#45;&gt;Node23 -->
<g id="edge78" class="edge"><title>Node1&#45;&gt;Node23</title>
<path fill="none" stroke="midnightblue" d="M1294.43,-300.621C1147.97,-298.984 638.265,-290.824 219.556,-254 213.265,-253.447 206.715,-252.759 200.183,-251.999"/>
<polygon fill="midnightblue" stroke="midnightblue" points="200.32,-248.49 189.97,-250.755 199.473,-255.439 200.32,-248.49"/>
</g>
<!-- Node25 -->
<g id="node68" class="node"><title>Node25</title>
<a xlink:href="StatusBarInfo_8h.htm" target="_top" xlink:title="StatusBarInfo.h">
<polygon fill="white" stroke="black" points="915.056,-232.5 915.056,-253.5 1004.06,-253.5 1004.06,-232.5 915.056,-232.5"/>
<text text-anchor="middle" x="959.556" y="-240.5" font-family="Helvetica,sans-Serif" font-size="10.00">StatusBarInfo.h</text>
</a>
</g>
<!-- Node1&#45;&gt;Node25 -->
<g id="edge86" class="edge"><title>Node1&#45;&gt;Node25</title>
<path fill="none" stroke="midnightblue" d="M1294.24,-294.627C1226.19,-284.13 1090.5,-263.199 1014.46,-251.469"/>
<polygon fill="midnightblue" stroke="midnightblue" points="1014.55,-247.942 1004.14,-249.877 1013.49,-254.86 1014.55,-247.942"/>
</g>
<!-- Node28 -->
<g id="node77" class="node"><title>Node28</title>
<polygon fill="white" stroke="#bfbfbf" points="183.056,-116.5 183.056,-137.5 242.056,-137.5 242.056,-116.5 183.056,-116.5"/>
<text text-anchor="middle" x="212.556" y="-124.5" font-family="Helvetica,sans-Serif" font-size="10.00">QPainter</text>
</g>
<!-- Node1&#45;&gt;Node28 -->
<g id="edge298" class="edge"><title>Node1&#45;&gt;Node28</title>
<path fill="none" stroke="midnightblue" d="M1294.37,-300.222C1083.74,-296.149 134.508,-276.595 76.5558,-254 33.0788,-237.049 -20.5018,-210.513 8.55577,-174 28.6588,-148.739 119.105,-135.904 172.581,-130.414"/>
<polygon fill="midnightblue" stroke="midnightblue" points="173.143,-133.875 182.752,-129.412 172.457,-126.909 173.143,-133.875"/>
</g>
<!-- Node29 -->
<g id="node82" class="node"><title>Node29</title>
<a xlink:href="StatusBarServicesConnector_8h.htm" target="_top" xlink:title="StatusBarServicesConnector.h">
<polygon fill="white" stroke="black" points="987.056,-174.5 987.056,-195.5 1148.06,-195.5 1148.06,-174.5 987.056,-174.5"/>
<text text-anchor="middle" x="1067.56" y="-182.5" font-family="Helvetica,sans-Serif" font-size="10.00">StatusBarServicesConnector.h</text>
</a>
</g>
<!-- Node1&#45;&gt;Node29 -->
<g id="edge158" class="edge"><title>Node1&#45;&gt;Node29</title>
<path fill="none" stroke="midnightblue" d="M1294.35,-298.425C1231.62,-293.67 1116.29,-281.382 1086.56,-254 1073.32,-241.808 1068.98,-221.323 1067.7,-205.833"/>
<polygon fill="midnightblue" stroke="midnightblue" points="1071.19,-205.456 1067.24,-195.627 1064.2,-205.777 1071.19,-205.456"/>
</g>
<!-- Node31 -->
<g id="node92" class="node"><title>Node31</title>
<a xlink:href="StatusBarNotificationArea_8h.htm" target="_top" xlink:title="StatusBarNotificationArea.h">
<polygon fill="white" stroke="black" points="1095.56,-232.5 1095.56,-253.5 1241.56,-253.5 1241.56,-232.5 1095.56,-232.5"/>
<text text-anchor="middle" x="1168.56" y="-240.5" font-family="Helvetica,sans-Serif" font-size="10.00">StatusBarNotificationArea.h</text>
</a>
</g>
<!-- Node1&#45;&gt;Node31 -->
<g id="edge122" class="edge"><title>Node1&#45;&gt;Node31</title>
<path fill="none" stroke="midnightblue" d="M1305.31,-290.497C1278.21,-281.082 1238.25,-267.204 1208.51,-256.877"/>
<polygon fill="midnightblue" stroke="midnightblue" points="1209.45,-253.498 1198.85,-253.523 1207.15,-260.11 1209.45,-253.498"/>
</g>
<!-- Node33 -->
<g id="node105" class="node"><title>Node33</title>
<a xlink:href="StatusBarItemGroup_8h.htm" target="_top" xlink:title="StatusBarItemGroup.h">
<polygon fill="white" stroke="black" points="1635.56,-232.5 1635.56,-253.5 1755.56,-253.5 1755.56,-232.5 1635.56,-232.5"/>
<text text-anchor="middle" x="1695.56" y="-240.5" font-family="Helvetica,sans-Serif" font-size="10.00">StatusBarItemGroup.h</text>
</a>
</g>
<!-- Node1&#45;&gt;Node33 -->
<g id="edge144" class="edge"><title>Node1&#45;&gt;Node33</title>
<path fill="none" stroke="midnightblue" d="M1376.85,-294.347C1437.44,-284.585 1551.24,-266.251 1625.18,-254.339"/>
<polygon fill="midnightblue" stroke="midnightblue" points="1626.02,-257.748 1635.33,-252.702 1624.91,-250.838 1626.02,-257.748"/>
</g>
<!-- Node36 -->
<g id="node116" class="node"><title>Node36</title>
<a xlink:href="AnimationSettings_8h.htm" target="_top" xlink:title="AnimationSettings.h">
<polygon fill="white" stroke="black" points="3521.56,-116.5 3521.56,-137.5 3631.56,-137.5 3631.56,-116.5 3521.56,-116.5"/>
<text text-anchor="middle" x="3576.56" y="-124.5" font-family="Helvetica,sans-Serif" font-size="10.00">AnimationSettings.h</text>
</a>
</g>
<!-- Node1&#45;&gt;Node36 -->
<g id="edge160" class="edge"><title>Node1&#45;&gt;Node36</title>
<path fill="none" stroke="midnightblue" d="M1376.79,-300.898C1606.14,-300.179 2726.57,-294.609 3069.56,-254 3247.25,-232.962 3452.01,-168.981 3536.71,-140.696"/>
<polygon fill="midnightblue" stroke="midnightblue" points="3537.84,-144.011 3546.2,-137.509 3535.61,-137.375 3537.84,-144.011"/>
</g>
<!-- Node39 -->
<g id="node126" class="node"><title>Node39</title>
<a xlink:href="WindowServerLuna_8h.htm" target="_top" xlink:title="WindowServerLuna.h">
<polygon fill="white" stroke="red" points="2193.06,-232.5 2193.06,-253.5 2310.06,-253.5 2310.06,-232.5 2193.06,-232.5"/>
<text text-anchor="middle" x="2251.56" y="-240.5" font-family="Helvetica,sans-Serif" font-size="10.00">WindowServerLuna.h</text>
</a>
</g>
<!-- Node1&#45;&gt;Node39 -->
<g id="edge174" class="edge"><title>Node1&#45;&gt;Node39</title>
<path fill="none" stroke="midnightblue" d="M1376.69,-298.395C1520.63,-289.281 2002.64,-258.761 2182.82,-247.352"/>
<polygon fill="midnightblue" stroke="midnightblue" points="2183.21,-250.835 2192.97,-246.71 2182.77,-243.849 2183.21,-250.835"/>
</g>
<!-- Node42 -->
<g id="node145" class="node"><title>Node42</title>
<polygon fill="white" stroke="#bfbfbf" points="2455.56,-116.5 2455.56,-137.5 2517.56,-137.5 2517.56,-116.5 2455.56,-116.5"/>
<text text-anchor="middle" x="2486.56" y="-124.5" font-family="Helvetica,sans-Serif" font-size="10.00">QGesture</text>
</g>
<!-- Node1&#45;&gt;Node42 -->
<g id="edge300" class="edge"><title>Node1&#45;&gt;Node42</title>
<path fill="none" stroke="midnightblue" d="M1376.66,-300.738C1538.8,-299.443 2134.2,-292.137 2318.56,-254 2390.18,-239.184 2425.14,-251.684 2472.56,-196 2483.8,-182.8 2486.88,-163.044 2487.39,-148.05"/>
<polygon fill="midnightblue" stroke="midnightblue" points="2490.89,-147.695 2487.38,-137.7 2483.89,-147.705 2490.89,-147.695"/>
</g>
<!-- Node45 -->
<g id="node157" class="node"><title>Node45</title>
<a xlink:href="DashboardWindowManager_8h.htm" target="_top" xlink:title="DashboardWindowManager.h">
<polygon fill="white" stroke="red" points="3096.06,-174.5 3096.06,-195.5 3253.06,-195.5 3253.06,-174.5 3096.06,-174.5"/>
<text text-anchor="middle" x="3174.56" y="-182.5" font-family="Helvetica,sans-Serif" font-size="10.00">DashboardWindowManager.h</text>
</a>
</g>
<!-- Node1&#45;&gt;Node45 -->
<g id="edge224" class="edge"><title>Node1&#45;&gt;Node45</title>
<path fill="none" stroke="midnightblue" d="M1376.67,-300.102C1571.92,-295.751 2406.8,-276.172 2666.56,-254 2822.44,-240.694 3003.76,-213.13 3102.09,-197.161"/>
<polygon fill="midnightblue" stroke="midnightblue" points="3102.91,-200.574 3112.21,-195.51 3101.78,-193.665 3102.91,-200.574"/>
</g>
<!-- Node46 -->
<g id="node166" class="node"><title>Node46</title>
<a xlink:href="DockModeWindowManager_8h.htm" target="_top" xlink:title="DockModeWindowManager.h">
<polygon fill="white" stroke="red" points="2879.56,-174.5 2879.56,-195.5 3035.56,-195.5 3035.56,-174.5 2879.56,-174.5"/>
<text text-anchor="middle" x="2957.56" y="-182.5" font-family="Helvetica,sans-Serif" font-size="10.00">DockModeWindowManager.h</text>
</a>
</g>
<!-- Node1&#45;&gt;Node46 -->
<g id="edge240" class="edge"><title>Node1&#45;&gt;Node46</title>
<path fill="none" stroke="midnightblue" d="M1376.78,-300.235C1564.38,-296.631 2338.53,-280.415 2579.56,-254 2695.14,-241.333 2828.56,-213.928 2901.95,-197.727"/>
<polygon fill="midnightblue" stroke="midnightblue" points="2902.89,-201.102 2911.9,-195.517 2901.38,-194.268 2902.89,-201.102"/>
</g>
<!-- Node47 -->
<g id="node175" class="node"><title>Node47</title>
<polygon fill="white" stroke="#bfbfbf" points="3335.06,-116.5 3335.06,-137.5 3424.06,-137.5 3424.06,-116.5 3335.06,-116.5"/>
<text text-anchor="middle" x="3379.56" y="-124.5" font-family="Helvetica,sans-Serif" font-size="10.00">QGestureEvent</text>
</g>
<!-- Node1&#45;&gt;Node47 -->
<g id="edge302" class="edge"><title>Node1&#45;&gt;Node47</title>
<path fill="none" stroke="midnightblue" d="M1376.67,-300.145C1581.71,-295.806 2495.2,-275.587 2778.56,-254 2994.14,-237.576 3056.62,-264.898 3261.56,-196 3297.7,-183.849 3334.95,-159.771 3357.69,-143.523"/>
<polygon fill="midnightblue" stroke="midnightblue" points="3359.92,-146.23 3365.94,-137.513 3355.8,-140.573 3359.92,-146.23"/>
</g>
<!-- Node48 -->
<g id="node179" class="node"><title>Node48</title>
<a xlink:href="DockModeMenuManager_8h.htm" target="_top" xlink:title="DockModeMenuManager.h">
<polygon fill="white" stroke="red" points="2561.06,-174.5 2561.06,-195.5 2706.06,-195.5 2706.06,-174.5 2561.06,-174.5"/>
<text text-anchor="middle" x="2633.56" y="-182.5" font-family="Helvetica,sans-Serif" font-size="10.00">DockModeMenuManager.h</text>
</a>
</g>
<!-- Node1&#45;&gt;Node48 -->
<g id="edge262" class="edge"><title>Node1&#45;&gt;Node48</title>
<path fill="none" stroke="midnightblue" d="M1376.88,-300.125C1582.92,-295.668 2491.61,-274.895 2547.56,-254 2575.76,-243.467 2601.76,-219.835 2617.63,-203.174"/>
<polygon fill="midnightblue" stroke="midnightblue" points="2620.37,-205.368 2624.57,-195.642 2615.22,-200.625 2620.37,-205.368"/>
</g>
<!-- Node49 -->
<g id="node183" class="node"><title>Node49</title>
<a xlink:href="DashboardWindowContainer_8h.htm" target="_top" xlink:title="DashboardWindowContainer.h">
<polygon fill="white" stroke="red" points="1761.06,-174.5 1761.06,-195.5 1922.06,-195.5 1922.06,-174.5 1761.06,-174.5"/>
<text text-anchor="middle" x="1841.56" y="-182.5" font-family="Helvetica,sans-Serif" font-size="10.00">DashboardWindowContainer.h</text>
</a>
</g>
<!-- Node1&#45;&gt;Node49 -->
<g id="edge268" class="edge"><title>Node1&#45;&gt;Node49</title>
<path fill="none" stroke="midnightblue" d="M1376.58,-299.688C1469.98,-296.193 1695.71,-284.735 1764.56,-254 1789.96,-242.659 1812.83,-219.76 1826.92,-203.454"/>
<polygon fill="midnightblue" stroke="midnightblue" points="1829.73,-205.545 1833.45,-195.625 1824.36,-201.059 1829.73,-205.545"/>
</g>
<!-- Node50 -->
<g id="node191" class="node"><title>Node50</title>
<a xlink:href="SystemUiController_8h.htm" target="_top" xlink:title="SystemUiController.h">
<polygon fill="white" stroke="red" points="1437.56,-174.5 1437.56,-195.5 1553.56,-195.5 1553.56,-174.5 1437.56,-174.5"/>
<text text-anchor="middle" x="1495.56" y="-182.5" font-family="Helvetica,sans-Serif" font-size="10.00">SystemUiController.h</text>
</a>
</g>
<!-- Node1&#45;&gt;Node50 -->
<g id="edge282" class="edge"><title>Node1&#45;&gt;Node50</title>
<path fill="none" stroke="midnightblue" d="M1350.32,-290.295C1378.3,-270.009 1439.22,-225.84 1472.59,-201.653"/>
<polygon fill="midnightblue" stroke="midnightblue" points="1474.78,-204.383 1480.83,-195.679 1470.68,-198.715 1474.78,-204.383"/>
</g>
<!-- Node3 -->
<g id="node5" class="node"><title>Node3</title>
<a xlink:href="Window_8h.htm" target="_top" xlink:title="Window.h">
<polygon fill="white" stroke="red" points="2141.56,-58.5 2141.56,-79.5 2203.56,-79.5 2203.56,-58.5 2141.56,-58.5"/>
<text text-anchor="middle" x="2172.56" y="-66.5" font-family="Helvetica,sans-Serif" font-size="10.00">Window.h</text>
</a>
</g>
<!-- Node2&#45;&gt;Node3 -->
<g id="edge4" class="edge"><title>Node2&#45;&gt;Node3</title>
<path fill="none" stroke="midnightblue" d="M1216.46,-117.417C1219.19,-116.875 1221.91,-116.393 1224.56,-116 1269.96,-109.266 1954.53,-78.6473 2131.2,-70.8242"/>
<polygon fill="midnightblue" stroke="midnightblue" points="2131.55,-74.3124 2141.39,-70.3737 2131.24,-67.3193 2131.55,-74.3124"/>
</g>
<!-- Node7 -->
<g id="node13" class="node"><title>Node7</title>
<polygon fill="white" stroke="#bfbfbf" points="466.556,-0.5 466.556,-21.5 564.556,-21.5 564.556,-0.5 466.556,-0.5"/>
<text text-anchor="middle" x="515.556" y="-8.5" font-family="Helvetica,sans-Serif" font-size="10.00">QGraphicsObject</text>
</g>
<!-- Node2&#45;&gt;Node7 -->
<g id="edge16" class="edge"><title>Node2&#45;&gt;Node7</title>
<path fill="none" stroke="midnightblue" d="M1144.8,-120.763C1036.34,-101.844 710.248,-44.9613 575.165,-21.3981"/>
<polygon fill="midnightblue" stroke="midnightblue" points="575.457,-17.8961 565.004,-19.6256 574.254,-24.792 575.457,-17.8961"/>
</g>
<!-- Node8 -->
<g id="node15" class="node"><title>Node8</title>
<polygon fill="white" stroke="#bfbfbf" points="1727.06,-58.5 1727.06,-79.5 1786.06,-79.5 1786.06,-58.5 1727.06,-58.5"/>
<text text-anchor="middle" x="1756.56" y="-66.5" font-family="Helvetica,sans-Serif" font-size="10.00">QPointer</text>
</g>
<!-- Node2&#45;&gt;Node8 -->
<g id="edge14" class="edge"><title>Node2&#45;&gt;Node8</title>
<path fill="none" stroke="midnightblue" d="M1216.47,-117.504C1219.2,-116.942 1221.91,-116.431 1224.56,-116 1425.2,-83.2335 1478.52,-102.572 1680.56,-80 1692.44,-78.6719 1705.33,-76.9237 1717.06,-75.2128"/>
<polygon fill="midnightblue" stroke="midnightblue" points="1717.64,-78.6652 1727.02,-73.7305 1716.61,-71.7416 1717.64,-78.6652"/>
</g>
<!-- Node9 -->
<g id="node18" class="node"><title>Node9</title>
<a xlink:href="VariantAnimation_8h.htm" target="_top" xlink:title="VariantAnimation.h">
<polygon fill="white" stroke="red" points="1567.06,-58.5 1567.06,-79.5 1672.06,-79.5 1672.06,-58.5 1567.06,-58.5"/>
<text text-anchor="middle" x="1619.56" y="-66.5" font-family="Helvetica,sans-Serif" font-size="10.00">VariantAnimation.h</text>
</a>
</g>
<!-- Node2&#45;&gt;Node9 -->
<g id="edge18" class="edge"><title>Node2&#45;&gt;Node9</title>
<path fill="none" stroke="midnightblue" d="M1216.49,-117.622C1219.21,-117.033 1221.92,-116.484 1224.56,-116 1340.91,-94.6214 1478.42,-80.8085 1556.67,-74.0089"/>
<polygon fill="midnightblue" stroke="midnightblue" points="1557.18,-77.4781 1566.85,-73.1355 1556.58,-70.5038 1557.18,-77.4781"/>
</g>
<!-- Node10 -->
<g id="node21" class="node"><title>Node10</title>
<polygon fill="white" stroke="#bfbfbf" points="1803.56,-58.5 1803.56,-79.5 1895.56,-79.5 1895.56,-58.5 1803.56,-58.5"/>
<text text-anchor="middle" x="1849.56" y="-66.5" font-family="Helvetica,sans-Serif" font-size="10.00">CustomEvents.h</text>
</g>
<!-- Node2&#45;&gt;Node10 -->
<g id="edge22" class="edge"><title>Node2&#45;&gt;Node10</title>
<path fill="none" stroke="midnightblue" d="M1216.47,-117.457C1219.19,-116.906 1221.91,-116.411 1224.56,-116 1472.08,-77.5701 1541.06,-112.031 1793.21,-80.0143"/>
<polygon fill="midnightblue" stroke="midnightblue" points="1793.95,-83.4484 1803.42,-78.6952 1793.05,-76.5061 1793.95,-83.4484"/>
</g>
<!-- Node4 -->
<g id="node7" class="node"><title>Node4</title>
<polygon fill="white" stroke="#bfbfbf" points="2236.06,-0.5 2236.06,-21.5 2303.06,-21.5 2303.06,-0.5 2236.06,-0.5"/>
<text text-anchor="middle" x="2269.56" y="-8.5" font-family="Helvetica,sans-Serif" font-size="10.00">Common.h</text>
</g>
<!-- Node3&#45;&gt;Node4 -->
<g id="edge6" class="edge"><title>Node3&#45;&gt;Node4</title>
<path fill="none" stroke="midnightblue" d="M2190.35,-58.3619C2205.11,-49.532 2226.33,-36.844 2243.09,-26.8224"/>
<polygon fill="midnightblue" stroke="midnightblue" points="2245.09,-29.7066 2251.88,-21.5707 2241.5,-23.6987 2245.09,-29.7066"/>
</g>
<!-- Node5 -->
<g id="node9" class="node"><title>Node5</title>
<polygon fill="white" stroke="#bfbfbf" points="1313.06,-0.5 1313.06,-21.5 1356.06,-21.5 1356.06,-0.5 1313.06,-0.5"/>
<text text-anchor="middle" x="1334.56" y="-8.5" font-family="Helvetica,sans-Serif" font-size="10.00">string</text>
</g>
<!-- Node3&#45;&gt;Node5 -->
<g id="edge8" class="edge"><title>Node3&#45;&gt;Node5</title>
<path fill="none" stroke="midnightblue" d="M2141.23,-60.5769C2136.67,-59.5743 2132.01,-58.6707 2127.56,-58 1976.82,-35.3 1495.11,-16.758 1366.42,-12.1192"/>
<polygon fill="midnightblue" stroke="midnightblue" points="1366.2,-8.60923 1356.08,-11.7492 1365.95,-15.6048 1366.2,-8.60923"/>
</g>
<!-- Node6 -->
<g id="node11" class="node"><title>Node6</title>
<polygon fill="white" stroke="#bfbfbf" points="2937.06,-0.5 2937.06,-21.5 2978.06,-21.5 2978.06,-0.5 2937.06,-0.5"/>
<text text-anchor="middle" x="2957.56" y="-8.5" font-family="Helvetica,sans-Serif" font-size="10.00">glib.h</text>
</g>
<!-- Node3&#45;&gt;Node6 -->
<g id="edge10" class="edge"><title>Node3&#45;&gt;Node6</title>
<path fill="none" stroke="midnightblue" d="M2203.81,-66.6905C2330.02,-57.3654 2801.28,-22.5462 2926.72,-13.2782"/>
<polygon fill="midnightblue" stroke="midnightblue" points="2927.08,-16.7617 2936.79,-12.5342 2926.56,-9.78069 2927.08,-16.7617"/>
</g>
<!-- Node3&#45;&gt;Node7 -->
<g id="edge12" class="edge"><title>Node3&#45;&gt;Node7</title>
<path fill="none" stroke="midnightblue" d="M2141.5,-64.1205C2125.94,-61.8713 2106.8,-59.3962 2089.56,-58 1786.84,-33.4849 823.951,-16.1202 574.848,-11.9604"/>
<polygon fill="midnightblue" stroke="midnightblue" points="574.617,-8.45613 564.56,-11.7893 574.5,-15.4552 574.617,-8.45613"/>
</g>
<!-- Node9&#45;&gt;Node4 -->
<g id="edge20" class="edge"><title>Node9&#45;&gt;Node4</title>
<path fill="none" stroke="midnightblue" d="M1672.19,-62.8985C1687.17,-61.2316 1703.5,-59.4786 1718.56,-58 1907.16,-39.4812 2132.5,-21.5773 2225.8,-14.3503"/>
<polygon fill="midnightblue" stroke="midnightblue" points="2226.29,-17.8231 2235.99,-13.5629 2225.75,-10.844 2226.29,-17.8231"/>
</g>
<!-- Node12&#45;&gt;Node4 -->
<g id="edge28" class="edge"><title>Node12&#45;&gt;Node4</title>
<path fill="none" stroke="midnightblue" d="M695.641,-174.318C716.507,-165.225 746.842,-151.521 772.556,-138 789.489,-129.096 791.489,-122.295 809.556,-116 991.661,-52.5531 1047.49,-75.301 1239.56,-58 1620.46,-23.6879 2083,-13.9115 2225.6,-11.6161"/>
<polygon fill="midnightblue" stroke="midnightblue" points="2225.75,-15.1142 2235.7,-11.4575 2225.64,-8.11503 2225.75,-15.1142"/>
</g>
<!-- Node12&#45;&gt;Node5 -->
<g id="edge32" class="edge"><title>Node12&#45;&gt;Node5</title>
<path fill="none" stroke="midnightblue" d="M684.248,-174.41C704.191,-159.447 742.861,-132.146 779.556,-116 966.103,-33.9185 1215.55,-15.9072 1302.82,-12.0353"/>
<polygon fill="midnightblue" stroke="midnightblue" points="1303.03,-15.5297 1312.87,-11.621 1302.74,-8.53566 1303.03,-15.5297"/>
</g>
<!-- Node12&#45;&gt;Node10 -->
<g id="edge38" class="edge"><title>Node12&#45;&gt;Node10</title>
<path fill="none" stroke="midnightblue" d="M700.344,-174.483C750.925,-156.809 851.7,-122.445 888.556,-116 1282.22,-47.1572 1392.57,-126.328 1793.3,-79.9651"/>
<polygon fill="midnightblue" stroke="midnightblue" points="1793.9,-83.4186 1803.43,-78.7744 1793.09,-76.4665 1793.9,-83.4186"/>
</g>
<!-- Node13 -->
<g id="node28" class="node"><title>Node13</title>
<polygon fill="white" stroke="#bfbfbf" points="613.556,-116.5 613.556,-137.5 727.556,-137.5 727.556,-116.5 613.556,-116.5"/>
<text text-anchor="middle" x="670.556" y="-124.5" font-family="Helvetica,sans-Serif" font-size="10.00">LocalePreferences.h</text>
</g>
<!-- Node12&#45;&gt;Node13 -->
<g id="edge30" class="edge"><title>Node12&#45;&gt;Node13</title>
<path fill="none" stroke="midnightblue" d="M670.556,-174.362C670.556,-166.922 670.556,-156.743 670.556,-147.728"/>
<polygon fill="midnightblue" stroke="midnightblue" points="674.056,-147.571 670.556,-137.571 667.056,-147.571 674.056,-147.571"/>
</g>
<!-- Node14 -->
<g id="node31" class="node"><title>Node14</title>
<polygon fill="white" stroke="#bfbfbf" points="897.556,-116.5 897.556,-137.5 975.556,-137.5 975.556,-116.5 897.556,-116.5"/>
<text text-anchor="middle" x="936.556" y="-124.5" font-family="Helvetica,sans-Serif" font-size="10.00">lunaservice.h</text>
</g>
<!-- Node12&#45;&gt;Node14 -->
<g id="edge34" class="edge"><title>Node12&#45;&gt;Node14</title>
<path fill="none" stroke="midnightblue" d="M712.296,-175.81C715.091,-175.197 717.864,-174.589 720.556,-174 777.945,-161.443 843.933,-147.099 887.716,-137.594"/>
<polygon fill="midnightblue" stroke="midnightblue" points="888.499,-141.005 897.529,-135.464 887.014,-134.165 888.499,-141.005"/>
</g>
<!-- Node15 -->
<g id="node33" class="node"><title>Node15</title>
<polygon fill="white" stroke="#bfbfbf" points="543.056,-116.5 543.056,-137.5 596.056,-137.5 596.056,-116.5 543.056,-116.5"/>
<text text-anchor="middle" x="569.556" y="-124.5" font-family="Helvetica,sans-Serif" font-size="10.00">Mutex.h</text>
</g>
<!-- Node12&#45;&gt;Node15 -->
<g id="edge36" class="edge"><title>Node12&#45;&gt;Node15</title>
<path fill="none" stroke="midnightblue" d="M652.031,-174.362C636.655,-165.532 614.56,-152.844 597.109,-142.822"/>
<polygon fill="midnightblue" stroke="midnightblue" points="598.378,-139.515 587.963,-137.571 594.892,-145.586 598.378,-139.515"/>
</g>
<!-- Node16 -->
<g id="node36" class="node"><title>Node16</title>
<polygon fill="white" stroke="#bfbfbf" points="1233.06,-116.5 1233.06,-137.5 1288.06,-137.5 1288.06,-116.5 1233.06,-116.5"/>
<text text-anchor="middle" x="1260.56" y="-124.5" font-family="Helvetica,sans-Serif" font-size="10.00">QObject</text>
</g>
<!-- Node12&#45;&gt;Node16 -->
<g id="edge40" class="edge"><title>Node12&#45;&gt;Node16</title>
<path fill="none" stroke="midnightblue" d="M712.215,-175.361C715.029,-174.856 717.829,-174.395 720.556,-174 939.549,-142.261 1001.95,-177.995 1222.84,-137.991"/>
<polygon fill="midnightblue" stroke="midnightblue" points="1223.6,-141.411 1232.8,-136.157 1222.33,-134.527 1223.6,-141.411"/>
</g>
<!-- Node17&#45;&gt;Node4 -->
<g id="edge44" class="edge"><title>Node17&#45;&gt;Node4</title>
<path fill="none" stroke="midnightblue" d="M824.377,-175.542C866.744,-166.844 930.14,-153.045 984.556,-138 1014.76,-129.648 1021.03,-123.122 1051.56,-116 1229.92,-74.3803 1277.31,-76.2095 1459.56,-58 1751.35,-28.845 2104.23,-16.0266 2225.87,-12.2552"/>
<polygon fill="midnightblue" stroke="midnightblue" points="2226.02,-15.7523 2235.91,-11.9483 2225.81,-8.75559 2226.02,-15.7523"/>
</g>
<!-- Node17&#45;&gt;Node5 -->
<g id="edge46" class="edge"><title>Node17&#45;&gt;Node5</title>
<path fill="none" stroke="midnightblue" d="M790.603,-174.264C811.068,-159.123 850.771,-131.606 888.556,-116 1036.77,-54.7846 1228.11,-24.8694 1302.76,-14.9179"/>
<polygon fill="midnightblue" stroke="midnightblue" points="1303.44,-18.3582 1312.91,-13.5931 1302.54,-11.4171 1303.44,-18.3582"/>
</g>
<!-- Node17&#45;&gt;Node14 -->
<g id="edge48" class="edge"><title>Node17&#45;&gt;Node14</title>
<path fill="none" stroke="midnightblue" d="M805.531,-174.497C831.389,-165.123 869.454,-151.324 897.901,-141.012"/>
<polygon fill="midnightblue" stroke="midnightblue" points="899.318,-144.222 907.527,-137.523 896.932,-137.641 899.318,-144.222"/>
</g>
<!-- Node17&#45;&gt;Node16 -->
<g id="edge52" class="edge"><title>Node17&#45;&gt;Node16</title>
<path fill="none" stroke="midnightblue" d="M824.158,-175.305C826.995,-174.835 829.81,-174.395 832.556,-174 1002.52,-149.568 1051.09,-170.916 1222.91,-138.024"/>
<polygon fill="midnightblue" stroke="midnightblue" points="1223.64,-141.447 1232.79,-136.099 1222.31,-134.576 1223.64,-141.447"/>
</g>
<!-- Node18 -->
<g id="node43" class="node"><title>Node18</title>
<polygon fill="white" stroke="#bfbfbf" points="1989.56,-116.5 1989.56,-137.5 2041.56,-137.5 2041.56,-116.5 1989.56,-116.5"/>
<text text-anchor="middle" x="2015.56" y="-124.5" font-family="Helvetica,sans-Serif" font-size="10.00">QTimer</text>
</g>
<!-- Node17&#45;&gt;Node18 -->
<g id="edge50" class="edge"><title>Node17&#45;&gt;Node18</title>
<path fill="none" stroke="midnightblue" d="M824.136,-175.136C826.978,-174.708 829.8,-174.323 832.556,-174 890.847,-167.159 1787.04,-135.104 1979.38,-128.28"/>
<polygon fill="midnightblue" stroke="midnightblue" points="1979.65,-131.772 1989.52,-127.92 1979.41,-124.777 1979.65,-131.772"/>
</g>
<!-- Node19&#45;&gt;Node2 -->
<g id="edge68" class="edge"><title>Node19&#45;&gt;Node2</title>
<path fill="none" stroke="midnightblue" d="M408.593,-232.472C410.755,-216.797 417.281,-187.703 436.556,-174 443.713,-168.912 973.843,-138.65 1134.75,-129.572"/>
<polygon fill="midnightblue" stroke="midnightblue" points="1135.02,-133.063 1144.81,-129.006 1134.63,-126.074 1135.02,-133.063"/>
</g>
<!-- Node19&#45;&gt;Node7 -->
<g id="edge56" class="edge"><title>Node19&#45;&gt;Node7</title>
<path fill="none" stroke="midnightblue" d="M404.692,-232.131C401.521,-218.44 397.376,-194.255 401.556,-174 412.901,-119.017 416.598,-101.929 451.556,-58 461.364,-45.6745 475.167,-34.9882 487.445,-26.9335"/>
<polygon fill="midnightblue" stroke="midnightblue" points="489.423,-29.8246 496.036,-21.5476 485.705,-23.8937 489.423,-29.8246"/>
</g>
<!-- Node19&#45;&gt;Node9 -->
<g id="edge66" class="edge"><title>Node19&#45;&gt;Node9</title>
<path fill="none" stroke="midnightblue" d="M405.618,-232.082C403.651,-217.463 402.401,-191.359 414.556,-174 448.531,-125.476 477.114,-130.469 534.556,-116 633.438,-91.0925 1340,-74.7181 1556.6,-70.2416"/>
<polygon fill="midnightblue" stroke="midnightblue" points="1556.91,-73.736 1566.84,-70.0313 1556.77,-66.7374 1556.91,-73.736"/>
</g>
<!-- Node20 -->
<g id="node49" class="node"><title>Node20</title>
<polygon fill="white" stroke="#bfbfbf" points="259.056,-116.5 259.056,-137.5 336.056,-137.5 336.056,-116.5 259.056,-116.5"/>
<text text-anchor="middle" x="297.556" y="-124.5" font-family="Helvetica,sans-Serif" font-size="10.00">QTextLayout</text>
</g>
<!-- Node19&#45;&gt;Node20 -->
<g id="edge58" class="edge"><title>Node19&#45;&gt;Node20</title>
<path fill="none" stroke="midnightblue" d="M380.497,-232.336C363.433,-224.459 341.975,-212.279 327.556,-196 315.29,-182.151 307.414,-162.508 302.825,-147.719"/>
<polygon fill="midnightblue" stroke="midnightblue" points="306.151,-146.622 300.048,-137.961 299.418,-148.538 306.151,-146.622"/>
</g>
<!-- Node19&#45;&gt;Node21 -->
<g id="edge60" class="edge"><title>Node19&#45;&gt;Node21</title>
<path fill="none" stroke="midnightblue" d="M422.779,-232.362C435.181,-223.696 452.902,-211.313 467.113,-201.382"/>
<polygon fill="midnightblue" stroke="midnightblue" points="469.237,-204.168 475.429,-195.571 465.227,-198.43 469.237,-204.168"/>
</g>
<!-- Node21&#45;&gt;Node2 -->
<g id="edge62" class="edge"><title>Node21&#45;&gt;Node2</title>
<path fill="none" stroke="midnightblue" d="M536.279,-181.123C561.194,-179.013 592.569,-176.359 620.556,-174 811.483,-157.91 1039.04,-138.847 1134.66,-130.841"/>
<polygon fill="midnightblue" stroke="midnightblue" points="1135.18,-134.31 1144.85,-129.988 1134.59,-127.335 1135.18,-134.31"/>
</g>
<!-- Node21&#45;&gt;Node7 -->
<g id="edge64" class="edge"><title>Node21&#45;&gt;Node7</title>
<path fill="none" stroke="midnightblue" d="M482.111,-174.148C475.609,-165.063 467.146,-151.457 463.556,-138 454.39,-103.646 449.125,-90.4953 463.556,-58 468.958,-45.8358 479.236,-35.4865 489.237,-27.6217"/>
<polygon fill="midnightblue" stroke="midnightblue" points="491.45,-30.3395 497.46,-21.6143 487.321,-24.6872 491.45,-30.3395"/>
</g>
<!-- Node22&#45;&gt;Node7 -->
<g id="edge74" class="edge"><title>Node22&#45;&gt;Node7</title>
<path fill="none" stroke="midnightblue" d="M256.362,-232.36C218.127,-210.828 141.799,-160.361 174.556,-116 208.259,-70.3571 368.341,-36.2704 456.673,-20.573"/>
<polygon fill="midnightblue" stroke="midnightblue" points="457.31,-24.0149 466.555,-18.8405 456.101,-17.1201 457.31,-24.0149"/>
</g>
<!-- Node22&#45;&gt;Node20 -->
<g id="edge76" class="edge"><title>Node22&#45;&gt;Node20</title>
<path fill="none" stroke="midnightblue" d="M278.494,-232.295C281.963,-213.131 289.291,-172.654 293.782,-147.843"/>
<polygon fill="midnightblue" stroke="midnightblue" points="297.285,-148.143 295.622,-137.679 290.397,-146.896 297.285,-148.143"/>
</g>
<!-- Node22&#45;&gt;Node21 -->
<g id="edge72" class="edge"><title>Node22&#45;&gt;Node21</title>
<path fill="none" stroke="midnightblue" d="M315.31,-232.497C350.801,-222.877 403.487,-208.598 441.819,-198.209"/>
<polygon fill="midnightblue" stroke="midnightblue" points="442.993,-201.517 451.729,-195.523 441.162,-194.761 442.993,-201.517"/>
</g>
<!-- Node23&#45;&gt;Node7 -->
<g id="edge84" class="edge"><title>Node23&#45;&gt;Node7</title>
<path fill="none" stroke="midnightblue" d="M137.43,-232.349C137.612,-209.485 140.513,-154.65 162.556,-116 181.737,-82.3675 192.611,-74.6719 227.556,-58 266.996,-39.183 384.068,-24.3832 456.231,-16.7316"/>
<polygon fill="midnightblue" stroke="midnightblue" points="456.955,-20.1751 466.537,-15.6549 456.228,-13.2129 456.955,-20.1751"/>
</g>
<!-- Node23&#45;&gt;Node21 -->
<g id="edge80" class="edge"><title>Node23&#45;&gt;Node21</title>
<path fill="none" stroke="midnightblue" d="M189.642,-234.442C255.313,-223.652 367.737,-205.18 435.005,-194.127"/>
<polygon fill="midnightblue" stroke="midnightblue" points="435.694,-197.561 444.995,-192.486 434.56,-190.654 435.694,-197.561"/>
</g>
<!-- Node24 -->
<g id="node65" class="node"><title>Node24</title>
<polygon fill="white" stroke="#bfbfbf" points="17.5558,-174.5 17.5558,-195.5 89.5558,-195.5 89.5558,-174.5 17.5558,-174.5"/>
<text text-anchor="middle" x="53.5558" y="-182.5" font-family="Helvetica,sans-Serif" font-size="10.00">cjson/json.h</text>
</g>
<!-- Node23&#45;&gt;Node24 -->
<g id="edge82" class="edge"><title>Node23&#45;&gt;Node24</title>
<path fill="none" stroke="midnightblue" d="M122.149,-232.362C109.598,-223.696 91.6636,-211.313 77.2812,-201.382"/>
<polygon fill="midnightblue" stroke="midnightblue" points="79.0827,-198.372 68.865,-195.571 75.1053,-204.133 79.0827,-198.372"/>
</g>
<!-- Node25&#45;&gt;Node2 -->
<g id="edge88" class="edge"><title>Node25&#45;&gt;Node2</title>
<path fill="none" stroke="midnightblue" d="M959.321,-232.464C959.586,-217.312 962.427,-189.494 978.556,-174 979.99,-172.622 1075.76,-150.737 1134.9,-137.322"/>
<polygon fill="midnightblue" stroke="midnightblue" points="1135.79,-140.709 1144.77,-135.085 1134.25,-133.882 1135.79,-140.709"/>
</g>
<!-- Node25&#45;&gt;Node7 -->
<g id="edge116" class="edge"><title>Node25&#45;&gt;Node7</title>
<path fill="none" stroke="midnightblue" d="M914.737,-239.95C829.346,-233.712 646.587,-218.187 587.556,-196 576.767,-191.945 506.967,-148.176 501.556,-138 483.352,-103.765 496.534,-57.0721 506.729,-30.8945"/>
<polygon fill="midnightblue" stroke="midnightblue" points="509.972,-32.2104 510.55,-21.6314 503.501,-29.5408 509.972,-32.2104"/>
</g>
<!-- Node25&#45;&gt;Node21 -->
<g id="edge90" class="edge"><title>Node25&#45;&gt;Node21</title>
<path fill="none" stroke="midnightblue" d="M914.828,-238.91C839.324,-231.774 681.869,-215.893 549.556,-196 548.474,-195.837 547.381,-195.67 546.281,-195.497"/>
<polygon fill="midnightblue" stroke="midnightblue" points="546.676,-192.015 536.24,-193.845 545.539,-198.922 546.676,-192.015"/>
</g>
<!-- Node26 -->
<g id="node72" class="node"><title>Node26</title>
<a xlink:href="StatusBarIcon_8h.htm" target="_top" xlink:title="StatusBarIcon.h">
<polygon fill="white" stroke="red" points="841.056,-174.5 841.056,-195.5 932.056,-195.5 932.056,-174.5 841.056,-174.5"/>
<text text-anchor="middle" x="886.556" y="-182.5" font-family="Helvetica,sans-Serif" font-size="10.00">StatusBarIcon.h</text>
</a>
</g>
<!-- Node25&#45;&gt;Node26 -->
<g id="edge92" class="edge"><title>Node25&#45;&gt;Node26</title>
<path fill="none" stroke="midnightblue" d="M946.166,-232.362C935.465,-223.859 920.26,-211.779 907.885,-201.947"/>
<polygon fill="midnightblue" stroke="midnightblue" points="909.867,-199.051 899.86,-195.571 905.513,-204.532 909.867,-199.051"/>
</g>
<!-- Node27 -->
<g id="node74" class="node"><title>Node27</title>
<polygon fill="white" stroke="#bfbfbf" points="1609.06,-116.5 1609.06,-137.5 1668.06,-137.5 1668.06,-116.5 1609.06,-116.5"/>
<text text-anchor="middle" x="1638.56" y="-124.5" font-family="Helvetica,sans-Serif" font-size="10.00">QPixmap</text>
</g>
<!-- Node25&#45;&gt;Node27 -->
<g id="edge118" class="edge"><title>Node25&#45;&gt;Node27</title>
<path fill="none" stroke="midnightblue" d="M1004.21,-239.012C1028.55,-236.869 1059.2,-234.219 1086.56,-232 1192.29,-223.423 1465.11,-237.926 1562.56,-196 1587.93,-185.084 1610.43,-162.095 1624.25,-145.653"/>
<polygon fill="midnightblue" stroke="midnightblue" points="1627.07,-147.724 1630.64,-137.75 1621.63,-143.319 1627.07,-147.724"/>
</g>
<!-- Node25&#45;&gt;Node29 -->
<g id="edge106" class="edge"><title>Node25&#45;&gt;Node29</title>
<path fill="none" stroke="midnightblue" d="M979.114,-232.497C995.754,-223.56 1019.88,-210.602 1038.74,-200.477"/>
<polygon fill="midnightblue" stroke="midnightblue" points="1040.62,-203.436 1047.78,-195.621 1037.31,-197.269 1040.62,-203.436"/>
</g>
<!-- Node26&#45;&gt;Node7 -->
<g id="edge100" class="edge"><title>Node26&#45;&gt;Node7</title>
<path fill="none" stroke="midnightblue" d="M924.909,-174.488C960.92,-162.744 1006.26,-141.931 984.556,-116 955.435,-81.1996 827.892,-89.6638 783.556,-80 705.718,-63.0342 616.279,-39.0988 562.923,-24.34"/>
<polygon fill="midnightblue" stroke="midnightblue" points="563.641,-20.907 553.069,-21.6051 561.769,-27.6521 563.641,-20.907"/>
</g>
<!-- Node26&#45;&gt;Node8 -->
<g id="edge102" class="edge"><title>Node26&#45;&gt;Node8</title>
<path fill="none" stroke="midnightblue" d="M932.308,-177.994C974.886,-170.688 1039.69,-157.547 1093.56,-138 1113.74,-130.678 1115.86,-121.715 1136.56,-116 1370.12,-51.4875 1439.58,-105.374 1680.56,-80 1692.45,-78.7475 1705.34,-77.0218 1717.07,-75.3084"/>
<polygon fill="midnightblue" stroke="midnightblue" points="1717.66,-78.7603 1727.03,-73.8182 1716.62,-71.8375 1717.66,-78.7603"/>
</g>
<!-- Node26&#45;&gt;Node9 -->
<g id="edge104" class="edge"><title>Node26&#45;&gt;Node9</title>
<path fill="none" stroke="midnightblue" d="M932.003,-174.441C966.38,-165.957 1014.51,-153.006 1055.56,-138 1077.6,-129.942 1080.88,-122.04 1103.56,-116 1187.49,-93.6448 1438.44,-78.2711 1556.65,-72.0675"/>
<polygon fill="midnightblue" stroke="midnightblue" points="1556.84,-75.5627 1566.64,-71.5485 1556.47,-68.5721 1556.84,-75.5627"/>
</g>
<!-- Node26&#45;&gt;Node16 -->
<g id="edge96" class="edge"><title>Node26&#45;&gt;Node16</title>
<path fill="none" stroke="midnightblue" d="M932.346,-179.546C1007.44,-170.457 1154.52,-152.008 1222.88,-138.076"/>
<polygon fill="midnightblue" stroke="midnightblue" points="1223.71,-141.477 1232.76,-135.968 1222.25,-134.631 1223.71,-141.477"/>
</g>
<!-- Node26&#45;&gt;Node27 -->
<g id="edge94" class="edge"><title>Node26&#45;&gt;Node27</title>
<path fill="none" stroke="midnightblue" d="M932.369,-179.084C947.101,-177.299 963.503,-175.435 978.556,-174 1213.25,-151.625 1495.84,-134.918 1598.68,-129.172"/>
<polygon fill="midnightblue" stroke="midnightblue" points="1599.12,-132.653 1608.91,-128.603 1598.73,-125.664 1599.12,-132.653"/>
</g>
<!-- Node26&#45;&gt;Node28 -->
<g id="edge98" class="edge"><title>Node26&#45;&gt;Node28</title>
<path fill="none" stroke="midnightblue" d="M840.966,-175.249C838.127,-174.786 835.306,-174.363 832.556,-174 578.889,-140.484 507.703,-181.238 252.229,-137.986"/>
<polygon fill="midnightblue" stroke="midnightblue" points="252.73,-134.521 242.281,-136.275 251.544,-141.419 252.73,-134.521"/>
</g>
<!-- Node29&#45;&gt;Node2 -->
<g id="edge114" class="edge"><title>Node29&#45;&gt;Node2</title>
<path fill="none" stroke="midnightblue" d="M1088.02,-174.497C1105.59,-165.479 1131.14,-152.365 1150.94,-142.201"/>
<polygon fill="midnightblue" stroke="midnightblue" points="1152.56,-145.301 1159.86,-137.621 1149.37,-139.074 1152.56,-145.301"/>
</g>
<!-- Node29&#45;&gt;Node14 -->
<g id="edge110" class="edge"><title>Node29&#45;&gt;Node14</title>
<path fill="none" stroke="midnightblue" d="M1043.83,-174.497C1023.19,-165.356 993.04,-152.008 969.957,-141.788"/>
<polygon fill="midnightblue" stroke="midnightblue" points="971.106,-138.469 960.545,-137.621 968.272,-144.87 971.106,-138.469"/>
</g>
<!-- Node29&#45;&gt;Node16 -->
<g id="edge108" class="edge"><title>Node29&#45;&gt;Node16</title>
<path fill="none" stroke="midnightblue" d="M1103.11,-174.418C1132.9,-165.541 1176.78,-152.429 1223.38,-138.347"/>
<polygon fill="midnightblue" stroke="midnightblue" points="1224.48,-141.669 1233.04,-135.424 1222.46,-134.969 1224.48,-141.669"/>
</g>
<!-- Node30 -->
<g id="node86" class="node"><title>Node30</title>
<polygon fill="white" stroke="#bfbfbf" points="2135.06,-116.5 2135.06,-137.5 2166.06,-137.5 2166.06,-116.5 2135.06,-116.5"/>
<text text-anchor="middle" x="2150.56" y="-124.5" font-family="Helvetica,sans-Serif" font-size="10.00">set</text>
</g>
<!-- Node29&#45;&gt;Node30 -->
<g id="edge112" class="edge"><title>Node29&#45;&gt;Node30</title>
<path fill="none" stroke="midnightblue" d="M1148.06,-180.489C1185.33,-178.439 1230.19,-176.025 1270.56,-174 1617.16,-156.611 1704.57,-164.986 2050.56,-138 2075.94,-136.02 2104.85,-132.727 2125.03,-130.259"/>
<polygon fill="midnightblue" stroke="midnightblue" points="2125.5,-133.728 2135,-129.021 2124.64,-126.781 2125.5,-133.728"/>
</g>
<!-- Node31&#45;&gt;Node2 -->
<g id="edge124" class="edge"><title>Node31&#45;&gt;Node2</title>
<path fill="none" stroke="midnightblue" d="M1169.66,-232.295C1171.65,-213.131 1175.83,-172.654 1178.4,-147.843"/>
<polygon fill="midnightblue" stroke="midnightblue" points="1181.9,-147.986 1179.45,-137.679 1174.94,-147.266 1181.9,-147.986"/>
</g>
<!-- Node31&#45;&gt;Node7 -->
<g id="edge140" class="edge"><title>Node31&#45;&gt;Node7</title>
<path fill="none" stroke="midnightblue" d="M1095.44,-237.708C951.335,-227.142 642.587,-203.78 620.556,-196 609.688,-192.162 540.707,-147.747 534.556,-138 513.838,-105.172 512.513,-58.2462 513.785,-31.5884"/>
<polygon fill="midnightblue" stroke="midnightblue" points="517.285,-31.7106 514.441,-21.5046 510.299,-31.2566 517.285,-31.7106"/>
</g>
<!-- Node31&#45;&gt;Node9 -->
<g id="edge138" class="edge"><title>Node31&#45;&gt;Node9</title>
<path fill="none" stroke="midnightblue" d="M1241.96,-238.142C1348.81,-230.487 1537.3,-214.563 1562.56,-196 1567.19,-192.597 1596.41,-124.13 1611.12,-89.1707"/>
<polygon fill="midnightblue" stroke="midnightblue" points="1614.37,-90.4676 1615.01,-79.8923 1607.91,-87.7584 1614.37,-90.4676"/>
</g>
<!-- Node31&#45;&gt;Node21 -->
<g id="edge126" class="edge"><title>Node31&#45;&gt;Node21</title>
<path fill="none" stroke="midnightblue" d="M1095.12,-237.821C984.816,-229.87 769.866,-213.706 587.556,-196 574.248,-194.707 559.93,-193.167 546.489,-191.654"/>
<polygon fill="midnightblue" stroke="midnightblue" points="546.744,-188.161 536.413,-190.507 545.953,-195.116 546.744,-188.161"/>
</g>
<!-- Node31&#45;&gt;Node26 -->
<g id="edge128" class="edge"><title>Node31&#45;&gt;Node26</title>
<path fill="none" stroke="midnightblue" d="M1117.49,-232.497C1067.94,-222.305 992.956,-206.884 941.978,-196.399"/>
<polygon fill="midnightblue" stroke="midnightblue" points="942.617,-192.957 932.117,-194.371 941.207,-199.814 942.617,-192.957"/>
</g>
<!-- Node31&#45;&gt;Node27 -->
<g id="edge142" class="edge"><title>Node31&#45;&gt;Node27</title>
<path fill="none" stroke="midnightblue" d="M1241.95,-240.676C1366.12,-236.008 1606.83,-223.492 1633.56,-196 1645.68,-183.525 1645.69,-163.078 1643.4,-147.674"/>
<polygon fill="midnightblue" stroke="midnightblue" points="1646.78,-146.706 1641.48,-137.534 1639.91,-148.012 1646.78,-146.706"/>
</g>
<!-- Node32 -->
<g id="node97" class="node"><title>Node32</title>
<a xlink:href="BannerMessageHandler_8h.htm" target="_top" xlink:title="BannerMessageHandler.h">
<polygon fill="white" stroke="red" points="1279.56,-174.5 1279.56,-195.5 1419.56,-195.5 1419.56,-174.5 1279.56,-174.5"/>
<text text-anchor="middle" x="1349.56" y="-182.5" font-family="Helvetica,sans-Serif" font-size="10.00">BannerMessageHandler.h</text>
</a>
</g>
<!-- Node31&#45;&gt;Node32 -->
<g id="edge130" class="edge"><title>Node31&#45;&gt;Node32</title>
<path fill="none" stroke="midnightblue" d="M1201.33,-232.497C1230.97,-223 1274.78,-208.962 1307.09,-198.609"/>
<polygon fill="midnightblue" stroke="midnightblue" points="1308.26,-201.908 1316.72,-195.523 1306.13,-195.242 1308.26,-201.908"/>
</g>
<!-- Node32&#45;&gt;Node4 -->
<g id="edge132" class="edge"><title>Node32&#45;&gt;Node4</title>
<path fill="none" stroke="midnightblue" d="M1358.36,-174.24C1380.12,-148.537 1439.52,-83.7926 1505.56,-58 1572.57,-31.8256 2072.9,-16.3021 2225.5,-12.1395"/>
<polygon fill="midnightblue" stroke="midnightblue" points="2225.97,-15.6281 2235.87,-11.8595 2225.78,-8.63066 2225.97,-15.6281"/>
</g>
<!-- Node32&#45;&gt;Node5 -->
<g id="edge134" class="edge"><title>Node32&#45;&gt;Node5</title>
<path fill="none" stroke="midnightblue" d="M1344.32,-174.237C1334.35,-152.485 1314.19,-101.64 1320.56,-58 1321.87,-48.9958 1324.53,-39.3181 1327.17,-31.0986"/>
<polygon fill="midnightblue" stroke="midnightblue" points="1330.49,-32.2223 1330.43,-21.6276 1323.87,-29.9496 1330.49,-32.2223"/>
</g>
<!-- Node32&#45;&gt;Node16 -->
<g id="edge136" class="edge"><title>Node32&#45;&gt;Node16</title>
<path fill="none" stroke="midnightblue" d="M1333.23,-174.362C1319.81,-165.614 1300.57,-153.079 1285.26,-143.101"/>
<polygon fill="midnightblue" stroke="midnightblue" points="1287.07,-140.098 1276.78,-137.571 1283.24,-145.963 1287.07,-140.098"/>
</g>
<!-- Node33&#45;&gt;Node2 -->
<g id="edge146" class="edge"><title>Node33&#45;&gt;Node2</title>
<path fill="none" stroke="midnightblue" d="M1635.23,-240.321C1534.16,-235.17 1335.3,-222.02 1270.56,-196 1241.98,-184.517 1214.73,-161.31 1197.85,-144.99"/>
<polygon fill="midnightblue" stroke="midnightblue" points="1199.99,-142.186 1190.43,-137.614 1195.05,-147.148 1199.99,-142.186"/>
</g>
<!-- Node33&#45;&gt;Node8 -->
<g id="edge152" class="edge"><title>Node33&#45;&gt;Node8</title>
<path fill="none" stroke="midnightblue" d="M1699.28,-232.377C1709.17,-204.172 1736.22,-127.012 1749.29,-89.7203"/>
<polygon fill="midnightblue" stroke="midnightblue" points="1752.72,-90.5226 1752.72,-79.9277 1746.11,-88.2067 1752.72,-90.5226"/>
</g>
<!-- Node33&#45;&gt;Node21 -->
<g id="edge148" class="edge"><title>Node33&#45;&gt;Node21</title>
<path fill="none" stroke="midnightblue" d="M1635.49,-241.232C1472.27,-236.243 1006.93,-220.782 620.556,-196 596.25,-194.441 569.426,-192.251 546.488,-190.235"/>
<polygon fill="midnightblue" stroke="midnightblue" points="546.517,-186.724 536.246,-189.324 545.896,-193.696 546.517,-186.724"/>
</g>
<!-- Node33&#45;&gt;Node27 -->
<g id="edge150" class="edge"><title>Node33&#45;&gt;Node27</title>
<path fill="none" stroke="midnightblue" d="M1692.84,-232.343C1689.09,-218.459 1681.62,-193.641 1671.56,-174 1666.49,-164.121 1659.59,-153.946 1653.41,-145.601"/>
<polygon fill="midnightblue" stroke="midnightblue" points="1656.19,-143.473 1647.34,-137.655 1650.63,-147.725 1656.19,-143.473"/>
</g>
<!-- Node34 -->
<g id="node111" class="node"><title>Node34</title>
<polygon fill="white" stroke="#bfbfbf" points="2901.56,-116.5 2901.56,-137.5 3013.56,-137.5 3013.56,-116.5 2901.56,-116.5"/>
<text text-anchor="middle" x="2957.56" y="-124.5" font-family="Helvetica,sans-Serif" font-size="10.00">QPropertyAnimation</text>
</g>
<!-- Node33&#45;&gt;Node34 -->
<g id="edge154" class="edge"><title>Node33&#45;&gt;Node34</title>
<path fill="none" stroke="midnightblue" d="M1755.77,-238.435C1843.52,-231.418 2011.57,-216.598 2153.56,-196 2205.92,-188.404 2218.04,-180.431 2270.56,-174 2542.05,-140.756 2615.62,-168.455 2890.94,-138.073"/>
<polygon fill="midnightblue" stroke="midnightblue" points="2891.69,-141.511 2901.24,-136.92 2890.91,-134.554 2891.69,-141.511"/>
</g>
<!-- Node35 -->
<g id="node113" class="node"><title>Node35</title>
<polygon fill="white" stroke="#bfbfbf" points="2573.56,-116.5 2573.56,-137.5 2729.56,-137.5 2729.56,-116.5 2573.56,-116.5"/>
<text text-anchor="middle" x="2651.56" y="-124.5" font-family="Helvetica,sans-Serif" font-size="10.00">QGraphicsSceneMouseEvent</text>
</g>
<!-- Node33&#45;&gt;Node35 -->
<g id="edge156" class="edge"><title>Node33&#45;&gt;Node35</title>
<path fill="none" stroke="midnightblue" d="M1755.96,-238.986C1856.14,-231.877 2052.21,-215.927 2118.56,-196 2139.12,-189.825 2140.95,-180.021 2161.56,-174 2171.08,-171.218 2424.69,-147.734 2563.21,-135.051"/>
<polygon fill="midnightblue" stroke="midnightblue" points="2563.75,-138.517 2573.39,-134.12 2563.11,-131.546 2563.75,-138.517"/>
</g>
<!-- Node36&#45;&gt;Node4 -->
<g id="edge162" class="edge"><title>Node36&#45;&gt;Node4</title>
<path fill="none" stroke="midnightblue" d="M3534.14,-116.442C3502.36,-108.002 3458.08,-95.1072 3420.56,-80 3400.64,-71.9822 3398.31,-63.47 3377.56,-58 3273.47,-30.5715 2505.68,-15.1974 2313.21,-11.7485"/>
<polygon fill="midnightblue" stroke="midnightblue" points="2313.24,-8.24856 2303.18,-11.5702 2313.12,-15.2475 2313.24,-8.24856"/>
</g>
<!-- Node36&#45;&gt;Node5 -->
<g id="edge168" class="edge"><title>Node36&#45;&gt;Node5</title>
<path fill="none" stroke="midnightblue" d="M3522.74,-116.447C3473.11,-106.326 3403.35,-91.0014 3377.56,-80 3361,-72.9394 3360.76,-63.2991 3343.56,-58 3294.25,-42.8102 1619.93,-15.5497 1366.55,-11.5068"/>
<polygon fill="midnightblue" stroke="midnightblue" points="1366.25,-8.00172 1356.2,-11.342 1366.14,-15.0008 1366.25,-8.00172"/>
</g>
<!-- Node36&#45;&gt;Node6 -->
<g id="edge164" class="edge"><title>Node36&#45;&gt;Node6</title>
<path fill="none" stroke="midnightblue" d="M3576.92,-116.374C3576.81,-100.846 3574.06,-72.256 3556.56,-58 3512.24,-21.9046 3104.72,-13.1645 2988.42,-11.3971"/>
<polygon fill="midnightblue" stroke="midnightblue" points="2988.14,-7.8928 2978.09,-11.2471 2988.04,-14.8921 2988.14,-7.8928"/>
</g>
<!-- Node37 -->
<g id="node120" class="node"><title>Node37</title>
<polygon fill="white" stroke="#bfbfbf" points="3298.06,-58.5 3298.06,-79.5 3335.06,-79.5 3335.06,-58.5 3298.06,-58.5"/>
<text text-anchor="middle" x="3316.56" y="-66.5" font-family="Helvetica,sans-Serif" font-size="10.00">map</text>
</g>
<!-- Node36&#45;&gt;Node37 -->
<g id="edge166" class="edge"><title>Node36&#45;&gt;Node37</title>
<path fill="none" stroke="midnightblue" d="M3521.55,-117.485C3475.31,-109.041 3407.65,-95.6397 3349.56,-80 3348.1,-79.6076 3346.61,-79.1869 3345.11,-78.7472"/>
<polygon fill="midnightblue" stroke="midnightblue" points="3345.88,-75.3188 3335.29,-75.668 3343.78,-81.9984 3345.88,-75.3188"/>
</g>
<!-- Node38 -->
<g id="node123" class="node"><title>Node38</title>
<a xlink:href="AnimationEquations_8h.htm" target="_top" xlink:title="AnimationEquations.h">
<polygon fill="white" stroke="black" points="3429.56,-58.5 3429.56,-79.5 3547.56,-79.5 3547.56,-58.5 3429.56,-58.5"/>
<text text-anchor="middle" x="3488.56" y="-66.5" font-family="Helvetica,sans-Serif" font-size="10.00">AnimationEquations.h</text>
</a>
</g>
<!-- Node36&#45;&gt;Node38 -->
<g id="edge170" class="edge"><title>Node36&#45;&gt;Node38</title>
<path fill="none" stroke="midnightblue" d="M3560.42,-116.362C3547.14,-107.614 3528.12,-95.0786 3512.99,-85.1015"/>
<polygon fill="midnightblue" stroke="midnightblue" points="3514.87,-82.1515 3504.59,-79.5707 3511.02,-87.9962 3514.87,-82.1515"/>
</g>
<!-- Node38&#45;&gt;Node4 -->
<g id="edge172" class="edge"><title>Node38&#45;&gt;Node4</title>
<path fill="none" stroke="midnightblue" d="M3429.26,-59.5147C3424.63,-58.9424 3420.02,-58.4267 3415.56,-58 3195.59,-36.9789 2495.67,-17.0806 2313.33,-12.1581"/>
<polygon fill="midnightblue" stroke="midnightblue" points="2313.39,-8.65867 2303.3,-11.8885 2313.21,-15.6561 2313.39,-8.65867"/>
</g>
<!-- Node39&#45;&gt;Node4 -->
<g id="edge176" class="edge"><title>Node39&#45;&gt;Node4</title>
<path fill="none" stroke="midnightblue" d="M2251.38,-232.267C2251.74,-217.131 2254.72,-189.62 2270.56,-174 2315.68,-129.483 2369.8,-188.16 2408.56,-138 2444.68,-91.2454 2360.5,-47.2022 2307.89,-25.3494"/>
<polygon fill="midnightblue" stroke="midnightblue" points="2309.05,-22.0441 2298.47,-21.5316 2306.42,-28.5316 2309.05,-22.0441"/>
</g>
<!-- Node39&#45;&gt;Node7 -->
<g id="edge216" class="edge"><title>Node39&#45;&gt;Node7</title>
<path fill="none" stroke="midnightblue" d="M2193,-236.725C2130.68,-229.187 2036.93,-215.124 2006.56,-196 1942.01,-155.364 1972.06,-93.4933 1904.56,-58 1844.95,-26.6607 832.691,-14.2355 574.906,-11.5712"/>
<polygon fill="midnightblue" stroke="midnightblue" points="574.661,-8.06864 564.626,-11.466 574.59,-15.0683 574.661,-8.06864"/>
</g>
<!-- Node39&#45;&gt;Node8 -->
<g id="edge220" class="edge"><title>Node39&#45;&gt;Node8</title>
<path fill="none" stroke="midnightblue" d="M2193.03,-239.269C2135.67,-234.197 2046.48,-222.493 1973.56,-196 1953.34,-188.655 1835.62,-117.339 1782.52,-84.9097"/>
<polygon fill="midnightblue" stroke="midnightblue" points="1784.34,-81.9214 1773.99,-79.6919 1780.69,-87.8939 1784.34,-81.9214"/>
</g>
<!-- Node39&#45;&gt;Node9 -->
<g id="edge222" class="edge"><title>Node39&#45;&gt;Node9</title>
<path fill="none" stroke="midnightblue" d="M2310.27,-237.589C2364.24,-231.257 2438.52,-218.633 2456.56,-196 2462.65,-188.352 2463.08,-181.279 2456.56,-174 2407.3,-119.082 2198.92,-152.31 2126.56,-138 2092.06,-131.179 2085.05,-122.81 2050.56,-116 1904.95,-87.2568 1866.09,-96.1952 1718.56,-80 1706.8,-78.7101 1694.27,-77.3247 1682.21,-75.9868"/>
<polygon fill="midnightblue" stroke="midnightblue" points="1682.54,-72.5023 1672.22,-74.8773 1681.77,-79.4595 1682.54,-72.5023"/>
</g>
<!-- Node39&#45;&gt;Node18 -->
<g id="edge218" class="edge"><title>Node39&#45;&gt;Node18</title>
<path fill="none" stroke="midnightblue" d="M2310.19,-239.929C2379,-234.262 2478.92,-218.332 2438.56,-174 2409.78,-142.393 2097.6,-145.696 2055.56,-138 2054.28,-137.767 2052.99,-137.512 2051.68,-137.239"/>
<polygon fill="midnightblue" stroke="midnightblue" points="2052.19,-133.763 2041.65,-134.881 2050.59,-140.577 2052.19,-133.763"/>
</g>
<!-- Node39&#45;&gt;Node34 -->
<g id="edge210" class="edge"><title>Node39&#45;&gt;Node34</title>
<path fill="none" stroke="midnightblue" d="M2310.34,-241.7C2404.01,-238.68 2592.47,-228.71 2748.56,-196 2811.26,-182.858 2881.49,-157.331 2922.48,-141.28"/>
<polygon fill="midnightblue" stroke="midnightblue" points="2923.99,-144.447 2932,-137.515 2921.42,-137.937 2923.99,-144.447"/>
</g>
<!-- Node40 -->
<g id="node129" class="node"><title>Node40</title>
<a xlink:href="WindowServer_8h.htm" target="_top" xlink:title="WindowServer.h">
<polygon fill="white" stroke="red" points="2015.56,-174.5 2015.56,-195.5 2109.56,-195.5 2109.56,-174.5 2015.56,-174.5"/>
<text text-anchor="middle" x="2062.56" y="-182.5" font-family="Helvetica,sans-Serif" font-size="10.00">WindowServer.h</text>
</a>
</g>
<!-- Node39&#45;&gt;Node40 -->
<g id="edge178" class="edge"><title>Node39&#45;&gt;Node40</title>
<path fill="none" stroke="midnightblue" d="M2217.33,-232.497C2186.25,-222.959 2140.24,-208.841 2106.47,-198.475"/>
<polygon fill="midnightblue" stroke="midnightblue" points="2107.43,-195.111 2096.85,-195.523 2105.38,-201.803 2107.43,-195.111"/>
</g>
<!-- Node41 -->
<g id="node135" class="node"><title>Node41</title>
<a xlink:href="HostWindow_8h.htm" target="_top" xlink:title="HostWindow.h">
<polygon fill="white" stroke="red" points="2297.56,-116.5 2297.56,-137.5 2381.56,-137.5 2381.56,-116.5 2297.56,-116.5"/>
<text text-anchor="middle" x="2339.56" y="-124.5" font-family="Helvetica,sans-Serif" font-size="10.00">HostWindow.h</text>
</a>
</g>
<!-- Node39&#45;&gt;Node41 -->
<g id="edge208" class="edge"><title>Node39&#45;&gt;Node41</title>
<path fill="none" stroke="midnightblue" d="M2244.91,-232.304C2236.92,-217.937 2225.96,-192.118 2237.56,-174 2248.84,-156.371 2268.6,-145.262 2287.74,-138.305"/>
<polygon fill="midnightblue" stroke="midnightblue" points="2288.96,-141.59 2297.35,-135.123 2286.75,-134.946 2288.96,-141.59"/>
</g>
<!-- Node43 -->
<g id="node149" class="node"><title>Node43</title>
<polygon fill="white" stroke="#bfbfbf" points="2747.56,-116.5 2747.56,-137.5 2883.56,-137.5 2883.56,-116.5 2747.56,-116.5"/>
<text text-anchor="middle" x="2815.56" y="-124.5" font-family="Helvetica,sans-Serif" font-size="10.00">QParallelAnimationGroup</text>
</g>
<!-- Node39&#45;&gt;Node43 -->
<g id="edge212" class="edge"><title>Node39&#45;&gt;Node43</title>
<path fill="none" stroke="midnightblue" d="M2310.24,-240.647C2417.69,-235.745 2641.7,-222.615 2714.56,-196 2746.18,-184.448 2777.37,-160.741 2796.54,-144.364"/>
<polygon fill="midnightblue" stroke="midnightblue" points="2799,-146.86 2804.22,-137.639 2794.39,-141.593 2799,-146.86"/>
</g>
<!-- Node44 -->
<g id="node151" class="node"><title>Node44</title>
<polygon fill="white" stroke="#bfbfbf" points="2279.56,-174.5 2279.56,-195.5 2429.56,-195.5 2429.56,-174.5 2279.56,-174.5"/>
<text text-anchor="middle" x="2354.56" y="-182.5" font-family="Helvetica,sans-Serif" font-size="10.00">QSequentialAnimationGroup</text>
</g>
<!-- Node39&#45;&gt;Node44 -->
<g id="edge214" class="edge"><title>Node39&#45;&gt;Node44</title>
<path fill="none" stroke="midnightblue" d="M2270.45,-232.362C2286.27,-223.45 2309.08,-210.609 2326.95,-200.545"/>
<polygon fill="midnightblue" stroke="midnightblue" points="2328.79,-203.527 2335.78,-195.571 2325.35,-197.428 2328.79,-203.527"/>
</g>
<!-- Node40&#45;&gt;Node4 -->
<g id="edge180" class="edge"><title>Node40&#45;&gt;Node4</title>
<path fill="none" stroke="midnightblue" d="M2108.56,-174.481C2161.19,-162.255 2240.77,-143.1 2245.56,-138 2272.67,-109.079 2273.79,-59.595 2271.88,-31.7007"/>
<polygon fill="midnightblue" stroke="midnightblue" points="2275.35,-31.1635 2270.98,-21.5107 2268.37,-31.7802 2275.35,-31.1635"/>
</g>
<!-- Node40&#45;&gt;Node5 -->
<g id="edge182" class="edge"><title>Node40&#45;&gt;Node5</title>
<path fill="none" stroke="midnightblue" d="M2103.18,-174.452C2143.81,-163.494 2201.19,-146.749 2207.56,-138 2213.31,-130.092 2212.76,-124.276 2207.56,-116 2187.86,-84.7054 2165.68,-96.4218 2132.56,-80 2113.32,-70.4656 2110.26,-63.675 2089.56,-58 1950.02,-19.7529 1491.42,-12.5267 1366.32,-11.2555"/>
<polygon fill="midnightblue" stroke="midnightblue" points="1366.28,-7.75509 1356.25,-11.1589 1366.21,-14.7548 1366.28,-7.75509"/>
</g>
<!-- Node40&#45;&gt;Node7 -->
<g id="edge196" class="edge"><title>Node40&#45;&gt;Node7</title>
<path fill="none" stroke="midnightblue" d="M2109.78,-174.679C2149.55,-163.768 2196.69,-144.207 2174.56,-116 2157.82,-94.6729 1964.41,-61.6897 1937.56,-58 1667.95,-20.9613 808.944,-12.8629 574.922,-11.3257"/>
<polygon fill="midnightblue" stroke="midnightblue" points="574.925,-7.82573 564.903,-11.2614 574.88,-14.8256 574.925,-7.82573"/>
</g>
<!-- Node40&#45;&gt;Node8 -->
<g id="edge204" class="edge"><title>Node40&#45;&gt;Node8</title>
<path fill="none" stroke="midnightblue" d="M2034.59,-174.398C1979.27,-153.428 1855.87,-106.649 1793.77,-83.1065"/>
<polygon fill="midnightblue" stroke="midnightblue" points="1794.94,-79.8072 1784.35,-79.5352 1792.46,-86.3527 1794.94,-79.8072"/>
</g>
<!-- Node40&#45;&gt;Node9 -->
<g id="edge186" class="edge"><title>Node40&#45;&gt;Node9</title>
<path fill="none" stroke="midnightblue" d="M2020.27,-174.417C1982.75,-164.988 1926.46,-150.75 1877.56,-138 1804.58,-118.972 1720.18,-96.2685 1668.34,-82.2417"/>
<polygon fill="midnightblue" stroke="midnightblue" points="1668.98,-78.7905 1658.42,-79.5557 1667.15,-85.5473 1668.98,-78.7905"/>
</g>
<!-- Node40&#45;&gt;Node10 -->
<g id="edge184" class="edge"><title>Node40&#45;&gt;Node10</title>
<path fill="none" stroke="midnightblue" d="M2064.01,-174.323C2065.41,-159.255 2065.5,-131.826 2050.56,-116 2031.01,-95.2955 1958.28,-82.1855 1905.93,-75.2192"/>
<polygon fill="midnightblue" stroke="midnightblue" points="1906.12,-71.7146 1895.75,-73.9075 1905.22,-78.6571 1906.12,-71.7146"/>
</g>
<!-- Node40&#45;&gt;Node16 -->
<g id="edge198" class="edge"><title>Node40&#45;&gt;Node16</title>
<path fill="none" stroke="midnightblue" d="M2015.53,-180.93C1990.33,-178.788 1958.76,-176.164 1930.56,-174 1689.98,-155.538 1400.57,-136.214 1298.45,-129.484"/>
<polygon fill="midnightblue" stroke="midnightblue" points="1298.54,-125.982 1288.33,-128.817 1298.08,-132.967 1298.54,-125.982"/>
</g>
<!-- Node40&#45;&gt;Node18 -->
<g id="edge200" class="edge"><title>Node40&#45;&gt;Node18</title>
<path fill="none" stroke="midnightblue" d="M2053.94,-174.362C2047.38,-166.268 2038.19,-154.932 2030.45,-145.38"/>
<polygon fill="midnightblue" stroke="midnightblue" points="2033.14,-143.136 2024.12,-137.571 2027.7,-147.544 2033.14,-143.136"/>
</g>
<!-- Node40&#45;&gt;Node27 -->
<g id="edge202" class="edge"><title>Node40&#45;&gt;Node27</title>
<path fill="none" stroke="midnightblue" d="M2015.15,-178.515C1930.88,-166.987 1756.49,-143.133 1678.16,-132.418"/>
<polygon fill="midnightblue" stroke="midnightblue" points="1678.59,-128.944 1668.21,-131.057 1677.64,-135.88 1678.59,-128.944"/>
</g>
<!-- Node40&#45;&gt;Node41 -->
<g id="edge188" class="edge"><title>Node40&#45;&gt;Node41</title>
<path fill="none" stroke="midnightblue" d="M2109.86,-175.095C2159.26,-164.752 2236.52,-148.575 2287.59,-137.881"/>
<polygon fill="midnightblue" stroke="midnightblue" points="2288.37,-141.294 2297.44,-135.819 2286.93,-134.443 2288.37,-141.294"/>
</g>
<!-- Node40&#45;&gt;Node42 -->
<g id="edge206" class="edge"><title>Node40&#45;&gt;Node42</title>
<path fill="none" stroke="midnightblue" d="M2109.8,-176.226C2114.44,-175.44 2119.09,-174.684 2123.56,-174 2249.76,-154.664 2282.01,-154.915 2408.56,-138 2420.51,-136.402 2433.48,-134.601 2445.35,-132.924"/>
<polygon fill="midnightblue" stroke="midnightblue" points="2446.04,-136.362 2455.45,-131.492 2445.05,-129.432 2446.04,-136.362"/>
</g>
<!-- Node41&#45;&gt;Node3 -->
<g id="edge192" class="edge"><title>Node41&#45;&gt;Node3</title>
<path fill="none" stroke="midnightblue" d="M2309.31,-116.497C2282.21,-107.082 2242.25,-93.2036 2212.51,-82.8773"/>
<polygon fill="midnightblue" stroke="midnightblue" points="2213.45,-79.4977 2202.85,-79.5231 2211.15,-86.1102 2213.45,-79.4977"/>
</g>
<!-- Node41&#45;&gt;Node4 -->
<g id="edge190" class="edge"><title>Node41&#45;&gt;Node4</title>
<path fill="none" stroke="midnightblue" d="M2333.1,-116.295C2321.32,-96.7861 2296.22,-55.1884 2281.33,-30.5177"/>
<polygon fill="midnightblue" stroke="midnightblue" points="2284.16,-28.4328 2276,-21.6792 2278.17,-32.0494 2284.16,-28.4328"/>
</g>
<!-- Node41&#45;&gt;Node41 -->
<g id="edge194" class="edge"><title>Node41&#45;&gt;Node41</title>
<path fill="none" stroke="midnightblue" d="M2370.12,-137.524C2385.64,-139.061 2399.56,-135.553 2399.56,-127 2399.56,-120.385 2391.23,-116.788 2380.28,-116.208"/>
<polygon fill="midnightblue" stroke="midnightblue" points="2380.02,-112.714 2370.12,-116.476 2380.21,-119.711 2380.02,-112.714"/>
</g>
<!-- Node45&#45;&gt;Node3 -->
<g id="edge228" class="edge"><title>Node45&#45;&gt;Node3</title>
<path fill="none" stroke="midnightblue" d="M3177.59,-174.358C3181.22,-159.074 3185.03,-131.093 3169.56,-116 3134.81,-82.1234 2397.37,-71.545 2213.7,-69.431"/>
<polygon fill="midnightblue" stroke="midnightblue" points="2213.68,-65.9306 2203.64,-69.3174 2213.6,-72.9302 2213.68,-65.9306"/>
</g>
<!-- Node45&#45;&gt;Node4 -->
<g id="edge226" class="edge"><title>Node45&#45;&gt;Node4</title>
<path fill="none" stroke="midnightblue" d="M3169.99,-174.251C3163.02,-159.094 3148.32,-131.558 3127.56,-116 3060.63,-65.8511 3030.66,-73.8947 2948.56,-58 2826,-34.2747 2443.25,-17.6975 2313.26,-12.6297"/>
<polygon fill="midnightblue" stroke="midnightblue" points="2313.39,-9.13238 2303.27,-12.2434 2313.12,-16.1272 2313.39,-9.13238"/>
</g>
<!-- Node45&#45;&gt;Node10 -->
<g id="edge230" class="edge"><title>Node45&#45;&gt;Node10</title>
<path fill="none" stroke="midnightblue" d="M3168.54,-174.408C3158.76,-158.366 3137.74,-128.461 3110.56,-116 3011.71,-70.6808 2241.22,-84.1117 2132.56,-80 2053.92,-77.0246 1963,-73.4703 1905.89,-71.2239"/>
<polygon fill="midnightblue" stroke="midnightblue" points="1905.76,-67.7161 1895.63,-70.82 1905.49,-74.7107 1905.76,-67.7161"/>
</g>
<!-- Node45&#45;&gt;Node11 -->
<g id="edge232" class="edge"><title>Node45&#45;&gt;Node11</title>
<path fill="none" stroke="midnightblue" d="M3241.44,-174.48C3291.37,-166.243 3361.44,-153.88 3430.94,-138.248"/>
<polygon fill="midnightblue" stroke="midnightblue" points="3431.77,-141.65 3440.74,-136.021 3430.22,-134.824 3431.77,-141.65"/>
</g>
<!-- Node45&#45;&gt;Node34 -->
<g id="edge238" class="edge"><title>Node45&#45;&gt;Node34</title>
<path fill="none" stroke="midnightblue" d="M3135.26,-174.497C3099.27,-164.877 3045.85,-150.598 3006.98,-140.209"/>
<polygon fill="midnightblue" stroke="midnightblue" points="3007.49,-136.724 2996.93,-137.523 3005.68,-143.487 3007.49,-136.724"/>
</g>
<!-- Node45&#45;&gt;Node37 -->
<g id="edge234" class="edge"><title>Node45&#45;&gt;Node37</title>
<path fill="none" stroke="midnightblue" d="M3217.19,-174.439C3239.2,-167.201 3265.21,-155.642 3283.56,-138 3297.26,-124.816 3305.96,-104.785 3310.97,-89.6954"/>
<polygon fill="midnightblue" stroke="midnightblue" points="3314.43,-90.3354 3313.98,-79.7503 3307.73,-88.308 3314.43,-90.3354"/>
</g>
<!-- Node45&#45;&gt;Node43 -->
<g id="edge236" class="edge"><title>Node45&#45;&gt;Node43</title>
<path fill="none" stroke="midnightblue" d="M3109.54,-174.497C3047.98,-164.55 2955.57,-149.621 2890.83,-139.162"/>
<polygon fill="midnightblue" stroke="midnightblue" points="2891.12,-135.663 2880.69,-137.523 2890,-142.573 2891.12,-135.663"/>
</g>
<!-- Node46&#45;&gt;Node4 -->
<g id="edge242" class="edge"><title>Node46&#45;&gt;Node4</title>
<path fill="none" stroke="midnightblue" d="M3035.73,-174.997C3086.45,-165.355 3138.33,-147.454 3110.56,-116 3057.19,-55.5586 2478.69,-21.6437 2313.41,-13.1397"/>
<polygon fill="midnightblue" stroke="midnightblue" points="2313.3,-9.6295 2303.14,-12.6163 2312.95,-16.6204 2313.3,-9.6295"/>
</g>
<!-- Node46&#45;&gt;Node8 -->
<g id="edge260" class="edge"><title>Node46&#45;&gt;Node8</title>
<path fill="none" stroke="midnightblue" d="M2994.64,-174.486C3031.57,-162.299 3079.56,-140.696 3055.56,-116 3008.24,-67.3115 1934.16,-89.3359 1796.59,-79.433"/>
<polygon fill="midnightblue" stroke="midnightblue" points="1796.57,-75.9127 1786.27,-78.3715 1795.86,-82.876 1796.57,-75.9127"/>
</g>
<!-- Node46&#45;&gt;Node9 -->
<g id="edge246" class="edge"><title>Node46&#45;&gt;Node9</title>
<path fill="none" stroke="midnightblue" d="M2979.88,-174.38C3005.74,-160.744 3042.41,-136.408 3022.56,-116 2997.29,-90.0261 1754.71,-82.503 1718.56,-80 1706.76,-79.1834 1694.21,-78.0186 1682.14,-76.7498"/>
<polygon fill="midnightblue" stroke="midnightblue" points="1682.46,-73.2645 1672.15,-75.6648 1681.71,-80.2236 1682.46,-73.2645"/>
</g>
<!-- Node46&#45;&gt;Node10 -->
<g id="edge248" class="edge"><title>Node46&#45;&gt;Node10</title>
<path fill="none" stroke="midnightblue" d="M3020.48,-174.44C3068.29,-163.875 3121.47,-144.984 3093.56,-116 3056.49,-77.5213 2185.94,-82.0375 2132.56,-80 2053.92,-76.999 1963,-73.4512 1905.89,-71.2131"/>
<polygon fill="midnightblue" stroke="midnightblue" points="1905.76,-67.7054 1895.63,-70.8109 1905.49,-74.7 1905.76,-67.7054"/>
</g>
<!-- Node46&#45;&gt;Node20 -->
<g id="edge258" class="edge"><title>Node46&#45;&gt;Node20</title>
<path fill="none" stroke="midnightblue" d="M2879.33,-180.888C2831.71,-178.526 2769.64,-175.701 2714.56,-174 1746,-144.087 1503.1,-168.467 534.556,-138 469.352,-135.949 394.115,-132.225 346.217,-129.684"/>
<polygon fill="midnightblue" stroke="midnightblue" points="346.302,-126.184 336.129,-129.145 345.928,-133.174 346.302,-126.184"/>
</g>
<!-- Node46&#45;&gt;Node30 -->
<g id="edge244" class="edge"><title>Node46&#45;&gt;Node30</title>
<path fill="none" stroke="midnightblue" d="M2879.52,-179.756C2754.67,-171.314 2502.34,-154.029 2288.56,-138 2249.41,-135.065 2204.05,-131.398 2176.33,-129.127"/>
<polygon fill="midnightblue" stroke="midnightblue" points="2176.53,-125.632 2166.28,-128.302 2175.96,-132.609 2176.53,-125.632"/>
</g>
<!-- Node46&#45;&gt;Node34 -->
<g id="edge250" class="edge"><title>Node46&#45;&gt;Node34</title>
<path fill="none" stroke="midnightblue" d="M2957.56,-174.362C2957.56,-166.922 2957.56,-156.743 2957.56,-147.728"/>
<polygon fill="midnightblue" stroke="midnightblue" points="2961.06,-147.571 2957.56,-137.571 2954.06,-147.571 2961.06,-147.571"/>
</g>
<!-- Node46&#45;&gt;Node35 -->
<g id="edge254" class="edge"><title>Node46&#45;&gt;Node35</title>
<path fill="none" stroke="midnightblue" d="M2902.14,-174.497C2850.1,-164.632 2772.19,-149.866 2717.09,-139.421"/>
<polygon fill="midnightblue" stroke="midnightblue" points="2717.55,-135.947 2707.07,-137.523 2716.25,-142.824 2717.55,-135.947"/>
</g>
<!-- Node46&#45;&gt;Node43 -->
<g id="edge252" class="edge"><title>Node46&#45;&gt;Node43</title>
<path fill="none" stroke="midnightblue" d="M2931.84,-174.497C2909.26,-165.275 2876.2,-151.769 2851.09,-141.515"/>
<polygon fill="midnightblue" stroke="midnightblue" points="2852.14,-138.162 2841.56,-137.621 2849.49,-144.643 2852.14,-138.162"/>
</g>
<!-- Node46&#45;&gt;Node47 -->
<g id="edge256" class="edge"><title>Node46&#45;&gt;Node47</title>
<path fill="none" stroke="midnightblue" d="M3033.98,-174.497C3117.91,-162.961 3250.61,-144.723 3324.77,-134.53"/>
<polygon fill="midnightblue" stroke="midnightblue" points="3325.4,-137.976 3334.83,-133.147 3324.45,-131.041 3325.4,-137.976"/>
</g>
<!-- Node48&#45;&gt;Node4 -->
<g id="edge264" class="edge"><title>Node48&#45;&gt;Node4</title>
<path fill="none" stroke="midnightblue" d="M2617.8,-174.379C2573.6,-144.623 2451.09,-62.3207 2441.56,-58 2399.86,-39.0987 2348.93,-26.3498 2313.36,-18.9531"/>
<polygon fill="midnightblue" stroke="midnightblue" points="2313.79,-15.4699 2303.29,-16.9184 2312.4,-22.331 2313.79,-15.4699"/>
</g>
<!-- Node48&#45;&gt;Node35 -->
<g id="edge266" class="edge"><title>Node48&#45;&gt;Node35</title>
<path fill="none" stroke="midnightblue" d="M2636.86,-174.362C2639.22,-166.758 2642.46,-156.294 2645.31,-147.135"/>
<polygon fill="midnightblue" stroke="midnightblue" points="2648.65,-148.159 2648.28,-137.571 2641.97,-146.084 2648.65,-148.159"/>
</g>
<!-- Node49&#45;&gt;Node4 -->
<g id="edge270" class="edge"><title>Node49&#45;&gt;Node4</title>
<path fill="none" stroke="midnightblue" d="M1858.81,-174.246C1884.39,-158.824 1934.33,-130.672 1980.56,-116 2080.01,-84.4316 2121.86,-131.588 2212.56,-80 2232.8,-68.4854 2248.88,-46.7999 2258.73,-30.8013"/>
<polygon fill="midnightblue" stroke="midnightblue" points="2262.02,-32.1161 2264.04,-21.7166 2255.97,-28.5836 2262.02,-32.1161"/>
</g>
<!-- Node49&#45;&gt;Node8 -->
<g id="edge276" class="edge"><title>Node49&#45;&gt;Node8</title>
<path fill="none" stroke="midnightblue" d="M1833.71,-174.295C1819.29,-154.613 1788.39,-112.45 1770.38,-87.8668"/>
<polygon fill="midnightblue" stroke="midnightblue" points="1773.11,-85.6768 1764.38,-79.6792 1767.47,-89.8142 1773.11,-85.6768"/>
</g>
<!-- Node49&#45;&gt;Node9 -->
<g id="edge280" class="edge"><title>Node49&#45;&gt;Node9</title>
<path fill="none" stroke="midnightblue" d="M1821.07,-174.295C1781.48,-153.612 1694.38,-108.099 1648.75,-84.2543"/>
<polygon fill="midnightblue" stroke="midnightblue" points="1650.16,-81.0408 1639.67,-79.5117 1646.92,-87.2449 1650.16,-81.0408"/>
</g>
<!-- Node49&#45;&gt;Node16 -->
<g id="edge272" class="edge"><title>Node49&#45;&gt;Node16</title>
<path fill="none" stroke="midnightblue" d="M1760.77,-176.935C1633.47,-164.227 1391.13,-140.035 1298.16,-130.754"/>
<polygon fill="midnightblue" stroke="midnightblue" points="1298.39,-127.259 1288.09,-129.749 1297.69,-134.225 1298.39,-127.259"/>
</g>
<!-- Node49&#45;&gt;Node27 -->
<g id="edge278" class="edge"><title>Node49&#45;&gt;Node27</title>
<path fill="none" stroke="midnightblue" d="M1804.79,-174.497C1768.97,-164.262 1714.69,-148.752 1677.98,-138.265"/>
<polygon fill="midnightblue" stroke="midnightblue" points="1678.7,-134.83 1668.13,-135.448 1676.78,-141.561 1678.7,-134.83"/>
</g>
<!-- Node49&#45;&gt;Node43 -->
<g id="edge274" class="edge"><title>Node49&#45;&gt;Node43</title>
<path fill="none" stroke="midnightblue" d="M1922.1,-179.348C1948.96,-177.539 1979.04,-175.594 2006.56,-174 2328.4,-155.359 2412.6,-168.784 2737,-138.075"/>
<polygon fill="midnightblue" stroke="midnightblue" points="2737.54,-141.54 2747.16,-137.106 2736.87,-134.571 2737.54,-141.54"/>
</g>
<!-- Node50&#45;&gt;Node2 -->
<g id="edge296" class="edge"><title>Node50&#45;&gt;Node2</title>
<path fill="none" stroke="midnightblue" d="M1437.5,-175.445C1374.75,-165.031 1277.74,-148.666 1226.45,-138.278"/>
<polygon fill="midnightblue" stroke="midnightblue" points="1227.03,-134.824 1216.52,-136.22 1225.61,-141.678 1227.03,-134.824"/>
</g>
<!-- Node50&#45;&gt;Node3 -->
<g id="edge292" class="edge"><title>Node50&#45;&gt;Node3</title>
<path fill="none" stroke="midnightblue" d="M1507.39,-174.277C1525.79,-158.349 1563.02,-128.927 1600.56,-116 1650.39,-98.8373 2008.58,-77.9389 2131.37,-71.2036"/>
<polygon fill="midnightblue" stroke="midnightblue" points="2131.7,-74.691 2141.5,-70.6513 2131.32,-67.7014 2131.7,-74.691"/>
</g>
<!-- Node50&#45;&gt;Node4 -->
<g id="edge284" class="edge"><title>Node50&#45;&gt;Node4</title>
<path fill="none" stroke="midnightblue" d="M1488.98,-174.163C1481.35,-160.086 1470.98,-135.059 1480.56,-116 1499.96,-77.4003 1518.01,-72.9227 1558.56,-58 1620.99,-35.019 2080.54,-17.473 2225.72,-12.4549"/>
<polygon fill="midnightblue" stroke="midnightblue" points="2226.15,-15.9425 2236.02,-12.1018 2225.91,-8.94662 2226.15,-15.9425"/>
</g>
<!-- Node50&#45;&gt;Node5 -->
<g id="edge286" class="edge"><title>Node50&#45;&gt;Node5</title>
<path fill="none" stroke="midnightblue" d="M1471.16,-174.436C1454.19,-166.241 1431.79,-153.652 1415.56,-138 1382.33,-105.972 1356.43,-57.7573 1343.53,-30.8874"/>
<polygon fill="midnightblue" stroke="midnightblue" points="1346.65,-29.2874 1339.24,-21.7126 1340.31,-32.2536 1346.65,-29.2874"/>
</g>
<!-- Node50&#45;&gt;Node9 -->
<g id="edge290" class="edge"><title>Node50&#45;&gt;Node9</title>
<path fill="none" stroke="midnightblue" d="M1491.09,-174.07C1485.89,-159.436 1479.47,-133.317 1491.56,-116 1500.54,-103.126 1534.58,-90.9751 1565.3,-82.2541"/>
<polygon fill="midnightblue" stroke="midnightblue" points="1566.41,-85.5787 1575.12,-79.5466 1564.55,-78.8305 1566.41,-85.5787"/>
</g>
<!-- Node50&#45;&gt;Node10 -->
<g id="edge294" class="edge"><title>Node50&#45;&gt;Node10</title>
<path fill="none" stroke="midnightblue" d="M1497.55,-174.34C1501.07,-158.768 1509.94,-130.123 1529.56,-116 1575.53,-82.904 1721.36,-89.1253 1793.32,-79.9276"/>
<polygon fill="midnightblue" stroke="midnightblue" points="1793.99,-83.3663 1803.38,-78.4522 1792.98,-76.4404 1793.99,-83.3663"/>
</g>
<!-- Node50&#45;&gt;Node16 -->
<g id="edge288" class="edge"><title>Node50&#45;&gt;Node16</title>
<path fill="none" stroke="midnightblue" d="M1453,-174.497C1408.77,-163.579 1340.21,-146.66 1297.98,-136.237"/>
<polygon fill="midnightblue" stroke="midnightblue" points="1298.65,-132.797 1288.1,-133.798 1296.97,-139.593 1298.65,-132.797"/>
</g>
</g>
</svg>
