<?xml version="1.0" encoding="UTF-8" standalone="no"?>
<!DOCTYPE svg PUBLIC "-//W3C//DTD SVG 1.1//EN"
 "http://www.w3.org/Graphics/SVG/1.1/DTD/svg11.dtd">
<!-- Generated by graphviz version 2.26.3 (20100126.1600)
 -->
<!-- Title: staticmatchlist.h Pages: 1 -->
<svg width="2187pt" height="378pt"
 viewBox="0.00 0.00 2186.60 378.00" xmlns="http://www.w3.org/2000/svg" xmlns:xlink="http://www.w3.org/1999/xlink">
<g id="graph1" class="graph" transform="scale(1 1) rotate(0) translate(4 374)">
<title>staticmatchlist.h</title>
<polygon fill="white" stroke="white" points="-4,5 -4,-374 2183.6,-374 2183.6,5 -4,5"/>
<!-- Node1 -->
<g id="node1" class="node"><title>Node1</title>
<polygon fill="#bfbfbf" stroke="black" points="1003.1,-348.5 1003.1,-369.5 1094.1,-369.5 1094.1,-348.5 1003.1,-348.5"/>
<text text-anchor="middle" x="1048.6" y="-356.5" font-family="Helvetica,sans-Serif" font-size="10.00">staticmatchlist.h</text>
</g>
<!-- Node2 -->
<g id="node3" class="node"><title>Node2</title>
<a xlink:href="blacklist_8h.htm" target="_top" xlink:title="blacklist.h">
<polygon fill="white" stroke="black" points="967.603,-290.5 967.603,-311.5 1029.6,-311.5 1029.6,-290.5 967.603,-290.5"/>
<text text-anchor="middle" x="998.603" y="-298.5" font-family="Helvetica,sans-Serif" font-size="10.00">blacklist.h</text>
</a>
</g>
<!-- Node1&#45;&gt;Node2 -->
<g id="edge2" class="edge"><title>Node1&#45;&gt;Node2</title>
<path fill="none" stroke="midnightblue" d="M1032.69,-340.541C1024.45,-330.979 1014.68,-319.647 1007.72,-311.571"/>
<polygon fill="midnightblue" stroke="midnightblue" points="1030.25,-343.073 1039.43,-348.362 1035.55,-338.502 1030.25,-343.073"/>
</g>
<!-- Node32 -->
<g id="node81" class="node"><title>Node32</title>
<a xlink:href="staticmatchlist_8cpp.htm" target="_top" xlink:title="staticmatchlist.cpp">
<polygon fill="white" stroke="black" points="1047.6,-290.5 1047.6,-311.5 1149.6,-311.5 1149.6,-290.5 1047.6,-290.5"/>
<text text-anchor="middle" x="1098.6" y="-298.5" font-family="Helvetica,sans-Serif" font-size="10.00">staticmatchlist.cpp</text>
</a>
</g>
<!-- Node1&#45;&gt;Node32 -->
<g id="edge98" class="edge"><title>Node1&#45;&gt;Node32</title>
<path fill="none" stroke="midnightblue" d="M1064.52,-340.541C1072.76,-330.979 1082.53,-319.647 1089.49,-311.571"/>
<polygon fill="midnightblue" stroke="midnightblue" points="1061.65,-338.502 1057.77,-348.362 1066.95,-343.073 1061.65,-338.502"/>
</g>
<!-- Node3 -->
<g id="node5" class="node"><title>Node3</title>
<a xlink:href="appmonitor_8h.htm" target="_top" xlink:title="appmonitor.h">
<polygon fill="white" stroke="black" points="913.603,-232.5 913.603,-253.5 991.603,-253.5 991.603,-232.5 913.603,-232.5"/>
<text text-anchor="middle" x="952.603" y="-240.5" font-family="Helvetica,sans-Serif" font-size="10.00">appmonitor.h</text>
</a>
</g>
<!-- Node2&#45;&gt;Node3 -->
<g id="edge4" class="edge"><title>Node2&#45;&gt;Node3</title>
<path fill="none" stroke="midnightblue" d="M983.733,-282.25C976.198,-272.75 967.327,-261.565 960.987,-253.571"/>
<polygon fill="midnightblue" stroke="midnightblue" points="981.21,-284.702 990.166,-290.362 986.694,-280.352 981.21,-284.702"/>
</g>
<!-- Node31 -->
<g id="node79" class="node"><title>Node31</title>
<a xlink:href="blacklist_8cpp.htm" target="_top" xlink:title="blacklist.cpp">
<polygon fill="white" stroke="black" points="1009.1,-232.5 1009.1,-253.5 1082.1,-253.5 1082.1,-232.5 1009.1,-232.5"/>
<text text-anchor="middle" x="1045.6" y="-240.5" font-family="Helvetica,sans-Serif" font-size="10.00">blacklist.cpp</text>
</a>
</g>
<!-- Node2&#45;&gt;Node31 -->
<g id="edge96" class="edge"><title>Node2&#45;&gt;Node31</title>
<path fill="none" stroke="midnightblue" d="M1013.56,-282.541C1021.31,-272.979 1030.49,-261.647 1037.04,-253.571"/>
<polygon fill="midnightblue" stroke="midnightblue" points="1010.8,-280.389 1007.22,-290.362 1016.24,-284.796 1010.8,-280.389"/>
</g>
<!-- Node4 -->
<g id="node7" class="node"><title>Node4</title>
<a xlink:href="ApplicationManager_8cpp.htm" target="_top" xlink:title="ApplicationManager.cpp">
<polygon fill="white" stroke="black" points="53.1031,-0.5 53.1031,-21.5 184.103,-21.5 184.103,-0.5 53.1031,-0.5"/>
<text text-anchor="middle" x="118.603" y="-8.5" font-family="Helvetica,sans-Serif" font-size="10.00">ApplicationManager.cpp</text>
</a>
</g>
<!-- Node3&#45;&gt;Node4 -->
<g id="edge6" class="edge"><title>Node3&#45;&gt;Node4</title>
<path fill="none" stroke="midnightblue" d="M903.224,-240.28C783.802,-233.485 481.896,-214.946 382.603,-196 295.459,-179.372 276.395,-164.094 191.603,-138 108.841,-112.531 56.9164,-149.751 5.60313,-80 -15.3736,-51.4859 29.7794,-32.3083 69.0909,-21.5528"/>
<polygon fill="midnightblue" stroke="midnightblue" points="903.346,-243.793 913.528,-240.863 903.742,-236.804 903.346,-243.793"/>
</g>
<!-- Node5 -->
<g id="node9" class="node"><title>Node5</title>
<a xlink:href="dimensionslauncher_8h.htm" target="_top" xlink:title="dimensionslauncher.h">
<polygon fill="white" stroke="black" points="1134.1,-116.5 1134.1,-137.5 1253.1,-137.5 1253.1,-116.5 1134.1,-116.5"/>
<text text-anchor="middle" x="1193.6" y="-124.5" font-family="Helvetica,sans-Serif" font-size="10.00">dimensionslauncher.h</text>
</a>
</g>
<!-- Node3&#45;&gt;Node5 -->
<g id="edge8" class="edge"><title>Node3&#45;&gt;Node5</title>
<path fill="none" stroke="midnightblue" d="M984.139,-227.821C1033.79,-203.922 1128.94,-158.125 1171.76,-137.512"/>
<polygon fill="midnightblue" stroke="midnightblue" points="982.336,-224.804 974.844,-232.295 985.372,-231.112 982.336,-224.804"/>
</g>
<!-- Node6 -->
<g id="node11" class="node"><title>Node6</title>
<a xlink:href="dimensionslauncher_8cpp.htm" target="_top" xlink:title="dimensionslauncher.cpp">
<polygon fill="white" stroke="black" points="772.603,-58.5 772.603,-79.5 902.603,-79.5 902.603,-58.5 772.603,-58.5"/>
<text text-anchor="middle" x="837.603" y="-66.5" font-family="Helvetica,sans-Serif" font-size="10.00">dimensionslauncher.cpp</text>
</a>
</g>
<!-- Node3&#45;&gt;Node6 -->
<g id="edge42" class="edge"><title>Node3&#45;&gt;Node6</title>
<path fill="none" stroke="midnightblue" d="M939.797,-223.623C915.594,-187.003 863.86,-108.728 844.825,-79.9277"/>
<polygon fill="midnightblue" stroke="midnightblue" points="937.149,-225.965 945.582,-232.377 942.989,-222.105 937.149,-225.965"/>
</g>
<!-- Node9 -->
<g id="node17" class="node"><title>Node9</title>
<a xlink:href="quicklaunchbar_8cpp.htm" target="_top" xlink:title="quicklaunchbar.cpp">
<polygon fill="white" stroke="black" points="14.6031,-58.5 14.6031,-79.5 120.603,-79.5 120.603,-58.5 14.6031,-58.5"/>
<text text-anchor="middle" x="67.6031" y="-66.5" font-family="Helvetica,sans-Serif" font-size="10.00">quicklaunchbar.cpp</text>
</a>
</g>
<!-- Node3&#45;&gt;Node9 -->
<g id="edge84" class="edge"><title>Node3&#45;&gt;Node9</title>
<path fill="none" stroke="midnightblue" d="M903.223,-241.417C816.224,-237.898 630.286,-227.113 476.603,-196 329.4,-166.199 159.85,-104.355 94.8713,-79.5906"/>
<polygon fill="midnightblue" stroke="midnightblue" points="903.205,-244.918 913.334,-241.81 903.478,-237.924 903.205,-244.918"/>
</g>
<!-- Node19 -->
<g id="node37" class="node"><title>Node19</title>
<a xlink:href="appeffector_8cpp.htm" target="_top" xlink:title="appeffector.cpp">
<polygon fill="white" stroke="black" points="1982.6,-58.5 1982.6,-79.5 2072.6,-79.5 2072.6,-58.5 1982.6,-58.5"/>
<text text-anchor="middle" x="2027.6" y="-66.5" font-family="Helvetica,sans-Serif" font-size="10.00">appeffector.cpp</text>
</a>
</g>
<!-- Node3&#45;&gt;Node19 -->
<g id="edge86" class="edge"><title>Node3&#45;&gt;Node19</title>
<path fill="none" stroke="midnightblue" d="M999.144,-229.499C1060.31,-211.234 1170.65,-176.478 1261.6,-138 1281.37,-129.636 1283.88,-121.588 1304.6,-116 1592.1,-38.4921 1678.25,-117.82 1973.6,-80 1976.45,-79.6354 1979.37,-79.2053 1982.31,-78.7299"/>
<polygon fill="midnightblue" stroke="midnightblue" points="997.987,-226.192 989.397,-232.394 999.98,-232.902 997.987,-226.192"/>
</g>
<!-- Node20 -->
<g id="node39" class="node"><title>Node20</title>
<a xlink:href="appmonitor_8cpp.htm" target="_top" xlink:title="appmonitor.cpp">
<polygon fill="white" stroke="black" points="2090.1,-58.5 2090.1,-79.5 2179.1,-79.5 2179.1,-58.5 2090.1,-58.5"/>
<text text-anchor="middle" x="2134.6" y="-66.5" font-family="Helvetica,sans-Serif" font-size="10.00">appmonitor.cpp</text>
</a>
</g>
<!-- Node3&#45;&gt;Node20 -->
<g id="edge88" class="edge"><title>Node3&#45;&gt;Node20</title>
<path fill="none" stroke="midnightblue" d="M1001.86,-231.812C1151.29,-201.873 1190.52,-195.938 1337.6,-174 1667.25,-124.833 1752.84,-134.797 2081.6,-80 2084.29,-79.5519 2087.05,-79.0642 2089.83,-78.5516"/>
<polygon fill="midnightblue" stroke="midnightblue" points="1000.97,-228.421 991.858,-233.82 1002.35,-235.284 1000.97,-228.421"/>
</g>
<!-- Node21 -->
<g id="node41" class="node"><title>Node21</title>
<a xlink:href="pagesaver_8cpp.htm" target="_top" xlink:title="pagesaver.cpp">
<polygon fill="white" stroke="black" points="994.603,-58.5 994.603,-79.5 1080.6,-79.5 1080.6,-58.5 994.603,-58.5"/>
<text text-anchor="middle" x="1037.6" y="-66.5" font-family="Helvetica,sans-Serif" font-size="10.00">pagesaver.cpp</text>
</a>
</g>
<!-- Node3&#45;&gt;Node21 -->
<g id="edge92" class="edge"><title>Node3&#45;&gt;Node21</title>
<path fill="none" stroke="midnightblue" d="M962.298,-223.153C980.283,-186.338 1018.26,-108.606 1032.26,-79.9277"/>
<polygon fill="midnightblue" stroke="midnightblue" points="959.037,-221.856 957.792,-232.377 965.327,-224.929 959.037,-221.856"/>
</g>
<!-- Node22 -->
<g id="node44" class="node"><title>Node22</title>
<a xlink:href="quicklaunchbar_8h.htm" target="_top" xlink:title="quicklaunchbar.h">
<polygon fill="white" stroke="black" points="572.103,-174.5 572.103,-195.5 667.103,-195.5 667.103,-174.5 572.103,-174.5"/>
<text text-anchor="middle" x="619.603" y="-182.5" font-family="Helvetica,sans-Serif" font-size="10.00">quicklaunchbar.h</text>
</a>
</g>
<!-- Node3&#45;&gt;Node22 -->
<g id="edge44" class="edge"><title>Node3&#45;&gt;Node22</title>
<path fill="none" stroke="midnightblue" d="M903.253,-234.404C839.681,-223.332 729.921,-204.215 667.208,-193.292"/>
<polygon fill="midnightblue" stroke="midnightblue" points="902.972,-237.908 913.425,-236.176 904.173,-231.012 902.972,-237.908"/>
</g>
<!-- Node28 -->
<g id="node65" class="node"><title>Node28</title>
<a xlink:href="pagerestore_8cpp.htm" target="_top" xlink:title="pagerestore.cpp">
<polygon fill="white" stroke="black" points="138.603,-58.5 138.603,-79.5 232.603,-79.5 232.603,-58.5 138.603,-58.5"/>
<text text-anchor="middle" x="185.603" y="-66.5" font-family="Helvetica,sans-Serif" font-size="10.00">pagerestore.cpp</text>
</a>
</g>
<!-- Node3&#45;&gt;Node28 -->
<g id="edge90" class="edge"><title>Node3&#45;&gt;Node28</title>
<path fill="none" stroke="midnightblue" d="M903.499,-240.285C829.176,-235.456 684.012,-223.202 563.603,-196 427.534,-165.26 271.481,-104.23 211.203,-79.6374"/>
<polygon fill="midnightblue" stroke="midnightblue" points="903.306,-243.78 913.507,-240.918 903.748,-236.794 903.306,-243.78"/>
</g>
<!-- Node30 -->
<g id="node77" class="node"><title>Node30</title>
<a xlink:href="webosapp_8cpp.htm" target="_top" xlink:title="webosapp.cpp">
<polygon fill="white" stroke="black" points="1346.6,-174.5 1346.6,-195.5 1430.6,-195.5 1430.6,-174.5 1346.6,-174.5"/>
<text text-anchor="middle" x="1388.6" y="-182.5" font-family="Helvetica,sans-Serif" font-size="10.00">webosapp.cpp</text>
</a>
</g>
<!-- Node3&#45;&gt;Node30 -->
<g id="edge94" class="edge"><title>Node3&#45;&gt;Node30</title>
<path fill="none" stroke="midnightblue" d="M1002.1,-231.906C1148.77,-207.856 1189.17,-217.823 1332.6,-196 1337.11,-195.314 1341.8,-194.52 1346.47,-193.678"/>
<polygon fill="midnightblue" stroke="midnightblue" points="1001.11,-228.523 991.821,-233.618 1002.26,-235.428 1001.11,-228.523"/>
</g>
<!-- Node5&#45;&gt;Node6 -->
<g id="edge10" class="edge"><title>Node5&#45;&gt;Node6</title>
<path fill="none" stroke="midnightblue" d="M1123.97,-115.655C1059.65,-105.176 964.868,-89.7342 902.207,-79.5254"/>
<polygon fill="midnightblue" stroke="midnightblue" points="1123.58,-119.138 1134.02,-117.292 1124.71,-112.23 1123.58,-119.138"/>
</g>
<!-- Node7 -->
<g id="node13" class="node"><title>Node7</title>
<a xlink:href="dimensionsmain_8cpp.htm" target="_top" xlink:title="dimensionsmain.cpp">
<polygon fill="white" stroke="black" points="661.603,-0.5 661.603,-21.5 773.603,-21.5 773.603,-0.5 661.603,-0.5"/>
<text text-anchor="middle" x="717.603" y="-8.5" font-family="Helvetica,sans-Serif" font-size="10.00">dimensionsmain.cpp</text>
</a>
</g>
<!-- Node5&#45;&gt;Node7 -->
<g id="edge12" class="edge"><title>Node5&#45;&gt;Node7</title>
<path fill="none" stroke="midnightblue" d="M1257.64,-113.953C1299.29,-102.691 1341.73,-84.0941 1317.6,-58 1299.27,-38.1744 919.202,-19.7163 773.643,-13.348"/>
<polygon fill="midnightblue" stroke="midnightblue" points="1256.76,-110.565 1247.96,-116.452 1258.51,-117.343 1256.76,-110.565"/>
</g>
<!-- Node8 -->
<g id="node15" class="node"><title>Node8</title>
<a xlink:href="pagetabbar_8cpp.htm" target="_top" xlink:title="pagetabbar.cpp">
<polygon fill="white" stroke="black" points="1364.1,-58.5 1364.1,-79.5 1453.1,-79.5 1453.1,-58.5 1364.1,-58.5"/>
<text text-anchor="middle" x="1408.6" y="-66.5" font-family="Helvetica,sans-Serif" font-size="10.00">pagetabbar.cpp</text>
</a>
</g>
<!-- Node5&#45;&gt;Node8 -->
<g id="edge14" class="edge"><title>Node5&#45;&gt;Node8</title>
<path fill="none" stroke="midnightblue" d="M1242.49,-113.812C1280.98,-103.428 1333.91,-89.1487 1369.6,-79.5231"/>
<polygon fill="midnightblue" stroke="midnightblue" points="1241.28,-110.513 1232.54,-116.497 1243.1,-117.271 1241.28,-110.513"/>
</g>
<!-- Node5&#45;&gt;Node9 -->
<g id="edge16" class="edge"><title>Node5&#45;&gt;Node9</title>
<path fill="none" stroke="midnightblue" d="M1123.97,-125.122C919.543,-119.417 323.33,-101.37 129.603,-80 126.669,-79.6764 123.665,-79.2986 120.637,-78.8818"/>
<polygon fill="midnightblue" stroke="midnightblue" points="1123.89,-128.621 1133.99,-125.4 1124.09,-121.623 1123.89,-128.621"/>
</g>
<!-- Node10 -->
<g id="node19" class="node"><title>Node10</title>
<a xlink:href="icon_8cpp.htm" target="_top" xlink:title="icon.cpp">
<polygon fill="white" stroke="black" points="920.603,-58.5 920.603,-79.5 976.603,-79.5 976.603,-58.5 920.603,-58.5"/>
<text text-anchor="middle" x="948.603" y="-66.5" font-family="Helvetica,sans-Serif" font-size="10.00">icon.cpp</text>
</a>
</g>
<!-- Node5&#45;&gt;Node10 -->
<g id="edge18" class="edge"><title>Node5&#45;&gt;Node10</title>
<path fill="none" stroke="midnightblue" d="M1132.54,-114.324C1090.95,-105.417 1034.74,-92.841 985.603,-80 982.75,-79.2545 979.785,-78.4403 976.83,-77.6031"/>
<polygon fill="midnightblue" stroke="midnightblue" points="1132,-117.789 1142.51,-116.45 1133.46,-110.942 1132,-117.789"/>
</g>
<!-- Node11 -->
<g id="node21" class="node"><title>Node11</title>
<a xlink:href="alphabetpage_8cpp.htm" target="_top" xlink:title="alphabetpage.cpp">
<polygon fill="white" stroke="black" points="1470.1,-58.5 1470.1,-79.5 1571.1,-79.5 1571.1,-58.5 1470.1,-58.5"/>
<text text-anchor="middle" x="1520.6" y="-66.5" font-family="Helvetica,sans-Serif" font-size="10.00">alphabetpage.cpp</text>
</a>
</g>
<!-- Node5&#45;&gt;Node11 -->
<g id="edge20" class="edge"><title>Node5&#45;&gt;Node11</title>
<path fill="none" stroke="midnightblue" d="M1263.41,-114.968C1317.52,-105.592 1394.35,-92.1657 1461.6,-80 1464.37,-79.4992 1467.21,-78.9817 1470.08,-78.4565"/>
<polygon fill="midnightblue" stroke="midnightblue" points="1262.5,-111.574 1253.24,-116.729 1263.69,-118.471 1262.5,-111.574"/>
</g>
<!-- Node12 -->
<g id="node23" class="node"><title>Node12</title>
<a xlink:href="reorderableiconlayout_8cpp.htm" target="_top" xlink:title="reorderableiconlayout.cpp">
<polygon fill="white" stroke="black" points="1588.6,-58.5 1588.6,-79.5 1726.6,-79.5 1726.6,-58.5 1588.6,-58.5"/>
<text text-anchor="middle" x="1657.6" y="-66.5" font-family="Helvetica,sans-Serif" font-size="10.00">reorderableiconlayout.cpp</text>
</a>
</g>
<!-- Node5&#45;&gt;Node12 -->
<g id="edge22" class="edge"><title>Node5&#45;&gt;Node12</title>
<path fill="none" stroke="midnightblue" d="M1263.34,-116.438C1264.43,-116.289 1265.52,-116.143 1266.6,-116 1405.41,-97.5649 1440.71,-97.7785 1579.6,-80 1582.45,-79.6354 1585.36,-79.2565 1588.29,-78.8683"/>
<polygon fill="midnightblue" stroke="midnightblue" points="1262.76,-112.984 1253.34,-117.825 1263.72,-119.918 1262.76,-112.984"/>
</g>
<!-- Node13 -->
<g id="node25" class="node"><title>Node13</title>
<a xlink:href="page_8cpp.htm" target="_top" xlink:title="page.cpp">
<polygon fill="white" stroke="black" points="694.603,-58.5 694.603,-79.5 754.603,-79.5 754.603,-58.5 694.603,-58.5"/>
<text text-anchor="middle" x="724.603" y="-66.5" font-family="Helvetica,sans-Serif" font-size="10.00">page.cpp</text>
</a>
</g>
<!-- Node5&#45;&gt;Node13 -->
<g id="edge24" class="edge"><title>Node5&#45;&gt;Node13</title>
<path fill="none" stroke="midnightblue" d="M1123.91,-122.952C1038.41,-117.169 889.343,-104.429 763.603,-80 760.703,-79.4365 757.704,-78.7618 754.718,-78.0276"/>
<polygon fill="midnightblue" stroke="midnightblue" points="1123.8,-126.453 1134.01,-123.623 1124.27,-119.468 1123.8,-126.453"/>
</g>
<!-- Node14 -->
<g id="node27" class="node"><title>Node14</title>
<a xlink:href="pagemovement_8cpp.htm" target="_top" xlink:title="pagemovement.cpp">
<polygon fill="white" stroke="black" points="1744.1,-58.5 1744.1,-79.5 1853.1,-79.5 1853.1,-58.5 1744.1,-58.5"/>
<text text-anchor="middle" x="1798.6" y="-66.5" font-family="Helvetica,sans-Serif" font-size="10.00">pagemovement.cpp</text>
</a>
</g>
<!-- Node5&#45;&gt;Node14 -->
<g id="edge26" class="edge"><title>Node5&#45;&gt;Node14</title>
<path fill="none" stroke="midnightblue" d="M1263.33,-116.38C1264.43,-116.25 1265.52,-116.123 1266.6,-116 1474.33,-92.4092 1528.17,-106.009 1735.6,-80 1738.36,-79.6547 1741.17,-79.2719 1744.02,-78.8622"/>
<polygon fill="midnightblue" stroke="midnightblue" points="1262.8,-112.92 1253.31,-117.64 1263.67,-119.865 1262.8,-112.92"/>
</g>
<!-- Node15 -->
<g id="node29" class="node"><title>Node15</title>
<a xlink:href="reorderablepage_8cpp.htm" target="_top" xlink:title="reorderablepage.cpp">
<polygon fill="white" stroke="black" points="562.103,-58.5 562.103,-79.5 677.103,-79.5 677.103,-58.5 562.103,-58.5"/>
<text text-anchor="middle" x="619.603" y="-66.5" font-family="Helvetica,sans-Serif" font-size="10.00">reorderablepage.cpp</text>
</a>
</g>
<!-- Node5&#45;&gt;Node15 -->
<g id="edge28" class="edge"><title>Node5&#45;&gt;Node15</title>
<path fill="none" stroke="midnightblue" d="M1123.93,-122.17C1025.88,-115.005 841.702,-100.202 685.603,-80 682.838,-79.6422 680.012,-79.2548 677.159,-78.8465"/>
<polygon fill="midnightblue" stroke="midnightblue" points="1123.78,-125.668 1134.01,-122.902 1124.29,-118.687 1123.78,-125.668"/>
</g>
<!-- Node16 -->
<g id="node31" class="node"><title>Node16</title>
<a xlink:href="overlaylayer_8cpp.htm" target="_top" xlink:title="overlaylayer.cpp">
<polygon fill="white" stroke="black" points="1870.6,-58.5 1870.6,-79.5 1964.6,-79.5 1964.6,-58.5 1870.6,-58.5"/>
<text text-anchor="middle" x="1917.6" y="-66.5" font-family="Helvetica,sans-Serif" font-size="10.00">overlaylayer.cpp</text>
</a>
</g>
<!-- Node5&#45;&gt;Node16 -->
<g id="edge30" class="edge"><title>Node5&#45;&gt;Node16</title>
<path fill="none" stroke="midnightblue" d="M1263.33,-116.356C1264.43,-116.233 1265.52,-116.114 1266.6,-116 1530.07,-88.2349 1598.82,-113.607 1861.6,-80 1864.45,-79.6355 1867.38,-79.2124 1870.32,-78.7487"/>
<polygon fill="midnightblue" stroke="midnightblue" points="1262.82,-112.892 1253.31,-117.561 1263.65,-119.842 1262.82,-112.892"/>
</g>
<!-- Node17 -->
<g id="node33" class="node"><title>Node17</title>
<a xlink:href="vcamera_8cpp.htm" target="_top" xlink:title="vcamera.cpp">
<polygon fill="white" stroke="black" points="1098.1,-58.5 1098.1,-79.5 1175.1,-79.5 1175.1,-58.5 1098.1,-58.5"/>
<text text-anchor="middle" x="1136.6" y="-66.5" font-family="Helvetica,sans-Serif" font-size="10.00">vcamera.cpp</text>
</a>
</g>
<!-- Node5&#45;&gt;Node17 -->
<g id="edge32" class="edge"><title>Node5&#45;&gt;Node17</title>
<path fill="none" stroke="midnightblue" d="M1176.03,-109.118C1166.52,-99.4377 1155.09,-87.8098 1146.99,-79.5707"/>
<polygon fill="midnightblue" stroke="midnightblue" points="1173.64,-111.683 1183.15,-116.362 1178.64,-106.776 1173.64,-111.683"/>
</g>
<!-- Node18 -->
<g id="node35" class="node"><title>Node18</title>
<a xlink:href="groupanchoritem_8cpp.htm" target="_top" xlink:title="groupanchoritem.cpp">
<polygon fill="white" stroke="black" points="1192.6,-58.5 1192.6,-79.5 1308.6,-79.5 1308.6,-58.5 1192.6,-58.5"/>
<text text-anchor="middle" x="1250.6" y="-66.5" font-family="Helvetica,sans-Serif" font-size="10.00">groupanchoritem.cpp</text>
</a>
</g>
<!-- Node5&#45;&gt;Node18 -->
<g id="edge34" class="edge"><title>Node5&#45;&gt;Node18</title>
<path fill="none" stroke="midnightblue" d="M1211.18,-109.118C1220.69,-99.4377 1232.12,-87.8098 1240.21,-79.5707"/>
<polygon fill="midnightblue" stroke="midnightblue" points="1208.57,-106.776 1204.06,-116.362 1213.56,-111.683 1208.57,-106.776"/>
</g>
<!-- Node5&#45;&gt;Node19 -->
<g id="edge36" class="edge"><title>Node5&#45;&gt;Node19</title>
<path fill="none" stroke="midnightblue" d="M1263.33,-116.341C1264.43,-116.223 1265.52,-116.109 1266.6,-116 1579.65,-84.5214 1661.46,-119.512 1973.6,-80 1976.45,-79.6395 1979.37,-79.2125 1982.31,-78.7395"/>
<polygon fill="midnightblue" stroke="midnightblue" points="1262.83,-112.876 1253.3,-117.514 1263.64,-119.829 1262.83,-112.876"/>
</g>
<!-- Node5&#45;&gt;Node20 -->
<g id="edge38" class="edge"><title>Node5&#45;&gt;Node20</title>
<path fill="none" stroke="midnightblue" d="M1263.47,-119.513C1277.1,-118.211 1291.29,-116.967 1304.6,-116 1649.4,-90.9454 1738.62,-123.262 2081.6,-80 2084.31,-79.659 2087.08,-79.254 2089.87,-78.804"/>
<polygon fill="midnightblue" stroke="midnightblue" points="1262.79,-116.062 1253.18,-120.516 1263.47,-123.029 1262.79,-116.062"/>
</g>
<!-- Node5&#45;&gt;Node21 -->
<g id="edge40" class="edge"><title>Node5&#45;&gt;Node21</title>
<path fill="none" stroke="midnightblue" d="M1155.97,-113.009C1128.25,-102.702 1091.14,-88.903 1065.91,-79.5231"/>
<polygon fill="midnightblue" stroke="midnightblue" points="1154.76,-116.292 1165.35,-116.497 1157.2,-109.731 1154.76,-116.292"/>
</g>
<!-- Node22&#45;&gt;Node9 -->
<g id="edge78" class="edge"><title>Node22&#45;&gt;Node9</title>
<path fill="none" stroke="midnightblue" d="M562.275,-172.953C453.788,-150.155 220.165,-101.06 117.605,-79.5076"/>
<polygon fill="midnightblue" stroke="midnightblue" points="561.556,-176.378 572.062,-175.01 562.996,-169.528 561.556,-176.378"/>
</g>
<!-- Node22&#45;&gt;Node15 -->
<g id="edge80" class="edge"><title>Node22&#45;&gt;Node15</title>
<path fill="none" stroke="midnightblue" d="M619.603,-164.123C619.603,-139.298 619.603,-98.8235 619.603,-79.6792"/>
<polygon fill="midnightblue" stroke="midnightblue" points="616.103,-164.295 619.603,-174.295 623.103,-164.295 616.103,-164.295"/>
</g>
<!-- Node22&#45;&gt;Node21 -->
<g id="edge82" class="edge"><title>Node22&#45;&gt;Node21</title>
<path fill="none" stroke="midnightblue" d="M667.595,-171.682C751.539,-148.386 923.342,-100.709 999.64,-79.5352"/>
<polygon fill="midnightblue" stroke="midnightblue" points="666.506,-168.352 657.806,-174.398 668.378,-175.097 666.506,-168.352"/>
</g>
<!-- Node23 -->
<g id="node46" class="node"><title>Node23</title>
<a xlink:href="dimensionsmain_8h.htm" target="_top" xlink:title="dimensionsmain.h">
<polygon fill="white" stroke="black" points="484.103,-116.5 484.103,-137.5 585.103,-137.5 585.103,-116.5 484.103,-116.5"/>
<text text-anchor="middle" x="534.603" y="-124.5" font-family="Helvetica,sans-Serif" font-size="10.00">dimensionsmain.h</text>
</a>
</g>
<!-- Node22&#45;&gt;Node23 -->
<g id="edge46" class="edge"><title>Node22&#45;&gt;Node23</title>
<path fill="none" stroke="midnightblue" d="M595.482,-168.541C580.91,-158.597 562.767,-146.218 550.095,-137.571"/>
<polygon fill="midnightblue" stroke="midnightblue" points="593.78,-171.617 604.013,-174.362 597.725,-165.834 593.78,-171.617"/>
</g>
<!-- Node23&#45;&gt;Node4 -->
<g id="edge48" class="edge"><title>Node23&#45;&gt;Node4</title>
<path fill="none" stroke="midnightblue" d="M473.969,-118.267C410.221,-108.652 314.429,-92.8522 279.603,-80 261.295,-73.2436 259.219,-66.3986 241.603,-58 211.373,-43.5872 175.461,-30.2783 150.271,-21.53"/>
<polygon fill="midnightblue" stroke="midnightblue" points="473.503,-121.736 483.911,-119.756 474.54,-114.813 473.503,-121.736"/>
</g>
<!-- Node23&#45;&gt;Node6 -->
<g id="edge50" class="edge"><title>Node23&#45;&gt;Node6</title>
<path fill="none" stroke="midnightblue" d="M595.23,-115.395C649.939,-104.923 729.724,-89.6502 782.617,-79.5254"/>
<polygon fill="midnightblue" stroke="midnightblue" points="594.482,-111.974 585.319,-117.292 595.798,-118.85 594.482,-111.974"/>
</g>
<!-- Node23&#45;&gt;Node7 -->
<g id="edge52" class="edge"><title>Node23&#45;&gt;Node7</title>
<path fill="none" stroke="midnightblue" d="M535.103,-106.25C536.577,-90.9706 541.014,-70.7207 553.603,-58 568.812,-42.632 620.015,-29.5061 661.21,-21.0634"/>
<polygon fill="midnightblue" stroke="midnightblue" points="531.604,-106.121 534.48,-116.319 538.591,-106.554 531.604,-106.121"/>
</g>
<!-- Node23&#45;&gt;Node9 -->
<g id="edge66" class="edge"><title>Node23&#45;&gt;Node9</title>
<path fill="none" stroke="midnightblue" d="M473.664,-121.08C394.279,-113.105 251.256,-97.8342 129.603,-80 126.683,-79.5719 123.689,-79.1117 120.669,-78.631"/>
<polygon fill="midnightblue" stroke="midnightblue" points="473.666,-124.598 483.964,-122.11 474.362,-117.633 473.666,-124.598"/>
</g>
<!-- Node23&#45;&gt;Node10 -->
<g id="edge68" class="edge"><title>Node23&#45;&gt;Node10</title>
<path fill="none" stroke="midnightblue" d="M595.548,-122.514C670.514,-116.284 801.392,-103.088 911.603,-80 914.489,-79.3954 917.476,-78.6737 920.444,-77.893"/>
<polygon fill="midnightblue" stroke="midnightblue" points="595.03,-119.045 585.349,-123.347 595.6,-126.022 595.03,-119.045"/>
</g>
<!-- Node23&#45;&gt;Node13 -->
<g id="edge70" class="edge"><title>Node23&#45;&gt;Node13</title>
<path fill="none" stroke="midnightblue" d="M578.658,-113.552C614.225,-102.694 663.323,-87.7066 694.519,-78.1835"/>
<polygon fill="midnightblue" stroke="midnightblue" points="577.553,-110.229 569.011,-116.497 579.597,-116.924 577.553,-110.229"/>
</g>
<!-- Node23&#45;&gt;Node15 -->
<g id="edge72" class="edge"><title>Node23&#45;&gt;Node15</title>
<path fill="none" stroke="midnightblue" d="M558.724,-110.541C573.297,-100.597 591.439,-88.2177 604.112,-79.5707"/>
<polygon fill="midnightblue" stroke="midnightblue" points="556.481,-107.834 550.193,-116.362 560.426,-113.617 556.481,-107.834"/>
</g>
<!-- Node24 -->
<g id="node51" class="node"><title>Node24</title>
<a xlink:href="OverlayWindowManager_8h.htm" target="_top" xlink:title="OverlayWindowManager.h">
<polygon fill="white" stroke="black" points="364.603,-58.5 364.603,-79.5 506.603,-79.5 506.603,-58.5 364.603,-58.5"/>
<text text-anchor="middle" x="435.603" y="-66.5" font-family="Helvetica,sans-Serif" font-size="10.00">OverlayWindowManager.h</text>
</a>
</g>
<!-- Node23&#45;&gt;Node24 -->
<g id="edge54" class="edge"><title>Node23&#45;&gt;Node24</title>
<path fill="none" stroke="midnightblue" d="M507.465,-111.101C490.336,-101.066 468.684,-88.3808 453.646,-79.5707"/>
<polygon fill="midnightblue" stroke="midnightblue" points="506.047,-114.327 516.445,-116.362 509.586,-108.287 506.047,-114.327"/>
</g>
<!-- Node23&#45;&gt;Node28 -->
<g id="edge74" class="edge"><title>Node23&#45;&gt;Node28</title>
<path fill="none" stroke="midnightblue" d="M473.951,-117.402C415.634,-108.103 325.028,-93.4695 246.603,-80 242.149,-79.235 237.514,-78.4249 232.878,-77.6051"/>
<polygon fill="midnightblue" stroke="midnightblue" points="473.67,-120.902 484.096,-119.018 474.771,-113.989 473.67,-120.902"/>
</g>
<!-- Node29 -->
<g id="node67" class="node"><title>Node29</title>
<a xlink:href="thing_8cpp.htm" target="_top" xlink:title="thing.cpp">
<polygon fill="white" stroke="black" points="288.103,-58.5 288.103,-79.5 347.103,-79.5 347.103,-58.5 288.103,-58.5"/>
<text text-anchor="middle" x="317.603" y="-66.5" font-family="Helvetica,sans-Serif" font-size="10.00">thing.cpp</text>
</a>
</g>
<!-- Node23&#45;&gt;Node29 -->
<g id="edge76" class="edge"><title>Node23&#45;&gt;Node29</title>
<path fill="none" stroke="midnightblue" d="M483.541,-113.954C447.682,-104.705 398.635,-91.8757 355.603,-80 352.955,-79.2692 350.207,-78.4981 347.454,-77.7174"/>
<polygon fill="midnightblue" stroke="midnightblue" points="482.732,-117.36 493.289,-116.465 484.478,-110.581 482.732,-117.36"/>
</g>
<!-- Node24&#45;&gt;Node4 -->
<g id="edge56" class="edge"><title>Node24&#45;&gt;Node4</title>
<path fill="none" stroke="midnightblue" d="M368.185,-56.6648C311.109,-46.222 230.181,-31.415 176.117,-21.5231"/>
<polygon fill="midnightblue" stroke="midnightblue" points="367.73,-60.1396 378.197,-58.4966 368.99,-53.2539 367.73,-60.1396"/>
</g>
<!-- Node24&#45;&gt;Node7 -->
<g id="edge60" class="edge"><title>Node24&#45;&gt;Node7</title>
<path fill="none" stroke="midnightblue" d="M496.526,-56.4697C547.245,-46.0382 618.643,-31.3535 666.439,-21.5231"/>
<polygon fill="midnightblue" stroke="midnightblue" points="495.761,-53.0537 486.671,-58.4966 497.171,-59.9102 495.761,-53.0537"/>
</g>
<!-- Node25 -->
<g id="node54" class="node"><title>Node25</title>
<a xlink:href="SystemUiController_8cpp.htm" target="_top" xlink:title="SystemUiController.cpp">
<polygon fill="white" stroke="black" points="517.103,-0.5 517.103,-21.5 644.103,-21.5 644.103,-0.5 517.103,-0.5"/>
<text text-anchor="middle" x="580.603" y="-8.5" font-family="Helvetica,sans-Serif" font-size="10.00">SystemUiController.cpp</text>
</a>
</g>
<!-- Node24&#45;&gt;Node25 -->
<g id="edge58" class="edge"><title>Node24&#45;&gt;Node25</title>
<path fill="none" stroke="midnightblue" d="M471.226,-54.7509C496.832,-44.5086 530.802,-30.9206 554.05,-21.6212"/>
<polygon fill="midnightblue" stroke="midnightblue" points="469.846,-51.533 461.862,-58.4966 472.446,-58.0323 469.846,-51.533"/>
</g>
<!-- Node26 -->
<g id="node57" class="node"><title>Node26</title>
<a xlink:href="OverlayWindowManager_8cpp.htm" target="_top" xlink:title="OverlayWindowManager.cpp">
<polygon fill="white" stroke="black" points="201.103,-0.5 201.103,-21.5 354.103,-21.5 354.103,-0.5 201.103,-0.5"/>
<text text-anchor="middle" x="277.603" y="-8.5" font-family="Helvetica,sans-Serif" font-size="10.00">OverlayWindowManager.cpp</text>
</a>
</g>
<!-- Node24&#45;&gt;Node26 -->
<g id="edge62" class="edge"><title>Node24&#45;&gt;Node26</title>
<path fill="none" stroke="midnightblue" d="M397.491,-55.0095C369.413,-44.7023 331.822,-30.903 306.269,-21.5231"/>
<polygon fill="midnightblue" stroke="midnightblue" points="396.397,-58.3362 406.991,-58.4966 398.809,-51.7649 396.397,-58.3362"/>
</g>
<!-- Node27 -->
<g id="node59" class="node"><title>Node27</title>
<a xlink:href="WindowServerLuna_8cpp.htm" target="_top" xlink:title="WindowServerLuna.cpp">
<polygon fill="white" stroke="black" points="371.603,-0.5 371.603,-21.5 499.603,-21.5 499.603,-0.5 371.603,-0.5"/>
<text text-anchor="middle" x="435.603" y="-8.5" font-family="Helvetica,sans-Serif" font-size="10.00">WindowServerLuna.cpp</text>
</a>
</g>
<!-- Node24&#45;&gt;Node27 -->
<g id="edge64" class="edge"><title>Node24&#45;&gt;Node27</title>
<path fill="none" stroke="midnightblue" d="M435.603,-48.1906C435.603,-39.1684 435.603,-28.9941 435.603,-21.5707"/>
<polygon fill="midnightblue" stroke="midnightblue" points="432.103,-48.3619 435.603,-58.3619 439.103,-48.3619 432.103,-48.3619"/>
</g>
</g>
</svg>
