<?xml version="1.0" encoding="UTF-8" standalone="no"?>
<!DOCTYPE svg PUBLIC "-//W3C//DTD SVG 1.1//EN"
 "http://www.w3.org/Graphics/SVG/1.1/DTD/svg11.dtd">
<!-- Generated by graphviz version 2.26.3 (20100126.1600)
 -->
<!-- Title: StatusBarNotificationArea.h Pages: 1 -->
<svg width="264pt" height="88pt"
 viewBox="0.00 0.00 264.00 88.00" xmlns="http://www.w3.org/2000/svg" xmlns:xlink="http://www.w3.org/1999/xlink">
<g id="graph1" class="graph" transform="scale(1 1) rotate(0) translate(4 84)">
<title>StatusBarNotificationArea.h</title>
<polygon fill="white" stroke="white" points="-4,5 -4,-84 261,-84 261,5 -4,5"/>
<!-- Node1 -->
<g id="node1" class="node"><title>Node1</title>
<polygon fill="#bfbfbf" stroke="black" points="36,-58.5 36,-79.5 182,-79.5 182,-58.5 36,-58.5"/>
<text text-anchor="middle" x="109" y="-66.5" font-family="Helvetica,sans-Serif" font-size="10.00">StatusBarNotificationArea.h</text>
</g>
<!-- Node2 -->
<g id="node3" class="node"><title>Node2</title>
<a xlink:href="StatusBar_8cpp.htm" target="_top" xlink:title="StatusBar.cpp">
<polygon fill="white" stroke="black" points="0,-0.5 0,-21.5 82,-21.5 82,-0.5 0,-0.5"/>
<text text-anchor="middle" x="41" y="-8.5" font-family="Helvetica,sans-Serif" font-size="10.00">StatusBar.cpp</text>
</a>
</g>
<!-- Node1&#45;&gt;Node2 -->
<g id="edge2" class="edge"><title>Node1&#45;&gt;Node2</title>
<path fill="none" stroke="midnightblue" d="M88.7064,-51.6908C77.2271,-41.8996 63.2442,-29.973 53.3932,-21.5707"/>
<polygon fill="midnightblue" stroke="midnightblue" points="86.6481,-54.5353 96.5278,-58.3619 91.1907,-49.2095 86.6481,-54.5353"/>
</g>
<!-- Node3 -->
<g id="node5" class="node"><title>Node3</title>
<a xlink:href="StatusBarNotificationArea_8cpp.htm" target="_top" xlink:title="StatusBarNotificationArea.cpp">
<polygon fill="white" stroke="black" points="99.5,-0.5 99.5,-21.5 256.5,-21.5 256.5,-0.5 99.5,-0.5"/>
<text text-anchor="middle" x="178" y="-8.5" font-family="Helvetica,sans-Serif" font-size="10.00">StatusBarNotificationArea.cpp</text>
</a>
</g>
<!-- Node1&#45;&gt;Node3 -->
<g id="edge4" class="edge"><title>Node1&#45;&gt;Node3</title>
<path fill="none" stroke="midnightblue" d="M129.592,-51.6908C141.24,-41.8996 155.429,-29.973 165.425,-21.5707"/>
<polygon fill="midnightblue" stroke="midnightblue" points="127.058,-49.2481 121.656,-58.3619 131.563,-54.6066 127.058,-49.2481"/>
</g>
</g>
</svg>
