<?xml version="1.0" encoding="UTF-8" standalone="no"?>
<!DOCTYPE svg PUBLIC "-//W3C//DTD SVG 1.1//EN"
 "http://www.w3.org/Graphics/SVG/1.1/DTD/svg11.dtd">
<!-- Generated by graphviz version 2.26.3 (20100126.1600)
 -->
<!-- Title: StatusBarItemGroup.h Pages: 1 -->
<svg width="746pt" height="262pt"
 viewBox="0.00 0.00 746.00 262.00" xmlns="http://www.w3.org/2000/svg" xmlns:xlink="http://www.w3.org/1999/xlink">
<g id="graph1" class="graph" transform="scale(1 1) rotate(0) translate(4 258)">
<title>StatusBarItemGroup.h</title>
<polygon fill="white" stroke="white" points="-4,5 -4,-258 743,-258 743,5 -4,5"/>
<!-- Node1 -->
<g id="node1" class="node"><title>Node1</title>
<polygon fill="#bfbfbf" stroke="black" points="299,-232.5 299,-253.5 419,-253.5 419,-232.5 299,-232.5"/>
<text text-anchor="middle" x="359" y="-240.5" font-family="Helvetica,sans-Serif" font-size="10.00">StatusBarItemGroup.h</text>
</g>
<!-- Node2 -->
<g id="node3" class="node"><title>Node2</title>
<a xlink:href="StatusBar_8h.htm" target="_top" xlink:title="StatusBar.h">
<polygon fill="white" stroke="black" points="241.5,-116.5 241.5,-137.5 312.5,-137.5 312.5,-116.5 241.5,-116.5"/>
<text text-anchor="middle" x="277" y="-124.5" font-family="Helvetica,sans-Serif" font-size="10.00">StatusBar.h</text>
</a>
</g>
<!-- Node1&#45;&gt;Node2 -->
<g id="edge2" class="edge"><title>Node1&#45;&gt;Node2</title>
<path fill="none" stroke="midnightblue" d="M310.867,-232.426C291.281,-225.501 270.568,-214.219 259,-196 249.419,-180.911 256.37,-160.895 264.253,-146.309"/>
<polygon fill="midnightblue" stroke="midnightblue" points="267.318,-148.002 269.404,-137.614 261.296,-144.434 267.318,-148.002"/>
</g>
<!-- Node11 -->
<g id="node21" class="node"><title>Node11</title>
<polygon fill="white" stroke="#bfbfbf" points="32.5,-58.5 32.5,-79.5 91.5,-79.5 91.5,-58.5 32.5,-58.5"/>
<text text-anchor="middle" x="62" y="-66.5" font-family="Helvetica,sans-Serif" font-size="10.00">QPointer</text>
</g>
<!-- Node1&#45;&gt;Node11 -->
<g id="edge40" class="edge"><title>Node1&#45;&gt;Node11</title>
<path fill="none" stroke="midnightblue" d="M330.541,-232.423C308.137,-223.697 276.395,-210.441 250,-196 187.194,-161.639 118.803,-112.051 84.4171,-86.1788"/>
<polygon fill="midnightblue" stroke="midnightblue" points="86.1275,-83.0838 76.0418,-79.8389 81.9026,-88.6651 86.1275,-83.0838"/>
</g>
<!-- Node15 -->
<g id="node31" class="node"><title>Node15</title>
<a xlink:href="StatusBarItem_8h.htm" target="_top" xlink:title="StatusBarItem.h">
<polygon fill="white" stroke="black" points="267.5,-174.5 267.5,-195.5 358.5,-195.5 358.5,-174.5 267.5,-174.5"/>
<text text-anchor="middle" x="313" y="-182.5" font-family="Helvetica,sans-Serif" font-size="10.00">StatusBarItem.h</text>
</a>
</g>
<!-- Node1&#45;&gt;Node15 -->
<g id="edge32" class="edge"><title>Node1&#45;&gt;Node15</title>
<path fill="none" stroke="midnightblue" d="M350.563,-232.362C344.208,-224.35 335.334,-213.161 327.807,-203.67"/>
<polygon fill="midnightblue" stroke="midnightblue" points="330.34,-201.231 321.384,-195.571 324.855,-205.581 330.34,-201.231"/>
</g>
<!-- Node16 -->
<g id="node35" class="node"><title>Node16</title>
<polygon fill="white" stroke="#bfbfbf" points="375.5,-174.5 375.5,-195.5 434.5,-195.5 434.5,-174.5 375.5,-174.5"/>
<text text-anchor="middle" x="405" y="-182.5" font-family="Helvetica,sans-Serif" font-size="10.00">QPixmap</text>
</g>
<!-- Node1&#45;&gt;Node16 -->
<g id="edge38" class="edge"><title>Node1&#45;&gt;Node16</title>
<path fill="none" stroke="midnightblue" d="M367.437,-232.362C373.792,-224.35 382.666,-213.161 390.193,-203.67"/>
<polygon fill="midnightblue" stroke="midnightblue" points="393.145,-205.581 396.616,-195.571 387.66,-201.231 393.145,-205.581"/>
</g>
<!-- Node17 -->
<g id="node38" class="node"><title>Node17</title>
<polygon fill="white" stroke="#bfbfbf" points="452,-174.5 452,-195.5 564,-195.5 564,-174.5 452,-174.5"/>
<text text-anchor="middle" x="508" y="-182.5" font-family="Helvetica,sans-Serif" font-size="10.00">QPropertyAnimation</text>
</g>
<!-- Node1&#45;&gt;Node17 -->
<g id="edge42" class="edge"><title>Node1&#45;&gt;Node17</title>
<path fill="none" stroke="midnightblue" d="M385.983,-232.497C409.853,-223.205 444.894,-209.565 471.307,-199.283"/>
<polygon fill="midnightblue" stroke="midnightblue" points="472.917,-202.412 480.967,-195.523 470.378,-195.889 472.917,-202.412"/>
</g>
<!-- Node18 -->
<g id="node40" class="node"><title>Node18</title>
<polygon fill="white" stroke="#bfbfbf" points="582,-174.5 582,-195.5 738,-195.5 738,-174.5 582,-174.5"/>
<text text-anchor="middle" x="660" y="-182.5" font-family="Helvetica,sans-Serif" font-size="10.00">QGraphicsSceneMouseEvent</text>
</g>
<!-- Node1&#45;&gt;Node18 -->
<g id="edge44" class="edge"><title>Node1&#45;&gt;Node18</title>
<path fill="none" stroke="midnightblue" d="M413.509,-232.497C464.704,-222.632 541.334,-207.866 595.54,-197.421"/>
<polygon fill="midnightblue" stroke="midnightblue" points="596.232,-200.852 605.389,-195.523 594.907,-193.978 596.232,-200.852"/>
</g>
<!-- Node3 -->
<g id="node5" class="node"><title>Node3</title>
<a xlink:href="Window_8h.htm" target="_top" xlink:title="Window.h">
<polygon fill="white" stroke="black" points="341,-58.5 341,-79.5 403,-79.5 403,-58.5 341,-58.5"/>
<text text-anchor="middle" x="372" y="-66.5" font-family="Helvetica,sans-Serif" font-size="10.00">Window.h</text>
</a>
</g>
<!-- Node2&#45;&gt;Node3 -->
<g id="edge4" class="edge"><title>Node2&#45;&gt;Node3</title>
<path fill="none" stroke="midnightblue" d="M294.424,-116.362C308.887,-107.532 329.669,-94.844 346.084,-84.8224"/>
<polygon fill="midnightblue" stroke="midnightblue" points="347.975,-87.7688 354.686,-79.5707 344.327,-81.7943 347.975,-87.7688"/>
</g>
<!-- Node9 -->
<g id="node17" class="node"><title>Node9</title>
<polygon fill="white" stroke="#bfbfbf" points="564,-0.5 564,-21.5 662,-21.5 662,-0.5 564,-0.5"/>
<text text-anchor="middle" x="613" y="-8.5" font-family="Helvetica,sans-Serif" font-size="10.00">QGraphicsObject</text>
</g>
<!-- Node2&#45;&gt;Node9 -->
<g id="edge22" class="edge"><title>Node2&#45;&gt;Node9</title>
<path fill="none" stroke="midnightblue" d="M307.708,-116.398C368.7,-95.3416 505.065,-48.2632 572.978,-24.817"/>
<polygon fill="midnightblue" stroke="midnightblue" points="574.174,-28.107 582.484,-21.5352 571.89,-21.4902 574.174,-28.107"/>
</g>
<!-- Node2&#45;&gt;Node11 -->
<g id="edge20" class="edge"><title>Node2&#45;&gt;Node11</title>
<path fill="none" stroke="midnightblue" d="M241.34,-117.779C207.576,-108.994 155.22,-95.2295 101.534,-80.3927"/>
<polygon fill="midnightblue" stroke="midnightblue" points="102.425,-77.0077 91.8529,-77.7095 100.555,-83.7534 102.425,-77.0077"/>
</g>
<!-- Node12 -->
<g id="node24" class="node"><title>Node12</title>
<a xlink:href="VariantAnimation_8h.htm" target="_top" xlink:title="VariantAnimation.h">
<polygon fill="white" stroke="black" points="108.5,-58.5 108.5,-79.5 213.5,-79.5 213.5,-58.5 108.5,-58.5"/>
<text text-anchor="middle" x="161" y="-66.5" font-family="Helvetica,sans-Serif" font-size="10.00">VariantAnimation.h</text>
</a>
</g>
<!-- Node2&#45;&gt;Node12 -->
<g id="edge24" class="edge"><title>Node2&#45;&gt;Node12</title>
<path fill="none" stroke="midnightblue" d="M255.993,-116.497C237.957,-107.479 211.73,-94.3649 191.401,-84.2006"/>
<polygon fill="midnightblue" stroke="midnightblue" points="192.752,-80.9629 182.242,-79.6212 189.621,-87.2239 192.752,-80.9629"/>
</g>
<!-- Node14 -->
<g id="node29" class="node"><title>Node14</title>
<polygon fill="white" stroke="#bfbfbf" points="231,-58.5 231,-79.5 323,-79.5 323,-58.5 231,-58.5"/>
<text text-anchor="middle" x="277" y="-66.5" font-family="Helvetica,sans-Serif" font-size="10.00">CustomEvents.h</text>
</g>
<!-- Node2&#45;&gt;Node14 -->
<g id="edge30" class="edge"><title>Node2&#45;&gt;Node14</title>
<path fill="none" stroke="midnightblue" d="M277,-116.362C277,-108.922 277,-98.7427 277,-89.7276"/>
<polygon fill="midnightblue" stroke="midnightblue" points="280.5,-89.5706 277,-79.5707 273.5,-89.5707 280.5,-89.5706"/>
</g>
<!-- Node4 -->
<g id="node7" class="node"><title>Node4</title>
<polygon fill="white" stroke="#bfbfbf" points="121.5,-0.5 121.5,-21.5 188.5,-21.5 188.5,-0.5 121.5,-0.5"/>
<text text-anchor="middle" x="155" y="-8.5" font-family="Helvetica,sans-Serif" font-size="10.00">Common.h</text>
</g>
<!-- Node3&#45;&gt;Node4 -->
<g id="edge6" class="edge"><title>Node3&#45;&gt;Node4</title>
<path fill="none" stroke="midnightblue" d="M340.998,-60.4456C337.959,-59.6155 334.92,-58.7892 332,-58 286.605,-45.7315 234.584,-31.9513 198.745,-22.5011"/>
<polygon fill="midnightblue" stroke="midnightblue" points="199.188,-18.9985 188.626,-19.8347 197.404,-25.7674 199.188,-18.9985"/>
</g>
<!-- Node5 -->
<g id="node9" class="node"><title>Node5</title>
<polygon fill="white" stroke="#bfbfbf" points="326,-0.5 326,-21.5 418,-21.5 418,-0.5 326,-0.5"/>
<text text-anchor="middle" x="372" y="-8.5" font-family="Helvetica,sans-Serif" font-size="10.00">WindowTypes.h</text>
</g>
<!-- Node3&#45;&gt;Node5 -->
<g id="edge8" class="edge"><title>Node3&#45;&gt;Node5</title>
<path fill="none" stroke="midnightblue" d="M372,-58.3619C372,-50.9219 372,-40.7427 372,-31.7276"/>
<polygon fill="midnightblue" stroke="midnightblue" points="375.5,-31.5706 372,-21.5707 368.5,-31.5707 375.5,-31.5706"/>
</g>
<!-- Node6 -->
<g id="node11" class="node"><title>Node6</title>
<polygon fill="white" stroke="#bfbfbf" points="436,-0.5 436,-21.5 486,-21.5 486,-0.5 436,-0.5"/>
<text text-anchor="middle" x="461" y="-8.5" font-family="Helvetica,sans-Serif" font-size="10.00">stdint.h</text>
</g>
<!-- Node3&#45;&gt;Node6 -->
<g id="edge10" class="edge"><title>Node3&#45;&gt;Node6</title>
<path fill="none" stroke="midnightblue" d="M388.324,-58.3619C401.748,-49.6138 420.983,-37.0786 436.293,-27.1015"/>
<polygon fill="midnightblue" stroke="midnightblue" points="438.312,-29.9628 444.78,-21.5707 434.491,-24.0982 438.312,-29.9628"/>
</g>
<!-- Node7 -->
<g id="node13" class="node"><title>Node7</title>
<polygon fill="white" stroke="#bfbfbf" points="503.5,-0.5 503.5,-21.5 546.5,-21.5 546.5,-0.5 503.5,-0.5"/>
<text text-anchor="middle" x="525" y="-8.5" font-family="Helvetica,sans-Serif" font-size="10.00">string</text>
</g>
<!-- Node3&#45;&gt;Node7 -->
<g id="edge12" class="edge"><title>Node3&#45;&gt;Node7</title>
<path fill="none" stroke="midnightblue" d="M399.707,-58.4966C426.244,-48.437 466.224,-33.2811 493.853,-22.8075"/>
<polygon fill="midnightblue" stroke="midnightblue" points="495.315,-25.9963 503.425,-19.1788 492.833,-19.4508 495.315,-25.9963"/>
</g>
<!-- Node8 -->
<g id="node15" class="node"><title>Node8</title>
<polygon fill="white" stroke="#bfbfbf" points="205.5,-0.5 205.5,-21.5 246.5,-21.5 246.5,-0.5 205.5,-0.5"/>
<text text-anchor="middle" x="226" y="-8.5" font-family="Helvetica,sans-Serif" font-size="10.00">glib.h</text>
</g>
<!-- Node3&#45;&gt;Node8 -->
<g id="edge14" class="edge"><title>Node3&#45;&gt;Node8</title>
<path fill="none" stroke="midnightblue" d="M345.561,-58.4966C320.349,-48.4811 282.421,-33.414 256.07,-22.9456"/>
<polygon fill="midnightblue" stroke="midnightblue" points="257.174,-19.6181 246.588,-19.1788 254.589,-26.1236 257.174,-19.6181"/>
</g>
<!-- Node3&#45;&gt;Node9 -->
<g id="edge16" class="edge"><title>Node3&#45;&gt;Node9</title>
<path fill="none" stroke="midnightblue" d="M403.013,-61.5363C442.417,-52.0531 511.069,-35.5311 559.116,-23.968"/>
<polygon fill="midnightblue" stroke="midnightblue" points="560.134,-27.3229 569.038,-21.5801 558.496,-20.5172 560.134,-27.3229"/>
</g>
<!-- Node10 -->
<g id="node19" class="node"><title>Node10</title>
<polygon fill="white" stroke="#bfbfbf" points="263.5,-0.5 263.5,-21.5 308.5,-21.5 308.5,-0.5 263.5,-0.5"/>
<text text-anchor="middle" x="286" y="-8.5" font-family="Helvetica,sans-Serif" font-size="10.00">QSize</text>
</g>
<!-- Node3&#45;&gt;Node10 -->
<g id="edge18" class="edge"><title>Node3&#45;&gt;Node10</title>
<path fill="none" stroke="midnightblue" d="M356.226,-58.3619C343.376,-49.6955 325.015,-37.3126 310.29,-27.3819"/>
<polygon fill="midnightblue" stroke="midnightblue" points="311.921,-24.2604 301.674,-21.5707 308.007,-30.0639 311.921,-24.2604"/>
</g>
<!-- Node12&#45;&gt;Node4 -->
<g id="edge26" class="edge"><title>Node12&#45;&gt;Node4</title>
<path fill="none" stroke="midnightblue" d="M159.9,-58.3619C159.13,-50.9219 158.077,-40.7427 157.144,-31.7276"/>
<polygon fill="midnightblue" stroke="midnightblue" points="160.604,-31.1574 156.094,-21.5707 153.641,-31.8777 160.604,-31.1574"/>
</g>
<!-- Node13 -->
<g id="node27" class="node"><title>Node13</title>
<polygon fill="white" stroke="#bfbfbf" points="-0.5,-0.5 -0.5,-21.5 104.5,-21.5 104.5,-0.5 -0.5,-0.5"/>
<text text-anchor="middle" x="52" y="-8.5" font-family="Helvetica,sans-Serif" font-size="10.00">QVariantAnimation</text>
</g>
<!-- Node12&#45;&gt;Node13 -->
<g id="edge28" class="edge"><title>Node12&#45;&gt;Node13</title>
<path fill="none" stroke="midnightblue" d="M141.261,-58.4966C124.39,-49.5194 99.8915,-36.4835 80.8262,-26.3387"/>
<polygon fill="midnightblue" stroke="midnightblue" points="82.4327,-23.2289 71.9606,-21.6212 79.1445,-29.4086 82.4327,-23.2289"/>
</g>
<!-- Node15&#45;&gt;Node2 -->
<g id="edge34" class="edge"><title>Node15&#45;&gt;Node2</title>
<path fill="none" stroke="midnightblue" d="M306.397,-174.362C301.525,-166.513 294.762,-155.616 288.95,-146.253"/>
<polygon fill="midnightblue" stroke="midnightblue" points="291.809,-144.221 283.561,-137.571 285.861,-147.913 291.809,-144.221"/>
</g>
<!-- Node15&#45;&gt;Node9 -->
<g id="edge36" class="edge"><title>Node15&#45;&gt;Node9</title>
<path fill="none" stroke="midnightblue" d="M331.315,-174.377C382.153,-144.891 525.233,-61.9048 585.593,-26.8959"/>
<polygon fill="midnightblue" stroke="midnightblue" points="587.649,-29.7495 594.544,-21.7046 584.137,-23.6942 587.649,-29.7495"/>
</g>
</g>
</svg>
