<?xml version="1.0" encoding="UTF-8" standalone="no"?>
<!DOCTYPE svg PUBLIC "-//W3C//DTD SVG 1.1//EN"
 "http://www.w3.org/Graphics/SVG/1.1/DTD/svg11.dtd">
<!-- Generated by graphviz version 2.26.3 (20100126.1600)
 -->
<!-- Title: CardWindow::ModalWindowPlacementInfo Pages: 1 -->
<svg width="486pt" height="192pt"
 viewBox="0.00 0.00 486.00 192.00" xmlns="http://www.w3.org/2000/svg" xmlns:xlink="http://www.w3.org/1999/xlink">
<g id="graph1" class="graph" transform="scale(1 1) rotate(0) translate(4 188)">
<title>CardWindow::ModalWindowPlacementInfo</title>
<polygon fill="white" stroke="white" points="-4,5 -4,-188 483,-188 483,5 -4,5"/>
<!-- Node1 -->
<g id="node1" class="node"><title>Node1</title>
<polygon fill="#bfbfbf" stroke="black" points="93,-0.5 93,-21.5 309,-21.5 309,-0.5 93,-0.5"/>
<text text-anchor="middle" x="201" y="-8.5" font-family="Helvetica,sans-Serif" font-size="10.00">CardWindow::ModalWindowPlacementInfo</text>
</g>
<!-- Node2 -->
<g id="node2" class="node"><title>Node2</title>
<polygon fill="white" stroke="#bfbfbf" points="0,-162.5 0,-183.5 126,-183.5 126,-162.5 0,-162.5"/>
<text text-anchor="middle" x="63" y="-170.5" font-family="Helvetica,sans-Serif" font-size="10.00">ModalCardResizeState</text>
</g>
<!-- Node2&#45;&gt;Node1 -->
<g id="edge2" class="edge"><title>Node2&#45;&gt;Node1</title>
<path fill="none" stroke="#9a32cd" stroke-dasharray="5,2" d="M59.4672,-152.207C55.8205,-123.23 54.0509,-70.8051 82,-40 89.0728,-32.2045 108.472,-26.1014 129.606,-21.5474"/>
<polygon fill="#9a32cd" stroke="#9a32cd" points="56.0474,-153.011 60.9536,-162.401 62.9741,-152.001 56.0474,-153.011"/>
<text text-anchor="middle" x="139.5" y="-89.5" font-family="Helvetica,sans-Serif" font-size="10.00"> m_ModalCardResizeInf</text>
</g>
<!-- Node3 -->
<g id="node4" class="node"><title>Node3</title>
<a xlink:href="classint.htm" target="_top" xlink:title="int">
<polygon fill="white" stroke="black" points="186.5,-162.5 186.5,-183.5 215.5,-183.5 215.5,-162.5 186.5,-162.5"/>
<text text-anchor="middle" x="201" y="-170.5" font-family="Helvetica,sans-Serif" font-size="10.00">int</text>
</a>
</g>
<!-- Node3&#45;&gt;Node1 -->
<g id="edge4" class="edge"><title>Node3&#45;&gt;Node1</title>
<path fill="none" stroke="#9a32cd" stroke-dasharray="5,2" d="M201,-151.938C201,-117.044 201,-48.457 201,-21.8808"/>
<polygon fill="#9a32cd" stroke="#9a32cd" points="197.5,-152.371 201,-162.371 204.5,-152.371 197.5,-152.371"/>
<text text-anchor="middle" x="270" y="-135" font-family="Helvetica,sans-Serif" font-size="10.00"> m_originalY</text>
<text text-anchor="middle" x="270" y="-122" font-family="Helvetica,sans-Serif" font-size="10.00">m_cardMoveDelataUnsigned</text>
<text text-anchor="start" x="201" y="-109" font-family="Helvetica,sans-Serif" font-size="10.00">m_positiveSpaceThreshold</text>
<text text-anchor="middle" x="270" y="-96" font-family="Helvetica,sans-Serif" font-size="10.00">_Below</text>
<text text-anchor="middle" x="270" y="-83" font-family="Helvetica,sans-Serif" font-size="10.00">m_cardMoveDelta</text>
<text text-anchor="start" x="201" y="-70" font-family="Helvetica,sans-Serif" font-size="10.00">m_positiveSpaceThreshold</text>
<text text-anchor="middle" x="270" y="-57" font-family="Helvetica,sans-Serif" font-size="10.00">_Above</text>
<text text-anchor="middle" x="270" y="-44" font-family="Helvetica,sans-Serif" font-size="10.00">m_negativeSpaceConsumed</text>
</g>
<!-- Node4 -->
<g id="node6" class="node"><title>Node4</title>
<polygon fill="white" stroke="#bfbfbf" points="344,-162.5 344,-183.5 380,-183.5 380,-162.5 344,-162.5"/>
<text text-anchor="middle" x="362" y="-170.5" font-family="Helvetica,sans-Serif" font-size="10.00">bool</text>
</g>
<!-- Node4&#45;&gt;Node1 -->
<g id="edge6" class="edge"><title>Node4&#45;&gt;Node1</title>
<path fill="none" stroke="#9a32cd" stroke-dasharray="5,2" d="M365.132,-152.018C368.206,-122.815 368.889,-70.1214 340,-40 332.236,-31.9049 312.428,-25.9006 290.12,-21.5234"/>
<polygon fill="#9a32cd" stroke="#9a32cd" points="361.614,-151.94 363.844,-162.298 368.56,-152.81 361.614,-151.94"/>
<text text-anchor="middle" x="422" y="-96" font-family="Helvetica,sans-Serif" font-size="10.00"> m_IsAnimating</text>
<text text-anchor="middle" x="422" y="-83" font-family="Helvetica,sans-Serif" font-size="10.00">m_centerModalWindow</text>
</g>
</g>
</svg>
