<?xml version="1.0" encoding="UTF-8" standalone="no"?>
<!DOCTYPE svg PUBLIC "-//W3C//DTD SVG 1.1//EN"
 "http://www.w3.org/Graphics/SVG/1.1/DTD/svg11.dtd">
<!-- Generated by graphviz version 2.26.3 (20100126.1600)
 -->
<!-- Title: BluetoothDevice Pages: 1 -->
<svg width="249pt" height="128pt"
 viewBox="0.00 0.00 249.00 128.00" xmlns="http://www.w3.org/2000/svg" xmlns:xlink="http://www.w3.org/1999/xlink">
<g id="graph1" class="graph" transform="scale(1 1) rotate(0) translate(4 124)">
<title>BluetoothDevice</title>
<polygon fill="white" stroke="white" points="-4,5 -4,-124 246,-124 246,5 -4,5"/>
<!-- Node1 -->
<g id="node1" class="node"><title>Node1</title>
<polygon fill="#bfbfbf" stroke="black" points="72.5,-0.5 72.5,-21.5 165.5,-21.5 165.5,-0.5 72.5,-0.5"/>
<text text-anchor="middle" x="119" y="-8.5" font-family="Helvetica,sans-Serif" font-size="10.00">BluetoothDevice</text>
</g>
<!-- Node2 -->
<g id="node2" class="node"><title>Node2</title>
<polygon fill="white" stroke="#bfbfbf" points="0,-98.5 0,-119.5 38,-119.5 38,-98.5 0,-98.5"/>
<text text-anchor="middle" x="19" y="-106.5" font-family="Helvetica,sans-Serif" font-size="10.00">char</text>
</g>
<!-- Node2&#45;&gt;Node1 -->
<g id="edge2" class="edge"><title>Node2&#45;&gt;Node1</title>
<path fill="none" stroke="#9a32cd" stroke-dasharray="5,2" d="M19.7669,-88.2253C21.3895,-73.0954 25.897,-53.0479 38,-40 47.0405,-30.2537 59.585,-23.7791 72.1046,-19.4793"/>
<polygon fill="#9a32cd" stroke="#9a32cd" points="16.2762,-87.9713 19.0279,-98.2026 23.2571,-88.4885 16.2762,-87.9713"/>
<text text-anchor="middle" x="76.5" y="-70.5" font-family="Helvetica,sans-Serif" font-size="10.00"> btAddress</text>
<text text-anchor="middle" x="76.5" y="-57.5" font-family="Helvetica,sans-Serif" font-size="10.00">connectionState</text>
<text text-anchor="middle" x="76.5" y="-44.5" font-family="Helvetica,sans-Serif" font-size="10.00">displayName</text>
</g>
<!-- Node3 -->
<g id="node4" class="node"><title>Node3</title>
<a xlink:href="classint.htm" target="_top" xlink:title="int">
<polygon fill="white" stroke="black" points="104.5,-98.5 104.5,-119.5 133.5,-119.5 133.5,-98.5 104.5,-98.5"/>
<text text-anchor="middle" x="119" y="-106.5" font-family="Helvetica,sans-Serif" font-size="10.00">int</text>
</a>
</g>
<!-- Node3&#45;&gt;Node1 -->
<g id="edge4" class="edge"><title>Node3&#45;&gt;Node1</title>
<path fill="none" stroke="#9a32cd" stroke-dasharray="5,2" d="M119,-87.9567C119,-67.5572 119,-37.4427 119,-21.6129"/>
<polygon fill="#9a32cd" stroke="#9a32cd" points="115.5,-88.1378 119,-98.1378 122.5,-88.1379 115.5,-88.1378"/>
<text text-anchor="middle" x="129.5" y="-57.5" font-family="Helvetica,sans-Serif" font-size="10.00"> cod</text>
</g>
<!-- Node4 -->
<g id="node6" class="node"><title>Node4</title>
<polygon fill="white" stroke="#bfbfbf" points="151,-98.5 151,-119.5 187,-119.5 187,-98.5 151,-98.5"/>
<text text-anchor="middle" x="169" y="-106.5" font-family="Helvetica,sans-Serif" font-size="10.00">bool</text>
</g>
<!-- Node4&#45;&gt;Node1 -->
<g id="edge6" class="edge"><title>Node4&#45;&gt;Node1</title>
<path fill="none" stroke="#9a32cd" stroke-dasharray="5,2" d="M163.682,-88.4088C159.515,-74.2193 152.924,-55.2469 144,-40 140.105,-33.3452 134.607,-26.767 129.758,-21.5623"/>
<polygon fill="#9a32cd" stroke="#9a32cd" points="160.349,-89.4861 166.395,-98.1863 167.094,-87.6145 160.349,-89.4861"/>
<text text-anchor="middle" x="201" y="-57.5" font-family="Helvetica,sans-Serif" font-size="10.00"> showConnected</text>
</g>
</g>
</svg>
