<?xml version="1.0" encoding="UTF-8" standalone="no"?>
<!DOCTYPE svg PUBLIC "-//W3C//DTD SVG 1.1//EN"
 "http://www.w3.org/Graphics/SVG/1.1/DTD/svg11.dtd">
<!-- Generated by graphviz version 2.26.3 (20100126.1600)
 -->
<!-- Title: CircularBuffer&lt; T &gt;::Sample Pages: 1 -->
<svg width="112pt" height="116pt"
 viewBox="0.00 0.00 112.00 116.00" xmlns="http://www.w3.org/2000/svg" xmlns:xlink="http://www.w3.org/1999/xlink">
<g id="graph1" class="graph" transform="scale(1 1) rotate(0) translate(4 112)">
<title>CircularBuffer&lt; T &gt;::Sample</title>
<polygon fill="white" stroke="white" points="-4,5 -4,-112 109,-112 109,5 -4,5"/>
<!-- Node1 -->
<g id="node1" class="node"><title>Node1</title>
<polygon fill="#bfbfbf" stroke="black" points="-0.5,-1 -0.5,-35 104.5,-35 104.5,-1 -0.5,-1"/>
<text text-anchor="start" x="7.5" y="-22" font-family="Helvetica,sans-Serif" font-size="10.00">CircularBuffer&lt; T &gt;</text>
<text text-anchor="middle" x="52" y="-9" font-family="Helvetica,sans-Serif" font-size="10.00">::Sample</text>
</g>
<!-- Node2 -->
<g id="node2" class="node"><title>Node2</title>
<a xlink:href="classint.htm" target="_top" xlink:title="int">
<polygon fill="white" stroke="black" points="12.5,-86.5 12.5,-107.5 41.5,-107.5 41.5,-86.5 12.5,-86.5"/>
<text text-anchor="middle" x="27" y="-94.5" font-family="Helvetica,sans-Serif" font-size="10.00">int</text>
</a>
</g>
<!-- Node2&#45;&gt;Node1 -->
<g id="edge2" class="edge"><title>Node2&#45;&gt;Node1</title>
<path fill="none" stroke="#9a32cd" stroke-dasharray="5,2" d="M25.1579,-76.406C25.1141,-69.1769 25.7619,-61.0934 28,-54 30.0794,-47.4096 33.7638,-40.9066 37.6311,-35.2794"/>
<polygon fill="#9a32cd" stroke="#9a32cd" points="21.666,-76.6608 25.6389,-86.4825 28.658,-76.327 21.666,-76.6608"/>
<text text-anchor="middle" x="41.5" y="-58.5" font-family="Helvetica,sans-Serif" font-size="10.00"> Time</text>
</g>
<!-- Node3 -->
<g id="node4" class="node"><title>Node3</title>
<polygon fill="white" stroke="#bfbfbf" points="62.5,-86.5 62.5,-107.5 91.5,-107.5 91.5,-86.5 62.5,-86.5"/>
<text text-anchor="middle" x="77" y="-94.5" font-family="Helvetica,sans-Serif" font-size="10.00">T</text>
</g>
<!-- Node3&#45;&gt;Node1 -->
<g id="edge4" class="edge"><title>Node3&#45;&gt;Node1</title>
<path fill="none" stroke="#9a32cd" stroke-dasharray="5,2" d="M70.528,-76.5486C66.4592,-63.691 61.2699,-47.293 57.4189,-35.1236"/>
<polygon fill="#9a32cd" stroke="#9a32cd" points="67.2743,-77.8677 73.6284,-86.3457 73.9481,-75.7557 67.2743,-77.8677"/>
<text text-anchor="middle" x="80" y="-58.5" font-family="Helvetica,sans-Serif" font-size="10.00"> Data</text>
</g>
</g>
</svg>
