<?xml version="1.0" encoding="UTF-8" standalone="no"?>
<!DOCTYPE svg PUBLIC "-//W3C//DTD SVG 1.1//EN"
 "http://www.w3.org/Graphics/SVG/1.1/DTD/svg11.dtd">
<!-- Generated by graphviz version 2.26.3 (20100126.1600)
 -->
<!-- Title: WifiAccessPoint Pages: 1 -->
<svg width="254pt" height="128pt"
 viewBox="0.00 0.00 254.00 128.00" xmlns="http://www.w3.org/2000/svg" xmlns:xlink="http://www.w3.org/1999/xlink">
<g id="graph1" class="graph" transform="scale(1 1) rotate(0) translate(4 124)">
<title>WifiAccessPoint</title>
<polygon fill="white" stroke="white" points="-4,5 -4,-124 251,-124 251,5 -4,5"/>
<!-- Node1 -->
<g id="node1" class="node"><title>Node1</title>
<polygon fill="#bfbfbf" stroke="black" points="76,-0.5 76,-21.5 168,-21.5 168,-0.5 76,-0.5"/>
<text text-anchor="middle" x="122" y="-8.5" font-family="Helvetica,sans-Serif" font-size="10.00">WifiAccessPoint</text>
</g>
<!-- Node2 -->
<g id="node2" class="node"><title>Node2</title>
<polygon fill="white" stroke="#bfbfbf" points="0,-98.5 0,-119.5 38,-119.5 38,-98.5 0,-98.5"/>
<text text-anchor="middle" x="19" y="-106.5" font-family="Helvetica,sans-Serif" font-size="10.00">char</text>
</g>
<!-- Node2&#45;&gt;Node1 -->
<g id="edge2" class="edge"><title>Node2&#45;&gt;Node1</title>
<path fill="none" stroke="#9a32cd" stroke-dasharray="5,2" d="M19.6971,-88.4399C21.274,-73.2602 25.7546,-53.0517 38,-40 47.9228,-29.4239 61.884,-22.7046 75.58,-18.4358"/>
<polygon fill="#9a32cd" stroke="#9a32cd" points="16.2048,-88.2087 18.9925,-98.4302 23.1874,-88.7012 16.2048,-88.2087"/>
<text text-anchor="middle" x="78" y="-70.5" font-family="Helvetica,sans-Serif" font-size="10.00"> connectionState</text>
<text text-anchor="middle" x="78" y="-57.5" font-family="Helvetica,sans-Serif" font-size="10.00">securityType</text>
<text text-anchor="middle" x="78" y="-44.5" font-family="Helvetica,sans-Serif" font-size="10.00">ssid</text>
</g>
<!-- Node3 -->
<g id="node4" class="node"><title>Node3</title>
<a xlink:href="classint.htm" target="_top" xlink:title="int">
<polygon fill="white" stroke="black" points="107.5,-98.5 107.5,-119.5 136.5,-119.5 136.5,-98.5 107.5,-98.5"/>
<text text-anchor="middle" x="122" y="-106.5" font-family="Helvetica,sans-Serif" font-size="10.00">int</text>
</a>
</g>
<!-- Node3&#45;&gt;Node1 -->
<g id="edge4" class="edge"><title>Node3&#45;&gt;Node1</title>
<path fill="none" stroke="#9a32cd" stroke-dasharray="5,2" d="M122,-87.9567C122,-67.5572 122,-37.4427 122,-21.6129"/>
<polygon fill="#9a32cd" stroke="#9a32cd" points="118.5,-88.1378 122,-98.1378 125.5,-88.1379 118.5,-88.1378"/>
<text text-anchor="middle" x="148.5" y="-64" font-family="Helvetica,sans-Serif" font-size="10.00"> signalBars</text>
<text text-anchor="middle" x="148.5" y="-51" font-family="Helvetica,sans-Serif" font-size="10.00">profileId</text>
</g>
<!-- Node4 -->
<g id="node6" class="node"><title>Node4</title>
<polygon fill="white" stroke="#bfbfbf" points="180,-98.5 180,-119.5 216,-119.5 216,-98.5 180,-98.5"/>
<text text-anchor="middle" x="198" y="-106.5" font-family="Helvetica,sans-Serif" font-size="10.00">bool</text>
</g>
<!-- Node4&#45;&gt;Node1 -->
<g id="edge6" class="edge"><title>Node4&#45;&gt;Node1</title>
<path fill="none" stroke="#9a32cd" stroke-dasharray="5,2" d="M195.577,-88.258C192.919,-73.4167 187.398,-53.7172 176,-40 169.471,-32.1427 160.245,-26.1002 151.263,-21.6164"/>
<polygon fill="#9a32cd" stroke="#9a32cd" points="192.164,-89.1062 197.101,-98.4807 199.088,-88.0739 192.164,-89.1062"/>
<text text-anchor="middle" x="219.5" y="-57.5" font-family="Helvetica,sans-Serif" font-size="10.00"> connected</text>
</g>
</g>
</svg>
