<?xml version="1.0" encoding="UTF-8" standalone="no"?>
<!DOCTYPE svg PUBLIC "-//W3C//DTD SVG 1.1//EN"
 "http://www.w3.org/Graphics/SVG/1.1/DTD/svg11.dtd">
<!-- Generated by graphviz version 2.26.3 (20100126.1600)
 -->
<!-- Title: CardFlipRequest Pages: 1 -->
<svg width="312pt" height="102pt"
 viewBox="0.00 0.00 312.00 102.00" xmlns="http://www.w3.org/2000/svg" xmlns:xlink="http://www.w3.org/1999/xlink">
<g id="graph1" class="graph" transform="scale(1 1) rotate(0) translate(4 98)">
<title>CardFlipRequest</title>
<polygon fill="white" stroke="white" points="-4,5 -4,-98 309,-98 309,5 -4,5"/>
<!-- Node1 -->
<g id="node1" class="node"><title>Node1</title>
<polygon fill="#bfbfbf" stroke="black" points="74.5,-0.5 74.5,-21.5 169.5,-21.5 169.5,-0.5 74.5,-0.5"/>
<text text-anchor="middle" x="122" y="-8.5" font-family="Helvetica,sans-Serif" font-size="10.00">CardFlipRequest</text>
</g>
<!-- Node2 -->
<g id="node2" class="node"><title>Node2</title>
<polygon fill="white" stroke="#bfbfbf" points="0,-72.5 0,-93.5 36,-93.5 36,-72.5 0,-72.5"/>
<text text-anchor="middle" x="18" y="-80.5" font-family="Helvetica,sans-Serif" font-size="10.00">bool</text>
</g>
<!-- Node2&#45;&gt;Node1 -->
<g id="edge2" class="edge"><title>Node2&#45;&gt;Node1</title>
<path fill="none" stroke="#9a32cd" stroke-dasharray="5,2" d="M41.5979,-66.663C61.5098,-52.8778 89.4368,-33.5437 106.591,-21.6674"/>
<polygon fill="#9a32cd" stroke="#9a32cd" points="39.5752,-63.8063 33.3456,-72.3762 43.5597,-69.5617 39.5752,-63.8063"/>
<text text-anchor="middle" x="92.5" y="-44.5" font-family="Helvetica,sans-Serif" font-size="10.00"> sync</text>
</g>
<!-- Node3 -->
<g id="node4" class="node"><title>Node3</title>
<polygon fill="white" stroke="#bfbfbf" points="54,-72.5 54,-93.5 190,-93.5 190,-72.5 54,-72.5"/>
<text text-anchor="middle" x="122" y="-80.5" font-family="Helvetica,sans-Serif" font-size="10.00">QPointer&lt; HostWindow &gt;</text>
</g>
<!-- Node3&#45;&gt;Node1 -->
<g id="edge4" class="edge"><title>Node3&#45;&gt;Node1</title>
<path fill="none" stroke="#9a32cd" stroke-dasharray="5,2" d="M122,-62.2348C122,-48.969 122,-32.3188 122,-21.6674"/>
<polygon fill="#9a32cd" stroke="#9a32cd" points="118.5,-62.3761 122,-72.3762 125.5,-62.3762 118.5,-62.3761"/>
<text text-anchor="middle" x="148" y="-44.5" font-family="Helvetica,sans-Serif" font-size="10.00"> windowPtr</text>
</g>
<!-- Node4 -->
<g id="node6" class="node"><title>Node4</title>
<polygon fill="white" stroke="#bfbfbf" points="207.5,-72.5 207.5,-93.5 254.5,-93.5 254.5,-72.5 207.5,-72.5"/>
<text text-anchor="middle" x="231" y="-80.5" font-family="Helvetica,sans-Serif" font-size="10.00">QRect</text>
</g>
<!-- Node4&#45;&gt;Node1 -->
<g id="edge6" class="edge"><title>Node4&#45;&gt;Node1</title>
<path fill="none" stroke="#9a32cd" stroke-dasharray="5,2" d="M211.49,-65.5704C201.781,-57.3211 189.654,-47.6306 178,-40 167.558,-33.1629 155.311,-26.6643 144.937,-21.5585"/>
<polygon fill="#9a32cd" stroke="#9a32cd" points="209.477,-68.4571 219.326,-72.3608 214.061,-63.1669 209.477,-68.4571"/>
<text text-anchor="middle" x="250" y="-44.5" font-family="Helvetica,sans-Serif" font-size="10.00"> windowScreenBounds</text>
</g>
</g>
</svg>
