<?xml version="1.0" encoding="UTF-8" standalone="no"?>
<!DOCTYPE svg PUBLIC "-//W3C//DTD SVG 1.1//EN"
 "http://www.w3.org/Graphics/SVG/1.1/DTD/svg11.dtd">
<!-- Generated by graphviz version 2.26.3 (20100126.1600)
 -->
<!-- Title: CardWindow::Position Pages: 1 -->
<svg width="137pt" height="102pt"
 viewBox="0.00 0.00 137.00 102.00" xmlns="http://www.w3.org/2000/svg" xmlns:xlink="http://www.w3.org/1999/xlink">
<g id="graph1" class="graph" transform="scale(1 1) rotate(0) translate(4 98)">
<title>CardWindow::Position</title>
<polygon fill="white" stroke="white" points="-4,5 -4,-98 134,-98 134,5 -4,5"/>
<!-- Node1 -->
<g id="node1" class="node"><title>Node1</title>
<polygon fill="#bfbfbf" stroke="black" points="10.5,-0.5 10.5,-21.5 129.5,-21.5 129.5,-0.5 10.5,-0.5"/>
<text text-anchor="middle" x="70" y="-8.5" font-family="Helvetica,sans-Serif" font-size="10.00">CardWindow::Position</text>
</g>
<!-- Node2 -->
<g id="node2" class="node"><title>Node2</title>
<polygon fill="white" stroke="#bfbfbf" points="-0.5,-72.5 -0.5,-93.5 68.5,-93.5 68.5,-72.5 -0.5,-72.5"/>
<text text-anchor="middle" x="34" y="-80.5" font-family="Helvetica,sans-Serif" font-size="10.00">QVector3D</text>
</g>
<!-- Node2&#45;&gt;Node1 -->
<g id="edge2" class="edge"><title>Node2&#45;&gt;Node1</title>
<path fill="none" stroke="#9a32cd" stroke-dasharray="5,2" d="M43.7903,-63.4193C50.5133,-49.9734 59.1808,-32.6384 64.6663,-21.6674"/>
<polygon fill="#9a32cd" stroke="#9a32cd" points="40.6536,-61.8666 39.3119,-72.3762 46.9146,-64.9971 40.6536,-61.8666"/>
<text text-anchor="middle" x="69" y="-44.5" font-family="Helvetica,sans-Serif" font-size="10.00"> trans</text>
</g>
<!-- Node3 -->
<g id="node4" class="node"><title>Node3</title>
<polygon fill="white" stroke="#bfbfbf" points="85.5,-72.5 85.5,-93.5 126.5,-93.5 126.5,-72.5 85.5,-72.5"/>
<text text-anchor="middle" x="106" y="-80.5" font-family="Helvetica,sans-Serif" font-size="10.00">qreal</text>
</g>
<!-- Node3&#45;&gt;Node1 -->
<g id="edge4" class="edge"><title>Node3&#45;&gt;Node1</title>
<path fill="none" stroke="#9a32cd" stroke-dasharray="5,2" d="M96.2097,-63.4193C89.4867,-49.9734 80.8192,-32.6384 75.3337,-21.6674"/>
<polygon fill="#9a32cd" stroke="#9a32cd" points="93.0854,-64.9971 100.688,-72.3762 99.3464,-61.8666 93.0854,-64.9971"/>
<text text-anchor="middle" x="103.5" y="-44.5" font-family="Helvetica,sans-Serif" font-size="10.00"> zRot</text>
</g>
</g>
</svg>
