<?xml version="1.0" encoding="UTF-8" standalone="no"?>
<!DOCTYPE svg PUBLIC "-//W3C//DTD SVG 1.1//EN"
 "http://www.w3.org/Graphics/SVG/1.1/DTD/svg11.dtd">
<!-- Generated by graphviz version 2.26.3 (20100126.1600)
 -->
<!-- Title: ScreenShotParameter Pages: 1 -->
<svg width="208pt" height="102pt"
 viewBox="0.00 0.00 208.00 102.00" xmlns="http://www.w3.org/2000/svg" xmlns:xlink="http://www.w3.org/1999/xlink">
<g id="graph1" class="graph" transform="scale(1 1) rotate(0) translate(4 98)">
<title>ScreenShotParameter</title>
<polygon fill="white" stroke="white" points="-4,5 -4,-98 205,-98 205,5 -4,5"/>
<!-- Node1 -->
<g id="node1" class="node"><title>Node1</title>
<polygon fill="#bfbfbf" stroke="black" points="26,-0.5 26,-21.5 148,-21.5 148,-0.5 26,-0.5"/>
<text text-anchor="middle" x="87" y="-8.5" font-family="Helvetica,sans-Serif" font-size="10.00">ScreenShotParameter</text>
</g>
<!-- Node2 -->
<g id="node2" class="node"><title>Node2</title>
<polygon fill="white" stroke="#bfbfbf" points="-0.5,-72.5 -0.5,-93.5 42.5,-93.5 42.5,-72.5 -0.5,-72.5"/>
<text text-anchor="middle" x="21" y="-80.5" font-family="Helvetica,sans-Serif" font-size="10.00">string</text>
</g>
<!-- Node2&#45;&gt;Node1 -->
<g id="edge2" class="edge"><title>Node2&#45;&gt;Node1</title>
<path fill="none" stroke="#9a32cd" stroke-dasharray="5,2" d="M29.1491,-63.063C32.9278,-55.3193 37.9371,-46.7164 44,-40 50.5163,-32.7814 59.1875,-26.4921 67.0357,-21.6328"/>
<polygon fill="#9a32cd" stroke="#9a32cd" points="25.947,-61.65 25.0342,-72.2055 32.3302,-64.5231 25.947,-61.65"/>
<text text-anchor="middle" x="63.5" y="-44.5" font-family="Helvetica,sans-Serif" font-size="10.00"> filePath</text>
</g>
<!-- Node3 -->
<g id="node4" class="node"><title>Node3</title>
<polygon fill="white" stroke="#bfbfbf" points="60,-72.5 60,-93.5 114,-93.5 114,-72.5 60,-72.5"/>
<text text-anchor="middle" x="87" y="-80.5" font-family="Helvetica,sans-Serif" font-size="10.00">QImage</text>
</g>
<!-- Node3&#45;&gt;Node1 -->
<g id="edge4" class="edge"><title>Node3&#45;&gt;Node1</title>
<path fill="none" stroke="#9a32cd" stroke-dasharray="5,2" d="M87,-62.2348C87,-48.969 87,-32.3188 87,-21.6674"/>
<polygon fill="#9a32cd" stroke="#9a32cd" points="83.5001,-62.3761 87,-72.3762 90.5001,-62.3762 83.5001,-62.3761"/>
<text text-anchor="middle" x="103" y="-44.5" font-family="Helvetica,sans-Serif" font-size="10.00"> image</text>
</g>
<!-- Node4 -->
<g id="node6" class="node"><title>Node4</title>
<polygon fill="white" stroke="#bfbfbf" points="131.5,-72.5 131.5,-93.5 200.5,-93.5 200.5,-72.5 131.5,-72.5"/>
<text text-anchor="middle" x="166" y="-80.5" font-family="Helvetica,sans-Serif" font-size="10.00">Orientation</text>
</g>
<!-- Node4&#45;&gt;Node1 -->
<g id="edge6" class="edge"><title>Node4&#45;&gt;Node1</title>
<path fill="none" stroke="#9a32cd" stroke-dasharray="5,2" d="M148.944,-65.0947C141.211,-57.2012 131.837,-47.9361 123,-40 115.954,-33.6722 107.755,-27.0164 100.963,-21.6794"/>
<polygon fill="#9a32cd" stroke="#9a32cd" points="146.577,-67.6824 156.048,-72.4309 151.606,-62.8125 146.577,-67.6824"/>
<text text-anchor="middle" x="164" y="-44.5" font-family="Helvetica,sans-Serif" font-size="10.00"> orientation</text>
</g>
</g>
</svg>
