<?xml version="1.0" encoding="UTF-8" standalone="no"?>
<!DOCTYPE svg PUBLIC "-//W3C//DTD SVG 1.1//EN"
 "http://www.w3.org/Graphics/SVG/1.1/DTD/svg11.dtd">
<!-- Generated by graphviz version 2.26.3 (20100126.1600)
 -->
<!-- Title: sysmgrdebuggerservice.cpp Pages: 1 -->
<svg width="709pt" height="146pt"
 viewBox="0.00 0.00 709.00 146.00" xmlns="http://www.w3.org/2000/svg" xmlns:xlink="http://www.w3.org/1999/xlink">
<g id="graph1" class="graph" transform="scale(1 1) rotate(0) translate(4 142)">
<title>sysmgrdebuggerservice.cpp</title>
<polygon fill="white" stroke="white" points="-4,5 -4,-142 706,-142 706,5 -4,5"/>
<!-- Node1 -->
<g id="node1" class="node"><title>Node1</title>
<polygon fill="#bfbfbf" stroke="black" points="340,-116.5 340,-137.5 488,-137.5 488,-116.5 340,-116.5"/>
<text text-anchor="middle" x="414" y="-124.5" font-family="Helvetica,sans-Serif" font-size="10.00">sysmgrdebuggerservice.cpp</text>
</g>
<!-- Node2 -->
<g id="node3" class="node"><title>Node2</title>
<a xlink:href="sysmgrdebuggerservice_8h.htm" target="_top" xlink:title="sysmgrdebuggerservice.h">
<polygon fill="white" stroke="black" points="63.5,-58.5 63.5,-79.5 200.5,-79.5 200.5,-58.5 63.5,-58.5"/>
<text text-anchor="middle" x="132" y="-66.5" font-family="Helvetica,sans-Serif" font-size="10.00">sysmgrdebuggerservice.h</text>
</a>
</g>
<!-- Node1&#45;&gt;Node2 -->
<g id="edge2" class="edge"><title>Node1&#45;&gt;Node2</title>
<path fill="none" stroke="midnightblue" d="M362.932,-116.497C315.167,-106.673 243.771,-91.9884 193.025,-81.5512"/>
<polygon fill="midnightblue" stroke="midnightblue" points="193.664,-78.1095 183.164,-79.5231 192.254,-84.966 193.664,-78.1095"/>
</g>
<!-- Node6 -->
<g id="node11" class="node"><title>Node6</title>
<polygon fill="white" stroke="#bfbfbf" points="224,-0.5 224,-21.5 296,-21.5 296,-0.5 224,-0.5"/>
<text text-anchor="middle" x="260" y="-8.5" font-family="Helvetica,sans-Serif" font-size="10.00">cjson/json.h</text>
</g>
<!-- Node1&#45;&gt;Node6 -->
<g id="edge10" class="edge"><title>Node1&#45;&gt;Node6</title>
<path fill="none" stroke="midnightblue" d="M398.11,-116.486C384.184,-107.16 363.49,-93.0352 346,-80 323.049,-62.8954 297.568,-42.2312 280.343,-28.0015"/>
<polygon fill="midnightblue" stroke="midnightblue" points="282.529,-25.2673 272.598,-21.5767 278.06,-30.655 282.529,-25.2673"/>
</g>
<!-- Node7 -->
<g id="node13" class="node"><title>Node7</title>
<polygon fill="white" stroke="#bfbfbf" points="476.5,-58.5 476.5,-79.5 517.5,-79.5 517.5,-58.5 476.5,-58.5"/>
<text text-anchor="middle" x="497" y="-66.5" font-family="Helvetica,sans-Serif" font-size="10.00">glib.h</text>
</g>
<!-- Node1&#45;&gt;Node7 -->
<g id="edge12" class="edge"><title>Node1&#45;&gt;Node7</title>
<path fill="none" stroke="midnightblue" d="M429.223,-116.362C441.625,-107.696 459.346,-95.3126 473.557,-85.3819"/>
<polygon fill="midnightblue" stroke="midnightblue" points="475.681,-88.1676 481.873,-79.5707 471.671,-82.4297 475.681,-88.1676"/>
</g>
<!-- Node8 -->
<g id="node15" class="node"><title>Node8</title>
<polygon fill="white" stroke="#bfbfbf" points="535,-58.5 535,-79.5 613,-79.5 613,-58.5 535,-58.5"/>
<text text-anchor="middle" x="574" y="-66.5" font-family="Helvetica,sans-Serif" font-size="10.00">lunaservice.h</text>
</g>
<!-- Node1&#45;&gt;Node8 -->
<g id="edge14" class="edge"><title>Node1&#45;&gt;Node8</title>
<path fill="none" stroke="midnightblue" d="M442.975,-116.497C468.833,-107.123 506.899,-93.3242 535.346,-83.0122"/>
<polygon fill="midnightblue" stroke="midnightblue" points="536.762,-86.2216 544.971,-79.5231 534.377,-79.6406 536.762,-86.2216"/>
</g>
<!-- Node9 -->
<g id="node17" class="node"><title>Node9</title>
<polygon fill="white" stroke="#bfbfbf" points="630.5,-58.5 630.5,-79.5 701.5,-79.5 701.5,-58.5 630.5,-58.5"/>
<text text-anchor="middle" x="666" y="-66.5" font-family="Helvetica,sans-Serif" font-size="10.00">HostBase.h</text>
</g>
<!-- Node1&#45;&gt;Node9 -->
<g id="edge16" class="edge"><title>Node1&#45;&gt;Node9</title>
<path fill="none" stroke="midnightblue" d="M461.988,-116.481C501.967,-107.645 560.663,-94.5029 620.478,-80.3307"/>
<polygon fill="midnightblue" stroke="midnightblue" points="621.556,-83.6722 630.475,-77.9548 619.937,-76.8619 621.556,-83.6722"/>
</g>
<!-- Node10 -->
<g id="node19" class="node"><title>Node10</title>
<polygon fill="white" stroke="#bfbfbf" points="313.5,-0.5 313.5,-21.5 368.5,-21.5 368.5,-0.5 313.5,-0.5"/>
<text text-anchor="middle" x="341" y="-8.5" font-family="Helvetica,sans-Serif" font-size="10.00">QDebug</text>
</g>
<!-- Node1&#45;&gt;Node10 -->
<g id="edge18" class="edge"><title>Node1&#45;&gt;Node10</title>
<path fill="none" stroke="midnightblue" d="M397.257,-116.405C385.206,-107.945 369.466,-95.0427 360,-80 350.719,-65.2509 345.905,-45.9527 343.448,-31.5167"/>
<polygon fill="midnightblue" stroke="midnightblue" points="346.906,-30.9689 341.995,-21.581 339.979,-31.9823 346.906,-30.9689"/>
</g>
<!-- Node11 -->
<g id="node21" class="node"><title>Node11</title>
<a xlink:href="qtjsonabstract_8h.htm" target="_top" xlink:title="qtjsonabstract.h">
<polygon fill="white" stroke="black" points="368.5,-58.5 368.5,-79.5 459.5,-79.5 459.5,-58.5 368.5,-58.5"/>
<text text-anchor="middle" x="414" y="-66.5" font-family="Helvetica,sans-Serif" font-size="10.00">qtjsonabstract.h</text>
</a>
</g>
<!-- Node1&#45;&gt;Node11 -->
<g id="edge20" class="edge"><title>Node1&#45;&gt;Node11</title>
<path fill="none" stroke="midnightblue" d="M414,-116.362C414,-108.922 414,-98.7427 414,-89.7276"/>
<polygon fill="midnightblue" stroke="midnightblue" points="417.5,-89.5706 414,-79.5707 410.5,-89.5707 417.5,-89.5706"/>
</g>
<!-- Node3 -->
<g id="node5" class="node"><title>Node3</title>
<polygon fill="white" stroke="#bfbfbf" points="-0.5,-0.5 -0.5,-21.5 54.5,-21.5 54.5,-0.5 -0.5,-0.5"/>
<text text-anchor="middle" x="27" y="-8.5" font-family="Helvetica,sans-Serif" font-size="10.00">QObject</text>
</g>
<!-- Node2&#45;&gt;Node3 -->
<g id="edge4" class="edge"><title>Node2&#45;&gt;Node3</title>
<path fill="none" stroke="midnightblue" d="M112.741,-58.3619C96.5342,-49.4094 73.1471,-36.4908 54.8909,-26.4064"/>
<polygon fill="midnightblue" stroke="midnightblue" points="56.5822,-23.3422 46.1365,-21.5707 53.1976,-29.4696 56.5822,-23.3422"/>
</g>
<!-- Node4 -->
<g id="node7" class="node"><title>Node4</title>
<polygon fill="white" stroke="#bfbfbf" points="71.5,-0.5 71.5,-21.5 130.5,-21.5 130.5,-0.5 71.5,-0.5"/>
<text text-anchor="middle" x="101" y="-8.5" font-family="Helvetica,sans-Serif" font-size="10.00">QPointer</text>
</g>
<!-- Node2&#45;&gt;Node4 -->
<g id="edge6" class="edge"><title>Node2&#45;&gt;Node4</title>
<path fill="none" stroke="midnightblue" d="M126.314,-58.3619C122.163,-50.5949 116.416,-39.8426 111.447,-30.5458"/>
<polygon fill="midnightblue" stroke="midnightblue" points="114.45,-28.7401 106.65,-21.5707 108.277,-32.0398 114.45,-28.7401"/>
</g>
<!-- Node5 -->
<g id="node9" class="node"><title>Node5</title>
<polygon fill="white" stroke="#bfbfbf" points="148,-0.5 148,-21.5 206,-21.5 206,-0.5 148,-0.5"/>
<text text-anchor="middle" x="177" y="-8.5" font-family="Helvetica,sans-Serif" font-size="10.00">QtGlobal</text>
</g>
<!-- Node2&#45;&gt;Node5 -->
<g id="edge8" class="edge"><title>Node2&#45;&gt;Node5</title>
<path fill="none" stroke="midnightblue" d="M140.254,-58.3619C146.47,-50.3496 155.151,-39.1605 162.515,-29.6696"/>
<polygon fill="midnightblue" stroke="midnightblue" points="165.434,-31.617 168.799,-21.5707 159.903,-27.326 165.434,-31.617"/>
</g>
<!-- Node11&#45;&gt;Node6 -->
<g id="edge24" class="edge"><title>Node11&#45;&gt;Node6</title>
<path fill="none" stroke="midnightblue" d="M386.112,-58.4966C361.332,-49.1639 324.905,-35.4447 297.564,-25.1475"/>
<polygon fill="midnightblue" stroke="midnightblue" points="298.532,-21.7723 287.941,-21.5231 296.065,-28.3231 298.532,-21.7723"/>
</g>
<!-- Node11&#45;&gt;Node10 -->
<g id="edge32" class="edge"><title>Node11&#45;&gt;Node10</title>
<path fill="none" stroke="midnightblue" d="M400.611,-58.3619C389.909,-49.859 374.704,-37.7785 362.329,-27.9466"/>
<polygon fill="midnightblue" stroke="midnightblue" points="364.311,-25.0511 354.304,-21.5707 359.957,-30.5318 364.311,-25.0511"/>
</g>
<!-- Node12 -->
<g id="node23" class="node"><title>Node12</title>
<polygon fill="white" stroke="#bfbfbf" points="483.5,-0.5 483.5,-21.5 536.5,-21.5 536.5,-0.5 483.5,-0.5"/>
<text text-anchor="middle" x="510" y="-8.5" font-family="Helvetica,sans-Serif" font-size="10.00">QString</text>
</g>
<!-- Node11&#45;&gt;Node12 -->
<g id="edge22" class="edge"><title>Node11&#45;&gt;Node12</title>
<path fill="none" stroke="midnightblue" d="M431.608,-58.3619C446.223,-49.532 467.224,-36.844 483.811,-26.8224"/>
<polygon fill="midnightblue" stroke="midnightblue" points="485.754,-29.7376 492.504,-21.5707 482.135,-23.7461 485.754,-29.7376"/>
</g>
<!-- Node13 -->
<g id="node26" class="node"><title>Node13</title>
<polygon fill="white" stroke="#bfbfbf" points="553.5,-0.5 553.5,-21.5 594.5,-21.5 594.5,-0.5 553.5,-0.5"/>
<text text-anchor="middle" x="574" y="-8.5" font-family="Helvetica,sans-Serif" font-size="10.00">QList</text>
</g>
<!-- Node11&#45;&gt;Node13 -->
<g id="edge26" class="edge"><title>Node11&#45;&gt;Node13</title>
<path fill="none" stroke="midnightblue" d="M443.972,-58.42C468.587,-49.6929 504.586,-36.8432 543.906,-22.3691"/>
<polygon fill="midnightblue" stroke="midnightblue" points="545.252,-25.603 553.422,-18.8579 542.829,-19.0358 545.252,-25.603"/>
</g>
<!-- Node14 -->
<g id="node28" class="node"><title>Node14</title>
<polygon fill="white" stroke="#bfbfbf" points="611.5,-0.5 611.5,-21.5 670.5,-21.5 670.5,-0.5 611.5,-0.5"/>
<text text-anchor="middle" x="641" y="-8.5" font-family="Helvetica,sans-Serif" font-size="10.00">QVariant</text>
</g>
<!-- Node11&#45;&gt;Node14 -->
<g id="edge28" class="edge"><title>Node11&#45;&gt;Node14</title>
<path fill="none" stroke="midnightblue" d="M458.421,-58.4586C494.626,-49.7531 547.31,-36.8285 601.404,-22.3739"/>
<polygon fill="midnightblue" stroke="midnightblue" points="602.409,-25.728 611.159,-19.7543 600.594,-18.9675 602.409,-25.728"/>
</g>
<!-- Node15 -->
<g id="node30" class="node"><title>Node15</title>
<polygon fill="white" stroke="#bfbfbf" points="385.5,-0.5 385.5,-21.5 466.5,-21.5 466.5,-0.5 385.5,-0.5"/>
<text text-anchor="middle" x="426" y="-8.5" font-family="Helvetica,sans-Serif" font-size="10.00">QDataStream</text>
</g>
<!-- Node11&#45;&gt;Node15 -->
<g id="edge30" class="edge"><title>Node11&#45;&gt;Node15</title>
<path fill="none" stroke="midnightblue" d="M416.201,-58.3619C417.757,-50.8401 419.893,-40.5187 421.773,-31.4308"/>
<polygon fill="midnightblue" stroke="midnightblue" points="425.214,-32.0724 423.813,-21.5707 418.359,-30.6541 425.214,-32.0724"/>
</g>
</g>
</svg>
