<?xml version="1.0" encoding="UTF-8" standalone="no"?>
<!DOCTYPE svg PUBLIC "-//W3C//DTD SVG 1.1//EN"
 "http://www.w3.org/Graphics/SVG/1.1/DTD/svg11.dtd">
<!-- Generated by graphviz version 2.26.3 (20100126.1600)
 -->
<!-- Title: SysmgrIMEDataInterface.h Pages: 1 -->
<svg width="548pt" height="88pt"
 viewBox="0.00 0.00 548.00 88.00" xmlns="http://www.w3.org/2000/svg" xmlns:xlink="http://www.w3.org/1999/xlink">
<g id="graph1" class="graph" transform="scale(1 1) rotate(0) translate(4 84)">
<title>SysmgrIMEDataInterface.h</title>
<polygon fill="white" stroke="white" points="-4,5 -4,-84 545,-84 545,5 -4,5"/>
<!-- Node1 -->
<g id="node1" class="node"><title>Node1</title>
<polygon fill="#bfbfbf" stroke="black" points="245.5,-58.5 245.5,-79.5 388.5,-79.5 388.5,-58.5 245.5,-58.5"/>
<text text-anchor="middle" x="317" y="-66.5" font-family="Helvetica,sans-Serif" font-size="10.00">SysmgrIMEDataInterface.h</text>
</g>
<!-- Node2 -->
<g id="node3" class="node"><title>Node2</title>
<polygon fill="white" stroke="#bfbfbf" points="0,-0.5 0,-21.5 108,-21.5 108,-0.5 0,-0.5"/>
<text text-anchor="middle" x="54" y="-8.5" font-family="Helvetica,sans-Serif" font-size="10.00">IMEDataInterface.h</text>
</g>
<!-- Node1&#45;&gt;Node2 -->
<g id="edge2" class="edge"><title>Node1&#45;&gt;Node2</title>
<path fill="none" stroke="midnightblue" d="M269.373,-58.4966C225.012,-48.7136 158.795,-34.1107 111.506,-23.6819"/>
<polygon fill="midnightblue" stroke="midnightblue" points="112.236,-20.2588 101.717,-21.5231 110.728,-27.0946 112.236,-20.2588"/>
</g>
<!-- Node3 -->
<g id="node5" class="node"><title>Node3</title>
<polygon fill="white" stroke="#bfbfbf" points="126,-0.5 126,-21.5 210,-21.5 210,-0.5 126,-0.5"/>
<text text-anchor="middle" x="168" y="-8.5" font-family="Helvetica,sans-Serif" font-size="10.00">InputMethod.h</text>
</g>
<!-- Node1&#45;&gt;Node3 -->
<g id="edge4" class="edge"><title>Node1&#45;&gt;Node3</title>
<path fill="none" stroke="midnightblue" d="M290.017,-58.4966C266.147,-49.2048 231.106,-35.5649 204.693,-25.2832"/>
<polygon fill="midnightblue" stroke="midnightblue" points="205.622,-21.889 195.033,-21.5231 203.083,-28.4122 205.622,-21.889"/>
</g>
<!-- Node4 -->
<g id="node7" class="node"><title>Node4</title>
<polygon fill="white" stroke="#bfbfbf" points="228,-0.5 228,-21.5 306,-21.5 306,-0.5 228,-0.5"/>
<text text-anchor="middle" x="267" y="-8.5" font-family="Helvetica,sans-Serif" font-size="10.00">lunaservice.h</text>
</g>
<!-- Node1&#45;&gt;Node4 -->
<g id="edge6" class="edge"><title>Node1&#45;&gt;Node4</title>
<path fill="none" stroke="midnightblue" d="M307.829,-58.3619C300.852,-50.2678 291.079,-38.9318 282.844,-29.3796"/>
<polygon fill="midnightblue" stroke="midnightblue" points="285.293,-26.8595 276.113,-21.5707 279.991,-31.4301 285.293,-26.8595"/>
</g>
<!-- Node5 -->
<g id="node9" class="node"><title>Node5</title>
<polygon fill="white" stroke="#bfbfbf" points="324,-0.5 324,-21.5 410,-21.5 410,-0.5 324,-0.5"/>
<text text-anchor="middle" x="367" y="-8.5" font-family="Helvetica,sans-Serif" font-size="10.00">qnamespace.h</text>
</g>
<!-- Node1&#45;&gt;Node5 -->
<g id="edge8" class="edge"><title>Node1&#45;&gt;Node5</title>
<path fill="none" stroke="midnightblue" d="M326.171,-58.3619C333.148,-50.2678 342.921,-38.9318 351.156,-29.3796"/>
<polygon fill="midnightblue" stroke="midnightblue" points="354.009,-31.4301 357.887,-21.5707 348.707,-26.8595 354.009,-31.4301"/>
</g>
<!-- Node6 -->
<g id="node11" class="node"><title>Node6</title>
<polygon fill="white" stroke="#bfbfbf" points="427.5,-0.5 427.5,-21.5 480.5,-21.5 480.5,-0.5 427.5,-0.5"/>
<text text-anchor="middle" x="454" y="-8.5" font-family="Helvetica,sans-Serif" font-size="10.00">QString</text>
</g>
<!-- Node1&#45;&gt;Node6 -->
<g id="edge10" class="edge"><title>Node1&#45;&gt;Node6</title>
<path fill="none" stroke="midnightblue" d="M341.81,-58.4966C363.496,-49.3154 395.211,-35.8889 419.392,-25.6516"/>
<polygon fill="midnightblue" stroke="midnightblue" points="421.068,-28.7429 428.912,-21.6212 418.339,-22.2968 421.068,-28.7429"/>
</g>
<!-- Node7 -->
<g id="node13" class="node"><title>Node7</title>
<polygon fill="white" stroke="#bfbfbf" points="497.5,-0.5 497.5,-21.5 540.5,-21.5 540.5,-0.5 497.5,-0.5"/>
<text text-anchor="middle" x="519" y="-8.5" font-family="Helvetica,sans-Serif" font-size="10.00">string</text>
</g>
<!-- Node1&#45;&gt;Node7 -->
<g id="edge12" class="edge"><title>Node1&#45;&gt;Node7</title>
<path fill="none" stroke="midnightblue" d="M359.351,-58.4947C392.159,-50.1177 438.913,-37.6625 487.671,-22.2687"/>
<polygon fill="midnightblue" stroke="midnightblue" points="488.982,-25.5244 497.445,-19.1511 486.855,-18.8554 488.982,-25.5244"/>
</g>
</g>
</svg>
