<?xml version="1.0" encoding="UTF-8" standalone="no"?>
<!DOCTYPE svg PUBLIC "-//W3C//DTD SVG 1.1//EN"
 "http://www.w3.org/Graphics/SVG/1.1/DTD/svg11.dtd">
<!-- Generated by graphviz version 2.26.3 (20100126.1600)
 -->
<!-- Title: sysmgrdebuggerservice.h Pages: 1 -->
<svg width="214pt" height="88pt"
 viewBox="0.00 0.00 214.00 88.00" xmlns="http://www.w3.org/2000/svg" xmlns:xlink="http://www.w3.org/1999/xlink">
<g id="graph1" class="graph" transform="scale(1 1) rotate(0) translate(4 84)">
<title>sysmgrdebuggerservice.h</title>
<polygon fill="white" stroke="white" points="-4,5 -4,-84 211,-84 211,5 -4,5"/>
<!-- Node1 -->
<g id="node1" class="node"><title>Node1</title>
<polygon fill="#bfbfbf" stroke="black" points="32.5,-58.5 32.5,-79.5 169.5,-79.5 169.5,-58.5 32.5,-58.5"/>
<text text-anchor="middle" x="101" y="-66.5" font-family="Helvetica,sans-Serif" font-size="10.00">sysmgrdebuggerservice.h</text>
</g>
<!-- Node2 -->
<g id="node3" class="node"><title>Node2</title>
<polygon fill="white" stroke="#bfbfbf" points="-0.5,-0.5 -0.5,-21.5 54.5,-21.5 54.5,-0.5 -0.5,-0.5"/>
<text text-anchor="middle" x="27" y="-8.5" font-family="Helvetica,sans-Serif" font-size="10.00">QObject</text>
</g>
<!-- Node1&#45;&gt;Node2 -->
<g id="edge2" class="edge"><title>Node1&#45;&gt;Node2</title>
<path fill="none" stroke="midnightblue" d="M87.4273,-58.3619C76.5788,-49.859 61.1657,-37.7785 48.6215,-27.9466"/>
<polygon fill="midnightblue" stroke="midnightblue" points="50.5164,-24.9848 40.4867,-21.5707 46.1982,-30.4942 50.5164,-24.9848"/>
</g>
<!-- Node3 -->
<g id="node5" class="node"><title>Node3</title>
<polygon fill="white" stroke="#bfbfbf" points="71.5,-0.5 71.5,-21.5 130.5,-21.5 130.5,-0.5 71.5,-0.5"/>
<text text-anchor="middle" x="101" y="-8.5" font-family="Helvetica,sans-Serif" font-size="10.00">QPointer</text>
</g>
<!-- Node1&#45;&gt;Node3 -->
<g id="edge4" class="edge"><title>Node1&#45;&gt;Node3</title>
<path fill="none" stroke="midnightblue" d="M101,-58.3619C101,-50.9219 101,-40.7427 101,-31.7276"/>
<polygon fill="midnightblue" stroke="midnightblue" points="104.5,-31.5706 101,-21.5707 97.5001,-31.5707 104.5,-31.5706"/>
</g>
<!-- Node4 -->
<g id="node7" class="node"><title>Node4</title>
<polygon fill="white" stroke="#bfbfbf" points="148,-0.5 148,-21.5 206,-21.5 206,-0.5 148,-0.5"/>
<text text-anchor="middle" x="177" y="-8.5" font-family="Helvetica,sans-Serif" font-size="10.00">QtGlobal</text>
</g>
<!-- Node1&#45;&gt;Node4 -->
<g id="edge6" class="edge"><title>Node1&#45;&gt;Node4</title>
<path fill="none" stroke="midnightblue" d="M114.94,-58.3619C126.188,-49.7773 142.216,-37.5459 155.165,-27.6636"/>
<polygon fill="midnightblue" stroke="midnightblue" points="157.323,-30.4198 163.149,-21.5707 153.076,-24.8551 157.323,-30.4198"/>
</g>
</g>
</svg>
