<?xml version="1.0" encoding="UTF-8" standalone="no"?>
<!DOCTYPE svg PUBLIC "-//W3C//DTD SVG 1.1//EN"
 "http://www.w3.org/Graphics/SVG/1.1/DTD/svg11.dtd">
<!-- Generated by graphviz version 2.26.3 (20100126.1600)
 -->
<!-- Title: SysmgrIMEDataInterface.cpp Pages: 1 -->
<svg width="2544pt" height="262pt"
 viewBox="0.00 0.00 2543.56 262.00" xmlns="http://www.w3.org/2000/svg" xmlns:xlink="http://www.w3.org/1999/xlink">
<g id="graph1" class="graph" transform="scale(1 1) rotate(0) translate(4 258)">
<title>SysmgrIMEDataInterface.cpp</title>
<polygon fill="white" stroke="white" points="-4,5 -4,-258 2540.56,-258 2540.56,5 -4,5"/>
<!-- Node1 -->
<g id="node1" class="node"><title>Node1</title>
<polygon fill="#bfbfbf" stroke="black" points="1770.5,-232.5 1770.5,-253.5 1925.5,-253.5 1925.5,-232.5 1770.5,-232.5"/>
<text text-anchor="middle" x="1848" y="-240.5" font-family="Helvetica,sans-Serif" font-size="10.00">SysmgrIMEDataInterface.cpp</text>
</g>
<!-- Node2 -->
<g id="node3" class="node"><title>Node2</title>
<a xlink:href="SysmgrIMEDataInterface_8h.htm" target="_top" xlink:title="SysmgrIMEDataInterface.h">
<polygon fill="white" stroke="black" points="109.5,-116.5 109.5,-137.5 252.5,-137.5 252.5,-116.5 109.5,-116.5"/>
<text text-anchor="middle" x="181" y="-124.5" font-family="Helvetica,sans-Serif" font-size="10.00">SysmgrIMEDataInterface.h</text>
</a>
</g>
<!-- Node1&#45;&gt;Node2 -->
<g id="edge2" class="edge"><title>Node1&#45;&gt;Node2</title>
<path fill="none" stroke="midnightblue" d="M1770.1,-241.729C1488.55,-236.962 533.209,-219.228 398,-196 331.812,-184.629 257.91,-157.965 215.678,-141.312"/>
<polygon fill="midnightblue" stroke="midnightblue" points="216.738,-137.966 206.153,-137.512 214.144,-144.468 216.738,-137.966"/>
</g>
<!-- Node9 -->
<g id="node17" class="node"><title>Node9</title>
<polygon fill="white" stroke="#bfbfbf" points="2298.5,-0.5 2298.5,-21.5 2339.5,-21.5 2339.5,-0.5 2298.5,-0.5"/>
<text text-anchor="middle" x="2319" y="-8.5" font-family="Helvetica,sans-Serif" font-size="10.00">glib.h</text>
</g>
<!-- Node1&#45;&gt;Node9 -->
<g id="edge16" class="edge"><title>Node1&#45;&gt;Node9</title>
<path fill="none" stroke="midnightblue" d="M1853.77,-232.487C1863.17,-216.551 1883.45,-186.785 1910,-174 1971.47,-144.402 2476.19,-187.639 2523,-138 2580.85,-76.6508 2420.18,-33.0079 2349.99,-17.3556"/>
<polygon fill="midnightblue" stroke="midnightblue" points="2350.45,-13.8745 2339.94,-15.1677 2348.96,-20.7144 2350.45,-13.8745"/>
</g>
<!-- Node10 -->
<g id="node19" class="node"><title>Node10</title>
<polygon fill="white" stroke="#bfbfbf" points="1918.5,-174.5 1918.5,-195.5 1989.5,-195.5 1989.5,-174.5 1918.5,-174.5"/>
<text text-anchor="middle" x="1954" y="-182.5" font-family="Helvetica,sans-Serif" font-size="10.00">HostBase.h</text>
</g>
<!-- Node1&#45;&gt;Node10 -->
<g id="edge18" class="edge"><title>Node1&#45;&gt;Node10</title>
<path fill="none" stroke="midnightblue" d="M1867.44,-232.362C1883.8,-223.409 1907.41,-210.491 1925.84,-200.406"/>
<polygon fill="midnightblue" stroke="midnightblue" points="1927.59,-203.441 1934.68,-195.571 1924.23,-197.3 1927.59,-203.441"/>
</g>
<!-- Node11 -->
<g id="node21" class="node"><title>Node11</title>
<a xlink:href="IMEController_8h.htm" target="_top" xlink:title="IMEController.h">
<polygon fill="white" stroke="black" points="1194,-174.5 1194,-195.5 1284,-195.5 1284,-174.5 1194,-174.5"/>
<text text-anchor="middle" x="1239" y="-182.5" font-family="Helvetica,sans-Serif" font-size="10.00">IMEController.h</text>
</a>
</g>
<!-- Node1&#45;&gt;Node11 -->
<g id="edge20" class="edge"><title>Node1&#45;&gt;Node11</title>
<path fill="none" stroke="midnightblue" d="M1770.25,-235.595C1645.37,-223.702 1403.11,-200.63 1294.28,-190.265"/>
<polygon fill="midnightblue" stroke="midnightblue" points="1294.46,-186.767 1284.18,-189.303 1293.8,-193.735 1294.46,-186.767"/>
</g>
<!-- Node14 -->
<g id="node27" class="node"><title>Node14</title>
<polygon fill="white" stroke="#bfbfbf" points="2006.5,-174.5 2006.5,-195.5 2069.5,-195.5 2069.5,-174.5 2006.5,-174.5"/>
<text text-anchor="middle" x="2038" y="-182.5" font-family="Helvetica,sans-Serif" font-size="10.00">Settings.h</text>
</g>
<!-- Node1&#45;&gt;Node14 -->
<g id="edge26" class="edge"><title>Node1&#45;&gt;Node14</title>
<path fill="none" stroke="midnightblue" d="M1882.41,-232.497C1914.53,-222.692 1962.51,-208.046 1996.68,-197.612"/>
<polygon fill="midnightblue" stroke="midnightblue" points="1997.83,-200.922 2006.37,-194.654 1995.79,-194.227 1997.83,-200.922"/>
</g>
<!-- Node15 -->
<g id="node29" class="node"><title>Node15</title>
<a xlink:href="VirtualKeyboardPreferences_8h.htm" target="_top" xlink:title="VirtualKeyboardPreferences.h">
<polygon fill="white" stroke="black" points="406.5,-174.5 406.5,-195.5 563.5,-195.5 563.5,-174.5 406.5,-174.5"/>
<text text-anchor="middle" x="485" y="-182.5" font-family="Helvetica,sans-Serif" font-size="10.00">VirtualKeyboardPreferences.h</text>
</a>
</g>
<!-- Node1&#45;&gt;Node15 -->
<g id="edge28" class="edge"><title>Node1&#45;&gt;Node15</title>
<path fill="none" stroke="midnightblue" d="M1770.32,-239.694C1534,-229.638 824.643,-199.453 573.952,-188.785"/>
<polygon fill="midnightblue" stroke="midnightblue" points="573.934,-185.281 563.795,-188.353 573.637,-192.275 573.934,-185.281"/>
</g>
<!-- Node19 -->
<g id="node38" class="node"><title>Node19</title>
<a xlink:href="SoundPlayerPool_8h.htm" target="_top" xlink:title="SoundPlayerPool.h">
<polygon fill="white" stroke="black" points="880,-116.5 880,-137.5 986,-137.5 986,-116.5 880,-116.5"/>
<text text-anchor="middle" x="933" y="-124.5" font-family="Helvetica,sans-Serif" font-size="10.00">SoundPlayerPool.h</text>
</a>
</g>
<!-- Node1&#45;&gt;Node19 -->
<g id="edge38" class="edge"><title>Node1&#45;&gt;Node19</title>
<path fill="none" stroke="midnightblue" d="M1770.36,-242.053C1573.38,-239.182 1064.85,-228.661 996,-196 973.58,-185.364 955.459,-162.801 944.504,-146.363"/>
<polygon fill="midnightblue" stroke="midnightblue" points="947.214,-144.101 938.904,-137.528 941.302,-147.848 947.214,-144.101"/>
</g>
<!-- Node25 -->
<g id="node55" class="node"><title>Node25</title>
<a xlink:href="SystemUiController_8h.htm" target="_top" xlink:title="SystemUiController.h">
<polygon fill="white" stroke="black" points="1747,-174.5 1747,-195.5 1863,-195.5 1863,-174.5 1747,-174.5"/>
<text text-anchor="middle" x="1805" y="-182.5" font-family="Helvetica,sans-Serif" font-size="10.00">SystemUiController.h</text>
</a>
</g>
<!-- Node1&#45;&gt;Node25 -->
<g id="edge60" class="edge"><title>Node1&#45;&gt;Node25</title>
<path fill="none" stroke="midnightblue" d="M1840.11,-232.362C1834.17,-224.35 1825.88,-213.161 1818.84,-203.67"/>
<polygon fill="midnightblue" stroke="midnightblue" points="1821.6,-201.519 1812.84,-195.571 1815.98,-205.688 1821.6,-201.519"/>
</g>
<!-- Node39 -->
<g id="node99" class="node"><title>Node39</title>
<polygon fill="white" stroke="#bfbfbf" points="2086.5,-174.5 2086.5,-195.5 2167.5,-195.5 2167.5,-174.5 2086.5,-174.5"/>
<text text-anchor="middle" x="2127" y="-182.5" font-family="Helvetica,sans-Serif" font-size="10.00">Localization.h</text>
</g>
<!-- Node1&#45;&gt;Node39 -->
<g id="edge120" class="edge"><title>Node1&#45;&gt;Node39</title>
<path fill="none" stroke="midnightblue" d="M1901.04,-232.462C1945.42,-223.577 2010.67,-210.355 2076.27,-196.347"/>
<polygon fill="midnightblue" stroke="midnightblue" points="2077.33,-199.7 2086.37,-194.184 2075.86,-192.855 2077.33,-199.7"/>
</g>
<!-- Node40 -->
<g id="node101" class="node"><title>Node40</title>
<a xlink:href="Preferences_8h.htm" target="_top" xlink:title="Preferences.h">
<polygon fill="white" stroke="black" points="811.5,-174.5 811.5,-195.5 894.5,-195.5 894.5,-174.5 811.5,-174.5"/>
<text text-anchor="middle" x="853" y="-182.5" font-family="Helvetica,sans-Serif" font-size="10.00">Preferences.h</text>
</a>
</g>
<!-- Node1&#45;&gt;Node40 -->
<g id="edge122" class="edge"><title>Node1&#45;&gt;Node40</title>
<path fill="none" stroke="midnightblue" d="M1770.24,-240.592C1614.15,-235.394 1251.64,-221.482 948,-196 933.888,-194.816 918.633,-193.199 904.564,-191.57"/>
<polygon fill="midnightblue" stroke="midnightblue" points="904.904,-188.086 894.562,-190.388 904.082,-195.038 904.904,-188.086"/>
</g>
<!-- Node43 -->
<g id="node112" class="node"><title>Node43</title>
<a xlink:href="BannerMessageHandler_8h.htm" target="_top" xlink:title="BannerMessageHandler.h">
<polygon fill="white" stroke="black" points="1005,-174.5 1005,-195.5 1145,-195.5 1145,-174.5 1005,-174.5"/>
<text text-anchor="middle" x="1075" y="-182.5" font-family="Helvetica,sans-Serif" font-size="10.00">BannerMessageHandler.h</text>
</a>
</g>
<!-- Node1&#45;&gt;Node43 -->
<g id="edge138" class="edge"><title>Node1&#45;&gt;Node43</title>
<path fill="none" stroke="midnightblue" d="M1770.37,-238.227C1646.51,-230.446 1396.55,-214.072 1185,-196 1175.32,-195.173 1165.17,-194.243 1155.1,-193.283"/>
<polygon fill="midnightblue" stroke="midnightblue" points="1155.39,-189.794 1145.1,-192.315 1154.71,-196.761 1155.39,-189.794"/>
</g>
<!-- Node44 -->
<g id="node119" class="node"><title>Node44</title>
<a xlink:href="BannerMessageEventFactory_8h.htm" target="_top" xlink:title="BannerMessageEventFactory.h">
<polygon fill="white" stroke="red" points="1364.5,-58.5 1364.5,-79.5 1529.5,-79.5 1529.5,-58.5 1364.5,-58.5"/>
<text text-anchor="middle" x="1447" y="-66.5" font-family="Helvetica,sans-Serif" font-size="10.00">BannerMessageEventFactory.h</text>
</a>
</g>
<!-- Node1&#45;&gt;Node44 -->
<g id="edge150" class="edge"><title>Node1&#45;&gt;Node44</title>
<path fill="none" stroke="midnightblue" d="M1820.02,-232.455C1772.09,-214.22 1671.36,-175.174 1588,-138 1548.87,-120.549 1504.62,-98.5068 1476.3,-84.0955"/>
<polygon fill="midnightblue" stroke="midnightblue" points="1477.83,-80.9492 1467.33,-79.5183 1474.65,-87.1834 1477.83,-80.9492"/>
</g>
<!-- Node47 -->
<g id="node128" class="node"><title>Node47</title>
<polygon fill="white" stroke="#bfbfbf" points="2184.5,-174.5 2184.5,-195.5 2261.5,-195.5 2261.5,-174.5 2184.5,-174.5"/>
<text text-anchor="middle" x="2223" y="-182.5" font-family="Helvetica,sans-Serif" font-size="10.00">QApplication</text>
</g>
<!-- Node1&#45;&gt;Node47 -->
<g id="edge162" class="edge"><title>Node1&#45;&gt;Node47</title>
<path fill="none" stroke="midnightblue" d="M1925.52,-233.836C1989.84,-225.786 2083.88,-212.986 2174.44,-196.186"/>
<polygon fill="midnightblue" stroke="midnightblue" points="2175.14,-199.616 2184.33,-194.334 2173.85,-192.736 2175.14,-199.616"/>
</g>
<!-- Node48 -->
<g id="node130" class="node"><title>Node48</title>
<polygon fill="white" stroke="#bfbfbf" points="2278.5,-174.5 2278.5,-195.5 2333.5,-195.5 2333.5,-174.5 2278.5,-174.5"/>
<text text-anchor="middle" x="2306" y="-182.5" font-family="Helvetica,sans-Serif" font-size="10.00">QDebug</text>
</g>
<!-- Node1&#45;&gt;Node48 -->
<g id="edge164" class="edge"><title>Node1&#45;&gt;Node48</title>
<path fill="none" stroke="midnightblue" d="M1925.68,-238.682C2008.62,-233.096 2143.88,-221.185 2268.15,-196.111"/>
<polygon fill="midnightblue" stroke="midnightblue" points="2269.13,-199.483 2278.22,-194.045 2267.72,-192.626 2269.13,-199.483"/>
</g>
<!-- Node49 -->
<g id="node132" class="node"><title>Node49</title>
<polygon fill="white" stroke="#bfbfbf" points="2351,-174.5 2351,-195.5 2409,-195.5 2409,-174.5 2351,-174.5"/>
<text text-anchor="middle" x="2380" y="-182.5" font-family="Helvetica,sans-Serif" font-size="10.00">QWidget</text>
</g>
<!-- Node1&#45;&gt;Node49 -->
<g id="edge166" class="edge"><title>Node1&#45;&gt;Node49</title>
<path fill="none" stroke="midnightblue" d="M1925.64,-240.1C2021.37,-235.521 2189.04,-224.238 2340.71,-195.964"/>
<polygon fill="midnightblue" stroke="midnightblue" points="2341.5,-199.376 2350.67,-194.077 2340.2,-192.499 2341.5,-199.376"/>
</g>
<!-- Node50 -->
<g id="node134" class="node"><title>Node50</title>
<polygon fill="white" stroke="#bfbfbf" points="2427,-174.5 2427,-195.5 2513,-195.5 2513,-174.5 2427,-174.5"/>
<text text-anchor="middle" x="2470" y="-182.5" font-family="Helvetica,sans-Serif" font-size="10.00">ime/IMEData.h</text>
</g>
<!-- Node1&#45;&gt;Node50 -->
<g id="edge168" class="edge"><title>Node1&#45;&gt;Node50</title>
<path fill="none" stroke="midnightblue" d="M1925.8,-239.7C2033.87,-234.421 2235.66,-222.06 2416.96,-195.997"/>
<polygon fill="midnightblue" stroke="midnightblue" points="2417.55,-199.448 2426.95,-194.545 2416.55,-192.521 2417.55,-199.448"/>
</g>
<!-- Node3 -->
<g id="node5" class="node"><title>Node3</title>
<polygon fill="white" stroke="#bfbfbf" points="70,-58.5 70,-79.5 178,-79.5 178,-58.5 70,-58.5"/>
<text text-anchor="middle" x="124" y="-66.5" font-family="Helvetica,sans-Serif" font-size="10.00">IMEDataInterface.h</text>
</g>
<!-- Node2&#45;&gt;Node3 -->
<g id="edge4" class="edge"><title>Node2&#45;&gt;Node3</title>
<path fill="none" stroke="midnightblue" d="M170.545,-116.362C162.43,-108.104 150.999,-96.4725 141.496,-86.8029"/>
<polygon fill="midnightblue" stroke="midnightblue" points="143.894,-84.2497 134.388,-79.5707 138.901,-89.1562 143.894,-84.2497"/>
</g>
<!-- Node4 -->
<g id="node7" class="node"><title>Node4</title>
<polygon fill="white" stroke="#bfbfbf" points="196,-58.5 196,-79.5 280,-79.5 280,-58.5 196,-58.5"/>
<text text-anchor="middle" x="238" y="-66.5" font-family="Helvetica,sans-Serif" font-size="10.00">InputMethod.h</text>
</g>
<!-- Node2&#45;&gt;Node4 -->
<g id="edge6" class="edge"><title>Node2&#45;&gt;Node4</title>
<path fill="none" stroke="midnightblue" d="M191.455,-116.362C199.57,-108.104 211.001,-96.4725 220.504,-86.8029"/>
<polygon fill="midnightblue" stroke="midnightblue" points="223.099,-89.1562 227.612,-79.5707 218.106,-84.2497 223.099,-89.1562"/>
</g>
<!-- Node5 -->
<g id="node9" class="node"><title>Node5</title>
<polygon fill="white" stroke="#bfbfbf" points="827,-58.5 827,-79.5 905,-79.5 905,-58.5 827,-58.5"/>
<text text-anchor="middle" x="866" y="-66.5" font-family="Helvetica,sans-Serif" font-size="10.00">lunaservice.h</text>
</g>
<!-- Node2&#45;&gt;Node5 -->
<g id="edge8" class="edge"><title>Node2&#45;&gt;Node5</title>
<path fill="none" stroke="midnightblue" d="M252.504,-116.955C255.372,-116.62 258.212,-116.3 261,-116 467.084,-93.8464 713.74,-77.9843 816.886,-71.828"/>
<polygon fill="midnightblue" stroke="midnightblue" points="817.222,-75.3142 826.998,-71.2282 816.808,-68.3265 817.222,-75.3142"/>
</g>
<!-- Node6 -->
<g id="node11" class="node"><title>Node6</title>
<polygon fill="white" stroke="#bfbfbf" points="298,-58.5 298,-79.5 384,-79.5 384,-58.5 298,-58.5"/>
<text text-anchor="middle" x="341" y="-66.5" font-family="Helvetica,sans-Serif" font-size="10.00">qnamespace.h</text>
</g>
<!-- Node2&#45;&gt;Node6 -->
<g id="edge10" class="edge"><title>Node2&#45;&gt;Node6</title>
<path fill="none" stroke="midnightblue" d="M209.975,-116.497C235.833,-107.123 273.899,-93.3242 302.346,-83.0122"/>
<polygon fill="midnightblue" stroke="midnightblue" points="303.762,-86.2216 311.971,-79.5231 301.377,-79.6406 303.762,-86.2216"/>
</g>
<!-- Node7 -->
<g id="node13" class="node"><title>Node7</title>
<polygon fill="white" stroke="#bfbfbf" points="-0.5,-58.5 -0.5,-79.5 52.5,-79.5 52.5,-58.5 -0.5,-58.5"/>
<text text-anchor="middle" x="26" y="-66.5" font-family="Helvetica,sans-Serif" font-size="10.00">QString</text>
</g>
<!-- Node2&#45;&gt;Node7 -->
<g id="edge12" class="edge"><title>Node2&#45;&gt;Node7</title>
<path fill="none" stroke="midnightblue" d="M152.931,-116.497C127.523,-106.989 89.9516,-92.9303 62.2745,-82.5737"/>
<polygon fill="midnightblue" stroke="midnightblue" points="63.1587,-79.1676 52.5663,-78.9409 60.7054,-85.7236 63.1587,-79.1676"/>
</g>
<!-- Node8 -->
<g id="node15" class="node"><title>Node8</title>
<polygon fill="white" stroke="#bfbfbf" points="1161.5,-0.5 1161.5,-21.5 1204.5,-21.5 1204.5,-0.5 1161.5,-0.5"/>
<text text-anchor="middle" x="1183" y="-8.5" font-family="Helvetica,sans-Serif" font-size="10.00">string</text>
</g>
<!-- Node2&#45;&gt;Node8 -->
<g id="edge14" class="edge"><title>Node2&#45;&gt;Node8</title>
<path fill="none" stroke="midnightblue" d="M229.127,-116.464C309.047,-99.1026 465.892,-65.6391 522,-58 645.961,-41.1228 1036.37,-19.0002 1151.03,-12.7254"/>
<polygon fill="midnightblue" stroke="midnightblue" points="1151.46,-16.2076 1161.25,-12.1684 1151.08,-9.21802 1151.46,-16.2076"/>
</g>
<!-- Node12 -->
<g id="node23" class="node"><title>Node12</title>
<polygon fill="white" stroke="#bfbfbf" points="1117.5,-116.5 1117.5,-137.5 1172.5,-137.5 1172.5,-116.5 1117.5,-116.5"/>
<text text-anchor="middle" x="1145" y="-124.5" font-family="Helvetica,sans-Serif" font-size="10.00">QObject</text>
</g>
<!-- Node11&#45;&gt;Node12 -->
<g id="edge22" class="edge"><title>Node11&#45;&gt;Node12</title>
<path fill="none" stroke="midnightblue" d="M1221.76,-174.362C1207.45,-165.532 1186.89,-152.844 1170.64,-142.822"/>
<polygon fill="midnightblue" stroke="midnightblue" points="1172.48,-139.843 1162.13,-137.571 1168.8,-145.8 1172.48,-139.843"/>
</g>
<!-- Node13 -->
<g id="node25" class="node"><title>Node13</title>
<polygon fill="white" stroke="#bfbfbf" points="1190,-116.5 1190,-137.5 1288,-137.5 1288,-116.5 1190,-116.5"/>
<text text-anchor="middle" x="1239" y="-124.5" font-family="Helvetica,sans-Serif" font-size="10.00">palmimedefines.h</text>
</g>
<!-- Node11&#45;&gt;Node13 -->
<g id="edge24" class="edge"><title>Node11&#45;&gt;Node13</title>
<path fill="none" stroke="midnightblue" d="M1239,-174.362C1239,-166.922 1239,-156.743 1239,-147.728"/>
<polygon fill="midnightblue" stroke="midnightblue" points="1242.5,-147.571 1239,-137.571 1235.5,-147.571 1242.5,-147.571"/>
</g>
<!-- Node15&#45;&gt;Node8 -->
<g id="edge30" class="edge"><title>Node15&#45;&gt;Node8</title>
<path fill="none" stroke="midnightblue" d="M492.732,-174.286C504.419,-158.912 528.097,-130.821 555,-116 660.169,-58.0635 1039.08,-22.8439 1151.41,-13.5075"/>
<polygon fill="midnightblue" stroke="midnightblue" points="1151.75,-16.9915 1161.43,-12.6849 1151.17,-10.015 1151.75,-16.9915"/>
</g>
<!-- Node16 -->
<g id="node32" class="node"><title>Node16</title>
<polygon fill="white" stroke="#bfbfbf" points="462,-116.5 462,-137.5 508,-137.5 508,-116.5 462,-116.5"/>
<text text-anchor="middle" x="485" y="-124.5" font-family="Helvetica,sans-Serif" font-size="10.00">vector</text>
</g>
<!-- Node15&#45;&gt;Node16 -->
<g id="edge32" class="edge"><title>Node15&#45;&gt;Node16</title>
<path fill="none" stroke="midnightblue" d="M485,-174.362C485,-166.922 485,-156.743 485,-147.728"/>
<polygon fill="midnightblue" stroke="midnightblue" points="488.5,-147.571 485,-137.571 481.5,-147.571 488.5,-147.571"/>
</g>
<!-- Node17 -->
<g id="node34" class="node"><title>Node17</title>
<polygon fill="white" stroke="#bfbfbf" points="269.5,-116.5 269.5,-137.5 368.5,-137.5 368.5,-116.5 269.5,-116.5"/>
<text text-anchor="middle" x="319" y="-124.5" font-family="Helvetica,sans-Serif" font-size="10.00">VirtualKeyboard.h</text>
</g>
<!-- Node15&#45;&gt;Node17 -->
<g id="edge34" class="edge"><title>Node15&#45;&gt;Node17</title>
<path fill="none" stroke="midnightblue" d="M454.939,-174.497C427.993,-165.082 388.272,-151.204 358.718,-140.877"/>
<polygon fill="midnightblue" stroke="midnightblue" points="359.713,-137.517 349.118,-137.523 357.404,-144.126 359.713,-137.517"/>
</g>
<!-- Node18 -->
<g id="node36" class="node"><title>Node18</title>
<polygon fill="white" stroke="#bfbfbf" points="385.5,-116.5 385.5,-137.5 444.5,-137.5 444.5,-116.5 385.5,-116.5"/>
<text text-anchor="middle" x="415" y="-124.5" font-family="Helvetica,sans-Serif" font-size="10.00">qobject.h</text>
</g>
<!-- Node15&#45;&gt;Node18 -->
<g id="edge36" class="edge"><title>Node15&#45;&gt;Node18</title>
<path fill="none" stroke="midnightblue" d="M472.161,-174.362C461.998,-165.941 447.599,-154.011 435.796,-144.231"/>
<polygon fill="midnightblue" stroke="midnightblue" points="437.691,-141.256 427.758,-137.571 433.225,-146.646 437.691,-141.256"/>
</g>
<!-- Node19&#45;&gt;Node5 -->
<g id="edge46" class="edge"><title>Node19&#45;&gt;Node5</title>
<path fill="none" stroke="midnightblue" d="M920.711,-116.362C910.983,-107.941 897.202,-96.0105 885.905,-86.2308"/>
<polygon fill="midnightblue" stroke="midnightblue" points="888.062,-83.4695 878.211,-79.5707 883.481,-88.7619 888.062,-83.4695"/>
</g>
<!-- Node19&#45;&gt;Node8 -->
<g id="edge44" class="edge"><title>Node19&#45;&gt;Node8</title>
<path fill="none" stroke="midnightblue" d="M938.821,-116.293C947.747,-100.928 966.298,-72.8472 990,-58 1040.57,-26.3217 1110.95,-15.9946 1151.26,-12.6281"/>
<polygon fill="midnightblue" stroke="midnightblue" points="1151.6,-16.1128 1161.31,-11.8821 1151.08,-9.13206 1151.6,-16.1128"/>
</g>
<!-- Node20 -->
<g id="node40" class="node"><title>Node20</title>
<polygon fill="white" stroke="#bfbfbf" points="1618.5,-0.5 1618.5,-21.5 1685.5,-21.5 1685.5,-0.5 1618.5,-0.5"/>
<text text-anchor="middle" x="1652" y="-8.5" font-family="Helvetica,sans-Serif" font-size="10.00">Common.h</text>
</g>
<!-- Node19&#45;&gt;Node20 -->
<g id="edge40" class="edge"><title>Node19&#45;&gt;Node20</title>
<path fill="none" stroke="midnightblue" d="M986.114,-121.097C1002.72,-119.342 1021.11,-117.492 1038,-116 1148.97,-106.195 1431.85,-113.779 1538,-80 1556.7,-74.0498 1600.68,-45.6865 1628.22,-27.2273"/>
<polygon fill="midnightblue" stroke="midnightblue" points="1630.19,-30.1156 1636.53,-21.6231 1626.28,-24.3116 1630.19,-30.1156"/>
</g>
<!-- Node21 -->
<g id="node42" class="node"><title>Node21</title>
<polygon fill="white" stroke="#bfbfbf" points="1204.5,-58.5 1204.5,-79.5 1233.5,-79.5 1233.5,-58.5 1204.5,-58.5"/>
<text text-anchor="middle" x="1219" y="-66.5" font-family="Helvetica,sans-Serif" font-size="10.00">list</text>
</g>
<!-- Node19&#45;&gt;Node21 -->
<g id="edge42" class="edge"><title>Node19&#45;&gt;Node21</title>
<path fill="none" stroke="midnightblue" d="M986.196,-118.281C1050.69,-107.6 1154.91,-89.9548 1194.3,-79.6883"/>
<polygon fill="midnightblue" stroke="midnightblue" points="1195.52,-82.976 1204.14,-76.8163 1193.56,-76.2559 1195.52,-82.976"/>
</g>
<!-- Node22 -->
<g id="node46" class="node"><title>Node22</title>
<polygon fill="white" stroke="#bfbfbf" points="911.5,-0.5 911.5,-21.5 954.5,-21.5 954.5,-0.5 911.5,-0.5"/>
<text text-anchor="middle" x="933" y="-8.5" font-family="Helvetica,sans-Serif" font-size="10.00">sptr.h</text>
</g>
<!-- Node19&#45;&gt;Node22 -->
<g id="edge48" class="edge"><title>Node19&#45;&gt;Node22</title>
<path fill="none" stroke="midnightblue" d="M933,-116.295C933,-97.1314 933,-56.654 933,-31.8434"/>
<polygon fill="midnightblue" stroke="midnightblue" points="936.5,-31.6792 933,-21.6792 929.5,-31.6792 936.5,-31.6792"/>
</g>
<!-- Node23 -->
<g id="node48" class="node"><title>Node23</title>
<polygon fill="white" stroke="#bfbfbf" points="999,-58.5 999,-79.5 1051,-79.5 1051,-58.5 999,-58.5"/>
<text text-anchor="middle" x="1025" y="-66.5" font-family="Helvetica,sans-Serif" font-size="10.00">Timer.h</text>
</g>
<!-- Node19&#45;&gt;Node23 -->
<g id="edge50" class="edge"><title>Node19&#45;&gt;Node23</title>
<path fill="none" stroke="midnightblue" d="M949.874,-116.362C963.751,-107.614 983.634,-95.0786 999.46,-85.1015"/>
<polygon fill="midnightblue" stroke="midnightblue" points="1001.64,-87.8645 1008.23,-79.5707 997.907,-81.943 1001.64,-87.8645"/>
</g>
<!-- Node24 -->
<g id="node50" class="node"><title>Node24</title>
<a xlink:href="SoundPlayerDummy_8h.htm" target="_top" xlink:title="SoundPlayerDummy.h">
<polygon fill="white" stroke="black" points="1068.5,-58.5 1068.5,-79.5 1187.5,-79.5 1187.5,-58.5 1068.5,-58.5"/>
<text text-anchor="middle" x="1128" y="-66.5" font-family="Helvetica,sans-Serif" font-size="10.00">SoundPlayerDummy.h</text>
</a>
</g>
<!-- Node19&#45;&gt;Node24 -->
<g id="edge52" class="edge"><title>Node19&#45;&gt;Node24</title>
<path fill="none" stroke="midnightblue" d="M968.313,-116.497C1000.38,-106.959 1047.85,-92.8408 1082.7,-82.475"/>
<polygon fill="midnightblue" stroke="midnightblue" points="1084.03,-85.7288 1092.62,-79.5231 1082.04,-79.0193 1084.03,-85.7288"/>
</g>
<!-- Node24&#45;&gt;Node8 -->
<g id="edge56" class="edge"><title>Node24&#45;&gt;Node8</title>
<path fill="none" stroke="midnightblue" d="M1138.09,-58.3619C1145.84,-50.1861 1156.73,-38.7025 1165.85,-29.0907"/>
<polygon fill="midnightblue" stroke="midnightblue" points="1168.63,-31.2352 1172.98,-21.5707 1163.56,-26.4186 1168.63,-31.2352"/>
</g>
<!-- Node24&#45;&gt;Node20 -->
<g id="edge54" class="edge"><title>Node24&#45;&gt;Node20</title>
<path fill="none" stroke="midnightblue" d="M1187.67,-59.1276C1190.49,-58.7313 1193.27,-58.353 1196,-58 1359.85,-36.7974 1401.82,-40.4832 1566,-22 1579.71,-20.4569 1594.62,-18.609 1608.12,-16.8722"/>
<polygon fill="midnightblue" stroke="midnightblue" points="1608.66,-20.3317 1618.13,-15.5727 1607.76,-13.39 1608.66,-20.3317"/>
</g>
<!-- Node24&#45;&gt;Node22 -->
<g id="edge58" class="edge"><title>Node24&#45;&gt;Node22</title>
<path fill="none" stroke="midnightblue" d="M1092.69,-58.4966C1056.13,-47.6222 999.543,-30.7924 964.468,-20.3598"/>
<polygon fill="midnightblue" stroke="midnightblue" points="965.333,-16.9655 954.75,-17.4692 963.337,-23.675 965.333,-16.9655"/>
</g>
<!-- Node25&#45;&gt;Node8 -->
<g id="edge64" class="edge"><title>Node25&#45;&gt;Node8</title>
<path fill="none" stroke="midnightblue" d="M1746.97,-184.152C1637.77,-181.752 1406.28,-172.614 1335,-138 1290.61,-116.442 1296.31,-89.113 1258,-58 1243.62,-46.3178 1226.14,-35.2129 1211.68,-26.7334"/>
<polygon fill="midnightblue" stroke="midnightblue" points="1213.09,-23.5065 1202.68,-21.5607 1209.6,-29.5764 1213.09,-23.5065"/>
</g>
<!-- Node25&#45;&gt;Node12 -->
<g id="edge72" class="edge"><title>Node25&#45;&gt;Node12</title>
<path fill="none" stroke="midnightblue" d="M1746.82,-182.267C1617.04,-175.909 1306.19,-159.176 1182.72,-137.947"/>
<polygon fill="midnightblue" stroke="midnightblue" points="1183.22,-134.481 1172.76,-136.146 1181.97,-141.369 1183.22,-134.481"/>
</g>
<!-- Node25&#45;&gt;Node20 -->
<g id="edge62" class="edge"><title>Node25&#45;&gt;Node20</title>
<path fill="none" stroke="midnightblue" d="M1863.11,-175.759C1867.8,-175.124 1872.48,-174.527 1877,-174 1926.38,-168.242 2285.21,-170.303 2323,-138 2350.44,-114.547 2361.63,-84.3828 2337,-58 2315.05,-34.4954 1843.26,-17.2175 1695.7,-12.3729"/>
<polygon fill="midnightblue" stroke="midnightblue" points="1695.76,-8.87296 1685.65,-12.0457 1695.53,-15.8693 1695.76,-8.87296"/>
</g>
<!-- Node26 -->
<g id="node59" class="node"><title>Node26</title>
<polygon fill="white" stroke="#bfbfbf" points="1606,-116.5 1606,-137.5 1658,-137.5 1658,-116.5 1606,-116.5"/>
<text text-anchor="middle" x="1632" y="-124.5" font-family="Helvetica,sans-Serif" font-size="10.00">QEvent</text>
</g>
<!-- Node25&#45;&gt;Node26 -->
<g id="edge66" class="edge"><title>Node25&#45;&gt;Node26</title>
<path fill="none" stroke="midnightblue" d="M1773.67,-174.497C1743.8,-164.481 1698.86,-149.415 1667.63,-138.946"/>
<polygon fill="midnightblue" stroke="midnightblue" points="1668.61,-135.582 1658.01,-135.721 1666.38,-142.219 1668.61,-135.582"/>
</g>
<!-- Node27 -->
<g id="node61" class="node"><title>Node27</title>
<polygon fill="white" stroke="#bfbfbf" points="1676,-116.5 1676,-137.5 1746,-137.5 1746,-116.5 1676,-116.5"/>
<text text-anchor="middle" x="1711" y="-124.5" font-family="Helvetica,sans-Serif" font-size="10.00">QKeyEvent</text>
</g>
<!-- Node25&#45;&gt;Node27 -->
<g id="edge68" class="edge"><title>Node25&#45;&gt;Node27</title>
<path fill="none" stroke="midnightblue" d="M1787.76,-174.362C1773.45,-165.532 1752.89,-152.844 1736.64,-142.822"/>
<polygon fill="midnightblue" stroke="midnightblue" points="1738.48,-139.843 1728.13,-137.571 1734.8,-145.8 1738.48,-139.843"/>
</g>
<!-- Node28 -->
<g id="node63" class="node"><title>Node28</title>
<polygon fill="white" stroke="#bfbfbf" points="1763.5,-116.5 1763.5,-137.5 1846.5,-137.5 1846.5,-116.5 1763.5,-116.5"/>
<text text-anchor="middle" x="1805" y="-124.5" font-family="Helvetica,sans-Serif" font-size="10.00">QMouseEvent</text>
</g>
<!-- Node25&#45;&gt;Node28 -->
<g id="edge70" class="edge"><title>Node25&#45;&gt;Node28</title>
<path fill="none" stroke="midnightblue" d="M1805,-174.362C1805,-166.922 1805,-156.743 1805,-147.728"/>
<polygon fill="midnightblue" stroke="midnightblue" points="1808.5,-147.571 1805,-137.571 1801.5,-147.571 1808.5,-147.571"/>
</g>
<!-- Node29 -->
<g id="node66" class="node"><title>Node29</title>
<polygon fill="white" stroke="#bfbfbf" points="1863.5,-116.5 1863.5,-137.5 1910.5,-137.5 1910.5,-116.5 1863.5,-116.5"/>
<text text-anchor="middle" x="1887" y="-124.5" font-family="Helvetica,sans-Serif" font-size="10.00">QRect</text>
</g>
<!-- Node25&#45;&gt;Node29 -->
<g id="edge74" class="edge"><title>Node25&#45;&gt;Node29</title>
<path fill="none" stroke="midnightblue" d="M1820.04,-174.362C1832.29,-165.696 1849.8,-153.313 1863.84,-143.382"/>
<polygon fill="midnightblue" stroke="midnightblue" points="1865.91,-146.203 1872.06,-137.571 1861.87,-140.488 1865.91,-146.203"/>
</g>
<!-- Node30 -->
<g id="node68" class="node"><title>Node30</title>
<polygon fill="white" stroke="#bfbfbf" points="1927.5,-116.5 1927.5,-137.5 2020.5,-137.5 2020.5,-116.5 1927.5,-116.5"/>
<text text-anchor="middle" x="1974" y="-124.5" font-family="Helvetica,sans-Serif" font-size="10.00">QSharedPointer</text>
</g>
<!-- Node25&#45;&gt;Node30 -->
<g id="edge76" class="edge"><title>Node25&#45;&gt;Node30</title>
<path fill="none" stroke="midnightblue" d="M1835.6,-174.497C1863.04,-165.082 1903.48,-151.204 1933.56,-140.877"/>
<polygon fill="midnightblue" stroke="midnightblue" points="1935.02,-144.08 1943.34,-137.523 1932.74,-137.459 1935.02,-144.08"/>
</g>
<!-- Node31 -->
<g id="node70" class="node"><title>Node31</title>
<polygon fill="white" stroke="#bfbfbf" points="2038,-116.5 2038,-137.5 2124,-137.5 2124,-116.5 2038,-116.5"/>
<text text-anchor="middle" x="2081" y="-124.5" font-family="Helvetica,sans-Serif" font-size="10.00">QWeakPointer</text>
</g>
<!-- Node25&#45;&gt;Node31 -->
<g id="edge78" class="edge"><title>Node25&#45;&gt;Node31</title>
<path fill="none" stroke="midnightblue" d="M1855.27,-174.477C1898.45,-165.432 1962.67,-151.968 2027.83,-138.244"/>
<polygon fill="midnightblue" stroke="midnightblue" points="2028.81,-141.615 2037.87,-136.129 2027.36,-134.766 2028.81,-141.615"/>
</g>
<!-- Node32 -->
<g id="node72" class="node"><title>Node32</title>
<a xlink:href="ApplicationDescription_8h.htm" target="_top" xlink:title="ApplicationDescription.h">
<polygon fill="white" stroke="red" points="1344,-116.5 1344,-137.5 1474,-137.5 1474,-116.5 1344,-116.5"/>
<text text-anchor="middle" x="1409" y="-124.5" font-family="Helvetica,sans-Serif" font-size="10.00">ApplicationDescription.h</text>
</a>
</g>
<!-- Node25&#45;&gt;Node32 -->
<g id="edge80" class="edge"><title>Node25&#45;&gt;Node32</title>
<path fill="none" stroke="midnightblue" d="M1746.99,-176.504C1677.4,-166.311 1560.56,-149.198 1484.12,-138.003"/>
<polygon fill="midnightblue" stroke="midnightblue" points="1484.48,-134.518 1474.08,-136.532 1483.47,-141.444 1484.48,-134.518"/>
</g>
<!-- Node33 -->
<g id="node77" class="node"><title>Node33</title>
<polygon fill="white" stroke="#bfbfbf" points="2142,-116.5 2142,-137.5 2194,-137.5 2194,-116.5 2142,-116.5"/>
<text text-anchor="middle" x="2168" y="-124.5" font-family="Helvetica,sans-Serif" font-size="10.00">Event.h</text>
</g>
<!-- Node25&#45;&gt;Node33 -->
<g id="edge88" class="edge"><title>Node25&#45;&gt;Node33</title>
<path fill="none" stroke="midnightblue" d="M1863.15,-176.055C1867.83,-175.353 1872.5,-174.661 1877,-174 1987.46,-157.796 2019.15,-162.99 2131.7,-138.021"/>
<polygon fill="midnightblue" stroke="midnightblue" points="2132.77,-141.369 2141.75,-135.759 2131.23,-134.539 2132.77,-141.369"/>
</g>
<!-- Node34 -->
<g id="node79" class="node"><title>Node34</title>
<a xlink:href="SuspendBlocker_8h.htm" target="_top" xlink:title="SuspendBlocker.h">
<polygon fill="white" stroke="black" points="2413.5,-116.5 2413.5,-137.5 2514.5,-137.5 2514.5,-116.5 2413.5,-116.5"/>
<text text-anchor="middle" x="2464" y="-124.5" font-family="Helvetica,sans-Serif" font-size="10.00">SuspendBlocker.h</text>
</a>
</g>
<!-- Node25&#45;&gt;Node34 -->
<g id="edge90" class="edge"><title>Node25&#45;&gt;Node34</title>
<path fill="none" stroke="midnightblue" d="M1863.1,-175.7C1867.8,-175.078 1872.48,-174.5 1877,-174 2108.58,-148.384 2168.67,-165.769 2400,-138 2401.09,-137.869 2402.19,-137.732 2403.3,-137.59"/>
<polygon fill="midnightblue" stroke="midnightblue" points="2403.99,-141.027 2413.41,-136.182 2403.03,-134.094 2403.99,-141.027"/>
</g>
<!-- Node35 -->
<g id="node84" class="node"><title>Node35</title>
<a xlink:href="VariantAnimation_8h.htm" target="_top" xlink:title="VariantAnimation.h">
<polygon fill="white" stroke="red" points="2223.5,-58.5 2223.5,-79.5 2328.5,-79.5 2328.5,-58.5 2223.5,-58.5"/>
<text text-anchor="middle" x="2276" y="-66.5" font-family="Helvetica,sans-Serif" font-size="10.00">VariantAnimation.h</text>
</a>
</g>
<!-- Node25&#45;&gt;Node35 -->
<g id="edge98" class="edge"><title>Node25&#45;&gt;Node35</title>
<path fill="none" stroke="midnightblue" d="M1863.11,-175.774C1867.81,-175.135 1872.48,-174.534 1877,-174 1924.61,-168.376 2274.54,-173.288 2307,-138 2320.35,-123.483 2307.37,-102.251 2294.35,-87.1793"/>
<polygon fill="midnightblue" stroke="midnightblue" points="2296.64,-84.4972 2287.29,-79.5217 2291.5,-89.2444 2296.64,-84.4972"/>
</g>
<!-- Node36 -->
<g id="node87" class="node"><title>Node36</title>
<a xlink:href="Window_8h.htm" target="_top" xlink:title="Window.h">
<polygon fill="white" stroke="red" points="2144,-58.5 2144,-79.5 2206,-79.5 2206,-58.5 2144,-58.5"/>
<text text-anchor="middle" x="2175" y="-66.5" font-family="Helvetica,sans-Serif" font-size="10.00">Window.h</text>
</a>
</g>
<!-- Node25&#45;&gt;Node36 -->
<g id="edge102" class="edge"><title>Node25&#45;&gt;Node36</title>
<path fill="none" stroke="midnightblue" d="M1863.11,-175.791C1867.81,-175.148 1872.48,-174.541 1877,-174 1922.85,-168.51 2259.8,-172.034 2291,-138 2297.61,-130.793 2296.46,-124.109 2291,-116 2282.14,-102.846 2245.66,-89.4088 2215.94,-80.29"/>
<polygon fill="midnightblue" stroke="midnightblue" points="2216.75,-76.8807 2206.17,-77.3698 2214.75,-83.5874 2216.75,-76.8807"/>
</g>
<!-- Node37 -->
<g id="node92" class="node"><title>Node37</title>
<polygon fill="white" stroke="#bfbfbf" points="1699,-58.5 1699,-79.5 1791,-79.5 1791,-58.5 1699,-58.5"/>
<text text-anchor="middle" x="1745" y="-66.5" font-family="Helvetica,sans-Serif" font-size="10.00">CustomEvents.h</text>
</g>
<!-- Node25&#45;&gt;Node37 -->
<g id="edge110" class="edge"><title>Node25&#45;&gt;Node37</title>
<path fill="none" stroke="midnightblue" d="M1746.99,-179.889C1692.12,-173.711 1615.49,-161.136 1597,-138 1590.9,-130.362 1591.23,-123.891 1597,-116 1608.17,-100.736 1651.55,-88.0856 1688.48,-79.7688"/>
<polygon fill="midnightblue" stroke="midnightblue" points="1689.67,-83.0916 1698.7,-77.5394 1688.18,-76.2526 1689.67,-83.0916"/>
</g>
<!-- Node38 -->
<g id="node94" class="node"><title>Node38</title>
<a xlink:href="StatusBar_8h.htm" target="_top" xlink:title="StatusBar.h">
<polygon fill="white" stroke="red" points="2211.5,-116.5 2211.5,-137.5 2282.5,-137.5 2282.5,-116.5 2211.5,-116.5"/>
<text text-anchor="middle" x="2247" y="-124.5" font-family="Helvetica,sans-Serif" font-size="10.00">StatusBar.h</text>
</a>
</g>
<!-- Node25&#45;&gt;Node38 -->
<g id="edge112" class="edge"><title>Node25&#45;&gt;Node38</title>
<path fill="none" stroke="midnightblue" d="M1863.13,-175.907C1867.82,-175.238 1872.49,-174.594 1877,-174 2018.28,-155.415 2057.76,-163.357 2201.02,-138.191"/>
<polygon fill="midnightblue" stroke="midnightblue" points="2201.84,-141.602 2211.07,-136.403 2200.61,-134.71 2201.84,-141.602"/>
</g>
<!-- Node32&#45;&gt;Node8 -->
<g id="edge84" class="edge"><title>Node32&#45;&gt;Node8</title>
<path fill="none" stroke="midnightblue" d="M1396.7,-116.431C1379.11,-101.739 1345.32,-75.0346 1313,-58 1281,-41.1322 1241.61,-27.8329 1214.63,-19.7481"/>
<polygon fill="midnightblue" stroke="midnightblue" points="1215.52,-16.3616 1204.94,-16.9083 1213.55,-23.0792 1215.52,-16.3616"/>
</g>
<!-- Node32&#45;&gt;Node20 -->
<g id="edge82" class="edge"><title>Node32&#45;&gt;Node20</title>
<path fill="none" stroke="midnightblue" d="M1474.08,-118.252C1540.53,-108.682 1635.53,-92.9751 1647,-80 1658.46,-67.0405 1658.61,-46.8205 1656.54,-31.613"/>
<polygon fill="midnightblue" stroke="midnightblue" points="1659.96,-30.8424 1654.78,-21.6009 1653.07,-32.0564 1659.96,-30.8424"/>
</g>
<!-- Node32&#45;&gt;Node21 -->
<g id="edge86" class="edge"><title>Node32&#45;&gt;Node21</title>
<path fill="none" stroke="midnightblue" d="M1374.59,-116.497C1336.77,-104.95 1276.94,-86.6879 1243.57,-76.5005"/>
<polygon fill="midnightblue" stroke="midnightblue" points="1244.31,-73.0676 1233.73,-73.4954 1242.27,-79.7626 1244.31,-73.0676"/>
</g>
<!-- Node34&#45;&gt;Node5 -->
<g id="edge96" class="edge"><title>Node34&#45;&gt;Node5</title>
<path fill="none" stroke="midnightblue" d="M2413.31,-123.297C2378.84,-120.897 2332.19,-117.879 2291,-116 1713.16,-89.643 1567.47,-113.572 990,-80 965.302,-78.5642 937.899,-76.2131 915.148,-74.0523"/>
<polygon fill="midnightblue" stroke="midnightblue" points="915.339,-70.5545 905.049,-73.0769 914.666,-77.5221 915.339,-70.5545"/>
</g>
<!-- Node34&#45;&gt;Node9 -->
<g id="edge94" class="edge"><title>Node34&#45;&gt;Node9</title>
<path fill="none" stroke="midnightblue" d="M2462.86,-116.21C2460.73,-101.256 2454.83,-74.2414 2439,-58 2415.01,-33.3872 2376.61,-21.3895 2349.72,-15.7296"/>
<polygon fill="midnightblue" stroke="midnightblue" points="2350.17,-12.251 2339.68,-13.7959 2348.84,-19.1246 2350.17,-12.251"/>
</g>
<!-- Node34&#45;&gt;Node20 -->
<g id="edge92" class="edge"><title>Node34&#45;&gt;Node20</title>
<path fill="none" stroke="midnightblue" d="M2457.95,-116.493C2448.11,-100.567 2427.02,-70.813 2400,-58 2336.42,-27.8472 1846.25,-15.0943 1695.78,-11.8646"/>
<polygon fill="midnightblue" stroke="midnightblue" points="1695.62,-8.36045 1685.55,-11.6484 1695.47,-15.3589 1695.62,-8.36045"/>
</g>
<!-- Node35&#45;&gt;Node20 -->
<g id="edge100" class="edge"><title>Node35&#45;&gt;Node20</title>
<path fill="none" stroke="midnightblue" d="M2223.48,-59.2014C2220.61,-58.7694 2217.77,-58.3651 2215,-58 2022.38,-32.6514 1790.79,-18.3918 1695.84,-13.2366"/>
<polygon fill="midnightblue" stroke="midnightblue" points="1695.93,-9.73598 1685.75,-12.6951 1695.55,-16.7259 1695.93,-9.73598"/>
</g>
<!-- Node36&#45;&gt;Node8 -->
<g id="edge106" class="edge"><title>Node36&#45;&gt;Node8</title>
<path fill="none" stroke="midnightblue" d="M2143.61,-68.2482C2027.35,-65.2781 1610.34,-52.9747 1268,-22 1250.25,-20.3941 1230.51,-17.8832 1214.52,-15.6656"/>
<polygon fill="midnightblue" stroke="midnightblue" points="1215,-12.1996 1204.61,-14.2631 1214.02,-19.1304 1215,-12.1996"/>
</g>
<!-- Node36&#45;&gt;Node9 -->
<g id="edge108" class="edge"><title>Node36&#45;&gt;Node9</title>
<path fill="none" stroke="midnightblue" d="M2201.08,-58.4966C2225.8,-48.539 2262.92,-33.588 2288.89,-23.1276"/>
<polygon fill="midnightblue" stroke="midnightblue" points="2290.28,-26.341 2298.25,-19.3582 2287.67,-19.8478 2290.28,-26.341"/>
</g>
<!-- Node36&#45;&gt;Node20 -->
<g id="edge104" class="edge"><title>Node36&#45;&gt;Node20</title>
<path fill="none" stroke="midnightblue" d="M2143.85,-65.5455C2054.77,-55.6665 1798.76,-27.2755 1695.73,-15.8495"/>
<polygon fill="midnightblue" stroke="midnightblue" points="1695.99,-12.3574 1685.67,-14.7337 1695.22,-19.3147 1695.99,-12.3574"/>
</g>
<!-- Node38&#45;&gt;Node35 -->
<g id="edge116" class="edge"><title>Node38&#45;&gt;Node35</title>
<path fill="none" stroke="midnightblue" d="M2252.32,-116.362C2256.2,-108.595 2261.58,-97.8426 2266.23,-88.5458"/>
<polygon fill="midnightblue" stroke="midnightblue" points="2269.37,-90.0802 2270.71,-79.5707 2263.11,-86.9497 2269.37,-90.0802"/>
</g>
<!-- Node38&#45;&gt;Node36 -->
<g id="edge114" class="edge"><title>Node38&#45;&gt;Node36</title>
<path fill="none" stroke="midnightblue" d="M2233.79,-116.362C2223.24,-107.859 2208.24,-95.7785 2196.04,-85.9466"/>
<polygon fill="midnightblue" stroke="midnightblue" points="2198.11,-83.1183 2188.12,-79.5707 2193.71,-88.5696 2198.11,-83.1183"/>
</g>
<!-- Node38&#45;&gt;Node37 -->
<g id="edge118" class="edge"><title>Node38&#45;&gt;Node37</title>
<path fill="none" stroke="midnightblue" d="M2211.07,-117.574C2208.35,-116.996 2205.64,-116.462 2203,-116 2059.45,-90.8226 1888.04,-77.6672 1801.28,-72.181"/>
<polygon fill="midnightblue" stroke="midnightblue" points="1801.33,-68.6771 1791.13,-71.5497 1800.89,-75.6636 1801.33,-68.6771"/>
</g>
<!-- Node40&#45;&gt;Node5 -->
<g id="edge130" class="edge"><title>Node40&#45;&gt;Node5</title>
<path fill="none" stroke="midnightblue" d="M854.2,-174.295C856.347,-155.131 860.884,-114.654 863.664,-89.8434"/>
<polygon fill="midnightblue" stroke="midnightblue" points="867.168,-90.0068 864.803,-79.6792 860.211,-89.2272 867.168,-90.0068"/>
</g>
<!-- Node40&#45;&gt;Node8 -->
<g id="edge128" class="edge"><title>Node40&#45;&gt;Node8</title>
<path fill="none" stroke="midnightblue" d="M844.372,-174.358C826.146,-150.542 787.792,-92.3472 818,-58 839.901,-33.098 1066.36,-17.6737 1151.17,-12.7332"/>
<polygon fill="midnightblue" stroke="midnightblue" points="1151.46,-16.2222 1161.24,-12.1569 1151.06,-9.23366 1151.46,-16.2222"/>
</g>
<!-- Node40&#45;&gt;Node12 -->
<g id="edge136" class="edge"><title>Node40&#45;&gt;Node12</title>
<path fill="none" stroke="midnightblue" d="M894.526,-176.752C951.328,-165.469 1052.43,-145.387 1107.21,-134.506"/>
<polygon fill="midnightblue" stroke="midnightblue" points="1108.07,-137.903 1117.2,-132.522 1106.71,-131.037 1108.07,-137.903"/>
</g>
<!-- Node40&#45;&gt;Node20 -->
<g id="edge124" class="edge"><title>Node40&#45;&gt;Node20</title>
<path fill="none" stroke="midnightblue" d="M885.328,-174.492C939.618,-157.003 1046.99,-123.136 1086,-116 1192.53,-96.5134 1471.95,-121.455 1572,-80 1598.26,-69.1186 1622.05,-46.1228 1636.73,-29.6691"/>
<polygon fill="midnightblue" stroke="midnightblue" points="1639.67,-31.621 1643.54,-21.7601 1634.36,-27.0524 1639.67,-31.621"/>
</g>
<!-- Node40&#45;&gt;Node37 -->
<g id="edge134" class="edge"><title>Node40&#45;&gt;Node37</title>
<path fill="none" stroke="midnightblue" d="M894.609,-181.766C923.14,-179.557 961.86,-176.575 996,-174 1212.42,-157.677 1268.94,-173.788 1483,-138 1561.94,-124.803 1651.69,-98.6655 1703.01,-82.6207"/>
<polygon fill="midnightblue" stroke="midnightblue" points="1704.26,-85.8965 1712.74,-79.5531 1702.15,-79.2201 1704.26,-85.8965"/>
</g>
<!-- Node41 -->
<g id="node104" class="node"><title>Node41</title>
<polygon fill="white" stroke="#bfbfbf" points="564,-116.5 564,-137.5 678,-137.5 678,-116.5 564,-116.5"/>
<text text-anchor="middle" x="621" y="-124.5" font-family="Helvetica,sans-Serif" font-size="10.00">LocalePreferences.h</text>
</g>
<!-- Node40&#45;&gt;Node41 -->
<g id="edge126" class="edge"><title>Node40&#45;&gt;Node41</title>
<path fill="none" stroke="midnightblue" d="M811.255,-174.564C772.486,-164.872 714.627,-150.407 672.899,-139.975"/>
<polygon fill="midnightblue" stroke="midnightblue" points="673.743,-136.578 663.193,-137.548 672.045,-143.369 673.743,-136.578"/>
</g>
<!-- Node42 -->
<g id="node108" class="node"><title>Node42</title>
<polygon fill="white" stroke="#bfbfbf" points="695.5,-116.5 695.5,-137.5 748.5,-137.5 748.5,-116.5 695.5,-116.5"/>
<text text-anchor="middle" x="722" y="-124.5" font-family="Helvetica,sans-Serif" font-size="10.00">Mutex.h</text>
</g>
<!-- Node40&#45;&gt;Node42 -->
<g id="edge132" class="edge"><title>Node40&#45;&gt;Node42</title>
<path fill="none" stroke="midnightblue" d="M829.277,-174.497C808.632,-165.356 778.484,-152.008 755.401,-141.788"/>
<polygon fill="midnightblue" stroke="midnightblue" points="756.55,-138.469 745.989,-137.621 753.716,-144.87 756.55,-138.469"/>
</g>
<!-- Node43&#45;&gt;Node8 -->
<g id="edge142" class="edge"><title>Node43&#45;&gt;Node8</title>
<path fill="none" stroke="midnightblue" d="M1071.46,-174.283C1067.29,-159.415 1062.49,-132.503 1076,-116 1123.81,-57.5782 1194.61,-138.767 1242,-80 1256.96,-61.4523 1233.68,-40.7491 1212.1,-26.9039"/>
<polygon fill="midnightblue" stroke="midnightblue" points="1213.75,-23.808 1203.38,-21.5953 1210.1,-29.7864 1213.75,-23.808"/>
</g>
<!-- Node43&#45;&gt;Node12 -->
<g id="edge144" class="edge"><title>Node43&#45;&gt;Node12</title>
<path fill="none" stroke="midnightblue" d="M1087.84,-174.362C1098,-165.941 1112.4,-154.011 1124.2,-144.231"/>
<polygon fill="midnightblue" stroke="midnightblue" points="1126.78,-146.646 1132.24,-137.571 1122.31,-141.256 1126.78,-146.646"/>
</g>
<!-- Node43&#45;&gt;Node19 -->
<g id="edge148" class="edge"><title>Node43&#45;&gt;Node19</title>
<path fill="none" stroke="midnightblue" d="M1049.28,-174.497C1026.71,-165.275 993.642,-151.769 968.537,-141.515"/>
<polygon fill="midnightblue" stroke="midnightblue" points="969.585,-138.162 959.004,-137.621 966.938,-144.643 969.585,-138.162"/>
</g>
<!-- Node43&#45;&gt;Node20 -->
<g id="edge140" class="edge"><title>Node43&#45;&gt;Node20</title>
<path fill="none" stroke="midnightblue" d="M1076.83,-174.439C1080.16,-158.721 1088.84,-129.571 1109,-116 1201.42,-53.7983 1513.61,-137.531 1609,-80 1627.05,-69.117 1638.67,-47.46 1645.22,-31.2971"/>
<polygon fill="midnightblue" stroke="midnightblue" points="1648.61,-32.2304 1648.81,-21.6375 1642.05,-29.791 1648.61,-32.2304"/>
</g>
<!-- Node43&#45;&gt;Node22 -->
<g id="edge146" class="edge"><title>Node43&#45;&gt;Node22</title>
<path fill="none" stroke="midnightblue" d="M1004.57,-179.296C963.372,-173.478 911.646,-161.73 871,-138 840.844,-120.395 830.634,-112.554 818,-80 803.23,-41.9423 862.636,-23.6492 901.54,-15.8993"/>
<polygon fill="midnightblue" stroke="midnightblue" points="902.218,-19.3335 911.411,-14.0677 900.941,-12.4509 902.218,-19.3335"/>
</g>
<!-- Node44&#45;&gt;Node8 -->
<g id="edge160" class="edge"><title>Node44&#45;&gt;Node8</title>
<path fill="none" stroke="midnightblue" d="M1399.19,-58.4966C1345.71,-46.7459 1260.57,-28.0413 1214.72,-17.9688"/>
<polygon fill="midnightblue" stroke="midnightblue" points="1215.27,-14.5069 1204.76,-15.7795 1213.77,-21.3439 1215.27,-14.5069"/>
</g>
<!-- Node44&#45;&gt;Node9 -->
<g id="edge158" class="edge"><title>Node44&#45;&gt;Node9</title>
<path fill="none" stroke="midnightblue" d="M1529.82,-63.4912C1717.18,-51.0296 2166.69,-21.131 2288.25,-13.0454"/>
<polygon fill="midnightblue" stroke="midnightblue" points="2288.6,-16.53 2298.34,-12.374 2288.13,-9.54544 2288.6,-16.53"/>
</g>
<!-- Node44&#45;&gt;Node20 -->
<g id="edge152" class="edge"><title>Node44&#45;&gt;Node20</title>
<path fill="none" stroke="midnightblue" d="M1484.12,-58.4966C1519.03,-48.6199 1571.31,-33.8304 1608.23,-23.3833"/>
<polygon fill="midnightblue" stroke="midnightblue" points="1609.54,-26.6498 1618.21,-20.5595 1607.64,-19.9142 1609.54,-26.6498"/>
</g>
<!-- Node45 -->
<g id="node122" class="node"><title>Node45</title>
<polygon fill="white" stroke="#bfbfbf" points="1277,-0.5 1277,-21.5 1407,-21.5 1407,-0.5 1277,-0.5"/>
<text text-anchor="middle" x="1342" y="-8.5" font-family="Helvetica,sans-Serif" font-size="10.00">BannerMessageEvent.h</text>
</g>
<!-- Node44&#45;&gt;Node45 -->
<g id="edge154" class="edge"><title>Node44&#45;&gt;Node45</title>
<path fill="none" stroke="midnightblue" d="M1427.74,-58.3619C1411.53,-49.4094 1388.15,-36.4908 1369.89,-26.4064"/>
<polygon fill="midnightblue" stroke="midnightblue" points="1371.58,-23.3422 1361.14,-21.5707 1368.2,-29.4696 1371.58,-23.3422"/>
</g>
<!-- Node46 -->
<g id="node124" class="node"><title>Node46</title>
<polygon fill="white" stroke="#bfbfbf" points="1424.5,-0.5 1424.5,-21.5 1557.5,-21.5 1557.5,-0.5 1424.5,-0.5"/>
<text text-anchor="middle" x="1491" y="-8.5" font-family="Helvetica,sans-Serif" font-size="10.00">ActiveCallBannerEvent.h</text>
</g>
<!-- Node44&#45;&gt;Node46 -->
<g id="edge156" class="edge"><title>Node44&#45;&gt;Node46</title>
<path fill="none" stroke="midnightblue" d="M1455.07,-58.3619C1461.15,-50.3496 1469.64,-39.1605 1476.84,-29.6696"/>
<polygon fill="midnightblue" stroke="midnightblue" points="1479.73,-31.653 1482.98,-21.5707 1474.15,-27.4222 1479.73,-31.653"/>
</g>
</g>
</svg>
