<?xml version="1.0" encoding="UTF-8" standalone="no"?>
<!DOCTYPE svg PUBLIC "-//W3C//DTD SVG 1.1//EN"
 "http://www.w3.org/Graphics/SVG/1.1/DTD/svg11.dtd">
<!-- Generated by graphviz version 2.26.3 (20100126.1600)
 -->
<!-- Title: SystemService.h Pages: 1 -->
<svg width="372pt" height="88pt"
 viewBox="0.00 0.00 372.00 88.00" xmlns="http://www.w3.org/2000/svg" xmlns:xlink="http://www.w3.org/1999/xlink">
<g id="graph1" class="graph" transform="scale(1 1) rotate(0) translate(4 84)">
<title>SystemService.h</title>
<polygon fill="white" stroke="white" points="-4,5 -4,-84 369,-84 369,5 -4,5"/>
<!-- Node1 -->
<g id="node1" class="node"><title>Node1</title>
<polygon fill="#bfbfbf" stroke="black" points="135.5,-58.5 135.5,-79.5 230.5,-79.5 230.5,-58.5 135.5,-58.5"/>
<text text-anchor="middle" x="183" y="-66.5" font-family="Helvetica,sans-Serif" font-size="10.00">SystemService.h</text>
</g>
<!-- Node2 -->
<g id="node3" class="node"><title>Node2</title>
<polygon fill="white" stroke="#bfbfbf" points="-0.5,-0.5 -0.5,-21.5 66.5,-21.5 66.5,-0.5 -0.5,-0.5"/>
<text text-anchor="middle" x="33" y="-8.5" font-family="Helvetica,sans-Serif" font-size="10.00">Common.h</text>
</g>
<!-- Node1&#45;&gt;Node2 -->
<g id="edge2" class="edge"><title>Node1&#45;&gt;Node2</title>
<path fill="none" stroke="midnightblue" d="M155.836,-58.4966C131.7,-49.1639 96.219,-35.4447 69.5883,-25.1475"/>
<polygon fill="midnightblue" stroke="midnightblue" points="70.8041,-21.8651 60.2148,-21.5231 68.2796,-28.394 70.8041,-21.8651"/>
</g>
<!-- Node3 -->
<g id="node5" class="node"><title>Node3</title>
<polygon fill="white" stroke="#bfbfbf" points="83.5,-0.5 83.5,-21.5 126.5,-21.5 126.5,-0.5 83.5,-0.5"/>
<text text-anchor="middle" x="105" y="-8.5" font-family="Helvetica,sans-Serif" font-size="10.00">string</text>
</g>
<!-- Node1&#45;&gt;Node3 -->
<g id="edge4" class="edge"><title>Node1&#45;&gt;Node3</title>
<path fill="none" stroke="midnightblue" d="M168.694,-58.3619C157.149,-49.7773 140.7,-37.5459 127.41,-27.6636"/>
<polygon fill="midnightblue" stroke="midnightblue" points="129.329,-24.7291 119.216,-21.5707 125.152,-30.3463 129.329,-24.7291"/>
</g>
<!-- Node4 -->
<g id="node7" class="node"><title>Node4</title>
<polygon fill="white" stroke="#bfbfbf" points="144,-0.5 144,-21.5 222,-21.5 222,-0.5 144,-0.5"/>
<text text-anchor="middle" x="183" y="-8.5" font-family="Helvetica,sans-Serif" font-size="10.00">lunaservice.h</text>
</g>
<!-- Node1&#45;&gt;Node4 -->
<g id="edge6" class="edge"><title>Node1&#45;&gt;Node4</title>
<path fill="none" stroke="midnightblue" d="M183,-58.3619C183,-50.9219 183,-40.7427 183,-31.7276"/>
<polygon fill="midnightblue" stroke="midnightblue" points="186.5,-31.5706 183,-21.5707 179.5,-31.5707 186.5,-31.5706"/>
</g>
<!-- Node5 -->
<g id="node9" class="node"><title>Node5</title>
<polygon fill="white" stroke="#bfbfbf" points="240,-0.5 240,-21.5 292,-21.5 292,-0.5 240,-0.5"/>
<text text-anchor="middle" x="266" y="-8.5" font-family="Helvetica,sans-Serif" font-size="10.00">QTimer</text>
</g>
<!-- Node1&#45;&gt;Node5 -->
<g id="edge8" class="edge"><title>Node1&#45;&gt;Node5</title>
<path fill="none" stroke="midnightblue" d="M198.223,-58.3619C210.625,-49.6955 228.346,-37.3126 242.557,-27.3819"/>
<polygon fill="midnightblue" stroke="midnightblue" points="244.681,-30.1676 250.873,-21.5707 240.671,-24.4297 244.681,-30.1676"/>
</g>
<!-- Node6 -->
<g id="node11" class="node"><title>Node6</title>
<polygon fill="white" stroke="#bfbfbf" points="309.5,-0.5 309.5,-21.5 364.5,-21.5 364.5,-0.5 309.5,-0.5"/>
<text text-anchor="middle" x="337" y="-8.5" font-family="Helvetica,sans-Serif" font-size="10.00">QObject</text>
</g>
<!-- Node1&#45;&gt;Node6 -->
<g id="edge10" class="edge"><title>Node1&#45;&gt;Node6</title>
<path fill="none" stroke="midnightblue" d="M210.888,-58.4966C235.746,-49.1348 272.322,-35.3591 299.691,-25.0513"/>
<polygon fill="midnightblue" stroke="midnightblue" points="301.195,-28.2252 309.319,-21.4252 298.727,-21.6744 301.195,-28.2252"/>
</g>
</g>
</svg>
