<?xml version="1.0" encoding="UTF-8" standalone="no"?>
<!DOCTYPE svg PUBLIC "-//W3C//DTD SVG 1.1//EN"
 "http://www.w3.org/Graphics/SVG/1.1/DTD/svg11.dtd">
<!-- Generated by graphviz version 2.26.3 (20100126.1600)
 -->
<!-- Title: testiconfactory.h Pages: 1 -->
<svg width="1094pt" height="262pt"
 viewBox="0.00 0.00 1094.00 262.00" xmlns="http://www.w3.org/2000/svg" xmlns:xlink="http://www.w3.org/1999/xlink">
<g id="graph1" class="graph" transform="scale(1 1) rotate(0) translate(4 258)">
<title>testiconfactory.h</title>
<polygon fill="white" stroke="white" points="-4,5 -4,-258 1091,-258 1091,5 -4,5"/>
<!-- Node1 -->
<g id="node1" class="node"><title>Node1</title>
<polygon fill="#bfbfbf" stroke="black" points="352,-232.5 352,-253.5 446,-253.5 446,-232.5 352,-232.5"/>
<text text-anchor="middle" x="399" y="-240.5" font-family="Helvetica,sans-Serif" font-size="10.00">testiconfactory.h</text>
</g>
<!-- Node2 -->
<g id="node3" class="node"><title>Node2</title>
<polygon fill="white" stroke="#bfbfbf" points="394.5,-58.5 394.5,-79.5 449.5,-79.5 449.5,-58.5 394.5,-58.5"/>
<text text-anchor="middle" x="422" y="-66.5" font-family="Helvetica,sans-Serif" font-size="10.00">QObject</text>
</g>
<!-- Node1&#45;&gt;Node2 -->
<g id="edge2" class="edge"><title>Node1&#45;&gt;Node2</title>
<path fill="none" stroke="midnightblue" d="M400.682,-232.183C402.145,-222.663 404.293,-208.423 406,-196 411.143,-158.58 416.51,-114.865 419.536,-89.7102"/>
<polygon fill="midnightblue" stroke="midnightblue" points="423.039,-89.8929 420.753,-79.5477 416.089,-89.0608 423.039,-89.8929"/>
</g>
<!-- Node3 -->
<g id="node5" class="node"><title>Node3</title>
<polygon fill="white" stroke="#bfbfbf" points="94.5,-0.5 94.5,-21.5 135.5,-21.5 135.5,-0.5 94.5,-0.5"/>
<text text-anchor="middle" x="115" y="-8.5" font-family="Helvetica,sans-Serif" font-size="10.00">QList</text>
</g>
<!-- Node1&#45;&gt;Node3 -->
<g id="edge4" class="edge"><title>Node1&#45;&gt;Node3</title>
<path fill="none" stroke="midnightblue" d="M351.989,-234.4C271.596,-218.633 113.231,-182.585 81,-138 75.6518,-130.602 69.4,-96.708 82,-58 85.3898,-47.5862 91.9462,-37.456 98.3276,-29.2833"/>
<polygon fill="midnightblue" stroke="midnightblue" points="101.063,-31.4686 104.774,-21.5452 95.6844,-26.988 101.063,-31.4686"/>
</g>
<!-- Node4 -->
<g id="node7" class="node"><title>Node4</title>
<polygon fill="white" stroke="#bfbfbf" points="351,-174.5 351,-195.5 397,-195.5 397,-174.5 351,-174.5"/>
<text text-anchor="middle" x="374" y="-182.5" font-family="Helvetica,sans-Serif" font-size="10.00">QMap</text>
</g>
<!-- Node1&#45;&gt;Node4 -->
<g id="edge6" class="edge"><title>Node1&#45;&gt;Node4</title>
<path fill="none" stroke="midnightblue" d="M394.415,-232.362C391.102,-224.677 386.53,-214.069 382.552,-204.84"/>
<polygon fill="midnightblue" stroke="midnightblue" points="385.729,-203.368 378.556,-195.571 379.301,-206.139 385.729,-203.368"/>
</g>
<!-- Node5 -->
<g id="node9" class="node"><title>Node5</title>
<polygon fill="white" stroke="#bfbfbf" points="-0.5,-0.5 -0.5,-21.5 52.5,-21.5 52.5,-0.5 -0.5,-0.5"/>
<text text-anchor="middle" x="26" y="-8.5" font-family="Helvetica,sans-Serif" font-size="10.00">QString</text>
</g>
<!-- Node1&#45;&gt;Node5 -->
<g id="edge8" class="edge"><title>Node1&#45;&gt;Node5</title>
<path fill="none" stroke="midnightblue" d="M351.824,-237.251C286.763,-228.873 173.196,-212.501 135,-196 71.4356,-168.54 47.9213,-147.143 31,-80 27.0559,-64.3501 25.8748,-46.1185 25.6426,-32.3274"/>
<polygon fill="midnightblue" stroke="midnightblue" points="29.1423,-31.9374 25.6311,-21.9414 22.1423,-31.9453 29.1423,-31.9374"/>
</g>
<!-- Node6 -->
<g id="node11" class="node"><title>Node6</title>
<polygon fill="white" stroke="#bfbfbf" points="818.5,-0.5 818.5,-21.5 877.5,-21.5 877.5,-0.5 818.5,-0.5"/>
<text text-anchor="middle" x="848" y="-8.5" font-family="Helvetica,sans-Serif" font-size="10.00">QPointer</text>
</g>
<!-- Node1&#45;&gt;Node6 -->
<g id="edge10" class="edge"><title>Node1&#45;&gt;Node6</title>
<path fill="none" stroke="midnightblue" d="M446.424,-241.468C568.675,-236.421 889.48,-215.871 954,-138 987.388,-97.7027 919.541,-50.4277 877.659,-26.5249"/>
<polygon fill="midnightblue" stroke="midnightblue" points="879.097,-23.3198 868.657,-21.5158 875.694,-29.4366 879.097,-23.3198"/>
</g>
<!-- Node7 -->
<g id="node13" class="node"><title>Node7</title>
<a xlink:href="icon_8h.htm" target="_top" xlink:title="icon.h">
<polygon fill="white" stroke="black" points="545,-174.5 545,-195.5 589,-195.5 589,-174.5 545,-174.5"/>
<text text-anchor="middle" x="567" y="-182.5" font-family="Helvetica,sans-Serif" font-size="10.00">icon.h</text>
</a>
</g>
<!-- Node1&#45;&gt;Node7 -->
<g id="edge12" class="edge"><title>Node1&#45;&gt;Node7</title>
<path fill="none" stroke="midnightblue" d="M429.424,-232.497C459.327,-222.173 504.778,-206.481 535.161,-195.992"/>
<polygon fill="midnightblue" stroke="midnightblue" points="536.532,-199.221 544.843,-192.65 534.248,-192.605 536.532,-199.221"/>
</g>
<!-- Node7&#45;&gt;Node3 -->
<g id="edge26" class="edge"><title>Node7&#45;&gt;Node3</title>
<path fill="none" stroke="midnightblue" d="M544.999,-183.206C453.017,-175.656 103.66,-146.463 96,-138 69.3505,-108.559 88.9851,-58.6024 103.397,-30.9334"/>
<polygon fill="midnightblue" stroke="midnightblue" points="106.649,-32.2806 108.375,-21.8272 100.507,-28.923 106.649,-32.2806"/>
</g>
<!-- Node7&#45;&gt;Node5 -->
<g id="edge22" class="edge"><title>Node7&#45;&gt;Node5</title>
<path fill="none" stroke="midnightblue" d="M544.879,-183.487C452.323,-177.079 100.039,-151.86 81,-138 46.3592,-112.782 33.2912,-61.0716 28.5502,-32.0145"/>
<polygon fill="midnightblue" stroke="midnightblue" points="31.9624,-31.1538 27.0714,-21.7555 25.034,-32.1526 31.9624,-31.1538"/>
</g>
<!-- Node7&#45;&gt;Node6 -->
<g id="edge20" class="edge"><title>Node7&#45;&gt;Node6</title>
<path fill="none" stroke="midnightblue" d="M589.013,-182.989C623.072,-179.023 689.556,-167.819 737,-138 781.772,-109.86 818.613,-58.2242 836.433,-30.244"/>
<polygon fill="midnightblue" stroke="midnightblue" points="839.42,-32.0696 841.732,-21.7301 833.476,-28.3712 839.42,-32.0696"/>
</g>
<!-- Node8 -->
<g id="node15" class="node"><title>Node8</title>
<polygon fill="white" stroke="#bfbfbf" points="592,-0.5 592,-21.5 638,-21.5 638,-0.5 592,-0.5"/>
<text text-anchor="middle" x="615" y="-8.5" font-family="Helvetica,sans-Serif" font-size="10.00">QUuid</text>
</g>
<!-- Node7&#45;&gt;Node8 -->
<g id="edge14" class="edge"><title>Node7&#45;&gt;Node8</title>
<path fill="none" stroke="midnightblue" d="M589.137,-181.472C627.632,-174.837 704.312,-159.231 720,-138 750.822,-96.2882 685.334,-49.9643 644.484,-26.4786"/>
<polygon fill="midnightblue" stroke="midnightblue" points="646.126,-23.3867 635.691,-21.5537 642.706,-29.494 646.126,-23.3867"/>
</g>
<!-- Node9 -->
<g id="node17" class="node"><title>Node9</title>
<polygon fill="white" stroke="#bfbfbf" points="660.5,-0.5 660.5,-21.5 713.5,-21.5 713.5,-0.5 660.5,-0.5"/>
<text text-anchor="middle" x="687" y="-8.5" font-family="Helvetica,sans-Serif" font-size="10.00">QRectF</text>
</g>
<!-- Node7&#45;&gt;Node9 -->
<g id="edge16" class="edge"><title>Node7&#45;&gt;Node9</title>
<path fill="none" stroke="midnightblue" d="M568.308,-174.081C570.373,-159.914 575.308,-134.79 586,-116 597.167,-96.3762 641.88,-53.0565 667.918,-28.6354"/>
<polygon fill="midnightblue" stroke="midnightblue" points="670.417,-31.0909 675.342,-21.7103 665.642,-25.9722 670.417,-31.0909"/>
</g>
<!-- Node10 -->
<g id="node19" class="node"><title>Node10</title>
<polygon fill="white" stroke="#bfbfbf" points="594.5,-116.5 594.5,-137.5 641.5,-137.5 641.5,-116.5 594.5,-116.5"/>
<text text-anchor="middle" x="618" y="-124.5" font-family="Helvetica,sans-Serif" font-size="10.00">QRect</text>
</g>
<!-- Node7&#45;&gt;Node10 -->
<g id="edge18" class="edge"><title>Node7&#45;&gt;Node10</title>
<path fill="none" stroke="midnightblue" d="M576.354,-174.362C583.543,-166.186 593.641,-154.702 602.093,-145.091"/>
<polygon fill="midnightblue" stroke="midnightblue" points="604.73,-147.392 608.705,-137.571 599.473,-142.769 604.73,-147.392"/>
</g>
<!-- Node11 -->
<g id="node23" class="node"><title>Node11</title>
<polygon fill="white" stroke="#bfbfbf" points="659,-116.5 659,-137.5 711,-137.5 711,-116.5 659,-116.5"/>
<text text-anchor="middle" x="685" y="-124.5" font-family="Helvetica,sans-Serif" font-size="10.00">QTimer</text>
</g>
<!-- Node7&#45;&gt;Node11 -->
<g id="edge24" class="edge"><title>Node7&#45;&gt;Node11</title>
<path fill="none" stroke="midnightblue" d="M588.369,-174.497C606.799,-165.438 633.637,-152.246 654.355,-142.063"/>
<polygon fill="midnightblue" stroke="midnightblue" points="655.961,-145.174 663.391,-137.621 652.873,-138.891 655.961,-145.174"/>
</g>
<!-- Node12 -->
<g id="node26" class="node"><title>Node12</title>
<polygon fill="white" stroke="#bfbfbf" points="805,-116.5 805,-137.5 851,-137.5 851,-116.5 805,-116.5"/>
<text text-anchor="middle" x="828" y="-124.5" font-family="Helvetica,sans-Serif" font-size="10.00">QFont</text>
</g>
<!-- Node7&#45;&gt;Node12 -->
<g id="edge28" class="edge"><title>Node7&#45;&gt;Node12</title>
<path fill="none" stroke="midnightblue" d="M589.076,-180.992C629.41,-173.53 717.617,-156.573 791,-138 792.421,-137.64 793.87,-137.262 795.33,-136.87"/>
<polygon fill="midnightblue" stroke="midnightblue" points="796.306,-140.232 804.988,-134.16 794.415,-133.492 796.306,-140.232"/>
</g>
<!-- Node13 -->
<g id="node28" class="node"><title>Node13</title>
<polygon fill="white" stroke="#bfbfbf" points="868.5,-116.5 868.5,-137.5 945.5,-137.5 945.5,-116.5 868.5,-116.5"/>
<text text-anchor="middle" x="907" y="-124.5" font-family="Helvetica,sans-Serif" font-size="10.00">QTextLayout</text>
</g>
<!-- Node7&#45;&gt;Node13 -->
<g id="edge30" class="edge"><title>Node7&#45;&gt;Node13</title>
<path fill="none" stroke="midnightblue" d="M589.148,-181.994C636.674,-175.428 752.136,-158.857 858.396,-138.226"/>
<polygon fill="midnightblue" stroke="midnightblue" points="859.178,-141.639 868.318,-136.282 857.832,-134.77 859.178,-141.639"/>
</g>
<!-- Node14 -->
<g id="node30" class="node"><title>Node14</title>
<polygon fill="white" stroke="#bfbfbf" points="105,-116.5 105,-137.5 195,-137.5 195,-116.5 105,-116.5"/>
<text text-anchor="middle" x="150" y="-124.5" font-family="Helvetica,sans-Serif" font-size="10.00">QStateMachine</text>
</g>
<!-- Node7&#45;&gt;Node14 -->
<g id="edge32" class="edge"><title>Node7&#45;&gt;Node14</title>
<path fill="none" stroke="midnightblue" d="M544.82,-182.693C489.363,-176.804 340.037,-160.216 205.135,-138.098"/>
<polygon fill="midnightblue" stroke="midnightblue" points="205.473,-134.606 195.036,-136.427 204.331,-141.513 205.473,-134.606"/>
</g>
<!-- Node15 -->
<g id="node32" class="node"><title>Node15</title>
<a xlink:href="thingpaintable_8h.htm" target="_top" xlink:title="thingpaintable.h">
<polygon fill="white" stroke="black" points="306.5,-116.5 306.5,-137.5 397.5,-137.5 397.5,-116.5 306.5,-116.5"/>
<text text-anchor="middle" x="352" y="-124.5" font-family="Helvetica,sans-Serif" font-size="10.00">thingpaintable.h</text>
</a>
</g>
<!-- Node7&#45;&gt;Node15 -->
<g id="edge34" class="edge"><title>Node7&#45;&gt;Node15</title>
<path fill="none" stroke="midnightblue" d="M544.801,-179.011C511.087,-169.916 446.133,-152.394 400.984,-140.214"/>
<polygon fill="midnightblue" stroke="midnightblue" points="401.669,-136.774 391.102,-137.549 399.846,-143.532 401.669,-136.774"/>
</g>
<!-- Node20 -->
<g id="node49" class="node"><title>Node20</title>
<a xlink:href="pixmapobject_8h.htm" target="_top" xlink:title="pixmapobject.h">
<polygon fill="white" stroke="black" points="453,-116.5 453,-137.5 539,-137.5 539,-116.5 453,-116.5"/>
<text text-anchor="middle" x="496" y="-124.5" font-family="Helvetica,sans-Serif" font-size="10.00">pixmapobject.h</text>
</a>
</g>
<!-- Node7&#45;&gt;Node20 -->
<g id="edge58" class="edge"><title>Node7&#45;&gt;Node20</title>
<path fill="none" stroke="midnightblue" d="M553.978,-174.362C543.569,-165.859 528.781,-153.779 516.745,-143.947"/>
<polygon fill="midnightblue" stroke="midnightblue" points="518.899,-141.187 508.94,-137.571 514.47,-146.608 518.899,-141.187"/>
</g>
<!-- Node23 -->
<g id="node57" class="node"><title>Node23</title>
<a xlink:href="icondecorator_8h.htm" target="_top" xlink:title="icondecorator.h">
<polygon fill="white" stroke="black" points="983,-58.5 983,-79.5 1073,-79.5 1073,-58.5 983,-58.5"/>
<text text-anchor="middle" x="1028" y="-66.5" font-family="Helvetica,sans-Serif" font-size="10.00">icondecorator.h</text>
</a>
</g>
<!-- Node7&#45;&gt;Node23 -->
<g id="edge68" class="edge"><title>Node7&#45;&gt;Node23</title>
<path fill="none" stroke="midnightblue" d="M589.025,-184.11C660.966,-180.928 888.192,-168.632 954,-138 978.455,-126.617 1000.2,-104.062 1013.68,-87.8346"/>
<polygon fill="midnightblue" stroke="midnightblue" points="1016.77,-89.5753 1020.29,-79.5813 1011.31,-85.2007 1016.77,-89.5753"/>
</g>
<!-- Node26 -->
<g id="node65" class="node"><title>Node26</title>
<a xlink:href="renderopts_8h.htm" target="_top" xlink:title="renderopts.h">
<polygon fill="white" stroke="black" points="212.5,-116.5 212.5,-137.5 289.5,-137.5 289.5,-116.5 212.5,-116.5"/>
<text text-anchor="middle" x="251" y="-124.5" font-family="Helvetica,sans-Serif" font-size="10.00">renderopts.h</text>
</a>
</g>
<!-- Node7&#45;&gt;Node26 -->
<g id="edge78" class="edge"><title>Node7&#45;&gt;Node26</title>
<path fill="none" stroke="midnightblue" d="M544.953,-181.584C500.445,-174.596 396.486,-157.804 299.64,-138.262"/>
<polygon fill="midnightblue" stroke="midnightblue" points="300.187,-134.802 289.69,-136.239 298.793,-141.661 300.187,-134.802"/>
</g>
<!-- Node15&#45;&gt;Node5 -->
<g id="edge54" class="edge"><title>Node15&#45;&gt;Node5</title>
<path fill="none" stroke="midnightblue" d="M322.205,-116.398C262.253,-95.0656 127.241,-47.0244 62.2738,-23.9072"/>
<polygon fill="midnightblue" stroke="midnightblue" points="63.4366,-20.6061 52.8419,-20.5511 61.0899,-27.201 63.4366,-20.6061"/>
</g>
<!-- Node15&#45;&gt;Node9 -->
<g id="edge56" class="edge"><title>Node15&#45;&gt;Node9</title>
<path fill="none" stroke="midnightblue" d="M353.997,-116.345C357.518,-100.78 366.398,-72.1431 386,-58 480.961,10.5152 532.3,-45.5755 647,-22 648.093,-21.7752 649.201,-21.5374 650.317,-21.2888"/>
<polygon fill="midnightblue" stroke="midnightblue" points="651.548,-24.5917 660.438,-18.828 649.894,-17.7899 651.548,-24.5917"/>
</g>
<!-- Node16 -->
<g id="node34" class="node"><title>Node16</title>
<a xlink:href="thing_8h.htm" target="_top" xlink:title="thing.h">
<polygon fill="white" stroke="black" points="291,-58.5 291,-79.5 339,-79.5 339,-58.5 291,-58.5"/>
<text text-anchor="middle" x="315" y="-66.5" font-family="Helvetica,sans-Serif" font-size="10.00">thing.h</text>
</a>
</g>
<!-- Node15&#45;&gt;Node16 -->
<g id="edge36" class="edge"><title>Node15&#45;&gt;Node16</title>
<path fill="none" stroke="midnightblue" d="M345.214,-116.362C340.207,-108.513 333.255,-97.6159 327.282,-88.2527"/>
<polygon fill="midnightblue" stroke="midnightblue" points="330.072,-86.1189 321.743,-79.5707 324.171,-89.8837 330.072,-86.1189"/>
</g>
<!-- Node16&#45;&gt;Node3 -->
<g id="edge46" class="edge"><title>Node16&#45;&gt;Node3</title>
<path fill="none" stroke="midnightblue" d="M290.875,-62.0038C254.366,-51.4161 185.123,-31.3355 145.278,-19.7805"/>
<polygon fill="midnightblue" stroke="midnightblue" points="146.161,-16.3925 135.582,-16.9687 144.211,-23.1155 146.161,-16.3925"/>
</g>
<!-- Node16&#45;&gt;Node5 -->
<g id="edge44" class="edge"><title>Node16&#45;&gt;Node5</title>
<path fill="none" stroke="midnightblue" d="M290.857,-64.1547C240.202,-53.9886 122.562,-30.3793 62.5829,-18.3419"/>
<polygon fill="midnightblue" stroke="midnightblue" points="63.2695,-14.91 52.7763,-16.3738 61.8921,-21.7731 63.2695,-14.91"/>
</g>
<!-- Node16&#45;&gt;Node6 -->
<g id="edge42" class="edge"><title>Node16&#45;&gt;Node6</title>
<path fill="none" stroke="midnightblue" d="M339.272,-64.9177C352.968,-62.6951 370.411,-59.9991 386,-58 541.933,-38.003 728.364,-21.2007 808.362,-14.3282"/>
<polygon fill="midnightblue" stroke="midnightblue" points="808.816,-17.8023 818.481,-13.4632 808.219,-10.8277 808.816,-17.8023"/>
</g>
<!-- Node16&#45;&gt;Node8 -->
<g id="edge40" class="edge"><title>Node16&#45;&gt;Node8</title>
<path fill="none" stroke="midnightblue" d="M339.023,-61.636C343.639,-60.3375 348.452,-59.0631 353,-58 434.501,-38.9483 531.822,-23.3289 581.783,-15.8214"/>
<polygon fill="midnightblue" stroke="midnightblue" points="582.327,-19.279 591.702,-14.3441 581.296,-12.3553 582.327,-19.279"/>
</g>
<!-- Node16&#45;&gt;Node9 -->
<g id="edge48" class="edge"><title>Node16&#45;&gt;Node9</title>
<path fill="none" stroke="midnightblue" d="M339.386,-61.3179C343.882,-60.0798 348.559,-58.9086 353,-58 481.971,-31.6135 517.855,-47.5214 647,-22 648.095,-21.7836 649.204,-21.553 650.322,-21.3109"/>
<polygon fill="midnightblue" stroke="midnightblue" points="651.54,-24.6183 660.449,-18.8854 649.909,-17.8108 651.54,-24.6183"/>
</g>
<!-- Node17 -->
<g id="node36" class="node"><title>Node17</title>
<polygon fill="white" stroke="#bfbfbf" points="266,-0.5 266,-21.5 364,-21.5 364,-0.5 266,-0.5"/>
<text text-anchor="middle" x="315" y="-8.5" font-family="Helvetica,sans-Serif" font-size="10.00">QGraphicsObject</text>
</g>
<!-- Node16&#45;&gt;Node17 -->
<g id="edge38" class="edge"><title>Node16&#45;&gt;Node17</title>
<path fill="none" stroke="midnightblue" d="M315,-58.3619C315,-50.9219 315,-40.7427 315,-31.7276"/>
<polygon fill="midnightblue" stroke="midnightblue" points="318.5,-31.5706 315,-21.5707 311.5,-31.5707 318.5,-31.5706"/>
</g>
<!-- Node18 -->
<g id="node43" class="node"><title>Node18</title>
<polygon fill="white" stroke="#bfbfbf" points="381.5,-0.5 381.5,-21.5 436.5,-21.5 436.5,-0.5 381.5,-0.5"/>
<text text-anchor="middle" x="409" y="-8.5" font-family="Helvetica,sans-Serif" font-size="10.00">QDebug</text>
</g>
<!-- Node16&#45;&gt;Node18 -->
<g id="edge50" class="edge"><title>Node16&#45;&gt;Node18</title>
<path fill="none" stroke="midnightblue" d="M332.241,-58.3619C346.552,-49.532 367.115,-36.844 383.357,-26.8224"/>
<polygon fill="midnightblue" stroke="midnightblue" points="385.196,-29.8004 391.868,-21.5707 381.52,-23.8431 385.196,-29.8004"/>
</g>
<!-- Node19 -->
<g id="node45" class="node"><title>Node19</title>
<polygon fill="white" stroke="#bfbfbf" points="198,-0.5 198,-21.5 248,-21.5 248,-0.5 198,-0.5"/>
<text text-anchor="middle" x="223" y="-8.5" font-family="Helvetica,sans-Serif" font-size="10.00">QHash</text>
</g>
<!-- Node16&#45;&gt;Node19 -->
<g id="edge52" class="edge"><title>Node16&#45;&gt;Node19</title>
<path fill="none" stroke="midnightblue" d="M298.126,-58.3619C284.249,-49.6138 264.366,-37.0786 248.54,-27.1015"/>
<polygon fill="midnightblue" stroke="midnightblue" points="250.093,-23.943 239.767,-21.5707 246.36,-29.8645 250.093,-23.943"/>
</g>
<!-- Node20&#45;&gt;Node2 -->
<g id="edge60" class="edge"><title>Node20&#45;&gt;Node2</title>
<path fill="none" stroke="midnightblue" d="M482.427,-116.362C471.579,-107.859 456.166,-95.7785 443.621,-85.9466"/>
<polygon fill="midnightblue" stroke="midnightblue" points="445.516,-82.9848 435.487,-79.5707 441.198,-88.4942 445.516,-82.9848"/>
</g>
<!-- Node20&#45;&gt;Node8 -->
<g id="edge64" class="edge"><title>Node20&#45;&gt;Node8</title>
<path fill="none" stroke="midnightblue" d="M537.37,-116.473C557.696,-109.318 580.984,-97.8254 596,-80 607.355,-66.5211 611.96,-46.7958 613.809,-31.8841"/>
<polygon fill="midnightblue" stroke="midnightblue" points="617.324,-31.8804 614.752,-21.6025 610.353,-31.2411 617.324,-31.8804"/>
</g>
<!-- Node21 -->
<g id="node52" class="node"><title>Node21</title>
<polygon fill="white" stroke="#bfbfbf" points="466.5,-58.5 466.5,-79.5 525.5,-79.5 525.5,-58.5 466.5,-58.5"/>
<text text-anchor="middle" x="496" y="-66.5" font-family="Helvetica,sans-Serif" font-size="10.00">QPixmap</text>
</g>
<!-- Node20&#45;&gt;Node21 -->
<g id="edge62" class="edge"><title>Node20&#45;&gt;Node21</title>
<path fill="none" stroke="midnightblue" d="M496,-116.362C496,-108.922 496,-98.7427 496,-89.7276"/>
<polygon fill="midnightblue" stroke="midnightblue" points="499.5,-89.5706 496,-79.5707 492.5,-89.5707 499.5,-89.5706"/>
</g>
<!-- Node22 -->
<g id="node55" class="node"><title>Node22</title>
<polygon fill="white" stroke="#bfbfbf" points="542.5,-58.5 542.5,-79.5 587.5,-79.5 587.5,-58.5 542.5,-58.5"/>
<text text-anchor="middle" x="565" y="-66.5" font-family="Helvetica,sans-Serif" font-size="10.00">QSize</text>
</g>
<!-- Node20&#45;&gt;Node22 -->
<g id="edge66" class="edge"><title>Node20&#45;&gt;Node22</title>
<path fill="none" stroke="midnightblue" d="M508.656,-116.362C518.674,-107.941 532.867,-96.0105 544.501,-86.2308"/>
<polygon fill="midnightblue" stroke="midnightblue" points="547.022,-88.6844 552.425,-79.5707 542.518,-83.326 547.022,-88.6844"/>
</g>
<!-- Node23&#45;&gt;Node6 -->
<g id="edge70" class="edge"><title>Node23&#45;&gt;Node6</title>
<path fill="none" stroke="midnightblue" d="M995.403,-58.4966C965.013,-48.7043 919.637,-34.0829 887.265,-23.6521"/>
<polygon fill="midnightblue" stroke="midnightblue" points="888.259,-20.2952 877.667,-20.5595 886.112,-26.9578 888.259,-20.2952"/>
</g>
<!-- Node23&#45;&gt;Node9 -->
<g id="edge72" class="edge"><title>Node23&#45;&gt;Node9</title>
<path fill="none" stroke="midnightblue" d="M982.718,-61.298C914.556,-49.7045 786.888,-27.9897 723.974,-17.2888"/>
<polygon fill="midnightblue" stroke="midnightblue" points="724.174,-13.7727 713.729,-15.5463 723,-20.6736 724.174,-13.7727"/>
</g>
<!-- Node24 -->
<g id="node61" class="node"><title>Node24</title>
<polygon fill="white" stroke="#bfbfbf" points="965.5,-0.5 965.5,-21.5 1020.5,-21.5 1020.5,-0.5 965.5,-0.5"/>
<text text-anchor="middle" x="993" y="-8.5" font-family="Helvetica,sans-Serif" font-size="10.00">QPointF</text>
</g>
<!-- Node23&#45;&gt;Node24 -->
<g id="edge74" class="edge"><title>Node23&#45;&gt;Node24</title>
<path fill="none" stroke="midnightblue" d="M1021.58,-58.3619C1016.84,-50.5131 1010.27,-39.6159 1004.62,-30.2527"/>
<polygon fill="midnightblue" stroke="midnightblue" points="1007.54,-28.3242 999.379,-21.5707 1001.55,-31.9409 1007.54,-28.3242"/>
</g>
<!-- Node25 -->
<g id="node63" class="node"><title>Node25</title>
<polygon fill="white" stroke="#bfbfbf" points="1037.5,-0.5 1037.5,-21.5 1086.5,-21.5 1086.5,-0.5 1037.5,-0.5"/>
<text text-anchor="middle" x="1062" y="-8.5" font-family="Helvetica,sans-Serif" font-size="10.00">QPoint</text>
</g>
<!-- Node23&#45;&gt;Node25 -->
<g id="edge76" class="edge"><title>Node23&#45;&gt;Node25</title>
<path fill="none" stroke="midnightblue" d="M1034.24,-58.3619C1038.84,-50.5131 1045.23,-39.6159 1050.71,-30.2527"/>
<polygon fill="midnightblue" stroke="midnightblue" points="1053.77,-31.9677 1055.8,-21.5707 1047.73,-28.4276 1053.77,-31.9677"/>
</g>
</g>
</svg>
