<?xml version="1.0" encoding="UTF-8" standalone="no"?>
<!DOCTYPE svg PUBLIC "-//W3C//DTD SVG 1.1//EN"
 "http://www.w3.org/Graphics/SVG/1.1/DTD/svg11.dtd">
<!-- Generated by graphviz version 2.26.3 (20100126.1600)
 -->
<!-- Title: textbox.h Pages: 1 -->
<svg width="210pt" height="88pt"
 viewBox="0.00 0.00 210.00 88.00" xmlns="http://www.w3.org/2000/svg" xmlns:xlink="http://www.w3.org/1999/xlink">
<g id="graph1" class="graph" transform="scale(1 1) rotate(0) translate(4 84)">
<title>textbox.h</title>
<polygon fill="white" stroke="white" points="-4,5 -4,-84 207,-84 207,5 -4,5"/>
<!-- Node1 -->
<g id="node1" class="node"><title>Node1</title>
<polygon fill="#bfbfbf" stroke="black" points="82.5,-58.5 82.5,-79.5 141.5,-79.5 141.5,-58.5 82.5,-58.5"/>
<text text-anchor="middle" x="112" y="-66.5" font-family="Helvetica,sans-Serif" font-size="10.00">textbox.h</text>
</g>
<!-- Node2 -->
<g id="node3" class="node"><title>Node2</title>
<a xlink:href="reorderablepage_8cpp.htm" target="_top" xlink:title="reorderablepage.cpp">
<polygon fill="white" stroke="black" points="-0.5,-0.5 -0.5,-21.5 114.5,-21.5 114.5,-0.5 -0.5,-0.5"/>
<text text-anchor="middle" x="57" y="-8.5" font-family="Helvetica,sans-Serif" font-size="10.00">reorderablepage.cpp</text>
</a>
</g>
<!-- Node1&#45;&gt;Node2 -->
<g id="edge2" class="edge"><title>Node1&#45;&gt;Node2</title>
<path fill="none" stroke="midnightblue" d="M94.7698,-50.8299C85.6454,-41.2078 74.7595,-29.7282 67.0239,-21.5707"/>
<polygon fill="midnightblue" stroke="midnightblue" points="92.4915,-53.514 101.912,-58.3619 97.5709,-48.6973 92.4915,-53.514"/>
</g>
<!-- Node3 -->
<g id="node5" class="node"><title>Node3</title>
<a xlink:href="textbox_8cpp.htm" target="_top" xlink:title="textbox.cpp">
<polygon fill="white" stroke="black" points="132,-0.5 132,-21.5 202,-21.5 202,-0.5 132,-0.5"/>
<text text-anchor="middle" x="167" y="-8.5" font-family="Helvetica,sans-Serif" font-size="10.00">textbox.cpp</text>
</a>
</g>
<!-- Node1&#45;&gt;Node3 -->
<g id="edge4" class="edge"><title>Node1&#45;&gt;Node3</title>
<path fill="none" stroke="midnightblue" d="M129.23,-50.8299C138.355,-41.2078 149.24,-29.7282 156.976,-21.5707"/>
<polygon fill="midnightblue" stroke="midnightblue" points="126.429,-48.6973 122.088,-58.3619 131.508,-53.514 126.429,-48.6973"/>
</g>
</g>
</svg>
