<?xml version="1.0" encoding="UTF-8" standalone="no"?>
<!DOCTYPE svg PUBLIC "-//W3C//DTD SVG 1.1//EN"
 "http://www.w3.org/Graphics/SVG/1.1/DTD/svg11.dtd">
<!-- Generated by graphviz version 2.26.3 (20100126.1600)
 -->
<!-- Title: thing.h Pages: 1 -->
<svg width="584pt" height="88pt"
 viewBox="0.00 0.00 584.00 88.00" xmlns="http://www.w3.org/2000/svg" xmlns:xlink="http://www.w3.org/1999/xlink">
<g id="graph1" class="graph" transform="scale(1 1) rotate(0) translate(4 84)">
<title>thing.h</title>
<polygon fill="white" stroke="white" points="-4,5 -4,-84 581,-84 581,5 -4,5"/>
<!-- Node1 -->
<g id="node1" class="node"><title>Node1</title>
<polygon fill="#bfbfbf" stroke="black" points="290,-58.5 290,-79.5 338,-79.5 338,-58.5 290,-58.5"/>
<text text-anchor="middle" x="314" y="-66.5" font-family="Helvetica,sans-Serif" font-size="10.00">thing.h</text>
</g>
<!-- Node2 -->
<g id="node3" class="node"><title>Node2</title>
<polygon fill="white" stroke="#bfbfbf" points="0,-0.5 0,-21.5 98,-21.5 98,-0.5 0,-0.5"/>
<text text-anchor="middle" x="49" y="-8.5" font-family="Helvetica,sans-Serif" font-size="10.00">QGraphicsObject</text>
</g>
<!-- Node1&#45;&gt;Node2 -->
<g id="edge2" class="edge"><title>Node1&#45;&gt;Node2</title>
<path fill="none" stroke="midnightblue" d="M289.544,-63.6475C248.447,-54.6526 164.442,-36.2665 107.416,-23.7853"/>
<polygon fill="midnightblue" stroke="midnightblue" points="107.968,-20.3234 97.4509,-21.6044 106.471,-27.1616 107.968,-20.3234"/>
</g>
<!-- Node3 -->
<g id="node5" class="node"><title>Node3</title>
<polygon fill="white" stroke="#bfbfbf" points="116,-0.5 116,-21.5 162,-21.5 162,-0.5 116,-0.5"/>
<text text-anchor="middle" x="139" y="-8.5" font-family="Helvetica,sans-Serif" font-size="10.00">QUuid</text>
</g>
<!-- Node1&#45;&gt;Node3 -->
<g id="edge4" class="edge"><title>Node1&#45;&gt;Node3</title>
<path fill="none" stroke="midnightblue" d="M289.93,-61.1991C263.318,-52.55 218.938,-38.0569 171.83,-22.2521"/>
<polygon fill="midnightblue" stroke="midnightblue" points="172.653,-18.8366 162.059,-18.9683 170.423,-25.4719 172.653,-18.8366"/>
</g>
<!-- Node4 -->
<g id="node7" class="node"><title>Node4</title>
<polygon fill="white" stroke="#bfbfbf" points="179.5,-0.5 179.5,-21.5 238.5,-21.5 238.5,-0.5 179.5,-0.5"/>
<text text-anchor="middle" x="209" y="-8.5" font-family="Helvetica,sans-Serif" font-size="10.00">QPointer</text>
</g>
<!-- Node1&#45;&gt;Node4 -->
<g id="edge6" class="edge"><title>Node1&#45;&gt;Node4</title>
<path fill="none" stroke="midnightblue" d="M294.741,-58.3619C278.534,-49.4094 255.147,-36.4908 236.891,-26.4064"/>
<polygon fill="midnightblue" stroke="midnightblue" points="238.582,-23.3422 228.137,-21.5707 235.198,-29.4696 238.582,-23.3422"/>
</g>
<!-- Node5 -->
<g id="node9" class="node"><title>Node5</title>
<polygon fill="white" stroke="#bfbfbf" points="255.5,-0.5 255.5,-21.5 308.5,-21.5 308.5,-0.5 255.5,-0.5"/>
<text text-anchor="middle" x="282" y="-8.5" font-family="Helvetica,sans-Serif" font-size="10.00">QString</text>
</g>
<!-- Node1&#45;&gt;Node5 -->
<g id="edge8" class="edge"><title>Node1&#45;&gt;Node5</title>
<path fill="none" stroke="midnightblue" d="M308.131,-58.3619C303.845,-50.5949 297.913,-39.8426 292.784,-30.5458"/>
<polygon fill="midnightblue" stroke="midnightblue" points="295.727,-28.6357 287.832,-21.5707 289.598,-32.0172 295.727,-28.6357"/>
</g>
<!-- Node6 -->
<g id="node11" class="node"><title>Node6</title>
<polygon fill="white" stroke="#bfbfbf" points="325.5,-0.5 325.5,-21.5 366.5,-21.5 366.5,-0.5 325.5,-0.5"/>
<text text-anchor="middle" x="346" y="-8.5" font-family="Helvetica,sans-Serif" font-size="10.00">QList</text>
</g>
<!-- Node1&#45;&gt;Node6 -->
<g id="edge10" class="edge"><title>Node1&#45;&gt;Node6</title>
<path fill="none" stroke="midnightblue" d="M319.869,-58.3619C324.155,-50.5949 330.087,-39.8426 335.216,-30.5458"/>
<polygon fill="midnightblue" stroke="midnightblue" points="338.402,-32.0172 340.168,-21.5707 332.273,-28.6357 338.402,-32.0172"/>
</g>
<!-- Node7 -->
<g id="node13" class="node"><title>Node7</title>
<polygon fill="white" stroke="#bfbfbf" points="383.5,-0.5 383.5,-21.5 436.5,-21.5 436.5,-0.5 383.5,-0.5"/>
<text text-anchor="middle" x="410" y="-8.5" font-family="Helvetica,sans-Serif" font-size="10.00">QRectF</text>
</g>
<!-- Node1&#45;&gt;Node7 -->
<g id="edge12" class="edge"><title>Node1&#45;&gt;Node7</title>
<path fill="none" stroke="midnightblue" d="M331.608,-58.3619C346.223,-49.532 367.224,-36.844 383.811,-26.8224"/>
<polygon fill="midnightblue" stroke="midnightblue" points="385.754,-29.7376 392.504,-21.5707 382.135,-23.7461 385.754,-29.7376"/>
</g>
<!-- Node8 -->
<g id="node15" class="node"><title>Node8</title>
<polygon fill="white" stroke="#bfbfbf" points="453.5,-0.5 453.5,-21.5 508.5,-21.5 508.5,-0.5 453.5,-0.5"/>
<text text-anchor="middle" x="481" y="-8.5" font-family="Helvetica,sans-Serif" font-size="10.00">QDebug</text>
</g>
<!-- Node1&#45;&gt;Node8 -->
<g id="edge14" class="edge"><title>Node1&#45;&gt;Node8</title>
<path fill="none" stroke="midnightblue" d="M338.283,-60.5663C365.993,-50.9425 411.629,-35.093 443.824,-23.9116"/>
<polygon fill="midnightblue" stroke="midnightblue" points="445.051,-27.1906 453.349,-20.6034 442.754,-20.5781 445.051,-27.1906"/>
</g>
<!-- Node9 -->
<g id="node17" class="node"><title>Node9</title>
<polygon fill="white" stroke="#bfbfbf" points="526,-0.5 526,-21.5 576,-21.5 576,-0.5 526,-0.5"/>
<text text-anchor="middle" x="551" y="-8.5" font-family="Helvetica,sans-Serif" font-size="10.00">QHash</text>
</g>
<!-- Node1&#45;&gt;Node9 -->
<g id="edge16" class="edge"><title>Node1&#45;&gt;Node9</title>
<path fill="none" stroke="midnightblue" d="M338.23,-64.0899C374.747,-56.54 446.226,-41.1816 515.992,-22.1238"/>
<polygon fill="midnightblue" stroke="midnightblue" points="517.113,-25.4454 525.821,-19.4106 515.251,-18.6977 517.113,-25.4454"/>
</g>
</g>
</svg>
