<?xml version="1.0" encoding="UTF-8" standalone="no"?>
<!DOCTYPE svg PUBLIC "-//W3C//DTD SVG 1.1//EN"
 "http://www.w3.org/Graphics/SVG/1.1/DTD/svg11.dtd">
<!-- Generated by graphviz version 2.26.3 (20100126.1600)
 -->
<!-- Title: thing.cpp Pages: 1 -->
<svg width="1865pt" height="378pt"
 viewBox="0.00 0.00 1865.00 378.00" xmlns="http://www.w3.org/2000/svg" xmlns:xlink="http://www.w3.org/1999/xlink">
<g id="graph1" class="graph" transform="scale(1 1) rotate(0) translate(4 374)">
<title>thing.cpp</title>
<polygon fill="white" stroke="white" points="-4,5 -4,-374 1862,-374 1862,5 -4,5"/>
<!-- Node1 -->
<g id="node1" class="node"><title>Node1</title>
<polygon fill="#bfbfbf" stroke="black" points="1001.5,-348.5 1001.5,-369.5 1060.5,-369.5 1060.5,-348.5 1001.5,-348.5"/>
<text text-anchor="middle" x="1031" y="-356.5" font-family="Helvetica,sans-Serif" font-size="10.00">thing.cpp</text>
</g>
<!-- Node2 -->
<g id="node3" class="node"><title>Node2</title>
<a xlink:href="thing_8h.htm" target="_top" xlink:title="thing.h">
<polygon fill="white" stroke="black" points="894,-116.5 894,-137.5 942,-137.5 942,-116.5 894,-116.5"/>
<text text-anchor="middle" x="918" y="-124.5" font-family="Helvetica,sans-Serif" font-size="10.00">thing.h</text>
</a>
</g>
<!-- Node1&#45;&gt;Node2 -->
<g id="edge2" class="edge"><title>Node1&#45;&gt;Node2</title>
<path fill="none" stroke="midnightblue" d="M1033.19,-348.196C1038.75,-317.689 1050.37,-229.512 1012,-174 998.093,-153.878 972.973,-141.941 952.198,-135.136"/>
<polygon fill="midnightblue" stroke="midnightblue" points="953.001,-131.722 942.416,-132.193 950.984,-138.426 953.001,-131.722"/>
</g>
<!-- Node6 -->
<g id="node11" class="node"><title>Node6</title>
<polygon fill="white" stroke="#bfbfbf" points="366.5,-0.5 366.5,-21.5 419.5,-21.5 419.5,-0.5 366.5,-0.5"/>
<text text-anchor="middle" x="393" y="-8.5" font-family="Helvetica,sans-Serif" font-size="10.00">QString</text>
</g>
<!-- Node1&#45;&gt;Node6 -->
<g id="edge130" class="edge"><title>Node1&#45;&gt;Node6</title>
<path fill="none" stroke="midnightblue" d="M1001.44,-358.355C846.498,-354.595 135,-332.456 135,-243 135,-243 135,-243 135,-127 135,-79.0211 285.296,-36.7065 356.463,-19.3595"/>
<polygon fill="midnightblue" stroke="midnightblue" points="357.454,-22.721 366.361,-16.9836 355.82,-15.9143 357.454,-22.721"/>
</g>
<!-- Node9 -->
<g id="node17" class="node"><title>Node9</title>
<polygon fill="white" stroke="#bfbfbf" points="1016.5,-58.5 1016.5,-79.5 1071.5,-79.5 1071.5,-58.5 1016.5,-58.5"/>
<text text-anchor="middle" x="1044" y="-66.5" font-family="Helvetica,sans-Serif" font-size="10.00">QDebug</text>
</g>
<!-- Node1&#45;&gt;Node9 -->
<g id="edge134" class="edge"><title>Node1&#45;&gt;Node9</title>
<path fill="none" stroke="midnightblue" d="M1060.77,-355.979C1166.66,-344.143 1513.28,-295.462 1410,-174 1377.77,-136.092 1236.49,-152.838 1189,-138 1145.97,-124.555 1099.44,-100.562 1071,-84.7123"/>
<polygon fill="midnightblue" stroke="midnightblue" points="1072.51,-81.5458 1062.09,-79.6765 1069.07,-87.6412 1072.51,-81.5458"/>
</g>
<!-- Node11 -->
<g id="node21" class="node"><title>Node11</title>
<a xlink:href="dimensionsmain_8h.htm" target="_top" xlink:title="dimensionsmain.h">
<polygon fill="white" stroke="black" points="902.5,-290.5 902.5,-311.5 1003.5,-311.5 1003.5,-290.5 902.5,-290.5"/>
<text text-anchor="middle" x="953" y="-298.5" font-family="Helvetica,sans-Serif" font-size="10.00">dimensionsmain.h</text>
</a>
</g>
<!-- Node1&#45;&gt;Node11 -->
<g id="edge20" class="edge"><title>Node1&#45;&gt;Node11</title>
<path fill="none" stroke="midnightblue" d="M1016.69,-348.362C1005.15,-339.777 988.7,-327.546 975.41,-317.664"/>
<polygon fill="midnightblue" stroke="midnightblue" points="977.329,-314.729 967.216,-311.571 973.152,-320.346 977.329,-314.729"/>
</g>
<!-- Node39 -->
<g id="node105" class="node"><title>Node39</title>
<polygon fill="white" stroke="#bfbfbf" points="1514,-290.5 1514,-311.5 1670,-311.5 1670,-290.5 1514,-290.5"/>
<text text-anchor="middle" x="1592" y="-298.5" font-family="Helvetica,sans-Serif" font-size="10.00">QGraphicsSceneMouseEvent</text>
</g>
<!-- Node1&#45;&gt;Node39 -->
<g id="edge132" class="edge"><title>Node1&#45;&gt;Node39</title>
<path fill="none" stroke="midnightblue" d="M1060.65,-356.227C1134.77,-349.253 1334.06,-330.233 1500,-312 1501.12,-311.877 1502.25,-311.753 1503.38,-311.627"/>
<polygon fill="midnightblue" stroke="midnightblue" points="1504.17,-315.06 1513.71,-310.463 1503.39,-308.104 1504.17,-315.06"/>
</g>
<!-- Node3 -->
<g id="node5" class="node"><title>Node3</title>
<polygon fill="white" stroke="#bfbfbf" points="1089,-58.5 1089,-79.5 1187,-79.5 1187,-58.5 1089,-58.5"/>
<text text-anchor="middle" x="1138" y="-66.5" font-family="Helvetica,sans-Serif" font-size="10.00">QGraphicsObject</text>
</g>
<!-- Node2&#45;&gt;Node3 -->
<g id="edge4" class="edge"><title>Node2&#45;&gt;Node3</title>
<path fill="none" stroke="midnightblue" d="M942.384,-120.571C977.405,-111.339 1042.72,-94.1184 1088.2,-82.1286"/>
<polygon fill="midnightblue" stroke="midnightblue" points="1089.1,-85.5128 1097.87,-79.5791 1087.31,-78.744 1089.1,-85.5128"/>
</g>
<!-- Node4 -->
<g id="node7" class="node"><title>Node4</title>
<polygon fill="white" stroke="#bfbfbf" points="1117,-0.5 1117,-21.5 1163,-21.5 1163,-0.5 1117,-0.5"/>
<text text-anchor="middle" x="1140" y="-8.5" font-family="Helvetica,sans-Serif" font-size="10.00">QUuid</text>
</g>
<!-- Node2&#45;&gt;Node4 -->
<g id="edge6" class="edge"><title>Node2&#45;&gt;Node4</title>
<path fill="none" stroke="midnightblue" d="M929.399,-116.35C945.727,-101.561 977.212,-74.7425 1008,-58 1039.84,-40.6878 1079.32,-27.6088 1106.77,-19.6986"/>
<polygon fill="midnightblue" stroke="midnightblue" points="1107.98,-22.9947 1116.66,-16.9219 1106.08,-16.2552 1107.98,-22.9947"/>
</g>
<!-- Node5 -->
<g id="node9" class="node"><title>Node5</title>
<polygon fill="white" stroke="#bfbfbf" points="299.5,-58.5 299.5,-79.5 358.5,-79.5 358.5,-58.5 299.5,-58.5"/>
<text text-anchor="middle" x="329" y="-66.5" font-family="Helvetica,sans-Serif" font-size="10.00">QPointer</text>
</g>
<!-- Node2&#45;&gt;Node5 -->
<g id="edge8" class="edge"><title>Node2&#45;&gt;Node5</title>
<path fill="none" stroke="midnightblue" d="M893.812,-124.618C803.022,-115.678 481.978,-84.064 368.828,-72.9219"/>
<polygon fill="midnightblue" stroke="midnightblue" points="369.147,-69.4365 358.852,-71.9396 368.461,-76.4028 369.147,-69.4365"/>
</g>
<!-- Node2&#45;&gt;Node6 -->
<g id="edge10" class="edge"><title>Node2&#45;&gt;Node6</title>
<path fill="none" stroke="midnightblue" d="M905.67,-116.439C884.891,-98.8715 843.458,-64.8881 826,-58 754.112,-29.6357 520.967,-16.6025 429.913,-12.5013"/>
<polygon fill="midnightblue" stroke="midnightblue" points="429.928,-8.9987 419.784,-12.0558 429.621,-15.9919 429.928,-8.9987"/>
</g>
<!-- Node7 -->
<g id="node13" class="node"><title>Node7</title>
<polygon fill="white" stroke="#bfbfbf" points="668.5,-58.5 668.5,-79.5 709.5,-79.5 709.5,-58.5 668.5,-58.5"/>
<text text-anchor="middle" x="689" y="-66.5" font-family="Helvetica,sans-Serif" font-size="10.00">QList</text>
</g>
<!-- Node2&#45;&gt;Node7 -->
<g id="edge12" class="edge"><title>Node2&#45;&gt;Node7</title>
<path fill="none" stroke="midnightblue" d="M893.926,-120.903C851.969,-110.276 765.538,-88.3852 719.473,-76.7181"/>
<polygon fill="midnightblue" stroke="midnightblue" points="720.304,-73.3181 709.751,-74.2556 718.585,-80.1038 720.304,-73.3181"/>
</g>
<!-- Node8 -->
<g id="node15" class="node"><title>Node8</title>
<polygon fill="white" stroke="#bfbfbf" points="764.5,-58.5 764.5,-79.5 817.5,-79.5 817.5,-58.5 764.5,-58.5"/>
<text text-anchor="middle" x="791" y="-66.5" font-family="Helvetica,sans-Serif" font-size="10.00">QRectF</text>
</g>
<!-- Node2&#45;&gt;Node8 -->
<g id="edge14" class="edge"><title>Node2&#45;&gt;Node8</title>
<path fill="none" stroke="midnightblue" d="M895.001,-116.497C874.987,-107.356 845.759,-94.0082 823.381,-83.7883"/>
<polygon fill="midnightblue" stroke="midnightblue" points="824.807,-80.5918 814.257,-79.6212 821.899,-86.9592 824.807,-80.5918"/>
</g>
<!-- Node2&#45;&gt;Node9 -->
<g id="edge16" class="edge"><title>Node2&#45;&gt;Node9</title>
<path fill="none" stroke="midnightblue" d="M940.818,-116.497C960.586,-107.397 989.413,-94.1273 1011.58,-83.9253"/>
<polygon fill="midnightblue" stroke="midnightblue" points="1013.31,-86.982 1020.93,-79.6212 1010.38,-80.6234 1013.31,-86.982"/>
</g>
<!-- Node10 -->
<g id="node19" class="node"><title>Node10</title>
<polygon fill="white" stroke="#bfbfbf" points="873,-58.5 873,-79.5 923,-79.5 923,-58.5 873,-58.5"/>
<text text-anchor="middle" x="898" y="-66.5" font-family="Helvetica,sans-Serif" font-size="10.00">QHash</text>
</g>
<!-- Node2&#45;&gt;Node10 -->
<g id="edge18" class="edge"><title>Node2&#45;&gt;Node10</title>
<path fill="none" stroke="midnightblue" d="M914.332,-116.362C911.71,-108.758 908.101,-98.294 904.943,-89.1349"/>
<polygon fill="midnightblue" stroke="midnightblue" points="908.214,-87.8834 901.645,-79.5707 901.596,-90.1654 908.214,-87.8834"/>
</g>
<!-- Node11&#45;&gt;Node4 -->
<g id="edge128" class="edge"><title>Node11&#45;&gt;Node4</title>
<path fill="none" stroke="midnightblue" d="M1003.58,-296.537C1110.83,-285.988 1355.66,-255.791 1410,-196 1451.53,-150.308 1465.96,-105.067 1426,-58 1409.78,-38.8913 1245.52,-21.0534 1173.52,-14.086"/>
<polygon fill="midnightblue" stroke="midnightblue" points="1173.48,-10.5664 1163.19,-13.1003 1172.81,-17.5348 1173.48,-10.5664"/>
</g>
<!-- Node11&#45;&gt;Node5 -->
<g id="edge124" class="edge"><title>Node11&#45;&gt;Node5</title>
<path fill="none" stroke="midnightblue" d="M902.18,-298.718C771.817,-291.875 429.895,-267.385 346,-196 315.654,-170.179 319.45,-118.318 324.468,-89.497"/>
<polygon fill="midnightblue" stroke="midnightblue" points="327.903,-90.1665 326.382,-79.6815 321.032,-88.8266 327.903,-90.1665"/>
</g>
<!-- Node12 -->
<g id="node23" class="node"><title>Node12</title>
<a xlink:href="dimensionstypes_8h.htm" target="_top" xlink:title="dimensionstypes.h">
<polygon fill="white" stroke="black" points="1297,-174.5 1297,-195.5 1401,-195.5 1401,-174.5 1297,-174.5"/>
<text text-anchor="middle" x="1349" y="-182.5" font-family="Helvetica,sans-Serif" font-size="10.00">dimensionstypes.h</text>
</a>
</g>
<!-- Node11&#45;&gt;Node12 -->
<g id="edge22" class="edge"><title>Node11&#45;&gt;Node12</title>
<path fill="none" stroke="midnightblue" d="M989.192,-290.398C1061.52,-269.212 1223.77,-221.683 1303.3,-198.387"/>
<polygon fill="midnightblue" stroke="midnightblue" points="1304.42,-201.705 1313.04,-195.535 1302.45,-194.988 1304.42,-201.705"/>
</g>
<!-- Node13 -->
<g id="node25" class="node"><title>Node13</title>
<a xlink:href="quicklaunchbar_8h.htm" target="_top" xlink:title="quicklaunchbar.h">
<polygon fill="white" stroke="black" points="762.5,-232.5 762.5,-253.5 857.5,-253.5 857.5,-232.5 762.5,-232.5"/>
<text text-anchor="middle" x="810" y="-240.5" font-family="Helvetica,sans-Serif" font-size="10.00">quicklaunchbar.h</text>
</a>
</g>
<!-- Node11&#45;&gt;Node13 -->
<g id="edge24" class="edge"><title>Node11&#45;&gt;Node13</title>
<path fill="none" stroke="midnightblue" d="M927.104,-290.497C904.367,-281.275 871.07,-267.769 845.788,-257.515"/>
<polygon fill="midnightblue" stroke="midnightblue" points="846.769,-254.136 836.187,-253.621 844.138,-260.623 846.769,-254.136"/>
</g>
<!-- Node23 -->
<g id="node57" class="node"><title>Node23</title>
<polygon fill="white" stroke="#bfbfbf" points="567,-58.5 567,-79.5 613,-79.5 613,-58.5 567,-58.5"/>
<text text-anchor="middle" x="590" y="-66.5" font-family="Helvetica,sans-Serif" font-size="10.00">QMap</text>
</g>
<!-- Node11&#45;&gt;Node23 -->
<g id="edge126" class="edge"><title>Node11&#45;&gt;Node23</title>
<path fill="none" stroke="midnightblue" d="M948.362,-290.173C937.476,-265.979 908.001,-207.061 866,-174 846.034,-158.284 691.47,-103.939 622.751,-80.2199"/>
<polygon fill="midnightblue" stroke="midnightblue" points="623.856,-76.8988 613.261,-76.9509 621.576,-83.5171 623.856,-76.8988"/>
</g>
<!-- Node33 -->
<g id="node87" class="node"><title>Node33</title>
<a xlink:href="Window_8h.htm" target="_top" xlink:title="Window.h">
<polygon fill="white" stroke="black" points="1554,-116.5 1554,-137.5 1616,-137.5 1616,-116.5 1554,-116.5"/>
<text text-anchor="middle" x="1585" y="-124.5" font-family="Helvetica,sans-Serif" font-size="10.00">Window.h</text>
</a>
</g>
<!-- Node11&#45;&gt;Node33 -->
<g id="edge108" class="edge"><title>Node11&#45;&gt;Node33</title>
<path fill="none" stroke="midnightblue" d="M1003.76,-299.518C1109.27,-295.857 1348.75,-284.377 1424,-254 1484.99,-229.378 1541.81,-174.144 1568.71,-145.31"/>
<polygon fill="midnightblue" stroke="midnightblue" points="1571.6,-147.336 1575.77,-137.598 1566.44,-142.607 1571.6,-147.336"/>
</g>
<!-- Node13&#45;&gt;Node4 -->
<g id="edge92" class="edge"><title>Node13&#45;&gt;Node4</title>
<path fill="none" stroke="midnightblue" d="M857.628,-240.587C954.357,-235.233 1170.52,-220.829 1240,-196 1283.07,-180.61 1389.1,-120.678 1410,-80 1414.47,-71.3033 1416.29,-65.4833 1410,-58 1380.12,-22.4706 1238.91,-13.7976 1173.46,-11.6819"/>
<polygon fill="midnightblue" stroke="midnightblue" points="1173.36,-8.17767 1163.27,-11.386 1173.16,-15.1747 1173.36,-8.17767"/>
</g>
<!-- Node13&#45;&gt;Node5 -->
<g id="edge94" class="edge"><title>Node13&#45;&gt;Node5</title>
<path fill="none" stroke="midnightblue" d="M762.428,-240.11C656.282,-233.342 406.827,-215.553 374,-196 347.097,-179.975 344.385,-167.541 334,-138 328.531,-122.443 327.49,-103.726 327.701,-89.7136"/>
<polygon fill="midnightblue" stroke="midnightblue" points="331.201,-89.7582 328.077,-79.6345 324.206,-89.4969 331.201,-89.7582"/>
</g>
<!-- Node13&#45;&gt;Node7 -->
<g id="edge100" class="edge"><title>Node13&#45;&gt;Node7</title>
<path fill="none" stroke="midnightblue" d="M762.442,-238.969C681.559,-231.629 524.33,-215.068 508,-196 501.64,-188.573 501.97,-181.697 508,-174 549.214,-121.389 601.68,-179.584 654,-138 669.379,-125.777 678.609,-105 683.697,-89.4321"/>
<polygon fill="midnightblue" stroke="midnightblue" points="687.108,-90.2373 686.582,-79.6555 680.395,-88.2559 687.108,-90.2373"/>
</g>
<!-- Node13&#45;&gt;Node12 -->
<g id="edge52" class="edge"><title>Node13&#45;&gt;Node12</title>
<path fill="none" stroke="midnightblue" d="M857.789,-239.303C943.285,-232.454 1127.98,-216.597 1283,-196 1284.26,-195.832 1285.54,-195.659 1286.82,-195.48"/>
<polygon fill="midnightblue" stroke="midnightblue" points="1287.42,-198.93 1296.81,-194.026 1286.41,-192.004 1287.42,-198.93"/>
</g>
<!-- Node14 -->
<g id="node27" class="node"><title>Node14</title>
<a xlink:href="thingpaintable_8h.htm" target="_top" xlink:title="thingpaintable.h">
<polygon fill="white" stroke="black" points="912.5,-174.5 912.5,-195.5 1003.5,-195.5 1003.5,-174.5 912.5,-174.5"/>
<text text-anchor="middle" x="958" y="-182.5" font-family="Helvetica,sans-Serif" font-size="10.00">thingpaintable.h</text>
</a>
</g>
<!-- Node13&#45;&gt;Node14 -->
<g id="edge26" class="edge"><title>Node13&#45;&gt;Node14</title>
<path fill="none" stroke="midnightblue" d="M836.802,-232.497C860.438,-223.234 895.1,-209.65 921.308,-199.379"/>
<polygon fill="midnightblue" stroke="midnightblue" points="922.864,-202.529 930.898,-195.621 920.31,-196.011 922.864,-202.529"/>
</g>
<!-- Node15 -->
<g id="node32" class="node"><title>Node15</title>
<a xlink:href="pixmapobject_8h.htm" target="_top" xlink:title="pixmapobject.h">
<polygon fill="white" stroke="black" points="1198,-116.5 1198,-137.5 1284,-137.5 1284,-116.5 1198,-116.5"/>
<text text-anchor="middle" x="1241" y="-124.5" font-family="Helvetica,sans-Serif" font-size="10.00">pixmapobject.h</text>
</a>
</g>
<!-- Node13&#45;&gt;Node15 -->
<g id="edge34" class="edge"><title>Node13&#45;&gt;Node15</title>
<path fill="none" stroke="midnightblue" d="M857.623,-240.737C943.286,-236.032 1119.52,-223.283 1174,-196 1196.93,-184.519 1216.46,-161.984 1228.41,-145.788"/>
<polygon fill="midnightblue" stroke="midnightblue" points="1231.32,-147.735 1234.25,-137.552 1225.61,-143.686 1231.32,-147.735"/>
</g>
<!-- Node18 -->
<g id="node39" class="node"><title>Node18</title>
<polygon fill="white" stroke="#bfbfbf" points="1356.5,-58.5 1356.5,-79.5 1401.5,-79.5 1401.5,-58.5 1356.5,-58.5"/>
<text text-anchor="middle" x="1379" y="-66.5" font-family="Helvetica,sans-Serif" font-size="10.00">QSize</text>
</g>
<!-- Node13&#45;&gt;Node18 -->
<g id="edge98" class="edge"><title>Node13&#45;&gt;Node18</title>
<path fill="none" stroke="midnightblue" d="M857.652,-239.992C947.929,-233.853 1140.45,-218.531 1203,-196 1268.78,-172.305 1331.67,-116.238 1361.3,-87.175"/>
<polygon fill="midnightblue" stroke="midnightblue" points="1364.14,-89.2836 1368.75,-79.7432 1359.19,-84.3278 1364.14,-89.2836"/>
</g>
<!-- Node19 -->
<g id="node41" class="node"><title>Node19</title>
<a xlink:href="pixmap9tileobject_8h.htm" target="_top" xlink:title="pixmap9tileobject.h">
<polygon fill="white" stroke="black" points="1059,-174.5 1059,-195.5 1165,-195.5 1165,-174.5 1059,-174.5"/>
<text text-anchor="middle" x="1112" y="-182.5" font-family="Helvetica,sans-Serif" font-size="10.00">pixmap9tileobject.h</text>
</a>
</g>
<!-- Node13&#45;&gt;Node19 -->
<g id="edge44" class="edge"><title>Node13&#45;&gt;Node19</title>
<path fill="none" stroke="midnightblue" d="M857.52,-233.874C909.152,-223.958 991.887,-208.068 1048.93,-197.113"/>
<polygon fill="midnightblue" stroke="midnightblue" points="1049.75,-200.519 1058.91,-195.195 1048.43,-193.644 1049.75,-200.519"/>
</g>
<!-- Node20 -->
<g id="node47" class="node"><title>Node20</title>
<a xlink:href="appmonitor_8h.htm" target="_top" xlink:title="appmonitor.h">
<polygon fill="white" stroke="black" points="383,-174.5 383,-195.5 461,-195.5 461,-174.5 383,-174.5"/>
<text text-anchor="middle" x="422" y="-182.5" font-family="Helvetica,sans-Serif" font-size="10.00">appmonitor.h</text>
</a>
</g>
<!-- Node13&#45;&gt;Node20 -->
<g id="edge54" class="edge"><title>Node13&#45;&gt;Node20</title>
<path fill="none" stroke="midnightblue" d="M762.415,-237.317C697.33,-229.317 576.983,-213.718 475,-196 473.724,-195.778 472.432,-195.549 471.129,-195.312"/>
<polygon fill="midnightblue" stroke="midnightblue" points="471.496,-191.82 461.019,-193.399 470.194,-198.698 471.496,-191.82"/>
</g>
<!-- Node29 -->
<g id="node77" class="node"><title>Node29</title>
<polygon fill="white" stroke="#bfbfbf" points="516.5,-174.5 516.5,-195.5 571.5,-195.5 571.5,-174.5 516.5,-174.5"/>
<text text-anchor="middle" x="544" y="-182.5" font-family="Helvetica,sans-Serif" font-size="10.00">QPointF</text>
</g>
<!-- Node13&#45;&gt;Node29 -->
<g id="edge96" class="edge"><title>Node13&#45;&gt;Node29</title>
<path fill="none" stroke="midnightblue" d="M762.126,-234.589C717.583,-226.456 649.192,-213.19 581.772,-196.307"/>
<polygon fill="midnightblue" stroke="midnightblue" points="582.388,-192.853 571.834,-193.791 580.669,-199.639 582.388,-192.853"/>
</g>
<!-- Node30 -->
<g id="node81" class="node"><title>Node30</title>
<polygon fill="white" stroke="#bfbfbf" points="589,-174.5 589,-195.5 633,-195.5 633,-174.5 589,-174.5"/>
<text text-anchor="middle" x="611" y="-182.5" font-family="Helvetica,sans-Serif" font-size="10.00">QPair</text>
</g>
<!-- Node13&#45;&gt;Node30 -->
<g id="edge102" class="edge"><title>Node13&#45;&gt;Node30</title>
<path fill="none" stroke="midnightblue" d="M769.376,-232.467C737.343,-223.975 691.357,-211.376 642.991,-196.186"/>
<polygon fill="midnightblue" stroke="midnightblue" points="643.88,-192.796 633.29,-193.114 641.766,-199.47 643.88,-192.796"/>
</g>
<!-- Node31 -->
<g id="node83" class="node"><title>Node31</title>
<polygon fill="white" stroke="#bfbfbf" points="651,-174.5 651,-195.5 787,-195.5 787,-174.5 651,-174.5"/>
<text text-anchor="middle" x="719" y="-182.5" font-family="Helvetica,sans-Serif" font-size="10.00">QParallelAnimationGroup</text>
</g>
<!-- Node13&#45;&gt;Node31 -->
<g id="edge104" class="edge"><title>Node13&#45;&gt;Node31</title>
<path fill="none" stroke="midnightblue" d="M793.309,-232.362C779.584,-223.614 759.916,-211.079 744.263,-201.101"/>
<polygon fill="midnightblue" stroke="midnightblue" points="745.899,-197.994 735.585,-195.571 742.137,-203.897 745.899,-197.994"/>
</g>
<!-- Node32 -->
<g id="node85" class="node"><title>Node32</title>
<polygon fill="white" stroke="#bfbfbf" points="805,-174.5 805,-195.5 857,-195.5 857,-174.5 805,-174.5"/>
<text text-anchor="middle" x="831" y="-182.5" font-family="Helvetica,sans-Serif" font-size="10.00">QTimer</text>
</g>
<!-- Node13&#45;&gt;Node32 -->
<g id="edge106" class="edge"><title>Node13&#45;&gt;Node32</title>
<path fill="none" stroke="midnightblue" d="M813.852,-232.362C816.605,-224.758 820.394,-214.294 823.71,-205.135"/>
<polygon fill="midnightblue" stroke="midnightblue" points="827.059,-206.165 827.173,-195.571 820.477,-203.782 827.059,-206.165"/>
</g>
<!-- Node14&#45;&gt;Node2 -->
<g id="edge28" class="edge"><title>Node14&#45;&gt;Node2</title>
<path fill="none" stroke="midnightblue" d="M950.663,-174.362C945.194,-166.431 937.578,-155.389 931.076,-145.961"/>
<polygon fill="midnightblue" stroke="midnightblue" points="933.849,-143.816 925.29,-137.571 928.086,-147.79 933.849,-143.816"/>
</g>
<!-- Node14&#45;&gt;Node6 -->
<g id="edge30" class="edge"><title>Node14&#45;&gt;Node6</title>
<path fill="none" stroke="midnightblue" d="M915.098,-174.425C887.046,-166.552 850.151,-154.342 820,-138 769.348,-110.547 770.967,-80.6669 718,-58 666.67,-36.0337 503.635,-20.1673 429.875,-13.9254"/>
<polygon fill="midnightblue" stroke="midnightblue" points="429.92,-10.4172 419.664,-13.0748 429.339,-17.393 429.92,-10.4172"/>
</g>
<!-- Node14&#45;&gt;Node8 -->
<g id="edge32" class="edge"><title>Node14&#45;&gt;Node8</title>
<path fill="none" stroke="midnightblue" d="M920.25,-174.42C897.283,-166.763 868.2,-154.792 846,-138 827.99,-124.378 812.485,-103.566 802.572,-88.3606"/>
<polygon fill="midnightblue" stroke="midnightblue" points="805.434,-86.3367 797.149,-79.7321 799.507,-90.0613 805.434,-86.3367"/>
</g>
<!-- Node15&#45;&gt;Node4 -->
<g id="edge40" class="edge"><title>Node15&#45;&gt;Node4</title>
<path fill="none" stroke="midnightblue" d="M1265.5,-116.403C1291.71,-103.556 1327.34,-80.783 1310,-58 1293.52,-36.3437 1217.97,-22.1021 1173.32,-15.4192"/>
<polygon fill="midnightblue" stroke="midnightblue" points="1173.62,-11.9266 1163.22,-13.9577 1172.62,-18.8544 1173.62,-11.9266"/>
</g>
<!-- Node16 -->
<g id="node34" class="node"><title>Node16</title>
<polygon fill="white" stroke="#bfbfbf" points="721.5,-0.5 721.5,-21.5 776.5,-21.5 776.5,-0.5 721.5,-0.5"/>
<text text-anchor="middle" x="749" y="-8.5" font-family="Helvetica,sans-Serif" font-size="10.00">QObject</text>
</g>
<!-- Node15&#45;&gt;Node16 -->
<g id="edge36" class="edge"><title>Node15&#45;&gt;Node16</title>
<path fill="none" stroke="midnightblue" d="M1237.46,-116.441C1231.58,-100.725 1218.21,-71.5789 1196,-58 1161.4,-36.8426 888.21,-19.0529 786.757,-13.114"/>
<polygon fill="midnightblue" stroke="midnightblue" points="786.835,-9.61273 776.65,-12.5284 786.43,-16.601 786.835,-9.61273"/>
</g>
<!-- Node17 -->
<g id="node36" class="node"><title>Node17</title>
<polygon fill="white" stroke="#bfbfbf" points="1242.5,-58.5 1242.5,-79.5 1301.5,-79.5 1301.5,-58.5 1242.5,-58.5"/>
<text text-anchor="middle" x="1272" y="-66.5" font-family="Helvetica,sans-Serif" font-size="10.00">QPixmap</text>
</g>
<!-- Node15&#45;&gt;Node17 -->
<g id="edge38" class="edge"><title>Node15&#45;&gt;Node17</title>
<path fill="none" stroke="midnightblue" d="M1246.69,-116.362C1250.84,-108.595 1256.58,-97.8426 1261.55,-88.5458"/>
<polygon fill="midnightblue" stroke="midnightblue" points="1264.72,-90.0398 1266.35,-79.5707 1258.55,-86.7401 1264.72,-90.0398"/>
</g>
<!-- Node15&#45;&gt;Node18 -->
<g id="edge42" class="edge"><title>Node15&#45;&gt;Node18</title>
<path fill="none" stroke="midnightblue" d="M1265.99,-116.497C1288.76,-106.929 1322.49,-92.7506 1347.17,-82.3758"/>
<polygon fill="midnightblue" stroke="midnightblue" points="1348.62,-85.5662 1356.48,-78.465 1345.9,-79.113 1348.62,-85.5662"/>
</g>
<!-- Node19&#45;&gt;Node8 -->
<g id="edge48" class="edge"><title>Node19&#45;&gt;Node8</title>
<path fill="none" stroke="midnightblue" d="M1058.65,-180.455C1011.35,-174.933 941.257,-163.034 885,-138 856.13,-125.153 827.518,-102.319 809.584,-86.4542"/>
<polygon fill="midnightblue" stroke="midnightblue" points="811.897,-83.8272 802.132,-79.716 807.202,-89.0192 811.897,-83.8272"/>
</g>
<!-- Node19&#45;&gt;Node15 -->
<g id="edge46" class="edge"><title>Node19&#45;&gt;Node15</title>
<path fill="none" stroke="midnightblue" d="M1135.36,-174.497C1155.69,-165.356 1185.38,-152.008 1208.11,-141.788"/>
<polygon fill="midnightblue" stroke="midnightblue" points="1209.69,-144.914 1217.38,-137.621 1206.82,-138.53 1209.69,-144.914"/>
</g>
<!-- Node19&#45;&gt;Node16 -->
<g id="edge50" class="edge"><title>Node19&#45;&gt;Node16</title>
<path fill="none" stroke="midnightblue" d="M1100.31,-174.398C1072.95,-150.149 1001.78,-90.2501 932,-58 884.37,-35.9875 824.814,-23.1335 786.832,-16.5871"/>
<polygon fill="midnightblue" stroke="midnightblue" points="787.157,-13.0933 776.719,-14.9056 786.009,-19.9985 787.157,-13.0933"/>
</g>
<!-- Node20&#45;&gt;Node4 -->
<g id="edge88" class="edge"><title>Node20&#45;&gt;Node4</title>
<path fill="none" stroke="midnightblue" d="M461.261,-176.929C491.705,-169.615 534.254,-157.035 568,-138 615.195,-111.378 610.234,-79.4336 660,-58 740.713,-23.2381 1011.78,-13.8832 1106.78,-11.6415"/>
<polygon fill="midnightblue" stroke="midnightblue" points="1107.03,-15.1367 1116.95,-11.413 1106.88,-8.13844 1107.03,-15.1367"/>
</g>
<!-- Node20&#45;&gt;Node5 -->
<g id="edge84" class="edge"><title>Node20&#45;&gt;Node5</title>
<path fill="none" stroke="midnightblue" d="M396.221,-174.497C380.128,-166.686 360.218,-154.519 348,-138 337.638,-123.99 332.927,-104.621 330.785,-89.9697"/>
<polygon fill="midnightblue" stroke="midnightblue" points="334.239,-89.3761 329.597,-79.8525 327.287,-90.1925 334.239,-89.3761"/>
</g>
<!-- Node20&#45;&gt;Node7 -->
<g id="edge86" class="edge"><title>Node20&#45;&gt;Node7</title>
<path fill="none" stroke="midnightblue" d="M461.217,-176.647C518.695,-164.313 619.822,-142.226 627,-138 647.883,-125.706 665.636,-104.027 676.725,-88.2418"/>
<polygon fill="midnightblue" stroke="midnightblue" points="679.766,-89.9921 682.456,-79.7446 673.963,-86.0776 679.766,-89.9921"/>
</g>
<!-- Node20&#45;&gt;Node16 -->
<g id="edge82" class="edge"><title>Node20&#45;&gt;Node16</title>
<path fill="none" stroke="midnightblue" d="M461.06,-176.456C481.802,-169.719 505.526,-157.996 518,-138 523.175,-129.704 522.753,-124.545 518,-116 503.251,-89.4865 474.749,-106.513 460,-80 455.247,-71.4553 453.665,-65.4482 460,-58 476.107,-39.0622 636.362,-21.6217 711.051,-14.4491"/>
<polygon fill="midnightblue" stroke="midnightblue" points="711.797,-17.8942 721.422,-13.4664 711.137,-10.9254 711.797,-17.8942"/>
</g>
<!-- Node21 -->
<g id="node49" class="node"><title>Node21</title>
<a xlink:href="externalapp_8h.htm" target="_top" xlink:title="externalapp.h">
<polygon fill="white" stroke="black" points="468.5,-58.5 468.5,-79.5 549.5,-79.5 549.5,-58.5 468.5,-58.5"/>
<text text-anchor="middle" x="509" y="-66.5" font-family="Helvetica,sans-Serif" font-size="10.00">externalapp.h</text>
</a>
</g>
<!-- Node20&#45;&gt;Node21 -->
<g id="edge56" class="edge"><title>Node20&#45;&gt;Node21</title>
<path fill="none" stroke="midnightblue" d="M461.12,-175.976C495.06,-167.262 540.373,-153.183 551,-138 562.916,-120.977 546.968,-100.544 531.419,-86.3516"/>
<polygon fill="midnightblue" stroke="midnightblue" points="533.347,-83.3945 523.474,-79.5498 528.794,-88.712 533.347,-83.3945"/>
</g>
<!-- Node22 -->
<g id="node53" class="node"><title>Node22</title>
<a xlink:href="webosapp_8h.htm" target="_top" xlink:title="webosapp.h">
<polygon fill="white" stroke="black" points="356.5,-116.5 356.5,-137.5 429.5,-137.5 429.5,-116.5 356.5,-116.5"/>
<text text-anchor="middle" x="393" y="-124.5" font-family="Helvetica,sans-Serif" font-size="10.00">webosapp.h</text>
</a>
</g>
<!-- Node20&#45;&gt;Node22 -->
<g id="edge62" class="edge"><title>Node20&#45;&gt;Node22</title>
<path fill="none" stroke="midnightblue" d="M416.681,-174.362C412.797,-166.595 407.421,-155.843 402.773,-146.546"/>
<polygon fill="midnightblue" stroke="midnightblue" points="405.888,-144.95 398.285,-137.571 399.627,-148.08 405.888,-144.95"/>
</g>
<!-- Node24 -->
<g id="node60" class="node"><title>Node24</title>
<a xlink:href="blacklist_8h.htm" target="_top" xlink:title="blacklist.h">
<polygon fill="white" stroke="black" points="163,-116.5 163,-137.5 225,-137.5 225,-116.5 163,-116.5"/>
<text text-anchor="middle" x="194" y="-124.5" font-family="Helvetica,sans-Serif" font-size="10.00">blacklist.h</text>
</a>
</g>
<!-- Node20&#45;&gt;Node24 -->
<g id="edge72" class="edge"><title>Node20&#45;&gt;Node24</title>
<path fill="none" stroke="midnightblue" d="M382.805,-175.029C341.52,-164.527 276.798,-148.063 234.886,-137.401"/>
<polygon fill="midnightblue" stroke="midnightblue" points="235.564,-133.962 225.01,-134.888 233.838,-140.746 235.564,-133.962"/>
</g>
<!-- Node28 -->
<g id="node73" class="node"><title>Node28</title>
<polygon fill="white" stroke="#bfbfbf" points="447,-116.5 447,-137.5 509,-137.5 509,-116.5 447,-116.5"/>
<text text-anchor="middle" x="478" y="-124.5" font-family="Helvetica,sans-Serif" font-size="10.00">QBitArray</text>
</g>
<!-- Node20&#45;&gt;Node28 -->
<g id="edge90" class="edge"><title>Node20&#45;&gt;Node28</title>
<path fill="none" stroke="midnightblue" d="M432.271,-174.362C440.244,-166.104 451.475,-154.472 460.811,-144.803"/>
<polygon fill="midnightblue" stroke="midnightblue" points="463.366,-147.196 467.794,-137.571 458.33,-142.334 463.366,-147.196"/>
</g>
<!-- Node21&#45;&gt;Node4 -->
<g id="edge60" class="edge"><title>Node21&#45;&gt;Node4</title>
<path fill="none" stroke="midnightblue" d="M549.559,-59.4348C552.407,-58.9049 555.242,-58.4189 558,-58 765.3,-26.5201 1017.56,-15.2274 1106.79,-12.0513"/>
<polygon fill="midnightblue" stroke="midnightblue" points="1106.98,-15.547 1116.85,-11.7034 1106.74,-8.55116 1106.98,-15.547"/>
</g>
<!-- Node21&#45;&gt;Node16 -->
<g id="edge58" class="edge"><title>Node21&#45;&gt;Node16</title>
<path fill="none" stroke="midnightblue" d="M549.713,-59.1611C594.999,-48.2169 667.554,-30.6828 711.499,-20.0626"/>
<polygon fill="midnightblue" stroke="midnightblue" points="712.324,-23.4643 721.222,-17.7131 710.679,-16.6602 712.324,-23.4643"/>
</g>
<!-- Node22&#45;&gt;Node5 -->
<g id="edge70" class="edge"><title>Node22&#45;&gt;Node5</title>
<path fill="none" stroke="midnightblue" d="M381.261,-116.362C372.059,-108.023 359.06,-96.2418 348.328,-86.5162"/>
<polygon fill="midnightblue" stroke="midnightblue" points="350.424,-83.6924 340.664,-79.5707 345.724,-88.8793 350.424,-83.6924"/>
</g>
<!-- Node22&#45;&gt;Node6 -->
<g id="edge66" class="edge"><title>Node22&#45;&gt;Node6</title>
<path fill="none" stroke="midnightblue" d="M393,-116.295C393,-97.1314 393,-56.654 393,-31.8434"/>
<polygon fill="midnightblue" stroke="midnightblue" points="396.5,-31.6792 393,-21.6792 389.5,-31.6792 396.5,-31.6792"/>
</g>
<!-- Node22&#45;&gt;Node21 -->
<g id="edge64" class="edge"><title>Node22&#45;&gt;Node21</title>
<path fill="none" stroke="midnightblue" d="M414.007,-116.497C432.043,-107.479 458.27,-94.3649 478.599,-84.2006"/>
<polygon fill="midnightblue" stroke="midnightblue" points="480.379,-87.2239 487.758,-79.6212 477.248,-80.9629 480.379,-87.2239"/>
</g>
<!-- Node22&#45;&gt;Node23 -->
<g id="edge68" class="edge"><title>Node22&#45;&gt;Node23</title>
<path fill="none" stroke="midnightblue" d="M429.541,-117.196C461.056,-108.606 507.983,-95.4967 557.395,-80.0867"/>
<polygon fill="midnightblue" stroke="midnightblue" points="558.484,-83.4135 566.977,-77.0792 556.387,-76.7348 558.484,-83.4135"/>
</g>
<!-- Node25 -->
<g id="node62" class="node"><title>Node25</title>
<a xlink:href="staticmatchlist_8h.htm" target="_top" xlink:title="staticmatchlist.h">
<polygon fill="white" stroke="black" points="16.5,-58.5 16.5,-79.5 107.5,-79.5 107.5,-58.5 16.5,-58.5"/>
<text text-anchor="middle" x="62" y="-66.5" font-family="Helvetica,sans-Serif" font-size="10.00">staticmatchlist.h</text>
</a>
</g>
<!-- Node24&#45;&gt;Node25 -->
<g id="edge74" class="edge"><title>Node24&#45;&gt;Node25</title>
<path fill="none" stroke="midnightblue" d="M170.096,-116.497C149.2,-107.315 118.644,-93.8889 95.345,-83.6516"/>
<polygon fill="midnightblue" stroke="midnightblue" points="96.7356,-80.4397 86.1724,-79.6212 93.9197,-86.8483 96.7356,-80.4397"/>
</g>
<!-- Node25&#45;&gt;Node6 -->
<g id="edge80" class="edge"><title>Node25&#45;&gt;Node6</title>
<path fill="none" stroke="midnightblue" d="M107.727,-60.4129C112.211,-59.5895 116.693,-58.7736 121,-58 205.062,-42.9016 303.909,-26.0464 356.212,-17.1981"/>
<polygon fill="midnightblue" stroke="midnightblue" points="357.063,-20.604 366.34,-15.4865 355.896,-13.7019 357.063,-20.604"/>
</g>
<!-- Node26 -->
<g id="node64" class="node"><title>Node26</title>
<a xlink:href="filterlist_8h.htm" target="_top" xlink:title="filterlist.h">
<polygon fill="white" stroke="black" points="0,-0.5 0,-21.5 58,-21.5 58,-0.5 0,-0.5"/>
<text text-anchor="middle" x="29" y="-8.5" font-family="Helvetica,sans-Serif" font-size="10.00">filterlist.h</text>
</a>
</g>
<!-- Node25&#45;&gt;Node26 -->
<g id="edge76" class="edge"><title>Node25&#45;&gt;Node26</title>
<path fill="none" stroke="midnightblue" d="M55.9473,-58.3619C51.5281,-50.5949 45.4104,-39.8426 40.1209,-30.5458"/>
<polygon fill="midnightblue" stroke="midnightblue" points="43.0017,-28.5315 35.0143,-21.5707 36.9176,-31.9932 43.0017,-28.5315"/>
</g>
<!-- Node27 -->
<g id="node66" class="node"><title>Node27</title>
<polygon fill="white" stroke="#bfbfbf" points="75.5,-0.5 75.5,-21.5 116.5,-21.5 116.5,-0.5 75.5,-0.5"/>
<text text-anchor="middle" x="96" y="-8.5" font-family="Helvetica,sans-Serif" font-size="10.00">QSet</text>
</g>
<!-- Node25&#45;&gt;Node27 -->
<g id="edge78" class="edge"><title>Node25&#45;&gt;Node27</title>
<path fill="none" stroke="midnightblue" d="M68.2361,-58.3619C72.8371,-50.5131 79.2252,-39.6159 84.7139,-30.2527"/>
<polygon fill="midnightblue" stroke="midnightblue" points="87.7656,-31.9677 89.8034,-21.5707 81.7267,-28.4276 87.7656,-31.9677"/>
</g>
<!-- Node33&#45;&gt;Node3 -->
<g id="edge120" class="edge"><title>Node33&#45;&gt;Node3</title>
<path fill="none" stroke="midnightblue" d="M1553.92,-122.968C1480.19,-113.4 1293.65,-89.1964 1197.43,-76.7117"/>
<polygon fill="midnightblue" stroke="midnightblue" points="1197.65,-73.2108 1187.28,-75.3949 1196.75,-80.1526 1197.65,-73.2108"/>
</g>
<!-- Node33&#45;&gt;Node18 -->
<g id="edge122" class="edge"><title>Node33&#45;&gt;Node18</title>
<path fill="none" stroke="midnightblue" d="M1553.71,-118.191C1515.28,-107.369 1450.39,-89.1009 1411.44,-78.1331"/>
<polygon fill="midnightblue" stroke="midnightblue" points="1412.23,-74.7194 1401.65,-75.3781 1410.33,-81.4574 1412.23,-74.7194"/>
</g>
<!-- Node34 -->
<g id="node89" class="node"><title>Node34</title>
<polygon fill="white" stroke="#bfbfbf" points="1790.5,-58.5 1790.5,-79.5 1857.5,-79.5 1857.5,-58.5 1790.5,-58.5"/>
<text text-anchor="middle" x="1824" y="-66.5" font-family="Helvetica,sans-Serif" font-size="10.00">Common.h</text>
</g>
<!-- Node33&#45;&gt;Node34 -->
<g id="edge110" class="edge"><title>Node33&#45;&gt;Node34</title>
<path fill="none" stroke="midnightblue" d="M1616.1,-119.802C1653.07,-111.198 1716.88,-96.1941 1780.33,-80.3889"/>
<polygon fill="midnightblue" stroke="midnightblue" points="1781.24,-83.769 1790.09,-77.9493 1779.54,-76.9777 1781.24,-83.769"/>
</g>
<!-- Node35 -->
<g id="node91" class="node"><title>Node35</title>
<polygon fill="white" stroke="#bfbfbf" points="1495,-58.5 1495,-79.5 1587,-79.5 1587,-58.5 1495,-58.5"/>
<text text-anchor="middle" x="1541" y="-66.5" font-family="Helvetica,sans-Serif" font-size="10.00">WindowTypes.h</text>
</g>
<!-- Node33&#45;&gt;Node35 -->
<g id="edge112" class="edge"><title>Node33&#45;&gt;Node35</title>
<path fill="none" stroke="midnightblue" d="M1576.93,-116.362C1570.85,-108.35 1562.36,-97.1605 1555.16,-87.6696"/>
<polygon fill="midnightblue" stroke="midnightblue" points="1557.85,-85.4222 1549.02,-79.5707 1552.27,-89.653 1557.85,-85.4222"/>
</g>
<!-- Node36 -->
<g id="node93" class="node"><title>Node36</title>
<polygon fill="white" stroke="#bfbfbf" points="1605,-58.5 1605,-79.5 1655,-79.5 1655,-58.5 1605,-58.5"/>
<text text-anchor="middle" x="1630" y="-66.5" font-family="Helvetica,sans-Serif" font-size="10.00">stdint.h</text>
</g>
<!-- Node33&#45;&gt;Node36 -->
<g id="edge114" class="edge"><title>Node33&#45;&gt;Node36</title>
<path fill="none" stroke="midnightblue" d="M1593.25,-116.362C1599.47,-108.35 1608.15,-97.1605 1615.51,-87.6696"/>
<polygon fill="midnightblue" stroke="midnightblue" points="1618.43,-89.617 1621.8,-79.5707 1612.9,-85.326 1618.43,-89.617"/>
</g>
<!-- Node37 -->
<g id="node95" class="node"><title>Node37</title>
<polygon fill="white" stroke="#bfbfbf" points="1672.5,-58.5 1672.5,-79.5 1715.5,-79.5 1715.5,-58.5 1672.5,-58.5"/>
<text text-anchor="middle" x="1694" y="-66.5" font-family="Helvetica,sans-Serif" font-size="10.00">string</text>
</g>
<!-- Node33&#45;&gt;Node37 -->
<g id="edge116" class="edge"><title>Node33&#45;&gt;Node37</title>
<path fill="none" stroke="midnightblue" d="M1604.74,-116.497C1621.61,-107.519 1646.11,-94.4835 1665.17,-84.3387"/>
<polygon fill="midnightblue" stroke="midnightblue" points="1666.86,-87.4086 1674.04,-79.6212 1663.57,-81.2289 1666.86,-87.4086"/>
</g>
<!-- Node38 -->
<g id="node97" class="node"><title>Node38</title>
<polygon fill="white" stroke="#bfbfbf" points="1732.5,-58.5 1732.5,-79.5 1773.5,-79.5 1773.5,-58.5 1732.5,-58.5"/>
<text text-anchor="middle" x="1753" y="-66.5" font-family="Helvetica,sans-Serif" font-size="10.00">glib.h</text>
</g>
<!-- Node33&#45;&gt;Node38 -->
<g id="edge118" class="edge"><title>Node33&#45;&gt;Node38</title>
<path fill="none" stroke="midnightblue" d="M1616.03,-116.868C1642.29,-108.215 1681.13,-95.2305 1722.91,-80.32"/>
<polygon fill="midnightblue" stroke="midnightblue" points="1724.21,-83.574 1732.44,-76.9049 1721.84,-76.9845 1724.21,-83.574"/>
</g>
</g>
</svg>
