<?xml version="1.0" encoding="UTF-8" standalone="no"?>
<!DOCTYPE svg PUBLIC "-//W3C//DTD SVG 1.1//EN"
 "http://www.w3.org/Graphics/SVG/1.1/DTD/svg11.dtd">
<!-- Generated by graphviz version 2.26.3 (20100126.1600)
 -->
<!-- Title: timedelaytransition.h Pages: 1 -->
<svg width="206pt" height="88pt"
 viewBox="0.00 0.00 206.00 88.00" xmlns="http://www.w3.org/2000/svg" xmlns:xlink="http://www.w3.org/1999/xlink">
<g id="graph1" class="graph" transform="scale(1 1) rotate(0) translate(4 84)">
<title>timedelaytransition.h</title>
<polygon fill="white" stroke="white" points="-4,5 -4,-84 203,-84 203,5 -4,5"/>
<!-- Node1 -->
<g id="node1" class="node"><title>Node1</title>
<polygon fill="#bfbfbf" stroke="black" points="25.5,-58.5 25.5,-79.5 138.5,-79.5 138.5,-58.5 25.5,-58.5"/>
<text text-anchor="middle" x="82" y="-66.5" font-family="Helvetica,sans-Serif" font-size="10.00">timedelaytransition.h</text>
</g>
<!-- Node2 -->
<g id="node3" class="node"><title>Node2</title>
<a xlink:href="icon_8cpp.htm" target="_top" xlink:title="icon.cpp">
<polygon fill="white" stroke="black" points="0,-0.5 0,-21.5 56,-21.5 56,-0.5 0,-0.5"/>
<text text-anchor="middle" x="28" y="-8.5" font-family="Helvetica,sans-Serif" font-size="10.00">icon.cpp</text>
</a>
</g>
<!-- Node1&#45;&gt;Node2 -->
<g id="edge2" class="edge"><title>Node1&#45;&gt;Node2</title>
<path fill="none" stroke="midnightblue" d="M65.083,-50.8299C56.1245,-41.2078 45.4366,-29.7282 37.8416,-21.5707"/>
<polygon fill="midnightblue" stroke="midnightblue" points="62.7197,-53.4279 72.0956,-58.3619 67.843,-48.658 62.7197,-53.4279"/>
</g>
<!-- Node3 -->
<g id="node5" class="node"><title>Node3</title>
<a xlink:href="timedelaytransition_8cpp.htm" target="_top" xlink:title="timedelaytransition.cpp">
<polygon fill="white" stroke="black" points="73.5,-0.5 73.5,-21.5 198.5,-21.5 198.5,-0.5 73.5,-0.5"/>
<text text-anchor="middle" x="136" y="-8.5" font-family="Helvetica,sans-Serif" font-size="10.00">timedelaytransition.cpp</text>
</a>
</g>
<!-- Node1&#45;&gt;Node3 -->
<g id="edge4" class="edge"><title>Node1&#45;&gt;Node3</title>
<path fill="none" stroke="midnightblue" d="M98.917,-50.8299C107.875,-41.2078 118.563,-29.7282 126.158,-21.5707"/>
<polygon fill="midnightblue" stroke="midnightblue" points="96.157,-48.658 91.9044,-58.3619 101.28,-53.4279 96.157,-48.658"/>
</g>
</g>
</svg>
