<?xml version="1.0" encoding="UTF-8" standalone="no"?>
<!DOCTYPE svg PUBLIC "-//W3C//DTD SVG 1.1//EN"
 "http://www.w3.org/Graphics/SVG/1.1/DTD/svg11.dtd">
<!-- Generated by graphviz version 2.26.3 (20100126.1600)
 -->
<!-- Title: TopLevelWindowManager.h Pages: 1 -->
<svg width="498pt" height="88pt"
 viewBox="0.00 0.00 498.00 88.00" xmlns="http://www.w3.org/2000/svg" xmlns:xlink="http://www.w3.org/1999/xlink">
<g id="graph1" class="graph" transform="scale(1 1) rotate(0) translate(4 84)">
<title>TopLevelWindowManager.h</title>
<polygon fill="white" stroke="white" points="-4,5 -4,-84 495,-84 495,5 -4,5"/>
<!-- Node1 -->
<g id="node1" class="node"><title>Node1</title>
<polygon fill="#bfbfbf" stroke="black" points="189.5,-58.5 189.5,-79.5 338.5,-79.5 338.5,-58.5 189.5,-58.5"/>
<text text-anchor="middle" x="264" y="-66.5" font-family="Helvetica,sans-Serif" font-size="10.00">TopLevelWindowManager.h</text>
</g>
<!-- Node2 -->
<g id="node3" class="node"><title>Node2</title>
<a xlink:href="DockModeWindowManager_8cpp.htm" target="_top" xlink:title="DockModeWindowManager.cpp">
<polygon fill="white" stroke="black" points="-0.5,-0.5 -0.5,-21.5 166.5,-21.5 166.5,-0.5 -0.5,-0.5"/>
<text text-anchor="middle" x="83" y="-8.5" font-family="Helvetica,sans-Serif" font-size="10.00">DockModeWindowManager.cpp</text>
</a>
</g>
<!-- Node1&#45;&gt;Node2 -->
<g id="edge2" class="edge"><title>Node1&#45;&gt;Node2</title>
<path fill="none" stroke="midnightblue" d="M221.598,-55.4127C189.305,-45.0646 145.494,-31.0258 115.839,-21.5231"/>
<polygon fill="midnightblue" stroke="midnightblue" points="220.631,-58.7781 231.222,-58.4966 222.767,-52.1119 220.631,-58.7781"/>
</g>
<!-- Node3 -->
<g id="node5" class="node"><title>Node3</title>
<a xlink:href="TopLevelWindowManager_8cpp.htm" target="_top" xlink:title="TopLevelWindowManager.cpp">
<polygon fill="white" stroke="black" points="183.5,-0.5 183.5,-21.5 344.5,-21.5 344.5,-0.5 183.5,-0.5"/>
<text text-anchor="middle" x="264" y="-8.5" font-family="Helvetica,sans-Serif" font-size="10.00">TopLevelWindowManager.cpp</text>
</a>
</g>
<!-- Node1&#45;&gt;Node3 -->
<g id="edge4" class="edge"><title>Node1&#45;&gt;Node3</title>
<path fill="none" stroke="midnightblue" d="M264,-48.1906C264,-39.1684 264,-28.9941 264,-21.5707"/>
<polygon fill="midnightblue" stroke="midnightblue" points="260.5,-48.3619 264,-58.3619 267.5,-48.3619 260.5,-48.3619"/>
</g>
<!-- Node4 -->
<g id="node7" class="node"><title>Node4</title>
<a xlink:href="WindowServerLuna_8cpp.htm" target="_top" xlink:title="WindowServerLuna.cpp">
<polygon fill="white" stroke="black" points="362,-0.5 362,-21.5 490,-21.5 490,-0.5 362,-0.5"/>
<text text-anchor="middle" x="426" y="-8.5" font-family="Helvetica,sans-Serif" font-size="10.00">WindowServerLuna.cpp</text>
</a>
</g>
<!-- Node1&#45;&gt;Node4 -->
<g id="edge6" class="edge"><title>Node1&#45;&gt;Node4</title>
<path fill="none" stroke="midnightblue" d="M303.077,-55.0095C331.866,-44.7023 370.409,-30.903 396.608,-21.5231"/>
<polygon fill="midnightblue" stroke="midnightblue" points="301.572,-51.8307 293.337,-58.4966 303.932,-58.421 301.572,-51.8307"/>
</g>
</g>
</svg>
