<?xml version="1.0" encoding="UTF-8" standalone="no"?>
<!DOCTYPE svg PUBLIC "-//W3C//DTD SVG 1.1//EN"
 "http://www.w3.org/Graphics/SVG/1.1/DTD/svg11.dtd">
<!-- Generated by graphviz version 2.26.3 (20100126.1600)
 -->
<!-- Title: TouchPlot.cpp Pages: 1 -->
<svg width="356pt" height="146pt"
 viewBox="0.00 0.00 356.00 146.00" xmlns="http://www.w3.org/2000/svg" xmlns:xlink="http://www.w3.org/1999/xlink">
<g id="graph1" class="graph" transform="scale(1 1) rotate(0) translate(4 142)">
<title>TouchPlot.cpp</title>
<polygon fill="white" stroke="white" points="-4,5 -4,-142 353,-142 353,5 -4,5"/>
<!-- Node1 -->
<g id="node1" class="node"><title>Node1</title>
<polygon fill="#bfbfbf" stroke="black" points="67.5,-116.5 67.5,-137.5 150.5,-137.5 150.5,-116.5 67.5,-116.5"/>
<text text-anchor="middle" x="109" y="-124.5" font-family="Helvetica,sans-Serif" font-size="10.00">TouchPlot.cpp</text>
</g>
<!-- Node2 -->
<g id="node3" class="node"><title>Node2</title>
<polygon fill="white" stroke="#bfbfbf" points="-0.5,-0.5 -0.5,-21.5 66.5,-21.5 66.5,-0.5 -0.5,-0.5"/>
<text text-anchor="middle" x="33" y="-8.5" font-family="Helvetica,sans-Serif" font-size="10.00">Common.h</text>
</g>
<!-- Node1&#45;&gt;Node2 -->
<g id="edge2" class="edge"><title>Node1&#45;&gt;Node2</title>
<path fill="none" stroke="midnightblue" d="M96.719,-116.366C86.9234,-107.407 73.3429,-93.8651 64,-80 53.8244,-64.8993 45.5774,-45.9147 40.155,-31.6834"/>
<polygon fill="midnightblue" stroke="midnightblue" points="43.29,-30.0643 36.5738,-21.8702 36.7142,-32.4641 43.29,-30.0643"/>
</g>
<!-- Node3 -->
<g id="node5" class="node"><title>Node3</title>
<a xlink:href="TouchPlot_8h.htm" target="_top" xlink:title="TouchPlot.h">
<polygon fill="white" stroke="black" points="73,-58.5 73,-79.5 145,-79.5 145,-58.5 73,-58.5"/>
<text text-anchor="middle" x="109" y="-66.5" font-family="Helvetica,sans-Serif" font-size="10.00">TouchPlot.h</text>
</a>
</g>
<!-- Node1&#45;&gt;Node3 -->
<g id="edge4" class="edge"><title>Node1&#45;&gt;Node3</title>
<path fill="none" stroke="midnightblue" d="M109,-116.362C109,-108.922 109,-98.7427 109,-89.7276"/>
<polygon fill="midnightblue" stroke="midnightblue" points="112.5,-89.5706 109,-79.5707 105.5,-89.5707 112.5,-89.5706"/>
</g>
<!-- Node7 -->
<g id="node14" class="node"><title>Node7</title>
<polygon fill="white" stroke="#bfbfbf" points="162.5,-58.5 162.5,-79.5 221.5,-79.5 221.5,-58.5 162.5,-58.5"/>
<text text-anchor="middle" x="192" y="-66.5" font-family="Helvetica,sans-Serif" font-size="10.00">QPainter</text>
</g>
<!-- Node1&#45;&gt;Node7 -->
<g id="edge14" class="edge"><title>Node1&#45;&gt;Node7</title>
<path fill="none" stroke="midnightblue" d="M124.223,-116.362C136.625,-107.696 154.346,-95.3126 168.557,-85.3819"/>
<polygon fill="midnightblue" stroke="midnightblue" points="170.681,-88.1676 176.873,-79.5707 166.671,-82.4297 170.681,-88.1676"/>
</g>
<!-- Node3&#45;&gt;Node2 -->
<g id="edge8" class="edge"><title>Node3&#45;&gt;Node2</title>
<path fill="none" stroke="midnightblue" d="M95.0604,-58.3619C83.8116,-49.7773 67.7842,-37.5459 54.835,-27.6636"/>
<polygon fill="midnightblue" stroke="midnightblue" points="56.9241,-24.8551 46.8512,-21.5707 52.6774,-30.4198 56.9241,-24.8551"/>
</g>
<!-- Node4 -->
<g id="node7" class="node"><title>Node4</title>
<polygon fill="white" stroke="#bfbfbf" points="84,-0.5 84,-21.5 134,-21.5 134,-0.5 84,-0.5"/>
<text text-anchor="middle" x="109" y="-8.5" font-family="Helvetica,sans-Serif" font-size="10.00">stdint.h</text>
</g>
<!-- Node3&#45;&gt;Node4 -->
<g id="edge6" class="edge"><title>Node3&#45;&gt;Node4</title>
<path fill="none" stroke="midnightblue" d="M109,-58.3619C109,-50.9219 109,-40.7427 109,-31.7276"/>
<polygon fill="midnightblue" stroke="midnightblue" points="112.5,-31.5706 109,-21.5707 105.5,-31.5707 112.5,-31.5706"/>
</g>
<!-- Node5 -->
<g id="node10" class="node"><title>Node5</title>
<polygon fill="white" stroke="#bfbfbf" points="152,-0.5 152,-21.5 250,-21.5 250,-0.5 152,-0.5"/>
<text text-anchor="middle" x="201" y="-8.5" font-family="Helvetica,sans-Serif" font-size="10.00">QGraphicsObject</text>
</g>
<!-- Node3&#45;&gt;Node5 -->
<g id="edge10" class="edge"><title>Node3&#45;&gt;Node5</title>
<path fill="none" stroke="midnightblue" d="M125.874,-58.3619C139.751,-49.6138 159.634,-37.0786 175.46,-27.1015"/>
<polygon fill="midnightblue" stroke="midnightblue" points="177.64,-29.8645 184.233,-21.5707 173.907,-23.943 177.64,-29.8645"/>
</g>
<!-- Node6 -->
<g id="node12" class="node"><title>Node6</title>
<polygon fill="white" stroke="#bfbfbf" points="267.5,-0.5 267.5,-21.5 348.5,-21.5 348.5,-0.5 267.5,-0.5"/>
<text text-anchor="middle" x="308" y="-8.5" font-family="Helvetica,sans-Serif" font-size="10.00">QTouchEvent</text>
</g>
<!-- Node3&#45;&gt;Node6 -->
<g id="edge12" class="edge"><title>Node3&#45;&gt;Node6</title>
<path fill="none" stroke="midnightblue" d="M145.037,-58.4966C177.901,-48.9183 226.617,-34.7196 262.224,-24.3418"/>
<polygon fill="midnightblue" stroke="midnightblue" points="263.274,-27.6815 271.895,-21.5231 261.315,-20.9611 263.274,-27.6815"/>
</g>
</g>
</svg>
