<?xml version="1.0" encoding="UTF-8" standalone="no"?>
<!DOCTYPE svg PUBLIC "-//W3C//DTD SVG 1.1//EN"
 "http://www.w3.org/Graphics/SVG/1.1/DTD/svg11.dtd">
<!-- Generated by graphviz version 2.26.3 (20100126.1600)
 -->
<!-- Title: variableanimsignaltransition.cpp Pages: 1 -->
<svg width="428pt" height="146pt"
 viewBox="0.00 0.00 428.00 146.00" xmlns="http://www.w3.org/2000/svg" xmlns:xlink="http://www.w3.org/1999/xlink">
<g id="graph1" class="graph" transform="scale(1 1) rotate(0) translate(4 142)">
<title>variableanimsignaltransition.cpp</title>
<polygon fill="white" stroke="white" points="-4,5 -4,-142 425,-142 425,5 -4,5"/>
<!-- Node1 -->
<g id="node1" class="node"><title>Node1</title>
<polygon fill="#bfbfbf" stroke="black" points="148.5,-116.5 148.5,-137.5 315.5,-137.5 315.5,-116.5 148.5,-116.5"/>
<text text-anchor="middle" x="232" y="-124.5" font-family="Helvetica,sans-Serif" font-size="10.00">variableanimsignaltransition.cpp</text>
</g>
<!-- Node2 -->
<g id="node3" class="node"><title>Node2</title>
<a xlink:href="variableanimsignaltransition_8h.htm" target="_top" xlink:title="variableanimsignaltransition.h">
<polygon fill="white" stroke="black" points="-0.5,-58.5 -0.5,-79.5 154.5,-79.5 154.5,-58.5 -0.5,-58.5"/>
<text text-anchor="middle" x="77" y="-66.5" font-family="Helvetica,sans-Serif" font-size="10.00">variableanimsignaltransition.h</text>
</a>
</g>
<!-- Node1&#45;&gt;Node2 -->
<g id="edge2" class="edge"><title>Node1&#45;&gt;Node2</title>
<path fill="none" stroke="midnightblue" d="M203.931,-116.497C178.99,-107.164 142.326,-93.4447 114.808,-83.1475"/>
<polygon fill="midnightblue" stroke="midnightblue" points="115.714,-79.7497 105.122,-79.5231 113.261,-86.3058 115.714,-79.7497"/>
</g>
<!-- Node4 -->
<g id="node7" class="node"><title>Node4</title>
<polygon fill="white" stroke="#bfbfbf" points="172,-58.5 172,-79.5 224,-79.5 224,-58.5 172,-58.5"/>
<text text-anchor="middle" x="198" y="-66.5" font-family="Helvetica,sans-Serif" font-size="10.00">QEvent</text>
</g>
<!-- Node1&#45;&gt;Node4 -->
<g id="edge6" class="edge"><title>Node1&#45;&gt;Node4</title>
<path fill="none" stroke="midnightblue" d="M225.764,-116.362C221.163,-108.513 214.775,-97.6159 209.286,-88.2527"/>
<polygon fill="midnightblue" stroke="midnightblue" points="212.273,-86.4276 204.197,-79.5707 206.234,-89.9677 212.273,-86.4276"/>
</g>
<!-- Node5 -->
<g id="node9" class="node"><title>Node5</title>
<polygon fill="white" stroke="#bfbfbf" points="242,-58.5 242,-79.5 292,-79.5 292,-58.5 242,-58.5"/>
<text text-anchor="middle" x="267" y="-66.5" font-family="Helvetica,sans-Serif" font-size="10.00">QState</text>
</g>
<!-- Node1&#45;&gt;Node5 -->
<g id="edge8" class="edge"><title>Node1&#45;&gt;Node5</title>
<path fill="none" stroke="midnightblue" d="M238.42,-116.362C243.156,-108.513 249.732,-97.6159 255.382,-88.2527"/>
<polygon fill="midnightblue" stroke="midnightblue" points="258.451,-89.9409 260.621,-79.5707 252.458,-86.3242 258.451,-89.9409"/>
</g>
<!-- Node6 -->
<g id="node11" class="node"><title>Node6</title>
<polygon fill="white" stroke="#bfbfbf" points="310,-58.5 310,-79.5 420,-79.5 420,-58.5 310,-58.5"/>
<text text-anchor="middle" x="365" y="-66.5" font-family="Helvetica,sans-Serif" font-size="10.00">QAbstractAnimation</text>
</g>
<!-- Node1&#45;&gt;Node6 -->
<g id="edge10" class="edge"><title>Node1&#45;&gt;Node6</title>
<path fill="none" stroke="midnightblue" d="M256.085,-116.497C277.139,-107.315 307.927,-93.8889 331.402,-83.6516"/>
<polygon fill="midnightblue" stroke="midnightblue" points="332.877,-86.8268 340.644,-79.6212 330.079,-80.4104 332.877,-86.8268"/>
</g>
<!-- Node3 -->
<g id="node5" class="node"><title>Node3</title>
<polygon fill="white" stroke="#bfbfbf" points="26.5,-0.5 26.5,-21.5 127.5,-21.5 127.5,-0.5 26.5,-0.5"/>
<text text-anchor="middle" x="77" y="-8.5" font-family="Helvetica,sans-Serif" font-size="10.00">QSignalTransition</text>
</g>
<!-- Node2&#45;&gt;Node3 -->
<g id="edge4" class="edge"><title>Node2&#45;&gt;Node3</title>
<path fill="none" stroke="midnightblue" d="M77,-58.3619C77,-50.9219 77,-40.7427 77,-31.7276"/>
<polygon fill="midnightblue" stroke="midnightblue" points="80.5001,-31.5706 77,-21.5707 73.5001,-31.5707 80.5001,-31.5706"/>
</g>
</g>
</svg>
