<?xml version="1.0" encoding="UTF-8" standalone="no"?>
<!DOCTYPE svg PUBLIC "-//W3C//DTD SVG 1.1//EN"
 "http://www.w3.org/Graphics/SVG/1.1/DTD/svg11.dtd">
<!-- Generated by graphviz version 2.26.3 (20100126.1600)
 -->
<!-- Title: VariantAnimation.h Pages: 1 -->
<svg width="196pt" height="88pt"
 viewBox="0.00 0.00 196.00 88.00" xmlns="http://www.w3.org/2000/svg" xmlns:xlink="http://www.w3.org/1999/xlink">
<g id="graph1" class="graph" transform="scale(1 1) rotate(0) translate(4 84)">
<title>VariantAnimation.h</title>
<polygon fill="white" stroke="white" points="-4,5 -4,-84 193,-84 193,5 -4,5"/>
<!-- Node1 -->
<g id="node1" class="node"><title>Node1</title>
<polygon fill="#bfbfbf" stroke="black" points="31.5,-58.5 31.5,-79.5 136.5,-79.5 136.5,-58.5 31.5,-58.5"/>
<text text-anchor="middle" x="84" y="-66.5" font-family="Helvetica,sans-Serif" font-size="10.00">VariantAnimation.h</text>
</g>
<!-- Node2 -->
<g id="node3" class="node"><title>Node2</title>
<polygon fill="white" stroke="#bfbfbf" points="-0.5,-0.5 -0.5,-21.5 66.5,-21.5 66.5,-0.5 -0.5,-0.5"/>
<text text-anchor="middle" x="33" y="-8.5" font-family="Helvetica,sans-Serif" font-size="10.00">Common.h</text>
</g>
<!-- Node1&#45;&gt;Node2 -->
<g id="edge2" class="edge"><title>Node1&#45;&gt;Node2</title>
<path fill="none" stroke="midnightblue" d="M74.6458,-58.3619C67.4567,-50.1861 57.3591,-38.7025 48.9073,-29.0907"/>
<polygon fill="midnightblue" stroke="midnightblue" points="51.5267,-26.7692 42.2949,-21.5707 46.2699,-31.3916 51.5267,-26.7692"/>
</g>
<!-- Node3 -->
<g id="node5" class="node"><title>Node3</title>
<polygon fill="white" stroke="#bfbfbf" points="83.5,-0.5 83.5,-21.5 188.5,-21.5 188.5,-0.5 83.5,-0.5"/>
<text text-anchor="middle" x="136" y="-8.5" font-family="Helvetica,sans-Serif" font-size="10.00">QVariantAnimation</text>
</g>
<!-- Node1&#45;&gt;Node3 -->
<g id="edge4" class="edge"><title>Node1&#45;&gt;Node3</title>
<path fill="none" stroke="midnightblue" d="M93.5376,-58.3619C100.868,-50.1861 111.163,-38.7025 119.781,-29.0907"/>
<polygon fill="midnightblue" stroke="midnightblue" points="122.453,-31.3528 126.523,-21.5707 117.241,-26.68 122.453,-31.3528"/>
</g>
</g>
</svg>
