<?xml version="1.0" encoding="UTF-8" standalone="no"?>
<!DOCTYPE svg PUBLIC "-//W3C//DTD SVG 1.1//EN"
 "http://www.w3.org/Graphics/SVG/1.1/DTD/svg11.dtd">
<!-- Generated by graphviz version 2.26.3 (20100126.1600)
 -->
<!-- Title: vcamera.h Pages: 1 -->
<svg width="1840pt" height="146pt"
 viewBox="0.00 0.00 1840.00 146.00" xmlns="http://www.w3.org/2000/svg" xmlns:xlink="http://www.w3.org/1999/xlink">
<g id="graph1" class="graph" transform="scale(1 1) rotate(0) translate(4 142)">
<title>vcamera.h</title>
<polygon fill="white" stroke="white" points="-4,5 -4,-142 1837,-142 1837,5 -4,5"/>
<!-- Node1 -->
<g id="node1" class="node"><title>Node1</title>
<polygon fill="#bfbfbf" stroke="black" points="1648.5,-116.5 1648.5,-137.5 1713.5,-137.5 1713.5,-116.5 1648.5,-116.5"/>
<text text-anchor="middle" x="1681" y="-124.5" font-family="Helvetica,sans-Serif" font-size="10.00">vcamera.h</text>
</g>
<!-- Node2 -->
<g id="node3" class="node"><title>Node2</title>
<a xlink:href="dimensionslauncher_8h.htm" target="_top" xlink:title="dimensionslauncher.h">
<polygon fill="white" stroke="black" points="929.5,-58.5 929.5,-79.5 1048.5,-79.5 1048.5,-58.5 929.5,-58.5"/>
<text text-anchor="middle" x="989" y="-66.5" font-family="Helvetica,sans-Serif" font-size="10.00">dimensionslauncher.h</text>
</a>
</g>
<!-- Node1&#45;&gt;Node2 -->
<g id="edge2" class="edge"><title>Node1&#45;&gt;Node2</title>
<path fill="none" stroke="midnightblue" d="M1637.91,-123.388C1518.86,-113.41 1185.24,-85.4477 1048.55,-73.9912"/>
<polygon fill="midnightblue" stroke="midnightblue" points="1637.83,-126.894 1648.09,-124.242 1638.42,-119.918 1637.83,-126.894"/>
</g>
<!-- Node12 -->
<g id="node23" class="node"><title>Node12</title>
<a xlink:href="reorderablepage_8cpp.htm" target="_top" xlink:title="reorderablepage.cpp">
<polygon fill="white" stroke="black" points="1623.5,-0.5 1623.5,-21.5 1738.5,-21.5 1738.5,-0.5 1623.5,-0.5"/>
<text text-anchor="middle" x="1681" y="-8.5" font-family="Helvetica,sans-Serif" font-size="10.00">reorderablepage.cpp</text>
</a>
</g>
<!-- Node1&#45;&gt;Node12 -->
<g id="edge36" class="edge"><title>Node1&#45;&gt;Node12</title>
<path fill="none" stroke="midnightblue" d="M1681,-106.123C1681,-81.2984 1681,-40.8235 1681,-21.6792"/>
<polygon fill="midnightblue" stroke="midnightblue" points="1677.5,-106.295 1681,-116.295 1684.5,-106.295 1677.5,-106.295"/>
</g>
<!-- Node14 -->
<g id="node27" class="node"><title>Node14</title>
<a xlink:href="vcamera_8cpp.htm" target="_top" xlink:title="vcamera.cpp">
<polygon fill="white" stroke="black" points="1755.5,-0.5 1755.5,-21.5 1832.5,-21.5 1832.5,-0.5 1755.5,-0.5"/>
<text text-anchor="middle" x="1794" y="-8.5" font-family="Helvetica,sans-Serif" font-size="10.00">vcamera.cpp</text>
</a>
</g>
<!-- Node1&#45;&gt;Node14 -->
<g id="edge38" class="edge"><title>Node1&#45;&gt;Node14</title>
<path fill="none" stroke="midnightblue" d="M1698.47,-109.063C1722.29,-84.6152 1764.19,-41.5996 1783.6,-21.6792"/>
<polygon fill="midnightblue" stroke="midnightblue" points="1695.9,-106.69 1691.43,-116.295 1700.91,-111.574 1695.9,-106.69"/>
</g>
<!-- Node3 -->
<g id="node5" class="node"><title>Node3</title>
<a xlink:href="dimensionslauncher_8cpp.htm" target="_top" xlink:title="dimensionslauncher.cpp">
<polygon fill="white" stroke="black" points="924,-0.5 924,-21.5 1054,-21.5 1054,-0.5 924,-0.5"/>
<text text-anchor="middle" x="989" y="-8.5" font-family="Helvetica,sans-Serif" font-size="10.00">dimensionslauncher.cpp</text>
</a>
</g>
<!-- Node2&#45;&gt;Node3 -->
<g id="edge4" class="edge"><title>Node2&#45;&gt;Node3</title>
<path fill="none" stroke="midnightblue" d="M989,-48.1906C989,-39.1684 989,-28.9941 989,-21.5707"/>
<polygon fill="midnightblue" stroke="midnightblue" points="985.5,-48.3619 989,-58.3619 992.5,-48.3619 985.5,-48.3619"/>
</g>
<!-- Node4 -->
<g id="node7" class="node"><title>Node4</title>
<a xlink:href="dimensionsmain_8cpp.htm" target="_top" xlink:title="dimensionsmain.cpp">
<polygon fill="white" stroke="black" points="1072,-0.5 1072,-21.5 1184,-21.5 1184,-0.5 1072,-0.5"/>
<text text-anchor="middle" x="1128" y="-8.5" font-family="Helvetica,sans-Serif" font-size="10.00">dimensionsmain.cpp</text>
</a>
</g>
<!-- Node2&#45;&gt;Node4 -->
<g id="edge6" class="edge"><title>Node2&#45;&gt;Node4</title>
<path fill="none" stroke="midnightblue" d="M1023.47,-54.6153C1047.98,-44.3889 1080.36,-30.8796 1102.55,-21.6212"/>
<polygon fill="midnightblue" stroke="midnightblue" points="1022.05,-51.4156 1014.17,-58.4966 1024.75,-57.8758 1022.05,-51.4156"/>
</g>
<!-- Node5 -->
<g id="node9" class="node"><title>Node5</title>
<a xlink:href="pagetabbar_8cpp.htm" target="_top" xlink:title="pagetabbar.cpp">
<polygon fill="white" stroke="black" points="1201.5,-0.5 1201.5,-21.5 1290.5,-21.5 1290.5,-0.5 1201.5,-0.5"/>
<text text-anchor="middle" x="1246" y="-8.5" font-family="Helvetica,sans-Serif" font-size="10.00">pagetabbar.cpp</text>
</a>
</g>
<!-- Node2&#45;&gt;Node5 -->
<g id="edge8" class="edge"><title>Node2&#45;&gt;Node5</title>
<path fill="none" stroke="midnightblue" d="M1045.52,-56.2451C1092.29,-45.6888 1157.85,-30.893 1201.1,-21.1337"/>
<polygon fill="midnightblue" stroke="midnightblue" points="1044.52,-52.881 1035.54,-58.4966 1046.07,-59.7093 1044.52,-52.881"/>
</g>
<!-- Node6 -->
<g id="node11" class="node"><title>Node6</title>
<a xlink:href="quicklaunchbar_8cpp.htm" target="_top" xlink:title="quicklaunchbar.cpp">
<polygon fill="white" stroke="black" points="1308,-0.5 1308,-21.5 1414,-21.5 1414,-0.5 1308,-0.5"/>
<text text-anchor="middle" x="1361" y="-8.5" font-family="Helvetica,sans-Serif" font-size="10.00">quicklaunchbar.cpp</text>
</a>
</g>
<!-- Node2&#45;&gt;Node6 -->
<g id="edge10" class="edge"><title>Node2&#45;&gt;Node6</title>
<path fill="none" stroke="midnightblue" d="M1058.99,-58.9017C1121.87,-49.7064 1216.7,-35.5373 1299,-22 1301.91,-21.5209 1304.9,-21.0205 1307.92,-20.5087"/>
<polygon fill="midnightblue" stroke="midnightblue" points="1058.18,-55.4824 1048.79,-60.3902 1059.19,-62.409 1058.18,-55.4824"/>
</g>
<!-- Node7 -->
<g id="node13" class="node"><title>Node7</title>
<a xlink:href="icon_8cpp.htm" target="_top" xlink:title="icon.cpp">
<polygon fill="white" stroke="black" points="1432,-0.5 1432,-21.5 1488,-21.5 1488,-0.5 1432,-0.5"/>
<text text-anchor="middle" x="1460" y="-8.5" font-family="Helvetica,sans-Serif" font-size="10.00">icon.cpp</text>
</a>
</g>
<!-- Node2&#45;&gt;Node7 -->
<g id="edge12" class="edge"><title>Node2&#45;&gt;Node7</title>
<path fill="none" stroke="midnightblue" d="M1059.04,-65.3272C1145.33,-59.9073 1296.09,-47.518 1423,-22 1425.89,-21.4187 1428.88,-20.7123 1431.85,-19.941"/>
<polygon fill="midnightblue" stroke="midnightblue" points="1058.61,-61.847 1048.84,-65.954 1059.04,-68.8338 1058.61,-61.847"/>
</g>
<!-- Node8 -->
<g id="node15" class="node"><title>Node8</title>
<a xlink:href="alphabetpage_8cpp.htm" target="_top" xlink:title="alphabetpage.cpp">
<polygon fill="white" stroke="black" points="1505.5,-0.5 1505.5,-21.5 1606.5,-21.5 1606.5,-0.5 1505.5,-0.5"/>
<text text-anchor="middle" x="1556" y="-8.5" font-family="Helvetica,sans-Serif" font-size="10.00">alphabetpage.cpp</text>
</a>
</g>
<!-- Node2&#45;&gt;Node8 -->
<g id="edge14" class="edge"><title>Node2&#45;&gt;Node8</title>
<path fill="none" stroke="midnightblue" d="M1058.73,-64.5894C1156.85,-57.9199 1341.1,-43.6977 1497,-22 1499.68,-21.6266 1502.43,-21.2155 1505.2,-20.7783"/>
<polygon fill="midnightblue" stroke="midnightblue" points="1058.39,-61.1047 1048.64,-65.2691 1058.86,-68.0889 1058.39,-61.1047"/>
</g>
<!-- Node9 -->
<g id="node17" class="node"><title>Node9</title>
<a xlink:href="reorderableiconlayout_8cpp.htm" target="_top" xlink:title="reorderableiconlayout.cpp">
<polygon fill="white" stroke="black" points="0,-0.5 0,-21.5 138,-21.5 138,-0.5 0,-0.5"/>
<text text-anchor="middle" x="69" y="-8.5" font-family="Helvetica,sans-Serif" font-size="10.00">reorderableiconlayout.cpp</text>
</a>
</g>
<!-- Node2&#45;&gt;Node9 -->
<g id="edge16" class="edge"><title>Node2&#45;&gt;Node9</title>
<path fill="none" stroke="midnightblue" d="M919.356,-67.0998C775.015,-62.7241 432.828,-50.0815 147,-22 144.142,-21.7192 141.228,-21.4104 138.286,-21.0802"/>
<polygon fill="midnightblue" stroke="midnightblue" points="919.302,-70.5997 929.403,-67.4007 919.512,-63.6028 919.302,-70.5997"/>
</g>
<!-- Node10 -->
<g id="node19" class="node"><title>Node10</title>
<a xlink:href="page_8cpp.htm" target="_top" xlink:title="page.cpp">
<polygon fill="white" stroke="black" points="156,-0.5 156,-21.5 216,-21.5 216,-0.5 156,-0.5"/>
<text text-anchor="middle" x="186" y="-8.5" font-family="Helvetica,sans-Serif" font-size="10.00">page.cpp</text>
</a>
</g>
<!-- Node2&#45;&gt;Node10 -->
<g id="edge18" class="edge"><title>Node2&#45;&gt;Node10</title>
<path fill="none" stroke="midnightblue" d="M918.881,-66.6022C756.273,-60.7315 357.286,-44.4595 225,-22 222.087,-21.5054 219.08,-20.8771 216.088,-20.1721"/>
<polygon fill="midnightblue" stroke="midnightblue" points="919.125,-70.1131 929.244,-66.9738 919.376,-63.1176 919.125,-70.1131"/>
</g>
<!-- Node11 -->
<g id="node21" class="node"><title>Node11</title>
<a xlink:href="pagemovement_8cpp.htm" target="_top" xlink:title="pagemovement.cpp">
<polygon fill="white" stroke="black" points="233.5,-0.5 233.5,-21.5 342.5,-21.5 342.5,-0.5 233.5,-0.5"/>
<text text-anchor="middle" x="288" y="-8.5" font-family="Helvetica,sans-Serif" font-size="10.00">pagemovement.cpp</text>
</a>
</g>
<!-- Node2&#45;&gt;Node11 -->
<g id="edge20" class="edge"><title>Node2&#45;&gt;Node11</title>
<path fill="none" stroke="midnightblue" d="M919.138,-66.1269C801.533,-60.7821 556.694,-47.4701 351,-22 348.245,-21.6589 345.428,-21.2795 342.586,-20.8726"/>
<polygon fill="midnightblue" stroke="midnightblue" points="919.287,-69.6371 929.434,-66.5892 919.601,-62.6441 919.287,-69.6371"/>
</g>
<!-- Node2&#45;&gt;Node12 -->
<g id="edge22" class="edge"><title>Node2&#45;&gt;Node12</title>
<path fill="none" stroke="midnightblue" d="M1058.88,-65.8145C1174.76,-60.0707 1413.86,-46.2619 1615,-22 1617.77,-21.6661 1620.6,-21.2982 1623.45,-20.9055"/>
<polygon fill="midnightblue" stroke="midnightblue" points="1058.55,-62.3266 1048.73,-66.3126 1058.89,-69.3182 1058.55,-62.3266"/>
</g>
<!-- Node13 -->
<g id="node25" class="node"><title>Node13</title>
<a xlink:href="overlaylayer_8cpp.htm" target="_top" xlink:title="overlaylayer.cpp">
<polygon fill="white" stroke="black" points="360,-0.5 360,-21.5 454,-21.5 454,-0.5 360,-0.5"/>
<text text-anchor="middle" x="407" y="-8.5" font-family="Helvetica,sans-Serif" font-size="10.00">overlaylayer.cpp</text>
</a>
</g>
<!-- Node2&#45;&gt;Node13 -->
<g id="edge24" class="edge"><title>Node2&#45;&gt;Node13</title>
<path fill="none" stroke="midnightblue" d="M919.13,-65.0953C818.115,-58.9205 625.562,-45.1636 463,-22 460.155,-21.5947 457.237,-21.14 454.297,-20.6524"/>
<polygon fill="midnightblue" stroke="midnightblue" points="919.016,-68.5947 929.209,-65.7047 919.438,-61.6074 919.016,-68.5947"/>
</g>
<!-- Node2&#45;&gt;Node14 -->
<g id="edge26" class="edge"><title>Node2&#45;&gt;Node14</title>
<path fill="none" stroke="midnightblue" d="M1058.8,-66.1749C1220.18,-59.3992 1615.36,-41.3451 1747,-22 1749.74,-21.5979 1752.55,-21.1167 1755.37,-20.5834"/>
<polygon fill="midnightblue" stroke="midnightblue" points="1058.36,-62.6902 1048.51,-66.6047 1058.65,-69.684 1058.36,-62.6902"/>
</g>
<!-- Node15 -->
<g id="node29" class="node"><title>Node15</title>
<a xlink:href="groupanchoritem_8cpp.htm" target="_top" xlink:title="groupanchoritem.cpp">
<polygon fill="white" stroke="black" points="472,-0.5 472,-21.5 588,-21.5 588,-0.5 472,-0.5"/>
<text text-anchor="middle" x="530" y="-8.5" font-family="Helvetica,sans-Serif" font-size="10.00">groupanchoritem.cpp</text>
</a>
</g>
<!-- Node2&#45;&gt;Node15 -->
<g id="edge28" class="edge"><title>Node2&#45;&gt;Node15</title>
<path fill="none" stroke="midnightblue" d="M919.211,-61.5573C840.725,-52.9722 709.52,-37.9745 597,-22 594.082,-21.5858 591.096,-21.1476 588.081,-20.694"/>
<polygon fill="midnightblue" stroke="midnightblue" points="919.137,-65.0699 929.458,-62.6744 919.896,-58.1111 919.137,-65.0699"/>
</g>
<!-- Node16 -->
<g id="node31" class="node"><title>Node16</title>
<a xlink:href="appeffector_8cpp.htm" target="_top" xlink:title="appeffector.cpp">
<polygon fill="white" stroke="black" points="606,-0.5 606,-21.5 696,-21.5 696,-0.5 606,-0.5"/>
<text text-anchor="middle" x="651" y="-8.5" font-family="Helvetica,sans-Serif" font-size="10.00">appeffector.cpp</text>
</a>
</g>
<!-- Node2&#45;&gt;Node16 -->
<g id="edge30" class="edge"><title>Node2&#45;&gt;Node16</title>
<path fill="none" stroke="midnightblue" d="M919.247,-58.1929C861.68,-49.097 777.905,-35.4535 705,-22 702.083,-21.4618 699.081,-20.8926 696.057,-20.3079"/>
<polygon fill="midnightblue" stroke="midnightblue" points="918.902,-61.6816 929.325,-59.781 919.992,-54.7669 918.902,-61.6816"/>
</g>
<!-- Node17 -->
<g id="node33" class="node"><title>Node17</title>
<a xlink:href="appmonitor_8cpp.htm" target="_top" xlink:title="appmonitor.cpp">
<polygon fill="white" stroke="black" points="713.5,-0.5 713.5,-21.5 802.5,-21.5 802.5,-0.5 713.5,-0.5"/>
<text text-anchor="middle" x="758" y="-8.5" font-family="Helvetica,sans-Serif" font-size="10.00">appmonitor.cpp</text>
</a>
</g>
<!-- Node2&#45;&gt;Node17 -->
<g id="edge32" class="edge"><title>Node2&#45;&gt;Node17</title>
<path fill="none" stroke="midnightblue" d="M937.267,-56.0107C895.847,-45.6109 838.492,-31.2102 799.911,-21.5231"/>
<polygon fill="midnightblue" stroke="midnightblue" points="936.616,-59.456 947.168,-58.4966 938.321,-52.6667 936.616,-59.456"/>
</g>
<!-- Node18 -->
<g id="node35" class="node"><title>Node18</title>
<a xlink:href="pagesaver_8cpp.htm" target="_top" xlink:title="pagesaver.cpp">
<polygon fill="white" stroke="black" points="820,-0.5 820,-21.5 906,-21.5 906,-0.5 820,-0.5"/>
<text text-anchor="middle" x="863" y="-8.5" font-family="Helvetica,sans-Serif" font-size="10.00">pagesaver.cpp</text>
</a>
</g>
<!-- Node2&#45;&gt;Node18 -->
<g id="edge34" class="edge"><title>Node2&#45;&gt;Node18</title>
<path fill="none" stroke="midnightblue" d="M956.862,-54.2064C934.757,-44.031 905.92,-30.7567 886.074,-21.6212"/>
<polygon fill="midnightblue" stroke="midnightblue" points="955.635,-57.4945 966.182,-58.4966 958.562,-51.1358 955.635,-57.4945"/>
</g>
</g>
</svg>
