<?xml version="1.0" encoding="UTF-8" standalone="no"?>
<!DOCTYPE svg PUBLIC "-//W3C//DTD SVG 1.1//EN"
 "http://www.w3.org/Graphics/SVG/1.1/DTD/svg11.dtd">
<!-- Generated by graphviz version 2.26.3 (20100126.1600)
 -->
<!-- Title: vcamera.h Pages: 1 -->
<svg width="396pt" height="88pt"
 viewBox="0.00 0.00 396.00 88.00" xmlns="http://www.w3.org/2000/svg" xmlns:xlink="http://www.w3.org/1999/xlink">
<g id="graph1" class="graph" transform="scale(1 1) rotate(0) translate(4 84)">
<title>vcamera.h</title>
<polygon fill="white" stroke="white" points="-4,5 -4,-84 393,-84 393,5 -4,5"/>
<!-- Node1 -->
<g id="node1" class="node"><title>Node1</title>
<polygon fill="#bfbfbf" stroke="black" points="173.5,-58.5 173.5,-79.5 238.5,-79.5 238.5,-58.5 173.5,-58.5"/>
<text text-anchor="middle" x="206" y="-66.5" font-family="Helvetica,sans-Serif" font-size="10.00">vcamera.h</text>
</g>
<!-- Node2 -->
<g id="node3" class="node"><title>Node2</title>
<polygon fill="white" stroke="#bfbfbf" points="-0.5,-0.5 -0.5,-21.5 54.5,-21.5 54.5,-0.5 -0.5,-0.5"/>
<text text-anchor="middle" x="27" y="-8.5" font-family="Helvetica,sans-Serif" font-size="10.00">QObject</text>
</g>
<!-- Node1&#45;&gt;Node2 -->
<g id="edge2" class="edge"><title>Node1&#45;&gt;Node2</title>
<path fill="none" stroke="midnightblue" d="M173.584,-58.4966C142.815,-48.5268 96.5977,-33.5512 64.3093,-23.0891"/>
<polygon fill="midnightblue" stroke="midnightblue" points="65.3605,-19.7506 54.7685,-19.9976 63.2027,-26.4097 65.3605,-19.7506"/>
</g>
<!-- Node3 -->
<g id="node5" class="node"><title>Node3</title>
<polygon fill="white" stroke="#bfbfbf" points="71.5,-0.5 71.5,-21.5 130.5,-21.5 130.5,-0.5 71.5,-0.5"/>
<text text-anchor="middle" x="101" y="-8.5" font-family="Helvetica,sans-Serif" font-size="10.00">QPointer</text>
</g>
<!-- Node1&#45;&gt;Node3 -->
<g id="edge4" class="edge"><title>Node1&#45;&gt;Node3</title>
<path fill="none" stroke="midnightblue" d="M186.741,-58.3619C170.534,-49.4094 147.147,-36.4908 128.891,-26.4064"/>
<polygon fill="midnightblue" stroke="midnightblue" points="130.582,-23.3422 120.137,-21.5707 127.198,-29.4696 130.582,-23.3422"/>
</g>
<!-- Node4 -->
<g id="node7" class="node"><title>Node4</title>
<polygon fill="white" stroke="#bfbfbf" points="147.5,-0.5 147.5,-21.5 200.5,-21.5 200.5,-0.5 147.5,-0.5"/>
<text text-anchor="middle" x="174" y="-8.5" font-family="Helvetica,sans-Serif" font-size="10.00">QRectF</text>
</g>
<!-- Node1&#45;&gt;Node4 -->
<g id="edge6" class="edge"><title>Node1&#45;&gt;Node4</title>
<path fill="none" stroke="midnightblue" d="M200.131,-58.3619C195.845,-50.5949 189.913,-39.8426 184.784,-30.5458"/>
<polygon fill="midnightblue" stroke="midnightblue" points="187.727,-28.6357 179.832,-21.5707 181.598,-32.0172 187.727,-28.6357"/>
</g>
<!-- Node5 -->
<g id="node9" class="node"><title>Node5</title>
<polygon fill="white" stroke="#bfbfbf" points="217.5,-0.5 217.5,-21.5 258.5,-21.5 258.5,-0.5 217.5,-0.5"/>
<text text-anchor="middle" x="238" y="-8.5" font-family="Helvetica,sans-Serif" font-size="10.00">QList</text>
</g>
<!-- Node1&#45;&gt;Node5 -->
<g id="edge8" class="edge"><title>Node1&#45;&gt;Node5</title>
<path fill="none" stroke="midnightblue" d="M211.869,-58.3619C216.155,-50.5949 222.087,-39.8426 227.216,-30.5458"/>
<polygon fill="midnightblue" stroke="midnightblue" points="230.402,-32.0172 232.168,-21.5707 224.273,-28.6357 230.402,-32.0172"/>
</g>
<!-- Node6 -->
<g id="node11" class="node"><title>Node6</title>
<polygon fill="white" stroke="#bfbfbf" points="275.5,-0.5 275.5,-21.5 316.5,-21.5 316.5,-0.5 275.5,-0.5"/>
<text text-anchor="middle" x="296" y="-8.5" font-family="Helvetica,sans-Serif" font-size="10.00">QSet</text>
</g>
<!-- Node1&#45;&gt;Node6 -->
<g id="edge10" class="edge"><title>Node1&#45;&gt;Node6</title>
<path fill="none" stroke="midnightblue" d="M222.507,-58.3619C236.082,-49.6138 255.533,-37.0786 271.015,-27.1015"/>
<polygon fill="midnightblue" stroke="midnightblue" points="273.088,-29.9297 279.597,-21.5707 269.296,-24.0457 273.088,-29.9297"/>
</g>
<!-- Node7 -->
<g id="node13" class="node"><title>Node7</title>
<polygon fill="white" stroke="#bfbfbf" points="334,-0.5 334,-21.5 388,-21.5 388,-0.5 334,-0.5"/>
<text text-anchor="middle" x="361" y="-8.5" font-family="Helvetica,sans-Serif" font-size="10.00">QImage</text>
</g>
<!-- Node1&#45;&gt;Node7 -->
<g id="edge12" class="edge"><title>Node1&#45;&gt;Node7</title>
<path fill="none" stroke="midnightblue" d="M234.069,-58.4966C259.321,-49.0476 296.589,-35.1021 324.217,-24.7641"/>
<polygon fill="midnightblue" stroke="midnightblue" points="325.78,-27.9164 333.919,-21.1337 323.326,-21.3603 325.78,-27.9164"/>
</g>
</g>
</svg>
