<?xml version="1.0" encoding="UTF-8" standalone="no"?>
<!DOCTYPE svg PUBLIC "-//W3C//DTD SVG 1.1//EN"
 "http://www.w3.org/Graphics/SVG/1.1/DTD/svg11.dtd">
<!-- Generated by graphviz version 2.26.3 (20100126.1600)
 -->
<!-- Title: VirtualKeyboardPreferences.cpp Pages: 1 -->
<svg width="2028pt" height="262pt"
 viewBox="0.00 0.00 2028.00 262.00" xmlns="http://www.w3.org/2000/svg" xmlns:xlink="http://www.w3.org/1999/xlink">
<g id="graph1" class="graph" transform="scale(1 1) rotate(0) translate(4 258)">
<title>VirtualKeyboardPreferences.cpp</title>
<polygon fill="white" stroke="white" points="-4,5 -4,-258 2025,-258 2025,5 -4,5"/>
<!-- Node1 -->
<g id="node1" class="node"><title>Node1</title>
<polygon fill="#bfbfbf" stroke="black" points="1171,-232.5 1171,-253.5 1339,-253.5 1339,-232.5 1171,-232.5"/>
<text text-anchor="middle" x="1255" y="-240.5" font-family="Helvetica,sans-Serif" font-size="10.00">VirtualKeyboardPreferences.cpp</text>
</g>
<!-- Node2 -->
<g id="node3" class="node"><title>Node2</title>
<a xlink:href="VirtualKeyboardPreferences_8h.htm" target="_top" xlink:title="VirtualKeyboardPreferences.h">
<polygon fill="white" stroke="black" points="18.5,-58.5 18.5,-79.5 175.5,-79.5 175.5,-58.5 18.5,-58.5"/>
<text text-anchor="middle" x="97" y="-66.5" font-family="Helvetica,sans-Serif" font-size="10.00">VirtualKeyboardPreferences.h</text>
</a>
</g>
<!-- Node1&#45;&gt;Node2 -->
<g id="edge2" class="edge"><title>Node1&#45;&gt;Node2</title>
<path fill="none" stroke="midnightblue" d="M1170.85,-239.269C1004.91,-230.676 624.502,-204.842 312,-138 247.942,-124.298 175.904,-99.0846 133.598,-83.2258"/>
<polygon fill="midnightblue" stroke="midnightblue" points="134.607,-79.8657 124.016,-79.6028 132.132,-86.4133 134.607,-79.8657"/>
</g>
<!-- Node7 -->
<g id="node13" class="node"><title>Node7</title>
<a xlink:href="Preferences_8h.htm" target="_top" xlink:title="Preferences.h">
<polygon fill="white" stroke="black" points="792.5,-116.5 792.5,-137.5 875.5,-137.5 875.5,-116.5 792.5,-116.5"/>
<text text-anchor="middle" x="834" y="-124.5" font-family="Helvetica,sans-Serif" font-size="10.00">Preferences.h</text>
</a>
</g>
<!-- Node1&#45;&gt;Node7 -->
<g id="edge12" class="edge"><title>Node1&#45;&gt;Node7</title>
<path fill="none" stroke="midnightblue" d="M1216.52,-232.398C1139.48,-211.169 966.433,-163.49 882.071,-140.245"/>
<polygon fill="midnightblue" stroke="midnightblue" points="882.806,-136.817 872.235,-137.535 880.946,-143.566 882.806,-136.817"/>
</g>
<!-- Node14 -->
<g id="node28" class="node"><title>Node14</title>
<polygon fill="white" stroke="#bfbfbf" points="1330.5,-174.5 1330.5,-195.5 1393.5,-195.5 1393.5,-174.5 1330.5,-174.5"/>
<text text-anchor="middle" x="1362" y="-182.5" font-family="Helvetica,sans-Serif" font-size="10.00">Logging.h</text>
</g>
<!-- Node1&#45;&gt;Node14 -->
<g id="edge28" class="edge"><title>Node1&#45;&gt;Node14</title>
<path fill="none" stroke="midnightblue" d="M1274.63,-232.362C1291.14,-223.409 1314.97,-210.491 1333.58,-200.406"/>
<polygon fill="midnightblue" stroke="midnightblue" points="1335.38,-203.413 1342.5,-195.571 1332.04,-197.259 1335.38,-203.413"/>
</g>
<!-- Node15 -->
<g id="node30" class="node"><title>Node15</title>
<a xlink:href="SystemUiController_8h.htm" target="_top" xlink:title="SystemUiController.h">
<polygon fill="white" stroke="black" points="1197,-174.5 1197,-195.5 1313,-195.5 1313,-174.5 1197,-174.5"/>
<text text-anchor="middle" x="1255" y="-182.5" font-family="Helvetica,sans-Serif" font-size="10.00">SystemUiController.h</text>
</a>
</g>
<!-- Node1&#45;&gt;Node15 -->
<g id="edge30" class="edge"><title>Node1&#45;&gt;Node15</title>
<path fill="none" stroke="midnightblue" d="M1255,-232.362C1255,-224.922 1255,-214.743 1255,-205.728"/>
<polygon fill="midnightblue" stroke="midnightblue" points="1258.5,-205.571 1255,-195.571 1251.5,-205.571 1258.5,-205.571"/>
</g>
<!-- Node44 -->
<g id="node113" class="node"><title>Node44</title>
<polygon fill="white" stroke="#bfbfbf" points="1410.5,-174.5 1410.5,-195.5 1483.5,-195.5 1483.5,-174.5 1410.5,-174.5"/>
<text text-anchor="middle" x="1447" y="-182.5" font-family="Helvetica,sans-Serif" font-size="10.00">JSONUtils.h</text>
</g>
<!-- Node1&#45;&gt;Node44 -->
<g id="edge138" class="edge"><title>Node1&#45;&gt;Node44</title>
<path fill="none" stroke="midnightblue" d="M1289.77,-232.497C1321.34,-222.959 1368.08,-208.841 1402.39,-198.475"/>
<polygon fill="midnightblue" stroke="midnightblue" points="1403.6,-201.765 1412.17,-195.523 1401.58,-195.064 1403.6,-201.765"/>
</g>
<!-- Node3 -->
<g id="node5" class="node"><title>Node3</title>
<polygon fill="white" stroke="#bfbfbf" points="603.5,-0.5 603.5,-21.5 646.5,-21.5 646.5,-0.5 603.5,-0.5"/>
<text text-anchor="middle" x="625" y="-8.5" font-family="Helvetica,sans-Serif" font-size="10.00">string</text>
</g>
<!-- Node2&#45;&gt;Node3 -->
<g id="edge4" class="edge"><title>Node2&#45;&gt;Node3</title>
<path fill="none" stroke="midnightblue" d="M175.786,-59.5189C180.256,-59 184.685,-58.4906 189,-58 340.099,-40.8233 520.844,-21.8374 592.982,-14.3228"/>
<polygon fill="midnightblue" stroke="midnightblue" points="593.63,-17.7743 603.214,-13.258 592.906,-10.8119 593.63,-17.7743"/>
</g>
<!-- Node4 -->
<g id="node7" class="node"><title>Node4</title>
<polygon fill="white" stroke="#bfbfbf" points="366,-0.5 366,-21.5 412,-21.5 412,-0.5 366,-0.5"/>
<text text-anchor="middle" x="389" y="-8.5" font-family="Helvetica,sans-Serif" font-size="10.00">vector</text>
</g>
<!-- Node2&#45;&gt;Node4 -->
<g id="edge6" class="edge"><title>Node2&#45;&gt;Node4</title>
<path fill="none" stroke="midnightblue" d="M149.879,-58.4966C209.719,-46.6107 305.377,-27.6101 355.648,-17.6247"/>
<polygon fill="midnightblue" stroke="midnightblue" points="356.531,-21.0178 365.657,-15.6365 355.167,-14.1519 356.531,-21.0178"/>
</g>
<!-- Node5 -->
<g id="node9" class="node"><title>Node5</title>
<polygon fill="white" stroke="#bfbfbf" points="-0.5,-0.5 -0.5,-21.5 98.5,-21.5 98.5,-0.5 -0.5,-0.5"/>
<text text-anchor="middle" x="49" y="-8.5" font-family="Helvetica,sans-Serif" font-size="10.00">VirtualKeyboard.h</text>
</g>
<!-- Node2&#45;&gt;Node5 -->
<g id="edge8" class="edge"><title>Node2&#45;&gt;Node5</title>
<path fill="none" stroke="midnightblue" d="M88.1961,-58.3619C81.4975,-50.2678 72.116,-38.9318 64.2107,-29.3796"/>
<polygon fill="midnightblue" stroke="midnightblue" points="66.8202,-27.0431 57.7481,-21.5707 61.4275,-31.5061 66.8202,-27.0431"/>
</g>
<!-- Node6 -->
<g id="node11" class="node"><title>Node6</title>
<polygon fill="white" stroke="#bfbfbf" points="115.5,-0.5 115.5,-21.5 174.5,-21.5 174.5,-0.5 115.5,-0.5"/>
<text text-anchor="middle" x="145" y="-8.5" font-family="Helvetica,sans-Serif" font-size="10.00">qobject.h</text>
</g>
<!-- Node2&#45;&gt;Node6 -->
<g id="edge10" class="edge"><title>Node2&#45;&gt;Node6</title>
<path fill="none" stroke="midnightblue" d="M105.804,-58.3619C112.502,-50.2678 121.884,-38.9318 129.789,-29.3796"/>
<polygon fill="midnightblue" stroke="midnightblue" points="132.573,-31.5061 136.252,-21.5707 127.18,-27.0431 132.573,-31.5061"/>
</g>
<!-- Node7&#45;&gt;Node3 -->
<g id="edge18" class="edge"><title>Node7&#45;&gt;Node3</title>
<path fill="none" stroke="midnightblue" d="M792.425,-117.834C738.152,-105.706 649.385,-85.246 644,-80 631.109,-67.4421 626.723,-47.006 625.344,-31.6267"/>
<polygon fill="midnightblue" stroke="midnightblue" points="628.832,-31.3018 624.794,-21.5068 621.842,-31.6823 628.832,-31.3018"/>
</g>
<!-- Node8 -->
<g id="node15" class="node"><title>Node8</title>
<polygon fill="white" stroke="#bfbfbf" points="1242.5,-0.5 1242.5,-21.5 1309.5,-21.5 1309.5,-0.5 1242.5,-0.5"/>
<text text-anchor="middle" x="1276" y="-8.5" font-family="Helvetica,sans-Serif" font-size="10.00">Common.h</text>
</g>
<!-- Node7&#45;&gt;Node8 -->
<g id="edge14" class="edge"><title>Node7&#45;&gt;Node8</title>
<path fill="none" stroke="midnightblue" d="M875.68,-118.307C880.167,-117.478 884.673,-116.69 889,-116 1022.05,-94.7722 1065.78,-132.168 1190,-80 1217.6,-68.4073 1243.58,-45.2241 1259.61,-28.9403"/>
<polygon fill="midnightblue" stroke="midnightblue" points="1262.27,-31.2284 1266.65,-21.5817 1257.21,-26.3909 1262.27,-31.2284"/>
</g>
<!-- Node9 -->
<g id="node17" class="node"><title>Node9</title>
<polygon fill="white" stroke="#bfbfbf" points="1067,-58.5 1067,-79.5 1181,-79.5 1181,-58.5 1067,-58.5"/>
<text text-anchor="middle" x="1124" y="-66.5" font-family="Helvetica,sans-Serif" font-size="10.00">LocalePreferences.h</text>
</g>
<!-- Node7&#45;&gt;Node9 -->
<g id="edge16" class="edge"><title>Node7&#45;&gt;Node9</title>
<path fill="none" stroke="midnightblue" d="M875.55,-118.69C924.232,-108.954 1005.38,-92.7247 1061.62,-81.4752"/>
<polygon fill="midnightblue" stroke="midnightblue" points="1062.35,-84.8985 1071.47,-79.5052 1060.98,-78.0344 1062.35,-84.8985"/>
</g>
<!-- Node10 -->
<g id="node20" class="node"><title>Node10</title>
<polygon fill="white" stroke="#bfbfbf" points="1237,-58.5 1237,-79.5 1315,-79.5 1315,-58.5 1237,-58.5"/>
<text text-anchor="middle" x="1276" y="-66.5" font-family="Helvetica,sans-Serif" font-size="10.00">lunaservice.h</text>
</g>
<!-- Node7&#45;&gt;Node10 -->
<g id="edge20" class="edge"><title>Node7&#45;&gt;Node10</title>
<path fill="none" stroke="midnightblue" d="M875.672,-118.256C880.161,-117.436 884.669,-116.665 889,-116 1036.57,-93.3366 1075.51,-103.198 1223,-80 1224.25,-79.8029 1225.52,-79.596 1226.8,-79.3808"/>
<polygon fill="midnightblue" stroke="midnightblue" points="1227.49,-82.8123 1236.72,-77.5968 1226.25,-75.9229 1227.49,-82.8123"/>
</g>
<!-- Node11 -->
<g id="node22" class="node"><title>Node11</title>
<polygon fill="white" stroke="#bfbfbf" points="544.5,-58.5 544.5,-79.5 597.5,-79.5 597.5,-58.5 544.5,-58.5"/>
<text text-anchor="middle" x="571" y="-66.5" font-family="Helvetica,sans-Serif" font-size="10.00">Mutex.h</text>
</g>
<!-- Node7&#45;&gt;Node11 -->
<g id="edge22" class="edge"><title>Node7&#45;&gt;Node11</title>
<path fill="none" stroke="midnightblue" d="M792.266,-117.781C789.469,-117.175 786.694,-116.577 784,-116 707.203,-99.5625 687.345,-98.4214 611,-80 609.915,-79.7381 608.814,-79.4677 607.705,-79.1906"/>
<polygon fill="midnightblue" stroke="midnightblue" points="608.178,-75.6976 597.619,-76.5724 606.419,-82.473 608.178,-75.6976"/>
</g>
<!-- Node12 -->
<g id="node24" class="node"><title>Node12</title>
<polygon fill="white" stroke="#bfbfbf" points="1519,-58.5 1519,-79.5 1611,-79.5 1611,-58.5 1519,-58.5"/>
<text text-anchor="middle" x="1565" y="-66.5" font-family="Helvetica,sans-Serif" font-size="10.00">CustomEvents.h</text>
</g>
<!-- Node7&#45;&gt;Node12 -->
<g id="edge24" class="edge"><title>Node7&#45;&gt;Node12</title>
<path fill="none" stroke="midnightblue" d="M875.576,-121.292C890.227,-119.416 906.826,-117.444 922,-116 1165.87,-92.7977 1228.06,-102.395 1472,-80 1483.89,-78.9085 1496.61,-77.538 1508.71,-76.1384"/>
<polygon fill="midnightblue" stroke="midnightblue" points="1509.17,-79.6083 1518.69,-74.9614 1508.35,-72.6564 1509.17,-79.6083"/>
</g>
<!-- Node13 -->
<g id="node26" class="node"><title>Node13</title>
<polygon fill="white" stroke="#bfbfbf" points="1408.5,-58.5 1408.5,-79.5 1463.5,-79.5 1463.5,-58.5 1408.5,-58.5"/>
<text text-anchor="middle" x="1436" y="-66.5" font-family="Helvetica,sans-Serif" font-size="10.00">QObject</text>
</g>
<!-- Node7&#45;&gt;Node13 -->
<g id="edge26" class="edge"><title>Node7&#45;&gt;Node13</title>
<path fill="none" stroke="midnightblue" d="M875.596,-121.497C890.25,-119.639 906.844,-117.625 922,-116 1100.36,-96.8723 1145.4,-96.7669 1324,-80 1348.74,-77.6773 1376.54,-74.9473 1398.26,-72.7881"/>
<polygon fill="midnightblue" stroke="midnightblue" points="1398.79,-76.253 1408.39,-71.7783 1398.09,-69.2875 1398.79,-76.253"/>
</g>
<!-- Node15&#45;&gt;Node3 -->
<g id="edge34" class="edge"><title>Node15&#45;&gt;Node3</title>
<path fill="none" stroke="midnightblue" d="M1196.66,-183.618C987.809,-178.067 286.359,-154.004 222,-80 215.584,-72.622 215.499,-65.3034 222,-58 246.584,-30.3822 501.935,-16.451 592.976,-12.3337"/>
<polygon fill="midnightblue" stroke="midnightblue" points="593.402,-15.8184 603.238,-11.88 593.093,-8.82519 593.402,-15.8184"/>
</g>
<!-- Node15&#45;&gt;Node8 -->
<g id="edge32" class="edge"><title>Node15&#45;&gt;Node8</title>
<path fill="none" stroke="midnightblue" d="M1196.82,-180.892C1106.18,-173.894 939.734,-158.412 922,-138 915.587,-130.619 915.402,-123.216 922,-116 982.527,-49.811 1263.47,-146.189 1324,-80 1338.94,-63.6573 1319.3,-42.4429 1300.83,-27.8758"/>
<polygon fill="midnightblue" stroke="midnightblue" points="1302.66,-24.873 1292.55,-21.692 1298.47,-30.4809 1302.66,-24.873"/>
</g>
<!-- Node15&#45;&gt;Node12 -->
<g id="edge124" class="edge"><title>Node15&#45;&gt;Node12</title>
<path fill="none" stroke="midnightblue" d="M1313.07,-175.257C1316.09,-174.816 1319.08,-174.394 1322,-174 1397.3,-163.841 1611.18,-194.482 1662,-138 1682.72,-114.969 1645.91,-95.2512 1611.85,-82.8632"/>
<polygon fill="midnightblue" stroke="midnightblue" points="1612.96,-79.5434 1602.36,-79.5669 1610.66,-86.1555 1612.96,-79.5434"/>
</g>
<!-- Node15&#45;&gt;Node13 -->
<g id="edge42" class="edge"><title>Node15&#45;&gt;Node13</title>
<path fill="none" stroke="midnightblue" d="M1313.08,-175.275C1316.09,-174.83 1319.08,-174.402 1322,-174 1393.77,-164.128 1597.69,-191.979 1646,-138 1652.52,-130.714 1652.11,-123.632 1646,-116 1635.25,-102.583 1531.42,-84.1655 1473.9,-74.8721"/>
<polygon fill="midnightblue" stroke="midnightblue" points="1474.16,-71.3691 1463.73,-73.2463 1473.05,-78.2813 1474.16,-71.3691"/>
</g>
<!-- Node16 -->
<g id="node34" class="node"><title>Node16</title>
<polygon fill="white" stroke="#bfbfbf" points="931,-116.5 931,-137.5 983,-137.5 983,-116.5 931,-116.5"/>
<text text-anchor="middle" x="957" y="-124.5" font-family="Helvetica,sans-Serif" font-size="10.00">QEvent</text>
</g>
<!-- Node15&#45;&gt;Node16 -->
<g id="edge36" class="edge"><title>Node15&#45;&gt;Node16</title>
<path fill="none" stroke="midnightblue" d="M1196.84,-176.788C1145.55,-169.055 1068.66,-156.267 993.397,-138.128"/>
<polygon fill="midnightblue" stroke="midnightblue" points="993.817,-134.627 983.272,-135.652 992.154,-141.427 993.817,-134.627"/>
</g>
<!-- Node17 -->
<g id="node36" class="node"><title>Node17</title>
<polygon fill="white" stroke="#bfbfbf" points="1001,-116.5 1001,-137.5 1071,-137.5 1071,-116.5 1001,-116.5"/>
<text text-anchor="middle" x="1036" y="-124.5" font-family="Helvetica,sans-Serif" font-size="10.00">QKeyEvent</text>
</g>
<!-- Node15&#45;&gt;Node17 -->
<g id="edge38" class="edge"><title>Node15&#45;&gt;Node17</title>
<path fill="none" stroke="midnightblue" d="M1215.34,-174.497C1177.47,-164.466 1120.47,-149.37 1080.93,-138.9"/>
<polygon fill="midnightblue" stroke="midnightblue" points="1081.59,-135.454 1071.03,-136.277 1079.8,-142.221 1081.59,-135.454"/>
</g>
<!-- Node18 -->
<g id="node38" class="node"><title>Node18</title>
<polygon fill="white" stroke="#bfbfbf" points="1088.5,-116.5 1088.5,-137.5 1171.5,-137.5 1171.5,-116.5 1088.5,-116.5"/>
<text text-anchor="middle" x="1130" y="-124.5" font-family="Helvetica,sans-Serif" font-size="10.00">QMouseEvent</text>
</g>
<!-- Node15&#45;&gt;Node18 -->
<g id="edge40" class="edge"><title>Node15&#45;&gt;Node18</title>
<path fill="none" stroke="midnightblue" d="M1232.36,-174.497C1212.75,-165.397 1184.15,-152.127 1162.17,-141.925"/>
<polygon fill="midnightblue" stroke="midnightblue" points="1163.43,-138.655 1152.89,-137.621 1160.49,-145.005 1163.43,-138.655"/>
</g>
<!-- Node19 -->
<g id="node41" class="node"><title>Node19</title>
<polygon fill="white" stroke="#bfbfbf" points="1188.5,-116.5 1188.5,-137.5 1235.5,-137.5 1235.5,-116.5 1188.5,-116.5"/>
<text text-anchor="middle" x="1212" y="-124.5" font-family="Helvetica,sans-Serif" font-size="10.00">QRect</text>
</g>
<!-- Node15&#45;&gt;Node19 -->
<g id="edge44" class="edge"><title>Node15&#45;&gt;Node19</title>
<path fill="none" stroke="midnightblue" d="M1247.11,-174.362C1241.17,-166.35 1232.88,-155.161 1225.84,-145.67"/>
<polygon fill="midnightblue" stroke="midnightblue" points="1228.6,-143.519 1219.84,-137.571 1222.98,-147.688 1228.6,-143.519"/>
</g>
<!-- Node20 -->
<g id="node43" class="node"><title>Node20</title>
<polygon fill="white" stroke="#bfbfbf" points="1252.5,-116.5 1252.5,-137.5 1345.5,-137.5 1345.5,-116.5 1252.5,-116.5"/>
<text text-anchor="middle" x="1299" y="-124.5" font-family="Helvetica,sans-Serif" font-size="10.00">QSharedPointer</text>
</g>
<!-- Node15&#45;&gt;Node20 -->
<g id="edge46" class="edge"><title>Node15&#45;&gt;Node20</title>
<path fill="none" stroke="midnightblue" d="M1263.07,-174.362C1269.15,-166.35 1277.64,-155.161 1284.84,-145.67"/>
<polygon fill="midnightblue" stroke="midnightblue" points="1287.73,-147.653 1290.98,-137.571 1282.15,-143.422 1287.73,-147.653"/>
</g>
<!-- Node21 -->
<g id="node45" class="node"><title>Node21</title>
<polygon fill="white" stroke="#bfbfbf" points="1363,-116.5 1363,-137.5 1449,-137.5 1449,-116.5 1363,-116.5"/>
<text text-anchor="middle" x="1406" y="-124.5" font-family="Helvetica,sans-Serif" font-size="10.00">QWeakPointer</text>
</g>
<!-- Node15&#45;&gt;Node21 -->
<g id="edge48" class="edge"><title>Node15&#45;&gt;Node21</title>
<path fill="none" stroke="midnightblue" d="M1282.34,-174.497C1306.64,-165.164 1342.36,-151.445 1369.17,-141.147"/>
<polygon fill="midnightblue" stroke="midnightblue" points="1370.52,-144.376 1378.6,-137.523 1368.01,-137.842 1370.52,-144.376"/>
</g>
<!-- Node22 -->
<g id="node47" class="node"><title>Node22</title>
<a xlink:href="ApplicationDescription_8h.htm" target="_top" xlink:title="ApplicationDescription.h">
<polygon fill="white" stroke="black" points="645,-116.5 645,-137.5 775,-137.5 775,-116.5 645,-116.5"/>
<text text-anchor="middle" x="710" y="-124.5" font-family="Helvetica,sans-Serif" font-size="10.00">ApplicationDescription.h</text>
</a>
</g>
<!-- Node15&#45;&gt;Node22 -->
<g id="edge50" class="edge"><title>Node15&#45;&gt;Node22</title>
<path fill="none" stroke="midnightblue" d="M1196.89,-180.108C1109.78,-172.573 939.921,-157.109 785.495,-138.142"/>
<polygon fill="midnightblue" stroke="midnightblue" points="785.701,-134.641 775.347,-136.888 784.842,-141.588 785.701,-134.641"/>
</g>
<!-- Node34 -->
<g id="node80" class="node"><title>Node34</title>
<polygon fill="white" stroke="#bfbfbf" points="1467,-116.5 1467,-137.5 1519,-137.5 1519,-116.5 1467,-116.5"/>
<text text-anchor="middle" x="1493" y="-124.5" font-family="Helvetica,sans-Serif" font-size="10.00">Event.h</text>
</g>
<!-- Node15&#45;&gt;Node34 -->
<g id="edge92" class="edge"><title>Node15&#45;&gt;Node34</title>
<path fill="none" stroke="midnightblue" d="M1305.32,-174.478C1344.31,-166.071 1399.86,-153.539 1456.8,-138.198"/>
<polygon fill="midnightblue" stroke="midnightblue" points="1457.96,-141.509 1466.69,-135.507 1456.12,-134.754 1457.96,-141.509"/>
</g>
<!-- Node35 -->
<g id="node82" class="node"><title>Node35</title>
<a xlink:href="SuspendBlocker_8h.htm" target="_top" xlink:title="SuspendBlocker.h">
<polygon fill="white" stroke="black" points="1536.5,-116.5 1536.5,-137.5 1637.5,-137.5 1637.5,-116.5 1536.5,-116.5"/>
<text text-anchor="middle" x="1587" y="-124.5" font-family="Helvetica,sans-Serif" font-size="10.00">SuspendBlocker.h</text>
</a>
</g>
<!-- Node15&#45;&gt;Node35 -->
<g id="edge94" class="edge"><title>Node15&#45;&gt;Node35</title>
<path fill="none" stroke="midnightblue" d="M1313.09,-175.239C1366.12,-166.274 1446.95,-152.472 1526.31,-138.289"/>
<polygon fill="midnightblue" stroke="midnightblue" points="1527.25,-141.675 1536.48,-136.467 1526.02,-134.785 1527.25,-141.675"/>
</g>
<!-- Node36 -->
<g id="node87" class="node"><title>Node36</title>
<a xlink:href="VariantAnimation_8h.htm" target="_top" xlink:title="VariantAnimation.h">
<polygon fill="white" stroke="black" points="1628.5,-58.5 1628.5,-79.5 1733.5,-79.5 1733.5,-58.5 1628.5,-58.5"/>
<text text-anchor="middle" x="1681" y="-66.5" font-family="Helvetica,sans-Serif" font-size="10.00">VariantAnimation.h</text>
</a>
</g>
<!-- Node15&#45;&gt;Node36 -->
<g id="edge102" class="edge"><title>Node15&#45;&gt;Node36</title>
<path fill="none" stroke="midnightblue" d="M1313.07,-175.239C1316.09,-174.803 1319.08,-174.387 1322,-174 1401.05,-163.536 1624.67,-196.361 1679,-138 1690.76,-125.365 1689.92,-105.105 1686.94,-89.7994"/>
<polygon fill="midnightblue" stroke="midnightblue" points="1690.25,-88.6274 1684.53,-79.7105 1683.45,-90.2494 1690.25,-88.6274"/>
</g>
<!-- Node38 -->
<g id="node92" class="node"><title>Node38</title>
<a xlink:href="Window_8h.htm" target="_top" xlink:title="Window.h">
<polygon fill="white" stroke="black" points="1827,-58.5 1827,-79.5 1889,-79.5 1889,-58.5 1827,-58.5"/>
<text text-anchor="middle" x="1858" y="-66.5" font-family="Helvetica,sans-Serif" font-size="10.00">Window.h</text>
</a>
</g>
<!-- Node15&#45;&gt;Node38 -->
<g id="edge108" class="edge"><title>Node15&#45;&gt;Node38</title>
<path fill="none" stroke="midnightblue" d="M1313.06,-175.124C1316.08,-174.718 1319.07,-174.34 1322,-174 1380.19,-167.247 1805.04,-177.828 1848,-138 1860.86,-126.08 1862.37,-105.56 1861.25,-89.9875"/>
<polygon fill="midnightblue" stroke="midnightblue" points="1864.69,-89.2652 1860.1,-79.7165 1857.74,-90.0437 1864.69,-89.2652"/>
</g>
<!-- Node42 -->
<g id="node105" class="node"><title>Node42</title>
<a xlink:href="StatusBar_8h.htm" target="_top" xlink:title="StatusBar.h">
<polygon fill="white" stroke="black" points="1768.5,-116.5 1768.5,-137.5 1839.5,-137.5 1839.5,-116.5 1768.5,-116.5"/>
<text text-anchor="middle" x="1804" y="-124.5" font-family="Helvetica,sans-Serif" font-size="10.00">StatusBar.h</text>
</a>
</g>
<!-- Node15&#45;&gt;Node42 -->
<g id="edge126" class="edge"><title>Node15&#45;&gt;Node42</title>
<path fill="none" stroke="midnightblue" d="M1313.06,-175.176C1316.08,-174.757 1319.08,-174.361 1322,-174 1513.65,-150.338 1564.11,-167.218 1755,-138 1756.08,-137.835 1757.17,-137.66 1758.26,-137.476"/>
<polygon fill="midnightblue" stroke="midnightblue" points="1759.05,-140.889 1768.25,-135.624 1757.78,-134.007 1759.05,-140.889"/>
</g>
<!-- Node22&#45;&gt;Node3 -->
<g id="edge54" class="edge"><title>Node22&#45;&gt;Node3</title>
<path fill="none" stroke="midnightblue" d="M644.79,-117.753C601.199,-110.083 549.459,-97.5771 536,-80 516.018,-53.9045 560.658,-32.3271 593.666,-20.587"/>
<polygon fill="midnightblue" stroke="midnightblue" points="595.107,-23.7939 603.452,-17.2652 592.857,-17.1654 595.107,-23.7939"/>
</g>
<!-- Node22&#45;&gt;Node8 -->
<g id="edge52" class="edge"><title>Node22&#45;&gt;Node8</title>
<path fill="none" stroke="midnightblue" d="M775.132,-116.524C846.637,-104.831 953.775,-86.6763 972,-80 990.324,-73.2873 991.667,-64.6888 1010,-58 1085.17,-30.5746 1178.3,-18.8288 1232.06,-14.0447"/>
<polygon fill="midnightblue" stroke="midnightblue" points="1232.6,-17.5114 1242.27,-13.1781 1232.01,-10.5364 1232.6,-17.5114"/>
</g>
<!-- Node23 -->
<g id="node51" class="node"><title>Node23</title>
<polygon fill="white" stroke="#bfbfbf" points="789,-0.5 789,-21.5 839,-21.5 839,-0.5 789,-0.5"/>
<text text-anchor="middle" x="814" y="-8.5" font-family="Helvetica,sans-Serif" font-size="10.00">stdint.h</text>
</g>
<!-- Node22&#45;&gt;Node23 -->
<g id="edge56" class="edge"><title>Node22&#45;&gt;Node23</title>
<path fill="none" stroke="midnightblue" d="M742.948,-116.375C761.097,-108.916 782.597,-97.1663 796,-80 806.685,-66.3144 811.065,-46.9144 812.842,-32.1689"/>
<polygon fill="midnightblue" stroke="midnightblue" points="816.349,-32.244 813.754,-21.9719 809.377,-31.6203 816.349,-32.244"/>
</g>
<!-- Node24 -->
<g id="node53" class="node"><title>Node24</title>
<polygon fill="white" stroke="#bfbfbf" points="1018.5,-58.5 1018.5,-79.5 1049.5,-79.5 1049.5,-58.5 1018.5,-58.5"/>
<text text-anchor="middle" x="1034" y="-66.5" font-family="Helvetica,sans-Serif" font-size="10.00">set</text>
</g>
<!-- Node22&#45;&gt;Node24 -->
<g id="edge58" class="edge"><title>Node22&#45;&gt;Node24</title>
<path fill="none" stroke="midnightblue" d="M775.19,-116.959C858.676,-104.05 993.975,-82.9361 1005,-80 1006.23,-79.6726 1007.48,-79.312 1008.73,-78.927"/>
<polygon fill="midnightblue" stroke="midnightblue" points="1009.93,-82.2184 1018.24,-75.6479 1007.64,-75.6012 1009.93,-82.2184"/>
</g>
<!-- Node25 -->
<g id="node55" class="node"><title>Node25</title>
<polygon fill="white" stroke="#bfbfbf" points="856.5,-0.5 856.5,-21.5 885.5,-21.5 885.5,-0.5 856.5,-0.5"/>
<text text-anchor="middle" x="871" y="-8.5" font-family="Helvetica,sans-Serif" font-size="10.00">list</text>
</g>
<!-- Node22&#45;&gt;Node25 -->
<g id="edge60" class="edge"><title>Node22&#45;&gt;Node25</title>
<path fill="none" stroke="midnightblue" d="M743.866,-116.433C765.587,-108.595 793.617,-96.4232 815,-80 833.036,-66.1476 848.868,-45.3706 859.055,-30.2364"/>
<polygon fill="midnightblue" stroke="midnightblue" points="862.119,-31.9457 864.637,-21.6547 856.251,-28.1288 862.119,-31.9457"/>
</g>
<!-- Node26 -->
<g id="node57" class="node"><title>Node26</title>
<a xlink:href="LaunchPoint_8h.htm" target="_top" xlink:title="LaunchPoint.h">
<polygon fill="white" stroke="black" points="880.5,-58.5 880.5,-79.5 963.5,-79.5 963.5,-58.5 880.5,-58.5"/>
<text text-anchor="middle" x="922" y="-66.5" font-family="Helvetica,sans-Serif" font-size="10.00">LaunchPoint.h</text>
</a>
</g>
<!-- Node22&#45;&gt;Node26 -->
<g id="edge62" class="edge"><title>Node22&#45;&gt;Node26</title>
<path fill="none" stroke="midnightblue" d="M748.392,-116.497C783.552,-106.877 835.745,-92.5981 873.719,-82.209"/>
<polygon fill="midnightblue" stroke="midnightblue" points="874.814,-85.5379 883.536,-79.5231 872.967,-78.7861 874.814,-85.5379"/>
</g>
<!-- Node29 -->
<g id="node66" class="node"><title>Node29</title>
<polygon fill="white" stroke="#bfbfbf" points="230.5,-58.5 230.5,-79.5 317.5,-79.5 317.5,-58.5 230.5,-58.5"/>
<text text-anchor="middle" x="274" y="-66.5" font-family="Helvetica,sans-Serif" font-size="10.00">KeywordMap.h</text>
</g>
<!-- Node22&#45;&gt;Node29 -->
<g id="edge74" class="edge"><title>Node22&#45;&gt;Node29</title>
<path fill="none" stroke="midnightblue" d="M644.867,-120.767C570.452,-113.255 444.833,-99.389 327.846,-80.2089"/>
<polygon fill="midnightblue" stroke="midnightblue" points="328.078,-76.6997 317.641,-78.5183 326.934,-83.6056 328.078,-76.6997"/>
</g>
<!-- Node30 -->
<g id="node68" class="node"><title>Node30</title>
<a xlink:href="CmdResourceHandlers_8h.htm" target="_top" xlink:title="CmdResourceHandlers.h">
<polygon fill="white" stroke="black" points="653,-58.5 653,-79.5 787,-79.5 787,-58.5 653,-58.5"/>
<text text-anchor="middle" x="720" y="-66.5" font-family="Helvetica,sans-Serif" font-size="10.00">CmdResourceHandlers.h</text>
</a>
</g>
<!-- Node22&#45;&gt;Node30 -->
<g id="edge76" class="edge"><title>Node22&#45;&gt;Node30</title>
<path fill="none" stroke="midnightblue" d="M711.834,-116.362C713.131,-108.84 714.911,-98.5187 716.477,-89.4308"/>
<polygon fill="midnightblue" stroke="midnightblue" points="719.927,-90.02 718.177,-79.5707 713.029,-88.8306 719.927,-90.02"/>
</g>
<!-- Node33 -->
<g id="node78" class="node"><title>Node33</title>
<polygon fill="white" stroke="#bfbfbf" points="335,-58.5 335,-79.5 489,-79.5 489,-58.5 335,-58.5"/>
<text text-anchor="middle" x="412" y="-66.5" font-family="Helvetica,sans-Serif" font-size="10.00">ApplicationDescriptionBase.h</text>
</g>
<!-- Node22&#45;&gt;Node33 -->
<g id="edge90" class="edge"><title>Node22&#45;&gt;Node33</title>
<path fill="none" stroke="midnightblue" d="M656.034,-116.497C605.454,-106.652 529.798,-91.9272 476.152,-81.486"/>
<polygon fill="midnightblue" stroke="midnightblue" points="476.551,-77.9981 466.067,-79.5231 475.214,-84.8691 476.551,-77.9981"/>
</g>
<!-- Node26&#45;&gt;Node3 -->
<g id="edge66" class="edge"><title>Node26&#45;&gt;Node3</title>
<path fill="none" stroke="midnightblue" d="M880.068,-63.7857C829.219,-56.9813 740.859,-43.6152 656.295,-21.7263"/>
<polygon fill="midnightblue" stroke="midnightblue" points="657.098,-18.3187 646.537,-19.1575 655.316,-25.0881 657.098,-18.3187"/>
</g>
<!-- Node26&#45;&gt;Node8 -->
<g id="edge64" class="edge"><title>Node26&#45;&gt;Node8</title>
<path fill="none" stroke="midnightblue" d="M963.708,-60.4696C968.19,-59.6093 972.686,-58.7701 977,-58 1067.52,-41.8402 1174,-25.8116 1232.32,-17.2857"/>
<polygon fill="midnightblue" stroke="midnightblue" points="1232.9,-20.7383 1242.29,-15.8328 1231.89,-13.8115 1232.9,-20.7383"/>
</g>
<!-- Node26&#45;&gt;Node25 -->
<g id="edge68" class="edge"><title>Node26&#45;&gt;Node25</title>
<path fill="none" stroke="midnightblue" d="M912.646,-58.3619C905.457,-50.1861 895.359,-38.7025 886.907,-29.0907"/>
<polygon fill="midnightblue" stroke="midnightblue" points="889.527,-26.7692 880.295,-21.5707 884.27,-31.3916 889.527,-26.7692"/>
</g>
<!-- Node27 -->
<g id="node62" class="node"><title>Node27</title>
<polygon fill="white" stroke="#bfbfbf" points="902.5,-0.5 902.5,-21.5 961.5,-21.5 961.5,-0.5 902.5,-0.5"/>
<text text-anchor="middle" x="932" y="-8.5" font-family="Helvetica,sans-Serif" font-size="10.00">QPixmap</text>
</g>
<!-- Node26&#45;&gt;Node27 -->
<g id="edge70" class="edge"><title>Node26&#45;&gt;Node27</title>
<path fill="none" stroke="midnightblue" d="M923.834,-58.3619C925.131,-50.8401 926.911,-40.5187 928.477,-31.4308"/>
<polygon fill="midnightblue" stroke="midnightblue" points="931.927,-32.02 930.177,-21.5707 925.029,-30.8306 931.927,-32.02"/>
</g>
<!-- Node28 -->
<g id="node64" class="node"><title>Node28</title>
<polygon fill="white" stroke="#bfbfbf" points="1470.5,-0.5 1470.5,-21.5 1511.5,-21.5 1511.5,-0.5 1470.5,-0.5"/>
<text text-anchor="middle" x="1491" y="-8.5" font-family="Helvetica,sans-Serif" font-size="10.00">glib.h</text>
</g>
<!-- Node26&#45;&gt;Node28 -->
<g id="edge72" class="edge"><title>Node26&#45;&gt;Node28</title>
<path fill="none" stroke="midnightblue" d="M963.604,-63.5659C978.258,-61.7138 994.851,-59.6866 1010,-58 1179.69,-39.1073 1383.53,-20.5528 1460.01,-13.7363"/>
<polygon fill="midnightblue" stroke="midnightblue" points="1460.7,-17.1888 1470.35,-12.8171 1460.08,-10.2163 1460.7,-17.1888"/>
</g>
<!-- Node30&#45;&gt;Node3 -->
<g id="edge84" class="edge"><title>Node30&#45;&gt;Node3</title>
<path fill="none" stroke="midnightblue" d="M702.576,-58.3619C688.113,-49.532 667.331,-36.844 650.916,-26.8224"/>
<polygon fill="midnightblue" stroke="midnightblue" points="652.673,-23.7943 642.314,-21.5707 649.025,-29.7688 652.673,-23.7943"/>
</g>
<!-- Node30&#45;&gt;Node4 -->
<g id="edge86" class="edge"><title>Node30&#45;&gt;Node4</title>
<path fill="none" stroke="midnightblue" d="M660.058,-58.4966C590.401,-46.2908 477.925,-26.582 422.318,-16.8382"/>
<polygon fill="midnightblue" stroke="midnightblue" points="422.756,-13.3617 412.302,-15.0831 421.548,-20.2567 422.756,-13.3617"/>
</g>
<!-- Node30&#45;&gt;Node8 -->
<g id="edge78" class="edge"><title>Node30&#45;&gt;Node8</title>
<path fill="none" stroke="midnightblue" d="M787.067,-62.0038C902.437,-49.9688 1135.39,-25.6684 1232.23,-15.566"/>
<polygon fill="midnightblue" stroke="midnightblue" points="1232.68,-19.0382 1242.26,-14.5195 1231.95,-12.076 1232.68,-19.0382"/>
</g>
<!-- Node30&#45;&gt;Node23 -->
<g id="edge82" class="edge"><title>Node30&#45;&gt;Node23</title>
<path fill="none" stroke="midnightblue" d="M737.241,-58.3619C751.552,-49.532 772.115,-36.844 788.357,-26.8224"/>
<polygon fill="midnightblue" stroke="midnightblue" points="790.196,-29.8004 796.868,-21.5707 786.52,-23.8431 790.196,-29.8004"/>
</g>
<!-- Node31 -->
<g id="node71" class="node"><title>Node31</title>
<polygon fill="white" stroke="#bfbfbf" points="665,-0.5 665,-21.5 717,-21.5 717,-0.5 665,-0.5"/>
<text text-anchor="middle" x="691" y="-8.5" font-family="Helvetica,sans-Serif" font-size="10.00">regex.h</text>
</g>
<!-- Node30&#45;&gt;Node31 -->
<g id="edge80" class="edge"><title>Node30&#45;&gt;Node31</title>
<path fill="none" stroke="midnightblue" d="M714.681,-58.3619C710.797,-50.5949 705.421,-39.8426 700.773,-30.5458"/>
<polygon fill="midnightblue" stroke="midnightblue" points="703.888,-28.9497 696.285,-21.5707 697.627,-32.0802 703.888,-28.9497"/>
</g>
<!-- Node32 -->
<g id="node76" class="node"><title>Node32</title>
<polygon fill="white" stroke="#bfbfbf" points="734.5,-0.5 734.5,-21.5 771.5,-21.5 771.5,-0.5 734.5,-0.5"/>
<text text-anchor="middle" x="753" y="-8.5" font-family="Helvetica,sans-Serif" font-size="10.00">map</text>
</g>
<!-- Node30&#45;&gt;Node32 -->
<g id="edge88" class="edge"><title>Node30&#45;&gt;Node32</title>
<path fill="none" stroke="midnightblue" d="M726.053,-58.3619C730.472,-50.5949 736.59,-39.8426 741.879,-30.5458"/>
<polygon fill="midnightblue" stroke="midnightblue" points="745.082,-31.9932 746.986,-21.5707 738.998,-28.5315 745.082,-31.9932"/>
</g>
<!-- Node35&#45;&gt;Node8 -->
<g id="edge96" class="edge"><title>Node35&#45;&gt;Node8</title>
<path fill="none" stroke="midnightblue" d="M1539.21,-116.485C1492.56,-105.952 1425.05,-89.9205 1400,-80 1390.05,-76.0621 1336.53,-45.711 1303.14,-26.5968"/>
<polygon fill="midnightblue" stroke="midnightblue" points="1304.72,-23.4706 1294.31,-21.5349 1301.24,-29.5439 1304.72,-23.4706"/>
</g>
<!-- Node35&#45;&gt;Node10 -->
<g id="edge100" class="edge"><title>Node35&#45;&gt;Node10</title>
<path fill="none" stroke="midnightblue" d="M1536.34,-117.552C1478.05,-106.681 1382.97,-88.9488 1325.27,-78.1883"/>
<polygon fill="midnightblue" stroke="midnightblue" points="1325.77,-74.7213 1315.3,-76.3285 1324.48,-81.6026 1325.77,-74.7213"/>
</g>
<!-- Node35&#45;&gt;Node28 -->
<g id="edge98" class="edge"><title>Node35&#45;&gt;Node28</title>
<path fill="none" stroke="midnightblue" d="M1559.44,-116.397C1542.83,-108.672 1522.54,-96.636 1510,-80 1499.51,-66.0825 1494.81,-46.7047 1492.71,-32.0267"/>
<polygon fill="midnightblue" stroke="midnightblue" points="1496.16,-31.4252 1491.55,-21.8867 1489.21,-32.2191 1496.16,-31.4252"/>
</g>
<!-- Node36&#45;&gt;Node8 -->
<g id="edge104" class="edge"><title>Node36&#45;&gt;Node8</title>
<path fill="none" stroke="midnightblue" d="M1628.45,-59.3774C1625.59,-58.9 1622.76,-58.4377 1620,-58 1512.35,-40.9471 1385.14,-24.535 1319.72,-16.3668"/>
<polygon fill="midnightblue" stroke="midnightblue" points="1320.12,-12.8894 1309.76,-15.1277 1319.25,-19.8359 1320.12,-12.8894"/>
</g>
<!-- Node37 -->
<g id="node90" class="node"><title>Node37</title>
<polygon fill="white" stroke="#bfbfbf" points="1627.5,-0.5 1627.5,-21.5 1732.5,-21.5 1732.5,-0.5 1627.5,-0.5"/>
<text text-anchor="middle" x="1680" y="-8.5" font-family="Helvetica,sans-Serif" font-size="10.00">QVariantAnimation</text>
</g>
<!-- Node36&#45;&gt;Node37 -->
<g id="edge106" class="edge"><title>Node36&#45;&gt;Node37</title>
<path fill="none" stroke="midnightblue" d="M1680.82,-58.3619C1680.69,-50.9219 1680.51,-40.7427 1680.36,-31.7276"/>
<polygon fill="midnightblue" stroke="midnightblue" points="1683.85,-31.5088 1680.18,-21.5707 1676.86,-31.6295 1683.85,-31.5088"/>
</g>
<!-- Node38&#45;&gt;Node3 -->
<g id="edge116" class="edge"><title>Node38&#45;&gt;Node3</title>
<path fill="none" stroke="midnightblue" d="M1826.71,-59.6392C1823.78,-58.9935 1820.85,-58.4296 1818,-58 1310.45,18.5364 1165.69,-115.748 656.959,-21.578"/>
<polygon fill="midnightblue" stroke="midnightblue" points="657.256,-18.073 646.783,-19.6731 655.968,-24.9535 657.256,-18.073"/>
</g>
<!-- Node38&#45;&gt;Node8 -->
<g id="edge110" class="edge"><title>Node38&#45;&gt;Node8</title>
<path fill="none" stroke="midnightblue" d="M1826.68,-59.8077C1823.76,-59.1266 1820.84,-58.5085 1818,-58 1722.53,-40.8812 1431.41,-20.9802 1320,-13.7787"/>
<polygon fill="midnightblue" stroke="midnightblue" points="1320,-10.2713 1309.8,-13.1219 1319.55,-17.2569 1320,-10.2713"/>
</g>
<!-- Node38&#45;&gt;Node23 -->
<g id="edge114" class="edge"><title>Node38&#45;&gt;Node23</title>
<path fill="none" stroke="midnightblue" d="M1826.71,-59.6578C1823.78,-59.0082 1820.85,-58.4383 1818,-58 1394.95,7.12086 1274.69,-95.4849 849.164,-21.7332"/>
<polygon fill="midnightblue" stroke="midnightblue" points="849.509,-18.2404 839.055,-19.958 848.299,-25.1349 849.509,-18.2404"/>
</g>
<!-- Node38&#45;&gt;Node28 -->
<g id="edge118" class="edge"><title>Node38&#45;&gt;Node28</title>
<path fill="none" stroke="midnightblue" d="M1826.65,-59.9776C1823.74,-59.2609 1820.82,-58.588 1818,-58 1710.17,-35.5173 1580.1,-20.3165 1521.84,-14.1247"/>
<polygon fill="midnightblue" stroke="midnightblue" points="1522.13,-10.636 1511.82,-13.0737 1521.4,-17.5978 1522.13,-10.636"/>
</g>
<!-- Node39 -->
<g id="node95" class="node"><title>Node39</title>
<polygon fill="white" stroke="#bfbfbf" points="1812,-0.5 1812,-21.5 1904,-21.5 1904,-0.5 1812,-0.5"/>
<text text-anchor="middle" x="1858" y="-8.5" font-family="Helvetica,sans-Serif" font-size="10.00">WindowTypes.h</text>
</g>
<!-- Node38&#45;&gt;Node39 -->
<g id="edge112" class="edge"><title>Node38&#45;&gt;Node39</title>
<path fill="none" stroke="midnightblue" d="M1858,-58.3619C1858,-50.9219 1858,-40.7427 1858,-31.7276"/>
<polygon fill="midnightblue" stroke="midnightblue" points="1861.5,-31.5706 1858,-21.5707 1854.5,-31.5707 1861.5,-31.5706"/>
</g>
<!-- Node40 -->
<g id="node100" class="node"><title>Node40</title>
<polygon fill="white" stroke="#bfbfbf" points="1922,-0.5 1922,-21.5 2020,-21.5 2020,-0.5 1922,-0.5"/>
<text text-anchor="middle" x="1971" y="-8.5" font-family="Helvetica,sans-Serif" font-size="10.00">QGraphicsObject</text>
</g>
<!-- Node38&#45;&gt;Node40 -->
<g id="edge120" class="edge"><title>Node38&#45;&gt;Node40</title>
<path fill="none" stroke="midnightblue" d="M1878.46,-58.4966C1896.03,-49.4786 1921.58,-36.3649 1941.39,-26.2006"/>
<polygon fill="midnightblue" stroke="midnightblue" points="1943.01,-29.3014 1950.31,-21.6212 1939.81,-23.0738 1943.01,-29.3014"/>
</g>
<!-- Node41 -->
<g id="node102" class="node"><title>Node41</title>
<polygon fill="white" stroke="#bfbfbf" points="1749.5,-0.5 1749.5,-21.5 1794.5,-21.5 1794.5,-0.5 1749.5,-0.5"/>
<text text-anchor="middle" x="1772" y="-8.5" font-family="Helvetica,sans-Serif" font-size="10.00">QSize</text>
</g>
<!-- Node38&#45;&gt;Node41 -->
<g id="edge122" class="edge"><title>Node38&#45;&gt;Node41</title>
<path fill="none" stroke="midnightblue" d="M1842.23,-58.3619C1829.38,-49.6955 1811.02,-37.3126 1796.29,-27.3819"/>
<polygon fill="midnightblue" stroke="midnightblue" points="1797.92,-24.2604 1787.67,-21.5707 1794.01,-30.0639 1797.92,-24.2604"/>
</g>
<!-- Node42&#45;&gt;Node12 -->
<g id="edge136" class="edge"><title>Node42&#45;&gt;Node12</title>
<path fill="none" stroke="midnightblue" d="M1768.48,-118.379C1728.74,-108.736 1663.96,-93.0145 1618.18,-81.9049"/>
<polygon fill="midnightblue" stroke="midnightblue" points="1618.97,-78.4952 1608.42,-79.538 1617.32,-85.2977 1618.97,-78.4952"/>
</g>
<!-- Node42&#45;&gt;Node36 -->
<g id="edge134" class="edge"><title>Node42&#45;&gt;Node36</title>
<path fill="none" stroke="midnightblue" d="M1781.73,-116.497C1762.43,-107.397 1734.29,-94.1273 1712.65,-83.9253"/>
<polygon fill="midnightblue" stroke="midnightblue" points="1714.06,-80.7206 1703.52,-79.6212 1711.08,-87.052 1714.06,-80.7206"/>
</g>
<!-- Node42&#45;&gt;Node38 -->
<g id="edge128" class="edge"><title>Node42&#45;&gt;Node38</title>
<path fill="none" stroke="midnightblue" d="M1813.9,-116.362C1821.52,-108.186 1832.21,-96.7025 1841.16,-87.0907"/>
<polygon fill="midnightblue" stroke="midnightblue" points="1843.91,-89.2746 1848.16,-79.5707 1838.78,-84.5046 1843.91,-89.2746"/>
</g>
<!-- Node42&#45;&gt;Node40 -->
<g id="edge132" class="edge"><title>Node42&#45;&gt;Node40</title>
<path fill="none" stroke="midnightblue" d="M1830.28,-116.354C1849.8,-107.869 1876.62,-94.9563 1898,-80 1919.22,-65.1551 1940.39,-44.3147 1954.42,-29.4298"/>
<polygon fill="midnightblue" stroke="midnightblue" points="1957.21,-31.5649 1961.44,-21.8489 1952.08,-26.8095 1957.21,-31.5649"/>
</g>
<!-- Node43 -->
<g id="node108" class="node"><title>Node43</title>
<polygon fill="white" stroke="#bfbfbf" points="1750.5,-58.5 1750.5,-79.5 1809.5,-79.5 1809.5,-58.5 1750.5,-58.5"/>
<text text-anchor="middle" x="1780" y="-66.5" font-family="Helvetica,sans-Serif" font-size="10.00">QPointer</text>
</g>
<!-- Node42&#45;&gt;Node43 -->
<g id="edge130" class="edge"><title>Node42&#45;&gt;Node43</title>
<path fill="none" stroke="midnightblue" d="M1799.6,-116.362C1796.42,-108.677 1792.03,-98.0686 1788.21,-88.8399"/>
<polygon fill="midnightblue" stroke="midnightblue" points="1791.43,-87.4726 1784.37,-79.5707 1784.96,-90.1491 1791.43,-87.4726"/>
</g>
</g>
</svg>
