<?xml version="1.0" encoding="UTF-8" standalone="no"?>
<!DOCTYPE svg PUBLIC "-//W3C//DTD SVG 1.1//EN"
 "http://www.w3.org/Graphics/SVG/1.1/DTD/svg11.dtd">
<!-- Generated by graphviz version 2.26.3 (20100126.1600)
 -->
<!-- Title: WebAppMgrProxy.h Pages: 1 -->
<svg width="1282pt" height="204pt"
 viewBox="0.00 0.00 1282.00 204.00" xmlns="http://www.w3.org/2000/svg" xmlns:xlink="http://www.w3.org/1999/xlink">
<g id="graph1" class="graph" transform="scale(1 1) rotate(0) translate(4 200)">
<title>WebAppMgrProxy.h</title>
<polygon fill="white" stroke="white" points="-4,5 -4,-200 1279,-200 1279,5 -4,5"/>
<!-- Node1 -->
<g id="node1" class="node"><title>Node1</title>
<polygon fill="#bfbfbf" stroke="black" points="615,-174.5 615,-195.5 725,-195.5 725,-174.5 615,-174.5"/>
<text text-anchor="middle" x="670" y="-182.5" font-family="Helvetica,sans-Serif" font-size="10.00">WebAppMgrProxy.h</text>
</g>
<!-- Node2 -->
<g id="node3" class="node"><title>Node2</title>
<polygon fill="white" stroke="#bfbfbf" points="482.5,-0.5 482.5,-21.5 549.5,-21.5 549.5,-0.5 482.5,-0.5"/>
<text text-anchor="middle" x="516" y="-8.5" font-family="Helvetica,sans-Serif" font-size="10.00">Common.h</text>
</g>
<!-- Node1&#45;&gt;Node2 -->
<g id="edge2" class="edge"><title>Node1&#45;&gt;Node2</title>
<path fill="none" stroke="midnightblue" d="M634.015,-174.388C613.937,-166.934 589.687,-155.184 573,-138 543.404,-107.523 527.578,-59.0219 520.565,-31.618"/>
<polygon fill="midnightblue" stroke="midnightblue" points="523.896,-30.4997 518.155,-21.5949 517.09,-32.136 523.896,-30.4997"/>
</g>
<!-- Node3 -->
<g id="node5" class="node"><title>Node3</title>
<polygon fill="white" stroke="#bfbfbf" points="34,-58.5 34,-79.5 158,-79.5 158,-58.5 34,-58.5"/>
<text text-anchor="middle" x="96" y="-66.5" font-family="Helvetica,sans-Serif" font-size="10.00">PIpcChannelListener.h</text>
</g>
<!-- Node1&#45;&gt;Node3 -->
<g id="edge4" class="edge"><title>Node1&#45;&gt;Node3</title>
<path fill="none" stroke="midnightblue" d="M614.707,-181.593C541.331,-176.266 408.106,-163.782 297,-138 237.197,-124.123 170.216,-99.1339 130.655,-83.3413"/>
<polygon fill="midnightblue" stroke="midnightblue" points="131.792,-80.0262 121.209,-79.5367 129.177,-86.5194 131.792,-80.0262"/>
</g>
<!-- Node4 -->
<g id="node7" class="node"><title>Node4</title>
<polygon fill="white" stroke="#bfbfbf" points="581.5,-116.5 581.5,-137.5 626.5,-137.5 626.5,-116.5 581.5,-116.5"/>
<text text-anchor="middle" x="604" y="-124.5" font-family="Helvetica,sans-Serif" font-size="10.00">queue</text>
</g>
<!-- Node1&#45;&gt;Node4 -->
<g id="edge6" class="edge"><title>Node1&#45;&gt;Node4</title>
<path fill="none" stroke="midnightblue" d="M657.895,-174.362C648.312,-165.941 634.736,-154.011 623.607,-144.231"/>
<polygon fill="midnightblue" stroke="midnightblue" points="625.851,-141.543 616.029,-137.571 621.23,-146.801 625.851,-141.543"/>
</g>
<!-- Node5 -->
<g id="node9" class="node"><title>Node5</title>
<a xlink:href="IpcClientHost_8h.htm" target="_top" xlink:title="IpcClientHost.h">
<polygon fill="white" stroke="black" points="306,-116.5 306,-137.5 394,-137.5 394,-116.5 306,-116.5"/>
<text text-anchor="middle" x="350" y="-124.5" font-family="Helvetica,sans-Serif" font-size="10.00">IpcClientHost.h</text>
</a>
</g>
<!-- Node1&#45;&gt;Node5 -->
<g id="edge8" class="edge"><title>Node1&#45;&gt;Node5</title>
<path fill="none" stroke="midnightblue" d="M614.99,-175.029C555.989,-164.335 462.885,-147.46 404.198,-136.823"/>
<polygon fill="midnightblue" stroke="midnightblue" points="404.479,-133.317 394.015,-134.978 403.23,-140.205 404.479,-133.317"/>
</g>
<!-- Node16 -->
<g id="node36" class="node"><title>Node16</title>
<polygon fill="white" stroke="#bfbfbf" points="644,-116.5 644,-137.5 696,-137.5 696,-116.5 644,-116.5"/>
<text text-anchor="middle" x="670" y="-124.5" font-family="Helvetica,sans-Serif" font-size="10.00">Event.h</text>
</g>
<!-- Node1&#45;&gt;Node16 -->
<g id="edge40" class="edge"><title>Node1&#45;&gt;Node16</title>
<path fill="none" stroke="midnightblue" d="M670,-174.362C670,-166.922 670,-156.743 670,-147.728"/>
<polygon fill="midnightblue" stroke="midnightblue" points="673.5,-147.571 670,-137.571 666.5,-147.571 673.5,-147.571"/>
</g>
<!-- Node17 -->
<g id="node38" class="node"><title>Node17</title>
<polygon fill="white" stroke="#bfbfbf" points="714,-116.5 714,-137.5 806,-137.5 806,-116.5 714,-116.5"/>
<text text-anchor="middle" x="760" y="-124.5" font-family="Helvetica,sans-Serif" font-size="10.00">CustomEvents.h</text>
</g>
<!-- Node1&#45;&gt;Node17 -->
<g id="edge42" class="edge"><title>Node1&#45;&gt;Node17</title>
<path fill="none" stroke="midnightblue" d="M686.507,-174.362C700.082,-165.614 719.533,-153.079 735.015,-143.101"/>
<polygon fill="midnightblue" stroke="midnightblue" points="737.088,-145.93 743.597,-137.571 733.296,-140.046 737.088,-145.93"/>
</g>
<!-- Node18 -->
<g id="node40" class="node"><title>Node18</title>
<polygon fill="white" stroke="#bfbfbf" points="824,-116.5 824,-137.5 976,-137.5 976,-116.5 824,-116.5"/>
<text text-anchor="middle" x="900" y="-124.5" font-family="Helvetica,sans-Serif" font-size="10.00">NewContentIndicatorEvent.h</text>
</g>
<!-- Node1&#45;&gt;Node18 -->
<g id="edge44" class="edge"><title>Node1&#45;&gt;Node18</title>
<path fill="none" stroke="midnightblue" d="M711.651,-174.497C750.04,-164.816 807.145,-150.416 848.407,-140.01"/>
<polygon fill="midnightblue" stroke="midnightblue" points="849.43,-143.362 858.271,-137.523 847.718,-136.575 849.43,-143.362"/>
</g>
<!-- Node19 -->
<g id="node42" class="node"><title>Node19</title>
<polygon fill="white" stroke="#bfbfbf" points="994,-116.5 994,-137.5 1124,-137.5 1124,-116.5 994,-116.5"/>
<text text-anchor="middle" x="1059" y="-124.5" font-family="Helvetica,sans-Serif" font-size="10.00">BannerMessageEvent.h</text>
</g>
<!-- Node1&#45;&gt;Node19 -->
<g id="edge46" class="edge"><title>Node1&#45;&gt;Node19</title>
<path fill="none" stroke="midnightblue" d="M725.321,-176.752C793.072,-166.65 908.138,-149.494 983.858,-138.204"/>
<polygon fill="midnightblue" stroke="midnightblue" points="984.436,-141.656 993.811,-136.72 983.404,-134.733 984.436,-141.656"/>
</g>
<!-- Node20 -->
<g id="node44" class="node"><title>Node20</title>
<polygon fill="white" stroke="#bfbfbf" points="1141.5,-116.5 1141.5,-137.5 1274.5,-137.5 1274.5,-116.5 1141.5,-116.5"/>
<text text-anchor="middle" x="1208" y="-124.5" font-family="Helvetica,sans-Serif" font-size="10.00">ActiveCallBannerEvent.h</text>
</g>
<!-- Node1&#45;&gt;Node20 -->
<g id="edge48" class="edge"><title>Node1&#45;&gt;Node20</title>
<path fill="none" stroke="midnightblue" d="M725.324,-180.185C810.382,-172.607 978.64,-156.916 1131.33,-138.169"/>
<polygon fill="midnightblue" stroke="midnightblue" points="1131.87,-141.63 1141.36,-136.93 1131.01,-134.682 1131.87,-141.63"/>
</g>
<!-- Node5&#45;&gt;Node2 -->
<g id="edge10" class="edge"><title>Node5&#45;&gt;Node2</title>
<path fill="none" stroke="midnightblue" d="M394.241,-117.735C432.091,-108.959 482.666,-94.9309 497,-80 509.395,-67.0898 513.856,-46.8636 515.388,-31.6413"/>
<polygon fill="midnightblue" stroke="midnightblue" points="518.884,-31.8286 516.058,-21.6176 511.899,-31.3621 518.884,-31.8286"/>
</g>
<!-- Node5&#45;&gt;Node3 -->
<g id="edge20" class="edge"><title>Node5&#45;&gt;Node3</title>
<path fill="none" stroke="midnightblue" d="M305.757,-116.897C263.118,-107.161 198.436,-92.3909 152.179,-81.8283"/>
<polygon fill="midnightblue" stroke="midnightblue" points="152.839,-78.3889 142.311,-79.5749 151.28,-85.2133 152.839,-78.3889"/>
</g>
<!-- Node6 -->
<g id="node12" class="node"><title>Node6</title>
<polygon fill="white" stroke="#bfbfbf" points="413.5,-0.5 413.5,-21.5 456.5,-21.5 456.5,-0.5 413.5,-0.5"/>
<text text-anchor="middle" x="435" y="-8.5" font-family="Helvetica,sans-Serif" font-size="10.00">string</text>
</g>
<!-- Node5&#45;&gt;Node6 -->
<g id="edge12" class="edge"><title>Node5&#45;&gt;Node6</title>
<path fill="none" stroke="midnightblue" d="M339.65,-116.034C327.535,-101.817 310.608,-76.6393 323,-58 325.414,-54.3696 371.456,-35.8128 403.747,-23.1315"/>
<polygon fill="midnightblue" stroke="midnightblue" points="405.226,-26.3111 413.263,-19.4075 402.675,-19.7924 405.226,-26.3111"/>
</g>
<!-- Node7 -->
<g id="node14" class="node"><title>Node7</title>
<polygon fill="white" stroke="#bfbfbf" points="331.5,-58.5 331.5,-79.5 368.5,-79.5 368.5,-58.5 331.5,-58.5"/>
<text text-anchor="middle" x="350" y="-66.5" font-family="Helvetica,sans-Serif" font-size="10.00">map</text>
</g>
<!-- Node5&#45;&gt;Node7 -->
<g id="edge14" class="edge"><title>Node5&#45;&gt;Node7</title>
<path fill="none" stroke="midnightblue" d="M350,-116.362C350,-108.922 350,-98.7427 350,-89.7276"/>
<polygon fill="midnightblue" stroke="midnightblue" points="353.5,-89.5706 350,-79.5707 346.5,-89.5707 353.5,-89.5706"/>
</g>
<!-- Node8 -->
<g id="node16" class="node"><title>Node8</title>
<polygon fill="white" stroke="#bfbfbf" points="385.5,-58.5 385.5,-79.5 416.5,-79.5 416.5,-58.5 385.5,-58.5"/>
<text text-anchor="middle" x="401" y="-66.5" font-family="Helvetica,sans-Serif" font-size="10.00">set</text>
</g>
<!-- Node5&#45;&gt;Node8 -->
<g id="edge16" class="edge"><title>Node5&#45;&gt;Node8</title>
<path fill="none" stroke="midnightblue" d="M359.354,-116.362C366.543,-108.186 376.641,-96.7025 385.093,-87.0907"/>
<polygon fill="midnightblue" stroke="midnightblue" points="387.73,-89.3916 391.705,-79.5707 382.473,-84.7692 387.73,-89.3916"/>
</g>
<!-- Node9 -->
<g id="node18" class="node"><title>Node9</title>
<polygon fill="white" stroke="#bfbfbf" points="-0.5,-0.5 -0.5,-21.5 40.5,-21.5 40.5,-0.5 -0.5,-0.5"/>
<text text-anchor="middle" x="20" y="-8.5" font-family="Helvetica,sans-Serif" font-size="10.00">glib.h</text>
</g>
<!-- Node5&#45;&gt;Node9 -->
<g id="edge18" class="edge"><title>Node5&#45;&gt;Node9</title>
<path fill="none" stroke="midnightblue" d="M309.767,-116.438C280.184,-108.081 239.325,-95.2926 205,-80 187.174,-72.0581 184.894,-65.7871 167,-58 119.473,-37.3175 102.72,-39.414 50.0487,-22.1757"/>
<polygon fill="midnightblue" stroke="midnightblue" points="51.1279,-18.8461 40.5339,-18.9816 48.9002,-25.4821 51.1279,-18.8461"/>
</g>
<!-- Node10 -->
<g id="node21" class="node"><title>Node10</title>
<a xlink:href="Window_8h.htm" target="_top" xlink:title="Window.h">
<polygon fill="white" stroke="black" points="214,-58.5 214,-79.5 276,-79.5 276,-58.5 214,-58.5"/>
<text text-anchor="middle" x="245" y="-66.5" font-family="Helvetica,sans-Serif" font-size="10.00">Window.h</text>
</a>
</g>
<!-- Node5&#45;&gt;Node10 -->
<g id="edge22" class="edge"><title>Node5&#45;&gt;Node10</title>
<path fill="none" stroke="midnightblue" d="M330.741,-116.362C314.534,-107.409 291.147,-94.4908 272.891,-84.4064"/>
<polygon fill="midnightblue" stroke="midnightblue" points="274.582,-81.3422 264.137,-79.5707 271.198,-87.4696 274.582,-81.3422"/>
</g>
<!-- Node15 -->
<g id="node34" class="node"><title>Node15</title>
<polygon fill="white" stroke="#bfbfbf" points="433.5,-58.5 433.5,-79.5 488.5,-79.5 488.5,-58.5 433.5,-58.5"/>
<text text-anchor="middle" x="461" y="-66.5" font-family="Helvetica,sans-Serif" font-size="10.00">QObject</text>
</g>
<!-- Node5&#45;&gt;Node15 -->
<g id="edge38" class="edge"><title>Node5&#45;&gt;Node15</title>
<path fill="none" stroke="midnightblue" d="M370.101,-116.497C387.282,-107.519 412.23,-94.4835 431.645,-84.3387"/>
<polygon fill="midnightblue" stroke="midnightblue" points="433.431,-87.3544 440.673,-79.6212 430.189,-81.1503 433.431,-87.3544"/>
</g>
<!-- Node10&#45;&gt;Node2 -->
<g id="edge24" class="edge"><title>Node10&#45;&gt;Node2</title>
<path fill="none" stroke="midnightblue" d="M276.336,-62.3258C319.011,-53.2317 397.792,-36.427 465,-22 467.441,-21.476 469.947,-20.9374 472.477,-20.3933"/>
<polygon fill="midnightblue" stroke="midnightblue" points="473.22,-23.8136 482.259,-18.2872 471.747,-16.9704 473.22,-23.8136"/>
</g>
<!-- Node10&#45;&gt;Node6 -->
<g id="edge30" class="edge"><title>Node10&#45;&gt;Node6</title>
<path fill="none" stroke="midnightblue" d="M276.159,-60.5017C306.58,-52.0613 354.365,-38.4243 403.845,-22.2581"/>
<polygon fill="midnightblue" stroke="midnightblue" points="405.026,-25.5542 413.429,-19.1016 402.836,-18.9055 405.026,-25.5542"/>
</g>
<!-- Node10&#45;&gt;Node9 -->
<g id="edge32" class="edge"><title>Node10&#45;&gt;Node9</title>
<path fill="none" stroke="midnightblue" d="M213.534,-61.2842C208.994,-60.1779 204.378,-59.057 200,-58 135.947,-42.5361 116.661,-42.2676 50.4599,-22.219"/>
<polygon fill="midnightblue" stroke="midnightblue" points="51.3846,-18.8417 40.7978,-19.2551 49.3317,-25.534 51.3846,-18.8417"/>
</g>
<!-- Node11 -->
<g id="node24" class="node"><title>Node11</title>
<polygon fill="white" stroke="#bfbfbf" points="120,-0.5 120,-21.5 212,-21.5 212,-0.5 120,-0.5"/>
<text text-anchor="middle" x="166" y="-8.5" font-family="Helvetica,sans-Serif" font-size="10.00">WindowTypes.h</text>
</g>
<!-- Node10&#45;&gt;Node11 -->
<g id="edge26" class="edge"><title>Node10&#45;&gt;Node11</title>
<path fill="none" stroke="midnightblue" d="M230.51,-58.3619C218.817,-49.7773 202.157,-37.5459 188.697,-27.6636"/>
<polygon fill="midnightblue" stroke="midnightblue" points="190.53,-24.6675 180.398,-21.5707 186.387,-30.31 190.53,-24.6675"/>
</g>
<!-- Node12 -->
<g id="node26" class="node"><title>Node12</title>
<polygon fill="white" stroke="#bfbfbf" points="230,-0.5 230,-21.5 280,-21.5 280,-0.5 230,-0.5"/>
<text text-anchor="middle" x="255" y="-8.5" font-family="Helvetica,sans-Serif" font-size="10.00">stdint.h</text>
</g>
<!-- Node10&#45;&gt;Node12 -->
<g id="edge28" class="edge"><title>Node10&#45;&gt;Node12</title>
<path fill="none" stroke="midnightblue" d="M246.834,-58.3619C248.131,-50.8401 249.911,-40.5187 251.477,-31.4308"/>
<polygon fill="midnightblue" stroke="midnightblue" points="254.927,-32.02 253.177,-21.5707 248.029,-30.8306 254.927,-32.02"/>
</g>
<!-- Node13 -->
<g id="node30" class="node"><title>Node13</title>
<polygon fill="white" stroke="#bfbfbf" points="298,-0.5 298,-21.5 396,-21.5 396,-0.5 298,-0.5"/>
<text text-anchor="middle" x="347" y="-8.5" font-family="Helvetica,sans-Serif" font-size="10.00">QGraphicsObject</text>
</g>
<!-- Node10&#45;&gt;Node13 -->
<g id="edge34" class="edge"><title>Node10&#45;&gt;Node13</title>
<path fill="none" stroke="midnightblue" d="M263.708,-58.3619C279.381,-49.4502 301.964,-36.6087 319.663,-26.5447"/>
<polygon fill="midnightblue" stroke="midnightblue" points="321.447,-29.5562 328.41,-21.5707 317.987,-23.4712 321.447,-29.5562"/>
</g>
<!-- Node14 -->
<g id="node32" class="node"><title>Node14</title>
<polygon fill="white" stroke="#bfbfbf" points="57.5,-0.5 57.5,-21.5 102.5,-21.5 102.5,-0.5 57.5,-0.5"/>
<text text-anchor="middle" x="80" y="-8.5" font-family="Helvetica,sans-Serif" font-size="10.00">QSize</text>
</g>
<!-- Node10&#45;&gt;Node14 -->
<g id="edge36" class="edge"><title>Node10&#45;&gt;Node14</title>
<path fill="none" stroke="midnightblue" d="M214.92,-58.4846C189.718,-49.6668 152.55,-36.6444 112.173,-22.4074"/>
<polygon fill="midnightblue" stroke="midnightblue" points="113.278,-19.0859 102.684,-19.0597 110.95,-25.6872 113.278,-19.0859"/>
</g>
</g>
</svg>
