<?xml version="1.0" encoding="UTF-8" standalone="no"?>
<!DOCTYPE svg PUBLIC "-//W3C//DTD SVG 1.1//EN"
 "http://www.w3.org/Graphics/SVG/1.1/DTD/svg11.dtd">
<!-- Generated by graphviz version 2.26.3 (20100126.1600)
 -->
<!-- Title: webosapp.cpp Pages: 1 -->
<svg width="1438pt" height="262pt"
 viewBox="0.00 0.00 1438.00 262.00" xmlns="http://www.w3.org/2000/svg" xmlns:xlink="http://www.w3.org/1999/xlink">
<g id="graph1" class="graph" transform="scale(1 1) rotate(0) translate(4 258)">
<title>webosapp.cpp</title>
<polygon fill="white" stroke="white" points="-4,5 -4,-258 1435,-258 1435,5 -4,5"/>
<!-- Node1 -->
<g id="node1" class="node"><title>Node1</title>
<polygon fill="#bfbfbf" stroke="black" points="324,-232.5 324,-253.5 408,-253.5 408,-232.5 324,-232.5"/>
<text text-anchor="middle" x="366" y="-240.5" font-family="Helvetica,sans-Serif" font-size="10.00">webosapp.cpp</text>
</g>
<!-- Node2 -->
<g id="node3" class="node"><title>Node2</title>
<a xlink:href="webosapp_8h.htm" target="_top" xlink:title="webosapp.h">
<polygon fill="white" stroke="black" points="329.5,-116.5 329.5,-137.5 402.5,-137.5 402.5,-116.5 329.5,-116.5"/>
<text text-anchor="middle" x="366" y="-124.5" font-family="Helvetica,sans-Serif" font-size="10.00">webosapp.h</text>
</a>
</g>
<!-- Node1&#45;&gt;Node2 -->
<g id="edge2" class="edge"><title>Node1&#45;&gt;Node2</title>
<path fill="none" stroke="midnightblue" d="M366,-232.295C366,-213.131 366,-172.654 366,-147.843"/>
<polygon fill="midnightblue" stroke="midnightblue" points="369.5,-147.679 366,-137.679 362.5,-147.679 369.5,-147.679"/>
</g>
<!-- Node9 -->
<g id="node17" class="node"><title>Node9</title>
<a xlink:href="icon_8h.htm" target="_top" xlink:title="icon.h">
<polygon fill="white" stroke="black" points="824,-174.5 824,-195.5 868,-195.5 868,-174.5 824,-174.5"/>
<text text-anchor="middle" x="846" y="-182.5" font-family="Helvetica,sans-Serif" font-size="10.00">icon.h</text>
</a>
</g>
<!-- Node1&#45;&gt;Node9 -->
<g id="edge16" class="edge"><title>Node1&#45;&gt;Node9</title>
<path fill="none" stroke="midnightblue" d="M408.176,-237.904C502.731,-226.478 729.946,-199.023 814.017,-188.865"/>
<polygon fill="midnightblue" stroke="midnightblue" points="814.489,-192.333 823.997,-187.659 813.649,-185.384 814.489,-192.333"/>
</g>
<!-- Node29 -->
<g id="node71" class="node"><title>Node29</title>
<a xlink:href="appmonitor_8h.htm" target="_top" xlink:title="appmonitor.h">
<polygon fill="white" stroke="black" points="242,-174.5 242,-195.5 320,-195.5 320,-174.5 242,-174.5"/>
<text text-anchor="middle" x="281" y="-182.5" font-family="Helvetica,sans-Serif" font-size="10.00">appmonitor.h</text>
</a>
</g>
<!-- Node1&#45;&gt;Node29 -->
<g id="edge84" class="edge"><title>Node1&#45;&gt;Node29</title>
<path fill="none" stroke="midnightblue" d="M350.41,-232.362C337.709,-223.696 319.562,-211.313 305.008,-201.382"/>
<polygon fill="midnightblue" stroke="midnightblue" points="306.724,-198.316 296.491,-195.571 302.779,-204.098 306.724,-198.316"/>
</g>
<!-- Node3 -->
<g id="node5" class="node"><title>Node3</title>
<a xlink:href="externalapp_8h.htm" target="_top" xlink:title="externalapp.h">
<polygon fill="white" stroke="black" points="153.5,-58.5 153.5,-79.5 234.5,-79.5 234.5,-58.5 153.5,-58.5"/>
<text text-anchor="middle" x="194" y="-66.5" font-family="Helvetica,sans-Serif" font-size="10.00">externalapp.h</text>
</a>
</g>
<!-- Node2&#45;&gt;Node3 -->
<g id="edge4" class="edge"><title>Node2&#45;&gt;Node3</title>
<path fill="none" stroke="midnightblue" d="M334.852,-116.497C306.811,-107.041 265.418,-93.0829 234.755,-82.7428"/>
<polygon fill="midnightblue" stroke="midnightblue" points="235.8,-79.4019 225.206,-79.5231 233.564,-86.035 235.8,-79.4019"/>
</g>
<!-- Node6 -->
<g id="node11" class="node"><title>Node6</title>
<polygon fill="white" stroke="#bfbfbf" points="555.5,-0.5 555.5,-21.5 608.5,-21.5 608.5,-0.5 555.5,-0.5"/>
<text text-anchor="middle" x="582" y="-8.5" font-family="Helvetica,sans-Serif" font-size="10.00">QString</text>
</g>
<!-- Node2&#45;&gt;Node6 -->
<g id="edge10" class="edge"><title>Node2&#45;&gt;Node6</title>
<path fill="none" stroke="midnightblue" d="M399.9,-116.456C424.75,-108.108 458.906,-95.3234 487,-80 514.468,-65.0179 543.15,-43.1966 561.715,-28.1233"/>
<polygon fill="midnightblue" stroke="midnightblue" points="563.996,-30.779 569.492,-21.7214 559.547,-25.3745 563.996,-30.779"/>
</g>
<!-- Node7 -->
<g id="node13" class="node"><title>Node7</title>
<polygon fill="white" stroke="#bfbfbf" points="290,-58.5 290,-79.5 336,-79.5 336,-58.5 290,-58.5"/>
<text text-anchor="middle" x="313" y="-66.5" font-family="Helvetica,sans-Serif" font-size="10.00">QMap</text>
</g>
<!-- Node2&#45;&gt;Node7 -->
<g id="edge12" class="edge"><title>Node2&#45;&gt;Node7</title>
<path fill="none" stroke="midnightblue" d="M356.279,-116.362C348.808,-108.186 338.314,-96.7025 329.531,-87.0907"/>
<polygon fill="midnightblue" stroke="midnightblue" points="331.989,-84.5918 322.659,-79.5707 326.821,-89.3138 331.989,-84.5918"/>
</g>
<!-- Node8 -->
<g id="node15" class="node"><title>Node8</title>
<polygon fill="white" stroke="#bfbfbf" points="1020.5,-0.5 1020.5,-21.5 1079.5,-21.5 1079.5,-0.5 1020.5,-0.5"/>
<text text-anchor="middle" x="1050" y="-8.5" font-family="Helvetica,sans-Serif" font-size="10.00">QPointer</text>
</g>
<!-- Node2&#45;&gt;Node8 -->
<g id="edge14" class="edge"><title>Node2&#45;&gt;Node8</title>
<path fill="none" stroke="midnightblue" d="M402.555,-124.566C514.509,-116.997 847.936,-93.5723 895,-80 915.627,-74.0517 918.533,-67.0487 938,-58 962.986,-46.3859 991.644,-34.3834 1013.72,-25.4147"/>
<polygon fill="midnightblue" stroke="midnightblue" points="1015.09,-28.6351 1023.05,-21.6434 1012.47,-22.1449 1015.09,-28.6351"/>
</g>
<!-- Node4 -->
<g id="node7" class="node"><title>Node4</title>
<polygon fill="white" stroke="#bfbfbf" points="166.5,-0.5 166.5,-21.5 221.5,-21.5 221.5,-0.5 166.5,-0.5"/>
<text text-anchor="middle" x="194" y="-8.5" font-family="Helvetica,sans-Serif" font-size="10.00">QObject</text>
</g>
<!-- Node3&#45;&gt;Node4 -->
<g id="edge6" class="edge"><title>Node3&#45;&gt;Node4</title>
<path fill="none" stroke="midnightblue" d="M194,-58.3619C194,-50.9219 194,-40.7427 194,-31.7276"/>
<polygon fill="midnightblue" stroke="midnightblue" points="197.5,-31.5706 194,-21.5707 190.5,-31.5707 197.5,-31.5706"/>
</g>
<!-- Node5 -->
<g id="node9" class="node"><title>Node5</title>
<polygon fill="white" stroke="#bfbfbf" points="341,-0.5 341,-21.5 387,-21.5 387,-0.5 341,-0.5"/>
<text text-anchor="middle" x="364" y="-8.5" font-family="Helvetica,sans-Serif" font-size="10.00">QUuid</text>
</g>
<!-- Node3&#45;&gt;Node5 -->
<g id="edge8" class="edge"><title>Node3&#45;&gt;Node5</title>
<path fill="none" stroke="midnightblue" d="M224.786,-58.4966C254.787,-48.2608 300.254,-32.7485 330.992,-22.2615"/>
<polygon fill="midnightblue" stroke="midnightblue" points="332.474,-25.4541 340.808,-18.9125 330.214,-18.8291 332.474,-25.4541"/>
</g>
<!-- Node9&#45;&gt;Node5 -->
<g id="edge18" class="edge"><title>Node9&#45;&gt;Node5</title>
<path fill="none" stroke="midnightblue" d="M823.811,-183.971C769.804,-181.016 627.613,-170.512 514,-138 452.784,-120.482 424.57,-128.232 383,-80 371.494,-66.65 366.905,-46.9108 365.101,-31.961"/>
<polygon fill="midnightblue" stroke="midnightblue" points="368.557,-31.3031 364.195,-21.6476 361.584,-31.9154 368.557,-31.3031"/>
</g>
<!-- Node9&#45;&gt;Node6 -->
<g id="edge26" class="edge"><title>Node9&#45;&gt;Node6</title>
<path fill="none" stroke="midnightblue" d="M823.967,-183.938C769.679,-180.847 631.665,-169.95 601,-138 573.728,-109.585 575.048,-59.909 578.485,-31.8466"/>
<polygon fill="midnightblue" stroke="midnightblue" points="582.001,-31.9864 579.957,-21.5905 575.072,-30.9917 582.001,-31.9864"/>
</g>
<!-- Node9&#45;&gt;Node8 -->
<g id="edge24" class="edge"><title>Node9&#45;&gt;Node8</title>
<path fill="none" stroke="midnightblue" d="M868.148,-184.048C947.759,-180.404 1216.04,-166.11 1241,-138 1291.78,-80.8163 1158.87,-37.9544 1089.3,-20.1096"/>
<polygon fill="midnightblue" stroke="midnightblue" points="1090.08,-16.6959 1079.53,-17.6596 1088.38,-23.4858 1090.08,-16.6959"/>
</g>
<!-- Node10 -->
<g id="node20" class="node"><title>Node10</title>
<polygon fill="white" stroke="#bfbfbf" points="1208.5,-0.5 1208.5,-21.5 1261.5,-21.5 1261.5,-0.5 1208.5,-0.5"/>
<text text-anchor="middle" x="1235" y="-8.5" font-family="Helvetica,sans-Serif" font-size="10.00">QRectF</text>
</g>
<!-- Node9&#45;&gt;Node10 -->
<g id="edge20" class="edge"><title>Node9&#45;&gt;Node10</title>
<path fill="none" stroke="midnightblue" d="M868.072,-184.179C950.047,-180.905 1233.65,-167.508 1260,-138 1286.78,-108.011 1263.92,-57.9119 1247.72,-30.4568"/>
<polygon fill="midnightblue" stroke="midnightblue" points="1250.59,-28.4377 1242.36,-21.7601 1244.63,-32.1098 1250.59,-28.4377"/>
</g>
<!-- Node11 -->
<g id="node22" class="node"><title>Node11</title>
<polygon fill="white" stroke="#bfbfbf" points="609.5,-116.5 609.5,-137.5 656.5,-137.5 656.5,-116.5 609.5,-116.5"/>
<text text-anchor="middle" x="633" y="-124.5" font-family="Helvetica,sans-Serif" font-size="10.00">QRect</text>
</g>
<!-- Node9&#45;&gt;Node11 -->
<g id="edge22" class="edge"><title>Node9&#45;&gt;Node11</title>
<path fill="none" stroke="midnightblue" d="M823.837,-179.828C791.304,-172.112 728.535,-156.754 666.624,-138.353"/>
<polygon fill="midnightblue" stroke="midnightblue" points="667.284,-134.897 656.7,-135.374 665.271,-141.601 667.284,-134.897"/>
</g>
<!-- Node12 -->
<g id="node26" class="node"><title>Node12</title>
<polygon fill="white" stroke="#bfbfbf" points="674,-116.5 674,-137.5 726,-137.5 726,-116.5 674,-116.5"/>
<text text-anchor="middle" x="700" y="-124.5" font-family="Helvetica,sans-Serif" font-size="10.00">QTimer</text>
</g>
<!-- Node9&#45;&gt;Node12 -->
<g id="edge28" class="edge"><title>Node9&#45;&gt;Node12</title>
<path fill="none" stroke="midnightblue" d="M823.826,-176.191C800.349,-166.865 762.949,-152.007 735.389,-141.059"/>
<polygon fill="midnightblue" stroke="midnightblue" points="736.676,-137.804 726.09,-137.365 734.091,-144.309 736.676,-137.804"/>
</g>
<!-- Node13 -->
<g id="node28" class="node"><title>Node13</title>
<polygon fill="white" stroke="#bfbfbf" points="706.5,-0.5 706.5,-21.5 747.5,-21.5 747.5,-0.5 706.5,-0.5"/>
<text text-anchor="middle" x="727" y="-8.5" font-family="Helvetica,sans-Serif" font-size="10.00">QList</text>
</g>
<!-- Node9&#45;&gt;Node13 -->
<g id="edge30" class="edge"><title>Node9&#45;&gt;Node13</title>
<path fill="none" stroke="midnightblue" d="M868.283,-184.281C923.863,-181.971 1066.22,-172.716 1095,-138 1101.24,-130.472 1101.43,-123.363 1095,-116 1055.75,-71.0816 884.728,-101.272 829,-80 797.508,-67.979 766.116,-44.5921 746.647,-28.3994"/>
<polygon fill="midnightblue" stroke="midnightblue" points="748.709,-25.5587 738.825,-21.7435 744.173,-30.8898 748.709,-25.5587"/>
</g>
<!-- Node14 -->
<g id="node30" class="node"><title>Node14</title>
<polygon fill="white" stroke="#bfbfbf" points="744,-116.5 744,-137.5 790,-137.5 790,-116.5 744,-116.5"/>
<text text-anchor="middle" x="767" y="-124.5" font-family="Helvetica,sans-Serif" font-size="10.00">QFont</text>
</g>
<!-- Node9&#45;&gt;Node14 -->
<g id="edge32" class="edge"><title>Node9&#45;&gt;Node14</title>
<path fill="none" stroke="midnightblue" d="M831.51,-174.362C819.817,-165.777 803.157,-153.546 789.697,-143.664"/>
<polygon fill="midnightblue" stroke="midnightblue" points="791.53,-140.667 781.398,-137.571 787.387,-146.31 791.53,-140.667"/>
</g>
<!-- Node15 -->
<g id="node32" class="node"><title>Node15</title>
<polygon fill="white" stroke="#bfbfbf" points="807.5,-116.5 807.5,-137.5 884.5,-137.5 884.5,-116.5 807.5,-116.5"/>
<text text-anchor="middle" x="846" y="-124.5" font-family="Helvetica,sans-Serif" font-size="10.00">QTextLayout</text>
</g>
<!-- Node9&#45;&gt;Node15 -->
<g id="edge34" class="edge"><title>Node9&#45;&gt;Node15</title>
<path fill="none" stroke="midnightblue" d="M846,-174.362C846,-166.922 846,-156.743 846,-147.728"/>
<polygon fill="midnightblue" stroke="midnightblue" points="849.5,-147.571 846,-137.571 842.5,-147.571 849.5,-147.571"/>
</g>
<!-- Node16 -->
<g id="node34" class="node"><title>Node16</title>
<polygon fill="white" stroke="#bfbfbf" points="902,-116.5 902,-137.5 992,-137.5 992,-116.5 902,-116.5"/>
<text text-anchor="middle" x="947" y="-124.5" font-family="Helvetica,sans-Serif" font-size="10.00">QStateMachine</text>
</g>
<!-- Node9&#45;&gt;Node16 -->
<g id="edge36" class="edge"><title>Node9&#45;&gt;Node16</title>
<path fill="none" stroke="midnightblue" d="M864.525,-174.362C879.901,-165.532 901.996,-152.844 919.447,-142.822"/>
<polygon fill="midnightblue" stroke="midnightblue" points="921.664,-145.586 928.592,-137.571 918.178,-139.515 921.664,-145.586"/>
</g>
<!-- Node17 -->
<g id="node36" class="node"><title>Node17</title>
<a xlink:href="thingpaintable_8h.htm" target="_top" xlink:title="thingpaintable.h">
<polygon fill="white" stroke="black" points="1141.5,-116.5 1141.5,-137.5 1232.5,-137.5 1232.5,-116.5 1141.5,-116.5"/>
<text text-anchor="middle" x="1187" y="-124.5" font-family="Helvetica,sans-Serif" font-size="10.00">thingpaintable.h</text>
</a>
</g>
<!-- Node9&#45;&gt;Node17 -->
<g id="edge38" class="edge"><title>Node9&#45;&gt;Node17</title>
<path fill="none" stroke="midnightblue" d="M868.325,-181.428C916.038,-173.762 1031.47,-155.042 1128,-138 1129.08,-137.81 1130.17,-137.617 1131.26,-137.421"/>
<polygon fill="midnightblue" stroke="midnightblue" points="1132.06,-140.834 1141.28,-135.614 1130.81,-133.945 1132.06,-140.834"/>
</g>
<!-- Node22 -->
<g id="node53" class="node"><title>Node22</title>
<a xlink:href="pixmapobject_8h.htm" target="_top" xlink:title="pixmapobject.h">
<polygon fill="white" stroke="black" points="392,-58.5 392,-79.5 478,-79.5 478,-58.5 392,-58.5"/>
<text text-anchor="middle" x="435" y="-66.5" font-family="Helvetica,sans-Serif" font-size="10.00">pixmapobject.h</text>
</a>
</g>
<!-- Node9&#45;&gt;Node22 -->
<g id="edge62" class="edge"><title>Node9&#45;&gt;Node22</title>
<path fill="none" stroke="midnightblue" d="M823.809,-183.593C775.946,-180.056 659.906,-168.766 568,-138 528.455,-124.762 486.282,-101.046 460.279,-85.1653"/>
<polygon fill="midnightblue" stroke="midnightblue" points="461.81,-81.9962 451.466,-79.7032 458.122,-87.9461 461.81,-81.9962"/>
</g>
<!-- Node25 -->
<g id="node61" class="node"><title>Node25</title>
<a xlink:href="icondecorator_8h.htm" target="_top" xlink:title="icondecorator.h">
<polygon fill="white" stroke="black" points="1326,-58.5 1326,-79.5 1416,-79.5 1416,-58.5 1326,-58.5"/>
<text text-anchor="middle" x="1371" y="-66.5" font-family="Helvetica,sans-Serif" font-size="10.00">icondecorator.h</text>
</a>
</g>
<!-- Node9&#45;&gt;Node25 -->
<g id="edge72" class="edge"><title>Node9&#45;&gt;Node25</title>
<path fill="none" stroke="midnightblue" d="M868.107,-183.738C955.265,-178.631 1272.28,-158.776 1312,-138 1333.25,-126.886 1350.08,-104.611 1360.24,-88.3676"/>
<polygon fill="midnightblue" stroke="midnightblue" points="1363.33,-90.0147 1365.43,-79.6303 1357.31,-86.4379 1363.33,-90.0147"/>
</g>
<!-- Node28 -->
<g id="node69" class="node"><title>Node28</title>
<a xlink:href="renderopts_8h.htm" target="_top" xlink:title="renderopts.h">
<polygon fill="white" stroke="black" points="1009.5,-116.5 1009.5,-137.5 1086.5,-137.5 1086.5,-116.5 1009.5,-116.5"/>
<text text-anchor="middle" x="1048" y="-124.5" font-family="Helvetica,sans-Serif" font-size="10.00">renderopts.h</text>
</a>
</g>
<!-- Node9&#45;&gt;Node28 -->
<g id="edge82" class="edge"><title>Node9&#45;&gt;Node28</title>
<path fill="none" stroke="midnightblue" d="M868.002,-178.683C899.904,-169.523 959.762,-152.336 1001.66,-140.305"/>
<polygon fill="midnightblue" stroke="midnightblue" points="1002.72,-143.642 1011.37,-137.518 1000.79,-136.914 1002.72,-143.642"/>
</g>
<!-- Node17&#45;&gt;Node6 -->
<g id="edge58" class="edge"><title>Node17&#45;&gt;Node6</title>
<path fill="none" stroke="midnightblue" d="M1141.5,-121.393C1051.97,-110.308 859.018,-86.131 829,-80 753.045,-64.4867 666.151,-38.1573 618.333,-22.9008"/>
<polygon fill="midnightblue" stroke="midnightblue" points="619.332,-19.5456 608.741,-19.8212 617.192,-26.2105 619.332,-19.5456"/>
</g>
<!-- Node17&#45;&gt;Node10 -->
<g id="edge60" class="edge"><title>Node17&#45;&gt;Node10</title>
<path fill="none" stroke="midnightblue" d="M1191.43,-116.295C1199.43,-96.9588 1216.41,-55.9229 1226.65,-31.1767"/>
<polygon fill="midnightblue" stroke="midnightblue" points="1229.99,-32.2576 1230.58,-21.6792 1223.52,-29.5811 1229.99,-32.2576"/>
</g>
<!-- Node18 -->
<g id="node38" class="node"><title>Node18</title>
<a xlink:href="thing_8h.htm" target="_top" xlink:title="thing.h">
<polygon fill="white" stroke="black" points="838,-58.5 838,-79.5 886,-79.5 886,-58.5 838,-58.5"/>
<text text-anchor="middle" x="862" y="-66.5" font-family="Helvetica,sans-Serif" font-size="10.00">thing.h</text>
</a>
</g>
<!-- Node17&#45;&gt;Node18 -->
<g id="edge40" class="edge"><title>Node17&#45;&gt;Node18</title>
<path fill="none" stroke="midnightblue" d="M1141.27,-118.43C1136.79,-117.603 1132.31,-116.782 1128,-116 1044.86,-100.905 946.98,-83.7755 896.297,-74.9534"/>
<polygon fill="midnightblue" stroke="midnightblue" points="896.672,-71.4662 886.22,-73.2007 895.472,-78.3626 896.672,-71.4662"/>
</g>
<!-- Node18&#45;&gt;Node5 -->
<g id="edge44" class="edge"><title>Node18&#45;&gt;Node5</title>
<path fill="none" stroke="midnightblue" d="M837.999,-68.4392C768.797,-66.4247 563.211,-57.6424 397,-22 396.9,-21.9786 396.801,-21.9571 396.701,-21.9353"/>
<polygon fill="midnightblue" stroke="midnightblue" points="397.819,-18.6103 387.259,-19.461 396.045,-25.3817 397.819,-18.6103"/>
</g>
<!-- Node18&#45;&gt;Node6 -->
<g id="edge48" class="edge"><title>Node18&#45;&gt;Node6</title>
<path fill="none" stroke="midnightblue" d="M837.964,-61.6887C833.349,-60.3853 828.54,-59.0956 824,-58 751.863,-40.5914 666.43,-25.2042 618.803,-17.0859"/>
<polygon fill="midnightblue" stroke="midnightblue" points="619.112,-13.5885 608.668,-15.371 617.944,-20.4904 619.112,-13.5885"/>
</g>
<!-- Node18&#45;&gt;Node8 -->
<g id="edge46" class="edge"><title>Node18&#45;&gt;Node8</title>
<path fill="none" stroke="midnightblue" d="M886.193,-61.5363C917.691,-51.8186 973.148,-34.7097 1010.72,-23.1195"/>
<polygon fill="midnightblue" stroke="midnightblue" points="1011.81,-26.4463 1020.33,-20.1538 1009.74,-19.7574 1011.81,-26.4463"/>
</g>
<!-- Node18&#45;&gt;Node10 -->
<g id="edge52" class="edge"><title>Node18&#45;&gt;Node10</title>
<path fill="none" stroke="midnightblue" d="M886.186,-65.2391C949.864,-55.3375 1122.46,-28.5002 1198.35,-16.6987"/>
<polygon fill="midnightblue" stroke="midnightblue" points="1199.05,-20.1316 1208.4,-15.1366 1197.98,-13.2147 1199.05,-20.1316"/>
</g>
<!-- Node18&#45;&gt;Node13 -->
<g id="edge50" class="edge"><title>Node18&#45;&gt;Node13</title>
<path fill="none" stroke="midnightblue" d="M837.865,-58.6308C815.334,-48.9511 781.626,-34.4691 757.296,-24.0162"/>
<polygon fill="midnightblue" stroke="midnightblue" points="758.397,-20.68 747.828,-19.9483 755.634,-27.1115 758.397,-20.68"/>
</g>
<!-- Node19 -->
<g id="node40" class="node"><title>Node19</title>
<polygon fill="white" stroke="#bfbfbf" points="905,-0.5 905,-21.5 1003,-21.5 1003,-0.5 905,-0.5"/>
<text text-anchor="middle" x="954" y="-8.5" font-family="Helvetica,sans-Serif" font-size="10.00">QGraphicsObject</text>
</g>
<!-- Node18&#45;&gt;Node19 -->
<g id="edge42" class="edge"><title>Node18&#45;&gt;Node19</title>
<path fill="none" stroke="midnightblue" d="M878.874,-58.3619C892.751,-49.6138 912.634,-37.0786 928.46,-27.1015"/>
<polygon fill="midnightblue" stroke="midnightblue" points="930.64,-29.8645 937.233,-21.5707 926.907,-23.943 930.64,-29.8645"/>
</g>
<!-- Node20 -->
<g id="node47" class="node"><title>Node20</title>
<polygon fill="white" stroke="#bfbfbf" points="764.5,-0.5 764.5,-21.5 819.5,-21.5 819.5,-0.5 764.5,-0.5"/>
<text text-anchor="middle" x="792" y="-8.5" font-family="Helvetica,sans-Serif" font-size="10.00">QDebug</text>
</g>
<!-- Node18&#45;&gt;Node20 -->
<g id="edge54" class="edge"><title>Node18&#45;&gt;Node20</title>
<path fill="none" stroke="midnightblue" d="M849.161,-58.3619C838.998,-49.9408 824.599,-38.0105 812.796,-28.2308"/>
<polygon fill="midnightblue" stroke="midnightblue" points="814.691,-25.2558 804.758,-21.5707 810.225,-30.6459 814.691,-25.2558"/>
</g>
<!-- Node21 -->
<g id="node49" class="node"><title>Node21</title>
<polygon fill="white" stroke="#bfbfbf" points="837,-0.5 837,-21.5 887,-21.5 887,-0.5 837,-0.5"/>
<text text-anchor="middle" x="862" y="-8.5" font-family="Helvetica,sans-Serif" font-size="10.00">QHash</text>
</g>
<!-- Node18&#45;&gt;Node21 -->
<g id="edge56" class="edge"><title>Node18&#45;&gt;Node21</title>
<path fill="none" stroke="midnightblue" d="M862,-58.3619C862,-50.9219 862,-40.7427 862,-31.7276"/>
<polygon fill="midnightblue" stroke="midnightblue" points="865.5,-31.5706 862,-21.5707 858.5,-31.5707 865.5,-31.5706"/>
</g>
<!-- Node22&#45;&gt;Node4 -->
<g id="edge64" class="edge"><title>Node22&#45;&gt;Node4</title>
<path fill="none" stroke="midnightblue" d="M391.914,-58.6308C346.289,-47.6506 274.988,-30.4909 231.573,-20.0426"/>
<polygon fill="midnightblue" stroke="midnightblue" points="232.239,-16.6028 221.697,-17.6657 230.601,-23.4085 232.239,-16.6028"/>
</g>
<!-- Node22&#45;&gt;Node5 -->
<g id="edge68" class="edge"><title>Node22&#45;&gt;Node5</title>
<path fill="none" stroke="midnightblue" d="M421.978,-58.3619C411.569,-49.859 396.781,-37.7785 384.745,-27.9466"/>
<polygon fill="midnightblue" stroke="midnightblue" points="386.899,-25.1866 376.94,-21.5707 382.47,-30.6077 386.899,-25.1866"/>
</g>
<!-- Node23 -->
<g id="node56" class="node"><title>Node23</title>
<polygon fill="white" stroke="#bfbfbf" points="405.5,-0.5 405.5,-21.5 464.5,-21.5 464.5,-0.5 405.5,-0.5"/>
<text text-anchor="middle" x="435" y="-8.5" font-family="Helvetica,sans-Serif" font-size="10.00">QPixmap</text>
</g>
<!-- Node22&#45;&gt;Node23 -->
<g id="edge66" class="edge"><title>Node22&#45;&gt;Node23</title>
<path fill="none" stroke="midnightblue" d="M435,-58.3619C435,-50.9219 435,-40.7427 435,-31.7276"/>
<polygon fill="midnightblue" stroke="midnightblue" points="438.5,-31.5706 435,-21.5707 431.5,-31.5707 438.5,-31.5706"/>
</g>
<!-- Node24 -->
<g id="node59" class="node"><title>Node24</title>
<polygon fill="white" stroke="#bfbfbf" points="481.5,-0.5 481.5,-21.5 526.5,-21.5 526.5,-0.5 481.5,-0.5"/>
<text text-anchor="middle" x="504" y="-8.5" font-family="Helvetica,sans-Serif" font-size="10.00">QSize</text>
</g>
<!-- Node22&#45;&gt;Node24 -->
<g id="edge70" class="edge"><title>Node22&#45;&gt;Node24</title>
<path fill="none" stroke="midnightblue" d="M447.656,-58.3619C457.674,-49.9408 471.867,-38.0105 483.501,-28.2308"/>
<polygon fill="midnightblue" stroke="midnightblue" points="486.022,-30.6844 491.425,-21.5707 481.518,-25.326 486.022,-30.6844"/>
</g>
<!-- Node25&#45;&gt;Node8 -->
<g id="edge74" class="edge"><title>Node25&#45;&gt;Node8</title>
<path fill="none" stroke="midnightblue" d="M1325.69,-60.813C1262.76,-49.4425 1149.89,-29.0495 1089.95,-18.219"/>
<polygon fill="midnightblue" stroke="midnightblue" points="1090.21,-14.7095 1079.75,-16.3756 1088.97,-21.598 1090.21,-14.7095"/>
</g>
<!-- Node25&#45;&gt;Node10 -->
<g id="edge76" class="edge"><title>Node25&#45;&gt;Node10</title>
<path fill="none" stroke="midnightblue" d="M1346.37,-58.4966C1324.84,-49.3154 1293.36,-35.8889 1269.36,-25.6516"/>
<polygon fill="midnightblue" stroke="midnightblue" points="1270.48,-22.3247 1259.9,-21.6212 1267.73,-28.7636 1270.48,-22.3247"/>
</g>
<!-- Node26 -->
<g id="node65" class="node"><title>Node26</title>
<polygon fill="white" stroke="#bfbfbf" points="1375.5,-0.5 1375.5,-21.5 1430.5,-21.5 1430.5,-0.5 1375.5,-0.5"/>
<text text-anchor="middle" x="1403" y="-8.5" font-family="Helvetica,sans-Serif" font-size="10.00">QPointF</text>
</g>
<!-- Node25&#45;&gt;Node26 -->
<g id="edge78" class="edge"><title>Node25&#45;&gt;Node26</title>
<path fill="none" stroke="midnightblue" d="M1376.87,-58.3619C1381.15,-50.5949 1387.09,-39.8426 1392.22,-30.5458"/>
<polygon fill="midnightblue" stroke="midnightblue" points="1395.4,-32.0172 1397.17,-21.5707 1389.27,-28.6357 1395.4,-32.0172"/>
</g>
<!-- Node27 -->
<g id="node67" class="node"><title>Node27</title>
<polygon fill="white" stroke="#bfbfbf" points="1309.5,-0.5 1309.5,-21.5 1358.5,-21.5 1358.5,-0.5 1309.5,-0.5"/>
<text text-anchor="middle" x="1334" y="-8.5" font-family="Helvetica,sans-Serif" font-size="10.00">QPoint</text>
</g>
<!-- Node25&#45;&gt;Node27 -->
<g id="edge80" class="edge"><title>Node25&#45;&gt;Node27</title>
<path fill="none" stroke="midnightblue" d="M1364.21,-58.3619C1359.21,-50.5131 1352.25,-39.6159 1346.28,-30.2527"/>
<polygon fill="midnightblue" stroke="midnightblue" points="1349.07,-28.1189 1340.74,-21.5707 1343.17,-31.8837 1349.07,-28.1189"/>
</g>
<!-- Node29&#45;&gt;Node2 -->
<g id="edge88" class="edge"><title>Node29&#45;&gt;Node2</title>
<path fill="none" stroke="midnightblue" d="M296.59,-174.362C309.291,-165.696 327.438,-153.313 341.992,-143.382"/>
<polygon fill="midnightblue" stroke="midnightblue" points="344.221,-146.098 350.509,-137.571 340.276,-140.316 344.221,-146.098"/>
</g>
<!-- Node29&#45;&gt;Node3 -->
<g id="edge86" class="edge"><title>Node29&#45;&gt;Node3</title>
<path fill="none" stroke="midnightblue" d="M254.471,-174.339C238.573,-166.591 219.311,-154.552 208,-138 198.328,-123.846 195.051,-104.491 194.066,-89.8817"/>
<polygon fill="midnightblue" stroke="midnightblue" points="197.56,-89.6628 193.691,-79.7998 190.565,-89.923 197.56,-89.6628"/>
</g>
<!-- Node29&#45;&gt;Node4 -->
<g id="edge100" class="edge"><title>Node29&#45;&gt;Node4</title>
<path fill="none" stroke="midnightblue" d="M253.271,-174.457C218.929,-159.555 162.782,-128.603 145,-80 141.64,-70.8175 141.164,-66.994 145,-58 150.079,-46.0915 159.818,-35.7503 169.285,-27.8235"/>
<polygon fill="midnightblue" stroke="midnightblue" points="171.668,-30.4041 177.41,-21.5002 167.368,-24.8799 171.668,-30.4041"/>
</g>
<!-- Node29&#45;&gt;Node5 -->
<g id="edge106" class="edge"><title>Node29&#45;&gt;Node5</title>
<path fill="none" stroke="midnightblue" d="M267.79,-174.198C258.318,-165.541 246.328,-152.48 241,-138 237.624,-128.824 238.093,-125.336 241,-116 250.31,-86.1024 257.9,-79.1409 281,-58 295.807,-44.4487 315.2,-33.1933 331.516,-25.0977"/>
<polygon fill="midnightblue" stroke="midnightblue" points="333.197,-28.1735 340.709,-20.7027 330.178,-21.8581 333.197,-28.1735"/>
</g>
<!-- Node29&#45;&gt;Node8 -->
<g id="edge102" class="edge"><title>Node29&#45;&gt;Node8</title>
<path fill="none" stroke="midnightblue" d="M320.163,-175.185C380.234,-160.442 498.897,-132.549 601,-116 746.2,-92.4662 790.161,-125.63 930,-80 966.708,-68.0221 1004.61,-43.8995 1027.74,-27.5951"/>
<polygon fill="midnightblue" stroke="midnightblue" points="1030.06,-30.2399 1036.14,-21.5621 1025.98,-24.5553 1030.06,-30.2399"/>
</g>
<!-- Node29&#45;&gt;Node13 -->
<g id="edge104" class="edge"><title>Node29&#45;&gt;Node13</title>
<path fill="none" stroke="midnightblue" d="M311.058,-174.471C337.478,-165.136 376.918,-151.005 411,-138 516.787,-97.6333 641.134,-46.5922 697.077,-23.4354"/>
<polygon fill="midnightblue" stroke="midnightblue" points="698.496,-26.6358 706.395,-19.5742 695.816,-20.1691 698.496,-26.6358"/>
</g>
<!-- Node30 -->
<g id="node75" class="node"><title>Node30</title>
<a xlink:href="blacklist_8h.htm" target="_top" xlink:title="blacklist.h">
<polygon fill="white" stroke="black" points="29,-116.5 29,-137.5 91,-137.5 91,-116.5 29,-116.5"/>
<text text-anchor="middle" x="60" y="-124.5" font-family="Helvetica,sans-Serif" font-size="10.00">blacklist.h</text>
</a>
</g>
<!-- Node29&#45;&gt;Node30 -->
<g id="edge90" class="edge"><title>Node29&#45;&gt;Node30</title>
<path fill="none" stroke="midnightblue" d="M241.998,-174.764C202.359,-164.361 141.207,-148.312 100.898,-137.733"/>
<polygon fill="midnightblue" stroke="midnightblue" points="101.686,-134.322 91.1249,-135.169 99.9089,-141.092 101.686,-134.322"/>
</g>
<!-- Node34 -->
<g id="node88" class="node"><title>Node34</title>
<polygon fill="white" stroke="#bfbfbf" points="250,-116.5 250,-137.5 312,-137.5 312,-116.5 250,-116.5"/>
<text text-anchor="middle" x="281" y="-124.5" font-family="Helvetica,sans-Serif" font-size="10.00">QBitArray</text>
</g>
<!-- Node29&#45;&gt;Node34 -->
<g id="edge108" class="edge"><title>Node29&#45;&gt;Node34</title>
<path fill="none" stroke="midnightblue" d="M281,-174.362C281,-166.922 281,-156.743 281,-147.728"/>
<polygon fill="midnightblue" stroke="midnightblue" points="284.5,-147.571 281,-137.571 277.5,-147.571 284.5,-147.571"/>
</g>
<!-- Node31 -->
<g id="node77" class="node"><title>Node31</title>
<a xlink:href="staticmatchlist_8h.htm" target="_top" xlink:title="staticmatchlist.h">
<polygon fill="white" stroke="black" points="7.5,-58.5 7.5,-79.5 98.5,-79.5 98.5,-58.5 7.5,-58.5"/>
<text text-anchor="middle" x="53" y="-66.5" font-family="Helvetica,sans-Serif" font-size="10.00">staticmatchlist.h</text>
</a>
</g>
<!-- Node30&#45;&gt;Node31 -->
<g id="edge92" class="edge"><title>Node30&#45;&gt;Node31</title>
<path fill="none" stroke="midnightblue" d="M58.7161,-116.362C57.8182,-108.922 56.5896,-98.7427 55.5016,-89.7276"/>
<polygon fill="midnightblue" stroke="midnightblue" points="58.9488,-89.0792 54.2758,-79.5707 51.9993,-89.918 58.9488,-89.0792"/>
</g>
<!-- Node31&#45;&gt;Node6 -->
<g id="edge98" class="edge"><title>Node31&#45;&gt;Node6</title>
<path fill="none" stroke="midnightblue" d="M98.8326,-63.2735C113.565,-61.4988 129.963,-59.5926 145,-58 318.102,-39.6656 363.18,-49.9002 535,-22 538.412,-21.4459 541.945,-20.7848 545.471,-20.0655"/>
<polygon fill="midnightblue" stroke="midnightblue" points="546.26,-23.4758 555.284,-17.925 544.768,-16.6366 546.26,-23.4758"/>
</g>
<!-- Node32 -->
<g id="node79" class="node"><title>Node32</title>
<a xlink:href="filterlist_8h.htm" target="_top" xlink:title="filterlist.h">
<polygon fill="white" stroke="black" points="58,-0.5 58,-21.5 116,-21.5 116,-0.5 58,-0.5"/>
<text text-anchor="middle" x="87" y="-8.5" font-family="Helvetica,sans-Serif" font-size="10.00">filterlist.h</text>
</a>
</g>
<!-- Node31&#45;&gt;Node32 -->
<g id="edge94" class="edge"><title>Node31&#45;&gt;Node32</title>
<path fill="none" stroke="midnightblue" d="M59.2361,-58.3619C63.8371,-50.5131 70.2252,-39.6159 75.7139,-30.2527"/>
<polygon fill="midnightblue" stroke="midnightblue" points="78.7656,-31.9677 80.8034,-21.5707 72.7267,-28.4276 78.7656,-31.9677"/>
</g>
<!-- Node33 -->
<g id="node81" class="node"><title>Node33</title>
<polygon fill="white" stroke="#bfbfbf" points="-0.5,-0.5 -0.5,-21.5 40.5,-21.5 40.5,-0.5 -0.5,-0.5"/>
<text text-anchor="middle" x="20" y="-8.5" font-family="Helvetica,sans-Serif" font-size="10.00">QSet</text>
</g>
<!-- Node31&#45;&gt;Node33 -->
<g id="edge96" class="edge"><title>Node31&#45;&gt;Node33</title>
<path fill="none" stroke="midnightblue" d="M46.9473,-58.3619C42.5281,-50.5949 36.4104,-39.8426 31.1209,-30.5458"/>
<polygon fill="midnightblue" stroke="midnightblue" points="34.0017,-28.5315 26.0143,-21.5707 27.9176,-31.9932 34.0017,-28.5315"/>
</g>
</g>
</svg>
