<?xml version="1.0" encoding="UTF-8" standalone="no"?>
<!DOCTYPE svg PUBLIC "-//W3C//DTD SVG 1.1//EN"
 "http://www.w3.org/Graphics/SVG/1.1/DTD/svg11.dtd">
<!-- Generated by graphviz version 2.26.3 (20100126.1600)
 -->
<!-- Title: WebosTapAndHoldGestureRecognizer.h Pages: 1 -->
<svg width="348pt" height="88pt"
 viewBox="0.00 0.00 348.00 88.00" xmlns="http://www.w3.org/2000/svg" xmlns:xlink="http://www.w3.org/1999/xlink">
<g id="graph1" class="graph" transform="scale(1 1) rotate(0) translate(4 84)">
<title>WebosTapAndHoldGestureRecognizer.h</title>
<polygon fill="white" stroke="white" points="-4,5 -4,-84 345,-84 345,5 -4,5"/>
<!-- Node1 -->
<g id="node1" class="node"><title>Node1</title>
<polygon fill="#bfbfbf" stroke="black" points="94,-58.5 94,-79.5 302,-79.5 302,-58.5 94,-58.5"/>
<text text-anchor="middle" x="198" y="-66.5" font-family="Helvetica,sans-Serif" font-size="10.00">WebosTapAndHoldGestureRecognizer.h</text>
</g>
<!-- Node2 -->
<g id="node3" class="node"><title>Node2</title>
<a xlink:href="WebosTapAndHoldGestureRecognizer_8cpp.htm" target="_top" xlink:title="WebosTapAndHoldGestureRecognizer.cpp">
<polygon fill="white" stroke="black" points="-0.5,-0.5 -0.5,-21.5 218.5,-21.5 218.5,-0.5 -0.5,-0.5"/>
<text text-anchor="middle" x="109" y="-8.5" font-family="Helvetica,sans-Serif" font-size="10.00">WebosTapAndHoldGestureRecognizer.cpp</text>
</a>
</g>
<!-- Node1&#45;&gt;Node2 -->
<g id="edge2" class="edge"><title>Node1&#45;&gt;Node2</title>
<path fill="none" stroke="midnightblue" d="M173.174,-52.8215C157.844,-42.8312 138.614,-30.2993 125.22,-21.5707"/>
<polygon fill="midnightblue" stroke="midnightblue" points="171.387,-55.8344 181.676,-58.3619 175.209,-49.9698 171.387,-55.8344"/>
</g>
<!-- Node3 -->
<g id="node5" class="node"><title>Node3</title>
<a xlink:href="WindowServer_8cpp.htm" target="_top" xlink:title="WindowServer.cpp">
<polygon fill="white" stroke="black" points="235.5,-0.5 235.5,-21.5 340.5,-21.5 340.5,-0.5 235.5,-0.5"/>
<text text-anchor="middle" x="288" y="-8.5" font-family="Helvetica,sans-Serif" font-size="10.00">WindowServer.cpp</text>
</a>
</g>
<!-- Node1&#45;&gt;Node3 -->
<g id="edge4" class="edge"><title>Node1&#45;&gt;Node3</title>
<path fill="none" stroke="midnightblue" d="M223.105,-52.8215C238.607,-42.8312 258.053,-30.2993 271.597,-21.5707"/>
<polygon fill="midnightblue" stroke="midnightblue" points="221.017,-50.0028 214.507,-58.3619 224.809,-55.8869 221.017,-50.0028"/>
</g>
</g>
</svg>
