<?xml version="1.0" encoding="UTF-8" standalone="no"?>
<!DOCTYPE svg PUBLIC "-//W3C//DTD SVG 1.1//EN"
 "http://www.w3.org/Graphics/SVG/1.1/DTD/svg11.dtd">
<!-- Generated by graphviz version 2.26.3 (20100126.1600)
 -->
<!-- Title: WebosTapGestureRecognizer.cpp Pages: 1 -->
<svg width="652pt" height="146pt"
 viewBox="0.00 0.00 652.00 146.00" xmlns="http://www.w3.org/2000/svg" xmlns:xlink="http://www.w3.org/1999/xlink">
<g id="graph1" class="graph" transform="scale(1 1) rotate(0) translate(4 142)">
<title>WebosTapGestureRecognizer.cpp</title>
<polygon fill="white" stroke="white" points="-4,5 -4,-142 649,-142 649,5 -4,5"/>
<!-- Node1 -->
<g id="node1" class="node"><title>Node1</title>
<polygon fill="#bfbfbf" stroke="black" points="143.5,-116.5 143.5,-137.5 322.5,-137.5 322.5,-116.5 143.5,-116.5"/>
<text text-anchor="middle" x="233" y="-124.5" font-family="Helvetica,sans-Serif" font-size="10.00">WebosTapGestureRecognizer.cpp</text>
</g>
<!-- Node2 -->
<g id="node3" class="node"><title>Node2</title>
<polygon fill="white" stroke="#bfbfbf" points="0,-58.5 0,-79.5 58,-79.5 58,-58.5 0,-58.5"/>
<text text-anchor="middle" x="29" y="-66.5" font-family="Helvetica,sans-Serif" font-size="10.00">QWidget</text>
</g>
<!-- Node1&#45;&gt;Node2 -->
<g id="edge2" class="edge"><title>Node1&#45;&gt;Node2</title>
<path fill="none" stroke="midnightblue" d="M195.403,-116.423C163.85,-107.531 117.327,-94.3852 67.9507,-80.2622"/>
<polygon fill="midnightblue" stroke="midnightblue" points="68.6182,-76.8128 58.0411,-77.4256 66.6917,-83.5425 68.6182,-76.8128"/>
</g>
<!-- Node3 -->
<g id="node5" class="node"><title>Node3</title>
<polygon fill="white" stroke="#bfbfbf" points="75.5,-58.5 75.5,-79.5 156.5,-79.5 156.5,-58.5 75.5,-58.5"/>
<text text-anchor="middle" x="116" y="-66.5" font-family="Helvetica,sans-Serif" font-size="10.00">QTouchEvent</text>
</g>
<!-- Node1&#45;&gt;Node3 -->
<g id="edge4" class="edge"><title>Node1&#45;&gt;Node3</title>
<path fill="none" stroke="midnightblue" d="M211.812,-116.497C193.538,-107.438 166.928,-94.2462 146.385,-84.0628"/>
<polygon fill="midnightblue" stroke="midnightblue" points="147.94,-80.9269 137.426,-79.6212 144.831,-87.1986 147.94,-80.9269"/>
</g>
<!-- Node4 -->
<g id="node7" class="node"><title>Node4</title>
<polygon fill="white" stroke="#bfbfbf" points="179,-0.5 179,-21.5 241,-21.5 241,-0.5 179,-0.5"/>
<text text-anchor="middle" x="210" y="-8.5" font-family="Helvetica,sans-Serif" font-size="10.00">QGesture</text>
</g>
<!-- Node1&#45;&gt;Node4 -->
<g id="edge6" class="edge"><title>Node1&#45;&gt;Node4</title>
<path fill="none" stroke="midnightblue" d="M223.631,-116.306C216.415,-107.313 207.015,-93.7527 203,-80 198.367,-64.131 200.717,-45.4368 203.892,-31.5123"/>
<polygon fill="midnightblue" stroke="midnightblue" points="207.363,-32.0722 206.498,-21.5127 200.59,-30.3069 207.363,-32.0722"/>
</g>
<!-- Node5 -->
<g id="node9" class="node"><title>Node5</title>
<a xlink:href="WebosTapGestureRecognizer_8h.htm" target="_top" xlink:title="WebosTapGestureRecognizer.h">
<polygon fill="white" stroke="black" points="477.5,-58.5 477.5,-79.5 644.5,-79.5 644.5,-58.5 477.5,-58.5"/>
<text text-anchor="middle" x="561" y="-66.5" font-family="Helvetica,sans-Serif" font-size="10.00">WebosTapGestureRecognizer.h</text>
</a>
</g>
<!-- Node1&#45;&gt;Node5 -->
<g id="edge8" class="edge"><title>Node1&#45;&gt;Node5</title>
<path fill="none" stroke="midnightblue" d="M292.398,-116.497C348.418,-106.591 432.383,-91.7433 491.492,-81.2911"/>
<polygon fill="midnightblue" stroke="midnightblue" points="492.253,-84.711 501.49,-79.5231 491.034,-77.8179 492.253,-84.711"/>
</g>
<!-- Node7 -->
<g id="node13" class="node"><title>Node7</title>
<a xlink:href="FlickGesture_8h.htm" target="_top" xlink:title="FlickGesture.h">
<polygon fill="white" stroke="black" points="371.5,-58.5 371.5,-79.5 454.5,-79.5 454.5,-58.5 371.5,-58.5"/>
<text text-anchor="middle" x="413" y="-66.5" font-family="Helvetica,sans-Serif" font-size="10.00">FlickGesture.h</text>
</a>
</g>
<!-- Node1&#45;&gt;Node7 -->
<g id="edge12" class="edge"><title>Node1&#45;&gt;Node7</title>
<path fill="none" stroke="midnightblue" d="M265.597,-116.497C295.069,-107 338.635,-92.9619 370.766,-82.6087"/>
<polygon fill="midnightblue" stroke="midnightblue" points="371.898,-85.9214 380.342,-79.5231 369.751,-79.2587 371.898,-85.9214"/>
</g>
<!-- Node11 -->
<g id="node22" class="node"><title>Node11</title>
<a xlink:href="ScreenEdgeFlickGesture_8h.htm" target="_top" xlink:title="ScreenEdgeFlickGesture.h">
<polygon fill="white" stroke="black" points="212,-58.5 212,-79.5 354,-79.5 354,-58.5 212,-58.5"/>
<text text-anchor="middle" x="283" y="-66.5" font-family="Helvetica,sans-Serif" font-size="10.00">ScreenEdgeFlickGesture.h</text>
</a>
</g>
<!-- Node1&#45;&gt;Node11 -->
<g id="edge22" class="edge"><title>Node1&#45;&gt;Node11</title>
<path fill="none" stroke="midnightblue" d="M242.171,-116.362C249.148,-108.268 258.921,-96.9318 267.156,-87.3796"/>
<polygon fill="midnightblue" stroke="midnightblue" points="270.009,-89.4301 273.887,-79.5707 264.707,-84.8595 270.009,-89.4301"/>
</g>
<!-- Node6 -->
<g id="node11" class="node"><title>Node6</title>
<polygon fill="white" stroke="#bfbfbf" points="509,-0.5 509,-21.5 625,-21.5 625,-0.5 509,-0.5"/>
<text text-anchor="middle" x="567" y="-8.5" font-family="Helvetica,sans-Serif" font-size="10.00">QGestureRecognizer</text>
</g>
<!-- Node5&#45;&gt;Node6 -->
<g id="edge10" class="edge"><title>Node5&#45;&gt;Node6</title>
<path fill="none" stroke="midnightblue" d="M562.1,-58.3619C562.87,-50.9219 563.923,-40.7427 564.856,-31.7276"/>
<polygon fill="midnightblue" stroke="midnightblue" points="568.359,-31.8777 565.906,-21.5707 561.396,-31.1574 568.359,-31.8777"/>
</g>
<!-- Node7&#45;&gt;Node4 -->
<g id="edge16" class="edge"><title>Node7&#45;&gt;Node4</title>
<path fill="none" stroke="midnightblue" d="M376.238,-58.4966C340.939,-48.411 287.709,-33.2027 251.042,-22.7264"/>
<polygon fill="midnightblue" stroke="midnightblue" points="251.745,-19.2871 241.168,-19.9052 249.822,-26.0178 251.745,-19.2871"/>
</g>
<!-- Node8 -->
<g id="node15" class="node"><title>Node8</title>
<polygon fill="white" stroke="#bfbfbf" points="324.5,-0.5 324.5,-21.5 391.5,-21.5 391.5,-0.5 324.5,-0.5"/>
<text text-anchor="middle" x="358" y="-8.5" font-family="Helvetica,sans-Serif" font-size="10.00">Common.h</text>
</g>
<!-- Node7&#45;&gt;Node8 -->
<g id="edge14" class="edge"><title>Node7&#45;&gt;Node8</title>
<path fill="none" stroke="midnightblue" d="M402.912,-58.3619C395.159,-50.1861 384.27,-38.7025 375.155,-29.0907"/>
<polygon fill="midnightblue" stroke="midnightblue" points="377.445,-26.4186 368.024,-21.5707 372.365,-31.2352 377.445,-26.4186"/>
</g>
<!-- Node9 -->
<g id="node18" class="node"><title>Node9</title>
<polygon fill="white" stroke="#bfbfbf" points="258.5,-0.5 258.5,-21.5 307.5,-21.5 307.5,-0.5 258.5,-0.5"/>
<text text-anchor="middle" x="283" y="-8.5" font-family="Helvetica,sans-Serif" font-size="10.00">QPoint</text>
</g>
<!-- Node7&#45;&gt;Node9 -->
<g id="edge18" class="edge"><title>Node7&#45;&gt;Node9</title>
<path fill="none" stroke="midnightblue" d="M389.458,-58.4966C368.971,-49.3562 339.053,-36.0082 316.146,-25.7883"/>
<polygon fill="midnightblue" stroke="midnightblue" points="317.365,-22.4994 306.806,-21.6212 314.512,-28.892 317.365,-22.4994"/>
</g>
<!-- Node10 -->
<g id="node20" class="node"><title>Node10</title>
<polygon fill="white" stroke="#bfbfbf" points="408.5,-0.5 408.5,-21.5 491.5,-21.5 491.5,-0.5 408.5,-0.5"/>
<text text-anchor="middle" x="450" y="-8.5" font-family="Helvetica,sans-Serif" font-size="10.00">SysMgrDefs.h</text>
</g>
<!-- Node7&#45;&gt;Node10 -->
<g id="edge20" class="edge"><title>Node7&#45;&gt;Node10</title>
<path fill="none" stroke="midnightblue" d="M419.786,-58.3619C424.793,-50.5131 431.745,-39.6159 437.718,-30.2527"/>
<polygon fill="midnightblue" stroke="midnightblue" points="440.829,-31.8837 443.257,-21.5707 434.928,-28.1189 440.829,-31.8837"/>
</g>
<!-- Node11&#45;&gt;Node4 -->
<g id="edge26" class="edge"><title>Node11&#45;&gt;Node4</title>
<path fill="none" stroke="midnightblue" d="M269.611,-58.3619C258.909,-49.859 243.704,-37.7785 231.329,-27.9466"/>
<polygon fill="midnightblue" stroke="midnightblue" points="233.311,-25.0511 223.304,-21.5707 228.957,-30.5318 233.311,-25.0511"/>
</g>
<!-- Node11&#45;&gt;Node8 -->
<g id="edge24" class="edge"><title>Node11&#45;&gt;Node8</title>
<path fill="none" stroke="midnightblue" d="M296.756,-58.3619C307.751,-49.859 323.373,-37.7785 336.086,-27.9466"/>
<polygon fill="midnightblue" stroke="midnightblue" points="338.562,-30.4569 344.331,-21.5707 334.279,-24.9195 338.562,-30.4569"/>
</g>
<!-- Node11&#45;&gt;Node9 -->
<g id="edge28" class="edge"><title>Node11&#45;&gt;Node9</title>
<path fill="none" stroke="midnightblue" d="M283,-58.3619C283,-50.9219 283,-40.7427 283,-31.7276"/>
<polygon fill="midnightblue" stroke="midnightblue" points="286.5,-31.5706 283,-21.5707 279.5,-31.5707 286.5,-31.5706"/>
</g>
</g>
</svg>
