<?xml version="1.0" encoding="UTF-8" standalone="no"?>
<!DOCTYPE svg PUBLIC "-//W3C//DTD SVG 1.1//EN"
 "http://www.w3.org/Graphics/SVG/1.1/DTD/svg11.dtd">
<!-- Generated by graphviz version 2.26.3 (20100126.1600)
 -->
<!-- Title: WebosTapAndHoldGestureRecognizer.cpp Pages: 1 -->
<svg width="562pt" height="146pt"
 viewBox="0.00 0.00 562.00 146.00" xmlns="http://www.w3.org/2000/svg" xmlns:xlink="http://www.w3.org/1999/xlink">
<g id="graph1" class="graph" transform="scale(1 1) rotate(0) translate(4 142)">
<title>WebosTapAndHoldGestureRecognizer.cpp</title>
<polygon fill="white" stroke="white" points="-4,5 -4,-142 559,-142 559,5 -4,5"/>
<!-- Node1 -->
<g id="node1" class="node"><title>Node1</title>
<polygon fill="#bfbfbf" stroke="black" points="73.5,-116.5 73.5,-137.5 292.5,-137.5 292.5,-116.5 73.5,-116.5"/>
<text text-anchor="middle" x="183" y="-124.5" font-family="Helvetica,sans-Serif" font-size="10.00">WebosTapAndHoldGestureRecognizer.cpp</text>
</g>
<!-- Node2 -->
<g id="node3" class="node"><title>Node2</title>
<polygon fill="white" stroke="#bfbfbf" points="0,-58.5 0,-79.5 58,-79.5 58,-58.5 0,-58.5"/>
<text text-anchor="middle" x="29" y="-66.5" font-family="Helvetica,sans-Serif" font-size="10.00">QWidget</text>
</g>
<!-- Node1&#45;&gt;Node2 -->
<g id="edge2" class="edge"><title>Node1&#45;&gt;Node2</title>
<path fill="none" stroke="midnightblue" d="M155.112,-116.497C130.332,-107.164 93.9048,-93.4447 66.564,-83.1475"/>
<polygon fill="midnightblue" stroke="midnightblue" points="67.5324,-79.7723 56.9405,-79.5231 65.0652,-86.3231 67.5324,-79.7723"/>
</g>
<!-- Node3 -->
<g id="node5" class="node"><title>Node3</title>
<polygon fill="white" stroke="#bfbfbf" points="75.5,-58.5 75.5,-79.5 156.5,-79.5 156.5,-58.5 75.5,-58.5"/>
<text text-anchor="middle" x="116" y="-66.5" font-family="Helvetica,sans-Serif" font-size="10.00">QTouchEvent</text>
</g>
<!-- Node1&#45;&gt;Node3 -->
<g id="edge4" class="edge"><title>Node1&#45;&gt;Node3</title>
<path fill="none" stroke="midnightblue" d="M170.711,-116.362C160.983,-107.941 147.202,-96.0105 135.905,-86.2308"/>
<polygon fill="midnightblue" stroke="midnightblue" points="138.062,-83.4695 128.211,-79.5707 133.481,-88.7619 138.062,-83.4695"/>
</g>
<!-- Node4 -->
<g id="node7" class="node"><title>Node4</title>
<a xlink:href="WebosTapAndHoldGesture_8h.htm" target="_top" xlink:title="WebosTapAndHoldGesture.h">
<polygon fill="white" stroke="black" points="174,-58.5 174,-79.5 328,-79.5 328,-58.5 174,-58.5"/>
<text text-anchor="middle" x="251" y="-66.5" font-family="Helvetica,sans-Serif" font-size="10.00">WebosTapAndHoldGesture.h</text>
</a>
</g>
<!-- Node1&#45;&gt;Node4 -->
<g id="edge6" class="edge"><title>Node1&#45;&gt;Node4</title>
<path fill="none" stroke="midnightblue" d="M195.472,-116.362C205.345,-107.941 219.333,-96.0105 230.798,-86.2308"/>
<polygon fill="midnightblue" stroke="midnightblue" points="233.27,-88.7231 238.607,-79.5707 228.727,-83.3972 233.27,-88.7231"/>
</g>
<!-- Node7 -->
<g id="node13" class="node"><title>Node7</title>
<a xlink:href="WebosTapAndHoldGestureRecognizer_8h.htm" target="_top" xlink:title="WebosTapAndHoldGestureRecognizer.h">
<polygon fill="white" stroke="black" points="346,-58.5 346,-79.5 554,-79.5 554,-58.5 346,-58.5"/>
<text text-anchor="middle" x="450" y="-66.5" font-family="Helvetica,sans-Serif" font-size="10.00">WebosTapAndHoldGestureRecognizer.h</text>
</a>
</g>
<!-- Node1&#45;&gt;Node7 -->
<g id="edge12" class="edge"><title>Node1&#45;&gt;Node7</title>
<path fill="none" stroke="midnightblue" d="M231.352,-116.497C276.387,-106.714 343.611,-92.1107 391.62,-81.6819"/>
<polygon fill="midnightblue" stroke="midnightblue" points="392.529,-85.0661 401.558,-79.5231 391.043,-78.2257 392.529,-85.0661"/>
</g>
<!-- Node5 -->
<g id="node9" class="node"><title>Node5</title>
<polygon fill="white" stroke="#bfbfbf" points="189.5,-0.5 189.5,-21.5 238.5,-21.5 238.5,-0.5 189.5,-0.5"/>
<text text-anchor="middle" x="214" y="-8.5" font-family="Helvetica,sans-Serif" font-size="10.00">QPoint</text>
</g>
<!-- Node4&#45;&gt;Node5 -->
<g id="edge8" class="edge"><title>Node4&#45;&gt;Node5</title>
<path fill="none" stroke="midnightblue" d="M244.214,-58.3619C239.207,-50.5131 232.255,-39.6159 226.282,-30.2527"/>
<polygon fill="midnightblue" stroke="midnightblue" points="229.072,-28.1189 220.743,-21.5707 223.171,-31.8837 229.072,-28.1189"/>
</g>
<!-- Node6 -->
<g id="node11" class="node"><title>Node6</title>
<polygon fill="white" stroke="#bfbfbf" points="256,-0.5 256,-21.5 318,-21.5 318,-0.5 256,-0.5"/>
<text text-anchor="middle" x="287" y="-8.5" font-family="Helvetica,sans-Serif" font-size="10.00">QGesture</text>
</g>
<!-- Node4&#45;&gt;Node6 -->
<g id="edge10" class="edge"><title>Node4&#45;&gt;Node6</title>
<path fill="none" stroke="midnightblue" d="M257.603,-58.3619C262.475,-50.5131 269.238,-39.6159 275.05,-30.2527"/>
<polygon fill="midnightblue" stroke="midnightblue" points="278.139,-31.9129 280.439,-21.5707 272.191,-28.2213 278.139,-31.9129"/>
</g>
<!-- Node8 -->
<g id="node15" class="node"><title>Node8</title>
<polygon fill="white" stroke="#bfbfbf" points="392,-0.5 392,-21.5 508,-21.5 508,-0.5 392,-0.5"/>
<text text-anchor="middle" x="450" y="-8.5" font-family="Helvetica,sans-Serif" font-size="10.00">QGestureRecognizer</text>
</g>
<!-- Node7&#45;&gt;Node8 -->
<g id="edge14" class="edge"><title>Node7&#45;&gt;Node8</title>
<path fill="none" stroke="midnightblue" d="M450,-58.3619C450,-50.9219 450,-40.7427 450,-31.7276"/>
<polygon fill="midnightblue" stroke="midnightblue" points="453.5,-31.5706 450,-21.5707 446.5,-31.5707 453.5,-31.5706"/>
</g>
</g>
</svg>
