<?xml version="1.0" encoding="UTF-8" standalone="no"?>
<!DOCTYPE svg PUBLIC "-//W3C//DTD SVG 1.1//EN"
 "http://www.w3.org/Graphics/SVG/1.1/DTD/svg11.dtd">
<!-- Generated by graphviz version 2.26.3 (20100126.1600)
 -->
<!-- Title: webosapp.h Pages: 1 -->
<svg width="1761pt" height="320pt"
 viewBox="0.00 0.00 1760.77 320.00" xmlns="http://www.w3.org/2000/svg" xmlns:xlink="http://www.w3.org/1999/xlink">
<g id="graph1" class="graph" transform="scale(1 1) rotate(0) translate(4 316)">
<title>webosapp.h</title>
<polygon fill="white" stroke="white" points="-4,5 -4,-316 1757.77,-316 1757.77,5 -4,5"/>
<!-- Node1 -->
<g id="node1" class="node"><title>Node1</title>
<polygon fill="#bfbfbf" stroke="black" points="132.272,-290.5 132.272,-311.5 205.272,-311.5 205.272,-290.5 132.272,-290.5"/>
<text text-anchor="middle" x="168.772" y="-298.5" font-family="Helvetica,sans-Serif" font-size="10.00">webosapp.h</text>
</g>
<!-- Node2 -->
<g id="node3" class="node"><title>Node2</title>
<a xlink:href="dimensionslauncher_8cpp.htm" target="_top" xlink:title="dimensionslauncher.cpp">
<polygon fill="white" stroke="black" points="12.7716,-58.5 12.7716,-79.5 142.772,-79.5 142.772,-58.5 12.7716,-58.5"/>
<text text-anchor="middle" x="77.7716" y="-66.5" font-family="Helvetica,sans-Serif" font-size="10.00">dimensionslauncher.cpp</text>
</a>
</g>
<!-- Node1&#45;&gt;Node2 -->
<g id="edge2" class="edge"><title>Node1&#45;&gt;Node2</title>
<path fill="none" stroke="midnightblue" d="M122.431,-291.044C101.759,-284.158 79.1051,-272.731 65.7716,-254 30.0906,-203.875 40.8914,-175.942 54.7716,-116 57.8456,-102.725 65.2137,-88.8702 70.7883,-79.673"/>
<polygon fill="midnightblue" stroke="midnightblue" points="121.473,-294.411 132.059,-293.985 123.518,-287.716 121.473,-294.411"/>
</g>
<!-- Node3 -->
<g id="node5" class="node"><title>Node3</title>
<a xlink:href="appeffector_8cpp.htm" target="_top" xlink:title="appeffector.cpp">
<polygon fill="white" stroke="black" points="71.7716,-116.5 71.7716,-137.5 161.772,-137.5 161.772,-116.5 71.7716,-116.5"/>
<text text-anchor="middle" x="116.772" y="-124.5" font-family="Helvetica,sans-Serif" font-size="10.00">appeffector.cpp</text>
</a>
</g>
<!-- Node1&#45;&gt;Node3 -->
<g id="edge4" class="edge"><title>Node1&#45;&gt;Node3</title>
<path fill="none" stroke="midnightblue" d="M122.335,-287.994C105.602,-280.818 88.4694,-270.005 78.7716,-254 60.3461,-223.591 66.9158,-207.521 78.7716,-174 83.8799,-159.557 95.5213,-146.301 104.582,-137.576"/>
<polygon fill="midnightblue" stroke="midnightblue" points="121.494,-291.423 132.082,-291.809 124.046,-284.905 121.494,-291.423"/>
</g>
<!-- Node4 -->
<g id="node7" class="node"><title>Node4</title>
<a xlink:href="appmonitor_8h.htm" target="_top" xlink:title="appmonitor.h">
<polygon fill="white" stroke="black" points="221.772,-232.5 221.772,-253.5 299.772,-253.5 299.772,-232.5 221.772,-232.5"/>
<text text-anchor="middle" x="260.772" y="-240.5" font-family="Helvetica,sans-Serif" font-size="10.00">appmonitor.h</text>
</a>
</g>
<!-- Node1&#45;&gt;Node4 -->
<g id="edge6" class="edge"><title>Node1&#45;&gt;Node4</title>
<path fill="none" stroke="midnightblue" d="M194.434,-284.821C210.281,-274.831 230.159,-262.299 244.004,-253.571"/>
<polygon fill="midnightblue" stroke="midnightblue" points="192.239,-282.068 185.646,-290.362 195.972,-287.99 192.239,-282.068"/>
</g>
<!-- Node20 -->
<g id="node41" class="node"><title>Node20</title>
<a xlink:href="pagesaver_8cpp.htm" target="_top" xlink:title="pagesaver.cpp">
<polygon fill="white" stroke="black" points="217.772,-116.5 217.772,-137.5 303.772,-137.5 303.772,-116.5 217.772,-116.5"/>
<text text-anchor="middle" x="260.772" y="-124.5" font-family="Helvetica,sans-Serif" font-size="10.00">pagesaver.cpp</text>
</a>
</g>
<!-- Node1&#45;&gt;Node20 -->
<g id="edge100" class="edge"><title>Node1&#45;&gt;Node20</title>
<path fill="none" stroke="midnightblue" d="M179.265,-281.153C198.731,-244.338 239.831,-166.606 254.994,-137.928"/>
<polygon fill="midnightblue" stroke="midnightblue" points="175.968,-279.901 174.388,-290.377 182.156,-283.173 175.968,-279.901"/>
</g>
<!-- Node27 -->
<g id="node65" class="node"><title>Node27</title>
<a xlink:href="pagerestore_8cpp.htm" target="_top" xlink:title="pagerestore.cpp">
<polygon fill="white" stroke="black" points="1658.77,-58.5 1658.77,-79.5 1752.77,-79.5 1752.77,-58.5 1658.77,-58.5"/>
<text text-anchor="middle" x="1705.77" y="-66.5" font-family="Helvetica,sans-Serif" font-size="10.00">pagerestore.cpp</text>
</a>
</g>
<!-- Node1&#45;&gt;Node27 -->
<g id="edge98" class="edge"><title>Node1&#45;&gt;Node27</title>
<path fill="none" stroke="midnightblue" d="M215.481,-299.663C469.28,-292.176 1673.05,-253.695 1724.77,-196 1754.54,-162.801 1726.2,-103.961 1712.37,-79.8068"/>
<polygon fill="midnightblue" stroke="midnightblue" points="215.373,-296.165 205.48,-299.957 215.578,-303.162 215.373,-296.165"/>
</g>
<!-- Node29 -->
<g id="node77" class="node"><title>Node29</title>
<a xlink:href="webosapp_8cpp.htm" target="_top" xlink:title="webosapp.cpp">
<polygon fill="white" stroke="black" points="1631.77,-174.5 1631.77,-195.5 1715.77,-195.5 1715.77,-174.5 1631.77,-174.5"/>
<text text-anchor="middle" x="1673.77" y="-182.5" font-family="Helvetica,sans-Serif" font-size="10.00">webosapp.cpp</text>
</a>
</g>
<!-- Node1&#45;&gt;Node29 -->
<g id="edge102" class="edge"><title>Node1&#45;&gt;Node29</title>
<path fill="none" stroke="midnightblue" d="M215.573,-299.678C396.77,-294.124 1069.34,-269.457 1617.77,-196 1622.29,-195.395 1626.99,-194.652 1631.67,-193.841"/>
<polygon fill="midnightblue" stroke="midnightblue" points="215.224,-296.187 205.334,-299.988 215.435,-303.184 215.224,-296.187"/>
</g>
<!-- Node4&#45;&gt;Node2 -->
<g id="edge44" class="edge"><title>Node4&#45;&gt;Node2</title>
<path fill="none" stroke="midnightblue" d="M211.798,-232.648C164.011,-219.623 94.0744,-192.073 62.7716,-138 51.962,-119.327 63.1054,-93.7163 71.1257,-79.5329"/>
<polygon fill="midnightblue" stroke="midnightblue" points="211.078,-236.078 221.638,-235.212 212.843,-229.304 211.078,-236.078"/>
</g>
<!-- Node4&#45;&gt;Node3 -->
<g id="edge88" class="edge"><title>Node4&#45;&gt;Node3</title>
<path fill="none" stroke="midnightblue" d="M235.614,-226.77C222.538,-218.047 206.47,-206.875 192.772,-196 168.345,-176.61 141.799,-151.486 127.446,-137.528"/>
<polygon fill="midnightblue" stroke="midnightblue" points="233.848,-229.798 244.123,-232.383 237.703,-223.955 233.848,-229.798"/>
</g>
<!-- Node5 -->
<g id="node9" class="node"><title>Node5</title>
<a xlink:href="ApplicationManager_8cpp.htm" target="_top" xlink:title="ApplicationManager.cpp">
<polygon fill="white" stroke="black" points="117.272,-0.5 117.272,-21.5 248.272,-21.5 248.272,-0.5 117.272,-0.5"/>
<text text-anchor="middle" x="182.772" y="-8.5" font-family="Helvetica,sans-Serif" font-size="10.00">ApplicationManager.cpp</text>
</a>
</g>
<!-- Node4&#45;&gt;Node5 -->
<g id="edge8" class="edge"><title>Node4&#45;&gt;Node5</title>
<path fill="none" stroke="midnightblue" d="M211.339,-237.614C175.875,-231.838 128.28,-220.011 92.7716,-196 38.9414,-159.6 24.6576,-141.534 3.77158,-80 0.628868,-70.741 -2.20023,-65.7423 3.77158,-58 17.8023,-39.8097 72.0109,-27.2761 117.133,-19.7555"/>
<polygon fill="midnightblue" stroke="midnightblue" points="211.051,-241.111 221.463,-239.154 212.103,-234.19 211.051,-241.111"/>
</g>
<!-- Node6 -->
<g id="node11" class="node"><title>Node6</title>
<a xlink:href="dimensionslauncher_8h.htm" target="_top" xlink:title="dimensionslauncher.h">
<polygon fill="white" stroke="black" points="786.272,-174.5 786.272,-195.5 905.272,-195.5 905.272,-174.5 786.272,-174.5"/>
<text text-anchor="middle" x="845.772" y="-182.5" font-family="Helvetica,sans-Serif" font-size="10.00">dimensionslauncher.h</text>
</a>
</g>
<!-- Node4&#45;&gt;Node6 -->
<g id="edge10" class="edge"><title>Node4&#45;&gt;Node6</title>
<path fill="none" stroke="midnightblue" d="M310.266,-238.093C417.349,-227.476 670.197,-202.407 785.985,-190.928"/>
<polygon fill="midnightblue" stroke="midnightblue" points="309.669,-234.635 300.063,-239.104 310.36,-241.601 309.669,-234.635"/>
</g>
<!-- Node9 -->
<g id="node18" class="node"><title>Node9</title>
<a xlink:href="quicklaunchbar_8cpp.htm" target="_top" xlink:title="quicklaunchbar.cpp">
<polygon fill="white" stroke="black" points="176.772,-58.5 176.772,-79.5 282.772,-79.5 282.772,-58.5 176.772,-58.5"/>
<text text-anchor="middle" x="229.772" y="-66.5" font-family="Helvetica,sans-Serif" font-size="10.00">quicklaunchbar.cpp</text>
</a>
</g>
<!-- Node4&#45;&gt;Node9 -->
<g id="edge86" class="edge"><title>Node4&#45;&gt;Node9</title>
<path fill="none" stroke="midnightblue" d="M247.79,-223.691C234.979,-203.377 216.255,-169.975 208.772,-138 203.863,-117.029 215.03,-93.0904 222.887,-79.6382"/>
<polygon fill="midnightblue" stroke="midnightblue" points="244.992,-225.808 253.364,-232.3 250.867,-222.004 244.992,-225.808"/>
</g>
<!-- Node19 -->
<g id="node39" class="node"><title>Node19</title>
<a xlink:href="appmonitor_8cpp.htm" target="_top" xlink:title="appmonitor.cpp">
<polygon fill="white" stroke="black" points="1589.27,-116.5 1589.27,-137.5 1678.27,-137.5 1678.27,-116.5 1589.27,-116.5"/>
<text text-anchor="middle" x="1633.77" y="-124.5" font-family="Helvetica,sans-Serif" font-size="10.00">appmonitor.cpp</text>
</a>
</g>
<!-- Node4&#45;&gt;Node19 -->
<g id="edge90" class="edge"><title>Node4&#45;&gt;Node19</title>
<path fill="none" stroke="midnightblue" d="M310.064,-241.118C483.955,-234.045 1084.71,-205.904 1575.77,-138 1580.14,-137.396 1584.67,-136.685 1589.2,-135.92"/>
<polygon fill="midnightblue" stroke="midnightblue" points="309.797,-237.626 299.946,-241.526 310.078,-244.621 309.797,-237.626"/>
</g>
<!-- Node4&#45;&gt;Node20 -->
<g id="edge94" class="edge"><title>Node4&#45;&gt;Node20</title>
<path fill="none" stroke="midnightblue" d="M260.772,-222.123C260.772,-197.298 260.772,-156.824 260.772,-137.679"/>
<polygon fill="midnightblue" stroke="midnightblue" points="257.272,-222.295 260.772,-232.295 264.272,-222.295 257.272,-222.295"/>
</g>
<!-- Node21 -->
<g id="node44" class="node"><title>Node21</title>
<a xlink:href="quicklaunchbar_8h.htm" target="_top" xlink:title="quicklaunchbar.h">
<polygon fill="white" stroke="black" points="322.272,-174.5 322.272,-195.5 417.272,-195.5 417.272,-174.5 322.272,-174.5"/>
<text text-anchor="middle" x="369.772" y="-182.5" font-family="Helvetica,sans-Serif" font-size="10.00">quicklaunchbar.h</text>
</a>
</g>
<!-- Node4&#45;&gt;Node21 -->
<g id="edge46" class="edge"><title>Node4&#45;&gt;Node21</title>
<path fill="none" stroke="midnightblue" d="M289.348,-227.794C308.366,-217.675 332.874,-204.634 349.811,-195.621"/>
<polygon fill="midnightblue" stroke="midnightblue" points="287.695,-224.709 280.511,-232.497 290.983,-230.889 287.695,-224.709"/>
</g>
<!-- Node4&#45;&gt;Node27 -->
<g id="edge92" class="edge"><title>Node4&#45;&gt;Node27</title>
<path fill="none" stroke="midnightblue" d="M310.279,-241.532C447.775,-237.221 845.91,-223.166 1175.77,-196 1289.67,-186.62 1599.92,-212.283 1686.77,-138 1703.86,-123.382 1706.28,-94.9424 1706.24,-79.5329"/>
<polygon fill="midnightblue" stroke="midnightblue" points="309.956,-238.04 300.069,-241.849 310.173,-245.036 309.956,-238.04"/>
</g>
<!-- Node4&#45;&gt;Node29 -->
<g id="edge96" class="edge"><title>Node4&#45;&gt;Node29</title>
<path fill="none" stroke="midnightblue" d="M309.979,-242.347C521.782,-239.375 1356.81,-225.956 1617.77,-196 1622.3,-195.48 1627.01,-194.792 1631.69,-194.013"/>
<polygon fill="midnightblue" stroke="midnightblue" points="309.741,-238.85 299.791,-242.489 309.838,-245.849 309.741,-238.85"/>
</g>
<!-- Node6&#45;&gt;Node2 -->
<g id="edge12" class="edge"><title>Node6&#45;&gt;Node2</title>
<path fill="none" stroke="midnightblue" d="M775.762,-181.933C658.822,-176.21 428.965,-162.237 351.772,-138 332.784,-132.038 331.428,-122.927 312.772,-116 257.287,-95.3999 190.905,-83.1815 142.867,-76.3904"/>
<polygon fill="midnightblue" stroke="midnightblue" points="775.878,-185.442 786.035,-182.428 776.215,-178.45 775.878,-185.442"/>
</g>
<!-- Node6&#45;&gt;Node3 -->
<g id="edge38" class="edge"><title>Node6&#45;&gt;Node3</title>
<path fill="none" stroke="midnightblue" d="M775.696,-180.872C658.294,-173.723 414.486,-157.877 208.772,-138 193.561,-136.53 176.97,-134.637 162.118,-132.836"/>
<polygon fill="midnightblue" stroke="midnightblue" points="775.782,-184.384 785.976,-181.496 776.206,-177.397 775.782,-184.384"/>
</g>
<!-- Node7 -->
<g id="node14" class="node"><title>Node7</title>
<a xlink:href="dimensionsmain_8cpp.htm" target="_top" xlink:title="dimensionsmain.cpp">
<polygon fill="white" stroke="black" points="725.772,-0.5 725.772,-21.5 837.772,-21.5 837.772,-0.5 725.772,-0.5"/>
<text text-anchor="middle" x="781.772" y="-8.5" font-family="Helvetica,sans-Serif" font-size="10.00">dimensionsmain.cpp</text>
</a>
</g>
<!-- Node6&#45;&gt;Node7 -->
<g id="edge14" class="edge"><title>Node6&#45;&gt;Node7</title>
<path fill="none" stroke="midnightblue" d="M915.431,-181.551C1089.84,-172.755 1532.14,-149.374 1542.77,-138 1549.45,-130.857 1549.2,-123.371 1542.77,-116 1496.39,-62.7738 1006.08,-25.7612 837.964,-14.5561"/>
<polygon fill="midnightblue" stroke="midnightblue" points="915.144,-178.061 905.333,-182.06 915.496,-185.052 915.144,-178.061"/>
</g>
<!-- Node8 -->
<g id="node16" class="node"><title>Node8</title>
<a xlink:href="pagetabbar_8cpp.htm" target="_top" xlink:title="pagetabbar.cpp">
<polygon fill="white" stroke="black" points="801.272,-116.5 801.272,-137.5 890.272,-137.5 890.272,-116.5 801.272,-116.5"/>
<text text-anchor="middle" x="845.772" y="-124.5" font-family="Helvetica,sans-Serif" font-size="10.00">pagetabbar.cpp</text>
</a>
</g>
<!-- Node6&#45;&gt;Node8 -->
<g id="edge16" class="edge"><title>Node6&#45;&gt;Node8</title>
<path fill="none" stroke="midnightblue" d="M845.772,-164.191C845.772,-155.168 845.772,-144.994 845.772,-137.571"/>
<polygon fill="midnightblue" stroke="midnightblue" points="842.272,-164.362 845.772,-174.362 849.272,-164.362 842.272,-164.362"/>
</g>
<!-- Node6&#45;&gt;Node9 -->
<g id="edge18" class="edge"><title>Node6&#45;&gt;Node9</title>
<path fill="none" stroke="midnightblue" d="M775.92,-181.975C692.088,-177.245 547.689,-165.586 426.772,-138 362.823,-123.411 290.823,-94.9589 254.124,-79.5402"/>
<polygon fill="midnightblue" stroke="midnightblue" points="775.911,-185.48 786.087,-182.531 776.293,-178.49 775.911,-185.48"/>
</g>
<!-- Node10 -->
<g id="node20" class="node"><title>Node10</title>
<a xlink:href="icon_8cpp.htm" target="_top" xlink:title="icon.cpp">
<polygon fill="white" stroke="black" points="612.772,-58.5 612.772,-79.5 668.772,-79.5 668.772,-58.5 612.772,-58.5"/>
<text text-anchor="middle" x="640.772" y="-66.5" font-family="Helvetica,sans-Serif" font-size="10.00">icon.cpp</text>
</a>
</g>
<!-- Node6&#45;&gt;Node10 -->
<g id="edge20" class="edge"><title>Node6&#45;&gt;Node10</title>
<path fill="none" stroke="midnightblue" d="M776.135,-179.901C717.486,-173.986 640.132,-161.822 620.772,-138 606.77,-120.771 621.909,-94.1427 632.433,-79.5151"/>
<polygon fill="midnightblue" stroke="midnightblue" points="775.821,-183.387 786.111,-180.866 776.495,-176.419 775.821,-183.387"/>
</g>
<!-- Node11 -->
<g id="node22" class="node"><title>Node11</title>
<a xlink:href="alphabetpage_8cpp.htm" target="_top" xlink:title="alphabetpage.cpp">
<polygon fill="white" stroke="black" points="945.272,-116.5 945.272,-137.5 1046.27,-137.5 1046.27,-116.5 945.272,-116.5"/>
<text text-anchor="middle" x="995.772" y="-124.5" font-family="Helvetica,sans-Serif" font-size="10.00">alphabetpage.cpp</text>
</a>
</g>
<!-- Node6&#45;&gt;Node11 -->
<g id="edge22" class="edge"><title>Node6&#45;&gt;Node11</title>
<path fill="none" stroke="midnightblue" d="M882.304,-170.874C908.922,-160.582 944.404,-146.862 968.557,-137.523"/>
<polygon fill="midnightblue" stroke="midnightblue" points="881,-167.626 872.935,-174.497 883.525,-174.155 881,-167.626"/>
</g>
<!-- Node12 -->
<g id="node24" class="node"><title>Node12</title>
<a xlink:href="reorderableiconlayout_8cpp.htm" target="_top" xlink:title="reorderableiconlayout.cpp">
<polygon fill="white" stroke="black" points="1063.77,-116.5 1063.77,-137.5 1201.77,-137.5 1201.77,-116.5 1063.77,-116.5"/>
<text text-anchor="middle" x="1132.77" y="-124.5" font-family="Helvetica,sans-Serif" font-size="10.00">reorderableiconlayout.cpp</text>
</a>
</g>
<!-- Node6&#45;&gt;Node12 -->
<g id="edge24" class="edge"><title>Node6&#45;&gt;Node12</title>
<path fill="none" stroke="midnightblue" d="M907.775,-172.47C959.393,-162.038 1032.06,-147.354 1080.7,-137.523"/>
<polygon fill="midnightblue" stroke="midnightblue" points="906.854,-169.085 897.745,-174.497 908.24,-175.946 906.854,-169.085"/>
</g>
<!-- Node13 -->
<g id="node26" class="node"><title>Node13</title>
<a xlink:href="page_8cpp.htm" target="_top" xlink:title="page.cpp">
<polygon fill="white" stroke="black" points="853.772,-58.5 853.772,-79.5 913.772,-79.5 913.772,-58.5 853.772,-58.5"/>
<text text-anchor="middle" x="883.772" y="-66.5" font-family="Helvetica,sans-Serif" font-size="10.00">page.cpp</text>
</a>
</g>
<!-- Node6&#45;&gt;Node13 -->
<g id="edge26" class="edge"><title>Node6&#45;&gt;Node13</title>
<path fill="none" stroke="midnightblue" d="M872.585,-168.48C882.777,-160.632 893.254,-150.267 898.772,-138 907.521,-118.547 897.447,-93.6613 890.096,-79.7152"/>
<polygon fill="midnightblue" stroke="midnightblue" points="870.307,-165.806 864.206,-174.467 874.377,-171.501 870.307,-165.806"/>
</g>
<!-- Node14 -->
<g id="node28" class="node"><title>Node14</title>
<a xlink:href="pagemovement_8cpp.htm" target="_top" xlink:title="pagemovement.cpp">
<polygon fill="white" stroke="black" points="1219.27,-116.5 1219.27,-137.5 1328.27,-137.5 1328.27,-116.5 1219.27,-116.5"/>
<text text-anchor="middle" x="1273.77" y="-124.5" font-family="Helvetica,sans-Serif" font-size="10.00">pagemovement.cpp</text>
</a>
</g>
<!-- Node6&#45;&gt;Node14 -->
<g id="edge28" class="edge"><title>Node6&#45;&gt;Node14</title>
<path fill="none" stroke="midnightblue" d="M915.38,-176.977C988.921,-168.281 1108.21,-153.549 1210.77,-138 1213.52,-137.584 1216.33,-137.144 1219.16,-136.689"/>
<polygon fill="midnightblue" stroke="midnightblue" points="914.835,-173.517 905.314,-178.163 915.655,-180.469 914.835,-173.517"/>
</g>
<!-- Node15 -->
<g id="node30" class="node"><title>Node15</title>
<a xlink:href="reorderablepage_8cpp.htm" target="_top" xlink:title="reorderablepage.cpp">
<polygon fill="white" stroke="black" points="686.272,-58.5 686.272,-79.5 801.272,-79.5 801.272,-58.5 686.272,-58.5"/>
<text text-anchor="middle" x="743.772" y="-66.5" font-family="Helvetica,sans-Serif" font-size="10.00">reorderablepage.cpp</text>
</a>
</g>
<!-- Node6&#45;&gt;Node15 -->
<g id="edge30" class="edge"><title>Node6&#45;&gt;Node15</title>
<path fill="none" stroke="midnightblue" d="M824.008,-167.649C813.999,-159.194 802.269,-148.583 792.772,-138 775.696,-118.974 759.196,-93.9351 750.377,-79.8467"/>
<polygon fill="midnightblue" stroke="midnightblue" points="821.987,-170.519 831.923,-174.196 826.448,-165.125 821.987,-170.519"/>
</g>
<!-- Node16 -->
<g id="node32" class="node"><title>Node16</title>
<a xlink:href="overlaylayer_8cpp.htm" target="_top" xlink:title="overlaylayer.cpp">
<polygon fill="white" stroke="black" points="1345.77,-116.5 1345.77,-137.5 1439.77,-137.5 1439.77,-116.5 1345.77,-116.5"/>
<text text-anchor="middle" x="1392.77" y="-124.5" font-family="Helvetica,sans-Serif" font-size="10.00">overlaylayer.cpp</text>
</a>
</g>
<!-- Node6&#45;&gt;Node16 -->
<g id="edge32" class="edge"><title>Node6&#45;&gt;Node16</title>
<path fill="none" stroke="midnightblue" d="M915.429,-180.503C1010.83,-173.849 1187.36,-159.772 1336.77,-138 1339.61,-137.586 1342.53,-137.124 1345.47,-136.631"/>
<polygon fill="midnightblue" stroke="midnightblue" points="915.064,-177.02 905.329,-181.2 915.546,-184.003 915.064,-177.02"/>
</g>
<!-- Node17 -->
<g id="node34" class="node"><title>Node17</title>
<a xlink:href="vcamera_8cpp.htm" target="_top" xlink:title="vcamera.cpp">
<polygon fill="white" stroke="black" points="1457.27,-116.5 1457.27,-137.5 1534.27,-137.5 1534.27,-116.5 1457.27,-116.5"/>
<text text-anchor="middle" x="1495.77" y="-124.5" font-family="Helvetica,sans-Serif" font-size="10.00">vcamera.cpp</text>
</a>
</g>
<!-- Node6&#45;&gt;Node17 -->
<g id="edge34" class="edge"><title>Node6&#45;&gt;Node17</title>
<path fill="none" stroke="midnightblue" d="M915.826,-182.996C1028.65,-178.995 1257.34,-167.686 1448.77,-138 1451.5,-137.576 1454.31,-137.079 1457.13,-136.534"/>
<polygon fill="midnightblue" stroke="midnightblue" points="915.476,-179.506 905.603,-183.35 915.718,-186.502 915.476,-179.506"/>
</g>
<!-- Node18 -->
<g id="node36" class="node"><title>Node18</title>
<a xlink:href="groupanchoritem_8cpp.htm" target="_top" xlink:title="groupanchoritem.cpp">
<polygon fill="white" stroke="black" points="629.772,-116.5 629.772,-137.5 745.772,-137.5 745.772,-116.5 629.772,-116.5"/>
<text text-anchor="middle" x="687.772" y="-124.5" font-family="Helvetica,sans-Serif" font-size="10.00">groupanchoritem.cpp</text>
</a>
</g>
<!-- Node6&#45;&gt;Node18 -->
<g id="edge36" class="edge"><title>Node6&#45;&gt;Node18</title>
<path fill="none" stroke="midnightblue" d="M807.659,-171.009C779.581,-160.702 741.99,-146.903 716.438,-137.523"/>
<polygon fill="midnightblue" stroke="midnightblue" points="806.565,-174.336 817.159,-174.497 808.978,-167.765 806.565,-174.336"/>
</g>
<!-- Node6&#45;&gt;Node19 -->
<g id="edge40" class="edge"><title>Node6&#45;&gt;Node19</title>
<path fill="none" stroke="midnightblue" d="M915.863,-183.356C1046.25,-179.663 1334.72,-168.5 1575.77,-138 1580.14,-137.447 1584.68,-136.769 1589.21,-136.024"/>
<polygon fill="midnightblue" stroke="midnightblue" points="915.521,-179.864 905.622,-183.64 915.715,-186.862 915.521,-179.864"/>
</g>
<!-- Node6&#45;&gt;Node20 -->
<g id="edge42" class="edge"><title>Node6&#45;&gt;Node20</title>
<path fill="none" stroke="midnightblue" d="M776.056,-181.063C674.781,-174.831 481.209,-160.984 317.772,-138 313.28,-137.368 308.607,-136.619 303.954,-135.813"/>
<polygon fill="midnightblue" stroke="midnightblue" points="775.964,-184.564 786.159,-181.679 776.39,-177.577 775.964,-184.564"/>
</g>
<!-- Node21&#45;&gt;Node9 -->
<g id="edge80" class="edge"><title>Node21&#45;&gt;Node9</title>
<path fill="none" stroke="midnightblue" d="M356.817,-165.727C346.195,-150.899 330.125,-130.551 312.772,-116 294.753,-100.891 271.187,-88.0827 253.771,-79.6715"/>
<polygon fill="midnightblue" stroke="midnightblue" points="354.098,-167.946 362.69,-174.144 359.839,-163.941 354.098,-167.946"/>
</g>
<!-- Node21&#45;&gt;Node15 -->
<g id="edge82" class="edge"><title>Node21&#45;&gt;Node15</title>
<path fill="none" stroke="midnightblue" d="M422.419,-171.906C457.307,-162.973 503.991,-150.529 544.772,-138 606.116,-119.154 676.876,-93.7191 715.312,-79.5868"/>
<polygon fill="midnightblue" stroke="midnightblue" points="421.275,-168.586 412.449,-174.446 423.003,-175.369 421.275,-168.586"/>
</g>
<!-- Node21&#45;&gt;Node20 -->
<g id="edge84" class="edge"><title>Node21&#45;&gt;Node20</title>
<path fill="none" stroke="midnightblue" d="M341.195,-169.794C322.177,-159.675 297.67,-146.634 280.732,-137.621"/>
<polygon fill="midnightblue" stroke="midnightblue" points="339.56,-172.889 350.033,-174.497 342.849,-166.709 339.56,-172.889"/>
</g>
<!-- Node22 -->
<g id="node46" class="node"><title>Node22</title>
<a xlink:href="dimensionsmain_8h.htm" target="_top" xlink:title="dimensionsmain.h">
<polygon fill="white" stroke="black" points="435.272,-116.5 435.272,-137.5 536.272,-137.5 536.272,-116.5 435.272,-116.5"/>
<text text-anchor="middle" x="485.772" y="-124.5" font-family="Helvetica,sans-Serif" font-size="10.00">dimensionsmain.h</text>
</a>
</g>
<!-- Node21&#45;&gt;Node22 -->
<g id="edge48" class="edge"><title>Node21&#45;&gt;Node22</title>
<path fill="none" stroke="midnightblue" d="M399.908,-169.932C420.185,-159.793 446.422,-146.675 464.529,-137.621"/>
<polygon fill="midnightblue" stroke="midnightblue" points="398.157,-166.894 390.778,-174.497 401.288,-173.155 398.157,-166.894"/>
</g>
<!-- Node22&#45;&gt;Node2 -->
<g id="edge52" class="edge"><title>Node22&#45;&gt;Node2</title>
<path fill="none" stroke="midnightblue" d="M424.606,-118.305C348.938,-107.548 220.641,-89.3099 143.1,-78.2869"/>
<polygon fill="midnightblue" stroke="midnightblue" points="424.53,-121.829 434.923,-119.772 425.515,-114.899 424.53,-121.829"/>
</g>
<!-- Node22&#45;&gt;Node5 -->
<g id="edge50" class="edge"><title>Node22&#45;&gt;Node5</title>
<path fill="none" stroke="midnightblue" d="M431.086,-113.865C400.645,-105.731 362.419,-94.1399 329.772,-80 311.864,-72.2441 309.206,-66.7676 291.772,-58 264.339,-44.2048 231.915,-30.5463 209.603,-21.5387"/>
<polygon fill="midnightblue" stroke="midnightblue" points="430.531,-117.337 441.091,-116.489 432.307,-110.567 430.531,-117.337"/>
</g>
<!-- Node22&#45;&gt;Node7 -->
<g id="edge54" class="edge"><title>Node22&#45;&gt;Node7</title>
<path fill="none" stroke="midnightblue" d="M512.371,-111.387C546.798,-91.1879 602.561,-58.5026 603.772,-58 643.473,-41.5115 690.591,-29.3752 726.373,-21.5692"/>
<polygon fill="midnightblue" stroke="midnightblue" points="510.561,-108.391 503.707,-116.471 514.103,-114.429 510.561,-108.391"/>
</g>
<!-- Node22&#45;&gt;Node9 -->
<g id="edge68" class="edge"><title>Node22&#45;&gt;Node9</title>
<path fill="none" stroke="midnightblue" d="M429.6,-114.274C383.614,-103.855 319.337,-89.2921 276.218,-79.5231"/>
<polygon fill="midnightblue" stroke="midnightblue" points="428.886,-117.7 439.412,-116.497 430.432,-110.873 428.886,-117.7"/>
</g>
<!-- Node22&#45;&gt;Node10 -->
<g id="edge70" class="edge"><title>Node22&#45;&gt;Node10</title>
<path fill="none" stroke="midnightblue" d="M523.521,-112.874C551.027,-102.582 587.692,-88.862 612.65,-79.5231"/>
<polygon fill="midnightblue" stroke="midnightblue" points="521.98,-109.714 513.841,-116.497 524.433,-116.27 521.98,-109.714"/>
</g>
<!-- Node22&#45;&gt;Node13 -->
<g id="edge72" class="edge"><title>Node22&#45;&gt;Node13</title>
<path fill="none" stroke="midnightblue" d="M546.373,-118.274C611.472,-108.885 717.958,-93.4832 809.772,-80 824.164,-77.8864 840.127,-75.5167 853.532,-73.5196"/>
<polygon fill="midnightblue" stroke="midnightblue" points="545.687,-114.837 536.288,-119.728 546.686,-121.765 545.687,-114.837"/>
</g>
<!-- Node22&#45;&gt;Node15 -->
<g id="edge74" class="edge"><title>Node22&#45;&gt;Node15</title>
<path fill="none" stroke="midnightblue" d="M542.382,-114.274C588.728,-103.855 653.507,-89.2921 696.962,-79.5231"/>
<polygon fill="midnightblue" stroke="midnightblue" points="541.482,-110.888 532.493,-116.497 543.018,-117.718 541.482,-110.888"/>
</g>
<!-- Node23 -->
<g id="node51" class="node"><title>Node23</title>
<a xlink:href="OverlayWindowManager_8h.htm" target="_top" xlink:title="OverlayWindowManager.h">
<polygon fill="white" stroke="black" points="414.772,-58.5 414.772,-79.5 556.772,-79.5 556.772,-58.5 414.772,-58.5"/>
<text text-anchor="middle" x="485.772" y="-66.5" font-family="Helvetica,sans-Serif" font-size="10.00">OverlayWindowManager.h</text>
</a>
</g>
<!-- Node22&#45;&gt;Node23 -->
<g id="edge56" class="edge"><title>Node22&#45;&gt;Node23</title>
<path fill="none" stroke="midnightblue" d="M485.772,-106.191C485.772,-97.1684 485.772,-86.9941 485.772,-79.5707"/>
<polygon fill="midnightblue" stroke="midnightblue" points="482.272,-106.362 485.772,-116.362 489.272,-106.362 482.272,-106.362"/>
</g>
<!-- Node22&#45;&gt;Node27 -->
<g id="edge76" class="edge"><title>Node22&#45;&gt;Node27</title>
<path fill="none" stroke="midnightblue" d="M546.447,-121.562C569.682,-119.61 596.443,-117.518 620.772,-116 1022.06,-90.9686 1507.68,-75.0265 1658.68,-70.4001"/>
<polygon fill="midnightblue" stroke="midnightblue" points="546.051,-118.083 536.383,-122.418 546.644,-125.058 546.051,-118.083"/>
</g>
<!-- Node28 -->
<g id="node67" class="node"><title>Node28</title>
<a xlink:href="thing_8cpp.htm" target="_top" xlink:title="thing.cpp">
<polygon fill="white" stroke="black" points="338.272,-58.5 338.272,-79.5 397.272,-79.5 397.272,-58.5 338.272,-58.5"/>
<text text-anchor="middle" x="367.772" y="-66.5" font-family="Helvetica,sans-Serif" font-size="10.00">thing.cpp</text>
</a>
</g>
<!-- Node22&#45;&gt;Node28 -->
<g id="edge78" class="edge"><title>Node22&#45;&gt;Node28</title>
<path fill="none" stroke="midnightblue" d="M455.395,-112.069C434.731,-101.912 407.883,-88.7157 389.38,-79.6212"/>
<polygon fill="midnightblue" stroke="midnightblue" points="453.884,-115.226 464.403,-116.497 456.972,-108.944 453.884,-115.226"/>
</g>
<!-- Node23&#45;&gt;Node5 -->
<g id="edge58" class="edge"><title>Node23&#45;&gt;Node5</title>
<path fill="none" stroke="midnightblue" d="M420.992,-56.5999C366.456,-46.1607 289.315,-31.3945 237.746,-21.5231"/>
<polygon fill="midnightblue" stroke="midnightblue" points="420.421,-60.0541 430.901,-58.4966 421.737,-53.1789 420.421,-60.0541"/>
</g>
<!-- Node23&#45;&gt;Node7 -->
<g id="edge62" class="edge"><title>Node23&#45;&gt;Node7</title>
<path fill="none" stroke="midnightblue" d="M549.387,-56.5349C602.644,-46.0994 677.794,-31.374 728.068,-21.5231"/>
<polygon fill="midnightblue" stroke="midnightblue" points="548.515,-53.139 539.375,-58.4966 549.861,-60.0084 548.515,-53.139"/>
</g>
<!-- Node24 -->
<g id="node54" class="node"><title>Node24</title>
<a xlink:href="SystemUiController_8cpp.htm" target="_top" xlink:title="SystemUiController.cpp">
<polygon fill="white" stroke="black" points="265.272,-0.5 265.272,-21.5 392.272,-21.5 392.272,-0.5 265.272,-0.5"/>
<text text-anchor="middle" x="328.772" y="-8.5" font-family="Helvetica,sans-Serif" font-size="10.00">SystemUiController.cpp</text>
</a>
</g>
<!-- Node23&#45;&gt;Node24 -->
<g id="edge60" class="edge"><title>Node23&#45;&gt;Node24</title>
<path fill="none" stroke="midnightblue" d="M447.901,-55.0095C420,-44.7023 382.647,-30.903 357.256,-21.5231"/>
<polygon fill="midnightblue" stroke="midnightblue" points="446.747,-58.3143 457.34,-58.4966 449.173,-51.7481 446.747,-58.3143"/>
</g>
<!-- Node25 -->
<g id="node57" class="node"><title>Node25</title>
<a xlink:href="OverlayWindowManager_8cpp.htm" target="_top" xlink:title="OverlayWindowManager.cpp">
<polygon fill="white" stroke="black" points="409.272,-0.5 409.272,-21.5 562.272,-21.5 562.272,-0.5 409.272,-0.5"/>
<text text-anchor="middle" x="485.772" y="-8.5" font-family="Helvetica,sans-Serif" font-size="10.00">OverlayWindowManager.cpp</text>
</a>
</g>
<!-- Node23&#45;&gt;Node25 -->
<g id="edge64" class="edge"><title>Node23&#45;&gt;Node25</title>
<path fill="none" stroke="midnightblue" d="M485.772,-48.1906C485.772,-39.1684 485.772,-28.9941 485.772,-21.5707"/>
<polygon fill="midnightblue" stroke="midnightblue" points="482.272,-48.3619 485.772,-58.3619 489.272,-48.3619 482.272,-48.3619"/>
</g>
<!-- Node26 -->
<g id="node59" class="node"><title>Node26</title>
<a xlink:href="WindowServerLuna_8cpp.htm" target="_top" xlink:title="WindowServerLuna.cpp">
<polygon fill="white" stroke="black" points="579.772,-0.5 579.772,-21.5 707.772,-21.5 707.772,-0.5 579.772,-0.5"/>
<text text-anchor="middle" x="643.772" y="-8.5" font-family="Helvetica,sans-Serif" font-size="10.00">WindowServerLuna.cpp</text>
</a>
</g>
<!-- Node23&#45;&gt;Node26 -->
<g id="edge66" class="edge"><title>Node23&#45;&gt;Node26</title>
<path fill="none" stroke="midnightblue" d="M523.884,-55.0095C551.962,-44.7023 589.553,-30.903 615.105,-21.5231"/>
<polygon fill="midnightblue" stroke="midnightblue" points="522.566,-51.7649 514.384,-58.4966 524.978,-58.3362 522.566,-51.7649"/>
</g>
</g>
</svg>
