<?xml version="1.0" encoding="UTF-8" standalone="no"?>
<!DOCTYPE svg PUBLIC "-//W3C//DTD SVG 1.1//EN"
 "http://www.w3.org/Graphics/SVG/1.1/DTD/svg11.dtd">
<!-- Generated by graphviz version 2.26.3 (20100126.1600)
 -->
<!-- Title: WindowContentTransitionRunner.cpp Pages: 1 -->
<svg width="924pt" height="146pt"
 viewBox="0.00 0.00 923.78 146.00" xmlns="http://www.w3.org/2000/svg" xmlns:xlink="http://www.w3.org/1999/xlink">
<g id="graph1" class="graph" transform="scale(1 1) rotate(0) translate(4 142)">
<title>WindowContentTransitionRunner.cpp</title>
<polygon fill="white" stroke="white" points="-4,5 -4,-142 920.777,-142 920.777,5 -4,5"/>
<!-- Node1 -->
<g id="node1" class="node"><title>Node1</title>
<polygon fill="#bfbfbf" stroke="black" points="254.277,-116.5 254.277,-137.5 447.277,-137.5 447.277,-116.5 254.277,-116.5"/>
<text text-anchor="middle" x="350.777" y="-124.5" font-family="Helvetica,sans-Serif" font-size="10.00">WindowContentTransitionRunner.cpp</text>
</g>
<!-- Node2 -->
<g id="node3" class="node"><title>Node2</title>
<polygon fill="white" stroke="#bfbfbf" points="221.277,-0.5 221.277,-21.5 288.277,-21.5 288.277,-0.5 221.277,-0.5"/>
<text text-anchor="middle" x="254.777" y="-8.5" font-family="Helvetica,sans-Serif" font-size="10.00">Common.h</text>
</g>
<!-- Node1&#45;&gt;Node2 -->
<g id="edge2" class="edge"><title>Node1&#45;&gt;Node2</title>
<path fill="none" stroke="midnightblue" d="M253.843,-120.3C157.272,-112.616 21.0511,-98.6348 4.77656,-80 -1.65525,-72.6354 -1.46606,-65.5256 4.77656,-58 30.484,-27.0092 146.411,-16.3214 210.988,-12.7369"/>
<polygon fill="midnightblue" stroke="midnightblue" points="211.467,-16.2168 221.271,-12.202 211.103,-9.22624 211.467,-16.2168"/>
</g>
<!-- Node3 -->
<g id="node5" class="node"><title>Node3</title>
<polygon fill="white" stroke="#bfbfbf" points="13.7766,-58.5 13.7766,-79.5 89.7766,-79.5 89.7766,-58.5 13.7766,-58.5"/>
<text text-anchor="middle" x="51.7766" y="-66.5" font-family="Helvetica,sans-Serif" font-size="10.00">PGSurface.h</text>
</g>
<!-- Node1&#45;&gt;Node3 -->
<g id="edge4" class="edge"><title>Node1&#45;&gt;Node3</title>
<path fill="none" stroke="midnightblue" d="M290.031,-116.47C241.19,-107.821 170.579,-94.9081 99.9305,-80.1806"/>
<polygon fill="midnightblue" stroke="midnightblue" points="100.469,-76.7175 89.9637,-78.0907 99.0326,-83.5685 100.469,-76.7175"/>
</g>
<!-- Node4 -->
<g id="node7" class="node"><title>Node4</title>
<polygon fill="white" stroke="#bfbfbf" points="107.277,-58.5 107.277,-79.5 184.277,-79.5 184.277,-58.5 107.277,-58.5"/>
<text text-anchor="middle" x="145.777" y="-66.5" font-family="Helvetica,sans-Serif" font-size="10.00">PGContext.h</text>
</g>
<!-- Node1&#45;&gt;Node4 -->
<g id="edge6" class="edge"><title>Node1&#45;&gt;Node4</title>
<path fill="none" stroke="midnightblue" d="M313.653,-116.497C279.798,-106.918 229.613,-92.7196 192.933,-82.3418"/>
<polygon fill="midnightblue" stroke="midnightblue" points="193.545,-78.8777 182.97,-79.5231 191.64,-85.6133 193.545,-78.8777"/>
</g>
<!-- Node5 -->
<g id="node9" class="node"><title>Node5</title>
<polygon fill="white" stroke="#bfbfbf" points="201.777,-58.5 201.777,-79.5 289.777,-79.5 289.777,-58.5 201.777,-58.5"/>
<text text-anchor="middle" x="245.777" y="-66.5" font-family="Helvetica,sans-Serif" font-size="10.00">CardWebApp.h</text>
</g>
<!-- Node1&#45;&gt;Node5 -->
<g id="edge8" class="edge"><title>Node1&#45;&gt;Node5</title>
<path fill="none" stroke="midnightblue" d="M331.518,-116.362C315.311,-107.409 291.924,-94.4908 273.667,-84.4064"/>
<polygon fill="midnightblue" stroke="midnightblue" points="275.359,-81.3422 264.913,-79.5707 271.974,-87.4696 275.359,-81.3422"/>
</g>
<!-- Node6 -->
<g id="node11" class="node"><title>Node6</title>
<polygon fill="white" stroke="#bfbfbf" points="307.777,-58.5 307.777,-79.5 393.777,-79.5 393.777,-58.5 307.777,-58.5"/>
<text text-anchor="middle" x="350.777" y="-66.5" font-family="Helvetica,sans-Serif" font-size="10.00">PIpcChannel.h</text>
</g>
<!-- Node1&#45;&gt;Node6 -->
<g id="edge10" class="edge"><title>Node1&#45;&gt;Node6</title>
<path fill="none" stroke="midnightblue" d="M350.777,-116.362C350.777,-108.922 350.777,-98.7427 350.777,-89.7276"/>
<polygon fill="midnightblue" stroke="midnightblue" points="354.277,-89.5706 350.777,-79.5707 347.277,-89.5707 354.277,-89.5706"/>
</g>
<!-- Node7 -->
<g id="node13" class="node"><title>Node7</title>
<polygon fill="white" stroke="#bfbfbf" points="411.777,-58.5 411.777,-79.5 485.777,-79.5 485.777,-58.5 411.777,-58.5"/>
<text text-anchor="middle" x="448.777" y="-66.5" font-family="Helvetica,sans-Serif" font-size="10.00">PIpcBuffer.h</text>
</g>
<!-- Node1&#45;&gt;Node7 -->
<g id="edge12" class="edge"><title>Node1&#45;&gt;Node7</title>
<path fill="none" stroke="midnightblue" d="M368.751,-116.362C383.671,-107.532 405.109,-94.844 422.042,-84.8224"/>
<polygon fill="midnightblue" stroke="midnightblue" points="424.093,-87.6759 430.916,-79.5707 420.527,-81.6519 424.093,-87.6759"/>
</g>
<!-- Node8 -->
<g id="node15" class="node"><title>Node8</title>
<a xlink:href="WindowContentTransitionRunner_8h.htm" target="_top" xlink:title="WindowContentTransitionRunner.h">
<polygon fill="white" stroke="black" points="503.777,-58.5 503.777,-79.5 685.777,-79.5 685.777,-58.5 503.777,-58.5"/>
<text text-anchor="middle" x="594.777" y="-66.5" font-family="Helvetica,sans-Serif" font-size="10.00">WindowContentTransitionRunner.h</text>
</a>
</g>
<!-- Node1&#45;&gt;Node8 -->
<g id="edge14" class="edge"><title>Node1&#45;&gt;Node8</title>
<path fill="none" stroke="midnightblue" d="M394.963,-116.497C435.861,-106.775 496.782,-92.2938 540.597,-81.8787"/>
<polygon fill="midnightblue" stroke="midnightblue" points="541.588,-85.2409 550.507,-79.5231 539.969,-78.4306 541.588,-85.2409"/>
</g>
<!-- Node10 -->
<g id="node20" class="node"><title>Node10</title>
<polygon fill="white" stroke="#bfbfbf" points="703.277,-58.5 703.277,-79.5 774.277,-79.5 774.277,-58.5 703.277,-58.5"/>
<text text-anchor="middle" x="738.777" y="-66.5" font-family="Helvetica,sans-Serif" font-size="10.00">SyncTask.h</text>
</g>
<!-- Node1&#45;&gt;Node10 -->
<g id="edge20" class="edge"><title>Node1&#45;&gt;Node10</title>
<path fill="none" stroke="midnightblue" d="M447.619,-116.631C514.301,-108.821 605.074,-96.8709 692.959,-80.2191"/>
<polygon fill="midnightblue" stroke="midnightblue" points="693.667,-83.6471 702.829,-78.3265 692.349,-76.7724 693.667,-83.6471"/>
</g>
<!-- Node11 -->
<g id="node22" class="node"><title>Node11</title>
<polygon fill="white" stroke="#bfbfbf" points="791.277,-58.5 791.277,-79.5 916.277,-79.5 916.277,-58.5 791.277,-58.5"/>
<text text-anchor="middle" x="853.777" y="-66.5" font-family="Helvetica,sans-Serif" font-size="10.00">PIpcMessageMacros.h</text>
</g>
<!-- Node1&#45;&gt;Node11 -->
<g id="edge22" class="edge"><title>Node1&#45;&gt;Node11</title>
<path fill="none" stroke="midnightblue" d="M447.438,-117.749C532.692,-109.298 660.555,-95.9126 780.944,-80.2019"/>
<polygon fill="midnightblue" stroke="midnightblue" points="781.62,-83.6434 791.079,-78.8715 780.708,-76.703 781.62,-83.6434"/>
</g>
<!-- Node8&#45;&gt;Node2 -->
<g id="edge16" class="edge"><title>Node8&#45;&gt;Node2</title>
<path fill="none" stroke="midnightblue" d="M533.205,-58.4966C465.508,-46.9483 358.44,-28.6837 298.724,-18.497"/>
<polygon fill="midnightblue" stroke="midnightblue" points="298.945,-14.9842 288.499,-16.7527 297.768,-21.8845 298.945,-14.9842"/>
</g>
<!-- Node9 -->
<g id="node18" class="node"><title>Node9</title>
<polygon fill="white" stroke="#bfbfbf" points="574.277,-0.5 574.277,-21.5 615.277,-21.5 615.277,-0.5 574.277,-0.5"/>
<text text-anchor="middle" x="594.777" y="-8.5" font-family="Helvetica,sans-Serif" font-size="10.00">glib.h</text>
</g>
<!-- Node8&#45;&gt;Node9 -->
<g id="edge18" class="edge"><title>Node8&#45;&gt;Node9</title>
<path fill="none" stroke="midnightblue" d="M594.777,-58.3619C594.777,-50.9219 594.777,-40.7427 594.777,-31.7276"/>
<polygon fill="midnightblue" stroke="midnightblue" points="598.277,-31.5706 594.777,-21.5707 591.277,-31.5707 598.277,-31.5706"/>
</g>
</g>
</svg>
