<?xml version="1.0" encoding="UTF-8" standalone="no"?>
<!DOCTYPE svg PUBLIC "-//W3C//DTD SVG 1.1//EN"
 "http://www.w3.org/Graphics/SVG/1.1/DTD/svg11.dtd">
<!-- Generated by graphviz version 2.26.3 (20100126.1600)
 -->
<!-- Title: WindowManagerMinimal.h Pages: 1 -->
<svg width="1205pt" height="204pt"
 viewBox="0.00 0.00 1205.00 204.00" xmlns="http://www.w3.org/2000/svg" xmlns:xlink="http://www.w3.org/1999/xlink">
<g id="graph1" class="graph" transform="scale(1 1) rotate(0) translate(4 200)">
<title>WindowManagerMinimal.h</title>
<polygon fill="white" stroke="white" points="-4,5 -4,-200 1202,-200 1202,5 -4,5"/>
<!-- Node1 -->
<g id="node1" class="node"><title>Node1</title>
<polygon fill="#bfbfbf" stroke="black" points="526.5,-174.5 526.5,-195.5 667.5,-195.5 667.5,-174.5 526.5,-174.5"/>
<text text-anchor="middle" x="597" y="-182.5" font-family="Helvetica,sans-Serif" font-size="10.00">WindowManagerMinimal.h</text>
</g>
<!-- Node2 -->
<g id="node3" class="node"><title>Node2</title>
<polygon fill="white" stroke="#bfbfbf" points="290.5,-0.5 290.5,-21.5 357.5,-21.5 357.5,-0.5 290.5,-0.5"/>
<text text-anchor="middle" x="324" y="-8.5" font-family="Helvetica,sans-Serif" font-size="10.00">Common.h</text>
</g>
<!-- Node1&#45;&gt;Node2 -->
<g id="edge2" class="edge"><title>Node1&#45;&gt;Node2</title>
<path fill="none" stroke="midnightblue" d="M572.379,-174.427C533.747,-157.304 457.289,-121.234 399,-80 377.55,-64.8264 355.749,-44.0387 341.221,-29.2559"/>
<polygon fill="midnightblue" stroke="midnightblue" points="343.415,-26.4898 333.947,-21.7348 338.383,-31.3562 343.415,-26.4898"/>
</g>
<!-- Node3 -->
<g id="node5" class="node"><title>Node3</title>
<polygon fill="white" stroke="#bfbfbf" points="744.5,-116.5 744.5,-137.5 785.5,-137.5 785.5,-116.5 744.5,-116.5"/>
<text text-anchor="middle" x="765" y="-124.5" font-family="Helvetica,sans-Serif" font-size="10.00">QList</text>
</g>
<!-- Node1&#45;&gt;Node3 -->
<g id="edge4" class="edge"><title>Node1&#45;&gt;Node3</title>
<path fill="none" stroke="midnightblue" d="M629.415,-174.411C655.619,-165.769 693.672,-153.035 734.781,-138.367"/>
<polygon fill="midnightblue" stroke="midnightblue" points="736.207,-141.574 744.439,-134.905 733.845,-134.985 736.207,-141.574"/>
</g>
<!-- Node4 -->
<g id="node7" class="node"><title>Node4</title>
<a xlink:href="WindowManagerBase_8h.htm" target="_top" xlink:title="WindowManagerBase.h">
<polygon fill="white" stroke="black" points="171.5,-116.5 171.5,-137.5 300.5,-137.5 300.5,-116.5 171.5,-116.5"/>
<text text-anchor="middle" x="236" y="-124.5" font-family="Helvetica,sans-Serif" font-size="10.00">WindowManagerBase.h</text>
</a>
</g>
<!-- Node1&#45;&gt;Node4 -->
<g id="edge6" class="edge"><title>Node1&#45;&gt;Node4</title>
<path fill="none" stroke="midnightblue" d="M531.626,-174.497C469.426,-164.503 375.924,-149.481 310.786,-139.015"/>
<polygon fill="midnightblue" stroke="midnightblue" points="311.013,-135.507 300.584,-137.376 309.902,-142.418 311.013,-135.507"/>
</g>
<!-- Node10 -->
<g id="node21" class="node"><title>Node10</title>
<a xlink:href="GraphicsItemContainer_8h.htm" target="_top" xlink:title="GraphicsItemContainer.h">
<polygon fill="white" stroke="black" points="530,-58.5 530,-79.5 664,-79.5 664,-58.5 530,-58.5"/>
<text text-anchor="middle" x="597" y="-66.5" font-family="Helvetica,sans-Serif" font-size="10.00">GraphicsItemContainer.h</text>
</a>
</g>
<!-- Node1&#45;&gt;Node10 -->
<g id="edge22" class="edge"><title>Node1&#45;&gt;Node10</title>
<path fill="none" stroke="midnightblue" d="M597,-174.295C597,-155.131 597,-114.654 597,-89.8434"/>
<polygon fill="midnightblue" stroke="midnightblue" points="600.5,-89.6792 597,-79.6792 593.5,-89.6792 600.5,-89.6792"/>
</g>
<!-- Node14 -->
<g id="node30" class="node"><title>Node14</title>
<a xlink:href="StatusBar_8h.htm" target="_top" xlink:title="StatusBar.h">
<polygon fill="white" stroke="black" points="656.5,-116.5 656.5,-137.5 727.5,-137.5 727.5,-116.5 656.5,-116.5"/>
<text text-anchor="middle" x="692" y="-124.5" font-family="Helvetica,sans-Serif" font-size="10.00">StatusBar.h</text>
</a>
</g>
<!-- Node1&#45;&gt;Node14 -->
<g id="edge32" class="edge"><title>Node1&#45;&gt;Node14</title>
<path fill="none" stroke="midnightblue" d="M614.424,-174.362C628.887,-165.532 649.669,-152.844 666.084,-142.822"/>
<polygon fill="midnightblue" stroke="midnightblue" points="667.975,-145.769 674.686,-137.571 664.327,-139.794 667.975,-145.769"/>
</g>
<!-- Node4&#45;&gt;Node2 -->
<g id="edge8" class="edge"><title>Node4&#45;&gt;Node2</title>
<path fill="none" stroke="midnightblue" d="M236.68,-116.208C238.07,-101.731 242.28,-75.7882 255,-58 264.384,-44.8762 278.653,-34.2792 291.785,-26.4929"/>
<polygon fill="midnightblue" stroke="midnightblue" points="293.598,-29.4889 300.62,-21.555 290.183,-23.3785 293.598,-29.4889"/>
</g>
<!-- Node5 -->
<g id="node10" class="node"><title>Node5</title>
<polygon fill="white" stroke="#bfbfbf" points="264,-58.5 264,-79.5 352,-79.5 352,-58.5 264,-58.5"/>
<text text-anchor="middle" x="308" y="-66.5" font-family="Helvetica,sans-Serif" font-size="10.00">QGraphicsItem</text>
</g>
<!-- Node4&#45;&gt;Node5 -->
<g id="edge10" class="edge"><title>Node4&#45;&gt;Node5</title>
<path fill="none" stroke="midnightblue" d="M249.206,-116.362C259.761,-107.859 274.758,-95.7785 286.963,-85.9466"/>
<polygon fill="midnightblue" stroke="midnightblue" points="289.286,-88.5696 294.878,-79.5707 284.895,-83.1183 289.286,-88.5696"/>
</g>
<!-- Node6 -->
<g id="node12" class="node"><title>Node6</title>
<polygon fill="white" stroke="#bfbfbf" points="149.5,-58.5 149.5,-79.5 208.5,-79.5 208.5,-58.5 149.5,-58.5"/>
<text text-anchor="middle" x="179" y="-66.5" font-family="Helvetica,sans-Serif" font-size="10.00">QPainter</text>
</g>
<!-- Node4&#45;&gt;Node6 -->
<g id="edge12" class="edge"><title>Node4&#45;&gt;Node6</title>
<path fill="none" stroke="midnightblue" d="M225.545,-116.362C217.43,-108.104 205.999,-96.4725 196.496,-86.8029"/>
<polygon fill="midnightblue" stroke="midnightblue" points="198.894,-84.2497 189.388,-79.5707 193.901,-89.1562 198.894,-84.2497"/>
</g>
<!-- Node7 -->
<g id="node14" class="node"><title>Node7</title>
<a xlink:href="UiNavigationController_8h.htm" target="_top" xlink:title="UiNavigationController.h">
<polygon fill="white" stroke="black" points="1.5,-58.5 1.5,-79.5 132.5,-79.5 132.5,-58.5 1.5,-58.5"/>
<text text-anchor="middle" x="67" y="-66.5" font-family="Helvetica,sans-Serif" font-size="10.00">UiNavigationController.h</text>
</a>
</g>
<!-- Node4&#45;&gt;Node7 -->
<g id="edge14" class="edge"><title>Node4&#45;&gt;Node7</title>
<path fill="none" stroke="midnightblue" d="M205.395,-116.497C177.963,-107.082 137.524,-93.2036 107.436,-82.8773"/>
<polygon fill="midnightblue" stroke="midnightblue" points="108.257,-79.4588 97.662,-79.5231 105.984,-86.0797 108.257,-79.4588"/>
</g>
<!-- Node7&#45;&gt;Node2 -->
<g id="edge16" class="edge"><title>Node7&#45;&gt;Node2</title>
<path fill="none" stroke="midnightblue" d="M113.541,-58.4966C161.012,-47.7834 234.094,-31.29 280.452,-20.8279"/>
<polygon fill="midnightblue" stroke="midnightblue" points="281.505,-24.1784 290.489,-18.5627 279.964,-17.3501 281.505,-24.1784"/>
</g>
<!-- Node8 -->
<g id="node17" class="node"><title>Node8</title>
<polygon fill="white" stroke="#bfbfbf" points="-0.5,-0.5 -0.5,-21.5 54.5,-21.5 54.5,-0.5 -0.5,-0.5"/>
<text text-anchor="middle" x="27" y="-8.5" font-family="Helvetica,sans-Serif" font-size="10.00">QObject</text>
</g>
<!-- Node7&#45;&gt;Node8 -->
<g id="edge18" class="edge"><title>Node7&#45;&gt;Node8</title>
<path fill="none" stroke="midnightblue" d="M59.6634,-58.3619C54.194,-50.4313 46.5783,-39.3885 40.0763,-29.9606"/>
<polygon fill="midnightblue" stroke="midnightblue" points="42.8487,-27.8157 34.2901,-21.5707 37.0862,-31.7899 42.8487,-27.8157"/>
</g>
<!-- Node9 -->
<g id="node19" class="node"><title>Node9</title>
<polygon fill="white" stroke="#bfbfbf" points="72,-0.5 72,-21.5 142,-21.5 142,-0.5 72,-0.5"/>
<text text-anchor="middle" x="107" y="-8.5" font-family="Helvetica,sans-Serif" font-size="10.00">QKeyEvent</text>
</g>
<!-- Node7&#45;&gt;Node9 -->
<g id="edge20" class="edge"><title>Node7&#45;&gt;Node9</title>
<path fill="none" stroke="midnightblue" d="M74.3366,-58.3619C79.806,-50.4313 87.4217,-39.3885 93.9237,-29.9606"/>
<polygon fill="midnightblue" stroke="midnightblue" points="96.9138,-31.7899 99.7099,-21.5707 91.1513,-27.8157 96.9138,-31.7899"/>
</g>
<!-- Node10&#45;&gt;Node2 -->
<g id="edge24" class="edge"><title>Node10&#45;&gt;Node2</title>
<path fill="none" stroke="midnightblue" d="M540.798,-58.4686C496.194,-49.9049 432.034,-37.1317 367.78,-22.3407"/>
<polygon fill="midnightblue" stroke="midnightblue" points="368.418,-18.8959 357.886,-20.0471 366.837,-25.7151 368.418,-18.8959"/>
</g>
<!-- Node11 -->
<g id="node24" class="node"><title>Node11</title>
<polygon fill="white" stroke="#bfbfbf" points="497,-0.5 497,-21.5 549,-21.5 549,-0.5 497,-0.5"/>
<text text-anchor="middle" x="523" y="-8.5" font-family="Helvetica,sans-Serif" font-size="10.00">QBrush</text>
</g>
<!-- Node10&#45;&gt;Node11 -->
<g id="edge26" class="edge"><title>Node10&#45;&gt;Node11</title>
<path fill="none" stroke="midnightblue" d="M583.427,-58.3619C572.579,-49.859 557.166,-37.7785 544.621,-27.9466"/>
<polygon fill="midnightblue" stroke="midnightblue" points="546.516,-24.9848 536.487,-21.5707 542.198,-30.4942 546.516,-24.9848"/>
</g>
<!-- Node12 -->
<g id="node26" class="node"><title>Node12</title>
<polygon fill="white" stroke="#bfbfbf" points="741,-0.5 741,-21.5 839,-21.5 839,-0.5 741,-0.5"/>
<text text-anchor="middle" x="790" y="-8.5" font-family="Helvetica,sans-Serif" font-size="10.00">QGraphicsObject</text>
</g>
<!-- Node10&#45;&gt;Node12 -->
<g id="edge28" class="edge"><title>Node10&#45;&gt;Node12</title>
<path fill="none" stroke="midnightblue" d="M631.951,-58.4966C663.687,-48.9592 710.668,-34.8408 745.161,-24.475"/>
<polygon fill="midnightblue" stroke="midnightblue" points="746.414,-27.7531 754.984,-21.5231 744.399,-21.0492 746.414,-27.7531"/>
</g>
<!-- Node13 -->
<g id="node28" class="node"><title>Node13</title>
<polygon fill="white" stroke="#bfbfbf" points="567,-0.5 567,-21.5 723,-21.5 723,-0.5 567,-0.5"/>
<text text-anchor="middle" x="645" y="-8.5" font-family="Helvetica,sans-Serif" font-size="10.00">QGraphicsSceneMouseEvent</text>
</g>
<!-- Node10&#45;&gt;Node13 -->
<g id="edge30" class="edge"><title>Node10&#45;&gt;Node13</title>
<path fill="none" stroke="midnightblue" d="M605.804,-58.3619C612.502,-50.2678 621.884,-38.9318 629.789,-29.3796"/>
<polygon fill="midnightblue" stroke="midnightblue" points="632.573,-31.5061 636.252,-21.5707 627.18,-27.0431 632.573,-31.5061"/>
</g>
<!-- Node14&#45;&gt;Node12 -->
<g id="edge52" class="edge"><title>Node14&#45;&gt;Node12</title>
<path fill="none" stroke="midnightblue" d="M692.522,-116.091C693.733,-101.482 697.741,-75.3902 711,-58 721.577,-44.127 737.525,-33.5321 752.329,-25.9452"/>
<polygon fill="midnightblue" stroke="midnightblue" points="753.848,-29.0985 761.341,-21.6076 750.812,-22.7911 753.848,-29.0985"/>
</g>
<!-- Node15 -->
<g id="node32" class="node"><title>Node15</title>
<a xlink:href="Window_8h.htm" target="_top" xlink:title="Window.h">
<polygon fill="white" stroke="black" points="906,-58.5 906,-79.5 968,-79.5 968,-58.5 906,-58.5"/>
<text text-anchor="middle" x="937" y="-66.5" font-family="Helvetica,sans-Serif" font-size="10.00">Window.h</text>
</a>
</g>
<!-- Node14&#45;&gt;Node15 -->
<g id="edge34" class="edge"><title>Node14&#45;&gt;Node15</title>
<path fill="none" stroke="midnightblue" d="M727.523,-118.038C730.389,-117.34 733.242,-116.653 736,-116 804.284,-99.8329 824.165,-97.8735 895.646,-80.2605"/>
<polygon fill="midnightblue" stroke="midnightblue" points="896.733,-83.597 905.595,-77.7908 895.046,-76.8032 896.733,-83.597"/>
</g>
<!-- Node21 -->
<g id="node46" class="node"><title>Node21</title>
<polygon fill="white" stroke="#bfbfbf" points="719.5,-58.5 719.5,-79.5 778.5,-79.5 778.5,-58.5 719.5,-58.5"/>
<text text-anchor="middle" x="749" y="-66.5" font-family="Helvetica,sans-Serif" font-size="10.00">QPointer</text>
</g>
<!-- Node14&#45;&gt;Node21 -->
<g id="edge50" class="edge"><title>Node14&#45;&gt;Node21</title>
<path fill="none" stroke="midnightblue" d="M702.455,-116.362C710.57,-108.104 722.001,-96.4725 731.504,-86.8029"/>
<polygon fill="midnightblue" stroke="midnightblue" points="734.099,-89.1562 738.612,-79.5707 729.106,-84.2497 734.099,-89.1562"/>
</g>
<!-- Node22 -->
<g id="node49" class="node"><title>Node22</title>
<a xlink:href="VariantAnimation_8h.htm" target="_top" xlink:title="VariantAnimation.h">
<polygon fill="white" stroke="black" points="407.5,-58.5 407.5,-79.5 512.5,-79.5 512.5,-58.5 407.5,-58.5"/>
<text text-anchor="middle" x="460" y="-66.5" font-family="Helvetica,sans-Serif" font-size="10.00">VariantAnimation.h</text>
</a>
</g>
<!-- Node14&#45;&gt;Node22 -->
<g id="edge54" class="edge"><title>Node14&#45;&gt;Node22</title>
<path fill="none" stroke="midnightblue" d="M656.258,-118.065C617.699,-108.425 555.932,-92.9829 511.996,-81.9991"/>
<polygon fill="midnightblue" stroke="midnightblue" points="512.624,-78.5483 502.073,-79.5183 510.926,-85.3393 512.624,-78.5483"/>
</g>
<!-- Node24 -->
<g id="node54" class="node"><title>Node24</title>
<polygon fill="white" stroke="#bfbfbf" points="796,-58.5 796,-79.5 888,-79.5 888,-58.5 796,-58.5"/>
<text text-anchor="middle" x="842" y="-66.5" font-family="Helvetica,sans-Serif" font-size="10.00">CustomEvents.h</text>
</g>
<!-- Node14&#45;&gt;Node24 -->
<g id="edge60" class="edge"><title>Node14&#45;&gt;Node24</title>
<path fill="none" stroke="midnightblue" d="M719.164,-116.497C743.3,-107.164 778.781,-93.4447 805.412,-83.1475"/>
<polygon fill="midnightblue" stroke="midnightblue" points="806.72,-86.394 814.785,-79.5231 804.196,-79.8651 806.72,-86.394"/>
</g>
<!-- Node15&#45;&gt;Node2 -->
<g id="edge36" class="edge"><title>Node15&#45;&gt;Node2</title>
<path fill="none" stroke="midnightblue" d="M905.691,-59.7507C902.77,-59.0816 899.84,-58.4818 897,-58 667.092,-19.0009 601.304,-58.9697 367.968,-22.0771"/>
<polygon fill="midnightblue" stroke="midnightblue" points="368.238,-18.5756 357.808,-20.4394 367.124,-25.4864 368.238,-18.5756"/>
</g>
<!-- Node15&#45;&gt;Node12 -->
<g id="edge46" class="edge"><title>Node15&#45;&gt;Node12</title>
<path fill="none" stroke="midnightblue" d="M910.379,-58.4966C886.903,-49.2337 852.475,-35.6499 826.444,-25.3793"/>
<polygon fill="midnightblue" stroke="midnightblue" points="827.506,-22.0358 816.919,-21.6212 824.937,-28.5473 827.506,-22.0358"/>
</g>
<!-- Node16 -->
<g id="node35" class="node"><title>Node16</title>
<polygon fill="white" stroke="#bfbfbf" points="1037,-0.5 1037,-21.5 1129,-21.5 1129,-0.5 1037,-0.5"/>
<text text-anchor="middle" x="1083" y="-8.5" font-family="Helvetica,sans-Serif" font-size="10.00">WindowTypes.h</text>
</g>
<!-- Node15&#45;&gt;Node16 -->
<g id="edge38" class="edge"><title>Node15&#45;&gt;Node16</title>
<path fill="none" stroke="midnightblue" d="M963.439,-58.4966C986.756,-49.2337 1020.95,-35.6499 1046.8,-25.3793"/>
<polygon fill="midnightblue" stroke="midnightblue" points="1048.26,-28.566 1056.26,-21.6212 1045.68,-22.0605 1048.26,-28.566"/>
</g>
<!-- Node17 -->
<g id="node37" class="node"><title>Node17</title>
<polygon fill="white" stroke="#bfbfbf" points="1147,-0.5 1147,-21.5 1197,-21.5 1197,-0.5 1147,-0.5"/>
<text text-anchor="middle" x="1172" y="-8.5" font-family="Helvetica,sans-Serif" font-size="10.00">stdint.h</text>
</g>
<!-- Node15&#45;&gt;Node17 -->
<g id="edge40" class="edge"><title>Node15&#45;&gt;Node17</title>
<path fill="none" stroke="midnightblue" d="M968.194,-62.5486C1005.95,-54.5575 1071.63,-40.0711 1136.79,-22.1853"/>
<polygon fill="midnightblue" stroke="midnightblue" points="1138.12,-25.4495 1146.82,-19.4044 1136.25,-18.704 1138.12,-25.4495"/>
</g>
<!-- Node18 -->
<g id="node39" class="node"><title>Node18</title>
<polygon fill="white" stroke="#bfbfbf" points="856.5,-0.5 856.5,-21.5 899.5,-21.5 899.5,-0.5 856.5,-0.5"/>
<text text-anchor="middle" x="878" y="-8.5" font-family="Helvetica,sans-Serif" font-size="10.00">string</text>
</g>
<!-- Node15&#45;&gt;Node18 -->
<g id="edge42" class="edge"><title>Node15&#45;&gt;Node18</title>
<path fill="none" stroke="midnightblue" d="M926.178,-58.3619C917.779,-50.1043 905.946,-38.4725 896.11,-28.8029"/>
<polygon fill="midnightblue" stroke="midnightblue" points="898.338,-26.0851 888.753,-21.5707 893.431,-31.077 898.338,-26.0851"/>
</g>
<!-- Node19 -->
<g id="node41" class="node"><title>Node19</title>
<polygon fill="white" stroke="#bfbfbf" points="916.5,-0.5 916.5,-21.5 957.5,-21.5 957.5,-0.5 916.5,-0.5"/>
<text text-anchor="middle" x="937" y="-8.5" font-family="Helvetica,sans-Serif" font-size="10.00">glib.h</text>
</g>
<!-- Node15&#45;&gt;Node19 -->
<g id="edge44" class="edge"><title>Node15&#45;&gt;Node19</title>
<path fill="none" stroke="midnightblue" d="M937,-58.3619C937,-50.9219 937,-40.7427 937,-31.7276"/>
<polygon fill="midnightblue" stroke="midnightblue" points="940.5,-31.5706 937,-21.5707 933.5,-31.5707 940.5,-31.5706"/>
</g>
<!-- Node20 -->
<g id="node44" class="node"><title>Node20</title>
<polygon fill="white" stroke="#bfbfbf" points="974.5,-0.5 974.5,-21.5 1019.5,-21.5 1019.5,-0.5 974.5,-0.5"/>
<text text-anchor="middle" x="997" y="-8.5" font-family="Helvetica,sans-Serif" font-size="10.00">QSize</text>
</g>
<!-- Node15&#45;&gt;Node20 -->
<g id="edge48" class="edge"><title>Node15&#45;&gt;Node20</title>
<path fill="none" stroke="midnightblue" d="M948.005,-58.3619C956.547,-50.1043 968.58,-38.4725 978.583,-28.8029"/>
<polygon fill="midnightblue" stroke="midnightblue" points="981.308,-31.0374 986.065,-21.5707 976.442,-26.0044 981.308,-31.0374"/>
</g>
<!-- Node22&#45;&gt;Node2 -->
<g id="edge56" class="edge"><title>Node22&#45;&gt;Node2</title>
<path fill="none" stroke="midnightblue" d="M435.371,-58.4966C413.843,-49.3154 382.36,-35.8889 358.355,-25.6516"/>
<polygon fill="midnightblue" stroke="midnightblue" points="359.476,-22.3247 348.905,-21.6212 356.73,-28.7636 359.476,-22.3247"/>
</g>
<!-- Node23 -->
<g id="node52" class="node"><title>Node23</title>
<polygon fill="white" stroke="#bfbfbf" points="374.5,-0.5 374.5,-21.5 479.5,-21.5 479.5,-0.5 374.5,-0.5"/>
<text text-anchor="middle" x="427" y="-8.5" font-family="Helvetica,sans-Serif" font-size="10.00">QVariantAnimation</text>
</g>
<!-- Node22&#45;&gt;Node23 -->
<g id="edge58" class="edge"><title>Node22&#45;&gt;Node23</title>
<path fill="none" stroke="midnightblue" d="M453.947,-58.3619C449.528,-50.5949 443.41,-39.8426 438.121,-30.5458"/>
<polygon fill="midnightblue" stroke="midnightblue" points="441.002,-28.5315 433.014,-21.5707 434.918,-31.9932 441.002,-28.5315"/>
</g>
</g>
</svg>
