<?xml version="1.0" encoding="UTF-8" standalone="no"?>
<!DOCTYPE svg PUBLIC "-//W3C//DTD SVG 1.1//EN"
 "http://www.w3.org/Graphics/SVG/1.1/DTD/svg11.dtd">
<!-- Generated by graphviz version 2.26.3 (20100126.1600)
 -->
<!-- Title: WindowManagerBase.h Pages: 1 -->
<svg width="343pt" height="146pt"
 viewBox="0.00 0.00 343.08 146.00" xmlns="http://www.w3.org/2000/svg" xmlns:xlink="http://www.w3.org/1999/xlink">
<g id="graph1" class="graph" transform="scale(1 1) rotate(0) translate(4 142)">
<title>WindowManagerBase.h</title>
<polygon fill="white" stroke="white" points="-4,5 -4,-142 340.081,-142 340.081,5 -4,5"/>
<!-- Node1 -->
<g id="node1" class="node"><title>Node1</title>
<polygon fill="#bfbfbf" stroke="black" points="37.5811,-116.5 37.5811,-137.5 166.581,-137.5 166.581,-116.5 37.5811,-116.5"/>
<text text-anchor="middle" x="102.081" y="-124.5" font-family="Helvetica,sans-Serif" font-size="10.00">WindowManagerBase.h</text>
</g>
<!-- Node2 -->
<g id="node3" class="node"><title>Node2</title>
<polygon fill="white" stroke="#bfbfbf" points="29.5811,-0.5 29.5811,-21.5 96.5811,-21.5 96.5811,-0.5 29.5811,-0.5"/>
<text text-anchor="middle" x="63.0811" y="-8.5" font-family="Helvetica,sans-Serif" font-size="10.00">Common.h</text>
</g>
<!-- Node1&#45;&gt;Node2 -->
<g id="edge2" class="edge"><title>Node1&#45;&gt;Node2</title>
<path fill="none" stroke="midnightblue" d="M55.6514,-116.464C36.2275,-109.516 15.5404,-98.2047 4.08113,-80 -8.33489,-60.2753 13.2792,-40.3152 33.7521,-26.9731"/>
<polygon fill="midnightblue" stroke="midnightblue" points="35.6712,-29.9017 42.3537,-21.6802 32.0027,-23.94 35.6712,-29.9017"/>
</g>
<!-- Node3 -->
<g id="node5" class="node"><title>Node3</title>
<polygon fill="white" stroke="#bfbfbf" points="13.0811,-58.5 13.0811,-79.5 101.081,-79.5 101.081,-58.5 13.0811,-58.5"/>
<text text-anchor="middle" x="57.0811" y="-66.5" font-family="Helvetica,sans-Serif" font-size="10.00">QGraphicsItem</text>
</g>
<!-- Node1&#45;&gt;Node3 -->
<g id="edge4" class="edge"><title>Node1&#45;&gt;Node3</title>
<path fill="none" stroke="midnightblue" d="M93.8274,-116.362C87.611,-108.35 78.9298,-97.1605 71.5661,-87.6696"/>
<polygon fill="midnightblue" stroke="midnightblue" points="74.1778,-85.326 65.2825,-79.5707 68.6472,-89.617 74.1778,-85.326"/>
</g>
<!-- Node4 -->
<g id="node7" class="node"><title>Node4</title>
<polygon fill="white" stroke="#bfbfbf" points="118.581,-58.5 118.581,-79.5 177.581,-79.5 177.581,-58.5 118.581,-58.5"/>
<text text-anchor="middle" x="148.081" y="-66.5" font-family="Helvetica,sans-Serif" font-size="10.00">QPainter</text>
</g>
<!-- Node1&#45;&gt;Node4 -->
<g id="edge6" class="edge"><title>Node1&#45;&gt;Node4</title>
<path fill="none" stroke="midnightblue" d="M110.518,-116.362C116.873,-108.35 125.747,-97.1605 133.274,-87.6696"/>
<polygon fill="midnightblue" stroke="midnightblue" points="136.226,-89.5805 139.698,-79.5707 130.741,-85.2308 136.226,-89.5805"/>
</g>
<!-- Node5 -->
<g id="node9" class="node"><title>Node5</title>
<a xlink:href="UiNavigationController_8h.htm" target="_top" xlink:title="UiNavigationController.h">
<polygon fill="white" stroke="black" points="194.581,-58.5 194.581,-79.5 325.581,-79.5 325.581,-58.5 194.581,-58.5"/>
<text text-anchor="middle" x="260.081" y="-66.5" font-family="Helvetica,sans-Serif" font-size="10.00">UiNavigationController.h</text>
</a>
</g>
<!-- Node1&#45;&gt;Node5 -->
<g id="edge8" class="edge"><title>Node1&#45;&gt;Node5</title>
<path fill="none" stroke="midnightblue" d="M130.694,-116.497C156.229,-107.123 193.819,-93.3242 221.91,-83.0122"/>
<polygon fill="midnightblue" stroke="midnightblue" points="223.234,-86.2548 231.415,-79.5231 220.821,-79.6835 223.234,-86.2548"/>
</g>
<!-- Node5&#45;&gt;Node2 -->
<g id="edge10" class="edge"><title>Node5&#45;&gt;Node2</title>
<path fill="none" stroke="midnightblue" d="M224.406,-58.4966C191.406,-48.7809 142.26,-34.3114 106.889,-23.8978"/>
<polygon fill="midnightblue" stroke="midnightblue" points="107.427,-20.4078 96.846,-20.9409 105.45,-27.1228 107.427,-20.4078"/>
</g>
<!-- Node6 -->
<g id="node12" class="node"><title>Node6</title>
<polygon fill="white" stroke="#bfbfbf" points="192.581,-0.5 192.581,-21.5 247.581,-21.5 247.581,-0.5 192.581,-0.5"/>
<text text-anchor="middle" x="220.081" y="-8.5" font-family="Helvetica,sans-Serif" font-size="10.00">QObject</text>
</g>
<!-- Node5&#45;&gt;Node6 -->
<g id="edge12" class="edge"><title>Node5&#45;&gt;Node6</title>
<path fill="none" stroke="midnightblue" d="M252.745,-58.3619C247.275,-50.4313 239.659,-39.3885 233.157,-29.9606"/>
<polygon fill="midnightblue" stroke="midnightblue" points="235.93,-27.8157 227.371,-21.5707 230.167,-31.7899 235.93,-27.8157"/>
</g>
<!-- Node7 -->
<g id="node14" class="node"><title>Node7</title>
<polygon fill="white" stroke="#bfbfbf" points="265.081,-0.5 265.081,-21.5 335.081,-21.5 335.081,-0.5 265.081,-0.5"/>
<text text-anchor="middle" x="300.081" y="-8.5" font-family="Helvetica,sans-Serif" font-size="10.00">QKeyEvent</text>
</g>
<!-- Node5&#45;&gt;Node7 -->
<g id="edge14" class="edge"><title>Node5&#45;&gt;Node7</title>
<path fill="none" stroke="midnightblue" d="M267.418,-58.3619C272.887,-50.4313 280.503,-39.3885 287.005,-29.9606"/>
<polygon fill="midnightblue" stroke="midnightblue" points="289.995,-31.7899 292.791,-21.5707 284.232,-27.8157 289.995,-31.7899"/>
</g>
</g>
</svg>
