<?xml version="1.0" encoding="UTF-8" standalone="no"?>
<!DOCTYPE svg PUBLIC "-//W3C//DTD SVG 1.1//EN"
 "http://www.w3.org/Graphics/SVG/1.1/DTD/svg11.dtd">
<!-- Generated by graphviz version 2.26.3 (20100126.1600)
 -->
<!-- Title: WindowManagerBase.cpp Pages: 1 -->
<svg width="908pt" height="204pt"
 viewBox="0.00 0.00 908.00 204.00" xmlns="http://www.w3.org/2000/svg" xmlns:xlink="http://www.w3.org/1999/xlink">
<g id="graph1" class="graph" transform="scale(1 1) rotate(0) translate(4 200)">
<title>WindowManagerBase.cpp</title>
<polygon fill="white" stroke="white" points="-4,5 -4,-200 905,-200 905,5 -4,5"/>
<!-- Node1 -->
<g id="node1" class="node"><title>Node1</title>
<polygon fill="#bfbfbf" stroke="black" points="410,-174.5 410,-195.5 550,-195.5 550,-174.5 410,-174.5"/>
<text text-anchor="middle" x="480" y="-182.5" font-family="Helvetica,sans-Serif" font-size="10.00">WindowManagerBase.cpp</text>
</g>
<!-- Node2 -->
<g id="node3" class="node"><title>Node2</title>
<polygon fill="white" stroke="#bfbfbf" points="325.5,-0.5 325.5,-21.5 392.5,-21.5 392.5,-0.5 325.5,-0.5"/>
<text text-anchor="middle" x="359" y="-8.5" font-family="Helvetica,sans-Serif" font-size="10.00">Common.h</text>
</g>
<!-- Node1&#45;&gt;Node2 -->
<g id="edge2" class="edge"><title>Node1&#45;&gt;Node2</title>
<path fill="none" stroke="midnightblue" d="M471.734,-174.477C457.164,-155.797 426.167,-115.469 402,-80 390.893,-63.6987 379.098,-44.6327 370.677,-30.6785"/>
<polygon fill="midnightblue" stroke="midnightblue" points="373.578,-28.7101 365.435,-21.9313 367.573,-32.3082 373.578,-28.7101"/>
</g>
<!-- Node3 -->
<g id="node5" class="node"><title>Node3</title>
<a xlink:href="WindowManagerBase_8h.htm" target="_top" xlink:title="WindowManagerBase.h">
<polygon fill="white" stroke="black" points="203.5,-116.5 203.5,-137.5 332.5,-137.5 332.5,-116.5 203.5,-116.5"/>
<text text-anchor="middle" x="268" y="-124.5" font-family="Helvetica,sans-Serif" font-size="10.00">WindowManagerBase.h</text>
</a>
</g>
<!-- Node1&#45;&gt;Node3 -->
<g id="edge4" class="edge"><title>Node1&#45;&gt;Node3</title>
<path fill="none" stroke="midnightblue" d="M441.608,-174.497C406.448,-164.877 354.255,-150.598 316.281,-140.209"/>
<polygon fill="midnightblue" stroke="midnightblue" points="317.033,-136.786 306.464,-137.523 315.186,-143.538 317.033,-136.786"/>
</g>
<!-- Node9 -->
<g id="node19" class="node"><title>Node9</title>
<a xlink:href="Window_8h.htm" target="_top" xlink:title="Window.h">
<polygon fill="white" stroke="black" points="551,-116.5 551,-137.5 613,-137.5 613,-116.5 551,-116.5"/>
<text text-anchor="middle" x="582" y="-124.5" font-family="Helvetica,sans-Serif" font-size="10.00">Window.h</text>
</a>
</g>
<!-- Node1&#45;&gt;Node9 -->
<g id="edge20" class="edge"><title>Node1&#45;&gt;Node9</title>
<path fill="none" stroke="midnightblue" d="M498.708,-174.362C514.381,-165.45 536.964,-152.609 554.663,-142.545"/>
<polygon fill="midnightblue" stroke="midnightblue" points="556.447,-145.556 563.41,-137.571 552.987,-139.471 556.447,-145.556"/>
</g>
<!-- Node16 -->
<g id="node34" class="node"><title>Node16</title>
<polygon fill="white" stroke="#bfbfbf" points="631,-116.5 631,-137.5 729,-137.5 729,-116.5 631,-116.5"/>
<text text-anchor="middle" x="680" y="-124.5" font-family="Helvetica,sans-Serif" font-size="10.00">QGraphicsScene</text>
</g>
<!-- Node1&#45;&gt;Node16 -->
<g id="edge36" class="edge"><title>Node1&#45;&gt;Node16</title>
<path fill="none" stroke="midnightblue" d="M516.218,-174.497C549.247,-164.918 598.208,-150.72 633.994,-140.342"/>
<polygon fill="midnightblue" stroke="midnightblue" points="635.084,-143.67 643.714,-137.523 633.134,-136.947 635.084,-143.67"/>
</g>
<!-- Node3&#45;&gt;Node2 -->
<g id="edge6" class="edge"><title>Node3&#45;&gt;Node2</title>
<path fill="none" stroke="midnightblue" d="M282.737,-116.193C294.127,-107.34 309.789,-94.0251 321,-80 332.956,-65.0434 343.201,-45.8068 350.03,-31.4461"/>
<polygon fill="midnightblue" stroke="midnightblue" points="353.383,-32.5303 354.375,-21.9819 347.022,-29.6099 353.383,-32.5303"/>
</g>
<!-- Node4 -->
<g id="node8" class="node"><title>Node4</title>
<polygon fill="white" stroke="#bfbfbf" points="224,-58.5 224,-79.5 312,-79.5 312,-58.5 224,-58.5"/>
<text text-anchor="middle" x="268" y="-66.5" font-family="Helvetica,sans-Serif" font-size="10.00">QGraphicsItem</text>
</g>
<!-- Node3&#45;&gt;Node4 -->
<g id="edge8" class="edge"><title>Node3&#45;&gt;Node4</title>
<path fill="none" stroke="midnightblue" d="M268,-116.362C268,-108.922 268,-98.7427 268,-89.7276"/>
<polygon fill="midnightblue" stroke="midnightblue" points="271.5,-89.5706 268,-79.5707 264.5,-89.5707 271.5,-89.5706"/>
</g>
<!-- Node5 -->
<g id="node10" class="node"><title>Node5</title>
<polygon fill="white" stroke="#bfbfbf" points="-0.5,-58.5 -0.5,-79.5 58.5,-79.5 58.5,-58.5 -0.5,-58.5"/>
<text text-anchor="middle" x="29" y="-66.5" font-family="Helvetica,sans-Serif" font-size="10.00">QPainter</text>
</g>
<!-- Node3&#45;&gt;Node5 -->
<g id="edge10" class="edge"><title>Node3&#45;&gt;Node5</title>
<path fill="none" stroke="midnightblue" d="M219.905,-116.493C181.309,-107.894 125.52,-95.0932 68.6989,-80.3685"/>
<polygon fill="midnightblue" stroke="midnightblue" points="69.3898,-76.9316 58.8302,-77.7941 67.6229,-83.705 69.3898,-76.9316"/>
</g>
<!-- Node6 -->
<g id="node12" class="node"><title>Node6</title>
<a xlink:href="UiNavigationController_8h.htm" target="_top" xlink:title="UiNavigationController.h">
<polygon fill="white" stroke="black" points="75.5,-58.5 75.5,-79.5 206.5,-79.5 206.5,-58.5 75.5,-58.5"/>
<text text-anchor="middle" x="141" y="-66.5" font-family="Helvetica,sans-Serif" font-size="10.00">UiNavigationController.h</text>
</a>
</g>
<!-- Node3&#45;&gt;Node6 -->
<g id="edge12" class="edge"><title>Node3&#45;&gt;Node6</title>
<path fill="none" stroke="midnightblue" d="M245.001,-116.497C224.987,-107.356 195.759,-94.0082 173.381,-83.7883"/>
<polygon fill="midnightblue" stroke="midnightblue" points="174.807,-80.5918 164.257,-79.6212 171.899,-86.9592 174.807,-80.5918"/>
</g>
<!-- Node6&#45;&gt;Node2 -->
<g id="edge14" class="edge"><title>Node6&#45;&gt;Node2</title>
<path fill="none" stroke="midnightblue" d="M180.478,-58.4966C218.516,-48.3764 275.941,-33.0982 315.33,-22.6187"/>
<polygon fill="midnightblue" stroke="midnightblue" points="316.417,-25.9511 325.181,-19.9976 314.618,-19.1865 316.417,-25.9511"/>
</g>
<!-- Node7 -->
<g id="node15" class="node"><title>Node7</title>
<polygon fill="white" stroke="#bfbfbf" points="153.5,-0.5 153.5,-21.5 208.5,-21.5 208.5,-0.5 153.5,-0.5"/>
<text text-anchor="middle" x="181" y="-8.5" font-family="Helvetica,sans-Serif" font-size="10.00">QObject</text>
</g>
<!-- Node6&#45;&gt;Node7 -->
<g id="edge16" class="edge"><title>Node6&#45;&gt;Node7</title>
<path fill="none" stroke="midnightblue" d="M148.337,-58.3619C153.806,-50.4313 161.422,-39.3885 167.924,-29.9606"/>
<polygon fill="midnightblue" stroke="midnightblue" points="170.914,-31.7899 173.71,-21.5707 165.151,-27.8157 170.914,-31.7899"/>
</g>
<!-- Node8 -->
<g id="node17" class="node"><title>Node8</title>
<polygon fill="white" stroke="#bfbfbf" points="66,-0.5 66,-21.5 136,-21.5 136,-0.5 66,-0.5"/>
<text text-anchor="middle" x="101" y="-8.5" font-family="Helvetica,sans-Serif" font-size="10.00">QKeyEvent</text>
</g>
<!-- Node6&#45;&gt;Node8 -->
<g id="edge18" class="edge"><title>Node6&#45;&gt;Node8</title>
<path fill="none" stroke="midnightblue" d="M133.663,-58.3619C128.194,-50.4313 120.578,-39.3885 114.076,-29.9606"/>
<polygon fill="midnightblue" stroke="midnightblue" points="116.849,-27.8157 108.29,-21.5707 111.086,-31.7899 116.849,-27.8157"/>
</g>
<!-- Node9&#45;&gt;Node2 -->
<g id="edge22" class="edge"><title>Node9&#45;&gt;Node2</title>
<path fill="none" stroke="midnightblue" d="M550.864,-121.104C519.97,-114.346 472.016,-101.357 435,-80 411.471,-66.4245 389.017,-44.5525 374.7,-29.077"/>
<polygon fill="midnightblue" stroke="midnightblue" points="377.29,-26.7235 367.992,-21.6452 372.094,-31.4137 377.29,-26.7235"/>
</g>
<!-- Node10 -->
<g id="node22" class="node"><title>Node10</title>
<polygon fill="white" stroke="#bfbfbf" points="622,-58.5 622,-79.5 714,-79.5 714,-58.5 622,-58.5"/>
<text text-anchor="middle" x="668" y="-66.5" font-family="Helvetica,sans-Serif" font-size="10.00">WindowTypes.h</text>
</g>
<!-- Node9&#45;&gt;Node10 -->
<g id="edge24" class="edge"><title>Node9&#45;&gt;Node10</title>
<path fill="none" stroke="midnightblue" d="M597.774,-116.362C610.624,-107.696 628.985,-95.3126 643.71,-85.3819"/>
<polygon fill="midnightblue" stroke="midnightblue" points="645.993,-88.0639 652.326,-79.5707 642.079,-82.2604 645.993,-88.0639"/>
</g>
<!-- Node11 -->
<g id="node24" class="node"><title>Node11</title>
<polygon fill="white" stroke="#bfbfbf" points="732,-58.5 732,-79.5 782,-79.5 782,-58.5 732,-58.5"/>
<text text-anchor="middle" x="757" y="-66.5" font-family="Helvetica,sans-Serif" font-size="10.00">stdint.h</text>
</g>
<!-- Node9&#45;&gt;Node11 -->
<g id="edge26" class="edge"><title>Node9&#45;&gt;Node11</title>
<path fill="none" stroke="midnightblue" d="M613.286,-116.631C643.892,-106.487 690.41,-91.0699 722.175,-80.542"/>
<polygon fill="midnightblue" stroke="midnightblue" points="723.54,-83.7769 731.931,-77.3085 721.338,-77.1323 723.54,-83.7769"/>
</g>
<!-- Node12 -->
<g id="node26" class="node"><title>Node12</title>
<polygon fill="white" stroke="#bfbfbf" points="799.5,-58.5 799.5,-79.5 842.5,-79.5 842.5,-58.5 799.5,-58.5"/>
<text text-anchor="middle" x="821" y="-66.5" font-family="Helvetica,sans-Serif" font-size="10.00">string</text>
</g>
<!-- Node9&#45;&gt;Node12 -->
<g id="edge28" class="edge"><title>Node9&#45;&gt;Node12</title>
<path fill="none" stroke="midnightblue" d="M613.398,-118.179C616.3,-117.42 619.201,-116.682 622,-116 693.551,-98.5567 715.428,-101.025 789.67,-80.1152"/>
<polygon fill="midnightblue" stroke="midnightblue" points="790.842,-83.4201 799.491,-77.3006 788.914,-76.691 790.842,-83.4201"/>
</g>
<!-- Node13 -->
<g id="node28" class="node"><title>Node13</title>
<polygon fill="white" stroke="#bfbfbf" points="859.5,-58.5 859.5,-79.5 900.5,-79.5 900.5,-58.5 859.5,-58.5"/>
<text text-anchor="middle" x="880" y="-66.5" font-family="Helvetica,sans-Serif" font-size="10.00">glib.h</text>
</g>
<!-- Node9&#45;&gt;Node13 -->
<g id="edge30" class="edge"><title>Node9&#45;&gt;Node13</title>
<path fill="none" stroke="midnightblue" d="M613.361,-118.017C616.271,-117.292 619.184,-116.607 622,-116 719.571,-94.9844 749.551,-105.687 849.376,-80.0519"/>
<polygon fill="midnightblue" stroke="midnightblue" points="850.477,-83.3816 859.259,-77.4554 848.698,-76.6114 850.477,-83.3816"/>
</g>
<!-- Node14 -->
<g id="node30" class="node"><title>Node14</title>
<polygon fill="white" stroke="#bfbfbf" points="444,-58.5 444,-79.5 542,-79.5 542,-58.5 444,-58.5"/>
<text text-anchor="middle" x="493" y="-66.5" font-family="Helvetica,sans-Serif" font-size="10.00">QGraphicsObject</text>
</g>
<!-- Node9&#45;&gt;Node14 -->
<g id="edge32" class="edge"><title>Node9&#45;&gt;Node14</title>
<path fill="none" stroke="midnightblue" d="M565.676,-116.362C552.252,-107.614 533.017,-95.0786 517.707,-85.1015"/>
<polygon fill="midnightblue" stroke="midnightblue" points="519.509,-82.0982 509.22,-79.5707 515.688,-87.9628 519.509,-82.0982"/>
</g>
<!-- Node15 -->
<g id="node32" class="node"><title>Node15</title>
<polygon fill="white" stroke="#bfbfbf" points="559.5,-58.5 559.5,-79.5 604.5,-79.5 604.5,-58.5 559.5,-58.5"/>
<text text-anchor="middle" x="582" y="-66.5" font-family="Helvetica,sans-Serif" font-size="10.00">QSize</text>
</g>
<!-- Node9&#45;&gt;Node15 -->
<g id="edge34" class="edge"><title>Node9&#45;&gt;Node15</title>
<path fill="none" stroke="midnightblue" d="M582,-116.362C582,-108.922 582,-98.7427 582,-89.7276"/>
<polygon fill="midnightblue" stroke="midnightblue" points="585.5,-89.5706 582,-79.5707 578.5,-89.5707 585.5,-89.5706"/>
</g>
</g>
</svg>
