<?xml version="1.0" encoding="UTF-8" standalone="no"?>
<!DOCTYPE svg PUBLIC "-//W3C//DTD SVG 1.1//EN"
 "http://www.w3.org/Graphics/SVG/1.1/DTD/svg11.dtd">
<!-- Generated by graphviz version 2.26.3 (20100126.1600)
 -->
<!-- Title: WindowServer.h Pages: 1 -->
<svg width="4938pt" height="160pt"
 viewBox="0.00 0.00 4938.00 160.00" xmlns="http://www.w3.org/2000/svg" xmlns:xlink="http://www.w3.org/1999/xlink">
<g id="graph1" class="graph" transform="scale(1 1) rotate(0) translate(4 156)">
<title>WindowServer.h</title>
<polygon fill="white" stroke="white" points="-4,5 -4,-156 4935,-156 4935,5 -4,5"/>
<!-- Node1 -->
<g id="node1" class="node"><title>Node1</title>
<polygon fill="#bfbfbf" stroke="black" points="2217,-130.5 2217,-151.5 2311,-151.5 2311,-130.5 2217,-130.5"/>
<text text-anchor="middle" x="2264" y="-138.5" font-family="Helvetica,sans-Serif" font-size="10.00">WindowServer.h</text>
</g>
<!-- Node2 -->
<g id="node3" class="node"><title>Node2</title>
<a xlink:href="AmbientLightSensor_8cpp.htm" target="_top" xlink:title="AmbientLightSensor.cpp">
<polygon fill="white" stroke="black" points="-0.5,-65.5 -0.5,-86.5 130.5,-86.5 130.5,-65.5 -0.5,-65.5"/>
<text text-anchor="middle" x="65" y="-73.5" font-family="Helvetica,sans-Serif" font-size="10.00">AmbientLightSensor.cpp</text>
</a>
</g>
<!-- Node1&#45;&gt;Node2 -->
<g id="edge2" class="edge"><title>Node1&#45;&gt;Node2</title>
<path fill="none" stroke="midnightblue" d="M2206.2,-140.469C1887.21,-137.439 348.716,-121.495 139,-94 126.677,-92.3844 113.426,-89.5284 101.591,-86.5607"/>
<polygon fill="midnightblue" stroke="midnightblue" points="2206.56,-143.973 2216.59,-140.567 2206.63,-136.973 2206.56,-143.973"/>
</g>
<!-- Node3 -->
<g id="node5" class="node"><title>Node3</title>
<a xlink:href="ApplicationManager_8cpp.htm" target="_top" xlink:title="ApplicationManager.cpp">
<polygon fill="white" stroke="black" points="777.5,-0.5 777.5,-21.5 908.5,-21.5 908.5,-0.5 777.5,-0.5"/>
<text text-anchor="middle" x="843" y="-8.5" font-family="Helvetica,sans-Serif" font-size="10.00">ApplicationManager.cpp</text>
</a>
</g>
<!-- Node1&#45;&gt;Node3 -->
<g id="edge4" class="edge"><title>Node1&#45;&gt;Node3</title>
<path fill="none" stroke="midnightblue" d="M2206.54,-140.358C1927.69,-137.109 727.73,-121.546 701,-94 689.858,-82.5175 691.631,-70.97 701,-58 711.91,-42.8964 755.207,-29.9573 791.154,-21.5019"/>
<polygon fill="midnightblue" stroke="midnightblue" points="2206.79,-143.861 2216.83,-140.477 2206.88,-136.862 2206.79,-143.861"/>
</g>
<!-- Node4 -->
<g id="node7" class="node"><title>Node4</title>
<a xlink:href="DisplayManager_8cpp.htm" target="_top" xlink:title="DisplayManager.cpp">
<polygon fill="white" stroke="black" points="273.5,-65.5 273.5,-86.5 386.5,-86.5 386.5,-65.5 273.5,-65.5"/>
<text text-anchor="middle" x="330" y="-73.5" font-family="Helvetica,sans-Serif" font-size="10.00">DisplayManager.cpp</text>
</a>
</g>
<!-- Node1&#45;&gt;Node4 -->
<g id="edge6" class="edge"><title>Node1&#45;&gt;Node4</title>
<path fill="none" stroke="midnightblue" d="M2206.66,-140.394C1912.28,-137.172 577.639,-121.164 395,-94 384.113,-92.3808 372.457,-89.5238 362.065,-86.5563"/>
<polygon fill="midnightblue" stroke="midnightblue" points="2206.65,-143.894 2216.68,-140.503 2206.72,-136.895 2206.65,-143.894"/>
</g>
<!-- Node5 -->
<g id="node9" class="node"><title>Node5</title>
<a xlink:href="DisplayStates_8cpp.htm" target="_top" xlink:title="DisplayStates.cpp">
<polygon fill="white" stroke="black" points="403.5,-65.5 403.5,-86.5 504.5,-86.5 504.5,-65.5 403.5,-65.5"/>
<text text-anchor="middle" x="454" y="-73.5" font-family="Helvetica,sans-Serif" font-size="10.00">DisplayStates.cpp</text>
</a>
</g>
<!-- Node1&#45;&gt;Node5 -->
<g id="edge8" class="edge"><title>Node1&#45;&gt;Node5</title>
<path fill="none" stroke="midnightblue" d="M2206.66,-140.378C1923.69,-137.183 683.014,-121.694 513,-94 503.064,-92.3815 492.47,-89.5248 483.041,-86.5573"/>
<polygon fill="midnightblue" stroke="midnightblue" points="2206.67,-143.878 2216.7,-140.49 2206.74,-136.878 2206.67,-143.878"/>
</g>
<!-- Node6 -->
<g id="node11" class="node"><title>Node6</title>
<a xlink:href="HostWindow_8cpp.htm" target="_top" xlink:title="HostWindow.cpp">
<polygon fill="white" stroke="black" points="521.5,-65.5 521.5,-86.5 616.5,-86.5 616.5,-65.5 521.5,-65.5"/>
<text text-anchor="middle" x="569" y="-73.5" font-family="Helvetica,sans-Serif" font-size="10.00">HostWindow.cpp</text>
</a>
</g>
<!-- Node1&#45;&gt;Node6 -->
<g id="edge10" class="edge"><title>Node1&#45;&gt;Node6</title>
<path fill="none" stroke="midnightblue" d="M2206.59,-140.227C1935.24,-136.457 787.985,-119.147 630,-94 619.75,-92.3685 608.803,-89.5082 599.052,-86.5415"/>
<polygon fill="midnightblue" stroke="midnightblue" points="2206.57,-143.727 2216.61,-140.366 2206.66,-136.728 2206.57,-143.727"/>
</g>
<!-- Node7 -->
<g id="node13" class="node"><title>Node7</title>
<a xlink:href="MouseEventEater_8h.htm" target="_top" xlink:title="MouseEventEater.h">
<polygon fill="white" stroke="black" points="147.5,-65.5 147.5,-86.5 256.5,-86.5 256.5,-65.5 147.5,-65.5"/>
<text text-anchor="middle" x="202" y="-73.5" font-family="Helvetica,sans-Serif" font-size="10.00">MouseEventEater.h</text>
</a>
</g>
<!-- Node1&#45;&gt;Node7 -->
<g id="edge12" class="edge"><title>Node1&#45;&gt;Node7</title>
<path fill="none" stroke="midnightblue" d="M2206.66,-140.523C1900.09,-137.853 461.078,-123.816 265,-94 254.429,-92.3926 243.127,-89.5387 233.056,-86.5705"/>
<polygon fill="midnightblue" stroke="midnightblue" points="2206.63,-144.022 2216.66,-140.609 2206.69,-137.023 2206.63,-144.022"/>
</g>
<!-- Node8 -->
<g id="node15" class="node"><title>Node8</title>
<a xlink:href="Main_8cpp.htm" target="_top" xlink:title="Main.cpp">
<polygon fill="white" stroke="black" points="393.5,-0.5 393.5,-21.5 452.5,-21.5 452.5,-0.5 393.5,-0.5"/>
<text text-anchor="middle" x="423" y="-8.5" font-family="Helvetica,sans-Serif" font-size="10.00">Main.cpp</text>
</a>
</g>
<!-- Node1&#45;&gt;Node8 -->
<g id="edge110" class="edge"><title>Node1&#45;&gt;Node8</title>
<path fill="none" stroke="midnightblue" d="M2206.81,-140.912C1941.5,-140.286 837.253,-135.208 689,-94 657.556,-85.2601 655.421,-69.8167 625,-58 565.929,-35.0547 492.604,-21.4443 452.545,-15.1786"/>
<polygon fill="midnightblue" stroke="midnightblue" points="2206.98,-144.412 2216.99,-140.935 2207,-137.412 2206.98,-144.412"/>
</g>
<!-- Node9 -->
<g id="node17" class="node"><title>Node9</title>
<a xlink:href="Preferences_8cpp.htm" target="_top" xlink:title="Preferences.cpp">
<polygon fill="white" stroke="black" points="710,-65.5 710,-86.5 804,-86.5 804,-65.5 710,-65.5"/>
<text text-anchor="middle" x="757" y="-73.5" font-family="Helvetica,sans-Serif" font-size="10.00">Preferences.cpp</text>
</a>
</g>
<!-- Node1&#45;&gt;Node9 -->
<g id="edge16" class="edge"><title>Node1&#45;&gt;Node9</title>
<path fill="none" stroke="midnightblue" d="M2206.58,-140.085C1954.44,-135.937 951.774,-118.063 813,-94 803.542,-92.36 793.479,-89.4975 784.531,-86.5313"/>
<polygon fill="midnightblue" stroke="midnightblue" points="2206.57,-143.585 2216.63,-140.249 2206.69,-136.586 2206.57,-143.585"/>
</g>
<!-- Node10 -->
<g id="node19" class="node"><title>Node10</title>
<a xlink:href="SystemService_8cpp.htm" target="_top" xlink:title="SystemService.cpp">
<polygon fill="white" stroke="black" points="822,-65.5 822,-86.5 928,-86.5 928,-65.5 822,-65.5"/>
<text text-anchor="middle" x="875" y="-73.5" font-family="Helvetica,sans-Serif" font-size="10.00">SystemService.cpp</text>
</a>
</g>
<!-- Node1&#45;&gt;Node10 -->
<g id="edge18" class="edge"><title>Node1&#45;&gt;Node10</title>
<path fill="none" stroke="midnightblue" d="M2206.66,-140.691C1985.98,-139.232 1191.42,-131.44 942,-94 930.923,-92.3372 919.052,-89.507 908.425,-86.577"/>
<polygon fill="midnightblue" stroke="midnightblue" points="2206.71,-144.191 2216.73,-140.756 2206.75,-137.191 2206.71,-144.191"/>
</g>
<!-- Node11 -->
<g id="node21" class="node"><title>Node11</title>
<a xlink:href="SystemUiController_8cpp.htm" target="_top" xlink:title="SystemUiController.cpp">
<polygon fill="white" stroke="black" points="1087.5,-0.5 1087.5,-21.5 1214.5,-21.5 1214.5,-0.5 1087.5,-0.5"/>
<text text-anchor="middle" x="1151" y="-8.5" font-family="Helvetica,sans-Serif" font-size="10.00">SystemUiController.cpp</text>
</a>
</g>
<!-- Node1&#45;&gt;Node11 -->
<g id="edge20" class="edge"><title>Node1&#45;&gt;Node11</title>
<path fill="none" stroke="midnightblue" d="M2206.5,-139.981C1959.08,-135.464 996.668,-116.472 975,-94 935.899,-53.4474 1022.41,-30.5089 1087.48,-19.4436"/>
<polygon fill="midnightblue" stroke="midnightblue" points="2206.65,-143.484 2216.71,-140.167 2206.78,-136.486 2206.65,-143.484"/>
</g>
<!-- Node12 -->
<g id="node23" class="node"><title>Node12</title>
<a xlink:href="WSOverlayScreenShotAnimation_8cpp.htm" target="_top" xlink:title="WSOverlayScreenShotAnimation.cpp">
<polygon fill="white" stroke="black" points="983.5,-65.5 983.5,-86.5 1174.5,-86.5 1174.5,-65.5 983.5,-65.5"/>
<text text-anchor="middle" x="1079" y="-73.5" font-family="Helvetica,sans-Serif" font-size="10.00">WSOverlayScreenShotAnimation.cpp</text>
</a>
</g>
<!-- Node1&#45;&gt;Node12 -->
<g id="edge22" class="edge"><title>Node1&#45;&gt;Node12</title>
<path fill="none" stroke="midnightblue" d="M2206.6,-139.475C2012.9,-134.177 1384.27,-115.703 1183,-94 1166.33,-92.2025 1148.29,-89.3904 1131.99,-86.5187"/>
<polygon fill="midnightblue" stroke="midnightblue" points="2206.75,-142.98 2216.84,-139.754 2206.94,-135.983 2206.75,-142.98"/>
</g>
<!-- Node13 -->
<g id="node25" class="node"><title>Node13</title>
<a xlink:href="Window_8cpp.htm" target="_top" xlink:title="Window.cpp">
<polygon fill="white" stroke="black" points="1192,-65.5 1192,-86.5 1266,-86.5 1266,-65.5 1192,-65.5"/>
<text text-anchor="middle" x="1229" y="-73.5" font-family="Helvetica,sans-Serif" font-size="10.00">Window.cpp</text>
</a>
</g>
<!-- Node1&#45;&gt;Node13 -->
<g id="edge24" class="edge"><title>Node1&#45;&gt;Node13</title>
<path fill="none" stroke="midnightblue" d="M2206.7,-140.714C2023.67,-139.42 1454.65,-132.335 1275,-94 1267.28,-92.3535 1259.17,-89.5657 1251.95,-86.6696"/>
<polygon fill="midnightblue" stroke="midnightblue" points="2206.89,-144.216 2216.91,-140.783 2206.94,-137.216 2206.89,-144.216"/>
</g>
<!-- Node14 -->
<g id="node27" class="node"><title>Node14</title>
<a xlink:href="HostWindowDataOpenGLTextureShared_8cpp.htm" target="_top" xlink:title="HostWindowDataOpenGLTexture\lShared.cpp">
<polygon fill="white" stroke="black" points="1283.5,-59 1283.5,-93 1458.5,-93 1458.5,-59 1283.5,-59"/>
<text text-anchor="start" x="1291.5" y="-80" font-family="Helvetica,sans-Serif" font-size="10.00">HostWindowDataOpenGLTexture</text>
<text text-anchor="middle" x="1371" y="-67" font-family="Helvetica,sans-Serif" font-size="10.00">Shared.cpp</text>
</a>
</g>
<!-- Node1&#45;&gt;Node14 -->
<g id="edge26" class="edge"><title>Node1&#45;&gt;Node14</title>
<path fill="none" stroke="midnightblue" d="M2206.8,-139.9C2076.16,-136.888 1746.02,-126.435 1472,-94 1467.67,-93.4871 1463.24,-92.9074 1458.77,-92.2786"/>
<polygon fill="midnightblue" stroke="midnightblue" points="2206.89,-143.403 2216.96,-140.129 2207.05,-136.405 2206.89,-143.403"/>
</g>
<!-- Node15 -->
<g id="node29" class="node"><title>Node15</title>
<a xlink:href="WindowServer_8cpp.htm" target="_top" xlink:title="WindowServer.cpp">
<polygon fill="white" stroke="black" points="3372.5,-0.5 3372.5,-21.5 3477.5,-21.5 3477.5,-0.5 3372.5,-0.5"/>
<text text-anchor="middle" x="3425" y="-8.5" font-family="Helvetica,sans-Serif" font-size="10.00">WindowServer.cpp</text>
</a>
</g>
<!-- Node1&#45;&gt;Node15 -->
<g id="edge28" class="edge"><title>Node1&#45;&gt;Node15</title>
<path fill="none" stroke="midnightblue" d="M2321.32,-138.387C2455.76,-131.952 2783.47,-114.372 2829,-94 2850.24,-84.4991 2845.71,-67.3873 2867,-58 2968.32,-13.3185 3254.14,-35.8452 3364,-22 3366.78,-21.6502 3369.62,-21.2579 3372.48,-20.8355"/>
<polygon fill="midnightblue" stroke="midnightblue" points="2321.04,-134.896 2311.21,-138.867 2321.37,-141.889 2321.04,-134.896"/>
</g>
<!-- Node16 -->
<g id="node31" class="node"><title>Node16</title>
<a xlink:href="IMEController_8cpp.htm" target="_top" xlink:title="IMEController.cpp">
<polygon fill="white" stroke="black" points="1513.5,-65.5 1513.5,-86.5 1614.5,-86.5 1614.5,-65.5 1513.5,-65.5"/>
<text text-anchor="middle" x="1564" y="-73.5" font-family="Helvetica,sans-Serif" font-size="10.00">IMEController.cpp</text>
</a>
</g>
<!-- Node1&#45;&gt;Node16 -->
<g id="edge30" class="edge"><title>Node1&#45;&gt;Node16</title>
<path fill="none" stroke="midnightblue" d="M2206.71,-138.438C2071.22,-132.116 1734.18,-114.766 1623,-94 1613.42,-92.2107 1603.2,-89.419 1594,-86.5637"/>
<polygon fill="midnightblue" stroke="midnightblue" points="2206.73,-141.943 2216.88,-138.91 2207.05,-134.95 2206.73,-141.943"/>
</g>
<!-- Node17 -->
<g id="node33" class="node"><title>Node17</title>
<a xlink:href="IMEView_8cpp.htm" target="_top" xlink:title="IMEView.cpp">
<polygon fill="white" stroke="black" points="1631.5,-65.5 1631.5,-86.5 1708.5,-86.5 1708.5,-65.5 1631.5,-65.5"/>
<text text-anchor="middle" x="1670" y="-73.5" font-family="Helvetica,sans-Serif" font-size="10.00">IMEView.cpp</text>
</a>
</g>
<!-- Node1&#45;&gt;Node17 -->
<g id="edge32" class="edge"><title>Node1&#45;&gt;Node17</title>
<path fill="none" stroke="midnightblue" d="M2206.75,-137.828C2086.94,-130.896 1813.33,-113.455 1722,-94 1713.5,-92.1888 1704.47,-89.3908 1696.36,-86.5365"/>
<polygon fill="midnightblue" stroke="midnightblue" points="2206.64,-141.327 2216.82,-138.407 2207.04,-134.339 2206.64,-141.327"/>
</g>
<!-- Node18 -->
<g id="node35" class="node"><title>Node18</title>
<a xlink:href="CardHostWindow_8cpp.htm" target="_top" xlink:title="CardHostWindow.cpp">
<polygon fill="white" stroke="black" points="1426.5,-0.5 1426.5,-21.5 1545.5,-21.5 1545.5,-0.5 1426.5,-0.5"/>
<text text-anchor="middle" x="1486" y="-8.5" font-family="Helvetica,sans-Serif" font-size="10.00">CardHostWindow.cpp</text>
</a>
</g>
<!-- Node1&#45;&gt;Node18 -->
<g id="edge34" class="edge"><title>Node1&#45;&gt;Node18</title>
<path fill="none" stroke="midnightblue" d="M2206.61,-139.312C2034.31,-134.002 1531.66,-116.632 1505,-94 1483.81,-76.0159 1483.5,-39.6835 1484.82,-21.6508"/>
<polygon fill="midnightblue" stroke="midnightblue" points="2206.65,-142.815 2216.75,-139.623 2206.86,-135.818 2206.65,-142.815"/>
</g>
<!-- Node19 -->
<g id="node37" class="node"><title>Node19</title>
<a xlink:href="CardWindow_8cpp.htm" target="_top" xlink:title="CardWindow.cpp">
<polygon fill="white" stroke="black" points="1562.5,-0.5 1562.5,-21.5 1659.5,-21.5 1659.5,-0.5 1562.5,-0.5"/>
<text text-anchor="middle" x="1611" y="-8.5" font-family="Helvetica,sans-Serif" font-size="10.00">CardWindow.cpp</text>
</a>
</g>
<!-- Node1&#45;&gt;Node19 -->
<g id="edge36" class="edge"><title>Node1&#45;&gt;Node19</title>
<path fill="none" stroke="midnightblue" d="M2206.4,-139.652C2092.43,-136.325 1842.3,-125.563 1763,-94 1738.88,-84.3996 1739.26,-71.363 1717,-58 1692.15,-43.0788 1661.71,-30.0729 1639.84,-21.5487"/>
<polygon fill="midnightblue" stroke="midnightblue" points="2206.57,-143.158 2216.67,-139.942 2206.77,-136.161 2206.57,-143.158"/>
</g>
<!-- Node20 -->
<g id="node39" class="node"><title>Node20</title>
<a xlink:href="CardWindowManager_8cpp.htm" target="_top" xlink:title="CardWindowManager.cpp">
<polygon fill="white" stroke="black" points="1802,-65.5 1802,-86.5 1942,-86.5 1942,-65.5 1802,-65.5"/>
<text text-anchor="middle" x="1872" y="-73.5" font-family="Helvetica,sans-Serif" font-size="10.00">CardWindowManager.cpp</text>
</a>
</g>
<!-- Node1&#45;&gt;Node20 -->
<g id="edge38" class="edge"><title>Node1&#45;&gt;Node20</title>
<path fill="none" stroke="midnightblue" d="M2206.77,-133.717C2143.85,-125.406 2039.87,-110.773 1951,-94 1939.53,-91.8347 1927.19,-89.1814 1915.75,-86.5841"/>
<polygon fill="midnightblue" stroke="midnightblue" points="2206.51,-137.214 2216.89,-135.046 2207.43,-130.274 2206.51,-137.214"/>
</g>
<!-- Node21 -->
<g id="node41" class="node"><title>Node21</title>
<a xlink:href="DockModeClock_8cpp.htm" target="_top" xlink:title="DockModeClock.cpp">
<polygon fill="white" stroke="black" points="1959.5,-65.5 1959.5,-86.5 2072.5,-86.5 2072.5,-65.5 1959.5,-65.5"/>
<text text-anchor="middle" x="2016" y="-73.5" font-family="Helvetica,sans-Serif" font-size="10.00">DockModeClock.cpp</text>
</a>
</g>
<!-- Node1&#45;&gt;Node21 -->
<g id="edge40" class="edge"><title>Node1&#45;&gt;Node21</title>
<path fill="none" stroke="midnightblue" d="M2212.18,-127.967C2175.5,-118.675 2125.18,-105.789 2081,-94 2072.18,-91.6452 2062.69,-89.0543 2053.78,-86.5898"/>
<polygon fill="midnightblue" stroke="midnightblue" points="2211.6,-131.429 2222.15,-130.489 2213.31,-124.643 2211.6,-131.429"/>
</g>
<!-- Node22 -->
<g id="node43" class="node"><title>Node22</title>
<a xlink:href="DockModeLaunchPoint_8cpp.htm" target="_top" xlink:title="DockModeLaunchPoint.cpp">
<polygon fill="white" stroke="black" points="2090,-65.5 2090,-86.5 2236,-86.5 2236,-65.5 2090,-65.5"/>
<text text-anchor="middle" x="2163" y="-73.5" font-family="Helvetica,sans-Serif" font-size="10.00">DockModeLaunchPoint.cpp</text>
</a>
</g>
<!-- Node1&#45;&gt;Node22 -->
<g id="edge42" class="edge"><title>Node1&#45;&gt;Node22</title>
<path fill="none" stroke="midnightblue" d="M2238.76,-124.754C2220.17,-112.792 2195.44,-96.8743 2179.37,-86.5337"/>
<polygon fill="midnightblue" stroke="midnightblue" points="2237.02,-127.798 2247.32,-130.267 2240.81,-121.912 2237.02,-127.798"/>
</g>
<!-- Node23 -->
<g id="node45" class="node"><title>Node23</title>
<a xlink:href="DockModeMenuManager_8cpp.htm" target="_top" xlink:title="DockModeMenuManager.cpp">
<polygon fill="white" stroke="black" points="1677,-0.5 1677,-21.5 1833,-21.5 1833,-0.5 1677,-0.5"/>
<text text-anchor="middle" x="1755" y="-8.5" font-family="Helvetica,sans-Serif" font-size="10.00">DockModeMenuManager.cpp</text>
</a>
</g>
<!-- Node1&#45;&gt;Node23 -->
<g id="edge44" class="edge"><title>Node1&#45;&gt;Node23</title>
<path fill="none" stroke="midnightblue" d="M2206.69,-138.458C2088.52,-132.761 1826.02,-117.595 1793,-94 1768.63,-76.5852 1759.53,-39.6445 1756.44,-21.5013"/>
<polygon fill="midnightblue" stroke="midnightblue" points="2206.83,-141.968 2216.99,-138.948 2207.17,-134.976 2206.83,-141.968"/>
</g>
<!-- Node24 -->
<g id="node47" class="node"><title>Node24</title>
<a xlink:href="DockModeWindow_8cpp.htm" target="_top" xlink:title="DockModeWindow.cpp">
<polygon fill="white" stroke="black" points="1850.5,-0.5 1850.5,-21.5 1975.5,-21.5 1975.5,-0.5 1850.5,-0.5"/>
<text text-anchor="middle" x="1913" y="-8.5" font-family="Helvetica,sans-Serif" font-size="10.00">DockModeWindow.cpp</text>
</a>
</g>
<!-- Node1&#45;&gt;Node24 -->
<g id="edge46" class="edge"><title>Node1&#45;&gt;Node24</title>
<path fill="none" stroke="midnightblue" d="M2265.35,-120.146C2265.36,-101.1 2262.04,-73.6055 2245,-58 2201.82,-18.46 2041.93,-30.4823 1984,-22 1981.28,-21.6024 1978.51,-21.192 1975.71,-20.7738"/>
<polygon fill="midnightblue" stroke="midnightblue" points="2261.85,-120.128 2265.05,-130.23 2268.85,-120.341 2261.85,-120.128"/>
</g>
<!-- Node25 -->
<g id="node49" class="node"><title>Node25</title>
<a xlink:href="DockModeWindowManager_8cpp.htm" target="_top" xlink:title="DockModeWindowManager.cpp">
<polygon fill="white" stroke="black" points="1992.5,-0.5 1992.5,-21.5 2159.5,-21.5 2159.5,-0.5 1992.5,-0.5"/>
<text text-anchor="middle" x="2076" y="-8.5" font-family="Helvetica,sans-Serif" font-size="10.00">DockModeWindowManager.cpp</text>
</a>
</g>
<!-- Node1&#45;&gt;Node25 -->
<g id="edge48" class="edge"><title>Node1&#45;&gt;Node25</title>
<path fill="none" stroke="midnightblue" d="M2275.09,-121.359C2283.79,-103.051 2292.25,-75.9465 2278,-58 2269.17,-46.8794 2194.52,-31.6175 2138.52,-21.5407"/>
<polygon fill="midnightblue" stroke="midnightblue" points="2271.97,-119.78 2270.51,-130.274 2278.2,-122.979 2271.97,-119.78"/>
</g>
<!-- Node26 -->
<g id="node51" class="node"><title>Node26</title>
<a xlink:href="EmergencyWindowManager_8cpp.htm" target="_top" xlink:title="EmergencyWindowManager.cpp">
<polygon fill="white" stroke="black" points="2464,-65.5 2464,-86.5 2634,-86.5 2634,-65.5 2464,-65.5"/>
<text text-anchor="middle" x="2549" y="-73.5" font-family="Helvetica,sans-Serif" font-size="10.00">EmergencyWindowManager.cpp</text>
</a>
</g>
<!-- Node1&#45;&gt;Node26 -->
<g id="edge50" class="edge"><title>Node1&#45;&gt;Node26</title>
<path fill="none" stroke="midnightblue" d="M2320.11,-128.204C2373.57,-116.01 2453.11,-97.8699 2502.96,-86.5005"/>
<polygon fill="midnightblue" stroke="midnightblue" points="2319.08,-124.848 2310.11,-130.484 2320.63,-131.673 2319.08,-124.848"/>
</g>
<!-- Node27 -->
<g id="node53" class="node"><title>Node27</title>
<a xlink:href="WindowServerLuna_8h.htm" target="_top" xlink:title="WindowServerLuna.h">
<polygon fill="white" stroke="red" points="2329.5,-65.5 2329.5,-86.5 2446.5,-86.5 2446.5,-65.5 2329.5,-65.5"/>
<text text-anchor="middle" x="2388" y="-73.5" font-family="Helvetica,sans-Serif" font-size="10.00">WindowServerLuna.h</text>
</a>
</g>
<!-- Node1&#45;&gt;Node27 -->
<g id="edge52" class="edge"><title>Node1&#45;&gt;Node27</title>
<path fill="none" stroke="midnightblue" d="M2293.16,-125.715C2316.13,-113.675 2347.55,-97.2053 2367.81,-86.5835"/>
<polygon fill="midnightblue" stroke="midnightblue" points="2291.43,-122.669 2284.2,-130.412 2294.68,-128.869 2291.43,-122.669"/>
</g>
<!-- Node32 -->
<g id="node71" class="node"><title>Node32</title>
<a xlink:href="dimensionsglobal_8cpp.htm" target="_top" xlink:title="dimensionsglobal.cpp">
<polygon fill="white" stroke="black" points="3238.5,-0.5 3238.5,-21.5 3355.5,-21.5 3355.5,-0.5 3238.5,-0.5"/>
<text text-anchor="middle" x="3297" y="-8.5" font-family="Helvetica,sans-Serif" font-size="10.00">dimensionsglobal.cpp</text>
</a>
</g>
<!-- Node1&#45;&gt;Node32 -->
<g id="edge86" class="edge"><title>Node1&#45;&gt;Node32</title>
<path fill="none" stroke="midnightblue" d="M2321.25,-138.268C2412.74,-133.178 2587.28,-120.29 2643,-94 2664.04,-84.0723 2659.68,-67.3146 2681,-58 2793.03,-9.04903 3108.53,-35.9203 3230,-22 3232.69,-21.6913 3235.44,-21.3493 3238.22,-20.9825"/>
<polygon fill="midnightblue" stroke="midnightblue" points="2320.84,-134.785 2311.05,-138.822 2321.22,-141.775 2320.84,-134.785"/>
</g>
<!-- Node35 -->
<g id="node77" class="node"><title>Node35</title>
<a xlink:href="DashboardWindowManager_8cpp.htm" target="_top" xlink:title="DashboardWindowManager.cpp">
<polygon fill="white" stroke="black" points="3987,-0.5 3987,-21.5 4155,-21.5 4155,-0.5 3987,-0.5"/>
<text text-anchor="middle" x="4071" y="-8.5" font-family="Helvetica,sans-Serif" font-size="10.00">DashboardWindowManager.cpp</text>
</a>
</g>
<!-- Node1&#45;&gt;Node35 -->
<g id="edge100" class="edge"><title>Node1&#45;&gt;Node35</title>
<path fill="none" stroke="midnightblue" d="M2321.14,-140.917C2670.51,-140.275 4504.88,-134.956 4545,-94 4556.2,-82.5704 4555.74,-69.8588 4545,-58 4519.38,-29.7102 4284.18,-17.7796 4155.02,-13.326"/>
<polygon fill="midnightblue" stroke="midnightblue" points="2321,-137.417 2311,-140.935 2321.01,-144.417 2321,-137.417"/>
</g>
<!-- Node36 -->
<g id="node80" class="node"><title>Node36</title>
<a xlink:href="dimensionslauncher_8cpp.htm" target="_top" xlink:title="dimensionslauncher.cpp">
<polygon fill="white" stroke="black" points="2876,-65.5 2876,-86.5 3006,-86.5 3006,-65.5 2876,-65.5"/>
<text text-anchor="middle" x="2941" y="-73.5" font-family="Helvetica,sans-Serif" font-size="10.00">dimensionslauncher.cpp</text>
</a>
</g>
<!-- Node1&#45;&gt;Node36 -->
<g id="edge88" class="edge"><title>Node1&#45;&gt;Node36</title>
<path fill="none" stroke="midnightblue" d="M2321.41,-139.267C2428.33,-135.425 2664.98,-124.025 2862,-94 2874.38,-92.1139 2887.7,-89.3637 2899.81,-86.5781"/>
<polygon fill="midnightblue" stroke="midnightblue" points="2321.04,-135.778 2311.17,-139.626 2321.29,-142.774 2321.04,-135.778"/>
</g>
<!-- Node37 -->
<g id="node82" class="node"><title>Node37</title>
<a xlink:href="OverlayWindowManager_8cpp.htm" target="_top" xlink:title="OverlayWindowManager.cpp">
<polygon fill="white" stroke="black" points="3023.5,-65.5 3023.5,-86.5 3176.5,-86.5 3176.5,-65.5 3023.5,-65.5"/>
<text text-anchor="middle" x="3100" y="-73.5" font-family="Helvetica,sans-Serif" font-size="10.00">OverlayWindowManager.cpp</text>
</a>
</g>
<!-- Node1&#45;&gt;Node37 -->
<g id="edge90" class="edge"><title>Node1&#45;&gt;Node37</title>
<path fill="none" stroke="midnightblue" d="M2321.44,-140.263C2447.54,-138.019 2757.85,-129.082 3015,-94 3028.45,-92.1649 3042.95,-89.3953 3056.1,-86.5752"/>
<polygon fill="midnightblue" stroke="midnightblue" points="2321.19,-136.766 2311.25,-140.436 2321.31,-143.765 2321.19,-136.766"/>
</g>
<!-- Node38 -->
<g id="node84" class="node"><title>Node38</title>
<a xlink:href="TopLevelWindowManager_8cpp.htm" target="_top" xlink:title="TopLevelWindowManager.cpp">
<polygon fill="white" stroke="black" points="3193.5,-65.5 3193.5,-86.5 3354.5,-86.5 3354.5,-65.5 3193.5,-65.5"/>
<text text-anchor="middle" x="3274" y="-73.5" font-family="Helvetica,sans-Serif" font-size="10.00">TopLevelWindowManager.cpp</text>
</a>
</g>
<!-- Node1&#45;&gt;Node38 -->
<g id="edge92" class="edge"><title>Node1&#45;&gt;Node38</title>
<path fill="none" stroke="midnightblue" d="M2321.24,-139.195C2495.29,-133.529 3016.59,-115.209 3185,-94 3199.23,-92.2076 3214.59,-89.4151 3228.48,-86.5599"/>
<polygon fill="midnightblue" stroke="midnightblue" points="2320.9,-135.704 2311.01,-139.526 2321.12,-142.7 2320.9,-135.704"/>
</g>
<!-- Node39 -->
<g id="node86" class="node"><title>Node39</title>
<a xlink:href="AlertWindow_8cpp.htm" target="_top" xlink:title="AlertWindow.cpp">
<polygon fill="white" stroke="black" points="3371.5,-65.5 3371.5,-86.5 3466.5,-86.5 3466.5,-65.5 3371.5,-65.5"/>
<text text-anchor="middle" x="3419" y="-73.5" font-family="Helvetica,sans-Serif" font-size="10.00">AlertWindow.cpp</text>
</a>
</g>
<!-- Node1&#45;&gt;Node39 -->
<g id="edge94" class="edge"><title>Node1&#45;&gt;Node39</title>
<path fill="none" stroke="midnightblue" d="M2321.21,-140.574C2517.1,-138.801 3159.96,-130.291 3363,-94 3372.35,-92.329 3382.3,-89.4965 3391.17,-86.567"/>
<polygon fill="midnightblue" stroke="midnightblue" points="2321.1,-137.075 2311.13,-140.663 2321.16,-144.075 2321.1,-137.075"/>
</g>
<!-- Node40 -->
<g id="node88" class="node"><title>Node40</title>
<a xlink:href="BannerMessageHandler_8cpp.htm" target="_top" xlink:title="BannerMessageHandler.cpp">
<polygon fill="white" stroke="black" points="3484,-65.5 3484,-86.5 3636,-86.5 3636,-65.5 3484,-65.5"/>
<text text-anchor="middle" x="3560" y="-73.5" font-family="Helvetica,sans-Serif" font-size="10.00">BannerMessageHandler.cpp</text>
</a>
</g>
<!-- Node1&#45;&gt;Node40 -->
<g id="edge96" class="edge"><title>Node1&#45;&gt;Node40</title>
<path fill="none" stroke="midnightblue" d="M2321.24,-140.069C2529.63,-136.478 3247.47,-122.298 3475,-94 3488.77,-92.2872 3503.62,-89.4808 3517,-86.588"/>
<polygon fill="midnightblue" stroke="midnightblue" points="2321.06,-136.571 2311.13,-140.242 2321.18,-143.57 2321.06,-136.571"/>
</g>
<!-- Node41 -->
<g id="node90" class="node"><title>Node41</title>
<a xlink:href="BannerWindow_8cpp.htm" target="_top" xlink:title="BannerWindow.cpp">
<polygon fill="white" stroke="black" points="3654,-65.5 3654,-86.5 3762,-86.5 3762,-65.5 3654,-65.5"/>
<text text-anchor="middle" x="3708" y="-73.5" font-family="Helvetica,sans-Serif" font-size="10.00">BannerWindow.cpp</text>
</a>
</g>
<!-- Node1&#45;&gt;Node41 -->
<g id="edge98" class="edge"><title>Node1&#45;&gt;Node41</title>
<path fill="none" stroke="midnightblue" d="M2321.4,-139.874C2565.78,-134.968 3513.08,-114.77 3645,-94 3655.56,-92.337 3666.86,-89.4684 3676.93,-86.5038"/>
<polygon fill="midnightblue" stroke="midnightblue" points="2321.24,-136.376 2311.31,-140.076 2321.38,-143.375 2321.24,-136.376"/>
</g>
<!-- Node42 -->
<g id="node93" class="node"><title>Node42</title>
<a xlink:href="NativeAlertManager_8cpp.htm" target="_top" xlink:title="NativeAlertManager.cpp">
<polygon fill="white" stroke="black" points="3779.5,-65.5 3779.5,-86.5 3910.5,-86.5 3910.5,-65.5 3779.5,-65.5"/>
<text text-anchor="middle" x="3845" y="-73.5" font-family="Helvetica,sans-Serif" font-size="10.00">NativeAlertManager.cpp</text>
</a>
</g>
<!-- Node1&#45;&gt;Node42 -->
<g id="edge102" class="edge"><title>Node1&#45;&gt;Node42</title>
<path fill="none" stroke="midnightblue" d="M2321.61,-140.8C2561.65,-139.721 3483.15,-133.066 3771,-94 3783.18,-92.3463 3796.28,-89.5186 3808.02,-86.5882"/>
<polygon fill="midnightblue" stroke="midnightblue" points="2321.35,-137.301 2311.36,-140.845 2321.38,-144.301 2321.35,-137.301"/>
</g>
<!-- Node43 -->
<g id="node95" class="node"><title>Node43</title>
<a xlink:href="VolumeControlAlertWindow_8cpp.htm" target="_top" xlink:title="VolumeControlAlertWindow.cpp">
<polygon fill="white" stroke="black" points="3928,-65.5 3928,-86.5 4092,-86.5 4092,-65.5 3928,-65.5"/>
<text text-anchor="middle" x="4010" y="-73.5" font-family="Helvetica,sans-Serif" font-size="10.00">VolumeControlAlertWindow.cpp</text>
</a>
</g>
<!-- Node1&#45;&gt;Node43 -->
<g id="edge104" class="edge"><title>Node1&#45;&gt;Node43</title>
<path fill="none" stroke="midnightblue" d="M2321.3,-140.657C2575.12,-138.938 3599.58,-129.873 3919,-94 3933.88,-92.3285 3949.96,-89.4959 3964.41,-86.5664"/>
<polygon fill="midnightblue" stroke="midnightblue" points="2321.17,-137.157 2311.2,-140.724 2321.22,-144.157 2321.17,-137.157"/>
</g>
<!-- Node44 -->
<g id="node97" class="node"><title>Node44</title>
<a xlink:href="MenuWindowManager_8cpp.htm" target="_top" xlink:title="MenuWindowManager.cpp">
<polygon fill="white" stroke="black" points="4109.5,-65.5 4109.5,-86.5 4252.5,-86.5 4252.5,-65.5 4109.5,-65.5"/>
<text text-anchor="middle" x="4181" y="-73.5" font-family="Helvetica,sans-Serif" font-size="10.00">MenuWindowManager.cpp</text>
</a>
</g>
<!-- Node1&#45;&gt;Node44 -->
<g id="edge106" class="edge"><title>Node1&#45;&gt;Node44</title>
<path fill="none" stroke="midnightblue" d="M2321.72,-140.196C2613.7,-136.039 3921.18,-116.312 4101,-94 4114.28,-92.3522 4128.59,-89.4877 4141.39,-86.522"/>
<polygon fill="midnightblue" stroke="midnightblue" points="2321.31,-136.701 2311.36,-140.343 2321.41,-143.701 2321.31,-136.701"/>
</g>
<!-- Node45 -->
<g id="node99" class="node"><title>Node45</title>
<a xlink:href="SystemMenu_8cpp.htm" target="_top" xlink:title="SystemMenu.cpp">
<polygon fill="white" stroke="black" points="4269.5,-65.5 4269.5,-86.5 4366.5,-86.5 4366.5,-65.5 4269.5,-65.5"/>
<text text-anchor="middle" x="4318" y="-73.5" font-family="Helvetica,sans-Serif" font-size="10.00">SystemMenu.cpp</text>
</a>
</g>
<!-- Node1&#45;&gt;Node45 -->
<g id="edge108" class="edge"><title>Node1&#45;&gt;Node45</title>
<path fill="none" stroke="midnightblue" d="M2321.75,-140.612C2629.06,-138.415 4065.64,-126.47 4261,-94 4270.62,-92.4006 4280.86,-89.5489 4289.97,-86.5801"/>
<polygon fill="midnightblue" stroke="midnightblue" points="2321.28,-137.115 2311.3,-140.686 2321.33,-144.115 2321.28,-137.115"/>
</g>
<!-- Node46 -->
<g id="node102" class="node"><title>Node46</title>
<a xlink:href="WindowManagerMinimal_8cpp.htm" target="_top" xlink:title="WindowManagerMinimal.cpp">
<polygon fill="white" stroke="black" points="4384,-65.5 4384,-86.5 4536,-86.5 4536,-65.5 4384,-65.5"/>
<text text-anchor="middle" x="4460" y="-73.5" font-family="Helvetica,sans-Serif" font-size="10.00">WindowManagerMinimal.cpp</text>
</a>
</g>
<!-- Node1&#45;&gt;Node46 -->
<g id="edge112" class="edge"><title>Node1&#45;&gt;Node46</title>
<path fill="none" stroke="midnightblue" d="M2321.41,-140.362C2638.22,-136.753 4166.28,-118.209 4375,-94 4389.08,-92.3664 4404.29,-89.5055 4417.89,-86.539"/>
<polygon fill="midnightblue" stroke="midnightblue" points="2321.04,-136.865 2311.09,-140.479 2321.12,-143.865 2321.04,-136.865"/>
</g>
<!-- Node47 -->
<g id="node104" class="node"><title>Node47</title>
<a xlink:href="WindowServerMinimal_8h.htm" target="_top" xlink:title="WindowServerMinimal.h">
<polygon fill="white" stroke="red" points="2690,-65.5 2690,-86.5 2820,-86.5 2820,-65.5 2690,-65.5"/>
<text text-anchor="middle" x="2755" y="-73.5" font-family="Helvetica,sans-Serif" font-size="10.00">WindowServerMinimal.h</text>
</a>
</g>
<!-- Node1&#45;&gt;Node47 -->
<g id="edge114" class="edge"><title>Node1&#45;&gt;Node47</title>
<path fill="none" stroke="midnightblue" d="M2321.53,-136.457C2401.43,-129.689 2550.35,-115.414 2676,-94 2687.93,-91.9676 2700.75,-89.2693 2712.53,-86.5819"/>
<polygon fill="midnightblue" stroke="midnightblue" points="2320.87,-133 2311.2,-137.323 2321.45,-139.976 2320.87,-133"/>
</g>
<!-- Node48 -->
<g id="node107" class="node"><title>Node48</title>
<a xlink:href="IpcClientHost_8cpp.htm" target="_top" xlink:title="IpcClientHost.cpp">
<polygon fill="white" stroke="black" points="4591.5,-65.5 4591.5,-86.5 4690.5,-86.5 4690.5,-65.5 4591.5,-65.5"/>
<text text-anchor="middle" x="4641" y="-73.5" font-family="Helvetica,sans-Serif" font-size="10.00">IpcClientHost.cpp</text>
</a>
</g>
<!-- Node1&#45;&gt;Node48 -->
<g id="edge118" class="edge"><title>Node1&#45;&gt;Node48</title>
<path fill="none" stroke="midnightblue" d="M2321.5,-140.719C2656.46,-138.964 4349.03,-128.442 4578,-94 4588.57,-92.4095 4599.88,-89.5601 4609.95,-86.5908"/>
<polygon fill="midnightblue" stroke="midnightblue" points="2321.06,-137.221 2311.07,-140.773 2321.09,-144.221 2321.06,-137.221"/>
</g>
<!-- Node49 -->
<g id="node109" class="node"><title>Node49</title>
<a xlink:href="IpcServer_8cpp.htm" target="_top" xlink:title="IpcServer.cpp">
<polygon fill="white" stroke="black" points="4708,-65.5 4708,-86.5 4790,-86.5 4790,-65.5 4708,-65.5"/>
<text text-anchor="middle" x="4749" y="-73.5" font-family="Helvetica,sans-Serif" font-size="10.00">IpcServer.cpp</text>
</a>
</g>
<!-- Node1&#45;&gt;Node49 -->
<g id="edge120" class="edge"><title>Node1&#45;&gt;Node49</title>
<path fill="none" stroke="midnightblue" d="M2321.18,-140.423C2677.17,-136.765 4578.44,-116.241 4699,-94 4707.62,-92.4099 4716.73,-89.5212 4724.77,-86.5166"/>
<polygon fill="midnightblue" stroke="midnightblue" points="2321.07,-136.924 2311.11,-140.526 2321.14,-143.923 2321.07,-136.924"/>
</g>
<!-- Node50 -->
<g id="node111" class="node"><title>Node50</title>
<a xlink:href="WebAppMgrProxy_8cpp.htm" target="_top" xlink:title="WebAppMgrProxy.cpp">
<polygon fill="white" stroke="black" points="4808,-65.5 4808,-86.5 4930,-86.5 4930,-65.5 4808,-65.5"/>
<text text-anchor="middle" x="4869" y="-73.5" font-family="Helvetica,sans-Serif" font-size="10.00">WebAppMgrProxy.cpp</text>
</a>
</g>
<!-- Node1&#45;&gt;Node50 -->
<g id="edge122" class="edge"><title>Node1&#45;&gt;Node50</title>
<path fill="none" stroke="midnightblue" d="M2321.27,-140.739C2674.13,-139.023 4546.33,-128.349 4799,-94 4810.69,-92.4111 4823.23,-89.5622 4834.42,-86.5928"/>
<polygon fill="midnightblue" stroke="midnightblue" points="2321.02,-137.24 2311.03,-140.788 2321.05,-144.24 2321.02,-137.24"/>
</g>
<!-- Node7&#45;&gt;Node8 -->
<g id="edge14" class="edge"><title>Node7&#45;&gt;Node8</title>
<path fill="none" stroke="midnightblue" d="M247.811,-62.5262C291.519,-49.671 356.068,-30.686 393.39,-19.7087"/>
<polygon fill="midnightblue" stroke="midnightblue" points="246.605,-59.2324 237.999,-65.412 248.581,-65.948 246.605,-59.2324"/>
</g>
<!-- Node27&#45;&gt;Node3 -->
<g id="edge54" class="edge"><title>Node27&#45;&gt;Node3</title>
<path fill="none" stroke="midnightblue" d="M2319.13,-65.9962C2295.66,-62.9427 2269.23,-59.8947 2245,-58 1728.11,-17.5796 1597.08,-42.0705 1079,-22 1021.41,-19.7691 955.952,-16.6737 908.604,-14.3346"/>
<polygon fill="midnightblue" stroke="midnightblue" points="2318.96,-69.5049 2329.34,-67.3484 2319.88,-62.5656 2318.96,-69.5049"/>
</g>
<!-- Node27&#45;&gt;Node11 -->
<g id="edge58" class="edge"><title>Node27&#45;&gt;Node11</title>
<path fill="none" stroke="midnightblue" d="M2319.11,-66.1651C2295.64,-63.1242 2269.22,-60.0409 2245,-58 2219.2,-55.8261 1444.9,-23.3091 1214.85,-13.6721"/>
<polygon fill="midnightblue" stroke="midnightblue" points="2318.95,-69.6739 2329.32,-67.5088 2319.87,-62.7338 2318.95,-69.6739"/>
</g>
<!-- Node27&#45;&gt;Node15 -->
<g id="edge60" class="edge"><title>Node27&#45;&gt;Node15</title>
<path fill="none" stroke="midnightblue" d="M2431.17,-62.894C2439.03,-60.9389 2447.21,-59.1849 2455,-58 2854.71,2.82861 2962.08,-65.9821 3364,-22 3366.78,-21.6956 3369.63,-21.3396 3372.49,-20.9456"/>
<polygon fill="midnightblue" stroke="midnightblue" points="2430.21,-59.5262 2421.43,-65.4502 2431.99,-66.2969 2430.21,-59.5262"/>
</g>
<!-- Node27&#45;&gt;Node18 -->
<g id="edge62" class="edge"><title>Node27&#45;&gt;Node18</title>
<path fill="none" stroke="midnightblue" d="M2319.1,-66.2926C2295.63,-63.2612 2269.21,-60.1513 2245,-58 1938.68,-30.7784 1859.79,-54.6022 1554,-22 1551.26,-21.7084 1548.47,-21.3804 1545.65,-21.0249"/>
<polygon fill="midnightblue" stroke="midnightblue" points="2318.94,-69.8015 2329.31,-67.6299 2319.85,-62.8608 2318.94,-69.8015"/>
</g>
<!-- Node27&#45;&gt;Node19 -->
<g id="edge64" class="edge"><title>Node27&#45;&gt;Node19</title>
<path fill="none" stroke="midnightblue" d="M2319.09,-66.4361C2295.62,-63.4153 2269.2,-60.2754 2245,-58 1989.19,-33.9435 1922.89,-54.4103 1668,-22 1665.3,-21.6568 1662.54,-21.2636 1659.75,-20.8348"/>
<polygon fill="midnightblue" stroke="midnightblue" points="2318.93,-69.945 2329.3,-67.7662 2319.84,-63.0037 2318.93,-69.945"/>
</g>
<!-- Node27&#45;&gt;Node23 -->
<g id="edge68" class="edge"><title>Node27&#45;&gt;Node23</title>
<path fill="none" stroke="midnightblue" d="M2319.05,-66.8102C2295.58,-63.8172 2269.16,-60.5992 2245,-58 2066.21,-38.7679 2020.79,-41.2817 1842,-22 1839.12,-21.6898 1836.2,-21.3651 1833.24,-21.0297"/>
<polygon fill="midnightblue" stroke="midnightblue" points="2318.9,-70.3194 2329.27,-68.1215 2319.79,-63.3764 2318.9,-70.3194"/>
</g>
<!-- Node27&#45;&gt;Node24 -->
<g id="edge72" class="edge"><title>Node27&#45;&gt;Node24</title>
<path fill="none" stroke="midnightblue" d="M2319.02,-64.2744C2305.44,-62.0895 2291.28,-59.8989 2278,-58 2147.68,-39.3668 2114.4,-40.0797 1984,-22 1981.28,-21.6231 1978.51,-21.2298 1975.7,-20.8256"/>
<polygon fill="midnightblue" stroke="midnightblue" points="2318.84,-67.7907 2329.27,-65.9392 2319.96,-60.8812 2318.84,-67.7907"/>
</g>
<!-- Node27&#45;&gt;Node25 -->
<g id="edge74" class="edge"><title>Node27&#45;&gt;Node25</title>
<path fill="none" stroke="midnightblue" d="M2337.6,-63.0502C2330.37,-61.2932 2323,-59.5601 2316,-58 2254.25,-44.2447 2183.08,-30.5797 2134.37,-21.5596"/>
<polygon fill="midnightblue" stroke="midnightblue" points="2336.8,-66.4565 2347.34,-65.447 2338.47,-59.6592 2336.8,-66.4565"/>
</g>
<!-- Node28 -->
<g id="node56" class="node"><title>Node28</title>
<a xlink:href="ApplicationManagerService_8cpp.htm" target="_top" xlink:title="ApplicationManagerService.cpp">
<polygon fill="white" stroke="black" points="2367,-0.5 2367,-21.5 2533,-21.5 2533,-0.5 2367,-0.5"/>
<text text-anchor="middle" x="2450" y="-8.5" font-family="Helvetica,sans-Serif" font-size="10.00">ApplicationManagerService.cpp</text>
</a>
</g>
<!-- Node27&#45;&gt;Node28 -->
<g id="edge56" class="edge"><title>Node27&#45;&gt;Node28</title>
<path fill="none" stroke="midnightblue" d="M2405.4,-57.7628C2416.55,-46.0723 2430.63,-31.3103 2439.95,-21.5337"/>
<polygon fill="midnightblue" stroke="midnightblue" points="2402.61,-55.6147 2398.24,-65.2666 2407.67,-60.4462 2402.61,-55.6147"/>
</g>
<!-- Node29 -->
<g id="node62" class="node"><title>Node29</title>
<a xlink:href="DockModeAppMenuContainer_8cpp.htm" target="_top" xlink:title="DockModeAppMenuContainer.cpp">
<polygon fill="white" stroke="black" points="2550.5,-0.5 2550.5,-21.5 2729.5,-21.5 2729.5,-0.5 2550.5,-0.5"/>
<text text-anchor="middle" x="2640" y="-8.5" font-family="Helvetica,sans-Serif" font-size="10.00">DockModeAppMenuContainer.cpp</text>
</a>
</g>
<!-- Node27&#45;&gt;Node29 -->
<g id="edge66" class="edge"><title>Node27&#45;&gt;Node29</title>
<path fill="none" stroke="midnightblue" d="M2437.02,-62.7467C2443.07,-61.1352 2449.18,-59.5218 2455,-58 2503.89,-45.222 2560.18,-30.9892 2597.71,-21.5694"/>
<polygon fill="midnightblue" stroke="midnightblue" points="2435.7,-59.4764 2426.95,-65.4401 2437.51,-66.2389 2435.7,-59.4764"/>
</g>
<!-- Node30 -->
<g id="node65" class="node"><title>Node30</title>
<a xlink:href="DockModePositionManager_8cpp.htm" target="_top" xlink:title="DockModePositionManager.cpp">
<polygon fill="white" stroke="black" points="2746.5,-0.5 2746.5,-21.5 2913.5,-21.5 2913.5,-0.5 2746.5,-0.5"/>
<text text-anchor="middle" x="2830" y="-8.5" font-family="Helvetica,sans-Serif" font-size="10.00">DockModePositionManager.cpp</text>
</a>
</g>
<!-- Node27&#45;&gt;Node30 -->
<g id="edge70" class="edge"><title>Node27&#45;&gt;Node30</title>
<path fill="none" stroke="midnightblue" d="M2433.28,-62.9303C2440.51,-61.1066 2447.93,-59.3858 2455,-58 2469.13,-55.2311 2640.12,-34.1698 2746.27,-21.198"/>
<polygon fill="midnightblue" stroke="midnightblue" points="2432.39,-59.545 2423.6,-65.4591 2434.16,-66.3177 2432.39,-59.545"/>
</g>
<!-- Node31 -->
<g id="node69" class="node"><title>Node31</title>
<a xlink:href="FullEraseConfirmationWindow_8cpp.htm" target="_top" xlink:title="FullEraseConfirmationWindow.cpp">
<polygon fill="white" stroke="black" points="2930.5,-0.5 2930.5,-21.5 3107.5,-21.5 3107.5,-0.5 2930.5,-0.5"/>
<text text-anchor="middle" x="3019" y="-8.5" font-family="Helvetica,sans-Serif" font-size="10.00">FullEraseConfirmationWindow.cpp</text>
</a>
</g>
<!-- Node27&#45;&gt;Node31 -->
<g id="edge76" class="edge"><title>Node27&#45;&gt;Node31</title>
<path fill="none" stroke="midnightblue" d="M2432.22,-62.8808C2439.77,-60.9991 2447.57,-59.2729 2455,-58 2660.18,-22.8431 2714.77,-41.7316 2922,-22 2924.78,-21.7349 2927.61,-21.4583 2930.47,-21.1728"/>
<polygon fill="midnightblue" stroke="midnightblue" points="2431.29,-59.5063 2422.5,-65.4192 2433.06,-66.2793 2431.29,-59.5063"/>
</g>
<!-- Node27&#45;&gt;Node32 -->
<g id="edge78" class="edge"><title>Node27&#45;&gt;Node32</title>
<path fill="none" stroke="midnightblue" d="M2431.18,-62.9382C2439.04,-60.9785 2447.22,-59.2115 2455,-58 2795.71,-4.95849 2887.07,-57.9927 3230,-22 3232.7,-21.717 3235.45,-21.3961 3238.23,-21.0463"/>
<polygon fill="midnightblue" stroke="midnightblue" points="2430.22,-59.5707 2421.44,-65.4962 2432,-66.3411 2430.22,-59.5707"/>
</g>
<!-- Node33 -->
<g id="node73" class="node"><title>Node33</title>
<a xlink:href="LockWindow_8cpp.htm" target="_top" xlink:title="LockWindow.cpp">
<polygon fill="white" stroke="black" points="3125,-0.5 3125,-21.5 3221,-21.5 3221,-0.5 3125,-0.5"/>
<text text-anchor="middle" x="3173" y="-8.5" font-family="Helvetica,sans-Serif" font-size="10.00">LockWindow.cpp</text>
</a>
</g>
<!-- Node27&#45;&gt;Node33 -->
<g id="edge80" class="edge"><title>Node27&#45;&gt;Node33</title>
<path fill="none" stroke="midnightblue" d="M2431.7,-62.862C2439.4,-60.9476 2447.39,-59.2156 2455,-58 2745.53,-11.5813 2823.99,-57.9581 3116,-22 3118.9,-21.6428 3121.88,-21.2253 3124.87,-20.7659"/>
<polygon fill="midnightblue" stroke="midnightblue" points="2430.58,-59.5375 2421.79,-65.4557 2432.35,-66.3094 2430.58,-59.5375"/>
</g>
<!-- Node34 -->
<g id="node75" class="node"><title>Node34</title>
<a xlink:href="DashboardWindowContainer_8cpp.htm" target="_top" xlink:title="DashboardWindowContainer.cpp">
<polygon fill="white" stroke="black" points="2177,-0.5 2177,-21.5 2349,-21.5 2349,-0.5 2177,-0.5"/>
<text text-anchor="middle" x="2263" y="-8.5" font-family="Helvetica,sans-Serif" font-size="10.00">DashboardWindowContainer.cpp</text>
</a>
</g>
<!-- Node27&#45;&gt;Node34 -->
<g id="edge82" class="edge"><title>Node27&#45;&gt;Node34</title>
<path fill="none" stroke="midnightblue" d="M2358.61,-60.7148C2335.45,-48.6754 2303.78,-32.2053 2283.35,-21.5835"/>
<polygon fill="midnightblue" stroke="midnightblue" points="2357.15,-63.9036 2367.64,-65.412 2360.38,-57.6931 2357.15,-63.9036"/>
</g>
<!-- Node27&#45;&gt;Node35 -->
<g id="edge84" class="edge"><title>Node27&#45;&gt;Node35</title>
<path fill="none" stroke="midnightblue" d="M2430.91,-62.8888C2438.85,-60.9153 2447.12,-59.1563 2455,-58 2531.21,-46.811 3665.41,-20.2421 3986.74,-12.9054"/>
<polygon fill="midnightblue" stroke="midnightblue" points="2429.86,-59.5454 2421.08,-65.474 2431.64,-66.3151 2429.86,-59.5454"/>
</g>
<!-- Node47&#45;&gt;Node15 -->
<g id="edge116" class="edge"><title>Node47&#45;&gt;Node15</title>
<path fill="none" stroke="midnightblue" d="M2805.74,-63.2117C2815.09,-61.2055 2824.8,-59.3519 2834,-58 3067.59,-23.6702 3129.69,-50.994 3364,-22 3366.78,-21.6564 3369.62,-21.2691 3372.48,-20.8506"/>
<polygon fill="midnightblue" stroke="midnightblue" points="2804.77,-59.8405 2795.77,-65.432 2806.3,-66.6729 2804.77,-59.8405"/>
</g>
</g>
</svg>
