<?xml version="1.0" encoding="UTF-8" standalone="no"?>
<!DOCTYPE svg PUBLIC "-//W3C//DTD SVG 1.1//EN"
 "http://www.w3.org/Graphics/SVG/1.1/DTD/svg11.dtd">
<!-- Generated by graphviz version 2.26.3 (20100126.1600)
 -->
<!-- Title: WindowServerLuna.h Pages: 1 -->
<svg width="3130pt" height="88pt"
 viewBox="0.00 0.00 3130.00 88.00" xmlns="http://www.w3.org/2000/svg" xmlns:xlink="http://www.w3.org/1999/xlink">
<g id="graph1" class="graph" transform="scale(1 1) rotate(0) translate(4 84)">
<title>WindowServerLuna.h</title>
<polygon fill="white" stroke="white" points="-4,5 -4,-84 3127,-84 3127,5 -4,5"/>
<!-- Node1 -->
<g id="node1" class="node"><title>Node1</title>
<polygon fill="#bfbfbf" stroke="black" points="1486.5,-58.5 1486.5,-79.5 1603.5,-79.5 1603.5,-58.5 1486.5,-58.5"/>
<text text-anchor="middle" x="1545" y="-66.5" font-family="Helvetica,sans-Serif" font-size="10.00">WindowServerLuna.h</text>
</g>
<!-- Node2 -->
<g id="node3" class="node"><title>Node2</title>
<a xlink:href="ApplicationManager_8cpp.htm" target="_top" xlink:title="ApplicationManager.cpp">
<polygon fill="white" stroke="black" points="-0.5,-0.5 -0.5,-21.5 130.5,-21.5 130.5,-0.5 -0.5,-0.5"/>
<text text-anchor="middle" x="65" y="-8.5" font-family="Helvetica,sans-Serif" font-size="10.00">ApplicationManager.cpp</text>
</a>
</g>
<!-- Node1&#45;&gt;Node2 -->
<g id="edge2" class="edge"><title>Node1&#45;&gt;Node2</title>
<path fill="none" stroke="midnightblue" d="M1476.29,-67.7436C1231.59,-63.107 403.219,-45.9751 139,-22 136.284,-21.7535 133.515,-21.4734 130.721,-21.167"/>
<polygon fill="midnightblue" stroke="midnightblue" points="1476.4,-71.2463 1486.46,-67.9357 1476.53,-64.2476 1476.4,-71.2463"/>
</g>
<!-- Node3 -->
<g id="node5" class="node"><title>Node3</title>
<a xlink:href="ApplicationManagerService_8cpp.htm" target="_top" xlink:title="ApplicationManagerService.cpp">
<polygon fill="white" stroke="black" points="148,-0.5 148,-21.5 314,-21.5 314,-0.5 148,-0.5"/>
<text text-anchor="middle" x="231" y="-8.5" font-family="Helvetica,sans-Serif" font-size="10.00">ApplicationManagerService.cpp</text>
</a>
</g>
<!-- Node1&#45;&gt;Node3 -->
<g id="edge4" class="edge"><title>Node1&#45;&gt;Node3</title>
<path fill="none" stroke="midnightblue" d="M1476.21,-68.2949C1290.12,-65.9678 761.3,-56.575 323,-22 320.113,-21.7723 317.178,-21.5222 314.215,-21.2541"/>
<polygon fill="midnightblue" stroke="midnightblue" points="1476.35,-71.7968 1486.4,-68.4194 1476.44,-64.7973 1476.35,-71.7968"/>
</g>
<!-- Node4 -->
<g id="node7" class="node"><title>Node4</title>
<a xlink:href="SystemUiController_8cpp.htm" target="_top" xlink:title="SystemUiController.cpp">
<polygon fill="white" stroke="black" points="331.5,-0.5 331.5,-21.5 458.5,-21.5 458.5,-0.5 331.5,-0.5"/>
<text text-anchor="middle" x="395" y="-8.5" font-family="Helvetica,sans-Serif" font-size="10.00">SystemUiController.cpp</text>
</a>
</g>
<!-- Node1&#45;&gt;Node4 -->
<g id="edge6" class="edge"><title>Node1&#45;&gt;Node4</title>
<path fill="none" stroke="midnightblue" d="M1476.3,-68.5752C1305.31,-66.9596 847.03,-59.2048 467,-22 464.231,-21.7289 461.407,-21.4232 458.556,-21.0908"/>
<polygon fill="midnightblue" stroke="midnightblue" points="1476.39,-72.076 1486.42,-68.6667 1476.45,-65.0763 1476.39,-72.076"/>
</g>
<!-- Node5 -->
<g id="node9" class="node"><title>Node5</title>
<a xlink:href="WindowServer_8cpp.htm" target="_top" xlink:title="WindowServer.cpp">
<polygon fill="white" stroke="black" points="475.5,-0.5 475.5,-21.5 580.5,-21.5 580.5,-0.5 475.5,-0.5"/>
<text text-anchor="middle" x="528" y="-8.5" font-family="Helvetica,sans-Serif" font-size="10.00">WindowServer.cpp</text>
</a>
</g>
<!-- Node1&#45;&gt;Node5 -->
<g id="edge8" class="edge"><title>Node1&#45;&gt;Node5</title>
<path fill="none" stroke="midnightblue" d="M1476.36,-66.7808C1287.21,-60.4815 761.147,-41.6696 589,-22 586.22,-21.6824 583.376,-21.3158 580.509,-20.9135"/>
<polygon fill="midnightblue" stroke="midnightblue" points="1476.34,-70.2821 1486.45,-67.1157 1476.57,-63.2859 1476.34,-70.2821"/>
</g>
<!-- Node6 -->
<g id="node11" class="node"><title>Node6</title>
<a xlink:href="CardHostWindow_8cpp.htm" target="_top" xlink:title="CardHostWindow.cpp">
<polygon fill="white" stroke="black" points="597.5,-0.5 597.5,-21.5 716.5,-21.5 716.5,-0.5 597.5,-0.5"/>
<text text-anchor="middle" x="657" y="-8.5" font-family="Helvetica,sans-Serif" font-size="10.00">CardHostWindow.cpp</text>
</a>
</g>
<!-- Node1&#45;&gt;Node6 -->
<g id="edge10" class="edge"><title>Node1&#45;&gt;Node6</title>
<path fill="none" stroke="midnightblue" d="M1476.18,-67.4513C1334.98,-63.7463 1002.45,-52.31 725,-22 722.266,-21.7013 719.474,-21.3675 716.657,-21.0072"/>
<polygon fill="midnightblue" stroke="midnightblue" points="1476.33,-70.9562 1486.42,-67.7151 1476.51,-63.9586 1476.33,-70.9562"/>
</g>
<!-- Node7 -->
<g id="node13" class="node"><title>Node7</title>
<a xlink:href="CardWindow_8cpp.htm" target="_top" xlink:title="CardWindow.cpp">
<polygon fill="white" stroke="black" points="733.5,-0.5 733.5,-21.5 830.5,-21.5 830.5,-0.5 733.5,-0.5"/>
<text text-anchor="middle" x="782" y="-8.5" font-family="Helvetica,sans-Serif" font-size="10.00">CardWindow.cpp</text>
</a>
</g>
<!-- Node1&#45;&gt;Node7 -->
<g id="edge12" class="edge"><title>Node1&#45;&gt;Node7</title>
<path fill="none" stroke="midnightblue" d="M1475.86,-67.2445C1349.11,-63.3949 1071.25,-52.0231 839,-22 836.301,-21.6511 833.538,-21.2535 830.753,-20.8213"/>
<polygon fill="midnightblue" stroke="midnightblue" points="1476.08,-70.7527 1486.18,-67.5516 1476.29,-63.7558 1476.08,-70.7527"/>
</g>
<!-- Node8 -->
<g id="node15" class="node"><title>Node8</title>
<a xlink:href="DockModeAppMenuContainer_8cpp.htm" target="_top" xlink:title="DockModeAppMenuContainer.cpp">
<polygon fill="white" stroke="black" points="847.5,-0.5 847.5,-21.5 1026.5,-21.5 1026.5,-0.5 847.5,-0.5"/>
<text text-anchor="middle" x="937" y="-8.5" font-family="Helvetica,sans-Serif" font-size="10.00">DockModeAppMenuContainer.cpp</text>
</a>
</g>
<!-- Node1&#45;&gt;Node8 -->
<g id="edge14" class="edge"><title>Node1&#45;&gt;Node8</title>
<path fill="none" stroke="midnightblue" d="M1476.38,-63.1127C1378.42,-54.6079 1192.84,-38.1295 1035,-22 1032.27,-21.7215 1029.51,-21.4349 1026.71,-21.1422"/>
<polygon fill="midnightblue" stroke="midnightblue" points="1476.19,-66.6086 1486.45,-63.9853 1476.79,-59.6347 1476.19,-66.6086"/>
</g>
<!-- Node9 -->
<g id="node17" class="node"><title>Node9</title>
<a xlink:href="DockModeMenuManager_8cpp.htm" target="_top" xlink:title="DockModeMenuManager.cpp">
<polygon fill="white" stroke="black" points="1044,-0.5 1044,-21.5 1200,-21.5 1200,-0.5 1044,-0.5"/>
<text text-anchor="middle" x="1122" y="-8.5" font-family="Helvetica,sans-Serif" font-size="10.00">DockModeMenuManager.cpp</text>
</a>
</g>
<!-- Node1&#45;&gt;Node9 -->
<g id="edge16" class="edge"><title>Node1&#45;&gt;Node9</title>
<path fill="none" stroke="midnightblue" d="M1476.23,-59.5708C1400.22,-49.1479 1278.08,-32.4014 1198.94,-21.5496"/>
<polygon fill="midnightblue" stroke="midnightblue" points="1475.8,-63.0444 1486.18,-60.9353 1476.75,-56.1093 1475.8,-63.0444"/>
</g>
<!-- Node10 -->
<g id="node19" class="node"><title>Node10</title>
<a xlink:href="DockModePositionManager_8cpp.htm" target="_top" xlink:title="DockModePositionManager.cpp">
<polygon fill="white" stroke="black" points="1217.5,-0.5 1217.5,-21.5 1384.5,-21.5 1384.5,-0.5 1217.5,-0.5"/>
<text text-anchor="middle" x="1301" y="-8.5" font-family="Helvetica,sans-Serif" font-size="10.00">DockModePositionManager.cpp</text>
</a>
</g>
<!-- Node1&#45;&gt;Node10 -->
<g id="edge18" class="edge"><title>Node1&#45;&gt;Node10</title>
<path fill="none" stroke="midnightblue" d="M1490.91,-56.1424C1447.12,-45.7328 1386.19,-31.2511 1345.27,-21.5231"/>
<polygon fill="midnightblue" stroke="midnightblue" points="1490.28,-59.5891 1500.81,-58.4966 1491.89,-52.7788 1490.28,-59.5891"/>
</g>
<!-- Node11 -->
<g id="node21" class="node"><title>Node11</title>
<a xlink:href="DockModeWindow_8cpp.htm" target="_top" xlink:title="DockModeWindow.cpp">
<polygon fill="white" stroke="black" points="1401.5,-0.5 1401.5,-21.5 1526.5,-21.5 1526.5,-0.5 1401.5,-0.5"/>
<text text-anchor="middle" x="1464" y="-8.5" font-family="Helvetica,sans-Serif" font-size="10.00">DockModeWindow.cpp</text>
</a>
</g>
<!-- Node1&#45;&gt;Node11 -->
<g id="edge20" class="edge"><title>Node1&#45;&gt;Node11</title>
<path fill="none" stroke="midnightblue" d="M1521.62,-52.2587C1507.8,-42.3641 1490.72,-30.1361 1478.76,-21.5707"/>
<polygon fill="midnightblue" stroke="midnightblue" points="1519.98,-55.3857 1530.14,-58.3619 1524.05,-49.6943 1519.98,-55.3857"/>
</g>
<!-- Node12 -->
<g id="node23" class="node"><title>Node12</title>
<a xlink:href="DockModeWindowManager_8cpp.htm" target="_top" xlink:title="DockModeWindowManager.cpp">
<polygon fill="white" stroke="black" points="1543.5,-0.5 1543.5,-21.5 1710.5,-21.5 1710.5,-0.5 1543.5,-0.5"/>
<text text-anchor="middle" x="1627" y="-8.5" font-family="Helvetica,sans-Serif" font-size="10.00">DockModeWindowManager.cpp</text>
</a>
</g>
<!-- Node1&#45;&gt;Node12 -->
<g id="edge22" class="edge"><title>Node1&#45;&gt;Node12</title>
<path fill="none" stroke="midnightblue" d="M1568.27,-52.5407C1582.33,-42.5973 1599.83,-30.2177 1612.06,-21.5707"/>
<polygon fill="midnightblue" stroke="midnightblue" points="1566.18,-49.7298 1560.04,-58.3619 1570.23,-55.4447 1566.18,-49.7298"/>
</g>
<!-- Node13 -->
<g id="node25" class="node"><title>Node13</title>
<a xlink:href="FullEraseConfirmationWindow_8cpp.htm" target="_top" xlink:title="FullEraseConfirmationWindow.cpp">
<polygon fill="white" stroke="black" points="1727.5,-0.5 1727.5,-21.5 1904.5,-21.5 1904.5,-0.5 1727.5,-0.5"/>
<text text-anchor="middle" x="1816" y="-8.5" font-family="Helvetica,sans-Serif" font-size="10.00">FullEraseConfirmationWindow.cpp</text>
</a>
</g>
<!-- Node1&#45;&gt;Node13 -->
<g id="edge24" class="edge"><title>Node1&#45;&gt;Node13</title>
<path fill="none" stroke="midnightblue" d="M1604.16,-56.3391C1652.86,-45.9159 1721.09,-31.3126 1766.83,-21.5231"/>
<polygon fill="midnightblue" stroke="midnightblue" points="1603.12,-52.9812 1594.08,-58.4966 1604.59,-59.8262 1603.12,-52.9812"/>
</g>
<!-- Node14 -->
<g id="node27" class="node"><title>Node14</title>
<a xlink:href="dimensionsglobal_8cpp.htm" target="_top" xlink:title="dimensionsglobal.cpp">
<polygon fill="white" stroke="black" points="1921.5,-0.5 1921.5,-21.5 2038.5,-21.5 2038.5,-0.5 1921.5,-0.5"/>
<text text-anchor="middle" x="1980" y="-8.5" font-family="Helvetica,sans-Serif" font-size="10.00">dimensionsglobal.cpp</text>
</a>
</g>
<!-- Node1&#45;&gt;Node14 -->
<g id="edge26" class="edge"><title>Node1&#45;&gt;Node14</title>
<path fill="none" stroke="midnightblue" d="M1613.85,-60.951C1687.86,-52.125 1808.91,-37.1865 1913,-22 1915.68,-21.6086 1918.42,-21.1987 1921.19,-20.7769"/>
<polygon fill="midnightblue" stroke="midnightblue" points="1613.24,-57.4986 1603.72,-62.1553 1614.07,-64.4496 1613.24,-57.4986"/>
</g>
<!-- Node15 -->
<g id="node29" class="node"><title>Node15</title>
<a xlink:href="LockWindow_8cpp.htm" target="_top" xlink:title="LockWindow.cpp">
<polygon fill="white" stroke="black" points="2056,-0.5 2056,-21.5 2152,-21.5 2152,-0.5 2056,-0.5"/>
<text text-anchor="middle" x="2104" y="-8.5" font-family="Helvetica,sans-Serif" font-size="10.00">LockWindow.cpp</text>
</a>
</g>
<!-- Node1&#45;&gt;Node15 -->
<g id="edge28" class="edge"><title>Node1&#45;&gt;Node15</title>
<path fill="none" stroke="midnightblue" d="M1613.82,-64.6851C1710.78,-58.1233 1892.95,-44.022 2047,-22 2049.89,-21.5864 2052.86,-21.1253 2055.85,-20.6328"/>
<polygon fill="midnightblue" stroke="midnightblue" points="1613.32,-61.2113 1603.57,-65.3723 1613.78,-68.1956 1613.32,-61.2113"/>
</g>
<!-- Node16 -->
<g id="node31" class="node"><title>Node16</title>
<a xlink:href="DashboardWindowContainer_8cpp.htm" target="_top" xlink:title="DashboardWindowContainer.cpp">
<polygon fill="white" stroke="black" points="2170,-0.5 2170,-21.5 2342,-21.5 2342,-0.5 2170,-0.5"/>
<text text-anchor="middle" x="2256" y="-8.5" font-family="Helvetica,sans-Serif" font-size="10.00">DashboardWindowContainer.cpp</text>
</a>
</g>
<!-- Node1&#45;&gt;Node16 -->
<g id="edge30" class="edge"><title>Node1&#45;&gt;Node16</title>
<path fill="none" stroke="midnightblue" d="M1613.99,-64.6202C1727.97,-57.1856 1962.74,-41.0348 2161,-22 2163.89,-21.7223 2166.83,-21.4312 2169.8,-21.1298"/>
<polygon fill="midnightblue" stroke="midnightblue" points="1613.42,-61.1495 1603.67,-65.2909 1613.88,-68.1348 1613.42,-61.1495"/>
</g>
<!-- Node17 -->
<g id="node33" class="node"><title>Node17</title>
<a xlink:href="DashboardWindowManager_8cpp.htm" target="_top" xlink:title="DashboardWindowManager.cpp">
<polygon fill="white" stroke="black" points="2360,-0.5 2360,-21.5 2528,-21.5 2528,-0.5 2360,-0.5"/>
<text text-anchor="middle" x="2444" y="-8.5" font-family="Helvetica,sans-Serif" font-size="10.00">DashboardWindowManager.cpp</text>
</a>
</g>
<!-- Node1&#45;&gt;Node17 -->
<g id="edge32" class="edge"><title>Node1&#45;&gt;Node17</title>
<path fill="none" stroke="midnightblue" d="M1613.85,-66.3675C1753.2,-60.7344 2078.57,-46.0335 2351,-22 2353.92,-21.7428 2356.88,-21.4674 2359.87,-21.1777"/>
<polygon fill="midnightblue" stroke="midnightblue" points="1613.59,-62.8749 1603.74,-66.7733 1613.88,-69.8692 1613.59,-62.8749"/>
</g>
<!-- Node18 -->
<g id="node35" class="node"><title>Node18</title>
<a xlink:href="DashboardWindowManagerStates_8cpp.htm" target="_top" xlink:title="DashboardWindowManagerStates.cpp">
<polygon fill="white" stroke="black" points="2546,-0.5 2546,-21.5 2744,-21.5 2744,-0.5 2546,-0.5"/>
<text text-anchor="middle" x="2645" y="-8.5" font-family="Helvetica,sans-Serif" font-size="10.00">DashboardWindowManagerStates.cpp</text>
</a>
</g>
<!-- Node1&#45;&gt;Node18 -->
<g id="edge34" class="edge"><title>Node1&#45;&gt;Node18</title>
<path fill="none" stroke="midnightblue" d="M1614.04,-67.0163C1775.6,-62.093 2190.84,-47.81 2537,-22 2539.91,-21.7828 2542.87,-21.5516 2545.85,-21.3088"/>
<polygon fill="midnightblue" stroke="midnightblue" points="1613.66,-63.5262 1603.77,-67.3271 1613.87,-70.523 1613.66,-63.5262"/>
</g>
<!-- Node19 -->
<g id="node37" class="node"><title>Node19</title>
<a xlink:href="QmlAlertWindow_8cpp.htm" target="_top" xlink:title="QmlAlertWindow.cpp">
<polygon fill="white" stroke="black" points="2762,-0.5 2762,-21.5 2876,-21.5 2876,-0.5 2762,-0.5"/>
<text text-anchor="middle" x="2819" y="-8.5" font-family="Helvetica,sans-Serif" font-size="10.00">QmlAlertWindow.cpp</text>
</a>
</g>
<!-- Node1&#45;&gt;Node19 -->
<g id="edge36" class="edge"><title>Node1&#45;&gt;Node19</title>
<path fill="none" stroke="midnightblue" d="M1613.9,-67.4651C1835.69,-62.3442 2529.62,-44.8685 2753,-22 2755.89,-21.7042 2758.84,-21.3613 2761.82,-20.9833"/>
<polygon fill="midnightblue" stroke="midnightblue" points="1613.62,-63.9706 1603.7,-67.6996 1613.78,-70.9688 1613.62,-63.9706"/>
</g>
<!-- Node20 -->
<g id="node39" class="node"><title>Node20</title>
<a xlink:href="StatusBar_8cpp.htm" target="_top" xlink:title="StatusBar.cpp">
<polygon fill="white" stroke="black" points="2894,-0.5 2894,-21.5 2976,-21.5 2976,-0.5 2894,-0.5"/>
<text text-anchor="middle" x="2935" y="-8.5" font-family="Helvetica,sans-Serif" font-size="10.00">StatusBar.cpp</text>
</a>
</g>
<!-- Node1&#45;&gt;Node20 -->
<g id="edge38" class="edge"><title>Node1&#45;&gt;Node20</title>
<path fill="none" stroke="midnightblue" d="M1614.12,-68.2331C1851.92,-65.3353 2635.4,-53.5682 2885,-22 2887.91,-21.632 2890.9,-21.176 2893.9,-20.661"/>
<polygon fill="midnightblue" stroke="midnightblue" points="1613.84,-64.7362 1603.88,-68.3565 1613.92,-71.7357 1613.84,-64.7362"/>
</g>
<!-- Node21 -->
<g id="node41" class="node"><title>Node21</title>
<a xlink:href="WindowServerLuna_8cpp.htm" target="_top" xlink:title="WindowServerLuna.cpp">
<polygon fill="white" stroke="black" points="2994,-0.5 2994,-21.5 3122,-21.5 3122,-0.5 2994,-0.5"/>
<text text-anchor="middle" x="3058" y="-8.5" font-family="Helvetica,sans-Serif" font-size="10.00">WindowServerLuna.cpp</text>
</a>
</g>
<!-- Node1&#45;&gt;Node21 -->
<g id="edge40" class="edge"><title>Node1&#45;&gt;Node21</title>
<path fill="none" stroke="midnightblue" d="M1614.1,-67.8173C1863.11,-63.3881 2713.95,-46.7591 2985,-22 2987.94,-21.7318 2990.93,-21.4231 2993.96,-21.0832"/>
<polygon fill="midnightblue" stroke="midnightblue" points="1613.69,-64.324 1603.75,-68.0006 1613.81,-71.3229 1613.69,-64.324"/>
</g>
</g>
</svg>
