<?xml version="1.0" encoding="UTF-8" standalone="no"?>
<!DOCTYPE svg PUBLIC "-//W3C//DTD SVG 1.1//EN"
 "http://www.w3.org/Graphics/SVG/1.1/DTD/svg11.dtd">
<!-- Generated by graphviz version 2.26.3 (20100126.1600)
 -->
<!-- Title: WSOverlayScreenShotAnimation.h Pages: 1 -->
<svg width="508pt" height="88pt"
 viewBox="0.00 0.00 508.00 88.00" xmlns="http://www.w3.org/2000/svg" xmlns:xlink="http://www.w3.org/1999/xlink">
<g id="graph1" class="graph" transform="scale(1 1) rotate(0) translate(4 84)">
<title>WSOverlayScreenShotAnimation.h</title>
<polygon fill="white" stroke="white" points="-4,5 -4,-84 505,-84 505,5 -4,5"/>
<!-- Node1 -->
<g id="node1" class="node"><title>Node1</title>
<polygon fill="#bfbfbf" stroke="black" points="171,-58.5 171,-79.5 351,-79.5 351,-58.5 171,-58.5"/>
<text text-anchor="middle" x="261" y="-66.5" font-family="Helvetica,sans-Serif" font-size="10.00">WSOverlayScreenShotAnimation.h</text>
</g>
<!-- Node2 -->
<g id="node3" class="node"><title>Node2</title>
<polygon fill="white" stroke="#bfbfbf" points="-0.5,-0.5 -0.5,-21.5 66.5,-21.5 66.5,-0.5 -0.5,-0.5"/>
<text text-anchor="middle" x="33" y="-8.5" font-family="Helvetica,sans-Serif" font-size="10.00">Common.h</text>
</g>
<!-- Node1&#45;&gt;Node2 -->
<g id="edge2" class="edge"><title>Node1&#45;&gt;Node2</title>
<path fill="none" stroke="midnightblue" d="M218.867,-58.4638C183.287,-49.5415 130.725,-36.3031 76.669,-22.4178"/>
<polygon fill="midnightblue" stroke="midnightblue" points="77.4761,-19.0115 66.9195,-19.9105 75.7326,-25.791 77.4761,-19.0115"/>
</g>
<!-- Node3 -->
<g id="node5" class="node"><title>Node3</title>
<polygon fill="white" stroke="#bfbfbf" points="84,-0.5 84,-21.5 194,-21.5 194,-0.5 84,-0.5"/>
<text text-anchor="middle" x="139" y="-8.5" font-family="Helvetica,sans-Serif" font-size="10.00">QAbstractAnimation</text>
</g>
<!-- Node1&#45;&gt;Node3 -->
<g id="edge4" class="edge"><title>Node1&#45;&gt;Node3</title>
<path fill="none" stroke="midnightblue" d="M238.907,-58.4966C219.766,-49.397 191.854,-36.1273 170.395,-25.9253"/>
<polygon fill="midnightblue" stroke="midnightblue" points="171.875,-22.7539 161.341,-21.6212 168.87,-29.0758 171.875,-22.7539"/>
</g>
<!-- Node4 -->
<g id="node7" class="node"><title>Node4</title>
<polygon fill="white" stroke="#bfbfbf" points="212,-0.5 212,-21.5 310,-21.5 310,-0.5 212,-0.5"/>
<text text-anchor="middle" x="261" y="-8.5" font-family="Helvetica,sans-Serif" font-size="10.00">QGraphicsObject</text>
</g>
<!-- Node1&#45;&gt;Node4 -->
<g id="edge6" class="edge"><title>Node1&#45;&gt;Node4</title>
<path fill="none" stroke="midnightblue" d="M261,-58.3619C261,-50.9219 261,-40.7427 261,-31.7276"/>
<polygon fill="midnightblue" stroke="midnightblue" points="264.5,-31.5706 261,-21.5707 257.5,-31.5707 264.5,-31.5706"/>
</g>
<!-- Node5 -->
<g id="node9" class="node"><title>Node5</title>
<polygon fill="white" stroke="#bfbfbf" points="327.5,-0.5 327.5,-21.5 386.5,-21.5 386.5,-0.5 327.5,-0.5"/>
<text text-anchor="middle" x="357" y="-8.5" font-family="Helvetica,sans-Serif" font-size="10.00">QPointer</text>
</g>
<!-- Node1&#45;&gt;Node5 -->
<g id="edge8" class="edge"><title>Node1&#45;&gt;Node5</title>
<path fill="none" stroke="midnightblue" d="M278.608,-58.3619C293.223,-49.532 314.224,-36.844 330.811,-26.8224"/>
<polygon fill="midnightblue" stroke="midnightblue" points="332.754,-29.7376 339.504,-21.5707 329.135,-23.7461 332.754,-29.7376"/>
</g>
<!-- Node6 -->
<g id="node11" class="node"><title>Node6</title>
<polygon fill="white" stroke="#bfbfbf" points="404,-0.5 404,-21.5 500,-21.5 500,-0.5 404,-0.5"/>
<text text-anchor="middle" x="452" y="-8.5" font-family="Helvetica,sans-Serif" font-size="10.00">QRadialGradient</text>
</g>
<!-- Node1&#45;&gt;Node6 -->
<g id="edge10" class="edge"><title>Node1&#45;&gt;Node6</title>
<path fill="none" stroke="midnightblue" d="M295.589,-58.4966C326.996,-48.9592 373.49,-34.8408 407.625,-24.475"/>
<polygon fill="midnightblue" stroke="midnightblue" points="408.795,-27.7778 417.346,-21.5231 406.761,-21.0798 408.795,-27.7778"/>
</g>
</g>
</svg>
